# CS2 body_hd, tools/cs2_glb_to_obj.py
v -0.16503 0.02315 0.04182
v -0.16503 0.01052 0.04182
v -0.166 0.02315 0.04843
v -0.166 0.01052 0.04843
v -0.16408 0.01052 0.0389
v -0.16713 0.01052 0.05172
v -0.16408 0.02315 0.0389
v -0.16713 0.02315 0.05172
v -0.16277 0.01052 0.03614
v -0.17003 0.02315 0.05403
v -0.16277 0.02315 0.03614
v -0.17003 0.01052 0.05403
v -0.16085 0.02315 0.03332
v -0.17309 0.02315 0.05623
v -0.16085 0.01052 0.03332
v -0.17309 0.01052 0.05623
v -0.1583 0.01052 0.03075
v -0.17517 0.02315 0.05826
v -0.1583 0.02315 0.03075
v -0.17517 0.01052 0.05826
v -0.15571 0.02315 0.02907
v -0.17624 0.01052 0.06022
v -0.15571 0.01052 0.02907
v -0.17624 0.02315 0.06022
v -0.15202 0.02279 0.02704
v -0.17676 0.02789 0.06148
v -0.15202 0.01088 0.02704
v -0.15129 0.01959 0.02695
v -0.15129 0.01383 0.02695
v -0.17676 0.00553 0.06148
v -0.17772 0.00553 0.06385
v -0.17772 0.02789 0.06385
v -0.15177 0.01084 0.02852
v -0.15493 0.01052 0.0311
v -0.15797 0.01052 0.03435
v -0.16011 0.01052 0.03792
v -0.16115 0.01052 0.04297
v -0.16122 0.01052 0.04877
v -0.15992 0.01052 0.05371
v -0.15666 0.01052 0.05775
v -0.15129 0.01052 0.06086
v -0.14906 0.00553 0.06268
v -0.14589 0.00553 0.06527
v -0.14639 0.00553 0.07671
v -0.15177 0.02283 0.02853
v -0.15493 0.02315 0.0311
v -0.15797 0.02315 0.03435
v -0.16011 0.02315 0.03792
v -0.16115 0.02315 0.04297
v -0.16122 0.02315 0.04877
v -0.15992 0.02315 0.05371
v -0.15666 0.02315 0.05775
v -0.15129 0.02315 0.06086
v -0.14906 0.02788 0.06268
v -0.14589 0.02788 0.06527
v -0.14639 0.02788 0.07671
v -0.15104 0.01959 0.02838
v -0.15436 0.01671 0.0319
v -0.15104 0.01383 0.02838
v -0.15759 0.01671 0.03596
v -0.15913 0.01671 0.03866
v -0.16016 0.01671 0.04319
v -0.16037 0.01671 0.04875
v -0.15895 0.01671 0.05354
v -0.15602 0.01671 0.05748
vt 0.755577 0.629902
vt 0.746178 0.629902
vt 0.755577 0.634999
vt 0.746178 0.634999
vt 0.746178 0.627552
vt 0.746178 0.637654
vt 0.755577 0.627552
vt 0.755577 0.637654
vt 0.746178 0.625202
vt 0.755577 0.640492
vt 0.755577 0.625202
vt 0.746178 0.640492
vt 0.755577 0.622608
vt 0.755577 0.643391
vt 0.746178 0.622608
vt 0.746178 0.643391
vt 0.746178 0.619831
vt 0.755577 0.645589
vt 0.755577 0.619831
vt 0.746178 0.645589
vt 0.755577 0.61745
vt 0.746178 0.647298
vt 0.746178 0.61745
vt 0.755577 0.647298
vt 0.755577 0.614246
vt 0.759331 0.648335
vt 0.746178 0.614246
vt 0.752983 0.613666
vt 0.748558 0.613666
vt 0.74221 0.648366
vt 0.74221 0.650319
vt 0.759331 0.650319
vt 0.975829 0.491806
vt 0.972839 0.491104
vt 0.975524 0.492874
vt 0.973571 0.489578
vt 0.970977 0.489608
vt 0.971465 0.486923
vt 0.969176 0.487533
vt 0.970031 0.484054
vt 0.967895 0.485244
vt 0.96704 0.483139
vt 0.96942 0.480117
vt 0.96643 0.48088
vt 0.96588 0.475784
vt 0.969543 0.475661
vt 0.965117 0.47322
vt 0.970672 0.471908
vt 0.962951 0.471419
vt 0.973266 0.468886
vt 0.960631 0.469619
vt 0.959105 0.468062
vt 0.958312 0.466536
vt 0.977447 0.466628
vt 0.957976 0.462691
vt 0.979217 0.462478
vt 0.957305 0.460738
vt 0.981719 0.460707
vt 0.981719 0.451949
vt 0.484603 0.353252
vt 0.481613 0.353923
vt 0.481918 0.355052
vt 0.483871 0.351756
vt 0.486465 0.351787
vt 0.485977 0.34904
vt 0.488235 0.349681
vt 0.487411 0.346202
vt 0.489547 0.347423
vt 0.490402 0.345256
vt 0.487991 0.342265
vt 0.491012 0.342998
vt 0.491562 0.337931
vt 0.487899 0.337809
vt 0.492325 0.335398
vt 0.48677 0.334056
vt 0.494491 0.333537
vt 0.484176 0.331034
vt 0.49678 0.331797
vt 0.498337 0.33018
vt 0.4991 0.328623
vt 0.479965 0.328745
vt 0.499466 0.325114
vt 0.478225 0.324686
vt 0.500107 0.323069
vt 0.475692 0.323038
vt 0.475692 0.31428
vt 0.365184 0.797601
vt 0.367901 0.798395
vt 0.367901 0.797235
vt 0.365246 0.7987
vt 0.367901 0.794092
vt 0.363231 0.793878
vt 0.367901 0.790735
vt 0.360851 0.797601
vt 0.360759 0.7987
vt 0.358501 0.798364
vt 0.358501 0.797204
vt 0.358501 0.794092
vt 0.358501 0.790735
vt 0.363231 0.78985
vt 0.367901 0.7875
vt 0.358501 0.7875
vt 0.363231 0.7875
vt 0.367901 0.783776
vt 0.358501 0.783776
vt 0.363231 0.783715
vt 0.367901 0.779443
vt 0.358501 0.779443
vt 0.363231 0.779351
vt 0.363231 0.775536
vt 0.367901 0.775536
vt 0.358501 0.775536
vt 0.363231 0.771661
vt 0.367901 0.771661
vt 0.358501 0.771661
vt 0.367901 0.767052
vt 0.358501 0.767052
vt 0.371593 0.764824
vt 0.354472 0.764824
vt 0.354472 0.761711
vt 0.371593 0.761711
vt 0.354472 0.752922
vt 0.371593 0.752922
vn -0.9804 0 -0.1968
vn -0.9782 0 -0.2075
vn -0.9293 0 -0.3694
vn -0.8129 0 -0.5824
vn -0.8655 0 -0.5009
vn -0.6024 0 -0.7982
vn -0.7707 0 -0.6372
vn -0.6357 0 -0.7719
vn -0.7853 0 -0.6192
vn -0.5088 0 -0.8609
vn -0.9191 0 -0.3941
vn -0.4772 0 -0.8788
vn -0.9268 0 -0.3756
vn -0.1196 0 -0.9928
vn 0.0692 -0.9968 -0.04
vn 0.0039 -1 -0.001
vn 0.0761 -0.9963 -0.0402
vn 0.002 -1 -0.001
vn 0 -1 -0.001
vn 0.0166 -0.8071 -0.5901
vn 0.0195 -0.6208 -0.7837
vn 0.0152 -0.9389 -0.3438
vn 0.0094 -0.9772 -0.2121
vn 0.0039 1 -0.001
vn 0.0692 0.9968 -0.04
vn 0.0761 0.9963 -0.0402
vn 0.002 1 -0.001
vn 0 1 -0.001
vn 0.0137 0.8193 -0.5732
vn 0.0195 0.6391 -0.7689
vn 0.0151 0.9454 -0.3256
vn 0.0093 0.98 -0.1986
vn 0.8427 0.0962 0.5297
vn 0.9592 0.2252 -0.1709
vn 0.733 0.1334 0.667
vn 0.9817 0.0846 -0.1705
vn 0.6885 0.1498 0.7096
vn 0.7473 0.0014 0.6644
vn 0.7685 0.1987 0.6083
vn 0.8416 -0.0993 0.5309
vn 0.9814 -0.0872 -0.1708
vn 0.9549 -0.2434 -0.1699
vn 0.7319 -0.1464 0.6655
vn 0.6877 -0.1564 0.709
vn 0.765 -0.2055 0.6104
vn 0.8276 0.0014 0.5613
vn 0.9233 0.179 0.3397
vn 0.9219 -0.1884 0.3385
vn 0.9417 -0.0013 0.3364
vn 0.983 0.1536 0.1004
vn 0.9821 -0.159 0.1008
vn 0.9927 -0.0011 0.1209
vn 0.985 0.1297 -0.1141
vn 0.9845 -0.1348 -0.1119
vn 0.993 0 -0.1184
vn 0.8928 0 -0.4504
vn 0.8857 0.1438 -0.4414
vn 0.8855 -0.15 -0.4398
vn 0.6939 0 -0.7201
vn 0.6821 0.097 -0.7248
vn 0.6846 -0.1033 -0.7215
vn 0.625 0.0028 -0.7806
vn 0.625 -0.0028 -0.7806
vn 0.6327 0 -0.7744
vn 0.9617 0 -0.2742
vn 0.9991 -0.001 0.0418
o trigger
f 1/1/1 2/2/1 3/3/2
f 3/3/2 2/2/1 4/4/2
f 2/2/1 1/1/1 5/5/3
f 3/3/2 4/4/2 6/6/4
f 5/5/3 1/1/1 7/7/3
f 3/3/2 6/6/4 8/8/4
f 5/5/3 7/7/3 9/9/5
f 8/8/4 6/6/4 10/10/6
f 9/9/5 7/7/3 11/11/5
f 10/10/6 6/6/4 12/12/6
f 9/9/5 11/11/5 13/13/7
f 10/10/6 12/12/6 14/14/8
f 9/9/5 13/13/7 15/15/7
f 14/14/8 12/12/6 16/16/8
f 15/15/7 13/13/7 17/17/8
f 14/14/8 16/16/8 18/18/9
f 17/17/8 13/13/7 19/19/8
f 18/18/9 16/16/8 20/20/9
f 17/17/8 19/19/8 21/21/10
f 18/18/9 20/20/9 22/22/11
f 17/17/8 21/21/10 23/23/10
f 18/18/9 22/22/11 24/24/11
f 23/23/10 21/21/10 25/25/12
f 24/24/11 22/22/11 26/26/13
f 23/23/10 25/25/12 27/27/12
f 27/27/12 25/25/12 28/28/14
f 27/27/12 28/28/14 29/29/14
f 26/26/13 22/22/11 30/30/13
f 26/26/13 30/30/13 31/31/13
f 26/26/13 31/31/13 32/32/13
f 33/33/15 23/34/16 27/35/17
f 23/34/16 33/33/15 34/36/18
f 23/34/16 34/36/18 17/37/19
f 17/37/19 34/36/18 35/38/19
f 17/37/19 35/38/19 15/39/19
f 15/39/19 35/38/19 36/40/19
f 15/39/19 36/40/19 9/41/19
f 9/41/19 36/40/19 5/42/19
f 5/42/19 36/40/19 37/43/19
f 5/42/19 37/43/19 2/44/19
f 2/44/19 37/43/19 4/45/19
f 4/45/19 37/43/19 38/46/19
f 4/45/19 38/46/19 6/47/19
f 6/47/19 38/46/19 39/48/19
f 6/47/19 39/48/19 12/49/19
f 12/49/19 39/48/19 40/50/19
f 12/49/19 40/50/19 16/51/19
f 16/51/19 40/50/19 20/52/19
f 20/52/19 40/50/19 22/53/20
f 22/53/20 40/50/19 41/54/21
f 22/53/20 41/54/21 30/55/22
f 30/55/22 41/54/21 42/56/23
f 30/55/22 42/56/23 31/57/19
f 31/57/19 42/56/23 43/58/19
f 31/57/19 43/58/19 44/59/19
f 21/60/24 45/61/25 25/62/26
f 45/61/25 21/60/24 46/63/27
f 46/63/27 21/60/24 19/64/28
f 46/63/27 19/64/28 47/65/28
f 47/65/28 19/64/28 13/66/28
f 47/65/28 13/66/28 48/67/28
f 48/67/28 13/66/28 11/68/28
f 48/67/28 11/68/28 7/69/28
f 48/67/28 7/69/28 49/70/28
f 49/70/28 7/69/28 1/71/28
f 49/70/28 1/71/28 3/72/28
f 49/70/28 3/72/28 50/73/28
f 50/73/28 3/72/28 8/74/28
f 50/73/28 8/74/28 51/75/28
f 51/75/28 8/74/28 10/76/28
f 51/75/28 10/76/28 52/77/28
f 52/77/28 10/76/28 14/78/28
f 52/77/28 14/78/28 18/79/28
f 52/77/28 18/79/28 24/80/29
f 52/77/28 24/80/29 53/81/30
f 53/81/30 24/80/29 26/82/31
f 53/81/30 26/82/31 54/83/32
f 54/83/32 26/82/31 32/84/28
f 54/83/32 32/84/28 55/85/28
f 55/85/28 32/84/28 56/86/28
f 57/87/33 25/88/34 45/89/35
f 25/88/34 57/87/33 28/90/36
f 46/91/37 57/87/33 45/89/35
f 57/87/33 46/91/37 58/92/38
f 58/92/38 46/91/37 47/93/39
f 57/87/33 58/92/38 59/94/40
f 57/87/33 59/94/40 28/90/36
f 28/90/36 59/94/40 29/95/41
f 29/95/41 59/94/40 27/96/42
f 27/96/42 59/94/40 33/97/43
f 33/97/43 59/94/40 34/98/44
f 34/98/44 59/94/40 58/92/38
f 34/98/44 58/92/38 35/99/45
f 60/100/46 58/92/38 47/93/39
f 58/92/38 60/100/46 35/99/45
f 60/100/46 47/93/39 48/101/47
f 35/99/45 60/100/46 36/102/48
f 60/100/46 48/101/47 61/103/49
f 60/100/46 61/103/49 36/102/48
f 61/103/49 48/101/47 49/104/50
f 36/102/48 61/103/49 37/105/51
f 61/103/49 49/104/50 62/106/52
f 61/103/49 62/106/52 37/105/51
f 62/106/52 49/104/50 50/107/53
f 37/105/51 62/106/52 38/108/54
f 62/106/52 50/107/53 63/109/55
f 62/106/52 63/109/55 38/108/54
f 63/109/55 50/107/53 64/110/56
f 63/109/55 64/110/56 38/108/54
f 64/110/56 50/107/53 51/111/57
f 38/108/54 64/110/56 39/112/58
f 64/110/56 51/111/57 65/113/59
f 64/110/56 65/113/59 39/112/58
f 65/113/59 51/111/57 52/114/60
f 39/112/58 65/113/59 40/115/61
f 65/113/59 52/114/60 53/116/62
f 40/115/61 65/113/59 41/117/63
f 41/117/63 65/113/59 53/116/62
f 41/117/63 53/116/62 54/118/64
f 41/117/63 54/118/64 42/119/64
f 42/119/64 54/118/64 43/120/65
f 43/120/65 54/118/64 55/121/65
f 43/120/65 55/121/65 44/122/66
f 44/122/66 55/121/65 56/123/66
