# CS2 body_hd, tools/cs2_glb_to_obj.py
v -0.05019 0.00522 0.1501
v -0.04555 0.00884 0.15459
v -0.04745 0.0267 0.15257
v -0.04368 0.02197 0.15656
v -0.04368 0.01284 0.15656
v -0.05328 0.02897 0.14734
v -0.05516 0.00425 0.14592
v -0.06798 0.0292 0.13532
v -0.06642 0.00422 0.13686
v -0.06797 0.0034 0.13532
v -0.0684 0.03655 0.1297
v -0.0684 -0.00247 0.1297
v -0.06813 0.03038 0.117
v -0.06813 0.03655 0.117
v -0.06813 0.00304 0.117
v -0.06833 -0.00313 0.1274
v -0.06813 -0.00313 0.117
v -0.06813 0.02498 0.10696
v -0.06813 0.00808 0.10679
v -0.06813 0.02482 0.09354
v -0.06813 0.00795 0.09354
v -0.02263 -0.00247 0.12997
v 0.05172 0.0034 0.13532
v 0.05172 0.00422 0.13686
v 0.05172 0.00425 0.14562
v 0.05172 0.00522 0.15007
v 0.05172 0.00884 0.15464
v 0.05172 0.01284 0.15664
v -0.01502 -0.00389 0.12879
v 0.05172 -0.00389 0.12879
v 0.04186 -0.00455 0.12528
v 0.05172 -0.00455 0.12528
v -0.02263 -0.00313 0.1274
v -0.02263 -0.00313 0.117
v -0.01502 -0.00455 0.12593
v 0.04107 -0.00455 0.12259
v -0.01502 -0.00455 0.117
v 0.04107 -0.00455 0.11927
v 0.04107 -0.00455 0.117
v 0.04256 -0.03493 0.11944
v 0.04332 -0.03716 0.11942
v 0.04332 -0.03716 0.12784
v 0.04332 -0.03716 0.11716
v 0.04256 -0.03493 0.12792
v 0.04593 -0.0385 0.11721
v 0.04256 -0.03493 0.11711
v 0.04457 -0.03252 0.117
v 0.04175 -0.03048 0.11949
v 0.04175 -0.03048 0.117
v 0.04484 -0.0279 0.117
v 0.04118 -0.02344 0.117
v 0.04582 -0.02284 0.117
v 0.04757 -0.01752 0.117
v 0.04118 -0.02344 0.11949
v 0.05172 -0.01151 0.117
v 0.05172 0.00283 0.11707
v 0.04204 0.00283 0.11707
v 0.04109 -0.0131 0.12303
v 0.04151 -0.01296 0.12537
v 0.0411 -0.01748 0.12442
v 0.04151 -0.01607 0.12694
v 0.05172 -0.01245 0.12532
v 0.0411 -0.01972 0.12757
v 0.0413 -0.01861 0.13058
v 0.04118 -0.02344 0.12797
v 0.0414 -0.02344 0.13058
v 0.04175 -0.03048 0.1281
v 0.04275 -0.03479 0.13058
v 0.04197 -0.03048 0.13058
v 0.04457 -0.03252 0.13071
v 0.04589 -0.02293 0.13071
v 0.04744 -0.01861 0.13071
v 0.04482 -0.0279 0.13071
v 0.04625 -0.03258 0.12345
v 0.04868 -0.01607 0.12694
v 0.04621 -0.02809 0.12321
v 0.04701 -0.02339 0.12258
v 0.04879 -0.01804 0.12174
v 0.05172 -0.01318 0.12097
v 0.05172 0.02023 0.12634
v 0.05172 0.0292 0.13532
v 0.05172 0.02478 0.1365
v 0.05172 0.01885 0.13422
v 0.05172 0.01477 0.13422
v 0.05172 0.00884 0.1365
v 0.05172 0.00522 0.14122
v 0.05172 0.02012 0.11841
v 0.05172 0.00821 0.10679
v 0.05172 0.00084 0.11193
v 0.05172 0.00114 0.10679
v 0.05172 0.01178 0.10134
v 0.05172 0.02168 0.09354
v 0.05172 0.01178 0.09354
v 0.05172 0.02168 0.10134
v 0.05172 0.0236 0.1041
v 0.05172 0.02584 0.10988
v 0.05172 0.02391 0.11592
v 0.0435 -0.03695 0.13058
v 0.04454 -0.0391 0.13058
v 0.04592 -0.03839 0.13071
v 0.04585 -0.04079 0.13014
v 0.04772 -0.04119 0.12975
v 0.04707 -0.0422 0.12961
v 0.04438 -0.03937 0.12775
v 0.04593 -0.04129 0.1271
v 0.04891 -0.04142 0.12639
v 0.04774 -0.04293 0.12646
v 0.04908 -0.04152 0.12367
v 0.04774 -0.04293 0.12088
v 0.04891 -0.04142 0.12095
v 0.04593 -0.04129 0.12014
v 0.04705 -0.0425 0.11784
v 0.04772 -0.04119 0.1178
v 0.04559 -0.04108 0.11753
v 0.04438 -0.03937 0.1194
v 0.04438 -0.03937 0.11721
v -0.02226 0.03655 0.117
v -0.02237 0.03655 0.1297
v 0.04753 -0.03757 0.12367
v -0.02226 0.02498 0.10696
v -0.02226 0.02482 0.09354
v -0.02226 0.03038 0.117
v 0.04204 0.00084 0.11193
v 0.04204 0.00114 0.10679
v 0.0354 0.00821 0.11707
v 0.0354 0.00808 0.10679
v -0.02237 0.00821 0.117
v -0.02237 0.00808 0.10679
v -0.02237 0.01178 0.10134
v -0.02237 0.01178 0.09354
v -0.02226 0.02168 0.10134
v -0.02226 0.02168 0.09354
v -0.02237 -0.00061 0.117
v -0.02237 0.00795 0.09354
v 0.25792 0.00444 0.14412
v 0.25792 0.00672 0.13862
v 0.25792 0.00522 0.15002
v 0.25792 0.01144 0.135
v 0.25792 0.00884 0.15474
v 0.25792 0.01284 0.15682
v 0.25792 0.01692 0.13402
v 0.25792 0.02219 0.135
v -0.02237 0.0292 0.13532
v -0.02237 0.02023 0.12634
v -0.02237 0.02012 0.11841
v -0.02237 0.02478 0.1365
v 0.05172 0.02841 0.14122
v -0.02237 0.02841 0.14122
v 0.25792 0.02918 0.14412
v 0.25792 0.02691 0.13862
vt 0.499344 0.847591
vt 0.494888 0.839595
vt 0.472701 0.842891
vt 0.478591 0.836146
vt 0.489944 0.836146
vt 0.46968 0.852657
vt 0.500504 0.855678
vt 0.46968 0.876247
vt 0.500504 0.873592
vt 0.50148 0.876278
vt 0.585925 0.066012
vt 0.634358 0.066012
vt 0.59505 0.058962
vt 0.627064 0.058992
vt 0.593585 0.08179
vt 0.585925 0.08179
vt 0.627491 0.08179
vt 0.635182 0.06885
vt 0.635151 0.08179
vt 0.60036 0.094302
vt 0.621326 0.094302
vt 0.60036 0.110874
vt 0.621326 0.110904
vt 0.646443 0.269173
vt 0.646443 0.279702
vt 0.705954 0.279489
vt 0.646443 0.282754
vt 0.802362 0.269143
vt 0.64922 0.266884
vt 0.802362 0.266854
vt 0.663808 0.255135
vt 0.802362 0.255562
vt 0.670247 0.249611
vt 0.802362 0.249641
vt 0.67626 0.242134
vt 0.802362 0.242103
vt 0.678701 0.236335
vt 0.802362 0.236335
vt 0.715873 0.281655
vt 0.802362 0.281777
vt 0.789544 0.286416
vt 0.802362 0.286386
vt 0.705924 0.283059
vt 0.646443 0.296731
vt 0.705741 0.296731
vt 0.715873 0.285348
vt 0.788507 0.289895
vt 0.715751 0.296731
vt 0.788507 0.294229
vt 0.788965 0.296731
vt 0.326243 0.20484
vt 0.329325 0.205115
vt 0.329356 0.216681
vt 0.329508 0.202063
vt 0.326304 0.216529
vt 0.332957 0.199957
vt 0.326365 0.201636
vt 0.324046 0.197943
vt 0.3202 0.204505
vt 0.320231 0.201117
vt 0.317179 0.196417
vt 0.310465 0.201086
vt 0.309854 0.194739
vt 0.302164 0.192419
vt 0.310343 0.204413
vt 0.284433 0.202063
vt 0.293588 0.187078
vt 0.273812 0.187689
vt 0.274209 0.201025
vt 0.284341 0.20542
vt 0.296091 0.210669
vt 0.284341 0.210089
vt 0.295907 0.21482
vt 0.284188 0.213965
vt 0.302103 0.211768
vt 0.300546 0.216102
vt 0.292978 0.229011
vt 0.305887 0.215125
vt 0.305429 0.218268
vt 0.310953 0.215522
vt 0.311197 0.218604
vt 0.320353 0.216376
vt 0.325938 0.220252
vt 0.320322 0.219764
vt 0.323283 0.223243
vt 0.31019 0.22425
vt 0.304483 0.224982
vt 0.316874 0.22367
vt 0.323374 0.23365
vt 0.299173 0.226875
vt 0.316721 0.234199
vt 0.322947 0.242866
vt 0.316446 0.242927
vt 0.309549 0.235115
vt 0.308878 0.242805
vt 0.30134 0.235176
vt 0.30076 0.242103
vt 0.293435 0.235115
vt 0.290689 0.240791
vt 0.282052 0.227607
vt 0.271432 0.240791
vt 0.249001 0.226691
vt 0.280984 0.222694
vt 0.270882 0.21366
vt 0.235969 0.216498
vt 0.241523 0.214179
vt 0.249702 0.216071
vt 0.255165 0.215125
vt 0.263344 0.212012
vt 0.269753 0.211493
vt 0.268349 0.205481
vt 0.269692 0.199438
vt 0.249001 0.237953
vt 0.264138 0.253945
vt 0.273934 0.247383
vt 0.273568 0.254158
vt 0.259529 0.260628
vt 0.246529 0.270821
vt 0.25959 0.270821
vt 0.24662 0.260537
vt 0.244179 0.256844
vt 0.241249 0.249214
vt 0.243782 0.241249
vt 0.328837 0.220435
vt 0.331858 0.22071
vt 0.331828 0.222907
vt 0.334727 0.220496
vt 0.336924 0.221931
vt 0.337474 0.219886
vt 0.33256 0.216834
vt 0.335795 0.216224
vt 0.341441 0.215888
vt 0.339122 0.220527
vt 0.338969 0.21543
vt 0.341929 0.211737
vt 0.339213 0.207709
vt 0.341777 0.207617
vt 0.335917 0.206519
vt 0.338328 0.203345
vt 0.340403 0.20304
vt 0.335459 0.202887
vt 0.337718 0.201056
vt 0.332591 0.205329
vt 0.332713 0.202399
vt 0.204382 0.023103
vt 0.232856 0.023103
vt 0.204382 0.015137
vt 0.232856 0.015137
vt 0.336192 0.224799
vt 0.33668 0.229682
vt 0.33079 0.233253
vt 0.336711 0.233253
vt 0.336558 0.236854
vt 0.33137 0.2425
vt 0.335734 0.241462
vt 0.289895 0.48796
vt 0.318369 0.496353
vt 0.318369 0.48796
vt 0.289895 0.496353
vt 0.318369 0.480819
vt 0.289895 0.480819
vt 0.758324 0.117832
vt 0.747917 0.117832
vt 0.747917 0.122806
vt 0.758324 0.122806
vt 0.758324 0.113315
vt 0.758324 0.127049
vt 0.747917 0.113315
vt 0.736045 0.113315
vt 0.736045 0.127049
vt 0.664479 0.113315
vt 0.664479 0.127049
vt 0.758324 0.135777
vt 0.664479 0.135777
vt 0.664479 0.144841
vt 0.758324 0.144841
vt 0.214057 0.990326
vt 0.261025 0.992401
vt 0.261025 0.987365
vt 0.214057 0.987365
vt 0.214057 0.992401
vt 0.214057 0.997284
vt 0.261025 0.997284
vt 0.159185 0.337748
vt 0.102237 0.341777
vt 0.159185 0.341838
vt 0.102237 0.337748
vt 0.159185 0.358501
vt 0.102237 0.358501
vt 0.159185 0.375469
vt 0.102237 0.375469
vt 0.464248 0.031159
vt 0.435774 0.039308
vt 0.464248 0.037355
vt 0.464248 0.039308
vt 0.435774 0.028748
vt 0.464248 0.028748
vt 0.511216 0.031159
vt 0.511216 0.037355
vt 0.241096 0.289682
vt 0.241096 0.293863
vt 0.425245 0.291055
vt 0.425245 0.296548
vt 0.425245 0.285684
vt 0.241096 0.299234
vt 0.241096 0.285623
vt 0.425245 0.301706
vt 0.241096 0.280404
vt 0.241096 0.304788
vt 0.425245 0.280374
vt 0.241096 0.276376
vt 0.425245 0.276315
vt 0.425245 0.306711
vt 0.241096 0.308481
vt 0.425245 0.311472
vt 0.77517 0.03946
vt 0.821131 0.031587
vt 0.77517 0.031587
vt 0.821131 0.039521
vt 0.77517 0.044404
vt 0.821131 0.044343
vt 0.425367 0.013642
vt 0.471328 0.013642
vt 0.425367 0.009919
vt 0.471328 0.009919
vt 0.385937 0.172277
vt 0.315714 0.172277
vt 0.378521 0.187567
vt 0.386944 0.180517
vt 0.306864 0.187567
vt 0.306864 0.176397
vt 0.306864 0.172277
vt 0.83639 0.31727
vt 0.864864 0.31727
vt 0.83639 0.313425
vt 0.864864 0.313425
vt 0.241096 0.320627
vt 0.425245 0.320627
vt 0.425245 0.316202
vt 0.241096 0.314341
vt 0.827052 0.045137
vt 0.823817 0.050935
vt 0.826502 0.034455
vt 0.830683 0.037751
vt 0.830683 0.045137
vt 0.745201 0.968047
vt 0.733726 0.968047
vt 0.745201 0.98178
vt 0.002686 0.399213
vt 0.007416 0.389325
vt 0.002686 0.382275
vt 0.007416 0.399213
vt 0.263039 0.997284
vt 0.263039 0.988891
vn -0.6629 0.0042 0.7487
vn -0.7057 0.0042 0.7085
vn -0.6818 0.0014 0.7316
vn -0.7262 0.0014 0.6875
vn -0.7262 -0.0014 0.6875
vn -0.6392 0.0041 0.769
vn -0.6302 0.0041 0.7764
vn -0.6316 0.0069 0.7753
vn -0.7043 -0.0014 0.7099
vn -1 0 -0.0089
vn -0.9999 -0.006 -0.0089
vn -0.9974 -0.001 0.0722
vn -0.9972 -0.001 0.0745
vn -0.9999 0 -0.0169
vn -0.9998 0 -0.021
vn -0.9987 -0.0479 -0.0177
vn -0.9998 0 -0.0189
vn -1 0 -0.001
vn -0.0014 -0.7601 0.6498
vn -0.0041 -0.8225 0.5688
vn -0.0042 -0.7195 0.6945
vn -0.001 -0.9985 0.0546
vn -0.0014 -0.7181 0.696
vn -0.0012 -0.9799 0.1997
vn 0.0011 -0.9965 0.0835
vn 0.001 -0.9996 0.0292
vn 0.001 -0.9975 0.07
vn 0.0013 -0.935 0.3546
vn 0.0013 -0.8926 0.4509
vn -0.0014 -0.6988 0.7154
vn -0.0014 -0.6557 0.7551
vn -0.0013 -0.4414 0.8973
vn -0.0013 -0.4477 0.8942
vn -0.0042 -0.6945 0.7195
vn -0.0014 -0.7751 0.6319
vn 0.001 -0.9972 0.0745
vn -0.0011 -0.983 0.1838
vn -0.022 -0.9984 0.0513
vn 0 -1 -0.001
vn -0.0251 -0.9997 0.001
vn -0.0259 -0.999 0.0363
vn -0.024 -0.9997 -0.001
vn -0.9736 -0.2281 -0.0012
vn -0.926 -0.3775 -0.0013
vn -0.9256 -0.3782 0.0168
vn -0.9111 -0.3758 -0.1694
vn -0.9731 -0.2299 0.0155
vn 0.0275 -0.0549 -0.9981
vn -0.9595 -0.23 -0.1626
vn 0 -0.002 -1
vn -0.9929 -0.1185 0.0011
vn -0.3126 -0.0381 -0.9491
vn 0 0 -1
vn -0.3909 -0.0129 -0.9203
vn -0.9994 -0.0345 -0.003
vn -0.2677 0.0024 -0.9635
vn 0.002 0.002 -1
vn 0.002 0.0079 -1
vn 0 0.0099 -1
vn -1 -0.0039 -0.003
vn -0.9999 -0.001 0.0129
vn -0.9994 0.001 0.0354
vn -0.2972 0.1479 0.9433
vn -0.2281 0.0203 0.9734
vn -1 -0.001 0.001
vn -0.3516 0.6198 0.7016
vn 0.9951 -0.0097 0.0981
vn -0.9999 -0.0109 0.003
vn -0.2856 0.4108 0.8659
vn -0.999 -0.0443 0.0113
vn -0.4434 -0.0226 0.8961
vn -0.9928 -0.1182 0.0188
vn -0.6487 -0.1527 0.7455
vn -0.6766 -0.08 0.7319
vn 0.8373 0.0813 0.5406
vn 0.7153 -0.2135 0.6654
vn 0.8027 0.035 0.5954
vn 0.7541 -0.1077 0.6479
vn 0.9895 0.1442 -0.0011
vn 0.792 0.0322 0.6097
vn 0.9967 -0.0798 0.0117
vn 0.9642 0.0865 -0.2506
vn 0.9687 -0.1227 -0.216
vn 0.9685 -0.249 0.0012
vn 0.9427 -0.246 -0.2253
vn 0.9201 -0.391 -0.0222
vn 0.8645 -0.4262 -0.2664
vn 0.9998 -0.02 -0.005
vn 0.9999 -0.0099 -0.005
vn 0.9971 0.0011 0.0767
vn 1 0 -0.001
vn -0.8624 -0.3564 0.3595
vn -0.7897 -0.5142 0.3348
vn 0.8907 0.2386 0.3868
vn -0.6026 -0.6462 0.4683
vn 0.1511 -0.2326 0.9607
vn -0.1344 -0.9013 0.4118
vn -0.8528 -0.5216 0.026
vn -0.7277 -0.6854 0.0267
vn 0.775 -0.5917 0.2221
vn 0.7784 -0.545 0.3117
vn -0.3406 -0.937 0.0782
vn 0.7395 -0.6732 0.0014
vn -0.3305 -0.942 -0.0585
vn 0.7726 -0.5881 -0.2393
vn -0.7357 -0.6773 0.0097
vn -0.0421 -0.9651 -0.2586
vn 0.8318 -0.4348 -0.345
vn -0.6948 -0.6496 -0.3086
vn 0.1198 -0.1198 -0.9856
vn -0.8481 -0.5299 0.0013
vn -0.8676 -0.4576 -0.1946
vn 0 1 -0.001
vn 0.8498 0.4533 0.2689
vn 0.8661 0.4532 0.2109
vn 0.953 0.3029 -0.0037
vn 0.9309 0.3653 -0.0013
vn 0.8465 0.4737 -0.243
vn 0.916 0.2957 -0.271
vn 0.8279 0.4886 -0.2754
vn 0 0.9734 -0.2292
vn 0 0.9999 -0.0129
vn 0 0.8814 -0.4724
vn -0.0011 -0.987 0.1606
vn -0.2845 -0.9495 0.1322
vn -0.1186 -0.4322 -0.894
vn 0 -0.4677 -0.8839
vn -0.0013 -0.9339 0.3576
vn 0.0025 -0.3474 -0.9377
vn -0.2089 -0.912 0.353
vn -0.0488 -0.9987 0.0156
vn -0.0231 -0.9356 -0.3524
vn -0.001 -0.9999 0.0129
vn 0 -0.9707 -0.2403
vn 0 -0.9932 -0.116
vn 0 -0.9679 -0.2515
vn 0.0026 0.8986 -0.4388
vn 0.0709 0.9858 -0.1525
vn -0.0027 0.8667 -0.4989
vn 0.0025 0.9313 -0.3642
vn 0 0.9946 -0.1042
vn 0.0579 0.9983 -0.001
vn -0.0603 -0.7576 -0.65
vn -0.0481 -0.6027 -0.7965
vn 0 -0.944 -0.33
vn 0 -0.9765 -0.2156
vn 0.001 -1 0.0089
vn -0.0026 -0.8939 -0.4483
vn 0.0022 -0.9914 -0.1308
vn 0.0027 -0.7937 -0.6083
vn 0.0013 -0.8861 0.4635
vn -0.0027 -0.5914 -0.8064
vn 0.0013 -0.8558 0.5173
vn 0.0026 -0.4121 -0.9111
vn -0.0014 -0.6527 0.7576
vn -0.0023 -0.2202 -0.9755
vn -0.0014 -0.6644 0.7473
vn -0.0013 -0.4604 0.8877
vn -0.0023 0.2202 -0.9755
vn 0.0026 0.4184 -0.9083
vn 0 0.7078 -0.7064
vn 0.2915 0.8435 -0.4512
vn 0 0.9999 -0.0149
vn 0.6494 0.7604 -0.0097
vn 0 0.7924 -0.61
vn 0.0039 0.0059 -1
vn 0.004 0.0079 -1
vn 0.0059 0.0079 -1
vn 0.002 0 -1
vn -0.0027 0.796 -0.6053
vn 0.0026 0.9239 -0.3826
vn 0.0027 0.7937 -0.6083
vn -0.0027 0.5914 -0.8064
vn 1 -0.0069 0.0049
vn 0.9999 -0.0109 0.005
vn 1 -0.001 0.0049
vn 0.9999 0.007 0.0089
vn 1 0.001 0.0069
o bolt
f 1/1/1 2/2/2 3/3/3
f 3/3/3 2/2/2 4/4/4
f 4/4/4 2/2/2 5/5/5
f 1/1/1 3/3/3 6/6/6
f 1/1/1 6/6/6 7/7/7
f 7/7/7 6/6/6 8/8/8
f 7/7/7 8/8/8 9/9/8
f 9/9/8 8/8/8 10/10/9
f 11/11/10 12/12/11 8/13/12
f 8/13/12 12/12/11 10/14/13
f 12/12/11 11/11/10 13/15/14
f 13/15/14 11/11/10 14/16/15
f 12/12/11 13/15/14 15/17/14
f 12/12/11 15/17/14 16/18/16
f 16/18/16 15/17/14 17/19/17
f 15/17/14 13/15/14 18/20/18
f 15/17/14 18/20/18 19/21/18
f 19/21/18 18/20/18 20/22/18
f 19/21/18 20/22/18 21/23/18
f 10/24/19 12/25/20 22/26/21
f 22/26/21 12/25/20 16/27/22
f 10/24/19 22/26/21 23/28/23
f 10/24/19 23/28/23 9/29/24
f 9/29/24 23/28/23 24/30/25
f 9/29/24 24/30/25 7/31/26
f 7/31/26 24/30/25 25/32/27
f 7/31/26 25/32/27 1/33/28
f 1/33/28 25/32/27 26/34/29
f 1/33/28 26/34/29 2/35/30
f 2/35/30 26/34/29 27/36/31
f 2/35/30 27/36/31 5/37/32
f 5/37/32 27/36/31 28/38/33
f 29/39/34 23/28/23 22/26/21
f 23/28/23 29/39/34 30/40/35
f 30/40/35 29/39/34 31/41/36
f 30/40/35 31/41/36 32/42/37
f 29/39/34 22/26/21 33/43/38
f 33/43/38 22/26/21 16/27/22
f 33/43/38 16/27/22 17/44/39
f 33/43/38 17/44/39 34/45/40
f 29/39/34 33/43/38 35/46/41
f 29/39/34 35/46/41 31/41/36
f 35/46/41 33/43/38 34/45/40
f 31/41/36 35/46/41 36/47/39
f 35/46/41 34/45/40 37/48/42
f 36/47/39 35/46/41 38/49/39
f 35/46/41 37/48/42 39/50/39
f 35/46/41 39/50/39 38/49/39
f 40/51/43 41/52/44 42/53/45
f 41/52/44 40/51/43 43/54/46
f 40/51/43 42/53/45 44/55/47
f 45/56/48 43/54/46 46/57/49
f 46/57/49 43/54/46 40/51/43
f 45/56/48 46/57/49 47/58/50
f 40/51/43 44/55/47 48/59/51
f 40/51/43 48/59/51 46/57/49
f 47/58/50 46/57/49 49/60/52
f 49/60/52 46/57/49 48/59/51
f 47/58/50 49/60/52 50/61/53
f 50/61/53 49/60/52 51/62/54
f 50/61/53 51/62/54 52/63/53
f 52/63/53 51/62/54 53/64/53
f 51/62/54 49/60/52 54/65/55
f 54/65/55 49/60/52 48/59/51
f 53/64/53 51/62/54 39/66/56
f 53/64/53 39/66/56 55/67/57
f 55/67/57 39/66/56 56/68/58
f 56/68/58 39/66/56 57/69/59
f 39/66/56 51/62/54 38/70/60
f 38/70/60 51/62/54 54/65/55
f 38/70/60 54/65/55 58/71/61
f 38/70/60 58/71/61 36/72/62
f 36/72/62 58/71/61 59/73/63
f 36/72/62 59/73/63 31/74/64
f 58/71/61 54/65/55 60/75/65
f 58/71/61 60/75/65 59/73/63
f 59/73/63 60/75/65 61/76/66
f 31/74/64 59/73/63 62/77/67
f 61/76/66 60/75/65 63/78/68
f 63/78/68 60/75/65 54/65/55
f 61/76/66 63/78/68 64/79/69
f 63/78/68 54/65/55 65/80/70
f 65/80/70 54/65/55 48/59/51
f 64/79/69 63/78/68 66/81/71
f 66/81/71 63/78/68 65/80/70
f 65/80/70 48/59/51 67/82/72
f 65/80/70 67/82/72 66/81/71
f 67/82/72 48/59/51 44/55/47
f 67/82/72 44/55/47 68/83/73
f 67/82/72 68/83/73 69/84/74
f 67/82/72 69/84/74 66/81/71
f 69/84/74 68/83/73 70/85/75
f 71/86/76 64/79/69 66/81/71
f 64/79/69 71/86/76 72/87/77
f 66/81/71 69/84/74 73/88/78
f 73/88/78 69/84/74 70/85/75
f 66/81/71 73/88/78 71/86/76
f 73/88/78 70/85/75 74/89/79
f 72/87/77 71/86/76 75/90/80
f 73/88/78 74/89/79 76/91/81
f 73/88/78 76/91/81 71/86/76
f 76/91/81 74/89/79 47/92/82
f 76/91/81 47/92/82 50/93/83
f 71/86/76 76/91/81 77/94/84
f 77/94/84 76/91/81 50/93/83
f 71/86/76 77/94/84 75/90/80
f 77/94/84 50/93/83 52/95/85
f 75/90/80 77/94/84 78/96/86
f 78/96/86 77/94/84 52/95/85
f 78/96/86 52/95/85 53/97/87
f 75/90/80 78/96/86 62/77/67
f 78/96/86 53/97/87 79/98/88
f 78/96/86 79/98/88 62/77/67
f 79/98/88 53/97/87 55/99/89
f 79/98/88 55/99/89 62/77/67
f 62/77/67 55/99/89 32/100/90
f 62/77/67 32/100/90 31/74/64
f 32/100/90 55/99/89 56/101/91
f 32/100/90 56/101/91 80/102/91
f 32/100/90 80/102/91 30/103/91
f 30/103/91 80/102/91 23/104/91
f 81/105/91 82/106/91 80/102/91
f 80/102/91 82/106/91 83/107/91
f 80/102/91 83/107/91 84/108/91
f 80/102/91 84/108/91 23/104/91
f 23/104/91 84/108/91 85/109/91
f 23/104/91 85/109/91 24/110/91
f 24/110/91 85/109/91 86/111/91
f 24/110/91 86/111/91 25/112/91
f 87/113/91 80/102/91 56/101/91
f 87/113/91 56/101/91 88/114/91
f 88/114/91 56/101/91 89/115/91
f 88/114/91 89/115/91 90/116/91
f 87/113/91 88/114/91 91/117/91
f 92/118/91 91/117/91 93/119/91
f 91/117/91 92/118/91 94/120/91
f 91/117/91 94/120/91 87/113/91
f 87/113/91 94/120/91 95/121/91
f 87/113/91 95/121/91 96/122/91
f 87/113/91 96/122/91 97/123/91
f 98/124/92 99/125/93 100/126/94
f 100/126/94 99/125/93 101/127/95
f 100/126/94 101/127/95 102/128/96
f 102/128/96 101/127/95 103/129/97
f 98/124/92 100/126/94 68/83/73
f 68/83/73 100/126/94 70/85/75
f 101/127/95 99/125/93 104/130/98
f 99/125/93 98/124/92 42/53/45
f 99/125/93 42/53/45 104/130/98
f 42/53/45 98/124/92 44/55/47
f 44/55/47 98/124/92 68/83/73
f 105/131/99 103/129/97 101/127/95
f 105/131/99 101/127/95 104/130/98
f 106/132/100 102/133/101 103/129/97
f 106/132/100 103/129/97 107/134/102
f 107/134/102 103/129/97 105/131/99
f 106/132/100 107/134/102 108/135/103
f 108/135/103 107/134/102 109/136/104
f 109/136/104 107/134/102 105/131/99
f 108/135/103 109/136/104 110/137/105
f 111/138/106 105/131/99 104/130/98
f 105/131/99 111/138/106 109/136/104
f 110/137/105 109/136/104 112/139/107
f 112/139/107 109/136/104 111/138/106
f 110/137/105 112/139/107 113/140/108
f 112/139/107 111/138/106 114/141/109
f 112/139/107 114/141/109 113/142/110
f 111/138/106 104/130/98 115/143/111
f 111/138/106 115/143/111 114/141/109
f 113/142/110 114/141/109 45/56/48
f 115/143/111 104/130/98 41/52/44
f 114/141/109 115/143/111 116/144/112
f 114/141/109 116/144/112 45/56/48
f 116/144/112 115/143/111 41/52/44
f 41/52/44 104/130/98 42/53/45
f 45/56/48 116/144/112 43/54/46
f 43/54/46 116/144/112 41/52/44
f 117/145/113 14/146/113 118/147/113
f 118/147/113 14/146/113 11/148/113
f 100/126/94 102/149/114 106/150/115
f 100/126/94 106/150/115 119/151/116
f 119/151/116 106/150/115 108/152/117
f 100/126/94 119/151/116 70/85/75
f 70/85/75 119/151/116 74/89/79
f 74/89/79 119/151/116 47/92/82
f 119/151/116 108/152/117 110/153/118
f 47/92/82 119/151/116 45/154/119
f 45/154/119 119/151/116 110/153/118
f 45/154/119 110/153/118 113/155/120
f 72/87/77 61/76/66 64/79/69
f 61/76/66 72/87/77 75/90/80
f 61/76/66 75/90/80 59/73/63
f 59/73/63 75/90/80 62/77/67
f 120/156/121 20/157/122 18/158/121
f 20/157/122 120/156/121 121/159/122
f 120/156/121 18/158/121 13/160/123
f 120/156/121 13/160/123 122/161/123
f 89/162/124 123/163/125 124/164/126
f 89/162/124 124/164/126 90/165/127
f 123/163/125 89/162/124 56/166/128
f 90/165/127 124/164/126 88/167/129
f 123/163/125 56/166/128 57/168/130
f 123/163/125 57/168/130 125/169/131
f 124/164/126 123/163/125 126/170/132
f 124/164/126 126/170/132 88/167/129
f 126/170/132 123/163/125 125/169/131
f 126/170/132 125/169/131 127/171/133
f 126/170/132 127/171/133 128/172/134
f 88/167/129 126/170/132 91/173/135
f 126/170/132 128/172/134 129/174/136
f 126/170/132 129/174/136 91/173/135
f 91/173/135 129/174/136 130/175/39
f 91/173/135 130/175/39 93/176/39
f 95/177/137 131/178/138 120/179/139
f 95/177/137 120/179/139 96/180/140
f 131/178/138 95/177/137 94/181/141
f 131/178/138 94/181/141 92/182/113
f 131/178/138 92/182/113 132/183/142
f 34/184/53 15/185/143 133/186/144
f 15/185/143 34/184/53 17/187/53
f 133/186/144 15/185/143 128/188/145
f 128/188/145 15/185/143 19/189/146
f 128/188/145 19/189/146 134/190/147
f 134/190/147 19/189/146 21/191/147
f 130/192/53 20/193/53 132/194/53
f 132/194/53 20/193/53 121/195/53
f 20/193/53 130/192/53 21/196/53
f 21/196/53 130/192/53 134/197/53
f 130/192/53 132/194/53 93/198/53
f 93/198/53 132/194/53 92/199/53
f 25/200/39 86/201/148 135/202/149
f 135/202/149 86/201/148 136/203/150
f 25/200/39 135/202/149 137/204/151
f 136/203/150 86/201/148 85/205/152
f 25/200/39 137/204/151 26/206/153
f 136/203/150 85/205/152 138/207/154
f 26/206/153 137/204/151 27/208/155
f 138/207/154 85/205/152 84/209/156
f 27/208/155 137/204/151 139/210/157
f 27/208/155 139/210/157 28/211/33
f 28/211/33 139/210/157 140/212/158
f 138/207/154 84/209/156 141/213/53
f 141/213/53 84/209/156 83/214/159
f 141/213/53 83/214/159 142/215/160
f 80/216/123 143/217/161 81/218/161
f 143/217/161 80/216/123 144/219/162
f 144/219/162 80/216/123 87/220/163
f 144/219/162 87/220/163 145/221/164
f 82/222/165 146/223/165 147/224/165
f 147/224/165 146/223/165 148/225/165
f 39/226/166 37/227/53 125/228/167
f 39/226/166 125/228/167 57/229/168
f 125/228/167 37/227/53 127/230/169
f 127/230/169 37/227/53 133/231/53
f 133/231/53 37/227/53 34/232/53
f 122/233/53 13/234/53 117/235/53
f 117/235/53 13/234/53 14/236/53
f 147/237/170 149/238/171 150/239/172
f 147/237/170 150/239/172 82/240/173
f 82/240/173 150/239/172 142/215/160
f 82/240/173 142/215/160 83/214/159
f 122/241/174 145/221/164 120/242/175
f 145/221/164 122/241/174 144/219/162
f 144/219/162 122/241/174 143/243/176
f 143/243/176 122/241/174 118/244/177
f 118/244/177 122/241/174 117/245/178
f 127/246/91 133/247/91 128/248/91
f 134/249/91 129/250/91 128/251/91
f 129/250/91 134/249/91 130/252/91
f 121/253/91 120/254/91 131/178/138
f 121/253/91 131/178/138 132/183/142
