# CS2 body mesh, tools/cs2_glb_to_obj.py
v 0.05445 -0.04708 0.116
v 0.05533 -0.04884 0.11907
v 0.04937 -0.04708 0.116
v 0.04849 -0.04884 0.11907
v 0.05563 -0.04947 0.12247
v 0.04819 -0.04947 0.12247
v 0.05533 -0.04884 0.12587
v 0.04849 -0.04884 0.12587
v 0.04937 -0.04708 0.12894
v 0.05445 -0.04708 0.12894
v 0.0518 -0.02034 0.12894
v 0.04587 -0.02014 0.12894
v 0.04675 -0.02676 0.12893
v 0.05101 -0.02703 0.12894
v 0.04764 -0.03359 0.12893
v 0.05101 -0.03391 0.12894
v 0.04852 -0.04025 0.12894
v 0.0524 -0.04063 0.12894
v 0.04511 -0.00693 0.12368
v 0.04511 -0.01061 0.12368
v 0.05695 -0.00693 0.12368
v 0.05695 -0.01065 0.12368
v 0.05425 -0.01444 0.12368
v 0.0451 -0.01429 0.12368
v 0.05513 -0.01444 0.11813
v 0.05783 -0.01065 0.11813
v 0.05543 -0.01444 0.12004
v 0.05695 -0.01065 0.1164
v 0.05425 -0.01444 0.1164
v 0.05783 -0.00693 0.11813
v 0.05695 -0.00693 0.1164
v 0.05813 -0.00693 0.12004
v 0.05268 -0.02034 0.11907
v 0.0518 -0.02034 0.116
v 0.05813 -0.01065 0.12004
v 0.05783 -0.00693 0.12196
v 0.05783 -0.01065 0.12196
v 0.05513 -0.01444 0.12196
v 0.05298 -0.02034 0.12247
v 0.05268 -0.02034 0.12587
v 0.05219 -0.02703 0.12247
v 0.05189 -0.02703 0.12587
v 0.05219 -0.03391 0.12247
v 0.05189 -0.03391 0.12587
v 0.05328 -0.04063 0.12587
v 0.05189 -0.03391 0.11907
v 0.05328 -0.04063 0.11907
v 0.0524 -0.04063 0.116
v 0.05101 -0.03391 0.116
v 0.05189 -0.02703 0.11907
v 0.05101 -0.02703 0.116
v 0.04511 -0.01061 0.1164
v 0.0451 -0.01429 0.1164
v 0.04423 -0.01064 0.11813
v 0.04423 -0.00693 0.11813
v 0.04511 -0.00693 0.1164
v 0.04423 -0.0144 0.11813
v 0.04393 -0.01065 0.12004
v 0.04587 -0.02014 0.116
v 0.04393 -0.00693 0.12004
v 0.04423 -0.01064 0.12196
v 0.04423 -0.00693 0.12196
v 0.04423 -0.0144 0.12196
v 0.04393 -0.01444 0.12004
v 0.045 -0.02025 0.11907
v 0.0447 -0.02029 0.12247
v 0.045 -0.02025 0.12587
v 0.04587 -0.02688 0.12587
v 0.04557 -0.02692 0.12247
v 0.04587 -0.02688 0.11907
v 0.04675 -0.02676 0.116
v 0.04677 -0.0337 0.12587
v 0.04647 -0.03374 0.12247
v 0.04677 -0.0337 0.11907
v 0.04764 -0.03359 0.116
v 0.04765 -0.04036 0.12587
v 0.04735 -0.0404 0.12247
v 0.04765 -0.04036 0.11907
v 0.04852 -0.04025 0.116
v 0.05358 -0.04063 0.12247
vt 0.463135 0.821777
vt 0.469971 0.823242
vt 0.462891 0.8125
vt 0.469971 0.810547
vt 0.476318 0.82373
vt 0.476318 0.810059
vt 0.482666 0.823242
vt 0.482666 0.810547
vt 0.489746 0.8125
vt 0.489746 0.821777
vt 0.486084 0.894531
vt 0.496826 0.896484
vt 0.496826 0.884277
vt 0.489014 0.882812
vt 0.496826 0.871582
vt 0.490723 0.870117
vt 0.496826 0.858887
vt 0.489746 0.857422
vt 0.496826 0.846191
vt 0.487549 0.845215
vt 0.495117 0.920898
vt 0.49585 0.914062
vt 0.473389 0.917969
vt 0.474365 0.911133
vt 0.47998 0.904785
vt 0.496826 0.907227
vt 0.466064 0.890625
vt 0.466064 0.897461
vt 0.469482 0.890625
vt 0.462891 0.897461
vt 0.462891 0.890625
vt 0.466064 0.904785
vt 0.462891 0.904785
vt 0.469482 0.904785
vt 0.467773 0.879883
vt 0.462158 0.879883
vt 0.469482 0.897461
vt 0.473145 0.904785
vt 0.473145 0.897461
vt 0.476318 0.904785
vt 0.476318 0.897461
vt 0.473145 0.890625
vt 0.476318 0.890625
vt 0.474121 0.879883
vt 0.480225 0.879883
vt 0.486084 0.879883
vt 0.474121 0.867676
vt 0.480225 0.867676
vt 0.486084 0.867676
vt 0.474121 0.85498
vt 0.480225 0.85498
vt 0.486084 0.85498
vt 0.486084 0.842285
vt 0.480225 0.842285
vt 0.467773 0.85498
vt 0.467773 0.842285
vt 0.462158 0.842285
vt 0.462158 0.85498
vt 0.467773 0.867676
vt 0.462158 0.867676
vt 0.52002 0.913574
vt 0.52002 0.906738
vt 0.516602 0.913574
vt 0.516602 0.92041
vt 0.52002 0.92041
vt 0.516602 0.906738
vt 0.513184 0.913574
vt 0.520508 0.895996
vt 0.513184 0.92041
vt 0.509766 0.913574
vt 0.509766 0.92041
vt 0.506348 0.913574
vt 0.506348 0.92041
vt 0.506348 0.906738
vt 0.509766 0.906738
vt 0.513184 0.906738
vt 0.515137 0.895996
vt 0.508789 0.895996
vt 0.502441 0.895996
vt 0.496826 0.895996
vt 0.496826 0.883789
vt 0.502441 0.883789
vt 0.508789 0.883789
vt 0.515137 0.883789
vt 0.520508 0.883789
vt 0.502441 0.871094
vt 0.508789 0.871094
vt 0.515137 0.871094
vt 0.520508 0.871582
vt 0.502441 0.858887
vt 0.502441 0.843262
vt 0.508789 0.858887
vt 0.508789 0.842285
vt 0.515137 0.843262
vt 0.515137 0.858887
vt 0.520508 0.846191
vt 0.520508 0.858887
vt 0.462158 0.830566
vt 0.467773 0.827148
vt 0.474121 0.842285
vt 0.474121 0.826172
vt 0.480225 0.827148
vt 0.486084 0.830566
vt 0.522461 0.920898
vt 0.543945 0.917969
vt 0.521484 0.914062
vt 0.542969 0.911133
vt 0.537109 0.904785
vt 0.520508 0.907227
vt 0.53125 0.894531
vt 0.520508 0.896484
vt 0.520508 0.884277
vt 0.52832 0.882812
vt 0.526855 0.870117
vt 0.527344 0.857422
vt 0.529785 0.845215
vn 0.0216 -0.8763 -0.4813
vn 0.02 -0.9528 -0.303
vn 0.0214 -0.8899 -0.4556
vn 0 -1 -0.001
vn -0.0012 -0.9469 0.3214
vn -0.0013 -0.8811 0.473
vn -0.0013 -0.867 0.4983
vn -0.0013 0.3729 0.9279
vn -0.001 -0.001 1
vn -0.0012 0.2518 0.9678
vn -0.0012 0.3214 0.9469
vn 0.8282 -0.5006 -0.2519
vn 0.9168 -0.3066 -0.256
vn 0.8724 -0.4883 0.023
vn 0.8527 -0.2997 -0.4279
vn 0.8062 -0.4671 -0.3631
vn 0.96 -0.0197 -0.2794
vn 0.9025 -0.0212 -0.4301
vn 0.9999 -0.0159 -0.001
vn 0.9481 -0.2635 -0.1779
vn 0.9427 -0.246 -0.2253
vn 0.9546 -0.2978 0.0012
vn 0.9526 -0.0212 0.3034
vn 0.9065 -0.31 0.2865
vn 0.8896 -0.0227 0.4562
vn 0.8354 -0.3045 0.4575
vn 0.8622 -0.444 0.244
vn 0.8663 -0.2725 0.4187
vn 0.9663 -0.2565 0.0207
vn 0.9619 -0.1697 0.2145
vn 0.9511 -0.129 0.2807
vn 0.9978 -0.0667 -0.001
vn 0.9787 -0.0591 0.1967
vn 0.9549 -0.0626 0.2902
vn 0.996 0.0872 0.0183
vn 0.9738 0.1013 0.2038
vn 0.9516 0.0846 0.2955
vn 0.925 0.2323 0.3007
vn 0.9565 0.218 0.194
vn 0.9788 0.1008 -0.1783
vn 0.9616 0.2134 -0.1726
vn 0.9346 0.2273 -0.2736
vn 0.9583 0.0822 -0.2736
vn 0.983 -0.057 -0.1745
vn 0.9622 -0.0604 -0.2657
vn -0.8814 0 -0.4724
vn -0.8847 -0.0436 -0.4641
vn -0.9471 0 -0.3211
vn -0.9508 -0.0834 -0.2983
vn -0.9999 0 -0.0169
vn -0.9457 -0.1545 -0.2859
vn -0.9546 -0.0012 0.2978
vn -0.8957 -0.0013 0.4446
vn -0.8992 0.0901 0.4281
vn -0.9616 -0.0012 0.2746
vn -0.9975 -0.0678 -0.018
vn -0.9725 -0.1655 -0.1642
vn -0.9924 -0.1234 0.0011
vn -0.9809 -0.039 0.1905
vn -0.9644 -0.0409 0.2612
vn -0.9584 -0.1272 0.2557
vn -0.9762 -0.1416 0.1642
vn -0.9898 -0.1414 -0.0168
vn -0.9721 -0.145 -0.1845
vn -0.9508 -0.1305 -0.281
vn -0.9897 -0.143 0.0011
vn -0.9796 -0.1195 0.1614
vn -0.9476 -0.1074 0.3008
vn -0.9784 -0.0997 0.1809
vn -0.9946 -0.1025 -0.0185
vn -0.9742 -0.1024 -0.2011
vn -0.9757 -0.1226 -0.1814
vn -0.9386 -0.1103 -0.3268
vn 0.9553 0.2382 -0.1753
vn 0.9717 0.2218 -0.081
vn 0.9773 0.211 0.0177
vn 0.9785 0.2064 -0.0012
vn 0.9684 0.2272 0.1028
vn 0.9498 0.2432 0.197
vn 0 -0.0159 -0.9999
vn 0.0161 0.0161 -0.9997
vn 0.0164 0.0328 -0.9993
vn 0.0159 0 -0.9999
vn 0.0161 -0.0161 -0.9997
o bolt
f 1/1/1 2/2/2 3/3/3
f 3/3/3 2/2/2 4/4/2
f 4/4/2 2/2/2 5/5/4
f 4/4/2 5/5/4 6/6/4
f 6/6/4 5/5/4 7/7/5
f 6/6/4 7/7/5 8/8/5
f 8/8/5 7/7/5 9/9/6
f 9/9/6 7/7/5 10/10/7
f 11/11/8 12/12/8 13/13/9
f 11/11/8 13/13/9 14/14/9
f 14/14/9 13/13/9 15/15/9
f 14/14/9 15/15/9 16/16/9
f 16/16/9 15/15/9 17/17/9
f 16/16/9 17/17/9 18/18/9
f 18/18/9 17/17/9 9/19/9
f 18/18/9 9/19/9 10/20/9
f 19/21/9 20/22/9 21/23/9
f 21/23/9 20/22/9 22/24/9
f 22/24/9 20/22/9 23/25/10
f 23/25/10 20/22/9 24/26/11
f 25/27/12 26/28/13 27/29/14
f 26/28/13 25/27/12 28/30/15
f 28/30/15 25/27/12 29/31/16
f 26/28/13 28/30/15 30/32/17
f 30/32/17 28/30/15 31/33/18
f 26/28/13 30/32/17 32/34/19
f 29/31/16 25/27/12 33/35/20
f 33/35/20 25/27/12 27/29/14
f 29/31/16 33/35/20 34/36/21
f 26/28/13 32/34/19 35/37/22
f 26/28/13 35/37/22 27/29/14
f 35/37/22 32/34/19 36/38/23
f 35/37/22 36/38/23 37/39/24
f 35/37/22 37/39/24 27/29/14
f 37/39/24 36/38/23 21/40/25
f 37/39/24 21/40/25 22/41/26
f 37/39/24 22/41/26 38/42/27
f 37/39/24 38/42/27 27/29/14
f 38/42/27 22/41/26 23/43/28
f 27/29/14 38/42/27 39/44/29
f 27/29/14 39/44/29 33/35/20
f 38/42/27 23/43/28 40/45/30
f 38/42/27 40/45/30 39/44/29
f 40/45/30 23/43/28 11/46/31
f 33/35/20 39/44/29 41/47/32
f 41/47/32 39/44/29 40/45/30
f 40/45/30 11/46/31 42/48/33
f 40/45/30 42/48/33 41/47/32
f 42/48/33 11/46/31 14/49/34
f 41/47/32 42/48/33 43/50/35
f 42/48/33 14/49/34 44/51/36
f 42/48/33 44/51/36 43/50/35
f 44/51/36 14/49/34 16/52/37
f 44/51/36 16/52/37 18/53/38
f 44/51/36 18/53/38 45/54/39
f 41/47/32 43/50/35 46/55/40
f 47/56/41 48/57/42 46/55/40
f 46/55/40 48/57/42 49/58/43
f 41/47/32 46/55/40 50/59/44
f 50/59/44 46/55/40 49/58/43
f 41/47/32 50/59/44 33/35/20
f 50/59/44 49/58/43 51/60/45
f 33/35/20 50/59/44 34/36/21
f 34/36/21 50/59/44 51/60/45
f 52/61/46 53/62/47 54/63/48
f 52/61/46 54/63/48 55/64/48
f 52/61/46 55/64/48 56/65/46
f 54/63/48 53/62/47 57/66/49
f 55/64/48 54/63/48 58/67/50
f 58/67/50 54/63/48 57/66/49
f 57/66/49 53/62/47 59/68/51
f 55/64/48 58/67/50 60/69/50
f 60/69/50 58/67/50 61/70/52
f 60/69/50 61/70/52 62/71/52
f 62/71/52 61/70/52 20/72/53
f 62/71/52 20/72/53 19/73/53
f 20/72/53 61/70/52 24/74/54
f 61/70/52 58/67/50 63/75/55
f 61/70/52 63/75/55 24/74/54
f 64/76/56 58/67/50 57/66/49
f 58/67/50 64/76/56 63/75/55
f 64/76/56 57/66/49 65/77/57
f 65/77/57 57/66/49 59/68/51
f 63/75/55 64/76/56 66/78/58
f 66/78/58 64/76/56 65/77/57
f 24/74/54 63/75/55 67/79/59
f 67/79/59 63/75/55 66/78/58
f 24/74/54 67/79/59 12/80/60
f 12/80/60 67/79/59 13/81/61
f 13/81/61 67/79/59 68/82/62
f 68/82/62 67/79/59 66/78/58
f 13/81/61 68/82/62 15/15/61
f 66/78/58 65/77/57 69/83/63
f 66/78/58 69/83/63 68/82/62
f 70/84/64 65/77/57 59/68/51
f 65/77/57 70/84/64 69/83/63
f 70/84/64 59/68/51 71/85/65
f 15/15/61 68/82/62 72/86/62
f 72/86/62 68/82/62 69/83/63
f 15/15/61 72/86/62 17/17/61
f 69/83/63 70/84/64 73/87/66
f 69/83/63 73/87/66 72/86/62
f 70/84/64 71/85/65 74/88/64
f 70/84/64 74/88/64 73/87/66
f 74/88/64 71/85/65 75/89/65
f 17/17/61 72/86/62 76/90/67
f 76/90/67 72/86/62 73/87/66
f 17/17/61 76/90/67 9/19/68
f 9/19/68 76/90/67 8/91/69
f 76/90/67 73/87/66 77/92/58
f 76/90/67 77/92/58 8/91/69
f 77/92/58 73/87/66 74/88/64
f 8/91/69 77/92/58 6/93/70
f 6/93/70 77/92/58 4/94/71
f 77/92/58 74/88/64 78/95/72
f 77/92/58 78/95/72 4/94/71
f 78/95/72 74/88/64 75/89/65
f 4/94/71 78/95/72 3/96/73
f 78/95/72 75/89/65 79/97/65
f 78/95/72 79/97/65 3/96/73
f 47/56/41 46/55/40 43/50/35
f 48/57/42 47/56/41 1/98/74
f 1/98/74 47/56/41 2/99/75
f 2/99/75 47/56/41 80/100/76
f 80/100/76 47/56/41 43/50/35
f 2/99/75 80/100/76 5/101/77
f 5/101/77 80/100/76 7/102/78
f 80/100/76 43/50/35 45/54/39
f 80/100/76 45/54/39 7/102/78
f 45/54/39 43/50/35 44/51/36
f 7/102/78 45/54/39 10/103/79
f 10/103/79 45/54/39 18/53/38
f 23/25/10 24/26/11 11/11/8
f 11/11/8 24/26/11 12/12/8
f 56/104/80 31/105/80 52/106/80
f 52/106/80 31/105/80 28/107/80
f 52/106/80 28/107/80 29/108/81
f 52/106/80 29/108/81 53/109/81
f 53/109/81 29/108/81 34/110/82
f 53/109/81 34/110/82 59/111/82
f 59/111/82 34/110/82 71/112/83
f 71/112/83 34/110/82 51/113/84
f 71/112/83 51/113/84 75/89/83
f 75/89/83 51/113/84 49/114/83
f 75/89/83 49/114/83 79/97/83
f 79/97/83 49/114/83 48/115/83
f 79/97/83 48/115/83 3/96/83
f 3/96/83 48/115/83 1/116/83
