# vertices shared and precision trimmed by tools/optimize_obj.py
v 0.15167 0.03053 0.12461
v 0.15167 0.03053 0.12823
v 0.16388 0.03288 0.128
v 0.16387 0.03317 0.12477
v 0.16582 0.03996 0.128
v 0.16686 0.04041 0.12494
v 0.16898 0.03996 0.12808
v 0.16897 0.04038 0.12488
v 0.17978 0.03907 0.12622
v 0.17009 0.03996 0.12951
v 0.17007 0.04037 0.12343
v 0.17287 0.04037 0.12075
v 0.1729 0.03996 0.13123
v 0.17667 0.04036 0.11976
v 0.17672 0.03996 0.13225
v 0.19547 0.03905 0.12619
v 0.19934 0.04033 0.1197
v 0.19939 0.03996 0.13217
v 0.20268 0.04033 0.12067
v 0.20577 0.04032 0.12335
v 0.20272 0.03996 0.13141
v 0.20581 0.03996 0.12939
v 0.20669 0.04032 0.12479
v 0.2067 0.0399 0.12795
v 0.24302 0.0399 0.12781
v 0.24301 0.04027 0.12466
v 0.25424 0.039 0.12596
v 0.24374 0.0399 0.12884
v 0.24372 0.04027 0.12336
v 0.24643 0.0399 0.13098
v 0.24639 0.04026 0.12052
v 0.24958 0.04026 0.11955
v 0.24962 0.0399 0.13198
v 0.27354 0.04022 0.11949
v 0.27358 0.0399 0.13188
v 0.27104 0.03897 0.12596
v 0.27667 0.04022 0.12045
v 0.27671 0.0399 0.13125
v 0.2795 0.04022 0.12329
v 0.27952 0.0399 0.12909
v 0.28044 0.04022 0.1246
v 0.28044 0.0399 0.12765
v 0.30143 0.04032 0.12456
v 0.30357 0.0399 0.12746
v 0.3035 0.04033 0.12456
v 0.30499 0.0399 0.12745
vt 0 -4.000000
vn -0.1969 0.9764 0.0394
vn -0.6378 0.7638 -0.0315
vn -0.6614 0.7402 -0.0394
vn -0.6693 0.7323 -0.0079
vn -0.4646 0.874 0.0394
vn 0.0551 0.9921 0.0787
vn 0.063 0.9843 0.1181
vn 0.0236 0.9921 0.0236
vn 0.063 0.9921 -0.063
vn 0.1024 0.9843 0.0866
vn 0.0787 0.9843 0.126
vn 0.0472 0.9921 -0.1024
vn 0.0236 0.9764 0.1732
vn 0.0157 0.9843 -0.1339
vn -0.0157 0.9921 0.0236
vn -0.0236 0.9764 0.1732
vn -0.0157 0.9843 -0.1339
vn -0.0709 0.9843 0.126
vn -0.0945 0.9843 0.0787
vn -0.0472 0.9921 -0.1024
vn -0.0551 0.9921 -0.0787
vn -0.0551 0.9843 0.1102
vn -0.0472 0.9921 0.063
vn 0.0472 0.9921 0.0709
vn 0.063 0.9921 0.0945
vn 0.0157 0.9921 0.0157
vn 0.063 0.9921 -0.0551
vn 0.1024 0.9921 0.063
vn 0.0551 0.9921 -0.0866
vn 0.0787 0.9843 0.1102
vn 0.0315 0.9843 0.1654
vn 0.0236 0.9843 -0.126
vn -0.0157 0.9843 -0.1417
vn -0.0236 0.9921 0.0157
vn -0.0787 0.9843 0.1339
vn -0.0551 0.9843 -0.1102
vn -0.1102 0.9843 0.0945
vn -0.0787 0.9921 -0.063
vn -0.0709 0.9843 0.1024
vn -0.063 0.9921 0.063
vn 0 0.9843 0.126
vn 0 0.9843 0.1339
vn 0 0.9843 0.1417
# Converted from CSMC meshbin by CsmcAssetConverter
# source: weapon_rif_ak47_legacy_weapon_rif_ak47.body_legacy.meshbin
# source center: 7.225526 -0.4936689 -1.027529
# source scale: 0.03311596
# Coordinates are preserved exactly as stored by CSMC.
# Basis conversion and mesh-normalization conjugation happen at runtime.
o weapon_hand_r__2
f 1/1/1 2/1/1 3/1/2
f 1/1/1 3/1/2 4/1/3
f 4/1/3 3/1/2 5/1/4
f 4/1/3 5/1/4 6/1/5
f 6/1/5 5/1/4 7/1/6
f 6/1/5 7/1/6 8/1/7
f 8/1/7 7/1/6 9/1/8
f 9/1/8 7/1/6 10/1/9
f 8/1/7 9/1/8 11/1/10
f 11/1/10 9/1/8 12/1/11
f 9/1/8 10/1/9 13/1/12
f 12/1/11 9/1/8 14/1/13
f 9/1/8 13/1/12 15/1/14
f 14/1/13 9/1/8 16/1/15
f 16/1/15 9/1/8 15/1/14
f 14/1/13 16/1/15 17/1/16
f 16/1/15 15/1/14 18/1/17
f 17/1/16 16/1/15 19/1/18
f 19/1/18 16/1/15 20/1/19
f 16/1/15 18/1/17 21/1/20
f 16/1/15 21/1/20 22/1/21
f 20/1/19 16/1/15 23/1/22
f 16/1/15 22/1/21 24/1/23
f 16/1/15 24/1/23 23/1/22
f 23/1/22 24/1/23 25/1/24
f 23/1/22 25/1/24 26/1/25
f 26/1/25 25/1/24 27/1/26
f 27/1/26 25/1/24 28/1/27
f 26/1/25 27/1/26 29/1/28
f 27/1/26 28/1/27 30/1/29
f 29/1/28 27/1/26 31/1/30
f 31/1/30 27/1/26 32/1/31
f 27/1/26 30/1/29 33/1/32
f 32/1/31 27/1/26 34/1/16
f 27/1/26 33/1/32 35/1/33
f 34/1/16 27/1/26 36/1/34
f 36/1/34 27/1/26 35/1/33
f 34/1/16 36/1/34 37/1/35
f 36/1/34 35/1/33 38/1/36
f 37/1/35 36/1/34 39/1/37
f 36/1/34 38/1/36 40/1/38
f 39/1/37 36/1/34 41/1/39
f 36/1/34 40/1/38 42/1/40
f 36/1/34 42/1/40 41/1/39
f 41/1/39 42/1/40 43/1/41
f 43/1/41 42/1/40 44/1/42
f 43/1/41 44/1/42 45/1/43
f 45/1/43 44/1/42 46/1/43
