# CS2 body mesh, tools/cs2_glb_to_obj.py
v 0.0661 0.02662 -0.17803
v 0.07004 0.02662 -0.18067
v 0.07004 0.0061 -0.18067
v 0.0661 0.0061 -0.17803
v 0.07082 0.00334 -0.1795
v 0.06688 0.00334 -0.17686
v 0.07082 0.02938 -0.1795
v 0.06688 0.02938 -0.17686
v 0.10942 0.00569 -0.12186
v 0.10587 0.002 -0.12717
v 0.10386 0.00135 -0.13016
v 0.07235 0.00194 -0.17721
v 0.07387 0.00129 -0.17496
v 0.11993 0.00664 -0.10617
v 0.10942 0.02703 -0.12186
v 0.11993 0.02607 -0.10617
v 0.10587 0.03071 -0.12717
v 0.07399 0.03142 -0.17478
v 0.07235 0.03078 -0.17721
v 0.1035 0.03136 -0.1307
v 0.10306 0.02459 -0.097
v 0.10306 0.00812 -0.097
v 0.08874 0.0282 -0.11585
v 0.08874 0.00451 -0.11585
v 0.08996 0.02459 -0.08645
v 0.08996 0.00812 -0.08645
v 0.07443 0.0282 -0.10432
v 0.07443 0.00451 -0.10432
v 0.07758 0.02459 -0.07507
v 0.07758 0.00812 -0.07507
v 0.06091 0.0282 -0.09188
v 0.06091 0.00451 -0.09188
v 0.06598 0.02459 -0.06289
v 0.06598 0.00812 -0.06289
v 0.04824 0.0282 -0.07857
v 0.04824 0.00451 -0.07857
v 0.03293 0.0262 -0.14793
v 0.0501 0.0262 -0.16203
v 0.03293 0.00652 -0.14793
v 0.0501 0.00652 -0.16203
v 0.06731 0.02351 -0.17623
v 0.06731 0.00872 -0.17623
v 0.0676 0.00709 -0.1758
v 0.06821 0.00546 -0.17487
v 0.05054 0.00478 -0.16146
v 0.06952 0.00406 -0.17292
v 0.0516 0.00406 -0.16008
v 0.0334 0.00478 -0.14739
v 0.03455 0.00406 -0.14609
v 0.01672 0.00652 -0.13275
v 0.01672 0.0262 -0.13275
v 0.01722 0.00478 -0.13224
v 0.01845 0.00406 -0.13101
v 0.00153 0.00652 -0.11654
v 0.00153 0.0262 -0.11654
v 0.00207 0.00478 -0.11606
v 0.00338 0.00406 -0.11491
v -0.01256 0.00652 -0.09936
v -0.01256 0.0262 -0.09936
v -0.01199 0.00478 -0.09893
v -0.01061 0.00406 -0.09787
v -0.0255 0.00652 -0.08131
v -0.0255 0.0262 -0.08131
v -0.0249 0.00478 -0.08091
v -0.02346 0.00406 -0.07994
v -0.03723 0.00652 -0.06244
v -0.03723 0.0262 -0.06244
v -0.03661 0.00478 -0.06208
v -0.0351 0.00406 -0.06121
v -0.0477 0.00652 -0.04285
v -0.0477 0.0262 -0.04285
v -0.04706 0.00478 -0.04253
v -0.0455 0.00406 -0.04176
v -0.05687 0.00652 -0.02262
v -0.05687 0.0262 -0.02262
v -0.05621 0.00478 -0.02234
v -0.0546 0.00406 -0.02168
v -0.0647 0.00652 -0.00183
v -0.0647 0.0262 -0.00183
v -0.06402 0.00478 -0.0016
v -0.06237 0.00406 -0.00104
v -0.07115 0.00652 0.01943
v -0.07115 0.0262 0.01943
v -0.07045 0.00478 0.01962
v -0.06877 0.00406 0.02007
v -0.07619 0.00652 0.04106
v -0.07619 0.0262 0.04106
v -0.07548 0.00478 0.0412
v -0.07378 0.00406 0.04154
v -0.07981 0.00652 0.06298
v -0.07981 0.0262 0.06298
v -0.07909 0.00478 0.06308
v -0.07737 0.00406 0.0633
v -0.08199 0.00652 0.08509
v -0.08199 0.0262 0.08509
v -0.08271 0.00652 0.10729
v -0.08271 0.0262 0.10729
v -0.08127 0.00478 0.08514
v -0.07953 0.00406 0.08525
v -0.08199 0.00478 0.10729
v -0.08025 0.00406 0.10729
v 0.0552 0.02459 -0.04998
v 0.0552 0.00812 -0.04998
v 0.03647 0.0282 -0.06446
v 0.03647 0.00451 -0.06446
v 0.04529 0.02459 -0.03639
v 0.04529 0.00812 -0.03639
v 0.02565 0.0282 -0.0496
v 0.02565 0.00451 -0.0496
v 0.0363 0.02459 -0.02217
v 0.0363 0.00812 -0.02217
v 0.01584 0.0282 -0.03407
v 0.01584 0.00451 -0.03407
v 0.0676 0.02538 -0.1758
v 0.06821 0.02725 -0.17487
v 0.0516 0.02866 -0.16008
v 0.06952 0.02866 -0.17292
v 0.05054 0.02794 -0.16146
v 0.03455 0.02866 -0.14609
v 0.0334 0.02794 -0.14739
v 0.01845 0.02866 -0.13101
v 0.01722 0.02794 -0.13224
v 0.00338 0.02866 -0.11491
v 0.00207 0.02794 -0.11606
v -0.01061 0.02866 -0.09787
v -0.01199 0.02794 -0.09893
v -0.02346 0.02866 -0.07994
v -0.0249 0.02794 -0.08091
v -0.0351 0.02866 -0.06121
v -0.03661 0.02794 -0.06208
v -0.0455 0.02866 -0.04176
v -0.04706 0.02794 -0.04253
v -0.0546 0.02866 -0.02168
v -0.05621 0.02794 -0.02234
v -0.06237 0.02866 -0.00104
v -0.06402 0.02794 -0.0016
v -0.06877 0.02866 0.02007
v -0.07045 0.02794 0.01962
v -0.07378 0.02866 0.04154
v -0.07548 0.02794 0.0412
v -0.07737 0.02866 0.0633
v -0.07909 0.02794 0.06308
v -0.07953 0.02866 0.08525
v -0.08127 0.02794 0.08514
v -0.08025 0.02866 0.10729
v -0.08199 0.02794 0.10729
v 0.02827 0.02459 -0.0074
v 0.02827 0.00812 -0.0074
v 0.00706 0.0282 -0.01792
v 0.00706 0.00451 -0.01792
v 0.02122 0.02459 0.00787
v 0.02122 0.00812 0.00787
v -0.00063 0.0282 -0.00123
v -0.00063 0.00451 -0.00123
v 0.0152 0.02459 0.02358
v 0.0152 0.00812 0.02358
v -0.00721 0.0282 0.01593
v -0.00721 0.00451 0.01593
v -0.02 0.0282 0.06947
v -0.02 0.00451 0.06947
v -0.02017 0.02867 0.07073
v -0.02017 0.00405 0.07073
v -0.02031 0.0282 0.07181
v -0.02031 0.00451 0.07181
v -0.02189 0.0282 0.08775
v -0.02189 0.00451 0.08775
v -0.02197 0.02866 0.08902
v -0.02197 0.00405 0.08902
v -0.02204 0.0282 0.0901
v -0.02204 0.00451 0.0901
v 0.01021 0.02459 0.03964
v 0.01021 0.00812 0.03964
v -0.01264 0.0282 0.03348
v -0.01264 0.00451 0.03348
v 0.00126 0.02372 0.09272
v 0.00126 0.00899 0.09272
v 0.00126 0.02372 0.10729
v 0.00126 0.00899 0.10729
v 0.0063 0.02459 0.056
v 0.0063 0.00812 0.056
v -0.01692 0.0282 0.05135
v -0.01692 0.00451 0.05135
v 0.00347 0.02459 0.07258
v 0.00347 0.00812 0.07258
v -0.02257 0.02866 0.10729
v -0.02283 0.02776 0.10729
v -0.01618 0.02461 0.10729
v -0.01644 0.02372 0.10729
v -0.01644 0.02372 0.09272
v -0.02283 0.02776 0.09272
v -0.01644 0.00899 0.09272
v -0.02283 0.00495 0.09272
v -0.01644 0.00899 0.10729
v -0.02283 0.00495 0.10729
v 0.0245 0.00406 -0.04789
v 0.03515 0.00406 -0.06275
v 0.01485 0.00406 -0.03237
v 0.04675 0.00406 -0.07688
v 0.00624 0.00406 -0.01625
v 0.05924 0.00406 -0.09022
v -0.00131 0.00406 0.0004
v 0.07258 0.00406 -0.10272
v -0.00775 0.00406 0.0175
v 0.08671 0.00406 -0.11431
v 0.10157 0.00406 -0.12496
v -0.01305 0.00406 0.035
v -0.0172 0.00406 0.0528
v -0.02018 0.00406 0.07083
v -0.02257 0.00406 0.10729
v 0.00173 0.02459 0.08931
v 0.00173 0.00812 0.08931
v 0.0245 0.02866 -0.04789
v 0.03515 0.02866 -0.06275
v 0.04675 0.02866 -0.07688
v 0.01485 0.02866 -0.03237
v 0.05924 0.02866 -0.09022
v 0.00624 0.02866 -0.01625
v 0.07258 0.02866 -0.10272
v -0.00131 0.02866 0.0004
v 0.08671 0.02866 -0.11431
v -0.00775 0.02866 0.0175
v 0.10157 0.02866 -0.12496
v -0.01305 0.02866 0.035
v -0.0172 0.02866 0.0528
v -0.02018 0.02866 0.07083
v 0.02982 0.0081 -0.04434
v 0.04022 0.0081 -0.05886
v 0.04506 0.0081 -0.03416
v 0.05477 0.0081 -0.0477
v 0.03626 0.0081 -0.02001
v 0.05155 0.0081 -0.07267
v 0.02039 0.0081 -0.02918
v 0.06534 0.0081 -0.06058
v 0.02841 0.0081 -0.00532
v 0.06376 0.0081 -0.0857
v 0.01197 0.0081 -0.01342
v 0.07673 0.0081 -0.07274
v 0.02153 0.0081 0.00986
v 0.0768 0.0081 -0.09791
v 0.0046 0.0081 0.00284
v 0.08889 0.0081 -0.08413
v 0.01567 0.0081 0.02545
v 0.0906 0.0081 -0.10924
v -0.00169 0.0081 0.01956
v 0.10176 0.0081 -0.0947
v 0.10512 0.0081 -0.11964
v 0.11531 0.0081 -0.1044
v 0.01083 0.0081 0.0414
v -0.00688 0.0081 0.03665
v 0.00705 0.0081 0.05762
v -0.01093 0.0081 0.05404
v 0.00433 0.0081 0.07406
v -0.01384 0.0081 0.07167
v 0.0027 0.0081 0.09064
v -0.01559 0.0081 0.08944
v 0.00215 0.0081 0.10729
v -0.01618 0.0081 0.10729
v 0.06841 0.00194 -0.17457
v 0.06993 0.00129 -0.17232
v 0.09992 0.00135 -0.12752
v 0.10192 0.002 -0.12454
v 0.10548 0.00569 -0.11922
v 0.11599 0.00664 -0.10353
v 0.04506 0.02461 -0.03416
v 0.05477 0.02461 -0.0477
v 0.02982 0.02461 -0.04434
v 0.04022 0.02461 -0.05886
v 0.02039 0.02461 -0.02918
v 0.06534 0.02461 -0.06058
v 0.03626 0.02461 -0.02001
v 0.05155 0.02461 -0.07267
v 0.01197 0.02461 -0.01342
v 0.07673 0.02461 -0.07274
v 0.02841 0.02461 -0.00532
v 0.06376 0.02461 -0.0857
v 0.0046 0.02461 0.00284
v 0.08889 0.02461 -0.08413
v 0.02153 0.02461 0.00986
v 0.0768 0.02461 -0.09791
v -0.00169 0.02461 0.01956
v 0.10176 0.02461 -0.0947
v 0.01567 0.02461 0.02545
v 0.0906 0.02461 -0.10924
v 0.11531 0.02461 -0.1044
v 0.10512 0.02461 -0.11964
v -0.00688 0.02461 0.03665
v 0.01083 0.02461 0.0414
v -0.01093 0.02461 0.05404
v 0.00705 0.02461 0.05762
v -0.01384 0.02461 0.07167
v 0.00433 0.02461 0.07406
v -0.01559 0.02461 0.08944
v 0.0027 0.02461 0.09064
v 0.00215 0.02461 0.10729
v 0.11599 0.02607 -0.10353
v 0.10548 0.02703 -0.11922
v 0.10192 0.03071 -0.12454
v 0.09956 0.03136 -0.12807
v 0.07005 0.03142 -0.17214
v 0.06841 0.03078 -0.17457
v -0.08008 0.00495 0.10729
v -0.08131 0.00546 0.10729
v -0.08182 0.00669 0.10729
v -0.08182 0.02602 0.10729
v -0.08131 0.02725 0.10729
v -0.08008 0.02776 0.10729
v 0.00988 0.0078 0.04086
v -0.01297 0.00405 0.03471
v -0.01326 0.00451 0.03576
v 0.0096 0.00812 0.04192
v 0.00605 0.0078 0.05724
v -0.01716 0.00405 0.0526
v -0.01738 0.00451 0.05367
v 0.00584 0.00812 0.05831
v 0.00165 0.02491 0.09057
v 0.00158 0.02459 0.09166
v 0.01479 0.0078 0.02478
v -0.00762 0.00405 0.01713
v -0.00797 0.00451 0.01816
v 0.01443 0.00812 0.02581
v 0.0033 0.02491 0.07383
v 0.00316 0.02459 0.07491
v 0.00584 0.02459 0.05831
v 0.00605 0.02491 0.05724
v -0.01738 0.0282 0.05367
v -0.01716 0.02867 0.0526
v 0.0096 0.02459 0.04192
v 0.00988 0.02491 0.04086
v -0.01326 0.0282 0.03576
v -0.01297 0.02867 0.03471
v 0.02074 0.0078 0.00904
v -0.00112 0.00405 -0.00006
v -0.00154 0.00451 0.00095
v 0.02032 0.00812 0.01005
v 0.01443 0.02459 0.02581
v 0.01479 0.02491 0.02478
v -0.00797 0.0282 0.01816
v -0.00762 0.02867 0.01713
v 0.02771 0.0078 -0.00626
v 0.0065 0.00405 -0.01678
v 0.00601 0.00451 -0.01581
v 0.02722 0.00812 -0.00528
v 0.02032 0.02459 0.01005
v 0.02074 0.02491 0.00904
v -0.00154 0.0282 0.00095
v -0.00112 0.02867 -0.00006
v 0.03567 0.0078 -0.02108
v 0.0152 0.00405 -0.03297
v 0.01465 0.00451 -0.03203
v 0.03512 0.00812 -0.02013
v 0.02722 0.02459 -0.00528
v 0.02771 0.02491 -0.00626
v 0.00601 0.0282 -0.01581
v 0.0065 0.02867 -0.01678
v 0.04459 0.0078 -0.03533
v 0.02494 0.00405 -0.04855
v 0.02434 0.00451 -0.04764
v 0.04398 0.00812 -0.03443
v 0.03512 0.02459 -0.02013
v 0.03567 0.02491 -0.02108
v 0.01465 0.0282 -0.03203
v 0.0152 0.02867 -0.03297
v 0.05442 0.0078 -0.04898
v 0.03569 0.00405 -0.06345
v 0.03503 0.00451 -0.06259
v 0.05376 0.00812 -0.04811
v 0.04398 0.02459 -0.03443
v 0.04459 0.02491 -0.03533
v 0.02434 0.0282 -0.04764
v 0.02494 0.02867 -0.04855
v 0.06514 0.0078 -0.06194
v 0.0474 0.00405 -0.07762
v 0.04668 0.00451 -0.0768
v 0.06441 0.00812 -0.06113
v 0.05376 0.02459 -0.04811
v 0.05442 0.02491 -0.04898
v 0.03503 0.0282 -0.06259
v 0.03569 0.02867 -0.06345
v 0.06441 0.02459 -0.06113
v 0.06514 0.02491 -0.06194
v 0.04668 0.0282 -0.0768
v 0.0474 0.02867 -0.07762
v 0.07668 0.0078 -0.07418
v 0.06001 0.00405 -0.09099
v 0.05923 0.00451 -0.09022
v 0.0759 0.00812 -0.07341
v 0.0759 0.02459 -0.07341
v 0.07668 0.02491 -0.07418
v 0.05923 0.0282 -0.09022
v 0.06001 0.02867 -0.09099
v 0.089 0.0078 -0.08562
v 0.07347 0.00405 -0.10349
v 0.07265 0.00451 -0.10278
v 0.08818 0.00812 -0.08491
v 0.00158 0.00812 0.09166
v 0.08818 0.02459 -0.08491
v 0.089 0.02491 -0.08562
v 0.07265 0.0282 -0.10278
v 0.07347 0.02867 -0.10349
v 0.10118 0.00812 -0.09558
v 0.08686 0.00451 -0.11443
v 0.10205 0.0078 -0.09624
v 0.08773 0.00405 -0.11509
v -0.08182 0.02602 0.09272
v -0.08131 0.00546 0.09272
v -0.08182 0.00669 0.09272
v -0.08008 0.00495 0.09272
v -0.08008 0.02776 0.09272
v -0.08131 0.02725 0.09272
v 0.10118 0.02459 -0.09558
v 0.10205 0.02491 -0.09624
v 0.08686 0.0282 -0.11443
v 0.08773 0.02867 -0.11509
v 0.00316 0.00812 0.07491
v 0.00165 0.0078 0.09057
v 0.0033 0.0078 0.07383
v 0.09925 0.02866 -0.12852
v 0.10162 0.02866 -0.12499
v 0.09962 0.00406 -0.12798
v 0.10162 0.00406 -0.12499
vt 0.400391 0.705078
vt 0.408447 0.705078
vt 0.408447 0.669922
vt 0.400391 0.669922
vt 0.408447 0.665527
vt 0.400391 0.665527
vt 0.408447 0.709961
vt 0.400391 0.709961
vt 0.155762 -0.045166
vt 0.159912 -0.039734
vt 0.163208 -0.036469
vt 0.200562 -0.004318
vt 0.198364 -0.005539
vt 0.223145 -0.023376
vt 0.150269 -0.063171
vt 0.203369 -0.003645
vt 0.206421 -0.004852
vt 0.221924 -0.020401
vt 0.180298 -0.071411
vt 0.163208 -0.075928
vt 0.185791 -0.067627
vt 0.221069 -0.028503
vt 0.222534 -0.026169
vt 0.189575 -0.064026
vt 0.443604 0.87793
vt 0.404541 0.87793
vt 0.452393 0.916992
vt 0.395752 0.916992
vt 1.443359 0.87793
vt 1.404297 0.87793
vt 1.452148 0.916992
vt 1.395508 0.916992
vt 0.036255 0.55957
vt 0.036255 0.537598
vt 0.005825 0.55957
vt 0.005825 0.537598
vt 0.032104 0.515625
vt 0.009239 0.515625
vt 0.006718 0.516602
vt 0.004196 0.518066
vt 0.003138 0.538574
vt 0.000367 0.520996
vt 0.000367 0.540527
vt 0.003138 0.560547
vt 0.000367 0.5625
vt 0.005825 0.583008
vt 0.036255 0.583008
vt 0.003138 0.583984
vt 0.000367 0.585938
vt 0.005825 0.60791
vt 0.036255 0.60791
vt 0.003138 0.608887
vt 0.000367 0.61084
vt 0.005825 0.634766
vt 0.036255 0.634766
vt 0.003138 0.635254
vt 0.000367 0.637207
vt 0.005825 0.662598
vt 0.036255 0.662598
vt 0.003138 0.663086
vt 0.000367 0.664551
vt 0.005825 0.691895
vt 0.036255 0.691895
vt 0.003138 0.692383
vt 0.000367 0.693848
vt 0.005825 0.722168
vt 0.036255 0.722168
vt 0.003138 0.722656
vt 0.000367 0.723633
vt 0.005825 0.753418
vt 0.036255 0.753418
vt 0.003138 0.753906
vt 0.000367 0.754883
vt 0.005825 0.785645
vt 0.036255 0.785645
vt 0.003138 0.785645
vt 0.000367 0.786621
vt 0.005825 0.818359
vt 0.036255 0.818359
vt 0.003138 0.818848
vt 0.000367 0.819336
vt 0.005825 0.852051
vt 0.036255 0.852051
vt 0.003138 0.852051
vt 0.000367 0.852539
vt 0.005825 0.885742
vt 0.036255 0.885742
vt 0.003138 0.885742
vt 0.000367 0.88623
vt 0.005825 0.919922
vt 0.036255 0.919922
vt 0.005825 0.954102
vt 0.036255 0.954102
vt 0.003138 0.919922
vt 0.000367 0.919922
vt 0.003138 0.954102
vt 0.000367 0.954102
vt 0.034973 0.516602
vt 0.037872 0.518066
vt 0.041534 0.540527
vt 0.041534 0.520996
vt 0.03894 0.538574
vt 0.041534 0.5625
vt 0.03894 0.560547
vt 0.041534 0.585938
vt 0.03894 0.583984
vt 0.041534 0.61084
vt 0.03894 0.608887
vt 0.041534 0.637207
vt 0.03894 0.635254
vt 0.041534 0.664551
vt 0.03894 0.663086
vt 0.041534 0.693848
vt 0.03894 0.692383
vt 0.041534 0.723633
vt 0.03894 0.722656
vt 0.041534 0.754883
vt 0.03894 0.753906
vt 0.041534 0.786621
vt 0.03894 0.785645
vt 0.041534 0.819336
vt 0.03894 0.818848
vt 0.041534 0.852539
vt 0.03894 0.852051
vt 0.041534 0.88623
vt 0.03894 0.885742
vt 0.041534 0.919922
vt 0.03894 0.919922
vt 0.041534 0.954102
vt 0.03894 0.954102
vt 0.382812 2.658203
vt 0.132812 2.658203
vt 0.382812 2.792969
vt 0.132812 2.792969
vt 0.382812 2.908203
vt 0.132812 2.908203
vt 0.157593 0.937012
vt 0.163818 0.930664
vt 0.150024 0.935547
vt 0.162109 0.92334
vt 0.382812 2.408203
vt 0.132812 2.408203
vt 0.15918 0.960938
vt 0.159546 0.960938
vt 0.154541 0.953613
vt 0.154785 0.953613
vt 0.165283 0.947754
vt 0.167969 0.953125
vt 0.174438 0.938477
vt 0.179932 0.940918
vt 0.180054 0.927734
vt 0.1875 0.932129
vt 0.151123 0.805664
vt 0.171021 0.833496
vt 0.22522 0.755859
vt 0.241699 0.778809
vt 0.210327 0.731934
vt 0.192627 0.859863
vt 0.133057 0.776855
vt 0.259521 0.800781
vt 0.197021 0.707031
vt 0.215942 0.884766
vt 0.117065 0.746582
vt 0.279053 0.821289
vt 0.185303 0.681152
vt 0.240845 0.907715
vt 0.102966 0.715332
vt 0.299561 0.84082
vt 0.175415 0.654785
vt 0.26709 0.929688
vt 0.090942 0.683594
vt 0.321533 0.858887
vt 0.294922 0.949219
vt 0.344482 0.875488
vt 0.167236 0.62793
vt 0.081055 0.650879
vt 0.160767 0.600098
vt 0.073303 0.617676
vt 0.156128 0.572266
vt 0.067749 0.583984
vt 0.153442 0.544434
vt 0.064392 0.550293
vt 0.152466 0.516113
vt 0.063293 0.516113
vt 1.224609 0.755859
vt 1.241211 0.778809
vt 1.150391 0.805664
vt 1.170898 0.833496
vt 1.132812 0.776855
vt 1.258789 0.800781
vt 1.209961 0.731934
vt 1.192383 0.859863
vt 1.116211 0.746582
vt 1.27832 0.821289
vt 1.196289 0.707031
vt 1.21582 0.884766
vt 1.102539 0.715332
vt 1.298828 0.84082
vt 1.18457 0.681152
vt 1.240234 0.907715
vt 1.09082 0.683594
vt 1.321289 0.858887
vt 1.174805 0.654785
vt 1.266602 0.929688
vt 1.34375 0.875488
vt 1.294922 0.949219
vt 1.081055 0.650879
vt 1.166992 0.62793
vt 1.073242 0.617676
vt 1.160156 0.600098
vt 1.067383 0.583984
vt 1.155273 0.572266
vt 1.063477 0.550293
vt 1.15332 0.544434
vt 1.0625 0.516113
vt 1.152344 0.516113
vt 0.233521 0.750488
vt 0.249634 0.772949
vt 0.25708 0.734863
vt 0.271973 0.755859
vt 0.243408 0.712891
vt 0.26709 0.794434
vt 0.218872 0.727051
vt 0.28833 0.775879
vt 0.231323 0.69043
vt 0.285889 0.814453
vt 0.205933 0.702637
vt 0.305908 0.794434
vt 0.220703 0.666504
vt 0.306152 0.833496
vt 0.194458 0.677734
vt 0.324707 0.812012
vt 0.211548 0.642578
vt 0.327393 0.851074
vt 0.184814 0.651855
vt 0.344727 0.828613
vt 0.349854 0.867188
vt 0.365723 0.843262
vt 0.204102 0.618164
vt 0.176758 0.625488
vt 0.198242 0.592773
vt 0.17041 0.598633
vt 0.194092 0.567383
vt 0.166016 0.571289
vt 0.191528 0.541992
vt 0.163208 0.543457
vt 0.190674 0.516113
vt 0.162354 0.516113
vt 1.397461 0.72168
vt 1.393555 0.72168
vt 1.397461 0.713379
vt 1.393555 0.713379
vt 1.387695 0.713379
vt 1.387695 0.72168
vt 1.296875 0.713379
vt 1.296875 0.72168
vt 1.290039 0.72168
vt 1.290039 0.713379
vt 1.279297 0.715332
vt 1.279297 0.70752
vt 1.246094 0.715332
vt 1.246094 0.70752
vt 1.256836 0.734863
vt 1.271484 0.755859
vt 1.233398 0.750488
vt 1.249023 0.772949
vt 1.21875 0.727051
vt 1.288086 0.775879
vt 1.243164 0.712891
vt 1.266602 0.794434
vt 1.205078 0.702637
vt 1.305664 0.794434
vt 1.230469 0.69043
vt 1.285156 0.814453
vt 1.194336 0.677734
vt 1.324219 0.812012
vt 1.220703 0.666504
vt 1.305664 0.833496
vt 1.18457 0.651855
vt 1.344727 0.828613
vt 1.210938 0.642578
vt 1.327148 0.851074
vt 1.365234 0.843262
vt 1.349609 0.867188
vt 1.176758 0.625488
vt 1.204102 0.618164
vt 1.169922 0.598633
vt 1.198242 0.592773
vt 1.166016 0.571289
vt 1.193359 0.567383
vt 1.163086 0.543457
vt 1.191406 0.541992
vt 1.162109 0.516113
vt 1.19043 0.516113
vt 0.246826 0.71582
vt 0.279297 0.71582
vt 0.246826 0.70752
vt 0.279297 0.70752
vt 0.290039 0.72168
vt 0.290039 0.713379
vt 0.297607 0.713379
vt 0.297607 0.72168
vt 0.388428 0.713379
vt 0.388428 0.72168
vt 0.393555 0.72168
vt 0.393555 0.713379
vt 0.398193 0.72168
vt 0.398193 0.713379
vt 0.180176 0.927246
vt 0.187744 0.932129
vt 0.16394 0.922852
vt 0.160522 0.923828
vt 0.150635 0.934082
vt 0.149658 0.9375
vt 0.222656 0.971191
vt 0.22168 0.969238
vt 0.223633 0.976562
vt 0.223755 0.973633
vt 0.223755 0.976562
vt 0.22229 0.980957
vt 0.222168 0.980469
vt 0.208374 0.994629
vt 0.208496 0.994629
vt 0.204102 0.996094
vt 0.204468 0.996094
vt 0.201538 0.996582
vt 0.198975 0.995117
vt 0.196899 0.994141
vt 1.354492 0.922852
vt 1.354492 0.919922
vt 1.31543 0.922852
vt 1.31543 0.919922
vt 1.31543 0.917969
vt 1.354492 0.917969
vt 0.382812 3.275391
vt 0.382812 3.408203
vt 0.632812 3.408203
vt 0.632812 3.275391
vt 0.382812 3.158203
vt 0.632812 3.158203
vt 1.393555 0.917969
vt 1.393555 0.919922
vt 1.432617 0.917969
vt 1.432617 0.919922
vt 1.432617 0.922852
vt 1.393555 0.922852
vt 0.132812 3.158203
vt 0.35498 0.917969
vt 0.316162 0.917969
vt 0.35498 0.919922
vt 0.316162 0.919922
vt 0.35498 0.922852
vt 0.316162 0.922852
vt 0.202515 0.98584
vt 0.213379 0.975098
vt 0.202759 0.98584
vt 0.394043 0.917969
vt 0.394043 0.919922
vt 0.433105 0.917969
vt 0.433105 0.919922
vt 0.433105 0.922852
vt 0.394043 0.922852
vt 0.132812 3.275391
vt 0.132812 3.408203
vt -0.117065 3.158203
vt -0.117065 3.275391
vt -0.117065 3.408203
vt 1.402344 0.878906
vt 1.345703 0.878906
vt 0.003834 -0.192383
vt 0.003834 -0.164795
vt 0.037689 -0.192383
vt 0.037689 -0.164795
vt 0.037689 -0.221069
vt 0.003834 -0.138672
vt 0.003834 -0.221069
vt 0.037689 -0.138672
vt 0.037689 -0.250732
vt 0.003834 -0.114075
vt 0.003834 -0.250732
vt 0.037689 -0.114075
vt 0.037689 -0.281494
vt 0.003834 -0.090942
vt 0.003834 -0.281494
vt 0.037689 -0.090942
vt 0.037689 -0.313232
vt 0.003834 -0.069519
vt 0.003834 -0.313232
vt 0.037689 -0.069519
vt 0.003834 -0.049835
vt 0.037689 -0.049835
vt 0.037689 -0.345459
vt 0.003834 -0.345459
vt 0.037689 -0.378418
vt 0.003834 -0.378418
vt 0.037689 -0.411865
vt 0.003834 -0.411865
vt 0.037689 -0.445557
vt 0.003834 -0.445557
vt 0.037689 -0.479248
vt 0.003834 -0.479248
vt 0.239136 0.670898
vt 0.239136 0.704102
vt 0.247192 0.670898
vt 0.247192 0.704102
vt 0.402832 0.878906
vt 0.346191 0.878906
vt 0.395996 0.703613
vt 0.394043 0.70752
vt 0.397949 0.709961
vt 0.393311 0.712402
vt 0.389648 0.708496
vt 0.396729 0.701172
vt 0.298584 0.708496
vt 0.396729 0.674316
vt 0.395996 0.671875
vt 0.29126 0.708496
vt 0.397949 0.665527
vt 0.290283 0.712402
vt 0.394043 0.667969
vt 0.279541 0.706055
vt 0.393311 0.663086
vt 0.280273 0.702637
vt 0.389893 0.666504
vt 0.249756 0.701172
vt 0.388672 0.662109
vt 0.297363 0.666504
vt 0.249756 0.673828
vt 0.296387 0.662109
vt 0.29126 0.666504
vt 0.279541 0.669434
vt 0.290283 0.663086
vt 0.280273 0.672852
vn -0.5214 0.2239 -0.8234
vn -0.5289 -0.252 -0.8104
vn -0.3742 -0.7188 -0.5859
vn -0.3752 0.6945 -0.6139
vn 0.8364 0 -0.5481
vn 0.8461 -0.0219 -0.5326
vn 0.8097 -0.0222 -0.5865
vn 0.7715 -0.0224 -0.6359
vn 0.7297 -0.0225 -0.6834
vn 0.6848 -0.0225 -0.7283
vn -0.6185 0.1737 -0.7663
vn -0.6003 0.2001 -0.7743
vn -0.6273 -0.2009 -0.7524
vn -0.6086 -0.2279 -0.76
vn -0.6001 0.1212 -0.7907
vn -0.6094 -0.1471 -0.7791
vn -0.5399 -0.4599 -0.7049
vn -0.4024 -0.7224 -0.5624
vn -0.4303 -0.7249 -0.5379
vn -0.1477 -0.9662 -0.2111
vn -0.1187 -0.9835 -0.1369
vn -0.4601 -0.7034 -0.5418
vn -0.1206 -0.9799 -0.1588
vn -0.6793 -0.2016 -0.7056
vn -0.6705 0.1745 -0.7211
vn -0.4875 -0.7045 -0.5158
vn -0.1404 -0.9803 -0.1392
vn -0.7281 -0.2014 -0.6553
vn -0.7196 0.1745 -0.6721
vn -0.5142 -0.7045 -0.4892
vn -0.7756 -0.2001 -0.5986
vn -0.7677 0.1736 -0.6169
vn -0.5363 -0.725 -0.432
vn -0.1381 -0.9834 -0.1175
vn -0.8158 -0.1979 -0.5434
vn -0.8086 0.172 -0.5627
vn -0.5873 -0.7186 -0.3724
vn -0.1573 -0.9827 -0.098
vn -0.8342 -0.1965 -0.5153
vn -0.8273 0.1709 -0.5351
vn -0.6097 -0.7141 -0.344
vn -0.8723 -0.2181 -0.4376
vn -0.8673 0.1931 -0.4589
vn -0.631 -0.7087 -0.3155
vn -0.1764 -0.9812 -0.0785
vn -0.9011 -0.2129 -0.3777
vn -0.8972 0.1887 -0.3992
vn -0.6439 -0.7201 -0.2585
vn -0.9235 -0.2074 -0.3225
vn -0.9207 0.1841 -0.3442
vn -0.6624 -0.7127 -0.2308
vn -0.1734 -0.9831 -0.0582
vn -0.9417 -0.2016 -0.2693
vn -0.9399 0.1792 -0.2908
vn -0.6711 -0.7201 -0.1762
vn -0.9561 -0.2169 -0.1969
vn -0.9561 0.1955 -0.2183
vn -0.6869 -0.7111 -0.1498
vn -0.1919 -0.9806 -0.0391
vn -0.9708 -0.2058 -0.1233
vn -0.972 0.1858 -0.1438
vn -0.6905 -0.717 -0.0955
vn -0.1885 -0.9819 -0.0198
vn -0.9768 -0.1988 -0.0798
vn -0.9787 0.1795 -0.0996
vn -0.9775 -0.2101 -0.0201
vn -0.9806 0.1919 -0.0391
vn -0.6949 -0.7177 -0.0441
vn -0.707 -0.707 -0.021
vn -0.1851 -0.9827 -0.0011
vn 0.6344 -0.0224 -0.7727
vn 0.5849 -0.0222 -0.8108
vn 0.5342 -0.0219 -0.8451
vn -0.5264 0.3704 -0.7653
vn -0.4047 0.6734 -0.6187
vn -0.1024 0.9742 -0.2011
vn -0.15 0.9602 -0.2355
vn -0.4038 0.6984 -0.5909
vn -0.1226 0.9757 -0.1814
vn -0.4617 0.6792 -0.5705
vn -0.1427 0.9765 -0.1615
vn -0.4896 0.6807 -0.5449
vn -0.5168 0.6812 -0.5185
vn -0.1404 0.9803 -0.1392
vn -0.5402 0.7035 -0.4618
vn -0.16 0.9799 -0.1194
vn -0.5923 0.6982 -0.4021
vn -0.6153 0.6942 -0.3734
vn -0.1795 0.9787 -0.0996
vn -0.6371 0.6894 -0.3447
vn -0.6512 0.7025 -0.2871
vn -0.1764 0.9812 -0.0785
vn -0.6702 0.6956 -0.2589
vn -0.6798 0.7046 -0.2033
vn -0.1953 0.979 -0.0591
vn -0.696 0.696 -0.1763
vn -0.1919 0.9806 -0.0391
vn -0.7017 0.7017 -0.1239
vn -0.7055 0.7055 -0.0679
vn -0.1885 0.9819 -0.0198
vn -0.7177 0.6949 -0.0441
vn 0.4572 -0.0214 -0.8891
vn 0.4031 -0.0209 -0.9149
vn 0.3532 -0.0205 -0.9353
vn -0.6894 0.6371 -0.3447
vn -0.6837 -0.6578 -0.3159
vn -0.5635 0.8207 -0.0939
vn -0.554 -0.8296 -0.0696
vn -0.7668 0.6174 0.1753
vn -0.7571 -0.6367 0.146
vn -0.7025 0.6512 -0.2871
vn -0.7025 -0.6512 -0.2871
vn -0.5702 0.8202 -0.0463
vn -0.5603 -0.828 -0.0235
vn -0.7605 0.6074 0.2295
vn -0.7529 -0.6262 0.2025
vn 0.2808 -0.0197 -0.9596
vn -1 0 -0.001
vn 0.2099 -0.0189 -0.9775
vn 0.1466 -0.018 -0.989
vn 0.4029 0.6184 0.6748
vn -0.3708 -0.557 0.7432
vn 0.339 0.5222 0.7825
vn -0.4317 -0.675 0.5983
vn -0.54 -0.8414 -0.0206
vn -0.5336 0.8455 -0.0205
vn -0.4323 0.6492 0.6258
vn -0.3687 0.5279 0.7651
vn -0.0161 -0.9998 -0.0151
vn 0.0151 -0.9997 0.0171
vn 0.0677 -0.0169 -0.9976
vn 0.0159 0.9999 -0.001
vn 0 0.9999 -0.0169
vn 0.001 0.9999 0.0149
vn -0.1792 -0.9399 -0.2908
vn -0.0534 -0.9945 -0.0901
vn 0.0361 -0.9954 0.0887
vn 0.1776 -0.9403 0.2905
vn 0.1485 -0.9605 0.2352
vn 0.0177 -0.9986 0.0489
vn 0.018 0.9975 0.0689
vn 0.1507 0.9537 0.2601
vn 0.1779 0.9392 0.2938
vn 0.0361 0.9954 0.0887
vn -0.0544 0.9922 -0.1121
vn -0.1792 0.9399 -0.2908
vn 0.3411 -0.5513 0.7614
vn 0.4032 -0.6454 0.6487
vn -0.001 -0.001 1
vn 0.2134 -0.9616 -0.1726
vn 0.1299 -0.9899 0.0563
vn 0.2499 -0.9351 -0.2513
vn 0.1322 -0.9883 0.076
vn 0.0223 -0.9154 0.402
vn 0.0626 -0.9549 0.2902
vn 0.1924 -0.962 -0.1937
vn 0.2273 -0.9346 -0.2736
vn 0.0659 -0.918 0.3911
vn 0.0846 -0.9516 0.2955
vn 0.7053 0.7053 0.071
vn 0.8207 0.5635 -0.0939
vn 0.7884 0.5596 0.2555
vn 0.2342 -0.9604 -0.1513
vn -0.0013 -0.9189 0.3945
vn 0.042 -0.9501 0.3091
vn 0.7019 0.7019 0.1207
vn 0.8202 0.5702 -0.0463
vn 0.7784 0.545 0.3117
vn 0.0858 0.9433 0.3206
vn 0.1322 0.9883 0.076
vn 0.0667 0.9049 0.4205
vn 0.2307 0.9255 -0.3004
vn 0.1955 0.9561 -0.2183
vn 0.0635 0.947 0.3148
vn 0.0225 0.9023 0.4306
vn 0.1344 0.9862 0.0964
vn 0.2537 0.9265 -0.2779
vn 0.2169 0.9561 -0.1969
vn 0.1116 -0.9909 0.0748
vn 0.2723 -0.9346 -0.2287
vn -0.0223 -0.9154 0.402
vn 0.0212 -0.9526 0.3034
vn 0.0425 0.9417 0.3337
vn -0.0013 0.9078 0.4195
vn 0.2382 0.9553 -0.1753
vn 0.2547 -0.9583 -0.13
vn 0.1135 -0.989 0.0948
vn 0.297 -0.933 -0.2031
vn -0.0435 -0.9223 0.384
vn -0.0012 -0.9546 0.2978
vn 0.0215 0.9446 0.3275
vn 0.1135 0.989 0.0948
vn -0.0225 0.9023 0.4306
vn 0.2765 0.9265 -0.2551
vn -0.0879 -0.924 0.3721
vn -0.0212 -0.9526 0.3034
vn -0.0012 0.9469 0.3214
vn 0.1154 0.9866 0.1154
vn -0.0441 0.9098 0.4128
vn 0.3018 0.9254 -0.2292
vn 0.2591 0.9536 -0.1536
vn 0.2724 -0.9586 -0.0835
vn 0.0948 -0.989 0.1135
vn 0.3186 -0.9306 -0.1803
vn -0.1117 -0.9173 0.3821
vn -0.0414 -0.9577 0.2849
vn -0.0215 0.9446 0.3275
vn -0.0891 0.9115 0.4016
vn 0.3339 -0.9332 -0.1327
vn -0.1345 -0.9224 0.362
vn -0.0626 -0.9549 0.2902
vn -0.042 0.9501 0.3091
vn 0.0964 0.9862 0.1344
vn -0.113 0.9056 0.4088
vn 0.3239 0.9234 -0.206
vn 0.2773 0.9549 -0.106
vn -0.1595 -0.9159 0.3683
vn -0.0846 -0.9516 0.2955
vn -0.0635 0.947 0.3148
vn -0.1362 0.9112 0.3889
vn 0.3455 0.9205 -0.1827
vn -0.0858 0.9433 0.3206
vn -0.1614 0.9041 0.3956
vn 0.3397 0.9273 -0.1573
vn 0.2858 -0.9575 -0.0389
vn 0.076 -0.9883 0.1322
vn 0.354 -0.9287 -0.1103
vn -0.1828 -0.9198 0.3472
vn -0.1059 -0.9554 0.2758
vn -0.1074 0.9476 0.3008
vn 0.0772 0.9852 0.1533
vn -0.1851 0.9085 0.3746
vn 0.3604 0.9231 -0.1344
vn 0.2917 0.9545 -0.0627
vn 0.3477 -0.9336 -0.0869
vn -0.2091 -0.9231 0.3229
vn -0.129 -0.9511 0.2807
vn -0.0678 -0.001 0.9977
vn -0.1308 0.9429 0.3062
vn -0.2119 0.9124 0.3502
vn 0.354 0.9287 -0.1103
vn -0.1507 -0.9537 0.2601
vn -0.2356 -0.9148 0.3281
vn 0.0572 -0.9869 0.1507
vn 0.2978 -0.9546 0.0012
vn 0.3669 -0.928 -0.0651
vn -0.1529 0.9461 0.2856
vn 0.0572 0.9869 0.1507
vn -0.2387 0.9035 0.3559
vn 0.0581 0.9834 0.172
vn 0.3737 0.9234 -0.088
vn 0.2858 0.9575 -0.0389
vn 0.1851 -0.9827 -0.0011
vn 0.3714 -0.9285 -0.0013
vn 0.2064 0.9785 -0.0012
vn 0.3961 0.9182 -0.0013
vn -0.143 -0.0011 0.9897
vn 0.6948 -0.7176 0.0471
vn 0.8115 -0.5801 -0.07
vn 0.782 -0.5799 0.2285
vn 0.8103 -0.5855 -0.0236
vn 0.692 -0.7155 0.0955
vn 0.7733 -0.5668 0.2842
vn 0.4275 -0.8535 0.2979
vn 0.4009 -0.8559 0.3266
vn 0.4505 -0.8503 0.2722
vn 0.3766 -0.857 0.3518
vn 0.4657 -0.8575 0.2185
vn 0.3518 -0.857 0.3766
vn 0.4866 -0.852 0.1932
vn 0.3266 -0.8559 0.4009
vn 0.3011 -0.8538 0.4246
vn 0.4985 -0.8552 0.1418
vn 0.5085 -0.8561 0.0926
vn 0.5261 -0.8476 0.0691
vn 0.5168 -0.8549 0.0457
vn 0.4339 0.8381 0.3305
vn 0.4066 0.8399 0.3595
vn 0.4575 0.8354 0.3045
vn 0.3817 0.8404 0.3848
vn 0.4728 0.8461 0.2463
vn 0.3563 0.8398 0.4097
vn 0.4942 0.8409 0.2205
vn 0.3305 0.8381 0.4339
vn 0.3045 0.8354 0.4575
vn 0.5068 0.8456 0.1679
vn 0.5173 0.8477 0.1174
vn 0.5353 0.8395 0.0933
vn 0.5261 0.8476 0.0691
vn -0.2077 -0.0012 0.9782
vn 0.9821 -0.0198 0.1871
vn 0.9663 -0.0207 0.2565
vn 0.9446 -0.0215 0.3275
vn -0.2746 -0.0012 0.9616
vn 0.8291 -0.0235 0.5587
vn 0.7929 -0.0237 0.6089
vn 0.8613 -0.0231 0.5075
vn 0.7504 -0.0238 0.6606
vn 0.9023 -0.0225 0.4306
vn 0.696 -0.0014 0.7181
vn 0.926 -0.022 0.3769
vn 0.6498 -0.0014 0.7601
vn 0.9526 -0.0212 0.3034
vn 0.6015 -0.0014 0.7988
vn 0.5768 -0.0014 0.8169
vn 0.9919 -0.0189 0.1255
vn 0.9986 -0.0177 0.0489
vn 0.9997 -0.0171 0.0151
vn -0.3485 -0.0013 0.9373
vn -0.3976 -0.0013 0.9175
vn 0.7823 -0.0014 0.6228
vn 0.7395 -0.0014 0.6732
vn -0.4477 -0.0013 0.8942
vn -0.5236 -0.0013 0.852
vn -0.5768 -0.0014 0.8169
vn 0.9285 0.3714 -0.0013
vn 0.9827 0.1851 -0.0011
vn 0.9791 -0.2028 0.0176
vn 0.9212 -0.3885 0.0195
vn -0.6259 -0.0014 0.7799
vn 0.5487 -0.0014 0.836
vn -0.6732 -0.0014 0.7395
vn -0.7181 -0.0014 0.696
vn -0.7627 -0.0014 0.6468
vn -0.8011 -0.0014 0.5985
vn -0.8457 -0.0233 0.5332
vn -0.836 -0.0014 0.5487
vn -0.8457 0.0233 0.5332
vn -0.8291 0.0235 0.5587
vn -0.8114 0.0236 0.584
vn -0.8213 -0.0463 0.5686
vn -0.8549 -0.0457 0.5168
vn -0.8386 -0.046 0.5428
o clip
f 1/1/1 2/2/1 3/3/2
f 1/1/1 3/3/2 4/4/2
f 4/4/2 3/3/2 5/5/3
f 4/4/2 5/5/3 6/6/3
f 7/7/4 2/2/1 8/8/4
f 8/8/4 2/2/1 1/1/1
f 9/9/5 10/10/6 11/11/5
f 9/9/5 11/11/5 12/12/5
f 12/12/5 11/11/5 13/13/5
f 9/9/5 12/12/5 7/14/6
f 9/9/5 7/14/6 14/15/5
f 5/16/6 3/17/6 12/12/5
f 12/12/5 3/17/6 7/14/6
f 7/14/6 3/17/6 2/18/6
f 15/19/6 16/20/6 14/15/5
f 15/19/6 14/15/5 17/21/6
f 17/21/6 14/15/5 7/14/6
f 17/21/6 7/14/6 18/22/6
f 18/22/6 7/14/6 19/23/5
f 17/21/6 18/22/6 20/24/5
f 21/25/7 22/26/7 23/27/7
f 23/27/7 22/26/7 24/28/7
f 25/29/8 26/30/8 27/31/8
f 27/31/8 26/30/8 28/32/8
f 29/29/9 30/30/9 31/31/9
f 31/31/9 30/30/9 32/32/9
f 33/29/10 34/30/10 35/31/10
f 35/31/10 34/30/10 36/32/10
f 37/33/11 38/34/12 39/35/13
f 39/35/13 38/34/12 40/36/14
f 40/36/14 38/34/12 41/37/15
f 40/36/14 41/37/15 42/38/16
f 40/36/14 42/38/16 43/39/17
f 40/36/14 43/39/17 44/40/18
f 40/36/14 44/40/18 45/41/19
f 40/36/14 45/41/19 39/35/13
f 45/41/19 44/40/18 46/42/20
f 45/41/19 46/42/20 47/43/21
f 45/41/19 47/43/21 48/44/22
f 45/41/19 48/44/22 39/35/13
f 48/44/22 47/43/21 49/45/23
f 50/46/24 37/33/11 39/35/13
f 50/46/24 39/35/13 48/44/22
f 37/33/11 50/46/24 51/47/25
f 48/44/22 49/45/23 52/48/26
f 48/44/22 52/48/26 50/46/24
f 52/48/26 49/45/23 53/49/27
f 51/47/25 50/46/24 54/50/28
f 54/50/28 50/46/24 52/48/26
f 51/47/25 54/50/28 55/51/29
f 52/48/26 53/49/27 56/52/30
f 52/48/26 56/52/30 54/50/28
f 56/52/30 53/49/27 57/53/27
f 55/51/29 54/50/28 58/54/31
f 58/54/31 54/50/28 56/52/30
f 55/51/29 58/54/31 59/55/32
f 56/52/30 57/53/27 60/56/33
f 56/52/30 60/56/33 58/54/31
f 60/56/33 57/53/27 61/57/34
f 59/55/32 58/54/31 62/58/35
f 62/58/35 58/54/31 60/56/33
f 59/55/32 62/58/35 63/59/36
f 60/56/33 61/57/34 64/60/37
f 60/56/33 64/60/37 62/58/35
f 64/60/37 61/57/34 65/61/38
f 63/59/36 62/58/35 66/62/39
f 66/62/39 62/58/35 64/60/37
f 63/59/36 66/62/39 67/63/40
f 64/60/37 65/61/38 68/64/41
f 64/60/37 68/64/41 66/62/39
f 68/64/41 65/61/38 69/65/38
f 67/63/40 66/62/39 70/66/42
f 70/66/42 66/62/39 68/64/41
f 67/63/40 70/66/42 71/67/43
f 68/64/41 69/65/38 72/68/44
f 68/64/41 72/68/44 70/66/42
f 72/68/44 69/65/38 73/69/45
f 71/67/43 70/66/42 74/70/46
f 74/70/46 70/66/42 72/68/44
f 71/67/43 74/70/46 75/71/47
f 72/68/44 73/69/45 76/72/48
f 72/68/44 76/72/48 74/70/46
f 76/72/48 73/69/45 77/73/45
f 75/71/47 74/70/46 78/74/49
f 78/74/49 74/70/46 76/72/48
f 75/71/47 78/74/49 79/75/50
f 76/72/48 77/73/45 80/76/51
f 76/72/48 80/76/51 78/74/49
f 80/76/51 77/73/45 81/77/52
f 79/75/50 78/74/49 82/78/53
f 82/78/53 78/74/49 80/76/51
f 79/75/50 82/78/53 83/79/54
f 80/76/51 81/77/52 84/80/55
f 80/76/51 84/80/55 82/78/53
f 84/80/55 81/77/52 85/81/52
f 83/79/54 82/78/53 86/82/56
f 86/82/56 82/78/53 84/80/55
f 83/79/54 86/82/56 87/83/57
f 84/80/55 85/81/52 88/84/58
f 84/80/55 88/84/58 86/82/56
f 88/84/58 85/81/52 89/85/59
f 87/83/57 86/82/56 90/86/60
f 90/86/60 86/82/56 88/84/58
f 87/83/57 90/86/60 91/87/61
f 88/84/58 89/85/59 92/88/62
f 88/84/58 92/88/62 90/86/60
f 92/88/62 89/85/59 93/89/63
f 91/87/61 90/86/60 94/90/64
f 94/90/64 90/86/60 92/88/62
f 91/87/61 94/90/64 95/91/65
f 95/91/65 94/90/64 96/92/66
f 95/91/65 96/92/66 97/93/67
f 94/90/64 92/88/62 98/94/68
f 98/94/68 92/88/62 93/89/63
f 94/90/64 98/94/68 96/92/66
f 98/94/68 93/89/63 99/95/63
f 96/92/66 98/94/68 100/96/69
f 100/96/69 98/94/68 99/95/63
f 100/96/69 99/95/63 101/97/70
f 102/29/71 103/30/71 104/31/71
f 104/31/71 103/30/71 105/32/71
f 106/29/72 107/30/72 108/31/72
f 108/31/72 107/30/72 109/32/72
f 110/29/73 111/30/73 112/31/73
f 112/31/73 111/30/73 113/32/73
f 114/98/74 41/37/15 38/34/12
f 114/98/74 38/34/12 115/99/75
f 116/100/76 117/101/77 115/99/75
f 116/100/76 115/99/75 118/102/78
f 118/102/78 115/99/75 38/34/12
f 116/100/76 118/102/78 119/103/79
f 118/102/78 38/34/12 120/104/80
f 118/102/78 120/104/80 119/103/79
f 120/104/80 38/34/12 37/33/11
f 119/103/79 120/104/80 121/105/81
f 120/104/80 37/33/11 122/106/82
f 120/104/80 122/106/82 121/105/81
f 122/106/82 37/33/11 51/47/25
f 121/105/81 122/106/82 123/107/81
f 122/106/82 51/47/25 124/108/83
f 122/106/82 124/108/83 123/107/81
f 124/108/83 51/47/25 55/51/29
f 123/107/81 124/108/83 125/109/84
f 124/108/83 55/51/29 126/110/85
f 124/108/83 126/110/85 125/109/84
f 126/110/85 55/51/29 59/55/32
f 125/109/84 126/110/85 127/111/86
f 126/110/85 59/55/32 128/112/87
f 126/110/85 128/112/87 127/111/86
f 128/112/87 59/55/32 63/59/36
f 127/111/86 128/112/87 129/113/86
f 128/112/87 63/59/36 130/114/88
f 128/112/87 130/114/88 129/113/86
f 130/114/88 63/59/36 67/63/40
f 129/113/86 130/114/88 131/115/89
f 130/114/88 67/63/40 132/116/90
f 130/114/88 132/116/90 131/115/89
f 132/116/90 67/63/40 71/67/43
f 131/115/89 132/116/90 133/117/89
f 132/116/90 71/67/43 134/118/91
f 132/116/90 134/118/91 133/117/89
f 134/118/91 71/67/43 75/71/47
f 133/117/89 134/118/91 135/119/92
f 134/118/91 75/71/47 136/120/93
f 134/118/91 136/120/93 135/119/92
f 136/120/93 75/71/47 79/75/50
f 135/119/92 136/120/93 137/121/92
f 136/120/93 79/75/50 138/122/94
f 136/120/93 138/122/94 137/121/92
f 138/122/94 79/75/50 83/79/54
f 137/121/92 138/122/94 139/123/95
f 138/122/94 83/79/54 140/124/96
f 138/122/94 140/124/96 139/123/95
f 140/124/96 83/79/54 87/83/57
f 139/123/95 140/124/96 141/125/97
f 140/124/96 87/83/57 142/126/98
f 140/124/96 142/126/98 141/125/97
f 142/126/98 87/83/57 91/87/61
f 141/125/97 142/126/98 143/127/97
f 142/126/98 91/87/61 144/128/99
f 142/126/98 144/128/99 143/127/97
f 143/127/97 144/128/99 145/129/100
f 144/128/99 91/87/61 95/91/65
f 145/129/100 144/128/99 146/130/101
f 146/130/101 144/128/99 95/91/65
f 146/130/101 95/91/65 97/93/67
f 147/29/102 148/30/102 149/31/102
f 149/31/102 148/30/102 150/32/102
f 151/29/103 152/30/103 153/31/103
f 153/31/103 152/30/103 154/32/103
f 155/29/104 156/30/104 157/31/104
f 157/31/104 156/30/104 158/32/104
f 159/131/105 160/132/106 161/133/107
f 161/133/107 160/132/106 162/134/108
f 161/133/107 162/134/108 163/135/109
f 163/135/109 162/134/108 164/136/110
f 165/131/111 166/132/112 167/133/113
f 167/133/113 166/132/112 168/134/114
f 167/133/113 168/134/114 169/135/115
f 169/135/115 168/134/114 170/136/116
f 171/29/117 172/30/117 173/31/117
f 173/31/117 172/30/117 174/32/117
f 175/137/118 176/138/118 177/139/118
f 177/139/118 176/138/118 178/140/118
f 179/29/119 180/30/119 181/31/119
f 181/31/119 180/30/119 182/32/119
f 183/141/120 184/142/120 159/131/120
f 159/131/120 184/142/120 160/132/120
f 185/143/121 186/144/122 187/145/123
f 187/145/123 186/144/122 188/146/124
f 188/146/124 186/144/122 189/147/125
f 189/147/125 186/144/122 190/148/125
f 191/149/126 192/150/126 193/151/127
f 193/151/127 192/150/126 194/152/128
f 65/153/38 61/154/34 195/155/129
f 195/155/129 61/154/34 196/156/129
f 65/153/38 195/155/129 197/157/129
f 196/156/129 61/154/34 57/158/27
f 65/153/38 197/157/129 69/159/38
f 196/156/129 57/158/27 198/160/129
f 69/159/38 197/157/129 199/161/129
f 198/160/129 57/158/27 53/162/27
f 69/159/38 199/161/129 73/163/45
f 198/160/129 53/162/27 200/164/129
f 73/163/45 199/161/129 201/165/129
f 200/164/129 53/162/27 49/166/23
f 73/163/45 201/165/129 77/167/45
f 200/164/129 49/166/23 202/168/129
f 77/167/45 201/165/129 203/169/129
f 202/168/129 49/166/23 47/170/21
f 77/167/45 203/169/129 81/171/52
f 202/168/129 47/170/21 204/172/129
f 204/172/129 47/170/21 46/173/20
f 204/172/129 46/173/20 205/174/129
f 81/171/52 203/169/129 206/175/129
f 81/171/52 206/175/129 85/176/52
f 85/176/52 206/175/129 207/177/129
f 85/176/52 207/177/129 89/178/59
f 89/178/59 207/177/129 208/179/130
f 89/178/59 208/179/130 93/180/63
f 93/180/63 208/179/130 168/181/129
f 93/180/63 168/181/129 99/182/63
f 99/182/63 168/181/129 209/183/129
f 99/182/63 209/183/129 101/184/70
f 210/141/131 211/142/131 165/131/131
f 165/131/131 211/142/131 166/132/131
f 212/185/132 213/186/132 127/187/86
f 127/187/86 213/186/132 125/188/84
f 212/185/132 127/187/86 129/189/86
f 125/188/84 213/186/132 214/190/132
f 212/185/132 129/189/86 215/191/132
f 125/188/84 214/190/132 123/192/81
f 215/191/132 129/189/86 131/193/89
f 123/192/81 214/190/132 216/194/132
f 215/191/132 131/193/89 217/195/132
f 123/192/81 216/194/132 121/196/81
f 217/195/132 131/193/89 133/197/89
f 121/196/81 216/194/132 218/198/132
f 217/195/132 133/197/89 219/199/132
f 121/196/81 218/198/132 119/200/79
f 219/199/132 133/197/89 135/201/92
f 119/200/79 218/198/132 220/202/132
f 219/199/132 135/201/92 221/203/132
f 119/200/79 220/202/132 116/204/76
f 116/204/76 220/202/132 222/205/132
f 116/204/76 222/205/132 117/206/77
f 221/203/132 135/201/92 137/207/92
f 221/203/132 137/207/92 223/208/132
f 223/208/132 137/207/92 139/209/95
f 223/208/132 139/209/95 224/210/132
f 224/210/132 139/209/95 141/211/97
f 224/210/132 141/211/97 225/212/133
f 225/212/133 141/211/97 143/213/97
f 225/212/133 143/213/97 167/214/133
f 167/214/133 143/213/97 145/215/100
f 167/214/133 145/215/100 185/216/134
f 226/217/129 227/218/129 228/219/129
f 228/219/129 227/218/129 229/220/129
f 226/217/129 228/219/129 230/221/129
f 229/220/129 227/218/129 231/222/129
f 226/217/129 230/221/129 232/223/129
f 229/220/129 231/222/129 233/224/129
f 232/223/129 230/221/129 234/225/129
f 233/224/129 231/222/129 235/226/129
f 232/223/129 234/225/129 236/227/129
f 233/224/129 235/226/129 237/228/129
f 236/227/129 234/225/129 238/229/129
f 237/228/129 235/226/129 239/230/129
f 236/227/129 238/229/129 240/231/129
f 237/228/129 239/230/129 241/232/129
f 240/231/129 238/229/129 242/233/129
f 241/232/129 239/230/129 243/234/129
f 240/231/129 242/233/129 244/235/129
f 241/232/129 243/234/129 245/236/129
f 245/236/129 243/234/129 246/237/129
f 245/236/129 246/237/129 247/238/129
f 244/235/129 242/233/129 248/239/129
f 244/235/129 248/239/129 249/240/129
f 249/240/129 248/239/129 250/241/129
f 249/240/129 250/241/129 251/242/129
f 251/242/129 250/241/129 252/243/129
f 251/242/129 252/243/129 253/244/129
f 253/244/129 252/243/129 254/245/129
f 253/244/129 254/245/129 255/246/129
f 255/246/129 254/245/129 256/247/129
f 255/246/129 256/247/129 257/248/129
f 5/249/3 12/250/135 6/251/3
f 6/251/3 12/250/135 258/252/135
f 258/252/135 12/250/135 259/253/136
f 259/253/136 12/250/135 13/254/136
f 259/253/136 13/254/136 260/255/137
f 260/255/137 13/254/136 11/256/137
f 260/255/137 11/256/137 10/257/138
f 260/255/137 10/257/138 261/258/138
f 261/258/138 10/257/138 9/259/139
f 261/258/138 9/259/139 262/260/139
f 262/260/139 9/259/139 14/261/140
f 262/260/139 14/261/140 263/262/140
f 264/263/132 265/264/132 266/265/132
f 266/265/132 265/264/132 267/266/132
f 264/263/132 266/265/132 268/267/132
f 267/266/132 265/264/132 269/268/132
f 264/263/132 268/267/132 270/269/132
f 267/266/132 269/268/132 271/270/132
f 270/269/132 268/267/132 272/271/132
f 271/270/132 269/268/132 273/272/132
f 270/269/132 272/271/132 274/273/132
f 271/270/132 273/272/132 275/274/132
f 274/273/132 272/271/132 276/275/132
f 275/274/132 273/272/132 277/276/132
f 274/273/132 276/275/132 278/277/132
f 275/274/132 277/276/132 279/278/132
f 278/277/132 276/275/132 280/279/132
f 279/278/132 277/276/132 281/280/132
f 278/277/132 280/279/132 282/281/132
f 279/278/132 281/280/132 283/282/132
f 283/282/132 281/280/132 284/283/132
f 283/282/132 284/283/132 285/284/132
f 282/281/132 280/279/132 286/285/132
f 282/281/132 286/285/132 287/286/132
f 287/286/132 286/285/132 288/287/132
f 287/286/132 288/287/132 289/288/132
f 289/288/132 288/287/132 290/289/132
f 289/288/132 290/289/132 291/290/132
f 291/290/132 290/289/132 292/291/132
f 291/290/132 292/291/132 293/292/132
f 293/292/132 292/291/132 187/293/132
f 293/292/132 187/293/132 294/294/132
f 16/295/141 15/296/142 295/297/141
f 295/297/141 15/296/142 296/298/142
f 296/298/142 15/296/142 17/299/143
f 296/298/142 17/299/143 297/300/143
f 297/300/143 17/299/143 298/301/144
f 298/301/144 17/299/143 20/302/144
f 298/301/144 20/302/144 299/303/145
f 299/303/145 20/302/144 18/304/145
f 299/303/145 18/304/145 19/305/146
f 299/303/145 19/305/146 300/306/146
f 300/306/146 19/305/146 7/307/4
f 300/306/146 7/307/4 8/308/4
f 193/151/127 194/152/128 257/309/147
f 257/309/147 194/152/128 209/310/148
f 256/311/149 178/140/149 257/309/149
f 257/309/149 178/140/149 193/151/149
f 256/312/149 294/313/149 178/140/149
f 178/140/149 294/313/149 177/139/149
f 294/314/149 187/145/149 177/139/149
f 177/139/149 187/145/149 188/146/149
f 194/152/149 301/315/149 209/310/149
f 209/310/149 301/315/149 101/316/149
f 302/317/149 101/318/149 301/315/149
f 101/318/149 302/317/149 100/319/149
f 100/319/149 302/317/149 96/320/149
f 96/320/149 302/317/149 303/321/149
f 96/320/149 303/321/149 304/322/149
f 96/320/149 304/322/149 97/323/149
f 97/323/149 304/322/149 305/324/149
f 97/323/149 305/324/149 146/325/149
f 146/325/149 305/324/149 145/326/149
f 145/326/149 305/324/149 306/327/149
f 186/144/149 145/328/149 306/327/149
f 145/328/149 186/144/149 185/143/149
f 172/329/150 307/330/151 174/331/152
f 174/331/152 307/330/151 308/332/153
f 308/332/153 307/330/151 309/333/154
f 309/333/154 307/330/151 310/334/155
f 180/329/156 311/330/151 182/331/157
f 182/331/157 311/330/151 312/332/151
f 312/332/151 311/330/151 313/333/158
f 313/333/158 311/330/151 314/334/159
f 315/335/160 210/336/161 165/337/111
f 315/335/160 165/337/111 167/338/113
f 315/335/160 167/338/113 316/339/162
f 316/339/162 167/338/113 169/340/115
f 156/329/163 317/330/151 158/331/152
f 158/331/152 317/330/151 318/332/153
f 318/332/153 317/330/151 319/333/164
f 319/333/164 317/330/151 320/334/165
f 321/335/166 183/336/167 159/337/105
f 321/335/166 159/337/105 161/338/107
f 321/335/166 161/338/107 163/340/109
f 321/335/166 163/340/109 322/339/168
f 323/341/169 324/342/170 325/343/171
f 325/343/171 324/342/170 326/344/170
f 326/344/170 324/342/170 181/345/172
f 181/345/172 324/342/170 179/346/173
f 327/341/174 328/342/170 329/343/175
f 329/343/175 328/342/170 330/344/176
f 330/344/176 328/342/170 173/345/177
f 173/345/177 328/342/170 171/346/178
f 152/329/163 331/330/179 154/331/180
f 154/331/180 331/330/179 332/332/153
f 332/332/153 331/330/179 333/333/181
f 333/333/181 331/330/179 334/334/182
f 335/341/183 336/342/170 337/343/184
f 337/343/184 336/342/170 338/344/176
f 338/344/176 336/342/170 157/345/177
f 157/345/177 336/342/170 155/346/185
f 148/329/186 339/330/187 150/331/188
f 150/331/188 339/330/187 340/332/187
f 340/332/187 339/330/187 341/333/189
f 341/333/189 339/330/187 342/334/190
f 343/341/191 344/342/192 345/343/193
f 345/343/193 344/342/192 346/344/176
f 346/344/176 344/342/192 153/345/194
f 153/345/194 344/342/192 151/346/185
f 111/329/186 347/330/187 113/331/188
f 113/331/188 347/330/187 348/332/187
f 348/332/187 347/330/187 349/333/195
f 349/333/195 347/330/187 350/334/196
f 351/341/197 352/342/198 353/343/199
f 353/343/199 352/342/198 354/344/198
f 354/344/198 352/342/198 149/345/200
f 149/345/200 352/342/198 147/346/201
f 107/329/202 355/330/203 109/331/204
f 109/331/204 355/330/203 356/332/187
f 356/332/187 355/330/203 357/333/205
f 357/333/205 355/330/203 358/334/206
f 359/341/207 360/342/198 361/343/208
f 361/343/208 360/342/198 362/344/198
f 362/344/198 360/342/198 112/345/200
f 112/345/200 360/342/198 110/346/201
f 103/329/202 363/330/203 105/331/209
f 105/331/209 363/330/203 364/332/203
f 364/332/203 363/330/203 365/333/210
f 365/333/210 363/330/203 366/334/211
f 367/341/212 368/342/213 369/343/214
f 369/343/214 368/342/213 370/344/198
f 370/344/198 368/342/213 108/345/215
f 108/345/215 368/342/213 106/346/216
f 34/329/202 371/330/203 36/331/209
f 36/331/209 371/330/203 372/332/203
f 372/332/203 371/330/203 373/333/217
f 373/333/217 371/330/203 374/334/218
f 375/341/219 376/342/213 377/343/220
f 377/343/220 376/342/213 378/344/213
f 378/344/213 376/342/213 104/345/221
f 104/345/221 376/342/213 102/346/216
f 379/341/222 380/342/213 381/343/223
f 381/343/223 380/342/213 382/344/213
f 382/344/213 380/342/213 35/345/224
f 35/345/224 380/342/213 33/346/216
f 30/329/225 383/330/226 32/331/227
f 32/331/227 383/330/226 384/332/226
f 384/332/226 383/330/226 385/333/228
f 385/333/228 383/330/226 386/334/229
f 189/147/129 175/137/129 188/146/129
f 188/146/129 175/137/129 177/139/129
f 387/341/230 388/342/231 389/343/232
f 389/343/232 388/342/231 390/344/231
f 390/344/231 388/342/231 31/345/233
f 31/345/233 388/342/231 29/346/234
f 176/138/132 191/149/132 178/140/132
f 178/140/132 191/149/132 193/151/132
f 26/329/225 391/330/226 28/331/235
f 28/331/235 391/330/226 392/332/226
f 392/332/226 391/330/226 393/333/236
f 393/333/236 391/330/226 394/334/237
f 169/135/238 170/136/238 316/339/238
f 316/339/238 170/136/238 395/347/238
f 396/341/239 397/342/231 398/343/240
f 398/343/240 397/342/231 399/344/231
f 399/344/231 397/342/231 27/345/241
f 27/345/241 397/342/231 25/346/234
f 400/348/242 401/349/243 402/350/244
f 402/350/244 401/349/243 403/351/244
f 402/350/244 403/351/244 22/352/245
f 22/352/245 403/351/244 24/353/246
f 175/137/149 189/147/149 192/150/149
f 192/150/149 189/147/149 404/354/149
f 175/137/149 192/150/149 191/149/149
f 175/137/149 191/149/149 176/138/149
f 192/150/149 404/354/149 405/355/149
f 405/355/149 404/354/149 406/355/149
f 192/150/149 405/355/149 407/355/149
f 190/148/149 408/356/149 189/147/149
f 409/354/149 404/354/149 408/356/149
f 408/356/149 404/354/149 189/147/149
f 410/357/247 411/358/248 412/359/249
f 412/359/249 411/358/248 413/360/250
f 413/360/250 411/358/248 23/361/251
f 23/361/251 411/358/248 21/362/252
f 306/327/253 305/324/254 408/356/253
f 306/327/253 408/356/253 190/148/129
f 306/327/253 190/148/129 186/144/129
f 192/150/132 407/355/255 194/152/132
f 194/152/132 407/355/255 301/315/255
f 301/315/255 407/355/255 405/355/256
f 301/315/255 405/355/256 302/317/256
f 163/135/257 164/136/257 322/339/257
f 322/339/257 164/136/257 414/347/257
f 315/335/160 415/363/258 210/336/161
f 210/336/161 415/363/258 211/364/259
f 415/363/258 315/335/160 395/347/260
f 395/347/260 315/335/160 316/339/162
f 415/363/258 395/347/260 170/365/116
f 415/363/258 170/365/116 168/366/114
f 415/363/258 168/366/114 211/364/259
f 211/364/259 168/366/114 166/367/112
f 184/364/261 183/336/167 416/363/262
f 184/364/261 416/363/262 160/367/106
f 160/367/106 416/363/262 162/366/108
f 162/366/108 416/363/262 164/365/110
f 416/363/262 183/336/167 321/335/166
f 164/365/110 416/363/262 414/347/263
f 414/347/263 416/363/262 321/335/166
f 414/347/263 321/335/166 322/339/168
f 195/155/264 196/156/265 226/217/264
f 226/217/264 196/156/265 227/218/265
f 195/155/264 226/217/264 232/223/266
f 227/218/265 196/156/265 198/160/267
f 195/155/264 232/223/266 197/157/266
f 227/218/265 198/160/267 231/222/267
f 197/157/266 232/223/266 236/227/268
f 231/222/267 198/160/267 200/164/269
f 197/157/266 236/227/268 199/161/268
f 231/222/267 200/164/269 235/226/269
f 199/161/268 236/227/268 240/231/270
f 235/226/269 200/164/269 202/168/271
f 199/161/268 240/231/270 201/165/270
f 235/226/269 202/168/271 239/230/271
f 201/165/270 240/231/270 244/235/270
f 239/230/271 202/168/271 204/172/272
f 201/165/270 244/235/270 203/169/270
f 239/230/271 204/172/272 243/234/272
f 243/234/272 204/172/272 205/174/272
f 243/234/272 205/174/272 246/237/272
f 203/169/270 244/235/270 249/240/273
f 203/169/270 249/240/273 206/175/273
f 206/175/273 249/240/273 251/242/274
f 206/175/273 251/242/274 207/177/274
f 207/177/274 251/242/274 253/244/275
f 207/177/274 253/244/275 208/179/275
f 208/179/275 253/244/275 255/246/276
f 208/179/275 255/246/276 168/181/276
f 168/181/276 255/246/276 257/248/147
f 168/181/276 257/248/147 209/183/148
f 266/265/277 267/266/278 212/185/277
f 212/185/277 267/266/278 213/186/278
f 266/265/277 212/185/277 215/191/279
f 213/186/278 267/266/278 271/270/280
f 266/265/277 215/191/279 268/267/279
f 213/186/278 271/270/280 214/190/280
f 268/267/279 215/191/279 217/195/281
f 214/190/280 271/270/280 275/274/282
f 268/267/279 217/195/281 272/271/281
f 214/190/280 275/274/282 216/194/282
f 272/271/281 217/195/281 219/199/283
f 216/194/282 275/274/282 279/278/284
f 272/271/281 219/199/283 276/275/283
f 216/194/282 279/278/284 218/198/284
f 276/275/283 219/199/283 221/203/283
f 218/198/284 279/278/284 283/282/285
f 276/275/283 221/203/283 280/279/283
f 218/198/284 283/282/285 220/202/285
f 220/202/285 283/282/285 285/284/285
f 220/202/285 285/284/285 222/205/285
f 280/279/283 221/203/283 223/208/286
f 280/279/283 223/208/286 286/285/286
f 286/285/286 223/208/286 224/210/287
f 286/285/286 224/210/287 288/287/287
f 288/287/287 224/210/287 225/212/288
f 288/287/287 225/212/288 290/289/288
f 290/289/288 225/212/288 167/214/289
f 290/289/288 167/214/289 292/291/289
f 292/291/289 167/214/289 185/216/121
f 292/291/289 185/216/121 187/293/123
f 325/368/290 313/369/290 323/341/290
f 323/341/290 313/369/290 314/334/290
f 323/341/291 314/334/291 324/342/291
f 324/342/291 314/334/291 311/330/291
f 324/342/291 311/330/291 179/346/291
f 179/346/291 311/330/291 180/329/291
f 327/341/292 310/334/292 328/342/292
f 328/342/292 310/334/292 307/330/292
f 328/342/292 307/330/292 171/346/292
f 171/346/292 307/330/292 172/329/292
f 335/341/293 320/334/293 336/342/293
f 336/342/293 320/334/293 317/330/293
f 336/342/293 317/330/293 155/346/293
f 155/346/293 317/330/293 156/329/293
f 329/368/294 309/369/294 327/341/294
f 327/341/294 309/369/294 310/334/294
f 228/370/295 229/371/296 264/372/295
f 264/372/295 229/371/296 265/373/296
f 228/370/295 264/372/295 270/374/297
f 265/373/296 229/371/296 233/375/298
f 228/370/295 270/374/297 230/376/297
f 265/373/296 233/375/298 269/377/298
f 230/376/297 270/374/297 274/378/299
f 269/377/298 233/375/298 237/379/300
f 230/376/297 274/378/299 234/380/299
f 269/377/298 237/379/300 273/381/300
f 234/380/299 274/378/299 278/382/301
f 273/381/300 237/379/300 241/383/302
f 234/380/299 278/382/301 238/384/301
f 273/381/300 241/383/302 277/385/302
f 238/384/301 278/382/301 282/386/303
f 277/385/302 241/383/302 245/387/304
f 238/384/301 282/386/303 242/388/303
f 277/385/302 245/387/304 281/389/304
f 281/389/304 245/387/304 247/390/305
f 281/389/304 247/390/305 284/391/305
f 242/388/303 282/386/303 287/392/292
f 242/388/303 287/392/292 248/393/292
f 248/393/292 287/392/292 289/394/291
f 248/393/292 289/394/291 250/395/291
f 250/395/291 289/394/291 291/396/306
f 250/395/291 291/396/306 252/397/306
f 252/397/306 291/396/306 293/398/307
f 252/397/306 293/398/307 254/399/307
f 254/399/307 293/398/307 294/400/308
f 254/399/307 294/400/308 256/401/308
f 343/341/301 334/334/301 344/342/301
f 344/342/301 334/334/301 331/330/301
f 344/342/301 331/330/301 151/346/301
f 151/346/301 331/330/301 152/329/301
f 409/354/254 408/356/253 305/324/254
f 351/341/299 342/334/299 352/342/299
f 352/342/299 342/334/299 339/330/299
f 352/342/299 339/330/299 147/346/299
f 147/346/299 339/330/299 148/329/299
f 337/368/309 319/369/309 335/341/309
f 335/341/309 319/369/309 320/334/309
f 359/341/297 350/334/297 360/342/297
f 360/342/297 350/334/297 347/330/297
f 360/342/297 347/330/297 110/346/297
f 110/346/297 347/330/297 111/329/297
f 367/341/295 358/334/295 368/342/295
f 368/342/295 358/334/295 355/330/295
f 368/342/295 355/330/295 106/346/295
f 106/346/295 355/330/295 107/329/295
f 345/368/310 333/369/310 343/341/310
f 343/341/310 333/369/310 334/334/310
f 375/341/296 366/334/296 376/342/296
f 376/342/296 366/334/296 363/330/296
f 376/342/296 363/330/296 102/346/311
f 102/346/311 363/330/296 103/329/311
f 379/341/298 374/334/298 380/342/298
f 380/342/298 374/334/298 371/330/298
f 380/342/298 371/330/298 33/346/312
f 33/346/312 371/330/298 34/329/312
f 353/368/313 341/369/313 351/341/313
f 351/341/313 341/369/313 342/334/313
f 387/341/300 386/334/300 388/342/300
f 388/342/300 386/334/300 383/330/300
f 388/342/300 383/330/300 29/346/300
f 29/346/300 383/330/300 30/329/300
f 361/368/314 349/369/314 359/341/314
f 359/341/314 349/369/314 350/334/314
f 396/341/302 394/334/302 397/342/302
f 397/342/302 394/334/302 391/330/302
f 397/342/302 391/330/302 25/346/302
f 25/346/302 391/330/302 26/329/302
f 369/368/315 357/369/315 367/341/315
f 367/341/315 357/369/315 358/334/315
f 405/355/316 406/355/317 302/317/316
f 302/317/316 406/355/317 303/321/317
f 410/357/304 400/348/304 411/358/304
f 411/358/304 400/348/304 402/350/304
f 411/358/304 402/350/304 21/362/304
f 21/362/304 402/350/304 22/352/304
f 303/321/317 406/355/317 404/354/318
f 303/321/317 404/354/318 304/322/318
f 304/322/318 404/354/318 409/354/319
f 304/322/318 409/354/319 305/324/319
f 377/368/320 365/369/320 375/341/320
f 375/341/320 365/369/320 366/334/320
f 14/402/321 16/403/321 263/404/321
f 263/404/321 16/403/321 295/405/321
f 381/368/322 373/369/322 379/341/322
f 379/341/322 373/369/322 374/334/322
f 389/368/323 385/369/323 387/341/323
f 387/341/323 385/369/323 386/334/323
f 398/368/324 393/369/324 396/341/324
f 396/341/324 393/369/324 394/334/324
f 412/406/325 401/407/325 410/357/325
f 410/357/325 401/407/325 400/348/325
f 114/408/326 115/409/326 8/410/326
f 8/410/326 115/409/326 300/411/326
f 114/408/326 8/410/326 1/1/326
f 300/411/326 115/409/326 117/412/327
f 114/408/326 1/1/326 41/413/326
f 300/411/326 117/412/327 299/303/327
f 41/413/326 1/1/326 4/4/327
f 299/303/327 117/412/327 417/414/327
f 41/413/326 4/4/327 42/415/327
f 299/303/327 417/414/327 298/301/326
f 42/415/327 4/4/327 43/416/327
f 298/301/326 417/414/327 418/417/327
f 43/416/327 4/4/327 6/418/327
f 298/301/326 418/417/327 297/419/326
f 43/416/327 6/418/327 44/420/327
f 297/419/326 418/417/327 296/421/328
f 44/420/327 6/418/327 258/422/327
f 296/421/328 418/417/327 285/423/329
f 44/420/327 258/422/327 46/424/326
f 296/421/328 285/423/329 284/425/330
f 46/424/326 258/422/327 259/426/326
f 296/421/328 284/425/330 295/405/330
f 46/424/326 259/426/326 419/427/326
f 295/405/330 284/425/330 247/428/331
f 419/427/326 259/426/326 260/429/326
f 295/405/330 247/428/331 263/404/331
f 419/427/326 260/429/326 420/430/326
f 263/404/331 247/428/331 262/431/332
f 420/430/326 260/429/326 261/432/327
f 420/430/326 261/432/327 262/431/332
f 262/431/332 247/428/331 246/433/333
f 262/431/332 246/433/333 420/430/326
