# CS2 body mesh, tools/cs2_glb_to_obj.py
v 0.02626 0.07929 0.138
v 0.03097 0.08391 0.1379
v 0.02235 0.09273 0.1379
v 0.01762 0.08812 0.138
v 0.02047 0.09464 0.13687
v 0.01566 0.09012 0.13687
v 0.0168 0.07896 0.12978
v 0.02373 0.08531 0.12978
v 0.01288 0.08297 0.12978
v 0.0198 0.08932 0.12978
v 0.03146 0.08506 0.13699
v 0.03162 0.08571 0.13559
v 0.0235 0.09319 0.13699
v 0.03287 0.08196 0.13687
v 0.03333 0.08154 0.13487
v 0.02825 0.07725 0.13687
v 0.03292 0.0881 0.12884
v 0.0341 0.08206 0.12272
v 0.02657 0.09458 0.12884
v 0.02416 0.09333 0.13559
v 0.02005 0.09511 0.13487
v 0.0206 0.09587 0.12272
v 0.03097 0.09872 0.12702
v 0.03715 0.0924 0.12702
v 0.04094 0.08888 0.12121
v 0.04809 0.10345 0.12704
v 0.05196 0.09972 0.12235
v 0.02756 0.10255 0.12121
v 0.04226 0.10941 0.12704
v 0.03864 0.11333 0.12235
v 0.04562 0.12039 0.12744
v 0.04772 0.11571 0.12924
v 0.04644 0.12087 0.13113
v 0.05089 0.11204 0.12964
v 0.04818 0.11734 0.13145
v 0.04825 0.11896 0.13347
v 0.05195 0.11308 0.13186
v 0.05298 0.11408 0.13416
v 0.05777 0.10924 0.13347
v 0.05451 0.10877 0.12924
v 0.05615 0.1092 0.13145
v 0.05969 0.10733 0.13113
v 0.05919 0.10652 0.12744
v 0.01518 0.09061 0.13477
v 0.01514 0.09066 0.12241
v 0.01993 0.08918 0.10546
v 0.01301 0.08284 0.10546
v 0.02877 0.07671 0.12241
v 0.02873 0.07676 0.13477
v 0.05794 0.10523 0.11534
v 0.06098 0.10883 0.12789
v 0.06099 0.10875 0.11986
v 0.0612 0.11018 0.12084
v 0.06069 0.10896 0.13114
v 0.06113 0.11065 0.12806
v 0.04929 0.12235 0.12084
v 0.04977 0.12226 0.12806
v 0.06071 0.10937 0.11841
v 0.06055 0.11085 0.13112
v 0.04995 0.12167 0.13112
v 0.05125 0.11936 0.13358
v 0.04845 0.1219 0.11841
v 0.05823 0.11222 0.13358
v 0.05452 0.11558 0.13419
v 0.05851 0.11067 0.13361
v 0.05397 0.11505 0.1343
v 0.05744 0.10564 0.11325
v 0.04468 0.11869 0.11325
v 0.03863 0.11237 0.10771
v 0.051 0.09973 0.10771
v 0.03092 0.10485 0.10361
v 0.04331 0.09219 0.10361
v 0.05151 0.09931 0.11002
v 0.04333 0.09128 0.10634
v 0.03587 0.08399 0.10535
v 0.03573 0.08477 0.10247
v 0.02861 0.07688 0.10546
v 0.02815 0.07736 0.10258
v 0.02373 0.08531 0.10546
v 0.01681 0.07896 0.10546
v 0.0497 0.11967 0.13361
v 0.04807 0.12186 0.13114
v 0.04795 0.12214 0.12789
v 0.04429 0.11918 0.11534
v 0.04789 0.12213 0.11986
v 0.03822 0.11289 0.11002
v 0.03001 0.10489 0.10634
v 0.02334 0.09743 0.10247
v 0.01576 0.09002 0.10258
v 0.02256 0.0976 0.10535
v 0.0153 0.09049 0.10546
vt 0.977539 0.94873
vt 0.970215 0.94873
vt 0.970703 0.961426
vt 0.977539 0.961426
vt 0.970703 0.964355
vt 0.977539 0.964844
vt 0.914062 0.955078
vt 0.890625 0.955078
vt 0.914062 0.959473
vt 0.890625 0.959473
vt 0.96875 0.949219
vt 0.967285 0.949707
vt 0.96875 0.960938
vt 0.969727 0.946289
vt 0.968262 0.944824
vt 0.970215 0.964355
vt 0.977539 0.945312
vt 0.970703 0.945801
vt 0.958984 0.949707
vt 0.95752 0.938477
vt 0.959473 0.960938
vt 0.967285 0.960938
vt 0.968262 0.965332
vt 0.958008 0.972168
vt 0.952148 0.959961
vt 0.952148 0.950195
vt 0.950195 0.941895
vt 0.935547 0.951172
vt 0.935547 0.942383
vt 0.950195 0.96875
vt 0.935547 0.959961
vt 0.935547 0.968262
vt 0.924805 0.967285
vt 0.92627 0.960938
vt 0.922363 0.965332
vt 0.926758 0.955566
vt 0.92334 0.961426
vt 0.920898 0.962402
vt 0.923828 0.955566
vt 0.920898 0.955566
vt 0.920898 0.94873
vt 0.92627 0.950195
vt 0.92334 0.949707
vt 0.921875 0.945801
vt 0.924805 0.943848
vt 0.922363 0.945801
vt 0.974121 0.969727
vt 0.972656 0.971191
vt 0.961914 0.978516
vt 0.890625 0.979004
vt 0.914062 0.978516
vt 0.961914 0.931641
vt 0.972168 0.939453
vt 0.974121 0.940918
vt 0.821289 0.961914
vt 0.833984 0.965332
vt 0.821777 0.958984
vt 0.830078 0.959961
vt 0.82959 0.95752
vt 0.818359 0.958008
vt 0.817383 0.959961
vt 0.821777 0.957031
vt 0.828613 0.938965
vt 0.821289 0.939941
vt 0.832031 0.95752
vt 0.818848 0.956543
vt 0.818359 0.940918
vt 0.831055 0.958984
vt 0.81543 0.943359
vt 0.831543 0.938965
vt 0.815918 0.953613
vt 0.814941 0.94873
vt 0.81543 0.955078
vt 0.814453 0.94873
vt 0.814453 0.956055
vt 0.838867 0.960938
vt 0.839844 0.958496
vt 0.839355 0.937988
vt 0.850098 0.938477
vt 0.850586 0.956543
vt 0.862305 0.938477
vt 0.862793 0.955566
vt 0.850098 0.958984
vt 0.845703 0.971191
vt 0.834473 0.973145
vt 0.862305 0.974121
vt 0.862793 0.958496
vt 0.872559 0.978027
vt 0.873535 0.959473
vt 0.880859 0.979004
vt 0.874023 0.956055
vt 0.884277 0.960938
vt 0.884766 0.957031
vt 0.890625 0.935547
vt 0.914062 0.935547
vt 0.812988 0.94873
vt 0.813965 0.941406
vt 0.814941 0.942383
vt 0.816406 0.9375
vt 0.817383 0.938965
vt 0.820312 0.935059
vt 0.820801 0.937988
vt 0.833008 0.931152
vt 0.829102 0.937012
vt 0.830566 0.9375
vt 0.837891 0.935059
vt 0.849121 0.936523
vt 0.83252 0.92334
vt 0.844238 0.924316
vt 0.861816 0.935547
vt 0.860352 0.919922
vt 0.873047 0.9375
vt 0.884277 0.935547
vt 0.872559 0.934082
vt 0.883301 0.931641
vt 0.870117 0.915527
vt 0.878418 0.914062
vt 0.914062 0.931641
vt 0.890625 0.931641
vn 0.1381 -0.1175 0.9834
vn 0.3595 0.1374 0.923
vn 0.1117 0.3821 0.9173
vn -0.1393 0.1418 0.98
vn 0.1201 0.7695 0.6272
vn -0.2554 0.2782 0.9259
vn 0 -0.001 1
vn 0.7059 0.4856 0.5157
vn 0.8135 0.5094 0.2806
vn 0.4596 0.7251 0.5127
vn 0.7348 0.1463 0.6623
vn 0.9461 0.2856 0.1529
vn 0.2499 -0.2513 0.9351
vn 0.8627 0.4412 0.2471
vn 0.9705 0.2073 0.1234
vn 0.4161 0.8757 0.2448
vn 0.4736 0.8445 0.2498
vn 0.2601 0.9537 0.1507
vn 0.1841 0.9754 0.1215
vn -0.2171 0.4062 0.8876
vn -0.1665 0.4789 0.862
vn 0.4702 -0.1437 0.8708
vn 0.3569 -0.2355 0.904
vn 0.7105 -0.6879 0.1482
vn 0.6641 -0.6624 0.3467
vn 0.1117 -0.3528 0.929
vn 0.5555 -0.7434 0.3725
vn -0.6777 0.7254 0.1206
vn -0.6562 0.6853 0.3159
vn -0.3821 0.1117 0.9173
vn -0.7156 0.608 0.3439
vn -0.8084 0.5311 0.2539
vn -0.6711 -0.1762 0.7201
vn -0.8381 0.3305 0.4339
vn -0.4424 -0.3895 0.8078
vn -0.7902 -0.4194 0.4469
vn -0.6 -0.0014 0.8
vn -0.6317 -0.549 0.5473
vn -0.3784 -0.352 0.8561
vn -0.0451 -0.5967 0.8012
vn -0.2568 -0.6451 0.7196
vn -0.481 -0.7496 0.4547
vn 0.3025 -0.8374 0.4553
vn 0.4782 -0.8337 0.2763
vn -0.6495 0.7041 0.2871
vn -0.6873 0.7115 0.1465
vn -0.7069 0.7069 -0.0239
vn -0.6841 0.729 -0.0239
vn 0.6955 -0.697 0.1746
vn 0.6967 -0.7174 0
vn 0.6833 -0.6591 0.3141
vn 0.7804 -0.6078 -0.1471
vn 0.9373 -0.3426 0.063
vn 0.929 -0.3528 -0.1117
vn 0.9266 0.3414 -0.1575
vn 0.8653 -0.2727 0.4205
vn 0.9325 0.3586 0.043
vn 0.3381 0.9279 -0.1572
vn 0.3337 0.9417 0.0425
vn 0.852 0.1932 -0.4866
vn 0.8704 0.3717 0.3228
vn 0.3429 0.8837 0.3187
vn 0.3723 0.5856 0.7201
vn 0.1932 0.852 -0.4866
vn 0.5621 0.4005 0.7236
vn 0.3897 0.4442 0.8067
vn 0.4532 -0.0909 0.8868
vn 0.0177 0.0489 0.9986
vn 0.7514 -0.0708 -0.656
vn -0.047 0.7397 -0.6713
vn -0.1726 0.6459 -0.7436
vn 0.6542 -0.2031 -0.7286
vn -0.2826 0.5383 -0.794
vn 0.546 -0.3081 -0.7791
vn 0.7274 -0.6752 -0.1222
vn 0.7011 -0.7025 -0.1223
vn 0.6656 -0.7404 -0.0938
vn 0.4469 -0.4194 -0.7902
vn 0.4249 -0.4789 -0.7682
vn 0.6848 -0.7283 0.0225
vn -0.0918 0.4817 0.8715
vn -0.2694 0.8806 0.3899
vn -0.3618 0.9313 0.0431
vn -0.5894 0.7895 -0.1712
vn -0.3524 0.9293 -0.1102
vn -0.6623 0.7348 -0.1463
vn -0.6873 0.7115 -0.1465
vn -0.4157 0.4189 -0.8073
vn -0.4488 0.4196 -0.789
vn -0.7019 0.7019 -0.1207
vn 0 -0.001 -1
o bolt__p0_c0
f 1/1/1 2/2/2 3/3/3
f 1/1/1 3/3/3 4/4/4
f 4/4/4 3/3/3 5/5/5
f 4/4/4 5/5/5 6/6/6
f 7/7/7 8/8/7 9/9/7
f 9/9/7 8/8/7 10/10/7
f 11/11/8 12/12/9 13/13/10
f 12/12/9 11/11/8 14/14/11
f 14/14/11 11/11/8 2/2/2
f 2/2/2 11/11/8 13/13/10
f 12/12/9 14/14/11 15/15/12
f 2/2/2 13/13/10 3/3/3
f 3/3/3 13/13/10 5/16/5
f 16/17/13 14/18/11 2/2/2
f 16/17/13 2/2/2 1/1/1
f 12/12/9 15/15/12 17/19/14
f 17/19/14 15/15/12 18/20/15
f 12/12/9 17/19/14 19/21/16
f 12/12/9 19/21/16 20/22/17
f 12/12/9 20/22/17 13/13/10
f 13/13/10 20/22/17 5/16/5
f 5/16/5 20/22/17 21/23/18
f 21/23/18 20/22/17 22/24/19
f 23/25/20 19/21/21 17/19/22
f 23/25/20 17/19/22 24/26/23
f 24/26/23 17/19/22 18/20/24
f 24/26/23 18/20/24 25/27/25
f 24/26/23 25/27/25 26/28/26
f 26/28/26 25/27/25 27/29/27
f 19/21/21 23/25/20 22/24/28
f 22/24/28 23/25/20 28/30/29
f 28/30/29 23/25/20 29/31/30
f 28/30/29 29/31/30 30/32/31
f 30/32/31 29/31/30 31/33/32
f 29/31/30 23/25/20 26/28/26
f 26/28/26 23/25/20 24/26/23
f 31/33/32 29/31/30 32/34/33
f 31/33/32 32/34/33 33/35/34
f 29/31/30 26/28/26 34/36/35
f 29/31/30 34/36/35 32/34/33
f 33/35/34 32/34/33 35/37/36
f 33/35/34 35/37/36 36/38/37
f 35/37/36 32/34/33 37/39/38
f 35/37/36 37/39/38 36/38/37
f 37/39/38 32/34/33 34/36/35
f 36/38/37 37/39/38 38/40/39
f 38/40/39 37/39/38 39/41/40
f 37/39/38 34/36/35 40/42/41
f 40/42/41 34/36/35 26/28/26
f 39/41/40 37/39/38 41/43/42
f 41/43/42 37/39/38 40/42/41
f 39/41/40 41/43/42 42/44/43
f 40/42/41 26/28/26 43/45/44
f 40/42/41 43/45/44 41/43/42
f 43/45/44 26/28/26 27/29/27
f 41/43/42 43/45/44 42/46/43
f 20/22/17 19/21/16 22/24/19
f 6/47/45 5/16/45 44/48/46
f 44/48/46 5/16/45 21/23/46
f 44/48/46 21/23/46 22/24/28
f 44/48/46 22/24/28 45/49/47
f 10/10/48 46/50/48 9/9/48
f 9/9/48 46/50/48 47/51/48
f 15/15/49 48/52/50 18/20/24
f 48/52/50 15/15/49 49/53/49
f 49/53/49 15/15/49 14/14/51
f 49/53/49 14/14/51 16/54/51
f 43/55/44 50/56/52 51/57/53
f 51/57/53 50/56/52 52/58/54
f 51/57/53 52/58/54 53/59/55
f 43/55/44 51/57/53 54/60/56
f 43/55/44 54/60/56 42/61/43
f 51/57/53 53/59/55 55/62/57
f 51/57/53 55/62/57 54/60/56
f 55/62/57 53/59/55 56/63/58
f 55/62/57 56/63/58 57/64/59
f 56/63/58 53/59/55 58/65/60
f 55/62/57 57/64/59 59/66/61
f 55/62/57 59/66/61 54/60/56
f 59/66/61 57/64/59 60/67/62
f 58/65/60 53/59/55 52/68/54
f 59/66/61 60/67/62 61/69/63
f 56/63/58 58/65/60 62/70/64
f 59/66/61 61/69/63 63/71/65
f 63/71/65 61/69/63 64/72/66
f 59/66/61 63/71/65 65/73/67
f 59/66/61 65/73/67 54/60/56
f 65/73/67 63/71/65 66/74/68
f 54/60/56 65/73/67 42/61/43
f 42/61/43 65/73/67 39/75/40
f 50/76/52 58/65/60 52/68/54
f 67/77/69 62/70/64 58/65/60
f 67/77/69 58/65/60 50/76/52
f 62/70/64 67/77/69 68/78/70
f 68/78/70 67/77/69 69/79/71
f 69/79/71 67/77/69 70/80/72
f 69/79/71 70/80/72 71/81/73
f 71/81/73 70/80/72 72/82/74
f 70/80/72 67/77/69 73/83/75
f 73/83/75 67/77/69 50/76/52
f 73/83/75 50/76/52 27/84/27
f 27/84/27 50/76/52 43/85/44
f 73/83/75 27/84/27 25/86/25
f 70/80/72 73/83/75 74/87/76
f 74/87/76 73/83/75 25/86/25
f 70/80/72 74/87/76 72/82/74
f 74/87/76 25/86/25 18/88/24
f 72/82/74 74/87/76 75/89/77
f 75/89/77 74/87/76 18/88/24
f 75/89/77 18/88/24 48/90/50
f 72/82/74 75/89/77 76/91/78
f 75/89/77 48/90/50 77/92/77
f 75/89/77 77/92/77 76/91/78
f 76/91/78 77/92/77 78/93/79
f 79/94/80 8/8/80 80/95/80
f 80/95/80 8/8/80 7/7/80
f 39/75/40 65/73/67 66/74/68
f 39/75/40 66/74/68 38/96/39
f 38/96/39 66/74/68 36/97/37
f 63/71/65 64/72/66 66/74/68
f 66/74/68 64/72/66 61/69/63
f 36/97/37 66/74/68 81/98/81
f 81/98/81 66/74/68 61/69/63
f 36/97/37 81/98/81 33/99/34
f 81/98/81 61/69/63 60/67/62
f 33/99/34 81/98/81 82/100/82
f 82/100/82 81/98/81 60/67/62
f 33/99/34 82/100/82 31/101/32
f 82/100/82 60/67/62 57/64/59
f 31/101/32 82/100/82 83/102/83
f 83/102/83 82/100/82 57/64/59
f 31/101/32 83/102/83 84/103/84
f 84/103/84 83/102/83 85/104/85
f 83/102/83 57/64/59 56/63/58
f 83/102/83 56/63/58 85/104/85
f 85/105/85 56/63/58 62/70/64
f 85/105/85 62/70/64 84/106/84
f 84/106/84 62/70/64 68/78/70
f 84/106/84 68/78/70 69/79/71
f 84/106/84 69/79/71 86/107/86
f 84/106/84 86/107/86 31/108/32
f 86/107/86 69/79/71 71/81/73
f 31/108/32 86/107/86 30/109/31
f 30/109/31 86/107/86 87/110/87
f 87/110/87 86/107/86 71/81/73
f 30/109/31 87/110/87 28/111/29
f 87/110/87 71/81/73 88/112/88
f 88/112/88 71/81/73 72/82/74
f 88/112/88 72/82/74 76/91/78
f 88/112/88 76/91/78 89/113/89
f 89/113/89 76/91/78 78/93/79
f 87/110/87 88/112/88 90/114/90
f 90/114/90 88/112/88 89/113/89
f 87/110/87 90/114/90 28/111/29
f 90/114/90 89/113/89 91/115/90
f 28/111/29 90/114/90 22/116/28
f 22/116/28 90/114/90 91/115/90
f 22/116/28 91/115/90 45/117/47
f 47/118/91 46/119/91 80/95/91
f 80/95/91 46/119/91 79/94/91
