# vertices shared and precision trimmed by tools/optimize_obj.py
v -0.33544 0.02683 0.07329
v -0.33742 0.01243 0.0816
v -0.33544 0.02849 0.0773
v -0.33544 0.02906 0.0816
v -0.33544 0.02419 0.06984
v -0.33544 0.02849 0.08591
v -0.33544 0.02074 0.0672
v -0.33544 0.02683 0.08992
v -0.33544 0.01673 0.06554
v -0.33544 0.02419 0.09336
v -0.33544 0.01243 0.06497
v -0.33544 0.02074 0.09601
v -0.33544 0.00812 0.06554
v -0.33544 0.01673 0.09767
v -0.33544 0.00411 0.0672
v -0.33544 0.01243 0.09823
v -0.33544 0.00067 0.06984
v -0.33544 0.00812 0.09767
v -0.33544 -0.00197 0.07329
v -0.33544 0.00411 0.09601
v -0.33544 -0.00364 0.0773
v -0.33544 0.00067 0.09336
v -0.33544 -0.0042 0.0816
v -0.33544 -0.00197 0.08992
v -0.33544 -0.00364 0.08591
v -0.03462 0.03587 0.08788
v -0.03219 0.01243 0.0816
v -0.03462 0.03669 0.0816
v -0.03462 0.03587 0.07532
v -0.03462 0.03344 0.09373
v -0.03462 0.03344 0.06947
v -0.03462 0.02959 0.09876
v -0.03462 0.02959 0.06444
v -0.03462 0.02456 0.10262
v -0.03462 0.02456 0.06059
v -0.03462 0.01871 0.10504
v -0.03462 0.01871 0.05816
v -0.03462 0.01243 0.10587
v -0.03462 0.01243 0.05734
v -0.03462 0.00615 0.10504
v -0.03462 0.00615 0.05816
v -0.03462 0.00029 0.10262
v -0.03462 0.00029 0.06059
v -0.03462 -0.00473 0.09876
v -0.03462 -0.00473 0.06444
v -0.03462 -0.00859 0.09373
v -0.03462 -0.00859 0.06947
v -0.03462 -0.01101 0.08788
v -0.03462 -0.01101 0.07532
v -0.03462 -0.01184 0.0816
vt 1.908203 0.731445
vt 1.498047 0.495117
vt 1.955078 0.617188
vt 1.97168 0.495117
vt 1.833008 0.829102
vt 1.955078 0.372803
vt 1.734375 0.904297
vt 1.908203 0.258545
vt 1.620117 0.951660
vt 1.833008 0.160767
vt 1.498047 0.967773
vt 1.734375 0.085632
vt 1.375977 0.951660
vt 1.620117 0.038422
vt 1.261719 0.904297
vt 1.498047 0.022339
vt 1.163086 0.829102
vt 1.375977 0.038422
vt 1.087891 0.731445
vt 1.261719 0.085632
vt 1.041016 0.617188
vt 1.163086 0.160767
vt 1.024414 0.495117
vt 1.087891 0.258545
vt 1.041016 0.372803
vt 1.942383 0.369385
vt 1.503906 0.496338
vt 1.958008 0.496338
vt 1.942383 0.623535
vt 1.897461 0.250977
vt 1.897461 0.741699
vt 1.825195 0.149292
vt 1.825195 0.843750
vt 1.731445 0.071228
vt 1.731445 0.921875
vt 1.62207 0.022156
vt 1.62207 0.970703
vt 1.503906 0.005436
vt 1.503906 0.987305
vt 1.386719 0.022156
vt 1.386719 0.970703
vt 1.277344 0.071228
vt 1.277344 0.921875
vt 1.182617 0.149292
vt 1.182617 0.843750
vt 1.110352 0.250977
vt 1.110352 0.741699
vt 1.06543 0.369385
vt 1.06543 0.623535
vt 1.049805 0.496338
vn -0.9921 0.0866 -0.0709
vn -0.9921 0 0
vn -0.9921 0.1024 -0.0315
vn -0.9921 0.1024 0
vn -0.9843 0.0709 -0.1102
vn -0.9921 0.1024 0.0157
vn -0.9921 0.0472 -0.1102
vn -0.9921 0.0866 0.0472
vn -0.9843 0.0157 -0.1181
vn -0.9921 0.0709 0.0866
vn -0.9921 0 -0.1181
vn -0.9921 0.0472 0.0866
vn -0.9921 -0.0315 -0.1024
vn -0.9921 0.0157 0.1024
vn -0.9921 -0.0709 -0.0866
vn -0.9921 0 0.1024
vn -0.9843 -0.0945 -0.0866
vn -0.9921 -0.0315 0.0866
vn -0.9921 -0.1102 -0.0551
vn -0.9921 -0.0709 0.0709
vn -0.9843 -0.126 -0.0157
vn -0.9921 -0.0866 0.0709
vn -0.9921 -0.1181 -0.0157
vn -0.9921 -0.1024 0.0315
vn -0.9921 -0.1181 0
vn 0.9921 0.0866 0.0315
vn 0.9921 0 0.0079
vn 0.9921 0.0866 0.0157
vn 0.9921 0.0866 -0.0157
vn 0.9921 0.0709 0.0709
vn 0.9921 0.063 -0.0472
vn 0.9921 0.0472 0.0866
vn 0.9921 0.0472 -0.0709
vn 0.9921 0.0315 0.1024
vn 0.9921 0.0315 -0.0866
vn 0.9921 0.0157 0.1024
vn 0.9921 0.0157 -0.0866
vn 0.9921 0 0.1024
vn 0.9921 0 -0.0787
vn 0.9921 -0.0315 0.0866
vn 0.9921 -0.0315 -0.063
vn 0.9921 -0.0472 0.0866
vn 0.9921 -0.0472 -0.0709
vn 0.9921 -0.0709 0.0709
vn 0.9921 -0.063 -0.0472
vn 0.9921 -0.0866 0.0472
vn 0.9921 -0.0866 -0.0315
vn 0.9921 -0.1024 0.0157
vn 0.9921 -0.1024 0
# Converted from CSMC meshbin by CsmcAssetConverter
# source: weapon_snip_awp_legacy_weapon_snip_awp.body_legacy.meshbin
# source center: 16.66426 -0.5667131 7.678146
# source scale: 0.02323252
# Coordinates are preserved exactly as stored by CSMC.
# Basis conversion and mesh-normalization conjugation happen at runtime.
o weapon_hand_r__2
f 1/1/1 2/2/2 3/3/3
f 3/3/3 2/2/2 4/4/4
f 2/2/2 1/1/1 5/5/5
f 4/4/4 2/2/2 6/6/6
f 2/2/2 5/5/5 7/7/7
f 6/6/6 2/2/2 8/8/8
f 2/2/2 7/7/7 9/9/9
f 8/8/8 2/2/2 10/10/10
f 2/2/2 9/9/9 11/11/11
f 10/10/10 2/2/2 12/12/12
f 2/2/2 11/11/11 13/13/13
f 12/12/12 2/2/2 14/14/14
f 2/2/2 13/13/13 15/15/15
f 14/14/14 2/2/2 16/16/16
f 2/2/2 15/15/15 17/17/17
f 16/16/16 2/2/2 18/18/18
f 2/2/2 17/17/17 19/19/19
f 18/18/18 2/2/2 20/20/20
f 2/2/2 19/19/19 21/21/21
f 20/20/20 2/2/2 22/22/22
f 2/2/2 21/21/21 23/23/23
f 22/22/22 2/2/2 24/24/24
f 2/2/2 23/23/23 25/25/25
f 2/2/2 25/25/25 24/24/24
f 26/26/26 27/27/27 28/28/28
f 28/28/28 27/27/27 29/29/29
f 27/27/27 26/26/26 30/30/30
f 29/29/29 27/27/27 31/31/31
f 27/27/27 30/30/30 32/32/32
f 31/31/31 27/27/27 33/33/33
f 27/27/27 32/32/32 34/34/34
f 33/33/33 27/27/27 35/35/35
f 27/27/27 34/34/34 36/36/36
f 35/35/35 27/27/27 37/37/37
f 27/27/27 36/36/36 38/38/38
f 37/37/37 27/27/27 39/39/39
f 27/27/27 38/38/38 40/40/40
f 39/39/39 27/27/27 41/41/41
f 27/27/27 40/40/40 42/42/42
f 41/41/41 27/27/27 43/43/43
f 27/27/27 42/42/42 44/44/44
f 43/43/43 27/27/27 45/45/45
f 27/27/27 44/44/44 46/46/46
f 45/45/45 27/27/27 47/47/47
f 27/27/27 46/46/46 48/48/48
f 47/47/47 27/27/27 49/49/49
f 27/27/27 48/48/48 50/50/49
f 27/27/27 50/50/49 49/49/49
