# CS2 body mesh, tools/cs2_glb_to_obj.py
v -0.2744 0.02085 0.02806
v -0.2744 0.01243 0.02917
v -0.2744 0.02027 0.03242
v -0.2744 0.0176 0.03591
v -0.2744 0.01917 0.024
v -0.2744 0.01354 0.03759
v -0.2744 0.01568 0.02132
v -0.2744 0.00918 0.03701
v -0.2744 0.01132 0.02075
v -0.2744 0.00569 0.03434
v -0.2744 0.00726 0.02243
v -0.2744 0.00401 0.03028
v -0.2744 0.00458 0.02592
v -0.268 -0.04884 -0.00052
v -0.26562 -0.04815 -0.00207
v -0.26739 -0.0494 -0.00048
v -0.26879 -0.05017 0.00168
v -0.26678 -0.04708 -0.00214
v -0.26366 -0.04652 -0.00292
v -0.26525 -0.04505 -0.00302
v -0.26866 -0.04838 -0.00032
v -0.26803 -0.0462 -0.00176
v -0.26698 -0.04384 -0.0025
v -0.26931 -0.04807 0.00009
v -0.26927 -0.0456 -0.00098
v -0.26868 -0.04302 -0.00142
v -0.26988 -0.04793 0.00067
v -0.27033 -0.04798 0.00137
v -0.27059 -0.04823 0.00212
v -0.27036 -0.04534 0.00013
v -0.27019 -0.04266 0.0001
v -0.27121 -0.04545 0.00146
v -0.27172 -0.04591 0.00288
v -0.27135 -0.04281 0.00194
v -0.27205 -0.04344 0.00389
v -0.25101 -0.00333 0.02145
v -0.25122 0.00878 0.02658
v -0.25033 -0.00303 0.02084
v -0.25046 0.00908 0.02588
v -0.24959 -0.0029 0.02056
v -0.24965 0.00921 0.02556
v -0.26051 -0.0417 0.01293
v -0.26031 -0.04493 0.0133
v -0.25926 -0.04258 0.01256
v -0.26204 -0.04372 0.01381
v -0.25861 -0.04576 0.01222
v -0.25802 -0.04317 0.01177
v -0.26169 -0.04724 0.01326
v -0.2571 -0.04611 0.01069
v -0.25693 -0.04343 0.01066
v -0.25969 -0.04821 0.012
v -0.25792 -0.04863 0.0102
v -0.25594 -0.04597 0.00886
v -0.25608 -0.04333 0.00933
v -0.25524 -0.04533 0.0069
v -0.25557 -0.04286 0.00791
v -0.25573 -0.04771 0.00574
v -0.25656 -0.04845 0.00804
v -0.25699 -0.04976 0.00455
v -0.25787 -0.05054 0.00697
v -0.25891 -0.05128 0.00344
v -0.2593 -0.05072 0.00924
v -0.25974 -0.05203 0.00575
v -0.26129 -0.05213 0.00253
v -0.26116 -0.05028 0.01113
v -0.2611 -0.0522 0.0079
v -0.26199 -0.05277 0.00448
v -0.2639 -0.05222 0.00189
v -0.26441 -0.05268 0.00331
v -0.26649 -0.05155 0.0016
v -0.26315 -0.05291 0.00632
v -0.26287 -0.05178 0.0097
v -0.26326 -0.04927 0.01246
v -0.26675 -0.05179 0.00235
v -0.26525 -0.05279 0.00464
v -0.26466 -0.05256 0.00785
v -0.26487 -0.05081 0.01096
v -0.2672 -0.05184 0.00305
v -0.26635 -0.05253 0.00576
v -0.26636 -0.05173 0.00892
v -0.26777 -0.05171 0.00363
v -0.26759 -0.05193 0.00654
v -0.26691 -0.04939 0.01157
v -0.26842 -0.05139 0.00404
v -0.26809 -0.05053 0.00944
v -0.26884 -0.05105 0.00691
v -0.26908 -0.05093 0.00424
v -0.2654 -0.04777 0.01309
v -0.26878 -0.04766 0.01146
v -0.26737 -0.04595 0.01298
v -0.2656 -0.04408 0.01376
v -0.26712 -0.0422 0.01294
v -0.26898 -0.04397 0.01212
v -0.26373 -0.04582 0.01387
v -0.26363 -0.04225 0.01372
v -0.2703 -0.04577 0.01064
v -0.27006 -0.04203 0.0106
v -0.27133 -0.04393 0.0092
v -0.26969 -0.04905 0.00934
v -0.27098 -0.04745 0.00865
v -0.27 -0.04998 0.00684
v -0.27186 -0.04588 0.00742
v -0.27177 -0.04231 0.00727
v -0.27094 -0.04882 0.00634
v -0.26969 -0.05037 0.0042
v -0.27222 -0.0445 0.00578
v -0.27156 -0.04106 0.00505
v -0.27019 -0.04976 0.00394
v -0.27158 -0.04768 0.00545
v -0.27185 -0.04668 0.00426
v -0.27052 -0.04916 0.00347
v -0.27066 -0.04863 0.00284
v -0.24603 0.00375 0.0241
v -0.24645 -0.01686 0.01503
v -0.2485 0.0037 0.02395
v -0.24443 -0.0182 0.01582
v -0.24386 0.00346 0.02549
v -0.24886 -0.02365 0.01215
v -0.24689 -0.02515 0.01277
v -0.251 -0.02243 0.0127
v -0.26012 -0.03994 0.00482
v -0.26245 -0.03907 0.00557
v -0.2488 -0.0164 0.01519
v -0.25039 0.00334 0.02626
v -0.2507 -0.01701 0.01734
v -0.25263 -0.02286 0.0146
v -0.26428 -0.03956 0.00735
v -0.25283 -0.02417 0.0165
v -0.25097 -0.01837 0.0192
v -0.26476 -0.04119 0.00932
v -0.12409 0.01354 0.03759
v -0.12409 0.0176 0.03591
v -0.25101 -0.00605 0.02687
v -0.25122 0.00617 0.03274
v -0.25131 -0.00568 0.02621
v -0.25156 0.0065 0.03196
v -0.25047 0.00586 0.03346
v -0.25156 0.00845 0.02734
v -0.25032 -0.00643 0.02748
v -0.25131 -0.00367 0.02211
v -0.24965 0.00573 0.03378
v -0.24959 -0.00661 0.02774
v -0.24455 -0.00686 0.02764
v -0.24404 0.00574 0.03379
v -0.24323 0.00588 0.03347
v -0.24382 -0.00675 0.02735
v -0.24247 0.00619 0.03275
v -0.24314 -0.00644 0.02673
v -0.24213 0.00652 0.03197
v -0.24283 -0.00608 0.02606
v -0.24283 -0.004 0.02197
v -0.24213 0.00847 0.02734
v -0.24247 0.00879 0.02658
v -0.24314 -0.00362 0.02134
v -0.24949 -0.0068 0.02711
v -0.24467 -0.00705 0.02701
v -0.24411 -0.00696 0.02679
v -0.25004 -0.00666 0.02692
v -0.24357 -0.00671 0.0263
v -0.2506 -0.00636 0.02642
v -0.24333 -0.00643 0.02579
v -0.25083 -0.00607 0.02591
v -0.24333 -0.00444 0.02188
v -0.25083 -0.00415 0.022
v -0.24356 -0.00415 0.0214
v -0.2506 -0.00388 0.0215
v -0.24412 -0.00385 0.02092
v -0.24382 -0.00326 0.02075
v -0.25005 -0.00364 0.02101
v -0.2495 -0.00355 0.02079
v -0.24455 -0.00309 0.02049
v -0.24467 -0.00372 0.02073
v -0.24708 -0.00528 0.02391
v -0.12409 0.01917 0.024
v -0.12409 0.01568 0.02132
v -0.12409 0.02085 0.02806
v -0.12409 0.02027 0.03242
v -0.12409 0.01132 0.02075
v -0.12409 0.00726 0.02243
v -0.12409 0.00458 0.02592
v -0.12409 0.00401 0.03028
v -0.12409 0.00569 0.03434
v -0.12409 0.00918 0.03701
v -0.25798 -0.04071 0.0107
v -0.25863 -0.04039 0.01112
v -0.25929 -0.03993 0.01131
v -0.2585 -0.0386 0.00912
v -0.25741 -0.04084 0.01012
v -0.25696 -0.04079 0.00942
v -0.2567 -0.04054 0.00867
v -0.2599 -0.03937 0.01128
v -0.26167 -0.04062 0.01286
v -0.2604 -0.03875 0.01101
v -0.26261 -0.03946 0.01236
v -0.26493 -0.04065 0.01302
v -0.26073 -0.03816 0.01054
v -0.26087 -0.03763 0.00992
v -0.26081 -0.03722 0.0092
v -0.26325 -0.03832 0.01147
v -0.26352 -0.03732 0.01028
v -0.26339 -0.03655 0.0089
v -0.26581 -0.03908 0.0118
v -0.26617 -0.0377 0.01016
v -0.266 -0.03664 0.00827
v -0.26815 -0.04036 0.0115
v -0.26858 -0.03873 0.00957
v -0.26838 -0.03749 0.00735
v -0.27051 -0.04032 0.00858
v -0.27029 -0.03901 0.00624
v -0.12409 0.01243 0.02917
v -0.24404 0.00922 0.02557
v -0.24323 0.00909 0.02588
v -0.25053 0.00283 0.02881
v -0.24898 0.00241 0.03085
v -0.24967 -0.01991 0.02062
v -0.24645 0.00228 0.03142
v -0.25172 -0.02627 0.01814
v -0.26366 -0.04319 0.01056
v -0.24946 -0.02747 0.01808
v -0.26149 -0.04462 0.01049
v -0.24733 -0.02092 0.02076
v -0.24413 0.0025 0.03027
v -0.24723 -0.02768 0.01658
v -0.25928 -0.04482 0.00915
v -0.24495 -0.0209 0.01949
v -0.2431 0.00297 0.02793
v -0.24621 -0.02671 0.01458
v -0.25805 -0.04369 0.00716
v -0.25838 -0.04176 0.00545
v -0.24383 -0.01976 0.01764
v -0.25552 -0.04646 0.00352
v -0.25507 -0.04427 0.00501
v -0.25545 -0.0421 0.00654
v -0.25596 -0.04484 0.00159
v -0.25543 -0.04289 0.00337
v -0.25678 -0.04845 0.00222
v -0.25723 -0.04674 0.00019
v -0.25699 -0.043 0.00015
v -0.25631 -0.04133 0.00214
v -0.25831 -0.0448 -0.00133
v -0.2587 -0.05004 0.00122
v -0.25914 -0.04841 -0.0007
v -0.26017 -0.04657 -0.00215
v -0.25992 -0.04283 -0.00218
v -0.25851 -0.04112 -0.00066
v -0.26169 -0.04469 -0.00296
v -0.26236 -0.04813 -0.00223
v -0.26356 -0.04295 -0.00307
v -0.26189 -0.041 -0.0023
v -0.2656 -0.04153 -0.00247
v -0.26148 -0.04969 -0.001
v -0.26468 -0.04931 -0.00156
v -0.26111 -0.05107 0.00064
v -0.26404 -0.05045 -0.00067
v -0.26377 -0.05145 0.00052
v -0.26642 -0.05114 0.00088
v -0.26656 -0.05061 0.00025
v -0.26689 -0.05002 -0.00022
v -0.25663 -0.04014 0.00795
v -0.25571 -0.04109 0.00535
v -0.25677 -0.03961 0.00732
v -0.25635 -0.03995 0.00445
v -0.2571 -0.03901 0.00686
v -0.2576 -0.03972 0.00145
v -0.25729 -0.03879 0.00395
v -0.2576 -0.0384 0.00659
v -0.2592 -0.03825 0.00136
v -0.26038 -0.03938 -0.00077
v -0.25845 -0.03772 0.00388
v -0.25821 -0.03784 0.00656
v -0.26093 -0.03704 0.00187
v -0.25971 -0.03684 0.00426
v -0.25887 -0.03738 0.00675
v -0.26242 -0.03796 -0.00017
v -0.26263 -0.03621 0.00295
v -0.26094 -0.03624 0.00504
v -0.25952 -0.03706 0.00716
v -0.26442 -0.03699 0.0011
v -0.26414 -0.03586 0.00448
v -0.26204 -0.03598 0.00615
v -0.26009 -0.03693 0.00775
v -0.26054 -0.03698 0.00845
v -0.26288 -0.03609 0.00748
v -0.2653 -0.03601 0.00631
v -0.26755 -0.03674 0.00505
v -0.26619 -0.03657 0.00289
v -0.26943 -0.03823 0.00382
v -0.26799 -0.03805 0.00156
v -0.27073 -0.04032 0.00275
v -0.26937 -0.04015 0.00059
v -0.26613 -0.03849 -0.00033
v -0.2676 -0.04056 -0.0012
v -0.26403 -0.0395 -0.00166
vt 0.504395 0.295654
vt 0.51123 0.291992
vt 0.503418 0.291748
vt 0.504395 0.287842
vt 0.506836 0.298584
vt 0.507324 0.285156
vt 0.510742 0.299805
vt 0.51123 0.284424
vt 0.514648 0.298828
vt 0.515137 0.285645
vt 0.517578 0.296143
vt 0.518066 0.288574
vt 0.518555 0.29248
vt 0.54834 0.307861
vt 0.550781 0.311279
vt 0.549805 0.307617
vt 0.54834 0.304199
vt 0.54834 0.311523
vt 0.55127 0.314697
vt 0.54834 0.314941
vt 0.547363 0.307617
vt 0.546387 0.311279
vt 0.54541 0.314697
vt 0.545898 0.307373
vt 0.543945 0.310791
vt 0.54248 0.314453
vt 0.544922 0.306885
vt 0.543945 0.306152
vt 0.543457 0.305176
vt 0.541992 0.310059
vt 0.540039 0.313721
vt 0.540039 0.308838
vt 0.538574 0.307373
vt 0.537109 0.3125
vt 0.534668 0.311035
vt 0.518555 0.327637
vt 0.52002 0.3396
vt 0.519531 0.327637
vt 0.520508 0.339355
vt 0.52002 0.327637
vt 0.521484 0.339355
vt 0.586914 0.346924
vt 0.583984 0.34375
vt 0.584961 0.347168
vt 0.586914 0.343506
vt 0.581055 0.344238
vt 0.58252 0.347656
vt 0.583496 0.340332
vt 0.578613 0.344971
vt 0.580566 0.348389
vt 0.580566 0.340576
vt 0.577148 0.341064
vt 0.576172 0.345947
vt 0.579102 0.349609
vt 0.573242 0.347656
vt 0.577637 0.351318
vt 0.570801 0.342773
vt 0.574219 0.341797
vt 0.569824 0.337158
vt 0.573242 0.337158
vt 0.570801 0.331299
vt 0.57666 0.337158
vt 0.574219 0.33252
vt 0.573242 0.326416
vt 0.580078 0.337158
vt 0.577148 0.333008
vt 0.575684 0.328125
vt 0.577148 0.322998
vt 0.578613 0.324463
vt 0.582031 0.320801
vt 0.578613 0.329346
vt 0.580566 0.333496
vt 0.583496 0.336914
vt 0.58252 0.321777
vt 0.586914 0.319824
vt 0.580566 0.325684
vt 0.581055 0.329834
vt 0.583496 0.33374
vt 0.583496 0.32251
vt 0.58252 0.326416
vt 0.583984 0.330322
vt 0.584473 0.322998
vt 0.584473 0.326904
vt 0.586914 0.33374
vt 0.585938 0.323242
vt 0.586914 0.330566
vt 0.586914 0.327148
vt 0.586914 0.323486
vt 0.586914 0.336914
vt 0.590332 0.33374
vt 0.590332 0.336914
vt 0.590332 0.340332
vt 0.593262 0.340576
vt 0.59375 0.336914
vt 0.586914 0.340332
vt 0.589844 0.34375
vt 0.593262 0.333496
vt 0.597168 0.336914
vt 0.59668 0.333008
vt 0.589844 0.330322
vt 0.592773 0.329834
vt 0.589355 0.326904
vt 0.595215 0.329346
vt 0.600098 0.332275
vt 0.591309 0.326416
vt 0.588379 0.323242
vt 0.598145 0.328125
vt 0.603027 0.331299
vt 0.600586 0.326416
vt 0.589355 0.322998
vt 0.593262 0.325684
vt 0.595215 0.324463
vt 0.59668 0.322998
vt 0.590332 0.32251
vt 0.591309 0.321777
vt 0.591797 0.320801
vt 0.62793 0.468262
vt 0.62793 0.44751
vt 0.625488 0.468262
vt 0.630371 0.446777
vt 0.630371 0.468262
vt 0.62793 0.440186
vt 0.630371 0.439941
vt 0.625488 0.440674
vt 0.62793 0.420654
vt 0.625488 0.420654
vt 0.625977 0.44751
vt 0.623047 0.468262
vt 0.623535 0.44751
vt 0.623535 0.440674
vt 0.623047 0.420654
vt 0.621094 0.44043
vt 0.621094 0.447021
vt 0.621094 0.420654
vt 0.526855 0.253662
vt 0.663086 0.253662
vt 0.663086 0.249756
vt 0.526855 0.249756
vt 0.513184 0.327881
vt 0.513672 0.340088
vt 0.513672 0.327881
vt 0.514648 0.340088
vt 0.512695 0.340088
vt 0.519043 0.3396
vt 0.512207 0.327881
vt 0.518066 0.327637
vt 0.512207 0.340088
vt 0.511719 0.327881
vt 0.507324 0.327637
vt 0.507324 0.340332
vt 0.506348 0.340332
vt 0.506348 0.327637
vt 0.505371 0.340332
vt 0.505859 0.327637
vt 0.504883 0.340332
vt 0.504883 0.327637
vt 0.500977 0.327637
vt 0.5 0.340088
vt 0.499756 0.339844
vt 0.5 0.327637
vt 0.511719 0.327148
vt 0.507324 0.327148
vt 0.506348 0.327148
vt 0.512207 0.327148
vt 0.505859 0.327148
vt 0.513184 0.327148
vt 0.504883 0.327148
vt 0.513672 0.327148
vt 0.500977 0.327148
vt 0.518066 0.327148
vt 0.500488 0.327148
vt 0.518555 0.326904
vt 0.499756 0.327148
vt 0.499756 0.327637
vt 0.519531 0.326904
vt 0.52002 0.326904
vt 0.524414 0.326904
vt 0.524414 0.326172
vt 0.525391 0.32666
vt 0.524902 0.325928
vt 0.553711 0.428711
vt 0.551758 0.431885
vt 0.554199 0.428955
vt 0.554688 0.429443
vt 0.549316 0.428711
vt 0.555176 0.429932
vt 0.548828 0.428955
vt 0.555176 0.434082
vt 0.54834 0.429443
vt 0.554688 0.43457
vt 0.54834 0.429932
vt 0.554199 0.435059
vt 0.54834 0.433838
vt 0.553711 0.435059
vt 0.54834 0.434326
vt 0.549316 0.435059
vt 0.548828 0.434814
vt 0.526855 0.2854
vt 0.526855 0.289307
vt 0.663086 0.2854
vt 0.663086 0.281494
vt 0.526855 0.281494
vt 0.663086 0.289307
vt 0.526855 0.293457
vt 0.663086 0.293457
vt 0.526855 0.297363
vt 0.663086 0.297363
vt 0.663086 0.277344
vt 0.526855 0.277344
vt 0.663086 0.273438
vt 0.526855 0.273438
vt 0.663086 0.269531
vt 0.526855 0.269531
vt 0.663086 0.265625
vt 0.526855 0.265625
vt 0.663086 0.261475
vt 0.526855 0.261475
vt 0.663086 0.257568
vt 0.526855 0.257568
vt 0.584473 0.351074
vt 0.585938 0.350586
vt 0.586914 0.350586
vt 0.586914 0.354248
vt 0.583496 0.351562
vt 0.58252 0.352295
vt 0.582031 0.353271
vt 0.588379 0.350586
vt 0.589355 0.347168
vt 0.589355 0.351074
vt 0.591309 0.347656
vt 0.592773 0.343994
vt 0.59082 0.351562
vt 0.591309 0.352295
vt 0.592285 0.353271
vt 0.593262 0.348389
vt 0.595215 0.349609
vt 0.59668 0.351074
vt 0.595215 0.344727
vt 0.598145 0.345947
vt 0.600586 0.347412
vt 0.59668 0.34082
vt 0.600098 0.341553
vt 0.603516 0.342529
vt 0.600586 0.336914
vt 0.604492 0.336914
vt 0.519531 0.313721
vt 0.511719 0.314453
vt 0.518555 0.317627
vt 0.516113 0.320557
vt 0.518066 0.310059
vt 0.512207 0.322021
vt 0.515137 0.307373
vt 0.508301 0.321289
vt 0.51123 0.306641
vt 0.505371 0.318848
vt 0.507324 0.308105
vt 0.503906 0.314941
vt 0.504883 0.311035
vt 0.526367 0.338623
vt 0.527344 0.338623
vt 0.621094 0.468262
vt 0.619141 0.468262
vt 0.619141 0.446289
vt 0.616699 0.468262
vt 0.618652 0.439941
vt 0.619141 0.420654
vt 0.616211 0.439697
vt 0.616699 0.420654
vt 0.616699 0.445801
vt 0.614258 0.468262
vt 0.61377 0.439697
vt 0.614258 0.420654
vt 0.61377 0.445801
vt 0.611816 0.468262
vt 0.611816 0.439697
vt 0.611816 0.420654
vt 0.609375 0.439941
vt 0.609375 0.420654
vt 0.611816 0.446289
vt 0.609375 0.447021
vt 0.609375 0.468262
vt 0.564941 0.327148
vt 0.561523 0.326172
vt 0.5625 0.332031
vt 0.55957 0.330322
vt 0.558105 0.335693
vt 0.556641 0.333984
vt 0.558105 0.325439
vt 0.557129 0.329346
vt 0.562012 0.321533
vt 0.565918 0.321533
vt 0.558594 0.321533
vt 0.555176 0.324951
vt 0.554199 0.328613
vt 0.555176 0.321533
vt 0.561523 0.316895
vt 0.564941 0.315674
vt 0.558105 0.317383
vt 0.555176 0.317871
vt 0.551758 0.321533
vt 0.551758 0.324951
vt 0.551758 0.318115
vt 0.554199 0.314453
vt 0.54834 0.318359
vt 0.54834 0.321533
vt 0.544922 0.318115
vt 0.557129 0.313721
vt 0.552734 0.310791
vt 0.55957 0.3125
vt 0.562012 0.310791
vt 0.555176 0.310059
vt 0.556641 0.308838
vt 0.558105 0.307129
vt 0.552734 0.306152
vt 0.553711 0.305176
vt 0.552246 0.306885
vt 0.55127 0.307373
vt 0.553711 0.337891
vt 0.553223 0.336914
vt 0.548828 0.338867
vt 0.555176 0.333008
vt 0.552246 0.336182
vt 0.553223 0.332275
vt 0.55127 0.335693
vt 0.55127 0.328125
vt 0.550781 0.331787
vt 0.549805 0.335449
vt 0.54834 0.328125
vt 0.54834 0.324707
vt 0.54834 0.331543
vt 0.548828 0.335205
vt 0.54541 0.328369
vt 0.546387 0.331787
vt 0.547363 0.335449
vt 0.54541 0.324951
vt 0.542969 0.328613
vt 0.543945 0.332275
vt 0.545898 0.335693
vt 0.541992 0.325195
vt 0.540039 0.32959
vt 0.541992 0.333008
vt 0.544922 0.336182
vt 0.543945 0.336914
vt 0.543457 0.337891
vt 0.539062 0.335938
vt 0.540527 0.334229
vt 0.534668 0.332275
vt 0.537598 0.330566
vt 0.532227 0.327393
vt 0.535645 0.326172
vt 0.530762 0.321533
vt 0.538574 0.325684
vt 0.534668 0.321533
vt 0.531738 0.315918
vt 0.538086 0.321533
vt 0.535156 0.316895
vt 0.538574 0.317627
vt 0.541504 0.321533
vt 0.541992 0.317871
vt 0.544922 0.321533
vt 0.630371 0.420654
vt 0.498779 0.339844
vn -1 0 -0.001
vn -0.4873 -0.514 -0.7059
vn -0.2179 -0.4359 -0.8732
vn -0.4039 -0.5926 -0.6969
vn -0.5966 -0.6766 -0.4316
vn -0.345 -0.3208 -0.8821
vn 0.0194 -0.2576 -0.9661
vn -0.1762 -0.0772 -0.9813
vn -0.5723 -0.4618 -0.6777
vn -0.4929 -0.2221 -0.8413
vn -0.3665 0.0637 -0.9282
vn -0.6511 -0.434 -0.6227
vn -0.6357 -0.1476 -0.7577
vn -0.5556 0.1456 -0.8186
vn -0.7224 -0.4024 -0.5624
vn -0.7682 -0.4249 -0.4789
vn -0.8078 -0.4424 -0.3895
vn -0.7714 -0.1216 -0.6246
vn -0.7538 0.2008 -0.6256
vn -0.8802 -0.1168 -0.46
vn -0.9399 -0.1792 -0.2908
vn -0.882 0.1911 -0.4307
vn -0.9742 0.1024 -0.2011
vn -0.8342 0.1965 -0.5153
vn -0.8158 0.1979 -0.5434
vn -0.5464 0.3099 -0.7781
vn -0.3739 0.3248 -0.8687
vn 0.3381 0.2904 0.8952
vn 0.3753 -0.0881 0.9227
vn 0.4866 0.1932 0.852
vn 0.1747 0.0582 0.9829
vn 0.5621 -0.1703 0.8093
vn 0.6272 0.1201 0.7695
vn 0.2119 -0.3502 0.9124
vn 0.7605 -0.2295 0.6074
vn 0.76 0.0952 0.6429
vn 0.4533 -0.4533 0.7675
vn 0.6553 -0.5205 0.5475
vn 0.8876 -0.2171 0.4062
vn 0.8715 0.0918 0.4817
vn 0.9754 -0.1215 0.1841
vn 0.9375 0.1551 0.3116
vn 0.9103 -0.4118 0.0413
vn 0.8177 -0.4868 0.3072
vn 0.7724 -0.6312 -0.0706
vn 0.6547 -0.729 0.1997
vn 0.5724 -0.7959 -0.1974
vn 0.4827 -0.7495 0.453
vn 0.4387 -0.8976 0.0445
vn 0.2848 -0.9072 -0.3097
vn 0.2871 -0.7041 0.6495
vn 0.2824 -0.9168 0.2824
vn 0.1988 -0.9768 -0.0798
vn 0 -0.9177 -0.3972
vn -0.0596 -0.9684 -0.2421
vn -0.2997 -0.8527 -0.4279
vn 0.0554 -0.9924 0.1098
vn 0.0918 -0.8715 0.4817
vn 0.0235 -0.5587 0.8291
vn -0.3493 -0.8701 -0.3477
vn -0.1764 -0.9812 -0.0785
vn -0.1272 -0.9584 0.2557
vn -0.146 -0.7571 0.6367
vn -0.3917 -0.8797 -0.2696
vn -0.3091 -0.9501 0.042
vn -0.3266 -0.8559 0.4009
vn -0.4576 -0.8676 -0.1946
vn -0.4629 -0.8789 0.1154
vn -0.402 -0.5906 0.6997
vn -0.5277 -0.8373 -0.143
vn -0.5376 -0.7262 0.4284
vn -0.6084 -0.7796 0.1487
vn -0.6256 -0.7709 -0.1201
vn -0.2174 -0.4097 0.8859
vn -0.6184 -0.4029 0.6748
vn -0.4584 -0.1914 0.8679
vn -0.2337 0.0204 0.9721
vn -0.4161 0.2448 0.8757
vn -0.6225 0.0468 0.7813
vn -0.0198 -0.1898 0.9816
vn -0.0204 0.2337 0.9721
vn -0.7869 -0.1713 0.5928
vn -0.745 0.2578 0.6153
vn -0.8976 0.0445 0.4387
vn -0.7048 -0.5415 0.4582
vn -0.857 -0.3518 0.3766
vn -0.7348 -0.6623 0.1463
vn -0.9619 -0.1697 0.2145
vn -0.9503 0.2216 0.2189
vn -0.8561 -0.5085 0.0926
vn -0.7017 -0.7017 -0.1239
vn -0.9993 -0.0174 0.0318
vn -0.9173 0.3927 -0.0659
vn -0.7585 -0.6351 -0.146
vn -0.9285 -0.3714 -0.0013
vn -0.9549 -0.2773 -0.106
vn -0.8028 -0.5527 -0.2238
vn -0.8147 -0.5076 -0.2804
vn 0.3248 0.3739 -0.8687
vn 0.2889 0.3396 -0.8951
vn -0.4081 0.3579 -0.8398
vn 0.792 0.1212 -0.5984
vn 0.8342 0.1965 -0.5153
vn 0.2271 0.272 -0.9351
vn 0.7184 -0.0456 -0.6942
vn -0.3383 0.4914 -0.8026
vn 0.2014 0.2676 -0.9422
vn -0.4023 0.5606 -0.7238
vn -0.3579 0.4081 -0.8398
vn -0.9335 0.1341 -0.3326
vn -0.9061 0.261 -0.3328
vn -0.8405 0.4934 -0.2238
vn -0.8115 0.5801 -0.07
vn -0.8735 0.2195 0.4345
vn -0.9526 0.0212 0.3034
vn -0.7733 0.2842 0.5668
vn 0.0011 0.1234 0.9924
vn 0.0014 0.6015 0.7988
vn -0.8466 -0.2496 0.47
vn -0.9824 -0.0981 0.1587
vn -0.5856 -0.3723 0.7201
vn -0.9788 0.0579 -0.1965
vn -0.9758 0.0385 -0.2151
vn -0.2198 -0.4381 0.8717
vn -0.222 -0.4666 0.8562
vn 0.1914 -0.4584 0.8679
vn 0.5621 -0.4005 0.7236
vn 0.8317 -0.2783 0.4804
vn 0.9762 -0.1416 0.1642
vn 0.9817 0.0186 -0.1896
vn 0.8449 0.1696 -0.5073
vn -0.1998 -0.9499 0.2405
vn 0.0834 -0.959 0.2709
vn -0.4434 -0.8854 0.1392
vn 0.3388 -0.9271 0.1603
vn -0.6 -0.8 -0.0014
vn 0.5487 -0.836 0.0014
vn -0.5855 -0.8103 -0.0236
vn -0.6798 -0.7046 -0.2033
vn 0.6542 -0.7286 -0.2031
vn -0.6766 -0.5966 -0.4316
vn 0.6509 -0.6242 -0.4322
vn -0.5752 -0.4911 -0.6542
vn 0.5455 -0.5186 -0.6584
vn 0.5167 -0.5167 -0.6827
vn 0.3616 -0.4378 -0.8232
vn -0.3875 -0.4129 -0.8242
vn -0.136 -0.3608 -0.9227
vn 0.1132 -0.3809 -0.9177
vn -0.0436 -0.8847 -0.4641
vn -0.0431 -0.8979 -0.4381
vn -0.0216 -0.8763 -0.4813
vn -0.0439 -0.8705 -0.4902
vn -0.0214 -0.8899 -0.4556
vn 0.0223 0.791 -0.6114
vn 0.0178 0.9919 -0.1254
vn 0 0.371 -0.9287
vn -0.0013 0.9189 0.3945
vn 0 -0.1441 -0.9896
vn 0 -0.6237 -0.7817
vn 0 -0.928 -0.3725
vn 0.0011 -0.9924 0.1234
vn 0.0014 -0.8011 0.5985
vn 0.0013 -0.3976 0.9175
vn 0.6454 0.4032 0.6487
vn 0.5665 0.4303 0.7028
vn 0.4865 0.4865 0.7257
vn 0.5988 0.6524 0.4646
vn 0.7201 0.3723 0.5856
vn 0.7677 0.3961 0.5037
vn 0.8073 0.4157 0.4189
vn 0.4005 0.5621 0.7236
vn 0.2174 0.4097 0.8859
vn 0.3447 0.6354 0.691
vn 0.0933 0.5353 0.8395
vn -0.1632 0.4232 0.8912
vn 0.3155 0.7102 0.6293
vn 0.2842 0.7733 0.5668
vn 0.3045 0.8354 0.4575
vn 0.0239 0.6841 0.729
vn 0.0014 0.819 0.5737
vn 0.0013 0.9078 0.4195
vn -0.2855 0.595 0.7513
vn -0.3133 0.7568 0.5736
vn -0.2904 0.8952 0.3381
vn -0.542 0.4619 0.7021
vn -0.5988 0.6524 0.4646
vn -0.5799 0.782 0.2285
vn -0.805 0.4689 0.3633
vn -0.7809 0.6174 0.0949
vn 0.9997 -0.0151 0.0171
vn 0.0207 0.378 -0.9256
vn 0.2104 0.3516 -0.9122
vn 0.403 0.3286 -0.8541
vn -0.9584 -0.1272 0.2557
vn -0.557 -0.3708 0.7432
vn -0.5383 -0.2826 0.794
vn 0.1142 -0.4358 0.8928
vn -0.4709 -0.1406 0.8709
vn -0.4358 -0.1142 0.8928
vn 0.1406 -0.4709 0.8709
vn 0.0918 -0.4817 0.8715
vn 0.1377 -0.4161 0.8988
vn 0.691 -0.3447 0.6354
vn 0.6543 -0.5736 0.4928
vn 0.5736 -0.6543 0.4928
vn 0.6997 -0.402 0.5906
vn 0.989 -0.0948 0.1135
vn 0.9119 -0.3872 -0.1361
vn 0.8467 -0.519 -0.1174
vn 0.6863 -0.1482 -0.712
vn 0.9827 -0.1851 -0.0011
vn 0.9494 -0.2421 -0.1999
vn 0.9987 0 -0.0502
vn 0.9584 0.2557 0.1272
vn 0.9052 -0.0652 -0.42
vn 0.9602 0.15 -0.2355
vn 0.8035 -0.4911 -0.3364
vn 0.7495 -0.2839 -0.598
vn 0.7804 0.1471 -0.6078
vn 0.8551 0.3284 -0.4012
vn 0.6305 -0.0691 -0.7731
vn 0.5966 -0.6766 -0.4316
vn 0.5431 -0.4895 -0.6822
vn 0.4201 -0.2709 -0.8661
vn 0.4497 0.1665 -0.8775
vn 0.6156 0.3753 -0.693
vn 0.2363 -0.039 -0.9709
vn 0.1665 -0.4497 -0.8775
vn 0.0183 0.1672 -0.9858
vn 0.2131 0.3794 -0.9004
vn -0.2076 0.3242 -0.9229
vn 0.2847 -0.6239 -0.7278
vn -0.0929 -0.5892 -0.8026
vn 0.3098 -0.7794 -0.5446
vn -0.0225 -0.7076 -0.7062
vn 0 -0.8364 -0.5481
vn -0.2807 -0.7949 -0.5378
vn -0.3129 -0.7323 -0.6049
vn -0.3467 -0.6641 -0.6624
vn 0.8177 0.4868 0.3072
vn 0.9352 0.3536 -0.0218
vn 0.8084 0.5311 0.2539
vn 0.8638 0.4895 -0.1195
vn 0.7668 0.6174 0.1753
vn 0.7045 0.5142 -0.4892
vn 0.7451 0.6443 -0.1725
vn 0.7115 0.6873 0.1465
vn 0.5402 0.7035 -0.4618
vn 0.4025 0.5642 -0.7209
vn 0.618 0.7671 -0.172
vn 0.6367 0.7571 0.146
vn 0.332 0.8393 -0.4306
vn 0.4702 0.8708 -0.1437
vn 0.5345 0.828 0.1692
vn 0.148 0.7368 -0.6598
vn 0.1305 0.9508 -0.281
vn 0.3164 0.9465 -0.0635
vn 0.4657 0.8575 0.2185
vn -0.0912 0.8546 -0.5113
vn -0.0552 0.9897 -0.1323
vn 0.1809 0.9784 0.0997
vn 0.3955 0.8689 0.2978
vn 0.3518 0.857 0.3766
vn 0.0618 0.962 0.266
vn -0.2038 0.9738 0.1013
vn -0.4451 0.8929 -0.0673
vn -0.2848 0.9072 -0.3097
vn -0.6624 0.7127 -0.2308
vn -0.4847 0.727 -0.4863
vn -0.822 0.4616 -0.3335
vn -0.6558 0.491 -0.5734
vn -0.2855 0.6769 -0.6785
vn -0.4472 0.4213 -0.789
vn -0.0219 0.5342 -0.8451
vn 0.7122 0.229 -0.6636
o bolt_action
f 1/1/1 2/2/1 3/3/1
f 3/3/1 2/2/1 4/4/1
f 2/2/1 1/1/1 5/5/1
f 4/4/1 2/2/1 6/6/1
f 2/2/1 5/5/1 7/7/1
f 6/6/1 2/2/1 8/8/1
f 2/2/1 7/7/1 9/9/1
f 8/8/1 2/2/1 10/10/1
f 2/2/1 9/9/1 11/11/1
f 10/10/1 2/2/1 12/12/1
f 2/2/1 11/11/1 13/13/1
f 2/2/1 13/13/1 12/12/1
f 14/14/2 15/15/3 16/16/4
f 14/14/2 16/16/4 17/17/5
f 15/15/3 14/14/2 18/18/6
f 15/15/3 18/18/6 19/19/7
f 19/19/7 18/18/6 20/20/8
f 18/18/6 14/14/2 21/21/9
f 21/21/9 14/14/2 17/17/5
f 20/20/8 18/18/6 22/22/10
f 22/22/10 18/18/6 21/21/9
f 20/20/8 22/22/10 23/23/11
f 21/21/9 17/17/5 24/24/12
f 21/21/9 24/24/12 22/22/10
f 23/23/11 22/22/10 25/25/13
f 25/25/13 22/22/10 24/24/12
f 23/23/11 25/25/13 26/26/14
f 24/24/12 17/17/5 27/27/15
f 24/24/12 27/27/15 25/25/13
f 27/27/15 17/17/5 28/28/16
f 28/28/16 17/17/5 29/29/17
f 25/25/13 27/27/15 30/30/18
f 25/25/13 30/30/18 26/26/14
f 30/30/18 27/27/15 28/28/16
f 26/26/14 30/30/18 31/31/19
f 28/28/16 29/29/17 32/32/20
f 28/28/16 32/32/20 30/30/18
f 30/30/18 32/32/20 31/31/19
f 32/32/20 29/29/17 33/33/21
f 31/31/19 32/32/20 34/34/22
f 34/34/22 32/32/20 33/33/21
f 34/34/22 33/33/21 35/35/23
f 36/36/24 37/37/25 38/38/26
f 38/38/26 37/37/25 39/39/26
f 38/38/26 39/39/26 40/40/27
f 40/40/27 39/39/26 41/41/27
f 42/42/28 43/43/29 44/44/30
f 43/43/29 42/42/28 45/45/31
f 44/44/30 43/43/29 46/46/32
f 44/44/30 46/46/32 47/47/33
f 43/43/29 45/45/31 48/48/34
f 47/47/33 46/46/32 49/49/35
f 47/47/33 49/49/35 50/50/36
f 46/46/32 43/43/29 51/51/37
f 51/51/37 43/43/29 48/48/34
f 49/49/35 46/46/32 52/52/38
f 52/52/38 46/46/32 51/51/37
f 50/50/36 49/49/35 53/53/39
f 50/50/36 53/53/39 54/54/40
f 54/54/40 53/53/39 55/55/41
f 54/54/40 55/55/41 56/56/42
f 55/55/41 53/53/39 57/57/43
f 53/53/39 49/49/35 58/58/44
f 53/53/39 58/58/44 57/57/43
f 58/58/44 49/49/35 52/52/38
f 57/57/43 58/58/44 59/59/45
f 59/59/45 58/58/44 60/60/46
f 60/60/46 58/58/44 52/52/38
f 59/59/45 60/60/46 61/61/47
f 60/60/46 52/52/38 62/62/48
f 62/62/48 52/52/38 51/51/37
f 61/61/47 60/60/46 63/63/49
f 63/63/49 60/60/46 62/62/48
f 61/61/47 63/63/49 64/64/50
f 62/62/48 51/51/37 65/65/51
f 65/65/51 51/51/37 48/48/34
f 63/63/49 62/62/48 66/66/52
f 66/66/52 62/62/48 65/65/51
f 64/64/50 63/63/49 67/67/53
f 67/67/53 63/63/49 66/66/52
f 64/64/50 67/67/53 68/68/54
f 68/68/54 67/67/53 69/69/55
f 68/68/54 69/69/55 70/70/56
f 67/67/53 66/66/52 71/71/57
f 67/67/53 71/71/57 69/69/55
f 66/66/52 65/65/51 72/72/58
f 66/66/52 72/72/58 71/71/57
f 72/72/58 65/65/51 73/73/59
f 73/73/59 65/65/51 48/48/34
f 70/70/56 69/69/55 74/74/60
f 70/70/56 74/74/60 17/75/5
f 69/69/55 71/71/57 75/76/61
f 69/69/55 75/76/61 74/74/60
f 71/71/57 72/72/58 76/77/62
f 71/71/57 76/77/62 75/76/61
f 72/72/58 73/73/59 77/78/63
f 72/72/58 77/78/63 76/77/62
f 74/74/60 75/76/61 78/79/64
f 74/74/60 78/79/64 17/75/5
f 75/76/61 76/77/62 79/80/65
f 75/76/61 79/80/65 78/79/64
f 76/77/62 77/78/63 80/81/66
f 76/77/62 80/81/66 79/80/65
f 78/79/64 79/80/65 81/82/67
f 78/79/64 81/82/67 17/75/5
f 79/80/65 80/81/66 82/83/68
f 79/80/65 82/83/68 81/82/67
f 80/81/66 77/78/63 83/84/69
f 81/82/67 82/83/68 84/85/70
f 81/82/67 84/85/70 17/75/5
f 82/83/68 80/81/66 85/86/71
f 85/86/71 80/81/66 83/84/69
f 84/85/70 82/83/68 86/87/72
f 86/87/72 82/83/68 85/86/71
f 84/85/70 86/87/72 87/88/73
f 84/85/70 87/88/73 17/75/5
f 88/89/74 83/84/69 77/78/63
f 88/89/74 77/78/63 73/73/59
f 85/86/71 83/84/69 89/90/75
f 83/84/69 88/89/74 90/91/76
f 83/84/69 90/91/76 89/90/75
f 90/91/76 88/89/74 91/92/77
f 90/91/76 91/92/77 92/93/78
f 90/91/76 92/93/78 93/94/79
f 90/91/76 93/94/79 89/90/75
f 91/92/77 88/89/74 94/95/80
f 94/95/80 88/89/74 73/73/59
f 91/92/77 94/95/80 95/96/81
f 94/95/80 73/73/59 48/48/34
f 95/96/81 94/95/80 45/45/31
f 45/45/31 94/95/80 48/48/34
f 89/90/75 93/94/79 96/97/82
f 96/97/82 93/94/79 97/98/83
f 96/97/82 97/98/83 98/99/84
f 89/90/75 96/97/82 99/100/85
f 89/90/75 99/100/85 85/86/71
f 85/86/71 99/100/85 86/87/72
f 99/100/85 96/97/82 100/101/86
f 100/101/86 96/97/82 98/99/84
f 86/87/72 99/100/85 101/102/87
f 101/102/87 99/100/85 100/101/86
f 86/87/72 101/102/87 87/88/73
f 100/101/86 98/99/84 102/103/88
f 102/103/88 98/99/84 103/104/89
f 101/102/87 100/101/86 104/105/90
f 104/105/90 100/101/86 102/103/88
f 87/88/73 101/102/87 105/106/91
f 105/106/91 101/102/87 104/105/90
f 87/88/73 105/106/91 17/75/5
f 102/103/88 103/104/89 106/107/92
f 106/107/92 103/104/89 107/108/93
f 106/107/92 107/108/93 35/109/23
f 105/106/91 104/105/90 108/110/94
f 105/106/91 108/110/94 17/75/5
f 109/111/95 104/105/90 102/103/88
f 109/111/95 102/103/88 106/107/92
f 104/105/90 109/111/95 108/110/94
f 106/107/92 35/109/23 110/112/96
f 106/107/92 110/112/96 109/111/95
f 110/112/96 35/109/23 33/113/21
f 108/110/94 109/111/95 111/114/97
f 111/114/97 109/111/95 110/112/96
f 108/110/94 111/114/97 17/75/5
f 110/112/96 33/113/21 112/115/98
f 110/112/96 112/115/98 111/114/97
f 111/114/97 112/115/98 17/75/5
f 112/115/98 33/113/21 29/116/17
f 112/115/98 29/116/17 17/75/5
f 113/117/99 114/118/100 115/119/101
f 114/118/100 113/117/99 116/120/102
f 116/120/102 113/117/99 117/121/103
f 118/122/104 116/120/102 119/123/105
f 120/124/106 114/118/100 118/122/104
f 120/124/106 118/122/104 121/125/107
f 120/124/106 121/125/107 122/126/108
f 123/127/109 115/119/101 114/118/100
f 123/127/109 114/118/100 120/124/106
f 115/119/101 123/127/109 124/128/110
f 124/128/110 123/127/109 125/129/111
f 123/127/109 120/124/106 126/130/112
f 126/130/112 120/124/106 122/126/108
f 123/127/109 126/130/112 125/129/111
f 126/130/112 122/126/108 127/131/113
f 125/129/111 126/130/112 128/132/114
f 128/132/114 126/130/112 127/131/113
f 125/129/111 128/132/114 129/133/115
f 128/132/114 127/131/113 130/134/116
f 6/135/117 131/136/117 132/137/118
f 6/135/117 132/137/118 4/138/118
f 133/139/119 134/140/119 135/141/120
f 135/141/120 134/140/119 136/142/120
f 134/140/119 133/139/119 137/143/121
f 135/141/120 136/142/120 138/144/122
f 137/143/121 133/139/119 139/145/121
f 135/141/120 138/144/122 140/146/123
f 140/146/123 138/144/122 36/36/24
f 36/36/24 138/144/122 37/37/25
f 137/143/121 139/145/121 141/147/124
f 141/147/124 139/145/121 142/148/125
f 141/147/124 142/148/125 143/149/126
f 141/147/124 143/149/126 144/150/126
f 144/150/126 143/149/126 145/151/127
f 145/151/127 143/149/126 146/152/127
f 145/151/127 146/152/127 147/153/128
f 147/153/128 146/152/127 148/154/128
f 147/153/128 148/154/128 149/155/129
f 149/155/129 148/154/128 150/156/129
f 149/155/129 150/156/129 151/157/130
f 149/155/129 151/157/130 152/158/130
f 152/158/130 151/157/130 153/159/131
f 153/159/131 151/157/130 154/160/131
f 155/161/132 156/162/133 142/148/132
f 142/148/132 156/162/133 143/149/133
f 155/161/132 142/148/132 139/145/134
f 143/149/133 156/162/133 157/163/135
f 155/161/132 139/145/134 158/164/134
f 143/149/133 157/163/135 146/152/135
f 158/164/134 139/145/134 133/139/136
f 146/152/135 157/163/135 159/165/137
f 158/164/134 133/139/136 160/166/138
f 146/152/135 159/165/137 148/154/137
f 160/166/138 133/139/136 135/141/139
f 148/154/137 159/165/137 161/167/140
f 160/166/138 135/141/139 162/168/139
f 148/154/137 161/167/140 150/156/140
f 162/168/139 135/141/139 140/146/141
f 150/156/140 161/167/140 163/169/142
f 162/168/139 140/146/141 164/170/141
f 150/156/140 163/169/142 151/157/142
f 164/170/141 140/146/141 36/36/143
f 151/157/142 163/169/142 165/171/144
f 164/170/141 36/36/143 166/172/143
f 151/157/142 165/171/144 154/160/145
f 154/160/145 165/171/144 167/173/146
f 154/160/145 167/173/146 168/174/146
f 166/172/143 36/36/143 38/38/147
f 166/172/143 38/38/147 169/175/147
f 169/175/147 38/38/147 40/40/148
f 169/175/147 40/40/148 170/176/148
f 170/176/148 40/40/148 171/177/149
f 170/176/148 171/177/149 172/178/149
f 172/178/149 171/177/149 168/179/146
f 172/178/149 168/179/146 167/180/146
f 156/181/150 173/182/151 157/183/152
f 157/183/152 173/182/151 159/184/152
f 173/182/151 156/181/150 155/185/150
f 159/184/152 173/182/151 161/186/152
f 173/182/151 155/185/150 158/187/150
f 161/186/152 173/182/151 163/188/150
f 173/182/151 158/187/150 160/189/150
f 163/188/150 173/182/151 165/190/153
f 173/182/151 160/189/150 162/191/150
f 165/190/153 173/182/151 167/192/150
f 173/182/151 162/191/150 164/193/154
f 167/192/150 173/182/151 172/194/150
f 173/182/151 164/193/154 166/195/154
f 172/194/150 173/182/151 170/196/154
f 173/182/151 166/195/154 169/197/154
f 173/182/151 169/197/154 170/196/154
f 5/198/155 1/199/156 174/200/155
f 5/198/155 174/200/155 175/201/157
f 5/198/155 175/201/157 7/202/157
f 174/200/155 1/199/156 176/203/156
f 176/203/156 1/199/156 3/204/158
f 176/203/156 3/204/158 177/205/158
f 177/205/158 3/204/158 4/206/118
f 177/205/158 4/206/118 132/207/118
f 7/202/157 175/201/157 178/208/159
f 7/202/157 178/208/159 9/209/159
f 9/209/159 178/208/159 179/210/160
f 9/209/159 179/210/160 11/211/160
f 11/211/160 179/210/160 180/212/161
f 11/211/160 180/212/161 13/213/161
f 13/213/161 180/212/161 181/214/162
f 13/213/161 181/214/162 12/215/162
f 12/215/162 181/214/162 182/216/163
f 12/215/162 182/216/163 10/217/163
f 10/217/163 182/216/163 183/218/164
f 10/217/163 183/218/164 8/219/164
f 8/219/164 183/218/164 131/136/117
f 8/219/164 131/136/117 6/135/117
f 184/220/165 185/221/166 47/47/33
f 47/47/33 185/221/166 44/44/30
f 184/220/165 47/47/33 50/50/36
f 44/44/30 185/221/166 186/222/167
f 44/44/30 186/222/167 42/42/28
f 185/221/166 184/220/165 187/223/168
f 185/221/166 187/223/168 186/222/167
f 184/220/165 50/50/36 188/224/169
f 184/220/165 188/224/169 187/223/168
f 188/224/169 50/50/36 54/54/40
f 188/224/169 54/54/40 189/225/170
f 188/224/169 189/225/170 187/223/168
f 189/225/170 54/54/40 56/56/42
f 189/225/170 56/56/42 190/226/171
f 189/225/170 190/226/171 187/223/168
f 191/227/172 42/42/28 186/222/167
f 191/227/172 186/222/167 187/223/168
f 42/42/28 191/227/172 192/228/173
f 42/42/28 192/228/173 45/45/31
f 45/45/31 192/228/173 95/96/81
f 192/228/173 191/227/172 193/229/174
f 193/229/174 191/227/172 187/223/168
f 95/96/81 192/228/173 194/230/175
f 194/230/175 192/228/173 193/229/174
f 95/96/81 194/230/175 195/231/176
f 95/96/81 195/231/176 91/92/77
f 91/92/77 195/231/176 92/93/78
f 193/229/174 187/223/168 196/232/177
f 193/229/174 196/232/177 194/230/175
f 196/232/177 187/223/168 197/233/178
f 197/233/178 187/223/168 198/234/179
f 194/230/175 196/232/177 199/235/180
f 199/235/180 196/232/177 197/233/178
f 194/230/175 199/235/180 195/231/176
f 197/233/178 198/234/179 200/236/181
f 197/233/178 200/236/181 199/235/180
f 200/236/181 198/234/179 201/237/182
f 195/231/176 199/235/180 202/238/183
f 202/238/183 199/235/180 200/236/181
f 195/231/176 202/238/183 92/93/78
f 200/236/181 201/237/182 203/239/184
f 200/236/181 203/239/184 202/238/183
f 203/239/184 201/237/182 204/240/185
f 92/93/78 202/238/183 205/241/186
f 205/241/186 202/238/183 203/239/184
f 92/93/78 205/241/186 93/94/79
f 93/94/79 205/241/186 97/98/83
f 205/241/186 203/239/184 206/242/187
f 206/242/187 203/239/184 204/240/185
f 205/241/186 206/242/187 97/98/83
f 206/242/187 204/240/185 207/243/188
f 97/98/83 206/242/187 208/244/189
f 208/244/189 206/242/187 207/243/188
f 97/98/83 208/244/189 98/99/84
f 208/244/189 207/243/188 209/245/190
f 98/99/84 208/244/189 103/104/89
f 103/104/89 208/244/189 209/245/190
f 103/104/89 209/245/190 107/108/93
f 177/246/191 210/247/191 176/248/191
f 176/248/191 210/247/191 174/249/191
f 210/247/191 177/246/191 132/250/191
f 174/249/191 210/247/191 175/251/191
f 210/247/191 132/250/191 131/252/191
f 175/251/191 210/247/191 178/253/191
f 210/247/191 131/252/191 183/254/191
f 178/253/191 210/247/191 179/255/191
f 210/247/191 183/254/191 182/256/191
f 179/255/191 210/247/191 180/257/191
f 210/247/191 182/256/191 181/258/191
f 210/247/191 181/258/191 180/257/191
f 41/41/192 211/259/193 40/40/192
f 40/40/192 211/259/193 171/177/193
f 171/177/193 211/259/193 168/179/194
f 168/179/194 211/259/193 212/260/194
f 124/128/110 125/129/111 213/261/195
f 213/261/195 125/129/111 129/133/115
f 213/261/195 129/133/115 214/262/196
f 214/262/196 129/133/115 215/263/197
f 214/262/196 215/263/197 216/264/198
f 215/263/197 129/133/115 217/265/199
f 217/265/199 129/133/115 128/132/114
f 217/265/199 128/132/114 130/134/116
f 217/265/199 130/134/116 218/266/200
f 217/265/199 218/266/200 219/267/201
f 217/265/199 219/267/201 215/263/197
f 219/267/201 218/266/200 220/268/202
f 221/269/203 216/264/198 215/263/197
f 221/269/203 215/263/197 219/267/201
f 216/264/198 221/269/203 222/270/204
f 219/267/201 220/268/202 223/271/205
f 219/267/201 223/271/205 221/269/203
f 223/271/205 220/268/202 224/272/206
f 222/270/204 221/269/203 225/273/207
f 225/273/207 221/269/203 223/271/205
f 222/270/204 225/273/207 226/274/208
f 223/271/205 224/272/206 227/275/209
f 223/271/205 227/275/209 225/273/207
f 227/275/209 224/272/206 228/276/210
f 227/275/209 228/276/210 119/277/105
f 119/277/105 228/276/210 229/278/211
f 225/273/207 227/275/209 230/279/212
f 230/279/212 227/275/209 119/277/105
f 225/273/207 230/279/212 226/274/208
f 230/279/212 119/277/105 116/280/102
f 226/274/208 230/279/212 117/281/103
f 117/281/103 230/279/212 116/280/102
f 57/282/43 231/283/213 55/284/41
f 55/284/41 231/283/213 232/285/214
f 55/284/41 232/285/214 56/286/42
f 56/286/42 232/285/214 233/287/215
f 232/285/214 231/283/213 234/288/216
f 232/285/214 234/288/216 235/289/217
f 231/283/213 57/282/43 236/290/218
f 236/290/218 57/282/43 59/291/45
f 234/288/216 231/283/213 237/292/219
f 237/292/219 231/283/213 236/290/218
f 235/289/217 234/288/216 238/293/220
f 235/289/217 238/293/220 239/294/221
f 234/288/216 237/292/219 240/295/222
f 234/288/216 240/295/222 238/293/220
f 236/290/218 59/291/45 241/296/223
f 241/296/223 59/291/45 61/297/47
f 237/292/219 236/290/218 242/298/224
f 242/298/224 236/290/218 241/296/223
f 240/295/222 237/292/219 243/299/225
f 243/299/225 237/292/219 242/298/224
f 238/293/220 240/295/222 244/300/226
f 238/293/220 244/300/226 245/301/227
f 240/295/222 243/299/225 246/302/228
f 240/295/222 246/302/228 244/300/226
f 243/299/225 242/298/224 247/303/229
f 244/300/226 246/302/228 248/304/230
f 244/300/226 248/304/230 249/305/231
f 246/302/228 243/299/225 19/19/7
f 19/19/7 243/299/225 247/303/229
f 248/304/230 246/302/228 20/20/8
f 20/20/8 246/302/228 19/19/7
f 248/304/230 20/20/8 23/23/11
f 248/304/230 23/23/11 250/306/232
f 251/307/233 247/303/229 242/298/224
f 251/307/233 242/298/224 241/296/223
f 19/19/7 247/303/229 15/15/3
f 247/303/229 251/307/233 252/308/234
f 247/303/229 252/308/234 15/15/3
f 251/307/233 241/296/223 253/309/235
f 253/309/235 241/296/223 61/297/47
f 253/309/235 61/297/47 64/310/50
f 251/307/233 253/309/235 254/311/236
f 251/307/233 254/311/236 252/308/234
f 253/309/235 64/310/50 255/312/237
f 253/309/235 255/312/237 254/311/236
f 255/312/237 64/310/50 68/313/54
f 255/312/237 68/313/54 256/314/238
f 256/314/238 68/313/54 70/315/56
f 254/311/236 255/312/237 257/316/239
f 257/316/239 255/312/237 256/314/238
f 256/314/238 70/315/56 17/17/5
f 256/314/238 17/17/5 257/316/239
f 254/311/236 257/316/239 258/317/240
f 254/311/236 258/317/240 252/308/234
f 258/317/240 257/316/239 17/17/5
f 252/308/234 258/317/240 16/16/4
f 16/16/4 258/317/240 17/17/5
f 252/308/234 16/16/4 15/15/3
f 56/286/42 233/287/215 190/318/171
f 190/318/171 233/287/215 259/319/241
f 190/318/171 259/319/241 187/320/168
f 232/285/214 235/289/217 233/287/215
f 233/287/215 235/289/217 260/321/242
f 233/287/215 260/321/242 259/319/241
f 260/321/242 235/289/217 239/294/221
f 259/319/241 260/321/242 261/322/243
f 259/319/241 261/322/243 187/320/168
f 260/321/242 239/294/221 262/323/244
f 260/321/242 262/323/244 261/322/243
f 261/322/243 262/323/244 263/324/245
f 261/322/243 263/324/245 187/320/168
f 262/323/244 239/294/221 264/325/246
f 263/324/245 262/323/244 265/326/247
f 265/326/247 262/323/244 264/325/246
f 264/325/246 239/294/221 245/301/227
f 245/301/227 239/294/221 238/293/220
f 263/324/245 265/326/247 266/327/248
f 263/324/245 266/327/248 187/320/168
f 265/326/247 264/325/246 267/328/249
f 264/325/246 245/301/227 268/329/250
f 264/325/246 268/329/250 267/328/249
f 268/329/250 245/301/227 249/305/231
f 249/305/231 245/301/227 244/300/226
f 266/327/248 265/326/247 269/330/251
f 269/330/251 265/326/247 267/328/249
f 266/327/248 269/330/251 270/331/252
f 266/327/248 270/331/252 187/320/168
f 269/330/251 267/328/249 271/332/253
f 270/331/252 269/330/251 272/333/254
f 272/333/254 269/330/251 271/332/253
f 270/331/252 272/333/254 273/334/255
f 270/331/252 273/334/255 187/320/168
f 271/332/253 267/328/249 274/335/256
f 274/335/256 267/328/249 268/329/250
f 272/333/254 271/332/253 275/336/257
f 273/334/255 272/333/254 276/337/258
f 276/337/258 272/333/254 275/336/257
f 187/320/168 273/334/255 277/338/259
f 277/338/259 273/334/255 276/337/258
f 275/336/257 271/332/253 278/339/260
f 278/339/260 271/332/253 274/335/256
f 276/337/258 275/336/257 279/340/261
f 277/338/259 276/337/258 280/341/262
f 280/341/262 276/337/258 279/340/261
f 187/320/168 277/338/259 281/342/263
f 281/342/263 277/338/259 280/341/262
f 187/320/168 281/342/263 282/343/264
f 187/320/168 282/343/264 198/344/179
f 198/344/179 282/343/264 201/345/182
f 282/343/264 281/342/263 283/346/265
f 282/343/264 283/346/265 201/345/182
f 283/346/265 281/342/263 280/341/262
f 201/345/182 283/346/265 204/347/185
f 283/346/265 280/341/262 284/348/266
f 283/346/265 284/348/266 204/347/185
f 284/348/266 280/341/262 279/340/261
f 204/347/185 284/348/266 207/349/188
f 207/349/188 284/348/266 285/350/267
f 285/350/267 284/348/266 279/340/261
f 207/349/188 285/350/267 209/351/190
f 285/350/267 279/340/261 286/352/268
f 286/352/268 279/340/261 275/336/257
f 209/351/190 285/350/267 287/353/269
f 287/353/269 285/350/267 286/352/268
f 286/352/268 275/336/257 278/339/260
f 209/351/190 287/353/269 107/354/93
f 286/352/268 278/339/260 288/355/270
f 286/352/268 288/355/270 287/353/269
f 107/354/93 287/353/269 289/356/271
f 289/356/271 287/353/269 288/355/270
f 107/354/93 289/356/271 35/35/23
f 35/35/23 289/356/271 34/34/22
f 34/34/22 289/356/271 290/357/272
f 290/357/272 289/356/271 288/355/270
f 34/34/22 290/357/272 31/31/19
f 291/358/273 288/355/270 278/339/260
f 288/355/270 291/358/273 290/357/272
f 291/358/273 278/339/260 274/335/256
f 31/31/19 290/357/272 292/359/274
f 292/359/274 290/357/272 291/358/273
f 31/31/19 292/359/274 26/26/14
f 291/358/273 274/335/256 293/360/275
f 291/358/273 293/360/275 292/359/274
f 293/360/275 274/335/256 268/329/250
f 293/360/275 268/329/250 249/305/231
f 292/359/274 293/360/275 250/306/232
f 292/359/274 250/306/232 26/26/14
f 250/306/232 293/360/275 249/305/231
f 26/26/14 250/306/232 23/23/11
f 250/306/232 249/305/231 248/304/230
f 114/118/100 116/120/102 118/122/104
f 229/361/211 118/122/104 119/123/105
f 118/122/104 229/361/211 121/125/107
f 153/159/131 154/160/131 212/362/276
f 212/362/276 154/160/131 168/174/276
