# CS2 body_hd, tools/cs2_glb_to_obj.py
v -0.27709 0.01676 -0.04952
v -0.27709 0.00957 -0.04952
v -0.28198 0.01676 -0.04733
v -0.27643 0.01473 -0.04959
v -0.27643 0.01161 -0.04959
v -0.28198 0.00957 -0.04733
v -0.28366 0.01676 -0.04623
v -0.28366 0.00957 -0.04623
v -0.28511 0.00957 -0.04499
v -0.28511 0.01676 -0.04499
v -0.28637 0.01676 -0.04375
v -0.28637 0.00957 -0.04375
v -0.28767 0.00957 -0.04222
v -0.28767 0.01676 -0.04222
v -0.28869 0.01676 -0.04066
v -0.28869 0.00957 -0.04066
v -0.28956 0.00957 -0.0391
v -0.28956 0.01676 -0.0391
v -0.29022 0.01676 -0.03743
v -0.29022 0.00957 -0.03743
v -0.29072 0.00957 -0.03576
v -0.29072 0.01676 -0.03576
v -0.29099 0.01676 -0.03403
v -0.29099 0.00957 -0.03403
v -0.29111 0.00957 -0.0323
v -0.29111 0.01676 -0.0323
v -0.29109 0.01676 -0.03057
v -0.29109 0.00957 -0.03057
v -0.29091 0.00957 -0.02884
v -0.29091 0.01676 -0.02884
v -0.29055 0.01676 -0.02717
v -0.29055 0.00957 -0.02717
v -0.29004 0.00957 -0.02549
v -0.29004 0.01676 -0.02549
v -0.28904 0.00957 -0.02272
v -0.28904 0.01676 -0.02272
v -0.28904 0.00957 -0.0175
v -0.28904 0.01676 -0.0175
v -0.28307 0.01676 -0.0175
v -0.28307 0.01676 -0.02192
v -0.28448 0.01676 -0.02341
v -0.28307 0.01473 -0.02272
v -0.28412 0.01473 -0.02419
v -0.28602 0.01676 -0.02606
v -0.2853 0.01473 -0.02631
v -0.28699 0.01676 -0.02912
v -0.28623 0.01473 -0.02925
v -0.28731 0.01676 -0.0323
v -0.28654 0.01473 -0.0323
v -0.28623 0.01473 -0.03535
v -0.28699 0.01676 -0.03548
v -0.2853 0.01473 -0.03829
v -0.28602 0.01676 -0.03854
v -0.28378 0.01473 -0.04103
v -0.28444 0.01676 -0.0414
v -0.28173 0.01473 -0.04347
v -0.28231 0.01676 -0.04394
v -0.27969 0.01676 -0.04609
v -0.27934 0.01473 -0.04567
v -0.27803 0.01676 -0.04707
v -0.27784 0.01473 -0.04666
v -0.27687 0.01676 -0.04726
v -0.27637 0.01676 -0.04777
v -0.27634 0.01676 -0.04842
v -0.27575 0.01473 -0.04775
v -0.27637 0.01473 -0.04705
v -0.27558 0.01473 -0.04863
v -0.28602 0.00957 -0.02606
v -0.28448 0.00957 -0.02341
v -0.28307 0.00957 -0.02192
v -0.28307 0.00957 -0.0175
v -0.28699 0.00957 -0.02912
v -0.28307 0.01161 -0.02272
v -0.28412 0.01161 -0.02419
v -0.2853 0.01161 -0.02631
v -0.28623 0.01161 -0.02925
v -0.28731 0.00957 -0.0323
v -0.28654 0.01161 -0.0323
v -0.28623 0.01161 -0.03535
v -0.28699 0.00957 -0.03548
v -0.28602 0.00957 -0.03854
v -0.2853 0.01161 -0.03829
v -0.28378 0.01161 -0.04103
v -0.28444 0.00957 -0.0414
v -0.28173 0.01161 -0.04347
v -0.28231 0.00957 -0.04394
v -0.27969 0.00957 -0.04609
v -0.27934 0.01161 -0.04567
v -0.27803 0.00957 -0.04707
v -0.27784 0.01161 -0.04666
v -0.27687 0.00957 -0.04726
v -0.27637 0.00957 -0.04777
v -0.27634 0.00957 -0.04842
v -0.27637 0.01161 -0.04705
v -0.27575 0.01161 -0.04775
v -0.27558 0.01161 -0.04863
vt 0.518052 0.783197
vt 0.527329 0.783197
vt 0.518052 0.77636
vt 0.520493 0.784173
vt 0.524888 0.784173
vt 0.527329 0.77636
vt 0.518052 0.773919
vt 0.527329 0.773919
vt 0.527329 0.771477
vt 0.518052 0.771477
vt 0.518052 0.769036
vt 0.527329 0.769036
vt 0.527329 0.766594
vt 0.518052 0.766594
vt 0.518052 0.764153
vt 0.527329 0.764153
vt 0.527329 0.761711
vt 0.518052 0.761711
vt 0.518052 0.759758
vt 0.527329 0.759758
vt 0.527329 0.757317
vt 0.518052 0.757317
vt 0.518052 0.755364
vt 0.527329 0.755364
vt 0.527329 0.752922
vt 0.518052 0.752922
vt 0.518052 0.750969
vt 0.527329 0.750969
vt 0.527329 0.748527
vt 0.518052 0.748527
vt 0.518052 0.746574
vt 0.527329 0.746574
vt 0.527329 0.744133
vt 0.518052 0.744133
vt 0.527329 0.740226
vt 0.518052 0.740226
vt 0.527329 0.733879
vt 0.518052 0.733879
vt 0.978027 0.102939
vt 0.97705 0.108432
vt 0.985839 0.105197
vt 0.983886 0.111881
vt 0.977538 0.110813
vt 0.974609 0.109409
vt 0.975097 0.111637
vt 0.978027 0.114658
vt 0.983398 0.115726
vt 0.975097 0.11478
vt 0.98291 0.11774
vt 0.978027 0.11887
vt 0.98291 0.119572
vt 0.975097 0.11887
vt 0.98291 0.121342
vt 0.977538 0.12302
vt 0.975097 0.12302
vt 0.98291 0.123081
vt 0.975097 0.127171
vt 0.982421 0.124851
vt 0.977538 0.127171
vt 0.982421 0.12656
vt 0.975097 0.131291
vt 0.982421 0.128269
vt 0.977538 0.131291
vt 0.982421 0.13007
vt 0.975097 0.135594
vt 0.981933 0.131932
vt 0.978027 0.135441
vt 0.981933 0.133976
vt 0.975097 0.139866
vt 0.981445 0.136204
vt 0.978027 0.139866
vt 0.981445 0.138157
vt 0.981445 0.140355
vt 0.978027 0.144261
vt 0.975097 0.144139
vt 0.980956 0.142796
vt 0.978027 0.146702
vt 0.975097 0.146336
vt 0.97998 0.149602
vt 0.977538 0.148167
vt 0.977538 0.149113
vt 0.978027 0.150121
vt 0.975097 0.14948
vt 0.975097 0.148412
vt 0.975097 0.1507
vt 0.978515 0.152318
vt 0.975585 0.152776
vt 0.961913 0.111881
vt 0.967772 0.114658
vt 0.967772 0.110813
vt 0.962401 0.115726
vt 0.962401 0.11774
vt 0.968261 0.108432
vt 0.95996 0.105197
vt 0.967772 0.102939
vt 0.967772 0.11887
vt 0.962889 0.119572
vt 0.962889 0.121342
vt 0.970702 0.109409
vt 0.970702 0.111637
vt 0.970702 0.114841
vt 0.970702 0.11887
vt 0.967772 0.123081
vt 0.970702 0.12302
vt 0.962889 0.123142
vt 0.962889 0.124851
vt 0.970702 0.127171
vt 0.967772 0.127171
vt 0.963378 0.12656
vt 0.963378 0.128391
vt 0.967772 0.131291
vt 0.963378 0.130222
vt 0.970702 0.131413
vt 0.963866 0.132176
vt 0.970702 0.135594
vt 0.967772 0.135594
vt 0.963866 0.134129
vt 0.964354 0.136448
vt 0.970702 0.139866
vt 0.967772 0.139988
vt 0.964354 0.138401
vt 0.964354 0.140599
vt 0.967772 0.144383
vt 0.964843 0.14301
vt 0.970702 0.144139
vt 0.968261 0.146794
vt 0.966308 0.149876
vt 0.971191 0.146458
vt 0.968749 0.148289
vt 0.968749 0.149236
vt 0.968261 0.150365
vt 0.971191 0.148412
vt 0.971191 0.14948
vt 0.971191 0.1507
vt 0.967772 0.15244
vt 0.970702 0.152898
vn -0.3466 0 -0.938
vn -0.474 0 -0.8805
vn -0.1054 0 -0.9944
vn -0.5746 0 -0.8184
vn -0.6739 0 -0.7388
vn -0.7188 0 -0.6953
vn -0.7993 0 -0.6009
vn -0.8523 0 -0.523
vn -0.8944 0 -0.4472
vn -0.9375 0 -0.3481
vn -0.9734 0 -0.2292
vn -0.9924 0 -0.1232
vn -0.9994 0 -0.0333
vn -0.9988 0.001 0.0481
vn -0.9897 0.0011 0.143
vn -0.974 0.0012 0.2267
vn -0.9546 0.0012 0.2978
vn -0.9866 0.0011 0.1631
vn -1 0 -0.001
vn 0.5052 0.8628 0.0176
vn 0.4491 0.8869 -0.1087
vn 0 1 -0.001
vn 0.2888 0.9337 -0.2117
vn 0.9332 0.0856 -0.349
vn 0.8378 0.1445 -0.5266
vn 0.2341 0.967 -0.1005
vn 0.9052 0.1628 -0.3926
vn 0.2451 0.968 -0.0532
vn 0.9671 0.1685 -0.1906
vn 0.2861 0.9582 0.0012
vn 0.9864 0.1644 -0.0011
vn 0.9619 0.1697 0.2145
vn 0.2347 0.9698 0.0658
vn 0.8912 0.1632 0.4232
vn 0.2208 0.9702 0.0997
vn 0.8069 0.1704 0.5656
vn 0.1955 0.9673 0.1619
vn 0.6873 0.1465 0.7115
vn 0.1341 0.9805 0.1439
vn 0.1774 0.9495 0.2587
vn 0.5713 0.119 0.8121
vn 0.1046 0.9471 0.3033
vn 0.3753 0.0881 0.9227
vn 0.1113 0.9902 -0.0846
vn 0.2241 0.8647 0.4496
vn 0.4764 0.844 0.2466
vn 0.618 0.7671 -0.172
vn 0.8854 0.1392 0.4434
vn 0.5085 0.0926 0.8561
vn 0.9534 0.1522 -0.2604
vn 0.4321 0.8391 -0.3303
vn 0.7591 0.1476 -0.6341
vn 0 -1 -0.001
vn 0.2315 -0.9689 -0.0868
vn 0.2847 -0.9397 -0.1893
vn 0.4431 -0.8919 -0.0906
vn 0.3827 -0.9238 0.0116
vn 0.2395 -0.9701 -0.0403
vn 0.9386 -0.1103 -0.3268
vn 0.8449 -0.1696 -0.5073
vn 0.9095 -0.1865 -0.3715
vn 0.9671 -0.1893 -0.1698
vn 0.28 -0.9599 0.011
vn 0.9831 -0.1818 0.0197
vn 0.9623 -0.1935 0.1909
vn 0.2315 -0.9715 0.0502
vn 0.2159 -0.9724 0.0886
vn 0.8961 -0.1874 0.4023
vn 0.8142 -0.1963 0.5464
vn 0.1935 -0.97 0.1474
vn 0.6964 -0.173 0.6964
vn 0.1327 -0.9826 0.1303
vn 0.1758 -0.954 0.2429
vn 0.5805 -0.1447 0.8013
vn 0.1036 -0.9531 0.2845
vn 0.1106 -0.9909 -0.0772
vn 0.3821 -0.1117 0.9173
vn 0.2223 -0.8759 0.4282
vn 0.4702 -0.8541 0.2222
vn 0.6089 -0.7798 -0.1455
vn 0.5173 -0.1174 0.8477
vn 0.8912 -0.1632 0.4232
vn 0.9552 -0.1739 -0.2395
vn 0.4264 -0.8529 -0.3013
vn 0.7677 -0.1736 -0.6169
o trigger
f 1/1/1 2/2/1 3/3/2
f 2/2/1 1/1/1 4/4/3
f 2/2/1 4/4/3 5/5/3
f 3/3/2 2/2/1 6/6/2
f 3/3/2 6/6/2 7/7/4
f 7/7/4 6/6/2 8/8/4
f 7/7/4 8/8/4 9/9/5
f 7/7/4 9/9/5 10/10/5
f 10/10/5 9/9/5 11/11/6
f 11/11/6 9/9/5 12/12/6
f 11/11/6 12/12/6 13/13/7
f 11/11/6 13/13/7 14/14/7
f 14/14/7 13/13/7 15/15/8
f 15/15/8 13/13/7 16/16/8
f 15/15/8 16/16/8 17/17/9
f 15/15/8 17/17/9 18/18/9
f 18/18/9 17/17/9 19/19/10
f 19/19/10 17/17/9 20/20/10
f 19/19/10 20/20/10 21/21/11
f 19/19/10 21/21/11 22/22/11
f 22/22/11 21/21/11 23/23/12
f 23/23/12 21/21/11 24/24/12
f 23/23/12 24/24/12 25/25/13
f 23/23/12 25/25/13 26/26/13
f 26/26/13 25/25/13 27/27/14
f 27/27/14 25/25/13 28/28/14
f 27/27/14 28/28/14 29/29/15
f 27/27/14 29/29/15 30/30/15
f 30/30/15 29/29/15 31/31/16
f 31/31/16 29/29/15 32/32/16
f 31/31/16 32/32/16 33/33/17
f 31/31/16 33/33/17 34/34/17
f 34/34/17 33/33/17 35/35/18
f 34/34/17 35/35/18 36/36/18
f 36/36/18 35/35/18 37/37/19
f 36/36/18 37/37/19 38/38/19
f 39/39/20 40/40/21 38/41/22
f 38/41/22 40/40/21 36/42/22
f 36/42/22 40/40/21 41/43/23
f 41/43/23 40/40/21 42/44/24
f 41/43/23 42/44/24 43/45/25
f 36/42/22 41/43/23 44/46/26
f 44/46/26 41/43/23 43/45/25
f 36/42/22 44/46/26 34/47/22
f 44/46/26 43/45/25 45/48/27
f 34/47/22 44/46/26 31/49/22
f 44/46/26 45/48/27 46/50/28
f 44/46/26 46/50/28 31/49/22
f 31/49/22 46/50/28 30/51/22
f 46/50/28 45/48/27 47/52/29
f 30/51/22 46/50/28 27/53/22
f 46/50/28 47/52/29 48/54/30
f 46/50/28 48/54/30 27/53/22
f 48/54/30 47/52/29 49/55/31
f 27/53/22 48/54/30 26/56/22
f 48/54/30 49/55/31 50/57/32
f 26/56/22 48/54/30 23/58/22
f 48/54/30 50/57/32 51/59/33
f 48/54/30 51/59/33 23/58/22
f 23/58/22 51/59/33 22/60/22
f 51/59/33 50/57/32 52/61/34
f 22/60/22 51/59/33 19/62/22
f 51/59/33 52/61/34 53/63/35
f 51/59/33 53/63/35 19/62/22
f 19/62/22 53/63/35 18/64/22
f 53/63/35 52/61/34 54/65/36
f 18/64/22 53/63/35 15/66/22
f 53/63/35 54/65/36 55/67/37
f 53/63/35 55/67/37 15/66/22
f 15/66/22 55/67/37 14/68/22
f 55/67/37 54/65/36 56/69/38
f 14/68/22 55/67/37 11/70/22
f 11/70/22 55/67/37 57/71/39
f 57/71/39 55/67/37 56/69/38
f 11/70/22 57/71/39 10/72/22
f 10/72/22 57/71/39 7/73/22
f 57/71/39 56/69/38 58/74/40
f 57/71/39 58/74/40 7/73/22
f 58/74/40 56/69/38 59/75/41
f 7/73/22 58/74/40 3/76/22
f 58/74/40 59/75/41 60/77/42
f 58/74/40 60/77/42 3/76/22
f 60/77/42 59/75/41 61/78/43
f 3/76/22 60/77/42 1/79/44
f 60/77/42 61/78/43 62/80/45
f 60/77/42 62/80/45 1/79/44
f 1/79/44 62/80/45 63/81/46
f 1/79/44 63/81/46 64/82/47
f 63/81/46 62/80/45 65/83/48
f 63/81/46 65/83/48 64/82/47
f 65/83/48 62/80/45 66/84/49
f 64/82/47 65/83/48 67/85/50
f 64/82/47 67/85/50 1/86/51
f 1/86/51 67/85/50 4/87/52
f 35/88/53 68/89/54 69/90/55
f 68/89/54 35/88/53 33/91/53
f 68/89/54 33/91/53 32/92/53
f 35/88/53 69/90/55 70/93/56
f 35/88/53 70/93/56 37/94/53
f 37/94/53 70/93/56 71/95/57
f 71/95/57 70/93/56 39/39/20
f 39/39/20 70/93/56 40/40/21
f 68/89/54 32/92/53 72/96/58
f 72/96/58 32/92/53 29/97/53
f 72/96/58 29/97/53 28/98/53
f 40/40/21 70/93/56 73/99/59
f 73/99/59 70/93/56 69/90/55
f 40/40/21 73/99/59 42/44/24
f 42/44/24 73/99/59 43/45/25
f 73/99/59 69/90/55 74/100/60
f 73/99/59 74/100/60 43/45/25
f 74/100/60 69/90/55 68/89/54
f 43/45/25 74/100/60 45/48/27
f 74/100/60 68/89/54 75/101/61
f 74/100/60 75/101/61 45/48/27
f 75/101/61 68/89/54 72/96/58
f 45/48/27 75/101/61 47/52/29
f 47/52/29 75/101/61 76/102/62
f 76/102/62 75/101/61 72/96/58
f 47/52/29 76/102/62 49/55/31
f 76/102/62 72/96/58 77/103/63
f 77/103/63 72/96/58 28/98/53
f 49/55/31 76/102/62 78/104/64
f 78/104/64 76/102/62 77/103/63
f 49/55/31 78/104/64 50/57/32
f 77/103/63 28/98/53 25/105/53
f 77/103/63 25/105/53 24/106/53
f 50/57/32 78/104/64 79/107/65
f 79/107/65 78/104/64 77/103/63
f 50/57/32 79/107/65 52/61/34
f 77/103/63 24/106/53 80/108/66
f 77/103/63 80/108/66 79/107/65
f 80/108/66 24/106/53 21/109/53
f 80/108/66 21/109/53 20/110/53
f 80/108/66 20/110/53 81/111/67
f 81/111/67 20/110/53 17/112/53
f 79/107/65 80/108/66 82/113/68
f 79/107/65 82/113/68 52/61/34
f 82/113/68 80/108/66 81/111/67
f 81/111/67 17/112/53 16/114/53
f 52/61/34 82/113/68 83/115/69
f 83/115/69 82/113/68 81/111/67
f 52/61/34 83/115/69 54/65/36
f 81/111/67 16/114/53 84/116/70
f 81/111/67 84/116/70 83/115/69
f 84/116/70 16/114/53 13/117/53
f 84/116/70 13/117/53 12/118/53
f 54/65/36 83/115/69 85/119/71
f 85/119/71 83/115/69 84/116/70
f 54/65/36 85/119/71 56/69/38
f 84/116/70 12/118/53 86/120/72
f 84/116/70 86/120/72 85/119/71
f 86/120/72 12/118/53 9/121/53
f 56/69/38 85/119/71 59/75/41
f 86/120/72 9/121/53 8/122/53
f 86/120/72 8/122/53 87/123/73
f 86/120/72 87/123/73 85/119/71
f 87/123/73 8/122/53 6/124/53
f 59/75/41 85/119/71 88/125/74
f 88/125/74 85/119/71 87/123/73
f 87/123/73 6/124/53 89/126/75
f 87/123/73 89/126/75 88/125/74
f 89/126/75 6/124/53 2/127/76
f 59/75/41 88/125/74 90/128/77
f 90/128/77 88/125/74 89/126/75
f 59/75/41 90/128/77 61/78/43
f 89/126/75 2/127/76 91/129/78
f 89/126/75 91/129/78 90/128/77
f 91/129/78 2/127/76 92/130/79
f 92/130/79 2/127/76 93/131/80
f 90/128/77 91/129/78 94/132/81
f 90/128/77 94/132/81 61/78/43
f 91/129/78 92/130/79 95/133/82
f 95/133/82 92/130/79 93/131/80
f 91/129/78 95/133/82 94/132/81
f 61/78/43 94/132/81 66/84/49
f 61/78/43 66/84/49 62/80/45
f 66/84/49 94/132/81 65/83/48
f 65/83/48 94/132/81 95/133/82
f 95/133/82 93/131/80 96/134/83
f 95/133/82 96/134/83 65/83/48
f 96/134/83 93/131/80 2/135/84
f 65/83/48 96/134/83 67/85/50
f 96/134/83 2/135/84 5/136/85
f 67/85/50 96/134/83 4/87/52
f 4/87/52 96/134/83 5/136/85
