# vertices shared and precision trimmed by tools/optimize_obj.py
v -0.22946 0.02175 0.01573
v -0.2297 0.02173 0.01287
v -0.22933 0.00211 0.01578
v -0.22957 0.00211 0.01291
v -0.22904 0.00015 0.0129
v -0.22878 0.00011 0.01576
v -0.22759 -0.00142 0.01284
v -0.22728 -0.00146 0.0157
v -0.22527 0.0028 -0.069
v -0.22844 0.00227 0.01274
v -0.22527 0.02211 -0.069
v -0.22857 0.02159 0.0127
v -0.22777 0.02529 0.01278
v -0.22894 0.02376 0.0157
v -0.22746 0.02535 0.01564
v -0.2292 0.0237 0.01284
v -0.20373 -0.00103 -0.06733
v -0.20373 -0.0003 -0.06733
v -0.20349 -0.0003 -0.06864
v -0.20371 -0.0014 -0.06745
v -0.20349 -0.00152 -0.06864
v -0.20365 -0.00152 -0.06781
v -0.20365 0.02642 -0.06781
v -0.20349 0.02642 -0.06864
v -0.20371 0.0263 -0.06745
v -0.20349 0.0252 -0.06864
v -0.20373 0.02594 -0.06733
v -0.20373 0.0252 -0.06733
v -0.20825 0.02556 0.01302
v -0.20824 0.02483 0.01302
v -0.20812 0.02483 0.01435
v -0.20824 0.02592 0.01314
v -0.20813 0.02605 0.01435
v -0.20821 0.02605 0.01351
v -0.20802 -0.0019 0.01357
v -0.20794 -0.00189 0.01441
v -0.20806 -0.00177 0.01321
v -0.20795 -0.00068 0.01441
v -0.20807 -0.00141 0.01309
v -0.20807 -0.00068 0.01308
v -0.20742 0.00191 0.02109
v -0.20742 0.00298 0.02068
v -0.20742 0.00051 0.02063
v -0.20743 0.00158 0.02021
v -0.20743 -0.00077 0.01974
v -0.20744 0.00031 0.01933
v -0.20744 -0.00127 0.01844
v -0.20745 -0.0002 0.01803
v -0.20756 -0.00131 0.01566
v -0.20756 -0.00024 0.01566
v -0.20756 0.02465 0.01566
v -0.20745 0.02461 0.01803
v -0.20756 0.02572 0.01566
v -0.20744 0.02568 0.01844
v -0.20744 0.0241 0.01933
v -0.20743 0.02518 0.01974
v -0.20743 0.02283 0.02021
v -0.20742 0.0239 0.02063
v -0.20742 0.02143 0.02068
v -0.20742 0.0225 0.02109
v -0.17245 -0.00152 -0.06741
v -0.15003 0.00264 -0.06558
v -0.15057 0.00063 -0.06561
v -0.15003 0.02227 -0.06558
v -0.15205 -0.00095 -0.06567
v -0.15057 0.02427 -0.06561
v -0.15391 -0.00151 -0.06577
v -0.15527 -0.00152 -0.06587
v -0.15205 0.02586 -0.06567
v -0.15391 0.02641 -0.06577
v -0.17245 0.02642 -0.06741
v -0.188 0.02642 -0.06879
v -0.188 -0.00152 -0.06879
v -0.20323 -0.00152 -0.07005
v -0.20323 0.02642 -0.07005
v -0.22203 0.02641 -0.07162
v -0.22389 0.02586 -0.07184
v -0.22537 0.02427 -0.07203
v -0.2259 0.02227 -0.0721
v -0.2259 0.00264 -0.0721
v -0.22537 0.00063 -0.07203
v -0.22389 -0.00095 -0.07184
v -0.22203 -0.00151 -0.07162
v -0.22068 -0.00152 -0.07149
v -0.15813 0.02637 0.01265
v -0.15814 0.02515 0.01265
v -0.15835 0.02637 0.0141
v -0.15834 0.02515 0.0141
v -0.15817 -0.00035 0.01416
v -0.15797 -0.00036 0.01271
v -0.15816 -0.00157 0.01416
v -0.15795 -0.00158 0.01272
v -0.15506 -0.00152 -0.06297
v -0.15508 -0.0003 -0.06298
v -0.15515 -0.00152 -0.06443
v -0.15515 -0.0003 -0.06443
v -0.15515 0.0252 -0.06443
v -0.15508 0.0252 -0.06298
v -0.15515 0.02642 -0.06443
v -0.15506 0.02642 -0.06297
v -0.17644 0.02257 0.02109
v -0.17644 0.02398 0.02063
v -0.17645 0.02525 0.01974
v -0.17646 0.02576 0.01844
v -0.17658 0.0258 0.01566
v -0.17648 0.02626 0.01567
v -0.15722 0.02637 0.01554
v -0.15858 0.02637 0.01552
v -0.22559 0.02592 0.01558
v -0.20798 0.02605 0.01577
v -0.22423 0.02594 0.01556
v -0.17658 -0.00124 0.01566
v -0.17646 -0.0012 0.01844
v -0.17645 -0.00069 0.01974
v -0.17644 0.00058 0.02063
v -0.17644 0.00199 0.02109
v -0.22437 0.02593 0.01413
v -0.22589 0.0259 0.01271
v -0.22449 0.02593 0.01269
v -0.19139 0.02615 0.01422
v -0.19144 0.02615 0.01564
v -0.19136 0.02615 0.01338
v -0.17624 0.02626 0.01425
v -0.1761 0.02625 0.01341
v -0.15673 0.02636 0.01268
v -0.15536 0.02582 0.0156
v -0.15485 0.02578 0.01274
v -0.17604 0.02613 0.01305
v -0.19135 0.02603 0.01301
v -0.17602 0.02577 0.01292
v -0.19134 0.02566 0.01289
v -0.17957 0.025 0.00926
v -0.17608 0.0252 -0.06128
v -0.18033 0.025 0.00978
v -0.17816 0.02502 0.0113
v -0.17771 0.02502 0.01067
v -0.1757 0.02503 0.01128
v -0.17679 0.0252 -0.06186
v -0.17585 0.02503 0.01203
v -0.17328 0.02505 0.01144
v -0.17349 0.02505 0.01081
v -0.17601 0.02503 0.01292
v -0.17149 0.02506 0.00928
v -0.19134 0.02493 0.01289
v -0.17623 0.02504 0.01425
v -0.17092 0.02506 0.0098
v -0.16742 0.0252 -0.06108
v -0.16803 0.0252 -0.06061
v -0.15386 0.0252 -0.06287
v -0.15692 0.02516 0.01265
v -0.15241 0.02479 -0.06275
v -0.15546 0.02475 0.01265
v -0.15439 0.02363 0.01265
v -0.15136 0.02366 -0.06266
v -0.15097 0.02211 -0.06262
v -0.15399 0.02208 0.01266
v -0.16963 0.0252 -0.06292
v -0.16989 0.0252 -0.0623
v -0.17206 0.0252 -0.06296
v -0.17214 0.0252 -0.06372
v -0.17223 0.0252 -0.06463
v -0.17233 0.0252 -0.06597
v -0.17451 0.0252 -0.06319
v -0.17411 0.0252 -0.06252
v -0.18814 0.0252 -0.06604
v -0.18818 0.0252 -0.06522
v -0.20162 0.0252 -0.06552
v -0.18822 0.0252 -0.06446
v -0.18838 0.0252 -0.06131
v -0.19949 0.0252 -0.06381
v -0.18841 0.0252 -0.06064
v -0.19123 0.02492 0.00976
v -0.20372 0.02485 0.00988
v -0.20598 0.02484 0.0114
v -0.20444 0.02484 0.00936
v -0.20025 0.0252 -0.06335
v -0.20208 0.0252 -0.06492
v -0.20639 0.02483 0.01077
v -0.20407 0.0252 -0.06571
v -0.20844 0.02482 0.01138
v -0.20391 0.0252 -0.06644
v -0.20648 0.0252 -0.06608
v -0.20628 0.0252 -0.06543
v -0.2083 0.0252 -0.06407
v -0.22094 0.0252 -0.07008
v -0.20885 0.0252 -0.06464
v -0.22116 0.0252 -0.06865
v -0.22446 0.02471 0.01269
v -0.22238 0.0252 -0.06875
v -0.21312 0.02479 0.00991
v -0.21252 0.02479 0.00939
v -0.22569 0.0247 0.01269
v -0.22714 0.02428 0.01269
v -0.22383 0.02479 -0.06888
v -0.22819 0.02314 0.01269
v -0.22488 0.02366 -0.06897
v -0.22437 0.02471 0.01414
v -0.21088 0.02481 0.01155
v -0.21062 0.02481 0.01091
v -0.20835 0.02482 0.01213
v -0.22638 0.02226 -0.06927
v -0.22638 0.00264 -0.06927
v -0.22587 0.00067 -0.0692
v -0.22444 -0.00091 -0.06902
v -0.22257 -0.0015 -0.0688
v -0.22094 -0.00152 -0.07008
v -0.22118 -0.00152 -0.06865
v -0.18807 -0.00152 -0.06736
v -0.18811 -0.00152 -0.06652
v -0.17233 -0.00152 -0.06597
v -0.17226 -0.00152 -0.06512
v -0.15367 -0.0015 -0.06288
v -0.15179 -0.00091 -0.06278
v -0.15035 0.00067 -0.06272
v -0.14984 0.00264 -0.0627
v -0.14984 0.02226 -0.0627
v -0.17084 0.02239 -0.06096
v -0.17012 0.02239 -0.06024
v -0.17192 0.02239 -0.06119
v -0.17296 0.02239 -0.06105
v -0.17397 0.02239 -0.06055
v -0.17739 0.0222 0.00873
v -0.17353 0.02223 0.00874
v -0.17643 0.02221 0.00931
v -0.1743 0.02222 0.0094
v -0.1754 0.02222 0.00954
v -0.1794 -0.0005 0.00932
v -0.18016 -0.00051 0.00984
v -0.17608 -0.0003 -0.06128
v -0.17799 -0.00049 0.01136
v -0.17754 -0.00049 0.01073
v -0.17554 -0.00047 0.01134
v -0.17679 -0.0003 -0.06186
v -0.17568 -0.00047 0.01209
v -0.17311 -0.00046 0.0115
v -0.17332 -0.00046 0.01087
v -0.17584 -0.00047 0.01298
v -0.17132 -0.00045 0.00934
v -0.19117 -0.00058 0.01295
v -0.17606 -0.00047 0.01431
v -0.17076 -0.00044 0.00986
v -0.16742 -0.0003 -0.06108
v -0.16803 -0.0003 -0.06061
v -0.15386 -0.0003 -0.06287
v -0.15674 -0.00035 0.01271
v -0.1553 0.00008 0.01271
v -0.15241 0.00011 -0.06275
v -0.15136 0.00125 -0.06266
v -0.15424 0.00121 0.01271
v -0.15387 0.00277 0.0127
v -0.15097 0.0028 -0.06262
v -0.16963 -0.0003 -0.06292
v -0.16989 -0.0003 -0.0623
v -0.17206 -0.0003 -0.06296
v -0.17214 -0.0003 -0.06372
v -0.17223 -0.0003 -0.06463
v -0.17233 -0.0003 -0.06597
v -0.17451 -0.0003 -0.06319
v -0.17411 -0.0003 -0.06252
v -0.18814 -0.0003 -0.06604
v -0.18818 -0.0003 -0.06522
v -0.20162 -0.0003 -0.06552
v -0.18822 -0.0003 -0.06446
v -0.19949 -0.0003 -0.06381
v -0.18838 -0.0003 -0.06131
v -0.18841 -0.0003 -0.06064
v -0.1911 -0.00058 0.01088
v -0.20355 -0.00066 0.00994
v -0.20581 -0.00067 0.01146
v -0.20427 -0.00066 0.00942
v -0.20025 -0.0003 -0.06335
v -0.20208 -0.0003 -0.06492
v -0.20622 -0.00067 0.01083
v -0.20407 -0.0003 -0.06571
v -0.20827 -0.00068 0.01144
v -0.20391 -0.0003 -0.06644
v -0.20648 -0.0003 -0.06608
v -0.20628 -0.0003 -0.06543
v -0.2083 -0.0003 -0.06407
v -0.22094 -0.0003 -0.07008
v -0.20885 -0.0003 -0.06464
v -0.21235 -0.00072 0.00944
v -0.22116 -0.0003 -0.06865
v -0.22429 -0.00079 0.01275
v -0.22238 -0.0003 -0.06875
v -0.22552 -0.0008 0.01275
v -0.22383 0.00011 -0.06888
v -0.22697 -0.0004 0.01275
v -0.22488 0.00125 -0.06897
v -0.22804 0.00073 0.01274
v -0.21295 -0.00072 0.00997
v -0.2242 -0.00079 0.01419
v -0.21071 -0.0007 0.01161
v -0.21045 -0.0007 0.01097
v -0.20818 -0.00068 0.01218
v -0.21041 0.02199 0.00884
v -0.20968 0.02199 0.0095
v -0.20859 0.022 0.00963
v -0.20754 0.02201 0.00941
v -0.20654 0.02201 0.00883
v -0.20241 0.02239 -0.063
v -0.20626 0.02239 -0.06334
v -0.20336 0.02239 -0.06366
v -0.20548 0.02239 -0.06393
v -0.20438 0.02239 -0.06398
v -0.2257 -0.00201 0.01278
v -0.22541 -0.002 0.01564
v -0.22419 -0.00201 0.0142
v -0.22431 -0.00201 0.01275
v -0.2078 -0.00189 0.01584
v -0.19121 -0.00179 0.01428
v -0.19126 -0.00179 0.0157
v -0.17629 -0.00169 0.01574
v -0.19118 -0.00179 0.01344
v -0.17605 -0.00169 0.01432
v -0.15704 -0.00155 0.0156
v -0.17592 -0.00169 0.01348
v -0.15655 -0.00155 0.01274
v -0.15518 -0.00098 0.01566
v -0.15467 -0.00094 0.0128
v -0.19117 -0.00167 0.01307
v -0.17586 -0.00157 0.01311
v -0.19117 -0.00131 0.01295
v -0.17584 -0.0012 0.01299
v -0.17644 0.00306 0.02068
v -0.17644 0.0215 0.02068
v -0.15331 0.02225 0.01569
v -0.15386 0.02425 0.01566
v -0.15318 0.00262 0.01573
v -0.1537 0.00061 0.01572
v -0.17417 0.00235 0.00944
v -0.17339 0.00235 0.00878
v -0.17527 0.00234 0.00958
v -0.1763 0.00233 0.00936
v -0.17012 0.00252 -0.06024
v -0.17726 0.00233 0.00877
v -0.17397 0.00252 -0.06055
v -0.17296 0.00252 -0.06105
v -0.17084 0.00252 -0.06096
v -0.17192 0.00252 -0.06119
v -0.20846 0.00212 0.00968
v -0.20955 0.00212 0.00954
v -0.20741 0.00213 0.00945
v -0.21027 0.00211 0.00888
v -0.20641 0.00214 0.00887
v -0.20241 0.00252 -0.063
v -0.20626 0.00252 -0.06334
v -0.20336 0.00252 -0.06366
v -0.20548 0.00252 -0.06393
v -0.20438 0.00252 -0.06398
v -0.17226 0.02642 -0.06512
v -0.17233 0.02642 -0.06597
v -0.18811 0.02642 -0.06652
v -0.18813 0.0263 -0.06616
v -0.17224 0.0263 -0.06475
v -0.18814 0.02594 -0.06604
v -0.17223 0.02594 -0.06463
v -0.18807 0.02642 -0.06736
v -0.22094 0.02642 -0.07008
v -0.15367 0.02641 -0.06288
v -0.15179 0.02581 -0.06278
v -0.15035 0.02423 -0.06272
v -0.22257 0.02641 -0.0688
v -0.22118 0.02642 -0.06865
v -0.22444 0.02581 -0.06902
v -0.22587 0.02423 -0.0692
v -0.1534 0.0242 0.0128
v -0.15288 0.02224 0.01283
v -0.15275 0.00262 0.01287
v -0.15325 0.00065 0.01286
v -0.17658 -0.00016 0.01566
v -0.17647 -0.00012 0.01803
v -0.17645 0.00038 0.01933
v -0.17645 0.00166 0.02022
v -0.17645 0.0229 0.02022
v -0.17645 0.02418 0.01933
v -0.17647 0.02468 0.01803
v -0.17658 0.02472 0.01566
v -0.17224 -0.0014 -0.06475
v -0.18813 -0.0014 -0.06616
v -0.17223 -0.00103 -0.06463
v -0.18814 -0.00103 -0.06604
vt 0.112122 0.411377
vt 0.108826 0.411377
vt 0.112427 0.435547
vt 0.109009 0.435547
vt 0.109741 0.437988
vt 0.113037 0.437744
vt 0.110474 0.440674
vt 0.114441 0.439697
vt 0.23291 0.556152
vt 0.232788 0.458252
vt 0.209229 0.556152
vt 0.209106 0.458252
vt 0.109558 0.406250
vt 0.112488 0.409180
vt 0.113709 0.406982
vt 0.10907 0.408936
vt 0.178223 0.390381
vt 0.178223 0.391357
vt 0.17981 0.391357
vt 0.178345 0.389893
vt 0.17981 0.389648
vt 0.178833 0.389648
vt 0.178833 0.347412
vt 0.17981 0.347412
vt 0.178345 0.347412
vt 0.17981 0.345947
vt 0.178223 0.346924
vt 0.178223 0.345947
vt 0.137695 0.401611
vt 0.137695 0.400635
vt 0.136108 0.400635
vt 0.137573 0.402344
vt 0.136108 0.402588
vt 0.137085 0.402588
vt 0.137451 0.443115
vt 0.136475 0.443115
vt 0.137939 0.443603
vt 0.136475 0.444824
vt 0.138062 0.444092
vt 0.138062 0.444824
vt 0.1427 0.759766
vt 0.143555 0.758301
vt 0.1427 0.761231
vt 0.143921 0.760254
vt 0.1427 0.763184
vt 0.144043 0.762695
vt 0.1427 0.764648
vt 0.144287 0.764648
vt 0.1427 0.768066
vt 0.144287 0.768066
vt 0.140259 0.387207
vt 0.112488 0.381103
vt 0.113159 0.383301
vt 0.11261 0.355713
vt 0.114929 0.385010
vt 0.113281 0.353516
vt 0.117065 0.385986
vt 0.118652 0.386230
vt 0.114868 0.351562
vt 0.116821 0.350830
vt 0.13977 0.350586
vt 0.15918 0.350586
vt 0.159058 0.386963
vt 0.17749 0.387207
vt 0.177979 0.350586
vt 0.201294 0.350830
vt 0.203125 0.351562
vt 0.204712 0.353272
vt 0.205322 0.355713
vt 0.205566 0.381103
vt 0.204834 0.383545
vt 0.203125 0.385254
vt 0.20105 0.386230
vt 0.199463 0.386475
vt 0.201172 0.401367
vt 0.200317 0.400391
vt 0.199951 0.403076
vt 0.199341 0.402344
vt 0.199707 0.443603
vt 0.200806 0.443848
vt 0.200195 0.441650
vt 0.20166 0.442871
vt 0.11792 0.390137
vt 0.119385 0.390625
vt 0.118164 0.388184
vt 0.119141 0.389404
vt 0.119141 0.347900
vt 0.119385 0.346680
vt 0.118103 0.348877
vt 0.11792 0.346924
vt 0.123779 0.759766
vt 0.123779 0.761231
vt 0.123779 0.763184
vt 0.123779 0.764648
vt 0.123779 0.768066
vt 0.177124 0.405029
vt 0.201172 0.405029
vt 0.199463 0.405029
vt 0.116211 0.406006
vt 0.138184 0.405518
vt 0.117981 0.405762
vt 0.137939 0.403809
vt 0.117554 0.403809
vt 0.11499 0.402832
vt 0.116333 0.402344
vt 0.112549 0.403564
vt 0.158691 0.403564
vt 0.158691 0.405273
vt 0.158691 0.402588
vt 0.137817 0.402588
vt 0.17749 0.403564
vt 0.177734 0.402588
vt 0.202515 0.401855
vt 0.203735 0.405762
vt 0.204956 0.402344
vt 0.177734 0.402344
vt 0.137817 0.402344
vt 0.158813 0.402100
vt 0.177856 0.401611
vt 0.158813 0.401611
vt 0.140503 0.461182
vt 0.140381 0.548828
vt 0.14148 0.460693
vt 0.139038 0.458496
vt 0.138428 0.459228
vt 0.135986 0.458252
vt 0.141235 0.549805
vt 0.136231 0.457275
vt 0.133057 0.457764
vt 0.133301 0.458496
vt 0.136597 0.456299
vt 0.130615 0.460205
vt 0.155273 0.458008
vt 0.115112 0.452881
vt 0.136963 0.454590
vt 0.130005 0.459473
vt 0.114746 0.454590
vt 0.129761 0.549316
vt 0.130493 0.548828
vt 0.114807 0.552246
vt 0.113281 0.552246
vt 0.113281 0.454346
vt 0.114929 0.553711
vt 0.11145 0.551758
vt 0.11145 0.454346
vt 0.109558 0.454102
vt 0.109558 0.551758
vt 0.107605 0.551758
vt 0.107605 0.454102
vt 0.132568 0.551269
vt 0.132812 0.550781
vt 0.135498 0.551269
vt 0.13562 0.552246
vt 0.135864 0.553223
vt 0.135986 0.555176
vt 0.13855 0.551269
vt 0.138062 0.550781
vt 0.155395 0.554199
vt 0.155395 0.553223
vt 0.171997 0.552734
vt 0.155395 0.552246
vt 0.174683 0.555176
vt 0.155518 0.548340
vt 0.169312 0.550781
vt 0.155518 0.547852
vt 0.154785 0.461914
vt 0.170166 0.463135
vt 0.173096 0.461426
vt 0.170898 0.463867
vt 0.170166 0.550293
vt 0.172485 0.552246
vt 0.173462 0.462402
vt 0.174927 0.553223
vt 0.176025 0.461914
vt 0.174805 0.554199
vt 0.177979 0.553223
vt 0.177734 0.552734
vt 0.180054 0.550781
vt 0.195923 0.557617
vt 0.174438 0.556641
vt 0.180786 0.551758
vt 0.196167 0.555664
vt 0.195801 0.462158
vt 0.197632 0.555664
vt 0.181641 0.464111
vt 0.180786 0.464844
vt 0.197266 0.462158
vt 0.199097 0.462402
vt 0.199463 0.556152
vt 0.20105 0.462402
vt 0.201416 0.556152
vt 0.203003 0.462402
vt 0.203369 0.556152
vt 0.195801 0.460205
vt 0.179077 0.461914
vt 0.178711 0.462647
vt 0.176025 0.460938
vt 0.176025 0.459717
vt 0.176025 0.458252
vt 0.20874 0.355225
vt 0.20874 0.382080
vt 0.207519 0.385498
vt 0.205078 0.388184
vt 0.20227 0.389648
vt 0.199829 0.388428
vt 0.199951 0.390381
vt 0.178101 0.388428
vt 0.159058 0.388672
vt 0.159058 0.389648
vt 0.178223 0.389404
vt 0.139648 0.388184
vt 0.139404 0.389404
vt 0.11554 0.389404
vt 0.11261 0.387695
vt 0.11029 0.385010
vt 0.109131 0.381836
vt 0.109131 0.355225
vt 0.245361 0.552246
vt 0.244507 0.551758
vt 0.243286 0.555664
vt 0.240479 0.552734
vt 0.246704 0.552246
vt 0.246826 0.556641
vt 0.247925 0.552246
vt 0.250244 0.555664
vt 0.240479 0.462158
vt 0.249023 0.551758
vt 0.25293 0.553223
vt 0.248901 0.464111
vt 0.25293 0.463135
vt 0.250488 0.460449
vt 0.244385 0.463623
vt 0.243652 0.459717
vt 0.247925 0.463623
vt 0.247192 0.459228
vt 0.245361 0.463379
vt 0.246582 0.463379
vt 0.154907 0.460693
vt 0.272705 0.464844
vt 0.27002 0.461914
vt 0.268555 0.465820
vt 0.267822 0.465332
vt 0.266602 0.465088
vt 0.266602 0.460938
vt 0.265137 0.465088
vt 0.263184 0.461670
vt 0.26416 0.465576
vt 0.26001 0.464111
vt 0.26416 0.551758
vt 0.26001 0.552734
vt 0.262939 0.555664
vt 0.268799 0.551758
vt 0.272705 0.553223
vt 0.269775 0.555664
vt 0.265381 0.552246
vt 0.266357 0.556641
vt 0.267822 0.552246
vt 0.266602 0.552246
vt 0.108826 0.440430
vt 0.108521 0.438232
vt 0.107605 0.435791
vt 0.107605 0.411377
vt 0.107666 0.408691
vt 0.10791 0.406494
vt 0.113159 0.442871
vt 0.115478 0.443603
vt 0.11676 0.440430
vt 0.118042 0.442383
vt 0.116882 0.444092
vt 0.138428 0.442139
vt 0.13855 0.440186
vt 0.159058 0.441895
vt 0.159058 0.439941
vt 0.177612 0.439697
vt 0.15918 0.442871
vt 0.177856 0.441650
vt 0.138184 0.443115
vt 0.201416 0.439453
vt 0.178101 0.443115
vt 0.203003 0.442383
vt 0.203857 0.438721
vt 0.205322 0.441895
vt 0.15918 0.443359
vt 0.178101 0.443603
vt 0.138184 0.443603
vt 0.15918 0.443848
vt 0.178223 0.444092
vt 0.15918 0.444824
vt 0.178223 0.444824
vt 0.123779 0.758301
vt 0.1427 0.758301
vt 0.205566 0.410400
vt 0.205078 0.407959
vt 0.205566 0.434326
vt 0.2052 0.436523
vt 0.139404 0.347900
vt 0.139648 0.348877
vt 0.159058 0.347656
vt 0.159058 0.347168
vt 0.139404 0.347412
vt 0.159058 0.346680
vt 0.139404 0.346924
vt 0.178223 0.347168
vt 0.178223 0.347656
vt 0.178101 0.348633
vt 0.159058 0.348633
vt 0.199951 0.348877
vt 0.115478 0.347656
vt 0.112549 0.349121
vt 0.110229 0.352051
vt 0.20227 0.347412
vt 0.199951 0.346680
vt 0.2052 0.348877
vt 0.207519 0.351807
vt 0.11261 0.401855
vt 0.114441 0.401611
vt 0.115845 0.400879
vt 0.116394 0.445557
vt 0.11499 0.444824
vt 0.113159 0.444336
vt 0.177856 0.400635
vt 0.158813 0.400635
vt 0.201538 0.399902
vt 0.203003 0.400391
vt 0.204834 0.400879
vt 0.17749 0.402344
vt 0.205322 0.443359
vt 0.203491 0.443848
vt 0.202148 0.444336
vt 0.177856 0.443603
vt 0.118103 0.402344
vt 0.137939 0.402344
vt 0.13855 0.443603
vt 0.118713 0.443603
vt 0.207886 0.405029
vt 0.208496 0.407715
vt 0.209473 0.405273
vt 0.209839 0.407471
vt 0.208984 0.410156
vt 0.210327 0.409912
vt 0.208984 0.434326
vt 0.210327 0.434570
vt 0.209839 0.437012
vt 0.208496 0.436768
vt 0.209473 0.439209
vt 0.207886 0.439453
vt 0.1427 0.750000
vt 0.1427 0.752930
vt 0.123779 0.750000
vt 0.123779 0.752930
vt 0.1427 0.754394
vt 0.123779 0.754394
vt 0.123779 0.756348
vt 0.1427 0.756348
vt 0.200195 0.345215
vt 0.202515 0.345703
vt 0.205933 0.347412
vt 0.20874 0.350830
vt 0.210205 0.355225
vt 0.210205 0.382324
vt 0.20874 0.386475
vt 0.205933 0.389648
vt 0.202515 0.391602
vt 0.200195 0.391846
vt 0.139404 0.389893
vt 0.159058 0.390137
vt 0.139404 0.390381
vt 0.178223 0.389893
vt 0.159058 0.390381
vt 0.139404 0.391357
vt 0.158936 0.391357
vt 0.158936 0.345947
vt 0.139404 0.345947
vt 0.138794 0.389648
vt 0.137695 0.389648
vt 0.139282 0.389893
vt 0.137695 0.391357
vt 0.139526 0.389893
vt 0.137695 0.345947
vt 0.139282 0.347412
vt 0.137695 0.347412
vt 0.138794 0.347412
vt 0.139526 0.347168
vt 0.198975 0.389404
vt 0.198975 0.347656
vt 0.117493 0.391602
vt 0.115173 0.391113
vt 0.111694 0.389160
vt 0.108948 0.385742
vt 0.107666 0.381836
vt 0.107666 0.355225
vt 0.108948 0.351318
vt 0.111694 0.347900
vt 0.115173 0.345947
vt 0.117493 0.345459
vt 0.178467 0.402588
vt 0.179443 0.402588
vt 0.177979 0.402344
vt 0.179443 0.400635
vt 0.17981 0.444824
vt 0.178345 0.443603
vt 0.17981 0.443115
vt 0.178833 0.443115
vt 0.122253 0.768066
vt 0.122253 0.764648
vt 0.122437 0.762695
vt 0.122681 0.760254
vt 0.122986 0.758301
vt 0.117126 0.401367
vt 0.117737 0.445068
vt 0.198486 0.390625
vt 0.198486 0.346436
vn -0.9843 0.1102 0.0709
vn -0.9843 -0.1496 0.0551
vn -0.8661 -0.4882 0.0394
vn -0.5276 -0.8425 0.0157
vn -0.5039 -0.8583 0.0157
vn -0.9843 -0.126 -0.0315
vn -0.9843 -0.126 -0.0551
vn -0.9921 0.1102 -0.0551
vn -0.5512 0.8268 0.0157
vn -0.874 0.4724 0.063
vn -0.5354 0.8346 0.0394
vn -0.8819 0.4488 0.0866
vn -0.9843 -0.0157 -0.1654
vn -0.9764 0 -0.1811
vn -0.9921 -0.0157 0.063
vn -0.9921 0 0
vn -0.9921 0 0.0236
vn -0.9921 -0.0157 0.0079
vn -0.9921 -0.0157 -0.0079
vn 0.0866 -0.0157 -0.9921
vn 0.0866 -0.0315 -0.9921
vn 0.0866 0 -0.9921
vn 0.0866 -0.0472 -0.9921
vn 0.063 0 -0.9921
vn 0.0945 -0.1339 -0.9843
vn 0.0394 -0.8976 -0.4331
vn 0.063 0.0157 -0.9921
vn 0.1024 -0.0157 -0.9921
vn 0.1024 0 -0.9921
vn 0.1181 0 -0.9921
vn 0.0394 -0.9134 -0.3858
vn -0.9843 0 -0.1417
vn -0.9843 -0.0157 -0.1417
vn -0.9921 -0.0157 0.0315
vn -0.9921 0 0.0472
vn -0.0157 0.2992 0.9449
vn -0.0157 0.4252 0.8976
vn -0.0236 0.7874 0.6063
vn -0.0157 0.9764 0.1811
vn -0.0157 0.9921 0.0079
vn -0.0157 0 0.9921
vn 0 0.1181 0.9921
vn -0.0157 0.9449 0.2992
vn -0.0157 0.1417 0.9843
vn 0 0 0.9921
vn 0 -0.9921 0.0079
vn 0 -0.9764 0.1811
vn 0 -0.7953 0.5984
vn 0 -0.4409 0.8898
vn 0 -0.4724 0.874
vn 0 -0.315 0.9449
vn 0 0.9921 -0.0157
vn -0.1575 0.9843 0
vn -0.1811 0.9764 0
vn -0.0157 0.9921 -0.0157
vn 0 0.9764 -0.1811
vn 0.0157 0.9921 0
vn 0.126 0.9843 0.0315
vn 0.1417 0.9843 0.0315
vn 0.5039 0.8504 0.0866
vn 0.5276 0.8346 0.0866
vn 0 0.6693 -0.7323
vn 0 0.6929 -0.7165
vn 0.0157 0.1417 -0.9843
vn 0 0.1417 -0.9843
vn -0.0157 0.9921 0
vn 0.1181 0.9843 0.0157
vn 0.5118 0.8504 0.0394
vn 0.874 0.4724 0.063
vn 0.9843 0.1102 0.0709
vn -0.5118 0.8504 -0.0394
vn -0.8819 0.4646 -0.0394
vn -0.874 0.4724 -0.063
vn -0.9685 0.1181 -0.1811
vn -0.9764 -0.1417 -0.1575
vn -0.8504 -0.4961 -0.1417
vn -0.5039 -0.8504 -0.0866
vn -0.1417 -0.9843 -0.0157
vn -0.126 -0.9843 -0.0315
vn 0 -0.9921 0
vn -0.0157 -0.9921 -0.0079
vn -0.0157 -0.9843 0.1417
vn -0.0157 -0.9843 0.1654
vn 0.1417 -0.9843 0
vn 0.1811 -0.9764 0.0157
vn 0.0079 -0.9921 0.0157
vn 0.5197 -0.8504 0
vn 0.5591 -0.8268 -0.0157
vn 0.8661 -0.4882 -0.0394
vn 0.8819 -0.4567 -0.0394
vn 0.9843 -0.126 -0.0551
vn 0.9843 0.1102 -0.0709
vn -0.2756 0.811 0.5039
vn -0.4882 0.8346 0.2205
vn -0.4252 0.5039 0.748
vn -0.7717 0.5591 0.2835
vn -0.0394 0.8504 0.5118
vn -0.0394 0.5118 0.8504
vn 0.1654 0.8425 0.5039
vn 0.2756 0.5039 0.811
vn -0.7165 0.5827 -0.3701
vn 0.4331 0.8346 0.3228
vn 0.6693 0.6142 0.4016
vn 0.4724 0.8268 -0.2756
vn 0.7323 0.5984 -0.3071
vn 0.3937 0.5276 -0.7402
vn -0.4488 0.8346 -0.2992
vn -0.3307 0.4882 -0.7953
vn 0.2205 0.8346 -0.4882
vn 0.0394 0.5118 -0.8504
vn -0.2205 0.8189 -0.5197
vn 0.0157 0.8425 -0.5276
vn 0.1181 -0.9921 0
vn 0.5039 -0.8583 0.0157
vn 0.8661 -0.4882 0.0394
vn 0.9843 -0.126 0.0315
vn -0.126 -0.9843 -0.0157
vn -0.5039 -0.8583 -0.0157
vn -0.8661 -0.4882 -0.0394
vn 0.748 0.5906 -0.2835
vn 0.3622 0.4961 -0.7795
vn 0.4882 0.8346 -0.2205
vn 0.2441 0.8268 -0.4961
vn -0.0157 0.8425 -0.5276
vn -0.0157 0.4803 -0.874
vn -0.189 0.8268 -0.5118
vn -0.3622 0.4961 -0.7795
vn -0.4567 0.8189 -0.3307
vn -0.6929 0.5906 -0.4016
vn -0.4961 0.8268 0.252
vn -0.748 0.5906 0.2835
vn -0.4567 0.5118 0.7244
vn 0.4567 0.8346 0.2992
vn 0.6929 0.5906 0.4016
vn -0.2677 0.8504 0.4409
vn -0.1102 0.5118 0.8425
vn 0.1654 0.8268 0.5276
vn -0.063 0.8425 0.5197
vn -0.0472 -0.0472 -0.9921
vn -0.1102 -0.0472 -0.9921
vn -0.126 -0.0157 -0.9843
vn -0.1181 0 -0.9921
vn -0.1024 0.0315 -0.9921
vn -0.0472 0.0315 -0.9921
vn -0.1575 -0.9843 0
vn -0.1417 -0.9843 0
vn 0.0157 -0.9843 -0.1181
vn 0.0157 -0.9843 -0.1417
vn 0.126 -0.9843 0.0315
vn 0.1654 -0.9843 0.0157
vn 0.0157 -0.9921 0
vn 0.4961 -0.8583 0.063
vn 0.5276 -0.8346 0.0866
vn 0.0157 -0.7244 -0.6772
vn 0.0157 -0.7008 -0.7008
vn 0 -0.6929 -0.7165
vn 0 -0.1575 -0.9843
vn 0.0157 -0.1654 -0.9843
vn 0 -0.0157 -0.9921
vn 0.0157 -0.0157 -0.9921
vn -0.0157 0.3543 0.9291
vn 0 -0.3701 0.9213
vn 0 0.0157 0.9921
vn -0.0157 -0.0157 0.9921
vn 0 0.0472 0.9921
vn -0.0315 -0.0315 0.9921
vn 0 -0.0157 0.9921
vn 0.0157 -0.0315 0.9921
vn -0.0157 0.0157 0.9921
vn -0.0157 0.0472 0.9921
vn -0.189 -0.8268 -0.5118
vn -0.4488 -0.8425 -0.2677
vn -0.3386 -0.5197 -0.7795
vn 0.0394 -0.8661 -0.4882
vn -0.7087 -0.6063 -0.3386
vn 0.063 -0.5512 -0.8268
vn -0.7559 -0.6063 0.2283
vn 0.2126 -0.8504 -0.4646
vn 0.4016 -0.5591 -0.7165
vn -0.4803 -0.8504 0.189
vn 0.4882 -0.8346 -0.2205
vn 0.7244 -0.622 -0.2835
vn -0.4252 -0.5354 0.7244
vn 0.4252 -0.8504 0.2913
vn 0.6614 -0.6378 0.3701
vn 0.2756 -0.5354 0.7874
vn 0.1654 -0.8583 0.4724
vn -0.0394 -0.5354 0.8346
vn -0.2756 -0.8268 0.4803
vn -0.0394 -0.8661 0.4882
vn 0 -0.8504 -0.5197
vn 0.2441 -0.8425 -0.4724
vn -0.189 -0.8504 -0.4803
vn 0.3937 -0.5276 -0.7402
vn -0.0157 -0.5276 -0.8425
vn 0.748 -0.5906 -0.2835
vn -0.4252 -0.8504 -0.2992
vn -0.685 -0.6299 -0.3386
vn 0.6929 -0.6063 0.3701
vn -0.4882 -0.8346 0.2205
vn -0.7402 -0.6142 0.252
vn -0.4567 -0.5354 0.7008
vn 0.4488 -0.8425 0.2677
vn -0.2677 -0.8661 0.4173
vn -0.1181 -0.5433 0.8268
vn 0.1654 -0.8425 0.5039
vn -0.063 -0.8583 0.4961
vn -0.0157 0.9843 0.1654
vn -0.0709 0.7008 0.7008
vn -0.0709 0.6772 0.7244
vn -0.0945 0.1496 0.9764
vn 0.1417 0.9843 -0.0157
vn -0.126 0.9843 -0.0315
vn 0.1811 0.9764 0
vn 0.5276 0.8425 -0.0157
vn 0.5669 0.8189 -0.0394
vn 0.874 0.4646 -0.063
vn 0.8898 0.4409 -0.063
vn -0.1417 0.9843 -0.0315
vn -0.5118 0.8425 -0.1102
vn -0.8583 0.4724 -0.1654
vn -0.0157 0.0157 -0.9921
vn 0 0 -1
vn -0.0157 -0.0315 -0.9921
vn 0.0157 0 -0.9921
vn 0.0315 0.0157 -0.9921
vn 0.063 0.0315 -0.9921
vn 0.063 -0.0472 -0.9921
vn 0.0315 -0.0315 -0.9921
vn 0.126 0.0315 -0.9843
vn 0.1417 0 -0.9843
vn 0.1417 -0.0157 -0.9843
vn 0.126 -0.0551 -0.9843
vn 0 0.9921 -0.0315
vn 0 0.9764 -0.2047
vn 0 0.7795 -0.622
vn 0 0.4173 -0.9055
vn 0 0.4409 -0.8898
vn 0 0.2913 -0.9528
vn 0.0157 -0.3228 -0.937
vn 0.0157 -0.4488 -0.8898
vn 0.0157 -0.8031 -0.5827
vn 0.0157 -0.9843 -0.1654
vn 0.9685 0.1181 0.1811
vn 0.8661 0.4646 0.1339
vn 0.8583 0.4724 0.1654
vn -0.1024 0 0.9921
vn -0.1024 0.0157 0.9921
vn -0.1417 0.0315 0.9843
vn -0.2126 0.0394 0.9685
vn -0.2283 0 0.9685
vn -0.2283 -0.0157 0.9685
vn -0.2126 -0.0551 0.9685
vn -0.1496 -0.0551 0.9843
vn -0.1024 -0.0315 0.9921
vn -0.1024 -0.0157 0.9921
vn 0.8504 -0.4961 0.1417
vn 0.8661 -0.4646 0.1339
vn 0.9764 -0.1339 0.1417
vn -0.0709 -0.7008 0.7008
vn -0.0709 -0.7244 0.6772
vn -0.0945 -0.1732 0.9764
vn -0.0787 0 0.9921
vn 0.9921 0 -0.063
vn 0.9921 -0.0157 -0.0472
vn -0.0866 -0.0157 0.9921
vn -0.063 -0.0315 0.9921
vn -0.0315 -0.0472 0.9921
vn 0.0157 -0.0472 0.9921
vn 0.0472 -0.0157 0.9921
vn 0.0472 0 0.9921
vn 0.0157 0.0315 0.9921
vn -0.0315 0.0315 0.9921
vn -0.063 0.0157 0.9921
vn 0.9764 0 0.1811
vn 0.9843 0 0.1575
vn 0.9921 -0.0157 -0.0157
vn 0.9921 -0.0079 0.0157
vn 0.9921 0 0
vn 0.9921 0 -0.0315
vn 0.9921 0 -0.0787
vn 0.9843 -0.0157 0.1654
# Converted from CSMC meshbin by CsmcAssetConverter
# source: weapon_snip_awp_legacy_weapon_snip_awp.body_legacy.meshbin
# source center: 16.66426 -0.5667131 7.678146
# source scale: 0.02323252
# Coordinates are preserved exactly as stored by CSMC.
# Basis conversion and mesh-normalization conjugation happen at runtime.
o v_weapon_awp_clip
f 1/1/1 2/2/1 3/3/2
f 3/3/2 2/2/1 4/4/2
f 3/3/2 4/4/2 5/5/3
f 3/3/2 5/5/3 6/6/3
f 6/6/3 5/5/3 7/7/4
f 6/6/3 7/7/4 8/8/5
f 9/9/6 10/10/7 11/11/8
f 11/11/8 10/10/7 12/12/8
f 13/13/9 14/14/10 15/15/11
f 14/14/10 13/13/9 16/16/12
f 14/14/10 16/16/12 1/1/1
f 1/1/1 16/16/12 2/2/1
f 17/17/13 18/18/14 19/19/14
f 17/17/13 19/19/14 20/20/13
f 20/20/13 19/19/14 21/21/14
f 20/20/13 21/21/14 22/22/14
f 23/23/13 24/24/13 25/25/14
f 25/25/14 24/24/13 26/26/13
f 25/25/14 26/26/13 27/27/14
f 27/27/14 26/26/13 28/28/14
f 29/29/15 30/30/15 31/31/15
f 29/29/15 31/31/15 32/32/15
f 32/32/15 31/31/15 33/33/15
f 32/32/15 33/33/15 34/34/15
f 35/35/15 36/36/15 37/37/15
f 37/37/15 36/36/15 38/38/15
f 37/37/15 38/38/15 39/39/15
f 39/39/15 38/38/15 40/40/15
f 41/41/16 42/42/16 43/43/16
f 43/43/16 42/42/16 44/44/16
f 43/43/16 44/44/16 45/45/16
f 45/45/16 44/44/16 46/46/16
f 45/45/16 46/46/16 47/47/17
f 47/47/17 46/46/16 48/48/17
f 47/47/17 48/48/17 49/49/17
f 49/49/17 48/48/17 50/50/17
f 51/50/18 52/48/18 53/49/18
f 53/49/18 52/48/18 54/47/18
f 54/47/18 52/48/18 55/46/19
f 54/47/18 55/46/19 56/45/19
f 56/45/19 55/46/19 57/44/19
f 56/45/19 57/44/19 58/43/19
f 58/43/19 57/44/19 59/42/19
f 58/43/19 59/42/19 60/41/19
f 61/51/20 62/52/20 63/53/21
f 62/52/20 61/51/20 64/54/22
f 61/51/20 63/53/21 65/55/23
f 64/54/22 61/51/20 66/56/24
f 61/51/20 65/55/23 67/57/25
f 61/51/20 67/57/25 68/58/26
f 66/56/24 61/51/20 69/59/27
f 69/59/27 61/51/20 70/60/22
f 70/60/22 61/51/20 71/61/28
f 71/61/28 61/51/20 72/62/20
f 72/62/20 61/51/20 73/63/20
f 72/62/20 73/63/20 74/64/20
f 72/62/20 74/64/20 75/65/20
f 75/65/20 74/64/20 76/66/29
f 76/66/29 74/64/20 77/67/30
f 77/67/30 74/64/20 78/68/29
f 78/68/29 74/64/20 79/69/29
f 79/69/29 74/64/20 80/70/28
f 80/70/28 74/64/20 81/71/21
f 81/71/21 74/64/20 82/72/23
f 82/72/23 74/64/20 83/73/25
f 83/73/25 74/64/20 84/74/31
f 85/75/32 86/76/32 87/77/32
f 87/77/32 86/76/32 88/78/32
f 89/79/33 90/80/33 91/81/33
f 91/81/33 90/80/33 92/82/33
f 93/83/34 94/84/34 95/85/34
f 95/85/34 94/84/34 96/86/34
f 97/87/35 98/88/35 99/89/35
f 99/89/35 98/88/35 100/90/35
f 60/41/36 101/91/36 58/43/37
f 58/43/37 101/91/36 102/92/37
f 58/43/37 102/92/37 56/45/38
f 56/45/38 102/92/37 103/93/38
f 56/45/38 103/93/38 54/47/39
f 54/47/39 103/93/38 104/94/39
f 54/47/39 104/94/39 53/49/40
f 53/49/40 104/94/39 105/95/40
f 106/96/41 107/97/42 108/98/43
f 109/99/44 110/100/45 111/101/39
f 112/95/46 113/94/47 49/49/46
f 49/49/46 113/94/47 47/47/47
f 47/47/47 113/94/47 114/93/48
f 47/47/47 114/93/48 45/45/48
f 45/45/48 114/93/48 115/92/49
f 45/45/48 115/92/49 43/43/50
f 43/43/50 115/92/49 116/91/51
f 43/43/50 116/91/51 41/41/51
f 110/100/52 33/102/52 111/101/52
f 111/101/52 33/102/52 117/103/52
f 111/101/52 117/103/52 109/99/53
f 109/99/53 117/103/52 118/104/54
f 118/104/54 117/103/52 119/105/55
f 109/99/53 118/104/54 15/15/11
f 15/15/11 118/104/54 13/106/9
f 33/102/52 110/100/52 120/107/52
f 120/107/52 110/100/52 121/108/52
f 120/107/52 121/108/52 106/96/52
f 33/102/52 120/107/52 122/109/56
f 33/102/52 122/109/56 34/110/56
f 120/107/52 106/96/52 123/111/52
f 120/107/52 123/111/52 122/109/56
f 123/111/52 106/96/52 108/98/52
f 123/111/52 108/98/52 87/77/57
f 87/77/57 108/98/52 107/97/58
f 122/109/56 123/111/52 124/112/56
f 87/77/57 107/97/58 125/113/59
f 87/77/57 125/113/59 85/75/57
f 125/113/59 107/97/58 126/114/60
f 125/113/59 126/114/60 127/115/61
f 122/109/56 124/112/56 128/116/62
f 32/117/62 34/110/56 122/109/56
f 122/109/56 128/116/62 129/118/63
f 122/109/56 129/118/63 32/117/62
f 129/118/63 128/116/62 130/119/64
f 32/117/62 129/118/63 29/29/65
f 129/118/63 130/119/64 131/120/65
f 129/118/63 131/120/65 29/29/65
f 132/121/66 133/122/66 134/123/52
f 132/121/66 134/123/52 135/124/52
f 132/121/66 135/124/52 136/125/52
f 136/125/52 135/124/52 137/126/52
f 134/123/52 133/122/66 138/127/66
f 137/126/52 135/124/52 139/128/52
f 137/126/52 139/128/52 140/129/52
f 137/126/52 140/129/52 141/130/52
f 139/128/52 135/124/52 142/131/52
f 139/128/52 142/131/52 140/129/52
f 141/130/52 140/129/52 143/132/66
f 142/131/52 135/124/52 144/133/52
f 140/129/52 142/131/52 88/134/52
f 88/134/52 142/131/52 145/135/52
f 140/129/52 88/134/52 146/136/52
f 140/129/52 146/136/52 143/132/66
f 146/136/52 88/134/52 86/137/52
f 143/132/66 146/136/52 147/138/66
f 147/138/66 146/136/52 86/137/52
f 143/132/66 147/138/66 148/139/66
f 147/138/66 86/137/52 98/140/66
f 98/140/66 86/137/52 149/141/67
f 149/141/67 86/137/52 150/142/67
f 147/138/66 98/140/66 97/143/57
f 149/141/67 150/142/67 151/144/68
f 151/144/68 150/142/67 152/145/68
f 151/144/68 152/145/68 153/146/69
f 151/144/68 153/146/69 154/147/69
f 154/147/69 153/146/69 155/148/70
f 155/148/70 153/146/69 156/149/70
f 147/138/66 97/143/57 157/150/57
f 147/138/66 157/150/57 148/139/66
f 148/139/66 157/150/57 158/151/57
f 158/151/57 157/150/57 159/152/57
f 159/152/57 157/150/57 160/153/57
f 157/150/57 97/143/57 161/154/57
f 157/150/57 161/154/57 160/153/57
f 161/154/57 97/143/57 162/155/57
f 159/152/57 160/153/57 163/156/57
f 163/156/57 160/153/57 161/154/57
f 159/152/57 163/156/57 164/157/57
f 164/157/57 163/156/57 133/122/66
f 163/156/57 161/154/57 165/158/57
f 133/122/66 163/156/57 138/127/66
f 163/156/57 165/158/57 166/159/57
f 163/156/57 166/159/57 138/127/66
f 166/159/57 165/158/57 167/160/57
f 138/127/66 166/159/57 168/161/57
f 167/160/57 165/158/57 28/162/57
f 138/127/66 168/161/57 169/163/57
f 168/161/57 166/159/57 170/164/66
f 168/161/57 170/164/66 169/163/57
f 170/164/66 166/159/57 167/160/57
f 138/127/66 169/163/57 171/165/66
f 171/165/66 169/163/57 170/164/66
f 138/127/66 171/165/66 134/123/52
f 134/123/52 171/165/66 172/166/66
f 172/166/66 171/165/66 170/164/66
f 134/123/52 172/166/66 135/124/52
f 135/124/52 172/166/66 144/133/52
f 172/166/66 170/164/66 173/167/66
f 144/133/52 172/166/66 174/168/52
f 174/168/52 172/166/66 173/167/66
f 173/167/66 170/164/66 175/169/66
f 173/167/66 175/169/66 174/168/52
f 175/169/66 170/164/66 176/170/66
f 176/170/66 170/164/66 167/160/57
f 176/170/66 167/160/57 177/171/57
f 174/168/52 175/169/66 178/172/52
f 177/171/57 167/160/57 179/173/57
f 174/168/52 178/172/52 180/174/52
f 179/173/57 167/160/57 181/175/57
f 181/175/57 167/160/57 28/162/57
f 179/173/57 181/175/57 182/176/57
f 182/176/57 181/175/57 28/162/57
f 179/173/57 182/176/57 183/177/57
f 183/177/57 182/176/57 184/178/57
f 182/176/57 28/162/57 185/179/57
f 185/179/57 28/162/57 26/180/57
f 182/176/57 185/179/57 186/181/57
f 182/176/57 186/181/57 184/178/57
f 186/181/57 185/179/57 187/182/66
f 186/181/57 187/182/66 188/183/66
f 188/183/66 187/182/66 189/184/53
f 184/178/57 186/181/57 190/185/66
f 190/185/66 186/181/57 188/183/66
f 184/178/57 190/185/66 191/186/66
f 188/183/66 189/184/53 192/187/53
f 192/187/53 189/184/53 193/188/71
f 193/188/71 189/184/53 194/189/71
f 193/188/71 194/189/71 195/190/72
f 195/190/72 194/189/71 196/191/73
f 195/190/72 196/191/73 12/192/8
f 12/192/8 196/191/73 11/193/8
f 197/194/52 190/185/66 188/183/66
f 198/195/52 191/186/66 190/185/66
f 198/195/52 190/185/66 197/194/52
f 191/186/66 198/195/52 199/196/52
f 199/196/52 198/195/52 180/174/52
f 180/174/52 198/195/52 200/197/52
f 180/174/52 200/197/52 174/168/52
f 198/195/52 197/194/52 30/198/52
f 198/195/52 30/198/52 200/197/52
f 200/197/52 30/198/52 174/168/52
f 30/198/52 197/194/52 31/199/52
f 174/168/52 30/198/52 144/133/52
f 201/200/74 79/69/74 202/201/75
f 202/201/75 79/69/74 80/70/75
f 202/201/75 80/70/75 203/202/76
f 203/202/76 80/70/75 81/71/76
f 203/202/76 81/71/76 204/203/77
f 204/203/77 81/71/76 82/72/77
f 204/203/77 82/72/77 205/204/78
f 205/204/78 82/72/77 83/73/79
f 205/204/78 83/73/79 206/205/80
f 205/204/78 206/205/80 207/206/80
f 206/205/80 83/73/79 84/74/81
f 206/205/80 84/74/81 21/207/80
f 21/207/80 84/74/81 74/64/80
f 21/207/80 74/64/80 208/208/80
f 208/208/80 74/64/80 73/63/80
f 208/208/80 73/63/80 61/51/80
f 21/207/80 208/208/80 209/209/82
f 21/207/80 209/209/82 22/210/83
f 208/208/80 61/51/80 210/211/80
f 208/208/80 210/211/80 209/209/82
f 210/211/80 61/51/80 68/58/80
f 210/211/80 68/58/80 95/85/80
f 95/85/80 68/58/80 67/57/84
f 209/209/82 210/211/80 211/212/83
f 95/85/80 67/57/84 212/213/85
f 95/85/80 212/213/85 93/83/86
f 212/213/85 67/57/84 65/55/87
f 212/213/85 65/55/87 213/214/88
f 213/214/88 65/55/87 63/53/89
f 213/214/88 63/53/89 214/215/90
f 214/215/90 63/53/89 62/52/91
f 214/215/90 62/52/91 215/216/91
f 215/216/91 62/52/91 64/54/92
f 215/216/91 64/54/92 216/217/92
f 217/218/93 218/219/94 158/220/95
f 158/220/95 218/219/94 148/221/96
f 217/218/93 158/220/95 219/222/97
f 219/222/97 158/220/95 159/223/98
f 217/218/93 219/222/97 220/224/99
f 220/224/99 219/222/97 159/223/98
f 217/218/93 220/224/99 218/219/94
f 220/224/99 159/223/98 164/225/100
f 148/221/96 218/219/94 143/226/101
f 220/224/99 164/225/100 221/227/102
f 220/224/99 221/227/102 218/219/94
f 221/227/102 164/225/100 133/228/103
f 221/227/102 133/228/103 222/229/104
f 221/227/102 222/229/104 218/219/94
f 222/229/104 133/228/103 132/230/105
f 222/229/104 132/230/105 136/231/106
f 223/232/107 143/226/101 218/219/94
f 223/232/107 218/219/94 222/229/104
f 143/226/101 223/232/107 141/233/108
f 222/229/104 136/231/106 224/234/109
f 222/229/104 224/234/109 223/232/107
f 224/234/109 136/231/106 137/235/110
f 141/233/108 223/232/107 225/236/111
f 225/236/111 223/232/107 224/234/109
f 141/233/108 225/236/111 226/237/112
f 141/233/108 226/237/112 137/235/110
f 226/237/112 225/236/111 224/234/109
f 226/237/112 224/234/109 137/235/110
f 227/121/80 228/123/80 229/122/86
f 228/123/80 227/121/80 230/124/80
f 230/124/80 227/121/80 231/125/80
f 230/124/80 231/125/80 232/126/80
f 229/122/86 228/123/80 233/127/86
f 230/124/80 232/126/80 234/128/80
f 234/128/80 232/126/80 235/129/80
f 235/129/80 232/126/80 236/130/80
f 230/124/80 234/128/80 237/131/80
f 237/131/80 234/128/80 235/129/80
f 235/129/80 236/130/80 238/132/86
f 230/124/80 237/131/80 239/133/80
f 237/131/80 235/129/80 89/134/80
f 237/131/80 89/134/80 240/135/80
f 89/134/80 235/129/80 241/136/80
f 241/136/80 235/129/80 238/132/86
f 89/134/80 241/136/80 90/137/80
f 241/136/80 238/132/86 242/138/86
f 241/136/80 242/138/86 90/137/80
f 242/138/86 238/132/86 243/139/86
f 90/137/80 242/138/86 94/140/86
f 90/137/80 94/140/86 244/141/113
f 90/137/80 244/141/113 245/142/113
f 94/140/86 242/138/86 96/143/80
f 245/142/113 244/141/113 246/145/114
f 246/145/114 244/141/113 247/144/114
f 246/145/114 247/144/114 248/147/115
f 246/145/114 248/147/115 249/146/115
f 249/146/115 248/147/115 250/149/116
f 250/149/116 248/147/115 251/148/116
f 96/143/80 242/138/86 252/150/80
f 252/150/80 242/138/86 243/139/86
f 252/150/80 243/139/86 253/151/80
f 252/150/80 253/151/80 254/152/80
f 252/150/80 254/152/80 255/153/80
f 96/143/80 252/150/80 256/154/80
f 256/154/80 252/150/80 255/153/80
f 96/143/80 256/154/80 257/155/80
f 255/153/80 254/152/80 258/156/80
f 255/153/80 258/156/80 256/154/80
f 258/156/80 254/152/80 259/157/80
f 258/156/80 259/157/80 229/122/86
f 256/154/80 258/156/80 260/158/80
f 258/156/80 229/122/86 233/127/86
f 260/158/80 258/156/80 261/159/80
f 261/159/80 258/156/80 233/127/86
f 260/158/80 261/159/80 262/160/80
f 261/159/80 233/127/86 263/161/80
f 260/158/80 262/160/80 18/162/80
f 261/159/80 263/161/80 264/164/86
f 261/159/80 264/164/86 262/160/80
f 263/161/80 233/127/86 265/163/80
f 263/161/80 265/163/80 264/164/86
f 265/163/80 233/127/86 266/165/86
f 265/163/80 266/165/86 264/164/86
f 266/165/86 233/127/86 228/123/80
f 266/165/86 228/123/80 267/238/86
f 266/165/86 267/238/86 264/164/86
f 267/238/86 228/123/80 230/124/80
f 267/238/86 230/124/80 239/133/80
f 264/164/86 267/238/86 268/167/86
f 267/238/86 239/133/80 269/168/80
f 267/238/86 269/168/80 268/167/86
f 264/164/86 268/167/86 270/169/86
f 270/169/86 268/167/86 269/168/80
f 264/164/86 270/169/86 271/170/86
f 264/164/86 271/170/86 262/160/80
f 262/160/80 271/170/86 272/171/80
f 270/169/86 269/168/80 273/172/80
f 262/160/80 272/171/80 274/173/80
f 273/172/80 269/168/80 275/174/80
f 262/160/80 274/173/80 276/175/80
f 262/160/80 276/175/80 18/162/80
f 276/175/80 274/173/80 277/176/80
f 276/175/80 277/176/80 18/162/80
f 277/176/80 274/173/80 278/177/80
f 277/176/80 278/177/80 279/178/86
f 18/162/80 277/176/80 280/179/80
f 18/162/80 280/179/80 19/180/80
f 277/176/80 279/178/86 281/181/86
f 277/176/80 281/181/86 280/179/80
f 281/181/86 279/178/86 282/186/86
f 280/179/80 281/181/86 283/182/86
f 283/182/86 281/181/86 284/183/86
f 283/182/86 284/183/86 285/184/117
f 285/184/117 284/183/86 286/187/117
f 285/184/117 286/187/117 287/189/118
f 287/189/118 286/187/117 288/188/118
f 287/189/118 288/188/118 289/191/119
f 289/191/119 288/188/118 290/190/119
f 289/191/119 290/190/119 10/192/7
f 289/191/119 10/192/7 9/193/6
f 291/185/86 284/183/86 281/181/86
f 291/185/86 281/181/86 282/186/86
f 284/183/86 291/185/86 292/194/80
f 291/185/86 282/186/86 293/195/80
f 291/185/86 293/195/80 292/194/80
f 293/195/80 282/186/86 294/196/80
f 293/195/80 294/196/80 275/174/80
f 293/195/80 275/174/80 295/197/80
f 295/197/80 275/174/80 269/168/80
f 292/194/80 293/195/80 40/198/80
f 40/198/80 293/195/80 295/197/80
f 40/198/80 295/197/80 269/168/80
f 292/194/80 40/198/80 38/199/80
f 40/198/80 269/168/80 239/133/80
f 191/239/120 199/240/121 296/241/122
f 296/241/122 199/240/121 297/242/123
f 297/242/123 199/240/121 298/243/124
f 298/243/124 199/240/121 180/244/125
f 297/242/123 298/243/124 299/245/126
f 299/245/126 298/243/124 180/244/125
f 297/242/123 299/245/126 296/241/122
f 299/245/126 180/244/125 178/246/127
f 299/245/126 178/246/127 300/247/128
f 299/245/126 300/247/128 296/241/122
f 300/247/128 178/246/127 175/248/129
f 300/247/128 175/248/129 301/249/130
f 300/247/128 301/249/130 296/241/122
f 301/249/130 175/248/129 176/250/131
f 301/249/130 176/250/131 177/251/132
f 296/241/122 301/249/130 302/252/133
f 296/241/122 302/252/133 191/239/120
f 191/239/120 302/252/133 184/253/134
f 184/253/134 302/252/133 183/254/100
f 301/249/130 177/251/132 303/255/135
f 301/249/130 303/255/135 302/252/133
f 303/255/135 177/251/132 179/256/136
f 183/254/100 302/252/133 304/257/137
f 304/257/137 302/252/133 303/255/135
f 183/254/100 304/257/137 305/258/138
f 183/254/100 305/258/138 179/256/136
f 305/258/138 304/257/137 303/255/135
f 305/258/138 303/255/135 179/256/136
f 7/7/139 5/5/140 288/259/139
f 288/259/139 5/5/140 290/260/140
f 290/260/140 5/5/140 4/4/141
f 290/260/140 4/4/141 10/261/141
f 10/261/141 4/4/141 12/262/142
f 12/262/142 4/4/141 2/2/142
f 12/262/142 2/2/142 195/263/143
f 195/263/143 2/2/142 16/16/143
f 195/263/143 16/16/143 193/264/144
f 193/264/144 16/16/143 13/13/144
f 7/265/4 306/266/145 8/8/5
f 8/8/5 306/266/145 307/267/146
f 307/267/146 306/266/145 308/268/80
f 308/268/80 306/266/145 309/269/81
f 307/267/146 308/268/80 36/270/80
f 307/267/146 36/270/80 310/271/80
f 310/271/80 36/270/80 311/272/80
f 310/271/80 311/272/80 312/273/80
f 312/273/80 311/272/80 313/274/80
f 311/272/80 36/270/80 314/275/147
f 313/274/80 311/272/80 315/276/80
f 315/276/80 311/272/80 314/275/147
f 314/275/147 36/270/80 35/277/148
f 313/274/80 315/276/80 316/278/149
f 315/276/80 314/275/147 317/279/148
f 316/278/149 315/276/80 91/81/80
f 316/278/149 91/81/80 318/280/150
f 318/280/150 91/81/80 92/82/151
f 316/278/149 318/280/150 319/281/152
f 319/281/152 318/280/150 320/282/153
f 317/279/148 314/275/147 321/283/154
f 321/283/154 314/275/147 35/277/148
f 317/279/148 321/283/154 322/284/155
f 321/283/154 35/277/148 37/285/156
f 322/284/155 321/283/154 323/286/157
f 323/286/157 321/283/154 37/285/156
f 322/284/155 323/286/157 324/287/158
f 323/286/157 37/285/156 39/39/157
f 324/287/158 323/286/157 239/288/159
f 239/288/159 323/286/157 39/39/157
f 324/287/158 239/288/159 237/289/160
f 239/288/159 39/39/157 40/40/159
f 116/91/161 325/290/161 41/41/161
f 41/41/161 325/290/161 42/291/161
f 59/291/162 326/290/162 60/41/162
f 60/41/162 326/290/162 101/91/162
f 106/96/41 327/292/45 328/293/163
f 327/292/45 106/96/41 329/294/164
f 106/96/41 328/293/163 126/114/165
f 106/96/41 126/114/165 107/97/42
f 329/294/164 106/96/41 330/295/164
f 330/295/164 106/96/41 319/281/166
f 319/281/166 106/96/41 316/278/164
f 316/278/164 106/96/41 313/274/45
f 313/274/45 106/96/41 312/273/45
f 312/273/45 106/96/41 121/108/45
f 312/273/45 121/108/45 110/100/45
f 312/273/45 110/100/45 310/271/41
f 310/271/41 110/100/45 307/267/167
f 307/267/167 110/100/45 8/8/168
f 8/8/168 110/100/45 6/6/167
f 6/6/167 110/100/45 3/3/167
f 3/3/167 110/100/45 1/1/41
f 1/1/41 110/100/45 14/14/169
f 14/14/169 110/100/45 15/15/170
f 15/15/170 110/100/45 109/99/44
f 331/236/171 332/232/172 236/233/173
f 331/236/171 236/233/173 333/237/174
f 236/233/173 332/232/172 238/226/175
f 333/237/174 236/233/173 232/235/176
f 238/226/175 332/232/172 243/221/177
f 331/236/171 333/237/174 334/234/178
f 334/234/178 333/237/174 232/235/176
f 331/236/171 334/234/178 332/232/172
f 334/234/178 232/235/176 231/231/179
f 243/221/177 332/232/172 335/219/180
f 332/232/172 334/234/178 336/229/181
f 336/229/181 334/234/178 231/231/179
f 332/232/172 336/229/181 335/219/180
f 336/229/181 231/231/179 227/230/182
f 243/221/177 335/219/180 253/220/183
f 336/229/181 227/230/182 337/227/184
f 336/229/181 337/227/184 335/219/180
f 337/227/184 227/230/182 229/228/185
f 337/227/184 229/228/185 259/225/186
f 337/227/184 259/225/186 338/224/187
f 337/227/184 338/224/187 335/219/180
f 338/224/187 259/225/186 254/223/188
f 339/218/189 253/220/183 335/219/180
f 339/218/189 335/219/180 338/224/187
f 340/222/190 254/223/188 253/220/183
f 340/222/190 253/220/183 339/218/189
f 254/223/188 340/222/190 338/224/187
f 338/224/187 340/222/190 339/218/189
f 341/243/191 342/242/192 343/245/193
f 342/242/192 341/243/191 294/240/194
f 294/240/194 341/243/191 275/244/195
f 275/244/195 341/243/191 343/245/193
f 275/244/195 343/245/193 273/246/173
f 342/242/192 294/240/194 344/241/181
f 342/242/192 344/241/181 343/245/193
f 344/241/181 294/240/194 282/239/196
f 273/246/173 343/245/193 345/247/197
f 345/247/197 343/245/193 344/241/181
f 273/246/173 345/247/197 270/248/198
f 344/241/181 282/239/196 279/253/199
f 270/248/198 345/247/197 346/249/200
f 346/249/200 345/247/197 344/241/181
f 270/248/198 346/249/200 271/250/201
f 271/250/201 346/249/200 272/251/202
f 344/241/181 279/253/199 347/252/203
f 344/241/181 347/252/203 346/249/200
f 347/252/203 279/253/199 278/254/186
f 272/251/202 346/249/200 348/255/204
f 348/255/204 346/249/200 347/252/203
f 272/251/202 348/255/204 274/256/205
f 347/252/203 278/254/186 349/257/206
f 347/252/203 349/257/206 348/255/204
f 349/257/206 278/254/186 350/258/207
f 350/258/207 278/254/186 274/256/205
f 349/257/206 350/258/207 348/255/204
f 348/255/204 350/258/207 274/256/205
f 351/296/39 352/297/57 353/298/208
f 351/296/39 353/298/208 354/299/209
f 351/296/39 354/299/209 355/300/210
f 355/300/210 354/299/209 356/301/211
f 355/300/210 356/301/211 357/302/211
f 356/301/211 354/299/209 25/303/210
f 356/301/211 25/303/210 27/27/211
f 25/303/210 354/299/209 23/304/208
f 23/304/208 354/299/209 353/298/208
f 23/304/208 353/298/208 24/305/57
f 358/306/57 353/298/208 352/297/57
f 353/298/208 358/306/57 24/305/57
f 358/306/57 352/297/57 71/61/57
f 358/306/57 71/61/57 72/62/57
f 71/61/57 352/297/57 70/60/212
f 358/306/57 72/62/57 75/65/57
f 358/306/57 75/65/57 24/305/57
f 24/305/57 75/65/57 76/66/213
f 70/60/212 352/297/57 99/89/57
f 24/305/57 76/66/213 359/307/52
f 70/60/212 99/89/57 360/308/214
f 360/308/214 99/89/57 100/90/57
f 70/60/212 360/308/214 69/59/215
f 69/59/215 360/308/214 361/309/216
f 69/59/215 361/309/216 66/56/217
f 66/56/217 361/309/216 362/310/218
f 66/56/217 362/310/218 64/54/92
f 64/54/92 362/310/218 216/217/92
f 363/311/219 359/307/52 76/66/213
f 359/307/52 363/311/219 364/312/52
f 363/311/219 76/66/213 77/67/220
f 363/311/219 77/67/220 365/313/220
f 365/313/220 77/67/220 78/68/221
f 365/313/220 78/68/221 366/314/221
f 366/314/221 78/68/221 79/69/74
f 366/314/221 79/69/74 201/200/74
f 193/315/144 13/106/144 192/316/222
f 192/316/222 13/106/144 118/104/222
f 192/316/222 118/104/222 188/317/223
f 188/317/223 118/104/222 119/105/223
f 309/269/159 306/266/224 284/318/159
f 284/318/159 306/266/224 286/319/224
f 286/319/224 306/266/224 7/265/139
f 286/319/224 7/265/139 288/320/139
f 131/120/65 130/119/64 142/321/160
f 131/120/65 142/321/160 144/322/159
f 131/120/65 144/322/159 30/30/159
f 131/120/65 30/30/159 29/29/65
f 85/75/225 125/113/226 86/323/225
f 86/323/225 125/113/226 150/324/226
f 150/324/226 125/113/226 127/115/227
f 150/324/226 127/115/227 152/325/227
f 123/111/159 87/77/159 145/326/159
f 145/326/159 87/77/159 88/78/159
f 246/327/228 320/282/228 245/328/229
f 245/328/229 320/282/228 318/280/229
f 245/328/229 318/280/229 90/329/160
f 90/329/160 318/280/229 92/82/160
f 89/79/159 91/81/159 240/330/159
f 240/330/159 91/81/159 315/276/159
f 197/331/160 117/103/160 31/332/160
f 31/332/160 117/103/160 33/102/160
f 36/270/160 308/268/160 38/333/160
f 38/333/160 308/268/160 292/334/160
f 127/335/227 367/336/230 152/337/227
f 152/337/227 367/336/230 153/338/230
f 153/338/230 367/336/230 368/339/231
f 153/338/230 368/339/231 156/340/231
f 156/340/231 368/339/231 369/341/232
f 156/340/231 369/341/232 250/342/232
f 250/342/232 369/341/232 249/343/233
f 249/343/233 369/341/232 370/344/233
f 249/343/233 370/344/233 246/345/228
f 246/345/228 370/344/233 320/346/228
f 50/347/234 48/348/235 371/349/234
f 371/349/234 48/348/235 372/350/235
f 372/350/235 48/348/235 46/351/236
f 372/350/235 46/351/236 373/352/236
f 373/352/236 46/351/236 374/353/237
f 374/353/237 46/351/236 44/354/238
f 374/353/237 44/354/238 42/291/239
f 374/353/237 42/291/239 325/290/239
f 326/290/240 59/291/240 375/353/241
f 375/353/241 59/291/240 57/354/241
f 375/353/241 57/354/241 55/351/242
f 375/353/241 55/351/242 376/352/242
f 376/352/242 55/351/242 377/350/243
f 377/350/243 55/351/242 52/348/243
f 377/350/243 52/348/243 378/349/151
f 378/349/151 52/348/243 51/347/151
f 327/292/244 368/339/244 367/336/245
f 327/292/244 367/336/245 328/293/246
f 328/293/246 367/336/245 127/335/61
f 328/293/246 127/335/61 126/114/60
f 364/312/247 363/311/248 187/355/247
f 187/355/247 363/311/248 189/356/248
f 189/356/248 363/311/248 365/313/249
f 189/356/248 365/313/249 194/357/249
f 194/357/249 365/313/249 366/314/250
f 194/357/249 366/314/250 196/358/250
f 196/358/250 366/314/250 201/200/251
f 196/358/250 201/200/251 11/359/251
f 11/359/251 201/200/251 9/360/252
f 9/360/252 201/200/251 202/201/252
f 9/360/252 202/201/252 289/361/253
f 289/361/253 202/201/252 203/202/253
f 289/361/253 203/202/253 287/362/254
f 287/362/254 203/202/253 204/203/254
f 287/362/254 204/203/254 285/363/255
f 285/363/255 204/203/254 205/204/255
f 285/363/255 205/204/255 283/364/256
f 283/364/256 205/204/255 207/206/256
f 320/346/153 330/295/257 319/281/152
f 330/295/257 320/346/153 370/344/258
f 330/295/257 370/344/258 329/294/259
f 329/294/259 370/344/258 369/341/259
f 329/294/259 369/341/259 368/339/244
f 329/294/259 368/339/244 327/292/244
f 156/10/70 250/12/116 155/9/70
f 155/9/70 250/12/116 251/11/116
f 379/365/260 209/209/82 211/212/83
f 209/209/82 379/365/260 380/366/261
f 380/366/261 379/365/260 381/367/262
f 209/209/82 380/366/261 20/368/260
f 209/209/82 20/368/260 22/210/83
f 20/368/260 380/366/261 17/17/262
f 380/366/261 381/367/262 382/369/262
f 380/366/261 382/369/262 17/17/262
f 382/369/262 381/367/262 256/370/247
f 17/17/262 382/369/262 18/18/263
f 382/369/262 256/370/247 260/371/263
f 382/369/262 260/371/263 18/18/263
f 356/301/211 27/27/211 165/372/263
f 165/372/263 27/27/211 28/28/263
f 356/301/211 165/372/263 357/302/211
f 357/302/211 165/372/263 161/373/247
f 211/374/264 210/375/264 379/376/265
f 379/376/265 210/375/264 257/377/264
f 379/376/265 257/377/264 381/367/265
f 381/367/265 257/377/264 256/370/265
f 210/211/247 95/85/247 257/378/247
f 257/378/247 95/85/247 96/86/247
f 357/302/264 161/373/265 162/379/265
f 357/302/264 162/379/265 355/380/264
f 355/380/264 162/379/265 352/381/265
f 355/380/264 352/381/265 351/382/265
f 97/87/247 99/89/247 162/383/247
f 162/383/247 99/89/247 352/297/247
f 280/384/263 206/205/263 19/368/263
f 19/368/263 206/205/263 21/207/263
f 24/305/263 359/307/263 26/303/263
f 26/303/263 359/307/263 185/385/263
f 93/83/266 212/213/267 94/386/266
f 94/386/266 212/213/267 244/387/267
f 244/387/267 212/213/267 213/214/268
f 244/387/267 213/214/268 247/388/268
f 247/388/268 213/214/268 214/215/269
f 247/388/268 214/215/269 248/389/269
f 248/389/269 214/215/269 215/216/270
f 248/389/269 215/216/270 251/390/270
f 251/390/270 215/216/270 216/217/271
f 251/390/270 216/217/271 155/391/271
f 155/391/271 216/217/271 154/392/272
f 154/392/272 216/217/271 362/310/272
f 154/392/272 362/310/272 151/393/273
f 151/393/273 362/310/272 361/309/273
f 151/393/273 361/309/273 149/394/274
f 149/394/274 361/309/273 360/308/274
f 149/394/274 360/308/274 98/395/263
f 98/395/263 360/308/274 100/90/263
f 124/396/275 123/397/275 128/398/275
f 128/398/275 123/397/275 145/399/275
f 128/398/275 145/399/275 130/119/275
f 130/119/275 145/399/275 142/321/276
f 324/287/275 237/289/275 240/400/275
f 324/287/275 240/400/275 322/401/275
f 322/401/275 240/400/275 315/402/275
f 322/401/275 315/402/275 317/403/275
f 112/95/277 371/404/277 113/94/277
f 113/94/277 371/404/277 372/405/277
f 113/94/277 372/405/277 114/93/278
f 114/93/278 372/405/277 373/406/278
f 114/93/278 373/406/278 115/92/279
f 115/92/279 373/406/278 374/407/279
f 115/92/279 374/407/279 116/91/279
f 116/91/279 374/407/279 325/408/279
f 326/408/278 375/407/278 101/91/278
f 101/91/278 375/407/278 102/92/278
f 102/92/278 375/407/278 376/406/279
f 102/92/278 376/406/279 103/93/279
f 103/93/279 376/406/279 377/405/280
f 103/93/279 377/405/280 104/94/280
f 104/94/280 377/405/280 378/404/280
f 104/94/280 378/404/280 105/95/280
f 197/331/281 188/409/281 117/103/281
f 117/103/281 188/409/281 119/105/281
f 309/269/265 284/410/265 308/268/265
f 308/268/265 284/410/265 292/334/265
f 280/384/282 283/411/282 206/205/282
f 206/205/282 283/411/282 207/206/282
f 364/312/275 187/412/275 359/307/275
f 359/307/275 187/412/275 185/385/275
