# vertices shared and precision trimmed by tools/optimize_obj.py
v -0.30771 0.01161 0.02469
v -0.30771 0.00839 0.01751
v -0.30771 0.00639 0.01798
v -0.30771 0.0104 0.0173
v -0.30771 0.0124 0.0172
v -0.30771 0.00438 0.0186
v -0.30771 0.01265 0.02469
v -0.30771 0.00988 0.02594
v -0.30771 0.00922 0.02797
v -0.30771 0.00988 0.03
v -0.30771 0.00414 0.04005
v -0.30771 0.01161 0.03126
v -0.30771 0.01241 0.04008
v -0.30771 0.01265 0.03126
v -0.30771 0.01374 0.03126
v -0.30771 0.02071 0.04005
v -0.30771 0.01547 0.03
v -0.30771 0.01612 0.02797
v -0.30771 0.02047 0.0186
v -0.30771 0.01547 0.02594
v -0.30771 0.01374 0.02469
v -0.30771 0.01846 0.01798
v -0.30771 0.01644 0.01751
v -0.30771 0.01442 0.0173
v -0.30599 0.01265 0.02826
v -0.30599 0.01 0.02602
v -0.30599 0.00937 0.02797
v -0.30599 0.01165 0.02482
v -0.30599 0.01 0.02991
v -0.30599 0.01265 0.02482
v -0.30599 0.01165 0.03112
v -0.30599 0.0137 0.02482
v -0.30599 0.01265 0.03112
v -0.30599 0.01535 0.02602
v -0.30599 0.0137 0.03112
v -0.30599 0.01598 0.02797
v -0.30599 0.01535 0.02991
v -0.30759 0.0137 0.02482
v -0.30759 0.01265 0.02482
v -0.30759 0.01165 0.02482
v -0.30759 0.01535 0.02602
v -0.30759 0.01598 0.02797
v -0.30759 0.01535 0.02991
v -0.30759 0.0137 0.03112
v -0.30759 0.01265 0.03112
v -0.30759 0.01165 0.03112
v -0.30736 0.0124 0.04042
v -0.30736 0.00448 0.04042
v -0.30759 0.01 0.02602
v -0.30759 0.00937 0.02797
v -0.30759 0.01 0.02991
v -0.30731 0.02037 0.04042
v -0.30121 0.02668 0.03641
v -0.30121 0.02668 0.01839
v -0.3012 -0.00192 0.03641
v -0.3012 -0.00192 0.01839
v -0.30711 0.00405 0.04037
v -0.30699 0.02101 0.04024
v -0.30081 0.02662 0.03682
v -0.30056 -0.00216 0.03664
v -0.30061 0.02692 0.01839
v -0.30061 0.02692 0.03629
v -0.30061 -0.00216 0.01839
v -0.27571 0.02101 0.04024
v -0.27571 0.02037 0.04042
v -0.27571 0.00385 0.04024
v -0.27571 0.00449 0.04042
v -0.27571 0.02662 0.03682
v -0.27571 0.0124 0.04042
v -0.27571 0.00089 0.03847
v -0.27537 0.00056 0.03827
v -0.27537 -0.00216 0.03664
v -0.25667 0.00038 0.03817
v -0.25667 -0.00216 0.03664
v -0.25632 0.00104 0.03821
v -0.27537 0.00122 0.03832
v -0.27571 0.02692 0.03629
v -0.25632 0.00186 0.03793
v -0.27537 0.00204 0.03803
v -0.27571 0.02692 0.01839
v -0.25667 -0.00216 0.03099
v -0.27537 -0.00216 0.03108
v -0.27571 -0.00216 0.03057
v -0.27571 -0.00216 0.01839
v -0.27537 -0.00182 0.03074
v -0.25632 -0.00182 0.03065
v -0.27537 0.0124 0.01839
v -0.27537 0.02657 0.01839
v -0.27537 -0.00182 0.01839
v -0.25632 -0.00098 0.03065
v -0.27537 -0.00098 0.03074
v -0.25632 -0.00098 0.03625
v -0.27537 -0.00098 0.03625
v -0.27537 0.02665 0.0363
v -0.25632 -0.00178 0.03651
v -0.27537 0.02059 0.04009
v -0.27537 0.00427 0.04008
v -0.27537 0.0124 0.04008
vt 0.619141 0.400635
vt 0.627441 0.396728
vt 0.626953 0.394287
vt 0.62793 0.399170
vt 0.62793 0.401611
vt 0.626465 0.391602
vt 0.619141 0.401855
vt 0.617676 0.398438
vt 0.615234 0.397705
vt 0.612793 0.398438
vt 0.600586 0.391602
vt 0.611328 0.400635
vt 0.600586 0.401611
vt 0.611328 0.401855
vt 0.611328 0.403076
vt 0.600586 0.411621
vt 0.612793 0.405273
vt 0.615234 0.406006
vt 0.626465 0.411621
vt 0.617676 0.405273
vt 0.619141 0.403076
vt 0.626953 0.408936
vt 0.62793 0.406494
vt 0.62793 0.404053
vt 0.542481 0.402100
vt 0.546387 0.403564
vt 0.546387 0.401123
vt 0.544922 0.405518
vt 0.544922 0.399170
vt 0.543945 0.406006
vt 0.542481 0.398438
vt 0.542481 0.406250
vt 0.541016 0.398682
vt 0.540039 0.405762
vt 0.540039 0.399170
vt 0.538574 0.403809
vt 0.538574 0.401367
vt 0.618652 0.403076
vt 0.618652 0.401855
vt 0.618652 0.400635
vt 0.617676 0.405029
vt 0.615234 0.405762
vt 0.612793 0.405029
vt 0.600098 0.401611
vt 0.600098 0.392090
vt 0.617188 0.398682
vt 0.615234 0.397949
vt 0.612793 0.398682
vt 0.600098 0.411133
vt 0.603027 0.415772
vt 0.592773 0.420166
vt 0.603027 0.441895
vt 0.592773 0.441895
vt 0.603027 0.387207
vt 0.603027 0.361084
vt 0.592773 0.382812
vt 0.592773 0.361084
vt 0.599609 0.391602
vt 0.599609 0.411621
vt 0.592285 0.419678
vt 0.591797 0.383057
vt 0.591797 0.441895
vt 0.591797 0.420410
vt 0.591797 0.361084
vt 0.562012 0.411621
vt 0.562012 0.411133
vt 0.562012 0.391602
vt 0.562012 0.392090
vt 0.562012 0.419678
vt 0.562012 0.401611
vt 0.562012 0.387207
vt 0.561035 0.386719
vt 0.561035 0.383057
vt 0.538574 0.386719
vt 0.538574 0.383057
vt 0.538086 0.386963
vt 0.561035 0.387695
vt 0.562012 0.420410
vt 0.538086 0.388428
vt 0.561035 0.388428
vt 0.562012 0.441650
vt 0.538574 0.376465
vt 0.561035 0.376465
vt 0.562012 0.375732
vt 0.562012 0.361084
vt 0.553711 0.402100
vt 0.555664 0.402100
vt 0.555664 0.399658
vt 0.553711 0.399658
vt 0.555664 0.397461
vt 0.553711 0.397461
vt 0.553711 0.414795
vt 0.553711 0.416016
vt 0.555664 0.414795
vt 0.555664 0.416016
vt 0.555664 0.413574
vt 0.553711 0.413574
vt 0.555664 0.411377
vt 0.553711 0.411377
vt 0.555664 0.408936
vt 0.553711 0.408936
vt 0.555664 0.406738
vt 0.553711 0.406738
vt 0.555664 0.404297
vt 0.553711 0.404297
vt 0.555664 0.403320
vt 0.553711 0.403320
vt 0.561035 0.375977
vt 0.538086 0.375977
vt 0.600586 0.468994
vt 0.561523 0.459228
vt 0.592773 0.476562
vt 0.592773 0.442139
vt 0.600586 0.449463
vt 0.561035 0.441895
vt 0.591797 0.476807
vt 0.562012 0.476807
vt 0.561035 0.476318
vt 0.538086 0.375000
vt 0.561035 0.375000
vt 0.538086 0.368164
vt 0.561035 0.368164
vt 0.553711 0.418213
vt 0.555664 0.418213
vt 0.553711 0.420654
vt 0.555664 0.420654
vt 0.600586 0.456787
vt 0.600586 0.459228
vt 0.600586 0.461426
vt 0.600586 0.454346
vt 0.600586 0.463867
vt 0.600586 0.451904
vt 0.600586 0.466309
vt 0.538086 0.392334
vt 0.561035 0.392334
vt 0.561035 0.420166
vt 0.538086 0.383057
vt 0.561035 0.411621
vt 0.561035 0.391846
vt 0.561035 0.401611
vt 0.561035 0.361084
vt 0.537109 0.376221
vt 0.537109 0.383301
vt 0.537109 0.387451
vt 0.546387 0.476318
vt 0.546387 0.475342
vt 0.540039 0.475342
vt 0.537598 0.471680
vt 0.535156 0.468994
vt 0.535156 0.459228
vt 0.535156 0.449219
vt 0.540039 0.441895
vn -0.9921 0 0
vn -0.7874 -0.1969 0.5669
vn -0.7559 0 0.6457
vn -0.7717 -0.1969 0.5984
vn -0.7795 0.1654 0.5906
vn -0.7638 0.1654 0.6142
vn -0.7795 -0.5197 0.3386
vn -0.7638 -0.6378 -0.0236
vn -0.7638 -0.5197 -0.3701
vn -0.7717 -0.1969 -0.5984
vn -0.7323 0 -0.6693
vn -0.7638 0.1732 -0.6142
vn -0.748 -0.0236 0.6535
vn -0.7795 0.4961 0.3622
vn -0.7795 0.622 0
vn -0.7638 0.4961 -0.3937
vn -0.6929 0 0.7165
vn -0.6772 0.7244 -0.0157
vn -0.6693 -0.7323 0
vn -0.4961 -0.3937 0.7638
vn -0.4094 0.4094 0.8031
vn -0.4252 0.748 0.5039
vn -0.4173 -0.7638 0.4724
vn -0.3465 0.9291 -0.0157
vn -0.3622 -0.9291 -0.0157
vn -0.2913 0.8661 0.3937
vn 0 0.2441 0.9606
vn 0 -0.2283 0.9685
vn 0 0.4961 0.8661
vn 0 0 0.9921
vn 0 -0.5197 0.8504
vn -0.0157 -0.5276 0.8425
vn 0 -0.0787 0.9921
vn 0 0.8661 0.4961
vn 0 0.315 0.9449
vn 0.0157 0.9921 0
vn 0 -0.9921 0
vn 0 0.2913 0.9528
vn 0 0.7953 0.5984
vn 0 -0.0157 -0.9921
vn 0 0.2913 -0.9528
vn 0 -0.315 -0.9449
vn 0 -0.811 -0.5748
vn 0 -0.8189 0.5669
vn 0 -0.315 0.9449
vn 0 -0.7165 -0.6929
vn 0 0.0157 -0.9921
vn 0 0 -1
vn 0 -0.0315 -0.9921
vn 0 0.7953 -0.5984
vn 0.0472 0.0315 -0.9921
vn 0.0472 -0.063 -0.9921
vn 0.0472 0.0866 -0.9921
vn 0.0472 -0.1102 -0.9921
vn 0.0551 0.2126 -0.9685
vn 0.0551 -0.2362 -0.9685
vn 0.0787 0.2913 -0.9449
vn 0.0787 -0.315 -0.937
vn 0 0.4961 -0.8661
vn 0.4409 -0.063 0.8898
vn 0.5354 0.7244 0.4252
vn 0.6378 -0.4016 0.6457
vn 0.5906 0.1969 0.7717
vn 0.6063 -0.2283 0.7559
vn 0.6614 -0.3701 0.6378
vn 0.7008 -0.0236 0.7008
vn 0.6693 0.7323 0
vn 0.7165 -0.6929 0
vn 0.7323 0.3386 0.5748
vn 0.6929 -0.7165 0
vn 0.7244 -0.5039 -0.4567
vn 0.9921 -0.0079 0.0157
vn 0.9921 -0.0157 0
# Converted from CSMC meshbin by CsmcAssetConverter
# source: weapon_snip_awp_legacy_weapon_snip_awp.body_legacy.meshbin
# source center: 16.66426 -0.5667131 7.678146
# source scale: 0.02323252
# Coordinates are preserved exactly as stored by CSMC.
# Basis conversion and mesh-normalization conjugation happen at runtime.
o v_weapon_awp_bolt_rail
f 1/1/1 2/2/1 3/3/1
f 2/2/1 1/1/1 4/4/1
f 4/4/1 1/1/1 5/5/1
f 1/1/1 3/3/1 6/6/1
f 5/5/1 1/1/1 7/7/1
f 1/1/1 6/6/1 8/8/1
f 8/8/1 6/6/1 9/9/1
f 9/9/1 6/6/1 10/10/1
f 10/10/1 6/6/1 11/11/1
f 10/10/1 11/11/1 12/12/1
f 12/12/1 11/11/1 13/13/1
f 12/12/1 13/13/1 14/14/1
f 14/14/1 13/13/1 15/15/1
f 15/15/1 13/13/1 16/16/1
f 15/15/1 16/16/1 17/17/1
f 17/17/1 16/16/1 18/18/1
f 18/18/1 16/16/1 19/19/1
f 18/18/1 19/19/1 20/20/1
f 20/20/1 19/19/1 21/21/1
f 21/21/1 19/19/1 22/22/1
f 21/21/1 22/22/1 23/23/1
f 21/21/1 23/23/1 24/24/1
f 21/21/1 24/24/1 5/5/1
f 21/21/1 5/5/1 7/7/1
f 25/25/1 26/26/1 27/27/1
f 26/26/1 25/25/1 28/28/1
f 25/25/1 27/27/1 29/29/1
f 28/28/1 25/25/1 30/30/1
f 25/25/1 29/29/1 31/31/1
f 30/30/1 25/25/1 32/32/1
f 25/25/1 31/31/1 33/33/1
f 32/32/1 25/25/1 34/34/1
f 25/25/1 33/33/1 35/35/1
f 34/34/1 25/25/1 36/36/1
f 25/25/1 35/35/1 37/37/1
f 25/25/1 37/37/1 36/36/1
f 21/21/2 7/7/3 38/38/4
f 38/38/4 7/7/3 39/39/3
f 39/39/3 7/7/3 1/1/5
f 39/39/3 1/1/5 40/40/6
f 21/21/2 38/38/4 41/41/7
f 21/21/2 41/41/7 20/20/7
f 20/20/7 41/41/7 42/42/8
f 20/20/7 42/42/8 18/18/8
f 18/18/8 42/42/8 43/43/9
f 18/18/8 43/43/9 17/17/9
f 17/17/9 43/43/9 44/15/10
f 17/17/9 44/15/10 15/15/10
f 15/15/10 44/15/10 45/14/11
f 15/15/10 45/14/11 14/14/11
f 14/14/11 45/14/11 46/12/12
f 14/14/11 46/12/12 12/12/12
f 47/44/13 13/13/13 48/45/13
f 48/45/13 13/13/13 11/11/13
f 40/40/6 1/1/5 8/8/14
f 40/40/6 8/8/14 49/46/14
f 49/46/14 8/8/14 9/9/15
f 49/46/14 9/9/15 50/47/15
f 50/47/15 9/9/15 10/10/16
f 50/47/15 10/10/16 51/48/16
f 51/48/16 10/10/16 12/12/12
f 51/48/16 12/12/12 46/12/12
f 52/49/17 16/16/17 47/44/17
f 47/44/17 16/16/17 13/13/17
f 16/50/18 53/51/18 19/52/18
f 19/52/18 53/51/18 54/53/18
f 11/54/19 6/55/19 55/56/19
f 55/56/19 6/55/19 56/57/19
f 48/45/20 11/11/20 57/58/20
f 58/59/21 16/16/21 52/49/21
f 53/51/22 16/16/22 59/60/22
f 59/60/22 16/16/22 58/59/22
f 57/58/23 11/11/23 60/61/23
f 60/61/23 11/11/23 55/56/23
f 61/62/24 54/53/24 62/63/24
f 62/63/24 54/53/24 53/51/24
f 60/61/25 55/56/25 63/64/25
f 63/64/25 55/56/25 56/57/25
f 59/60/26 62/63/26 53/51/26
f 58/59/27 52/49/27 64/65/27
f 64/65/27 52/49/27 65/66/27
f 66/67/28 67/68/28 57/58/28
f 57/58/28 67/68/28 48/45/28
f 68/69/29 59/60/29 64/65/29
f 64/65/29 59/60/29 58/59/29
f 65/66/30 52/49/30 69/70/30
f 69/70/30 52/49/30 47/44/30
f 69/70/30 47/44/30 67/68/30
f 67/68/30 47/44/30 48/45/30
f 70/71/31 66/67/31 57/58/31
f 70/71/31 57/58/31 71/72/31
f 71/72/31 57/58/31 60/61/31
f 71/72/31 60/61/31 72/73/31
f 71/72/31 72/73/31 73/74/32
f 73/74/32 72/73/31 74/75/32
f 73/74/33 75/76/33 71/72/33
f 71/72/33 75/76/33 76/77/33
f 62/63/34 59/60/34 77/78/34
f 77/78/34 59/60/34 68/69/34
f 78/79/35 79/80/35 75/76/35
f 75/76/35 79/80/35 76/77/35
f 77/78/36 80/81/36 62/63/36
f 62/63/36 80/81/36 61/62/36
f 74/75/37 72/73/37 81/82/37
f 81/82/37 72/73/37 82/83/37
f 82/83/37 72/73/37 83/84/37
f 83/84/37 72/73/37 60/61/37
f 83/84/37 60/61/37 63/64/37
f 83/84/37 63/64/37 84/85/37
f 28/86/38 40/87/38 49/88/39
f 28/86/38 49/88/39 26/89/39
f 26/89/39 49/88/39 50/90/36
f 26/89/39 50/90/36 27/91/36
f 33/92/40 31/93/41 45/94/40
f 45/94/40 31/93/41 46/95/41
f 33/92/40 45/94/40 44/96/42
f 33/92/40 44/96/42 35/97/42
f 35/97/42 44/96/42 43/98/43
f 35/97/42 43/98/43 37/99/43
f 37/99/43 43/98/43 42/100/37
f 37/99/43 42/100/37 36/101/37
f 36/101/37 42/100/37 41/102/44
f 36/101/37 41/102/44 34/103/44
f 34/103/44 41/102/44 38/104/45
f 34/103/44 38/104/45 32/105/45
f 32/105/45 38/104/45 39/106/30
f 32/105/45 39/106/30 30/107/30
f 30/107/30 39/106/30 40/87/38
f 30/107/30 40/87/38 28/86/38
f 82/83/46 85/108/46 81/82/46
f 81/82/46 85/108/46 86/109/46
f 6/110/47 87/111/47 56/112/48
f 54/113/49 87/111/49 19/114/49
f 87/111/49 54/113/49 61/62/40
f 87/111/49 61/62/40 80/81/40
f 87/111/49 80/81/40 88/115/40
f 87/111/49 63/116/40 56/112/48
f 63/116/40 87/111/49 84/117/40
f 84/117/40 87/111/49 89/118/40
f 90/119/36 91/120/36 92/121/36
f 92/121/36 91/120/36 93/122/36
f 46/95/41 31/93/41 29/123/50
f 46/95/41 29/123/50 51/124/50
f 51/124/50 29/123/50 27/125/36
f 51/124/50 27/125/36 50/126/36
f 24/127/51 87/111/51 5/128/51
f 5/128/52 87/111/52 4/129/52
f 23/130/53 87/111/53 24/127/53
f 4/129/54 87/111/54 2/131/54
f 22/132/55 87/111/55 23/130/55
f 2/131/56 87/111/56 3/133/56
f 19/114/57 87/111/57 22/132/57
f 3/133/58 87/111/58 6/110/58
f 91/120/40 90/119/40 85/108/40
f 85/108/40 90/119/40 86/109/40
f 92/134/59 93/135/59 78/79/59
f 78/79/59 93/135/59 79/80/59
f 71/72/60 76/77/60 70/71/60
f 68/69/61 94/136/61 77/78/61
f 74/75/62 95/137/62 73/74/62
f 73/74/62 95/137/62 75/76/62
f 96/138/63 64/65/63 65/66/63
f 66/67/64 97/139/64 67/68/64
f 97/139/65 66/67/65 76/77/65
f 76/77/65 66/67/65 70/71/65
f 67/68/66 97/139/66 69/70/66
f 69/70/66 97/139/66 98/140/66
f 69/70/66 98/140/66 96/138/66
f 69/70/66 96/138/66 65/66/66
f 88/115/67 80/81/67 94/136/67
f 94/136/67 80/81/67 77/78/67
f 81/82/68 86/109/68 74/75/68
f 74/75/68 86/109/68 95/137/68
f 64/65/69 96/138/69 68/69/69
f 68/69/69 96/138/69 94/136/69
f 85/108/70 83/84/70 89/141/70
f 89/141/70 83/84/70 84/85/70
f 83/84/71 85/108/71 82/83/71
f 90/142/72 92/143/72 86/109/72
f 86/109/72 92/143/72 95/137/72
f 95/137/72 92/143/72 78/144/72
f 95/137/72 78/144/72 75/76/72
f 97/139/72 76/77/72 79/80/72
f 89/118/73 87/111/73 85/145/73
f 85/145/73 87/111/73 91/146/73
f 91/146/73 87/111/73 93/147/73
f 93/147/73 87/111/73 79/148/73
f 79/148/73 87/111/73 97/149/72
f 97/149/72 87/111/73 98/150/72
f 98/150/72 87/111/73 96/151/72
f 96/151/72 87/111/73 94/152/72
f 94/152/72 87/111/73 88/115/72
