# vertices shared and precision trimmed by tools/optimize_obj.py
v -0.27212 0.01678 -0.05227
v -0.27212 0.01243 -0.05227
v -0.27603 0.01678 -0.05262
v -0.27603 0.01243 -0.05262
v -0.2819 0.01678 -0.05096
v -0.27603 0.00807 -0.05262
v -0.27212 0.00807 -0.05227
v -0.2819 0.00807 -0.05096
v -0.2819 0.01243 -0.05096
v -0.28681 0.01243 -0.04751
v -0.28681 0.01678 -0.04751
v -0.28681 0.00807 -0.04751
v -0.28992 0.01678 -0.04248
v -0.28992 0.00807 -0.04248
v -0.28992 0.01243 -0.04248
v -0.29091 0.01243 -0.03655
v -0.29091 0.01678 -0.03655
v -0.29091 0.00807 -0.03655
v -0.29058 0.01243 -0.0297
v -0.29058 0.01678 -0.0297
v -0.29058 0.00807 -0.0297
v -0.28888 0.01243 -0.01602
v -0.28888 0.01678 -0.01602
v -0.28888 0.00807 -0.01602
v -0.27158 0.01727 -0.05182
v -0.27589 0.01727 -0.05212
v -0.28166 0.01727 -0.05052
v -0.28643 0.01727 -0.04719
v -0.28945 0.01727 -0.04235
v -0.29042 0.01727 -0.03652
v -0.2901 0.01727 -0.02972
v -0.28839 0.01727 -0.01604
v -0.28839 0.00759 -0.01604
v -0.2901 0.00759 -0.02972
v -0.29042 0.00759 -0.03652
v -0.28945 0.00759 -0.04235
v -0.28643 0.00759 -0.04719
v -0.28166 0.00759 -0.05052
v -0.27589 0.00759 -0.05212
v -0.27158 0.00759 -0.05182
v -0.2715 0.01727 -0.05091
v -0.27527 0.01727 -0.04993
v -0.28036 0.01727 -0.04823
v -0.28413 0.01727 -0.04526
v -0.28619 0.01727 -0.04145
v -0.28671 0.01727 -0.03633
v -0.286 0.01727 -0.02995
v -0.28388 0.01727 -0.01628
v -0.2715 0.00759 -0.05091
v -0.27527 0.00759 -0.04993
v -0.27158 0.01243 -0.05182
v -0.28036 0.00759 -0.04823
v -0.27149 0.01243 -0.0509
v -0.28413 0.00759 -0.04526
v -0.28619 0.00759 -0.04145
v -0.28671 0.00759 -0.03633
v -0.286 0.00759 -0.02995
v -0.28388 0.00759 -0.01628
v -0.2719 0.01678 -0.05024
v -0.27514 0.01678 -0.04946
v -0.28013 0.01678 -0.0478
v -0.28375 0.01678 -0.04495
v -0.28572 0.01678 -0.04131
v -0.28622 0.01678 -0.0363
v -0.28551 0.01678 -0.02998
v -0.2834 0.01678 -0.0163
v -0.2834 0.00807 -0.0163
v -0.28551 0.00807 -0.02998
v -0.28622 0.00807 -0.0363
v -0.28572 0.00807 -0.04131
v -0.28375 0.00807 -0.04495
v -0.28013 0.00807 -0.0478
v -0.27514 0.00807 -0.04946
v -0.2719 0.00807 -0.05024
v -0.2719 0.01243 -0.05024
v -0.2834 0.01243 -0.0163
v -0.28551 0.01243 -0.02998
v -0.28622 0.01243 -0.0363
v -0.28572 0.01243 -0.04131
v -0.28375 0.01243 -0.04495
v -0.28013 0.01243 -0.0478
v -0.27514 0.01243 -0.04946
vt 0.708496 0.812012
vt 0.708496 0.803711
vt 0.700684 0.812012
vt 0.700684 0.803711
vt 0.688965 0.812012
vt 0.700684 0.795410
vt 0.708496 0.795410
vt 0.688965 0.795410
vt 0.688965 0.803711
vt 0.677246 0.803711
vt 0.677246 0.812012
vt 0.677246 0.795410
vt 0.666016 0.812012
vt 0.666016 0.795410
vt 0.666016 0.803711
vt 0.654297 0.803711
vt 0.654297 0.812012
vt 0.654297 0.795410
vt 0.641113 0.803711
vt 0.641113 0.812012
vt 0.641113 0.795410
vt 0.614258 0.803711
vt 0.614258 0.812012
vt 0.614258 0.795410
vt 0.449951 0.920898
vt 0.449707 0.919434
vt 0.442627 0.916992
vt 0.443115 0.916016
vt 0.431885 0.915527
vt 0.432129 0.914551
vt 0.421631 0.914551
vt 0.421875 0.913086
vt 0.411865 0.913574
vt 0.411621 0.912109
vt 0.401367 0.913574
vt 0.401123 0.912109
vt 0.388916 0.913574
vt 0.388672 0.912109
vt 0.362549 0.913086
vt 0.362549 0.912109
vt 0.362549 0.949219
vt 0.388672 0.949219
vt 0.362549 0.948242
vt 0.388916 0.947754
vt 0.401123 0.949219
vt 0.401367 0.947754
vt 0.411621 0.949219
vt 0.411865 0.947754
vt 0.421875 0.948242
vt 0.421631 0.946777
vt 0.432129 0.947266
vt 0.431885 0.945801
vt 0.443115 0.945312
vt 0.442627 0.944336
vt 0.449707 0.941894
vt 0.449951 0.940430
vt 0.448975 0.921875
vt 0.44165 0.921387
vt 0.430908 0.920898
vt 0.421387 0.920410
vt 0.412353 0.920410
vt 0.401855 0.920898
vt 0.38916 0.921387
vt 0.362549 0.921875
vt 0.448975 0.939941
vt 0.44165 0.939941
vt 0.450684 0.930664
vt 0.430908 0.940430
vt 0.448975 0.930664
vt 0.421387 0.940918
vt 0.412353 0.940918
vt 0.401855 0.940430
vt 0.38916 0.939941
vt 0.362549 0.939453
vt 0.709473 0.812988
vt 0.709473 0.803711
vt 0.709473 0.794434
vt 0.44751 0.922852
vt 0.441162 0.922363
vt 0.430664 0.922363
vt 0.421143 0.921875
vt 0.412353 0.921875
vt 0.4021 0.922363
vt 0.389404 0.922363
vt 0.362549 0.922852
vt 0.362549 0.938965
vt 0.389404 0.938965
vt 0.4021 0.938965
vt 0.412353 0.939453
vt 0.421143 0.939453
vt 0.430664 0.939453
vt 0.441162 0.938965
vt 0.44751 0.938965
vt 0.447266 0.930664
vt 0.362549 0.930664
vt 0.389404 0.930664
vt 0.4021 0.930664
vt 0.412353 0.930664
vt 0.420898 0.930664
vt 0.43042 0.930664
vt 0.440674 0.930664
vn 0.1024 -0.0157 -0.9921
vn -0.0866 -0.0157 -0.9921
vn -0.4252 -0.0157 -0.8976
vn -0.7244 -0.0157 -0.6772
vn -0.7165 0 -0.6929
vn -0.9213 0 -0.3701
vn -0.9291 -0.0157 -0.3543
vn -0.9921 -0.0157 -0.0472
vn -0.9921 0 -0.063
vn -0.9921 0 0.063
vn -0.9921 0 0.1024
vn 0.063 0.6535 -0.748
vn -0.0394 0.6929 -0.7165
vn -0.063 0.6772 -0.7244
vn -0.2835 0.7008 -0.6457
vn -0.4803 0.7008 -0.5118
vn -0.6457 0.7008 -0.2835
vn -0.7008 0.7008 -0.063
vn -0.7165 0.6929 0.0394
vn -0.7087 0.685 0.0945
vn -0.7008 -0.7008 0.0709
vn -0.7008 -0.7008 0.0236
vn -0.6929 -0.7165 -0.0394
vn -0.6378 -0.7165 -0.252
vn -0.4803 -0.7244 -0.4803
vn -0.2835 -0.7244 -0.622
vn -0.063 -0.7008 -0.7008
vn -0.0394 -0.7165 -0.6929
vn 0.063 -0.6772 -0.7244
vn 0.6772 0.7244 -0.0709
vn 0 0.9921 -0.0157
vn 0.6693 -0.7402 -0.0394
vn 0 -0.9921 0
vn 0.9921 -0.0157 -0.063
vn 0.6535 -0.0157 -0.748
vn 0.1417 0.7087 0.685
vn 0.1654 0.6929 0.6929
vn 0.315 0.685 0.6535
vn 0.5118 0.7008 0.4803
vn 0.6614 0.7087 0.2205
vn 0.7165 0.6929 0
vn 0.7165 0.685 -0.0945
vn 0.7008 0.7008 -0.1181
vn 0.685 -0.7165 -0.0945
vn 0.7008 -0.7008 -0.063
vn 0.7008 -0.7008 0.0236
vn 0.6535 -0.7244 0.1969
vn 0.5118 -0.7244 0.4488
vn 0.315 -0.7087 0.622
vn 0.1654 -0.7165 0.6693
vn 0.1417 -0.7323 0.6614
vn 0.8583 -0.0157 0.5039
vn 0.8504 0 0.5197
vn 0.9843 -0.0157 -0.1181
vn 0.9921 0 -0.1181
vn 0.9921 0 0
vn 0.9528 0 0.2913
vn 0.7559 0 0.6457
vn 0.4724 0 0.874
vn 0.4803 -0.0157 0.874
vn 0.2756 -0.0157 0.9528
vn 0.2677 0 0.9606
vn 0.2283 -0.0157 0.9685
vn 0.2283 0 0.9685
# Converted from CSMC meshbin by CsmcAssetConverter
# source: weapon_snip_awp_legacy_weapon_snip_awp.body_legacy.meshbin
# source center: 16.66426 -0.5667131 7.678146
# source scale: 0.02323252
# Coordinates are preserved exactly as stored by CSMC.
# Basis conversion and mesh-normalization conjugation happen at runtime.
o v_weapon_awp_trigger
f 1/1/1 2/2/1 3/3/2
f 3/3/2 2/2/1 4/4/2
f 3/3/2 4/4/2 5/5/3
f 4/4/2 2/2/1 6/6/2
f 6/6/2 2/2/1 7/7/1
f 4/4/2 6/6/2 8/8/3
f 5/5/3 4/4/2 9/9/3
f 9/9/3 4/4/2 8/8/3
f 5/5/3 9/9/3 10/10/4
f 10/10/4 9/9/3 8/8/3
f 5/5/3 10/10/4 11/11/5
f 10/10/4 8/8/3 12/12/4
f 11/11/5 10/10/4 13/13/6
f 10/10/4 12/12/4 14/14/7
f 13/13/6 10/10/4 15/15/7
f 15/15/7 10/10/4 14/14/7
f 13/13/6 15/15/7 16/16/8
f 16/16/8 15/15/7 14/14/7
f 13/13/6 16/16/8 17/17/9
f 16/16/8 14/14/7 18/18/8
f 17/17/9 16/16/8 19/19/10
f 19/19/10 16/16/8 18/18/8
f 17/17/9 19/19/10 20/20/10
f 19/19/10 18/18/8 21/21/10
f 20/20/10 19/19/10 22/22/11
f 22/22/11 19/19/10 21/21/10
f 20/20/10 22/22/11 23/23/11
f 22/22/11 21/21/10 24/24/11
f 25/25/12 1/26/12 26/27/13
f 26/27/13 1/26/12 3/28/14
f 26/27/13 3/28/14 27/29/15
f 27/29/15 3/28/14 5/30/15
f 27/29/15 5/30/15 28/31/16
f 28/31/16 5/30/15 11/32/16
f 28/31/16 11/32/16 29/33/17
f 29/33/17 11/32/16 13/34/17
f 29/33/17 13/34/17 30/35/18
f 30/35/18 13/34/17 17/36/18
f 30/35/18 17/36/18 31/37/19
f 31/37/19 17/36/18 20/38/19
f 31/37/19 20/38/19 32/39/20
f 32/39/20 20/38/19 23/40/20
f 24/41/21 21/42/22 33/43/21
f 33/43/21 21/42/22 34/44/22
f 34/44/22 21/42/22 18/45/23
f 34/44/22 18/45/23 35/46/23
f 35/46/23 18/45/23 14/47/24
f 35/46/23 14/47/24 36/48/24
f 36/48/24 14/47/24 12/49/25
f 36/48/24 12/49/25 37/50/25
f 37/50/25 12/49/25 8/51/26
f 37/50/25 8/51/26 38/52/26
f 38/52/26 8/51/26 6/53/27
f 38/52/26 6/53/27 39/54/28
f 39/54/28 6/53/27 7/55/29
f 39/54/28 7/55/29 40/56/29
f 41/57/30 25/25/30 42/58/31
f 42/58/31 25/25/30 26/27/31
f 42/58/31 26/27/31 43/59/31
f 43/59/31 26/27/31 27/29/31
f 43/59/31 27/29/31 44/60/31
f 44/60/31 27/29/31 28/31/31
f 44/60/31 28/31/31 29/33/31
f 44/60/31 29/33/31 45/61/31
f 45/61/31 29/33/31 30/35/31
f 45/61/31 30/35/31 46/62/31
f 46/62/31 30/35/31 31/37/31
f 46/62/31 31/37/31 47/63/31
f 47/63/31 31/37/31 32/39/31
f 47/63/31 32/39/31 48/64/31
f 49/65/32 50/66/33 40/56/32
f 40/56/32 50/66/33 39/54/33
f 49/65/32 40/56/32 51/67/34
f 39/54/33 50/66/33 52/68/33
f 49/65/32 51/67/34 53/69/34
f 53/69/34 51/67/34 41/57/30
f 41/57/30 51/67/34 25/25/30
f 39/54/33 52/68/33 38/52/33
f 38/52/33 52/68/33 54/70/33
f 38/52/33 54/70/33 37/50/33
f 37/50/33 54/70/33 36/48/33
f 36/48/33 54/70/33 55/71/33
f 36/48/33 55/71/33 35/46/33
f 35/46/33 55/71/33 56/72/33
f 35/46/33 56/72/33 34/44/33
f 34/44/33 56/72/33 57/73/33
f 34/44/33 57/73/33 33/43/33
f 33/43/33 57/73/33 58/74/33
f 1/1/35 25/75/35 2/2/35
f 2/2/35 25/75/35 51/76/35
f 2/2/35 51/76/35 40/77/35
f 2/2/35 40/77/35 7/7/35
f 59/78/36 41/57/36 60/79/37
f 60/79/37 41/57/36 42/58/37
f 60/79/37 42/58/37 61/80/38
f 61/80/38 42/58/37 43/59/38
f 61/80/38 43/59/38 62/81/39
f 62/81/39 43/59/38 44/60/39
f 62/81/39 44/60/39 63/82/40
f 63/82/40 44/60/39 45/61/40
f 63/82/40 45/61/40 64/83/41
f 64/83/41 45/61/40 46/62/41
f 64/83/41 46/62/41 65/84/42
f 65/84/42 46/62/41 47/63/42
f 65/84/42 47/63/42 66/85/43
f 66/85/43 47/63/42 48/64/43
f 58/74/44 57/73/45 67/86/44
f 67/86/44 57/73/45 68/87/45
f 68/87/45 57/73/45 56/72/46
f 68/87/45 56/72/46 69/88/46
f 69/88/46 56/72/46 55/71/47
f 69/88/46 55/71/47 70/89/47
f 70/89/47 55/71/47 54/70/48
f 70/89/47 54/70/48 71/90/48
f 71/90/48 54/70/48 52/68/49
f 71/90/48 52/68/49 72/91/49
f 72/91/49 52/68/49 50/66/50
f 72/91/49 50/66/50 73/92/50
f 73/92/50 50/66/50 49/65/51
f 73/92/50 49/65/51 74/93/51
f 49/65/52 53/69/52 74/93/52
f 74/93/52 53/69/52 75/94/52
f 75/94/52 53/69/52 59/78/53
f 59/78/53 53/69/52 41/57/53
f 66/85/54 76/95/54 65/84/55
f 65/84/55 76/95/54 77/96/55
f 65/84/55 77/96/55 64/83/56
f 77/96/55 76/95/54 68/87/55
f 68/87/55 76/95/54 67/86/54
f 77/96/55 68/87/55 69/88/56
f 64/83/56 77/96/55 78/97/56
f 78/97/56 77/96/55 69/88/56
f 64/83/56 78/97/56 79/98/57
f 79/98/57 78/97/56 69/88/56
f 64/83/56 79/98/57 63/82/57
f 79/98/57 69/88/56 70/89/57
f 63/82/57 79/98/57 62/81/58
f 79/98/57 70/89/57 71/90/58
f 62/81/58 79/98/57 80/99/58
f 80/99/58 79/98/57 71/90/58
f 62/81/58 80/99/58 81/100/59
f 81/100/59 80/99/58 71/90/58
f 62/81/58 81/100/59 61/80/60
f 81/100/59 71/90/58 72/91/59
f 61/80/60 81/100/59 60/79/61
f 81/100/59 72/91/59 73/92/62
f 60/79/61 81/100/59 82/101/62
f 82/101/62 81/100/59 73/92/62
f 60/79/61 82/101/62 59/78/63
f 82/101/62 73/92/62 74/93/64
f 59/78/63 82/101/62 75/94/64
f 75/94/64 82/101/62 74/93/64
