# vertices shared and precision trimmed by tools/optimize_obj.py
v -0.2744 0.02085 0.02806
v -0.2744 0.01243 0.02917
v -0.2744 0.02027 0.03242
v -0.2744 0.0176 0.0359
v -0.2744 0.01917 0.024
v -0.2744 0.01354 0.03759
v -0.2744 0.01568 0.02132
v -0.2744 0.00918 0.03701
v -0.2744 0.01132 0.02075
v -0.2744 0.00569 0.03434
v -0.2744 0.00726 0.02243
v -0.2744 0.00401 0.03028
v -0.2744 0.00458 0.02592
v -0.26051 -0.0417 0.01293
v -0.26031 -0.04493 0.01329
v -0.25925 -0.04257 0.01256
v -0.26204 -0.04372 0.01381
v -0.2586 -0.04576 0.01222
v -0.25801 -0.04317 0.01177
v -0.26169 -0.04724 0.01326
v -0.2571 -0.04611 0.01069
v -0.25692 -0.04343 0.01066
v -0.25968 -0.04821 0.012
v -0.25792 -0.04862 0.0102
v -0.25594 -0.04596 0.00886
v -0.25608 -0.04332 0.00933
v -0.25524 -0.04533 0.0069
v -0.25557 -0.04286 0.00791
v -0.25573 -0.04771 0.00574
v -0.25655 -0.04845 0.00804
v -0.25699 -0.04976 0.00455
v -0.25786 -0.05054 0.00697
v -0.25891 -0.05128 0.00344
v -0.25929 -0.05072 0.00924
v -0.25973 -0.05203 0.00575
v -0.26128 -0.05213 0.00253
v -0.26115 -0.05028 0.01113
v -0.2611 -0.0522 0.0079
v -0.26199 -0.05277 0.00448
v -0.2639 -0.05222 0.00189
v -0.26441 -0.05268 0.00331
v -0.26648 -0.05155 0.0016
v -0.26315 -0.05291 0.00632
v -0.26287 -0.05178 0.0097
v -0.26675 -0.05179 0.00235
v -0.26326 -0.04926 0.01246
v -0.26879 -0.05017 0.00168
v -0.26525 -0.05279 0.00464
v -0.26465 -0.05256 0.00785
v -0.26487 -0.05081 0.01096
v -0.26719 -0.05184 0.00305
v -0.26634 -0.05253 0.00576
v -0.26635 -0.05173 0.00892
v -0.26777 -0.05171 0.00363
v -0.26758 -0.05193 0.00654
v -0.2669 -0.04939 0.01157
v -0.26842 -0.05139 0.00404
v -0.26809 -0.05052 0.00944
v -0.26884 -0.05105 0.00691
v -0.26908 -0.05093 0.00424
v -0.2654 -0.04777 0.01309
v -0.26877 -0.04765 0.01146
v -0.26372 -0.04582 0.01387
v -0.26363 -0.04225 0.01372
v -0.26559 -0.04408 0.01376
v -0.26737 -0.04594 0.01298
v -0.26712 -0.0422 0.01294
v -0.26897 -0.04397 0.01212
v -0.2703 -0.04577 0.01064
v -0.27005 -0.04203 0.0106
v -0.27133 -0.04393 0.0092
v -0.26968 -0.04905 0.00934
v -0.27098 -0.04745 0.00865
v -0.26999 -0.04998 0.00684
v -0.27185 -0.04588 0.00742
v -0.27176 -0.04231 0.00727
v -0.27094 -0.04882 0.00634
v -0.26969 -0.05037 0.0042
v -0.27222 -0.0445 0.00578
v -0.27155 -0.04106 0.00505
v -0.27204 -0.04344 0.00389
v -0.27018 -0.04976 0.00394
v -0.27157 -0.04768 0.00545
v -0.27184 -0.04668 0.00426
v -0.27171 -0.04591 0.00288
v -0.27052 -0.04916 0.00347
v -0.27066 -0.04863 0.00284
v -0.27059 -0.04823 0.00212
v -0.251 -0.00333 0.02145
v -0.25122 0.00878 0.02658
v -0.25032 -0.00303 0.02084
v -0.25046 0.00908 0.02588
v -0.24959 -0.0029 0.02056
v -0.24964 0.00921 0.02556
v -0.24603 0.00375 0.0241
v -0.24645 -0.01686 0.01503
v -0.2485 0.0037 0.02395
v -0.24443 -0.0182 0.01582
v -0.24385 0.00346 0.02549
v -0.24886 -0.02365 0.01215
v -0.24688 -0.02515 0.01277
v -0.251 -0.02243 0.0127
v -0.26011 -0.03993 0.00482
v -0.26245 -0.03907 0.00557
v -0.2488 -0.0164 0.01519
v -0.25038 0.00334 0.02626
v -0.2507 -0.01701 0.01734
v -0.25262 -0.02286 0.0146
v -0.26428 -0.03956 0.00735
v -0.25283 -0.02417 0.0165
v -0.25097 -0.01837 0.0192
v -0.26476 -0.04119 0.00932
v -0.12409 0.01354 0.03759
v -0.12409 0.0176 0.0359
v -0.25101 -0.00605 0.02687
v -0.25122 0.00617 0.03274
v -0.25131 -0.00568 0.02621
v -0.25155 0.0065 0.03196
v -0.25046 0.00586 0.03346
v -0.25155 0.00845 0.02734
v -0.25032 -0.00643 0.02748
v -0.25131 -0.00367 0.02211
v -0.24964 0.00573 0.03378
v -0.24959 -0.00661 0.02774
v -0.24455 -0.00686 0.02764
v -0.24404 0.00574 0.03379
v -0.24322 0.00588 0.03347
v -0.24381 -0.00675 0.02735
v -0.24246 0.00619 0.03275
v -0.24314 -0.00644 0.02673
v -0.24212 0.00651 0.03197
v -0.24283 -0.00608 0.02606
v -0.24283 -0.004 0.02197
v -0.24212 0.00847 0.02734
v -0.24246 0.00879 0.02658
v -0.24313 -0.00362 0.02134
v -0.24949 -0.0068 0.02711
v -0.24467 -0.00705 0.02701
v -0.24411 -0.00696 0.02679
v -0.25004 -0.00666 0.02692
v -0.24356 -0.00671 0.0263
v -0.25059 -0.00636 0.02642
v -0.24333 -0.00643 0.02579
v -0.25083 -0.00607 0.02591
v -0.24333 -0.00444 0.02188
v -0.25083 -0.00415 0.022
v -0.24356 -0.00415 0.0214
v -0.25059 -0.00388 0.0215
v -0.24411 -0.00385 0.02092
v -0.24381 -0.00326 0.02074
v -0.25005 -0.00364 0.021
v -0.24949 -0.00355 0.02079
v -0.24455 -0.00309 0.02049
v -0.24467 -0.00372 0.02073
v -0.24708 -0.00528 0.02391
v -0.12409 0.01917 0.024
v -0.12409 0.01568 0.02132
v -0.12409 0.02085 0.02806
v -0.12409 0.02027 0.03242
v -0.12409 0.01132 0.02075
v -0.12409 0.00726 0.02243
v -0.12409 0.00458 0.02592
v -0.12409 0.00401 0.03028
v -0.12409 0.00569 0.03434
v -0.12409 0.00918 0.03701
v -0.25552 -0.04646 0.00352
v -0.25506 -0.04427 0.00501
v -0.25544 -0.04209 0.00654
v -0.25595 -0.04484 0.00159
v -0.25543 -0.04289 0.00337
v -0.25677 -0.04845 0.00222
v -0.25723 -0.04674 0.00019
v -0.25698 -0.043 0.00015
v -0.2563 -0.04132 0.00214
v -0.25831 -0.0448 -0.00133
v -0.2587 -0.05004 0.00122
v -0.25913 -0.04841 -0.0007
v -0.26016 -0.04657 -0.00215
v -0.25991 -0.04282 -0.00218
v -0.2585 -0.04111 -0.00066
v -0.26169 -0.04469 -0.00296
v -0.26356 -0.04295 -0.00307
v -0.26188 -0.041 -0.0023
v -0.26365 -0.04652 -0.00292
v -0.26524 -0.04505 -0.00302
v -0.26697 -0.04384 -0.0025
v -0.26559 -0.04153 -0.00247
v -0.26677 -0.04708 -0.00214
v -0.26803 -0.0462 -0.00176
v -0.26926 -0.0456 -0.00098
v -0.26868 -0.04301 -0.00142
v -0.26865 -0.04838 -0.00032
v -0.2693 -0.04806 0.00009
v -0.27036 -0.04534 0.00013
v -0.27018 -0.04266 0.0001
v -0.26988 -0.04793 0.00067
v -0.26799 -0.04884 -0.00052
v -0.27032 -0.04798 0.00137
v -0.2712 -0.04545 0.00146
v -0.27134 -0.0428 0.00194
v -0.26561 -0.04815 -0.00207
v -0.26738 -0.0494 -0.00048
v -0.26235 -0.04812 -0.00223
v -0.26467 -0.04931 -0.00156
v -0.26148 -0.04969 -0.001
v -0.26689 -0.05001 -0.00022
v -0.26403 -0.05045 -0.00067
v -0.26111 -0.05107 0.00064
v -0.26377 -0.05145 0.00052
v -0.26655 -0.05061 0.00025
v -0.26641 -0.05114 0.00088
v -0.25798 -0.04071 0.0107
v -0.25863 -0.04039 0.01112
v -0.25929 -0.03993 0.01131
v -0.25849 -0.0386 0.00912
v -0.2574 -0.04084 0.01012
v -0.25696 -0.04079 0.00942
v -0.25669 -0.04054 0.00867
v -0.2599 -0.03937 0.01128
v -0.26167 -0.04062 0.01286
v -0.26039 -0.03875 0.01101
v -0.26261 -0.03946 0.01236
v -0.26493 -0.04064 0.01302
v -0.26073 -0.03816 0.01054
v -0.26087 -0.03763 0.00992
v -0.2608 -0.03722 0.0092
v -0.26324 -0.03832 0.01147
v -0.26351 -0.03732 0.01028
v -0.26338 -0.03655 0.0089
v -0.2658 -0.03908 0.0118
v -0.26617 -0.0377 0.01016
v -0.26599 -0.03664 0.00827
v -0.26815 -0.04036 0.0115
v -0.26858 -0.03873 0.00957
v -0.26837 -0.03749 0.00735
v -0.27051 -0.04032 0.00858
v -0.27029 -0.03901 0.00624
v -0.25053 0.00283 0.02881
v -0.24897 0.00241 0.03084
v -0.24967 -0.01991 0.02062
v -0.24644 0.00228 0.03142
v -0.25171 -0.02627 0.01814
v -0.26365 -0.04319 0.01056
v -0.24945 -0.02747 0.01808
v -0.26149 -0.04462 0.01049
v -0.24732 -0.02092 0.02076
v -0.24412 0.0025 0.03027
v -0.24723 -0.02768 0.01658
v -0.25927 -0.04482 0.00915
v -0.24495 -0.02089 0.01949
v -0.2431 0.00297 0.02793
v -0.24621 -0.02671 0.01458
v -0.25804 -0.04369 0.00716
v -0.25838 -0.04176 0.00545
v -0.24382 -0.01976 0.01763
v -0.12409 0.01243 0.02917
v -0.24404 0.00922 0.02556
v -0.24322 0.00909 0.02588
v -0.25662 -0.04014 0.00795
v -0.25571 -0.04109 0.00535
v -0.25676 -0.03961 0.00732
v -0.25634 -0.03995 0.00445
v -0.2571 -0.03901 0.00686
v -0.2576 -0.03972 0.00145
v -0.25728 -0.03879 0.00395
v -0.25759 -0.0384 0.00659
v -0.25919 -0.03825 0.00136
v -0.25844 -0.03772 0.00388
v -0.2582 -0.03784 0.00655
v -0.26038 -0.03938 -0.00077
v -0.26241 -0.03796 -0.00017
v -0.26402 -0.0395 -0.00166
v -0.26612 -0.03849 -0.00033
v -0.26092 -0.03704 0.00187
v -0.26441 -0.03699 0.0011
v -0.2597 -0.03684 0.00426
v -0.26263 -0.03621 0.00295
v -0.26759 -0.04056 -0.0012
v -0.26936 -0.04014 0.00059
v -0.26799 -0.03805 0.00156
v -0.27073 -0.04032 0.00275
v -0.26942 -0.03823 0.00382
v -0.26618 -0.03657 0.00289
v -0.26754 -0.03674 0.00505
v -0.26413 -0.03586 0.00448
v -0.26529 -0.03601 0.00631
v -0.26094 -0.03624 0.00504
v -0.26203 -0.03598 0.00615
v -0.26287 -0.03609 0.00748
v -0.25886 -0.03738 0.00675
v -0.25951 -0.03706 0.00716
v -0.26009 -0.03693 0.00775
v -0.26053 -0.03698 0.00845
vt 0.504883 0.295898
vt 0.511719 0.292236
vt 0.503906 0.291992
vt 0.504883 0.288086
vt 0.507324 0.298828
vt 0.507812 0.285400
vt 0.511231 0.300049
vt 0.511719 0.284668
vt 0.515137 0.299072
vt 0.515625 0.285889
vt 0.518066 0.296387
vt 0.518555 0.288818
vt 0.519043 0.292725
vt 0.587402 0.347168
vt 0.584473 0.343994
vt 0.585449 0.347412
vt 0.587402 0.343750
vt 0.581543 0.344482
vt 0.583008 0.347900
vt 0.583984 0.340576
vt 0.579102 0.345215
vt 0.581055 0.348633
vt 0.581055 0.340820
vt 0.577637 0.341309
vt 0.57666 0.346191
vt 0.57959 0.349853
vt 0.573731 0.347900
vt 0.578125 0.351562
vt 0.571289 0.343018
vt 0.574707 0.342041
vt 0.570312 0.337402
vt 0.573731 0.337402
vt 0.571289 0.331543
vt 0.577148 0.337402
vt 0.574707 0.332764
vt 0.573731 0.326660
vt 0.580566 0.337402
vt 0.577637 0.333252
vt 0.576172 0.328369
vt 0.577637 0.323242
vt 0.579102 0.324707
vt 0.582519 0.321045
vt 0.579102 0.329590
vt 0.581055 0.333740
vt 0.583008 0.322022
vt 0.583984 0.337158
vt 0.587402 0.320068
vt 0.581055 0.325928
vt 0.581543 0.330078
vt 0.583984 0.333984
vt 0.583984 0.322754
vt 0.583008 0.326660
vt 0.584473 0.330566
vt 0.584961 0.323242
vt 0.584961 0.327148
vt 0.587402 0.333984
vt 0.586426 0.323486
vt 0.587402 0.330811
vt 0.587402 0.327393
vt 0.587402 0.323730
vt 0.587402 0.337158
vt 0.59082 0.333984
vt 0.587402 0.340576
vt 0.590332 0.343994
vt 0.59082 0.340576
vt 0.59082 0.337158
vt 0.59375 0.340820
vt 0.594238 0.337158
vt 0.59375 0.333740
vt 0.597656 0.337158
vt 0.597168 0.333252
vt 0.590332 0.330566
vt 0.593262 0.330078
vt 0.589844 0.327148
vt 0.595703 0.329590
vt 0.600586 0.332520
vt 0.591797 0.326660
vt 0.588867 0.323486
vt 0.598633 0.328369
vt 0.603516 0.331543
vt 0.601074 0.326660
vt 0.589844 0.323242
vt 0.59375 0.325928
vt 0.595703 0.324707
vt 0.597168 0.323242
vt 0.59082 0.322754
vt 0.591797 0.322022
vt 0.592285 0.321045
vt 0.519043 0.327881
vt 0.520508 0.339844
vt 0.520019 0.327881
vt 0.520996 0.339600
vt 0.520508 0.327881
vt 0.521973 0.339600
vt 0.628418 0.468506
vt 0.628418 0.447754
vt 0.625977 0.468506
vt 0.630859 0.447022
vt 0.630859 0.468506
vt 0.628418 0.440430
vt 0.630859 0.440186
vt 0.625977 0.440918
vt 0.628418 0.420898
vt 0.625977 0.420898
vt 0.626465 0.447754
vt 0.623535 0.468506
vt 0.624023 0.447754
vt 0.624023 0.440918
vt 0.623535 0.420898
vt 0.621582 0.440674
vt 0.621582 0.447266
vt 0.621582 0.420898
vt 0.527344 0.253906
vt 0.663574 0.253906
vt 0.663574 0.249878
vt 0.527344 0.249878
vt 0.513672 0.328125
vt 0.51416 0.340332
vt 0.51416 0.328125
vt 0.515137 0.340332
vt 0.513184 0.340332
vt 0.519531 0.339844
vt 0.512695 0.328125
vt 0.518555 0.327881
vt 0.512695 0.340332
vt 0.512207 0.328125
vt 0.507812 0.327881
vt 0.507812 0.340576
vt 0.506836 0.340576
vt 0.506836 0.327881
vt 0.505859 0.340576
vt 0.506348 0.327881
vt 0.505371 0.340576
vt 0.505371 0.327881
vt 0.501465 0.327881
vt 0.500488 0.340332
vt 0.5 0.340088
vt 0.500488 0.327881
vt 0.512207 0.327393
vt 0.507812 0.327393
vt 0.506836 0.327393
vt 0.512695 0.327393
vt 0.506348 0.327393
vt 0.513672 0.327393
vt 0.505371 0.327393
vt 0.51416 0.327393
vt 0.501465 0.327393
vt 0.518555 0.327393
vt 0.500977 0.327393
vt 0.519043 0.327148
vt 0.5 0.327393
vt 0.5 0.327881
vt 0.520019 0.327148
vt 0.520508 0.327148
vt 0.524902 0.327148
vt 0.524902 0.326416
vt 0.525879 0.326904
vt 0.525391 0.326172
vt 0.554199 0.428955
vt 0.552246 0.432129
vt 0.554688 0.429199
vt 0.555176 0.429688
vt 0.549805 0.428955
vt 0.555664 0.430176
vt 0.549316 0.429199
vt 0.555664 0.434326
vt 0.548828 0.429688
vt 0.555176 0.434814
vt 0.548828 0.430176
vt 0.554688 0.435303
vt 0.548828 0.434082
vt 0.554199 0.435303
vt 0.548828 0.434570
vt 0.549805 0.435303
vt 0.549316 0.435059
vt 0.527344 0.285645
vt 0.527344 0.289551
vt 0.663574 0.285645
vt 0.663574 0.281738
vt 0.527344 0.281738
vt 0.663574 0.289551
vt 0.527344 0.293701
vt 0.663574 0.293701
vt 0.527344 0.297607
vt 0.663574 0.297607
vt 0.663574 0.277588
vt 0.527344 0.277588
vt 0.663574 0.273682
vt 0.527344 0.273682
vt 0.663574 0.269775
vt 0.527344 0.269775
vt 0.663574 0.265869
vt 0.527344 0.265869
vt 0.663574 0.261719
vt 0.527344 0.261719
vt 0.663574 0.257812
vt 0.527344 0.257812
vt 0.56543 0.327393
vt 0.562012 0.326416
vt 0.562988 0.332275
vt 0.560059 0.330566
vt 0.558594 0.335938
vt 0.557129 0.334228
vt 0.558594 0.325684
vt 0.557617 0.329590
vt 0.5625 0.321777
vt 0.566406 0.321777
vt 0.559082 0.321777
vt 0.555664 0.325195
vt 0.554688 0.328857
vt 0.555664 0.321777
vt 0.562012 0.317139
vt 0.56543 0.315918
vt 0.558594 0.317627
vt 0.555664 0.318115
vt 0.552246 0.321777
vt 0.552246 0.325195
vt 0.552246 0.318359
vt 0.548828 0.318603
vt 0.548828 0.321777
vt 0.551758 0.314941
vt 0.548828 0.315186
vt 0.545898 0.314941
vt 0.54541 0.318359
vt 0.548828 0.311768
vt 0.546875 0.311523
vt 0.544434 0.311035
vt 0.542969 0.314697
vt 0.547852 0.307861
vt 0.546387 0.307617
vt 0.542481 0.310303
vt 0.540527 0.313965
vt 0.54541 0.307129
vt 0.548828 0.304443
vt 0.548828 0.308105
vt 0.544434 0.306397
vt 0.540527 0.309082
vt 0.537598 0.312744
vt 0.543945 0.305420
vt 0.539062 0.307617
vt 0.535156 0.311279
vt 0.551269 0.311523
vt 0.550293 0.307861
vt 0.554688 0.314697
vt 0.553223 0.311035
vt 0.557617 0.313965
vt 0.551758 0.307617
vt 0.555664 0.310303
vt 0.560059 0.312744
vt 0.5625 0.311035
vt 0.557129 0.309082
vt 0.558594 0.307373
vt 0.552734 0.307129
vt 0.553223 0.306397
vt 0.554199 0.305420
vt 0.584961 0.351318
vt 0.586426 0.350830
vt 0.587402 0.350830
vt 0.587402 0.354492
vt 0.583984 0.351807
vt 0.583008 0.352539
vt 0.582519 0.353516
vt 0.588867 0.350830
vt 0.589844 0.347412
vt 0.589844 0.351318
vt 0.591797 0.347900
vt 0.593262 0.344238
vt 0.591309 0.351807
vt 0.591797 0.352539
vt 0.592773 0.353516
vt 0.59375 0.348633
vt 0.595703 0.349853
vt 0.597168 0.351318
vt 0.595703 0.344971
vt 0.598633 0.346191
vt 0.601074 0.347656
vt 0.597168 0.341064
vt 0.600586 0.341797
vt 0.604004 0.342773
vt 0.601074 0.337158
vt 0.604981 0.337158
vt 0.621582 0.468506
vt 0.619629 0.468506
vt 0.619629 0.446533
vt 0.617188 0.468506
vt 0.619141 0.440186
vt 0.619629 0.420898
vt 0.616699 0.439941
vt 0.617188 0.420898
vt 0.617188 0.446045
vt 0.614746 0.468506
vt 0.614258 0.439941
vt 0.614746 0.420898
vt 0.614258 0.446045
vt 0.612305 0.468506
vt 0.612305 0.439941
vt 0.612305 0.420898
vt 0.609863 0.440186
vt 0.609863 0.420898
vt 0.612305 0.446533
vt 0.609863 0.447266
vt 0.609863 0.468506
vt 0.520019 0.313965
vt 0.512207 0.314697
vt 0.519043 0.317871
vt 0.516602 0.320801
vt 0.518555 0.310303
vt 0.512695 0.322266
vt 0.515625 0.307617
vt 0.508789 0.321533
vt 0.511719 0.306885
vt 0.505859 0.319092
vt 0.507812 0.308350
vt 0.504394 0.315186
vt 0.505371 0.311279
vt 0.526856 0.338867
vt 0.527832 0.338867
vt 0.554199 0.338135
vt 0.553711 0.337158
vt 0.549316 0.339111
vt 0.555664 0.333252
vt 0.552734 0.336426
vt 0.553711 0.332520
vt 0.551758 0.335938
vt 0.551758 0.328369
vt 0.551269 0.332031
vt 0.550293 0.335693
vt 0.548828 0.328369
vt 0.548828 0.331787
vt 0.549316 0.335449
vt 0.548828 0.324951
vt 0.545898 0.325195
vt 0.54541 0.321777
vt 0.541992 0.321777
vt 0.545898 0.328613
vt 0.542481 0.325439
vt 0.546875 0.332031
vt 0.543457 0.328857
vt 0.542481 0.318115
vt 0.539062 0.317871
vt 0.538574 0.321777
vt 0.535644 0.317139
vt 0.532227 0.316162
vt 0.535156 0.321777
vt 0.53125 0.321777
vt 0.539062 0.325928
vt 0.536133 0.326416
vt 0.532715 0.327637
vt 0.540527 0.329834
vt 0.538086 0.330811
vt 0.535156 0.332520
vt 0.544434 0.332520
vt 0.542481 0.333252
vt 0.541016 0.334473
vt 0.539551 0.336182
vt 0.547852 0.335693
vt 0.546387 0.335938
vt 0.54541 0.336426
vt 0.544434 0.337158
vt 0.543945 0.338135
vt 0.630859 0.420898
vt 0.499023 0.340088
vn -0.9921 0 0
vn 0.3307 0.2835 0.8898
vn 0.3701 -0.0866 0.9213
vn 0.4803 0.189 0.8504
vn 0.1732 0.0551 0.9764
vn 0.5591 -0.1654 0.8031
vn 0.622 0.1181 0.7638
vn 0.2047 -0.3465 0.9055
vn 0.7559 -0.2283 0.6063
vn 0.7559 0.0945 0.6378
vn 0.4488 -0.4488 0.7638
vn 0.6535 -0.5197 0.5433
vn 0.8819 -0.2126 0.4016
vn 0.8661 0.0866 0.4803
vn 0.9685 -0.1181 0.1811
vn 0.937 0.1496 0.3071
vn 0.9055 -0.4094 0.0394
vn 0.811 -0.4803 0.3071
vn 0.7717 -0.6299 -0.063
vn 0.6535 -0.7244 0.1969
vn 0.5669 -0.7953 -0.1969
vn 0.4803 -0.748 0.4488
vn 0.4331 -0.8898 0.0394
vn 0.2835 -0.9055 -0.3071
vn 0.2835 -0.7008 0.6457
vn 0.2756 -0.9134 0.2756
vn 0.1969 -0.9764 -0.0787
vn 0 -0.9134 -0.3937
vn -0.0551 -0.9606 -0.2362
vn -0.2992 -0.8504 -0.4252
vn 0.0551 -0.9921 0.1024
vn 0.0866 -0.8661 0.4803
vn -0.3465 -0.8661 -0.3465
vn 0.0157 -0.5512 0.8268
vn -0.5906 -0.6693 -0.4252
vn -0.1732 -0.9764 -0.0709
vn -0.126 -0.9528 0.252
vn -0.1417 -0.7559 0.6299
vn -0.3858 -0.874 -0.2677
vn -0.3071 -0.9449 0.0394
vn -0.3228 -0.8504 0.3937
vn -0.4567 -0.8661 -0.189
vn -0.4567 -0.874 0.1102
vn -0.4016 -0.5906 0.6929
vn -0.5276 -0.8346 -0.1417
vn -0.5354 -0.7244 0.4252
vn -0.6063 -0.7795 0.1417
vn -0.622 -0.7638 -0.1181
vn -0.2126 -0.4094 0.8819
vn -0.6142 -0.4016 0.6693
vn -0.0157 -0.189 0.9764
vn -0.0157 0.2283 0.9685
vn -0.2283 0.0157 0.9685
vn -0.4567 -0.189 0.8661
vn -0.4094 0.2441 0.874
vn -0.622 0.0394 0.7795
vn -0.7795 -0.1654 0.5906
vn -0.7402 0.252 0.6142
vn -0.8898 0.0394 0.4331
vn -0.7008 -0.5354 0.4567
vn -0.8504 -0.3465 0.3701
vn -0.7323 -0.6614 0.1417
vn -0.9606 -0.1654 0.2126
vn -0.9449 0.2205 0.2126
vn -0.8504 -0.5039 0.0866
vn -0.7008 -0.7008 -0.1181
vn -0.9921 -0.0157 0.0315
vn -0.9134 0.3858 -0.063
vn -0.9685 0.1024 -0.1969
vn -0.7559 -0.6299 -0.1417
vn -0.9213 -0.3701 0
vn -0.9528 -0.2756 -0.1024
vn -0.937 -0.1732 -0.2835
vn -0.7953 -0.5512 -0.2205
vn -0.811 -0.5039 -0.2756
vn -0.8031 -0.4409 -0.3858
vn -0.8268 0.189 -0.5118
vn -0.811 0.1969 -0.5433
vn -0.5433 0.3071 -0.7717
vn -0.3701 0.3228 -0.8661
vn 0.3228 0.3701 -0.8661
vn 0.2835 0.3386 -0.8898
vn -0.4016 0.3543 -0.8346
vn 0.7874 0.1181 -0.5906
vn 0.8268 0.189 -0.5118
vn 0.2205 0.2677 -0.9291
vn 0.7165 -0.0394 -0.6929
vn -0.3307 0.4882 -0.7953
vn 0.1969 0.2598 -0.937
vn -0.4016 0.5591 -0.7165
vn -0.3543 0.4016 -0.8346
vn -0.9291 0.1339 -0.3307
vn -0.9055 0.2598 -0.3307
vn -0.8346 0.4882 -0.2205
vn -0.811 0.5748 -0.063
vn -0.8661 0.2126 0.4331
vn -0.9449 0.0157 0.2992
vn -0.7717 0.2835 0.5591
vn 0 0.1181 0.9921
vn 0 0.5984 0.7953
vn -0.8425 -0.2441 0.4646
vn -0.9764 -0.0945 0.1575
vn -0.5827 -0.3701 0.7165
vn -0.9764 0.0551 -0.189
vn -0.9685 0.0315 -0.2126
vn -0.2126 -0.4331 0.8661
vn -0.2205 -0.4646 0.8504
vn 0.189 -0.4567 0.8661
vn 0.5591 -0.3937 0.7165
vn 0.8268 -0.2756 0.4803
vn 0.9685 -0.1339 0.1575
vn 0.9764 0.0157 -0.189
vn 0.8425 0.1654 -0.5039
vn -0.1969 -0.9449 0.2362
vn 0.0787 -0.9528 0.2677
vn -0.4409 -0.8819 0.1339
vn 0.3386 -0.9213 0.1575
vn -0.5984 -0.7953 0
vn 0.5433 -0.8346 0
vn -0.5827 -0.8031 -0.0157
vn -0.6772 -0.7008 -0.1969
vn 0.6535 -0.7244 -0.1969
vn -0.6693 -0.5906 -0.4252
vn 0.6457 -0.622 -0.4252
vn -0.5748 -0.4882 -0.6535
vn 0.5433 -0.5118 -0.6535
vn 0.5118 -0.5118 -0.6772
vn 0.3543 -0.4331 -0.8189
vn -0.3858 -0.4094 -0.8189
vn -0.1339 -0.3543 -0.9213
vn 0.1102 -0.378 -0.9134
vn -0.0394 -0.8819 -0.4567
vn -0.0394 -0.8976 -0.4331
vn -0.0157 -0.874 -0.4803
vn -0.0394 -0.8661 -0.4882
vn -0.0157 -0.8898 -0.4488
vn 0.0157 0.7874 -0.6063
vn 0.0157 0.9843 -0.1181
vn 0 0.3701 -0.9213
vn 0 0.9134 0.3937
vn 0 -0.1417 -0.9843
vn 0 -0.622 -0.7795
vn 0 -0.9213 -0.3701
vn 0 -0.9921 0.1181
vn 0 -0.7953 0.5984
vn 0 -0.3937 0.9134
vn 0.9449 -0.2362 -0.1969
vn 0.9921 0 -0.0472
vn 0.9528 0.252 0.126
vn 0.8976 -0.063 -0.4173
vn 0.9528 0.1496 -0.2283
vn 0.8031 -0.4882 -0.3307
vn 0.748 -0.2835 -0.5906
vn 0.7795 0.1417 -0.6063
vn 0.8504 0.3228 -0.3937
vn 0.6299 -0.063 -0.7717
vn 0.5906 -0.6693 -0.4252
vn 0.5354 -0.4882 -0.6772
vn 0.4173 -0.2677 -0.8583
vn 0.4488 0.1654 -0.874
vn 0.6142 0.3701 -0.6929
vn 0.2362 -0.0315 -0.9685
vn 0.0157 0.1654 -0.9843
vn 0.2126 0.378 -0.8976
vn 0.0157 -0.252 -0.9606
vn -0.1732 -0.0709 -0.9764
vn -0.3622 0.063 -0.9213
vn -0.2047 0.3228 -0.9213
vn -0.3386 -0.315 -0.8819
vn -0.4882 -0.2205 -0.8346
vn -0.6299 -0.1417 -0.7559
vn -0.5512 0.1417 -0.811
vn -0.5669 -0.4567 -0.6772
vn -0.6457 -0.4331 -0.622
vn -0.7638 -0.1181 -0.622
vn -0.748 0.1969 -0.622
vn -0.7165 -0.4016 -0.5591
vn -0.4803 -0.5118 -0.7008
vn -0.7638 -0.4173 -0.4724
vn -0.874 -0.1102 -0.4567
vn -0.8819 0.189 -0.4252
vn -0.2126 -0.4331 -0.8661
vn -0.4016 -0.5906 -0.6929
vn 0.1654 -0.4488 -0.874
vn -0.0866 -0.5827 -0.7953
vn 0.2835 -0.622 -0.7244
vn -0.3465 -0.6614 -0.6614
vn -0.0157 -0.7008 -0.7008
vn 0.3071 -0.7717 -0.5433
vn 0 -0.8346 -0.5433
vn -0.3071 -0.7244 -0.5984
vn -0.2756 -0.7874 -0.5354
vn 0.6378 0.4016 0.6457
vn 0.5591 0.4252 0.7008
vn 0.4803 0.4803 0.7244
vn 0.5984 0.6457 0.4646
vn 0.7165 0.3701 0.5827
vn 0.7638 0.3937 0.4961
vn 0.8031 0.4094 0.4173
vn 0.3937 0.5591 0.7165
vn 0.2126 0.4094 0.8819
vn 0.3386 0.6299 0.685
vn 0.0866 0.5276 0.8346
vn -0.1575 0.4173 0.8898
vn 0.315 0.7087 0.622
vn 0.2835 0.7717 0.5591
vn 0.2992 0.8346 0.4567
vn 0.0236 0.6772 0.7244
vn 0 0.8189 0.5669
vn 0 0.9055 0.4173
vn -0.2835 0.5906 0.748
vn -0.3071 0.7559 0.5669
vn -0.2835 0.8898 0.3307
vn -0.5354 0.4567 0.7008
vn -0.5984 0.6457 0.4646
vn -0.5748 0.7795 0.2283
vn -0.8031 0.4646 0.3622
vn -0.7795 0.6142 0.0945
vn -0.9528 -0.126 0.252
vn -0.5512 -0.3701 0.7402
vn -0.5354 -0.2756 0.7874
vn 0.1102 -0.4331 0.8898
vn -0.4646 -0.1339 0.8661
vn -0.4331 -0.1102 0.8898
vn 0.1339 -0.4646 0.8661
vn 0.0866 -0.4803 0.8661
vn 0.1339 -0.4094 0.8976
vn 0.685 -0.3386 0.6299
vn 0.6535 -0.5669 0.4882
vn 0.5669 -0.6535 0.4882
vn 0.6929 -0.4016 0.5906
vn 0.9843 -0.0945 0.1102
vn 0.9055 -0.3858 -0.1339
vn 0.8425 -0.5118 -0.1102
vn 0.685 -0.1417 -0.7087
vn 0.9764 -0.1811 0
vn 0.9921 -0.0079 0.0157
vn 0.0157 0.378 -0.9213
vn 0.2047 0.3465 -0.9055
vn 0.4016 0.3228 -0.8504
vn 0.811 0.4803 0.3071
vn 0.9291 0.3465 -0.0157
vn 0.8031 0.5276 0.252
vn 0.8583 0.4882 -0.1181
vn 0.7638 0.6142 0.1732
vn 0.7008 0.5118 -0.4882
vn 0.7402 0.6378 -0.1654
vn 0.7087 0.685 0.1417
vn 0.5354 0.7008 -0.4567
vn 0.6142 0.7638 -0.1654
vn 0.6299 0.7559 0.1417
vn 0.4016 0.5591 -0.7165
vn 0.1417 0.7323 -0.6535
vn -0.0157 0.5276 -0.8425
vn -0.2835 0.6693 -0.6772
vn 0.3307 0.8346 -0.4252
vn -0.0866 0.8504 -0.5039
vn 0.4646 0.8661 -0.1417
vn 0.126 0.9449 -0.2756
vn -0.4409 0.4173 -0.7874
vn -0.6535 0.4882 -0.5669
vn -0.4803 0.7244 -0.4803
vn -0.8189 0.4567 -0.3307
vn -0.6614 0.7087 -0.2283
vn -0.2835 0.9055 -0.3071
vn -0.4409 0.8898 -0.063
vn -0.0551 0.9843 -0.126
vn -0.1969 0.9685 0.0945
vn 0.315 0.9449 -0.063
vn 0.1732 0.9764 0.0945
vn 0.0551 0.9606 0.2598
vn 0.5276 0.8268 0.1654
vn 0.4646 0.8504 0.2126
vn 0.3937 0.8661 0.2913
vn 0.3465 0.8504 0.3701
vn 0.7087 0.2283 -0.6614
# Converted from CSMC meshbin by CsmcAssetConverter
# source: weapon_snip_awp_legacy_weapon_snip_awp.body_legacy.meshbin
# source center: 16.66426 -0.5667131 7.678146
# source scale: 0.02323252
# Coordinates are preserved exactly as stored by CSMC.
# Basis conversion and mesh-normalization conjugation happen at runtime.
o v_weapon_awp_bolt_action
f 1/1/1 2/2/1 3/3/1
f 3/3/1 2/2/1 4/4/1
f 2/2/1 1/1/1 5/5/1
f 4/4/1 2/2/1 6/6/1
f 2/2/1 5/5/1 7/7/1
f 6/6/1 2/2/1 8/8/1
f 2/2/1 7/7/1 9/9/1
f 8/8/1 2/2/1 10/10/1
f 2/2/1 9/9/1 11/11/1
f 10/10/1 2/2/1 12/12/1
f 2/2/1 11/11/1 13/13/1
f 2/2/1 13/13/1 12/12/1
f 14/14/2 15/15/3 16/16/4
f 15/15/3 14/14/2 17/17/5
f 16/16/4 15/15/3 18/18/6
f 16/16/4 18/18/6 19/19/7
f 15/15/3 17/17/5 20/20/8
f 19/19/7 18/18/6 21/21/9
f 19/19/7 21/21/9 22/22/10
f 18/18/6 15/15/3 23/23/11
f 23/23/11 15/15/3 20/20/8
f 21/21/9 18/18/6 24/24/12
f 24/24/12 18/18/6 23/23/11
f 22/22/10 21/21/9 25/25/13
f 22/22/10 25/25/13 26/26/14
f 26/26/14 25/25/13 27/27/15
f 26/26/14 27/27/15 28/28/16
f 27/27/15 25/25/13 29/29/17
f 25/25/13 21/21/9 30/30/18
f 25/25/13 30/30/18 29/29/17
f 30/30/18 21/21/9 24/24/12
f 29/29/17 30/30/18 31/31/19
f 31/31/19 30/30/18 32/32/20
f 32/32/20 30/30/18 24/24/12
f 31/31/19 32/32/20 33/33/21
f 32/32/20 24/24/12 34/34/22
f 34/34/22 24/24/12 23/23/11
f 33/33/21 32/32/20 35/35/23
f 35/35/23 32/32/20 34/34/22
f 33/33/21 35/35/23 36/36/24
f 34/34/22 23/23/11 37/37/25
f 37/37/25 23/23/11 20/20/8
f 35/35/23 34/34/22 38/38/26
f 38/38/26 34/34/22 37/37/25
f 36/36/24 35/35/23 39/39/27
f 39/39/27 35/35/23 38/38/26
f 36/36/24 39/39/27 40/40/28
f 40/40/28 39/39/27 41/41/29
f 40/40/28 41/41/29 42/42/30
f 39/39/27 38/38/26 43/43/31
f 39/39/27 43/43/31 41/41/29
f 38/38/26 37/37/25 44/44/32
f 38/38/26 44/44/32 43/43/31
f 42/42/30 41/41/29 45/45/33
f 44/44/32 37/37/25 46/46/34
f 46/46/34 37/37/25 20/20/8
f 42/42/30 45/45/33 47/47/35
f 41/41/29 43/43/31 48/48/36
f 41/41/29 48/48/36 45/45/33
f 43/43/31 44/44/32 49/49/37
f 43/43/31 49/49/37 48/48/36
f 49/49/37 44/44/32 50/50/38
f 50/50/38 44/44/32 46/46/34
f 45/45/33 48/48/36 51/51/39
f 45/45/33 51/51/39 47/47/35
f 48/48/36 49/49/37 52/52/40
f 48/48/36 52/52/40 51/51/39
f 49/49/37 50/50/38 53/53/41
f 49/49/37 53/53/41 52/52/40
f 51/51/39 52/52/40 54/54/42
f 51/51/39 54/54/42 47/47/35
f 52/52/40 53/53/41 55/55/43
f 52/52/40 55/55/43 54/54/42
f 53/53/41 50/50/38 56/56/44
f 54/54/42 55/55/43 57/57/45
f 54/54/42 57/57/45 47/47/35
f 55/55/43 53/53/41 58/58/46
f 58/58/46 53/53/41 56/56/44
f 57/57/45 55/55/43 59/59/47
f 59/59/47 55/55/43 58/58/46
f 57/57/45 59/59/47 60/60/48
f 57/57/45 60/60/48 47/47/35
f 61/61/49 56/56/44 50/50/38
f 61/61/49 50/50/38 46/46/34
f 58/58/46 56/56/44 62/62/50
f 61/61/49 46/46/34 63/63/51
f 63/63/51 46/46/34 20/20/8
f 63/63/51 20/20/8 17/17/5
f 63/63/51 17/17/5 64/64/52
f 63/63/51 64/64/52 65/65/53
f 63/63/51 65/65/53 61/61/49
f 66/66/54 56/56/44 61/61/49
f 66/66/54 61/61/49 65/65/53
f 56/56/44 66/66/54 62/62/50
f 66/66/54 65/65/53 67/67/55
f 66/66/54 67/67/55 68/68/56
f 66/66/54 68/68/56 62/62/50
f 62/62/50 68/68/56 69/69/57
f 69/69/57 68/68/56 70/70/58
f 69/69/57 70/70/58 71/71/59
f 62/62/50 69/69/57 72/72/60
f 62/62/50 72/72/60 58/58/46
f 58/58/46 72/72/60 59/59/47
f 72/72/60 69/69/57 73/73/61
f 73/73/61 69/69/57 71/71/59
f 59/59/47 72/72/60 74/74/62
f 74/74/62 72/72/60 73/73/61
f 59/59/47 74/74/62 60/60/48
f 73/73/61 71/71/59 75/75/63
f 75/75/63 71/71/59 76/76/64
f 74/74/62 73/73/61 77/77/65
f 77/77/65 73/73/61 75/75/63
f 60/60/48 74/74/62 78/78/66
f 78/78/66 74/74/62 77/77/65
f 60/60/48 78/78/66 47/47/35
f 75/75/63 76/76/64 79/79/67
f 79/79/67 76/76/64 80/80/68
f 79/79/67 80/80/68 81/81/69
f 78/78/66 77/77/65 82/82/70
f 78/78/66 82/82/70 47/47/35
f 83/83/71 77/77/65 75/75/63
f 83/83/71 75/75/63 79/79/67
f 77/77/65 83/83/71 82/82/70
f 79/79/67 81/81/69 84/84/72
f 79/79/67 84/84/72 83/83/71
f 84/84/72 81/81/69 85/85/73
f 82/82/70 83/83/71 86/86/74
f 86/86/74 83/83/71 84/84/72
f 82/82/70 86/86/74 47/47/35
f 84/84/72 85/85/73 87/87/75
f 84/84/72 87/87/75 86/86/74
f 86/86/74 87/87/75 47/47/35
f 87/87/75 85/85/73 88/88/76
f 87/87/75 88/88/76 47/47/35
f 89/89/77 90/90/78 91/91/79
f 91/91/79 90/90/78 92/92/79
f 91/91/79 92/92/79 93/93/80
f 93/93/80 92/92/79 94/94/80
f 95/95/81 96/96/82 97/97/83
f 96/96/82 95/95/81 98/98/84
f 98/98/84 95/95/81 99/99/85
f 100/100/86 98/98/84 101/101/87
f 102/102/88 96/96/82 100/100/86
f 102/102/88 100/100/86 103/103/89
f 102/102/88 103/103/89 104/104/90
f 105/105/91 97/97/83 96/96/82
f 105/105/91 96/96/82 102/102/88
f 97/97/83 105/105/91 106/106/92
f 106/106/92 105/105/91 107/107/93
f 105/105/91 102/102/88 108/108/94
f 108/108/94 102/102/88 104/104/90
f 105/105/91 108/108/94 107/107/93
f 108/108/94 104/104/90 109/109/95
f 107/107/93 108/108/94 110/110/96
f 110/110/96 108/108/94 109/109/95
f 107/107/93 110/110/96 111/111/97
f 110/110/96 109/109/95 112/112/98
f 6/113/99 113/114/99 114/115/100
f 6/113/99 114/115/100 4/116/100
f 115/117/101 116/118/101 117/119/102
f 117/119/102 116/118/101 118/120/102
f 116/118/101 115/117/101 119/121/103
f 117/119/102 118/120/102 120/122/104
f 119/121/103 115/117/101 121/123/103
f 117/119/102 120/122/104 122/124/105
f 122/124/105 120/122/104 89/89/77
f 89/89/77 120/122/104 90/90/78
f 119/121/103 121/123/103 123/125/106
f 123/125/106 121/123/103 124/126/107
f 123/125/106 124/126/107 125/127/108
f 123/125/106 125/127/108 126/128/108
f 126/128/108 125/127/108 127/129/109
f 127/129/109 125/127/108 128/130/109
f 127/129/109 128/130/109 129/131/110
f 129/131/110 128/130/109 130/132/110
f 129/131/110 130/132/110 131/133/111
f 131/133/111 130/132/110 132/134/111
f 131/133/111 132/134/111 133/135/112
f 131/133/111 133/135/112 134/136/112
f 134/136/112 133/135/112 135/137/113
f 135/137/113 133/135/112 136/138/113
f 137/139/114 138/140/115 124/126/114
f 124/126/114 138/140/115 125/127/115
f 137/139/114 124/126/114 121/123/116
f 125/127/115 138/140/115 139/141/117
f 137/139/114 121/123/116 140/142/116
f 125/127/115 139/141/117 128/130/117
f 140/142/116 121/123/116 115/117/118
f 128/130/117 139/141/117 141/143/119
f 140/142/116 115/117/118 142/144/120
f 128/130/117 141/143/119 130/132/119
f 142/144/120 115/117/118 117/119/121
f 130/132/119 141/143/119 143/145/122
f 142/144/120 117/119/121 144/146/121
f 130/132/119 143/145/122 132/134/122
f 144/146/121 117/119/121 122/124/123
f 132/134/122 143/145/122 145/147/124
f 144/146/121 122/124/123 146/148/123
f 132/134/122 145/147/124 133/135/124
f 146/148/123 122/124/123 89/89/125
f 133/135/124 145/147/124 147/149/126
f 146/148/123 89/89/125 148/150/125
f 133/135/124 147/149/126 136/138/127
f 136/138/127 147/149/126 149/151/128
f 136/138/127 149/151/128 150/152/128
f 148/150/125 89/89/125 91/91/129
f 148/150/125 91/91/129 151/153/129
f 151/153/129 91/91/129 93/93/130
f 151/153/129 93/93/130 152/154/130
f 152/154/130 93/93/130 153/155/131
f 152/154/130 153/155/131 154/156/131
f 154/156/131 153/155/131 150/157/128
f 154/156/131 150/157/128 149/158/128
f 138/159/132 155/160/133 139/161/134
f 139/161/134 155/160/133 141/162/134
f 155/160/133 138/159/132 137/163/132
f 141/162/134 155/160/133 143/164/134
f 155/160/133 137/163/132 140/165/132
f 143/164/134 155/160/133 145/166/132
f 155/160/133 140/165/132 142/167/132
f 145/166/132 155/160/133 147/168/135
f 155/160/133 142/167/132 144/169/132
f 147/168/135 155/160/133 149/170/132
f 155/160/133 144/169/132 146/171/136
f 149/170/132 155/160/133 154/172/132
f 155/160/133 146/171/136 148/173/136
f 154/172/132 155/160/133 152/174/136
f 155/160/133 148/173/136 151/175/136
f 155/160/133 151/175/136 152/174/136
f 5/176/137 1/177/138 156/178/137
f 5/176/137 156/178/137 157/179/139
f 5/176/137 157/179/139 7/180/139
f 156/178/137 1/177/138 158/181/138
f 158/181/138 1/177/138 3/182/140
f 158/181/138 3/182/140 159/183/140
f 159/183/140 3/182/140 4/184/100
f 159/183/140 4/184/100 114/185/100
f 7/180/139 157/179/139 160/186/141
f 7/180/139 160/186/141 9/187/141
f 9/187/141 160/186/141 161/188/142
f 9/187/141 161/188/142 11/189/142
f 11/189/142 161/188/142 162/190/143
f 11/189/142 162/190/143 13/191/143
f 13/191/143 162/190/143 163/192/144
f 13/191/143 163/192/144 12/193/144
f 12/193/144 163/192/144 164/194/145
f 12/193/144 164/194/145 10/195/145
f 10/195/145 164/194/145 165/196/146
f 10/195/145 165/196/146 8/197/146
f 8/197/146 165/196/146 113/114/99
f 8/197/146 113/114/99 6/113/99
f 29/198/17 166/199/147 27/200/15
f 27/200/15 166/199/147 167/201/148
f 27/200/15 167/201/148 28/202/16
f 28/202/16 167/201/148 168/203/149
f 167/201/148 166/199/147 169/204/150
f 167/201/148 169/204/150 170/205/151
f 166/199/147 29/198/17 171/206/152
f 171/206/152 29/198/17 31/207/19
f 169/204/150 166/199/147 172/208/153
f 172/208/153 166/199/147 171/206/152
f 170/205/151 169/204/150 173/209/154
f 170/205/151 173/209/154 174/210/155
f 169/204/150 172/208/153 175/211/156
f 169/204/150 175/211/156 173/209/154
f 171/206/152 31/207/19 176/212/157
f 176/212/157 31/207/19 33/213/21
f 172/208/153 171/206/152 177/214/158
f 177/214/158 171/206/152 176/212/157
f 175/211/156 172/208/153 178/215/159
f 178/215/159 172/208/153 177/214/158
f 173/209/154 175/211/156 179/216/160
f 173/209/154 179/216/160 180/217/161
f 175/211/156 178/215/159 181/218/162
f 175/211/156 181/218/162 179/216/160
f 179/216/160 181/218/162 182/219/163
f 179/216/160 182/219/163 183/220/164
f 181/218/162 178/215/159 184/221/165
f 182/219/163 181/218/162 185/222/166
f 185/222/166 181/218/162 184/221/165
f 182/219/163 185/222/166 186/223/167
f 182/219/163 186/223/167 187/224/168
f 185/222/166 184/221/165 188/225/169
f 186/223/167 185/222/166 189/226/170
f 189/226/170 185/222/166 188/225/169
f 186/223/167 189/226/170 190/227/171
f 186/223/167 190/227/171 191/228/172
f 189/226/170 188/225/169 192/229/173
f 190/227/171 189/226/170 193/230/174
f 193/230/174 189/226/170 192/229/173
f 191/228/172 190/227/171 194/231/175
f 191/228/172 194/231/175 195/232/176
f 190/227/171 193/230/174 196/233/177
f 190/227/171 196/233/177 194/231/175
f 193/230/174 192/229/173 47/234/35
f 193/230/174 47/234/35 196/233/177
f 197/235/178 192/229/173 188/225/169
f 192/229/173 197/235/178 47/234/35
f 194/231/175 196/233/177 198/236/179
f 198/236/179 196/233/177 47/234/35
f 199/237/180 195/232/176 194/231/175
f 199/237/180 194/231/175 198/236/179
f 195/232/176 199/237/180 200/238/181
f 199/237/180 198/236/179 88/239/76
f 88/239/76 198/236/179 47/234/35
f 199/237/180 88/239/76 85/240/73
f 199/237/180 85/240/73 200/238/181
f 200/238/181 85/240/73 81/241/69
f 201/242/182 197/235/178 188/225/169
f 201/242/182 188/225/169 184/221/165
f 197/235/178 201/242/182 202/243/183
f 197/235/178 202/243/183 47/234/35
f 201/242/182 184/221/165 203/244/184
f 203/244/184 184/221/165 178/215/159
f 203/244/184 178/215/159 177/214/158
f 201/242/182 203/244/184 204/245/185
f 201/242/182 204/245/185 202/243/183
f 203/244/184 177/214/158 205/246/186
f 203/244/184 205/246/186 204/245/185
f 205/246/186 177/214/158 176/212/157
f 202/243/183 204/245/185 206/247/187
f 202/243/183 206/247/187 47/234/35
f 204/245/185 205/246/186 207/248/188
f 204/245/185 207/248/188 206/247/187
f 205/246/186 176/212/157 208/249/189
f 205/246/186 208/249/189 207/248/188
f 208/249/189 176/212/157 33/213/21
f 208/249/189 33/213/21 36/250/24
f 208/249/189 36/250/24 209/251/190
f 208/249/189 209/251/190 207/248/188
f 209/251/190 36/250/24 40/252/28
f 210/253/191 206/247/187 207/248/188
f 210/253/191 207/248/188 209/251/190
f 206/247/187 210/253/191 47/234/35
f 209/251/190 40/252/28 211/254/192
f 209/251/190 211/254/192 210/253/191
f 210/253/191 211/254/192 47/234/35
f 211/254/192 40/252/28 42/255/30
f 211/254/192 42/255/30 47/234/35
f 212/256/193 213/257/194 19/19/7
f 19/19/7 213/257/194 16/16/4
f 212/256/193 19/19/7 22/22/10
f 16/16/4 213/257/194 214/258/195
f 16/16/4 214/258/195 14/14/2
f 213/257/194 212/256/193 215/259/196
f 213/257/194 215/259/196 214/258/195
f 212/256/193 22/22/10 216/260/197
f 212/256/193 216/260/197 215/259/196
f 216/260/197 22/22/10 26/26/14
f 216/260/197 26/26/14 217/261/198
f 216/260/197 217/261/198 215/259/196
f 217/261/198 26/26/14 28/28/16
f 217/261/198 28/28/16 218/262/199
f 217/261/198 218/262/199 215/259/196
f 219/263/200 14/14/2 214/258/195
f 219/263/200 214/258/195 215/259/196
f 14/14/2 219/263/200 220/264/201
f 14/14/2 220/264/201 17/17/5
f 17/17/5 220/264/201 64/64/52
f 220/264/201 219/263/200 221/265/202
f 221/265/202 219/263/200 215/259/196
f 64/64/52 220/264/201 222/266/203
f 222/266/203 220/264/201 221/265/202
f 64/64/52 222/266/203 223/267/204
f 64/64/52 223/267/204 65/65/53
f 65/65/53 223/267/204 67/67/55
f 221/265/202 215/259/196 224/268/205
f 221/265/202 224/268/205 222/266/203
f 224/268/205 215/259/196 225/269/206
f 225/269/206 215/259/196 226/270/207
f 222/266/203 224/268/205 227/271/208
f 227/271/208 224/268/205 225/269/206
f 222/266/203 227/271/208 223/267/204
f 225/269/206 226/270/207 228/272/209
f 225/269/206 228/272/209 227/271/208
f 228/272/209 226/270/207 229/273/210
f 223/267/204 227/271/208 230/274/211
f 230/274/211 227/271/208 228/272/209
f 223/267/204 230/274/211 67/67/55
f 228/272/209 229/273/210 231/275/212
f 228/272/209 231/275/212 230/274/211
f 231/275/212 229/273/210 232/276/213
f 67/67/55 230/274/211 233/277/214
f 233/277/214 230/274/211 231/275/212
f 67/67/55 233/277/214 68/68/56
f 68/68/56 233/277/214 70/70/58
f 233/277/214 231/275/212 234/278/215
f 234/278/215 231/275/212 232/276/213
f 233/277/214 234/278/215 70/70/58
f 234/278/215 232/276/213 235/279/216
f 70/70/58 234/278/215 236/280/217
f 236/280/217 234/278/215 235/279/216
f 70/70/58 236/280/217 71/71/59
f 236/280/217 235/279/216 237/281/218
f 71/71/59 236/280/217 76/76/64
f 76/76/64 236/280/217 237/281/218
f 76/76/64 237/281/218 80/80/68
f 106/106/92 107/107/93 238/282/219
f 238/282/219 107/107/93 111/111/97
f 238/282/219 111/111/97 239/283/220
f 239/283/220 111/111/97 240/284/221
f 239/283/220 240/284/221 241/285/222
f 240/284/221 111/111/97 242/286/223
f 242/286/223 111/111/97 110/110/96
f 242/286/223 110/110/96 112/112/98
f 242/286/223 112/112/98 243/287/224
f 242/286/223 243/287/224 244/288/225
f 242/286/223 244/288/225 240/284/221
f 244/288/225 243/287/224 245/289/226
f 246/290/227 241/285/222 240/284/221
f 246/290/227 240/284/221 244/288/225
f 241/285/222 246/290/227 247/291/228
f 244/288/225 245/289/226 248/292/229
f 244/288/225 248/292/229 246/290/227
f 248/292/229 245/289/226 249/293/230
f 247/291/228 246/290/227 250/294/231
f 250/294/231 246/290/227 248/292/229
f 247/291/228 250/294/231 251/295/232
f 248/292/229 249/293/230 252/296/233
f 248/292/229 252/296/233 250/294/231
f 252/296/233 249/293/230 253/297/234
f 252/296/233 253/297/234 101/298/87
f 101/298/87 253/297/234 254/299/235
f 250/294/231 252/296/233 255/300/236
f 255/300/236 252/296/233 101/298/87
f 250/294/231 255/300/236 251/295/232
f 255/300/236 101/298/87 98/301/84
f 251/295/232 255/300/236 99/302/85
f 99/302/85 255/300/236 98/301/84
f 159/303/237 256/304/237 158/305/237
f 158/305/237 256/304/237 156/306/237
f 256/304/237 159/303/237 114/307/237
f 156/306/237 256/304/237 157/308/237
f 256/304/237 114/307/237 113/309/237
f 157/308/237 256/304/237 160/310/237
f 256/304/237 113/309/237 165/311/237
f 160/310/237 256/304/237 161/312/237
f 256/304/237 165/311/237 164/313/237
f 161/312/237 256/304/237 162/314/237
f 256/304/237 164/313/237 163/315/237
f 256/304/237 163/315/237 162/314/237
f 94/94/238 257/316/239 93/93/238
f 93/93/238 257/316/239 153/155/239
f 153/155/239 257/316/239 150/157/240
f 150/157/240 257/316/239 258/317/240
f 28/202/16 168/203/149 218/318/199
f 218/318/199 168/203/149 259/319/241
f 218/318/199 259/319/241 215/320/196
f 167/201/148 170/205/151 168/203/149
f 168/203/149 170/205/151 260/321/242
f 168/203/149 260/321/242 259/319/241
f 260/321/242 170/205/151 174/210/155
f 259/319/241 260/321/242 261/322/243
f 259/319/241 261/322/243 215/320/196
f 260/321/242 174/210/155 262/323/244
f 260/321/242 262/323/244 261/322/243
f 261/322/243 262/323/244 263/324/245
f 261/322/243 263/324/245 215/320/196
f 262/323/244 174/210/155 264/325/246
f 263/324/245 262/323/244 265/326/247
f 265/326/247 262/323/244 264/325/246
f 263/324/245 265/326/247 266/327/248
f 263/324/245 266/327/248 215/320/196
f 264/325/246 174/210/155 180/217/161
f 180/217/161 174/210/155 173/209/154
f 265/326/247 264/325/246 267/328/249
f 266/327/248 265/326/247 268/329/250
f 268/329/250 265/326/247 267/328/249
f 266/327/248 268/329/250 269/330/251
f 266/327/248 269/330/251 215/320/196
f 264/325/246 180/217/161 270/331/252
f 264/325/246 270/331/252 267/328/249
f 270/331/252 180/217/161 183/220/164
f 183/220/164 180/217/161 179/216/160
f 267/328/249 270/331/252 271/332/253
f 270/331/252 183/220/164 272/333/254
f 270/331/252 272/333/254 271/332/253
f 272/333/254 183/220/164 187/224/168
f 187/224/168 183/220/164 182/219/163
f 271/332/253 272/333/254 273/334/255
f 267/328/249 271/332/253 274/335/256
f 267/328/249 274/335/256 268/329/250
f 274/335/256 271/332/253 275/336/257
f 275/336/257 271/332/253 273/334/255
f 268/329/250 274/335/256 276/337/258
f 268/329/250 276/337/258 269/330/251
f 274/335/256 275/336/257 277/338/259
f 274/335/256 277/338/259 276/337/258
f 278/339/260 273/334/255 272/333/254
f 278/339/260 272/333/254 187/224/168
f 278/339/260 187/224/168 191/228/172
f 191/228/172 187/224/168 186/223/167
f 278/339/260 191/228/172 195/232/176
f 278/339/260 195/232/176 279/340/261
f 278/339/260 279/340/261 273/334/255
f 279/340/261 195/232/176 200/238/181
f 273/334/255 279/340/261 280/341/262
f 273/334/255 280/341/262 275/336/257
f 279/340/261 200/238/181 281/342/263
f 279/340/261 281/342/263 280/341/262
f 281/342/263 200/238/181 81/241/69
f 281/342/263 81/241/69 80/343/68
f 281/342/263 80/343/68 282/344/264
f 281/342/263 282/344/264 280/341/262
f 282/344/264 80/343/68 237/345/218
f 283/346/265 275/336/257 280/341/262
f 283/346/265 280/341/262 282/344/264
f 275/336/257 283/346/265 277/338/259
f 282/344/264 237/345/218 284/347/266
f 282/344/264 284/347/266 283/346/265
f 284/347/266 237/345/218 235/348/216
f 277/338/259 283/346/265 285/349/267
f 285/349/267 283/346/265 284/347/266
f 284/347/266 235/348/216 286/350/268
f 284/347/266 286/350/268 285/349/267
f 286/350/268 235/348/216 232/351/213
f 277/338/259 285/349/267 287/352/269
f 277/338/259 287/352/269 276/337/258
f 285/349/267 286/350/268 288/353/270
f 285/349/267 288/353/270 287/352/269
f 286/350/268 232/351/213 289/354/271
f 286/350/268 289/354/271 288/353/270
f 289/354/271 232/351/213 229/355/210
f 276/337/258 287/352/269 290/356/272
f 276/337/258 290/356/272 269/330/251
f 287/352/269 288/353/270 291/357/273
f 287/352/269 291/357/273 290/356/272
f 269/330/251 290/356/272 215/320/196
f 215/320/196 290/356/272 291/357/273
f 291/357/273 288/353/270 292/358/274
f 292/358/274 288/353/270 289/354/271
f 291/357/273 292/358/274 215/320/196
f 292/358/274 289/354/271 293/359/275
f 292/358/274 293/359/275 215/320/196
f 293/359/275 289/354/271 229/355/210
f 215/320/196 293/359/275 226/360/207
f 226/360/207 293/359/275 229/355/210
f 96/96/82 98/98/84 100/100/86
f 254/361/235 103/103/89 100/100/86
f 254/361/235 100/100/86 101/101/87
f 135/137/113 136/138/113 258/362/276
f 258/362/276 136/138/113 150/152/276
