# CS2 body_hd, tools/cs2_glb_to_obj.py
v -0.30914 0.01375 0.034
v -0.30914 0.01295 0.03379
v -0.30914 0.01237 0.03437
v -0.30893 0.01473 0.03368
v -0.30893 0.01497 0.03459
v -0.30893 0.01407 0.03302
v -0.30914 0.01396 0.0348
v -0.30838 0.01317 0.03222
v -0.30838 0.01435 0.03254
v -0.30893 0.01317 0.03278
v -0.30838 0.01198 0.03254
v -0.30893 0.01226 0.03302
v -0.30838 0.01112 0.0334
v -0.30893 0.0116 0.03368
v -0.30838 0.0108 0.03459
v -0.30893 0.01136 0.03459
v -0.30838 0.01112 0.03577
v -0.30893 0.0116 0.03549
v -0.30838 0.01198 0.03664
v -0.30914 0.01259 0.03517
v -0.30893 0.01226 0.03615
v -0.30838 0.01317 0.03695
v -0.30914 0.01338 0.03538
v -0.30893 0.01407 0.03615
v -0.30893 0.01473 0.03549
v -0.30893 0.01317 0.03639
v -0.30838 0.01435 0.03664
v -0.30792 0.01797 0.02327
v -0.30792 0.00836 0.02327
v -0.30792 0.00717 0.02419
v -0.30792 0.01565 0.02231
v -0.30792 0.01068 0.02231
v -0.30792 0.01317 0.02198
v -0.30792 0.01916 0.02419
v -0.30792 0.00717 0.02496
v -0.30792 0.01916 0.02496
v -0.30792 0.01317 0.03163
v -0.30792 0.01171 0.03202
v -0.30792 0.01467 0.03202
v -0.30792 0.01063 0.03311
v -0.30792 0.01575 0.03311
v -0.30792 0.00509 0.02496
v -0.30792 0.01615 0.03459
v -0.30792 0.01023 0.03459
v -0.30792 0.02123 0.02496
v -0.30792 0.00497 0.04317
v -0.30792 0.01063 0.03607
v -0.30792 0.01171 0.03715
v -0.30792 0.00402 0.02496
v -0.30789 0.01317 0.03751
v -0.30789 0.02123 0.04314
v -0.30792 0.01575 0.03607
v -0.30789 0.01467 0.03711
v -0.30789 0.02231 0.04313
v -0.30792 0.02231 0.02496
v -0.30765 0.02123 0.04397
v -0.30765 0.02231 0.04397
v -0.30684 0.02123 0.04424
v -0.30684 0.02231 0.04424
v -0.30498 0.02231 0.04424
v -0.30498 0.02123 0.04424
v -0.30684 0.00497 0.04424
v -0.30498 0.00497 0.04424
v -0.30765 0.00497 0.04397
v -0.30498 0.00402 0.04424
v -0.30684 0.00402 0.04424
v -0.30498 0.00181 0.04171
v -0.30765 0.00402 0.04397
v -0.30792 0.00402 0.04317
v -0.30324 0.0007 0.03765
v -0.30324 0.0007 0.02496
v -0.30174 -0.00039 0.03975
v -0.30183 -0.00029 0.03765
v -0.29634 0.00149 0.04171
v -0.30069 -0.00088 0.03932
v -0.30069 -0.00088 0.03765
v -0.29948 -0.00104 0.03917
v -0.29634 -0.00104 0.03917
v -0.29948 -0.00104 0.03765
v -0.29634 -0.00104 0.03765
v -0.29633 0.01068 0.02231
v -0.29633 0.01317 0.02198
v -0.29633 0.00952 0.01949
v -0.29633 0.00952 0.02279
v -0.29633 0.01681 0.01949
v -0.29633 0.01565 0.02231
v -0.29633 0.01681 0.02279
v -0.29634 0.0245 0.04171
v -0.29634 0.02469 0.04181
v -0.29634 0.02484 0.04171
v -0.27902 0.01317 0.03765
v -0.27902 0.01317 0.03487
v -0.27902 -0.00104 0.03487
v -0.27902 -0.00086 0.03781
v -0.27902 -0.00104 0.03917
v -0.27902 0.00402 0.04424
v -0.27902 0.00439 0.04424
v -0.27902 0.02737 0.03917
v -0.27902 0.02737 0.03765
v -0.27902 0.02692 0.03765
v -0.27902 0.02231 0.04424
v -0.27902 0.02185 0.04424
v -0.27855 -0.00187 0.03434
v -0.27855 -0.00187 0.02643
v -0.27859 -0.00261 0.03497
v -0.27859 -0.00261 0.02585
v -0.30838 0.01522 0.0334
v -0.30838 0.01553 0.03459
v -0.30838 0.01522 0.03577
v -0.2791 -0.00362 0.02585
v -0.2791 -0.00362 0.03497
v -0.27939 -0.00294 0.02643
v -0.27939 -0.00294 0.03434
v -0.30715 0.01112 0.03339
v -0.30715 0.012 0.03252
v -0.30715 0.01317 0.0322
v -0.30715 0.0108 0.03459
v -0.30715 0.01112 0.03578
v -0.30715 0.012 0.03665
v -0.30715 0.01317 0.03697
v -0.30715 0.01438 0.03252
v -0.30715 0.01525 0.03339
v -0.30715 0.01557 0.03459
v -0.30715 0.01525 0.03578
v -0.30715 0.01438 0.03665
v -0.27913 -0.00476 0.02585
v -0.27913 -0.00476 0.03752
v -0.27969 -0.00427 0.03694
v -0.27969 -0.00427 0.02643
v -0.27969 -0.00408 0.03694
v -0.27969 -0.00408 0.02643
v -0.27946 -0.00543 0.02643
v -0.27946 -0.00543 0.03694
v -0.29341 0.00549 0.03752
v -0.29341 0.00549 0.03497
v -0.29338 0.00374 0.03752
v -0.29338 0.00374 0.03497
v -0.29286 0.00207 0.03752
v -0.29286 0.00207 0.03497
v -0.29189 0.00061 0.03752
v -0.29189 0.00061 0.03497
v -0.29128 -0.00002 0.03497
v -0.29128 -0.00002 0.03752
v -0.29055 -0.00051 0.03497
v -0.29055 -0.00051 0.03752
v -0.28978 -0.00093 0.03497
v -0.28978 -0.00093 0.03752
v -0.28895 -0.00122 0.03497
v -0.28895 -0.00122 0.03752
v -0.28809 -0.0014 0.03497
v -0.28811 -0.0014 0.03752
v -0.28721 -0.00144 0.03497
v -0.28721 -0.00144 0.03752
v -0.28633 -0.00137 0.03497
v -0.28633 -0.00137 0.03752
v -0.28549 -0.00116 0.03497
v -0.28549 -0.00116 0.03752
v -0.28466 -0.00085 0.03497
v -0.28466 -0.00085 0.03752
v -0.28391 -0.00041 0.03497
v -0.28391 -0.00041 0.03752
v -0.28343 0.00001 0.03752
v -0.28343 0.00001 0.03497
v -0.2791 -0.00362 0.03752
v -0.27931 -0.00277 0.03434
v -0.27931 -0.00277 0.02643
v -0.27562 0.02231 0.04424
v -0.27562 0.02737 0.03917
v -0.27562 0.02737 0.0376
v -0.27562 0.02737 0.02496
v -0.28361 0.02737 0.02878
v -0.28303 0.02737 0.02936
v -0.28282 0.02737 0.03015
v -0.2844 0.02737 0.02857
v -0.28303 0.02737 0.03094
v -0.28361 0.02737 0.03152
v -0.2844 0.02737 0.03173
v -0.30078 0.02737 0.02496
v -0.29634 0.02737 0.03765
v -0.28519 0.02737 0.02878
v -0.28576 0.02737 0.02936
v -0.28598 0.02737 0.03015
v -0.28519 0.02737 0.03152
v -0.28576 0.02737 0.03094
v -0.30078 0.02737 0.03862
v -0.29634 0.02737 0.03917
v -0.30078 0.02737 0.03917
v -0.3051 0.02443 0.04101
v -0.30498 0.02452 0.04171
v -0.29818 0.00776 0.04416
v -0.29796 0.00814 0.04462
v -0.29876 0.00836 0.04462
v -0.29876 0.00792 0.04416
v -0.29957 0.00814 0.04462
v -0.29775 0.00733 0.04416
v -0.29736 0.00755 0.04462
v -0.29934 0.00776 0.04416
v -0.30016 0.00755 0.04462
v -0.29977 0.00733 0.04416
v -0.30038 0.00675 0.04462
v -0.29715 0.00675 0.04462
v -0.29993 0.00675 0.04416
v -0.30016 0.00594 0.04462
v -0.29977 0.00616 0.04416
v -0.2976 0.00675 0.04416
v -0.29775 0.00616 0.04416
v -0.29736 0.00594 0.04462
v -0.29934 0.00573 0.04416
v -0.29818 0.00573 0.04416
v -0.29876 0.00558 0.04416
v -0.27773 -0.00104 0.03917
v -0.27562 0.00402 0.04424
v -0.27946 0.02168 0.04462
v -0.29715 0.01959 0.04462
v -0.29736 0.01878 0.04462
v -0.29736 0.02039 0.04462
v -0.29796 0.02098 0.04462
v -0.29876 0.0212 0.04463
v -0.29796 0.01819 0.04462
v -0.29876 0.01797 0.04462
v -0.29957 0.01819 0.04462
v -0.30016 0.01878 0.04462
v -0.30462 0.02168 0.04462
v -0.30038 0.01959 0.04462
v -0.30016 0.02039 0.04462
v -0.29957 0.02098 0.04462
v -0.30462 0.00465 0.04462
v -0.29957 0.00535 0.04462
v -0.29876 0.00514 0.04463
v -0.27946 0.00465 0.04462
v -0.29796 0.00535 0.04462
v -0.30462 0.02208 0.04454
v -0.27946 0.02208 0.04454
v -0.27913 0.02175 0.04451
v -0.30495 0.0244 0.04208
v -0.30462 0.00425 0.04454
v -0.27902 0.02193 0.04419
v -0.27913 0.0223 0.04428
v -0.27913 0.00459 0.04451
v -0.27902 0.00426 0.04419
v -0.27946 0.00425 0.04454
v -0.27913 0.00404 0.04428
v -0.27902 -0.00069 0.03932
v -0.27946 0.00392 0.04431
v -0.30462 0.00392 0.04431
v -0.27946 -0.00072 0.03945
v -0.2959 0.00174 0.04203
v -0.27902 -0.00088 0.03908
v -0.30495 0.00194 0.04208
v -0.30462 0.00176 0.04205
v -0.30462 0.00164 0.04181
v -0.29634 0.00181 0.04171
v -0.29634 0.00164 0.04181
v -0.29634 0.00154 0.04171
v -0.2959 -0.00072 0.03945
v -0.29634 -0.00069 0.03932
v -0.29634 -0.00088 0.03908
v -0.27946 -0.00094 0.0391
v -0.2959 -0.00094 0.0391
v -0.27946 -0.00102 0.0387
v -0.27902 -0.00091 0.03876
v -0.2959 -0.00102 0.0387
v -0.29634 -0.00091 0.03876
v -0.29634 -0.00091 0.03808
v -0.2959 -0.00102 0.03808
v -0.29633 -0.00059 0.03765
v -0.27946 -0.00102 0.03808
v -0.27902 -0.00091 0.03808
v -0.2959 -0.00091 0.03776
v -0.27946 -0.00059 0.03765
v -0.27902 -0.00059 0.03776
v -0.27946 -0.00091 0.03776
v -0.29934 0.01857 0.04416
v -0.29876 0.01842 0.04416
v -0.29818 0.01857 0.04416
v -0.29775 0.019 0.04416
v -0.29977 0.019 0.04416
v -0.2976 0.01959 0.04416
v -0.29993 0.01959 0.04416
v -0.29775 0.02017 0.04416
v -0.29977 0.02017 0.04416
v -0.29818 0.0206 0.04416
v -0.29934 0.0206 0.04416
v -0.29876 0.02076 0.04416
v -0.27946 0.02242 0.04431
v -0.30462 0.02242 0.04431
v -0.2959 0.02459 0.04203
v -0.30462 0.02457 0.04205
v -0.30462 0.02469 0.04181
v -0.2959 0.02705 0.03945
v -0.29634 0.02702 0.03932
v -0.29634 0.02722 0.03908
v -0.27946 0.02705 0.03945
v -0.2959 0.02735 0.0391
v -0.29634 0.02719 0.03781
v -0.27946 0.02735 0.0391
v -0.27902 0.02722 0.03908
v -0.2959 0.02735 0.03776
v -0.29634 0.02692 0.03765
v -0.27946 0.02735 0.03776
v -0.27902 0.02719 0.03781
v -0.28201 0.00171 0.03752
v -0.27768 -0.00193 0.03752
v -0.27467 -0.0059 0.03752
v -0.27485 -0.00675 0.03694
v -0.2747 -0.00664 0.03694
v -0.27558 -0.00658 0.03752
v -0.27611 -0.00727 0.03694
v -0.27593 -0.00724 0.03694
v -0.27415 -0.00489 0.03752
v -0.27395 -0.00574 0.03694
v -0.27386 -0.00557 0.03694
v -0.27412 -0.00375 0.03752
v -0.27357 -0.00442 0.03694
v -0.27356 -0.00424 0.03694
v -0.27656 -0.0017 0.03752
v -0.27459 -0.00271 0.03752
v -0.27546 -0.00198 0.03752
v -0.27669 -0.00681 0.03752
v -0.27747 -0.0072 0.03694
v -0.27729 -0.00725 0.03694
v -0.27779 -0.00653 0.03752
v -0.27867 -0.00654 0.03694
v -0.27852 -0.00666 0.03694
v -0.27866 -0.0058 0.03752
v -0.27938 -0.0056 0.03694
v -0.28168 0.00224 0.03752
v -0.28121 0.00393 0.03752
v -0.28124 0.00568 0.03752
v -0.28176 0.00735 0.03752
v -0.29248 0.00792 0.03752
v -0.2834 0.00937 0.03752
v -0.28993 0.0102 0.03752
v -0.28654 0.01075 0.03752
v -0.27773 -0.00104 0.02496
v -0.29572 -0.00104 0.02496
v -0.29572 -0.00104 0.03487
v -0.29633 0.00001 0.02496
v -0.29634 0.00001 0.03487
v -0.29734 0.00065 0.03765
v -0.29634 0.00001 0.03765
v -0.29734 0.00065 0.02496
v -0.2986 0.00105 0.02496
v -0.2986 0.00105 0.03765
v -0.30038 0.00122 0.02496
v -0.30038 0.00122 0.03765
v -0.30217 0.00105 0.02496
v -0.30217 0.00105 0.03765
v -0.27593 -0.00724 0.02643
v -0.27558 -0.00658 0.02585
v -0.27611 -0.00727 0.02643
v -0.27485 -0.00675 0.02643
v -0.27669 -0.00681 0.02585
v -0.2747 -0.00664 0.02643
v -0.27467 -0.0059 0.02585
v -0.27729 -0.00725 0.02643
v -0.27747 -0.0072 0.02643
v -0.27395 -0.00574 0.02643
v -0.27386 -0.00557 0.02643
v -0.27779 -0.00653 0.02585
v -0.27852 -0.00666 0.02643
v -0.27867 -0.00654 0.02643
v -0.27866 -0.0058 0.02585
v -0.27938 -0.0056 0.02643
v -0.2943 0.00102 0.03487
v -0.2943 0.01317 0.03487
v -0.28337 0.0269 0.02956
v -0.28321 0.0269 0.03015
v -0.2838 0.0269 0.02912
v -0.28337 0.0269 0.03075
v -0.2838 0.0269 0.03118
v -0.2844 0.0269 0.02896
v -0.28499 0.0269 0.02912
v -0.2844 0.0269 0.03134
v -0.28543 0.0269 0.02956
v -0.28559 0.0269 0.03015
v -0.28499 0.0269 0.03118
v -0.28543 0.0269 0.03075
v -0.30726 0.01317 0.0322
v -0.30726 0.01436 0.03252
v -0.30726 0.01523 0.03339
v -0.30726 0.01555 0.03459
v -0.30726 0.01523 0.03578
v -0.30726 0.01436 0.03665
v -0.30726 0.01317 0.03697
v -0.30726 0.01197 0.03252
v -0.30726 0.0111 0.03339
v -0.30726 0.01078 0.03459
v -0.30726 0.0111 0.03578
v -0.30726 0.01197 0.03665
v -0.27562 0.01681 0.01949
v -0.27562 0.01681 0.02279
v -0.28993 0.0102 0.03497
v -0.29248 0.00792 0.03497
v -0.28654 0.01075 0.03497
v -0.2834 0.00937 0.03497
v -0.28176 0.00735 0.03497
v -0.28124 0.00568 0.03497
v -0.27562 0.01916 0.02419
v -0.27562 0.01916 0.02496
v -0.27562 0.00952 0.01949
v -0.27562 0.00952 0.02279
v -0.27562 0.00717 0.02419
v -0.27562 0.00717 0.02496
v -0.27415 -0.00489 0.02585
v -0.27356 -0.00424 0.02643
v -0.27357 -0.00442 0.02643
v -0.27412 -0.00375 0.02585
v -0.27459 -0.00271 0.02585
v -0.27546 -0.00198 0.02585
v -0.27768 -0.00193 0.02585
v -0.27656 -0.0017 0.02585
v -0.27562 0.00402 0.02496
v -0.27733 -0.00127 0.02643
v -0.27733 -0.00127 0.03694
v -0.27714 -0.00124 0.03694
v -0.27714 -0.00124 0.02643
v -0.27596 -0.00126 0.03694
v -0.27596 -0.00126 0.02643
v -0.27578 -0.00131 0.03694
v -0.27578 -0.00131 0.02643
v -0.27473 -0.00185 0.03694
v -0.27473 -0.00185 0.02643
v -0.27459 -0.00197 0.03694
v -0.27459 -0.00197 0.02643
v -0.27768 -0.00193 0.03497
v -0.2784 -0.00176 0.02643
v -0.2784 -0.00176 0.03434
v -0.27388 -0.00291 0.02643
v -0.2738 -0.00308 0.02643
v -0.28201 0.00171 0.03497
v -0.28121 0.00393 0.03497
v -0.28168 0.00224 0.03497
v -0.27902 0.01329 0.03765
v -0.2943 0.01317 0.03765
v -0.2738 -0.00308 0.03694
v -0.27388 -0.00291 0.03694
v -0.2943 0.00102 0.03765
vt 0.005432 0.626942
vt 0.006317 0.626453
vt 0.006317 0.625477
vt 0.004852 0.628407
vt 0.003845 0.627918
vt 0.006043 0.628407
vt 0.004547 0.626453
vt 0.007782 0.628407
vt 0.006287 0.629383
vt 0.00708 0.62743
vt 0.008667 0.626942
vt 0.00766 0.626453
vt 0.008667 0.624989
vt 0.00763 0.625477
vt 0.007782 0.623524
vt 0.007019 0.6245
vt 0.006287 0.623035
vt 0.005982 0.624012
vt 0.004578 0.623035
vt 0.005432 0.624989
vt 0.004822 0.624012
vt 0.003052 0.623524
vt 0.004547 0.625477
vt 0.003204 0.625477
vt 0.003235 0.626453
vt 0.003784 0.6245
vt 0.002197 0.624989
vt 0.169408 0.228492
vt 0.18186 0.22837
vt 0.183447 0.227241
vt 0.17246 0.229713
vt 0.178808 0.229713
vt 0.175634 0.230079
vt 0.167821 0.227241
vt 0.183447 0.226173
vt 0.167821 0.226295
vt 0.175634 0.217627
vt 0.177465 0.217109
vt 0.173681 0.217109
vt 0.178808 0.215644
vt 0.172338 0.215644
vt 0.18601 0.226173
vt 0.171728 0.213843
vt 0.179296 0.213843
vt 0.165258 0.226295
vt 0.186132 0.202734
vt 0.178808 0.211859
vt 0.177465 0.210547
vt 0.187353 0.225929
vt 0.175512 0.210059
vt 0.165136 0.202734
vt 0.172338 0.211859
vt 0.173681 0.210547
vt 0.163915 0.202612
vt 0.163915 0.225929
vt 0.165136 0.201727
vt 0.164037 0.201849
vt 0.165014 0.200781
vt 0.163671 0.20127
vt 0.16245 0.19953
vt 0.164647 0.198584
vt 0.186132 0.200781
vt 0.186621 0.198584
vt 0.18601 0.201727
vt 0.188574 0.199438
vt 0.187231 0.201147
vt 0.19187 0.203436
vt 0.186987 0.201727
vt 0.187109 0.20249
vt 0.195044 0.20896
vt 0.1948 0.225929
vt 0.197119 0.205908
vt 0.197241 0.208594
vt 0.202734 0.200537
vt 0.198584 0.206275
vt 0.19895 0.20835
vt 0.200049 0.20603
vt 0.204077 0.204932
vt 0.200537 0.207953
vt 0.204566 0.206885
vt 0.546373 0.563952
vt 0.543443 0.56444
vt 0.547838 0.567858
vt 0.547838 0.563463
vt 0.53856 0.567858
vt 0.540025 0.563952
vt 0.53856 0.563463
vt 0.110202 0.056795
vt 0.110446 0.056673
vt 0.110263 0.056673
vt 0.958495 0.668935
vt 0.958495 0.672842
vt 0.976562 0.672842
vt 0.976562 0.668935
vt 0.976562 0.666982
vt 0.970214 0.660634
vt 0.969726 0.660634
vt 0.326395 0.427473
vt 0.326395 0.429426
vt 0.326884 0.429426
vt 0.332987 0.420881
vt 0.333476 0.420881
vt 0.474837 0.447249
vt 0.484848 0.447249
vt 0.473861 0.446242
vt 0.48558 0.446242
vt 0.004547 0.629383
vt 0.003052 0.628407
vt 0.002197 0.626942
vt 0.48558 0.474349
vt 0.473861 0.474349
vt 0.485092 0.475082
vt 0.474837 0.475082
vt 0.53856 0.160253
vt 0.537584 0.161199
vt 0.538072 0.162328
vt 0.536119 0.162786
vt 0.536119 0.161596
vt 0.539537 0.160833
vt 0.539048 0.158879
vt 0.540025 0.158879
vt 0.53856 0.157414
vt 0.539537 0.156804
vt 0.537584 0.156468
vt 0.538072 0.15537
vt 0.536119 0.156102
vt 0.536119 0.154851
vt 0.534165 0.162328
vt 0.534654 0.161199
vt 0.532701 0.160955
vt 0.533677 0.160253
vt 0.531724 0.158879
vt 0.533189 0.158879
vt 0.532701 0.156804
vt 0.533677 0.157414
vt 0.534165 0.155492
vt 0.534654 0.156468
vt 0.48558 0.472152
vt 0.470687 0.472152
vt 0.471419 0.473128
vt 0.484848 0.473128
vt 0.471419 0.473342
vt 0.484848 0.473342
vt 0.484848 0.471175
vt 0.471419 0.471175
vt 0.997559 0.7163
vt 0.99414 0.7163
vt 0.997559 0.718741
vt 0.99414 0.718741
vt 0.997559 0.720695
vt 0.99414 0.720695
vt 0.997559 0.723136
vt 0.99414 0.723136
vt 0.99414 0.724113
vt 0.997559 0.724113
vt 0.99414 0.725578
vt 0.997559 0.725578
vt 0.99414 0.726554
vt 0.997559 0.726554
vt 0.99414 0.727531
vt 0.997559 0.727531
vt 0.99414 0.728996
vt 0.997559 0.728996
vt 0.99414 0.729972
vt 0.997559 0.729972
vt 0.99414 0.730949
vt 0.997559 0.730949
vt 0.99414 0.732414
vt 0.997559 0.732414
vt 0.99414 0.73339
vt 0.997559 0.73339
vt 0.99414 0.734367
vt 0.997559 0.734367
vt 0.997559 0.735343
vt 0.99414 0.735343
vt 0.99414 0.742668
vt 0.997559 0.742668
vt 0.470687 0.474349
vt 0.474837 0.475326
vt 0.473861 0.476058
vt 0.484848 0.475326
vt 0.48558 0.476058
vt 0.124485 0.198096
vt 0.12009 0.198096
vt 0.12009 0.207343
vt 0.124485 0.207343
vt 0.124485 0.209296
vt 0.12009 0.209418
vt 0.12009 0.225929
vt 0.130467 0.220801
vt 0.129612 0.220069
vt 0.129368 0.219062
vt 0.131443 0.221015
vt 0.129612 0.217994
vt 0.130467 0.217231
vt 0.131443 0.217017
vt 0.152684 0.225929
vt 0.146947 0.209296
vt 0.13242 0.220801
vt 0.133152 0.220069
vt 0.133518 0.219062
vt 0.13242 0.217231
vt 0.133274 0.217994
vt 0.152684 0.208197
vt 0.147069 0.207129
vt 0.152806 0.207587
vt 0.159276 0.204932
vt 0.159032 0.203558
vt 0.147801 0.202368
vt 0.472152 0.984375
vt 0.471419 0.983886
vt 0.471175 0.985351
vt 0.471908 0.985351
vt 0.471419 0.986328
vt 0.47264 0.983886
vt 0.472152 0.983398
vt 0.472152 0.985839
vt 0.472152 0.987304
vt 0.47264 0.986328
vt 0.473373 0.987304
vt 0.473373 0.98291
vt 0.473373 0.986816
vt 0.474593 0.987304
vt 0.474105 0.986328
vt 0.473373 0.983886
vt 0.474105 0.983886
vt 0.474593 0.983398
vt 0.474593 0.985839
vt 0.474593 0.984375
vt 0.474837 0.985351
vt 0.124546 0.174383
vt 0.124546 0.165105
vt 0.122837 0.165105
vt 0.12009 0.174383
vt 0.124485 0.174902
vt 0.124485 0.197485
vt 0.115818 0.03473
vt 0.118503 0.057619
vt 0.119541 0.057894
vt 0.117405 0.057894
vt 0.116611 0.058657
vt 0.116367 0.059755
vt 0.134129 0.057894
vt 0.133274 0.058657
vt 0.120334 0.058657
vt 0.13303 0.059755
vt 0.12064 0.059755
vt 0.133274 0.060793
vt 0.120334 0.060793
vt 0.119541 0.061586
vt 0.134129 0.061586
vt 0.115818 0.067324
vt 0.118503 0.061861
vt 0.117405 0.061586
vt 0.116672 0.060793
vt 0.137913 0.067324
vt 0.135105 0.061861
vt 0.136204 0.061586
vt 0.137059 0.060762
vt 0.137303 0.059755
vt 0.137791 0.03473
vt 0.137059 0.058657
vt 0.136204 0.057894
vt 0.135105 0.057619
vt 0.115329 0.067324
vt 0.115329 0.03473
vt 0.114963 0.067965
vt 0.115696 0.034272
vt 0.111057 0.067843
vt 0.110202 0.067904
vt 0.138768 0.067965
vt 0.138279 0.067324
vt 0.115329 0.033998
vt 0.114963 0.034303
vt 0.137913 0.034272
vt 0.138401 0.033998
vt 0.138279 0.03473
vt 0.138646 0.034242
vt 0.147557 0.033998
vt 0.138768 0.03473
vt 0.138768 0.067324
vt 0.147557 0.03473
vt 0.142918 0.056032
vt 0.148045 0.033998
vt 0.142674 0.067782
vt 0.143406 0.067965
vt 0.142796 0.067324
vt 0.143162 0.067324
vt 0.143406 0.056703
vt 0.143162 0.056642
vt 0.143284 0.05652
vt 0.147557 0.056032
vt 0.147557 0.05652
vt 0.148045 0.05652
vt 0.148045 0.03473
vt 0.148045 0.056032
vt 0.148412 0.03473
vt 0.148412 0.033998
vt 0.148412 0.056032
vt 0.148412 0.05652
vt 0.149266 0.05652
vt 0.149266 0.056001
vt 0.150243 0.05652
vt 0.149266 0.03473
vt 0.149266 0.033998
vt 0.149754 0.033998
vt 0.149754 0.056032
vt 0.150243 0.03473
vt 0.150121 0.033998
vt 0.149754 0.03473
vt 0.033021 0.987793
vt 0.033204 0.986816
vt 0.033021 0.986328
vt 0.032472 0.985351
vt 0.032502 0.988281
vt 0.032899 0.984863
vt 0.031739 0.984375
vt 0.031739 0.985351
vt 0.032899 0.988769
vt 0.03177 0.989257
vt 0.031739 0.988281
vt 0.03061 0.988769
vt 0.031037 0.985351
vt 0.03061 0.984863
vt 0.031037 0.988281
vt 0.029756 0.987793
vt 0.030488 0.986328
vt 0.029756 0.985839
vt 0.030488 0.987793
vt 0.02945 0.986816
vt 0.030305 0.986816
vt 0.473861 0.399609
vt 0.462874 0.399121
vt 0.462874 0.429426
vt 0.473861 0.428938
vt 0.034059 0.986816
vt 0.033753 0.987793
vt 0.033753 0.985839
vt 0.114841 0.03473
vt 0.114841 0.067324
vt 0.110813 0.056063
vt 0.110813 0.067324
vt 0.110508 0.067324
vt 0.106174 0.056063
vt 0.106113 0.056673
vt 0.105625 0.056673
vt 0.106174 0.03473
vt 0.105625 0.056032
vt 0.103977 0.056673
vt 0.105625 0.03473
vt 0.105686 0.033998
vt 0.103916 0.056032
vt 0.103366 0.056612
vt 0.103366 0.033998
vt 0.103916 0.03473
vt 0.103977 0.033998
vt 0.113071 0.482162
vt 0.11594 0.474837
vt 0.113071 0.474837
vt 0.114536 0.46849
vt 0.115574 0.467757
vt 0.115329 0.467757
vt 0.11594 0.468978
vt 0.117283 0.468734
vt 0.1171 0.46849
vt 0.113071 0.468978
vt 0.113681 0.467757
vt 0.113437 0.467757
vt 0.111911 0.469924
vt 0.111972 0.46849
vt 0.111728 0.468734
vt 0.111911 0.47383
vt 0.111301 0.471175
vt 0.111301 0.47264
vt 0.1171 0.469924
vt 0.118442 0.470168
vt 0.11832 0.469924
vt 0.117771 0.471175
vt 0.118809 0.471908
vt 0.118809 0.471664
vt 0.117771 0.47264
vt 0.1171 0.47383
vt 0.11832 0.47383
vt 0.118442 0.473586
vt 0.1171 0.475326
vt 0.117283 0.475082
vt 0.11594 0.482162
vt 0.122532 0.489975
vt 0.12241 0.488754
vt 0.12241 0.490951
vt 0.122166 0.487777
vt 0.121738 0.493118
vt 0.116733 0.482406
vt 0.112278 0.482406
vt 0.121738 0.486557
vt 0.110202 0.483139
vt 0.12125 0.485549
vt 0.120518 0.495102
vt 0.117832 0.48265
vt 0.108493 0.484848
vt 0.120518 0.484848
vt 0.118809 0.483139
vt 0.119724 0.483871
vt 0.118809 0.496567
vt 0.107273 0.486557
vt 0.115635 0.497787
vt 0.106662 0.489975
vt 0.11124 0.497024
vt 0.107883 0.494125
vt 0.69628 0.553697
vt 0.673818 0.553697
vt 0.673818 0.554186
vt 0.69628 0.554186
vt 0.557115 0.573229
vt 0.559069 0.585925
vt 0.559069 0.56737
vt 0.557115 0.56737
vt 0.53563 0.585925
vt 0.53563 0.573229
vt 0.534165 0.585925
vt 0.534165 0.573229
vt 0.532701 0.569323
vt 0.534165 0.569323
vt 0.532701 0.585925
vt 0.530747 0.585925
vt 0.530747 0.569323
vt 0.528794 0.585925
vt 0.528794 0.569323
vt 0.526353 0.585925
vt 0.526353 0.569811
vt 0.524888 0.569323
vt 0.524888 0.585925
vt 0.471419 0.464339
vt 0.484848 0.464339
vt 0.48558 0.463363
vt 0.470687 0.463363
vt 0.471419 0.464583
vt 0.471419 0.462355
vt 0.484848 0.464583
vt 0.484848 0.462355
vt 0.48558 0.465529
vt 0.484848 0.462111
vt 0.470687 0.465529
vt 0.471419 0.462111
vt 0.471419 0.466536
vt 0.48558 0.461165
vt 0.484848 0.466536
vt 0.470687 0.461165
vt 0.471419 0.466781
vt 0.471419 0.460189
vt 0.484848 0.466781
vt 0.484848 0.460189
vt 0.484848 0.459944
vt 0.471419 0.459944
vt 0.48558 0.467757
vt 0.470687 0.467757
vt 0.471419 0.468734
vt 0.484848 0.468734
vt 0.471419 0.468978
vt 0.484848 0.468978
vt 0.48558 0.469924
vt 0.470687 0.469924
vt 0.471419 0.470931
vt 0.484848 0.470931
vt 0.533677 0.033235
vt 0.531236 0.05298
vt 0.549791 0.05298
vt 0.549791 0.033235
vt 0.531236 0.031404
vt 0.532701 0.030641
vt 0.475326 0.986328
vt 0.475814 0.985351
vt 0.475326 0.983886
vt 0.428205 0.950682
vt 0.427961 0.95117
vt 0.428449 0.952147
vt 0.429182 0.95117
vt 0.427473 0.952635
vt 0.428205 0.950194
vt 0.428938 0.949705
vt 0.427229 0.951659
vt 0.426496 0.951659
vt 0.426252 0.952635
vt 0.427961 0.949217
vt 0.428449 0.948729
vt 0.425275 0.952147
vt 0.427229 0.948729
vt 0.427473 0.948241
vt 0.426252 0.948241
vt 0.425764 0.95117
vt 0.424543 0.950682
vt 0.426496 0.948729
vt 0.425764 0.949217
vt 0.425275 0.948729
vt 0.42552 0.950682
vt 0.424787 0.949705
vt 0.42552 0.949705
vt 0.56444 0.996582
vt 0.563463 0.995605
vt 0.562487 0.996094
vt 0.562487 0.997559
vt 0.561022 0.996094
vt 0.560533 0.997559
vt 0.560045 0.995605
vt 0.559069 0.996582
vt 0.559557 0.994629
vt 0.558092 0.994629
vt 0.559557 0.993164
vt 0.558092 0.992676
vt 0.560045 0.992187
vt 0.559069 0.991211
vt 0.565416 0.994629
vt 0.563952 0.994629
vt 0.565416 0.992676
vt 0.563952 0.993164
vt 0.56444 0.991211
vt 0.563463 0.992187
vt 0.562487 0.990234
vt 0.561998 0.991699
vt 0.560533 0.990234
vt 0.561022 0.991699
vt 0.40379 0.384503
vt 0.40379 0.357646
vt 0.39964 0.384503
vt 0.39964 0.357646
vt 0.99414 0.708487
vt 0.99414 0.712882
vt 0.997559 0.712882
vt 0.997559 0.708487
vt 0.99414 0.704093
vt 0.997559 0.704093
vt 0.99414 0.699698
vt 0.997559 0.699698
vt 0.99414 0.69628
vt 0.997559 0.69628
vt 0.99414 0.693838
vt 0.997559 0.693838
vt 0.734367 0.617664
vt 0.732414 0.659169
vt 0.73632 0.632313
vt 0.737785 0.617664
vt 0.737785 0.632313
vt 0.73632 0.659169
vt 0.732414 0.617664
vt 0.731437 0.617664
vt 0.731437 0.659169
vt 0.413312 0.384503
vt 0.413312 0.357646
vt 0.417463 0.357646
vt 0.417463 0.384503
vt 0.741203 0.617664
vt 0.741203 0.632313
vt 0.744133 0.617664
vt 0.744133 0.632313
vt 0.747551 0.617664
vt 0.746086 0.632313
vt 0.749504 0.617664
vt 0.746086 0.659169
vt 0.749504 0.659169
vt 0.750481 0.659169
vt 0.750481 0.617664
vt 0.447249 0.592273
vt 0.446272 0.596667
vt 0.447249 0.597644
vt 0.445051 0.595691
vt 0.445296 0.596179
vt 0.446028 0.595203
vt 0.445296 0.593738
vt 0.445051 0.594226
vt 0.446272 0.593738
vt 0.446028 0.597644
vt 0.446028 0.592273
vt 0.447493 0.591296
vt 0.448714 0.591784
vt 0.449446 0.590808
vt 0.449202 0.590808
vt 0.450179 0.591784
vt 0.448714 0.598132
vt 0.447493 0.598621
vt 0.447493 0.599109
vt 0.450179 0.598132
vt 0.449202 0.599109
vt 0.449446 0.599109
vt 0.451399 0.592273
vt 0.451399 0.597644
vt 0.452376 0.593738
vt 0.452376 0.596667
vt 0.45262 0.595203
vt 0.759758 0.632313
vt 0.754387 0.659169
vt 0.761223 0.63329
vt 0.761223 0.656728
vt 0.758782 0.631336
vt 0.758293 0.629383
vt 0.752922 0.617664
vt 0.758293 0.62743
vt 0.754387 0.617664
vt 0.758293 0.624989
vt 0.758782 0.623524
vt 0.721183 0.626942
vt 0.721183 0.659169
vt 0.728996 0.617664
vt 0.727531 0.617664
vt 0.484848 0.449202
vt 0.471419 0.449202
vt 0.471419 0.449446
vt 0.484848 0.449446
vt 0.48558 0.450392
vt 0.470687 0.450392
vt 0.471419 0.451399
vt 0.484848 0.451399
vt 0.471419 0.451643
vt 0.484848 0.451643
vt 0.48558 0.45262
vt 0.470687 0.45262
vt 0.471419 0.453597
vt 0.484848 0.453597
vt 0.471419 0.45381
vt 0.484848 0.45381
vt 0.473861 0.448225
vt 0.470687 0.448225
vt 0.48558 0.448225
vt 0.485092 0.447249
vt 0.451399 0.591296
vt 0.451155 0.591296
vt 0.452864 0.592273
vt 0.45262 0.592273
vt 0.453597 0.594226
vt 0.453597 0.593738
vt 0.453597 0.596179
vt 0.453597 0.595691
vt 0.45262 0.597644
vt 0.452864 0.597644
vt 0.451155 0.599109
vt 0.451399 0.598621
vt 0.890133 0.850093
vt 0.888668 0.849605
vt 0.888668 0.856929
vt 0.89111 0.856929
vt 0.89111 0.849605
vt 0.89404 0.857906
vt 0.892087 0.856929
vt 0.883785 0.859371
vt 0.887692 0.856929
vt 0.896969 0.861324
vt 0.895993 0.859371
vt 0.897946 0.864742
vt 0.893063 0.872066
vt 0.896481 0.869137
vt 0.882321 0.8623
vt 0.883297 0.860347
vt 0.881832 0.863765
vt 0.882809 0.86816
vt 0.881832 0.864742
vt 0.881832 0.865719
vt 0.885739 0.871578
vt 0.888668 0.872555
vt 0.883785 0.870113
vt 0.882809 0.861324
vt 0.884762 0.858882
vt 0.886715 0.857418
vt 0.885739 0.857906
vt 0.901364 0.823725
vt 0.903317 0.824702
vt 0.900876 0.82226
vt 0.902341 0.825678
vt 0.903806 0.82226
vt 0.900876 0.820795
vt 0.903806 0.819819
vt 0.903317 0.818354
vt 0.902829 0.816889
vt 0.901364 0.816889
vt 0.215186 0.028535
vt 0.197119 0.028504
vt 0.197119 0.029084
vt 0.214942 0.048372
vt 0.197119 0.050966
vt 0.111728 0.475082
vt 0.111972 0.475326
vt 0.11063 0.473586
vt 0.110691 0.47383
vt 0.110263 0.471664
vt 0.110263 0.471908
vt 0.110691 0.469924
vt 0.11063 0.470168
vt 0.471419 0.456038
vt 0.484848 0.456038
vt 0.484848 0.455794
vt 0.471419 0.455794
vt 0.470687 0.454817
vt 0.48558 0.454817
vt 0.484848 0.457717
vt 0.471419 0.457717
vt 0.471419 0.457961
vt 0.484848 0.457961
vt 0.48558 0.458968
vt 0.470687 0.458968
vt 0.902829 0.212867
vt 0.902829 0.232643
vt 0.906247 0.232643
vt 0.906247 0.212867
vt 0.906247 0.248268
vt 0.902829 0.248268
vt 0.906247 0.251167
vt 0.902829 0.251167
vt 0.99414 0.688467
vt 0.997559 0.688467
vt 0.997559 0.681143
vt 0.99414 0.681143
vt 0.48558 0.456771
vt 0.470687 0.456771
vt 0.300272 0.626942
vt 0.300272 0.602039
vt 0.293191 0.608386
vt 0.293191 0.626942
vt 0.304422 0.626942
vt 0.320292 0.626942
vt 0.324198 0.602039
vt 0.331034 0.608386
vt 0.331034 0.61034
vt 0.331034 0.626942
vt 0.304422 0.627918
vt 0.320292 0.627918
vt 0.307596 0.629871
vt 0.317118 0.629871
vt 0.307596 0.634266
vt 0.317118 0.634266
vt 0.99414 0.691885
vt 0.997559 0.691885
vt 0.99414 0.689444
vt 0.997559 0.689444
vt 0.269509 0.313913
vt 0.269509 0.312967
vt 0.267556 0.312967
vt 0.269509 0.348125
vt 0.267556 0.34959
vt 0.269509 0.34959
vt 0.264382 0.346171
vt 0.264382 0.316141
vn -0.9907 0.0737 -0.114
vn -0.9908 -0.0362 -0.1301
vn -0.9909 -0.129 -0.0373
vn -0.8653 0.4205 -0.2727
vn -0.8611 0.508 -0.0204
vn -0.8615 0.2457 -0.4444
vn -0.9935 0.1079 0.0367
vn -0.6967 0 -0.7174
vn -0.6897 0.3465 -0.6358
vn -0.8523 0 -0.523
vn -0.6945 -0.3752 -0.6139
vn -0.8651 -0.2711 -0.4219
vn -0.6942 -0.6153 -0.3734
vn -0.8617 -0.443 -0.2473
vn -0.696 -0.7181 0.0014
vn -0.8573 -0.5144 -0.0204
vn -0.7156 -0.608 0.3439
vn -0.8729 -0.4372 0.2164
vn -0.7201 -0.3723 0.5856
vn -0.9931 -0.0917 0.0736
vn -0.8806 -0.2694 0.3899
vn -0.729 -0.0239 0.6841
vn -0.9919 0.0189 0.1255
vn -0.8775 0.2445 0.4125
vn -0.8771 0.4153 0.2414
vn -0.876 -0.0229 0.4818
vn -0.7156 0.3439 0.608
vn -1 0 -0.001
vn -0.9998 -0.0161 -0.0151
vn -0.9897 -0.0011 0.143
vn -0.9999 -0.001 0.0149
vn -0.8861 -0.4631 -0.0201
vn -0.9924 -0.0011 0.1234
vn -0.8928 0.4358 0.1142
vn -0.8894 0.4567 -0.02
vn -0.7395 -0.0014 0.6732
vn -0.6716 0.4029 0.6218
vn -0.1657 -0.0011 0.9862
vn -0.1632 0.4232 0.8912
vn 0.0013 0.3976 0.9175
vn 0.001 -0.001 1
vn -0.7181 -0.0014 0.696
vn 0.0013 -0.4226 0.9063
vn -0.1649 -0.451 0.8772
vn -0.4789 -0.862 0.1665
vn -0.6492 -0.4323 0.6258
vn -0.8789 -0.4629 0.1154
vn -0.5603 -0.828 -0.0235
vn -0.5753 -0.8179 -0.0014
vn -0.3228 -0.8704 0.3717
vn -0.4983 -0.867 0.0013
vn -0.0239 -0.7069 0.7069
vn -0.2091 -0.9231 0.3229
vn -0.2978 -0.9546 0.0012
vn -0.0338 -0.9559 0.2919
vn 0.0011 -0.9921 0.1258
vn -0.0221 -0.9997 -0.005
vn 0 -1 -0.001
vn -0.3025 0.4553 -0.8374
vn -0.5094 0.8135 0.2806
vn -0.3447 0.6354 0.691
vn -0.8271 0.5024 0.252
vn -0.9285 0.3714 -0.0013
vn -0.7028 0.5665 0.4303
vn -0.7811 0.6244 -0.0014
vn -0.6982 0.5923 -0.4021
vn -0.707 0.707 -0.021
vn -0.7201 0.5856 0.3723
vn -0.9736 0.2281 -0.0012
vn -0.8078 0.5632 0.1736
vn -0.9986 -0.0499 -0.0156
vn -0.959 0.0834 0.2709
vn -0.6189 0.672 0.4065
vn -0.6136 0.3734 0.6958
vn -0.6015 -0.0014 0.7988
vn -0.5855 0.8103 -0.0236
vn -0.5966 0.6766 -0.4316
vn -0.5877 0.3743 -0.7173
vn -0.5926 0.4039 -0.6969
vn -0.5746 0 -0.8184
vn -0.6184 -0.4029 0.6748
vn -0.6136 -0.6958 0.3734
vn -0.5923 -0.6982 -0.4021
vn -0.5968 -0.4335 -0.6752
vn -0.5926 -0.4039 -0.6969
vn -0.9788 -0.2042 -0.0176
vn -0.8722 -0.4887 -0.0203
vn -0.867 0.4983 0.0013
vn -0.9963 0.0858 0.0011
vn -0.9857 0.1673 -0.0195
vn -0.9867 -0.1618 -0.0171
vn -0.8984 -0.4386 -0.0226
vn -0.7696 -0.6381 -0.0238
vn -0.6381 -0.7696 -0.0238
vn -0.5144 -0.8573 -0.0204
vn -0.4131 -0.9104 -0.0224
vn -0.2695 -0.9628 -0.0208
vn -0.2518 -0.9678 0.0012
vn -0.1234 -0.9924 0.0011
vn 0.0318 -0.9993 0.0174
vn 0.0159 -0.9999 -0.001
vn 0.143 -0.9897 0.0011
vn 0.2746 -0.9616 0.0012
vn 0.2938 -0.9557 0.0186
vn 0.4391 -0.8982 0.0199
vn 0.589 -0.8079 0.0208
vn 0.5753 -0.8179 -0.0014
vn 0.0151 -0.9997 0.0171
vn -0.6244 -0.7811 -0.0014
vn -0.6105 0.7917 -0.0237
vn -0.6495 0.7041 0.2871
vn -0.5487 0.836 0.0014
vn 0.0013 0.3729 0.9279
vn -0.0012 0.9793 0.2023
vn 0.0012 0.9793 0.2023
vn 0 1 -0.001
vn -0.046 0.9989 0.001
vn -0.1446 0.9893 -0.0215
vn -0.0105 0.9783 0.2069
vn -0.1795 0.9515 0.2497
vn -0.4728 0.8461 0.2463
vn -0.0471 0.6948 0.7176
vn -0.2448 -0.4161 0.8757
vn -0.3739 -0.6408 0.6705
vn 0.0014 -0.7181 0.696
vn 0.0013 -0.4477 0.8942
vn 0.3447 -0.6354 0.691
vn -0.384 -0.2417 0.8911
vn -0.6408 -0.3739 0.6705
vn 0.2174 -0.4097 0.8859
vn 0.6136 -0.3734 0.6958
vn 0.3559 -0.2387 0.9035
vn 0.7069 -0.0239 0.7069
vn 0.4306 -0.0225 0.9023
vn 0.608 0.3439 0.7156
vn 0.3502 0.2119 0.9124
vn -0.4477 -0.0013 0.8942
vn -0.378 0.2146 0.9006
vn -0.6354 0.3447 0.691
vn 0.2146 0.378 0.9006
vn -0.2417 0.384 0.8911
vn 0.0013 0.4226 0.9063
vn 0.0013 -0.3976 0.9175
vn 0.0013 -0.3485 0.9373
vn 0.1322 0.076 0.9883
vn -0.0169 -0.001 0.9999
vn -0.0172 -0.0172 0.9997
vn 0.001 -0.0333 0.9994
vn 0.001 -0.0169 0.9999
vn -0.3944 0.066 0.9166
vn -0.0175 -0.0339 0.9993
vn -0.4016 -0.0891 0.9115
vn -0.0172 0.0172 0.9997
vn 0.1344 -0.0964 0.9862
vn 0.001 0.0169 0.9999
vn -0.2627 0.3332 0.9055
vn 0.1592 0.365 0.9173
vn -0.4831 0.4568 0.747
vn 0.6678 0.0954 0.7382
vn -0.7463 0.5331 0.3986
vn -0.596 0.8018 0.0437
vn -0.4865 -0.4865 0.7257
vn -0.2662 -0.3613 0.8936
vn 0.9224 0.1345 0.362
vn 0.6492 0.4323 0.6258
vn 0.6777 -0.1206 0.7254
vn 0.8876 -0.2171 0.4062
vn 0.1614 -0.3956 0.9041
vn 0.6283 -0.4936 0.6014
vn 0.2303 -0.7379 0.6345
vn 0.1463 -0.6623 0.7348
vn -0.1729 -0.6716 0.7205
vn 0.0949 -0.7809 0.6174
vn -0.0469 -0.7609 0.6471
vn 0.1828 -0.9198 0.3472
vn -0.7432 -0.557 0.3708
vn -0.5858 -0.8102 0.0208
vn -0.1948 -0.8349 0.5148
vn -0.15 -0.9602 -0.2355
vn -0.3077 -0.5138 -0.8008
vn -0.4023 -0.8961 0.1874
vn -0.4317 -0.675 0.5983
vn -0.1196 -0.7902 0.6011
vn -0.2578 -0.745 0.6153
vn 0.0651 -0.9286 0.3653
vn -0.0869 -0.9342 0.3461
vn 0.0664 -0.9965 0.0512
vn 0.2154 -0.9757 0.0397
vn -0.0918 -0.9947 0.0454
vn -0.2337 -0.9721 0.0204
vn -0.2074 -0.9235 -0.3225
vn -0.1029 -0.9855 -0.1351
vn -0.2016 -0.6793 -0.7056
vn 0.0972 -0.9906 -0.0961
vn 0.2453 -0.966 -0.0822
vn 0.2571 -0.6951 -0.6713
vn -0.1742 -0.7456 -0.6432
vn 0.1089 -0.3028 -0.9468
vn 0.2419 -0.1984 -0.9498
vn 0.0939 -0.7163 -0.6914
vn -0.4562 -0.0227 0.8896
vn 0.696 0.0014 0.7181
vn 0.4226 -0.0013 0.9063
vn 0.0014 -0.7395 0.6732
vn -0.0239 0.7069 0.7069
vn 0.3439 0.608 0.7156
vn -0.3734 0.6136 0.6958
vn 0.146 0.6367 0.7571
vn -0.1726 0.6459 0.7436
vn -0.047 0.7397 0.6713
vn -0.1963 0.8142 0.5464
vn -0.1522 0.9534 -0.2604
vn -0.1206 0.7254 0.6777
vn -0.2578 0.745 0.6153
vn -0.2904 0.8952 0.3381
vn 0.1207 0.7019 0.7019
vn -0.1286 0.953 0.2744
vn -0.3406 0.784 -0.5189
vn 0.0929 0.9656 0.243
vn 0.2978 0.8689 0.3955
vn -0.0826 0.9026 -0.4224
vn -0.136 0.3608 -0.9227
vn 0.1609 0.367 -0.9162
vn 0.1207 0.8681 -0.4815
vn 0.3678 0.7871 -0.4952
vn -0.0379 0.1481 0.9883
vn 0.2477 -0.2255 0.9422
vn 0.402 -0.5906 0.6997
vn 0.1308 -0.3062 0.9429
vn 0.1207 -0.7019 0.7019
vn 0.2955 -0.0846 0.9516
vn 0.6354 -0.3447 0.691
vn 0.3148 0.0635 0.947
vn 0.0012 0.3214 0.9469
vn 0.2392 0.1724 0.9555
vn 0.129 0.2807 0.9511
vn -0.0218 -0.3551 0.9346
vn -0.1999 -0.7051 0.6803
vn -0.1551 -0.3116 0.9375
vn -0.4636 -0.5707 0.6778
vn -0.2695 -0.2032 0.9413
vn -0.3461 -0.0869 0.9342
vn -0.6562 -0.3159 0.6853
vn -0.1618 -0.9868 -0.0011
vn -0.3229 -0.9464 -0.0012
vn -0.7181 -0.696 0.0014
vn -0.6483 -0.7614 -0.0014
vn -0.4386 -0.8984 -0.0226
vn -0.54 -0.8414 -0.0206
vn -0.2042 -0.9788 -0.0176
vn 0.1851 -0.9827 -0.0011
vn 0.2978 -0.9546 0.0012
vn 0.6483 -0.7614 -0.0014
vn 0.3961 -0.9182 -0.0013
vn -0.3162 -0.9485 -0.0188
vn 0.1234 -0.9924 0.0011
vn -0.0328 -0.9993 -0.0154
vn 0.9182 -0.3961 -0.0013
vn 0.2518 -0.9678 0.0012
vn 0.7695 -0.6383 0.0209
vn 0.7614 -0.6483 -0.0014
vn -0.6732 -0.7395 0.0014
vn 0.5396 -0.8416 0.0233
vn -0.6842 -0.729 -0.021
vn 0.9995 0.0323 -0.001
vn 0.9993 0.0338 0.0154
vn -0.4462 -0.895 -0.0013
vn -0.1827 -0.983 -0.0173
vn -0.1644 -0.9864 -0.0011
vn -0.9401 -0.3405 -0.0191
vn -0.7811 -0.6244 -0.0014
vn -0.5887 -0.808 -0.0236
vn 0.0014 0.7181 0.696
vn -0.4372 0.8729 0.2164
vn -0.4823 0.8758 -0.0202
vn -0.7721 0.635 -0.0238
vn -0.672 0.6189 0.4065
vn -0.6509 0.6242 -0.4322
vn -0.2056 0.913 0.3523
vn -0.4029 0.6184 0.6748
vn -0.2554 0.9551 -0.1503
vn -0.1289 0.9572 -0.259
vn -0.3753 0.6156 -0.693
vn -0.0012 0.9663 0.2574
vn 0.0014 0.6259 0.7799
vn 0.0224 0.6344 -0.7727
vn 0.1301 0.9578 0.2562
vn 0.3734 0.6136 0.6958
vn 0.6496 0.6229 0.4359
vn 0.012 0.9685 -0.2487
vn 0.4047 0.6204 -0.6718
vn 0.257 0.9546 0.1505
vn 0.4983 0.867 0.0013
vn 0.7811 0.6244 -0.0014
vn 0.2069 0.9139 -0.3492
vn 0.6732 0.6201 -0.4029
vn 0.4363 0.8726 -0.2196
vn -0.0159 0 -0.9999
vn 0 0.474 -0.8805
vn 0 0.8523 -0.523
vn -0.0162 0.9997 -0.0172
vn -0.0231 0.8613 0.5075
vn -0.0229 0.4818 0.876
vn -0.0339 -0.0175 0.9993
vn 0 -0.4993 -0.8664
vn 0 -0.8673 -0.4977
vn -0.0159 -0.9999 -0.001
vn -0.0229 -0.876 0.4818
vn -0.0231 -0.5075 0.8613
vn 0 0.8581 -0.5135
vn 0 0.9664 -0.2571
vn -0.4477 0.8942 0.0013
vn -0.828 0.5603 -0.0235
vn -0.836 0.5487 0.0014
vn 0.1255 0.9919 0.0189
vn 0.6107 0.7916 0.0209
vn 0.8896 0.4562 0.0227
vn 0.9892 0.1455 0.0192
vn 0.0218 0.5086 -0.8607
vn 0.0124 0.9545 -0.298
vn 0.0212 0.4285 -0.9033
vn 0 0.2529 -0.9675
vn 0 0.4993 -0.8664
vn 0 0.9734 -0.2292
vn 0 -0.9686 -0.2487
vn 0 -0.8691 -0.4946
vn 0 0 -1
vn 0 -0.2757 -0.9612
vn 0.0219 -0.5342 -0.8451
vn 0.0216 -0.4829 -0.8754
vn 0.0121 -0.9639 -0.2659
vn 0 -0.5245 -0.8514
vn 0 -0.97 -0.2431
vn 0.272 -0.2271 -0.9351
vn -0.1325 -0.3082 -0.9421
vn -0.2419 -0.1984 -0.9498
vn -0.1746 -0.6955 -0.697
vn 0 -0.3466 -0.938
vn 0.1482 -0.7105 -0.6879
vn 0.1568 -0.3136 -0.9365
vn -0.4323 -0.5686 -0.6999
vn 0.4335 -0.5968 -0.6752
vn 0.6641 -0.3467 -0.6624
vn 0.3218 -0.0844 -0.943
vn 0.7297 -0.0225 -0.6834
vn 0.3411 0.063 -0.9379
vn -0.3218 -0.0844 -0.943
vn -0.6306 -0.3137 -0.7099
vn -0.2914 0.0613 -0.9546
vn 0.2632 0.1764 -0.9485
vn -0.2419 0.1984 -0.9498
vn 0.1546 0.2875 -0.9452
vn -0.1306 0.2826 -0.9503
vn 0.0202 0.3286 -0.9442
vn 0.0161 -0.0161 -0.9997
vn 0.0225 -0.7297 -0.6834
vn 0 -0.7188 -0.6953
vn 0 -0.0159 -0.9999
vn 0.0159 0 -0.9999
vn 0.0225 0.7076 -0.7062
vn 0 0.6967 -0.7174
vn -0.6732 0.7395 0.0014
vn -0.6591 0.7517 -0.0238
vn 0.3034 0.9526 0.0212
vn 0.0171 0.9997 0.0151
vn -0.2746 0.9616 0.0012
vn 0.6841 0.729 0.0239
vn 0.4562 0.8896 0.0227
vn 0.1683 0.9856 0.0172
vn 0.9446 0.3275 0.0215
vn -0.7205 0.6716 0.1729
vn -0.8758 0.4823 -0.0202
vn -0.421 0.907 -0.0013
vn -0.143 0.9897 0.0011
vn -0.2824 0.9168 0.2824
vn 0.6508 0.2853 -0.7036
vn 0.4599 0.5399 -0.7049
vn 0.2016 0.6793 -0.7056
vn -0.1222 0.6768 -0.726
vn -0.4025 0.5642 -0.7209
vn -0.6306 0.3137 -0.7099
vn 0.2576 -0.0194 -0.9661
vn 0.1266 -0.0178 -0.9918
vn -0.1465 0.6873 0.7115
vn 0.1729 0.6716 0.7205
vn 0.4284 0.5376 0.7262
vn 0.6226 0.2865 0.7282
vn 0.9945 -0.1035 0.0163
vn 0.5858 0.8102 0.0208
vn 0.7916 0.6107 0.0209
vn 0.8811 0.473 0.0013
vn 0.8575 -0.514 0.0232
vn 0.852 -0.5236 0.0013
vn 0.9678 -0.2518 0.0012
vn 0.4951 -0.8688 0.0013
vn 0.2476 -0.9689 -0.0012
vn 0.836 -0.5487 0.0014
vn 0.421 -0.907 -0.0013
vn 0.6352 0.772 0.0209
vn 0.9827 0.1851 -0.0011
vn 0.9791 -0.2028 0.0176
vn 0.9897 -0.143 0.0011
vn 0.9212 -0.3885 0.0195
vn 1 0 -0.001
vn 0.9999 -0.0159 -0.001
vn 0.9997 -0.0151 0.0171
o rail
f 1/1/1 2/2/2 3/3/3
f 4/4/4 1/1/1 5/5/5
f 1/1/1 4/4/4 6/6/6
f 1/1/1 6/6/6 2/2/2
f 5/5/5 1/1/1 7/7/7
f 7/7/7 1/1/1 3/3/3
f 8/8/8 6/6/6 9/9/9
f 6/6/6 8/8/8 10/10/10
f 6/6/6 10/10/10 2/2/2
f 10/10/10 8/8/8 11/11/11
f 2/2/2 10/10/10 12/12/12
f 12/12/12 10/10/10 11/11/11
f 2/2/2 12/12/12 3/3/3
f 12/12/12 11/11/11 13/13/13
f 12/12/12 13/13/13 14/14/14
f 12/12/12 14/14/14 3/3/3
f 14/14/14 13/13/13 15/15/15
f 14/14/14 15/15/15 16/16/16
f 14/14/14 16/16/16 3/3/3
f 16/16/16 15/15/15 17/17/17
f 16/16/16 17/17/17 18/18/18
f 18/18/18 17/17/17 19/19/19
f 3/3/3 16/16/16 20/20/20
f 20/20/20 16/16/16 18/18/18
f 3/3/3 20/20/20 7/7/7
f 18/18/18 19/19/19 21/21/21
f 18/18/18 21/21/21 20/20/20
f 21/21/21 19/19/19 22/22/22
f 7/7/7 20/20/20 23/23/23
f 23/23/23 20/20/20 21/21/21
f 7/7/7 23/23/23 24/24/24
f 7/7/7 24/24/24 25/25/25
f 23/23/23 21/21/21 26/26/26
f 26/26/26 21/21/21 22/22/22
f 23/23/23 26/26/26 24/24/24
f 26/26/26 22/22/22 27/27/27
f 26/26/26 27/27/27 24/24/24
f 28/28/28 29/29/28 30/30/28
f 29/29/28 28/28/28 31/31/28
f 29/29/28 31/31/28 32/32/28
f 32/32/28 31/31/28 33/33/28
f 28/28/28 30/30/28 34/34/28
f 34/34/28 30/30/28 35/35/28
f 34/34/28 35/35/28 36/36/28
f 36/36/28 35/35/28 37/37/28
f 37/37/28 35/35/28 38/38/28
f 36/36/28 37/37/28 39/39/28
f 38/38/28 35/35/28 40/40/28
f 36/36/28 39/39/28 41/41/28
f 40/40/28 35/35/28 42/42/29
f 36/36/28 41/41/28 43/43/28
f 40/40/28 42/42/29 44/44/29
f 36/36/28 43/43/28 45/45/28
f 44/44/29 42/42/29 46/46/30
f 44/44/29 46/46/30 47/47/29
f 47/47/29 46/46/30 48/48/31
f 46/46/30 42/42/29 49/49/32
f 48/48/31 46/46/30 50/50/28
f 45/45/28 43/43/28 51/51/33
f 51/51/33 43/43/28 52/52/29
f 51/51/33 52/52/29 53/53/29
f 51/51/33 53/53/29 50/50/28
f 51/51/33 50/50/28 46/46/30
f 45/45/28 51/51/33 54/54/34
f 45/45/28 54/54/34 55/55/35
f 54/54/34 51/51/33 56/56/36
f 56/56/36 51/51/33 46/46/30
f 54/54/34 56/56/36 57/57/37
f 57/57/37 56/56/36 58/58/38
f 57/57/37 58/58/38 59/59/39
f 59/59/39 58/58/38 60/60/40
f 60/60/40 58/58/38 61/61/41
f 61/61/41 58/58/38 62/62/38
f 61/61/41 62/62/38 63/63/41
f 58/58/38 56/56/36 64/64/42
f 64/64/42 56/56/36 46/46/30
f 58/58/38 64/64/42 62/62/38
f 63/63/41 62/62/38 65/65/43
f 65/65/43 62/62/38 66/66/44
f 65/65/43 66/66/44 67/67/45
f 66/66/44 62/62/38 68/68/46
f 68/68/46 62/62/38 64/64/42
f 66/66/44 68/68/46 67/67/45
f 64/64/42 46/46/30 69/69/47
f 64/64/42 69/69/47 68/68/46
f 68/68/46 69/69/47 67/67/45
f 69/69/47 46/46/30 49/49/32
f 69/69/47 49/49/32 70/70/48
f 69/69/47 70/70/48 67/67/45
f 70/70/48 49/49/32 71/71/49
f 67/67/45 70/70/48 72/72/50
f 72/72/50 70/70/48 73/73/51
f 67/67/45 72/72/50 74/74/52
f 72/72/50 73/73/51 75/75/53
f 72/72/50 75/75/53 74/74/52
f 75/75/53 73/73/51 76/76/54
f 74/74/52 75/75/53 77/77/55
f 77/77/55 75/75/53 76/76/54
f 74/74/52 77/77/55 78/78/56
f 77/77/55 76/76/54 79/79/57
f 77/77/55 79/79/57 78/78/56
f 78/78/56 79/79/57 80/80/58
f 81/81/28 82/82/28 83/83/28
f 81/81/28 83/83/28 84/84/28
f 83/83/28 82/82/28 85/85/28
f 85/85/28 82/82/28 86/86/28
f 85/85/28 86/86/28 87/87/28
f 88/88/59 89/89/60 90/90/61
f 91/91/28 92/92/28 93/93/28
f 91/91/28 93/93/28 94/94/28
f 94/94/28 93/93/28 95/95/28
f 94/94/28 95/95/28 96/96/28
f 94/94/28 96/96/28 97/97/28
f 98/98/28 99/99/28 100/100/28
f 98/98/28 100/100/28 101/101/28
f 101/101/28 100/100/28 102/102/28
f 103/103/62 104/104/63 105/105/64
f 105/105/64 104/104/63 106/106/65
f 9/9/9 6/6/6 4/4/4
f 9/9/9 4/4/4 107/107/66
f 107/107/66 4/4/4 5/5/5
f 107/107/66 5/5/5 108/108/67
f 108/108/67 5/5/5 25/25/25
f 25/25/25 5/5/5 7/7/7
f 108/108/67 25/25/25 109/109/68
f 109/109/68 25/25/25 24/24/24
f 109/109/68 24/24/24 27/27/27
f 110/110/69 111/111/70 112/112/71
f 112/112/71 111/111/70 113/113/72
f 114/114/73 115/115/74 38/116/74
f 38/116/74 115/115/74 37/117/75
f 37/117/75 115/115/74 116/118/75
f 114/114/73 38/116/74 40/119/73
f 114/114/73 40/119/73 117/120/76
f 117/120/76 40/119/73 44/121/76
f 117/120/76 44/121/76 118/122/77
f 118/122/77 44/121/76 47/123/77
f 118/122/77 47/123/77 119/124/78
f 119/124/78 47/123/77 48/125/79
f 119/124/78 48/125/79 120/126/80
f 120/126/80 48/125/79 50/127/80
f 37/117/75 116/118/75 39/128/81
f 39/128/81 116/118/75 121/129/81
f 39/128/81 121/129/81 41/130/82
f 41/130/82 121/129/81 122/131/82
f 41/130/82 122/131/82 43/132/49
f 43/132/49 122/131/82 123/133/49
f 43/132/49 123/133/49 52/134/83
f 52/134/83 123/133/49 124/135/83
f 52/134/83 124/135/83 53/136/84
f 53/136/84 124/135/83 125/137/85
f 53/136/84 125/137/85 50/127/80
f 50/127/80 125/137/85 120/126/80
f 126/138/86 127/139/86 128/140/87
f 126/138/86 128/140/87 129/141/87
f 129/141/87 128/140/87 130/142/5
f 129/141/87 130/142/5 131/143/88
f 132/144/89 133/145/89 126/138/86
f 126/138/86 133/145/89 127/139/86
f 134/146/90 135/147/90 136/148/91
f 136/148/91 135/147/90 137/149/91
f 136/148/91 137/149/91 138/150/92
f 138/150/92 137/149/91 139/151/92
f 138/150/92 139/151/92 140/152/93
f 140/152/93 139/151/92 141/153/93
f 140/152/93 141/153/93 142/154/94
f 140/152/93 142/154/94 143/155/94
f 143/155/94 142/154/94 144/156/95
f 143/155/94 144/156/95 145/157/95
f 145/157/95 144/156/95 146/158/96
f 145/157/95 146/158/96 147/159/96
f 147/159/96 146/158/96 148/160/97
f 147/159/96 148/160/97 149/161/98
f 149/161/98 148/160/97 150/162/99
f 149/161/98 150/162/99 151/163/99
f 151/163/99 150/162/99 152/164/100
f 151/163/99 152/164/100 153/165/101
f 153/165/101 152/164/100 154/166/102
f 153/165/101 154/166/102 155/167/102
f 155/167/102 154/166/102 156/168/103
f 155/167/102 156/168/103 157/169/104
f 157/169/104 156/168/103 158/170/105
f 157/169/104 158/170/105 159/171/105
f 159/171/105 158/170/105 160/172/106
f 159/171/105 160/172/106 161/173/107
f 161/173/107 160/172/106 162/174/108
f 162/174/108 160/172/106 163/175/58
f 162/174/108 163/175/58 111/176/109
f 162/174/108 111/176/109 164/177/109
f 131/143/88 130/142/5 111/111/70
f 111/111/70 130/142/5 164/178/110
f 131/143/88 111/111/70 110/110/69
f 165/179/111 113/113/72 111/111/70
f 165/179/111 111/111/70 105/180/64
f 113/113/72 165/179/111 166/181/112
f 166/181/112 165/179/111 105/180/64
f 113/113/72 166/181/112 112/112/71
f 166/181/112 105/180/64 106/182/65
f 101/183/113 167/184/113 168/185/114
f 101/183/113 168/185/114 98/186/115
f 98/186/115 168/185/114 99/187/116
f 99/187/116 168/185/114 169/188/116
f 99/187/116 169/188/116 170/189/116
f 171/190/116 172/191/116 170/189/116
f 170/189/116 172/191/116 173/192/116
f 170/189/116 173/192/116 99/187/116
f 171/190/116 170/189/116 174/193/116
f 99/187/116 173/192/116 175/194/116
f 99/187/116 175/194/116 176/195/116
f 99/187/116 176/195/116 177/196/116
f 174/193/116 170/189/116 178/197/117
f 99/187/116 177/196/116 179/198/116
f 174/193/116 178/197/117 180/199/116
f 180/199/116 178/197/117 181/200/116
f 181/200/116 178/197/117 182/201/116
f 182/201/116 178/197/117 179/198/116
f 179/198/116 177/196/116 183/202/116
f 182/201/116 179/198/116 184/203/116
f 184/203/116 179/198/116 183/202/116
f 179/198/116 178/197/117 185/204/118
f 185/204/118 178/197/117 55/55/35
f 179/198/116 185/204/118 186/205/119
f 186/205/119 185/204/118 187/206/120
f 185/204/118 55/55/35 188/207/76
f 185/204/118 188/207/76 187/206/120
f 188/207/76 55/55/35 54/54/34
f 186/205/119 187/206/120 189/208/121
f 189/208/121 187/206/120 188/207/76
f 189/208/121 188/207/76 54/54/34
f 186/205/119 189/208/121 90/209/122
f 189/208/121 54/54/34 57/57/37
f 189/208/121 57/57/37 59/59/39
f 189/208/121 59/59/39 60/60/40
f 190/210/123 191/211/124 192/212/125
f 190/210/123 192/212/125 193/213/126
f 193/213/126 192/212/125 194/214/127
f 191/211/124 190/210/123 195/215/128
f 191/211/124 195/215/128 196/216/129
f 190/210/123 193/213/126 197/217/130
f 197/217/130 193/213/126 194/214/127
f 197/217/130 194/214/127 198/218/131
f 190/210/123 197/217/130 199/219/132
f 199/219/132 197/217/130 198/218/131
f 190/210/123 199/219/132 195/215/128
f 199/219/132 198/218/131 200/220/133
f 201/221/42 196/216/129 195/215/128
f 199/219/132 200/220/133 202/222/134
f 199/219/132 202/222/134 195/215/128
f 202/222/134 200/220/133 203/223/135
f 202/222/134 203/223/135 204/224/136
f 195/215/128 202/222/134 205/225/137
f 195/215/128 205/225/137 201/221/42
f 205/225/137 202/222/134 204/224/136
f 201/221/42 205/225/137 206/226/138
f 206/226/138 205/225/137 204/224/136
f 201/221/42 206/226/138 207/227/139
f 206/226/138 204/224/136 208/228/140
f 206/226/138 208/228/140 209/229/141
f 209/229/141 208/228/140 210/230/142
f 96/231/143 95/232/125 211/233/125
f 96/231/143 211/233/125 212/234/144
f 96/231/143 212/234/144 97/235/41
f 97/235/41 212/234/144 102/236/41
f 102/236/41 212/234/144 167/184/113
f 102/236/41 167/184/113 101/183/113
f 213/237/145 214/238/146 215/239/146
f 214/238/146 213/237/145 216/240/147
f 216/240/147 213/237/145 217/241/148
f 217/241/148 213/237/145 218/242/146
f 213/237/145 215/239/146 196/243/147
f 196/243/147 215/239/146 191/244/41
f 191/244/41 215/239/146 219/245/41
f 191/244/41 219/245/41 192/246/41
f 192/246/41 219/245/41 220/247/41
f 192/246/41 220/247/41 194/248/41
f 194/248/41 220/247/41 221/249/41
f 194/248/41 221/249/41 222/250/41
f 194/248/41 222/250/41 198/251/149
f 198/251/149 222/250/41 223/252/150
f 223/252/150 222/250/41 224/253/41
f 223/252/150 224/253/41 225/254/149
f 223/252/150 225/254/149 226/255/151
f 223/252/150 226/255/151 218/242/146
f 223/252/150 218/242/146 213/237/145
f 198/251/149 223/252/150 227/256/152
f 198/251/149 227/256/152 200/257/149
f 200/257/149 227/256/152 203/258/41
f 203/258/41 227/256/152 228/259/153
f 228/259/153 227/256/152 229/260/147
f 229/260/147 227/256/152 230/261/154
f 229/260/147 230/261/154 231/262/155
f 231/262/155 230/261/154 207/263/146
f 207/263/146 230/261/154 201/264/147
f 201/264/147 230/261/154 196/243/147
f 196/243/147 230/261/154 213/237/145
f 232/265/156 223/252/150 213/237/145
f 232/265/156 213/237/145 233/266/157
f 223/252/150 232/265/156 60/267/158
f 233/266/157 213/237/145 234/268/159
f 234/268/159 213/237/145 230/261/154
f 235/269/160 189/270/161 60/267/158
f 223/252/150 60/267/158 65/271/162
f 223/252/150 65/271/162 227/256/152
f 236/272/163 230/261/154 227/256/152
f 236/272/163 227/256/152 65/271/162
f 237/273/164 238/274/165 234/268/159
f 237/273/164 234/268/159 239/275/166
f 239/275/166 234/268/159 230/261/154
f 237/273/164 239/275/166 240/276/167
f 230/261/154 236/272/163 241/277/168
f 230/261/154 241/277/168 239/275/166
f 240/276/167 239/275/166 242/278/169
f 242/278/169 239/275/166 241/277/168
f 240/276/167 242/278/169 243/279/170
f 242/278/169 241/277/168 244/280/171
f 244/280/171 241/277/168 236/272/163
f 242/278/169 244/280/171 243/279/170
f 244/280/171 236/272/163 245/281/172
f 245/281/172 236/272/163 65/271/162
f 243/279/170 244/280/171 246/282/173
f 244/280/171 245/281/172 247/283/174
f 244/280/171 247/283/174 246/282/173
f 243/279/170 246/282/173 248/284/175
f 245/281/172 65/271/162 249/285/176
f 249/285/176 65/271/162 67/286/177
f 245/281/172 249/285/176 250/287/178
f 245/281/172 250/287/178 247/283/174
f 249/285/176 67/286/177 251/288/179
f 249/285/176 251/288/179 250/287/178
f 251/288/179 67/286/177 252/289/180
f 250/287/178 251/288/179 253/290/181
f 253/290/181 251/288/179 252/289/180
f 250/287/178 253/290/181 247/283/174
f 253/290/181 252/289/180 254/291/182
f 253/290/181 254/291/182 247/283/174
f 247/283/174 254/291/182 255/292/183
f 247/283/174 255/292/183 246/282/173
f 255/292/183 254/291/182 256/293/184
f 255/292/183 256/293/184 257/294/53
f 246/282/173 255/292/183 258/295/185
f 246/282/173 258/295/185 248/284/175
f 255/292/183 257/294/53 259/296/186
f 255/292/183 259/296/186 258/295/185
f 248/284/175 258/295/185 260/297/187
f 260/297/187 258/295/185 259/296/186
f 248/284/175 260/297/187 261/298/188
f 259/296/186 257/294/53 262/299/189
f 259/296/186 262/299/189 260/297/187
f 262/299/189 257/294/53 263/300/190
f 262/299/189 263/300/190 264/301/191
f 262/299/189 264/301/191 265/302/192
f 262/299/189 265/302/192 260/297/187
f 265/302/192 264/301/191 266/303/193
f 267/304/194 261/298/188 260/297/187
f 267/304/194 260/297/187 265/302/192
f 261/298/188 267/304/194 268/305/195
f 268/305/195 267/304/194 94/306/196
f 265/302/192 266/303/193 269/307/197
f 269/307/197 266/303/193 270/308/198
f 271/309/199 94/306/196 270/308/198
f 265/302/192 269/307/197 272/310/200
f 265/302/192 272/310/200 267/304/194
f 272/310/200 269/307/197 270/308/198
f 267/304/194 272/310/200 94/306/196
f 94/306/196 272/310/200 270/308/198
f 273/311/140 274/312/142 275/313/141
f 273/311/140 275/313/141 276/314/138
f 273/311/140 276/314/138 277/315/136
f 215/316/139 214/317/22 276/314/138
f 277/315/136 276/314/138 278/318/201
f 278/318/201 276/314/138 214/317/22
f 222/319/135 277/315/136 224/320/202
f 224/320/202 277/315/136 279/321/203
f 279/321/203 277/315/136 278/318/201
f 224/320/202 279/321/203 225/322/131
f 278/318/201 214/317/22 280/323/128
f 278/318/201 280/323/128 279/321/203
f 280/323/128 214/317/22 216/324/129
f 225/322/131 279/321/203 281/325/132
f 281/325/132 279/321/203 280/323/128
f 225/322/131 281/325/132 226/326/127
f 280/323/128 216/324/129 282/327/123
f 280/323/128 282/327/123 281/325/132
f 282/327/123 216/324/129 217/328/124
f 226/326/127 281/325/132 283/329/130
f 283/329/130 281/325/132 282/327/123
f 226/326/127 283/329/130 218/330/204
f 282/327/123 217/328/124 284/331/126
f 282/327/123 284/331/126 283/329/130
f 284/331/126 217/328/124 218/330/204
f 284/331/126 218/330/204 283/329/130
f 67/332/41 74/333/41 90/334/41
f 67/332/41 90/334/41 189/335/41
f 275/313/141 274/312/142 220/336/205
f 220/336/205 274/312/142 221/337/206
f 275/313/141 220/336/205 219/338/207
f 275/313/141 219/338/207 276/314/138
f 276/314/138 219/338/207 215/316/139
f 221/337/206 274/312/142 273/311/140
f 221/337/206 273/311/140 222/319/135
f 222/319/135 273/311/140 277/315/136
f 234/268/159 238/274/165 233/266/157
f 233/266/157 238/274/165 285/339/208
f 233/266/157 285/339/208 232/265/156
f 232/265/156 285/339/208 286/340/209
f 232/265/156 286/340/209 60/267/158
f 60/267/158 286/340/209 235/269/160
f 286/340/209 285/339/208 287/341/210
f 235/269/160 286/340/209 288/342/211
f 288/342/211 286/340/209 287/341/210
f 235/269/160 288/342/211 289/343/212
f 235/269/160 289/343/212 189/270/161
f 189/270/161 289/343/212 88/88/59
f 88/88/59 289/343/212 89/89/60
f 89/89/60 289/343/212 288/342/211
f 89/89/60 288/342/211 287/341/210
f 89/89/60 287/341/210 90/90/61
f 90/90/61 287/341/210 290/344/213
f 90/90/61 290/344/213 291/345/214
f 291/345/214 290/344/213 292/346/215
f 290/344/213 287/341/210 293/347/216
f 293/347/216 287/341/210 285/339/208
f 293/347/216 285/339/208 238/274/165
f 292/346/215 290/344/213 294/348/217
f 292/346/215 294/348/217 295/349/218
f 290/344/213 293/347/216 296/350/219
f 290/344/213 296/350/219 294/348/217
f 293/347/216 238/274/165 297/351/220
f 293/347/216 297/351/220 296/350/219
f 297/351/220 238/274/165 237/273/164
f 295/349/218 294/348/217 298/352/221
f 298/352/221 294/348/217 296/350/219
f 295/349/218 298/352/221 299/353/222
f 299/353/222 298/352/221 100/354/223
f 298/352/221 296/350/219 300/355/224
f 300/355/224 296/350/219 297/351/220
f 298/352/221 300/355/224 100/354/223
f 300/355/224 297/351/220 301/356/225
f 300/355/224 301/356/225 100/354/223
f 302/357/41 164/358/38 303/359/226
f 303/359/226 164/358/38 304/360/227
f 305/361/228 306/362/228 304/360/227
f 305/361/228 304/360/227 307/363/229
f 307/363/229 304/360/227 164/358/38
f 308/364/230 309/365/230 307/363/229
f 303/359/226 304/360/227 310/366/231
f 310/366/231 304/360/227 311/367/232
f 310/366/231 311/367/232 312/368/232
f 303/359/226 310/366/231 313/369/233
f 313/369/233 310/366/231 314/370/133
f 313/369/233 314/370/133 315/371/133
f 303/359/226 313/369/233 316/372/234
f 316/372/234 313/369/233 317/373/235
f 316/372/234 317/373/235 318/374/236
f 319/375/237 308/364/230 307/363/229
f 320/376/238 321/377/238 319/375/237
f 320/376/238 319/375/237 322/378/239
f 323/379/240 324/380/240 322/378/239
f 323/379/240 322/378/239 325/381/241
f 325/381/241 322/378/239 319/375/237
f 319/375/237 307/363/229 127/382/242
f 319/375/237 127/382/242 325/381/241
f 127/382/242 307/363/229 164/358/38
f 325/381/241 127/382/242 133/383/243
f 325/381/241 133/383/243 326/384/243
f 127/382/242 164/358/38 130/385/42
f 127/382/242 130/385/42 128/386/42
f 162/387/41 164/358/38 302/357/41
f 162/387/41 302/357/41 143/388/41
f 162/387/41 143/388/41 145/389/41
f 143/388/41 302/357/41 140/390/41
f 162/387/41 145/389/41 147/391/41
f 140/390/41 302/357/41 138/392/41
f 162/387/41 147/391/41 161/393/41
f 138/392/41 302/357/41 327/394/41
f 161/393/41 147/391/41 149/395/41
f 138/392/41 327/394/41 328/396/41
f 161/393/41 149/395/41 151/397/41
f 138/392/41 328/396/41 136/398/41
f 161/393/41 151/397/41 159/399/41
f 136/398/41 328/396/41 329/400/41
f 159/399/41 151/397/41 153/401/41
f 159/399/41 153/401/41 157/402/41
f 157/402/41 153/401/41 155/403/41
f 136/398/41 329/400/41 134/404/41
f 134/404/41 329/400/41 330/405/41
f 134/404/41 330/405/41 331/406/41
f 331/406/41 330/405/41 332/407/41
f 331/406/41 332/407/41 333/408/41
f 333/408/41 332/407/41 334/409/41
f 99/410/41 179/411/41 299/412/41
f 99/410/41 299/412/41 100/413/41
f 93/414/58 335/415/58 211/416/58
f 93/414/58 211/416/58 95/417/58
f 335/415/58 93/414/58 336/418/244
f 336/418/244 93/414/58 337/419/245
f 336/418/244 337/419/245 338/420/246
f 338/420/246 337/419/245 339/421/247
f 338/420/246 339/421/247 340/422/248
f 340/422/248 339/421/247 341/423/249
f 338/420/246 340/422/248 342/424/248
f 342/424/248 340/422/248 343/425/250
f 343/425/250 340/422/248 344/426/250
f 343/425/250 344/426/250 345/427/58
f 345/427/58 344/426/250 346/428/58
f 345/427/58 346/428/58 347/429/251
f 347/429/251 346/428/58 348/430/251
f 347/429/251 348/430/251 70/431/252
f 347/429/251 70/431/252 71/432/252
f 309/433/253 349/434/253 350/435/254
f 309/433/253 350/435/254 307/436/254
f 349/434/253 309/433/253 308/437/255
f 307/436/254 350/435/254 305/438/256
f 349/434/253 308/437/255 351/439/255
f 305/438/256 350/435/254 352/440/256
f 351/439/255 308/437/255 353/441/257
f 305/438/256 352/440/256 354/442/258
f 353/441/257 308/437/255 319/443/257
f 305/438/256 354/442/258 306/444/258
f 353/441/257 319/443/257 321/445/259
f 306/444/258 354/442/258 355/446/260
f 353/441/257 321/445/259 356/447/259
f 306/444/258 355/446/260 304/448/261
f 356/447/259 321/445/259 320/449/262
f 304/448/261 355/446/260 311/450/263
f 356/447/259 320/449/262 357/451/264
f 311/450/263 355/446/260 358/452/263
f 311/450/263 358/452/263 359/453/265
f 311/450/263 359/453/265 312/454/266
f 357/451/264 320/449/262 360/455/267
f 360/455/267 320/449/262 322/456/267
f 360/455/267 322/456/267 324/457/268
f 360/455/267 324/457/268 361/458/269
f 361/458/269 324/457/268 323/459/270
f 361/458/269 323/459/270 362/460/270
f 362/460/270 323/459/270 363/461/271
f 363/461/271 323/459/270 325/462/271
f 363/461/271 325/462/271 326/463/49
f 363/461/271 326/463/49 364/464/272
f 364/464/272 326/463/49 133/145/89
f 364/464/272 133/145/89 132/144/89
f 365/465/41 93/466/41 92/467/41
f 365/465/41 92/467/41 366/468/41
f 93/466/41 365/465/41 337/469/41
f 337/469/41 365/465/41 339/470/41
f 204/224/136 203/223/135 228/471/206
f 204/224/136 228/471/206 208/228/140
f 208/228/140 228/471/206 229/472/273
f 208/228/140 229/472/273 210/230/142
f 210/230/142 229/472/273 231/473/207
f 210/230/142 231/473/207 209/229/141
f 209/229/141 231/473/207 207/227/139
f 209/229/141 207/227/139 206/226/138
f 367/474/274 368/475/275 173/476/276
f 367/474/274 173/476/276 172/477/277
f 173/476/276 368/475/275 175/478/278
f 367/474/274 172/477/277 369/479/279
f 367/474/274 369/479/279 368/475/275
f 369/479/279 172/477/277 171/480/280
f 175/478/278 368/475/275 370/481/281
f 370/481/281 368/475/275 369/479/279
f 175/478/278 370/481/281 371/482/282
f 175/478/278 371/482/282 176/483/283
f 370/481/281 369/479/279 372/484/284
f 372/484/284 369/479/279 171/480/280
f 370/481/281 372/484/284 371/482/282
f 372/484/284 171/480/280 174/485/285
f 176/483/283 371/482/282 177/486/286
f 372/484/284 174/485/285 373/487/287
f 372/484/284 373/487/287 371/482/282
f 373/487/287 174/485/285 180/488/288
f 373/487/287 180/488/288 181/489/289
f 177/486/286 371/482/282 374/490/290
f 374/490/290 371/482/282 373/487/287
f 177/486/286 374/490/290 183/491/291
f 373/487/287 181/489/289 375/492/292
f 373/487/287 375/492/292 374/490/290
f 375/492/292 181/489/289 376/493/293
f 376/493/293 181/489/289 182/494/294
f 374/490/290 375/492/292 377/495/295
f 374/490/290 377/495/295 183/491/291
f 377/495/295 375/492/292 376/493/293
f 183/491/291 377/495/295 184/496/296
f 376/493/293 182/494/294 378/497/297
f 376/493/293 378/497/297 377/495/295
f 378/497/297 182/494/294 184/496/296
f 378/497/297 184/496/296 377/495/295
f 379/498/298 8/499/298 9/500/299
f 379/498/298 9/500/299 380/501/299
f 380/501/299 9/500/299 107/502/300
f 380/501/299 107/502/300 381/503/300
f 381/503/300 107/502/300 108/504/301
f 381/503/300 108/504/301 382/505/301
f 382/505/301 108/504/301 109/506/302
f 382/505/301 109/506/302 383/507/302
f 383/507/302 109/506/302 27/508/303
f 383/507/302 27/508/303 384/509/303
f 384/509/303 27/508/303 22/510/304
f 384/509/303 22/510/304 385/511/304
f 8/499/298 379/498/298 386/512/305
f 8/499/298 386/512/305 11/513/305
f 11/513/305 386/512/305 387/514/306
f 11/513/305 387/514/306 13/515/306
f 13/515/306 387/514/306 388/516/307
f 13/515/306 388/516/307 15/517/307
f 15/517/307 388/516/307 389/518/308
f 15/517/307 389/518/308 17/519/308
f 17/519/308 389/518/308 390/520/309
f 17/519/308 390/520/309 19/521/309
f 19/521/309 390/520/309 385/511/304
f 19/521/309 385/511/304 22/510/304
f 391/522/310 85/523/311 392/524/116
f 392/524/116 85/523/311 87/525/116
f 393/526/312 394/527/313 331/528/314
f 331/528/314 394/527/313 134/146/90
f 134/146/90 394/527/313 135/147/90
f 393/526/312 331/528/314 333/529/312
f 393/526/312 333/529/312 395/530/315
f 395/530/315 333/529/312 334/531/315
f 395/530/315 334/531/315 396/532/316
f 396/532/316 334/531/315 332/533/316
f 396/532/316 332/533/316 397/534/317
f 397/534/317 332/533/316 330/535/317
f 397/534/317 330/535/317 398/536/318
f 398/536/318 330/535/317 329/537/318
f 28/538/319 399/539/320 87/540/321
f 28/538/319 87/540/321 31/541/322
f 31/541/322 87/540/321 86/542/322
f 87/540/321 399/539/320 392/543/323
f 399/539/320 28/538/319 34/544/324
f 399/539/320 34/544/324 36/545/116
f 399/539/320 36/545/116 400/546/116
f 391/522/310 401/547/325 83/548/326
f 391/522/310 83/548/326 85/523/311
f 83/548/326 401/547/325 84/549/58
f 84/549/58 401/547/325 402/550/58
f 31/541/322 86/542/322 33/551/327
f 33/551/327 86/542/322 82/552/327
f 33/551/327 82/552/327 32/553/328
f 32/553/328 82/552/327 81/554/328
f 32/553/328 81/554/328 29/555/329
f 29/555/329 81/554/328 84/556/330
f 29/555/329 84/556/330 30/557/331
f 30/557/331 84/556/330 402/558/332
f 30/557/331 402/558/332 403/559/333
f 30/557/331 403/559/333 404/560/58
f 30/557/331 404/560/58 35/561/58
f 355/562/334 360/563/335 363/564/336
f 356/565/337 357/566/337 360/563/335
f 356/565/337 360/563/335 353/567/338
f 349/568/339 351/569/339 353/567/338
f 349/568/339 353/567/338 350/570/340
f 350/570/340 353/567/338 360/563/335
f 350/570/340 360/563/335 355/562/334
f 361/571/341 363/564/336 360/563/335
f 363/564/336 361/571/341 362/571/341
f 350/570/340 355/562/334 354/572/342
f 350/570/340 354/572/342 352/572/342
f 359/573/343 358/573/343 355/562/334
f 359/573/343 355/562/334 405/574/344
f 405/574/344 355/562/334 363/564/336
f 406/575/345 407/576/345 405/574/344
f 406/575/345 405/574/344 408/577/346
f 405/574/344 363/564/336 126/578/347
f 405/574/344 126/578/347 408/577/346
f 126/578/347 363/564/336 364/579/348
f 126/578/347 364/579/348 132/580/348
f 408/577/346 126/578/347 110/581/349
f 110/581/349 126/578/347 129/582/8
f 110/581/349 129/582/8 131/583/8
f 408/577/346 110/581/349 409/584/350
f 409/584/350 110/581/349 106/585/351
f 409/584/350 106/585/351 410/586/352
f 410/586/352 106/585/351 411/587/353
f 410/586/352 411/587/353 412/588/354
f 338/589/355 404/560/356 413/590/355
f 338/589/355 413/590/355 336/591/327
f 336/591/327 413/590/355 335/592/327
f 404/560/356 338/589/355 342/593/355
f 404/560/356 342/593/355 343/594/355
f 404/560/356 343/594/355 35/561/357
f 35/561/357 343/594/355 42/595/358
f 42/595/358 343/594/355 345/596/327
f 42/595/358 345/596/327 49/597/327
f 49/597/327 345/596/327 347/598/327
f 49/597/327 347/598/327 71/599/327
f 178/600/327 170/601/359 400/546/360
f 178/600/327 400/546/360 36/545/361
f 178/600/327 36/545/361 45/602/327
f 178/600/327 45/602/327 55/603/327
f 414/604/362 415/605/363 416/606/364
f 414/604/362 416/606/364 417/607/364
f 417/607/364 416/606/364 412/608/365
f 412/608/365 416/606/364 316/609/365
f 412/608/365 316/609/365 418/610/366
f 412/608/365 418/610/366 419/611/366
f 419/611/366 418/610/366 420/612/367
f 419/611/366 420/612/367 421/613/367
f 421/613/367 420/612/367 410/614/368
f 410/614/368 420/612/367 318/615/368
f 410/614/368 318/615/368 422/616/369
f 410/614/368 422/616/369 423/617/369
f 423/617/369 422/616/369 424/618/370
f 423/617/369 424/618/370 425/619/370
f 426/620/371 415/605/363 414/604/362
f 415/605/363 426/620/371 303/621/372
f 426/620/371 414/604/362 411/622/373
f 426/620/371 411/622/373 427/623/374
f 426/620/371 427/623/374 428/103/375
f 426/620/371 428/103/375 105/105/64
f 105/105/64 428/103/375 103/103/62
f 103/103/62 428/103/375 427/623/374
f 103/103/62 427/623/374 104/104/63
f 429/624/376 430/625/376 408/577/346
f 429/624/376 408/577/346 409/584/350
f 423/626/377 425/627/377 409/584/350
f 423/626/377 409/584/350 410/586/352
f 419/628/378 421/629/378 410/586/352
f 419/628/378 410/586/352 412/588/354
f 414/630/379 417/631/379 412/588/354
f 414/630/379 412/588/354 411/587/353
f 104/632/380 427/633/380 411/587/353
f 104/632/380 411/587/353 106/585/351
f 112/634/381 166/635/381 106/585/351
f 112/634/381 106/585/351 110/581/349
f 105/636/327 111/637/327 163/638/327
f 105/636/327 163/638/327 431/639/327
f 105/636/327 431/639/327 426/640/327
f 431/639/327 163/638/327 432/641/327
f 431/639/327 432/641/327 433/642/327
f 152/643/327 163/638/327 160/644/327
f 163/638/327 152/643/327 432/641/327
f 397/645/327 398/646/327 432/641/327
f 397/645/327 432/641/327 396/647/327
f 396/647/327 432/641/327 393/648/327
f 396/647/327 393/648/327 395/649/327
f 393/648/327 432/641/327 152/643/327
f 146/650/327 152/643/327 150/651/327
f 152/643/327 146/650/327 144/652/327
f 152/643/327 144/652/327 139/653/327
f 152/643/327 139/653/327 393/648/327
f 139/653/327 144/652/327 142/654/327
f 139/653/327 142/654/327 141/655/327
f 393/648/327 139/653/327 135/656/327
f 393/648/327 135/656/327 394/657/327
f 135/656/327 139/653/327 137/658/327
f 146/650/327 150/651/327 148/659/327
f 152/643/327 160/644/327 154/660/327
f 154/660/327 160/644/327 158/661/327
f 154/660/327 158/661/327 156/662/327
f 73/663/359 348/664/355 76/665/355
f 348/664/355 73/663/359 70/666/327
f 76/665/355 348/664/355 346/667/358
f 76/665/355 346/667/358 79/668/358
f 79/668/358 346/667/358 344/669/358
f 79/668/358 344/669/358 340/670/358
f 79/668/358 340/670/358 341/671/358
f 79/668/358 341/671/358 80/672/358
f 434/673/355 271/674/382 270/675/383
f 434/673/355 270/675/383 435/676/327
f 435/676/327 270/675/383 266/677/327
f 416/678/384 415/679/384 303/359/226
f 416/678/384 303/359/226 316/372/234
f 420/680/385 418/681/385 316/372/234
f 420/680/385 316/372/234 318/374/236
f 424/682/386 422/683/386 318/374/236
f 424/682/386 318/374/236 317/373/235
f 436/684/387 437/685/387 317/373/235
f 436/684/387 317/373/235 313/369/233
f 436/686/388 430/687/388 429/688/389
f 436/686/388 429/688/389 437/689/389
f 437/689/389 429/688/389 317/690/390
f 317/690/390 429/688/389 409/691/390
f 406/692/391 315/693/391 314/694/392
f 406/692/391 314/694/392 407/695/393
f 407/695/393 314/694/392 405/696/394
f 405/696/394 314/694/392 310/697/394
f 91/698/58 435/699/395 366/700/396
f 91/698/58 366/700/396 92/701/58
f 366/700/396 435/699/395 365/702/397
f 365/702/397 435/699/395 438/703/397
f 365/702/397 438/703/397 339/704/398
f 339/704/398 438/703/397 341/705/398
f 431/706/318 302/707/318 303/708/399
f 431/706/318 303/708/399 426/709/399
f 408/710/400 313/711/400 315/693/391
f 408/710/400 315/693/391 406/692/391
f 430/687/388 436/686/388 408/710/400
f 408/710/400 436/686/388 313/711/400
f 405/696/394 310/697/394 312/454/266
f 405/696/394 312/454/266 359/453/265
f 317/690/390 409/691/390 425/619/370
f 317/690/390 425/619/370 424/618/370
f 413/712/401 212/713/402 211/714/258
f 413/712/401 211/714/258 335/715/403
f 212/713/402 413/712/401 404/716/404
f 212/713/402 404/716/404 400/717/404
f 212/713/402 400/717/404 167/718/404
f 167/718/404 400/717/404 168/719/404
f 168/719/404 400/717/404 169/720/404
f 169/720/404 400/717/404 170/721/404
f 400/717/404 404/716/404 403/722/404
f 400/717/404 403/722/404 399/723/405
f 399/723/405 403/722/404 402/724/405
f 399/723/405 402/724/405 392/725/405
f 392/725/405 402/724/405 401/726/406
f 392/725/405 401/726/406 391/727/404
f 398/536/318 329/537/318 432/728/402
f 432/728/402 329/537/318 328/729/402
f 432/728/402 328/729/402 433/730/258
f 433/730/258 328/729/402 327/731/258
f 433/730/258 327/731/258 431/706/318
f 431/706/318 327/731/258 302/707/318
f 299/732/404 179/733/404 186/734/404
f 299/732/404 186/734/404 341/735/404
f 341/735/404 186/734/404 78/736/404
f 341/735/404 78/736/404 80/737/404
f 78/736/404 186/734/404 74/738/404
f 74/738/404 186/734/404 90/739/404
