# CS2 body mesh, tools/cs2_glb_to_obj.py
v -0.03462 0.03587 0.08789
v -0.03219 0.01243 0.08161
v -0.03462 0.03669 0.08161
v -0.03462 0.03587 0.07532
v -0.03462 0.03344 0.09374
v -0.03462 0.03344 0.06947
v -0.03462 0.02959 0.09876
v -0.03462 0.02959 0.06445
v -0.03462 0.02456 0.10262
v -0.03462 0.02456 0.06059
v -0.03462 0.01871 0.10504
v -0.03462 0.01871 0.05816
v -0.03462 0.01243 0.10587
v -0.03462 0.01243 0.05734
v -0.03462 0.00615 0.10504
v -0.03462 0.00615 0.05816
v -0.03462 0.00029 0.10262
v -0.03462 0.00029 0.06059
v -0.03462 -0.00473 0.09876
v -0.03462 -0.00473 0.06445
v -0.03462 -0.00859 0.09374
v -0.03462 -0.00859 0.06947
v -0.03462 -0.01101 0.08789
v -0.03462 -0.01101 0.07532
v -0.03462 -0.01184 0.08161
v -0.33545 0.02683 0.07329
v -0.33742 0.01243 0.08161
v -0.33545 0.02849 0.0773
v -0.33545 0.02906 0.08161
v -0.33545 0.02419 0.06984
v -0.33545 0.02849 0.08591
v -0.33545 0.02074 0.0672
v -0.33545 0.02683 0.08992
v -0.33545 0.01673 0.06554
v -0.33545 0.02419 0.09337
v -0.33545 0.01243 0.06497
v -0.33545 0.02074 0.09601
v -0.33545 0.00812 0.06554
v -0.33545 0.01673 0.09767
v -0.33545 0.00411 0.0672
v -0.33545 0.01243 0.09824
v -0.33545 0.00067 0.06984
v -0.33545 0.00812 0.09767
v -0.33545 -0.00197 0.07329
v -0.33545 0.00411 0.09601
v -0.33545 -0.00364 0.0773
v -0.33545 0.00067 0.09337
v -0.33545 -0.0042 0.08161
v -0.33545 -0.00197 0.08992
v -0.33545 -0.00364 0.08591
vt 1.942383 0.369385
vt 1.503906 0.496338
vt 1.958008 0.496338
vt 1.942383 0.623535
vt 1.897461 0.250977
vt 1.897461 0.741699
vt 1.825195 0.149292
vt 1.825195 0.84375
vt 1.731445 0.071228
vt 1.731445 0.921875
vt 1.62207 0.022156
vt 1.62207 0.970703
vt 1.503906 0.005436
vt 1.503906 0.987305
vt 1.386719 0.022156
vt 1.386719 0.970703
vt 1.277344 0.071228
vt 1.277344 0.921875
vt 1.182617 0.149292
vt 1.182617 0.84375
vt 1.110352 0.250977
vt 1.110352 0.741699
vt 1.06543 0.369385
vt 1.06543 0.623535
vt 1.049805 0.496338
vt 1.908203 0.731445
vt 1.498047 0.495117
vt 1.955078 0.617188
vt 1.97168 0.495117
vt 1.833008 0.829102
vt 1.955078 0.372803
vt 1.734375 0.904297
vt 1.908203 0.258545
vt 1.620117 0.95166
vt 1.833008 0.160767
vt 1.498047 0.967773
vt 1.734375 0.085632
vt 1.375977 0.95166
vt 1.620117 0.038422
vt 1.261719 0.904297
vt 1.498047 0.022339
vt 1.163086 0.829102
vt 1.375977 0.038422
vt 1.087891 0.731445
vt 1.261719 0.085632
vt 1.041016 0.617188
vt 1.163086 0.160767
vt 1.024414 0.495117
vt 1.087891 0.258545
vt 1.041016 0.372803
vn 0.9954 0.0887 0.0361
vn 0.9999 0.001 0.0149
vn 0.996 0.0872 0.0183
vn 0.996 0.0882 -0.0161
vn 0.9947 0.0724 0.0724
vn 0.9961 0.0701 -0.0536
vn 0.9944 0.0546 0.0902
vn 0.9961 0.0525 -0.0711
vn 0.9935 0.0367 0.1079
vn 0.9955 0.035 -0.0886
vn 0.9942 0.0186 0.1061
vn 0.996 0.0172 -0.0871
vn 0.9945 0.0011 0.1043
vn 0.9963 0 -0.0857
vn 0.9954 -0.0361 0.0887
vn 0.997 -0.0345 -0.07
vn 0.9944 -0.0546 0.0902
vn 0.9961 -0.0525 -0.0711
vn 0.9947 -0.0724 0.0724
vn 0.9961 -0.0701 -0.0536
vn 0.9944 -0.0902 0.0546
vn 0.9954 -0.0897 -0.0339
vn 0.9942 -0.1061 0.0186
vn 0.9945 -0.1043 0.0011
vn -0.9929 0.0929 -0.0737
vn -1 0 -0.001
vn -0.9935 0.1089 -0.0344
vn -0.9945 0.1043 0.0011
vn -0.9907 0.0737 -0.114
vn -0.9942 0.1061 0.0186
vn -0.9922 0.0544 -0.1121
vn -0.9944 0.0902 0.0546
vn -0.9919 0.0178 -0.1254
vn -0.9931 0.0736 0.0917
vn -0.9924 0 -0.1232
vn -0.9944 0.0546 0.0902
vn -0.9935 -0.0356 -0.1078
vn -0.9942 0.0186 0.1061
vn -0.9929 -0.0725 -0.0941
vn -0.9945 -0.0011 0.1043
vn -0.9911 -0.0945 -0.0934
vn -0.9954 -0.0361 0.0887
vn -0.9923 -0.111 -0.0555
vn -0.9947 -0.0724 0.0724
vn -0.9918 -0.1265 -0.0166
vn -0.9931 -0.0917 0.0736
vn -0.9924 -0.1216 -0.0166
vn -0.9935 -0.1079 0.0367
vn -0.9924 -0.1234 0.0011
o weapon_offset__p2
f 1/1/1 2/2/2 3/3/3
f 3/3/3 2/2/2 4/4/4
f 2/2/2 1/1/1 5/5/5
f 4/4/4 2/2/2 6/6/6
f 2/2/2 5/5/5 7/7/7
f 6/6/6 2/2/2 8/8/8
f 2/2/2 7/7/7 9/9/9
f 8/8/8 2/2/2 10/10/10
f 2/2/2 9/9/9 11/11/11
f 10/10/10 2/2/2 12/12/12
f 2/2/2 11/11/11 13/13/13
f 12/12/12 2/2/2 14/14/14
f 2/2/2 13/13/13 15/15/15
f 14/14/14 2/2/2 16/16/16
f 2/2/2 15/15/15 17/17/17
f 16/16/16 2/2/2 18/18/18
f 2/2/2 17/17/17 19/19/19
f 18/18/18 2/2/2 20/20/20
f 2/2/2 19/19/19 21/21/21
f 20/20/20 2/2/2 22/22/22
f 2/2/2 21/21/21 23/23/23
f 22/22/22 2/2/2 24/24/24
f 2/2/2 23/23/23 25/25/24
f 2/2/2 25/25/24 24/24/24
f 26/26/25 27/27/26 28/28/27
f 28/28/27 27/27/26 29/29/28
f 27/27/26 26/26/25 30/30/29
f 29/29/28 27/27/26 31/31/30
f 27/27/26 30/30/29 32/32/31
f 31/31/30 27/27/26 33/33/32
f 27/27/26 32/32/31 34/34/33
f 33/33/32 27/27/26 35/35/34
f 27/27/26 34/34/33 36/36/35
f 35/35/34 27/27/26 37/37/36
f 27/27/26 36/36/35 38/38/37
f 37/37/36 27/27/26 39/39/38
f 27/27/26 38/38/37 40/40/39
f 39/39/38 27/27/26 41/41/40
f 27/27/26 40/40/39 42/42/41
f 41/41/40 27/27/26 43/43/42
f 27/27/26 42/42/41 44/44/43
f 43/43/42 27/27/26 45/45/44
f 27/27/26 44/44/43 46/46/45
f 45/45/44 27/27/26 47/47/46
f 27/27/26 46/46/45 48/48/47
f 47/47/46 27/27/26 49/49/48
f 27/27/26 48/48/47 50/50/49
f 27/27/26 50/50/49 49/49/48
