# CS2 body mesh, tools/cs2_glb_to_obj.py
v 0.00768 -0.02149 -0.01489
v 0.00768 -0.02094 -0.01453
v 0.00599 -0.02149 -0.01472
v 0.00852 -0.02047 -0.02049
v 0.00346 -0.02047 -0.02049
v 0.00286 -0.01817 -0.02654
v 0.00912 -0.01817 -0.02654
v 0.00226 -0.01474 -0.03172
v 0.00972 -0.01474 -0.03172
v 0.00166 -0.01033 -0.03546
v 0.01032 -0.01033 -0.03546
v 0.00104 -0.00347 -0.03772
v 0.01094 -0.00347 -0.03772
v 0.00042 0.00417 -0.03872
v 0.01156 0.00417 -0.03872
v -0.00019 0.01157 -0.03949
v 0.01217 0.01157 -0.03949
v -0.00074 0.01383 -0.04071
v 0.01272 0.01383 -0.04071
v 0.01284 0.01447 -0.04181
v -0.00087 0.01447 -0.04181
v 0.01424 0.0156 -0.02307
v -0.00226 0.0156 -0.02307
v 0.01416 0.01529 -0.02367
v -0.00218 0.01529 -0.02367
v 0.00599 0.01501 -0.03027
v 0.01286 0.01501 -0.03064
v -0.00088 0.01501 -0.03064
v 0.01313 0.01499 -0.03101
v -0.00115 0.01499 -0.03101
v -0.00114 0.01448 -0.04148
v 0.01419 0.014 -0.05208
v 0.01312 0.01448 -0.04148
v -0.00221 0.014 -0.05208
v 0.01424 0.01433 -0.05257
v -0.00226 0.01433 -0.05257
v 0.01424 0.01941 -0.05444
v -0.00226 0.01941 -0.05444
v 0.01445 0.01993 -0.02007
v 0.01424 0.01994 -0.01959
v 0.01445 0.01567 -0.02349
v 0.01445 0.01437 -0.05219
v 0.01445 0.01942 -0.05405
v -0.00247 0.01942 -0.05405
v -0.00247 0.01437 -0.05219
v -0.00247 0.01567 -0.02349
v -0.00226 0.01994 -0.01959
v -0.00247 0.01993 -0.02007
v 0.00842 -0.02076 -0.01496
v 0.00842 -0.02113 -0.01502
v 0.00873 -0.0188 -0.01976
v 0.00873 -0.02014 -0.02029
v 0.00933 -0.01625 -0.02413
v 0.00852 -0.01848 -0.01956
v 0.00912 -0.01601 -0.02384
v 0.00993 -0.01261 -0.02804
v 0.00972 -0.01243 -0.02771
v 0.00933 -0.01791 -0.02624
v 0.01053 -0.00803 -0.03079
v 0.00993 -0.01455 -0.03137
v 0.01032 -0.00788 -0.03045
v 0.01053 -0.01018 -0.03511
v 0.01115 -0.00336 -0.03737
v 0.01115 -0.00183 -0.03222
v 0.01094 -0.00172 -0.03186
v 0.01177 0.00423 -0.03836
v 0.01177 0.00494 -0.03231
v 0.01156 0.00499 -0.03194
v 0.01239 0.01159 -0.03911
v 0.01239 0.01197 -0.0321
v 0.01217 0.012 -0.03173
v 0.01293 0.01462 -0.03167
v 0.01271 0.01464 -0.03112
v 0.01294 0.01385 -0.04008
v 0.00356 -0.02076 -0.01496
v 0.00325 -0.0188 -0.01976
v 0.00356 -0.02113 -0.01502
v 0.00325 -0.02014 -0.02029
v 0.00346 -0.01848 -0.01956
v 0.00286 -0.01601 -0.02384
v 0.00265 -0.01625 -0.02413
v 0.00226 -0.01243 -0.02771
v 0.00265 -0.01791 -0.02624
v 0.00205 -0.01261 -0.02804
v 0.00166 -0.00788 -0.03045
v 0.00205 -0.01455 -0.03137
v 0.00145 -0.00803 -0.03079
v 0.00104 -0.00172 -0.03186
v 0.00145 -0.01018 -0.03511
v 0.00083 -0.00336 -0.03737
v 0.00083 -0.00183 -0.03222
v 0.00042 0.00499 -0.03194
v 0.00021 0.00423 -0.03836
v 0.00021 0.00494 -0.03231
v -0.00019 0.012 -0.03173
v -0.00041 0.01159 -0.03911
v -0.00041 0.01197 -0.0321
v -0.00073 0.01464 -0.03112
v -0.00096 0.01385 -0.04008
v -0.00096 0.01462 -0.03167
v 0.00768 -0.02039 -0.01471
v 0.00599 -0.02094 -0.01436
v 0.00599 -0.02039 -0.01454
v 0.0043 -0.02149 -0.01489
v 0.0043 -0.02094 -0.01453
v 0.0043 -0.02039 -0.01471
v 0.00599 -0.01848 -0.0192
v 0.00599 -0.01601 -0.02348
v 0.00599 -0.01243 -0.02735
v 0.00599 -0.00788 -0.03009
v 0.00599 -0.00172 -0.0315
v 0.00599 0.00499 -0.03158
v 0.00599 0.012 -0.03137
v 0.00599 0.01464 -0.03076
vt 0.454834 0.711914
vt 0.454346 0.711914
vt 0.454834 0.713867
vt 0.460693 0.711426
vt 0.460693 0.716797
vt 0.467041 0.717285
vt 0.467285 0.710938
vt 0.473389 0.718262
vt 0.473633 0.710449
vt 0.479248 0.719238
vt 0.479736 0.709961
vt 0.486572 0.720215
vt 0.487061 0.709961
vt 0.494385 0.721191
vt 0.494873 0.709473
vt 0.501953 0.722168
vt 0.502441 0.709473
vt 0.504395 0.722656
vt 0.504883 0.708984
vt 0.506348 0.708984
vt 0.505859 0.722656
vt 0.315918 0.708984
vt 0.316162 0.726074
vt 0.31665 0.708984
vt 0.316895 0.726074
vt 0.323486 0.717285
vt 0.323975 0.710449
vt 0.323975 0.724121
vt 0.324219 0.709961
vt 0.324463 0.724609
vt 0.335205 0.724121
vt 0.345947 0.708496
vt 0.334961 0.709473
vt 0.335449 0.709961
vt 0.345947 0.725098
vt 0.335449 0.724121
vt 0.346436 0.708496
vt 0.34668 0.725098
vt 0.352295 0.708496
vt 0.352051 0.725098
vt 0.384277 0.704102
vt 0.387451 0.708496
vt 0.387939 0.708496
vt 0.383789 0.70459
vt 0.383545 0.704102
vt 0.354492 0.702637
vt 0.354492 0.703125
vt 0.354004 0.703125
vt 0.352539 0.708008
vt 0.35376 0.730469
vt 0.352539 0.725586
vt 0.354248 0.730469
vt 0.354248 0.730957
vt 0.383545 0.730469
vt 0.383545 0.72998
vt 0.384033 0.72998
vt 0.387695 0.725586
vt 0.387207 0.725586
vt 0.479248 0.675293
vt 0.479004 0.675293
vt 0.481934 0.680176
vt 0.480713 0.680664
vt 0.485107 0.684082
vt 0.482178 0.679688
vt 0.485352 0.683594
vt 0.489502 0.6875
vt 0.489502 0.687012
vt 0.483643 0.686523
vt 0.483398 0.687012
vt 0.480225 0.681152
vt 0.487549 0.691895
vt 0.494385 0.689941
vt 0.487793 0.691406
vt 0.492676 0.694824
vt 0.494629 0.689453
vt 0.492676 0.694336
vt 0.5 0.696289
vt 0.507812 0.696777
vt 0.500977 0.69043
vt 0.507812 0.696289
vt 0.515137 0.696777
vt 0.507812 0.689941
vt 0.507812 0.689453
vt 0.515137 0.696289
vt 0.517578 0.697754
vt 0.515137 0.688965
vt 0.514648 0.688477
vt 0.517578 0.687988
vt 0.517578 0.6875
vt 0.517578 0.687012
vt 0.518066 0.6875
vt 0.518066 0.696777
vt 0.518555 0.698242
vt 0.518555 0.69873
vt 0.475342 0.675293
vt 0.472656 0.679688
vt 0.475586 0.675293
vt 0.473877 0.680664
vt 0.472412 0.679688
vt 0.469238 0.683594
vt 0.469482 0.684082
vt 0.465088 0.687012
vt 0.470947 0.686523
vt 0.474365 0.680664
vt 0.471191 0.686523
vt 0.465332 0.6875
vt 0.460205 0.689453
vt 0.466797 0.691406
vt 0.467041 0.691406
vt 0.460205 0.689941
vt 0.453613 0.689941
vt 0.461914 0.694336
vt 0.462158 0.694824
vt 0.45459 0.695801
vt 0.454834 0.696289
vt 0.453857 0.69043
vt 0.446777 0.689453
vt 0.446777 0.696289
vt 0.446777 0.696777
vt 0.446777 0.689941
vt 0.439697 0.688477
vt 0.439209 0.696289
vt 0.439209 0.696777
vt 0.439697 0.688965
vt 0.437012 0.6875
vt 0.436768 0.696777
vt 0.436768 0.697266
vt 0.436035 0.69873
vt 0.435791 0.698242
vt 0.437012 0.687988
vt 0.436523 0.6875
vt 0.436768 0.687012
vt 0.454834 0.711426
vt 0.460449 0.710938
vt 0.454102 0.711426
vt 0.453857 0.711914
vt 0.448486 0.710938
vt 0.448486 0.711426
vt 0.393555 0.725586
vt 0.393555 0.708984
vt 0.454346 0.713867
vt 0.453857 0.713867
vt 0.454834 0.715332
vt 0.460449 0.716797
vt 0.454834 0.716309
vt 0.454346 0.715332
vt 0.454102 0.716309
vt 0.453857 0.715332
vt 0.448975 0.713867
vt 0.44873 0.716309
vt 0.44873 0.716797
vt 0.443848 0.713867
vt 0.443359 0.710938
vt 0.443604 0.717285
vt 0.438477 0.714355
vt 0.437988 0.710449
vt 0.438477 0.717773
vt 0.433105 0.714355
vt 0.432617 0.709961
vt 0.433105 0.71875
vt 0.426514 0.714844
vt 0.42627 0.709473
vt 0.426758 0.719727
vt 0.419678 0.714844
vt 0.419434 0.709473
vt 0.419922 0.720703
vt 0.412354 0.715332
vt 0.412109 0.708984
vt 0.412842 0.72168
vt 0.409668 0.71582
vt 0.409424 0.708496
vt 0.410156 0.722656
vt 0.40918 0.71582
vt 0.408691 0.708496
vt 0.409424 0.722656
vn 0.2131 -0.9004 0.3794
vn 0.2547 -0.13 0.9583
vn 0 -0.8952 0.4456
vn 0.4571 -0.8682 -0.1929
vn -0.4776 -0.8624 -0.168
vn -0.497 -0.7859 -0.3679
vn 0.4674 -0.8052 -0.365
vn -0.4895 -0.6822 -0.5431
vn 0.4599 -0.7049 -0.5399
vn -0.4847 -0.4863 -0.727
vn 0.4578 -0.5125 -0.7265
vn -0.5006 -0.2519 -0.8282
vn 0.4786 -0.2781 -0.8328
vn -0.4978 -0.145 -0.8551
vn 0.4781 -0.1697 -0.8618
vn -0.5204 -0.3389 -0.7838
vn 0.4722 -0.3929 -0.7891
vn -0.5167 -0.6827 -0.5167
vn 0.4576 -0.7279 -0.5107
vn 0.0748 -0.9882 -0.1333
vn -0.0978 -0.9859 -0.1359
vn 0.4617 -0.6808 0.5687
vn -0.4911 -0.6542 0.5752
vn 0.3794 -0.9004 0.2131
vn -0.4075 -0.8874 0.2156
vn 0 -0.938 0.3466
vn 0.0796 -0.9719 0.2215
vn -0.1057 -0.9625 0.25
vn 0.1891 -0.9674 0.1684
vn -0.2632 -0.9485 0.1764
vn -0.245 -0.9661 -0.0808
vn 0.3733 -0.9088 -0.1866
vn 0.2967 -0.9513 -0.0833
vn -0.401 -0.8964 -0.1889
vn 0.4322 -0.5668 -0.7014
vn -0.4601 -0.5418 -0.7034
vn 0.4321 -0.3303 -0.8391
vn -0.4557 -0.3043 -0.8365
vn 0.855 -0.3268 0.4027
vn 0.3726 -0.5573 0.742
vn 0.7829 -0.5794 0.2268
vn 0.8092 -0.5307 -0.2521
vn 0.8676 -0.1946 -0.4576
vn -0.877 -0.1681 -0.4502
vn -0.8279 -0.502 -0.2502
vn -0.8032 -0.5514 0.2255
vn -0.4004 -0.5334 0.7451
vn -0.868 -0.298 0.3973
vn 0.9999 0.0149 0.001
vn -1 -0.001 0
vn 0.7825 0.339 0.5222
vn 0.7666 -0.504 0.398
vn 0.9565 0.2154 0.1967
vn 0.9471 -0.3211 0
vn 0.9705 0.1234 0.2073
vn 0.5376 0.7262 0.4284
vn 0.5475 0.6553 0.5205
vn 0.9683 0.0609 0.2424
vn 0.5451 0.4914 0.6793
vn 0.9315 -0.3614 -0.0417
vn 0.9616 0.0012 0.2746
vn 0.9386 -0.3268 -0.1103
vn 0.5383 0.2826 0.794
vn 0.9494 -0.2435 -0.1986
vn 0.9604 -0.1513 -0.2342
vn 0.9619 -0.0592 0.2669
vn 0.5261 0.0691 0.8476
vn 0.9586 -0.0835 0.2724
vn 0.5173 -0.0429 0.8547
vn 0.9481 -0.1779 0.2635
vn 0.506 -0.1712 0.8454
vn 0.882 -0.4307 0.1911
vn 0.4918 -0.6012 0.6299
vn 0.9332 -0.349 -0.0856
vn -0.8084 0.2539 0.5311
vn -0.9674 0.1904 0.1671
vn -0.7871 -0.4952 0.3678
vn -0.9528 -0.303 0.02
vn -0.5331 0.7463 0.3986
vn -0.5757 0.6297 0.5216
vn -0.9738 0.1013 0.2038
vn -0.5707 0.4636 0.6778
vn -0.9408 -0.3364 -0.0412
vn -0.9704 0.0403 0.238
vn -0.5596 0.2555 0.7884
vn -0.9473 -0.3012 -0.1088
vn -0.9626 0.0183 0.2703
vn -0.5428 0.046 0.8386
vn -0.9561 -0.2183 -0.1955
vn -0.9647 -0.128 -0.2302
vn -0.9643 -0.0383 0.2621
vn -0.5336 -0.0205 0.8455
vn -0.9619 -0.0592 0.2669
vn -0.506 -0.1712 0.8454
vn -0.9536 -0.1536 0.2591
vn -0.4631 -0.6259 0.6275
vn -0.9425 -0.3234 -0.0845
vn -0.9052 -0.3926 0.1628
vn 0.2589 0.694 0.6718
vn -0.001 0.9999 -0.0169
vn -0.0172 0.9997 -0.0172
vn -0.0175 -0.106 0.9942
vn -0.0238 0.6606 0.7504
vn -0.2402 -0.8909 0.3854
vn -0.2773 -0.106 0.9549
vn -0.2873 0.6757 0.6789
vn -0.0225 0.9023 0.4306
vn -0.0236 0.8092 0.5871
vn -0.0238 0.6335 0.7734
vn -0.0013 0.3945 0.9189
vn -0.0011 0.1234 0.9924
vn 0 -0.001 1
vn 0 -0.1232 0.9924
vn -0.0219 -0.5326 0.8461
o trigger__p0_c0
f 1/1/1 2/2/2 3/3/3
f 1/1/1 3/3/3 4/4/4
f 4/4/4 3/3/3 5/5/5
f 4/4/4 5/5/5 6/6/6
f 4/4/4 6/6/6 7/7/7
f 7/7/7 6/6/6 8/8/8
f 7/7/7 8/8/8 9/9/9
f 9/9/9 8/8/8 10/10/10
f 9/9/9 10/10/10 11/11/11
f 11/11/11 10/10/10 12/12/12
f 11/11/11 12/12/12 13/13/13
f 13/13/13 12/12/12 14/14/14
f 13/13/13 14/14/14 15/15/15
f 15/15/15 14/14/14 16/16/16
f 15/15/15 16/16/16 17/17/17
f 17/17/17 16/16/16 18/18/18
f 17/17/17 18/18/18 19/19/19
f 19/19/19 18/18/18 20/20/20
f 20/20/20 18/18/18 21/21/21
f 22/22/22 23/23/23 24/24/24
f 24/24/24 23/23/23 25/25/25
f 24/24/24 25/25/25 26/26/26
f 24/24/24 26/26/26 27/27/27
f 26/26/26 25/25/25 28/28/28
f 24/24/24 27/27/27 29/29/29
f 28/28/28 25/25/25 30/30/30
f 30/30/30 25/25/25 31/31/31
f 24/24/24 29/29/29 32/32/32
f 32/32/32 29/29/29 33/33/33
f 32/32/32 33/33/33 20/34/20
f 31/31/31 25/25/25 34/35/34
f 32/32/32 20/34/20 34/35/34
f 31/31/31 34/35/34 21/36/21
f 21/36/21 34/35/34 20/34/20
f 32/32/32 34/35/34 35/37/35
f 35/37/35 34/35/34 36/38/36
f 35/37/35 36/38/36 37/39/37
f 37/39/37 36/38/36 38/40/38
f 22/41/22 39/42/39 40/43/40
f 39/42/39 22/41/22 41/44/41
f 41/44/41 22/41/22 24/45/24
f 41/44/41 24/45/24 32/46/32
f 41/44/41 32/46/32 42/47/42
f 42/47/42 32/46/32 35/48/35
f 42/47/42 35/48/35 37/39/37
f 42/47/42 37/39/37 43/49/43
f 36/50/36 44/51/44 38/40/38
f 44/51/44 36/50/36 45/52/45
f 45/52/45 36/50/36 34/53/34
f 45/52/45 34/53/34 25/54/25
f 45/52/45 25/54/25 46/55/46
f 46/55/46 25/54/25 23/56/23
f 46/55/46 23/56/23 47/57/47
f 46/55/46 47/57/47 48/58/48
f 41/44/49 42/47/49 39/42/49
f 39/42/49 42/47/49 43/49/49
f 44/51/50 45/52/50 48/58/50
f 48/58/50 45/52/50 46/55/50
f 49/59/51 50/60/52 51/61/53
f 51/61/53 50/60/52 52/62/54
f 51/61/53 52/62/54 53/63/55
f 51/61/53 53/63/55 54/64/56
f 54/64/56 53/63/55 55/65/57
f 55/65/57 53/63/55 56/66/58
f 55/65/57 56/66/58 57/67/59
f 53/63/55 52/62/54 58/68/60
f 53/63/55 58/68/60 56/66/58
f 58/68/60 52/62/54 7/69/7
f 7/69/7 52/62/54 4/70/4
f 58/68/60 7/69/7 9/71/9
f 57/67/59 56/66/58 59/72/61
f 58/68/60 9/71/9 60/73/62
f 58/68/60 60/73/62 56/66/58
f 56/66/58 60/73/62 59/72/61
f 60/73/62 9/71/9 11/74/11
f 57/67/59 59/72/61 61/75/63
f 60/73/62 11/74/11 62/76/64
f 60/73/62 62/76/64 59/72/61
f 62/76/64 11/74/11 13/77/13
f 62/76/64 13/77/13 63/77/65
f 62/76/64 63/77/65 59/72/61
f 63/77/65 13/77/13 15/78/15
f 61/75/63 59/72/61 64/79/66
f 64/79/66 59/72/61 63/77/65
f 61/75/63 64/79/66 65/79/67
f 63/77/65 15/78/15 66/80/65
f 63/77/65 66/80/65 64/79/66
f 66/80/65 15/78/15 17/81/17
f 65/79/67 64/79/66 67/82/68
f 67/82/68 64/79/66 66/80/65
f 65/79/67 67/82/68 68/83/69
f 66/80/65 17/81/17 69/84/64
f 66/80/65 69/84/64 67/82/68
f 69/84/64 17/81/17 19/85/19
f 68/83/69 67/82/68 70/86/70
f 70/86/70 67/82/68 69/84/64
f 68/83/69 70/86/70 71/87/71
f 71/87/71 70/86/70 72/88/72
f 72/88/72 70/86/70 69/84/64
f 71/87/71 72/88/72 73/89/73
f 73/89/73 72/88/72 27/90/27
f 27/90/27 72/88/72 29/91/29
f 72/88/72 69/84/64 74/92/74
f 72/88/72 74/92/74 29/91/29
f 74/92/74 69/84/64 19/85/19
f 29/91/29 74/92/74 33/93/33
f 33/93/33 74/92/74 19/85/19
f 33/93/33 19/85/19 20/94/20
f 75/95/75 76/96/76 77/97/77
f 77/97/77 76/96/76 78/98/78
f 79/99/79 80/100/80 76/96/76
f 76/96/76 80/100/80 81/101/81
f 76/96/76 81/101/81 78/98/78
f 81/101/81 80/100/80 82/102/82
f 78/98/78 81/101/81 83/103/83
f 78/98/78 83/103/83 5/104/5
f 5/104/5 83/103/83 6/105/6
f 81/101/81 82/102/82 84/106/84
f 81/101/81 84/106/84 83/103/83
f 84/106/84 82/102/82 85/107/85
f 6/105/6 83/103/83 86/108/86
f 86/108/86 83/103/83 84/106/84
f 6/105/6 86/108/86 8/109/8
f 84/106/84 85/107/85 87/110/87
f 84/106/84 87/110/87 86/108/86
f 87/110/87 85/107/85 88/111/88
f 8/109/8 86/108/86 89/112/89
f 89/112/89 86/108/86 87/110/87
f 8/109/8 89/112/89 10/113/10
f 10/113/10 89/112/89 90/114/90
f 90/114/90 89/112/89 87/110/87
f 10/113/10 90/114/90 12/115/12
f 87/110/87 88/111/88 91/116/91
f 87/110/87 91/116/91 90/114/90
f 91/116/91 88/111/88 92/117/92
f 12/115/12 90/114/90 93/118/90
f 93/118/90 90/114/90 91/116/91
f 12/115/12 93/118/90 14/119/14
f 91/116/91 92/117/92 94/120/93
f 91/116/91 94/120/93 93/118/90
f 94/120/93 92/117/92 95/121/94
f 14/119/14 93/118/90 96/122/89
f 96/122/89 93/118/90 94/120/93
f 14/119/14 96/122/89 16/123/16
f 94/120/93 95/121/94 97/124/95
f 94/120/93 97/124/95 96/122/89
f 97/124/95 95/121/94 98/125/96
f 16/123/16 96/122/89 99/126/97
f 16/123/16 99/126/97 18/127/18
f 18/127/18 99/126/97 21/128/21
f 21/128/21 99/126/97 31/129/31
f 99/126/97 96/122/89 100/130/98
f 100/130/98 96/122/89 97/124/95
f 99/126/97 100/130/98 31/129/31
f 100/130/98 97/124/95 98/125/96
f 31/129/31 100/130/98 30/131/30
f 30/131/30 100/130/98 98/125/96
f 30/131/30 98/125/96 28/132/28
f 2/2/2 1/1/1 50/133/52
f 50/133/52 1/1/1 4/4/4
f 50/133/52 4/4/4 52/134/54
f 2/2/2 50/133/52 49/135/51
f 2/2/2 49/135/51 101/136/99
f 101/136/99 49/135/51 51/137/53
f 101/136/99 51/137/53 54/138/56
f 43/49/100 37/39/100 39/42/101
f 39/42/101 37/39/100 44/51/101
f 44/51/101 37/39/100 38/40/101
f 39/42/101 44/51/101 47/57/100
f 47/57/100 44/51/101 48/58/100
f 39/42/101 47/57/100 40/43/101
f 23/139/23 22/140/22 47/57/47
f 47/57/47 22/140/22 40/43/40
f 102/141/102 3/3/3 2/2/2
f 102/141/102 2/2/2 103/142/103
f 103/142/103 2/2/2 101/136/99
f 3/3/3 102/141/102 104/143/104
f 3/3/3 104/143/104 5/5/5
f 5/5/5 104/143/104 78/144/78
f 78/144/78 104/143/104 77/145/77
f 77/145/77 104/143/104 105/146/105
f 105/146/105 104/143/104 102/141/102
f 77/145/77 105/146/105 75/147/75
f 105/146/105 102/141/102 106/148/106
f 106/148/106 102/141/102 103/142/103
f 105/146/105 106/148/106 75/147/75
f 107/149/107 103/142/103 101/136/99
f 103/142/103 107/149/107 106/148/106
f 107/149/107 101/136/99 54/138/56
f 75/147/75 106/148/106 79/150/79
f 79/150/79 106/148/106 107/149/107
f 75/147/75 79/150/79 76/151/76
f 107/149/107 54/138/56 108/152/108
f 107/149/107 108/152/108 79/150/79
f 108/152/108 54/138/56 55/153/57
f 79/150/79 108/152/108 80/154/80
f 108/152/108 55/153/57 109/155/109
f 108/152/108 109/155/109 80/154/80
f 109/155/109 55/153/57 57/156/59
f 80/154/80 109/155/109 82/157/82
f 109/155/109 57/156/59 110/158/110
f 109/155/109 110/158/110 82/157/82
f 110/158/110 57/156/59 61/159/63
f 82/157/82 110/158/110 85/160/85
f 110/158/110 61/159/63 111/161/111
f 110/158/110 111/161/111 85/160/85
f 111/161/111 61/159/63 65/162/67
f 85/160/85 111/161/111 88/163/88
f 111/161/111 65/162/67 112/164/112
f 111/161/111 112/164/112 88/163/88
f 112/164/112 65/162/67 68/165/69
f 88/163/88 112/164/112 92/166/92
f 112/164/112 68/165/69 113/167/113
f 112/164/112 113/167/113 92/166/92
f 113/167/113 68/165/69 71/168/71
f 92/166/92 113/167/113 95/169/94
f 113/167/113 71/168/71 114/170/114
f 113/167/113 114/170/114 95/169/94
f 114/170/114 71/168/71 73/171/73
f 95/169/94 114/170/114 98/172/96
f 114/170/114 73/171/73 26/173/26
f 114/170/114 26/173/26 98/172/96
f 26/173/26 73/171/73 27/174/27
f 98/172/96 26/173/26 28/175/28
