o casing
v 0.004903925754192235 0.0009754556228003776 0.00945911034066362
v 0.004581068367573316 5.461058388576674e-10 0.009576926364573819
v 0.0050000000539025344 5.960463865390028e-10 0.009459104752728511
v 0.004493043488392453 0.0008937260763925694 0.009576926364573815
v 0.00449304535103749 -0.0008937128632543566 0.00957692636457382
v 0.0042323551395279865 0.0017530968292221233 0.009576926364573812
v 0.004903927151176013 -0.0009754423514545095 0.009459110340663627
v 0.004619396945831902 0.0019134189949640077 0.009459110340663617
v 0.004619400205460718 -0.0019134057236181382 0.009459104752728518
v 0.0038090194618382958 0.0025451025795498817 0.009576932883831442
v 0.004232357002173024 -0.00175309578148431 0.009576932883831454
v 0.004157347820852759 0.0027778524170054115 0.009459104752728502
v 0.0041573524774653516 -0.002777845432086541 0.009459110340663632
v 0.003239305029911292 0.003239306659725715 0.009576926364573808
v 0.0038090224886364816 -0.0025451016482273816 0.009576932883831457
v 0.0035355349743970256 0.0035355335774132617 0.009459110340663612
v 0.0032393080567094776 -0.0032392996748068404 0.009576926364573829
v 0.002777850787190991 0.004157346423868996 0.00945911779124376
v 0.0035355380011952114 -0.0035355326460907604 0.009459116859921266
v 0.0025451056063480536 0.003809020858822091 0.009576932883831437
v 0.0025451100301300176 -0.0038090141067338426 0.009576932883831461
v 0.0019134180636414774 0.004619393686203104 0.009459111271986127
v 0.002777856840787363 -0.00415734549254649 0.009459103821406006
v 0.0017530997396049814 0.004232353742544228 0.009576939403089067
v 0.0019134233023306451 -0.004619393220541854 0.009459103821406007
v 0.0008937228749713989 0.004493044885376252 0.009576933815153954
v 0.00175310427980226 -0.004232353276882977 0.009576937540444056
v 0.000975452363171551 0.004903927151176033 0.009459111271986127
v 0.0009754576600683764 -0.0049039206319184065 0.009459103821406007
v 1.1276140225908045e-09 0.005000002382208854 0.009459111271986126
v 0.0008937274151686778 -0.004493038831779885 0.009576925433251313
v 5.683532391295924e-09 -0.004581066504928302 0.009576931952508945
v 5.66948673889535e-09 -0.005000002382208854 0.00945910940934112
v 1.141659452946787e-09 0.004581066504928302 0.009576933815153954
v -0.0008937198481732595 0.0044930448853762565 0.009576933815153954
v -0.0009754493363734111 0.004903926685514779 0.009459111271986127
v -0.0019134150368433373 0.004619393220541854 0.009459111271986127
v -0.0017530967128068418 0.004232353276882977 0.009576927295896324
v -0.0025451032780418035 0.003809020160330214 0.009576932883831437
v -0.0027778491573766293 0.00415734549254649 0.00945911779124376
v -0.0032393027016050418 0.003239305728403212 0.009576926364573808
v -0.0035355319475988854 0.0035355326460907604 0.009459110340663612
v -0.004157346423869025 0.002777851485682913 0.009459104752728502
v -0.0038090171335320457 0.0025451016482273816 0.009576932883831442
v -0.004619396014509429 0.0019134178308108818 0.009459110340663617
v -0.0042323528112217365 0.00175309578148431 0.009576926364573812
v -0.004903924357208502 0.000975454458647253 0.00945911034066362
v -0.004493041625747462 0.0008937189168507284 0.009576938471766558
v -0.004999997725596283 -6.651876859982222e-09 0.009459104752728511
v -0.004581065573605807 -5.461057833465269e-10 0.009576926364573819
v -0.004903923891547242 -0.0009754495692040058 0.009459104752728514
v -0.004493041160086203 -0.0008937260763925694 0.009576938471766565
v -0.00461939461752565 -0.0019134189949640077 0.009459116859921261
v -0.004232351414237959 -0.0017530968292221233 0.009576926364573824
v -0.003809014805225749 -0.0025451025795498817 0.009576926364573825
v -0.004157344095562728 -0.0027778524170054115 0.00945910475272852
v -0.003239299674806856 -0.003239306659725715 0.009576926364573829
v -0.0035355298521232183 -0.0035355335774132617 0.009459110340663634
v -0.002777846130578443 -0.004157346423868996 0.009459109409341119
v -0.0025451002512436177 -0.0038090148052257193 0.00957692636457383
v -0.001753093686008656 -0.004232353742544228 0.009576931952508944
v -0.0019134120100451515 -0.004619399739799477 0.009459109409341119
v -0.0009754455528756787 -0.004903921097579662 0.009459103821406007
v -0.0008937168213750736 -0.004493044885376252 0.009576925433251313
v 5.683532391295924e-09 -0.004581066504928302 0.009576931952508945
v 5.66948673889535e-09 -0.005000002382208854 0.00945910940934112
v 0.004903923425885983 0.0009754556228003776 -0.009226820809362981
v 0.004645128921363368 5.537427293635399e-10 -0.009573066032733656
v 0.004555873765135254 0.0009062252977088694 -0.00957306603273366
v 0.004999997725596283 5.960463865390089e-10 -0.009226820809362978
v 0.00461939461752565 0.0019134189949640077 -0.009226820809362985
v 0.0049039248228697615 -0.0009754423514545095 -0.009226820809362974
v 0.0042915397542711954 0.0017776169213260375 -0.009573063238766106
v 0.004157345492546507 0.0027778524170054115 -0.009226820809362987
v 0.0038622827280073804 0.002580698657538495 -0.009573060444798553
v 0.003535532878921404 0.0035355335774132617 -0.009226823603330546
v 0.0025485203003630464 0.0013622170428185011 -0.009573060444798548
v 0.003284601996085737 0.003284604091561373 -0.00957306323876611
v 0.0027778484588847395 0.004157346423868996 -0.009226819878040473
v 0.002875822656533262 0.00028324364149212724 -0.009573063238766102
v 0.004555875162119032 -0.0009062120845706569 -0.009573063238766097
v 0.004619397877154466 -0.0019134057236181382 -0.009226820809362973
v 0.0027653084340005882 -0.0008388412030954576 -0.009573063238766099
v 0.004291542548238752 -0.001777609819991853 -0.009573060444798538
v 0.004157350149159101 -0.002777845432086541 -0.009226823603330525
v 0.0038622871517893444 -0.002580691672619623 -0.009573066032733649
v 0.0022338001114209556 -0.0018332267709963615 -0.009573060444798538
v 0.003284606419867701 -0.003284597339473128 -0.009573060444798534
v 0.00353553590571959 -0.0035355326460907604 -0.009226820809362967
v 0.002580699356030417 -0.003862281331023585 -0.009573063238766088
v 0.0027778545124811115 -0.004157339438950119 -0.00922682453465304
v 0.0019134210904397085 -0.004619393220541854 -0.009226818946717926
v 0.0013622155294194375 -0.00254851750639547 -0.009573063238766092
v 0.0017776175034026453 -0.00429153696030362 -0.009573064170088606
v 0.0009754554481774397 -0.0049039206319184065 -0.009226821740685481
v 0.0009062236096868384 -0.004555873765135233 -0.009573064170088606
v 0.00028324594069462555 -0.0028758231221944985 -0.009573063238766092
v 3.4006746720097155e-09 -0.0046451307840083824 -0.009573064170088604
v 3.4419500962135486e-09 -0.004999996328612482 -0.009226821740685481
v -0.0009754478229742728 -0.004903927151176033 -0.009226821740685481
v 0.0010830744218299922 -0.0020262867859168563 -0.009074843875465536
v -0.0009062167993908738 -0.0045558742307964875 -0.009573064170088606
v 0.0008005789233586913 -0.001497770336928663 -0.009576938471766556
v 0.0010773969633404632 0.001312813409997739 -0.00957693567779901
v 0.0014977753427872225 0.0008005809606266742 -0.009576932883831452
v 0.0004929934216096659 0.0016251851527935232 -0.009576935677799011
v 0.0013128128279211908 -0.0010773926559737939 -0.009576935677799003
v 0.0016251824752413061 -0.0004929867859367006 -0.00957693847176656
v 0.0016901319763754448 0.0001664689234693686 -0.009576938471766562
v 0.00016646455789508932 -0.0016901338390204594 -0.009576938471766556
v -0.000492994178309166 -0.0016251790991971514 -0.009576938471766556
v -0.00016646457244695722 0.0016901338390204594 -0.009576932883831454
v -0.0010773977782476205 -0.001312813409997739 -0.009576932883831445
v -0.0008005804367577379 0.0014977824441214066 -0.00957693567779901
v -0.0013128136428283482 0.0010773987095701657 -0.009576938471766565
v -0.001497777554678158 -0.0008005809606266742 -0.009576935677799003
v -0.0016251839886403528 0.0004929928395330724 -0.009576938471766563
v -0.0016901343046816953 -0.0001664689234693686 -0.009576935677799004
v -0.001777612264713431 -0.004291543479561242 -0.009573064170088606
v -0.0019134142219360882 -0.004619393686203104 -0.009226821740685481
v -0.0027778484588846944 -0.004157346423868996 -0.009226821740685483
v -0.000838845685085049 -0.0027653042430492284 -0.009573063238766092
v -0.0025806940009258875 -0.0038622817966848318 -0.009573066032733644
v -0.0032846019960856903 -0.003284604091561373 -0.00957306323876609
v -0.00353553194759884 -0.0035355335774132617 -0.009226820809362967
v -0.0018332304962864077 -0.002233796386130853 -0.009573063238766093
v -0.0038622841249911113 -0.002580698657538495 -0.009573063238766092
v -0.00415734642386898 -0.0027778524170054115 -0.009226827328620601
v -0.0025485223958386666 -0.0013622170428185011 -0.009573068826701208
v -0.004291540219932408 -0.0017776169213260375 -0.009573063238766095
v -0.004619396480170643 -0.0019134189949640077 -0.009226827328620603
v -0.004903926219853494 -0.0009754556228003776 -0.009226820809362974
v -0.0045558756277802445 -0.0009062192441124976 -0.00957306882670121
v -0.0050000000539025344 -5.960463865390029e-10 -0.009226820809362978
v -0.004645130784008359 -5.537426738523868e-10 -0.009573066032733656
v -0.004903926219853494 0.0009754484050508813 -0.009226820809362981
v -0.002875824984839512 -0.00028324364149212724 -0.009573066032733656
v -0.004555876093441504 0.0009062181963746861 -0.009573068826701217
v -0.004619398342815681 0.0019134178308108818 -0.009226820809362985
v -0.0042915420825774455 0.0017776158735882247 -0.009573063238766106
v -0.004157348286514017 0.002777851485682913 -0.009226820809362987
v -0.0027653091324924303 0.0008388472566918292 -0.009573068826701215
v -0.0038622857548055193 0.002580697726215995 -0.009573060444798553
v -0.0035355342759051367 0.0035355326460907604 -0.009226823603330546
v -0.00223379941292902 0.0018332267709963615 -0.009573066032733663
v -0.0032846040915613575 0.0032846033930694998 -0.00957306323876611
v -0.00277785148568288 0.00415734549254649 -0.009226819878040473
v -0.0021986499040881416 0.0006669525937474421 -0.009074843875465545
v -0.0025806970277240733 0.003862281331023585 -0.009573063238766112
v -0.001913417248734274 0.004619393220541854 -0.009226819878040474
v -0.001362214830927502 0.002548523559991842 -0.009573066032733665
v -0.001777614476604413 0.004291543013899992 -0.009573062307443595
v -0.0009754516064720052 0.004903926685514779 -0.009226819878040474
v -0.0017760557919539943 0.0014575715466371433 -0.009074843875465546
v -0.00028324521309886137 0.0028758231221944985 -0.009573063238766109
v -0.0009062205828886061 0.004555879818731605 -0.009573062307443597
v -1.099922176001827e-09 0.005000002382208854 -0.009226814290105363
v -0.0013128136428283482 0.0010773987095701657 -0.009576938471766565
v -0.0016251839886403528 0.0004929928395330724 -0.009576938471766563
v -0.0008005804367577379 0.0014977824441214066 -0.00957693567779901
v -0.002286519252408376 -0.00022520449523935471 -0.009074843875465541
v -0.0016901343046816953 -0.0001664689234693686 -0.009576935677799004
v -0.002026286553086202 -0.0010830733740921316 -0.00907484387546554
v -0.001497777554678158 -0.0008005809606266742 -0.009576935677799003
v -0.001457570615314598 -0.0017760541621396051 -0.009074843875465536
v -0.0010773977782476205 -0.001312813409997739 -0.009576932883831445
v -0.0006669524191244426 -0.0021986480414431246 -0.009074843875465536
v -0.000492994178309166 -0.0016251790991971514 -0.009576938471766556
v 0.00016646455789508932 -0.0016901338390204594 -0.009576938471766556
v 0.00022520389861089372 -0.0022865180882552503 -0.009074843875465534
v 0.0008005789233586913 -0.001497770336928663 -0.009576938471766556
v 0.0017760559083693534 -0.0014575654930407715 -0.009074846669433093
v 0.0013128128279211908 -0.0010773926559737939 -0.009576935677799003
v 0.002198649205596297 -0.0006669465401510703 -0.00907484387546554
v 0.0016251824752413061 -0.0004929867859367006 -0.00957693847176656
v 0.002286517855424642 0.00022519844164298292 -0.009074843875465543
v 0.0016901319763754448 0.0001664689234693686 -0.009576938471766562
v 0.0020262851561024683 0.0010830733740921316 -0.009074849463400658
v 0.0014977753427872225 0.0008005809606266742 -0.009576932883831452
v 0.0014575699168227533 0.0017760541621396051 -0.009074843875465548
v 0.0010773969633404632 0.001312813409997739 -0.00957693567779901
v 0.0004929934216096659 0.0016251851527935232 -0.009576935677799011
v 0.0018332296813792501 0.002233796386130853 -0.009573063238766107
v 0.0006669517788402549 0.0021986480414431246 -0.00907484387546555
v 0.002580694932248453 0.0038622817966848318 -0.009573063238766112
v 0.0008388456850850954 0.0027653042430492284 -0.009573063238766109
v -0.00022520304004790273 0.0022865180882552503 -0.009074849463400663
v -0.00016646457244695722 0.0016901338390204594 -0.009576932883831454
v 0.0017776129632053664 0.004291543479561242 -0.009573062307443595
v 0.0019134157353352258 0.004619393686203104 -0.009226819878040474
v 0.0009754501512806143 0.004903927151176033 -0.009226819878040474
v 0.0009062190694895596 0.00455588028439286 -0.009573062307443597
v -1.1411981553171254e-09 0.0046451307840083824 -0.009573062307443597
v -0.001083074305414633 0.0020262867859168563 -0.009074843875465548
v 0.0027778486917153632 0.004157346423868996 -0.006880095281408378
v 0.0019134180636414774 0.004619393686203104 0.009459111271986127
v 0.002777850787190991 0.004157346423868996 0.00945911779124376
v 0.0020687078281534134 0.0038702816242901466 -0.007542714955345051
v 0.00339232923598109 0.0027840170735875577 -0.008433682338021817
v 0.0020687078281534156 0.0038702816242901466 -0.00843368233802182
v 0.0035355349743970256 0.0035355335774132617 0.009459110340663612
v 0.003392329235981088 0.0027840170735875577 -0.007542714955345048
v 0.0035355331117520273 0.0035355335774132617 -0.006880095281408375
v 0.004157347820852759 0.0027778524170054115 0.009459104752728502
v 0.004199499012389537 0.00127391102065229 -0.007542712627038746
v 0.0041573459582077595 0.0027778524170054115 -0.006880095281408373
v 0.004619396480170682 0.0019134189949640077 -0.006880098541037186
v 0.004619396945831902 0.0019134189949640077 0.009459110340663617
v 0.00419949854672828 0.0012739049670559184 -0.008433688857279444
v 0.004903923891547236 0.0009754556228003776 -0.006880095747069627
v 0.004903925754192235 0.0009754556228003776 0.00945911034066362
v 0.0050000000539025344 5.960463865390028e-10 0.009459104752728511
v 0.004367334506136011 -0.0004301390760005552 -0.007542718680635112
v 0.004999998191257536 5.960463865390077e-10 -0.006880095747069623
v 0.004903925288531014 -0.0009754423514545095 -0.006880098541037176
v 0.004903927151176013 -0.0009754423514545095 0.009459110340663627
v 0.004619400205460718 -0.0019134057236181382 0.009459104752728518
v 0.004367334506136014 -0.0004301390760005552 -0.008433686063311881
v 0.00461939787715446 -0.0019134057236181382 -0.006880098541037174
v 0.004999997725596281 6.651876859982222e-09 -0.008524959395438098
v 0.0038702841854270963 -0.002068701541726403 -0.007542719146296366
v 0.0041573501491590946 -0.002777845432086541 -0.006880096212730874
v 0.0041573524774653516 -0.002777845432086541 0.009459110340663632
v 0.0027840166079263246 -0.003392324579368483 -0.007542715886667547
v 0.0035355361385502136 -0.0035355326460907604 -0.006880096212730872
v 0.0035355380011952114 -0.0035355326460907604 0.009459116859921266
v 0.002777856840787363 -0.00415734549254649 0.009459103821406006
v 0.002777854745311735 -0.00415734549254649 -0.006880102266327241
v 0.0019134213232703326 -0.004619393220541854 -0.006880096212730868
v 0.0019134233023306451 -0.004619393220541854 0.009459103821406007
v 0.0012739081102694475 -0.004199494355776928 -0.007542719146296359
v 0.0009754557392157212 -0.0049039206319184065 -0.006880096212730867
v 0.0009754576600683764 -0.0049039206319184065 0.009459103821406007
v 3.721701851034538e-09 -0.005000002382208854 -0.006880092953102051
v 5.66948673889535e-09 -0.005000002382208854 0.00945910940934112
v -0.00043014201548722603 -0.004367337765764807 -0.007542715886667543
v -0.0004301421027987101 -0.004367331712168436 -0.008433689788601944
v 0.002784016375095697 -0.003392324579368483 -0.008433682338021796
v 0.0012739081102694496 -0.004199494355776928 -0.008433689788601944
v 0.0009754555063850954 -0.0049039206319184065 -0.008524960326760601
v 3.525618717072588e-09 -0.004999996328612482 -0.008524957532793044
v 3.4419500962135486e-09 -0.004999996328612482 -0.009226821740685481
v 0.0009754554481774397 -0.0049039206319184065 -0.009226821740685481
v 0.0019134210904397085 -0.004619393220541854 -0.009226818946717926
v 0.0019134212068550216 -0.004619393220541854 -0.008524960326760601
v 0.002777854745311739 -0.00415734549254649 -0.008524957532793047
v 0.0027778545124811115 -0.004157339438950119 -0.00922682453465304
v 0.00353553590571959 -0.0035355326460907604 -0.009226820809362967
v 0.003535535905719588 -0.0035355265924943884 -0.008524959395438087
v 0.004157350149159101 -0.002777845432086541 -0.009226823603330525
v 0.004157350149159099 -0.0027778393784901696 -0.008524956601470533
v 0.004619397877154466 -0.0019134057236181382 -0.009226820809362973
v 0.0038702841854270985 -0.002068701541726403 -0.008433688857279431
v 0.004619397877154464 -0.0019134057236181382 -0.008524956601470535
v 0.00490392482286976 -0.0009754423514545095 -0.008524962189405651
v 0.0049039248228697615 -0.0009754423514545095 -0.009226820809362974
v 0.004999997725596283 5.960463865390089e-10 -0.009226820809362978
v -0.004903925754192236 -0.0009754556228003776 -0.008524959395438094
v -0.0050000000539025344 -5.960463865390029e-10 -0.009226820809362978
v -0.004903926219853494 -0.0009754556228003776 -0.009226820809362974
v -0.004367334971797232 0.000430145129596927 -0.008433686063311885
v -0.0038702830212739114 0.002068707595322775 -0.007542712161377489
v -0.0038702830212739093 0.002068707595322775 -0.008433688857279445
v -0.0027840140467893593 0.003392324579368483 -0.008433682338021819
v -0.004619396480170645 -0.0019134189949640077 -0.008524959395438092
v -0.004619396480170643 -0.0019134189949640077 -0.009226827328620603
v -0.004199500875034535 -0.00127391102065229 -0.008433682338021803
v -0.004157346889530241 -0.0027778524170054115 -0.008524962189405644
v -0.00415734642386898 -0.0027778524170054115 -0.009226827328620601
v -0.00353553194759884 -0.0035355335774132617 -0.009226820809362967
v -0.0035355319475988416 -0.0035355335774132617 -0.008524962189405643
v -0.0027778484588846944 -0.004157346423868996 -0.009226821740685483
v -0.0033923297016423084 -0.0027840170735875577 -0.008433686063311874
v -0.002777848458884696 -0.004157346423868996 -0.00852496312072816
v -0.0019134142219360882 -0.004619393686203104 -0.009226821740685481
v -0.002068706896830856 -0.0038702816242901466 -0.008433682338021796
v -0.001913414105520775 -0.004619399739799477 -0.008524963120728158
v -0.0009754478229742728 -0.004903927151176033 -0.009226821740685481
v -0.0009754477065589596 -0.004903927151176033 -0.008524963120728157
v 3.4419500962135486e-09 -0.004999996328612482 -0.009226821740685481
v 3.525618717072588e-09 -0.004999996328612482 -0.008524957532793044
v -0.0004301421027987101 -0.004367331712168436 -0.008433689788601944
v -0.00043014201548722603 -0.004367337765764807 -0.007542715886667543
v -0.0033923294688116812 -0.0027840170735875577 -0.007542719146296364
v -0.0020687066640002285 -0.0038702816242901466 -0.00754271914629636
v -0.0009754475319359914 -0.004903927151176033 -0.006880096212730867
v 3.721701851034538e-09 -0.005000002382208854 -0.006880092953102051
v -0.0009754455528756787 -0.004903921097579662 0.009459103821406007
v 5.66948673889535e-09 -0.005000002382208854 0.00945910940934112
v -0.0019134138726901492 -0.004619399739799477 -0.006880096212730868
v -0.0019134120100451515 -0.004619399739799477 0.009459109409341119
v -0.0027778482260540707 -0.004157346423868996 -0.00688009621273087
v -0.002777846130578443 -0.004157346423868996 0.009459109409341119
v -0.0035355298521232183 -0.0035355335774132617 0.009459110340663634
v -0.0035355317147682166 -0.0035355335774132617 -0.006880102266327243
v -0.004157346889530246 -0.0027778524170054115 -0.006880096212730874
v -0.004157344095562728 -0.0027778524170054115 0.00945910475272852
v -0.004199500875034538 -0.00127391102065229 -0.007542718680635109
v -0.004619396480170649 -0.0019134189949640077 -0.006880095747069617
v -0.00461939461752565 -0.0019134189949640077 0.009459116859921261
v -0.004903923891547242 -0.0009754495692040058 0.009459104752728514
v -0.004367334971797234 0.0004301390760005552 -0.007542718680635115
v -0.004903925754192241 -0.0009754556228003776 -0.006880095747069621
v -0.004999999588241282 -5.96046386539004e-10 -0.006880095747069623
v -0.004999997725596283 -6.651876859982222e-09 0.009459104752728511
v -0.0049039262198535 0.0009754484050508813 -0.006880098541037183
v -0.004903924357208502 0.000975454458647253 0.00945911034066362
v -0.004619398342815687 0.0019134178308108818 -0.006880098541037186
v -0.004619396014509429 0.0019134178308108818 0.009459110340663617
v -0.004157346423869025 0.002777851485682913 0.009459104752728502
v -0.004157347355191505 0.002777851485682913 -0.006880095281408373
v -0.002784013813958732 0.0033923306329648544 -0.007542712161377493
v -0.003535534043074513 0.0035355326460907604 -0.006880095281408375
v -0.0035355319475988854 0.0035355326460907604 0.009459110340663612
v -0.002777850321529738 0.00415734549254649 -0.006880095281408378
v -0.0027778491573766293 0.00415734549254649 0.00945911779124376
v -0.0019134150368433373 0.004619393220541854 0.009459111271986127
v -0.0012739046178099657 0.004199500409373299 -0.007542712161377496
v -0.0012739047342252784 0.004199506462969672 -0.008433685131989378
v -0.0019134168994883352 0.004619399274138227 -0.0068800952814083785
v 0.0004301438781323023 0.004367331712168436 -0.008433681406699303
v -0.0009754513154337237 0.0049039206319184065 -0.00688009528140838
v -0.0009754493363734111 0.004903926685514779 0.009459111271986127
v 0.000430143994547615 0.004367337765764807 -0.007542714955345053
v -8.201710873145962e-10 0.005000002382208854 -0.006880092021779564
v 1.1276140225908045e-09 0.005000002382208854 0.009459111271986126
v 0.000975452363171551 0.004903927151176033 0.009459111271986127
v 0.0009754504423188958 0.004903921097579662 -0.00688009528140838
v 0.0019134160845811646 0.004619393686203104 -0.006880098075375935
v 0.004903923425885983 0.0009754556228003776 -0.009226820809362981
v 0.004903923425885981 0.0009754556228003776 -0.008524959395438101
v 0.00461939461752565 0.0019134189949640077 -0.009226820809362985
v 0.004619396480170687 0.0019134189949640077 -0.008524956601470547
v 0.004157345492546505 0.0027778524170054115 -0.008524962189405664
v 0.004157345492546507 0.0027778524170054115 -0.009226820809362987
v 0.003535532878921404 0.0035355335774132617 -0.009226823603330546
v 0.0035355328789214023 0.0035355335774132617 -0.008524956601470552
v 0.0027778484588847395 0.004157346423868996 -0.009226819878040473
v 0.0027778486917153676 0.004157346423868996 -0.008524958464115592
v 0.0019134157353352258 0.004619393686203104 -0.009226819878040474
v 0.001913415851750539 0.004619393686203104 -0.008524951944857962
v 0.0009754502094882701 0.004903927151176033 -0.008524958464115594
v 0.0009754501512806143 0.004903927151176033 -0.009226819878040474
v -1.099922176001827e-09 0.005000002382208854 -0.009226814290105363
v -1.016254110254253e-09 0.005000002382208854 -0.008524955670148038
v -0.000975451490056692 0.004903926685514779 -0.008524958464115594
v -0.0009754516064720052 0.004903926685514779 -0.009226819878040474
v -0.001913417248734274 0.004619393220541854 -0.009226819878040474
v -0.0019134171323189608 0.004619393220541854 -0.008524958464115594
v -0.00277785148568288 0.00415734549254649 -0.009226819878040473
v -0.002777851485682882 0.00415734549254649 -0.008524958464115592
v -0.0035355342759051367 0.0035355326460907604 -0.009226823603330546
v -0.0035355342759051385 0.0035355326460907604 -0.008524956601470552
v -0.004157348286514017 0.002777851485682913 -0.009226820809362987
v -0.004157348286514019 0.002777851485682913 -0.00852495660147055
v -0.004619398342815681 0.0019134178308108818 -0.009226820809362985
v -0.004619398342815682 0.0019134178308108818 -0.008524956601470547
v -0.004903926219853496 0.000975454458647253 -0.008524962189405657
v -0.004903926219853494 0.0009754484050508813 -0.009226820809362981
v -0.0049999995882412775 -5.96046386539004e-10 -0.008524952876180467
v -0.002149099122309423 -0.004020684157469659 -0.0062463293760859
v -0.004020686951437205 0.0021490986566481884 -0.006246328444763401
v -0.004537055462321634 0.0004468591964909114 -0.006246328910424655
v -0.00436269838263771 -0.0013234115110150038 -0.0062463289104246495
v -0.0035241595683225607 -0.0028922106732341703 -0.006246329376085904
v -0.00044685745026116255 -0.004537058721950463 -0.006246329376085899
v 0.0013234139557366412 -0.004362698848298987 -0.006246323322489527
v -0.0028922041539765323 0.0035241600339838424 -0.00624632518513459
v 0.002892207180774749 -0.0035241600339838424 -0.006246329376085902
v -0.001323410114031221 0.004362698848298987 -0.006246328444763408
v 0.004020686951437234 -0.002149092603051817 -0.006246332170053462
v 0.0004468605061632075 0.004537058721950463 -0.006246322391167037
v 0.002149100752123861 0.004020684157469659 -0.006246328444763407
v 0.0045370554623216635 -0.0004468531428945396 -0.006246328910424652
v 0.00436269745131522 0.0013234115110150038 -0.006246325650795842
v 0.00352416026681448 0.0028922046196377983 -0.006246328444763404
v 0.0045370554623216635 -0.0004468531428945396 -0.006246328910424652
v 0.004581068367573316 5.461058388576674e-10 0.009576926364573819
v 0.00436269745131522 0.0013234115110150038 -0.006246325650795842
v 0.004493043488392453 0.0008937260763925694 0.009576926364573815
v 0.00449304535103749 -0.0008937128632543566 0.00957692636457382
v 0.0042323551395279865 0.0017530968292221233 0.009576926364573812
v 0.004020686951437234 -0.002149092603051817 -0.006246332170053462
v 0.004232357002173024 -0.00175309578148431 0.009576932883831454
v 0.0038090224886364816 -0.0025451016482273816 0.009576932883831457
v 0.00352416026681448 0.0028922046196377983 -0.006246328444763404
v 0.0038090194618382958 0.0025451025795498817 0.009576932883831442
v 0.003239305029911292 0.003239306659725715 0.009576926364573808
v 0.0025451056063480536 0.003809020858822091 0.009576932883831437
v 0.002149100752123861 0.004020684157469659 -0.006246328444763407
v 0.0017530997396049814 0.004232353742544228 0.009576939403089067
v 0.0008937228749713989 0.004493044885376252 0.009576933815153954
v 0.0004468605061632075 0.004537058721950463 -0.006246322391167037
v 1.141659452946787e-09 0.004581066504928302 0.009576933815153954
v -0.001323410114031221 0.004362698848298987 -0.006246328444763408
v -0.0008937198481732595 0.0044930448853762565 0.009576933815153954
v -0.0017530967128068418 0.004232353276882977 0.009576927295896324
v -0.0028922041539765323 0.0035241600339838424 -0.00624632518513459
v -0.0025451032780418035 0.003809020160330214 0.009576932883831437
v -0.0032393027016050418 0.003239305728403212 0.009576926364573808
v -0.0038090171335320457 0.0025451016482273816 0.009576932883831442
v -0.004020686951437205 0.0021490986566481884 -0.006246328444763401
v -0.0042323528112217365 0.00175309578148431 0.009576926364573812
v -0.004493041625747462 0.0008937189168507284 0.009576938471766558
v -0.004537055462321634 0.0004468591964909114 -0.006246328910424655
v -0.004581065573605807 -5.461057833465269e-10 0.009576926364573819
v -0.00436269838263771 -0.0013234115110150038 -0.0062463289104246495
v -0.004493041160086203 -0.0008937260763925694 0.009576938471766565
v -0.004232351414237959 -0.0017530968292221233 0.009576926364573824
v -0.0035241595683225607 -0.0028922106732341703 -0.006246329376085904
v -0.003809014805225749 -0.0025451025795498817 0.009576926364573825
v -0.003239299674806856 -0.003239306659725715 0.009576926364573829
v -0.0025451002512436177 -0.0038090148052257193 0.00957692636457383
v -0.002149099122309423 -0.004020684157469659 -0.0062463293760859
v -0.001753093686008656 -0.004232353742544228 0.009576931952508944
v -0.0008937168213750736 -0.004493044885376252 0.009576925433251313
v -0.00044685745026116255 -0.004537058721950463 -0.006246329376085899
v 5.683532391295924e-09 -0.004581066504928302 0.009576931952508945
v -0.00044685745026116255 -0.004537058721950463 -0.006246329376085899
v 5.683532391295924e-09 -0.004581066504928302 0.009576931952508945
v 0.0013234139557366412 -0.004362698848298987 -0.006246323322489527
v 0.0008937274151686778 -0.004493038831779885 0.009576925433251313
v 0.00175310427980226 -0.004232353276882977 0.009576937540444056
v 0.002892207180774749 -0.0035241600339838424 -0.006246329376085902
v 0.0025451100301300176 -0.0038090141067338426 0.009576932883831461
v 0.0032393080567094776 -0.0032392996748068404 0.009576926364573829
vt 0.28116703 0.37324136
vt 0.25080112 0.35441145
vt 0.25080112 0.37324136
vt 0.28116703 0.35441145
vt 0.22046572 0.35441145
vt 0.31150243 0.35441145
vt 0.22046572 0.37324136
vt 0.31150243 0.37324136
vt 0.19013031 0.37324136
vt 0.34183782 0.35441145
vt 0.19013031 0.35441145
vt 0.34183782 0.37324136
vt 0.15979491 0.37324136
vt 0.37217322 0.35441145
vt 0.15979491 0.35441145
vt 0.37217322 0.37324136
vt 0.12945952 0.35441145
vt 0.40250862 0.37324136
vt 0.12945952 0.37324136
vt 0.40250862 0.35441145
vt 0.09912412 0.35441145
vt 0.432844 0.37324136
vt 0.09912412 0.37324136
vt 0.432844 0.35441145
vt 0.06878872 0.37324136
vt 0.4631794 0.35441145
vt 0.06878872 0.35441145
vt 0.4631794 0.37324136
vt 0.038453322 0.37324136
vt 0.4935148 0.37324136
vt 0.038453322 0.35441145
vt 0.0081179235 0.35441145
vt 0.0081179235 0.37324136
vt 0.4935148 0.35441145
vt 0.5238502 0.35441145
vt 0.5238502 0.37324136
vt 0.5541856 0.37324136
vt 0.5541856 0.35441145
vt 0.584521 0.35441145
vt 0.584521 0.37324136
vt 0.6148564 0.35441145
vt 0.6148564 0.37324136
vt 0.6452223 0.37324136
vt 0.6452223 0.35441145
vt 0.67555773 0.37324136
vt 0.67555773 0.35441145
vt 0.7058931 0.37324136
vt 0.7058931 0.35441145
vt 0.7362285 0.37324136
vt 0.7362285 0.35441145
vt 0.7665639 0.37324136
vt 0.7665639 0.35441145
vt 0.7968993 0.37324136
vt 0.7968993 0.35441145
vt 0.82723475 0.35441145
vt 0.82723475 0.37324136
vt 0.8575701 0.35441145
vt 0.8575701 0.37324136
vt 0.88790554 0.37324136
vt 0.88790554 0.35441145
vt 0.9182409 0.35441145
vt 0.9182409 0.37324136
vt 0.94860685 0.37324136
vt 0.94860685 0.35441145
vt 0.9789422 0.35441145
vt 0.9789422 0.37324136
vt 0.6585284 0.12622456
vt 0.6679281 0.15918455
vt 0.6738182 0.13095492
vt 0.65202796 0.15753655
vt 0.6710105 0.096804716
vt 0.6517838 0.18948942
vt 0.6850795 0.10443434
vt 0.6890164 0.07037568
vt 0.70131534 0.08059938
vt 0.7118137 0.047975097
vt 0.73867 0.123416856
vt 0.72188485 0.060365614
vt 0.7385479 0.030426955
vt 0.7246925 0.15619373
vt 0.6677145 0.18799402
vt 0.65776545 0.22089297
vt 0.72438735 0.19180883
vt 0.67308575 0.2163152
vt 0.6697592 0.25052646
vt 0.68388927 0.24304941
vt 0.73772395 0.22482985
vt 0.69972837 0.26715904
vt 0.68730736 0.27726066
vt 0.7199622 0.287698
vt 0.70973843 0.30002746
vt 0.736198 0.3180334
vt 0.76274914 0.2502823
vt 0.7437971 0.30393383
vt 0.76564837 0.33048493
vt 0.7703787 0.31519517
vt 0.7956175 0.26422927
vt 0.7986389 0.32108524
vt 0.7969909 0.33698538
vt 0.82897425 0.33726004
vt 0.7761467 0.23075046
vt 0.8274789 0.32132939
vt 0.59004486 0.10101627
vt 0.5901669 0.025360882
vt 0.57747126 0.03790399
vt 0.606769 0.01861629
vt 0.5774102 0.08844264
vt 0.57060456 0.07208472
vt 0.57060456 0.054322947
vt 0.60661644 0.107852414
vt 0.6245613 0.10791345
vt 0.6247139 0.018677328
vt 0.64116335 0.101168856
vt 0.6412854 0.025513474
vt 0.6539201 0.0380871
vt 0.6538591 0.08862575
vt 0.6607257 0.05447554
vt 0.6607257 0.07223731
vt 0.85583055 0.31592762
vt 0.86040837 0.3312784
vt 0.89007235 0.31928465
vt 0.8313242 0.26456496
vt 0.8825953 0.30512404
vt 0.9067354 0.28931546
vt 0.9168065 0.3017365
vt 0.8644673 0.25125888
vt 0.9272744 0.26911223
vt 0.93960387 0.27933592
vt 0.8899503 0.22629474
vt 0.94354075 0.24527726
vt 0.9576098 0.2529069
vt 0.97006136 0.22348705
vt 0.9548021 0.21875668
vt 0.9765618 0.19217506
vt 0.96066165 0.19052705
vt 0.97683644 0.16022217
vt 0.9038972 0.19351786
vt 0.9609058 0.16171758
vt 0.9708548 0.12881863
vt 0.9555345 0.1333964
vt 0.95886105 0.099185154
vt 0.9042329 0.15790276
vt 0.9447005 0.10666219
vt 0.9413129 0.07245094
vt 0.8908658 0.124881744
vt 0.9288919 0.08255257
vt 0.91885126 0.049684133
vt 0.8810083 0.16220587
vt 0.9086581 0.06201361
vt 0.89242226 0.031678215
vt 0.86587113 0.0994293
vt 0.88482314 0.045777764
vt 0.8629414 0.019226661
vt 0.8710593 0.13776055
vt 0.8330027 0.085482344
vt 0.8582415 0.034516435
vt 0.8316294 0.012726218
vt 0.8525651 0.1496933
vt 0.8593707 0.16605121
vt 0.8398999 0.13711967
vt 0.8808252 0.18857387
vt 0.8593707 0.18381298
vt 0.87051 0.2128666
vt 0.852504 0.20023194
vt 0.851619 0.23139134
vt 0.83980834 0.21274453
vt 0.8270516 0.24127933
vt 0.82320625 0.21948913
vt 0.8052614 0.21942808
vt 0.80056155 0.2410352
vt 0.78868985 0.21259193
vt 0.75756097 0.21195105
vt 0.77605516 0.20001832
vt 0.74761194 0.18750572
vt 0.76921904 0.18366039
vt 0.74779505 0.16113773
vt 0.76921904 0.16589862
vt 0.7581103 0.136845
vt 0.7761162 0.14947966
vt 0.77700126 0.118320264
vt 0.7888119 0.13696708
vt 0.80541396 0.13022248
vt 0.76415294 0.09845271
vt 0.8015686 0.10843226
vt 0.74602497 0.04458754
vt 0.7972655 0.08514664
vt 0.8280587 0.10867641
vt 0.8233589 0.13028352
vt 0.7727592 0.033753473
vt 0.7682119 0.01843318
vt 0.79961544 0.012451552
vt 0.80111086 0.028382214
vt 0.8299814 0.028626362
vt 0.8524735 0.11896115
vt 0.3932005 0.89367354
vt 0.42631307 0.37507248
vt 0.39594713 0.37507248
vt 0.40733054 0.92123175
vt 0.3495285 0.94967496
vt 0.40711692 0.94967496
vt 0.3655507 0.37507248
vt 0.3497116 0.92123175
vt 0.36451307 0.89367354
vt 0.33576465 0.37507248
vt 0.29197058 0.92123175
vt 0.33564258 0.89367354
vt 0.30658895 0.89367354
vt 0.30661947 0.37507248
vt 0.29187903 0.94967496
vt 0.27759635 0.89367354
vt 0.27759635 0.37507248
vt 0.2486343 0.37507248
vt 0.23416853 0.92123175
vt 0.2486343 0.89367354
vt 0.21967223 0.89367354
vt 0.21964172 0.37507248
vt 0.1906186 0.37507248
vt 0.23416853 0.94967496
vt 0.19067965 0.89367354
vt 0.24860378 0.9683218
vt 0.17645802 0.92123175
vt 0.16162603 0.89367354
vt 0.16147344 0.37507248
vt 0.11905271 0.92123175
vt 0.1329081 0.89367354
vt 0.13129063 0.37507248
vt 0.10022279 0.37507248
vt 0.10440382 0.89367354
vt 0.07562487 0.89367354
vt 0.069093905 0.37507248
vt 0.062288277 0.92123175
vt 0.046449173 0.89367354
vt 0.037965026 0.37507248
vt 0.016235847 0.89367354
vt 0.006836146 0.37507248
vt 0.007080294 0.92123175
vt 0.0066225166 0.94967496
vt 0.11893063 0.94967496
vt 0.061891537 0.94967496
vt 0.045625173 0.9683218
vt 0.015411847 0.9683218
vt 0.013214515 0.99050874
vt 0.04397717 0.99050874
vt 0.07428205 0.99050874
vt 0.07498398 0.9683218
vt 0.104159676 0.9683218
vt 0.10397656 0.99050874
vt 0.13312174 0.99050874
vt 0.13315226 0.9683218
vt 0.16205329 0.99050874
vt 0.1620838 0.9683218
vt 0.1909238 0.99050874
vt 0.17648853 0.94967496
vt 0.1909238 0.9683218
vt 0.21976379 0.9683218
vt 0.21976379 0.99050874
vt 0.24860378 0.99050874
vt 0.7372051 0.9683218
vt 0.70854825 0.99050874
vt 0.7371746 0.99050874
vt 0.6945708 0.94967496
vt 0.63753164 0.92123175
vt 0.6371654 0.94967496
vt 0.5796991 0.94967496
vt 0.76598406 0.9683218
vt 0.76561785 0.99050874
vt 0.7520371 0.94967496
vt 0.79482406 0.9683218
vt 0.7941527 0.99050874
vt 0.8231452 0.99050874
vt 0.8236946 0.9683218
vt 0.85277873 0.99050874
vt 0.8094729 0.94967496
vt 0.85277873 0.9683218
vt 0.88317513 0.99050874
vt 0.866451 0.94967496
vt 0.8820765 0.9683218
vt 0.9145787 0.99050874
vt 0.9118015 0.9683218
vt 0.94570756 0.99050874
vt 0.9418622 0.9683218
vt 0.9220252 0.94967496
vt 0.9223609 0.92123175
vt 0.8098697 0.92123175
vt 0.86669517 0.92123175
vt 0.91256446 0.89367354
vt 0.943083 0.89367354
vt 0.9483017 0.37507248
vt 0.9794 0.37507248
vt 0.882931 0.89367354
vt 0.9171728 0.37507248
vt 0.8539384 0.89367354
vt 0.8860744 0.37507248
vt 0.8550066 0.37507248
vt 0.8251289 0.89367354
vt 0.79641104 0.89367354
vt 0.82399976 0.37507248
vt 0.7525559 0.92123175
vt 0.76763207 0.89367354
vt 0.793115 0.37507248
vt 0.7622608 0.37507248
vt 0.6951506 0.92123175
vt 0.7388531 0.89367354
vt 0.70998263 0.89367354
vt 0.73146766 0.37507248
vt 0.6811426 0.89367354
vt 0.7007355 0.37507248
vt 0.6523942 0.89367354
vt 0.6700949 0.37507248
vt 0.6394848 0.37507248
vt 0.62355417 0.89367354
vt 0.57997376 0.92123175
vt 0.59477526 0.89367354
vt 0.60893583 0.37507248
vt 0.5659963 0.89367354
vt 0.5784478 0.37507248
vt 0.54795986 0.37507248
vt 0.5224769 0.92123175
vt 0.5221717 0.94967496
vt 0.5372173 0.89367354
vt 0.4646443 0.94967496
vt 0.50840783 0.89367354
vt 0.5175329 0.37507248
vt 0.46491897 0.92123175
vt 0.47959837 0.89367354
vt 0.48710594 0.37507248
vt 0.4567095 0.37507248
vt 0.4507584 0.89367354
vt 0.42197943 0.89367354
vt 0.27744377 0.99050874
vt 0.27744377 0.9683218
vt 0.30625325 0.99050874
vt 0.30625325 0.9683218
vt 0.3350322 0.9683218
vt 0.3350322 0.99050874
vt 0.36378065 0.99050874
vt 0.36381117 0.9683218
vt 0.39249855 0.99050874
vt 0.3925901 0.9683218
vt 0.42118594 0.99050874
vt 0.42133853 0.9683218
vt 0.45008698 0.9683218
vt 0.44990388 0.99050874
vt 0.47859126 0.99050874
vt 0.4788354 0.9683218
vt 0.50755334 0.9683218
vt 0.5072787 0.99050874
vt 0.53599656 0.99050874
vt 0.5363018 0.9683218
vt 0.564745 0.99050874
vt 0.5650502 0.9683218
vt 0.59361553 0.99050874
vt 0.59379864 0.9683218
vt 0.62245554 0.99050874
vt 0.62248605 0.9683218
vt 0.6511734 0.99050874
vt 0.6511734 0.9683218
vt 0.67986083 0.9683218
vt 0.67986083 0.99050874
vt 0.70854825 0.9683218
vt 0.029267251 0.08844264
vt 0.051484726 0.104525894
vt 0.048860133 0.0974456
vt 0.043702506 0.09189123
vt 0.03683584 0.088717304
vt 0.022156438 0.09106723
vt 0.01660207 0.09622486
vt 0.05121006 0.112094484
vt 0.013428144 0.10312204
vt 0.048066653 0.118991666
vt 0.013153478 0.11069063
vt 0.042512283 0.1241493
vt 0.03540147 0.1267739
vt 0.01577807 0.11780145
vt 0.020935697 0.12335581
vt 0.02783288 0.12649922
vt 0.040559098 0.0097354045
vt 0.042451248 0.07715079
vt 0.04815821 0.0097354045
vt 0.04626606 0.07715079
vt 0.038666952 0.07715079
vt 0.050050355 0.07715079
vt 0.03295999 0.0097354045
vt 0.03485214 0.07715079
vt 0.031067843 0.07715079
vt 0.055757318 0.0097354045
vt 0.05386517 0.07715079
vt 0.057649463 0.07715079
vt 0.06146428 0.07715079
vt 0.06335643 0.0097354045
vt 0.06524857 0.07715079
vt 0.06906339 0.07715079
vt 0.07095554 0.0097354045
vt 0.07284768 0.07715079
vt 0.078554645 0.0097354045
vt 0.076662496 0.07715079
vt 0.080446795 0.07715079
vt 0.08615375 0.0097354045
vt 0.0842616 0.07715079
vt 0.0880459 0.07715079
vt 0.09186071 0.07715079
vt 0.09375286 0.0097354045
vt 0.09564501 0.07715079
vt 0.09945982 0.07715079
vt 0.10135197 0.0097354045
vt 0.10324412 0.07715079
vt 0.10895108 0.0097354045
vt 0.107058935 0.07715079
vt 0.11084323 0.07715079
vt 0.116550185 0.0097354045
vt 0.11465804 0.07715079
vt 0.11847285 0.07715079
vt 0.12228767 0.07715079
vt 0.124118775 0.0097354045
vt 0.126133 0.07715079
vt 0.12994781 0.07715079
vt 0.13171789 0.0097354045
vt 0.13376263 0.07715079
vt 0.010223701 0.0097354045
vt 0.011932737 0.07715079
vt 0.017792292 0.0097354045
vt 0.01577807 0.07715079
vt 0.019592883 0.07715079
vt 0.025360882 0.0097354045
vt 0.023407698 0.07715079
vt 0.02725303 0.07715079
vn 0.26658119151893445 0.051313635608314825 0.9624453801614462
vn 0.2702560858697451 -0.0012064575425118804 0.9627873915926469
vn 0.2702560858697451 -0.0012064575425118804 0.9627873915926469
vn 0.26658119151893445 0.051313635608314825 0.9624453801614462
vn 0.2657031555494303 -0.05389254961907809 0.9625471252839735
vn 0.25064618871755784 0.10154365883963047 0.9627382773682984
vn 0.2657031555494303 -0.05389254961907809 0.9625471252839735
vn 0.25064618871755784 0.10154365883963047 0.9627382773682984
vn 0.24968406550048208 -0.10424941152686537 0.9626991767236726
vn 0.22650115323045378 0.15056442311029858 0.9623030442782624
vn 0.24968406550048208 -0.10424941152686537 0.9626991767236726
vn 0.22650115323045378 0.15056442311029858 0.9623030442782624
vn 0.22497488698558873 -0.1504192858089798 0.9626836199123197
vn 0.19088943647410578 0.1935223820921166 0.962346078829208
vn 0.22497488698558873 -0.1504192858089798 0.9626836199123197
vn 0.19088943647410578 0.1935223820921166 0.962346078829208
vn 0.19201132993191575 -0.19069616842502046 0.962686957772227
vn 0.15056445291261739 0.22650118303277636 0.9623030442782622
vn 0.19201132993191575 -0.19069616842502046 0.962686957772227
vn 0.15056445291261739 0.22650118303277636 0.9623030442782622
vn 0.14909653961148625 -0.22626046968929447 0.9625880736724778
vn 0.10415384293527981 0.24816890062004243 0.9631011504239182
vn 0.14909653961148625 -0.22626046968929447 0.9625880736724778
vn 0.10415384293527981 0.24816890062004243 0.9631011504239182
vn 0.10294306405628165 -0.2509235589153805 0.9625174421726569
vn 0.05384543960078736 0.264218821169651 0.9629582780989638
vn 0.10294306405628165 -0.2509235589153805 0.9625174421726569
vn 0.05384543960078736 0.264218821169651 0.9629582780989638
vn 0.052625194759708775 -0.26688517518905236 0.9622901696757648
vn 0.0012054740659291027 0.26882476981831255 0.9631881135954277
vn 0.052625194759708775 -0.26688517518905236 0.9622901696757648
vn -1.1175872559686712e-08 -0.27137414972936036 0.9624735731567344
vn -1.1175872559686712e-08 -0.27137414972936036 0.9624735731567344
vn 0.0012054740659291027 0.26882476981831255 0.9631881135954277
vn -0.05384554763420421 0.2642187019603689 0.9629583973082463
vn -0.05384554763420421 0.2642187019603689 0.9629583973082463
vn -0.10415377588006312 0.24816893042236354 0.963101090819277
vn -0.10415377588006312 0.24816893042236354 0.963101090819277
vn -0.15056442311030144 0.22650118303277708 0.962302984673621
vn -0.15056442311030144 0.22650118303277708 0.962302984673621
vn -0.19088940667178983 0.19352235228979695 0.9623460192245669
vn -0.19088940667178983 0.19352235228979695 0.9623460192245669
vn -0.22650125753858055 0.15056433370333785 0.9623031038829036
vn -0.22650125753858055 0.15056433370333785 0.9623031038829036
vn -0.25064612911292133 0.1015437780489141 0.9627382773682984
vn -0.25064612911292133 0.1015437780489141 0.9627382773682984
vn -0.2665810425073361 0.05131375481759851 0.9624454993707287
vn -0.2665810425073361 0.05131375481759851 0.9624454993707287
vn -0.2702561454743909 -0.0012065171471517683 0.9627875108019293
vn -0.2702561454743909 -0.0012065171471517683 0.9627875108019293
vn -0.26570312574711435 -0.053892609223718003 0.9625471848886146
vn -0.26570312574711435 -0.053892609223718003 0.9625471848886146
vn -0.24968402079700586 -0.10424941152686416 0.9626990575143901
vn -0.24968402079700586 -0.10424941152686416 0.9626990575143901
vn -0.22497491678791398 -0.15041934541361993 0.9626835603076785
vn -0.22497491678791398 -0.15041934541361993 0.9626835603076785
vn -0.19201135973424102 -0.19069619822734013 0.9626870173768681
vn -0.19201135973424102 -0.19069619822734013 0.9626870173768681
vn -0.1490965992161321 -0.22626041008465256 0.962588133277119
vn -0.1490965992161321 -0.22626041008465256 0.962588133277119
vn -0.10294311621034737 -0.2509234993107388 0.9625173825680157
vn -0.10294311621034737 -0.2509234993107388 0.9625173825680157
vn -0.05262519848500351 -0.2668852347936933 0.9622901696757648
vn -0.05262519848500351 -0.2668852347936933 0.9622901696757648
vn -1.1175872559686712e-08 -0.27137414972936036 0.9624735731567344
vn -1.1175872559686712e-08 -0.27137414972936036 0.9624735731567344
vn 0.6837390847042615 0.1367477692571373 -0.7167987989453475
vn 0.007889240506796283 -0.0009861932475725194 -0.9999682303308821
vn 0.00888410157305066 0.000987100122875098 -0.999959826076473
vn 0.6987552223569125 0.001383691943115089 -0.7153591680464649
vn 0.645065328517912 0.26917542392248534 -0.7151466178959498
vn 0.6852740830290621 -0.13675426616303132 -0.7153300809815594
vn 0.008901595535242599 0.002967170261630301 -0.9999557133562303
vn 0.5810677060531432 0.38682974044110696 -0.7160465287687743
vn 0.006923555912408871 0.0049453956833065225 -0.9999635811688686
vn 0.49468454730714734 0.4946846665164268 -0.714544491810557
vn -0.009939640164040883 -0.006957758266245746 -0.9999262090588367
vn 0.006923555912408871 0.0049453956833065225 -0.9999635811688686
vn 0.3868298298480719 0.5810676464484993 -0.716046528768775
vn -0.01188021826988097 -0.000989959050176981 -0.9999287124537671
vn 0.007904827120469849 -0.002964367213679576 -0.9999641772152805
vn 0.6458083599751002 -0.26564033225761036 -0.7157976197871248
vn -0.010922699511337836 0.004964857529980595 -0.9999278183841491
vn 0.007904827120469849 -0.002964367213679576 -0.9999641772152805
vn 0.5799167404315883 -0.39045543116061054 -0.7150109577325785
vn 0.007920354129502219 -0.00495032470773697 -0.9999561901933599
vn -0.00895449465430196 0.008954509555464707 -0.9999195929436636
vn 0.00594037735582952 -0.006930352704148195 -0.9999582167511606
vn 0.49283713125550144 -0.4945023657213217 -0.7159459161344274
vn 0.003960221768233222 -0.008910444961813214 -0.9999521966823995
vn 0.38868556074716504 -0.5813812860704909 -0.71478589060741
vn 0.2673922020694142 -0.6446059555481893 -0.7162290381801227
vn -0.004964828193318802 0.010922699511340273 -0.9999278183841491
vn 0.003952443362556738 -0.006916761914632274 -0.9999680515169584
vn 0.13513982975267255 -0.686209935500528 -0.7147395181965568
vn 0.0019762514836001812 -0.008892882081754884 -0.9999582167511606
vn -0.0009910463692152087 0.012882950874066133 -0.9999163742930389
vn 5.960464362490393e-08 -0.008875356454597302 -0.9999603625182438
vn -2.9802318862536373e-08 -0.6980645237746954 -0.7160344886312486
vn -0.13513978504918822 -0.6862099951051686 -0.7147395181965568
vn -0.08525847877120733 0.15970962281412027 -0.9834751492739587
vn -0.001976191878954131 -0.008892878356464799 -0.999958335960443
vn 0.02507144062294368 -0.044919532822520494 -0.9986757036864792
vn 0.0324192325690848 0.038694040390807385 -0.9987248775154688
vn 0.04487374155692164 0.024002248843821402 -0.9987040754956902
vn 0.015588163394241373 0.04884304185706262 -0.9986847039873006
vn 0.03977977990844254 -0.03245192571478019 -0.9986812469181108
vn 0.04982948004246 -0.013495491007864187 -0.9986663457578111
vn 0.05050229723231558 0.0051533194892106286 -0.9987105724015809
vn 0.004126488914858142 -0.05261247289410518 -0.9986062642794822
vn -0.014534174523912629 -0.048793208651730084 -0.9987030026121484
vn -0.005153357673431597 0.050502368012824594 -0.998710572401581
vn -0.03140473177355047 -0.0408262213410721 -0.9986724254312133
vn -0.024002312173750363 0.04487381606272078 -0.9987041351003315
vn -0.03869414097363707 0.03241929962430382 -0.9987248775154687
vn -0.045963165386433566 -0.024026170794037655 -0.998654067201724
vn -0.048843053032930454 0.015588226724170342 -0.998684584778018
vn -0.051583436016700825 -0.005158318828491201 -0.998655259294548
vn -0.003952383757910687 -0.006916733974956693 -0.9999679919123173
vn -0.26739214246476956 -0.6446060151528292 -0.7162289189708403
vn -0.38868547134019976 -0.5813811668612066 -0.7147860098166924
vn 0.002978861153210443 0.012908474699014605 -0.9999120827588726
vn -0.0039601919659077705 -0.008910409571557483 -0.9999521966823995
vn -0.005940317751183468 -0.0069303717962598006 -0.9999582167511606
vn -0.4928371610578186 -0.49450227631435756 -0.7159458565297863
vn 0.00696453410323326 0.010944295949227216 -0.9999156590373445
vn -0.007920413734138567 -0.0049502092237446085 -0.9999561901933599
vn -0.5799168000362259 -0.39045525234668416 -0.7150110769418608
vn 0.010922699511342686 0.0049648542703517266 -0.9999278183841491
vn -0.0079047973181444 -0.0029642680278312923 -0.9999641176106393
vn -0.6458083599750967 -0.265640421664569 -0.7157976197871248
vn -0.6852740830290586 -0.13675420655838683 -0.7153300809815594
vn -0.0079047973181444 -0.0029642680278312923 -0.9999641176106393
vn -0.6987551627522678 0.0013837291960192286 -0.7153591680464649
vn -0.007889270309112031 -0.0009861252610286135 -0.9999681111215997
vn -0.6837389058903343 0.13674778415830094 -0.7167988585499887
vn 0.012882976951099079 0.000991047067709492 -0.9999163742930389
vn -0.008884131375366408 0.0009871317878407781 -0.9999598856811143
vn -0.6450653881225497 0.2691755431317709 -0.7151466178959498
vn -0.008901684942199548 0.00296723987798862 -0.9999557729608715
vn -0.5810677060531396 0.38682968083646857 -0.7160465287687743
vn 0.011903791905480068 -0.002975983366625152 -0.9999245401288831
vn -0.00692349630776282 0.0049454664638179805 -0.9999635215642274
vn -0.4946846665164263 0.49468454730714684 -0.714544491810557
vn 0.009939610361725134 -0.0069577601288908315 -0.9999262686634779
vn -0.00692349630776282 0.0049454664638179805 -0.9999635215642274
vn -0.38682977024342724 0.5810676464485011 -0.716046528768775
vn 0.17259492434622586 -0.053197105017307074 -0.9835550194931649
vn -0.004945397080287892 0.006923565691292904 -0.9999635811688686
vn -0.2656692703109092 0.6474696009299595 -0.7142846155749294
vn 0.00596380197982077 -0.010933506577847689 -0.9999222155478763
vn -0.002967238248171765 0.008901716607167617 -0.9999557729608716
vn -0.13674776925713722 0.6837390250996188 -0.716798739340708
vn 0.14048223844683053 -0.11505018229405244 -0.9833756691277965
vn 0.0019801257852781235 -0.010890317427363811 -0.9999385472195649
vn -0.000987172067537266 0.00888412113082113 -0.9999597664718318
vn 0.0013837217454391192 0.6987551627522696 -0.7153591680464672
vn -0.03869414097363707 0.03241929962430382 -0.9987248775154687
vn -0.048843053032930454 0.015588226724170342 -0.998684584778018
vn -0.024002312173750363 0.04487381606272078 -0.9987041351003315
vn 0.17915593502853872 0.019649385226981207 -0.9836242800862385
vn -0.051583436016700825 -0.005158318828491201 -0.998655259294548
vn 0.15970959301180185 0.08525850112294978 -0.9834751492739585
vn -0.045963165386433566 -0.024026170794037655 -0.998654067201724
vn 0.11493270899683118 0.13912895977188292 -0.9835817223724227
vn -0.03140473177355047 -0.0408262213410721 -0.9986724254312133
vn 0.053146031290381555 0.1712485449084972 -0.9837931996393973
vn -0.014534174523912629 -0.048793208651730084 -0.9987030026121484
vn 0.004126488914858142 -0.05261247289410518 -0.9986062642794822
vn -0.017331181916822192 0.18139987095575932 -0.9832564598453992
vn 0.02507144062294368 -0.044919532822520494 -0.9986757036864792
vn -0.1391289746730411 0.11493270899682914 -0.9835817819770638
vn 0.03977977990844254 -0.03245192571478019 -0.9986812469181108
vn -0.1735612347893411 0.05076959797106107 -0.9835134154536083
vn 0.04982948004246 -0.013495491007864187 -0.9986663457578111
vn -0.1800773333745104 -0.017315133367181282 -0.9834997659907734
vn 0.05050229723231558 0.0051533194892106286 -0.9987105724015809
vn -0.1583519780992049 -0.08517414565449274 -0.9837018853290794
vn 0.04487374155692164 0.024002248843821402 -0.9987040754956902
vn -0.11383541735467136 -0.14168860658237728 -0.9833438998540374
vn 0.0324192325690848 0.038694040390807385 -0.9987248775154688
vn 0.015588163394241373 0.04884304185706262 -0.9986847039873006
vn -0.0079517657754093 -0.00894567223608438 -0.9999281760119962
vn -0.052007493236511944 -0.173752342170188 -0.9834148889817054
vn 0.004945397080292744 0.006923557309390211 -0.9999635811688686
vn -0.003967940569263655 -0.010911887788220243 -0.999932288732239
vn 0.018472908818995958 -0.17895643829444294 -0.983683288681025
vn -0.005153357673431597 0.050502368012824594 -0.998710572401581
vn 0.0029671786435354172 0.008901633719463434 -0.9999557133562303
vn 0.26566927031091264 0.6474696009299582 -0.7142846155749294
vn 0.1367478288617819 0.6837389058903357 -0.7167988585499905
vn 0.0009871124629009186 0.008884113680240975 -0.999959826076473
vn 0.0009851455097413479 0.006896348256344085 -0.9999756213063908
vn 0.08396705481267155 -0.15953748461033723 -0.9836142665065165
vn 0.5564970636255552 0.8298641541380476 -0.04044715072420877
vn 0.3821631440700269 0.9240937870607773 0.0012781470247105074
vn 0.5550125504318499 0.8318404056216453 0.0013570561190782762
vn 0.444290700719495 0.8336339092753269 -0.3281157117907962
vn 0.702100890472057 0.5726354970673425 0.42325234853864785
vn 0.4274086993787451 0.7983673331938423 0.4241828961970477
vn 0.7071058921935475 0.707105951798187 0.001383729196015277
vn 0.7302333274437806 0.6007017132826918 -0.32544759943447904
vn 0.7051673108431877 0.7080050878106756 -0.03830881932002994
vn 0.8318404652262879 0.5550125504318479 0.0013570710202394595
vn 0.9047686510819205 0.2751084997097649 -0.3251282377669331
vn 0.832012901453277 0.5532815124421433 -0.04041602220034165
vn 0.9228133005538978 0.3830795356261404 -0.040809085006728654
vn 0.9240936678514958 0.3821631738723452 0.0012781395741320871
vn 0.866933293778676 0.26266120288351325 0.4235979064460007
vn 0.980373144932033 0.19322957429222407 -0.039120127893710006
vn 0.980932057652557 0.19434632684973063 0.0011500082220049705
vn 0.999999343953588 -0.0009784697899270474 -5.238689136670166e-10
vn 0.940627041645871 -0.09167128251318325 -0.32682798332000706
vn 0.9992057677606632 0.0030555723264288504 -0.03972374036984273
vn 0.9797331102948369 -0.19618444457735418 -0.04042583461439666
vn 0.9809760458777619 -0.19412748840957283 -1.1175869605286955e-08
vn 0.924280826424861 -0.381712592587205 1.2182141138824973e-15
vn 0.9015944655195012 -0.08988296446328621 0.42314091766192824
vn 0.924367610782447 -0.37946341145155654 -0.03939062865663005
vn 0.7552134537564024 0.006928562702265338 0.6554421985274697
vn 0.8345396017983492 -0.4439373942087885 -0.3262862963407884
vn 0.8281843165351345 -0.5590941570518848 -0.039038953822974565
vn 0.8322586513889408 -0.5543871785363909 2.980232236885159e-08
vn 0.5993483899042685 -0.7305569806454923 -0.3272118968139685
vn 0.7072571091682698 -0.7058368497777789 -0.039765385387588274
vn 0.7077974848453809 -0.7064150744020515 -1.4901158045293614e-08
vn 0.5559510851121712 -0.831214735702981 2.6527757274195418e-15
vn 0.5542781020429947 -0.8314172722737755 -0.03899436955135676
vn 0.3842219479816855 -0.9223962468794284 -0.039474842564062515
vn 0.38325411762021483 -0.9236426991361842 -2.9802317651801365e-08
vn 0.27361665514519534 -0.9047002249538237 -0.3265747828041906
vn 0.1920788172869159 -0.9805509455767303 -0.040312824214680645
vn 0.1954527380019915 -0.9807129509915095 3.1298913027456618e-15
vn 1.3038515355823794e-08 -0.9992565509149647 -0.03855001695121685
vn 2.7940970669176343e-23 -0.9999998207907176 3.1914444195501328e-15
vn -0.10742974381790514 -0.9386675986710904 -0.3276608389714795
vn -0.08250308286843835 -0.9034095460532974 0.4207660899426346
vn 0.5741514815116014 -0.7019248779665985 0.42148682926401365
vn 0.2642432292702212 -0.8671433405342633 0.4221818193803958
vn 0.14139238641677668 -0.741557792039123 0.6558197939294684
vn -0.022038473356686093 -0.8305744030425775 0.5564710760019949
vn 2.7940970669176343e-23 -0.9999998207907176 3.1914444195501328e-15
vn 0.1954527380019915 -0.9807129509915095 3.1298913027456618e-15
vn 0.38325411762021483 -0.9236426991361842 -2.9802317651801365e-08
vn 0.29612724196365553 -0.6936462105365295 0.6566301786312113
vn 0.4122462323319497 -0.6333298303168593 0.6549394929835983
vn 0.5559510851121712 -0.831214735702981 2.6527757274195418e-15
vn 0.7077974848453809 -0.7064150744020515 -1.4901158045293614e-08
vn 0.5390008364572486 -0.5272100251491667 0.6569071613988631
vn 0.8322586513889408 -0.5543871785363909 2.980232236885159e-08
vn 0.6232145650775203 -0.424919073120502 0.6565414869251063
vn 0.924280826424861 -0.381712592587205 1.2182141138824973e-15
vn 0.7994956490517415 -0.42714983642202037 0.42231417148617706
vn 0.6985840974320265 -0.2835996576857119 0.6569254600237104
vn 0.738461271324186 -0.15283723748618486 0.6567460500537007
vn 0.9809760458777619 -0.19412748840957283 -1.1175869605286955e-08
vn 0.999999343953588 -0.0009784697899270474 -5.238689136670166e-10
vn -0.7423904688766757 -0.13976167793937028 0.6552272641913061
vn -0.999999343953588 -0.0009784702555834552 3.123413353803342e-18
vn -0.9809761054824031 -0.1941275033107284 6.195479145845601e-16
vn -0.90237868378376 0.08982337472324739 0.4214785144165638
vn -0.8336337304614035 0.4442908497310993 -0.3281157415931156
vn -0.798367213984562 0.4274086397741069 0.42418286639472824
vn -0.5761963975418626 0.6990741071873273 0.4234297021485354
vn -0.6948092162956074 -0.29432911895028124 0.6562087142132912
vn -0.924280826424861 -0.3817125925872006 1.2182153697171655e-15
vn -0.8678656295763145 -0.2624839982852283 0.4217948958520498
vn -0.6318981268352571 -0.4140595843311503 0.6551785075948061
vn -0.8322585917842996 -0.5543871785363869 1.7692967496857176e-15
vn -0.7077974848453809 -0.7064150744020481 2.254485331958826e-15
vn -0.5289034526102749 -0.5373256480163479 0.6569184266760498
vn -0.5559510851121712 -0.8312147953076194 2.6527766730238217e-15
vn -0.7004120525683234 -0.5759312760978063 0.4215750441329879
vn -0.4231117709923832 -0.6246728522290983 0.6563230359151121
vn -0.38325411762021483 -0.9236426991361824 5.9604644146867065e-08
vn -0.42528167795523625 -0.8006251570024647 0.4220598682845022
vn -0.2818091938687317 -0.6997195658468705 0.6564873063062571
vn -0.1954527380019915 -0.9807129509915086 3.129891568310323e-15
vn -0.15448715355921724 -0.7376000438635012 0.6573273741193175
vn 2.7940970669176343e-23 -0.9999998207907176 3.1914444195501328e-15
vn -0.022038473356686093 -0.8305744030425775 0.5564710760019949
vn -0.08250308286843835 -0.9034095460532974 0.4207660899426346
vn -0.10742974381790514 -0.9386675986710904 -0.3276608389714795
vn -0.7320194401219515 -0.5975999473593313 -0.32714144412807156
vn -0.4457782239475791 -0.8334798312778272 -0.3264854354470334
vn -0.19755727357460995 -0.9794557102946957 -0.0404636239569144
vn 1.3038515355823794e-08 -0.9992565509149647 -0.03855001695121685
vn -0.1954527380019915 -0.9807129509915086 3.129891568310323e-15
vn 2.7940970669176343e-23 -0.9999998207907176 3.1914444195501328e-15
vn -0.38104841807032097 -0.9237141054963389 -0.039418754596694146
vn -0.38325411762021483 -0.9236426991361824 5.9604644146867065e-08
vn -0.5574896597154437 -0.8292659023543321 -0.039024231476597525
vn -0.5559510851121712 -0.8312147953076194 2.6527766730238217e-15
vn -0.7077974848453809 -0.7064150744020481 2.254485331958826e-15
vn -0.7044138485737895 -0.7086743883267004 -0.039765236375985266
vn -0.8324869967693745 -0.5526711609162644 -0.03897928957713428
vn -0.8322585917842996 -0.5543871785363869 1.7692967496857176e-15
vn -0.9040668064317994 -0.27534271614735684 -0.32687760418380474
vn -0.9217317147346985 -0.3858105308789219 -0.03950273753614541
vn -0.924280826424861 -0.3817125925872006 1.2182153697171655e-15
vn -0.9809761054824031 -0.1941275033107284 6.195479145845601e-16
vn -0.9406493337816779 0.09446406542714779 -0.32596756052197784
vn -0.9808188088342785 -0.19071473527075114 -0.04027515408144532
vn -0.9992472525909375 -0.0030526619435578 -0.03866743809438228
vn -0.999999343953588 -0.0009784702555834552 3.123413353803342e-18
vn -0.9792712339301848 0.19870989322496058 -0.039266017703625006
vn -0.9809319384432745 0.19434638645437657 -0.001150011947296286
vn -0.9241275232876968 0.37990442619178877 -0.04075097793213966
vn -0.9240937274561369 0.3821631738723497 0.0012781023212313377
vn -0.8318405248309291 0.5550126100364932 0.0013570188661784102
vn -0.82986421374269 0.5564970636255571 -0.04044714327362775
vn -0.6007018920966165 0.73023326783914 -0.32544759943447943
vn -0.708005028206036 0.7051672512385481 -0.03830879696828948
vn -0.7071059517981887 0.7071059517981905 0.001383721745435127
vn -0.5532815720467864 0.8320130206625607 -0.04041604455208299
vn -0.5550126100364912 0.8318405248309304 0.001357003965017227
vn -0.38216323347698866 0.9240936082468555 0.001278117222389908
vn -0.2751084997097663 0.904768829895844 -0.32512820796461456
vn -0.26266111347655463 0.86693341298796 0.4235979362483194
vn -0.38625890679234437 0.9214845342876468 -0.04086690150869351
vn 0.08982333001976328 0.9023787433883999 0.42147854421888187
vn -0.19322951468758515 0.9803730853273921 -0.03912013906958275
vn -0.194346475861336 0.9809319980479162 -0.001149959793237747
vn 0.09159656809543867 0.9411868484360121 -0.3252338273888195
vn -0.0030557511403547758 0.999205767760663 -0.03972375154571614
vn 0.0009793936618632054 0.9999988671164585 0.0009794680512462005
vn 0.1943463864543742 0.9809320576525564 -0.0011499299909171477
vn 0.19870989322495827 0.9792712339301843 -0.03926599162659697
vn 0.37990436658714544 0.9241274040784135 -0.040750933228660496
vn 0.980932057652557 0.19434632684973063 0.0011500082220049705
vn 0.7409829648793969 0.1397797977502948 0.6568145357864376
vn 0.9240937870607782 0.3821631738723452 -0.001278109771813927
vn 0.6963725864296159 0.2943100156627769 0.6545580828845623
vn 0.6302091697222361 0.414042418194485 0.6568142973678719
vn 0.8318404652262879 0.5550125504318479 0.0013570710202394595
vn 0.7071058921935475 0.707105951798187 0.001383729196015277
vn 0.5307008901702722 0.5374400293228089 0.6553735339808066
vn 0.5550125504318499 0.8318404056216453 0.0013570561190782762
vn 0.4249414844655897 0.6249140126073899 0.6549098098722772
vn 0.3821631440700269 0.9240937870607773 0.0012781470247105074
vn 0.2835797199332275 0.700137930823447 0.6552776897177579
vn 0.15281798518707415 0.7398811134821912 0.6551503742041564
vn 0.1943463566520536 0.9809321172571976 0.0011500044967123852
vn 0.0009793936618632054 0.9999988671164585 0.0009794680512462005
vn -0.00692859250458936 0.7552133941517628 0.6554422581321084
vn -0.13977969344217608 0.7409830840886811 0.6568144165771532
vn -0.1943464460590154 0.9809320576525574 0.0011499150897505866
vn -0.38216323347698866 0.9240936082468555 0.001278117222389908
vn -0.29430995605813903 0.6963727056389005 0.6545581424892022
vn -0.5550126100364912 0.8318405248309304 0.001357003965017227
vn -0.4140423883921675 0.6302090505129562 0.6568141781585888
vn -0.7071059517981887 0.7071059517981905 0.001383721745435127
vn -0.5374399697181705 0.5307008901702751 0.6553734743761653
vn -0.8318405248309291 0.5550126100364932 0.0013570188661784102
vn -0.6249139530027512 0.42494145466327227 0.6549097502676366
vn -0.9240937870607782 0.3821631440700291 -0.0012781321235543765
vn -0.7001379308234493 0.2835798689448338 0.6552777493224003
vn -0.7398811730868343 0.15281800008823784 0.6551503145995171
vn -0.9809319384432745 0.19434638645437657 -0.001150011947296286
vn -0.7539304042499534 -0.006929486574203928 0.6569174133971477
vn -5.238713426756238e-10 -0.0009784697899246216 0.999999343953588
vn -5.238713426756238e-10 -0.0009784697899246216 0.999999343953588
vn -5.238713426756238e-10 -0.0009784697899246216 0.999999343953588
vn -5.238713426756238e-10 -0.0009784697899246216 0.999999343953588
vn -5.238713426756238e-10 -0.0009784697899246216 0.999999343953588
vn -5.238713426756238e-10 -0.0009784697899246216 0.999999343953588
vn -5.238713426756238e-10 -0.0009784697899246216 0.999999343953588
vn -5.238713426756238e-10 -0.0009784697899246216 0.999999343953588
vn -5.238713426756238e-10 -0.0009784697899246216 0.999999343953588
vn -5.238713426756238e-10 -0.0009784697899246216 0.999999343953588
vn -5.238713426756238e-10 -0.0009784697899246216 0.999999343953588
vn -5.238713426756238e-10 -0.0009784697899246216 0.999999343953588
vn -5.238713426756238e-10 -0.0009784697899246216 0.999999343953588
vn -5.238713426756238e-10 -0.0009784697899246216 0.999999343953588
vn -5.238713426756238e-10 -0.0009784697899246216 0.999999343953588
vn -5.238713426756238e-10 -0.0009784697899246216 0.999999343953588
vn -0.9952017067788304 0.09769506911378849 0.005367785370147512
vn -0.998717784563166 -0.05045065726129185 0.0041183826836528005
vn -0.9570023439317846 -0.29003779340018876 0.004895209972401591
vn -0.9892829659077585 -0.14594144243541268 0.004456281394610871
vn -0.969785095678705 0.24393367793848184 0.003569811368375834
vn -0.90412396728271 -0.42723784267474674 0.0052261349403394984
vn -0.8815591998453975 0.4720264390017173 0.00664824207470624
vn -0.9414227636058784 0.337207237515217 0.003760665429495093
vn -0.8024553771151257 0.5966976523008628 0.004115164033025983
vn -0.7733912003921796 -0.6339047766858631 0.005524158146335717
vn -0.8585470995758856 -0.5127059509690538 0.005382716332769839
vn -0.6708665683676934 -0.7415570767834266 0.00554436411970256
vn -0.595809185519147 -0.8031069750527129 0.005491315989035547
vn -0.4698924140328634 -0.8827074832580972 0.00530952183337851
vn -0.3360937036083329 -0.9418149621449677 0.005016326603320267
vn -0.2456175984593162 -0.969354809773888 0.004769384574832434
vn -0.09896906616535606 -0.9950693844753681 0.006454526990813809
vn 0.04937275947926938 -0.99877166715881 0.004114359370374887
vn 0.2914992097954315 -0.9565582297502108 0.004899084274081661
vn 0.14469144370250792 -0.9894666674119346 0.004452079267409026
vn 0.42881083895831407 -0.9033789092677222 0.005229383393286369
vn 0.6354069328533649 -0.7721573843193594 0.005525290634518942
vn 0.5142900635182047 -0.857599087757615 0.005385189925380702
vn 0.7428687961222971 -0.6694135264245433 0.00554370846864914
vn 0.8019610162210202 -0.5973509191684051 0.005492865709706067
vn 0.8818618722134066 -0.4714774504539529 0.005312412658475354
vn 0.9423519999621726 -0.3345850505349445 0.005012511906281585
vn 0.9697093381797409 -0.24421428168808695 0.0047650855900836335
vn 0.9951850770839358 -0.09779899725629929 0.006448281542000301
vn 0.9988172647093273 0.048346397360138856 0.005143256549395653
vn 0.9568927906012606 0.2903758709250701 0.006126120318962899
vn 0.9893110396937633 0.14578153808423577 0.0033384932064625438
vn 0.9028775150259543 0.42987955017501195 0.003919832173236876
vn 0.7728285921839011 0.6345767594107419 0.006912625911324533
vn 0.8589056810973394 0.5121174147418538 0.004032425340461736
vn 0.6716322495885373 0.740872577083896 0.004154465843316187
vn 0.5966974734869374 0.8024553771151243 0.004115171483605477
vn 0.472026379397074 0.8815591402407551 0.006648249525285083
vn 0.33419216654247824 0.9424971968681327 0.0037550029885792457
vn 0.2439337822466016 0.9697850956787044 0.0035697703901826933
vn 0.28745467726222457 0.9577745220585184 0.006116062035758419
vn -0.03341582216993154 0.9994367357453097 0.00303773610321051
vn -0.09769501695972505 0.9952017067788306 0.005367789095434723
vn -0.03341582216993154 0.9994367357453097 0.00303773610321051
vn -0.2903759603320342 0.9568927906012614 0.006126083066060023
vn -0.14578141887495577 0.9893110396937637 0.0033384634041392523
vn -0.42987946076805233 0.9028775746305965 0.003919884327296416
vn -0.6345766402014613 0.7728286517885439 0.006912603559583641
vn -0.5121174743464971 0.8589056214926994 0.004032447692201078
vn -0.7408725770838976 0.6716322495885391 0.004154383886934759
f 1/1/1 2/2/2 3/3/3
f 2/2/2 1/1/1 4/4/4
f 3/3/3 2/2/2 5/5/5
f 4/4/4 1/1/1 6/6/6
f 3/3/3 5/5/5 7/7/7
f 6/6/6 1/1/1 8/8/8
f 7/7/7 5/5/5 9/9/9
f 6/6/6 8/8/8 10/10/10
f 9/9/9 5/5/5 11/11/11
f 10/10/10 8/8/8 12/12/12
f 9/9/9 11/11/11 13/13/13
f 10/10/10 12/12/12 14/14/14
f 13/13/13 11/11/11 15/15/15
f 14/14/14 12/12/12 16/16/16
f 13/13/13 15/15/15 17/17/17
f 14/14/14 16/16/16 18/18/18
f 13/13/13 17/17/17 19/19/19
f 14/14/14 18/18/18 20/20/20
f 19/19/19 17/17/17 21/21/21
f 20/20/20 18/18/18 22/22/22
f 19/19/19 21/21/21 23/23/23
f 20/20/20 22/22/22 24/24/24
f 23/23/23 21/21/21 25/25/25
f 24/24/24 22/22/22 26/26/26
f 25/25/25 21/21/21 27/27/27
f 26/26/26 22/22/22 28/28/28
f 25/25/25 27/27/27 29/29/29
f 26/26/26 28/28/28 30/30/30
f 29/29/29 27/27/27 31/31/31
f 29/29/29 31/31/31 32/32/32
f 29/29/29 32/32/32 33/33/33
f 26/26/26 30/30/30 34/34/34
f 34/34/34 30/30/30 35/35/35
f 35/35/35 30/30/30 36/36/36
f 35/35/35 36/36/36 37/37/37
f 35/35/35 37/37/37 38/38/38
f 38/38/38 37/37/37 39/39/39
f 39/39/39 37/37/37 40/40/40
f 39/39/39 40/40/40 41/41/41
f 41/41/41 40/40/40 42/42/42
f 41/41/41 42/42/42 43/43/43
f 41/41/41 43/43/43 44/44/44
f 44/44/44 43/43/43 45/45/45
f 44/44/44 45/45/45 46/46/46
f 46/46/46 45/45/45 47/47/47
f 46/46/46 47/47/47 48/48/48
f 48/48/48 47/47/47 49/49/49
f 48/48/48 49/49/49 50/50/50
f 50/50/50 49/49/49 51/51/51
f 50/50/50 51/51/51 52/52/52
f 52/52/52 51/51/51 53/53/53
f 52/52/52 53/53/53 54/54/54
f 54/54/54 53/53/53 55/55/55
f 55/55/55 53/53/53 56/56/56
f 55/55/55 56/56/56 57/57/57
f 57/57/57 56/56/56 58/58/58
f 57/57/57 58/58/58 59/59/59
f 57/57/57 59/59/59 60/60/60
f 60/60/60 59/59/59 61/61/61
f 61/61/61 59/59/59 62/62/62
f 61/61/61 62/62/62 63/63/63
f 61/61/61 63/63/63 64/64/64
f 64/64/64 63/63/63 65/65/65
f 65/65/65 63/63/63 66/66/66
f 67/67/67 68/68/68 69/69/69
f 68/68/68 67/67/67 70/70/70
f 67/67/67 69/69/69 71/71/71
f 68/68/68 70/70/70 72/72/72
f 71/71/71 69/69/69 73/73/73
f 71/71/71 73/73/73 74/74/74
f 74/74/74 73/73/73 75/75/75
f 74/74/74 75/75/75 76/76/76
f 73/73/73 69/69/69 77/77/77
f 73/73/73 77/77/77 75/75/75
f 76/76/76 75/75/75 78/78/78
f 78/78/78 75/75/75 77/77/77
f 76/76/76 78/78/78 79/79/79
f 80/80/80 69/69/69 68/68/68
f 69/69/69 80/80/80 77/77/77
f 81/81/81 68/68/68 72/72/72
f 81/81/81 72/72/72 82/82/82
f 80/80/80 68/68/68 83/83/83
f 83/83/83 68/68/68 81/81/81
f 81/81/81 82/82/82 84/84/84
f 81/81/81 84/84/84 83/83/83
f 84/84/84 82/82/82 85/85/85
f 84/84/84 85/85/85 86/86/86
f 84/84/84 86/86/86 87/87/87
f 84/84/84 87/87/87 83/83/83
f 86/86/86 85/85/85 88/88/88
f 86/86/86 88/88/88 87/87/87
f 88/88/88 85/85/85 89/89/89
f 88/88/88 89/89/89 90/90/90
f 90/90/90 89/89/89 91/91/91
f 90/90/90 91/91/91 92/92/92
f 88/88/88 90/90/90 93/93/93
f 88/88/88 93/93/93 87/87/87
f 90/90/90 92/92/92 94/94/94
f 90/90/90 94/94/94 93/93/93
f 94/94/94 92/92/92 95/95/95
f 94/94/94 95/95/95 96/96/96
f 93/93/93 94/94/94 97/97/97
f 97/97/97 94/94/94 96/96/96
f 96/96/96 95/95/95 98/98/98
f 96/96/96 98/98/98 97/97/97
f 98/98/98 95/95/95 99/99/99
f 98/98/98 99/99/99 100/100/100
f 101/101/101 87/87/87 93/93/93
f 101/101/101 93/93/93 97/97/97
f 98/98/98 100/100/100 102/102/102
f 98/98/98 102/102/102 97/97/97
f 103/103/103 104/104/104 105/105/105
f 104/104/104 103/103/103 106/106/106
f 103/103/103 105/105/105 107/107/107
f 107/107/107 105/105/105 108/108/108
f 108/108/108 105/105/105 109/109/109
f 106/106/106 103/103/103 110/110/110
f 106/106/106 110/110/110 111/111/111
f 106/106/106 111/111/111 112/112/112
f 112/112/112 111/111/111 113/113/113
f 112/112/112 113/113/113 114/114/114
f 114/114/114 113/113/113 115/115/115
f 115/115/115 113/113/113 116/116/116
f 115/115/115 116/116/116 117/117/117
f 117/117/117 116/116/116 118/118/118
f 119/119/119 102/102/102 100/100/100
f 119/119/119 100/100/100 120/120/120
f 119/119/119 120/120/120 121/121/121
f 102/102/102 119/119/119 122/122/122
f 102/102/102 122/122/122 97/97/97
f 119/119/119 121/121/121 123/123/123
f 119/119/119 123/123/123 122/122/122
f 123/123/123 121/121/121 124/124/124
f 124/124/124 121/121/121 125/125/125
f 123/123/123 124/124/124 126/126/126
f 123/123/123 126/126/126 122/122/122
f 124/124/124 125/125/125 127/127/127
f 127/127/127 125/125/125 128/128/128
f 126/126/126 124/124/124 129/129/129
f 129/129/129 124/124/124 127/127/127
f 127/127/127 128/128/128 130/130/130
f 127/127/127 130/130/130 129/129/129
f 130/130/130 128/128/128 131/131/131
f 130/130/130 131/131/131 132/132/132
f 130/130/130 132/132/132 133/133/133
f 130/130/130 133/133/133 129/129/129
f 133/133/133 132/132/132 134/134/134
f 133/133/133 134/134/134 135/135/135
f 135/135/135 134/134/134 136/136/136
f 129/129/129 133/133/133 137/137/137
f 137/137/137 133/133/133 135/135/135
f 135/135/135 136/136/136 138/138/138
f 135/135/135 138/138/138 137/137/137
f 138/138/138 136/136/136 139/139/139
f 138/138/138 139/139/139 140/140/140
f 140/140/140 139/139/139 141/141/141
f 137/137/137 138/138/138 142/142/142
f 142/142/142 138/138/138 140/140/140
f 140/140/140 141/141/141 143/143/143
f 143/143/143 141/141/141 144/144/144
f 142/142/142 140/140/140 145/145/145
f 145/145/145 140/140/140 143/143/143
f 143/143/143 144/144/144 146/146/146
f 143/143/143 146/146/146 145/145/145
f 146/146/146 144/144/144 147/147/147
f 148/148/148 137/137/137 142/142/142
f 148/148/148 142/142/142 145/145/145
f 146/146/146 147/147/147 149/149/149
f 149/149/149 147/147/147 150/150/150
f 145/145/145 146/146/146 151/151/151
f 151/151/151 146/146/146 149/149/149
f 149/149/149 150/150/150 152/152/152
f 149/149/149 152/152/152 151/151/151
f 152/152/152 150/150/150 153/153/153
f 145/145/145 151/151/151 154/154/154
f 145/145/145 154/154/154 148/148/148
f 151/151/151 152/152/152 155/155/155
f 152/152/152 153/153/153 156/156/156
f 152/152/152 156/156/156 155/155/155
f 156/156/156 153/153/153 157/157/157
f 148/148/148 154/154/154 158/158/158
f 148/148/148 158/158/158 159/159/159
f 158/158/158 154/154/154 160/160/160
f 148/148/148 159/159/159 161/161/161
f 148/148/148 161/161/161 137/137/137
f 161/161/161 159/159/159 162/162/162
f 137/137/137 161/161/161 129/129/129
f 161/161/161 162/162/162 163/163/163
f 161/161/161 163/163/163 129/129/129
f 163/163/163 162/162/162 164/164/164
f 129/129/129 163/163/163 126/126/126
f 163/163/163 164/164/164 165/165/165
f 163/163/163 165/165/165 126/126/126
f 165/165/165 164/164/164 166/166/166
f 126/126/126 165/165/165 122/122/122
f 165/165/165 166/166/166 167/167/167
f 165/165/165 167/167/167 122/122/122
f 167/167/167 166/166/166 168/168/168
f 167/167/167 168/168/168 169/169/169
f 122/122/122 167/167/167 170/170/170
f 170/170/170 167/167/167 169/169/169
f 122/122/122 170/170/170 97/97/97
f 97/97/97 170/170/170 101/101/101
f 101/101/101 170/170/170 169/169/169
f 101/101/101 169/169/169 171/171/171
f 101/101/101 171/171/171 172/172/172
f 101/101/101 172/172/172 87/87/87
f 172/172/172 171/171/171 173/173/173
f 87/87/87 172/172/172 83/83/83
f 172/172/172 173/173/173 174/174/174
f 172/172/172 174/174/174 83/83/83
f 174/174/174 173/173/173 175/175/175
f 83/83/83 174/174/174 176/176/176
f 176/176/176 174/174/174 175/175/175
f 83/83/83 176/176/176 80/80/80
f 176/176/176 175/175/175 177/177/177
f 80/80/80 176/176/176 178/178/178
f 178/178/178 176/176/176 177/177/177
f 80/80/80 178/178/178 77/77/77
f 178/178/178 177/177/177 179/179/179
f 178/178/178 179/179/179 180/180/180
f 178/178/178 180/180/180 77/77/77
f 180/180/180 179/179/179 181/181/181
f 180/180/180 181/181/181 182/182/182
f 77/77/77 180/180/180 183/183/183
f 77/77/77 183/183/183 78/78/78
f 180/180/180 182/182/182 184/184/184
f 78/78/78 183/183/183 185/185/185
f 78/78/78 185/185/185 79/79/79
f 183/183/183 180/180/180 186/186/186
f 186/186/186 180/180/180 184/184/184
f 183/183/183 186/186/186 185/185/185
f 184/184/184 182/182/182 187/187/187
f 184/184/184 187/187/187 186/186/186
f 187/187/187 182/182/182 188/188/188
f 187/187/187 188/188/188 160/160/160
f 189/189/189 79/79/79 185/185/185
f 189/189/189 185/185/185 186/186/186
f 79/79/79 189/189/189 190/190/190
f 190/190/190 189/189/189 191/191/191
f 191/191/191 189/189/189 192/192/192
f 192/192/192 189/189/189 186/186/186
f 191/191/191 192/192/192 157/157/157
f 157/157/157 192/192/192 193/193/193
f 193/193/193 192/192/192 186/186/186
f 157/157/157 193/193/193 156/156/156
f 156/156/156 193/193/193 155/155/155
f 155/155/155 193/193/193 186/186/186
f 155/155/155 186/186/186 187/187/187
f 155/155/155 187/187/187 194/194/194
f 194/194/194 187/187/187 160/160/160
f 155/155/155 194/194/194 151/151/151
f 194/194/194 160/160/160 154/154/154
f 194/194/194 154/154/154 151/151/151
f 195/195/195 196/196/196 197/197/197
f 198/198/198 199/199/199 200/200/200
f 195/195/195 197/197/197 201/201/201
f 199/199/199 198/198/198 202/202/202
f 202/202/202 198/198/198 195/195/195
f 195/195/195 201/201/201 203/203/203
f 195/195/195 203/203/203 202/202/202
f 203/203/203 201/201/201 204/204/204
f 199/199/199 202/202/202 205/205/205
f 202/202/202 203/203/203 206/206/206
f 206/206/206 203/203/203 204/204/204
f 202/202/202 206/206/206 205/205/205
f 206/206/206 204/204/204 207/207/207
f 206/206/206 207/207/207 205/205/205
f 207/207/207 204/204/204 208/208/208
f 199/199/199 205/205/205 209/209/209
f 207/207/207 208/208/208 210/210/210
f 207/207/207 210/210/210 205/205/205
f 210/210/210 208/208/208 211/211/211
f 210/210/210 211/211/211 212/212/212
f 205/205/205 210/210/210 213/213/213
f 205/205/205 213/213/213 209/209/209
f 210/210/210 212/212/212 214/214/214
f 210/210/210 214/214/214 213/213/213
f 214/214/214 212/212/212 215/215/215
f 214/214/214 215/215/215 213/213/213
f 215/215/215 212/212/212 216/216/216
f 215/215/215 216/216/216 217/217/217
f 209/209/209 213/213/213 218/218/218
f 215/215/215 217/217/217 219/219/219
f 215/215/215 219/219/219 213/213/213
f 209/209/209 218/218/218 220/220/220
f 213/213/213 219/219/219 221/221/221
f 213/213/213 221/221/221 218/218/218
f 219/219/219 217/217/217 222/222/222
f 219/219/219 222/222/222 221/221/221
f 222/222/222 217/217/217 223/223/223
f 221/221/221 222/222/222 224/224/224
f 222/222/222 223/223/223 225/225/225
f 222/222/222 225/225/225 224/224/224
f 225/225/225 223/223/223 226/226/226
f 225/225/225 226/226/226 227/227/227
f 225/225/225 227/227/227 228/228/228
f 225/225/225 228/228/228 224/224/224
f 228/228/228 227/227/227 229/229/229
f 228/228/228 229/229/229 224/224/224
f 229/229/229 227/227/227 230/230/230
f 224/224/224 229/229/229 231/231/231
f 229/229/229 230/230/230 232/232/232
f 229/229/229 232/232/232 231/231/231
f 232/232/232 230/230/230 233/233/233
f 232/232/232 233/233/233 234/234/234
f 234/234/234 233/233/233 235/235/235
f 232/232/232 234/234/234 236/236/236
f 232/232/232 236/236/236 231/231/231
f 231/231/231 236/236/236 237/237/237
f 238/238/238 224/224/224 231/231/231
f 224/224/224 238/238/238 221/221/221
f 231/231/231 237/237/237 239/239/239
f 231/231/231 239/239/239 238/238/238
f 239/239/239 237/237/237 240/240/240
f 240/240/240 237/237/237 241/241/241
f 240/240/240 241/241/241 242/242/242
f 240/240/240 242/242/242 243/243/243
f 240/240/240 243/243/243 244/244/244
f 239/239/239 240/240/240 245/245/245
f 245/245/245 240/240/240 244/244/244
f 239/239/239 245/245/245 238/238/238
f 245/245/245 244/244/244 246/246/246
f 245/245/245 246/246/246 238/238/238
f 246/246/246 244/244/244 247/247/247
f 246/246/246 247/247/247 248/248/248
f 246/246/246 248/248/248 249/249/249
f 246/246/246 249/249/249 238/238/238
f 249/249/249 248/248/248 250/250/250
f 249/249/249 250/250/250 251/251/251
f 249/249/249 251/251/251 238/238/238
f 251/251/251 250/250/250 252/252/252
f 238/238/238 251/251/251 253/253/253
f 238/238/238 253/253/253 221/221/221
f 221/221/221 253/253/253 218/218/218
f 253/253/253 251/251/251 254/254/254
f 253/253/253 254/254/254 218/218/218
f 254/254/254 251/251/251 252/252/252
f 218/218/218 254/254/254 255/255/255
f 255/255/255 254/254/254 252/252/252
f 218/218/218 255/255/255 220/220/220
f 255/255/255 252/252/252 256/256/256
f 220/220/220 255/255/255 257/257/257
f 257/257/257 255/255/255 256/256/256
f 258/258/258 259/259/259 260/260/260
f 261/261/261 262/262/262 263/263/263
f 263/263/263 262/262/262 264/264/264
f 258/258/258 260/260/260 265/265/265
f 265/265/265 260/260/260 266/266/266
f 267/267/267 261/261/261 258/258/258
f 267/267/267 258/258/258 265/265/265
f 265/265/265 266/266/266 268/268/268
f 265/265/265 268/268/268 267/267/267
f 268/268/268 266/266/266 269/269/269
f 268/268/268 269/269/269 270/270/270
f 268/268/268 270/270/270 271/271/271
f 271/271/271 270/270/270 272/272/272
f 268/268/268 271/271/271 273/273/273
f 268/268/268 273/273/273 267/267/267
f 271/271/271 272/272/272 274/274/274
f 271/271/271 274/274/274 273/273/273
f 274/274/274 272/272/272 275/275/275
f 273/273/273 274/274/274 276/276/276
f 274/274/274 275/275/275 277/277/277
f 274/274/274 277/277/277 276/276/276
f 277/277/277 275/275/275 278/278/278
f 277/277/277 278/278/278 279/279/279
f 279/279/279 278/278/278 280/280/280
f 279/279/279 280/280/280 281/281/281
f 279/279/279 281/281/281 282/282/282
f 279/279/279 282/282/282 277/277/277
f 277/277/277 282/282/282 276/276/276
f 276/276/276 282/282/282 283/283/283
f 284/284/284 273/273/273 276/276/276
f 273/273/273 284/284/284 267/267/267
f 276/276/276 283/283/283 285/285/285
f 276/276/276 285/285/285 284/284/284
f 285/285/285 283/283/283 286/286/286
f 286/286/286 283/283/283 287/287/287
f 286/286/286 287/287/287 288/288/288
f 288/288/288 287/287/287 289/289/289
f 286/286/286 288/288/288 290/290/290
f 286/286/286 290/290/290 285/285/285
f 290/290/290 288/288/288 291/291/291
f 285/285/285 290/290/290 292/292/292
f 292/292/292 290/290/290 291/291/291
f 285/285/285 292/292/292 284/284/284
f 292/292/292 291/291/291 293/293/293
f 292/292/292 293/293/293 294/294/294
f 284/284/284 292/292/292 295/295/295
f 295/295/295 292/292/292 294/294/294
f 295/295/295 294/294/294 296/296/296
f 295/295/295 296/296/296 284/284/284
f 296/296/296 294/294/294 297/297/297
f 284/284/284 296/296/296 298/298/298
f 296/296/296 297/297/297 299/299/299
f 296/296/296 299/299/299 298/298/298
f 299/299/299 297/297/297 300/300/300
f 284/284/284 298/298/298 267/267/267
f 299/299/299 300/300/300 301/301/301
f 267/267/267 298/298/298 302/302/302
f 267/267/267 302/302/302 261/261/261
f 298/298/298 299/299/299 303/303/303
f 303/303/303 299/299/299 301/301/301
f 298/298/298 303/303/303 302/302/302
f 303/303/303 301/301/301 304/304/304
f 303/303/303 304/304/304 302/302/302
f 304/304/304 301/301/301 305/305/305
f 261/261/261 302/302/302 262/262/262
f 304/304/304 305/305/305 306/306/306
f 304/304/304 306/306/306 302/302/302
f 302/302/302 306/306/306 262/262/262
f 306/306/306 305/305/305 307/307/307
f 306/306/306 307/307/307 308/308/308
f 306/306/306 308/308/308 262/262/262
f 308/308/308 307/307/307 309/309/309
f 308/308/308 309/309/309 310/310/310
f 262/262/262 308/308/308 311/311/311
f 311/311/311 308/308/308 310/310/310
f 262/262/262 311/311/311 312/312/312
f 311/311/311 310/310/310 313/313/313
f 311/311/311 313/313/313 312/312/312
f 313/313/313 310/310/310 314/314/314
f 262/262/262 312/312/312 264/264/264
f 313/313/313 314/314/314 315/315/315
f 313/313/313 315/315/315 312/312/312
f 315/315/315 314/314/314 316/316/316
f 315/315/315 316/316/316 317/317/317
f 264/264/264 312/312/312 318/318/318
f 318/318/318 312/312/312 315/315/315
f 264/264/264 318/318/318 319/319/319
f 315/315/315 317/317/317 320/320/320
f 315/315/315 320/320/320 318/318/318
f 319/319/319 318/318/318 321/321/321
f 320/320/320 317/317/317 322/322/322
f 320/320/320 322/322/322 318/318/318
f 322/322/322 317/317/317 323/323/323
f 321/321/321 318/318/318 324/324/324
f 324/324/324 318/318/318 322/322/322
f 321/321/321 324/324/324 200/200/200
f 322/322/322 323/323/323 325/325/325
f 322/322/322 325/325/325 324/324/324
f 325/325/325 323/323/323 326/326/326
f 325/325/325 326/326/326 327/327/327
f 325/325/325 327/327/327 328/328/328
f 325/325/325 328/328/328 324/324/324
f 328/328/328 327/327/327 196/196/196
f 200/200/200 324/324/324 198/198/198
f 198/198/198 324/324/324 328/328/328
f 328/328/328 196/196/196 329/329/329
f 328/328/328 329/329/329 198/198/198
f 329/329/329 196/196/196 195/195/195
f 329/329/329 195/195/195 198/198/198
f 330/330/330 331/331/331 220/220/220
f 331/331/331 330/330/330 332/332/332
f 330/330/330 220/220/220 257/257/257
f 331/331/331 332/332/332 333/333/333
f 333/333/333 332/332/332 334/334/334
f 334/334/334 332/332/332 335/335/335
f 331/331/331 333/333/333 209/209/209
f 331/331/331 209/209/209 220/220/220
f 209/209/209 333/333/333 334/334/334
f 334/334/334 335/335/335 336/336/336
f 334/334/334 336/336/336 337/337/337
f 337/337/337 336/336/336 338/338/338
f 334/334/334 337/337/337 199/199/199
f 334/334/334 199/199/199 209/209/209
f 337/337/337 338/338/338 339/339/339
f 337/337/337 339/339/339 199/199/199
f 339/339/339 338/338/338 340/340/340
f 339/339/339 340/340/340 341/341/341
f 341/341/341 340/340/340 342/342/342
f 342/342/342 340/340/340 343/343/343
f 342/342/342 343/343/343 344/344/344
f 342/342/342 344/344/344 345/345/345
f 345/345/345 344/344/344 346/346/346
f 346/346/346 344/344/344 347/347/347
f 342/342/342 345/345/345 321/321/321
f 342/342/342 321/321/321 341/341/341
f 321/321/321 345/345/345 346/346/346
f 346/346/346 347/347/347 348/348/348
f 341/341/341 200/200/200 339/339/339
f 200/200/200 341/341/341 321/321/321
f 339/339/339 200/200/200 199/199/199
f 346/346/346 348/348/348 349/349/349
f 349/349/349 348/348/348 350/350/350
f 321/321/321 346/346/346 319/319/319
f 319/319/319 346/346/346 349/349/349
f 349/349/349 350/350/350 351/351/351
f 351/351/351 350/350/350 352/352/352
f 319/319/319 349/349/349 264/264/264
f 264/264/264 349/349/349 351/351/351
f 351/351/351 352/352/352 353/353/353
f 351/351/351 353/353/353 264/264/264
f 353/353/353 352/352/352 354/354/354
f 353/353/353 354/354/354 355/355/355
f 353/353/353 355/355/355 264/264/264
f 355/355/355 354/354/354 356/356/356
f 355/355/355 356/356/356 357/357/357
f 357/357/357 356/356/356 358/358/358
f 358/358/358 356/356/356 359/359/359
f 355/355/355 357/357/357 263/263/263
f 263/263/263 357/357/357 358/358/358
f 355/355/355 263/263/263 264/264/264
f 358/358/358 359/359/359 259/259/259
f 358/358/358 259/259/259 360/360/360
f 263/263/263 358/358/358 261/261/261
f 261/261/261 358/358/358 360/360/360
f 360/360/360 259/259/259 258/258/258
f 360/360/360 258/258/258 261/261/261
f 361/361/361 362/362/362 363/363/363
f 361/361/361 363/363/363 364/364/364
f 361/361/361 364/364/364 365/365/365
f 362/362/362 361/361/361 366/366/366
f 362/362/362 366/366/366 367/367/367
f 362/362/362 367/367/367 368/368/368
f 368/368/368 367/367/367 369/369/369
f 368/368/368 369/369/369 370/370/370
f 370/370/370 369/369/369 371/371/371
f 370/370/370 371/371/371 372/372/372
f 372/372/372 371/371/371 373/373/373
f 373/373/373 371/371/371 374/374/374
f 373/373/373 374/374/374 375/375/375
f 373/373/373 375/375/375 376/376/376
f 377/377/377 378/378/378 379/379/379
f 379/379/379 378/378/378 380/380/380
f 378/378/378 377/377/377 381/381/381
f 379/379/379 380/380/380 382/382/382
f 381/381/381 377/377/377 383/383/383
f 381/381/381 383/383/383 384/384/384
f 384/384/384 383/383/383 385/385/385
f 379/379/379 382/382/382 386/386/386
f 386/386/386 382/382/382 387/387/387
f 386/386/386 387/387/387 388/388/388
f 386/386/386 388/388/388 389/389/389
f 386/386/386 389/389/389 390/390/390
f 390/390/390 389/389/389 391/391/391
f 390/390/390 391/391/391 392/392/392
f 390/390/390 392/392/392 393/393/393
f 393/393/393 392/392/392 394/394/394
f 393/393/393 394/394/394 395/395/395
f 395/395/395 394/394/394 396/396/396
f 395/395/395 396/396/396 397/397/397
f 395/395/395 397/397/397 398/398/398
f 398/398/398 397/397/397 399/399/399
f 398/398/398 399/399/399 400/400/400
f 398/398/398 400/400/400 401/401/401
f 398/398/398 401/401/401 402/402/402
f 402/402/402 401/401/401 403/403/403
f 402/402/402 403/403/403 404/404/404
f 402/402/402 404/404/404 405/405/405
f 405/405/405 404/404/404 406/406/406
f 405/405/405 406/406/406 407/407/407
f 407/407/407 406/406/406 408/408/408
f 407/407/407 408/408/408 409/409/409
f 407/407/407 409/409/409 410/410/410
f 410/410/410 409/409/409 411/411/411
f 410/410/410 411/411/411 412/412/412
f 410/410/410 412/412/412 413/413/413
f 410/410/410 413/413/413 414/414/414
f 414/414/414 413/413/413 415/415/415
f 414/414/414 415/415/415 416/416/416
f 414/414/414 416/416/416 417/417/417
f 417/417/417 416/416/416 418/418/418
f 419/419/419 420/420/420 421/421/421
f 421/421/421 420/420/420 422/422/422
f 421/421/421 422/422/422 423/423/423
f 421/421/421 423/423/423 424/424/424
f 424/424/424 423/423/423 425/425/425
f 424/424/424 425/425/425 426/426/426
f 424/424/424 426/426/426 385/385/385
f 424/424/424 385/385/385 383/383/383
