o casing
v 0.0033488620857253966 -0.0006661347179530223 -0.015871842370800932
v 0.003481382993714438 -1.1081173544030729e-08 0.028508352267894225
v 0.0028390277336324205 0.0018969691617308907 -0.015871842370800943
v 0.0032163688845810723 -0.001332268853829462 0.02850835226789423
v 0.0032163688845810723 0.0013322452215205334 0.02850835226789422
v 0.0024617038121501505 0.002461682857393542 0.028508352267894218
v 0.0013322611704186054 0.0032163486283163555 0.028508352267894214
v 0.000666124531613004 0.003348855566467725 -0.015871842370800946
v 1.7331074842422344e-09 0.0034813515615794996 0.028508352267894214
v 0.0018969705587147145 -0.002839034951381907 -0.015871842370800925
v 0.0024617038121501505 -0.0024617066061177815 0.028508352267894232
v 0.0013322611704186054 -0.0032163733083631087 0.028508352267894235
v 1.7331074842422344e-09 -0.0034813767072875055 0.028508352267894235
v -0.0006661316329471325 -0.0033488702347973954 -0.015871842370800925
v -0.0013322543019151682 -0.0032163735411937316 0.028508352267894235
v -0.0028390382110106793 -0.001896983015153357 -0.01587184237080093
v -0.0024617105642385493 -0.002461707071779029 0.028508352267894232
v -0.003216348628316428 -0.0013322696687366503 0.02850835226789423
v -0.003481366462739868 -1.191119841500864e-08 0.028508352267894225
v -0.0033488693034748394 0.0006661215048147877 -0.015871842370800936
v -0.003216348628316428 0.0013322444066133452 0.02850835226789422
v -0.0018969910478100493 0.0028390205158828666 -0.015871842370800943
v -0.0024617105642385493 0.002461682624562924 0.028508352267894218
v -0.0013322543019151682 0.0032163483954857322 0.028508352267894214
v 1.7331074842422344e-09 0.0034813515615794996 0.028508352267894214
v 0.000666124531613004 0.003348855566467725 -0.015871842370800946
v 0.005165471851096549 0.0021396140681173574 -0.028508346679959117
v 0.005796832150353103 0.0024011317596847564 -0.02816540392623988
v 0.006156739875073642 0.0012246562830192029 -0.028165403926239875
v 0.005219432677832119 0.003487518546467928 -0.028165403926239882
v 0.005591066218724804 3.897384833924235e-09 -0.02850834667995911
v 0.006274447399910403 3.922977691894516e-09 -0.02816540392623987
v 0.006156739875073642 -0.0012246484831931381 -0.028165403926239868
v 0.005165471851096549 -0.0021396066175372328 -0.028508346679959103
v 0.005796832150353103 -0.002401124309104635 -0.028165407651529938
v 0.005219432677832119 -0.0034875113287184327 -0.028165407651529934
v 0.003953480855840253 0.003953485978114028 -0.028508346679959124
v 0.0044367026669603436 0.0044367096518791544 -0.028165403926239885
v 0.0034875115615491184 0.005219438265767155 -0.02816540392623989
v 0.003304945339523795 3.6248579658777745e-09 -0.02850834854260415
v 0.0023369487369836205 0.0023369533935961397 -0.028508348542604155
v 0.0021396061518760296 0.0051654769733703275 -0.028508346679959128
v 0.002401125007596578 0.005796838669610661 -0.02816540392623989
v 0.0012246492981003955 0.006156746394331201 -0.028165403926239892
v 0.0030533706799970514 0.001264753093494931 -0.028508348542604152
v -3.398460128916422e-09 0.005591072272321107 -0.02850834667995913
v -3.357578389765495e-09 0.006274452522184188 -0.028165403926239892
v -0.0012246560501885198 0.006156746394331207 -0.028165403926239892
v -0.00213961453377856 0.005165476507709078 -0.028508346679959128
v -0.002401131759684702 0.005796838203949412 -0.02816540392623989
v -3.398460128916422e-09 0.003304950694628209 -0.02850834667995912
v -0.0034875183136372423 0.005219437334444653 -0.02816540392623989
v 0.0012647459921608021 0.0030533765007627212 -0.02850834667995912
v 0.0018843658069155394 0.0018843697650361715 -0.028071787386656524
v -3.34641798472949e-09 0.0026649004577799563 -0.02807178366136645
v -0.003953487840759005 0.003953485512452787 -0.028508346679959124
v -0.004436709651879097 0.004436709186217917 -0.028165403926239885
v -0.0012647527442489245 0.003053376035101468 -0.02850834667995912
v -0.005219439197089613 0.0034875178479760642 -0.028165403926239882
v -0.0010198158531438439 0.0024620470044983763 -0.028071787386656524
v -0.0023369557219023733 0.002336953393596151 -0.028508348542604155
v -0.005165478370354041 0.0021396124383029746 -0.028508346679959117
v -0.0057968372726268196 0.0024011303627010064 -0.02816540392623988
v -0.006156746859992394 0.0012246548860354546 -0.028165403926239875
v -0.003053378829068952 0.0012647511144345933 -0.028508346679959117
v -0.005591072737982297 2.5643699093413894e-09 -0.02850834667995911
v -0.006274453919167897 2.4270317783796737e-09 -0.02816540392623987
v -0.006156746859992394 -0.0012246501130075162 -0.028165403926239868
v -0.0018843708127739415 0.001884369532205551 -0.028071787386656524
v -0.005165478370354041 -0.0021396073160290965 -0.028508346679959103
v -0.0057968372726268196 -0.0024011257060883844 -0.028165407651529938
v -0.005219439197089613 -0.0034875129585328155 -0.028165407651529934
v -0.002462050264127121 0.0010198146889907693 -0.028071783661366444
v -0.0016712156518666733 0.0016712133235604497 -0.028508348542604155
v -0.003953487840759005 -0.003953480390178915 -0.028508348542604138
v -0.004436709651879097 -0.004436704063944042 -0.02816540765152993
v -0.0034875183136372423 -0.005219432212170782 -0.02816540765152993
v -0.002664903484578074 2.8655789418662148e-09 -0.028071787386656517
v -0.00213961453377856 -0.005165470919773955 -0.02850834854260413
v -0.002401131759684702 -0.005796832616014289 -0.028165407651529927
v -0.0012246560501885198 -0.006156740340734829 -0.028165407651529927
v -0.003053378829068952 -0.0012647454100841514 -0.028508348542604145
v -0.003304952091611918 2.819530003744855e-09 -0.02850834854260415
v -0.002462050264127121 -0.0010198086353943856 -0.028071787386656513
v -0.0023369557219023733 -0.0023369478056610273 -0.02850834854260414
v -0.0012647527442489245 -0.00305337021433572 -0.028508348542604138
v -0.0018843708127739415 -0.0018843637114397997 -0.02807178738665651
v -0.0010198174829582516 -0.0024620409509019995 -0.02807178738665651
v -3.398460573005601e-09 -0.0033049441753705776 -0.028508348542604138
v -3.398460573005601e-09 -0.005591066218724735 -0.02850834854260413
v -3.3575786118100777e-09 -0.006274446468587816 -0.028165407651529927
v 0.0012246492981003955 -0.006156739875073576 -0.028165407651529927
v 0.0021396061518760296 -0.005165470454112707 -0.02850834854260413
v 0.002401125007596578 -0.005796831684691781 -0.028165407651529927
v 0.0034875115615491184 -0.0052194312808482805 -0.02816540765152993
v 0.003953480855840253 -0.003953478527533897 -0.028508348542604138
v 0.0044367026669603436 -0.0044367026669602854 -0.02816540765152993
v 0.0023369487369836205 -0.0023369464086772603 -0.02850834854260414
v 0.0012647459921608021 -0.003053369981505096 -0.028508348542604138
v -3.3464182067740723e-09 -0.0026648941713529545 -0.028071787386656506
v 0.0030533706799970514 -0.0012647459921607403 -0.028508346679959107
v 0.0018843658069155394 -0.001884362896532605 -0.02807178738665651
v 0.0026648951026755417 3.5415281849155667e-09 -0.028071787386656517
v 0.002462041882224589 -0.0010198095667169164 -0.028071783661366437
v 0.0010198091010557191 -0.002462040718071375 -0.02807178738665651
v 0.001671208783363236 -0.0016712062222262443 -0.028508348542604145
v 0.0009044500223652663 -0.002183538730560413 -0.02850834854260414
v -3.398460573005601e-09 -0.0023634457939641132 -0.02850834854260414
v 0.0021835396618829985 -0.0009044502551958321 -0.02850834667995911
v -0.0009044568326610462 0.002183544784156785 -0.028508348542604155
v 0.0023634462596254413 3.4950231663816507e-09 -0.02850834667995911
v -3.398460128916422e-09 0.0023634520803911146 -0.02850834667995912
v 0.0009044500223652663 0.00218354501698741 -0.028508346679959117
v -0.002183548276616159 0.0009044551446390555 -0.028508346679959114
v -0.0009044568326610462 -0.0021835387305604087 -0.028508346679959103
v -0.0023634546415279723 2.8569487339931247e-09 -0.02850834667995911
v -0.0016712156518666733 -0.0016712072699640698 -0.028508348542604145
v -0.002183548276616159 -0.0009044491492503305 -0.02850834667995911
v 0.0021835396618829985 0.0009044571819070546 -0.028508346679959114
v 0.002462041882224589 0.00101981643522048 -0.028071783661366444
v 0.001671208783363236 0.0016712134399757565 -0.028508348542604155
v 0.0010198091010557191 0.002462047237329001 -0.02807178366136645
v 0.006030671402324812 0.0011995704124851566 0.0186083231132178
v 0.006274446002926616 3.294500237332706e-09 -0.02430783997660432
v 0.006156740340734891 0.0012246555845273138 -0.024307839976604326
v 0.006145967267499307 -3.712746568829717e-09 0.018608323113217803
v 0.0039943728993315376 -4.5092691414533985e-09 0.021923017304037028
v 0.006030671402324812 -0.0011995779794806505 0.018608323113217806
v 0.006156740340734891 -0.0012246490652697123 -0.024307839976604316
v 0.005332223751092466 3.3399383346209797e-09 -0.025276160213719756
v 0.005678134629678811 0.0023519542054054143 0.018608323113217792
v 0.003690319380027161 0.0015285740620664791 0.021923017304037024
v 0.005796832616014353 0.0024011310611928675 -0.02430783997660433
v 0.003690319380027161 -0.0015285832588763696 0.02192301730403703
v 0.005112557365210663 0.0034160949568447954 0.01860832311321779
v 0.0049263324426705914 0.002040557906532695 -0.025276160213719763
v 0.005219431280848332 0.0034875178479760387 -0.024307839976604333
v 0.0028244504407384415 0.002824439963360152 0.021923017304037017
v 0.004345856811870115 0.00434584889562874 0.01860832311321779
v 0.004436703132621594 0.004436709186217896 -0.024307839976604333
v 0.0037704487397249237 0.0037704578201194112 -0.02527616021371977
v 0.0034875120272103684 0.0052194373344446356 -0.024307839976604337
v 0.0034161033387474313 0.005112548517646772 0.018608323113217785
v -0.0012246560501885198 0.006156746394331207 -0.028165403926239892
v -3.230664143081424e-09 0.0062744520565229285 -0.027100771902171878
v -3.357578389765495e-09 0.006274452522184188 -0.028165403926239892
v 0.002040552784258915 0.004926338496266897 -0.025276160213719773
v -3.2090894028220147e-09 0.005332228873366257 -0.026919789859750923
v -3.0131534844213013e-09 0.005332228873366257 -0.025276160213719773
v -0.0012246558173578926 0.006156745928669947 -0.027100771902171878
v -0.002401131526854075 0.005796837738288154 -0.027100771902171878
v -0.002401131759684702 0.005796838203949412 -0.02816540392623989
v -0.0020405590706857896 0.004926337099283129 -0.02691978985975092
v -0.002040558837855164 0.004926338030605647 -0.025276160213719773
v -0.003487518313637245 0.005219436868783393 -0.027100771902171875
v -0.0034875183136372423 0.005219437334444653 -0.02816540392623989
v -0.003770458285780614 0.003770455026151873 -0.026919789859750916
v -0.0044367096518791 0.004436707789234139 -0.02710077190217187
v -0.004436709651879097 0.004436709186217917 -0.028165403926239885
v -0.005219439197089613 0.0034875178479760642 -0.028165403926239882
v -0.005219439197089616 0.003487516916653545 -0.02710077190217187
v -0.0057968372726268196 0.0024011303627010064 -0.02816540392623988
v -0.005796837272626822 0.0024011303627010064 -0.027100773764816902
v -0.004926337099283059 0.002040557673702089 -0.026919789859750912
v -0.006156746859992397 0.0012246547696201397 -0.0271007737648169
v -0.006156746859992394 0.0012246548860354546 -0.028165403926239875
v -0.006274453919167897 2.4270317783796737e-09 -0.02816540392623987
v -0.0062744539191679 2.2456699748061103e-09 -0.027100773764816895
v -0.006156746859992397 -0.0012246501130075162 -0.027100773764816892
v -0.00533223027034997 2.3364173766623477e-09 -0.026919789859750905
v -0.006156746859992394 -0.0012246501130075162 -0.028165403926239868
v -0.005332229804688715 2.0686360400817384e-09 -0.025276160213719756
v -0.005796837272626822 -0.0024011257060883844 -0.02710077376481689
v -0.0057968372726268196 -0.0024011257060883844 -0.028165407651529938
v -0.004926337099283059 -0.0020405530170894714 -0.0269197898597509
v -0.005219439197089616 -0.003487512492871556 -0.027100773764816885
v -0.005219439197089613 -0.0034875129585328155 -0.028165407651529934
v -0.0044367096518791 -0.004436703598282783 -0.02710077376481688
v -0.004436709651879097 -0.004436704063944042 -0.02816540765152993
v -0.003770458285780614 -0.003770450602369891 -0.026919793585040968
v -0.003487518313637245 -0.005219432212170782 -0.027100773764816878
v -0.0034875183136372423 -0.005219432212170782 -0.02816540765152993
v -0.0037704580529499885 -0.003770450369539261 -0.02527616207636478
v -0.002401131526854075 -0.005796832616014289 -0.027100773764816878
v -0.002401131759684702 -0.005796832616014289 -0.028165407651529927
v -0.0020405590706857896 -0.004926331977009266 -0.026919793585040964
v -0.0012246558173578926 -0.006156740340734829 -0.027100773764816875
v -0.0012246560501885198 -0.006156740340734829 -0.028165407651529927
v -3.2306645871706027e-09 -0.006274446934249075 -0.027100773764816875
v -3.3575786118100777e-09 -0.006274446468587816 -0.028165407651529927
v -3.209089846911189e-09 -0.005332223751092404 -0.026919793585040964
v -0.002040558837855164 -0.004926332908331784 -0.025276162076364777
v -3.013153706465888e-09 -0.005332223751092404 -0.025276162076364777
v -0.0012246555845272697 -0.006156740806396089 -0.02430784183924934
v -2.89772094129075e-09 -0.006274447399910335 -0.024307841839249337
v -0.001199573555698717 -0.006030673264969892 0.01860832311321782
v 2.218285154960957e-09 -0.006145969595805649 0.01860832311321782
v 4.278783683873127e-09 -0.003994373830654109 0.02192303965577749
v -0.00235195653371177 -0.0056781355610013694 0.01860832311321782
v -0.001528571966590874 -0.0036903200785190996 0.02192303965577749
v -0.002401131294023452 -0.005796833547336807 -0.02430784183924934
v -0.0034875178479759922 -0.005219433143493301 -0.02430784183924934
v -0.0034160975179817793 -0.005112558762194478 0.018608323113217817
v -0.004436709186217847 -0.004436704529605302 -0.024307841839249344
v -0.0015285712680990003 -0.0036903207770109885 0.02821748720677768
v 5.029140289272889e-09 -0.003994373830654109 0.028217487206777685
v 3.398460128916422e-09 -0.0034813769401181353 0.028508346679959124
v -0.0013322560481448908 -0.0032163744725162507 0.02850834667995912
v -0.0028244376350539304 -0.0028244513720610065 0.028217487206777678
v -0.002461708701593512 -0.002461708003101548 0.02850834667995912
v -0.002824438566376434 -0.0028244511392303768 0.02192302847990726
v -0.003690308204157058 -0.0015285854707673336 0.028217487206777674
v -0.0032163553804046884 -0.0013322702508132246 0.028508346679959117
v -0.0034813678597236464 -1.2697592428805904e-08 0.02850834667995911
v -0.004345852620918871 -0.004345858674515187 0.018608323113217817
v -0.005219438731428363 -0.0034875129585328155 -0.02430783997660431
v -0.005112551311614382 -0.0034161038044087234 0.018608323113217813
v -0.003690308902648932 -0.0015285844230295 0.02192301730403703
v -0.003994361723461434 -6.487100679617958e-09 0.02821748720677767
v -0.0032163553804046884 0.0013322433588755117 0.028508346679959107
v -0.0049263398932506185 -0.002040553482750731 -0.02527616021371975
v -0.0057968368069655695 -0.002401125938919014 -0.02430784183924935
v -0.005678131835711346 -0.0023519630529693423 0.01860832311321781
v -0.006156746394331145 -0.0012246505786687755 -0.024307839976604316
v -0.006030667211373568 -0.0011995792600490846 0.018608323113217806
v -0.003994362654783937 -5.461600611888792e-09 0.021923017304037028
v -0.006274453453506647 1.7985546568847462e-09 -0.02430783997660432
v -0.006145963076548063 -5.178058989065891e-09 0.018608323113217803
v -0.006030667211373568 0.001199568899086093 0.0186083231132178
v -0.006156746394331145 0.0012246540711282506 -0.024307839976604326
v -0.003690308902648932 0.0015285735964052376 0.021923017304037024
v -0.003690308204157058 0.001528572548667404 0.028217487206777664
v -0.002461708701593512 0.0024616814604097757 0.028508346679959103
v -0.0028244376350539304 0.0028244381007151284 0.02821748720677766
v -0.005678131835711346 0.002351952575591034 0.018608323113217792
v -0.002824438566376434 0.002824440429021425 0.021923017304037017
v -0.005112551311614382 0.0034160937926916717 0.01860832311321779
v -0.0015285737128205967 0.0036903086698182523 0.021923017304037017
v -0.0015285712680990003 0.003690308204156993 0.028217487206777657
v 4.278780575248899e-09 0.003994362654783884 0.021923017304037014
v -0.0057968368069655695 0.0024011296642091175 -0.02430783997660433
v -0.0049263398932506185 0.0020405572080408295 -0.025276160213719763
v -0.005219438731428363 0.003487516683822916 -0.024307839976604333
v -0.0037704580529499885 0.003770454560490614 -0.02527616021371977
v -0.004436709186217847 0.004436707789234139 -0.024307839976604333
v -0.004345852620918871 0.004345847964306242 0.01860832311321779
v -0.0034875178479759922 0.005219436868783393 -0.024307839976604337
v -0.0034160975179817793 0.005112548051985529 0.018608323113217785
v -0.002401131294023452 0.005796837738288154 -0.02430783997660434
v -0.0012246555845272697 0.006156744997347429 -0.02430783997660434
v -0.00235195653371177 0.005678125316453675 0.018608323113217782
v -2.8977207192461627e-09 0.0062744520565229285 -0.02430783997660434
v -0.001199573555698717 0.006030663486083451 0.018608323113217782
v 2.218285154960957e-09 0.006145960282580461 0.018608323113217782
v 0.002401125473257828 0.005796838669610661 -0.02430783997660434
v 0.002351960957493644 0.005678126247776183 0.018608323113217782
v 0.0015285839573681965 0.0036903098339713934 0.021923017304037017
v 0.0012246497637616455 0.0061567454630086825 -0.02430783997660434
v 0.0011995762332508682 0.006030663951744704 0.018608323113217782
v 0.0015285846558600702 0.0036903091354795045 0.028217487206777657
v 5.029140289272889e-09 0.0039943617234613656 0.028217487206777657
v 0.0013322628002330132 0.003216347464163207 0.0285083466799591
v 0.002824451139230315 0.0028244387992070034 0.02821748720677766
v 3.398460128916422e-09 0.0034813508630876103 0.0285083466799591
v 0.0024616989227069274 0.0024616816932403938 0.028508346679959103
v -0.0013322560481448908 0.0032163472313325838 0.0285083466799591
v 0.0036903200785190346 0.0015285728979133307 0.028217487206777664
v 0.0032163621324928114 0.0013322441737826998 0.028508346679959107
v 0.003994375227637819 -5.534769209182568e-09 0.02821748720677767
v 0.0034813748446423987 -1.1867569334184709e-08 0.02850834667995911
v 0.0036903200785190346 -0.0015285840737835734 0.028217487206777674
v 0.0032163621324928114 -0.0013322694359060362 0.028508346679959117
v 0.0028244504407384415 -0.0028244497422466124 0.021923017304037038
v 0.002824451139230315 -0.002824450673569131 0.028217487206777678
v 0.0024616989227069274 -0.002461707304609671 0.02850834667995912
v 0.0015285846558600702 -0.003690320777010996 0.02821748720677768
v 0.0013322628002330132 -0.0032163740068549976 0.02850834667995912
v 5.029140289272889e-09 -0.003994373830654109 0.028217487206777685
v 3.398460128916422e-09 -0.0034813769401181353 0.028508346679959124
v 4.278783683873127e-09 -0.003994373830654109 0.02192303965577749
v 0.0015285839573681965 -0.0036903203113497368 0.021923028479907264
v 0.0011995762332508682 -0.006030672799308638 0.01860832311321782
v 2.218285154960957e-09 -0.006145969595805649 0.01860832311321782
v -2.89772094129075e-09 -0.006274447399910335 -0.024307841839249337
v 0.0012246497637616455 -0.006156740806396095 -0.02430784183924934
v -3.013153706465888e-09 -0.005332223751092404 -0.025276162076364777
v 0.002351960957493644 -0.005678135095340122 0.01860832311321782
v 0.002040552784258915 -0.004926332442670535 -0.025276162076364777
v 0.0034161033387474313 -0.0051125578308719765 0.018608323113217817
v 0.002401125473257828 -0.00579683308167556 -0.02430784183924934
v -3.209089846911189e-09 -0.005332223751092404 -0.026919793585040964
v 0.0034875120272103684 -0.0052194322121708 -0.02430784183924934
v 0.004345856811870115 -0.004345857743192689 0.018608323113217817
v 0.005112557365210663 -0.0034161028730862295 0.018608323113217813
v 0.004436703132621594 -0.0044367035982828045 -0.024307841839249344
v 0.0037704487397249237 -0.0037704513008617983 -0.02527616207636478
v 0.005219431280848332 -0.0034875117943796922 -0.02430783997660431
v 0.005678134629678811 -0.002351962121646851 0.01860832311321781
v 0.005796832616014353 -0.002401124541935264 -0.02430784183924935
v 0.0049263324426705914 -0.002040551852936347 -0.02527616021371975
v 0.004926331977009335 -0.0020405513872750877 -0.0269197898597509
v 0.0020405525514282895 -0.004926331511348016 -0.026919793585040964
v 0.0037704503695393356 -0.0037704513008617983 -0.026919793585040968
v 0.0012246494145157077 -0.006156740340734835 -0.027100773764816875
v -3.2306645871706027e-09 -0.006274446934249075 -0.027100773764816875
v -3.3575786118100777e-09 -0.006274446468587816 -0.028165407651529927
v 0.0012246492981003955 -0.006156739875073576 -0.028165407651529927
v 0.0024011250075965753 -0.005796832150353041 -0.027100773764816878
v 0.002401125007596578 -0.005796831684691781 -0.028165407651529927
v 0.0034875117943797456 -0.0052194312808482805 -0.027100773764816878
v 0.0034875115615491184 -0.0052194312808482805 -0.02816540765152993
v 0.0044367031326216005 -0.0044367026669602854 -0.02710077376481688
v 0.0044367026669603436 -0.0044367026669602854 -0.02816540765152993
v 0.005219432677832119 -0.0034875113287184327 -0.028165407651529934
v 0.005219430815187079 -0.0034875113287184327 -0.027100773764816885
v 0.005796832150353101 -0.002401124309104635 -0.02710077376481689
v 0.005796832150353103 -0.002401124309104635 -0.028165407651529938
v 0.006156739875073642 -0.0012246484831931381 -0.028165403926239868
v 0.006156740340734898 -0.001224648716023768 -0.027100773764816892
v 0.006274447399910403 3.922977691894516e-09 -0.02816540392623987
v 0.005332223751092469 3.607719449156996e-09 -0.026919789859750905
v 0.006274447399910401 3.741615666276361e-09 -0.027100773764816895
v 0.006156740340734898 0.001224656166603888 -0.0271007737648169
v 0.006156739875073642 0.0012246562830192029 -0.028165403926239875
v 0.005796832150353103 0.0024011317596847564 -0.02816540392623988
v 0.004926331977009335 0.002040558372193954 -0.026919789859750912
v 0.005796832150353101 0.0024011317596847564 -0.027100773764816902
v 0.005219430815187079 0.003487518313637298 -0.02710077190217187
v 0.005219432677832119 0.003487518546467928 -0.028165403926239882
v 0.0037704503695393356 0.0037704578201194112 -0.026919789859750916
v 0.0044367031326216005 0.004436709186217896 -0.02710077190217187
v 0.0044367026669603436 0.0044367096518791544 -0.028165403926239885
v 0.0034875115615491184 0.005219438265767155 -0.02816540392623989
v 0.0034875117943797456 0.0052194373344446356 -0.027100771902171875
v 0.002401125007596578 0.005796838669610661 -0.02816540392623989
v 0.0020405525514282895 0.0049263380306056375 -0.02691978985975092
v 0.0024011250075965753 0.005796838669610661 -0.027100771902171878
v 0.0012246492981003955 0.006156746394331201 -0.028165403926239892
v 0.0012246494145157077 0.006156746394331201 -0.027100771902171878
v -0.0033488693034748394 0.0006661215048147877 -0.015871842370800936
v 0.0028390277336324205 0.0018969691617308907 -0.015871842370800943
v 0.000666124531613004 0.003348855566467725 -0.015871842370800946
v -0.0018969910478100493 0.0028390205158828666 -0.015871842370800943
v -0.0028390382110106793 -0.001896983015153357 -0.01587184237080093
v 0.0033488620857253966 -0.0006661347179530223 -0.015871842370800932
v 0.0018969705587147145 -0.002839034951381907 -0.015871842370800925
v -0.0006661316329471325 -0.0033488702347973954 -0.015871842370800925
vt 0.70821255 0.39243752
vt 0.71153903 0.6306345
vt 0.72222054 0.39243752
vt 0.70424515 0.6306345
vt 0.71883297 0.6306345
vt 0.7261269 0.6306345
vt 0.7333903 0.63060397
vt 0.73625904 0.392407
vt 0.7406842 0.63057345
vt 0.694174 0.392407
vt 0.6969512 0.63060397
vt 0.6896573 0.63057345
vt 0.68236333 0.63054293
vt 0.680166 0.39234596
vt 0.67509997 0.6305124
vt 0.6661275 0.3922544
vt 0.667806 0.6304514
vt 0.6605121 0.63039035
vt 0.65321815 0.6303293
vt 0.6521195 0.39210182
vt 0.64592427 0.63023776
vt 0.638081 0.3919492
vt 0.63863033 0.6301462
vt 0.6313364 0.63005465
vt 0.6240425 0.6299631
vt 0.6240425 0.39173558
vt 0.81923884 0.26392406
vt 0.8127384 0.25168616
vt 0.79366434 0.2642903
vt 0.8338267 0.24298838
vt 0.7878658 0.28913236
vt 0.7772759 0.28025147
vt 0.76430553 0.29917294
vt 0.7682424 0.32441175
vt 0.755089 0.32026124
vt 0.7504196 0.34284493
vt 0.8576922 0.25208288
vt 0.85619676 0.23831904
vt 0.87905514 0.23798333
vt 0.81951356 0.31553087
vt 0.86214787 0.2931913
vt 0.8978851 0.2552568
vt 0.90160835 0.24192022
vt 0.9230018 0.2502823
vt 0.83874017 0.30042422
vt 0.93398845 0.2733848
vt 0.9425337 0.26255074
vt 0.9591052 0.27860346
vt 0.96029544 0.30420852
vt 0.97238076 0.297586
vt 0.9085055 0.3054903
vt 0.9812921 0.31894895
vt 0.8865627 0.29486984
vt 0.8637043 0.3068636
vt 0.90047914 0.31592762
vt 0.97222817 0.3429365
vt 0.9859615 0.3416242
vt 0.92443615 0.32377088
vt 0.98568684 0.3647267
vt 0.91311383 0.33005768
vt 0.9315775 0.3469039
vt 0.9678335 0.38315988
vt 0.9810175 0.38731042
vt 0.9718009 0.4084292
vt 0.92870873 0.3709525
vt 0.94821006 0.41843927
vt 0.95883054 0.42732018
vt 0.9424116 0.44328135
vt 0.91866815 0.3480636
vt 0.91683704 0.44364756
vt 0.92336804 0.4558855
vt 0.9022492 0.46458328
vt 0.91619617 0.3668325
vt 0.910123 0.34867397
vt 0.87838376 0.45548874
vt 0.8799097 0.46928313
vt 0.8570513 0.4695883
vt 0.9063387 0.38325143
vt 0.8382214 0.45231482
vt 0.8344676 0.46565142
vt 0.8130741 0.45728934
vt 0.8973662 0.40717795
vt 0.9165624 0.39207128
vt 0.89095736 0.39500105
vt 0.8739585 0.4143803
vt 0.84954375 0.41270182
vt 0.8723716 0.40073854
vt 0.8530229 0.3996704
vt 0.82760096 0.4021119
vt 0.802118 0.43418685
vt 0.7935728 0.4450209
vt 0.77697074 0.42896816
vt 0.775811 0.40339366
vt 0.7637257 0.40998566
vt 0.75481427 0.38865322
vt 0.76384777 0.36463514
vt 0.75014496 0.36597797
vt 0.80449843 0.36069825
vt 0.8116398 0.38380077
vt 0.8356273 0.39164403
vt 0.80736715 0.33661917
vt 0.8174383 0.35950804
vt 0.82973725 0.3243507
vt 0.8199103 0.34073916
vt 0.8229926 0.3775445
vt 0.82598346 0.3588977
vt 0.83040863 0.37324136
vt 0.8406018 0.3844722
vt 0.8280282 0.34388256
vt 0.9056978 0.33436078
vt 0.83623767 0.33051544
vt 0.8955046 0.32309946
vt 0.88119143 0.31669056
vt 0.90804774 0.36368906
vt 0.854915 0.39091158
vt 0.8998688 0.37705618
vt 0.87118137 0.39164403
vt 0.88683736 0.3868221
vt 0.8492386 0.32074952
vt 0.8451186 0.31257057
vt 0.86489457 0.31592762
vt 0.88305306 0.30793175
vt 0.4277169 0.8089541
vt 0.46732995 0.1010773
vt 0.44856104 0.1010773
vt 0.44248787 0.8089541
vt 0.43800166 0.8733787
vt 0.4573809 0.8089541
vt 0.4860378 0.1010773
vt 0.46824548 0.07809687
vt 0.4133732 0.8089541
vt 0.40913114 0.8733787
vt 0.429487 0.1010773
vt 0.4667501 0.8733787
vt 0.3991516 0.8089541
vt 0.43046358 0.07809687
vt 0.41019928 0.1010773
vt 0.37998596 0.8733787
vt 0.38541827 0.8089541
vt 0.39030123 0.1010773
vt 0.39271218 0.07809687
vt 0.37165442 0.1010773
vt 0.37018952 0.8089541
vt 0.3005463 0.016693626
vt 0.31940672 0.035126805
vt 0.31940672 0.016693626
vt 0.35572374 0.07809687
vt 0.31940672 0.05139317
vt 0.3193762 0.07809687
vt 0.30060732 0.035126805
vt 0.2817774 0.035126805
vt 0.2816553 0.016693626
vt 0.28214362 0.05139317
vt 0.28312021 0.07809687
vt 0.2630085 0.035126805
vt 0.26279488 0.016693626
vt 0.24472792 0.05139317
vt 0.24420911 0.035126805
vt 0.24384288 0.016693626
vt 0.22492142 0.016693626
vt 0.22540972 0.035126805
vt 0.20596942 0.016693626
vt 0.20648824 0.035126805
vt 0.20712912 0.05139317
vt 0.18762779 0.035126805
vt 0.18701743 0.016693626
vt 0.16797388 0.016693626
vt 0.16861476 0.035126805
vt 0.14972381 0.035126805
vt 0.16937773 0.05139317
vt 0.14889981 0.016693626
vt 0.17078158 0.07809687
vt 0.13068026 0.035126805
vt 0.12979522 0.016693626
vt 0.13165686 0.05139317
vt 0.11175878 0.035126805
vt 0.110629596 0.016693626
vt 0.09274575 0.035126805
vt 0.09155553 0.016693626
vt 0.09411909 0.05139317
vt 0.073885314 0.035126805
vt 0.07238991 0.016693626
vt 0.096285895 0.07809687
vt 0.054750208 0.035126805
vt 0.05285806 0.016693626
vt 0.05719169 0.05139317
vt 0.035828732 0.035126805
vt 0.033082064 0.016693626
vt 0.016022218 0.035126805
vt 0.013702811 0.016693626
vt 0.022003846 0.05139317
vt 0.059846796 0.07809687
vt 0.024658956 0.07809687
vt 0.04235969 0.1010773
vt 0.022461623 0.1010773
vt 0.08572649 0.8089541
vt 0.06680502 0.8089541
vt 0.09121983 0.8733787
vt 0.10318308 0.8089541
vt 0.11749626 0.8733787
vt 0.061128575 0.1010773
vt 0.07959227 0.1010773
vt 0.120212406 0.8089541
vt 0.09784234 0.1010773
vt 0.13873714 0.9762871
vt 0.113956116 0.9762871
vt 0.11795404 0.98568684
vt 0.14059877 0.98568684
vt 0.16367076 0.9762871
vt 0.16479996 0.98568684
vt 0.14548174 0.8733787
vt 0.18903165 0.9762871
vt 0.18979461 0.98568684
vt 0.21536912 0.98568684
vt 0.13644825 0.8089541
vt 0.11612293 0.1010773
vt 0.15243995 0.8089541
vt 0.17401654 0.8733787
vt 0.21481979 0.9762871
vt 0.2414014 0.98568684
vt 0.13333537 0.07809687
vt 0.1345256 0.1010773
vt 0.16788232 0.8089541
vt 0.15298928 0.1010773
vt 0.18317209 0.8089541
vt 0.20270394 0.8733787
vt 0.17169714 0.1010773
vt 0.19797356 0.8089541
vt 0.21262245 0.8089541
vt 0.19049653 0.1010773
vt 0.23157445 0.8733787
vt 0.24097416 0.9762871
vt 0.2677999 0.98568684
vt 0.2674032 0.9762871
vt 0.22675252 0.8089541
vt 0.26071963 0.8733787
vt 0.24076052 0.8089541
vt 0.2903531 0.8733787
vt 0.2941374 0.9762871
vt 0.3205359 0.8733787
vt 0.2095706 0.1010773
vt 0.20853297 0.07809687
vt 0.2288583 0.1010773
vt 0.24628437 0.07809687
vt 0.24884793 0.1010773
vt 0.25412762 0.8089541
vt 0.2674337 0.1010773
vt 0.26911223 0.8089541
vt 0.28498185 0.1010773
vt 0.30204168 0.1010773
vt 0.2854396 0.8089541
vt 0.31928465 0.1010773
vt 0.3023469 0.8089541
vt 0.31916258 0.8089541
vt 0.35389262 0.1010773
vt 0.35337383 0.8089541
vt 0.35050508 0.8733787
vt 0.3366497 0.1010773
vt 0.33610034 0.8089541
vt 0.34803307 0.9762871
vt 0.3212073 0.9762871
vt 0.3477584 0.98568684
vt 0.37443158 0.9762871
vt 0.32114628 0.98568684
vt 0.3741264 0.98568684
vt 0.29441205 0.98568684
vt 0.4006775 0.9762871
vt 0.40028077 0.98568684
vt 0.4267098 0.9762871
vt 0.42619097 0.98568684
vt 0.45240638 0.9762871
vt 0.45167395 0.98568684
vt 0.4953154 0.8733787
vt 0.47770622 0.9762871
vt 0.47660756 0.98568684
vt 0.5026093 0.9762871
vt 0.5008087 0.98568684
vt 0.5274209 0.9762871
vt 0.5234535 0.98568684
vt 0.54963833 0.8733787
vt 0.5233314 0.8733787
vt 0.5550401 0.8089541
vt 0.5739616 0.8089541
vt 0.616657 0.1010773
vt 0.59675896 0.1010773
vt 0.6144292 0.07809687
vt 0.53758353 0.8089541
vt 0.57924134 0.07809687
vt 0.5205237 0.8089541
vt 0.57795954 0.1010773
vt 0.6171148 0.05139317
vt 0.5594958 0.1010773
vt 0.5042573 0.8089541
vt 0.48823512 0.8089541
vt 0.54121524 0.1010773
vt 0.5428022 0.07809687
vt 0.5229347 0.1010773
vt 0.4727317 0.8089541
vt 0.504532 0.1010773
vt 0.5057222 0.07809687
vt 0.50740075 0.05139317
vt 0.5818964 0.05139317
vt 0.544969 0.05139317
vt 0.6032594 0.035126805
vt 0.6230354 0.035126805
vt 0.6252327 0.016693626
vt 0.6059145 0.016693626
vt 0.5843684 0.035126805
vt 0.5863521 0.016693626
vt 0.5652638 0.035126805
vt 0.5668813 0.016693626
vt 0.5464034 0.035126805
vt 0.5476546 0.016693626
vt 0.5285196 0.016693626
vt 0.52735984 0.035126805
vt 0.50840783 0.035126805
vt 0.50935394 0.016693626
vt 0.49015778 0.016693626
vt 0.48933378 0.035126805
vt 0.47099215 0.016693626
vt 0.46961883 0.05139317
vt 0.4703818 0.035126805
vt 0.4513077 0.035126805
vt 0.45188758 0.016693626
vt 0.432844 0.016693626
vt 0.4318064 0.05139317
vt 0.43238625 0.035126805
vt 0.41343424 0.035126805
vt 0.4138615 0.016693626
vt 0.39414656 0.05139317
vt 0.39460433 0.035126805
vt 0.3949095 0.016693626
vt 0.37598804 0.016693626
vt 0.3757744 0.035126805
vt 0.3570971 0.016693626
vt 0.3566698 0.05139317
vt 0.35700554 0.035126805
vt 0.33823663 0.016693626
vt 0.3381756 0.035126805
vt 0.8071535 0.61412394
vt 0.7574694 0.61412394
vt 0.7720267 0.6286813
vt 0.7925962 0.6286813
vt 0.8071535 0.5935545
vt 0.7574694 0.5935545
vt 0.7720267 0.57899714
vt 0.7925962 0.57899714
vn -0.7593621752024284 0.15247634628488457 0.632550082400691
vn -0.999991535745591 -0.00098233524403621 0.003929197552486661
vn -0.6438296647012131 -0.4286637943084743 0.6338219858392408
vn -0.9237130326127982 0.3830653497215395 0.003843456276120513
vn -0.9239044827203298 -0.3826140829830165 0.0025593636884498885
vn -0.7064110212864483 -0.7077961139386315 0.0027702449090133844
vn -0.38415933330610574 -0.9232631367810264 0.0025610326184051894
vn -0.15085706699742799 -0.7588105938527699 0.6335992432950808
vn 0.001966535927082291 -0.9999901648388434 0.003933042051847193
vn -0.42865547946103016 0.6454850047965942 0.6321416713991932
vn -0.7084856204280245 0.70571263370552 0.004159420479115976
vn -0.3799746404591191 0.9249887507483837 0.0038381067595711633
vn -0.0009813308127021862 0.9999950524194217 0.002944052042744545
vn 0.1524763015814003 0.759362294411709 0.6325500824006891
vn 0.3861604101227629 0.9224234265958133 0.003848805792666412
vn 0.6426069946962926 0.43229926018913173 0.6325923420913003
vn 0.7057126337055183 0.7084855608233817 0.004159383226215218
vn 0.9249886911437416 0.37997452124983444 0.0038381440124736523
vn 0.9999949332101393 0.000981330812699753 0.002944056233699067
vn 0.7596210977637943 -0.14921130834811933 0.6330174423923343
vn 0.9226181549586118 -0.38570553730345414 0.0025627909553188476
vn 0.43048504392263376 -0.6423904510348187 0.6340477682201037
vn 0.7091785243819643 -0.705023246425411 0.0027702449090133757
vn 0.38106990554347336 -0.9245423715904436 0.002557426537612647
vn 0.001966535927082291 -0.9999901648388434 0.003933042051847193
vn -0.15085706699742799 -0.7588105938527699 0.6335992432950808
vn 0.2256930335050809 0.09456420867493963 -0.9695978775006989
vn 0.41545400510968666 0.17226145127987375 -0.8931538522792964
vn 0.40874335697564346 0.08065511547385937 -0.9090781858498982
vn 0.34750009478300614 0.23118203981426425 -0.9087343862794621
vn 0.2433733198054087 0.001187086034120923 -0.969931782700696
vn 0.4477382927710942 0.0013130008386535513 -0.8941635549012089
vn 0.41039047163053977 -0.08071022741523008 -0.9083309820678256
vn 0.22666548322624444 -0.09192545160441484 -0.9696246995892379
vn 0.4137194802484719 -0.17214212278819513 -0.8939815223269862
vn 0.34576327514310523 -0.23099306329934413 -0.9094445159747069
vn 0.17342795881162462 0.17085865604925324 -0.9699121727737421
vn 0.31798447250761785 0.3149985482044248 -0.8942379414934264
vn 0.2311819355061452 0.3475000053760416 -0.9087343862794626
vn -0.2602742754220534 0.0011995061512320097 -0.965533675435896
vn -0.18523826083737677 -0.18393376856125518 -0.9653262512845224
vn 0.09456419377378222 0.22569301860391802 -0.9695978775006994
vn 0.17226140657639602 0.4154539455050429 -0.8931537926746561
vn 0.08065497391283971 0.4087435357895647 -0.9090781858498992
vn -0.24009580959746785 -0.10089128604170622 -0.9654918925824151
vn 0.0011871456387650655 0.24337330490424602 -0.9699317230960556
vn 0.0013129710363362068 0.44773829277109206 -0.8941635549012104
vn -0.0806550931221177 0.4087434165802827 -0.9090781858498992
vn -0.09456419377377753 0.22569309310972 -0.9695977582914169
vn -0.17226152578567408 0.4154539157027231 -0.8931537330700149
vn 2.342475087868465e-15 -0.25997345079792383 -0.9656154530036203
vn -0.23118196530846138 0.3475000053760427 -0.9087343862794626
vn -0.09959628580469196 -0.24132964057145184 -0.9653187410997311
vn 0.06739428235046449 0.06739443881264506 -0.9954474567144945
vn 0.0010669230774665187 0.09496000584424272 -0.9954803584764365
vn -0.17342798861394051 0.17085870075273496 -0.9699122323783833
vn -0.31798438310065175 0.3149986078090676 -0.8942379414934264
vn 0.09959640501397904 -0.24132962567029204 -0.9653187410997311
vn -0.3474999755737193 0.23118199511078502 -0.9087343862794621
vn -0.036136863447630375 0.08869918648674914 -0.9954025148150304
vn 0.18523826083738143 -0.1839337536600958 -0.9653263704938049
vn -0.2256930931097174 0.09456418632320027 -0.9695977582914165
vn -0.4154539455050411 0.17226143637871547 -0.8931538522792964
vn -0.4087433867779596 0.0806551080232812 -0.909078126245257
vn 0.2400958393997931 -0.10089136799808904 -0.9654918329777739
vn -0.2433733794100452 0.0011871866169541273 -0.969931782700696
vn -0.44773823316644873 0.001313105146777822 -0.8941634952965677
vn -0.4103903822235735 -0.0807101827117472 -0.9083309820678256
vn -0.06739437175742147 0.06739435685626374 -0.9954474567144945
vn -0.2266655130285603 -0.09192542180209314 -0.9696246399845967
vn -0.41371945044614694 -0.17214201848007102 -0.893981462722345
vn -0.3457632751431008 -0.23099307820050274 -0.9094445159747069
vn -0.08869924609138784 0.03613677776596128 -0.9954025148150303
vn -0.36002988443267314 0.36002991423499675 -0.8606721838485587
vn -0.1723200575433314 -0.1736060127760439 -0.9696218385664601
vn -0.3167648125370767 -0.3182591008919398 -0.8935160100792208
vn -0.23248411810241776 -0.34436721523693686 -0.9095943620426811
vn -0.09496011760294255 0.0010669547424299712 -0.9954803584764361
vn -0.09320035017618003 -0.22544418412807204 -0.9697877778875582
vn -0.1706355111737623 -0.41502017272871633 -0.8936672866585837
vn -0.08211495979668695 -0.40920639563079636 -0.908739154650756
vn 0.2410628352962869 0.09821086532698216 -0.9655271785300056
vn 0.2602743350266993 0.0011994092936887983 -0.9655337350405372
vn -0.08770101736290571 -0.038369213722722464 -0.9954074023956083
vn 0.18374653548209127 0.18374650567976789 -0.9656469242541749
vn 0.10079788556895014 0.23859736381888455 -0.9658730642628844
vn -0.06856944745634136 -0.06746346843773378 -0.9953625797054265
vn -0.03727099075804648 -0.08879246029964542 -0.9953524469164226
vn 0.0011993645902108729 0.2602742754220557 -0.9655336754358967
vn 2.353117798341955e-15 -0.2430935952242589 -0.9700025930144398
vn 5.960464336889168e-08 -0.4472134441030133 -0.8944269478106663
vn 0.08211504920365316 -0.40920630622383497 -0.908739154650756
vn 0.09320040978082596 -0.2254441543257519 -0.9697877182829171
vn 0.17063551117376663 -0.4150202025310378 -0.893667346263225
vn 0.2324841777070634 -0.3443671556322968 -0.9095943620426811
vn 0.17232005754333612 -0.17360596807256384 -0.9696218385664601
vn 0.31676478273476044 -0.31825895188033837 -0.8935160100792208
vn -0.1837465354820866 0.18374656528440997 -0.9656469242541749
vn -0.10079782596430426 0.23859743832468655 -0.9658730046582432
vn 2.980232301450456e-08 -0.09485932615467728 -0.9954904912654398
vn -0.24106292470324403 0.09821087277756348 -0.9655272381346468
vn 0.06856944745634619 -0.06746346843773411 -0.9953625797054265
vn 0.09496005799830619 0.0010668522969524495 -0.9954803584764361
vn 0.08770104716523114 -0.03836926960207402 -0.9954075216048908
vn 0.03727096095573071 -0.08879237834326396 -0.9953524469164226
vn 0.35820684667928193 -0.35975078570026126 -0.8615490873298777
vn 0.1937475833277297 -0.46946504875546624 -0.8614312489542267
vn 5.960464328981688e-08 -0.5071953826809156 -0.861830719259543
vn 0.4681661146121362 -0.19531768878619576 -0.8617835719883555
vn -0.19543199558685215 0.4699319319099789 -0.8607959230836884
vn 0.5077804618389282 0.0013397335202312074 -0.8614851315498722
vn 0.0013397931248757282 0.5077805810482084 -0.861485191154515
vn 0.1954319955868563 0.4699319617122985 -0.8607959230836884
vn -0.4699319915146175 0.19543198068569506 -0.8607959230836875
vn -0.19374753862424465 -0.4694651381624271 -0.8614313085588678
vn -0.5077805214435652 0.00133980057545502 -0.8614851911545134
vn -0.3582068466792777 -0.35975072609561837 -0.8615491469345189
vn -0.4681662040190938 -0.1953177185885141 -0.8617836315929968
vn 0.4699319617123011 0.1954321445984561 -0.8607961018976111
vn 0.08869927589371326 0.036136684633708976 -0.9954024552103891
vn 0.36002988443267736 0.3600298546303538 -0.8606721838485587
vn 0.036136684633711606 0.08869927589371077 -0.9954024552103892
vn 0.9410720498970622 0.18600987272001993 0.28245948050421177
vn 0.9303024449066434 0.001269072218088635 -0.36679048125604335
vn 0.908011381981717 0.18217613200041372 -0.3772622716567129
vn 0.9599040170746391 0.0012135504948115904 0.28032593237249015
vn 0.9523089552744834 -0.001230418608275578 0.3051326389815456
vn 0.9407933385948151 -0.18898626028062274 0.2814102898075056
vn 0.9087523272764633 -0.1820371637794624 -0.37554115783976677
vn 0.9113382746348868 -0.001294612806846922 -0.4116555205353475
vn 0.8866688673168319 0.3675700205559638 0.2805533240786636
vn 0.8798556395952849 0.36496571496805097 0.30439071021021846
vn 0.858887024844645 0.3574827694979909 -0.3667679805039918
vn 0.8807581134676806 -0.36168570136518874 0.3056927437948948
vn 0.7989860293694895 0.5310812869904046 0.28208766675241065
vn 0.8414620848272143 0.3494340269713483 -0.4121127179356664
vn 0.7714260949764868 0.5115770986693841 -0.3784047734192185
vn 0.6733700825073378 0.6733702017166193 0.3051964457499471
vn 0.6771863888693934 0.6803883501946087 0.2801599334467485
vn 0.6561903559838018 0.6594796381083723 -0.36674297635700975
vn 0.6431276412371694 0.6464513152397117 -0.4104716531518528
vn 0.5152548242406544 0.7688189879704356 -0.37872055880829225
vn 0.5346796191795963 0.7964992045293795 0.2823233435037111
vn -0.1943464460590154 0.9809320576525574 0.0011499150897505866
vn 0.0013743638167676197 0.784740996960032 0.6198218689004659
vn 0.0009793936618632054 0.9999988671164585 0.0009794680512462005
vn 0.3494340567736719 0.8414620252225713 -0.41211268813334734
vn 0.0013831256990237317 0.7288889447615338 0.6846301144855429
vn 0.0012953280625401032 0.9106314827995468 -0.41321680450691994
vn -0.15222117881591082 0.7701487079109481 0.6194345579419541
vn -0.3007553635388461 0.7253511708878024 0.61920221905056
vn -0.38216323347698866 0.9240936082468555 0.001278117222389908
vn -0.2801542114011972 0.6739708972906263 0.6835761852198603
vn -0.34943402697134934 0.8414621444318554 -0.41211268813334734
vn -0.4358658529068867 0.649623772267537 0.6229040845015136
vn -0.5550126100364912 0.8318405248309304 0.001357003965017227
vn -0.5149823714257341 0.5183373378649081 0.682729084059139
vn -0.556344237325522 0.5563442373255219 0.617220901172461
vn -0.7071059517981887 0.7071059517981905 0.001383721745435127
vn -0.8318405248309291 0.5550126100364932 0.0013570188661784102
vn -0.6524907555092148 0.43221256523851076 0.6224528177629958
vn -0.9240937274561369 0.3821631738723497 0.0012781023212313377
vn -0.7253512304924444 0.30075536353884635 0.6192022190505614
vn -0.6739708972906273 0.28015415179655595 0.6835760660105792
vn -0.7685603038276343 0.1555239613917158 0.6205859407959993
vn -0.9809319980479158 0.19434647586133838 0.0011499523426538464
vn -0.999999343953588 -0.0009784702555834552 3.123413353803342e-18
vn -0.785935831597511 -0.0013740955958818205 0.6183061228747749
vn -0.7688143984130661 -0.15225546638575727 0.6210814341782885
vn -0.7302259364682727 -0.0013830511932221223 0.6832038350262917
vn -0.9809759862731207 -0.19412757781652987 5.9604641818660094e-08
vn -0.911338334239526 -0.0012945383010410016 -0.41165569934927104
vn -0.7268336575237074 -0.3007030604661906 0.6174869762907765
vn -0.924280826424861 -0.38171262238952114 5.9604642417327404e-08
vn -0.6755803418122857 -0.2801579366912688 0.6819839068348703
vn -0.6512628402958719 -0.4358451104917463 0.6212045773670067
vn -0.8322585917842996 -0.5543871785363869 1.7692967496857176e-15
vn -0.5545946622924045 -0.5562852883353733 0.6188463793426054
vn -0.7077974848453809 -0.7064150744020481 2.254485331958826e-15
vn -0.5165158796345048 -0.5148390818682884 0.6842159814384954
vn -0.43401798982043177 -0.6526962127074255 0.6209795102418396
vn -0.5559510851121712 -0.8312147953076194 2.6527766730238217e-15
vn -0.645040711801094 -0.6433782191487678 -0.4122940948588321
vn -0.2988895594553903 -0.7279411117571848 0.617062531640799
vn -0.38325411762021483 -0.9236426991361824 5.9604644146867065e-08
vn -0.27837984083734085 -0.6767514538025635 0.68155087911656
vn -0.15390569538315954 -0.7680193917087503 0.6216580494772507
vn -0.19545269329851062 -0.9807128317822261 5.960464432900313e-08
vn -7.450581648213323e-09 -0.7864609484864736 0.6176395045676066
vn 2.7940970669176343e-23 -0.9999998207907176 3.1914444195501328e-15
vn -3.725290240514995e-08 -0.7308712759185338 0.6825149841879559
vn -0.3473633915384128 -0.8433731288333384 -0.4099513046341798
vn -1.4901159302323408e-08 -0.9115580965516281 -0.4111708751977546
vn -0.18041555991099625 -0.9092372110326167 -0.37514982356797166
vn 4.470348179178987e-08 -0.9298697152115369 -0.3678883093399662
vn -0.1874122805204762 -0.9411953122950621 0.2811182270656324
vn 1.1175869542082513e-08 -0.9595775028501511 0.2814437280112208
vn 1.4901159560426479e-08 -0.9524239326273573 0.30477560718076596
vn -0.36611674019424983 -0.8867825929722396 0.28208996153110133
vn -0.3634840627971263 -0.8799342581170264 0.30593247366179926
vn -0.35592920432745784 -0.8588725409168319 -0.36830938632771754
vn -0.5130889703934005 -0.7712571754233265 -0.37669826273936324
vn -0.5324470677388436 -0.7986706016082632 0.280401153429686
vn -0.6581500969817856 -0.6565047108614834 -0.3685641663665238
vn -0.3368624842705202 -0.8119654764323667 0.47669199229157827
vn -3.7252901907028954e-08 -0.8788055846312809 0.4771794688496254
vn -2.108445895956322e-15 -0.4945589007234979 0.8691439107114712
vn -0.1894733196061811 -0.454439851197352 0.8703931047817222
vn -0.622119270190848 -0.6204378828672596 0.47751864906036817
vn -0.3492691009291545 -0.34773714244105197 0.8701090290617668
vn -0.6745820832814821 -0.6729683472256549 0.30340067711990454
vn -0.8109869470378028 -0.3387063538460116 0.477051140057122
vn -0.45574030525903675 -0.18791899447646837 0.8700498416530555
vn -0.4935504199967316 -0.0013339220677143285 0.8697158768484163
vn -0.6792209932967265 -0.6776191781691392 0.28194080091649987
vn -0.7699542775713555 -0.5149271179233389 -0.3768553209689237
vn -0.7974279640485461 -0.5342451013452535 0.28051809773571784
vn -0.8807581730723234 -0.36168585037678747 0.3056926841902536
vn -0.8785024354261434 -0.001327052632815197 0.47773549074504856
vn -0.4548976148417637 0.19114585564054778 0.8697880580689079
vn -0.8424604625672975 -0.3491983204177264 -0.410268818557849
vn -0.8597491463749471 -0.3541052427021226 -0.36802215156178064
vn -0.8875880900934059 -0.36433068712071565 0.28186924554473936
vn -0.9087523272764615 -0.1820371041748168 -0.37554112803744616
vn -0.9407932789901752 -0.18898642419338146 0.28141026000518504
vn -0.9523088956698438 -0.001230396256530508 0.30513257937690436
vn -0.9303024449066416 0.0012691094709938982 -0.36679048125604335
vn -0.9599039574699993 0.0012135504948162477 0.28032596217481076
vn -0.9410720498970635 0.1860098578188642 0.28245948050421177
vn -0.9080113819817153 0.18217604259345632 -0.37726221205207167
vn -0.8798555799906452 0.364965804375017 0.30439068040789785
vn -0.8117830266256583 0.3351981140719976 0.47817343584625793
vn -0.3480141848133484 0.3510803965682324 0.8692688420394219
vn -0.6205869540749013 0.6205870136795428 0.4793150733414642
vn -0.8866688673168333 0.36757008016060927 0.28055335388098424
vn -0.6733700229026981 0.6733700825073402 0.3051964159476265
vn -0.7989859697648496 0.531081465804332 0.2820875773454488
vn -0.36496598318893925 0.8798555799906453 0.3043907400125374
vn -0.3351980842696762 0.8117832054395815 0.4781735252532182
vn -0.0012313424802125978 0.9518352175862337 0.30660666175839657
vn -0.8588870248446432 0.35748276949799507 -0.3667680103063124
vn -0.8414620848272123 0.3494341163783142 -0.4121126583310252
vn -0.7714259161625615 0.5115772774833114 -0.3784047734192185
vn -0.6431277008418085 0.646451374844356 -0.4104715935472116
vn -0.6561903559838 0.6594796977130167 -0.36674300615933036
vn -0.6771865676833183 0.6803882905899709 0.28015981423746605
vn -0.5152548838452938 0.7688189283657969 -0.37872052900597164
vn -0.5346794403656739 0.7964992045293822 0.2823233733060317
vn -0.3574827396956715 0.858887024844645 -0.3667680401086346
vn -0.1821761021980944 0.9080113223770754 -0.3772622418543946
vn -0.3675699609513254 0.8866688673168335 0.28055335388098257
vn 0.0012691616250535803 0.9303025045112837 -0.3667905110583669
vn -0.1860098727200229 0.9410720498970633 0.2824594805042094
vn 0.0012135206924926395 0.9599040170746398 0.2803259323724871
vn 0.3574827694979939 0.8588870248446432 -0.3667680401086346
vn 0.36756996095132405 0.8866688077121905 0.2805533836833032
vn 0.3649659533866172 0.8798555203860023 0.3043907102102168
vn 0.18217607239577566 0.9080113819817157 -0.377262212052074
vn 0.1860098727200215 0.9410720498970624 0.2824594805042094
vn 0.33519811407199446 0.8117831458349387 0.4781735252532182
vn -0.00132778278967318 0.8776407907329679 0.47931671246909635
vn 0.18803383771889776 0.4574994766393848 0.8691011741837285
vn 0.620586954074899 0.6205870732841811 0.47931513294610545
vn -0.0013331919108629485 0.4919688108425111 0.8706115557917138
vn 0.3480142146156648 0.35108036676591015 0.8692688420394219
vn -0.18803377811426075 0.45749947663938567 0.8691012337883697
vn 0.8117830862302972 0.33519817367663485 0.47817352525321977
vn 0.4548974956324771 0.19114594504750737 0.8697879984642667
vn 0.8785024354261411 -0.0013270377316591594 0.4777355205473691
vn 0.4935505094036892 -0.0013338922653961234 0.8697158768484163
vn 0.8109870066424418 -0.3387064134506567 0.4770511698594426
vn 0.45574030525903253 -0.18791891997066906 0.8700499012576968
vn 0.6745820832814805 -0.6729684664349406 0.30340052810830154
vn 0.622119329795487 -0.6204379424719039 0.47751858945572695
vn 0.34926913073147087 -0.34773723184801547 0.870108790643202
vn 0.33686248427051785 -0.8119655360370096 0.47669199229157827
vn 0.1894733345073372 -0.4544398213950323 0.8703930451770809
vn -3.7252901907028954e-08 -0.8788055846312809 0.4771794688496254
vn -2.108445895956322e-15 -0.4945589007234979 0.8691439107114712
vn 1.4901159560426479e-08 -0.9524239326273573 0.30477560718076596
vn 0.36348406279712486 -0.879934198512387 0.3059325332664405
vn 0.18741225071815423 -0.941195312295063 0.281118405879556
vn 1.1175869542082513e-08 -0.9595775028501511 0.2814437280112208
vn 4.470348179178987e-08 -0.9298697152115369 -0.3678883093399662
vn 0.18041564931795986 -0.9092372110326176 -0.37514979376565105
vn -1.4901159302323408e-08 -0.9115580965516281 -0.4111708751977546
vn 0.3661166805896073 -0.8867827121815237 0.28208984232181894
vn 0.34736345114305595 -0.84337312883334 -0.4099513046341798
vn 0.5324470677388423 -0.7986706016082658 0.2804009746157624
vn 0.3559292341297802 -0.8588726005214747 -0.368309356525397
vn -3.725290240514995e-08 -0.7308712759185338 0.6825149841879559
vn 0.5130889703934023 -0.771257175423329 -0.37669826273936324
vn 0.6792209336920839 -0.6776192377737836 0.2819407115095381
vn 0.7974279640485448 -0.5342452801591809 0.28051806793339723
vn 0.6581500373771462 -0.6565047108614867 -0.3685641663665238
vn 0.6450407714057372 -0.6433783383580534 -0.4122940948588321
vn 0.7699543967806396 -0.5149271179233427 -0.3768553507712443
vn 0.8875879708841222 -0.3643308063300023 0.28186891771921274
vn 0.8597492059795901 -0.3541052725044474 -0.36802212175946003
vn 0.8424604625672995 -0.34919832041773047 -0.41026887816249025
vn 0.6755803418122823 -0.2801578770866309 0.6819839664395115
vn 0.2783799004419787 -0.6767514538025649 0.6815509387212012
vn 0.5165158796345015 -0.5148391414729322 0.6842159814384954
vn 0.15390569538315654 -0.7680195109180336 0.6216581090818919
vn -7.450581648213323e-09 -0.7864609484864736 0.6176395045676066
vn 2.7940970669176343e-23 -0.9999998207907176 3.1914444195501328e-15
vn 0.19545269329851062 -0.980712831782227 -5.9604638069221015e-08
vn 0.2988895892577079 -0.7279411117571862 0.617062531640799
vn 0.38325411762021483 -0.9236426991361842 -2.9802317651801365e-08
vn 0.4340180196227494 -0.6526962127074276 0.6209795698464808
vn 0.5559510851121712 -0.831214735702981 2.6527757274195418e-15
vn 0.5545946622924014 -0.5562852883353759 0.6188464389472467
vn 0.7077974848453809 -0.7064150744020515 -1.4901158045293614e-08
vn 0.8322586513889408 -0.5543871785363909 2.980232236885159e-08
vn 0.6512627806912276 -0.4358451700963906 0.621204636971648
vn 0.7268335383144221 -0.30070314987315594 0.6174868570814941
vn 0.924280826424861 -0.381712592587205 1.2182141138824973e-15
vn 0.9809759862731207 -0.19412757781653464 -2.980231998000915e-08
vn 0.7688144580177041 -0.1522554067811198 0.6210813745736473
vn 0.999999343953588 -0.0009784697899270474 -5.238689136670166e-10
vn 0.7302259960729106 -0.0013829468851035667 0.6832038946309328
vn 0.7859357123882255 -0.001373946584282636 0.6183062420840574
vn 0.7685603038276312 0.15552400609519296 0.6205859407959993
vn 0.980932057652557 0.19434632684973063 0.0011500082220049705
vn 0.9240936678514958 0.3821631738723452 0.0012781395741320871
vn 0.6739710164999063 0.2801542710058351 0.6835761852198616
vn 0.7253512900970825 0.30075518472491924 0.6192022786552026
vn 0.6524908151138529 0.4322124758315458 0.622452877367637
vn 0.8318404652262879 0.5550125504318479 0.0013570710202394595
vn 0.5149823118210896 0.5183373378649055 0.682729084059139
vn 0.5563444161394426 0.5563441181162367 0.617220901172461
vn 0.7071058921935475 0.707105951798187 0.001383729196015277
vn 0.5550125504318499 0.8318404056216453 0.0013570561190782762
vn 0.43586582310456307 0.6496238318721761 0.6229040845015136
vn 0.3821631440700269 0.9240937870607773 0.0012781470247105074
vn 0.28015412199423206 0.6739710164999073 0.683576066010578
vn 0.3007553635388431 0.725351170887801 0.61920221905056
vn 0.1943463566520536 0.9809321172571976 0.0011500044967123852
vn 0.15222122351938874 0.7701487079109475 0.6194345579419541
vn 0.7596210977637943 -0.14921130834811933 0.6330174423923343
vn -0.6438296647012131 -0.4286637943084743 0.6338219858392408
vn -0.15085706699742799 -0.7588105938527699 0.6335992432950808
vn 0.43048504392263376 -0.6423904510348187 0.6340477682201037
vn 0.6426069946962926 0.43229926018913173 0.6325923420913003
vn -0.7593621752024284 0.15247634628488457 0.632550082400691
vn -0.42865547946103016 0.6454850047965942 0.6321416713991932
vn 0.1524763015814003 0.759362294411709 0.6325500824006891
f 1/1/1 2/2/2 3/3/3
f 2/2/2 1/1/1 4/4/4
f 3/3/3 2/2/2 5/5/5
f 3/3/3 5/5/5 6/6/6
f 3/3/3 6/6/6 7/7/7
f 3/3/3 7/7/7 8/8/8
f 8/8/8 7/7/7 9/9/9
f 4/4/4 1/1/1 10/10/10
f 4/4/4 10/10/10 11/11/11
f 11/11/11 10/10/10 12/12/12
f 12/12/12 10/10/10 13/13/13
f 13/13/13 10/10/10 14/14/14
f 13/13/13 14/14/14 15/15/15
f 15/15/15 14/14/14 16/16/16
f 15/15/15 16/16/16 17/17/17
f 17/17/17 16/16/16 18/18/18
f 18/18/18 16/16/16 19/19/19
f 19/19/19 16/16/16 20/20/20
f 19/19/19 20/20/20 21/21/21
f 21/21/21 20/20/20 22/22/22
f 21/21/21 22/22/22 23/23/23
f 23/23/23 22/22/22 24/24/24
f 24/24/24 22/22/22 25/25/25
f 25/25/25 22/22/22 26/26/26
f 27/27/27 28/28/28 29/29/29
f 28/28/28 27/27/27 30/30/30
f 27/27/27 29/29/29 31/31/31
f 31/31/31 29/29/29 32/32/32
f 31/31/31 32/32/32 33/33/33
f 31/31/31 33/33/33 34/34/34
f 34/34/34 33/33/33 35/35/35
f 34/34/34 35/35/35 36/36/36
f 30/30/30 27/27/27 37/37/37
f 30/30/30 37/37/37 38/38/38
f 38/38/38 37/37/37 39/39/39
f 40/40/40 27/27/27 31/31/31
f 40/40/40 31/31/31 34/34/34
f 37/37/37 27/27/27 41/41/41
f 39/39/39 37/37/37 42/42/42
f 42/42/42 37/37/37 41/41/41
f 39/39/39 42/42/42 43/43/43
f 43/43/43 42/42/42 44/44/44
f 27/27/27 40/40/40 45/45/45
f 27/27/27 45/45/45 41/41/41
f 44/44/44 42/42/42 46/46/46
f 44/44/44 46/46/46 47/47/47
f 47/47/47 46/46/46 48/48/48
f 48/48/48 46/46/46 49/49/49
f 48/48/48 49/49/49 50/50/50
f 46/46/46 42/42/42 51/51/51
f 46/46/46 51/51/51 49/49/49
f 50/50/50 49/49/49 52/52/52
f 53/53/53 42/42/42 41/41/41
f 42/42/42 53/53/53 51/51/51
f 53/53/53 41/41/41 54/54/54
f 54/54/54 41/41/41 45/45/45
f 51/51/51 53/53/53 55/55/55
f 52/52/52 49/49/49 56/56/56
f 52/52/52 56/56/56 57/57/57
f 58/58/58 49/49/49 51/51/51
f 49/49/49 58/58/58 56/56/56
f 57/57/57 56/56/56 59/59/59
f 58/58/58 51/51/51 60/60/60
f 60/60/60 51/51/51 55/55/55
f 56/56/56 58/58/58 61/61/61
f 61/61/61 58/58/58 60/60/60
f 59/59/59 56/56/56 62/62/62
f 59/59/59 62/62/62 63/63/63
f 63/63/63 62/62/62 64/64/64
f 62/62/62 56/56/56 65/65/65
f 65/65/65 56/56/56 61/61/61
f 64/64/64 62/62/62 66/66/66
f 66/66/66 62/62/62 65/65/65
f 64/64/64 66/66/66 67/67/67
f 67/67/67 66/66/66 68/68/68
f 69/69/69 61/61/61 60/60/60
f 68/68/68 66/66/66 70/70/70
f 68/68/68 70/70/70 71/71/71
f 71/71/71 70/70/70 72/72/72
f 61/61/61 69/69/69 73/73/73
f 61/61/61 73/73/73 65/65/65
f 69/69/69 60/60/60 74/74/74
f 69/69/69 74/74/74 73/73/73
f 72/72/72 70/70/70 75/75/75
f 72/72/72 75/75/75 76/76/76
f 76/76/76 75/75/75 77/77/77
f 65/65/65 73/73/73 78/78/78
f 77/77/77 75/75/75 79/79/79
f 77/77/77 79/79/79 80/80/80
f 80/80/80 79/79/79 81/81/81
f 75/75/75 70/70/70 82/82/82
f 82/82/82 70/70/70 66/66/66
f 83/83/83 66/66/66 65/65/65
f 66/66/66 83/83/83 82/82/82
f 83/83/83 65/65/65 78/78/78
f 82/82/82 83/83/83 84/84/84
f 84/84/84 83/83/83 78/78/78
f 75/75/75 82/82/82 85/85/85
f 85/85/85 82/82/82 84/84/84
f 75/75/75 85/85/85 86/86/86
f 75/75/75 86/86/86 79/79/79
f 85/85/85 84/84/84 87/87/87
f 86/86/86 85/85/85 88/88/88
f 88/88/88 85/85/85 87/87/87
f 79/79/79 86/86/86 89/89/89
f 89/89/89 86/86/86 88/88/88
f 90/90/90 81/81/81 79/79/79
f 90/90/90 79/79/79 89/89/89
f 81/81/81 90/90/90 91/91/91
f 91/91/91 90/90/90 92/92/92
f 92/92/92 90/90/90 93/93/93
f 93/93/93 90/90/90 89/89/89
f 92/92/92 93/93/93 94/94/94
f 94/94/94 93/93/93 95/95/95
f 95/95/95 93/93/93 96/96/96
f 95/95/95 96/96/96 97/97/97
f 97/97/97 96/96/96 36/36/36
f 36/36/36 96/96/96 34/34/34
f 96/96/96 93/93/93 98/98/98
f 96/96/96 98/98/98 34/34/34
f 99/99/99 93/93/93 89/89/89
f 93/93/93 99/99/99 98/98/98
f 99/99/99 89/89/89 100/100/100
f 34/34/34 98/98/98 101/101/101
f 100/100/100 89/89/89 88/88/88
f 34/34/34 101/101/101 40/40/40
f 98/98/98 99/99/99 102/102/102
f 98/98/98 102/102/102 101/101/101
f 40/40/40 101/101/101 103/103/103
f 40/40/40 103/103/103 45/45/45
f 101/101/101 102/102/102 104/104/104
f 101/101/101 104/104/104 103/103/103
f 102/102/102 99/99/99 105/105/105
f 105/105/105 99/99/99 100/100/100
f 104/104/104 102/102/102 106/106/106
f 106/106/106 102/102/102 105/105/105
f 105/105/105 100/100/100 107/107/107
f 105/105/105 107/107/107 106/106/106
f 107/107/107 100/100/100 108/108/108
f 104/104/104 106/106/106 109/109/109
f 104/104/104 109/109/109 103/103/103
f 106/106/106 107/107/107 110/110/110
f 103/103/103 109/109/109 111/111/111
f 107/107/107 108/108/108 74/74/74
f 107/107/107 74/74/74 110/110/110
f 110/110/110 74/74/74 60/60/60
f 110/110/110 60/60/60 55/55/55
f 106/106/106 110/110/110 112/112/112
f 112/112/112 110/110/110 55/55/55
f 106/106/106 112/112/112 109/109/109
f 109/109/109 112/112/112 113/113/113
f 113/113/113 112/112/112 55/55/55
f 109/109/109 113/113/113 111/111/111
f 114/114/114 74/74/74 108/108/108
f 74/74/74 114/114/114 73/73/73
f 73/73/73 114/114/114 78/78/78
f 114/114/114 108/108/108 115/115/115
f 115/115/115 108/108/108 100/100/100
f 115/115/115 100/100/100 88/88/88
f 114/114/114 115/115/115 116/116/116
f 114/114/114 116/116/116 78/78/78
f 115/115/115 88/88/88 117/117/117
f 115/115/115 117/117/117 116/116/116
f 117/117/117 88/88/88 87/87/87
f 78/78/78 116/116/116 118/118/118
f 118/118/118 116/116/116 117/117/117
f 117/117/117 87/87/87 84/84/84
f 78/78/78 118/118/118 84/84/84
f 84/84/84 118/118/118 117/117/117
f 119/119/119 111/111/111 113/113/113
f 111/111/111 119/119/119 103/103/103
f 103/103/103 119/119/119 120/120/120
f 103/103/103 120/120/120 45/45/45
f 45/45/45 120/120/120 54/54/54
f 120/120/120 119/119/119 121/121/121
f 120/120/120 121/121/121 54/54/54
f 121/121/121 119/119/119 113/113/113
f 54/54/54 121/121/121 122/122/122
f 122/122/122 121/121/121 113/113/113
f 54/54/54 122/122/122 53/53/53
f 122/122/122 113/113/113 55/55/55
f 122/122/122 55/55/55 53/53/53
f 123/123/123 124/124/124 125/125/125
f 124/124/124 123/123/123 126/126/126
f 126/126/126 123/123/123 127/127/127
f 124/124/124 126/126/126 128/128/128
f 128/128/128 126/126/126 127/127/127
f 124/124/124 128/128/128 129/129/129
f 125/125/125 124/124/124 130/130/130
f 130/130/130 124/124/124 129/129/129
f 123/123/123 125/125/125 131/131/131
f 123/123/123 131/131/131 132/132/132
f 123/123/123 132/132/132 127/127/127
f 131/131/131 125/125/125 133/133/133
f 128/128/128 127/127/127 134/134/134
f 131/131/131 133/133/133 135/135/135
f 131/131/131 135/135/135 132/132/132
f 133/133/133 125/125/125 136/136/136
f 136/136/136 125/125/125 130/130/130
f 135/135/135 133/133/133 137/137/137
f 137/137/137 133/133/133 136/136/136
f 132/132/132 135/135/135 138/138/138
f 135/135/135 137/137/137 139/139/139
f 135/135/135 139/139/139 138/138/138
f 139/139/139 137/137/137 140/140/140
f 137/137/137 136/136/136 141/141/141
f 137/137/137 141/141/141 140/140/140
f 139/139/139 140/140/140 142/142/142
f 142/142/142 140/140/140 141/141/141
f 139/139/139 142/142/142 143/143/143
f 139/139/139 143/143/143 138/138/138
f 144/144/144 145/145/145 146/146/146
f 147/147/147 148/148/148 149/149/149
f 145/145/145 144/144/144 150/150/150
f 145/145/145 150/150/150 148/148/148
f 150/150/150 144/144/144 151/151/151
f 151/151/151 144/144/144 152/152/152
f 148/148/148 150/150/150 153/153/153
f 153/153/153 150/150/150 151/151/151
f 149/149/149 148/148/148 154/154/154
f 154/154/154 148/148/148 153/153/153
f 151/151/151 152/152/152 155/155/155
f 151/151/151 155/155/155 153/153/153
f 155/155/155 152/152/152 156/156/156
f 153/153/153 155/155/155 157/157/157
f 153/153/153 157/157/157 154/154/154
f 155/155/155 156/156/156 158/158/158
f 155/155/155 158/158/158 157/157/157
f 158/158/158 156/156/156 159/159/159
f 158/158/158 159/159/159 160/160/160
f 158/158/158 160/160/160 161/161/161
f 158/158/158 161/161/161 157/157/157
f 161/161/161 160/160/160 162/162/162
f 161/161/161 162/162/162 163/163/163
f 157/157/157 161/161/161 164/164/164
f 164/164/164 161/161/161 163/163/163
f 163/163/163 162/162/162 165/165/165
f 163/163/163 165/165/165 164/164/164
f 165/165/165 162/162/162 166/166/166
f 165/165/165 166/166/166 167/167/167
f 165/165/165 167/167/167 168/168/168
f 168/168/168 167/167/167 169/169/169
f 165/165/165 168/168/168 170/170/170
f 165/165/165 170/170/170 164/164/164
f 170/170/170 168/168/168 169/169/169
f 169/169/169 167/167/167 171/171/171
f 164/164/164 170/170/170 172/172/172
f 169/169/169 171/171/171 173/173/173
f 173/173/173 171/171/171 174/174/174
f 170/170/170 169/169/169 175/175/175
f 175/175/175 169/169/169 173/173/173
f 170/170/170 175/175/175 172/172/172
f 173/173/173 174/174/174 176/176/176
f 173/173/173 176/176/176 175/175/175
f 176/176/176 174/174/174 177/177/177
f 176/176/176 177/177/177 178/178/178
f 178/178/178 177/177/177 179/179/179
f 175/175/175 176/176/176 180/180/180
f 180/180/180 176/176/176 178/178/178
f 178/178/178 179/179/179 181/181/181
f 178/178/178 181/181/181 180/180/180
f 181/181/181 179/179/179 182/182/182
f 175/175/175 180/180/180 183/183/183
f 181/181/181 182/182/182 184/184/184
f 184/184/184 182/182/182 185/185/185
f 180/180/180 181/181/181 186/186/186
f 186/186/186 181/181/181 184/184/184
f 184/184/184 185/185/185 187/187/187
f 184/184/184 187/187/187 186/186/186
f 187/187/187 185/185/185 188/188/188
f 187/187/187 188/188/188 189/189/189
f 189/189/189 188/188/188 190/190/190
f 187/187/187 189/189/189 191/191/191
f 187/187/187 191/191/191 186/186/186
f 192/192/192 180/180/180 186/186/186
f 192/192/192 186/186/186 191/191/191
f 180/180/180 192/192/192 183/183/183
f 192/192/192 191/191/191 193/193/193
f 192/192/192 193/193/193 194/194/194
f 194/194/194 193/193/193 195/195/195
f 194/194/194 195/195/195 196/196/196
f 196/196/196 195/195/195 197/197/197
f 196/196/196 197/197/197 198/198/198
f 194/194/194 196/196/196 199/199/199
f 196/196/196 198/198/198 200/200/200
f 196/196/196 200/200/200 199/199/199
f 192/192/192 194/194/194 201/201/201
f 201/201/201 194/194/194 199/199/199
f 192/192/192 201/201/201 202/202/202
f 192/192/192 202/202/202 183/183/183
f 201/201/201 199/199/199 203/203/203
f 201/201/201 203/203/203 202/202/202
f 203/203/203 199/199/199 200/200/200
f 183/183/183 202/202/202 204/204/204
f 205/205/205 200/200/200 198/198/198
f 205/205/205 198/198/198 206/206/206
f 205/205/205 206/206/206 207/207/207
f 205/205/205 207/207/207 208/208/208
f 205/205/205 208/208/208 209/209/209
f 205/205/205 209/209/209 200/200/200
f 209/209/209 208/208/208 210/210/210
f 200/200/200 209/209/209 211/211/211
f 200/200/200 211/211/211 203/203/203
f 209/209/209 210/210/210 212/212/212
f 209/209/209 212/212/212 211/211/211
f 212/212/212 210/210/210 213/213/213
f 212/212/212 213/213/213 214/214/214
f 203/203/203 211/211/211 215/215/215
f 203/203/203 215/215/215 202/202/202
f 202/202/202 215/215/215 204/204/204
f 204/204/204 215/215/215 216/216/216
f 204/204/204 216/216/216 183/183/183
f 215/215/215 211/211/211 217/217/217
f 215/215/215 217/217/217 216/216/216
f 218/218/218 211/211/211 212/212/212
f 211/211/211 218/218/218 217/217/217
f 219/219/219 212/212/212 214/214/214
f 212/212/212 219/219/219 218/218/218
f 219/219/219 214/214/214 220/220/220
f 221/221/221 183/183/183 216/216/216
f 183/183/183 221/221/221 175/175/175
f 222/222/222 216/216/216 217/217/217
f 216/216/216 222/222/222 221/221/221
f 175/175/175 221/221/221 172/172/172
f 222/222/222 217/217/217 223/223/223
f 223/223/223 217/217/217 218/218/218
f 221/221/221 222/222/222 224/224/224
f 224/224/224 222/222/222 223/223/223
f 221/221/221 224/224/224 172/172/172
f 223/223/223 218/218/218 225/225/225
f 223/223/223 225/225/225 224/224/224
f 225/225/225 218/218/218 226/226/226
f 226/226/226 218/218/218 219/219/219
f 224/224/224 225/225/225 227/227/227
f 224/224/224 227/227/227 172/172/172
f 227/227/227 225/225/225 228/228/228
f 228/228/228 225/225/225 226/226/226
f 227/227/227 228/228/228 229/229/229
f 229/229/229 228/228/228 226/226/226
f 227/227/227 229/229/229 230/230/230
f 227/227/227 230/230/230 172/172/172
f 229/229/229 226/226/226 231/231/231
f 232/232/232 226/226/226 219/219/219
f 226/226/226 232/232/232 231/231/231
f 232/232/232 219/219/219 220/220/220
f 232/232/232 220/220/220 233/233/233
f 232/232/232 233/233/233 234/234/234
f 232/232/232 234/234/234 231/231/231
f 229/229/229 231/231/231 235/235/235
f 229/229/229 235/235/235 230/230/230
f 231/231/231 234/234/234 236/236/236
f 235/235/235 231/231/231 237/237/237
f 237/237/237 231/231/231 236/236/236
f 236/236/236 234/234/234 238/238/238
f 238/238/238 234/234/234 239/239/239
f 238/238/238 239/239/239 240/240/240
f 230/230/230 235/235/235 241/241/241
f 241/241/241 235/235/235 237/237/237
f 230/230/230 241/241/241 242/242/242
f 230/230/230 242/242/242 172/172/172
f 172/172/172 242/242/242 164/164/164
f 242/242/242 241/241/241 243/243/243
f 243/243/243 241/241/241 237/237/237
f 164/164/164 242/242/242 244/244/244
f 244/244/244 242/242/242 243/243/243
f 164/164/164 244/244/244 157/157/157
f 157/157/157 244/244/244 154/154/154
f 244/244/244 243/243/243 245/245/245
f 243/243/243 237/237/237 246/246/246
f 243/243/243 246/246/246 245/245/245
f 246/246/246 237/237/237 236/236/236
f 244/244/244 245/245/245 247/247/247
f 247/247/247 245/245/245 246/246/246
f 244/244/244 247/247/247 154/154/154
f 246/246/246 236/236/236 248/248/248
f 246/246/246 248/248/248 247/247/247
f 248/248/248 236/236/236 238/238/238
f 154/154/154 247/247/247 249/249/249
f 249/249/249 247/247/247 248/248/248
f 154/154/154 249/249/249 250/250/250
f 154/154/154 250/250/250 149/149/149
f 249/249/249 248/248/248 251/251/251
f 249/249/249 251/251/251 250/250/250
f 251/251/251 248/248/248 238/238/238
f 149/149/149 250/250/250 252/252/252
f 251/251/251 238/238/238 253/253/253
f 251/251/251 253/253/253 250/250/250
f 250/250/250 253/253/253 252/252/252
f 253/253/253 238/238/238 240/240/240
f 252/252/252 253/253/253 254/254/254
f 254/254/254 253/253/253 240/240/240
f 255/255/255 143/143/143 142/142/142
f 255/255/255 142/142/142 147/147/147
f 147/147/147 142/142/142 141/141/141
f 143/143/143 255/255/255 256/256/256
f 257/257/257 138/138/138 143/143/143
f 257/257/257 143/143/143 256/256/256
f 256/256/256 255/255/255 258/258/258
f 258/258/258 255/255/255 147/147/147
f 256/256/256 258/258/258 259/259/259
f 256/256/256 259/259/259 257/257/257
f 258/258/258 147/147/147 149/149/149
f 138/138/138 257/257/257 260/260/260
f 259/259/259 258/258/258 252/252/252
f 252/252/252 258/258/258 149/149/149
f 259/259/259 252/252/252 254/254/254
f 257/257/257 259/259/259 240/240/240
f 240/240/240 259/259/259 254/254/254
f 260/260/260 257/257/257 261/261/261
f 261/261/261 257/257/257 240/240/240
f 260/260/260 261/261/261 262/262/262
f 263/263/263 138/138/138 260/260/260
f 263/263/263 260/260/260 262/262/262
f 138/138/138 263/263/263 132/132/132
f 262/262/262 261/261/261 264/264/264
f 263/263/263 262/262/262 265/265/265
f 264/264/264 261/261/261 239/239/239
f 239/239/239 261/261/261 240/240/240
f 264/264/264 239/239/239 266/266/266
f 263/263/263 265/265/265 267/267/267
f 263/263/263 267/267/267 132/132/132
f 267/267/267 265/265/265 268/268/268
f 132/132/132 267/267/267 127/127/127
f 266/266/266 239/239/239 234/234/234
f 267/267/267 268/268/268 269/269/269
f 267/267/267 269/269/269 127/127/127
f 269/269/269 268/268/268 270/270/270
f 127/127/127 269/269/269 134/134/134
f 266/266/266 234/234/234 233/233/233
f 269/269/269 270/270/270 271/271/271
f 269/269/269 271/271/271 134/134/134
f 271/271/271 270/270/270 272/272/272
f 134/134/134 271/271/271 273/273/273
f 271/271/271 272/272/272 274/274/274
f 271/271/271 274/274/274 273/273/273
f 274/274/274 272/272/272 275/275/275
f 274/274/274 275/275/275 276/276/276
f 276/276/276 275/275/275 277/277/277
f 276/276/276 277/277/277 278/278/278
f 278/278/278 277/277/277 279/279/279
f 276/276/276 278/278/278 280/280/280
f 274/274/274 276/276/276 281/281/281
f 281/281/281 276/276/276 280/280/280
f 274/274/274 281/281/281 273/273/273
f 281/281/281 280/280/280 282/282/282
f 282/282/282 280/280/280 283/283/283
f 282/282/282 283/283/283 284/284/284
f 282/282/282 284/284/284 285/285/285
f 285/285/285 284/284/284 286/286/286
f 281/281/281 282/282/282 287/287/287
f 287/287/287 282/282/282 285/285/285
f 285/285/285 286/286/286 288/288/288
f 281/281/281 287/287/287 289/289/289
f 281/281/281 289/289/289 273/273/273
f 287/287/287 285/285/285 290/290/290
f 287/287/287 290/290/290 289/289/289
f 290/290/290 285/285/285 288/288/288
f 288/288/288 286/286/286 291/291/291
f 289/289/289 290/290/290 292/292/292
f 292/292/292 290/290/290 288/288/288
f 273/273/273 289/289/289 293/293/293
f 293/293/293 289/289/289 292/292/292
f 273/273/273 293/293/293 294/294/294
f 273/273/273 294/294/294 134/134/134
f 293/293/293 292/292/292 295/295/295
f 292/292/292 288/288/288 296/296/296
f 292/292/292 296/296/296 295/295/295
f 293/293/293 295/295/295 297/297/297
f 293/293/293 297/297/297 294/294/294
f 297/297/297 295/295/295 296/296/296
f 134/134/134 294/294/294 298/298/298
f 134/134/134 298/298/298 128/128/128
f 128/128/128 298/298/298 129/129/129
f 298/298/298 294/294/294 299/299/299
f 298/298/298 299/299/299 129/129/129
f 299/299/299 294/294/294 297/297/297
f 129/129/129 299/299/299 300/300/300
f 300/300/300 299/299/299 297/297/297
f 300/300/300 297/297/297 296/296/296
f 129/129/129 300/300/300 130/130/130
f 300/300/300 296/296/296 301/301/301
f 300/300/300 301/301/301 130/130/130
f 302/302/302 296/296/296 288/288/288
f 302/302/302 288/288/288 291/291/291
f 301/301/301 296/296/296 303/303/303
f 303/303/303 296/296/296 302/302/302
f 302/302/302 291/291/291 304/304/304
f 304/304/304 291/291/291 305/305/305
f 304/304/304 305/305/305 306/306/306
f 304/304/304 306/306/306 307/307/307
f 304/304/304 307/307/307 308/308/308
f 304/304/304 308/308/308 302/302/302
f 308/308/308 307/307/307 309/309/309
f 302/302/302 308/308/308 310/310/310
f 310/310/310 308/308/308 309/309/309
f 302/302/302 310/310/310 303/303/303
f 310/310/310 309/309/309 311/311/311
f 310/310/310 311/311/311 312/312/312
f 310/310/310 312/312/312 303/303/303
f 312/312/312 311/311/311 313/313/313
f 312/312/312 313/313/313 314/314/314
f 303/303/303 312/312/312 315/315/315
f 315/315/315 312/312/312 314/314/314
f 303/303/303 315/315/315 301/301/301
f 315/315/315 314/314/314 316/316/316
f 315/315/315 316/316/316 301/301/301
f 316/316/316 314/314/314 317/317/317
f 316/316/316 317/317/317 318/318/318
f 316/316/316 318/318/318 319/319/319
f 316/316/316 319/319/319 301/301/301
f 319/319/319 318/318/318 320/320/320
f 301/301/301 319/319/319 321/321/321
f 319/319/319 320/320/320 322/322/322
f 319/319/319 322/322/322 321/321/321
f 301/301/301 321/321/321 130/130/130
f 322/322/322 320/320/320 323/323/323
f 322/322/322 323/323/323 321/321/321
f 323/323/323 320/320/320 324/324/324
f 323/323/323 324/324/324 325/325/325
f 130/130/130 321/321/321 326/326/326
f 326/326/326 321/321/321 323/323/323
f 130/130/130 326/326/326 136/136/136
f 323/323/323 325/325/325 327/327/327
f 323/323/323 327/327/327 326/326/326
f 136/136/136 326/326/326 141/141/141
f 327/327/327 325/325/325 328/328/328
f 327/327/327 328/328/328 326/326/326
f 328/328/328 325/325/325 329/329/329
f 141/141/141 326/326/326 330/330/330
f 330/330/330 326/326/326 328/328/328
f 328/328/328 329/329/329 331/331/331
f 328/328/328 331/331/331 330/330/330
f 331/331/331 329/329/329 332/332/332
f 331/331/331 332/332/332 333/333/333
f 331/331/331 333/333/333 334/334/334
f 331/331/331 334/334/334 330/330/330
f 334/334/334 333/333/333 335/335/335
f 336/336/336 141/141/141 330/330/330
f 336/336/336 330/330/330 334/334/334
f 141/141/141 336/336/336 147/147/147
f 334/334/334 335/335/335 337/337/337
f 334/334/334 337/337/337 336/336/336
f 337/337/337 335/335/335 338/338/338
f 337/337/337 338/338/338 339/339/339
f 337/337/337 339/339/339 336/336/336
f 339/339/339 338/338/338 146/146/146
f 147/147/147 336/336/336 148/148/148
f 148/148/148 336/336/336 339/339/339
f 339/339/339 146/146/146 145/145/145
f 339/339/339 145/145/145 148/148/148
f 340/340/340 341/341/341 342/342/342
f 340/340/340 342/342/342 343/343/343
f 341/341/341 340/340/340 344/344/344
f 341/341/341 344/344/344 345/345/345
f 345/345/345 344/344/344 346/346/346
f 346/346/346 344/344/344 347/347/347
