# CS2 body mesh, tools/cs2_glb_to_obj.py
v -0.00792 0.2825 -0.41371
v 0.00687 0.2825 -0.41371
v -0.00792 0.28189 -0.41775
v 0.00687 0.28189 -0.41775
v 0.00687 0.28169 -0.40991
v 0.00687 0.28083 -0.42159
v -0.00792 0.28169 -0.40991
v -0.00792 0.28083 -0.42159
v -0.00792 0.27938 -0.40729
v 0.00687 0.27902 -0.42505
v 0.00687 0.27938 -0.40729
v -0.00792 0.27902 -0.42505
v -0.00792 0.27707 -0.40467
v 0.00687 0.27669 -0.42809
v 0.00687 0.27707 -0.40467
v -0.00792 0.27669 -0.42809
v 0.00687 0.27445 -0.40226
v 0.00687 0.27376 -0.4305
v -0.00792 0.27445 -0.40226
v -0.00792 0.27376 -0.4305
v -0.00792 0.27184 -0.39985
v -0.00792 0.27045 -0.43244
v 0.00687 0.27184 -0.39985
v 0.00687 0.27045 -0.43244
v 0.00687 0.26906 -0.39748
v 0.00687 0.26684 -0.43358
v -0.00792 0.26906 -0.39748
v -0.00792 0.26684 -0.43358
v -0.00792 0.26628 -0.39511
v 0.00687 0.26291 -0.43413
v 0.00687 0.26628 -0.39511
v -0.00792 0.26291 -0.43413
v 0.00687 0.26229 -0.39441
v 0.00687 0.259 -0.43377
v -0.00792 0.26229 -0.39441
v 0.00448 0.25785 -0.39431
v -0.00553 0.25785 -0.39431
v -0.00792 0.259 -0.43377
v 0.00687 0.25516 -0.43276
v -0.00792 0.25516 -0.43275
v -0.00792 0.2517 -0.43091
v 0.00687 0.2517 -0.43091
v 0.00687 0.24867 -0.42857
v -0.00792 0.24867 -0.42857
v 0.00687 0.24626 -0.42565
v -0.00792 0.24626 -0.42565
v 0.00687 0.24431 -0.42234
v -0.00792 0.24431 -0.42234
v -0.00792 0.24318 -0.41873
v 0.00687 0.24318 -0.41873
v 0.00687 0.24262 -0.41479
v -0.00792 0.24262 -0.41479
v 0.00448 0.24222 -0.41076
v -0.00553 0.24222 -0.41076
v -0.00646 0.25755 -0.39445
v -0.0068 0.25359 -0.39605
v -0.00681 0.25662 -0.39486
v 0.00576 0.25359 -0.39605
v 0.00541 0.25755 -0.39445
v 0.00576 0.25662 -0.39486
v 0.00541 0.22642 -0.38828
v 0.00695 0.22434 -0.38986
v 0.00448 0.2263 -0.38859
v 0.0051 0.22385 -0.39075
v -0.00614 0.22385 -0.39075
v -0.00553 0.2263 -0.38859
v -0.00799 0.22434 -0.38986
v -0.00646 0.22642 -0.38828
v -0.00887 0.22589 -0.38725
v -0.00674 0.22717 -0.38691
v -0.00889 0.22951 -0.38237
v -0.00674 0.23032 -0.38265
v -0.00887 0.23512 -0.37775
v -0.00674 0.23563 -0.37879
v -0.00785 0.23653 -0.3768
v -0.00646 0.23656 -0.37838
v -0.00612 0.23718 -0.37619
v -0.00553 0.23687 -0.37824
v 0.00448 0.23687 -0.37824
v 0.00507 0.23718 -0.37619
v 0.00541 0.23656 -0.37838
v 0.0068 0.23653 -0.3768
v 0.0057 0.23563 -0.37879
v 0.00782 0.23512 -0.37775
v 0.00569 0.23032 -0.38265
v 0.00784 0.22951 -0.38237
v 0.00569 0.22717 -0.38691
v 0.00782 0.22589 -0.38725
v -0.00614 0.20886 -0.38038
v 0.0051 0.20886 -0.38038
v -0.00802 0.20946 -0.37953
v 0.00697 0.20946 -0.37953
v 0.00448 0.2364 -0.3994
v -0.00553 0.2364 -0.3994
v -0.00646 0.23653 -0.39908
v -0.00646 0.24235 -0.41044
v 0.00541 0.24235 -0.41044
v 0.00541 0.23652 -0.39908
v -0.00678 0.2369 -0.39813
v 0.00573 0.2369 -0.39813
v 0.00576 0.24272 -0.40949
v -0.00887 0.21089 -0.37754
v -0.00889 0.21501 -0.37273
v -0.00885 0.21931 -0.36847
v -0.00805 0.22077 -0.36668
v -0.00792 0.25858 -0.4241
v -0.00792 0.26062 -0.42464
v -0.00792 0.25675 -0.42312
v -0.00792 0.26268 -0.42483
v -0.00792 0.25513 -0.42188
v -0.00792 0.26477 -0.42453
v -0.00792 0.25386 -0.42033
v -0.00792 0.26669 -0.42393
v -0.00792 0.25282 -0.41857
v -0.00792 0.26844 -0.4229
v -0.00792 0.25222 -0.41665
v -0.00792 0.26999 -0.42162
v -0.00792 0.25193 -0.41457
v -0.00792 0.27123 -0.42001
v -0.00792 0.25212 -0.4125
v -0.00792 0.24298 -0.41089
v -0.00792 0.244 -0.40705
v -0.00792 0.2722 -0.41817
v -0.00792 0.25266 -0.41046
v -0.00792 0.27275 -0.41614
v -0.00792 0.25364 -0.40863
v -0.00792 0.24585 -0.40359
v -0.00792 0.24818 -0.40055
v -0.00792 0.27298 -0.41405
v -0.00792 0.25488 -0.40702
v -0.00792 0.27265 -0.41198
v -0.00792 0.25643 -0.40574
v -0.00792 0.25111 -0.39814
v -0.00792 0.25441 -0.39618
v -0.00792 0.27207 -0.4101
v -0.00792 0.25818 -0.40471
v -0.00792 0.2601 -0.40411
v -0.00792 0.27101 -0.40831
v -0.00792 0.25802 -0.39506
v -0.00792 0.26962 -0.4066
v -0.00792 0.26218 -0.40381
v -0.00792 0.26812 -0.40552
v -0.00792 0.26425 -0.404
v -0.00792 0.26624 -0.40449
v -0.00681 0.24272 -0.40949
v 0.00687 0.25818 -0.40471
v 0.00687 0.2601 -0.40411
v 0.00687 0.25441 -0.39618
v 0.00687 0.25643 -0.40574
v 0.00687 0.25802 -0.39506
v 0.00687 0.25111 -0.39814
v 0.00687 0.24818 -0.40055
v 0.00687 0.26218 -0.40381
v 0.00687 0.25488 -0.40702
v 0.00687 0.26425 -0.404
v 0.00687 0.25364 -0.40863
v 0.00687 0.24585 -0.40359
v 0.00687 0.244 -0.40705
v 0.00687 0.26624 -0.40449
v 0.00687 0.25266 -0.41046
v 0.00687 0.25212 -0.4125
v 0.00687 0.26812 -0.40552
v 0.00687 0.24298 -0.41089
v 0.00687 0.26962 -0.4066
v 0.00687 0.25193 -0.41457
v 0.00687 0.27101 -0.40831
v 0.00687 0.25222 -0.41665
v 0.00687 0.27207 -0.4101
v 0.00687 0.25282 -0.41857
v 0.00687 0.27265 -0.41198
v 0.00687 0.25386 -0.42033
v 0.00687 0.27298 -0.41405
v 0.00687 0.25513 -0.42188
v 0.00687 0.27275 -0.41614
v 0.00687 0.25675 -0.42312
v 0.00687 0.2722 -0.41817
v 0.00687 0.25858 -0.4241
v 0.00687 0.27123 -0.42001
v 0.00687 0.26062 -0.42464
v 0.00687 0.26999 -0.42162
v 0.00687 0.26268 -0.42483
v 0.00687 0.26844 -0.4229
v 0.00687 0.26477 -0.42453
v 0.00687 0.26669 -0.42393
v 0.00701 0.22077 -0.36668
v 0.00781 0.21931 -0.36847
v 0.00784 0.21501 -0.37273
v 0.00782 0.21089 -0.37754
v -0.00677 0.2407 -0.39156
v -0.00678 0.24692 -0.38758
v -0.0068 0.24375 -0.40624
v -0.0068 0.2452 -0.40317
v -0.0068 0.2476 -0.4
v -0.0068 0.25067 -0.39751
v 0.00573 0.24692 -0.38758
v 0.00573 0.2407 -0.39156
v 0.00576 0.25067 -0.39751
v 0.00575 0.2476 -0.4
v 0.00576 0.2452 -0.40317
v 0.00576 0.24375 -0.40624
v -0.00646 0.24785 -0.38716
v 0.00541 0.24785 -0.38716
v 0.00448 0.24816 -0.38702
v 0.00507 0.22142 -0.36585
v -0.00553 0.24816 -0.38702
v -0.00612 0.22142 -0.36585
v -0.00783 0.24292 -0.41088
v 0.00678 0.24292 -0.41088
vt 0.932127 0.957518
vt 0.932127 0.946776
vt 0.929197 0.957518
vt 0.929197 0.946776
vt 0.934568 0.946776
vt 0.926756 0.946776
vt 0.934568 0.957518
vt 0.926756 0.957518
vt 0.93701 0.957518
vt 0.923826 0.946776
vt 0.93701 0.946776
vt 0.923826 0.957518
vt 0.939451 0.957518
vt 0.921384 0.946776
vt 0.939451 0.946776
vt 0.921384 0.957518
vt 0.941893 0.946776
vt 0.918943 0.946776
vt 0.941893 0.957518
vt 0.918943 0.957518
vt 0.944334 0.957518
vt 0.916013 0.957518
vt 0.944334 0.946776
vt 0.916013 0.946776
vt 0.946776 0.946776
vt 0.913572 0.946776
vt 0.946776 0.957518
vt 0.913572 0.957518
vt 0.949217 0.957518
vt 0.91113 0.946776
vt 0.949217 0.946776
vt 0.91113 0.957518
vt 0.951659 0.946776
vt 0.9082 0.946776
vt 0.951659 0.957518
vt 0.955077 0.948241
vt 0.955077 0.956053
vt 0.9082 0.957518
vt 0.905759 0.946776
vt 0.905759 0.957518
vt 0.902829 0.957518
vt 0.902829 0.946776
vt 0.900388 0.946776
vt 0.900388 0.957518
vt 0.897946 0.946776
vt 0.897946 0.957518
vt 0.895016 0.946776
vt 0.895016 0.957518
vt 0.892575 0.957518
vt 0.892575 0.946776
vt 0.890133 0.946776
vt 0.890133 0.957518
vt 0.887204 0.948241
vt 0.887204 0.956053
vt 0.17954 0.596667
vt 0.180883 0.600085
vt 0.179662 0.597644
vt 0.173193 0.624989
vt 0.176244 0.625965
vt 0.17539 0.625965
vt 0.974609 0.979492
vt 0.976562 0.979492
vt 0.974609 0.978027
vt 0.976562 0.978027
vt 0.976562 0.970214
vt 0.974609 0.969726
vt 0.976562 0.968749
vt 0.974609 0.968749
vt 0.976562 0.967284
vt 0.974609 0.966796
vt 0.976562 0.962889
vt 0.975097 0.962889
vt 0.975585 0.958007
vt 0.973632 0.958007
vt 0.975097 0.95703
vt 0.973632 0.95703
vt 0.975097 0.956053
vt 0.973632 0.956053
vt 0.973144 0.948241
vt 0.974609 0.947752
vt 0.973144 0.991211
vt 0.974609 0.992676
vt 0.973632 0.990722
vt 0.975097 0.991211
vt 0.973632 0.989746
vt 0.975585 0.990234
vt 0.974609 0.985351
vt 0.976562 0.985351
vt 0.974609 0.981445
vt 0.976562 0.980956
vt 0.989746 0.970214
vt 0.989257 0.978515
vt 0.989257 0.968749
vt 0.989257 0.979492
vt 0.955077 0.977538
vt 0.963866 0.978027
vt 0.955077 0.970702
vt 0.963866 0.970214
vt 0.964354 0.969237
vt 0.955077 0.970214
vt 0.963866 0.979003
vt 0.964354 0.968261
vt 0.964354 0.97998
vt 0.955565 0.978027
vt 0.989257 0.967284
vt 0.988769 0.962889
vt 0.988281 0.958983
vt 0.988281 0.95703
vt 0.163671 0.614246
vt 0.162206 0.613758
vt 0.161351 0.621082
vt 0.165136 0.614734
vt 0.158544 0.619617
vt 0.164281 0.62157
vt 0.156102 0.618152
vt 0.167211 0.622059
vt 0.160863 0.612781
vt 0.166723 0.614734
vt 0.159764 0.611316
vt 0.168187 0.614246
vt 0.154027 0.615711
vt 0.170141 0.621082
vt 0.15244 0.613269
vt 0.172948 0.620106
vt 0.15891 0.61034
vt 0.169652 0.613758
vt 0.158422 0.608875
vt 0.170995 0.612781
vt 0.151463 0.61034
vt 0.17539 0.618641
vt 0.150975 0.60741
vt 0.177587 0.616688
vt 0.158177 0.606922
vt 0.172216 0.611805
vt 0.158177 0.605457
vt 0.17307 0.610828
vt 0.151097 0.60448
vt 0.179296 0.614246
vt 0.151708 0.60155
vt 0.180517 0.611316
vt 0.158544 0.603992
vt 0.173681 0.608875
vt 0.159276 0.602527
vt 0.174047 0.60741
vt 0.15305 0.599109
vt 0.181127 0.608386
vt 0.154637 0.596179
vt 0.181249 0.605457
vt 0.160131 0.601062
vt 0.174047 0.605945
vt 0.161351 0.600085
vt 0.173803 0.60448
vt 0.156957 0.594226
vt 0.180761 0.602527
vt 0.159642 0.593738
vt 0.179785 0.600085
vt 0.162572 0.599109
vt 0.173315 0.603015
vt 0.162328 0.593738
vt 0.17246 0.60155
vt 0.164037 0.598621
vt 0.178198 0.597644
vt 0.165014 0.593249
vt 0.176122 0.594714
vt 0.165746 0.598132
vt 0.171484 0.600574
vt 0.167211 0.598621
vt 0.170141 0.599597
vt 0.167821 0.593249
vt 0.173437 0.593249
vt 0.168798 0.598621
vt 0.170629 0.593249
vt 0.955565 0.970214
vt 0.170385 0.632313
vt 0.171728 0.63329
vt 0.173315 0.625965
vt 0.16892 0.631825
vt 0.175756 0.62743
vt 0.170507 0.624989
vt 0.178442 0.629383
vt 0.167699 0.6245
vt 0.172948 0.634266
vt 0.167333 0.631825
vt 0.173925 0.635731
vt 0.165746 0.631825
vt 0.180029 0.632313
vt 0.164769 0.624989
vt 0.180151 0.634754
vt 0.16184 0.625477
vt 0.174657 0.636708
vt 0.164281 0.632313
vt 0.180273 0.637684
vt 0.162816 0.632801
vt 0.175146 0.638661
vt 0.159154 0.626942
vt 0.180273 0.640614
vt 0.15659 0.628895
vt 0.175268 0.640126
vt 0.161473 0.633778
vt 0.175024 0.641591
vt 0.160375 0.635243
vt 0.180151 0.643055
vt 0.154637 0.630848
vt 0.174535 0.643055
vt 0.153172 0.63329
vt 0.179785 0.645985
vt 0.159642 0.636708
vt 0.173681 0.64452
vt 0.159154 0.638173
vt 0.17954 0.648427
vt 0.152196 0.636219
vt 0.177709 0.650868
vt 0.151708 0.639149
vt 0.172704 0.645497
vt 0.15891 0.639637
vt 0.171361 0.646474
vt 0.159032 0.641102
vt 0.175024 0.652821
vt 0.151952 0.642079
vt 0.172338 0.653798
vt 0.152684 0.645009
vt 0.169897 0.64745
vt 0.159398 0.642567
vt 0.16831 0.647938
vt 0.160131 0.644032
vt 0.169408 0.654775
vt 0.154027 0.647938
vt 0.166478 0.654775
vt 0.155858 0.65038
vt 0.166723 0.647938
vt 0.161107 0.645497
vt 0.165136 0.64745
vt 0.162328 0.646474
vt 0.163549 0.654775
vt 0.1583 0.652333
vt 0.160741 0.653798
vt 0.163671 0.646962
vt 0.987793 0.991211
vt 0.988281 0.989746
vt 0.988769 0.985351
vt 0.989257 0.981445
vt 0.965331 0.962889
vt 0.963866 0.958007
vt 0.956542 0.968261
vt 0.957518 0.966308
vt 0.958007 0.963866
vt 0.957518 0.960936
vt 0.956542 0.958983
vt 0.955565 0.95703
vt 0.963866 0.990234
vt 0.965331 0.985351
vt 0.955077 0.991211
vt 0.956542 0.989257
vt 0.95703 0.987304
vt 0.957518 0.984375
vt 0.957518 0.981933
vt 0.956542 0.979492
vt 0.712394 0.174505
vt 0.712394 0.164037
vt 0.711417 0.174505
vt 0.711417 0.164037
vt 0.713858 0.164037
vt 0.709952 0.164037
vt 0.713858 0.174505
vt 0.709952 0.174505
vt 0.715323 0.174383
vt 0.708487 0.174505
vt 0.715323 0.164037
vt 0.708487 0.164037
vt 0.716788 0.174383
vt 0.707511 0.164037
vt 0.716788 0.164037
vt 0.707511 0.174505
vt 0.706046 0.174505
vt 0.706046 0.164159
vt 0.718253 0.174383
vt 0.717765 0.164037
vt 0.71923 0.174383
vt 0.71923 0.164037
vt 0.720695 0.174383
vt 0.720695 0.163915
vt 0.72216 0.163915
vt 0.72216 0.174383
vt 0.723136 0.163915
vt 0.723136 0.174383
vt 0.724601 0.174383
vt 0.724601 0.163915
vt 0.726066 0.174383
vt 0.726066 0.163915
vt 0.727042 0.163915
vt 0.727531 0.174383
vt 0.728507 0.163915
vt 0.728507 0.174261
vt 0.729972 0.174261
vt 0.729972 0.163915
vt 0.731437 0.163915
vt 0.731437 0.174261
vt 0.732414 0.174261
vt 0.732414 0.163793
vt 0.733879 0.163793
vt 0.733879 0.174261
vt 0.735343 0.163793
vt 0.735343 0.174261
vt 0.73632 0.163793
vt 0.736808 0.174261
vt 0.737785 0.163793
vt 0.737785 0.174261
vt 0.73925 0.174261
vt 0.73925 0.163793
vt 0.740715 0.174139
vt 0.740715 0.163793
vt 0.74218 0.174139
vt 0.741691 0.163793
vt 0.743156 0.163793
vt 0.743156 0.174139
vt 0.744621 0.163793
vt 0.744621 0.174139
vt 0.746086 0.163671
vt 0.746086 0.174139
vt 0.747063 0.163671
vt 0.747063 0.174139
vt 0.748527 0.163671
vt 0.748527 0.174139
vt 0.955077 0.956542
vt 0.963378 0.95703
vt 0.963378 0.991211
vt 0.955077 0.991699
vt 0.963378 0.991699
vt 0.955077 0.992676
vt 0.987793 0.993164
vt 0.963378 0.956053
vt 0.963378 0.948729
vt 0.988281 0.955565
vt 0.987793 0.946776
vt 0.179907 0.596179
vt 0.18186 0.602527
vt 0.182348 0.605457
vt 0.182226 0.608386
vt 0.181616 0.611316
vt 0.180639 0.613758
vt 0.180517 0.614246
vt 0.181127 0.615223
vt 0.176977 0.625477
vt 0.170751 0.624012
vt 0.167699 0.623524
vt 0.164525 0.624012
vt 0.161962 0.6245
vt 0.15952 0.625477
vt 0.159032 0.626942
vt 0.158666 0.625477
vt 0.158055 0.624989
vn -0.0172 0.9997 0.0172
vn -0.0012 0.9733 -0.2295
vn -0.0013 0.8942 0.4477
vn -0.0013 0.9279 -0.3729
vn -0.0227 0.8896 0.4562
vn -0.0238 0.7504 0.6606
vn -0.0014 0.836 -0.5487
vn -0.0014 0.7601 0.6498
vn -0.0014 0.7181 0.696
vn -0.0014 0.7181 -0.696
vn -0.0014 0.696 0.7181
vn 0.0014 0.5487 -0.836
vn -0.0014 0.6732 0.7395
vn 0.0013 0.3945 -0.9189
vn -0.0014 0.6468 0.7627
vn -0.0198 0.1871 -0.9821
vn -0.0013 0.4446 0.8957
vn -0.0159 -0.001 -0.9999
vn -0.0225 0.4274 0.9038
vn 0.0361 0.0887 0.9954
vn -0.0183 -0.1685 -0.9855
vn -0.0537 0.0712 0.996
vn 0.1079 0.0367 0.9935
vn -0.1255 0.0189 0.9919
vn 0 -0.1862 -0.9825
vn 0 -0.3725 -0.928
vn -0.0219 -0.5326 -0.8461
vn 0 -0.5481 -0.8364
vn -0.0225 -0.6834 -0.7297
vn 0 -0.6953 -0.7188
vn 0 -0.8354 -0.5497
vn 0 -0.9184 -0.3956
vn 0 -0.9785 -0.2061
vn 0.0525 -0.9962 -0.07
vn -0.0711 -0.9949 -0.0711
vn 0.1057 -0.9625 -0.25
vn -0.1285 -0.9585 -0.2544
vn -0.3657 0.1624 0.9164
vn -0.4374 -0.3598 0.8241
vn 0.1104 0.3557 -0.9281
vn 0.4126 -0.3856 0.8252
vn 0.3445 0.1857 0.9202
vn -0.1328 0.3355 -0.9326
vn 0.2871 0.7041 -0.6495
vn 0.2309 0.6864 -0.6896
vn 0.0708 0.6576 -0.7501
vn -0.0952 0.6429 -0.76
vn -0.2589 0.6686 -0.6971
vn -0.3159 0.6853 -0.6562
vn -0.4005 0.7236 -0.5621
vn -0.3708 0.7432 -0.557
vn -0.3449 0.6653 -0.6621
vn -0.374 0.6442 -0.6672
vn -0.4636 0.5707 -0.6778
vn -0.5475 0.5205 -0.6553
vn -0.4533 0.7675 -0.4533
vn -0.5083 0.7484 -0.426
vn -0.1697 0.9619 -0.2145
vn -0.1439 0.9717 -0.1872
vn 0.1215 0.9754 -0.1841
vn 0.1462 0.9665 -0.2109
vn 0.4786 0.7694 -0.4231
vn 0.4196 0.789 -0.4488
vn 0.5205 0.5475 -0.6553
vn 0.4317 0.5983 -0.675
vn 0.3449 0.6653 -0.6621
vn 0.3159 0.6853 -0.6562
vn 0.3411 0.7614 -0.5513
vn 0.3708 0.7432 -0.557
vn 0 -0.5762 -0.8173
vn -0.0221 -0.5612 -0.8274
vn -0.4875 -0.5158 -0.7045
vn 0.4601 -0.5418 -0.7034
vn 0.1456 -0.8186 -0.5556
vn 0.148 -0.7353 -0.6613
vn -0.1745 -0.7211 -0.6705
vn -0.172 -0.8074 -0.5644
vn -0.3137 -0.7099 -0.6306
vn -0.3099 -0.7781 -0.5464
vn -0.3346 -0.9054 -0.2612
vn 0.3069 -0.9162 -0.2576
vn 0.2806 -0.7962 -0.536
vn 0.2847 -0.7278 -0.6239
vn -0.9308 -0.3172 -0.1817
vn -0.9417 -0.2693 -0.2016
vn -0.9095 -0.3715 -0.1865
vn -0.9835 -0.1369 -0.1187
vn 0.9799 -0.1588 -0.1206
vn 0.9207 -0.3442 -0.1841
vn 0.9331 -0.2956 -0.2046
vn 0.8972 -0.3992 -0.1887
vn -0.9481 -0.1779 -0.2635
vn -0.986 -0.0965 -0.1358
vn -0.9604 -0.1513 -0.2342
vn -0.9908 -0.0749 -0.1129
vn -1 -0.001 0
vn -0.9909 0.0748 0.1116
vn -0.9421 0.2 0.269
vn -0.9403 0.1776 0.2905
vn -0.8535 0.2979 0.4275
vn -0.9997 0.0171 0.0151
vn -0.9998 -0.0151 -0.0161
vn 0.9999 0.0149 0.001
vn 0.9999 -0.001 0.0159
vn 0.9999 -0.0169 0
vn 0.9999 -0.001 -0.0159
vn 0.8381 0.3305 0.4339
vn 0.9327 0.2062 0.2959
vn 0.9341 0.229 0.2739
vn 0.989 0.0948 0.1135
vn 0.9888 -0.0949 -0.1148
vn 0.9834 -0.1175 -0.1381
vn 0.9553 -0.1753 -0.2382
vn 0.9418 -0.203 -0.2679
vn 0.0012 0.205 -0.9788
vn -0.022 0.3769 -0.926
vn 0.001 0.0149 -0.9999
vn -0.0233 0.5332 -0.8457
vn 0 -0.9999 -0.0159
vn 0 -0.9828 0.1849
vn 0 -0.9287 0.371
vn 0 -0.8354 0.5497
vn -0.0221 -0.8284 0.5596
vn 0 -0.7174 0.6967
vn 0 -0.5481 0.8364
vn 0 -0.3972 0.9177
vn 0 -0.2075 0.9782
vn 0 -0.0169 0.9999
vn -0.0011 0.1838 0.983
vn -0.0195 0.166 0.9859
vn -0.0218 0.352 0.9357
vn -0.0233 0.5332 0.8457
vn -0.0239 0.6841 0.729
vn -0.0235 0.8291 0.5587
vn -0.0014 0.836 0.5487
vn -0.0013 0.9175 0.3976
vn -0.0201 0.9772 0.2115
vn -0.0198 0.9816 -0.1898
vn -0.9341 0.229 0.2739
vn -0.9431 0.2223 0.2472
vn -0.9555 0.1724 0.2392
vn 0.9498 0.197 0.2432
vn 0.9346 0.2516 0.2516
vn 0.9259 0.2554 0.2782
vn 0.2865 0.6226 0.7282
vn 0.2855 0.595 0.7513
vn 0.146 0.6367 0.7571
vn 0.1455 0.6105 0.7785
vn 0.1201 0.6272 0.7695
vn 0.4593 0.5091 0.7279
vn 0.4284 0.5376 0.7262
vn 0.2273 0.5519 0.8023
vn 0.1975 0.5741 0.7946
vn -0.1455 0.6105 0.7785
vn -0.3133 0.5736 0.7568
vn -0.1713 0.5928 0.7869
vn -0.172 0.6196 0.7658
vn -0.3146 0.6018 0.7341
vn -0.4861 0.4828 0.7284
vn -0.2539 0.5311 0.8084
vn -0.4593 0.5091 0.7279
vn -0.2273 0.5519 0.8023
vn -0.3872 -0.1361 0.9119
vn -0.4027 -0.3268 0.855
vn -0.5653 -0.4339 0.7016
vn -0.6057 -0.5498 0.5752
vn -0.5687 -0.6808 0.4617
vn -0.5968 -0.6752 0.4335
vn -0.4674 -0.8052 0.365
vn -0.4619 -0.8211 0.3354
vn -0.4714 -0.8464 0.2479
vn -0.426 -0.9004 0.0885
vn -0.3978 -0.7679 -0.5021
vn 0.3784 -0.352 0.8561
vn 0.3666 -0.1593 0.9166
vn 0.5402 -0.4618 0.7035
vn 0.5757 -0.5807 0.5757
vn 0.5399 -0.7049 0.4599
vn 0.565 -0.7029 0.4321
vn 0.4378 -0.8232 0.3616
vn 0.4324 -0.8382 0.3322
vn 0.4426 -0.8624 0.2455
vn 0.5368 -0.8262 0.1709
vn 0.4497 -0.8775 0.1665
o hammer__p0_c0
f 1/1/1 2/2/1 3/3/2
f 3/3/2 2/2/1 4/4/2
f 2/2/1 1/1/1 5/5/3
f 3/3/2 4/4/2 6/6/4
f 5/5/3 1/1/1 7/7/5
f 3/3/2 6/6/4 8/8/4
f 5/5/3 7/7/5 9/9/6
f 8/8/4 6/6/4 10/10/7
f 5/5/3 9/9/6 11/11/8
f 8/8/4 10/10/7 12/12/7
f 11/11/8 9/9/6 13/13/9
f 12/12/7 10/10/7 14/14/10
f 11/11/8 13/13/9 15/15/9
f 12/12/7 14/14/10 16/16/10
f 15/15/9 13/13/9 17/17/11
f 16/16/10 14/14/10 18/18/12
f 17/17/11 13/13/9 19/19/11
f 16/16/10 18/18/12 20/20/12
f 17/17/11 19/19/11 21/21/13
f 20/20/12 18/18/12 22/22/14
f 17/17/11 21/21/13 23/23/13
f 22/22/14 18/18/12 24/24/14
f 23/23/13 21/21/13 25/25/15
f 22/22/14 24/24/14 26/26/16
f 25/25/15 21/21/13 27/27/15
f 22/22/14 26/26/16 28/28/16
f 25/25/15 27/27/15 29/29/17
f 28/28/16 26/26/16 30/30/18
f 25/25/15 29/29/17 31/31/19
f 28/28/16 30/30/18 32/32/18
f 31/31/19 29/29/17 33/33/20
f 32/32/18 30/30/18 34/34/21
f 33/33/20 29/29/17 35/35/22
f 33/33/20 35/35/22 36/36/23
f 36/36/23 35/35/22 37/37/24
f 32/32/18 34/34/21 38/38/25
f 38/38/25 34/34/21 39/39/26
f 38/38/25 39/39/26 40/40/26
f 40/40/26 39/39/26 41/41/27
f 41/41/27 39/39/26 42/42/28
f 41/41/27 42/42/28 43/43/29
f 41/41/27 43/43/29 44/44/30
f 44/44/30 43/43/29 45/45/31
f 44/44/30 45/45/31 46/46/31
f 46/46/31 45/45/31 47/47/32
f 46/46/31 47/47/32 48/48/32
f 48/48/32 47/47/32 49/49/33
f 49/49/33 47/47/32 50/50/33
f 49/49/33 50/50/33 51/51/34
f 49/49/33 51/51/34 52/52/35
f 52/52/35 51/51/34 53/53/36
f 52/52/35 53/53/36 54/54/37
f 55/55/38 56/56/39 57/57/40
f 58/58/41 59/59/42 60/60/43
f 61/61/44 62/62/45 63/63/46
f 63/63/46 62/62/45 64/64/46
f 63/63/46 64/64/46 65/65/47
f 63/63/46 65/65/47 66/66/47
f 66/66/47 65/65/47 67/67/48
f 66/66/47 67/67/48 68/68/49
f 68/68/49 67/67/48 69/69/50
f 68/68/49 69/69/50 70/70/51
f 70/70/51 69/69/50 71/71/52
f 70/70/51 71/71/52 72/72/53
f 72/72/53 71/71/52 73/73/54
f 72/72/53 73/73/54 74/74/55
f 74/74/55 73/73/54 75/75/56
f 74/74/55 75/75/56 76/76/57
f 76/76/57 75/75/56 77/77/58
f 76/76/57 77/77/58 78/78/59
f 78/78/59 77/77/58 79/79/60
f 79/79/60 77/77/58 80/80/61
f 79/81/60 80/82/61 81/83/62
f 81/83/62 80/82/61 82/84/63
f 81/83/62 82/84/63 83/85/64
f 83/85/64 82/84/63 84/86/65
f 83/85/64 84/86/65 85/87/66
f 85/87/66 84/86/65 86/88/67
f 85/87/66 86/88/67 87/89/68
f 87/89/68 86/88/67 88/90/69
f 87/89/68 88/90/69 61/61/44
f 61/61/44 88/90/69 62/62/45
f 89/91/70 65/65/71 90/92/71
f 90/92/71 65/65/71 64/64/71
f 67/67/72 65/65/72 91/93/72
f 91/93/72 65/65/72 89/91/72
f 90/92/73 64/64/73 92/94/73
f 92/94/73 64/64/73 62/62/73
f 53/95/36 93/96/74 54/97/37
f 63/63/75 66/66/76 93/96/74
f 93/96/74 66/66/76 94/98/77
f 93/96/74 94/98/77 54/97/37
f 94/98/77 66/66/76 68/68/78
f 94/98/77 68/68/78 95/99/79
f 94/98/77 95/99/79 54/97/37
f 54/97/37 95/99/79 96/100/80
f 97/95/81 98/101/82 53/95/36
f 53/95/36 98/101/82 93/96/74
f 93/96/74 98/101/82 61/61/83
f 93/96/74 61/61/83 63/63/75
f 95/99/84 99/102/85 96/100/86
f 99/102/85 95/99/84 70/70/87
f 70/70/87 95/99/84 68/68/87
f 61/61/88 98/101/89 87/89/88
f 87/89/88 98/101/89 100/103/90
f 100/103/90 98/101/89 97/95/91
f 100/103/90 97/95/91 101/104/91
f 91/93/92 102/105/93 67/67/94
f 67/67/94 102/105/93 69/69/95
f 69/69/95 102/105/93 103/106/96
f 69/69/95 103/106/96 71/71/96
f 71/71/96 103/106/96 104/107/97
f 71/71/96 104/107/97 73/73/98
f 73/73/98 104/107/97 105/108/99
f 73/73/98 105/108/99 75/75/100
f 106/109/96 107/110/96 40/111/96
f 106/109/96 40/111/96 108/112/101
f 40/111/96 107/110/96 38/113/96
f 108/112/101 40/111/96 41/114/96
f 38/113/96 107/110/96 32/115/96
f 108/112/101 41/114/96 44/116/96
f 32/115/96 107/110/96 109/117/101
f 108/112/101 44/116/96 110/118/96
f 32/115/96 109/117/101 111/119/96
f 110/118/96 44/116/96 112/120/96
f 32/115/96 111/119/96 28/121/96
f 112/120/96 44/116/96 46/122/96
f 28/121/96 111/119/96 22/123/96
f 112/120/96 46/122/96 48/124/96
f 22/123/96 111/119/96 113/125/96
f 112/120/96 48/124/96 114/126/96
f 22/123/96 113/125/96 115/127/96
f 114/126/96 48/124/96 116/128/102
f 22/123/96 115/127/96 20/129/96
f 116/128/102 48/124/96 49/130/101
f 20/129/96 115/127/96 16/131/102
f 116/128/102 49/130/101 52/132/96
f 16/131/102 115/127/96 117/133/102
f 116/128/102 52/132/96 118/134/96
f 16/131/102 117/133/102 119/135/96
f 118/134/96 52/132/96 120/136/96
f 16/131/102 119/135/96 12/137/96
f 120/136/96 52/132/96 121/138/96
f 12/137/96 119/135/96 8/139/96
f 120/136/96 121/138/96 122/140/101
f 8/139/96 119/135/96 123/141/96
f 120/136/96 122/140/101 124/142/96
f 8/139/96 123/141/96 125/143/102
f 124/142/96 122/140/101 126/144/96
f 8/139/96 125/143/102 3/145/96
f 126/144/96 122/140/101 127/146/96
f 3/145/96 125/143/102 1/147/96
f 126/144/96 127/146/96 128/148/96
f 1/147/96 125/143/102 129/149/96
f 126/144/96 128/148/96 130/150/96
f 1/147/96 129/149/96 131/151/96
f 130/150/96 128/148/96 132/152/96
f 1/147/96 131/151/96 7/153/96
f 132/152/96 128/148/96 133/154/96
f 7/153/96 131/151/96 9/155/96
f 132/152/96 133/154/96 134/156/96
f 9/155/96 131/151/96 135/157/96
f 132/152/96 134/156/96 136/158/96
f 9/155/96 135/157/96 13/159/102
f 136/158/96 134/156/96 137/160/96
f 13/159/102 135/157/96 138/161/96
f 137/160/96 134/156/96 139/162/96
f 13/159/102 138/161/96 19/163/96
f 137/160/96 139/162/96 35/164/96
f 19/163/96 138/161/96 140/165/101
f 137/160/96 35/164/96 141/166/96
f 19/163/96 140/165/101 142/167/96
f 141/166/96 35/164/96 143/168/96
f 19/163/96 142/167/96 21/169/96
f 143/168/96 35/164/96 29/170/96
f 21/169/96 142/167/96 144/171/96
f 143/168/96 29/170/96 27/172/96
f 21/169/96 144/171/96 27/172/96
f 27/172/96 144/171/96 143/168/96
f 145/173/86 96/100/86 99/102/85
f 146/174/103 147/175/103 148/176/103
f 146/174/103 148/176/103 149/177/103
f 148/176/103 147/175/103 150/178/104
f 149/177/103 148/176/103 151/179/103
f 150/178/104 147/175/103 33/180/103
f 149/177/103 151/179/103 152/181/103
f 33/180/103 147/175/103 153/182/103
f 149/177/103 152/181/103 154/183/105
f 33/180/103 153/182/103 155/184/103
f 154/183/105 152/181/103 156/185/103
f 33/180/103 155/184/103 31/186/103
f 156/185/103 152/181/103 157/187/103
f 31/186/103 155/184/103 25/188/103
f 156/185/103 157/187/103 158/189/103
f 25/188/103 155/184/103 159/190/103
f 156/185/103 158/189/103 160/191/103
f 25/188/103 159/190/103 23/192/104
f 160/191/103 158/189/103 161/193/103
f 23/192/104 159/190/103 162/194/106
f 161/193/103 158/189/103 163/195/103
f 23/192/104 162/194/106 17/196/103
f 161/193/103 163/195/103 51/197/106
f 17/196/103 162/194/106 164/198/106
f 161/193/103 51/197/106 165/199/103
f 17/196/103 164/198/106 166/200/104
f 165/199/103 51/197/106 167/201/103
f 17/196/103 166/200/104 15/202/104
f 167/201/103 51/197/106 50/203/105
f 15/202/104 166/200/104 168/204/104
f 167/201/103 50/203/105 47/205/103
f 15/202/104 168/204/104 11/206/105
f 167/201/103 47/205/103 169/207/106
f 11/206/105 168/204/104 170/208/104
f 169/207/106 47/205/103 171/209/106
f 11/206/105 170/208/104 5/210/103
f 171/209/106 47/205/103 45/211/103
f 5/210/103 170/208/104 2/212/104
f 171/209/106 45/211/103 43/213/106
f 2/212/104 170/208/104 172/214/104
f 171/209/106 43/213/106 173/215/103
f 2/212/104 172/214/104 174/216/104
f 173/215/103 43/213/106 175/217/103
f 2/212/104 174/216/104 4/218/104
f 175/217/103 43/213/106 42/219/103
f 4/218/104 174/216/104 6/220/105
f 175/217/103 42/219/103 39/221/104
f 6/220/105 174/216/104 176/222/104
f 175/217/103 39/221/104 177/223/103
f 6/220/105 176/222/104 178/224/105
f 177/223/103 39/221/104 179/225/104
f 6/220/105 178/224/105 10/226/105
f 179/225/104 39/221/104 34/227/103
f 10/226/105 178/224/105 14/228/104
f 179/225/104 34/227/103 30/229/103
f 14/228/104 178/224/105 180/230/105
f 179/225/104 30/229/103 181/231/103
f 14/228/104 180/230/105 182/232/103
f 181/231/103 30/229/103 183/233/103
f 14/228/104 182/232/103 18/234/104
f 183/233/103 30/229/103 26/235/103
f 18/234/104 182/232/103 24/236/103
f 183/233/103 26/235/103 24/236/103
f 24/236/103 182/232/103 184/237/103
f 24/236/103 184/237/103 183/233/103
f 82/84/107 185/238/108 84/86/109
f 84/86/109 185/238/108 186/239/110
f 84/86/109 186/239/110 86/88/103
f 86/88/103 186/239/110 187/240/103
f 86/88/103 187/240/103 88/90/111
f 88/90/111 187/240/103 188/241/112
f 88/90/111 188/241/112 62/62/113
f 62/62/113 188/241/112 92/94/114
f 72/72/101 74/74/101 189/242/101
f 189/242/101 74/74/101 190/243/101
f 70/70/101 72/72/101 99/102/101
f 99/102/101 72/72/101 189/242/101
f 99/102/101 189/242/101 145/173/101
f 145/173/101 189/242/101 191/244/101
f 191/244/101 189/242/101 192/245/101
f 192/245/101 189/242/101 193/246/101
f 193/246/101 189/242/101 194/247/101
f 194/247/101 189/242/101 190/243/101
f 194/247/101 190/243/101 56/248/101
f 56/248/101 190/243/101 57/249/101
f 195/250/104 83/85/104 196/251/104
f 196/251/104 83/85/104 85/87/104
f 60/252/104 195/250/104 58/253/104
f 58/253/104 195/250/104 197/254/104
f 197/254/104 195/250/104 196/251/104
f 197/254/104 196/251/104 198/255/104
f 198/255/104 196/251/104 199/256/104
f 199/256/104 196/251/104 200/257/104
f 200/257/104 196/251/104 101/104/104
f 101/104/104 196/251/104 100/103/104
f 100/103/104 196/251/104 85/87/104
f 100/103/104 85/87/104 87/89/104
f 137/258/115 147/259/16 136/260/14
f 136/260/14 147/259/16 146/261/116
f 147/259/16 137/258/115 153/262/117
f 136/260/14 146/261/116 149/263/118
f 153/262/117 137/258/115 141/264/117
f 136/260/14 149/263/118 132/265/12
f 153/262/117 141/264/117 143/266/25
f 132/265/12 149/263/118 130/267/10
f 153/262/117 143/266/25 155/268/25
f 130/267/10 149/263/118 154/269/10
f 155/268/25 143/266/25 144/270/26
f 130/267/10 154/269/10 156/271/7
f 155/268/25 144/270/26 159/272/26
f 130/267/10 156/271/7 126/273/7
f 126/273/7 156/271/7 124/274/4
f 124/274/4 156/271/7 160/275/4
f 159/272/26 144/270/26 142/276/28
f 159/272/26 142/276/28 162/277/28
f 162/277/28 142/276/28 140/278/30
f 162/277/28 140/278/30 164/279/29
f 164/279/29 140/278/30 138/280/31
f 164/279/29 138/280/31 166/281/31
f 166/281/31 138/280/31 168/282/32
f 168/282/32 138/280/31 135/283/32
f 168/282/32 135/283/32 170/284/33
f 170/284/33 135/283/32 131/285/33
f 170/284/33 131/285/33 129/286/119
f 170/284/33 129/286/119 172/287/119
f 172/287/119 129/286/119 125/288/120
f 172/287/119 125/288/120 174/289/120
f 174/289/120 125/288/120 176/290/121
f 176/290/121 125/288/120 123/291/121
f 176/290/121 123/291/121 178/292/122
f 178/292/122 123/291/121 119/293/123
f 178/292/122 119/293/123 117/294/124
f 178/292/122 117/294/124 180/295/124
f 180/295/124 117/294/124 182/296/125
f 182/296/125 117/294/124 115/297/125
f 182/296/125 115/297/125 113/298/126
f 182/296/125 113/298/126 184/299/126
f 184/299/126 113/298/126 183/300/127
f 183/300/127 113/298/126 111/301/127
f 183/300/127 111/301/127 181/302/128
f 181/302/128 111/301/127 109/303/128
f 181/302/128 109/303/128 179/304/129
f 179/304/129 109/303/128 107/305/130
f 179/304/129 107/305/130 177/306/131
f 177/306/131 107/305/130 106/307/131
f 177/306/131 106/307/131 108/308/132
f 177/306/131 108/308/132 175/309/132
f 175/309/132 108/308/132 110/310/133
f 175/309/132 110/310/133 173/311/133
f 173/311/133 110/310/133 112/312/134
f 173/311/133 112/312/134 171/313/135
f 171/313/135 112/312/134 169/314/136
f 169/314/136 112/312/134 114/315/136
f 169/314/136 114/315/136 167/316/137
f 167/316/137 114/315/136 116/317/137
f 167/316/137 116/317/137 165/318/1
f 165/318/1 116/317/137 118/319/1
f 165/318/1 118/319/1 161/320/138
f 161/320/138 118/319/1 120/321/138
f 161/320/138 120/321/138 160/322/4
f 160/322/4 120/321/138 124/323/4
f 55/324/139 57/249/139 201/325/98
f 201/325/98 57/249/139 190/243/140
f 201/325/98 190/243/140 76/76/141
f 76/76/141 190/243/140 74/74/141
f 83/85/142 195/250/143 81/83/142
f 81/83/142 195/250/143 202/326/109
f 202/326/109 195/250/143 60/252/144
f 202/326/109 60/252/144 59/327/144
f 81/83/145 202/326/146 79/81/147
f 79/81/147 202/326/146 203/328/148
f 203/328/148 202/326/146 59/327/146
f 203/328/148 59/327/146 36/329/149
f 185/238/150 82/84/151 204/330/152
f 204/330/152 82/84/151 80/82/153
f 37/37/154 55/324/155 205/331/156
f 205/331/156 55/324/155 201/325/155
f 37/37/154 205/331/156 203/332/148
f 37/37/154 203/332/148 36/36/149
f 203/332/148 205/331/156 79/79/147
f 79/79/147 205/331/156 78/78/157
f 78/78/157 205/331/156 201/325/155
f 78/78/157 201/325/155 76/76/158
f 105/108/159 206/333/160 75/75/161
f 75/75/161 206/333/160 77/77/162
f 77/77/162 206/333/160 204/334/152
f 77/77/162 204/334/152 80/80/153
f 35/164/22 139/162/163 37/335/24
f 37/335/24 139/162/163 55/55/38
f 55/55/38 139/162/163 134/156/164
f 55/55/38 134/156/164 56/56/39
f 56/56/39 134/156/164 133/154/165
f 56/56/39 133/154/165 194/336/165
f 194/336/165 133/154/165 193/337/166
f 193/337/166 133/154/165 128/148/166
f 193/337/166 128/148/166 127/146/167
f 193/337/166 127/146/167 192/338/168
f 192/338/168 127/146/167 191/339/169
f 191/339/169 127/146/167 122/140/170
f 191/339/169 122/140/170 145/340/171
f 145/340/171 122/140/170 121/138/172
f 145/340/171 121/138/172 207/138/173
f 145/340/171 207/138/173 96/341/80
f 96/341/80 207/138/173 54/342/37
f 54/342/37 207/138/173 121/138/172
f 54/342/37 121/138/172 52/132/35
f 148/176/174 150/178/175 59/59/42
f 59/59/42 150/178/175 36/343/23
f 36/343/23 150/178/175 33/180/20
f 148/176/174 59/59/42 58/58/41
f 148/176/174 58/58/41 151/179/176
f 151/179/176 58/58/41 197/344/176
f 151/179/176 197/344/176 198/345/177
f 151/179/176 198/345/177 152/181/177
f 152/181/177 198/345/177 157/187/178
f 157/187/178 198/345/177 199/346/179
f 157/187/178 199/346/179 200/347/180
f 157/187/178 200/347/180 158/189/181
f 158/189/181 200/347/180 101/348/182
f 158/189/181 101/348/182 163/195/183
f 163/195/183 101/348/182 208/349/184
f 208/349/184 101/348/182 97/350/81
f 163/195/183 208/349/184 51/197/34
f 208/349/184 97/350/81 53/351/36
f 208/349/184 53/351/36 51/197/34
