# CS2 body mesh, tools/cs2_glb_to_obj.py
v -0.0331 -0.26564 -0.24217
v -0.03963 -0.26376 -0.25985
v -0.02217 -0.26641 -0.22986
v -0.01129 -0.2664 -0.22411
v -0.00051 -0.26639 -0.2223
v 0.03862 -0.26376 -0.25985
v 0.01027 -0.2664 -0.22411
v 0.02116 -0.26641 -0.22986
v 0.03208 -0.26564 -0.24217
v -0.00051 -0.26664 -0.36689
v -0.03963 -0.26665 -0.36718
v 0.03862 -0.26665 -0.36718
v -0.03305 -0.26376 -0.25985
v -0.03305 -0.26366 -0.20192
v -0.03963 -0.26369 -0.21632
v 0.03204 -0.26376 -0.25985
v 0.03204 -0.26366 -0.20192
v 0.03862 -0.26369 -0.21632
v 0.02116 -0.26371 -0.22986
v 0.02116 -0.26364 -0.1906
v 0.01027 -0.26363 -0.18533
v 0.01027 -0.2637 -0.22412
v -0.00051 -0.26363 -0.18329
v -0.00051 -0.26363 -0.18364
v -0.00051 -0.2637 -0.2223
v -0.01129 -0.2637 -0.22412
v -0.01129 -0.26363 -0.18533
v -0.02217 -0.26371 -0.22986
v -0.02217 -0.26364 -0.1906
v -0.00051 -0.26665 -0.36718
v -0.00051 -0.2581 -0.36719
v -0.03963 -0.2581 -0.36719
v 0.03862 -0.2581 -0.36719
v -0.03306 0.10091 -0.30697
v -0.02691 0.10967 -0.30604
v -0.02268 0.10967 -0.30604
v -0.01129 0.10091 -0.30697
v -0.00051 -0.25488 -0.36047
v -0.00051 0.10091 -0.30697
v -0.00051 -0.25702 -0.36079
v -0.03306 -0.25808 -0.36095
v -0.00051 -0.25808 -0.36095
v 0.03204 0.10091 -0.30697
v 0.01027 0.10091 -0.30697
v 0.02166 0.10967 -0.30604
v 0.02589 0.10967 -0.30604
v 0.03204 -0.25808 -0.36095
v -0.03172 0.10102 -0.24687
v -0.03306 0.10102 -0.24687
v -0.02998 0.1054 -0.24641
v -0.03172 0.03087 -0.25742
v -0.0287 0.1054 -0.24641
v 0.03071 0.10102 -0.24687
v 0.02768 0.1054 -0.24641
v 0.02896 0.1054 -0.24641
v 0.03204 0.10102 -0.24687
v 0.03071 0.03087 -0.25742
v -0.03306 0.03087 -0.25742
v 0.03204 0.03087 -0.25742
v -0.03963 -0.2579 -0.25986
v -0.03963 -0.25783 -0.21633
v -0.03305 -0.2578 -0.20193
v -0.03306 0.03084 -0.27488
v -0.03306 0.10099 -0.26433
v -0.03306 0.02066 -0.27641
v -0.03306 0.02736 -0.27187
v -0.03306 0.02576 -0.26838
v -0.03306 -0.25798 -0.30085
v -0.03306 0.02577 -0.26545
v -0.03306 0.02069 -0.25895
v -0.03306 0.02715 -0.26174
v -0.03306 0.10103 -0.24054
v -0.03306 -0.2579 -0.25986
v -0.0332 0.10985 -0.20483
v -0.03172 0.02715 -0.26174
v -0.03172 0.02577 -0.26545
v -0.03172 0.02576 -0.26838
v -0.03172 0.02736 -0.27187
v -0.03172 0.03084 -0.27488
v -0.03172 0.10099 -0.26433
v 0.03862 -0.25783 -0.21633
v 0.03204 -0.2578 -0.20193
v 0.03862 -0.2579 -0.25986
v 0.03204 0.10103 -0.24054
v 0.03218 0.10985 -0.20483
v 0.03204 -0.2579 -0.25986
v 0.03204 -0.25798 -0.30085
v 0.03204 0.02069 -0.25895
v 0.03204 0.02715 -0.26174
v 0.03204 0.02577 -0.26545
v 0.03204 0.02576 -0.26838
v 0.03204 0.02066 -0.27641
v 0.03204 0.02736 -0.27187
v 0.03204 0.03084 -0.27488
v 0.03204 0.10099 -0.26433
v 0.03071 0.03084 -0.27488
v 0.03071 0.10099 -0.26433
v 0.03071 0.02736 -0.27187
v 0.03071 0.02576 -0.26838
v 0.03071 0.02577 -0.26545
v 0.03071 0.02715 -0.26174
v -0.02998 0.10537 -0.26387
v 0.02896 0.10537 -0.26387
v -0.02691 0.10979 -0.23961
v -0.02691 0.10978 -0.24594
v -0.02691 0.10975 -0.2634
v -0.02217 -0.25787 -0.24154
v -0.02232 0.09809 -0.18855
v 0.02589 0.10975 -0.2634
v 0.02589 0.10978 -0.24594
v 0.02589 0.10979 -0.23961
v 0.02116 -0.25787 -0.24154
v 0.0213 0.09809 -0.18855
v 0.03208 -0.26373 -0.24217
v -0.01129 -0.25786 -0.23658
v -0.01143 0.09502 -0.18474
v -0.00055 0.09369 -0.18324
v -0.00051 -0.01856 -0.19962
v -0.00051 -0.25786 -0.23457
v -0.00051 0.09369 -0.18324
v -0.00046 0.09369 -0.18324
v 0.01041 0.09502 -0.18474
v 0.01027 -0.25786 -0.23658
v 0.02116 -0.25778 -0.19061
v 0.01027 -0.25777 -0.18534
v -0.00051 -0.25754 -0.18303
v -0.01129 -0.25777 -0.18534
v -0.02217 -0.25778 -0.19061
v -0.02268 0.10968 -0.30432
v -0.02539 0.10968 -0.30432
v -0.02539 0.10975 -0.2634
v -0.02539 0.10978 -0.24594
v -0.02539 0.10979 -0.23961
v 0.02437 0.10979 -0.23961
v 0.02437 0.10978 -0.24594
v 0.02437 0.10975 -0.2634
v 0.02437 0.10968 -0.30432
v 0.02166 0.10968 -0.30432
v 0.01027 0.10091 -0.30523
v -0.00051 0.10091 -0.30609
v -0.00051 0.10091 -0.30523
v -0.01129 0.10091 -0.30523
v -0.0331 -0.26373 -0.24217
v -0.00046 0.09438 -0.18484
v -0.00051 0.09438 -0.18485
v -0.00053 0.09438 -0.18484
v 0.01041 0.09576 -0.18644
v 0.0213 0.09879 -0.19017
v 0.03046 0.10985 -0.2052
v -0.01143 0.09576 -0.18644
v -0.02232 0.09879 -0.19017
v -0.03148 0.10985 -0.2052
v -0.00051 -0.26372 -0.2223
v -0.00051 -0.25777 -0.1833
v -0.00051 -0.25786 -0.23411
v -0.00051 -0.25808 -0.36097
vt 0.938965 0.744629
vt 0.942383 0.736816
vt 0.934082 0.75
vt 0.929199 0.752441
vt 0.924316 0.753418
vt 0.906738 0.736328
vt 0.919434 0.75293
vt 0.914551 0.75
vt 0.909668 0.744629
vt 0.924316 0.6875
vt 0.941406 0.688477
vt 0.907227 0.687988
vt 0.939453 0.736816
vt 0.938965 0.763184
vt 0.941895 0.756348
vt 0.910156 0.736328
vt 0.911133 0.762695
vt 0.908203 0.756348
vt 0.910645 0.762695
vt 0.915527 0.750488
vt 0.915527 0.768066
vt 0.92041 0.770508
vt 0.919922 0.75293
vt 0.924805 0.771484
vt 0.924805 0.753906
vt 0.929688 0.753418
vt 0.929688 0.770996
vt 0.93457 0.750488
vt 0.93457 0.768555
vt 0.939453 0.763184
vt 0.924805 0.6875
vt 0.924316 0.687988
vt 0.924316 0.684082
vt 0.943359 0.686523
vt 0.905762 0.686523
vt 0.02211 0.021088
vt 0.025986 0.015625
vt 0.028625 0.015656
vt 0.035675 0.02121
vt 0.040375 0.245239
vt 0.042389 0.021271
vt 0.040344 0.246582
vt 0.020065 0.24707
vt 0.040344 0.247192
vt 0.122803 0.037903
vt 0.121948 0.037781
vt 0.124329 0.035309
vt 0.115784 0.082458
vt 0.125122 0.035461
vt 0.099915 0.078186
vt 0.100159 0.034302
vt 0.944824 0.736328
vt 0.944336 0.756836
vt 0.941406 0.76416
vt 0.137085 0.0401
vt 0.110657 0.079895
vt 0.11084 0.03598
vt 0.110657 0.086243
vt 0.135986 0.264893
vt 0.108459 0.081726
vt 0.106201 0.082397
vt 0.099121 0.259033
vt 0.10437 0.082092
vt 0.099915 0.084595
vt 0.102234 0.080872
vt 0.096252 0.033691
vt 0.073914 0.255127
vt 0.075134 0.024872
vt 0.102234 0.080811
vt 0.099915 0.078125
vt 0.100159 0.03421
vt 0.10437 0.082031
vt 0.106201 0.082275
vt 0.108521 0.081665
vt 0.110657 0.079834
vt 0.110901 0.035919
vt 0.905762 0.756836
vt 0.908691 0.76416
vt 0.904297 0.736328
vt 0.121826 0.048737
vt 0.12323 0.04895
vt 0.120239 0.067871
vt 0.122559 0.039337
vt 0.100281 0.031403
vt 0.096558 0.027878
vt 0.100464 0.028488
vt 0.111206 0.030182
vt 0.111023 0.033081
vt 0.137329 0.034302
vt 0.062744 0.252686
vt 0.064087 0.029877
vt 0.100281 0.031311
vt 0.908691 0.744629
vt 0.116272 0.081421
vt 0.117065 0.081543
vt 0.116699 0.084106
vt 0.115845 0.083984
vt 0.292236 0.972656
vt 0.071838 0.973145
vt 0.292236 0.96582
vt 0.070007 0.966309
vt 0.072632 0.979492
vt 0.1427 0.979492
vt 0.292236 0.979004
vt 0.913574 0.77002
vt 0.919434 0.772949
vt 0.924805 0.774414
vt 0.930664 0.773438
vt 0.936035 0.770508
vt 0.42334 0.553711
vt 0.421875 0.553711
vt 0.421875 0.550781
vt 0.42334 0.551758
vt 0.454102 0.550781
vt 0.454102 0.551758
vt 0.467285 0.550781
vt 0.467285 0.551758
vt 0.471924 0.550781
vt 0.471924 0.551758
vt 0.423828 0.5625
vt 0.422363 0.5625
vt 0.423096 0.570801
vt 0.423828 0.570801
vt 0.422363 0.570801
vt 0.939941 0.745117
vt 0.519043 0.571289
vt 0.519043 0.571777
vt 0.52002 0.571777
vt 0.518066 0.564453
vt 0.519043 0.564453
vt 0.515625 0.557129
vt 0.516602 0.557129
vt 0.504883 0.549805
vt 0.504395 0.550781
vt 0.008858 0.062805
vt 0.007187 0.062805
vt 0.007259 0.06958
vt 0.008438 0.069641
vt 0.009125 0.056091
vt 0.00745 0.056061
vt 0.924805 0.754395
vt 0.116577 0.079163
vt 0.117432 0.079285
vt 0.009277 0.049377
vt 0.007618 0.049347
vt 0.009293 0.049377
vt 0.121704 0.039215
vt 0.114685 0.08374
vt 0.11554 0.083923
vt 0.116882 0.077332
vt 0.117676 0.077454
vt 0.117188 0.075134
vt 0.118042 0.075256
vt 0.47876 0.587402
vt 0.457764 0.587402
vt 0.427246 0.587402
vt 0.117493 0.073242
vt 0.118347 0.073364
vt 0.924805 0.773926
vt 0.490479 0.576172
vt 0.516602 0.576172
vt 0.491699 0.570801
vt 0.491943 0.570801
vt 0.517578 0.570801
vt 0.513672 0.581543
vt 0.488037 0.581543
vt 0.508301 0.587402
vt 0.500977 0.59082
vt 0.47876 0.59082
vt 0.424072 0.59082
vt 0.427246 0.570801
vt 0.424072 0.570801
vt 0.493896 0.581543
vt 0.487793 0.587402
vn 0.0826 -0.9872 -0.1368
vn 0.0101 -0.9997 -0.0243
vn 0.0696 -0.9894 -0.1276
vn 0.0217 -0.9956 -0.091
vn 0 -0.9971 -0.0755
vn -0.0101 -0.9997 -0.0243
vn -0.0217 -0.9956 -0.091
vn -0.0696 -0.9894 -0.1276
vn -0.0826 -0.9872 -0.1368
vn 0 -0.9995 0.0302
vn 0 -0.9997 0.0261
vn 0 -1 0.002
vn -0.0039 -1 0.002
vn 0 -0.9994 0.0344
vn 0 -0.0354 -0.9994
vn 0 -0.001 -1
vn 0.0011 0.1307 -0.9914
vn 0.0011 0.1043 -0.9945
vn -0.0011 0.1405 -0.9901
vn 0.0011 0.148 -0.989
vn -0.0011 0.1307 -0.9914
vn 0.0011 0.1405 -0.9901
vn -0.0011 0.1043 -0.9945
vn -0.0011 0.148 -0.989
vn 0.0011 0.1234 -0.9924
vn -0.0011 0.1234 -0.9924
vn -1 -0.001 0
vn -0.977 0.0012 0.2131
vn -0.8276 0.0014 0.5613
vn -1 -0.001 -0.002
vn -1 -0.001 -0.0039
vn 0.977 0.0012 0.2131
vn 1 -0.001 0
vn 0.8276 0.0014 0.5613
vn 1 -0.001 -0.002
vn 1 -0.001 -0.0039
vn -0.8439 0.5342 0.0488
vn -0.9135 0.4067 0.0091
vn -0.9291 0.3699 -0.0013
vn 0.8439 0.5342 0.0488
vn 0.9291 0.3699 -0.0013
vn 0.9135 0.4067 0.0091
vn -0.819 0.5737 -0.0014
vn -0.8568 -0.0747 0.5102
vn -0.8539 -0.0778 0.5146
vn -0.825 0.5618 0.0609
vn 0.819 0.5737 -0.0014
vn 0.8568 -0.0747 0.5102
vn 0.8539 -0.0778 0.5146
vn 0.825 0.5618 0.0609
vn 0.8577 0.0013 0.5141
vn 0.8529 -0.0013 0.522
vn 0.9379 -0.0013 0.347
vn 0.0014 0.7576 -0.6527
vn -0.0014 0.7576 -0.6527
vn -0.3001 -0.1393 0.9437
vn -0.2689 -0.1398 0.953
vn -0.4092 -0.1312 0.903
vn -0.3611 -0.1375 0.9223
vn 0 -0.1453 0.9894
vn 0.2689 -0.1398 0.953
vn 0.3001 -0.1393 0.9437
vn 0.4092 -0.1312 0.903
vn 0.3611 -0.1375 0.9223
vn 0.5874 0.0041 0.8093
vn 0.3244 0.0012 0.9459
vn 0.3214 -0.0062 0.9469
vn 0 -0.0292 0.9996
vn -0.3214 -0.0062 0.9469
vn 0 -0.0438 0.999
vn -0.3244 0.0012 0.9459
vn -0.5874 0.0041 0.8093
vn -0.001 1 -0.001
vn 0.001 1 -0.001
vn -0.6107 0.7919 -0.0014
vn 0.6107 0.7919 -0.0014
vn -0.8529 -0.0013 0.522
vn -0.8577 0.0013 0.5141
vn -0.9379 -0.0013 0.347
vn -0.6168 0.0014 0.7871
vn -0.6137 0.0014 0.7895
vn -0.3214 0.0012 0.9469
vn -0.001 0.001 1
vn -0.0196 0.9144 0.4042
vn 0.0179 0.8201 0.572
vn 0.0198 0.9028 0.4296
vn 0.0576 0.9169 0.3949
vn -0.0013 0.9175 0.3976
vn -0.0946 0.9145 0.3935
vn -0.083 0.9157 0.3932
vn -0.2894 0.8771 0.3833
vn -0.1735 0.9049 0.3886
vn -0.1243 0.8347 0.5365
vn -0.1181 0.8327 0.541
vn 0.0013 0.9175 0.3976
vn -0.0576 0.9169 0.3949
vn -0.0548 0.9175 0.394
vn 0.0946 0.9145 0.3935
vn 0.083 0.9157 0.3932
vn 0.2894 0.8771 0.3833
vn 0.1735 0.9049 0.3886
vn 0.1181 0.8327 0.541
vn 0.1243 0.8347 0.5365
vn 0.6168 0.0014 0.7871
vn 0.6137 0.0014 0.7895
vn 0.3214 0.0012 0.9469
vn 0.0013 0.9373 -0.3485
vn -0.001 0.0029 1
vn 0.001 0.0029 1
vn -0.166 0.0034 0.9861
vn 0.166 0.0034 0.9861
vn 0 -0.1256 0.9921
vn 0 -0.133 0.9911
vn 0 -0.1478 0.989
vn 0 -0.1065 0.9943
vn -0.0013 0.9092 0.4163
vn 0.0013 0.9092 0.4163
vn 0.9599 0.2803 -0.0012
vn -0.9537 0.3007 -0.0012
vn -0.0014 0.6527 0.7576
vn 0.0014 0.6527 0.7576
vn 0.0014 0.7799 -0.6259
vn -0.1168 0.7762 -0.6195
vn 0.1168 0.7762 -0.6195
vn -0.2139 0.9763 -0.0323
vn 0.2139 0.9763 -0.0323
o clip__p0_c0
f 1/1/1 2/2/2 3/3/3
f 3/3/3 2/2/2 4/4/4
f 4/4/4 2/2/2 5/5/5
f 5/5/5 2/2/2 6/6/6
f 5/5/5 6/6/6 7/7/7
f 7/7/7 6/6/6 8/8/8
f 8/8/8 6/6/6 9/9/9
f 6/6/6 2/2/2 10/10/10
f 10/10/10 2/2/2 11/11/11
f 6/6/6 10/10/10 12/12/11
f 2/2/12 13/13/12 14/14/12
f 2/2/12 14/14/12 15/15/12
f 16/16/12 6/6/12 17/17/13
f 17/17/13 6/6/12 18/18/12
f 17/19/12 19/20/12 16/16/12
f 19/20/12 17/19/12 20/21/12
f 19/20/12 20/21/12 21/22/12
f 19/20/12 21/22/12 22/23/12
f 22/23/12 21/22/12 23/24/12
f 22/23/12 23/24/12 24/24/12
f 22/23/12 24/24/12 25/25/12
f 25/25/12 24/24/12 26/26/12
f 26/26/12 24/24/12 23/24/12
f 26/26/12 23/24/12 27/27/12
f 26/26/12 27/27/12 28/28/12
f 28/28/12 27/27/12 29/29/12
f 28/28/12 29/29/12 14/30/12
f 28/28/12 14/30/12 13/13/12
f 30/31/14 12/12/11 10/10/10
f 30/32/14 10/10/10 11/11/11
f 31/33/15 10/10/15 32/34/15
f 10/10/15 31/33/15 33/35/15
f 11/11/16 32/34/16 30/32/16
f 12/12/16 30/32/16 33/35/16
f 34/36/17 35/37/18 36/38/18
f 34/36/17 36/38/18 37/39/19
f 34/36/17 37/39/19 38/40/20
f 38/40/20 37/39/19 39/41/20
f 34/36/17 38/40/20 40/42/20
f 34/36/17 40/42/20 41/43/20
f 41/43/20 40/42/20 42/44/20
f 43/36/21 44/39/22 45/38/23
f 43/36/21 45/38/23 46/37/18
f 44/39/22 43/36/21 38/40/20
f 44/39/22 38/40/20 39/41/20
f 38/40/20 43/36/21 40/42/20
f 40/42/20 43/36/21 47/43/24
f 40/42/20 47/43/24 42/44/20
f 48/45/25 49/46/17 50/47/18
f 49/46/17 48/45/25 51/48/24
f 48/45/25 50/47/18 52/49/18
f 53/45/26 54/49/23 55/47/23
f 53/45/26 55/47/23 56/46/21
f 53/45/26 56/46/21 57/48/20
f 51/50/24 58/50/24 49/51/17
f 57/50/20 56/51/21 59/50/20
f 32/34/27 11/11/27 2/2/27
f 32/34/27 2/2/27 60/52/27
f 60/52/27 2/2/27 61/53/28
f 61/53/28 2/2/27 15/15/28
f 61/53/28 15/15/28 62/54/29
f 62/54/29 15/15/28 14/14/29
f 34/55/27 63/56/27 64/57/27
f 63/56/27 34/55/27 65/58/27
f 65/58/27 34/55/27 41/59/27
f 63/56/27 65/58/27 66/60/27
f 66/60/27 65/58/27 67/61/27
f 65/58/27 41/59/27 68/62/27
f 65/58/27 68/62/27 67/61/27
f 67/61/27 68/62/27 69/63/27
f 69/63/27 68/62/27 70/64/27
f 69/63/27 70/64/27 71/65/27
f 71/65/27 70/64/27 58/50/27
f 70/64/27 68/62/27 72/66/30
f 70/64/27 72/66/30 58/50/27
f 58/50/27 72/66/30 49/51/27
f 72/66/30 68/62/27 73/67/27
f 72/66/30 73/67/27 74/68/31
f 75/69/27 51/70/27 48/71/27
f 75/69/27 48/71/27 76/72/27
f 76/72/27 48/71/27 77/73/27
f 77/73/27 48/71/27 78/74/27
f 78/74/27 48/71/27 79/75/27
f 79/75/27 48/71/27 80/76/27
f 81/77/32 18/18/32 6/6/33
f 18/18/32 81/77/32 82/78/34
f 18/18/32 82/78/34 17/17/34
f 81/77/32 6/6/33 83/79/33
f 83/79/33 6/6/33 33/35/33
f 33/35/33 6/6/33 12/12/33
f 84/66/35 85/68/36 86/67/33
f 84/66/35 86/67/33 87/62/33
f 59/50/33 56/51/33 84/66/35
f 59/50/33 84/66/35 88/64/33
f 88/64/33 84/66/35 87/62/33
f 59/50/33 88/64/33 89/65/33
f 89/65/33 88/64/33 90/63/33
f 90/63/33 88/64/33 87/62/33
f 90/63/33 87/62/33 91/61/33
f 91/61/33 87/62/33 92/58/33
f 92/58/33 87/62/33 47/59/33
f 91/61/33 92/58/33 93/60/33
f 92/58/33 47/59/33 43/55/33
f 93/60/33 92/58/33 94/56/33
f 94/56/33 92/58/33 43/55/33
f 94/56/33 43/55/33 95/57/33
f 96/75/33 97/76/33 53/71/33
f 96/75/33 53/71/33 98/74/33
f 98/74/33 53/71/33 99/73/33
f 99/73/33 53/71/33 100/72/33
f 100/72/33 53/71/33 101/69/33
f 101/69/33 53/71/33 57/70/33
f 52/80/12 50/81/12 102/82/12
f 55/81/12 54/80/12 103/82/12
f 48/71/37 102/82/38 80/83/39
f 53/71/40 97/83/41 103/82/42
f 50/84/43 49/51/43 72/66/43
f 50/84/43 72/66/43 104/85/43
f 50/84/43 104/85/43 105/86/43
f 50/84/43 105/86/43 106/87/43
f 50/84/43 106/87/43 102/88/43
f 102/88/43 106/87/43 35/89/43
f 102/88/43 35/89/43 64/57/43
f 64/57/43 35/89/43 34/55/43
f 107/90/44 108/91/45 74/68/45
f 107/90/44 74/68/45 73/67/44
f 52/92/46 102/82/38 48/71/37
f 43/55/47 46/89/47 95/57/47
f 95/57/47 46/89/47 103/88/47
f 103/88/47 46/89/47 109/87/47
f 103/88/47 109/87/47 55/84/47
f 55/84/47 109/87/47 110/86/47
f 55/84/47 110/86/47 111/85/47
f 55/84/47 111/85/47 84/66/47
f 55/84/47 84/66/47 56/51/47
f 112/90/48 86/67/48 85/68/49
f 112/90/48 85/68/49 113/91/49
f 54/92/50 53/71/40 103/82/42
f 114/93/51 9/9/52 6/6/53
f 75/94/54 71/95/54 58/96/54
f 75/94/54 58/96/54 51/97/54
f 101/94/55 57/97/55 59/96/55
f 101/94/55 59/96/55 89/95/54
f 115/98/56 116/99/57 107/100/58
f 107/100/58 116/99/57 108/101/59
f 116/99/57 115/98/56 117/102/60
f 117/102/60 115/98/56 118/103/60
f 118/103/60 115/98/56 119/104/60
f 117/102/60 118/103/60 120/102/60
f 120/102/60 118/103/60 121/102/60
f 122/99/61 123/98/62 112/100/63
f 122/99/61 112/100/63 113/101/64
f 17/19/34 82/78/34 124/105/65
f 17/19/34 124/105/65 20/21/65
f 20/21/65 124/105/65 125/106/66
f 20/21/65 125/106/66 21/22/67
f 126/107/68 27/27/69 23/24/70
f 126/107/68 23/24/70 21/22/67
f 126/107/68 21/22/67 125/106/66
f 27/27/69 126/107/68 127/108/71
f 27/27/69 127/108/71 29/29/72
f 29/29/72 127/108/71 128/109/72
f 29/29/72 128/109/72 14/30/29
f 14/30/29 128/109/72 62/54/29
f 119/104/60 123/98/62 118/103/60
f 118/103/60 123/98/62 121/102/60
f 121/102/60 123/98/62 122/99/61
f 129/110/73 36/111/74 35/112/74
f 129/110/73 35/112/74 130/113/73
f 130/113/73 35/112/74 106/114/74
f 130/113/73 106/114/74 131/115/74
f 131/115/74 106/114/74 105/116/74
f 131/115/74 105/116/74 132/117/74
f 132/117/74 105/116/74 104/118/74
f 132/117/74 104/118/74 133/119/73
f 134/119/74 111/118/73 135/117/73
f 135/117/73 111/118/73 110/116/73
f 135/117/73 110/116/73 136/115/73
f 136/115/73 110/116/73 109/114/73
f 136/115/73 109/114/73 137/113/74
f 137/113/74 109/114/73 46/112/73
f 137/113/74 46/112/73 138/110/74
f 138/110/74 46/112/73 45/111/74
f 139/120/75 138/110/75 45/111/75
f 139/120/75 45/111/75 44/121/75
f 139/120/74 140/122/73 141/123/73
f 140/122/73 139/120/74 44/121/74
f 140/122/73 44/121/74 39/124/73
f 39/124/73 37/121/73 140/122/73
f 140/122/73 37/121/73 142/120/73
f 140/122/73 142/120/73 141/123/73
f 142/120/76 37/121/76 36/111/76
f 142/120/76 36/111/76 129/110/76
f 1/1/77 143/125/78 2/2/79
f 143/125/78 1/1/77 28/28/80
f 28/28/80 1/1/77 3/3/81
f 28/28/80 3/3/81 26/26/82
f 26/26/82 3/3/81 4/4/82
f 26/26/82 4/4/82 25/25/83
f 144/126/84 145/127/85 146/127/86
f 144/126/84 146/127/86 120/128/87
f 144/126/84 120/128/87 121/128/88
f 144/126/84 121/128/88 147/129/89
f 147/129/89 121/128/88 122/130/90
f 147/129/89 122/130/90 148/131/91
f 148/131/91 122/130/90 113/132/92
f 148/131/91 113/132/92 85/133/93
f 148/131/91 85/133/93 149/134/94
f 117/128/95 120/128/96 146/126/95
f 146/126/95 120/128/96 145/127/97
f 117/128/95 146/126/95 150/129/98
f 117/128/95 150/129/98 116/130/99
f 116/130/99 150/129/98 151/131/100
f 116/130/99 151/131/100 108/132/101
f 152/134/102 74/133/103 151/131/100
f 19/135/104 8/136/105 9/137/52
f 19/135/104 9/137/52 114/138/51
f 8/136/105 19/135/104 22/139/106
f 8/136/105 22/139/106 7/140/106
f 108/132/101 151/131/100 74/133/103
f 153/141/83 4/4/82 5/5/83
f 76/142/107 69/143/107 71/95/107
f 76/142/107 71/95/107 75/94/107
f 100/142/107 101/94/107 89/95/107
f 100/142/107 89/95/107 90/143/107
f 153/141/108 25/25/109 4/4/110
f 7/140/106 153/144/83 5/145/83
f 25/146/83 7/140/106 22/139/106
f 153/144/108 7/140/111 25/146/109
f 80/83/112 64/147/113 63/148/114
f 80/83/112 63/148/114 79/149/114
f 97/83/112 96/149/114 94/148/114
f 97/83/112 94/148/114 95/147/113
f 80/83/112 102/82/115 64/147/113
f 103/82/115 97/83/112 95/147/113
f 77/150/74 67/151/74 69/143/74
f 77/150/74 69/143/74 76/142/74
f 99/150/74 100/142/74 90/143/74
f 99/150/74 90/143/74 91/151/74
f 78/152/116 66/153/116 67/151/116
f 78/152/116 67/151/116 77/150/117
f 98/152/117 99/150/117 91/151/117
f 98/152/117 91/151/117 93/153/117
f 73/154/118 68/155/118 41/156/118
f 87/155/119 86/154/119 47/156/119
f 79/157/120 63/158/121 66/153/120
f 79/157/120 66/153/120 78/152/120
f 96/157/121 98/152/121 93/153/121
f 96/157/121 93/153/121 94/158/121
f 154/159/122 126/107/122 125/106/123
f 126/107/122 154/159/122 127/108/124
f 10/10/125 33/35/125 30/31/125
f 10/10/126 30/32/126 32/34/126
f 115/160/73 127/161/74 119/162/74
f 119/162/74 127/161/74 155/163/74
f 155/163/74 127/161/74 154/164/74
f 127/161/74 115/160/73 128/165/73
f 128/165/73 115/160/73 107/166/73
f 128/165/73 107/166/73 62/167/73
f 62/167/73 107/166/73 73/154/73
f 62/167/73 73/154/73 61/168/73
f 61/168/73 73/154/73 60/169/74
f 60/169/74 73/154/73 41/156/74
f 60/169/74 41/156/74 32/170/74
f 32/170/74 41/156/74 42/171/74
f 32/170/74 42/171/74 156/171/74
f 156/171/74 42/171/74 33/170/73
f 32/170/74 156/171/74 31/172/74
f 155/163/74 125/161/73 119/162/74
f 125/161/73 155/163/74 154/164/74
f 119/162/74 125/161/73 123/160/74
f 123/160/74 125/161/73 124/165/74
f 123/160/74 124/165/74 112/166/74
f 112/166/74 124/165/74 82/167/74
f 112/166/74 82/167/74 86/154/74
f 86/154/74 82/167/74 81/168/74
f 86/154/74 81/168/74 83/169/73
f 86/154/74 83/169/73 47/156/73
f 47/156/73 83/169/73 33/170/73
f 47/156/73 33/170/73 42/171/74
f 156/171/74 33/170/73 31/172/74
f 28/173/73 13/154/73 143/174/73
f 16/154/74 19/173/74 114/174/74
