# CS2 body mesh, tools/cs2_glb_to_obj.py
v 0.0134 -0.12137 -0.25174
v 0 -0.12137 -0.25174
v 0.0134 -0.10506 -0.25665
v 0 -0.10506 -0.25665
v 0 -0.18506 -0.2299
v 0.0134 -0.08525 -0.26167
v 0.0134 -0.18506 -0.2299
v 0.0134 -0.19036 -0.22809
v 0 -0.19036 -0.22809
v 0 -0.08525 -0.26167
v 0.0134 -0.06454 -0.26529
v 0 -0.06454 -0.26529
v 0.0134 -0.04582 -0.26687
v 0 -0.04582 -0.26687
v 0.0134 -0.02706 -0.2672
v 0 -0.02706 -0.2672
v 0.0134 0.0575 -0.2672
v 0 0.0575 -0.2672
v -0.0144 -0.02705 -0.2662
v -0.0144 0.0575 -0.2662
v -0.0134 -0.02706 -0.2672
v -0.0134 0.0575 -0.2672
v -0.0134 -0.04582 -0.26687
v -0.0144 -0.04576 -0.26587
v -0.0144 -0.04552 -0.26181
v -0.0144 -0.06391 -0.26025
v -0.0134 -0.06454 -0.26529
v -0.0144 -0.06442 -0.26429
v -0.0144 -0.08422 -0.2567
v -0.0134 -0.08525 -0.26167
v -0.0144 -0.08505 -0.26068
v -0.0144 -0.10369 -0.25176
v -0.0134 -0.10506 -0.25665
v -0.0144 -0.10479 -0.25568
v -0.0144 -0.11982 -0.24691
v -0.0134 -0.12137 -0.25174
v -0.0144 -0.12107 -0.25078
v -0.0144 -0.18473 -0.22895
v -0.0144 -0.18338 -0.22511
v -0.0134 -0.18506 -0.2299
v -0.0134 -0.19036 -0.22809
v -0.0144 -0.19003 -0.22713
v -0.0144 -0.18871 -0.22328
v 0.0144 0.0575 -0.264
v 0.01239 0.0575 -0.264
v 0.0144 0.06439 -0.264
v 0.01239 0.06439 -0.264
v 0.01193 0.06697 -0.264
v 0.01384 0.06762 -0.264
v 0.01113 0.06859 -0.264
v 0.01261 0.06996 -0.264
v 0.00889 0.06991 -0.264
v 0.00996 0.07162 -0.264
v -0.00996 0.07162 -0.264
v -0.00889 0.06991 -0.264
v -0.01261 0.06996 -0.264
v -0.01113 0.06859 -0.264
v -0.01384 0.06762 -0.264
v -0.01193 0.06697 -0.264
v -0.0144 0.06439 -0.264
v -0.01239 0.06439 -0.264
v -0.01239 0.0575 -0.264
v -0.0144 0.0575 -0.264
v 0 0.06439 -0.17674
v 0 0.03952 -0.17674
v -0.01178 0.06439 -0.17674
v -0.01197 0.03952 -0.17673
v 0 -0.19098 -0.22681
v 0.0134 -0.19098 -0.22681
v 0 -0.18966 -0.22296
v 0.0134 -0.18966 -0.22296
v 0 -0.18721 -0.21581
v 0.0134 -0.18721 -0.21581
v 0 -0.17088 -0.16817
v 0.0134 -0.17088 -0.16817
v 0 -0.16181 -0.14174
v 0.0134 -0.16181 -0.14174
v 0 -0.16053 -0.14111
v 0.0134 -0.16053 -0.14111
v -0.0134 -0.19098 -0.22681
v -0.0134 -0.18966 -0.22296
v -0.0134 -0.18721 -0.21581
v -0.0144 -0.18626 -0.21614
v -0.0144 -0.17005 -0.16875
v -0.0134 -0.17088 -0.16817
v -0.0134 -0.16181 -0.14174
v -0.0144 -0.16058 -0.14193
v -0.0134 -0.16053 -0.14111
v 0.0144 -0.19003 -0.22713
v 0.0144 -0.18871 -0.22328
v 0.0144 -0.18626 -0.21614
v 0.0144 -0.17005 -0.16875
v 0.0144 -0.16058 -0.14193
v 0.01279 0.03952 -0.19166
v 0.01296 0.03952 -0.17769
v 0.01278 0.06439 -0.19167
v 0.01296 0.06439 -0.17787
v 0.01197 0.03952 -0.17673
v 0.01178 0.06439 -0.17674
v 0.0144 -0.10369 -0.25176
v 0.0144 -0.11982 -0.24691
v 0.0144 -0.10479 -0.25568
v 0.0144 -0.12107 -0.25078
v 0.0144 -0.18473 -0.22895
v 0.0144 -0.18338 -0.22511
v 0.0144 -0.08505 -0.26068
v 0.0144 -0.08422 -0.2567
v 0.0144 -0.06442 -0.26429
v 0.0144 -0.06391 -0.26025
v 0.0144 -0.04576 -0.26587
v 0.0144 -0.04552 -0.26181
v 0.0144 -0.02705 -0.2662
v 0.0144 -0.02701 -0.26213
v 0.0144 0.0575 -0.2662
v 0.0144 0.0575 -0.26213
v 0.0144 0.06439 -0.26213
v 0.01384 0.06762 -0.26213
v 0.01384 0.06762 -0.25457
v 0.00996 0.07162 -0.21976
v 0.01261 0.06996 -0.21976
v 0.01384 0.06762 -0.23023
v 0.0144 0.06439 -0.25457
v 0.01384 0.06762 -0.22419
v 0.0144 0.06439 -0.23023
v 0.01384 0.06762 -0.21976
v 0.0144 -0.02673 -0.23023
v 0.0144 -0.02695 -0.25457
v 0.0144 -0.04368 -0.22996
v 0.0144 -0.04509 -0.25426
v 0.0144 -0.06296 -0.25275
v 0.0144 -0.05993 -0.2286
v 0.0144 -0.07774 -0.22547
v 0.0144 -0.08269 -0.2493
v 0.0144 -0.10164 -0.24449
v 0.0144 -0.09504 -0.22106
v 0.0144 -0.11005 -0.21654
v 0.0144 -0.1175 -0.23971
v 0.0144 -0.17808 -0.21002
v 0.0144 -0.15909 -0.19972
v 0.0144 -0.18088 -0.21798
v 0.0144 -0.16002 -0.1989
v 0.0144 -0.16047 -0.19797
v 0.0144 -0.16034 -0.1961
v 0.0144 -0.16683 -0.17793
v 0.0144 -0.15931 -0.19453
v 0.0144 -0.15839 -0.19408
v 0.0144 -0.15715 -0.194
v 0.0144 -0.1477 -0.17529
v 0.0144 -0.14517 -0.17776
v 0.0144 -0.1082 -0.21079
v 0.0144 -0.14811 -0.17178
v 0.0144 -0.1023 -0.19247
v 0.0144 -0.0934 -0.21524
v 0.0144 -0.08818 -0.19672
v 0.0144 -0.0726 -0.20071
v 0.0144 -0.07651 -0.21955
v 0.0144 -0.05917 -0.2226
v 0.0144 -0.05677 -0.20351
v 0.0144 -0.04222 -0.20471
v 0.0144 -0.04333 -0.22393
v 0.0144 -0.02668 -0.22419
v 0.0144 -0.02651 -0.20494
v 0.0144 0.06439 -0.21976
v 0.0144 0.06439 -0.20494
v 0.0144 0.06439 -0.22419
v -0.0144 -0.11005 -0.21654
v -0.0134 -0.10964 -0.21527
v -0.0144 -0.09504 -0.22106
v -0.0134 -0.1584 -0.19854
v -0.0144 -0.15909 -0.19972
v -0.0134 -0.09468 -0.21977
v -0.0144 -0.07774 -0.22547
v -0.0134 -0.07747 -0.22415
v -0.0144 -0.05993 -0.2286
v -0.0134 -0.09376 -0.21654
v -0.0134 -0.05975 -0.22727
v -0.0144 -0.04368 -0.22996
v -0.0134 -0.07679 -0.22086
v -0.0134 -0.05935 -0.22394
v -0.0134 -0.0436 -0.22862
v -0.0144 -0.07651 -0.21955
v -0.0144 -0.0934 -0.21524
v -0.0144 -0.05917 -0.2226
v -0.0144 -0.1082 -0.21079
v -0.0134 -0.04341 -0.22527
v -0.0144 -0.04333 -0.22393
v -0.0144 -0.02673 -0.23023
v -0.0134 -0.02669 -0.22553
v -0.0144 -0.02668 -0.22419
v -0.0134 -0.02672 -0.22889
v -0.0144 0.06439 -0.22419
v -0.0134 0.06439 -0.22889
v -0.0144 0.06439 -0.23023
v -0.0134 0.06439 -0.22553
v -0.01384 0.06762 -0.22419
v -0.01283 0.06675 -0.22553
v -0.01283 0.06675 -0.22889
v -0.01384 0.06762 -0.23023
v -0.0134 -0.10861 -0.21207
v -0.0144 -0.15715 -0.194
v -0.0134 -0.15734 -0.19536
v -0.0144 -0.15839 -0.19408
v -0.0134 -0.15821 -0.19549
v -0.0144 -0.15931 -0.19453
v -0.0144 -0.16034 -0.1961
v -0.0134 -0.15903 -0.19654
v -0.0144 -0.16047 -0.19797
v -0.0134 -0.15902 -0.19789
v -0.0144 -0.16002 -0.1989
v -0.0134 -0.18793 -0.22249
v -0.0134 -0.18613 -0.21724
v -0.0134 -0.18304 -0.22416
v -0.0144 -0.18088 -0.21798
v -0.0134 -0.18121 -0.21893
v -0.0144 -0.1175 -0.23971
v -0.0134 -0.11951 -0.24595
v -0.0134 -0.11781 -0.24067
v -0.0134 -0.10342 -0.25079
v -0.0134 -0.10191 -0.24546
v -0.0144 -0.10164 -0.24449
v -0.0134 -0.08402 -0.25572
v -0.0134 -0.08289 -0.25028
v -0.0144 -0.08269 -0.2493
v -0.0134 -0.06378 -0.25925
v -0.0134 -0.06309 -0.25375
v -0.0144 -0.06296 -0.25275
v -0.0134 -0.04547 -0.2608
v -0.0144 -0.02701 -0.26213
v -0.0134 -0.04515 -0.25526
v -0.0144 -0.04509 -0.25426
v -0.0134 -0.027 -0.26112
v -0.0134 -0.02695 -0.25558
v -0.0144 -0.02695 -0.25457
v -0.0144 0.06439 -0.25457
v -0.0134 0.0575 -0.26112
v -0.0144 0.0575 -0.26213
v -0.0134 0.06439 -0.25558
v -0.01384 0.06762 -0.25457
v -0.0134 0.06439 -0.26112
v -0.0144 0.06439 -0.26213
v -0.01283 0.06675 -0.25558
v -0.01283 0.06675 -0.26112
v -0.01384 0.06762 -0.26213
v -0.00996 0.07162 -0.21976
v -0.01261 0.06996 -0.21976
v -0.01384 0.06762 -0.21976
v -0.0144 -0.17808 -0.21002
v -0.0144 -0.16683 -0.17793
v -0.0144 -0.1477 -0.17529
v -0.0144 -0.14517 -0.17776
v -0.0144 -0.1023 -0.19247
v -0.0144 -0.08818 -0.19672
v -0.0144 -0.0726 -0.20071
v -0.0144 -0.05677 -0.20351
v -0.0144 -0.04222 -0.20471
v -0.0144 -0.02651 -0.20494
v -0.0144 0.06439 -0.21976
v -0.0144 0.06439 -0.20494
v 0.0134 -0.10861 -0.21207
v 0.0134 -0.10964 -0.21527
v 0.0134 -0.09376 -0.21654
v 0.0134 -0.07679 -0.22086
v 0.0134 -0.15734 -0.19536
v 0.0134 -0.1584 -0.19854
v 0.0134 -0.15821 -0.19549
v 0.0134 -0.15903 -0.19654
v 0.0134 -0.15902 -0.19789
v 0.0134 -0.09468 -0.21977
v 0.0134 -0.07747 -0.22415
v 0.0134 -0.05935 -0.22394
v 0.0134 -0.05975 -0.22727
v 0.0134 -0.04341 -0.22527
v 0.0134 -0.0436 -0.22862
v 0.0134 -0.02669 -0.22553
v 0.0134 -0.02672 -0.22889
v 0.0134 0.06439 -0.22889
v 0.0134 0.06439 -0.22553
v 0.01283 0.06675 -0.22553
v 0.01283 0.06675 -0.22889
v 0.0134 -0.18613 -0.21724
v 0.0134 -0.18793 -0.22249
v 0.0134 -0.18304 -0.22416
v 0.0134 -0.18121 -0.21893
v 0.0134 -0.11951 -0.24595
v 0.0134 -0.11781 -0.24067
v 0.0134 -0.10342 -0.25079
v 0.0134 -0.10191 -0.24546
v 0.0134 -0.08402 -0.25572
v 0.0134 -0.08289 -0.25028
v 0.0134 -0.06378 -0.25925
v 0.0134 -0.06309 -0.25375
v 0.0134 -0.04547 -0.2608
v 0.0134 -0.04515 -0.25526
v 0.0134 -0.027 -0.26112
v 0.0134 -0.02695 -0.25558
v 0.0134 0.0575 -0.26112
v 0.0134 0.06439 -0.25558
v 0.0134 0.06439 -0.26112
v 0.01283 0.06675 -0.25558
v 0.01283 0.06675 -0.26112
v -0.01257 0.06439 -0.20379
v -0.01257 -0.0265 -0.20379
v -0.01172 0.06439 -0.20225
v -0.01257 -0.04215 -0.20357
v -0.01172 -0.02649 -0.20225
v -0.01172 -0.02642 -0.19554
v -0.01172 0.06439 -0.19554
v -0.01257 0.06439 -0.194
v -0.01257 -0.05662 -0.20237
v -0.01172 -0.04207 -0.20203
v -0.01257 -0.02641 -0.194
v -0.0144 0.06439 -0.19286
v -0.0144 -0.0264 -0.19286
v -0.0144 -0.04152 -0.19264
v -0.01257 -0.07237 -0.19958
v -0.01172 -0.05643 -0.20084
v -0.01257 -0.08787 -0.19561
v -0.01172 -0.07206 -0.19808
v -0.01172 -0.04168 -0.19532
v -0.01172 -0.0556 -0.19418
v -0.01257 -0.04159 -0.19379
v -0.0144 -0.05526 -0.19152
v -0.01257 -0.05541 -0.19265
v -0.0144 -0.07015 -0.18887
v -0.01172 -0.07069 -0.1915
v -0.01257 -0.07038 -0.18999
v -0.0144 -0.0849 -0.18508
v -0.01172 -0.08745 -0.19413
v -0.01172 -0.08563 -0.18767
v -0.01257 -0.08521 -0.18619
v -0.0144 -0.0986 -0.18097
v -0.01257 -0.10195 -0.19138
v -0.01172 -0.10148 -0.18991
v -0.01257 -0.14456 -0.17676
v -0.01172 -0.14611 -0.17451
v -0.01172 -0.09942 -0.18352
v -0.01172 -0.1464 -0.17196
v -0.0144 -0.14811 -0.17178
v -0.01172 -0.14579 -0.17013
v -0.0144 -0.14725 -0.16924
v -0.01172 -0.14402 -0.16831
v -0.0144 -0.14481 -0.16671
v -0.0144 -0.14131 -0.16631
v -0.01257 -0.14144 -0.16748
v -0.01257 -0.09895 -0.18205
v 0.01172 -0.09942 -0.18352
v 0.01172 -0.10148 -0.18991
v 0.01172 -0.08563 -0.18767
v 0.01172 -0.08745 -0.19413
v 0.01257 -0.08521 -0.18619
v 0.01172 -0.07069 -0.1915
v 0.01257 -0.07038 -0.18999
v 0.0144 -0.0849 -0.18508
v 0.0144 -0.07015 -0.18887
v 0.0144 -0.0986 -0.18097
v 0.01257 -0.05541 -0.19265
v 0.0144 -0.05526 -0.19152
v 0.01257 -0.09895 -0.18205
v 0.0144 -0.14131 -0.16631
v 0.01257 -0.14144 -0.16748
v 0.01172 -0.14402 -0.16831
v 0.0144 -0.14481 -0.16671
v 0.0144 -0.14725 -0.16924
v 0.01172 -0.14579 -0.17013
v 0.01172 -0.1464 -0.17196
v 0.01172 -0.14611 -0.17451
v 0.01257 -0.14456 -0.17676
v 0.01257 -0.10195 -0.19138
v 0.01257 -0.08787 -0.19561
v 0.01172 -0.07206 -0.19808
v 0.01257 -0.07237 -0.19958
v 0.01172 -0.0556 -0.19418
v 0.01172 -0.05643 -0.20084
v 0.01257 -0.05662 -0.20237
v 0.01257 -0.04159 -0.19379
v 0.0144 -0.04152 -0.19264
v 0.01172 -0.04168 -0.19532
v 0.01257 -0.02641 -0.194
v 0.0144 -0.0264 -0.19286
v 0.0144 0.06439 -0.19286
v 0.01257 0.06439 -0.194
v 0.01172 -0.02642 -0.19554
v 0.01172 0.06439 -0.19554
v 0.01172 0.06439 -0.20225
v 0.01172 -0.04207 -0.20203
v 0.01172 -0.02649 -0.20225
v 0.01257 -0.04215 -0.20357
v 0.01257 -0.0265 -0.20379
v 0.01257 0.06439 -0.20379
v 0.01239 0.06439 -0.21976
v 0.01264 0.06439 -0.20591
v 0.00996 0.06439 -0.20424
v 0.00996 0.06439 -0.19356
v 0.0144 0.06439 -0.17644
v 0.01322 0.06439 -0.17526
v 0 0.06439 -0.17526
v -0.01322 0.06439 -0.17526
v -0.0144 0.06439 -0.17644
v -0.01296 0.06439 -0.17787
v -0.01278 0.06439 -0.19167
v -0.00996 0.06439 -0.19356
v -0.00996 0.06439 -0.20424
v -0.01264 0.06439 -0.20591
v -0.01239 0.06439 -0.21976
v 0.0144 -0.163 -0.16701
v 0.0144 -0.15489 -0.1439
v 0.0134 -0.15462 -0.14314
v 0.0134 -0.09321 -0.16422
v 0.0144 -0.09352 -0.16517
v 0.0134 -0.08013 -0.16815
v 0.0144 -0.0804 -0.16912
v 0.0134 -0.06657 -0.17164
v 0.0144 -0.06678 -0.17263
v 0.0134 -0.05306 -0.17406
v 0.0144 -0.05319 -0.17506
v 0.0134 -0.0405 -0.17508
v 0.0144 -0.04056 -0.17609
v 0.0134 -0.02625 -0.17526
v 0.0144 -0.02626 -0.17627
v -0.01296 0.03952 -0.17769
v -0.01279 0.03952 -0.19166
v -0.01261 0.0575 -0.2663
v 0 0.0575 -0.2663
v 0.01261 0.0575 -0.2663
v 0.00889 0.06991 -0.21976
v -0.00889 0.06991 -0.21976
v 0.01298 0.03952 -0.26633
v 0.01245 0.03952 -0.20544
v 0.01193 0.06697 -0.21976
v 0.01113 0.06859 -0.21976
v -0.01113 0.06859 -0.21976
v -0.01193 0.06697 -0.21976
v -0.01298 0.03952 -0.26633
v -0.01245 0.03952 -0.20544
v 0.00996 0.03952 -0.20424
v 0.00996 0.03952 -0.19356
v -0.00996 0.03952 -0.19356
v -0.00996 0.03952 -0.20424
v 0 0.03952 -0.26633
v -0.0144 -0.163 -0.16701
v -0.0144 -0.15489 -0.1439
v -0.0134 -0.15462 -0.14314
v 0 -0.15462 -0.14314
v 0 -0.09321 -0.16422
v -0.0144 -0.09352 -0.16517
v -0.0134 -0.09321 -0.16422
v -0.0134 -0.08013 -0.16815
v 0 -0.08013 -0.16815
v -0.0144 -0.0804 -0.16912
v -0.0144 -0.06678 -0.17263
v -0.0134 -0.06657 -0.17164
v 0 -0.06657 -0.17164
v -0.0134 -0.05306 -0.17406
v 0 -0.05306 -0.17406
v 0 -0.0405 -0.17508
v -0.0144 -0.05319 -0.17506
v -0.0134 -0.0405 -0.17508
v 0 -0.02625 -0.17526
v -0.0144 -0.04056 -0.17609
v -0.0134 -0.02625 -0.17526
v -0.0144 -0.02626 -0.17627
vt 0.056183 0.869629
vt 0.034821 0.875977
vt 0.047974 0.842285
vt 0.026352 0.848145
vt 0.071533 0.98291
vt 0.039703 0.809082
vt 0.092773 0.976074
vt 0.095825 0.984863
vt 0.074524 0.991699
vt 0.017853 0.813477
vt 0.033661 0.774902
vt 0.011574 0.777832
vt 0.030746 0.743652
vt 0.008499 0.745117
vt 0.03009 0.712402
vt 0.007618 0.712891
vt 0.029953 0.570801
vt 0.007511 0.571289
vt 2.03125 0.711914
vt 2.03125 0.570801
vt 2.029297 0.712402
vt 2.029297 0.570801
vt 2.005859 0.712891
vt 2.005859 0.571289
vt 2.007812 0.745117
vt 2.029297 0.743652
vt 2.009766 0.777832
vt 2.03125 0.743164
vt 2.039062 0.742676
vt 2.041016 0.773438
vt 2.033203 0.774902
vt 2.017578 0.813477
vt 2.035156 0.774414
vt 2.046875 0.807617
vt 2.039062 0.809082
vt 2.025391 0.848145
vt 2.041016 0.808594
vt 2.056641 0.839844
vt 2.046875 0.842285
vt 2.033203 0.875977
vt 2.048828 0.841797
vt 2.064453 0.866699
vt 2.054688 0.869629
vt 2.070312 0.98291
vt 2.056641 0.868652
vt 2.09375 0.975098
vt 2.101562 0.973145
vt 2.091797 0.976074
vt 2.095703 0.984863
vt 2.074219 0.991699
vt 2.097656 0.984375
vt 2.103516 0.981934
vt 0.669434 1.499023
vt 0.669434 1.501953
vt 0.679688 1.499023
vt 0.679688 1.501953
vt 0.684082 1.501953
vt 0.684082 1.499023
vt 0.687012 1.501953
vt 0.6875 1.499023
vt 0.691406 1.50293
vt 0.691895 1.5
vt 0.838867 1.503906
vt 0.838867 1.541992
vt 0.820801 1.503906
vt 0.820801 1.541992
vt 0.029221 0.558594
vt 0.009544 0.558594
vt 0.029251 0.556641
vt 0.009834 0.556641
vt 0.029282 0.550781
vt 0.009743 0.550781
vt 0.029266 0.540039
vt 0.009743 0.540039
vt 0.029266 0.466553
vt 0.009743 0.466553
vt 0.029236 0.425781
vt 0.009804 0.426025
vt 0.029175 0.423828
vt 0.009468 0.424072
vt 2.007812 0.557129
vt 2.007812 0.558594
vt 2.009766 0.556641
vt 2.027344 0.556641
vt 2.027344 0.558594
vt 2.027344 0.550781
vt 2.007812 0.550781
vt 2.005859 0.550781
vt 2.027344 0.540039
vt 2.007812 0.540039
vt 2.005859 0.540039
vt 2.027344 0.466553
vt 2.005859 0.467041
vt 2.007812 0.466553
vt 2.027344 0.425781
vt 2.009766 0.426025
vt 2.005859 0.425293
vt 2.027344 0.423828
vt 2.007812 0.424072
vt 0.007889 0.557129
vt 0.00766 0.550781
vt 0.007668 0.540039
vt 0.007706 0.467041
vt 0.007668 0.425293
vt 0.797363 1.541992
vt 0.818359 1.541992
vt 0.796875 1.50293
vt 0.818359 1.503906
vt 0.056793 0.839844
vt 0.065002 0.866699
vt 0.050262 0.841797
vt 0.058502 0.868652
vt 0.095093 0.975098
vt 0.101562 0.973145
vt 0.098206 0.984375
vt 0.10498 0.981934
vt 0.041931 0.808594
vt 0.048492 0.807617
vt 0.035858 0.774414
vt 0.04248 0.773438
vt 0.033051 0.743164
vt 0.039795 0.742676
vt 0.032501 0.711914
vt 0.039276 0.711914
vt 0.03241 0.570801
vt 0.036163 0.570312
vt 0.039276 0.570312
vt 0.039307 0.558594
vt 0.036194 0.558594
vt 0.036804 0.553223
vt 0.039978 0.553223
vt 0.03714 0.548828
vt 0.052917 0.553223
vt 0.111145 0.542969
vt 0.03717 0.543457
vt 0.111206 0.54834
vt 0.09375 0.553223
vt 0.053131 0.558594
vt 0.104065 0.552734
vt 0.093628 0.558594
vt 0.111511 0.552734
vt 0.093689 0.710938
vt 0.053101 0.711426
vt 0.094116 0.739258
vt 0.053558 0.741699
vt 0.056091 0.771484
vt 0.096252 0.766602
vt 0.101624 0.796387
vt 0.06192 0.804688
vt 0.070068 0.836426
vt 0.109131 0.825195
vt 0.116821 0.850586
vt 0.078186 0.862793
vt 0.128174 0.964355
vt 0.145142 0.932617
vt 0.114746 0.96875
vt 0.146606 0.934082
vt 0.148315 0.935059
vt 0.117859 0.978027
vt 0.151611 0.93457
vt 0.182251 0.945801
vt 0.154419 0.933105
vt 0.155273 0.931641
vt 0.197876 0.951172
vt 0.155273 0.929199
vt 0.186523 0.913574
vt 0.182129 0.90918
vt 0.126953 0.847168
vt 0.192871 0.914551
vt 0.157227 0.837402
vt 0.119385 0.822266
vt 0.150024 0.813477
vt 0.143311 0.787598
vt 0.112122 0.793945
vt 0.106934 0.765137
vt 0.138794 0.76123
vt 0.136841 0.736816
vt 0.104919 0.73877
vt 0.104492 0.710938
vt 0.136475 0.710449
vt 0.111816 0.558105
vt 0.136475 0.558105
vt 0.104553 0.558594
vt 2.115234 0.850586
vt 2.119141 0.849609
vt 2.107422 0.825195
vt 2.146484 0.931152
vt 2.144531 0.932617
vt 2.111328 0.824707
vt 2.101562 0.796387
vt 2.103516 0.795898
vt 2.095703 0.766602
vt 2.115234 0.823242
vt 2.097656 0.766113
vt 2.09375 0.739258
vt 2.109375 0.794922
vt 2.103516 0.765625
vt 2.095703 0.739258
vt 2.111328 0.793945
vt 2.119141 0.822266
vt 2.105469 0.765137
vt 2.126953 0.847168
vt 2.101562 0.73877
vt 2.103516 0.73877
vt 2.091797 0.710938
vt 2.101562 0.710938
vt 2.103516 0.710938
vt 2.095703 0.710938
vt 2.103516 0.558594
vt 2.095703 0.558594
vt 2.091797 0.558594
vt 2.101562 0.558594
vt 2.103516 0.552734
vt 2.101562 0.554688
vt 2.095703 0.554688
vt 2.09375 0.553223
vt 2.123047 0.848145
vt 2.154297 0.929199
vt 2.152344 0.929688
vt 2.154297 0.931641
vt 2.152344 0.930664
vt 2.154297 0.933105
vt 2.150391 0.93457
vt 2.150391 0.932129
vt 2.146484 0.935059
vt 2.148438 0.932129
vt 2.146484 0.934082
vt 2.105469 0.980469
vt 2.115234 0.977539
vt 2.103516 0.972168
vt 2.117188 0.978027
vt 2.113281 0.96875
vt 2.111328 0.969238
vt 2.078125 0.862793
vt 2.066406 0.866211
vt 2.074219 0.863281
vt 2.058594 0.839355
vt 2.066406 0.836914
vt 2.068359 0.836426
vt 2.048828 0.807129
vt 2.058594 0.805176
vt 2.060547 0.804688
vt 2.042969 0.772949
vt 2.052734 0.771973
vt 2.054688 0.771484
vt 2.041016 0.742676
vt 2.039062 0.711914
vt 2.050781 0.742188
vt 2.052734 0.741699
vt 2.041016 0.711426
vt 2.050781 0.711426
vt 2.052734 0.711426
vt 2.052734 0.558594
vt 2.041016 0.570312
vt 2.039062 0.570312
vt 2.050781 0.558594
vt 2.052734 0.553223
vt 2.041016 0.558594
vt 2.039062 0.558594
vt 2.050781 0.554688
vt 2.041016 0.554688
vt 2.039062 0.553223
vt 2.035156 0.570312
vt 2.035156 0.558594
vt 2.035156 0.553223
vt 2.037109 0.548828
vt 2.109375 0.542969
vt 2.037109 0.543457
vt 2.109375 0.54834
vt 2.111328 0.552734
vt 2.126953 0.964355
vt 2.181641 0.945801
vt 2.197266 0.951172
vt 2.185547 0.913574
vt 2.181641 0.90918
vt 2.15625 0.837402
vt 2.148438 0.813477
vt 2.142578 0.787598
vt 2.138672 0.76123
vt 2.136719 0.736816
vt 2.134766 0.710449
vt 2.111328 0.558105
vt 2.134766 0.558105
vt 0.124451 0.848145
vt 0.119324 0.849609
vt 0.116882 0.823242
vt 0.109558 0.794922
vt 0.152588 0.929688
vt 0.147339 0.931152
vt 0.152466 0.930664
vt 0.150757 0.932129
vt 0.14856 0.932129
vt 0.111633 0.824707
vt 0.104187 0.795898
vt 0.104309 0.765625
vt 0.098877 0.766113
vt 0.102295 0.73877
vt 0.096802 0.739258
vt 0.101807 0.710938
vt 0.096375 0.710938
vt 0.096252 0.558594
vt 0.101807 0.558594
vt 0.101624 0.554688
vt 0.096313 0.554688
vt 0.115295 0.977539
vt 0.106628 0.980469
vt 0.10376 0.972168
vt 0.112488 0.969238
vt 0.0672 0.866211
vt 0.075989 0.863281
vt 0.059021 0.839355
vt 0.067871 0.836914
vt 0.05072 0.807129
vt 0.059692 0.805176
vt 0.044739 0.772949
vt 0.053833 0.771973
vt 0.042084 0.742676
vt 0.05127 0.742188
vt 0.041626 0.711426
vt 0.050812 0.711426
vt 0.041626 0.570312
vt 0.050903 0.558594
vt 0.041656 0.558594
vt 0.050842 0.554688
vt 0.04187 0.554688
vt 2.138672 0.558105
vt 2.138672 0.709961
vt 2.142578 0.558105
vt 2.138672 0.736328
vt 2.142578 0.709961
vt 2.152344 0.709961
vt 2.152344 0.558105
vt 2.15625 0.558105
vt 2.140625 0.760254
vt 2.142578 0.736328
vt 2.15625 0.709473
vt 2.160156 0.557617
vt 2.160156 0.709473
vt 2.160156 0.734863
vt 2.146484 0.786621
vt 2.144531 0.760254
vt 2.152344 0.8125
vt 2.148438 0.786133
vt 2.154297 0.735352
vt 2.154297 0.758789
vt 2.15625 0.735352
vt 2.162109 0.757812
vt 2.158203 0.758301
vt 2.166016 0.782715
vt 2.160156 0.78418
vt 2.162109 0.783691
vt 2.171875 0.807617
vt 2.154297 0.812012
vt 2.166016 0.809082
vt 2.167969 0.808105
vt 2.177734 0.830566
vt 2.160156 0.836426
vt 2.162109 0.834961
vt 2.183594 0.907227
vt 2.1875 0.90918
vt 2.171875 0.832031
vt 2.191406 0.909668
vt 2.191406 0.914551
vt 2.193359 0.908691
vt 2.197266 0.913086
vt 2.197266 0.90625
vt 2.201172 0.908691
vt 2.203125 0.902344
vt 2.199219 0.902344
vt 2.175781 0.831543
vt 0.173218 0.832031
vt 0.16272 0.834961
vt 0.166504 0.809082
vt 0.155884 0.812012
vt 0.169312 0.808105
vt 0.160278 0.78418
vt 0.163086 0.783691
vt 0.172607 0.807617
vt 0.166626 0.782715
vt 0.179077 0.830566
vt 0.158936 0.758301
vt 0.162354 0.757812
vt 0.175781 0.831543
vt 0.203125 0.902344
vt 0.199707 0.902344
vt 0.197998 0.90625
vt 0.202148 0.908691
vt 0.197632 0.913086
vt 0.19519 0.908691
vt 0.192505 0.909668
vt 0.188721 0.90918
vt 0.184937 0.907227
vt 0.160278 0.836426
vt 0.15332 0.8125
vt 0.149414 0.786133
vt 0.146606 0.786621
vt 0.156006 0.758789
vt 0.14502 0.760254
vt 0.142212 0.760254
vt 0.157104 0.735352
vt 0.160645 0.734863
vt 0.154297 0.735352
vt 0.156738 0.709473
vt 0.160156 0.709473
vt 0.160156 0.557617
vt 0.156738 0.558105
vt 0.153931 0.709961
vt 0.153931 0.558105
vt 0.142822 0.558105
vt 0.143188 0.736328
vt 0.142822 0.709961
vt 0.140381 0.736328
vt 0.140015 0.709961
vt 0.140015 0.558105
vt 0.749023 1.503906
vt 0.770996 1.50293
vt 0.749512 1.5
vt 0.771484 1.5
vt 0.775879 1.503906
vt 0.774414 1.500977
vt 0.77832 1.500977
vt 0.791992 1.503906
vt 0.789551 1.500977
vt 0.792969 1.500977
vt 0.795898 1.5
vt 0.820801 1.501953
vt 0.816895 1.501953
vt 0.819336 1.500977
vt 0.838867 1.501953
vt 0.20105 0.939453
vt 0.243164 0.935059
vt 0.240234 0.925293
vt 0.242188 0.924805
vt 0.245361 0.935059
vt 0.207764 0.821777
vt 0.205444 0.822266
vt 0.201538 0.799805
vt 0.199219 0.800293
vt 0.196167 0.776855
vt 0.193726 0.777344
vt 0.192383 0.753906
vt 0.189941 0.754395
vt 0.190674 0.73291
vt 0.188232 0.733398
vt 0.189941 0.708984
vt 0.187744 0.708984
vt 0.190186 0.557129
vt 0.1875 0.557617
vt 0.755371 1.543945
vt 0.747559 1.542969
vt 0.756348 1.539062
vt 0.750488 1.538086
vt 0.748047 1.540039
vt 0.707031 1.541016
vt 0.707031 1.543945
vt 0.601562 1.451172
vt 0.730469 1.452148
vt 0.601562 1.445312
vt 0.73291 1.448242
vt 0.682129 1.514648
vt 0.678223 1.513672
vt 0.678223 1.541992
vt 0.770996 1.541992
vt 0.682129 1.503906
vt 0.682129 1.5
vt 0.749512 1.499023
vt 0.681641 1.49707
vt 0.749512 1.496094
vt 0.748535 1.493164
vt 0.682129 1.493164
vt 0.775391 1.541992
vt 0.791992 1.541992
vt 0.695801 0.620605
vt 0.668945 0.621094
vt 0.697754 0.622559
vt 0.665039 0.626465
vt 0.697754 0.645508
vt 0.644531 0.626465
vt 0.523438 0.645508
vt 0.64209 0.621582
vt 0.523438 0.620605
vt 2.199219 0.939453
vt 2.242188 0.935059
vt 2.240234 0.925293
vt 2.242188 0.924805
vt 2.244141 0.935059
vt 2.261719 0.917969
vt 2.265625 0.928223
vt 2.228516 0.81543
vt 2.205078 0.822266
vt 2.207031 0.821777
vt 2.201172 0.799805
vt 2.222656 0.794434
vt 2.199219 0.800293
vt 2.193359 0.777344
vt 2.195312 0.776855
vt 2.216797 0.772461
vt 2.191406 0.753906
vt 2.212891 0.750977
vt 2.212891 0.731445
vt 2.189453 0.754395
vt 2.189453 0.73291
vt 2.210938 0.708496
vt 2.1875 0.733398
vt 2.189453 0.708984
vt 2.1875 0.708984
vt 2.1875 0.557617
vt 2.189453 0.557129
vt 2.210938 0.557129
vt 0.263428 0.917969
vt 0.266602 0.928223
vt 0.229248 0.81543
vt 0.223145 0.794434
vt 0.21814 0.772461
vt 0.214722 0.750977
vt 0.213013 0.731445
vt 0.21228 0.708496
vt 0.21228 0.557129
vt 0.751465 1.50293
vt 0.754883 1.50293
vt 0.749512 1.500977
vt 0.754395 1.499023
vt 0.757812 1.50293
vt 0.758301 1.5
vt 0.762207 1.50293
vt 0.763184 1.5
vt 0.658203 1.541992
vt 0.658691 1.514648
vn 0.063 -0.3426 -0.9373
vn 0 -0.3211 -0.9471
vn 0.0614 -0.2929 -0.9542
vn 0 -0.2742 -0.9617
vn 0 -0.3481 -0.9375
vn 0.0587 -0.219 -0.974
vn 0.0439 -0.4902 -0.8705
vn 0 -0.4724 -0.8814
vn 0 -0.2292 -0.9734
vn 0.0561 -0.1531 -0.9866
vn 0 -0.1428 -0.9897
vn 0.0525 -0.0711 -0.9961
vn 0 -0.0677 -0.9977
vn 0.0678 -0.018 -0.9975
vn 0 -0.0169 -0.9999
vn -0.9785 -0.0012 -0.2064
vn -0.9736 -0.0012 -0.2281
vn -0.0858 0.0011 -0.9963
vn -0.0701 -0.0536 -0.9961
vn -0.9827 -0.0011 -0.1851
vn -1 -0.001 0
vn -0.0749 -0.1346 -0.9881
vn -0.9819 -0.0198 -0.1885
vn -0.0785 -0.2 -0.9766
vn -0.9831 -0.0582 -0.1734
vn -0.0822 -0.2736 -0.9583
vn -0.0845 -0.3234 -0.9425
vn -0.0665 -0.4726 -0.8787
vn -0.9757 -0.1814 -0.1226
vn -0.9551 -0.2761 0.1073
vn 0 -0.9896 0.1441
vn 0.0561 -0.9868 0.1518
vn 0 -0.938 0.3466
vn 0.063 -0.9379 0.3411
vn 0 -0.9287 0.371
vn 0.0637 -0.9282 0.3665
vn 0.0012 0.205 0.9788
vn 0.0397 0.2154 0.9757
vn -0.076 -0.9851 0.1545
vn -0.0855 -0.9338 0.3473
vn -0.9866 -0.1531 0.0561
vn -0.9897 -0.1323 0.0552
vn -0.0866 -0.9237 0.3733
vn -0.9911 -0.0934 0.0945
vn -0.0591 0.1967 0.9787
vn 0.9709 -0.2046 -0.1245
vn 0.9473 -0.3012 0.1088
vn 0.983 -0.1745 0.057
vn 0.9866 -0.1531 0.0561
vn 0.9889 -0.1136 0.0961
vn -0.9997 0.0171 0.0151
vn -0.9988 -0.001 -0.0492
vn 1 -0.001 0
vn 0.9812 -0.0785 -0.1764
vn 0.9806 -0.0391 -0.1919
vn 0.9819 -0.0198 -0.1885
vn 0.9775 -0.0201 -0.2101
vn 0.9724 -0.0204 -0.2323
vn 0.9978 0.0656 -0.001
vn 0.9616 0.2746 -0.0012
vn 0.9189 0.3945 -0.0013
vn 0.696 0.7181 0.0014
vn 0.9384 0.3455 -0.0013
vn 0.5236 0.852 0.0013
vn 0.9999 0.0149 -0.001
vn 0.9469 0.3214 -0.0012
vn -0.8078 0.1736 0.5632
vn -0.9787 0.0591 0.1967
vn -0.8151 0.1996 0.5439
vn -0.8121 0.119 0.5713
vn -0.9806 0.0367 0.1928
vn -0.8127 0.07 0.5785
vn -0.979 -0.0591 -0.1953
vn -0.8102 0.0208 0.5858
vn -0.9806 -0.0391 -0.1919
vn -0.9785 -0.0012 0.2064
vn -0.8109 -0.119 -0.5729
vn -0.8081 -0.1704 -0.5639
vn -0.8115 -0.07 -0.5801
vn -0.8103 -0.0236 -0.5855
vn -0.8 -0.0014 -0.6
vn -0.9744 -0.0203 -0.2239
vn -0.8527 -0.4279 -0.2997
vn -0.9757 -0.1213 -0.1826
vn -0.9741 -0.1012 0.2023
vn -0.8551 -0.4012 0.3284
vn -0.8154 -0.1962 -0.5446
vn -0.8121 0.119 -0.5713
vn -0.9304 0.1833 -0.3176
vn -0.8242 0.4145 -0.3859
vn -0.8349 0.5148 -0.1948
vn -0.862 0.4789 -0.1665
vn -0.8213 0.5686 0.0463
vn -0.9293 0.3524 0.1102
vn -0.8209 0.4634 0.3337
vn -0.9738 0.2193 0.06
vn -0.9738 0.1013 -0.2038
vn -0.9899 0.0563 0.1299
vn -0.7142 0.6608 0.2307
vn -0.7132 0.2273 0.6631
vn -0.7156 0.3439 -0.608
vn -0.7127 -0.2308 -0.6624
vn -0.9898 -0.0564 -0.1312
vn -0.7205 0.1729 0.6716
vn -0.7115 0.1465 0.6873
vn -0.9909 -0.0373 -0.129
vn -0.7201 -0.1762 -0.6711
vn -0.9892 0.0192 0.1455
vn -0.7155 0.0955 0.692
vn -0.7111 -0.1498 -0.6869
vn -0.7176 0.0471 0.6948
vn -0.989 -0.0192 -0.1468
vn -0.717 -0.0955 -0.6905
vn -0.9897 0.0011 0.143
vn -0.7181 0.0014 0.696
vn -0.9897 0.0011 -0.143
vn -0.7177 -0.0441 -0.6949
vn -0.7181 0.0014 -0.696
vn -0.707 -0.021 -0.707
vn -0.9868 0.0194 0.1609
vn -0.7069 0.0239 0.7069
vn -0.9867 -0.0171 -0.1618
vn -0.7893 -0.5591 -0.2537
vn -0.9714 0.0811 0.2232
vn -0.9834 -0.1175 -0.1381
vn -0.9827 -0.098 0.1573
vn -0.7949 -0.5378 0.2807
vn -0.9988 0.0481 0.001
vn -0.9678 0.2518 0.0012
vn -0.9291 0.3699 0.0013
vn -0.7181 0.696 0.0014
vn -0.9469 0.3214 0.0012
vn -0.5487 0.836 0.0014
vn -0.9546 0.2978 0.0012
vn 0.9768 -0.0798 -0.1988
vn 0.9765 0.0798 0.2002
vn 0.7959 -0.1974 -0.5724
vn 0.8028 -0.2238 -0.5527
vn 0.979 -0.0591 -0.1953
vn 0.8001 -0.1448 -0.5822
vn 0.7999 0.148 -0.5816
vn 0.9231 0.2091 -0.3229
vn 0.8067 0.4442 -0.3897
vn 0.8142 0.5464 -0.1963
vn 0.8456 0.5068 -0.1679
vn 0.803 0.5941 0.0466
vn 0.9173 0.3821 0.1117
vn 0.8024 0.4929 0.3366
vn 0.8023 0.2273 0.5519
vn 0.7955 0.2008 0.5717
vn 0.7999 0.148 0.5816
vn 0.9787 0.0591 0.1967
vn 0.8032 0.0944 0.5882
vn 0.802 -0.0944 -0.5899
vn 0.8018 0.0437 0.596
vn 0.8018 -0.0466 -0.5957
vn 0.9773 0.0177 0.211
vn 0.7916 0.0209 -0.6107
vn 0.9736 -0.0012 -0.2281
vn 0.8363 -0.4572 -0.3027
vn 0.972 -0.1438 -0.1858
vn 0.9708 -0.1233 0.2058
vn 0.8393 -0.4306 0.332
vn 0.6958 0.3734 -0.6136
vn 0.6896 0.6864 0.2309
vn 0.9705 0.1234 -0.2073
vn 0.6956 -0.2589 -0.6702
vn 0.9683 0.2424 0.0609
vn 0.6962 0.2553 0.6709
vn 0.9883 0.076 0.1322
vn 0.9881 -0.0761 -0.1335
vn 0.7051 0.1999 0.6803
vn 0.6964 0.173 0.6964
vn 0.9898 -0.0564 -0.1312
vn 0.7046 -0.2033 -0.6798
vn 0.9883 0.0379 0.1481
vn 0.7019 0.1207 0.7019
vn 0.696 -0.1763 -0.696
vn 0.7053 0.071 0.7053
vn 0.9881 -0.0379 -0.1494
vn 0.7017 -0.1239 -0.7017
vn 0.9892 0.0192 0.1455
vn 0.7069 0.0239 0.7069
vn 0.989 -0.0192 -0.1468
vn 0.7055 -0.0679 -0.7055
vn 0.707 -0.021 -0.707
vn 0.696 0.0014 -0.7181
vn 0.696 0.0014 0.7181
vn 0.9864 -0.0011 -0.1644
vn 0.7682 -0.5872 -0.255
vn 0.9684 0.1028 0.2272
vn 0.9803 -0.1392 -0.1404
vn 0.9799 -0.1194 0.16
vn 0.7742 -0.5664 0.2824
vn -0.5396 0.0233 0.8416
vn -0.5487 0.0014 0.836
vn -0.9945 0.0163 0.1035
vn -0.5428 0.046 0.8386
vn -0.9963 0.0011 0.0858
vn -0.9963 0.0011 -0.0858
vn -0.996 0.0183 0.0872
vn -0.5444 0.1182 0.8305
vn -0.54 -0.0206 -0.8414
vn -0.5487 0.0014 -0.836
vn -0.5444 -0.0461 -0.8376
vn -0.5439 0.1996 0.8151
vn -0.5519 0.2273 0.8023
vn -0.996 -0.0161 -0.0882
vn -0.5461 -0.1183 -0.8293
vn -0.5446 -0.1962 -0.8154
vn -0.5527 -0.2238 -0.8028
vn -0.9954 0.0361 0.0887
vn -0.9954 -0.0339 -0.0897
vn -0.5392 -0.2791 -0.7946
vn -0.729 0.1997 0.6547
vn -0.5383 0.2826 0.794
vn -0.9935 0.0367 0.1079
vn -0.7216 0.2585 0.6423
vn -0.545 0.3117 0.7784
vn -0.9395 0.1807 0.2911
vn -0.5513 0.7614 0.3411
vn -0.9993 0.0318 -0.0174
vn -0.5524 0.8307 -0.0696
vn -0.9931 0.0917 -0.0736
vn -0.542 0.7021 -0.4619
vn -0.9412 -0.0425 -0.3352
vn -0.557 0.3708 -0.7432
vn -0.7286 -0.2031 -0.6542
vn 0.9945 -0.0523 -0.0912
vn 0.9924 0.0554 0.1098
vn 0.9944 0.0546 0.0902
vn 0.9954 -0.0339 -0.0897
vn 0.5293 -0.2538 -0.8096
vn 0.5244 -0.2223 -0.8219
vn 0.5142 -0.3095 -0.7999
vn 0.5277 -0.143 -0.8373
vn 0.7127 -0.2308 -0.6624
vn 0.9377 -0.0644 -0.3415
vn 0.5331 0.3986 -0.7463
vn 0.5127 0.7251 -0.4596
vn 0.9909 0.1116 -0.0748
vn 0.5261 0.8476 -0.0691
vn 0.9986 0.0489 -0.0177
vn 0.5222 0.7825 0.339
vn 0.9327 0.2062 0.2959
vn 0.5222 0.339 0.7825
vn 0.7041 0.2871 0.6495
vn 0.516 0.3096 0.7987
vn 0.7132 0.2273 0.6631
vn 0.5311 0.2539 0.8084
vn 0.5236 0.2257 0.8215
vn 0.9954 0.0361 0.0887
vn 0.526 0.1429 0.8384
vn 0.5261 0.0691 0.8476
vn 0.5277 -0.0691 -0.8466
vn 0.5336 -0.0205 -0.8455
vn 0.5236 0.0013 -0.852
vn 0.996 -0.0161 -0.0882
vn 0.9945 0.0011 -0.1043
vn 0.996 0.0183 0.0872
vn 0.5332 0.0233 0.8457
vn 0.5236 0.0013 0.852
vn 0.001 0.9999 -0.0169
vn 0.9989 0.0323 0.0344
vn 0.043 0.3586 0.9325
vn 0.0643 0.3399 0.9383
vn 0.998 0.035 0.052
vn 0.0626 0.2902 0.9549
vn 0.0609 0.2424 0.9683
vn 0.9986 0.0156 0.051
vn 0.0572 0.1507 0.9869
vn 0.0537 0.0712 0.996
vn 0.0689 0.018 0.9975
vn 0.9986 -0.0177 -0.05
vn 0.9999 -0.001 0.0159
vn -0.852 0.5236 0.0013
vn 0.836 0.5487 0.0014
vn -0.9999 -0.0169 0
vn -0.9999 -0.001 0.0159
vn -0.9986 -0.0511 0.0167
vn -0.9664 -0.2562 0.0194
vn -0.7076 -0.7062 0.0225
vn -0.5342 -0.8451 0.0219
vn 0.5086 -0.8607 0.0218
vn 0.6848 -0.7283 0.0225
vn 0.9547 -0.2974 0
vn 0.9994 -0.0333 0
vn 0.9963 -0.0857 0
vn 0.9999 -0.0169 0
vn 0.9997 0.0151 0.0171
vn -0.4983 0.0013 -0.867
vn -0.5753 -0.0014 0.8179
vn 0.5587 0.0235 0.8291
vn 0.4823 -0.0202 -0.8758
vn -0.9993 0.0154 0.0338
vn -0.0643 0.3399 0.9383
vn 0.0013 0.3455 0.9384
vn 0.0012 0.3214 0.9469
vn -0.9986 0.0156 0.051
vn -0.0858 0.3206 0.9433
vn -0.0834 0.2709 0.959
vn 0.0012 0.2746 0.9616
vn -0.9988 -0.001 0.0492
vn -0.0811 0.2232 0.9714
vn 0.0012 0.2267 0.974
vn -0.076 0.1322 0.9883
vn 0.0011 0.143 0.9897
vn 0.001 0.0481 0.9988
vn -0.0712 0.0537 0.996
vn 0.001 0.0149 0.9999
vn -0.0858 0.0011 0.9963
vn 0 -0.001 1
vn -0.0151 0.0171 0.9997
o magazine__p0_c0
f 1/1/1 2/2/2 3/3/3
f 3/3/3 2/2/2 4/4/4
f 2/2/2 1/1/1 5/5/5
f 3/3/3 4/4/4 6/6/6
f 5/5/5 1/1/1 7/7/1
f 5/5/5 7/7/1 8/8/7
f 5/5/5 8/8/7 9/9/8
f 6/6/6 4/4/4 10/10/9
f 6/6/6 10/10/9 11/11/10
f 11/11/10 10/10/9 12/12/11
f 11/11/10 12/12/11 13/13/12
f 13/13/12 12/12/11 14/14/13
f 13/13/12 14/14/13 15/15/14
f 15/15/14 14/14/13 16/16/15
f 15/15/14 16/16/15 17/17/14
f 17/17/14 16/16/15 18/18/15
f 19/19/16 20/20/17 21/21/18
f 21/21/18 20/20/17 22/22/18
f 21/21/18 22/22/18 16/23/15
f 16/23/15 22/22/18 18/24/15
f 21/21/18 16/23/15 14/25/13
f 21/21/18 14/25/13 23/26/19
f 21/21/18 23/26/19 19/19/16
f 23/26/19 14/25/13 12/27/11
f 19/19/16 23/26/19 24/28/20
f 19/19/16 24/28/20 25/29/21
f 25/29/21 24/28/20 26/30/21
f 23/26/19 12/27/11 27/31/22
f 23/26/19 27/31/22 24/28/20
f 27/31/22 12/27/11 10/32/9
f 26/30/21 24/28/20 28/33/23
f 28/33/23 24/28/20 27/31/22
f 26/30/21 28/33/23 29/34/21
f 27/31/22 10/32/9 30/35/24
f 27/31/22 30/35/24 28/33/23
f 30/35/24 10/32/9 4/36/4
f 29/34/21 28/33/23 31/37/25
f 31/37/25 28/33/23 30/35/24
f 29/34/21 31/37/25 32/38/21
f 30/35/24 4/36/4 33/39/26
f 30/35/24 33/39/26 31/37/25
f 33/39/26 4/36/4 2/40/2
f 32/38/21 31/37/25 34/41/25
f 34/41/25 31/37/25 33/39/26
f 32/38/21 34/41/25 35/42/21
f 33/39/26 2/40/2 36/43/27
f 33/39/26 36/43/27 34/41/25
f 36/43/27 2/40/2 5/44/5
f 35/42/21 34/41/25 37/45/25
f 37/45/25 34/41/25 36/43/27
f 35/42/21 37/45/25 38/46/25
f 38/46/25 37/45/25 36/43/27
f 35/42/21 38/46/25 39/47/21
f 36/43/27 5/44/5 40/48/27
f 36/43/27 40/48/27 38/46/25
f 40/48/27 5/44/5 41/49/28
f 40/48/27 41/49/28 38/46/25
f 41/49/28 5/44/5 9/50/8
f 38/46/25 41/49/28 42/51/29
f 38/46/25 42/51/29 39/47/21
f 39/47/21 42/51/29 43/52/30
f 44/53/15 45/54/15 46/55/15
f 46/55/15 45/54/15 47/56/15
f 46/55/15 47/56/15 48/57/15
f 46/55/15 48/57/15 49/58/15
f 49/58/15 48/57/15 50/59/15
f 49/58/15 50/59/15 51/60/15
f 51/60/15 50/59/15 52/61/15
f 51/60/15 52/61/15 53/62/15
f 54/62/15 55/61/15 56/60/15
f 56/60/15 55/61/15 57/59/15
f 56/60/15 57/59/15 58/58/15
f 58/58/15 57/59/15 59/57/15
f 58/58/15 59/57/15 60/55/15
f 60/55/15 59/57/15 61/56/15
f 60/55/15 61/56/15 62/54/15
f 60/55/15 62/54/15 63/53/15
f 64/63/15 65/64/15 66/65/14
f 66/65/14 65/64/15 67/66/14
f 9/67/8 8/68/7 68/69/31
f 68/69/31 8/68/7 69/70/32
f 68/69/31 69/70/32 70/71/33
f 70/71/33 69/70/32 71/72/34
f 70/71/33 71/72/34 72/73/33
f 72/73/33 71/72/34 73/74/34
f 72/73/33 73/74/34 74/75/33
f 74/75/33 73/74/34 75/76/34
f 74/75/33 75/76/34 76/77/35
f 76/77/35 75/76/34 77/78/36
f 76/77/35 77/78/36 78/79/37
f 78/79/37 77/78/36 79/80/38
f 42/81/29 41/82/28 80/83/39
f 80/83/39 41/82/28 68/84/31
f 68/84/31 41/82/28 9/85/8
f 80/83/39 68/84/31 70/86/33
f 42/81/29 80/83/39 81/87/40
f 81/87/40 80/83/39 70/86/33
f 42/81/29 81/87/40 43/88/30
f 81/87/40 70/86/33 72/89/33
f 43/88/30 81/87/40 82/90/40
f 82/90/40 81/87/40 72/89/33
f 43/88/30 82/90/40 83/91/41
f 82/90/40 72/89/33 74/92/33
f 83/91/41 82/90/40 84/93/42
f 82/90/40 74/92/33 85/94/40
f 82/90/40 85/94/40 84/93/42
f 85/94/40 74/92/33 76/95/35
f 84/93/42 85/94/40 86/96/43
f 86/96/43 85/94/40 76/95/35
f 84/93/42 86/96/43 87/97/44
f 86/96/43 76/95/35 78/98/37
f 87/97/44 86/96/43 88/99/45
f 88/99/45 86/96/43 78/98/37
f 69/70/32 8/68/7 89/100/46
f 69/70/32 89/100/46 71/72/34
f 71/72/34 89/100/46 90/101/47
f 71/72/34 90/101/47 73/74/34
f 73/74/34 90/101/47 91/102/48
f 73/74/34 91/102/48 92/103/49
f 73/74/34 92/103/49 75/76/34
f 75/76/34 92/103/49 77/78/36
f 77/78/36 92/103/49 93/104/50
f 77/78/36 93/104/50 79/80/38
f 94/105/51 95/106/52 96/107/51
f 96/107/51 95/106/52 97/108/52
f 97/108/52 95/106/52 98/66/18
f 97/108/52 98/66/18 99/65/18
f 99/65/18 98/66/18 65/64/15
f 99/65/18 65/64/15 64/63/15
f 100/109/53 101/110/53 102/111/54
f 102/111/54 101/110/53 103/112/54
f 103/112/54 101/110/53 104/113/54
f 102/111/54 103/112/54 1/1/1
f 1/1/1 103/112/54 104/113/54
f 102/111/54 1/1/1 3/3/3
f 1/1/1 104/113/54 7/7/1
f 7/7/1 104/113/54 8/8/7
f 104/113/54 101/110/53 105/114/53
f 8/8/7 104/113/54 89/115/46
f 89/115/46 104/113/54 105/114/53
f 89/115/46 105/114/53 90/116/47
f 102/111/54 3/3/3 106/117/54
f 102/111/54 106/117/54 100/109/53
f 6/6/6 106/117/54 3/3/3
f 107/118/53 100/109/53 106/117/54
f 106/117/54 6/6/6 108/119/55
f 106/117/54 108/119/55 107/118/53
f 108/119/55 6/6/6 11/11/10
f 107/118/53 108/119/55 109/120/53
f 108/119/55 11/11/10 110/121/56
f 108/119/55 110/121/56 109/120/53
f 110/121/56 11/11/10 13/13/12
f 109/120/53 110/121/56 111/122/53
f 110/121/56 13/13/12 112/123/57
f 110/121/56 112/123/57 111/122/53
f 112/123/57 13/13/12 15/15/14
f 111/122/53 112/123/57 113/124/53
f 112/123/57 15/15/14 114/125/58
f 112/123/57 114/125/58 113/124/53
f 114/125/58 15/15/14 17/17/14
f 113/124/53 114/125/58 44/126/53
f 113/124/53 44/126/53 115/127/53
f 115/127/53 44/126/53 116/128/59
f 116/128/59 44/126/53 46/129/59
f 116/128/59 46/129/59 49/130/60
f 116/128/59 49/130/60 117/131/61
f 117/131/61 49/130/60 51/132/62
f 117/131/61 51/132/62 118/133/63
f 119/134/64 51/132/62 53/135/64
f 51/132/62 119/134/64 120/136/62
f 51/132/62 120/136/62 118/133/63
f 118/133/63 120/136/62 121/137/63
f 118/133/63 121/137/63 122/138/65
f 121/137/63 120/136/62 123/139/66
f 122/138/65 121/137/63 124/140/65
f 123/139/66 120/136/62 125/141/60
f 122/138/65 124/140/65 126/142/53
f 122/138/65 126/142/53 127/143/53
f 127/143/53 126/142/53 128/144/53
f 127/143/53 128/144/53 129/145/53
f 129/145/53 128/144/53 130/146/53
f 130/146/53 128/144/53 131/147/53
f 130/146/53 131/147/53 132/148/53
f 130/146/53 132/148/53 133/149/53
f 133/149/53 132/148/53 134/150/53
f 134/150/53 132/148/53 135/151/53
f 134/150/53 135/151/53 136/152/53
f 134/150/53 136/152/53 137/153/53
f 137/153/53 136/152/53 138/154/53
f 138/154/53 136/152/53 139/155/53
f 137/153/53 138/154/53 140/156/53
f 138/154/53 139/155/53 141/157/53
f 138/154/53 141/157/53 142/158/53
f 140/156/53 138/154/53 91/159/48
f 138/154/53 142/158/53 143/160/53
f 91/159/48 138/154/53 144/161/53
f 144/161/53 138/154/53 143/160/53
f 144/161/53 143/160/53 145/162/53
f 144/161/53 145/162/53 146/163/53
f 91/159/48 144/161/53 92/164/49
f 144/161/53 146/163/53 147/165/53
f 144/161/53 147/165/53 148/166/53
f 148/166/53 147/165/53 149/167/53
f 149/167/53 147/165/53 150/168/53
f 144/161/53 148/166/53 151/169/53
f 149/167/53 150/168/53 152/170/53
f 152/170/53 150/168/53 153/171/53
f 152/170/53 153/171/53 154/172/53
f 154/172/53 153/171/53 155/173/53
f 155/173/53 153/171/53 156/174/53
f 155/173/53 156/174/53 157/175/53
f 155/173/53 157/175/53 158/176/53
f 158/176/53 157/175/53 159/177/53
f 159/177/53 157/175/53 160/178/53
f 159/177/53 160/178/53 161/179/53
f 159/177/53 161/179/53 162/180/53
f 162/180/53 161/179/53 163/181/65
f 162/180/53 163/181/65 164/182/53
f 163/181/65 161/179/53 165/183/65
f 163/181/65 165/183/65 123/139/66
f 163/181/65 123/139/66 125/141/60
f 166/184/67 167/185/68 168/186/67
f 167/185/68 166/184/67 169/187/68
f 169/187/68 166/184/67 170/188/69
f 168/186/67 167/185/68 171/189/68
f 168/186/67 171/189/68 172/190/70
f 172/190/70 171/189/68 173/191/71
f 172/190/70 173/191/71 174/192/72
f 171/189/68 167/185/68 175/193/73
f 174/192/72 173/191/71 176/194/71
f 174/192/72 176/194/71 177/195/74
f 173/191/71 171/189/68 178/196/75
f 178/196/75 171/189/68 175/193/73
f 176/194/71 173/191/71 179/197/75
f 179/197/75 173/191/71 178/196/75
f 177/195/74 176/194/71 180/198/76
f 179/197/75 178/196/75 181/199/77
f 181/199/77 178/196/75 182/200/78
f 182/200/78 178/196/75 175/193/73
f 179/197/75 181/199/77 183/201/79
f 182/200/78 175/193/73 184/202/78
f 176/194/71 179/197/75 185/203/23
f 185/203/23 179/197/75 183/201/79
f 176/194/71 185/203/23 180/198/76
f 185/203/23 183/201/79 186/204/80
f 187/205/74 177/195/74 180/198/76
f 185/203/23 186/204/80 188/206/16
f 185/203/23 188/206/16 180/198/76
f 188/206/16 186/204/80 189/207/80
f 187/205/74 180/198/76 190/208/76
f 190/208/76 180/198/76 188/206/16
f 188/206/16 189/207/80 191/209/81
f 187/205/74 190/208/76 192/210/76
f 192/210/76 190/208/76 188/206/16
f 187/205/74 192/210/76 193/211/74
f 188/206/16 191/209/81 194/212/82
f 188/206/16 194/212/82 192/210/76
f 194/212/82 191/209/81 195/213/83
f 192/210/76 194/212/82 196/214/84
f 196/214/84 194/212/82 195/213/83
f 193/211/74 192/210/76 197/215/85
f 197/215/85 192/210/76 196/214/84
f 197/215/85 196/214/84 195/213/83
f 193/211/74 197/215/85 198/216/86
f 198/216/86 197/215/85 195/213/83
f 199/217/73 184/202/78 175/193/73
f 199/217/73 175/193/73 167/185/68
f 184/202/78 199/217/73 200/218/87
f 199/217/73 167/185/68 169/187/68
f 200/218/87 199/217/73 201/219/73
f 201/219/73 199/217/73 169/187/68
f 200/218/87 201/219/73 202/220/88
f 202/220/88 201/219/73 203/221/89
f 203/221/89 201/219/73 169/187/68
f 202/220/88 203/221/89 204/222/90
f 204/222/90 203/221/89 205/223/91
f 205/223/91 203/221/89 206/224/92
f 205/223/91 206/224/92 207/225/93
f 203/221/89 169/187/68 208/226/94
f 203/221/89 208/226/94 206/224/92
f 206/224/92 208/226/94 207/225/93
f 208/226/94 169/187/68 170/188/69
f 207/225/93 208/226/94 209/227/95
f 209/227/95 208/226/94 170/188/69
f 210/228/96 211/229/97 212/230/98
f 211/229/97 210/228/96 43/52/99
f 43/52/99 210/228/96 39/47/100
f 39/47/100 210/228/96 212/230/98
f 211/229/97 43/52/99 83/231/101
f 211/229/97 83/231/101 213/232/102
f 39/47/100 212/230/98 35/42/100
f 211/229/97 213/232/102 214/233/103
f 211/229/97 214/233/103 212/230/98
f 214/233/103 213/232/102 215/234/102
f 35/42/100 212/230/98 216/235/98
f 35/42/100 216/235/98 32/38/104
f 212/230/98 214/233/103 217/236/103
f 217/236/103 214/233/103 215/234/102
f 212/230/98 217/236/103 216/235/98
f 32/38/104 216/235/98 218/237/98
f 218/237/98 216/235/98 217/236/103
f 32/38/104 218/237/98 29/34/105
f 217/236/103 215/234/102 219/238/106
f 217/236/103 219/238/106 218/237/98
f 219/238/106 215/234/102 220/239/107
f 29/34/105 218/237/98 221/240/108
f 221/240/108 218/237/98 219/238/106
f 29/34/105 221/240/108 26/30/109
f 219/238/106 220/239/107 222/241/106
f 219/238/106 222/241/106 221/240/108
f 222/241/106 220/239/107 223/242/110
f 26/30/109 221/240/108 224/243/108
f 224/243/108 221/240/108 222/241/106
f 26/30/109 224/243/108 25/29/111
f 222/241/106 223/242/110 225/244/112
f 222/241/106 225/244/112 224/243/108
f 225/244/112 223/242/110 226/245/113
f 25/29/111 224/243/108 227/246/114
f 227/246/114 224/243/108 225/244/112
f 25/29/111 227/246/114 228/247/115
f 225/244/112 226/245/113 229/248/116
f 225/244/112 229/248/116 227/246/114
f 229/248/116 226/245/113 230/249/117
f 228/247/115 227/246/114 231/250/114
f 231/250/114 227/246/114 229/248/116
f 229/248/116 230/249/117 232/251/116
f 229/248/116 232/251/116 231/250/114
f 232/251/116 230/249/117 233/252/118
f 232/251/116 233/252/118 234/253/119
f 228/247/115 231/250/114 235/254/120
f 235/254/120 231/250/114 232/251/116
f 228/247/115 235/254/120 236/255/121
f 232/251/116 234/253/119 237/256/122
f 232/251/116 237/256/122 235/254/120
f 237/256/122 234/253/119 238/257/123
f 236/255/121 235/254/120 239/258/124
f 239/258/124 235/254/120 237/256/122
f 236/255/121 239/258/124 240/259/111
f 237/256/122 238/257/123 241/260/125
f 240/259/111 239/258/124 242/261/126
f 242/261/126 239/258/124 237/256/122
f 242/261/126 237/256/122 241/260/125
f 242/261/126 241/260/125 238/257/123
f 240/259/111 242/261/126 243/262/127
f 243/262/127 242/261/126 238/257/123
f 228/247/21 20/20/17 19/19/16
f 20/20/17 228/247/21 63/263/21
f 63/263/21 228/247/21 236/255/21
f 63/263/21 236/255/21 240/259/128
f 63/263/21 240/259/128 60/264/128
f 60/264/128 240/259/128 58/265/129
f 58/265/129 240/259/128 243/262/130
f 58/265/129 243/262/130 56/266/131
f 56/266/131 243/262/130 238/257/132
f 228/247/21 19/19/16 25/29/21
f 244/267/133 54/268/133 56/266/131
f 244/267/133 56/266/131 245/269/131
f 245/269/131 56/266/131 238/257/132
f 245/269/131 238/257/132 198/216/132
f 198/216/132 238/257/132 234/253/21
f 245/269/131 198/216/132 195/213/134
f 198/216/132 234/253/21 193/211/21
f 245/269/131 195/213/134 246/270/129
f 193/211/21 234/253/21 187/205/21
f 187/205/21 234/253/21 233/252/21
f 187/205/21 233/252/21 177/195/21
f 177/195/21 233/252/21 230/249/21
f 177/195/21 230/249/21 226/245/21
f 177/195/21 226/245/21 174/192/21
f 174/192/21 226/245/21 172/190/21
f 172/190/21 226/245/21 223/242/21
f 172/190/21 223/242/21 220/239/21
f 172/190/21 220/239/21 168/186/21
f 168/186/21 220/239/21 166/184/21
f 166/184/21 220/239/21 215/234/21
f 166/184/21 215/234/21 170/188/21
f 170/188/21 215/234/21 213/232/21
f 170/188/21 213/232/21 247/271/21
f 170/188/21 247/271/21 209/227/21
f 209/227/21 247/271/21 207/225/21
f 247/271/21 213/232/21 83/231/41
f 207/225/21 247/271/21 205/223/21
f 247/271/21 83/231/41 248/272/21
f 247/271/21 248/272/21 205/223/21
f 205/223/21 248/272/21 204/222/21
f 204/222/21 248/272/21 202/220/21
f 248/272/21 83/231/41 84/273/42
f 202/220/21 248/272/21 200/218/21
f 200/218/21 248/272/21 249/274/21
f 200/218/21 249/274/21 250/275/21
f 200/218/21 250/275/21 184/202/21
f 184/202/21 250/275/21 251/276/21
f 184/202/21 251/276/21 182/200/21
f 182/200/21 251/276/21 252/277/21
f 182/200/21 252/277/21 253/278/21
f 182/200/21 253/278/21 181/199/21
f 181/199/21 253/278/21 183/201/21
f 183/201/21 253/278/21 254/279/21
f 183/201/21 254/279/21 255/280/21
f 183/201/21 255/280/21 186/204/21
f 186/204/21 255/280/21 189/207/21
f 189/207/21 255/280/21 256/281/21
f 189/207/21 256/281/21 257/282/21
f 257/282/21 256/281/21 258/283/21
f 189/207/21 257/282/21 191/209/21
f 191/209/21 257/282/21 195/213/134
f 195/213/134 257/282/21 246/270/129
f 259/284/135 260/285/136 261/286/135
f 259/284/135 261/286/135 150/168/137
f 150/168/137 261/286/135 153/171/137
f 259/284/135 150/168/137 147/165/138
f 153/171/137 261/286/135 262/287/139
f 153/171/137 262/287/139 156/174/140
f 259/284/135 147/165/138 263/288/135
f 263/288/135 147/165/138 146/163/141
f 259/284/135 263/288/135 264/289/136
f 259/284/135 264/289/136 260/285/136
f 263/288/135 146/163/141 265/290/142
f 263/288/135 265/290/142 264/289/136
f 265/290/142 146/163/141 145/162/143
f 265/290/142 145/162/143 143/160/144
f 265/290/142 143/160/144 266/291/145
f 266/291/145 143/160/144 142/158/146
f 265/290/142 266/291/145 267/292/147
f 267/292/147 266/291/145 142/158/146
f 265/290/142 267/292/147 264/289/136
f 267/292/147 142/158/146 141/157/148
f 267/292/147 141/157/148 139/155/149
f 267/292/147 139/155/149 264/289/136
f 264/289/136 139/155/149 136/152/150
f 264/289/136 136/152/150 260/285/136
f 260/285/136 136/152/150 135/151/150
f 260/285/136 135/151/150 268/293/136
f 260/285/136 268/293/136 261/286/135
f 268/293/136 135/151/150 132/148/151
f 261/286/135 268/293/136 262/287/139
f 268/293/136 132/148/151 269/294/152
f 268/293/136 269/294/152 262/287/139
f 269/294/152 132/148/151 131/147/153
f 262/287/139 269/294/152 270/295/139
f 262/287/139 270/295/139 156/174/140
f 156/174/140 270/295/139 157/175/154
f 269/294/152 131/147/153 271/296/152
f 269/294/152 271/296/152 270/295/139
f 271/296/152 131/147/153 128/144/155
f 157/175/154 270/295/139 272/297/55
f 272/297/55 270/295/139 271/296/152
f 157/175/154 272/297/55 160/178/156
f 271/296/152 128/144/155 273/298/157
f 271/296/152 273/298/157 272/297/55
f 273/298/157 128/144/155 126/142/155
f 160/178/156 272/297/55 274/299/57
f 274/299/57 272/297/55 273/298/157
f 160/178/156 274/299/57 161/179/156
f 273/298/157 126/142/155 275/300/157
f 273/298/157 275/300/157 274/299/57
f 161/179/156 274/299/57 165/183/158
f 275/300/157 126/142/155 276/301/157
f 275/300/157 276/301/157 274/299/57
f 276/301/157 126/142/155 124/140/155
f 165/183/158 274/299/57 277/302/159
f 277/302/159 274/299/57 276/301/157
f 165/183/158 277/302/159 123/139/160
f 277/302/159 276/301/157 278/303/161
f 277/302/159 278/303/161 123/139/160
f 276/301/157 124/140/155 279/304/162
f 276/301/157 279/304/162 278/303/161
f 278/303/161 279/304/162 123/139/160
f 279/304/162 124/140/155 121/137/163
f 279/304/162 121/137/163 123/139/160
f 91/159/164 90/116/165 280/305/166
f 91/159/164 280/305/166 140/156/167
f 280/305/166 90/116/165 281/306/168
f 281/306/168 90/116/165 105/114/169
f 281/306/168 105/114/169 282/307/170
f 281/306/168 282/307/170 280/305/166
f 282/307/170 105/114/169 101/110/169
f 140/156/167 280/305/166 283/308/171
f 283/308/171 280/305/166 282/307/170
f 140/156/167 283/308/171 137/153/167
f 282/307/170 101/110/169 284/309/170
f 284/309/170 101/110/169 100/109/172
f 283/308/171 282/307/170 285/310/171
f 285/310/171 282/307/170 284/309/170
f 283/308/171 285/310/171 137/153/167
f 284/309/170 100/109/172 286/311/170
f 284/309/170 286/311/170 285/310/171
f 286/311/170 100/109/172 107/118/173
f 137/153/167 285/310/171 287/312/174
f 287/312/174 285/310/171 286/311/170
f 137/153/167 287/312/174 134/150/175
f 286/311/170 107/118/173 288/313/176
f 286/311/170 288/313/176 287/312/174
f 288/313/176 107/118/173 109/120/177
f 134/150/175 287/312/174 289/314/174
f 289/314/174 287/312/174 288/313/176
f 134/150/175 289/314/174 133/149/178
f 288/313/176 109/120/177 290/315/176
f 288/313/176 290/315/176 289/314/174
f 290/315/176 109/120/177 111/122/179
f 133/149/178 289/314/174 291/316/180
f 291/316/180 289/314/174 290/315/176
f 133/149/178 291/316/180 130/146/181
f 290/315/176 111/122/179 292/317/182
f 290/315/176 292/317/182 291/316/180
f 292/317/182 111/122/179 113/124/183
f 130/146/181 291/316/180 293/318/184
f 293/318/184 291/316/180 292/317/182
f 130/146/181 293/318/184 129/145/185
f 292/317/182 113/124/183 294/319/182
f 292/317/182 294/319/182 293/318/184
f 129/145/185 293/318/184 295/320/184
f 295/320/184 293/318/184 294/319/182
f 129/145/185 295/320/184 127/143/186
f 127/143/186 295/320/184 122/138/187
f 294/319/182 113/124/183 296/321/182
f 294/319/182 296/321/182 295/320/184
f 296/321/182 113/124/183 115/127/188
f 122/138/187 295/320/184 297/322/189
f 297/322/189 295/320/184 296/321/182
f 122/138/187 297/322/189 118/133/190
f 296/321/182 115/127/188 298/323/191
f 296/321/182 298/323/191 297/322/189
f 298/323/191 115/127/188 116/128/179
f 118/133/190 297/322/189 299/324/192
f 297/322/189 298/323/191 300/325/193
f 300/325/193 298/323/191 116/128/179
f 297/322/189 300/325/193 299/324/192
f 299/324/192 300/325/193 118/133/190
f 300/325/193 116/128/179 117/131/194
f 300/325/193 117/131/194 118/133/190
f 258/283/195 256/281/196 301/326/121
f 301/326/121 256/281/196 302/327/115
f 301/326/121 302/327/115 303/328/197
f 302/327/115 256/281/196 304/329/111
f 304/329/111 256/281/196 255/280/198
f 303/328/197 302/327/115 305/330/199
f 305/330/199 302/327/115 304/329/111
f 303/328/197 305/330/199 306/331/200
f 303/328/197 306/331/200 307/332/200
f 307/332/200 306/331/200 308/333/119
f 304/329/111 255/280/198 309/334/109
f 305/330/199 304/329/111 310/335/201
f 305/330/199 310/335/201 306/331/200
f 310/335/201 304/329/111 309/334/109
f 309/334/109 255/280/198 254/279/202
f 308/333/119 306/331/200 311/336/118
f 308/333/119 311/336/118 312/337/203
f 312/337/203 311/336/118 313/338/204
f 313/338/204 311/336/118 314/339/205
f 309/334/109 254/279/202 315/340/105
f 315/340/105 254/279/202 253/278/206
f 309/334/109 315/340/105 316/341/201
f 309/334/109 316/341/201 310/335/201
f 315/340/105 253/278/206 317/342/104
f 317/342/104 253/278/206 252/277/207
f 316/341/201 315/340/105 318/343/201
f 318/343/201 315/340/105 317/342/104
f 310/335/201 316/341/201 319/344/208
f 310/335/201 319/344/208 306/331/200
f 306/331/200 319/344/208 311/336/118
f 319/344/208 316/341/201 320/345/208
f 320/345/208 316/341/201 318/343/201
f 311/336/118 319/344/208 321/346/117
f 321/346/117 319/344/208 320/345/208
f 311/336/118 321/346/117 314/339/205
f 314/339/205 321/346/117 322/347/209
f 322/347/209 321/346/117 323/348/113
f 323/348/113 321/346/117 320/345/208
f 322/347/209 323/348/113 324/349/210
f 320/345/208 318/343/201 325/350/208
f 320/345/208 325/350/208 323/348/113
f 324/349/210 323/348/113 326/351/110
f 326/351/110 323/348/113 325/350/208
f 324/349/210 326/351/110 327/352/211
f 325/350/208 318/343/201 328/353/212
f 328/353/212 318/343/201 317/342/104
f 326/351/110 325/350/208 329/354/213
f 329/354/213 325/350/208 328/353/212
f 327/352/211 326/351/110 330/355/107
f 330/355/107 326/351/110 329/354/213
f 327/352/211 330/355/107 331/356/214
f 328/353/212 317/342/104 332/357/215
f 332/357/215 317/342/104 252/277/207
f 332/357/215 252/277/207 251/276/216
f 328/353/212 332/357/215 333/358/217
f 328/353/212 333/358/217 329/354/213
f 332/357/215 251/276/216 334/359/218
f 332/357/215 334/359/218 333/358/217
f 334/359/218 251/276/216 250/275/219
f 334/359/218 250/275/219 335/360/220
f 334/359/218 335/360/220 333/358/217
f 335/360/220 250/275/219 249/274/221
f 329/354/213 333/358/217 336/361/213
f 329/354/213 336/361/213 330/355/107
f 333/358/217 335/360/220 337/362/222
f 337/362/222 335/360/220 249/274/221
f 333/358/217 337/362/222 336/361/213
f 337/362/222 249/274/221 338/363/223
f 337/362/222 338/363/223 339/364/224
f 337/362/222 339/364/224 336/361/213
f 339/364/224 338/363/223 340/365/225
f 339/364/224 340/365/225 341/366/226
f 339/364/224 341/366/226 336/361/213
f 341/366/226 340/365/225 342/367/227
f 341/366/226 342/367/227 343/368/211
f 341/366/226 343/368/211 344/369/228
f 336/361/213 341/366/226 345/370/228
f 345/370/228 341/366/226 344/369/228
f 345/370/228 344/369/228 343/368/211
f 336/361/213 345/370/228 330/355/107
f 345/370/228 343/368/211 331/356/214
f 345/370/228 331/356/214 330/355/107
f 346/371/229 347/372/230 348/373/229
f 348/373/229 347/372/230 349/374/231
f 346/371/229 348/373/229 350/375/175
f 348/373/229 349/374/231 351/376/232
f 350/375/175 348/373/229 352/377/178
f 352/377/178 348/373/229 351/376/232
f 350/375/175 352/377/178 353/378/233
f 353/378/233 352/377/178 354/379/234
f 350/375/175 353/378/233 355/380/235
f 354/379/234 352/377/178 356/381/181
f 356/381/181 352/377/178 351/376/232
f 354/379/234 356/381/181 357/382/236
f 350/375/175 355/380/235 358/383/237
f 350/375/175 358/383/237 346/371/229
f 358/383/237 355/380/235 359/384/233
f 358/383/237 359/384/233 360/385/237
f 360/385/237 359/384/233 361/386/238
f 360/385/237 361/386/238 358/383/237
f 358/383/237 361/386/238 346/371/229
f 361/386/238 359/384/233 362/387/239
f 361/386/238 362/387/239 363/388/240
f 361/386/238 363/388/240 364/389/241
f 361/386/238 364/389/241 346/371/229
f 364/389/241 363/388/240 151/169/242
f 346/371/229 364/389/241 365/390/243
f 365/390/243 364/389/241 151/169/242
f 365/390/243 151/169/242 148/166/244
f 346/371/229 365/390/243 347/372/230
f 365/390/243 148/166/244 366/391/245
f 365/390/243 366/391/245 347/372/230
f 366/391/245 148/166/244 149/167/246
f 366/391/245 149/167/246 367/392/247
f 366/391/245 367/392/247 347/372/230
f 367/392/247 149/167/246 152/170/248
f 347/372/230 367/392/247 368/393/249
f 368/393/249 367/392/247 152/170/248
f 347/372/230 368/393/249 349/374/231
f 368/393/249 152/170/248 154/172/250
f 368/393/249 154/172/250 369/394/172
f 368/393/249 369/394/172 349/374/231
f 369/394/172 154/172/250 155/173/251
f 349/374/231 369/394/172 370/395/252
f 349/374/231 370/395/252 351/376/232
f 369/394/172 155/173/251 371/396/173
f 369/394/172 371/396/173 370/395/252
f 371/396/173 155/173/251 158/176/253
f 351/376/232 370/395/252 372/397/232
f 351/376/232 372/397/232 356/381/181
f 370/395/252 371/396/173 373/398/252
f 370/395/252 373/398/252 372/397/232
f 371/396/173 158/176/253 374/399/177
f 371/396/173 374/399/177 373/398/252
f 374/399/177 158/176/253 159/177/254
f 356/381/181 372/397/232 375/400/185
f 356/381/181 375/400/185 357/382/236
f 357/382/236 375/400/185 376/401/255
f 375/400/185 372/397/232 377/402/232
f 377/402/232 372/397/232 373/398/252
f 376/401/255 375/400/185 378/403/186
f 378/403/186 375/400/185 377/402/232
f 376/401/255 378/403/186 379/404/256
f 379/404/256 378/403/186 380/405/257
f 380/405/257 378/403/186 381/406/187
f 381/406/187 378/403/186 382/407/258
f 382/407/258 378/403/186 377/402/232
f 381/406/187 382/407/258 383/408/259
f 383/408/259 382/407/258 384/409/260
f 382/407/258 377/402/232 385/410/252
f 385/410/252 377/402/232 373/398/252
f 385/410/252 373/398/252 374/399/177
f 382/407/258 385/410/252 386/411/260
f 382/407/258 386/411/260 384/409/260
f 385/410/252 374/399/177 387/412/179
f 385/410/252 387/412/179 386/411/260
f 387/412/179 374/399/177 159/177/254
f 387/412/179 159/177/254 162/180/261
f 386/411/260 387/412/179 388/413/183
f 386/411/260 388/413/183 384/409/260
f 388/413/183 387/412/179 162/180/261
f 384/409/260 388/413/183 389/414/188
f 389/414/188 388/413/183 162/180/261
f 389/414/188 162/180/261 164/182/262
f 390/415/263 391/416/263 163/417/263
f 163/417/263 391/416/263 164/418/263
f 164/418/263 391/416/263 392/419/263
f 164/418/263 392/419/263 389/420/263
f 389/420/263 392/419/263 384/421/263
f 384/421/263 392/419/263 393/422/263
f 384/421/263 393/422/263 383/423/263
f 383/423/263 393/422/263 381/424/263
f 381/424/263 393/422/263 96/107/263
f 381/424/263 96/107/263 380/425/263
f 380/425/263 96/107/263 97/108/263
f 380/425/263 97/108/263 394/426/263
f 99/65/263 394/427/263 97/108/263
f 394/427/263 99/65/263 395/428/263
f 395/428/263 99/65/263 396/429/263
f 396/429/263 99/65/263 64/63/263
f 64/63/263 66/65/263 396/429/263
f 396/429/263 66/65/263 397/428/263
f 397/428/263 66/65/263 398/427/263
f 398/427/263 66/65/263 399/108/263
f 398/426/263 399/108/263 312/425/263
f 312/425/263 399/108/263 400/107/263
f 312/425/263 400/107/263 308/424/263
f 308/424/263 400/107/263 401/422/263
f 308/424/263 401/422/263 307/423/263
f 307/423/263 401/422/263 303/421/263
f 303/421/263 401/422/263 402/419/263
f 303/421/263 402/419/263 301/420/263
f 301/420/263 402/419/263 258/418/263
f 258/418/263 402/419/263 403/416/263
f 258/418/263 403/416/263 257/417/263
f 257/417/263 403/416/263 404/415/263
f 405/430/53 144/161/53 151/169/53
f 144/161/53 405/430/53 92/164/49
f 405/430/53 151/169/53 363/388/53
f 405/430/53 363/388/53 362/387/53
f 92/164/49 405/430/53 93/431/50
f 405/430/53 362/387/53 359/384/53
f 93/431/50 405/430/53 406/432/264
f 406/432/264 405/430/53 359/384/53
f 93/431/50 406/432/264 407/433/265
f 93/431/50 407/433/265 79/434/38
f 407/433/265 406/432/264 408/435/266
f 406/432/264 359/384/53 409/436/267
f 406/432/264 409/436/267 408/435/266
f 409/436/267 359/384/53 355/380/53
f 408/435/266 409/436/267 410/437/268
f 409/436/267 355/380/53 353/378/53
f 410/437/268 409/436/267 411/438/267
f 411/438/267 409/436/267 353/378/53
f 410/437/268 411/438/267 412/439/269
f 411/438/267 353/378/53 413/440/270
f 411/438/267 413/440/270 412/439/269
f 413/440/270 353/378/53 354/379/53
f 412/439/269 413/440/270 414/441/271
f 413/440/270 354/379/53 357/382/53
f 414/441/271 413/440/270 415/442/270
f 415/442/270 413/440/270 357/382/53
f 414/441/271 415/442/270 416/443/272
f 415/442/270 357/382/53 417/444/270
f 415/442/270 417/444/270 416/443/272
f 417/444/270 357/382/53 376/401/53
f 416/443/272 417/444/270 418/445/273
f 417/444/270 376/401/53 379/404/53
f 418/445/273 417/444/270 419/446/270
f 419/446/270 417/444/270 379/404/53
f 418/445/273 419/446/270 395/447/273
f 419/446/270 379/404/53 380/405/53
f 395/447/273 419/446/270 394/448/270
f 394/448/270 419/446/270 380/405/53
f 66/65/14 67/66/14 399/108/274
f 399/108/274 67/66/14 420/106/274
f 399/108/274 420/106/274 400/107/275
f 400/107/275 420/106/274 421/105/275
f 62/449/263 422/450/263 63/451/263
f 63/451/263 422/450/263 20/452/263
f 20/452/263 422/450/263 22/453/263
f 22/453/263 422/450/263 18/454/263
f 18/454/263 422/450/263 423/455/263
f 423/455/263 424/450/263 18/454/263
f 18/454/263 424/450/263 17/453/263
f 17/453/263 424/450/263 114/452/263
f 114/452/263 424/450/263 44/451/263
f 44/451/263 424/450/263 45/449/263
f 52/456/276 425/457/276 53/458/276
f 53/458/276 425/457/276 119/459/276
f 244/459/277 426/457/277 54/458/277
f 54/458/277 426/457/277 55/456/277
f 45/460/278 424/461/208 427/462/278
f 45/460/278 427/462/278 390/415/278
f 390/415/278 427/462/278 428/463/21
f 390/415/278 428/463/21 391/416/279
f 45/460/278 390/415/278 47/464/280
f 47/464/280 390/415/278 48/465/281
f 48/465/281 390/415/278 429/466/281
f 48/465/281 429/466/281 50/467/282
f 50/467/282 429/466/281 430/468/282
f 50/467/282 430/468/282 425/469/283
f 50/467/282 425/469/283 52/470/283
f 55/470/284 426/469/284 57/467/285
f 57/467/285 426/469/284 431/468/285
f 57/467/285 431/468/285 432/466/286
f 57/467/285 432/466/286 59/465/286
f 59/465/286 432/466/286 404/415/287
f 59/465/286 404/415/287 61/464/288
f 61/464/288 404/415/287 62/460/287
f 62/460/287 404/415/287 433/462/287
f 62/460/287 433/462/287 422/461/232
f 433/462/287 404/415/287 434/463/289
f 434/463/289 404/415/287 403/416/290
f 391/416/291 428/463/291 392/419/16
f 392/419/16 428/463/291 435/471/16
f 392/419/16 435/471/16 436/472/76
f 392/419/16 436/472/76 393/422/76
f 393/422/76 436/472/76 96/107/292
f 96/107/292 436/472/76 94/105/292
f 421/105/293 437/472/157 400/107/293
f 400/107/293 437/472/157 401/422/157
f 401/422/157 437/472/157 402/419/57
f 402/419/57 437/472/157 438/471/57
f 402/419/57 438/471/57 434/463/294
f 402/419/57 434/463/294 403/416/294
f 95/473/263 94/474/263 98/475/263
f 98/475/263 94/474/263 436/476/263
f 98/475/263 436/476/263 65/477/263
f 65/477/263 436/476/263 435/478/263
f 65/477/263 435/478/263 439/479/263
f 439/479/263 435/478/263 428/480/263
f 439/479/263 428/480/263 427/481/263
f 433/481/263 434/480/263 439/479/263
f 439/479/263 434/480/263 438/478/263
f 439/479/263 438/478/263 65/477/263
f 65/477/263 438/478/263 437/476/263
f 65/477/263 437/476/263 67/475/263
f 67/475/263 437/476/263 421/474/263
f 67/475/263 421/474/263 420/473/263
f 440/482/21 248/272/21 84/273/42
f 248/272/21 440/482/21 249/274/21
f 249/274/21 440/482/21 338/363/21
f 338/363/21 440/482/21 340/365/21
f 340/365/21 440/482/21 342/367/21
f 440/482/21 84/273/42 87/483/44
f 342/367/21 440/482/21 343/368/21
f 440/482/21 87/483/44 441/484/295
f 440/482/21 441/484/295 343/368/21
f 441/484/295 87/483/44 442/485/296
f 442/485/296 87/483/44 88/486/45
f 442/485/296 88/486/45 443/487/297
f 443/487/297 88/486/45 78/488/37
f 442/485/296 443/487/297 444/489/298
f 343/368/21 441/484/295 445/490/299
f 343/368/21 445/490/299 331/356/21
f 441/484/295 442/485/296 446/491/300
f 446/491/300 442/485/296 444/489/298
f 441/484/295 446/491/300 445/490/299
f 331/356/21 445/490/299 327/352/21
f 446/491/300 444/489/298 447/492/301
f 446/491/300 447/492/301 445/490/299
f 447/492/301 444/489/298 448/493/302
f 327/352/21 445/490/299 449/494/299
f 449/494/299 445/490/299 447/492/301
f 327/352/21 449/494/299 450/495/303
f 327/352/21 450/495/303 324/349/21
f 449/494/299 447/492/301 451/496/304
f 451/496/304 447/492/301 448/493/302
f 449/494/299 451/496/304 450/495/303
f 451/496/304 448/493/302 452/497/305
f 324/349/21 450/495/303 322/347/21
f 451/496/304 452/497/305 453/498/306
f 451/496/304 453/498/306 450/495/303
f 453/498/306 452/497/305 454/499/307
f 453/498/306 454/499/307 455/500/308
f 450/495/303 453/498/306 456/501/303
f 450/495/303 456/501/303 322/347/21
f 453/498/306 455/500/308 457/502/309
f 453/498/306 457/502/309 456/501/303
f 457/502/309 455/500/308 458/503/310
f 322/347/21 456/501/303 459/504/303
f 459/504/303 456/501/303 457/502/309
f 322/347/21 459/504/303 314/339/21
f 314/339/21 459/504/303 313/338/21
f 459/504/303 457/502/309 460/505/311
f 460/505/311 457/502/309 458/503/310
f 313/338/21 459/504/303 461/506/303
f 461/506/303 459/504/303 460/505/311
f 313/338/21 461/506/303 312/337/21
f 312/337/21 461/506/303 398/507/303
f 398/507/303 461/506/303 397/508/311
f 397/508/311 461/506/303 460/505/311
f 397/508/311 460/505/311 458/503/310
f 397/508/311 458/503/310 396/509/312
f 79/434/38 407/433/265 443/510/297
f 79/434/38 443/510/297 78/511/37
f 443/510/297 407/433/265 444/512/298
f 444/512/298 407/433/265 408/435/266
f 444/512/298 408/435/266 410/437/268
f 444/512/298 410/437/268 448/513/302
f 448/513/302 410/437/268 412/439/269
f 448/513/302 412/439/269 452/514/305
f 452/514/305 412/439/269 414/441/271
f 452/514/305 414/441/271 454/515/307
f 454/515/307 414/441/271 455/516/308
f 455/516/308 414/441/271 416/443/272
f 455/516/308 416/443/272 458/517/310
f 458/517/310 416/443/272 418/445/273
f 458/517/310 418/445/273 395/447/273
f 458/517/310 395/447/273 396/518/312
f 425/519/310 430/520/310 119/521/310
f 119/521/310 430/520/310 120/522/310
f 120/522/310 430/520/310 429/523/312
f 120/522/310 429/523/312 125/524/312
f 125/524/312 429/523/312 390/525/312
f 125/524/312 390/525/312 163/526/312
f 257/526/313 404/525/313 246/524/313
f 246/524/313 404/525/313 432/523/313
f 246/524/313 432/523/313 245/522/310
f 245/522/310 432/523/313 431/520/310
f 245/522/310 431/520/310 244/521/310
f 244/521/310 431/520/310 426/519/310
f 433/462/312 439/527/312 422/461/312
f 422/461/312 439/527/312 423/528/312
f 423/528/312 439/527/312 424/461/312
f 424/461/312 439/527/312 427/462/312
