# CS2 body mesh, tools/cs2_glb_to_obj.py
v 0.01862 -0.334 -0.48765
v 0.03647 -0.33985 -0.4803
v 0.01722 -0.33718 -0.48491
v 0 -0.33229 -0.48852
v 0 -0.33475 -0.48426
v 0 -0.33186 -0.20494
v -0.0342 -0.33413 -0.21706
v 0 -0.33481 -0.24336
v 0 -0.33016 -0.20119
v -0.0344 -0.33223 -0.21298
v -0.05265 -0.33295 -0.2263
v -0.05052 -0.33423 -0.22858
v -0.06143 -0.33503 -0.24574
v -0.06485 -0.33315 -0.24418
v -0.06305 -0.33497 -0.26541
v 0 -0.33556 -0.27911
v -0.06712 -0.33342 -0.27073
v -0.0654 -0.33652 -0.2937
v 0 -0.33794 -0.31487
v -0.06918 -0.33501 -0.29796
v -0.06776 -0.33923 -0.32199
v 0 -0.34074 -0.35062
v -0.07124 -0.33776 -0.3252
v -0.06886 -0.34236 -0.35028
v 0 -0.34315 -0.37783
v -0.07206 -0.34094 -0.35244
v -0.06788 -0.34562 -0.37863
v -0.07082 -0.34348 -0.3784
v 0 -0.34649 -0.41979
v -0.06547 -0.3479 -0.43168
v -0.06261 -0.34936 -0.43218
v -0.06209 -0.3469 -0.45678
v -0.0593 -0.34822 -0.45697
v 0 -0.34691 -0.44687
v -0.0523 -0.34572 -0.46985
v -0.05474 -0.3443 -0.471
v 0 -0.34519 -0.46191
v -0.03442 -0.34139 -0.47893
v -0.03647 -0.33985 -0.4803
v 0 -0.34071 -0.47502
v -0.01722 -0.33718 -0.48491
v -0.01661 -0.33857 -0.48284
v 0 -0.33574 -0.48164
v 0.0342 -0.33413 -0.21706
v 0.0344 -0.33223 -0.21298
v 0.05052 -0.33423 -0.22858
v 0.06143 -0.33503 -0.24574
v 0.06305 -0.33497 -0.26541
v 0.0654 -0.33652 -0.2937
v 0.06776 -0.33923 -0.32199
v 0.06886 -0.34236 -0.35028
v 0.06788 -0.34562 -0.37863
v 0.06261 -0.34936 -0.43218
v 0.0593 -0.34822 -0.45697
v 0.0523 -0.34572 -0.46985
v 0.03442 -0.34139 -0.47893
v 0.05474 -0.3443 -0.471
v 0.01661 -0.33857 -0.48284
v 0.05265 -0.33295 -0.2263
v 0.06485 -0.33315 -0.24418
v 0.06712 -0.33342 -0.27073
v 0.06918 -0.33501 -0.29796
v 0.07124 -0.33776 -0.3252
v 0.07206 -0.34094 -0.35244
v 0.07082 -0.34348 -0.3784
v 0.06547 -0.3479 -0.43168
v 0.06209 -0.3469 -0.45678
v -0.06413 -0.3335 -0.42999
v -0.07185 -0.30987 -0.4282
v -0.06545 -0.33278 -0.43065
v -0.06662 -0.30987 -0.42959
v 0.06413 -0.3335 -0.42999
v 0.06545 -0.33278 -0.43065
v 0.07185 -0.30987 -0.4282
v 0.06662 -0.30987 -0.42958
v -0.07407 -0.3091 -0.36526
v -0.07494 -0.31761 -0.36401
v -0.07407 -0.30888 -0.36101
v -0.07375 -0.30952 -0.37726
v -0.07447 -0.324 -0.36975
v -0.06951 -0.33054 -0.37837
v 0.07495 -0.31761 -0.36401
v 0.07407 -0.3091 -0.36526
v 0.07407 -0.30888 -0.36101
v 0.07375 -0.30952 -0.37726
v 0.07447 -0.324 -0.36975
v 0.06951 -0.33054 -0.37837
v 0 -0.26409 -0.45808
v 0 0.15408 -0.33883
v 0.03637 -0.26409 -0.45748
v 0.01705 -0.33188 -0.4837
v 0 -0.33187 -0.48368
v 0.03686 0.15364 -0.33805
v 0.03692 0.18885 -0.33253
v 0 0.18896 -0.33339
v 0.06164 -0.26409 -0.45101
v 0.06145 0.15331 -0.33714
v 0.06143 0.18908 -0.33211
v 0.05178 0.1973 -0.33025
v 0.04724 0.20324 -0.32827
v 0.04095 0.20323 -0.32838
v -0.04258 0.20587 -0.24028
v -0.04123 0.20759 -0.31898
v -0.04899 0.20588 -0.24018
v -0.04774 0.20754 -0.31952
v -0.04724 0.20324 -0.32827
v -0.04095 0.20323 -0.32838
v 0.06147 0.18971 -0.30475
v 0.06154 0.1768 -0.27153
v 0.06149 0.15143 -0.31014
v 0.06168 -0.26727 -0.4241
v 0.05195 0.19978 -0.32278
v 0.04774 0.20754 -0.31952
v 0.05209 0.20162 -0.31579
v 0.049 0.20588 -0.24018
v 0.05352 0.19978 -0.23986
v 0.06149 0.18956 -0.27069
v -0.05195 0.19978 -0.32278
v -0.06147 0.18971 -0.30475
v -0.05209 0.20162 -0.31579
v -0.05352 0.19978 -0.23986
v -0.05178 0.1973 -0.33025
v -0.06143 0.18908 -0.33211
v -0.06149 0.18956 -0.27069
v -0.06149 0.1887 -0.23958
v -0.06149 0.18243 -0.24
v -0.06154 0.1768 -0.27153
v -0.0615 0.17496 -0.23369
v -0.06149 0.15143 -0.31014
v -0.0615 0.15688 -0.20145
v -0.06151 0.1714 -0.19815
v -0.06153 0.14982 -0.19617
v -0.06156 0.15005 -0.27451
v -0.06166 -0.26732 -0.31224
v -0.06151 0.14857 -0.17581
v -0.06175 -0.26695 -0.37704
v -0.0615 0.16821 -0.15065
v -0.0615 0.16957 -0.16939
v -0.06163 -0.26766 -0.27146
v -0.05393 -0.2639 -0.24549
v -0.0543 0.16821 -0.13902
v -0.0282 0.1675 -0.13104
v -0.06476 -0.30275 -0.26806
v -0.05721 -0.3013 -0.24466
v -0.06646 -0.3033 -0.29785
v -0.06781 -0.30382 -0.32661
v -0.06782 -0.30454 -0.35967
v -0.04523 -0.29906 -0.23284
v -0.06819 -0.30909 -0.36239
v -0.06786 -0.30929 -0.36655
v -0.06687 -0.30977 -0.3785
v -0.02382 -0.26376 -0.23374
v -0.02602 -0.29723 -0.22781
v 0 0.1674 -0.12716
v 0 -0.29557 -0.22593
v 0 -0.26387 -0.23213
v -0.06168 -0.26727 -0.4241
v -0.06168 -0.33337 -0.45571
v -0.06145 0.15331 -0.33714
v -0.06164 -0.26409 -0.45101
v -0.05528 -0.33272 -0.47235
v -0.03692 0.18885 -0.33253
v -0.03637 -0.26409 -0.45748
v -0.03476 -0.3323 -0.4795
v -0.03686 0.15364 -0.33805
v -0.01705 -0.33188 -0.4837
v 0.06149 0.1887 -0.23958
v 0.06149 0.18243 -0.24
v 0.0615 0.17496 -0.23369
v 0.06151 0.15688 -0.20145
v 0.06151 0.1714 -0.19815
v 0.06153 0.14982 -0.19617
v 0.06156 0.15004 -0.27451
v 0.06166 -0.26732 -0.31224
v 0.06175 -0.26695 -0.37704
v 0.06151 0.14857 -0.17581
v 0.0615 0.16821 -0.15065
v 0.0615 0.16957 -0.16939
v 0.06163 -0.26766 -0.27146
v 0.05393 -0.2639 -0.24549
v 0.0543 0.16821 -0.13902
v 0.0282 0.1675 -0.13104
v 0.02382 -0.26376 -0.23374
v 0.06476 -0.30275 -0.26806
v 0.05721 -0.3013 -0.24466
v 0.04523 -0.29906 -0.23284
v 0.02602 -0.29723 -0.22781
v 0.06646 -0.3033 -0.29785
v 0.06781 -0.30382 -0.32661
v 0.06782 -0.30454 -0.35967
v 0.06819 -0.30909 -0.36239
v 0.06786 -0.30929 -0.36655
v 0.06688 -0.30977 -0.3785
v 0.06168 -0.33337 -0.45571
v 0.05528 -0.33272 -0.47235
v 0.03476 -0.3323 -0.4795
v -0.03561 0.18977 -0.31712
v 0 0.18926 -0.27124
v -0.03754 0.18912 -0.27248
v 0 0.18893 -0.23776
v -0.03925 0.18877 -0.23901
v 0.03561 0.18977 -0.31712
v 0.03754 0.18912 -0.27248
v 0.03925 0.18877 -0.23901
v 0.07462 -0.30773 -0.35912
v 0.07352 -0.30686 -0.32585
v 0.07528 -0.31588 -0.35512
v 0.0774 -0.31844 -0.36302
v 0.07332 -0.31401 -0.3265
v 0.07475 -0.32189 -0.35467
v 0.0744 -0.32676 -0.35422
v 0.07686 -0.32536 -0.36892
v 0.07521 -0.33257 -0.37802
v 0.07011 -0.31257 -0.29788
v 0.073 -0.30605 -0.29729
v 0.07247 -0.31974 -0.32628
v 0.06895 -0.31801 -0.2979
v 0.0669 -0.31228 -0.26927
v 0.07194 -0.30523 -0.26854
v 0.06543 -0.31744 -0.26951
v 0.06836 -0.32307 -0.29791
v 0.06481 -0.3226 -0.26975
v 0.07191 -0.3247 -0.32607
v 0.06036 -0.31249 -0.24353
v 0.06094 -0.30367 -0.24196
v 0.05814 -0.31784 -0.2443
v 0.05888 -0.32291 -0.24427
v 0.04867 -0.31039 -0.23232
v 0.04664 -0.30121 -0.22954
v 0.02854 -0.30755 -0.22541
v 0.02606 -0.29894 -0.22416
v 0.03005 -0.31397 -0.22382
v 0.04827 -0.31619 -0.23237
v 0.03112 -0.32083 -0.21721
v 0.04821 -0.32213 -0.22871
v 0 -0.31834 -0.20889
v 0 -0.3114 -0.21877
v 0.03537 -0.32721 -0.21351
v 0 -0.32529 -0.20046
v 0.05197 -0.32781 -0.22548
v 0.06583 -0.32798 -0.24425
v 0.06808 -0.32776 -0.27
v 0.07036 -0.32967 -0.29792
v 0.07264 -0.33247 -0.32585
v 0.07367 -0.33517 -0.35378
v 0.06974 -0.33615 -0.43065
v 0.06445 -0.33577 -0.45641
v 0.05587 -0.33539 -0.47378
v 0.03724 -0.33483 -0.48266
v 0 0.16808 -0.15102
v -0.03643 0.16814 -0.15085
v 0 0.16952 -0.17005
v 0.03643 0.16814 -0.15085
v -0.06808 -0.32776 -0.27
v -0.07036 -0.32967 -0.29792
v -0.07264 -0.33247 -0.32585
v -0.07367 -0.33517 -0.35378
v -0.07521 -0.33257 -0.37802
v -0.06974 -0.33615 -0.43065
v -0.06445 -0.33577 -0.45641
v -0.05587 -0.33539 -0.47378
v -0.03724 -0.33483 -0.48266
v -0.01862 -0.334 -0.48765
v -0.0744 -0.32676 -0.35422
v -0.07686 -0.32536 -0.36892
v -0.0774 -0.31844 -0.36302
v -0.07191 -0.3247 -0.32607
v -0.07475 -0.32189 -0.35467
v -0.07247 -0.31974 -0.32628
v -0.06836 -0.32307 -0.29791
v -0.07528 -0.31588 -0.35512
v -0.07462 -0.30773 -0.35912
v -0.07352 -0.30686 -0.32585
v -0.07332 -0.31401 -0.3265
v -0.06895 -0.31801 -0.2979
v -0.07011 -0.31257 -0.29788
v -0.073 -0.30605 -0.29729
v -0.06481 -0.3226 -0.26975
v -0.06543 -0.31744 -0.26951
v -0.0669 -0.31228 -0.26927
v -0.07194 -0.30523 -0.26854
v -0.06583 -0.32798 -0.24425
v -0.05888 -0.32291 -0.24427
v -0.05197 -0.32781 -0.22548
v -0.05813 -0.31784 -0.2443
v -0.04821 -0.32213 -0.22871
v -0.03537 -0.32721 -0.21351
v -0.03112 -0.32083 -0.21721
v -0.04827 -0.31619 -0.23237
v -0.06036 -0.31249 -0.24353
v -0.06094 -0.30367 -0.24196
v -0.03005 -0.31397 -0.22382
v 0 -0.30445 -0.22151
v -0.04867 -0.31039 -0.23232
v -0.04663 -0.30121 -0.22954
v -0.02854 -0.30755 -0.22541
v -0.02606 -0.29894 -0.22416
v 0 -0.29711 -0.2217
v 0 0.14837 -0.17663
v 0 0.14979 -0.19569
v 0 0.15688 -0.20079
v 0 0.1717 -0.19701
v 0.04123 0.20759 -0.31898
v 0.04258 0.20587 -0.24028
v -0.03901 0.18215 -0.23888
v 0 0.18194 -0.23803
v 0 0.17458 -0.23152
v 0.03901 0.18215 -0.23888
vt 0.900879 0.796387
vt 0.892578 0.785156
vt 0.898438 0.796875
vt 0.907227 0.808105
vt 0.904297 0.807129
vt 0.336914 0.945801
vt 0.318359 0.943359
vt 0.33252 0.926758
vt 0.337158 0.947266
vt 0.318848 0.945312
vt 0.30835 0.940918
vt 0.309082 0.939453
vt 0.301758 0.932617
vt 0.300049 0.933594
vt 0.298584 0.922852
vt 0.328369 0.908691
vt 0.295898 0.92041
vt 0.294189 0.90918
vt 0.324219 0.891113
vt 0.291748 0.907227
vt 0.289795 0.895508
vt 0.320068 0.873047
vt 0.287598 0.894043
vt 0.285889 0.881348
vt 0.316895 0.859863
vt 0.28418 0.880859
vt 0.283203 0.867188
vt 0.281738 0.867676
vt 0.312256 0.838867
vt 0.27832 0.840332
vt 0.279541 0.839844
vt 0.2771 0.827637
vt 0.278564 0.827148
vt 0.309082 0.825684
vt 0.280518 0.820312
vt 0.279053 0.819824
vt 0.307373 0.817871
vt 0.28833 0.813477
vt 0.287109 0.812988
vt 0.305908 0.811523
vt 0.296143 0.808594
vt 0.296631 0.80957
vt 0.304932 0.808105
vt 0.304688 0.807129
vt 0.885254 0.73877
vt 0.900391 0.72998
vt 0.88623 0.739258
vt 0.901367 0.733887
vt 0.881348 0.689453
vt 0.875488 0.691406
vt 0.880371 0.686523
vt 0.884766 0.697266
vt 0.873047 0.697266
vt 0.87207 0.705078
vt 0.127563 0.25708
vt 0.123962 0.130249
vt 0.114075 0.257568
vt 0.121948 0.28418
vt 0.128296 0.283936
vt 0.110291 0.130615
vt 0.110046 0.117493
vt 0.123718 0.117188
vt 0.104492 0.25708
vt 0.101196 0.130859
vt 0.100952 0.117554
vt 0.104431 0.11438
vt 0.106079 0.112
vt 0.108398 0.111938
vt 0.426758 0.15918
vt 0.389648 0.15979
vt 0.426758 0.156128
vt 0.388916 0.15686
vt 0.384521 0.158447
vt 0.385254 0.161377
vt 0.091003 0.115967
vt 0.078186 0.11908
vt 0.091125 0.130249
vt 0.094543 0.255859
vt 0.098328 0.111816
vt 0.101013 0.112854
vt 0.100708 0.110046
vt 0.097534 0.108459
vt 0.095825 0.110962
vt 0.068298 0.105347
vt 0.06781 0.108093
vt 0.078491 0.11438
vt 0.067017 0.113098
vt 0.066895 0.115417
vt 0.064148 0.117859
vt 0.051453 0.122986
vt 0.050964 0.117432
vt 0.049194 0.125244
vt 0.077942 0.129028
vt 0.054169 0.246582
vt 0.041656 0.124817
vt 0.077637 0.251709
vt 0.033386 0.116455
vt 0.040314 0.116821
vt 0.039124 0.243408
vt 0.029129 0.240112
vt 0.028473 0.115967
vt 0.018387 0.115845
vt 0.035919 0.255859
vt 0.027893 0.25415
vt 0.046234 0.258545
vt 0.056396 0.260986
vt 0.068176 0.26416
vt 0.022675 0.252686
vt 0.068726 0.265869
vt 0.07019 0.266357
vt 0.074463 0.267578
vt 0.016769 0.238892
vt 0.016083 0.251465
vt 0.007866 0.115601
vt 0.006779 0.250244
vt 0.007797 0.238647
vt 0.092896 0.271973
vt 0.100769 0.282471
vt 0.091675 0.280273
vt 0.107178 0.283447
vt 0.115234 0.283936
vt 0.382812 0.185669
vt 0.383057 0.168213
vt 0.390381 0.168579
vt 0.412354 0.185669
vt 0.411621 0.167969
vt 0.428223 0.185791
vt 0.42749 0.167236
vt 0.879883 0.685059
vt 0.870605 0.663086
vt 0.873047 0.68457
vt 0.874023 0.690918
vt 0.866211 0.665527
vt 0.869141 0.686035
vt 0.865723 0.6875
vt 0.871094 0.696289
vt 0.868164 0.70459
vt 0.859375 0.646484
vt 0.86377 0.644043
vt 0.862305 0.666992
vt 0.855469 0.647949
vt 0.851074 0.627441
vt 0.856934 0.625488
vt 0.847656 0.628906
vt 0.852051 0.649414
vt 0.844238 0.630371
vt 0.859375 0.668457
vt 0.844727 0.609863
vt 0.850098 0.606934
vt 0.84082 0.61084
vt 0.837402 0.612793
vt 0.841309 0.598633
vt 0.84668 0.594238
vt 0.838867 0.583496
vt 0.844238 0.580078
vt 0.833984 0.585449
vt 0.837402 0.600098
vt 0.827637 0.585938
vt 0.832031 0.600098
vt 0.823242 0.563477
vt 0.831543 0.563477
vt 0.822266 0.588867
vt 0.81543 0.563477
vt 0.818848 0.589355
vt 0.8125 0.564453
vt 0.827148 0.602051
vt 0.824219 0.604004
vt 0.82959 0.618164
vt 0.833008 0.616699
vt 0.84082 0.632812
vt 0.837402 0.635254
vt 0.847656 0.651367
vt 0.844238 0.652832
vt 0.854004 0.67041
vt 0.850098 0.671387
vt 0.855957 0.69043
vt 0.859863 0.689453
vt 0.86084 0.708496
vt 0.880859 0.740234
vt 0.873047 0.744629
vt 0.887695 0.757324
vt 0.880371 0.76123
vt 0.88623 0.770996
vt 0.892578 0.77002
vt 0.896484 0.78418
vt 0.501465 0.172363
vt 0.492188 0.185669
vt 0.492188 0.168457
vt 0.503418 0.185791
vt 0.497803 0.160034
vt 0.483154 0.185669
vt 0.492432 0.156616
vt 0.483398 0.156616
vt 0.836914 0.562988
vt 0.841797 0.561523
vt 0.472656 0.185669
vt 0.4729 0.156494
vt 0.463623 0.185547
vt 0.463379 0.156372
vt 0.459473 0.185547
vt 0.458984 0.156494
vt 0.452393 0.185669
vt 0.451904 0.156616
vt 0.427246 0.156616
vt 0.430176 0.156616
vt 0.422119 0.160645
vt 0.419434 0.162842
vt 0.419434 0.165894
vt 0.430664 0.167236
vt 0.431396 0.185669
vt 0.434814 0.156494
vt 0.436035 0.185669
vt 0.884766 0.683105
vt 0.884766 0.686523
vt 0.894531 0.769043
vt 0.899902 0.78418
vt 0.904297 0.795898
vt 0.910156 0.806641
vt 0.890137 0.756836
vt 0.849609 0.59375
vt 0.853516 0.605957
vt 0.86084 0.622559
vt 0.868652 0.642578
vt 0.875 0.661621
vt 0.847168 0.57959
vt 0.844727 0.561523
vt 0.904297 0.729492
vt 0.889648 0.696289
vt 0.885742 0.688965
vn 0.0455 -0.6465 -0.7616
vn 0.2008 -0.6256 -0.7538
vn -0.0224 -0.7523 -0.6584
vn 0 -0.8514 -0.5245
vn 0 -0.9073 -0.4205
vn -0.02 -0.9523 0.3045
vn -0.1057 -0.9625 0.25
vn -0.0167 -0.9986 0.05
vn -0.0217 -0.507 0.8617
vn -0.3678 -0.4952 0.7871
vn -0.6297 -0.49 0.6028
vn -0.1684 -0.9674 0.1891
vn -0.25 -0.9625 0.1057
vn -0.7794 -0.5446 0.3098
vn -0.2176 -0.9743 0.0587
vn -0.8014 -0.5909 0.0929
vn -0.0172 -0.9959 0.0883
vn -0.8115 -0.5718 0.1205
vn -0.2544 -0.9585 0.1285
vn -0.0175 -0.9941 0.1072
vn -0.7919 -0.6068 0.0689
vn -0.3218 -0.943 0.0844
vn -0.7993 -0.6009 0
vn -0.7508 -0.6569 -0.0693
vn -0.2279 -0.9737 0
vn -0.7742 -0.5664 -0.2824
vn -0.2379 -0.9556 -0.1737
vn -0.0164 -0.9993 -0.0328
vn -0.1376 -0.9115 -0.3876
vn -0.5481 -0.5769 -0.6056
vn -0.0189 -0.9775 -0.2099
vn -0.0443 -0.8543 -0.5179
vn -0.2278 -0.6069 -0.7614
vn 0 -0.762 -0.6476
vn 0.0666 -0.8778 -0.4743
vn 0 -0.8805 -0.474
vn 0.0808 -0.9661 0.245
vn 0.3406 -0.5189 0.784
vn 0.1452 -0.9718 0.1859
vn 0.226 -0.9686 0.1041
vn 0.1951 -0.9791 0.0578
vn 0.2299 -0.9649 0.1266
vn 0.2967 -0.9513 0.0833
vn 0.2061 -0.9785 0
vn 0.2132 -0.9619 -0.1711
vn 0.1132 -0.9177 -0.3809
vn 0.0218 -0.8607 -0.5086
vn 0.5203 -0.603 -0.6047
vn -0.0903 -0.8729 -0.4795
vn 0.6046 -0.5185 0.6046
vn 0.7551 -0.5768 0.3117
vn 0.7816 -0.6168 0.0933
vn 0.792 -0.5984 0.1212
vn 0.7718 -0.6321 0.0691
vn 0.7805 -0.6252 0
vn 0.7289 -0.6811 -0.0694
vn 0.7495 -0.598 -0.2839
vn -0.5446 -0.1962 0.8154
vn -0.1692 0.828 -0.5345
vn -0.6081 -0.2261 0.761
vn -0.1992 0.6284 -0.7519
vn 0.5218 -0.2256 0.8227
vn 0.5885 -0.2533 0.7678
vn 0.1429 0.8384 -0.526
vn 0.1726 0.6459 -0.7436
vn -0.9969 0.0701 -0.0356
vn -0.9969 0.0356 -0.0701
vn -0.996 0.0872 -0.0183
vn -0.9889 -0.1136 -0.0961
vn -0.9622 -0.1071 -0.2502
vn -0.9662 -0.2111 -0.1477
vn -0.9622 -0.2657 -0.0604
vn -0.9462 -0.3176 -0.0622
vn 0.996 0.0537 -0.0712
vn 0.9954 0.0887 -0.0361
vn 0.9942 0.1061 -0.0186
vn 0.9861 -0.1346 -0.0977
vn 0.9583 -0.13 -0.2547
vn 0.9602 -0.2355 -0.15
vn 0.9542 -0.2929 -0.0614
vn 0.9373 -0.3426 -0.063
vn -0.0012 0.2978 -0.9546
vn -0.0012 0.205 -0.9788
vn 0.129 0.2807 -0.9511
vn 0.0858 0.3206 -0.9433
vn -0.0013 0.3455 -0.9384
vn 0.0201 0.2088 -0.9778
vn -0.2477 0.2255 -0.9422
vn -0.0011 0.143 -0.9897
vn 0.7796 0.1487 -0.6084
vn 0.7115 0.1465 -0.6873
vn 0.691 0.3447 -0.6354
vn 0.3411 0.5513 -0.7614
vn 0.3159 0.6562 -0.6853
vn -0.5216 0.5757 -0.6297
vn 0.612 0.7905 0.0237
vn 0.5621 0.8093 -0.1703
vn -0.473 0.8811 0.0013
vn -0.4381 0.8717 -0.2198
vn -0.3447 0.6354 -0.691
vn 0.4936 0.6014 -0.6283
vn 0.9446 0.3275 -0.0215
vn 0.9999 -0.001 -0.0159
vn 0.9989 0.0323 -0.0344
vn 0.7519 0.6284 -0.1992
vn 0.4097 0.8859 -0.2174
vn 0.8219 0.5619 -0.0939
vn 0.4477 0.8942 -0.0013
vn 0.8011 0.5985 -0.0014
vn 0.9384 0.3455 -0.0013
vn -0.7738 0.6015 -0.1985
vn -0.9526 0.3034 -0.0212
vn -0.8395 0.5353 -0.0933
vn -0.819 0.5737 0.0014
vn -0.3687 0.5279 -0.7651
vn -0.7102 0.3155 -0.6293
vn -0.9469 0.3214 0.0012
vn -0.9546 0.2978 0.0012
vn -1 -0.001 0
vn -0.9998 -0.0151 -0.0161
vn -0.9978 0.0656 0.001
vn -0.9986 0.0489 -0.0177
vn -0.9496 -0.042 0.3106
vn -0.9935 0.0367 0.1079
vn -0.7695 0.0209 0.6383
vn -0.5911 -0.1713 0.7882
vn -0.2205 -0.2218 0.9498
vn -0.9826 0.1006 0.1563
vn -0.8715 0.0918 0.4817
vn -0.9883 0.1481 0.0379
vn -0.9866 0.1631 0.0011
vn -0.9924 0.1098 -0.0554
vn -0.5068 0.1679 0.8456
vn -0.9913 0.0933 -0.0933
vn -0.9944 0.0902 -0.0546
vn -0.2248 0.0178 0.9742
vn -0.1935 0.1909 0.9623
vn -0.0189 -0.2113 0.9772
vn 0.0011 0.1838 0.983
vn 0 -0.0169 0.9999
vn -0.9993 0.0154 -0.0338
vn -0.9765 0.0798 -0.2002
vn -0.9616 0.0012 -0.2746
vn -0.9898 -0.0564 -0.1312
vn -0.7254 0.1206 -0.6777
vn -0.7913 0.1228 -0.599
vn -0.6459 0.1726 -0.7436
vn 0.2251 0.2444 -0.9432
vn -0.1507 0.2601 -0.9537
vn -0.2782 0.2554 -0.9259
vn -0.039 0.1905 -0.9809
vn -0.1074 0.3008 -0.9476
vn 0.9469 0.3214 -0.0012
vn 0.9999 0.0149 -0.001
vn 0.9999 -0.0169 0
vn 0.9963 0.0858 -0.0011
vn 0.9975 0.0689 -0.018
vn 0.9465 -0.0635 0.3164
vn 0.9924 0.0554 0.1098
vn 0.7614 -0.0014 0.6483
vn 0.5724 -0.1974 0.7959
vn 0.1986 -0.2435 0.9494
vn 0.2064 -0.0012 0.9785
vn 0.9797 0.122 0.159
vn 0.8638 0.1164 0.4901
vn 0.4866 0.1932 0.852
vn 0.1697 0.2145 0.9619
vn 0.9849 0.169 0.0385
vn 0.983 0.1838 -0.0011
vn 0.9899 0.1299 -0.0563
vn 0.989 0.1135 -0.0948
vn 0.9924 0.1098 -0.0554
vn 0.9738 0.1013 -0.2038
vn 0.9599 0.0209 -0.2797
vn 0.9881 -0.0761 -0.1335
vn 0.6262 0.2025 -0.7529
vn 0.2554 0.2782 -0.9259
vn 0.001 0.9994 -0.0333
vn -0.018 0.9975 -0.0689
vn 0.001 1 0.001
vn -0.0169 0.9999 0.001
vn -0.0175 0.9993 -0.0339
vn 0.001 0.9977 -0.0678
vn 0.9862 0.1344 0.0964
vn 0.9945 -0.0523 0.0912
vn 0.9899 0.0563 0.1299
vn 0.9741 -0.06 0.2178
vn 0.9888 -0.0949 0.1148
vn 0.979 -0.0591 0.1953
vn 0.9335 -0.3326 0.1341
vn 0.9437 -0.3302 0.0202
vn 0.9473 -0.3012 0.1088
vn 0.8925 -0.4462 0.0659
vn 0.9835 -0.1369 0.1187
vn 0.9765 -0.1615 0.1427
vn 0.8766 -0.4515 0.1666
vn 0.8197 -0.5539 0.1455
vn 0.962 -0.1937 0.1924
vn 0.989 0.1135 0.0948
vn 0.9584 0.2557 0.1272
vn 0.996 0.0183 0.0872
vn 0.8147 -0.2804 0.5076
vn 0.7798 -0.1455 0.6089
vn 0.8798 -0.1153 0.4612
vn 0.7651 0.5279 0.3687
vn 0.5277 -0.0691 0.8466
vn 0.4143 -0.1376 0.8996
vn 0.2272 0.1028 0.9684
vn 0.1546 -0.0773 0.9849
vn 0.2806 0.5094 0.8135
vn 0.6262 0.2025 0.7529
vn 0.3159 0.6562 0.6853
vn 0.5774 0.5774 0.5774
vn 0.0014 0.7988 0.6015
vn 0.0014 0.6228 0.7823
vn 0.4442 0.3897 0.8067
vn 0.0013 0.3455 0.9384
vn 0.6628 0.3486 0.6628
vn 0.8837 0.3429 0.3187
vn 0.9714 0.2232 0.0811
vn 0.9954 0.0361 0.0887
vn 0.9929 -0.0737 0.0929
vn 0.9805 -0.193 0.0379
vn 0.929 -0.3528 -0.1117
vn 0.9254 -0.2292 -0.3018
vn 0.6097 -0.344 -0.7141
vn 0.2765 -0.48 -0.8326
vn 0.001 0.9999 0.0169
vn 0.001 0.9987 0.0503
vn 0.001 0.9994 0.0333
vn 0.001 0.9977 0.0678
vn -0.0172 0.9997 0.0172
vn -0.0175 0.9993 0.0339
vn -0.018 0.9975 0.0689
vn -0.9765 0.2002 0.0798
vn -0.996 0.0183 0.0872
vn -0.9945 -0.0523 0.0912
vn -0.9845 -0.1715 0.0373
vn -0.9528 -0.303 0.02
vn -0.9386 -0.3268 -0.1103
vn -0.933 -0.2031 -0.297
vn -0.631 -0.3155 -0.7087
vn -0.3027 -0.4572 -0.8363
vn -0.0691 -0.6321 -0.7718
vn -0.9908 -0.0749 0.1129
vn -0.9426 -0.3066 0.1323
vn -0.976 -0.0397 0.214
vn -0.9963 0.0011 0.0858
vn -0.9806 -0.0391 0.1919
vn -0.9864 -0.1156 0.1167
vn -0.9913 0.0933 0.0933
vn -0.9911 0.0373 0.1277
vn -0.989 0.1135 0.0948
vn -0.9954 -0.0339 0.0897
vn -0.9803 -0.1392 0.1404
vn -0.9551 -0.2761 0.1073
vn -0.9052 -0.42 0.0652
vn -0.9648 0.2312 0.1253
vn -0.9671 -0.1698 0.1893
vn -0.8924 -0.4202 0.1646
vn -0.8378 -0.5266 0.1445
vn -0.8957 0.3145 0.3145
vn -0.7857 0.4985 0.3662
vn -0.6853 0.3159 0.6562
vn -0.8868 -0.0909 0.4532
vn -0.604 0.5499 0.5769
vn -0.4689 0.3633 0.805
vn -0.3447 0.6354 0.691
vn -0.6459 0.1726 0.7436
vn -0.8282 -0.2519 0.5006
vn -0.7914 -0.1196 0.5995
vn -0.3072 0.4868 0.8177
vn -0.5444 -0.0461 0.8376
vn -0.4341 -0.1142 0.8936
vn -0.2468 0.0823 0.9656
vn -0.1734 -0.0582 0.9831
vn 0.001 0.0313 0.9995
vn 0.0014 0.8169 -0.5768
vn 0.0013 0.8811 0.473
vn -0.0012 0.2746 -0.9616
vn 0.0012 0.205 0.9788
vn 0.0012 0.2267 0.974
vn 0 -0.2292 0.9734
vn -0.0236 0.8092 -0.5871
vn -0.0209 0.2797 -0.9599
vn -0.0229 0.876 0.4818
vn -0.0201 0.2088 0.9778
vn -0.9644 0.2612 -0.0409
vn -0.5894 0.7895 -0.1712
vn -0.9663 0.2565 0.0207
vn -0.6366 0.7709 0.0238
vn -0.9809 0.1905 0.039
vn -0.0328 -0.0174 0.9993
vn -0.042 0.3091 0.9501
vn -0.0338 0.0154 0.9993
vn -0.035 0.052 0.998
vn 0.0011 0.0858 0.9963
vn 0.0011 0.1043 0.9945
vn -0.0425 0.3337 0.9417
vn -0.0162 -0.0172 0.9997
vn -0.0227 0.8896 0.4562
vn 0.0013 0.9063 0.4226
vn 0.0011 0.9963 0.0858
vn -0.0183 0.996 0.0872
vn 0.0174 0.0318 0.9993
vn -0.0183 0.0872 0.996
vn -0.018 0.0689 0.9975
vn 0.018 0.0689 0.9975
vn 0.0164 -0.0339 0.9993
vn 0.0215 0.3275 0.9446
vn 0.0218 0.352 0.9357
vn 0.0013 0.8942 0.4477
vn 0.9599 0.2797 0.0209
vn 0.9757 0.2154 0.0397
vn 0.9577 0.2849 -0.0414
vn 0.2285 0.5799 -0.782
vn 0.1679 0.5068 -0.8456
vn -0.2555 0.5596 -0.7884
vn -0.1932 0.4866 -0.852
vn -0.4005 0.7236 -0.5621
vn 0.3708 0.7432 -0.557
vn 0.6778 0.4636 -0.5707
vn 0.1962 0.8166 -0.5429
vn 0.1692 0.828 -0.5345
vn 0.1154 0.8789 -0.4629
vn 0.0901 0.8992 -0.4281
vn 0.0011 0.9862 -0.1657
vn 0.0011 0.9963 -0.0858
vn 0.4365 -0.8987 -0.0431
vn 0.7254 0.6777 -0.1206
vn 0.6251 0.7547 -0.1991
vn 0.4281 0.8992 -0.0901
vn 0.3266 0.8559 -0.4009
vn 0.5981 0.7765 -0.1983
vn 0.3475 0.8709 -0.3475
vn 0.6014 0.4936 -0.6283
vn 0.4914 0.5451 -0.6793
vn 0.5186 0.5186 -0.6797
vn 0.4827 0.453 -0.7495
vn 0.4528 0.4496 -0.77
vn 0.7651 0.3687 -0.5279
vn -0.7479 0.6528 -0.1204
vn -0.4658 -0.8838 -0.0436
vn -0.6547 0.729 -0.1997
vn -0.4549 0.8859 -0.091
vn -0.6251 0.7547 -0.1991
vn -0.3558 0.8418 -0.406
vn -0.626 0.4649 -0.626
vn -0.3766 0.857 -0.3518
vn -0.7028 0.4303 -0.5665
vn -0.5186 0.5186 -0.6797
vn -0.2273 0.8023 -0.5519
vn -0.5451 0.4914 -0.6793
vn -0.1962 0.8166 -0.5429
vn -0.5083 0.426 -0.7484
vn -0.1406 0.8709 -0.4709
vn -0.4786 0.4231 -0.7694
vn -0.7825 0.339 -0.5222
vn -0.1142 0.8928 -0.4358
vn 0.3228 0.8704 0.3717
vn 0.1377 0.8988 0.4161
vn 0.4232 0.8912 0.1632
vn 0.3956 0.9041 0.1614
vn 0.3337 0.9417 0.0425
vn 0.3275 0.9446 0.0215
vn 0.38 0.9247 -0.022
vn 0.4562 0.8896 -0.0227
vn 0.4052 0.914 -0.0223
vn -0.4306 0.9023 -0.0225
vn -0.4818 0.876 -0.0229
vn -0.4052 0.914 -0.0223
vn -0.3551 0.9346 0.0218
vn -0.3618 0.9313 0.0431
vn -0.4232 0.8912 0.1632
vn -0.451 0.8772 0.1649
vn -0.3518 0.857 0.3766
vn -0.1632 0.8912 0.4232
vn -0.1614 0.9041 0.3956
vn 0.0013 0.9373 0.3485
vn 0.0012 0.9469 0.3214
vn 0.1362 0.9112 0.3889
vn -0.0344 0.9988 -0.0344
vn -0.0339 0.9993 -0.0175
vn -0.035 0.998 -0.052
vn 0.0175 0.9993 -0.0339
vn 0.0172 0.9997 -0.0172
vn 0.0177 0.9985 -0.0511
o magazine__p0_c0
f 1/1/1 2/2/2 3/3/3
f 1/1/1 3/3/3 4/4/4
f 4/4/4 3/3/3 5/5/5
f 6/6/6 7/7/7 8/8/8
f 7/7/7 6/6/6 9/9/9
f 7/7/7 9/9/9 10/10/10
f 7/7/7 10/10/10 11/11/11
f 8/8/8 7/7/7 12/12/12
f 12/12/12 7/7/7 11/11/11
f 12/12/12 11/11/11 13/13/13
f 12/12/12 13/13/13 8/8/8
f 13/13/13 11/11/11 14/14/14
f 8/8/8 13/13/13 15/15/15
f 15/15/15 13/13/13 14/14/14
f 8/8/8 15/15/15 16/16/8
f 15/15/15 14/14/14 17/17/16
f 16/16/8 15/15/15 18/18/13
f 18/18/13 15/15/15 17/17/16
f 16/16/8 18/18/13 19/19/17
f 18/18/13 17/17/16 20/20/18
f 19/19/17 18/18/13 21/21/19
f 21/21/19 18/18/13 20/20/18
f 19/19/17 21/21/19 22/22/20
f 21/21/19 20/20/18 23/23/18
f 22/22/20 21/21/19 24/24/19
f 24/24/19 21/21/19 23/23/18
f 22/22/20 24/24/19 25/25/20
f 24/24/19 23/23/18 26/26/21
f 25/25/20 24/24/19 27/27/22
f 27/27/22 24/24/19 26/26/21
f 27/27/22 26/26/21 28/28/23
f 25/25/20 27/27/22 29/29/8
f 27/27/22 28/28/23 30/30/24
f 27/27/22 30/30/24 31/31/25
f 27/27/22 31/31/25 29/29/8
f 31/31/25 30/30/24 32/32/26
f 29/29/8 31/31/25 33/33/27
f 33/33/27 31/31/25 32/32/26
f 29/29/8 33/33/27 34/34/28
f 33/33/27 32/32/26 35/35/29
f 33/33/27 35/35/29 34/34/28
f 35/35/29 32/32/26 36/36/30
f 34/34/28 35/35/29 37/37/31
f 35/35/29 36/36/30 38/38/32
f 35/35/29 38/38/32 37/37/31
f 38/38/32 36/36/30 39/39/33
f 37/37/31 38/38/32 40/40/5
f 38/38/32 39/39/33 41/41/34
f 40/40/5 38/38/32 42/42/35
f 42/42/35 38/38/32 41/41/34
f 40/40/5 42/42/35 43/43/36
f 42/42/35 41/41/34 5/44/5
f 42/42/35 5/44/5 43/43/36
f 44/7/37 45/10/38 9/9/9
f 44/7/37 9/9/9 6/6/6
f 44/7/37 6/6/6 8/8/8
f 44/7/37 8/8/8 46/12/39
f 46/12/39 8/8/8 47/13/40
f 47/13/40 8/8/8 48/15/41
f 48/15/41 8/8/8 16/16/8
f 48/15/41 16/16/8 49/18/40
f 49/18/40 16/16/8 19/19/17
f 49/18/40 19/19/17 50/21/42
f 50/21/42 19/19/17 22/22/20
f 50/21/42 22/22/20 51/24/42
f 51/24/42 22/22/20 25/25/20
f 51/24/42 25/25/20 52/27/43
f 52/27/43 25/25/20 29/29/8
f 52/27/43 29/29/8 53/31/44
f 53/31/44 29/29/8 54/33/45
f 54/33/45 29/29/8 34/34/28
f 54/33/45 34/34/28 55/35/46
f 55/35/46 34/34/28 37/37/31
f 55/35/46 37/37/31 56/38/47
f 55/35/46 56/38/47 57/36/48
f 57/36/48 56/38/47 2/39/2
f 56/38/47 37/37/31 40/40/5
f 2/39/2 56/38/47 3/41/3
f 56/38/47 40/40/5 58/42/49
f 56/38/47 58/42/49 3/41/3
f 58/42/49 40/40/5 43/43/36
f 3/41/3 58/42/49 5/44/5
f 5/44/5 58/42/49 43/43/36
f 45/10/38 44/7/37 59/11/50
f 59/11/50 44/7/37 46/12/39
f 59/11/50 46/12/39 47/13/40
f 59/11/50 47/13/40 60/14/51
f 60/14/51 47/13/40 48/15/41
f 60/14/51 48/15/41 61/17/52
f 61/17/52 48/15/41 49/18/40
f 61/17/52 49/18/40 62/20/53
f 62/20/53 49/18/40 50/21/42
f 62/20/53 50/21/42 63/23/53
f 63/23/53 50/21/42 51/24/42
f 63/23/53 51/24/42 64/26/54
f 64/26/54 51/24/42 52/27/43
f 64/26/54 52/27/43 65/28/55
f 65/28/55 52/27/43 66/30/56
f 66/30/56 52/27/43 53/31/44
f 66/30/56 53/31/44 67/32/57
f 67/32/57 53/31/44 54/33/45
f 67/32/57 54/33/45 55/35/46
f 67/32/57 55/35/46 57/36/48
f 68/45/58 69/46/59 70/47/60
f 70/47/60 69/46/59 71/48/61
f 72/45/62 73/47/63 74/46/64
f 74/46/64 73/47/63 75/48/65
f 76/49/66 77/50/67 78/51/68
f 77/50/67 76/49/66 79/52/69
f 77/50/67 79/52/69 80/53/70
f 80/53/70 79/52/69 81/54/71
f 81/54/71 79/52/69 69/46/72
f 81/54/71 69/46/72 68/45/73
f 82/50/74 83/49/75 84/51/76
f 83/49/75 82/50/74 85/52/77
f 85/52/77 82/50/74 86/53/78
f 85/52/77 86/53/78 87/54/79
f 85/52/77 87/54/79 74/46/80
f 74/46/80 87/54/79 72/45/81
f 88/55/82 89/56/83 90/57/84
f 88/55/82 90/57/84 91/58/85
f 88/55/82 91/58/85 92/59/86
f 90/57/84 89/56/83 93/60/87
f 93/60/87 89/56/83 94/61/88
f 94/61/88 89/56/83 95/62/89
f 96/63/90 93/60/87 97/64/91
f 97/64/91 93/60/87 94/61/88
f 97/64/91 94/61/88 98/65/92
f 98/65/92 94/61/88 99/66/93
f 99/66/93 94/61/88 100/67/94
f 100/67/94 94/61/88 101/68/95
f 102/69/96 103/70/97 104/71/98
f 104/71/98 103/70/97 105/72/99
f 105/72/99 103/70/97 106/73/100
f 106/73/100 103/70/97 107/74/101
f 108/75/102 109/76/103 110/77/103
f 108/75/102 110/77/103 98/65/92
f 98/65/92 110/77/103 97/64/91
f 97/64/91 110/77/103 111/78/104
f 108/75/102 98/65/92 112/79/105
f 112/79/105 98/65/92 99/80/93
f 112/79/105 99/80/93 100/81/94
f 112/79/105 100/81/94 113/82/106
f 112/79/105 113/82/106 114/83/107
f 112/79/105 114/83/107 108/75/102
f 114/83/107 113/82/106 115/84/108
f 114/83/107 115/84/108 116/85/109
f 114/83/107 116/85/109 108/75/102
f 108/75/102 116/85/109 117/86/110
f 108/75/102 117/86/110 109/76/103
f 118/79/111 119/75/112 120/83/113
f 118/79/111 120/83/113 105/82/99
f 105/82/99 120/83/113 104/84/98
f 118/79/111 105/82/99 106/81/100
f 104/84/98 120/83/113 121/85/114
f 118/79/111 106/81/100 122/80/115
f 121/85/114 120/83/113 119/75/112
f 118/79/111 122/80/115 123/65/116
f 118/79/111 123/65/116 119/75/112
f 121/85/114 119/75/112 124/86/117
f 121/85/114 124/86/117 125/87/118
f 125/87/118 124/86/117 126/88/119
f 126/88/119 124/86/117 127/76/120
f 127/76/120 124/86/117 119/75/112
f 126/88/119 127/76/120 128/89/119
f 119/75/112 123/65/116 129/77/120
f 119/75/112 129/77/120 127/76/120
f 128/89/119 127/76/120 130/90/119
f 128/89/119 130/90/119 131/91/119
f 130/90/119 127/76/120 132/92/119
f 132/92/119 127/76/120 133/93/120
f 133/93/120 127/76/120 129/77/120
f 132/92/119 133/93/120 134/94/121
f 132/92/119 134/94/121 135/95/119
f 133/93/120 129/77/120 136/96/122
f 133/93/120 136/96/122 134/94/121
f 137/97/123 138/98/119 135/95/119
f 137/97/123 135/95/119 139/99/124
f 139/99/124 135/95/119 134/94/121
f 137/97/123 139/99/124 140/100/125
f 137/97/123 140/100/125 141/101/126
f 141/101/126 140/100/125 142/102/127
f 140/100/125 139/99/124 143/103/128
f 143/103/128 139/99/124 134/94/121
f 140/100/125 143/103/128 144/104/129
f 143/103/128 134/94/121 145/105/130
f 145/105/130 134/94/121 146/106/131
f 146/106/131 134/94/121 147/107/132
f 147/107/132 134/94/121 136/96/122
f 140/100/125 144/104/129 148/108/133
f 147/107/132 136/96/122 149/109/134
f 149/109/134 136/96/122 150/110/134
f 150/110/134 136/96/122 151/111/135
f 140/100/125 148/108/133 152/112/136
f 140/100/125 152/112/136 142/102/127
f 152/112/136 148/108/133 153/113/137
f 142/102/127 152/112/136 154/114/138
f 152/112/136 153/113/137 155/115/139
f 154/114/138 152/112/136 156/116/140
f 156/116/140 152/112/136 155/115/139
f 157/78/141 151/111/135 136/96/122
f 151/111/135 157/78/141 71/117/142
f 157/78/141 136/96/122 129/77/120
f 71/117/142 157/78/141 158/118/143
f 71/117/142 158/118/143 70/119/144
f 157/78/141 129/77/120 159/64/145
f 159/64/145 129/77/120 123/65/116
f 158/118/143 157/78/141 160/63/146
f 160/63/146 157/78/141 159/64/145
f 158/118/143 160/63/146 161/120/147
f 159/64/145 123/65/116 162/61/148
f 162/61/148 123/65/116 122/66/115
f 162/61/148 122/66/115 106/67/100
f 162/61/148 106/67/100 107/68/101
f 161/120/147 160/63/146 163/57/149
f 161/120/147 163/57/149 164/121/150
f 160/63/146 159/64/145 165/60/151
f 165/60/151 159/64/145 162/61/148
f 160/63/146 165/60/151 163/57/149
f 164/121/150 163/57/149 166/58/152
f 165/60/151 162/61/148 89/56/83
f 165/60/151 89/56/83 163/57/149
f 89/56/83 162/61/148 95/62/89
f 163/57/149 89/56/83 88/55/82
f 163/57/149 88/55/82 166/58/152
f 166/58/152 88/55/82 92/59/86
f 167/87/153 117/86/110 116/85/109
f 117/86/110 167/87/153 168/88/154
f 117/86/110 168/88/154 109/76/103
f 109/76/103 168/88/154 169/89/154
f 109/76/103 169/89/154 170/90/154
f 170/90/154 169/89/154 171/91/155
f 109/76/103 170/90/154 172/92/154
f 109/76/103 172/92/154 173/93/103
f 109/76/103 173/93/103 110/77/103
f 173/93/103 172/92/154 174/94/156
f 110/77/103 173/93/103 175/96/157
f 175/96/157 173/93/103 174/94/156
f 174/94/156 172/92/154 176/95/154
f 110/77/103 175/96/157 111/78/104
f 177/97/158 176/95/154 178/98/154
f 176/95/154 177/97/158 179/99/159
f 176/95/154 179/99/159 174/94/156
f 179/99/159 177/97/158 180/100/160
f 180/100/160 177/97/158 181/101/161
f 180/100/160 181/101/161 182/102/162
f 180/100/160 182/102/162 183/112/163
f 179/99/159 180/100/160 184/103/164
f 179/99/159 184/103/164 174/94/156
f 184/103/164 180/100/160 185/104/165
f 185/104/165 180/100/160 186/108/166
f 186/108/166 180/100/160 183/112/163
f 186/108/166 183/112/163 187/113/167
f 174/94/156 184/103/164 188/105/168
f 174/94/156 188/105/168 189/106/169
f 174/94/156 189/106/169 190/107/170
f 174/94/156 190/107/170 175/96/157
f 175/96/157 190/107/170 191/109/171
f 175/96/157 191/109/171 192/110/171
f 175/96/157 192/110/171 193/111/172
f 175/96/157 193/111/172 111/78/104
f 111/78/104 193/111/172 75/117/173
f 111/78/104 75/117/173 194/118/174
f 194/118/174 75/117/173 73/119/175
f 111/78/104 194/118/174 96/63/90
f 111/78/104 96/63/90 97/64/91
f 96/63/90 194/118/174 195/120/176
f 96/63/90 195/120/176 90/57/84
f 96/63/90 90/57/84 93/60/87
f 90/57/84 195/120/176 196/121/177
f 90/57/84 196/121/177 91/58/85
f 95/122/178 162/123/179 197/124/178
f 95/122/178 197/124/178 198/125/180
f 198/125/180 197/124/178 199/126/181
f 198/125/180 199/126/181 200/127/180
f 200/127/180 199/126/181 201/128/181
f 95/122/178 198/125/180 202/124/182
f 95/122/178 202/124/182 94/123/183
f 202/124/182 198/125/180 203/126/180
f 203/126/180 198/125/180 200/127/180
f 203/126/180 200/127/180 204/128/180
f 205/129/184 206/130/185 207/131/186
f 205/129/184 207/131/186 208/132/187
f 207/131/186 206/130/185 209/133/188
f 208/132/187 207/131/186 210/134/189
f 210/134/189 207/131/186 209/133/188
f 208/132/187 210/134/189 211/135/188
f 208/132/187 211/135/188 212/136/190
f 212/136/190 211/135/188 213/137/191
f 209/133/188 206/130/185 214/138/192
f 214/138/192 206/130/185 215/139/193
f 210/134/189 209/133/188 216/140/194
f 210/134/189 216/140/194 211/135/188
f 209/133/188 214/138/192 217/141/195
f 209/133/188 217/141/195 216/140/194
f 214/138/192 215/139/193 218/142/196
f 218/142/196 215/139/193 219/143/197
f 217/141/195 214/138/192 220/144/198
f 220/144/198 214/138/192 218/142/196
f 216/140/194 217/141/195 221/145/199
f 217/141/195 220/144/198 222/146/200
f 217/141/195 222/146/200 221/145/199
f 216/140/194 221/145/199 223/147/201
f 216/140/194 223/147/201 211/135/188
f 218/142/196 219/143/197 224/148/202
f 224/148/202 219/143/197 225/149/203
f 220/144/198 218/142/196 226/150/204
f 226/150/204 218/142/196 224/148/202
f 220/144/198 226/150/204 227/151/205
f 220/144/198 227/151/205 222/146/200
f 224/148/202 225/149/203 228/152/206
f 228/152/206 225/149/203 229/153/207
f 228/152/206 229/153/207 230/154/208
f 230/154/208 229/153/207 231/155/209
f 228/152/206 230/154/208 232/156/210
f 224/148/202 228/152/206 233/157/211
f 233/157/211 228/152/206 232/156/210
f 224/148/202 233/157/211 226/150/204
f 233/157/211 232/156/210 234/158/212
f 226/150/204 233/157/211 235/159/213
f 235/159/213 233/157/211 234/158/212
f 226/150/204 235/159/213 227/151/205
f 236/160/214 234/158/212 237/161/215
f 234/158/212 236/160/214 238/162/216
f 234/158/212 238/162/216 235/159/213
f 238/162/216 236/160/214 239/163/217
f 238/162/216 239/163/217 45/164/38
f 45/164/38 239/163/217 9/165/9
f 235/159/213 238/162/216 240/166/218
f 240/166/218 238/162/216 45/164/38
f 235/159/213 240/166/218 227/151/205
f 240/166/218 45/164/38 59/167/50
f 240/166/218 59/167/50 60/168/51
f 227/151/205 240/166/218 241/169/219
f 241/169/219 240/166/218 60/168/51
f 227/151/205 241/169/219 222/146/200
f 241/169/219 60/168/51 242/170/220
f 241/169/219 242/170/220 222/146/200
f 242/170/220 60/168/51 61/171/52
f 222/146/200 242/170/220 221/145/199
f 242/170/220 61/171/52 243/172/221
f 242/170/220 243/172/221 221/145/199
f 243/172/221 61/171/52 62/173/53
f 221/145/199 243/172/221 223/147/201
f 243/172/221 62/173/53 244/174/222
f 243/172/221 244/174/222 223/147/201
f 244/174/222 62/173/53 63/175/53
f 223/147/201 244/174/222 211/135/188
f 244/174/222 63/175/53 64/176/54
f 211/135/188 244/174/222 245/177/223
f 245/177/223 244/174/222 64/176/54
f 211/135/188 245/177/223 213/137/191
f 245/177/223 64/176/54 65/178/55
f 245/177/223 65/178/55 213/137/191
f 213/137/191 65/178/55 246/179/224
f 246/179/224 65/178/55 66/180/56
f 246/179/224 66/180/56 247/181/225
f 247/181/225 66/180/56 67/182/57
f 247/181/225 67/182/57 57/183/48
f 247/181/225 57/183/48 248/184/226
f 248/184/226 57/183/48 2/2/2
f 248/184/226 2/2/2 249/185/227
f 249/185/227 2/2/2 1/1/1
f 142/186/228 250/187/229 251/188/230
f 250/187/229 142/186/228 154/189/228
f 142/186/228 251/188/230 141/190/180
f 251/188/230 250/187/229 252/191/231
f 141/190/180 251/188/230 137/192/230
f 251/188/230 252/191/231 138/193/231
f 251/188/230 138/193/231 137/192/230
f 154/189/228 182/186/232 250/187/229
f 250/187/229 182/186/232 253/188/233
f 253/188/233 182/186/232 181/190/181
f 250/187/229 253/188/233 252/191/231
f 253/188/233 181/190/181 177/192/233
f 252/191/231 253/188/233 178/193/234
f 178/193/234 253/188/233 177/192/233
f 254/170/235 255/172/236 17/171/16
f 17/171/16 255/172/236 20/173/18
f 254/170/235 17/171/16 14/168/14
f 20/173/18 255/172/236 256/174/237
f 20/173/18 256/174/237 23/175/18
f 23/175/18 256/174/237 26/176/21
f 26/176/21 256/174/237 257/177/238
f 26/176/21 257/177/238 28/178/23
f 28/178/23 257/177/238 258/137/239
f 28/178/23 258/137/239 259/179/240
f 28/178/23 259/179/240 30/180/24
f 30/180/24 259/179/240 260/181/241
f 30/180/24 260/181/241 32/182/26
f 32/182/26 260/181/241 36/183/30
f 36/183/30 260/181/241 261/184/242
f 36/183/30 261/184/242 39/2/33
f 39/2/33 261/184/242 262/185/243
f 39/2/33 262/185/243 263/1/244
f 39/2/33 263/1/244 41/3/34
f 41/3/34 263/1/244 4/4/4
f 41/3/34 4/4/4 5/5/5
f 264/135/245 258/137/239 257/177/238
f 258/137/239 264/135/245 265/136/246
f 264/135/245 257/177/238 256/174/237
f 265/136/246 264/135/245 266/132/247
f 264/135/245 256/174/237 267/147/248
f 267/147/248 256/174/237 255/172/236
f 266/132/247 264/135/245 268/134/249
f 264/135/245 267/147/248 269/140/250
f 264/135/245 269/140/250 268/134/249
f 267/147/248 255/172/236 270/145/251
f 267/147/248 270/145/251 269/140/250
f 270/145/251 255/172/236 254/170/235
f 266/132/247 268/134/249 271/131/252
f 266/132/247 271/131/252 272/129/253
f 272/129/253 271/131/252 273/130/254
f 271/131/252 268/134/249 274/133/245
f 274/133/245 268/134/249 269/140/250
f 271/131/252 274/133/245 273/130/254
f 275/141/255 269/140/250 270/145/251
f 269/140/250 275/141/255 274/133/245
f 273/130/254 274/133/245 276/138/256
f 276/138/256 274/133/245 275/141/255
f 273/130/254 276/138/256 277/139/257
f 275/141/255 270/145/251 278/146/258
f 278/146/258 270/145/251 254/170/235
f 276/138/256 275/141/255 279/144/259
f 279/144/259 275/141/255 278/146/258
f 277/139/257 276/138/256 280/142/260
f 280/142/260 276/138/256 279/144/259
f 277/139/257 280/142/260 281/143/261
f 278/146/258 254/170/235 282/169/262
f 282/169/262 254/170/235 14/168/14
f 279/144/259 278/146/258 283/151/263
f 283/151/263 278/146/258 282/169/262
f 282/169/262 14/168/14 284/166/264
f 282/169/262 284/166/264 283/151/263
f 284/166/264 14/168/14 11/167/11
f 284/166/264 11/167/11 10/164/10
f 279/144/259 283/151/263 285/150/265
f 279/144/259 285/150/265 280/142/260
f 283/151/263 284/166/264 286/159/266
f 283/151/263 286/159/266 285/150/265
f 284/166/264 10/164/10 287/162/267
f 284/166/264 287/162/267 286/159/266
f 287/162/267 10/164/10 239/163/217
f 239/163/217 10/164/10 9/165/9
f 287/162/267 239/163/217 236/160/214
f 287/162/267 236/160/214 288/158/268
f 287/162/267 288/158/268 286/159/266
f 288/158/268 236/160/214 237/161/215
f 289/157/269 285/150/265 286/159/266
f 289/157/269 286/159/266 288/158/268
f 290/148/270 280/142/260 285/150/265
f 290/148/270 285/150/265 289/157/269
f 280/142/260 290/148/270 281/143/261
f 281/143/261 290/148/270 291/149/271
f 288/158/268 237/161/215 292/156/272
f 288/158/268 292/156/272 289/157/269
f 292/156/272 237/161/215 293/194/139
f 291/149/271 290/148/270 294/152/273
f 294/152/273 290/148/270 289/157/269
f 294/152/273 289/157/269 292/156/272
f 291/149/271 294/152/273 295/153/274
f 294/152/273 292/156/272 296/154/275
f 294/152/273 296/154/275 295/153/274
f 296/154/275 292/156/272 293/194/139
f 295/153/274 296/154/275 297/155/276
f 297/155/276 296/154/275 293/194/139
f 297/155/276 293/194/139 298/195/277
f 183/112/163 182/102/162 154/114/138
f 183/112/163 154/114/138 156/116/140
f 183/112/163 156/116/140 155/115/139
f 183/112/163 155/115/139 187/113/167
f 299/196/278 176/197/278 300/198/279
f 176/197/278 299/196/278 252/191/280
f 176/197/278 252/191/280 178/193/82
f 300/198/279 176/197/278 172/199/279
f 300/198/279 172/199/279 301/200/281
f 301/200/281 172/199/279 170/201/282
f 301/200/281 170/201/282 302/202/138
f 302/202/138 170/201/282 171/203/283
f 299/196/278 135/197/284 252/191/280
f 252/191/280 135/197/284 138/193/285
f 135/197/284 299/196/278 300/198/279
f 135/197/284 300/198/279 132/199/286
f 132/199/286 300/198/279 301/200/281
f 132/199/286 301/200/281 130/201/287
f 130/201/287 301/200/281 302/202/138
f 130/201/287 302/202/138 131/203/138
f 94/123/88 202/124/288 101/74/95
f 101/74/95 202/124/288 303/70/289
f 101/74/95 303/70/289 100/73/94
f 100/73/94 303/70/289 113/72/106
f 113/72/106 303/70/289 115/71/108
f 303/70/289 202/124/288 203/126/290
f 115/71/108 303/70/289 304/69/291
f 304/69/291 303/70/289 203/126/290
f 304/69/291 203/126/290 204/128/292
f 125/204/293 126/205/294 201/128/295
f 125/204/293 201/128/295 121/206/296
f 121/206/296 201/128/295 104/207/297
f 104/207/297 201/128/295 102/208/298
f 201/128/295 126/205/294 305/209/299
f 201/128/295 305/209/299 306/210/217
f 201/128/295 306/210/217 200/127/300
f 305/209/299 126/205/294 128/211/301
f 305/209/299 128/211/301 306/210/217
f 306/210/217 128/211/301 307/212/302
f 307/212/302 128/211/301 302/202/303
f 302/202/303 128/211/301 131/203/304
f 200/127/300 306/210/217 204/128/305
f 304/208/306 204/128/305 115/207/307
f 115/207/307 204/128/305 116/206/308
f 116/206/308 204/128/305 167/204/309
f 167/204/309 204/128/305 168/205/310
f 168/205/310 204/128/305 308/209/311
f 308/209/311 204/128/305 306/210/217
f 168/205/310 308/209/311 169/211/312
f 169/211/312 308/209/311 306/210/217
f 169/211/312 306/210/217 307/212/302
f 169/211/312 307/212/302 302/202/303
f 169/211/312 302/202/303 171/203/303
f 199/126/313 102/69/96 201/128/314
f 102/69/96 199/126/313 103/70/97
f 103/70/97 199/126/313 197/124/315
f 103/70/97 197/124/315 107/74/101
f 107/74/101 197/124/315 162/123/148
f 190/213/316 84/51/94 191/214/317
f 78/51/100 147/213/318 149/214/319
f 147/213/318 78/51/100 272/129/320
f 84/51/94 190/213/316 205/129/321
f 230/154/208 231/155/209 293/194/139
f 293/194/139 231/155/209 298/195/277
f 230/154/208 293/194/139 232/156/210
f 232/156/210 293/194/139 237/161/215
f 232/156/210 237/161/215 234/158/212
f 195/215/322 249/185/323 196/216/324
f 196/216/324 249/185/323 1/1/325
f 196/216/324 1/1/325 91/217/326
f 91/217/326 1/1/325 4/4/327
f 91/217/326 4/4/327 92/218/328
f 73/47/329 72/45/330 194/219/331
f 194/219/331 72/45/330 246/179/332
f 246/179/332 72/45/330 213/137/333
f 194/219/331 246/179/332 247/181/334
f 213/137/333 72/45/330 87/54/335
f 194/219/331 247/181/334 248/184/336
f 194/219/331 248/184/336 195/215/322
f 195/215/322 248/184/336 249/185/323
f 213/137/333 87/54/335 212/136/337
f 212/136/337 87/54/335 86/53/338
f 212/136/337 86/53/338 208/132/339
f 208/132/339 86/53/338 82/50/340
f 208/132/339 82/50/340 84/51/341
f 208/132/339 84/51/341 205/129/334
f 68/45/342 70/47/343 158/219/344
f 68/45/342 158/219/344 259/179/345
f 259/179/345 158/219/344 260/181/346
f 68/45/342 259/179/345 258/137/347
f 260/181/346 158/219/344 261/184/348
f 68/45/342 258/137/347 81/54/349
f 261/184/348 158/219/344 161/215/350
f 81/54/349 258/137/347 265/136/351
f 261/184/348 161/215/350 262/185/352
f 81/54/349 265/136/351 80/53/353
f 262/185/352 161/215/350 164/216/354
f 80/53/353 265/136/351 266/132/355
f 262/185/352 164/216/354 263/1/356
f 80/53/353 266/132/355 77/50/357
f 77/50/357 266/132/355 78/51/358
f 78/51/358 266/132/355 272/129/346
f 263/1/356 164/216/354 166/217/359
f 263/1/356 166/217/359 4/4/327
f 4/4/327 166/217/359 92/218/328
f 186/220/360 231/155/361 229/153/360
f 186/220/360 229/153/360 185/221/362
f 185/221/362 229/153/360 225/149/363
f 185/221/362 225/149/363 184/222/364
f 184/222/364 225/149/363 219/143/365
f 184/222/364 219/143/365 188/223/366
f 188/223/366 219/143/365 215/139/366
f 188/223/366 215/139/366 206/130/367
f 188/223/366 206/130/367 189/224/367
f 189/224/367 206/130/367 205/129/334
f 189/224/367 205/129/334 190/213/368
f 147/213/369 272/129/346 146/224/370
f 146/224/370 272/129/346 273/130/370
f 146/224/370 273/130/370 145/223/371
f 145/223/371 273/130/370 277/139/371
f 145/223/371 277/139/371 281/143/372
f 145/223/371 281/143/372 143/222/373
f 143/222/373 281/143/372 291/149/374
f 143/222/373 291/149/374 144/221/375
f 144/221/375 291/149/374 295/153/376
f 144/221/375 295/153/376 148/220/376
f 148/220/376 295/153/376 297/155/377
f 148/220/376 297/155/377 153/225/378
f 153/225/378 297/155/377 298/195/379
f 153/225/378 298/195/379 155/226/380
f 155/226/380 298/195/379 187/225/381
f 187/225/381 298/195/379 231/155/361
f 187/225/381 231/155/361 186/220/360
f 74/46/64 75/227/65 85/52/382
f 85/52/382 75/227/65 193/228/383
f 85/52/382 193/228/383 83/49/384
f 83/49/384 193/228/383 192/229/384
f 83/49/384 192/229/384 84/51/384
f 84/51/384 192/229/384 191/214/384
f 79/52/385 71/227/61 69/46/59
f 71/227/61 79/52/385 151/228/386
f 151/228/386 79/52/385 76/49/387
f 151/228/386 76/49/387 150/229/387
f 150/229/387 76/49/387 78/51/387
f 150/229/387 78/51/387 149/214/387
