# CS2 body mesh, tools/cs2_glb_to_obj.py
v 0.00155 0.11938 0.4948
v 0.00161 0.15315 0.49479
v -0.00702 0.12051 0.49481
v -0.01501 0.12383 0.49482
v 0.01012 0.1205 0.49479
v -0.02186 0.1291 0.49482
v 0.01811 0.1238 0.49479
v -0.02712 0.13596 0.49482
v 0.02497 0.12905 0.49478
v -0.03042 0.14395 0.49483
v 0.03024 0.13591 0.49478
v -0.03154 0.15253 0.49483
v 0.03356 0.14389 0.49477
v 0.0347 0.15246 0.49477
v -0.03151 0.18175 0.49482
v 0.03473 0.18169 0.49477
v -0.03145 0.24435 0.49481
v -0.03692 0.18176 0.49483
v -0.03686 0.24436 0.49482
v -0.03553 0.25433 0.49482
v 0.00167 0.21043 0.49478
v -0.03032 0.25292 0.49481
v -0.03168 0.26361 0.49481
v -0.027 0.26091 0.49481
v -0.02173 0.26776 0.4948
v -0.02554 0.27158 0.4948
v -0.01756 0.27769 0.4948
v -0.01486 0.27301 0.4948
v -0.00826 0.28153 0.49479
v -0.00687 0.27631 0.49479
v 0.00171 0.28283 0.49478
v 0.0017 0.27743 0.49478
v 0.01028 0.27629 0.49477
v 0.01168 0.28151 0.49477
v 0.01826 0.27298 0.49477
v 0.02097 0.27765 0.49476
v 0.02512 0.26771 0.49476
v 0.02894 0.27153 0.49476
v 0.03506 0.26354 0.49475
v 0.03038 0.26085 0.49476
v 0.03368 0.25286 0.49476
v 0.0389 0.25425 0.49475
v 0.0348 0.24429 0.49476
v 0.0402 0.24428 0.49475
v 0.04014 0.18168 0.49476
v -0.01 0.30861 0.45642
v -0.01 0.28776 0.47691
v 0.00187 0.30862 0.45643
v 0.00187 0.28777 0.47692
v 0.01373 0.28776 0.47691
v 0.01373 0.30861 0.45642
v -0.02341 0.28782 0.48003
v -0.00995 0.28781 0.48658
v 0.00171 0.2878 0.4885
v 0.01336 0.28779 0.48656
v -0.0399 0.28593 0.46921
v -0.0374 0.28784 0.46921
v -0.04216 0.28784 0.46329
v -0.04788 0.28671 0.45655
v -0.04925 0.27376 0.46922
v -0.05273 0.28348 0.4535
v -0.05597 0.27864 0.45351
v -0.05514 0.25959 0.46923
v -0.05713 0.24438 0.46923
v -0.05719 0.18177 0.46924
v -0.05712 0.26682 0.45401
v -0.05711 0.27293 0.45351
v 0.02682 0.28777 0.47999
v 0.04328 0.28585 0.46914
v 0.04079 0.28776 0.46914
v 0.04554 0.28775 0.46322
v 0.05124 0.28661 0.45647
v 0.05261 0.27366 0.46913
v 0.05608 0.28337 0.45341
v 0.05931 0.27852 0.45341
v 0.05847 0.25948 0.46913
v 0.06043 0.24426 0.46913
v 0.06036 0.18166 0.46914
v 0.06044 0.2667 0.45391
v 0.06044 0.27281 0.45341
v -0.03709 0.30847 -0.4535
v -0.01084 0.30849 -0.45348
v -0.05342 0.28322 -0.46485
v -0.01082 0.29751 -0.45844
v 0.00187 0.28327 -0.4648
v 0.00187 0.29752 -0.45843
v 0.01218 0.29751 -0.45844
v 0.05478 0.28322 -0.46485
v 0.0122 0.30849 -0.45348
v 0.03845 0.30847 -0.4535
v 0.04773 0.27996 -0.49106
v 0.05028 0.27825 -0.49107
v 0.04607 0.27598 -0.49189
v 0.04723 0.27521 -0.49189
v 0.05198 0.2757 -0.49107
v 0.04362 0.27647 -0.49189
v 0.04404 0.28073 -0.49105
v 0.02695 0.26925 -0.49188
v 0.00087 0.27652 -0.49185
v 0.0328 0.26829 -0.49188
v 0.00086 0.26929 -0.49185
v 0.00087 0.28079 -0.49101
v -0.02523 0.2693 -0.49183
v -0.04188 0.27656 -0.49182
v -0.0423 0.28082 -0.49097
v -0.03109 0.26835 -0.49183
v -0.04434 0.27607 -0.49182
v -0.04599 0.28006 -0.49098
v -0.03439 0.26667 -0.49182
v -0.0455 0.2753 -0.49181
v -0.04854 0.27835 -0.49098
v -0.03728 0.26667 -0.49182
v -0.03648 0.26561 -0.49182
v -0.04077 0.26133 -0.49182
v -0.04258 0.26668 -0.49182
v -0.04352 0.25594 -0.49181
v -0.04627 0.27415 -0.49181
v -0.05025 0.2758 -0.49098
v -0.04514 0.26668 -0.49181
v -0.04449 0.25008 -0.49181
v -0.04676 0.27169 -0.49181
v -0.05102 0.27212 -0.49097
v -0.04623 0.26668 -0.49181
v -0.04679 0.24385 -0.49181
v -0.04677 0.26668 -0.49181
v -0.05103 0.26669 -0.49096
v -0.0445 0.24385 -0.49181
v -0.05106 0.24385 -0.49096
v -0.04684 0.1984 -0.4918
v -0.04455 0.19839 -0.49181
v -0.0511 0.1984 -0.49095
v 0.03919 0.2666 -0.49189
v 0.0361 0.2666 -0.49188
v 0.03819 0.26553 -0.49188
v 0.04477 0.26659 -0.49189
v 0.04247 0.26125 -0.49189
v 0.048 0.27406 -0.49189
v 0.05274 0.27201 -0.49105
v 0.04744 0.26659 -0.49189
v 0.04521 0.25585 -0.49189
v 0.04848 0.2716 -0.49189
v 0.05274 0.26658 -0.49105
v 0.04794 0.26659 -0.49189
v 0.04616 0.24999 -0.49189
v 0.04848 0.26659 -0.49189
v 0.05272 0.24375 -0.49105
v 0.04845 0.24375 -0.49189
v 0.04617 0.24376 -0.49189
v 0.05268 0.1983 -0.49104
v 0.04841 0.1983 -0.49188
v 0.04612 0.1983 -0.49188
v 0.05267 0.18931 -0.49104
v 0.05266 0.18154 -0.49104
v 0.0484 0.18932 -0.49188
v 0.04839 0.18154 -0.49188
v 0.0461 0.18154 -0.49188
v 0.04611 0.18932 -0.49188
v -0.05112 0.18164 -0.49095
v -0.05111 0.18942 -0.49095
v -0.04685 0.18164 -0.4918
v -0.04684 0.18941 -0.4918
v -0.04456 0.18941 -0.4918
v -0.04456 0.18163 -0.4918
v 0.04438 0.21688 -0.49362
v 0.04438 0.21598 -0.49362
v -0.04269 0.21697 -0.49354
v -0.04269 0.21606 -0.49354
v 0.04438 0.22297 -0.49362
v 0.04438 0.22207 -0.49362
v -0.04269 0.22306 -0.49355
v -0.04269 0.22216 -0.49355
v 0.04439 0.22907 -0.49362
v 0.04439 0.22817 -0.49362
v -0.04268 0.22916 -0.49355
v -0.04268 0.22825 -0.49355
v 0.0444 0.23516 -0.49362
v 0.0444 0.23426 -0.49362
v -0.04267 0.23525 -0.49355
v -0.04267 0.23435 -0.49355
v 0.0444 0.24126 -0.49362
v 0.0444 0.24036 -0.49362
v -0.04267 0.24135 -0.49355
v -0.04267 0.24044 -0.49355
v 0.04475 0.24982 -0.49165
v 0.04471 0.21337 -0.49165
v 0.00102 0.24987 -0.49161
v 0.03697 0.21338 -0.49164
v 0.0447 0.19679 -0.49164
v 0.03696 0.19679 -0.49164
v 0.01426 0.2134 -0.49162
v 0.00098 0.21342 -0.49161
v 0.01424 0.19682 -0.49162
v 0.00096 0.19683 -0.49161
v -0.01132 0.19684 -0.4916
v -0.01131 0.20063 -0.4916
v -0.00863 0.20739 -0.4916
v -0.01178 0.20281 -0.4916
v -0.0131 0.20461 -0.4916
v -0.01505 0.20571 -0.49159
v -0.01992 0.21344 -0.49159
v -0.01993 0.20723 -0.49159
v -0.04272 0.24991 -0.49158
v -0.03858 0.21346 -0.49157
v 0.00103 0.26764 -0.49162
v -0.02493 0.26767 -0.49159
v 0.027 0.26761 -0.49164
v 0.03249 0.26674 -0.49164
v 0.03744 0.26421 -0.49165
v 0.04137 0.26027 -0.49165
v 0.04389 0.25532 -0.49165
v -0.03042 0.2668 -0.49159
v -0.03538 0.26428 -0.49158
v -0.03931 0.26035 -0.49158
v -0.04184 0.2554 -0.49158
v -0.04275 0.21346 -0.49157
v -0.0386 0.19687 -0.49157
v -0.04277 0.19687 -0.49157
v 0.04914 0.28337 -0.48867
v 0.0444 0.28435 -0.48864
v 0.0501 0.28567 -0.48505
v 0.00088 0.2844 -0.48859
v 0.04465 0.28677 -0.48502
v 0.05045 0.28649 -0.48074
v 0.00088 0.28682 -0.48497
v 0.04474 0.28763 -0.48074
v -0.04265 0.28444 -0.48856
v -0.04739 0.28346 -0.48859
v -0.04834 0.28577 -0.48497
v -0.04288 0.28686 -0.48494
v 0.00089 0.28767 -0.4807
v 0.04441 0.24309 -0.49147
v -0.04266 0.24317 -0.4914
v 0.0444 0.23699 -0.49147
v -0.04267 0.23708 -0.4914
v -0.04912 0.17954 -0.44338
v -0.04922 0.28092 -0.44339
v 0.00187 0.17959 -0.44333
v 0.00187 0.28097 -0.44335
v 0.05295 0.28092 -0.44339
v 0.05285 0.17954 -0.44338
v 0.04439 0.2309 -0.49147
v -0.04268 0.23099 -0.4914
v 0.04439 0.2248 -0.49147
v -0.04268 0.22489 -0.49139
v -0.05359 0.18165 -0.43584
v -0.05796 0.18166 -0.43583
v -0.0535 0.2667 -0.43585
v -0.05787 0.2667 -0.43585
v -0.05673 0.27852 -0.43585
v -0.05348 0.28336 -0.43585
v -0.05787 0.27281 -0.43585
v 0.05531 0.26659 -0.43594
v 0.05532 0.28325 -0.43594
v 0.05856 0.27841 -0.43595
v 0.05968 0.26658 -0.43595
v 0.05959 0.18154 -0.43593
v 0.05522 0.18154 -0.43593
v 0.05969 0.27269 -0.43595
v 0.04438 0.21871 -0.49147
v -0.04269 0.2188 -0.49139
v -0.05356 0.18165 -0.40575
v -0.05793 0.18166 -0.40575
v -0.05348 0.2667 -0.40576
v -0.05785 0.26671 -0.40576
v -0.0567 0.27853 -0.40576
v -0.05346 0.28337 -0.40577
v -0.05784 0.27281 -0.40576
v 0.05533 0.26659 -0.40586
v 0.05535 0.28326 -0.40586
v 0.05858 0.27841 -0.40586
v 0.05971 0.26659 -0.40586
v 0.05962 0.18154 -0.40585
v 0.05525 0.18155 -0.40585
v 0.05971 0.2727 -0.40586
v -0.05354 0.18166 -0.37567
v -0.05791 0.18166 -0.37566
v -0.05345 0.26671 -0.37568
v -0.05782 0.26671 -0.37568
v -0.05667 0.27853 -0.37568
v -0.05782 0.27282 -0.37568
v -0.05343 0.28337 -0.37568
v 0.05536 0.2666 -0.37577
v 0.05538 0.28326 -0.37577
v 0.05861 0.27841 -0.37578
v 0.05973 0.26659 -0.37578
v 0.05974 0.2727 -0.37578
v 0.05965 0.18154 -0.37576
v 0.05527 0.18155 -0.37576
v -0.0578 0.26671 -0.34559
v -0.05779 0.27282 -0.34559
v -0.05665 0.27853 -0.34559
v -0.05351 0.18166 -0.34558
v -0.05788 0.18167 -0.34558
v -0.05343 0.26671 -0.34559
v -0.05341 0.28337 -0.3456
v 0.05538 0.2666 -0.34569
v 0.0554 0.28326 -0.34569
v 0.05863 0.27842 -0.34569
v 0.05976 0.26659 -0.34569
v 0.05967 0.18155 -0.34568
v 0.0553 0.18155 -0.34568
v 0.05976 0.2727 -0.34569
v -0.05349 0.18167 -0.3155
v -0.05786 0.18167 -0.31549
v -0.0534 0.26671 -0.31551
v -0.05777 0.26672 -0.31551
v -0.05662 0.27854 -0.31551
v -0.05338 0.28338 -0.31551
v -0.05777 0.27283 -0.31551
v 0.05541 0.2666 -0.3156
v 0.05543 0.28327 -0.3156
v 0.05866 0.27842 -0.31561
v 0.05978 0.2666 -0.31561
v 0.05979 0.27271 -0.31561
v 0.0597 0.18155 -0.31559
v 0.05532 0.18156 -0.31559
v 0.01221 0.3085 -0.43722
v 0.03846 0.30847 -0.43725
v -0.0371 0.30847 -0.43725
v -0.01085 0.3085 -0.43722
v -0.00999 0.30861 0.44724
v 0.00187 0.30862 0.44725
v 0.01372 0.30861 0.44724
v 0.04438 0.21415 -0.49147
v -0.04269 0.21424 -0.49139
v -0.01084 0.29751 -0.43183
v 0.00187 0.29752 -0.43182
v 0.0122 0.29751 -0.43183
v 0.04438 0.22024 -0.49147
v -0.04269 0.22033 -0.49139
v 0.04439 0.22634 -0.49147
v -0.04268 0.22643 -0.49139
v 0.05574 0.28332 0.05028
v 0.05561 0.2833 -0.09729
v 0.0509 0.28656 0.05028
v 0.05077 0.28654 -0.09729
v 0.0444 0.23243 -0.49147
v -0.04267 0.23252 -0.4914
v 0.05544 0.26661 -0.28552
v 0.05545 0.28327 -0.28552
v 0.05868 0.27843 -0.28552
v 0.05981 0.2666 -0.28552
v 0.05981 0.27271 -0.28552
v 0.05972 0.18156 -0.28551
v 0.05535 0.18156 -0.28551
v -0.05346 0.18167 -0.28541
v -0.05783 0.18168 -0.28541
v -0.05337 0.26672 -0.28542
v -0.05775 0.26672 -0.28542
v -0.0566 0.27854 -0.28542
v -0.05336 0.28338 -0.28543
v -0.05774 0.27283 -0.28542
v 0.0444 0.23853 -0.49147
v -0.04267 0.23862 -0.4914
v -0.0571 0.26612 -0.09736
v -0.05542 0.26612 -0.09736
v -0.05711 0.26612 -0.11357
v -0.05396 0.26611 -0.11499
v -0.04074 0.2661 -0.11359
v -0.04073 0.2661 -0.09737
v -0.04078 0.26609 -0.1651
v -0.05715 0.26611 -0.16509
v 0.05539 0.27711 -0.48868
v 0.05289 0.28086 -0.48868
v 0.0577 0.27806 -0.48506
v 0.05466 0.28262 -0.48506
v 0.05636 0.27237 -0.48865
v 0.05636 0.26658 -0.48864
v 0.05529 0.28325 -0.48075
v 0.05064 0.28652 -0.25543
v 0.05852 0.2784 -0.48075
v 0.05531 0.28325 -0.45502
v 0.05854 0.2784 -0.45502
v 0.05965 0.27269 -0.48075
v 0.05967 0.27269 -0.45502
v 0.05879 0.2726 -0.48503
v 0.05964 0.26658 -0.48075
v 0.05966 0.26658 -0.45502
v 0.05879 0.26658 -0.48502
v 0.05962 0.24374 -0.48075
v 0.05958 0.18153 -0.45501
v 0.05956 0.18153 -0.48074
v 0.05877 0.24374 -0.48501
v 0.0587 0.18153 -0.485
v 0.05634 0.24375 -0.48863
v 0.05628 0.18153 -0.48862
v -0.05114 0.28096 -0.48859
v -0.05365 0.27722 -0.48859
v -0.0529 0.28273 -0.48497
v -0.04868 0.28659 -0.48066
v -0.05463 0.27248 -0.48855
v -0.05595 0.27818 -0.48496
v -0.05352 0.28336 -0.48065
v -0.04849 0.28662 -0.25535
v -0.05464 0.26669 -0.48855
v -0.05706 0.27272 -0.48493
v -0.05676 0.27852 -0.48065
v -0.0535 0.28336 -0.45492
v -0.05674 0.27852 -0.45492
v -0.05791 0.2728 -0.48065
v -0.05788 0.27281 -0.45492
v -0.05706 0.26669 -0.48493
v -0.05791 0.2667 -0.48065
v -0.05789 0.2667 -0.45492
v -0.05467 0.24386 -0.48854
v -0.05709 0.24386 -0.48491
v -0.05474 0.18165 -0.48853
v -0.05715 0.18165 -0.48491
v -0.05794 0.24386 -0.48065
v -0.058 0.18165 -0.48064
v -0.05798 0.18165 -0.45491
v 0.05481 0.28322 -0.42475
v -0.05345 0.28322 -0.42475
v 0.05998 0.1816 0.0194
v 0.05999 0.19088 0.02379
v 0.0012 0.18166 0.01945
v 0.00122 0.19094 0.02384
v -0.04296 0.28772 -0.48066
v 0.00108 0.2877 -0.25539
v -0.04277 0.28775 -0.25535
v 0.04493 0.28766 -0.25543
v 0.00119 0.28772 -0.1214
v 0.02887 0.28769 -0.12142
v -0.02648 0.28775 -0.12138
v 0.04506 0.28768 -0.09728
v 0.02889 0.2877 -0.09727
v -0.04264 0.28777 -0.09721
v -0.02646 0.28775 -0.09722
v -0.04835 0.28664 -0.0972
v -0.0532 0.28341 -0.0972
v -0.05333 0.28339 -0.25534
v -0.05644 0.27857 -0.09719
v -0.05657 0.27855 -0.25534
v -0.05758 0.27285 -0.09719
v -0.05771 0.27283 -0.25534
v -0.05335 0.28338 -0.27441
v -0.05767 0.26673 -0.19583
v -0.05772 0.26673 -0.25534
v -0.05759 0.26675 -0.09719
v -0.05765 0.26674 -0.16669
v -0.05765 0.26609 -0.17078
v -0.05765 0.2642 -0.17448
v -0.05766 0.26127 -0.17741
v -0.05767 0.25758 -0.17929
v -0.05781 0.18168 -0.25532
v -0.05767 0.25348 -0.17994
v -0.0577 0.24023 -0.19583
v -0.05767 0.24939 -0.17929
v -0.05768 0.24569 -0.17741
v -0.05768 0.24276 -0.17448
v -0.05767 0.24088 -0.17078
v -0.05767 0.24023 -0.16669
v -0.05767 0.1817 -0.09718
v -0.0576 0.24024 -0.08797
v -0.0576 0.23524 -0.08145
v -0.0576 0.2321 -0.07386
v -0.0576 0.23103 -0.06572
v -0.05752 0.23104 0.01891
v -0.05757 0.18172 0.0195
v -0.05752 0.23211 0.02706
v -0.05751 0.23525 0.03465
v -0.0575 0.24026 0.04116
v -0.05748 0.24677 0.04616
v -0.05747 0.25436 0.04931
v -0.05741 0.26677 0.11595
v -0.05752 0.18172 0.08507
v -0.05747 0.26251 0.05038
v -0.0572 0.18177 0.45352
v -0.05746 0.26677 0.05038
v -0.0574 0.27288 0.11595
v -0.05745 0.27287 0.05038
v -0.05631 0.27859 0.05038
v -0.05626 0.27859 0.11594
v -0.05307 0.28343 0.05037
v -0.05302 0.28343 0.11594
v -0.04823 0.28666 0.05037
v -0.04817 0.28667 0.11594
v -0.04251 0.28779 0.05036
v -0.04246 0.2878 0.11593
v 0.00139 0.28775 0.11589
v 0.00134 0.28774 0.05032
v 0.04519 0.2877 0.05029
v 0.00169 0.2878 0.46326
v 0.04524 0.28771 0.11586
v 0.05095 0.28657 0.11585
v 0.05579 0.28332 0.11585
v 0.05902 0.27848 0.11585
v 0.05897 0.27847 0.05028
v 0.05884 0.27845 -0.09729
v 0.05548 0.28328 -0.25543
v 0.05871 0.27843 -0.25544
v 0.05546 0.28327 -0.27451
v 0.05997 0.27274 -0.09729
v 0.05984 0.27272 -0.25544
v 0.0601 0.27276 0.05028
v 0.05997 0.26663 -0.09729
v 0.05983 0.26661 -0.25544
v 0.05975 0.18156 -0.25542
v 0.05988 0.18158 -0.09728
v 0.06009 0.26665 0.05028
v 0.06003 0.19089 0.06067
v 0.06016 0.27276 0.11585
v 0.06015 0.26666 0.11585
v 0.06004 0.18161 0.08497
v 0.06035 0.18165 0.45342
v -0.05343 0.18167 -0.25533
v -0.05335 0.26672 -0.25534
v 0.05546 0.26661 -0.25543
v 0.05538 0.18157 -0.25542
v 0.02703 0.26762 -0.4479
v 0.03252 0.26674 -0.44791
v 0.00107 0.26765 -0.44788
v 0.03748 0.26421 -0.44791
v -0.02489 0.26767 -0.44786
v 0.0414 0.26028 -0.44792
v -0.03038 0.26681 -0.44786
v 0.04392 0.25532 -0.44792
v -0.03534 0.26429 -0.44785
v 0.04479 0.24983 -0.44792
v -0.03928 0.26036 -0.44785
v 0.04475 0.21338 -0.44791
v 0.04473 0.19679 -0.44791
v -0.0418 0.25541 -0.44784
v -0.04268 0.24992 -0.44784
v -0.04272 0.21347 -0.44784
v -0.04273 0.19688 -0.44784
v 0.05869 0.27843 -0.27451
v 0.05982 0.27271 -0.27451
v 0.05982 0.2666 -0.27451
v 0.05973 0.18156 -0.2745
v 0.05544 0.28327 -0.30459
v 0.05867 0.27842 -0.30459
v 0.0598 0.27271 -0.30459
v 0.05979 0.2666 -0.30459
v 0.05971 0.18155 -0.30458
v 0.05541 0.28327 -0.33468
v 0.05864 0.27842 -0.33468
v 0.05977 0.2727 -0.33468
v 0.05977 0.2666 -0.33468
v 0.05968 0.18155 -0.33467
v 0.05539 0.28326 -0.36476
v 0.05862 0.27841 -0.36476
v 0.05975 0.2727 -0.36476
v 0.05974 0.26659 -0.36476
v 0.05965 0.18155 -0.36475
v 0.05536 0.28326 -0.39485
v 0.05859 0.27841 -0.39485
v 0.05533 0.28325 -0.42493
v 0.05857 0.27841 -0.42493
v 0.05972 0.2727 -0.39485
v 0.05972 0.26659 -0.39485
v 0.05963 0.18154 -0.39484
v 0.0597 0.27269 -0.42493
v 0.05969 0.26658 -0.42493
v 0.0596 0.18154 -0.42492
v -0.04298 0.24274 -0.17449
v -0.04298 0.24086 -0.17079
v -0.04298 0.24021 -0.1667
v -0.04298 0.24568 -0.17742
v -0.03758 0.24022 -0.0972
v -0.04298 0.24937 -0.1793
v -0.04298 0.25347 -0.17995
v -0.04297 0.25756 -0.17931
v -0.04297 0.26126 -0.17742
v -0.04296 0.26419 -0.17449
v -0.04295 0.26607 -0.1708
v -0.04295 0.26672 -0.1667
v -0.04289 0.26673 -0.0972
v -0.05795 0.18166 -0.42482
v -0.05786 0.2667 -0.42483
v -0.05786 0.27281 -0.42483
v -0.05672 0.27852 -0.42483
v -0.05348 0.28336 -0.42484
v -0.05345 0.28337 -0.39475
v -0.05669 0.27853 -0.39475
v -0.05783 0.27282 -0.39475
v -0.05784 0.26671 -0.39475
v -0.05793 0.18166 -0.39474
v -0.05342 0.28337 -0.36467
v -0.05667 0.27853 -0.36466
v -0.05781 0.27282 -0.36466
v -0.05781 0.26671 -0.36466
v -0.0579 0.18166 -0.36465
v -0.0534 0.28337 -0.33458
v -0.05664 0.27853 -0.33458
v -0.05778 0.27282 -0.33458
v -0.05779 0.26671 -0.33458
v -0.05787 0.18167 -0.33457
v -0.05337 0.28338 -0.3045
v -0.05661 0.27854 -0.30449
v -0.05659 0.27854 -0.27441
v -0.05776 0.27283 -0.30449
v -0.05776 0.26672 -0.30449
v -0.05773 0.27283 -0.27441
v -0.05785 0.18167 -0.30448
v -0.05774 0.26672 -0.27441
v -0.05782 0.18168 -0.2744
v -0.05712 0.24131 -0.09735
v -0.05714 0.24131 -0.11357
v -0.04452 0.18942 -0.2553
v -0.05107 0.18942 -0.25529
v 0.04615 0.18933 -0.25537
v 0.05271 0.18932 -0.25538
v -0.05399 0.2413 -0.11499
v -0.05718 0.2413 -0.16509
v 0.05521 0.18154 -0.455
v 0.05529 0.26658 -0.45501
v 0.05523 0.18154 -0.42492
v 0.05532 0.26659 -0.42493
v 0.05526 0.18155 -0.39483
v 0.05534 0.26659 -0.39484
v 0.05528 0.18155 -0.36475
v 0.05537 0.2666 -0.36476
v 0.05531 0.18155 -0.33466
v 0.05539 0.2666 -0.33467
v 0.05533 0.18156 -0.30458
v 0.05542 0.2666 -0.30459
v 0.05536 0.18156 -0.27449
v 0.05544 0.26661 -0.2745
v -0.05336 0.26672 -0.27441
v -0.05345 0.18167 -0.2744
v -0.05352 0.26669 -0.45492
v -0.0536 0.18165 -0.45491
v -0.05349 0.2667 -0.42484
v -0.05358 0.18165 -0.42482
v -0.05347 0.2667 -0.39475
v -0.05355 0.18166 -0.39474
v -0.05344 0.26671 -0.36467
v -0.05353 0.18166 -0.36465
v -0.05342 0.26671 -0.33458
v -0.0535 0.18166 -0.33457
v -0.05339 0.26671 -0.3045
v -0.05348 0.18167 -0.30448
v 0.05311 0.17958 -0.13474
v 0.05322 0.28096 -0.13475
v 0.05313 0.17958 -0.11005
v 0.05318 0.23247 -0.11006
v 0.05347 0.17963 0.28889
v 0.05352 0.23252 0.28888
v -0.04979 0.22531 0.28888
v -0.04945 0.22526 -0.08412
v -0.04974 0.17963 0.28889
v -0.0494 0.17958 -0.11005
v -0.04948 0.28096 -0.13475
v -0.04938 0.17958 -0.13474
v 0.04048 0.2714 0.05029
v 0.04036 0.27138 -0.09728
v -0.03746 0.23823 0.04615
v -0.03747 0.23172 0.04115
v -0.03745 0.24583 0.04929
v -0.03748 0.22672 0.03463
v -0.03744 0.25397 0.05036
v -0.03749 0.22357 0.02704
v -0.03743 0.25823 0.05036
v -0.0375 0.2225 0.0189
v -0.03757 0.22249 -0.06573
v -0.03757 0.22356 -0.07388
v -0.03758 0.2267 -0.08147
v -0.03758 0.2317 -0.08799
v -0.03742 0.27188 0.05036
v 0.04032 0.23092 -0.09727
v 0.02883 0.23093 -0.09726
v -0.02791 0.26672 -0.09722
v -0.04075 0.24129 -0.09737
v -0.05544 0.24131 -0.09735
v -0.04081 0.24128 -0.1651
v 0.0101 0.12049 0.46919
v 0.01809 0.12379 0.46918
v 0.02495 0.12905 0.46917
v 0.03022 0.1359 0.46917
v 0.03354 0.14389 0.46917
v 0.03467 0.15246 0.46916
v 0.03471 0.18168 0.46916
v -0.01989 0.20723 -0.44786
v -0.01989 0.21344 -0.44786
v -0.02651 0.26246 -0.12137
v 0.02884 0.2624 -0.12142
v 0.01428 0.19682 -0.44788
v 0.01429 0.21341 -0.44789
v 0.0137 0.28775 0.44207
v -0.03153 0.18175 0.46922
v -0.03156 0.15252 0.46922
v -0.03044 0.14395 0.46922
v -0.02714 0.13596 0.46922
v -0.02188 0.1291 0.46921
v -0.01503 0.12383 0.46921
v -0.00705 0.12051 0.4692
v 0.00152 0.11937 0.4692
v -0.00997 0.28775 0.44207
v 0.00126 0.18166 0.08502
v 0.00125 0.19095 0.06072
v -0.01501 0.20571 -0.44786
v -0.01307 0.20462 -0.44786
v -0.01174 0.20282 -0.44786
v -0.01128 0.20064 -0.44786
v -0.01128 0.19685 -0.44786
v 0.037 0.1968 -0.4479
v 0.03701 0.21339 -0.44791
v -0.03856 0.19688 -0.44784
v -0.03854 0.21346 -0.44784
v 0.04044 0.23094 0.0503
v 0.04044 0.23094 0.12468
v 0.04048 0.2714 0.12468
v 0.04049 0.27823 0.05029
v 0.04049 0.27823 0.12468
v -0.03864 0.18251 -0.05203
v -0.03864 0.18428 -0.06522
v -0.03864 0.18776 -0.08252
v -0.03864 0.18252 0.03598
v -0.03864 0.19698 -0.09677
v -0.03864 0.1843 0.04916
v -0.03864 0.21063 -0.11169
v -0.03864 0.18972 0.06321
v -0.03864 0.19853 0.07555
v -0.03864 0.21033 0.08531
v -0.03864 0.22441 0.0916
v -0.03864 0.23791 0.09371
v -0.03864 0.244 0.09378
v -0.03864 0.25766 0.09378
v -0.04452 0.18164 -0.25529
v 0.04614 0.18155 -0.25537
v -0.03694 0.18175 0.46922
v 0.00159 0.18172 0.46919
v 0.00158 0.18171 0.45806
v 0.00111 0.18164 -0.09723
v 0.04011 0.18168 0.46915
v -0.05106 0.19841 -0.25529
v 0.05272 0.1983 -0.25538
v -0.03622 0.2783 0.05036
v -0.03742 0.27188 0.12474
v -0.03622 0.2783 0.12474
v 0.001 0.19684 -0.44787
v 0.04616 0.19831 -0.25537
v -0.04451 0.1984 -0.2553
v -0.04076 0.24129 -0.11358
v -0.03105 0.26836 -0.25532
v -0.03435 0.26668 -0.25531
v -0.02519 0.26931 -0.25532
v 0.0009 0.26929 -0.25534
v -0.03644 0.26561 -0.25531
v 0.02699 0.26926 -0.25537
v -0.04073 0.26134 -0.25531
v 0.03284 0.26829 -0.25537
v -0.04348 0.25594 -0.25531
v 0.03614 0.26661 -0.25537
v -0.04445 0.25009 -0.2553
v -0.04446 0.24385 -0.2553
v 0.03823 0.26554 -0.25538
v 0.04251 0.26125 -0.25538
v 0.04525 0.25585 -0.25538
v 0.0462 0.25 -0.25538
v 0.04621 0.24376 -0.25538
v 0.00133 0.27826 0.05033
v 0.00133 0.27826 0.12471
v 0.00187 0.28328 -0.4247
v 0.00187 0.28776 0.44208
vt 0.770989 0.449202
vt 0.770989 0.448958
vt 0.381085 0.818842
vt 0.38084 0.803217
vt 0.374493 0.818842
vt 0.374493 0.803217
vt 0.368389 0.803217
vt 0.368145 0.818842
vt 0.853999 0.422529
vt 0.847652 0.422529
vt 0.847652 0.432844
vt 0.840815 0.428449
vt 0.841304 0.422773
vt 0.834956 0.427473
vt 0.834956 0.422773
vt 0.828608 0.422529
vt 0.828608 0.428205
vt 0.855953 0.439924
vt 0.854488 0.43968
vt 0.855953 0.443342
vt 0.860347 0.422529
vt 0.857418 0.447493
vt 0.862789 0.439924
vt 0.858882 0.449446
vt 0.860836 0.449446
vt 0.869625 0.43968
vt 0.866207 0.422346
vt 0.872555 0.422101
vt 0.876949 0.438887
vt 0.905271 0.418439
vt 0.909665 0.43675
vt 0.866207 0.448225
vt 0.863277 0.448958
vt 0.82226 0.422101
vt 0.821772 0.432356
vt 0.815912 0.421613
vt 0.813959 0.439192
vt 0.814936 0.439192
vt 0.812983 0.442793
vt 0.809564 0.420881
vt 0.811029 0.446699
vt 0.806635 0.438154
vt 0.809564 0.448225
vt 0.807611 0.447493
vt 0.79931 0.437239
vt 0.803217 0.420148
vt 0.797357 0.419111
vt 0.792474 0.436018
vt 0.764641 0.414045
vt 0.759758 0.432356
vt 0.80224 0.44554
vt 0.804682 0.446699
vt 0.176855 0.807123
vt 0.163793 0.806146
vt 0.182226 0.82226
vt 0.160253 0.810053
vt 0.153417 0.817866
vt 0.153417 0.809564
vt 0.147801 0.810053
vt 0.12595 0.82226
vt 0.144383 0.806146
vt 0.131321 0.806635
vt 0.800775 0.958007
vt 0.79931 0.958495
vt 0.800775 0.960448
vt 0.800287 0.960936
vt 0.797845 0.959471
vt 0.802728 0.960936
vt 0.802728 0.958007
vt 0.811029 0.965819
vt 0.825678 0.961913
vt 0.806146 0.966796
vt 0.82519 0.966308
vt 0.825678 0.959471
vt 0.839839 0.967772
vt 0.848628 0.963866
vt 0.848628 0.960936
vt 0.844234 0.969237
vt 0.850581 0.963866
vt 0.850581 0.960936
vt 0.847163 0.970214
vt 0.851558 0.963866
vt 0.852046 0.961913
vt 0.848628 0.969726
vt 0.848628 0.970702
vt 0.852046 0.972167
vt 0.851558 0.968749
vt 0.855953 0.973632
vt 0.852046 0.964843
vt 0.853511 0.962889
vt 0.853023 0.968749
vt 0.859371 0.975585
vt 0.853023 0.965819
vt 0.854976 0.964354
vt 0.853999 0.968261
vt 0.863277 0.97705
vt 0.854488 0.968261
vt 0.856441 0.966796
vt 0.861812 0.978027
vt 0.86523 0.975097
vt 0.883297 0.991211
vt 0.881832 0.992187
vt 0.88525 0.989257
vt 0.801752 0.966796
vt 0.803705 0.967284
vt 0.801752 0.967284
vt 0.798822 0.965331
vt 0.798334 0.968749
vt 0.79931 0.961425
vt 0.796381 0.960448
vt 0.797357 0.964843
vt 0.793939 0.969726
vt 0.798334 0.962401
vt 0.794427 0.962889
vt 0.796869 0.964843
vt 0.790521 0.971191
vt 0.796381 0.964354
vt 0.784661 0.969726
vt 0.789056 0.969726
vt 0.786126 0.971679
vt 0.762688 0.97998
vt 0.764153 0.982421
vt 0.787103 0.973144
vt 0.76513 0.983398
vt 0.757805 0.982421
vt 0.754387 0.983886
vt 0.758782 0.984863
vt 0.754875 0.986328
vt 0.755364 0.987304
vt 0.75927 0.985839
vt 0.893063 0.99414
vt 0.889157 0.992187
vt 0.891598 0.996582
vt 0.88818 0.994629
vt 0.887692 0.995605
vt 0.89111 0.997559
vt 0.345439 0.761223
vt 0.345927 0.761223
vt 0.345439 0.715323
vt 0.345927 0.715323
vt 0.317606 0.744133
vt 0.318094 0.744133
vt 0.317606 0.697745
vt 0.318094 0.697745
vt 0.309061 0.744133
vt 0.309549 0.744133
vt 0.309061 0.698233
vt 0.309549 0.698233
vt 0.326151 0.744133
vt 0.32664 0.744133
vt 0.326151 0.697745
vt 0.32664 0.697745
vt 0.063387 0.481613
vt 0.063875 0.481613
vt 0.063387 0.435286
vt 0.063875 0.435286
vt 0.385235 0.941893
vt 0.404279 0.942381
vt 0.385723 0.918455
vt 0.404767 0.937986
vt 0.412824 0.944334
vt 0.413556 0.93994
vt 0.405011 0.925779
vt 0.405255 0.918943
vt 0.4138 0.925779
vt 0.414045 0.918943
vt 0.414289 0.912595
vt 0.412091 0.912107
vt 0.408429 0.913572
vt 0.411115 0.912107
vt 0.410138 0.91113
vt 0.409406 0.910154
vt 0.405255 0.907712
vt 0.408673 0.907712
vt 0.385723 0.895505
vt 0.405499 0.896969
vt 0.376202 0.918455
vt 0.376202 0.904782
vt 0.375958 0.932127
vt 0.376202 0.935057
vt 0.377667 0.937986
vt 0.37962 0.93994
vt 0.382305 0.941404
vt 0.37669 0.901852
vt 0.378155 0.899411
vt 0.380108 0.897458
vt 0.382794 0.895993
vt 0.404523 0.895505
vt 0.409894 0.888668
vt 0.407941 0.887692
vt 0.800775 0.955565
vt 0.803217 0.955565
vt 0.800287 0.953124
vt 0.826167 0.956542
vt 0.803217 0.952635
vt 0.79931 0.950682
vt 0.826167 0.953612
vt 0.802728 0.949705
vt 0.849117 0.958007
vt 0.851558 0.958495
vt 0.852535 0.956053
vt 0.849605 0.955077
vt 0.826655 0.950682
vt 0.061922 0.481613
vt 0.061922 0.435286
vt 0.324686 0.744133
vt 0.324686 0.697745
vt 0.472884 0.017853
vt 0.469222 0.071627
vt 0.499008 0.019593
vt 0.496567 0.073458
vt 0.523911 0.074313
vt 0.524888 0.020417
vt 0.307596 0.744133
vt 0.307596 0.698233
vt 0.316141 0.744133
vt 0.316141 0.697745
vt 0.911618 0.958007
vt 0.912595 0.954588
vt 0.871578 0.936521
vt 0.872066 0.934568
vt 0.866207 0.932615
vt 0.863277 0.931639
vt 0.869137 0.933592
vt 0.783197 0.931639
vt 0.792474 0.92822
vt 0.789056 0.92822
vt 0.783197 0.929685
vt 0.740226 0.943846
vt 0.740715 0.946776
vt 0.786126 0.929197
vt 0.343974 0.761223
vt 0.343974 0.715323
vt 0.918455 0.933592
vt 0.918943 0.930662
vt 0.875973 0.917966
vt 0.875973 0.916013
vt 0.870113 0.915036
vt 0.867183 0.915036
vt 0.873043 0.915525
vt 0.781243 0.913572
vt 0.790033 0.911618
vt 0.787103 0.91113
vt 0.781243 0.911618
vt 0.736808 0.920408
vt 0.736808 0.923338
vt 0.784173 0.911618
vt 0.922361 0.910154
vt 0.922361 0.907224
vt 0.878414 0.899899
vt 0.878414 0.897946
vt 0.872066 0.897946
vt 0.875484 0.897946
vt 0.869137 0.897946
vt 0.780755 0.895505
vt 0.789544 0.895016
vt 0.786615 0.89404
vt 0.780755 0.89404
vt 0.783685 0.89404
vt 0.735343 0.897946
vt 0.735343 0.900388
vt 0.878903 0.879879
vt 0.875484 0.880367
vt 0.872555 0.880367
vt 0.923826 0.887204
vt 0.923826 0.884274
vt 0.878903 0.881344
vt 0.869625 0.880856
vt 0.781243 0.878414
vt 0.790521 0.878414
vt 0.787591 0.876949
vt 0.781243 0.876461
vt 0.73632 0.876461
vt 0.735832 0.878903
vt 0.784661 0.876949
vt 0.922849 0.864742
vt 0.922361 0.8623
vt 0.877438 0.863765
vt 0.877438 0.861812
vt 0.871578 0.863277
vt 0.868648 0.864254
vt 0.874508 0.862789
vt 0.783197 0.860836
vt 0.792474 0.861812
vt 0.789544 0.860347
vt 0.783685 0.859371
vt 0.786615 0.859859
vt 0.738762 0.856441
vt 0.738273 0.858394
vt 0.144383 0.798822
vt 0.131321 0.798334
vt 0.176855 0.798334
vt 0.163793 0.798822
vt 0.380596 0.823725
vt 0.374493 0.823725
vt 0.368389 0.823725
vt 0.347392 0.761223
vt 0.347392 0.715323
vt 0.160375 0.794916
vt 0.153417 0.795404
vt 0.147923 0.794916
vt 0.319559 0.744133
vt 0.319559 0.697745
vt 0.311014 0.744133
vt 0.311014 0.698233
vt 0.602527 0.84228
vt 0.602527 0.920896
vt 0.605457 0.842769
vt 0.605457 0.920896
vt 0.328104 0.744133
vt 0.328104 0.697745
vt 0.786126 0.843745
vt 0.795404 0.844722
vt 0.792474 0.843745
vt 0.786615 0.841792
vt 0.789544 0.842769
vt 0.741691 0.837397
vt 0.741203 0.839351
vt 0.919919 0.843745
vt 0.919431 0.841792
vt 0.874996 0.846187
vt 0.874508 0.844234
vt 0.868648 0.846675
vt 0.865719 0.847652
vt 0.871578 0.845698
vt 0.065401 0.481613
vt 0.065401 0.435286
vt 0.117588 0.631825
vt 0.116855 0.631825
vt 0.117832 0.640126
vt 0.1171 0.641591
vt 0.109958 0.641102
vt 0.109226 0.632313
vt 0.108921 0.667959
vt 0.117527 0.668447
vt 0.796869 0.957518
vt 0.798334 0.956053
vt 0.795404 0.955565
vt 0.797357 0.953612
vt 0.794916 0.958983
vt 0.792962 0.960936
vt 0.795892 0.951659
vt 0.802728 0.830561
vt 0.793939 0.953612
vt 0.793939 0.937986
vt 0.791986 0.940428
vt 0.792474 0.955077
vt 0.789056 0.941893
vt 0.793451 0.95703
vt 0.790521 0.956542
vt 0.786126 0.943358
vt 0.791498 0.958983
vt 0.780267 0.961913
vt 0.744621 0.961425
vt 0.749992 0.975097
vt 0.781243 0.964843
vt 0.751457 0.978515
vt 0.782708 0.967284
vt 0.75341 0.981445
vt 0.853511 0.959471
vt 0.854976 0.960936
vt 0.854488 0.95703
vt 0.853511 0.953124
vt 0.856441 0.962889
vt 0.856441 0.958983
vt 0.856441 0.955077
vt 0.858882 0.833003
vt 0.858394 0.964843
vt 0.857906 0.960936
vt 0.857906 0.95703
vt 0.860347 0.941404
vt 0.8623 0.944334
vt 0.859371 0.958983
vt 0.864742 0.946287
vt 0.859859 0.962889
vt 0.861324 0.960936
vt 0.867183 0.948241
vt 0.867183 0.972655
vt 0.869137 0.970214
vt 0.89404 0.992187
vt 0.896481 0.988769
vt 0.870602 0.967284
vt 0.898434 0.985351
vt 0.905759 0.971679
vt 0.115329 0.812983
vt 0.115329 0.791498
vt 0.192846 0.791498
vt 0.192846 0.812983
vt 0.753899 0.675771
vt 0.75634 0.672353
vt 0.722648 0.674306
vt 0.725578 0.670888
vt 0.850093 0.952147
vt 0.83105 0.830073
vt 0.854976 0.830561
vt 0.807123 0.829096
vt 0.834956 0.757805
vt 0.821284 0.757317
vt 0.84814 0.757805
vt 0.813959 0.744621
vt 0.82226 0.744621
vt 0.811518 0.744621
vt 0.855953 0.745109
vt 0.84814 0.744133
vt 0.858882 0.745598
vt 0.809076 0.743645
vt 0.861324 0.744621
vt 0.861812 0.830073
vt 0.863765 0.744133
vt 0.864742 0.828608
vt 0.86523 0.743645
vt 0.867672 0.827631
vt 0.864254 0.840815
vt 0.867672 0.795892
vt 0.870113 0.827143
vt 0.86816 0.743156
vt 0.86816 0.780267
vt 0.86816 0.78222
vt 0.869137 0.784173
vt 0.869625 0.785638
vt 0.870602 0.786615
vt 0.915036 0.82226
vt 0.872066 0.787103
vt 0.880367 0.794427
vt 0.873531 0.786615
vt 0.874508 0.785638
vt 0.874996 0.784173
vt 0.875484 0.781732
vt 0.875973 0.779778
vt 0.904294 0.740715
vt 0.873531 0.738273
vt 0.875484 0.734367
vt 0.876461 0.730461
vt 0.876949 0.725578
vt 0.876949 0.680654
vt 0.905759 0.679678
vt 0.876461 0.676748
vt 0.875484 0.672842
vt 0.87402 0.668935
vt 0.871578 0.666494
vt 0.869625 0.664052
vt 0.864742 0.627918
vt 0.9082 0.644032
vt 0.867183 0.664052
vt 0.909665 0.447249
vt 0.866207 0.663564
vt 0.862789 0.628407
vt 0.864742 0.664052
vt 0.862789 0.664052
vt 0.860836 0.628895
vt 0.860347 0.664052
vt 0.858882 0.628895
vt 0.857418 0.664052
vt 0.857418 0.628895
vt 0.854976 0.664052
vt 0.855464 0.628407
vt 0.833003 0.628407
vt 0.833491 0.664052
vt 0.812494 0.664541
vt 0.834468 0.442549
vt 0.811029 0.628407
vt 0.810541 0.664052
vt 0.808588 0.628407
vt 0.8081 0.664052
vt 0.806146 0.627918
vt 0.803705 0.62743
vt 0.804682 0.662587
vt 0.804682 0.741691
vt 0.79931 0.82812
vt 0.796869 0.825678
vt 0.796869 0.837886
vt 0.800775 0.740226
vt 0.793451 0.824213
vt 0.801263 0.661611
vt 0.796381 0.73925
vt 0.790521 0.823725
vt 0.745598 0.819819
vt 0.750969 0.737297
vt 0.797357 0.660634
vt 0.75634 0.651845
vt 0.801263 0.625965
vt 0.798334 0.6245
vt 0.75341 0.638173
vt 0.759758 0.442305
vt 0.916013 0.824213
vt 0.87109 0.828608
vt 0.790033 0.825678
vt 0.745109 0.821284
vt 0.440413 0.163671
vt 0.438948 0.140477
vt 0.437483 0.163915
vt 0.435774 0.140721
vt 0.453108 0.139622
vt 0.434309 0.164159
vt 0.454085 0.162938
vt 0.4326 0.140904
vt 0.468001 0.162206
vt 0.431379 0.164342
vt 0.467025 0.138951
vt 0.429426 0.141148
vt 0.470199 0.13889
vt 0.428205 0.164586
vt 0.470931 0.162084
vt 0.426252 0.141392
vt 0.473373 0.138768
vt 0.425275 0.164953
vt 0.473861 0.162084
vt 0.423078 0.141758
vt 0.476302 0.138768
vt 0.40379 0.143651
vt 0.476791 0.161962
vt 0.405744 0.166845
vt 0.394757 0.144505
vt 0.39671 0.167699
vt 0.479476 0.138768
vt 0.47972 0.161962
vt 0.482406 0.138768
vt 0.48265 0.161962
vt 0.501938 0.161962
vt 0.501938 0.138768
vt 0.510727 0.161962
vt 0.510727 0.138768
vt 0.793939 0.838374
vt 0.791009 0.837397
vt 0.787591 0.836909
vt 0.742668 0.832026
vt 0.793451 0.854976
vt 0.790521 0.855464
vt 0.787591 0.854976
vt 0.784173 0.854488
vt 0.73925 0.850581
vt 0.791009 0.871578
vt 0.788079 0.872066
vt 0.78515 0.871578
vt 0.781732 0.871578
vt 0.736808 0.870602
vt 0.789544 0.88818
vt 0.786615 0.888668
vt 0.783685 0.889157
vt 0.780755 0.889157
vt 0.735343 0.892087
vt 0.789544 0.904782
vt 0.786615 0.905759
vt 0.791009 0.921384
vt 0.788079 0.922849
vt 0.783685 0.906247
vt 0.780755 0.906735
vt 0.735832 0.91406
vt 0.78515 0.923338
vt 0.78222 0.924314
vt 0.738762 0.93701
vt 0.715323 0.958495
vt 0.72216 0.963378
vt 0.723136 0.960936
vt 0.720206 0.965331
vt 0.715812 0.958495
vt 0.713858 0.959471
vt 0.723624 0.957518
vt 0.712882 0.916013
vt 0.705557 0.923826
vt 0.717765 0.966308
vt 0.712394 0.95996
vt 0.715812 0.966796
vt 0.709952 0.960448
vt 0.714347 0.966796
vt 0.707511 0.961913
vt 0.71337 0.966796
vt 0.705557 0.964354
vt 0.712882 0.967284
vt 0.704581 0.965331
vt 0.705069 0.968749
vt 0.712882 0.967772
vt 0.707022 0.972167
vt 0.739738 0.991699
vt 0.734367 0.997559
vt 0.914548 0.947752
vt 0.873531 0.929197
vt 0.870602 0.92822
vt 0.867672 0.927244
vt 0.86523 0.925291
vt 0.86816 0.9082
vt 0.87109 0.909665
vt 0.87402 0.910154
vt 0.876949 0.910642
vt 0.920408 0.924314
vt 0.869625 0.89111
vt 0.872555 0.892087
vt 0.875484 0.892575
vt 0.878903 0.892575
vt 0.923338 0.900876
vt 0.869625 0.87402
vt 0.872555 0.874996
vt 0.875484 0.874996
vt 0.878414 0.874508
vt 0.923826 0.877926
vt 0.867672 0.857418
vt 0.870602 0.857906
vt 0.867183 0.841304
vt 0.873531 0.857418
vt 0.876461 0.856441
vt 0.870113 0.840327
vt 0.921873 0.856441
vt 0.873043 0.839351
vt 0.918455 0.835932
vt 0.130589 0.631825
vt 0.130345 0.640126
vt 0.833003 0.207129
vt 0.833979 0.207129
vt 0.836421 0.206641
vt 0.833003 0.081454
vt 0.836421 0.081393
vt 0.970214 0.200354
vt 0.972167 0.074618
vt 0.968749 0.074618
vt 0.968749 0.200354
vt 0.966796 0.199866
vt 0.131077 0.641591
vt 0.130711 0.668447
vt 0.744133 0.957518
vt 0.786126 0.940916
vt 0.738762 0.93408
vt 0.78222 0.922361
vt 0.73632 0.91113
vt 0.780755 0.904782
vt 0.735832 0.889157
vt 0.780755 0.887204
vt 0.737297 0.868648
vt 0.78222 0.870113
vt 0.739738 0.848628
vt 0.784661 0.852535
vt 0.743645 0.830561
vt 0.788568 0.834956
vt 0.872555 0.837886
vt 0.917478 0.833979
vt 0.867672 0.945799
vt 0.907224 0.968261
vt 0.873531 0.927244
vt 0.915525 0.944334
vt 0.876949 0.909177
vt 0.920408 0.920896
vt 0.878414 0.89111
vt 0.923338 0.897946
vt 0.877926 0.873043
vt 0.923338 0.875484
vt 0.875973 0.855464
vt 0.921384 0.853999
vt 0.688467 0.020875
vt 0.687979 0.074679
vt 0.701163 0.020814
vt 0.701163 0.04886
vt 0.913083 0.020814
vt 0.913083 0.04886
vt 0.085421 0.045869
vt 0.281961 0.028077
vt 0.083285 0.021638
vt 0.295144 0.003571
vt 0.306131 0.058351
vt 0.309305 0.004547
vt 0.615223 0.842769
vt 0.615223 0.921873
vt 0.346904 0.762688
vt 0.344462 0.762688
vt 0.319071 0.745109
vt 0.31663 0.745598
vt 0.310526 0.745598
vt 0.308084 0.745598
vt 0.327616 0.745109
vt 0.325175 0.745598
vt 0.064852 0.48265
vt 0.062441 0.48265
vt 0.346904 0.713858
vt 0.344462 0.713858
vt 0.319071 0.696768
vt 0.31663 0.696768
vt 0.310526 0.696768
vt 0.308084 0.696768
vt 0.327616 0.696768
vt 0.325175 0.696768
vt 0.064852 0.434248
vt 0.062441 0.434248
vt 0.675283 0.831538
vt 0.665517 0.837397
vt 0.677725 0.838374
vt 0.66747 0.843745
vt 0.663564 0.830561
vt 0.680166 0.84521
vt 0.67333 0.824702
vt 0.669912 0.850581
vt 0.661611 0.823725
vt 0.682607 0.852046
vt 0.671865 0.817866
vt 0.672353 0.856929
vt 0.660634 0.81933
vt 0.685049 0.858394
vt 0.669912 0.812983
vt 0.674795 0.863277
vt 0.704093 0.901364
vt 0.69335 0.906247
vt 0.695791 0.91113
vt 0.706534 0.906735
vt 0.698233 0.916013
vt 0.709464 0.911618
vt 0.701163 0.919431
vt 0.658193 0.810053
vt 0.667959 0.807611
vt 0.665029 0.802728
vt 0.660146 0.800775
vt 0.655263 0.801752
vt 0.652821 0.806146
vt 0.605945 0.923338
vt 0.608386 0.93115
vt 0.637196 0.920896
vt 0.638173 0.926267
vt 0.635731 0.99414
vt 0.638173 0.996582
vt 0.641102 0.997559
vt 0.630848 0.986816
vt 0.640614 0.981445
vt 0.649403 0.994629
vt 0.646962 0.996582
vt 0.644032 0.997559
vt 0.130711 0.623035
vt 0.117588 0.623035
vt 0.130711 0.630848
vt 0.117527 0.630848
vt 0.117527 0.677236
vt 0.130711 0.677236
vt 0.759758 0.371075
vt 0.746574 0.37199
vt 0.760247 0.375896
vt 0.746574 0.37669
vt 0.760247 0.380596
vt 0.747063 0.381573
vt 0.760735 0.385723
vt 0.747063 0.386944
vt 0.761223 0.390606
vt 0.747551 0.392315
vt 0.761711 0.395672
vt 0.748039 0.398175
vt 0.764641 0.411298
vt 0.751457 0.41496
vt 0.339335 0.147435
vt 0.336161 0.147313
vt 0.338359 0.170568
vt 0.334941 0.170446
vt 0.617664 0.960448
vt 0.624012 0.975097
vt 0.635731 0.968749
vt 0.6245 0.941404
vt 0.611805 0.945311
vt 0.36082 0.147008
vt 0.362041 0.170202
vt 0.36961 0.146458
vt 0.371075 0.169652
vt 0.357402 0.827143
vt 0.35667 0.808588
vt 0.918455 0.417951
vt 0.918943 0.400128
vt 0.904782 0.415754
vt 0.905271 0.399823
vt 0.918455 0.39378
vt 0.904782 0.394757
vt 0.917478 0.38786
vt 0.904294 0.38963
vt 0.916501 0.382305
vt 0.903317 0.384747
vt 0.915525 0.376934
vt 0.902341 0.379803
vt 0.914548 0.37199
vt 0.900876 0.374981
vt 0.913083 0.367168
vt 0.899899 0.370342
vt 0.898923 0.365703
vt 0.912107 0.362529
vt 0.393536 0.809564
vt 0.391095 0.82812
vt 0.72216 0.638661
vt 0.725578 0.651845
vt 0.341288 0.170751
vt 0.342021 0.147557
vt 0.342998 0.147557
vt 0.342753 0.170873
vt 0.344218 0.147557
vt 0.344218 0.170873
vt 0.345439 0.147557
vt 0.345683 0.170873
vt 0.34788 0.170751
vt 0.347392 0.147557
vt 0.390606 0.14481
vt 0.381817 0.145543
vt 0.39256 0.168065
vt 0.383526 0.168737
vt 0.317362 0.146214
vt 0.316141 0.16953
vt 0.326151 0.146702
vt 0.324931 0.170019
vt 0.636219 0.842769
vt 0.652333 0.737297
vt 0.612781 0.737297
vt 0.652333 0.758782
vt 0.613269 0.758782
vt 0.653798 0.7622
vt 0.613758 0.762688
vt 0.671377 0.907712
vt 0.674306 0.91406
vt 0.678701 0.921873
vt 0.651845 0.866695
vt 0.684072 0.92822
vt 0.648915 0.8623
vt 0.692373 0.935057
vt 0.645985 0.857418
vt 0.643544 0.851558
vt 0.641102 0.84521
vt 0.639637 0.838862
vt 0.638661 0.832026
vt 0.638661 0.829585
vt 0.637196 0.822748
vt 0.828608 0.207129
vt 0.828608 0.081515
vt 0.97412 0.200354
vt 0.976074 0.074679
vt 0.91699 0.423811
vt 0.941404 0.43968
vt 0.940916 0.445784
vt 0.939451 0.645009
vt 0.937498 0.680166
vt 0.935545 0.74218
vt 0.719718 0.73632
vt 0.752922 0.420148
vt 0.841304 0.081271
vt 0.841304 0.206519
vt 0.961913 0.199866
vt 0.963866 0.074679
vt 0.728507 0.433332
vt 0.728507 0.439436
vt 0.654286 0.806146
vt 0.616199 0.8081
vt 0.615711 0.804682
vt 0.354717 0.170568
vt 0.35374 0.147313
vt 0.313944 0.169408
vt 0.315165 0.146092
vt 0.95996 0.074801
vt 0.958983 0.200659
vt 0.95996 0.200537
vt 0.843745 0.206885
vt 0.844722 0.206763
vt 0.844722 0.081088
vt 0.139256 0.667959
vt 0.138157 0.641102
vt 0.13889 0.632801
vt 0.131321 0.631825
vt 0.885739 0.20426
vt 0.884762 0.078646
vt 0.882809 0.079012
vt 0.887692 0.078219
vt 0.883785 0.20481
vt 0.888668 0.203894
vt 0.882321 0.205176
vt 0.901852 0.077731
vt 0.881344 0.07944
vt 0.902829 0.203406
vt 0.878903 0.205481
vt 0.915525 0.077242
vt 0.878414 0.079806
vt 0.916501 0.202979
vt 0.875973 0.205908
vt 0.918943 0.076754
vt 0.874996 0.080172
vt 0.919431 0.20249
vt 0.872555 0.206153
vt 0.920896 0.076388
vt 0.872066 0.080416
vt 0.921384 0.202124
vt 0.869137 0.206397
vt 0.922361 0.201697
vt 0.868648 0.080721
vt 0.922361 0.076083
vt 0.925779 0.075716
vt 0.925779 0.201392
vt 0.929197 0.075411
vt 0.928709 0.201147
vt 0.932127 0.075106
vt 0.931639 0.200903
vt 0.935545 0.074862
vt 0.935057 0.200659
vt 0.654286 0.783685
vt 0.614734 0.784173
vt 0.661122 0.758293
vt 0.659658 0.760735
vt 0.659169 0.784173
vt 0.182348 0.78222
vt 0.153539 0.786615
vt 0.12595 0.78222
vt 0.38084 0.834956
vt 0.374493 0.835444
vt 0.368389 0.835444
vn 0.001 0.0149 0.9999
vn -0.4462 -0.0013 0.895
vn -0.4647 0.045 0.8843
vn -0.4629 0.1154 0.8789
vn -0.4153 0.2414 0.8771
vn -0.3429 0.3187 0.8837
vn -0.2445 0.4125 0.8775
vn -0.1392 0.4434 0.8854
vn -0.0013 0.473 0.8811
vn 0.1154 0.4629 0.8789
vn 0.2195 0.4345 0.8735
vn 0.3187 0.3429 0.8837
vn 0.3899 0.2694 0.8806
vn 0.4434 0.1392 0.8854
vn 0.4467 0.0674 0.8921
vn 0.421 -0.0013 0.907
vn -0.0239 0.7069 0.7069
vn -0.0014 0.7181 0.696
vn -0.4316 0.6782 0.5949
vn -0.2295 0.7605 0.6074
vn -0.0014 0.7988 0.6015
vn 0.1983 0.7765 0.5981
vn -0.6031 0.6031 0.522
vn -0.5205 0.6553 0.5475
vn -0.6492 0.6258 0.4323
vn -0.705 0.5383 0.4617
vn -0.7463 0.3986 0.5331
vn -0.7279 0.5091 0.4593
vn -0.8243 0.3891 0.4113
vn -0.8826 0.1894 0.4303
vn -0.8386 0.046 0.5428
vn -0.8 -0.0014 0.6
vn -0.9784 0.0997 0.1809
vn -0.3935 0.0631 0.9172
vn 0.402 0.6997 0.5906
vn 0.5757 0.6297 0.5216
vn 0.4914 0.6793 0.5451
vn 0.6225 0.6525 0.4322
vn 0.6778 0.5707 0.4636
vn 0.7262 0.4284 0.5376
vn 0.705 0.5383 0.4617
vn 0.8073 0.4189 0.4157
vn 0.8729 0.2164 0.4372
vn 0.8307 0.0696 0.5524
vn 0.7811 -0.0014 0.6244
vn 0.9754 0.1215 0.1841
vn 0.3753 0.0881 0.9227
vn -0.0013 0.3945 -0.9189
vn -0.022 0.3769 -0.926
vn 0.1345 0.362 -0.9224
vn 0.2554 0.2782 -0.9259
vn 0.0361 0.0887 -0.9954
vn 0.0724 0.0724 -0.9947
vn 0.3388 0.1603 -0.9271
vn -0.0011 0.1043 -0.9945
vn 0.022 0.3769 -0.926
vn -0.0159 -0.001 -0.9999
vn -0.018 0.0689 -0.9975
vn -0.0218 0.352 -0.9357
vn -0.0183 0.0872 -0.996
vn -0.043 0.3586 -0.9325
vn -0.0537 0.0712 -0.996
vn -0.1575 0.3414 -0.9266
vn -0.0902 0.0546 -0.9944
vn -0.2782 0.2554 -0.9259
vn -0.1061 0.0186 -0.9942
vn -0.3595 0.1374 -0.923
vn -0.1043 0.0011 -0.9945
vn -0.3961 -0.0013 -0.9182
vn -0.3901 -0.0195 -0.9206
vn -0.4386 -0.0226 -0.8984
vn 0.0887 0.0361 -0.9954
vn 0.3791 0.0194 -0.9251
vn 0.0872 0.0183 -0.996
vn 0.3784 -0.022 -0.9254
vn 0.0882 -0.0161 -0.996
vn 0.429 -0.0225 -0.903
vn 0.2585 0.6423 -0.7216
vn 0.0471 0.7176 -0.6948
vn 0.3558 0.8418 -0.406
vn -0.0014 0.696 -0.7181
vn 0.0891 0.9115 -0.4016
vn 0.3821 0.9173 -0.1117
vn -0.0013 0.9175 -0.3976
vn 0.0948 0.989 -0.1135
vn -0.071 0.7053 -0.7053
vn -0.2865 0.6226 -0.7282
vn -0.3558 0.8418 -0.406
vn -0.113 0.9056 -0.4088
vn -0.0011 0.9945 -0.1043
vn -0.0014 0.7601 -0.6498
vn 0 -0.0169 -0.9999
vn -0.001 0.9999 -0.0169
vn -0.0172 0.9997 -0.0172
vn -0.0224 -0.7727 -0.6344
vn 0.7069 0.7069 -0.0239
vn 0.4306 0.9023 -0.0225
vn 0.6423 0.2585 -0.7216
vn 0.4861 0.4828 -0.7284
vn 0.8399 0.3595 -0.4066
vn 0.6454 0.6487 -0.4032
vn 0.7053 0.071 -0.7053
vn 0.707 -0.021 -0.707
vn 0.7019 0.7019 -0.1207
vn 0.38 0.9247 -0.022
vn 0.9173 0.3821 -0.1117
vn 0.6606 0.7504 -0.0238
vn 0.926 0.3769 -0.022
vn 0.989 0.0948 -0.1135
vn 0.996 0.0872 -0.0183
vn 0.9115 0.0891 -0.4016
vn 0.996 -0.0161 -0.0882
vn 0.9999 -0.0169 0
vn 0.9254 -0.022 -0.3784
vn -0.5157 0.4856 -0.7059
vn -0.6631 0.2273 -0.7132
vn -0.6716 0.6218 -0.4029
vn -0.4088 0.9056 -0.113
vn -0.7176 0.0471 -0.6948
vn -0.8559 0.3266 -0.4009
vn -0.7254 0.6777 -0.1206
vn -0.3976 0.9175 -0.0013
vn -0.707 -0.021 -0.707
vn -0.9172 0.0631 -0.3935
vn -0.9293 0.3524 -0.1102
vn -0.6732 0.7395 0.0014
vn -0.9291 0.3699 0.0013
vn -0.9909 0.0748 -0.1116
vn -0.9963 0.0858 0.0011
vn -0.9206 -0.0195 -0.3901
vn -0.9946 -0.0185 -0.1025
vn -1 -0.001 0
vn 0.8457 0.5332 -0.0233
vn -0.8613 0.5075 -0.0231
vn 0 -0.4221 0.9065
vn -0.1154 0.9866 -0.1154
vn -0.1061 0.9942 -0.0186
vn 0.0872 0.996 -0.0183
vn -0.7181 0.696 0.0014
vn -0.9998 -0.0151 -0.0161
vn -0.696 0.7181 0.0014
vn -0.3214 0.9469 -0.0012
vn -0.0511 0.9985 -0.0177
vn -0.001 1 -0.001
vn 0.0339 0.9993 -0.0175
vn 0.3034 0.9526 -0.0212
vn 0.6841 0.729 -0.0239
vn 0.0689 0.9975 -0.018
vn 0.5871 0.8092 -0.0236
vn -0.0872 0.996 -0.0183
vn 0.8114 0.584 -0.0236
vn 0.9526 0.3034 -0.0212
vn -0.6015 0.7988 0.0014
vn 0.9975 0.0689 -0.018
vn -0.819 0.5737 0.0014
vn -0.9546 0.2978 0.0012
vn -0.9978 0.0656 0.001
vn -0.0014 0.8169 0.5768
vn -0.0012 0.9546 0.2978
vn -0.0014 0.5985 0.8011
vn -0.001 0.9977 0.0678
vn 0.0012 0.3214 0.9469
vn 0 -0.2974 0.9547
vn 0 -0.5762 0.8173
vn -0.0223 -0.7922 0.6098
vn -0.0202 -0.9442 0.3286
vn -0.0172 -0.9959 0.0883
vn -0.0161 -0.9997 0.0161
vn -0.9988 -0.001 0.0492
vn -0.836 0.5487 0.0014
vn -0.9897 0.143 0.0011
vn -0.9616 0.2746 0.0012
vn 0.1914 0.4584 -0.8679
vn 0.1948 0.5148 -0.8349
vn 0.2589 0.6686 -0.6971
vn 0.2873 0.6757 -0.6789
vn 0.1059 0.2758 -0.9554
vn 0.3366 0.8024 -0.4929
vn 0.0811 0.2232 -0.9714
vn 0.3337 0.8209 -0.4634
vn 0.0183 0.0872 -0.996
vn 0.3613 0.8936 -0.2662
vn 0.0177 0.0489 -0.9986
vn 0.3559 0.9035 -0.2387
vn 0.3685 0.9273 -0.0652
vn 0.3944 0.9166 -0.066
vn 0.3872 0.921 0.0436
vn 0.3502 0.9124 0.2119
vn 0.3559 0.9035 0.2387
vn 0.3305 0.8381 0.4339
vn 0.3337 0.8209 0.4634
vn 0.2855 0.7513 0.595
vn 0.3133 0.7568 0.5736
vn 0.2865 0.7282 0.6226
vn 0.2529 -0.9675 0
vn 0.4993 -0.8664 0
vn 0.6967 -0.7174 0
vn 0.8523 -0.523 0
vn 0.9617 -0.2742 0
vn 0.9977 -0.0677 0
vn -0.9993 -0.0339 0.0164
vn -0.9722 -0.2335 0.0192
vn -0.8763 -0.4813 0.0216
vn -0.7297 -0.6834 0.0225
vn -0.5342 -0.8451 0.0219
vn -0.2808 -0.9596 0.0197
vn -0.4131 -0.0224 -0.9104
vn 0.9999 0.0149 -0.001
vn 0.9989 -0.0344 0.0334
vn 0.9948 -0.0723 0.0712
vn -0.3045 -0.9523 0.02
vn -0.4031 -0.9149 0.0209
vn -0.6848 -0.7283 0.0225
vn -0.9249 -0.3796 0.0207
vn -0.996 -0.0871 0.0172
vn 0.9994 -0.0333 0
vn 0.9987 -0.0502 0
vn 0.9997 -0.0172 0.0162
vn 0.9993 -0.0339 -0.0164
vn 0.9993 -0.0339 0.0164
vn 0.9989 -0.0344 -0.0334
vn 0.9963 0.0011 -0.0858
vn 0.9993 -0.0174 0.0328
vn 0.9995 -0.001 0.0323
vn 0.9942 -0.106 0.0175
vn 0.9997 0.0151 0.0171
vn -0.0172 -0.9959 -0.0883
vn -0.0183 -0.9858 -0.1672
vn 0.9825 -0.1862 0
vn 0.2989 -0.9543 0
vn 0.4488 -0.8936 0
vn 0.0677 -0.9976 0.0169
vn 0.5746 -0.8184 0
vn 0.7993 -0.6009 0
vn -0.0883 -0.9959 0.0172
vn 0.9471 -0.3211 0
vn -0.3286 -0.9442 0.0202
vn 0.9963 -0.0857 0
vn -0.4829 -0.8754 0.0216
vn -0.6098 -0.7922 0.0223
vn -0.8274 -0.5612 0.0221
vn -0.96 -0.2794 0.0197
vn -0.9986 -0.0511 0.0167
vn -0.0159 -0.9999 0
vn -0.0225 0.4274 0.9038
vn -0.0013 0.4477 0.8942
vn -0.0012 0.2267 -0.974
vn -0.0201 0.2088 -0.9778
o slide__p0_c0
f 1/1/1 2/1/1 3/1/1
f 3/1/1 2/1/1 4/1/1
f 2/1/1 1/1/1 5/1/1
f 4/1/1 2/1/1 6/1/1
f 2/1/1 5/1/1 7/1/1
f 6/1/1 2/1/1 8/1/1
f 2/1/1 7/1/1 9/1/1
f 8/1/1 2/1/1 10/1/1
f 2/1/1 9/1/1 11/1/1
f 10/1/1 2/1/1 12/1/1
f 2/1/1 11/1/1 13/1/1
f 2/1/1 13/1/1 14/1/1
f 12/1/1 2/1/1 15/1/1
f 2/1/1 14/1/1 16/1/1
f 15/1/1 2/1/1 17/2/1
f 15/1/1 17/2/1 18/1/2
f 18/1/2 17/2/1 19/2/3
f 19/2/3 17/2/1 20/2/4
f 17/2/1 2/1/1 21/2/1
f 20/2/4 17/2/1 22/2/1
f 20/2/4 22/2/1 23/2/5
f 23/2/5 22/2/1 24/2/1
f 23/2/5 24/2/1 25/2/1
f 23/2/5 25/2/1 26/2/6
f 26/2/6 25/2/1 27/2/7
f 27/2/7 25/2/1 28/2/1
f 27/2/7 28/2/1 29/2/8
f 29/2/8 28/2/1 30/2/1
f 29/2/8 30/2/1 31/2/9
f 31/2/9 30/2/1 32/2/1
f 31/2/9 32/2/1 33/2/1
f 31/2/9 33/2/1 34/2/10
f 34/2/10 33/2/1 35/2/1
f 34/2/10 35/2/1 36/2/11
f 36/2/11 35/2/1 37/2/1
f 36/2/11 37/2/1 38/2/12
f 38/2/12 37/2/1 39/2/13
f 39/2/13 37/2/1 40/2/1
f 39/2/13 40/2/1 41/2/1
f 39/2/13 41/2/1 42/2/14
f 42/2/14 41/2/1 43/2/1
f 42/2/14 43/2/1 44/2/15
f 44/2/15 43/2/1 45/1/16
f 45/1/16 43/2/1 16/1/1
f 16/1/1 43/2/1 2/1/1
f 2/1/1 43/2/1 21/2/1
f 46/3/17 47/4/17 48/5/18
f 48/5/18 47/4/17 49/6/18
f 48/5/18 49/6/18 50/7/18
f 48/5/18 50/7/18 51/8/18
f 26/9/6 27/10/7 52/11/19
f 52/11/19 27/10/7 53/12/20
f 53/12/20 27/10/7 29/13/8
f 53/12/20 29/13/8 54/14/21
f 54/14/21 29/13/8 31/15/9
f 54/14/21 31/15/9 34/16/10
f 54/14/21 34/16/10 55/17/22
f 26/9/6 52/11/19 56/18/23
f 56/18/23 52/11/19 57/19/24
f 56/18/23 57/19/24 58/20/25
f 26/9/6 56/18/23 23/21/5
f 56/18/23 58/20/25 59/22/26
f 56/18/23 59/22/26 60/23/27
f 56/18/23 60/23/27 23/21/5
f 60/23/27 59/22/26 61/24/28
f 60/23/27 61/24/28 62/25/29
f 23/21/5 60/23/27 63/26/30
f 63/26/30 60/23/27 62/25/29
f 23/21/5 63/26/30 20/27/4
f 20/27/4 63/26/30 19/28/3
f 19/28/3 63/26/30 64/29/31
f 64/29/31 63/26/30 62/25/29
f 19/28/3 64/29/31 18/30/2
f 18/30/2 64/29/31 65/31/32
f 64/29/31 62/25/29 66/32/33
f 66/32/33 62/25/29 67/33/34
f 55/17/22 34/16/10 36/34/11
f 55/17/22 36/34/11 68/35/35
f 68/35/35 36/34/11 38/36/12
f 68/35/35 38/36/12 69/37/36
f 68/35/35 69/37/36 70/38/37
f 70/38/37 69/37/36 71/39/38
f 69/37/36 38/36/12 39/40/13
f 71/39/38 69/37/36 72/41/39
f 72/41/39 69/37/36 73/42/40
f 73/42/40 69/37/36 39/40/13
f 72/41/39 73/42/40 74/43/41
f 74/43/41 73/42/40 75/44/42
f 73/42/40 39/40/13 76/45/43
f 73/42/40 76/45/43 75/44/42
f 76/45/43 39/40/13 42/46/14
f 76/45/43 42/46/14 44/47/15
f 76/45/43 44/47/15 77/48/44
f 76/45/43 77/48/44 75/44/42
f 77/48/44 44/47/15 45/49/16
f 77/48/44 45/49/16 78/50/45
f 75/44/42 77/48/44 79/51/46
f 75/44/42 79/51/46 80/52/47
f 81/53/48 82/54/49 83/55/48
f 83/55/48 82/54/49 84/56/49
f 83/55/48 84/56/49 85/57/49
f 85/57/49 84/56/49 86/58/49
f 85/57/49 86/58/49 87/59/48
f 85/57/49 87/59/48 88/60/49
f 88/60/49 87/59/48 89/61/48
f 88/60/49 89/61/48 90/62/49
f 91/63/50 92/64/51 93/65/52
f 93/65/52 92/64/51 94/66/53
f 94/66/53 92/64/51 95/67/54
f 91/63/50 93/65/52 96/68/55
f 91/63/50 96/68/55 97/69/56
f 96/68/55 93/65/52 98/70/57
f 97/69/56 96/68/55 99/71/58
f 99/71/58 96/68/55 98/70/57
f 98/70/57 93/65/52 100/72/57
f 100/72/57 93/65/52 94/66/53
f 99/71/58 98/70/57 101/73/57
f 97/69/56 99/71/58 102/74/59
f 99/71/58 101/73/57 103/75/57
f 102/74/59 99/71/58 104/76/60
f 104/76/60 99/71/58 103/75/57
f 102/74/59 104/76/60 105/77/61
f 104/76/60 103/75/57 106/78/57
f 105/77/61 104/76/60 107/79/62
f 107/79/62 104/76/60 106/78/57
f 105/77/61 107/79/62 108/80/63
f 107/79/62 106/78/57 109/81/57
f 108/80/63 107/79/62 110/82/64
f 108/80/63 110/82/64 111/83/65
f 107/79/62 109/81/57 112/84/57
f 107/79/62 112/84/57 110/82/64
f 112/84/57 109/81/57 113/85/57
f 112/84/57 113/85/57 114/86/57
f 112/84/57 114/86/57 115/87/57
f 112/84/57 115/87/57 110/82/64
f 115/87/57 114/86/57 116/88/57
f 117/89/66 111/83/65 110/82/64
f 117/89/66 110/82/64 115/87/57
f 111/83/65 117/89/66 118/90/67
f 115/87/57 116/88/57 119/91/57
f 115/87/57 119/91/57 117/89/66
f 119/91/57 116/88/57 120/92/57
f 118/90/67 117/89/66 121/93/68
f 121/93/68 117/89/66 119/91/57
f 118/90/67 121/93/68 122/94/69
f 119/91/57 120/92/57 123/95/57
f 119/91/57 123/95/57 121/93/68
f 123/95/57 120/92/57 124/96/68
f 122/94/69 121/93/68 125/97/68
f 125/97/68 121/93/68 123/95/57
f 125/97/68 123/95/57 124/96/68
f 122/94/69 125/97/68 126/98/70
f 126/98/70 125/97/68 124/96/68
f 124/96/68 120/92/57 127/99/57
f 126/98/70 124/96/68 128/100/70
f 124/96/68 127/99/57 129/101/68
f 124/96/68 129/101/68 128/100/70
f 129/101/68 127/99/57 130/102/57
f 128/100/70 129/101/68 131/103/71
f 132/104/57 100/72/57 94/66/53
f 100/72/57 132/104/57 133/105/57
f 133/105/57 132/104/57 134/106/57
f 134/106/57 132/104/57 135/107/57
f 135/107/57 132/104/57 94/66/53
f 134/106/57 135/107/57 136/108/57
f 135/107/57 94/66/53 137/109/72
f 137/109/72 94/66/53 95/67/54
f 137/109/72 95/67/54 138/110/73
f 136/108/57 135/107/57 139/111/57
f 139/111/57 135/107/57 137/109/72
f 136/108/57 139/111/57 140/112/57
f 137/109/72 138/110/73 141/113/74
f 137/109/72 141/113/74 139/111/57
f 141/113/74 138/110/73 142/114/75
f 140/112/57 139/111/57 143/115/57
f 143/115/57 139/111/57 141/113/74
f 140/112/57 143/115/57 144/116/57
f 141/113/74 142/114/75 145/117/76
f 141/113/74 145/117/76 143/115/57
f 145/117/76 142/114/75 146/118/75
f 143/115/57 145/117/76 144/119/57
f 145/117/76 146/118/75 147/120/76
f 145/117/76 147/120/76 144/119/57
f 144/119/57 147/120/76 148/120/57
f 147/120/76 146/118/75 149/121/77
f 147/120/76 149/121/77 150/122/76
f 147/120/76 150/122/76 148/123/57
f 148/123/57 150/122/76 151/124/57
f 152/125/77 153/126/75 154/127/76
f 154/127/76 153/126/75 155/128/76
f 154/127/76 155/128/76 156/129/57
f 154/127/76 156/129/57 157/130/57
f 158/131/70 159/132/71 160/133/68
f 160/133/68 159/132/71 161/134/68
f 160/133/68 161/134/68 162/135/57
f 160/133/68 162/135/57 163/136/57
f 164/137/57 165/138/57 166/139/57
f 166/139/57 165/138/57 167/140/57
f 168/141/57 169/142/57 170/143/57
f 170/143/57 169/142/57 171/144/57
f 172/145/57 173/146/57 174/147/57
f 174/147/57 173/146/57 175/148/57
f 176/149/57 177/150/57 178/151/57
f 178/151/57 177/150/57 179/152/57
f 180/153/57 181/154/57 182/155/57
f 182/155/57 181/154/57 183/156/57
f 184/157/57 185/158/57 186/159/57
f 186/159/57 185/158/57 187/160/57
f 187/160/57 185/158/57 188/161/57
f 187/160/57 188/161/57 189/162/57
f 186/159/57 187/160/57 190/163/57
f 186/159/57 190/163/57 191/164/57
f 191/164/57 190/163/57 192/165/57
f 191/164/57 192/165/57 193/166/57
f 194/167/57 195/168/57 193/166/57
f 193/166/57 195/168/57 191/164/57
f 191/164/57 195/168/57 196/169/57
f 196/169/57 195/168/57 197/170/57
f 196/169/57 197/170/57 198/171/57
f 196/169/57 198/171/57 199/172/57
f 196/169/57 199/172/57 200/173/57
f 196/169/57 200/173/57 191/164/57
f 200/173/57 199/172/57 201/174/57
f 191/164/57 200/173/57 202/175/57
f 191/164/57 202/175/57 186/159/57
f 202/175/57 200/173/57 203/176/57
f 186/159/57 202/175/57 204/177/57
f 186/159/57 204/177/57 184/157/57
f 204/177/57 202/175/57 205/178/57
f 184/157/57 204/177/57 206/179/57
f 184/157/57 206/179/57 207/180/57
f 184/157/57 207/180/57 208/181/57
f 184/157/57 208/181/57 209/182/57
f 184/157/57 209/182/57 210/183/57
f 205/178/57 202/175/57 211/184/57
f 211/184/57 202/175/57 212/185/57
f 212/185/57 202/175/57 213/186/57
f 213/186/57 202/175/57 214/187/57
f 215/188/57 202/175/57 203/176/57
f 215/188/57 203/176/57 216/189/57
f 215/188/57 216/189/57 217/190/57
f 91/63/50 97/69/56 218/191/78
f 218/191/78 97/69/56 219/192/79
f 219/192/79 97/69/56 102/74/59
f 218/191/78 219/192/79 220/193/80
f 219/192/79 102/74/59 221/194/81
f 220/193/80 219/192/79 222/195/82
f 222/195/82 219/192/79 221/194/81
f 221/194/81 102/74/59 105/77/61
f 220/193/80 222/195/82 223/196/83
f 222/195/82 221/194/81 224/197/84
f 223/196/83 222/195/82 225/198/85
f 225/198/85 222/195/82 224/197/84
f 221/194/81 105/77/61 226/199/86
f 221/194/81 226/199/86 224/197/84
f 226/199/86 105/77/61 227/200/87
f 227/200/87 105/77/61 108/80/63
f 226/199/86 227/200/87 228/201/88
f 224/197/84 226/199/86 229/202/89
f 229/202/89 226/199/86 228/201/88
f 224/197/84 229/202/89 230/203/90
f 224/197/84 230/203/90 225/198/85
f 231/204/91 180/153/91 232/205/91
f 232/205/91 180/153/91 182/155/91
f 233/206/91 176/149/91 234/207/91
f 234/207/91 176/149/91 178/151/91
f 235/208/92 236/209/92 237/210/92
f 237/210/92 236/209/92 238/211/92
f 237/210/92 238/211/92 239/212/57
f 237/210/92 239/212/57 240/213/57
f 241/214/91 172/145/91 242/215/91
f 242/215/91 172/145/91 174/147/91
f 243/216/91 168/141/91 244/217/91
f 244/217/91 168/141/91 170/143/91
f 245/218/57 246/219/57 247/220/57
f 247/220/57 246/219/57 248/221/57
f 247/220/57 248/221/57 249/222/57
f 247/220/57 249/222/57 250/223/57
f 249/222/57 248/221/57 251/224/57
f 252/225/57 253/226/57 254/227/57
f 252/225/57 254/227/57 255/228/57
f 252/225/57 255/228/57 256/229/57
f 252/225/57 256/229/57 257/230/57
f 258/231/57 255/228/57 254/227/57
f 259/232/91 164/137/91 260/233/91
f 260/233/91 164/137/91 166/139/91
f 261/234/57 262/235/57 263/236/57
f 263/236/57 262/235/57 264/237/57
f 263/236/57 264/237/57 265/238/57
f 263/236/57 265/238/57 266/239/57
f 265/238/57 264/237/57 267/240/57
f 268/241/57 269/242/57 270/243/57
f 268/241/57 270/243/57 271/244/57
f 268/241/57 271/244/57 272/245/57
f 268/241/57 272/245/57 273/246/57
f 274/247/57 271/244/57 270/243/57
f 275/248/57 276/249/57 277/250/57
f 277/250/57 276/249/57 278/251/57
f 277/250/57 278/251/57 279/252/57
f 279/252/57 278/251/57 280/253/57
f 277/250/57 279/252/57 281/254/57
f 282/255/57 283/256/57 284/257/57
f 282/255/57 284/257/57 285/258/57
f 285/258/57 284/257/57 286/259/57
f 282/255/57 285/258/57 287/260/57
f 282/255/57 287/260/57 288/261/57
f 289/262/57 290/263/57 291/264/57
f 292/265/57 293/266/57 294/267/57
f 294/267/57 293/266/57 289/262/57
f 294/267/57 289/262/57 291/264/57
f 294/267/57 291/264/57 295/268/57
f 296/269/57 297/270/57 298/271/57
f 296/269/57 298/271/57 299/272/57
f 296/269/57 299/272/57 300/273/57
f 296/269/57 300/273/57 301/274/57
f 302/275/57 299/272/57 298/271/57
f 303/276/57 304/277/57 305/278/57
f 305/278/57 304/277/57 306/279/57
f 305/278/57 306/279/57 307/280/57
f 305/278/57 307/280/57 308/281/57
f 306/279/57 309/282/57 307/280/57
f 310/283/57 311/284/57 312/285/57
f 310/283/57 312/285/57 313/286/57
f 313/286/57 312/285/57 314/287/57
f 310/283/57 313/286/57 315/288/57
f 310/283/57 315/288/57 316/289/57
f 317/290/93 318/291/93 89/61/93
f 89/61/93 318/291/93 90/62/93
f 81/53/94 319/292/94 82/54/94
f 82/54/94 319/292/94 320/293/94
f 321/294/94 46/3/94 322/295/94
f 322/295/94 46/3/94 48/5/94
f 322/295/94 48/5/94 51/8/93
f 322/295/94 51/8/93 323/296/93
f 165/138/95 324/297/95 167/140/95
f 167/140/95 324/297/95 325/298/95
f 84/56/94 326/299/94 86/58/93
f 86/58/93 326/299/94 327/300/93
f 86/58/93 327/300/93 328/301/93
f 86/58/93 328/301/93 87/59/93
f 169/142/95 329/302/95 171/144/95
f 171/144/95 329/302/95 330/303/95
f 173/146/95 331/304/95 175/148/95
f 175/148/95 331/304/95 332/305/95
f 333/306/96 334/307/96 335/308/97
f 335/308/97 334/307/96 336/309/97
f 177/150/95 337/310/95 179/152/95
f 179/152/95 337/310/95 338/311/95
f 339/312/57 340/313/57 341/314/57
f 339/312/57 341/314/57 342/315/57
f 342/315/57 341/314/57 343/316/57
f 339/312/57 342/315/57 344/317/57
f 339/312/57 344/317/57 345/318/57
f 346/319/57 347/320/57 348/321/57
f 348/321/57 347/320/57 349/322/57
f 348/321/57 349/322/57 350/323/57
f 348/321/57 350/323/57 351/324/57
f 349/322/57 352/325/57 350/323/57
f 181/154/95 353/326/95 183/156/95
f 183/156/95 353/326/95 354/327/95
f 355/328/93 356/329/93 357/330/93
f 357/330/93 356/329/93 358/331/93
f 358/331/93 356/329/93 359/332/93
f 359/332/93 356/329/93 360/333/93
f 358/331/93 359/332/93 361/334/93
f 358/331/93 361/334/93 362/335/93
f 95/67/54 363/336/98 138/110/73
f 363/336/98 95/67/54 92/64/51
f 363/336/98 92/64/51 364/337/99
f 364/337/99 92/64/51 91/63/50
f 364/337/99 91/63/50 218/191/78
f 363/336/98 364/337/99 365/338/100
f 364/337/99 218/191/78 366/339/101
f 364/337/99 366/339/101 365/338/100
f 366/339/101 218/191/78 220/193/80
f 367/340/102 138/110/73 363/336/98
f 367/340/102 363/336/98 365/338/100
f 138/110/73 367/340/102 368/341/103
f 138/110/73 368/341/103 142/114/75
f 366/339/101 220/193/80 369/342/104
f 369/342/104 220/193/80 223/196/83
f 369/342/104 223/196/83 370/343/105
f 366/339/101 369/342/104 371/344/106
f 366/339/101 371/344/106 365/338/100
f 371/344/106 369/342/104 372/345/107
f 372/345/107 369/342/104 370/343/105
f 371/344/106 372/345/107 373/346/108
f 372/345/107 370/343/105 253/226/107
f 371/344/106 373/346/108 374/347/109
f 371/344/106 374/347/109 365/338/100
f 374/347/109 373/346/108 375/348/110
f 365/338/100 374/347/109 376/349/111
f 365/338/100 376/349/111 367/340/102
f 374/347/109 375/348/110 377/350/112
f 374/347/109 377/350/112 376/349/111
f 377/350/112 375/348/110 378/351/113
f 367/340/102 376/349/111 379/352/114
f 379/352/114 376/349/111 377/350/112
f 367/340/102 379/352/114 368/341/103
f 377/350/112 378/351/113 380/353/112
f 377/350/112 380/353/112 379/352/114
f 380/353/112 378/351/113 381/354/113
f 380/353/112 381/354/113 382/355/112
f 379/352/114 380/353/112 383/356/114
f 383/356/114 380/353/112 382/355/112
f 379/352/114 383/356/114 368/341/103
f 383/356/114 382/355/112 384/357/114
f 368/341/103 383/356/114 385/358/103
f 385/358/103 383/356/114 384/357/114
f 368/341/103 385/358/103 142/114/75
f 142/114/75 385/358/103 146/118/75
f 385/358/103 384/357/114 386/359/103
f 385/358/103 386/359/103 146/118/75
f 146/118/75 386/359/103 149/121/77
f 149/121/77 386/359/103 152/125/77
f 152/125/77 386/359/103 153/126/75
f 108/80/63 111/83/65 227/200/87
f 227/200/87 111/83/65 387/360/115
f 387/360/115 111/83/65 118/90/67
f 227/200/87 387/360/115 228/201/88
f 387/360/115 118/90/67 388/361/116
f 388/361/116 118/90/67 122/94/69
f 228/201/88 387/360/115 389/362/117
f 389/362/117 387/360/115 388/361/116
f 228/201/88 389/362/117 390/363/118
f 388/361/116 122/94/69 391/364/119
f 391/364/119 122/94/69 126/98/70
f 389/362/117 388/361/116 392/365/120
f 392/365/120 388/361/116 391/364/119
f 390/363/118 389/362/117 393/366/121
f 393/366/121 389/362/117 392/365/120
f 390/363/118 393/366/121 394/367/122
f 391/364/119 126/98/70 395/368/123
f 395/368/123 126/98/70 128/100/70
f 392/365/120 391/364/119 396/369/124
f 396/369/124 391/364/119 395/368/123
f 393/366/121 392/365/120 397/370/125
f 397/370/125 392/365/120 396/369/124
f 393/366/121 397/370/125 398/371/126
f 393/366/121 398/371/126 394/367/122
f 398/371/126 397/370/125 399/372/127
f 394/367/122 398/371/126 250/223/126
f 399/372/127 397/370/125 400/373/128
f 400/373/128 397/370/125 396/369/124
f 399/372/127 400/373/128 401/374/129
f 400/373/128 396/369/124 402/375/130
f 402/375/130 396/369/124 395/368/123
f 401/374/129 400/373/128 403/376/131
f 403/376/131 400/373/128 402/375/130
f 401/374/129 403/376/131 404/377/132
f 402/375/130 395/368/123 405/378/123
f 405/378/123 395/368/123 128/100/70
f 405/378/123 128/100/70 131/103/71
f 402/375/130 405/378/123 406/379/130
f 402/375/130 406/379/130 403/376/131
f 405/378/123 131/103/71 407/380/123
f 405/378/123 407/380/123 406/379/130
f 407/380/123 131/103/71 159/132/71
f 407/380/123 159/132/71 158/131/70
f 406/379/130 407/380/123 408/381/130
f 403/376/131 406/379/130 409/382/131
f 409/382/131 406/379/130 408/381/130
f 403/376/131 409/382/131 404/377/132
f 409/382/131 408/381/130 410/383/131
f 404/377/132 409/382/131 411/384/132
f 411/384/132 409/382/131 410/383/131
f 88/385/133 90/62/133 412/386/133
f 412/386/133 90/62/133 318/291/133
f 319/292/134 81/53/134 413/387/134
f 413/387/134 81/53/134 83/388/134
f 414/389/135 415/390/135 416/391/135
f 416/391/135 415/390/135 417/392/135
f 418/393/136 229/202/89 228/201/88
f 229/202/89 418/393/136 230/203/90
f 418/393/136 228/201/88 390/363/118
f 419/394/93 225/198/85 230/203/90
f 230/203/90 418/393/136 420/395/137
f 230/203/90 420/395/137 419/394/93
f 418/393/136 390/363/118 394/367/122
f 418/393/136 394/367/122 420/395/137
f 225/198/85 419/394/93 421/396/138
f 419/394/93 420/395/137 422/397/93
f 419/394/93 422/397/93 423/398/93
f 419/394/93 423/398/93 421/396/138
f 422/397/93 420/395/137 424/399/93
f 421/396/138 423/398/93 425/400/138
f 425/400/138 423/398/93 426/401/93
f 421/396/138 425/400/138 336/402/97
f 424/399/93 420/395/137 427/403/137
f 424/399/93 427/403/137 428/404/93
f 427/403/137 420/395/137 429/405/122
f 429/405/122 420/395/137 394/367/122
f 421/396/138 336/402/97 370/343/105
f 421/396/138 370/343/105 225/198/85
f 370/343/105 336/402/97 334/406/96
f 225/198/85 370/343/105 223/196/83
f 429/405/122 394/367/122 430/407/139
f 430/407/139 394/367/122 431/408/126
f 430/407/139 431/408/126 432/409/127
f 432/409/127 431/408/126 433/410/127
f 432/409/127 433/410/127 434/411/129
f 434/411/129 433/410/127 435/412/129
f 431/408/126 394/367/122 436/413/126
f 434/411/129 435/412/129 437/414/132
f 437/414/132 435/412/129 438/415/132
f 439/416/132 434/411/129 440/417/132
f 440/417/132 434/411/129 437/414/132
f 440/417/132 437/414/132 441/418/132
f 441/418/132 437/414/132 442/419/132
f 442/419/132 437/414/132 443/420/132
f 443/420/132 437/414/132 444/421/132
f 437/414/132 438/415/132 445/422/132
f 444/421/132 437/414/132 446/423/132
f 446/423/132 437/414/132 447/424/132
f 447/424/132 437/414/132 445/422/132
f 446/423/132 447/424/132 448/425/132
f 448/425/132 447/424/132 449/426/132
f 449/426/132 447/424/132 450/427/132
f 450/427/132 447/424/132 451/428/132
f 451/428/132 447/424/132 452/429/132
f 452/429/132 447/424/132 445/422/132
f 452/429/132 445/422/132 453/430/132
f 452/429/132 453/430/132 454/431/132
f 454/431/132 453/430/132 455/432/132
f 455/432/132 453/430/132 456/433/132
f 456/433/132 453/430/132 457/434/132
f 457/434/132 453/430/132 458/435/132
f 458/435/132 453/430/132 459/436/132
f 458/435/132 459/436/132 460/437/132
f 460/437/132 459/436/132 461/438/132
f 461/438/132 459/436/132 462/439/132
f 462/439/132 459/436/132 463/440/140
f 463/440/140 459/436/132 464/441/132
f 464/441/132 459/436/132 465/442/132
f 465/442/132 459/436/132 466/443/132
f 464/441/132 465/442/132 467/444/132
f 465/442/132 466/443/132 468/445/132
f 467/444/132 465/442/132 469/446/132
f 65/31/132 64/29/132 468/445/132
f 468/445/132 64/29/132 465/442/132
f 465/442/132 64/29/132 66/32/132
f 465/442/132 66/32/132 67/33/129
f 469/446/132 465/442/132 470/447/129
f 470/447/129 465/442/132 67/33/129
f 469/446/132 470/447/129 471/448/129
f 470/447/129 67/33/129 62/25/127
f 471/448/129 470/447/129 472/449/127
f 470/447/129 62/25/127 473/450/127
f 470/447/129 473/450/127 472/449/127
f 473/450/127 62/25/127 61/24/141
f 472/449/127 473/450/127 474/451/139
f 473/450/127 61/24/141 475/452/139
f 473/450/127 475/452/139 474/451/139
f 475/452/139 61/24/141 59/22/142
f 474/451/139 475/452/139 476/453/122
f 475/452/139 59/22/142 477/454/122
f 475/452/139 477/454/122 476/453/122
f 476/453/122 477/454/122 478/455/137
f 478/455/137 477/454/122 479/456/137
f 479/456/137 477/454/122 58/20/143
f 58/20/143 477/454/122 59/22/142
f 478/455/137 479/456/137 480/457/93
f 478/455/137 480/457/93 481/458/93
f 481/458/93 480/457/93 482/459/138
f 480/457/93 479/456/137 483/460/93
f 483/460/93 479/456/137 58/20/143
f 482/459/138 480/457/93 484/461/138
f 484/461/138 480/457/93 483/460/93
f 482/459/138 484/461/138 335/462/97
f 483/460/93 58/20/143 54/14/93
f 54/14/93 58/20/143 57/19/93
f 54/14/93 57/19/93 52/11/93
f 54/14/93 52/11/93 53/12/144
f 335/462/97 484/461/138 485/463/105
f 484/461/138 483/460/93 71/39/145
f 71/39/145 483/460/93 54/14/93
f 484/461/138 71/39/145 485/463/105
f 485/463/105 71/39/145 72/41/146
f 71/39/145 54/14/93 70/38/93
f 70/38/93 54/14/93 68/35/93
f 68/35/93 54/14/93 55/17/93
f 335/462/97 485/463/105 333/464/96
f 333/464/96 485/463/105 486/465/96
f 486/465/96 485/463/105 72/41/146
f 486/465/96 72/41/146 74/43/147
f 486/465/96 74/43/147 487/466/108
f 487/466/108 74/43/147 75/44/108
f 333/464/96 486/465/96 488/467/108
f 488/467/108 486/465/96 487/466/108
f 333/464/96 488/467/108 489/468/108
f 333/464/96 489/468/108 334/406/96
f 334/406/96 489/468/108 490/469/107
f 334/406/96 490/469/107 370/343/105
f 490/469/107 489/468/108 491/470/108
f 370/343/105 490/469/107 492/471/107
f 491/470/108 489/468/108 493/472/110
f 493/472/110 489/468/108 488/467/108
f 491/470/108 493/472/110 494/473/110
f 493/472/110 488/467/108 495/474/110
f 495/474/110 488/467/108 487/466/108
f 494/473/110 493/472/110 496/475/113
f 496/475/113 493/472/110 495/474/110
f 494/473/110 496/475/113 497/476/113
f 497/476/113 496/475/113 498/477/113
f 498/477/113 496/475/113 499/478/113
f 499/478/113 496/475/113 415/390/113
f 499/478/113 415/390/113 414/389/113
f 415/390/113 496/475/113 500/479/113
f 500/479/113 496/475/113 495/474/110
f 415/390/113 500/479/113 501/480/113
f 502/481/110 495/474/110 487/466/108
f 495/474/110 502/481/110 500/479/113
f 502/481/110 487/466/108 75/44/108
f 502/481/110 75/44/108 80/52/110
f 500/479/113 502/481/110 503/482/113
f 500/479/113 503/482/113 501/480/113
f 503/482/113 502/481/110 80/52/110
f 501/480/113 503/482/113 504/483/113
f 503/482/113 80/52/110 79/51/113
f 504/483/113 503/482/113 505/484/113
f 503/482/113 79/51/113 77/48/113
f 503/482/113 77/48/113 505/484/113
f 505/484/113 77/48/113 78/50/113
f 506/485/57 445/422/57 507/486/57
f 507/486/57 445/422/57 438/415/57
f 507/486/57 438/415/57 433/410/57
f 433/410/57 438/415/57 435/412/57
f 507/486/57 433/410/57 431/408/57
f 508/487/57 490/469/57 491/470/57
f 508/487/57 491/470/57 497/476/57
f 497/476/57 491/470/57 494/473/57
f 508/487/57 497/476/57 498/477/57
f 508/487/57 498/477/57 509/488/57
f 206/489/148 510/490/148 207/491/146
f 207/491/146 510/490/148 511/492/146
f 510/490/148 206/489/148 512/493/93
f 207/491/146 511/492/146 208/494/149
f 512/493/93 206/489/148 204/495/93
f 208/494/149 511/492/146 513/496/149
f 512/493/93 204/495/93 205/497/150
f 208/494/149 513/496/149 209/498/151
f 512/493/93 205/497/150 514/499/150
f 209/498/151 513/496/149 515/500/151
f 514/499/150 205/497/150 516/501/142
f 209/498/151 515/500/151 210/502/152
f 516/501/142 205/497/150 211/503/142
f 210/502/152 515/500/151 517/504/152
f 516/501/142 211/503/142 518/505/153
f 210/502/152 517/504/152 184/506/154
f 518/505/153 211/503/142 212/507/153
f 184/506/154 517/504/152 519/508/154
f 518/505/153 212/507/153 520/509/155
f 184/506/154 519/508/154 521/510/113
f 520/509/155 212/507/153 213/511/155
f 184/506/154 521/510/113 185/512/113
f 185/512/113 521/510/113 522/513/113
f 185/512/113 522/513/113 188/514/113
f 520/509/155 213/511/155 523/515/156
f 523/515/156 213/511/155 214/516/156
f 523/515/156 214/516/156 524/517/157
f 524/517/157 214/516/156 202/518/157
f 524/517/157 202/518/157 215/519/132
f 524/517/157 215/519/132 525/520/132
f 525/520/132 215/519/132 217/521/132
f 525/520/132 217/521/132 526/522/132
f 340/313/107 370/343/105 492/471/107
f 340/313/107 492/471/107 341/314/108
f 341/314/108 492/471/107 527/523/108
f 341/314/108 527/523/108 343/316/110
f 343/316/110 527/523/108 528/524/110
f 343/316/110 528/524/110 529/525/113
f 343/316/110 529/525/113 342/315/113
f 342/315/113 529/525/113 344/317/113
f 344/317/113 529/525/113 530/526/113
f 531/527/107 370/343/105 340/313/107
f 370/343/105 531/527/107 311/284/107
f 311/284/107 531/527/107 532/528/108
f 311/284/107 532/528/108 312/285/108
f 312/285/108 532/528/108 314/287/110
f 314/287/110 532/528/108 533/529/110
f 314/287/110 533/529/110 534/530/113
f 314/287/110 534/530/113 313/286/113
f 313/286/113 534/530/113 315/288/113
f 315/288/113 534/530/113 535/531/113
f 536/532/107 370/343/105 311/284/107
f 370/343/105 536/532/107 297/270/107
f 297/270/107 536/532/107 537/533/108
f 297/270/107 537/533/108 298/271/108
f 298/271/108 537/533/108 302/275/110
f 302/275/110 537/533/108 538/534/110
f 302/275/110 538/534/110 539/535/113
f 302/275/110 539/535/113 299/272/113
f 299/272/113 539/535/113 300/273/113
f 300/273/113 539/535/113 540/536/113
f 541/537/107 370/343/105 297/270/107
f 370/343/105 541/537/107 283/256/107
f 283/256/107 541/537/107 542/538/108
f 283/256/107 542/538/108 284/257/108
f 284/257/108 542/538/108 286/259/110
f 286/259/110 542/538/108 543/539/110
f 286/259/110 543/539/110 544/540/113
f 286/259/110 544/540/113 285/258/113
f 285/258/113 544/540/113 287/260/113
f 287/260/113 544/540/113 545/541/113
f 546/542/107 370/343/105 283/256/107
f 370/343/105 546/542/107 269/242/107
f 269/242/107 546/542/107 547/543/108
f 370/343/105 269/242/107 548/544/107
f 269/242/107 547/543/108 270/243/108
f 370/343/105 548/544/107 253/226/107
f 270/243/108 547/543/108 274/247/110
f 253/226/107 548/544/107 549/545/108
f 274/247/110 547/543/108 550/546/110
f 253/226/107 549/545/108 254/227/108
f 274/247/110 550/546/110 551/547/113
f 254/227/108 549/545/108 258/231/110
f 274/247/110 551/547/113 271/244/113
f 271/244/113 551/547/113 272/245/113
f 272/245/113 551/547/113 552/548/113
f 258/231/110 549/545/108 553/549/110
f 258/231/110 553/549/110 554/550/113
f 258/231/110 554/550/113 255/228/113
f 255/228/113 554/550/113 256/229/113
f 256/229/113 554/550/113 555/551/113
f 556/552/158 450/553/158 557/552/159
f 557/552/159 450/553/158 451/554/159
f 450/553/158 556/552/158 449/555/160
f 557/552/159 451/554/159 558/556/161
f 449/555/160 556/552/158 559/557/160
f 558/556/161 451/554/159 452/558/161
f 558/556/161 452/558/161 454/559/93
f 558/556/161 454/559/93 560/560/93
f 449/555/160 559/557/160 448/561/162
f 448/561/162 559/557/160 561/562/162
f 448/561/162 561/562/162 446/563/1
f 446/563/1 561/562/162 562/564/1
f 446/563/1 562/564/1 444/565/163
f 444/565/163 562/564/1 563/566/163
f 444/565/163 563/566/163 443/567/164
f 443/567/164 563/566/163 564/568/164
f 443/567/164 564/568/164 442/569/165
f 442/569/165 564/568/164 565/570/165
f 442/569/165 565/570/165 441/569/166
f 441/569/166 565/570/165 566/571/166
f 441/569/166 566/571/166 440/572/167
f 440/572/167 566/571/166 567/573/167
f 440/572/167 567/573/167 439/574/168
f 439/574/168 567/573/167 568/575/168
f 569/576/132 570/577/132 246/219/132
f 246/219/132 570/577/132 248/221/132
f 248/221/132 570/577/132 251/224/129
f 251/224/129 570/577/132 571/578/129
f 251/224/129 571/578/129 572/579/127
f 251/224/129 572/579/127 249/222/127
f 249/222/127 572/579/127 250/223/126
f 250/223/126 572/579/127 573/580/126
f 250/223/126 573/580/126 394/367/122
f 394/367/122 573/580/126 266/239/126
f 394/367/122 266/239/126 574/581/126
f 574/581/126 266/239/126 575/582/127
f 575/582/127 266/239/126 265/238/127
f 575/582/127 265/238/127 267/240/129
f 575/582/127 267/240/129 576/583/129
f 576/583/129 267/240/129 577/584/132
f 577/584/132 267/240/129 264/237/132
f 577/584/132 264/237/132 262/235/132
f 577/584/132 262/235/132 578/585/132
f 281/254/126 394/367/122 574/581/126
f 394/367/122 281/254/126 579/586/126
f 579/586/126 281/254/126 580/587/127
f 580/587/127 281/254/126 279/252/127
f 580/587/127 279/252/127 280/253/129
f 580/587/127 280/253/129 581/588/129
f 581/588/129 280/253/129 582/589/132
f 582/589/132 280/253/129 278/251/132
f 582/589/132 278/251/132 276/249/132
f 582/589/132 276/249/132 583/590/132
f 295/268/126 394/367/122 579/586/126
f 394/367/122 295/268/126 584/591/126
f 584/591/126 295/268/126 585/592/127
f 585/592/127 295/268/126 291/264/127
f 394/367/122 584/591/126 308/281/126
f 585/592/127 291/264/127 290/263/129
f 585/592/127 290/263/129 586/593/129
f 586/593/129 290/263/129 587/594/132
f 587/594/132 290/263/129 289/262/132
f 587/594/132 289/262/132 293/266/132
f 587/594/132 293/266/132 588/595/132
f 394/367/122 308/281/126 589/596/126
f 394/367/122 589/596/126 351/324/126
f 589/596/126 308/281/126 590/597/127
f 394/367/122 351/324/126 436/413/126
f 590/597/127 308/281/126 307/280/127
f 436/413/126 351/324/126 350/323/127
f 590/597/127 307/280/127 309/282/129
f 436/413/126 350/323/127 591/598/127
f 590/597/127 309/282/129 592/599/129
f 591/598/127 350/323/127 352/325/129
f 592/599/129 309/282/129 593/600/132
f 591/598/127 352/325/129 594/601/129
f 593/600/132 309/282/129 306/279/132
f 593/600/132 306/279/132 304/277/132
f 593/600/132 304/277/132 595/602/132
f 594/601/129 352/325/129 596/603/132
f 596/603/132 352/325/129 349/322/132
f 596/603/132 349/322/132 597/604/132
f 597/604/132 349/322/132 347/320/132
f 598/605/132 355/328/132 599/606/132
f 599/606/132 355/328/132 357/330/132
f 162/607/93 161/608/93 159/609/93
f 162/607/93 159/609/93 600/610/93
f 600/610/93 159/609/93 601/611/93
f 157/612/93 602/613/93 603/614/93
f 157/612/93 603/614/93 154/615/93
f 154/615/93 603/614/93 152/616/93
f 604/617/169 358/331/169 605/618/169
f 605/618/169 358/331/169 362/335/169
f 606/619/113 607/620/113 257/230/113
f 257/230/113 607/620/113 252/225/113
f 252/225/113 607/620/113 253/226/113
f 253/226/113 607/620/113 372/345/113
f 608/621/113 609/622/113 273/246/113
f 273/246/113 609/622/113 268/241/113
f 268/241/113 609/622/113 269/242/113
f 269/242/113 609/622/113 548/544/113
f 610/623/113 611/624/113 288/261/113
f 288/261/113 611/624/113 282/255/113
f 282/255/113 611/624/113 283/256/113
f 283/256/113 611/624/113 546/542/113
f 612/625/113 613/626/113 301/274/113
f 301/274/113 613/626/113 296/269/113
f 296/269/113 613/626/113 297/270/113
f 297/270/113 613/626/113 541/537/113
f 614/627/113 615/628/113 316/289/113
f 316/289/113 615/628/113 310/283/113
f 310/283/113 615/628/113 311/284/113
f 311/284/113 615/628/113 536/532/113
f 616/629/113 617/630/113 345/318/113
f 345/318/113 617/630/113 339/312/113
f 339/312/113 617/630/113 340/313/113
f 340/313/113 617/630/113 531/527/113
f 618/631/113 619/632/113 509/488/113
f 509/488/113 619/632/113 508/487/113
f 508/487/113 619/632/113 490/469/113
f 490/469/113 619/632/113 492/471/113
f 436/413/132 620/633/132 431/408/132
f 431/408/132 620/633/132 507/486/132
f 507/486/132 620/633/132 506/485/132
f 506/485/132 620/633/132 621/634/132
f 398/371/132 622/635/132 250/223/132
f 250/223/132 622/635/132 247/220/132
f 247/220/132 622/635/132 245/218/132
f 245/218/132 622/635/132 623/636/132
f 573/580/132 624/637/132 266/239/132
f 266/239/132 624/637/132 263/236/132
f 263/236/132 624/637/132 261/234/132
f 261/234/132 624/637/132 625/638/132
f 574/581/132 626/639/132 281/254/132
f 281/254/132 626/639/132 277/250/132
f 277/250/132 626/639/132 275/248/132
f 275/248/132 626/639/132 627/640/132
f 579/586/132 628/641/132 295/268/132
f 295/268/132 628/641/132 294/267/132
f 294/267/132 628/641/132 292/265/132
f 292/265/132 628/641/132 629/642/132
f 584/591/132 630/643/132 308/281/132
f 308/281/132 630/643/132 305/278/132
f 305/278/132 630/643/132 303/276/132
f 303/276/132 630/643/132 631/644/132
f 589/596/132 632/645/132 351/324/132
f 351/324/132 632/645/132 348/321/132
f 348/321/132 632/645/132 346/319/132
f 346/319/132 632/645/132 633/646/132
f 240/213/113 239/212/113 634/647/113
f 634/647/113 239/212/113 635/648/113
f 634/647/113 635/648/113 636/649/113
f 636/649/113 635/648/113 637/650/113
f 636/649/113 637/650/113 638/651/113
f 638/651/113 637/650/113 639/652/113
f 640/653/132 641/654/132 642/655/132
f 642/655/132 641/654/132 643/656/132
f 643/656/132 641/654/132 644/657/132
f 643/656/132 644/657/132 645/658/132
f 645/658/132 644/657/132 236/209/132
f 645/658/132 236/209/132 235/208/132
f 335/308/170 336/309/170 646/659/171
f 646/659/171 336/309/170 647/660/172
f 165/138/113 164/137/113 324/661/113
f 324/661/113 164/137/113 259/662/113
f 169/142/113 168/141/113 329/663/113
f 329/663/113 168/141/113 243/664/113
f 173/146/113 172/145/113 331/665/113
f 331/665/113 172/145/113 241/666/113
f 177/150/113 176/149/113 337/667/113
f 337/667/113 176/149/113 233/668/113
f 181/154/113 180/153/113 353/669/113
f 353/669/113 180/153/113 231/670/113
f 325/671/132 260/672/132 167/140/132
f 167/140/132 260/672/132 166/139/132
f 330/673/132 244/674/132 171/144/132
f 171/144/132 244/674/132 170/143/132
f 332/675/132 242/676/132 175/148/132
f 175/148/132 242/676/132 174/147/132
f 338/677/132 234/678/132 179/152/132
f 179/152/132 234/678/132 178/151/132
f 354/679/132 232/680/132 183/156/132
f 183/156/132 232/680/132 182/155/132
f 463/681/173 648/682/174 462/683/175
f 462/683/175 648/682/174 649/684/176
f 648/682/174 463/681/173 650/685/177
f 462/683/175 649/684/176 461/686/178
f 650/685/177 463/681/173 464/687/179
f 461/686/178 649/684/176 651/688/180
f 650/685/177 464/687/179 652/689/181
f 461/686/178 651/688/180 460/690/182
f 652/689/181 464/687/179 467/691/183
f 460/690/182 651/688/180 653/692/184
f 652/689/181 467/691/183 654/693/57
f 460/690/182 653/692/184 458/694/185
f 654/693/57 467/691/183 469/695/57
f 458/694/185 653/692/184 655/696/186
f 458/694/185 655/696/186 457/697/187
f 457/697/187 655/696/186 656/698/187
f 457/697/187 656/698/187 657/699/188
f 457/697/187 657/699/188 456/700/189
f 456/700/189 657/699/188 658/701/190
f 456/700/189 658/701/190 455/702/191
f 455/702/191 658/701/190 659/703/192
f 455/702/191 659/703/192 454/559/193
f 454/559/193 659/703/192 560/560/194
f 660/704/57 654/693/57 469/695/57
f 660/704/57 469/695/57 471/705/57
f 660/704/57 471/705/57 472/706/57
f 660/704/57 472/706/57 474/707/57
f 660/704/57 474/707/57 476/708/57
f 660/704/57 476/708/57 478/709/57
f 647/660/1 336/309/1 425/710/1
f 647/660/1 425/710/1 426/711/1
f 647/660/1 426/711/1 661/712/1
f 661/712/1 426/711/1 662/713/1
f 427/714/1 429/715/1 430/716/1
f 427/714/1 430/716/1 428/717/1
f 428/717/1 430/716/1 663/718/1
f 663/718/1 430/716/1 439/719/1
f 439/719/1 430/716/1 434/720/1
f 434/720/1 430/716/1 432/721/1
f 664/722/1 360/723/1 665/724/1
f 665/724/1 360/723/1 356/725/1
f 665/724/1 356/725/1 355/328/1
f 665/724/1 355/328/1 598/605/1
f 361/726/57 666/727/57 362/335/57
f 362/335/57 666/727/57 605/618/57
f 5/728/195 667/729/195 7/730/196
f 7/730/196 667/729/195 668/731/196
f 7/730/196 668/731/196 9/732/197
f 9/732/197 668/731/196 669/733/197
f 9/732/197 669/733/197 11/734/198
f 11/734/198 669/733/197 670/735/198
f 11/734/198 670/735/198 13/736/199
f 13/736/199 670/735/198 671/737/199
f 13/736/199 671/737/199 14/738/200
f 14/738/200 671/737/199 672/739/200
f 14/738/200 672/739/200 16/740/113
f 16/740/113 672/739/200 673/741/113
f 674/742/132 675/743/132 201/744/132
f 201/744/132 675/743/132 200/745/132
f 422/746/1 424/747/1 676/748/1
f 422/746/1 676/748/1 677/749/1
f 422/746/1 677/749/1 423/750/1
f 678/751/113 192/752/113 679/753/113
f 679/753/113 192/752/113 190/754/113
f 680/755/113 323/296/113 50/756/113
f 50/756/113 323/296/113 51/8/113
f 681/757/132 682/758/201 15/759/132
f 15/759/132 682/758/201 12/760/201
f 12/760/201 682/758/201 683/761/202
f 12/760/201 683/761/202 10/762/202
f 10/762/202 683/761/202 684/763/203
f 10/762/202 684/763/203 8/764/203
f 8/764/203 684/763/203 685/765/204
f 8/764/203 685/765/204 6/766/204
f 6/766/204 685/765/204 686/767/205
f 6/766/204 686/767/205 4/768/205
f 4/768/205 686/767/205 687/769/206
f 4/768/205 687/769/206 3/770/206
f 3/770/206 687/769/206 688/771/168
f 3/770/206 688/771/168 1/772/168
f 1/772/168 688/771/168 5/773/195
f 5/773/195 688/771/168 667/774/195
f 46/3/132 321/294/132 47/775/132
f 47/775/132 321/294/132 689/776/132
f 604/617/207 599/606/207 358/331/207
f 358/331/207 599/606/207 357/330/207
f 416/391/113 417/392/113 690/777/113
f 690/777/113 417/392/113 691/778/113
f 82/54/208 320/293/208 84/56/208
f 84/56/208 320/293/208 326/299/208
f 328/301/132 317/290/132 87/59/132
f 87/59/132 317/290/132 89/61/132
f 426/711/132 423/750/132 677/749/132
f 426/711/132 677/749/132 662/713/132
f 428/717/209 663/718/210 676/748/209
f 428/717/209 676/748/209 424/747/113
f 201/744/211 199/779/212 674/742/211
f 674/742/211 199/779/212 692/780/212
f 692/780/212 199/779/212 693/781/213
f 693/781/213 199/779/212 198/782/213
f 693/781/213 198/782/213 694/783/214
f 694/783/214 198/782/213 197/784/214
f 694/783/214 197/784/214 695/785/215
f 695/785/215 197/784/214 195/786/215
f 695/785/215 195/786/215 194/787/132
f 695/785/215 194/787/132 696/788/132
f 697/789/132 698/790/132 189/791/132
f 189/791/132 698/790/132 187/792/132
f 699/793/113 216/794/113 700/795/113
f 700/795/113 216/794/113 203/796/113
f 646/659/171 647/660/172 701/797/132
f 701/797/132 647/660/172 661/712/132
f 701/798/132 702/799/132 646/800/171
f 646/800/171 702/799/132 703/801/132
f 646/800/171 703/801/132 704/802/132
f 704/802/132 703/801/132 705/803/132
f 706/804/216 707/805/216 656/698/216
f 656/698/216 707/805/216 657/699/217
f 706/804/216 656/698/216 655/696/218
f 657/699/217 707/805/216 708/806/217
f 706/804/216 655/696/218 709/807/218
f 657/699/217 708/806/217 658/701/217
f 709/807/218 655/696/218 653/692/218
f 658/701/217 708/806/217 710/808/219
f 709/807/218 653/692/218 711/809/218
f 658/701/217 710/808/219 659/703/219
f 711/809/218 653/692/218 651/688/220
f 659/703/219 710/808/219 712/810/221
f 659/703/219 712/810/221 560/560/221
f 560/560/221 712/810/221 558/556/222
f 711/809/218 651/688/220 713/811/220
f 713/811/220 651/688/220 649/684/220
f 713/811/220 649/684/220 714/812/223
f 714/812/223 649/684/220 648/682/223
f 714/812/223 648/682/223 715/813/223
f 715/813/223 648/682/223 650/685/224
f 715/813/223 650/685/224 716/814/224
f 716/814/224 650/685/224 652/689/224
f 716/814/224 652/689/224 717/815/224
f 717/815/224 652/689/224 654/693/224
f 717/815/224 654/693/224 718/816/224
f 718/816/224 654/693/224 660/704/225
f 718/816/224 660/704/225 719/817/226
f 162/607/113 600/610/113 163/818/113
f 163/818/113 600/610/113 720/819/113
f 157/612/132 156/820/132 602/613/132
f 602/613/132 156/820/132 721/821/132
f 722/822/168 18/30/168 65/31/168
f 18/30/168 722/822/168 681/757/168
f 18/30/168 681/757/168 15/759/168
f 723/823/168 65/31/168 724/824/168
f 724/824/168 65/31/168 468/445/168
f 724/824/168 468/445/168 690/825/227
f 690/825/227 468/445/168 466/443/168
f 690/825/227 466/443/168 459/436/168
f 690/825/227 459/436/168 416/826/168
f 416/826/168 459/436/168 453/430/168
f 416/826/168 453/430/168 725/827/168
f 499/478/168 414/389/168 725/828/168
f 725/828/168 414/389/168 416/391/168
f 16/740/168 673/741/168 45/49/168
f 45/49/168 673/741/168 726/829/168
f 45/49/168 726/829/168 78/50/168
f 727/830/113 601/611/113 131/831/113
f 131/831/113 601/611/113 159/609/113
f 149/832/132 152/616/132 728/833/132
f 728/833/132 152/616/132 603/614/132
f 723/834/168 724/835/168 78/50/168
f 78/50/168 724/835/168 505/484/168
f 505/484/168 724/835/168 690/777/227
f 505/484/168 690/777/227 504/483/228
f 504/483/228 690/777/227 691/778/228
f 504/483/228 691/778/228 501/480/228
f 501/480/228 691/778/228 417/392/168
f 501/480/228 417/392/168 415/390/168
f 729/836/229 730/837/229 660/704/225
f 730/837/229 729/836/229 731/838/229
f 189/791/168 188/514/168 697/789/168
f 697/789/168 188/514/168 522/513/168
f 192/752/168 678/751/168 193/839/168
f 193/839/168 678/751/168 732/840/168
f 193/839/168 732/840/168 696/788/168
f 193/839/168 696/788/168 194/787/168
f 216/794/168 699/793/168 217/841/168
f 217/841/168 699/793/168 526/842/168
f 733/843/168 151/844/168 150/845/168
f 733/843/168 150/845/168 728/833/168
f 728/833/168 150/845/168 149/832/168
f 131/831/168 129/846/168 130/847/168
f 131/831/168 130/847/168 727/830/168
f 727/830/168 130/847/168 734/848/168
f 200/745/168 675/743/168 203/796/168
f 203/796/168 675/743/168 700/795/168
f 187/792/168 698/790/168 190/754/168
f 190/754/168 698/790/168 679/753/168
f 666/849/168 735/850/168 605/618/168
f 605/618/168 735/850/168 604/617/168
f 604/617/168 735/850/168 664/851/168
f 604/617/168 664/851/168 665/852/168
f 604/617/168 665/852/168 598/605/168
f 604/617/168 598/605/168 599/606/168
f 106/853/230 736/854/230 737/855/231
f 736/854/230 106/853/230 738/856/232
f 106/853/230 737/855/231 109/857/231
f 738/856/232 106/853/230 103/858/232
f 109/857/231 737/855/231 113/859/233
f 738/856/232 103/858/232 739/860/168
f 113/859/233 737/855/231 740/861/233
f 739/860/168 103/858/232 101/862/168
f 113/859/233 740/861/233 114/863/234
f 739/860/168 101/862/168 741/864/235
f 114/863/234 740/861/233 742/865/234
f 741/864/235 101/862/168 98/866/235
f 114/863/234 742/865/234 116/867/236
f 741/864/235 98/866/235 743/868/237
f 116/867/236 742/865/234 744/869/236
f 743/868/237 98/866/235 100/870/237
f 116/867/236 744/869/236 120/871/238
f 743/868/237 100/870/237 745/872/239
f 120/871/238 744/869/236 746/873/238
f 745/872/239 100/870/237 133/874/239
f 120/871/238 746/873/238 127/875/113
f 745/872/239 133/874/239 134/876/240
f 127/875/113 746/873/238 747/877/113
f 127/875/113 747/877/113 130/847/113
f 130/847/113 747/877/113 734/848/113
f 745/872/239 134/876/240 748/878/240
f 748/878/240 134/876/240 749/879/241
f 749/879/241 134/876/240 136/880/241
f 749/879/241 136/880/241 750/881/242
f 750/881/242 136/880/241 140/882/242
f 750/881/242 140/882/242 751/883/243
f 751/883/243 140/882/242 144/884/243
f 751/883/243 144/884/243 752/885/132
f 752/885/132 144/884/243 148/886/132
f 752/885/132 148/886/132 733/843/132
f 733/843/132 148/886/132 151/844/132
f 597/604/1 621/634/1 596/603/1
f 596/603/1 621/634/1 620/633/1
f 596/603/1 620/633/1 436/413/1
f 596/603/1 436/413/1 594/601/1
f 594/601/1 436/413/1 591/598/1
f 528/524/1 527/523/1 492/471/1
f 528/524/1 492/471/1 529/525/1
f 529/525/1 492/471/1 619/632/1
f 529/525/1 619/632/1 618/631/1
f 529/525/1 618/631/1 530/526/1
f 704/802/244 705/803/244 753/887/244
f 753/887/244 705/803/244 754/888/244
f 753/887/244 754/888/244 729/836/244
f 729/836/244 754/888/244 731/838/168
f 533/529/1 532/528/1 531/527/1
f 533/529/1 531/527/1 534/530/1
f 534/530/1 531/527/1 617/630/1
f 534/530/1 617/630/1 616/629/1
f 534/530/1 616/629/1 535/531/1
f 595/602/1 633/646/1 593/600/1
f 593/600/1 633/646/1 632/645/1
f 593/600/1 632/645/1 589/596/1
f 593/600/1 589/596/1 592/599/1
f 592/599/1 589/596/1 590/597/1
f 335/889/57 646/800/57 482/890/57
f 482/890/57 646/800/57 704/802/57
f 482/890/57 704/802/57 753/887/57
f 482/890/57 753/887/57 481/891/57
f 481/891/57 753/887/57 729/836/57
f 478/709/57 481/891/57 729/836/57
f 478/709/57 729/836/57 660/704/57
f 320/293/245 319/292/245 326/299/245
f 326/299/245 319/292/245 413/892/245
f 326/299/245 413/892/245 755/893/246
f 326/299/245 755/893/246 327/300/9
f 327/300/9 755/893/246 328/301/246
f 328/301/246 755/893/246 412/894/246
f 328/301/246 412/894/246 318/291/246
f 328/301/246 318/291/246 317/290/246
f 588/595/1 631/644/1 587/594/1
f 587/594/1 631/644/1 630/643/1
f 587/594/1 630/643/1 584/591/1
f 587/594/1 584/591/1 586/593/1
f 586/593/1 584/591/1 585/592/1
f 538/534/1 537/533/1 536/532/1
f 538/534/1 536/532/1 539/535/1
f 539/535/1 536/532/1 615/628/1
f 539/535/1 615/628/1 614/627/1
f 539/535/1 614/627/1 540/536/1
f 583/590/1 629/642/1 582/589/1
f 582/589/1 629/642/1 628/641/1
f 582/589/1 628/641/1 579/586/1
f 582/589/1 579/586/1 581/588/1
f 581/588/1 579/586/1 580/587/1
f 543/539/1 542/538/1 541/537/1
f 543/539/1 541/537/1 544/540/1
f 544/540/1 541/537/1 613/626/1
f 544/540/1 613/626/1 612/625/1
f 544/540/1 612/625/1 545/541/1
f 578/585/1 627/640/1 577/584/1
f 577/584/1 627/640/1 626/639/1
f 577/584/1 626/639/1 574/581/1
f 577/584/1 574/581/1 576/583/1
f 576/583/1 574/581/1 575/582/1
f 550/546/1 547/543/1 546/542/1
f 550/546/1 546/542/1 551/547/1
f 551/547/1 546/542/1 611/624/1
f 551/547/1 611/624/1 610/623/1
f 551/547/1 610/623/1 552/548/1
f 569/576/1 625/638/1 570/577/1
f 570/577/1 625/638/1 624/637/1
f 570/577/1 624/637/1 573/580/1
f 570/577/1 573/580/1 571/578/1
f 571/578/1 573/580/1 572/579/1
f 553/549/1 549/545/1 548/544/1
f 553/549/1 548/544/1 554/550/1
f 554/550/1 548/544/1 609/622/1
f 554/550/1 609/622/1 608/621/1
f 554/550/1 608/621/1 555/551/1
f 411/384/1 623/636/1 404/377/1
f 404/377/1 623/636/1 622/635/1
f 404/377/1 622/635/1 398/371/1
f 404/377/1 398/371/1 401/374/1
f 401/374/1 398/371/1 399/372/1
f 375/348/1 373/346/1 372/345/1
f 375/348/1 372/345/1 378/351/1
f 378/351/1 372/345/1 607/620/1
f 378/351/1 607/620/1 606/619/1
f 378/351/1 606/619/1 381/354/1
f 689/895/247 321/294/247 756/896/248
f 756/896/248 321/294/247 322/295/247
f 756/896/248 322/295/247 323/296/248
f 756/896/248 323/296/248 680/897/248
