# CS2 body mesh, tools/cs2_glb_to_obj.py
v -0.01729 0.02176 0.09807
v -0.01737 0.02238 0.09805
v -0.02058 0.02113 0.09525
v 0.01542 0.02113 0.09525
v 0.01409 0.02373 0.0952
v 0.01215 0.02176 0.09807
v 0.01222 0.02238 0.09805
v -0.01923 0.02373 0.0952
v -0.01925 0.0239 0.0784
v 0.01411 0.0239 0.0784
v -0.01952 0.02608 0.06812
v -0.01919 0.02342 0.08844
v 0.01437 0.02608 0.06812
v 0.01405 0.02342 0.08844
v -0.02015 0.03105 0.05854
v 0.01501 0.03105 0.05854
v 0.01602 0.0385 0.04916
v -0.02116 0.0385 0.04916
v -0.02248 0.04797 0.04019
v 0.01734 0.04797 0.04019
v -0.02413 0.05983 0.03284
v -0.01687 0.01815 0.09536
v 0.01899 0.05983 0.03284
v 0.01172 0.01815 0.09536
v -0.02571 0.07141 0.02857
v 0.01151 0.01644 0.08828
v 0.02057 0.07141 0.02856
v -0.01666 0.01644 0.08828
v 0.02213 0.08363 0.02624
v 0.01147 0.01611 0.07764
v -0.02726 0.08363 0.02624
v -0.01662 0.01611 0.07764
v -0.02877 0.09711 0.02632
v 0.01156 0.01689 0.06556
v 0.02364 0.09711 0.02632
v -0.01671 0.01689 0.06556
v -0.03009 0.11231 0.02822
v -0.01715 0.02061 0.05199
v 0.02495 0.11231 0.02822
v 0.012 0.02061 0.05199
v 0.02574 0.12444 0.03089
v -0.01796 0.02698 0.03919
v -0.03087 0.12444 0.03089
v -0.03108 0.14269 0.03721
v 0.02597 0.14269 0.03721
v 0.01281 0.02698 0.03919
v 0.01416 0.03706 0.02691
v -0.0193 0.03706 0.02691
v 0.01618 0.05168 0.0169
v -0.02133 0.05168 0.0169
v 0.0181 0.06544 0.01002
v -0.02324 0.06544 0.01002
v -0.02519 0.08045 0.00605
v 0.02005 0.08045 0.00605
v -0.02705 0.09667 0.00512
v 0.02192 0.09667 0.00512
v 0.02324 0.11183 0.00638
v -0.02837 0.11183 0.00638
v -0.02918 0.1241 0.00831
v 0.02406 0.1241 0.00831
v 0.0243 0.14234 0.01209
v -0.02942 0.14234 0.01209
v -0.02082 0.02313 0.05357
v -0.03253 0.12414 0.01121
v -0.03275 0.14238 0.01499
v -0.0229 0.03889 0.02915
v -0.02487 0.05299 0.01946
v -0.02671 0.06632 0.01275
v -0.0286 0.0809 0.00886
v -0.03041 0.09672 0.00796
v -0.03173 0.11189 0.00926
v 0.01776 0.03889 0.02915
v 0.01973 0.05299 0.01946
v 0.02157 0.06632 0.01275
v 0.02347 0.0809 0.00886
v 0.02528 0.09672 0.00796
v 0.0266 0.11189 0.00926
v 0.02741 0.12414 0.01121
v 0.02764 0.14238 0.01499
v 0.01567 0.02313 0.05357
v -0.0216 0.0292 0.04111
v 0.01646 0.0292 0.04111
v -0.0204 0.01973 0.06634
v 0.01525 0.01973 0.06634
v -0.02032 0.01904 0.07792
v 0.01518 0.01904 0.07792
v -0.02036 0.01941 0.08834
v 0.01522 0.01941 0.08834
vt 0.756348 0.281494
vt 0.756836 0.281006
vt 0.754395 0.279785
vt 0.693359 0.32251
vt 0.694824 0.321289
vt 0.695312 0.324219
vt 0.695801 0.323975
vt 0.755859 0.278564
vt 0.792969 0.407959
vt 0.792969 0.386475
vt 0.785156 0.407959
vt 0.799805 0.407959
vt 0.785156 0.386475
vt 0.799805 0.386719
vt 0.777344 0.408447
vt 0.804688 0.386719
vt 0.777344 0.385986
vt 0.804688 0.407959
vt 0.769043 0.385254
vt 0.807129 0.406738
vt 0.769043 0.40918
vt 0.807129 0.387695
vt 0.759277 0.409912
vt 0.807617 0.387939
vt 0.759277 0.384521
vt 0.807617 0.406738
vt 0.749512 0.411133
vt 0.810547 0.406494
vt 0.749512 0.383545
vt 0.810547 0.388184
vt 0.740234 0.412109
vt 0.815918 0.388184
vt 0.740234 0.382568
vt 0.815918 0.40625
vt 0.731445 0.381348
vt 0.823242 0.388184
vt 0.731445 0.413086
vt 0.823242 0.40625
vt 0.72168 0.414062
vt 0.832031 0.388184
vt 0.72168 0.380615
vt 0.832031 0.40625
vt 0.710449 0.414795
vt 0.842285 0.406494
vt 0.710449 0.379639
vt 0.842285 0.387939
vt 0.70166 0.37915
vt 0.852539 0.406982
vt 0.70166 0.415283
vt 0.6875 0.415527
vt 0.6875 0.378906
vt 0.852539 0.387451
vt 0.864258 0.386475
vt 0.864258 0.407959
vt 0.876953 0.385254
vt 0.876953 0.40918
vt 0.888184 0.384033
vt 0.888184 0.4104
vt 0.899414 0.411621
vt 0.899414 0.382812
vt 0.911133 0.412842
vt 0.911133 0.381592
vt 0.921875 0.380859
vt 0.921875 0.413818
vt 0.931152 0.414307
vt 0.931152 0.380127
vt 0.944336 0.380127
vt 0.944336 0.414307
vt 0.73584 0.259033
vt 0.732422 0.250977
vt 0.72998 0.262207
vt 0.731934 0.181885
vt 0.745117 0.187012
vt 0.739258 0.170654
vt 0.754395 0.176392
vt 0.719238 0.244141
vt 0.729492 0.241699
vt 0.717285 0.231934
vt 0.728516 0.231567
vt 0.716797 0.221069
vt 0.729004 0.222412
vt 0.730957 0.213501
vt 0.71875 0.210327
vt 0.722168 0.199463
vt 0.734863 0.204346
vt 0.727051 0.189575
vt 0.740234 0.19458
vt 0.659668 0.285645
vt 0.668945 0.273438
vt 0.669922 0.283691
vt 0.658203 0.273438
vt 0.658203 0.262695
vt 0.669922 0.264404
vt 0.672363 0.255371
vt 0.660156 0.251953
vt 0.664062 0.241211
vt 0.67627 0.246582
vt 0.669434 0.231567
vt 0.682129 0.236938
vt 0.6875 0.229614
vt 0.674316 0.223999
vt 0.682129 0.213013
vt 0.696777 0.21936
vt 0.675293 0.30127
vt 0.669434 0.304443
vt 0.672363 0.292969
vt 0.724121 0.25415
vt 0.664062 0.296143
vt 0.740234 0.265869
vt 0.736816 0.269043
vt 0.679688 0.308105
vt 0.675781 0.311279
vt 0.745605 0.27124
vt 0.743164 0.273926
vt 0.685059 0.313721
vt 0.682617 0.316406
vt 0.751465 0.275635
vt 0.749512 0.277832
vt 0.690918 0.318115
vt 0.688965 0.320557
vt 0.71582 0.209839
vt 0.713867 0.221069
vt 0.714355 0.2323
vt 0.719238 0.198486
vt 0.716309 0.245117
vt 0.724609 0.188599
vt 0.721191 0.255615
vt 0.729004 0.180786
vt 0.736328 0.169434
vt 0.727051 0.26416
vt 0.734375 0.271484
vt 0.741699 0.276611
vt 0.748047 0.280762
vt 0.75293 0.282471
vt 0.657227 0.251221
vt 0.655273 0.262451
vt 0.661133 0.240234
vt 0.655273 0.273682
vt 0.666504 0.230469
vt 0.656738 0.286621
vt 0.671387 0.222778
vt 0.679199 0.21167
vt 0.661133 0.297363
vt 0.666992 0.306152
vt 0.673828 0.313477
vt 0.680664 0.318848
vt 0.687012 0.323242
vt 0.692383 0.325195
vn -0.6456 -0.0469 0.7622
vn 0.6414 0.3776 0.6678
vn 0.8384 -0.0933 0.5369
vn -0.6958 0.3734 0.6136
vn 0.0011 0.9924 0.1234
vn 0.0012 0.9469 0.3214
vn -0.0169 0.9999 0.001
vn 0.0013 0.852 0.5236
vn 0.0011 0.9897 0.143
vn 0.0014 0.7395 0.6732
vn 0.0014 0.6468 0.7627
vn 0.0014 0.6228 0.7823
vn 0 -0.2742 0.9617
vn 0.0013 0.4446 0.8957
vn 0 -0.8184 0.5746
vn 0.0012 0.2746 0.9616
vn 0 -0.9896 0.1441
vn 0.0011 0.0858 0.9963
vn 0 -0.9999 -0.0159
vn 0 -0.0677 0.9977
vn 0 -0.9864 -0.1642
vn 0 -0.1655 0.9862
vn 0 -0.938 -0.3466
vn 0 -0.2515 0.9679
vn 0 -0.8514 -0.5245
vn 0 -0.3211 0.9471
vn 0 -0.6725 -0.7401
vn 0 -0.523 -0.8523
vn 0 -0.3481 -0.9375
vn -0.0181 -0.1479 -0.9888
vn 0 -0.1655 -0.9862
vn 0.001 0.0149 -0.9999
vn -0.0183 0.0872 -0.996
vn -0.0192 0.1455 -0.9892
vn -0.0195 0.166 -0.9859
vn -0.9942 0.0186 0.1061
vn -0.996 -0.0161 0.0882
vn -0.9923 -0.0555 0.111
vn -0.9941 -0.0164 0.1071
vn -0.9908 -0.0749 0.1129
vn -0.9911 -0.0934 0.0945
vn -0.9929 -0.0737 0.0929
vn 0.9908 -0.0749 0.1129
vn 0.9935 -0.0344 0.1089
vn 0.9888 -0.0949 0.1148
vn 0.9889 -0.1136 0.0961
vn 0.9911 -0.0934 0.0945
vn 0.9929 -0.0737 0.0929
vn 0.9954 -0.0339 0.0897
vn 0.9935 0.0367 0.1079
vn -0.989 0.0948 0.1135
vn 0.9866 0.1154 0.1154
vn -0.9977 0.0158 0.0665
vn 0.9978 -0.001 0.0667
vn -0.998 0.052 0.035
vn 0.9969 0.0701 0.0356
vn -0.9787 0.1967 0.0591
vn 0.9738 0.2193 0.06
vn -0.9897 0.143 0.0011
vn 0.9866 0.1631 0.0011
vn -0.9546 0.2978 0.0012
vn 0.9469 0.3214 0.0012
vn -0.9821 0.1871 -0.0198
vn 0.9778 0.2088 -0.0201
vn -0.8976 0.4387 -0.0445
vn 0.8843 0.4647 -0.045
vn -0.9623 0.2512 -0.1043
vn 0.9554 0.2758 -0.1059
vn -0.6542 -0.2031 -0.7286
vn -0.6371 -0.3447 -0.6894
vn -0.656 -0.0708 -0.7514
vn -0.6274 -0.4613 -0.6274
vn -0.6606 0.0238 -0.7504
vn -0.6313 -0.5756 -0.5199
vn -0.6483 -0.0014 -0.7614
vn -0.6429 0.0952 -0.76
vn -0.6428 -0.6675 -0.3758
vn -0.6576 0.0708 -0.7501
vn -0.6528 0.1204 -0.7479
vn -0.6356 -0.7374 -0.2286
vn -0.6152 -0.7828 -0.0933
vn -0.6237 -0.7817 0
vn -0.6407 -0.7621 0.0936
vn -0.6518 -0.7485 0.122
vn -0.6156 -0.693 0.3753
vn -0.5926 -0.6969 0.4039
vn -0.4896 -0.5449 0.6807
vn 0.6361 -0.2303 -0.7364
vn 0.6153 -0.3734 -0.6942
vn 0.6413 -0.0952 -0.7614
vn 0.6028 -0.49 -0.6297
vn 0.6352 0.0209 -0.772
vn 0.6047 -0.603 -0.5203
vn 0.6471 0.0469 -0.7609
vn 0.6429 0.0952 -0.76
vn 0.6156 -0.693 -0.3753
vn 0.6367 0.146 -0.7571
vn 0.6086 -0.76 -0.2279
vn 0.5892 -0.8026 -0.0929
vn 0.5993 -0.8005 0
vn 0.6262 -0.7701 0.1217
vn 0.6152 -0.7828 0.0933
vn 0.5606 -0.7238 0.4023
vn 0.5877 -0.7173 0.3743
vn 0.4617 -0.5705 0.6792
o trigger__p0_c0
f 1/1/1 2/2/1 3/3/1
f 4/4/2 5/5/2 6/6/2
f 7/7/3 6/6/3 5/5/3
f 8/8/4 3/3/4 2/2/4
f 9/9/5 10/10/5 11/11/6
f 10/10/5 9/9/5 12/12/7
f 11/11/6 10/10/5 13/13/6
f 10/10/5 12/12/7 14/14/7
f 11/11/6 13/13/6 15/15/8
f 14/14/7 12/12/7 5/16/9
f 15/15/8 13/13/6 16/17/8
f 5/16/9 12/12/7 8/18/9
f 15/15/8 16/17/8 17/19/10
f 5/16/9 8/18/9 2/20/11
f 15/15/8 17/19/10 18/21/10
f 5/16/9 2/20/11 7/22/11
f 18/21/10 17/19/10 19/23/12
f 7/22/11 2/20/11 6/24/13
f 19/23/12 17/19/10 20/25/12
f 6/24/13 2/20/11 1/26/13
f 19/23/12 20/25/12 21/27/14
f 6/24/13 1/26/13 22/28/15
f 21/27/14 20/25/12 23/29/14
f 6/24/13 22/28/15 24/30/15
f 21/27/14 23/29/14 25/31/16
f 24/30/15 22/28/15 26/32/17
f 25/31/16 23/29/14 27/33/16
f 26/32/17 22/28/15 28/34/17
f 25/31/16 27/33/16 29/35/18
f 26/32/17 28/34/17 30/36/19
f 25/31/16 29/35/18 31/37/18
f 30/36/19 28/34/17 32/38/19
f 31/37/18 29/35/18 33/39/20
f 30/36/19 32/38/19 34/40/21
f 33/39/20 29/35/18 35/41/20
f 34/40/21 32/38/19 36/42/21
f 33/39/20 35/41/20 37/43/22
f 34/40/21 36/42/21 38/44/23
f 37/43/22 35/41/20 39/45/22
f 34/40/21 38/44/23 40/46/23
f 37/43/22 39/45/22 41/47/24
f 40/46/23 38/44/23 42/48/25
f 37/43/22 41/47/24 43/49/24
f 43/49/24 41/47/24 44/50/26
f 44/50/26 41/47/24 45/51/26
f 40/46/23 42/48/25 46/52/25
f 46/52/25 42/48/25 47/53/27
f 47/53/27 42/48/25 48/54/27
f 47/53/27 48/54/27 49/55/28
f 49/55/28 48/54/27 50/56/28
f 49/55/28 50/56/28 51/57/29
f 51/57/29 50/56/28 52/58/29
f 51/57/29 52/58/29 53/59/30
f 51/57/29 53/59/30 54/60/31
f 54/60/31 53/59/30 55/61/32
f 54/60/31 55/61/32 56/62/32
f 56/62/32 55/61/32 57/63/33
f 57/63/33 55/61/32 58/64/33
f 57/63/33 58/64/33 59/65/34
f 57/63/33 59/65/34 60/66/34
f 60/66/34 59/65/34 61/67/35
f 61/67/35 59/65/34 62/68/35
f 15/69/36 18/70/36 63/71/36
f 64/72/37 43/73/37 65/74/37
f 65/74/37 43/73/37 44/75/37
f 66/76/38 19/77/39 67/78/38
f 21/79/38 67/78/38 19/77/38
f 67/78/38 21/79/38 68/80/38
f 68/80/38 21/79/38 25/81/40
f 68/80/38 25/81/40 31/82/41
f 68/80/38 31/82/41 69/83/41
f 69/83/41 31/82/41 70/84/41
f 70/84/41 31/82/41 33/85/41
f 70/84/41 33/85/41 71/86/42
f 71/86/42 33/85/41 37/87/42
f 71/86/42 37/87/42 64/72/42
f 64/72/42 37/87/42 43/73/42
f 72/88/43 23/89/43 20/90/44
f 23/89/43 72/88/43 73/91/43
f 23/89/43 73/91/43 74/92/43
f 23/89/43 74/92/43 27/93/45
f 27/93/45 74/92/43 29/94/46
f 29/94/46 74/92/43 75/95/46
f 29/94/46 75/95/46 76/96/46
f 29/94/46 76/96/46 35/97/46
f 35/97/46 76/96/46 77/98/47
f 35/97/46 77/98/47 39/99/47
f 39/99/47 77/98/47 41/100/47
f 41/100/47 77/98/47 78/101/48
f 78/101/49 79/102/49 41/100/49
f 41/100/49 79/102/49 45/103/49
f 16/104/50 80/105/50 17/106/50
f 66/76/37 81/107/39 19/77/39
f 19/77/39 81/107/39 18/70/39
f 72/88/49 20/90/44 82/108/44
f 82/108/44 20/90/44 17/106/44
f 11/109/51 15/69/51 83/110/51
f 13/111/52 84/112/52 16/104/52
f 81/107/53 63/71/53 18/70/53
f 82/108/54 17/106/54 80/105/54
f 63/71/55 83/110/55 15/69/55
f 80/105/56 16/104/56 84/112/56
f 9/113/57 11/109/57 85/114/57
f 10/115/58 86/116/58 13/111/58
f 83/110/59 85/114/59 11/109/59
f 84/112/60 13/111/60 86/116/60
f 12/117/61 9/113/61 87/118/61
f 14/119/62 88/120/62 10/115/62
f 85/114/63 87/118/63 9/113/63
f 86/116/64 10/115/64 88/120/64
f 8/8/65 12/117/65 3/3/65
f 5/5/66 4/4/66 14/119/66
f 87/118/67 3/3/67 12/117/67
f 88/120/68 14/119/68 4/4/68
f 53/121/69 52/122/70 69/83/69
f 69/83/69 52/122/70 68/80/70
f 53/121/69 69/83/69 70/84/71
f 68/80/70 52/122/70 50/123/72
f 53/121/69 70/84/71 55/124/71
f 68/80/70 50/123/72 67/78/72
f 55/124/71 70/84/71 71/86/73
f 67/78/72 50/123/72 48/125/74
f 55/124/71 71/86/73 58/126/75
f 67/78/72 48/125/74 66/76/74
f 58/126/75 71/86/73 64/72/76
f 66/76/74 48/125/74 42/127/77
f 58/126/75 64/72/76 59/128/78
f 59/128/78 64/72/76 65/74/79
f 59/128/78 65/74/79 62/129/79
f 66/76/74 42/127/77 81/107/77
f 81/107/77 42/127/77 38/130/80
f 81/107/77 38/130/80 63/71/80
f 63/71/80 38/130/80 36/131/81
f 63/71/80 36/131/81 83/110/81
f 83/110/81 36/131/81 32/132/82
f 83/110/81 32/132/82 85/114/82
f 85/114/82 32/132/82 28/133/83
f 85/114/82 28/133/83 87/118/84
f 87/118/84 28/133/83 22/134/85
f 87/118/84 22/134/85 3/3/86
f 3/3/86 22/134/85 1/1/87
f 75/95/88 74/92/89 54/135/88
f 54/135/88 74/92/89 51/136/89
f 75/95/88 54/135/88 56/137/90
f 51/136/89 74/92/89 73/91/91
f 75/95/88 56/137/90 76/96/90
f 51/136/89 73/91/91 49/138/91
f 76/96/90 56/137/90 57/139/92
f 49/138/91 73/91/91 72/88/93
f 76/96/90 57/139/92 77/98/94
f 49/138/91 72/88/93 47/140/93
f 77/98/94 57/139/92 60/141/95
f 47/140/93 72/88/93 82/108/96
f 77/98/94 60/141/95 78/101/95
f 78/101/95 60/141/95 61/142/97
f 78/101/95 61/142/97 79/102/97
f 47/140/93 82/108/96 46/143/96
f 46/143/96 82/108/96 80/105/98
f 46/143/96 80/105/98 40/144/98
f 40/144/98 80/105/98 84/112/99
f 40/144/98 84/112/99 34/145/99
f 34/145/99 84/112/99 86/116/100
f 34/145/99 86/116/100 30/146/100
f 30/146/100 86/116/100 88/120/101
f 30/146/100 88/120/101 26/147/102
f 26/147/102 88/120/101 4/4/103
f 26/147/102 4/4/103 24/148/104
f 24/148/104 4/4/103 6/6/105
