# CS2 body mesh, tools/cs2_glb_to_obj.py
v -0.00285 0.30124 -0.45819
v -0.02243 0.30127 -0.45817
v -0.00285 0.31303 -0.45253
v -0.02243 0.31303 -0.45253
v -0.02229 0.31503 -0.4515
v -0.00285 0.31673 -0.45079
v -0.01939 0.31784 -0.45032
v -0.00735 0.32171 -0.44846
v -0.00285 0.3216 -0.44847
v -0.01604 0.31992 -0.4493
v -0.01164 0.3213 -0.44864
v 0.00594 0.3213 -0.44883
v 0.00166 0.32171 -0.44849
v 0.01369 0.31784 -0.45032
v 0.01034 0.31992 -0.4493
v 0.01659 0.31503 -0.4515
v 0.01674 0.31303 -0.45253
v 0.01674 0.30127 -0.45817
v -0.01618 0.32036 -0.44871
v 0.01049 0.32036 -0.44871
v -0.01972 0.31824 -0.44973
v 0.01402 0.31824 -0.44973
v -0.00285 0.32205 -0.44778
v -0.02303 0.31513 -0.45101
v -0.01176 0.3217 -0.44797
v -0.00739 0.32211 -0.44774
v 0.00607 0.3217 -0.44817
v 0.0017 0.32211 -0.44777
v 0.01733 0.31513 -0.45101
v -0.02244 0.26304 -0.44938
v -0.02244 0.26401 -0.44904
v -0.00285 0.26304 -0.44938
v -0.00285 0.26401 -0.44904
v 0.01674 0.26401 -0.44904
v 0.01674 0.26304 -0.44938
v -0.02303 0.31288 -0.45202
v 0.01733 0.31288 -0.45202
v -0.02244 0.27756 -0.44757
v -0.00285 0.27756 -0.44757
v 0.01674 0.27756 -0.44757
v -0.00285 0.30029 -0.45819
v -0.02243 0.30032 -0.45817
v 0.01674 0.30032 -0.45817
v -0.00285 0.25522 -0.45418
v 0.01674 0.25522 -0.45418
v -0.00285 0.24725 -0.45933
v 0.01674 0.24725 -0.45933
v -0.00285 0.2463 -0.45949
v 0.01674 0.2463 -0.45949
v -0.00285 0.23746 -0.45726
v 0.01674 0.23746 -0.45726
v -0.00285 0.23258 -0.44818
v 0.01674 0.23254 -0.44861
v -0.02244 0.23254 -0.44861
v -0.02244 0.23746 -0.45726
v -0.02244 0.2463 -0.45949
v -0.02244 0.24725 -0.45933
v -0.02244 0.25522 -0.45418
v -0.02303 0.24684 -0.45903
v -0.02303 0.3008 -0.45781
v 0.01734 0.24684 -0.45903
v 0.01733 0.3008 -0.45781
v -0.02303 0.25492 -0.45375
v -0.02303 0.26337 -0.44857
v 0.01734 0.26337 -0.44857
v 0.01734 0.25492 -0.45375
v -0.02244 0.27856 -0.44775
v -0.00285 0.27856 -0.44775
v 0.01674 0.27856 -0.44775
v -0.02303 0.27797 -0.447
v 0.01734 0.27797 -0.447
v -0.02303 0.23779 -0.4568
v 0.01734 0.23779 -0.4568
v -0.00285 0.32043 -0.43888
v 0.00222 0.32036 -0.43905
v 0.00616 0.31985 -0.43937
v -0.02303 0.31311 -0.44122
v -0.0197 0.31632 -0.44029
v -0.01641 0.31852 -0.43957
v -0.01186 0.31985 -0.43937
v -0.00792 0.32036 -0.43905
v 0.01072 0.31852 -0.43957
v 0.01401 0.31632 -0.44029
v 0.01734 0.31311 -0.44122
v -0.00285 0.30444 -0.42359
v 0.01734 0.30444 -0.42359
v -0.00285 0.30685 -0.43158
v 0.01734 0.30685 -0.43158
v -0.00285 0.3092 -0.43955
v 0.01734 0.3092 -0.43955
v -0.02303 0.3092 -0.43955
v -0.02303 0.30685 -0.43158
v -0.02303 0.30444 -0.42359
v -0.02303 0.23263 -0.44774
v 0.01734 0.23263 -0.44774
v -0.02303 0.24771 -0.44313
v -0.02303 0.23682 -0.44277
v -0.02303 0.22978 -0.42582
v -0.02303 0.23687 -0.41872
v -0.02303 0.24683 -0.41627
v -0.02303 0.25623 -0.41782
v -0.02303 0.26193 -0.44225
v -0.02303 0.25988 -0.43322
v -0.02303 0.2761 -0.43903
v -0.02303 0.27367 -0.43011
v 0.01734 0.26193 -0.44225
v 0.01734 0.24771 -0.44313
v 0.01734 0.23682 -0.44277
v 0.01734 0.22978 -0.42582
v 0.01734 0.23687 -0.41872
v 0.01734 0.24683 -0.41627
v 0.01734 0.25623 -0.41782
v 0.01734 0.25988 -0.43322
v 0.01734 0.2761 -0.43903
v 0.01734 0.27367 -0.43011
v -0.00285 0.22978 -0.42582
v -0.00285 0.23682 -0.44277
v -0.00285 0.23687 -0.41872
v -0.00285 0.24683 -0.41627
v -0.00285 0.25623 -0.41782
v -0.00285 0.25988 -0.43322
v -0.00285 0.27367 -0.43011
vt 1.21582 0.831055
vt 1.21582 0.842773
vt 1.225586 0.831055
vt 1.225586 0.842773
vt 1.226562 0.842773
vt 1.228516 0.831055
vt 1.228516 0.841309
vt 1.231445 0.833984
vt 1.231445 0.831055
vt 1.230469 0.838867
vt 1.231445 0.836426
vt 0.232178 0.831055
vt 0.231934 0.836426
vt 0.228516 0.831055
vt 0.2323 0.833984
vt 0.22937 0.841309
vt 0.230957 0.838867
vt 0.227295 0.842773
vt 0.225708 0.831055
vt 0.225708 0.842773
vt 0.216675 0.842773
vt 0.216675 0.831055
vt 1.231445 0.839355
vt 0.231445 0.839355
vt 1.229492 0.841309
vt 0.229858 0.841309
vt 0.232666 0.831055
vt 1.232422 0.831055
vt 1.227539 0.843262
vt 1.232422 0.836426
vt 1.232422 0.833984
vt 0.232422 0.836426
vt 0.232788 0.833984
vt 0.227539 0.843262
vt 1.188477 0.843262
vt 1.188477 0.831055
vt 0.189331 0.831055
vt 0.189331 0.843262
vt 0.188721 0.831055
vt 0.188721 0.843262
vt 1.225586 0.843262
vt 0.22583 0.843262
vt 1.198242 0.842773
vt 1.198242 0.831055
vt 0.19873 0.831055
vt 0.19873 0.842773
vt 0.216064 0.842773
vt 0.216064 0.831055
vt 0.182373 0.831055
vt 0.182373 0.843262
vt 0.175781 0.831055
vt 0.175781 0.843262
vt 0.175171 0.831055
vt 0.175171 0.843262
vt 0.168823 0.831055
vt 0.168945 0.843262
vt 0.161743 0.831055
vt 0.162109 0.843262
vt 1.162109 0.843262
vt 1.168945 0.843262
vt 1.161133 0.831055
vt 1.167969 0.831055
vt 1.174805 0.843262
vt 1.174805 0.831055
vt 1.175781 0.843262
vt 1.175781 0.831055
vt 1.181641 0.843262
vt 1.181641 0.831055
vt 1.174805 0.84375
vt -0.051849 0.801758
vt -0.052124 0.802246
vt -0.04303 0.803711
vt -0.043091 0.804199
vt 0.175659 0.84375
vt -0.088318 0.80957
vt -0.088623 0.810059
vt -0.082153 0.812012
vt 1.21582 0.843262
vt -0.082336 0.8125
vt -0.076111 0.813965
vt -0.075806 0.814453
vt 0.216431 0.843262
vt 1.199219 0.842773
vt 1.199219 0.831055
vt 0.199463 0.831055
vt 0.199463 0.842773
vt -0.075439 0.813965
vt -0.066101 0.812988
vt -0.065735 0.812988
vt -0.094727 0.812988
vt -0.094299 0.812988
vt -0.089111 0.810059
vt -0.065491 0.8125
vt -0.027069 0.811523
vt -0.030151 0.811523
vt -0.027405 0.804688
vt -0.030167 0.805176
vt -0.032837 0.805176
vt -0.032593 0.811523
vt -0.052612 0.802246
vt -0.041412 0.804688
vt -0.041168 0.811523
vt -0.038361 0.804688
vt -0.038086 0.811523
vt -0.035492 0.811523
vt -0.035706 0.805176
vt 0.081421 0.831543
vt 0.081421 0.84375
vt 0.075623 0.831543
vt 0.075623 0.84375
vt 0.069885 0.831543
vt 0.069885 0.84375
vt 1.069336 0.84375
vt 1.075195 0.84375
vt 1.069336 0.831543
vt 1.075195 0.831543
vt 1.081055 0.84375
vt 1.081055 0.831543
vt -0.096619 0.819336
vt -0.096252 0.819824
vt -0.085449 0.820801
vt -0.092651 0.822754
vt -0.094666 0.835449
vt -0.088745 0.838867
vt -0.081665 0.838867
vt -0.075623 0.836426
vt -0.075745 0.818848
vt -0.075623 0.825195
vt -0.065674 0.818848
vt -0.065918 0.825195
vt -0.043884 0.818848
vt -0.04422 0.824707
vt -0.043549 0.812988
vt 1.143555 0.84375
vt 1.15625 0.84375
vt 1.143555 0.831543
vt 1.15625 0.831055
vt 0.156982 0.831055
vt 0.156982 0.84375
vt 0.144287 0.831543
vt 0.144409 0.84375
vt 1.161133 0.84375
vt 0.161499 0.84375
vt 1.066406 0.84375
vt 0.0672 0.84375
vt 1.0625 0.836914
vt 1.063477 0.839844
vt 1.061523 0.834473
vt 0.062561 0.836914
vt 0.062195 0.834473
vt 0.063477 0.839844
vt 0.137451 0.831543
vt 0.137451 0.84375
vt 0.130371 0.831543
vt 0.130371 0.84375
vt 0.123779 0.831543
vt 0.123779 0.84375
vt 0.112854 0.831543
vt 0.112854 0.84375
vt 1.112305 0.84375
vt 1.123047 0.84375
vt 1.112305 0.831543
vt 1.123047 0.831543
vt 1.129883 0.84375
vt 1.129883 0.831543
vt 1.136719 0.84375
vt 1.136719 0.831543
vt 1.061523 0.831543
vt 0.062134 0.831543
vt 0.103088 0.831543
vt 0.103088 0.84375
vt 1.102539 0.84375
vt 1.102539 0.831543
vt 1.064453 0.841797
vt 0.064941 0.841797
vn 0.0013 0.4195 -0.9078
vn -0.0223 0.402 -0.9154
vn -0.022 0.3769 -0.926
vn -0.0225 0.4306 -0.9023
vn -0.0231 0.5075 -0.8613
vn 0.0013 0.3945 -0.9189
vn 0.0691 0.5261 -0.8476
vn -0.1726 0.7436 -0.6459
vn 0.172 0.7685 -0.6163
vn -0.2865 0.7282 -0.6226
vn -0.2585 0.7216 -0.6423
vn 0.2303 0.7379 -0.6345
vn 0.2578 0.745 -0.6153
vn -0.0463 0.8213 -0.5686
vn 0.0014 0.836 -0.5487
vn -0.374 0.6442 -0.6672
vn -0.3734 0.6136 -0.6958
vn -0.0696 0.8307 -0.5524
vn 0.0233 0.8457 -0.5332
vn 0.3447 0.6354 -0.691
vn 0.3449 0.6653 -0.6621
vn -0.1692 0.828 -0.5345
vn 0.1692 0.828 -0.5345
vn -0.0229 0.876 -0.4818
vn 0.0013 0.8811 -0.473
vn -0.0686 0.8635 -0.4996
vn 0.0454 0.8701 -0.4907
vn -0.0212 0.3034 -0.9526
vn 0.0012 0.3214 -0.9469
vn -0.4929 0.3366 -0.8024
vn 0.4689 0.3633 -0.805
vn -0.0183 0.0872 -0.996
vn 0.0011 0.1043 -0.9945
vn -0.0161 -0.0151 -0.9998
vn -0.0159 -0.001 -0.9999
vn 0 -0.0169 -0.9999
vn 0 -0.001 -1
vn 0.0013 0.4983 -0.867
vn 0.0013 0.5236 -0.852
vn 0.0013 0.3455 -0.9384
vn 0 -0.0502 -0.9987
vn 0 -0.6252 -0.7805
vn -0.0223 -0.6114 -0.791
vn 0 -0.8805 -0.474
vn -0.0216 -0.8754 -0.4829
vn -0.0164 -0.0339 -0.9993
vn -0.0215 0.3275 -0.9446
vn -0.0229 0.4818 -0.876
vn -0.6628 0.3486 -0.6628
vn 0.6414 0.3776 -0.6678
vn -0.5173 0.1174 -0.8477
vn -0.678 0.2837 -0.678
vn 0.4985 0.1418 -0.8552
vn 0.6562 0.3159 -0.6853
vn -0.6414 0.3776 -0.6678
vn 0.6189 0.4065 -0.672
vn -0.5236 0.0013 -0.852
vn -0.6678 0.3776 -0.6414
vn 0.508 -0.0204 -0.8611
vn 0.6459 0.4068 -0.6459
vn -0.0183 -0.1685 -0.9855
vn 0 -0.1862 -0.9825
vn -0.6713 0.047 -0.7397
vn 0.6576 0.0708 -0.7501
vn -0.7436 0.1726 -0.6459
vn 0.729 0.1997 -0.6547
vn -0.6711 -0.1762 -0.7201
vn 0.6542 -0.2031 -0.7286
vn -0.696 -0.1763 -0.696
vn 0.6798 -0.2033 -0.7046
vn -0.7396 -0.0954 -0.6662
vn 0.7268 -0.1206 -0.6762
vn 0 -0.4472 -0.8944
vn -0.0212 -0.4301 -0.9025
vn 0.0011 0.9862 0.1657
vn 0.0582 0.9829 0.1747
vn 0.0011 0.9825 0.1864
vn 0.0385 0.9844 0.1717
vn 0.1904 0.9674 0.1671
vn 0.1939 0.9617 0.1939
vn -0.5817 -0.3428 -0.7376
vn -0.7019 0.7019 0.1207
vn -0.6623 0.7348 0.1463
vn -0.451 0.8772 0.1649
vn -0.2145 0.9619 0.1697
vn -0.2185 0.9557 0.197
vn -0.0786 0.9809 0.1778
vn -0.0591 0.9787 0.1967
vn 0.5558 -0.3744 -0.7422
vn -0.6837 -0.3159 -0.6578
vn 0.6637 -0.3449 -0.6637
vn 0.4232 0.8912 0.1632
vn 0.6367 0.7571 0.146
vn 0.6777 0.7254 0.1206
vn -0.0209 0.9599 0.2797
vn 0.0012 0.9616 0.2746
vn -0.6691 -0.6411 -0.3758
vn -0.6641 -0.6624 -0.3467
vn 0.6375 -0.6881 -0.3465
vn 0.6428 -0.6675 -0.3758
vn -0.9997 0.0171 0.0151
vn -1 -0.001 0
vn -0.9998 -0.0151 -0.0161
vn 0.9999 0.0149 0.001
vn 0.9999 -0.001 -0.0159
vn 0.9999 -0.0169 0
vn -0.0207 -0.9256 -0.378
vn 0 -0.9287 -0.371
vn -0.0175 -0.9941 0.1072
vn 0 -0.9944 0.1054
vn 0.0013 0.3945 0.9189
vn -0.022 0.3769 0.926
vn -0.1253 0.2312 0.9648
vn 0.1043 0.2512 0.9623
vn -0.0225 -0.6834 0.7297
vn -0.0214 -0.4556 0.8899
vn -0.0162 -0.0172 0.9997
vn -0.0239 0.6841 0.729
vn 0.0012 0.9733 0.2295
vn 0.0014 0.696 0.7181
vn 0 -0.0333 0.9994
vn 0 -0.4724 0.8814
vn 0 -0.7817 0.6237
vn -0.0224 -0.7727 0.6344
vn -0.0224 -0.7523 0.6584
vn -0.0339 -0.0519 0.9981
vn -0.0517 -0.0528 0.9973
vn 0.0169 -0.0688 0.9975
vn 0.0345 -0.07 0.997
vn -0.0186 -0.1896 0.9817
vn 0 -0.2075 0.9782
vn -0.1187 -0.1369 0.9835
vn 0.0992 -0.1561 0.9827
vn -0.1008 -0.1783 0.9788
vn 0.0785 -0.2 0.9766
o hammer__p0_c0
f 1/1/1 2/2/2 3/3/1
f 3/3/1 2/2/2 4/4/1
f 3/3/1 4/4/1 5/5/2
f 3/3/1 5/5/2 6/6/2
f 6/6/2 5/5/2 7/7/3
f 6/6/2 7/7/3 8/8/1
f 6/6/2 8/8/1 9/9/2
f 8/8/1 7/7/3 10/10/4
f 8/8/1 10/10/4 11/11/4
f 9/12/2 12/13/3 6/14/2
f 12/13/3 9/12/2 13/15/5
f 6/14/2 12/13/3 14/16/6
f 14/16/6 12/13/3 15/17/7
f 6/14/2 14/16/6 16/18/1
f 6/14/2 16/18/1 3/19/1
f 3/19/1 16/18/1 17/20/2
f 3/19/1 17/20/2 18/21/1
f 3/19/1 18/21/1 1/22/1
f 10/10/8 19/23/8 11/11/8
f 15/17/9 12/13/9 20/24/9
f 10/10/10 7/7/11 19/23/11
f 19/23/11 7/7/11 21/25/11
f 22/26/12 14/16/13 20/24/13
f 20/24/13 14/16/13 15/17/13
f 9/12/14 23/27/14 13/15/14
f 9/9/15 8/8/15 23/28/15
f 21/25/16 7/7/17 24/29/17
f 24/29/17 7/7/17 5/5/17
f 25/30/18 26/31/18 11/11/18
f 27/32/19 12/13/19 28/33/19
f 16/18/20 14/16/21 29/34/21
f 29/34/21 14/16/21 22/26/21
f 25/30/22 11/11/22 19/23/22
f 27/32/23 20/24/23 12/13/23
f 28/33/24 13/15/24 23/27/24
f 26/31/25 23/28/25 8/8/25
f 8/8/26 11/11/26 26/31/26
f 13/15/27 28/33/27 12/13/27
f 30/35/28 31/35/28 32/36/28
f 32/36/28 31/35/28 33/36/28
f 33/37/29 34/38/29 32/39/29
f 32/39/29 34/38/29 35/40/29
f 24/29/30 5/5/30 36/41/30
f 29/34/31 37/42/31 16/18/31
f 31/35/32 38/43/33 33/36/33
f 33/36/33 38/43/33 39/44/33
f 39/45/33 40/46/33 33/37/33
f 33/37/33 40/46/33 34/38/33
f 1/1/34 41/1/35 2/2/35
f 2/2/35 41/1/35 42/2/35
f 43/47/36 41/48/37 18/21/37
f 18/21/37 41/48/37 1/22/37
f 32/39/38 35/40/38 44/49/39
f 44/49/39 35/40/38 45/50/39
f 44/49/39 45/50/39 46/51/40
f 46/51/40 45/50/39 47/52/40
f 46/51/40 47/52/40 48/53/41
f 48/53/41 47/52/40 49/54/41
f 48/53/41 49/54/41 50/55/42
f 50/55/42 49/54/41 51/56/43
f 50/55/42 51/56/43 52/57/44
f 52/57/44 51/56/43 53/58/45
f 54/59/44 55/60/42 52/61/44
f 52/61/44 55/60/42 50/62/42
f 50/62/42 55/60/42 56/63/46
f 50/62/42 56/63/46 48/64/41
f 48/64/41 56/63/46 57/65/47
f 48/64/41 57/65/47 46/66/40
f 46/66/40 57/65/47 58/67/5
f 46/66/40 58/67/5 44/68/39
f 44/68/39 58/67/5 30/35/48
f 44/68/39 30/35/48 32/36/38
f 4/4/49 36/41/49 5/5/49
f 17/20/50 16/18/50 37/42/50
f 57/65/51 56/63/51 59/69/51
f 2/70/52 60/71/52 4/72/52
f 4/72/52 60/71/52 36/73/52
f 49/54/53 47/52/53 61/74/53
f 37/73/54 62/71/54 17/72/54
f 17/72/54 62/71/54 18/70/54
f 57/75/55 59/76/55 58/77/55
f 47/75/56 45/77/56 61/76/56
f 60/78/57 2/2/57 42/2/57
f 63/79/49 58/77/58 59/76/58
f 58/77/58 63/79/49 30/80/49
f 30/80/49 63/79/49 64/81/49
f 18/21/59 62/82/59 43/47/59
f 65/81/50 66/79/60 35/80/60
f 35/80/60 66/79/60 45/77/60
f 45/77/60 66/79/60 61/76/60
f 38/43/61 67/83/62 39/44/62
f 39/44/62 67/83/62 68/84/62
f 68/85/61 69/86/62 39/45/62
f 39/45/62 69/86/62 40/46/62
f 31/87/63 64/81/63 38/88/63
f 38/88/63 64/81/63 70/89/63
f 71/89/64 65/81/64 40/88/64
f 40/88/64 65/81/64 34/87/64
f 31/87/65 30/80/65 64/81/65
f 35/80/66 34/87/66 65/81/66
f 55/90/67 72/91/67 56/92/67
f 51/90/68 49/92/68 73/91/68
f 59/76/69 56/92/69 72/91/69
f 61/76/70 73/91/70 49/92/70
f 67/93/71 38/88/71 70/89/71
f 40/88/72 69/93/72 71/89/72
f 68/84/73 67/83/74 41/1/73
f 41/1/73 67/83/74 42/2/74
f 43/47/73 69/86/73 41/48/73
f 41/48/73 69/86/73 68/85/73
f 74/94/75 75/95/76 23/96/77
f 23/96/77 75/95/76 28/97/78
f 28/97/78 75/95/76 27/98/79
f 27/98/79 75/95/76 76/99/80
f 67/93/81 70/89/81 42/100/81
f 24/101/82 77/102/82 21/103/83
f 21/103/83 77/102/82 78/104/83
f 21/103/83 78/104/83 79/105/84
f 21/103/83 79/105/84 19/106/84
f 19/106/84 79/105/84 25/98/85
f 25/98/85 79/105/84 80/99/86
f 25/98/85 80/99/86 81/95/87
f 25/98/85 81/95/87 26/97/88
f 26/97/88 81/95/87 23/96/77
f 23/96/77 81/95/87 74/94/75
f 69/93/89 43/100/89 71/89/89
f 60/71/90 42/100/90 70/89/90
f 62/71/91 71/89/91 43/100/91
f 27/98/79 76/99/80 82/105/92
f 27/98/79 82/105/92 20/106/92
f 20/106/92 82/105/92 22/103/93
f 22/103/93 82/105/92 83/104/93
f 22/103/93 83/104/93 84/102/94
f 22/103/93 84/102/94 29/101/94
f 85/107/95 86/108/95 87/109/95
f 87/109/95 86/108/95 88/110/95
f 87/109/95 88/110/95 89/111/95
f 89/111/95 88/110/95 90/112/95
f 91/113/96 92/114/96 89/115/96
f 89/115/96 92/114/96 87/116/96
f 87/116/96 92/114/96 93/117/96
f 87/116/96 93/117/96 85/118/96
f 54/119/97 94/120/98 55/90/98
f 55/90/98 94/120/98 72/91/98
f 73/91/99 95/120/100 51/90/100
f 51/90/100 95/120/100 53/119/100
f 59/76/101 72/91/101 96/121/101
f 59/76/101 96/121/101 63/79/101
f 94/120/102 97/122/101 72/91/101
f 72/91/101 97/122/101 96/121/101
f 96/121/101 97/122/101 98/123/103
f 96/121/101 98/123/103 99/124/103
f 96/121/101 99/124/103 100/125/102
f 63/79/101 96/121/101 64/81/101
f 96/121/101 100/125/102 101/126/102
f 64/81/101 96/121/101 102/127/101
f 102/127/101 96/121/101 101/126/102
f 64/81/101 102/127/101 70/89/103
f 102/127/101 101/126/102 103/128/103
f 102/127/101 103/128/103 104/129/102
f 102/127/101 104/129/102 70/89/103
f 104/129/102 103/128/103 105/130/102
f 104/129/102 105/130/102 92/131/102
f 92/131/102 105/130/102 93/132/102
f 104/129/102 92/131/102 91/133/103
f 104/129/102 91/133/103 70/89/103
f 70/89/103 91/133/103 60/71/103
f 60/71/103 91/133/103 36/73/103
f 36/73/103 91/133/103 77/102/103
f 36/73/103 77/102/103 24/101/103
f 65/81/104 71/89/105 106/127/105
f 65/81/104 106/127/105 107/121/104
f 65/81/104 107/121/104 66/79/104
f 66/79/104 107/121/104 61/76/104
f 61/76/104 107/121/104 73/91/104
f 95/120/104 73/91/104 108/122/104
f 108/122/104 73/91/104 107/121/104
f 108/122/104 107/121/104 109/123/106
f 109/123/106 107/121/104 110/124/105
f 110/124/105 107/121/104 111/125/106
f 111/125/106 107/121/104 112/126/106
f 112/126/106 107/121/104 106/127/105
f 112/126/106 106/127/105 113/128/104
f 113/128/104 106/127/105 114/129/105
f 114/129/105 106/127/105 71/89/105
f 113/128/104 114/129/105 115/130/105
f 115/130/105 114/129/105 88/131/105
f 115/130/105 88/131/105 86/132/105
f 88/131/105 114/129/105 90/133/105
f 90/133/105 114/129/105 71/89/105
f 90/133/105 71/89/105 62/71/105
f 90/133/105 62/71/105 37/73/105
f 90/133/105 37/73/105 84/102/106
f 84/102/106 37/73/105 29/101/105
f 98/134/107 97/135/107 116/136/107
f 116/136/107 97/135/107 117/137/107
f 117/138/108 108/139/108 116/140/108
f 116/140/108 108/139/108 109/141/108
f 52/61/109 94/142/109 54/59/109
f 95/143/110 52/57/110 53/58/110
f 89/115/111 77/144/111 91/113/111
f 84/145/112 89/111/112 90/112/112
f 80/146/113 79/147/113 81/148/113
f 76/149/114 75/150/114 82/151/114
f 116/140/115 109/141/115 118/152/116
f 118/152/116 109/141/115 110/153/116
f 118/152/116 110/153/116 119/154/117
f 119/154/117 110/153/116 111/155/117
f 119/154/117 111/155/117 120/156/118
f 120/156/118 111/155/117 112/157/118
f 120/156/118 112/157/118 121/158/119
f 121/158/119 112/157/118 113/159/119
f 103/160/119 101/161/120 121/162/119
f 121/162/119 101/161/120 120/163/118
f 120/163/118 101/161/120 100/164/121
f 120/163/118 100/164/121 119/165/117
f 119/165/117 100/164/121 99/166/122
f 119/165/117 99/166/122 118/167/116
f 118/167/116 99/166/122 98/134/115
f 118/167/116 98/134/115 116/136/115
f 52/61/123 117/137/123 94/142/123
f 52/57/124 95/143/124 117/138/124
f 97/135/125 94/142/125 117/137/125
f 108/139/125 117/138/125 95/143/125
f 81/148/126 79/147/127 89/115/126
f 81/148/126 89/115/126 74/168/126
f 75/150/128 89/111/128 82/151/129
f 89/111/128 75/150/128 74/169/128
f 121/158/130 113/159/130 122/170/130
f 122/170/130 113/159/130 115/171/130
f 122/170/130 115/171/130 85/107/130
f 85/107/130 115/171/130 86/108/130
f 93/117/131 105/172/131 85/118/131
f 85/118/131 105/172/131 122/173/131
f 122/173/131 105/172/131 103/160/131
f 122/173/131 103/160/131 121/162/131
f 79/147/132 77/144/132 89/115/132
f 82/151/133 89/111/133 84/145/133
f 78/174/134 77/144/134 79/147/134
f 83/175/135 82/151/135 84/145/135
