# CS2 body mesh, tools/cs2_glb_to_obj.py
v 0.05994 -0.0607 -0.03597
v 0.05994 -0.0607 -0.0273
v 0.06103 -0.06116 -0.0273
v 0.06104 -0.06116 -0.03597
v 0.06198 -0.06188 -0.0273
v 0.06198 -0.06188 -0.03597
v 0.0627 -0.06282 -0.0273
v 0.0627 -0.06282 -0.03597
v 0.06315 -0.06392 -0.0273
v 0.06316 -0.06392 -0.03597
v 0.06331 -0.0651 -0.03597
v 0.06331 -0.06509 -0.0273
v 0.06316 -0.06627 -0.03597
v 0.06316 -0.06627 -0.0273
v 0.0627 -0.06737 -0.0273
v 0.0627 -0.06737 -0.03597
v 0.06198 -0.06831 -0.03597
v 0.06198 -0.06831 -0.0273
v 0.06104 -0.06903 -0.0273
v 0.06104 -0.06904 -0.03597
v 0.05994 -0.06949 -0.0273
v 0.05994 -0.06949 -0.03597
v 0.05383 -0.05824 -0.0086
v 0.05472 -0.05843 -0.01505
v 0.05453 -0.05805 -0.0086
v 0.05385 -0.05866 -0.01505
v 0.05411 -0.0579 -0.00692
v 0.05511 -0.05761 -0.0086
v 0.05543 -0.05789 -0.01505
v 0.05508 -0.05717 -0.00692
v 0.05548 -0.05698 -0.0086
v 0.05589 -0.05712 -0.01505
v 0.05601 -0.05623 -0.01505
v 0.05558 -0.05626 -0.0086
v 0.05578 -0.05536 -0.01505
v 0.05467 -0.05693 -0.00524
v 0.05524 -0.05597 -0.00692
v 0.05399 -0.05744 -0.00524
v 0.0554 -0.05555 -0.0086
v 0.05496 -0.05497 -0.0086
v 0.05524 -0.05465 -0.01505
v 0.05451 -0.055 -0.00692
v 0.05432 -0.0546 -0.0086
v 0.05447 -0.0542 -0.01506
v 0.05427 -0.05541 -0.00524
v 0.05479 -0.05609 -0.00524
v 0.05403 -0.05583 -0.00425
v 0.05432 -0.05621 -0.00425
v 0.05371 -0.05637 -0.00391
v 0.05425 -0.05668 -0.00425
v 0.05387 -0.05697 -0.00425
v 0.05766 -0.05864 -0.02213
v 0.05693 -0.05958 -0.02571
v 0.05766 -0.05864 -0.02571
v 0.05811 -0.05754 -0.02213
v 0.05693 -0.05958 -0.02213
v 0.05811 -0.05754 -0.02609
v 0.05826 -0.05637 -0.02213
v 0.05827 -0.05637 -0.02609
v 0.05811 -0.05519 -0.02609
v 0.05811 -0.05519 -0.02213
v 0.05765 -0.05409 -0.02213
v 0.05766 -0.05409 -0.02609
v 0.05693 -0.05315 -0.02609
v 0.05693 -0.05315 -0.02213
v 0.05599 -0.05243 -0.02213
v 0.05599 -0.05243 -0.02609
v 0.05489 -0.05197 -0.02609
v 0.05489 -0.05197 -0.02213
v 0.05599 -0.06031 -0.02213
v 0.05599 -0.06031 -0.02571
v 0.0549 -0.06076 -0.02213
v 0.05794 -0.06133 -0.02768
v 0.0549 -0.06076 -0.02571
v 0.05591 -0.06251 -0.02777
v 0.05766 -0.05864 -0.03757
v 0.05766 -0.05864 -0.04115
v 0.05812 -0.05755 -0.04115
v 0.05811 -0.05754 -0.03719
v 0.05827 -0.05637 -0.03719
v 0.05827 -0.05637 -0.04115
v 0.05811 -0.05519 -0.03719
v 0.05811 -0.05519 -0.04115
v 0.05766 -0.05409 -0.03719
v 0.05766 -0.05409 -0.04115
v 0.05693 -0.05315 -0.03719
v 0.05694 -0.05315 -0.04115
v 0.05599 -0.05243 -0.04115
v 0.05599 -0.05243 -0.03719
v 0.0549 -0.05198 -0.04115
v 0.0549 -0.05198 -0.03719
v 0.05694 -0.05958 -0.03757
v 0.05694 -0.05958 -0.04115
v 0.056 -0.06031 -0.04115
v 0.056 -0.06031 -0.03757
v 0.05795 -0.06133 -0.0356
v 0.05591 -0.06251 -0.03551
v 0.0549 -0.06076 -0.03757
v 0.0549 -0.06076 -0.04115
v 0.05495 -0.06006 -0.05078
v 0.05495 -0.06006 -0.05132
v 0.05586 -0.05961 -0.05132
v 0.05586 -0.05961 -0.05078
v 0.05663 -0.05895 -0.05132
v 0.05663 -0.05895 -0.05078
v 0.05553 -0.05911 -0.05047
v 0.0572 -0.05811 -0.05078
v 0.0572 -0.05811 -0.05132
v 0.05618 -0.05855 -0.05047
v 0.05476 -0.05948 -0.05047
v 0.05476 -0.05948 -0.04969
v 0.05553 -0.05911 -0.04969
v 0.05618 -0.05855 -0.04969
v 0.05586 -0.05961 -0.04903
v 0.05495 -0.06006 -0.04903
v 0.05494 -0.06005 -0.02197
v 0.05666 -0.05784 -0.05047
v 0.05753 -0.05715 -0.05078
v 0.05753 -0.05715 -0.05132
v 0.0576 -0.05614 -0.05132
v 0.0576 -0.05614 -0.05078
v 0.057 -0.05617 -0.05047
v 0.05694 -0.05703 -0.05047
v 0.05694 -0.05703 -0.04969
v 0.057 -0.05617 -0.04969
v 0.05666 -0.05784 -0.04969
v 0.05753 -0.05715 -0.04903
v 0.0576 -0.05614 -0.04903
v 0.0572 -0.05811 -0.04903
v 0.05663 -0.05895 -0.04903
v 0.05752 -0.05715 -0.02197
v 0.05759 -0.05614 -0.02197
v 0.05662 -0.05895 -0.02197
v 0.05625 -0.05689 -0.01907
v 0.05719 -0.05811 -0.02197
v 0.0563 -0.05621 -0.01907
v 0.05625 -0.05689 -0.01506
v 0.0563 -0.05621 -0.01506
v 0.05603 -0.05753 -0.01506
v 0.05603 -0.05753 -0.01907
v 0.05565 -0.05809 -0.01506
v 0.05565 -0.05809 -0.01907
v 0.05514 -0.05853 -0.01506
v 0.05514 -0.05853 -0.01907
v 0.05453 -0.05883 -0.01506
v 0.05454 -0.05883 -0.01907
v 0.05586 -0.05961 -0.02197
v 0.0545 -0.05257 -0.05132
v 0.0525 -0.05269 -0.05132
v 0.05349 -0.05249 -0.05132
v 0.05158 -0.05313 -0.05132
v 0.05546 -0.0529 -0.05132
v 0.0563 -0.05346 -0.05132
v 0.05082 -0.05379 -0.05132
v 0.05697 -0.05423 -0.05132
v 0.05025 -0.05463 -0.05132
v 0.04992 -0.05559 -0.05132
v 0.05741 -0.05514 -0.05132
v 0.04985 -0.0566 -0.05132
v 0.05004 -0.0576 -0.05132
v 0.05048 -0.05851 -0.05132
v 0.05115 -0.05928 -0.05132
v 0.05199 -0.05985 -0.05132
v 0.05295 -0.06018 -0.05132
v 0.05396 -0.06025 -0.05132
v 0.05877 -0.06965 -0.03545
v 0.05876 -0.06965 -0.02783
v 0.05767 -0.0695 -0.02925
v 0.05767 -0.0695 -0.03403
v 0.05145 -0.05243 -0.04619
v 0.05246 -0.05201 -0.04618
v 0.05178 -0.05301 -0.04611
v 0.05272 -0.05262 -0.04611
v 0.05057 -0.0531 -0.04618
v 0.05097 -0.05362 -0.04611
v 0.05251 -0.05199 -0.04115
v 0.05271 -0.05262 -0.04115
v 0.05658 -0.05897 -0.03757
v 0.05758 -0.0607 -0.0356
v 0.05758 -0.0607 -0.02768
v 0.05658 -0.05897 -0.02571
v 0.0545 -0.05257 -0.05078
v 0.05546 -0.0529 -0.05078
v 0.0563 -0.05346 -0.05078
v 0.05519 -0.05344 -0.05047
v 0.05697 -0.05423 -0.05078
v 0.0559 -0.05392 -0.05047
v 0.05741 -0.05514 -0.05078
v 0.05683 -0.05533 -0.05047
v 0.05646 -0.05456 -0.05047
v 0.05683 -0.05533 -0.04969
v 0.05646 -0.05456 -0.04969
v 0.05741 -0.05514 -0.04903
v 0.05697 -0.05423 -0.04903
v 0.0559 -0.05392 -0.04969
v 0.05519 -0.05344 -0.04969
v 0.05438 -0.05316 -0.05047
v 0.05438 -0.05316 -0.04969
v 0.0545 -0.05257 -0.04903
v 0.0563 -0.05346 -0.04903
v 0.05629 -0.05346 -0.02197
v 0.05546 -0.0529 -0.04903
v 0.05545 -0.05289 -0.02197
v 0.0545 -0.05256 -0.02197
v 0.05424 -0.05383 -0.01907
v 0.05487 -0.05405 -0.01907
v 0.05423 -0.05383 -0.01506
v 0.05487 -0.05405 -0.01506
v 0.05543 -0.05443 -0.01506
v 0.05544 -0.05443 -0.01907
v 0.05696 -0.05423 -0.02197
v 0.05588 -0.05494 -0.01907
v 0.05588 -0.05494 -0.01506
v 0.05617 -0.05555 -0.01907
v 0.05617 -0.05555 -0.01506
v 0.0574 -0.05514 -0.02197
v 0.05372 -0.06092 -0.04115
v 0.05372 -0.06092 -0.03757
v 0.05263 -0.06078 -0.03831
v 0.05263 -0.06078 -0.04041
v 0.05372 -0.06092 -0.02213
v 0.05372 -0.06092 -0.02571
v 0.05263 -0.06077 -0.02497
v 0.05263 -0.06077 -0.02287
v 0.05372 -0.05182 -0.04115
v 0.05472 -0.05262 -0.04115
v 0.05647 -0.05362 -0.04115
v 0.05747 -0.05536 -0.04115
v 0.05747 -0.05737 -0.04115
v 0.05647 -0.05912 -0.04115
v 0.05473 -0.06012 -0.04115
v 0.05372 -0.06025 -0.04115
v 0.05272 -0.06012 -0.04041
v 0.05272 -0.06012 -0.03831
v 0.05372 -0.06025 -0.03757
v 0.05454 -0.06015 -0.03757
v 0.05555 -0.06188 -0.0356
v 0.05482 -0.06283 -0.03512
v 0.0554 -0.06316 -0.03512
v 0.0544 -0.06384 -0.03382
v 0.05501 -0.06409 -0.03382
v 0.0544 -0.06384 -0.02946
v 0.05501 -0.06409 -0.02946
v 0.0554 -0.06316 -0.02817
v 0.05482 -0.06282 -0.02817
v 0.05554 -0.06188 -0.02769
v 0.05454 -0.06015 -0.02571
v 0.0534 -0.05691 -0.00425
v 0.05311 -0.05653 -0.00425
v 0.05264 -0.05665 -0.00524
v 0.05315 -0.05733 -0.00524
v 0.05218 -0.05677 -0.00692
v 0.05291 -0.05773 -0.00692
v 0.05203 -0.05719 -0.0086
v 0.05184 -0.05648 -0.0086
v 0.05165 -0.05737 -0.01506
v 0.05142 -0.05651 -0.01506
v 0.05247 -0.05777 -0.0086
v 0.05219 -0.05809 -0.01506
v 0.0531 -0.05814 -0.0086
v 0.05296 -0.05854 -0.01506
v 0.05348 -0.05249 -0.02197
v 0.05349 -0.05249 -0.04903
v 0.0525 -0.05269 -0.04903
v 0.05353 -0.0531 -0.04969
v 0.05353 -0.0531 -0.05047
v 0.05349 -0.05249 -0.05078
v 0.05269 -0.05326 -0.05047
v 0.0525 -0.05269 -0.05078
v 0.05158 -0.05313 -0.05078
v 0.05269 -0.05326 -0.04969
v 0.05192 -0.05363 -0.05047
v 0.05082 -0.05379 -0.05078
v 0.05127 -0.0542 -0.05047
v 0.05192 -0.05363 -0.04969
v 0.05158 -0.05313 -0.04903
v 0.05127 -0.0542 -0.04969
v 0.05079 -0.0549 -0.05047
v 0.05025 -0.05463 -0.05078
v 0.04992 -0.05559 -0.05078
v 0.05051 -0.05571 -0.05047
v 0.04985 -0.0566 -0.05078
v 0.05045 -0.05657 -0.05047
v 0.05004 -0.0576 -0.05078
v 0.05051 -0.05571 -0.04969
v 0.05045 -0.05657 -0.04969
v 0.05061 -0.05741 -0.05047
v 0.05251 -0.05199 -0.02213
v 0.05144 -0.05243 -0.0261
v 0.05144 -0.05243 -0.02213
v 0.05052 -0.05314 -0.02213
v 0.05254 -0.05198 -0.0261
v 0.0505 -0.05315 -0.0261
v 0.05371 -0.05182 -0.02213
v 0.04978 -0.0541 -0.02213
v 0.05371 -0.05182 -0.0261
v 0.04978 -0.0541 -0.0261
v 0.04936 -0.05511 -0.02295
v 0.04936 -0.05511 -0.02527
v 0.05144 -0.05243 -0.03719
v 0.05254 -0.05198 -0.03719
v 0.05053 -0.05314 -0.04115
v 0.0505 -0.05315 -0.03719
v 0.05372 -0.05182 -0.03719
v 0.04978 -0.0541 -0.04115
v 0.04978 -0.0541 -0.03719
v 0.04936 -0.05511 -0.04033
v 0.04936 -0.05511 -0.03801
v 0.05271 -0.05262 -0.0261
v 0.05097 -0.05362 -0.0261
v 0.05035 -0.05443 -0.0261
v 0.05472 -0.05262 -0.02609
v 0.04996 -0.05537 -0.02527
v 0.05646 -0.05362 -0.02609
v 0.04996 -0.05536 -0.02295
v 0.05035 -0.05443 -0.02213
v 0.05747 -0.05536 -0.02609
v 0.05097 -0.05362 -0.02213
v 0.05747 -0.05737 -0.02609
v 0.05271 -0.05262 -0.02213
v 0.05708 -0.05831 -0.02571
v 0.05472 -0.05262 -0.02213
v 0.05646 -0.05362 -0.02213
v 0.05747 -0.05536 -0.02213
v 0.05747 -0.05737 -0.02213
v 0.05708 -0.05831 -0.02213
v 0.05646 -0.05911 -0.02213
v 0.05566 -0.05973 -0.02213
v 0.05472 -0.06012 -0.02213
v 0.05372 -0.06025 -0.02213
v 0.05271 -0.06012 -0.02287
v 0.05271 -0.06012 -0.02497
v 0.05372 -0.06025 -0.02571
v 0.05358 -0.05407 -0.01506
v 0.0536 -0.0545 -0.0086
v 0.05271 -0.0543 -0.01506
v 0.05331 -0.05484 -0.00692
v 0.05289 -0.05468 -0.0086
v 0.05231 -0.05512 -0.0086
v 0.052 -0.05484 -0.01506
v 0.05235 -0.05557 -0.00692
v 0.05343 -0.05529 -0.00524
v 0.05194 -0.05576 -0.0086
v 0.05154 -0.05562 -0.01506
v 0.05355 -0.05576 -0.00425
v 0.05275 -0.05581 -0.00524
v 0.05317 -0.05605 -0.00425
v 0.05097 -0.05362 -0.04115
v 0.05036 -0.05443 -0.04115
v 0.04997 -0.05537 -0.04033
v 0.04997 -0.05537 -0.03801
v 0.05036 -0.05443 -0.03719
v 0.05097 -0.05362 -0.03719
v 0.05271 -0.05262 -0.03719
v 0.05472 -0.05262 -0.03719
v 0.05647 -0.05362 -0.03719
v 0.05747 -0.05536 -0.03719
v 0.05747 -0.05737 -0.03719
v 0.05709 -0.05831 -0.03757
v 0.05048 -0.05851 -0.05078
v 0.05099 -0.05818 -0.05047
v 0.05115 -0.05928 -0.05078
v 0.05199 -0.05984 -0.05078
v 0.05155 -0.05882 -0.05047
v 0.05295 -0.06018 -0.05078
v 0.05226 -0.0593 -0.05047
v 0.05396 -0.06025 -0.05078
v 0.05307 -0.05958 -0.05047
v 0.05226 -0.0593 -0.04969
v 0.05392 -0.05964 -0.05047
v 0.05392 -0.05964 -0.04969
v 0.05307 -0.05958 -0.04969
v 0.05396 -0.06025 -0.04903
v 0.05199 -0.05984 -0.04903
v 0.05294 -0.06018 -0.04903
v 0.05395 -0.06025 -0.02197
v 0.05387 -0.05895 -0.01907
v 0.05294 -0.06017 -0.02197
v 0.0532 -0.05891 -0.01907
v 0.05198 -0.05984 -0.02197
v 0.05115 -0.05928 -0.04903
v 0.05387 -0.05895 -0.01506
v 0.0544 -0.05842 -0.01506
v 0.05533 -0.0578 -0.01506
v 0.05583 -0.0568 -0.01506
v 0.05577 -0.05568 -0.01506
v 0.05328 -0.05849 -0.01506
v 0.0532 -0.05891 -0.01506
v 0.05256 -0.05869 -0.01506
v 0.05228 -0.05799 -0.01506
v 0.052 -0.05831 -0.01506
v 0.05256 -0.05869 -0.01907
v 0.052 -0.05831 -0.01907
v 0.05155 -0.0578 -0.01506
v 0.05166 -0.05705 -0.01506
v 0.05114 -0.05927 -0.02197
v 0.05155 -0.0578 -0.01907
v 0.05047 -0.05851 -0.02197
v 0.05048 -0.05851 -0.04903
v 0.05126 -0.05719 -0.01506
v 0.05126 -0.05719 -0.01908
v 0.05113 -0.05652 -0.01506
v 0.05159 -0.05593 -0.01506
v 0.05003 -0.0576 -0.02197
v 0.05113 -0.05652 -0.01908
v 0.05118 -0.05585 -0.01506
v 0.0514 -0.05521 -0.01506
v 0.0521 -0.05493 -0.01506
v 0.05118 -0.05585 -0.01908
v 0.04984 -0.0566 -0.02197
v 0.0514 -0.05521 -0.01908
v 0.05024 -0.05463 -0.02197
v 0.04991 -0.05559 -0.02197
v 0.05081 -0.05379 -0.02197
v 0.05025 -0.05463 -0.04903
v 0.04992 -0.05559 -0.04903
v 0.05178 -0.05465 -0.01908
v 0.05178 -0.05465 -0.01506
v 0.05158 -0.05313 -0.02197
v 0.05229 -0.05421 -0.01506
v 0.05229 -0.05421 -0.01907
v 0.05303 -0.05431 -0.01506
v 0.0529 -0.05391 -0.01907
v 0.0529 -0.05391 -0.01506
v 0.05356 -0.05378 -0.01506
v 0.05415 -0.05425 -0.01506
v 0.05356 -0.05378 -0.01907
v 0.05515 -0.05475 -0.01506
v 0.05249 -0.05268 -0.02197
v 0.05082 -0.05379 -0.04903
v 0.05079 -0.0549 -0.04969
v 0.04985 -0.0566 -0.04903
v 0.05004 -0.0576 -0.04903
v 0.05061 -0.05741 -0.04969
v 0.05099 -0.05818 -0.04969
v 0.05155 -0.05882 -0.04969
v 0.05649 -0.06116 -0.0356
v 0.05649 -0.06116 -0.02768
v 0.05876 -0.06055 -0.02768
v 0.05876 -0.06055 -0.03559
v 0.05977 -0.06134 -0.03597
v 0.06151 -0.06235 -0.03597
v 0.06252 -0.06409 -0.03597
v 0.06252 -0.0661 -0.03597
v 0.06151 -0.06784 -0.03597
v 0.05977 -0.06885 -0.03597
v 0.05877 -0.06898 -0.03545
v 0.05776 -0.06885 -0.03403
v 0.05776 -0.06885 -0.02925
v 0.05876 -0.06898 -0.02783
v 0.05977 -0.06885 -0.0273
v 0.06151 -0.06784 -0.0273
v 0.06251 -0.0661 -0.0273
v 0.06251 -0.06409 -0.0273
v 0.06151 -0.06235 -0.0273
v 0.05977 -0.06134 -0.0273
vt 0.833984 0.0336
vt 0.833984 0.042419
vt 0.835449 0.042419
vt 0.835449 0.0336
vt 0.836426 0.042419
vt 0.836426 0.0336
vt 0.837891 0.042419
vt 0.837891 0.0336
vt 0.838867 0.042419
vt 0.838867 0.0336
vt 0.839844 0.0336
vt 0.839844 0.042419
vt 0.841309 0.0336
vt 0.841309 0.042419
vt 0.842285 0.042419
vt 0.842285 0.0336
vt 0.84375 0.0336
vt 0.84375 0.042419
vt 0.844727 0.042419
vt 0.844727 0.0336
vt 0.846191 0.042419
vt 0.846191 0.0336
vt 0.703613 0.230347
vt 0.704102 0.223633
vt 0.703125 0.230347
vt 0.705078 0.223633
vt 0.703125 0.232178
vt 0.702637 0.230347
vt 0.703125 0.223633
vt 0.702148 0.232178
vt 0.70166 0.230347
vt 0.702148 0.223633
vt 0.701172 0.223633
vt 0.701172 0.230347
vt 0.700195 0.223633
vt 0.70166 0.233765
vt 0.700684 0.232178
vt 0.702637 0.233765
vt 0.700684 0.230347
vt 0.699707 0.230347
vt 0.699219 0.223633
vt 0.699707 0.232178
vt 0.699219 0.230347
vt 0.698242 0.223633
vt 0.700195 0.233765
vt 0.701172 0.233765
vt 0.700195 0.234619
vt 0.701172 0.234619
vt 0.700684 0.235229
vt 0.70166 0.234619
vt 0.702148 0.234619
vt 0.76709 0.031219
vt 0.768555 0.027496
vt 0.76709 0.027496
vt 0.766113 0.031219
vt 0.768555 0.031219
vt 0.766113 0.027252
vt 0.764648 0.031219
vt 0.764648 0.027252
vt 0.763672 0.027252
vt 0.763672 0.031219
vt 0.762207 0.031219
vt 0.762207 0.027252
vt 0.76123 0.027252
vt 0.76123 0.031219
vt 0.760254 0.031219
vt 0.760254 0.027252
vt 0.758789 0.027252
vt 0.758789 0.031219
vt 0.769531 0.031219
vt 0.769531 0.027496
vt 0.770996 0.031219
vt 0.768555 0.024628
vt 0.770996 0.027496
vt 0.770996 0.024628
vt 0.894531 0.112915
vt 0.894531 0.109253
vt 0.893066 0.109253
vt 0.893066 0.113281
vt 0.89209 0.113281
vt 0.89209 0.109253
vt 0.891113 0.113281
vt 0.891113 0.109253
vt 0.889648 0.113281
vt 0.889648 0.109253
vt 0.888672 0.113281
vt 0.888672 0.109253
vt 0.887207 0.109253
vt 0.887207 0.113281
vt 0.88623 0.109253
vt 0.88623 0.113281
vt 0.895508 0.112915
vt 0.895508 0.109253
vt 0.896973 0.109253
vt 0.896973 0.112976
vt 0.895508 0.115784
vt 0.897949 0.115784
vt 0.897949 0.112915
vt 0.897949 0.109253
vt 0.888184 0.948242
vt 0.888184 0.94873
vt 0.88916 0.94873
vt 0.88916 0.948242
vt 0.890137 0.94873
vt 0.890137 0.948242
vt 0.88916 0.947754
vt 0.891113 0.948242
vt 0.891113 0.94873
vt 0.890137 0.947754
vt 0.888184 0.947754
vt 0.888184 0.946777
vt 0.88916 0.946777
vt 0.890137 0.946777
vt 0.88916 0.945801
vt 0.888184 0.945801
vt 0.888184 0.916992
vt 0.891113 0.947754
vt 0.89209 0.948242
vt 0.89209 0.94873
vt 0.893066 0.94873
vt 0.893066 0.948242
vt 0.893066 0.947754
vt 0.89209 0.947754
vt 0.89209 0.946777
vt 0.893066 0.946777
vt 0.891113 0.946777
vt 0.89209 0.945801
vt 0.893066 0.945801
vt 0.891113 0.945801
vt 0.890137 0.945801
vt 0.89209 0.916992
vt 0.893066 0.916992
vt 0.890137 0.916992
vt 0.890137 0.914062
vt 0.891113 0.916992
vt 0.890625 0.914062
vt 0.890137 0.909668
vt 0.890625 0.909668
vt 0.88916 0.909668
vt 0.88916 0.914062
vt 0.888672 0.909668
vt 0.888672 0.914062
vt 0.887695 0.909668
vt 0.887695 0.914062
vt 0.887207 0.909668
vt 0.887207 0.914062
vt 0.88916 0.916992
vt 0.266113 0.731934
vt 0.266113 0.72998
vt 0.266113 0.730957
vt 0.266602 0.729004
vt 0.266602 0.73291
vt 0.267334 0.733887
vt 0.267334 0.728027
vt 0.268066 0.734375
vt 0.268066 0.727539
vt 0.269043 0.727051
vt 0.269043 0.734863
vt 0.270264 0.734863
vt 0.270264 0.727051
vt 0.27124 0.727051
vt 0.27124 0.734863
vt 0.272217 0.734375
vt 0.272217 0.727539
vt 0.273193 0.733887
vt 0.273193 0.728027
vt 0.273682 0.729004
vt 0.273682 0.73291
vt 0.27417 0.731934
vt 0.27417 0.72998
vt 0.27417 0.730957
vt 0.847168 0.034149
vt 0.847168 0.04187
vt 0.848633 0.040436
vt 0.848633 0.035583
vt 0.466064 0.804688
vt 0.466064 0.803223
vt 0.465332 0.804688
vt 0.465332 0.803223
vt 0.466064 0.805664
vt 0.465332 0.805664
vt 0.867676 0.007294
vt 0.873047 0.008026
vt 0.873047 0.007294
vt 0.867676 0.008026
vt 0.935547 0.011597
vt 0.932617 0.011597
vt 0.935547 0.012207
vt 0.932129 0.012207
vt 0.894531 0.012207
vt 0.894043 0.011597
vt 0.891113 0.012207
vt 0.891113 0.011597
vt 0.875 0.94873
vt 0.875 0.948242
vt 0.874023 0.948242
vt 0.874023 0.94873
vt 0.873047 0.94873
vt 0.873047 0.948242
vt 0.87207 0.94873
vt 0.874023 0.947754
vt 0.87207 0.948242
vt 0.871094 0.94873
vt 0.873047 0.947754
vt 0.871094 0.948242
vt 0.870117 0.94873
vt 0.870117 0.948242
vt 0.870117 0.947754
vt 0.871094 0.947754
vt 0.87207 0.947754
vt 0.871094 0.946777
vt 0.87207 0.946777
vt 0.870117 0.946777
vt 0.871094 0.945801
vt 0.870117 0.945801
vt 0.87207 0.945801
vt 0.873047 0.946777
vt 0.874023 0.946777
vt 0.875 0.947754
vt 0.875 0.946777
vt 0.875 0.945801
vt 0.873047 0.945801
vt 0.873047 0.916992
vt 0.874023 0.945801
vt 0.874023 0.916992
vt 0.875 0.916992
vt 0.875977 0.914062
vt 0.875488 0.914062
vt 0.875977 0.909668
vt 0.875488 0.909668
vt 0.874512 0.909668
vt 0.874512 0.914062
vt 0.87207 0.916992
vt 0.874023 0.914062
vt 0.874023 0.909668
vt 0.873047 0.914062
vt 0.873047 0.909668
vt 0.871094 0.916992
vt 0.870117 0.916992
vt 0.872559 0.914062
vt 0.872559 0.909668
vt 0.899414 0.109253
vt 0.899414 0.112854
vt 0.900391 0.112122
vt 0.900391 0.109985
vt 0.771973 0.031219
vt 0.771973 0.027496
vt 0.773438 0.028229
vt 0.773438 0.030365
vt 0.866699 0.007294
vt 0.865723 0.008026
vt 0.865723 0.007294
vt 0.864746 0.007294
vt 0.863281 0.008026
vt 0.863281 0.007294
vt 0.862305 0.007294
vt 0.861328 0.008026
vt 0.861328 0.007294
vt 0.860352 0.007294
vt 0.858887 0.008026
vt 0.858887 0.007294
vt 0.85791 0.007294
vt 0.856934 0.008026
vt 0.856934 0.007294
vt 0.855957 0.007294
vt 0.85498 0.008026
vt 0.854492 0.007294
vt 0.853516 0.007294
vt 0.853516 0.008026
vt 0.852539 0.007294
vt 0.852539 0.008026
vt 0.850098 0.008026
vt 0.850098 0.007294
vt 0.848633 0.008026
vt 0.848633 0.007294
vt 0.847656 0.008026
vt 0.847656 0.007294
vt 0.368652 0.004791
vt 0.365723 0.004791
vt 0.365723 0.005402
vt 0.368652 0.005402
vt 0.369873 0.004791
vt 0.369873 0.005402
vt 0.371582 0.004791
vt 0.371582 0.005402
vt 0.376221 0.004791
vt 0.376221 0.005402
vt 0.37793 0.005402
vt 0.37793 0.004791
vt 0.37915 0.005402
vt 0.37915 0.004791
vt 0.38208 0.005402
vt 0.38208 0.004791
vt 0.702637 0.234741
vt 0.702637 0.235352
vt 0.703125 0.235107
vt 0.704102 0.233765
vt 0.703613 0.233765
vt 0.705566 0.232178
vt 0.704102 0.232178
vt 0.706055 0.230347
vt 0.706543 0.230347
vt 0.70752 0.223633
vt 0.708496 0.223633
vt 0.705078 0.230347
vt 0.707031 0.223633
vt 0.70459 0.230347
vt 0.706055 0.223633
vt 0.875977 0.916992
vt 0.875977 0.945801
vt 0.876953 0.945801
vt 0.875977 0.946777
vt 0.875977 0.947754
vt 0.875977 0.94873
vt 0.875977 0.948242
vt 0.876953 0.94873
vt 0.876953 0.947754
vt 0.876953 0.948242
vt 0.87793 0.948242
vt 0.87793 0.94873
vt 0.876953 0.946777
vt 0.87793 0.947754
vt 0.878906 0.948242
vt 0.878906 0.94873
vt 0.879883 0.94873
vt 0.878906 0.947754
vt 0.87793 0.946777
vt 0.87793 0.945801
vt 0.878906 0.946777
vt 0.879883 0.947754
vt 0.879883 0.948242
vt 0.880859 0.948242
vt 0.880859 0.94873
vt 0.880859 0.947754
vt 0.881836 0.948242
vt 0.881836 0.94873
vt 0.882812 0.94873
vt 0.881836 0.947754
vt 0.882812 0.948242
vt 0.880859 0.946777
vt 0.881836 0.946777
vt 0.882812 0.947754
vt 0.756348 0.031219
vt 0.755371 0.027252
vt 0.755371 0.031219
vt 0.753906 0.031219
vt 0.756348 0.027252
vt 0.753906 0.027252
vt 0.757812 0.031219
vt 0.75293 0.031219
vt 0.757812 0.027252
vt 0.75293 0.027252
vt 0.751465 0.030548
vt 0.751465 0.028198
vt 0.882324 0.104187
vt 0.883789 0.109253
vt 0.883789 0.104187
vt 0.882324 0.113281
vt 0.883789 0.113281
vt 0.884766 0.109253
vt 0.881348 0.109253
vt 0.881348 0.104187
vt 0.881348 0.113281
vt 0.884766 0.113281
vt 0.879883 0.109253
vt 0.879883 0.113281
vt 0.878906 0.110107
vt 0.878906 0.112488
vt 0.351074 0.010803
vt 0.353271 0.010803
vt 0.352295 0.010101
vt 0.353271 0.010101
vt 0.351074 0.010101
vt 0.354492 0.010803
vt 0.350098 0.010101
vt 0.354492 0.010101
vt 0.349121 0.010803
vt 0.355713 0.010101
vt 0.349121 0.010101
vt 0.355713 0.010803
vt 0.3479 0.010101
vt 0.35791 0.010101
vt 0.346924 0.010803
vt 0.358154 0.010803
vt 0.346924 0.010101
vt 0.359375 0.010803
vt 0.345947 0.010101
vt 0.359375 0.010101
vt 0.344727 0.010803
vt 0.360352 0.010803
vt 0.344727 0.010101
vt 0.360596 0.010101
vt 0.34375 0.010101
vt 0.361572 0.010101
vt 0.342529 0.010803
vt 0.362549 0.010803
vt 0.342529 0.010101
vt 0.362549 0.010101
vt 0.341553 0.010803
vt 0.36377 0.010101
vt 0.341553 0.010101
vt 0.340576 0.010803
vt 0.340576 0.010101
vt 0.364746 0.010803
vt 0.364746 0.010101
vt 0.365723 0.010101
vt 0.366943 0.010803
vt 0.366943 0.010101
vt 0.36792 0.010101
vt 0.368896 0.010803
vt 0.368896 0.010101
vt 0.370117 0.010101
vt 0.371094 0.010803
vt 0.371094 0.010101
vt 0.372314 0.010101
vt 0.372314 0.010803
vt 0.373535 0.010803
vt 0.373535 0.010101
vt 0.374512 0.010803
vt 0.374512 0.010101
vt 0.375732 0.010101
vt 0.375732 0.010803
vt 0.376953 0.010101
vt 0.376953 0.010803
vt 0.378418 0.010101
vt 0.378174 0.010803
vt 0.380371 0.010803
vt 0.380371 0.010101
vt 0.381592 0.010803
vt 0.381592 0.010101
vt 0.382568 0.010803
vt 0.382568 0.010101
vt 0.697266 0.223633
vt 0.69873 0.230347
vt 0.696289 0.223633
vt 0.69873 0.232178
vt 0.697754 0.230347
vt 0.697266 0.230347
vt 0.695801 0.223633
vt 0.697266 0.232178
vt 0.699219 0.233765
vt 0.696777 0.230347
vt 0.694824 0.223633
vt 0.693848 0.223633
vt 0.695801 0.230347
vt 0.696289 0.232178
vt 0.699707 0.234619
vt 0.698242 0.233765
vt 0.697754 0.233765
vt 0.699219 0.234863
vt 0.69873 0.235229
vt 0.787598 0.009003
vt 0.79248 0.009003
vt 0.791992 0.008301
vt 0.787598 0.008301
vt 0.793457 0.008301
vt 0.793457 0.009003
vt 0.794922 0.008301
vt 0.794922 0.009003
vt 0.797363 0.009003
vt 0.797363 0.008301
vt 0.79834 0.009003
vt 0.79834 0.008301
vt 0.799805 0.008301
vt 0.799805 0.009003
vt 0.800781 0.008301
vt 0.801758 0.009003
vt 0.801758 0.008301
vt 0.802734 0.008301
vt 0.804199 0.009003
vt 0.804199 0.008301
vt 0.805176 0.008301
vt 0.806152 0.009003
vt 0.806152 0.008301
vt 0.807129 0.008301
vt 0.808594 0.009003
vt 0.808594 0.008301
vt 0.80957 0.008301
vt 0.810547 0.009003
vt 0.810547 0.008301
vt 0.812012 0.008301
vt 0.812012 0.009003
vt 0.812988 0.009003
vt 0.812988 0.008301
vt 0.883301 0.948242
vt 0.883301 0.94873
vt 0.884277 0.94873
vt 0.883301 0.947754
vt 0.884277 0.948242
vt 0.885254 0.94873
vt 0.885254 0.948242
vt 0.88623 0.94873
vt 0.884277 0.947754
vt 0.88623 0.948242
vt 0.885254 0.947754
vt 0.887207 0.948242
vt 0.88623 0.947754
vt 0.887207 0.94873
vt 0.885254 0.946777
vt 0.887207 0.947754
vt 0.887207 0.946777
vt 0.88623 0.946777
vt 0.887207 0.945801
vt 0.885254 0.945801
vt 0.88623 0.945801
vt 0.887207 0.916992
vt 0.88623 0.914062
vt 0.88623 0.916992
vt 0.885254 0.914062
vt 0.885254 0.916992
vt 0.884277 0.945801
vt 0.88623 0.909668
vt 0.886719 0.90918
vt 0.887695 0.90918
vt 0.88916 0.90918
vt 0.890137 0.90918
vt 0.885254 0.90918
vt 0.885254 0.909668
vt 0.884766 0.909668
vt 0.883789 0.90918
vt 0.883789 0.909668
vt 0.884766 0.914062
vt 0.883789 0.914062
vt 0.883301 0.909668
vt 0.882324 0.90918
vt 0.884277 0.916992
vt 0.883301 0.914062
vt 0.883301 0.916992
vt 0.883301 0.945801
vt 0.882324 0.909668
vt 0.882324 0.914062
vt 0.881348 0.909668
vt 0.880859 0.90918
vt 0.882812 0.916992
vt 0.881348 0.914062
vt 0.880859 0.909668
vt 0.879883 0.909668
vt 0.879395 0.90918
vt 0.880859 0.914062
vt 0.881836 0.916992
vt 0.879883 0.914062
vt 0.879883 0.916992
vt 0.880859 0.916992
vt 0.878906 0.916992
vt 0.879883 0.945801
vt 0.880859 0.945801
vt 0.879395 0.914062
vt 0.879395 0.909668
vt 0.87793 0.916992
vt 0.878418 0.909668
vt 0.878418 0.914062
vt 0.87793 0.90918
vt 0.877441 0.914062
vt 0.877441 0.909668
vt 0.876953 0.909668
vt 0.876465 0.90918
vt 0.876953 0.914062
vt 0.875 0.90918
vt 0.874023 0.90918
vt 0.876953 0.916992
vt 0.878906 0.945801
vt 0.879883 0.946777
vt 0.881836 0.945801
vt 0.882812 0.945801
vt 0.882812 0.946777
vt 0.883301 0.946777
vt 0.884277 0.946777
vt 0.831543 0.031189
vt 0.830566 0.033966
vt 0.831543 0.033997
vt 0.829102 0.031189
vt 0.829102 0.033997
vt 0.829102 0.042023
vt 0.828125 0.034485
vt 0.828125 0.041534
vt 0.82666 0.040222
vt 0.82666 0.035797
vt 0.830566 0.042053
vt 0.829102 0.04483
vt 0.831543 0.04483
vt 0.831543 0.042023
vt 0.833008 0.042023
vt 0.833008 0.033997
vt 0.931641 0.011597
vt 0.930176 0.012207
vt 0.930176 0.011597
vt 0.929199 0.011597
vt 0.928223 0.012207
vt 0.928223 0.011597
vt 0.926758 0.011597
vt 0.925781 0.012207
vt 0.925781 0.011597
vt 0.924805 0.011597
vt 0.92334 0.012207
vt 0.92334 0.011597
vt 0.922363 0.011597
vt 0.921387 0.012207
vt 0.921387 0.011597
vt 0.919922 0.011597
vt 0.918945 0.012207
vt 0.918945 0.011597
vt 0.91748 0.012207
vt 0.91748 0.011597
vt 0.916016 0.011597
vt 0.916016 0.012207
vt 0.910645 0.011597
vt 0.910645 0.012207
vt 0.90918 0.012207
vt 0.90918 0.011597
vt 0.907715 0.011597
vt 0.907715 0.012207
vt 0.906738 0.011597
vt 0.905762 0.012207
vt 0.905762 0.011597
vt 0.904297 0.011597
vt 0.90332 0.012207
vt 0.90332 0.011597
vt 0.902344 0.011597
vt 0.900879 0.012207
vt 0.900879 0.011597
vt 0.899902 0.011597
vt 0.898926 0.012207
vt 0.898926 0.011597
vt 0.897461 0.011597
vt 0.896484 0.012207
vt 0.896484 0.011597
vt 0.89502 0.011597
vn 0.2774 0.9607 -0.0012
vn 0.2717 0.9624 -0.0012
vn 0.5015 0.8652 -0.0013
vn 0.7071 0.7071 -0.0014
vn 0.867 0.4983 -0.0013
vn 0.9663 0.2574 -0.0012
vn 1 0.001 0.001
vn 0.9656 -0.26 0
vn 0.8655 -0.5009 0
vn 0.7078 -0.7064 0
vn 0.4993 -0.8664 0
vn 0.2843 -0.9587 0
vn 0.2786 -0.9604 0
vn 0.0537 -0.9939 0.0961
vn 0.4347 -0.8982 0.0656
vn 0.4446 -0.8907 0.0951
vn 0.0592 -0.9961 0.0657
vn 0.2459 -0.9376 0.2459
vn 0.7405 -0.6659 0.0907
vn 0.7441 -0.6648 0.0663
vn 0.8368 -0.4876 0.2492
vn 0.9431 -0.3192 0.0927
vn 0.9436 -0.3245 0.0652
vn 0.9959 0.0604 0.067
vn 0.9941 0.0524 0.0948
vn 0.8961 0.4392 0.0643
vn 0.8162 -0.4793 0.3227
vn 0.9376 0.2445 0.2473
vn 0.2366 -0.9163 0.3232
vn 0.8902 0.4458 0.0936
vn 0.6665 0.7398 0.0923
vn 0.6641 0.7448 0.0648
vn 0.4916 0.8338 0.2512
vn 0.3189 0.9434 0.0913
vn 0.3249 0.9434 0.0665
vn 0.4752 0.8194 0.3205
vn 0.9153 0.2415 0.3224
vn 0.4123 0.707 0.5746
vn 0.7721 0.2019 0.6026
vn 0.0901 0.155 0.9838
vn 0.7085 -0.4122 0.5728
vn 0.2037 -0.7699 0.6048
vn 0.674 -0.7097 0.205
vn 0.8745 -0.4851 0
vn 0.9671 -0.2543 0
vn 0.9693 -0.2459 0
vn 0.8652 0.5015 0.0013
vn 0.2603 0.9655 -0.0012
vn 0.4558 -0.804 0.3819
vn 0.2586 -0.966 0
vn 0.3574 -0.6345 0.6853
vn 0.2813 -0.9372 0.2061
vn 0.3358 -0.6504 0.6814
vn 0.9663 0.2574 0.0012
vn 0.674 -0.7097 -0.205
vn 0.4558 -0.804 -0.3819
vn 0.3574 -0.6345 -0.6853
vn 0.3358 -0.6504 -0.6814
vn 0.2813 -0.9372 -0.2061
vn 0.2675 -0.7884 0.5539
vn 0.3166 -0.9486 0
vn 0.5528 -0.8333 0
vn 0.4607 -0.696 0.5508
vn 0.7479 -0.6638 0
vn 0.6253 -0.5526 0.551
vn 0.4734 -0.7085 0.5234
vn 0.7537 -0.3769 0.5384
vn 0.8944 -0.4472 0
vn 0.6378 -0.5653 0.5231
vn 0.2727 -0.8072 0.5235
vn 0.2899 -0.8682 -0.4028
vn 0.5052 -0.7676 -0.3944
vn 0.6829 -0.6083 -0.4044
vn 0.5521 -0.8336 -0.0192
vn 0.3135 -0.9494 -0.0201
vn 0.3163 -0.9478 0.0408
vn 0.7708 -0.3854 0.5073
vn 0.8176 -0.1698 0.5501
vn 0.9799 -0.1994 0
vn 0.9974 -0.0721 0
vn 0.8272 -0.0579 0.559
vn 0.8453 -0.0604 0.5308
vn 0.8354 -0.1752 0.521
vn 0.8953 -0.1875 -0.4041
vn 0.9101 -0.0664 -0.409
vn 0.817 -0.4101 -0.4053
vn 0.98 -0.1981 -0.0211
vn 0.9974 -0.0691 -0.0213
vn 0.8948 -0.446 -0.0213
vn 0.747 -0.6645 -0.0196
vn 0.979 -0.1994 0.043
vn 0.9967 -0.0704 0.0412
vn 0.7458 -0.665 0.0397
vn 0.9606 -0.1945 0.1985
vn 0.8921 -0.4501 0.0405
vn 0.9802 -0.0688 0.1859
vn 0.9749 -0.2002 0.097
vn 0.965 -0.0666 0.2538
vn 0.8844 -0.4408 0.1532
vn 0.8754 -0.4422 0.1952
vn 0.743 -0.6622 0.0969
vn 0.7348 -0.6499 0.1945
vn 0.5431 -0.8265 0.1484
vn 0.5386 -0.8214 0.1876
vn 0.3159 -0.9437 0.0982
vn 0.3115 -0.9303 0.1936
vn 0.5511 -0.8336 0.039
vn 0 -0.001 -1
vn 0.0868 -0.9962 0
vn 0.071 -0.9975 0
vn -0.1293 -0.9916 0
vn 0.0561 -0.0976 -0.9936
vn 0.0446 -0.1014 -0.9938
vn 0.056 -0.0951 -0.9939
vn 0.0422 -0.1012 -0.994
vn 0.0674 -0.0888 -0.9938
vn 0.9297 0.3005 -0.213
vn 0.9264 0.3765 -0.0116
vn 0.9238 0.3827 -0.0116
vn 0.8883 0.2801 -0.364
vn 0.834 0.4843 -0.2646
vn 0.2955 0.3252 -0.8983
vn 0.2955 0.3252 0.8983
vn 0.8345 0.4815 0.2678
vn 0.1997 0.9799 -0.0012
vn 0.1699 0.8165 0.5518
vn 0.3777 0.744 0.5511
vn 0.4477 0.8942 0.0013
vn 0.6644 0.7473 -0.0014
vn 0.5561 0.6237 0.5493
vn 0.8339 0.5519 0.0014
vn 0.3831 0.7612 0.5232
vn 0.705 0.4617 0.5383
vn 0.9489 0.3155 0.0012
vn 0.5687 0.6362 0.5214
vn 0.7924 0.2621 0.5508
vn 0.982 0.1891 0.0011
vn 0.815 0.157 0.5578
vn 0.832 0.1593 0.5314
vn 0.8086 0.2675 0.524
vn 0.7199 0.4739 0.5071
vn 0.868 0.2883 -0.4043
vn 0.7651 0.5074 -0.3964
vn 0.8948 0.172 -0.412
vn 0.949 0.3147 -0.0188
vn 0.9816 0.1898 -0.0198
vn 0.833 0.553 -0.0178
vn 0.6086 0.6816 -0.4063
vn 0.4077 0.8138 -0.4141
vn 0.1719 0.8356 0.5217
vn 0.1811 0.8966 -0.4041
vn 0.2006 0.9795 -0.0199
vn 0.6652 0.7464 -0.021
vn 0.6627 0.7478 0.0411
vn 0.4487 0.8934 -0.02
vn 0.4474 0.8934 0.0419
vn 0.1992 0.9791 0.0417
vn 0.1974 0.9603 0.1974
vn 0.4408 0.8772 0.1902
vn 0.2 0.9751 0.0956
vn 0.4403 0.885 0.1516
vn 0.6629 0.7422 0.0985
vn 0.6526 0.7328 0.1928
vn 0.8341 0.5501 0.0404
vn 0.8187 0.5433 0.1861
vn 0.8247 0.5453 0.1501
vn 0.9301 0.3129 0.1922
vn 0.945 0.3115 0.0994
vn 0.9474 0.3175 0.0395
vn 0.9807 0.1909 0.0415
vn 0.963 0.1852 0.1958
vn 0.9804 0.1932 0.0391
vn 0.0535 -0.9986 0
vn 0.0344 -0.9994 0
vn -0.3274 0.0012 -0.9449
vn -0.3343 0.0139 -0.9424
vn -0.9324 0.1127 -0.3434
vn -0.9335 0.124 -0.3366
vn -0.9335 0.124 0.3366
vn -0.9324 0.1127 0.3434
vn -0.3641 0.0115 0.9313
vn -0.3394 0.0013 0.9406
vn 0 -0.001 1
vn -0.8243 -0.5109 -0.2439
vn -0.8655 -0.5009 0
vn -0.5631 -0.4448 -0.6964
vn -0.3356 -0.5501 -0.7647
vn -0.3192 -0.5819 -0.748
vn -0.3812 -0.9072 -0.1777
vn -0.377 -0.9097 -0.1742
vn -0.3812 -0.9072 0.1777
vn -0.377 -0.9097 0.1742
vn -0.3192 -0.5819 0.748
vn -0.3356 -0.5501 0.7647
vn -0.5631 -0.4448 0.6964
vn -0.8243 -0.5109 0.2439
vn -0.4103 -0.7098 0.5725
vn -0.2428 -0.4121 0.8782
vn -0.6559 -0.4928 0.5718
vn -0.7587 -0.5778 0.3009
vn -0.4774 -0.8173 0.3225
vn -0.7932 -0.5654 0.2262
vn -0.4885 -0.8372 0.2458
vn -0.8915 -0.443 0.095
vn -0.9638 -0.2549 0.0786
vn -0.8974 -0.4364 0.0657
vn -0.9651 -0.2544 0.0627
vn -0.6674 -0.7391 0.0907
vn -0.6633 -0.7454 0.0663
vn -0.3208 -0.9426 0.0928
vn -0.323 -0.9442 0.0651
vn -0.0589 0.9975 0.0396
vn -0.0601 0.998 -0.02
vn -0.3147 0.949 -0.0188
vn -0.0579 0.9112 -0.4078
vn -0.0486 0.852 0.5212
vn -0.0612 0.9981 -0.001
vn -0.049 0.8334 0.5505
vn -0.3155 0.9489 -0.0012
vn -0.2682 0.8013 0.5347
vn -0.2626 0.7847 0.5614
vn -0.4654 0.7022 0.5388
vn -0.5519 0.8339 -0.0014
vn -0.2919 0.8665 -0.405
vn -0.4776 0.7172 0.5075
vn -0.6237 0.5561 0.5493
vn -0.7499 0.6615 -0.0014
vn -0.8942 0.4477 -0.0013
vn -0.6362 0.5687 0.5214
vn -0.5043 0.7654 -0.3998
vn -0.5499 0.8351 -0.0178
vn -0.6847 0.6051 -0.4062
vn -0.7612 0.3831 0.5232
vn -0.7464 0.374 0.5504
vn -0.8098 0.1638 0.5634
vn -0.9799 0.1997 0.0012
vn -0.828 0.1692 0.5345
vn -0.8408 -0.0489 0.5391
vn -0.9981 -0.0611 0
vn -0.9491 -0.3151 0
vn -0.86 -0.0513 0.5077
vn -0.7937 -0.262 0.549
vn -0.8923 0.1849 -0.4119
vn -0.9119 -0.0578 -0.4062
vn -0.8105 -0.2707 0.5195
vn -0.2603 0.9655 0.0012
vn -0.4983 0.867 -0.0013
vn -0.7071 0.7071 0.0014
vn -0.0029 1 0.001
vn -0.8441 0.5362 0.0014
vn 0.001 1 -0.001
vn -0.838 0.5456 -0.0014
vn -0.9254 0.3791 -0.0013
vn -0.3334 0.9428 -0.0012
vn -0.3853 0.9228 -0.0013
vn -0.2603 0.9655 -0.0012
vn -0.0029 1 -0.001
vn -0.6498 0.7601 -0.0014
vn -0.6107 0.7919 -0.0014
vn -0.7071 0.7071 -0.0014
vn -0.8441 0.5362 -0.0014
vn -0.1623 -0.3067 -0.9379
vn -0.1707 -0.2988 -0.9389
vn -0.372 -0.8735 -0.314
vn -0.3635 -0.8799 -0.3059
vn -0.372 -0.8735 0.314
vn -0.3635 -0.8799 0.3059
vn -0.1699 -0.3246 0.9305
vn -0.1779 -0.3099 0.934
vn -0.0339 -0.1323 -0.9906
vn -0.0587 -0.1561 -0.986
vn -0.0822 -0.1729 -0.9815
vn -0.0884 -0.1494 -0.9848
vn -0.3274 0.0012 0.9449
vn -0.3343 0.0139 0.9424
vn -0.3641 0.0115 -0.9313
vn -0.3394 0.0013 -0.9406
vn -0.0604 0.9959 0.067
vn -0.0524 0.9941 0.0948
vn -0.4392 0.8961 0.0643
vn -0.2445 0.9376 0.2473
vn -0.4458 0.8902 0.0936
vn -0.7398 0.6665 0.0923
vn -0.7448 0.6641 0.0648
vn -0.8354 0.4908 0.2477
vn -0.2381 0.9164 0.3218
vn -0.9417 0.3245 0.0887
vn -0.9434 0.3249 0.0665
vn -0.9887 0.1359 0.0639
vn -0.9853 0.1353 0.1042
vn -0.9633 0.1339 0.2327
vn -0.2019 0.7721 0.6026
vn -0.8148 0.4826 0.3212
vn -0.9446 0.1277 0.3023
vn -0.707 0.4123 0.5746
vn -0.8123 0.1127 0.5723
vn -0.7882 -0.6153 -0.0111
vn -0.7139 -0.6555 -0.2464
vn -0.7252 -0.6552 -0.2117
vn -0.7929 -0.6092 -0.0111
vn -0.1779 -0.3099 -0.934
vn -0.1699 -0.3246 -0.9305
vn -0.1623 -0.3067 0.9379
vn -0.1707 -0.2988 0.9389
vn -0.0453 -0.1211 0.9916
vn -0.0416 -0.1537 0.9872
vn -0.0767 -0.1666 0.983
vn -0.1008 -0.1783 0.9788
vn -0.6909 -0.4522 0.5641
vn -0.8343 -0.5513 0
vn -0.6623 -0.7492 0
vn -0.7065 -0.4615 0.5365
vn -0.5544 -0.6237 0.551
vn -0.4488 -0.8936 0
vn -0.3787 -0.7526 0.5387
vn -0.2008 -0.9796 0
vn -0.5635 -0.6394 0.523
vn -0.1654 -0.8103 0.5622
vn -0.3873 -0.7696 0.5077
vn 0.0505 -0.834 0.5495
vn -0.1709 -0.8262 0.5368
vn 0.06 -0.9982 0
vn -0.412 -0.816 -0.4056
vn 0.053 -0.8517 0.5213
vn 0.0564 -0.9137 -0.4025
vn -0.1833 -0.892 -0.4132
vn 0.0611 -0.9979 -0.019
vn -0.4476 -0.894 -0.0213
vn -0.1995 -0.9797 -0.0211
vn 0.0601 -0.9974 0.0408
vn 0.0628 -0.9792 0.1932
vn -0.2008 -0.9787 0.043
vn -0.196 -0.9603 0.1987
vn -0.4485 -0.8929 0.0405
vn -0.663 -0.7483 -0.0196
vn 0.0584 -0.987 0.1495
vn -0.2016 -0.9746 0.0971
vn -0.4425 -0.8836 0.1533
vn -0.6607 -0.7444 0.0969
vn -0.4395 -0.8775 0.1917
vn -0.6515 -0.7333 0.1945
vn -0.823 -0.5482 0.1486
vn -0.6635 -0.7471 0.0397
vn -0.8203 -0.5403 0.1877
vn -0.8325 -0.5527 0.039
vn -0.8346 -0.5505 -0.0192
vn -0.9437 -0.3168 0.0954
vn -0.9309 -0.3098 0.1935
vn -0.9869 -0.0596 0.1497
vn -0.9473 -0.3179 0.0409
vn -0.9796 -0.0639 0.1906
vn -0.9751 0.2 0.0956
vn -0.8842 0.4428 0.1486
vn -0.9603 0.1974 0.1974
vn -0.9974 -0.059 0.0408
vn -0.8772 0.4408 0.1902
vn -0.895 0.4441 0.0418
vn -0.9785 0.2019 0.0418
vn -0.7478 0.6627 0.0411
vn -0.8934 0.4487 -0.02
vn -0.9795 0.2006 -0.0199
vn -0.7328 0.6526 0.1928
vn -0.745 0.6598 0.0985
vn -0.5501 0.8341 0.0404
vn -0.5419 0.827 0.15
vn -0.5433 0.8187 0.1861
vn -0.3129 0.9301 0.1922
vn -0.314 0.9445 0.0967
vn -0.0597 0.9867 0.151
vn -0.0616 0.979 0.1944
vn -0.3175 0.9474 0.0395
vn -0.749 0.6622 -0.021
vn -0.8181 0.4098 -0.4035
vn -0.998 -0.06 -0.0189
vn -0.9479 -0.318 -0.0201
vn -0.8659 -0.2953 -0.4039
vn -0.7666 -0.504 -0.398
vn -0.6066 -0.6845 -0.4044
vn -0.3483 0.6361 0.6885
vn -0.4881 0.84 0.2371
vn -0.2733 0.9558 0.1085
vn -0.3736 0.6204 0.6896
vn -0.6796 0.7242 0.1175
vn -0.6728 0.7294 -0.1238
vn -0.8212 0.5706 -0.0014
vn -0.8339 0.5519 -0.0014
vn -0.4854 0.8406 -0.2404
vn -0.3736 0.6204 -0.6896
vn -0.3483 0.6361 -0.6885
vn -0.2702 0.9567 -0.1083
vn 0.0169 0.9999 -0.001
vn 0.0109 0.9999 -0.001
vn -0.1811 0.1631 -0.9698
vn -0.1239 0.0706 -0.9898
vn -0.1536 0.0404 -0.9873
vn -0.1799 -0.0485 -0.9825
vn -0.2247 -0.0375 -0.9737
vn -0.6601 -0.0014 -0.7512
vn -0.6542 -0.0014 -0.7563
vn -0.9787 0.1225 -0.1646
vn -0.9784 0.1277 -0.1624
vn -0.9787 0.1225 0.1646
vn -0.9784 0.1277 0.1624
vn -0.6601 -0.0014 0.7512
vn -0.6542 -0.0014 0.7563
vn -0.2247 -0.0375 0.9737
vn -0.1799 -0.0485 0.9825
vn -0.1241 0.0731 0.9896
vn -0.1536 0.0404 0.9873
vn -0.1811 0.1631 0.9698
o bullet08__p0_c0
f 1/1/1 2/2/2 3/3/3
f 1/1/1 3/3/3 4/4/3
f 4/4/3 3/3/3 5/5/4
f 4/4/3 5/5/4 6/6/4
f 6/6/4 5/5/4 7/7/5
f 6/6/4 7/7/5 8/8/5
f 8/8/5 7/7/5 9/9/6
f 8/8/5 9/9/6 10/10/6
f 10/10/6 9/9/6 11/11/7
f 11/11/7 9/9/6 12/12/7
f 11/11/7 12/12/7 13/13/8
f 13/13/8 12/12/7 14/14/8
f 13/13/8 14/14/8 15/15/9
f 13/13/8 15/15/9 16/16/9
f 16/16/9 15/15/9 17/17/10
f 17/17/10 15/15/9 18/18/10
f 17/17/10 18/18/10 19/19/11
f 17/17/10 19/19/11 20/20/11
f 20/20/11 19/19/11 21/21/12
f 20/20/11 21/21/12 22/22/13
f 23/23/14 24/24/15 25/25/16
f 24/24/15 23/23/14 26/26/17
f 23/23/14 25/25/16 27/27/18
f 25/25/16 24/24/15 28/28/19
f 28/28/19 24/24/15 29/29/20
f 27/27/18 25/25/16 30/30/21
f 30/30/21 25/25/16 28/28/19
f 28/28/19 29/29/20 31/31/22
f 28/28/19 31/31/22 30/30/21
f 31/31/22 29/29/20 32/32/23
f 31/31/22 32/32/23 33/33/24
f 31/31/22 33/33/24 34/34/25
f 31/31/22 34/34/25 30/30/21
f 34/34/25 33/33/24 35/35/26
f 36/36/27 27/27/18 30/30/21
f 30/30/21 34/34/25 37/37/28
f 30/30/21 37/37/28 36/36/27
f 27/27/18 36/36/27 38/38/29
f 34/34/25 35/35/26 39/39/30
f 34/34/25 39/39/30 37/37/28
f 39/39/30 35/35/26 40/40/31
f 40/40/31 35/35/26 41/41/32
f 37/37/28 39/39/30 42/42/33
f 42/42/33 39/39/30 40/40/31
f 42/42/33 40/40/31 43/43/34
f 43/43/34 40/40/31 41/41/32
f 43/43/34 41/41/32 44/44/35
f 37/37/28 42/42/33 45/45/36
f 37/37/28 45/45/36 46/46/37
f 37/37/28 46/46/37 36/36/27
f 46/46/37 45/45/36 47/47/38
f 46/46/37 47/47/38 48/48/39
f 48/48/39 47/47/38 49/49/40
f 36/36/27 46/46/37 50/50/41
f 50/50/41 46/46/37 48/48/39
f 50/50/41 48/48/39 49/49/40
f 36/36/27 50/50/41 38/38/29
f 50/50/41 49/49/40 51/51/42
f 50/50/41 51/51/42 38/38/29
f 52/52/9 53/53/43 54/54/44
f 52/52/9 54/54/44 55/55/45
f 53/53/43 52/52/9 56/56/10
f 55/55/45 54/54/44 57/57/46
f 55/55/45 57/57/46 58/58/7
f 58/58/7 57/57/46 59/59/7
f 58/58/7 59/59/7 60/60/6
f 58/58/7 60/60/6 61/61/6
f 61/61/6 60/60/6 62/62/47
f 62/62/47 60/60/6 63/63/5
f 62/62/47 63/63/5 64/64/4
f 62/62/47 64/64/4 65/65/4
f 65/65/4 64/64/4 66/66/3
f 66/66/3 64/64/4 67/67/3
f 66/66/3 67/67/3 68/68/48
f 66/66/3 68/68/48 69/69/48
f 70/70/11 53/53/43 56/56/10
f 53/53/43 70/70/11 71/71/49
f 71/71/49 70/70/11 72/72/50
f 53/53/43 71/71/49 73/73/51
f 71/71/49 72/72/50 74/74/52
f 73/73/51 71/71/49 75/75/53
f 75/75/53 71/71/49 74/74/52
f 76/76/44 77/77/9 78/78/45
f 76/76/44 78/78/45 79/79/46
f 79/79/46 78/78/45 80/80/7
f 80/80/7 78/78/45 81/81/7
f 80/80/7 81/81/7 82/82/6
f 82/82/6 81/81/7 83/83/54
f 82/82/6 83/83/54 84/84/5
f 84/84/5 83/83/54 85/85/5
f 84/84/5 85/85/5 86/86/4
f 86/86/4 85/85/5 87/87/4
f 86/86/4 87/87/4 88/88/3
f 86/86/4 88/88/3 89/89/3
f 89/89/3 88/88/3 90/90/48
f 89/89/3 90/90/48 91/91/48
f 92/92/55 77/77/9 76/76/44
f 77/77/9 92/92/55 93/93/10
f 93/93/10 92/92/55 94/94/11
f 94/94/11 92/92/55 95/95/56
f 95/95/56 92/92/55 96/96/57
f 95/95/56 96/96/57 97/97/58
f 95/95/56 97/97/58 98/98/59
f 95/95/56 98/98/59 94/94/11
f 94/94/11 98/98/59 99/99/50
f 100/100/60 101/101/61 102/102/62
f 100/100/60 102/102/62 103/103/63
f 103/103/63 102/102/62 104/104/64
f 103/103/63 104/104/64 105/105/65
f 103/103/63 105/105/65 106/106/66
f 105/105/65 104/104/64 107/107/67
f 107/107/67 104/104/64 108/108/68
f 106/106/66 105/105/65 109/109/69
f 109/109/69 105/105/65 107/107/67
f 110/110/70 106/106/66 111/111/71
f 111/111/71 106/106/66 112/112/72
f 106/106/66 109/109/69 113/113/73
f 106/106/66 113/113/73 112/112/72
f 111/111/71 112/112/72 114/114/74
f 114/114/74 112/112/72 113/113/73
f 111/111/71 114/114/74 115/115/75
f 115/115/75 114/114/74 116/116/76
f 117/117/77 109/109/69 107/107/67
f 109/109/69 117/117/77 113/113/73
f 118/118/78 107/107/67 108/108/68
f 118/118/78 108/108/68 119/119/79
f 118/118/78 119/119/79 120/120/80
f 118/118/78 120/120/80 121/121/81
f 118/118/78 121/121/81 122/122/82
f 107/107/67 118/118/78 123/123/83
f 123/123/83 118/118/78 122/122/82
f 107/107/67 123/123/83 117/117/77
f 123/123/83 122/122/82 124/124/84
f 123/123/83 124/124/84 117/117/77
f 124/124/84 122/122/82 125/125/85
f 117/117/77 124/124/84 126/126/86
f 117/117/77 126/126/86 113/113/73
f 124/124/84 125/125/85 127/127/87
f 127/127/87 125/125/85 128/128/88
f 126/126/86 124/124/84 129/129/89
f 129/129/89 124/124/84 127/127/87
f 113/113/73 126/126/86 130/130/90
f 130/130/90 126/126/86 129/129/89
f 113/113/73 130/130/90 114/114/74
f 127/127/87 128/128/88 131/131/91
f 127/127/87 131/131/91 129/129/89
f 131/131/91 128/128/88 132/132/92
f 114/114/74 130/130/90 133/133/93
f 133/133/93 130/130/90 129/129/89
f 131/131/91 132/132/92 134/134/94
f 129/129/89 131/131/91 135/135/95
f 129/129/89 135/135/95 133/133/93
f 135/135/95 131/131/91 134/134/94
f 134/134/94 132/132/92 136/136/96
f 134/134/94 136/136/96 137/137/97
f 137/137/97 136/136/96 138/138/98
f 134/134/94 137/137/97 139/139/99
f 135/135/95 134/134/94 140/140/100
f 140/140/100 134/134/94 139/139/99
f 135/135/95 140/140/100 133/133/93
f 140/140/100 139/139/99 141/141/101
f 140/140/100 141/141/101 142/142/102
f 140/140/100 142/142/102 133/133/93
f 142/142/102 141/141/101 143/143/103
f 142/142/102 143/143/103 144/144/104
f 144/144/104 143/143/103 145/145/105
f 144/144/104 145/145/105 146/146/106
f 142/142/102 144/144/104 147/147/107
f 142/142/102 147/147/107 133/133/93
f 147/147/107 144/144/104 146/146/106
f 133/133/93 147/147/107 114/114/74
f 147/147/107 146/146/106 116/116/76
f 147/147/107 116/116/76 114/114/74
f 148/148/108 149/149/108 150/150/108
f 149/149/108 148/148/108 151/151/108
f 151/151/108 148/148/108 152/152/108
f 151/151/108 152/152/108 153/153/108
f 151/151/108 153/153/108 154/154/108
f 154/154/108 153/153/108 155/155/108
f 154/154/108 155/155/108 156/156/108
f 156/156/108 155/155/108 157/157/108
f 157/157/108 155/155/108 158/158/108
f 157/157/108 158/158/108 120/159/108
f 157/157/108 120/159/108 159/160/108
f 159/160/108 120/159/108 160/161/108
f 160/161/108 120/159/108 119/162/108
f 160/161/108 119/162/108 108/163/108
f 160/161/108 108/163/108 161/164/108
f 161/164/108 108/163/108 104/165/108
f 161/164/108 104/165/108 162/166/108
f 162/166/108 104/165/108 163/167/108
f 163/167/108 104/165/108 102/168/108
f 163/167/108 102/168/108 101/169/108
f 163/167/108 101/169/108 164/170/108
f 164/170/108 101/169/108 165/171/108
f 22/22/13 21/21/12 166/172/109
f 166/172/109 21/21/12 167/173/110
f 166/172/109 167/173/110 168/174/111
f 166/172/109 168/174/111 169/175/111
f 170/176/112 171/177/113 172/178/114
f 172/178/114 171/177/113 173/179/115
f 170/176/112 172/178/114 174/180/116
f 174/180/116 172/178/114 175/181/116
f 176/182/117 173/183/118 171/184/119
f 173/183/118 176/182/117 177/185/120
f 178/186/47 179/187/121 92/188/47
f 92/188/47 179/187/121 96/189/122
f 73/190/123 180/191/124 53/192/47
f 53/192/47 180/191/124 181/193/47
f 148/194/125 182/195/126 183/196/127
f 148/194/125 183/196/127 152/197/128
f 152/197/128 183/196/127 153/198/129
f 153/198/129 183/196/127 184/199/130
f 153/198/129 184/199/130 155/200/131
f 184/199/130 183/196/127 185/201/132
f 155/200/131 184/199/130 186/202/133
f 155/200/131 186/202/133 158/203/134
f 184/199/130 185/201/132 187/204/135
f 184/199/130 187/204/135 186/202/133
f 158/203/134 186/202/133 188/205/136
f 158/203/134 188/205/136 120/206/137
f 120/206/137 188/205/136 121/207/138
f 121/207/138 188/205/136 122/208/139
f 188/205/136 186/202/133 189/209/140
f 188/205/136 189/209/140 122/208/139
f 189/209/140 186/202/133 190/210/141
f 190/210/141 186/202/133 187/204/135
f 122/208/139 189/209/140 191/211/142
f 189/209/140 190/210/141 192/212/143
f 192/212/143 190/210/141 187/204/135
f 189/209/140 192/212/143 191/211/142
f 122/208/139 191/211/142 125/213/144
f 125/213/144 191/211/142 193/214/145
f 125/213/144 193/214/145 128/215/146
f 191/211/142 192/212/143 194/216/147
f 191/211/142 194/216/147 193/214/145
f 192/212/143 187/204/135 195/217/148
f 192/212/143 195/217/148 194/216/147
f 195/217/148 187/204/135 196/218/149
f 196/218/149 187/204/135 185/201/132
f 196/218/149 185/201/132 197/219/150
f 196/218/149 197/219/150 198/220/151
f 196/218/149 198/220/151 199/221/152
f 194/216/147 195/217/148 200/222/153
f 200/222/153 195/217/148 196/218/149
f 194/216/147 200/222/153 201/223/154
f 200/222/153 196/218/149 202/224/155
f 202/224/155 196/218/149 199/221/152
f 200/222/153 202/224/155 201/223/154
f 202/224/155 199/221/152 203/225/156
f 202/224/155 203/225/156 201/223/154
f 203/225/156 199/221/152 204/226/157
f 203/225/156 204/226/157 205/227/158
f 203/225/156 205/227/158 206/228/159
f 203/225/156 206/228/159 201/223/154
f 206/228/159 205/227/158 207/229/160
f 206/228/159 207/229/160 208/230/161
f 206/228/159 208/230/161 209/231/162
f 201/223/154 206/228/159 210/232/163
f 210/232/163 206/228/159 209/231/162
f 211/233/164 194/216/147 201/223/154
f 211/233/164 201/223/154 210/232/163
f 194/216/147 211/233/164 193/214/145
f 210/232/163 209/231/162 212/234/165
f 210/232/163 212/234/165 211/233/164
f 212/234/165 209/231/162 213/235/166
f 212/234/165 213/235/166 214/236/167
f 212/234/165 214/236/167 211/233/164
f 214/236/167 213/235/166 215/237/168
f 193/214/145 211/233/164 216/238/169
f 216/238/169 211/233/164 214/236/167
f 193/214/145 216/238/169 128/215/146
f 128/215/146 216/238/169 132/239/170
f 132/239/170 216/238/169 136/240/171
f 136/240/171 216/238/169 214/236/167
f 136/240/171 214/236/167 215/237/168
f 136/240/171 215/237/168 138/241/172
f 99/99/50 98/98/59 217/242/173
f 217/242/173 98/98/59 218/243/174
f 217/242/173 218/243/174 219/244/111
f 217/242/173 219/244/111 220/245/111
f 74/74/52 72/72/50 221/246/173
f 74/74/52 221/246/173 222/247/174
f 222/247/174 221/246/173 223/248/111
f 223/248/111 221/246/173 224/249/111
f 177/185/120 176/182/117 225/250/108
f 177/185/120 225/250/108 226/251/108
f 226/251/108 225/250/108 90/252/108
f 226/251/108 90/252/108 88/253/108
f 226/251/108 88/253/108 227/254/108
f 227/254/108 88/253/108 87/255/108
f 227/254/108 87/255/108 85/256/108
f 227/254/108 85/256/108 228/257/108
f 228/257/108 85/256/108 83/258/108
f 228/257/108 83/258/108 81/259/108
f 228/257/108 81/259/108 229/260/108
f 229/260/108 81/259/108 78/261/108
f 229/260/108 78/261/108 77/262/108
f 229/260/108 77/262/108 230/263/108
f 230/263/108 77/262/108 93/264/108
f 230/263/108 93/264/108 94/265/108
f 230/263/108 94/265/108 231/266/108
f 231/266/108 94/265/108 99/267/108
f 231/266/108 99/267/108 217/268/175
f 231/266/108 217/268/175 232/269/176
f 232/269/176 217/268/175 220/270/177
f 232/269/176 220/270/177 233/271/178
f 233/271/178 220/270/177 234/272/179
f 234/272/179 220/270/177 219/273/180
f 234/272/179 219/273/180 235/274/181
f 235/274/181 219/273/180 218/275/182
f 235/274/181 218/275/182 236/276/183
f 236/276/183 218/275/182 98/277/183
f 237/278/184 236/279/185 98/280/185
f 237/278/184 98/280/185 97/281/186
f 237/278/184 97/281/186 238/282/187
f 238/282/187 97/281/186 239/283/188
f 238/282/187 239/283/188 240/284/189
f 240/284/189 239/283/188 241/285/190
f 240/284/189 241/285/190 242/286/191
f 242/286/191 241/285/190 243/287/192
f 242/286/191 243/287/192 244/288/193
f 242/286/191 244/288/193 245/289/194
f 245/289/194 244/288/193 75/290/195
f 245/289/194 75/290/195 246/291/196
f 246/291/196 75/290/195 74/292/185
f 246/291/196 74/292/185 247/293/185
f 38/38/29 51/51/42 248/294/197
f 248/294/197 51/51/42 49/295/198
f 248/294/197 49/295/198 249/296/199
f 248/294/197 249/296/199 250/297/200
f 38/38/29 248/294/197 251/298/201
f 251/298/201 248/294/197 250/297/200
f 38/38/29 251/298/201 27/27/18
f 251/298/201 250/297/200 252/299/202
f 27/27/18 251/298/201 253/300/203
f 253/300/203 251/298/201 252/299/202
f 27/27/18 253/300/203 23/23/14
f 253/300/203 252/299/202 254/301/204
f 254/301/204 252/299/202 255/302/205
f 254/301/204 255/302/205 256/303/206
f 256/303/206 255/302/205 257/304/207
f 254/301/204 256/303/206 258/305/208
f 254/301/204 258/305/208 253/300/203
f 258/305/208 256/303/206 259/306/209
f 260/307/210 23/23/14 253/300/203
f 260/307/210 253/300/203 258/305/208
f 260/307/210 258/305/208 259/306/209
f 23/23/14 260/307/210 26/26/17
f 260/307/210 259/306/209 261/308/211
f 260/307/210 261/308/211 26/26/17
f 199/221/152 262/309/212 204/226/157
f 204/226/157 262/309/212 205/227/158
f 262/309/212 199/221/152 263/310/213
f 263/310/213 199/221/152 198/220/151
f 262/309/212 263/310/213 264/311/214
f 263/310/213 198/220/151 265/312/215
f 263/310/213 265/312/215 264/311/214
f 265/312/215 198/220/151 266/313/216
f 266/313/216 198/220/151 197/219/150
f 183/196/127 197/219/150 185/201/132
f 197/219/150 183/196/127 182/195/126
f 197/219/150 182/195/126 266/313/216
f 150/314/217 182/195/126 148/194/125
f 182/195/126 150/314/217 267/315/218
f 182/195/126 267/315/218 266/313/216
f 267/315/218 150/314/217 149/316/219
f 268/317/220 265/312/215 266/313/216
f 268/317/220 266/313/216 267/315/218
f 267/315/218 149/316/219 269/318/221
f 267/315/218 269/318/221 268/317/220
f 269/318/221 149/316/219 270/319/222
f 269/318/221 270/319/222 268/317/220
f 270/319/222 149/316/219 151/320/223
f 265/312/215 268/317/220 271/321/224
f 265/312/215 271/321/224 264/311/214
f 268/317/220 270/319/222 272/322/225
f 270/319/222 151/320/223 273/323/226
f 273/323/226 151/320/223 154/324/227
f 273/323/226 154/324/227 156/325/228
f 270/319/222 273/323/226 274/326/229
f 270/319/222 274/326/229 272/322/225
f 268/317/220 272/322/225 275/327/230
f 268/317/220 275/327/230 271/321/224
f 275/327/230 272/322/225 274/326/229
f 271/321/224 275/327/230 276/328/231
f 271/321/224 276/328/231 264/311/214
f 275/327/230 274/326/229 277/329/232
f 275/327/230 277/329/232 276/328/231
f 278/330/233 274/326/229 273/323/226
f 274/326/229 278/330/233 277/329/232
f 279/331/234 273/323/226 156/325/228
f 273/323/226 279/331/234 278/330/233
f 279/331/234 156/325/228 280/332/235
f 280/332/235 156/325/228 157/333/236
f 278/330/233 279/331/234 281/334/237
f 281/334/237 279/331/234 280/332/235
f 280/332/235 157/333/236 282/335/238
f 280/332/235 282/335/238 281/334/237
f 282/335/238 157/333/236 159/336/239
f 282/335/238 159/336/239 160/337/240
f 281/334/237 282/335/238 283/338/241
f 282/335/238 160/337/240 284/339/242
f 278/330/233 281/334/237 285/340/243
f 281/334/237 283/338/241 286/341/244
f 281/334/237 286/341/244 285/340/243
f 283/338/241 282/335/238 287/342/245
f 287/342/245 282/335/238 284/339/242
f 283/338/241 287/342/245 286/341/244
f 288/343/246 289/344/247 290/345/247
f 290/345/247 289/344/247 291/346/248
f 289/344/247 288/343/246 292/347/246
f 291/346/248 289/344/247 293/348/248
f 292/347/246 288/343/246 294/349/249
f 291/346/248 293/348/248 295/350/250
f 292/347/246 294/349/249 296/351/251
f 296/351/251 294/349/249 68/68/48
f 68/68/48 294/349/249 69/69/48
f 295/350/250 293/348/248 297/352/252
f 295/350/250 297/352/252 298/353/253
f 298/353/253 297/352/252 299/354/253
f 170/355/247 176/356/254 171/357/255
f 176/356/254 170/355/247 300/358/247
f 176/356/254 300/358/247 301/359/256
f 176/356/254 301/359/256 225/360/257
f 300/358/247 170/355/247 302/361/258
f 302/361/258 170/355/247 174/362/259
f 300/358/247 302/361/258 303/363/260
f 225/360/257 301/359/256 304/364/251
f 225/360/257 304/364/251 90/90/48
f 90/90/48 304/364/251 91/91/48
f 303/363/260 302/361/258 305/365/261
f 303/363/260 305/365/261 306/366/252
f 306/366/252 305/365/261 307/367/253
f 306/366/252 307/367/253 308/368/253
f 309/369/108 310/370/108 289/371/108
f 289/371/108 310/370/108 293/372/108
f 309/369/108 289/371/108 292/373/108
f 293/372/108 310/370/108 311/374/262
f 309/369/108 292/373/108 296/375/108
f 293/372/108 311/374/262 297/376/263
f 309/369/108 296/375/108 312/377/108
f 297/376/263 311/374/262 299/378/264
f 312/377/108 296/375/108 68/379/108
f 299/378/264 311/374/262 313/380/265
f 312/377/108 68/379/108 67/381/108
f 299/378/264 313/380/265 298/382/266
f 312/377/108 67/381/108 314/383/108
f 298/382/266 313/380/265 315/384/267
f 314/383/108 67/381/108 64/385/108
f 298/382/266 315/384/267 316/386/268
f 314/383/108 64/385/108 63/387/108
f 298/382/266 316/386/268 295/388/269
f 314/383/108 63/387/108 317/389/108
f 295/388/269 316/386/268 318/390/183
f 317/389/108 63/387/108 60/391/108
f 295/388/269 318/390/183 291/392/183
f 317/389/108 60/391/108 59/393/108
f 291/392/183 318/390/183 290/394/183
f 317/389/108 59/393/108 319/395/270
f 290/394/183 318/390/183 320/396/183
f 319/395/270 59/393/108 57/397/271
f 290/394/183 320/396/183 288/398/183
f 319/395/270 57/397/271 321/399/272
f 288/398/183 320/396/183 294/400/183
f 321/399/272 57/397/271 54/401/273
f 321/399/272 54/401/273 181/402/108
f 181/402/108 54/401/273 53/403/108
f 294/400/183 320/396/183 322/404/183
f 294/400/183 322/404/183 69/405/183
f 69/405/183 322/404/183 66/406/183
f 66/406/183 322/404/183 323/407/183
f 66/406/183 323/407/183 65/408/183
f 65/408/183 323/407/183 62/409/183
f 62/409/183 323/407/183 324/410/183
f 62/409/183 324/410/183 61/411/183
f 61/411/183 324/410/183 58/412/183
f 58/412/183 324/410/183 325/413/183
f 58/412/183 325/413/183 55/414/183
f 55/414/183 325/413/183 52/415/183
f 52/415/183 325/413/183 326/416/183
f 52/415/183 326/416/183 327/417/183
f 52/415/183 327/417/183 56/418/183
f 56/418/183 327/417/183 328/419/183
f 56/418/183 328/419/183 70/420/183
f 70/420/183 328/419/183 72/421/183
f 72/421/183 328/419/183 329/422/183
f 72/421/183 329/422/183 221/423/274
f 221/423/274 329/422/183 330/424/275
f 221/423/274 330/424/275 224/425/180
f 224/425/180 330/424/275 331/426/179
f 224/425/180 331/426/179 332/427/178
f 224/425/180 332/427/178 223/428/177
f 223/428/177 332/427/178 333/429/276
f 223/428/177 333/429/276 222/430/277
f 222/430/277 333/429/276 247/431/108
f 222/430/277 247/431/108 74/432/108
f 43/43/34 44/44/35 334/433/278
f 43/43/34 334/433/278 335/434/279
f 43/43/34 335/434/279 42/42/33
f 335/434/279 334/433/278 336/435/280
f 42/42/33 335/434/279 337/436/281
f 42/42/33 337/436/281 45/45/36
f 335/434/279 336/435/280 338/437/282
f 335/434/279 338/437/282 337/436/281
f 338/437/282 336/435/280 339/438/283
f 339/438/283 336/435/280 340/439/284
f 337/436/281 338/437/282 341/440/285
f 341/440/285 338/437/282 339/438/283
f 45/45/36 337/436/281 342/441/286
f 45/45/36 342/441/286 47/47/38
f 339/438/283 340/439/284 343/442/287
f 339/438/283 343/442/287 341/440/285
f 343/442/287 340/439/284 344/443/288
f 343/442/287 344/443/288 257/444/289
f 343/442/287 257/444/289 255/445/290
f 343/442/287 255/445/290 341/440/285
f 341/440/285 255/445/290 252/446/291
f 345/447/292 47/47/38 342/441/286
f 47/47/38 345/447/292 49/49/40
f 341/440/285 252/446/291 346/448/293
f 341/440/285 346/448/293 337/436/281
f 337/436/281 346/448/293 342/441/286
f 346/448/293 252/446/291 250/449/294
f 49/49/40 345/447/292 347/450/295
f 347/450/295 345/447/292 342/441/286
f 347/450/295 342/441/286 346/448/293
f 347/450/295 346/448/293 250/449/294
f 49/49/40 347/450/295 249/451/296
f 249/451/296 347/450/295 250/449/294
f 175/452/297 348/453/298 302/454/299
f 175/452/297 302/454/299 174/455/300
f 302/454/299 348/453/298 305/456/301
f 305/456/301 348/453/298 349/457/302
f 305/456/301 349/457/302 307/458/264
f 307/458/264 349/457/302 350/459/265
f 307/458/264 350/459/265 351/460/267
f 307/458/264 351/460/267 308/461/266
f 308/461/266 351/460/267 352/462/303
f 308/461/266 352/462/303 306/463/304
f 306/463/304 352/462/303 303/464/183
f 303/464/183 352/462/303 353/465/183
f 303/464/183 353/465/183 300/466/183
f 300/466/183 353/465/183 354/467/183
f 300/466/183 354/467/183 301/468/183
f 301/468/183 354/467/183 304/469/183
f 304/469/183 354/467/183 355/470/183
f 304/469/183 355/470/183 91/471/183
f 91/471/183 355/470/183 89/472/183
f 89/472/183 355/470/183 356/473/183
f 89/472/183 356/473/183 86/474/183
f 86/474/183 356/473/183 84/475/183
f 84/475/183 356/473/183 357/476/183
f 84/475/183 357/476/183 82/477/183
f 82/477/183 357/476/183 80/478/183
f 80/478/183 357/476/183 358/479/305
f 80/478/183 358/479/305 79/480/306
f 79/480/306 358/479/305 76/481/307
f 76/481/307 358/479/305 359/482/308
f 76/481/307 359/482/308 178/483/183
f 76/481/307 178/483/183 92/484/183
f 360/485/309 284/339/242 160/337/240
f 360/485/309 160/337/240 161/486/310
f 360/485/309 161/486/310 162/487/311
f 284/339/242 360/485/309 361/488/312
f 284/339/242 361/488/312 287/342/245
f 360/485/309 162/487/311 362/489/313
f 360/485/309 362/489/313 361/488/312
f 362/489/313 162/487/311 163/490/314
f 362/489/313 163/490/314 363/491/315
f 363/491/315 163/490/314 164/492/316
f 361/488/312 362/489/313 364/493/317
f 364/493/317 362/489/313 363/491/315
f 363/491/315 164/492/316 365/494/318
f 364/493/317 363/491/315 366/495/319
f 365/494/318 164/492/316 367/496/320
f 363/491/315 365/494/318 368/497/321
f 363/491/315 368/497/321 366/495/319
f 368/497/321 365/494/318 367/496/320
f 367/496/320 164/492/316 165/498/322
f 364/493/317 366/495/319 369/499/323
f 369/499/323 366/495/319 368/497/321
f 367/496/320 165/498/322 100/100/60
f 100/100/60 165/498/322 101/101/61
f 368/497/321 367/496/320 370/500/324
f 370/500/324 367/496/320 100/100/60
f 370/500/324 100/100/60 110/110/70
f 110/110/70 100/100/60 103/103/63
f 110/110/70 103/103/63 106/106/66
f 370/500/324 110/110/70 111/111/71
f 370/500/324 111/111/71 371/501/325
f 370/500/324 371/501/325 368/497/321
f 371/501/325 111/111/71 115/115/75
f 368/497/321 371/501/325 372/502/326
f 368/497/321 372/502/326 369/499/323
f 371/501/325 115/115/75 373/503/327
f 371/501/325 373/503/327 372/502/326
f 373/503/327 115/115/75 116/116/76
f 369/499/323 372/502/326 374/504/328
f 372/502/326 373/503/327 375/505/329
f 372/502/326 375/505/329 374/504/328
f 373/503/327 116/116/76 376/506/330
f 373/503/327 376/506/330 375/505/329
f 376/506/330 116/116/76 377/507/331
f 377/507/331 116/116/76 146/146/106
f 375/505/329 376/506/330 378/508/332
f 376/506/330 377/507/331 379/509/333
f 376/506/330 379/509/333 378/508/332
f 375/505/329 378/508/332 380/510/334
f 375/505/329 380/510/334 374/504/328
f 380/510/334 378/508/332 379/509/333
f 374/504/328 380/510/334 381/511/335
f 374/504/328 381/511/335 369/499/323
f 382/512/336 377/507/331 146/146/106
f 382/512/336 146/146/106 145/145/105
f 382/512/336 145/145/105 383/513/183
f 383/513/183 145/145/105 143/143/103
f 383/513/183 143/143/103 384/514/183
f 384/514/183 143/143/103 141/141/101
f 384/514/183 141/141/101 139/139/99
f 384/514/183 139/139/99 385/515/183
f 385/515/183 139/139/99 137/137/97
f 385/515/183 137/137/97 138/138/98
f 385/515/183 138/138/98 386/516/183
f 387/517/183 382/512/336 383/513/183
f 388/518/337 377/507/331 382/512/336
f 388/518/337 382/512/336 387/517/183
f 377/507/331 388/518/337 379/509/333
f 388/518/337 387/517/183 389/519/338
f 388/518/337 389/519/338 379/509/333
f 389/519/338 387/517/183 390/520/183
f 389/519/338 390/520/183 391/521/339
f 379/509/333 389/519/338 392/522/340
f 379/509/333 392/522/340 380/510/334
f 389/519/338 391/521/339 393/523/341
f 389/519/338 393/523/341 392/522/340
f 391/521/339 390/520/183 394/524/342
f 391/521/339 394/524/342 393/523/341
f 394/524/342 390/520/183 395/525/183
f 380/510/334 392/522/340 396/526/343
f 396/526/343 392/522/340 393/523/341
f 380/510/334 396/526/343 381/511/335
f 393/523/341 394/524/342 397/527/344
f 396/526/343 393/523/341 398/528/345
f 398/528/345 393/523/341 397/527/344
f 396/526/343 398/528/345 399/529/346
f 396/526/343 399/529/346 381/511/335
f 397/527/344 394/524/342 400/530/347
f 400/530/347 394/524/342 395/525/183
f 398/528/345 397/527/344 401/531/348
f 401/531/348 397/527/344 400/530/347
f 400/530/347 395/525/183 402/532/349
f 400/530/347 402/532/349 401/531/348
f 402/532/349 395/525/183 403/533/183
f 398/528/345 401/531/348 404/534/350
f 398/528/345 404/534/350 399/529/346
f 401/531/348 402/532/349 405/535/351
f 401/531/348 405/535/351 404/534/350
f 402/532/349 403/533/183 406/536/352
f 402/532/349 406/536/352 405/535/351
f 406/536/352 403/533/183 407/537/353
f 407/537/353 403/533/183 408/538/183
f 405/535/351 406/536/352 409/539/354
f 404/534/350 405/535/351 410/540/355
f 410/540/355 405/535/351 409/539/354
f 409/539/354 406/536/352 411/541/356
f 411/541/356 406/536/352 407/537/353
f 409/539/354 411/541/356 412/542/357
f 409/539/354 412/542/357 413/543/358
f 409/539/354 413/543/358 410/540/355
f 412/542/357 411/541/356 414/544/359
f 413/543/358 412/542/357 415/545/360
f 415/545/360 412/542/357 414/544/359
f 410/540/355 413/543/358 416/546/361
f 416/546/361 413/543/358 415/545/360
f 417/547/362 411/541/356 407/537/353
f 411/541/356 417/547/362 414/544/359
f 417/547/362 407/537/353 418/548/363
f 418/548/363 407/537/353 408/538/183
f 414/544/359 417/547/362 419/549/364
f 418/548/363 408/538/183 420/550/365
f 417/547/362 418/548/363 421/551/366
f 421/551/366 418/548/363 420/550/365
f 417/547/362 421/551/366 419/549/364
f 420/550/365 408/538/183 422/552/183
f 421/551/366 420/550/365 423/553/367
f 421/551/366 423/553/367 419/549/364
f 420/550/365 422/552/183 424/554/368
f 420/550/365 424/554/368 423/553/367
f 424/554/368 422/552/183 425/555/369
f 425/555/369 422/552/183 426/556/183
f 423/553/367 424/554/368 427/557/370
f 427/557/370 424/554/368 425/555/369
f 425/555/369 426/556/183 207/229/160
f 425/555/369 207/229/160 205/227/158
f 425/555/369 205/227/158 427/557/370
f 207/229/160 426/556/183 208/230/161
f 427/557/370 205/227/158 262/309/212
f 208/230/161 426/556/183 428/558/183
f 208/230/161 428/558/183 209/231/162
f 209/231/162 428/558/183 213/235/166
f 213/235/166 428/558/183 386/559/183
f 213/235/166 386/559/183 215/237/168
f 215/237/168 386/559/183 138/241/172
f 427/557/370 262/309/212 429/560/371
f 427/557/370 429/560/371 423/553/367
f 429/560/371 262/309/212 264/311/214
f 423/553/367 429/560/371 419/549/364
f 419/549/364 429/560/371 264/311/214
f 419/549/364 264/311/214 276/328/231
f 419/549/364 276/328/231 414/544/359
f 414/544/359 276/328/231 430/561/372
f 430/561/372 276/328/231 277/329/232
f 414/544/359 430/561/372 415/545/360
f 430/561/372 277/329/232 431/562/373
f 430/561/372 431/562/373 415/545/360
f 431/562/373 277/329/232 278/330/233
f 431/562/373 278/330/233 285/340/243
f 431/562/373 285/340/243 415/545/360
f 415/545/360 285/340/243 416/546/361
f 416/546/361 285/340/243 432/563/374
f 416/546/361 432/563/374 410/540/355
f 432/563/374 285/340/243 286/341/244
f 410/540/355 432/563/374 433/564/375
f 433/564/375 432/563/374 286/341/244
f 410/540/355 433/564/375 404/534/350
f 404/534/350 433/564/375 399/529/346
f 433/564/375 286/341/244 434/565/376
f 433/564/375 434/565/376 399/529/346
f 434/565/376 286/341/244 287/342/245
f 434/565/376 287/342/245 361/488/312
f 399/529/346 434/565/376 435/566/377
f 435/566/377 434/565/376 361/488/312
f 399/529/346 435/566/377 436/567/378
f 436/567/378 435/566/377 361/488/312
f 399/529/346 436/567/378 381/511/335
f 436/567/378 361/488/312 364/493/317
f 381/511/335 436/567/378 369/499/323
f 369/499/323 436/567/378 364/493/317
f 178/568/379 437/569/380 179/570/381
f 437/569/380 178/568/379 236/571/382
f 437/569/380 236/571/382 237/572/383
f 437/569/380 237/572/383 246/573/384
f 246/573/384 237/572/383 238/574/385
f 246/573/384 238/574/385 245/575/386
f 245/575/386 238/574/385 242/576/253
f 242/576/253 238/574/385 240/577/253
f 437/569/380 246/573/384 438/578/387
f 437/569/380 438/578/387 179/570/381
f 438/578/387 246/573/384 247/579/388
f 438/578/387 247/579/388 181/580/389
f 438/578/387 181/580/389 180/581/390
f 438/578/387 180/581/390 179/570/381
f 179/570/381 180/581/390 439/582/391
f 179/570/381 439/582/391 440/583/392
f 440/583/392 439/582/391 1/1/1
f 1/1/1 439/582/391 2/2/2
f 96/189/122 179/187/121 440/584/393
f 96/189/122 440/584/393 441/585/394
f 441/585/394 440/584/393 1/586/395
f 441/585/394 1/586/395 4/587/108
f 441/585/394 4/587/108 442/588/108
f 442/588/108 4/587/108 6/589/108
f 442/588/108 6/589/108 8/590/108
f 442/588/108 8/590/108 443/591/108
f 443/591/108 8/590/108 10/592/108
f 443/591/108 10/592/108 11/593/108
f 443/591/108 11/593/108 444/594/108
f 444/594/108 11/593/108 13/595/108
f 444/594/108 13/595/108 16/596/108
f 444/594/108 16/596/108 445/597/108
f 445/597/108 16/596/108 17/598/108
f 445/597/108 17/598/108 20/599/108
f 445/597/108 20/599/108 446/600/396
f 446/600/396 20/599/108 22/601/397
f 446/600/396 22/601/397 447/602/398
f 447/602/398 22/601/397 166/603/399
f 447/602/398 166/603/399 169/604/400
f 447/602/398 169/604/400 448/605/401
f 448/605/401 169/604/400 168/606/402
f 448/605/401 168/606/402 449/607/403
f 449/607/403 168/606/402 450/608/404
f 450/608/404 168/606/402 167/609/405
f 450/608/404 167/609/405 21/610/406
f 450/608/404 21/610/406 451/611/407
f 451/611/407 21/610/406 19/612/183
f 451/611/407 19/612/183 452/613/183
f 452/613/183 19/612/183 18/614/183
f 452/613/183 18/614/183 15/615/183
f 452/613/183 15/615/183 453/616/183
f 453/616/183 15/615/183 14/617/183
f 453/616/183 14/617/183 12/618/183
f 453/616/183 12/618/183 454/619/183
f 454/619/183 12/618/183 9/620/183
f 454/619/183 9/620/183 7/621/183
f 454/619/183 7/621/183 455/622/183
f 455/622/183 7/621/183 5/623/183
f 455/622/183 5/623/183 3/624/183
f 455/622/183 3/624/183 456/625/408
f 456/625/408 3/624/183 2/626/409
f 456/625/408 2/626/409 439/627/410
f 456/625/408 439/627/410 73/190/123
f 73/190/123 439/627/410 180/191/124
