# CS2 body mesh, tools/cs2_glb_to_obj.py
v 0.01355 -0.0178 -0.01496
v 0.01388 -0.01721 -0.01496
v 0.01321 -0.01755 -0.01496
v 0.01308 -0.01829 -0.01496
v 0.01362 -0.0165 -0.01496
v 0.01404 -0.01655 -0.01496
v 0.01233 -0.01825 -0.01496
v 0.01403 -0.01587 -0.01496
v 0.0125 -0.01864 -0.01496
v 0.01345 -0.01539 -0.01496
v 0.01384 -0.01522 -0.01496
v 0.01349 -0.01464 -0.01496
v 0.01275 -0.01451 -0.01496
v 0.013 -0.01417 -0.01496
v 0.0124 -0.01384 -0.01496
v 0.0117 -0.0141 -0.01496
v 0.01175 -0.01368 -0.01496
v 0.01185 -0.01883 -0.01496
v 0.01122 -0.01842 -0.01496
v 0.01107 -0.01369 -0.01496
v 0.01059 -0.01427 -0.01496
v 0.01107 -0.01369 -0.01899
v 0.01174 -0.01368 -0.01899
v 0.01189 -0.01239 -0.02189
v 0.01087 -0.01241 -0.02189
v 0.01041 -0.01388 -0.01899
v 0.01188 -0.01239 -0.04905
v 0.01041 -0.01388 -0.01496
v 0.00989 -0.01269 -0.02189
v 0.00983 -0.01423 -0.01899
v 0.00983 -0.01423 -0.01496
v 0.00971 -0.01498 -0.01496
v 0.00936 -0.01472 -0.01496
v 0.00936 -0.01472 -0.01899
v 0.00904 -0.01532 -0.01496
v 0.0093 -0.01602 -0.01496
v 0.00832 -0.01395 -0.02189
v 0.00902 -0.01322 -0.02189
v 0.00889 -0.01665 -0.01496
v 0.00947 -0.01713 -0.01496
v 0.00887 -0.01598 -0.01496
v 0.00889 -0.01666 -0.01899
v 0.00887 -0.01598 -0.01899
v 0.00904 -0.01532 -0.01899
v 0.00758 -0.01583 -0.02189
v 0.0076 -0.01685 -0.02189
v 0.00783 -0.01485 -0.02189
v 0.0076 -0.01685 -0.04905
v 0.00782 -0.01485 -0.04905
v 0.00758 -0.01584 -0.04905
v 0.0082 -0.01676 -0.04971
v 0.00818 -0.0159 -0.04971
v 0.0082 -0.01676 -0.05049
v 0.00839 -0.01507 -0.04971
v 0.00831 -0.01396 -0.04905
v 0.0088 -0.01432 -0.04971
v 0.00902 -0.01322 -0.04905
v 0.0094 -0.0137 -0.04971
v 0.00989 -0.01269 -0.04905
v 0.01087 -0.01241 -0.04905
v 0.01013 -0.01325 -0.04971
v 0.0088 -0.01432 -0.05049
v 0.0072 -0.01463 -0.02206
v 0.00692 -0.01576 -0.02603
v 0.00692 -0.01576 -0.02206
v 0.00694 -0.01692 -0.02205
v 0.0072 -0.01461 -0.02603
v 0.00694 -0.01695 -0.02603
v 0.00778 -0.01356 -0.02206
v 0.00728 -0.0181 -0.02205
v 0.00778 -0.01356 -0.02603
v 0.00728 -0.0181 -0.02603
v 0.00785 -0.01904 -0.02288
v 0.00785 -0.01904 -0.02521
v 0.0086 -0.0127 -0.02206
v 0.0086 -0.0127 -0.02603
v 0.00962 -0.01208 -0.02206
v 0.00962 -0.01208 -0.02603
v 0.01077 -0.01175 -0.02603
v 0.01077 -0.01175 -0.02206
v 0.01196 -0.01173 -0.02206
v 0.01196 -0.01173 -0.02603
v 0.00692 -0.01576 -0.04619
v 0.00719 -0.01463 -0.04114
v 0.00718 -0.01469 -0.04619
v 0.00692 -0.01576 -0.03716
v 0.0072 -0.01461 -0.03716
v 0.00778 -0.01356 -0.04114
v 0.00694 -0.01693 -0.04114
v 0.00694 -0.01687 -0.04619
v 0.00694 -0.01695 -0.03716
v 0.00778 -0.01356 -0.03716
v 0.00727 -0.0181 -0.04114
v 0.0086 -0.0127 -0.04114
v 0.00728 -0.0181 -0.03716
v 0.00785 -0.01904 -0.04032
v 0.00785 -0.01904 -0.03799
v 0.0086 -0.0127 -0.03716
v 0.00962 -0.01208 -0.03717
v 0.00962 -0.01208 -0.04114
v 0.01076 -0.01175 -0.03717
v 0.01076 -0.01175 -0.04114
v 0.01195 -0.01173 -0.04114
v 0.01196 -0.01173 -0.03717
v 0.01265 -0.0132 -0.04971
v 0.01287 -0.01263 -0.04905
v 0.01182 -0.01299 -0.04971
v 0.01096 -0.01301 -0.04971
v 0.01182 -0.013 -0.05049
v 0.01096 -0.01301 -0.05049
v 0.01287 -0.01263 -0.0508
v 0.01265 -0.0132 -0.05049
v 0.01188 -0.01239 -0.0508
v 0.01087 -0.01241 -0.0508
v 0.01188 -0.01239 -0.05135
v 0.01087 -0.01241 -0.05135
v 0.01013 -0.01325 -0.05049
v 0.00989 -0.01269 -0.0508
v 0.00989 -0.01269 -0.05135
v 0.00902 -0.01322 -0.05135
v 0.00902 -0.01322 -0.0508
v 0.0094 -0.0137 -0.05049
v 0.00831 -0.01396 -0.0508
v 0.00831 -0.01396 -0.05135
v 0.00782 -0.01485 -0.0508
v 0.00782 -0.01485 -0.05135
v 0.00758 -0.01584 -0.05135
v 0.00839 -0.01507 -0.05049
v 0.00818 -0.0159 -0.05049
v 0.00758 -0.01584 -0.0508
v 0.0076 -0.01685 -0.05135
v 0.0076 -0.01685 -0.0508
v 0.01526 -0.0155 -0.03755
v 0.01697 -0.01687 -0.03557
v 0.01726 -0.01572 -0.03557
v 0.015 -0.01784 -0.03755
v 0.017 -0.01806 -0.03557
v 0.017 -0.01806 -0.02763
v 0.01733 -0.01921 -0.03509
v 0.01733 -0.01921 -0.02811
v 0.0179 -0.02015 -0.02941
v 0.0179 -0.02015 -0.03379
v 0.01697 -0.01687 -0.02763
v 0.015 -0.01784 -0.02565
v 0.01526 -0.01549 -0.02565
v 0.01726 -0.01572 -0.02763
v 0.01783 -0.01467 -0.02763
v 0.01783 -0.01467 -0.03557
v 0.01866 -0.01381 -0.03595
v 0.01866 -0.01381 -0.02725
v 0.01968 -0.01319 -0.02725
v 0.01968 -0.01319 -0.03595
v 0.02082 -0.01286 -0.02725
v 0.02082 -0.01286 -0.03595
v 0.02201 -0.01284 -0.02725
v 0.02201 -0.01284 -0.03595
v 0.01173 -0.01569 -0.00411
v 0.01193 -0.01525 -0.0051
v 0.01125 -0.01567 -0.00411
v 0.01146 -0.01626 -0.00377
v 0.01108 -0.01521 -0.0051
v 0.01213 -0.01482 -0.00679
v 0.01089 -0.016 -0.00411
v 0.01092 -0.01477 -0.00679
v 0.01191 -0.01444 -0.00847
v 0.01045 -0.01579 -0.0051
v 0.01002 -0.01559 -0.00679
v 0.01087 -0.01648 -0.00411
v 0.01119 -0.01683 -0.00411
v 0.01168 -0.01685 -0.00411
v 0.01099 -0.01727 -0.0051
v 0.01184 -0.01731 -0.0051
v 0.01041 -0.01664 -0.0051
v 0.01079 -0.0177 -0.00679
v 0.012 -0.01775 -0.00679
v 0.00997 -0.0168 -0.00679
v 0.01101 -0.01809 -0.00847
v 0.01174 -0.01812 -0.00847
v 0.01091 -0.0185 -0.01495
v 0.01181 -0.01854 -0.01495
v 0.01035 -0.01778 -0.00847
v 0.01009 -0.01812 -0.01495
v 0.00985 -0.01724 -0.00847
v 0.00949 -0.01746 -0.01495
v 0.00918 -0.01661 -0.01495
v 0.0096 -0.01655 -0.00847
v 0.00922 -0.01571 -0.01495
v 0.00963 -0.01581 -0.00847
v 0.00995 -0.01515 -0.00847
v 0.0096 -0.0149 -0.01495
v 0.01049 -0.01465 -0.00847
v 0.01027 -0.01429 -0.01495
v 0.01111 -0.01398 -0.01495
v 0.01118 -0.0144 -0.00847
v 0.01201 -0.01402 -0.01495
v 0.00782 -0.01485 -0.04612
v 0.00782 -0.01485 -0.04114
v 0.01102 -0.02014 -0.05135
v 0.01302 -0.01984 -0.05135
v 0.01204 -0.02012 -0.05135
v 0.01389 -0.01931 -0.05135
v 0.01004 -0.0199 -0.05135
v 0.00914 -0.01941 -0.05135
v 0.01459 -0.01857 -0.05135
v 0.00841 -0.0187 -0.05135
v 0.01508 -0.01768 -0.05135
v 0.01533 -0.01669 -0.05135
v 0.00788 -0.01783 -0.05135
v 0.01531 -0.01568 -0.05135
v 0.01502 -0.0147 -0.05135
v 0.0145 -0.01383 -0.05135
v 0.01376 -0.01312 -0.05135
v 0.01287 -0.01263 -0.05135
v 0.00758 -0.01584 -0.04612
v 0.0076 -0.01685 -0.04612
v 0.00789 -0.01783 -0.02206
v 0.0076 -0.01685 -0.02206
v 0.00783 -0.01485 -0.02206
v 0.00902 -0.01322 -0.02206
v 0.01087 -0.01241 -0.02206
v 0.01287 -0.01263 -0.02206
v 0.01312 -0.01201 -0.02206
v 0.01416 -0.01258 -0.02206
v 0.0145 -0.01383 -0.02206
v 0.01502 -0.01341 -0.02206
v 0.01564 -0.01443 -0.02206
v 0.01503 -0.0147 -0.02206
v 0.01531 -0.01567 -0.02206
v 0.01597 -0.01557 -0.02206
v 0.01533 -0.01669 -0.02206
v 0.01599 -0.01676 -0.02206
v 0.01571 -0.01792 -0.02206
v 0.01509 -0.01768 -0.02206
v 0.01514 -0.01897 -0.02206
v 0.0146 -0.01857 -0.02206
v 0.01437 -0.01976 -0.0228
v 0.01389 -0.01931 -0.0228
v 0.01437 -0.01976 -0.02491
v 0.01389 -0.01931 -0.02491
v 0.0146 -0.01857 -0.02565
v 0.01514 -0.01897 -0.02565
v 0.01571 -0.01792 -0.02565
v 0.01503 -0.0147 -0.02189
v 0.01384 -0.01522 -0.01899
v 0.01531 -0.01568 -0.02189
v 0.01349 -0.01464 -0.01899
v 0.013 -0.01417 -0.01899
v 0.0145 -0.01383 -0.02189
v 0.0124 -0.01384 -0.01899
v 0.01288 -0.01263 -0.02189
v 0.01377 -0.01312 -0.02189
v 0.01376 -0.01312 -0.04905
v 0.0145 -0.01383 -0.04905
v 0.0134 -0.01361 -0.04971
v 0.01502 -0.0147 -0.04905
v 0.01402 -0.01421 -0.04971
v 0.01447 -0.01494 -0.04971
v 0.01531 -0.01568 -0.04905
v 0.01533 -0.01669 -0.04905
v 0.01471 -0.01577 -0.04971
v 0.01447 -0.01494 -0.05049
v 0.01402 -0.01421 -0.05049
v 0.01471 -0.01577 -0.05049
v 0.0134 -0.01361 -0.05049
v 0.01376 -0.01312 -0.0508
v 0.0145 -0.01383 -0.0508
v 0.01502 -0.0147 -0.0508
v 0.01531 -0.01568 -0.0508
v 0.01472 -0.01663 -0.05049
v 0.01533 -0.01669 -0.0508
v 0.01508 -0.01768 -0.0508
v 0.01459 -0.01857 -0.0508
v 0.01452 -0.01746 -0.05049
v 0.01472 -0.01663 -0.04971
v 0.01452 -0.01746 -0.04971
v 0.01508 -0.01768 -0.04905
v 0.0141 -0.01821 -0.04971
v 0.0141 -0.01821 -0.05049
v 0.01389 -0.01931 -0.0508
v 0.01351 -0.01883 -0.05049
v 0.01351 -0.01883 -0.04971
v 0.01277 -0.01928 -0.05049
v 0.01302 -0.01984 -0.0508
v 0.01204 -0.02012 -0.0508
v 0.00902 -0.01322 -0.04114
v 0.01086 -0.01241 -0.04114
v 0.01287 -0.01263 -0.04114
v 0.01311 -0.01201 -0.04114
v 0.01416 -0.01259 -0.04114
v 0.0145 -0.01383 -0.04114
v 0.01502 -0.01341 -0.04114
v 0.01563 -0.01443 -0.04114
v 0.01531 -0.01567 -0.04114
v 0.01597 -0.01557 -0.04114
v 0.01599 -0.01677 -0.04114
v 0.01509 -0.01768 -0.04114
v 0.01571 -0.01792 -0.04114
v 0.01513 -0.01897 -0.04114
v 0.0146 -0.01857 -0.04114
v 0.01437 -0.01976 -0.0404
v 0.01389 -0.01931 -0.0404
v 0.01389 -0.01931 -0.03829
v 0.01437 -0.01976 -0.03829
v 0.0146 -0.01857 -0.03755
v 0.01513 -0.01897 -0.03755
v 0.01571 -0.01792 -0.03755
v 0.02317 -0.01312 -0.02725
v 0.02317 -0.01312 -0.03595
v 0.02421 -0.0137 -0.03595
v 0.02421 -0.0137 -0.02725
v 0.02507 -0.01452 -0.03595
v 0.02507 -0.01452 -0.02725
v 0.02569 -0.01554 -0.02725
v 0.02569 -0.01554 -0.03595
v 0.02602 -0.01668 -0.03595
v 0.02602 -0.01668 -0.02725
v 0.02605 -0.01787 -0.02725
v 0.02605 -0.01788 -0.03595
v 0.02576 -0.01903 -0.02725
v 0.02576 -0.01903 -0.03595
v 0.02519 -0.02008 -0.03542
v 0.02519 -0.02008 -0.02778
v 0.02443 -0.02087 -0.02921
v 0.02442 -0.02087 -0.034
v 0.01597 -0.01557 -0.03755
v 0.01798 -0.0158 -0.03557
v 0.01907 -0.01433 -0.03595
v 0.02092 -0.01352 -0.03595
v 0.02293 -0.01374 -0.03595
v 0.02455 -0.01494 -0.03595
v 0.02536 -0.01678 -0.03595
v 0.02514 -0.01879 -0.03595
v 0.02465 -0.01968 -0.03542
v 0.02395 -0.02042 -0.034
v 0.02395 -0.02042 -0.02921
v 0.02465 -0.01968 -0.02778
v 0.02514 -0.01879 -0.02725
v 0.02536 -0.01678 -0.02725
v 0.02455 -0.01494 -0.02725
v 0.02293 -0.01374 -0.02725
v 0.02092 -0.01352 -0.02725
v 0.01907 -0.01433 -0.02725
v 0.01798 -0.0158 -0.02763
v 0.01597 -0.01557 -0.02565
v 0.00782 -0.01485 -0.02603
v 0.0076 -0.01685 -0.02603
v 0.00789 -0.01783 -0.02603
v 0.00902 -0.01322 -0.02603
v 0.01087 -0.01241 -0.02603
v 0.01287 -0.01263 -0.02603
v 0.01311 -0.01201 -0.02603
v 0.01416 -0.01258 -0.02603
v 0.0145 -0.01383 -0.02603
v 0.01502 -0.01341 -0.02603
v 0.01503 -0.0147 -0.02565
v 0.01564 -0.01443 -0.02565
v 0.00789 -0.01783 -0.03716
v 0.0076 -0.01685 -0.03716
v 0.00782 -0.01485 -0.03716
v 0.00902 -0.01322 -0.03717
v 0.01087 -0.01241 -0.03717
v 0.01287 -0.01263 -0.03717
v 0.01311 -0.01201 -0.03717
v 0.01416 -0.01259 -0.03717
v 0.0145 -0.01383 -0.03717
v 0.01502 -0.01341 -0.03717
v 0.01563 -0.01443 -0.03755
v 0.01502 -0.0147 -0.03755
v 0.01599 -0.01676 -0.02565
v 0.01772 -0.01814 -0.02772
v 0.01599 -0.01677 -0.03755
v 0.01772 -0.01814 -0.03548
v 0.00788 -0.01783 -0.04905
v 0.00844 -0.01759 -0.04971
v 0.00789 -0.01783 -0.02189
v 0.00908 -0.01731 -0.01899
v 0.00841 -0.0187 -0.02189
v 0.00841 -0.0187 -0.04905
v 0.00943 -0.01789 -0.01899
v 0.00908 -0.01731 -0.01496
v 0.00943 -0.01789 -0.01496
v 0.01017 -0.01801 -0.01496
v 0.00915 -0.0194 -0.02189
v 0.00992 -0.01836 -0.01496
v 0.00992 -0.01836 -0.01899
v 0.01051 -0.01869 -0.01496
v 0.00914 -0.01941 -0.04905
v 0.01117 -0.01885 -0.01496
v 0.01051 -0.01869 -0.01899
v 0.01004 -0.01989 -0.02189
v 0.01117 -0.01885 -0.01899
v 0.01185 -0.01883 -0.01899
v 0.01103 -0.02014 -0.02189
v 0.01205 -0.02012 -0.02189
v 0.01204 -0.02012 -0.04905
v 0.01004 -0.0199 -0.04905
v 0.01102 -0.02014 -0.04905
v 0.01195 -0.01952 -0.04971
v 0.0095 -0.01892 -0.04971
v 0.01026 -0.01933 -0.04971
v 0.01109 -0.01953 -0.04971
v 0.01195 -0.01952 -0.05049
v 0.00888 -0.01832 -0.04971
v 0.01026 -0.01933 -0.05049
v 0.0095 -0.01892 -0.05049
v 0.00888 -0.01832 -0.05049
v 0.00844 -0.01759 -0.05049
v 0.00841 -0.0187 -0.0508
v 0.00788 -0.01783 -0.0508
v 0.00914 -0.01941 -0.0508
v 0.01004 -0.0199 -0.0508
v 0.01102 -0.02014 -0.0508
v 0.01109 -0.01953 -0.05049
v 0.01332 -0.01598 -0.00847
v 0.01374 -0.01592 -0.01495
v 0.01307 -0.01529 -0.00847
v 0.0137 -0.01681 -0.01495
v 0.01343 -0.01507 -0.01495
v 0.01282 -0.01441 -0.01495
v 0.01295 -0.01572 -0.00679
v 0.01257 -0.01475 -0.00847
v 0.01329 -0.01671 -0.00847
v 0.01251 -0.01588 -0.0051
v 0.0129 -0.01694 -0.00679
v 0.01297 -0.01738 -0.00847
v 0.01332 -0.01763 -0.01495
v 0.01205 -0.01605 -0.00411
v 0.01243 -0.01787 -0.00847
v 0.01265 -0.01824 -0.01495
v 0.01247 -0.01674 -0.0051
v 0.01203 -0.01653 -0.00411
v 0.01794 -0.01894 -0.02811
v 0.01794 -0.01894 -0.03509
v 0.0076 -0.01685 -0.04114
v 0.00788 -0.01783 -0.04114
v 0.01847 -0.01981 -0.03379
v 0.01847 -0.01981 -0.02941
v 0.01302 -0.01983 -0.04905
v 0.01277 -0.01928 -0.04971
v 0.01389 -0.01931 -0.04905
v 0.01389 -0.01931 -0.02189
v 0.01302 -0.01983 -0.02189
v 0.0125 -0.01864 -0.01899
v 0.01308 -0.01829 -0.01899
v 0.01459 -0.01857 -0.04905
v 0.0146 -0.01857 -0.02189
v 0.01355 -0.0178 -0.01899
v 0.01388 -0.01721 -0.01899
v 0.01509 -0.01768 -0.02189
v 0.01404 -0.01655 -0.01899
v 0.01533 -0.01669 -0.02189
v 0.01403 -0.01587 -0.01899
v 0.00841 -0.0187 -0.02521
v 0.00841 -0.0187 -0.02288
v 0.00841 -0.0187 -0.04032
v 0.00841 -0.0187 -0.03799
vt 0.879395 0.909668
vt 0.879883 0.909668
vt 0.879395 0.90918
vt 0.878418 0.909668
vt 0.880859 0.90918
vt 0.880859 0.909668
vt 0.87793 0.90918
vt 0.881348 0.909668
vt 0.877441 0.909668
vt 0.882324 0.90918
vt 0.882324 0.909668
vt 0.883301 0.909668
vt 0.883789 0.90918
vt 0.883789 0.909668
vt 0.884766 0.909668
vt 0.885254 0.90918
vt 0.885254 0.909668
vt 0.876953 0.909668
vt 0.876465 0.90918
vt 0.88623 0.909668
vt 0.886719 0.90918
vt 0.88623 0.914062
vt 0.885254 0.914062
vt 0.88623 0.916992
vt 0.887207 0.916992
vt 0.887207 0.914062
vt 0.88623 0.945801
vt 0.887207 0.909668
vt 0.888184 0.916992
vt 0.887695 0.914062
vt 0.887695 0.909668
vt 0.887695 0.90918
vt 0.888672 0.909668
vt 0.888672 0.914062
vt 0.88916 0.909668
vt 0.88916 0.90918
vt 0.890137 0.916992
vt 0.88916 0.916992
vt 0.890625 0.909668
vt 0.890137 0.90918
vt 0.890137 0.909668
vt 0.890625 0.914062
vt 0.890137 0.914062
vt 0.88916 0.914062
vt 0.89209 0.916992
vt 0.893066 0.916992
vt 0.891113 0.916992
vt 0.893066 0.945801
vt 0.891113 0.945801
vt 0.89209 0.945801
vt 0.893066 0.946777
vt 0.89209 0.946777
vt 0.893066 0.947754
vt 0.891113 0.946777
vt 0.890137 0.945801
vt 0.890137 0.946777
vt 0.88916 0.945801
vt 0.88916 0.946777
vt 0.888184 0.945801
vt 0.887207 0.945801
vt 0.888184 0.946777
vt 0.890137 0.947754
vt 0.956543 0.058258
vt 0.955566 0.05426
vt 0.955566 0.058258
vt 0.954102 0.058258
vt 0.956543 0.05426
vt 0.954102 0.05426
vt 0.958008 0.058258
vt 0.953125 0.058258
vt 0.958008 0.05426
vt 0.953125 0.05426
vt 0.952148 0.057556
vt 0.952148 0.055206
vt 0.958984 0.058258
vt 0.958984 0.05426
vt 0.960449 0.058258
vt 0.960449 0.05426
vt 0.961426 0.05426
vt 0.961426 0.058258
vt 0.962891 0.058258
vt 0.962891 0.05426
vt 0.874512 0.254883
vt 0.875977 0.259766
vt 0.875977 0.254883
vt 0.874512 0.263916
vt 0.875977 0.263916
vt 0.876953 0.259766
vt 0.873535 0.259766
vt 0.873535 0.254883
vt 0.873535 0.263916
vt 0.876953 0.263916
vt 0.87207 0.259766
vt 0.878418 0.259766
vt 0.87207 0.263916
vt 0.871094 0.260742
vt 0.871094 0.263184
vt 0.878418 0.263916
vt 0.879395 0.263916
vt 0.879395 0.259766
vt 0.880859 0.263916
vt 0.880859 0.259766
vt 0.881836 0.259766
vt 0.881836 0.263916
vt 0.885254 0.946777
vt 0.885254 0.945801
vt 0.88623 0.946777
vt 0.887207 0.946777
vt 0.88623 0.947754
vt 0.887207 0.947754
vt 0.885254 0.948242
vt 0.885254 0.947754
vt 0.88623 0.948242
vt 0.887207 0.948242
vt 0.88623 0.94873
vt 0.887207 0.94873
vt 0.888184 0.947754
vt 0.888184 0.948242
vt 0.888184 0.94873
vt 0.88916 0.94873
vt 0.88916 0.948242
vt 0.88916 0.947754
vt 0.890137 0.948242
vt 0.890137 0.94873
vt 0.891113 0.948242
vt 0.891113 0.94873
vt 0.89209 0.94873
vt 0.891113 0.947754
vt 0.89209 0.947754
vt 0.89209 0.948242
vt 0.893066 0.94873
vt 0.893066 0.948242
vt 0.85791 0.031189
vt 0.856445 0.033966
vt 0.85791 0.033997
vt 0.855469 0.031189
vt 0.855469 0.033997
vt 0.855469 0.042023
vt 0.854004 0.034485
vt 0.854004 0.041534
vt 0.853027 0.040222
vt 0.853027 0.035797
vt 0.856445 0.042053
vt 0.855469 0.04483
vt 0.85791 0.04483
vt 0.85791 0.042023
vt 0.858887 0.042023
vt 0.858887 0.033997
vt 0.860352 0.0336
vt 0.860352 0.042419
vt 0.861328 0.042419
vt 0.861328 0.0336
vt 0.862793 0.042419
vt 0.862793 0.0336
vt 0.86377 0.042419
vt 0.86377 0.0336
vt 0.70166 0.234619
vt 0.70166 0.233765
vt 0.701172 0.234619
vt 0.700684 0.235229
vt 0.701172 0.233765
vt 0.702148 0.232178
vt 0.700195 0.234619
vt 0.700684 0.232178
vt 0.70166 0.230347
vt 0.700195 0.233765
vt 0.699707 0.232178
vt 0.699707 0.234619
vt 0.699219 0.234863
vt 0.69873 0.235229
vt 0.698242 0.233765
vt 0.697754 0.233765
vt 0.699219 0.233765
vt 0.697266 0.232178
vt 0.696289 0.232178
vt 0.69873 0.232178
vt 0.696777 0.230347
vt 0.695801 0.230347
vt 0.694824 0.223633
vt 0.693848 0.223633
vt 0.697266 0.230347
vt 0.695801 0.223633
vt 0.697754 0.230347
vt 0.696289 0.223633
vt 0.697266 0.223633
vt 0.69873 0.230347
vt 0.698242 0.223633
vt 0.699219 0.230347
vt 0.699707 0.230347
vt 0.699219 0.223633
vt 0.700684 0.230347
vt 0.700195 0.223633
vt 0.701172 0.223633
vt 0.701172 0.230347
vt 0.702148 0.223633
vt 0.604492 0.007416
vt 0.609375 0.008118
vt 0.609375 0.007416
vt 0.604004 0.008118
vt 0.266113 0.731934
vt 0.266113 0.72998
vt 0.266113 0.730957
vt 0.266602 0.729004
vt 0.266602 0.73291
vt 0.267334 0.733887
vt 0.267334 0.728027
vt 0.268066 0.734375
vt 0.268066 0.727539
vt 0.269043 0.727051
vt 0.269043 0.734863
vt 0.270264 0.727051
vt 0.270264 0.734863
vt 0.27124 0.734863
vt 0.27124 0.727051
vt 0.272217 0.734375
vt 0.272217 0.727539
vt 0.273193 0.733887
vt 0.273193 0.728027
vt 0.273682 0.729004
vt 0.273682 0.73291
vt 0.27417 0.731934
vt 0.27417 0.72998
vt 0.27417 0.730957
vt 0.840332 0.989258
vt 0.840332 0.987793
vt 0.839844 0.989258
vt 0.839844 0.987793
vt 0.840332 0.990234
vt 0.839844 0.990234
vt 0.45459 0.010986
vt 0.45459 0.011719
vt 0.455811 0.011719
vt 0.455811 0.010986
vt 0.456787 0.010986
vt 0.458008 0.011719
vt 0.458008 0.010986
vt 0.458984 0.010986
vt 0.459961 0.011719
vt 0.459961 0.010986
vt 0.461182 0.010986
vt 0.462158 0.011719
vt 0.462158 0.010986
vt 0.463135 0.010986
vt 0.464355 0.011719
vt 0.464355 0.010986
vt 0.465332 0.010986
vt 0.466553 0.011719
vt 0.466309 0.010986
vt 0.467529 0.010986
vt 0.467529 0.011719
vt 0.46875 0.011719
vt 0.46875 0.010986
vt 0.469971 0.011719
vt 0.469971 0.010986
vt 0.471191 0.010986
vt 0.471191 0.011719
vt 0.472412 0.010986
vt 0.472168 0.011719
vt 0.473633 0.010986
vt 0.473633 0.011719
vt 0.475586 0.010986
vt 0.475586 0.011719
vt 0.477051 0.011719
vt 0.477051 0.010986
vt 0.477783 0.011719
vt 0.478027 0.010986
vt 0.882812 0.916992
vt 0.882324 0.914062
vt 0.881836 0.916992
vt 0.883301 0.914062
vt 0.883789 0.914062
vt 0.883301 0.916992
vt 0.884766 0.914062
vt 0.885254 0.916992
vt 0.884277 0.916992
vt 0.884277 0.945801
vt 0.883301 0.945801
vt 0.884277 0.946777
vt 0.882812 0.945801
vt 0.883301 0.946777
vt 0.882812 0.946777
vt 0.881836 0.945801
vt 0.880859 0.945801
vt 0.881836 0.946777
vt 0.882812 0.947754
vt 0.883301 0.947754
vt 0.881836 0.947754
vt 0.884277 0.947754
vt 0.885254 0.94873
vt 0.884277 0.948242
vt 0.884277 0.94873
vt 0.883301 0.948242
vt 0.883301 0.94873
vt 0.882812 0.948242
vt 0.882812 0.94873
vt 0.881836 0.94873
vt 0.881836 0.948242
vt 0.880859 0.94873
vt 0.880859 0.947754
vt 0.880859 0.948242
vt 0.879883 0.948242
vt 0.879883 0.94873
vt 0.878906 0.948242
vt 0.879883 0.947754
vt 0.880859 0.946777
vt 0.878906 0.94873
vt 0.879883 0.946777
vt 0.879883 0.945801
vt 0.878906 0.946777
vt 0.878906 0.947754
vt 0.87793 0.948242
vt 0.87793 0.94873
vt 0.87793 0.947754
vt 0.87793 0.946777
vt 0.876953 0.947754
vt 0.876953 0.94873
vt 0.876953 0.948242
vt 0.875977 0.94873
vt 0.875977 0.948242
vt 0.603027 0.007416
vt 0.602051 0.008118
vt 0.602051 0.007416
vt 0.601074 0.007416
vt 0.600098 0.008118
vt 0.600098 0.007416
vt 0.598633 0.007416
vt 0.597656 0.008118
vt 0.597656 0.007416
vt 0.59668 0.007416
vt 0.595703 0.008118
vt 0.595703 0.007416
vt 0.594238 0.007416
vt 0.593262 0.008118
vt 0.593262 0.007416
vt 0.592285 0.007416
vt 0.591309 0.008118
vt 0.591309 0.007416
vt 0.589844 0.007416
vt 0.589844 0.008118
vt 0.588867 0.007416
vt 0.588867 0.008118
vt 0.586426 0.008118
vt 0.586426 0.007416
vt 0.585449 0.008118
vt 0.585449 0.007416
vt 0.583984 0.008118
vt 0.583984 0.007416
vt 0.865234 0.042419
vt 0.865234 0.0336
vt 0.866211 0.0336
vt 0.866211 0.042419
vt 0.867676 0.0336
vt 0.867676 0.042419
vt 0.868652 0.042419
vt 0.868652 0.0336
vt 0.870117 0.0336
vt 0.870117 0.042419
vt 0.871094 0.042419
vt 0.871094 0.0336
vt 0.872559 0.042419
vt 0.872559 0.0336
vt 0.873535 0.034149
vt 0.873535 0.04187
vt 0.874512 0.040436
vt 0.874512 0.035583
vt 0.354492 0.065308
vt 0.351807 0.065308
vt 0.354492 0.065918
vt 0.351318 0.065918
vt 0.350586 0.065308
vt 0.349365 0.065918
vt 0.349365 0.065308
vt 0.348145 0.065308
vt 0.347168 0.065918
vt 0.347168 0.065308
vt 0.345947 0.065308
vt 0.344727 0.065918
vt 0.344727 0.065308
vt 0.34375 0.065308
vt 0.342529 0.065918
vt 0.342529 0.065308
vt 0.341309 0.065308
vt 0.340332 0.065918
vt 0.340332 0.065308
vt 0.339111 0.065308
vt 0.337891 0.065918
vt 0.337891 0.065308
vt 0.33667 0.065918
vt 0.33667 0.065308
vt 0.334961 0.065308
vt 0.334961 0.065918
vt 0.329834 0.065308
vt 0.329834 0.065918
vt 0.328125 0.065918
vt 0.328125 0.065308
vt 0.326904 0.065308
vt 0.326904 0.065918
vt 0.325684 0.065308
vt 0.324707 0.065918
vt 0.324707 0.065308
vt 0.323486 0.065308
vt 0.322266 0.065918
vt 0.322266 0.065308
vt 0.321289 0.065308
vt 0.320068 0.065918
vt 0.320068 0.065308
vt 0.318848 0.065308
vt 0.317627 0.065918
vt 0.317871 0.065308
vt 0.31665 0.065308
vt 0.31543 0.065918
vt 0.31543 0.065308
vt 0.314209 0.065308
vt 0.313477 0.065918
vt 0.312988 0.065308
vt 0.310303 0.065918
vt 0.310303 0.065308
vt 0.446533 0.011719
vt 0.44873 0.011719
vt 0.44751 0.010986
vt 0.44873 0.010986
vt 0.449707 0.011719
vt 0.449707 0.010986
vt 0.446533 0.010986
vt 0.445312 0.010986
vt 0.444336 0.011719
vt 0.444336 0.010986
vt 0.443359 0.010986
vt 0.442139 0.011719
vt 0.442139 0.010986
vt 0.441162 0.010986
vt 0.440186 0.011719
vt 0.440186 0.010986
vt 0.438965 0.010986
vt 0.437988 0.011719
vt 0.437988 0.010986
vt 0.436768 0.011719
vt 0.436768 0.010986
vt 0.436035 0.011719
vt 0.435791 0.010986
vt 0.828613 0.007904
vt 0.828613 0.008606
vt 0.830078 0.007904
vt 0.830078 0.008606
vt 0.831055 0.007904
vt 0.832031 0.008606
vt 0.832031 0.007904
vt 0.833008 0.007904
vt 0.834473 0.008606
vt 0.834473 0.007904
vt 0.835449 0.007904
vt 0.836426 0.008606
vt 0.836426 0.007904
vt 0.837402 0.007904
vt 0.838379 0.008606
vt 0.838379 0.007904
vt 0.839844 0.007904
vt 0.84082 0.008606
vt 0.84082 0.007904
vt 0.841797 0.007904
vt 0.841797 0.008606
vt 0.843262 0.008606
vt 0.843262 0.007904
vt 0.963867 0.058258
vt 0.963867 0.05426
vt 0.964844 0.058258
vt 0.964844 0.05426
vt 0.966309 0.05426
vt 0.966309 0.058258
vt 0.967285 0.054504
vt 0.967285 0.058258
vt 0.96875 0.054504
vt 0.96875 0.058258
vt 0.969727 0.058258
vt 0.969727 0.054504
vt 0.96875 0.051636
vt 0.971191 0.051636
vt 0.971191 0.058258
vt 0.971191 0.054504
vt 0.972168 0.058258
vt 0.972168 0.054504
vt 0.973633 0.055267
vt 0.973633 0.057404
vt 0.886719 0.263428
vt 0.886719 0.259766
vt 0.885742 0.259766
vt 0.885742 0.263916
vt 0.884277 0.263916
vt 0.884277 0.259766
vt 0.883301 0.263916
vt 0.883301 0.259766
vt 0.888184 0.263428
vt 0.888184 0.259766
vt 0.88916 0.259766
vt 0.88916 0.263672
vt 0.888184 0.266357
vt 0.890137 0.266357
vt 0.890137 0.263428
vt 0.890137 0.259766
vt 0.891602 0.259766
vt 0.891602 0.263428
vt 0.892578 0.262695
vt 0.892578 0.260498
vt 0.870117 0.945801
vt 0.871094 0.945801
vt 0.870117 0.916992
vt 0.871094 0.946777
vt 0.870117 0.946777
vt 0.870117 0.947754
vt 0.871094 0.916992
vt 0.873047 0.914062
vt 0.872559 0.914062
vt 0.87207 0.916992
vt 0.87207 0.945801
vt 0.874023 0.914062
vt 0.873047 0.909668
vt 0.872559 0.909668
vt 0.874023 0.90918
vt 0.874023 0.909668
vt 0.875 0.90918
vt 0.873047 0.916992
vt 0.874512 0.909668
vt 0.874512 0.914062
vt 0.875488 0.909668
vt 0.873047 0.945801
vt 0.875977 0.909668
vt 0.875488 0.914062
vt 0.874023 0.916992
vt 0.875977 0.914062
vt 0.876953 0.914062
vt 0.875 0.916992
vt 0.875977 0.916992
vt 0.875977 0.945801
vt 0.874023 0.945801
vt 0.875 0.945801
vt 0.875977 0.946777
vt 0.873047 0.946777
vt 0.874023 0.946777
vt 0.875 0.946777
vt 0.875977 0.947754
vt 0.87207 0.946777
vt 0.874023 0.947754
vt 0.873047 0.947754
vt 0.87207 0.947754
vt 0.871094 0.947754
vt 0.87207 0.948242
vt 0.871094 0.948242
vt 0.870117 0.948242
vt 0.870117 0.94873
vt 0.871094 0.94873
vt 0.87207 0.94873
vt 0.873047 0.94873
vt 0.873047 0.948242
vt 0.874023 0.948242
vt 0.874023 0.94873
vt 0.875 0.948242
vt 0.875 0.94873
vt 0.875 0.947754
vt 0.703613 0.230347
vt 0.705078 0.223633
vt 0.703125 0.230347
vt 0.706055 0.223633
vt 0.704102 0.223633
vt 0.703125 0.223633
vt 0.703125 0.232178
vt 0.702637 0.230347
vt 0.70459 0.230347
vt 0.702637 0.233765
vt 0.704102 0.232178
vt 0.705078 0.230347
vt 0.707031 0.223633
vt 0.702148 0.234619
vt 0.705566 0.232178
vt 0.706055 0.230347
vt 0.70752 0.223633
vt 0.708496 0.223633
vt 0.706543 0.230347
vt 0.704102 0.233765
vt 0.703613 0.233765
vt 0.703125 0.235107
vt 0.702637 0.234741
vt 0.702637 0.235352
vt 0.807617 0.002991
vt 0.807617 0.003601
vt 0.809082 0.003601
vt 0.809082 0.002991
vt 0.812012 0.003601
vt 0.812012 0.002991
vt 0.79834 0.002991
vt 0.79541 0.002991
vt 0.79541 0.003601
vt 0.79834 0.003601
vt 0.799805 0.002991
vt 0.799805 0.003601
vt 0.817383 0.008606
vt 0.822754 0.008606
vt 0.822266 0.007904
vt 0.817383 0.007904
vt 0.82373 0.007904
vt 0.82373 0.008606
vt 0.80127 0.002991
vt 0.80127 0.003601
vt 0.806152 0.002991
vt 0.806152 0.003601
vt 0.876953 0.945801
vt 0.876953 0.946777
vt 0.87793 0.945801
vt 0.87793 0.916992
vt 0.876953 0.916992
vt 0.877441 0.914062
vt 0.878418 0.914062
vt 0.878906 0.945801
vt 0.878906 0.916992
vt 0.879395 0.914062
vt 0.879883 0.914062
vt 0.879883 0.916992
vt 0.880859 0.914062
vt 0.880859 0.916992
vt 0.881348 0.914062
vt 0.451172 0.010986
vt 0.450928 0.011719
vt 0.453369 0.011719
vt 0.453369 0.010986
vt 0.825195 0.007904
vt 0.825195 0.008606
vt 0.827148 0.008606
vt 0.827148 0.007904
vn 0.8025 -0.5888 0.096
vn 0.9208 -0.3596 0.1511
vn 0 -0.001 1
vn 0.6172 -0.7723 0.1505
vn 0.9892 -0.1111 0.0959
vn 0.9773 0.151 0.1485
vn 0.3989 -0.9119 0.0963
vn 0.9123 0.3977 0.0977
vn 0.7728 0.6161 0.1522
vn 0.5894 0.8019 0.0975
vn 0.3592 0.9212 0.1496
vn 0.1086 0.9893 0.0969
vn 0.1473 -0.9773 0.1523
vn -0.1485 0.9773 0.151
vn -0.1442 0.9711 0.1901
vn 0.1082 0.9762 0.1878
vn 0.1106 0.9931 0.0391
vn -0.151 0.9877 0.0403
vn -0.39 0.9004 0.1928
vn 0.1109 0.9937 -0.0187
vn -0.3977 0.9123 0.0977
vn -0.4022 0.9146 0.0412
vn -0.615 0.763 0.1988
vn -0.6194 0.7701 0.1522
vn -0.8019 0.5894 0.0975
vn -0.7927 0.5789 0.1909
vn -0.9212 0.3592 0.1496
vn -0.8052 0.5916 0.0408
vn -0.623 0.7812 0.041
vn -0.9675 -0.0206 0.2522
vn -0.989 0.1112 0.0971
vn -0.9808 -0.0199 0.1938
vn -0.9762 0.1082 0.1878
vn -0.9156 0.3528 0.1928
vn -0.9931 0.1106 0.0391
vn -0.9989 -0.0218 0.0415
vn -0.9305 0.3641 0.0405
vn -0.9996 -0.0214 -0.0204
vn -0.9314 0.3636 -0.0193
vn -0.9937 0.1109 -0.0187
vn -0.9114 -0.017 -0.4112
vn -0.9131 0.1005 -0.3952
vn -0.8471 -0.015 0.5312
vn -0.8523 0.3307 -0.4052
vn -0.8056 0.5921 -0.0208
vn -0.7383 0.541 -0.4028
vn -0.623 0.7819 -0.0209
vn -0.5674 0.713 -0.4119
vn -0.4011 0.9158 -0.0196
vn -0.1506 0.9884 -0.0192
vn -0.3669 0.8361 -0.4078
vn -0.6886 0.5043 0.5211
vn -0.9327 0.3607 0.0013
vn -0.994 0.109 -0.0011
vn -0.9883 -0.1528 0
vn -0.808 0.5892 0.0014
vn -0.9317 -0.3633 0
vn -0.8057 0.5923 -0.0014
vn -0.9363 -0.3511 0
vn -0.8562 -0.5167 0
vn -0.6259 0.7799 -0.0014
vn -0.4039 0.9148 -0.0013
vn -0.153 0.9882 -0.0011
vn 0.109 0.994 0.0011
vn -0.9582 0.2861 -0.0012
vn -0.9713 0.2378 -0.0012
vn -0.9327 0.3607 -0.0013
vn -0.808 0.5892 -0.0014
vn -0.9972 -0.0744 0
vn -0.9998 -0.021 0
vn -0.6259 0.7799 0.0014
vn -0.153 0.9882 0.0011
vn 0.109 0.994 -0.0011
vn 0.3311 0.8504 -0.4089
vn 0.3636 0.9314 -0.0193
vn 0.1005 0.9131 -0.3952
vn -0.1372 0.9036 -0.4058
vn 0.0933 0.8395 0.5353
vn -0.1296 0.8515 0.508
vn 0.3041 0.785 0.5398
vn 0.3127 0.8016 0.5095
vn 0.0908 0.823 0.5607
vn -0.1274 0.8335 0.5376
vn 0.1114 0.9938 -0.0011
vn -0.1505 0.9886 -0.0011
vn -0.3399 0.7748 0.5331
vn -0.3344 0.7576 0.5605
vn -0.5207 0.6521 0.551
vn -0.5334 0.6646 0.5233
vn -0.6733 0.4953 0.549
vn -0.785 0.3041 0.5398
vn -0.8016 0.3127 0.5095
vn -0.8479 0.099 0.5208
vn -0.8297 0.0967 0.5498
vn -0.8286 -0.0151 0.5597
vn -0.72 0.0924 0.6878
vn -0.9653 0.109 0.2372
vn -0.9306 0.3508 0.1043
vn -0.7227 0.0649 0.6881
vn -0.9857 -0.1184 0.1196
vn -0.9861 -0.1134 -0.1218
vn -0.946 -0.324 0
vn -0.9397 -0.342 0
vn -0.9658 0.1062 -0.2366
vn -0.7227 0.0649 -0.6881
vn -0.72 0.0924 -0.6878
vn -0.9306 0.3508 -0.1043
vn -0.7965 0.6046 -0.0014
vn -0.7988 0.6015 -0.0014
vn -0.6107 0.7919 -0.0014
vn -0.6137 0.7895 -0.0014
vn 0.34 0.7239 0.6003
vn 0.4002 0.8576 0.323
vn -0.281 0.7699 0.573
vn -0.1614 0.0777 0.9838
vn -0.3232 0.8884 0.3262
vn 0.4089 0.8793 0.2442
vn -0.7233 0.3365 0.603
vn -0.3306 0.9103 0.2491
vn 0.2286 0.9689 0.0947
vn -0.8576 0.4002 0.323
vn -0.8775 0.4125 0.2445
vn -0.7705 -0.2774 0.5739
vn -0.3384 -0.7206 0.6051
vn -0.036 -0.8387 0.5434
vn -0.4024 -0.8558 0.325
vn -0.0431 -0.9524 0.3018
vn -0.8891 -0.3229 0.3244
vn -0.4111 -0.8777 0.2461
vn -0.044 -0.9711 0.2345
vn -0.9111 -0.3275 0.2503
vn -0.2269 -0.9694 0.0933
vn -0.0444 -0.9942 0.0978
vn -0.2388 -0.9689 0.0647
vn -0.0454 -0.997 0.0627
vn -0.597 -0.7965 0.0961
vn -0.5911 -0.8039 0.0657
vn -0.8505 -0.518 0.0913
vn -0.8531 -0.5177 0.0645
vn -0.9866 -0.1492 0.0658
vn -0.9855 -0.142 0.0931
vn -0.9691 0.2376 0.0659
vn -0.9689 0.2286 0.0947
vn -0.7959 0.598 0.0946
vn -0.8033 0.5921 0.0642
vn -0.5186 0.85 0.0929
vn -0.515 0.8546 0.066
vn -0.1493 0.9865 0.067
vn -0.1445 0.9852 0.092
vn 0.2376 0.9691 0.0659
vn 0.31 0.9271 -0.2109
vn 0.2456 0.9693 -0.0108
vn 0.24 0.9707 -0.0107
vn 0.3013 0.8797 -0.3679
vn 0 -0.001 -1
vn 0.1111 -0.0098 -0.9938
vn 0.1082 -0.0276 -0.9937
vn 0.109 -0.012 -0.994
vn 0.1058 -0.0276 -0.994
vn 0.1114 0.0011 -0.9938
vn 0.143 -0.3315 0.9326
vn 0.1582 -0.3317 0.93
vn -0.1949 -0.2649 0.9444
vn -0.2072 -0.2638 0.9421
vn -0.6401 -0.6875 0.3429
vn -0.6487 -0.6829 0.3358
vn -0.6435 -0.6843 -0.343
vn -0.652 -0.6798 -0.3358
vn -0.2257 -0.2864 -0.9311
vn -0.2023 -0.2758 -0.9397
vn 0.916 0.399 0.0411
vn 0.9004 0.39 0.1928
vn 0.9881 0.1484 0.0403
vn 0.7657 0.6117 0.1988
vn 0.5789 0.7927 0.1909
vn 0.7787 0.6261 0.041
vn 0.3562 0.9142 0.1931
vn 0.361 0.9317 0.0404
vn 0.5916 0.8052 0.0408
vn 0.5921 0.8056 -0.0208
vn 0.7819 0.623 -0.0209
vn 0.5373 0.7411 -0.4026
vn 0.9144 0.4042 -0.0196
vn 0.7122 0.5734 -0.4049
vn 0.834 0.3642 -0.4146
vn 0.988 0.1531 -0.0193
vn 0.9939 -0.1086 -0.0197
vn 0.9036 0.1372 -0.4058
vn 0.783 0.3425 0.5193
vn 0.6585 0.5271 0.5372
vn 0.8527 0.1264 0.5069
vn 0.5043 0.6886 0.5211
vn 0.3637 0.9315 0.0013
vn 0.4953 0.6733 0.549
vn 0.5923 0.8057 0.0014
vn 0.6457 0.5176 0.5614
vn 0.7823 0.6228 0.0014
vn 0.7658 0.3337 0.5497
vn 0.9162 0.4008 0.0013
vn 0.9886 0.1505 0.0011
vn 0.8335 0.1274 0.5376
vn 0.9938 -0.1113 0
vn 0.8395 -0.0963 0.5348
vn 0.8219 -0.0908 0.5623
vn 0.7758 -0.3049 0.5524
vn 0.9317 -0.3633 0
vn 0.678 -0.5018 0.5371
vn 0.793 -0.3137 0.5223
vn 0.9123 -0.1006 -0.3969
vn 0.8062 -0.5917 0
vn 0.8514 -0.3309 -0.407
vn 0.9324 -0.3609 -0.0205
vn 0.737 -0.5413 -0.4047
vn 0.693 -0.5139 0.5056
vn 0.5224 -0.6522 0.5494
vn 0.6237 -0.7817 0
vn 0.535 -0.6646 0.5216
vn 0.5719 -0.7124 -0.4066
vn 0.3418 -0.7724 0.5353
vn 0.4018 -0.9157 0
vn 0.3326 -0.7573 0.5619
vn 0.1516 -0.9884 0
vn 0.1259 -0.833 0.5387
vn -0.1949 -0.2649 -0.9444
vn -0.2072 -0.2638 -0.9421
vn -0.2257 -0.2864 0.9311
vn -0.2023 -0.2758 0.9397
vn 0.3637 0.9315 -0.0013
vn 0.5923 0.8057 -0.0014
vn 0.7823 0.6228 -0.0014
vn 0.9941 -0.1089 0
vn 0.9419 -0.336 0
vn 0.9386 -0.3451 0
vn 0.8543 -0.5198 0
vn 0.8445 -0.5356 0
vn 0.7215 -0.6924 0
vn 0.1053 0.9581 -0.2665
vn -0.0901 0.4281 -0.8992
vn -0.2416 -0.0505 -0.969
vn -0.1312 -0.0564 -0.9898
vn -0.1255 -0.0982 -0.9872
vn -0.0671 -0.1761 -0.9821
vn -0.1026 -0.204 -0.9736
vn -0.3892 -0.5315 -0.7523
vn -0.3855 -0.5309 -0.7547
vn -0.6766 -0.7177 -0.1646
vn -0.6817 -0.7136 -0.1613
vn -0.6766 -0.7177 0.1646
vn -0.6817 -0.7136 0.1613
vn -0.3892 -0.5315 0.7523
vn -0.3855 -0.5309 0.7547
vn -0.1026 -0.204 0.9736
vn -0.0669 -0.1733 0.9826
vn -0.1312 -0.0564 0.9898
vn -0.1231 -0.1006 0.9873
vn -0.2416 -0.0505 0.969
vn -0.0901 0.4281 0.8992
vn 0.1055 0.9572 0.2696
vn 0.1505 -0.3106 -0.9386
vn 0.136 -0.317 -0.9386
vn 0.0831 -0.1074 -0.9907
vn 0.0927 -0.1367 -0.9863
vn 0.0895 -0.1657 -0.9821
vn 0.0712 -0.1578 -0.9849
vn 0.136 -0.317 0.9386
vn 0.1508 -0.3138 0.9374
vn 0.0733 -0.1065 0.9916
vn 0.1018 -0.1219 0.9873
vn 0.089 -0.1575 0.9835
vn 0.0828 -0.1839 0.9794
vn 0.7726 0.6349 -0.0014
vn 0.7775 0.6289 -0.0014
vn 0.9078 0.4195 0.0013
vn 0.9711 0.1231 0.2044
vn 0.9181 -0.1058 0.3821
vn 0.7246 -0.0862 0.6837
vn 0.7227 -0.1175 0.6811
vn 0.9216 -0.3314 0.202
vn 0.8364 -0.5481 0
vn 0.8259 -0.5638 0
vn 0.7775 0.6289 0.0014
vn 0.7726 0.6349 0.0014
vn 0.9711 0.1231 -0.2044
vn 0.9181 -0.1058 -0.3821
vn 0.7246 -0.0862 -0.6837
vn 0.7227 -0.1175 -0.6811
vn 0.9216 -0.3314 -0.202
vn -0.9608 -0.2765 -0.0197
vn -0.917 -0.3984 -0.0209
vn -0.9596 -0.2786 0.04
vn -0.835 -0.3639 -0.4128
vn -0.8835 -0.2561 -0.3923
vn -0.8132 -0.2365 0.5318
vn -0.9158 -0.3995 0.0425
vn -0.8999 -0.3904 0.1945
vn -0.9438 -0.273 0.1866
vn -0.7806 -0.6236 0.0424
vn -0.78 -0.6254 -0.0195
vn -0.7639 -0.6145 0.1971
vn -0.9112 -0.4005 0.0964
vn -0.7709 -0.6189 0.1506
vn -0.5938 -0.8035 0.0422
vn -0.5905 -0.8013 0.096
vn -0.5777 -0.7932 0.1926
vn -0.3613 -0.9201 0.1512
vn -0.593 -0.805 -0.0194
vn -0.1098 -0.9893 0.0958
vn -0.3542 -0.9154 0.1914
vn -0.3629 -0.9309 0.0418
vn -0.1097 -0.9758 0.1894
vn 0.1458 -0.9705 0.1918
vn -0.1095 -0.9932 0.0402
vn 0.1524 -0.9874 0.0416
vn 0.152 -0.9882 -0.0204
vn -0.3624 -0.9318 -0.0206
vn -0.1098 -0.9938 -0.0198
vn 0.1355 -0.9048 -0.4037
vn -0.5406 -0.7335 -0.4121
vn -0.3286 -0.8541 -0.403
vn -0.0991 -0.9127 -0.3965
vn 0.1279 -0.8531 0.5058
vn -0.7186 -0.5719 -0.3956
vn -0.3056 -0.7878 0.5348
vn -0.5097 -0.6857 0.5197
vn -0.6751 -0.5357 0.5072
vn -0.7812 -0.3392 0.524
vn -0.6569 -0.5272 0.539
vn -0.765 -0.3373 0.5487
vn -0.7969 -0.231 0.5582
vn -0.9608 -0.2771 0
vn -0.915 -0.4034 0
vn -0.7805 -0.6252 0
vn -0.5932 -0.8051 0
vn -0.4972 -0.6702 0.551
vn -0.3001 -0.7709 0.5618
vn -0.3618 -0.9323 0
vn -0.0921 -0.8303 0.5497
vn -0.1101 -0.9939 0
vn -0.0944 -0.8484 0.5208
vn 0.9856 0.1418 0.0918
vn 0.9869 0.1467 0.0669
vn 0.85 0.5186 0.0929
vn 0.9685 -0.2403 0.0647
vn 0.8546 0.515 0.066
vn 0.5889 0.8056 0.0642
vn 0.9103 0.3306 0.2491
vn 0.5948 0.7983 0.0945
vn 0.9691 -0.2284 0.0934
vn 0.8884 0.3262 0.3232
vn 0.8786 -0.4093 0.2459
vn 0.7977 -0.5954 0.0961
vn 0.8051 -0.5895 0.0657
vn 0.7699 0.281 0.573
vn 0.6323 -0.7403 0.2285
vn 0.5197 -0.8495 0.0914
vn 0.5161 -0.8541 0.0645
vn 0.3418 -0.9375 0.0657
vn 0.3394 -0.9373 0.0795
vn 0.645 -0.7015 0.3032
vn 0.8568 -0.4006 0.3248
vn 0.5646 -0.6204 0.5443
vn 0.7224 -0.3401 0.602
vn 0.432 -0.2027 0.8788
vn 0.2448 -0.5947 0.7658
vn 0.2805 -0.6041 0.7459
vn 0.0253 -0.716 0.6977
vn -0.0783 -0.9657 0.2474
vn -0.0783 -0.9657 -0.2474
vn 0.0253 -0.716 -0.6977
vn 0.2448 -0.5947 -0.7658
vn 0.2805 -0.6041 -0.7459
vn 0.0284 -0.9995 -0.0101
vn 0.1027 -0.9637 -0.2464
vn 0.0976 -0.9727 -0.2103
vn 0.0222 -0.9997 -0.0121
vn 0.143 -0.3315 -0.9326
vn 0.158 -0.3284 -0.9312
vn 0.5016 -0.8464 -0.1791
vn 0.511 -0.8413 -0.1763
vn 0.5016 -0.8464 0.1791
vn 0.511 -0.8413 0.1763
vn 0.4031 -0.9149 -0.0209
vn 0.3663 -0.832 -0.4168
vn 0.6239 -0.7813 -0.0195
vn 0.6252 -0.7793 0.0424
vn 0.4043 -0.9136 0.0426
vn 0.3922 -0.8991 0.1946
vn 0.6128 -0.7653 0.1971
vn 0.8061 -0.5914 -0.0194
vn 0.8047 -0.5922 0.0422
vn 0.7919 -0.5794 0.1926
vn 0.9147 -0.3559 0.1915
vn 0.9315 -0.3614 0.0417
vn 0.9763 -0.1056 0.1888
vn 0.9933 -0.1083 0.0402
vn 0.9706 0.1471 0.1905
vn 0.4833 -0.8165 -0.3159
vn 0.4927 -0.8133 -0.3095
vn 0.4927 -0.8133 0.3095
vn 0.4833 -0.8165 0.3159
o bullet14__p0_c0
f 1/1/1 2/2/2 3/3/3
f 1/1/1 3/3/3 4/4/4
f 3/3/3 2/2/2 5/5/3
f 5/5/3 2/2/2 6/6/5
f 4/4/4 3/3/3 7/7/3
f 5/5/3 6/6/5 8/8/6
f 4/4/4 7/7/3 9/9/7
f 5/5/3 8/8/6 10/10/3
f 10/10/3 8/8/6 11/11/8
f 10/10/3 11/11/8 12/12/9
f 10/10/3 12/12/9 13/13/3
f 13/13/3 12/12/9 14/14/10
f 13/13/3 14/14/10 15/15/11
f 13/13/3 15/15/11 16/16/3
f 16/16/3 15/15/11 17/17/12
f 18/18/13 9/9/7 7/7/3
f 18/18/13 7/7/3 19/19/3
f 16/16/3 17/17/12 20/20/14
f 16/16/3 20/20/14 21/21/3
f 20/20/14 17/17/12 22/22/15
f 22/22/15 17/17/12 23/23/16
f 22/22/15 23/23/16 24/24/17
f 22/22/15 24/24/17 25/25/18
f 20/20/14 22/22/15 26/26/19
f 26/26/19 22/22/15 25/25/18
f 25/25/18 24/24/17 27/27/20
f 20/20/14 26/26/19 28/28/21
f 20/20/14 28/28/21 21/21/3
f 26/26/19 25/25/18 29/29/22
f 28/28/21 26/26/19 30/30/23
f 30/30/23 26/26/19 29/29/22
f 21/21/3 28/28/21 31/31/24
f 31/31/24 28/28/21 30/30/23
f 21/21/3 31/31/24 32/32/3
f 32/32/3 31/31/24 33/33/25
f 31/31/24 30/30/23 34/34/26
f 31/31/24 34/34/26 33/33/25
f 32/32/3 33/33/25 35/35/27
f 35/35/27 33/33/25 34/34/26
f 32/32/3 35/35/27 36/36/3
f 34/34/26 30/30/23 37/37/28
f 37/37/28 30/30/23 38/38/29
f 38/38/29 30/30/23 29/29/22
f 39/39/30 40/40/3 36/36/3
f 39/39/30 36/36/3 41/41/31
f 41/41/31 36/36/3 35/35/27
f 39/39/30 41/41/31 42/42/32
f 42/42/32 41/41/31 43/43/33
f 41/41/31 35/35/27 44/44/34
f 41/41/31 44/44/34 43/43/33
f 44/44/34 35/35/27 34/34/26
f 42/42/32 43/43/33 45/45/35
f 45/45/35 43/43/33 44/44/34
f 42/42/32 45/45/35 46/46/36
f 44/44/34 34/34/26 47/47/37
f 44/44/34 47/47/37 45/45/35
f 47/47/37 34/34/26 37/37/28
f 46/46/36 45/45/35 48/48/38
f 45/45/35 47/47/37 49/49/39
f 49/49/39 47/47/37 37/37/28
f 48/48/38 45/45/35 50/50/40
f 50/50/40 45/45/35 49/49/39
f 48/48/38 50/50/40 51/51/41
f 51/51/41 50/50/40 52/52/42
f 51/51/41 52/52/42 53/53/43
f 50/50/40 49/49/39 54/54/44
f 50/50/40 54/54/44 52/52/42
f 49/49/39 37/37/28 55/55/45
f 54/54/44 49/49/39 56/56/46
f 56/56/46 49/49/39 55/55/45
f 55/55/45 37/37/28 57/57/47
f 57/57/47 37/37/28 38/38/29
f 57/57/47 38/38/29 29/29/22
f 55/55/45 57/57/47 58/58/48
f 55/55/45 58/58/48 56/56/46
f 57/57/47 29/29/22 59/59/49
f 57/57/47 59/59/49 58/58/48
f 59/59/49 29/29/22 60/60/50
f 60/60/50 29/29/22 25/25/18
f 58/58/48 59/59/49 61/61/51
f 61/61/51 59/59/49 60/60/50
f 60/60/50 25/25/18 27/27/20
f 62/62/52 56/56/46 58/58/48
f 56/56/46 62/62/52 54/54/44
f 63/63/53 64/64/54 65/65/54
f 65/65/54 64/64/54 66/66/55
f 64/64/54 63/63/53 67/67/53
f 66/66/55 64/64/54 68/68/55
f 67/67/53 63/63/53 69/69/56
f 66/66/55 68/68/55 70/70/57
f 67/67/53 69/69/56 71/71/58
f 70/70/57 68/68/55 72/72/59
f 70/70/57 72/72/59 73/73/60
f 73/73/60 72/72/59 74/74/60
f 71/71/58 69/69/56 75/75/61
f 71/71/58 75/75/61 76/76/61
f 76/76/61 75/75/61 77/77/62
f 76/76/61 77/77/62 78/78/62
f 78/78/62 77/77/62 79/79/63
f 79/79/63 77/77/62 80/80/63
f 79/79/63 80/80/63 81/81/64
f 79/79/63 81/81/64 82/82/64
f 83/83/54 84/84/65 85/85/66
f 84/84/65 83/83/54 86/86/54
f 84/84/65 86/86/54 87/87/67
f 84/84/65 87/87/67 88/88/68
f 86/86/54 83/83/54 89/89/69
f 89/89/69 83/83/54 90/90/70
f 86/86/54 89/89/69 91/91/55
f 88/88/68 87/87/67 92/92/58
f 91/91/55 89/89/69 93/93/57
f 88/88/68 92/92/58 94/94/61
f 91/91/55 93/93/57 95/95/59
f 95/95/59 93/93/57 96/96/60
f 95/95/59 96/96/60 97/97/60
f 94/94/61 92/92/58 98/98/71
f 94/94/61 98/98/71 99/99/62
f 94/94/61 99/99/62 100/100/62
f 100/100/62 99/99/62 101/101/63
f 100/100/62 101/101/63 102/102/72
f 102/102/72 101/101/63 103/103/73
f 103/103/73 101/101/63 104/104/73
f 105/105/74 27/27/20 106/106/75
f 27/27/20 105/105/74 107/107/76
f 108/108/77 60/60/50 27/27/20
f 108/108/77 27/27/20 107/107/76
f 60/60/50 108/108/77 61/61/51
f 108/108/77 107/107/76 109/109/78
f 61/61/51 108/108/77 110/110/79
f 110/110/79 108/108/77 109/109/78
f 111/111/80 109/109/78 112/112/81
f 109/109/78 111/111/80 113/113/82
f 109/109/78 113/113/82 114/114/83
f 109/109/78 114/114/83 110/110/79
f 114/114/83 113/113/82 115/115/84
f 114/114/83 115/115/84 116/116/85
f 110/110/79 114/114/83 117/117/86
f 110/110/79 117/117/86 61/61/51
f 114/114/83 116/116/85 118/118/87
f 114/114/83 118/118/87 117/117/86
f 118/118/87 116/116/85 119/119/62
f 118/118/87 119/119/62 120/120/61
f 117/117/86 118/118/87 121/121/88
f 121/121/88 118/118/87 120/120/61
f 61/61/51 117/117/86 122/122/89
f 122/122/89 117/117/86 121/121/88
f 61/61/51 122/122/89 58/58/48
f 121/121/88 120/120/61 123/123/90
f 121/121/88 123/123/90 122/122/89
f 123/123/90 120/120/61 124/124/58
f 58/58/48 122/122/89 62/62/52
f 62/62/52 122/122/89 123/123/90
f 123/123/90 124/124/58 125/125/91
f 123/123/90 125/125/91 62/62/52
f 125/125/91 124/124/58 126/126/67
f 125/125/91 126/126/67 127/127/54
f 62/62/52 125/125/91 128/128/92
f 62/62/52 128/128/92 54/54/44
f 54/54/44 128/128/92 52/52/42
f 52/52/42 128/128/92 129/129/93
f 129/129/93 128/128/92 125/125/91
f 52/52/42 129/129/93 53/53/43
f 125/125/91 127/127/54 130/130/94
f 125/125/91 130/130/94 129/129/93
f 129/129/93 130/130/94 53/53/43
f 130/130/94 127/127/54 131/131/70
f 53/53/43 130/130/94 132/132/95
f 132/132/95 130/130/94 131/131/70
f 133/133/96 134/134/97 135/135/98
f 134/134/97 133/133/96 136/136/99
f 134/134/97 136/136/99 137/137/100
f 134/134/97 137/137/100 138/138/101
f 138/138/101 137/137/100 139/139/102
f 138/138/101 139/139/102 140/140/103
f 140/140/103 139/139/102 141/141/60
f 141/141/60 139/139/102 142/142/60
f 134/134/97 138/138/101 143/143/104
f 134/134/97 143/143/104 135/135/98
f 143/143/104 138/138/101 144/144/105
f 143/143/104 144/144/105 145/145/106
f 143/143/104 145/145/106 146/146/107
f 143/143/104 146/146/107 135/135/98
f 135/135/98 146/146/107 147/147/108
f 135/135/98 147/147/108 148/148/109
f 148/148/109 147/147/108 149/149/110
f 149/149/110 147/147/108 150/150/111
f 149/149/110 150/150/111 151/151/62
f 149/149/110 151/151/62 152/152/62
f 152/152/62 151/151/62 153/153/63
f 152/152/62 153/153/63 154/154/63
f 154/154/63 153/153/63 155/155/73
f 154/154/63 155/155/73 156/156/73
f 157/157/112 158/158/113 159/159/114
f 157/157/112 159/159/114 160/160/115
f 159/159/114 158/158/113 161/161/116
f 161/161/116 158/158/113 162/162/117
f 160/160/115 159/159/114 163/163/118
f 161/161/116 162/162/117 164/164/119
f 164/164/119 162/162/117 165/165/120
f 159/159/114 161/161/116 166/166/121
f 159/159/114 166/166/121 163/163/118
f 166/166/121 161/161/116 167/167/122
f 167/167/122 161/161/116 164/164/119
f 163/163/118 166/166/121 168/168/123
f 163/163/118 168/168/123 160/160/115
f 160/160/115 168/168/123 169/169/124
f 160/160/115 169/169/124 170/170/125
f 170/170/125 169/169/124 171/171/126
f 171/171/126 169/169/124 168/168/123
f 170/170/125 171/171/126 172/172/127
f 168/168/123 166/166/121 173/173/128
f 168/168/123 173/173/128 171/171/126
f 173/173/128 166/166/121 167/167/122
f 172/172/127 171/171/126 174/174/129
f 174/174/129 171/171/126 173/173/128
f 172/172/127 174/174/129 175/175/130
f 173/173/128 167/167/122 176/176/131
f 173/173/128 176/176/131 174/174/129
f 175/175/130 174/174/129 177/177/132
f 175/175/130 177/177/132 178/178/133
f 178/178/133 177/177/132 179/179/134
f 178/178/133 179/179/134 180/180/135
f 177/177/132 174/174/129 181/181/136
f 177/177/132 181/181/136 179/179/134
f 181/181/136 174/174/129 176/176/131
f 179/179/134 181/181/136 182/182/137
f 182/182/137 181/181/136 183/183/138
f 183/183/138 181/181/136 176/176/131
f 182/182/137 183/183/138 184/184/139
f 184/184/139 183/183/138 185/185/140
f 185/185/140 183/183/138 186/186/141
f 186/186/141 183/183/138 176/176/131
f 185/185/140 186/186/141 187/187/142
f 186/186/141 176/176/131 188/188/143
f 186/186/141 188/188/143 187/187/142
f 188/188/143 176/176/131 167/167/122
f 187/187/142 188/188/143 189/189/144
f 189/189/144 188/188/143 167/167/122
f 187/187/142 189/189/144 190/190/145
f 189/189/144 167/167/122 164/164/119
f 190/190/145 189/189/144 191/191/146
f 191/191/146 189/189/144 164/164/119
f 190/190/145 191/191/146 192/192/147
f 192/192/147 191/191/146 193/193/148
f 191/191/146 164/164/119 194/194/149
f 191/191/146 194/194/149 193/193/148
f 194/194/149 164/164/119 165/165/120
f 193/193/148 194/194/149 195/195/150
f 195/195/150 194/194/149 165/165/120
f 84/196/151 196/197/152 85/198/153
f 196/197/152 84/196/151 197/199/154
f 198/200/155 199/201/155 200/202/155
f 199/201/155 198/200/155 201/203/155
f 201/203/155 198/200/155 202/204/155
f 201/203/155 202/204/155 203/205/155
f 201/203/155 203/205/155 204/206/155
f 204/206/155 203/205/155 205/207/155
f 204/206/155 205/207/155 206/208/155
f 206/208/155 205/207/155 207/209/155
f 207/209/155 205/207/155 208/210/155
f 207/209/155 208/210/155 209/211/155
f 209/211/155 208/210/155 131/212/155
f 209/211/155 131/212/155 127/213/155
f 209/211/155 127/213/155 210/214/155
f 210/214/155 127/213/155 126/215/155
f 210/214/155 126/215/155 211/216/155
f 211/216/155 126/215/155 124/217/155
f 211/216/155 124/217/155 212/218/155
f 212/218/155 124/217/155 213/219/155
f 213/219/155 124/217/155 120/220/155
f 213/219/155 120/220/155 119/221/155
f 213/219/155 119/221/155 115/222/155
f 115/222/155 119/221/155 116/223/155
f 83/224/156 85/225/157 214/226/158
f 214/226/158 85/225/157 196/227/159
f 83/224/156 214/226/158 90/228/160
f 90/228/160 214/226/158 215/229/160
f 70/230/161 216/231/162 217/232/3
f 70/230/161 217/232/3 66/233/3
f 66/233/3 217/232/3 65/234/3
f 65/234/3 217/232/3 218/235/3
f 65/234/3 218/235/3 63/236/3
f 63/236/3 218/235/3 69/237/3
f 69/237/3 218/235/3 219/238/3
f 69/237/3 219/238/3 75/239/3
f 75/239/3 219/238/3 77/240/3
f 77/240/3 219/238/3 220/241/3
f 77/240/3 220/241/3 80/242/3
f 80/242/3 220/241/3 81/243/3
f 81/243/3 220/241/3 221/244/3
f 81/243/3 221/244/3 222/245/3
f 222/245/3 221/244/3 223/246/3
f 223/246/3 221/244/3 224/247/3
f 223/246/3 224/247/3 225/248/3
f 225/248/3 224/247/3 226/249/3
f 226/249/3 224/247/3 227/250/3
f 226/249/3 227/250/3 228/251/3
f 226/249/3 228/251/3 229/252/3
f 229/252/3 228/251/3 230/253/3
f 229/252/3 230/253/3 231/254/3
f 231/254/3 230/253/3 232/255/3
f 232/255/3 230/253/3 233/256/3
f 232/255/3 233/256/3 234/257/163
f 234/257/163 233/256/3 235/258/164
f 234/257/163 235/258/164 236/259/165
f 236/259/165 235/258/164 237/260/166
f 236/259/165 237/260/166 238/261/167
f 238/261/167 237/260/166 239/262/168
f 238/261/167 239/262/168 240/263/169
f 238/261/167 240/263/169 241/264/170
f 241/264/170 240/263/169 144/265/155
f 241/264/170 144/265/155 242/266/155
f 243/267/171 244/268/172 245/269/173
f 246/270/174 12/12/9 244/268/172
f 246/270/174 244/268/172 243/267/171
f 12/12/9 246/270/174 247/271/175
f 12/12/9 247/271/175 14/14/10
f 246/270/174 243/267/171 248/272/176
f 14/14/10 247/271/175 249/273/177
f 14/14/10 249/273/177 15/15/11
f 15/15/11 249/273/177 23/23/16
f 15/15/11 23/23/16 17/17/12
f 23/23/16 249/273/177 24/24/17
f 24/24/17 249/273/177 250/274/178
f 250/274/178 249/273/177 247/271/175
f 24/24/17 250/274/178 27/27/20
f 27/27/20 250/274/178 106/106/75
f 251/275/179 247/271/175 246/270/174
f 247/271/175 251/275/179 250/274/178
f 251/275/179 246/270/174 248/272/176
f 106/106/75 250/274/178 252/276/180
f 252/276/180 250/274/178 251/275/179
f 251/275/179 248/272/176 253/277/181
f 251/275/179 253/277/181 252/276/180
f 253/277/181 248/272/176 243/267/171
f 106/106/75 252/276/180 254/278/182
f 253/277/181 243/267/171 255/279/183
f 106/106/75 254/278/182 105/105/74
f 252/276/180 253/277/181 256/280/184
f 252/276/180 256/280/184 254/278/182
f 253/277/181 255/279/183 257/281/185
f 253/277/181 257/281/185 256/280/184
f 255/279/183 243/267/171 258/282/186
f 255/279/183 258/282/186 257/281/185
f 258/282/186 243/267/171 245/269/173
f 258/282/186 245/269/173 259/283/187
f 257/281/185 258/282/186 260/284/188
f 260/284/188 258/282/186 259/283/187
f 256/280/184 257/281/185 261/285/189
f 261/285/189 257/281/185 260/284/188
f 262/286/190 254/278/182 256/280/184
f 262/286/190 256/280/184 261/285/189
f 261/285/189 260/284/188 263/287/191
f 254/278/182 262/286/190 264/288/192
f 254/278/182 264/288/192 105/105/74
f 109/109/78 107/107/76 105/105/74
f 109/109/78 105/105/74 112/112/81
f 112/112/81 105/105/74 264/288/192
f 112/112/81 264/288/192 111/111/80
f 115/115/84 113/113/82 111/111/80
f 115/115/84 111/111/80 213/289/193
f 111/111/80 264/288/192 265/290/194
f 111/111/80 265/290/194 213/289/193
f 265/290/194 264/288/192 262/286/190
f 213/289/193 265/290/194 212/291/195
f 212/291/195 265/290/194 266/292/196
f 266/292/196 265/290/194 262/286/190
f 212/291/195 266/292/196 211/293/197
f 266/292/196 262/286/190 267/294/198
f 266/292/196 267/294/198 211/293/197
f 211/293/197 267/294/198 210/295/199
f 267/294/198 262/286/190 261/285/189
f 210/295/199 267/294/198 209/296/200
f 267/294/198 261/285/189 268/297/201
f 267/294/198 268/297/201 209/296/200
f 268/297/201 261/285/189 263/287/191
f 209/296/200 268/297/201 207/298/202
f 268/297/201 263/287/191 269/299/203
f 207/298/202 268/297/201 270/300/204
f 270/300/204 268/297/201 269/299/203
f 207/298/202 270/300/204 271/301/205
f 271/301/205 270/300/204 269/299/203
f 207/298/202 271/301/205 206/302/206
f 269/299/203 263/287/191 260/284/188
f 206/302/206 271/301/205 272/303/207
f 271/301/205 269/299/203 273/304/208
f 271/301/205 273/304/208 272/303/207
f 269/299/203 260/284/188 274/305/209
f 269/299/203 274/305/209 273/304/208
f 274/305/209 260/284/188 259/283/187
f 206/302/206 272/303/207 204/306/210
f 274/305/209 259/283/187 275/307/211
f 274/305/209 275/307/211 273/304/208
f 275/307/211 259/283/187 276/308/212
f 275/307/211 276/308/212 277/309/213
f 275/307/211 277/309/213 273/304/208
f 278/310/214 272/303/207 273/304/208
f 278/310/214 273/304/208 277/309/213
f 279/311/215 204/306/210 272/303/207
f 204/306/210 279/311/215 201/312/216
f 272/303/207 278/310/214 280/313/217
f 280/313/217 278/310/214 277/309/213
f 272/303/207 280/313/217 279/311/215
f 280/313/217 277/309/213 281/314/218
f 280/313/217 281/314/218 282/315/219
f 280/313/217 282/315/219 279/311/215
f 201/312/216 279/311/215 199/316/220
f 279/311/215 282/315/219 283/317/221
f 279/311/215 283/317/221 199/316/220
f 199/316/220 283/317/221 200/318/222
f 200/318/222 283/317/221 284/319/223
f 197/199/154 84/196/151 88/320/155
f 197/199/154 88/320/155 285/321/155
f 285/321/155 88/320/155 94/322/155
f 285/321/155 94/322/155 100/323/155
f 285/321/155 100/323/155 286/324/155
f 286/324/155 100/323/155 102/325/155
f 286/324/155 102/325/155 103/326/155
f 286/324/155 103/326/155 287/327/155
f 287/327/155 103/326/155 288/328/155
f 287/327/155 288/328/155 289/329/155
f 287/327/155 289/329/155 290/330/155
f 290/330/155 289/329/155 291/331/155
f 290/330/155 291/331/155 292/332/155
f 290/330/155 292/332/155 293/333/155
f 293/333/155 292/332/155 294/334/155
f 293/333/155 294/334/155 295/335/155
f 293/333/155 295/335/155 296/336/155
f 296/336/155 295/335/155 297/337/155
f 296/336/155 297/337/155 298/338/224
f 296/336/155 298/338/224 299/339/225
f 299/339/225 298/338/224 300/340/167
f 299/339/225 300/340/167 301/341/168
f 301/341/168 300/340/167 302/342/166
f 302/342/166 300/340/167 303/343/165
f 302/342/166 303/343/165 304/344/226
f 304/344/226 303/343/165 305/345/227
f 304/344/226 305/345/227 136/346/3
f 136/346/3 305/345/227 306/347/3
f 156/156/73 155/155/73 307/348/228
f 156/156/73 307/348/228 308/349/228
f 308/349/228 307/348/228 309/350/229
f 309/350/229 307/348/228 310/351/195
f 309/350/229 310/351/195 311/352/230
f 311/352/230 310/351/195 312/353/197
f 311/352/230 312/353/197 313/354/199
f 311/352/230 313/354/199 314/355/199
f 314/355/199 313/354/199 315/356/200
f 315/356/200 313/354/199 316/357/200
f 315/356/200 316/357/200 317/358/231
f 315/356/200 317/358/231 318/359/231
f 318/359/231 317/358/231 319/360/232
f 318/359/231 319/360/232 320/361/233
f 320/361/233 319/360/232 321/362/234
f 321/362/234 319/360/232 322/363/235
f 321/362/234 322/363/235 323/364/236
f 321/362/234 323/364/236 324/365/236
f 133/366/73 135/367/237 325/368/73
f 325/368/73 135/367/237 326/369/238
f 326/369/238 135/367/237 148/370/239
f 326/369/238 148/370/239 327/371/240
f 327/371/240 148/370/239 149/372/241
f 327/371/240 149/372/241 152/373/155
f 327/371/240 152/373/155 328/374/155
f 328/374/155 152/373/155 154/375/155
f 328/374/155 154/375/155 156/376/155
f 328/374/155 156/376/155 329/377/155
f 329/377/155 156/376/155 308/378/155
f 329/377/155 308/378/155 309/379/155
f 329/377/155 309/379/155 330/380/155
f 330/380/155 309/379/155 311/381/155
f 330/380/155 311/381/155 314/382/155
f 330/380/155 314/382/155 331/383/155
f 331/383/155 314/382/155 315/384/155
f 331/383/155 315/384/155 318/385/155
f 331/383/155 318/385/155 332/386/242
f 332/386/242 318/385/155 320/387/243
f 332/386/242 320/387/243 333/388/244
f 333/388/244 320/387/243 321/389/245
f 333/388/244 321/389/245 324/390/246
f 333/388/244 324/390/246 334/391/247
f 334/391/247 324/390/246 323/392/248
f 334/391/247 323/392/248 335/393/249
f 335/393/249 323/392/248 336/394/250
f 336/394/250 323/392/248 322/395/251
f 336/394/250 322/395/251 319/396/252
f 336/394/250 319/396/252 337/397/253
f 337/397/253 319/396/252 317/398/3
f 337/397/253 317/398/3 338/399/3
f 338/399/3 317/398/3 316/400/3
f 338/399/3 316/400/3 313/401/3
f 338/399/3 313/401/3 339/402/3
f 339/402/3 313/401/3 312/403/3
f 339/402/3 312/403/3 310/404/3
f 339/402/3 310/404/3 340/405/3
f 340/405/3 310/404/3 307/406/3
f 340/405/3 307/406/3 155/407/3
f 340/405/3 155/407/3 341/408/3
f 341/408/3 155/407/3 153/409/3
f 341/408/3 153/409/3 151/410/3
f 341/408/3 151/410/3 342/411/254
f 342/411/254 151/410/3 150/412/255
f 342/411/254 150/412/255 147/413/256
f 342/411/254 147/413/256 343/414/257
f 343/414/257 147/413/256 146/415/258
f 343/414/257 146/415/258 344/416/64
f 344/416/64 146/415/258 145/417/64
f 345/418/155 346/419/155 64/420/155
f 64/420/155 346/419/155 68/421/155
f 68/421/155 346/419/155 347/422/259
f 68/421/155 347/422/259 72/423/260
f 345/418/155 64/420/155 67/424/155
f 345/418/155 67/424/155 71/425/155
f 345/418/155 71/425/155 348/426/155
f 348/426/155 71/425/155 76/427/155
f 348/426/155 76/427/155 78/428/155
f 348/426/155 78/428/155 349/429/155
f 349/429/155 78/428/155 79/430/155
f 349/429/155 79/430/155 82/431/155
f 349/429/155 82/431/155 350/432/155
f 350/432/155 82/431/155 351/433/155
f 350/432/155 351/433/155 352/434/155
f 350/432/155 352/434/155 353/435/261
f 353/435/261 352/434/155 354/436/262
f 355/437/263 354/436/262 356/438/264
f 355/437/263 356/438/264 145/439/155
f 145/439/155 356/438/264 344/440/155
f 95/441/265 357/442/266 91/443/3
f 91/443/3 357/442/266 358/444/3
f 91/443/3 358/444/3 86/445/3
f 86/445/3 358/444/3 359/446/3
f 86/445/3 359/446/3 87/447/3
f 87/447/3 359/446/3 92/448/3
f 92/448/3 359/446/3 360/449/3
f 92/448/3 360/449/3 98/450/3
f 98/450/3 360/449/3 99/451/3
f 99/451/3 360/449/3 361/452/3
f 99/451/3 361/452/3 101/453/3
f 101/453/3 361/452/3 104/454/3
f 104/454/3 361/452/3 362/455/3
f 104/454/3 362/455/3 363/456/3
f 363/456/3 362/455/3 364/457/3
f 364/457/3 362/455/3 365/458/267
f 364/457/3 365/458/267 366/459/268
f 366/459/268 365/458/267 367/460/269
f 367/460/269 365/458/267 368/461/270
f 367/460/269 368/461/270 133/462/3
f 367/460/269 133/462/3 325/463/3
f 82/82/64 81/81/64 222/464/193
f 82/82/64 222/464/193 351/465/228
f 351/465/228 222/464/193 223/466/229
f 351/465/228 223/466/229 352/467/229
f 352/467/229 223/466/229 354/468/271
f 354/468/271 223/466/229 225/469/272
f 354/468/271 225/469/272 356/470/273
f 356/470/273 225/469/272 226/471/199
f 356/470/273 226/471/199 344/472/274
f 344/472/274 226/471/199 229/473/200
f 344/472/274 229/473/200 231/474/231
f 344/472/274 231/474/231 369/475/275
f 344/472/274 369/475/275 343/476/276
f 343/476/276 369/475/275 370/477/277
f 369/475/275 231/474/231 232/478/206
f 370/477/277 369/475/275 242/479/278
f 242/479/278 369/475/275 232/478/206
f 242/479/278 232/478/206 234/480/279
f 242/479/278 234/480/279 241/481/280
f 241/481/280 234/480/279 238/482/236
f 238/482/236 234/480/279 236/483/236
f 367/484/273 292/485/199 291/486/281
f 367/484/273 291/486/281 366/487/282
f 366/487/282 291/486/281 364/488/195
f 364/488/195 291/486/281 289/489/229
f 364/488/195 289/489/229 363/490/228
f 363/490/228 289/489/229 288/491/228
f 363/490/228 288/491/228 104/104/73
f 104/104/73 288/491/228 103/103/73
f 325/492/283 292/485/199 367/484/273
f 292/485/199 325/492/283 294/493/200
f 294/493/200 325/492/283 295/494/231
f 295/494/231 325/492/283 371/495/284
f 371/495/284 325/492/283 326/496/285
f 371/495/284 326/496/285 372/497/286
f 371/495/284 372/497/286 306/498/287
f 371/495/284 306/498/287 295/494/231
f 295/494/231 306/498/287 297/499/206
f 297/499/206 306/498/287 298/500/279
f 298/500/279 306/498/287 305/501/280
f 298/500/279 305/501/280 303/502/236
f 298/500/279 303/502/236 300/503/236
f 48/504/288 373/505/289 46/506/290
f 373/505/289 48/504/288 374/507/291
f 374/507/291 48/504/288 51/508/292
f 374/507/291 51/508/292 53/509/293
f 46/506/290 373/505/289 375/510/294
f 46/506/290 375/510/294 376/511/295
f 46/506/290 376/511/295 42/512/296
f 375/510/294 373/505/289 377/513/297
f 377/513/297 373/505/289 378/514/298
f 378/514/298 373/505/289 374/507/291
f 375/510/294 377/513/297 379/515/299
f 375/510/294 379/515/299 376/511/295
f 42/512/296 376/511/295 380/516/300
f 380/516/300 376/511/295 379/515/299
f 42/512/296 380/516/300 39/517/290
f 39/517/290 380/516/300 40/518/3
f 40/518/3 380/516/300 381/519/301
f 381/519/301 380/516/300 379/515/299
f 40/518/3 381/519/301 382/520/3
f 383/521/302 379/515/299 377/513/297
f 383/521/302 377/513/297 378/514/298
f 381/519/301 379/515/299 384/522/303
f 381/519/301 384/522/303 382/520/3
f 384/522/303 379/515/299 385/523/304
f 385/523/304 379/515/299 383/521/302
f 382/520/3 384/522/303 386/524/305
f 386/524/305 384/522/303 385/523/304
f 382/520/3 386/524/305 19/19/3
f 383/521/302 378/514/298 387/525/306
f 19/19/3 386/524/305 388/526/307
f 19/19/3 388/526/307 18/18/13
f 386/524/305 385/523/304 389/527/308
f 386/524/305 389/527/308 388/526/307
f 390/528/309 385/523/304 383/521/302
f 385/523/304 390/528/309 389/527/308
f 18/18/13 388/526/307 391/529/310
f 391/529/310 388/526/307 389/527/308
f 18/18/13 391/529/310 392/530/311
f 391/529/310 389/527/308 393/531/312
f 391/529/310 393/531/312 392/530/311
f 393/531/312 389/527/308 390/528/309
f 392/530/311 393/531/312 394/532/313
f 394/532/313 393/531/312 395/533/314
f 396/534/315 390/528/309 383/521/302
f 390/528/309 396/534/315 393/531/312
f 396/534/315 383/521/302 387/525/306
f 395/533/314 393/531/312 397/535/316
f 397/535/316 393/531/312 396/534/315
f 395/533/314 397/535/316 398/536/317
f 396/534/315 387/525/306 399/537/318
f 399/537/318 387/525/306 378/514/298
f 397/535/316 396/534/315 400/538/319
f 400/538/319 396/534/315 399/537/318
f 398/536/317 397/535/316 401/539/320
f 401/539/320 397/535/316 400/538/319
f 398/536/317 401/539/320 402/540/321
f 399/537/318 378/514/298 403/541/322
f 403/541/322 378/514/298 374/507/291
f 400/538/319 399/537/318 404/542/323
f 400/538/319 404/542/323 401/539/320
f 399/537/318 403/541/322 405/543/324
f 399/537/318 405/543/324 404/542/323
f 403/541/322 374/507/291 406/544/325
f 403/541/322 406/544/325 405/543/324
f 406/544/325 374/507/291 407/545/326
f 407/545/326 374/507/291 53/509/293
f 405/543/324 406/544/325 408/546/327
f 408/546/327 406/544/325 407/545/326
f 407/545/326 53/509/293 409/547/328
f 407/545/326 409/547/328 408/546/327
f 409/547/328 53/509/293 132/548/329
f 409/547/328 132/548/329 131/549/330
f 409/547/328 131/549/330 208/550/331
f 409/547/328 208/550/331 408/546/327
f 408/546/327 208/550/331 205/551/332
f 408/546/327 205/551/332 203/552/333
f 410/553/334 405/543/324 408/546/327
f 410/553/334 408/546/327 203/552/333
f 405/543/324 410/553/334 404/542/323
f 410/553/334 203/552/333 411/554/335
f 410/553/334 411/554/335 404/542/323
f 411/554/335 203/552/333 202/555/336
f 411/554/335 202/555/336 412/556/337
f 411/554/335 412/556/337 404/542/323
f 412/556/337 202/555/336 198/557/338
f 412/556/337 198/557/338 200/318/222
f 412/556/337 200/318/222 284/319/223
f 404/542/323 412/556/337 413/558/339
f 413/558/339 412/556/337 284/319/223
f 404/542/323 413/558/339 401/539/320
f 401/539/320 413/558/339 402/540/321
f 402/540/321 413/558/339 284/319/223
f 402/540/321 284/319/223 282/315/219
f 282/315/219 284/319/223 283/317/221
f 353/435/261 354/436/262 355/437/263
f 414/559/340 415/560/341 416/561/342
f 415/560/341 414/559/340 417/562/343
f 416/561/342 415/560/341 418/563/344
f 416/561/342 418/563/344 419/564/345
f 414/559/340 416/561/342 420/565/346
f 416/561/342 419/564/345 421/566/347
f 416/561/342 421/566/347 420/565/346
f 421/566/347 419/564/345 195/195/150
f 421/566/347 195/195/150 165/165/120
f 421/566/347 165/165/120 162/162/117
f 421/566/347 162/162/117 420/565/346
f 414/559/340 420/565/346 422/567/348
f 414/559/340 422/567/348 417/562/343
f 420/565/346 162/162/117 423/568/349
f 423/568/349 162/162/117 158/158/113
f 422/567/348 420/565/346 424/569/350
f 424/569/350 420/565/346 423/568/349
f 417/562/343 422/567/348 425/570/351
f 425/570/351 422/567/348 424/569/350
f 417/562/343 425/570/351 426/571/352
f 423/568/349 158/158/113 427/572/353
f 427/572/353 158/158/113 157/157/112
f 427/572/353 157/157/112 160/160/115
f 425/570/351 424/569/350 175/573/354
f 426/571/352 425/570/351 428/574/355
f 428/574/355 425/570/351 175/573/354
f 426/571/352 428/574/355 429/575/356
f 429/575/356 428/574/355 180/576/357
f 180/576/357 428/574/355 178/577/358
f 178/577/358 428/574/355 175/573/354
f 175/573/354 424/569/350 172/578/359
f 172/578/359 424/569/350 430/579/360
f 430/579/360 424/569/350 423/568/349
f 430/579/360 423/568/349 427/572/353
f 172/578/359 430/579/360 170/580/361
f 430/579/360 427/572/353 431/581/362
f 430/579/360 431/581/362 170/580/361
f 431/581/362 427/572/353 160/582/363
f 431/581/362 160/582/363 170/580/361
f 140/583/364 432/584/365 370/585/366
f 140/583/364 370/585/366 138/586/367
f 138/586/367 370/585/366 242/587/338
f 138/586/367 242/587/338 144/588/338
f 137/589/368 136/590/338 306/591/338
f 137/589/368 306/591/338 372/592/369
f 137/589/368 372/592/369 139/593/370
f 139/593/370 372/592/369 433/594/371
f 215/595/372 434/596/373 89/597/374
f 215/595/372 89/597/374 90/598/375
f 89/597/374 434/596/373 93/599/376
f 93/599/376 434/596/373 435/600/377
f 139/593/370 433/594/371 142/601/378
f 142/601/378 433/594/371 436/602/379
f 142/601/378 436/602/379 141/603/380
f 141/603/380 436/602/379 437/604/381
f 141/603/380 437/604/381 432/584/365
f 141/603/380 432/584/365 140/583/364
f 438/605/382 395/533/314 439/606/383
f 439/606/383 395/533/314 398/536/317
f 395/533/314 438/605/382 394/532/313
f 439/606/383 398/536/317 282/315/219
f 282/315/219 398/536/317 402/540/321
f 438/605/382 439/606/383 440/607/384
f 439/606/383 282/315/219 281/314/218
f 439/606/383 281/314/218 440/607/384
f 438/605/382 440/607/384 441/608/385
f 394/532/313 438/605/382 442/609/386
f 442/609/386 438/605/382 441/608/385
f 394/532/313 442/609/386 443/610/387
f 394/532/313 443/610/387 392/530/311
f 392/530/311 443/610/387 9/9/7
f 392/530/311 9/9/7 18/18/13
f 9/9/7 443/610/387 4/4/4
f 443/610/387 442/609/386 444/611/388
f 443/610/387 444/611/388 4/4/4
f 444/611/388 442/609/386 441/608/385
f 4/4/4 444/611/388 1/1/1
f 445/612/389 441/608/385 440/607/384
f 445/612/389 440/607/384 281/314/218
f 444/611/388 441/608/385 446/613/390
f 446/613/390 441/608/385 445/612/389
f 1/1/1 444/611/388 447/614/391
f 447/614/391 444/611/388 446/613/390
f 1/1/1 447/614/391 448/615/392
f 1/1/1 448/615/392 2/2/2
f 447/614/391 446/613/390 449/616/393
f 447/614/391 449/616/393 448/615/392
f 446/613/390 445/612/389 276/308/212
f 446/613/390 276/308/212 449/616/393
f 276/308/212 445/612/389 277/309/213
f 277/309/213 445/612/389 281/314/218
f 2/2/2 448/615/392 450/617/394
f 2/2/2 450/617/394 6/6/5
f 6/6/5 450/617/394 8/8/6
f 450/617/394 448/615/392 451/618/395
f 451/618/395 448/615/392 449/616/393
f 8/8/6 450/617/394 452/619/396
f 452/619/396 450/617/394 451/618/395
f 8/8/6 452/619/396 244/268/172
f 8/8/6 244/268/172 11/11/8
f 11/11/8 244/268/172 12/12/9
f 451/618/395 449/616/393 259/283/187
f 259/283/187 449/616/393 276/308/212
f 452/619/396 451/618/395 245/269/173
f 452/619/396 245/269/173 244/268/172
f 245/269/173 451/618/395 259/283/187
f 72/423/260 347/422/259 74/620/397
f 74/620/397 347/422/259 453/621/398
f 74/620/397 453/621/398 454/622/399
f 74/620/397 454/622/399 73/623/400
f 73/623/400 454/622/399 216/231/162
f 73/623/400 216/231/162 70/230/161
f 93/599/376 435/600/377 96/624/397
f 96/624/397 435/600/377 455/625/398
f 96/624/397 455/625/398 456/626/399
f 96/624/397 456/626/399 97/627/400
f 97/627/400 456/626/399 357/442/266
f 97/627/400 357/442/266 95/441/265
