# CS2 body mesh, tools/cs2_glb_to_obj.py
v 0.06463 -0.08691 -0.01913
v 0.06397 -0.08708 -0.01512
v 0.06397 -0.08708 -0.01913
v 0.06463 -0.08691 -0.01512
v 0.06413 -0.08836 -0.02201
v 0.06522 -0.08658 -0.01512
v 0.06522 -0.08658 -0.01912
v 0.0657 -0.08611 -0.01512
v 0.06511 -0.08811 -0.02201
v 0.06512 -0.08811 -0.04902
v 0.06414 -0.08836 -0.04902
v 0.0657 -0.08611 -0.01912
v 0.06604 -0.08553 -0.01512
v 0.06599 -0.08761 -0.02201
v 0.066 -0.08761 -0.04902
v 0.06564 -0.08713 -0.04968
v 0.06489 -0.08755 -0.04968
v 0.06671 -0.0869 -0.02201
v 0.06672 -0.08691 -0.04902
v 0.06723 -0.08603 -0.02201
v 0.06604 -0.08553 -0.01912
v 0.06622 -0.08488 -0.01512
v 0.06489 -0.08755 -0.05046
v 0.06406 -0.08776 -0.04968
v 0.06406 -0.08776 -0.05046
v 0.06564 -0.08713 -0.05046
v 0.06512 -0.08811 -0.05077
v 0.06625 -0.08653 -0.04968
v 0.06724 -0.08604 -0.04902
v 0.06668 -0.0858 -0.04968
v 0.06751 -0.08506 -0.04902
v 0.06625 -0.08653 -0.05046
v 0.06668 -0.0858 -0.05046
v 0.06672 -0.08691 -0.05077
v 0.06724 -0.08604 -0.05077
v 0.06691 -0.08498 -0.05046
v 0.06691 -0.08498 -0.04968
v 0.06802 -0.08577 -0.02218
v 0.06821 -0.08463 -0.02613
v 0.0682 -0.08463 -0.02218
v 0.06808 -0.08348 -0.02218
v 0.06802 -0.0858 -0.02613
v 0.06808 -0.08345 -0.02613
v 0.06754 -0.08688 -0.02218
v 0.06765 -0.08234 -0.02218
v 0.06754 -0.08688 -0.02613
v 0.06765 -0.08234 -0.02613
v 0.06701 -0.08145 -0.023
v 0.06701 -0.08145 -0.02531
v 0.06679 -0.0878 -0.02218
v 0.06679 -0.0878 -0.02613
v 0.06583 -0.0885 -0.02218
v 0.06584 -0.0885 -0.02613
v 0.06473 -0.08892 -0.02613
v 0.06473 -0.08892 -0.02218
v 0.06821 -0.08463 -0.04618
v 0.06803 -0.08577 -0.04116
v 0.06804 -0.08571 -0.04618
v 0.06821 -0.08463 -0.0372
v 0.06802 -0.0858 -0.0372
v 0.06754 -0.08688 -0.04116
v 0.06809 -0.08348 -0.04116
v 0.06809 -0.08353 -0.04618
v 0.06808 -0.08345 -0.0372
v 0.06754 -0.08688 -0.0372
v 0.06766 -0.08234 -0.04116
v 0.0668 -0.0878 -0.04116
v 0.06766 -0.08234 -0.0372
v 0.06701 -0.08145 -0.04034
v 0.06701 -0.08145 -0.03802
v 0.0668 -0.0878 -0.0372
v 0.06584 -0.0885 -0.0372
v 0.06584 -0.0885 -0.04116
v 0.06473 -0.08892 -0.0372
v 0.06473 -0.08892 -0.04116
v 0.05724 -0.08552 -0.02772
v 0.05748 -0.08662 -0.02772
v 0.05796 -0.08554 -0.02772
v 0.05925 -0.08557 -0.02575
v 0.05996 -0.08559 -0.02575
v 0.06389 -0.08636 -0.00867
v 0.06394 -0.08679 -0.01511
v 0.06458 -0.08614 -0.00867
v 0.06479 -0.08651 -0.01511
v 0.06415 -0.08601 -0.00699
v 0.06513 -0.08566 -0.00867
v 0.06547 -0.08593 -0.01511
v 0.06587 -0.08513 -0.01511
v 0.06507 -0.08522 -0.00699
v 0.06546 -0.08501 -0.00867
v 0.06594 -0.08424 -0.01511
v 0.06465 -0.08501 -0.00531
v 0.06401 -0.08556 -0.00531
v 0.06552 -0.08429 -0.00867
v 0.06516 -0.08402 -0.00699
v 0.06422 -0.08479 -0.00433
v 0.06386 -0.0851 -0.00433
v 0.06366 -0.08451 -0.00399
v 0.06529 -0.08359 -0.00867
v 0.06566 -0.08338 -0.01511
v 0.06426 -0.08431 -0.00433
v 0.06394 -0.08395 -0.00433
v 0.06472 -0.08416 -0.00531
v 0.06416 -0.08352 -0.00531
v 0.06438 -0.0831 -0.00699
v 0.06482 -0.08304 -0.00867
v 0.06417 -0.08271 -0.00867
v 0.06508 -0.08271 -0.01511
v 0.06428 -0.0823 -0.01511
v 0.05997 -0.08559 -0.03758
v 0.05797 -0.08554 -0.03562
v 0.05926 -0.08557 -0.03758
v 0.05724 -0.08552 -0.03562
v 0.05748 -0.08662 -0.03562
v 0.05815 -0.08437 -0.03562
v 0.06003 -0.08324 -0.03758
v 0.05803 -0.08319 -0.03562
v 0.05802 -0.08319 -0.02772
v 0.0576 -0.08209 -0.03514
v 0.0576 -0.08208 -0.0282
v 0.05695 -0.0812 -0.0295
v 0.05695 -0.0812 -0.03384
v 0.05815 -0.08437 -0.02772
v 0.06002 -0.08324 -0.02575
v 0.05674 -0.08754 -0.036
v 0.05674 -0.08754 -0.02734
v 0.05578 -0.08824 -0.02734
v 0.05578 -0.08824 -0.036
v 0.05467 -0.08867 -0.02734
v 0.05467 -0.08867 -0.036
v 0.05984 -0.08396 -0.05131
v 0.06008 -0.08595 -0.05131
v 0.05983 -0.08497 -0.05131
v 0.06057 -0.08684 -0.05131
v 0.06011 -0.08299 -0.05131
v 0.06063 -0.08212 -0.05131
v 0.06128 -0.08756 -0.05131
v 0.06135 -0.08141 -0.05131
v 0.06215 -0.08808 -0.05131
v 0.06312 -0.08835 -0.05131
v 0.06223 -0.08091 -0.05131
v 0.06414 -0.08836 -0.05131
v 0.06321 -0.08066 -0.05131
v 0.06422 -0.08067 -0.05131
v 0.06512 -0.08811 -0.05131
v 0.0652 -0.08095 -0.05131
v 0.066 -0.08761 -0.05131
v 0.06607 -0.08146 -0.05131
v 0.06672 -0.08691 -0.05131
v 0.06724 -0.08604 -0.05131
v 0.06678 -0.08219 -0.05131
v 0.06727 -0.08307 -0.05131
v 0.06751 -0.08506 -0.05131
v 0.06752 -0.08405 -0.05131
v 0.06739 -0.08561 -0.04611
v 0.06739 -0.08561 -0.04116
v 0.06634 -0.08732 -0.04116
v 0.06458 -0.08828 -0.04116
v 0.06356 -0.08905 -0.04116
v 0.06257 -0.08823 -0.04116
v 0.06238 -0.08886 -0.04116
v 0.0613 -0.08838 -0.04116
v 0.06086 -0.08718 -0.04116
v 0.06038 -0.08764 -0.04116
v 0.05968 -0.08668 -0.04116
v 0.0599 -0.08542 -0.04116
v 0.05926 -0.08557 -0.04116
v 0.05913 -0.0844 -0.04116
v 0.05995 -0.08341 -0.04116
v 0.05932 -0.08322 -0.04116
v 0.0598 -0.08214 -0.04116
v 0.06036 -0.08249 -0.04116
v 0.06755 -0.08461 -0.04611
v 0.06744 -0.0836 -0.04611
v 0.0675 -0.08506 -0.02201
v 0.06752 -0.08405 -0.04902
v 0.06752 -0.08405 -0.02201
v 0.06623 -0.08488 -0.01912
v 0.06623 -0.0842 -0.01912
v 0.06623 -0.0842 -0.01512
v 0.06607 -0.08355 -0.01512
v 0.06607 -0.08355 -0.01912
v 0.06573 -0.08296 -0.01512
v 0.06726 -0.08307 -0.02201
v 0.06574 -0.08296 -0.01913
v 0.06526 -0.08248 -0.01512
v 0.06526 -0.08248 -0.01913
v 0.06468 -0.08213 -0.01512
v 0.06677 -0.08218 -0.02201
v 0.06727 -0.08307 -0.04902
v 0.06403 -0.08195 -0.01913
v 0.06403 -0.08195 -0.01512
v 0.06468 -0.08213 -0.01913
v 0.06422 -0.08067 -0.02201
v 0.06519 -0.08094 -0.02201
v 0.06606 -0.08146 -0.02201
v 0.0652 -0.08095 -0.04902
v 0.06422 -0.08067 -0.04902
v 0.06678 -0.08219 -0.04902
v 0.06607 -0.08146 -0.04902
v 0.06629 -0.08255 -0.04968
v 0.06496 -0.0815 -0.04968
v 0.06414 -0.08127 -0.04968
v 0.0657 -0.08194 -0.04968
v 0.06414 -0.08127 -0.05046
v 0.06496 -0.0815 -0.05046
v 0.0657 -0.08194 -0.05046
v 0.06629 -0.08255 -0.05046
v 0.0652 -0.08095 -0.05077
v 0.06671 -0.08329 -0.05046
v 0.06678 -0.08219 -0.05077
v 0.06607 -0.08146 -0.05077
v 0.06422 -0.08067 -0.05077
v 0.06727 -0.08307 -0.05077
v 0.06752 -0.08405 -0.05077
v 0.06751 -0.08506 -0.05077
v 0.066 -0.08761 -0.05077
v 0.06414 -0.08836 -0.05077
v 0.06692 -0.08412 -0.05046
v 0.06692 -0.08412 -0.04968
v 0.06671 -0.08329 -0.04968
v 0.05349 -0.08879 -0.02734
v 0.0535 -0.08879 -0.036
v 0.05232 -0.08861 -0.02734
v 0.05233 -0.08861 -0.036
v 0.05124 -0.08813 -0.036
v 0.05124 -0.08813 -0.02734
v 0.05032 -0.08738 -0.036
v 0.05032 -0.08738 -0.02734
v 0.04962 -0.08642 -0.02734
v 0.04962 -0.08642 -0.036
v 0.0492 -0.08532 -0.036
v 0.0492 -0.08532 -0.02734
v 0.04907 -0.08414 -0.02734
v 0.04907 -0.08414 -0.036
v 0.04926 -0.08297 -0.02734
v 0.04926 -0.08297 -0.036
v 0.04974 -0.08189 -0.03547
v 0.04974 -0.08188 -0.02787
v 0.05043 -0.08103 -0.02929
v 0.05043 -0.08103 -0.03405
v 0.05628 -0.08706 -0.02734
v 0.05628 -0.08706 -0.036
v 0.0503 -0.08223 -0.02787
v 0.04989 -0.08316 -0.02734
v 0.04984 -0.08516 -0.02734
v 0.0508 -0.08692 -0.02734
v 0.05251 -0.08797 -0.02734
v 0.05452 -0.08802 -0.02734
v 0.05452 -0.08802 -0.036
v 0.05251 -0.08797 -0.036
v 0.0508 -0.08692 -0.036
v 0.04984 -0.08516 -0.036
v 0.04989 -0.08316 -0.036
v 0.05031 -0.08223 -0.03547
v 0.0611 -0.08482 -0.01512
v 0.06166 -0.08531 -0.01512
v 0.06153 -0.0842 -0.01512
v 0.05982 -0.08497 -0.04902
v 0.06008 -0.08595 -0.04902
v 0.05982 -0.08497 -0.02201
v 0.0611 -0.08482 -0.01913
v 0.06126 -0.08547 -0.01512
v 0.06127 -0.08547 -0.01913
v 0.06159 -0.08606 -0.01512
v 0.06233 -0.08621 -0.01512
v 0.06007 -0.08595 -0.02201
v 0.0616 -0.08606 -0.01913
v 0.06056 -0.08683 -0.02201
v 0.06207 -0.08654 -0.01913
v 0.06207 -0.08654 -0.01512
v 0.06057 -0.08684 -0.04902
v 0.06106 -0.08647 -0.04968
v 0.06128 -0.08756 -0.04902
v 0.06165 -0.08708 -0.04968
v 0.06215 -0.08808 -0.04902
v 0.06127 -0.08756 -0.02201
v 0.06214 -0.08807 -0.02201
v 0.06312 -0.08835 -0.04902
v 0.06312 -0.08835 -0.02201
v 0.06265 -0.08689 -0.01913
v 0.0633 -0.08707 -0.01913
v 0.06265 -0.08689 -0.01512
v 0.06336 -0.08665 -0.01512
v 0.0633 -0.08707 -0.01512
v 0.06447 -0.08651 -0.01512
v 0.06536 -0.08584 -0.01512
v 0.0658 -0.08482 -0.01512
v 0.06567 -0.08371 -0.01512
v 0.065 -0.08281 -0.01512
v 0.06397 -0.08237 -0.01512
v 0.06336 -0.08194 -0.01512
v 0.06286 -0.0825 -0.01512
v 0.06336 -0.08194 -0.01913
v 0.0632 -0.08066 -0.02201
v 0.06321 -0.08066 -0.04902
v 0.06328 -0.08126 -0.04968
v 0.06328 -0.08126 -0.05046
v 0.06321 -0.08066 -0.05077
v 0.06355 -0.08905 -0.02218
v 0.06355 -0.08905 -0.02613
v 0.06238 -0.08886 -0.02218
v 0.06238 -0.08886 -0.02613
v 0.0613 -0.08838 -0.02218
v 0.0613 -0.08838 -0.02613
v 0.06038 -0.08764 -0.02613
v 0.06038 -0.08764 -0.02218
v 0.05968 -0.08668 -0.02575
v 0.05968 -0.08668 -0.02218
v 0.05925 -0.08557 -0.02218
v 0.05913 -0.08439 -0.02218
v 0.05913 -0.08439 -0.02575
v 0.0573 -0.08317 -0.02781
v 0.05931 -0.08322 -0.02218
v 0.05931 -0.08322 -0.02575
v 0.05979 -0.08214 -0.02218
v 0.05979 -0.08214 -0.02575
v 0.06049 -0.08129 -0.02501
v 0.06048 -0.08129 -0.02292
v 0.06355 -0.08905 -0.0372
v 0.06238 -0.08886 -0.0372
v 0.0613 -0.08838 -0.0372
v 0.06038 -0.08764 -0.0372
v 0.05968 -0.08668 -0.03758
v 0.05913 -0.0844 -0.03758
v 0.0573 -0.08317 -0.03553
v 0.05932 -0.08322 -0.03758
v 0.0598 -0.08214 -0.03758
v 0.06049 -0.08129 -0.03833
v 0.06049 -0.08129 -0.04042
v 0.06036 -0.08249 -0.03758
v 0.06036 -0.08249 -0.02575
v 0.061 -0.0817 -0.04042
v 0.061 -0.0817 -0.03833
v 0.06036 -0.08249 -0.02218
v 0.061 -0.0817 -0.02292
v 0.061 -0.0817 -0.02501
v 0.05094 -0.08144 -0.03405
v 0.05094 -0.08144 -0.02929
v 0.06339 -0.08223 -0.01511
v 0.06344 -0.08265 -0.00867
v 0.06317 -0.08301 -0.00699
v 0.06332 -0.08345 -0.00531
v 0.06347 -0.08391 -0.00433
v 0.06338 -0.08507 -0.00433
v 0.06307 -0.0847 -0.00433
v 0.06316 -0.0855 -0.00531
v 0.06261 -0.08485 -0.00531
v 0.0631 -0.08422 -0.00433
v 0.06295 -0.08592 -0.00699
v 0.06267 -0.08401 -0.00531
v 0.06216 -0.085 -0.00699
v 0.06225 -0.08379 -0.00699
v 0.06316 -0.08631 -0.00867
v 0.06305 -0.08672 -0.01511
v 0.06251 -0.08598 -0.00867
v 0.06225 -0.08631 -0.01511
v 0.06167 -0.08563 -0.01511
v 0.06203 -0.08542 -0.00867
v 0.06139 -0.08478 -0.01511
v 0.06181 -0.08473 -0.00867
v 0.06186 -0.084 -0.00867
v 0.06146 -0.08389 -0.01511
v 0.06219 -0.08335 -0.00867
v 0.06186 -0.08309 -0.01511
v 0.06254 -0.08251 -0.01511
v 0.06275 -0.08288 -0.00867
v 0.06321 -0.08775 -0.04968
v 0.06321 -0.08775 -0.05046
v 0.06239 -0.08752 -0.04968
v 0.06239 -0.08752 -0.05046
v 0.06312 -0.08835 -0.05077
v 0.06215 -0.08808 -0.05077
v 0.06128 -0.08756 -0.05077
v 0.06057 -0.08684 -0.05077
v 0.06165 -0.08708 -0.05046
v 0.06106 -0.08647 -0.05046
v 0.06008 -0.08595 -0.05077
v 0.06064 -0.08573 -0.05046
v 0.05983 -0.08497 -0.05077
v 0.05984 -0.08396 -0.05077
v 0.06011 -0.08299 -0.05077
v 0.06063 -0.08212 -0.05077
v 0.06067 -0.08322 -0.05046
v 0.06135 -0.08141 -0.05077
v 0.06044 -0.08405 -0.05046
v 0.06043 -0.0849 -0.05046
v 0.06067 -0.08322 -0.04968
v 0.0611 -0.08249 -0.05046
v 0.0611 -0.08249 -0.04968
v 0.06044 -0.08405 -0.04968
v 0.06043 -0.0849 -0.04968
v 0.05984 -0.08396 -0.04902
v 0.06064 -0.08573 -0.04968
v 0.05983 -0.08396 -0.02201
v 0.06011 -0.08299 -0.04902
v 0.06063 -0.08212 -0.04902
v 0.06062 -0.08211 -0.02201
v 0.06135 -0.08141 -0.04902
v 0.06171 -0.08189 -0.04968
v 0.06744 -0.0836 -0.04116
v 0.06708 -0.08266 -0.04116
v 0.06648 -0.08184 -0.04034
v 0.06648 -0.08184 -0.03802
v 0.06708 -0.08266 -0.0372
v 0.06744 -0.0836 -0.0372
v 0.06739 -0.08561 -0.0372
v 0.06634 -0.08732 -0.0372
v 0.06458 -0.08828 -0.0372
v 0.06257 -0.08823 -0.0372
v 0.06086 -0.08718 -0.0372
v 0.06026 -0.08636 -0.03758
v 0.06738 -0.08561 -0.02613
v 0.06744 -0.0836 -0.02613
v 0.06707 -0.08266 -0.02613
v 0.06634 -0.08732 -0.02613
v 0.06648 -0.08184 -0.02531
v 0.06648 -0.08184 -0.023
v 0.06457 -0.08828 -0.02613
v 0.06707 -0.08266 -0.02218
v 0.06257 -0.08823 -0.02613
v 0.06743 -0.0836 -0.02218
v 0.06086 -0.08718 -0.02613
v 0.06738 -0.08561 -0.02218
v 0.06026 -0.08636 -0.02575
v 0.06634 -0.08732 -0.02218
v 0.06457 -0.08828 -0.02218
v 0.06257 -0.08823 -0.02218
v 0.06086 -0.08718 -0.02218
v 0.06026 -0.08636 -0.02218
v 0.0599 -0.08542 -0.02218
v 0.05979 -0.08441 -0.02218
v 0.05995 -0.08341 -0.02218
v 0.05702 -0.0824 -0.03514
v 0.05642 -0.08158 -0.03384
v 0.05642 -0.08158 -0.0295
v 0.05702 -0.0824 -0.0282
v 0.0601 -0.08298 -0.02201
v 0.06171 -0.08189 -0.05046
v 0.06246 -0.08147 -0.04968
v 0.06246 -0.08147 -0.05046
v 0.06223 -0.08091 -0.05077
v 0.06223 -0.08091 -0.04902
v 0.06222 -0.08091 -0.02201
v 0.06134 -0.08141 -0.02201
v 0.06163 -0.08291 -0.01913
v 0.06211 -0.08244 -0.01913
v 0.0627 -0.08211 -0.01913
v 0.06129 -0.08349 -0.01913
v 0.0627 -0.08211 -0.01512
v 0.06211 -0.08244 -0.01512
v 0.06197 -0.08317 -0.01512
v 0.06163 -0.08291 -0.01512
v 0.06129 -0.08349 -0.01512
v 0.06111 -0.08414 -0.01913
v 0.0611 -0.08414 -0.01512
vt 0.882324 0.914062
vt 0.881348 0.909668
vt 0.881348 0.914062
vt 0.882324 0.909668
vt 0.881836 0.916992
vt 0.883301 0.909668
vt 0.883301 0.914062
vt 0.883789 0.909668
vt 0.882812 0.916992
vt 0.882812 0.945801
vt 0.881836 0.945801
vt 0.883789 0.914062
vt 0.884766 0.909668
vt 0.883301 0.916992
vt 0.883301 0.945801
vt 0.883301 0.946777
vt 0.882812 0.946777
vt 0.884277 0.916992
vt 0.884277 0.945801
vt 0.885254 0.916992
vt 0.884766 0.914062
vt 0.885254 0.909668
vt 0.882812 0.947754
vt 0.881836 0.946777
vt 0.881836 0.947754
vt 0.883301 0.947754
vt 0.882812 0.948242
vt 0.884277 0.946777
vt 0.885254 0.945801
vt 0.885254 0.946777
vt 0.88623 0.945801
vt 0.884277 0.947754
vt 0.885254 0.947754
vt 0.884277 0.948242
vt 0.885254 0.948242
vt 0.88623 0.947754
vt 0.88623 0.946777
vt 0.956543 0.058258
vt 0.955566 0.05426
vt 0.955566 0.058258
vt 0.954102 0.058258
vt 0.956543 0.05426
vt 0.954102 0.05426
vt 0.958008 0.058258
vt 0.953125 0.058258
vt 0.958008 0.05426
vt 0.953125 0.05426
vt 0.952148 0.057556
vt 0.952148 0.055206
vt 0.958984 0.058258
vt 0.958984 0.05426
vt 0.960449 0.058258
vt 0.960449 0.05426
vt 0.961426 0.05426
vt 0.961426 0.058258
vt 0.874512 0.254883
vt 0.875977 0.259766
vt 0.875977 0.254883
vt 0.874512 0.263916
vt 0.875977 0.263916
vt 0.876953 0.259766
vt 0.873535 0.259766
vt 0.873535 0.254883
vt 0.873535 0.263916
vt 0.876953 0.263916
vt 0.87207 0.259766
vt 0.878418 0.259766
vt 0.87207 0.263916
vt 0.871094 0.260742
vt 0.871094 0.263184
vt 0.878418 0.263916
vt 0.879395 0.263916
vt 0.879395 0.259766
vt 0.880859 0.263916
vt 0.880859 0.259766
vt 0.313477 0.065918
vt 0.314209 0.065308
vt 0.312988 0.065308
vt 0.310303 0.065918
vt 0.310303 0.065308
vt 0.701172 0.230347
vt 0.701172 0.223633
vt 0.700684 0.230347
vt 0.700195 0.223633
vt 0.700684 0.232178
vt 0.699707 0.230347
vt 0.699219 0.223633
vt 0.698242 0.223633
vt 0.699707 0.232178
vt 0.699219 0.230347
vt 0.697266 0.223633
vt 0.700195 0.233765
vt 0.701172 0.233765
vt 0.69873 0.230347
vt 0.69873 0.232178
vt 0.700195 0.234619
vt 0.701172 0.234619
vt 0.700684 0.235229
vt 0.697754 0.230347
vt 0.696289 0.223633
vt 0.699707 0.234619
vt 0.699219 0.234863
vt 0.699219 0.233765
vt 0.698242 0.233765
vt 0.697266 0.232178
vt 0.697266 0.230347
vt 0.696777 0.230347
vt 0.695801 0.223633
vt 0.694824 0.223633
vt 0.354492 0.065308
vt 0.351807 0.065308
vt 0.354492 0.065918
vt 0.351318 0.065918
vt 0.350586 0.065308
vt 0.85791 0.031189
vt 0.856445 0.033966
vt 0.85791 0.033997
vt 0.855469 0.031189
vt 0.855469 0.033997
vt 0.855469 0.042023
vt 0.854004 0.034485
vt 0.854004 0.041534
vt 0.853027 0.040222
vt 0.853027 0.035797
vt 0.856445 0.042053
vt 0.855469 0.04483
vt 0.85791 0.04483
vt 0.85791 0.042023
vt 0.858887 0.042023
vt 0.858887 0.033997
vt 0.860352 0.0336
vt 0.860352 0.042419
vt 0.861328 0.042419
vt 0.861328 0.0336
vt 0.862793 0.042419
vt 0.862793 0.0336
vt 0.266113 0.731934
vt 0.266113 0.72998
vt 0.266113 0.730957
vt 0.266602 0.729004
vt 0.266602 0.73291
vt 0.267334 0.733887
vt 0.267334 0.728027
vt 0.268066 0.734375
vt 0.268066 0.727539
vt 0.269043 0.727051
vt 0.269043 0.734863
vt 0.270264 0.727051
vt 0.270264 0.734863
vt 0.27124 0.734863
vt 0.27124 0.727051
vt 0.272217 0.734375
vt 0.272217 0.727539
vt 0.273193 0.733887
vt 0.273193 0.728027
vt 0.273682 0.729004
vt 0.273682 0.73291
vt 0.27417 0.731934
vt 0.27417 0.72998
vt 0.27417 0.730957
vt 0.604492 0.007416
vt 0.609375 0.008118
vt 0.609375 0.007416
vt 0.604004 0.008118
vt 0.603027 0.007416
vt 0.602051 0.008118
vt 0.602051 0.007416
vt 0.601074 0.007416
vt 0.600098 0.008118
vt 0.600098 0.007416
vt 0.598633 0.007416
vt 0.597656 0.008118
vt 0.597656 0.007416
vt 0.59668 0.007416
vt 0.595703 0.008118
vt 0.595703 0.007416
vt 0.594238 0.007416
vt 0.593262 0.008118
vt 0.593262 0.007416
vt 0.592285 0.007416
vt 0.591309 0.008118
vt 0.591309 0.007416
vt 0.589844 0.007416
vt 0.589844 0.008118
vt 0.840332 0.989258
vt 0.840332 0.987793
vt 0.839844 0.989258
vt 0.839844 0.987793
vt 0.840332 0.990234
vt 0.839844 0.990234
vt 0.88623 0.916992
vt 0.887207 0.945801
vt 0.887207 0.916992
vt 0.885254 0.914062
vt 0.88623 0.914062
vt 0.88623 0.909668
vt 0.887207 0.909668
vt 0.887207 0.914062
vt 0.887695 0.909668
vt 0.888184 0.916992
vt 0.887695 0.914062
vt 0.888672 0.909668
vt 0.888672 0.914062
vt 0.88916 0.909668
vt 0.88916 0.916992
vt 0.888184 0.945801
vt 0.890137 0.914062
vt 0.890137 0.909668
vt 0.88916 0.914062
vt 0.89209 0.916992
vt 0.891113 0.916992
vt 0.890137 0.916992
vt 0.891113 0.945801
vt 0.89209 0.945801
vt 0.88916 0.945801
vt 0.890137 0.945801
vt 0.88916 0.946777
vt 0.891113 0.946777
vt 0.89209 0.946777
vt 0.890137 0.946777
vt 0.89209 0.947754
vt 0.891113 0.947754
vt 0.890137 0.947754
vt 0.88916 0.947754
vt 0.891113 0.948242
vt 0.888184 0.947754
vt 0.88916 0.948242
vt 0.890137 0.948242
vt 0.890137 0.94873
vt 0.891113 0.94873
vt 0.89209 0.94873
vt 0.89209 0.948242
vt 0.88916 0.94873
vt 0.888184 0.948242
vt 0.888184 0.94873
vt 0.887207 0.948242
vt 0.887207 0.94873
vt 0.88623 0.94873
vt 0.88623 0.948242
vt 0.885254 0.94873
vt 0.884277 0.94873
vt 0.883301 0.94873
vt 0.883301 0.948242
vt 0.882812 0.94873
vt 0.881836 0.948242
vt 0.881836 0.94873
vt 0.887207 0.947754
vt 0.887207 0.946777
vt 0.888184 0.946777
vt 0.86377 0.042419
vt 0.86377 0.0336
vt 0.865234 0.042419
vt 0.865234 0.0336
vt 0.866211 0.0336
vt 0.866211 0.042419
vt 0.867676 0.0336
vt 0.867676 0.042419
vt 0.868652 0.042419
vt 0.868652 0.0336
vt 0.870117 0.0336
vt 0.870117 0.042419
vt 0.871094 0.042419
vt 0.871094 0.0336
vt 0.872559 0.042419
vt 0.872559 0.0336
vt 0.873535 0.034149
vt 0.873535 0.04187
vt 0.874512 0.040436
vt 0.874512 0.035583
vt 0.31543 0.065918
vt 0.31543 0.065308
vt 0.349365 0.065918
vt 0.349365 0.065308
vt 0.328125 0.065918
vt 0.326904 0.065308
vt 0.326904 0.065918
vt 0.325684 0.065308
vt 0.324707 0.065918
vt 0.324707 0.065308
vt 0.323486 0.065308
vt 0.322266 0.065918
vt 0.322266 0.065308
vt 0.321289 0.065308
vt 0.320068 0.065918
vt 0.320068 0.065308
vt 0.318848 0.065308
vt 0.317627 0.065918
vt 0.317871 0.065308
vt 0.31665 0.065308
vt 0.348145 0.065308
vt 0.347168 0.065918
vt 0.347168 0.065308
vt 0.345947 0.065308
vt 0.344727 0.065918
vt 0.344727 0.065308
vt 0.34375 0.065308
vt 0.342529 0.065918
vt 0.342529 0.065308
vt 0.341309 0.065308
vt 0.340332 0.065918
vt 0.340332 0.065308
vt 0.339111 0.065308
vt 0.337891 0.065918
vt 0.337891 0.065308
vt 0.33667 0.065918
vt 0.876953 0.909668
vt 0.87793 0.90918
vt 0.876465 0.90918
vt 0.875977 0.945801
vt 0.876953 0.945801
vt 0.875977 0.916992
vt 0.876953 0.914062
vt 0.877441 0.909668
vt 0.877441 0.914062
vt 0.878418 0.909668
vt 0.879395 0.90918
vt 0.876953 0.916992
vt 0.878418 0.914062
vt 0.87793 0.916992
vt 0.879395 0.914062
vt 0.879395 0.909668
vt 0.87793 0.945801
vt 0.87793 0.946777
vt 0.878906 0.945801
vt 0.878906 0.946777
vt 0.879883 0.945801
vt 0.878906 0.916992
vt 0.879883 0.916992
vt 0.880859 0.945801
vt 0.880859 0.916992
vt 0.879883 0.914062
vt 0.880859 0.914062
vt 0.879883 0.909668
vt 0.880859 0.90918
vt 0.880859 0.909668
vt 0.882324 0.90918
vt 0.883789 0.90918
vt 0.885254 0.90918
vt 0.886719 0.90918
vt 0.887695 0.90918
vt 0.88916 0.90918
vt 0.890625 0.909668
vt 0.890137 0.90918
vt 0.890625 0.914062
vt 0.893066 0.916992
vt 0.893066 0.945801
vt 0.893066 0.946777
vt 0.893066 0.947754
vt 0.893066 0.948242
vt 0.893066 0.94873
vt 0.962891 0.058258
vt 0.962891 0.05426
vt 0.963867 0.058258
vt 0.963867 0.05426
vt 0.964844 0.058258
vt 0.964844 0.05426
vt 0.966309 0.05426
vt 0.966309 0.058258
vt 0.967285 0.054504
vt 0.967285 0.058258
vt 0.96875 0.054504
vt 0.96875 0.058258
vt 0.969727 0.058258
vt 0.969727 0.054504
vt 0.96875 0.051636
vt 0.971191 0.051636
vt 0.971191 0.058258
vt 0.971191 0.054504
vt 0.972168 0.058258
vt 0.972168 0.054504
vt 0.973633 0.055267
vt 0.973633 0.057404
vt 0.881836 0.259766
vt 0.881836 0.263916
vt 0.883301 0.259766
vt 0.883301 0.263916
vt 0.884277 0.259766
vt 0.884277 0.263916
vt 0.885742 0.259766
vt 0.885742 0.263916
vt 0.886719 0.263428
vt 0.886719 0.259766
vt 0.888184 0.263428
vt 0.888184 0.259766
vt 0.88916 0.259766
vt 0.88916 0.263672
vt 0.888184 0.266357
vt 0.890137 0.266357
vt 0.890137 0.263428
vt 0.890137 0.259766
vt 0.891602 0.259766
vt 0.891602 0.263428
vt 0.892578 0.262695
vt 0.892578 0.260498
vt 0.585449 0.008118
vt 0.585449 0.007416
vt 0.583984 0.008118
vt 0.583984 0.007416
vt 0.477051 0.010986
vt 0.477051 0.011719
vt 0.477783 0.011719
vt 0.478027 0.010986
vt 0.588867 0.007416
vt 0.588867 0.008118
vt 0.586426 0.008118
vt 0.586426 0.007416
vt 0.472412 0.010986
vt 0.472168 0.011719
vt 0.473633 0.010986
vt 0.473633 0.011719
vt 0.475586 0.010986
vt 0.475586 0.011719
vt 0.33667 0.065308
vt 0.334961 0.065308
vt 0.334961 0.065918
vt 0.329834 0.065308
vt 0.329834 0.065918
vt 0.328125 0.065308
vt 0.693848 0.223633
vt 0.695801 0.230347
vt 0.696289 0.232178
vt 0.697754 0.233765
vt 0.69873 0.235229
vt 0.70166 0.234619
vt 0.702148 0.234619
vt 0.70166 0.233765
vt 0.702637 0.233765
vt 0.702637 0.234741
vt 0.702637 0.235352
vt 0.703125 0.235107
vt 0.704102 0.233765
vt 0.702148 0.232178
vt 0.703613 0.233765
vt 0.705566 0.232178
vt 0.703125 0.232178
vt 0.704102 0.232178
vt 0.70166 0.230347
vt 0.702148 0.223633
vt 0.702637 0.230347
vt 0.703125 0.223633
vt 0.704102 0.223633
vt 0.703125 0.230347
vt 0.705078 0.223633
vt 0.703613 0.230347
vt 0.70459 0.230347
vt 0.706055 0.223633
vt 0.705078 0.230347
vt 0.707031 0.223633
vt 0.70752 0.223633
vt 0.706055 0.230347
vt 0.708496 0.223633
vt 0.706543 0.230347
vt 0.880859 0.946777
vt 0.880859 0.947754
vt 0.879883 0.946777
vt 0.879883 0.947754
vt 0.880859 0.948242
vt 0.880859 0.94873
vt 0.879883 0.948242
vt 0.879883 0.94873
vt 0.878906 0.948242
vt 0.878906 0.94873
vt 0.87793 0.94873
vt 0.87793 0.948242
vt 0.876953 0.94873
vt 0.878906 0.947754
vt 0.87793 0.947754
vt 0.876953 0.948242
vt 0.875977 0.94873
vt 0.876953 0.947754
vt 0.875977 0.948242
vt 0.875 0.948242
vt 0.875 0.94873
vt 0.874023 0.94873
vt 0.874023 0.948242
vt 0.873047 0.948242
vt 0.873047 0.94873
vt 0.874023 0.947754
vt 0.87207 0.94873
vt 0.87207 0.948242
vt 0.871094 0.94873
vt 0.875 0.947754
vt 0.875977 0.947754
vt 0.874023 0.946777
vt 0.873047 0.947754
vt 0.873047 0.946777
vt 0.875 0.946777
vt 0.875977 0.946777
vt 0.875 0.945801
vt 0.876953 0.946777
vt 0.875 0.916992
vt 0.874023 0.945801
vt 0.873047 0.945801
vt 0.873047 0.916992
vt 0.87207 0.945801
vt 0.87207 0.946777
vt 0.817383 0.008606
vt 0.822754 0.008606
vt 0.822266 0.007904
vt 0.817383 0.007904
vt 0.82373 0.007904
vt 0.82373 0.008606
vt 0.825195 0.007904
vt 0.825195 0.008606
vt 0.827148 0.008606
vt 0.827148 0.007904
vt 0.828613 0.008606
vt 0.828613 0.007904
vt 0.830078 0.007904
vt 0.830078 0.008606
vt 0.831055 0.007904
vt 0.832031 0.008606
vt 0.832031 0.007904
vt 0.833008 0.007904
vt 0.834473 0.008606
vt 0.834473 0.007904
vt 0.835449 0.007904
vt 0.836426 0.008606
vt 0.836426 0.007904
vt 0.837402 0.007904
vt 0.838379 0.008606
vt 0.838379 0.007904
vt 0.839844 0.007904
vt 0.84082 0.008606
vt 0.84082 0.007904
vt 0.841797 0.007904
vt 0.841797 0.008606
vt 0.843262 0.008606
vt 0.843262 0.007904
vt 0.446533 0.011719
vt 0.44873 0.011719
vt 0.44751 0.010986
vt 0.44873 0.010986
vt 0.446533 0.010986
vt 0.449707 0.011719
vt 0.445312 0.010986
vt 0.449707 0.010986
vt 0.444336 0.011719
vt 0.451172 0.010986
vt 0.444336 0.010986
vt 0.450928 0.011719
vt 0.443359 0.010986
vt 0.453369 0.011719
vt 0.442139 0.011719
vt 0.453369 0.010986
vt 0.442139 0.010986
vt 0.45459 0.011719
vt 0.441162 0.010986
vt 0.45459 0.010986
vt 0.440186 0.011719
vt 0.455811 0.011719
vt 0.440186 0.010986
vt 0.455811 0.010986
vt 0.438965 0.010986
vt 0.456787 0.010986
vt 0.437988 0.011719
vt 0.458008 0.011719
vt 0.437988 0.010986
vt 0.458008 0.010986
vt 0.436768 0.011719
vt 0.458984 0.010986
vt 0.436768 0.010986
vt 0.436035 0.011719
vt 0.435791 0.010986
vt 0.459961 0.011719
vt 0.459961 0.010986
vt 0.461182 0.010986
vt 0.462158 0.011719
vt 0.462158 0.010986
vt 0.463135 0.010986
vt 0.464355 0.011719
vt 0.464355 0.010986
vt 0.465332 0.010986
vt 0.466553 0.011719
vt 0.466309 0.010986
vt 0.467529 0.010986
vt 0.467529 0.011719
vt 0.46875 0.011719
vt 0.46875 0.010986
vt 0.469971 0.010986
vt 0.469971 0.011719
vt 0.471191 0.010986
vt 0.471191 0.011719
vt 0.79834 0.002991
vt 0.79541 0.002991
vt 0.79541 0.003601
vt 0.79834 0.003601
vt 0.799805 0.002991
vt 0.799805 0.003601
vt 0.80127 0.002991
vt 0.80127 0.003601
vt 0.806152 0.002991
vt 0.806152 0.003601
vt 0.807617 0.003601
vt 0.807617 0.002991
vt 0.809082 0.003601
vt 0.809082 0.002991
vt 0.812012 0.003601
vt 0.812012 0.002991
vt 0.874023 0.916992
vt 0.87207 0.947754
vt 0.871094 0.946777
vt 0.871094 0.947754
vt 0.871094 0.948242
vt 0.870117 0.94873
vt 0.870117 0.948242
vt 0.870117 0.947754
vt 0.870117 0.946777
vt 0.870117 0.945801
vt 0.871094 0.945801
vt 0.871094 0.916992
vt 0.87207 0.916992
vt 0.870117 0.916992
vt 0.874512 0.914062
vt 0.874023 0.914062
vt 0.873047 0.914062
vt 0.872559 0.914062
vt 0.875488 0.914062
vt 0.873047 0.909668
vt 0.872559 0.909668
vt 0.874023 0.90918
vt 0.874023 0.909668
vt 0.875 0.90918
vt 0.874512 0.909668
vt 0.875488 0.909668
vt 0.875977 0.914062
vt 0.875977 0.909668
vn 0.361 -0.9126 0.192
vn 0.1171 -0.9819 0.1488
vn 0.1177 -0.9751 0.1878
vn 0.3692 -0.9245 0.095
vn 0.1191 -0.9921 0.0382
vn 0.5906 -0.7929 0.1499
vn 0.588 -0.7855 0.1929
vn 0.7828 -0.6148 0.0964
vn 0.3716 -0.9276 0.0392
vn 0.3749 -0.9268 -0.0207
vn 0.1193 -0.9927 -0.0177
vn 0.772 -0.6044 0.1968
vn 0.9088 -0.3893 0.1501
vn 0.5989 -0.7999 0.0394
vn 0.5992 -0.8003 -0.0194
vn 0.5479 -0.7278 -0.4126
vn 0.3359 -0.8507 -0.4043
vn 0.7855 -0.6174 0.0424
vn 0.7873 -0.6162 -0.0195
vn 0.9199 -0.3899 0.0423
vn 0.9025 -0.3862 0.1909
vn 0.9853 -0.1399 0.0981
vn 0.3155 -0.792 0.5227
vn 0.1079 -0.912 -0.3958
vn 0.1032 -0.8556 0.5073
vn 0.5071 -0.6766 0.5339
vn 0.3104 -0.7728 0.5536
vn 0.7198 -0.563 -0.4061
vn 0.9197 -0.3921 -0.0208
vn 0.8426 -0.3524 -0.4072
vn 0.9895 -0.1431 -0.0203
vn 0.6722 -0.5227 0.5243
vn 0.7914 -0.338 0.5094
vn 0.6597 -0.5099 0.552
vn 0.7746 -0.3294 0.5399
vn 0.836 -0.118 0.536
vn 0.9054 -0.1279 -0.4049
vn 0.9592 -0.2829 0
vn 0.9996 -0.0272 0.002
vn 0.9727 0.2323 0.0012
vn 0.972 0.235 0.0012
vn 0.8543 -0.5198 0
vn 0.8988 0.4383 0.0013
vn 0.8523 -0.523 0
vn 0.9034 0.4289 0.0013
vn 0.808 0.5892 -0.0014
vn 0.6882 -0.7255 0
vn 0.4772 -0.8788 0
vn 0.2334 -0.9724 0
vn 0.9782 -0.2075 0
vn 0.9879 -0.1553 0
vn 0.9878 0.1555 -0.0011
vn 0.9945 0.1043 0.0011
vn 0.972 0.235 -0.0012
vn 0.8988 0.4383 -0.0013
vn 0.1242 -0.4222 0.898
vn 0.2328 0.071 0.9699
vn -0.0246 -0.9624 0.2704
vn -0.0261 -0.9997 0
vn 0.1098 -0.9893 0.0958
vn 0.1197 -0.9906 0.0667
vn 0.494 -0.8644 0.0937
vn 0.4864 -0.8714 0.0639
vn 0.3017 -0.9208 0.2471
vn 0.7804 -0.6188 0.0903
vn 0.7857 -0.6151 0.066
vn 0.9615 -0.2669 0.0658
vn 0.8639 -0.438 0.2486
vn 0.9605 -0.2632 0.0899
vn 0.9908 0.1183 0.0654
vn 0.8428 -0.4292 0.3246
vn 0.2935 -0.8997 0.3231
vn 0.9893 0.111 0.0946
vn 0.922 0.2997 0.2452
vn 0.7298 -0.3682 0.576
vn 0.2486 -0.757 0.6043
vn 0.1604 -0.0802 0.9838
vn 0.863 0.4962 0.0953
vn 0.87 0.4886 0.0654
vn 0.7593 0.2468 0.6021
vn 0.3681 0.7313 0.5742
vn 0.8983 0.2955 0.3252
vn 0.4289 0.8437 0.3228
vn 0.4376 0.8646 0.2468
vn 0.6194 0.7797 0.0918
vn 0.2605 0.9612 0.0911
vn 0.6144 0.7863 0.0645
vn 0.2702 0.9604 0.0672
vn -0.0246 -0.9624 -0.2704
vn 0.1272 -0.4197 -0.8987
vn 0.2334 0.0736 -0.9696
vn 0.7235 -0.0325 0.6896
vn 0.9716 -0.0228 0.2357
vn 0.9565 -0.2724 0.1043
vn 0.7249 -0.0014 0.6889
vn 0.9722 0.201 0.1201
vn 0.9732 0.1931 -0.125
vn 0.9162 0.4008 0.0013
vn 0.9078 0.4195 0.0013
vn 0.808 0.5892 0.0014
vn 0.9716 -0.0228 -0.2357
vn 0.7249 -0.0014 -0.6889
vn 0.7235 -0.0325 -0.6896
vn 0.9565 -0.2724 -0.1043
vn 0.8425 -0.5387 0
vn 0.8465 -0.5324 0
vn 0.6739 -0.7388 0
vn 0.6797 -0.7335 0
vn 0 -0.001 -1
vn -0.2284 -0.9502 -0.2121
vn -0.1635 -0.9865 -0.0114
vn -0.1583 -0.9873 -0.0113
vn -0.2248 -0.9035 -0.3649
vn 0.1704 0.2795 -0.9449
vn 0.1857 0.2792 -0.9421
vn -0.1092 0.0032 -0.994
vn -0.1107 0.0164 -0.9937
vn -0.1104 0.0142 -0.9938
vn -0.1092 -0.0142 -0.9939
vn -0.109 -0.012 -0.994
vn 0.9892 -0.1408 0.0412
vn 0.9928 0.1182 -0.0188
vn 0.9921 0.1182 0.0417
vn 0.9718 -0.1386 0.1908
vn 0.9751 0.1164 0.189
vn 0.9815 0.1186 0.1503
vn 0.9242 0.3688 0.0994
vn 0.9128 0.3597 0.1935
vn 0.7909 0.5928 0.1516
vn 0.9267 0.3736 0.0406
vn 0.785 0.5892 0.1913
vn 0.6154 0.7821 0.0979
vn 0.6049 0.7711 0.1986
vn 0.3889 0.9092 0.1485
vn 0.8005 0.5979 0.0408
vn 0.9277 0.3729 -0.0194
vn 0.1359 0.972 0.1919
vn 0.1398 0.9854 0.0968
vn 0.3831 0.9035 0.1923
vn 0.141 0.9891 0.0424
vn 0.3926 0.9188 0.041
vn 0.6167 0.7861 0.0409
vn 0.3948 0.9186 -0.0195
vn 0.1408 0.9898 -0.0214
vn 0.7987 0.6014 -0.0208
vn 0.6169 0.7868 -0.0209
vn 0.7276 0.5494 -0.4108
vn 0.3595 0.8399 -0.4066
vn 0.1278 0.9061 -0.4032
vn 0.5633 0.7185 -0.408
vn 0.1238 0.8434 0.5229
vn 0.3379 0.7926 0.5076
vn 0.5235 0.6615 0.537
vn 0.6916 0.5174 0.504
vn 0.3327 0.7764 0.5353
vn 0.7835 0.3112 0.5378
vn 0.6736 0.509 0.5359
vn 0.5105 0.6487 0.5644
vn 0.6168 0.7871 -0.0014
vn 0.3945 0.9189 0.0013
vn 0.1405 0.9901 -0.0011
vn 0.1216 0.8247 0.5523
vn 0.8011 0.5985 -0.0014
vn 0.7671 0.3091 0.5621
vn 0.9291 0.3699 -0.0013
vn 0.8373 0.0994 0.5376
vn 0.9929 0.1185 0.0011
vn 0.9901 -0.1403 0
vn 0.818 -0.1187 0.5629
vn 0.9191 -0.3941 0
vn 0.7876 -0.6161 0
vn 0.5993 -0.8005 0
vn 0.4943 -0.6607 0.5649
vn 0.371 -0.9287 0
vn 0.0979 -0.8368 0.5387
vn 0.1196 -0.9928 0
vn 0.8561 0.1047 0.5062
vn 0.9116 0.1124 -0.3954
vn 0.849 0.3412 -0.4035
vn -0.2843 -0.9587 0
vn -0.5214 -0.8533 0
vn -0.7242 -0.6896 0
vn -0.8779 -0.4788 0
vn -0.9721 -0.2348 0
vn -0.9997 0.0251 -0.001
vn -0.967 0.2546 -0.0012
vn -0.9648 0.2631 -0.0012
vn -0.8957 0.4446 -0.0013
vn -0.8877 0.4604 -0.0013
vn -0.7799 0.6259 -0.0014
vn 0.1259 0.0658 0.9899
vn 0.115 0.1102 0.9872
vn 0.1259 0.0658 -0.9899
vn 0.1173 0.1078 -0.9872
vn 0.3418 0.5621 0.7532
vn 0.0856 0.2097 0.974
vn 0.051 0.179 0.9825
vn 0 -0.001 1
vn 0.0511 0.1817 -0.982
vn 0.0856 0.2097 -0.974
vn 0.3418 0.5621 -0.7532
vn -0.9813 -0.1211 0.1493
vn -0.9923 -0.1229 -0.0177
vn -0.9275 -0.3733 -0.0207
vn -0.992 -0.1203 0.0382
vn -0.9755 -0.1188 0.1851
vn -0.9238 -0.3709 0.0951
vn -0.9119 -0.3627 0.1921
vn -0.7891 -0.5956 0.15
vn -0.9269 -0.3731 0.0393
vn -0.7868 -0.5863 0.1929
vn -0.7987 -0.6004 0.0394
vn -0.6027 -0.7733 0.1968
vn -0.6164 -0.7815 0.0964
vn -0.7992 -0.6008 -0.0194
vn -0.7292 -0.5461 -0.4124
vn -0.6178 -0.7861 -0.0195
vn -0.5648 -0.7183 -0.4062
vn -0.3937 -0.919 -0.0209
vn -0.6158 -0.7867 0.0424
vn -0.3915 -0.9192 0.0423
vn -0.1419 -0.9897 -0.0203
vn -0.1421 -0.989 0.0413
vn -0.3844 -0.9032 0.1908
vn -0.1344 -0.9725 0.1902
vn -0.3876 -0.9096 0.1499
vn -0.1412 -0.9851 0.0982
vn 0.0108 0.9671 0.2541
vn 0.0127 0.982 0.1885
vn 0.0113 0.9991 0.04
vn 0.0111 0.9998 -0.0191
vn 0.009 0.919 -0.3942
vn 0.0095 0.8477 0.5303
vn 0.0096 0.8293 0.5588
vn 0.0109 0.9999 0.001
vn -0.7133 -0.7009 0
vn -0.7215 -0.6924 0
vn -0.8709 -0.4914 0
vn -0.9577 -0.2014 0.2054
vn -0.9247 0.03 0.3795
vn -0.729 0.0239 0.6841
vn -0.7314 0.053 0.6799
vn -0.9591 0.2832 -0.0012
vn -0.9454 0.2538 0.2044
vn -0.8794 0.4762 -0.0013
vn -0.8706 0.492 -0.0013
vn -0.9577 -0.2014 -0.2054
vn -0.9238 0.0274 -0.3818
vn -0.729 0.0239 -0.6841
vn -0.7314 0.053 -0.6799
vn -0.9454 0.2538 -0.2044
vn 0.2008 0.3047 0.931
vn 0.1776 0.2905 0.9403
vn 0.1776 0.2905 -0.9403
vn 0.2008 0.3047 -0.931
vn 0.5842 0.7339 -0.3466
vn 0.5925 0.7321 -0.336
vn 0.5925 0.7321 0.336
vn 0.5842 0.7339 0.3466
vn 0.1704 0.2795 0.9449
vn 0.1857 0.2792 0.9421
vn 0.3416 0.5585 -0.7559
vn 0.6174 0.7691 -0.1653
vn 0.6229 0.7653 -0.1622
vn 0.6174 0.7691 0.1653
vn 0.6229 0.7653 0.1622
vn 0.3416 0.5585 0.7559
vn 0.0765 0.9951 0.0632
vn 0.0745 0.9915 0.1066
vn 0.0736 0.9696 0.2334
vn 0.0712 0.9508 0.3014
vn 0.064 0.8172 0.5728
vn -0.37 -0.7286 0.5763
vn -0.7579 -0.2469 0.6038
vn -0.4311 -0.8418 0.3249
vn -0.899 -0.2952 0.3234
vn -0.7313 0.3681 0.5742
vn -0.4266 0.2155 0.8784
vn -0.5322 0.6235 0.5728
vn -0.6192 0.7254 0.3008
vn -0.4398 -0.863 0.2487
vn -0.8437 0.4289 0.3228
vn -0.6098 0.7596 0.2262
vn -0.9215 -0.3 0.2469
vn -0.8646 0.4376 0.2468
vn -0.2617 -0.961 0.0898
vn -0.2684 -0.961 0.0658
vn -0.6172 -0.7816 0.0902
vn -0.6167 -0.7845 0.066
vn -0.8686 -0.4914 0.064
vn -0.8635 -0.4956 0.0937
vn -0.9907 -0.1184 0.0667
vn -0.9895 -0.1085 0.0957
vn -0.9603 0.2635 0.0913
vn -0.9608 0.2696 0.0646
vn -0.7797 0.6194 0.0918
vn -0.7838 0.6176 0.0645
vn -0.4886 0.87 0.0654
vn -0.4962 0.863 0.0953
vn -0.3086 0.9491 0.0633
vn -0.3097 0.9475 0.0797
vn -0.1264 -0.9058 -0.4044
vn -0.1195 -0.8354 0.5365
vn -0.3579 -0.8398 -0.4081
vn -0.337 -0.7848 0.52
vn -0.1203 -0.8173 0.5635
vn -0.1416 -0.9899 0
vn -0.3318 -0.7682 0.5476
vn -0.3956 -0.9184 0
vn -0.5188 -0.6552 0.5491
vn -0.6176 -0.7865 0
vn -0.7993 -0.6009 0
vn -0.6751 -0.5055 0.5374
vn -0.9293 -0.3694 0
vn -0.5281 -0.6677 0.5247
vn -0.6901 -0.5176 0.5058
vn -0.7685 -0.309 0.5603
vn -0.993 -0.1184 0
vn -0.7834 -0.3181 0.534
vn -0.8363 -0.0995 0.5392
vn -0.826 0.1184 0.5511
vn -0.9901 0.1405 -0.0011
vn -0.9189 0.3945 -0.0013
vn -0.762 0.327 0.559
vn -0.6583 0.5169 0.5472
vn -0.7871 0.6168 -0.0014
vn -0.7785 0.329 0.5345
vn -0.6015 0.7988 -0.0014
vn -0.5054 0.6766 0.5356
vn -0.3699 0.9291 0.0013
vn -0.8445 0.1206 0.5218
vn -0.8561 -0.1016 0.5068
vn -0.8377 0.3568 -0.4134
vn -0.6676 0.5331 0.5197
vn -0.7185 0.5633 -0.408
vn -0.9061 0.1278 -0.4032
vn -0.9109 -0.1066 -0.3987
vn -0.9898 0.1408 -0.0214
vn -0.8498 -0.3377 -0.4047
vn -0.9892 0.1407 0.04
vn -0.9195 0.3926 -0.0222
vn -0.7868 0.6169 -0.0209
vn -0.7861 0.6167 0.0409
vn -0.6014 0.7987 -0.0208
vn -0.5446 0.7355 -0.4031
vn -0.1123 0.9936 -0.0098
vn -0.1853 0.951 -0.2476
vn -0.1811 0.9608 -0.2101
vn -0.1078 0.9941 -0.012
vn -0.1735 0.3123 -0.934
vn -0.1861 0.3149 -0.9307
vn -0.5486 0.7757 -0.3119
vn -0.5577 0.7719 -0.3052
vn -0.5613 0.7692 0.3054
vn -0.5486 0.7757 0.3119
vn -0.1782 0.297 0.9381
vn -0.1663 0.3011 0.939
vn -0.0816 0.1022 0.9914
vn -0.1102 0.115 0.9872
vn -0.1004 0.1536 0.983
vn -0.0968 0.1777 0.9793
vn -0.1782 0.297 -0.9381
vn -0.1663 0.3011 -0.939
vn -0.5577 0.7719 0.3052
vn -0.1861 0.3149 0.9307
vn -0.1735 0.3123 0.934
vn -0.0936 0.0983 -0.9907
vn -0.1013 0.1323 -0.986
vn -0.1034 0.1594 -0.9818
vn -0.0824 0.154 -0.9846
vn -0.0036 0.9691 -0.2467
vn 0.0251 0.9997 -0.001
vn -0.0862 0.7117 -0.6971
vn -0.2953 0.573 -0.7645
vn -0.3315 0.5741 -0.7487
vn -0.5723 0.7999 -0.1806
vn -0.5769 0.798 -0.1741
vn -0.5723 0.7999 0.1806
vn -0.5769 0.798 0.1741
vn -0.3315 0.5741 0.7487
vn -0.2953 0.573 0.7645
vn -0.0862 0.7117 0.6971
vn -0.0036 0.9698 0.2439
vn 0.0251 0.9997 0.001
vn -0.9188 0.3926 0.041
vn -0.5174 0.6916 0.504
vn -0.3375 0.8508 -0.4028
vn -0.3206 0.7928 0.5184
vn -0.3119 0.7757 0.5486
vn -0.249 0.9685 0.0012
vn -0.2071 0.8023 0.5599
vn -0.2092 0.8199 0.5329
vn -0.226 0.8907 -0.3944
vn -0.2473 0.9688 -0.0181
vn -0.3698 0.9289 -0.0193
vn -0.3736 0.9267 0.0406
vn -0.5979 0.8005 0.0408
vn -0.2461 0.9685 0.038
vn -0.7711 0.6049 0.1986
vn -0.5892 0.785 0.1913
vn -0.3631 0.9114 0.1938
vn -0.2412 0.9527 0.1846
vn -0.9035 0.3831 0.1923
vn -0.3713 0.9235 0.0966
vn -0.2467 0.9683 0.0405
vn -0.5928 0.7909 0.1516
vn -0.7821 0.6154 0.0979
vn -0.9092 0.3889 0.1485
vn -0.9715 0.1388 0.1923
vn -0.9854 0.1398 0.0968
o bullet05__p0_c0
f 1/1/1 2/2/2 3/3/3
f 2/2/2 1/1/1 4/4/4
f 1/1/1 3/3/3 5/5/5
f 4/4/4 1/1/1 6/6/6
f 6/6/6 1/1/1 7/7/7
f 6/6/6 7/7/7 8/8/8
f 1/1/1 5/5/5 9/9/9
f 1/1/1 9/9/9 7/7/7
f 9/9/9 5/5/5 10/10/10
f 10/10/10 5/5/5 11/11/11
f 8/8/8 7/7/7 12/12/12
f 8/8/8 12/12/12 13/13/13
f 7/7/7 9/9/9 14/14/14
f 7/7/7 14/14/14 12/12/12
f 9/9/9 10/10/10 15/15/15
f 9/9/9 15/15/15 14/14/14
f 15/15/15 10/10/10 16/16/16
f 16/16/16 10/10/10 17/17/17
f 14/14/14 15/15/15 18/18/18
f 14/14/14 18/18/18 12/12/12
f 18/18/18 15/15/15 19/19/19
f 19/19/19 15/15/15 16/16/16
f 12/12/12 18/18/18 20/20/20
f 20/20/20 18/18/18 19/19/19
f 21/21/21 13/13/13 12/12/12
f 21/21/21 12/12/12 20/20/20
f 13/13/13 21/21/21 22/22/22
f 23/23/23 16/16/16 17/17/17
f 23/23/23 17/17/17 24/24/24
f 23/23/23 24/24/24 25/25/25
f 16/16/16 23/23/23 26/26/26
f 26/26/26 23/23/23 27/27/27
f 28/28/28 19/19/19 16/16/16
f 28/28/28 16/16/16 26/26/26
f 19/19/19 28/28/28 29/29/29
f 19/19/19 29/29/29 20/20/20
f 29/29/29 28/28/28 30/30/30
f 20/20/20 29/29/29 31/31/31
f 31/31/31 29/29/29 30/30/30
f 28/28/28 26/26/26 32/32/32
f 28/28/28 32/32/32 30/30/30
f 30/30/30 32/32/32 33/33/33
f 32/32/32 26/26/26 34/34/34
f 33/33/33 32/32/32 35/35/35
f 35/35/35 32/32/32 34/34/34
f 30/30/30 33/33/33 36/36/36
f 36/36/36 33/33/33 35/35/35
f 37/37/37 31/31/31 30/30/30
f 37/37/37 30/30/30 36/36/36
f 38/38/38 39/39/39 40/40/39
f 40/40/39 39/39/39 41/41/40
f 39/39/39 38/38/38 42/42/38
f 41/41/40 39/39/39 43/43/41
f 42/42/38 38/38/38 44/44/42
f 41/41/40 43/43/41 45/45/43
f 42/42/38 44/44/42 46/46/44
f 45/45/43 43/43/41 47/47/45
f 45/45/43 47/47/45 48/48/46
f 48/48/46 47/47/45 49/49/46
f 46/46/44 44/44/42 50/50/47
f 46/46/44 50/50/47 51/51/47
f 51/51/47 50/50/47 52/52/48
f 51/51/47 52/52/48 53/53/48
f 53/53/48 52/52/48 54/54/49
f 54/54/49 52/52/48 55/55/49
f 56/56/39 57/57/50 58/58/51
f 57/57/50 56/56/39 59/59/39
f 57/57/50 59/59/39 60/60/38
f 57/57/50 60/60/38 61/61/42
f 59/59/39 56/56/39 62/62/52
f 62/62/52 56/56/39 63/63/53
f 59/59/39 62/62/52 64/64/54
f 61/61/42 60/60/38 65/65/44
f 64/64/54 62/62/52 66/66/55
f 61/61/42 65/65/44 67/67/47
f 64/64/54 66/66/55 68/68/45
f 68/68/45 66/66/55 69/69/46
f 68/68/45 69/69/46 70/70/46
f 67/67/47 65/65/44 71/71/47
f 67/67/47 71/71/47 72/72/48
f 67/67/47 72/72/48 73/73/48
f 73/73/48 72/72/48 74/74/49
f 73/73/48 74/74/49 75/75/49
f 76/76/56 77/77/57 78/78/58
f 76/76/56 78/78/58 79/79/59
f 79/79/59 78/78/58 80/80/59
f 81/81/60 82/82/61 83/83/62
f 83/83/62 82/82/61 84/84/63
f 81/81/60 83/83/62 85/85/64
f 83/83/62 84/84/63 86/86/65
f 86/86/65 84/84/63 87/87/66
f 86/86/65 87/87/66 88/88/67
f 83/83/62 86/86/65 89/89/68
f 83/83/62 89/89/68 85/85/64
f 86/86/65 88/88/67 90/90/69
f 86/86/65 90/90/69 89/89/68
f 90/90/69 88/88/67 91/91/70
f 85/85/64 89/89/68 92/92/71
f 85/85/64 92/92/71 93/93/72
f 89/89/68 90/90/69 94/94/73
f 94/94/73 90/90/69 91/91/70
f 92/92/71 89/89/68 95/95/74
f 95/95/74 89/89/68 94/94/73
f 93/93/72 92/92/71 96/96/75
f 93/93/72 96/96/75 97/97/76
f 97/97/76 96/96/75 98/98/77
f 94/94/73 91/91/70 99/99/78
f 94/94/73 99/99/78 95/95/74
f 99/99/78 91/91/70 100/100/79
f 98/98/77 96/96/75 101/101/80
f 98/98/77 101/101/80 102/102/81
f 101/101/80 96/96/75 103/103/82
f 101/101/80 103/103/82 102/102/81
f 103/103/82 96/96/75 92/92/71
f 103/103/82 92/92/71 95/95/74
f 102/102/81 103/103/82 104/104/83
f 104/104/83 103/103/82 95/95/74
f 104/104/83 95/95/74 105/105/84
f 105/105/84 95/95/74 99/99/78
f 105/105/84 99/99/78 106/106/85
f 106/106/85 99/99/78 100/100/79
f 105/105/84 106/106/85 107/107/86
f 106/106/85 100/100/79 108/108/87
f 107/107/86 106/106/85 109/109/88
f 109/109/88 106/106/85 108/108/87
f 110/110/59 111/111/89 112/112/59
f 112/112/59 111/111/89 113/113/90
f 113/113/90 111/111/89 114/114/91
f 110/115/92 115/116/93 111/117/94
f 115/116/93 110/115/92 116/118/95
f 115/116/93 116/118/95 117/119/96
f 115/116/93 117/119/96 118/120/97
f 118/120/97 117/119/96 119/121/98
f 118/120/97 119/121/98 120/122/99
f 120/122/99 119/121/98 121/123/46
f 121/123/46 119/121/98 122/124/100
f 115/116/93 118/120/97 123/125/101
f 115/116/93 123/125/101 111/117/94
f 123/125/101 118/120/97 124/126/102
f 123/125/101 124/126/102 80/127/103
f 123/125/101 80/127/103 78/128/104
f 123/125/101 78/128/104 111/117/94
f 111/117/94 78/128/104 77/129/105
f 111/117/94 77/129/105 114/130/106
f 114/130/106 77/129/105 125/131/107
f 125/131/107 77/129/105 126/132/108
f 125/131/107 126/132/108 127/133/48
f 125/131/107 127/133/48 128/134/48
f 128/134/48 127/133/48 129/135/49
f 128/134/48 129/135/49 130/136/49
f 131/137/109 132/138/109 133/139/109
f 132/138/109 131/137/109 134/140/109
f 134/140/109 131/137/109 135/141/109
f 134/140/109 135/141/109 136/142/109
f 134/140/109 136/142/109 137/143/109
f 137/143/109 136/142/109 138/144/109
f 137/143/109 138/144/109 139/145/109
f 139/145/109 138/144/109 140/146/109
f 140/146/109 138/144/109 141/147/109
f 140/146/109 141/147/109 142/148/109
f 142/148/109 141/147/109 143/149/109
f 142/148/109 143/149/109 144/150/109
f 142/148/109 144/150/109 145/151/109
f 145/151/109 144/150/109 146/152/109
f 145/151/109 146/152/109 147/153/109
f 147/153/109 146/152/109 148/154/109
f 147/153/109 148/154/109 149/155/109
f 149/155/109 148/154/109 150/156/109
f 150/156/109 148/154/109 151/157/109
f 150/156/109 151/157/109 152/158/109
f 150/156/109 152/158/109 153/159/109
f 153/159/109 152/158/109 154/160/109
f 57/161/110 155/162/111 58/163/112
f 155/162/111 57/161/110 156/164/113
f 156/164/113 57/161/110 61/165/109
f 156/164/113 61/165/109 157/166/109
f 157/166/109 61/165/109 67/167/109
f 157/166/109 67/167/109 73/168/109
f 157/166/109 73/168/109 158/169/109
f 158/169/109 73/168/109 75/170/109
f 158/169/109 75/170/109 159/171/109
f 158/169/109 159/171/109 160/172/109
f 160/172/109 159/171/109 161/173/109
f 160/172/109 161/173/109 162/174/109
f 160/172/109 162/174/109 163/175/109
f 163/175/109 162/174/109 164/176/109
f 163/175/109 164/176/109 165/177/109
f 163/175/109 165/177/109 166/178/109
f 166/178/109 165/177/109 167/179/109
f 166/178/109 167/179/109 168/180/109
f 166/178/109 168/180/109 169/181/109
f 169/181/109 168/180/109 170/182/109
f 169/181/109 170/182/109 171/183/114
f 169/181/109 171/183/114 172/184/115
f 56/185/116 58/186/117 173/187/116
f 173/187/116 58/186/117 155/188/118
f 56/185/116 173/187/116 63/189/119
f 63/189/119 173/187/116 174/190/120
f 175/191/121 20/20/20 31/31/31
f 20/20/20 175/191/121 21/21/21
f 176/192/122 31/31/31 37/37/37
f 175/191/121 31/31/31 177/193/123
f 177/193/123 31/31/31 176/192/122
f 21/21/21 175/191/121 178/194/124
f 178/194/124 175/191/121 177/193/123
f 21/21/21 178/194/124 22/22/22
f 22/22/22 178/194/124 179/195/125
f 179/195/125 178/194/124 177/193/123
f 22/22/22 179/195/125 180/196/126
f 180/196/126 179/195/125 181/197/127
f 181/197/127 179/195/125 182/198/128
f 182/198/128 179/195/125 177/193/123
f 181/197/127 182/198/128 183/199/129
f 182/198/128 177/193/123 184/200/130
f 184/200/130 177/193/123 176/192/122
f 183/199/129 182/198/128 185/201/131
f 185/201/131 182/198/128 184/200/130
f 183/199/129 185/201/131 186/202/132
f 186/202/132 185/201/131 187/203/133
f 186/202/132 187/203/133 188/204/134
f 185/201/131 184/200/130 189/205/135
f 185/201/131 189/205/135 187/203/133
f 184/200/130 176/192/122 190/206/136
f 191/207/137 192/208/138 188/204/134
f 191/207/137 188/204/134 193/209/139
f 193/209/139 188/204/134 187/203/133
f 191/207/137 193/209/139 194/210/140
f 193/209/139 187/203/133 195/211/141
f 193/209/139 195/211/141 194/210/140
f 195/211/141 187/203/133 196/212/142
f 196/212/142 187/203/133 189/205/135
f 194/210/140 195/211/141 197/213/143
f 197/213/143 195/211/141 196/212/142
f 194/210/140 197/213/143 198/214/144
f 196/212/142 189/205/135 199/215/145
f 199/215/145 189/205/135 184/200/130
f 199/215/145 184/200/130 190/206/136
f 196/212/142 199/215/145 200/216/146
f 196/212/142 200/216/146 197/213/143
f 199/215/145 190/206/136 201/217/147
f 199/215/145 201/217/147 200/216/146
f 202/218/148 198/214/144 197/213/143
f 198/214/144 202/218/148 203/219/149
f 197/213/143 200/216/146 204/220/150
f 197/213/143 204/220/150 202/218/148
f 204/220/150 200/216/146 201/217/147
f 203/219/149 202/218/148 205/221/151
f 205/221/151 202/218/148 206/222/152
f 206/222/152 202/218/148 207/223/153
f 207/223/153 202/218/148 204/220/150
f 204/220/150 201/217/147 208/224/154
f 204/220/150 208/224/154 207/223/153
f 206/222/152 207/223/153 209/225/155
f 208/224/154 201/217/147 210/226/156
f 207/223/153 208/224/154 211/227/157
f 211/227/157 208/224/154 210/226/156
f 207/223/153 211/227/157 212/228/158
f 207/223/153 212/228/158 209/225/155
f 212/228/158 211/227/157 148/229/159
f 212/228/158 148/229/159 209/225/155
f 209/225/155 148/229/159 146/230/160
f 209/225/155 146/230/160 144/231/161
f 209/225/155 144/231/161 213/232/162
f 148/229/159 211/227/157 151/233/163
f 151/233/163 211/227/157 214/234/164
f 214/234/164 211/227/157 210/226/156
f 151/233/163 214/234/164 152/235/165
f 152/235/165 214/234/164 215/236/166
f 215/236/166 214/234/164 210/226/156
f 152/235/165 215/236/166 154/237/167
f 154/237/167 215/236/166 153/238/168
f 153/238/168 215/236/166 216/239/169
f 153/238/168 216/239/169 35/35/35
f 153/238/168 35/35/35 150/240/170
f 35/35/35 216/239/169 36/36/36
f 36/36/36 216/239/169 215/236/166
f 150/240/170 35/35/35 34/34/34
f 150/240/170 34/34/34 149/241/171
f 149/241/171 34/34/34 147/242/172
f 147/242/172 34/34/34 217/243/173
f 217/243/173 34/34/34 26/26/26
f 147/242/172 217/243/173 145/244/174
f 217/243/173 26/26/26 27/27/27
f 217/243/173 27/27/27 145/244/174
f 145/244/174 27/27/27 218/245/175
f 145/244/174 218/245/175 142/246/176
f 219/247/177 36/36/36 215/236/166
f 219/247/177 215/236/166 210/226/156
f 36/36/36 219/247/177 220/248/178
f 36/36/36 220/248/178 37/37/37
f 37/37/37 220/248/178 176/192/122
f 220/248/178 219/247/177 221/249/179
f 220/248/178 221/249/179 176/192/122
f 221/249/179 219/247/177 210/226/156
f 176/192/122 221/249/179 190/206/136
f 221/249/179 210/226/156 201/217/147
f 221/249/179 201/217/147 190/206/136
f 130/136/49 129/135/49 222/250/59
f 130/136/49 222/250/59 223/251/59
f 223/251/59 222/250/59 224/252/180
f 223/251/59 224/252/180 225/253/180
f 225/253/180 224/252/180 226/254/181
f 226/254/181 224/252/180 227/255/181
f 226/254/181 227/255/181 228/256/182
f 228/256/182 227/255/181 229/257/182
f 228/256/182 229/257/182 230/258/183
f 228/256/182 230/258/183 231/259/183
f 231/259/183 230/258/183 232/260/184
f 232/260/184 230/258/183 233/261/184
f 232/260/184 233/261/184 234/262/185
f 232/260/184 234/262/185 235/263/185
f 235/263/185 234/262/185 236/264/186
f 235/263/185 236/264/186 237/265/187
f 237/265/187 236/264/186 238/266/188
f 238/266/188 236/264/186 239/267/189
f 238/266/188 239/267/189 240/268/190
f 238/266/188 240/268/190 241/269/190
f 242/270/191 126/271/192 77/77/57
f 242/270/191 77/77/57 76/76/56
f 113/113/90 114/114/91 243/272/193
f 243/272/193 114/114/91 125/273/194
f 244/274/195 236/275/196 245/276/197
f 245/276/197 236/275/196 234/277/198
f 245/276/197 234/277/198 246/278/198
f 246/278/198 234/277/198 233/279/198
f 246/278/198 233/279/198 230/280/198
f 246/278/198 230/280/198 247/281/198
f 247/281/198 230/280/198 229/282/198
f 247/281/198 229/282/198 227/283/198
f 247/281/198 227/283/198 248/284/198
f 248/284/198 227/283/198 224/285/198
f 248/284/198 224/285/198 222/286/198
f 248/284/198 222/286/198 249/287/198
f 249/287/198 222/286/198 129/288/198
f 249/287/198 129/288/198 127/289/198
f 249/287/198 127/289/198 242/270/191
f 242/270/191 127/289/198 126/271/192
f 243/272/193 125/273/194 128/290/109
f 243/272/193 128/290/109 250/291/109
f 250/291/109 128/290/109 130/292/109
f 250/291/109 130/292/109 223/293/109
f 250/291/109 223/293/109 251/294/109
f 251/294/109 223/293/109 225/295/109
f 251/294/109 225/295/109 226/296/109
f 251/294/109 226/296/109 252/297/109
f 252/297/109 226/296/109 228/298/109
f 252/297/109 228/298/109 231/299/109
f 252/297/109 231/299/109 253/300/109
f 253/300/109 231/299/109 232/301/109
f 253/300/109 232/301/109 235/302/109
f 253/300/109 235/302/109 254/303/199
f 254/303/199 235/302/109 237/304/200
f 254/303/199 237/304/200 255/305/201
f 256/306/202 257/307/198 258/308/198
f 259/309/203 260/310/204 261/311/205
f 262/312/206 263/313/207 256/306/202
f 256/306/202 263/313/207 257/307/198
f 264/314/208 262/312/206 261/311/205
f 262/312/206 264/314/208 263/313/207
f 257/307/198 263/313/207 265/315/209
f 265/315/209 263/313/207 264/314/208
f 257/307/198 265/315/209 266/316/198
f 264/314/208 261/311/205 267/317/210
f 267/317/210 261/311/205 260/310/204
f 265/315/209 264/314/208 268/318/211
f 268/318/211 264/314/208 267/317/210
f 268/318/211 267/317/210 269/319/212
f 269/319/212 267/317/210 260/310/204
f 265/315/209 268/318/211 270/320/213
f 270/320/213 268/318/211 269/319/212
f 271/321/214 266/316/198 265/315/209
f 271/321/214 265/315/209 270/320/213
f 269/319/212 260/310/204 272/322/215
f 272/322/215 260/310/204 273/323/216
f 272/322/215 273/323/216 274/324/217
f 272/322/215 274/324/217 269/319/212
f 274/324/217 273/323/216 275/325/218
f 274/324/217 275/325/218 276/326/219
f 269/319/212 274/324/217 277/327/220
f 277/327/220 274/324/217 276/326/219
f 269/319/212 277/327/220 270/320/213
f 277/327/220 276/326/219 278/328/221
f 277/327/220 278/328/221 270/320/213
f 278/328/221 276/326/219 279/329/222
f 278/328/221 279/329/222 280/330/223
f 280/330/223 279/329/222 5/5/5
f 270/320/213 278/328/221 281/331/224
f 281/331/224 278/328/221 280/330/223
f 270/320/213 281/331/224 271/321/214
f 280/330/223 5/5/5 282/332/225
f 280/330/223 282/332/225 281/331/224
f 282/332/225 5/5/5 3/3/3
f 271/321/214 281/331/224 283/333/226
f 283/333/226 281/331/224 282/332/225
f 271/321/214 283/333/226 266/316/198
f 266/316/198 283/333/226 284/334/198
f 283/333/226 282/332/225 285/335/227
f 283/333/226 285/335/227 284/334/198
f 282/332/225 3/3/3 2/2/2
f 282/332/225 2/2/2 285/335/227
f 285/335/227 2/2/2 284/334/198
f 284/334/198 2/2/2 286/336/198
f 286/336/198 2/2/2 4/4/4
f 286/336/198 4/4/4 6/6/6
f 286/336/198 6/6/6 287/337/198
f 287/337/198 6/6/6 8/8/8
f 287/337/198 8/8/8 13/13/13
f 287/337/198 13/13/13 288/338/198
f 288/338/198 13/13/13 22/22/22
f 288/338/198 22/22/22 180/196/126
f 288/338/198 180/196/126 289/339/198
f 289/339/198 180/196/126 181/197/127
f 289/339/198 181/197/127 183/199/129
f 289/339/198 183/199/129 290/340/198
f 290/340/198 183/199/129 186/202/132
f 290/340/198 186/202/132 188/204/134
f 290/340/198 188/204/134 291/341/198
f 291/341/198 188/204/134 192/208/138
f 291/341/198 192/208/138 292/342/228
f 291/341/198 292/342/228 293/343/198
f 292/342/228 192/208/138 294/344/229
f 294/344/229 192/208/138 191/207/137
f 294/344/229 191/207/137 295/345/230
f 295/345/230 191/207/137 194/210/140
f 295/345/230 194/210/140 296/346/231
f 296/346/231 194/210/140 198/214/144
f 296/346/231 198/214/144 203/219/149
f 296/346/231 203/219/149 297/347/232
f 297/347/232 203/219/149 298/348/233
f 298/348/233 203/219/149 205/221/151
f 209/225/155 205/221/151 206/222/152
f 205/221/151 209/225/155 213/232/162
f 205/221/151 213/232/162 298/348/233
f 298/348/233 213/232/162 299/349/234
f 299/349/234 213/232/162 143/350/235
f 143/350/235 213/232/162 144/231/161
f 54/54/49 55/55/49 300/351/59
f 54/54/49 300/351/59 301/352/59
f 301/352/59 300/351/59 302/353/180
f 301/352/59 302/353/180 303/354/180
f 303/354/180 302/353/180 304/355/181
f 303/354/180 304/355/181 305/356/181
f 305/356/181 304/355/181 306/357/236
f 306/357/236 304/355/181 307/358/237
f 306/357/236 307/358/237 308/359/238
f 308/359/238 307/358/237 309/360/183
f 308/359/238 309/360/183 79/361/239
f 79/361/239 309/360/183 310/362/184
f 79/361/239 310/362/184 311/363/185
f 79/361/239 311/363/185 312/364/240
f 79/361/239 312/364/240 76/365/241
f 76/365/241 312/364/240 313/366/242
f 312/364/240 311/363/185 314/367/243
f 313/366/242 312/364/240 315/368/244
f 315/368/244 312/364/240 314/367/243
f 315/368/244 314/367/243 316/369/245
f 315/368/244 316/369/245 317/370/246
f 317/370/246 316/369/245 318/371/190
f 318/371/190 316/369/245 319/372/190
f 75/75/49 74/74/49 159/373/59
f 159/373/59 74/74/49 320/374/59
f 159/373/59 320/374/59 161/375/180
f 161/375/180 320/374/59 321/376/180
f 161/375/180 321/376/180 162/377/181
f 162/377/181 321/376/180 322/378/181
f 162/377/181 322/378/181 164/379/237
f 164/379/237 322/378/181 323/380/236
f 164/379/237 323/380/236 324/381/238
f 164/379/237 324/381/238 165/382/183
f 165/382/183 324/381/238 112/383/247
f 165/382/183 112/383/247 167/384/184
f 167/384/184 112/383/247 168/385/185
f 168/385/185 112/383/247 325/386/248
f 325/386/248 112/383/247 113/387/249
f 325/386/248 113/387/249 326/388/250
f 325/386/248 326/388/250 327/389/251
f 325/386/248 327/389/251 168/385/185
f 168/385/185 327/389/251 170/390/243
f 170/390/243 327/389/251 171/391/245
f 171/391/245 327/389/251 328/392/246
f 171/391/245 328/392/246 329/393/190
f 171/391/245 329/393/190 330/394/190
f 331/395/252 328/396/253 116/397/198
f 116/397/198 328/396/253 327/398/198
f 317/399/254 332/400/255 124/401/109
f 317/399/254 124/401/109 315/402/109
f 172/184/115 171/183/114 330/403/256
f 172/184/115 330/403/256 333/404/257
f 333/404/257 330/403/256 334/405/258
f 334/405/258 330/403/256 329/406/259
f 334/405/258 329/406/259 331/395/252
f 331/395/252 329/406/259 328/396/253
f 316/407/260 335/408/261 319/409/259
f 319/409/259 335/408/261 336/410/258
f 319/409/259 336/410/258 318/411/256
f 318/411/256 336/410/258 337/412/257
f 318/411/256 337/412/257 332/400/255
f 318/411/256 332/400/255 317/399/254
f 255/305/201 237/304/200 238/413/262
f 255/305/201 238/413/262 241/414/263
f 255/305/201 241/414/263 338/415/264
f 338/415/264 241/414/263 240/416/265
f 338/415/264 240/416/265 339/417/266
f 339/417/266 240/416/265 244/274/195
f 244/274/195 240/416/265 239/418/267
f 244/274/195 239/418/267 236/275/196
f 107/107/86 109/109/88 340/419/268
f 107/107/86 340/419/268 341/420/269
f 107/107/86 341/420/269 105/105/84
f 105/105/84 341/420/269 342/421/270
f 105/105/84 342/421/270 104/104/83
f 104/104/83 342/421/270 343/422/271
f 104/104/83 343/422/271 102/102/81
f 102/102/81 343/422/271 344/423/272
f 102/102/81 344/423/272 98/98/77
f 345/424/273 97/97/76 98/98/77
f 97/97/76 345/424/273 93/93/72
f 345/424/273 98/98/77 346/425/274
f 93/93/72 345/424/273 347/426/275
f 93/93/72 347/426/275 85/85/64
f 345/424/273 346/425/274 348/427/276
f 345/424/273 348/427/276 347/426/275
f 348/427/276 346/425/274 349/428/277
f 349/428/277 346/425/274 98/429/278
f 349/428/277 98/429/278 344/430/279
f 349/428/277 344/430/279 343/431/280
f 85/85/64 347/426/275 350/432/281
f 349/428/277 343/431/280 351/433/282
f 349/428/277 351/433/282 348/427/276
f 351/433/282 343/431/280 342/434/283
f 352/435/284 347/426/275 348/427/276
f 352/435/284 348/427/276 351/433/282
f 347/426/275 352/435/284 350/432/281
f 85/85/64 350/432/281 81/81/60
f 351/433/282 342/434/283 353/436/285
f 351/433/282 353/436/285 352/435/284
f 81/81/60 350/432/281 354/437/286
f 81/81/60 354/437/286 82/82/61
f 82/82/61 354/437/286 355/438/287
f 355/438/287 354/437/286 356/439/288
f 356/439/288 354/437/286 350/432/281
f 355/438/287 356/439/288 357/440/289
f 357/440/289 356/439/288 358/441/290
f 356/439/288 350/432/281 359/442/291
f 356/439/288 359/442/291 358/441/290
f 359/442/291 350/432/281 352/435/284
f 358/441/290 359/442/291 360/443/292
f 359/442/291 352/435/284 361/444/293
f 359/442/291 361/444/293 360/443/292
f 361/444/293 352/435/284 353/436/285
f 360/443/292 361/444/293 362/445/294
f 362/445/294 361/444/293 353/436/285
f 360/443/292 362/445/294 363/446/295
f 363/446/295 362/445/294 364/447/296
f 364/447/296 362/445/294 353/436/285
f 363/446/295 364/447/296 365/448/297
f 365/448/297 364/447/296 366/449/298
f 364/447/296 353/436/285 367/450/299
f 364/447/296 367/450/299 366/449/298
f 367/450/299 353/436/285 342/434/283
f 366/449/298 367/450/299 340/451/300
f 367/450/299 342/434/283 341/452/301
f 367/450/299 341/452/301 340/451/300
f 10/10/10 11/11/11 17/17/17
f 17/17/17 11/11/11 24/24/24
f 24/24/24 11/11/11 368/453/302
f 368/453/302 11/11/11 279/329/222
f 24/24/24 368/453/302 369/454/303
f 279/329/222 11/11/11 5/5/5
f 24/24/24 369/454/303 25/25/25
f 368/453/302 279/329/222 370/455/304
f 368/453/302 370/455/304 371/456/305
f 368/453/302 371/456/305 369/454/303
f 370/455/304 279/329/222 276/326/219
f 25/25/25 369/454/303 218/245/175
f 25/25/25 218/245/175 23/23/23
f 23/23/23 218/245/175 27/27/27
f 218/245/175 369/454/303 372/457/306
f 218/245/175 372/457/306 140/458/307
f 218/245/175 140/458/307 142/246/176
f 372/457/306 369/454/303 373/459/308
f 372/457/306 373/459/308 140/458/307
f 373/459/308 369/454/303 371/456/305
f 140/458/307 373/459/308 139/460/309
f 139/460/309 373/459/308 374/461/310
f 374/461/310 373/459/308 371/456/305
f 139/460/309 374/461/310 137/462/311
f 137/462/311 374/461/310 134/463/312
f 134/463/312 374/461/310 375/464/313
f 134/463/312 375/464/313 132/465/314
f 374/461/310 371/456/305 376/466/315
f 374/461/310 376/466/315 375/464/313
f 376/466/315 371/456/305 275/325/218
f 275/325/218 371/456/305 370/455/304
f 375/464/313 376/466/315 377/467/316
f 275/325/218 370/455/304 276/326/219
f 132/465/314 375/464/313 378/468/317
f 132/465/314 378/468/317 133/469/318
f 375/464/313 377/467/316 379/470/319
f 375/464/313 379/470/319 378/468/317
f 377/467/316 376/466/315 273/323/216
f 273/323/216 376/466/315 275/325/218
f 377/467/316 273/323/216 379/470/319
f 133/469/318 378/468/317 380/471/320
f 380/471/320 378/468/317 379/470/319
f 133/469/318 380/471/320 381/472/321
f 133/469/318 381/472/321 131/473/322
f 131/473/322 381/472/321 135/474/323
f 135/474/323 381/472/321 382/475/324
f 135/474/323 382/475/324 383/476/325
f 135/474/323 383/476/325 136/477/326
f 382/475/324 381/472/321 384/478/327
f 382/475/324 384/478/327 383/476/325
f 136/477/326 383/476/325 138/479/328
f 138/479/328 383/476/325 385/480/329
f 138/479/328 385/480/329 141/481/330
f 386/482/331 381/472/321 380/471/320
f 381/472/321 386/482/331 384/478/327
f 386/482/331 380/471/320 387/483/332
f 387/483/332 380/471/320 379/470/319
f 384/478/327 386/482/331 388/484/333
f 389/485/334 383/476/325 384/478/327
f 383/476/325 389/485/334 385/480/329
f 389/485/334 384/478/327 390/486/335
f 390/486/335 384/478/327 388/484/333
f 386/482/331 387/483/332 391/487/336
f 386/482/331 391/487/336 388/484/333
f 391/487/336 387/483/332 392/488/337
f 392/488/337 387/483/332 379/470/319
f 388/484/333 391/487/336 393/489/338
f 391/487/336 392/488/337 259/309/203
f 391/487/336 259/309/203 393/489/338
f 392/488/337 379/470/319 394/490/339
f 392/488/337 394/490/339 259/309/203
f 394/490/339 379/470/319 273/323/216
f 259/309/203 394/490/339 260/310/204
f 260/310/204 394/490/339 273/323/216
f 393/489/338 259/309/203 395/491/340
f 396/492/341 388/484/333 393/489/338
f 396/492/341 393/489/338 395/491/340
f 388/484/333 396/492/341 397/493/342
f 388/484/333 397/493/342 390/486/335
f 397/493/342 396/492/341 398/494/343
f 390/486/335 397/493/342 399/495/344
f 399/495/344 397/493/342 398/494/343
f 390/486/335 399/495/344 400/496/345
f 390/486/335 400/496/345 389/485/334
f 174/497/346 401/498/347 62/499/348
f 174/497/346 62/499/348 63/500/349
f 62/499/348 401/498/347 66/501/350
f 66/501/350 401/498/347 402/502/351
f 66/501/350 402/502/351 69/503/352
f 69/503/352 402/502/351 403/504/353
f 69/503/352 403/504/353 404/505/354
f 69/503/352 404/505/354 70/506/355
f 70/506/355 404/505/354 405/507/356
f 70/506/355 405/507/356 68/508/357
f 68/508/357 405/507/356 64/509/198
f 64/509/198 405/507/356 406/510/198
f 64/509/198 406/510/198 59/511/198
f 59/511/198 406/510/198 407/512/198
f 59/511/198 407/512/198 60/513/198
f 60/513/198 407/512/198 65/514/198
f 65/514/198 407/512/198 408/515/198
f 65/514/198 408/515/198 71/516/198
f 71/516/198 408/515/198 72/517/198
f 72/517/198 408/515/198 409/518/198
f 72/517/198 409/518/198 74/519/198
f 74/519/198 409/518/198 320/520/198
f 320/520/198 409/518/198 410/521/198
f 320/520/198 410/521/198 321/522/198
f 321/522/198 410/521/198 322/523/198
f 322/523/198 410/521/198 411/524/358
f 322/523/198 411/524/358 323/525/359
f 323/525/359 411/524/358 324/526/360
f 324/526/360 411/524/358 412/527/361
f 324/526/360 412/527/361 110/528/198
f 324/526/360 110/528/198 112/529/198
f 413/530/109 414/531/109 39/532/109
f 39/532/109 414/531/109 43/533/109
f 413/530/109 39/532/109 42/534/109
f 43/533/109 414/531/109 415/535/362
f 413/530/109 42/534/109 46/536/109
f 43/533/109 415/535/362 47/537/363
f 413/530/109 46/536/109 416/538/109
f 47/537/363 415/535/362 49/539/352
f 416/538/109 46/536/109 51/540/109
f 49/539/352 415/535/362 417/541/353
f 416/538/109 51/540/109 53/542/109
f 49/539/352 417/541/353 418/543/364
f 416/538/109 53/542/109 419/544/109
f 49/539/352 418/543/364 48/545/355
f 419/544/109 53/542/109 54/546/109
f 48/545/355 418/543/364 420/547/365
f 419/544/109 54/546/109 301/548/109
f 48/545/355 420/547/365 45/549/366
f 419/544/109 301/548/109 421/550/109
f 45/549/366 420/547/365 422/551/198
f 421/550/109 301/548/109 303/552/109
f 45/549/366 422/551/198 41/553/198
f 421/550/109 303/552/109 305/554/109
f 41/553/198 422/551/198 40/555/198
f 421/550/109 305/554/109 423/556/367
f 40/555/198 422/551/198 424/557/198
f 423/556/367 305/554/109 306/558/368
f 40/555/198 424/557/198 38/559/198
f 423/556/367 306/558/368 425/560/369
f 38/559/198 424/557/198 44/561/198
f 425/560/369 306/558/368 308/562/370
f 425/560/369 308/562/370 80/563/109
f 80/563/109 308/562/370 79/564/109
f 44/561/198 424/557/198 426/565/198
f 44/561/198 426/565/198 50/566/198
f 50/566/198 426/565/198 52/567/198
f 52/567/198 426/565/198 427/568/198
f 52/567/198 427/568/198 55/569/198
f 55/569/198 427/568/198 300/570/198
f 300/570/198 427/568/198 428/571/198
f 300/570/198 428/571/198 302/572/198
f 302/572/198 428/571/198 304/573/198
f 304/573/198 428/571/198 429/574/198
f 304/573/198 429/574/198 307/575/198
f 307/575/198 429/574/198 309/576/198
f 309/576/198 429/574/198 430/577/198
f 309/576/198 430/577/198 431/578/198
f 309/576/198 431/578/198 310/579/198
f 310/579/198 431/578/198 311/580/198
f 311/580/198 431/578/198 432/581/198
f 311/580/198 432/581/198 314/582/198
f 314/582/198 432/581/198 433/583/198
f 314/582/198 433/583/198 316/407/260
f 316/407/260 433/583/198 335/408/261
f 117/584/371 116/585/372 327/586/372
f 117/584/371 327/586/372 326/587/373
f 117/584/371 326/587/373 119/588/374
f 119/588/374 326/587/373 434/589/375
f 119/588/374 434/589/375 122/590/376
f 122/590/376 434/589/375 435/591/377
f 122/590/376 435/591/377 121/592/378
f 121/592/378 435/591/377 436/593/379
f 121/592/378 436/593/379 437/594/380
f 121/592/378 437/594/380 120/595/381
f 120/595/381 437/594/380 313/596/382
f 120/595/381 313/596/382 118/597/383
f 118/597/383 313/596/382 315/598/372
f 118/597/383 315/598/372 124/599/384
f 438/600/385 398/494/343 396/492/341
f 438/600/385 396/492/341 395/491/340
f 439/601/386 389/485/334 400/496/345
f 389/485/334 439/601/386 385/480/329
f 439/601/386 400/496/345 440/602/387
f 385/480/329 439/601/386 441/603/388
f 441/603/388 439/601/386 440/602/387
f 385/480/329 441/603/388 442/604/389
f 385/480/329 442/604/389 141/481/330
f 141/481/330 442/604/389 143/605/390
f 143/605/390 442/604/389 299/606/391
f 299/606/391 442/604/389 298/607/392
f 298/607/392 442/604/389 441/603/388
f 298/607/392 441/603/388 440/602/387
f 298/607/392 440/602/387 297/608/393
f 297/608/393 440/602/387 296/609/394
f 443/610/395 440/602/387 400/496/345
f 440/602/387 443/610/395 296/609/394
f 443/610/395 400/496/345 399/495/344
f 296/609/394 443/610/395 444/611/396
f 443/610/395 399/495/344 445/612/397
f 443/610/395 445/612/397 444/611/396
f 445/612/397 399/495/344 398/494/343
f 296/609/394 444/611/396 295/613/398
f 445/612/397 398/494/343 446/614/399
f 446/614/399 398/494/343 438/600/385
f 444/611/396 445/612/397 447/615/400
f 447/615/400 445/612/397 446/614/399
f 295/613/398 444/611/396 448/616/401
f 448/616/401 444/611/396 447/615/400
f 295/613/398 448/616/401 294/617/402
f 446/614/399 438/600/385 449/618/403
f 294/617/402 448/616/401 450/619/404
f 294/617/402 450/619/404 292/620/405
f 292/620/405 450/619/404 293/621/198
f 450/619/404 448/616/401 451/622/406
f 450/619/404 451/622/406 293/621/198
f 451/622/406 448/616/401 447/615/400
f 293/621/198 451/622/406 452/623/198
f 449/618/403 438/600/385 395/491/340
f 451/622/406 447/615/400 453/624/407
f 453/624/407 447/615/400 446/614/399
f 451/622/406 453/624/407 452/623/198
f 453/624/407 446/614/399 449/618/403
f 452/623/198 453/624/407 454/625/408
f 454/625/408 453/624/407 449/618/403
f 452/623/198 454/625/408 258/308/198
f 449/618/403 395/491/340 455/626/409
f 449/618/403 455/626/409 454/625/408
f 455/626/409 395/491/340 261/311/205
f 261/311/205 395/491/340 259/309/203
f 454/625/408 455/626/409 456/627/410
f 454/625/408 456/627/410 258/308/198
f 456/627/410 455/626/409 262/312/206
f 262/312/206 455/626/409 261/311/205
f 258/308/198 456/627/410 256/306/202
f 256/306/202 456/627/410 262/312/206
