# CS2 body mesh, tools/cs2_glb_to_obj.py
v 0.05487 -0.08652 -0.01916
v 0.05548 -0.08766 -0.02205
v 0.05541 -0.08613 -0.01916
v 0.05454 -0.08802 -0.02205
v 0.05424 -0.08676 -0.01916
v 0.05487 -0.08652 -0.01517
v 0.05424 -0.08676 -0.01517
v 0.05541 -0.08613 -0.01517
v 0.05584 -0.0856 -0.01517
v 0.05549 -0.08766 -0.04902
v 0.05455 -0.08802 -0.04902
v 0.0563 -0.08706 -0.02205
v 0.05584 -0.0856 -0.01916
v 0.05694 -0.08628 -0.02205
v 0.05611 -0.08499 -0.01517
v 0.0552 -0.08713 -0.04968
v 0.0544 -0.08743 -0.04968
v 0.05441 -0.08743 -0.05046
v 0.05631 -0.08706 -0.04902
v 0.0552 -0.08713 -0.05046
v 0.05589 -0.08663 -0.04968
v 0.05694 -0.08628 -0.04902
v 0.05736 -0.08536 -0.04902
v 0.05643 -0.08596 -0.04968
v 0.05589 -0.08663 -0.05046
v 0.05631 -0.08706 -0.05076
v 0.05549 -0.08766 -0.05076
v 0.05643 -0.08596 -0.05046
v 0.05694 -0.08628 -0.05076
v 0.05678 -0.08518 -0.05046
v 0.05455 -0.08802 -0.0513
v 0.05455 -0.08802 -0.05076
v 0.05549 -0.08766 -0.0513
v 0.05631 -0.08706 -0.0513
v 0.05694 -0.08628 -0.0513
v 0.05736 -0.08536 -0.0513
v 0.05736 -0.08536 -0.05076
v 0.05752 -0.08436 -0.05076
v 0.04723 -0.08533 -0.02775
v 0.04748 -0.08642 -0.02775
v 0.04795 -0.08534 -0.02775
v 0.04924 -0.08536 -0.02578
v 0.04995 -0.08537 -0.02578
v 0.04995 -0.08537 -0.0376
v 0.04795 -0.08534 -0.03563
v 0.04924 -0.08536 -0.0376
v 0.04723 -0.08533 -0.03563
v 0.04749 -0.08643 -0.03563
v 0.058 -0.08546 -0.02221
v 0.05817 -0.08432 -0.02616
v 0.05817 -0.08432 -0.02221
v 0.05804 -0.08317 -0.02221
v 0.058 -0.08549 -0.02616
v 0.05803 -0.08314 -0.02616
v 0.05753 -0.08658 -0.02221
v 0.0576 -0.08204 -0.02221
v 0.05753 -0.08658 -0.02616
v 0.0576 -0.08204 -0.02616
v 0.05694 -0.08116 -0.02303
v 0.05694 -0.08116 -0.02534
v 0.05679 -0.0875 -0.02221
v 0.05679 -0.08751 -0.02616
v 0.05584 -0.08821 -0.02221
v 0.05585 -0.08821 -0.02616
v 0.05474 -0.08865 -0.02616
v 0.05474 -0.08865 -0.02221
v 0.05818 -0.08432 -0.04619
v 0.05801 -0.08546 -0.04117
v 0.05802 -0.08541 -0.04618
v 0.05817 -0.08432 -0.03722
v 0.058 -0.08549 -0.03722
v 0.05753 -0.08658 -0.04117
v 0.05804 -0.08317 -0.04117
v 0.05805 -0.08323 -0.04618
v 0.05804 -0.08315 -0.03722
v 0.05753 -0.08658 -0.03722
v 0.0576 -0.08205 -0.04117
v 0.0568 -0.08751 -0.04117
v 0.0576 -0.08205 -0.03722
v 0.05695 -0.08117 -0.04035
v 0.05695 -0.08116 -0.03804
v 0.0568 -0.08751 -0.03722
v 0.05585 -0.08821 -0.03722
v 0.05585 -0.08821 -0.04117
v 0.05475 -0.08865 -0.03722
v 0.05475 -0.08865 -0.04117
v 0.04813 -0.08417 -0.03563
v 0.04999 -0.08302 -0.0376
v 0.04799 -0.08299 -0.03563
v 0.04799 -0.08299 -0.02775
v 0.04755 -0.08189 -0.03516
v 0.04755 -0.08189 -0.02823
v 0.0469 -0.08101 -0.02952
v 0.0469 -0.08101 -0.03386
v 0.04813 -0.08417 -0.02775
v 0.04999 -0.08302 -0.02578
v 0.04675 -0.08735 -0.03601
v 0.04675 -0.08735 -0.02737
v 0.0458 -0.08806 -0.02737
v 0.0458 -0.08806 -0.03601
v 0.0447 -0.08849 -0.02737
v 0.0447 -0.0885 -0.03601
v 0.04993 -0.08315 -0.05131
v 0.04988 -0.08515 -0.05131
v 0.04978 -0.08415 -0.05131
v 0.05024 -0.0861 -0.05131
v 0.05035 -0.08223 -0.05131
v 0.05098 -0.08144 -0.05131
v 0.05083 -0.08692 -0.05131
v 0.0518 -0.08085 -0.05131
v 0.05162 -0.08755 -0.0513
v 0.05254 -0.08796 -0.0513
v 0.05275 -0.08049 -0.05131
v 0.05354 -0.08812 -0.0513
v 0.05375 -0.08038 -0.0513
v 0.05475 -0.08054 -0.0513
v 0.05567 -0.08095 -0.0513
v 0.05646 -0.08159 -0.0513
v 0.05705 -0.08241 -0.0513
v 0.05741 -0.08335 -0.0513
v 0.05752 -0.08436 -0.0513
v 0.05737 -0.08531 -0.04611
v 0.05737 -0.08531 -0.04117
v 0.05634 -0.08703 -0.04117
v 0.05459 -0.08801 -0.04117
v 0.05357 -0.08879 -0.04117
v 0.05258 -0.08798 -0.04117
v 0.0524 -0.08861 -0.04117
v 0.05132 -0.08814 -0.04117
v 0.05086 -0.08695 -0.04117
v 0.05039 -0.08741 -0.04117
v 0.04968 -0.08646 -0.04117
v 0.04989 -0.0852 -0.04117
v 0.04925 -0.08536 -0.04117
v 0.04911 -0.08418 -0.04117
v 0.04992 -0.08319 -0.04117
v 0.04928 -0.08301 -0.04117
v 0.04975 -0.08193 -0.04117
v 0.05032 -0.08227 -0.04117
v 0.0543 -0.08599 -0.00872
v 0.05445 -0.08639 -0.01516
v 0.05492 -0.08561 -0.00872
v 0.05521 -0.08591 -0.01516
v 0.05573 -0.08518 -0.01516
v 0.05492 -0.08516 -0.00705
v 0.05534 -0.08501 -0.00872
v 0.05593 -0.08431 -0.01516
v 0.0539 -0.0858 -0.00705
v 0.0555 -0.0843 -0.00872
v 0.05538 -0.08358 -0.00872
v 0.05578 -0.08343 -0.01516
v 0.05519 -0.08398 -0.00705
v 0.05454 -0.08489 -0.00537
v 0.05382 -0.08534 -0.00537
v 0.05499 -0.08297 -0.00872
v 0.0553 -0.08268 -0.01516
v 0.05457 -0.08216 -0.01516
v 0.05454 -0.08296 -0.00705
v 0.0544 -0.08254 -0.00872
v 0.0537 -0.08196 -0.01516
v 0.05368 -0.08238 -0.00872
v 0.05337 -0.0827 -0.00705
v 0.05427 -0.08334 -0.00537
v 0.05345 -0.08316 -0.00537
v 0.05399 -0.08374 -0.00439
v 0.05353 -0.08363 -0.00439
v 0.05473 -0.08406 -0.00537
v 0.05425 -0.08414 -0.00439
v 0.05363 -0.08425 -0.00405
v 0.05414 -0.08461 -0.00439
v 0.05374 -0.08487 -0.00439
v 0.05414 -0.08635 -0.01517
v 0.05302 -0.08632 -0.01517
v 0.05357 -0.08683 -0.01517
v 0.0529 -0.08673 -0.01517
v 0.0529 -0.08673 -0.01916
v 0.05228 -0.08645 -0.01517
v 0.05207 -0.08573 -0.01517
v 0.05176 -0.08603 -0.01517
v 0.05136 -0.08548 -0.01517
v 0.05229 -0.08645 -0.01917
v 0.05154 -0.08475 -0.01517
v 0.05253 -0.08796 -0.02205
v 0.05353 -0.08812 -0.02205
v 0.05176 -0.08603 -0.01917
v 0.05161 -0.08755 -0.02205
v 0.05254 -0.08796 -0.04902
v 0.05354 -0.08812 -0.04902
v 0.05356 -0.08752 -0.04968
v 0.05271 -0.08739 -0.04968
v 0.05356 -0.08752 -0.05046
v 0.05271 -0.08739 -0.05046
v 0.05354 -0.08812 -0.05076
v 0.05254 -0.08796 -0.05076
v 0.05162 -0.08755 -0.05076
v 0.05194 -0.08704 -0.05046
v 0.05083 -0.08692 -0.05077
v 0.05024 -0.0861 -0.05077
v 0.05127 -0.0865 -0.05046
v 0.05194 -0.08704 -0.04968
v 0.05127 -0.0865 -0.04968
v 0.05162 -0.08755 -0.04902
v 0.05077 -0.08581 -0.05046
v 0.05083 -0.08691 -0.02205
v 0.05083 -0.08692 -0.04902
v 0.05077 -0.08581 -0.04968
v 0.05047 -0.08501 -0.05046
v 0.05023 -0.08609 -0.02205
v 0.05024 -0.0861 -0.04902
v 0.04988 -0.08515 -0.04902
v 0.05137 -0.08548 -0.01917
v 0.04987 -0.08515 -0.02205
v 0.05112 -0.08485 -0.01917
v 0.05112 -0.08485 -0.01517
v 0.04977 -0.08415 -0.02205
v 0.05106 -0.08418 -0.01917
v 0.05105 -0.08418 -0.01517
v 0.05157 -0.08364 -0.01517
v 0.05116 -0.08351 -0.01517
v 0.05116 -0.08351 -0.01917
v 0.05144 -0.0829 -0.01517
v 0.05215 -0.08268 -0.01517
v 0.04993 -0.08315 -0.02205
v 0.05144 -0.0829 -0.01917
v 0.05186 -0.08237 -0.01517
v 0.04352 -0.08863 -0.02737
v 0.04353 -0.08863 -0.03601
v 0.04235 -0.08846 -0.02737
v 0.04235 -0.08846 -0.03601
v 0.04127 -0.08799 -0.03602
v 0.04127 -0.08799 -0.02737
v 0.04034 -0.08726 -0.03602
v 0.04034 -0.08725 -0.02737
v 0.03963 -0.0863 -0.02737
v 0.03963 -0.08631 -0.03602
v 0.0392 -0.08521 -0.03602
v 0.0392 -0.0852 -0.02737
v 0.03906 -0.08403 -0.02737
v 0.03906 -0.08403 -0.03602
v 0.03923 -0.08286 -0.02737
v 0.03923 -0.08286 -0.03602
v 0.0397 -0.08177 -0.03549
v 0.0397 -0.08177 -0.0279
v 0.04038 -0.08091 -0.02932
v 0.04038 -0.08091 -0.03407
v 0.05752 -0.08431 -0.04611
v 0.0574 -0.08331 -0.04611
v 0.05357 -0.08878 -0.02221
v 0.05357 -0.08878 -0.02616
v 0.0524 -0.08861 -0.02221
v 0.0524 -0.08861 -0.02616
v 0.05131 -0.08814 -0.02221
v 0.05131 -0.08814 -0.02616
v 0.05038 -0.08741 -0.02616
v 0.05038 -0.08741 -0.02221
v 0.04968 -0.08646 -0.02578
v 0.04968 -0.08646 -0.02221
v 0.04924 -0.08536 -0.02221
v 0.0491 -0.08418 -0.02221
v 0.04911 -0.08418 -0.02578
v 0.04727 -0.08298 -0.02784
v 0.04928 -0.08301 -0.02221
v 0.04928 -0.08301 -0.02578
v 0.04975 -0.08192 -0.02221
v 0.04975 -0.08192 -0.02578
v 0.05043 -0.08106 -0.02504
v 0.05043 -0.08106 -0.02295
v 0.05357 -0.08879 -0.03722
v 0.0524 -0.08861 -0.03722
v 0.05132 -0.08814 -0.03722
v 0.05039 -0.08741 -0.03722
v 0.04968 -0.08646 -0.0376
v 0.04911 -0.08418 -0.0376
v 0.04727 -0.08298 -0.03555
v 0.04928 -0.08301 -0.0376
v 0.04975 -0.08193 -0.0376
v 0.05043 -0.08107 -0.03834
v 0.05043 -0.08107 -0.04043
v 0.05741 -0.08335 -0.05076
v 0.05705 -0.08241 -0.05076
v 0.05682 -0.08349 -0.05046
v 0.05646 -0.08159 -0.05076
v 0.05567 -0.08095 -0.05076
v 0.05475 -0.08054 -0.05076
v 0.05602 -0.08201 -0.05046
v 0.05536 -0.08147 -0.05046
v 0.05536 -0.08147 -0.04968
v 0.05458 -0.08112 -0.05046
v 0.05458 -0.08112 -0.04968
v 0.05475 -0.08054 -0.04902
v 0.05567 -0.08095 -0.04902
v 0.05474 -0.08054 -0.02205
v 0.05602 -0.08201 -0.04968
v 0.05652 -0.0827 -0.05046
v 0.05652 -0.0827 -0.04968
v 0.05646 -0.08159 -0.04902
v 0.05645 -0.08159 -0.02205
v 0.05705 -0.08241 -0.04902
v 0.05566 -0.08095 -0.02205
v 0.05704 -0.08241 -0.02205
v 0.05551 -0.08247 -0.01916
v 0.05499 -0.08205 -0.01916
v 0.05437 -0.08177 -0.01916
v 0.05499 -0.08205 -0.01517
v 0.05437 -0.08177 -0.01517
v 0.05551 -0.08247 -0.01517
v 0.05591 -0.08302 -0.01916
v 0.05591 -0.08302 -0.01517
v 0.0574 -0.08335 -0.02205
v 0.05615 -0.08365 -0.01916
v 0.05615 -0.08365 -0.01517
v 0.05741 -0.08335 -0.04902
v 0.05751 -0.08436 -0.02205
v 0.05622 -0.08432 -0.01916
v 0.05622 -0.08432 -0.01517
v 0.05611 -0.08499 -0.01916
v 0.05735 -0.08535 -0.02205
v 0.05752 -0.08436 -0.04902
v 0.05678 -0.08518 -0.04968
v 0.05691 -0.08434 -0.04968
v 0.05682 -0.08349 -0.04968
v 0.05691 -0.08434 -0.05046
v 0.04027 -0.08211 -0.0279
v 0.03987 -0.08304 -0.02737
v 0.03984 -0.08504 -0.02737
v 0.04081 -0.08679 -0.02737
v 0.04253 -0.08782 -0.02737
v 0.04454 -0.08785 -0.02737
v 0.04629 -0.08688 -0.02737
v 0.04629 -0.08688 -0.03601
v 0.04454 -0.08785 -0.03601
v 0.04254 -0.08782 -0.03601
v 0.04082 -0.08679 -0.03602
v 0.03984 -0.08504 -0.03602
v 0.03987 -0.08304 -0.03602
v 0.05358 -0.08612 -0.00872
v 0.05357 -0.08654 -0.01516
v 0.05287 -0.08595 -0.00872
v 0.0527 -0.08634 -0.01516
v 0.05272 -0.08554 -0.00705
v 0.05228 -0.08553 -0.00872
v 0.05197 -0.08583 -0.01516
v 0.0515 -0.08507 -0.01516
v 0.05189 -0.08492 -0.00872
v 0.05135 -0.08419 -0.01516
v 0.05299 -0.08515 -0.00537
v 0.05208 -0.08451 -0.00705
v 0.05177 -0.0842 -0.00872
v 0.05193 -0.08349 -0.00872
v 0.05154 -0.08332 -0.01516
v 0.05235 -0.08334 -0.00705
v 0.05235 -0.08289 -0.00872
v 0.05206 -0.08259 -0.01516
v 0.05282 -0.08211 -0.01516
v 0.05297 -0.08251 -0.00872
v 0.05273 -0.08361 -0.00537
v 0.05254 -0.08444 -0.00537
v 0.05312 -0.08389 -0.00439
v 0.05302 -0.08435 -0.00439
v 0.05327 -0.08476 -0.00439
v 0.05032 -0.08227 -0.0376
v 0.05032 -0.08226 -0.02578
v 0.05095 -0.08147 -0.04043
v 0.05095 -0.08147 -0.03834
v 0.05031 -0.08226 -0.02221
v 0.05094 -0.08147 -0.02295
v 0.05094 -0.08147 -0.02504
v 0.05357 -0.08683 -0.01916
v 0.05512 -0.08582 -0.01517
v 0.0557 -0.08486 -0.01517
v 0.05573 -0.08375 -0.01517
v 0.0552 -0.08277 -0.01517
v 0.05425 -0.08218 -0.01517
v 0.05371 -0.08167 -0.01517
v 0.05313 -0.08215 -0.01517
v 0.05371 -0.08167 -0.01917
v 0.05374 -0.08038 -0.02205
v 0.05375 -0.08038 -0.04902
v 0.05373 -0.08099 -0.04968
v 0.05373 -0.08099 -0.05046
v 0.05375 -0.08038 -0.05076
v 0.0409 -0.08132 -0.02932
v 0.0409 -0.08132 -0.03407
v 0.04027 -0.08211 -0.03549
v 0.05736 -0.08531 -0.02616
v 0.05739 -0.08331 -0.02616
v 0.05702 -0.08237 -0.02616
v 0.05633 -0.08703 -0.02616
v 0.05642 -0.08156 -0.02534
v 0.05642 -0.08156 -0.02303
v 0.05458 -0.08801 -0.02616
v 0.05702 -0.08237 -0.02221
v 0.05258 -0.08798 -0.02616
v 0.05739 -0.08331 -0.02221
v 0.05086 -0.08695 -0.02616
v 0.05736 -0.08531 -0.02221
v 0.05026 -0.08614 -0.02578
v 0.05633 -0.08703 -0.02221
v 0.05458 -0.08801 -0.02221
v 0.05258 -0.08797 -0.02221
v 0.05086 -0.08695 -0.02221
v 0.05026 -0.08614 -0.02221
v 0.04988 -0.0852 -0.02221
v 0.04977 -0.08419 -0.02221
v 0.04991 -0.08319 -0.02221
v 0.0574 -0.08331 -0.04117
v 0.05702 -0.08237 -0.04117
v 0.05642 -0.08156 -0.04035
v 0.05642 -0.08156 -0.03804
v 0.05702 -0.08237 -0.03722
v 0.0574 -0.08331 -0.03722
v 0.05737 -0.08531 -0.03722
v 0.05634 -0.08703 -0.03722
v 0.05459 -0.08801 -0.03722
v 0.05258 -0.08798 -0.03722
v 0.05086 -0.08695 -0.03722
v 0.05026 -0.08614 -0.0376
v 0.05241 -0.08198 -0.01517
v 0.05186 -0.08238 -0.01917
v 0.05304 -0.08174 -0.01517
v 0.05304 -0.08174 -0.01917
v 0.05241 -0.08198 -0.01917
v 0.05274 -0.08049 -0.02205
v 0.05179 -0.08085 -0.02205
v 0.05275 -0.08049 -0.04902
v 0.05289 -0.08107 -0.04968
v 0.05098 -0.08144 -0.02205
v 0.0518 -0.08085 -0.04902
v 0.05209 -0.08138 -0.04968
v 0.05034 -0.08222 -0.02205
v 0.05035 -0.08223 -0.04902
v 0.05098 -0.08144 -0.04902
v 0.0514 -0.08188 -0.04968
v 0.05086 -0.08254 -0.04968
v 0.04993 -0.08315 -0.04902
v 0.04977 -0.08415 -0.04902
v 0.05051 -0.08332 -0.04968
v 0.05047 -0.08501 -0.04968
v 0.05038 -0.08416 -0.04968
v 0.05038 -0.08416 -0.05046
v 0.05051 -0.08332 -0.05046
v 0.05086 -0.08254 -0.05046
v 0.04978 -0.08415 -0.05077
v 0.04993 -0.08315 -0.05077
v 0.04988 -0.08515 -0.05077
v 0.05035 -0.08223 -0.05077
v 0.05098 -0.08144 -0.05077
v 0.0518 -0.08085 -0.05077
v 0.0514 -0.08188 -0.05046
v 0.05209 -0.08138 -0.05046
v 0.05289 -0.08107 -0.05046
v 0.05275 -0.08049 -0.05077
v 0.04698 -0.08221 -0.03516
v 0.04637 -0.0814 -0.03386
v 0.04637 -0.0814 -0.02952
v 0.04697 -0.08221 -0.02823
vt 0.883301 0.914062
vt 0.883301 0.916992
vt 0.883789 0.914062
vt 0.882812 0.916992
vt 0.882324 0.914062
vt 0.883301 0.909668
vt 0.882324 0.909668
vt 0.883789 0.909668
vt 0.884766 0.909668
vt 0.883301 0.945801
vt 0.882812 0.945801
vt 0.884277 0.916992
vt 0.884766 0.914062
vt 0.885254 0.916992
vt 0.885254 0.909668
vt 0.883301 0.946777
vt 0.882812 0.946777
vt 0.882812 0.947754
vt 0.884277 0.945801
vt 0.883301 0.947754
vt 0.884277 0.946777
vt 0.885254 0.945801
vt 0.88623 0.945801
vt 0.885254 0.946777
vt 0.884277 0.947754
vt 0.884277 0.948242
vt 0.883301 0.948242
vt 0.885254 0.947754
vt 0.885254 0.948242
vt 0.88623 0.947754
vt 0.882812 0.94873
vt 0.882812 0.948242
vt 0.883301 0.94873
vt 0.884277 0.94873
vt 0.885254 0.94873
vt 0.88623 0.94873
vt 0.88623 0.948242
vt 0.887207 0.948242
vt 0.587402 0.013428
vt 0.588379 0.012787
vt 0.586914 0.012787
vt 0.583984 0.013428
vt 0.583984 0.012787
vt 0.628418 0.012787
vt 0.625977 0.012787
vt 0.628418 0.013428
vt 0.625488 0.013428
vt 0.624512 0.012787
vt 0.279053 0.027313
vt 0.277832 0.023346
vt 0.277832 0.027313
vt 0.276611 0.027313
vt 0.279053 0.023346
vt 0.276611 0.023346
vt 0.280273 0.027313
vt 0.275391 0.027313
vt 0.280273 0.023346
vt 0.275391 0.023346
vt 0.27417 0.026642
vt 0.27417 0.024292
vt 0.281494 0.027313
vt 0.281494 0.023346
vt 0.282715 0.027313
vt 0.282715 0.023346
vt 0.283936 0.023346
vt 0.283936 0.027313
vt 0.176392 0.348877
vt 0.177612 0.354004
vt 0.177612 0.348877
vt 0.176392 0.35791
vt 0.177612 0.35791
vt 0.178833 0.354004
vt 0.175171 0.354004
vt 0.175171 0.348877
vt 0.175171 0.35791
vt 0.178833 0.35791
vt 0.17395 0.354004
vt 0.180054 0.354004
vt 0.17395 0.35791
vt 0.172852 0.354736
vt 0.172852 0.357178
vt 0.180054 0.35791
vt 0.181152 0.35791
vt 0.181152 0.354004
vt 0.182373 0.35791
vt 0.182373 0.354004
vt 0.134033 0.447021
vt 0.132812 0.449951
vt 0.134033 0.449951
vt 0.131592 0.447021
vt 0.131592 0.449951
vt 0.131592 0.458008
vt 0.130371 0.450439
vt 0.130371 0.45752
vt 0.129272 0.456055
vt 0.129272 0.45166
vt 0.132812 0.458008
vt 0.131592 0.460693
vt 0.134033 0.460693
vt 0.134033 0.458008
vt 0.135254 0.458008
vt 0.135254 0.449951
vt 0.136475 0.449463
vt 0.136475 0.458252
vt 0.137695 0.458252
vt 0.137695 0.449463
vt 0.138916 0.458252
vt 0.138916 0.449463
vt 0.266113 0.731934
vt 0.266113 0.72998
vt 0.266113 0.730957
vt 0.266602 0.729004
vt 0.266602 0.73291
vt 0.267334 0.733887
vt 0.267334 0.728027
vt 0.268066 0.734375
vt 0.268066 0.727539
vt 0.269043 0.727051
vt 0.269043 0.734863
vt 0.270264 0.727051
vt 0.270264 0.734863
vt 0.27124 0.734863
vt 0.27124 0.727051
vt 0.272217 0.734375
vt 0.272217 0.727539
vt 0.273193 0.733887
vt 0.273193 0.728027
vt 0.273682 0.729004
vt 0.273682 0.73291
vt 0.27417 0.731934
vt 0.27417 0.72998
vt 0.27417 0.730957
vt 0.731934 0.006897
vt 0.736816 0.007629
vt 0.736816 0.006897
vt 0.731934 0.007629
vt 0.730957 0.006897
vt 0.729492 0.007629
vt 0.729492 0.006897
vt 0.728516 0.006897
vt 0.727539 0.007629
vt 0.727539 0.006897
vt 0.726562 0.006897
vt 0.725586 0.007629
vt 0.725586 0.006897
vt 0.724121 0.006897
vt 0.723145 0.007629
vt 0.723145 0.006897
vt 0.722168 0.006897
vt 0.721191 0.007629
vt 0.721191 0.006897
vt 0.719727 0.006897
vt 0.71875 0.007629
vt 0.71875 0.006897
vt 0.717773 0.006897
vt 0.717773 0.007629
vt 0.700684 0.230347
vt 0.700195 0.223633
vt 0.699707 0.230347
vt 0.699219 0.223633
vt 0.698242 0.223633
vt 0.699707 0.232178
vt 0.699219 0.230347
vt 0.697266 0.223633
vt 0.700684 0.232178
vt 0.69873 0.230347
vt 0.697754 0.230347
vt 0.696289 0.223633
vt 0.69873 0.232178
vt 0.700195 0.233765
vt 0.701172 0.233765
vt 0.697266 0.230347
vt 0.695801 0.223633
vt 0.694824 0.223633
vt 0.697266 0.232178
vt 0.696777 0.230347
vt 0.693848 0.223633
vt 0.695801 0.230347
vt 0.696289 0.232178
vt 0.698242 0.233765
vt 0.697754 0.233765
vt 0.699219 0.234863
vt 0.69873 0.235229
vt 0.699219 0.233765
vt 0.699707 0.234619
vt 0.700684 0.235229
vt 0.700195 0.234619
vt 0.701172 0.234619
vt 0.882324 0.90918
vt 0.880859 0.90918
vt 0.881348 0.909668
vt 0.880859 0.909668
vt 0.880859 0.914062
vt 0.879883 0.909668
vt 0.879395 0.90918
vt 0.879395 0.909668
vt 0.878418 0.909668
vt 0.879883 0.914062
vt 0.87793 0.90918
vt 0.880859 0.916992
vt 0.881836 0.916992
vt 0.879395 0.914062
vt 0.879883 0.916992
vt 0.880859 0.945801
vt 0.881836 0.945801
vt 0.881836 0.946777
vt 0.880859 0.946777
vt 0.881836 0.947754
vt 0.880859 0.947754
vt 0.881836 0.948242
vt 0.881836 0.94873
vt 0.880859 0.94873
vt 0.880859 0.948242
vt 0.879883 0.948242
vt 0.879883 0.94873
vt 0.879883 0.947754
vt 0.878906 0.948242
vt 0.878906 0.94873
vt 0.87793 0.94873
vt 0.87793 0.948242
vt 0.876953 0.94873
vt 0.878906 0.947754
vt 0.879883 0.946777
vt 0.878906 0.946777
vt 0.879883 0.945801
vt 0.87793 0.947754
vt 0.878906 0.916992
vt 0.878906 0.945801
vt 0.87793 0.946777
vt 0.876953 0.947754
vt 0.87793 0.916992
vt 0.87793 0.945801
vt 0.876953 0.945801
vt 0.878418 0.914062
vt 0.876953 0.916992
vt 0.877441 0.914062
vt 0.877441 0.909668
vt 0.875977 0.916992
vt 0.876953 0.914062
vt 0.876953 0.909668
vt 0.876465 0.90918
vt 0.875977 0.909668
vt 0.875977 0.914062
vt 0.875488 0.909668
vt 0.875 0.90918
vt 0.875 0.916992
vt 0.875488 0.914062
vt 0.874512 0.909668
vt 0.140015 0.458252
vt 0.140015 0.449463
vt 0.141235 0.458252
vt 0.141235 0.449463
vt 0.142456 0.449463
vt 0.142456 0.458252
vt 0.143677 0.449463
vt 0.143677 0.458252
vt 0.144897 0.458252
vt 0.144897 0.449463
vt 0.146118 0.449463
vt 0.146118 0.458252
vt 0.147339 0.458252
vt 0.147339 0.449463
vt 0.14856 0.458252
vt 0.14856 0.449463
vt 0.14978 0.449951
vt 0.14978 0.457764
vt 0.150879 0.456299
vt 0.150879 0.451416
vt 0.840332 0.996094
vt 0.840332 0.994629
vt 0.839844 0.996094
vt 0.839844 0.994629
vt 0.840332 0.99707
vt 0.839844 0.99707
vt 0.284912 0.027313
vt 0.284912 0.023346
vt 0.286133 0.027313
vt 0.286133 0.023346
vt 0.287354 0.027313
vt 0.287354 0.023346
vt 0.288574 0.023346
vt 0.288574 0.027313
vt 0.289795 0.02359
vt 0.289795 0.027313
vt 0.291016 0.02359
vt 0.291016 0.027313
vt 0.292236 0.027313
vt 0.292236 0.02359
vt 0.291016 0.020721
vt 0.293457 0.020721
vt 0.293457 0.027313
vt 0.293457 0.02359
vt 0.294678 0.027313
vt 0.294678 0.02359
vt 0.295898 0.024353
vt 0.295898 0.026459
vt 0.183594 0.354004
vt 0.183594 0.35791
vt 0.184814 0.354004
vt 0.184814 0.35791
vt 0.186035 0.354004
vt 0.186035 0.35791
vt 0.187256 0.354004
vt 0.187256 0.35791
vt 0.188477 0.357666
vt 0.188477 0.354004
vt 0.189697 0.357666
vt 0.189697 0.354004
vt 0.190796 0.354004
vt 0.190796 0.357666
vt 0.189697 0.360596
vt 0.192017 0.360596
vt 0.192017 0.357666
vt 0.192017 0.354004
vt 0.193237 0.354004
vt 0.193237 0.357666
vt 0.194336 0.356934
vt 0.194336 0.354736
vt 0.887207 0.94873
vt 0.888184 0.94873
vt 0.888184 0.948242
vt 0.88916 0.94873
vt 0.88916 0.948242
vt 0.888184 0.947754
vt 0.890137 0.94873
vt 0.890137 0.948242
vt 0.891113 0.948242
vt 0.891113 0.94873
vt 0.89209 0.94873
vt 0.89209 0.948242
vt 0.890137 0.947754
vt 0.891113 0.947754
vt 0.891113 0.946777
vt 0.89209 0.947754
vt 0.89209 0.946777
vt 0.89209 0.945801
vt 0.891113 0.945801
vt 0.89209 0.916992
vt 0.890137 0.946777
vt 0.88916 0.947754
vt 0.88916 0.946777
vt 0.890137 0.945801
vt 0.890137 0.916992
vt 0.88916 0.945801
vt 0.891113 0.916992
vt 0.88916 0.916992
vt 0.888672 0.914062
vt 0.88916 0.914062
vt 0.890137 0.914062
vt 0.88916 0.909668
vt 0.890137 0.909668
vt 0.888672 0.909668
vt 0.887695 0.914062
vt 0.887695 0.909668
vt 0.888184 0.916992
vt 0.887207 0.914062
vt 0.887207 0.909668
vt 0.888184 0.945801
vt 0.887207 0.916992
vt 0.88623 0.914062
vt 0.88623 0.909668
vt 0.885254 0.914062
vt 0.88623 0.916992
vt 0.887207 0.945801
vt 0.88623 0.946777
vt 0.887207 0.946777
vt 0.888184 0.946777
vt 0.887207 0.947754
vt 0.602051 0.013428
vt 0.600586 0.012787
vt 0.600586 0.013428
vt 0.599609 0.012787
vt 0.598633 0.013428
vt 0.598633 0.012787
vt 0.597168 0.012787
vt 0.596191 0.013428
vt 0.596191 0.012787
vt 0.595215 0.012787
vt 0.59375 0.013428
vt 0.59375 0.012787
vt 0.592773 0.012787
vt 0.591797 0.013428
vt 0.591797 0.012787
vt 0.590332 0.012787
vt 0.589355 0.013428
vt 0.589355 0.012787
vt 0.623535 0.013428
vt 0.623535 0.012787
vt 0.62207 0.012787
vt 0.621094 0.013428
vt 0.621094 0.012787
vt 0.620117 0.012787
vt 0.618652 0.013428
vt 0.618652 0.012787
vt 0.617676 0.012787
vt 0.616699 0.013428
vt 0.616699 0.012787
vt 0.615234 0.012787
vt 0.614258 0.013428
vt 0.614258 0.012787
vt 0.613281 0.012787
vt 0.611816 0.013428
vt 0.611816 0.012787
vt 0.61084 0.012787
vt 0.701172 0.230347
vt 0.701172 0.223633
vt 0.70166 0.230347
vt 0.702148 0.223633
vt 0.702148 0.232178
vt 0.702637 0.230347
vt 0.703125 0.223633
vt 0.704102 0.223633
vt 0.703125 0.230347
vt 0.705078 0.223633
vt 0.70166 0.233765
vt 0.703125 0.232178
vt 0.703613 0.230347
vt 0.70459 0.230347
vt 0.706055 0.223633
vt 0.704102 0.232178
vt 0.705078 0.230347
vt 0.707031 0.223633
vt 0.70752 0.223633
vt 0.706055 0.230347
vt 0.708496 0.223633
vt 0.706543 0.230347
vt 0.705566 0.232178
vt 0.703613 0.233765
vt 0.704102 0.233765
vt 0.702637 0.233765
vt 0.702637 0.234741
vt 0.703125 0.235107
vt 0.702637 0.235352
vt 0.702148 0.234619
vt 0.70166 0.234619
vt 0.712891 0.007629
vt 0.712891 0.006897
vt 0.711914 0.007629
vt 0.711914 0.006897
vt 0.429199 0.010986
vt 0.429199 0.011719
vt 0.430176 0.011719
vt 0.430176 0.010986
vt 0.716309 0.006897
vt 0.716309 0.007629
vt 0.714355 0.007629
vt 0.714355 0.006897
vt 0.424561 0.010986
vt 0.424561 0.011719
vt 0.425781 0.010986
vt 0.425781 0.011719
vt 0.427979 0.010986
vt 0.427979 0.011719
vt 0.881348 0.914062
vt 0.883789 0.90918
vt 0.885254 0.90918
vt 0.886719 0.90918
vt 0.887695 0.90918
vt 0.88916 0.90918
vt 0.890625 0.909668
vt 0.890137 0.90918
vt 0.890625 0.914062
vt 0.893066 0.916992
vt 0.893066 0.945801
vt 0.893066 0.946777
vt 0.893066 0.947754
vt 0.893066 0.948242
vt 0.893066 0.94873
vt 0.602051 0.012787
vt 0.604004 0.012787
vt 0.604004 0.013428
vt 0.608887 0.013428
vt 0.608887 0.012787
vt 0.61084 0.013428
vt 0.398682 0.011719
vt 0.400879 0.011719
vt 0.399658 0.010986
vt 0.400879 0.010986
vt 0.398682 0.010986
vt 0.401855 0.011719
vt 0.397705 0.010986
vt 0.4021 0.010986
vt 0.396729 0.011719
vt 0.40332 0.010986
vt 0.396484 0.010986
vt 0.40332 0.011719
vt 0.395508 0.010986
vt 0.405518 0.011719
vt 0.394531 0.011719
vt 0.405518 0.010986
vt 0.394531 0.010986
vt 0.406982 0.011719
vt 0.393555 0.010986
vt 0.406982 0.010986
vt 0.392334 0.011719
vt 0.407959 0.011719
vt 0.392334 0.010986
vt 0.407959 0.010986
vt 0.391357 0.010986
vt 0.40918 0.010986
vt 0.390137 0.011719
vt 0.410156 0.011719
vt 0.390137 0.010986
vt 0.410156 0.010986
vt 0.388916 0.011719
vt 0.411377 0.010986
vt 0.38916 0.010986
vt 0.388184 0.011719
vt 0.387939 0.010986
vt 0.412354 0.011719
vt 0.412354 0.010986
vt 0.41333 0.010986
vt 0.414307 0.011719
vt 0.414307 0.010986
vt 0.415527 0.010986
vt 0.416504 0.011719
vt 0.416504 0.010986
vt 0.41748 0.010986
vt 0.418701 0.011719
vt 0.418701 0.010986
vt 0.419678 0.010986
vt 0.419922 0.011719
vt 0.420898 0.011719
vt 0.420898 0.010986
vt 0.422119 0.011719
vt 0.422119 0.010986
vt 0.42334 0.010986
vt 0.42334 0.011719
vt 0.436523 0.86084
vt 0.441406 0.86084
vt 0.441406 0.859863
vt 0.436523 0.859863
vt 0.442627 0.859863
vt 0.442627 0.86084
vt 0.443848 0.859863
vt 0.443848 0.86084
vt 0.446289 0.86084
vt 0.446289 0.859863
vt 0.44751 0.86084
vt 0.44751 0.859863
vt 0.44873 0.859863
vt 0.44873 0.86084
vt 0.449951 0.859863
vt 0.450928 0.86084
vt 0.450928 0.859863
vt 0.452148 0.859863
vt 0.453125 0.86084
vt 0.453125 0.859863
vt 0.454102 0.859863
vt 0.455322 0.86084
vt 0.455322 0.859863
vt 0.456299 0.859863
vt 0.45752 0.86084
vt 0.45752 0.859863
vt 0.458496 0.859863
vt 0.459717 0.86084
vt 0.459717 0.859863
vt 0.460938 0.859863
vt 0.460938 0.86084
vt 0.461914 0.86084
vt 0.461914 0.859863
vt 0.874023 0.909668
vt 0.874023 0.90918
vt 0.874512 0.914062
vt 0.873047 0.909668
vt 0.872559 0.909668
vt 0.872559 0.914062
vt 0.873047 0.914062
vt 0.870117 0.916992
vt 0.874023 0.914062
vt 0.871094 0.916992
vt 0.870117 0.945801
vt 0.87207 0.916992
vt 0.871094 0.945801
vt 0.871094 0.946777
vt 0.870117 0.946777
vt 0.870117 0.947754
vt 0.873047 0.916992
vt 0.87207 0.945801
vt 0.87207 0.946777
vt 0.874023 0.916992
vt 0.874023 0.945801
vt 0.873047 0.945801
vt 0.873047 0.946777
vt 0.874023 0.946777
vt 0.875 0.945801
vt 0.875977 0.945801
vt 0.875 0.946777
vt 0.876953 0.946777
vt 0.875977 0.946777
vt 0.875977 0.947754
vt 0.875 0.947754
vt 0.874023 0.947754
vt 0.875977 0.948242
vt 0.875 0.948242
vt 0.876953 0.948242
vt 0.875977 0.94873
vt 0.875 0.94873
vt 0.874023 0.94873
vt 0.874023 0.948242
vt 0.873047 0.948242
vt 0.873047 0.94873
vt 0.87207 0.94873
vt 0.87207 0.948242
vt 0.873047 0.947754
vt 0.871094 0.94873
vt 0.87207 0.947754
vt 0.871094 0.947754
vt 0.871094 0.948242
vt 0.870117 0.94873
vt 0.870117 0.948242
vt 0.563965 0.006195
vt 0.561035 0.006195
vt 0.561035 0.006805
vt 0.563965 0.006805
vt 0.564941 0.006195
vt 0.564941 0.006805
vt 0.566895 0.006195
vt 0.566895 0.006805
vt 0.571289 0.006195
vt 0.571289 0.006805
vt 0.573242 0.006805
vt 0.573242 0.006195
vt 0.574219 0.006805
vt 0.574219 0.006195
vt 0.577148 0.006805
vt 0.577148 0.006195
vn 0.4677 -0.8624 0.1936
vn 0.4744 -0.8793 0.0409
vn 0.6719 -0.7137 0.1982
vn 0.234 -0.9714 0.0414
vn 0.2252 -0.9556 0.1903
vn 0.4682 -0.8711 0.1483
vn 0.2309 -0.9679 0.099
vn 0.6852 -0.7219 0.097
vn 0.8418 -0.5184 0.1506
vn 0.4765 -0.8789 -0.0215
vn 0.2321 -0.9725 -0.0191
vn 0.6885 -0.724 0.0427
vn 0.8378 -0.5108 0.1929
vn 0.8522 -0.5216 0.0415
vn 0.9543 -0.2829 0.0965
vn 0.4349 -0.8005 -0.4123
vn 0.2088 -0.8897 -0.4059
vn 0.1967 -0.8308 0.5206
vn 0.6864 -0.727 -0.0196
vn 0.4006 -0.7437 0.5352
vn 0.6306 -0.6621 -0.4049
vn 0.8509 -0.525 -0.0191
vn 0.9582 -0.2853 -0.0198
vn 0.7824 -0.4724 -0.4058
vn 0.5877 -0.6198 0.5201
vn 0.5753 -0.604 0.5516
vn 0.3913 -0.7284 0.5624
vn 0.7346 -0.4517 0.5063
vn 0.7171 -0.4432 0.5378
vn 0.8091 -0.2403 0.5363
vn 0.2306 -0.973 0
vn 0.1914 -0.8129 0.55
vn 0.4772 -0.8788 0
vn 0.6854 -0.7282 0
vn 0.8523 -0.523 0
vn 0.9583 -0.2858 0
vn 0.7927 -0.2347 0.5626
vn 0.8426 -0.0233 0.538
vn 0.1273 -0.4231 0.8971
vn 0.2334 0.0736 0.9696
vn -0.0146 -0.9633 0.2679
vn -0.0159 -0.9999 0
vn -0.0146 -0.9633 -0.2679
vn 0.1273 -0.4231 -0.8971
vn 0.2358 0.0711 -0.9692
vn 0.9617 -0.2742 0
vn 0.9999 -0.0169 0.002
vn 0.9699 0.2434 0.0012
vn 0.9692 0.2462 0.0012
vn 0.86 -0.5104 0
vn 0.8926 0.4509 0.0013
vn 0.8581 -0.5135 0
vn 0.9004 0.4352 -0.0013
vn 0.8034 0.5954 -0.0014
vn 0.8034 0.5954 0.0014
vn 0.6967 -0.7174 0
vn 0.4867 -0.8736 0
vn 0.2417 -0.9704 0
vn 0.9804 -0.1968 0
vn 0.9894 -0.1453 0
vn 0.9862 0.1657 -0.0011
vn 0.9935 0.1138 0.0011
vn 0.9699 0.2434 -0.0012
vn 0.8942 0.4477 -0.0013
vn 0.9004 0.4352 0.0013
vn 0.7235 -0.0267 0.6898
vn 0.9714 -0.0156 0.2369
vn 0.9604 -0.2576 0.1061
vn 0.7249 0.0042 0.6889
vn 0.97 0.2123 0.1182
vn 0.9705 0.2073 -0.1234
vn 0.912 0.4101 0.0013
vn 0.9048 0.4257 -0.0013
vn 0.9716 -0.0131 -0.2363
vn 0.7262 0.0014 -0.6875
vn 0.7235 -0.0267 -0.6898
vn 0.9604 -0.2576 -0.1061
vn 0.8504 -0.5261 0
vn 0.6825 -0.7309 0
vn 0 -0.001 -1
vn -0.2194 -0.9519 -0.2139
vn -0.1558 -0.9877 -0.0113
vn -0.1482 -0.9889 -0.0112
vn -0.2151 -0.9053 -0.3662
vn 0.1677 0.2822 -0.9446
vn 0.1797 0.2813 -0.9426
vn 0.3635 -0.9265 0.0977
vn 0.3537 -0.9332 0.0634
vn 0.6826 -0.7251 0.0908
vn 0.6873 -0.7234 0.0664
vn 0.9134 -0.4013 0.0676
vn 0.7911 -0.5582 0.2502
vn 0.9119 -0.3996 0.0934
vn 0.9975 -0.0266 0.0661
vn 0.1629 -0.9549 0.2484
vn 0.9947 -0.0341 0.0968
vn 0.9274 0.3615 0.0961
vn 0.9311 0.3589 0.0649
vn 0.955 0.1643 0.2471
vn 0.7711 -0.5478 0.3245
vn 0.1607 -0.9323 0.3241
vn 0.7257 0.6817 0.0924
vn 0.7227 0.6881 0.0649
vn 0.4074 0.9108 0.0663
vn 0.5612 0.7895 0.2486
vn 0.4025 0.9108 0.092
vn 0.2226 0.9729 0.0627
vn 0.2218 0.9694 0.1052
vn 0.2174 0.9477 0.2338
vn 0.5446 0.7727 0.3261
vn 0.2101 0.9295 0.3032
vn 0.4709 0.672 0.5715
vn 0.1805 0.8024 0.5688
vn 0.932 0.1593 0.3255
vn 0.7856 0.1356 0.6037
vn 0.1447 -0.1049 0.9839
vn 0.6676 -0.4747 0.5736
vn 0.134 -0.7876 0.6015
vn 0 -0.001 1
vn -0.0274 -0.9882 0.1505
vn -0.2844 -0.9538 0.0966
vn -0.2757 -0.9417 0.193
vn -0.5201 -0.8407 0.1507
vn -0.7233 -0.6836 0.097
vn -0.8682 -0.4734 0.1486
vn -0.5081 -0.8402 0.1894
vn -0.2837 -0.9579 0.0427
vn -0.0271 -0.9988 0.0417
vn -0.7122 -0.6735 0.1982
vn -0.5232 -0.8512 0.0415
vn -0.2838 -0.9587 -0.0197
vn -0.0287 -0.9994 -0.0205
vn -0.0262 -0.9167 -0.3987
vn -0.2589 -0.8776 -0.4034
vn -0.0245 -0.86 0.5097
vn -0.242 -0.8083 0.5368
vn -0.0247 -0.8422 0.5386
vn -0.0281 -0.9996 0
vn -0.2843 -0.9587 0
vn -0.2365 -0.7918 0.5631
vn -0.4386 -0.7095 0.5516
vn -0.5214 -0.8533 0
vn -0.4474 -0.7274 0.5203
vn -0.609 -0.5701 0.5515
vn -0.7269 -0.6868 0
vn -0.8779 -0.4788 0
vn -0.7421 -0.399 0.5385
vn -0.9727 -0.232 0
vn -0.6214 -0.586 0.5201
vn -0.4742 -0.7812 -0.406
vn -0.6637 -0.6289 -0.4049
vn -0.5234 -0.8519 -0.0191
vn -0.7593 -0.4075 0.5073
vn -0.7254 -0.687 0.0427
vn -0.7256 -0.6878 -0.0196
vn -0.7994 -0.4368 -0.4126
vn -0.8224 -0.1957 0.5341
vn -0.8785 -0.4761 0.0409
vn -0.8798 -0.4749 -0.0215
vn -0.9722 -0.2335 -0.0192
vn -0.8646 -0.465 0.1902
vn -0.9712 -0.2349 0.0389
vn -0.9552 -0.2267 0.1905
vn -0.9683 -0.2294 0.0989
vn -0.9988 0.0282 0.0407
vn -0.9817 0.0269 0.1884
vn -0.9885 0.0262 0.149
vn -0.9536 0.2857 0.0952
vn -0.9415 0.2771 0.1916
vn -0.8433 0.5154 0.1521
vn -0.9577 0.2849 0.0414
vn -0.8363 0.5138 0.1914
vn -0.6843 0.7225 0.0986
vn -0.2757 -0.9612 0
vn -0.5119 -0.859 0
vn -0.7188 -0.6953 0
vn -0.8727 -0.4882 0
vn -0.9693 -0.2459 0
vn -0.9999 0.0149 -0.001
vn -0.9692 0.2462 -0.0012
vn -0.967 0.2546 -0.0012
vn -0.9004 0.4352 -0.0013
vn -0.8926 0.4509 -0.0013
vn -0.7847 0.6198 -0.0014
vn -0.1102 -0.0011 -0.9939
vn -0.1104 0.0142 -0.9938
vn -0.1092 -0.0142 -0.9939
vn -0.7078 -0.7064 0
vn -0.716 -0.6981 0
vn -0.8637 -0.504 0
vn -0.9554 -0.2134 0.204
vn -0.9239 0.0194 0.3822
vn -0.7277 0.021 0.6856
vn -0.7301 0.05 0.6815
vn -0.9616 0.2746 -0.0012
vn -0.9492 0.2383 0.2056
vn -0.8844 0.4667 -0.0013
vn -0.8759 0.4825 -0.0013
vn -0.9554 -0.2134 -0.204
vn -0.9239 0.0194 -0.3822
vn -0.7277 0.021 -0.6856
vn -0.7301 0.05 -0.6815
vn -0.9492 0.2383 -0.2056
vn 0.9996 -0.0292 0.002
vn 0.9733 0.2295 0.0012
vn 0.8052 0.1903 0.5617
vn 0.8794 0.4762 0.0013
vn 0.7411 0.4026 0.5373
vn 0.8213 0.1958 0.5359
vn 0.7289 0.6846 -0.0014
vn 0.6008 0.5703 0.5602
vn 0.4434 0.7157 0.5397
vn 0.5236 0.852 0.0013
vn 0.2832 0.9591 0.0012
vn 0.2411 0.798 0.5523
vn 0.6137 0.5799 0.5359
vn 0.4519 0.7332 0.5081
vn 0.4758 0.7811 -0.4044
vn 0.2463 0.8165 0.5221
vn 0.2574 0.8774 -0.4048
vn 0.2856 0.9581 -0.021
vn 0.5224 0.8525 -0.0205
vn 0.2849 0.9577 0.0414
vn 0.6624 0.6292 -0.4067
vn 0.7583 0.4111 0.506
vn 0.8006 0.4333 -0.414
vn 0.7277 0.6856 -0.021
vn 0.7234 0.6892 0.0412
vn 0.8784 0.4775 -0.0202
vn 0.521 0.8526 0.0401
vn 0.8788 0.4755 0.0395
vn 0.7131 0.6729 0.1965
vn 0.5113 0.8371 0.1946
vn 0.2771 0.9415 0.1916
vn 0.5154 0.8433 0.1521
vn 0.2826 0.9545 0.0951
vn 0.7225 0.6843 0.0986
vn 0.8647 0.4629 0.195
vn 0.8704 0.468 0.1531
vn 0.9718 0.2323 0.0401
vn 0.9548 0.2269 0.192
vn 0.9678 0.2321 0.0977
vn 0.9721 0.2337 -0.0204
vn 0.9988 -0.0282 0.0396
vn 0.982 -0.0269 0.187
vn 0.9882 -0.0285 0.1506
vn 0.9411 -0.2774 0.1932
vn 0.9584 -0.2822 0.0427
vn 0.9994 -0.0276 -0.0184
vn 0.8769 -0.2607 -0.4038
vn 0.9183 -0.0249 -0.3951
vn 0.89 0.2104 -0.4045
vn 0.8623 -0.0231 0.5059
vn 0.3348 0.5677 0.7521
vn 0.0829 0.2092 0.9743
vn 0.051 0.179 0.9825
vn 0.1239 0.0706 0.9898
vn 0.115 0.1102 0.9872
vn 0.1239 0.0706 -0.9898
vn 0.115 0.1102 -0.9872
vn 0.0604 0.167 -0.9841
vn 0.0597 0.2107 -0.9757
vn 0.3319 0.5812 -0.743
vn -0.0352 -0.9947 0.0969
vn -0.0277 -0.9976 0.0639
vn -0.4013 -0.9112 0.0935
vn -0.4062 -0.9113 0.0677
vn -0.5599 -0.7898 0.2502
vn -0.7265 -0.6811 0.0908
vn -0.7248 -0.6858 0.0664
vn -0.9326 -0.3553 0.0634
vn -0.9264 -0.3643 0.0948
vn -0.9975 0.0266 0.0649
vn -0.5452 -0.7745 0.3207
vn -0.9552 -0.1614 0.2481
vn -0.9947 0.0364 0.0958
vn -0.9115 0.4016 0.0891
vn -0.9123 0.4041 0.0662
vn -0.792 0.5577 0.2484
vn -0.6817 0.7257 0.0924
vn -0.6881 0.7227 0.0649
vn -0.3557 0.9323 0.0648
vn -0.3607 0.928 0.0932
vn -0.1677 0.9837 0.0654
vn -0.1672 0.9826 0.0806
vn -0.4925 0.8401 0.2272
vn -0.7722 0.5474 0.3227
vn -0.5071 0.8073 0.3018
vn -0.9326 -0.1591 0.3238
vn -0.6662 0.4783 0.5722
vn -0.4379 0.6943 0.5711
vn -0.3913 0.2765 0.8778
vn -0.7869 -0.1356 0.6021
vn -0.4728 -0.669 0.5734
vn 0.1976 0.3041 0.9319
vn 0.1748 0.2931 0.94
vn 0.1776 0.2905 -0.9403
vn 0.2005 0.3014 -0.9322
vn 0.5735 0.7425 -0.3461
vn 0.5862 0.7356 -0.3394
vn 0.5862 0.7356 0.3394
vn 0.5735 0.7425 0.3461
vn 0.1677 0.2822 0.9446
vn 0.1797 0.2813 0.9426
vn -0.0257 -0.9815 0.1895
vn 0.1502 0.9555 0.2538
vn 0.1551 0.9703 0.1858
vn 0.1562 0.9869 0.0405
vn 0.1557 0.9876 -0.0193
vn 0.1455 0.9086 -0.3914
vn 0.1336 0.8355 0.533
vn 0.1313 0.8187 0.5591
vn 0.158 0.9874 -0.0011
vn 0.3344 0.5605 0.7576
vn 0.6074 0.777 0.1651
vn 0.6129 0.7734 0.1619
vn 0.6129 0.7734 -0.1619
vn 0.6074 0.777 -0.1651
vn 0.3644 0.5735 -0.7337
vn -0.181 0.2944 -0.9384
vn -0.1663 0.3011 -0.939
vn -0.5594 0.7677 -0.3125
vn -0.5684 0.7638 -0.3058
vn -0.5684 0.7638 0.3058
vn -0.5594 0.7677 0.3125
vn -0.1919 0.3095 0.9313
vn -0.1763 0.3096 0.9344
vn -0.0936 0.0983 -0.9907
vn -0.1037 0.13 -0.9861
vn -0.1059 0.157 -0.9819
vn -0.0848 0.1516 -0.9848
vn -0.1244 0.9922 -0.0099
vn -0.1978 0.9479 -0.2496
vn -0.1905 0.958 -0.2145
vn -0.115 0.9933 -0.012
vn -0.1735 0.3123 -0.934
vn -0.189 0.3122 -0.931
vn -0.181 0.2944 0.9384
vn -0.1692 0.2984 0.9393
vn -0.0839 0.0999 0.9915
vn -0.1102 0.115 0.9872
vn -0.1028 0.1512 0.9832
vn -0.0993 0.1753 0.9795
vn -0.4705 0.8696 0.15
vn -0.6729 0.7131 0.1965
vn -0.2321 0.9678 0.0977
vn -0.1033 0.9939 0.0389
vn -0.1028 0.977 0.187
vn -0.2269 0.9548 0.192
vn -0.4655 0.864 0.1918
vn -0.2323 0.9718 0.0401
vn -0.1037 0.9944 -0.0186
vn -0.4755 0.8788 0.0395
vn -0.2309 0.9728 -0.0203
vn -0.2104 0.89 -0.4045
vn -0.0976 0.9138 -0.3944
vn -0.0872 0.8416 0.533
vn -0.6892 0.7234 0.0412
vn -0.4775 0.8784 -0.0202
vn -0.4359 0.8027 -0.407
vn -0.8506 0.5242 0.0401
vn -0.8525 0.5224 -0.0205
vn -0.6856 0.7277 -0.021
vn -0.6258 0.6656 -0.4067
vn -0.7765 0.477 -0.4118
vn -0.959 0.2826 -0.021
vn -0.9994 0.0297 -0.0195
vn -0.8774 0.2574 -0.4048
vn -0.8892 -0.2105 -0.4063
vn -0.9167 0.0222 -0.3989
vn -0.8613 0.0231 0.5075
vn -0.8182 0.2428 0.5212
vn -0.7186 0.4431 0.536
vn -0.8437 0.0233 0.5364
vn -0.7998 0.2376 0.5513
vn -0.8049 -0.1936 0.561
vn -0.9996 0.0271 -0.001
vn -0.9582 0.2861 -0.0012
vn -0.8539 0.5204 -0.0013
vn -0.7031 0.4338 0.5635
vn -0.5735 0.6073 0.5498
vn -0.6875 0.7262 -0.0014
vn -0.4793 0.8776 -0.0013
vn -0.3989 0.7435 0.5367
vn -0.5861 0.6198 0.5219
vn -0.2323 0.9727 -0.0012
vn -0.4111 0.7583 0.506
vn -0.2018 0.8298 0.5203
vn -0.1965 0.8118 0.5498
vn -0.1043 0.9945 -0.0011
vn -0.0847 0.8253 0.5583
vn -0.0156 0.969 -0.2468
vn 0.0149 0.9999 -0.001
vn -0.0924 0.7114 -0.6967
vn -0.2987 0.5703 -0.7652
vn -0.3352 0.5748 -0.7465
vn -0.5825 0.7924 -0.181
vn -0.5871 0.7905 -0.1745
vn -0.5825 0.7924 0.181
vn -0.5871 0.7905 0.1745
vn -0.3387 0.572 0.747
vn -0.3022 0.5676 0.7658
vn -0.0924 0.7114 0.6967
vn -0.0156 0.969 0.2468
o bullet04__p0_c0
f 1/1/1 2/2/2 3/3/3
f 2/2/2 1/1/1 4/4/4
f 4/4/4 1/1/1 5/5/5
f 5/5/5 1/1/1 6/6/6
f 5/5/5 6/6/6 7/7/7
f 6/6/6 1/1/1 8/8/8
f 8/8/8 1/1/1 3/3/3
f 8/8/8 3/3/3 9/9/9
f 2/2/2 4/4/4 10/10/10
f 10/10/10 4/4/4 11/11/11
f 12/12/12 3/3/3 2/2/2
f 12/12/12 2/2/2 10/10/10
f 9/9/9 3/3/3 13/13/13
f 3/3/3 12/12/12 14/14/14
f 3/3/3 14/14/14 13/13/13
f 9/9/9 13/13/13 15/15/15
f 10/10/10 11/11/11 16/16/16
f 16/16/16 11/11/11 17/17/17
f 16/16/16 17/17/17 18/18/18
f 12/12/12 10/10/10 19/19/19
f 19/19/19 10/10/10 16/16/16
f 12/12/12 19/19/19 14/14/14
f 16/16/16 18/18/18 20/20/20
f 19/19/19 16/16/16 21/21/21
f 21/21/21 16/16/16 20/20/20
f 14/14/14 19/19/19 22/22/22
f 22/22/22 19/19/19 21/21/21
f 14/14/14 22/22/22 23/23/23
f 22/22/22 21/21/21 24/24/24
f 22/22/22 24/24/24 23/23/23
f 21/21/21 20/20/20 25/25/25
f 21/21/21 25/25/25 24/24/24
f 25/25/25 20/20/20 26/26/26
f 26/26/26 20/20/20 27/27/27
f 24/24/24 25/25/25 28/28/28
f 28/28/28 25/25/25 29/29/29
f 29/29/29 25/25/25 26/26/26
f 24/24/24 28/28/28 30/30/30
f 30/30/30 28/28/28 29/29/29
f 31/31/31 27/27/27 32/32/32
f 27/27/27 31/31/31 33/33/33
f 27/27/27 33/33/33 26/26/26
f 26/26/26 33/33/33 34/34/34
f 26/26/26 34/34/34 35/35/35
f 26/26/26 35/35/35 29/29/29
f 29/29/29 35/35/35 36/36/36
f 29/29/29 36/36/36 37/37/37
f 29/29/29 37/37/37 30/30/30
f 37/37/37 36/36/36 38/38/38
f 37/37/37 38/38/38 30/30/30
f 39/39/39 40/40/40 41/41/41
f 39/39/39 41/41/41 42/42/42
f 42/42/42 41/41/41 43/43/42
f 44/44/42 45/45/43 46/46/42
f 46/46/42 45/45/43 47/47/44
f 47/47/44 45/45/43 48/48/45
f 49/49/46 50/50/47 51/51/47
f 51/51/47 50/50/47 52/52/48
f 50/50/47 49/49/46 53/53/46
f 52/52/48 50/50/47 54/54/49
f 53/53/46 49/49/46 55/55/50
f 52/52/48 54/54/49 56/56/51
f 53/53/46 55/55/50 57/57/52
f 56/56/51 54/54/49 58/58/53
f 56/56/51 58/58/53 59/59/54
f 59/59/54 58/58/53 60/60/55
f 57/57/52 55/55/50 61/61/56
f 57/57/52 61/61/56 62/62/56
f 62/62/56 61/61/56 63/63/57
f 62/62/56 63/63/57 64/64/57
f 64/64/57 63/63/57 65/65/58
f 65/65/58 63/63/57 66/66/58
f 67/67/47 68/68/59 69/69/60
f 68/68/59 67/67/47 70/70/47
f 68/68/59 70/70/47 71/71/46
f 68/68/59 71/71/46 72/72/50
f 70/70/47 67/67/47 73/73/61
f 73/73/61 67/67/47 74/74/62
f 70/70/47 73/73/61 75/75/63
f 72/72/50 71/71/46 76/76/52
f 75/75/63 73/73/61 77/77/64
f 72/72/50 76/76/52 78/78/56
f 75/75/63 77/77/64 79/79/65
f 79/79/65 77/77/64 80/80/54
f 79/79/65 80/80/54 81/81/55
f 78/78/56 76/76/52 82/82/56
f 78/78/56 82/82/56 83/83/57
f 78/78/56 83/83/57 84/84/57
f 84/84/57 83/83/57 85/85/58
f 84/84/57 85/85/58 86/86/58
f 44/87/66 87/88/67 45/89/68
f 87/88/67 44/87/66 88/90/69
f 87/88/67 88/90/69 89/91/70
f 87/88/67 89/91/70 90/92/71
f 90/92/71 89/91/70 91/93/72
f 90/92/71 91/93/72 92/94/73
f 92/94/73 91/93/72 93/95/54
f 93/95/54 91/93/72 94/96/54
f 87/88/67 90/92/71 95/97/74
f 87/88/67 95/97/74 45/89/68
f 95/97/74 90/92/71 96/98/75
f 95/97/74 96/98/75 43/99/76
f 95/97/74 43/99/76 41/100/77
f 95/97/74 41/100/77 45/89/68
f 45/89/68 41/100/77 40/101/78
f 45/89/68 40/101/78 48/102/35
f 48/102/35 40/101/78 97/103/79
f 97/103/79 40/101/78 98/104/34
f 97/103/79 98/104/34 99/105/57
f 97/103/79 99/105/57 100/106/57
f 100/106/57 99/105/57 101/107/58
f 100/106/57 101/107/58 102/108/58
f 103/109/80 104/110/80 105/111/80
f 104/110/80 103/109/80 106/112/80
f 106/112/80 103/109/80 107/113/80
f 106/112/80 107/113/80 108/114/80
f 106/112/80 108/114/80 109/115/80
f 109/115/80 108/114/80 110/116/80
f 109/115/80 110/116/80 111/117/80
f 111/117/80 110/116/80 112/118/80
f 112/118/80 110/116/80 113/119/80
f 112/118/80 113/119/80 114/120/80
f 114/120/80 113/119/80 115/121/80
f 114/120/80 115/121/80 116/122/80
f 114/120/80 116/122/80 31/123/80
f 31/123/80 116/122/80 117/124/80
f 31/123/80 117/124/80 33/125/80
f 33/125/80 117/124/80 118/126/80
f 33/125/80 118/126/80 34/127/80
f 34/127/80 118/126/80 35/128/80
f 35/128/80 118/126/80 119/129/80
f 35/128/80 119/129/80 120/130/80
f 35/128/80 120/130/80 36/131/80
f 36/131/80 120/130/80 121/132/80
f 68/133/81 122/134/82 69/135/83
f 122/134/82 68/133/81 123/136/84
f 123/136/84 68/133/81 72/137/80
f 123/136/84 72/137/80 124/138/80
f 124/138/80 72/137/80 78/139/80
f 124/138/80 78/139/80 84/140/80
f 124/138/80 84/140/80 125/141/80
f 125/141/80 84/140/80 86/142/80
f 125/141/80 86/142/80 126/143/80
f 125/141/80 126/143/80 127/144/80
f 127/144/80 126/143/80 128/145/80
f 127/144/80 128/145/80 129/146/80
f 127/144/80 129/146/80 130/147/80
f 130/147/80 129/146/80 131/148/80
f 130/147/80 131/148/80 132/149/80
f 130/147/80 132/149/80 133/150/80
f 133/150/80 132/149/80 134/151/80
f 133/150/80 134/151/80 135/152/80
f 133/150/80 135/152/80 136/153/80
f 136/153/80 135/152/80 137/154/80
f 136/153/80 137/154/80 138/155/85
f 136/153/80 138/155/85 139/156/86
f 140/157/87 141/158/88 142/159/89
f 142/159/89 141/158/88 143/160/90
f 142/159/89 143/160/90 144/161/91
f 140/157/87 142/159/89 145/162/92
f 142/159/89 144/161/91 146/163/93
f 142/159/89 146/163/93 145/162/92
f 146/163/93 144/161/91 147/164/94
f 140/157/87 145/162/92 148/165/95
f 146/163/93 147/164/94 149/166/96
f 146/163/93 149/166/96 145/162/92
f 149/166/96 147/164/94 150/167/97
f 150/167/97 147/164/94 151/168/98
f 145/162/92 149/166/96 152/169/99
f 152/169/99 149/166/96 150/167/97
f 148/165/95 145/162/92 153/170/100
f 153/170/100 145/162/92 152/169/99
f 148/165/95 153/170/100 154/171/101
f 150/167/97 151/168/98 155/172/102
f 155/172/102 151/168/98 156/173/103
f 155/172/102 156/173/103 157/174/104
f 150/167/97 155/172/102 158/175/105
f 150/167/97 158/175/105 152/169/99
f 155/172/102 157/174/104 159/176/106
f 155/172/102 159/176/106 158/175/105
f 159/176/106 157/174/104 160/177/107
f 159/176/106 160/177/107 161/178/108
f 159/176/106 161/178/108 158/175/105
f 158/175/105 161/178/108 162/179/109
f 158/175/105 162/179/109 163/180/110
f 158/175/105 163/180/110 152/169/99
f 163/180/110 162/179/109 164/181/111
f 163/180/110 164/181/111 165/182/112
f 165/182/112 164/181/111 166/183/113
f 152/169/99 163/180/110 167/184/114
f 167/184/114 163/180/110 165/182/112
f 152/169/99 167/184/114 153/170/100
f 167/184/114 165/182/112 168/185/115
f 168/185/115 165/182/112 169/186/116
f 153/170/100 167/184/114 170/187/117
f 170/187/117 167/184/114 168/185/115
f 170/187/117 168/185/115 169/186/116
f 153/170/100 170/187/117 154/171/101
f 170/187/117 169/186/116 171/188/118
f 170/187/117 171/188/118 154/171/101
f 172/189/119 173/190/119 174/191/120
f 174/191/120 173/190/119 175/192/121
f 174/191/120 175/192/121 176/193/122
f 175/192/121 173/190/119 177/194/123
f 175/192/121 177/194/123 176/193/122
f 177/194/123 173/190/119 178/195/119
f 177/194/123 178/195/119 179/196/124
f 179/196/124 178/195/119 180/197/125
f 176/193/122 177/194/123 181/198/126
f 181/198/126 177/194/123 179/196/124
f 180/197/125 178/195/119 182/199/119
f 176/193/122 181/198/126 183/200/127
f 176/193/122 183/200/127 184/201/128
f 181/198/126 179/196/124 185/202/129
f 185/202/129 179/196/124 180/197/125
f 183/200/127 181/198/126 186/203/130
f 186/203/130 181/198/126 185/202/129
f 184/201/128 183/200/127 187/204/131
f 187/204/131 183/200/127 186/203/130
f 184/201/128 187/204/131 188/205/132
f 184/201/128 188/205/132 11/11/11
f 11/11/11 188/205/132 17/17/17
f 17/17/17 188/205/132 189/206/133
f 188/205/132 187/204/131 190/207/134
f 188/205/132 190/207/134 189/206/133
f 17/17/17 189/206/133 18/18/18
f 18/18/18 189/206/133 191/208/135
f 189/206/133 190/207/134 192/209/136
f 189/206/133 192/209/136 191/208/135
f 18/18/18 191/208/135 193/210/137
f 193/210/137 191/208/135 192/209/136
f 18/18/18 193/210/137 32/32/32
f 18/18/18 32/32/32 20/20/20
f 20/20/20 32/32/32 27/27/27
f 32/32/32 193/210/137 31/31/31
f 31/31/31 193/210/137 114/211/138
f 114/211/138 193/210/137 112/212/139
f 193/210/137 192/209/136 194/213/140
f 193/210/137 194/213/140 112/212/139
f 112/212/139 194/213/140 195/214/141
f 195/214/141 194/213/140 192/209/136
f 112/212/139 195/214/141 111/215/142
f 195/214/141 192/209/136 196/216/143
f 196/216/143 192/209/136 190/207/134
f 111/215/142 195/214/141 197/217/144
f 197/217/144 195/214/141 196/216/143
f 111/215/142 197/217/144 109/218/145
f 109/218/145 197/217/144 106/219/146
f 106/219/146 197/217/144 198/220/147
f 106/219/146 198/220/147 104/221/148
f 197/217/144 196/216/143 199/222/149
f 197/217/144 199/222/149 198/220/147
f 200/223/150 196/216/143 190/207/134
f 200/223/150 190/207/134 187/204/131
f 199/222/149 196/216/143 201/224/151
f 201/224/151 196/216/143 200/223/150
f 200/223/150 187/204/131 202/225/152
f 200/223/150 202/225/152 201/224/151
f 202/225/152 187/204/131 186/203/130
f 203/226/153 198/220/147 199/222/149
f 202/225/152 186/203/130 204/227/154
f 204/227/154 186/203/130 185/202/129
f 201/224/151 202/225/152 205/228/155
f 205/228/155 202/225/152 204/227/154
f 206/229/156 199/222/149 201/224/151
f 199/222/149 206/229/156 203/226/153
f 206/229/156 201/224/151 205/228/155
f 207/230/157 198/220/147 203/226/153
f 207/230/157 203/226/153 206/229/156
f 208/231/158 204/227/154 185/202/129
f 204/227/154 208/231/158 205/228/155
f 206/229/156 205/228/155 209/232/159
f 209/232/159 205/228/155 208/231/158
f 206/229/156 209/232/159 210/233/160
f 210/233/160 209/232/159 208/231/158
f 208/231/158 185/202/129 211/234/161
f 211/234/161 185/202/129 180/197/125
f 208/231/158 211/234/161 212/235/162
f 208/231/158 212/235/162 210/233/160
f 211/234/161 180/197/125 213/236/163
f 211/234/161 213/236/163 212/235/162
f 213/236/163 180/197/125 214/237/164
f 214/237/164 180/197/125 182/199/119
f 212/235/162 213/236/163 215/238/165
f 212/235/162 215/238/165 210/233/160
f 213/236/163 214/237/164 216/239/166
f 213/236/163 216/239/166 215/238/165
f 214/237/164 182/199/119 217/240/167
f 214/237/164 217/240/167 216/239/166
f 217/240/167 182/199/119 218/241/119
f 216/239/166 217/240/167 219/242/168
f 219/242/168 217/240/167 218/241/119
f 215/238/165 216/239/166 220/243/169
f 220/243/169 216/239/166 219/242/168
f 219/242/168 218/241/119 221/244/170
f 219/242/168 221/244/170 220/243/169
f 221/244/170 218/241/119 222/245/119
f 215/238/165 220/243/169 223/246/171
f 220/243/169 221/244/170 224/247/172
f 220/243/169 224/247/172 223/246/171
f 221/244/170 222/245/119 225/248/173
f 221/244/170 225/248/173 224/247/172
f 102/108/58 101/107/58 226/249/42
f 102/108/58 226/249/42 227/250/42
f 227/250/42 226/249/42 228/251/174
f 227/250/42 228/251/174 229/252/174
f 229/252/174 228/251/174 230/253/175
f 230/253/175 228/251/174 231/254/175
f 230/253/175 231/254/175 232/255/176
f 232/255/176 231/254/175 233/256/176
f 232/255/176 233/256/176 234/257/177
f 232/255/176 234/257/177 235/258/177
f 235/258/177 234/257/177 236/259/178
f 236/259/178 234/257/177 237/260/178
f 236/259/178 237/260/178 238/261/179
f 236/259/178 238/261/179 239/262/179
f 239/262/179 238/261/179 240/263/180
f 239/262/179 240/263/180 241/264/181
f 241/264/181 240/263/180 242/265/182
f 242/265/182 240/263/180 243/266/183
f 242/265/182 243/266/183 244/267/184
f 242/265/182 244/267/184 245/268/184
f 67/269/185 69/270/186 246/271/185
f 246/271/185 69/270/186 122/272/186
f 67/269/185 246/271/185 74/273/187
f 74/273/187 246/271/185 247/274/187
f 65/65/58 66/66/58 248/275/42
f 65/65/58 248/275/42 249/276/42
f 249/276/42 248/275/42 250/277/174
f 249/276/42 250/277/174 251/278/174
f 251/278/174 250/277/174 252/279/175
f 251/278/174 252/279/175 253/280/175
f 253/280/175 252/279/175 254/281/188
f 254/281/188 252/279/175 255/282/189
f 254/281/188 255/282/189 256/283/190
f 256/283/190 255/282/189 257/284/177
f 256/283/190 257/284/177 42/285/191
f 42/285/191 257/284/177 258/286/178
f 42/285/191 258/286/178 259/287/179
f 42/285/191 259/287/179 260/288/192
f 42/285/191 260/288/192 39/289/193
f 39/289/193 260/288/192 261/290/194
f 260/288/192 259/287/179 262/291/195
f 261/290/194 260/288/192 263/292/196
f 263/292/196 260/288/192 262/291/195
f 263/292/196 262/291/195 264/293/197
f 263/292/196 264/293/197 265/294/198
f 265/294/198 264/293/197 266/295/184
f 266/295/184 264/293/197 267/296/184
f 86/86/58 85/85/58 126/297/42
f 126/297/42 85/85/58 268/298/42
f 126/297/42 268/298/42 128/299/174
f 128/299/174 268/298/42 269/300/174
f 128/299/174 269/300/174 129/301/175
f 129/301/175 269/300/174 270/302/175
f 129/301/175 270/302/175 131/303/189
f 131/303/189 270/302/175 271/304/188
f 131/303/189 271/304/188 272/305/190
f 131/303/189 272/305/190 132/306/177
f 132/306/177 272/305/190 46/307/199
f 132/306/177 46/307/199 134/308/178
f 134/308/178 46/307/199 135/309/179
f 135/309/179 46/307/199 273/310/200
f 273/310/200 46/307/199 47/311/201
f 273/310/200 47/311/201 274/312/202
f 273/310/200 274/312/202 275/313/203
f 273/310/200 275/313/203 135/309/179
f 135/309/179 275/313/203 137/314/195
f 137/314/195 275/313/203 138/315/197
f 138/315/197 275/313/203 276/316/198
f 138/315/197 276/316/198 277/317/184
f 138/315/197 277/317/184 278/318/184
f 121/319/204 38/38/38 36/36/36
f 38/38/38 121/319/204 120/320/205
f 38/38/38 120/320/205 279/321/206
f 279/321/206 120/320/205 119/322/207
f 279/321/206 119/322/207 280/323/208
f 38/38/38 279/321/206 281/324/209
f 281/324/209 279/321/206 280/323/208
f 280/323/208 119/322/207 118/325/210
f 280/323/208 118/325/210 282/326/211
f 282/326/211 118/325/210 283/327/212
f 283/327/212 118/325/210 117/328/213
f 283/327/212 117/328/213 116/329/214
f 283/327/212 116/329/214 284/330/215
f 282/326/211 283/327/212 285/331/216
f 282/326/211 285/331/216 280/323/208
f 285/331/216 283/327/212 286/332/217
f 285/331/216 286/332/217 287/333/218
f 287/333/218 286/332/217 288/334/219
f 287/333/218 288/334/219 289/335/220
f 287/333/218 289/335/220 290/336/221
f 287/333/218 290/336/221 291/337/222
f 291/337/222 290/336/221 292/338/223
f 285/331/216 287/333/218 293/339/224
f 293/339/224 287/333/218 291/337/222
f 294/340/225 280/323/208 285/331/216
f 294/340/225 285/331/216 293/339/224
f 280/323/208 294/340/225 281/324/209
f 294/340/225 293/339/224 295/341/226
f 294/340/225 295/341/226 281/324/209
f 293/339/224 291/337/222 296/342/227
f 293/339/224 296/342/227 295/341/226
f 296/342/227 291/337/222 297/343/228
f 295/341/226 296/342/227 298/344/229
f 298/344/229 296/342/227 297/343/228
f 297/343/228 291/337/222 299/345/230
f 299/345/230 291/337/222 292/338/223
f 298/344/229 297/343/228 300/346/231
f 297/343/228 299/345/230 301/347/232
f 297/343/228 301/347/232 300/346/231
f 299/345/230 292/338/223 302/348/233
f 299/345/230 302/348/233 301/347/232
f 302/348/233 292/338/223 303/349/234
f 302/348/233 303/349/234 304/350/235
f 302/348/233 304/350/235 301/347/232
f 304/350/235 303/349/234 305/351/236
f 301/347/232 304/350/235 306/352/237
f 301/347/232 306/352/237 307/353/238
f 301/347/232 307/353/238 300/346/231
f 307/353/238 306/352/237 308/354/239
f 300/346/231 307/353/238 309/355/240
f 300/346/231 309/355/240 298/344/229
f 307/353/238 308/354/239 310/356/241
f 307/353/238 310/356/241 309/355/240
f 310/356/241 308/354/239 311/357/242
f 298/344/229 309/355/240 312/358/243
f 298/344/229 312/358/243 295/341/226
f 309/355/240 310/356/241 313/359/244
f 310/356/241 311/357/242 314/360/245
f 310/356/241 314/360/245 313/359/244
f 314/360/245 311/357/242 315/361/246
f 314/360/245 315/361/246 15/15/15
f 314/360/245 15/15/15 316/362/247
f 314/360/245 316/362/247 313/359/244
f 316/362/247 15/15/15 13/13/13
f 316/362/247 13/13/13 317/363/248
f 316/362/247 317/363/248 313/359/244
f 317/363/248 13/13/13 14/14/14
f 317/363/248 14/14/14 23/23/23
f 317/363/248 23/23/23 313/359/244
f 318/364/249 309/355/240 313/359/244
f 318/364/249 313/359/244 23/23/23
f 309/355/240 318/364/249 312/358/243
f 318/364/249 23/23/23 319/365/250
f 319/365/250 23/23/23 24/24/24
f 319/365/250 24/24/24 30/30/30
f 318/364/249 319/365/250 320/366/251
f 320/366/251 319/365/250 30/30/30
f 312/358/243 318/364/249 321/367/252
f 321/367/252 318/364/249 320/366/251
f 312/358/243 321/367/252 295/341/226
f 295/341/226 321/367/252 281/324/209
f 321/367/252 320/366/251 322/368/253
f 322/368/253 320/366/251 30/30/30
f 321/367/252 322/368/253 281/324/209
f 322/368/253 30/30/30 38/38/38
f 322/368/253 38/38/38 281/324/209
f 323/369/254 240/370/255 324/371/256
f 324/371/256 240/370/255 238/372/119
f 324/371/256 238/372/119 325/373/119
f 325/373/119 238/372/119 237/374/119
f 325/373/119 237/374/119 234/375/119
f 325/373/119 234/375/119 326/376/119
f 326/376/119 234/375/119 233/377/119
f 326/376/119 233/377/119 231/378/119
f 326/376/119 231/378/119 327/379/119
f 327/379/119 231/378/119 228/380/119
f 327/379/119 228/380/119 226/381/119
f 327/379/119 226/381/119 328/382/119
f 328/382/119 226/381/119 101/383/119
f 328/382/119 101/383/119 99/384/119
f 328/382/119 99/384/119 329/385/257
f 329/385/257 99/384/119 98/386/258
f 330/387/259 97/388/260 100/389/80
f 330/387/259 100/389/80 331/390/80
f 331/390/80 100/389/80 102/391/80
f 331/390/80 102/391/80 227/392/80
f 331/390/80 227/392/80 332/393/80
f 332/393/80 227/392/80 229/394/80
f 332/393/80 229/394/80 230/395/80
f 332/393/80 230/395/80 333/396/80
f 333/396/80 230/395/80 232/397/80
f 333/396/80 232/397/80 235/398/80
f 333/396/80 235/398/80 334/399/80
f 334/399/80 235/398/80 236/400/80
f 334/399/80 236/400/80 239/401/80
f 334/399/80 239/401/80 335/402/261
f 335/402/261 239/401/80 241/403/262
f 335/402/261 241/403/262 242/404/263
f 329/385/257 98/386/258 40/40/40
f 329/385/257 40/40/40 39/39/39
f 47/47/44 48/48/45 330/387/259
f 330/387/259 48/48/45 97/388/260
f 336/405/264 337/406/265 140/157/87
f 140/157/87 337/406/265 141/158/88
f 336/405/264 140/157/87 148/165/95
f 337/406/265 336/405/264 338/407/266
f 337/406/265 338/407/266 339/408/267
f 336/405/264 148/165/95 340/409/268
f 336/405/264 340/409/268 338/407/266
f 339/408/267 338/407/266 341/410/269
f 341/410/269 338/407/266 340/409/268
f 339/408/267 341/410/269 342/411/270
f 342/411/270 341/410/269 343/412/271
f 343/412/271 341/410/269 344/413/272
f 344/413/272 341/410/269 340/409/268
f 343/412/271 344/413/272 345/414/273
f 346/415/274 340/409/268 148/165/95
f 346/415/274 148/165/95 154/171/101
f 344/413/272 340/409/268 347/416/275
f 347/416/275 340/409/268 346/415/274
f 345/414/273 344/413/272 348/417/276
f 348/417/276 344/413/272 347/416/275
f 345/414/273 348/417/276 349/418/277
f 345/414/273 349/418/277 350/419/278
f 348/417/276 347/416/275 351/420/279
f 348/417/276 351/420/279 349/418/277
f 350/419/278 349/418/277 352/421/280
f 352/421/280 349/418/277 351/420/279
f 350/419/278 352/421/280 353/422/281
f 353/422/281 352/421/280 354/423/282
f 354/423/282 352/421/280 355/424/283
f 355/424/283 352/421/280 351/420/279
f 354/423/282 355/424/283 160/425/284
f 160/425/284 355/424/283 161/426/285
f 161/426/285 355/424/283 162/427/286
f 162/427/286 355/424/283 351/420/279
f 162/427/286 351/420/279 356/428/287
f 356/428/287 351/420/279 347/416/275
f 162/427/286 356/428/287 164/429/288
f 356/428/287 347/416/275 357/430/289
f 357/430/289 347/416/275 346/415/274
f 164/429/288 356/428/287 358/431/290
f 358/431/290 356/428/287 357/430/289
f 164/429/288 358/431/290 166/432/291
f 166/432/291 358/431/290 169/433/292
f 169/433/292 358/431/290 359/434/293
f 359/434/293 358/431/290 357/430/289
f 357/430/289 346/415/274 360/435/294
f 357/430/289 360/435/294 359/434/293
f 360/435/294 346/415/274 154/171/101
f 360/435/294 154/171/101 171/188/118
f 359/434/293 360/435/294 169/186/116
f 169/186/116 360/435/294 171/188/118
f 165/182/112 166/183/113 169/186/116
f 361/436/295 276/437/296 88/438/119
f 88/438/119 276/437/296 275/439/119
f 265/440/297 362/441/298 96/442/80
f 265/440/297 96/442/80 263/443/80
f 139/156/86 138/155/85 278/444/299
f 139/156/86 278/444/299 363/445/300
f 363/445/300 278/444/299 364/446/301
f 364/446/301 278/444/299 277/447/302
f 364/446/301 277/447/302 361/436/295
f 361/436/295 277/447/302 276/437/296
f 264/448/303 365/449/304 267/450/302
f 267/450/302 365/449/304 366/451/301
f 267/450/302 366/451/301 266/452/299
f 266/452/299 366/451/301 367/453/300
f 266/452/299 367/453/300 362/441/298
f 266/452/299 362/441/298 265/440/297
f 368/454/305 174/191/120 176/193/122
f 174/191/120 368/454/305 5/5/5
f 5/5/5 368/454/305 184/201/128
f 184/201/128 368/454/305 176/193/122
f 5/5/5 184/201/128 4/4/4
f 174/191/120 5/5/5 7/7/7
f 4/4/4 184/201/128 11/11/11
f 174/191/120 7/7/7 172/189/119
f 172/189/119 7/7/7 6/6/6
f 172/189/119 6/6/6 369/455/119
f 369/455/119 6/6/6 8/8/8
f 369/455/119 8/8/8 9/9/9
f 369/455/119 9/9/9 370/456/119
f 370/456/119 9/9/9 15/15/15
f 370/456/119 15/15/15 315/361/246
f 370/456/119 315/361/246 371/457/119
f 371/457/119 315/361/246 311/357/242
f 371/457/119 311/357/242 308/354/239
f 371/457/119 308/354/239 372/458/119
f 372/458/119 308/354/239 306/352/237
f 372/458/119 306/352/237 304/350/235
f 372/458/119 304/350/235 373/459/119
f 373/459/119 304/350/235 305/351/236
f 373/459/119 305/351/236 374/460/306
f 373/459/119 374/460/306 375/461/119
f 374/460/306 305/351/236 376/462/307
f 376/462/307 305/351/236 303/349/234
f 376/462/307 303/349/234 377/463/308
f 377/463/308 303/349/234 292/338/223
f 377/463/308 292/338/223 378/464/309
f 378/464/309 292/338/223 290/336/221
f 378/464/309 290/336/221 289/335/220
f 378/464/309 289/335/220 379/465/310
f 379/465/310 289/335/220 380/466/311
f 380/466/311 289/335/220 288/334/219
f 283/327/212 288/334/219 286/332/217
f 288/334/219 283/327/212 284/330/215
f 288/334/219 284/330/215 380/466/311
f 380/466/311 284/330/215 381/467/312
f 381/467/312 284/330/215 115/468/313
f 115/468/313 284/330/215 116/329/214
f 323/369/254 243/469/314 240/370/255
f 243/469/314 323/369/254 244/470/315
f 244/470/315 323/369/254 382/471/316
f 244/470/315 382/471/316 383/472/317
f 244/470/315 383/472/317 245/473/318
f 245/473/318 383/472/317 384/474/319
f 245/473/318 384/474/319 242/404/263
f 242/404/263 384/474/319 335/402/261
f 385/475/80 386/476/80 50/477/80
f 50/477/80 386/476/80 54/478/80
f 385/475/80 50/477/80 53/479/80
f 54/478/80 386/476/80 387/480/320
f 385/475/80 53/479/80 57/481/80
f 54/478/80 387/480/320 58/482/321
f 385/475/80 57/481/80 388/483/80
f 58/482/321 387/480/320 60/484/322
f 388/483/80 57/481/80 62/485/80
f 60/484/322 387/480/320 389/486/323
f 388/483/80 62/485/80 64/487/80
f 60/484/322 389/486/323 390/488/324
f 388/483/80 64/487/80 391/489/80
f 60/484/322 390/488/324 59/490/325
f 391/489/80 64/487/80 65/491/80
f 59/490/325 390/488/324 392/492/326
f 391/489/80 65/491/80 249/493/80
f 59/490/325 392/492/326 56/494/327
f 391/489/80 249/493/80 393/495/80
f 56/494/327 392/492/326 394/496/119
f 393/495/80 249/493/80 251/497/80
f 56/494/327 394/496/119 52/498/119
f 393/495/80 251/497/80 253/499/80
f 52/498/119 394/496/119 51/500/119
f 393/495/80 253/499/80 395/501/328
f 51/500/119 394/496/119 396/502/119
f 395/501/328 253/499/80 254/503/329
f 51/500/119 396/502/119 49/504/119
f 395/501/328 254/503/329 397/505/330
f 49/504/119 396/502/119 55/506/119
f 397/505/330 254/503/329 256/507/331
f 397/505/330 256/507/331 43/508/80
f 43/508/80 256/507/331 42/509/80
f 55/506/119 396/502/119 398/510/119
f 55/506/119 398/510/119 61/511/119
f 61/511/119 398/510/119 63/512/119
f 63/512/119 398/510/119 399/513/119
f 63/512/119 399/513/119 66/514/119
f 66/514/119 399/513/119 248/515/119
f 248/515/119 399/513/119 400/516/119
f 248/515/119 400/516/119 250/517/119
f 250/517/119 400/516/119 252/518/119
f 252/518/119 400/516/119 401/519/119
f 252/518/119 401/519/119 255/520/119
f 255/520/119 401/519/119 257/521/119
f 257/521/119 401/519/119 402/522/119
f 257/521/119 402/522/119 403/523/119
f 257/521/119 403/523/119 258/524/119
f 258/524/119 403/523/119 404/525/119
f 258/524/119 404/525/119 259/526/119
f 259/526/119 404/525/119 262/527/119
f 262/527/119 404/525/119 405/528/119
f 262/527/119 405/528/119 264/448/303
f 264/448/303 405/528/119 365/449/304
f 247/529/332 406/530/333 73/531/334
f 247/529/332 73/531/334 74/532/335
f 73/531/334 406/530/333 77/533/336
f 77/533/336 406/530/333 407/534/337
f 77/533/336 407/534/337 80/535/322
f 80/535/322 407/534/337 408/536/323
f 80/535/322 408/536/323 409/537/324
f 80/535/322 409/537/324 81/538/325
f 81/538/325 409/537/324 410/539/338
f 81/538/325 410/539/338 79/540/339
f 79/540/339 410/539/338 75/541/119
f 75/541/119 410/539/338 411/542/119
f 75/541/119 411/542/119 70/543/119
f 70/543/119 411/542/119 412/544/119
f 70/543/119 412/544/119 71/545/119
f 71/545/119 412/544/119 76/546/119
f 76/546/119 412/544/119 413/547/119
f 76/546/119 413/547/119 82/548/119
f 82/548/119 413/547/119 83/549/119
f 83/549/119 413/547/119 414/550/119
f 83/549/119 414/550/119 85/551/119
f 85/551/119 414/550/119 268/552/119
f 268/552/119 414/550/119 415/553/119
f 268/552/119 415/553/119 269/554/119
f 269/554/119 415/553/119 270/555/119
f 270/555/119 415/553/119 416/556/340
f 270/555/119 416/556/340 271/557/341
f 271/557/341 416/556/340 272/558/342
f 272/558/342 416/556/340 417/559/343
f 272/558/342 417/559/343 44/560/119
f 272/558/342 44/560/119 46/561/119
f 418/562/344 225/248/173 222/245/119
f 418/562/344 222/245/119 375/563/119
f 419/564/345 224/247/172 225/248/173
f 418/562/344 375/563/119 420/565/346
f 420/565/346 375/563/119 374/566/347
f 420/565/346 374/566/347 376/567/348
f 420/565/346 376/567/348 421/568/349
f 420/565/346 421/568/349 418/562/344
f 421/568/349 376/567/348 377/569/347
f 422/570/350 225/248/173 418/562/344
f 422/570/350 418/562/344 421/568/349
f 225/248/173 422/570/350 419/564/345
f 421/568/349 377/569/347 423/571/351
f 421/568/349 423/571/351 422/570/350
f 423/571/351 377/569/347 378/572/352
f 419/564/345 422/570/350 424/573/353
f 424/573/353 422/570/350 423/571/351
f 423/571/351 378/572/352 425/574/354
f 423/571/351 425/574/354 424/573/353
f 425/574/354 378/572/352 426/575/355
f 426/575/355 378/572/352 379/576/356
f 426/575/355 379/576/356 380/577/357
f 419/564/345 424/573/353 427/578/358
f 424/573/353 425/574/354 428/579/359
f 424/573/353 428/579/359 427/578/358
f 425/574/354 426/575/355 429/580/360
f 425/574/354 429/580/360 428/579/359
f 419/564/345 427/578/358 430/581/361
f 419/564/345 430/581/361 224/247/172
f 224/247/172 430/581/361 223/246/171
f 430/581/361 427/578/358 431/582/362
f 430/581/361 431/582/362 223/246/171
f 432/583/363 427/578/358 428/579/359
f 427/578/358 432/583/363 431/582/362
f 433/584/364 428/579/359 429/580/360
f 428/579/359 433/584/364 432/583/363
f 432/583/363 433/584/364 434/585/365
f 432/583/363 434/585/365 431/582/362
f 435/586/366 223/246/171 431/582/362
f 435/586/366 431/582/362 434/585/365
f 223/246/171 435/586/366 436/587/367
f 223/246/171 436/587/367 215/238/165
f 215/238/165 436/587/367 210/233/160
f 436/587/367 435/586/366 437/588/368
f 437/588/368 435/586/366 434/585/365
f 210/233/160 436/587/367 438/589/369
f 210/233/160 438/589/369 206/229/156
f 206/229/156 438/589/369 207/230/157
f 438/589/369 436/587/367 439/590/370
f 439/590/370 436/587/367 437/588/368
f 438/589/369 439/590/370 207/230/157
f 439/590/370 437/588/368 440/591/371
f 439/590/370 440/591/371 207/230/157
f 441/592/372 437/588/368 434/585/365
f 437/588/368 441/592/372 440/591/371
f 441/592/372 434/585/365 442/593/373
f 442/593/373 434/585/365 433/584/364
f 440/591/371 441/592/372 443/594/374
f 440/591/371 443/594/374 207/230/157
f 443/594/374 441/592/372 444/595/375
f 444/595/375 441/592/372 442/593/373
f 207/230/157 443/594/374 445/596/376
f 207/230/157 445/596/376 198/220/147
f 198/220/147 445/596/376 104/221/148
f 104/221/148 445/596/376 105/597/377
f 105/597/377 445/596/376 443/594/374
f 105/597/377 443/594/374 444/595/375
f 105/597/377 444/595/375 103/598/378
f 103/598/378 444/595/375 107/599/379
f 107/599/379 444/595/375 446/600/380
f 446/600/380 444/595/375 442/593/373
f 107/599/379 446/600/380 447/601/381
f 447/601/381 446/600/380 442/593/373
f 107/599/379 447/601/381 108/602/382
f 108/602/382 447/601/381 110/603/383
f 110/603/383 447/601/381 448/604/384
f 447/601/381 442/593/373 449/605/385
f 447/601/381 449/605/385 448/604/384
f 449/605/385 442/593/373 433/584/364
f 449/605/385 433/584/364 429/580/360
f 110/603/383 448/604/384 113/606/386
f 449/605/385 429/580/360 450/607/387
f 449/605/385 450/607/387 448/604/384
f 450/607/387 429/580/360 426/575/355
f 450/607/387 426/575/355 451/608/388
f 450/607/387 451/608/388 448/604/384
f 451/608/388 426/575/355 380/577/357
f 113/606/386 448/604/384 452/609/389
f 452/609/389 448/604/384 451/608/388
f 452/609/389 451/608/388 380/577/357
f 113/606/386 452/609/389 115/610/390
f 452/609/389 380/577/357 381/611/391
f 452/609/389 381/611/391 115/610/390
f 89/612/392 88/613/393 275/614/393
f 89/612/392 275/614/393 274/615/394
f 89/612/392 274/615/394 91/616/395
f 91/616/395 274/615/394 453/617/396
f 91/616/395 453/617/396 94/618/397
f 94/618/397 453/617/396 454/619/398
f 94/618/397 454/619/398 93/620/399
f 93/620/399 454/619/398 455/621/400
f 93/620/399 455/621/400 456/622/401
f 93/620/399 456/622/401 92/623/402
f 92/623/402 456/622/401 261/624/403
f 92/623/402 261/624/403 90/625/404
f 90/625/404 261/624/403 263/626/393
f 90/625/404 263/626/393 96/627/393
