# CS2 body mesh, tools/cs2_glb_to_obj.py
v -0.00309 -0.0153 -0.02206
v -0.00323 -0.01645 -0.02604
v -0.00323 -0.01645 -0.02206
v -0.00306 -0.0176 -0.02206
v -0.00309 -0.01527 -0.02604
v -0.00306 -0.01763 -0.02604
v -0.00264 -0.01416 -0.02206
v -0.00259 -0.01872 -0.02206
v -0.00264 -0.01416 -0.02604
v -0.00259 -0.01872 -0.02604
v -0.0019 -0.01959 -0.02288
v -0.0019 -0.01959 -0.02521
v -0.00193 -0.01321 -0.02604
v -0.00193 -0.01321 -0.02206
v -0.00099 -0.01247 -0.02206
v -0.001 -0.01247 -0.02604
v 0.0001 -0.012 -0.02604
v 0.0001 -0.012 -0.02206
v 0.00128 -0.01183 -0.02206
v 0.00128 -0.01183 -0.02604
v 0.00246 -0.01197 -0.02206
v 0.00246 -0.01197 -0.02604
v -0.00323 -0.01645 -0.0462
v -0.00309 -0.0153 -0.04114
v -0.0031 -0.01536 -0.04619
v -0.00323 -0.01645 -0.03717
v -0.00309 -0.01527 -0.03717
v -0.00265 -0.01416 -0.04114
v -0.00306 -0.0176 -0.04114
v -0.00307 -0.01755 -0.04619
v -0.00306 -0.01763 -0.03717
v -0.00265 -0.01416 -0.03717
v -0.00259 -0.01873 -0.04114
v -0.00193 -0.01321 -0.04115
v -0.00259 -0.01873 -0.03717
v -0.00191 -0.01959 -0.04032
v -0.0019 -0.01959 -0.03799
v -0.00193 -0.01321 -0.03717
v -0.001 -0.01247 -0.03717
v -0.001 -0.01247 -0.04115
v 0.0001 -0.012 -0.03717
v 0.0001 -0.012 -0.04115
v 0.00128 -0.01183 -0.04115
v 0.00128 -0.01183 -0.03717
v 0.00246 -0.01197 -0.04115
v 0.00246 -0.01197 -0.03717
v 0.00037 -0.02017 -0.04905
v 0.00052 -0.01958 -0.04972
v 0.00138 -0.02029 -0.04905
v 0.00137 -0.01968 -0.04972
v 0.00137 -0.01968 -0.0505
v -0.00028 -0.01926 -0.04972
v -0.00057 -0.01979 -0.04905
v 0.00052 -0.01958 -0.0505
v 0.00037 -0.02017 -0.0508
v 0.00138 -0.02029 -0.05081
v 0.00138 -0.02029 -0.05135
v 0.00037 -0.02017 -0.05135
v -0.00057 -0.01979 -0.0508
v -0.00057 -0.01979 -0.05135
v -0.00028 -0.01926 -0.0505
v -0.00139 -0.01918 -0.05135
v -0.00096 -0.01875 -0.0505
v -0.00139 -0.01918 -0.0508
v -0.00202 -0.01838 -0.0508
v -0.00202 -0.01838 -0.05135
v -0.00096 -0.01875 -0.04972
v -0.00149 -0.01807 -0.0505
v -0.00242 -0.01745 -0.0508
v -0.00242 -0.01745 -0.05135
v -0.00183 -0.01728 -0.0505
v -0.00149 -0.01807 -0.04972
v -0.00256 -0.01644 -0.0508
v -0.00256 -0.01644 -0.05135
v -0.00244 -0.01543 -0.05135
v -0.00139 -0.01918 -0.04905
v -0.00138 -0.01918 -0.02189
v -0.00244 -0.01543 -0.0508
v -0.00207 -0.01449 -0.0508
v -0.00207 -0.01449 -0.05135
v -0.00185 -0.01558 -0.0505
v -0.00202 -0.01838 -0.04905
v -0.00201 -0.01838 -0.02189
v -0.00048 -0.01825 -0.01899
v -0.0009 -0.01772 -0.01899
v -0.00241 -0.01745 -0.02189
v -0.00242 -0.01745 -0.04905
v -0.00183 -0.01728 -0.04972
v -0.00256 -0.01644 -0.04905
v -0.00256 -0.01644 -0.02189
v -0.00244 -0.01543 -0.04905
v -0.00196 -0.01643 -0.0505
v -0.00196 -0.01643 -0.04972
v -0.00185 -0.01558 -0.04972
v -0.00154 -0.01478 -0.04972
v -0.00154 -0.01478 -0.0505
v -0.00207 -0.01449 -0.04905
v -0.00206 -0.01448 -0.02189
v -0.00102 -0.0141 -0.0505
v -0.00102 -0.0141 -0.04972
v -0.00146 -0.01367 -0.04905
v -0.00146 -0.01367 -0.0508
v -0.00146 -0.01367 -0.05135
v -0.00066 -0.01304 -0.05135
v -0.00035 -0.01357 -0.0505
v -0.00066 -0.01304 -0.05081
v 0.00028 -0.01264 -0.05135
v -0.00035 -0.01357 -0.04972
v 0.00028 -0.01264 -0.05081
v 0.00044 -0.01323 -0.0505
v 0.00129 -0.0125 -0.05081
v 0.00129 -0.0125 -0.05135
v 0.0023 -0.01262 -0.05135
v 0.0023 -0.01262 -0.05081
v 0.00129 -0.0131 -0.0505
v 0.00215 -0.01321 -0.0505
v 0.00324 -0.01299 -0.05081
v 0.00294 -0.01352 -0.0505
v 0.00129 -0.0131 -0.04972
v 0.00215 -0.01321 -0.04972
v 0.00044 -0.01323 -0.04972
v 0.00129 -0.0125 -0.04905
v 0.0023 -0.01262 -0.04905
v 0.00028 -0.01264 -0.04905
v 0.00129 -0.01249 -0.02189
v 0.0023 -0.01261 -0.02189
v 0.00198 -0.01387 -0.01899
v 0.00131 -0.01379 -0.01899
v 0.00131 -0.01379 -0.01497
v 0.00064 -0.01389 -0.01899
v 0.00028 -0.01264 -0.02189
v -0.00066 -0.01304 -0.04905
v -0.00065 -0.01304 -0.02189
v 0.00001 -0.01416 -0.01899
v -0.00052 -0.01458 -0.01899
v -0.00145 -0.01367 -0.02189
v 0.00168 -0.01586 -0.00411
v 0.00195 -0.01546 -0.0051
v 0.00111 -0.0153 -0.0051
v 0.00121 -0.01578 -0.00411
v 0.00134 -0.01639 -0.00377
v 0.00101 -0.01484 -0.00679
v 0.00221 -0.01506 -0.00679
v 0.00081 -0.01605 -0.00411
v 0.00041 -0.01578 -0.0051
v 0.00073 -0.01652 -0.00411
v 0.00025 -0.01662 -0.0051
v 0.001 -0.01692 -0.00411
v 0.00147 -0.01701 -0.00411
v 0.00157 -0.01748 -0.0051
v 0.00073 -0.01733 -0.0051
v 0.00167 -0.01794 -0.00679
v -0.00021 -0.01672 -0.00679
v 0.00048 -0.01772 -0.00679
v 0.00136 -0.01827 -0.00848
v 0.00001 -0.01553 -0.00679
v 0.00064 -0.01814 -0.00848
v 0.00137 -0.0187 -0.01496
v 0.00048 -0.01853 -0.01496
v 0.00003 -0.01774 -0.00848
v -0.00027 -0.01804 -0.01496
v -0.00078 -0.0173 -0.01496
v -0.00039 -0.01713 -0.00848
v -0.00097 -0.01642 -0.01496
v -0.00054 -0.01641 -0.00848
v -0.0004 -0.01569 -0.00848
v -0.0008 -0.01554 -0.01496
v 0 -0.01508 -0.00848
v -0.00031 -0.01478 -0.01496
v 0.00043 -0.01427 -0.01496
v 0.0006 -0.01466 -0.00848
v 0.00131 -0.01409 -0.01496
v 0.00132 -0.01451 -0.00848
v 0.00204 -0.01465 -0.00848
v 0.0022 -0.01425 -0.01496
v 0.00501 -0.01516 -0.03755
v 0.00689 -0.01632 -0.03557
v 0.00703 -0.01514 -0.03557
v 0.00504 -0.01753 -0.03755
v 0.00706 -0.0175 -0.03557
v 0.00706 -0.0175 -0.02763
v 0.00753 -0.0186 -0.02812
v 0.00753 -0.0186 -0.03509
v 0.00821 -0.01946 -0.02942
v 0.00821 -0.01946 -0.03379
v 0.00689 -0.01632 -0.02763
v 0.00505 -0.01753 -0.02566
v 0.00502 -0.01516 -0.02566
v 0.00703 -0.01514 -0.02763
v 0.00747 -0.01403 -0.03557
v 0.00747 -0.01403 -0.02763
v 0.00818 -0.01308 -0.03595
v 0.00818 -0.01308 -0.02725
v 0.00912 -0.01234 -0.02725
v 0.00912 -0.01234 -0.03595
v 0.01021 -0.01187 -0.02725
v 0.01021 -0.01187 -0.03595
v 0.01139 -0.0117 -0.02725
v 0.01139 -0.0117 -0.03595
v 0.01258 -0.01184 -0.02725
v 0.01258 -0.01184 -0.03596
v -0.00244 -0.01543 -0.04612
v -0.00244 -0.01543 -0.04114
v 0.00511 -0.01736 -0.05135
v 0.00509 -0.01534 -0.05135
v 0.00523 -0.01635 -0.05135
v 0.00469 -0.0144 -0.05135
v 0.00473 -0.0183 -0.05135
v 0.00412 -0.01912 -0.05135
v 0.00406 -0.0136 -0.05135
v 0.00332 -0.01975 -0.05135
v 0.00324 -0.01299 -0.05135
v 0.00239 -0.02015 -0.05135
v -0.00146 -0.01367 -0.04115
v 0.00028 -0.01264 -0.04115
v 0.0023 -0.01262 -0.04115
v 0.00357 -0.01241 -0.04115
v 0.00406 -0.0136 -0.04115
v 0.00452 -0.01313 -0.04115
v 0.00526 -0.01406 -0.04115
v 0.00509 -0.01534 -0.04115
v 0.00573 -0.01516 -0.04115
v 0.0059 -0.01634 -0.04115
v 0.00511 -0.01735 -0.04115
v 0.00576 -0.01752 -0.04115
v 0.00532 -0.01862 -0.04115
v 0.00473 -0.0183 -0.04115
v 0.00466 -0.01951 -0.0404
v 0.00413 -0.01911 -0.0404
v 0.00413 -0.01911 -0.0383
v 0.00466 -0.01951 -0.0383
v 0.00474 -0.0183 -0.03755
v 0.00532 -0.01862 -0.03755
v 0.00576 -0.01752 -0.03755
v -0.00256 -0.01644 -0.04612
v -0.00242 -0.01745 -0.04612
v -0.00021 -0.01488 -0.01497
v 0.00001 -0.01416 -0.01497
v -0.00052 -0.01458 -0.01497
v -0.00093 -0.01512 -0.01497
v -0.00076 -0.01586 -0.01497
v -0.00118 -0.01575 -0.01497
v -0.00126 -0.01642 -0.01497
v -0.00075 -0.01698 -0.01497
v -0.00093 -0.01512 -0.01899
v -0.00126 -0.01642 -0.01899
v -0.00118 -0.01575 -0.01899
v -0.00116 -0.0171 -0.01497
v -0.00244 -0.01543 -0.02189
v -0.0009 -0.01772 -0.01497
v -0.00116 -0.0171 -0.01899
v -0.00018 -0.01795 -0.01497
v -0.00048 -0.01825 -0.01497
v 0.00007 -0.01866 -0.01497
v 0.0008 -0.0185 -0.01497
v 0.00137 -0.01899 -0.01497
v 0.00193 -0.01848 -0.01497
v 0.0007 -0.01891 -0.01497
v 0.00137 -0.01899 -0.01899
v 0.0007 -0.01891 -0.01899
v 0.00139 -0.02029 -0.02189
v 0.00038 -0.02017 -0.02189
v 0.00007 -0.01866 -0.01899
v -0.00057 -0.01979 -0.02189
v -0.00201 -0.01838 -0.02206
v -0.00241 -0.01745 -0.02206
v -0.00244 -0.01543 -0.02206
v -0.00145 -0.01367 -0.02206
v 0.00028 -0.01264 -0.02206
v 0.0023 -0.01261 -0.02206
v 0.00357 -0.01241 -0.02206
v 0.00406 -0.0136 -0.02206
v 0.00452 -0.01312 -0.02206
v 0.00526 -0.01406 -0.02206
v 0.00469 -0.0144 -0.02206
v 0.00509 -0.01534 -0.02206
v 0.00573 -0.01515 -0.02206
v 0.00524 -0.01634 -0.02206
v 0.0059 -0.01633 -0.02206
v 0.00576 -0.01752 -0.02206
v 0.00512 -0.01735 -0.02206
v 0.00532 -0.01862 -0.02206
v 0.00474 -0.0183 -0.02206
v 0.00466 -0.01951 -0.02281
v 0.00413 -0.01911 -0.02281
v 0.00413 -0.01911 -0.02491
v 0.00466 -0.01951 -0.02491
v 0.00474 -0.0183 -0.02566
v 0.00532 -0.01862 -0.02566
v 0.00576 -0.01752 -0.02566
v 0.00573 -0.01516 -0.03755
v 0.00775 -0.01513 -0.03557
v 0.00866 -0.01354 -0.03595
v 0.01039 -0.01251 -0.03595
v 0.01241 -0.01249 -0.03595
v 0.01368 -0.01228 -0.03596
v 0.01417 -0.01347 -0.03596
v 0.01464 -0.013 -0.03596
v 0.01537 -0.01393 -0.03596
v 0.0152 -0.01521 -0.03596
v 0.01584 -0.01503 -0.03596
v 0.01601 -0.01621 -0.03596
v 0.01523 -0.01722 -0.03596
v 0.01587 -0.01739 -0.03596
v 0.01485 -0.01817 -0.03543
v 0.01543 -0.0185 -0.03543
v 0.01477 -0.01938 -0.034
v 0.01424 -0.01898 -0.034
v 0.01477 -0.01938 -0.02921
v 0.01424 -0.01898 -0.02921
v 0.01485 -0.01817 -0.02778
v 0.01543 -0.01849 -0.02778
v 0.01588 -0.01739 -0.02725
v 0.01523 -0.01722 -0.02725
v 0.01602 -0.01621 -0.02725
v 0.0152 -0.01521 -0.02725
v 0.01585 -0.01503 -0.02725
v 0.01538 -0.01393 -0.02725
v 0.01417 -0.01347 -0.02725
v 0.01464 -0.013 -0.02725
v 0.01368 -0.01228 -0.02725
v 0.01241 -0.01249 -0.02725
v 0.0104 -0.01251 -0.02725
v 0.00866 -0.01354 -0.02725
v 0.00775 -0.01513 -0.02763
v 0.00573 -0.01515 -0.02566
v -0.00202 -0.01839 -0.03717
v -0.00242 -0.01745 -0.03717
v -0.00244 -0.01543 -0.03717
v -0.00146 -0.01367 -0.03717
v 0.00028 -0.01264 -0.03717
v 0.0023 -0.01262 -0.03717
v 0.00357 -0.01241 -0.03717
v 0.00406 -0.0136 -0.03717
v 0.00452 -0.01312 -0.03717
v 0.00526 -0.01406 -0.03755
v 0.00469 -0.0144 -0.03755
v -0.00244 -0.01543 -0.02604
v -0.00241 -0.01745 -0.02604
v -0.00201 -0.01838 -0.02604
v -0.00145 -0.01367 -0.02604
v 0.00028 -0.01264 -0.02604
v 0.0023 -0.01261 -0.02604
v 0.00357 -0.01241 -0.02604
v 0.00406 -0.0136 -0.02604
v 0.00452 -0.01312 -0.02604
v 0.00469 -0.0144 -0.02566
v 0.00526 -0.01406 -0.02566
v 0.00198 -0.01387 -0.01497
v 0.00261 -0.01412 -0.01497
v 0.00261 -0.01412 -0.01899
v 0.00316 -0.01453 -0.01497
v 0.00315 -0.01453 -0.01899
v 0.00325 -0.01299 -0.02189
v 0.00358 -0.01506 -0.01497
v 0.00324 -0.01299 -0.04905
v 0.00406 -0.0136 -0.02189
v 0.00294 -0.01352 -0.04972
v 0.00363 -0.01404 -0.04972
v 0.00406 -0.0136 -0.04905
v 0.00469 -0.0144 -0.02189
v 0.00416 -0.01471 -0.04972
v 0.00469 -0.0144 -0.04905
v 0.00509 -0.01534 -0.04905
v 0.00357 -0.01506 -0.01899
v 0.00509 -0.01534 -0.02189
v 0.00384 -0.01569 -0.01899
v 0.00384 -0.01569 -0.01497
v 0.00524 -0.01634 -0.02189
v 0.00394 -0.01636 -0.01899
v 0.00394 -0.01636 -0.01497
v 0.00386 -0.01703 -0.01497
v 0.00386 -0.01703 -0.01899
v 0.00361 -0.01766 -0.01497
v 0.00523 -0.01635 -0.04905
v 0.00361 -0.01766 -0.01899
v 0.00512 -0.01735 -0.02189
v 0.0032 -0.01821 -0.01497
v 0.0032 -0.01821 -0.01899
v 0.00474 -0.0183 -0.02189
v 0.0059 -0.01633 -0.02566
v 0.00778 -0.01749 -0.02772
v 0.0059 -0.01633 -0.03755
v 0.00778 -0.01749 -0.03548
v -0.00242 -0.01745 -0.04114
v -0.00202 -0.01839 -0.04114
v 0.00322 -0.01637 -0.00848
v 0.00365 -0.01636 -0.01496
v 0.00307 -0.01565 -0.00848
v 0.00346 -0.01548 -0.01496
v 0.00309 -0.01709 -0.00848
v 0.00348 -0.01725 -0.01496
v 0.00289 -0.01606 -0.00679
v 0.00267 -0.01726 -0.00679
v 0.00269 -0.0177 -0.00848
v 0.00299 -0.018 -0.01496
v 0.00225 -0.01851 -0.01496
v 0.00208 -0.01812 -0.00848
v 0.00228 -0.017 -0.0051
v 0.00187 -0.01673 -0.00411
v 0.00196 -0.01626 -0.00411
v 0.00243 -0.01616 -0.0051
v 0.00265 -0.01505 -0.00848
v 0.00295 -0.01474 -0.01496
v 0.00064 -0.01389 -0.01497
v 0.00075 -0.0143 -0.01497
v 0.00188 -0.01429 -0.01497
v 0.00286 -0.01484 -0.01497
v 0.00343 -0.0158 -0.01497
v 0.00344 -0.01693 -0.01497
v 0.00289 -0.01791 -0.01497
v 0.00267 -0.01863 -0.01497
v 0.00204 -0.0189 -0.01497
v 0.00204 -0.0189 -0.01899
v 0.00239 -0.02014 -0.02189
v 0.00239 -0.02015 -0.04905
v 0.00222 -0.01956 -0.04972
v 0.00222 -0.01956 -0.0505
v 0.00301 -0.01922 -0.0505
v 0.00332 -0.01975 -0.05081
v 0.00239 -0.02015 -0.05081
v 0.0081 -0.01826 -0.03509
v 0.00873 -0.01905 -0.03379
v 0.00873 -0.01905 -0.02942
v 0.0081 -0.01826 -0.02812
v 0.00267 -0.01863 -0.01899
v 0.00333 -0.01974 -0.02189
v 0.00413 -0.01911 -0.02189
v 0.00332 -0.01975 -0.04905
v 0.00301 -0.01922 -0.04972
v 0.00369 -0.01869 -0.0505
v 0.00473 -0.0183 -0.04905
v 0.00412 -0.01912 -0.04905
v 0.00369 -0.01869 -0.04972
v 0.0042 -0.018 -0.04972
v 0.0042 -0.018 -0.0505
v 0.00412 -0.01912 -0.05081
v 0.00473 -0.0183 -0.05081
v 0.00511 -0.01736 -0.05081
v 0.00452 -0.01721 -0.0505
v 0.00523 -0.01635 -0.05081
v 0.00509 -0.01534 -0.05081
v 0.00462 -0.01635 -0.0505
v 0.00469 -0.0144 -0.05081
v 0.0045 -0.0155 -0.0505
v 0.00406 -0.0136 -0.05081
v 0.00363 -0.01404 -0.0505
v 0.00416 -0.01471 -0.0505
v 0.0045 -0.0155 -0.04972
v 0.00462 -0.01635 -0.04972
v 0.00452 -0.01721 -0.04972
v 0.00511 -0.01736 -0.04905
v -0.00138 -0.01918 -0.02521
v -0.00138 -0.01918 -0.02288
v -0.00139 -0.01918 -0.04032
v -0.00139 -0.01918 -0.03799
vt 0.756348 0.031219
vt 0.755371 0.027252
vt 0.755371 0.031219
vt 0.753906 0.031219
vt 0.756348 0.027252
vt 0.753906 0.027252
vt 0.757812 0.031219
vt 0.75293 0.031219
vt 0.757812 0.027252
vt 0.75293 0.027252
vt 0.751465 0.030548
vt 0.751465 0.028198
vt 0.758789 0.027252
vt 0.758789 0.031219
vt 0.760254 0.031219
vt 0.760254 0.027252
vt 0.76123 0.027252
vt 0.76123 0.031219
vt 0.762207 0.031219
vt 0.762207 0.027252
vt 0.763672 0.031219
vt 0.763672 0.027252
vt 0.882324 0.104187
vt 0.883789 0.109253
vt 0.883789 0.104187
vt 0.882324 0.113281
vt 0.883789 0.113281
vt 0.884766 0.109253
vt 0.881348 0.109253
vt 0.881348 0.104187
vt 0.881348 0.113281
vt 0.884766 0.113281
vt 0.879883 0.109253
vt 0.88623 0.109253
vt 0.879883 0.113281
vt 0.878906 0.110107
vt 0.878906 0.112488
vt 0.88623 0.113281
vt 0.887207 0.113281
vt 0.887207 0.109253
vt 0.888672 0.113281
vt 0.888672 0.109253
vt 0.889648 0.109253
vt 0.889648 0.113281
vt 0.891113 0.109253
vt 0.891113 0.113281
vt 0.89209 0.945801
vt 0.89209 0.946777
vt 0.893066 0.945801
vt 0.893066 0.946777
vt 0.893066 0.947754
vt 0.891113 0.946777
vt 0.891113 0.945801
vt 0.89209 0.947754
vt 0.89209 0.948242
vt 0.893066 0.948242
vt 0.893066 0.94873
vt 0.89209 0.94873
vt 0.891113 0.948242
vt 0.891113 0.94873
vt 0.891113 0.947754
vt 0.890137 0.94873
vt 0.890137 0.947754
vt 0.890137 0.948242
vt 0.88916 0.948242
vt 0.88916 0.94873
vt 0.890137 0.946777
vt 0.88916 0.947754
vt 0.888184 0.948242
vt 0.888184 0.94873
vt 0.888184 0.947754
vt 0.88916 0.946777
vt 0.887207 0.948242
vt 0.887207 0.94873
vt 0.88623 0.94873
vt 0.890137 0.945801
vt 0.890137 0.916992
vt 0.88623 0.948242
vt 0.885254 0.948242
vt 0.885254 0.94873
vt 0.88623 0.947754
vt 0.88916 0.945801
vt 0.88916 0.916992
vt 0.888672 0.914062
vt 0.887695 0.914062
vt 0.888184 0.916992
vt 0.888184 0.945801
vt 0.888184 0.946777
vt 0.887207 0.945801
vt 0.887207 0.916992
vt 0.88623 0.945801
vt 0.887207 0.947754
vt 0.887207 0.946777
vt 0.88623 0.946777
vt 0.885254 0.946777
vt 0.885254 0.947754
vt 0.885254 0.945801
vt 0.885254 0.916992
vt 0.884277 0.947754
vt 0.884277 0.946777
vt 0.884277 0.945801
vt 0.884277 0.948242
vt 0.884277 0.94873
vt 0.883301 0.94873
vt 0.883301 0.947754
vt 0.883301 0.948242
vt 0.882812 0.94873
vt 0.883301 0.946777
vt 0.882812 0.948242
vt 0.882812 0.947754
vt 0.881836 0.948242
vt 0.881836 0.94873
vt 0.880859 0.94873
vt 0.880859 0.948242
vt 0.881836 0.947754
vt 0.880859 0.947754
vt 0.879883 0.948242
vt 0.879883 0.947754
vt 0.881836 0.946777
vt 0.880859 0.946777
vt 0.882812 0.946777
vt 0.881836 0.945801
vt 0.880859 0.945801
vt 0.882812 0.945801
vt 0.881836 0.916992
vt 0.880859 0.916992
vt 0.880859 0.914062
vt 0.881348 0.914062
vt 0.881348 0.909668
vt 0.882324 0.914062
vt 0.882812 0.916992
vt 0.883301 0.945801
vt 0.883301 0.916992
vt 0.883301 0.914062
vt 0.883789 0.914062
vt 0.884277 0.916992
vt 0.70166 0.234619
vt 0.70166 0.233765
vt 0.701172 0.233765
vt 0.701172 0.234619
vt 0.700684 0.235229
vt 0.700684 0.232178
vt 0.702148 0.232178
vt 0.700195 0.234619
vt 0.700195 0.233765
vt 0.699707 0.234619
vt 0.699219 0.233765
vt 0.699219 0.234863
vt 0.69873 0.235229
vt 0.697754 0.233765
vt 0.698242 0.233765
vt 0.696289 0.232178
vt 0.69873 0.232178
vt 0.697266 0.232178
vt 0.695801 0.230347
vt 0.699707 0.232178
vt 0.696777 0.230347
vt 0.693848 0.223633
vt 0.694824 0.223633
vt 0.697266 0.230347
vt 0.695801 0.223633
vt 0.696289 0.223633
vt 0.697754 0.230347
vt 0.697266 0.223633
vt 0.69873 0.230347
vt 0.699219 0.230347
vt 0.698242 0.223633
vt 0.699707 0.230347
vt 0.699219 0.223633
vt 0.700195 0.223633
vt 0.700684 0.230347
vt 0.701172 0.223633
vt 0.701172 0.230347
vt 0.70166 0.230347
vt 0.702148 0.223633
vt 0.831543 0.031189
vt 0.830566 0.033966
vt 0.831543 0.033997
vt 0.829102 0.031189
vt 0.829102 0.033997
vt 0.829102 0.042023
vt 0.828125 0.041534
vt 0.828125 0.034485
vt 0.82666 0.040222
vt 0.82666 0.035797
vt 0.830566 0.042053
vt 0.829102 0.04483
vt 0.831543 0.04483
vt 0.831543 0.042023
vt 0.833008 0.033997
vt 0.833008 0.042023
vt 0.833984 0.0336
vt 0.833984 0.042419
vt 0.835449 0.042419
vt 0.835449 0.0336
vt 0.836426 0.042419
vt 0.836426 0.0336
vt 0.837891 0.042419
vt 0.837891 0.0336
vt 0.838867 0.042419
vt 0.838867 0.0336
vt 0.873047 0.008026
vt 0.867676 0.007294
vt 0.867676 0.008026
vt 0.266113 0.731934
vt 0.266113 0.72998
vt 0.266113 0.730957
vt 0.266602 0.729004
vt 0.266602 0.73291
vt 0.267334 0.733887
vt 0.267334 0.728027
vt 0.268066 0.734375
vt 0.268066 0.727539
vt 0.269043 0.727051
vt 0.269043 0.734863
vt 0.270264 0.727051
vt 0.270264 0.734863
vt 0.27124 0.734863
vt 0.27124 0.727051
vt 0.272217 0.734375
vt 0.272217 0.727539
vt 0.273193 0.733887
vt 0.273193 0.728027
vt 0.273682 0.729004
vt 0.273682 0.73291
vt 0.27417 0.731934
vt 0.27417 0.72998
vt 0.27417 0.730957
vt 0.873047 0.007294
vt 0.866699 0.007294
vt 0.865723 0.008026
vt 0.865723 0.007294
vt 0.864746 0.007294
vt 0.863281 0.008026
vt 0.863281 0.007294
vt 0.862305 0.007294
vt 0.861328 0.008026
vt 0.861328 0.007294
vt 0.860352 0.007294
vt 0.858887 0.008026
vt 0.858887 0.007294
vt 0.85791 0.007294
vt 0.856934 0.008026
vt 0.856934 0.007294
vt 0.855957 0.007294
vt 0.85498 0.008026
vt 0.854492 0.007294
vt 0.853516 0.007294
vt 0.853516 0.008026
vt 0.852539 0.007294
vt 0.852539 0.008026
vt 0.850098 0.008026
vt 0.850098 0.007294
vt 0.848633 0.008026
vt 0.848633 0.007294
vt 0.847656 0.008026
vt 0.847656 0.007294
vt 0.466064 0.804688
vt 0.466064 0.803223
vt 0.465332 0.804688
vt 0.465332 0.803223
vt 0.466064 0.805664
vt 0.465332 0.805664
vt 0.883789 0.90918
vt 0.883301 0.909668
vt 0.883789 0.909668
vt 0.884766 0.909668
vt 0.885254 0.90918
vt 0.885254 0.909668
vt 0.88623 0.909668
vt 0.886719 0.90918
vt 0.884766 0.914062
vt 0.88623 0.914062
vt 0.885254 0.914062
vt 0.887207 0.909668
vt 0.88623 0.916992
vt 0.887695 0.909668
vt 0.887207 0.914062
vt 0.887695 0.90918
vt 0.888672 0.909668
vt 0.88916 0.909668
vt 0.88916 0.90918
vt 0.890625 0.909668
vt 0.890137 0.90918
vt 0.890137 0.909668
vt 0.890625 0.914062
vt 0.890137 0.914062
vt 0.893066 0.916992
vt 0.89209 0.916992
vt 0.88916 0.914062
vt 0.891113 0.916992
vt 0.359375 0.010101
vt 0.359375 0.010803
vt 0.360352 0.010803
vt 0.360596 0.010101
vt 0.361572 0.010101
vt 0.362549 0.010803
vt 0.362549 0.010101
vt 0.36377 0.010101
vt 0.364746 0.010803
vt 0.364746 0.010101
vt 0.365723 0.010101
vt 0.366943 0.010803
vt 0.366943 0.010101
vt 0.36792 0.010101
vt 0.368896 0.010803
vt 0.368896 0.010101
vt 0.370117 0.010101
vt 0.371094 0.010803
vt 0.371094 0.010101
vt 0.372314 0.010101
vt 0.372314 0.010803
vt 0.373535 0.010803
vt 0.373535 0.010101
vt 0.374512 0.010803
vt 0.374512 0.010101
vt 0.375732 0.010101
vt 0.375732 0.010803
vt 0.376953 0.010101
vt 0.376953 0.010803
vt 0.378418 0.010101
vt 0.378174 0.010803
vt 0.380371 0.010803
vt 0.380371 0.010101
vt 0.381592 0.010803
vt 0.381592 0.010101
vt 0.382568 0.010803
vt 0.382568 0.010101
vt 0.935547 0.011597
vt 0.932617 0.011597
vt 0.935547 0.012207
vt 0.932129 0.012207
vt 0.931641 0.011597
vt 0.930176 0.012207
vt 0.930176 0.011597
vt 0.929199 0.011597
vt 0.928223 0.012207
vt 0.928223 0.011597
vt 0.926758 0.011597
vt 0.925781 0.012207
vt 0.925781 0.011597
vt 0.924805 0.011597
vt 0.92334 0.012207
vt 0.92334 0.011597
vt 0.922363 0.011597
vt 0.921387 0.012207
vt 0.921387 0.011597
vt 0.919922 0.011597
vt 0.918945 0.012207
vt 0.918945 0.011597
vt 0.91748 0.012207
vt 0.91748 0.011597
vt 0.916016 0.011597
vt 0.916016 0.012207
vt 0.910645 0.011597
vt 0.910645 0.012207
vt 0.90918 0.012207
vt 0.90918 0.011597
vt 0.907715 0.011597
vt 0.907715 0.012207
vt 0.906738 0.011597
vt 0.905762 0.012207
vt 0.905762 0.011597
vt 0.904297 0.011597
vt 0.90332 0.012207
vt 0.90332 0.011597
vt 0.902344 0.011597
vt 0.900879 0.012207
vt 0.900879 0.011597
vt 0.899902 0.011597
vt 0.898926 0.012207
vt 0.898926 0.011597
vt 0.897461 0.011597
vt 0.896484 0.012207
vt 0.896484 0.011597
vt 0.89502 0.011597
vt 0.894531 0.012207
vt 0.894043 0.011597
vt 0.891113 0.012207
vt 0.891113 0.011597
vt 0.79834 0.008301
vt 0.79834 0.009003
vt 0.799805 0.008301
vt 0.799805 0.009003
vt 0.800781 0.008301
vt 0.801758 0.009003
vt 0.801758 0.008301
vt 0.802734 0.008301
vt 0.804199 0.009003
vt 0.804199 0.008301
vt 0.805176 0.008301
vt 0.806152 0.009003
vt 0.806152 0.008301
vt 0.807129 0.008301
vt 0.808594 0.009003
vt 0.808594 0.008301
vt 0.80957 0.008301
vt 0.810547 0.009003
vt 0.810547 0.008301
vt 0.812012 0.008301
vt 0.812012 0.009003
vt 0.812988 0.009003
vt 0.812988 0.008301
vt 0.351074 0.010803
vt 0.353271 0.010803
vt 0.352295 0.010101
vt 0.353271 0.010101
vt 0.354492 0.010803
vt 0.354492 0.010101
vt 0.351074 0.010101
vt 0.350098 0.010101
vt 0.349121 0.010803
vt 0.349121 0.010101
vt 0.3479 0.010101
vt 0.346924 0.010803
vt 0.346924 0.010101
vt 0.345947 0.010101
vt 0.344727 0.010803
vt 0.344727 0.010101
vt 0.34375 0.010101
vt 0.342529 0.010803
vt 0.342529 0.010101
vt 0.341553 0.010803
vt 0.341553 0.010101
vt 0.340576 0.010803
vt 0.340576 0.010101
vt 0.880859 0.909668
vt 0.879883 0.909668
vt 0.879883 0.914062
vt 0.879395 0.909668
vt 0.879395 0.914062
vt 0.879883 0.916992
vt 0.878418 0.909668
vt 0.879883 0.945801
vt 0.878906 0.916992
vt 0.879883 0.946777
vt 0.878906 0.946777
vt 0.878906 0.945801
vt 0.87793 0.916992
vt 0.87793 0.946777
vt 0.87793 0.945801
vt 0.876953 0.945801
vt 0.878418 0.914062
vt 0.876953 0.916992
vt 0.877441 0.914062
vt 0.877441 0.909668
vt 0.875977 0.916992
vt 0.876953 0.914062
vt 0.876953 0.909668
vt 0.875977 0.909668
vt 0.875977 0.914062
vt 0.875488 0.909668
vt 0.875977 0.945801
vt 0.875488 0.914062
vt 0.875 0.916992
vt 0.874512 0.909668
vt 0.874512 0.914062
vt 0.874023 0.916992
vt 0.839844 0.0336
vt 0.839844 0.042419
vt 0.841309 0.0336
vt 0.841309 0.042419
vt 0.842285 0.042419
vt 0.842285 0.0336
vt 0.84375 0.042419
vt 0.84375 0.0336
vt 0.844727 0.042419
vt 0.844727 0.0336
vt 0.846191 0.042419
vt 0.846191 0.0336
vt 0.847168 0.04187
vt 0.847168 0.034149
vt 0.848633 0.035583
vt 0.848633 0.040436
vt 0.764648 0.031219
vt 0.764648 0.027252
vt 0.766113 0.027252
vt 0.766113 0.031219
vt 0.76709 0.027496
vt 0.76709 0.031219
vt 0.768555 0.027496
vt 0.768555 0.031219
vt 0.769531 0.031219
vt 0.769531 0.027496
vt 0.768555 0.024628
vt 0.770996 0.024628
vt 0.770996 0.031219
vt 0.770996 0.027496
vt 0.771973 0.031219
vt 0.771973 0.027496
vt 0.773438 0.028229
vt 0.773438 0.030365
vt 0.89209 0.109253
vt 0.89209 0.113281
vt 0.893066 0.113281
vt 0.893066 0.109253
vt 0.894531 0.112915
vt 0.894531 0.109253
vt 0.895508 0.109253
vt 0.895508 0.112915
vt 0.896973 0.112976
vt 0.895508 0.115784
vt 0.897949 0.115784
vt 0.896973 0.109253
vt 0.897949 0.112915
vt 0.897949 0.109253
vt 0.899414 0.109253
vt 0.899414 0.112854
vt 0.900391 0.112122
vt 0.900391 0.109985
vt 0.787598 0.009003
vt 0.791992 0.008301
vt 0.787598 0.008301
vt 0.79248 0.009003
vt 0.793457 0.008301
vt 0.793457 0.009003
vt 0.37793 0.004791
vt 0.37915 0.005402
vt 0.37915 0.004791
vt 0.38208 0.005402
vt 0.38208 0.004791
vt 0.368652 0.004791
vt 0.365723 0.004791
vt 0.365723 0.005402
vt 0.368652 0.005402
vt 0.369873 0.004791
vt 0.703613 0.230347
vt 0.705078 0.223633
vt 0.703125 0.230347
vt 0.704102 0.223633
vt 0.70459 0.230347
vt 0.706055 0.223633
vt 0.703125 0.232178
vt 0.704102 0.232178
vt 0.705078 0.230347
vt 0.707031 0.223633
vt 0.70752 0.223633
vt 0.706055 0.230347
vt 0.708496 0.223633
vt 0.706543 0.230347
vt 0.705566 0.232178
vt 0.703613 0.233765
vt 0.704102 0.233765
vt 0.702637 0.234741
vt 0.703125 0.235107
vt 0.702637 0.235352
vt 0.702148 0.234619
vt 0.702637 0.233765
vt 0.702637 0.230347
vt 0.703125 0.223633
vt 0.882324 0.909668
vt 0.882324 0.90918
vt 0.880859 0.90918
vt 0.879395 0.90918
vt 0.87793 0.90918
vt 0.876465 0.90918
vt 0.875 0.90918
vt 0.874023 0.909668
vt 0.874023 0.90918
vt 0.873047 0.909668
vt 0.872559 0.909668
vt 0.872559 0.914062
vt 0.873047 0.914062
vt 0.870117 0.916992
vt 0.871094 0.916992
vt 0.870117 0.945801
vt 0.871094 0.945801
vt 0.871094 0.946777
vt 0.870117 0.946777
vt 0.870117 0.947754
vt 0.871094 0.947754
vt 0.87207 0.947754
vt 0.87207 0.948242
vt 0.871094 0.948242
vt 0.870117 0.948242
vt 0.870117 0.94873
vt 0.871094 0.94873
vt 0.369873 0.005402
vt 0.371582 0.004791
vt 0.371582 0.005402
vt 0.376221 0.004791
vt 0.376221 0.005402
vt 0.37793 0.005402
vt 0.874023 0.914062
vt 0.87207 0.916992
vt 0.873047 0.916992
vt 0.87207 0.945801
vt 0.87207 0.946777
vt 0.873047 0.947754
vt 0.874023 0.945801
vt 0.873047 0.945801
vt 0.873047 0.946777
vt 0.874023 0.946777
vt 0.874023 0.947754
vt 0.873047 0.948242
vt 0.87207 0.94873
vt 0.873047 0.94873
vt 0.874023 0.94873
vt 0.874023 0.948242
vt 0.875 0.948242
vt 0.875 0.94873
vt 0.875977 0.94873
vt 0.875 0.947754
vt 0.875977 0.948242
vt 0.876953 0.948242
vt 0.876953 0.94873
vt 0.875977 0.947754
vt 0.87793 0.948242
vt 0.876953 0.947754
vt 0.87793 0.94873
vt 0.878906 0.948242
vt 0.878906 0.94873
vt 0.879883 0.94873
vt 0.878906 0.947754
vt 0.87793 0.947754
vt 0.876953 0.946777
vt 0.875977 0.946777
vt 0.875 0.946777
vt 0.875 0.945801
vt 0.355713 0.010101
vt 0.355713 0.010803
vt 0.35791 0.010101
vt 0.358154 0.010803
vt 0.794922 0.008301
vt 0.794922 0.009003
vt 0.797363 0.009003
vt 0.797363 0.008301
vn -0.9692 0.2462 0.0012
vn -0.9999 -0.0129 0
vn -0.9625 -0.2714 0
vn -0.8742 0.4856 0.0013
vn -0.8814 -0.4724 0
vn -0.8724 0.4888 -0.0013
vn -0.8864 -0.463 0
vn -0.7853 -0.6192 0
vn -0.7154 0.6988 -0.0014
vn -0.5109 0.8596 -0.0013
vn -0.2717 0.9624 -0.0012
vn -0.0129 0.9999 -0.001
vn 0.2462 0.9692 -0.0012
vn -0.9862 0.1657 -0.0011
vn -0.9932 0.1161 -0.0011
vn -0.9692 0.2462 -0.0012
vn -0.8742 0.4856 -0.0013
vn -0.981 -0.1941 0
vn -0.9897 -0.1428 0
vn -0.7154 0.6988 0.0014
vn -0.5109 0.8596 0.0013
vn -0.0129 0.9999 0.001
vn -0.2462 -0.969 -0.0193
vn -0.2254 -0.8855 -0.4064
vn -0.1195 -0.9926 -0.0199
vn -0.1078 -0.9134 -0.3925
vn -0.1009 -0.84 0.5331
vn -0.4444 -0.8003 -0.4026
vn -0.4914 -0.8707 -0.0189
vn -0.2137 -0.8257 0.522
vn -0.2084 -0.8076 0.5517
vn -0.0984 -0.8235 0.5587
vn -0.1172 -0.9931 0
vn -0.2473 -0.9689 0
vn -0.4155 -0.7338 0.5375
vn -0.4898 -0.8718 0
vn -0.4202 -0.7535 0.5056
vn -0.6995 -0.7147 0
vn -0.5918 -0.6036 0.5343
vn -0.5789 -0.5908 0.562
vn -0.7248 -0.4286 0.5395
vn -0.86 -0.5104 0
vn -0.6373 -0.6556 -0.405
vn -0.7422 -0.4371 0.508
vn -0.7978 -0.2242 0.5597
vn -0.814 -0.2297 0.5334
vn -0.7829 -0.4629 -0.4158
vn -0.8427 -0.0095 0.5383
vn -0.6978 -0.716 -0.0196
vn -0.6972 -0.7156 0.0427
vn -0.8014 0.2038 0.5624
vn -0.7364 0.4135 0.5354
vn -0.8724 0.4888 0.0013
vn -0.8176 0.2094 0.5364
vn -0.8598 -0.5102 -0.0218
vn -0.86 -0.5086 0.0413
vn -0.6845 -0.7015 0.1982
vn -0.8443 -0.5002 0.1923
vn -0.9618 -0.2704 0.0424
vn -0.9625 -0.2706 -0.0196
vn -0.8819 -0.2436 -0.4036
vn -0.9998 -0.0111 -0.0181
vn -0.9992 -0.0113 0.039
vn -0.9686 0.2479 -0.0206
vn -0.8615 -0.0122 0.5077
vn -0.9179 -0.0117 -0.3967
vn -0.8864 0.2205 -0.407
vn -0.798 0.4466 -0.4047
vn -0.7511 0.4257 0.5046
vn -0.8713 0.4904 -0.0203
vn -0.8698 0.4918 0.0397
vn -0.6098 0.5963 0.522
vn -0.6558 0.6359 -0.4068
vn -0.7167 0.6971 -0.021
vn -0.5973 0.5838 0.5499
vn -0.4284 0.7262 0.5376
vn -0.4227 0.7111 0.5619
vn -0.2717 0.9624 0.0012
vn -0.4663 0.7816 -0.4143
vn -0.2238 0.804 0.5509
vn -0.229 0.8223 0.521
vn -0.0123 0.8409 0.5411
vn 0.249 0.9685 -0.0012
vn 0.2038 0.8014 0.5624
vn -0.0122 0.8605 0.5093
vn 0.2094 0.8176 0.5364
vn 0.4108 0.7276 0.5494
vn 0.4198 0.7425 0.5219
vn -0.0117 0.9172 -0.3983
vn 0.2239 0.8852 -0.4078
vn -0.2438 0.881 -0.4054
vn -0.0131 0.9997 -0.0192
vn 0.2479 0.9686 -0.0206
vn -0.2709 0.9624 -0.0208
vn -0.0134 0.9991 0.0401
vn 0.2467 0.9683 0.0405
vn 0.2391 0.9522 0.1904
vn -0.0127 0.982 0.1885
vn -0.0124 0.9887 0.1496
vn -0.2646 0.9448 0.1933
vn -0.27 0.962 0.0411
vn -0.5096 0.8602 -0.0204
vn -0.508 0.8604 0.0399
vn -0.5007 0.8436 0.194
vn -0.701 0.6855 0.1965
vn -0.715 0.6979 0.0412
vn 0.449 0.686 0.5725
vn 0.5155 0.7933 0.324
vn -0.1964 0.9256 0.3236
vn -0.1649 0.7823 0.6007
vn -0.1481 0.1 0.9839
vn -0.2005 0.9481 0.2469
vn 0.5257 0.8141 0.2466
vn -0.686 0.449 0.5725
vn -0.7908 0.5192 0.3243
vn -0.781 -0.165 0.6024
vn -0.925 -0.1966 0.3253
vn -0.4472 -0.6859 0.5741
vn -0.1493 -0.8077 0.5703
vn -0.1743 -0.9365 0.3043
vn -0.5133 -0.7955 0.322
vn -0.1765 -0.9558 0.2353
vn -0.9485 -0.2003 0.2453
vn -0.528 -0.8121 0.2484
vn -0.1829 -0.9776 0.1038
vn -0.8118 0.5293 0.2468
vn -0.3619 -0.9277 0.0918
vn -0.1825 -0.9811 0.0648
vn -0.3674 -0.9277 0.0665
vn -0.6976 -0.7107 0.0909
vn -0.6961 -0.7149 0.0664
vn -0.9191 -0.3883 0.0672
vn -0.9127 -0.3972 0.0962
vn -0.9978 -0.0116 0.0651
vn -0.9953 -0.0032 0.0963
vn -0.9261 0.3664 0.0906
vn -0.926 0.3717 0.0653
vn -0.7114 0.6967 0.0924
vn -0.7142 0.6969 0.0649
vn -0.3944 0.9166 0.066
vn -0.3968 0.913 0.0947
vn -0.0116 0.9977 0.0662
vn -0.0032 0.9955 0.0952
vn 0.3631 0.9273 0.0904
vn 0.3685 0.9273 0.0652
vn -0.7249 0.0042 0.6889
vn -0.9716 -0.0131 0.2363
vn -0.9673 0.2307 0.1058
vn -0.7222 -0.0239 0.6913
vn -0.9643 -0.234 0.1241
vn -0.9637 -0.239 -0.1189
vn -0.8928 -0.4504 0
vn -0.8975 -0.4409 0
vn -0.9716 -0.0131 -0.2363
vn -0.7235 -0.0267 -0.6898
vn -0.7263 0.0069 -0.6874
vn -0.9673 0.2307 -0.1058
vn -0.867 0.4983 0.0013
vn -0.8633 0.5046 -0.0013
vn -0.7015 0.7126 0.0014
vn -0.7071 0.7071 -0.0014
vn 0.2462 0.9692 0.0012
vn 0.1244 0.9922 -0.0099
vn 0.1932 0.958 -0.2119
vn 0.1911 0.9095 -0.3692
vn 0 -0.001 -1
vn 0.1198 0.9927 -0.0121
vn -0.1606 -0.2871 -0.9443
vn -0.1754 -0.2836 -0.9428
vn -0.5534 -0.759 -0.3431
vn -0.5627 -0.7551 -0.3363
vn -0.5627 -0.7551 0.3363
vn -0.5534 -0.759 0.3431
vn -0.1903 -0.3092 0.9318
vn -0.1676 -0.2981 0.9397
vn 0 -0.001 1
vn 0.1114 0.0011 -0.9938
vn 0.109 -0.012 -0.994
vn 0.109 0.0011 -0.994
vn 0.1104 0.0142 -0.9938
vn -0.5051 0.8496 0.1517
vn -0.7139 0.6933 0.0986
vn -0.8618 0.4843 0.1507
vn -0.9644 0.2465 0.0958
vn -0.9886 -0.0101 0.1505
vn -0.8581 0.4761 0.1925
vn -0.9822 -0.0127 0.1872
vn -0.9513 0.2422 0.1908
vn -0.9584 -0.2681 0.0984
vn -0.9683 0.2467 0.0405
vn -0.8502 -0.5046 0.15
vn -0.9453 -0.2617 0.1945
vn -0.6941 -0.7133 0.0971
vn -0.4821 -0.8634 0.149
vn -0.1143 -0.9602 0.2547
vn -0.2453 -0.9646 0.0971
vn -0.1177 -0.9751 0.1878
vn -0.2377 -0.9522 0.1918
vn -0.1169 -0.9923 0.0405
vn -0.2484 -0.9678 0.0418
vn -0.4773 -0.8577 0.1909
vn -0.4907 -0.8704 0.0411
vn 0.1807 -0.3073 0.9343
vn 0.1963 -0.3071 0.9312
vn -0.1606 -0.2871 0.9443
vn -0.1754 -0.2836 0.9428
vn -0.1903 -0.3092 -0.9318
vn -0.1676 -0.2981 -0.9397
vn -0.0134 0.963 -0.2691
vn -0.1409 0.417 -0.8979
vn -0.2329 -0.0789 -0.9693
vn -0.1252 -0.0707 -0.9896
vn -0.1115 -0.1151 -0.9871
vn -0.045 -0.1834 -0.982
vn -0.0768 -0.2167 -0.9732
vn -0.3225 -0.5757 -0.7514
vn -0.3186 -0.5713 -0.7564
vn -0.5861 -0.793 -0.1662
vn -0.5906 -0.791 -0.1597
vn -0.5861 -0.793 0.1662
vn -0.5906 -0.791 0.1597
vn -0.3225 -0.5757 0.7514
vn -0.3186 -0.5713 0.7564
vn -0.0766 -0.2138 0.9739
vn -0.0449 -0.1807 0.9825
vn -0.1252 -0.0707 0.9896
vn -0.1115 -0.1151 0.9871
vn -0.2305 -0.0814 0.9697
vn -0.1409 0.417 0.8979
vn -0.0134 0.963 0.2691
vn 0.1735 -0.2961 0.9393
vn 0.1883 -0.2893 0.9385
vn 0.0872 -0.0953 0.9916
vn 0.1163 -0.1103 0.9871
vn 0.1088 -0.1438 0.9836
vn 0.1033 -0.1759 0.979
vn 0.1883 -0.2893 -0.9385
vn 0.1735 -0.2961 -0.9393
vn 0.0972 -0.0961 -0.9906
vn 0.1098 -0.1253 -0.986
vn 0.1096 -0.1547 -0.9819
vn 0.0884 -0.1494 -0.9848
vn 0.2465 0.9644 0.0958
vn 0.4843 0.8618 0.1507
vn 0.4796 0.8561 0.1927
vn 0.6963 0.711 0.0986
vn 0.6824 0.7041 0.1965
vn 0.4885 0.8717 0.0397
vn 0.8496 0.5051 0.1517
vn 0.4904 0.8713 -0.0203
vn 0.6979 0.715 0.0412
vn 0.4428 0.8003 -0.4042
vn 0.6393 0.6526 -0.4068
vn 0.6999 0.7139 -0.021
vn 0.8585 0.5112 0.04
vn 0.784 0.4626 -0.4139
vn 0.8602 0.5096 -0.0204
vn 0.9624 0.2709 -0.0208
vn 0.8457 0.4972 0.1938
vn 0.962 0.27 0.0411
vn 0.9457 0.2614 0.193
vn 0.9577 0.2709 0.0972
vn 0.9991 0.0134 0.0401
vn 0.9821 0.0104 0.1881
vn 0.9886 0.0147 0.1499
vn 0.965 -0.2438 0.097
vn 0.9509 -0.2425 0.1923
vn 0.8624 -0.4838 0.1491
vn 0.9997 0.0131 -0.0192
vn 0.8567 -0.4791 0.191
vn 0.9681 -0.2469 0.0418
vn 0.7118 -0.6956 0.0971
vn 0.7031 -0.6829 0.1982
vn 0.8713 -0.4891 0.0411
vn 0.492 0.8706 -0.0013
vn 0.492 0.8706 0.0013
vn 0.6988 0.7154 -0.0014
vn 0.8615 0.5078 -0.0013
vn 0.8615 0.5078 0.0013
vn 0.9632 0.2688 -0.0012
vn 0.9632 0.2688 0.0012
vn 0.9999 0.0109 -0.001
vn 0.974 -0.2265 0
vn 0.9753 -0.221 0
vn 0.9123 -0.4096 0
vn 0.9036 -0.4284 0
vn 0.8016 -0.5978 0
vn 0.6875 0.7262 -0.0014
vn 0.696 0.7181 -0.0014
vn 0.852 0.5236 0.0013
vn 0.9491 0.241 0.2029
vn 0.9237 0.0038 0.3831
vn 0.7303 0.0042 0.6832
vn 0.7317 -0.0267 0.6811
vn 0.9693 -0.2459 0
vn 0.9547 -0.2165 0.2044
vn 0.896 -0.4441 0
vn 0.888 -0.4598 0
vn 0.852 0.5236 -0.0013
vn 0.9492 0.2383 -0.2056
vn 0.9237 0.0038 -0.3831
vn 0.7303 0.0042 -0.6832
vn 0.7317 -0.0267 -0.6811
vn 0.9547 -0.2138 -0.2071
vn 0.1507 -0.9885 -0.0112
vn 0.2158 -0.9535 -0.2104
vn 0.1456 -0.9893 -0.0112
vn 0.2237 -0.9432 -0.2458
vn 0.1807 -0.3073 -0.9343
vn 0.1963 -0.3071 -0.9312
vn 0.3144 -0.5598 0.7667
vn 0.1128 -0.7078 0.6974
vn 0.0417 -0.9685 0.2455
vn 0.0119 -0.9999 0
vn 0.0417 -0.9685 -0.2455
vn 0.1128 -0.7078 -0.6974
vn 0.3144 -0.5598 -0.7667
vn 0.9955 0.0011 0.095
vn 0.9977 0.0116 0.0662
vn 0.9116 0.4001 0.0949
vn 0.918 0.3911 0.0659
vn 0.927 -0.3635 0.0919
vn 0.9271 -0.369 0.0666
vn 0.9481 0.2005 0.2469
vn 0.8133 -0.5262 0.2483
vn 0.7093 -0.699 0.0909
vn 0.7134 -0.6976 0.0664
vn 0.3932 -0.917 0.0673
vn 0.3989 -0.9119 0.0963
vn 0.2048 -0.9766 0.0658
vn 0.2047 -0.9754 0.0814
vn 0.5259 -0.8196 0.2276
vn 0.7943 -0.5151 0.3222
vn 0.5412 -0.7847 0.3024
vn 0.6873 -0.4454 0.5738
vn 0.4618 -0.6777 0.5723
vn 0.401 -0.2638 0.8773
vn 0.7807 0.1683 0.6018
vn 0.9256 0.1964 0.3236
vn 0.6997 0.7085 0.0924
vn 0.6969 0.7142 0.0649
vn -0.2709 0.9577 0.0972
vn 0.5028 -0.8513 0.15
vn 0.2696 -0.9579 0.0985
vn 0.1421 -0.989 0.0413
vn 0.1395 -0.9728 0.1852
vn 0.2633 -0.9449 0.1947
vn 0.2718 -0.9614 0.0424
vn 0.1444 -0.9893 -0.0203
vn 0.2692 -0.9629 -0.0196
vn 0.2454 -0.8812 -0.404
vn 0.1318 -0.9102 -0.3927
vn 0.1194 -0.8376 0.5331
vn 0.2341 -0.821 0.5207
vn 0.439 -0.7409 0.5083
vn 0.4304 -0.7235 0.5397
vn 0.2289 -0.8027 0.5506
vn 0.1171 -0.8209 0.559
vn 0.1441 -0.9896 0
vn 0.2699 -0.9629 0
vn 0.351 -0.5639 -0.7475
vn 0.604 -0.7764 -0.18
vn 0.6096 -0.7727 -0.1768
vn 0.604 -0.7764 0.18
vn 0.6096 -0.7727 0.1768
vn 0.351 -0.5639 0.7475
vn 0.4985 -0.8453 0.1922
vn 0.5102 -0.8591 0.0414
vn 0.7142 -0.6986 0.0427
vn 0.5106 -0.8596 -0.019
vn 0.4668 -0.7861 -0.4052
vn 0.6081 -0.5996 0.5203
vn 0.8709 -0.4909 -0.0216
vn 0.7146 -0.6992 -0.0196
vn 0.6507 -0.6424 -0.405
vn 0.7924 -0.448 -0.414
vn 0.7353 -0.4171 0.5342
vn 0.5957 -0.5838 0.5517
vn 0.5088 -0.8609 0
vn 0.716 -0.6981 0
vn 0.8709 -0.4914 0
vn 0.7225 -0.4042 0.5609
vn 0.8099 -0.2033 0.5502
vn 0.9686 -0.2487 0
vn 0.828 -0.2085 0.5205
vn 0.8437 0.0095 0.5367
vn 0.7965 0.2243 0.5614
vn 0.8631 0.0094 0.5049
vn 0.7262 0.4284 0.5376
vn 0.8129 0.2298 0.5352
vn 0.5838 0.5973 0.5499
vn 0.6988 0.7154 0.0014
vn 0.5963 0.6098 0.522
vn 0.741 0.4407 0.5067
vn 0.8797 0.2473 -0.4061
vn 0.9176 0.0091 -0.3973
vn 0.8861 -0.2237 -0.406
vn 0.9687 -0.2476 -0.0193
vn 0.5829 -0.7487 -0.3156
vn 0.5918 -0.7446 -0.3088
vn 0.5829 -0.7487 0.3156
vn 0.5918 -0.7446 0.3088
o bullet15__p0_c0
f 1/1/1 2/2/2 3/3/2
f 3/3/2 2/2/2 4/4/3
f 2/2/2 1/1/1 5/5/1
f 4/4/3 2/2/2 6/6/3
f 5/5/1 1/1/1 7/7/4
f 4/4/3 6/6/3 8/8/5
f 5/5/1 7/7/4 9/9/6
f 8/8/5 6/6/3 10/10/7
f 8/8/5 10/10/7 11/11/8
f 11/11/8 10/10/7 12/12/8
f 9/9/6 7/7/4 13/13/9
f 13/13/9 7/7/4 14/14/9
f 13/13/9 14/14/9 15/15/10
f 13/13/9 15/15/10 16/16/10
f 16/16/10 15/15/10 17/17/11
f 17/17/11 15/15/10 18/18/11
f 17/17/11 18/18/11 19/19/12
f 17/17/11 19/19/12 20/20/12
f 20/20/12 19/19/12 21/21/13
f 20/20/12 21/21/13 22/22/13
f 23/23/2 24/24/14 25/25/15
f 24/24/14 23/23/2 26/26/2
f 24/24/14 26/26/2 27/27/16
f 24/24/14 27/27/16 28/28/17
f 26/26/2 23/23/2 29/29/18
f 29/29/18 23/23/2 30/30/19
f 26/26/2 29/29/18 31/31/3
f 28/28/17 27/27/16 32/32/6
f 31/31/3 29/29/18 33/33/5
f 28/28/17 32/32/6 34/34/20
f 31/31/3 33/33/5 35/35/7
f 35/35/7 33/33/5 36/36/8
f 35/35/7 36/36/8 37/37/8
f 34/34/20 32/32/6 38/38/9
f 34/34/20 38/38/9 39/39/10
f 34/34/20 39/39/10 40/40/21
f 40/40/21 39/39/10 41/41/11
f 40/40/21 41/41/11 42/42/11
f 42/42/11 41/41/11 43/43/22
f 43/43/22 41/41/11 44/44/22
f 43/43/22 44/44/22 45/45/13
f 45/45/13 44/44/22 46/46/13
f 47/47/23 48/48/24 49/49/25
f 49/49/25 48/48/24 50/50/26
f 50/50/26 48/48/24 51/51/27
f 48/48/24 47/47/23 52/52/28
f 52/52/28 47/47/23 53/53/29
f 51/51/27 48/48/24 54/54/30
f 54/54/30 48/48/24 52/52/28
f 51/51/27 54/54/30 55/55/31
f 51/51/27 55/55/31 56/56/32
f 56/56/32 55/55/31 57/57/33
f 57/57/33 55/55/31 58/58/34
f 58/58/34 55/55/31 59/59/35
f 59/59/35 55/55/31 54/54/30
f 58/58/34 59/59/35 60/60/36
f 54/54/30 52/52/28 61/61/37
f 54/54/30 61/61/37 59/59/35
f 60/60/36 59/59/35 62/62/38
f 61/61/37 52/52/28 63/63/39
f 61/61/37 63/63/39 59/59/35
f 62/62/38 59/59/35 64/64/40
f 64/64/40 59/59/35 63/63/39
f 62/62/38 64/64/40 65/65/41
f 65/65/41 64/64/40 63/63/39
f 62/62/38 65/65/41 66/66/42
f 63/63/39 52/52/28 67/67/43
f 67/67/43 52/52/28 53/53/29
f 65/65/41 63/63/39 68/68/44
f 68/68/44 63/63/39 67/67/43
f 66/66/42 65/65/41 69/69/45
f 66/66/42 69/69/45 70/70/3
f 65/65/41 68/68/44 71/71/46
f 65/65/41 71/71/46 69/69/45
f 68/68/44 67/67/43 72/72/47
f 68/68/44 72/72/47 71/71/46
f 70/70/3 69/69/45 73/73/48
f 73/73/48 69/69/45 71/71/46
f 70/70/3 73/73/48 74/74/2
f 74/74/2 73/73/48 75/75/1
f 76/76/49 67/67/43 53/53/29
f 67/67/43 76/76/49 72/72/47
f 76/76/49 53/53/29 77/77/50
f 75/75/1 73/73/48 78/78/51
f 75/75/1 78/78/51 79/79/52
f 75/75/1 79/79/52 80/80/53
f 78/78/51 73/73/48 81/81/54
f 78/78/51 81/81/54 79/79/52
f 76/76/49 77/77/50 82/82/55
f 76/76/49 82/82/55 72/72/47
f 82/82/55 77/77/50 83/83/56
f 83/83/56 77/77/50 84/84/57
f 83/83/56 84/84/57 85/85/58
f 83/83/56 85/85/58 86/86/59
f 83/83/56 86/86/59 82/82/55
f 72/72/47 82/82/55 87/87/60
f 87/87/60 82/82/55 86/86/59
f 72/72/47 87/87/60 88/88/61
f 87/87/60 86/86/59 89/89/62
f 87/87/60 89/89/62 88/88/61
f 72/72/47 88/88/61 71/71/46
f 89/89/62 86/86/59 90/90/63
f 89/89/62 90/90/63 91/91/64
f 71/71/46 88/88/61 92/92/65
f 71/71/46 92/92/65 73/73/48
f 73/73/48 92/92/65 81/81/54
f 92/92/65 88/88/61 93/93/66
f 93/93/66 88/88/61 89/89/62
f 92/92/65 93/93/66 81/81/54
f 93/93/66 89/89/62 94/94/67
f 94/94/67 89/89/62 91/91/64
f 93/93/66 94/94/67 81/81/54
f 94/94/67 91/91/64 95/95/68
f 94/94/67 95/95/68 81/81/54
f 81/81/54 95/95/68 96/96/69
f 81/81/54 96/96/69 79/79/52
f 95/95/68 91/91/64 97/97/70
f 97/97/70 91/91/64 98/98/71
f 96/96/69 95/95/68 99/99/72
f 96/96/69 99/99/72 79/79/52
f 95/95/68 97/97/70 100/100/73
f 95/95/68 100/100/73 99/99/72
f 97/97/70 98/98/71 101/101/74
f 97/97/70 101/101/74 100/100/73
f 79/79/52 99/99/72 102/102/75
f 79/79/52 102/102/75 80/80/53
f 80/80/53 102/102/75 103/103/9
f 103/103/9 102/102/75 104/104/21
f 102/102/75 99/99/72 105/105/76
f 105/105/76 99/99/72 100/100/73
f 104/104/21 102/102/75 106/106/77
f 106/106/77 102/102/75 105/105/76
f 104/104/21 106/106/77 107/107/78
f 105/105/76 100/100/73 108/108/79
f 108/108/79 100/100/73 101/101/74
f 106/106/77 105/105/76 109/109/80
f 106/106/77 109/109/80 107/107/78
f 109/109/80 105/105/76 110/110/81
f 110/110/81 105/105/76 108/108/79
f 107/107/78 109/109/80 111/111/82
f 111/111/82 109/109/80 110/110/81
f 107/107/78 111/111/82 112/112/12
f 112/112/12 111/111/82 113/113/83
f 113/113/83 111/111/82 114/114/84
f 111/111/82 110/110/81 115/115/85
f 114/114/84 111/111/82 116/116/86
f 116/116/86 111/111/82 115/115/85
f 114/114/84 116/116/86 117/117/87
f 117/117/87 116/116/86 118/118/88
f 116/116/86 115/115/85 119/119/89
f 119/119/89 115/115/85 110/110/81
f 116/116/86 119/119/89 120/120/90
f 119/119/89 110/110/81 121/121/91
f 121/121/91 110/110/81 108/108/79
f 120/120/90 119/119/89 122/122/92
f 122/122/92 119/119/89 121/121/91
f 120/120/90 122/122/92 123/123/93
f 121/121/91 108/108/79 124/124/94
f 121/121/91 124/124/94 122/122/92
f 123/123/93 122/122/92 125/125/95
f 125/125/95 122/122/92 124/124/94
f 123/123/93 125/125/95 126/126/96
f 126/126/96 125/125/95 127/127/97
f 127/127/97 125/125/95 128/128/98
f 127/127/97 128/128/98 129/129/99
f 129/129/99 128/128/98 130/130/100
f 130/130/100 128/128/98 125/125/95
f 130/130/100 125/125/95 131/131/101
f 131/131/101 125/125/95 124/124/94
f 132/132/102 124/124/94 108/108/79
f 124/124/94 132/132/102 131/131/101
f 132/132/102 108/108/79 101/101/74
f 131/131/101 132/132/102 133/133/103
f 131/131/101 133/133/103 134/134/104
f 134/134/104 133/133/103 135/135/105
f 133/133/103 132/132/102 136/136/106
f 136/136/106 132/132/102 101/101/74
f 133/133/103 136/136/106 135/135/105
f 136/136/106 101/101/74 98/98/71
f 136/136/106 98/98/71 135/135/105
f 137/137/107 138/138/108 139/139/109
f 137/137/107 139/139/109 140/140/110
f 137/137/107 140/140/110 141/141/111
f 139/139/109 138/138/108 142/142/112
f 142/142/112 138/138/108 143/143/113
f 140/140/110 139/139/109 144/144/114
f 140/140/110 144/144/114 141/141/111
f 144/144/114 139/139/109 145/145/115
f 145/145/115 139/139/109 142/142/112
f 141/141/111 144/144/114 146/146/116
f 144/144/114 145/145/115 147/147/117
f 144/144/114 147/147/117 146/146/116
f 141/141/111 146/146/116 148/148/118
f 148/148/118 146/146/116 147/147/117
f 141/141/111 148/148/118 149/149/119
f 149/149/119 148/148/118 150/150/120
f 150/150/120 148/148/118 151/151/121
f 151/151/121 148/148/118 147/147/117
f 150/150/120 151/151/121 152/152/122
f 153/153/123 147/147/117 145/145/115
f 147/147/117 153/153/123 151/151/121
f 152/152/122 151/151/121 154/154/124
f 154/154/124 151/151/121 153/153/123
f 152/152/122 154/154/124 155/155/125
f 153/153/123 145/145/115 156/156/126
f 156/156/126 145/145/115 142/142/112
f 155/155/125 154/154/124 157/157/127
f 155/155/125 157/157/127 158/158/128
f 158/158/128 157/157/127 159/159/129
f 159/159/129 157/157/127 160/160/130
f 160/160/130 157/157/127 154/154/124
f 159/159/129 160/160/130 161/161/131
f 161/161/131 160/160/130 162/162/132
f 160/160/130 154/154/124 163/163/133
f 160/160/130 163/163/133 162/162/132
f 163/163/133 154/154/124 153/153/123
f 162/162/132 163/163/133 164/164/134
f 163/163/133 153/153/123 165/165/135
f 163/163/133 165/165/135 164/164/134
f 165/165/135 153/153/123 156/156/126
f 164/164/134 165/165/135 166/166/136
f 166/166/136 165/165/135 156/156/126
f 164/164/134 166/166/136 167/167/137
f 167/167/137 166/166/136 168/168/138
f 168/168/138 166/166/136 156/156/126
f 167/167/137 168/168/138 169/169/139
f 169/169/139 168/168/138 170/170/140
f 168/168/138 156/156/126 171/171/141
f 168/168/138 171/171/141 170/170/140
f 171/171/141 156/156/126 142/142/112
f 170/170/140 171/171/141 172/172/142
f 171/171/141 142/142/112 173/173/143
f 171/171/141 173/173/143 172/172/142
f 173/173/143 142/142/112 143/143/113
f 173/173/143 143/143/113 174/174/144
f 173/173/143 174/174/144 172/172/142
f 172/172/142 174/174/144 175/175/145
f 176/176/146 177/177/147 178/178/148
f 177/177/147 176/176/146 179/179/149
f 177/177/147 179/179/149 180/180/150
f 177/177/147 180/180/150 181/181/151
f 181/181/151 180/180/150 182/182/152
f 182/182/152 180/180/150 183/183/153
f 182/182/152 183/183/153 184/184/8
f 184/184/8 183/183/153 185/185/8
f 177/177/147 181/181/151 186/186/154
f 177/177/147 186/186/154 178/178/148
f 186/186/154 181/181/151 187/187/155
f 186/186/154 187/187/155 188/188/156
f 186/186/154 188/188/156 189/189/157
f 186/186/154 189/189/157 178/178/148
f 178/178/148 189/189/157 190/190/158
f 190/190/158 189/189/157 191/191/159
f 190/190/158 191/191/159 192/192/160
f 192/192/160 191/191/159 193/193/161
f 192/192/160 193/193/161 194/194/10
f 192/192/160 194/194/10 195/195/21
f 195/195/21 194/194/10 196/196/11
f 195/195/21 196/196/11 197/197/11
f 197/197/11 196/196/11 198/198/12
f 197/197/11 198/198/12 199/199/12
f 199/199/12 198/198/12 200/200/162
f 199/199/12 200/200/162 201/201/13
f 202/202/163 24/203/164 203/204/165
f 204/205/166 205/206/166 206/207/166
f 205/206/166 204/205/166 207/208/166
f 207/208/166 204/205/166 208/209/166
f 207/208/166 208/209/166 209/210/166
f 207/208/166 209/210/166 210/211/166
f 210/211/166 209/210/166 211/212/166
f 210/211/166 211/212/166 212/213/166
f 212/213/166 211/212/166 113/214/166
f 113/214/166 211/212/166 213/215/166
f 113/214/166 213/215/166 112/216/166
f 112/216/166 213/215/166 57/217/166
f 112/216/166 57/217/166 58/218/166
f 112/216/166 58/218/166 107/219/166
f 107/219/166 58/218/166 60/220/166
f 107/219/166 60/220/166 104/221/166
f 104/221/166 60/220/166 62/222/166
f 104/221/166 62/222/166 103/223/166
f 103/223/166 62/222/166 80/224/166
f 80/224/166 62/222/166 66/225/166
f 80/224/166 66/225/166 70/226/166
f 80/224/166 70/226/166 75/227/166
f 75/227/166 70/226/166 74/228/166
f 24/203/164 202/202/163 25/229/167
f 203/204/165 24/203/164 28/230/166
f 203/204/165 28/230/166 214/231/166
f 214/231/166 28/230/166 34/232/166
f 214/231/166 34/232/166 40/233/166
f 214/231/166 40/233/166 215/234/166
f 215/234/166 40/233/166 42/235/166
f 215/234/166 42/235/166 43/236/166
f 215/234/166 43/236/166 216/237/166
f 216/237/166 43/236/166 45/238/166
f 216/237/166 45/238/166 217/239/166
f 216/237/166 217/239/166 218/240/166
f 218/240/166 217/239/166 219/241/166
f 218/240/166 219/241/166 220/242/166
f 218/240/166 220/242/166 221/243/166
f 221/243/166 220/242/166 222/244/166
f 221/243/166 222/244/166 223/245/166
f 221/243/166 223/245/166 224/246/166
f 224/246/166 223/245/166 225/247/166
f 224/246/166 225/247/166 226/248/168
f 224/246/166 226/248/168 227/249/169
f 227/249/169 226/248/168 228/250/170
f 227/249/169 228/250/170 229/251/171
f 229/251/171 228/250/170 230/252/172
f 230/252/172 228/250/170 231/253/173
f 230/252/172 231/253/173 232/254/174
f 232/254/174 231/253/173 233/255/175
f 232/254/174 233/255/175 179/256/176
f 179/256/176 233/255/175 234/257/176
f 23/258/177 25/259/178 235/260/179
f 235/260/179 25/259/178 202/261/178
f 23/258/177 235/260/179 30/262/180
f 30/262/180 235/260/179 236/263/180
f 237/264/176 238/265/181 239/266/182
f 239/266/182 238/265/181 134/134/104
f 237/264/176 239/266/182 240/267/183
f 237/264/176 240/267/183 241/268/176
f 240/267/183 239/266/182 135/135/105
f 135/135/105 239/266/182 134/134/104
f 134/134/104 238/265/181 130/130/100
f 241/268/176 240/267/183 242/269/184
f 134/134/104 130/130/100 131/131/101
f 241/268/176 242/269/184 243/270/185
f 241/268/176 243/270/185 244/271/176
f 242/269/184 240/267/183 245/272/186
f 245/272/186 240/267/183 135/135/105
f 243/270/185 242/269/184 246/273/187
f 242/269/184 245/272/186 247/274/188
f 242/269/184 247/274/188 246/273/187
f 243/270/185 246/273/187 248/275/189
f 243/270/185 248/275/189 244/271/176
f 246/273/187 247/274/188 90/90/63
f 247/274/188 245/272/186 249/276/190
f 247/274/188 249/276/190 90/90/63
f 249/276/190 245/272/186 98/98/71
f 98/98/71 245/272/186 135/135/105
f 244/271/176 248/275/189 250/277/191
f 251/278/192 248/275/189 246/273/187
f 248/275/189 251/278/192 250/277/191
f 251/278/192 246/273/187 90/90/63
f 244/271/176 250/277/191 252/279/176
f 249/276/190 91/91/64 90/90/63
f 91/91/64 249/276/190 98/98/71
f 251/278/192 90/90/63 86/86/59
f 250/277/191 251/278/192 85/85/58
f 85/85/58 251/278/192 86/86/59
f 252/279/176 250/277/191 253/280/193
f 253/280/193 250/277/191 85/85/58
f 252/279/176 253/280/193 254/281/194
f 253/280/193 85/85/58 84/84/57
f 253/280/193 84/84/57 254/281/194
f 252/279/176 254/281/194 255/282/176
f 256/283/195 257/284/176 255/282/176
f 256/283/195 255/282/176 258/285/196
f 258/285/196 255/282/176 254/281/194
f 256/283/195 258/285/196 259/286/197
f 259/286/197 258/285/196 260/287/198
f 260/287/198 258/285/196 254/281/194
f 259/286/197 260/287/198 261/288/199
f 261/288/199 260/287/198 262/289/200
f 260/287/198 254/281/194 263/290/201
f 260/287/198 263/290/201 262/289/200
f 263/290/201 254/281/194 84/84/57
f 261/288/199 262/289/200 49/49/25
f 263/290/201 84/84/57 264/291/202
f 263/290/201 264/291/202 262/289/200
f 264/291/202 84/84/57 77/77/50
f 262/289/200 264/291/202 53/53/29
f 53/53/29 264/291/202 77/77/50
f 49/49/25 262/289/200 47/47/23
f 47/47/23 262/289/200 53/53/29
f 8/292/203 265/293/204 266/294/176
f 8/292/203 266/294/176 4/295/176
f 4/295/176 266/294/176 3/296/176
f 3/296/176 266/294/176 267/297/176
f 3/296/176 267/297/176 1/298/176
f 1/298/176 267/297/176 7/299/176
f 7/299/176 267/297/176 268/300/176
f 7/299/176 268/300/176 14/301/176
f 14/301/176 268/300/176 15/302/176
f 15/302/176 268/300/176 269/303/176
f 15/302/176 269/303/176 18/304/176
f 18/304/176 269/303/176 19/305/176
f 19/305/176 269/303/176 270/306/176
f 19/305/176 270/306/176 21/307/176
f 21/307/176 270/306/176 271/308/176
f 271/308/176 270/306/176 272/309/176
f 271/308/176 272/309/176 273/310/176
f 273/310/176 272/309/176 274/311/176
f 274/311/176 272/309/176 275/312/176
f 274/311/176 275/312/176 276/313/176
f 274/311/176 276/313/176 277/314/176
f 277/314/176 276/313/176 278/315/176
f 277/314/176 278/315/176 279/316/176
f 279/316/176 278/315/176 280/317/176
f 280/317/176 278/315/176 281/318/176
f 280/317/176 281/318/176 282/319/205
f 282/319/205 281/318/176 283/320/206
f 282/319/205 283/320/206 284/321/173
f 284/321/173 283/320/206 285/322/172
f 284/321/173 285/322/172 286/323/171
f 284/321/173 286/323/171 287/324/170
f 287/324/170 286/323/171 288/325/207
f 287/324/170 288/325/207 289/326/208
f 289/326/208 288/325/207 187/327/166
f 289/326/208 187/327/166 290/328/166
f 176/329/12 178/330/209 291/331/12
f 291/331/12 178/330/209 292/332/210
f 292/332/210 178/330/209 190/333/211
f 292/332/210 190/333/211 293/334/212
f 293/334/212 190/333/211 192/335/213
f 293/334/212 192/335/213 195/336/166
f 293/334/212 195/336/166 294/337/166
f 294/337/166 195/336/166 197/338/166
f 294/337/166 197/338/166 199/339/166
f 294/337/166 199/339/166 295/340/166
f 295/340/166 199/339/166 201/341/166
f 295/340/166 201/341/166 296/342/166
f 295/340/166 296/342/166 297/343/166
f 297/343/166 296/342/166 298/344/166
f 297/343/166 298/344/166 299/345/166
f 297/343/166 299/345/166 300/346/166
f 300/346/166 299/345/166 301/347/166
f 300/346/166 301/347/166 302/348/166
f 300/346/166 302/348/166 303/349/214
f 303/349/214 302/348/166 304/350/215
f 303/349/214 304/350/215 305/351/216
f 305/351/216 304/350/215 306/352/217
f 305/351/216 306/352/217 307/353/218
f 305/351/216 307/353/218 308/354/219
f 308/354/219 307/353/218 309/355/220
f 308/354/219 309/355/220 310/356/221
f 310/356/221 309/355/220 311/357/222
f 311/357/222 309/355/220 312/358/223
f 311/357/222 312/358/223 313/359/224
f 311/357/222 313/359/224 314/360/225
f 314/360/225 313/359/224 315/361/176
f 314/360/225 315/361/176 316/362/176
f 316/362/176 315/361/176 317/363/176
f 316/362/176 317/363/176 318/364/176
f 316/362/176 318/364/176 319/365/176
f 319/365/176 318/364/176 320/366/176
f 319/365/176 320/366/176 321/367/176
f 319/365/176 321/367/176 322/368/176
f 322/368/176 321/367/176 200/369/176
f 322/368/176 200/369/176 198/370/176
f 322/368/176 198/370/176 323/371/176
f 323/371/176 198/370/176 196/372/176
f 323/371/176 196/372/176 194/373/176
f 323/371/176 194/373/176 324/374/226
f 324/374/226 194/373/176 193/375/227
f 324/374/226 193/375/227 191/376/228
f 324/374/226 191/376/228 325/377/229
f 325/377/229 191/376/228 189/378/230
f 325/377/229 189/378/230 326/379/22
f 326/379/22 189/378/230 188/380/22
f 35/381/231 327/382/232 31/383/176
f 31/383/176 327/382/232 328/384/176
f 31/383/176 328/384/176 26/385/176
f 26/385/176 328/384/176 329/386/176
f 26/385/176 329/386/176 27/387/176
f 27/387/176 329/386/176 32/388/176
f 32/388/176 329/386/176 330/389/176
f 32/388/176 330/389/176 38/390/176
f 38/390/176 330/389/176 39/391/176
f 39/391/176 330/389/176 331/392/176
f 39/391/176 331/392/176 41/393/176
f 41/393/176 331/392/176 44/394/176
f 44/394/176 331/392/176 332/395/176
f 44/394/176 332/395/176 46/396/176
f 46/396/176 332/395/176 333/397/176
f 333/397/176 332/395/176 334/398/233
f 333/397/176 334/398/233 335/399/234
f 336/400/235 334/398/233 337/401/236
f 336/400/235 337/401/236 176/402/176
f 336/400/235 176/402/176 291/403/176
f 338/404/166 339/405/166 2/406/166
f 2/406/166 339/405/166 6/407/166
f 6/407/166 339/405/166 340/408/237
f 6/407/166 340/408/237 10/409/238
f 338/404/166 2/406/166 5/410/166
f 338/404/166 5/410/166 9/411/166
f 338/404/166 9/411/166 341/412/166
f 341/412/166 9/411/166 13/413/166
f 341/412/166 13/413/166 16/414/166
f 341/412/166 16/414/166 342/415/166
f 342/415/166 16/414/166 17/416/166
f 342/415/166 17/416/166 20/417/166
f 342/415/166 20/417/166 343/418/166
f 343/418/166 20/417/166 22/419/166
f 343/418/166 22/419/166 344/420/166
f 343/418/166 344/420/166 345/421/239
f 345/421/239 344/420/166 346/422/240
f 347/423/241 346/422/240 348/424/242
f 347/423/241 348/424/242 188/425/166
f 188/425/166 348/424/242 326/426/166
f 349/427/243 350/428/244 127/127/97
f 127/127/97 350/428/244 351/429/245
f 351/429/245 350/428/244 352/430/246
f 127/127/97 351/429/245 126/126/96
f 351/429/245 352/430/246 353/431/247
f 126/126/96 351/429/245 354/432/248
f 354/432/248 351/429/245 353/431/247
f 126/126/96 354/432/248 123/123/93
f 353/431/247 352/430/246 355/433/249
f 123/123/93 354/432/248 356/434/250
f 354/432/248 353/431/247 357/435/251
f 354/432/248 357/435/251 356/434/250
f 123/123/93 356/434/250 358/436/252
f 123/123/93 358/436/252 120/120/90
f 120/120/90 358/436/252 118/118/88
f 120/120/90 118/118/88 116/116/86
f 358/436/252 356/434/250 359/437/253
f 358/436/252 359/437/253 118/118/88
f 356/434/250 357/435/251 360/438/254
f 356/434/250 360/438/254 359/437/253
f 360/438/254 357/435/251 361/439/255
f 361/439/255 357/435/251 353/431/247
f 359/437/253 360/438/254 362/440/256
f 360/438/254 361/439/255 363/441/257
f 360/438/254 363/441/257 362/440/256
f 363/441/257 361/439/255 364/442/258
f 363/441/257 364/442/258 362/440/256
f 361/439/255 353/431/247 365/443/259
f 365/443/259 353/431/247 355/433/249
f 361/439/255 365/443/259 366/444/260
f 361/439/255 366/444/260 364/442/258
f 365/443/259 355/433/249 367/445/261
f 365/443/259 367/445/261 366/444/260
f 367/445/261 355/433/249 368/446/262
f 364/442/258 366/444/260 369/447/263
f 369/447/263 366/444/260 367/445/261
f 367/445/261 368/446/262 370/448/264
f 367/445/261 370/448/264 369/447/263
f 370/448/264 368/446/262 371/449/265
f 370/448/264 371/449/265 372/450/266
f 370/448/264 372/450/266 373/451/267
f 370/448/264 373/451/267 369/447/263
f 373/451/267 372/450/266 374/452/268
f 375/453/269 364/442/258 369/447/263
f 373/451/267 374/452/268 376/454/270
f 369/447/263 373/451/267 377/455/271
f 377/455/271 373/451/267 376/454/270
f 376/454/270 374/452/268 378/456/272
f 369/447/263 377/455/271 375/453/269
f 376/454/270 378/456/272 379/457/273
f 377/455/271 376/454/270 380/458/274
f 380/458/274 376/454/270 379/457/273
f 201/201/13 200/200/162 296/459/275
f 296/459/275 200/200/162 321/460/276
f 296/459/275 321/460/276 298/461/277
f 298/461/277 321/460/276 320/462/277
f 298/461/277 320/462/277 318/463/278
f 298/461/277 318/463/278 299/464/279
f 299/464/279 318/463/278 317/465/280
f 299/464/279 317/465/280 301/466/281
f 301/466/281 317/465/280 315/467/282
f 301/466/281 315/467/282 302/468/282
f 302/468/282 315/467/282 313/469/283
f 302/468/282 313/469/283 304/470/284
f 304/470/284 313/469/283 312/471/285
f 304/470/284 312/471/285 306/472/286
f 306/472/286 312/471/285 307/473/287
f 307/473/287 312/471/285 309/474/287
f 22/22/13 21/21/13 271/475/275
f 22/22/13 271/475/275 344/476/275
f 344/476/275 271/475/275 346/477/288
f 346/477/288 271/475/275 273/478/289
f 346/477/288 273/478/289 348/479/290
f 348/479/290 273/478/289 274/480/279
f 348/479/290 274/480/279 326/481/291
f 326/481/291 274/480/279 277/482/280
f 326/481/291 277/482/280 279/483/282
f 326/481/291 279/483/282 381/484/292
f 326/481/291 381/484/292 325/485/293
f 325/485/293 381/484/292 382/486/294
f 381/484/292 279/483/282 280/487/295
f 382/486/294 381/484/292 290/488/296
f 290/488/296 381/484/292 280/487/295
f 290/488/296 280/487/295 282/489/297
f 290/488/296 282/489/297 289/490/298
f 289/490/298 282/489/297 287/491/287
f 287/491/287 282/489/297 284/492/287
f 45/45/13 46/46/13 217/493/275
f 217/493/275 46/46/13 333/494/275
f 217/493/275 333/494/275 335/495/288
f 217/493/275 335/495/288 219/496/289
f 219/496/289 335/495/288 336/497/299
f 219/496/289 336/497/299 220/498/278
f 220/498/278 336/497/299 222/499/280
f 222/499/280 336/497/299 291/500/300
f 222/499/280 291/500/300 383/501/301
f 383/501/301 291/500/300 292/502/302
f 383/501/301 292/502/302 384/503/303
f 222/499/280 383/501/301 223/504/282
f 383/501/301 384/503/303 234/505/304
f 383/501/301 234/505/304 223/504/282
f 223/504/282 234/505/304 225/506/295
f 225/506/295 234/505/304 226/507/297
f 226/507/297 234/505/304 233/508/298
f 226/507/297 233/508/298 231/509/287
f 226/507/297 231/509/287 228/510/287
f 335/399/234 334/398/233 336/400/235
f 345/421/239 346/422/240 347/423/241
f 236/511/305 29/512/306 30/513/307
f 385/514/308 33/515/309 29/512/306
f 33/515/309 385/514/308 386/516/310
f 182/517/311 382/518/312 181/519/313
f 181/519/313 382/518/312 290/520/314
f 181/519/313 290/520/314 187/521/314
f 180/522/315 179/523/314 234/524/314
f 180/522/315 234/524/314 384/525/316
f 180/522/315 384/525/316 183/526/317
f 387/527/318 388/528/319 389/529/320
f 389/529/320 388/528/319 390/530/321
f 388/528/319 387/527/318 391/531/322
f 388/528/319 391/531/322 392/532/323
f 387/527/318 389/529/320 393/533/324
f 391/531/322 387/527/318 394/534/325
f 394/534/325 387/527/318 393/533/324
f 392/532/323 391/531/322 395/535/326
f 395/535/326 391/531/322 394/534/325
f 392/532/323 395/535/326 396/536/327
f 396/536/327 395/535/326 397/537/328
f 397/537/328 395/535/326 398/538/329
f 398/538/329 395/535/326 394/534/325
f 397/537/328 398/538/329 158/539/330
f 158/539/330 398/538/329 155/540/331
f 155/540/331 398/538/329 152/541/332
f 152/541/332 398/538/329 394/534/325
f 152/541/332 394/534/325 399/542/333
f 399/542/333 394/534/325 393/533/324
f 152/541/332 399/542/333 150/543/334
f 150/543/334 399/542/333 400/544/335
f 150/543/334 400/544/335 149/545/336
f 149/545/336 400/544/335 141/546/337
f 141/546/337 400/544/335 401/547/338
f 400/544/335 399/542/333 402/548/339
f 400/544/335 402/548/339 401/547/338
f 402/548/339 399/542/333 393/533/324
f 401/547/338 402/548/339 137/137/107
f 401/547/338 137/137/107 141/141/111
f 137/137/107 402/548/339 138/138/108
f 138/138/108 402/548/339 393/533/324
f 138/138/108 393/533/324 143/143/113
f 143/143/113 393/533/324 389/529/320
f 143/143/113 389/529/320 403/549/340
f 403/549/340 389/529/320 390/530/321
f 143/143/113 403/549/340 174/174/144
f 403/549/340 390/530/321 404/550/341
f 174/174/144 403/549/340 175/175/145
f 175/175/145 403/549/340 404/550/341
f 405/551/342 129/129/99 130/130/100
f 129/129/99 405/551/342 406/552/176
f 406/552/176 405/551/342 238/265/181
f 238/265/181 405/551/342 130/130/100
f 406/552/176 238/265/181 237/264/176
f 129/129/99 406/552/176 407/553/176
f 129/129/99 407/553/176 349/427/243
f 349/427/243 407/553/176 350/428/244
f 350/428/244 407/553/176 408/554/176
f 129/129/99 349/427/243 127/127/97
f 350/428/244 408/554/176 352/430/246
f 352/430/246 408/554/176 355/433/249
f 355/433/249 408/554/176 409/555/176
f 355/433/249 409/555/176 368/446/262
f 368/446/262 409/555/176 371/449/265
f 371/449/265 409/555/176 410/556/176
f 371/449/265 410/556/176 372/450/266
f 372/450/266 410/556/176 374/452/268
f 374/452/268 410/556/176 411/557/176
f 374/452/268 411/557/176 378/456/272
f 378/456/272 411/557/176 412/558/343
f 412/558/343 411/557/176 257/559/176
f 412/558/343 257/559/176 413/560/344
f 413/560/344 257/559/176 256/561/345
f 413/560/344 256/561/345 259/562/346
f 413/560/344 259/562/346 414/563/347
f 414/563/347 259/562/346 261/564/345
f 414/563/347 261/564/345 415/565/348
f 415/565/348 261/564/345 49/566/349
f 415/565/348 49/566/349 416/567/350
f 416/567/350 49/566/349 417/568/351
f 417/568/351 49/566/349 50/569/352
f 417/568/351 50/569/352 51/570/353
f 417/568/351 51/570/353 418/571/354
f 419/572/355 418/571/354 420/573/356
f 420/573/356 418/571/354 421/574/357
f 421/574/357 418/571/354 51/570/353
f 421/574/357 51/570/353 56/575/358
f 421/574/357 56/575/358 57/576/359
f 421/574/357 57/576/359 213/577/360
f 236/511/305 385/514/308 29/512/306
f 183/526/317 384/525/316 422/578/361
f 183/526/317 422/578/361 185/579/362
f 185/579/362 422/578/361 423/580/363
f 185/579/362 423/580/363 184/581/364
f 184/581/364 423/580/363 424/582/365
f 184/581/364 424/582/365 425/583/366
f 184/581/364 425/583/366 182/517/311
f 182/517/311 425/583/366 382/518/312
f 426/584/367 379/457/273 378/456/272
f 426/584/367 378/456/272 412/558/343
f 426/584/367 412/558/343 414/563/347
f 414/563/347 412/558/343 413/560/344
f 426/584/367 414/563/347 415/565/348
f 426/584/367 415/565/348 427/585/368
f 426/584/367 427/585/368 379/457/273
f 427/585/368 415/565/348 416/567/350
f 428/586/369 380/458/274 379/457/273
f 428/586/369 379/457/273 427/585/368
f 427/585/368 416/567/350 429/587/370
f 427/585/368 429/587/370 428/586/369
f 429/587/370 416/567/350 430/588/371
f 430/588/371 416/567/350 417/568/351
f 430/588/371 417/568/351 419/572/355
f 419/572/355 417/568/351 418/571/354
f 430/588/371 419/572/355 431/589/372
f 432/590/373 380/458/274 428/586/369
f 380/458/274 432/590/373 377/455/271
f 433/591/374 428/586/369 429/587/370
f 428/586/369 433/591/374 432/590/373
f 434/592/375 429/587/370 430/588/371
f 429/587/370 434/592/375 433/591/374
f 434/592/375 430/588/371 431/589/372
f 420/573/356 431/589/372 419/572/355
f 433/591/374 434/592/375 435/593/376
f 433/591/374 435/593/376 432/590/373
f 434/592/375 431/589/372 436/594/377
f 434/592/375 436/594/377 435/593/376
f 431/589/372 420/573/356 437/595/378
f 431/589/372 437/595/378 436/594/377
f 213/577/360 420/573/356 421/574/357
f 420/573/356 213/577/360 211/596/379
f 420/573/356 211/596/379 437/595/378
f 437/595/378 211/596/379 209/597/380
f 437/595/378 209/597/380 208/598/381
f 436/594/377 437/595/378 438/599/382
f 438/599/382 437/595/378 208/598/381
f 438/599/382 208/598/381 439/600/383
f 438/599/382 439/600/383 436/594/377
f 439/600/383 208/598/381 204/601/384
f 439/600/383 204/601/384 206/602/282
f 436/594/377 439/600/383 440/603/385
f 436/594/377 440/603/385 435/593/376
f 439/600/383 206/602/282 441/604/386
f 439/600/383 441/604/386 440/603/385
f 441/604/386 206/602/282 442/605/387
f 442/605/387 206/602/282 205/606/281
f 440/603/385 441/604/386 443/607/388
f 442/605/387 205/606/281 444/608/389
f 441/604/386 442/605/387 445/609/390
f 441/604/386 445/609/390 443/607/388
f 445/609/390 442/605/387 444/608/389
f 444/608/389 205/606/281 207/610/279
f 444/608/389 207/610/279 446/611/391
f 446/611/391 207/610/279 210/612/392
f 446/611/391 210/612/392 212/613/275
f 446/611/391 212/613/275 117/117/87
f 117/117/87 212/613/275 113/113/83
f 117/117/87 113/113/83 114/114/84
f 446/611/391 117/117/87 118/118/88
f 446/611/391 118/118/88 447/614/393
f 446/611/391 447/614/393 444/608/389
f 447/614/393 118/118/88 359/437/253
f 444/608/389 447/614/393 448/615/394
f 444/608/389 448/615/394 445/609/390
f 447/614/393 359/437/253 362/440/256
f 447/614/393 362/440/256 448/615/394
f 448/615/394 362/440/256 445/609/390
f 445/609/390 362/440/256 449/616/395
f 449/616/395 362/440/256 364/442/258
f 449/616/395 364/442/258 375/453/269
f 445/609/390 449/616/395 450/617/396
f 450/617/396 449/616/395 375/453/269
f 445/609/390 450/617/396 443/607/388
f 443/607/388 450/617/396 451/618/397
f 451/618/397 450/617/396 375/453/269
f 443/607/388 451/618/397 440/603/385
f 440/603/385 451/618/397 435/593/376
f 451/618/397 375/453/269 452/619/398
f 451/618/397 452/619/398 435/593/376
f 452/619/398 375/453/269 377/455/271
f 435/593/376 452/619/398 432/590/373
f 432/590/373 452/619/398 377/455/271
f 10/409/238 340/408/237 12/620/399
f 12/620/399 340/408/237 453/621/400
f 12/620/399 453/621/400 11/622/401
f 11/622/401 453/621/400 454/623/402
f 11/622/401 454/623/402 265/293/204
f 11/622/401 265/293/204 8/292/203
f 33/515/309 386/516/310 36/624/399
f 36/624/399 386/516/310 455/625/400
f 36/624/399 455/625/400 456/626/402
f 36/624/399 456/626/402 37/627/401
f 37/627/401 456/626/402 327/382/232
f 37/627/401 327/382/232 35/381/231
