# CS2 body mesh, tools/cs2_glb_to_obj.py
v 0.02133 -0.01346 -0.02188
v 0.02234 -0.01355 -0.02188
v 0.02235 -0.01356 -0.04904
v 0.02138 -0.01476 -0.01898
v 0.02206 -0.01482 -0.01898
v 0.02134 -0.01346 -0.04904
v 0.02222 -0.01415 -0.04971
v 0.02033 -0.01363 -0.02188
v 0.02136 -0.01407 -0.04971
v 0.02138 -0.01476 -0.01496
v 0.02206 -0.01482 -0.01496
v 0.0214 -0.01519 -0.01496
v 0.02222 -0.01415 -0.05049
v 0.02071 -0.01487 -0.01496
v 0.02032 -0.01552 -0.01496
v 0.02071 -0.01487 -0.01898
v 0.02009 -0.01516 -0.01496
v 0.01957 -0.01559 -0.01496
v 0.01956 -0.01635 -0.01496
v 0.0201 -0.01516 -0.01898
v 0.0194 -0.01406 -0.02189
v 0.01957 -0.01559 -0.01898
v 0.01918 -0.01615 -0.01496
v 0.01862 -0.01471 -0.02189
v 0.01918 -0.01615 -0.01898
v 0.01895 -0.01678 -0.01496
v 0.01931 -0.01744 -0.01496
v 0.02033 -0.01364 -0.04904
v 0.01941 -0.01406 -0.04904
v 0.02052 -0.01422 -0.04971
v 0.01863 -0.01472 -0.04904
v 0.01974 -0.01458 -0.04971
v 0.02136 -0.01407 -0.05049
v 0.02052 -0.01422 -0.05049
v 0.02134 -0.01346 -0.0508
v 0.02235 -0.01356 -0.0508
v 0.02235 -0.01356 -0.05134
v 0.02134 -0.01346 -0.05134
v 0.02033 -0.01364 -0.05135
v 0.02033 -0.01364 -0.0508
v 0.01941 -0.01406 -0.05135
v 0.01974 -0.01458 -0.05049
v 0.01941 -0.01406 -0.0508
v 0.01863 -0.01472 -0.05135
v 0.01908 -0.01513 -0.04971
v 0.01863 -0.01472 -0.0508
v 0.01908 -0.01513 -0.05049
v 0.01804 -0.01555 -0.0508
v 0.01804 -0.01555 -0.05135
v 0.01769 -0.0165 -0.05135
v 0.01769 -0.0165 -0.0508
v 0.01858 -0.01583 -0.04971
v 0.01858 -0.01583 -0.05049
v 0.0176 -0.01752 -0.05135
v 0.01828 -0.01664 -0.05049
v 0.0176 -0.01752 -0.0508
v 0.01777 -0.01852 -0.0508
v 0.01821 -0.01749 -0.05049
v 0.01902 -0.01352 -0.02205
v 0.01813 -0.01426 -0.02603
v 0.01813 -0.01426 -0.02205
v 0.01746 -0.01521 -0.02205
v 0.01905 -0.0135 -0.02603
v 0.01745 -0.01523 -0.02603
v 0.02013 -0.013 -0.02205
v 0.01703 -0.01635 -0.02205
v 0.02013 -0.013 -0.02603
v 0.01703 -0.01635 -0.02603
v 0.01693 -0.01745 -0.02288
v 0.01693 -0.01745 -0.0252
v 0.0213 -0.0128 -0.02603
v 0.0213 -0.0128 -0.02205
v 0.02249 -0.0129 -0.02205
v 0.02249 -0.0129 -0.02603
v 0.01814 -0.01426 -0.04619
v 0.01903 -0.01352 -0.04114
v 0.01899 -0.01356 -0.04619
v 0.01814 -0.01426 -0.03716
v 0.01905 -0.0135 -0.03716
v 0.02013 -0.013 -0.04114
v 0.01747 -0.01521 -0.04114
v 0.0175 -0.01517 -0.04619
v 0.01745 -0.01524 -0.03716
v 0.02013 -0.013 -0.03716
v 0.01704 -0.01635 -0.04114
v 0.02131 -0.0128 -0.04114
v 0.01704 -0.01635 -0.03716
v 0.01694 -0.01745 -0.04032
v 0.01694 -0.01745 -0.03799
v 0.02131 -0.0128 -0.03716
v 0.02249 -0.0129 -0.03716
v 0.02249 -0.01291 -0.04114
v 0.0219 -0.01552 -0.00847
v 0.02199 -0.01511 -0.01495
v 0.02116 -0.0155 -0.00847
v 0.02109 -0.01508 -0.01495
v 0.02152 -0.01577 -0.00678
v 0.02025 -0.01541 -0.01495
v 0.02048 -0.01577 -0.00847
v 0.0196 -0.01603 -0.01495
v 0.02039 -0.01621 -0.00678
v 0.02151 -0.01624 -0.00509
v 0.01995 -0.01627 -0.00847
v 0.01965 -0.01694 -0.00847
v 0.01923 -0.01685 -0.01495
v 0.0199 -0.01732 -0.00678
v 0.02071 -0.01655 -0.00509
v 0.0215 -0.01673 -0.0041
v 0.01963 -0.01768 -0.00847
v 0.01921 -0.01775 -0.01495
v 0.01954 -0.01859 -0.01495
v 0.01989 -0.01836 -0.00847
v 0.02033 -0.01845 -0.00678
v 0.02105 -0.0169 -0.0041
v 0.02148 -0.01736 -0.00376
v 0.02037 -0.01733 -0.00509
v 0.02067 -0.01813 -0.00509
v 0.02085 -0.01734 -0.0041
v 0.02103 -0.01779 -0.0041
v 0.02501 -0.019 -0.03754
v 0.02557 -0.02112 -0.03556
v 0.02649 -0.02036 -0.03556
v 0.0234 -0.02073 -0.03754
v 0.02488 -0.0221 -0.03556
v 0.02488 -0.0221 -0.02762
v 0.02447 -0.02322 -0.02811
v 0.02447 -0.02322 -0.03508
v 0.02437 -0.02432 -0.02941
v 0.02437 -0.02432 -0.03378
v 0.02557 -0.02112 -0.02762
v 0.0234 -0.02073 -0.02565
v 0.025 -0.019 -0.02565
v 0.02648 -0.02036 -0.02762
v 0.02757 -0.01986 -0.03556
v 0.02757 -0.01986 -0.02762
v 0.02874 -0.01966 -0.03594
v 0.02874 -0.01966 -0.02724
v 0.02993 -0.01977 -0.02724
v 0.02993 -0.01977 -0.03594
v 0.01777 -0.01852 -0.05135
v 0.0182 -0.01944 -0.05135
v 0.01885 -0.02022 -0.05134
v 0.01968 -0.02081 -0.05134
v 0.02064 -0.02116 -0.05134
v 0.02331 -0.01391 -0.05134
v 0.02165 -0.02125 -0.05134
v 0.02414 -0.01449 -0.05134
v 0.02265 -0.02108 -0.05134
v 0.02479 -0.01528 -0.05134
v 0.02358 -0.02065 -0.05134
v 0.02436 -0.02 -0.05134
v 0.02522 -0.0162 -0.05134
v 0.02539 -0.0172 -0.05134
v 0.02495 -0.01917 -0.05134
v 0.0253 -0.01822 -0.05134
v 0.02553 -0.01948 -0.03754
v 0.02702 -0.02085 -0.03556
v 0.02702 -0.02085 -0.02762
v 0.02553 -0.01948 -0.02565
v 0.01941 -0.01406 -0.04114
v 0.02133 -0.01346 -0.04114
v 0.0233 -0.01391 -0.04114
v 0.02361 -0.01332 -0.04114
v 0.02459 -0.014 -0.04114
v 0.02479 -0.01528 -0.04114
v 0.02535 -0.01492 -0.04114
v 0.02585 -0.016 -0.04114
v 0.02539 -0.0172 -0.04114
v 0.02605 -0.01718 -0.04114
v 0.02594 -0.01836 -0.04114
v 0.02494 -0.01917 -0.04114
v 0.02553 -0.01948 -0.04114
v 0.02485 -0.02045 -0.04114
v 0.02357 -0.02065 -0.04114
v 0.02393 -0.02122 -0.04114
v 0.02285 -0.02172 -0.04114
v 0.02265 -0.02108 -0.04114
v 0.02176 -0.02191 -0.04039
v 0.02165 -0.02125 -0.04039
v 0.02165 -0.02125 -0.03829
v 0.02176 -0.0219 -0.03829
v 0.02265 -0.02108 -0.03754
v 0.02285 -0.02172 -0.03754
v 0.02393 -0.02122 -0.03754
v 0.01863 -0.01471 -0.04612
v 0.01941 -0.01406 -0.04612
v 0.01804 -0.01555 -0.04612
v 0.01828 -0.01664 -0.04971
v 0.01835 -0.01834 -0.05049
v 0.0182 -0.01944 -0.0508
v 0.01871 -0.01912 -0.05049
v 0.01835 -0.01834 -0.04971
v 0.01821 -0.01749 -0.04971
v 0.01804 -0.01555 -0.04904
v 0.01769 -0.0165 -0.04904
v 0.01803 -0.01554 -0.02189
v 0.01768 -0.0165 -0.02189
v 0.01895 -0.01679 -0.01898
v 0.0176 -0.01752 -0.04904
v 0.01759 -0.01751 -0.02189
v 0.01777 -0.01852 -0.04904
v 0.01776 -0.01852 -0.02189
v 0.01889 -0.01746 -0.01898
v 0.01889 -0.01746 -0.01496
v 0.019 -0.01813 -0.01496
v 0.01965 -0.01852 -0.01496
v 0.019 -0.01813 -0.01898
v 0.0182 -0.01944 -0.04904
v 0.01819 -0.01944 -0.02189
v 0.01929 -0.01875 -0.01898
v 0.01929 -0.01875 -0.01496
v 0.01871 -0.01912 -0.04971
v 0.01885 -0.02022 -0.04904
v 0.01884 -0.02022 -0.02188
v 0.01972 -0.01927 -0.01898
v 0.01972 -0.01927 -0.01496
v 0.02047 -0.01928 -0.01496
v 0.02028 -0.01966 -0.01898
v 0.02028 -0.01966 -0.01496
v 0.02091 -0.01989 -0.01496
v 0.02157 -0.01953 -0.01496
v 0.01967 -0.02081 -0.02188
v 0.01968 -0.02081 -0.04904
v 0.02091 -0.01989 -0.01898
v 0.02063 -0.02116 -0.02188
v 0.02159 -0.01996 -0.01898
v 0.02159 -0.01996 -0.01496
v 0.02226 -0.01984 -0.01496
v 0.02265 -0.01919 -0.01496
v 0.02226 -0.01984 -0.01898
v 0.02287 -0.01955 -0.01496
v 0.0234 -0.01912 -0.01496
v 0.02341 -0.01837 -0.01496
v 0.02379 -0.01857 -0.01496
v 0.02402 -0.01793 -0.01496
v 0.02365 -0.01727 -0.01496
v 0.02408 -0.01725 -0.01496
v 0.02397 -0.01658 -0.01496
v 0.02332 -0.0162 -0.01496
v 0.02368 -0.01597 -0.01496
v 0.02325 -0.01545 -0.01496
v 0.02249 -0.01543 -0.01496
v 0.02269 -0.01505 -0.01496
v 0.02331 -0.01391 -0.04904
v 0.0233 -0.01391 -0.02188
v 0.02302 -0.01445 -0.04971
v 0.02302 -0.01445 -0.05049
v 0.02414 -0.01449 -0.04904
v 0.02269 -0.01505 -0.01898
v 0.02413 -0.01449 -0.02188
v 0.02325 -0.01545 -0.01898
v 0.02368 -0.01597 -0.01898
v 0.02397 -0.01658 -0.01898
v 0.02478 -0.01527 -0.02188
v 0.02479 -0.01528 -0.04904
v 0.02521 -0.0162 -0.02188
v 0.02408 -0.01725 -0.01898
v 0.02522 -0.0162 -0.04904
v 0.02538 -0.0172 -0.02188
v 0.02402 -0.01793 -0.01898
v 0.02529 -0.01821 -0.02188
v 0.02539 -0.0172 -0.04904
v 0.0253 -0.01822 -0.04904
v 0.02464 -0.01638 -0.04971
v 0.02478 -0.01723 -0.04971
v 0.02495 -0.01917 -0.04904
v 0.02428 -0.0156 -0.04971
v 0.02464 -0.01638 -0.05049
v 0.02373 -0.01494 -0.04971
v 0.02428 -0.0156 -0.05049
v 0.02373 -0.01494 -0.05049
v 0.02414 -0.01449 -0.0508
v 0.02331 -0.01391 -0.0508
v 0.02479 -0.01528 -0.0508
v 0.02522 -0.0162 -0.0508
v 0.02877 -0.02032 -0.03594
v 0.03074 -0.02077 -0.03594
v 0.03105 -0.02018 -0.03594
v 0.03202 -0.02087 -0.03594
v 0.03222 -0.02214 -0.03594
v 0.03278 -0.02178 -0.03594
v 0.03328 -0.02286 -0.03594
v 0.03282 -0.02406 -0.03594
v 0.03349 -0.02404 -0.03594
v 0.03338 -0.02522 -0.03594
v 0.03238 -0.02603 -0.03594
v 0.03297 -0.02634 -0.03594
v 0.03228 -0.02732 -0.03594
v 0.03101 -0.02752 -0.03594
v 0.03136 -0.02808 -0.03594
v 0.03008 -0.02794 -0.03541
v 0.03028 -0.02858 -0.03541
v 0.02919 -0.02877 -0.03399
v 0.02908 -0.02812 -0.03399
v 0.02919 -0.02877 -0.0292
v 0.02908 -0.02812 -0.0292
v 0.03008 -0.02794 -0.02777
v 0.03028 -0.02858 -0.02777
v 0.03136 -0.02808 -0.02724
v 0.031 -0.02752 -0.02724
v 0.03228 -0.02732 -0.02724
v 0.03237 -0.02603 -0.02724
v 0.03296 -0.02634 -0.02724
v 0.03338 -0.02522 -0.02724
v 0.03282 -0.02406 -0.02724
v 0.03348 -0.02404 -0.02724
v 0.03328 -0.02286 -0.02724
v 0.03222 -0.02214 -0.02724
v 0.03278 -0.02178 -0.02724
v 0.03202 -0.02087 -0.02724
v 0.03073 -0.02077 -0.02724
v 0.03104 -0.02018 -0.02724
v 0.02877 -0.02032 -0.02724
v 0.02249 -0.01894 -0.00847
v 0.02337 -0.01869 -0.01495
v 0.02302 -0.01844 -0.00847
v 0.02272 -0.01931 -0.01495
v 0.0218 -0.01921 -0.00847
v 0.02188 -0.01963 -0.01495
v 0.02144 -0.01894 -0.00678
v 0.02258 -0.01851 -0.00678
v 0.02145 -0.01847 -0.00509
v 0.02332 -0.01777 -0.00847
v 0.02373 -0.01786 -0.01495
v 0.02307 -0.0174 -0.00678
v 0.02225 -0.01817 -0.00509
v 0.02147 -0.01798 -0.0041
v 0.02192 -0.01781 -0.0041
v 0.02334 -0.01704 -0.00847
v 0.02376 -0.01696 -0.01495
v 0.02343 -0.01612 -0.01495
v 0.02307 -0.01635 -0.00847
v 0.02281 -0.01547 -0.01495
v 0.02211 -0.01737 -0.0041
v 0.02194 -0.01692 -0.0041
v 0.02229 -0.01659 -0.00509
v 0.0226 -0.01738 -0.00509
v 0.02263 -0.01626 -0.00678
v 0.02257 -0.01582 -0.00847
v 0.02361 -0.01332 -0.02603
v 0.02361 -0.01332 -0.02205
v 0.02458 -0.014 -0.02205
v 0.02458 -0.014 -0.02603
v 0.02534 -0.01492 -0.02205
v 0.02535 -0.01492 -0.02603
v 0.02584 -0.016 -0.02205
v 0.02585 -0.016 -0.02603
v 0.02605 -0.01717 -0.02603
v 0.02605 -0.01717 -0.02205
v 0.02594 -0.01836 -0.02565
v 0.02594 -0.01836 -0.02205
v 0.02553 -0.01948 -0.02205
v 0.02484 -0.02045 -0.02205
v 0.02484 -0.02045 -0.02565
v 0.02541 -0.02259 -0.02771
v 0.02392 -0.02122 -0.02205
v 0.02393 -0.02122 -0.02565
v 0.02284 -0.02172 -0.02205
v 0.02284 -0.02172 -0.02565
v 0.02361 -0.01332 -0.03716
v 0.02459 -0.014 -0.03716
v 0.02535 -0.01492 -0.03716
v 0.02585 -0.016 -0.03716
v 0.02605 -0.01718 -0.03716
v 0.02594 -0.01836 -0.03754
v 0.02484 -0.02045 -0.03754
v 0.02542 -0.02259 -0.03547
v 0.0194 -0.01406 -0.02603
v 0.01804 -0.01554 -0.02603
v 0.01768 -0.0165 -0.02603
v 0.02133 -0.01346 -0.02603
v 0.01759 -0.01751 -0.0252
v 0.0233 -0.01391 -0.02603
v 0.01759 -0.01751 -0.02288
v 0.01768 -0.0165 -0.02205
v 0.02478 -0.01527 -0.02603
v 0.01803 -0.01554 -0.02205
v 0.02538 -0.0172 -0.02603
v 0.0194 -0.01406 -0.02205
v 0.02529 -0.01821 -0.02565
v 0.02133 -0.01346 -0.02205
v 0.0233 -0.01391 -0.02205
v 0.02478 -0.01527 -0.02205
v 0.02538 -0.0172 -0.02205
v 0.02529 -0.01821 -0.02205
v 0.02494 -0.01917 -0.02205
v 0.02435 -0.02 -0.02205
v 0.02357 -0.02065 -0.02205
v 0.02264 -0.02108 -0.02205
v 0.02175 -0.0219 -0.0228
v 0.02164 -0.02125 -0.0228
v 0.02164 -0.02125 -0.0249
v 0.02175 -0.0219 -0.0249
v 0.02265 -0.02108 -0.02565
v 0.0204 -0.01889 -0.00847
v 0.02016 -0.01924 -0.01495
v 0.02107 -0.01919 -0.00847
v 0.02098 -0.01961 -0.01495
v 0.01804 -0.01555 -0.04114
v 0.01769 -0.0165 -0.04114
v 0.0176 -0.01751 -0.04032
v 0.01759 -0.01751 -0.03799
v 0.01769 -0.0165 -0.03716
v 0.01804 -0.01555 -0.03716
v 0.01941 -0.01406 -0.03716
v 0.02133 -0.01346 -0.03716
v 0.0233 -0.01391 -0.03716
v 0.02479 -0.01528 -0.03716
v 0.02539 -0.0172 -0.03716
v 0.02529 -0.01822 -0.03754
v 0.02512 -0.02336 -0.03508
v 0.02503 -0.02438 -0.03378
v 0.02503 -0.02438 -0.02941
v 0.02512 -0.02336 -0.02811
v 0.01926 -0.01978 -0.04971
v 0.01926 -0.01978 -0.05049
v 0.01996 -0.02027 -0.04971
v 0.01885 -0.02022 -0.0508
v 0.01996 -0.02027 -0.05049
v 0.02077 -0.02057 -0.04971
v 0.01968 -0.02081 -0.0508
v 0.02064 -0.02116 -0.0508
v 0.02077 -0.02057 -0.05049
v 0.02165 -0.02125 -0.0508
v 0.02265 -0.02108 -0.0508
v 0.02163 -0.02065 -0.05049
v 0.02247 -0.0205 -0.05049
v 0.02358 -0.02065 -0.0508
v 0.02325 -0.02014 -0.05049
v 0.02163 -0.02065 -0.04971
v 0.02247 -0.0205 -0.04971
v 0.02265 -0.02108 -0.04904
v 0.02064 -0.02116 -0.04904
v 0.02165 -0.02125 -0.04904
v 0.02164 -0.02125 -0.02188
v 0.02265 -0.02108 -0.02188
v 0.02478 -0.01723 -0.05049
v 0.02539 -0.0172 -0.0508
v 0.0253 -0.01822 -0.0508
v 0.0247 -0.01808 -0.05049
v 0.02495 -0.01917 -0.0508
v 0.0247 -0.01808 -0.04971
v 0.02441 -0.01889 -0.05049
v 0.02436 -0.02 -0.0508
v 0.02391 -0.01959 -0.05049
v 0.02391 -0.01959 -0.04971
v 0.02441 -0.01889 -0.04971
v 0.02325 -0.02014 -0.04971
v 0.02436 -0.02 -0.04904
v 0.02358 -0.02065 -0.04904
v 0.02357 -0.02065 -0.02188
v 0.02435 -0.02 -0.02188
v 0.02288 -0.01956 -0.01898
v 0.0234 -0.01912 -0.01898
v 0.02379 -0.01857 -0.01898
v 0.02494 -0.01917 -0.02188
vt 0.871094 0.916992
vt 0.870117 0.916992
vt 0.870117 0.945801
vt 0.873047 0.914062
vt 0.872559 0.914062
vt 0.871094 0.945801
vt 0.870117 0.946777
vt 0.87207 0.916992
vt 0.871094 0.946777
vt 0.873047 0.909668
vt 0.872559 0.909668
vt 0.874023 0.90918
vt 0.870117 0.947754
vt 0.874023 0.909668
vt 0.875 0.90918
vt 0.874023 0.914062
vt 0.874512 0.909668
vt 0.875488 0.909668
vt 0.876465 0.90918
vt 0.874512 0.914062
vt 0.873047 0.916992
vt 0.875488 0.914062
vt 0.875977 0.909668
vt 0.874023 0.916992
vt 0.875977 0.914062
vt 0.876953 0.909668
vt 0.87793 0.90918
vt 0.87207 0.945801
vt 0.873047 0.945801
vt 0.87207 0.946777
vt 0.874023 0.945801
vt 0.873047 0.946777
vt 0.871094 0.947754
vt 0.87207 0.947754
vt 0.871094 0.948242
vt 0.870117 0.948242
vt 0.870117 0.94873
vt 0.871094 0.94873
vt 0.87207 0.94873
vt 0.87207 0.948242
vt 0.873047 0.94873
vt 0.873047 0.947754
vt 0.873047 0.948242
vt 0.874023 0.94873
vt 0.874023 0.946777
vt 0.874023 0.948242
vt 0.874023 0.947754
vt 0.875 0.948242
vt 0.875 0.94873
vt 0.875977 0.94873
vt 0.875977 0.948242
vt 0.875 0.946777
vt 0.875 0.947754
vt 0.876953 0.94873
vt 0.875977 0.947754
vt 0.876953 0.948242
vt 0.87793 0.948242
vt 0.876953 0.947754
vt 0.279053 0.027313
vt 0.277832 0.023346
vt 0.277832 0.027313
vt 0.276611 0.027313
vt 0.279053 0.023346
vt 0.276611 0.023346
vt 0.280273 0.027313
vt 0.275391 0.027313
vt 0.280273 0.023346
vt 0.275391 0.023346
vt 0.27417 0.026642
vt 0.27417 0.024292
vt 0.281494 0.023346
vt 0.281494 0.027313
vt 0.282715 0.027313
vt 0.282715 0.023346
vt 0.176392 0.348877
vt 0.177612 0.354004
vt 0.177612 0.348877
vt 0.176392 0.35791
vt 0.177612 0.35791
vt 0.178833 0.354004
vt 0.175171 0.354004
vt 0.175171 0.348877
vt 0.175171 0.35791
vt 0.178833 0.35791
vt 0.17395 0.354004
vt 0.180054 0.354004
vt 0.17395 0.35791
vt 0.172852 0.354736
vt 0.172852 0.357178
vt 0.180054 0.35791
vt 0.181152 0.35791
vt 0.181152 0.354004
vt 0.699707 0.230347
vt 0.699219 0.223633
vt 0.699219 0.230347
vt 0.698242 0.223633
vt 0.699707 0.232178
vt 0.697266 0.223633
vt 0.69873 0.230347
vt 0.696289 0.223633
vt 0.69873 0.232178
vt 0.700195 0.233765
vt 0.697754 0.230347
vt 0.697266 0.230347
vt 0.695801 0.223633
vt 0.697266 0.232178
vt 0.699219 0.233765
vt 0.700195 0.234619
vt 0.696777 0.230347
vt 0.694824 0.223633
vt 0.693848 0.223633
vt 0.695801 0.230347
vt 0.696289 0.232178
vt 0.699707 0.234619
vt 0.700684 0.235229
vt 0.698242 0.233765
vt 0.697754 0.233765
vt 0.699219 0.234863
vt 0.69873 0.235229
vt 0.134033 0.447021
vt 0.132812 0.449951
vt 0.134033 0.449951
vt 0.131592 0.447021
vt 0.131592 0.449951
vt 0.131592 0.458008
vt 0.130371 0.45752
vt 0.130371 0.450439
vt 0.129272 0.456055
vt 0.129272 0.45166
vt 0.132812 0.458008
vt 0.131592 0.460693
vt 0.134033 0.460693
vt 0.134033 0.458008
vt 0.135254 0.449951
vt 0.135254 0.458008
vt 0.136475 0.449463
vt 0.136475 0.458252
vt 0.137695 0.458252
vt 0.137695 0.449463
vt 0.266113 0.731934
vt 0.266113 0.72998
vt 0.266113 0.730957
vt 0.266602 0.729004
vt 0.266602 0.73291
vt 0.267334 0.733887
vt 0.267334 0.728027
vt 0.268066 0.734375
vt 0.268066 0.727539
vt 0.269043 0.734863
vt 0.269043 0.727051
vt 0.270264 0.727051
vt 0.270264 0.734863
vt 0.27124 0.734863
vt 0.27124 0.727051
vt 0.272217 0.734375
vt 0.272217 0.727539
vt 0.273193 0.733887
vt 0.273193 0.728027
vt 0.273682 0.729004
vt 0.273682 0.73291
vt 0.27417 0.731934
vt 0.27417 0.72998
vt 0.27417 0.730957
vt 0.628418 0.012787
vt 0.625977 0.012787
vt 0.628418 0.013428
vt 0.625488 0.013428
vt 0.587402 0.013428
vt 0.586914 0.012787
vt 0.583984 0.013428
vt 0.583984 0.012787
vt 0.731934 0.007629
vt 0.731934 0.006897
vt 0.730957 0.006897
vt 0.729492 0.007629
vt 0.729492 0.006897
vt 0.728516 0.006897
vt 0.727539 0.007629
vt 0.727539 0.006897
vt 0.726562 0.006897
vt 0.725586 0.007629
vt 0.725586 0.006897
vt 0.724121 0.006897
vt 0.723145 0.007629
vt 0.723145 0.006897
vt 0.722168 0.006897
vt 0.721191 0.007629
vt 0.721191 0.006897
vt 0.719727 0.006897
vt 0.71875 0.007629
vt 0.71875 0.006897
vt 0.717773 0.006897
vt 0.717773 0.007629
vt 0.716309 0.006897
vt 0.716309 0.007629
vt 0.714355 0.007629
vt 0.714355 0.006897
vt 0.712891 0.007629
vt 0.712891 0.006897
vt 0.711914 0.007629
vt 0.711914 0.006897
vt 0.840332 0.996094
vt 0.840332 0.994629
vt 0.839844 0.996094
vt 0.839844 0.994629
vt 0.840332 0.99707
vt 0.839844 0.99707
vt 0.736816 0.007629
vt 0.736816 0.006897
vt 0.875977 0.946777
vt 0.87793 0.94873
vt 0.87793 0.947754
vt 0.878906 0.948242
vt 0.878906 0.94873
vt 0.878906 0.947754
vt 0.879883 0.94873
vt 0.87793 0.946777
vt 0.876953 0.946777
vt 0.875 0.945801
vt 0.875977 0.945801
vt 0.875 0.916992
vt 0.875977 0.916992
vt 0.876953 0.914062
vt 0.876953 0.945801
vt 0.876953 0.916992
vt 0.87793 0.945801
vt 0.87793 0.916992
vt 0.877441 0.914062
vt 0.877441 0.909668
vt 0.878418 0.909668
vt 0.879395 0.90918
vt 0.878418 0.914062
vt 0.878906 0.945801
vt 0.878906 0.916992
vt 0.879395 0.914062
vt 0.879395 0.909668
vt 0.878906 0.946777
vt 0.879883 0.945801
vt 0.879883 0.916992
vt 0.879883 0.914062
vt 0.879883 0.909668
vt 0.880859 0.90918
vt 0.880859 0.914062
vt 0.880859 0.909668
vt 0.881348 0.909668
vt 0.882324 0.90918
vt 0.880859 0.916992
vt 0.880859 0.945801
vt 0.881348 0.914062
vt 0.881836 0.916992
vt 0.882324 0.914062
vt 0.882324 0.909668
vt 0.883301 0.909668
vt 0.883789 0.90918
vt 0.883301 0.914062
vt 0.883789 0.909668
vt 0.884766 0.909668
vt 0.885254 0.90918
vt 0.885254 0.909668
vt 0.88623 0.909668
vt 0.886719 0.90918
vt 0.887207 0.909668
vt 0.887695 0.909668
vt 0.887695 0.90918
vt 0.888672 0.909668
vt 0.88916 0.909668
vt 0.88916 0.90918
vt 0.890137 0.909668
vt 0.890625 0.909668
vt 0.890137 0.90918
vt 0.89209 0.945801
vt 0.893066 0.946777
vt 0.893066 0.945801
vt 0.89209 0.916992
vt 0.893066 0.916992
vt 0.89209 0.946777
vt 0.893066 0.947754
vt 0.890625 0.914062
vt 0.89209 0.947754
vt 0.891113 0.945801
vt 0.890137 0.914062
vt 0.891113 0.916992
vt 0.88916 0.914062
vt 0.888672 0.914062
vt 0.887695 0.914062
vt 0.890137 0.916992
vt 0.890137 0.945801
vt 0.88916 0.916992
vt 0.887207 0.914062
vt 0.88916 0.945801
vt 0.888184 0.916992
vt 0.88623 0.914062
vt 0.887207 0.916992
vt 0.888184 0.945801
vt 0.887207 0.945801
vt 0.88916 0.946777
vt 0.888184 0.946777
vt 0.88623 0.945801
vt 0.890137 0.946777
vt 0.88916 0.947754
vt 0.891113 0.946777
vt 0.890137 0.947754
vt 0.891113 0.947754
vt 0.891113 0.948242
vt 0.89209 0.948242
vt 0.893066 0.94873
vt 0.893066 0.948242
vt 0.89209 0.94873
vt 0.891113 0.94873
vt 0.890137 0.94873
vt 0.890137 0.948242
vt 0.88916 0.948242
vt 0.624512 0.012787
vt 0.623535 0.013428
vt 0.623535 0.012787
vt 0.62207 0.012787
vt 0.621094 0.013428
vt 0.621094 0.012787
vt 0.620117 0.012787
vt 0.618652 0.013428
vt 0.618652 0.012787
vt 0.617676 0.012787
vt 0.616699 0.013428
vt 0.616699 0.012787
vt 0.615234 0.012787
vt 0.614258 0.013428
vt 0.614258 0.012787
vt 0.613281 0.012787
vt 0.611816 0.013428
vt 0.611816 0.012787
vt 0.61084 0.013428
vt 0.61084 0.012787
vt 0.608887 0.012787
vt 0.608887 0.013428
vt 0.604004 0.012787
vt 0.604004 0.013428
vt 0.602051 0.013428
vt 0.602051 0.012787
vt 0.600586 0.012787
vt 0.600586 0.013428
vt 0.599609 0.012787
vt 0.598633 0.013428
vt 0.598633 0.012787
vt 0.597168 0.012787
vt 0.596191 0.013428
vt 0.596191 0.012787
vt 0.595215 0.012787
vt 0.59375 0.013428
vt 0.59375 0.012787
vt 0.592773 0.012787
vt 0.591797 0.013428
vt 0.591797 0.012787
vt 0.590332 0.012787
vt 0.589355 0.013428
vt 0.589355 0.012787
vt 0.588379 0.012787
vt 0.138916 0.458252
vt 0.138916 0.449463
vt 0.140015 0.458252
vt 0.140015 0.449463
vt 0.141235 0.458252
vt 0.141235 0.449463
vt 0.142456 0.449463
vt 0.142456 0.458252
vt 0.143677 0.449463
vt 0.143677 0.458252
vt 0.144897 0.458252
vt 0.144897 0.449463
vt 0.146118 0.458252
vt 0.146118 0.449463
vt 0.147339 0.458252
vt 0.147339 0.449463
vt 0.14856 0.458252
vt 0.14856 0.449463
vt 0.14978 0.457764
vt 0.14978 0.449951
vt 0.703613 0.230347
vt 0.704102 0.223633
vt 0.703125 0.230347
vt 0.705078 0.223633
vt 0.70459 0.230347
vt 0.706055 0.223633
vt 0.704102 0.232178
vt 0.703125 0.232178
vt 0.703613 0.233765
vt 0.702637 0.230347
vt 0.703125 0.223633
vt 0.702148 0.232178
vt 0.702637 0.233765
vt 0.702637 0.234741
vt 0.702148 0.234619
vt 0.70166 0.230347
vt 0.702148 0.223633
vt 0.701172 0.223633
vt 0.701172 0.230347
vt 0.700195 0.223633
vt 0.70166 0.234619
vt 0.701172 0.234619
vt 0.701172 0.233765
vt 0.70166 0.233765
vt 0.700684 0.232178
vt 0.700684 0.230347
vt 0.283936 0.023346
vt 0.283936 0.027313
vt 0.284912 0.027313
vt 0.284912 0.023346
vt 0.286133 0.027313
vt 0.286133 0.023346
vt 0.287354 0.027313
vt 0.287354 0.023346
vt 0.288574 0.023346
vt 0.288574 0.027313
vt 0.289795 0.02359
vt 0.289795 0.027313
vt 0.291016 0.02359
vt 0.291016 0.027313
vt 0.292236 0.027313
vt 0.292236 0.02359
vt 0.291016 0.020721
vt 0.293457 0.020721
vt 0.293457 0.027313
vt 0.293457 0.02359
vt 0.294678 0.027313
vt 0.294678 0.02359
vt 0.182373 0.35791
vt 0.182373 0.354004
vt 0.183594 0.354004
vt 0.183594 0.35791
vt 0.184814 0.354004
vt 0.184814 0.35791
vt 0.186035 0.354004
vt 0.186035 0.35791
vt 0.187256 0.35791
vt 0.187256 0.354004
vt 0.188477 0.357666
vt 0.188477 0.354004
vt 0.189697 0.354004
vt 0.189697 0.357666
vt 0.190796 0.357666
vt 0.189697 0.360596
vt 0.192017 0.360596
vt 0.190796 0.354004
vt 0.192017 0.357666
vt 0.192017 0.354004
vt 0.193237 0.354004
vt 0.193237 0.357666
vt 0.398682 0.011719
vt 0.400879 0.011719
vt 0.399658 0.010986
vt 0.400879 0.010986
vt 0.398682 0.010986
vt 0.401855 0.011719
vt 0.397705 0.010986
vt 0.4021 0.010986
vt 0.396729 0.011719
vt 0.40332 0.010986
vt 0.396484 0.010986
vt 0.40332 0.011719
vt 0.395508 0.010986
vt 0.405518 0.010986
vt 0.394531 0.011719
vt 0.405518 0.011719
vt 0.394531 0.010986
vt 0.406982 0.011719
vt 0.393555 0.010986
vt 0.406982 0.010986
vt 0.392334 0.011719
vt 0.407959 0.011719
vt 0.392334 0.010986
vt 0.407959 0.010986
vt 0.391357 0.010986
vt 0.40918 0.010986
vt 0.390137 0.011719
vt 0.410156 0.011719
vt 0.390137 0.010986
vt 0.410156 0.010986
vt 0.388916 0.011719
vt 0.411377 0.010986
vt 0.38916 0.010986
vt 0.388184 0.011719
vt 0.387939 0.010986
vt 0.412354 0.011719
vt 0.412354 0.010986
vt 0.41333 0.010986
vt 0.414307 0.011719
vt 0.414307 0.010986
vt 0.415527 0.010986
vt 0.416504 0.011719
vt 0.416504 0.010986
vt 0.41748 0.010986
vt 0.418701 0.011719
vt 0.418701 0.010986
vt 0.419678 0.010986
vt 0.419922 0.011719
vt 0.420898 0.011719
vt 0.420898 0.010986
vt 0.422119 0.011719
vt 0.422119 0.010986
vt 0.42334 0.010986
vt 0.42334 0.011719
vt 0.424561 0.010986
vt 0.424561 0.011719
vt 0.425781 0.010986
vt 0.425781 0.011719
vt 0.427979 0.011719
vt 0.427979 0.010986
vt 0.429199 0.011719
vt 0.429199 0.010986
vt 0.430176 0.011719
vt 0.430176 0.010986
vt 0.702637 0.235352
vt 0.703125 0.235107
vt 0.704102 0.233765
vt 0.705566 0.232178
vt 0.706055 0.230347
vt 0.706543 0.230347
vt 0.70752 0.223633
vt 0.708496 0.223633
vt 0.705078 0.230347
vt 0.707031 0.223633
vt 0.436523 0.86084
vt 0.441406 0.86084
vt 0.441406 0.859863
vt 0.436523 0.859863
vt 0.442627 0.859863
vt 0.442627 0.86084
vt 0.443848 0.859863
vt 0.443848 0.86084
vt 0.446289 0.86084
vt 0.446289 0.859863
vt 0.44751 0.86084
vt 0.44751 0.859863
vt 0.44873 0.859863
vt 0.44873 0.86084
vt 0.449951 0.859863
vt 0.450928 0.86084
vt 0.450928 0.859863
vt 0.452148 0.859863
vt 0.453125 0.86084
vt 0.453125 0.859863
vt 0.454102 0.859863
vt 0.455322 0.86084
vt 0.455322 0.859863
vt 0.456299 0.859863
vt 0.45752 0.86084
vt 0.45752 0.859863
vt 0.458496 0.859863
vt 0.459717 0.86084
vt 0.459717 0.859863
vt 0.460938 0.859863
vt 0.460938 0.86084
vt 0.461914 0.86084
vt 0.461914 0.859863
vt 0.563965 0.006195
vt 0.561035 0.006195
vt 0.561035 0.006805
vt 0.563965 0.006805
vt 0.564941 0.006195
vt 0.564941 0.006805
vt 0.566895 0.006195
vt 0.566895 0.006805
vt 0.571289 0.006195
vt 0.571289 0.006805
vt 0.573242 0.006805
vt 0.573242 0.006195
vt 0.574219 0.006805
vt 0.574219 0.006195
vt 0.577148 0.006805
vt 0.577148 0.006195
vt 0.150879 0.451416
vt 0.150879 0.456299
vt 0.879883 0.946777
vt 0.879883 0.947754
vt 0.880859 0.946777
vt 0.879883 0.948242
vt 0.880859 0.947754
vt 0.881836 0.946777
vt 0.880859 0.948242
vt 0.880859 0.94873
vt 0.881836 0.948242
vt 0.881836 0.94873
vt 0.881836 0.947754
vt 0.882812 0.948242
vt 0.882812 0.94873
vt 0.883301 0.94873
vt 0.883301 0.948242
vt 0.882812 0.947754
vt 0.883301 0.947754
vt 0.884277 0.948242
vt 0.884277 0.947754
vt 0.882812 0.946777
vt 0.883301 0.946777
vt 0.883301 0.945801
vt 0.881836 0.945801
vt 0.882812 0.945801
vt 0.882812 0.916992
vt 0.883301 0.916992
vt 0.88916 0.94873
vt 0.888184 0.947754
vt 0.888184 0.948242
vt 0.888184 0.94873
vt 0.887207 0.94873
vt 0.887207 0.948242
vt 0.88623 0.94873
vt 0.887207 0.947754
vt 0.88623 0.948242
vt 0.887207 0.946777
vt 0.88623 0.947754
vt 0.885254 0.948242
vt 0.885254 0.94873
vt 0.884277 0.94873
vt 0.885254 0.947754
vt 0.885254 0.946777
vt 0.88623 0.946777
vt 0.884277 0.946777
vt 0.885254 0.945801
vt 0.884277 0.945801
vt 0.884277 0.916992
vt 0.885254 0.916992
vt 0.883789 0.914062
vt 0.884766 0.914062
vt 0.885254 0.914062
vt 0.88623 0.916992
vt 0.194336 0.356934
vt 0.194336 0.354736
vt 0.295898 0.024353
vt 0.295898 0.026459
vn -0.0391 0.9983 0.0433
vn 0.0889 0.9953 0.0384
vn 0.0897 0.9958 -0.0205
vn -0.0417 0.9796 0.1964
vn 0.0896 0.9781 0.1878
vn -0.0382 0.9991 -0.0196
vn 0.0836 0.9084 -0.4097
vn -0.2969 0.954 0.0417
vn -0.0412 0.9132 -0.4054
vn -0.0409 0.9945 0.0962
vn 0.0891 0.9952 0.0407
vn 0 -0.001 1
vn 0.0751 0.8436 0.5317
vn -0.2946 0.9436 0.1507
vn -0.2935 0.9362 0.1934
vn -0.5331 0.8406 0.0963
vn -0.7244 0.673 0.1497
vn -0.5244 0.8296 0.1919
vn -0.5339 0.8446 0.0402
vn -0.7219 0.6665 0.1862
vn -0.8825 0.4602 0.0971
vn -0.7343 0.6775 0.0412
vn -0.8679 0.4584 0.1914
vn -0.9645 0.2174 0.1497
vn -0.2974 0.9545 -0.0212
vn -0.5352 0.8445 -0.0205
vn -0.2745 0.8721 -0.405
vn -0.7344 0.6785 -0.0182
vn -0.4907 0.771 -0.4059
vn -0.0344 0.8543 0.5186
vn -0.2558 0.8232 0.5069
vn -0.0347 0.836 0.5476
vn 0.0756 0.8264 0.558
vn 0.0903 0.9959 -0.0011
vn -0.0418 0.9991 -0.001
vn -0.2949 0.9555 -0.0012
vn -0.2508 0.8052 0.5373
vn -0.5362 0.8441 -0.0014
vn -0.4569 0.7193 0.5233
vn -0.4478 0.7042 0.551
vn -0.7342 0.6789 -0.0014
vn -0.677 0.6207 -0.3956
vn -0.6074 0.5634 0.56
vn -0.6203 0.5729 0.5358
vn -0.7396 0.3887 0.5494
vn -0.8861 0.4635 -0.0013
vn -0.9758 0.2185 -0.0012
vn -0.821 0.186 0.5398
vn -0.8094 0.4279 -0.4023
vn -0.7548 0.4011 0.519
vn -0.9991 -0.0417 0
vn -0.842 0.1876 0.5058
vn -0.8273 -0.0319 0.5608
vn -0.8057 -0.2473 0.5382
vn -0.8453 -0.0345 0.5332
vn -0.5362 0.8441 0.0014
vn -0.8861 0.4635 0.0013
vn -0.3007 0.9537 0.0012
vn -0.9655 0.2603 0.0012
vn -0.9616 0.2746 -0.0012
vn -0.9959 0.0903 -0.0011
vn 0.2185 0.9758 -0.0012
vn -0.6015 0.7988 -0.0014
vn -0.6379 0.7701 -0.0014
vn -0.3007 0.9537 -0.0012
vn -0.8461 0.533 -0.0013
vn -0.819 0.5737 -0.0014
vn -0.9655 0.2603 -0.0012
vn 0.2223 0.9707 0.0917
vn 0.2202 0.9733 0.0652
vn -0.1742 0.9805 0.0913
vn -0.1704 0.9832 0.0655
vn 0.0255 0.9682 0.249
vn -0.5348 0.8424 0.0663
vn -0.5264 0.8448 0.0961
vn -0.8161 0.574 0.0669
vn -0.669 0.7006 0.2483
vn 0.024 0.9464 0.3222
vn -0.8173 0.5685 0.094
vn -0.97 0.2252 0.0918
vn -0.9733 0.2202 0.0652
vn -0.9682 0.0255 0.249
vn -0.6511 0.6868 0.3231
vn 0.0207 0.8169 0.5764
vn -0.9808 -0.1716 0.0925
vn -0.9831 -0.1706 0.0668
vn -0.9314 -0.3585 0.0635
vn -0.9278 -0.3578 0.1061
vn -0.9085 -0.345 0.2359
vn -0.5499 0.5769 0.604
vn 0.0057 0.1768 0.9842
vn -0.9464 0.024 0.3222
vn -0.8902 -0.3432 0.2997
vn -0.8169 0.0207 0.5764
vn -0.7659 -0.2952 0.5712
vn -0.5211 0.5043 0.6886
vn -0.7131 0.6596 0.2377
vn -0.5399 0.8351 0.1057
vn -0.5408 0.4838 0.6881
vn -0.8598 0.4956 0.1228
vn -0.8628 0.4912 -0.1196
vn -0.9573 0.289 -0.0012
vn -0.9546 0.2978 -0.0012
vn -0.7131 0.6596 -0.2377
vn -0.5408 0.4838 -0.6881
vn -0.5211 0.5043 -0.6886
vn -0.5399 0.8351 -0.1057
vn -0.289 0.9573 -0.0012
vn -0.2832 0.9591 0.0012
vn -0.021 0.9998 -0.001
vn -0.0271 0.9996 -0.001
vn 0 -0.001 -1
vn 0.6818 0.7316 -0.0014
vn 0.6541 0.7082 -0.2658
vn 0.1838 0.398 -0.8988
vn 0.1838 0.398 0.8988
vn 0.6541 0.7082 0.2658
vn 0.6789 0.7342 0.0014
vn 0.7624 0.5316 -0.369
vn 0.7982 0.5644 -0.2107
vn -0.3124 -0.0966 -0.945
vn -0.3229 -0.0887 -0.9423
vn -0.924 -0.1699 -0.3426
vn -0.9285 -0.1571 -0.3364
vn -0.9285 -0.1571 0.3364
vn -0.924 -0.1699 0.3426
vn -0.3501 -0.0956 0.9318
vn -0.3234 -0.1029 0.9407
vn 0.0832 -0.0731 -0.9939
vn 0.072 -0.0843 -0.9938
vn 0.0922 -0.0641 -0.9937
vn 0.092 -0.0617 -0.9938
vn 0.7742 0.6329 -0.0097
vn 0.7705 0.6373 -0.0125
vn -0.8918 0.2006 -0.4056
vn -0.9547 -0.2974 0
vn -0.8243 -0.2557 0.5051
vn -0.7081 -0.4405 0.5519
vn -0.8445 -0.5356 0
vn -0.7234 -0.453 0.521
vn -0.6768 -0.7362 0
vn -0.8716 -0.2779 -0.4039
vn -0.9098 -0.0332 -0.4138
vn -0.8852 0.4647 -0.0201
vn -0.9753 0.2198 -0.0202
vn -0.885 0.4636 0.0421
vn -0.9745 0.221 0.0398
vn -0.9572 0.2176 0.1909
vn -0.999 -0.0404 -0.0207
vn -0.9983 -0.039 0.0422
vn -0.9546 -0.2971 -0.0199
vn -0.9541 -0.2966 0.0404
vn -0.9796 -0.0392 0.1973
vn -0.9946 -0.0409 0.095
vn -0.9433 -0.295 0.1522
vn -0.9366 -0.2932 0.1918
vn -0.8449 -0.5346 -0.0191
vn -0.8441 -0.5345 0.0417
vn -0.8289 -0.5249 0.1936
vn -0.8422 -0.5303 0.0977
vn -0.7699 -0.491 -0.4078
vn -0.6806 -0.7324 -0.0196
vn -0.6783 -0.7337 0.0397
vn -0.6654 -0.7224 0.1879
vn -0.672 -0.7249 0.1513
vn -0.4606 -0.8663 0.1932
vn -0.4614 -0.882 0.0957
vn -0.2187 -0.9645 0.1484
vn -0.4647 -0.8845 0.0408
vn -0.4626 -0.8864 -0.0187
vn -0.2194 -0.9564 0.1926
vn -0.2198 -0.9747 0.0411
vn 0.038 -0.9796 0.1971
vn 0.0398 -0.9945 0.0973
vn 0.2933 -0.9438 0.1521
vn 0.2955 -0.9352 0.1951
vn 0.532 -0.8411 0.0978
vn 0.7264 -0.6704 0.1513
vn 0.8793 -0.4664 0.0958
vn 0.9643 -0.2176 0.1512
vn 0.9944 0.0387 0.0984
vn 0.9436 0.2946 0.1507
vn 0.8427 0.5297 0.0962
vn 0.6698 0.7273 0.1497
vn 0.4602 0.8825 0.0971
vn 0.3313 0.9091 0.2525
vn 0.4647 0.8852 -0.0201
vn 0.3175 0.8534 -0.4135
vn 0.3451 0.9384 -0.0191
vn 0.4636 0.885 0.0421
vn 0.3453 0.9376 0.0401
vn 0.4279 0.8094 -0.4023
vn 0.293 0.7933 0.5336
vn 0.3365 0.9214 0.1945
vn 0.3974 0.7572 0.5184
vn 0.6785 0.7344 -0.0182
vn 0.4584 0.8679 0.1914
vn 0.6805 0.7316 0.0412
vn 0.6665 0.7219 0.1862
vn 0.8273 0.5279 0.1921
vn 0.9362 0.2935 0.1934
vn 0.8425 0.5372 0.0403
vn 0.8445 0.5352 -0.0205
vn 0.954 0.2969 0.0417
vn 0.9796 0.0417 0.1964
vn 0.9554 0.2945 -0.0211
vn 0.9983 0.0391 0.0433
vn 0.9568 -0.2178 0.1924
vn 0.9744 -0.2212 0.0411
vn 0.999 0.0404 -0.0197
vn 0.9754 -0.2195 -0.019
vn 0.87 0.2718 -0.4115
vn 0.9134 0.033 -0.4058
vn 0.8855 -0.4642 -0.0187
vn 0.771 0.4907 -0.4059
vn 0.8232 0.2558 0.5069
vn 0.6207 0.677 -0.3956
vn 0.7159 0.4468 0.5365
vn 0.5817 0.6357 0.5075
vn 0.5731 0.617 0.5393
vn 0.3887 0.7396 0.5494
vn 0.3455 0.9384 -0.0013
vn 0.2874 0.7766 0.5606
vn 0.4635 0.8861 0.0013
vn 0.676 0.7369 0.0014
vn 0.8461 0.533 0.0013
vn 0.7004 0.4375 0.564
vn 0.8052 0.2508 0.5373
vn -0.2237 0.0999 -0.9695
vn -0.1395 0.0306 -0.9898
vn -0.16 -0.0056 -0.9871
vn -0.1573 -0.098 -0.9827
vn -0.2028 -0.1039 -0.9737
vn -0.629 -0.1958 -0.7523
vn -0.6223 -0.1956 -0.7579
vn -0.9708 -0.1729 -0.1665
vn -0.9724 -0.1667 -0.1629
vn -0.9707 -0.1755 0.1639
vn -0.9724 -0.1693 0.1604
vn -0.629 -0.1958 0.7523
vn -0.6223 -0.1956 0.7579
vn -0.2028 -0.1039 0.9737
vn -0.1597 -0.0956 0.9825
vn -0.1398 0.0329 0.9896
vn -0.16 -0.0056 0.9871
vn -0.2242 0.1026 0.9691
vn 0.4635 0.8861 -0.0013
vn 0.8461 0.533 -0.0013
vn 0.9546 0.2978 0.0012
vn 0.9555 0.2949 -0.0012
vn 0.9992 0.0396 0.001
vn 0.9759 -0.2183 0
vn 0.8864 -0.463 0
vn 0.7322 -0.6811 0
vn 0.5528 -0.8333 0
vn 0.5591 -0.8291 0
vn 0.3802 -0.9249 0
vn 0.3618 -0.9323 0
vn 0.5241 -0.8464 0.0945
vn 0.8144 -0.5766 0.0655
vn 0.819 -0.5658 0.0955
vn 0.5358 -0.8418 0.0649
vn 0.1758 -0.9801 0.0928
vn 0.1692 -0.9833 0.0667
vn -0.0242 -0.9686 0.2473
vn 0.6669 -0.7032 0.2465
vn -0.0227 -0.946 0.3233
vn 0.9702 -0.2249 0.0905
vn 0.9727 -0.2229 0.064
vn 0.9685 -0.0255 0.2476
vn 0.6531 -0.684 0.3249
vn -0.0193 -0.8185 0.5742
vn 0.5482 -0.5803 0.6023
vn 0.9805 0.1742 0.0913
vn 0.9832 0.1704 0.0655
vn 0.8424 0.5348 0.0663
vn 0.8469 0.523 0.096
vn 0.5772 0.8138 0.067
vn 0.818 -0.0207 0.5748
vn 0.5803 0.5464 0.6039
vn 0.6836 0.6544 0.3231
vn 0.9458 -0.024 0.3237
vn 0.7037 0.6657 0.2483
vn 0.5652 0.8196 0.094
vn 0.9985 0.0546 0.001
vn 0.9989 0.046 0.001
vn 0.9794 -0.2021 0
vn 0.8535 -0.4793 0.2044
vn 0.6767 -0.6288 0.3829
vn 0.5298 -0.5013 0.6841
vn 0.5134 -0.5218 0.6812
vn 0.534 -0.8455 0
vn 0.5437 -0.814 0.2046
vn 0.3466 -0.938 0
vn 0.3285 -0.9445 0
vn 0.8535 -0.4793 -0.2044
vn 0.6767 -0.6288 -0.3829
vn 0.5298 -0.5013 -0.6841
vn 0.5134 -0.5218 -0.6812
vn 0.5437 -0.814 -0.2046
vn -0.063 -0.3426 -0.9373
vn -0.0738 -0.3363 -0.9389
vn -0.0953 -0.9442 -0.3152
vn -0.0865 -0.9478 -0.3068
vn -0.0982 -0.9437 0.3159
vn -0.0865 -0.9478 0.3068
vn -0.0663 -0.3593 0.9308
vn -0.0771 -0.3498 0.9336
vn 0.0066 -0.1363 -0.9906
vn -0.0091 -0.1644 -0.9864
vn -0.0281 -0.1859 -0.9822
vn -0.0373 -0.1688 -0.9849
vn -0.3124 -0.0966 0.945
vn -0.3229 -0.0887 0.9423
vn -0.3501 -0.0956 -0.9318
vn -0.3234 -0.1029 -0.9407
vn -0.0134 -0.4812 0.8765
vn -0.3332 -0.749 0.5727
vn -0.3875 -0.871 0.302
vn -0.4242 -0.8767 0.227
vn -0.5674 -0.8179 0.0955
vn -0.7215 -0.688 0.0785
vn -0.575 -0.8155 0.0655
vn -0.7235 -0.6874 0.0634
vn -0.2235 -0.9705 0.0904
vn -0.2186 -0.9737 0.0639
vn -0.5673 -0.8235 -0.011
vn -0.4885 -0.8372 -0.2458
vn -0.5007 -0.8391 -0.2124
vn -0.5735 -0.8191 -0.011
vn -0.0771 -0.3498 -0.9336
vn -0.0663 -0.3593 -0.9308
vn -0.063 -0.3426 0.9373
vn -0.0738 -0.3363 0.9389
vn -0.0044 -0.1286 0.9917
vn 0.0068 -0.1589 0.9873
vn -0.0232 -0.1798 0.9834
vn -0.0454 -0.1971 0.9793
vn -0.6339 -0.7332 -0.246
vn -0.4075 -0.5914 -0.6958
vn -0.154 -0.6266 -0.764
vn -0.1316 -0.6507 -0.7479
vn -0.0958 -0.9787 -0.1817
vn -0.0903 -0.9799 -0.1782
vn -0.0958 -0.9787 0.1817
vn -0.0903 -0.9799 0.1782
vn -0.1316 -0.6507 0.7479
vn -0.154 -0.6266 0.764
vn -0.4075 -0.5914 0.6958
vn -0.6339 -0.7332 0.246
vn 0.1693 -0.9856 0
vn -0.6227 -0.674 -0.3975
vn -0.5808 -0.6264 0.52
vn -0.4263 -0.8094 -0.4039
vn -0.5684 -0.6106 0.5514
vn -0.3931 -0.7486 0.534
vn -0.2021 -0.892 -0.4043
vn -0.3839 -0.7333 0.5611
vn -0.4645 -0.8855 0
vn -0.1876 -0.8214 0.5386
vn -0.2197 -0.9756 0
vn -0.1928 -0.8389 0.509
vn 0.0304 -0.8363 0.5474
vn 0.0407 -0.9992 0
vn 0.296 -0.9552 0
vn 0.2469 -0.7891 0.5625
vn 0.033 -0.8518 0.5229
vn 0.2489 -0.8073 0.5351
vn 0.4498 -0.7013 0.5531
vn 0.4586 -0.7194 0.5217
vn 0.0373 -0.909 -0.4152
vn 0.2761 -0.8723 -0.4035
vn 0.2956 -0.9551 -0.0199
vn -0.2181 -0.9757 -0.019
vn 0.0393 -0.999 -0.0207
vn 0.0401 -0.9983 0.0423
vn 0.2951 -0.9546 0.0404
vn 0.8431 0.0317 0.5368
vn 0.8253 0.0348 0.5636
vn 0.8222 -0.1859 0.538
vn 0.8396 -0.1911 0.5086
vn 0.7317 -0.3823 0.5644
vn 0.8915 -0.2038 -0.4047
vn 0.747 -0.3915 0.5373
vn 0.6187 -0.573 0.5375
vn 0.7349 -0.6782 0
vn 0.6307 -0.5885 0.5059
vn 0.6756 -0.621 -0.3974
vn 0.8083 -0.4282 -0.4041
vn 0.4928 -0.7686 -0.408
vn 0.7337 -0.6791 -0.0196
vn 0.5362 -0.8439 -0.0191
vn 0.5361 -0.8431 0.0417
vn 0.7323 -0.6798 0.0397
vn 0.5266 -0.8277 0.1937
vn 0.7209 -0.667 0.1879
vn 0.8673 -0.4589 0.1931
vn 0.8854 -0.4631 0.0407
o bullet13__p0_c0
f 1/1/1 2/2/2 3/3/3
f 2/2/2 1/1/1 4/4/4
f 2/2/2 4/4/4 5/5/5
f 1/1/1 3/3/3 6/6/6
f 6/6/6 3/3/3 7/7/7
f 1/1/1 6/6/6 8/8/8
f 1/1/1 8/8/8 4/4/4
f 6/6/6 7/7/7 9/9/9
f 5/5/5 4/4/4 10/10/10
f 5/5/5 10/10/10 11/11/11
f 11/11/11 10/10/10 12/12/12
f 9/9/9 7/7/7 13/13/13
f 12/12/12 10/10/10 14/14/14
f 14/14/14 10/10/10 4/4/4
f 12/12/12 14/14/14 15/15/12
f 14/14/14 4/4/4 16/16/15
f 16/16/15 4/4/4 8/8/8
f 15/15/12 14/14/14 17/17/16
f 17/17/16 14/14/14 16/16/15
f 15/15/12 17/17/16 18/18/17
f 15/15/12 18/18/17 19/19/12
f 17/17/16 16/16/15 20/20/18
f 17/17/16 20/20/18 18/18/17
f 16/16/15 8/8/8 21/21/19
f 16/16/15 21/21/19 20/20/18
f 18/18/17 20/20/18 22/22/20
f 19/19/12 18/18/17 23/23/21
f 23/23/21 18/18/17 22/22/20
f 22/22/20 20/20/18 24/24/22
f 24/24/22 20/20/18 21/21/19
f 23/23/21 22/22/20 25/25/23
f 25/25/23 22/22/20 24/24/22
f 19/19/12 23/23/21 26/26/24
f 26/26/24 23/23/21 25/25/23
f 19/19/12 26/26/24 27/27/12
f 28/28/25 21/21/19 8/8/8
f 28/28/25 8/8/8 6/6/6
f 28/28/25 6/6/6 9/9/9
f 21/21/19 28/28/25 29/29/26
f 28/28/25 9/9/9 30/30/27
f 28/28/25 30/30/27 29/29/26
f 21/21/19 29/29/26 31/31/28
f 21/21/19 31/31/28 24/24/22
f 29/29/26 30/30/27 32/32/29
f 29/29/26 32/32/29 31/31/28
f 30/30/27 9/9/9 33/33/30
f 33/33/30 9/9/9 13/13/13
f 30/30/27 33/33/30 34/34/31
f 33/33/30 13/13/13 35/35/32
f 35/35/32 13/13/13 36/36/33
f 35/35/32 36/36/33 37/37/34
f 35/35/32 37/37/34 38/38/35
f 35/35/32 38/38/35 39/39/36
f 33/33/30 35/35/32 40/40/37
f 40/40/37 35/35/32 39/39/36
f 33/33/30 40/40/37 34/34/31
f 40/40/37 39/39/36 41/41/38
f 42/42/39 30/30/27 34/34/31
f 42/42/39 34/34/31 40/40/37
f 30/30/27 42/42/39 32/32/29
f 40/40/37 41/41/38 43/43/40
f 40/40/37 43/43/40 42/42/39
f 43/43/40 41/41/38 44/44/41
f 32/32/29 42/42/39 45/45/42
f 43/43/40 44/44/41 46/46/43
f 42/42/39 43/43/40 47/47/44
f 47/47/44 43/43/40 46/46/43
f 42/42/39 47/47/44 45/45/42
f 46/46/43 44/44/41 48/48/45
f 46/46/43 48/48/45 47/47/44
f 48/48/45 44/44/41 49/49/46
f 48/48/45 49/49/46 50/50/47
f 32/32/29 45/45/42 31/31/28
f 48/48/45 50/50/47 51/51/48
f 45/45/42 47/47/44 52/52/49
f 45/45/42 52/52/49 31/31/28
f 47/47/44 48/48/45 53/53/50
f 47/47/44 53/53/50 52/52/49
f 53/53/50 48/48/45 51/51/48
f 51/51/48 50/50/47 54/54/51
f 52/52/49 53/53/50 55/55/52
f 55/55/52 53/53/50 51/51/48
f 51/51/48 54/54/51 56/56/53
f 56/56/53 54/54/51 57/57/54
f 51/51/48 56/56/53 58/58/55
f 51/51/48 58/58/55 55/55/52
f 58/58/55 56/56/53 57/57/54
f 59/59/56 60/60/41 61/61/41
f 61/61/41 60/60/41 62/62/57
f 60/60/41 59/59/56 63/63/56
f 62/62/57 60/60/41 64/64/57
f 63/63/56 59/59/56 65/65/58
f 62/62/57 64/64/57 66/66/59
f 63/63/56 65/65/58 67/67/36
f 66/66/59 64/64/57 68/68/60
f 66/66/59 68/68/60 69/69/61
f 69/69/61 68/68/60 70/70/61
f 67/67/36 65/65/58 71/71/35
f 71/71/35 65/65/58 72/72/35
f 71/71/35 72/72/35 73/73/62
f 71/71/35 73/73/62 74/74/62
f 75/75/41 76/76/63 77/77/64
f 76/76/63 75/75/41 78/78/41
f 76/76/63 78/78/41 79/79/38
f 76/76/63 79/79/38 80/80/65
f 78/78/41 75/75/41 81/81/66
f 81/81/66 75/75/41 82/82/67
f 78/78/41 81/81/66 83/83/46
f 80/80/65 79/79/38 84/84/36
f 83/83/46 81/81/66 85/85/68
f 80/80/65 84/84/36 86/86/35
f 83/83/46 85/85/68 87/87/60
f 87/87/60 85/85/68 88/88/61
f 87/87/60 88/88/61 89/89/61
f 86/86/35 84/84/36 90/90/35
f 86/86/35 90/90/35 91/91/62
f 86/86/35 91/91/62 92/92/62
f 93/93/69 94/94/70 95/95/71
f 95/95/71 94/94/70 96/96/72
f 93/93/69 95/95/71 97/97/73
f 95/95/71 96/96/72 98/98/74
f 95/95/71 98/98/74 99/99/75
f 95/95/71 99/99/75 97/97/73
f 99/99/75 98/98/74 100/100/76
f 97/97/73 99/99/75 101/101/77
f 97/97/73 101/101/77 102/102/78
f 99/99/75 100/100/76 103/103/79
f 99/99/75 103/103/79 101/101/77
f 103/103/79 100/100/76 104/104/80
f 104/104/80 100/100/76 105/105/81
f 101/101/77 103/103/79 106/106/82
f 106/106/82 103/103/79 104/104/80
f 102/102/78 101/101/77 107/107/83
f 102/102/78 107/107/83 108/108/84
f 104/104/80 105/105/81 109/109/85
f 104/104/80 109/109/85 106/106/82
f 109/109/85 105/105/81 110/110/86
f 109/109/85 110/110/86 111/111/87
f 109/109/85 111/111/87 112/112/88
f 109/109/85 112/112/88 106/106/82
f 106/106/82 112/112/88 113/113/89
f 114/114/90 108/108/84 107/107/83
f 108/108/84 114/114/90 115/115/91
f 106/106/82 113/113/89 116/116/92
f 106/106/82 116/116/92 101/101/77
f 101/101/77 116/116/92 107/107/83
f 116/116/92 113/113/89 117/117/93
f 115/115/91 114/114/90 118/118/94
f 118/118/94 114/114/90 107/107/83
f 118/118/94 107/107/83 116/116/92
f 118/118/94 116/116/92 117/117/93
f 115/115/91 118/118/94 119/119/95
f 119/119/95 118/118/94 117/117/93
f 120/120/96 121/121/97 122/122/98
f 121/121/97 120/120/96 123/123/99
f 121/121/97 123/123/99 124/124/100
f 121/121/97 124/124/100 125/125/101
f 125/125/101 124/124/100 126/126/102
f 126/126/102 124/124/100 127/127/103
f 126/126/102 127/127/103 128/128/61
f 128/128/61 127/127/103 129/129/61
f 121/121/97 125/125/101 130/130/104
f 121/121/97 130/130/104 122/122/98
f 130/130/104 125/125/101 131/131/105
f 130/130/104 131/131/105 132/132/106
f 130/130/104 132/132/106 133/133/107
f 130/130/104 133/133/107 122/122/98
f 122/122/98 133/133/107 134/134/108
f 134/134/108 133/133/107 135/135/109
f 134/134/108 135/135/109 136/136/110
f 136/136/110 135/135/109 137/137/111
f 136/136/110 137/137/111 138/138/62
f 136/136/110 138/138/62 139/139/62
f 49/140/112 54/141/112 50/142/112
f 54/141/112 49/140/112 140/143/112
f 140/143/112 49/140/112 44/144/112
f 140/143/112 44/144/112 41/145/112
f 140/143/112 41/145/112 141/146/112
f 141/146/112 41/145/112 39/147/112
f 141/146/112 39/147/112 142/148/112
f 142/148/112 39/147/112 38/149/112
f 142/148/112 38/149/112 143/150/112
f 143/150/112 38/149/112 144/151/112
f 144/151/112 38/149/112 37/152/112
f 144/151/112 37/152/112 145/153/112
f 144/151/112 145/153/112 146/154/112
f 146/154/112 145/153/112 147/155/112
f 146/154/112 147/155/112 148/156/112
f 148/156/112 147/155/112 149/157/112
f 148/156/112 149/157/112 150/158/112
f 150/158/112 149/157/112 151/159/112
f 151/159/112 149/157/112 152/160/112
f 151/159/112 152/160/112 153/161/112
f 151/159/112 153/161/112 154/162/112
f 154/162/112 153/161/112 155/163/112
f 120/164/113 122/165/114 156/166/113
f 156/166/113 122/165/114 157/167/115
f 158/168/116 133/169/117 159/170/113
f 159/170/113 133/169/117 132/171/118
f 160/172/119 76/173/120 80/174/112
f 160/172/119 80/174/112 161/175/112
f 161/175/112 80/174/112 86/176/112
f 161/175/112 86/176/112 92/177/112
f 161/175/112 92/177/112 162/178/112
f 162/178/112 92/177/112 163/179/112
f 162/178/112 163/179/112 164/180/112
f 162/178/112 164/180/112 165/181/112
f 165/181/112 164/180/112 166/182/112
f 165/181/112 166/182/112 167/183/112
f 165/181/112 167/183/112 168/184/112
f 168/184/112 167/183/112 169/185/112
f 168/184/112 169/185/112 170/186/112
f 168/184/112 170/186/112 171/187/112
f 171/187/112 170/186/112 172/188/112
f 171/187/112 172/188/112 173/189/112
f 171/187/112 173/189/112 174/190/112
f 174/190/112 173/189/112 175/191/112
f 174/190/112 175/191/112 176/192/121
f 174/190/112 176/192/121 177/193/122
f 177/193/122 176/192/121 178/194/123
f 177/193/122 178/194/123 179/195/124
f 179/195/124 178/194/123 180/196/125
f 180/196/125 178/194/123 181/197/126
f 180/196/125 181/197/126 182/198/127
f 182/198/127 181/197/126 183/199/128
f 182/198/127 183/199/128 123/200/12
f 123/200/12 183/199/128 184/201/12
f 75/202/129 77/203/130 185/204/129
f 185/204/129 77/203/130 186/205/130
f 75/202/129 185/204/129 82/206/131
f 82/206/131 185/204/129 187/207/132
f 76/173/120 186/208/133 77/209/134
f 186/208/133 76/173/120 160/172/119
f 188/210/135 52/52/49 55/55/52
f 188/210/135 55/55/52 58/58/55
f 140/211/136 57/57/54 54/54/51
f 189/212/137 58/58/55 57/57/54
f 57/57/54 140/211/136 190/213/138
f 190/213/138 140/211/136 141/214/139
f 189/212/137 57/57/54 191/215/140
f 191/215/140 57/57/54 190/213/138
f 190/213/138 141/214/139 142/216/141
f 58/58/55 189/212/137 192/217/142
f 192/217/142 189/212/137 191/215/140
f 193/218/143 188/210/135 58/58/55
f 193/218/143 58/58/55 192/217/142
f 194/219/144 52/52/49 188/210/135
f 52/52/49 194/219/144 31/31/28
f 188/210/135 193/218/143 195/220/145
f 188/210/135 195/220/145 194/219/144
f 31/31/28 194/219/144 196/221/146
f 31/31/28 196/221/146 24/24/22
f 24/24/22 196/221/146 25/25/23
f 196/221/146 194/219/144 197/222/147
f 197/222/147 194/219/144 195/220/145
f 25/25/23 196/221/146 198/223/148
f 198/223/148 196/221/146 197/222/147
f 25/25/23 198/223/148 26/26/24
f 197/222/147 195/220/145 199/224/149
f 199/224/149 195/220/145 193/218/143
f 197/222/147 199/224/149 200/225/150
f 199/224/149 193/218/143 201/226/151
f 201/226/151 193/218/143 192/217/142
f 200/225/150 199/224/149 202/227/152
f 202/227/152 199/224/149 201/226/151
f 197/222/147 200/225/150 203/228/153
f 197/222/147 203/228/153 198/223/148
f 203/228/153 200/225/150 202/227/152
f 204/229/154 26/26/24 198/223/148
f 204/229/154 198/223/148 203/228/153
f 26/26/24 204/229/154 27/27/12
f 27/27/12 204/229/154 205/230/155
f 205/230/155 204/229/154 203/228/153
f 27/27/12 205/230/155 206/231/12
f 203/228/153 202/227/152 207/232/156
f 203/228/153 207/232/156 205/230/155
f 208/233/157 202/227/152 201/226/151
f 208/233/157 201/226/151 192/217/142
f 207/232/156 202/227/152 209/234/158
f 209/234/158 202/227/152 208/233/157
f 205/230/155 207/232/156 210/235/159
f 210/235/159 207/232/156 209/234/158
f 205/230/155 210/235/159 211/236/160
f 205/230/155 211/236/160 206/231/12
f 208/233/157 192/217/142 212/237/161
f 212/237/161 192/217/142 191/215/140
f 209/234/158 208/233/157 213/238/162
f 213/238/162 208/233/157 212/237/161
f 210/235/159 209/234/158 214/239/163
f 214/239/163 209/234/158 213/238/162
f 215/240/164 211/236/160 210/235/159
f 215/240/164 210/235/159 214/239/163
f 216/241/165 206/231/12 211/236/160
f 216/241/165 211/236/160 215/240/164
f 206/231/12 216/241/165 217/242/12
f 215/240/164 214/239/163 218/243/166
f 215/240/164 218/243/166 216/241/165
f 217/242/12 216/241/165 219/244/167
f 219/244/167 216/241/165 218/243/166
f 217/242/12 219/244/167 220/245/168
f 220/245/168 219/244/167 218/243/166
f 217/242/12 220/245/168 221/246/12
f 218/243/166 214/239/163 222/247/169
f 222/247/169 214/239/163 223/248/170
f 223/248/170 214/239/163 213/238/162
f 218/243/166 222/247/169 224/249/171
f 218/243/166 224/249/171 220/245/168
f 224/249/171 222/247/169 225/250/172
f 225/250/172 222/247/169 223/248/170
f 220/245/168 224/249/171 226/251/173
f 226/251/173 224/249/171 225/250/172
f 227/252/174 221/246/12 220/245/168
f 227/252/174 220/245/168 226/251/173
f 221/246/12 227/252/174 228/253/175
f 221/246/12 228/253/175 229/254/12
f 228/253/175 227/252/174 230/255/176
f 230/255/176 227/252/174 226/251/173
f 229/254/12 228/253/175 231/256/177
f 229/254/12 231/256/177 232/257/178
f 229/254/12 232/257/178 233/258/12
f 233/258/12 232/257/178 234/259/179
f 233/258/12 234/259/179 235/260/180
f 233/258/12 235/260/180 236/261/12
f 236/261/12 235/260/180 237/262/181
f 236/261/12 237/262/181 238/263/182
f 236/261/12 238/263/182 239/264/12
f 239/264/12 238/263/182 240/265/183
f 239/264/12 240/265/183 241/266/184
f 239/264/12 241/266/184 242/267/12
f 242/267/12 241/266/184 243/268/185
f 242/267/12 243/268/185 11/269/186
f 242/267/12 11/269/186 12/270/12
f 244/271/187 7/272/188 3/273/189
f 244/271/187 3/273/189 245/274/190
f 245/274/190 3/273/189 2/275/191
f 7/272/188 244/271/187 246/276/192
f 7/272/188 246/276/192 13/277/193
f 245/274/190 2/275/191 5/278/194
f 13/277/193 246/276/192 247/279/195
f 244/271/187 245/274/190 248/280/196
f 244/271/187 248/280/196 246/276/192
f 245/274/190 5/278/194 249/281/197
f 249/281/197 5/278/194 243/268/185
f 243/268/185 5/278/194 11/269/186
f 245/274/190 249/281/197 250/282/198
f 245/274/190 250/282/198 248/280/196
f 249/281/197 243/268/185 251/283/199
f 249/281/197 251/283/199 250/282/198
f 251/283/199 243/268/185 241/266/184
f 251/283/199 241/266/184 252/284/200
f 251/283/199 252/284/200 250/282/198
f 252/284/200 241/266/184 240/265/183
f 252/284/200 240/265/183 253/285/201
f 253/285/201 240/265/183 238/263/182
f 250/282/198 252/284/200 254/286/202
f 254/286/202 252/284/200 253/285/201
f 250/282/198 254/286/202 255/287/203
f 250/282/198 255/287/203 248/280/196
f 254/286/202 253/285/201 256/288/204
f 253/285/201 238/263/182 257/289/205
f 253/285/201 257/289/205 256/288/204
f 257/289/205 238/263/182 237/262/181
f 257/289/205 237/262/181 235/260/180
f 255/287/203 254/286/202 258/290/206
f 258/290/206 254/286/202 256/288/204
f 256/288/204 257/289/205 259/291/207
f 256/288/204 259/291/207 258/290/206
f 257/289/205 235/260/180 260/292/208
f 260/292/208 235/260/180 234/259/179
f 259/291/207 257/289/205 261/293/209
f 261/293/209 257/289/205 260/292/208
f 258/290/206 259/291/207 262/294/210
f 259/291/207 261/293/209 263/295/211
f 259/291/207 263/295/211 262/294/210
f 258/290/206 262/294/210 264/296/212
f 258/290/206 264/296/212 255/287/203
f 262/294/210 263/295/211 265/297/213
f 262/294/210 265/297/213 264/296/212
f 263/295/211 261/293/209 266/298/214
f 255/287/203 264/296/212 267/299/215
f 255/287/203 267/299/215 248/280/196
f 267/299/215 264/296/212 268/300/216
f 268/300/216 264/296/212 265/297/213
f 248/280/196 267/299/215 269/301/217
f 248/280/196 269/301/217 246/276/192
f 246/276/192 269/301/217 247/279/195
f 269/301/217 267/299/215 270/302/218
f 270/302/218 267/299/215 268/300/216
f 247/279/195 269/301/217 271/303/219
f 271/303/219 269/301/217 270/302/218
f 247/279/195 271/303/219 272/304/220
f 272/304/220 271/303/219 270/302/218
f 247/279/195 272/304/220 273/305/221
f 37/306/222 36/307/223 273/305/221
f 37/306/222 273/305/221 145/308/224
f 145/308/224 273/305/221 272/304/220
f 145/308/224 272/304/220 147/309/225
f 147/309/225 272/304/220 149/310/226
f 272/304/220 270/302/218 274/311/227
f 272/304/220 274/311/227 149/310/226
f 274/311/227 270/302/218 275/312/228
f 274/311/227 275/312/228 149/310/226
f 275/312/228 270/302/218 268/300/216
f 157/167/115 122/165/114 134/313/229
f 157/167/115 134/313/229 276/314/230
f 276/314/230 134/313/229 136/315/231
f 276/314/230 136/315/231 139/316/112
f 276/314/230 139/316/112 277/317/112
f 277/317/112 139/316/112 278/318/112
f 277/317/112 278/318/112 279/319/112
f 277/317/112 279/319/112 280/320/112
f 280/320/112 279/319/112 281/321/112
f 280/320/112 281/321/112 282/322/112
f 280/320/112 282/322/112 283/323/112
f 283/323/112 282/322/112 284/324/112
f 283/323/112 284/324/112 285/325/112
f 283/323/112 285/325/112 286/326/112
f 286/326/112 285/325/112 287/327/112
f 286/326/112 287/327/112 288/328/112
f 286/326/112 288/328/112 289/329/232
f 289/329/232 288/328/112 290/330/233
f 289/329/232 290/330/233 291/331/234
f 291/331/234 290/330/233 292/332/235
f 291/331/234 292/332/235 293/333/236
f 291/331/234 293/333/236 294/334/237
f 294/334/237 293/333/236 295/335/238
f 294/334/237 295/335/238 296/336/239
f 296/336/239 295/335/238 297/337/240
f 297/337/240 295/335/238 298/338/241
f 297/337/240 298/338/241 299/339/242
f 297/337/240 299/339/242 300/340/243
f 300/340/243 299/339/242 301/341/12
f 300/340/243 301/341/12 302/342/12
f 302/342/12 301/341/12 303/343/12
f 302/342/12 303/343/12 304/344/12
f 302/342/12 304/344/12 305/345/12
f 305/345/12 304/344/12 306/346/12
f 305/345/12 306/346/12 307/347/12
f 305/345/12 307/347/12 308/348/12
f 308/348/12 307/347/12 309/349/12
f 308/348/12 309/349/12 310/350/12
f 308/348/12 310/350/12 311/351/12
f 311/351/12 310/350/12 312/352/12
f 311/351/12 312/352/12 138/353/12
f 311/351/12 138/353/12 313/354/244
f 313/354/244 138/353/12 137/355/245
f 313/354/244 137/355/245 135/356/246
f 313/354/244 135/356/246 158/168/116
f 158/168/116 135/356/246 133/169/117
f 273/305/221 36/307/223 13/277/193
f 273/305/221 13/277/193 247/279/195
f 139/139/62 138/138/62 312/357/224
f 139/139/62 312/357/224 278/358/247
f 278/358/247 312/357/224 310/359/118
f 278/358/247 310/359/118 279/360/113
f 279/360/113 310/359/118 309/361/248
f 279/360/113 309/361/248 281/362/248
f 281/362/248 309/361/248 282/363/249
f 282/363/249 309/361/248 307/364/250
f 282/363/249 307/364/250 284/365/251
f 284/365/251 307/364/250 306/366/251
f 284/365/251 306/366/251 304/367/252
f 284/365/251 304/367/252 285/368/252
f 285/368/252 304/367/252 303/369/253
f 285/368/252 303/369/253 287/370/253
f 287/370/253 303/369/253 301/371/254
f 287/370/253 301/371/254 288/372/254
f 288/372/254 301/371/254 299/373/255
f 288/372/254 299/373/255 290/374/256
f 290/374/256 299/373/255 298/375/257
f 290/374/256 298/375/257 292/376/258
f 314/377/259 315/378/260 316/379/261
f 315/378/260 314/377/259 317/380/262
f 317/380/262 314/377/259 318/381/263
f 317/380/262 318/381/263 319/382/264
f 318/381/263 314/377/259 320/383/265
f 320/383/265 314/377/259 321/384/266
f 321/384/266 314/377/259 316/379/261
f 320/383/265 321/384/266 322/385/267
f 323/386/268 316/379/261 315/378/260
f 323/386/268 315/378/260 324/387/269
f 321/384/266 316/379/261 325/388/270
f 325/388/270 316/379/261 323/386/268
f 322/385/267 321/384/266 326/389/271
f 322/385/267 326/389/271 327/390/272
f 327/390/272 326/389/271 328/391/273
f 323/386/268 324/387/269 329/392/274
f 323/386/268 329/392/274 325/388/270
f 329/392/274 324/387/269 330/393/275
f 329/392/274 330/393/275 331/394/276
f 329/392/274 331/394/276 332/395/277
f 329/392/274 332/395/277 325/388/270
f 332/395/277 331/394/276 333/396/278
f 334/397/279 328/391/273 326/389/271
f 328/391/273 334/397/279 115/115/91
f 115/115/91 334/397/279 335/398/280
f 115/115/91 335/398/280 108/108/84
f 108/108/84 335/398/280 336/399/281
f 336/399/281 335/398/280 334/397/279
f 108/108/84 336/399/281 102/102/78
f 334/397/279 326/389/271 337/400/282
f 334/397/279 337/400/282 336/399/281
f 337/400/282 326/389/271 321/384/266
f 337/400/282 321/384/266 325/388/270
f 336/399/281 337/400/282 338/401/283
f 336/399/281 338/401/283 102/102/78
f 338/401/283 337/400/282 325/388/270
f 338/401/283 325/388/270 332/395/277
f 102/102/78 338/401/283 97/97/73
f 338/401/283 332/395/277 339/402/284
f 338/401/283 339/402/284 97/97/73
f 339/402/284 332/395/277 333/396/278
f 97/97/73 339/402/284 93/93/69
f 93/93/69 339/402/284 333/396/278
f 93/93/69 333/396/278 94/94/70
f 74/74/62 73/73/62 340/403/247
f 340/403/247 73/73/62 341/404/224
f 340/403/247 341/404/224 342/405/118
f 340/403/247 342/405/118 343/406/118
f 343/406/118 342/405/118 344/407/226
f 343/406/118 344/407/226 345/408/226
f 345/408/226 344/407/226 346/409/249
f 345/408/226 346/409/249 347/410/249
f 347/410/249 346/409/249 348/411/285
f 348/411/285 346/409/249 349/412/286
f 348/411/285 349/412/286 350/413/287
f 350/413/287 349/412/286 351/414/252
f 350/413/287 351/414/252 159/415/288
f 159/415/288 351/414/252 352/416/253
f 159/415/288 352/416/253 353/417/254
f 159/415/288 353/417/254 354/418/289
f 159/415/288 354/418/289 158/419/290
f 158/419/290 354/418/289 355/420/291
f 354/418/289 353/417/254 356/421/292
f 355/420/291 354/418/289 357/422/293
f 357/422/293 354/418/289 356/421/292
f 357/422/293 356/421/292 358/423/294
f 357/422/293 358/423/294 359/424/295
f 92/92/62 91/91/62 360/425/224
f 92/92/62 360/425/224 163/426/224
f 163/426/224 360/425/224 164/427/118
f 164/427/118 360/425/224 361/428/118
f 164/427/118 361/428/118 166/429/226
f 166/429/226 361/428/118 362/430/226
f 166/429/226 362/430/226 167/431/249
f 167/431/249 362/430/226 363/432/249
f 167/431/249 363/432/249 364/433/285
f 167/431/249 364/433/285 169/434/286
f 169/434/286 364/433/285 365/435/287
f 169/434/286 365/435/287 170/436/252
f 170/436/252 365/435/287 172/437/253
f 172/437/253 365/435/287 156/438/296
f 172/437/253 156/438/296 366/439/297
f 366/439/297 156/438/296 157/440/298
f 366/439/297 157/440/298 367/441/299
f 172/437/253 366/439/297 173/442/254
f 366/439/297 367/441/299 184/443/300
f 366/439/297 184/443/300 173/442/254
f 173/442/254 184/443/300 175/444/292
f 175/444/292 184/443/300 176/445/294
f 176/445/294 184/443/300 183/446/295
f 368/447/112 369/448/112 60/449/112
f 60/449/112 369/448/112 64/450/112
f 368/447/112 60/449/112 63/451/112
f 64/450/112 369/448/112 370/452/301
f 368/447/112 63/451/112 67/453/112
f 64/450/112 370/452/301 68/454/302
f 368/447/112 67/453/112 371/455/112
f 68/454/302 370/452/301 70/456/303
f 371/455/112 67/453/112 71/457/112
f 70/456/303 370/452/301 372/458/304
f 371/455/112 71/457/112 74/459/112
f 70/456/303 372/458/304 69/460/305
f 371/455/112 74/459/112 373/461/112
f 69/460/305 372/458/304 374/462/306
f 373/461/112 74/459/112 340/463/112
f 69/460/305 374/462/306 375/464/307
f 373/461/112 340/463/112 343/465/112
f 69/460/305 375/464/307 66/466/308
f 373/461/112 343/465/112 376/467/112
f 66/466/308 375/464/307 377/468/12
f 376/467/112 343/465/112 345/469/112
f 66/466/308 377/468/12 62/470/12
f 376/467/112 345/469/112 347/471/112
f 62/470/12 377/468/12 61/472/12
f 376/467/112 347/471/112 378/473/309
f 61/472/12 377/468/12 379/474/12
f 378/473/309 347/471/112 348/475/310
f 61/472/12 379/474/12 59/476/12
f 378/473/309 348/475/310 380/477/311
f 59/476/12 379/474/12 65/478/12
f 380/477/311 348/475/310 350/479/312
f 380/477/311 350/479/312 132/480/112
f 132/480/112 350/479/312 159/481/112
f 65/478/12 379/474/12 381/482/12
f 65/478/12 381/482/12 72/483/12
f 72/483/12 381/482/12 73/484/12
f 73/484/12 381/482/12 382/485/12
f 73/484/12 382/485/12 341/486/12
f 341/486/12 382/485/12 342/487/12
f 342/487/12 382/485/12 383/488/12
f 342/487/12 383/488/12 344/489/12
f 344/489/12 383/488/12 346/490/12
f 346/490/12 383/488/12 384/491/12
f 346/490/12 384/491/12 349/492/12
f 349/492/12 384/491/12 351/493/12
f 351/493/12 384/491/12 385/494/12
f 351/493/12 385/494/12 386/495/12
f 351/493/12 386/495/12 352/496/12
f 352/496/12 386/495/12 387/497/12
f 352/496/12 387/497/12 353/498/12
f 353/498/12 387/497/12 356/499/12
f 356/499/12 387/497/12 388/500/12
f 356/499/12 388/500/12 358/501/313
f 358/501/313 388/500/12 389/502/314
f 358/501/313 389/502/314 390/503/126
f 390/503/126 389/502/314 391/504/125
f 390/503/126 391/504/125 392/505/124
f 390/503/126 392/505/124 393/506/123
f 393/506/123 392/505/124 394/507/315
f 393/506/123 394/507/315 359/508/316
f 359/508/316 394/507/315 131/509/112
f 359/508/316 131/509/112 357/510/112
f 327/390/272 328/391/273 115/511/317
f 327/390/272 115/511/317 119/512/318
f 327/390/272 119/512/318 117/513/319
f 327/390/272 117/513/319 322/385/267
f 322/385/267 117/513/319 113/514/320
f 322/385/267 113/514/320 320/383/265
f 320/383/265 113/514/320 395/515/321
f 395/515/321 113/514/320 112/516/322
f 395/515/321 112/516/322 396/517/323
f 396/517/323 112/516/322 111/518/324
f 320/383/265 395/515/321 397/519/325
f 397/519/325 395/515/321 396/517/323
f 320/383/265 397/519/325 318/381/263
f 397/519/325 396/517/323 398/520/326
f 397/519/325 398/520/326 318/381/263
f 318/381/263 398/520/326 319/382/264
f 187/521/327 399/522/328 81/523/329
f 187/521/327 81/523/329 82/524/330
f 81/523/329 399/522/328 85/525/331
f 85/525/331 399/522/328 400/526/332
f 85/525/331 400/526/332 88/527/303
f 88/527/303 400/526/332 401/528/304
f 88/527/303 401/528/304 402/529/306
f 88/527/303 402/529/306 89/530/305
f 89/530/305 402/529/306 403/531/333
f 89/530/305 403/531/333 87/532/334
f 87/532/334 403/531/333 83/533/12
f 83/533/12 403/531/333 404/534/12
f 83/533/12 404/534/12 78/535/12
f 78/535/12 404/534/12 405/536/12
f 78/535/12 405/536/12 79/537/12
f 79/537/12 405/536/12 84/538/12
f 84/538/12 405/536/12 406/539/12
f 84/538/12 406/539/12 90/540/12
f 90/540/12 406/539/12 91/541/12
f 91/541/12 406/539/12 407/542/12
f 91/541/12 407/542/12 360/543/12
f 360/543/12 407/542/12 361/544/12
f 361/544/12 407/542/12 408/545/12
f 361/544/12 408/545/12 362/546/12
f 362/546/12 408/545/12 363/547/12
f 363/547/12 408/545/12 409/548/335
f 363/547/12 409/548/335 364/549/336
f 364/549/336 409/548/335 365/550/337
f 365/550/337 409/548/335 410/551/338
f 365/550/337 410/551/338 120/552/12
f 365/550/337 120/552/12 156/553/12
f 124/554/339 123/555/141 184/556/141
f 124/554/339 184/556/141 367/557/340
f 124/554/339 367/557/340 127/558/341
f 127/558/341 367/557/340 411/559/342
f 127/558/341 411/559/342 129/560/343
f 129/560/343 411/559/342 412/561/344
f 129/560/343 412/561/344 128/562/345
f 128/562/345 412/561/344 413/563/346
f 128/562/345 413/563/346 414/564/347
f 128/562/345 414/564/347 126/565/348
f 126/565/348 414/564/347 355/566/349
f 126/565/348 355/566/349 125/567/350
f 125/567/350 355/566/349 357/568/141
f 125/567/350 357/568/141 131/569/141
f 292/376/258 298/375/257 293/570/351
f 293/570/351 298/375/257 295/571/351
f 415/572/352 212/237/161 191/215/140
f 212/237/161 415/572/352 213/238/162
f 415/572/352 191/215/140 416/573/353
f 416/573/353 191/215/140 190/213/138
f 213/238/162 415/572/352 417/574/354
f 417/574/354 415/572/352 416/573/353
f 213/238/162 417/574/354 223/248/170
f 416/573/353 190/213/138 418/575/355
f 418/575/355 190/213/138 142/216/141
f 417/574/354 416/573/353 419/576/356
f 419/576/356 416/573/353 418/575/355
f 223/248/170 417/574/354 420/577/357
f 420/577/357 417/574/354 419/576/356
f 418/575/355 142/216/141 421/578/358
f 418/575/355 421/578/358 419/576/356
f 421/578/358 142/216/141 143/579/359
f 421/578/358 143/579/359 422/580/360
f 421/578/358 422/580/360 419/576/356
f 422/580/360 143/579/359 144/581/361
f 419/576/356 422/580/360 423/582/362
f 419/576/356 423/582/362 420/577/357
f 422/580/360 144/581/361 424/583/363
f 424/583/363 144/581/361 146/584/364
f 424/583/363 146/584/364 148/585/365
f 424/583/363 148/585/365 425/586/366
f 423/582/362 422/580/360 426/587/367
f 426/587/367 422/580/360 424/583/363
f 423/582/362 426/587/367 420/577/357
f 424/583/363 425/586/366 427/588/368
f 424/583/363 427/588/368 426/587/367
f 427/588/368 425/586/366 428/589/369
f 427/588/368 428/589/369 429/590/370
f 426/587/367 427/588/368 430/591/371
f 426/587/367 430/591/371 420/577/357
f 430/591/371 427/588/368 431/592/372
f 430/591/371 431/592/372 432/593/373
f 420/577/357 430/591/371 433/594/374
f 420/577/357 433/594/374 223/248/170
f 223/248/170 433/594/374 225/250/172
f 433/594/374 430/591/371 434/595/375
f 434/595/375 430/591/371 432/593/373
f 433/594/374 434/595/375 225/250/172
f 434/595/375 432/593/373 435/596/376
f 434/595/375 435/596/376 225/250/172
f 435/596/376 432/593/373 436/597/377
f 225/250/172 435/596/376 226/251/173
f 226/251/173 435/596/376 436/597/377
f 226/251/173 436/597/377 230/255/176
f 152/598/249 149/310/226 275/312/228
f 437/599/378 275/312/228 268/300/216
f 152/598/249 275/312/228 438/600/379
f 438/600/379 275/312/228 437/599/378
f 152/598/249 438/600/379 153/601/251
f 437/599/378 268/300/216 265/297/213
f 153/601/251 438/600/379 155/602/252
f 155/602/252 438/600/379 439/603/380
f 439/603/380 438/600/379 437/599/378
f 155/602/252 439/603/380 154/604/253
f 437/599/378 265/297/213 440/605/381
f 437/599/378 440/605/381 439/603/380
f 154/604/253 439/603/380 441/606/382
f 440/605/381 265/297/213 442/607/383
f 442/607/383 265/297/213 263/295/211
f 439/603/380 440/605/381 443/608/384
f 439/603/380 443/608/384 441/606/382
f 443/608/384 440/605/381 442/607/383
f 154/604/253 441/606/382 444/609/385
f 444/609/385 441/606/382 443/608/384
f 154/604/253 444/609/385 151/610/386
f 442/607/383 263/295/211 266/298/214
f 151/610/386 444/609/385 428/589/369
f 151/610/386 428/589/369 150/611/292
f 150/611/292 428/589/369 425/586/366
f 150/611/292 425/586/366 148/585/365
f 428/589/369 444/609/385 429/590/370
f 429/590/370 444/609/385 445/612/387
f 445/612/387 444/609/385 443/608/384
f 429/590/370 445/612/387 446/613/388
f 446/613/388 445/612/387 443/608/384
f 447/614/389 443/608/384 442/607/383
f 443/608/384 447/614/389 446/613/388
f 447/614/389 442/607/383 266/298/214
f 429/590/370 446/613/388 448/615/390
f 429/590/370 448/615/390 427/588/368
f 427/588/368 448/615/390 431/592/372
f 446/613/388 447/614/389 449/616/391
f 446/613/388 449/616/391 448/615/390
f 449/616/391 447/614/389 266/298/214
f 431/592/372 448/615/390 450/617/392
f 450/617/392 448/615/390 449/616/391
f 431/592/372 450/617/392 432/593/373
f 432/593/373 450/617/392 436/597/377
f 436/597/377 450/617/392 451/618/393
f 436/597/377 451/618/393 230/255/176
f 450/617/392 449/616/391 452/619/394
f 450/617/392 452/619/394 451/618/393
f 452/619/394 449/616/391 266/298/214
f 230/255/176 451/618/393 453/620/395
f 453/620/395 451/618/393 452/619/394
f 230/255/176 453/620/395 228/253/175
f 228/253/175 453/620/395 231/256/177
f 231/256/177 453/620/395 454/621/396
f 454/621/396 453/620/395 452/619/394
f 231/256/177 454/621/396 232/257/178
f 232/257/178 454/621/396 455/622/397
f 455/622/397 454/621/396 452/619/394
f 232/257/178 455/622/397 234/259/179
f 234/259/179 455/622/397 260/292/208
f 455/622/397 452/619/394 456/623/398
f 455/622/397 456/623/398 260/292/208
f 456/623/398 452/619/394 266/298/214
f 260/292/208 456/623/398 261/293/209
f 261/293/209 456/623/398 266/298/214
f 176/445/294 183/446/295 181/624/351
f 176/445/294 181/624/351 178/625/351
f 359/424/295 358/423/294 393/626/351
f 393/626/351 358/423/294 390/627/351
