# CS2 body mesh, tools/cs2_glb_to_obj.py
v 0.02409 -0.08572 -0.01523
v 0.02298 -0.0857 -0.01523
v 0.02352 -0.08621 -0.01523
v 0.02286 -0.0861 -0.01523
v 0.02286 -0.08611 -0.01922
v 0.02224 -0.08583 -0.01523
v 0.02202 -0.08512 -0.01523
v 0.02172 -0.08541 -0.01523
v 0.02132 -0.08487 -0.01523
v 0.02224 -0.08583 -0.01922
v 0.02149 -0.08414 -0.01523
v 0.0225 -0.08734 -0.0221
v 0.0235 -0.08749 -0.0221
v 0.02172 -0.08541 -0.01922
v 0.02158 -0.08693 -0.0221
v 0.02251 -0.08734 -0.04902
v 0.0235 -0.0875 -0.04902
v 0.02451 -0.08739 -0.04902
v 0.02436 -0.0868 -0.04969
v 0.02352 -0.08689 -0.04969
v 0.02268 -0.08676 -0.04969
v 0.02436 -0.0868 -0.05046
v 0.02352 -0.08689 -0.05046
v 0.02268 -0.08676 -0.05046
v 0.0235 -0.0875 -0.05077
v 0.02451 -0.08739 -0.05077
v 0.02516 -0.08649 -0.05046
v 0.02545 -0.08702 -0.05077
v 0.02451 -0.08739 -0.05131
v 0.0235 -0.0875 -0.05131
v 0.02251 -0.08734 -0.05131
v 0.02251 -0.08734 -0.05077
v 0.02158 -0.08694 -0.05077
v 0.02158 -0.08694 -0.05131
v 0.0219 -0.08642 -0.05046
v 0.0208 -0.08631 -0.05077
v 0.0208 -0.08631 -0.05131
v 0.0202 -0.08549 -0.05131
v 0.0202 -0.08549 -0.05077
v 0.01983 -0.08455 -0.05131
v 0.02123 -0.08589 -0.05046
v 0.0219 -0.08642 -0.04969
v 0.02123 -0.08589 -0.04969
v 0.02158 -0.08694 -0.04903
v 0.02073 -0.0852 -0.05046
v 0.02079 -0.0863 -0.0221
v 0.0208 -0.08631 -0.04903
v 0.02073 -0.0852 -0.04969
v 0.02042 -0.08441 -0.05046
v 0.02019 -0.08549 -0.0221
v 0.0202 -0.08549 -0.04903
v 0.01983 -0.08455 -0.04903
v 0.02132 -0.08487 -0.01922
v 0.01983 -0.08455 -0.0221
v 0.02107 -0.08424 -0.01922
v 0.02107 -0.08424 -0.01523
v 0.01972 -0.08355 -0.0221
v 0.021 -0.08357 -0.01922
v 0.021 -0.08357 -0.01523
v 0.02151 -0.08303 -0.01523
v 0.0211 -0.08291 -0.01523
v 0.0211 -0.08291 -0.01922
v 0.02137 -0.08229 -0.01523
v 0.02209 -0.08207 -0.01523
v 0.01987 -0.08255 -0.0221
v 0.02137 -0.08229 -0.01922
v 0.02179 -0.08177 -0.01523
v 0.02421 -0.08272 -0.00545
v 0.02338 -0.08254 -0.00545
v 0.02393 -0.08312 -0.00447
v 0.02347 -0.08301 -0.00447
v 0.02357 -0.08363 -0.00413
v 0.02322 -0.08414 -0.00447
v 0.02368 -0.08424 -0.00447
v 0.02377 -0.08472 -0.00545
v 0.02296 -0.08374 -0.00447
v 0.02294 -0.08454 -0.00545
v 0.02385 -0.08518 -0.00713
v 0.02248 -0.08382 -0.00546
v 0.02306 -0.08327 -0.00447
v 0.02267 -0.08299 -0.00546
v 0.0233 -0.08208 -0.00713
v 0.02203 -0.0839 -0.00713
v 0.02267 -0.08492 -0.00713
v 0.02229 -0.08273 -0.00713
v 0.0229 -0.08189 -0.0088
v 0.02362 -0.08177 -0.0088
v 0.02363 -0.08134 -0.01523
v 0.02275 -0.0815 -0.01523
v 0.02229 -0.08228 -0.0088
v 0.022 -0.08198 -0.01523
v 0.02148 -0.08271 -0.01523
v 0.02187 -0.08288 -0.0088
v 0.02129 -0.08358 -0.01523
v 0.02171 -0.08359 -0.0088
v 0.02184 -0.0843 -0.0088
v 0.02145 -0.08446 -0.01523
v 0.02223 -0.08492 -0.0088
v 0.02193 -0.08521 -0.01523
v 0.02266 -0.08572 -0.01522
v 0.02283 -0.08533 -0.0088
v 0.02353 -0.08592 -0.01522
v 0.02354 -0.08549 -0.0088
v 0.02425 -0.08537 -0.0088
v 0.02441 -0.08576 -0.01522
v 0.02482 -0.08589 -0.01922
v 0.02544 -0.08702 -0.0221
v 0.02536 -0.08549 -0.01922
v 0.0245 -0.08738 -0.0221
v 0.02419 -0.08613 -0.01922
v 0.02482 -0.08589 -0.01523
v 0.02419 -0.08613 -0.01523
v 0.02536 -0.08549 -0.01523
v 0.02578 -0.08497 -0.01523
v 0.02545 -0.08702 -0.04902
v 0.02625 -0.08642 -0.0221
v 0.02578 -0.08497 -0.01922
v 0.02688 -0.08563 -0.0221
v 0.02605 -0.08435 -0.01523
v 0.02516 -0.08649 -0.04969
v 0.02626 -0.08642 -0.04902
v 0.02584 -0.08599 -0.04969
v 0.02689 -0.08564 -0.04902
v 0.0273 -0.08471 -0.04902
v 0.02638 -0.08532 -0.04969
v 0.02584 -0.08599 -0.05046
v 0.02626 -0.08642 -0.05077
v 0.02638 -0.08532 -0.05046
v 0.02689 -0.08564 -0.05077
v 0.02672 -0.08454 -0.05046
v 0.02545 -0.08702 -0.0513
v 0.02626 -0.08642 -0.0513
v 0.02689 -0.08564 -0.0513
v 0.0273 -0.08471 -0.0513
v 0.0273 -0.08471 -0.05077
v 0.02745 -0.08371 -0.05077
v 0.01988 -0.08255 -0.05131
v 0.01972 -0.08355 -0.05131
v 0.02028 -0.08163 -0.05131
v 0.02091 -0.08084 -0.05131
v 0.02173 -0.08024 -0.05131
v 0.02267 -0.07988 -0.05131
v 0.02367 -0.07977 -0.05131
v 0.02467 -0.07992 -0.05131
v 0.02559 -0.08033 -0.05131
v 0.02638 -0.08096 -0.05131
v 0.02698 -0.08177 -0.05131
v 0.02734 -0.08271 -0.0513
v 0.02745 -0.08371 -0.0513
v 0.02234 -0.08137 -0.01523
v 0.02307 -0.08154 -0.01523
v 0.0218 -0.08177 -0.01922
v 0.02296 -0.08113 -0.01523
v 0.02363 -0.08105 -0.01523
v 0.02363 -0.08105 -0.01922
v 0.02296 -0.08113 -0.01922
v 0.02366 -0.07977 -0.0221
v 0.02234 -0.08137 -0.01922
v 0.02266 -0.07988 -0.0221
v 0.02367 -0.07977 -0.04903
v 0.02172 -0.08024 -0.0221
v 0.02267 -0.07988 -0.04903
v 0.02281 -0.08046 -0.04969
v 0.02366 -0.08037 -0.04969
v 0.02366 -0.08037 -0.05046
v 0.02091 -0.08084 -0.0221
v 0.02173 -0.08024 -0.04903
v 0.02202 -0.08077 -0.04969
v 0.02027 -0.08163 -0.0221
v 0.02028 -0.08163 -0.04903
v 0.02091 -0.08084 -0.04903
v 0.02133 -0.08128 -0.04969
v 0.0208 -0.08194 -0.04969
v 0.01988 -0.08255 -0.04903
v 0.01972 -0.08355 -0.04903
v 0.02046 -0.08272 -0.04969
v 0.02042 -0.08441 -0.04969
v 0.02033 -0.08356 -0.04969
v 0.02033 -0.08356 -0.05046
v 0.02046 -0.08272 -0.05046
v 0.0208 -0.08194 -0.05046
v 0.01972 -0.08355 -0.05077
v 0.01988 -0.08255 -0.05077
v 0.01983 -0.08455 -0.05077
v 0.02028 -0.08163 -0.05077
v 0.02091 -0.08084 -0.05077
v 0.02173 -0.08024 -0.05077
v 0.02133 -0.08128 -0.05046
v 0.02202 -0.08077 -0.05046
v 0.02281 -0.08046 -0.05046
v 0.02267 -0.07988 -0.05077
v 0.02367 -0.07977 -0.05077
v 0.02433 -0.08192 -0.0088
v 0.0245 -0.08154 -0.01522
v 0.02492 -0.08234 -0.0088
v 0.02523 -0.08205 -0.01522
v 0.02571 -0.0828 -0.01522
v 0.02448 -0.08234 -0.00713
v 0.02531 -0.08295 -0.0088
v 0.02586 -0.08368 -0.01522
v 0.02513 -0.08335 -0.00713
v 0.02544 -0.08367 -0.0088
v 0.02528 -0.08438 -0.0088
v 0.02567 -0.08455 -0.01522
v 0.02487 -0.08453 -0.00713
v 0.02467 -0.08344 -0.00545
v 0.02487 -0.08497 -0.0088
v 0.02516 -0.08528 -0.01522
v 0.02419 -0.08352 -0.00447
v 0.02448 -0.08426 -0.00545
v 0.02409 -0.08399 -0.00447
v 0.02734 -0.08271 -0.05077
v 0.02697 -0.08177 -0.05077
v 0.02676 -0.08286 -0.05046
v 0.02638 -0.08096 -0.05077
v 0.02559 -0.08033 -0.05077
v 0.02467 -0.07992 -0.05077
v 0.02594 -0.08138 -0.05046
v 0.02528 -0.08084 -0.05046
v 0.02528 -0.08084 -0.04969
v 0.0245 -0.0805 -0.05046
v 0.0245 -0.0805 -0.04969
v 0.02467 -0.07992 -0.04902
v 0.02559 -0.08033 -0.04902
v 0.02466 -0.07992 -0.0221
v 0.02594 -0.08138 -0.04969
v 0.02645 -0.08206 -0.05046
v 0.02645 -0.08206 -0.04969
v 0.02638 -0.08096 -0.04902
v 0.02637 -0.08096 -0.0221
v 0.02697 -0.08177 -0.04902
v 0.02558 -0.08032 -0.0221
v 0.02697 -0.08177 -0.0221
v 0.02544 -0.08185 -0.01922
v 0.02492 -0.08142 -0.01922
v 0.0243 -0.08115 -0.01922
v 0.02491 -0.08142 -0.01523
v 0.0243 -0.08115 -0.01523
v 0.02544 -0.08185 -0.01523
v 0.02584 -0.08239 -0.01922
v 0.02584 -0.08239 -0.01523
v 0.02733 -0.08271 -0.0221
v 0.02608 -0.08302 -0.01922
v 0.02608 -0.08302 -0.01523
v 0.02734 -0.08271 -0.04902
v 0.02744 -0.08371 -0.0221
v 0.02616 -0.08368 -0.01922
v 0.02616 -0.08368 -0.01523
v 0.02605 -0.08435 -0.01922
v 0.02729 -0.08471 -0.0221
v 0.02745 -0.08371 -0.04902
v 0.02672 -0.08454 -0.04969
v 0.02685 -0.0837 -0.04969
v 0.02676 -0.08286 -0.04969
v 0.02685 -0.0837 -0.05046
v 0.02352 -0.08621 -0.01922
v 0.02507 -0.08518 -0.01523
v 0.02565 -0.08423 -0.01523
v 0.02567 -0.08312 -0.01523
v 0.02513 -0.08214 -0.01523
v 0.02418 -0.08156 -0.01523
vt 0.882324 0.90918
vt 0.880859 0.90918
vt 0.881348 0.909668
vt 0.880859 0.909668
vt 0.880859 0.914062
vt 0.879883 0.909668
vt 0.879395 0.90918
vt 0.879395 0.909668
vt 0.878418 0.909668
vt 0.879883 0.914062
vt 0.87793 0.90918
vt 0.880859 0.916992
vt 0.881836 0.916992
vt 0.879395 0.914062
vt 0.879883 0.916992
vt 0.880859 0.945801
vt 0.881836 0.945801
vt 0.882812 0.945801
vt 0.882812 0.946777
vt 0.881836 0.946777
vt 0.880859 0.946777
vt 0.882812 0.947754
vt 0.881836 0.947754
vt 0.880859 0.947754
vt 0.881836 0.948242
vt 0.882812 0.948242
vt 0.883301 0.947754
vt 0.883301 0.948242
vt 0.882812 0.94873
vt 0.881836 0.94873
vt 0.880859 0.94873
vt 0.880859 0.948242
vt 0.879883 0.948242
vt 0.879883 0.94873
vt 0.879883 0.947754
vt 0.878906 0.948242
vt 0.878906 0.94873
vt 0.87793 0.94873
vt 0.87793 0.948242
vt 0.876953 0.94873
vt 0.878906 0.947754
vt 0.879883 0.946777
vt 0.878906 0.946777
vt 0.879883 0.945801
vt 0.87793 0.947754
vt 0.878906 0.916992
vt 0.878906 0.945801
vt 0.87793 0.946777
vt 0.876953 0.947754
vt 0.87793 0.916992
vt 0.87793 0.945801
vt 0.876953 0.945801
vt 0.878418 0.914062
vt 0.876953 0.916992
vt 0.877441 0.914062
vt 0.877441 0.909668
vt 0.875977 0.916992
vt 0.876953 0.914062
vt 0.876953 0.909668
vt 0.876465 0.90918
vt 0.875977 0.909668
vt 0.875977 0.914062
vt 0.875488 0.909668
vt 0.875 0.90918
vt 0.875 0.916992
vt 0.875488 0.914062
vt 0.874512 0.909668
vt 0.698242 0.233765
vt 0.697754 0.233765
vt 0.699219 0.234863
vt 0.69873 0.235229
vt 0.700684 0.235229
vt 0.70166 0.234619
vt 0.701172 0.234619
vt 0.701172 0.233765
vt 0.702148 0.234619
vt 0.70166 0.233765
vt 0.700684 0.232178
vt 0.702637 0.233765
vt 0.702637 0.234741
vt 0.702637 0.235352
vt 0.703125 0.235107
vt 0.704102 0.233765
vt 0.703613 0.233765
vt 0.705566 0.232178
vt 0.703125 0.232178
vt 0.702148 0.232178
vt 0.704102 0.232178
vt 0.706055 0.230347
vt 0.706543 0.230347
vt 0.708496 0.223633
vt 0.70752 0.223633
vt 0.705078 0.230347
vt 0.707031 0.223633
vt 0.706055 0.223633
vt 0.70459 0.230347
vt 0.705078 0.223633
vt 0.703613 0.230347
vt 0.703125 0.230347
vt 0.704102 0.223633
vt 0.702637 0.230347
vt 0.703125 0.223633
vt 0.702148 0.223633
vt 0.70166 0.230347
vt 0.701172 0.223633
vt 0.701172 0.230347
vt 0.700684 0.230347
vt 0.700195 0.223633
vt 0.883301 0.914062
vt 0.883301 0.916992
vt 0.883789 0.914062
vt 0.882812 0.916992
vt 0.882324 0.914062
vt 0.883301 0.909668
vt 0.882324 0.909668
vt 0.883789 0.909668
vt 0.884766 0.909668
vt 0.883301 0.945801
vt 0.884277 0.916992
vt 0.884766 0.914062
vt 0.885254 0.916992
vt 0.885254 0.909668
vt 0.883301 0.946777
vt 0.884277 0.945801
vt 0.884277 0.946777
vt 0.885254 0.945801
vt 0.88623 0.945801
vt 0.885254 0.946777
vt 0.884277 0.947754
vt 0.884277 0.948242
vt 0.885254 0.947754
vt 0.885254 0.948242
vt 0.88623 0.947754
vt 0.883301 0.94873
vt 0.884277 0.94873
vt 0.885254 0.94873
vt 0.88623 0.94873
vt 0.88623 0.948242
vt 0.887207 0.948242
vt 0.266113 0.731934
vt 0.266113 0.72998
vt 0.266113 0.730957
vt 0.266602 0.729004
vt 0.266602 0.73291
vt 0.267334 0.733887
vt 0.267334 0.728027
vt 0.268066 0.734375
vt 0.268066 0.727539
vt 0.269043 0.727051
vt 0.269043 0.734863
vt 0.270264 0.727051
vt 0.270264 0.734863
vt 0.27124 0.734863
vt 0.27124 0.727051
vt 0.272217 0.734375
vt 0.272217 0.727539
vt 0.273193 0.733887
vt 0.273193 0.728027
vt 0.273682 0.729004
vt 0.273682 0.73291
vt 0.27417 0.731934
vt 0.27417 0.72998
vt 0.27417 0.730957
vt 0.874023 0.909668
vt 0.874023 0.90918
vt 0.874512 0.914062
vt 0.873047 0.909668
vt 0.872559 0.909668
vt 0.872559 0.914062
vt 0.873047 0.914062
vt 0.870117 0.916992
vt 0.874023 0.914062
vt 0.871094 0.916992
vt 0.870117 0.945801
vt 0.87207 0.916992
vt 0.871094 0.945801
vt 0.871094 0.946777
vt 0.870117 0.946777
vt 0.870117 0.947754
vt 0.873047 0.916992
vt 0.87207 0.945801
vt 0.87207 0.946777
vt 0.874023 0.916992
vt 0.874023 0.945801
vt 0.873047 0.945801
vt 0.873047 0.946777
vt 0.874023 0.946777
vt 0.875 0.945801
vt 0.875977 0.945801
vt 0.875 0.946777
vt 0.876953 0.946777
vt 0.875977 0.946777
vt 0.875977 0.947754
vt 0.875 0.947754
vt 0.874023 0.947754
vt 0.875977 0.948242
vt 0.875 0.948242
vt 0.876953 0.948242
vt 0.875977 0.94873
vt 0.875 0.94873
vt 0.874023 0.94873
vt 0.874023 0.948242
vt 0.873047 0.948242
vt 0.873047 0.94873
vt 0.87207 0.94873
vt 0.87207 0.948242
vt 0.873047 0.947754
vt 0.871094 0.94873
vt 0.87207 0.947754
vt 0.871094 0.947754
vt 0.871094 0.948242
vt 0.870117 0.94873
vt 0.870117 0.948242
vt 0.696777 0.230347
vt 0.694824 0.223633
vt 0.693848 0.223633
vt 0.695801 0.230347
vt 0.697266 0.230347
vt 0.695801 0.223633
vt 0.696289 0.223633
vt 0.697266 0.232178
vt 0.696289 0.232178
vt 0.697754 0.230347
vt 0.697266 0.223633
vt 0.69873 0.232178
vt 0.69873 0.230347
vt 0.699219 0.230347
vt 0.698242 0.223633
vt 0.699707 0.232178
vt 0.699219 0.233765
vt 0.699707 0.230347
vt 0.699219 0.223633
vt 0.699707 0.234619
vt 0.700195 0.233765
vt 0.700195 0.234619
vt 0.887207 0.94873
vt 0.888184 0.94873
vt 0.888184 0.948242
vt 0.88916 0.94873
vt 0.88916 0.948242
vt 0.888184 0.947754
vt 0.890137 0.94873
vt 0.890137 0.948242
vt 0.891113 0.948242
vt 0.891113 0.94873
vt 0.89209 0.94873
vt 0.89209 0.948242
vt 0.890137 0.947754
vt 0.891113 0.947754
vt 0.891113 0.946777
vt 0.89209 0.947754
vt 0.89209 0.946777
vt 0.89209 0.945801
vt 0.891113 0.945801
vt 0.89209 0.916992
vt 0.890137 0.946777
vt 0.88916 0.947754
vt 0.88916 0.946777
vt 0.890137 0.945801
vt 0.890137 0.916992
vt 0.88916 0.945801
vt 0.891113 0.916992
vt 0.88916 0.916992
vt 0.888672 0.914062
vt 0.88916 0.914062
vt 0.890137 0.914062
vt 0.88916 0.909668
vt 0.890137 0.909668
vt 0.888672 0.909668
vt 0.887695 0.914062
vt 0.887695 0.909668
vt 0.888184 0.916992
vt 0.887207 0.914062
vt 0.887207 0.909668
vt 0.888184 0.945801
vt 0.887207 0.916992
vt 0.88623 0.914062
vt 0.88623 0.909668
vt 0.885254 0.914062
vt 0.88623 0.916992
vt 0.887207 0.945801
vt 0.88623 0.946777
vt 0.887207 0.946777
vt 0.888184 0.946777
vt 0.887207 0.947754
vt 0.881348 0.914062
vt 0.883789 0.90918
vt 0.885254 0.90918
vt 0.886719 0.90918
vt 0.887695 0.90918
vt 0.88916 0.90918
vt 0.890625 0.909668
vt 0.890137 0.90918
vt 0.890625 0.914062
vt 0.893066 0.916992
vt 0.893066 0.945801
vt 0.893066 0.946777
vt 0.893066 0.947754
vt 0.893066 0.948242
vt 0.893066 0.94873
vn 0 -0.001 1
vn -0.0204 -0.9882 0.152
vn -0.2783 -0.9557 0.0962
vn -0.2725 -0.9427 0.1927
vn -0.5132 -0.845 0.1504
vn -0.7205 -0.6867 0.097
vn -0.8663 -0.4769 0.1488
vn -0.5055 -0.841 0.1926
vn -0.2778 -0.9597 0.0425
vn -0.0207 -0.999 0.0393
vn -0.7091 -0.6766 0.1982
vn -0.5199 -0.8532 0.0415
vn -0.2779 -0.9604 -0.0197
vn -0.0224 -0.9996 -0.0183
vn 0.2405 -0.9705 -0.0192
vn 0.2119 -0.8902 -0.4032
vn -0.0182 -0.9181 -0.3959
vn -0.2558 -0.8772 -0.4063
vn 0.2001 -0.8294 0.5216
vn -0.019 -0.8615 0.5074
vn -0.2385 -0.8099 0.5358
vn -0.0164 -0.8427 0.5381
vn 0.1949 -0.8114 0.5511
vn 0.4081 -0.7388 0.5364
vn 0.3986 -0.7263 0.56
vn 0.2361 -0.9717 0
vn -0.022 -0.9998 0
vn -0.2814 -0.9596 0
vn -0.2294 -0.7953 0.5612
vn -0.4349 -0.7121 0.5511
vn -0.5182 -0.8552 0
vn -0.444 -0.7272 0.5235
vn -0.6057 -0.5735 0.5515
vn -0.7215 -0.6924 0
vn -0.8762 -0.4819 0
vn -0.74 -0.4062 0.5361
vn -0.9714 -0.2375 0
vn -0.6181 -0.5894 0.5202
vn -0.4742 -0.7812 -0.406
vn -0.6572 -0.6357 -0.405
vn -0.517 -0.8558 -0.019
vn -0.7572 -0.4146 0.5048
vn -0.7226 -0.6899 0.0427
vn -0.7202 -0.6935 -0.0196
vn -0.7994 -0.4368 -0.4126
vn -0.821 -0.1992 0.5351
vn -0.8767 -0.4793 0.041
vn -0.8763 -0.4813 -0.0216
vn -0.9708 -0.2391 -0.0192
vn -0.8614 -0.4695 0.1937
vn -0.9698 -0.2406 0.0391
vn -0.9535 -0.233 0.1912
vn -0.9665 -0.2378 0.0966
vn -0.999 0.0217 0.0383
vn -0.982 0.0221 0.1875
vn -0.9882 0.0239 0.1512
vn -0.9559 0.277 0.0975
vn -0.9426 0.2738 0.1913
vn -0.8445 0.5144 0.1489
vn -0.9594 0.2789 0.0413
vn -0.8406 0.5068 0.191
vn -0.6873 0.7197 0.0986
vn 0.5438 0.7748 0.3224
vn 0.2069 0.9304 0.3026
vn 0.4674 0.6718 0.5746
vn 0.1773 0.8015 0.5712
vn 0.1471 -0.1025 0.9838
vn -0.4692 -0.6719 0.5731
vn 0.1372 -0.7861 0.6026
vn 0.1638 -0.9315 0.3248
vn -0.7865 -0.142 0.6011
vn -0.5424 -0.7751 0.3242
vn 0.1687 -0.9544 0.2463
vn -0.9319 -0.1622 0.3245
vn -0.6718 0.4674 0.5746
vn -0.3942 0.2734 0.8774
vn -0.4416 0.6916 0.5716
vn -0.5108 0.8049 0.302
vn -0.7748 0.5438 0.3224
vn -0.5006 0.8343 0.2311
vn -0.9547 -0.1671 0.246
vn -0.5554 -0.7942 0.2465
vn -0.792 0.5577 0.2484
vn -0.3705 0.9241 0.0936
vn -0.1727 0.9817 0.0809
vn -0.1731 0.9827 0.0657
vn -0.3589 0.9311 0.0649
vn -0.6848 0.7229 0.0924
vn -0.6881 0.7227 0.0649
vn -0.9137 0.4009 0.0661
vn -0.9129 0.3983 0.089
vn -0.9977 0.0223 0.0647
vn -0.995 0.0296 0.0952
vn -0.9244 -0.37 0.0922
vn -0.9301 -0.3617 0.0636
vn -0.7237 -0.6841 0.0908
vn -0.722 -0.6887 0.0664
vn -0.4029 -0.9127 0.0676
vn -0.3938 -0.9148 0.0902
vn -0.0212 -0.9976 0.0657
vn -0.0307 -0.9951 0.0941
vn 0.3692 -0.9245 0.095
vn 0.3601 -0.9307 0.0635
vn 0.4712 -0.8604 0.1939
vn 0.4809 -0.8758 0.041
vn 0.6782 -0.7076 0.1982
vn 0.2392 -0.9702 0.0391
vn 0.2314 -0.9539 0.1911
vn 0.4762 -0.8661 0.1519
vn 0.2363 -0.9669 0.0966
vn 0.6882 -0.719 0.097
vn 0.8448 -0.5125 0.1536
vn 0.4797 -0.8772 -0.0216
vn 0.6914 -0.7212 0.0427
vn 0.84 -0.5073 0.1927
vn 0.8542 -0.5183 0.0415
vn 0.9552 -0.2798 0.0963
vn 0.4386 -0.7982 -0.4128
vn 0.6921 -0.7215 -0.0196
vn 0.634 -0.6589 -0.4049
vn 0.8548 -0.5186 -0.0191
vn 0.96 -0.2794 -0.0197
vn 0.7824 -0.4724 -0.4058
vn 0.5911 -0.6164 0.5202
vn 0.5787 -0.6007 0.5516
vn 0.7372 -0.448 0.5058
vn 0.7198 -0.4395 0.5374
vn 0.8108 -0.2367 0.5354
vn 0.4803 -0.8771 0
vn 0.6939 -0.7201 0
vn 0.8543 -0.5198 0
vn 0.96 -0.28 0
vn 0.7944 -0.2312 0.5617
vn 0.8423 -0.0178 0.5387
vn 0 -0.001 -1
vn -0.4774 0.8657 0.1504
vn -0.6793 0.7071 0.1965
vn -0.2381 0.9663 0.098
vn -0.1081 0.9934 0.039
vn -0.108 0.9768 0.1849
vn -0.2301 0.954 0.1924
vn -0.469 0.8621 0.1921
vn -0.238 0.9704 0.0403
vn -0.1085 0.9939 -0.0186
vn -0.4788 0.8771 0.0396
vn -0.2365 0.9714 -0.0204
vn -0.2137 0.8888 -0.4054
vn -0.1004 0.9145 -0.3919
vn -0.0932 0.8416 0.5319
vn -0.6922 0.7206 0.0412
vn -0.4807 0.8766 -0.0202
vn -0.4354 0.8049 -0.4032
vn -0.8526 0.521 0.0401
vn -0.8544 0.5192 -0.0204
vn -0.6914 0.7222 -0.021
vn -0.6292 0.6624 -0.4067
vn -0.7766 0.4738 -0.4152
vn -0.9607 0.2768 -0.0209
vn -0.9996 0.0193 -0.0193
vn -0.8784 0.2508 -0.4069
vn -0.8885 -0.217 -0.4044
vn -0.9186 0.0195 -0.3948
vn -0.8617 0.0149 0.5073
vn -0.8198 0.2393 0.5203
vn -0.7212 0.4394 0.5355
vn -0.8433 0.0178 0.5371
vn -0.8015 0.2341 0.5503
vn -0.8033 -0.197 0.562
vn -0.9998 0.021 -0.001
vn -0.9599 0.2803 -0.0012
vn -0.8558 0.5173 -0.0013
vn -0.7058 0.4301 0.5629
vn -0.5769 0.604 0.5499
vn -0.6931 0.7208 -0.0014
vn -0.4825 0.8759 -0.0013
vn -0.4063 0.7386 0.5379
vn -0.5895 0.6165 0.5219
vn -0.2378 0.9713 0.0012
vn -0.4148 0.7558 0.5066
vn -0.2052 0.8283 0.5213
vn -0.2033 0.8087 0.5519
vn -0.1114 0.9938 -0.0011
vn -0.0908 0.823 0.5607
vn 0.3917 0.9158 0.0887
vn 0.4009 0.9137 0.0661
vn 0.214 0.9748 0.0624
vn 0.2159 0.9708 0.1048
vn 0.7229 0.6848 0.0924
vn 0.7199 0.691 0.0649
vn 0.9299 0.3621 0.065
vn 0.5542 0.7945 0.2482
vn 0.2111 0.9493 0.2329
vn 0.9248 0.368 0.0964
vn 0.9975 -0.0202 0.0679
vn 0.9536 0.1703 0.2481
vn 0.9948 -0.0318 0.0966
vn 0.9148 -0.393 0.0931
vn 0.9149 -0.3981 0.0675
vn 0.7937 -0.5546 0.25
vn 0.9309 0.1684 0.3242
vn 0.6856 -0.7223 0.0908
vn 0.6902 -0.7205 0.0664
vn 0.7852 0.1421 0.6027
vn 0.7764 -0.5406 0.324
vn 0.6705 -0.471 0.5733
vn 0.9997 -0.023 0.002
vn 0.972 0.235 0.0012
vn 0.8036 0.1937 0.5627
vn 0.8776 0.4793 0.0013
vn 0.7386 0.4063 0.5379
vn 0.8198 0.1992 0.5369
vn 0.7208 0.6931 -0.0014
vn 0.5975 0.5738 0.5602
vn 0.4359 0.721 0.5387
vn 0.5204 0.8539 -0.0013
vn 0.2803 0.9599 -0.0012
vn 0.2341 0.8015 0.5503
vn 0.6103 0.5833 0.536
vn 0.4481 0.7358 0.5077
vn 0.4721 0.7836 -0.4039
vn 0.2428 0.8182 0.5212
vn 0.2542 0.877 -0.4077
vn 0.2768 0.9607 -0.0209
vn 0.5192 0.8544 -0.0204
vn 0.2789 0.9594 0.0413
vn 0.6591 0.6325 -0.4068
vn 0.7558 0.4148 0.5066
vn 0.7983 0.437 -0.4145
vn 0.7222 0.6914 -0.021
vn 0.7206 0.6922 0.0412
vn 0.8766 0.4807 -0.0202
vn 0.5177 0.8546 0.04
vn 0.8753 0.482 0.0396
vn 0.7071 0.6793 0.1965
vn 0.5068 0.8406 0.191
vn 0.2711 0.9428 0.1941
vn 0.512 0.8454 0.152
vn 0.2801 0.955 0.0977
vn 0.7197 0.6873 0.0986
vn 0.8601 0.4725 0.1923
vn 0.8685 0.4715 0.1533
vn 0.9704 0.238 0.0403
vn 0.9541 0.2274 0.1951
vn 0.967 0.2351 0.0978
vn 0.9707 0.2394 -0.0204
vn 0.9989 -0.0218 0.0415
vn 0.9819 -0.0198 0.1885
vn 0.9882 -0.0193 0.1519
vn 0.9422 -0.2741 0.1928
vn 0.9601 -0.2763 0.0425
vn 0.9996 -0.0213 -0.0183
vn 0.8793 -0.2506 -0.4051
vn 0.9179 -0.0196 -0.3964
vn 0.8888 0.2137 -0.4054
vn 0.8611 -0.0204 0.508
vn -0.021 -0.9818 0.1887
vn 0.1442 0.9567 0.2527
vn 0.1493 0.9713 0.1851
vn 0.1507 0.9879 0.038
vn 0.1506 0.9884 -0.0192
vn 0.1395 0.9088 -0.3931
vn 0.1304 0.8367 0.5319
vn 0.1281 0.82 0.5579
vn 0.1505 0.9886 0.0011
o bullet01__p0_c0
f 1/1/1 2/2/1 3/3/2
f 3/3/2 2/2/1 4/4/3
f 3/3/2 4/4/3 5/5/4
f 4/4/3 2/2/1 6/6/5
f 4/4/3 6/6/5 5/5/4
f 6/6/5 2/2/1 7/7/1
f 6/6/5 7/7/1 8/8/6
f 8/8/6 7/7/1 9/9/7
f 5/5/4 6/6/5 10/10/8
f 10/10/8 6/6/5 8/8/6
f 9/9/7 7/7/1 11/11/1
f 5/5/4 10/10/8 12/12/9
f 5/5/4 12/12/9 13/13/10
f 10/10/8 8/8/6 14/14/11
f 14/14/11 8/8/6 9/9/7
f 12/12/9 10/10/8 15/15/12
f 15/15/12 10/10/8 14/14/11
f 13/13/10 12/12/9 16/16/13
f 16/16/13 12/12/9 15/15/12
f 13/13/10 16/16/13 17/17/14
f 13/13/10 17/17/14 18/18/15
f 18/18/15 17/17/14 19/19/16
f 19/19/16 17/17/14 20/20/17
f 17/17/14 16/16/13 21/21/18
f 17/17/14 21/21/18 20/20/17
f 19/19/16 20/20/17 22/22/19
f 22/22/19 20/20/17 23/23/20
f 20/20/17 21/21/18 24/24/21
f 20/20/17 24/24/21 23/23/20
f 22/22/19 23/23/20 25/25/22
f 25/25/22 23/23/20 24/24/21
f 22/22/19 25/25/22 26/26/23
f 22/22/19 26/26/23 27/27/24
f 27/27/24 26/26/23 28/28/25
f 26/26/23 25/25/22 29/29/26
f 29/29/26 25/25/22 30/30/27
f 30/30/27 25/25/22 31/31/28
f 25/25/22 24/24/21 32/32/29
f 25/25/22 32/32/29 31/31/28
f 31/31/28 32/32/29 33/33/30
f 33/33/30 32/32/29 24/24/21
f 31/31/28 33/33/30 34/34/31
f 33/33/30 24/24/21 35/35/32
f 35/35/32 24/24/21 21/21/18
f 34/34/31 33/33/30 36/36/33
f 36/36/33 33/33/30 35/35/32
f 34/34/31 36/36/33 37/37/34
f 37/37/34 36/36/33 38/38/35
f 38/38/35 36/36/33 39/39/36
f 38/38/35 39/39/36 40/40/37
f 36/36/33 35/35/32 41/41/38
f 36/36/33 41/41/38 39/39/36
f 42/42/39 35/35/32 21/21/18
f 42/42/39 21/21/18 16/16/13
f 41/41/38 35/35/32 43/43/40
f 43/43/40 35/35/32 42/42/39
f 42/42/39 16/16/13 44/44/41
f 42/42/39 44/44/41 43/43/40
f 44/44/41 16/16/13 15/15/12
f 45/45/42 39/39/36 41/41/38
f 44/44/41 15/15/12 46/46/43
f 46/46/43 15/15/12 14/14/11
f 43/43/40 44/44/41 47/47/44
f 47/47/44 44/44/41 46/46/43
f 48/48/45 41/41/38 43/43/40
f 41/41/38 48/48/45 45/45/42
f 48/48/45 43/43/40 47/47/44
f 49/49/46 39/39/36 45/45/42
f 49/49/46 45/45/42 48/48/45
f 50/50/47 46/46/43 14/14/11
f 46/46/43 50/50/47 47/47/44
f 48/48/45 47/47/44 51/51/48
f 51/51/48 47/47/44 50/50/47
f 48/48/45 51/51/48 52/52/49
f 52/52/49 51/51/48 50/50/47
f 50/50/47 14/14/11 53/53/50
f 53/53/50 14/14/11 9/9/7
f 50/50/47 53/53/50 54/54/51
f 50/50/47 54/54/51 52/52/49
f 53/53/50 9/9/7 55/55/52
f 53/53/50 55/55/52 54/54/51
f 55/55/52 9/9/7 56/56/53
f 56/56/53 9/9/7 11/11/1
f 54/54/51 55/55/52 57/57/54
f 54/54/51 57/57/54 52/52/49
f 55/55/52 56/56/53 58/58/55
f 55/55/52 58/58/55 57/57/54
f 56/56/53 11/11/1 59/59/56
f 56/56/53 59/59/56 58/58/55
f 59/59/56 11/11/1 60/60/1
f 58/58/55 59/59/56 61/61/57
f 61/61/57 59/59/56 60/60/1
f 57/57/54 58/58/55 62/62/58
f 62/62/58 58/58/55 61/61/57
f 61/61/57 60/60/1 63/63/59
f 61/61/57 63/63/59 62/62/58
f 63/63/59 60/60/1 64/64/1
f 57/57/54 62/62/58 65/65/60
f 62/62/58 63/63/59 66/66/61
f 62/62/58 66/66/61 65/65/60
f 63/63/59 64/64/1 67/67/62
f 63/63/59 67/67/62 66/66/61
f 68/68/63 69/69/64 70/70/65
f 70/70/65 69/69/64 71/71/66
f 70/70/65 71/71/66 72/72/67
f 73/73/68 74/74/69 72/72/67
f 74/74/69 73/73/68 75/75/70
f 73/73/68 72/72/67 76/76/71
f 75/75/70 73/73/68 77/77/72
f 75/75/70 77/77/72 78/78/73
f 73/73/68 76/76/71 79/79/74
f 73/73/68 79/79/74 77/77/72
f 79/79/74 76/76/71 80/80/75
f 80/80/75 76/76/71 72/81/76
f 80/80/75 72/81/76 71/82/77
f 80/80/75 71/82/77 69/83/78
f 80/80/75 69/83/78 81/84/79
f 80/80/75 81/84/79 79/79/74
f 81/84/79 69/83/78 82/85/80
f 83/86/81 77/77/72 79/79/74
f 83/86/81 79/79/74 81/84/79
f 84/87/82 78/78/73 77/77/72
f 84/87/82 77/77/72 83/86/81
f 81/84/79 82/85/80 85/88/83
f 81/84/79 85/88/83 83/86/81
f 85/88/83 82/85/80 86/89/84
f 86/89/84 82/85/80 87/90/85
f 86/89/84 87/90/85 88/91/86
f 86/89/84 88/91/86 89/92/87
f 86/89/84 89/92/87 90/93/88
f 86/89/84 90/93/88 85/88/83
f 90/93/88 89/92/87 91/94/89
f 90/93/88 91/94/89 92/95/90
f 90/93/88 92/95/90 93/96/91
f 90/93/88 93/96/91 85/88/83
f 93/96/91 92/95/90 94/97/92
f 85/88/83 93/96/91 95/98/93
f 95/98/93 93/96/91 94/97/92
f 85/88/83 95/98/93 83/86/81
f 95/98/93 94/97/92 96/99/94
f 95/98/93 96/99/94 83/86/81
f 96/99/94 94/97/92 97/100/95
f 83/86/81 96/99/94 84/87/82
f 96/99/94 97/100/95 98/101/96
f 96/99/94 98/101/96 84/87/82
f 98/101/96 97/100/95 99/102/97
f 98/101/96 99/102/97 100/103/98
f 98/101/96 100/103/98 101/104/99
f 98/101/96 101/104/99 84/87/82
f 101/104/99 100/103/98 102/105/100
f 84/87/82 101/104/99 103/106/101
f 103/106/101 101/104/99 102/105/100
f 84/87/82 103/106/101 78/78/73
f 78/78/73 103/106/101 104/107/102
f 104/107/102 103/106/101 102/105/100
f 104/107/102 102/105/100 105/108/103
f 106/109/104 107/110/105 108/111/106
f 107/110/105 106/109/104 109/112/107
f 109/112/107 106/109/104 110/113/108
f 110/113/108 106/109/104 111/114/109
f 110/113/108 111/114/109 112/115/110
f 111/114/109 106/109/104 113/116/111
f 113/116/111 106/109/104 108/111/106
f 113/116/111 108/111/106 114/117/112
f 107/110/105 109/112/107 115/118/113
f 115/118/113 109/112/107 18/18/15
f 116/119/114 108/111/106 107/110/105
f 116/119/114 107/110/105 115/118/113
f 114/117/112 108/111/106 117/120/115
f 108/111/106 116/119/114 118/121/116
f 108/111/106 118/121/116 117/120/115
f 114/117/112 117/120/115 119/122/117
f 115/118/113 18/18/15 120/123/118
f 120/123/118 18/18/15 19/19/16
f 120/123/118 19/19/16 22/22/19
f 116/119/114 115/118/113 121/124/119
f 121/124/119 115/118/113 120/123/118
f 116/119/114 121/124/119 118/121/116
f 120/123/118 22/22/19 27/27/24
f 121/124/119 120/123/118 122/125/120
f 122/125/120 120/123/118 27/27/24
f 118/121/116 121/124/119 123/126/121
f 123/126/121 121/124/119 122/125/120
f 118/121/116 123/126/121 124/127/122
f 123/126/121 122/125/120 125/128/123
f 123/126/121 125/128/123 124/127/122
f 122/125/120 27/27/24 126/129/124
f 122/125/120 126/129/124 125/128/123
f 126/129/124 27/27/24 127/130/125
f 127/130/125 27/27/24 28/28/25
f 125/128/123 126/129/124 128/131/126
f 128/131/126 126/129/124 129/132/127
f 129/132/127 126/129/124 127/130/125
f 125/128/123 128/131/126 130/133/128
f 130/133/128 128/131/126 129/132/127
f 29/29/26 28/28/25 26/26/23
f 28/28/25 29/29/26 131/134/129
f 28/28/25 131/134/129 127/130/125
f 127/130/125 131/134/129 132/135/130
f 127/130/125 132/135/130 133/136/131
f 127/130/125 133/136/131 129/132/127
f 129/132/127 133/136/131 134/137/132
f 129/132/127 134/137/132 135/138/133
f 129/132/127 135/138/133 130/133/128
f 135/138/133 134/137/132 136/139/134
f 135/138/133 136/139/134 130/133/128
f 137/140/135 40/141/135 138/142/135
f 40/141/135 137/140/135 38/143/135
f 38/143/135 137/140/135 139/144/135
f 38/143/135 139/144/135 140/145/135
f 38/143/135 140/145/135 37/146/135
f 37/146/135 140/145/135 141/147/135
f 37/146/135 141/147/135 34/148/135
f 34/148/135 141/147/135 31/149/135
f 31/149/135 141/147/135 142/150/135
f 31/149/135 142/150/135 30/151/135
f 30/151/135 142/150/135 143/152/135
f 30/151/135 143/152/135 144/153/135
f 30/151/135 144/153/135 29/154/135
f 29/154/135 144/153/135 145/155/135
f 29/154/135 145/155/135 131/156/135
f 131/156/135 145/155/135 146/157/135
f 131/156/135 146/157/135 132/158/135
f 132/158/135 146/157/135 133/159/135
f 133/159/135 146/157/135 147/160/135
f 133/159/135 147/160/135 148/161/135
f 133/159/135 148/161/135 134/162/135
f 134/162/135 148/161/135 149/163/135
f 150/164/136 67/67/62 64/64/1
f 150/164/136 64/64/1 151/165/1
f 152/166/137 66/66/61 67/67/62
f 150/164/136 151/165/1 153/167/138
f 153/167/138 151/165/1 154/168/139
f 153/167/138 154/168/139 155/169/140
f 153/167/138 155/169/140 156/170/141
f 153/167/138 156/170/141 150/164/136
f 156/170/141 155/169/140 157/171/139
f 158/172/142 67/67/62 150/164/136
f 158/172/142 150/164/136 156/170/141
f 67/67/62 158/172/142 152/166/137
f 156/170/141 157/171/139 159/173/143
f 156/170/141 159/173/143 158/172/142
f 159/173/143 157/171/139 160/174/144
f 152/166/137 158/172/142 161/175/145
f 161/175/145 158/172/142 159/173/143
f 159/173/143 160/174/144 162/176/146
f 159/173/143 162/176/146 161/175/145
f 162/176/146 160/174/144 163/177/147
f 163/177/147 160/174/144 164/178/148
f 163/177/147 164/178/148 165/179/149
f 152/166/137 161/175/145 166/180/150
f 161/175/145 162/176/146 167/181/151
f 161/175/145 167/181/151 166/180/150
f 162/176/146 163/177/147 168/182/152
f 162/176/146 168/182/152 167/181/151
f 152/166/137 166/180/150 169/183/153
f 152/166/137 169/183/153 66/66/61
f 66/66/61 169/183/153 65/65/60
f 169/183/153 166/180/150 170/184/154
f 169/183/153 170/184/154 65/65/60
f 171/185/155 166/180/150 167/181/151
f 166/180/150 171/185/155 170/184/154
f 172/186/156 167/181/151 168/182/152
f 167/181/151 172/186/156 171/185/155
f 171/185/155 172/186/156 173/187/157
f 171/185/155 173/187/157 170/184/154
f 174/188/158 65/65/60 170/184/154
f 174/188/158 170/184/154 173/187/157
f 65/65/60 174/188/158 175/189/159
f 65/65/60 175/189/159 57/57/54
f 57/57/54 175/189/159 52/52/49
f 175/189/159 174/188/158 176/190/160
f 176/190/160 174/188/158 173/187/157
f 52/52/49 175/189/159 177/191/161
f 52/52/49 177/191/161 48/48/45
f 48/48/45 177/191/161 49/49/46
f 177/191/161 175/189/159 178/192/162
f 178/192/162 175/189/159 176/190/160
f 177/191/161 178/192/162 49/49/46
f 178/192/162 176/190/160 179/193/163
f 178/192/162 179/193/163 49/49/46
f 180/194/164 176/190/160 173/187/157
f 176/190/160 180/194/164 179/193/163
f 180/194/164 173/187/157 181/195/165
f 181/195/165 173/187/157 172/186/156
f 179/193/163 180/194/164 182/196/166
f 179/193/163 182/196/166 49/49/46
f 182/196/166 180/194/164 183/197/167
f 183/197/167 180/194/164 181/195/165
f 49/49/46 182/196/166 184/198/168
f 49/49/46 184/198/168 39/39/36
f 39/39/36 184/198/168 40/40/37
f 40/40/37 184/198/168 138/199/169
f 138/199/169 184/198/168 182/196/166
f 138/199/169 182/196/166 183/197/167
f 138/199/169 183/197/167 137/200/170
f 137/200/170 183/197/167 139/201/171
f 139/201/171 183/197/167 185/202/172
f 185/202/172 183/197/167 181/195/165
f 139/201/171 185/202/172 186/203/173
f 186/203/173 185/202/172 181/195/165
f 139/201/171 186/203/173 140/204/174
f 140/204/174 186/203/173 141/205/175
f 141/205/175 186/203/173 187/206/176
f 186/203/173 181/195/165 188/207/177
f 186/203/173 188/207/177 187/206/176
f 188/207/177 181/195/165 172/186/156
f 188/207/177 172/186/156 168/182/152
f 141/205/175 187/206/176 142/208/178
f 188/207/177 168/182/152 189/209/179
f 188/207/177 189/209/179 187/206/176
f 189/209/179 168/182/152 163/177/147
f 189/209/179 163/177/147 190/210/180
f 189/209/179 190/210/180 187/206/176
f 190/210/180 163/177/147 165/179/149
f 142/208/178 187/206/176 191/211/181
f 191/211/181 187/206/176 190/210/180
f 191/211/181 190/210/180 165/179/149
f 142/208/178 191/211/181 143/212/182
f 191/211/181 165/179/149 192/213/183
f 191/211/181 192/213/183 143/212/182
f 193/214/184 194/215/185 88/216/186
f 193/214/184 88/216/186 87/217/187
f 194/215/185 193/214/184 195/218/188
f 194/215/185 195/218/188 196/219/189
f 196/219/189 195/218/188 197/220/190
f 193/214/184 87/217/187 198/221/191
f 193/214/184 198/221/191 195/218/188
f 198/221/191 87/217/187 82/222/192
f 197/220/190 195/218/188 199/223/193
f 199/223/193 195/218/188 198/221/191
f 197/220/190 199/223/193 200/224/194
f 198/221/191 82/222/192 68/68/63
f 68/68/63 82/222/192 69/69/64
f 199/223/193 198/221/191 201/225/195
f 201/225/195 198/221/191 68/68/63
f 200/224/194 199/223/193 202/226/196
f 202/226/196 199/223/193 201/225/195
f 200/224/194 202/226/196 203/227/197
f 200/224/194 203/227/197 204/228/198
f 202/226/196 201/225/195 205/229/199
f 202/226/196 205/229/199 203/227/197
f 201/225/195 68/68/63 206/230/200
f 206/230/200 68/68/63 70/70/65
f 204/228/198 203/227/197 207/231/201
f 207/231/201 203/227/197 205/229/199
f 204/228/198 207/231/201 208/232/202
f 208/232/202 207/231/201 105/108/103
f 105/108/103 207/231/201 104/107/102
f 104/107/102 207/231/201 205/229/199
f 104/107/102 205/229/199 78/78/73
f 206/230/200 70/70/65 209/233/203
f 209/233/203 70/70/65 72/72/67
f 78/78/73 205/229/199 210/234/204
f 210/234/204 205/229/199 201/225/195
f 210/234/204 201/225/195 206/230/200
f 78/78/73 210/234/204 75/75/70
f 209/233/203 72/72/67 211/235/205
f 209/233/203 211/235/205 206/230/200
f 206/230/200 211/235/205 210/234/204
f 210/234/204 211/235/205 75/75/70
f 211/235/205 72/72/67 74/74/69
f 211/235/205 74/74/69 75/75/70
f 149/236/206 136/139/134 134/137/132
f 136/139/134 149/236/206 148/237/207
f 136/139/134 148/237/207 212/238/208
f 212/238/208 148/237/207 147/239/209
f 212/238/208 147/239/209 213/240/210
f 136/139/134 212/238/208 214/241/211
f 214/241/211 212/238/208 213/240/210
f 213/240/210 147/239/209 146/242/212
f 213/240/210 146/242/212 215/243/213
f 215/243/213 146/242/212 216/244/214
f 216/244/214 146/242/212 145/245/215
f 216/244/214 145/245/215 144/246/216
f 216/244/214 144/246/216 217/247/217
f 215/243/213 216/244/214 218/248/218
f 215/243/213 218/248/218 213/240/210
f 218/248/218 216/244/214 219/249/219
f 218/248/218 219/249/219 220/250/220
f 220/250/220 219/249/219 221/251/221
f 220/250/220 221/251/221 222/252/222
f 220/250/220 222/252/222 223/253/223
f 220/250/220 223/253/223 224/254/224
f 224/254/224 223/253/223 225/255/225
f 218/248/218 220/250/220 226/256/226
f 226/256/226 220/250/220 224/254/224
f 227/257/227 213/240/210 218/248/218
f 227/257/227 218/248/218 226/256/226
f 213/240/210 227/257/227 214/241/211
f 227/257/227 226/256/226 228/258/228
f 227/257/227 228/258/228 214/241/211
f 226/256/226 224/254/224 229/259/229
f 226/256/226 229/259/229 228/258/228
f 229/259/229 224/254/224 230/260/230
f 228/258/228 229/259/229 231/261/231
f 231/261/231 229/259/229 230/260/230
f 230/260/230 224/254/224 232/262/232
f 232/262/232 224/254/224 225/255/225
f 231/261/231 230/260/230 233/263/233
f 230/260/230 232/262/232 234/264/234
f 230/260/230 234/264/234 233/263/233
f 232/262/232 225/255/225 235/265/235
f 232/262/232 235/265/235 234/264/234
f 235/265/235 225/255/225 236/266/236
f 235/265/235 236/266/236 237/267/237
f 235/265/235 237/267/237 234/264/234
f 237/267/237 236/266/236 238/268/238
f 234/264/234 237/267/237 239/269/239
f 234/264/234 239/269/239 240/270/240
f 234/264/234 240/270/240 233/263/233
f 240/270/240 239/269/239 241/271/241
f 233/263/233 240/270/240 242/272/242
f 233/263/233 242/272/242 231/261/231
f 240/270/240 241/271/241 243/273/243
f 240/270/240 243/273/243 242/272/242
f 243/273/243 241/271/241 244/274/244
f 231/261/231 242/272/242 245/275/245
f 231/261/231 245/275/245 228/258/228
f 242/272/242 243/273/243 246/276/246
f 243/273/243 244/274/244 247/277/247
f 243/273/243 247/277/247 246/276/246
f 247/277/247 244/274/244 248/278/248
f 247/277/247 248/278/248 119/122/117
f 247/277/247 119/122/117 249/279/249
f 247/277/247 249/279/249 246/276/246
f 249/279/249 119/122/117 117/120/115
f 249/279/249 117/120/115 250/280/250
f 249/279/249 250/280/250 246/276/246
f 250/280/250 117/120/115 118/121/116
f 250/280/250 118/121/116 124/127/122
f 250/280/250 124/127/122 246/276/246
f 251/281/251 242/272/242 246/276/246
f 251/281/251 246/276/246 124/127/122
f 242/272/242 251/281/251 245/275/245
f 251/281/251 124/127/122 252/282/252
f 252/282/252 124/127/122 125/128/123
f 252/282/252 125/128/123 130/133/128
f 251/281/251 252/282/252 253/283/253
f 253/283/253 252/282/252 130/133/128
f 245/275/245 251/281/251 254/284/254
f 254/284/254 251/281/251 253/283/253
f 245/275/245 254/284/254 228/258/228
f 228/258/228 254/284/254 214/241/211
f 254/284/254 253/283/253 255/285/255
f 255/285/255 253/283/253 130/133/128
f 254/284/254 255/285/255 214/241/211
f 255/285/255 130/133/128 136/139/134
f 255/285/255 136/139/134 214/241/211
f 256/286/256 3/3/2 5/5/4
f 3/3/2 256/286/256 110/113/108
f 110/113/108 256/286/256 13/13/10
f 13/13/10 256/286/256 5/5/4
f 110/113/108 13/13/10 109/112/107
f 3/3/2 110/113/108 112/115/110
f 109/112/107 13/13/10 18/18/15
f 3/3/2 112/115/110 1/1/1
f 1/1/1 112/115/110 111/114/109
f 1/1/1 111/114/109 257/287/1
f 257/287/1 111/114/109 113/116/111
f 257/287/1 113/116/111 114/117/112
f 257/287/1 114/117/112 258/288/1
f 258/288/1 114/117/112 119/122/117
f 258/288/1 119/122/117 248/278/248
f 258/288/1 248/278/248 259/289/1
f 259/289/1 248/278/248 244/274/244
f 259/289/1 244/274/244 241/271/241
f 259/289/1 241/271/241 260/290/1
f 260/290/1 241/271/241 239/269/239
f 260/290/1 239/269/239 237/267/237
f 260/290/1 237/267/237 261/291/1
f 261/291/1 237/267/237 238/268/238
f 261/291/1 238/268/238 154/292/257
f 261/291/1 154/292/257 151/293/1
f 154/292/257 238/268/238 155/294/258
f 155/294/258 238/268/238 236/266/236
f 155/294/258 236/266/236 157/295/259
f 157/295/259 236/266/236 225/255/225
f 157/295/259 225/255/225 160/296/260
f 160/296/260 225/255/225 223/253/223
f 160/296/260 223/253/223 222/252/222
f 160/296/260 222/252/222 164/297/261
f 164/297/261 222/252/222 165/298/262
f 165/298/262 222/252/222 221/251/221
f 216/244/214 221/251/221 219/249/219
f 221/251/221 216/244/214 217/247/217
f 221/251/221 217/247/217 165/298/262
f 165/298/262 217/247/217 192/299/263
f 192/299/263 217/247/217 143/300/264
f 143/300/264 217/247/217 144/246/216
