# CS2 body mesh, tools/cs2_glb_to_obj.py
v 0.03419 -0.02736 -0.0221
v 0.03319 -0.02795 -0.02607
v 0.03319 -0.02795 -0.0221
v 0.03239 -0.02878 -0.0221
v 0.03422 -0.02734 -0.02607
v 0.03237 -0.0288 -0.02607
v 0.03536 -0.02702 -0.0221
v 0.03179 -0.02984 -0.0221
v 0.03536 -0.02702 -0.02607
v 0.03655 -0.027 -0.02607
v 0.03655 -0.027 -0.0221
v 0.03179 -0.02984 -0.02607
v 0.03152 -0.03091 -0.02292
v 0.03152 -0.03091 -0.02525
v 0.0332 -0.02795 -0.04619
v 0.03419 -0.02736 -0.04115
v 0.03415 -0.02739 -0.04619
v 0.0332 -0.02795 -0.03718
v 0.03422 -0.02734 -0.03718
v 0.03536 -0.02702 -0.04115
v 0.03239 -0.02878 -0.04115
v 0.03243 -0.02874 -0.04619
v 0.03237 -0.02881 -0.03718
v 0.03536 -0.02702 -0.03718
v 0.03655 -0.027 -0.04115
v 0.03655 -0.027 -0.03718
v 0.03179 -0.02984 -0.04115
v 0.03179 -0.02984 -0.03718
v 0.03152 -0.03091 -0.04033
v 0.03152 -0.03091 -0.038
v 0.03769 -0.03504 -0.05133
v 0.03923 -0.03374 -0.05133
v 0.03855 -0.03449 -0.05133
v 0.03969 -0.03284 -0.05133
v 0.03673 -0.03535 -0.05133
v 0.03571 -0.0354 -0.05133
v 0.03991 -0.03184 -0.05133
v 0.03472 -0.03519 -0.05133
v 0.03986 -0.03083 -0.05133
v 0.03955 -0.02986 -0.05133
v 0.03382 -0.03473 -0.05133
v 0.03899 -0.02901 -0.05133
v 0.03306 -0.03404 -0.05133
v 0.03251 -0.03319 -0.05133
v 0.03824 -0.02833 -0.05133
v 0.0322 -0.03222 -0.05133
v 0.03734 -0.02786 -0.05133
v 0.03215 -0.03121 -0.05133
v 0.03635 -0.02765 -0.05133
v 0.03533 -0.0277 -0.05133
v 0.03237 -0.03022 -0.05133
v 0.03283 -0.02931 -0.05133
v 0.03436 -0.02801 -0.05133
v 0.03351 -0.02856 -0.05133
v 0.03358 -0.03065 -0.01502
v 0.03424 -0.03029 -0.01502
v 0.03388 -0.03005 -0.01502
v 0.03389 -0.03005 -0.01904
v 0.03434 -0.02955 -0.01904
v 0.03434 -0.02954 -0.01502
v 0.03509 -0.02956 -0.01502
v 0.03491 -0.02918 -0.01502
v 0.03641 -0.03103 -0.00418
v 0.03594 -0.0309 -0.00418
v 0.03602 -0.03152 -0.00384
v 0.03552 -0.03113 -0.00418
v 0.03514 -0.03083 -0.00517
v 0.03539 -0.03159 -0.00418
v 0.03563 -0.03201 -0.00418
v 0.03589 -0.03042 -0.00517
v 0.03532 -0.0324 -0.00517
v 0.03478 -0.03054 -0.00686
v 0.03491 -0.03165 -0.00517
v 0.03503 -0.03276 -0.00686
v 0.03444 -0.0317 -0.00686
v 0.03584 -0.02995 -0.00686
v 0.03459 -0.03274 -0.00854
v 0.03423 -0.0321 -0.00854
v 0.03426 -0.03301 -0.01501
v 0.03383 -0.03223 -0.01501
v 0.03415 -0.03137 -0.00854
v 0.03373 -0.03134 -0.01501
v 0.03397 -0.03047 -0.01501
v 0.03435 -0.03067 -0.00854
v 0.03453 -0.02977 -0.01501
v 0.0348 -0.03009 -0.00854
v 0.03544 -0.02974 -0.00854
v 0.03531 -0.02933 -0.01501
v 0.03617 -0.02965 -0.00854
v 0.03621 -0.02923 -0.01501
v 0.03924 -0.03369 -0.03756
v 0.04048 -0.03526 -0.03558
v 0.03968 -0.03424 -0.03756
v 0.04093 -0.03583 -0.03558
v 0.04093 -0.03583 -0.02766
v 0.04048 -0.03526 -0.02766
v 0.03968 -0.03424 -0.02569
v 0.03923 -0.03368 -0.02569
v 0.03361 -0.02847 -0.04612
v 0.03448 -0.02795 -0.04612
v 0.03291 -0.0292 -0.04612
v 0.03946 -0.03587 -0.03558
v 0.03739 -0.03515 -0.03756
v 0.03863 -0.03672 -0.03558
v 0.03863 -0.03672 -0.02766
v 0.03805 -0.03776 -0.02814
v 0.03805 -0.03776 -0.0351
v 0.03778 -0.03883 -0.02944
v 0.03778 -0.03883 -0.0338
v 0.03946 -0.03587 -0.02766
v 0.03738 -0.03515 -0.02569
v 0.04163 -0.03494 -0.03558
v 0.04162 -0.03494 -0.02766
v 0.04282 -0.03492 -0.03596
v 0.04281 -0.03492 -0.02728
v 0.03448 -0.02795 -0.04115
v 0.04397 -0.03521 -0.02728
v 0.04397 -0.03521 -0.03596
v 0.04501 -0.03579 -0.02728
v 0.04501 -0.03579 -0.03596
v 0.04586 -0.03662 -0.02728
v 0.04586 -0.03662 -0.03596
v 0.04647 -0.03764 -0.02728
v 0.04647 -0.03764 -0.03596
v 0.0468 -0.03878 -0.03596
v 0.04679 -0.03878 -0.02728
v 0.04681 -0.03997 -0.03596
v 0.04681 -0.03997 -0.02728
v 0.04652 -0.04112 -0.02728
v 0.04652 -0.04112 -0.03596
v 0.04594 -0.04216 -0.02728
v 0.04594 -0.04216 -0.03596
v 0.04511 -0.04302 -0.02728
v 0.04512 -0.04302 -0.03596
v 0.04409 -0.04363 -0.02728
v 0.04409 -0.04363 -0.03596
v 0.04295 -0.04395 -0.0278
v 0.04295 -0.04395 -0.03543
v 0.03648 -0.02766 -0.04115
v 0.03771 -0.02729 -0.04115
v 0.03835 -0.0284 -0.04115
v 0.03875 -0.02787 -0.04115
v 0.0396 -0.0287 -0.04115
v 0.0396 -0.02998 -0.04115
v 0.04021 -0.02972 -0.04115
v 0.04053 -0.03086 -0.04115
v 0.03989 -0.03198 -0.04115
v 0.04055 -0.03205 -0.04115
v 0.04026 -0.03321 -0.04115
v 0.03915 -0.03385 -0.04115
v 0.03968 -0.03424 -0.04115
v 0.03885 -0.0351 -0.04115
v 0.03757 -0.0351 -0.04115
v 0.03783 -0.03571 -0.04115
v 0.03669 -0.03603 -0.04115
v 0.03659 -0.03537 -0.04115
v 0.03558 -0.03605 -0.0404
v 0.03557 -0.03539 -0.0404
v 0.03557 -0.03539 -0.0383
v 0.03558 -0.03605 -0.0383
v 0.03659 -0.03537 -0.03756
v 0.03669 -0.03603 -0.03756
v 0.03783 -0.03571 -0.03756
v 0.03689 -0.02908 -0.01904
v 0.03733 -0.02786 -0.02193
v 0.03623 -0.02894 -0.01904
v 0.03634 -0.02765 -0.02193
v 0.03532 -0.0277 -0.02193
v 0.03634 -0.02765 -0.04904
v 0.03734 -0.02786 -0.04904
v 0.03713 -0.02843 -0.0497
v 0.0363 -0.02825 -0.0497
v 0.03533 -0.0277 -0.04904
v 0.03544 -0.0283 -0.0497
v 0.03436 -0.02801 -0.04904
v 0.0363 -0.02825 -0.05048
v 0.03544 -0.0283 -0.05048
v 0.03533 -0.0277 -0.05079
v 0.03462 -0.02856 -0.05048
v 0.03462 -0.02856 -0.0497
v 0.03351 -0.02856 -0.04904
v 0.03635 -0.02765 -0.05079
v 0.03713 -0.02843 -0.05048
v 0.03734 -0.02786 -0.05079
v 0.03436 -0.02801 -0.05079
v 0.03351 -0.02856 -0.05079
v 0.03283 -0.02931 -0.05079
v 0.03236 -0.03022 -0.05079
v 0.03333 -0.02966 -0.05048
v 0.03215 -0.03121 -0.05079
v 0.0322 -0.03222 -0.05079
v 0.03276 -0.03126 -0.05048
v 0.03294 -0.03042 -0.05048
v 0.0328 -0.03212 -0.05048
v 0.03251 -0.03319 -0.05079
v 0.03306 -0.03404 -0.05079
v 0.03353 -0.03365 -0.05048
v 0.03306 -0.03293 -0.05048
v 0.0328 -0.03212 -0.0497
v 0.03306 -0.03293 -0.0497
v 0.03353 -0.03365 -0.0497
v 0.03306 -0.03404 -0.04904
v 0.03251 -0.03319 -0.04904
v 0.03276 -0.03126 -0.0497
v 0.0322 -0.03222 -0.04904
v 0.0325 -0.03319 -0.02193
v 0.03306 -0.03404 -0.02193
v 0.03294 -0.03042 -0.0497
v 0.03215 -0.03121 -0.04904
v 0.03367 -0.03263 -0.01904
v 0.03404 -0.0332 -0.01904
v 0.03219 -0.03222 -0.02193
v 0.03347 -0.03199 -0.01904
v 0.03367 -0.03263 -0.01502
v 0.03404 -0.0332 -0.01502
v 0.03347 -0.03199 -0.01502
v 0.03406 -0.03245 -0.01502
v 0.03479 -0.03331 -0.01502
v 0.03386 -0.03135 -0.01502
v 0.03343 -0.03131 -0.01904
v 0.03214 -0.03121 -0.02193
v 0.03343 -0.03131 -0.01502
v 0.03358 -0.03065 -0.01904
v 0.03236 -0.03021 -0.02193
v 0.03236 -0.03022 -0.04904
v 0.03282 -0.02931 -0.02193
v 0.03723 -0.03295 -0.00854
v 0.03751 -0.03328 -0.01501
v 0.03769 -0.03238 -0.00854
v 0.03659 -0.03331 -0.00854
v 0.03672 -0.03371 -0.01501
v 0.0362 -0.0331 -0.00686
v 0.03807 -0.03257 -0.01501
v 0.03726 -0.03251 -0.00686
v 0.03614 -0.03263 -0.00517
v 0.03789 -0.03168 -0.00854
v 0.03831 -0.03171 -0.01501
v 0.03821 -0.03082 -0.01501
v 0.03759 -0.03134 -0.00686
v 0.0378 -0.03095 -0.00854
v 0.03777 -0.03003 -0.01501
v 0.03689 -0.03221 -0.00517
v 0.03609 -0.03215 -0.00418
v 0.03651 -0.03191 -0.00418
v 0.03712 -0.03139 -0.00517
v 0.03664 -0.03145 -0.00418
v 0.03671 -0.03065 -0.00517
v 0.037 -0.03028 -0.00686
v 0.03745 -0.03031 -0.00854
v 0.03687 -0.02985 -0.00854
v 0.03707 -0.02948 -0.01501
v 0.0375 -0.02939 -0.01904
v 0.038 -0.02984 -0.01502
v 0.038 -0.02984 -0.01904
v 0.0375 -0.02939 -0.01502
v 0.03689 -0.02908 -0.01502
v 0.03837 -0.03041 -0.01903
v 0.03836 -0.03041 -0.01502
v 0.03857 -0.03106 -0.01502
v 0.03623 -0.02894 -0.01502
v 0.03823 -0.02832 -0.02193
v 0.03899 -0.02901 -0.02193
v 0.03824 -0.02833 -0.04904
v 0.03954 -0.02986 -0.02193
v 0.03857 -0.03106 -0.01903
v 0.03861 -0.03173 -0.01502
v 0.03861 -0.03173 -0.01903
v 0.03846 -0.0324 -0.01502
v 0.03985 -0.03083 -0.02193
v 0.03954 -0.02986 -0.04904
v 0.03899 -0.02901 -0.04904
v 0.0379 -0.02883 -0.0497
v 0.039 -0.03012 -0.0497
v 0.03853 -0.0294 -0.0497
v 0.0379 -0.02883 -0.05048
v 0.03853 -0.0294 -0.05048
v 0.03824 -0.02833 -0.05079
v 0.039 -0.03012 -0.05048
v 0.03899 -0.02901 -0.05079
v 0.03955 -0.02986 -0.05079
v 0.03986 -0.03083 -0.05079
v 0.03926 -0.03094 -0.05048
v 0.03991 -0.03184 -0.05079
v 0.03969 -0.03284 -0.05079
v 0.0393 -0.03179 -0.05048
v 0.03926 -0.03094 -0.0497
v 0.0393 -0.03179 -0.0497
v 0.03912 -0.03263 -0.05048
v 0.03986 -0.03083 -0.04903
v 0.03912 -0.03263 -0.0497
v 0.03873 -0.03339 -0.05048
v 0.0399 -0.03184 -0.02193
v 0.03991 -0.03184 -0.04903
v 0.03968 -0.03283 -0.02193
v 0.03969 -0.03284 -0.04903
v 0.03923 -0.03374 -0.04903
v 0.03846 -0.0324 -0.01903
v 0.03922 -0.03374 -0.02193
v 0.03815 -0.033 -0.01903
v 0.03815 -0.033 -0.01502
v 0.03854 -0.03449 -0.02193
v 0.0377 -0.0335 -0.01903
v 0.0377 -0.0335 -0.01502
v 0.03713 -0.03387 -0.01502
v 0.03713 -0.03387 -0.01903
v 0.03648 -0.03408 -0.01502
v 0.03649 -0.03408 -0.01904
v 0.03769 -0.03504 -0.02193
v 0.03672 -0.03535 -0.02193
v 0.03673 -0.03535 -0.04904
v 0.03855 -0.03449 -0.04903
v 0.03769 -0.03504 -0.04904
v 0.03662 -0.03476 -0.0497
v 0.03873 -0.03339 -0.0497
v 0.03743 -0.03449 -0.0497
v 0.03815 -0.03403 -0.0497
v 0.03743 -0.03449 -0.05048
v 0.03662 -0.03476 -0.05048
v 0.03815 -0.03403 -0.05048
v 0.03855 -0.03449 -0.05079
v 0.03769 -0.03504 -0.05079
v 0.03673 -0.03535 -0.05079
v 0.03923 -0.03374 -0.05079
v 0.0377 -0.02729 -0.0221
v 0.0377 -0.02729 -0.02607
v 0.03874 -0.02787 -0.02607
v 0.03874 -0.02787 -0.0221
v 0.03959 -0.0287 -0.0221
v 0.03959 -0.0287 -0.02607
v 0.0402 -0.02972 -0.0221
v 0.0402 -0.02972 -0.02607
v 0.04053 -0.03086 -0.0221
v 0.04053 -0.03086 -0.02607
v 0.04055 -0.03205 -0.02607
v 0.04055 -0.03205 -0.0221
v 0.04026 -0.0332 -0.02568
v 0.04025 -0.0332 -0.0221
v 0.03968 -0.03424 -0.0221
v 0.03885 -0.0351 -0.0221
v 0.03885 -0.0351 -0.02569
v 0.03908 -0.03729 -0.02775
v 0.03783 -0.03571 -0.0221
v 0.03783 -0.03571 -0.02569
v 0.03668 -0.03603 -0.0221
v 0.03668 -0.03603 -0.02569
v 0.04026 -0.03321 -0.03756
v 0.04055 -0.03205 -0.03718
v 0.04053 -0.03086 -0.03718
v 0.04021 -0.02972 -0.03718
v 0.0396 -0.0287 -0.03718
v 0.03874 -0.02787 -0.03718
v 0.03771 -0.02729 -0.03718
v 0.03885 -0.0351 -0.03756
v 0.03908 -0.03729 -0.03549
v 0.03283 -0.02931 -0.04904
v 0.03333 -0.02966 -0.0497
v 0.0335 -0.02856 -0.02193
v 0.0339 -0.02902 -0.05048
v 0.0339 -0.02902 -0.0497
v 0.03436 -0.02801 -0.02193
v 0.03555 -0.02897 -0.01904
v 0.03491 -0.02918 -0.01904
v 0.03555 -0.02897 -0.01502
v 0.0362 -0.02936 -0.01502
v 0.03725 -0.02974 -0.01502
v 0.03798 -0.0306 -0.01502
v 0.03818 -0.0317 -0.01502
v 0.0378 -0.03276 -0.01502
v 0.03695 -0.03348 -0.01502
v 0.03584 -0.03368 -0.01502
v 0.03581 -0.03411 -0.01502
v 0.03515 -0.03397 -0.01502
v 0.03581 -0.03411 -0.01904
v 0.03515 -0.03397 -0.01904
v 0.03454 -0.03366 -0.01502
v 0.03454 -0.03366 -0.01904
v 0.03381 -0.03472 -0.02193
v 0.03471 -0.03519 -0.02193
v 0.03382 -0.03473 -0.04904
v 0.03416 -0.03423 -0.0497
v 0.0357 -0.0354 -0.02193
v 0.03472 -0.03519 -0.04904
v 0.03571 -0.0354 -0.04904
v 0.03576 -0.0348 -0.0497
v 0.03492 -0.03462 -0.0497
v 0.03576 -0.0348 -0.05048
v 0.03492 -0.03462 -0.05048
v 0.03416 -0.03423 -0.05048
v 0.03472 -0.03519 -0.05079
v 0.03571 -0.0354 -0.05079
v 0.03382 -0.03473 -0.05079
v 0.04185 -0.04397 -0.02923
v 0.04185 -0.04397 -0.03401
v 0.04274 -0.03558 -0.03596
v 0.04461 -0.03632 -0.03596
v 0.04586 -0.0379 -0.03596
v 0.04615 -0.03989 -0.03596
v 0.04541 -0.04177 -0.03596
v 0.04383 -0.04302 -0.03596
v 0.04285 -0.04329 -0.03543
v 0.04184 -0.04331 -0.03401
v 0.04184 -0.04331 -0.02923
v 0.04285 -0.04329 -0.0278
v 0.04383 -0.04301 -0.02728
v 0.04541 -0.04177 -0.02728
v 0.04615 -0.03989 -0.02728
v 0.04586 -0.0379 -0.02728
v 0.04461 -0.03632 -0.02728
v 0.04274 -0.03558 -0.02728
v 0.03448 -0.02795 -0.02607
v 0.0329 -0.0292 -0.02607
v 0.03241 -0.03009 -0.02607
v 0.03647 -0.02766 -0.02607
v 0.03216 -0.03107 -0.02524
v 0.03834 -0.0284 -0.02607
v 0.03216 -0.03107 -0.02292
v 0.0324 -0.03009 -0.0221
v 0.03959 -0.02998 -0.02607
v 0.0329 -0.0292 -0.0221
v 0.03989 -0.03197 -0.02607
v 0.03448 -0.02795 -0.0221
v 0.03964 -0.03296 -0.02569
v 0.03647 -0.02766 -0.0221
v 0.03834 -0.0284 -0.0221
v 0.03959 -0.02998 -0.0221
v 0.03988 -0.03197 -0.0221
v 0.03964 -0.03296 -0.0221
v 0.03914 -0.03385 -0.0221
v 0.03843 -0.03458 -0.0221
v 0.03756 -0.0351 -0.0221
v 0.03659 -0.03537 -0.0221
v 0.03558 -0.03605 -0.02284
v 0.03557 -0.03539 -0.02284
v 0.03557 -0.03539 -0.02494
v 0.03558 -0.03605 -0.02494
v 0.03659 -0.03537 -0.02569
v 0.03867 -0.03801 -0.0351
v 0.03842 -0.03899 -0.0338
v 0.03842 -0.03899 -0.02944
v 0.03867 -0.03801 -0.02814
v 0.03586 -0.03339 -0.00854
v 0.03583 -0.03382 -0.01501
v 0.03497 -0.03357 -0.01501
v 0.03516 -0.03319 -0.00854
v 0.0329 -0.0292 -0.04115
v 0.03241 -0.03009 -0.04115
v 0.03216 -0.03107 -0.04033
v 0.03216 -0.03107 -0.038
v 0.03241 -0.03009 -0.03718
v 0.0329 -0.0292 -0.03718
v 0.03448 -0.02795 -0.03718
v 0.03648 -0.02766 -0.03718
v 0.03835 -0.0284 -0.03718
v 0.0396 -0.02998 -0.03718
v 0.03989 -0.03198 -0.03718
v 0.03964 -0.03296 -0.03756
vt 0.956543 0.058258
vt 0.955566 0.05426
vt 0.955566 0.058258
vt 0.954102 0.058258
vt 0.956543 0.05426
vt 0.954102 0.05426
vt 0.958008 0.058258
vt 0.953125 0.058258
vt 0.958008 0.05426
vt 0.958984 0.05426
vt 0.958984 0.058258
vt 0.953125 0.05426
vt 0.952148 0.057556
vt 0.952148 0.055206
vt 0.874512 0.254883
vt 0.875977 0.259766
vt 0.875977 0.254883
vt 0.874512 0.263916
vt 0.875977 0.263916
vt 0.876953 0.259766
vt 0.873535 0.259766
vt 0.873535 0.254883
vt 0.873535 0.263916
vt 0.876953 0.263916
vt 0.878418 0.259766
vt 0.878418 0.263916
vt 0.87207 0.259766
vt 0.87207 0.263916
vt 0.871094 0.260742
vt 0.871094 0.263184
vt 0.266113 0.731934
vt 0.266113 0.72998
vt 0.266113 0.730957
vt 0.266602 0.729004
vt 0.266602 0.73291
vt 0.267334 0.733887
vt 0.267334 0.728027
vt 0.268066 0.734375
vt 0.268066 0.727539
vt 0.269043 0.727051
vt 0.269043 0.734863
vt 0.270264 0.727051
vt 0.270264 0.734863
vt 0.27124 0.734863
vt 0.27124 0.727051
vt 0.272217 0.734375
vt 0.272217 0.727539
vt 0.273193 0.733887
vt 0.273193 0.728027
vt 0.273682 0.729004
vt 0.273682 0.73291
vt 0.27417 0.731934
vt 0.27417 0.72998
vt 0.27417 0.730957
vt 0.887695 0.909668
vt 0.886719 0.90918
vt 0.887207 0.909668
vt 0.887207 0.914062
vt 0.88623 0.914062
vt 0.88623 0.909668
vt 0.885254 0.90918
vt 0.885254 0.909668
vt 0.701172 0.234619
vt 0.700195 0.234619
vt 0.700684 0.235229
vt 0.699707 0.234619
vt 0.699219 0.233765
vt 0.699219 0.234863
vt 0.69873 0.235229
vt 0.700195 0.233765
vt 0.697754 0.233765
vt 0.69873 0.232178
vt 0.698242 0.233765
vt 0.696289 0.232178
vt 0.697266 0.232178
vt 0.699707 0.232178
vt 0.695801 0.230347
vt 0.696777 0.230347
vt 0.693848 0.223633
vt 0.694824 0.223633
vt 0.697266 0.230347
vt 0.695801 0.223633
vt 0.696289 0.223633
vt 0.697754 0.230347
vt 0.697266 0.223633
vt 0.69873 0.230347
vt 0.699219 0.230347
vt 0.698242 0.223633
vt 0.699707 0.230347
vt 0.699219 0.223633
vt 0.354492 0.065308
vt 0.351807 0.065308
vt 0.354492 0.065918
vt 0.351318 0.065918
vt 0.313477 0.065918
vt 0.312988 0.065308
vt 0.310303 0.065918
vt 0.310303 0.065308
vt 0.840332 0.989258
vt 0.840332 0.987793
vt 0.839844 0.989258
vt 0.839844 0.987793
vt 0.840332 0.990234
vt 0.839844 0.990234
vt 0.85791 0.031189
vt 0.856445 0.033966
vt 0.85791 0.033997
vt 0.855469 0.031189
vt 0.855469 0.033997
vt 0.855469 0.042023
vt 0.854004 0.041534
vt 0.854004 0.034485
vt 0.853027 0.040222
vt 0.853027 0.035797
vt 0.856445 0.042053
vt 0.855469 0.04483
vt 0.85791 0.04483
vt 0.85791 0.042023
vt 0.858887 0.033997
vt 0.858887 0.042023
vt 0.860352 0.0336
vt 0.860352 0.042419
vt 0.604492 0.007416
vt 0.609375 0.008118
vt 0.609375 0.007416
vt 0.604004 0.008118
vt 0.861328 0.042419
vt 0.861328 0.0336
vt 0.862793 0.042419
vt 0.862793 0.0336
vt 0.86377 0.042419
vt 0.86377 0.0336
vt 0.865234 0.042419
vt 0.865234 0.0336
vt 0.866211 0.0336
vt 0.866211 0.042419
vt 0.867676 0.0336
vt 0.867676 0.042419
vt 0.868652 0.042419
vt 0.868652 0.0336
vt 0.870117 0.042419
vt 0.870117 0.0336
vt 0.871094 0.042419
vt 0.871094 0.0336
vt 0.872559 0.042419
vt 0.872559 0.0336
vt 0.873535 0.04187
vt 0.873535 0.034149
vt 0.603027 0.007416
vt 0.602051 0.008118
vt 0.602051 0.007416
vt 0.601074 0.007416
vt 0.600098 0.008118
vt 0.600098 0.007416
vt 0.598633 0.007416
vt 0.597656 0.008118
vt 0.597656 0.007416
vt 0.59668 0.007416
vt 0.595703 0.008118
vt 0.595703 0.007416
vt 0.594238 0.007416
vt 0.593262 0.008118
vt 0.593262 0.007416
vt 0.592285 0.007416
vt 0.591309 0.008118
vt 0.591309 0.007416
vt 0.589844 0.007416
vt 0.589844 0.008118
vt 0.588867 0.007416
vt 0.588867 0.008118
vt 0.586426 0.008118
vt 0.586426 0.007416
vt 0.585449 0.008118
vt 0.585449 0.007416
vt 0.583984 0.008118
vt 0.583984 0.007416
vt 0.883301 0.914062
vt 0.883301 0.916992
vt 0.883789 0.914062
vt 0.884277 0.916992
vt 0.885254 0.916992
vt 0.884277 0.945801
vt 0.883301 0.945801
vt 0.883301 0.946777
vt 0.884277 0.946777
vt 0.885254 0.945801
vt 0.885254 0.946777
vt 0.88623 0.945801
vt 0.884277 0.947754
vt 0.885254 0.947754
vt 0.885254 0.948242
vt 0.88623 0.947754
vt 0.88623 0.946777
vt 0.887207 0.945801
vt 0.884277 0.948242
vt 0.883301 0.947754
vt 0.883301 0.948242
vt 0.885254 0.94873
vt 0.884277 0.94873
vt 0.88623 0.94873
vt 0.88623 0.948242
vt 0.887207 0.948242
vt 0.887207 0.94873
vt 0.888184 0.94873
vt 0.888184 0.948242
vt 0.88916 0.94873
vt 0.88916 0.948242
vt 0.888184 0.947754
vt 0.890137 0.94873
vt 0.890137 0.948242
vt 0.891113 0.948242
vt 0.891113 0.94873
vt 0.890137 0.947754
vt 0.89209 0.94873
vt 0.88916 0.947754
vt 0.891113 0.947754
vt 0.89209 0.948242
vt 0.893066 0.94873
vt 0.893066 0.948242
vt 0.893066 0.947754
vt 0.89209 0.947754
vt 0.891113 0.946777
vt 0.89209 0.946777
vt 0.893066 0.946777
vt 0.893066 0.945801
vt 0.89209 0.945801
vt 0.890137 0.946777
vt 0.891113 0.945801
vt 0.89209 0.916992
vt 0.893066 0.916992
vt 0.88916 0.946777
vt 0.890137 0.945801
vt 0.890137 0.914062
vt 0.890625 0.914062
vt 0.891113 0.916992
vt 0.88916 0.914062
vt 0.890137 0.909668
vt 0.890625 0.909668
vt 0.88916 0.909668
vt 0.88916 0.90918
vt 0.890137 0.90918
vt 0.887695 0.90918
vt 0.888672 0.914062
vt 0.890137 0.916992
vt 0.888672 0.909668
vt 0.887695 0.914062
vt 0.88916 0.916992
vt 0.88916 0.945801
vt 0.888184 0.916992
vt 0.703613 0.230347
vt 0.705078 0.223633
vt 0.703125 0.230347
vt 0.70459 0.230347
vt 0.706055 0.223633
vt 0.704102 0.232178
vt 0.704102 0.223633
vt 0.703125 0.232178
vt 0.703613 0.233765
vt 0.702637 0.230347
vt 0.703125 0.223633
vt 0.702148 0.223633
vt 0.702148 0.232178
vt 0.70166 0.230347
vt 0.701172 0.223633
vt 0.702637 0.233765
vt 0.702637 0.234741
vt 0.702148 0.234619
vt 0.702637 0.235352
vt 0.70166 0.233765
vt 0.70166 0.234619
vt 0.701172 0.233765
vt 0.700684 0.232178
vt 0.701172 0.230347
vt 0.700684 0.230347
vt 0.700195 0.223633
vt 0.882324 0.914062
vt 0.881348 0.909668
vt 0.881348 0.914062
vt 0.882324 0.909668
vt 0.883301 0.909668
vt 0.880859 0.914062
vt 0.880859 0.909668
vt 0.879883 0.909668
vt 0.883789 0.909668
vt 0.882812 0.916992
vt 0.881836 0.916992
vt 0.882812 0.945801
vt 0.880859 0.916992
vt 0.879883 0.914062
vt 0.879395 0.909668
vt 0.879395 0.914062
vt 0.878418 0.909668
vt 0.879883 0.916992
vt 0.880859 0.945801
vt 0.881836 0.945801
vt 0.882812 0.946777
vt 0.880859 0.946777
vt 0.881836 0.946777
vt 0.882812 0.947754
vt 0.881836 0.947754
vt 0.882812 0.948242
vt 0.880859 0.947754
vt 0.881836 0.948242
vt 0.882812 0.94873
vt 0.883301 0.94873
vt 0.881836 0.94873
vt 0.880859 0.94873
vt 0.880859 0.948242
vt 0.879883 0.948242
vt 0.879883 0.94873
vt 0.879883 0.947754
vt 0.878906 0.948242
vt 0.878906 0.94873
vt 0.87793 0.94873
vt 0.87793 0.948242
vt 0.876953 0.94873
vt 0.878906 0.947754
vt 0.879883 0.946777
vt 0.878906 0.946777
vt 0.87793 0.947754
vt 0.879883 0.945801
vt 0.87793 0.946777
vt 0.876953 0.947754
vt 0.878906 0.916992
vt 0.878906 0.945801
vt 0.87793 0.916992
vt 0.87793 0.945801
vt 0.876953 0.945801
vt 0.878418 0.914062
vt 0.876953 0.916992
vt 0.877441 0.914062
vt 0.877441 0.909668
vt 0.875977 0.916992
vt 0.876953 0.914062
vt 0.876953 0.909668
vt 0.875977 0.909668
vt 0.875977 0.914062
vt 0.875488 0.909668
vt 0.875488 0.914062
vt 0.875 0.916992
vt 0.874023 0.916992
vt 0.874023 0.945801
vt 0.875977 0.945801
vt 0.875 0.945801
vt 0.874023 0.946777
vt 0.876953 0.946777
vt 0.875 0.946777
vt 0.875977 0.946777
vt 0.875 0.947754
vt 0.874023 0.947754
vt 0.875977 0.947754
vt 0.875977 0.948242
vt 0.875 0.948242
vt 0.874023 0.94873
vt 0.874023 0.948242
vt 0.875 0.94873
vt 0.875977 0.94873
vt 0.876953 0.948242
vt 0.960449 0.058258
vt 0.960449 0.05426
vt 0.961426 0.05426
vt 0.961426 0.058258
vt 0.962891 0.058258
vt 0.962891 0.05426
vt 0.963867 0.058258
vt 0.963867 0.05426
vt 0.964844 0.058258
vt 0.964844 0.05426
vt 0.966309 0.05426
vt 0.966309 0.058258
vt 0.967285 0.054504
vt 0.967285 0.058258
vt 0.96875 0.054504
vt 0.96875 0.058258
vt 0.969727 0.058258
vt 0.969727 0.054504
vt 0.96875 0.051636
vt 0.971191 0.051636
vt 0.971191 0.058258
vt 0.971191 0.054504
vt 0.972168 0.058258
vt 0.972168 0.054504
vt 0.886719 0.263428
vt 0.886719 0.259766
vt 0.885742 0.259766
vt 0.885742 0.263916
vt 0.888184 0.263428
vt 0.884277 0.259766
vt 0.884277 0.263916
vt 0.883301 0.263916
vt 0.883301 0.259766
vt 0.881836 0.263916
vt 0.881836 0.259766
vt 0.880859 0.263916
vt 0.880859 0.259766
vt 0.879395 0.259766
vt 0.879395 0.263916
vt 0.888184 0.259766
vt 0.88916 0.263672
vt 0.888184 0.266357
vt 0.890137 0.266357
vt 0.88916 0.259766
vt 0.890137 0.263428
vt 0.890137 0.259766
vt 0.891602 0.259766
vt 0.891602 0.263428
vt 0.888184 0.945801
vt 0.888184 0.946777
vt 0.887207 0.916992
vt 0.887207 0.947754
vt 0.887207 0.946777
vt 0.88623 0.916992
vt 0.884766 0.914062
vt 0.885254 0.914062
vt 0.884766 0.909668
vt 0.883789 0.90918
vt 0.882324 0.90918
vt 0.880859 0.90918
vt 0.879395 0.90918
vt 0.87793 0.90918
vt 0.876465 0.90918
vt 0.875 0.90918
vt 0.874512 0.909668
vt 0.874023 0.909668
vt 0.874023 0.90918
vt 0.874512 0.914062
vt 0.874023 0.914062
vt 0.873047 0.909668
vt 0.872559 0.909668
vt 0.872559 0.914062
vt 0.873047 0.914062
vt 0.870117 0.916992
vt 0.871094 0.916992
vt 0.870117 0.945801
vt 0.87207 0.916992
vt 0.871094 0.945801
vt 0.871094 0.946777
vt 0.870117 0.946777
vt 0.870117 0.947754
vt 0.873047 0.916992
vt 0.87207 0.945801
vt 0.873047 0.945801
vt 0.873047 0.946777
vt 0.87207 0.946777
vt 0.873047 0.947754
vt 0.87207 0.947754
vt 0.871094 0.947754
vt 0.87207 0.948242
vt 0.873047 0.948242
vt 0.873047 0.94873
vt 0.87207 0.94873
vt 0.871094 0.94873
vt 0.871094 0.948242
vt 0.870117 0.94873
vt 0.870117 0.948242
vt 0.874512 0.040436
vt 0.874512 0.035583
vt 0.350586 0.065308
vt 0.349365 0.065918
vt 0.349365 0.065308
vt 0.348145 0.065308
vt 0.347168 0.065918
vt 0.347168 0.065308
vt 0.345947 0.065308
vt 0.344727 0.065918
vt 0.344727 0.065308
vt 0.34375 0.065308
vt 0.342529 0.065918
vt 0.342529 0.065308
vt 0.341309 0.065308
vt 0.340332 0.065918
vt 0.340332 0.065308
vt 0.339111 0.065308
vt 0.337891 0.065918
vt 0.337891 0.065308
vt 0.33667 0.065918
vt 0.33667 0.065308
vt 0.334961 0.065308
vt 0.334961 0.065918
vt 0.329834 0.065308
vt 0.329834 0.065918
vt 0.328125 0.065918
vt 0.328125 0.065308
vt 0.326904 0.065308
vt 0.326904 0.065918
vt 0.325684 0.065308
vt 0.324707 0.065918
vt 0.324707 0.065308
vt 0.323486 0.065308
vt 0.322266 0.065918
vt 0.322266 0.065308
vt 0.321289 0.065308
vt 0.320068 0.065918
vt 0.320068 0.065308
vt 0.318848 0.065308
vt 0.317627 0.065918
vt 0.317871 0.065308
vt 0.31665 0.065308
vt 0.31543 0.065918
vt 0.31543 0.065308
vt 0.314209 0.065308
vt 0.446533 0.011719
vt 0.44873 0.011719
vt 0.44751 0.010986
vt 0.44873 0.010986
vt 0.446533 0.010986
vt 0.449707 0.011719
vt 0.445312 0.010986
vt 0.449707 0.010986
vt 0.444336 0.011719
vt 0.451172 0.010986
vt 0.444336 0.010986
vt 0.450928 0.011719
vt 0.443359 0.010986
vt 0.453369 0.010986
vt 0.442139 0.011719
vt 0.453369 0.011719
vt 0.442139 0.010986
vt 0.45459 0.011719
vt 0.441162 0.010986
vt 0.45459 0.010986
vt 0.440186 0.011719
vt 0.455811 0.011719
vt 0.440186 0.010986
vt 0.455811 0.010986
vt 0.438965 0.010986
vt 0.456787 0.010986
vt 0.437988 0.011719
vt 0.458008 0.011719
vt 0.437988 0.010986
vt 0.458008 0.010986
vt 0.436768 0.011719
vt 0.458984 0.010986
vt 0.436768 0.010986
vt 0.436035 0.011719
vt 0.435791 0.010986
vt 0.459961 0.011719
vt 0.459961 0.010986
vt 0.461182 0.010986
vt 0.462158 0.011719
vt 0.462158 0.010986
vt 0.463135 0.010986
vt 0.464355 0.011719
vt 0.464355 0.010986
vt 0.465332 0.010986
vt 0.466553 0.011719
vt 0.466309 0.010986
vt 0.467529 0.010986
vt 0.467529 0.011719
vt 0.46875 0.011719
vt 0.46875 0.010986
vt 0.469971 0.011719
vt 0.469971 0.010986
vt 0.471191 0.010986
vt 0.471191 0.011719
vt 0.472412 0.010986
vt 0.472168 0.011719
vt 0.473633 0.010986
vt 0.473633 0.011719
vt 0.475586 0.011719
vt 0.475586 0.010986
vt 0.477051 0.011719
vt 0.477051 0.010986
vt 0.477783 0.011719
vt 0.478027 0.010986
vt 0.79834 0.002991
vt 0.79541 0.002991
vt 0.79541 0.003601
vt 0.79834 0.003601
vt 0.799805 0.002991
vt 0.799805 0.003601
vt 0.80127 0.002991
vt 0.80127 0.003601
vt 0.806152 0.002991
vt 0.806152 0.003601
vt 0.807617 0.003601
vt 0.807617 0.002991
vt 0.809082 0.003601
vt 0.809082 0.002991
vt 0.812012 0.003601
vt 0.812012 0.002991
vt 0.705078 0.230347
vt 0.707031 0.223633
vt 0.70752 0.223633
vt 0.706055 0.230347
vt 0.708496 0.223633
vt 0.706543 0.230347
vt 0.705566 0.232178
vt 0.704102 0.233765
vt 0.703125 0.235107
vt 0.892578 0.262695
vt 0.892578 0.260498
vt 0.973633 0.055267
vt 0.973633 0.057404
vt 0.817383 0.008606
vt 0.822754 0.008606
vt 0.822266 0.007904
vt 0.817383 0.007904
vt 0.82373 0.007904
vt 0.82373 0.008606
vt 0.825195 0.007904
vt 0.825195 0.008606
vt 0.827148 0.008606
vt 0.827148 0.007904
vt 0.828613 0.008606
vt 0.828613 0.007904
vt 0.830078 0.007904
vt 0.830078 0.008606
vt 0.831055 0.007904
vt 0.832031 0.008606
vt 0.832031 0.007904
vt 0.833008 0.007904
vt 0.834473 0.008606
vt 0.834473 0.007904
vt 0.835449 0.007904
vt 0.836426 0.008606
vt 0.836426 0.007904
vt 0.837402 0.007904
vt 0.838379 0.008606
vt 0.838379 0.007904
vt 0.839844 0.007904
vt 0.84082 0.008606
vt 0.84082 0.007904
vt 0.841797 0.007904
vt 0.841797 0.008606
vt 0.843262 0.008606
vt 0.843262 0.007904
vn -0.3976 0.9175 0.0013
vn -0.6198 0.7847 -0.0014
vn -0.8011 0.5985 0.0014
vn -0.3945 0.9189 0.0013
vn -0.8034 0.5954 0.0014
vn -0.1505 0.9886 0.0011
vn -0.912 0.4101 0.0013
vn -0.1455 0.9894 -0.0011
vn 0.1161 0.9932 -0.0011
vn -0.9078 0.4195 -0.0013
vn -0.9692 0.2462 -0.0012
vn -0.4667 0.8844 -0.0013
vn -0.5141 0.8577 -0.0013
vn -0.3945 0.9189 -0.0013
vn -0.1505 0.9886 -0.0011
vn -0.7525 0.6586 -0.0014
vn -0.7181 0.696 -0.0014
vn -0.8034 0.5954 -0.0014
vn -0.912 0.4101 -0.0013
vn 0 -0.001 -1
vn -0.9307 0.3333 0.1507
vn 0 -0.001 1
vn -0.8184 0.5664 0.0971
vn -0.8061 0.5592 0.1935
vn -0.6351 0.7489 0.1891
vn -0.6379 0.7555 0.1493
vn -0.4234 0.9009 0.0958
vn 0.4936 0.6283 0.6014
vn -0.0942 0.8127 0.5751
vn -0.0196 0.1792 0.9836
vn -0.6252 0.4971 0.6016
vn -0.7418 0.5867 0.3248
vn -0.8127 -0.0911 0.5755
vn -0.7159 -0.3975 0.574
vn -0.1059 0.9395 0.3257
vn -0.832 -0.4645 0.3034
vn -0.7593 0.6021 0.2468
vn -0.9395 -0.1087 0.3248
vn -0.8492 -0.4733 0.2344
vn -0.9626 -0.1097 0.2477
vn -0.1126 0.9617 0.2498
vn -0.8692 -0.4831 0.1054
vn -0.9463 -0.3097 0.0923
vn -0.8723 -0.4848 0.0639
vn -0.9499 -0.3059 0.0645
vn -0.9922 0.0856 0.0902
vn -0.9945 0.0815 0.0659
vn -0.8861 0.4589 0.0648
vn -0.8885 0.4492 0.0937
vn -0.6457 0.7608 0.0647
vn -0.6366 0.7653 0.0951
vn -0.3094 0.9466 0.0908
vn -0.3062 0.9497 0.0659
vn 0.0856 0.9922 0.0902
vn 0.0815 0.9945 0.0659
vn 0.7847 0.6198 0.0014
vn 0.7559 0.5974 -0.2678
vn 0.2463 0.3643 -0.8981
vn 0.2433 0.3671 0.8978
vn 0.7559 0.5974 0.2678
vn 0.7847 0.6198 -0.0014
vn 0.0697 -0.0866 -0.9938
vn 0.056 -0.0951 -0.9939
vn 0.0674 -0.0888 -0.9938
vn 0.0787 -0.0776 -0.9939
vn -0.4382 0.5782 0.6882
vn -0.6026 0.7622 0.2363
vn -0.407 0.9071 0.107
vn -0.4628 0.5564 0.6901
vn -0.7733 0.6219 0.1232
vn -0.7774 0.6175 -0.1199
vn -0.9004 0.4352 -0.0013
vn -0.8973 0.4414 -0.0013
vn -0.6026 0.7622 -0.2363
vn -0.4628 0.5564 -0.6901
vn -0.4382 0.5782 -0.6882
vn -0.407 0.9071 -0.107
vn -0.1331 0.9911 -0.0011
vn -0.1282 0.9917 -0.0011
vn 0.1356 0.9908 -0.0011
vn 0.1307 0.9914 -0.0011
vn 0.876 0.4328 -0.2127
vn 0.8631 0.5049 -0.0094
vn 0.8605 0.5093 -0.0122
vn 0.8361 0.4078 -0.3669
vn 0.3699 0.9291 -0.0013
vn 0.5985 0.8011 -0.0014
vn 0.9189 0.3945 0.0013
vn 0.9894 0.1455 0.0011
vn 0.9932 -0.116 0
vn 0.9293 -0.3694 0
vn 0.8016 -0.5978 0
vn 0.6207 -0.7841 0
vn 0.4143 -0.9101 0
vn 0.4205 -0.9073 0
vn 0.2197 -0.9756 0
vn 0.2279 -0.9737 0
vn -0.3236 -0.0449 -0.9451
vn -0.3329 -0.0346 -0.9423
vn -0.9386 -0.0217 -0.3443
vn -0.9411 -0.0114 -0.3381
vn -0.9418 -0.0139 0.3358
vn -0.9394 -0.0242 0.3421
vn -0.3617 -0.0377 0.9315
vn -0.3368 -0.0479 0.9404
vn 0.3324 0.9236 0.1909
vn 0.336 0.941 0.0399
vn 0.0797 0.9771 0.1974
vn 0.0822 0.9957 0.0427
vn -0.1801 0.9828 0.0412
vn 0.0805 0.9965 -0.0204
vn 0.3367 0.9414 -0.0216
vn 0.3066 0.8583 -0.4114
vn 0.0719 0.9125 -0.4027
vn -0.1792 0.9836 -0.0196
vn -0.1653 0.8984 -0.4068
vn -0.4264 0.9043 -0.0198
vn 0.069 0.8517 0.5195
vn -0.1551 0.8463 0.5096
vn -0.1498 0.8292 0.5385
vn -0.3621 0.7616 0.5375
vn -0.3918 0.8264 -0.4045
vn -0.646 0.7632 -0.0181
vn 0.0665 0.8339 0.5479
vn 0.2859 0.7946 0.5355
vn 0.2768 0.7798 0.5615
vn -0.1812 0.9834 -0.0011
vn 0.0812 0.9967 -0.0011
vn -0.4289 0.9034 -0.0013
vn -0.3527 0.7492 0.5607
vn -0.545 0.6429 0.5382
vn -0.6468 0.7627 -0.0014
vn -0.8234 0.5675 -0.0014
vn -0.6813 0.4704 0.5608
vn -0.9417 0.3364 -0.0013
vn -0.794 0.2826 0.5383
vn -0.6939 0.4799 0.5368
vn -0.9967 0.0812 -0.0011
vn -0.8251 0.0667 0.561
vn -0.8281 -0.1499 0.5402
vn -0.9835 -0.181 0
vn -0.8425 0.0722 0.5338
vn -0.9036 -0.4284 0
vn -0.8128 0.2909 0.5047
vn -0.8474 -0.155 0.5078
vn -0.7538 -0.3558 0.5524
vn -0.8405 -0.5418 0
vn -0.6967 -0.4483 0.56
vn -0.7094 -0.4613 0.5329
vn -0.7713 -0.3646 0.5217
vn -0.8992 -0.1652 -0.4051
vn -0.8253 -0.392 -0.4063
vn -0.7715 -0.4997 -0.3939
vn -0.8408 -0.5409 -0.0192
vn -0.904 -0.4269 -0.0211
vn -0.9119 0.0747 -0.4036
vn -0.9836 -0.1794 -0.0208
vn -0.9031 -0.4275 0.0402
vn -0.8388 -0.543 0.0389
vn -0.8583 0.3066 -0.4114
vn -0.9965 0.0805 -0.0204
vn -0.8861 -0.4211 0.1937
vn -0.8249 -0.5333 0.1873
vn -0.9829 -0.1799 0.04
vn -0.9653 -0.1761 0.1931
vn -0.9005 -0.4238 0.0973
vn -0.8116 -0.5271 0.2519
vn -0.9728 -0.1765 0.1499
vn -0.9771 0.0797 0.1974
vn -0.9959 0.0798 0.0426
vn -0.9919 0.0812 0.0972
vn -0.9223 0.3358 0.1913
vn -0.9399 0.3391 0.04
vn -0.9414 0.3367 -0.0216
vn -0.8211 0.5693 0.0406
vn 0.6356 -0.7659 0.0967
vn 0.6448 -0.7614 0.0662
vn 0.8898 -0.4463 0.0951
vn 0.3113 -0.9458 0.0923
vn 0.3043 -0.9504 0.0645
vn 0.1111 -0.9624 0.248
vn 0.8875 -0.4561 0.0661
vn 0.7603 -0.6016 0.245
vn 0.1073 -0.9398 0.3244
vn 0.9923 -0.0833 0.0912
vn 0.9946 -0.0814 0.0647
vn 0.9497 0.3062 0.0659
vn 0.9622 0.1098 0.2493
vn 0.9466 0.3094 0.0908
vn 0.7608 0.6457 0.0647
vn 0.7401 -0.5898 0.3232
vn 0.0926 -0.8121 0.5761
vn 0.6267 -0.4936 0.6031
vn 0.0551 -0.4749 0.8783
vn 0.9395 0.1059 0.3257
vn 0.8127 0.0942 0.5751
vn 0.5867 0.7418 0.3248
vn 0.6021 0.7593 0.2468
vn 0.7653 0.6366 0.0951
vn 0.4458 0.8902 0.0936
vn 0.4556 0.8878 0.0647
vn 0.5592 0.8061 0.1935
vn 0.7528 0.6411 0.1493
vn 0.7489 0.6351 0.1891
vn 0.5664 0.8184 0.0971
vn 0.3333 0.9307 0.1507
vn 0.8867 0.4206 0.192
vn 0.8993 0.4267 0.0959
vn 0.9726 0.1767 0.1513
vn 0.0812 0.9919 0.0972
vn 0.5693 0.8211 0.0406
vn 0.7635 0.6445 0.0411
vn 0.5701 0.8213 -0.0207
vn 0.9028 0.4279 0.0416
vn 0.965 0.1789 0.1919
vn 0.9921 -0.0811 0.096
vn 0.9771 -0.0822 0.1964
vn 0.9311 -0.3329 0.1492
vn 0.9828 0.1801 0.0412
vn 0.9043 0.4264 -0.0198
vn 0.7632 0.646 -0.0181
vn 0.5233 0.7497 -0.4052
vn 0.8243 0.3955 -0.405
vn 0.6993 0.5935 -0.3984
vn 0.4859 0.703 0.5193
vn 0.6581 0.5571 0.5066
vn 0.4772 0.6848 0.5508
vn 0.7616 0.3621 0.5375
vn 0.6429 0.545 0.5382
vn 0.5706 0.8212 0.0014
vn 0.3394 0.9406 0.0013
vn 0.7627 0.6468 -0.0014
vn 0.9048 0.4257 0.0013
vn 0.7469 0.3564 0.5614
vn 0.8214 0.1471 0.5511
vn 0.9839 0.1786 0.0011
vn 0.839 0.1524 0.5223
vn 0.8318 -0.0696 0.5507
vn 0.9967 -0.0811 0
vn 0.9408 -0.339 0
vn 0.7952 -0.2824 0.5365
vn 0.8217 -0.57 0
vn 0.8507 -0.069 0.5211
vn 0.8984 0.1653 -0.4068
vn 0.9118 -0.0719 -0.4043
vn 0.8117 -0.291 0.5065
vn 0.9831 0.1818 -0.0197
vn 0.8574 -0.3069 -0.4133
vn 0.6954 -0.4798 0.535
vn 0.9958 -0.0821 0.0416
vn 0.9966 -0.0804 -0.0193
vn 0.9408 -0.3364 0.0412
vn 0.9404 -0.3393 -0.0203
vn 0.8218 -0.5695 -0.0193
vn 0.9232 -0.3327 0.1926
vn 0.8228 -0.5667 0.042
vn 0.8044 -0.5622 0.192
vn 0.8178 -0.567 0.0986
vn 0.6454 -0.7628 0.0396
vn 0.6362 -0.7484 0.1875
vn 0.6401 -0.7533 0.151
vn 0.4255 -0.8997 0.0973
vn 0.4228 -0.8853 0.1938
vn 0.1751 -0.9731 0.1497
vn 0.1776 -0.9649 0.1933
vn 0.4258 -0.9039 0.0402
vn 0.1812 -0.9826 0.04
vn 0.1807 -0.9833 -0.0208
vn 0.6481 -0.7613 -0.0196
vn 0.4285 -0.9033 -0.0212
vn 0.1611 -0.8959 -0.4141
vn 0.7509 -0.523 -0.4033
vn 0.3939 -0.8243 -0.4066
vn 0.595 -0.6991 -0.3966
vn 0.3664 -0.7702 0.5221
vn 0.1514 -0.8297 0.5373
vn 0.559 -0.655 0.5085
vn 0.5467 -0.6429 0.5366
vn 0.3574 -0.7555 0.5491
vn 0.1797 -0.9837 0
vn 0.1491 -0.8125 0.5635
vn 0.4268 -0.9043 0
vn 0.6476 -0.762 0
vn 0.6798 -0.4705 0.5626
vn 0.3699 0.9291 0.0013
vn 0.5985 0.8011 0.0014
vn 0.9948 -0.1018 0
vn 0.9938 -0.1113 0
vn 0.9352 -0.3542 0
vn 0.7695 -0.6042 0.2071
vn 0.5676 -0.73 0.3806
vn 0.4473 -0.5758 0.6843
vn 0.426 -0.5941 0.6823
vn 0.3956 -0.9184 0
vn 0.4113 -0.8887 0.2027
vn 0.1981 -0.9802 0
vn 0.7695 -0.6042 -0.2071
vn 0.5676 -0.73 -0.3806
vn 0.4473 -0.5758 -0.6843
vn 0.426 -0.5941 -0.6823
vn 0.4113 -0.8887 -0.2027
vn -0.8213 0.5701 -0.0207
vn -0.7497 0.5233 -0.4052
vn -0.6476 0.7609 0.0411
vn -0.5571 0.6581 0.5066
vn -0.5935 0.6993 -0.3984
vn -0.4279 0.9028 0.0416
vn -0.1759 0.9656 0.1916
vn -0.4206 0.8867 0.192
vn -0.1796 0.972 0.1516
vn -0.0799 -0.9922 0.0959
vn -0.3346 -0.9305 0.1493
vn -0.0783 -0.9775 0.1957
vn -0.3344 -0.9225 0.1927
vn -0.5686 -0.8167 0.0986
vn -0.6695 -0.7418 0.0397
vn -0.6579 -0.7302 0.1845
vn -0.5605 -0.8056 0.1919
vn -0.6724 -0.7391 0.0397
vn -0.5683 -0.8217 0.042
vn -0.6718 -0.7404 -0.0196
vn -0.3379 -0.9403 0.0413
vn -0.5679 -0.8229 -0.0193
vn -0.5212 -0.7522 -0.4032
vn -0.6152 -0.683 -0.3936
vn -0.5674 -0.6299 0.5303
vn -0.0809 -0.9959 0.0415
vn -0.3378 -0.941 -0.0203
vn -0.0815 -0.9965 -0.0193
vn -0.079 -0.9116 -0.4034
vn -0.311 -0.8606 -0.4033
vn -0.0734 -0.8513 0.5195
vn -0.2892 -0.8126 0.5061
vn -0.4842 -0.703 0.521
vn -0.2842 -0.7943 0.5369
vn -0.071 -0.8334 0.548
vn -0.0823 -0.9966 0
vn -0.3375 -0.9413 0
vn -0.5684 -0.8227 0
vn -0.4715 -0.6906 0.5484
vn -0.671 -0.7414 0
vn -0.5547 -0.6172 0.558
vn 0.0139 -0.9999 0
vn -0.2036 0.137 -0.9694
vn -0.1322 0.054 -0.9897
vn -0.1583 0.0194 -0.9872
vn -0.1702 -0.0731 -0.9827
vn -0.2169 -0.0703 -0.9737
vn -0.6507 -0.0953 -0.7533
vn -0.6445 -0.0952 -0.7587
vn -0.986 -0.0218 -0.1651
vn -0.9868 -0.0148 -0.1614
vn -0.986 -0.0218 0.1651
vn -0.9868 -0.0148 0.1614
vn -0.6526 -0.0922 0.7521
vn -0.6463 -0.0921 0.7575
vn -0.2169 -0.0703 0.9737
vn -0.1725 -0.0707 0.9825
vn -0.1322 0.054 0.9897
vn -0.1583 0.0194 0.9872
vn -0.2036 0.137 0.9694
vn -0.1162 -0.3282 -0.9374
vn -0.1245 -0.3207 -0.939
vn -0.2421 -0.918 -0.3142
vn -0.2346 -0.9226 -0.3061
vn -0.2421 -0.918 0.3142
vn -0.2346 -0.9226 0.3061
vn -0.1229 -0.3428 0.9313
vn -0.1341 -0.3326 0.9335
vn -0.0156 -0.135 -0.9907
vn -0.0347 -0.1632 -0.986
vn -0.0572 -0.18 -0.982
vn -0.0639 -0.1621 -0.9847
vn -0.3236 -0.0449 0.9451
vn -0.3329 -0.0346 0.9423
vn -0.3617 -0.0377 -0.9315
vn -0.3368 -0.0479 -0.9404
vn -0.7405 -0.6255 -0.2458
vn -0.7853 -0.6192 0
vn -0.4917 -0.5235 -0.6958
vn -0.2517 -0.5932 -0.7647
vn -0.2317 -0.6215 -0.7483
vn -0.2484 -0.9516 -0.1809
vn -0.2415 -0.9541 -0.1771
vn -0.2484 -0.9516 0.1809
vn -0.2415 -0.9541 0.1771
vn -0.2317 -0.6215 0.7483
vn -0.2517 -0.5932 0.7647
vn -0.4917 -0.5235 0.6958
vn -0.7405 -0.6255 0.2458
vn -0.0845 -0.9922 0.0913
vn -0.0802 -0.9947 0.0646
vn -0.4578 -0.8866 0.0662
vn -0.448 -0.889 0.0952
vn -0.6186 -0.7832 0.063
vn -0.6198 -0.7806 0.0811
vn -0.2981 -0.9271 0.2272
vn -0.2635 -0.9165 0.3011
vn -0.2264 -0.7893 0.5707
vn -0.6909 -0.7229 -0.0111
vn -0.6112 -0.7514 -0.2489
vn -0.6238 -0.7526 -0.211
vn -0.6965 -0.7174 -0.0111
vn -0.1313 -0.3352 -0.933
vn -0.1201 -0.3453 -0.9308
vn -0.1189 -0.3257 0.938
vn -0.1272 -0.3181 0.9395
vn -0.0269 -0.1265 0.9916
vn -0.0182 -0.1607 0.9868
vn -0.052 -0.1738 0.9834
vn -0.0753 -0.1883 0.9792
o bullet11__p0_c0
f 1/1/1 2/2/2 3/3/2
f 3/3/2 2/2/2 4/4/3
f 2/2/2 1/1/1 5/5/4
f 4/4/3 2/2/2 6/6/5
f 5/5/4 1/1/1 7/7/6
f 4/4/3 6/6/5 8/8/7
f 5/5/4 7/7/6 9/9/8
f 9/9/8 7/7/6 10/10/9
f 10/10/9 7/7/6 11/11/9
f 8/8/7 6/6/5 12/12/10
f 8/8/7 12/12/10 13/13/11
f 13/13/11 12/12/10 14/14/11
f 15/15/2 16/16/12 17/17/13
f 16/16/12 15/15/2 18/18/2
f 16/16/12 18/18/2 19/19/14
f 16/16/12 19/19/14 20/20/15
f 18/18/2 15/15/2 21/21/16
f 21/21/16 15/15/2 22/22/17
f 18/18/2 21/21/16 23/23/18
f 20/20/15 19/19/14 24/24/8
f 20/20/15 24/24/8 25/25/9
f 25/25/9 24/24/8 26/26/9
f 23/23/18 21/21/16 27/27/19
f 23/23/18 27/27/19 28/28/10
f 28/28/10 27/27/19 29/29/11
f 28/28/10 29/29/11 30/30/11
f 31/31/20 32/32/20 33/33/20
f 32/32/20 31/31/20 34/34/20
f 34/34/20 31/31/20 35/35/20
f 34/34/20 35/35/20 36/36/20
f 34/34/20 36/36/20 37/37/20
f 37/37/20 36/36/20 38/38/20
f 37/37/20 38/38/20 39/39/20
f 39/39/20 38/38/20 40/40/20
f 40/40/20 38/38/20 41/41/20
f 40/40/20 41/41/20 42/42/20
f 42/42/20 41/41/20 43/43/20
f 42/42/20 43/43/20 44/44/20
f 42/42/20 44/44/20 45/45/20
f 45/45/20 44/44/20 46/46/20
f 45/45/20 46/46/20 47/47/20
f 47/47/20 46/46/20 48/48/20
f 47/47/20 48/48/20 49/49/20
f 49/49/20 48/48/20 50/50/20
f 50/50/20 48/48/20 51/51/20
f 50/50/20 51/51/20 52/52/20
f 50/50/20 52/52/20 53/53/20
f 53/53/20 52/52/20 54/54/20
f 55/55/21 56/56/22 57/57/23
f 55/55/21 57/57/23 58/58/24
f 58/58/24 57/57/23 59/59/25
f 57/57/23 56/56/22 60/60/26
f 57/57/23 60/60/26 59/59/25
f 60/60/26 56/56/22 61/61/22
f 59/59/25 60/60/26 62/62/27
f 62/62/27 60/60/26 61/61/22
f 63/63/28 64/64/29 65/65/30
f 65/65/30 64/64/29 66/66/31
f 66/66/31 64/64/29 67/67/32
f 65/65/30 66/66/31 68/68/33
f 68/68/33 66/66/31 67/67/32
f 65/65/30 68/68/33 69/69/34
f 67/67/32 64/64/29 70/70/35
f 69/69/34 68/68/33 71/71/36
f 67/67/32 70/70/35 72/72/37
f 71/71/36 68/68/33 73/73/38
f 73/73/38 68/68/33 67/67/32
f 73/73/38 67/67/32 72/72/37
f 71/71/36 73/73/38 74/74/39
f 74/74/39 73/73/38 75/75/40
f 75/75/40 73/73/38 72/72/37
f 72/72/37 70/70/35 76/76/41
f 74/74/39 75/75/40 77/77/42
f 77/77/42 75/75/40 78/78/43
f 77/77/42 78/78/43 79/79/44
f 79/79/44 78/78/43 80/80/45
f 80/80/45 78/78/43 81/81/46
f 81/81/46 78/78/43 75/75/40
f 80/80/45 81/81/46 82/82/47
f 82/82/47 81/81/46 83/83/48
f 81/81/46 75/75/40 84/84/49
f 81/81/46 84/84/49 83/83/48
f 84/84/49 75/75/40 72/72/37
f 83/83/48 84/84/49 85/85/50
f 84/84/49 72/72/37 86/86/51
f 84/84/49 86/86/51 85/85/50
f 86/86/51 72/72/37 76/76/41
f 85/85/50 86/86/51 87/87/52
f 87/87/52 86/86/51 76/76/41
f 85/85/50 87/87/52 88/88/53
f 87/87/52 76/76/41 89/89/54
f 87/87/52 89/89/54 88/88/53
f 88/88/53 89/89/54 90/90/55
f 91/91/56 92/92/57 93/93/56
f 93/93/56 92/92/57 94/94/58
f 95/95/59 96/96/60 97/97/61
f 97/97/61 96/96/60 98/98/61
f 15/99/62 17/100/63 99/101/64
f 99/101/64 17/100/63 100/102/63
f 15/99/62 99/101/64 22/103/65
f 22/103/65 99/101/64 101/104/65
f 91/105/66 102/106/67 92/107/68
f 102/106/67 91/105/66 103/108/69
f 102/106/67 103/108/69 104/109/70
f 102/106/67 104/109/70 105/110/71
f 105/110/71 104/109/70 106/111/72
f 106/111/72 104/109/70 107/112/73
f 106/111/72 107/112/73 108/113/11
f 108/113/11 107/112/73 109/114/11
f 102/106/67 105/110/71 110/115/74
f 102/106/67 110/115/74 92/107/68
f 110/115/74 105/110/71 111/116/75
f 110/115/74 111/116/75 98/117/76
f 110/115/74 98/117/76 96/118/77
f 110/115/74 96/118/77 92/107/68
f 92/107/68 96/118/77 112/119/78
f 112/119/78 96/118/77 113/120/79
f 112/119/78 113/120/79 114/121/80
f 114/121/80 113/120/79 115/122/81
f 16/123/82 100/124/83 17/125/84
f 100/124/83 16/123/82 116/126/85
f 114/121/80 115/122/81 117/127/86
f 114/121/80 117/127/86 118/128/86
f 118/128/86 117/127/86 119/129/87
f 118/128/86 119/129/87 120/130/87
f 120/130/87 119/129/87 121/131/56
f 120/130/87 121/131/56 122/132/56
f 122/132/56 121/131/56 123/133/88
f 122/132/56 123/133/88 124/134/88
f 124/134/88 123/133/88 125/135/89
f 125/135/89 123/133/88 126/136/89
f 125/135/89 126/136/89 127/137/90
f 127/137/90 126/136/89 128/138/90
f 127/137/90 128/138/90 129/139/91
f 127/137/90 129/139/91 130/140/91
f 130/140/91 129/139/91 131/141/92
f 130/140/91 131/141/92 132/142/92
f 132/142/92 131/141/92 133/143/93
f 132/142/92 133/143/93 134/144/93
f 134/144/93 133/143/93 135/145/94
f 134/144/93 135/145/94 136/146/95
f 136/146/95 135/145/94 137/147/96
f 136/146/95 137/147/96 138/148/97
f 116/126/85 16/123/82 20/149/20
f 116/126/85 20/149/20 139/150/20
f 139/150/20 20/149/20 25/151/20
f 139/150/20 25/151/20 140/152/20
f 139/150/20 140/152/20 141/153/20
f 141/153/20 140/152/20 142/154/20
f 141/153/20 142/154/20 143/155/20
f 141/153/20 143/155/20 144/156/20
f 144/156/20 143/155/20 145/157/20
f 144/156/20 145/157/20 146/158/20
f 144/156/20 146/158/20 147/159/20
f 147/159/20 146/158/20 148/160/20
f 147/159/20 148/160/20 149/161/20
f 147/159/20 149/161/20 150/162/20
f 150/162/20 149/161/20 151/163/20
f 150/162/20 151/163/20 152/164/20
f 150/162/20 152/164/20 153/165/20
f 153/165/20 152/164/20 154/166/20
f 153/165/20 154/166/20 155/167/98
f 153/165/20 155/167/98 156/168/99
f 156/168/99 155/167/98 157/169/100
f 156/168/99 157/169/100 158/170/101
f 158/170/101 157/169/100 159/171/102
f 159/171/102 157/169/100 160/172/103
f 159/171/102 160/172/103 161/173/104
f 161/173/104 160/172/103 162/174/105
f 161/173/104 162/174/105 103/175/22
f 103/175/22 162/174/105 163/176/22
f 164/177/106 165/178/107 166/179/108
f 166/179/108 165/178/107 167/180/109
f 166/179/108 167/180/109 168/181/110
f 168/181/110 167/180/109 169/182/111
f 170/183/112 171/184/113 169/182/111
f 169/182/111 171/184/113 172/185/114
f 169/182/111 172/185/114 173/186/115
f 169/182/111 173/186/115 168/181/110
f 173/186/115 172/185/114 174/187/116
f 168/181/110 173/186/115 175/188/117
f 175/188/117 173/186/115 174/187/116
f 174/187/116 172/185/114 176/189/118
f 174/187/116 176/189/118 177/190/119
f 177/190/119 176/189/118 178/191/120
f 174/187/116 177/190/119 179/192/121
f 179/192/121 177/190/119 178/191/120
f 175/188/117 174/187/116 180/193/122
f 180/193/122 174/187/116 179/192/121
f 175/188/117 180/193/122 181/194/123
f 178/191/120 176/189/118 182/195/124
f 182/195/124 176/189/118 183/196/125
f 182/195/124 183/196/125 184/197/126
f 178/191/120 182/195/124 50/198/127
f 50/198/127 182/195/124 49/199/128
f 178/191/120 50/198/127 53/200/129
f 178/191/120 53/200/129 185/201/130
f 178/191/120 185/201/130 179/192/121
f 185/201/130 53/200/129 186/202/131
f 185/201/130 186/202/131 179/192/121
f 186/202/131 53/200/129 54/203/132
f 186/202/131 54/203/132 52/204/133
f 186/202/131 52/204/133 187/205/134
f 187/205/134 52/204/133 51/206/135
f 187/205/134 51/206/135 188/207/136
f 186/202/131 187/205/134 189/208/137
f 189/208/137 187/205/134 188/207/136
f 188/207/136 51/206/135 48/209/138
f 188/207/136 48/209/138 190/210/139
f 190/210/139 48/209/138 191/211/140
f 191/211/140 48/209/138 46/212/141
f 188/207/136 190/210/139 192/213/142
f 192/213/142 190/210/139 191/211/140
f 191/211/140 46/212/141 44/214/143
f 188/207/136 192/213/142 193/215/144
f 188/207/136 193/215/144 189/208/137
f 192/213/142 191/211/140 194/216/145
f 191/211/140 44/214/143 195/217/146
f 195/217/146 44/214/143 43/218/147
f 195/217/146 43/218/147 196/219/148
f 195/217/146 196/219/148 197/220/149
f 191/211/140 195/217/146 198/221/150
f 191/211/140 198/221/150 194/216/145
f 198/221/150 195/217/146 197/220/149
f 192/213/142 194/216/145 199/222/151
f 199/222/151 194/216/145 198/221/150
f 198/221/150 197/220/149 200/223/152
f 198/221/150 200/223/152 199/222/151
f 200/223/152 197/220/149 201/224/153
f 200/223/152 201/224/153 202/225/154
f 199/222/151 200/223/152 203/226/155
f 203/226/155 200/223/152 202/225/154
f 192/213/142 199/222/151 204/227/156
f 192/213/142 204/227/156 193/215/144
f 199/222/151 203/226/155 205/228/157
f 199/222/151 205/228/157 204/227/156
f 203/226/155 202/225/154 206/229/158
f 203/226/155 206/229/158 205/228/157
f 206/229/158 202/225/154 207/230/159
f 193/215/144 204/227/156 208/231/160
f 193/215/144 208/231/160 189/208/137
f 204/227/156 205/228/157 209/232/161
f 204/227/156 209/232/161 208/231/160
f 206/229/158 207/230/159 210/233/162
f 210/233/162 207/230/159 211/234/163
f 212/235/164 205/228/157 206/229/158
f 206/229/158 210/233/162 213/236/165
f 206/229/158 213/236/165 212/235/164
f 210/233/162 211/234/163 214/237/166
f 214/237/166 211/234/163 215/238/167
f 213/236/165 210/233/162 216/239/168
f 216/239/168 210/233/162 214/237/166
f 214/237/166 215/238/167 217/240/22
f 214/237/166 217/240/22 216/239/168
f 217/240/22 215/238/167 218/241/22
f 216/239/168 217/240/22 219/242/22
f 220/243/169 212/235/164 213/236/165
f 220/243/169 213/236/165 216/239/168
f 221/244/170 205/228/157 212/235/164
f 221/244/170 212/235/164 220/243/169
f 205/228/157 221/244/170 209/232/161
f 216/239/168 219/242/22 222/245/171
f 216/239/168 222/245/171 220/243/169
f 222/245/171 219/242/22 55/55/21
f 55/55/21 219/242/22 56/56/22
f 220/243/169 222/245/171 223/246/172
f 223/246/172 222/245/171 55/55/21
f 221/244/170 220/243/169 224/247/173
f 224/247/173 220/243/169 223/246/172
f 225/248/174 209/232/161 221/244/170
f 225/248/174 221/244/170 224/247/173
f 209/232/161 225/248/174 208/231/160
f 224/247/173 223/246/172 226/249/175
f 224/247/173 226/249/175 225/248/174
f 223/246/172 55/55/21 58/58/24
f 223/246/172 58/58/24 226/249/175
f 227/250/176 228/251/177 229/252/178
f 228/251/177 227/250/176 230/253/179
f 228/251/177 230/253/179 231/254/180
f 230/253/179 227/250/176 232/255/181
f 229/252/178 228/251/177 233/256/182
f 232/255/181 227/250/176 234/257/183
f 234/257/183 227/250/176 229/252/178
f 232/255/181 234/257/183 235/258/184
f 229/252/178 233/256/182 236/259/185
f 236/259/185 233/256/182 237/260/186
f 236/259/185 237/260/186 238/261/187
f 229/252/178 236/259/185 239/262/188
f 229/252/178 239/262/188 234/257/183
f 236/259/185 238/261/187 240/263/189
f 236/259/185 240/263/189 239/262/188
f 240/263/189 238/261/187 241/264/190
f 242/265/191 235/258/184 234/257/183
f 235/258/184 242/265/191 243/266/192
f 243/266/192 242/265/191 244/267/193
f 243/266/192 244/267/193 65/268/194
f 242/265/191 234/257/183 245/269/195
f 245/269/195 234/257/183 239/262/188
f 244/267/193 242/265/191 246/270/196
f 246/270/196 242/265/191 245/269/195
f 244/267/193 246/270/196 65/65/30
f 65/65/30 246/270/196 63/63/28
f 63/63/28 246/270/196 247/271/197
f 247/271/197 246/270/196 245/269/195
f 63/63/28 247/271/197 64/64/29
f 64/64/29 247/271/197 70/70/35
f 247/271/197 245/269/195 248/272/198
f 247/271/197 248/272/198 70/70/35
f 248/272/198 245/269/195 239/262/188
f 70/70/35 248/272/198 76/76/41
f 248/272/198 239/262/188 249/273/199
f 249/273/199 239/262/188 240/263/189
f 249/273/199 240/263/189 241/264/190
f 248/272/198 249/273/199 250/274/200
f 248/272/198 250/274/200 76/76/41
f 250/274/200 249/273/199 241/264/190
f 76/76/41 250/274/200 89/89/54
f 250/274/200 241/264/190 251/275/201
f 250/274/200 251/275/201 89/89/54
f 89/89/54 251/275/201 90/90/55
f 252/276/202 253/277/203 254/278/204
f 253/277/203 252/276/202 255/279/205
f 255/279/205 252/276/202 256/280/206
f 254/278/204 253/277/203 257/281/207
f 257/281/207 253/277/203 258/282/208
f 257/281/207 258/282/208 259/283/209
f 256/280/206 252/276/202 164/177/106
f 256/280/206 164/177/106 260/284/210
f 260/284/210 164/177/106 166/179/108
f 164/177/106 252/276/202 261/285/211
f 164/177/106 261/285/211 165/178/107
f 262/286/212 252/276/202 254/278/204
f 262/286/212 254/278/204 257/281/207
f 252/276/202 262/286/212 261/285/211
f 165/178/107 261/285/211 170/183/112
f 165/178/107 170/183/112 167/180/109
f 167/180/109 170/183/112 169/182/111
f 170/183/112 261/285/211 263/287/213
f 263/287/213 261/285/211 262/286/212
f 170/183/112 263/287/213 171/184/113
f 262/286/212 257/281/207 264/288/214
f 264/288/214 257/281/207 265/289/215
f 265/289/215 257/281/207 259/283/209
f 265/289/215 259/283/209 266/290/216
f 265/289/215 266/290/216 267/291/217
f 267/291/217 266/290/216 268/292/218
f 264/288/214 265/289/215 269/293/219
f 269/293/219 265/289/215 267/291/217
f 262/286/212 264/288/214 270/294/220
f 270/294/220 264/288/214 269/293/219
f 271/295/221 263/287/213 262/286/212
f 271/295/221 262/286/212 270/294/220
f 263/287/213 271/295/221 272/296/222
f 263/287/213 272/296/222 171/184/113
f 271/295/221 270/294/220 273/297/223
f 272/296/222 271/295/221 274/298/224
f 274/298/224 271/295/221 273/297/223
f 171/184/113 272/296/222 275/299/225
f 275/299/225 272/296/222 274/298/224
f 275/299/225 274/298/224 276/300/226
f 171/184/113 275/299/225 183/196/125
f 171/184/113 183/196/125 172/185/114
f 172/185/114 183/196/125 176/189/118
f 183/196/125 275/299/225 277/301/227
f 183/196/125 277/301/227 184/197/126
f 276/300/226 274/298/224 278/302/228
f 278/302/228 274/298/224 273/297/223
f 275/299/225 276/300/226 279/303/229
f 275/299/225 279/303/229 277/301/227
f 279/303/229 276/300/226 278/302/228
f 184/197/126 277/301/227 45/304/230
f 45/304/230 277/301/227 279/303/229
f 184/197/126 45/304/230 47/305/231
f 184/197/126 47/305/231 182/195/124
f 182/195/124 47/305/231 49/199/128
f 45/304/230 279/303/229 42/306/232
f 42/306/232 279/303/229 40/307/233
f 40/307/233 279/303/229 280/308/234
f 280/308/234 279/303/229 278/302/228
f 40/307/233 280/308/234 281/309/235
f 281/309/235 280/308/234 278/302/228
f 40/307/233 281/309/235 39/310/236
f 281/309/235 278/302/228 282/311/237
f 39/310/236 281/309/235 283/312/238
f 283/312/238 281/309/235 282/311/237
f 39/310/236 283/312/238 37/313/239
f 37/313/239 283/312/238 34/314/240
f 282/311/237 278/302/228 273/297/223
f 34/314/240 283/312/238 284/315/241
f 34/314/240 284/315/241 32/316/242
f 283/312/238 282/311/237 285/317/243
f 283/312/238 285/317/243 284/315/241
f 282/311/237 273/297/223 286/318/244
f 286/318/244 273/297/223 270/294/220
f 285/317/243 282/311/237 287/319/245
f 287/319/245 282/311/237 286/318/244
f 284/315/241 285/317/243 288/320/246
f 286/318/244 270/294/220 289/321/247
f 286/318/244 289/321/247 287/319/245
f 289/321/247 270/294/220 269/293/219
f 288/320/246 285/317/243 290/322/248
f 290/322/248 285/317/243 287/319/245
f 284/315/241 288/320/246 291/323/249
f 291/323/249 288/320/246 290/322/248
f 289/321/247 269/293/219 292/324/250
f 292/324/250 269/293/219 267/291/217
f 293/325/251 287/319/245 289/321/247
f 293/325/251 289/321/247 292/324/250
f 287/319/245 293/325/251 290/322/248
f 292/324/250 267/291/217 294/326/252
f 292/324/250 294/326/252 293/325/251
f 290/322/248 293/325/251 295/327/253
f 295/327/253 293/325/251 294/326/252
f 290/322/248 295/327/253 296/328/254
f 296/328/254 295/327/253 294/326/252
f 294/326/252 267/291/217 297/329/255
f 297/329/255 267/291/217 268/292/218
f 294/326/252 297/329/255 298/330/256
f 294/326/252 298/330/256 296/328/254
f 297/329/255 268/292/218 299/331/257
f 297/329/255 299/331/257 298/330/256
f 299/331/257 268/292/218 300/332/258
f 296/328/254 298/330/256 301/333/259
f 301/333/259 298/330/256 299/331/257
f 299/331/257 300/332/258 302/334/260
f 299/331/257 302/334/260 301/333/259
f 302/334/260 300/332/258 303/335/261
f 302/334/260 303/335/261 304/336/262
f 302/334/260 304/336/262 305/337/263
f 302/334/260 305/337/263 301/333/259
f 305/337/263 304/336/262 306/338/264
f 305/337/263 306/338/264 307/339/265
f 305/337/263 307/339/265 308/340/266
f 305/337/263 308/340/266 301/333/259
f 308/340/266 307/339/265 309/341/267
f 308/340/266 309/341/267 310/342/268
f 301/333/259 308/340/266 311/343/269
f 301/333/259 311/343/269 296/328/254
f 308/340/266 310/342/268 312/344/270
f 308/340/266 312/344/270 311/343/269
f 312/344/270 310/342/268 313/345/271
f 296/328/254 311/343/269 314/346/272
f 296/328/254 314/346/272 290/322/248
f 311/343/269 312/344/270 315/347/273
f 315/347/273 312/344/270 313/345/271
f 314/346/272 311/343/269 316/348/274
f 316/348/274 311/343/269 315/347/273
f 290/322/248 314/346/272 291/323/249
f 291/323/249 314/346/272 316/348/274
f 315/347/273 313/345/271 317/349/275
f 317/349/275 313/345/271 318/350/276
f 316/348/274 315/347/273 319/351/277
f 319/351/277 315/347/273 317/349/275
f 316/348/274 319/351/277 291/323/249
f 319/351/277 317/349/275 320/352/278
f 319/351/277 320/352/278 291/323/249
f 320/352/278 317/349/275 321/353/279
f 35/354/280 321/353/279 322/355/281
f 321/353/279 35/354/280 31/356/282
f 321/353/279 31/356/282 33/357/283
f 321/353/279 33/357/283 320/352/278
f 291/323/249 320/352/278 323/358/284
f 323/358/284 320/352/278 33/357/283
f 291/323/249 323/358/284 284/315/241
f 323/358/284 33/357/283 32/316/242
f 323/358/284 32/316/242 284/315/241
f 10/10/9 11/11/9 324/359/86
f 10/10/9 324/359/86 325/360/285
f 325/360/285 324/359/86 326/361/286
f 326/361/286 324/359/86 327/362/87
f 326/361/286 327/362/87 328/363/56
f 326/361/286 328/363/56 329/364/56
f 329/364/56 328/363/56 330/365/88
f 329/364/56 330/365/88 331/366/88
f 331/366/88 330/365/88 332/367/89
f 331/366/88 332/367/89 333/368/89
f 333/368/89 332/367/89 334/369/287
f 334/369/287 332/367/89 335/370/288
f 334/369/287 335/370/288 336/371/289
f 336/371/289 335/370/288 337/372/91
f 336/371/289 337/372/91 97/373/290
f 97/373/290 337/372/91 338/374/92
f 97/373/290 338/374/92 339/375/93
f 97/373/290 339/375/93 340/376/291
f 97/373/290 340/376/291 95/377/292
f 95/377/292 340/376/291 341/378/293
f 340/376/291 339/375/93 342/379/294
f 341/378/293 340/376/291 343/380/295
f 343/380/295 340/376/291 342/379/294
f 343/380/295 342/379/294 344/381/296
f 343/380/295 344/381/296 345/382/280
f 346/383/289 149/384/91 148/385/288
f 346/383/289 148/385/288 347/386/287
f 149/384/91 346/383/289 93/387/297
f 347/386/287 148/385/288 146/388/89
f 347/386/287 146/388/89 348/389/89
f 348/389/89 146/388/89 349/390/88
f 349/390/88 146/388/89 145/391/88
f 349/390/88 145/391/88 350/392/56
f 350/392/56 145/391/88 143/393/61
f 350/392/56 143/393/61 351/394/87
f 351/394/87 143/393/61 142/395/286
f 351/394/87 142/395/286 140/396/285
f 351/394/87 140/396/285 352/397/86
f 352/397/86 140/396/285 25/25/9
f 352/397/86 25/25/9 26/26/9
f 151/398/92 149/384/91 93/387/297
f 151/398/92 93/387/297 353/399/298
f 353/399/298 93/387/297 94/400/299
f 353/399/298 94/400/299 354/401/300
f 151/398/92 353/399/298 152/402/93
f 353/399/298 354/401/300 163/403/301
f 353/399/298 163/403/301 152/402/93
f 152/402/93 163/403/301 154/404/294
f 154/404/294 163/403/301 155/405/296
f 155/405/296 163/403/301 162/406/280
f 355/407/302 208/231/160 225/248/174
f 355/407/302 225/248/174 226/249/175
f 208/231/160 355/407/302 356/408/303
f 208/231/160 356/408/303 189/208/137
f 355/407/302 226/249/175 181/194/123
f 355/407/302 181/194/123 356/408/303
f 357/409/304 226/249/175 58/58/24
f 226/249/175 357/409/304 181/194/123
f 189/208/137 356/408/303 358/410/305
f 189/208/137 358/410/305 186/202/131
f 186/202/131 358/410/305 179/192/121
f 358/410/305 356/408/303 359/411/306
f 358/410/305 359/411/306 179/192/121
f 359/411/306 356/408/303 181/194/123
f 179/192/121 359/411/306 180/193/122
f 180/193/122 359/411/306 181/194/123
f 181/194/123 357/409/304 175/188/117
f 175/188/117 357/409/304 360/412/307
f 175/188/117 360/412/307 168/181/110
f 168/181/110 360/412/307 361/413/308
f 168/181/110 361/413/308 166/179/108
f 360/412/307 357/409/304 362/414/309
f 360/412/307 362/414/309 361/413/308
f 362/414/309 357/409/304 59/59/25
f 59/59/25 357/409/304 58/58/24
f 361/413/308 362/414/309 62/62/27
f 62/62/27 362/414/309 59/59/25
f 166/179/108 361/413/308 363/415/310
f 363/415/310 361/413/308 62/62/27
f 166/179/108 363/415/310 260/284/210
f 260/284/210 363/415/310 364/416/22
f 260/284/210 364/416/22 256/280/206
f 364/416/22 363/415/310 61/61/22
f 61/61/22 363/415/310 62/62/27
f 256/280/206 364/416/22 365/417/22
f 256/280/206 365/417/22 255/279/205
f 255/279/205 365/417/22 253/277/203
f 253/277/203 365/417/22 366/418/22
f 253/277/203 366/418/22 258/282/208
f 258/282/208 366/418/22 259/283/209
f 259/283/209 366/418/22 367/419/22
f 259/283/209 367/419/22 266/290/216
f 266/290/216 367/419/22 268/292/218
f 268/292/218 367/419/22 368/420/22
f 268/292/218 368/420/22 300/332/258
f 300/332/258 368/420/22 303/335/261
f 303/335/261 368/420/22 369/421/22
f 303/335/261 369/421/22 304/336/262
f 304/336/262 369/421/22 306/338/264
f 306/338/264 369/421/22 370/422/22
f 306/338/264 370/422/22 371/423/311
f 306/338/264 371/423/311 307/339/265
f 371/423/311 370/422/22 372/424/312
f 372/424/312 370/422/22 218/425/22
f 307/339/265 371/423/311 373/426/313
f 307/339/265 373/426/313 309/341/267
f 371/423/311 372/424/312 374/427/314
f 371/423/311 374/427/314 373/426/313
f 372/424/312 218/425/22 375/428/315
f 375/428/315 218/425/22 215/429/316
f 375/428/315 215/429/316 211/430/317
f 372/424/312 375/428/315 376/431/318
f 376/431/318 375/428/315 211/430/317
f 372/424/312 376/431/318 374/427/314
f 376/431/318 211/430/317 207/432/319
f 376/431/318 207/432/319 377/433/320
f 376/431/318 377/433/320 374/427/314
f 377/433/320 207/432/319 202/434/321
f 374/427/314 377/433/320 378/435/322
f 374/427/314 378/435/322 373/426/313
f 377/433/320 202/434/321 379/436/323
f 377/433/320 379/436/323 378/435/322
f 379/436/323 202/434/321 380/437/324
f 380/437/324 202/434/321 201/438/325
f 380/437/324 201/438/325 197/439/326
f 373/426/313 378/435/322 381/440/327
f 373/426/313 381/440/327 309/341/267
f 309/341/267 381/440/327 310/342/268
f 381/440/327 378/435/322 382/441/328
f 382/441/328 378/435/322 379/436/323
f 310/342/268 381/440/327 383/442/329
f 383/442/329 381/440/327 382/441/328
f 310/342/268 383/442/329 313/345/271
f 313/345/271 383/442/329 384/443/330
f 384/443/330 383/442/329 382/441/328
f 313/345/271 384/443/330 318/350/276
f 382/441/328 379/436/323 385/444/331
f 382/441/328 385/444/331 384/443/330
f 385/444/331 379/436/323 380/437/324
f 384/443/330 385/444/331 386/445/332
f 384/443/330 386/445/332 318/350/276
f 385/444/331 380/437/324 387/446/333
f 385/444/331 387/446/333 386/445/332
f 387/446/333 380/437/324 388/447/334
f 388/447/334 380/437/324 197/439/326
f 386/445/332 387/446/333 389/448/335
f 389/448/335 387/446/333 388/447/334
f 318/350/276 386/445/332 390/449/336
f 390/449/336 386/445/332 389/448/335
f 321/353/279 317/349/275 318/350/276
f 321/353/279 318/350/276 322/355/281
f 322/355/281 318/350/276 390/449/336
f 322/355/281 390/449/336 35/354/280
f 35/354/280 390/449/336 36/450/337
f 36/450/337 390/449/336 38/451/338
f 38/451/338 390/449/336 389/448/335
f 38/451/338 389/448/335 41/452/339
f 41/452/339 389/448/335 391/453/340
f 391/453/340 389/448/335 388/447/334
f 391/453/340 388/447/334 197/439/326
f 41/452/339 391/453/340 43/454/341
f 391/453/340 197/439/326 196/455/342
f 391/453/340 196/455/342 43/454/341
f 138/148/97 137/147/96 392/456/343
f 138/148/97 392/456/343 393/457/343
f 94/94/58 92/92/57 112/458/344
f 94/94/58 112/458/344 394/459/345
f 394/459/345 112/458/344 114/460/346
f 394/459/345 114/460/346 118/461/20
f 394/459/345 118/461/20 395/462/20
f 395/462/20 118/461/20 120/463/20
f 395/462/20 120/463/20 122/464/20
f 395/462/20 122/464/20 396/465/20
f 396/465/20 122/464/20 124/466/20
f 396/465/20 124/466/20 125/467/20
f 396/465/20 125/467/20 397/468/20
f 397/468/20 125/467/20 127/469/20
f 397/468/20 127/469/20 130/470/20
f 397/468/20 130/470/20 398/471/20
f 398/471/20 130/470/20 132/472/20
f 398/471/20 132/472/20 134/473/20
f 398/471/20 134/473/20 399/474/347
f 399/474/347 134/473/20 136/475/348
f 399/474/347 136/475/348 400/476/349
f 400/476/349 136/475/348 138/477/350
f 400/476/349 138/477/350 393/478/351
f 400/476/349 393/478/351 401/479/352
f 401/479/352 393/478/351 392/480/353
f 401/479/352 392/480/353 402/481/354
f 402/481/354 392/480/353 403/482/355
f 403/482/355 392/480/353 137/483/356
f 403/482/355 137/483/356 135/484/357
f 403/482/355 135/484/357 404/485/358
f 404/485/358 135/484/357 133/486/22
f 404/485/358 133/486/22 405/487/22
f 405/487/22 133/486/22 131/488/22
f 405/487/22 131/488/22 129/489/22
f 405/487/22 129/489/22 406/490/22
f 406/490/22 129/489/22 128/491/22
f 406/490/22 128/491/22 126/492/22
f 406/490/22 126/492/22 407/493/22
f 407/493/22 126/492/22 123/494/22
f 407/493/22 123/494/22 121/495/22
f 407/493/22 121/495/22 408/496/22
f 408/496/22 121/495/22 119/497/22
f 408/496/22 119/497/22 117/498/22
f 408/496/22 117/498/22 409/499/359
f 409/499/359 117/498/22 115/500/360
f 409/499/359 115/500/360 113/501/361
f 409/499/359 113/501/361 95/95/59
f 95/95/59 113/501/361 96/96/60
f 410/502/20 411/503/20 2/504/20
f 2/504/20 411/503/20 6/505/20
f 410/502/20 2/504/20 5/506/20
f 6/505/20 411/503/20 412/507/362
f 410/502/20 5/506/20 9/508/20
f 6/505/20 412/507/362 12/509/363
f 410/502/20 9/508/20 413/510/20
f 12/509/363 412/507/362 14/511/364
f 413/510/20 9/508/20 10/512/20
f 14/511/364 412/507/362 414/513/365
f 413/510/20 10/512/20 325/514/20
f 14/511/364 414/513/365 13/515/366
f 413/510/20 325/514/20 415/516/20
f 13/515/366 414/513/365 416/517/367
f 415/516/20 325/514/20 326/518/20
f 13/515/366 416/517/367 417/519/368
f 415/516/20 326/518/20 329/520/20
f 13/515/366 417/519/368 8/521/369
f 415/516/20 329/520/20 418/522/20
f 8/521/369 417/519/368 419/523/22
f 418/522/20 329/520/20 331/524/20
f 8/521/369 419/523/22 4/525/22
f 418/522/20 331/524/20 333/526/20
f 4/525/22 419/523/22 3/527/22
f 418/522/20 333/526/20 420/528/370
f 3/527/22 419/523/22 421/529/22
f 420/528/370 333/526/20 334/530/371
f 3/527/22 421/529/22 1/531/22
f 420/528/370 334/530/371 422/532/372
f 1/531/22 421/529/22 7/533/22
f 422/532/372 334/530/371 336/534/373
f 422/532/372 336/534/373 98/535/20
f 98/535/20 336/534/373 97/536/20
f 7/533/22 421/529/22 423/537/22
f 7/533/22 423/537/22 11/538/22
f 11/538/22 423/537/22 324/539/22
f 324/539/22 423/537/22 424/540/22
f 324/539/22 424/540/22 327/541/22
f 327/541/22 424/540/22 328/542/22
f 328/542/22 424/540/22 425/543/22
f 328/542/22 425/543/22 330/544/22
f 330/544/22 425/543/22 332/545/22
f 332/545/22 425/543/22 426/546/22
f 332/545/22 426/546/22 335/547/22
f 335/547/22 426/546/22 337/548/22
f 337/548/22 426/546/22 427/549/22
f 337/548/22 427/549/22 428/550/22
f 337/548/22 428/550/22 338/551/22
f 338/551/22 428/550/22 429/552/22
f 338/551/22 429/552/22 339/553/22
f 339/553/22 429/552/22 342/554/22
f 342/554/22 429/552/22 430/555/22
f 342/554/22 430/555/22 344/556/374
f 344/556/374 430/555/22 431/557/375
f 344/556/374 431/557/375 432/558/103
f 432/558/103 431/557/375 433/559/102
f 432/558/103 433/559/102 434/560/101
f 432/558/103 434/560/101 435/561/100
f 435/561/100 434/560/101 436/562/376
f 435/561/100 436/562/376 345/563/377
f 345/563/377 436/562/376 111/564/20
f 345/563/377 111/564/20 343/565/20
f 104/566/378 103/567/379 163/568/379
f 104/566/378 163/568/379 354/569/380
f 104/566/378 354/569/380 107/570/381
f 107/570/381 354/569/380 437/571/382
f 107/570/381 437/571/382 109/572/383
f 109/572/383 437/571/382 438/573/384
f 109/572/383 438/573/384 108/574/385
f 108/574/385 438/573/384 439/575/386
f 108/574/385 439/575/386 440/576/387
f 108/574/385 440/576/387 106/577/388
f 106/577/388 440/576/387 341/578/389
f 106/577/388 341/578/389 105/579/390
f 105/579/390 341/578/389 343/580/379
f 105/579/390 343/580/379 111/581/379
f 231/254/180 230/253/179 441/582/391
f 231/254/180 441/582/391 442/583/392
f 441/582/391 230/253/179 232/255/181
f 442/583/392 441/582/391 443/584/393
f 443/584/393 441/582/391 444/585/394
f 444/585/394 441/582/391 232/255/181
f 443/584/393 444/585/394 79/586/395
f 79/586/395 444/585/394 77/587/396
f 77/587/396 444/585/394 74/588/397
f 74/588/397 444/585/394 232/255/181
f 74/588/397 232/255/181 235/258/184
f 74/588/397 235/258/184 71/589/398
f 71/589/398 235/258/184 243/266/192
f 71/589/398 243/266/192 69/590/399
f 69/590/399 243/266/192 65/268/194
f 155/405/296 162/406/280 160/591/343
f 155/405/296 160/591/343 157/592/343
f 345/382/280 344/381/296 435/593/343
f 435/593/343 344/381/296 432/594/343
f 101/595/400 445/596/401 21/597/402
f 101/595/400 21/597/402 22/598/403
f 21/597/402 445/596/401 27/599/404
f 27/599/404 445/596/401 446/600/405
f 27/599/404 446/600/405 29/601/364
f 29/601/364 446/600/405 447/602/365
f 29/601/364 447/602/365 448/603/367
f 29/601/364 448/603/367 30/604/366
f 30/604/366 448/603/367 449/605/406
f 30/604/366 449/605/406 28/606/407
f 28/606/407 449/605/406 23/607/22
f 23/607/22 449/605/406 450/608/22
f 23/607/22 450/608/22 18/609/22
f 18/609/22 450/608/22 451/610/22
f 18/609/22 451/610/22 19/611/22
f 19/611/22 451/610/22 24/612/22
f 24/612/22 451/610/22 452/613/22
f 24/612/22 452/613/22 26/614/22
f 26/614/22 452/613/22 352/615/22
f 352/615/22 452/613/22 453/616/22
f 352/615/22 453/616/22 351/617/22
f 351/617/22 453/616/22 350/618/22
f 350/618/22 453/616/22 454/619/22
f 350/618/22 454/619/22 349/620/22
f 349/620/22 454/619/22 348/621/22
f 348/621/22 454/619/22 455/622/408
f 348/621/22 455/622/408 347/623/409
f 347/623/409 455/622/408 346/624/410
f 346/624/410 455/622/408 456/625/411
f 346/624/410 456/625/411 91/626/22
f 346/624/410 91/626/22 93/627/22
