# CS2 body mesh, tools/cs2_glb_to_obj.py
v -0.01321 -0.01542 -0.02206
v -0.01335 -0.01657 -0.02604
v -0.01335 -0.01657 -0.02206
v -0.01318 -0.01772 -0.02206
v -0.0132 -0.01539 -0.02604
v -0.01318 -0.01775 -0.02604
v -0.01276 -0.01428 -0.02206
v -0.01271 -0.01885 -0.02206
v -0.01276 -0.01428 -0.02604
v -0.01271 -0.01885 -0.02604
v -0.01202 -0.01971 -0.02289
v -0.01202 -0.01971 -0.02521
v -0.01205 -0.01333 -0.02604
v -0.01205 -0.01333 -0.02206
v -0.01111 -0.01259 -0.02206
v -0.01111 -0.01259 -0.02604
v -0.01002 -0.01212 -0.02604
v -0.01002 -0.01212 -0.02206
v -0.00884 -0.01195 -0.02206
v -0.00884 -0.01195 -0.02604
v -0.00765 -0.01209 -0.02206
v -0.00765 -0.01209 -0.02604
v -0.01335 -0.01657 -0.0462
v -0.01321 -0.01542 -0.04115
v -0.01322 -0.01548 -0.0462
v -0.01335 -0.01657 -0.03717
v -0.01321 -0.01539 -0.03717
v -0.01276 -0.01428 -0.04115
v -0.01318 -0.01772 -0.04115
v -0.01319 -0.01767 -0.0462
v -0.01318 -0.01775 -0.03717
v -0.01276 -0.01428 -0.03717
v -0.01271 -0.01885 -0.04115
v -0.01205 -0.01333 -0.04115
v -0.01271 -0.01885 -0.03717
v -0.01203 -0.01972 -0.04032
v -0.01203 -0.01972 -0.038
v -0.01205 -0.01333 -0.03717
v -0.01111 -0.01259 -0.03717
v -0.01111 -0.01259 -0.04115
v -0.01002 -0.01212 -0.03717
v -0.01002 -0.01212 -0.04115
v -0.00884 -0.01195 -0.04115
v -0.00884 -0.01195 -0.03717
v -0.00766 -0.01209 -0.04115
v -0.00766 -0.01209 -0.03717
v -0.00856 -0.01465 -0.00848
v -0.00851 -0.01423 -0.01496
v -0.00929 -0.01471 -0.00848
v -0.0094 -0.0143 -0.01496
v -0.0095 -0.0151 -0.00679
v -0.00994 -0.01504 -0.00848
v -0.01021 -0.0147 -0.01496
v -0.01079 -0.01539 -0.01496
v -0.00829 -0.01501 -0.00679
v -0.01042 -0.0156 -0.00848
v -0.01107 -0.01624 -0.01496
v -0.00928 -0.01552 -0.00511
v -0.01029 -0.01602 -0.00679
v -0.00843 -0.01545 -0.00511
v -0.01064 -0.01629 -0.00848
v -0.01059 -0.01702 -0.00848
v -0.011 -0.01714 -0.01496
v -0.01019 -0.01723 -0.00679
v -0.01026 -0.01768 -0.00848
v -0.01059 -0.01794 -0.01496
v -0.00991 -0.01853 -0.01496
v -0.0097 -0.01815 -0.00848
v -0.00927 -0.01802 -0.00679
v -0.00977 -0.01702 -0.00511
v -0.00912 -0.01758 -0.00511
v -0.00984 -0.01617 -0.00511
v -0.00934 -0.0168 -0.00412
v -0.00897 -0.01711 -0.00412
v -0.00878 -0.01652 -0.00377
v -0.00938 -0.01632 -0.00412
v -0.00906 -0.01595 -0.00412
v -0.00858 -0.01592 -0.00412
v -0.01064 -0.0147 -0.01497
v -0.01033 -0.015 -0.01497
v -0.01011 -0.01428 -0.01497
v -0.00937 -0.01443 -0.01497
v -0.01105 -0.01524 -0.01899
v -0.01064 -0.0147 -0.01899
v -0.01218 -0.01461 -0.0219
v -0.01256 -0.01555 -0.0219
v -0.01157 -0.01379 -0.0219
v -0.01218 -0.01461 -0.04905
v -0.01077 -0.01316 -0.0219
v -0.01157 -0.0138 -0.04905
v -0.01256 -0.01556 -0.04905
v -0.01268 -0.01657 -0.04905
v -0.01114 -0.01422 -0.04972
v -0.01165 -0.01491 -0.04972
v -0.01078 -0.01317 -0.04905
v -0.01197 -0.01571 -0.04972
v -0.01207 -0.01656 -0.04972
v -0.01195 -0.01741 -0.04972
v -0.01165 -0.01491 -0.0505
v -0.01197 -0.01571 -0.0505
v -0.01207 -0.01656 -0.0505
v -0.01195 -0.01741 -0.0505
v -0.01161 -0.0182 -0.04972
v -0.01268 -0.01657 -0.05081
v -0.01114 -0.01422 -0.0505
v -0.01218 -0.01461 -0.05081
v -0.01256 -0.01556 -0.05081
v -0.01256 -0.01556 -0.05135
v -0.01268 -0.01657 -0.05135
v -0.01218 -0.01461 -0.05135
v -0.01254 -0.01757 -0.05135
v -0.01158 -0.0138 -0.05135
v -0.01254 -0.01757 -0.05081
v -0.01214 -0.01851 -0.05081
v -0.01158 -0.0138 -0.05081
v -0.01078 -0.01317 -0.05081
v -0.01078 -0.01317 -0.05135
v -0.01214 -0.01851 -0.05135
v -0.01161 -0.0182 -0.0505
v -0.01151 -0.01931 -0.05081
v -0.01151 -0.01931 -0.05135
v -0.01108 -0.01887 -0.0505
v -0.01108 -0.01887 -0.04972
v -0.01069 -0.01992 -0.05135
v -0.0104 -0.01939 -0.0505
v -0.01069 -0.01992 -0.05081
v -0.00984 -0.01277 -0.05081
v -0.00984 -0.01277 -0.05135
v -0.00883 -0.01262 -0.05081
v -0.00883 -0.01262 -0.05135
v -0.00782 -0.01274 -0.05081
v -0.00782 -0.01274 -0.05135
v -0.00797 -0.01333 -0.0505
v -0.00688 -0.01312 -0.05081
v -0.00718 -0.01365 -0.0505
v -0.00883 -0.01323 -0.0505
v -0.00797 -0.01333 -0.04972
v -0.00968 -0.01335 -0.0505
v -0.00883 -0.01323 -0.04972
v -0.01046 -0.01369 -0.0505
v -0.01046 -0.01369 -0.04972
v -0.00883 -0.01262 -0.04905
v -0.00968 -0.01335 -0.04972
v -0.00984 -0.01277 -0.04905
v -0.00782 -0.01274 -0.04905
v -0.00984 -0.01276 -0.0219
v -0.00883 -0.01262 -0.0219
v -0.00782 -0.01274 -0.0219
v -0.00814 -0.014 -0.019
v -0.01011 -0.01428 -0.019
v -0.00948 -0.01401 -0.019
v -0.00948 -0.01401 -0.01497
v -0.00881 -0.01392 -0.019
v -0.00881 -0.01392 -0.01497
v -0.00824 -0.01441 -0.01497
v -0.00814 -0.014 -0.01497
v -0.00751 -0.01425 -0.01497
v -0.00726 -0.01496 -0.01497
v -0.00696 -0.01465 -0.01497
v -0.00654 -0.01519 -0.01497
v -0.00669 -0.01593 -0.01497
v -0.00628 -0.01581 -0.01497
v -0.00618 -0.01648 -0.01497
v -0.00668 -0.01705 -0.01497
v -0.00626 -0.01716 -0.01497
v -0.00651 -0.01779 -0.01497
v -0.00723 -0.01803 -0.01497
v -0.00692 -0.01833 -0.01497
v -0.00745 -0.01875 -0.01497
v -0.00819 -0.01861 -0.01497
v -0.00808 -0.01902 -0.01497
v -0.00875 -0.01912 -0.01497
v -0.00932 -0.01862 -0.01497
v -0.00875 -0.01912 -0.01899
v -0.00808 -0.01902 -0.019
v -0.00942 -0.01904 -0.01497
v -0.01005 -0.01878 -0.01497
v -0.01005 -0.01878 -0.01899
v -0.00942 -0.01904 -0.01899
v -0.00873 -0.02041 -0.0219
v -0.00773 -0.02027 -0.0219
v -0.00773 -0.02027 -0.04905
v -0.00974 -0.02029 -0.0219
v -0.01069 -0.01992 -0.0219
v -0.01069 -0.01992 -0.04905
v -0.00874 -0.02042 -0.04905
v -0.00789 -0.01968 -0.04972
v -0.00975 -0.0203 -0.04905
v -0.01039 -0.01939 -0.04972
v -0.0096 -0.01971 -0.04972
v -0.00874 -0.01981 -0.04972
v -0.00789 -0.01969 -0.0505
v -0.00874 -0.01981 -0.0505
v -0.0096 -0.01971 -0.0505
v -0.00975 -0.0203 -0.05081
v -0.00975 -0.0203 -0.05135
v -0.00874 -0.02042 -0.05081
v -0.00874 -0.02042 -0.05135
v -0.00773 -0.02027 -0.05081
v -0.00773 -0.02027 -0.05135
v -0.00711 -0.01935 -0.0505
v -0.0068 -0.01987 -0.05081
v -0.0051 -0.01529 -0.03755
v -0.00323 -0.01645 -0.03558
v -0.00309 -0.01527 -0.03558
v -0.00508 -0.01765 -0.03755
v -0.00306 -0.01763 -0.03558
v -0.00306 -0.01763 -0.02764
v -0.00259 -0.01872 -0.02812
v -0.00259 -0.01872 -0.03509
v -0.00191 -0.01959 -0.02942
v -0.00191 -0.01959 -0.03379
v -0.00323 -0.01645 -0.02764
v -0.00507 -0.01765 -0.02566
v -0.0051 -0.01529 -0.02566
v -0.00309 -0.01527 -0.02764
v -0.00265 -0.01416 -0.03558
v -0.00265 -0.01416 -0.02764
v -0.00194 -0.01321 -0.03596
v -0.00193 -0.01321 -0.02726
v -0.001 -0.01247 -0.02726
v -0.001 -0.01247 -0.03596
v 0.0001 -0.012 -0.02726
v 0.0001 -0.012 -0.03596
v 0.00128 -0.01183 -0.02726
v 0.00128 -0.01183 -0.03596
v 0.00246 -0.01197 -0.02726
v 0.00246 -0.01197 -0.03596
v -0.01254 -0.01757 -0.04905
v -0.01253 -0.01757 -0.0219
v -0.01213 -0.01851 -0.0219
v -0.01214 -0.01851 -0.04905
v -0.0115 -0.01931 -0.0219
v -0.01102 -0.01784 -0.01899
v -0.0106 -0.01838 -0.01899
v -0.01151 -0.01931 -0.04905
v -0.0106 -0.01838 -0.01497
v -0.0103 -0.01807 -0.01497
v -0.01102 -0.01784 -0.01497
v -0.01087 -0.0171 -0.01497
v -0.01128 -0.01722 -0.01899
v -0.01128 -0.01722 -0.01497
v -0.01138 -0.01655 -0.01497
v -0.01088 -0.01598 -0.01497
v -0.01138 -0.01655 -0.01899
v -0.01268 -0.01656 -0.0219
v -0.0113 -0.01587 -0.01899
v -0.0113 -0.01587 -0.01497
v -0.01105 -0.01524 -0.01497
v -0.01256 -0.01556 -0.04612
v -0.01256 -0.01555 -0.04115
v -0.006 -0.01924 -0.05135
v -0.00501 -0.01748 -0.05135
v -0.00539 -0.01843 -0.05135
v -0.00489 -0.01647 -0.05135
v -0.0068 -0.01987 -0.05135
v -0.00503 -0.01546 -0.05135
v -0.00543 -0.01453 -0.05135
v -0.00606 -0.01373 -0.05135
v -0.00688 -0.01312 -0.05135
v -0.01157 -0.0138 -0.04115
v -0.00984 -0.01277 -0.04115
v -0.00782 -0.01274 -0.04115
v -0.00655 -0.01254 -0.04115
v -0.00606 -0.01373 -0.04115
v -0.0056 -0.01325 -0.04115
v -0.00486 -0.01419 -0.04115
v -0.00503 -0.01546 -0.04115
v -0.00439 -0.01528 -0.04115
v -0.00422 -0.01646 -0.04115
v -0.00501 -0.01748 -0.04115
v -0.00436 -0.01764 -0.04115
v -0.0048 -0.01875 -0.04115
v -0.00539 -0.01842 -0.04115
v -0.00547 -0.01964 -0.0404
v -0.00599 -0.01924 -0.0404
v -0.00599 -0.01924 -0.0383
v -0.00547 -0.01964 -0.0383
v -0.00538 -0.01842 -0.03755
v -0.0048 -0.01875 -0.03755
v -0.00436 -0.01764 -0.03755
v -0.00439 -0.01528 -0.03755
v -0.00237 -0.01526 -0.03558
v -0.00146 -0.01367 -0.03596
v 0.00028 -0.01264 -0.03596
v 0.00229 -0.01262 -0.03596
v 0.00356 -0.01241 -0.03596
v 0.00405 -0.0136 -0.03596
v 0.00452 -0.01313 -0.03596
v 0.00526 -0.01406 -0.03596
v 0.00508 -0.01534 -0.03596
v 0.00573 -0.01516 -0.03596
v 0.0059 -0.01634 -0.03596
v 0.00511 -0.01736 -0.03596
v 0.00575 -0.01752 -0.03596
v 0.00473 -0.0183 -0.03543
v 0.00531 -0.01863 -0.03543
v 0.00465 -0.01951 -0.034
v 0.00412 -0.01912 -0.034
v 0.00465 -0.01951 -0.02921
v 0.00412 -0.01911 -0.02921
v 0.00473 -0.0183 -0.02779
v 0.00531 -0.01863 -0.02779
v 0.00576 -0.01752 -0.02726
v 0.00511 -0.01736 -0.02726
v 0.0059 -0.01634 -0.02726
v 0.00509 -0.01534 -0.02726
v 0.00573 -0.01516 -0.02726
v 0.00526 -0.01406 -0.02726
v 0.00406 -0.0136 -0.02726
v 0.00452 -0.01313 -0.02726
v 0.00357 -0.01241 -0.02726
v 0.0023 -0.01262 -0.02726
v 0.00028 -0.01264 -0.02726
v -0.00146 -0.01367 -0.02726
v -0.00236 -0.01526 -0.02764
v -0.00439 -0.01528 -0.02566
v -0.01268 -0.01657 -0.04612
v -0.01254 -0.01757 -0.04612
v -0.01213 -0.01851 -0.02206
v -0.01253 -0.01757 -0.02206
v -0.01256 -0.01555 -0.02206
v -0.01157 -0.01379 -0.02206
v -0.00984 -0.01276 -0.02206
v -0.00782 -0.01274 -0.02206
v -0.00655 -0.01254 -0.02206
v -0.00606 -0.01373 -0.02206
v -0.00559 -0.01325 -0.02206
v -0.00486 -0.01419 -0.02206
v -0.00543 -0.01453 -0.02206
v -0.00503 -0.01546 -0.02206
v -0.00439 -0.01528 -0.02206
v -0.00488 -0.01647 -0.02206
v -0.00422 -0.01646 -0.02206
v -0.00436 -0.01764 -0.02206
v -0.005 -0.01748 -0.02206
v -0.0048 -0.01875 -0.02206
v -0.00538 -0.01842 -0.02206
v -0.00546 -0.01963 -0.02281
v -0.00599 -0.01924 -0.02281
v -0.00599 -0.01924 -0.02491
v -0.00546 -0.01963 -0.02491
v -0.00538 -0.01842 -0.02566
v -0.0048 -0.01875 -0.02566
v -0.00436 -0.01764 -0.02566
v -0.01214 -0.01851 -0.03717
v -0.01254 -0.01757 -0.03717
v -0.01256 -0.01555 -0.03717
v -0.01157 -0.0138 -0.03717
v -0.00984 -0.01276 -0.03717
v -0.00782 -0.01274 -0.03717
v -0.00655 -0.01254 -0.03717
v -0.00606 -0.01373 -0.03717
v -0.0056 -0.01325 -0.03717
v -0.00486 -0.01419 -0.03755
v -0.00543 -0.01453 -0.03755
v -0.01256 -0.01555 -0.02604
v -0.01253 -0.01757 -0.02604
v -0.01213 -0.01851 -0.02604
v -0.01157 -0.01379 -0.02604
v -0.00984 -0.01276 -0.02604
v -0.00782 -0.01274 -0.02604
v -0.00655 -0.01254 -0.02604
v -0.00606 -0.01373 -0.02604
v -0.00559 -0.01325 -0.02604
v -0.00543 -0.01453 -0.02566
v -0.00486 -0.01419 -0.02566
v -0.00849 -0.01708 -0.00412
v -0.00827 -0.01751 -0.00511
v -0.00806 -0.01793 -0.00679
v -0.009 -0.01838 -0.00848
v -0.00827 -0.01832 -0.00848
v -0.00905 -0.01881 -0.01496
v -0.00816 -0.01874 -0.01496
v -0.00422 -0.01646 -0.02566
v -0.00234 -0.01762 -0.02773
v -0.00422 -0.01646 -0.03755
v -0.00234 -0.01762 -0.03549
v -0.01254 -0.01757 -0.04115
v -0.01214 -0.01851 -0.04115
v -0.00714 -0.01744 -0.00848
v -0.00649 -0.01679 -0.01496
v -0.00691 -0.01674 -0.00848
v -0.00677 -0.01764 -0.01496
v -0.00697 -0.01601 -0.00848
v -0.00656 -0.01589 -0.01496
v -0.00727 -0.01701 -0.00679
v -0.00736 -0.0158 -0.00679
v -0.0073 -0.01535 -0.00848
v -0.00697 -0.01509 -0.01496
v -0.00765 -0.0145 -0.01496
v -0.00786 -0.01488 -0.00848
v -0.00778 -0.01601 -0.00511
v -0.00822 -0.01623 -0.00412
v -0.00818 -0.01671 -0.00412
v -0.00772 -0.01686 -0.00511
v -0.00762 -0.01799 -0.00848
v -0.00735 -0.01833 -0.01496
v -0.00711 -0.01935 -0.04972
v -0.00679 -0.01987 -0.04905
v -0.006 -0.01924 -0.04905
v -0.00643 -0.01882 -0.04972
v -0.00643 -0.01882 -0.0505
v -0.00679 -0.01987 -0.0219
v -0.00745 -0.01875 -0.019
v -0.00692 -0.01833 -0.019
v -0.00599 -0.01924 -0.0219
v -0.00651 -0.01779 -0.019
v -0.00538 -0.01842 -0.0219
v -0.00626 -0.01716 -0.019
v -0.005 -0.01748 -0.0219
v -0.00539 -0.01843 -0.04905
v -0.00501 -0.01748 -0.04905
v -0.00592 -0.01813 -0.04972
v -0.00488 -0.01647 -0.0219
v -0.00618 -0.01648 -0.019
v -0.00628 -0.01581 -0.019
v -0.00592 -0.01813 -0.0505
v -0.00654 -0.01519 -0.019
v -0.00503 -0.01546 -0.0219
v -0.006 -0.01924 -0.05081
v -0.00696 -0.01465 -0.019
v -0.00543 -0.01453 -0.0219
v -0.00606 -0.01373 -0.0219
v -0.00687 -0.01312 -0.0219
v -0.00539 -0.01843 -0.05081
v -0.00501 -0.01748 -0.05081
v -0.0056 -0.01733 -0.0505
v -0.00489 -0.01647 -0.05081
v -0.00503 -0.01546 -0.05081
v -0.0055 -0.01648 -0.0505
v -0.00562 -0.01563 -0.0505
v -0.0055 -0.01648 -0.04972
v -0.0056 -0.01733 -0.04972
v -0.00489 -0.01647 -0.04905
v -0.00562 -0.01563 -0.04972
v -0.00503 -0.01546 -0.04905
v -0.00596 -0.01484 -0.04972
v -0.00543 -0.01453 -0.04905
v -0.00596 -0.01484 -0.0505
v -0.00649 -0.01416 -0.04972
v -0.00606 -0.01373 -0.04905
v -0.00543 -0.01453 -0.05081
v -0.00649 -0.01416 -0.0505
v -0.00606 -0.01373 -0.05081
v -0.00718 -0.01365 -0.04972
v -0.00688 -0.01312 -0.04905
v -0.00751 -0.01425 -0.019
v -0.00202 -0.01838 -0.03509
v -0.00139 -0.01918 -0.03379
v -0.00139 -0.01918 -0.02942
v -0.00202 -0.01838 -0.02812
v -0.0115 -0.01931 -0.02521
v -0.0115 -0.01931 -0.02289
v -0.01151 -0.01931 -0.04032
v -0.01151 -0.01931 -0.038
vt 0.756348 0.031219
vt 0.755371 0.027252
vt 0.755371 0.031219
vt 0.753906 0.031219
vt 0.756348 0.027252
vt 0.753906 0.027252
vt 0.757812 0.031219
vt 0.75293 0.031219
vt 0.757812 0.027252
vt 0.75293 0.027252
vt 0.751465 0.030548
vt 0.751465 0.028198
vt 0.758789 0.027252
vt 0.758789 0.031219
vt 0.760254 0.031219
vt 0.760254 0.027252
vt 0.76123 0.027252
vt 0.76123 0.031219
vt 0.762207 0.031219
vt 0.762207 0.027252
vt 0.763672 0.031219
vt 0.763672 0.027252
vt 0.882324 0.104187
vt 0.883789 0.109253
vt 0.883789 0.104187
vt 0.882324 0.113281
vt 0.883789 0.113281
vt 0.884766 0.109253
vt 0.881348 0.109253
vt 0.881348 0.104187
vt 0.881348 0.113281
vt 0.884766 0.113281
vt 0.879883 0.109253
vt 0.88623 0.109253
vt 0.879883 0.113281
vt 0.878906 0.110107
vt 0.878906 0.112488
vt 0.88623 0.113281
vt 0.887207 0.113281
vt 0.887207 0.109253
vt 0.888672 0.113281
vt 0.888672 0.109253
vt 0.889648 0.109253
vt 0.889648 0.113281
vt 0.891113 0.109253
vt 0.891113 0.113281
vt 0.700684 0.230347
vt 0.700195 0.223633
vt 0.699707 0.230347
vt 0.699219 0.223633
vt 0.699707 0.232178
vt 0.699219 0.230347
vt 0.698242 0.223633
vt 0.697266 0.223633
vt 0.700684 0.232178
vt 0.69873 0.230347
vt 0.696289 0.223633
vt 0.700195 0.233765
vt 0.69873 0.232178
vt 0.701172 0.233765
vt 0.697754 0.230347
vt 0.697266 0.230347
vt 0.695801 0.223633
vt 0.697266 0.232178
vt 0.696777 0.230347
vt 0.694824 0.223633
vt 0.693848 0.223633
vt 0.695801 0.230347
vt 0.696289 0.232178
vt 0.698242 0.233765
vt 0.697754 0.233765
vt 0.699219 0.233765
vt 0.699219 0.234863
vt 0.69873 0.235229
vt 0.700684 0.235229
vt 0.699707 0.234619
vt 0.700195 0.234619
vt 0.701172 0.234619
vt 0.885254 0.909668
vt 0.885254 0.90918
vt 0.884766 0.909668
vt 0.883789 0.90918
vt 0.88623 0.914062
vt 0.885254 0.914062
vt 0.887207 0.916992
vt 0.888184 0.916992
vt 0.88623 0.916992
vt 0.887207 0.945801
vt 0.885254 0.916992
vt 0.88623 0.945801
vt 0.888184 0.945801
vt 0.88916 0.945801
vt 0.88623 0.946777
vt 0.887207 0.946777
vt 0.885254 0.945801
vt 0.888184 0.946777
vt 0.88916 0.946777
vt 0.890137 0.946777
vt 0.887207 0.947754
vt 0.888184 0.947754
vt 0.88916 0.947754
vt 0.890137 0.947754
vt 0.891113 0.946777
vt 0.88916 0.948242
vt 0.88623 0.947754
vt 0.887207 0.948242
vt 0.888184 0.948242
vt 0.888184 0.94873
vt 0.88916 0.94873
vt 0.887207 0.94873
vt 0.890137 0.94873
vt 0.88623 0.94873
vt 0.890137 0.948242
vt 0.891113 0.948242
vt 0.88623 0.948242
vt 0.885254 0.948242
vt 0.885254 0.94873
vt 0.891113 0.94873
vt 0.891113 0.947754
vt 0.89209 0.948242
vt 0.89209 0.94873
vt 0.89209 0.947754
vt 0.89209 0.946777
vt 0.893066 0.94873
vt 0.893066 0.947754
vt 0.893066 0.948242
vt 0.884277 0.948242
vt 0.884277 0.94873
vt 0.883301 0.948242
vt 0.883301 0.94873
vt 0.882812 0.948242
vt 0.882812 0.94873
vt 0.882812 0.947754
vt 0.881836 0.948242
vt 0.881836 0.947754
vt 0.883301 0.947754
vt 0.882812 0.946777
vt 0.884277 0.947754
vt 0.883301 0.946777
vt 0.885254 0.947754
vt 0.885254 0.946777
vt 0.883301 0.945801
vt 0.884277 0.946777
vt 0.884277 0.945801
vt 0.882812 0.945801
vt 0.884277 0.916992
vt 0.883301 0.916992
vt 0.882812 0.916992
vt 0.882324 0.914062
vt 0.884766 0.914062
vt 0.883789 0.914062
vt 0.883789 0.909668
vt 0.883301 0.914062
vt 0.883301 0.909668
vt 0.882324 0.90918
vt 0.882324 0.909668
vt 0.881348 0.909668
vt 0.880859 0.90918
vt 0.880859 0.909668
vt 0.879883 0.909668
vt 0.879395 0.90918
vt 0.879395 0.909668
vt 0.878418 0.909668
vt 0.87793 0.90918
vt 0.877441 0.909668
vt 0.876953 0.909668
vt 0.876465 0.90918
vt 0.875977 0.909668
vt 0.875488 0.909668
vt 0.875 0.90918
vt 0.874512 0.909668
vt 0.874023 0.909668
vt 0.874023 0.90918
vt 0.874023 0.914062
vt 0.874512 0.914062
vt 0.873047 0.909668
vt 0.872559 0.909668
vt 0.872559 0.914062
vt 0.873047 0.914062
vt 0.87207 0.916992
vt 0.873047 0.916992
vt 0.873047 0.945801
vt 0.871094 0.916992
vt 0.870117 0.916992
vt 0.870117 0.945801
vt 0.87207 0.945801
vt 0.873047 0.946777
vt 0.871094 0.945801
vt 0.870117 0.946777
vt 0.871094 0.946777
vt 0.870117 0.947754
vt 0.87207 0.946777
vt 0.873047 0.947754
vt 0.87207 0.947754
vt 0.871094 0.947754
vt 0.871094 0.948242
vt 0.870117 0.948242
vt 0.870117 0.94873
vt 0.871094 0.94873
vt 0.87207 0.948242
vt 0.87207 0.94873
vt 0.873047 0.948242
vt 0.873047 0.94873
vt 0.874023 0.947754
vt 0.874023 0.948242
vt 0.831543 0.031189
vt 0.830566 0.033966
vt 0.831543 0.033997
vt 0.829102 0.031189
vt 0.829102 0.033997
vt 0.829102 0.042023
vt 0.828125 0.041534
vt 0.828125 0.034485
vt 0.82666 0.040222
vt 0.82666 0.035797
vt 0.830566 0.042053
vt 0.829102 0.04483
vt 0.831543 0.04483
vt 0.831543 0.042023
vt 0.833008 0.033997
vt 0.833008 0.042023
vt 0.833984 0.0336
vt 0.833984 0.042419
vt 0.835449 0.042419
vt 0.835449 0.0336
vt 0.836426 0.042419
vt 0.836426 0.0336
vt 0.837891 0.042419
vt 0.837891 0.0336
vt 0.838867 0.042419
vt 0.838867 0.0336
vt 0.890137 0.945801
vt 0.890137 0.916992
vt 0.891113 0.916992
vt 0.891113 0.945801
vt 0.89209 0.916992
vt 0.88916 0.914062
vt 0.890137 0.914062
vt 0.893066 0.916992
vt 0.893066 0.945801
vt 0.890625 0.914062
vt 0.89209 0.945801
vt 0.893066 0.946777
vt 0.890137 0.909668
vt 0.890625 0.909668
vt 0.88916 0.90918
vt 0.890137 0.90918
vt 0.88916 0.909668
vt 0.887695 0.90918
vt 0.888672 0.914062
vt 0.888672 0.909668
vt 0.887695 0.909668
vt 0.886719 0.90918
vt 0.887695 0.914062
vt 0.88916 0.916992
vt 0.887207 0.914062
vt 0.887207 0.909668
vt 0.88623 0.909668
vt 0.873047 0.008026
vt 0.867676 0.007294
vt 0.867676 0.008026
vt 0.266113 0.731934
vt 0.266113 0.72998
vt 0.266113 0.730957
vt 0.266602 0.729004
vt 0.266602 0.73291
vt 0.267334 0.733887
vt 0.267334 0.728027
vt 0.268066 0.734375
vt 0.268066 0.727539
vt 0.269043 0.727051
vt 0.269043 0.734863
vt 0.270264 0.727051
vt 0.270264 0.734863
vt 0.27124 0.727051
vt 0.27124 0.734863
vt 0.272217 0.734375
vt 0.272217 0.727539
vt 0.273193 0.733887
vt 0.273193 0.728027
vt 0.273682 0.729004
vt 0.273682 0.73291
vt 0.27417 0.731934
vt 0.27417 0.72998
vt 0.27417 0.730957
vt 0.873047 0.007294
vt 0.866699 0.007294
vt 0.865723 0.008026
vt 0.865723 0.007294
vt 0.864746 0.007294
vt 0.863281 0.008026
vt 0.863281 0.007294
vt 0.862305 0.007294
vt 0.861328 0.008026
vt 0.861328 0.007294
vt 0.860352 0.007294
vt 0.858887 0.008026
vt 0.858887 0.007294
vt 0.85791 0.007294
vt 0.856934 0.008026
vt 0.856934 0.007294
vt 0.855957 0.007294
vt 0.85498 0.008026
vt 0.854492 0.007294
vt 0.853516 0.007294
vt 0.853516 0.008026
vt 0.852539 0.007294
vt 0.852539 0.008026
vt 0.850098 0.008026
vt 0.850098 0.007294
vt 0.848633 0.008026
vt 0.848633 0.007294
vt 0.847656 0.008026
vt 0.847656 0.007294
vt 0.935547 0.011597
vt 0.932617 0.011597
vt 0.935547 0.012207
vt 0.932129 0.012207
vt 0.931641 0.011597
vt 0.930176 0.012207
vt 0.930176 0.011597
vt 0.929199 0.011597
vt 0.928223 0.012207
vt 0.928223 0.011597
vt 0.926758 0.011597
vt 0.925781 0.012207
vt 0.925781 0.011597
vt 0.924805 0.011597
vt 0.92334 0.012207
vt 0.92334 0.011597
vt 0.922363 0.011597
vt 0.921387 0.012207
vt 0.921387 0.011597
vt 0.919922 0.011597
vt 0.918945 0.012207
vt 0.918945 0.011597
vt 0.91748 0.012207
vt 0.91748 0.011597
vt 0.916016 0.011597
vt 0.916016 0.012207
vt 0.910645 0.011597
vt 0.910645 0.012207
vt 0.90918 0.012207
vt 0.90918 0.011597
vt 0.907715 0.011597
vt 0.907715 0.012207
vt 0.906738 0.011597
vt 0.905762 0.012207
vt 0.905762 0.011597
vt 0.904297 0.011597
vt 0.90332 0.012207
vt 0.90332 0.011597
vt 0.902344 0.011597
vt 0.900879 0.012207
vt 0.900879 0.011597
vt 0.899902 0.011597
vt 0.898926 0.012207
vt 0.898926 0.011597
vt 0.897461 0.011597
vt 0.896484 0.012207
vt 0.896484 0.011597
vt 0.89502 0.011597
vt 0.894531 0.012207
vt 0.894043 0.011597
vt 0.891113 0.012207
vt 0.891113 0.011597
vt 0.466064 0.804688
vt 0.466064 0.803223
vt 0.465332 0.804688
vt 0.465332 0.803223
vt 0.466064 0.805664
vt 0.465332 0.805664
vt 0.359375 0.010101
vt 0.359375 0.010803
vt 0.360352 0.010803
vt 0.360596 0.010101
vt 0.361572 0.010101
vt 0.362549 0.010803
vt 0.362549 0.010101
vt 0.36377 0.010101
vt 0.364746 0.010803
vt 0.364746 0.010101
vt 0.365723 0.010101
vt 0.366943 0.010803
vt 0.366943 0.010101
vt 0.36792 0.010101
vt 0.368896 0.010803
vt 0.368896 0.010101
vt 0.370117 0.010101
vt 0.371094 0.010803
vt 0.371094 0.010101
vt 0.372314 0.010101
vt 0.372314 0.010803
vt 0.373535 0.010803
vt 0.373535 0.010101
vt 0.374512 0.010803
vt 0.374512 0.010101
vt 0.375732 0.010101
vt 0.375732 0.010803
vt 0.376953 0.010101
vt 0.376953 0.010803
vt 0.378418 0.010101
vt 0.378174 0.010803
vt 0.380371 0.010803
vt 0.380371 0.010101
vt 0.381592 0.010803
vt 0.381592 0.010101
vt 0.382568 0.010803
vt 0.382568 0.010101
vt 0.79834 0.008301
vt 0.79834 0.009003
vt 0.799805 0.008301
vt 0.799805 0.009003
vt 0.800781 0.008301
vt 0.801758 0.009003
vt 0.801758 0.008301
vt 0.802734 0.008301
vt 0.804199 0.009003
vt 0.804199 0.008301
vt 0.805176 0.008301
vt 0.806152 0.009003
vt 0.806152 0.008301
vt 0.807129 0.008301
vt 0.808594 0.009003
vt 0.808594 0.008301
vt 0.80957 0.008301
vt 0.810547 0.009003
vt 0.810547 0.008301
vt 0.812012 0.008301
vt 0.812012 0.009003
vt 0.812988 0.009003
vt 0.812988 0.008301
vt 0.351074 0.010803
vt 0.353271 0.010803
vt 0.352295 0.010101
vt 0.353271 0.010101
vt 0.354492 0.010803
vt 0.354492 0.010101
vt 0.351074 0.010101
vt 0.350098 0.010101
vt 0.349121 0.010803
vt 0.349121 0.010101
vt 0.3479 0.010101
vt 0.346924 0.010803
vt 0.346924 0.010101
vt 0.345947 0.010101
vt 0.344727 0.010803
vt 0.344727 0.010101
vt 0.34375 0.010101
vt 0.342529 0.010803
vt 0.342529 0.010101
vt 0.341553 0.010803
vt 0.341553 0.010101
vt 0.340576 0.010803
vt 0.340576 0.010101
vt 0.839844 0.0336
vt 0.839844 0.042419
vt 0.841309 0.0336
vt 0.841309 0.042419
vt 0.842285 0.042419
vt 0.842285 0.0336
vt 0.84375 0.042419
vt 0.84375 0.0336
vt 0.844727 0.042419
vt 0.844727 0.0336
vt 0.846191 0.042419
vt 0.846191 0.0336
vt 0.847168 0.04187
vt 0.847168 0.034149
vt 0.848633 0.035583
vt 0.848633 0.040436
vt 0.702637 0.234741
vt 0.702637 0.235352
vt 0.703125 0.235107
vt 0.704102 0.233765
vt 0.703613 0.233765
vt 0.705566 0.232178
vt 0.704102 0.232178
vt 0.706055 0.230347
vt 0.706543 0.230347
vt 0.705078 0.230347
vt 0.70752 0.223633
vt 0.708496 0.223633
vt 0.707031 0.223633
vt 0.764648 0.031219
vt 0.764648 0.027252
vt 0.766113 0.027252
vt 0.766113 0.031219
vt 0.76709 0.027496
vt 0.76709 0.031219
vt 0.768555 0.027496
vt 0.768555 0.031219
vt 0.769531 0.031219
vt 0.769531 0.027496
vt 0.768555 0.024628
vt 0.770996 0.024628
vt 0.770996 0.031219
vt 0.770996 0.027496
vt 0.771973 0.031219
vt 0.771973 0.027496
vt 0.773438 0.028229
vt 0.773438 0.030365
vt 0.89209 0.109253
vt 0.89209 0.113281
vt 0.893066 0.113281
vt 0.893066 0.109253
vt 0.894531 0.112915
vt 0.894531 0.109253
vt 0.895508 0.109253
vt 0.895508 0.112915
vt 0.896973 0.112976
vt 0.895508 0.115784
vt 0.897949 0.115784
vt 0.896973 0.109253
vt 0.897949 0.112915
vt 0.897949 0.109253
vt 0.899414 0.109253
vt 0.899414 0.112854
vt 0.900391 0.112122
vt 0.900391 0.109985
vt 0.787598 0.009003
vt 0.791992 0.008301
vt 0.787598 0.008301
vt 0.79248 0.009003
vt 0.793457 0.008301
vt 0.793457 0.009003
vt 0.37793 0.004791
vt 0.37915 0.005402
vt 0.37915 0.004791
vt 0.38208 0.005402
vt 0.38208 0.004791
vt 0.368652 0.004791
vt 0.365723 0.004791
vt 0.365723 0.005402
vt 0.368652 0.005402
vt 0.369873 0.004791
vt 0.703613 0.230347
vt 0.704102 0.223633
vt 0.703125 0.230347
vt 0.705078 0.223633
vt 0.702637 0.230347
vt 0.703125 0.223633
vt 0.703125 0.232178
vt 0.702148 0.232178
vt 0.70166 0.230347
vt 0.702148 0.223633
vt 0.701172 0.223633
vt 0.701172 0.230347
vt 0.70166 0.233765
vt 0.70166 0.234619
vt 0.702148 0.234619
vt 0.702637 0.233765
vt 0.70459 0.230347
vt 0.706055 0.223633
vt 0.874023 0.946777
vt 0.874023 0.945801
vt 0.875 0.945801
vt 0.875 0.946777
vt 0.875 0.947754
vt 0.874023 0.916992
vt 0.875488 0.914062
vt 0.875977 0.914062
vt 0.875 0.916992
vt 0.876953 0.914062
vt 0.875977 0.916992
vt 0.877441 0.914062
vt 0.876953 0.916992
vt 0.875977 0.945801
vt 0.876953 0.945801
vt 0.875977 0.946777
vt 0.87793 0.916992
vt 0.878418 0.914062
vt 0.879395 0.914062
vt 0.875977 0.947754
vt 0.879883 0.914062
vt 0.878906 0.916992
vt 0.875 0.948242
vt 0.880859 0.914062
vt 0.879883 0.916992
vt 0.880859 0.916992
vt 0.874023 0.94873
vt 0.875 0.94873
vt 0.875977 0.94873
vt 0.881836 0.916992
vt 0.875977 0.948242
vt 0.876953 0.948242
vt 0.876953 0.94873
vt 0.876953 0.947754
vt 0.87793 0.948242
vt 0.87793 0.94873
vt 0.878906 0.948242
vt 0.878906 0.94873
vt 0.87793 0.947754
vt 0.879883 0.94873
vt 0.878906 0.947754
vt 0.87793 0.946777
vt 0.876953 0.946777
vt 0.87793 0.945801
vt 0.878906 0.946777
vt 0.878906 0.945801
vt 0.879883 0.946777
vt 0.879883 0.945801
vt 0.879883 0.947754
vt 0.880859 0.946777
vt 0.880859 0.945801
vt 0.879883 0.948242
vt 0.880859 0.947754
vt 0.880859 0.948242
vt 0.880859 0.94873
vt 0.881836 0.94873
vt 0.881836 0.946777
vt 0.881836 0.945801
vt 0.881348 0.914062
vt 0.369873 0.005402
vt 0.371582 0.004791
vt 0.371582 0.005402
vt 0.376221 0.004791
vt 0.376221 0.005402
vt 0.37793 0.005402
vt 0.355713 0.010101
vt 0.355713 0.010803
vt 0.35791 0.010101
vt 0.358154 0.010803
vt 0.794922 0.008301
vt 0.794922 0.009003
vt 0.797363 0.009003
vt 0.797363 0.008301
vn -0.9692 0.2462 0.0012
vn -0.9999 -0.0129 0
vn -0.9625 -0.2714 0
vn -0.8742 0.4856 0.0013
vn -0.8814 -0.4724 0
vn -0.8724 0.4888 -0.0013
vn -0.8864 -0.463 0
vn -0.7853 -0.6192 0
vn -0.7154 0.6988 -0.0014
vn -0.5109 0.8596 -0.0013
vn -0.2717 0.9624 -0.0012
vn -0.0129 0.9999 0.001
vn -0.0129 0.9999 -0.001
vn 0.249 0.9685 0.0012
vn 0.249 0.9685 -0.0012
vn -0.9857 0.1682 -0.0011
vn -0.9929 0.1185 -0.0011
vn -0.9692 0.2462 -0.0012
vn -0.8742 0.4856 -0.0013
vn -0.981 -0.1941 0
vn -0.9897 -0.1428 0
vn -0.5109 0.8596 0.0013
vn 0.1084 0.9896 0.0944
vn 0.1183 0.9908 0.0654
vn -0.2635 0.9603 0.0913
vn -0.2702 0.9604 0.0672
vn -0.4384 0.8632 0.2503
vn -0.6194 0.7797 0.0918
vn -0.6176 0.7838 0.0645
vn -0.87 0.4886 0.0654
vn 0.2997 0.922 0.2452
vn -0.8649 0.4928 0.0952
vn -0.9905 0.1208 0.0656
vn -0.4296 0.842 0.3265
vn -0.9208 0.3031 0.2456
vn 0.295 0.8997 0.3217
vn -0.9893 0.111 0.0946
vn -0.9601 -0.2638 0.0927
vn -0.9606 -0.2699 0.0659
vn -0.862 -0.4416 0.2489
vn -0.7804 -0.6188 0.0903
vn -0.7832 -0.6182 0.066
vn -0.6497 -0.7575 0.0632
vn -0.6457 -0.7562 0.1061
vn -0.6299 -0.7412 0.2319
vn -0.8428 -0.4292 0.3246
vn -0.6179 -0.7257 0.3025
vn -0.8997 0.292 0.3246
vn -0.7298 -0.3682 0.576
vn -0.5339 -0.6235 0.5711
vn -0.0825 0.1567 0.9842
vn -0.7593 0.2468 0.6021
vn -0.3681 0.7313 0.5742
vn 0.2468 0.7593 0.6021
vn -0.7139 0.6933 0.0986
vn 0 -0.001 1
vn -0.5051 0.8496 0.1517
vn -0.8581 0.4761 0.1925
vn -0.701 0.6855 0.1965
vn -0.8698 0.4918 0.0397
vn -0.9683 0.2467 0.0405
vn -0.715 0.6979 0.0412
vn -0.8713 0.4904 -0.0203
vn -0.508 0.8604 0.0399
vn -0.7167 0.6971 -0.021
vn -0.9686 0.2479 -0.0206
vn -0.9998 -0.0111 -0.0181
vn -0.6502 0.6369 -0.4141
vn -0.798 0.4466 -0.4047
vn -0.5096 0.8602 -0.0204
vn -0.8864 0.2205 -0.407
vn -0.9179 -0.0117 -0.3967
vn -0.8819 -0.2436 -0.4036
vn -0.7511 0.4257 0.5046
vn -0.8176 0.2094 0.5364
vn -0.8615 -0.0122 0.5077
vn -0.814 -0.2297 0.5334
vn -0.7873 -0.4649 -0.405
vn -0.8427 -0.0095 0.5383
vn -0.6037 0.5901 0.536
vn -0.7364 0.4135 0.5354
vn -0.8014 0.2038 0.5624
vn -0.7978 -0.2242 0.5597
vn -0.7248 -0.4286 0.5395
vn -0.5908 0.5806 0.5603
vn -0.4284 0.7262 0.5376
vn -0.86 -0.5104 0
vn -0.7422 -0.4371 0.508
vn -0.5855 -0.594 0.5517
vn -0.6995 -0.7147 0
vn -0.5979 -0.6098 0.5202
vn -0.6407 -0.6523 -0.405
vn -0.5993 -0.8005 0
vn -0.5068 -0.6797 0.5303
vn -0.4976 -0.664 0.5581
vn -0.2271 0.8048 0.5484
vn -0.0123 0.8347 0.5506
vn 0.2038 0.8014 0.5624
vn 0.2094 0.8176 0.5364
vn 0.4135 0.7364 0.5354
vn 0.4219 0.7536 0.504
vn -0.0122 0.8528 0.522
vn 0.2239 0.8852 -0.4078
vn -0.2325 0.8207 0.522
vn -0.0117 0.9172 -0.3983
vn -0.4369 0.7436 0.5062
vn -0.4652 0.7862 -0.4069
vn -0.0131 0.9997 -0.0192
vn -0.2438 0.881 -0.4054
vn -0.2709 0.9624 -0.0208
vn 0.2479 0.9686 -0.0206
vn -0.27 0.962 0.0411
vn -0.0134 0.9991 0.0401
vn 0.2467 0.9683 0.0405
vn 0.2391 0.9522 0.1904
vn -0.5007 0.8436 0.194
vn -0.2646 0.9448 0.1933
vn -0.2709 0.9577 0.0972
vn -0.0104 0.9821 0.1881
vn -0.0101 0.9887 0.1493
vn 0.2465 0.9644 0.0958
vn 0.4843 0.8618 0.1507
vn 0.6963 0.711 0.0986
vn 0.8496 0.5051 0.1517
vn 0.9577 0.2709 0.0972
vn 0.9886 0.0147 0.1499
vn 0.965 -0.2438 0.097
vn 0.8624 -0.4838 0.1491
vn 0.7118 -0.6956 0.0971
vn 0.5028 -0.8513 0.15
vn 0.2696 -0.9579 0.0985
vn 0.0112 -0.9885 0.1507
vn 0.0115 -0.9823 0.187
vn 0.2633 -0.9449 0.1947
vn -0.2453 -0.9646 0.0971
vn -0.3684 -0.9288 0.0392
vn -0.3652 -0.9102 0.1955
vn -0.2377 -0.9522 0.1918
vn 0.0123 -0.9991 0.0412
vn 0.2718 -0.9614 0.0424
vn 0.2692 -0.9629 -0.0196
vn -0.2484 -0.9678 0.0418
vn -0.3693 -0.9284 0.0419
vn -0.3718 -0.9281 -0.0207
vn 0.0121 -0.9997 -0.0202
vn 0.2454 -0.8812 -0.404
vn -0.2462 -0.969 -0.0193
vn -0.3364 -0.8487 -0.408
vn -0.2254 -0.8855 -0.4064
vn -0.3126 -0.7864 0.5328
vn 0.0104 -0.9181 -0.3962
vn 0.2306 -0.8226 0.5197
vn 0.0108 -0.8618 0.5071
vn -0.2102 -0.8272 0.521
vn -0.205 -0.8092 0.5507
vn -0.3072 -0.7695 0.5599
vn -0.371 -0.9287 0
vn -0.2473 -0.9689 0
vn 0.0109 -0.8423 0.5389
vn 0.0119 -0.9999 0
vn 0.2254 -0.8044 0.5497
vn 0.2699 -0.9629 0
vn 0.4328 -0.735 0.522
vn 0.424 -0.7171 0.5532
vn -0.7249 0.0042 0.6889
vn -0.9716 -0.0131 0.2363
vn -0.9673 0.2307 0.1058
vn -0.7236 -0.021 0.6899
vn -0.9643 -0.234 0.1241
vn -0.9637 -0.239 -0.1189
vn -0.8928 -0.4504 0
vn -0.8975 -0.4409 0
vn -0.9716 -0.0131 -0.2363
vn -0.7249 -0.0239 -0.6884
vn -0.7263 0.0069 -0.6874
vn -0.9673 0.2307 -0.1058
vn -0.867 0.4983 -0.0013
vn -0.8633 0.5046 -0.0013
vn -0.7015 0.7126 -0.0014
vn -0.7071 0.7071 -0.0014
vn -0.2717 0.9624 0.0012
vn -0.9625 -0.2706 -0.0196
vn -0.9618 -0.2704 0.0424
vn -0.86 -0.5086 0.0413
vn -0.8606 -0.509 -0.019
vn -0.6972 -0.7156 0.0427
vn -0.8443 -0.5002 0.1923
vn -0.6845 -0.7015 0.1982
vn -0.5989 -0.7999 0.0394
vn -0.5992 -0.8003 -0.0194
vn -0.5893 -0.7862 0.1862
vn -0.6978 -0.716 -0.0196
vn -0.5473 -0.7303 -0.4088
vn -0.6941 -0.7133 0.0971
vn -0.5775 -0.7768 0.2511
vn -0.8502 -0.5046 0.15
vn -0.9453 -0.2617 0.1945
vn -0.9584 -0.2681 0.0984
vn -0.9886 -0.0101 0.1505
vn -0.9822 -0.0127 0.1872
vn -0.9992 -0.0113 0.039
vn -0.9513 0.2422 0.1908
vn -0.9644 0.2465 0.0958
vn -0.8618 0.4843 0.1507
vn 0.1269 0.9919 -0.0099
vn 0.1932 0.958 -0.2119
vn 0.1911 0.9095 -0.3692
vn 0 -0.001 -1
vn 0.1198 0.9927 -0.0121
vn -0.1606 -0.2871 -0.9443
vn -0.1754 -0.2836 -0.9428
vn -0.5534 -0.759 -0.3431
vn -0.5627 -0.7551 -0.3363
vn -0.5627 -0.7551 0.3363
vn -0.5534 -0.759 0.3431
vn -0.1903 -0.3092 0.9318
vn -0.1676 -0.2981 0.9397
vn -0.0134 0.963 -0.2691
vn -0.1409 0.417 -0.8979
vn -0.2329 -0.0789 -0.9693
vn -0.1252 -0.0707 -0.9896
vn -0.1115 -0.1151 -0.9871
vn -0.045 -0.1834 -0.982
vn -0.0768 -0.2167 -0.9732
vn -0.3225 -0.5757 -0.7514
vn -0.3186 -0.5713 -0.7564
vn -0.5861 -0.793 -0.1662
vn -0.5906 -0.791 -0.1597
vn -0.5861 -0.793 0.1662
vn -0.5906 -0.791 0.1597
vn -0.3225 -0.5757 0.7514
vn -0.3186 -0.5713 0.7564
vn -0.0766 -0.2138 0.9739
vn -0.0449 -0.1807 0.9825
vn -0.1252 -0.0707 0.9896
vn -0.1115 -0.1151 0.9871
vn -0.2305 -0.0814 0.9697
vn -0.1409 0.417 0.8979
vn -0.0134 0.963 0.2691
vn 0.109 0.0011 -0.994
vn 0.109 -0.012 -0.994
vn 0.1104 0.0142 -0.9938
vn 0.1807 -0.3073 0.9343
vn 0.1963 -0.3071 0.9312
vn -0.1606 -0.2871 0.9443
vn -0.1754 -0.2836 0.9428
vn -0.1903 -0.3092 -0.9318
vn -0.1676 -0.2981 -0.9397
vn 0.1735 -0.2961 0.9393
vn 0.1883 -0.2893 0.9385
vn 0.0872 -0.0953 0.9916
vn 0.1163 -0.1103 0.9871
vn 0.1088 -0.1438 0.9836
vn 0.1033 -0.1759 0.979
vn 0.1883 -0.2893 -0.9385
vn 0.1735 -0.2961 -0.9393
vn 0.0972 -0.0961 -0.9906
vn 0.1074 -0.1277 -0.986
vn 0.1096 -0.1547 -0.9819
vn 0.0884 -0.1494 -0.9848
vn 0.492 0.8706 -0.0013
vn 0.6988 0.7154 -0.0014
vn 0.8615 0.5078 -0.0013
vn 0.9632 0.2688 -0.0012
vn 0.9632 0.2688 0.0012
vn 0.9999 0.0109 -0.001
vn 0.9734 -0.2292 0
vn 0.9753 -0.221 0
vn 0.9123 -0.4096 0
vn 0.9036 -0.4284 0
vn 0.7993 -0.6009 0
vn 0.37 -0.7286 0.5763
vn 0.2175 -0.4305 0.876
vn 0.0625 -0.8166 0.5738
vn 0.0726 -0.9501 0.3033
vn 0.4311 -0.8418 0.3249
vn 0.0438 -0.9725 0.2288
vn 0.4398 -0.863 0.2487
vn -0.107 -0.9899 0.0931
vn -0.3078 -0.9482 0.0783
vn 0.2654 -0.9597 0.0927
vn -0.1169 -0.9911 0.0642
vn -0.3074 -0.9494 0.0646
vn 0.2684 -0.961 0.0658
vn 0.6903 0.7235 0.0014
vn 0.696 0.7181 0.0014
vn 0.852 0.5236 -0.0013
vn 0.8615 0.5078 0.0013
vn 0.9491 0.241 0.2029
vn 0.9237 0.0038 0.3831
vn 0.7289 0.0014 0.6846
vn 0.7317 -0.0267 0.6811
vn 0.9686 -0.2487 0
vn 0.9546 -0.2192 0.2017
vn 0.896 -0.4441 0
vn 0.888 -0.4598 0
vn 0.6903 0.7235 -0.0014
vn 0.696 0.7181 -0.0014
vn 0.9492 0.2383 -0.2056
vn 0.9237 0.0038 -0.3831
vn 0.7289 0.0014 -0.6846
vn 0.7317 -0.0267 -0.6811
vn 0.9547 -0.2165 -0.2044
vn 0.1507 -0.9885 -0.0112
vn 0.2158 -0.9535 -0.2104
vn 0.1431 -0.9896 -0.0112
vn 0.2205 -0.944 -0.2453
vn 0.1807 -0.3073 -0.9343
vn 0.1963 -0.3071 -0.9312
vn 0.3144 -0.5598 0.7667
vn 0.1128 -0.7078 0.6974
vn 0.0417 -0.9685 0.2455
vn 0.0417 -0.9685 -0.2455
vn 0.1128 -0.7078 -0.6974
vn 0.3144 -0.5598 -0.7667
vn 0.8635 -0.4956 0.0937
vn 0.9909 -0.1181 0.0642
vn 0.9894 -0.1108 0.0933
vn 0.8715 -0.4859 0.0668
vn 0.9603 0.2635 0.0913
vn 0.9613 0.2672 0.0671
vn 0.9215 -0.3 0.2469
vn 0.8632 0.4384 0.2503
vn 0.7797 0.6194 0.0918
vn 0.7838 0.6176 0.0645
vn 0.4886 0.87 0.0654
vn 0.4962 0.863 0.0953
vn 0.842 0.4296 0.3265
vn 0.7293 0.3753 0.572
vn 0.7579 -0.2469 0.6038
vn 0.9004 -0.2917 0.3228
vn 0.6204 -0.7791 0.0903
vn 0.6167 -0.7845 0.066
vn 0.4685 -0.7792 -0.4164
vn 0.5086 -0.8607 -0.0218
vn 0.7146 -0.6992 -0.0196
vn 0.6562 -0.6413 -0.3977
vn 0.6081 -0.5996 0.5203
vn 0.5102 -0.8591 0.0414
vn 0.4985 -0.8453 0.1922
vn 0.7031 -0.6829 0.1982
vn 0.7142 -0.6986 0.0427
vn 0.8567 -0.4791 0.191
vn 0.8713 -0.4891 0.0411
vn 0.9509 -0.2425 0.1923
vn 0.9681 -0.2469 0.0418
vn 0.8709 -0.4909 -0.0216
vn 0.9687 -0.2476 -0.0193
vn 0.7924 -0.448 -0.414
vn 0.9991 0.0134 0.0401
vn 0.9821 0.0104 0.1881
vn 0.9457 0.2614 0.193
vn 0.7439 -0.4197 0.5201
vn 0.8457 0.4972 0.1938
vn 0.962 0.27 0.0411
vn 0.5957 -0.5838 0.5517
vn 0.6824 0.7041 0.1965
vn 0.8585 0.5112 0.04
vn 0.6979 0.715 0.0412
vn 0.5088 -0.8609 0
vn 0.716 -0.6981 0
vn 0.8709 -0.4914 0
vn 0.4885 0.8717 0.0397
vn 0.7265 -0.4144 0.5482
vn 0.8026 -0.2037 0.5606
vn 0.8188 -0.2093 0.5346
vn 0.8437 0.0095 0.5367
vn 0.804 0.2238 0.5509
vn 0.8631 0.0094 0.5049
vn 0.8223 0.229 0.521
vn 0.9176 0.0091 -0.3973
vn 0.8861 -0.2237 -0.406
vn 0.9997 0.0131 -0.0192
vn 0.8797 0.2473 -0.4061
vn 0.9624 0.2709 -0.0208
vn 0.7886 0.4615 -0.4064
vn 0.8602 0.5096 -0.0204
vn 0.7349 0.431 0.5235
vn 0.6369 0.6502 -0.4141
vn 0.6999 0.7139 -0.021
vn 0.7199 0.422 0.5511
vn 0.5901 0.6037 0.536
vn 0.5772 0.5941 0.5603
vn 0.492 0.8706 0.0013
vn 0.4428 0.8003 -0.4042
vn 0.4904 0.8713 -0.0203
vn 0.4796 0.8561 0.1927
vn 0.351 -0.5639 -0.7475
vn 0.604 -0.7764 -0.18
vn 0.6096 -0.7727 -0.1768
vn 0.604 -0.7764 0.18
vn 0.6096 -0.7727 0.1768
vn 0.351 -0.5639 0.7475
vn 0.5794 -0.7516 -0.3154
vn 0.5918 -0.7446 -0.3088
vn 0.5794 -0.7516 0.3154
vn 0.5918 -0.7446 0.3088
o bullet16__p0_c0
f 1/1/1 2/2/2 3/3/2
f 3/3/2 2/2/2 4/4/3
f 2/2/2 1/1/1 5/5/1
f 4/4/3 2/2/2 6/6/3
f 5/5/1 1/1/1 7/7/4
f 4/4/3 6/6/3 8/8/5
f 5/5/1 7/7/4 9/9/6
f 8/8/5 6/6/3 10/10/7
f 8/8/5 10/10/7 11/11/8
f 11/11/8 10/10/7 12/12/8
f 9/9/6 7/7/4 13/13/9
f 13/13/9 7/7/4 14/14/9
f 13/13/9 14/14/9 15/15/10
f 13/13/9 15/15/10 16/16/10
f 16/16/10 15/15/10 17/17/11
f 17/17/11 15/15/10 18/18/11
f 17/17/11 18/18/11 19/19/12
f 17/17/11 19/19/12 20/20/13
f 20/20/13 19/19/12 21/21/14
f 20/20/13 21/21/14 22/22/15
f 23/23/2 24/24/16 25/25/17
f 24/24/16 23/23/2 26/26/2
f 24/24/16 26/26/2 27/27/18
f 24/24/16 27/27/18 28/28/19
f 26/26/2 23/23/2 29/29/20
f 29/29/20 23/23/2 30/30/21
f 26/26/2 29/29/20 31/31/3
f 28/28/19 27/27/18 32/32/6
f 31/31/3 29/29/20 33/33/5
f 28/28/19 32/32/6 34/34/9
f 31/31/3 33/33/5 35/35/7
f 35/35/7 33/33/5 36/36/8
f 35/35/7 36/36/8 37/37/8
f 34/34/9 32/32/6 38/38/9
f 34/34/9 38/38/9 39/39/10
f 34/34/9 39/39/10 40/40/22
f 40/40/22 39/39/10 41/41/11
f 40/40/22 41/41/11 42/42/11
f 42/42/11 41/41/11 43/43/13
f 43/43/13 41/41/11 44/44/12
f 43/43/13 44/44/12 45/45/14
f 45/45/14 44/44/12 46/46/14
f 47/47/23 48/48/24 49/49/25
f 49/49/25 48/48/24 50/50/26
f 47/47/23 49/49/25 51/51/27
f 49/49/25 50/50/26 52/52/28
f 49/49/25 52/52/28 51/51/27
f 52/52/28 50/50/26 53/53/29
f 52/52/28 53/53/29 54/54/30
f 47/47/23 51/51/27 55/55/31
f 52/52/28 54/54/30 56/56/32
f 52/52/28 56/56/32 51/51/27
f 56/56/32 54/54/30 57/57/33
f 55/55/31 51/51/27 58/58/34
f 51/51/27 56/56/32 59/59/35
f 51/51/27 59/59/35 58/58/34
f 55/55/31 58/58/34 60/60/36
f 56/56/32 57/57/33 61/61/37
f 56/56/32 61/61/37 59/59/35
f 61/61/37 57/57/33 62/62/38
f 62/62/38 57/57/33 63/63/39
f 59/59/35 61/61/37 64/64/40
f 64/64/40 61/61/37 62/62/38
f 62/62/38 63/63/39 65/65/41
f 62/62/38 65/65/41 64/64/40
f 65/65/41 63/63/39 66/66/42
f 65/65/41 66/66/42 67/67/43
f 65/65/41 67/67/43 68/68/44
f 65/65/41 68/68/44 64/64/40
f 64/64/40 68/68/44 69/69/45
f 64/64/40 69/69/45 70/70/46
f 64/64/40 70/70/46 59/59/35
f 70/70/46 69/69/45 71/71/47
f 59/59/35 70/70/46 72/72/48
f 59/59/35 72/72/48 58/58/34
f 70/70/46 71/71/47 73/73/49
f 70/70/46 73/73/49 72/72/48
f 73/73/49 71/71/47 74/74/50
f 73/73/49 74/74/50 75/75/51
f 72/72/48 73/73/49 76/76/52
f 76/76/52 73/73/49 75/75/51
f 58/58/34 72/72/48 77/77/53
f 77/77/53 72/72/48 76/76/52
f 77/77/53 76/76/52 75/75/51
f 58/58/34 77/77/53 60/60/36
f 77/77/53 75/75/51 78/78/54
f 77/77/53 78/78/54 60/60/36
f 79/79/55 80/80/56 81/81/57
f 81/81/57 80/80/56 82/82/56
f 83/83/58 79/79/55 84/84/59
f 84/84/59 79/79/55 81/81/57
f 85/85/60 86/86/61 83/83/58
f 85/85/60 83/83/58 84/84/59
f 85/85/60 84/84/59 87/87/62
f 86/86/61 85/85/60 88/88/63
f 87/87/62 84/84/59 89/89/64
f 85/85/60 87/87/62 90/90/65
f 85/85/60 90/90/65 88/88/63
f 90/90/65 87/87/62 89/89/64
f 86/86/61 88/88/63 91/91/66
f 86/86/61 91/91/66 92/92/67
f 88/88/63 90/90/65 93/93/68
f 91/91/66 88/88/63 94/94/69
f 94/94/69 88/88/63 93/93/68
f 93/93/68 90/90/65 95/95/70
f 95/95/70 90/90/65 89/89/64
f 92/92/67 91/91/66 96/96/71
f 96/96/71 91/91/66 94/94/69
f 92/92/67 96/96/71 97/97/72
f 92/92/67 97/97/72 98/98/73
f 96/96/71 94/94/69 99/99/74
f 97/97/72 96/96/71 100/100/75
f 100/100/75 96/96/71 99/99/74
f 98/98/73 97/97/72 101/101/76
f 101/101/76 97/97/72 100/100/75
f 98/98/73 101/101/76 102/102/77
f 98/98/73 102/102/77 103/103/78
f 101/101/76 100/100/75 104/104/79
f 101/101/76 104/104/79 102/102/77
f 105/105/80 99/99/74 94/94/69
f 105/105/80 94/94/69 93/93/68
f 106/106/81 100/100/75 99/99/74
f 106/106/81 99/99/74 105/105/80
f 104/104/79 100/100/75 107/107/82
f 107/107/82 100/100/75 106/106/81
f 104/104/79 107/107/82 108/108/18
f 108/108/18 107/107/82 106/106/81
f 104/104/79 108/108/18 109/109/2
f 108/108/18 106/106/81 110/110/6
f 104/104/79 109/109/2 111/111/3
f 110/110/6 106/106/81 112/112/9
f 104/104/79 111/111/3 113/113/83
f 104/104/79 113/113/83 102/102/77
f 113/113/83 111/111/3 114/114/84
f 113/113/83 114/114/84 102/102/77
f 112/112/9 106/106/81 115/115/85
f 115/115/85 106/106/81 105/105/80
f 112/112/9 115/115/85 116/116/86
f 116/116/86 115/115/85 105/105/80
f 112/112/9 116/116/86 117/117/10
f 114/114/84 111/111/3 118/118/87
f 102/102/77 114/114/84 119/119/88
f 102/102/77 119/119/88 103/103/78
f 114/114/84 118/118/87 120/120/89
f 120/120/89 118/118/87 121/121/90
f 119/119/88 114/114/84 122/122/91
f 119/119/88 122/122/91 103/103/78
f 122/122/91 114/114/84 120/120/89
f 103/103/78 122/122/91 123/123/92
f 120/120/89 121/121/90 124/124/93
f 123/123/92 122/122/91 125/125/94
f 125/125/94 122/122/91 120/120/89
f 120/120/89 124/124/93 126/126/95
f 120/120/89 126/126/95 125/125/94
f 127/127/96 117/117/10 116/116/86
f 117/117/10 127/127/96 128/128/11
f 128/128/11 127/127/96 129/129/97
f 128/128/11 129/129/97 130/130/13
f 130/130/13 129/129/97 131/131/98
f 130/130/13 131/131/98 132/132/15
f 131/131/98 129/129/97 133/133/99
f 131/131/98 133/133/99 134/134/100
f 134/134/100 133/133/99 135/135/101
f 133/133/99 129/129/97 136/136/102
f 136/136/102 129/129/97 127/127/96
f 133/133/99 136/136/102 137/137/103
f 136/136/102 127/127/96 138/138/104
f 138/138/104 127/127/96 116/116/86
f 137/137/103 136/136/102 139/139/105
f 138/138/104 116/116/86 140/140/106
f 140/140/106 116/116/86 105/105/80
f 140/140/106 105/105/80 141/141/107
f 140/140/106 141/141/107 138/138/104
f 141/141/107 105/105/80 93/93/68
f 141/141/107 93/93/68 95/95/70
f 137/137/103 139/139/105 142/142/108
f 143/143/109 136/136/102 138/138/104
f 136/136/102 143/143/109 139/139/105
f 143/143/109 138/138/104 141/141/107
f 139/139/105 143/143/109 142/142/108
f 141/141/107 95/95/70 144/144/110
f 141/141/107 144/144/110 143/143/109
f 143/143/109 144/144/110 142/142/108
f 144/144/110 95/95/70 89/89/64
f 145/145/111 137/137/103 142/142/108
f 144/144/110 89/89/64 146/146/112
f 144/144/110 146/146/112 142/142/108
f 145/145/111 142/142/108 147/147/113
f 147/147/113 142/142/108 146/146/112
f 145/145/111 147/147/113 148/148/114
f 148/148/114 147/147/113 149/149/115
f 146/146/112 89/89/64 150/150/116
f 150/150/116 89/89/64 84/84/59
f 150/150/116 84/84/59 81/81/57
f 146/146/112 150/150/116 151/151/117
f 151/151/117 150/150/116 81/81/57
f 146/146/112 151/151/117 147/147/113
f 151/151/117 81/81/57 152/152/118
f 152/152/118 81/81/57 82/82/56
f 147/147/113 151/151/117 153/153/119
f 153/153/119 151/151/117 152/152/118
f 147/147/113 153/153/119 149/149/115
f 152/152/118 82/82/56 154/154/120
f 152/152/118 154/154/120 153/153/119
f 153/153/119 154/154/120 149/149/115
f 154/154/120 82/82/56 155/155/56
f 149/149/115 154/154/120 156/156/121
f 156/156/121 154/154/120 155/155/56
f 156/156/121 155/155/56 157/157/122
f 157/157/122 155/155/56 158/158/56
f 157/157/122 158/158/56 159/159/123
f 159/159/123 158/158/56 160/160/124
f 160/160/124 158/158/56 161/161/56
f 160/160/124 161/161/56 162/162/125
f 162/162/125 161/161/56 163/163/126
f 163/163/126 161/161/56 164/164/56
f 163/163/126 164/164/56 165/165/127
f 165/165/127 164/164/56 166/166/128
f 166/166/128 164/164/56 167/167/56
f 166/166/128 167/167/56 168/168/129
f 168/168/129 167/167/56 169/169/130
f 169/169/130 167/167/56 170/170/56
f 169/169/130 170/170/56 171/171/131
f 171/171/131 170/170/56 172/172/132
f 172/172/132 170/170/56 173/173/56
f 171/171/131 172/172/132 174/174/133
f 171/171/131 174/174/133 175/175/134
f 172/172/132 173/173/56 176/176/135
f 176/176/135 173/173/56 177/177/136
f 176/176/135 177/177/136 178/178/137
f 172/172/132 176/176/135 179/179/138
f 172/172/132 179/179/138 174/174/133
f 179/179/138 176/176/135 178/178/137
f 175/175/134 174/174/133 180/180/139
f 180/180/139 174/174/133 179/179/138
f 175/175/134 180/180/139 181/181/140
f 181/181/140 180/180/139 182/182/141
f 179/179/138 178/178/137 183/183/142
f 179/179/138 183/183/142 180/180/139
f 183/183/142 178/178/137 184/184/143
f 183/183/142 184/184/143 185/185/144
f 182/182/141 180/180/139 186/186/145
f 186/186/145 180/180/139 183/183/142
f 182/182/141 186/186/145 187/187/146
f 183/183/142 185/185/144 188/188/147
f 183/183/142 188/188/147 186/186/145
f 188/188/147 185/185/144 189/189/148
f 188/188/147 189/189/148 190/190/149
f 188/188/147 190/190/149 186/186/145
f 190/190/149 189/189/148 125/191/150
f 187/187/146 186/186/145 191/192/151
f 191/192/151 186/186/145 190/190/149
f 187/187/146 191/192/151 192/193/152
f 191/192/151 190/190/149 193/194/153
f 191/192/151 193/194/153 192/193/152
f 190/190/149 125/191/150 194/195/154
f 190/190/149 194/195/154 193/194/153
f 194/195/154 125/191/150 195/196/155
f 195/196/155 125/191/150 126/197/156
f 195/196/155 126/197/156 124/198/157
f 195/196/155 124/198/157 196/199/158
f 194/195/154 195/196/155 197/200/159
f 194/195/154 197/200/159 193/194/153
f 197/200/159 195/196/155 196/199/158
f 193/194/153 197/200/159 192/193/152
f 197/200/159 196/199/158 198/201/160
f 192/193/152 197/200/159 199/202/161
f 199/202/161 197/200/159 198/201/160
f 199/202/161 198/201/160 200/203/162
f 192/193/152 199/202/161 201/204/163
f 201/204/163 199/202/161 202/205/164
f 203/206/165 204/207/166 205/208/167
f 204/207/166 203/206/165 206/209/168
f 204/207/166 206/209/168 207/210/169
f 204/207/166 207/210/169 208/211/170
f 208/211/170 207/210/169 209/212/171
f 209/212/171 207/210/169 210/213/172
f 209/212/171 210/213/172 211/214/8
f 211/214/8 210/213/172 212/215/8
f 204/207/166 208/211/170 213/216/173
f 204/207/166 213/216/173 205/208/167
f 213/216/173 208/211/170 214/217/174
f 213/216/173 214/217/174 215/218/175
f 213/216/173 215/218/175 216/219/176
f 213/216/173 216/219/176 205/208/167
f 205/208/167 216/219/176 217/220/177
f 217/220/177 216/219/176 218/221/178
f 217/220/177 218/221/178 219/222/179
f 219/222/179 218/221/178 220/223/180
f 219/222/179 220/223/180 221/224/10
f 219/222/179 221/224/10 222/225/10
f 222/225/10 221/224/10 223/226/181
f 222/225/10 223/226/181 224/227/11
f 224/227/11 223/226/181 225/228/13
f 224/227/11 225/228/13 226/229/13
f 226/229/13 225/228/13 227/230/15
f 226/229/13 227/230/15 228/231/15
f 229/232/182 230/233/183 92/92/67
f 229/232/182 92/92/67 98/98/73
f 230/233/183 229/232/182 231/234/184
f 229/232/182 98/98/73 103/103/78
f 231/234/184 229/232/182 232/235/185
f 232/235/185 229/232/182 103/103/78
f 231/234/184 232/235/185 233/236/186
f 230/233/183 231/234/184 234/237/187
f 231/234/184 233/236/186 235/238/188
f 231/234/184 235/238/188 234/237/187
f 235/238/188 233/236/186 184/239/189
f 184/239/189 233/236/186 185/240/190
f 235/238/188 184/239/189 178/241/191
f 185/240/190 233/236/186 236/242/192
f 236/242/192 233/236/186 232/235/185
f 185/240/190 236/242/192 189/243/193
f 236/242/192 232/235/185 123/123/92
f 236/242/192 123/123/92 189/243/193
f 123/123/92 232/235/185 103/103/78
f 189/243/193 123/123/92 125/125/94
f 235/238/188 178/241/191 237/244/194
f 235/238/188 237/244/194 234/237/187
f 237/244/194 178/241/191 177/245/195
f 237/244/194 177/245/195 238/246/56
f 238/246/56 177/245/195 173/247/56
f 237/244/194 238/246/56 239/248/196
f 237/244/194 239/248/196 234/237/187
f 239/248/196 238/246/56 240/249/56
f 234/237/187 239/248/196 241/250/197
f 234/237/187 241/250/197 230/233/183
f 239/248/196 240/249/56 242/251/198
f 239/248/196 242/251/198 241/250/197
f 242/251/198 240/249/56 243/252/199
f 243/252/199 240/249/56 244/253/56
f 241/250/197 242/251/198 245/254/200
f 245/254/200 242/251/198 243/252/199
f 230/233/183 241/250/197 246/255/201
f 246/255/201 241/250/197 245/254/200
f 230/233/183 246/255/201 92/92/67
f 245/254/200 243/252/199 247/256/202
f 245/254/200 247/256/202 246/255/201
f 243/252/199 244/253/56 248/257/203
f 243/252/199 248/257/203 247/256/202
f 248/257/203 244/253/56 249/258/204
f 249/258/204 244/253/56 80/80/56
f 247/256/202 248/257/203 83/83/58
f 83/83/58 248/257/203 249/258/204
f 246/255/201 247/256/202 86/86/61
f 246/255/201 86/86/61 92/92/67
f 86/86/61 247/256/202 83/83/58
f 249/258/204 80/80/56 79/79/55
f 249/258/204 79/79/55 83/83/58
f 250/259/205 24/260/206 251/261/207
f 252/262/208 253/263/208 254/264/208
f 253/263/208 252/262/208 255/265/208
f 255/265/208 252/262/208 256/266/208
f 255/265/208 256/266/208 200/267/208
f 255/265/208 200/267/208 257/268/208
f 257/268/208 200/267/208 198/269/208
f 257/268/208 198/269/208 258/270/208
f 258/270/208 198/269/208 259/271/208
f 259/271/208 198/269/208 196/272/208
f 259/271/208 196/272/208 260/273/208
f 260/273/208 196/272/208 124/274/208
f 260/273/208 124/274/208 132/275/208
f 132/275/208 124/274/208 121/276/208
f 132/275/208 121/276/208 118/277/208
f 132/275/208 118/277/208 130/278/208
f 130/278/208 118/277/208 111/279/208
f 130/278/208 111/279/208 128/280/208
f 128/280/208 111/279/208 117/281/208
f 117/281/208 111/279/208 109/282/208
f 117/281/208 109/282/208 108/283/208
f 117/281/208 108/283/208 112/284/208
f 112/284/208 108/283/208 110/285/208
f 24/260/206 250/259/205 25/286/209
f 251/261/207 24/260/206 28/287/208
f 251/261/207 28/287/208 261/288/208
f 261/288/208 28/287/208 34/289/208
f 261/288/208 34/289/208 40/290/208
f 261/288/208 40/290/208 262/291/208
f 262/291/208 40/290/208 42/292/208
f 262/291/208 42/292/208 43/293/208
f 262/291/208 43/293/208 263/294/208
f 263/294/208 43/293/208 45/295/208
f 263/294/208 45/295/208 264/296/208
f 263/294/208 264/296/208 265/297/208
f 265/297/208 264/296/208 266/298/208
f 265/297/208 266/298/208 267/299/208
f 265/297/208 267/299/208 268/300/208
f 268/300/208 267/299/208 269/301/208
f 268/300/208 269/301/208 270/302/208
f 268/300/208 270/302/208 271/303/208
f 271/303/208 270/302/208 272/304/208
f 271/303/208 272/304/208 273/305/210
f 271/303/208 273/305/210 274/306/211
f 274/306/211 273/305/210 275/307/212
f 274/306/211 275/307/212 276/308/213
f 276/308/213 275/307/212 277/309/214
f 277/309/214 275/307/212 278/310/215
f 277/309/214 278/310/215 279/311/216
f 279/311/216 278/310/215 280/312/217
f 279/311/216 280/312/217 206/313/56
f 206/313/56 280/312/217 281/314/56
f 203/315/12 205/316/218 282/317/12
f 282/317/12 205/316/218 283/318/219
f 283/318/219 205/316/218 217/319/220
f 283/318/219 217/319/220 284/320/221
f 284/320/221 217/319/220 219/321/222
f 284/320/221 219/321/222 222/322/208
f 284/320/221 222/322/208 285/323/208
f 285/323/208 222/322/208 224/324/208
f 285/323/208 224/324/208 226/325/208
f 285/323/208 226/325/208 286/326/208
f 286/326/208 226/325/208 228/327/208
f 286/326/208 228/327/208 287/328/208
f 286/326/208 287/328/208 288/329/208
f 288/329/208 287/328/208 289/330/208
f 288/329/208 289/330/208 290/331/208
f 288/329/208 290/331/208 291/332/208
f 291/332/208 290/331/208 292/333/208
f 291/332/208 292/333/208 293/334/208
f 291/332/208 293/334/208 294/335/223
f 294/335/223 293/334/208 295/336/224
f 294/335/223 295/336/224 296/337/225
f 296/337/225 295/336/224 297/338/226
f 296/337/225 297/338/226 298/339/227
f 296/337/225 298/339/227 299/340/228
f 299/340/228 298/339/227 300/341/229
f 299/340/228 300/341/229 301/342/230
f 301/342/230 300/341/229 302/343/231
f 302/343/231 300/341/229 303/344/232
f 302/343/231 303/344/232 304/345/233
f 302/343/231 304/345/233 305/346/234
f 305/346/234 304/345/233 306/347/56
f 305/346/234 306/347/56 307/348/56
f 307/348/56 306/347/56 308/349/56
f 307/348/56 308/349/56 309/350/56
f 307/348/56 309/350/56 310/351/56
f 310/351/56 309/350/56 311/352/56
f 310/351/56 311/352/56 312/353/56
f 310/351/56 312/353/56 313/354/56
f 313/354/56 312/353/56 227/355/56
f 313/354/56 227/355/56 225/356/56
f 313/354/56 225/356/56 314/357/56
f 314/357/56 225/356/56 223/358/56
f 314/357/56 223/358/56 221/359/56
f 314/357/56 221/359/56 315/360/235
f 315/360/235 221/359/56 220/361/236
f 315/360/235 220/361/236 218/362/237
f 315/360/235 218/362/237 316/363/238
f 316/363/238 218/362/237 216/364/239
f 316/363/238 216/364/239 317/365/13
f 317/365/13 216/364/239 215/366/13
f 23/367/240 25/368/241 318/369/240
f 318/369/240 25/368/241 250/370/241
f 23/367/240 318/369/240 30/371/242
f 30/371/242 318/369/240 319/372/242
f 8/373/243 320/374/244 321/375/56
f 8/373/243 321/375/56 4/376/56
f 4/376/56 321/375/56 3/377/56
f 3/377/56 321/375/56 322/378/56
f 3/377/56 322/378/56 1/379/56
f 1/379/56 322/378/56 7/380/56
f 7/380/56 322/378/56 323/381/56
f 7/380/56 323/381/56 14/382/56
f 14/382/56 323/381/56 15/383/56
f 15/383/56 323/381/56 324/384/56
f 15/383/56 324/384/56 18/385/56
f 18/385/56 324/384/56 19/386/56
f 19/386/56 324/384/56 325/387/56
f 19/386/56 325/387/56 21/388/56
f 21/388/56 325/387/56 326/389/56
f 326/389/56 325/387/56 327/390/56
f 326/389/56 327/390/56 328/391/56
f 328/391/56 327/390/56 329/392/56
f 329/392/56 327/390/56 330/393/56
f 329/392/56 330/393/56 331/394/56
f 329/392/56 331/394/56 332/395/56
f 332/395/56 331/394/56 333/396/56
f 332/395/56 333/396/56 334/397/56
f 334/397/56 333/396/56 335/398/56
f 335/398/56 333/396/56 336/399/56
f 335/398/56 336/399/56 337/400/245
f 337/400/245 336/399/56 338/401/246
f 337/400/245 338/401/246 339/402/215
f 339/402/215 338/401/246 340/403/214
f 339/402/215 340/403/214 341/404/213
f 339/402/215 341/404/213 342/405/212
f 342/405/212 341/404/213 343/406/247
f 342/405/212 343/406/247 344/407/248
f 344/407/248 343/406/247 214/408/208
f 344/407/248 214/408/208 345/409/208
f 35/410/249 346/411/250 31/412/56
f 31/412/56 346/411/250 347/413/56
f 31/412/56 347/413/56 26/414/56
f 26/414/56 347/413/56 348/415/56
f 26/414/56 348/415/56 27/416/56
f 27/416/56 348/415/56 32/417/56
f 32/417/56 348/415/56 349/418/56
f 32/417/56 349/418/56 38/419/56
f 38/419/56 349/418/56 39/420/56
f 39/420/56 349/418/56 350/421/56
f 39/420/56 350/421/56 41/422/56
f 41/422/56 350/421/56 44/423/56
f 44/423/56 350/421/56 351/424/56
f 44/423/56 351/424/56 46/425/56
f 46/425/56 351/424/56 352/426/56
f 352/426/56 351/424/56 353/427/251
f 352/426/56 353/427/251 354/428/252
f 355/429/253 353/427/251 356/430/254
f 355/429/253 356/430/254 203/431/56
f 355/429/253 203/431/56 282/432/56
f 357/433/208 358/434/208 2/435/208
f 2/435/208 358/434/208 6/436/208
f 6/436/208 358/434/208 359/437/255
f 6/436/208 359/437/255 10/438/256
f 357/433/208 2/435/208 5/439/208
f 357/433/208 5/439/208 9/440/208
f 357/433/208 9/440/208 360/441/208
f 360/441/208 9/440/208 13/442/208
f 360/441/208 13/442/208 16/443/208
f 360/441/208 16/443/208 361/444/208
f 361/444/208 16/443/208 17/445/208
f 361/444/208 17/445/208 20/446/208
f 361/444/208 20/446/208 362/447/208
f 362/447/208 20/446/208 22/448/208
f 362/447/208 22/448/208 363/449/208
f 362/447/208 363/449/208 364/450/257
f 364/450/257 363/449/208 365/451/258
f 366/452/259 365/451/258 367/453/260
f 366/452/259 367/453/260 215/454/208
f 215/454/208 367/453/260 317/455/208
f 228/231/15 227/230/15 287/456/261
f 287/456/261 227/230/15 312/457/261
f 287/456/261 312/457/261 289/458/262
f 289/458/262 312/457/261 311/459/262
f 289/458/262 311/459/262 309/460/263
f 289/458/262 309/460/263 290/461/263
f 290/461/263 309/460/263 308/462/264
f 290/461/263 308/462/264 292/463/265
f 292/463/265 308/462/264 306/464/266
f 292/463/265 306/464/266 293/465/266
f 293/465/266 306/464/266 304/466/267
f 293/465/266 304/466/267 295/467/268
f 295/467/268 304/466/267 303/468/269
f 295/467/268 303/468/269 297/469/270
f 297/469/270 303/468/269 298/470/271
f 298/470/271 303/468/269 300/471/271
f 354/428/252 353/427/251 355/429/253
f 364/450/257 365/451/258 366/452/259
f 368/472/272 75/473/273 74/474/274
f 368/472/272 74/474/274 71/475/275
f 368/472/272 71/475/275 369/476/276
f 369/476/276 71/475/275 69/477/277
f 369/476/276 69/477/277 370/478/278
f 370/478/278 69/477/277 371/479/279
f 371/479/279 69/477/277 68/480/280
f 370/478/278 371/479/279 372/481/281
f 371/479/279 68/480/280 373/482/282
f 371/479/279 373/482/282 372/481/281
f 373/482/282 68/480/280 67/483/283
f 372/481/281 373/482/282 374/484/284
f 22/22/15 21/21/14 326/485/261
f 22/22/15 326/485/261 363/486/261
f 363/486/261 326/485/261 365/487/285
f 365/487/285 326/485/261 328/488/286
f 365/487/285 328/488/286 367/489/287
f 367/489/287 328/488/286 329/490/288
f 367/489/287 329/490/288 317/491/289
f 317/491/289 329/490/288 332/492/264
f 317/491/289 332/492/264 334/493/266
f 317/491/289 334/493/266 375/494/290
f 317/491/289 375/494/290 316/495/291
f 316/495/291 375/494/290 376/496/292
f 375/494/290 334/493/266 335/497/293
f 376/496/292 375/494/290 345/498/294
f 345/498/294 375/494/290 335/497/293
f 345/498/294 335/497/293 337/499/295
f 345/498/294 337/499/295 344/500/296
f 344/500/296 337/499/295 342/501/271
f 342/501/271 337/499/295 339/502/271
f 45/45/14 46/46/14 264/503/261
f 264/503/261 46/46/14 352/504/261
f 264/503/261 352/504/261 354/505/297
f 264/503/261 354/505/297 266/506/298
f 266/506/298 354/505/297 355/507/287
f 266/506/298 355/507/287 267/508/288
f 267/508/288 355/507/287 269/509/264
f 269/509/264 355/507/287 282/510/299
f 269/509/264 282/510/299 377/511/300
f 377/511/300 282/510/299 283/512/301
f 377/511/300 283/512/301 378/513/302
f 269/509/264 377/511/300 270/514/266
f 377/511/300 378/513/302 281/515/303
f 377/511/300 281/515/303 270/514/266
f 270/514/266 281/515/303 272/516/293
f 272/516/293 281/515/303 273/517/295
f 273/517/295 281/515/303 280/518/296
f 273/517/295 280/518/296 278/519/271
f 273/517/295 278/519/271 275/520/271
f 319/521/304 29/522/305 30/523/306
f 379/524/307 33/525/308 29/522/305
f 33/525/308 379/524/307 380/526/309
f 209/527/310 376/528/311 208/529/312
f 208/529/312 376/528/311 345/530/160
f 208/529/312 345/530/160 214/531/160
f 207/532/313 206/533/160 281/534/160
f 207/532/313 281/534/160 378/535/314
f 207/532/313 378/535/314 210/536/315
f 381/537/316 382/538/317 383/539/318
f 382/538/317 381/537/316 384/540/319
f 383/539/318 382/538/317 385/541/320
f 385/541/320 382/538/317 386/542/321
f 381/537/316 383/539/318 387/543/322
f 383/539/318 385/541/320 388/544/323
f 383/539/318 388/544/323 387/543/322
f 385/541/320 386/542/321 389/545/324
f 385/541/320 389/545/324 388/544/323
f 389/545/324 386/542/321 390/546/325
f 389/545/324 390/546/325 391/547/326
f 389/545/324 391/547/326 392/548/327
f 389/545/324 392/548/327 388/544/323
f 392/548/327 391/547/326 48/48/24
f 392/548/327 48/48/24 47/47/23
f 392/548/327 47/47/23 55/55/31
f 392/548/327 55/55/31 388/544/323
f 388/544/323 55/55/31 393/549/328
f 388/544/323 393/549/328 387/543/322
f 393/549/328 55/55/31 60/60/36
f 393/549/328 60/60/36 394/550/329
f 394/550/329 60/60/36 78/78/54
f 394/550/329 78/78/54 75/75/51
f 394/550/329 75/75/51 395/551/330
f 393/549/328 394/550/329 396/552/331
f 396/552/331 394/550/329 395/551/330
f 393/549/328 396/552/331 387/543/322
f 396/552/331 395/551/330 368/472/272
f 368/472/272 395/551/330 75/473/273
f 396/552/331 368/472/272 369/476/276
f 396/552/331 369/476/276 387/543/322
f 387/543/322 369/476/276 370/478/278
f 387/543/322 370/478/278 381/537/316
f 381/537/316 370/478/278 397/553/332
f 397/553/332 370/478/278 372/481/281
f 381/537/316 397/553/332 384/540/319
f 397/553/332 372/481/281 374/484/284
f 384/540/319 397/553/332 398/554/333
f 398/554/333 397/553/332 374/484/284
f 192/193/152 201/204/163 187/187/146
f 187/187/146 201/204/163 399/555/334
f 187/187/146 399/555/334 182/182/141
f 182/182/141 399/555/334 400/556/335
f 182/182/141 400/556/335 181/181/140
f 400/556/335 399/555/334 401/557/336
f 399/555/334 201/204/163 402/558/337
f 399/555/334 402/558/337 401/557/336
f 402/558/337 201/204/163 403/559/338
f 403/559/338 201/204/163 202/205/164
f 181/181/140 400/556/335 404/560/339
f 404/560/339 400/556/335 401/557/336
f 181/181/140 404/560/339 405/561/340
f 181/181/140 405/561/340 175/175/134
f 175/175/134 405/561/340 169/169/130
f 175/175/134 169/169/130 171/171/131
f 169/169/130 405/561/340 168/168/129
f 405/561/340 404/560/339 406/562/341
f 405/561/340 406/562/341 168/168/129
f 404/560/339 401/557/336 407/563/342
f 404/560/339 407/563/342 406/562/341
f 168/168/129 406/562/341 408/564/343
f 168/168/129 408/564/343 166/166/128
f 166/166/128 408/564/343 165/165/127
f 408/564/343 406/562/341 409/565/344
f 409/565/344 406/562/341 407/563/342
f 165/165/127 408/564/343 410/566/345
f 165/165/127 410/566/345 163/163/126
f 408/564/343 409/565/344 411/567/346
f 408/564/343 411/567/346 410/566/345
f 409/565/344 407/563/342 412/568/347
f 412/568/347 407/563/342 401/557/336
f 411/567/346 409/565/344 413/569/348
f 413/569/348 409/565/344 412/568/347
f 412/568/347 401/557/336 414/570/349
f 412/568/347 414/570/349 413/569/348
f 414/570/349 401/557/336 402/558/337
f 415/571/350 410/566/345 411/567/346
f 415/571/350 411/567/346 413/569/348
f 416/572/351 163/163/126 410/566/345
f 416/572/351 410/566/345 415/571/350
f 163/163/126 416/572/351 417/573/352
f 417/573/352 416/572/351 415/571/350
f 163/163/126 417/573/352 162/162/125
f 418/574/353 414/570/349 402/558/337
f 418/574/353 402/558/337 403/559/338
f 162/162/125 417/573/352 419/575/354
f 162/162/125 419/575/354 160/160/124
f 417/573/352 415/571/350 420/576/355
f 417/573/352 420/576/355 419/575/354
f 418/574/353 403/559/338 421/577/356
f 160/160/124 419/575/354 422/578/357
f 160/160/124 422/578/357 159/159/123
f 419/575/354 420/576/355 423/579/358
f 419/575/354 423/579/358 422/578/357
f 159/159/123 422/578/357 157/157/122
f 421/577/356 403/559/338 202/205/164
f 422/578/357 423/579/358 424/580/359
f 200/203/162 202/205/164 199/202/161
f 202/205/164 200/203/162 256/581/360
f 202/205/164 256/581/360 252/582/361
f 202/205/164 252/582/361 421/577/356
f 421/577/356 252/582/361 254/583/362
f 422/578/357 424/580/359 425/584/363
f 421/577/356 254/583/362 426/585/364
f 421/577/356 426/585/364 418/574/353
f 426/585/364 254/583/362 427/586/365
f 427/586/365 254/583/362 253/587/293
f 418/574/353 426/585/364 428/588/366
f 428/588/366 426/585/364 427/586/365
f 427/586/365 253/587/293 429/589/367
f 427/586/365 429/589/367 428/588/366
f 429/589/367 253/587/293 255/590/266
f 418/574/353 428/588/366 414/570/349
f 429/589/367 255/590/266 430/591/368
f 430/591/368 255/590/266 257/592/264
f 428/588/366 429/589/367 431/593/369
f 430/591/368 257/592/264 258/594/263
f 431/593/369 429/589/367 432/595/370
f 432/595/370 429/589/367 430/591/368
f 428/588/366 431/593/369 433/596/371
f 433/596/371 431/593/369 432/595/370
f 434/597/372 414/570/349 428/588/366
f 434/597/372 428/588/366 433/596/371
f 414/570/349 434/597/372 413/569/348
f 413/569/348 434/597/372 435/598/373
f 435/598/373 434/597/372 433/596/371
f 413/569/348 435/598/373 415/571/350
f 433/596/371 432/595/370 436/599/374
f 433/596/371 436/599/374 435/598/373
f 415/571/350 435/598/373 437/600/375
f 437/600/375 435/598/373 436/599/374
f 415/571/350 437/600/375 420/576/355
f 436/599/374 432/595/370 438/601/376
f 436/599/374 438/601/376 437/600/375
f 420/576/355 437/600/375 439/602/377
f 439/602/377 437/600/375 438/601/376
f 420/576/355 439/602/377 423/579/358
f 438/601/376 432/595/370 440/603/378
f 440/603/378 432/595/370 430/591/368
f 439/602/377 438/601/376 441/604/379
f 441/604/379 438/601/376 440/603/378
f 423/579/358 439/602/377 442/605/380
f 442/605/380 439/602/377 441/604/379
f 423/579/358 442/605/380 424/580/359
f 424/580/359 442/605/380 425/584/363
f 440/603/378 430/591/368 443/606/381
f 443/606/381 430/591/368 258/594/263
f 441/604/379 440/603/378 444/607/382
f 444/607/382 440/603/378 443/606/381
f 443/606/381 258/594/263 445/608/383
f 443/606/381 445/608/383 444/607/382
f 445/608/383 258/594/263 259/609/262
f 445/608/383 259/609/262 134/134/100
f 445/608/383 134/134/100 444/607/382
f 134/134/100 259/609/262 260/610/384
f 134/134/100 260/610/384 132/132/15
f 134/134/100 132/132/15 131/131/98
f 444/607/382 134/134/100 135/135/101
f 444/607/382 135/135/101 446/611/385
f 444/607/382 446/611/385 441/604/379
f 446/611/385 135/135/101 133/133/99
f 446/611/385 133/133/99 137/137/103
f 446/611/385 137/137/103 145/145/111
f 441/604/379 446/611/385 447/612/386
f 447/612/386 446/611/385 145/145/111
f 441/604/379 447/612/386 442/605/380
f 442/605/380 447/612/386 425/584/363
f 425/584/363 447/612/386 145/145/111
f 425/584/363 145/145/111 148/148/114
f 425/584/363 148/148/114 448/613/387
f 425/584/363 448/613/387 422/578/357
f 448/613/387 148/148/114 149/149/115
f 422/578/357 448/613/387 157/157/122
f 157/157/122 448/613/387 149/149/115
f 157/157/122 149/149/115 156/156/121
f 319/521/304 379/524/307 29/522/305
f 210/536/315 378/535/314 449/614/388
f 210/536/315 449/614/388 212/615/389
f 212/615/389 449/614/388 450/616/390
f 212/615/389 450/616/390 211/617/391
f 211/617/391 450/616/390 451/618/392
f 211/617/391 451/618/392 452/619/393
f 211/617/391 452/619/393 209/527/310
f 209/527/310 452/619/393 376/528/311
f 10/438/256 359/437/255 12/620/394
f 12/620/394 359/437/255 453/621/395
f 12/620/394 453/621/395 11/622/396
f 11/622/396 453/621/395 454/623/397
f 11/622/396 454/623/397 320/374/244
f 11/622/396 320/374/244 8/373/243
f 33/525/308 380/526/309 36/624/394
f 36/624/394 380/526/309 455/625/395
f 36/624/394 455/625/395 456/626/397
f 36/624/394 456/626/397 37/627/396
f 37/627/396 456/626/397 346/411/250
f 37/627/396 346/411/250 35/410/249
