# CS2 body mesh, tools/cs2_glb_to_obj.py
v -0.19229 0.00322 -0.03076
v -0.1932 0.01072 -0.03088
v -0.19232 0.01072 -0.03076
v -0.19317 0.00322 -0.03088
v -0.20457 0.00817 -0.02063
v -0.20643 0.00566 -0.01611
v -0.20644 0.00816 -0.01611
v -0.20456 0.00567 -0.02064
v -0.20707 0.00565 -0.01126
v -0.20159 0.00818 -0.02452
v -0.20708 0.00815 -0.01125
v -0.20158 0.00568 -0.02452
v -0.20644 0.00815 -0.00639
v -0.20643 0.00565 -0.0064
v -0.20456 0.00566 -0.00187
v -0.20457 0.00816 -0.00187
v -0.18908 0.00821 0.01953
v -0.18907 0.00571 0.01953
v -0.19658 0.0082 -0.02827
v -0.19657 0.0057 -0.02828
v -0.19659 0.01071 -0.02827
v -0.19957 0.01069 -0.02439
v -0.19656 0.0032 -0.02828
v -0.19956 0.00819 -0.02439
v -0.19955 0.00569 -0.02439
v -0.20145 0.01068 -0.01986
v -0.19954 0.00319 -0.02439
v -0.20144 0.00818 -0.01986
v -0.20143 0.00568 -0.01987
v -0.20209 0.01068 -0.015
v -0.20142 0.00318 -0.01987
v -0.20208 0.00818 -0.01501
v -0.20207 0.00567 -0.01501
v -0.20145 0.01068 -0.01015
v -0.20206 0.00317 -0.01501
v -0.20144 0.00818 -0.01015
v -0.20143 0.00567 -0.01015
v -0.19957 0.01068 -0.00562
v -0.20142 0.00317 -0.01015
v -0.19956 0.00818 -0.00562
v -0.18033 0.01075 0.01953
v -0.18032 0.00824 0.01953
v -0.19955 0.00568 -0.00562
v -0.19954 0.00318 -0.00563
v -0.18031 0.00574 0.01953
v -0.1803 0.00324 0.01953
v -0.19153 0.00322 -0.02977
v -0.19156 0.01073 -0.02977
v -0.19741 0.0107 -0.02314
v -0.19482 0.01071 -0.0265
v -0.19903 0.01069 -0.01921
v -0.19959 0.01069 -0.01501
v -0.19903 0.01069 -0.01079
v -0.19742 0.01069 -0.00689
v -0.17711 0.01076 0.01923
v -0.19168 0.01073 -0.02889
v -0.199 0.00319 -0.01922
v -0.19956 0.00318 -0.01501
v -0.19737 0.00319 -0.02314
v -0.199 0.00318 -0.0108
v -0.19739 0.00319 -0.00689
v -0.17708 0.00325 0.01923
v -0.19479 0.00321 -0.02651
v -0.19165 0.00322 -0.02889
vt 0.504395 0.456055
vt 0.512695 0.452881
vt 0.511719 0.453125
vt 0.505371 0.456787
vt 0.517578 0.4375
vt 0.52002 0.432861
vt 0.518066 0.433105
vt 0.52002 0.437256
vt 0.520508 0.428711
vt 0.516602 0.442139
vt 0.518555 0.428711
vt 0.519531 0.442139
vt 0.518066 0.424316
vt 0.520508 0.424316
vt 0.520996 0.419922
vt 0.518555 0.419922
vt 0.517578 0.391602
vt 0.521973 0.39209
vt 0.515625 0.448486
vt 0.519043 0.44873
vt 0.513184 0.447998
vt 0.520996 0.453613
vt 0.512207 0.442871
vt 0.521973 0.449219
vt 0.515137 0.442871
vt 0.520996 0.443359
vt 0.51123 0.437988
vt 0.523926 0.444092
vt 0.51416 0.437988
vt 0.522949 0.438232
vt 0.510742 0.432617
vt 0.525879 0.438965
vt 0.513184 0.432373
vt 0.524902 0.432861
vt 0.509766 0.42749
vt 0.527344 0.433594
vt 0.512695 0.426758
vt 0.526367 0.42749
vt 0.509277 0.422119
vt 0.528809 0.427979
vt 0.511719 0.421387
vt 0.505859 0.387695
vt 0.509277 0.386963
vt 0.527344 0.421875
vt 0.530273 0.422607
vt 0.530273 0.387695
vt 0.533203 0.388184
vt 0.503418 0.454834
vt 0.51123 0.452881
vt 0.509277 0.443115
vt 0.510254 0.447998
vt 0.508789 0.437988
vt 0.507812 0.432861
vt 0.507324 0.427734
vt 0.506836 0.422607
vt 0.502441 0.386963
vt 0.510742 0.452148
vt 0.52832 0.440186
vt 0.530273 0.43457
vt 0.526367 0.445068
vt 0.531738 0.429199
vt 0.532715 0.423584
vt 0.536133 0.386963
vt 0.524414 0.449707
vt 0.521484 0.45459
vt 0.522949 0.45459
vt 0.523926 0.454102
vt 0.500488 0.439453
vt 0.501465 0.444336
vt 0.5 0.434082
vt 0.501953 0.449219
vt 0.50293 0.453857
vt 0.499268 0.428955
vt 0.498779 0.423828
vt 0.494385 0.387939
vn 0.1269 0 -0.9919
vn -0.8667 -0.0027 -0.4989
vn -0.966 -0.0048 -0.2583
vn -1 -0.0039 -0.001
vn -0.7036 -0.0028 -0.7106
vn -0.9654 -0.0036 0.2609
vn -0.8735 -0.004 0.4868
vn -0.8093 -0.0041 0.5874
vn -0.6578 -0.0028 -0.7532
vn -0.6098 -0.0027 -0.7925
vn -0.7064 -0.0028 -0.7078
vn -0.8648 -0.0027 -0.502
vn -0.9661 -0.0036 0.258
vn -0.8663 -0.004 0.4994
vn -0.7955 -0.0041 0.6059
vn -0.7942 -0.0014 0.6077
vn 0.7937 0.0027 -0.6083
vn -0.0039 1 -0.001
vn -0.0029 1 0.001
vn -0.0049 1 0.001
vn 0.0039 -1 -0.001
vn 0.002 -1 -0.0029
vn 0.0049 -1 0.001
vn 0.8663 0.004 0.4994
vn 0.9661 0.0036 0.258
vn 1 0.0039 -0.001
vn 0.7043 0.0014 0.7099
vn 0.6046 0.0014 0.7965
vn 0.966 0.0048 -0.2583
vn 0.8648 0.0027 -0.502
vn 0.789 0.0027 -0.6144
vn 0.9904 0.0033 0.1383
vn 0.9911 0.0033 0.1334
o trigger
f 1/1/1 2/2/1 3/3/1
f 2/2/1 1/1/1 4/4/1
f 5/5/2 6/6/3 7/7/3
f 6/6/3 5/5/2 8/8/2
f 7/7/3 6/6/3 9/9/4
f 8/8/2 5/5/2 10/10/5
f 7/7/3 9/9/4 11/11/4
f 8/8/2 10/10/5 12/12/5
f 11/11/4 9/9/4 13/13/6
f 13/13/6 9/9/4 14/14/6
f 13/13/6 14/14/6 15/15/7
f 13/13/6 15/15/7 16/16/7
f 16/16/7 15/15/7 17/17/8
f 17/17/8 15/15/7 18/18/8
f 12/12/5 10/10/5 19/19/9
f 12/12/5 19/19/9 20/20/9
f 20/20/9 19/19/9 2/2/10
f 2/2/10 19/19/9 21/21/11
f 20/20/9 2/2/10 4/22/10
f 21/21/11 19/19/9 22/23/12
f 20/20/9 4/22/10 23/24/11
f 22/23/12 19/19/9 24/25/12
f 20/20/9 23/24/11 25/26/2
f 22/23/12 24/25/12 26/27/3
f 25/26/2 23/24/11 27/28/2
f 26/27/3 24/25/12 28/29/3
f 25/26/2 27/28/2 29/30/3
f 26/27/3 28/29/3 30/31/4
f 29/30/3 27/28/2 31/32/3
f 30/31/4 28/29/3 32/33/4
f 29/30/3 31/32/3 33/34/4
f 30/31/4 32/33/4 34/35/13
f 33/34/4 31/32/3 35/36/4
f 34/35/13 32/33/4 36/37/13
f 33/34/4 35/36/4 37/38/13
f 34/35/13 36/37/13 38/39/14
f 37/38/13 35/36/4 39/40/13
f 38/39/14 36/37/13 40/41/14
f 38/39/14 40/41/14 41/42/15
f 41/42/15 40/41/14 42/43/15
f 37/38/13 39/40/13 43/44/14
f 43/44/14 39/40/13 44/45/14
f 43/44/14 44/45/14 45/46/16
f 45/46/16 44/45/14 46/47/16
f 47/48/17 1/1/17 3/3/17
f 47/48/17 3/3/17 48/49/17
f 49/50/18 22/23/18 26/27/19
f 22/23/18 49/50/18 50/51/19
f 49/50/18 26/27/19 51/52/19
f 51/52/19 26/27/19 30/31/18
f 51/52/19 30/31/18 52/53/18
f 52/53/18 30/31/18 34/35/19
f 52/53/18 34/35/19 53/54/19
f 53/54/19 34/35/19 38/39/19
f 53/54/19 38/39/19 54/55/18
f 54/55/18 38/39/19 41/42/19
f 54/55/18 41/42/19 55/56/19
f 21/21/19 22/23/18 50/51/19
f 21/21/19 50/51/19 56/57/18
f 21/21/19 56/57/18 48/49/18
f 21/21/19 48/49/18 3/3/18
f 21/21/19 3/3/18 2/2/18
f 10/10/19 24/25/19 19/19/19
f 24/25/19 10/10/19 28/29/19
f 28/29/19 10/10/19 5/5/19
f 28/29/19 5/5/19 7/7/18
f 28/29/19 7/7/18 32/33/18
f 32/33/18 7/7/18 11/11/18
f 32/33/18 11/11/18 36/37/18
f 36/37/18 11/11/18 40/41/18
f 40/41/18 11/11/18 13/13/18
f 40/41/18 13/13/18 16/16/20
f 40/41/18 16/16/20 17/17/18
f 40/41/18 17/17/18 42/43/19
f 57/58/21 31/32/21 27/28/21
f 31/32/21 57/58/21 58/59/21
f 57/58/21 27/28/21 59/60/21
f 31/32/21 58/59/21 35/36/21
f 59/60/21 27/28/21 23/24/21
f 35/36/21 58/59/21 60/61/21
f 35/36/21 60/61/21 39/40/21
f 39/40/21 60/61/21 61/62/21
f 39/40/21 61/62/21 44/45/21
f 44/45/21 61/62/21 62/63/21
f 44/45/21 62/63/21 46/47/21
f 59/60/21 23/24/21 63/64/21
f 63/64/21 23/24/21 4/22/21
f 63/64/21 4/22/21 1/65/21
f 63/64/21 1/65/21 47/66/21
f 63/64/21 47/66/21 64/67/22
f 18/18/21 15/15/21 43/44/21
f 18/18/21 43/44/21 45/46/21
f 43/44/21 15/15/21 14/14/21
f 43/44/21 14/14/21 9/9/21
f 43/44/21 9/9/21 37/38/21
f 37/38/21 9/9/21 33/34/21
f 33/34/21 9/9/21 6/6/21
f 33/34/21 6/6/21 8/8/21
f 33/34/21 8/8/21 29/30/21
f 29/30/21 8/8/21 25/26/21
f 25/26/21 8/8/21 12/12/23
f 25/26/21 12/12/23 20/20/21
f 49/50/24 51/52/25 57/68/25
f 49/50/24 57/68/25 59/69/24
f 57/68/25 51/52/25 58/70/26
f 49/50/24 59/69/24 50/51/27
f 58/70/26 51/52/25 52/53/26
f 50/51/27 59/69/24 63/71/27
f 50/51/27 63/71/27 56/57/28
f 56/57/28 63/71/27 64/72/28
f 58/70/26 52/53/26 53/54/29
f 58/70/26 53/54/29 60/73/29
f 60/73/29 53/54/29 61/74/30
f 61/74/30 53/54/29 54/55/30
f 61/74/30 54/55/30 55/56/31
f 61/74/30 55/56/31 62/75/31
f 64/72/32 48/49/33 56/57/33
f 48/49/33 64/72/32 47/48/32
