# CS2 body_hd, tools/cs2_glb_to_obj.py
v -0.273 0.01358 0.09924
v -0.273 0.01358 0.09851
v -0.27285 0.0132 0.09924
v -0.27277 0.01302 0.0985
v -0.27277 0.01302 0.09903
v -0.29195 -0.02191 0.10238
v -0.29082 -0.02279 0.10162
v -0.29073 -0.02241 0.10238
v -0.29213 -0.02225 0.10162
v -0.28941 -0.02297 0.10162
v -0.29299 -0.02111 0.10238
v -0.29326 -0.02139 0.10162
v -0.29412 -0.02027 0.10162
v -0.2938 -0.02006 0.10238
v -0.29467 -0.01896 0.10162
v -0.29156 -0.02122 0.10281
v -0.29244 -0.02055 0.10281
v -0.2943 -0.01885 0.10238
v -0.29487 -0.0175 0.10162
v -0.29053 -0.02165 0.10281
v -0.28731 -0.02122 0.10281
v -0.28943 -0.02179 0.10281
v -0.29448 -0.01747 0.10238
v -0.28833 -0.02165 0.10281
v -0.28943 -0.02258 0.10238
v -0.29487 0.03132 0.10162
v -0.28812 -0.02241 0.10238
v -0.28801 -0.02278 0.10162
v -0.28691 -0.0219 0.10238
v -0.2867 -0.02223 0.10162
v -0.28587 -0.0211 0.10238
v -0.28558 -0.02136 0.10162
v -0.28643 -0.02055 0.10281
v -0.28412 -0.02061 0.08863
v -0.28509 -0.02188 0.08863
v -0.28636 -0.02285 0.08863
v -0.28472 -0.02024 0.10162
v -0.2835 -0.01913 0.08863
v -0.28784 -0.02347 0.08863
v -0.28419 -0.01893 0.10162
v -0.2833 -0.01756 0.08863
v -0.28943 -0.02368 0.08863
v -0.284 -0.0175 0.10162
v -0.2833 -0.01427 0.08863
v -0.28401 -0.01423 0.10162
v -0.29102 -0.02347 0.08863
v -0.28291 -0.01129 0.08863
v -0.2836 -0.01113 0.10162
v -0.2925 -0.02285 0.08863
v -0.28176 -0.00852 0.08863
v -0.29377 -0.02188 0.08863
v -0.29475 -0.02061 0.08863
v -0.29536 -0.01913 0.08863
v -0.28238 -0.00817 0.10162
v -0.29557 -0.01754 0.08863
v -0.28127 -0.0069 0.09924
v -0.28145 -0.00687 0.10158
v -0.27993 -0.00614 0.08863
v -0.2803 -0.00577 0.09924
v -0.27781 -0.00386 0.09924
v -0.27755 -0.00431 0.08863
v -0.27491 -0.00272 0.09924
v -0.27478 -0.00293 0.08863
v -0.27192 -0.00211 0.09924
v -0.2718 -0.00211 0.08863
v -0.26672 -0.00211 0.09924
v -0.26672 -0.00211 0.08863
v -0.26436 -0.00211 0.0957
v -0.26436 -0.00211 0.09216
v -0.29532 0.01214 0.0957
v -0.2954 0.0123 0.09216
v -0.29523 0.03136 0.0957
v -0.29468 0.03276 0.10162
v -0.29503 0.03287 0.0957
v -0.29557 0.03137 0.08863
v -0.2954 0.03137 0.09216
v -0.2952 0.03292 0.09216
v -0.29536 0.03296 0.08863
v -0.27285 0.01368 0.09924
v -0.27285 0.01368 0.09851
v -0.27275 0.01383 0.09851
v -0.27275 0.01383 0.09924
v -0.27439 0.03442 0.09516
v -0.27439 0.03442 0.09163
v -0.27467 0.03549 0.09163
v -0.27467 0.03549 0.09516
v -0.27525 0.0364 0.09516
v -0.27525 0.0364 0.09163
v -0.27621 0.03712 0.09163
v -0.27621 0.03712 0.09516
v -0.27729 0.03747 0.09516
v -0.27729 0.03747 0.09163
v -0.28555 0.03799 0.09163
v -0.28555 0.03799 0.09516
v -0.2868 0.03766 0.09516
v -0.2868 0.03766 0.09163
v -0.28761 0.03663 0.09163
v -0.28761 0.03663 0.09516
v -0.29377 0.02029 0.09163
v -0.29377 0.02029 0.09516
v -0.27406 0.01401 0.09924
v -0.27426 0.01401 0.09903
v -0.27399 0.01368 0.09924
v -0.27418 0.0136 0.09903
v -0.27361 0.01383 0.09924
v -0.27394 0.01325 0.09903
v -0.27351 0.01368 0.09924
v -0.2738 0.01339 0.09924
v -0.2736 0.01302 0.09903
v -0.27336 0.01358 0.09924
v -0.27352 0.0132 0.09924
v -0.27318 0.01294 0.09903
v -0.27318 0.01314 0.09924
v -0.27318 0.01355 0.09924
v -0.28439 -0.0142 0.10238
v -0.28517 -0.01415 0.10281
v -0.28517 -0.01744 0.10281
v -0.2937 -0.01742 0.10281
v -0.28397 -0.01101 0.10238
v -0.28473 -0.01081 0.10281
v -0.28271 -0.00797 0.10238
v -0.28182 -0.00676 0.10234
v -0.28256 -0.00646 0.10281
v -0.28339 -0.00758 0.10281
v -0.28409 -0.00584 0.10281
v -0.28612 -0.00462 0.10281
v -0.28787 -0.00316 0.10281
v -0.28933 -0.00135 0.10281
v -0.29059 0.00054 0.10281
v -0.29143 0.00261 0.10281
v -0.29189 0.00475 0.10281
v -0.29206 0.00692 0.10281
v -0.2937 0.03125 0.10281
v -0.29189 0.00908 0.10281
v -0.29143 0.01122 0.10281
v -0.29059 0.01329 0.10281
v -0.28933 0.01518 0.10281
v -0.28787 0.01699 0.10281
v -0.28612 0.01845 0.10281
v -0.28409 0.01968 0.10281
v -0.28256 0.02029 0.10281
v -0.28339 0.02141 0.10281
v -0.28473 0.02464 0.10281
v -0.28397 0.02484 0.10238
v -0.28271 0.0218 0.10238
v -0.28517 0.02798 0.10281
v -0.28439 0.02803 0.10238
v -0.28359 0.02492 0.10162
v -0.284 0.02805 0.10162
v -0.28517 0.03127 0.10281
v -0.28439 0.03132 0.10238
v -0.28401 0.03136 0.10162
v -0.28457 0.03268 0.10238
v -0.2842 0.0328 0.10162
v -0.28533 0.03248 0.10281
v -0.28575 0.0335 0.10281
v -0.28507 0.0339 0.10238
v -0.29354 0.03247 0.10281
v -0.29312 0.0335 0.10281
v -0.28643 0.03438 0.10281
v -0.2938 0.03389 0.10238
v -0.29244 0.03438 0.10281
v -0.28731 0.03506 0.10281
v -0.29156 0.03506 0.10281
v -0.28833 0.03548 0.10281
v -0.29053 0.03548 0.10281
v -0.28943 0.03563 0.10281
v -0.2943 0.03267 0.10238
v -0.29448 0.0313 0.10238
v -0.29414 0.03407 0.10162
v -0.293 0.03493 0.10238
v -0.29328 0.0352 0.10162
v -0.29216 0.03606 0.10162
v -0.29196 0.03573 0.10238
v -0.29086 0.03661 0.10162
v -0.29074 0.03624 0.10238
v -0.28945 0.0368 0.10162
v -0.28944 0.03641 0.10238
v -0.28813 0.03624 0.10238
v -0.28805 0.03662 0.10162
v -0.28692 0.03574 0.10238
v -0.28674 0.03608 0.10162
v -0.28587 0.03494 0.10238
v -0.28561 0.03522 0.10162
v -0.28474 0.0341 0.10162
v -0.27219 0.01443 0.09903
v -0.27227 0.01492 0.09924
v -0.27242 0.01477 0.09903
v -0.27277 0.01501 0.09903
v -0.27199 0.01451 0.09924
v -0.27211 0.01401 0.09903
v -0.27269 0.0152 0.09924
v -0.27318 0.01509 0.09903
v -0.27192 0.01594 0.09924
v -0.27318 0.0153 0.09924
v -0.26672 0.01594 0.09924
v -0.27491 0.01655 0.09924
v -0.27368 0.0152 0.09924
v -0.27318 0.01294 0.0985
v -0.2736 0.01501 0.09903
v -0.27409 0.01492 0.09924
v -0.27394 0.01477 0.09903
v -0.27418 0.01443 0.09903
v -0.27437 0.01451 0.09924
v -0.27781 0.0177 0.09924
v -0.27447 0.01401 0.09924
v -0.27437 0.01352 0.09924
v -0.27409 0.0131 0.09924
v -0.27368 0.01282 0.09924
v -0.27318 0.01273 0.09924
v -0.2803 0.01961 0.09924
v -0.28127 0.02073 0.09924
v -0.28403 0.01957 0.09924
v -0.28403 -0.00573 0.09924
v -0.28605 -0.00452 0.09924
v -0.28605 0.01835 0.09924
v -0.28778 -0.00307 0.09924
v -0.28778 0.0169 0.09924
v -0.28932 -0.00134 0.09924
v -0.28932 0.01517 0.09924
v -0.29047 0.01324 0.09924
v -0.29047 0.0006 0.09924
v -0.29131 0.01119 0.09924
v -0.29131 0.00264 0.09924
v -0.29182 0.00476 0.09924
v -0.29182 0.00907 0.09924
v -0.29199 0.00692 0.09924
v -0.2735 0.01343 0.09851
v -0.27257 0.01367 0.09851
v -0.27378 0.01428 0.09851
v -0.2729 0.01465 0.09851
v -0.25513 0.01568 0.09516
v -0.25952 0.01651 0.09516
v -0.25836 0.01422 0.09516
v -0.25952 0.01423 0.09516
v -0.25534 0.01957 0.09516
v -0.25456 0.01626 0.09516
v -0.25987 0.01689 0.09516
v -0.25423 0.017 0.09516
v -0.25427 0.01867 0.09516
v -0.25446 0.0191 0.09516
v -0.25484 0.01944 0.09516
v -0.26098 0.01713 0.09516
v -0.26887 0.02058 0.09516
v -0.26225 0.01713 0.09516
v -0.26334 0.01683 0.09516
v -0.27436 0.01165 0.09516
v -0.27181 0.02013 0.09516
v -0.27349 0.02053 0.09516
v -0.2762 0.01192 0.09516
v -0.27921 0.01527 0.09516
v -0.27504 0.0215 0.09516
v -0.27609 0.0228 0.09516
v -0.28987 0.01593 0.09516
v -0.27682 0.02426 0.09516
v -0.27698 0.02564 0.09516
v -0.27743 0.02733 0.09516
v -0.27629 0.02783 0.09516
v -0.27604 0.02875 0.09516
v -0.27659 0.02971 0.09516
v -0.27575 0.03199 0.09516
v -0.27542 0.0302 0.09516
v -0.27518 0.03113 0.09516
v -0.27458 0.0326 0.09516
v -0.27399 0.01435 0.09924
v -0.2738 0.01463 0.09924
v -0.27352 0.01482 0.09924
v -0.27318 0.01489 0.09924
v -0.27285 0.01482 0.09924
v -0.27256 0.01463 0.09924
v -0.27237 0.01435 0.09924
v -0.27269 0.01282 0.09924
v -0.27227 0.0131 0.09924
v -0.27242 0.01325 0.09903
v -0.27219 0.0136 0.09903
v -0.27199 0.01352 0.09924
v -0.27184 0.01594 0.09216
v -0.27482 0.01669 0.09216
v -0.27764 0.01799 0.09216
v -0.28005 0.01985 0.09216
v -0.26436 0.0123 0.09216
v -0.26436 0.01594 0.09216
v -0.28191 0.02227 0.09216
v -0.28307 0.02508 0.09216
v -0.28347 0.02809 0.09216
v -0.28347 0.03138 0.09216
v -0.28367 0.03292 0.09216
v -0.2946 0.03436 0.09216
v -0.28427 0.03436 0.09216
v -0.29365 0.03559 0.09216
v -0.28521 0.03559 0.09216
v -0.28645 0.03654 0.09216
v -0.29242 0.03654 0.09216
v -0.29098 0.03714 0.09216
v -0.28789 0.03714 0.09216
v -0.28943 0.03734 0.09216
v -0.29445 0.03427 0.0957
v -0.29353 0.03547 0.0957
v -0.29233 0.03639 0.0957
v -0.29093 0.03697 0.0957
v -0.28943 0.03717 0.0957
v -0.28793 0.03697 0.0957
v -0.28654 0.03639 0.0957
v -0.28534 0.03547 0.0957
v -0.28442 0.03427 0.0957
v -0.28384 0.03287 0.0957
v -0.29475 0.03444 0.08863
v -0.29377 0.03571 0.08863
v -0.2925 0.03669 0.08863
v -0.29102 0.0373 0.08863
v -0.28943 0.03751 0.08863
v -0.28784 0.0373 0.08863
v -0.28636 0.03669 0.08863
v -0.28509 0.03571 0.08863
v -0.28412 0.03444 0.08863
v -0.2835 0.03296 0.08863
v -0.28987 0.01593 0.09163
v -0.27921 0.01527 0.09163
v -0.2762 0.01192 0.09163
v -0.27436 0.01165 0.09163
v -0.26334 0.01683 0.09163
v -0.26225 0.01713 0.09163
v -0.26098 0.01713 0.09163
v -0.25987 0.01689 0.09163
v -0.25952 0.01651 0.09163
v -0.25952 0.01423 0.09163
v -0.26436 0.00154 0.0957
v -0.25693 0.00154 0.09924
v -0.26672 0.00154 0.09924
v -0.26672 0.0123 0.09924
v -0.25693 0.0123 0.09924
v -0.24687 0.00934 0.09924
v -0.26436 0.00154 0.09216
v -0.24687 0.00449 0.09924
v -0.08548 0.00449 0.09924
v -0.08548 0.00934 0.09924
v -0.24687 0.00154 0.0965
v -0.08324 0.00154 0.0965
v -0.0919 0.00154 0.08863
v -0.26672 0.00154 0.08863
v -0.08324 0.00154 0.08629
v -0.08548 0.00154 0.0835
v -0.0919 0.00154 0.0835
v -0.27365 0.01401 0.09924
v -0.27361 0.01419 0.09924
v -0.27351 0.01434 0.09924
v -0.27336 0.01444 0.09924
v -0.27318 0.01448 0.09924
v -0.273 0.01444 0.09924
v -0.27285 0.01434 0.09924
v -0.27275 0.01419 0.09924
v -0.27272 0.01401 0.09924
v -0.27231 0.01401 0.09924
v -0.27237 0.01368 0.09924
v -0.27256 0.01339 0.09924
v -0.26436 0.0123 0.0957
v -0.24687 0.0123 0.0965
v -0.08324 0.0123 0.0965
v -0.0919 0.0123 0.08863
v -0.26672 0.0123 0.08863
v -0.08324 0.0123 0.08629
v -0.08548 0.0123 0.0835
v -0.0919 0.0123 0.0835
v -0.28507 -0.02005 0.10238
v -0.28575 -0.01967 0.10281
v -0.29312 -0.01967 0.10281
v -0.28533 -0.01864 0.10281
v -0.29354 -0.01864 0.10281
v -0.28456 -0.01884 0.10238
v -0.28439 -0.01748 0.10238
v -0.27056 0.00277 0.09416
v -0.0957 0.00277 0.09416
v -0.0957 0.00277 0.08863
v -0.27056 0.00277 0.08863
v -0.09353 0.00485 0.09416
v -0.09353 0.00485 0.08863
v -0.27272 0.01401 0.09851
v -0.27275 0.01419 0.09851
v -0.27285 0.01434 0.09851
v -0.273 0.01444 0.09851
v -0.27318 0.01448 0.09851
v -0.27336 0.01444 0.09851
v -0.27351 0.01434 0.09851
v -0.27361 0.01419 0.09851
v -0.27365 0.01401 0.09851
v -0.27361 0.01383 0.09851
v -0.27056 0.01106 0.09416
v -0.0957 0.01106 0.09416
v -0.27056 0.01106 0.08863
v -0.09353 0.00899 0.09416
v -0.0957 0.01106 0.08863
v -0.09353 0.00899 0.08863
v -0.27554 0.02316 0.09219
v -0.27554 0.02316 0.0946
v -0.2746 0.022 0.0946
v -0.27618 0.02445 0.0946
v -0.27618 0.02445 0.09219
v -0.27609 0.0228 0.09163
v -0.27682 0.02426 0.09163
v -0.2746 0.022 0.09219
v -0.27504 0.0215 0.09163
v -0.27324 0.02114 0.09219
v -0.27349 0.02053 0.09163
v -0.27181 0.02013 0.09163
v -0.27171 0.02078 0.09219
v -0.26887 0.02058 0.09163
v -0.27324 0.02114 0.0946
v -0.27171 0.02078 0.0946
v -0.25534 0.01957 0.09163
v -0.25484 0.01944 0.09163
v -0.25446 0.0191 0.09163
v -0.25427 0.01867 0.09163
v -0.25513 0.01568 0.09163
v -0.25836 0.01422 0.09163
v -0.25456 0.01626 0.09163
v -0.25423 0.017 0.09163
v -0.27698 0.02564 0.09163
v -0.27743 0.02733 0.09163
v -0.27604 0.02875 0.09163
v -0.27629 0.02783 0.09163
v -0.27659 0.02971 0.09163
v -0.27575 0.03199 0.09163
v -0.27542 0.0302 0.09163
v -0.27518 0.03113 0.09163
v -0.27458 0.0326 0.09163
v -0.28364 0.03137 0.0957
v -0.28364 0.02808 0.0957
v -0.28324 0.02504 0.0957
v -0.28206 0.02218 0.0957
v -0.28017 0.01973 0.0957
v -0.27772 0.01785 0.0957
v -0.27487 0.01662 0.0957
v -0.27188 0.01594 0.0957
v -0.26436 0.01594 0.0957
v -0.28176 0.02235 0.08863
v -0.27993 0.01997 0.08863
v -0.28291 0.02513 0.08863
v -0.2833 0.0281 0.08863
v -0.27755 0.01814 0.08863
v -0.2833 0.03139 0.08863
v -0.27478 0.01676 0.08863
v -0.2718 0.01594 0.08863
v -0.26672 0.01594 0.08863
v -0.2719 0.01401 0.09924
v -0.28237 0.02198 0.10162
v -0.28145 0.0207 0.10158
v -0.27351 0.01368 0.09851
v -0.27336 0.01358 0.09851
v -0.27318 0.01355 0.09851
v -0.28182 0.0206 0.10234
v -0.27635 0.02589 0.09219
v -0.27635 0.02589 0.0946
vt 0.801752 0.91406
vt 0.801752 0.915036
vt 0.80224 0.91406
vt 0.802728 0.915036
vt 0.802728 0.91406
vt 0.678701 0.213446
vt 0.676748 0.214698
vt 0.678213 0.214942
vt 0.677725 0.212989
vt 0.676748 0.216529
vt 0.679678 0.212104
vt 0.678701 0.211493
vt 0.680166 0.210303
vt 0.680654 0.211158
vt 0.681631 0.20954
vt 0.679678 0.213965
vt 0.680166 0.212867
vt 0.682119 0.210547
vt 0.683584 0.209296
vt 0.679189 0.215155
vt 0.679678 0.219062
vt 0.678701 0.216529
vt 0.683584 0.210303
vt 0.679189 0.217872
vt 0.677725 0.216529
vt 0.742668 0.209296
vt 0.678213 0.218116
vt 0.676748 0.21836
vt 0.678701 0.21955
vt 0.677725 0.220069
vt 0.679678 0.220923
vt 0.678701 0.221534
vt 0.680166 0.220191
vt 0.13889 0.107334
vt 0.137059 0.091647
vt 0.137059 0.107334
vt 0.135228 0.107334
vt 0.13889 0.091647
vt 0.135228 0.091647
vt 0.140721 0.107334
vt 0.133396 0.107334
vt 0.140721 0.091647
vt 0.133396 0.091647
vt 0.142552 0.107334
vt 0.131565 0.107334
vt 0.142552 0.091647
vt 0.131565 0.091647
vt 0.146458 0.107334
vt 0.129612 0.091647
vt 0.146458 0.091647
vt 0.129612 0.107334
vt 0.150121 0.107334
vt 0.127781 0.091647
vt 0.150121 0.091647
vt 0.127781 0.107334
vt 0.153905 0.107334
vt 0.12595 0.091647
vt 0.12595 0.107334
vt 0.12418 0.107334
vt 0.12418 0.091647
vt 0.122349 0.107334
vt 0.122349 0.091647
vt 0.153905 0.091647
vt 0.120518 0.107334
vt 0.155736 0.094485
vt 0.155736 0.091647
vt 0.157445 0.107334
vt 0.157445 0.094485
vt 0.161107 0.094485
vt 0.161107 0.107334
vt 0.164769 0.094485
vt 0.164769 0.107334
vt 0.168432 0.094485
vt 0.168432 0.107334
vt 0.174657 0.094485
vt 0.174657 0.107334
vt 0.177465 0.098849
vt 0.177465 0.103122
vt 0.120518 0.091647
vt 0.084567 0.098788
vt 0.061495 0.091586
vt 0.084567 0.103061
vt 0.061495 0.098788
vt 0.059694 0.091586
vt 0.059694 0.098788
vt 0.061464 0.107334
vt 0.061464 0.103061
vt 0.059542 0.103061
vt 0.059542 0.107334
vt 0.801263 0.915036
vt 0.801263 0.91406
vt 0.990234 0.764641
vt 0.985839 0.764641
vt 0.985839 0.766106
vt 0.990234 0.766106
vt 0.990234 0.767083
vt 0.985839 0.767083
vt 0.985839 0.768548
vt 0.990234 0.768548
vt 0.990234 0.770012
vt 0.985839 0.770012
vt 0.985839 0.779778
vt 0.990234 0.779778
vt 0.990234 0.781243
vt 0.985839 0.781243
vt 0.985839 0.782708
vt 0.990234 0.782708
vt 0.985839 0.803217
vt 0.990234 0.803217
vt 0.818842 0.973144
vt 0.818354 0.973144
vt 0.818842 0.973632
vt 0.818354 0.973632
vt 0.81933 0.973632
vt 0.818842 0.97412
vt 0.81933 0.97412
vt 0.81933 0.974609
vt 0.819819 0.975097
vt 0.819819 0.974609
vt 0.819819 0.97412
vt 0.68749 0.222755
vt 0.687979 0.221656
vt 0.684072 0.221656
vt 0.684072 0.211371
vt 0.691397 0.223334
vt 0.691397 0.224342
vt 0.694815 0.225806
vt 0.691885 0.222266
vt 0.695303 0.22483
vt 0.69628 0.226783
vt 0.696768 0.225806
vt 0.697256 0.22483
vt 0.695791 0.223823
vt 0.697745 0.222968
vt 0.69921 0.220557
vt 0.701163 0.218482
vt 0.703116 0.216651
vt 0.705557 0.215155
vt 0.707999 0.214087
vt 0.71044 0.213569
vt 0.71337 0.213324
vt 0.742668 0.211371
vt 0.715812 0.213569
vt 0.718253 0.214087
vt 0.721183 0.215155
vt 0.723136 0.216651
vt 0.725578 0.218482
vt 0.727042 0.220557
vt 0.728507 0.222968
vt 0.729484 0.22483
vt 0.730949 0.223823
vt 0.734855 0.222266
vt 0.734855 0.223334
vt 0.731437 0.22483
vt 0.738762 0.221656
vt 0.738762 0.222755
vt 0.735343 0.224342
vt 0.738762 0.223823
vt 0.742668 0.221656
vt 0.742668 0.222755
vt 0.743156 0.223823
vt 0.744621 0.22251
vt 0.744621 0.223457
vt 0.744133 0.221534
vt 0.745109 0.220923
vt 0.746086 0.2219
vt 0.744133 0.211493
vt 0.745109 0.212104
vt 0.746086 0.220191
vt 0.746086 0.211158
vt 0.746086 0.212867
vt 0.747063 0.219062
vt 0.747063 0.213965
vt 0.747551 0.217872
vt 0.747551 0.215155
vt 0.747551 0.216529
vt 0.744621 0.210547
vt 0.742668 0.210303
vt 0.744621 0.20954
vt 0.746574 0.210303
vt 0.747063 0.212104
vt 0.748039 0.211493
vt 0.749016 0.212989
vt 0.748039 0.213446
vt 0.749504 0.214698
vt 0.748527 0.214942
vt 0.749992 0.216529
vt 0.748527 0.216529
vt 0.748527 0.218116
vt 0.749504 0.21836
vt 0.748039 0.21955
vt 0.749016 0.220069
vt 0.747063 0.220923
vt 0.748039 0.221534
vt 0.746574 0.222755
vt 0.527329 0.172094
vt 0.527818 0.172094
vt 0.527818 0.17185
vt 0.527818 0.171361
vt 0.527329 0.172308
vt 0.526841 0.172094
vt 0.528306 0.171484
vt 0.528306 0.170873
vt 0.529283 0.17243
vt 0.529283 0.178808
vt 0.529771 0.168767
vt 0.528306 0.170354
vt 0.003174 0.763176
vt 0.003174 0.763665
vt 0.003693 0.763176
vt 0.003693 0.763665
vt 0.527818 0.170476
vt 0.527818 0.169774
vt 0.527818 0.170019
vt 0.527329 0.169774
vt 0.527329 0.16953
vt 0.526841 0.169652
vt 0.531236 0.16538
vt 0.526841 0.169408
vt 0.526353 0.169408
vt 0.526353 0.169774
vt 0.506821 0.168767
vt 0.525864 0.169774
vt 0.525376 0.170354
vt 0.525376 0.170873
vt 0.505356 0.16538
vt 0.533677 0.162328
vt 0.502914 0.162328
vt 0.50145 0.161077
vt 0.535142 0.161077
vt 0.533677 0.157811
vt 0.502914 0.157811
vt 0.504379 0.15537
vt 0.532212 0.15537
vt 0.506333 0.153264
vt 0.530259 0.153264
vt 0.508286 0.151463
vt 0.528306 0.151463
vt 0.525864 0.149998
vt 0.510727 0.149998
vt 0.523423 0.148991
vt 0.513169 0.148991
vt 0.51561 0.148412
vt 0.520981 0.148412
vt 0.51854 0.148167
vt 0.003937 0.764153
vt 0.002777 0.764153
vt 0.004089 0.765618
vt 0.00296 0.765618
vt 0.971679 0.476791
vt 0.970702 0.471419
vt 0.968749 0.47383
vt 0.968261 0.472396
vt 0.975585 0.474837
vt 0.972167 0.477035
vt 0.970702 0.470931
vt 0.973144 0.477248
vt 0.975097 0.476302
vt 0.975585 0.476058
vt 0.975585 0.47557
vt 0.970702 0.46968
vt 0.971191 0.459456
vt 0.970214 0.468245
vt 0.969237 0.467269
vt 0.958983 0.457015
vt 0.969726 0.456526
vt 0.969237 0.454299
vt 0.958495 0.455061
vt 0.960936 0.450148
vt 0.969726 0.452376
vt 0.970702 0.450636
vt 0.957518 0.438185
vt 0.972167 0.449202
vt 0.973632 0.448469
vt 0.960448 0.432112
vt 0.975097 0.447249
vt 0.980956 0.432112
vt 0.976074 0.448225
vt 0.97705 0.448225
vt 0.978027 0.447249
vt 0.980956 0.447005
vt 0.979003 0.448225
vt 0.980468 0.448225
vt 0.985839 0.445784
vt 0.985351 0.44673
vt 0.981933 0.448225
vt 0.984375 0.447493
vt 0.986328 0.444563
vt 0.982421 0.4326
vt 0.986328 0.443098
vt 0.983398 0.433821
vt 0.81933 0.972655
vt 0.818842 0.972655
vt 0.819819 0.972655
vt 0.819819 0.972167
vt 0.820307 0.972167
vt 0.820307 0.972655
vt 0.820795 0.972655
vt 0.820795 0.973144
vt 0.821284 0.973144
vt 0.525376 0.171484
vt 0.525864 0.171361
vt 0.525864 0.172094
vt 0.525864 0.170873
vt 0.525864 0.17185
vt 0.526353 0.172094
vt 0.526353 0.172308
vt 0.525864 0.170476
vt 0.525864 0.170019
vt 0.419416 0.183905
vt 0.398175 0.187231
vt 0.400861 0.187811
vt 0.403546 0.189062
vt 0.405744 0.190771
vt 0.391339 0.183905
vt 0.391339 0.187231
vt 0.407453 0.192969
vt 0.419416 0.20127
vt 0.408429 0.195532
vt 0.408673 0.198218
vt 0.408673 0.20127
vt 0.419416 0.202612
vt 0.408918 0.202612
vt 0.418928 0.203925
vt 0.409406 0.203925
vt 0.417951 0.205054
vt 0.410382 0.205054
vt 0.411603 0.205908
vt 0.416974 0.205908
vt 0.415509 0.206519
vt 0.412824 0.206519
vt 0.414289 0.206641
vt 0.057924 0.091586
vt 0.057924 0.098788
vt 0.056124 0.091586
vt 0.056124 0.098788
vt 0.054323 0.098788
vt 0.054323 0.091586
vt 0.052522 0.098788
vt 0.052522 0.091586
vt 0.050722 0.098788
vt 0.050722 0.091586
vt 0.048891 0.091586
vt 0.048891 0.098788
vt 0.04706 0.091586
vt 0.04706 0.098788
vt 0.045228 0.091586
vt 0.045228 0.098788
vt 0.043397 0.098788
vt 0.043397 0.091586
vt 0.041597 0.098788
vt 0.041597 0.091586
vt 0.057619 0.103061
vt 0.057619 0.107334
vt 0.055696 0.103061
vt 0.055696 0.107334
vt 0.053743 0.107334
vt 0.053743 0.103061
vt 0.05182 0.107334
vt 0.05182 0.103061
vt 0.049867 0.107334
vt 0.049867 0.103061
vt 0.047914 0.103061
vt 0.047914 0.107334
vt 0.045961 0.103061
vt 0.045961 0.107334
vt 0.044008 0.103061
vt 0.044008 0.107334
vt 0.042055 0.107334
vt 0.042055 0.103061
vt 0.040101 0.107334
vt 0.040101 0.103061
vt 0.985839 0.810053
vt 0.990234 0.810053
vt 0.990234 0.822748
vt 0.985839 0.822748
vt 0.990234 0.82812
vt 0.985839 0.82812
vt 0.985839 0.830561
vt 0.990234 0.830561
vt 0.990234 0.844722
vt 0.985839 0.844722
vt 0.985839 0.846187
vt 0.990234 0.846187
vt 0.985839 0.847652
vt 0.990234 0.847652
vt 0.985839 0.849117
vt 0.990234 0.849117
vt 0.990234 0.849605
vt 0.985839 0.849605
vt 0.985839 0.852046
vt 0.990234 0.852046
vt 0.784173 0.463363
vt 0.787591 0.469924
vt 0.787103 0.460921
vt 0.796869 0.460921
vt 0.796869 0.469924
vt 0.794427 0.478988
vt 0.781243 0.463363
vt 0.790033 0.478988
vt 0.790033 0.625477
vt 0.794427 0.625477
vt 0.786126 0.479232
vt 0.787103 0.627918
vt 0.778802 0.620106
vt 0.778802 0.461409
vt 0.777337 0.627918
vt 0.774895 0.625965
vt 0.774895 0.620106
vt 0.81933 0.973144
vt 0.819819 0.973144
vt 0.820307 0.973144
vt 0.820307 0.973632
vt 0.820795 0.973632
vt 0.820307 0.97412
vt 0.821284 0.973632
vt 0.820795 0.97412
vt 0.820795 0.974609
vt 0.820307 0.974609
vt 0.820307 0.975097
vt 0.799799 0.463363
vt 0.802728 0.463363
vt 0.798334 0.479232
vt 0.796869 0.627918
vt 0.80517 0.620106
vt 0.80517 0.461409
vt 0.806635 0.627918
vt 0.809076 0.625965
vt 0.809076 0.620106
vt 0.847652 0.566393
vt 0.819819 0.566393
vt 0.819819 0.569811
vt 0.847652 0.569811
vt 0.680166 0.222755
vt 0.680654 0.2219
vt 0.681143 0.220923
vt 0.681631 0.223457
vt 0.681143 0.212104
vt 0.682607 0.221534
vt 0.682607 0.211493
vt 0.682119 0.22251
vt 0.683584 0.223823
vt 0.683584 0.222755
vt 0.68749 0.223823
vt 0.907712 0.602039
vt 0.907712 0.812983
vt 0.912107 0.815912
vt 0.912107 0.603015
vt 0.904782 0.813959
vt 0.906247 0.81933
vt 0.800775 0.915036
vt 0.800775 0.91406
vt 0.800287 0.915036
vt 0.800287 0.91406
vt 0.799799 0.915036
vt 0.799799 0.91406
vt 0.79931 0.915036
vt 0.79931 0.91406
vt 0.876461 0.745109
vt 0.863277 0.745109
vt 0.863277 0.752922
vt 0.876461 0.752922
vt 0.897946 0.602039
vt 0.897946 0.812983
vt 0.907712 0.595203
vt 0.897946 0.595203
vt 0.900876 0.813959
vt 0.893551 0.815912
vt 0.893551 0.603015
vt 0.892087 0.608386
vt 0.892087 0.820307
vt 0.899411 0.81933
vt 0.895993 0.821284
vt 0.909665 0.821284
vt 0.909665 0.827631
vt 0.895993 0.827631
vt 0.913572 0.608386
vt 0.913572 0.820307
vt 0.986816 0.747551
vt 0.989746 0.747551
vt 0.989746 0.745598
vt 0.989746 0.749504
vt 0.990234 0.747551
vt 0.990234 0.749504
vt 0.986816 0.749504
vt 0.990234 0.745598
vt 0.985839 0.747551
vt 0.985839 0.749504
vt 0.986816 0.745598
vt 0.985839 0.745598
vt 0.986816 0.743645
vt 0.985839 0.743645
vt 0.985839 0.741691
vt 0.986816 0.741691
vt 0.985839 0.738273
vt 0.989746 0.743645
vt 0.990234 0.743645
vt 0.990234 0.741691
vt 0.989746 0.741691
vt 0.990234 0.738273
vt 0.990234 0.722648
vt 0.985839 0.722648
vt 0.985839 0.721671
vt 0.990234 0.721671
vt 0.990234 0.721183
vt 0.985839 0.721183
vt 0.990234 0.720695
vt 0.985839 0.720695
vt 0.583483 0.442091
vt 0.587878 0.443831
vt 0.588855 0.438673
vt 0.590808 0.440901
vt 0.591296 0.43968
vt 0.586901 0.444319
vt 0.588366 0.438185
vt 0.585925 0.444319
vt 0.583972 0.443587
vt 0.583483 0.443342
vt 0.583483 0.442579
vt 0.588366 0.436995
vt 0.587878 0.42671
vt 0.589343 0.43553
vt 0.589831 0.434278
vt 0.600085 0.424299
vt 0.589831 0.423566
vt 0.589831 0.421613
vt 0.600574 0.422346
vt 0.598132 0.417463
vt 0.589831 0.419385
vt 0.588366 0.417707
vt 0.602039 0.405499
vt 0.58739 0.416486
vt 0.585925 0.415754
vt 0.598621 0.399365
vt 0.583972 0.414533
vt 0.578112 0.399365
vt 0.582018 0.415479
vt 0.582995 0.415479
vt 0.581042 0.414289
vt 0.578112 0.414289
vt 0.580065 0.415479
vt 0.579089 0.415235
vt 0.573229 0.413068
vt 0.572741 0.411847
vt 0.574206 0.414045
vt 0.577136 0.415479
vt 0.575182 0.414747
vt 0.576647 0.399853
vt 0.572741 0.410382
vt 0.575671 0.401105
vt 0.982421 0.554674
vt 0.986328 0.554186
vt 0.983398 0.554186
vt 0.984863 0.554186
vt 0.987793 0.554674
vt 0.988769 0.55565
vt 0.981445 0.55565
vt 0.980468 0.556627
vt 0.989746 0.556627
vt 0.97998 0.558092
vt 0.990234 0.558092
vt 0.97998 0.559557
vt 0.990234 0.559557
vt 0.97998 0.562487
vt 0.979492 0.564928
vt 0.978515 0.567858
vt 0.990234 0.576647
vt 0.976562 0.569811
vt 0.974609 0.571764
vt 0.971679 0.572741
vt 0.969237 0.573229
vt 0.962401 0.576647
vt 0.962401 0.573229
vt 0.486801 0.227882
vt 0.488754 0.213324
vt 0.486801 0.213569
vt 0.485092 0.214331
vt 0.485092 0.227119
vt 0.483627 0.226051
vt 0.483627 0.215522
vt 0.482406 0.217017
vt 0.482406 0.224464
vt 0.481674 0.222633
vt 0.481674 0.218848
vt 0.481429 0.220801
vt 0.488754 0.228126
vt 0.49266 0.213324
vt 0.496323 0.212867
vt 0.499741 0.211493
vt 0.537095 0.211493
vt 0.502426 0.209204
vt 0.547838 0.228126
vt 0.534165 0.209204
vt 0.540025 0.212867
vt 0.504868 0.206397
vt 0.543931 0.213324
vt 0.531724 0.206397
vt 0.547838 0.213324
vt 0.530259 0.202979
vt 0.549791 0.227882
vt 0.506333 0.202979
vt 0.549791 0.213569
vt 0.551744 0.214331
vt 0.551256 0.227119
vt 0.553209 0.226051
vt 0.553209 0.215522
vt 0.554186 0.217017
vt 0.554186 0.224464
vt 0.555162 0.222633
vt 0.555162 0.218848
vt 0.555162 0.220801
vt 0.529283 0.199438
vt 0.507309 0.199438
vt 0.513169 0.197943
vt 0.523423 0.197943
vt 0.511704 0.193335
vt 0.524888 0.193335
vt 0.507309 0.193335
vt 0.529283 0.193335
vt 0.529283 0.188055
vt 0.524888 0.188055
vt 0.507309 0.188177
vt 0.511704 0.188177
vt 0.507309 0.183813
vt 0.511704 0.183905
vt 0.507309 0.178686
vt 0.511704 0.178808
vt 0.507309 0.17243
vt 0.524888 0.178808
vt 0.526841 0.17243
vt 0.524888 0.183905
vt 0.529283 0.183905
vt 0.030549 0.107334
vt 0.030549 0.103061
vt 0.026917 0.107334
vt 0.026917 0.103061
vt 0.023286 0.107334
vt 0.023286 0.103061
vt 0.019623 0.103061
vt 0.019623 0.107334
vt 0.0159 0.103061
vt 0.0159 0.107334
vt 0.012177 0.103061
vt 0.012177 0.107334
vt 0.005982 0.107334
vt 0.003143 0.103061
vt 0.032075 0.098788
vt 0.032075 0.091586
vt 0.028321 0.098788
vt 0.028321 0.091586
vt 0.026337 0.094485
vt 0.026337 0.091586
vt 0.02472 0.098788
vt 0.024689 0.094485
vt 0.020997 0.094485
vt 0.020997 0.098788
vt 0.017273 0.094485
vt 0.017273 0.098788
vt 0.013642 0.094485
vt 0.013581 0.098788
vt 0.007355 0.094485
vt 0.004547 0.098788
vt 0.798822 0.915036
vt 0.798822 0.91406
vt 0.731925 0.225806
vt 0.729972 0.226783
vt 0.729972 0.225806
vt 0.990234 0.718741
vt 0.985839 0.718741
vt 0.990234 0.717765
vt 0.985839 0.717765
vt 0.985839 0.716788
vt 0.990234 0.716788
vt 0.985839 0.712394
vt 0.990234 0.712394
vt 0.990234 0.711417
vt 0.985839 0.711417
vt 0.986816 0.750969
vt 0.985839 0.75341
vt 0.989746 0.750969
vt 0.990234 0.75341
vt 0.985839 0.760735
vt 0.990234 0.760735
vt 0.985839 0.759758
vt 0.990234 0.759758
vt 0.990234 0.758782
vt 0.985839 0.758782
vt 0.985839 0.757317
vt 0.990234 0.757317
vt 0.617176 0.437971
vt 0.617176 0.433576
vt 0.614734 0.437971
vt 0.614734 0.433576
vt 0.612293 0.437971
vt 0.611805 0.433576
vt 0.609363 0.437971
vt 0.609363 0.433576
vt 0.606433 0.437971
vt 0.606433 0.433576
vt 0.603992 0.433576
vt 0.603992 0.437971
vt 0.601062 0.433576
vt 0.601062 0.437971
vt 0.599109 0.433576
vt 0.598132 0.434278
vt 0.597644 0.435011
vt 0.597644 0.437971
vt 0.990234 0.755852
vt 0.985839 0.755852
vt 0.620106 0.433576
vt 0.620106 0.437971
vt 0.622547 0.437971
vt 0.622547 0.433576
vt 0.625477 0.437971
vt 0.625477 0.433576
vt 0.627918 0.437971
vt 0.627918 0.433576
vt 0.630848 0.437971
vt 0.630848 0.433576
vt 0.63329 0.437971
vt 0.63329 0.433576
vt 0.636219 0.433576
vt 0.636219 0.437971
vt 0.639149 0.433576
vt 0.639149 0.437971
vt 0.641102 0.433576
vt 0.642079 0.434278
vt 0.642567 0.435011
vt 0.642567 0.437971
vt 0.990234 0.762688
vt 0.985839 0.762688
vt 0.990234 0.754875
vt 0.985839 0.754875
vt 0.990234 0.750969
vt 0.985839 0.750969
vt 0.798334 0.91406
vt 0.797845 0.915036
vt 0.797845 0.91406
vt 0.039827 0.098788
vt 0.039827 0.091586
vt 0.035829 0.098788
vt 0.035829 0.091586
vt 0.038179 0.107334
vt 0.038179 0.103061
vt 0.034211 0.107334
vt 0.034211 0.103061
vn -0.9924 -0.1216 -0.0166
vn -0.9206 -0.3901 -0.0195
vn -0.3739 -0.6408 0.6705
vn -0.2445 -0.8775 0.4125
vn -0.1997 -0.729 0.6547
vn -0.4488 -0.789 0.4196
vn 0.0013 -0.8942 0.4477
vn -0.5491 -0.5491 0.6301
vn -0.6459 -0.6459 0.4068
vn -0.789 -0.4488 0.4196
vn -0.6408 -0.3739 0.6705
vn -0.8775 -0.2445 0.4125
vn -0.0172 -0.0172 0.9997
vn -0.729 -0.1997 0.6547
vn -0.9038 -0.0225 0.4274
vn -0.001 -0.0169 0.9999
vn -0.7504 -0.0238 0.6606
vn 0.0014 -0.7395 0.6732
vn -0.8957 0.0013 0.4446
vn 0.1729 -0.7205 0.6716
vn 0.2195 -0.8735 0.4345
vn 0.3447 -0.6354 0.691
vn 0.4196 -0.789 0.4488
vn 0.5205 -0.5475 0.6553
vn 0.6229 -0.6496 0.4359
vn 0.8549 -0.5168 0.0457
vn 0.6948 -0.7176 0.0471
vn 0.4907 -0.8701 0.0454
vn 0.962 -0.266 0.0618
vn 0.2424 -0.9683 0.0609
vn 0.9972 -0.0528 0.0528
vn -0.0174 -0.9993 0.0318
vn 0.001 -0.9988 0.0481
vn 0.996 -0.0712 0.0537
vn -0.2612 -0.9644 0.0409
vn -0.5075 -0.8613 0.0231
vn 0.8783 -0.4732 0.068
vn -0.7069 -0.7069 0.0239
vn -0.8613 -0.5075 0.0231
vn -0.9644 -0.2612 0.0409
vn 0.8921 -0.4467 0.0674
vn -0.9993 -0.0174 0.0318
vn 0.7501 -0.6576 0.0708
vn 0.8018 -0.596 0.0437
vn 0.6713 -0.7397 0.047
vn 0.4732 -0.8783 0.068
vn 0.5168 -0.8549 0.0457
vn 0.2797 -0.9599 0.0209
vn 0.3543 -0.9349 0.0192
vn 0.0492 -0.9988 -0.001
vn 0.0667 -0.9978 -0.001
vn 0 -1 -0.001
vn -0.9988 0.001 0.0481
vn -0.9995 0.001 0.0313
vn -0.9978 0.001 0.0656
vn -0.9683 0.2424 0.0609
vn -0.7181 0.696 0.0014
vn -0.9285 0.3714 -0.0013
vn 0.9997 0.0171 0.0151
vn 0.9144 0.4042 0.0196
vn 0.729 0.6841 0.0239
vn 0.4562 0.8896 0.0227
vn 0.0872 0.996 0.0183
vn 0.0171 0.9997 0.0151
vn -0.5753 0.8179 -0.0014
vn -0.9945 0.1043 0.0011
vn -0.0678 0.001 0.9977
vn -0.729 -0.0239 0.6841
vn -0.0701 -0.0356 0.9969
vn -0.6789 -0.2873 0.6757
vn -0.001 0.001 1
vn -0.5186 -0.5186 0.6797
vn -0.0528 -0.0528 0.9972
vn -0.2873 -0.6789 0.6757
vn -0.0356 -0.0701 0.9969
vn -0.1465 -0.7115 0.6873
vn -0.018 -0.0689 0.9975
vn 0.6948 -0.0471 0.7176
vn -0.0339 -0.0175 0.9993
vn 0.6547 -0.1997 0.729
vn 0.8627 -0.2471 0.4412
vn 0.789 -0.4196 0.4488
vn 0.6018 -0.3146 0.7341
vn 0.7262 -0.5376 0.4284
vn 0.626 -0.4649 0.626
vn -0.0169 0.001 0.9999
vn -0.0333 0.001 0.9994
vn 0.6459 0.1726 0.7436
vn 0.595 0.2855 0.7513
vn 0.6841 0.0239 0.729
vn 0.8582 0.2217 0.463
vn 0.8843 0.045 0.4647
vn 0.7069 0.0239 0.7069
vn 0.876 0.0229 0.4818
vn 0.6964 0.173 0.6964
vn 0.608 0.3439 0.7156
vn -0.6354 0.3447 0.691
vn -0.7205 0.1729 0.6716
vn -0.7181 0.0014 0.696
vn -0.8735 0.2195 0.4345
vn -0.789 0.4196 0.4488
vn -0.5475 0.5205 0.6553
vn -0.6496 0.6229 0.4359
vn -0.4528 0.77 0.4496
vn -0.3734 0.6136 0.6958
vn -0.2471 0.8627 0.4412
vn -0.1999 0.7051 0.6803
vn -0.0227 0.8896 0.4562
vn -0.0239 0.729 0.6841
vn 0.173 0.6964 0.6964
vn 0.2217 0.8582 0.463
vn 0.3439 0.608 0.7156
vn 0.4231 0.7694 0.4786
vn 0.5186 0.5186 0.6797
vn 0.626 0.626 0.4649
vn 0.7694 0.4231 0.4786
vn 0.0014 -0.7181 0.696
vn 0.0169 0.001 0.9999
vn -0.2064 0.9785 -0.0012
vn -0.0367 0.1079 0.9935
vn 0.2589 -0.6718 0.694
vn 0.4893 -0.516 0.7031
vn 0.6495 -0.2871 0.7041
vn 0.696 0.0014 0.7181
vn 0.6423 0.2585 0.7216
vn -0.0689 0.018 0.9975
vn -0.052 0.035 0.998
vn -0.6718 0.2589 0.694
vn -0.516 0.4893 0.7031
vn -0.035 0.052 0.998
vn -0.2871 0.6495 0.7041
vn 0.0014 0.696 0.7181
vn -0.001 0.0503 0.9987
vn 0.0177 0.0511 0.9985
vn 0.2585 0.6423 0.7216
vn 0.4865 0.4865 0.7257
vn 0.0344 0.0344 0.9988
vn 0.0511 0.0177 0.9985
vn -0.8783 0.4732 0.068
vn -0.8701 0.4907 0.0454
vn -0.7176 0.6948 0.0471
vn -0.5168 0.8549 0.0457
vn -0.266 0.962 0.0618
vn 0.001 0.9978 0.0656
vn -0.0177 0.9986 0.0489
vn 0.2468 0.9656 0.0823
vn 0.4817 0.8715 0.0918
vn 0.4996 0.8635 0.0686
vn 0.7053 0.7053 0.071
vn 0.8635 0.4996 0.0686
vn 0.9656 0.2468 0.0823
vn 0.001 0.9988 0.0481
vn -0.3405 -0.9401 -0.0191
vn -0.2923 -0.9561 -0.0186
vn -0.5887 -0.808 -0.0236
vn 0.347 -0.9379 -0.0013
vn 0.3961 -0.9182 -0.0013
vn 0.1234 -0.9924 0.0011
vn -0.1025 -0.9946 -0.0185
vn -0.3901 -0.9206 -0.0195
vn -0.9898 -0.1414 -0.0168
vn -0.9998 -0.0161 -0.0151
vn 0.0013 -0.852 0.5236
vn 0.0013 0.8577 0.5141
vn 0.0012 0.9582 0.2861
vn -0.0011 0.1864 0.9825
vn -0.0012 -0.2077 0.9782
vn -0.0013 -0.3485 0.9373
vn -0.0012 0.3214 0.9469
vn 0.0011 -0.9897 0.143
vn 0.0011 -0.9866 0.1631
vn 0.0503 0.001 0.9987
vn 0.7069 -0.0239 0.7069
vn 0.052 -0.035 0.998
vn 0.035 -0.052 0.998
vn 0.3734 -0.6136 0.6958
vn 0.0177 -0.0511 0.9985
vn 0 1 -0.001
vn 0.0011 0.9953 0.0973
vn 0.001 0.9989 0.046
vn -0.0111 0.9998 0.0171
vn -0.0049 1 0.001
vn -0.002 1 -0.001
vn 0.77 -0.4528 0.4496
vn 0.6136 -0.3734 0.6958
vn 0.7051 -0.1999 0.6803
vn 0.8843 -0.045 0.4647
vn 0.7176 -0.0471 0.6948
vn 0.8921 -0.0674 0.4467
vn 0.027 0.8785 -0.4771
vn 0 0.5434 -0.8395
vn 0 0.9633 -0.2685
vn 0 0.9997 -0.025
vn 0 0 -1
vn -0.6875 0.2292 -0.6891
vn -1 0 -0.001
vn -0.707 -0.707 -0.021
vn 0.3714 -0.9285 -0.0013
vn 0.696 -0.7181 0.0014
vn 0.9182 -0.3961 -0.0013
vn 1 0 -0.001
vn 0.9251 0.3791 0.0194
vn 0.0449 -0.5696 -0.8207
vn 0 -0.4205 -0.9073
vn 0 -0.0159 -0.9999
vn 0 -0.9375 -0.3481
vn 0 -0.9994 -0.0333
vn -0.6951 -0.2571 -0.6713
vn -0.9471 0 -0.3211
vn 0.8227 0.5218 -0.2256
vn 0.8084 0.5311 0.2539
vn 0.6423 0.7216 0.2585
vn 0.9259 0.2782 0.2554
vn 0.5222 0.339 0.7825
vn 0.5894 0.1712 0.7895
vn 0.9346 0.2723 -0.2287
vn 0.4231 0.4786 0.7694
vn 0.5498 0.3428 -0.7617
vn 0.6185 0.1737 -0.7663
vn 0.6624 0.7127 -0.2308
vn 0.4547 0.481 -0.7496
vn 0.3858 0.8903 -0.2419
vn 0.2551 0.5889 -0.7669
vn 0.0455 0.645 -0.7629
vn 0.0897 0.9954 -0.0339
vn 0.0858 0.9963 0.0011
vn 0.3613 0.8936 0.2662
vn 0.2285 0.5799 0.782
vn 0.0238 0.6366 0.7709
vn 0.0712 0.996 0.0537
vn 0.0689 0.9975 0.018
vn 0.8102 0.5858 0.0208
vn 0.9942 0.1061 0.0186
vn 0.0159 0 -0.9999
vn 0.8461 -0.0219 -0.5326
vn 0.9547 0 -0.2974
vn 0.9469 0.0012 0.3214
vn 0.8291 -0.0235 0.5587
vn 0.5085 0.8561 0.0926
vn 0.5261 0.8476 0.0691
vn 0.3337 0.9417 0.0425
vn 0.361 0.9317 0.0404
vn 0.0336 0.9994 0.0092
vn 0.0442 0.999 0.0093
vn 0.8859 0.4549 0.091
vn 0.8992 0.4281 0.0901
vn 0.7809 0.6174 0.0949
vn 0.8127 0.5785 0.07
vn 0.6818 0.7281 0.0709
vn 0.2849 0.9577 0.0414
vn 0.3091 0.9501 0.042
vn 0.0337 0.9994 0.0112
vn 0.0231 0.9997 0.005
vn 0.7069 0.7069 0.0239
vn 0.3791 0.9251 0.0194
vn 0.9599 0.2797 0.0209
vn 0.7879 0.3931 0.474
vn 0.7278 0.5123 0.4559
vn 0.6225 0.4322 0.6525
vn 0.9924 -0.1234 0.0011
vn 0.8179 -0.5753 -0.0014
vn 0.473 -0.8811 0.0013
vn 0.2978 -0.9546 0.0012
vn -0.0161 -0.9998 -0.0151
vn 0.9063 0.4072 -0.1129
vn 0.9662 -0.2573 -0.0182
vn 0.8988 0.4161 0.1377
vn 0.9644 -0.2612 0.0409
vn 0.9856 0.1683 0.0172
vn 0.9883 0.1481 0.0379
vn 0.9911 0.1277 0.0373
vn 0.9501 0.3091 0.042
vn 0.9549 0.2902 0.0626
vn 0.8921 0.4467 0.0674
vn 0.8843 0.4647 0.045
vn 0.6948 0.7176 0.0471
vn 0.7176 0.6948 0.0471
vn 0.5785 0.8127 0.07
vn 0.4732 0.8783 0.068
vn 0.3863 0.9215 0.0409
vn 0.3677 0.9279 0.0624
vn 0.9892 0.1455 0.0192
vn 0.9995 0.001 0.0313
vn 0.9997 -0.0171 0.0151
vn 0.9856 -0.1683 0.0172
vn 0.9892 -0.1455 0.0192
vn 0.9446 -0.3275 0.0215
vn 0.9501 -0.3091 0.042
vn 0.8843 -0.4647 0.045
vn 0.876 -0.4818 0.0229
vn 0.8 -0.6 -0.0014
vn 0.6841 -0.729 0.0239
vn 0.7069 -0.7069 0.0239
vn 0.5686 -0.8213 0.0463
vn 0.4647 -0.8843 0.045
vn 0.3791 -0.9251 0.0194
vn 0.361 -0.9317 0.0404
vn 0.867 -0.4983 0.0013
vn 0.6174 0.0949 0.7809
vn 0.6407 0.0936 -0.7621
vn 0.9997 -0.0151 0.0171
vn 0.9999 -0.0159 -0.001
vn 0.9969 0.0356 0.0701
vn 0.9944 0.0546 0.0902
vn 0.996 0.0537 0.0712
o bolt
f 1/1/1 2/2/1 3/3/2
f 3/3/2 2/2/1 4/4/2
f 3/3/2 4/4/2 5/5/2
f 6/6/3 7/7/4 8/8/5
f 7/7/4 6/6/3 9/9/6
f 8/8/5 7/7/4 10/10/7
f 9/9/6 6/6/3 11/11/8
f 9/9/6 11/11/8 12/12/9
f 12/12/9 11/11/8 13/13/10
f 13/13/10 11/11/8 14/14/11
f 13/13/10 14/14/11 15/15/12
f 11/11/8 6/6/3 16/16/13
f 14/14/11 11/11/8 17/17/13
f 17/17/13 11/11/8 16/16/13
f 15/15/12 14/14/11 18/18/14
f 15/15/12 18/18/14 19/19/15
f 16/16/13 6/6/3 20/20/13
f 20/20/13 6/6/3 8/8/5
f 16/16/13 20/20/13 21/21/16
f 16/16/13 21/21/16 17/17/13
f 20/20/13 8/8/5 22/22/13
f 19/19/15 18/18/14 23/23/17
f 20/20/13 22/22/13 24/24/16
f 20/20/13 24/24/16 21/21/16
f 22/22/13 8/8/5 25/25/18
f 22/22/13 25/25/18 24/24/16
f 25/25/18 8/8/5 10/10/7
f 19/19/15 23/23/17 26/26/19
f 25/25/18 10/10/7 27/27/20
f 25/25/18 27/27/20 24/24/16
f 24/24/16 27/27/20 21/21/16
f 27/27/20 10/10/7 28/28/21
f 27/27/20 28/28/21 29/29/22
f 27/27/20 29/29/22 21/21/16
f 29/29/22 28/28/21 30/30/23
f 29/29/22 30/30/23 31/31/24
f 31/31/24 30/30/23 32/32/25
f 21/21/16 29/29/22 33/33/16
f 33/33/16 29/29/22 31/31/24
f 34/34/26 32/35/27 35/36/27
f 35/36/27 32/35/27 36/37/28
f 32/35/27 34/34/26 37/38/26
f 36/37/28 32/35/27 30/39/28
f 37/38/26 34/34/26 38/40/29
f 36/37/28 30/39/28 39/41/30
f 37/38/26 38/40/29 40/42/29
f 39/41/30 30/39/28 28/43/30
f 40/42/29 38/40/29 41/44/31
f 39/41/30 28/43/30 42/45/32
f 40/42/29 41/44/31 43/46/31
f 42/45/32 28/43/30 10/47/33
f 43/46/31 41/44/31 44/48/34
f 42/45/32 10/47/33 7/49/35
f 43/46/31 44/48/34 45/50/34
f 42/45/32 7/49/35 46/51/35
f 45/50/34 44/48/34 47/52/29
f 46/51/35 7/49/35 9/53/36
f 45/50/34 47/52/29 48/54/29
f 46/51/35 9/53/36 49/55/36
f 48/54/29 47/52/29 50/56/37
f 49/55/36 9/53/36 12/57/38
f 49/55/36 12/57/38 51/58/38
f 51/58/38 12/57/38 52/59/39
f 52/59/39 12/57/38 13/60/39
f 52/59/39 13/60/39 53/61/40
f 53/61/40 13/60/39 15/62/40
f 48/54/29 50/56/37 54/63/41
f 53/61/40 15/62/40 55/64/42
f 54/63/41 50/56/37 56/65/43
f 54/63/41 56/65/43 57/66/44
f 56/65/43 50/56/37 58/67/45
f 56/65/43 58/67/45 59/68/45
f 59/68/45 58/67/45 60/69/46
f 60/69/46 58/67/45 61/70/47
f 60/69/46 61/70/47 62/71/48
f 62/71/48 61/70/47 63/72/49
f 62/71/48 63/72/49 64/73/50
f 64/73/50 63/72/49 65/74/51
f 64/73/50 65/74/51 66/75/52
f 66/75/52 65/74/51 67/76/52
f 66/75/52 67/76/52 68/77/52
f 68/77/52 67/76/52 69/78/52
f 19/79/42 55/64/42 15/62/40
f 55/64/42 19/79/42 70/80/42
f 70/80/42 19/79/42 26/81/53
f 55/64/42 70/80/42 71/82/54
f 70/80/42 26/81/53 72/83/55
f 72/83/55 26/81/53 73/84/56
f 72/83/55 73/84/56 74/85/56
f 55/64/42 71/82/54 75/86/53
f 75/86/53 71/82/54 76/87/53
f 75/86/53 76/87/53 77/88/56
f 75/86/53 77/88/56 78/89/56
f 79/1/57 80/2/57 1/1/1
f 1/1/1 80/2/57 2/2/1
f 80/2/57 79/1/57 81/90/58
f 81/90/58 79/1/57 82/91/58
f 83/92/59 84/93/59 85/94/60
f 83/92/59 85/94/60 86/95/60
f 86/95/60 85/94/60 87/96/61
f 87/96/61 85/94/60 88/97/61
f 87/96/61 88/97/61 89/98/62
f 87/96/61 89/98/62 90/99/62
f 90/99/62 89/98/62 91/100/63
f 91/100/63 89/98/62 92/101/63
f 91/100/63 92/101/63 93/102/64
f 91/100/63 93/102/64 94/103/64
f 94/103/64 93/102/64 95/104/65
f 95/104/65 93/102/64 96/105/65
f 95/104/65 96/105/65 97/106/58
f 95/104/65 97/106/58 98/107/58
f 98/107/58 97/106/58 99/108/66
f 98/107/58 99/108/66 100/109/66
f 101/110/67 102/111/68 103/112/69
f 103/112/69 102/111/68 104/113/70
f 101/110/67 103/112/69 105/114/71
f 103/112/69 104/113/70 106/115/72
f 105/114/71 103/112/69 107/116/71
f 103/112/69 106/115/72 108/115/73
f 103/112/69 108/115/73 107/116/71
f 108/115/73 106/115/72 109/117/74
f 107/116/71 108/115/73 110/116/71
f 108/115/73 109/117/74 111/117/75
f 108/115/73 111/117/75 110/116/71
f 111/117/75 109/117/74 112/118/76
f 111/117/75 112/118/76 113/119/77
f 111/117/75 113/119/77 110/116/71
f 110/116/71 113/119/77 114/120/71
f 115/121/78 116/122/16 117/123/16
f 117/123/16 116/122/16 118/124/79
f 119/125/80 115/121/78 48/126/81
f 115/121/78 119/125/80 116/122/16
f 119/125/80 48/126/81 54/127/82
f 116/122/16 119/125/80 120/128/16
f 116/122/16 120/128/16 118/124/79
f 119/125/80 54/127/82 121/129/83
f 119/125/80 121/129/83 120/128/16
f 121/129/83 54/127/82 57/130/84
f 121/129/83 57/130/84 122/131/85
f 121/129/83 122/131/85 123/132/16
f 120/128/16 121/129/83 124/133/16
f 124/133/16 121/129/83 123/132/16
f 120/128/16 124/133/16 118/124/79
f 124/133/16 123/132/16 125/134/16
f 124/133/16 125/134/16 118/124/79
f 118/124/79 125/134/16 126/135/13
f 118/124/79 126/135/13 127/136/13
f 118/124/79 127/136/13 128/137/13
f 118/124/79 128/137/13 129/138/13
f 118/124/79 129/138/13 130/139/13
f 118/124/79 130/139/13 131/140/13
f 118/124/79 131/140/13 132/141/86
f 118/124/79 132/141/86 133/142/87
f 133/142/87 132/141/86 134/143/86
f 133/142/87 134/143/86 135/144/86
f 133/142/87 135/144/86 136/145/86
f 133/142/87 136/145/86 137/146/86
f 133/142/87 137/146/86 138/147/86
f 133/142/87 138/147/86 139/148/86
f 133/142/87 139/148/86 140/149/71
f 141/150/71 142/151/71 140/149/71
f 140/149/71 142/151/71 133/142/87
f 133/142/87 142/151/71 143/152/71
f 143/152/71 142/151/71 144/153/88
f 144/153/88 142/151/71 145/154/89
f 143/152/71 144/153/88 146/155/71
f 143/152/71 146/155/71 133/142/87
f 146/155/71 144/153/88 147/156/90
f 147/156/90 144/153/88 148/157/91
f 147/156/90 148/157/91 149/158/92
f 146/155/71 147/156/90 150/159/71
f 146/155/71 150/159/71 133/142/87
f 147/156/90 149/158/92 151/160/93
f 147/156/90 151/160/93 150/159/71
f 151/160/93 149/158/92 152/161/94
f 151/160/93 152/161/94 153/162/95
f 153/162/95 152/161/94 154/163/91
f 150/159/71 151/160/93 155/164/71
f 155/164/71 151/160/93 153/162/95
f 155/164/71 153/162/95 156/165/71
f 156/165/71 153/162/95 157/166/96
f 150/159/71 155/164/71 158/167/86
f 150/159/71 158/167/86 133/142/87
f 155/164/71 156/165/71 159/168/86
f 155/164/71 159/168/86 158/167/86
f 159/168/86 156/165/71 160/169/71
f 158/167/86 159/168/86 161/170/97
f 159/168/86 160/169/71 162/171/86
f 162/171/86 160/169/71 163/172/71
f 162/171/86 163/172/71 164/173/86
f 164/173/86 163/172/71 165/174/71
f 164/173/86 165/174/71 166/175/86
f 166/175/86 165/174/71 167/176/71
f 158/167/86 161/170/97 168/177/98
f 169/178/99 133/142/87 158/167/86
f 169/178/99 158/167/86 168/177/98
f 133/142/87 169/178/99 118/124/79
f 118/124/79 169/178/99 23/23/17
f 23/23/17 169/178/99 26/26/19
f 26/26/19 169/178/99 168/177/98
f 26/26/19 168/177/98 73/179/100
f 161/170/97 73/179/100 168/177/98
f 73/179/100 161/170/97 170/180/101
f 170/180/101 161/170/97 171/181/102
f 171/181/102 161/170/97 159/168/86
f 170/180/101 171/181/102 172/182/103
f 171/181/102 159/168/86 162/171/86
f 172/182/103 171/181/102 173/183/104
f 171/181/102 162/171/86 174/184/105
f 171/181/102 174/184/105 173/183/104
f 174/184/105 162/171/86 164/173/86
f 173/183/104 174/184/105 175/185/106
f 174/184/105 164/173/86 176/186/107
f 174/184/105 176/186/107 175/185/106
f 176/186/107 164/173/86 166/175/86
f 175/185/106 176/186/107 177/187/108
f 176/186/107 166/175/86 178/188/109
f 176/186/107 178/188/109 177/187/108
f 178/188/109 166/175/86 167/176/71
f 177/187/108 178/188/109 179/189/110
f 179/189/110 178/188/109 167/176/71
f 177/187/108 179/189/110 180/190/111
f 179/189/110 167/176/71 165/174/71
f 180/190/111 179/189/110 181/191/112
f 181/191/112 179/189/110 165/174/71
f 180/190/111 181/191/112 182/192/113
f 181/191/112 165/174/71 163/172/71
f 182/192/113 181/191/112 183/193/114
f 183/193/114 181/191/112 163/172/71
f 182/192/113 183/193/114 184/194/115
f 183/193/114 163/172/71 160/169/71
f 184/194/115 183/193/114 185/195/116
f 183/193/114 160/169/71 157/166/96
f 183/193/114 157/166/96 185/195/116
f 157/166/96 160/169/71 156/165/71
f 185/195/116 157/166/96 154/163/91
f 154/163/91 157/166/96 153/162/95
f 186/196/70 187/197/13 188/198/72
f 188/198/72 187/197/13 189/199/74
f 187/197/13 186/196/70 190/200/13
f 190/200/13 186/196/70 191/201/99
f 189/199/74 187/197/13 192/202/13
f 189/199/74 192/202/13 193/203/117
f 192/202/13 187/197/13 194/204/71
f 193/203/117 192/202/13 195/203/16
f 195/203/16 192/202/13 194/204/71
f 194/204/71 187/197/13 196/205/118
f 196/205/118 187/197/13 190/200/13
f 195/203/16 194/204/71 197/206/71
f 193/203/117 195/203/16 198/207/16
f 198/207/16 195/203/16 197/206/71
f 5/208/119 4/209/120 112/210/119
f 112/210/119 4/209/120 199/211/120
f 200/212/121 193/203/117 198/207/16
f 200/212/121 198/207/16 201/213/16
f 201/213/16 198/207/16 197/206/71
f 200/212/121 201/213/16 202/214/122
f 202/214/122 201/213/16 203/215/123
f 201/213/16 197/206/71 204/216/16
f 201/213/16 204/216/16 203/215/123
f 203/215/123 204/216/16 102/217/124
f 204/216/16 197/206/71 205/218/71
f 102/217/124 204/216/16 206/219/71
f 206/219/71 204/216/16 205/218/71
f 102/217/124 206/219/71 207/220/71
f 207/220/71 206/219/71 205/218/71
f 102/217/124 207/220/71 104/221/125
f 207/220/71 205/218/71 62/222/71
f 207/220/71 62/222/71 208/223/71
f 208/223/71 62/222/71 209/224/71
f 209/224/71 62/222/71 210/225/71
f 62/222/71 205/218/71 60/226/71
f 60/226/71 205/218/71 211/227/86
f 60/226/71 211/227/86 59/228/86
f 59/228/86 211/227/86 56/229/86
f 56/229/86 211/227/86 212/230/86
f 56/229/86 212/230/86 213/231/71
f 56/229/86 213/231/71 214/232/71
f 214/232/71 213/231/71 215/233/71
f 215/233/71 213/231/71 216/234/71
f 215/233/71 216/234/71 217/235/71
f 217/235/71 216/234/71 218/236/71
f 217/235/71 218/236/71 219/237/71
f 219/237/71 218/236/71 220/238/71
f 219/237/71 220/238/71 221/239/71
f 219/237/71 221/239/71 222/240/71
f 222/240/71 221/239/71 223/241/71
f 222/240/71 223/241/71 224/242/71
f 224/242/71 223/241/71 225/243/71
f 225/243/71 223/241/71 226/244/71
f 225/243/71 226/244/71 227/245/71
f 199/211/120 4/209/120 228/246/16
f 228/246/16 4/209/120 229/247/16
f 228/246/16 229/247/16 230/248/71
f 230/248/71 229/247/16 231/249/71
f 232/250/71 233/251/71 234/252/71
f 234/252/71 233/251/71 235/253/71
f 233/251/71 232/250/71 236/254/71
f 236/254/71 232/250/71 237/255/71
f 233/251/71 236/254/71 238/256/71
f 236/254/71 237/255/71 239/257/71
f 236/254/71 239/257/71 240/258/71
f 236/254/71 240/258/71 241/259/71
f 236/254/71 241/259/71 242/260/71
f 238/256/71 236/254/71 243/261/71
f 243/261/71 236/254/71 244/262/71
f 243/261/71 244/262/71 245/263/71
f 245/263/71 244/262/71 246/264/71
f 246/264/71 244/262/71 247/265/71
f 247/265/71 244/262/71 248/266/71
f 247/265/71 248/266/71 249/267/71
f 247/265/71 249/267/71 250/268/71
f 250/268/71 249/267/71 251/269/71
f 251/269/71 249/267/71 252/270/71
f 251/269/71 252/270/71 253/271/71
f 251/269/71 253/271/71 254/272/71
f 254/272/71 253/271/71 255/273/71
f 254/272/71 255/273/71 256/274/71
f 254/272/71 256/274/71 100/275/71
f 100/275/71 256/274/71 257/276/71
f 100/275/71 257/276/71 98/277/71
f 258/278/71 259/279/71 257/276/71
f 257/276/71 259/279/71 260/280/71
f 257/276/71 260/280/71 98/277/71
f 98/277/71 260/280/71 261/281/71
f 261/281/71 260/280/71 262/282/71
f 261/281/71 262/282/71 263/283/71
f 98/277/71 261/281/71 87/284/71
f 87/284/71 261/281/71 86/285/71
f 86/285/71 261/281/71 264/286/71
f 86/285/71 264/286/71 83/287/71
f 98/277/71 87/284/71 90/288/71
f 98/277/71 90/288/71 95/289/71
f 95/289/71 90/288/71 91/290/71
f 95/289/71 91/290/71 94/291/71
f 265/110/126 266/292/127 203/293/128
f 203/293/128 266/292/127 202/292/129
f 202/292/129 266/292/127 267/294/130
f 202/292/129 267/294/130 200/295/131
f 200/295/131 267/294/130 193/296/132
f 193/296/132 267/294/130 268/297/133
f 193/296/132 268/297/133 269/297/134
f 193/296/132 269/297/134 189/298/135
f 189/298/135 269/297/134 188/298/136
f 188/298/136 269/297/134 270/299/137
f 188/298/136 270/299/137 186/300/125
f 186/300/125 270/299/137 271/299/138
f 210/225/71 272/301/86 5/302/131
f 5/302/131 272/301/86 273/303/86
f 210/225/71 5/302/131 112/304/132
f 5/302/131 273/303/86 274/305/129
f 274/305/129 273/303/86 275/306/128
f 275/306/128 273/303/86 276/307/86
f 210/225/71 112/304/132 209/224/71
f 209/224/71 112/304/132 109/308/135
f 209/224/71 109/308/135 208/223/71
f 208/223/71 109/308/135 106/309/136
f 208/223/71 106/309/136 104/221/125
f 208/223/71 104/221/125 207/220/71
f 71/310/13 277/311/16 278/312/13
f 71/310/13 278/312/13 279/313/13
f 71/310/13 279/313/13 280/314/13
f 277/311/16 71/310/13 281/315/16
f 277/311/16 281/315/16 282/316/71
f 71/310/13 280/314/13 283/317/13
f 71/310/13 283/317/13 76/318/13
f 76/318/13 283/317/13 284/319/71
f 76/318/13 284/319/71 285/320/71
f 76/318/13 285/320/71 286/321/71
f 76/318/13 286/321/71 77/322/71
f 77/322/71 286/321/71 287/323/71
f 77/322/71 287/323/71 288/324/71
f 288/324/71 287/323/71 289/325/71
f 288/324/71 289/325/71 290/326/71
f 290/326/71 289/325/71 291/327/71
f 290/326/71 291/327/71 292/328/71
f 290/326/71 292/328/71 293/329/71
f 293/329/71 292/328/71 294/330/71
f 294/330/71 292/328/71 295/331/71
f 294/330/71 295/331/71 296/332/71
f 74/85/56 73/84/56 170/333/139
f 74/85/56 170/333/139 297/334/140
f 297/334/140 170/333/139 172/335/141
f 297/334/140 172/335/141 298/336/141
f 298/336/141 172/335/141 299/337/142
f 299/337/142 172/335/141 173/338/142
f 299/337/142 173/338/142 300/339/143
f 300/339/143 173/338/142 175/340/143
f 300/339/143 175/340/143 301/341/144
f 301/341/144 175/340/143 177/342/145
f 301/341/144 177/342/145 180/343/146
f 301/341/144 180/343/146 302/344/146
f 302/344/146 180/343/146 182/345/147
f 302/344/146 182/345/147 303/346/148
f 303/346/148 182/345/147 184/347/149
f 303/346/148 184/347/149 304/348/149
f 304/348/149 184/347/149 305/349/150
f 305/349/150 184/347/149 185/350/150
f 305/349/150 185/350/150 306/351/151
f 306/351/151 185/350/150 154/352/151
f 78/89/56 77/88/56 288/353/140
f 78/89/56 288/353/140 307/354/140
f 307/354/140 288/353/140 290/355/141
f 307/354/140 290/355/141 308/356/141
f 308/356/141 290/355/141 309/357/142
f 309/357/142 290/355/141 293/358/142
f 309/357/142 293/358/142 310/359/143
f 310/359/143 293/358/142 294/360/143
f 310/359/143 294/360/143 311/361/152
f 311/361/152 294/360/143 296/362/152
f 311/361/152 296/362/152 295/363/146
f 311/361/152 295/363/146 312/364/146
f 312/364/146 295/363/146 292/365/148
f 312/364/146 292/365/148 313/366/148
f 313/366/148 292/365/148 291/367/149
f 313/366/148 291/367/149 314/368/149
f 314/368/149 291/367/149 315/369/150
f 315/369/150 291/367/149 289/370/150
f 315/369/150 289/370/150 316/371/151
f 316/371/151 289/370/150 287/372/151
f 100/109/66 99/108/66 317/373/153
f 100/109/66 317/373/153 254/374/153
f 254/374/153 317/373/153 251/375/154
f 251/375/154 317/373/153 318/376/154
f 251/375/154 318/376/154 250/377/155
f 250/377/155 318/376/154 319/378/155
f 250/377/155 319/378/155 320/379/156
f 250/377/155 320/379/156 247/380/156
f 247/380/156 320/379/156 246/381/157
f 246/381/157 320/379/156 321/382/157
f 246/381/157 321/382/157 322/383/158
f 246/381/157 322/383/158 245/384/158
f 245/384/158 322/383/158 323/385/159
f 245/384/158 323/385/159 243/386/159
f 243/386/159 323/385/159 324/387/160
f 243/386/159 324/387/160 238/388/160
f 238/388/160 324/387/160 233/389/161
f 233/389/161 324/387/160 325/390/161
f 233/389/161 325/390/161 326/391/162
f 233/389/161 326/391/162 235/392/162
f 327/393/52 328/394/163 329/395/117
f 329/395/117 328/394/163 330/396/164
f 330/396/164 328/394/163 331/397/165
f 331/397/165 328/394/163 332/398/166
f 328/394/163 327/393/52 333/399/52
f 332/398/166 328/394/163 334/400/167
f 332/398/166 334/400/167 335/401/168
f 332/398/166 335/401/168 336/402/169
f 334/400/167 328/394/163 337/403/170
f 334/400/167 337/403/170 335/401/168
f 337/403/170 328/394/163 333/399/52
f 335/401/168 337/403/170 338/404/171
f 338/404/171 337/403/170 333/399/52
f 338/404/171 333/399/52 339/405/52
f 339/405/52 333/399/52 340/406/52
f 338/404/171 339/405/52 341/407/52
f 341/407/52 339/405/52 342/408/52
f 342/408/52 339/405/52 343/409/52
f 265/110/126 203/293/128 102/111/68
f 265/110/126 102/111/68 101/110/67
f 265/110/126 101/110/67 344/114/71
f 265/110/126 344/114/71 345/410/71
f 265/110/126 345/410/71 266/292/127
f 344/114/71 101/110/67 105/114/71
f 266/292/127 345/410/71 346/410/71
f 266/292/127 346/410/71 267/294/130
f 267/294/130 346/410/71 347/411/71
f 267/294/130 347/411/71 348/411/71
f 267/294/130 348/411/71 268/297/133
f 268/297/133 348/411/71 269/297/134
f 269/297/134 348/411/71 349/412/71
f 269/297/134 349/412/71 270/299/137
f 270/299/137 349/412/71 350/412/71
f 270/299/137 350/412/71 351/413/71
f 270/299/137 351/413/71 271/299/138
f 271/299/138 351/413/71 352/413/71
f 271/299/138 352/413/71 353/414/172
f 353/414/172 352/413/71 82/415/71
f 271/299/138 353/414/172 191/416/173
f 271/299/138 191/416/173 186/300/125
f 353/414/172 82/415/71 354/417/174
f 353/414/172 354/417/174 191/416/173
f 191/416/173 354/417/174 275/417/123
f 354/417/174 82/415/71 79/415/71
f 275/417/123 354/417/174 274/418/122
f 354/417/174 79/415/71 355/419/175
f 354/417/174 355/419/175 274/418/122
f 355/419/175 79/415/71 1/120/71
f 274/418/122 355/419/175 5/420/176
f 355/419/175 1/120/71 3/419/177
f 355/419/175 3/419/177 5/420/176
f 330/396/164 331/397/165 356/421/178
f 356/421/178 331/397/165 281/422/178
f 281/422/178 331/397/165 357/423/179
f 357/423/179 331/397/165 332/398/166
f 357/423/179 332/398/166 336/402/169
f 357/423/179 336/402/169 358/424/180
f 357/423/179 358/424/180 281/422/178
f 281/422/178 358/424/180 359/425/178
f 281/422/178 359/425/178 360/426/178
f 359/425/178 358/424/180 361/427/178
f 359/425/178 361/427/178 362/428/178
f 359/425/178 362/428/178 363/429/178
f 70/430/181 356/431/182 281/432/183
f 70/430/181 281/432/183 71/433/152
f 37/434/184 31/31/24 32/32/25
f 33/33/16 17/17/13 21/21/16
f 31/31/24 37/434/184 364/435/185
f 365/436/16 33/33/16 31/31/24
f 33/33/16 365/436/16 17/17/13
f 365/436/16 31/31/24 364/435/185
f 364/435/185 37/434/184 40/437/81
f 17/17/13 365/436/16 366/438/13
f 17/17/13 366/438/13 14/14/11
f 14/14/11 366/438/13 18/18/14
f 366/438/13 365/436/16 367/439/16
f 367/439/16 365/436/16 364/435/185
f 18/18/14 366/438/13 368/440/13
f 368/440/13 366/438/13 367/439/16
f 18/18/14 368/440/13 23/23/17
f 369/441/186 364/435/185 40/437/81
f 364/435/185 369/441/186 367/439/16
f 369/441/186 40/437/81 43/442/187
f 369/441/186 43/442/187 370/443/188
f 369/441/186 370/443/188 367/439/16
f 370/443/188 43/442/187 45/444/189
f 117/123/16 368/440/13 367/439/16
f 117/123/16 367/439/16 370/443/188
f 370/443/188 45/444/189 115/121/78
f 370/443/188 115/121/78 117/123/16
f 115/121/78 45/444/189 48/126/81
f 368/440/13 117/123/16 118/124/79
f 368/440/13 118/124/79 23/23/17
f 371/445/190 372/446/191 373/447/192
f 371/445/190 373/447/192 374/448/193
f 373/447/192 372/446/191 375/449/194
f 373/447/192 375/449/194 376/450/195
f 81/90/58 82/91/58 377/90/196
f 377/90/196 82/91/58 352/91/196
f 377/90/196 352/91/196 378/451/2
f 378/451/2 352/91/196 351/452/2
f 378/451/2 351/452/2 379/451/197
f 379/451/197 351/452/2 350/452/197
f 379/451/197 350/452/197 380/451/160
f 380/451/160 350/452/197 349/452/160
f 380/451/160 349/452/160 381/453/52
f 381/453/52 349/452/160 348/454/52
f 381/453/52 348/454/52 382/453/198
f 382/453/198 348/454/52 347/454/198
f 382/453/198 347/454/198 383/455/199
f 383/455/199 347/454/198 346/456/199
f 383/455/199 346/456/199 384/455/200
f 384/455/200 346/456/199 345/456/200
f 384/455/200 345/456/200 385/457/201
f 385/457/201 345/456/200 344/458/201
f 385/457/201 344/458/201 386/457/202
f 386/457/202 344/458/201 105/458/202
f 362/459/194 342/460/194 343/461/194
f 362/459/194 343/461/194 363/462/194
f 372/446/191 387/463/203 388/464/204
f 387/463/203 372/446/191 371/445/190
f 387/463/203 371/445/190 374/465/201
f 387/463/203 374/465/201 389/466/201
f 372/446/191 388/464/204 390/467/205
f 372/446/191 390/467/205 375/449/194
f 388/464/204 387/463/203 391/468/206
f 391/468/206 387/463/203 389/469/207
f 391/468/206 389/469/207 360/470/194
f 391/468/206 360/470/194 359/471/194
f 375/449/194 390/467/205 376/450/195
f 388/464/204 391/468/206 392/472/208
f 388/464/204 392/472/208 390/467/205
f 390/467/205 392/472/208 376/450/195
f 392/472/208 391/468/206 359/473/209
f 392/472/208 359/473/209 376/450/195
f 376/450/195 359/473/209 339/474/209
f 376/450/195 339/474/209 373/447/192
f 339/474/209 359/473/209 343/475/196
f 343/475/196 359/473/209 363/476/196
f 340/477/194 373/447/192 339/478/194
f 373/447/192 340/477/194 374/448/193
f 393/479/210 394/480/211 395/481/212
f 394/480/211 393/479/210 396/482/213
f 394/480/211 396/482/213 253/483/214
f 394/480/211 253/483/214 395/481/212
f 253/483/214 396/482/213 255/484/215
f 396/482/213 393/479/210 397/485/216
f 395/481/212 253/483/214 252/486/217
f 397/485/216 393/479/210 398/487/218
f 397/485/216 398/487/218 399/488/219
f 398/487/218 393/479/210 400/489/220
f 400/489/220 393/479/210 395/481/212
f 398/487/218 400/489/220 401/490/221
f 401/490/221 400/489/220 402/491/222
f 402/491/222 400/489/220 395/481/212
f 401/490/221 402/491/222 403/492/223
f 403/492/223 402/491/222 404/493/224
f 404/493/224 402/491/222 405/494/225
f 404/493/224 405/494/225 406/495/226
f 402/491/222 395/481/212 407/496/227
f 407/496/227 395/481/212 252/486/217
f 407/496/227 252/486/217 249/497/228
f 407/496/227 249/497/228 248/498/229
f 402/491/222 407/496/227 408/499/230
f 402/491/222 408/499/230 405/494/225
f 408/499/230 407/496/227 248/498/229
f 405/494/225 408/499/230 406/495/226
f 408/499/230 248/498/229 244/500/231
f 408/499/230 244/500/231 406/495/226
f 406/495/226 244/500/231 236/501/231
f 406/495/226 236/501/231 409/502/231
f 409/502/231 236/501/231 410/503/62
f 410/503/62 236/501/231 242/504/62
f 410/503/62 242/504/62 241/505/232
f 410/503/62 241/505/232 411/506/232
f 411/506/232 241/505/232 240/507/233
f 411/506/232 240/507/233 412/508/233
f 409/509/234 413/510/194 325/511/194
f 325/511/194 413/510/194 414/512/205
f 325/511/194 414/512/205 326/513/194
f 413/510/194 409/509/234 415/514/234
f 409/509/234 325/511/194 324/515/194
f 415/514/234 409/509/234 416/516/234
f 416/516/234 409/509/234 412/517/194
f 412/517/194 409/509/234 411/518/194
f 411/518/194 409/509/234 410/519/194
f 409/509/234 324/515/194 323/520/194
f 409/509/234 323/520/194 406/521/194
f 406/521/194 323/520/194 322/522/194
f 406/521/194 322/522/194 321/523/194
f 406/521/194 321/523/194 320/524/194
f 406/521/194 320/524/194 404/525/194
f 404/525/194 320/524/194 403/526/194
f 403/526/194 320/524/194 319/527/194
f 403/526/194 319/527/194 318/528/194
f 403/526/194 318/528/194 401/529/194
f 401/529/194 318/528/194 398/530/194
f 398/530/194 318/528/194 317/531/194
f 398/530/194 317/531/194 399/532/194
f 399/532/194 317/531/194 417/533/194
f 417/533/194 317/531/194 99/534/194
f 417/533/194 99/534/194 418/535/194
f 418/535/194 99/534/194 97/536/194
f 419/537/194 420/538/194 418/535/194
f 419/537/194 418/535/194 421/539/194
f 421/539/194 418/535/194 97/536/194
f 421/539/194 97/536/194 422/540/194
f 421/539/194 422/540/194 423/541/194
f 423/541/194 422/540/194 424/542/194
f 422/540/194 97/536/194 88/543/194
f 88/543/194 97/536/194 89/544/194
f 422/540/194 88/543/194 85/545/194
f 422/540/194 85/545/194 425/546/194
f 425/546/194 85/545/194 84/547/194
f 89/544/194 97/536/194 96/548/194
f 89/544/194 96/548/194 92/549/194
f 92/549/194 96/548/194 93/550/194
f 303/551/194 300/552/194 302/553/194
f 302/553/194 300/552/194 301/554/194
f 300/552/194 303/551/194 299/555/194
f 299/555/194 303/551/194 298/556/194
f 298/556/194 303/551/194 304/557/194
f 298/556/194 304/557/194 305/558/194
f 298/556/194 305/558/194 297/559/194
f 297/559/194 305/558/194 306/560/194
f 297/559/194 306/560/194 74/561/194
f 74/561/194 306/560/194 426/562/194
f 74/561/194 426/562/194 72/563/194
f 72/563/194 426/562/194 427/564/194
f 72/563/194 427/564/194 428/565/194
f 72/563/194 428/565/194 429/566/194
f 72/563/194 429/566/194 70/567/194
f 70/567/194 429/566/194 430/568/194
f 70/567/194 430/568/194 431/569/194
f 70/567/194 431/569/194 432/570/194
f 70/567/194 432/570/194 433/571/194
f 70/567/194 433/571/194 356/572/194
f 356/572/194 433/571/194 434/573/194
f 53/574/194 41/575/194 38/576/194
f 53/574/194 38/576/194 34/577/194
f 53/574/194 34/577/194 52/578/194
f 52/578/194 34/577/194 51/579/194
f 51/579/194 34/577/194 35/580/194
f 51/579/194 35/580/194 36/581/194
f 51/579/194 36/581/194 49/582/194
f 49/582/194 36/581/194 46/583/194
f 46/583/194 36/581/194 39/584/194
f 46/583/194 39/584/194 42/585/194
f 55/586/194 41/575/194 53/574/194
f 41/575/194 55/586/194 44/587/194
f 44/587/194 55/586/194 47/588/194
f 47/588/194 55/586/194 50/589/194
f 50/589/194 55/586/194 435/590/194
f 50/589/194 435/590/194 58/591/194
f 435/590/194 55/586/194 75/592/194
f 58/591/194 435/590/194 436/593/194
f 435/590/194 75/592/194 437/594/194
f 58/591/194 436/593/194 61/595/194
f 437/594/194 75/592/194 438/596/194
f 61/595/194 436/593/194 439/597/194
f 438/596/194 75/592/194 440/598/194
f 61/595/194 439/597/194 441/599/194
f 440/598/194 75/592/194 78/600/194
f 61/595/194 441/599/194 63/601/194
f 440/598/194 78/600/194 316/602/194
f 316/602/194 78/600/194 315/603/194
f 315/603/194 78/600/194 307/604/194
f 315/603/194 307/604/194 308/605/194
f 315/603/194 308/605/194 314/606/194
f 314/606/194 308/605/194 313/607/194
f 313/607/194 308/605/194 309/608/194
f 313/607/194 309/608/194 310/609/194
f 313/607/194 310/609/194 312/610/194
f 312/610/194 310/609/194 311/611/194
f 442/612/194 63/601/194 441/599/194
f 63/601/194 442/612/194 65/613/194
f 65/613/194 442/612/194 374/614/194
f 374/614/194 442/612/194 389/615/194
f 65/613/194 374/614/194 340/616/234
f 389/615/194 442/612/194 360/617/234
f 65/613/194 340/616/234 67/618/234
f 360/617/234 442/612/194 443/619/234
f 360/617/234 443/619/234 282/620/235
f 360/617/234 282/620/235 281/621/235
f 67/618/234 340/616/234 69/622/236
f 69/622/236 340/616/234 333/623/236
f 69/622/236 333/623/236 68/624/237
f 68/624/237 333/623/236 327/625/237
f 68/624/237 327/625/237 66/626/118
f 66/626/118 327/625/237 329/627/71
f 66/626/118 329/627/71 64/628/71
f 64/628/71 329/627/71 62/222/71
f 62/222/71 329/627/71 210/225/71
f 210/225/71 329/627/71 272/301/86
f 272/301/86 329/627/71 330/629/71
f 272/301/86 330/629/71 273/303/86
f 273/303/86 330/629/71 276/307/86
f 275/306/128 276/307/86 191/201/99
f 191/201/99 276/307/86 444/630/86
f 444/630/86 276/307/86 330/629/71
f 191/201/99 444/630/86 190/200/13
f 190/200/13 444/630/86 196/205/118
f 196/205/118 444/630/86 330/629/71
f 196/205/118 330/629/71 356/631/238
f 196/205/118 356/631/238 434/632/238
f 437/633/151 284/634/151 435/635/150
f 435/635/150 284/634/151 283/636/150
f 435/635/150 283/636/150 436/637/149
f 436/637/149 283/636/150 280/638/149
f 436/637/149 280/638/149 279/639/239
f 436/637/149 279/639/239 439/640/240
f 439/640/240 279/639/239 278/641/241
f 439/640/240 278/641/241 441/642/242
f 441/642/242 278/641/241 277/643/243
f 441/642/242 277/643/243 442/644/244
f 442/644/244 277/643/243 443/645/178
f 443/645/178 277/643/243 282/646/178
f 428/647/151 148/648/151 429/649/245
f 429/649/245 148/648/151 445/650/246
f 429/649/245 445/650/246 212/651/247
f 212/651/247 445/650/246 446/652/248
f 429/649/245 212/651/247 430/653/249
f 430/653/249 212/651/247 211/654/249
f 430/653/249 211/654/249 205/655/148
f 430/653/249 205/655/148 431/656/148
f 431/656/148 205/655/148 197/657/250
f 431/656/148 197/657/250 432/658/251
f 432/658/251 197/657/250 194/659/252
f 432/658/251 194/659/252 433/660/253
f 433/660/253 194/659/252 196/661/178
f 433/660/253 196/661/178 434/662/178
f 386/457/202 105/458/202 447/663/254
f 447/663/254 105/458/202 107/664/254
f 447/663/254 107/664/254 448/663/255
f 448/663/255 107/664/254 110/664/255
f 448/663/255 110/664/255 449/663/256
f 449/663/256 110/664/255 114/664/256
f 148/157/91 144/153/88 445/665/257
f 445/665/257 144/153/88 145/154/89
f 445/665/257 145/154/89 446/666/258
f 446/666/258 145/154/89 450/667/259
f 450/667/259 145/154/89 141/150/71
f 141/150/71 145/154/89 142/151/71
f 412/508/233 240/507/233 239/668/260
f 412/508/233 239/668/260 416/669/260
f 416/669/260 239/668/260 237/670/261
f 416/669/260 237/670/261 415/671/261
f 415/671/261 237/670/261 413/672/262
f 413/672/262 237/670/261 232/673/262
f 413/672/262 232/673/262 414/674/263
f 414/674/263 232/673/262 234/675/263
f 414/674/263 234/675/263 235/676/264
f 414/674/263 235/676/264 326/677/264
f 451/678/265 418/679/266 452/680/267
f 452/680/267 418/679/266 257/681/268
f 422/682/200 261/683/200 424/684/269
f 424/684/269 261/683/200 263/685/269
f 424/684/269 263/685/269 262/686/199
f 424/684/269 262/686/199 423/687/199
f 423/687/199 262/686/199 421/688/200
f 421/688/200 262/686/199 260/689/200
f 225/690/270 131/691/271 224/692/272
f 224/692/272 131/691/271 130/693/273
f 224/692/272 130/693/273 222/694/274
f 222/694/274 130/693/273 129/695/275
f 222/694/274 129/695/275 219/696/232
f 219/696/232 129/695/275 128/697/232
f 219/696/232 128/697/232 217/698/276
f 217/698/276 128/697/232 127/699/277
f 217/698/276 127/699/277 126/700/278
f 217/698/276 126/700/278 215/701/278
f 215/701/278 126/700/278 125/702/279
f 215/701/278 125/702/279 214/703/279
f 214/703/279 125/702/279 123/704/280
f 214/703/279 123/704/280 122/705/281
f 214/703/279 122/705/281 57/706/281
f 214/703/279 57/706/281 56/707/280
f 421/688/200 260/689/200 259/708/282
f 421/688/200 259/708/282 419/709/282
f 132/710/283 131/691/271 225/690/270
f 132/710/283 225/690/270 227/711/284
f 132/710/283 227/711/284 226/712/285
f 132/710/283 226/712/285 134/713/286
f 134/713/286 226/712/285 223/714/287
f 134/713/286 223/714/287 135/715/288
f 135/715/288 223/714/287 221/716/289
f 135/715/288 221/716/289 136/717/290
f 136/717/290 221/716/289 220/718/291
f 136/717/290 220/718/291 137/719/291
f 137/719/291 220/718/291 218/720/292
f 137/719/291 218/720/292 138/721/293
f 138/721/293 218/720/292 139/722/294
f 139/722/294 218/720/292 216/723/294
f 139/722/294 216/723/294 140/724/295
f 140/724/295 216/723/294 213/725/295
f 140/724/295 213/725/295 141/726/296
f 141/726/296 213/725/295 450/727/297
f 450/727/297 213/725/295 446/728/297
f 446/728/297 213/725/295 212/729/296
f 84/93/59 83/92/59 264/730/298
f 84/93/59 264/730/298 425/731/298
f 425/731/298 264/730/298 261/683/200
f 425/731/298 261/683/200 422/682/200
f 419/709/282 259/708/282 258/732/199
f 419/709/282 258/732/199 420/733/199
f 420/733/199 258/732/199 418/679/266
f 418/679/266 258/732/199 257/681/268
f 256/734/299 452/680/267 257/681/268
f 452/680/267 256/734/299 396/482/213
f 396/482/213 256/734/299 255/484/215
f 452/680/267 396/482/213 451/678/265
f 417/735/300 418/679/266 451/678/265
f 451/678/265 396/482/213 397/485/216
f 451/678/265 397/485/216 417/735/300
f 417/735/300 397/485/216 399/488/219
f 449/663/256 114/664/256 113/736/301
f 449/663/256 113/736/301 199/737/301
f 199/737/301 113/736/301 112/738/302
f 306/351/151 154/352/151 426/739/303
f 426/739/303 154/352/151 152/740/303
f 426/739/303 152/740/303 427/741/304
f 427/741/304 152/740/303 149/742/304
f 427/741/304 149/742/304 428/647/151
f 428/647/151 149/742/304 148/648/151
f 316/371/151 287/372/151 440/743/303
f 440/743/303 287/372/151 286/744/303
f 440/743/303 286/744/303 438/745/305
f 438/745/305 286/744/303 285/746/305
f 438/745/305 285/746/305 437/633/151
f 437/633/151 285/746/305 284/634/151
