# CS2 body_hd, tools/cs2_glb_to_obj.py
v -0.20504 0.00561 0.00937
v -0.20858 0.00278 0.00953
v -0.20504 0.00822 0.00937
v -0.20858 0.01092 0.01558
v -0.20858 0.00291 0.01558
v -0.20858 0.01105 0.00953
v -0.19929 0.01092 0.00953
v -0.19937 0.00822 0.00927
v -0.19813 0.00822 0.0081
v -0.19791 0.01092 0.00828
v -0.19745 0.01092 0.00679
v -0.19771 0.00822 0.00672
v -0.19761 0.01092 0.00531
v -0.19803 0.00822 0.00487
v -0.19792 0.01092 0.00428
v -0.2001 0.00822 0.00183
v -0.19986 0.01092 0.0017
v -0.2017 0.00822 -0.00075
v -0.20146 0.01092 -0.00088
v -0.20279 0.00822 -0.00324
v -0.20254 0.01092 -0.00333
v -0.2035 0.00822 -0.00573
v -0.20323 0.01092 -0.00579
v -0.20395 0.00822 -0.00843
v -0.20368 0.01092 -0.00845
v -0.20401 0.00822 -0.01112
v -0.20374 0.01092 -0.01111
v -0.20353 0.01092 -0.01359
v -0.2038 0.00822 -0.01364
v -0.20293 0.01092 -0.01604
v -0.20319 0.00822 -0.01611
v -0.20206 0.01092 -0.0186
v -0.20219 0.00822 -0.01864
v -0.20085 0.01092 -0.02102
v -0.20085 0.00822 -0.02102
v -0.1997 0.01092 -0.02298
v -0.1984 0.00854 -0.02484
v -0.1984 0.01092 -0.02484
v -0.19716 0.00911 -0.02571
v -0.1976 0.01092 -0.02521
v -0.1984 0.00529 -0.02484
v -0.19622 0.00912 -0.02511
v -0.19716 0.00472 -0.02571
v -0.1984 0.00291 -0.02484
v -0.1997 0.00291 -0.02298
v -0.20085 0.00561 -0.02102
v -0.20085 0.00291 -0.02102
v -0.20219 0.00561 -0.01864
v -0.20206 0.00291 -0.0186
v -0.20319 0.00561 -0.01611
v -0.20293 0.00291 -0.01604
v -0.2038 0.00561 -0.01364
v -0.20353 0.00291 -0.01359
v -0.20401 0.00561 -0.01112
v -0.20374 0.00291 -0.01111
v -0.20368 0.00291 -0.00845
v -0.20395 0.00561 -0.00843
v -0.20323 0.00291 -0.00579
v -0.2035 0.00561 -0.00573
v -0.20254 0.00291 -0.00333
v -0.20279 0.00561 -0.00324
v -0.20146 0.00291 -0.00088
v -0.2017 0.00561 -0.00075
v -0.19986 0.00291 0.0017
v -0.2001 0.00561 0.00183
v -0.19792 0.00291 0.00428
v -0.19803 0.00561 0.00487
v -0.19761 0.00291 0.00531
v -0.19771 0.00561 0.00672
v -0.19745 0.00291 0.00679
v -0.19813 0.00561 0.0081
v -0.19791 0.00291 0.00828
v -0.19929 0.00291 0.00953
v -0.19937 0.00561 0.00927
v -0.2043 0.00561 0.00673
v -0.20508 0.00561 0.00524
v -0.2043 0.00822 0.00673
v -0.2042 0.00822 0.00819
v -0.20508 0.00822 0.00524
v -0.2042 0.00561 0.00819
v -0.2061 0.00561 0.00247
v -0.2061 0.00822 0.00247
v -0.20678 0.00561 -0.00031
v -0.20678 0.00822 -0.00031
v -0.20727 0.00561 -0.00309
v -0.20727 0.00822 -0.00309
v -0.20737 0.00561 -0.00588
v -0.20737 0.00822 -0.00588
v -0.20723 0.00561 -0.00877
v -0.20723 0.00822 -0.00877
v -0.20671 0.00561 -0.01166
v -0.20671 0.00822 -0.01166
v -0.20599 0.00561 -0.01409
v -0.20599 0.00822 -0.01409
v -0.20488 0.00561 -0.01647
v -0.20488 0.00822 -0.01647
v -0.20355 0.00561 -0.01906
v -0.20355 0.00822 -0.01906
v -0.20187 0.00561 -0.02151
v -0.20187 0.00822 -0.02151
v -0.20021 0.00838 -0.02322
v -0.20021 0.00545 -0.02322
v -0.19513 0.01092 0.00468
v -0.19682 0.01092 0.00335
v -0.19279 0.01092 0.00593
v -0.1902 0.01092 0.00698
v -0.19842 0.01092 0.00133
v -0.19969 0.01092 -0.0007
v -0.20082 0.01092 -0.00299
v -0.20158 0.01092 -0.00528
v -0.20205 0.01092 -0.00809
v -0.20214 0.01092 -0.0109
v -0.20201 0.01092 -0.01335
v -0.20149 0.01092 -0.01576
v -0.20074 0.01092 -0.0181
v -0.19965 0.01092 -0.02029
v -0.19837 0.01092 -0.02219
v -0.19695 0.01092 -0.02399
v -0.19704 0.01092 -0.02499
v -0.1902 0.00291 0.00698
v -0.19279 0.00291 0.00593
v -0.19513 0.00291 0.00468
v -0.19682 0.00291 0.00335
v -0.19842 0.00291 0.00133
v -0.19969 0.00291 -0.0007
v -0.20082 0.00291 -0.00299
v -0.20158 0.00291 -0.00528
v -0.20205 0.00291 -0.00809
v -0.20214 0.00291 -0.0109
v -0.20201 0.00291 -0.01335
v -0.20149 0.00291 -0.01576
v -0.20074 0.00291 -0.0181
v -0.19965 0.00291 -0.02029
v -0.19837 0.00291 -0.02219
v -0.19695 0.00291 -0.02399
v -0.1976 0.00291 -0.02521
v -0.19704 0.00291 -0.02499
v -0.18667 0.00692 0.01558
v -0.18667 0.00692 0.00837
v -0.18713 0.0088 0.01558
v -0.18713 0.0088 0.00811
v -0.18831 0.01017 0.01558
v -0.18831 0.01017 0.00764
v -0.1902 0.01092 0.01558
v -0.1902 0.00291 0.01558
v -0.18831 0.00367 0.00764
v -0.18831 0.00367 0.01558
v -0.18713 0.00503 0.00811
v -0.18713 0.00503 0.01558
v -0.19878 0.00912 -0.02004
v -0.19987 0.00912 -0.01785
v -0.20062 0.00912 -0.01552
v -0.19755 0.00912 -0.02208
v -0.20114 0.00912 -0.01311
v -0.19617 0.00912 -0.02403
v -0.20127 0.00912 -0.01065
v -0.20114 0.00912 -0.0082
v -0.20063 0.00912 -0.00574
v -0.19987 0.00912 -0.00345
v -0.19873 0.00912 -0.00117
v -0.19747 0.00912 0.00086
v -0.19587 0.00912 0.00289
v -0.19441 0.00912 0.00431
v -0.19229 0.00912 0.00568
v -0.19878 0.00471 -0.02004
v -0.19755 0.00471 -0.02208
v -0.19617 0.00471 -0.02403
v -0.19987 0.00471 -0.01785
v -0.19622 0.00471 -0.02511
v -0.20062 0.00471 -0.01552
v -0.20114 0.00471 -0.01311
v -0.20127 0.00471 -0.01065
v -0.20114 0.00471 -0.0082
v -0.20063 0.00471 -0.00574
v -0.19987 0.00471 -0.00345
v -0.19873 0.00471 -0.00117
v -0.19747 0.00471 0.00086
v -0.19587 0.00471 0.00289
v -0.19441 0.00471 0.00431
v -0.19229 0.00471 0.00568
v -0.1902 0.00912 0.00673
v -0.1902 0.00471 0.00673
vt 0.98291 0.595203
vt 0.986328 0.59032
vt 0.97998 0.595203
vt 0.976074 0.584948
vt 0.986328 0.584948
vt 0.976074 0.59032
vt 0.976074 0.603015
vt 0.97998 0.603015
vt 0.97998 0.605457
vt 0.976074 0.605457
vt 0.976074 0.60741
vt 0.97998 0.60741
vt 0.976074 0.609851
vt 0.97998 0.61034
vt 0.976074 0.611316
vt 0.97998 0.615711
vt 0.976074 0.615711
vt 0.97998 0.619617
vt 0.976074 0.619617
vt 0.97998 0.623524
vt 0.976074 0.623524
vt 0.97998 0.626942
vt 0.976074 0.626942
vt 0.97998 0.630848
vt 0.976074 0.630848
vt 0.97998 0.634266
vt 0.976074 0.634266
vt 0.976074 0.638173
vt 0.97998 0.638173
vt 0.976074 0.641591
vt 0.97998 0.641591
vt 0.976074 0.645497
vt 0.97998 0.645497
vt 0.976074 0.648915
vt 0.97998 0.648915
vt 0.976074 0.651845
vt 0.97998 0.655263
vt 0.976074 0.655263
vt 0.979492 0.657216
vt 0.976562 0.657216
vt 0.98291 0.655263
vt 0.979003 0.657704
vt 0.98291 0.657216
vt 0.986328 0.655263
vt 0.986328 0.652333
vt 0.98291 0.648915
vt 0.986328 0.648915
vt 0.98291 0.645497
vt 0.986328 0.645497
vt 0.98291 0.641591
vt 0.986328 0.641591
vt 0.98291 0.638173
vt 0.986328 0.638173
vt 0.98291 0.634266
vt 0.986328 0.634266
vt 0.986328 0.630848
vt 0.98291 0.630848
vt 0.986328 0.626942
vt 0.98291 0.626942
vt 0.986328 0.623524
vt 0.98291 0.623524
vt 0.986328 0.619617
vt 0.98291 0.619617
vt 0.986328 0.615223
vt 0.98291 0.615223
vt 0.986328 0.611316
vt 0.98291 0.61034
vt 0.986328 0.609851
vt 0.98291 0.60741
vt 0.986328 0.60741
vt 0.98291 0.605457
vt 0.986328 0.605457
vt 0.986328 0.603015
vt 0.98291 0.603015
vt 0.275124 0.354961
vt 0.267067 0.354228
vt 0.267067 0.356395
vt 0.27488 0.352977
vt 0.273904 0.358867
vt 0.274392 0.351787
vt 0.263649 0.354228
vt 0.263894 0.352489
vt 0.263894 0.356395
vt 0.267067 0.352489
vt 0.272683 0.35081
vt 0.264382 0.35081
vt 0.266579 0.35081
vt 0.266823 0.359844
vt 0.263894 0.359844
vt 0.272927 0.362529
vt 0.267067 0.363018
vt 0.263894 0.363018
vt 0.272195 0.365947
vt 0.267067 0.366192
vt 0.263894 0.366192
vt 0.271462 0.369121
vt 0.267067 0.369366
vt 0.263894 0.369366
vt 0.27073 0.372509
vt 0.267067 0.372509
vt 0.263894 0.372509
vt 0.270241 0.375927
vt 0.267067 0.375927
vt 0.263894 0.375927
vt 0.269509 0.379131
vt 0.267067 0.378887
vt 0.263894 0.378887
vt 0.267067 0.381817
vt 0.269021 0.382305
vt 0.263894 0.381817
vt 0.267067 0.385235
vt 0.268532 0.385479
vt 0.263894 0.385235
vt 0.267067 0.388653
vt 0.263894 0.388653
vt 0.268288 0.388897
vt 0.263649 0.391308
vt 0.267067 0.391308
vt 0.267312 0.394269
vt 0.263405 0.394269
vt 0.65624 0.450911
vt 0.65331 0.453597
vt 0.65624 0.45262
vt 0.655263 0.455061
vt 0.65038 0.452132
vt 0.656728 0.45381
vt 0.64745 0.450636
vt 0.657216 0.457503
vt 0.658681 0.457015
vt 0.658681 0.4597
vt 0.660634 0.459944
vt 0.660146 0.462355
vt 0.662099 0.462874
vt 0.661122 0.465072
vt 0.663076 0.465773
vt 0.661611 0.46849
vt 0.663564 0.468978
vt 0.661611 0.471664
vt 0.663564 0.471908
vt 0.661611 0.474593
vt 0.663076 0.474837
vt 0.662587 0.477737
vt 0.660634 0.477493
vt 0.661611 0.480697
vt 0.660146 0.480209
vt 0.660146 0.483627
vt 0.658681 0.48265
vt 0.658681 0.485794
vt 0.657216 0.485061
vt 0.657216 0.488021
vt 0.655263 0.487045
vt 0.65624 0.48851
vt 0.655751 0.488266
vt 0.633778 0.450636
vt 0.624989 0.449202
vt 0.625477 0.450911
vt 0.630848 0.451888
vt 0.628407 0.453352
vt 0.625477 0.45262
vt 0.625965 0.455061
vt 0.624989 0.45381
vt 0.6245 0.457503
vt 0.622547 0.457015
vt 0.623035 0.4597
vt 0.620594 0.459944
vt 0.62157 0.462355
vt 0.619617 0.462874
vt 0.620594 0.465072
vt 0.618641 0.465773
vt 0.620106 0.46849
vt 0.618152 0.468734
vt 0.620106 0.471664
vt 0.618152 0.471908
vt 0.620106 0.474593
vt 0.618152 0.474837
vt 0.619129 0.477737
vt 0.620594 0.477493
vt 0.620106 0.480697
vt 0.62157 0.480209
vt 0.62157 0.483627
vt 0.623035 0.48265
vt 0.623035 0.485794
vt 0.6245 0.484848
vt 0.6245 0.488021
vt 0.625965 0.487045
vt 0.625477 0.48851
vt 0.625965 0.488266
vt 0.258034 0.35081
vt 0.256569 0.351787
vt 0.256081 0.352977
vt 0.255837 0.354961
vt 0.257057 0.358867
vt 0.258034 0.362529
vt 0.258766 0.365947
vt 0.259499 0.369121
vt 0.259987 0.372509
vt 0.26072 0.375927
vt 0.261452 0.379131
vt 0.26194 0.382305
vt 0.262429 0.385479
vt 0.262673 0.388897
vt 0.640614 0.443342
vt 0.640614 0.449202
vt 0.643055 0.443587
vt 0.643055 0.449446
vt 0.645009 0.443587
vt 0.645009 0.449904
vt 0.64745 0.443587
vt 0.656728 0.449202
vt 0.658193 0.447737
vt 0.668935 0.443587
vt 0.668935 0.447737
vt 0.633778 0.443342
vt 0.623524 0.447737
vt 0.636219 0.449904
vt 0.612293 0.443342
vt 0.612293 0.447737
vt 0.636219 0.443342
vt 0.638661 0.449446
vt 0.638661 0.443342
vt 0.979003 0.663564
vt 0.97705 0.666005
vt 0.979003 0.666005
vt 0.97705 0.668935
vt 0.97705 0.663564
vt 0.979003 0.668935
vt 0.979003 0.661611
vt 0.97705 0.671377
vt 0.97705 0.661611
vt 0.979003 0.671377
vt 0.979003 0.659169
vt 0.97705 0.673818
vt 0.97705 0.659169
vt 0.979003 0.673818
vt 0.97705 0.657704
vt 0.97705 0.67626
vt 0.979003 0.67626
vt 0.979003 0.679189
vt 0.97705 0.679189
vt 0.979003 0.681631
vt 0.97705 0.681631
vt 0.979003 0.684072
vt 0.97705 0.684072
vt 0.979003 0.686514
vt 0.97705 0.686514
vt 0.979003 0.688955
vt 0.97705 0.688955
vt 0.97705 0.691397
vt 0.979003 0.691397
vt 0.97705 0.693838
vt 0.979003 0.693838
vt 0.97705 0.69628
vt 0.983398 0.663564
vt 0.985351 0.663564
vt 0.983398 0.661611
vt 0.985351 0.661611
vt 0.985351 0.666005
vt 0.983398 0.659169
vt 0.985351 0.659169
vt 0.985351 0.657704
vt 0.983398 0.666005
vt 0.985351 0.668935
vt 0.983398 0.657704
vt 0.985839 0.657216
vt 0.983398 0.668935
vt 0.985351 0.671377
vt 0.983398 0.671377
vt 0.985351 0.673818
vt 0.983398 0.673818
vt 0.985351 0.67626
vt 0.983398 0.67626
vt 0.983398 0.679189
vt 0.985351 0.679189
vt 0.983398 0.681631
vt 0.985351 0.681631
vt 0.983398 0.684072
vt 0.985351 0.684072
vt 0.983398 0.686514
vt 0.985351 0.686514
vt 0.983398 0.688955
vt 0.985351 0.688955
vt 0.985351 0.691397
vt 0.983398 0.691397
vt 0.985351 0.693838
vt 0.983398 0.693838
vt 0.985351 0.69628
vt 0.979003 0.69628
vt 0.983398 0.69628
vt 0.984375 0.698721
vt 0.978027 0.698721
vt 0.98291 0.699698
vt 0.979492 0.699698
vt 0.981445 0.700186
vn -0.0164 -0.0328 -0.9993
vn -0.9249 -0.0207 -0.3796
vn -0.0161 0.0161 -0.9997
vn -0.9999 0 -0.0169
vn -0.9177 0 -0.3972
vn -0.1149 0.0962 -0.9887
vn -0.1359 0.0978 -0.9859
vn -0.8202 0.0924 -0.5646
vn -0.9911 0.0945 -0.0934
vn -0.9929 0.0929 -0.0737
vn -0.9832 0.1176 0.1394
vn -0.8988 0.1377 0.4161
vn -0.8204 0.1439 0.5534
vn -0.8395 0.0933 0.5353
vn -0.8219 0.0939 0.5619
vn -0.8859 0.091 0.4549
vn -0.9342 0.0869 0.3461
vn -0.9714 0.0811 0.2232
vn -0.9913 0.0933 0.0933
vn -0.9945 0.0912 -0.0523
vn -0.9788 0.1008 -0.1783
vn -0.9508 0.0834 -0.2983
vn -0.9425 0.0845 -0.3234
vn -0.91 0.0427 -0.4123
vn -0.8979 0.0431 -0.4381
vn -0.8814 0 -0.4724
vn -0.8617 -0.0217 -0.507
vn -0.8274 -0.0221 -0.5612
vn -0.6344 -0.0224 -0.7727
vn -0.6237 0 -0.7817
vn -0.0516 0.0516 -0.9973
vn -0.1711 0.2132 -0.9619
vn 0.872 0.0903 -0.4811
vn -0.0525 -0.07 -0.9962
vn -0.8173 0 -0.5762
vn -0.8523 0 -0.523
vn -0.8899 -0.0214 -0.4556
vn -0.9052 -0.0652 -0.42
vn -0.9169 -0.0645 -0.3939
vn -0.9473 -0.1088 -0.3012
vn -0.9551 -0.1073 -0.2761
vn -0.9799 -0.1206 -0.1588
vn -0.9935 -0.1089 -0.0344
vn -0.9909 -0.1116 0.0748
vn -0.9738 -0.1013 0.2038
vn -0.9389 -0.1088 0.3264
vn -0.8928 -0.1142 0.4358
vn -0.8305 -0.1182 0.5444
vn -0.8477 -0.1174 0.5173
vn -0.828 -0.1692 0.5345
vn -0.9041 -0.1614 0.3956
vn -0.9833 -0.137 0.12
vn -0.9923 -0.111 -0.0555
vn -0.9908 -0.1129 -0.0749
vn -0.8299 -0.1198 -0.545
vn -0.1169 -0.1169 -0.9862
vn -0.1382 -0.1188 -0.9832
vn 0 -1 -0.001
vn -0.0499 -0.9986 -0.0156
vn -0.0492 -0.9988 -0.001
vn -0.021 0.9998 0.001
vn -0.016 0.9998 -0.009
vn -0.0253 0.9996 0.0091
vn -0.0323 -0.9995 -0.001
vn -0.0227 0.9992 -0.0341
vn -0.0334 -0.9989 -0.0344
vn -0.0667 -0.9978 -0.001
vn -0.0336 0.9994 0.0092
vn -0.0655 -0.9977 -0.018
vn -0.0333 0.9994 0.001
vn -0.0263 0.9996 -0.0071
vn -0.05 -0.9986 -0.0177
vn -0.0265 0.9995 -0.0173
vn -0.0308 0.9993 -0.0216
vn -0.0509 -0.9981 -0.035
vn -0.0267 0.9993 -0.0257
vn -0.0712 -0.9948 -0.0723
vn -0.045 0.9975 -0.0547
vn -0.0161 -0.9998 -0.0151
vn -0.6375 0.3465 -0.6881
vn -0.6428 -0.3758 -0.6675
vn -0.6554 -0.0693 -0.7521
vn -0.645 0.0455 -0.7629
vn 0 1 -0.001
vn 0.0049 1 0.003
vn 0.001 1 0.0049
vn 0.001 0.9999 0.0149
vn 0.0159 -0.9999 -0.001
vn 0.0151 -0.9997 0.0171
vn -0.0099 1 -0.001
vn 1 0 -0.001
vn 0.8896 0.4562 0.0227
vn 0.876 0.4818 0.0229
vn 0.5587 0.8291 0.0235
vn 0.5332 0.8457 0.0233
vn 0.0069 1 0.0069
vn 0.0059 1 -0.0049
vn 0.001 0.9988 0.0481
vn 0.5236 -0.852 0.0013
vn -0.0159 -0.9999 -0.001
vn 0.001 -0.9995 0.0313
vn 0.5487 -0.836 0.0014
vn 0.867 -0.4983 0.0013
vn 0.8811 -0.473 0.0013
vn 0.8477 0.1174 0.5173
vn 0.8231 0.4393 0.36
vn 0.9112 0.1362 0.3889
vn 0.8622 0.444 0.244
vn 0.7694 0.4231 0.4786
vn 0.9511 0.129 0.2807
vn 0.8219 0.0939 0.5619
vn 0.8854 0.4434 0.1392
vn 0.7432 0.3708 0.557
vn 0.98 0.1393 0.1418
vn 0.8992 0.0901 0.4281
vn 0.9028 0.4296 0.0198
vn 0.8209 0.3337 0.4634
vn 0.9897 0.143 0.0011
vn 0.742 0.3726 -0.5573
vn 0.8868 0.4532 -0.0909
vn 0.9803 0.1404 -0.1392
vn 0.9534 0.1522 -0.2604
vn 0.8517 0.4858 -0.1964
vn 0.9169 0.1608 -0.3653
vn 0.8035 0.4911 -0.3364
vn 0.8614 0.1681 -0.4794
vn 0.7667 0.5024 -0.3997
vn 0.8006 0.1464 -0.581
vn 0.727 0.4847 -0.4863
vn 0.7368 0.148 -0.6598
vn 0.6539 0.4628 -0.5986
vn 0.5208 0.3407 -0.7828
vn 0.6262 0.1217 -0.7701
vn 0.4359 0.2179 -0.8732
vn 0.5007 0.0671 -0.863
vn 0.3809 0.1132 -0.9177
vn 0.8552 -0.1418 0.4985
vn 0.77 -0.4528 0.4496
vn 0.8305 -0.1182 0.5444
vn 0.7463 -0.3986 0.5331
vn 0.8209 -0.4634 0.3337
vn 0.9056 -0.113 0.4088
vn 0.8231 -0.36 0.4393
vn 0.7451 -0.4004 -0.5334
vn 0.9159 -0.1595 0.3683
vn 0.8575 -0.4657 0.2185
vn 0.8802 -0.1168 -0.46
vn -0.1737 -0.2379 -0.9556
vn 0.9537 -0.1507 0.2601
vn 0.8789 -0.4629 0.1154
vn 0.9797 -0.159 0.122
vn 0.895 -0.4462 -0.0013
vn 0.9868 -0.1609 0.0194
vn 0.8792 -0.4715 -0.068
vn 0.9799 -0.16 -0.1194
vn 0.9552 -0.1739 -0.2395
vn 0.8454 -0.506 -0.1712
vn 0.9207 -0.1841 -0.3442
vn 0.7999 -0.5142 -0.3095
vn 0.8673 -0.1931 -0.4589
vn 0.7641 -0.5268 -0.3723
vn 0.8086 -0.172 -0.5627
vn 0.7265 -0.5109 -0.4595
vn 0.7456 -0.1742 -0.6432
vn 0.6558 -0.491 -0.5734
vn 0.5264 -0.3704 -0.7653
vn 0.6357 -0.1476 -0.7577
vn 0.4426 -0.2455 -0.8624
vn 0.5096 -0.0911 -0.8556
vn 0.3876 -0.1376 -0.9115
vn 0.454 0.0214 -0.8907
vn 0.4658 -0.0436 -0.8838
vn 0.4285 -0.0212 -0.9033
vn 0.4205 0 -0.9073
vn 0.371 0 -0.9287
vn 0.4993 0 -0.8664
o trigger
f 1/1/1 2/2/2 3/3/3
f 4/4/4 2/2/2 5/5/4
f 2/2/2 4/4/4 6/6/5
f 2/2/2 6/6/5 3/3/3
f 3/3/3 6/6/5 7/7/6
f 3/3/3 7/7/6 8/8/7
f 8/8/7 7/7/6 9/9/8
f 9/9/8 7/7/6 10/10/8
f 9/9/8 10/10/8 11/11/9
f 9/9/8 11/11/9 12/12/10
f 12/12/10 11/11/9 13/13/11
f 12/12/10 13/13/11 14/14/12
f 14/14/12 13/13/11 15/15/13
f 14/14/12 15/15/13 16/16/14
f 16/16/14 15/15/13 17/17/15
f 16/16/14 17/17/15 18/18/16
f 18/18/16 17/17/15 19/19/16
f 18/18/16 19/19/16 20/20/17
f 20/20/17 19/19/16 21/21/17
f 20/20/17 21/21/17 22/22/18
f 22/22/18 21/21/17 23/23/18
f 22/22/18 23/23/18 24/24/19
f 24/24/19 23/23/18 25/25/19
f 24/24/19 25/25/19 26/26/20
f 26/26/20 25/25/19 27/27/20
f 26/26/20 27/27/20 28/28/21
f 26/26/20 28/28/21 29/29/21
f 29/29/21 28/28/21 30/30/22
f 29/29/21 30/30/22 31/31/23
f 31/31/23 30/30/22 32/32/24
f 31/31/23 32/32/24 33/33/25
f 33/33/25 32/32/24 34/34/26
f 33/33/25 34/34/26 35/35/27
f 35/35/27 34/34/26 36/36/28
f 35/35/27 36/36/28 37/37/29
f 37/37/29 36/36/28 38/38/30
f 37/37/29 38/38/30 39/39/31
f 39/39/31 38/38/30 40/40/32
f 37/37/29 39/39/31 41/41/30
f 42/42/33 43/43/34 39/39/31
f 39/39/31 43/43/34 41/41/30
f 41/41/30 43/43/34 44/44/30
f 41/41/30 44/44/30 45/45/35
f 41/41/30 45/45/35 46/46/36
f 46/46/36 45/45/35 47/47/37
f 46/46/36 47/47/37 48/48/38
f 48/48/38 47/47/37 49/49/39
f 48/48/38 49/49/39 50/50/40
f 50/50/40 49/49/39 51/51/41
f 50/50/40 51/51/41 52/52/42
f 52/52/42 51/51/41 53/53/42
f 52/52/42 53/53/42 54/54/43
f 54/54/43 53/53/42 55/55/43
f 54/54/43 55/55/43 56/56/44
f 54/54/43 56/56/44 57/57/44
f 57/57/44 56/56/44 58/58/45
f 57/57/44 58/58/45 59/59/45
f 59/59/45 58/58/45 60/60/46
f 59/59/45 60/60/46 61/61/46
f 61/61/46 60/60/46 62/62/47
f 61/61/46 62/62/47 63/63/47
f 63/63/47 62/62/47 64/64/48
f 63/63/47 64/64/48 65/65/49
f 65/65/49 64/64/48 66/66/50
f 65/65/49 66/66/50 67/67/51
f 67/67/51 66/66/50 68/68/52
f 67/67/51 68/68/52 69/69/53
f 69/69/53 68/68/52 70/70/54
f 69/69/53 70/70/54 71/71/55
f 71/71/55 70/70/54 72/72/55
f 71/71/55 72/72/55 73/73/56
f 71/71/55 73/73/56 74/74/57
f 74/74/57 73/73/56 1/1/1
f 1/1/1 73/73/56 2/2/2
f 67/75/58 75/76/59 76/77/60
f 75/76/59 67/75/58 69/78/58
f 67/75/58 76/77/60 65/79/58
f 75/76/59 69/78/58 71/80/58
f 76/77/60 75/76/59 77/81/61
f 77/81/61 75/76/59 78/82/62
f 76/77/60 77/81/61 79/83/63
f 75/76/59 71/80/58 80/84/64
f 75/76/59 80/84/64 78/82/62
f 80/84/64 71/80/58 74/85/58
f 78/82/62 80/84/64 3/86/65
f 80/84/64 74/85/58 1/87/66
f 80/84/64 1/87/66 3/86/65
f 76/77/60 79/83/63 81/88/67
f 76/77/60 81/88/67 65/79/58
f 81/88/67 79/83/63 82/89/68
f 65/79/58 81/88/67 63/90/58
f 81/88/67 82/89/68 83/91/67
f 81/88/67 83/91/67 63/90/58
f 83/91/67 82/89/68 84/92/68
f 63/90/58 83/91/67 61/93/58
f 83/91/67 84/92/68 85/94/69
f 83/91/67 85/94/69 61/93/58
f 85/94/69 84/92/68 86/95/70
f 61/93/58 85/94/69 59/96/58
f 85/94/69 86/95/70 87/97/60
f 85/94/69 87/97/60 59/96/58
f 87/97/60 86/95/70 88/98/71
f 59/96/58 87/97/60 57/99/58
f 87/97/60 88/98/71 89/100/72
f 87/97/60 89/100/72 57/99/58
f 89/100/72 88/98/71 90/101/73
f 57/99/58 89/100/72 54/102/58
f 89/100/72 90/101/73 91/103/72
f 89/100/72 91/103/72 54/102/58
f 91/103/72 90/101/73 92/104/73
f 54/102/58 91/103/72 52/105/58
f 91/103/72 92/104/73 93/106/72
f 91/103/72 93/106/72 52/105/58
f 93/106/72 92/104/73 94/107/74
f 52/105/58 93/106/72 95/108/72
f 95/108/72 93/106/72 94/107/74
f 52/105/58 95/108/72 50/109/58
f 95/108/72 94/107/74 96/110/73
f 50/109/58 95/108/72 97/111/75
f 97/111/75 95/108/72 96/110/73
f 50/109/58 97/111/75 48/112/58
f 97/111/75 96/110/73 98/113/76
f 48/112/58 97/111/75 99/114/77
f 99/114/77 97/111/75 98/113/76
f 99/114/77 98/113/76 100/115/78
f 48/112/58 99/114/77 46/116/79
f 99/114/77 100/115/78 101/117/80
f 46/116/79 99/114/77 102/118/81
f 102/118/81 99/114/77 101/117/80
f 46/116/79 102/118/81 41/119/82
f 102/118/81 101/117/80 37/120/83
f 102/118/81 37/120/83 41/119/82
f 11/121/84 103/122/84 13/123/84
f 13/123/84 103/122/84 104/124/84
f 103/122/84 11/121/84 105/125/84
f 13/123/84 104/124/84 15/126/84
f 105/125/84 11/121/84 106/127/85
f 15/126/84 104/124/84 107/128/84
f 15/126/84 107/128/84 17/129/84
f 17/129/84 107/128/84 108/130/84
f 17/129/84 108/130/84 19/131/84
f 19/131/84 108/130/84 109/132/84
f 19/131/84 109/132/84 21/133/84
f 21/133/84 109/132/84 110/134/84
f 21/133/84 110/134/84 23/135/84
f 23/135/84 110/134/84 111/136/84
f 23/135/84 111/136/84 25/137/84
f 25/137/84 111/136/84 112/138/84
f 25/137/84 112/138/84 27/139/84
f 27/139/84 112/138/84 113/140/84
f 27/139/84 113/140/84 28/141/84
f 28/141/84 113/140/84 30/142/84
f 30/142/84 113/140/84 114/143/84
f 30/142/84 114/143/84 32/144/84
f 32/144/84 114/143/84 115/145/84
f 32/144/84 115/145/84 34/146/84
f 34/146/84 115/145/84 116/147/84
f 34/146/84 116/147/84 36/148/84
f 36/148/84 116/147/84 117/149/84
f 36/148/84 117/149/84 38/150/84
f 38/150/84 117/149/84 118/151/86
f 38/150/84 118/151/86 40/152/84
f 40/152/84 118/151/86 119/153/87
f 120/154/88 72/155/58 70/156/58
f 120/154/88 70/156/58 121/157/58
f 121/157/58 70/156/58 122/158/58
f 122/158/58 70/156/58 68/159/58
f 122/158/58 68/159/58 123/160/58
f 123/160/58 68/159/58 66/161/58
f 123/160/58 66/161/58 124/162/58
f 124/162/58 66/161/58 64/163/58
f 124/162/58 64/163/58 125/164/58
f 125/164/58 64/163/58 62/165/58
f 125/164/58 62/165/58 126/166/58
f 126/166/58 62/165/58 60/167/58
f 126/166/58 60/167/58 127/168/58
f 127/168/58 60/167/58 58/169/58
f 127/168/58 58/169/58 128/170/58
f 128/170/58 58/169/58 56/171/58
f 128/170/58 56/171/58 129/172/58
f 129/172/58 56/171/58 55/173/58
f 129/172/58 55/173/58 130/174/58
f 130/174/58 55/173/58 53/175/58
f 130/174/58 53/175/58 51/176/58
f 130/174/58 51/176/58 131/177/58
f 131/177/58 51/176/58 49/178/58
f 131/177/58 49/178/58 132/179/58
f 132/179/58 49/178/58 47/180/58
f 132/179/58 47/180/58 133/181/58
f 133/181/58 47/180/58 45/182/58
f 133/181/58 45/182/58 134/183/58
f 134/183/58 45/182/58 44/184/58
f 134/183/58 44/184/58 135/185/58
f 135/185/58 44/184/58 136/186/58
f 135/185/58 136/186/58 137/187/89
f 78/82/62 3/86/65 8/188/84
f 78/82/62 8/188/84 9/189/84
f 78/82/62 9/189/84 77/81/61
f 77/81/61 9/189/84 12/190/84
f 77/81/61 12/190/84 14/191/84
f 77/81/61 14/191/84 79/83/63
f 79/83/63 14/191/84 16/192/84
f 79/83/63 16/192/84 82/89/68
f 82/89/68 16/192/84 18/193/84
f 82/89/68 18/193/84 84/92/68
f 84/92/68 18/193/84 20/194/84
f 84/92/68 20/194/84 86/95/70
f 86/95/70 20/194/84 22/195/84
f 86/95/70 22/195/84 88/98/71
f 88/98/71 22/195/84 24/196/84
f 88/98/71 24/196/84 90/101/73
f 90/101/73 24/196/84 26/197/84
f 90/101/73 26/197/84 92/104/73
f 92/104/73 26/197/84 29/198/84
f 92/104/73 29/198/84 94/107/74
f 94/107/74 29/198/84 96/110/73
f 96/110/73 29/198/84 31/199/84
f 96/110/73 31/199/84 98/113/76
f 98/113/76 31/199/84 33/200/84
f 98/113/76 33/200/84 100/115/78
f 100/115/78 33/200/84 35/201/90
f 100/115/78 35/201/90 101/117/80
f 101/117/80 35/201/90 37/120/83
f 138/202/91 139/203/91 140/204/92
f 140/204/92 139/203/91 141/205/93
f 140/204/92 141/205/93 142/206/94
f 142/206/94 141/205/93 143/207/95
f 142/206/94 143/207/95 144/208/96
f 144/208/96 143/207/95 106/127/85
f 144/208/96 106/127/85 10/209/84
f 10/209/84 106/127/85 11/121/84
f 144/208/96 10/209/84 7/210/97
f 144/208/96 7/210/97 4/211/87
f 4/211/87 7/210/97 6/212/98
f 145/213/88 72/155/58 120/154/88
f 72/155/58 145/213/88 73/214/88
f 145/213/88 120/154/88 146/215/99
f 73/214/88 145/213/88 5/216/100
f 73/214/88 5/216/100 2/217/101
f 145/213/88 146/215/99 147/218/102
f 147/218/102 146/215/99 148/219/103
f 147/218/102 148/219/103 149/220/104
f 149/220/104 148/219/103 139/203/91
f 149/220/104 139/203/91 138/202/91
f 150/221/105 115/222/106 151/223/107
f 151/223/107 115/222/106 114/224/108
f 115/222/106 150/221/105 116/225/109
f 151/223/107 114/224/108 152/226/110
f 116/225/109 150/221/105 153/227/111
f 152/226/110 114/224/108 113/228/112
f 116/225/109 153/227/111 117/229/113
f 152/226/110 113/228/112 154/230/114
f 117/229/113 153/227/111 155/231/115
f 154/230/114 113/228/112 112/232/116
f 117/229/113 155/231/115 118/233/117
f 154/230/114 112/232/116 156/234/118
f 118/233/117 155/231/115 119/235/119
f 156/234/118 112/232/116 111/236/120
f 119/235/119 155/231/115 42/42/33
f 119/235/119 42/42/33 39/39/31
f 119/235/119 39/39/31 40/40/32
f 156/234/118 111/236/120 157/237/121
f 157/237/121 111/236/120 158/238/122
f 158/238/122 111/236/120 110/239/123
f 158/238/122 110/239/123 159/240/124
f 159/240/124 110/239/123 109/241/125
f 159/240/124 109/241/125 160/242/126
f 160/242/126 109/241/125 108/243/127
f 160/242/126 108/243/127 161/244/128
f 161/244/128 108/243/127 107/245/129
f 161/244/128 107/245/129 162/246/130
f 162/246/130 107/245/129 104/247/131
f 162/246/130 104/247/131 103/248/132
f 162/246/130 103/248/132 163/249/133
f 163/249/133 103/248/132 105/250/134
f 163/249/133 105/250/134 164/251/135
f 164/251/135 105/250/134 106/252/136
f 165/253/137 133/254/138 166/255/139
f 166/255/139 133/254/138 134/256/140
f 133/254/138 165/253/137 132/257/141
f 166/255/139 134/256/140 167/258/142
f 167/258/142 134/256/140 135/259/143
f 165/253/137 166/255/139 150/221/105
f 150/221/105 166/255/139 153/227/111
f 153/227/111 166/255/139 167/258/142
f 165/253/137 150/221/105 151/223/107
f 167/258/142 135/259/143 137/260/144
f 153/227/111 167/258/142 155/231/115
f 168/261/145 132/257/141 165/253/137
f 168/261/145 165/253/137 151/223/107
f 132/257/141 168/261/145 131/262/146
f 155/231/115 167/258/142 169/263/147
f 169/263/147 167/258/142 137/260/144
f 155/231/115 169/263/147 42/42/33
f 169/263/147 137/260/144 43/43/34
f 169/263/147 43/43/34 42/42/33
f 43/43/34 137/260/144 136/264/148
f 43/43/34 136/264/148 44/44/30
f 170/265/149 131/262/146 168/261/145
f 170/265/149 168/261/145 151/223/107
f 131/262/146 170/265/149 130/266/150
f 170/265/149 151/223/107 152/226/110
f 130/266/150 170/265/149 171/267/151
f 171/267/151 170/265/149 152/226/110
f 171/267/151 152/226/110 154/230/114
f 130/266/150 171/267/151 129/268/152
f 171/267/151 154/230/114 156/234/118
f 129/268/152 171/267/151 172/269/153
f 172/269/153 171/267/151 156/234/118
f 129/268/152 172/269/153 128/270/154
f 172/269/153 156/234/118 157/237/121
f 172/269/153 157/237/121 173/271/155
f 172/269/153 173/271/155 128/270/154
f 173/271/155 157/237/121 158/238/122
f 128/270/154 173/271/155 174/272/156
f 174/272/156 173/271/155 158/238/122
f 128/270/154 174/272/156 127/273/157
f 174/272/156 158/238/122 159/240/124
f 127/273/157 174/272/156 175/274/158
f 175/274/158 174/272/156 159/240/124
f 127/273/157 175/274/158 126/275/159
f 175/274/158 159/240/124 160/242/126
f 126/275/159 175/274/158 176/276/160
f 176/276/160 175/274/158 160/242/126
f 126/275/159 176/276/160 125/277/161
f 176/276/160 160/242/126 161/244/128
f 125/277/161 176/276/160 177/278/162
f 177/278/162 176/276/160 161/244/128
f 125/277/161 177/278/162 124/279/163
f 177/278/162 161/244/128 162/246/130
f 124/279/163 177/278/162 178/280/164
f 178/280/164 177/278/162 162/246/130
f 124/279/163 178/280/164 123/281/165
f 178/280/164 162/246/130 163/249/133
f 123/281/165 178/280/164 122/282/166
f 178/280/164 163/249/133 179/283/167
f 178/280/164 179/283/167 122/282/166
f 179/283/167 163/249/133 164/251/135
f 122/282/166 179/283/167 121/284/168
f 121/284/168 179/283/167 180/285/169
f 180/285/169 179/283/167 164/251/135
f 121/284/168 180/285/169 120/286/170
f 180/285/169 164/251/135 181/287/171
f 181/287/171 164/251/135 106/252/136
f 120/286/170 180/285/169 182/288/172
f 182/288/172 180/285/169 181/287/171
f 120/286/170 182/288/172 146/289/173
f 181/287/171 106/252/136 143/290/174
f 181/287/171 143/290/174 182/288/172
f 182/288/172 143/290/174 146/289/173
f 146/289/173 143/290/174 148/291/175
f 148/291/175 143/290/174 141/292/175
f 148/291/175 141/292/175 139/293/176
