# vertices shared and precision trimmed by tools/optimize_obj.py
v -0.29229 0.00626 0.09529
v -0.29252 0.03233 0.09531
v -0.29356 0.03249 0.09118
v -0.29345 0.00632 0.09116
v -0.29335 -0.01985 0.09115
v -0.29231 -0.01981 0.09528
v -0.29256 -0.02204 0.09115
v -0.29152 -0.02175 0.09528
v -0.29278 0.03468 0.09118
v -0.29175 0.03428 0.09531
v -0.28533 0.03675 0.09531
v -0.28356 0.03625 0.09531
v -0.28303 0.03729 0.09118
v -0.2809 0.03587 0.09118
v -0.28498 0.03782 0.09118
v -0.28699 0.03688 0.09531
v -0.28716 0.03793 0.09119
v -0.28882 0.03645 0.09531
v -0.28914 0.03746 0.09118
v -0.29026 0.03578 0.09531
v -0.29103 0.03652 0.09118
v -0.28508 -0.02418 0.09528
v -0.28279 -0.02456 0.09115
v -0.28332 -0.02366 0.09528
v -0.28066 -0.02313 0.09115
v -0.28473 -0.02512 0.09115
v -0.28674 -0.02432 0.09527
v -0.28691 -0.02524 0.09116
v -0.28858 -0.0239 0.09528
v -0.28889 -0.02479 0.09115
v -0.29003 -0.02324 0.09528
v -0.29079 -0.02386 0.09115
v -0.28632 -0.0006 0.09529
v -0.28814 0.00252 0.09529
v -0.28867 0.00627 0.0953
v -0.28817 0.01003 0.0953
v -0.28637 0.01316 0.0953
v -0.28323 0.01611 0.0953
v -0.28316 -0.00351 0.09529
v -0.27981 0.01771 0.0953
v -0.28042 0.0209 0.0953
v -0.28071 0.03317 0.09531
v -0.27972 -0.00509 0.09529
v -0.2803 -0.00828 0.09529
v -0.2805 -0.02055 0.09528
v -0.28178 0.03497 0.09531
v -0.28155 -0.02236 0.09528
v -0.25517 0.009 0.09233
v -0.25534 0.00641 0.09232
v -0.25515 0.00382 0.09232
v -0.17362 0.00673 0.09232
v -0.17363 0.00932 0.09233
v -0.17361 0.00415 0.09232
v -0.26245 0.00638 0.09232
v -0.26248 0.01022 0.09233
v -0.26245 0.00254 0.09232
v -0.26769 0.00636 0.09232
v -0.26771 0.012 0.09233
v -0.26767 0.00072 0.09232
v -0.27569 0.00633 0.09232
v -0.27462 0.01504 0.09233
v -0.26773 0.01505 0.09233
v -0.2768 0.01563 0.09233
v -0.27455 -0.00238 0.09232
v -0.26765 -0.00233 0.09231
v -0.27672 -0.00298 0.09232
v -0.28086 0.00631 0.09232
v -0.27823 0.01656 0.09233
v -0.27815 -0.00393 0.09232
v -0.2793 0.01776 0.09233
v -0.27921 -0.00514 0.09231
v -0.28231 0.0165 0.09233
v -0.28548 0.01407 0.09233
v -0.28759 0.01099 0.09232
v -0.28866 0.00627 0.0924
v -0.28755 0.00157 0.09232
v -0.28542 -0.00149 0.09232
v -0.28223 -0.00389 0.09232
v -0.17364 0.01237 0.09054
v -0.2555 0.01205 0.09054
v -0.26242 0.01202 0.09128
v -0.25546 0.00077 0.09053
v -0.1736 0.0011 0.09053
v -0.26237 0.00074 0.09127
v -0.26771 0.01206 0.09117
v -0.26593 0.01506 0.09064
v -0.26591 0.012 0.09064
v -0.26773 0.01511 0.09117
v -0.26767 0.00079 0.09116
v -0.26587 0.00073 0.09063
v -0.26586 -0.00232 0.09063
v -0.26765 -0.00227 0.09116
v -0.26586 -0.00232 0.09097
v -0.17364 0.01238 0.08766
v -0.25393 0.01206 0.08956
v -0.26591 0.012 0.09098
v -0.1736 0.00111 0.08765
v -0.25388 0.00079 0.08956
v -0.26587 0.00073 0.09098
v -0.27275 0.0151 0.09117
v -0.26593 0.01506 0.09098
v -0.27519 0.01571 0.09117
v -0.27268 -0.0023 0.09116
v -0.27512 -0.00292 0.09116
v -0.27693 -0.00409 0.09116
v -0.27825 -0.00556 0.09116
v -0.25934 0.0064 0.08956
v -0.26693 0.00642 0.09117
v -0.27454 0.00639 0.09116
v -0.27701 0.01687 0.09117
v -0.17362 0.00675 0.08765
v -0.27901 -0.00765 0.09116
v -0.27912 0.0204 0.09117
v -0.27898 -0.0198 0.09115
v -0.27919 0.03256 0.09118
v -0.27951 -0.02144 0.09115
v -0.27973 0.03419 0.09118
v -0.27834 0.01832 0.09117
vt 0.340576 0.841309
vt 0.399658 0.820801
vt 0.398193 0.808106
vt 0.339844 0.828125
vt 0.279297 0.816406
vt 0.279785 0.829102
vt 0.271728 0.817383
vt 0.275635 0.830078
vt 0.405762 0.808106
vt 0.402832 0.820801
vt 0.412842 0.832519
vt 0.413818 0.836426
vt 0.426758 0.835938
vt 0.425781 0.844727
vt 0.425537 0.828613
vt 0.411621 0.828613
vt 0.422852 0.821777
vt 0.40918 0.825195
vt 0.418701 0.815918
vt 0.406738 0.822754
vt 0.413086 0.811035
vt 0.266357 0.842285
vt 0.253174 0.847656
vt 0.266357 0.846191
vt 0.255859 0.855957
vt 0.253174 0.840332
vt 0.266846 0.838867
vt 0.255371 0.832519
vt 0.269287 0.834961
vt 0.259277 0.826660
vt 0.271484 0.832519
vt 0.264404 0.821289
vt 0.322998 0.854492
vt 0.331787 0.851074
vt 0.341309 0.849121
vt 0.35083 0.849609
vt 0.360352 0.852051
vt 0.371094 0.856934
vt 0.3125 0.859375
vt 0.379395 0.863769
vt 0.38623 0.859375
vt 0.410889 0.845215
vt 0.305176 0.867676
vt 0.297607 0.864746
vt 0.270752 0.854981
vt 0.413086 0.841309
vt 0.268066 0.851074
vt 0.640625 0.563965
vt 0.641113 0.561523
vt 0.641113 0.558594
vt 0.556152 0.565918
vt 0.556152 0.568848
vt 0.556641 0.563477
vt 0.647949 0.562988
vt 0.647461 0.567383
vt 0.648926 0.559082
vt 0.65332 0.564453
vt 0.651856 0.569336
vt 0.655273 0.559082
vt 0.661133 0.567871
vt 0.65625 0.575684
vt 0.650391 0.571777
vt 0.657715 0.577148
vt 0.663574 0.558594
vt 0.656738 0.557129
vt 0.666992 0.559082
vt 0.665527 0.570312
vt 0.658203 0.578613
vt 0.668945 0.559570
vt 0.658691 0.580566
vt 0.670898 0.560059
vt 0.662109 0.580566
vt 0.666016 0.579590
vt 0.668945 0.578125
vt 0.672363 0.574707
vt 0.673828 0.569824
vt 0.673828 0.565918
vt 0.672363 0.562500
vt 0.555664 0.572266
vt 0.640137 0.567871
vt 0.646973 0.569824
vt 0.64209 0.555176
vt 0.557129 0.559570
vt 0.649414 0.556641
vt 0.654785 0.541016
vt 0.652344 0.537598
vt 0.652344 0.540527
vt 0.654297 0.538086
vt 0.655762 0.553223
vt 0.65332 0.555664
vt 0.65625 0.556641
vt 0.657227 0.555176
vt 0.655762 0.556152
vt 0.64209 0.540039
vt 0.556641 0.541992
vt 0.556641 0.545410
vt 0.640137 0.541504
vt 0.648926 0.539551
vt 0.650391 0.568848
vt 0.557129 0.556641
vt 0.641113 0.553223
vt 0.65332 0.557129
vt 0.652344 0.577148
vt 0.647949 0.571289
vt 0.654785 0.578613
vt 0.648438 0.573731
vt 0.662598 0.555176
vt 0.665039 0.555176
vt 0.667481 0.556152
vt 0.669922 0.556641
vt 0.646484 0.547363
vt 0.654297 0.547363
vt 0.65918 0.537598
vt 0.662109 0.545898
vt 0.660644 0.536621
vt 0.661621 0.535156
vt 0.557129 0.551269
vt 0.673828 0.556641
vt 0.678223 0.534180
vt 0.65918 0.531250
vt 0.693848 0.555176
vt 0.661621 0.512207
vt 0.68457 0.566406
vt 0.651367 0.523438
vt 0.6875 0.567871
vt 0.650879 0.522461
vt 0.694336 0.556152
vt 0.658203 0.511231
vt 0.690918 0.567871
vt 0.650879 0.520996
vt 0.694824 0.558106
vt 0.655273 0.511231
vt 0.693848 0.565918
vt 0.650879 0.518555
vt 0.695312 0.560059
vt 0.694824 0.564453
vt 0.695312 0.562012
vt 0.65332 0.512695
vt 0.651367 0.516602
vt 0.651856 0.514160
vt 0.661133 0.533203
vt 0.916016 0.764648
vt 0.917481 0.763184
vt 0.912109 0.763184
vt 0.920898 0.764160
vt 0.914062 0.762207
vt 0.907227 0.762695
vt 0.675293 0.562500
vt 0.663574 0.582519
vt 0.672363 0.560547
vt 0.660156 0.582031
vt 0.422607 0.851562
vt 0.26001 0.862305
vt 0.654785 0.580566
vt 0.39209 0.871582
vt 0.387695 0.874512
vt 0.417725 0.856445
vt 0.676758 0.567383
vt 0.676269 0.571777
vt 0.293945 0.877441
vt 0.265869 0.866699
vt 0.298828 0.879883
vt 0.667969 0.581543
vt 0.671387 0.579102
vt 0.674316 0.575684
vn -0.9606 0 0.2677
vn -0.9449 0.1654 0.252
vn -0.9528 0.1575 0.2441
vn -0.9528 -0.1575 0.2362
vn -0.9449 -0.1811 0.2441
vn -0.9055 -0.3386 0.2362
vn -0.8898 -0.3622 0.2441
vn -0.9055 0.3307 0.2441
vn -0.8898 0.3543 0.2598
vn 0.1654 0.9449 0.2598
vn 0.4094 0.8661 0.2756
vn 0.3937 0.874 0.2677
vn 0.5276 0.7953 0.2677
vn 0.1575 0.9528 0.252
vn -0.0709 0.9606 0.252
vn -0.0866 0.9606 0.2441
vn -0.315 0.9134 0.2441
vn -0.3228 0.9055 0.2441
vn -0.5512 0.7874 0.2441
vn -0.5748 0.7717 0.2441
vn -0.685 0.6772 0.2441
vn -0.7008 0.6693 0.2362
vn 0.1732 -0.9528 0.2283
vn 0.4094 -0.874 0.2362
vn 0.4173 -0.8661 0.252
vn 0.5354 -0.8031 0.2441
vn 0.1654 -0.9528 0.2283
vn -0.063 -0.9685 0.2205
vn -0.0787 -0.9685 0.2205
vn -0.3071 -0.9213 0.2205
vn -0.3228 -0.9134 0.2126
vn -0.5512 -0.7953 0.2205
vn -0.5748 -0.7874 0.2205
vn -0.685 -0.685 0.2205
vn -0.6929 -0.6772 0.2205
vn 0 0 0.9921
vn 0 -0.0315 0.9921
vn 0.0079 -0.0236 0.9921
vn 0.0079 0 0.9921
vn 0 0.0157 0.9921
vn 0 0.0236 0.9921
vn 0.0315 0.5039 0.8583
vn 0 0.5039 0.8583
vn 0.0394 0.5039 0.8583
vn 0.1181 0.4961 0.8504
vn 0.1181 0.4961 0.8583
vn 0.1654 0.4882 0.8504
vn 0.0394 -0.5039 0.8583
vn 0.0472 -0.5039 0.8583
vn 0 -0.5039 0.8583
vn 0.126 -0.4961 0.8504
vn 0.126 -0.4961 0.8583
vn 0.1654 -0.4882 0.8504
vn -0.2756 0 -0.9528
vn -0.2835 0 -0.9528
vn -0.0079 0.9291 -0.3622
vn -0.0315 -0.9921 0
vn -0.0236 -0.9921 -0.0157
vn 0 0.9921 0.0079
vn 0 0.9921 0
vn 0.0315 -0.9213 0.3701
vn 0 -0.9921 -0.0079
vn 0 -0.9921 0
vn -0.0315 0.9213 -0.3622
vn 0 0.9921 0.0157
vn 0.0394 0.9843 0.1102
vn 0.189 0.9213 0.3386
vn 0.0236 0.9921 0.0079
vn 0.2756 0.8346 0.4567
vn 0.378 0.7165 0.5748
vn 0 -0.9449 0.3071
vn 0.0236 0.9921 0
vn 0.0157 -0.9843 0.1654
vn -0.0157 0.9843 -0.1654
vn 0.0472 -0.9921 0.0079
vn 0.1969 -0.9449 0.2441
vn 0.2913 -0.874 0.378
vn 0.4094 -0.7402 0.5197
vn 0.4882 -0.622 0.6063
vn 0.5276 -0.5591 0.6299
vn 0.5591 -0.4961 0.6535
vn 0.5669 -0.4961 0.6535
vn -0.1024 0 -0.9921
vn -0.1102 0 -0.9921
vn -0.0472 0.0079 -0.9921
vn 0 0 -0.9921
vn -0.0394 0.0394 -0.9921
vn -0.0236 0 -0.9921
vn -0.0394 -0.0394 -0.9921
vn -0.0472 -0.0079 -0.9921
vn 0 -0.0236 -0.9921
vn 0 0.0236 -0.9921
vn 0.0157 0 -0.9921
vn 0.5354 0.4803 0.685
vn 0.4961 0.5433 0.6614
vn 0.4646 0.5906 0.6457
vn 0.5433 0.4803 0.6772
vn 0.5984 0 0.7953
vn 0.5906 0 0.7953
vn 0.378 0.9213 0
vn 0.3937 0.9134 0.0315
vn 0.4646 0.874 0.0315
vn 0.3858 -0.9213 0
vn 0.4724 -0.874 0.0315
vn 0.4016 -0.9055 0.0315
vn 0.4094 0.9055 0.0551
vn 0.5827 0.811 0.0394
vn 0.4173 -0.8976 0.0551
vn 0.5827 -0.8031 0.0394
vn 0.4646 0.874 0.063
vn 0.6929 0.6457 0.2992
vn 0.8504 0.4252 0.2913
vn 0.7402 0.6063 0.2835
vn 0.811 0.4803 0.3071
vn 0.7008 -0.6457 0.2835
vn 0.748 -0.5984 0.2677
vn 0.8583 -0.4173 0.2756
vn 0.8189 -0.4724 0.2992
vn 0.5748 -0.811 0.0787
vn 0.9291 0.1496 0.315
vn 0.9213 0.2205 0.2992
vn 0.874 0.3228 0.3543
vn 0.937 0.0787 0.3307
vn 0.937 0.1417 0.315
vn 0.7795 0.6142 0.0157
vn 0.7165 0.6929 0.0394
vn 0.8976 0.4173 0.0709
vn 0.9449 0.315 0.0472
vn 0.9921 0 0.0472
vn 0.937 -0.1417 0.3071
vn 0.9528 -0.0709 0.2913
vn 0.937 -0.1339 0.3071
vn 0.937 -0.0709 0.3307
vn 0.9291 -0.2126 0.2913
vn 0.874 -0.315 0.3465
vn 0.9449 0.0866 0.2913
vn 0.9921 0 0
vn 0.7874 -0.6063 0.0157
vn 0.7165 -0.685 0.0394
vn 0.9055 -0.4094 0.063
vn 0.9449 -0.3071 0.0472
# Converted from CSMC meshbin by CsmcAssetConverter
# source: weapon_rif_m4a1_silencer_legacy_weapon_rif_m4a1_silencer.body_legacy.meshbin
# source center: 10.04746 -0.2726201 2.185503
# source scale: 0.02633764
# Coordinates are preserved exactly as stored by CSMC.
# Basis conversion and mesh-normalization conjugation happen at runtime.
o v_weapon_m4a1_bolt
f 1/1/1 2/2/2 3/3/3
f 1/1/1 3/3/3 4/4/1
f 1/1/1 4/4/1 5/5/4
f 1/1/1 5/5/4 6/6/5
f 6/6/5 5/5/4 7/7/6
f 6/6/5 7/7/6 8/8/7
f 2/2/2 9/9/8 3/3/3
f 9/9/8 2/2/2 10/10/9
f 11/11/10 12/12/11 13/13/12
f 13/13/12 12/12/11 14/14/13
f 11/11/10 13/13/12 15/15/14
f 11/11/10 15/15/14 16/16/15
f 16/16/15 15/15/14 17/17/16
f 16/16/15 17/17/16 18/18/17
f 18/18/17 17/17/16 19/19/18
f 18/18/17 19/19/18 20/20/19
f 20/20/19 19/19/18 21/21/20
f 20/20/19 21/21/20 10/10/21
f 10/10/21 21/21/20 9/9/22
f 22/22/23 23/23/24 24/24/25
f 24/24/25 23/23/24 25/25/26
f 23/23/24 22/22/23 26/26/27
f 26/26/27 22/22/23 27/27/28
f 26/26/27 27/27/28 28/28/29
f 28/28/29 27/27/28 29/29/30
f 28/28/29 29/29/30 30/30/31
f 30/30/31 29/29/30 31/31/32
f 30/30/31 31/31/32 32/32/33
f 32/32/33 31/31/32 8/8/34
f 32/32/33 8/8/34 7/7/35
f 1/1/36 33/33/36 34/34/36
f 1/1/36 34/34/36 35/35/36
f 1/1/36 35/35/36 36/36/36
f 1/1/36 36/36/36 37/37/36
f 1/1/36 37/37/36 2/2/36
f 2/2/36 37/37/36 10/10/36
f 33/33/36 1/1/36 6/6/36
f 10/10/36 37/37/36 38/38/36
f 33/33/36 6/6/36 39/39/36
f 10/10/36 38/38/36 40/40/36
f 10/10/36 40/40/36 41/41/36
f 10/10/36 41/41/36 42/42/36
f 39/39/36 6/6/36 43/43/36
f 43/43/36 6/6/36 44/44/36
f 44/44/36 6/6/36 45/45/36
f 10/10/36 42/42/36 12/12/36
f 12/12/36 42/42/36 46/46/36
f 10/10/36 12/12/36 20/20/36
f 20/20/36 12/12/36 16/16/36
f 16/16/36 12/12/36 11/11/37
f 20/20/36 16/16/36 18/18/38
f 8/8/39 31/31/36 6/6/36
f 6/6/36 31/31/36 27/27/36
f 6/6/36 27/27/36 45/45/36
f 27/27/36 31/31/36 29/29/40
f 45/45/36 27/27/36 24/24/36
f 45/45/36 24/24/36 47/47/36
f 24/24/36 27/27/36 22/22/41
f 48/48/36 49/49/36 50/50/36
f 48/48/36 50/50/36 51/51/36
f 48/48/36 51/51/36 52/52/36
f 51/51/36 50/50/36 53/53/36
f 49/49/36 48/48/36 54/54/36
f 49/49/36 54/54/36 50/50/36
f 54/54/36 48/48/36 55/55/36
f 50/50/36 54/54/36 56/56/36
f 54/54/36 55/55/36 57/57/36
f 54/54/36 57/57/36 56/56/36
f 57/57/36 55/55/36 58/58/36
f 56/56/36 57/57/36 59/59/36
f 57/57/36 58/58/36 60/60/36
f 57/57/36 60/60/36 59/59/36
f 61/61/36 58/58/36 62/62/36
f 58/58/36 61/61/36 60/60/36
f 60/60/36 61/61/36 63/63/36
f 59/59/36 60/60/36 64/64/36
f 59/59/36 64/64/36 65/65/36
f 64/64/36 60/60/36 66/66/36
f 60/60/36 63/63/36 67/67/36
f 60/60/36 67/67/36 66/66/36
f 67/67/36 63/63/36 68/68/36
f 66/66/36 67/67/36 69/69/36
f 67/67/36 68/68/36 70/70/36
f 69/69/36 67/67/36 71/71/36
f 72/72/36 73/73/36 70/70/36
f 70/70/36 73/73/36 67/67/36
f 67/67/36 73/73/36 74/74/36
f 67/67/36 74/74/36 75/75/39
f 67/67/36 75/75/39 76/76/36
f 67/67/36 76/76/36 77/77/36
f 67/67/36 77/77/36 71/71/36
f 71/71/36 77/77/36 78/78/36
f 48/48/42 52/52/43 79/79/43
f 48/48/42 79/79/43 80/80/44
f 48/48/42 80/80/44 55/55/45
f 55/55/45 80/80/44 81/81/46
f 55/55/45 81/81/46 58/58/47
f 50/50/48 82/82/49 83/83/50
f 50/50/48 83/83/50 53/53/50
f 82/82/49 50/50/48 56/56/51
f 82/82/49 56/56/51 84/84/52
f 84/84/52 56/56/51 59/59/53
f 85/85/54 86/86/55 87/87/54
f 86/86/55 85/85/54 88/88/55
f 89/89/54 90/90/54 91/91/54
f 89/89/54 91/91/54 92/92/54
f 92/92/56 91/91/57 93/93/58
f 80/94/59 79/95/60 94/96/60
f 80/94/59 94/96/60 95/97/59
f 80/94/59 95/97/59 81/98/60
f 81/98/60 95/97/59 87/87/61
f 87/99/61 96/99/60 81/81/60
f 81/81/60 96/99/60 58/58/60
f 82/82/62 97/100/63 83/83/63
f 97/100/63 82/82/62 98/101/62
f 98/101/62 82/82/62 84/84/63
f 98/101/62 84/84/63 90/90/64
f 90/90/64 84/84/63 99/102/63
f 99/102/63 84/84/63 59/59/63
f 62/62/65 100/103/66 61/61/67
f 100/103/66 62/62/65 101/104/68
f 61/61/67 100/103/66 102/105/69
f 61/61/67 102/105/69 63/63/70
f 88/106/71 101/104/68 86/104/72
f 101/104/68 88/106/71 100/103/66
f 87/87/61 95/97/59 85/85/73
f 90/90/64 89/89/74 98/101/62
f 93/93/58 103/107/75 92/92/56
f 65/65/62 64/64/76 103/107/75
f 65/65/62 103/107/75 93/93/58
f 103/107/75 64/64/76 104/108/77
f 104/108/77 64/64/76 66/66/78
f 104/108/77 66/66/78 105/109/79
f 105/109/79 66/66/78 69/69/80
f 105/109/79 69/69/80 106/110/81
f 106/110/81 69/69/80 71/71/82
f 107/111/83 108/112/84 85/85/85
f 100/113/86 88/88/86 85/85/85
f 100/113/86 85/85/85 109/114/86
f 109/114/86 85/85/85 108/112/84
f 100/113/86 109/114/86 102/115/86
f 102/115/86 109/114/86 110/116/86
f 107/111/83 85/85/85 95/97/87
f 107/111/83 95/97/87 111/117/88
f 111/117/88 95/97/87 94/96/88
f 107/111/83 111/117/88 98/101/89
f 98/101/89 111/117/88 97/100/88
f 107/111/83 98/101/89 89/89/90
f 107/111/83 89/89/90 108/112/84
f 108/112/84 89/89/90 109/114/86
f 92/92/86 103/107/86 89/89/90
f 89/89/90 103/107/86 109/114/86
f 109/114/86 103/107/86 104/108/86
f 109/114/86 104/108/86 105/109/86
f 109/114/86 105/109/86 106/110/86
f 109/114/86 106/110/86 112/118/86
f 109/114/86 112/118/86 4/119/86
f 109/114/86 4/119/86 113/120/86
f 4/119/86 112/118/86 5/121/86
f 113/120/86 4/119/86 3/122/86
f 5/121/86 112/118/86 114/123/86
f 113/120/86 3/122/86 115/124/86
f 5/121/86 114/123/86 116/125/86
f 115/124/86 3/122/86 117/126/86
f 5/121/86 116/125/86 7/127/86
f 117/126/86 3/122/86 9/128/86
f 7/127/86 116/125/86 25/129/86
f 117/126/86 9/128/86 14/130/86
f 7/127/86 25/129/86 32/131/86
f 14/130/86 9/128/86 21/132/86
f 32/131/86 25/129/86 23/133/86
f 14/130/86 21/132/86 13/134/86
f 32/131/86 23/133/86 30/135/86
f 30/135/86 23/133/86 26/136/86
f 30/135/86 26/136/86 28/137/91
f 13/134/86 21/132/86 19/138/86
f 13/134/86 19/138/86 15/139/86
f 15/139/86 19/138/86 17/140/92
f 110/116/86 109/114/86 118/141/93
f 118/141/93 109/114/86 113/120/86
f 118/142/94 68/143/95 110/144/96
f 68/143/95 118/142/94 70/145/97
f 110/144/96 68/143/95 63/146/70
f 110/144/96 63/146/70 102/147/69
f 96/99/98 101/104/98 58/58/98
f 58/58/98 101/104/98 62/62/98
f 99/102/99 59/59/99 93/93/99
f 93/93/99 59/59/99 65/65/99
f 39/148/100 71/71/101 78/78/102
f 38/149/103 72/72/104 70/70/105
f 43/150/106 71/71/101 39/148/107
f 40/151/108 38/149/109 70/70/105
f 43/150/110 106/110/110 71/71/110
f 46/46/111 117/152/112 14/14/113
f 117/152/112 46/46/111 42/42/114
f 46/46/111 14/14/113 12/12/11
f 47/47/115 25/25/116 116/153/117
f 25/25/116 47/47/115 24/24/25
f 47/47/115 116/153/117 45/45/118
f 40/151/119 70/70/119 118/154/119
f 113/155/120 40/40/121 118/156/122
f 42/42/123 115/157/124 117/152/112
f 33/158/125 39/148/107 77/77/126
f 77/77/126 39/148/107 78/78/102
f 33/158/125 77/77/126 76/76/127
f 33/158/125 76/76/127 34/159/128
f 34/159/128 76/76/127 75/75/129
f 112/160/130 44/44/131 114/161/132
f 114/161/132 44/44/131 45/45/133
f 114/161/132 45/45/133 116/153/117
f 44/44/131 112/160/130 43/43/134
f 43/43/134 112/160/130 106/162/135
f 113/155/120 115/157/124 41/41/136
f 41/41/136 115/157/124 42/42/123
f 113/155/120 41/41/136 40/40/121
f 86/104/137 101/104/137 96/99/137
f 86/104/137 96/99/137 87/99/137
f 91/91/137 99/102/137 93/93/137
f 99/102/137 91/91/137 90/90/137
f 37/163/138 73/73/139 38/149/109
f 38/149/109 73/73/139 72/72/104
f 73/73/139 37/163/138 74/74/140
f 74/74/140 37/163/138 36/164/141
f 74/74/140 36/164/141 75/75/129
f 75/75/129 36/164/141 35/165/137
f 75/75/129 35/165/137 34/159/128
