# vertices shared and precision trimmed by tools/optimize_obj.py
v -0.0491 -0.01004 -0.13268
v -0.06666 -0.0101 -0.13757
v -0.06681 0.02538 -0.13755
v -0.04925 0.02544 -0.13267
v -0.06958 -0.00775 -0.13837
v -0.0697 0.023 -0.13836
v -0.07451 -0.00777 -0.13974
v -0.07463 0.02298 -0.13973
v -0.07752 -0.01015 -0.14058
v -0.09067 -0.0102 -0.14424
v -0.09293 -0.00841 -0.14486
v -0.07766 0.02534 -0.14057
v -0.09082 0.02528 -0.14422
v -0.09291 0.02354 -0.1448
v -0.11408 0.0252 -0.15069
v -0.09521 0.02527 -0.14544
v -0.11593 0.0235 -0.15121
v -0.09507 -0.01021 -0.14546
v -0.11394 -0.01029 -0.15071
v -0.11595 -0.00855 -0.15126
v -0.11797 0.02518 -0.15177
v -0.12363 0.02516 -0.15334
v -0.1252 0.02352 -0.15378
v -0.11783 -0.0103 -0.15179
v -0.12507 -0.01033 -0.1538
v -0.12564 0.02351 -0.15221
v -0.1255 -0.01033 -0.15223
v -0.12407 0.02516 -0.15177
v -0.14919 -0.00943 -0.0381
v -0.14732 0.02294 -0.06192
v -0.14719 -0.00941 -0.06194
v -0.14932 0.02292 -0.03808
v -0.14343 -0.00938 -0.08512
v -0.14356 0.02297 -0.08511
v -0.13774 -0.00934 -0.10822
v -0.13787 0.023 -0.10821
v -0.13202 0.02303 -0.12792
v -0.13189 -0.00931 -0.12793
v -0.12449 -0.00927 -0.15194
v -0.12462 0.02307 -0.15192
v -0.11651 0.02345 -0.14969
v -0.11452 0.02519 -0.14912
v -0.14631 0.02396 -0.06177
v -0.14255 0.02399 -0.08496
v -0.14962 0.02393 -0.02103
v -0.13613 0.02403 -0.11084
v -0.12364 0.0241 -0.15165
v -0.07585 0.02012 0.05613
v -0.07523 0.01937 0.05505
v -0.07675 0.02179 0.0564
v -0.11438 -0.01029 -0.14914
v -0.11624 -0.0086 -0.14965
v -0.07664 -0.0068 0.05639
v -0.07514 -0.00272 0.05504
v -0.07576 -0.00343 0.05611
v -0.07432 -0.00915 -0.0005
v -0.07445 0.02422 -0.00048
v -0.07434 -0.00272 0.05009
v -0.07432 -0.00918 0.05331
v -0.07434 -0.00272 0.05331
v -0.07443 0.01937 0.0501
v -0.07445 0.02419 0.05333
v -0.07443 0.01937 0.05333
v -0.07407 0.02422 -0.01582
v -0.07394 -0.00914 -0.01573
v -0.0713 -0.00911 -0.05098
v -0.07143 0.02425 -0.05096
v -0.06822 0.02428 -0.0719
v -0.06809 -0.00909 -0.07192
v -0.06338 0.02431 -0.09134
v -0.06325 -0.00906 -0.09135
v -0.05731 -0.00902 -0.11104
v -0.05745 0.02434 -0.11102
v -0.0507 0.02438 -0.13138
v -0.05057 -0.00899 -0.13139
v -0.15071 0.0229 -0.0193
v -0.07524 0.02339 0.05505
v -0.07512 -0.00839 0.05503
v -0.15058 -0.00944 -0.01932
v -0.09349 0.02348 -0.1433
v -0.09125 0.02528 -0.14265
v -0.15015 0.02391 -0.00048
v -0.15117 0.02289 -0.00048
v -0.15015 0.02389 0.05333
v -0.15117 0.02286 0.05333
v -0.12824 0.02261 -0.1079
v -0.1265 0.02407 -0.10866
v -0.11554 0.02268 -0.1494
v -0.11411 0.02414 -0.149
v -0.13279 0.02403 -0.08326
v -0.13427 0.02258 -0.08351
v -0.13652 0.024 -0.06032
v -0.138 0.02255 -0.06054
v -0.14122 0.02252 -0.02107
v -0.13976 0.02397 -0.02013
v -0.14175 0.0225 -0.00048
v -0.14026 0.02395 -0.00048
v -0.14026 0.02394 0.03521
v -0.14175 0.02249 0.03521
v -0.15107 -0.00084 0.0451
v -0.15113 0.01424 0.04511
v -0.15114 0.01736 0.0473
v -0.15115 0.01834 0.05147
v -0.15104 -0.00945 -0.0005
v -0.15106 -0.0036 0.04711
v -0.15104 -0.00948 0.05331
v -0.15106 -0.00471 0.05146
v -0.12812 -0.00786 -0.10791
v -0.11542 -0.00779 -0.14942
v -0.12637 -0.0093 -0.10868
v -0.11397 -0.00923 -0.14901
v -0.13266 -0.00934 -0.08327
v -0.13415 -0.0079 -0.08352
v -0.13788 -0.00792 -0.06056
v -0.13639 -0.00936 -0.06034
v -0.14111 -0.00796 -0.02094
v -0.13961 -0.0094 -0.02039
v -0.14013 -0.00941 -0.0005
v -0.14163 -0.00797 -0.0005
v -0.14161 -0.00802 0.05331
v -0.14013 -0.00944 0.05331
v -0.15018 0.02296 0.05516
v -0.14173 0.02249 0.05333
v -0.14026 0.02393 0.05333
v -0.14174 0.02249 0.04401
v -0.14026 0.02393 0.04401
v -0.09111 -0.0102 -0.14267
v -0.09321 -0.00846 -0.14325
v -0.10324 0.02407 0.05333
v -0.1001 0.02172 0.05333
v -0.10324 0.0241 -0.00048
v -0.1001 0.02175 -0.00048
v -0.09968 0.02176 -0.01735
v -0.10311 -0.00929 0.05331
v -0.09998 -0.00689 -0.00049
v -0.09998 -0.00692 0.05331
v -0.10311 -0.00926 -0.0005
v -0.1046 0.02266 -0.1037
v -0.10256 0.02416 -0.10475
v -0.09249 0.02273 -0.14299
v -0.09086 0.02422 -0.14254
v -0.1093 0.02412 -0.0791
v -0.11097 0.02262 -0.07939
v -0.11433 0.0226 -0.05732
v -0.11266 0.02409 -0.05707
v -0.11735 0.02257 -0.01897
v -0.11569 0.02406 -0.01838
v -0.11981 0.02253 0.04401
v -0.12149 0.024 0.04401
v -0.1035 0.02327 0.05505
v -0.10036 0.02164 0.05505
v -0.10447 -0.00773 -0.10372
v -0.09236 -0.00766 -0.14301
v -0.10243 -0.0092 -0.10477
v -0.09073 -0.00914 -0.14256
v -0.10917 -0.00925 -0.07912
v -0.11085 -0.00776 -0.07941
v -0.11421 -0.00779 -0.05734
v -0.11253 -0.00927 -0.05709
v -0.11724 -0.00782 -0.01889
v -0.11555 -0.0093 -0.0185
v -0.14861 -0.0047 0.05639
v -0.15026 -0.00471 0.05503
v -0.1486 -0.00709 0.05639
v -0.15025 -0.00868 0.05503
v -0.09565 0.02527 -0.14387
v -0.04968 0.02544 -0.1311
v -0.06724 0.02537 -0.13598
v -0.11841 0.02518 -0.1502
v -0.0781 0.02533 -0.13899
v -0.10338 -0.0085 0.05503
v -0.10025 -0.00683 0.05503
v -0.13557 0.02395 0.03521
v -0.13557 0.02396 0.02714
v -0.13359 0.02397 0.02439
v -0.13087 0.02398 0.02332
v -0.12819 0.02399 0.02437
v -0.12619 0.024 0.02714
v -0.12149 0.02403 -0.00048
v -0.12149 0.02401 0.03521
v -0.12619 0.02399 0.03521
v -0.06689 0.02432 -0.13588
v -0.07354 0.02428 -0.11474
v -0.07947 0.02425 -0.09502
v -0.08477 0.02421 -0.07482
v -0.08805 0.02419 -0.05342
v -0.09085 0.02416 -0.01679
v -0.09125 0.02415 -0.00048
v -0.09125 0.02412 0.05333
v -0.14515 0.02391 0.05333
v -0.14515 0.02393 -0.00048
v -0.14461 0.02395 -0.02126
v -0.14137 0.02398 -0.06104
v -0.13762 0.02401 -0.0841
v -0.13155 0.02405 -0.10864
v -0.11882 0.02412 -0.15031
v -0.10822 0.02414 -0.10436
v -0.09603 0.0242 -0.14398
v -0.11459 0.0241 -0.08003
v -0.11796 0.02407 -0.05786
v -0.12102 0.02404 -0.01923
v -0.08524 0.02423 -0.11738
v -0.07844 0.02427 -0.13909
v -0.09115 0.0242 -0.09766
v -0.0966 0.02417 -0.07688
v -0.09991 0.02414 -0.05518
v -0.1028 0.02411 -0.01785
v -0.11613 0.02402 0.05333
v -0.11613 0.02405 -0.00048
v -0.12149 0.024 0.05333
v -0.13994 0.02313 0.05505
v -0.1414 0.0217 0.05505
v -0.15036 0.0186 0.05504
v -0.14871 0.02151 0.0564
v -0.1487 0.01861 0.0564
v -0.11782 0.02255 -0.00048
v -0.11934 0.02256 -0.01861
v -0.1198 0.02255 -0.00048
v -0.1178 0.02254 0.05333
v -0.1198 0.02253 0.03521
v -0.12724 0.02253 0.03521
v -0.11982 0.02253 0.05333
v -0.1175 0.02243 0.05505
v -0.12012 0.02242 0.05505
v -0.1345 0.0225 0.03521
v -0.12724 0.02254 0.0275
v -0.1345 0.02251 0.0275
v -0.12889 0.02253 0.02525
v -0.13288 0.02252 0.02526
v -0.13087 0.02252 0.02447
v -0.14367 0.02249 0.05333
v -0.14365 0.02249 -0.00048
v -0.14315 0.02251 -0.02031
v -0.13988 0.02254 -0.06082
v -0.13614 0.02257 -0.08384
v -0.12981 0.02261 -0.10938
v -0.11737 0.02268 -0.14991
v -0.07507 0.02298 -0.13816
v -0.07014 0.023 -0.13678
v -0.0955 -0.01022 -0.14389
v -0.09439 0.02272 -0.14352
v -0.10615 0.02266 -0.10551
v -0.11292 0.02262 -0.07973
v -0.11629 0.02259 -0.05761
v -0.04954 -0.01004 -0.13111
v -0.0671 -0.01011 -0.13599
v -0.11827 -0.01031 -0.15022
v -0.07796 -0.01015 -0.13901
v -0.13981 -0.00864 0.05503
v -0.14129 -0.00722 0.05503
v -0.09426 0.02175 0.05333
v -0.09426 0.02177 -0.00048
v -0.09384 0.02178 -0.01722
v -0.09102 0.02181 -0.05387
v -0.09398 0.02166 0.05505
v -0.10396 0.02168 0.0564
v -0.09035 0.02174 0.0564
v -0.0968 0.02179 -0.05472
v -0.08774 0.02184 -0.07534
v -0.0935 0.02182 -0.07635
v -0.08809 0.02185 -0.09697
v -0.0824 0.02187 -0.09569
v -0.08218 0.02188 -0.11669
v -0.07648 0.02191 -0.1154
v -0.07541 0.02192 -0.13825
v -0.06978 0.02194 -0.13668
v -0.12136 -0.00934 -0.0005
v -0.12136 -0.00936 0.05331
v -0.14502 -0.00943 -0.0005
v -0.14502 -0.00946 0.05331
v -0.1445 -0.00941 -0.02106
v -0.09112 -0.00922 -0.0005
v -0.09112 -0.00924 0.05331
v -0.06676 -0.00905 -0.13589
v -0.07341 -0.00909 -0.11476
v -0.07933 -0.00912 -0.09504
v -0.08464 -0.00915 -0.07484
v -0.08792 -0.00918 -0.05344
v -0.09071 -0.00921 -0.01684
v -0.10809 -0.00923 -0.10438
v -0.0959 -0.00916 -0.14399
v -0.11446 -0.00927 -0.08005
v -0.11783 -0.00929 -0.05788
v -0.1209 -0.00933 -0.01914
v -0.13142 -0.00932 -0.10866
v -0.11869 -0.00925 -0.15033
v -0.13749 -0.00936 -0.08411
v -0.14124 -0.00938 -0.06105
v -0.08511 -0.00913 -0.1174
v -0.07831 -0.00909 -0.1391
v -0.09102 -0.00916 -0.09768
v -0.09646 -0.0092 -0.0769
v -0.09978 -0.00922 -0.0552
v -0.10268 -0.00925 -0.01781
v -0.116 -0.00934 0.05331
v -0.116 -0.00931 -0.0005
v -0.09373 -0.00685 -0.0172
v -0.09414 -0.00687 -0.0005
v -0.09956 -0.00688 -0.01742
v -0.1177 -0.00783 -0.0005
v -0.11968 -0.00784 -0.0005
v -0.11922 -0.00783 -0.01874
v -0.14641 -0.00468 0.05547
v -0.14517 -0.00294 0.05722
v -0.14517 -0.00279 0.05561
v -0.14667 -0.00475 0.05705
v -0.07002 -0.00776 -0.1368
v -0.12179 0.0232 0.05505
v -0.11617 -0.00779 -0.05763
v -0.1128 -0.00777 -0.07975
v -0.10603 -0.00773 -0.10552
v -0.09427 -0.00766 -0.14354
v -0.11969 -0.00788 0.05331
v -0.11768 -0.00787 0.05331
v -0.12 -0.00777 0.05503
v -0.11738 -0.00776 0.05503
v -0.13976 -0.00793 -0.06083
v -0.13602 -0.0079 -0.08385
v -0.12969 -0.00786 -0.1094
v -0.11725 -0.00779 -0.14992
v -0.14301 -0.00796 -0.02057
v -0.14352 -0.00798 -0.0005
v -0.14355 -0.00803 0.05331
v -0.07495 -0.00778 -0.13817
v -0.14629 0.01861 0.05722
v -0.14602 0.0186 0.05565
v -0.14526 0.01738 0.05723
v -0.14526 0.01737 0.05561
v -0.09414 -0.00689 0.05331
v -0.09387 -0.00681 0.05503
v -0.10384 -0.00691 0.05639
v -0.09024 -0.00686 0.05639
v -0.08207 -0.00676 -0.11671
v -0.0753 -0.00672 -0.13827
v -0.07637 -0.00674 -0.11542
v -0.06967 -0.0067 -0.1367
v -0.08228 -0.00677 -0.0957
v -0.08798 -0.00679 -0.09699
v -0.08762 -0.0068 -0.07536
v -0.09338 -0.00682 -0.07636
v -0.09669 -0.00685 -0.05474
v -0.09091 -0.00682 -0.05388
v -0.14399 0.02169 0.05505
v -0.14603 0.02152 0.0564
v -0.13922 0.02154 0.0564
v -0.11583 0.02323 0.05505
v -0.14547 0.02311 0.05505
v -0.09097 0.02332 0.05505
v -0.12166 -0.00857 0.05503
v -0.14387 -0.00723 0.05503
v -0.14592 -0.00708 0.05639
v -0.1391 -0.00705 0.05638
v -0.1157 -0.00855 0.05503
v -0.12232 0.02161 0.0564
v -0.11516 0.02164 0.0564
v -0.14534 -0.00867 0.05503
v -0.09085 -0.00845 0.05503
v -0.1222 -0.00699 0.05639
v -0.11504 -0.00696 0.05639
v -0.08043 0.02178 0.0564
v -0.12337 0.01884 0.05719
v -0.12318 -0.00447 0.05711
v -0.12381 -0.00285 0.05722
v -0.1222 -0.00595 0.05554
v -0.1238 -0.00272 0.0556
v -0.12231 0.02058 0.05555
v -0.12389 0.01742 0.05561
v -0.12388 0.01747 0.05723
v -0.07597 -0.00287 0.05009
v -0.07656 -0.00277 0.05427
v -0.14896 -0.00475 0.05423
v -0.14945 -0.00475 0.05129
v -0.08877 -0.00517 0.05611
v -0.09025 -0.00627 0.05599
v -0.10385 -0.00568 0.05617
v -0.11505 -0.00562 0.0557
v -0.07596 -0.00582 0.02114
v -0.14945 -0.00611 0.02112
v -0.14945 -0.00606 0.05554
v -0.07596 -0.00621 0.05497
v -0.09035 0.02051 0.05619
v -0.08043 0.02141 0.05499
v -0.0794 0.02041 0.05613
v -0.07618 0.01938 0.05395
v -0.07605 0.01936 0.0501
v -0.11515 0.02031 0.05571
v -0.10396 0.02045 0.05619
v -0.07643 -0.00356 0.05488
v -0.08878 -0.00538 0.0545
v -0.07605 0.02063 0.02117
v -0.14956 0.02042 0.02114
v -0.14956 0.02047 0.05555
v -0.07605 0.02143 0.05499
v -0.14955 0.0184 0.05129
v -0.14952 0.01737 0.0473
v -0.14905 0.01866 0.05424
v -0.07653 0.02029 0.0549
v -0.07939 0.02072 0.05453
v -0.14944 -0.0036 0.04711
v -0.14945 -0.00084 0.0451
v -0.14951 0.01424 0.04511
vt 0.231323 0.249390
vt 0.233154 0.269531
vt 0.271728 0.266357
vt 0.270264 0.246460
vt 0.23523 0.273438
vt 0.269287 0.269775
vt 0.236084 0.279297
vt 0.270264 0.275391
vt 0.234863 0.283447
vt 0.237061 0.298584
vt 0.238769 0.301514
vt 0.272949 0.278564
vt 0.275147 0.293457
vt 0.273682 0.296143
vt 0.279297 0.319580
vt 0.275879 0.298340
vt 0.278076 0.322266
vt 0.237915 0.304688
vt 0.241211 0.326416
vt 0.242798 0.329346
vt 0.280029 0.323975
vt 0.28125 0.330322
vt 0.280029 0.332520
vt 0.242188 0.332275
vt 0.243774 0.340576
vt 0.242188 0.377930
vt 0.244019 0.378174
vt 0.241943 0.340820
vt 0.242188 0.380615
vt 0.243896 0.380859
vt 0.112488 0.343994
vt 0.139282 0.378662
vt 0.138672 0.343994
vt 0.112976 0.379639
vt 0.164307 0.343018
vt 0.164917 0.378174
vt 0.190186 0.342285
vt 0.190796 0.377686
vt 0.213379 0.377441
vt 0.212769 0.341797
vt 0.240479 0.341064
vt 0.241089 0.377930
vt 0.240479 0.390381
vt 0.240356 0.393555
vt 0.24231 0.390869
vt 0.242188 0.393799
vt 0.13916 0.379395
vt 0.164795 0.379150
vt 0.094299 0.381836
vt 0.19397 0.378906
vt 0.240845 0.380371
vt 0.018188 0.468506
vt 0.018585 0.470215
vt 0.018692 0.466553
vt 0.239746 0.326416
vt 0.240234 0.329590
vt 0.017685 0.502441
vt 0.019791 0.498047
vt 0.018494 0.498535
vt 0.08197 0.501953
vt 0.080688 0.465332
vt 0.025696 0.497070
vt 0.02269 0.504883
vt 0.021896 0.498047
vt 0.024292 0.472412
vt 0.021698 0.467285
vt 0.020294 0.471680
vt 0.097961 0.464600
vt 0.098999 0.501465
vt 0.137939 0.500000
vt 0.137451 0.463379
vt 0.161743 0.463623
vt 0.160523 0.500488
vt 0.18457 0.465088
vt 0.181885 0.501953
vt 0.20398 0.503418
vt 0.207642 0.467285
vt 0.231567 0.469971
vt 0.227051 0.506836
vt 0.092163 0.380127
vt 0.020691 0.467041
vt 0.020187 0.504394
vt 0.092041 0.344238
vt 0.237061 0.418457
vt 0.236938 0.421875
vt 0.238892 0.418945
vt 0.238648 0.421875
vt 0.071899 0.381103
vt 0.071167 0.379639
vt 0.012794 0.384277
vt 0.012596 0.382812
vt 0.191894 0.388184
vt 0.192749 0.390137
vt 0.23938 0.391357
vt 0.239014 0.393799
vt 0.164185 0.389160
vt 0.164429 0.387451
vt 0.138916 0.389404
vt 0.138916 0.387695
vt 0.095459 0.389404
vt 0.094788 0.391113
vt 0.072998 0.390381
vt 0.073547 0.392090
vt 0.03418 0.393311
vt 0.033295 0.391602
vt 0.020294 0.353027
vt 0.019897 0.370850
vt 0.01709 0.375244
vt 0.012093 0.378174
vt 0.071472 0.344238
vt 0.017593 0.348633
vt 0.013199 0.340576
vt 0.012596 0.345215
vt 0.191406 0.332275
vt 0.239014 0.328857
vt 0.192261 0.330566
vt 0.238525 0.326172
vt 0.163818 0.332275
vt 0.164062 0.333984
vt 0.138428 0.334473
vt 0.138428 0.332764
vt 0.094849 0.334473
vt 0.094482 0.332520
vt 0.072693 0.331543
vt 0.072388 0.333496
vt 0.012993 0.331055
vt 0.013695 0.328857
vt 0.011398 0.384033
vt 0.013199 0.392822
vt 0.013496 0.395020
vt 0.023788 0.392578
vt 0.023392 0.394287
vt 0.235596 0.298584
vt 0.236206 0.301758
vt 0.018188 0.435791
vt 0.018585 0.439941
vt 0.077698 0.432373
vt 0.078247 0.436768
vt 0.096863 0.435547
vt 0.017487 0.288086
vt 0.077087 0.286133
vt 0.017792 0.284180
vt 0.076599 0.290283
vt 0.190918 0.415283
vt 0.192017 0.417725
vt 0.235962 0.419434
vt 0.235596 0.422119
vt 0.163086 0.415772
vt 0.16333 0.413574
vt 0.13855 0.413574
vt 0.13855 0.415772
vt 0.096069 0.415283
vt 0.095764 0.417480
vt 0.025894 0.416992
vt 0.025085 0.414795
vt 0.016296 0.435791
vt 0.016388 0.439697
vt 0.190063 0.305908
vt 0.234985 0.300781
vt 0.191284 0.303467
vt 0.234497 0.298340
vt 0.162231 0.305908
vt 0.162598 0.308105
vt 0.137817 0.308594
vt 0.137695 0.306397
vt 0.095276 0.307861
vt 0.095154 0.305664
vt 0.007996 0.340332
vt 0.008896 0.342529
vt 0.009995 0.338867
vt 0.012093 0.340088
vt 0.238037 0.415283
vt 0.239746 0.415772
vt 0.235596 0.450439
vt 0.232788 0.470215
vt 0.234619 0.470459
vt 0.233887 0.450684
vt 0.241333 0.386963
vt 0.243042 0.387695
vt 0.235107 0.436768
vt 0.236816 0.437012
vt 0.015793 0.288330
vt 0.015686 0.284424
vt 0.034485 0.398193
vt 0.043396 0.397949
vt 0.04657 0.400147
vt 0.047882 0.403320
vt 0.047089 0.406494
vt 0.044281 0.409180
vt 0.075195 0.412109
vt 0.036072 0.414795
vt 0.035492 0.409668
vt 0.232544 0.450928
vt 0.207886 0.448975
vt 0.185181 0.446777
vt 0.162109 0.444824
vt 0.138184 0.444824
vt 0.097595 0.446045
vt 0.079651 0.446777
vt 0.020187 0.449463
vt 0.013298 0.389160
vt 0.072388 0.386475
vt 0.095093 0.386475
vt 0.139038 0.384277
vt 0.164795 0.384033
vt 0.192505 0.384033
vt 0.240356 0.386719
vt 0.19165 0.410645
vt 0.237061 0.415039
vt 0.16394 0.409180
vt 0.138916 0.409668
vt 0.095947 0.411377
vt 0.208984 0.433594
vt 0.233887 0.436523
vt 0.186401 0.431641
vt 0.16272 0.429932
vt 0.138306 0.429932
vt 0.096863 0.431397
vt 0.016586 0.421875
vt 0.076172 0.418457
vt 0.014999 0.415527
vt 0.011696 0.395264
vt 0.010994 0.393311
vt 0.008499 0.381348
vt 0.009895 0.385010
vt 0.0075 0.383789
vt 0.075439 0.416260
vt 0.095459 0.413574
vt 0.075256 0.414307
vt 0.015793 0.419678
vt 0.035675 0.416504
vt 0.03479 0.408203
vt 0.015198 0.417725
vt 0.013596 0.420166
vt 0.0131 0.417236
vt 0.034088 0.399902
vt 0.043274 0.407471
vt 0.042786 0.399658
vt 0.045471 0.405518
vt 0.045074 0.401367
vt 0.04599 0.403320
vt 0.0131 0.390869
vt 0.072571 0.388672
vt 0.09436 0.388184
vt 0.139038 0.385986
vt 0.164673 0.385742
vt 0.193481 0.386230
vt 0.239868 0.389160
vt 0.234131 0.440918
vt 0.23352 0.446777
vt 0.23584 0.441162
vt 0.235352 0.446533
vt 0.236694 0.304932
vt 0.236328 0.417480
vt 0.192871 0.413086
vt 0.163696 0.411377
vt 0.138794 0.411865
vt 0.229736 0.249634
vt 0.231689 0.269531
vt 0.240845 0.332764
vt 0.233643 0.283691
vt 0.011696 0.328857
vt 0.010796 0.330566
vt 0.019196 0.446045
vt 0.079041 0.442871
vt 0.097473 0.441895
vt 0.138184 0.440674
vt 0.017197 0.446777
vt 0.014198 0.436035
vt 0.016098 0.451172
vt 0.138184 0.434082
vt 0.162354 0.440674
vt 0.162598 0.434082
vt 0.186035 0.435791
vt 0.185547 0.442383
vt 0.208496 0.437988
vt 0.20813 0.444580
vt 0.233154 0.440674
vt 0.232544 0.446777
vt 0.227905 0.508789
vt 0.229736 0.509277
vt 0.07428 0.311035
vt 0.015099 0.308594
vt 0.072083 0.337647
vt 0.013199 0.334473
vt 0.094482 0.337891
vt 0.078064 0.275879
vt 0.079285 0.257324
vt 0.018997 0.273682
vt 0.019485 0.255127
vt 0.205688 0.254395
vt 0.230835 0.269531
vt 0.228882 0.250977
vt 0.206543 0.272461
vt 0.182983 0.256836
vt 0.18396 0.274902
vt 0.160278 0.258789
vt 0.160889 0.277344
vt 0.136963 0.277588
vt 0.136108 0.259277
vt 0.096252 0.276611
vt 0.09668 0.258057
vt 0.190796 0.310303
vt 0.235962 0.305176
vt 0.163086 0.312256
vt 0.138062 0.312500
vt 0.095093 0.312256
vt 0.192139 0.335938
vt 0.23999 0.333252
vt 0.164185 0.337158
vt 0.138428 0.337891
vt 0.207886 0.287353
vt 0.232788 0.283936
vt 0.185303 0.289795
vt 0.161743 0.291992
vt 0.137329 0.292480
vt 0.095886 0.291504
vt 0.016296 0.302002
vt 0.075256 0.304443
vt 0.096252 0.280762
vt 0.077698 0.279785
vt 0.095886 0.287353
vt 0.07489 0.306641
vt 0.074646 0.308594
vt 0.094849 0.309814
vt 0.005497 0.339355
vt 0.005398 0.335938
vt 0.003899 0.335938
vt 0.007 0.337402
vt 0.232788 0.273682
vt 0.0131 0.415283
vt 0.137939 0.310547
vt 0.16272 0.310059
vt 0.191894 0.307861
vt 0.235352 0.302734
vt 0.015198 0.306397
vt 0.015594 0.304443
vt 0.013199 0.306885
vt 0.013496 0.303955
vt 0.13855 0.336182
vt 0.164185 0.335449
vt 0.192993 0.333984
vt 0.23938 0.330811
vt 0.094055 0.335938
vt 0.072144 0.335449
vt 0.012894 0.332764
vt 0.233765 0.279297
vt 0.006298 0.386963
vt 0.004898 0.385498
vt 0.005299 0.388184
vt 0.003799 0.387939
vt 0.018295 0.277832
vt 0.016098 0.277344
vt 0.013695 0.288330
vt 0.014793 0.273193
vt 0.207398 0.282959
vt 0.2323 0.279785
vt 0.206909 0.276611
vt 0.231445 0.273682
vt 0.184326 0.279297
vt 0.184937 0.285645
vt 0.161255 0.281494
vt 0.161499 0.287842
vt 0.137207 0.288330
vt 0.137085 0.281982
vt 0.010994 0.390625
vt 0.009697 0.388184
vt 0.009598 0.395752
vt 0.014496 0.422363
vt 0.011696 0.388672
vt 0.018295 0.450195
vt 0.013199 0.308838
vt 0.010796 0.333496
vt 0.009697 0.335938
vt 0.009499 0.328369
vt 0.014198 0.301758
vt 0.010796 0.415039
vt 0.012199 0.423340
vt 0.011597 0.335205
vt 0.017197 0.256103
vt 0.016998 0.273682
vt 0.010994 0.309082
vt 0.011993 0.301025
vt 0.0168 0.462647
vt 0.014793 0.258057
vt 0.007996 0.412842
vt 0.008499 0.311279
vt 0.007099 0.312256
vt 0.009293 0.308594
vt 0.005798 0.311768
vt 0.008995 0.415527
vt 0.005497 0.412109
vt 0.007 0.411865
vt 0.024887 0.496582
vt 0.020096 0.496338
vt 0.008293 0.343506
vt 0.011795 0.346191
vt 0.0131 0.271484
vt 0.010994 0.257080
vt 0.013794 0.273193
vt 0.012299 0.288330
vt 0.30542 0.462158
vt 0.28125 0.435547
vt 0.281982 0.486084
vt 0.30542 0.467041
vt 0.305664 0.485596
vt 0.305664 0.454346
vt 0.305176 0.445068
vt 0.304443 0.435059
vt 0.014694 0.451416
vt 0.014999 0.463379
vt 0.01619 0.465088
vt 0.018692 0.471924
vt 0.022797 0.472900
vt 0.010597 0.423584
vt 0.012794 0.436035
vt 0.009697 0.258057
vt 0.011398 0.271973
vt 0.262939 0.435791
vt 0.239746 0.463135
vt 0.263672 0.486328
vt 0.23999 0.468018
vt 0.240234 0.486816
vt 0.23938 0.455322
vt 0.239136 0.446045
vt 0.239868 0.439209
vt 0.239868 0.436279
vt 0.011498 0.376953
vt 0.0159 0.373779
vt 0.007698 0.380615
vt 0.0103 0.300781
vt 0.016891 0.469238
vt 0.014694 0.465576
vt 0.015991 0.349853
vt 0.018295 0.353027
vt 0.265625 0.506836
vt 0.26416 0.509766
vt 0.265381 0.509277
vt 0.006599 0.344727
vt 0.018188 0.369873
vt 0.261963 0.412598
vt 0.263428 0.413330
vt 0.262939 0.412598
vt 0.279053 0.412842
vt 0.278809 0.415772
vt 0.266113 0.504394
vt 0.268311 0.502441
vt 0.278564 0.502441
vt 0.280518 0.503906
vt 0.281494 0.506836
vt 0.282471 0.509766
vt 0.018799 0.496826
vt 0.281494 0.412353
vt 0.279541 0.412598
vt 0.263672 0.416016
vn 0.2677 0 -0.9606
vn 0.2598 0 -0.9606
vn -0.9606 0 -0.2677
vn -0.6772 0.7008 -0.1811
vn -0.6772 0.7008 -0.189
vn -0.9921 0 -0.0787
vn -0.9921 0 -0.1181
vn -0.9764 0 -0.1969
vn -0.9606 0 -0.2598
vn -0.9528 0 -0.2835
vn -0.9528 0 -0.2913
vn -0.6063 0.7638 -0.1969
vn -0.622 0.748 -0.1811
vn -0.6142 0.7559 -0.189
vn -0.6299 0.748 -0.1732
vn -0.6929 0.7008 -0.1339
vn -0.7008 0.7008 -0.0787
vn -0.685 0.7244 -0.0472
vn -0.6929 0.7087 -0.0157
vn -0.6772 0.7087 -0.1654
vn -0.7008 0.6772 -0.1969
vn -0.6457 0.7323 -0.1969
vn -0.6772 0.7008 -0.2047
vn 0.874 0.4331 0.1969
vn -0.6299 -0.748 -0.1732
vn -0.622 -0.7559 -0.1496
vn -0.6299 -0.7559 -0.1575
vn -0.622 -0.7638 -0.1339
vn 0.8976 -0.2047 0.378
vn 0.9921 0 0.0079
vn 0.9921 0 0
vn 0.9921 0 0.0472
vn 0.9921 0 0.1102
vn 0.9764 0 0.189
vn 0.9606 0 0.2598
vn 0.9528 0 0.2992
vn 0.9449 0 0.3071
vn -0.7244 0.6772 -0.0472
vn -0.9921 0.0236 -0.0709
vn -0.9685 0.2047 -0.0709
vn 0.9055 0 0.4173
vn -0.9921 0 -0.0709
vn -0.5748 0.7874 -0.189
vn -0.5906 0.7795 -0.1732
vn -0.5827 0.7874 -0.1811
vn -0.5984 0.7717 -0.1654
vn -0.7087 0.7008 -0.0079
vn -0.7087 0.7008 0
vn -0.6693 0.7087 -0.1732
vn -0.6693 0.7087 -0.189
vn -0.6614 0.7165 -0.1969
vn -0.6772 0.7165 -0.1339
vn -0.685 0.7165 -0.0787
vn -0.685 0.7165 -0.0394
vn -0.6929 0.7165 -0.0315
vn -0.6929 0.7165 -0.0079
vn -0.6929 0.7165 0
vn -0.9921 0 -0.0079
vn -0.9921 0 0
vn -0.9921 0 -0.0236
vn -0.6693 -0.7165 -0.1732
vn -0.6614 -0.7165 -0.1969
vn -0.6693 -0.7087 -0.189
vn -0.6535 -0.7165 -0.1969
vn -0.6772 -0.7165 -0.1339
vn -0.685 -0.7165 -0.0787
vn -0.685 -0.7244 -0.0394
vn -0.685 -0.7244 -0.0315
vn -0.685 -0.7165 -0.0079
vn -0.685 -0.7165 0
vn -0.6693 0.6614 0.3228
vn -0.8819 0.252 0.378
vn -0.8031 0.1654 0.5591
vn -0.5984 -0.7795 -0.1654
vn -0.5906 -0.7874 -0.1417
vn -0.5906 -0.7795 -0.1496
vn -0.5906 -0.7874 -0.126
vn 0.5984 0.7953 0
vn 0.5984 0.7953 0.0079
vn 0.5906 0.7953 0.0394
vn 0.5984 -0.7953 0
vn -0.6378 0.7402 -0.1732
vn -0.6378 0.7402 -0.1811
vn -0.6299 0.7402 -0.189
vn -0.6299 0.748 -0.189
vn -0.6457 0.748 -0.126
vn -0.6535 0.748 -0.0709
vn -0.6535 0.748 -0.0472
vn 0.6614 0 0.7402
vn 0 0 -0.9921
vn 0.4567 0.874 0.1102
vn -0.622 -0.748 -0.189
vn -0.6299 -0.7402 -0.1811
vn -0.6378 -0.748 -0.1339
vn -0.6378 -0.748 -0.126
vn -0.6535 -0.748 -0.0709
vn -0.6457 -0.7559 -0.0472
vn -0.6299 0 0.7717
vn -0.8346 0.0236 0.5433
vn -0.8346 0 0.5433
vn -0.9449 0.0315 0.3228
vn -0.9685 0.0787 0.2126
vn 0 0.9921 0
vn 0.4646 -0.874 0.1102
vn -0.6299 0.6457 0.4173
vn -0.8346 -0.0315 0.5433
vn -0.9685 -0.0945 0.2205
vn -0.6378 0 0.7638
vn 0.5433 0.7244 0.4173
vn 0.0709 0.9921 0
vn 0.2992 0.9528 0.0079
vn -0.3622 0.9291 -0.0079
vn -0.378 0.9213 -0.0079
vn -0.3465 0.9291 -0.0079
vn 0.3465 0.9291 0.0079
vn 0.3543 0.9291 0.0079
vn 0.3386 0.937 0.0079
vn 0.315 0.9449 0.0079
vn 0 0.9921 0.0315
vn -0.0079 0.9921 0
vn 0 0.9921 0.063
vn 0 -0.9921 0
vn -0.5906 0.7795 -0.1575
vn -0.5906 0.7795 -0.1654
vn -0.622 -0.6535 0.4173
vn 0 0.9921 0.0236
vn 0 0.9921 -0.0079
vn 0 0.9921 -0.0394
vn 0.9606 0 0.2677
vn 0.5433 -0.7165 0.4173
vn -0.8031 0.5827 0
vn -0.3307 -0.937 -0.0079
vn -0.3228 -0.9449 -0.0079
vn -0.3071 -0.9449 -0.0079
vn -0.315 -0.9449 -0.0079
vn 0.3228 -0.937 0
vn 0.3228 -0.9449 0
vn 0.3071 -0.9449 0
vn 0.315 -0.9449 0
vn -0.3622 -0.9291 -0.0079
vn -0.3543 -0.9291 -0.0079
vn -0.3386 -0.937 -0.0079
vn 0.3622 -0.9291 0.0079
vn 0.3543 -0.9291 0.0079
vn 0.3307 -0.937 0
vn 0.3465 -0.9291 0.0079
vn -0.7874 0.5984 -0.0394
vn -0.811 0.5827 -0.0079
vn -0.8346 0.5433 0.0472
vn -0.7559 0.6378 -0.0945
vn -0.5906 -0.7874 -0.1654
vn -0.5906 -0.7874 -0.1575
vn 0.4173 0.8898 0.126
vn 0.5669 0.7953 0.1732
vn 0.5748 0.7953 0.1575
vn 0.5827 0.7953 0.1181
vn 0.5906 0.7953 0.063
vn 0.6535 0.748 0
vn 0 -0.9921 0.0315
vn 0 -0.9921 0.063
vn -0.7559 -0.6378 -0.1181
vn -0.8031 -0.5827 -0.0551
vn -0.8031 -0.5827 -0.063
vn -0.8425 -0.5197 0
vn 0 -0.9921 0.0236
vn 0 -0.9921 -0.0079
vn 0 -0.9921 -0.0394
vn 0 -0.9921 -0.0472
vn 0 0.9685 0.2205
vn 0 0.9055 0.4173
vn 0 0.9685 0.2283
vn 0 0.9921 0.1181
vn -0.4252 0.8898 0.126
vn 0.5748 -0.7874 0.1732
vn 0.5748 -0.7953 0.1732
vn 0.5827 -0.7953 0.1575
vn 0.5906 -0.7953 0.1181
vn 0.5984 -0.7953 0.063
vn 0.5984 -0.7953 0.0394
vn 0.6614 -0.7402 0
vn 0 0.8898 0.4409
vn -0.0079 0.8976 0.4252
vn -0.0157 0.9055 0.4173
vn 0.4252 -0.8898 0.1339
vn -0.6614 0.7402 0
vn 0 -0.9685 0.2205
vn 0 -0.9055 0.4173
vn 0 -0.9921 0.1102
vn 0 -0.9921 0.1181
vn -0.4173 -0.8898 0.126
vn -0.6535 -0.748 0
vn 0 0.8583 0.5039
vn -0.4409 0.4488 0.7638
vn 0.5906 0.6772 0.4173
vn 0 -0.8583 0.5039
vn -0.4331 -0.4567 0.7638
vn -0.5827 -0.7874 -0.1811
vn -0.5984 -0.7874 -0.1181
vn -0.6063 -0.7874 -0.0709
vn -0.6063 -0.7874 -0.063
vn -0.6063 -0.7874 -0.0472
vn 0.5984 -0.6772 0.4173
vn -0.5984 0.6772 0.4173
vn 0.1496 0.6063 0.7717
vn -0.0709 0.622 0.7717
vn 0.1102 0.622 0.7717
vn 0.2913 0.5669 0.7638
vn -0.1417 0.5984 0.7795
vn -0.2598 0.5512 0.7795
vn 0.5906 -0.7953 0.0709
vn 0.5984 -0.7795 0.1339
vn 0.5984 -0.7874 0.1024
vn 0.6063 -0.7717 0.1654
vn 0 0.6457 0.7559
vn 0.1339 0.6063 0.7717
vn 0.0709 0.6299 0.7717
vn 0.2677 0.5669 0.7717
vn -0.1575 0.5984 0.7795
vn -0.1102 0.6142 0.7717
vn -0.2992 0.5433 0.7795
vn -0.5984 -0.6772 0.4173
vn -0.6142 0.7795 0
vn -0.6142 0.7795 -0.0236
vn -0.6142 0.7795 -0.063
vn -0.6063 0.7795 -0.1181
vn -0.5906 0.7795 -0.1811
vn -0.0709 -0.622 0.7717
vn 0.1496 -0.6063 0.7717
vn 0.1181 -0.622 0.7717
vn 0.2992 -0.5591 0.7638
vn -0.1417 -0.6063 0.7795
vn -0.2598 -0.5591 0.7795
vn 0 -0.6457 0.7559
vn 0.6299 0.748 0.1732
vn 0.6299 0.7402 0.189
vn 0.622 0.748 0.189
vn 0.6378 0.748 0.1339
vn 0.6378 0.748 0.126
vn 0.6535 0.748 0.0709
vn 0.6457 0.7559 0.0472
vn 0.1417 -0.6063 0.7717
vn 0.0787 -0.6299 0.7638
vn 0.2677 -0.5669 0.7717
vn -0.1575 -0.5984 0.7795
vn -0.1024 -0.6142 0.7717
vn -0.2913 -0.5433 0.7717
vn -0.3228 0 0.9449
vn -0.4724 0.8661 0.1102
vn 0.8031 0.5906 0
vn 0.6378 -0.7402 0.1732
vn 0.6299 -0.7402 0.189
vn 0.6378 -0.7402 0.1811
vn 0.6457 -0.748 0.126
vn 0.6535 -0.7402 0.0709
vn 0.6535 -0.748 0.0472
vn -0.4724 -0.8661 0.1102
vn -0.6457 0.5906 0.4724
vn 0 0.2677 0.9606
vn 0 0.1811 0.9764
vn 0 0.1969 0.9764
vn -0.6063 -0.7874 0
vn 0 -0.2677 0.9606
vn 0 -0.1969 0.9764
vn 0 -0.2205 0.9685
vn 0 -0.0709 0.9921
vn 0 -0.0866 0.9921
vn 0.9055 0.2598 0.315
vn 0.9055 0.315 0.2598
vn 0.9055 0.3858 0.1417
vn 0.9134 0.3937 0.0787
vn 0.9291 0.3543 0.0236
vn 0.9055 -0.252 0.315
vn 0.9134 -0.3858 0.1024
vn 0.9134 -0.3071 0.252
vn 0.9134 -0.3937 0.0551
vn 0.9291 -0.3465 0.0079
vn 0.622 0.6535 0.4173
vn 0 0.0315 0.9921
vn 0 0.0079 0.9921
vn 0 0.9921 0.0866
vn 0 0.9921 0.0709
vn 0.6693 0.7165 0.1732
vn 0.6693 0.7087 0.189
vn 0.6614 0.7165 0.1969
vn 0.6772 0.7165 0.1339
vn 0.685 0.7165 0.0787
vn 0.685 0.7244 0.0394
vn 0.685 0.7165 0.0315
vn 0.685 0.7165 0.0079
vn 0.685 0.7165 0
vn -0.5591 0.7087 0.4173
vn -0.0551 0.9921 -0.0157
vn -0.0866 0.9921 0
vn -0.0709 0.9921 -0.0079
vn -0.0236 0.9921 -0.0236
vn -0.0157 0.9921 -0.0236
vn 0.0236 0.9921 -0.0157
vn 0.0079 0.9921 -0.0079
vn 0.0236 0.9921 0
vn 0 0.9921 0.0079
vn 0.0079 0.9921 0.0394
vn 0.6299 -0.6457 0.4173
vn 0 0.1496 0.9843
vn -0.0079 0.0866 0.9921
vn -0.0079 0.0787 0.9921
vn 0 0.1575 0.9843
vn 0.0079 0.1654 0.9843
vn 0.0157 0.1654 0.9843
vn 0.0079 0.1811 0.9764
vn -0.0315 0.4567 0.8819
vn 0.6929 -0.7087 0.0079
vn 0.6929 -0.7165 0
vn 0.685 -0.7165 0.0315
vn 0.685 -0.7165 0.0787
vn 0.685 -0.7087 0.0787
vn 0.6772 -0.7087 0.1339
vn 0.6693 -0.7087 0.1732
vn 0.6772 -0.7087 0.189
vn 0.6614 -0.7087 0.1969
vn -0.5512 -0.7165 0.4173
vn 0.4488 0.4724 0.748
vn -0.0315 0.9921 0.0157
vn 0.0157 0.9921 0.0079
vn 0.0236 0.9921 0.0236
vn 0 -0.9921 0.0079
vn 0.1102 -0.9606 0.2441
vn 0.0394 -0.9921 0.0157
vn 0.0709 -0.9921 0.0945
vn 0.5984 0.7795 0.1654
vn 0.5591 0.7953 0.2126
vn 0.5748 0.7874 0.189
vn 0.5354 0.8031 0.2362
vn -0.0079 -0.1732 0.9843
vn 0 -0.1811 0.9764
vn -0.0079 -0.1654 0.9843
vn 0 -0.189 0.9764
vn 0.4567 -0.4724 0.748
vn -0.0079 -0.9921 0
vn -0.0236 -0.4567 0.8819
vn 0 -0.6142 0.7874
vn -0.0315 -0.4567 0.8819
vn 0 -0.6299 0.7638
vn 0 -0.1654 0.9843
vn -0.126 0.9843 -0.0315
vn -0.1339 0.9764 -0.1181
vn 0.0157 -0.9921 0
vn -0.0236 -0.9921 0.0236
vn 0.0079 -0.9921 0
vn 0 -0.9921 0.0157
vn 0 0.5591 0.8268
vn 0.0551 -0.9843 0.1496
vn 0.0157 -0.9685 0.2441
vn 0.0472 -0.9843 0.1575
vn 0 -0.9606 0.2441
vn 0.0315 -0.9921 0.0079
vn 0.0472 -0.9921 0.0079
vn 0 -0.9921 -0.0157
vn 0 0.6063 0.7874
vn 0 0.6299 0.7717
vn 0.622 -0.7717 0.0866
vn 0.6299 -0.7559 0.1417
vn 0.6299 -0.7638 0.1181
vn 0 0 0.9921
vn -0.0787 -0.9843 -0.0945
vn -0.1024 -0.9764 -0.1654
vn -0.0866 -0.9843 -0.1181
vn -0.1181 -0.9685 -0.189
vn 0.6457 0.5906 0.4646
vn 0.6457 0.5984 0.4646
vn 0.0472 0.9606 0.2441
vn 0.0394 0.9606 0.2441
vn 0 0.8189 0.5591
vn 0 0.8189 0.5669
vn 0 0.3071 0.9449
vn 0.9921 0.0472 -0.0157
vn 0.9685 0.2126 -0.1024
vn 0.8976 0.378 -0.1811
vn 0.9921 -0.0394 -0.0079
vn 0.8661 -0.4646 -0.1417
vn 0.9449 -0.3071 -0.0945
vn -0.2913 0.5827 0.748
vn -0.2913 0.5906 0.748
vn 0 -0.2992 0.9528
vn 0 -0.5669 0.8189
vn -0.7165 0.3465 -0.5906
vn 0.2913 0.5906 0.748
vn -0.4252 0.4961 0.748
vn -0.5827 0.8031 -0.0945
vn -0.4724 0.874 -0.0866
vn 0.9921 0.0157 0
vn 0.5906 0.7717 0.2205
vn 0.6063 0.7559 0.1969
vn 0.5669 0.7795 0.2441
vn -0.4173 0.5039 0.748
vn -0.5433 0.8031 0.2126
vn -0.5669 -0.748 0.3386
vn -0.5433 -0.6929 0.4646
vn -0.5748 -0.7795 0.2047
vn -0.9843 -0.1732 0
vn -0.9843 -0.1654 0
vn -0.7717 -0.6063 0.1575
vn -0.9921 0.0472 -0.0157
vn -0.9921 0.0787 -0.0315
vn -0.2677 0 0.9606
vn -0.2598 0 0.9606
vn -0.2677 -0.0079 0.9606
vn -0.2598 -0.0079 0.9606
vn -0.2756 0 0.9606
vn -0.2598 0.0157 0.9606
vn -0.252 0.0157 0.9606
vn -0.2756 0.0157 0.9528
vn -0.2677 0.0157 0.9606
vn -0.2756 0.0157 0.9606
# Converted from CSMC meshbin by CsmcAssetConverter
# source: weapon_rif_m4a1_silencer_legacy_weapon_rif_m4a1_silencer.body_legacy.meshbin
# source center: 10.04746 -0.2726201 2.185503
# source scale: 0.02633764
# Coordinates are preserved exactly as stored by CSMC.
# Basis conversion and mesh-normalization conjugation happen at runtime.
o v_weapon_m4a1_clip
f 1/1/1 2/2/2 3/3/1
f 1/1/1 3/3/1 4/4/1
f 3/3/1 2/2/2 5/5/2
f 3/3/1 5/5/2 6/6/1
f 6/6/1 5/5/2 7/7/1
f 6/6/1 7/7/1 8/8/1
f 8/8/1 7/7/1 9/9/1
f 8/8/1 9/9/1 10/10/2
f 8/8/1 10/10/2 11/11/2
f 8/8/1 11/11/2 12/12/1
f 12/12/1 11/11/2 13/13/1
f 13/13/1 11/11/2 14/14/1
f 14/14/1 11/11/2 15/15/1
f 14/14/1 15/15/1 16/16/1
f 15/15/1 11/11/2 17/17/1
f 17/17/1 11/11/2 18/18/1
f 17/17/1 18/18/1 19/19/1
f 17/17/1 19/19/1 20/20/1
f 17/17/1 20/20/1 21/21/2
f 21/21/2 20/20/1 22/22/2
f 22/22/2 20/20/1 23/23/1
f 23/23/1 20/20/1 24/24/1
f 23/23/1 24/24/1 25/25/2
f 25/25/3 26/26/3 23/27/3
f 26/26/3 25/25/3 27/28/3
f 23/27/4 28/29/5 22/30/5
f 28/29/5 23/27/4 26/26/4
f 29/31/6 30/32/7 31/33/7
f 30/32/7 29/31/6 32/34/6
f 31/33/7 30/32/7 33/35/8
f 33/35/8 30/32/7 34/36/8
f 33/35/8 34/36/8 35/37/9
f 35/37/9 34/36/8 36/38/9
f 35/37/9 36/38/9 37/39/10
f 35/37/9 37/39/10 38/40/10
f 38/40/10 37/39/10 39/41/11
f 39/41/11 37/39/10 40/42/11
f 41/43/12 42/44/13 17/45/14
f 17/45/14 42/44/13 15/46/15
f 34/36/16 43/47/17 44/48/16
f 43/47/17 34/36/16 30/32/17
f 43/47/17 30/32/17 32/34/18
f 43/47/17 32/34/18 45/49/19
f 34/36/16 44/48/16 36/38/20
f 36/38/20 44/48/16 46/50/21
f 36/38/20 46/50/21 37/39/22
f 37/39/22 46/50/21 40/42/23
f 40/42/23 46/50/21 47/51/23
f 48/52/24 49/53/24 50/54/24
f 51/55/25 52/56/26 19/19/27
f 19/19/27 52/56/26 20/20/28
f 53/57/29 54/58/29 55/59/29
f 56/60/30 57/61/30 58/62/31
f 56/60/30 58/62/31 59/63/31
f 59/63/31 58/62/31 60/64/31
f 58/62/31 57/61/30 61/65/31
f 61/65/31 57/61/30 62/66/31
f 61/65/31 62/66/31 63/67/31
f 57/61/30 56/60/30 64/68/32
f 64/68/32 56/60/30 65/69/32
f 64/68/32 65/69/32 66/70/33
f 64/68/32 66/70/33 67/71/33
f 67/71/33 66/70/33 68/72/34
f 68/72/34 66/70/33 69/73/34
f 68/72/34 69/73/34 70/74/35
f 70/74/35 69/73/34 71/75/35
f 70/74/35 71/75/35 72/76/36
f 70/74/35 72/76/36 73/77/36
f 73/77/36 72/76/36 74/78/37
f 74/78/37 72/76/36 75/79/37
f 45/49/38 32/34/39 76/80/40
f 49/53/41 63/67/41 77/81/41
f 77/81/41 63/67/41 62/66/41
f 59/63/41 60/64/41 78/82/41
f 78/82/41 60/64/41 54/58/41
f 79/83/42 32/34/39 29/31/42
f 32/34/39 79/83/42 76/80/40
f 80/84/43 81/85/44 14/86/45
f 14/86/45 81/85/44 13/87/46
f 82/88/47 83/89/47 84/90/48
f 84/90/48 83/89/47 85/91/48
f 83/89/47 82/88/47 76/80/19
f 76/80/19 82/88/47 45/49/19
f 86/92/49 87/93/50 88/94/51
f 88/94/51 87/93/50 89/95/51
f 87/93/50 86/92/49 90/96/52
f 90/96/52 86/92/49 91/97/52
f 90/96/52 91/97/52 92/98/53
f 92/98/53 91/97/52 93/99/53
f 92/98/53 93/99/53 94/100/54
f 92/98/53 94/100/54 95/101/55
f 95/101/55 94/100/54 96/102/56
f 95/101/55 96/102/56 97/103/56
f 97/103/56 96/102/56 98/104/57
f 98/104/57 96/102/56 99/105/57
f 83/89/58 100/106/59 101/107/59
f 83/89/58 101/107/59 102/108/59
f 83/89/58 102/108/59 85/91/59
f 85/91/59 102/108/59 103/109/59
f 100/106/59 83/89/58 104/110/58
f 104/110/58 83/89/58 76/80/60
f 104/110/58 76/80/60 79/83/60
f 100/106/59 104/110/58 105/111/59
f 105/111/59 104/110/58 106/112/59
f 105/111/59 106/112/59 107/113/59
f 108/114/61 109/115/62 110/116/63
f 110/116/63 109/115/62 111/117/64
f 108/114/61 110/116/63 112/118/65
f 108/114/61 112/118/65 113/119/65
f 113/119/65 112/118/65 114/120/66
f 114/120/66 112/118/65 115/121/66
f 114/120/66 115/121/66 116/122/67
f 116/122/67 115/121/66 117/123/68
f 116/122/67 117/123/68 118/124/69
f 116/122/67 118/124/69 119/125/69
f 119/125/69 118/124/69 120/126/70
f 120/126/70 118/124/69 121/127/70
f 84/90/71 85/91/72 122/128/73
f 123/129/57 124/130/57 125/131/57
f 125/131/57 124/130/57 126/132/57
f 127/133/74 128/134/75 10/10/76
f 10/10/76 128/134/75 11/11/77
f 129/135/78 130/136/78 131/137/78
f 131/137/78 130/136/78 132/138/79
f 131/137/78 132/138/79 133/139/80
f 134/140/81 135/141/81 136/142/81
f 135/141/81 134/140/81 137/143/81
f 138/144/82 139/145/83 140/146/84
f 140/146/84 139/145/83 141/147/85
f 139/145/83 138/144/82 142/148/86
f 142/148/86 138/144/82 143/149/86
f 142/148/86 143/149/86 144/150/87
f 142/148/86 144/150/87 145/151/87
f 145/151/87 144/150/87 146/152/88
f 145/151/87 146/152/88 147/153/88
f 78/82/89 54/58/89 53/57/89
f 148/154/90 125/131/90 126/132/90
f 148/154/90 126/132/90 149/155/90
f 50/54/89 49/53/89 77/81/89
f 130/136/91 150/156/91 151/157/91
f 152/158/25 153/159/92 154/160/93
f 154/160/93 153/159/92 155/161/92
f 152/158/25 154/160/93 156/162/94
f 152/158/25 156/162/94 157/163/95
f 157/163/95 156/162/94 158/164/96
f 158/164/96 156/162/94 159/165/96
f 158/164/96 159/165/96 160/166/97
f 160/166/97 159/165/96 161/167/97
f 162/168/98 163/169/99 164/170/98
f 164/170/98 163/169/99 165/171/100
f 165/171/100 163/169/99 106/112/101
f 106/112/101 163/169/99 107/113/102
f 15/46/103 166/172/103 16/173/103
f 166/172/103 15/46/103 42/44/103
f 3/174/103 167/175/103 4/176/103
f 167/175/103 3/174/103 168/177/103
f 28/29/103 169/178/103 22/30/103
f 22/30/103 169/178/103 21/179/103
f 81/85/103 170/180/103 13/87/103
f 13/87/103 170/180/103 12/181/103
f 171/182/104 136/142/104 172/183/104
f 173/184/103 174/185/103 97/103/103
f 173/184/103 97/103/103 98/104/103
f 97/103/103 174/185/103 175/186/103
f 97/103/103 175/186/103 176/187/103
f 97/103/103 176/187/103 177/188/103
f 97/103/103 177/188/103 178/189/103
f 97/103/103 178/189/103 179/190/103
f 179/190/103 178/189/103 180/191/103
f 180/191/103 178/189/103 181/192/103
f 182/193/103 73/77/103 74/78/103
f 73/77/103 182/193/103 183/194/103
f 73/77/103 183/194/103 70/74/103
f 70/74/103 183/194/103 184/195/103
f 70/74/103 184/195/103 68/72/103
f 68/72/103 184/195/103 185/196/103
f 68/72/103 185/196/103 186/197/103
f 68/72/103 186/197/103 67/71/103
f 67/71/103 186/197/103 187/198/103
f 67/71/103 187/198/103 64/68/103
f 64/68/103 187/198/103 188/199/103
f 64/68/103 188/199/103 57/61/103
f 57/61/103 188/199/103 62/66/103
f 62/66/103 188/199/103 189/200/103
f 82/88/103 190/201/103 191/202/103
f 190/201/103 82/88/103 84/90/103
f 82/88/103 191/202/103 192/203/103
f 82/88/103 192/203/103 45/49/103
f 45/49/103 192/203/103 193/204/103
f 45/49/103 193/204/103 43/47/103
f 43/47/103 193/204/103 44/48/103
f 44/48/103 193/204/103 194/205/103
f 44/48/103 194/205/103 46/50/103
f 46/50/103 194/205/103 195/206/103
f 46/50/103 195/206/103 47/51/103
f 47/51/103 195/206/103 196/207/103
f 89/95/103 197/208/103 198/209/103
f 197/208/103 89/95/103 87/93/103
f 197/208/103 87/93/103 199/210/103
f 199/210/103 87/93/103 90/96/103
f 199/210/103 90/96/103 200/211/103
f 200/211/103 90/96/103 92/98/103
f 200/211/103 92/98/103 95/101/103
f 200/211/103 95/101/103 201/212/103
f 141/147/103 202/213/103 203/214/103
f 202/213/103 141/147/103 139/145/103
f 202/213/103 139/145/103 204/215/103
f 204/215/103 139/145/103 205/216/103
f 205/216/103 139/145/103 142/148/103
f 205/216/103 142/148/103 145/151/103
f 205/216/103 145/151/103 206/217/103
f 206/217/103 145/151/103 147/153/103
f 206/217/103 147/153/103 207/218/103
f 208/219/103 129/135/103 209/220/103
f 209/220/103 129/135/103 131/137/103
f 124/130/103 210/221/103 126/132/103
f 126/132/103 210/221/103 149/155/103
f 211/222/105 123/129/105 212/223/105
f 123/129/105 211/222/105 124/130/105
f 85/91/72 213/224/106 122/128/73
f 213/224/106 85/91/72 103/109/107
f 122/128/73 213/224/106 214/225/108
f 214/225/108 213/224/106 215/226/98
f 129/135/109 150/156/109 130/136/109
f 131/137/110 133/139/79 207/218/111
f 131/137/110 207/218/111 209/220/112
f 209/220/112 207/218/111 147/153/113
f 209/220/112 147/153/113 216/227/114
f 216/227/114 147/153/113 146/152/114
f 216/227/114 146/152/114 217/228/115
f 216/227/114 217/228/115 218/229/116
f 218/229/116 217/228/115 179/190/117
f 179/190/117 217/228/115 201/212/118
f 179/190/117 201/212/118 97/103/103
f 97/103/103 201/212/118 95/101/103
f 219/230/119 216/227/103 148/154/103
f 218/229/103 220/231/120 216/227/103
f 216/227/103 220/231/120 148/154/103
f 148/154/103 220/231/120 221/232/103
f 219/230/119 148/154/103 222/233/119
f 219/230/119 222/233/119 223/234/121
f 223/234/121 222/233/119 224/235/121
f 148/154/103 221/232/103 225/236/103
f 225/236/103 221/232/103 226/237/103
f 148/154/103 225/236/103 125/131/103
f 225/236/103 226/237/103 227/238/103
f 227/238/103 226/237/103 228/239/103
f 227/238/103 228/239/103 229/240/103
f 229/240/103 228/239/103 230/241/103
f 125/131/103 225/236/103 99/105/103
f 125/131/103 99/105/103 231/242/103
f 125/131/103 231/242/103 123/129/103
f 231/242/103 99/105/103 232/243/103
f 232/243/103 99/105/103 96/102/103
f 232/243/103 96/102/103 233/244/103
f 233/244/103 96/102/103 94/100/103
f 233/244/103 94/100/103 93/99/103
f 233/244/103 93/99/103 234/245/103
f 234/245/103 93/99/103 235/246/103
f 235/246/103 93/99/103 91/97/103
f 235/246/103 91/97/103 236/247/103
f 236/247/103 91/97/103 86/92/103
f 236/247/103 86/92/103 237/248/103
f 237/248/103 86/92/103 88/94/103
f 238/249/103 239/250/103 8/251/103
f 8/251/103 239/250/103 6/252/103
f 240/253/122 51/55/122 18/18/122
f 18/18/122 51/55/122 19/19/122
f 138/144/103 241/254/103 242/255/103
f 241/254/103 138/144/103 140/146/103
f 138/144/103 242/255/103 143/149/103
f 143/149/103 242/255/103 243/256/103
f 143/149/103 243/256/103 244/257/103
f 143/149/103 244/257/103 144/150/103
f 144/150/103 244/257/103 217/228/103
f 144/150/103 217/228/103 146/152/103
f 245/258/122 246/259/122 1/1/122
f 1/1/122 246/259/122 2/2/122
f 24/24/122 27/28/122 25/25/122
f 27/28/122 24/24/122 247/260/122
f 6/252/123 168/177/123 3/174/124
f 168/177/123 6/252/123 239/250/123
f 9/9/122 127/133/122 10/10/122
f 127/133/122 9/9/122 248/261/122
f 120/126/125 249/262/125 250/263/125
f 249/262/125 120/126/125 121/127/125
f 132/138/103 251/264/126 252/265/103
f 132/138/103 252/265/103 253/266/103
f 251/264/126 132/138/103 130/136/126
f 132/138/103 253/266/103 133/139/103
f 251/264/126 130/136/126 151/157/127
f 133/139/103 253/266/103 254/267/103
f 251/264/126 151/157/127 255/268/127
f 255/268/127 151/157/127 256/269/128
f 255/268/127 256/269/128 257/270/128
f 133/139/103 254/267/103 258/271/103
f 258/271/103 254/267/103 259/272/103
f 258/271/103 259/272/103 260/273/103
f 260/273/103 259/272/103 261/274/103
f 261/274/103 259/272/103 262/275/103
f 261/274/103 262/275/103 263/276/103
f 263/276/103 262/275/103 264/277/103
f 263/276/103 264/277/103 265/278/103
f 265/278/103 264/277/103 266/279/103
f 4/176/129 245/280/129 1/281/129
f 245/280/129 4/176/129 167/175/129
f 134/140/130 136/142/130 171/182/130
f 118/124/122 267/282/122 121/127/122
f 121/127/122 267/282/122 268/283/122
f 104/110/122 269/284/122 106/112/122
f 106/112/122 269/284/122 270/285/122
f 269/284/122 104/110/122 79/83/122
f 269/284/122 79/83/122 271/286/122
f 272/287/122 56/288/122 273/289/122
f 273/289/122 56/288/122 59/290/122
f 72/291/122 274/292/122 75/293/122
f 274/292/122 72/291/122 275/294/122
f 275/294/122 72/291/122 71/295/122
f 275/294/122 71/295/122 276/296/122
f 276/296/122 71/295/122 69/297/122
f 276/296/122 69/297/122 277/298/122
f 277/298/122 69/297/122 278/299/122
f 278/299/122 69/297/122 66/300/122
f 278/299/122 66/300/122 279/301/122
f 279/301/122 66/300/122 65/302/122
f 110/116/122 111/117/122 280/303/122
f 280/303/122 111/117/122 281/304/122
f 110/116/122 280/303/122 282/305/122
f 110/116/122 282/305/122 112/118/122
f 112/118/122 282/305/122 283/306/122
f 112/118/122 283/306/122 115/121/122
f 115/121/122 283/306/122 117/123/122
f 117/123/122 283/306/122 284/307/122
f 38/40/122 39/41/122 285/308/122
f 285/308/122 39/41/122 286/309/122
f 38/40/122 285/308/122 35/37/122
f 35/37/122 285/308/122 287/310/122
f 35/37/122 287/310/122 33/35/122
f 33/35/122 287/310/122 288/311/122
f 33/35/122 288/311/122 31/33/122
f 31/33/122 288/311/122 29/31/122
f 29/31/122 288/311/122 271/286/122
f 289/312/122 155/161/122 290/313/122
f 155/161/122 289/312/122 154/160/122
f 154/160/122 289/312/122 291/314/122
f 154/160/122 291/314/122 292/315/122
f 154/160/122 292/315/122 156/162/122
f 156/162/122 292/315/122 159/165/122
f 159/165/122 292/315/122 293/316/122
f 159/165/122 293/316/122 161/167/122
f 161/167/122 293/316/122 294/317/122
f 295/318/122 137/143/122 134/140/122
f 137/143/122 295/318/122 296/319/122
f 178/189/131 226/237/131 181/192/131
f 181/192/131 226/237/131 221/232/131
f 56/288/122 279/301/132 65/302/122
f 279/301/132 56/288/122 272/287/133
f 279/301/132 272/287/133 297/320/134
f 297/320/134 272/287/133 298/321/135
f 297/320/134 298/321/135 299/322/136
f 299/322/136 298/321/135 135/141/137
f 299/322/136 135/141/137 294/317/138
f 294/317/138 135/141/137 137/143/139
f 294/317/138 137/143/139 161/167/140
f 161/167/140 137/143/139 296/319/141
f 161/167/140 296/319/141 160/166/142
f 160/166/142 296/319/141 300/323/142
f 160/166/142 300/323/142 301/324/143
f 160/166/142 301/324/143 302/325/144
f 302/325/144 301/324/143 284/307/145
f 284/307/145 301/324/143 267/282/146
f 284/307/145 267/282/146 117/123/122
f 117/123/122 267/282/146 118/124/122
f 79/83/122 29/31/122 271/286/122
f 303/326/147 304/327/148 305/328/149
f 304/327/148 303/326/147 306/329/150
f 246/259/151 307/330/152 2/2/151
f 2/2/151 307/330/152 5/5/152
f 222/233/153 308/331/153 224/235/153
f 203/214/154 263/276/154 265/278/154
f 263/276/154 203/214/154 202/213/154
f 263/276/154 202/213/154 261/274/155
f 261/274/155 202/213/154 204/215/155
f 261/274/155 204/215/155 260/273/156
f 260/273/156 204/215/155 205/216/156
f 260/273/156 205/216/156 206/217/157
f 260/273/156 206/217/157 258/271/157
f 258/271/157 206/217/157 207/218/80
f 258/271/157 207/218/80 133/139/80
f 179/190/158 220/231/158 218/229/158
f 220/231/158 179/190/158 180/191/158
f 210/221/158 222/233/158 149/155/158
f 149/155/158 222/233/158 148/154/158
f 158/164/122 302/325/122 309/332/122
f 302/325/122 158/164/122 160/166/122
f 158/164/122 309/332/122 157/163/122
f 157/163/122 309/332/122 310/333/122
f 157/163/122 310/333/122 311/334/122
f 157/163/122 311/334/122 152/158/122
f 152/158/122 311/334/122 312/335/122
f 152/158/122 312/335/122 153/159/122
f 300/323/122 313/336/159 301/324/122
f 313/336/159 300/323/122 314/337/159
f 313/336/159 314/337/159 315/338/160
f 315/338/160 314/337/159 316/339/160
f 113/119/122 317/340/122 318/341/122
f 113/119/122 318/341/122 319/342/122
f 317/340/122 113/119/122 114/120/122
f 113/119/122 319/342/122 108/114/122
f 108/114/122 319/342/122 320/343/122
f 108/114/122 320/343/122 109/115/122
f 317/340/122 114/120/122 321/344/122
f 321/344/122 114/120/122 116/122/122
f 321/344/122 116/122/122 322/345/122
f 322/345/122 116/122/122 119/125/122
f 322/345/122 119/125/122 323/346/122
f 323/346/122 119/125/122 120/126/122
f 307/330/122 324/347/122 5/5/122
f 5/5/122 324/347/122 7/7/122
f 325/348/161 326/349/162 327/350/163
f 327/350/163 326/349/162 328/351/164
f 135/141/122 298/321/122 136/142/165
f 136/142/165 298/321/122 329/352/165
f 136/142/165 329/352/165 172/183/166
f 172/183/166 329/352/165 330/353/166
f 172/183/166 330/353/166 331/354/167
f 331/354/167 330/353/166 332/355/168
f 333/356/122 334/357/122 335/358/122
f 335/358/122 334/357/122 336/359/122
f 333/356/122 335/358/122 337/360/122
f 333/356/122 337/360/122 338/361/122
f 338/361/122 337/360/122 339/362/122
f 338/361/122 339/362/122 340/363/122
f 340/363/122 339/362/122 341/364/122
f 341/364/122 339/362/122 342/365/122
f 341/364/122 342/365/122 299/322/122
f 299/322/122 342/365/122 297/320/122
f 212/223/169 231/242/170 343/366/171
f 231/242/170 212/223/169 123/129/170
f 212/223/169 343/366/171 344/367/172
f 212/223/169 344/367/172 345/368/172
f 346/369/173 219/230/173 223/234/173
f 333/356/174 290/313/175 334/357/175
f 290/313/175 333/356/174 289/312/174
f 289/312/174 333/356/174 338/361/176
f 289/312/174 338/361/176 291/314/176
f 291/314/176 338/361/176 340/363/177
f 291/314/176 340/363/177 292/315/177
f 292/315/177 340/363/177 293/316/178
f 293/316/178 340/363/177 341/364/178
f 293/316/178 341/364/178 294/317/179
f 294/317/179 341/364/178 299/322/179
f 301/324/180 268/283/180 267/282/180
f 268/283/180 301/324/180 313/336/180
f 210/221/170 211/222/170 308/331/170
f 211/222/170 210/221/170 124/130/170
f 84/90/181 122/128/181 190/201/182
f 190/201/182 122/128/181 347/370/183
f 77/81/170 189/200/170 348/371/170
f 189/200/170 77/81/170 62/66/170
f 129/135/170 346/369/170 150/156/170
f 346/369/170 129/135/170 208/219/170
f 349/372/184 313/336/184 315/338/184
f 216/227/185 208/219/185 209/220/185
f 208/219/185 216/227/185 219/230/185
f 350/373/186 120/126/187 250/263/186
f 120/126/187 350/373/186 323/346/187
f 350/373/186 250/263/186 351/374/188
f 351/374/188 250/263/186 352/375/189
f 314/337/190 353/376/190 316/339/190
f 296/319/191 314/337/191 300/323/191
f 314/337/191 296/319/191 295/318/191
f 223/234/192 354/377/192 355/378/192
f 354/377/192 223/234/192 224/235/192
f 106/112/187 270/285/187 165/171/187
f 165/171/187 270/285/187 356/379/187
f 249/262/187 268/283/187 349/372/187
f 268/283/187 249/262/187 121/127/187
f 273/289/187 78/380/187 357/381/187
f 78/380/187 273/289/187 59/290/187
f 353/376/187 134/140/187 171/182/187
f 134/140/187 353/376/187 295/318/187
f 211/222/193 212/223/193 345/368/193
f 12/181/155 238/249/155 8/251/155
f 238/249/155 12/181/155 170/180/155
f 210/221/194 308/331/194 222/233/194
f 315/338/195 316/339/195 358/382/195
f 358/382/195 316/339/195 359/383/195
f 250/263/196 249/262/196 352/375/196
f 275/294/197 336/359/197 274/292/197
f 336/359/197 275/294/197 335/358/197
f 335/358/197 275/294/197 276/296/151
f 335/358/197 276/296/151 337/360/151
f 337/360/151 276/296/151 277/298/198
f 337/360/151 277/298/198 339/362/198
f 339/362/198 277/298/198 342/365/199
f 342/365/199 277/298/198 278/299/200
f 342/365/199 278/299/200 297/320/201
f 297/320/201 278/299/200 279/301/201
f 7/7/176 248/261/176 9/9/176
f 248/261/176 7/7/176 324/347/176
f 268/283/202 313/336/202 349/372/202
f 208/219/203 219/230/203 346/369/203
f 150/156/204 355/378/205 256/269/206
f 150/156/204 256/269/206 151/157/207
f 355/378/205 150/156/204 346/369/208
f 355/378/205 346/369/208 223/234/209
f 128/134/210 240/253/211 11/11/212
f 11/11/212 240/253/211 18/18/213
f 211/222/214 345/368/214 308/331/215
f 308/331/215 345/368/214 354/377/216
f 308/331/215 354/377/216 224/235/217
f 347/370/214 214/225/214 344/367/214
f 214/225/214 347/370/214 122/128/214
f 360/384/214 348/371/218 257/270/219
f 257/270/219 348/371/218 255/268/220
f 348/371/218 360/384/214 77/81/214
f 77/81/214 360/384/214 50/54/214
f 295/318/221 353/376/221 314/337/221
f 251/264/222 189/200/222 252/265/222
f 252/265/222 189/200/222 188/199/222
f 252/265/222 188/199/222 187/198/223
f 252/265/222 187/198/223 253/266/223
f 253/266/223 187/198/223 186/197/224
f 253/266/223 186/197/224 254/267/224
f 254/267/224 186/197/224 185/196/225
f 254/267/224 185/196/225 259/272/225
f 259/272/225 185/196/225 262/275/124
f 262/275/124 185/196/225 184/195/124
f 262/275/124 184/195/124 264/277/44
f 264/277/44 184/195/124 183/194/226
f 264/277/44 183/194/226 266/279/226
f 266/279/226 183/194/226 182/193/226
f 359/383/227 171/182/228 331/354/229
f 331/354/229 171/182/228 172/183/230
f 171/182/228 359/383/227 353/376/231
f 353/376/231 359/383/227 316/339/232
f 164/170/233 356/379/233 351/374/233
f 356/379/233 164/170/233 165/171/233
f 197/208/234 242/255/235 198/209/236
f 198/209/236 242/255/235 241/254/236
f 242/255/235 197/208/234 243/256/237
f 243/256/237 197/208/234 199/210/238
f 243/256/237 199/210/238 200/211/239
f 243/256/237 200/211/239 244/257/239
f 244/257/239 200/211/239 201/212/240
f 244/257/239 201/212/240 217/228/240
f 352/375/233 349/372/241 358/382/242
f 358/382/242 349/372/241 315/338/243
f 349/372/241 352/375/233 249/262/233
f 357/381/244 53/385/233 332/355/245
f 53/385/233 357/381/244 78/380/233
f 357/381/244 332/355/245 330/353/246
f 214/225/247 215/226/247 325/348/247
f 348/371/248 251/264/248 255/268/248
f 306/329/247 162/168/247 164/170/247
f 174/185/249 173/184/249 227/238/249
f 227/238/249 173/184/249 225/236/249
f 280/303/250 281/304/251 311/334/252
f 311/334/252 281/304/251 312/335/251
f 280/303/250 311/334/252 310/333/253
f 280/303/250 310/333/253 282/305/253
f 282/305/253 310/333/253 283/306/254
f 283/306/254 310/333/253 309/332/254
f 283/306/254 309/332/254 284/307/255
f 284/307/255 309/332/254 302/325/255
f 329/352/256 357/381/256 330/353/256
f 226/237/257 177/188/257 228/239/257
f 177/188/257 226/237/257 178/189/257
f 354/377/258 345/368/258 361/386/259
f 361/386/259 345/368/258 325/348/260
f 325/348/260 345/368/258 344/367/258
f 325/348/260 344/367/258 214/225/258
f 298/321/261 272/287/261 329/352/261
f 329/352/261 272/287/261 273/289/261
f 352/375/262 362/387/263 306/329/264
f 362/387/263 352/375/262 358/382/262
f 306/329/264 362/387/263 363/388/265
f 306/329/264 363/388/265 304/327/266
f 352/375/262 306/329/264 351/374/262
f 351/374/262 306/329/264 164/170/262
f 358/382/267 364/389/268 362/387/269
f 362/387/269 364/389/268 365/390/270
f 362/387/269 365/390/270 363/388/271
f 354/377/272 361/386/273 366/391/274
f 366/391/274 361/386/273 367/392/275
f 367/392/275 361/386/273 368/393/276
f 231/242/277 347/370/277 343/366/277
f 347/370/277 231/242/277 190/201/277
f 368/393/278 325/348/260 327/350/279
f 325/348/260 368/393/278 361/386/259
f 304/327/280 363/388/281 305/328/280
f 305/328/280 363/388/281 365/390/281
f 195/206/282 236/247/283 196/207/284
f 196/207/284 236/247/283 237/248/284
f 236/247/283 195/206/282 235/246/285
f 235/246/285 195/206/282 194/205/285
f 235/246/285 194/205/285 234/245/286
f 234/245/286 194/205/285 193/204/286
f 234/245/286 193/204/286 192/203/287
f 234/245/286 192/203/287 233/244/288
f 233/244/288 192/203/287 191/202/289
f 233/244/288 191/202/289 232/243/289
f 232/243/289 191/202/289 231/242/290
f 231/242/290 191/202/289 190/201/290
f 189/200/291 251/264/291 348/371/291
f 60/64/292 58/62/293 369/394/294
f 60/64/292 369/394/294 54/58/295
f 54/58/295 369/394/294 370/395/296
f 163/169/297 162/168/103 371/396/298
f 163/169/297 371/396/298 107/113/299
f 107/113/299 371/396/298 372/397/299
f 371/396/298 162/168/103 303/326/300
f 303/326/300 162/168/103 306/329/301
f 356/379/302 323/346/302 350/373/302
f 323/346/302 356/379/302 270/285/302
f 373/398/303 53/385/304 55/399/305
f 53/385/304 373/398/303 332/355/306
f 331/354/307 374/400/308 375/401/309
f 331/354/307 375/401/309 359/383/310
f 322/345/311 270/285/312 269/284/311
f 270/285/312 322/345/311 323/346/312
f 322/345/311 269/284/311 271/286/313
f 322/345/311 271/286/313 321/344/313
f 321/344/313 271/286/313 317/340/314
f 317/340/314 271/286/313 288/311/315
f 317/340/314 288/311/315 318/341/316
f 318/341/316 288/311/315 287/310/316
f 318/341/316 287/310/316 285/308/317
f 318/341/316 285/308/317 319/342/318
f 319/342/318 285/308/317 286/309/319
f 319/342/318 286/309/319 320/343/319
f 273/289/320 357/381/320 329/352/320
f 343/366/321 347/370/321 344/367/321
f 376/402/120 377/403/103 378/404/103
f 376/402/120 378/404/103 364/405/322
f 364/405/322 378/404/103 379/406/103
f 377/403/103 376/402/120 375/407/323
f 377/403/103 375/407/323 374/408/324
f 377/403/103 374/408/324 380/409/300
f 368/393/165 327/350/325 367/392/165
f 367/392/165 327/350/325 328/351/325
f 360/384/326 381/410/327 382/411/328
f 166/172/329 80/84/330 16/173/331
f 16/173/331 80/84/330 14/86/332
f 50/54/333 383/412/334 48/52/335
f 383/412/334 50/54/333 360/384/336
f 356/379/337 350/373/337 351/374/337
f 61/65/122 384/413/122 385/414/122
f 384/413/122 61/65/122 63/67/122
f 384/413/122 63/67/122 49/53/338
f 355/378/339 366/391/340 386/415/341
f 366/391/340 355/378/339 354/377/342
f 355/378/339 386/415/341 387/416/334
f 355/378/339 387/416/334 256/269/343
f 256/269/343 387/416/334 381/410/343
f 256/269/343 381/410/343 257/270/343
f 257/270/343 381/410/343 360/384/343
f 55/399/344 388/417/344 373/398/345
f 373/398/345 388/417/344 389/418/345
f 390/419/346 386/420/122 391/421/122
f 391/421/122 386/420/122 366/422/347
f 391/421/122 366/422/347 392/423/122
f 386/420/122 390/419/346 387/424/348
f 387/424/348 390/419/346 381/425/327
f 381/425/327 390/419/346 382/426/328
f 382/426/328 390/419/346 393/427/349
f 332/355/350 374/400/350 331/354/350
f 103/109/351 102/108/352 394/428/353
f 394/428/353 102/108/352 395/429/354
f 103/109/351 394/428/353 396/430/355
f 103/109/351 396/430/355 213/224/356
f 213/224/356 396/430/355 215/226/357
f 215/226/357 396/430/355 326/349/122
f 215/226/357 326/349/122 325/348/122
f 364/389/358 359/383/310 376/431/310
f 376/431/310 359/383/310 375/401/309
f 359/383/310 364/389/358 358/382/359
f 52/56/360 247/260/361 20/20/362
f 20/20/362 247/260/361 24/24/250
f 58/62/363 61/65/363 369/394/363
f 369/394/363 61/65/363 385/414/363
f 48/52/364 383/412/365 397/432/366
f 397/432/366 383/412/365 398/433/367
f 175/186/368 227/238/368 229/240/369
f 227/238/368 175/186/368 174/185/368
f 107/113/370 372/397/371 105/111/372
f 105/111/372 372/397/371 399/434/373
f 105/111/372 399/434/373 400/435/374
f 105/111/372 400/435/374 100/106/374
f 394/436/375 392/437/376 396/438/377
f 372/397/378 371/396/379 379/439/380
f 176/187/381 230/241/381 177/188/381
f 177/188/381 230/241/381 228/239/382
f 101/107/383 100/106/374 401/440/383
f 401/440/383 100/106/374 400/435/374
f 101/107/383 401/440/383 395/429/384
f 101/107/383 395/429/384 102/108/384
f 393/441/385 384/442/385 397/443/385
f 176/187/386 175/186/386 230/241/386
f 230/241/386 175/186/386 229/240/386
f 332/355/387 373/398/387 374/400/387
f 374/400/388 373/398/388 389/418/388
f 370/444/389 369/445/389 377/403/389
f 392/437/376 394/436/375 391/421/31
f 391/421/31 394/436/375 395/446/390
f 391/421/31 395/446/390 401/447/31
f 391/421/31 401/447/31 378/404/31
f 378/404/31 401/447/31 400/448/31
f 378/404/31 400/448/31 399/449/31
f 378/404/31 399/449/31 372/450/378
f 378/404/31 372/450/378 379/451/380
f 169/178/234 41/43/391 21/179/392
f 21/179/392 41/43/391 17/45/393
f 99/105/363 225/236/363 98/104/363
f 98/104/363 225/236/363 173/184/363
f 180/191/363 221/232/363 220/231/363
f 221/232/363 180/191/363 181/192/363
f 388/452/394 54/58/394 370/395/394
f 383/412/76 382/411/76 398/433/76
f 55/59/395 54/58/395 388/452/395
f 49/53/396 397/432/396 384/413/397
f 397/432/396 49/53/396 48/52/398
f 380/453/399 388/454/400 377/403/399
f 377/403/399 388/454/400 370/444/400
f 360/384/401 382/411/401 383/412/401
f 391/421/363 378/404/363 390/419/363
f 390/419/363 378/404/363 377/403/363
f 385/455/59 390/419/59 369/445/59
f 369/445/59 390/419/59 377/403/59
f 390/419/59 385/455/59 393/441/402
f 393/441/402 385/455/59 384/442/403
f 307/330/404 334/357/405 324/347/405
f 324/347/405 334/357/405 290/313/405
f 334/357/405 307/330/404 336/359/404
f 324/347/405 290/313/405 248/261/405
f 336/359/404 307/330/404 274/292/404
f 248/261/405 290/313/405 155/161/404
f 274/292/404 307/330/404 246/259/404
f 274/292/404 246/259/404 75/293/405
f 75/293/405 246/259/404 245/258/405
f 248/261/405 155/161/404 127/133/404
f 127/133/404 155/161/404 128/134/404
f 128/134/404 155/161/404 153/159/404
f 128/134/404 153/159/404 312/335/405
f 128/134/404 312/335/405 281/304/405
f 128/134/404 281/304/405 240/253/405
f 240/253/405 281/304/405 111/117/406
f 240/253/405 111/117/406 51/55/406
f 51/55/406 111/117/406 52/56/407
f 52/56/407 111/117/406 109/115/404
f 52/56/407 109/115/404 320/343/407
f 52/56/407 320/343/407 286/309/405
f 52/56/407 286/309/405 247/260/405
f 247/260/405 286/309/405 39/41/404
f 247/260/405 39/41/404 27/28/404
f 27/28/404 39/41/404 26/26/404
f 26/26/404 39/41/404 40/42/408
f 26/26/404 40/42/408 47/51/404
f 26/26/404 47/51/404 28/29/404
f 28/29/404 47/51/404 169/178/405
f 169/178/405 47/51/404 196/207/405
f 169/178/405 196/207/405 41/43/409
f 41/43/409 196/207/405 237/248/410
f 41/43/409 237/248/410 88/94/411
f 41/43/409 88/94/411 89/95/404
f 41/43/409 89/95/404 42/44/404
f 42/44/404 89/95/404 166/172/405
f 166/172/405 89/95/404 198/209/405
f 166/172/405 198/209/405 80/84/412
f 80/84/412 198/209/405 241/254/410
f 80/84/412 241/254/410 140/146/413
f 80/84/412 140/146/413 141/147/404
f 80/84/412 141/147/404 81/85/404
f 81/85/404 141/147/404 170/180/405
f 170/180/405 141/147/404 203/214/405
f 170/180/405 203/214/405 238/249/405
f 238/249/405 203/214/405 265/278/405
f 238/249/405 265/278/405 239/250/404
f 239/250/404 265/278/405 266/279/404
f 239/250/404 266/279/404 182/193/404
f 239/250/404 182/193/404 168/177/404
f 168/177/404 182/193/404 74/78/405
f 168/177/404 74/78/405 167/175/405
f 167/175/405 74/78/405 75/79/405
f 167/175/405 75/79/405 245/280/405
