# CS2 body mesh, tools/cs2_glb_to_obj.py
v 0.2268 0.01259 0.04774
v 0.22679 0.01509 0.04273
v 0.2268 0.01259 0.04273
v -0.5686 0.00048 0.09307
v -0.56907 -0.00019 0.08824
v -0.5686 0.00048 0.08927
v -0.56907 -0.00015 0.09252
v -0.56911 0.00984 0.09253
v -0.56863 0.00915 0.08952
v -0.56917 0.00987 0.08874
v -0.56862 0.00909 0.09334
v -0.50039 0.00804 0.01668
v -0.50039 0.00803 0.03545
v -0.50018 0.00703 0.03544
v -0.50018 0.00704 0.01668
v -0.49475 -0.00609 0.03919
v -0.49475 -0.00609 0.04873
v -0.49474 -0.00987 0.05167
v -0.49473 -0.01252 0.0549
v -0.49472 -0.01448 0.05857
v -0.49484 0.01643 0.04875
v -0.49484 0.01643 0.03921
v -0.49486 0.0202 0.05169
v -0.49487 0.02285 0.05491
v -0.49488 0.02481 0.05859
v -0.50522 0.00364 -0.00209
v -0.50481 0.0061 -0.00207
v -0.50511 0.00376 -0.00083
v -0.50498 0.00638 -0.00083
v -0.51356 0.00507 0.08799
v -0.51308 0.00268 0.08775
v -0.51356 0.00507 0.08486
v -0.51308 0.00268 0.08462
v -0.5131 0.00747 0.08775
v -0.5131 0.00747 0.08463
v -0.56805 0.00483 0.08855
v -0.5681 0.00926 0.08814
v -0.56798 0.00051 0.08805
v 0.40455 0.01813 0.06773
v 0.40281 0.01594 0.0672
v 0.4044 0.01793 0.06932
v 0.40281 0.01566 0.06944
v -0.56949 0.00485 0.09574
v -0.56948 0.00047 0.09522
v -0.56951 0.00922 0.09523
v -0.57087 0.00921 0.09659
v -0.57085 0.00484 0.09711
v -0.57084 0.00047 0.09659
v 0.4044 -0.00073 0.06713
v 0.40281 0.00146 0.06766
v 0.40455 -0.00053 0.06554
v 0.40281 0.00175 0.06542
v -0.62052 0.01704 -0.0276
v -0.61992 0.01124 -0.03317
v -0.6205 0.01349 -0.03251
v -0.62049 0.00972 -0.03531
v -0.61995 0.01606 -0.02689
v -0.62049 0.02191 -0.01564
v -0.6199 0.0047 -0.03531
v -0.62047 0.00474 -0.03653
v 0.4044 0.01616 0.07322
v 0.40281 0.01469 0.0715
v 0.4044 0.01506 0.07439
v 0.40281 0.01314 0.07315
v 0.4044 0.01133 0.07649
v 0.40281 0.01116 0.07424
v 0.4044 0.00976 0.0768
v 0.40281 0.00893 0.07467
v 0.4044 0.0055 0.07631
v 0.40281 0.00669 0.07439
v 0.4044 0.00405 0.07563
v 0.40281 0.00464 0.07342
v 0.4044 0.0009 0.07273
v 0.40281 0.00298 0.07187
v 0.4044 0.00012 0.07133
v 0.40281 0.00189 0.06989
v -0.55739 0.01618 0.04875
v -0.55739 0.01618 0.0392
v -0.55741 0.01995 0.05169
v -0.55742 0.0226 0.05491
v -0.55743 0.02456 0.05859
v -0.5573 -0.00633 0.03919
v -0.5573 -0.00634 0.04873
v -0.55729 -0.01012 0.05167
v -0.55728 -0.01277 0.0549
v -0.55727 -0.01473 0.05857
v 0.3094 0.00407 0.07699
v 0.30939 0.0079 0.07963
v 0.30939 0.0079 0.07776
v 0.30937 0.01245 0.07873
v 0.3094 0.00335 0.07873
v 0.30937 0.01173 0.077
v 0.30942 0.00082 0.07482
v 0.30935 0.0163 0.07616
v 0.30942 -0.00051 0.07615
v 0.30936 0.01498 0.07483
v 0.30942 -0.00135 0.07157
v 0.30934 0.01888 0.0723
v 0.30943 -0.00308 0.07229
v 0.30943 -0.00211 0.06774
v 0.30943 -0.00398 0.06774
v 0.30935 0.01715 0.07158
v 0.30934 0.01979 0.06776
v 0.30935 0.01791 0.06775
v 0.30934 0.01888 0.06321
v 0.30935 0.01715 0.06393
v 0.30935 0.01631 0.05935
v 0.30936 0.01498 0.06068
v 0.30937 0.01246 0.05677
v 0.30937 0.01174 0.0585
v 0.30939 0.00791 0.05587
v 0.30939 0.00791 0.05774
v 0.3094 0.00336 0.05677
v 0.3094 0.00408 0.0585
v 0.30942 -0.0005 0.05934
v 0.30942 0.00083 0.06067
v 0.30943 -0.00307 0.0632
v 0.30942 -0.00134 0.06391
v -0.62049 0.01534 0.09444
v -0.61994 0.01675 0.09205
v -0.62048 0.0202 0.09014
v -0.62003 0.0233 0.0847
v -0.61898 0.0028 0.03452
v -0.61989 0.0028 0.03232
v -0.61991 0.00656 0.03232
v -0.619 0.00656 0.03452
v -0.61899 0.00656 0.03011
v -0.61898 0.00281 0.03011
v 0.35565 0.01239 0.07815
v 0.35563 0.01848 0.07206
v 0.35563 0.01935 0.06775
v 0.35564 0.01604 0.07571
v 0.35563 0.01849 0.06345
v 0.35564 0.01605 0.05979
v 0.35571 -0.00232 0.07205
v 0.3557 0.00012 0.0757
v 0.35569 0.00377 0.07815
v -0.61983 -0.0133 0.05542
v -0.61986 -0.00674 -0.02674
v -0.61984 -0.01037 0.05167
v -0.61986 -0.00659 0.04874
v -0.61986 -0.00658 0.03794
v -0.61986 -0.00533 0.03669
v -0.61988 -0.00033 0.03669
v -0.61988 -0.00033 0.03544
v -0.61989 0.0028 0.03544
v -0.61989 0.00284 -0.02319
v -0.6199 0.00408 -0.02461
v -0.6199 0.00533 -0.0246
v -0.61988 -0.00102 -0.03381
v -0.62043 -0.00023 -0.03544
v -0.6204 -0.00399 -0.03256
v -0.62045 -0.0072 -0.02829
v -0.62036 -0.01022 -0.02148
v -0.61982 -0.01488 -0.00533
v -0.62036 -0.01378 -0.01209
v -0.62034 -0.01757 0.00048
v -0.61981 -0.01939 0.01543
v -0.62032 -0.02062 0.01576
v -0.6198 -0.02101 0.03087
v -0.62032 -0.02224 0.03188
v -0.6198 -0.02101 0.04888
v -0.62038 -0.02228 0.04527
v -0.62031 -0.02156 0.05508
v -0.61981 -0.01877 0.06708
v -0.62033 -0.01985 0.06774
v -0.61982 -0.01598 0.0795
v -0.62016 -0.01701 0.07894
v -0.62033 -0.0143 0.08547
v -0.61983 -0.01185 0.08724
v -0.62043 -0.01002 0.09131
v -0.61986 -0.0062 0.09294
v -0.62041 -0.00448 0.09525
v -0.61988 -0.00035 0.09562
v -0.62063 -0.00035 0.09702
v -0.61982 -0.01498 0.05857
v -0.61982 -0.01619 0.06256
v -0.61982 -0.01657 0.06635
v -0.61982 -0.0162 0.07085
v -0.61982 -0.01509 0.07453
v -0.61983 -0.01296 0.0786
v -0.61984 -0.01027 0.08185
v -0.61985 -0.00734 0.08421
v -0.61986 -0.00496 0.08558
v -0.61987 -0.00321 0.08643
v -0.61988 0.00027 0.09373
v -0.61989 0.0005 0.08758
v -0.61988 -0.00035 0.09428
v -0.61992 0.00941 0.09369
v -0.6199 0.00465 0.09424
v -0.6199 0.00528 0.08792
v -0.61992 0.00892 0.08751
v -0.61993 0.01251 0.08643
v -0.61992 0.00964 0.09429
v -0.61995 0.01647 0.08441
v -0.62003 0.00964 0.09614
v -0.61996 0.01969 0.08177
v -0.61997 0.02233 0.07854
v -0.61998 0.02594 0.07748
v -0.61998 0.02415 0.07516
v -0.61998 0.02551 0.07089
v -0.61999 0.02589 0.06709
v -0.62 0.02926 0.05961
v -0.62 0.03066 0.04012
v -0.61998 0.02544 0.0623
v -0.61998 0.02431 0.05859
v -0.62 0.02919 0.0182
v -0.61997 0.02207 0.05457
v -0.61997 0.02266 -0.01023
v -0.62013 0.0278 0.00705
v -0.61996 0.0197 0.05169
v -0.61995 0.01593 0.03796
v -0.61995 0.01593 0.04874
v -0.61994 0.01468 0.0367
v -0.61992 0.00968 0.03669
v -0.61992 0.00968 0.03545
v -0.61991 0.00655 0.03544
v -0.61991 0.00658 -0.02322
v 0.37675 0.01508 0.06928
v 0.37675 0.0142 0.07116
v 0.37675 0.01784 0.07008
v 0.37675 0.01657 0.07277
v 0.37675 0.01821 0.06712
v 0.37675 0.01278 0.07268
v 0.37675 0.01534 0.06722
v 0.37675 0.01454 0.07494
v 0.37675 0.01765 0.0642
v 0.37675 0.01096 0.07368
v 0.37675 0.01495 0.06517
v 0.37675 0.01193 0.07638
v 0.37675 0.01621 0.06159
v 0.37675 0.00892 0.07407
v 0.37675 0.01395 0.06335
v 0.37675 0.00901 0.07694
v 0.37675 0.01404 0.05956
v 0.37675 0.00685 0.07381
v 0.37675 0.01243 0.06193
v 0.37675 0.00605 0.07657
v 0.37675 0.01135 0.05829
v 0.37675 0.00497 0.07293
v 0.37675 0.01055 0.06105
v 0.37675 0.00839 0.05792
v 0.37675 0.00849 0.06079
v 0.37675 0.00336 0.0753
v 0.37675 0.00346 0.07151
v 0.37675 0.00119 0.07327
v 0.37675 0.00245 0.06969
v 0.37675 -0.00025 0.07066
v 0.37675 0.00206 0.06765
v 0.37675 -0.00081 0.06774
v 0.37675 0.00232 0.06558
v 0.37675 -0.00044 0.06478
v 0.37675 0.0032 0.0637
v 0.37675 0.00083 0.06209
v 0.37675 0.00462 0.06219
v 0.37675 0.00286 0.05992
v 0.37675 0.00645 0.06118
v 0.37675 0.00547 0.05848
vt 0.902832 0.270996
vt 0.90625 0.276855
vt 0.906738 0.27417
vt 0.930664 0.330078
vt 0.935059 0.332275
vt 0.934082 0.330566
vt 0.931152 0.331055
vt 0.930664 0.320068
vt 0.934082 0.320557
vt 0.934082 0.319092
vt 0.930664 0.321045
vt 0.837891 0.129883
vt 0.838379 0.109558
vt 0.837402 0.109497
vt 0.836426 0.129883
vt 0.352295 0.64502
vt 0.362061 0.648926
vt 0.366699 0.646484
vt 0.37085 0.64502
vt 0.375488 0.644531
vt 0.366943 0.625
vt 0.376465 0.621094
vt 0.362305 0.622559
vt 0.35791 0.621582
vt 0.353271 0.621094
vt 0.893066 0.292236
vt 0.896484 0.293457
vt 0.893555 0.290527
vt 0.897949 0.293213
vt 0.387695 0.473633
vt 0.386963 0.476562
vt 0.386963 0.477051
vt 0.386963 0.470459
vt 0.386963 0.470215
vt 0.935059 0.325684
vt 0.935547 0.320557
vt 0.935547 0.330566
vt 0.885254 0.964844
vt 0.885742 0.966797
vt 0.88623 0.964355
vt 0.887207 0.966309
vt 0.928223 0.325439
vt 0.928711 0.329834
vt 0.928711 0.321045
vt 0.926758 0.321045
vt 0.92627 0.325195
vt 0.926758 0.32959
vt 0.887207 0.96582
vt 0.382324 0.668945
vt 0.373779 0.67041
vt 0.375977 0.671387
vt 0.371094 0.671875
vt 0.382568 0.666992
vt 0.396484 0.666992
vt 0.367432 0.66748
vt 0.365723 0.671387
vt 0.88623 0.966797
vt 0.885254 0.973145
vt 0.885742 0.974609
vt 0.88623 0.972656
vt 0.887207 0.974121
vt 0.365967 0.661133
vt 0.375488 0.656738
vt 0.361328 0.658691
vt 0.356934 0.657227
vt 0.352539 0.656738
vt 0.351074 0.632812
vt 0.360596 0.637207
vt 0.365234 0.634766
vt 0.369385 0.633301
vt 0.374023 0.632812
vt 0.105774 0.529785
vt 0.103699 0.53418
vt 0.105774 0.53418
vt 0.10376 0.539062
vt 0.103699 0.529297
vt 0.105774 0.539062
vt 0.105652 0.524902
vt 0.10376 0.543945
vt 0.103577 0.524414
vt 0.105652 0.543945
vt 0.105591 0.52002
vt 0.103577 0.548828
vt 0.103394 0.519531
vt 0.105652 0.515137
vt 0.103271 0.514648
vt 0.105591 0.548828
vt 0.103455 0.553223
vt 0.105469 0.553223
vt 0.103394 0.558105
vt 0.105347 0.558105
vt 0.103271 0.562988
vt 0.105286 0.562988
vt 0.103088 0.567871
vt 0.105164 0.567871
vt 0.102966 0.572754
vt 0.105042 0.572754
vt 0.102844 0.577148
vt 0.10498 0.577148
vt 0.102783 0.582031
vt 0.104797 0.582031
vt 0.102661 0.586914
vt 0.104675 0.586914
vt 0.102783 0.591797
vt 0.104675 0.591309
vt 0.519043 0.678223
vt 0.51709 0.674316
vt 0.513672 0.672852
vt 0.508301 0.66748
vt 0.874512 0.741211
vt 0.877441 0.740723
vt 0.876465 0.736328
vt 0.874023 0.736816
vt 0.879395 0.73584
vt 0.879883 0.740234
vt 0.05127 0.539551
vt 0.05069 0.548828
vt 0.051086 0.553223
vt 0.05069 0.543945
vt 0.05069 0.558105
vt 0.050995 0.562988
vt 0.050476 0.52002
vt 0.050873 0.525391
vt 0.051788 0.529785
vt 0.465576 0.733398
vt 0.378174 0.705566
vt 0.459229 0.73584
vt 0.45459 0.73877
vt 0.443359 0.734863
vt 0.440674 0.736328
vt 0.437988 0.741699
vt 0.436523 0.741211
vt 0.431152 0.743164
vt 0.43457 0.744629
vt 0.373535 0.713867
vt 0.364014 0.702637
vt 0.371094 0.712402
vt 0.369629 0.712891
vt 0.369873 0.700684
vt 0.362793 0.69873
vt 0.368408 0.697754
vt 0.372803 0.699707
vt 0.377441 0.703125
vt 0.385254 0.705078
vt 0.40332 0.709473
vt 0.39624 0.707031
vt 0.410156 0.709961
vt 0.426514 0.713379
vt 0.427246 0.712891
vt 0.443115 0.717285
vt 0.44458 0.716797
vt 0.462402 0.722656
vt 0.45874 0.720703
vt 0.469727 0.722168
vt 0.483398 0.725098
vt 0.484375 0.723145
vt 0.498291 0.721191
vt 0.49707 0.720703
vt 0.504395 0.717285
vt 0.507324 0.716797
vt 0.51123 0.712891
vt 0.515625 0.711914
vt 0.518066 0.708984
vt 0.522461 0.708496
vt 0.521973 0.705566
vt 0.471436 0.731445
vt 0.477783 0.729004
vt 0.48291 0.727539
vt 0.488525 0.726074
vt 0.493652 0.725098
vt 0.500488 0.724121
vt 0.506836 0.722656
vt 0.511719 0.721191
vt 0.515137 0.720215
vt 0.517578 0.719238
vt 0.522461 0.711914
vt 0.521973 0.71875
vt 0.521973 0.710449
vt 0.535156 0.677246
vt 0.535156 0.67041
vt 0.525391 0.676758
vt 0.530273 0.677734
vt 0.529785 0.67041
vt 0.525879 0.669922
vt 0.521484 0.668457
vt 0.524902 0.678223
vt 0.516113 0.666016
vt 0.524414 0.680664
vt 0.51123 0.664062
vt 0.506836 0.660645
vt 0.500977 0.660645
vt 0.501465 0.657715
vt 0.49585 0.655273
vt 0.490234 0.652344
vt 0.481201 0.654785
vt 0.45874 0.654297
vt 0.482666 0.647461
vt 0.476318 0.642578
vt 0.434082 0.65918
vt 0.468994 0.638184
vt 0.402344 0.665039
vt 0.422119 0.662109
vt 0.463867 0.63623
vt 0.447998 0.637695
vt 0.459229 0.633301
vt 0.445557 0.63623
vt 0.442383 0.630371
vt 0.439941 0.630371
vt 0.437988 0.627441
vt 0.434814 0.629395
vt 0.37915 0.657227
vt 0.376465 0.658203
vt 0.84668 0.973145
vt 0.84668 0.970703
vt 0.84375 0.973145
vt 0.84375 0.970703
vt 0.84375 0.976074
vt 0.84668 0.967773
vt 0.84668 0.976074
vt 0.84375 0.967773
vt 0.84375 0.979004
vt 0.84668 0.964844
vt 0.84668 0.979004
vt 0.84375 0.964844
vt 0.84375 0.981934
vt 0.84668 0.962402
vt 0.84668 0.981934
vt 0.84375 0.962402
vt 0.84375 0.984375
vt 0.84668 0.959473
vt 0.84668 0.984375
vt 0.84375 0.959473
vt 0.84375 0.987305
vt 0.84668 0.957031
vt 0.84668 0.987305
vt 0.84375 0.989746
vt 0.84668 0.989746
vt 0.84375 0.957031
vt 0.84668 0.954102
vt 0.84375 0.954102
vt 0.84668 0.951172
vt 0.84375 0.951172
vt 0.84668 0.94873
vt 0.84375 0.94873
vt 0.84668 0.945801
vt 0.84375 0.945801
vt 0.84668 0.942871
vt 0.84375 0.942871
vt 0.84668 0.939941
vt 0.84375 0.939941
vt 0.84668 0.9375
vt 0.84375 0.9375
vt 0.84668 0.935059
vt 0.84375 0.93457
vn -1 -0.0039 -0.001
vn 0.7017 -0.6894 0.1797
vn 0.8124 -0.583 0.0014
vn 0.8179 -0.5753 -0.0014
vn 0.7921 -0.6103 0.0069
vn 0.8322 0.5544 0.0068
vn 0.8072 0.5903 -0.0069
vn 0.8026 0.5965 -0.0069
vn 0.8376 0.5462 0.0095
vn 0.9222 0.3868 -0.0013
vn 0.9801 0.1983 -0.0012
vn 0.9799 0.1997 0.0012
vn 1 0.0029 0.001
vn 1 0.0039 -0.001
vn 1 0.0049 0.001
vn 0.9843 -0.1617 -0.0701
vn 0.9929 -0.0806 0.0874
vn 0.9914 -0.1303 -0.0077
vn 0.988 -0.0474 0.1468
vn 0.9817 -0.1904 -0.0011
vn 0.8854 -0.0338 0.4636
vn 0.8517 -0.0095 0.524
vn 0.9211 0.0355 0.3876
vn 0.9325 0.043 0.3586
vn 0.893 -0.0364 0.4485
vn -0.7823 0.6228 0.0014
vn -0.8054 0.591 0.0465
vn -0.7978 0.6022 0.0293
vn -0.8162 0.5732 0.0729
vn 0.9835 -0.0127 0.1806
vn 0.9785 0.0176 0.2056
vn 0.836 -0.0014 0.5487
vn 0.9241 -0.0408 0.3799
vn 0.8218 0.0698 0.5654
vn 0.7059 0.0862 0.703
vn 0.7099 0.0014 0.7043
vn 0.7063 -0.0801 0.7034
vn -0.8179 -0.5562 -0.1472
vn -0.7994 -0.5923 -0.1007
vn -0.8061 -0.5796 -0.1192
vn -0.79 -0.6083 -0.0764
vn 0.9044 0.3693 -0.2137
vn 0.8681 0.2996 -0.3958
vn 0.9167 0.3094 -0.253
vn 0.9245 0.1416 -0.354
vn 0.9025 0.3755 -0.2111
vn 0.9223 0.3611 -0.1375
vn 0.9692 0.0024 -0.2465
vn 0.91 0.0052 -0.4147
vn -0.8158 0.4231 0.3943
vn -0.8159 0.1095 0.5678
vn -0.8165 -0.2463 0.5221
vn -0.8158 -0.5058 0.2803
vn -1 -0.0029 0.001
vn 0.7034 0.3623 0.6115
vn 0.96 0.1814 0.2132
vn 0.7223 0.5164 0.46
vn 0.9331 0.2745 0.2322
vn 0.9248 0.0051 -0.3804
vn 0.9237 0.0038 0.3831
vn -1 -0.0049 0.001
vn 0.9683 -0.2197 -0.1188
vn 0.9559 -0.1598 -0.2463
vn 0.9182 -0.1248 -0.3759
vn 0.9328 -0.2705 -0.2381
vn 0.9006 -0.3667 -0.2332
vn 0.9351 -0.3299 -0.1295
vn 0.8737 -0.4658 -0.1403
vn 0.9277 -0.3496 -0.1308
vn 0.9322 -0.3526 -0.0815
vn 0.9159 -0.396 -0.066
vn 0.9162 -0.3965 -0.0576
vn 0.9103 -0.4128 -0.0304
vn 0.9165 -0.3998 -0.0117
vn 0.8833 -0.4679 0.0283
vn 0.9044 -0.4267 0.0039
vn 0.9283 -0.369 0.046
vn 0.9146 -0.3985 0.0689
vn 0.9155 -0.3947 0.0773
vn 0.9096 -0.3845 0.1575
vn 0.9255 -0.3639 0.105
vn 0.7292 -0.5856 0.354
vn 0.8867 -0.3676 0.2806
vn 0.9249 -0.2673 0.2702
vn 0.8728 -0.2808 0.3992
vn 0.9166 -0.1714 0.3612
vn 0.885 -0.1516 0.4403
vn 0.8723 -0.1529 0.4645
vn 1 0.0079 -0.001
vn 1 0.002 -0.001
vn 0.9993 0.0133 0.0338
vn 0.9927 0.0507 0.1093
vn 1 0.0069 0.0049
vn 0.9998 0.017 0.007
vn 0.9661 0.2494 0.0664
vn 0.9731 0.2279 0.0326
vn 0.9661 0.258 0.0036
vn 0.9669 0.2528 -0.0356
vn 0.9682 0.2383 -0.0765
vn 0.8959 0.4355 -0.0874
vn 0.9999 0.016 -0.005
vn -1 0 -0.001
o weapon_offset__c2
f 1/1/1 2/2/1 3/3/1
f 4/4/2 5/5/3 6/6/4
f 5/5/3 4/4/2 7/7/5
f 8/8/6 9/9/7 10/10/8
f 9/9/7 8/8/6 11/11/9
f 12/12/10 13/13/10 14/14/11
f 12/12/10 14/14/11 15/15/12
f 16/16/13 17/17/13 18/18/14
f 16/16/13 18/18/14 19/19/15
f 16/16/13 19/19/15 20/20/15
f 21/21/14 22/22/14 23/23/14
f 23/23/14 22/22/14 24/24/13
f 24/24/13 22/22/14 25/25/13
f 26/26/16 27/27/17 28/28/18
f 28/28/18 27/27/17 29/29/19
f 30/30/11 31/31/11 32/30/11
f 32/30/11 31/31/11 33/32/11
f 34/33/20 30/30/20 35/34/20
f 35/34/20 30/30/20 32/30/20
f 6/6/21 36/35/22 9/9/23
f 9/9/23 36/35/22 37/36/24
f 36/35/22 6/6/21 38/37/25
f 39/38/26 40/39/27 41/40/28
f 41/40/28 40/39/27 42/41/29
f 4/4/30 9/9/13 11/11/31
f 9/9/13 4/4/30 6/6/13
f 4/4/30 11/11/31 43/42/32
f 4/4/30 43/42/32 44/43/33
f 43/42/32 11/11/31 45/44/34
f 43/42/32 45/44/34 46/45/35
f 43/42/32 46/45/35 47/46/36
f 43/42/32 47/46/36 44/43/37
f 44/43/37 47/46/36 48/47/37
f 49/38/38 50/39/39 51/40/40
f 51/40/40 50/39/39 52/48/41
f 53/49/42 54/50/43 55/51/44
f 55/51/44 54/50/43 56/52/45
f 54/50/43 53/49/42 57/53/46
f 57/53/46 53/49/42 58/54/47
f 56/52/45 59/55/48 60/56/49
f 59/55/48 56/52/45 54/50/43
f 61/38/50 62/57/50 63/40/50
f 63/40/50 62/57/50 64/41/50
f 65/58/51 66/59/51 67/60/51
f 67/60/51 66/59/51 68/61/51
f 69/58/52 70/59/52 71/60/52
f 71/60/52 70/59/52 72/61/52
f 73/38/53 74/39/53 75/40/53
f 75/40/53 74/39/53 76/48/53
f 77/62/14 78/63/14 79/64/14
f 79/64/14 78/63/14 80/65/13
f 80/65/13 78/63/14 81/66/13
f 82/67/14 83/68/14 84/69/14
f 82/67/14 84/69/14 85/70/13
f 82/67/14 85/70/13 86/71/13
f 87/72/1 88/73/1 89/74/1
f 89/74/1 88/73/1 90/75/1
f 88/73/1 87/72/1 91/76/1
f 89/74/1 90/75/1 92/77/1
f 91/76/1 87/72/1 93/78/1
f 92/77/1 90/75/1 94/79/1
f 91/76/1 93/78/1 95/80/54
f 92/77/1 94/79/1 96/81/1
f 95/80/54 93/78/1 97/82/54
f 96/81/1 94/79/1 98/83/1
f 95/80/54 97/82/54 99/84/54
f 99/84/54 97/82/54 100/85/1
f 99/84/54 100/85/1 101/86/1
f 96/81/1 98/83/1 102/87/1
f 102/87/1 98/83/1 103/88/1
f 102/87/1 103/88/1 104/89/1
f 104/89/1 103/88/1 105/90/1
f 104/89/1 105/90/1 106/91/1
f 106/91/1 105/90/1 107/92/1
f 106/91/1 107/92/1 108/93/1
f 108/93/1 107/92/1 109/94/1
f 108/93/1 109/94/1 110/95/1
f 110/95/1 109/94/1 111/96/1
f 110/95/1 111/96/1 112/97/1
f 112/97/1 111/96/1 113/98/1
f 112/97/1 113/98/1 114/99/1
f 114/99/1 113/98/1 115/100/1
f 114/99/1 115/100/1 116/101/54
f 116/101/54 115/100/1 117/102/54
f 116/101/54 117/102/54 118/103/54
f 118/103/54 117/102/54 101/104/1
f 118/103/54 101/104/1 100/105/1
f 119/106/55 120/107/56 121/108/57
f 121/108/57 120/107/56 122/109/58
f 123/110/59 124/111/59 125/112/59
f 123/110/59 125/112/59 126/113/59
f 125/112/60 124/111/60 127/114/60
f 127/114/60 124/111/60 128/115/60
f 129/116/54 130/117/1 131/118/1
f 130/117/1 129/116/54 132/119/54
f 131/118/61 133/120/61 134/121/61
f 135/122/61 136/123/61 137/124/61
f 138/125/14 139/126/62 140/127/13
f 141/128/14 140/127/13 142/129/14
f 142/129/14 140/127/13 139/126/62
f 142/129/14 139/126/62 143/130/14
f 144/131/13 143/130/14 145/132/13
f 145/132/13 143/130/14 139/126/62
f 124/133/14 146/134/14 145/132/13
f 124/133/14 145/132/13 139/126/62
f 124/133/14 139/126/62 147/135/14
f 59/136/48 148/137/14 147/135/14
f 148/137/14 59/136/48 149/138/14
f 59/136/48 147/135/14 150/139/63
f 150/139/63 147/135/14 139/126/62
f 59/136/48 150/139/63 60/140/49
f 60/140/49 150/139/63 151/141/64
f 151/141/64 150/139/63 152/142/65
f 152/142/65 150/139/63 139/126/62
f 152/142/65 139/126/62 153/143/66
f 153/143/66 139/126/62 154/144/67
f 154/144/67 139/126/62 155/145/68
f 154/144/67 155/145/68 156/146/69
f 156/146/69 155/145/68 157/147/70
f 157/147/70 155/145/68 158/148/71
f 157/147/70 158/148/71 159/149/72
f 159/149/72 158/148/71 160/150/73
f 159/149/72 160/150/73 161/151/74
f 161/151/74 160/150/73 162/152/75
f 161/151/74 162/152/75 163/153/76
f 163/153/76 162/152/75 164/154/77
f 164/154/77 162/152/75 165/155/78
f 164/154/77 165/155/78 166/156/79
f 166/156/79 165/155/78 167/157/80
f 166/156/79 167/157/80 168/158/81
f 168/158/81 167/157/80 169/159/82
f 169/159/82 167/157/80 170/160/83
f 169/159/82 170/160/83 171/161/84
f 171/161/84 170/160/83 172/162/85
f 171/161/84 172/162/85 173/163/86
f 173/163/86 172/162/85 174/164/87
f 173/163/86 174/164/87 175/165/88
f 158/148/13 162/152/14 160/150/89
f 162/152/14 158/148/13 155/145/14
f 162/152/14 155/145/14 138/125/14
f 162/152/14 138/125/14 176/166/14
f 162/152/14 176/166/14 177/167/13
f 138/125/14 155/145/14 139/126/62
f 162/152/14 177/167/13 165/155/13
f 165/155/13 177/167/13 178/168/13
f 165/155/13 178/168/13 179/169/90
f 165/155/13 179/169/90 180/170/13
f 165/155/13 180/170/13 167/157/13
f 167/157/13 180/170/13 181/171/13
f 167/157/13 181/171/13 170/160/14
f 170/160/14 181/171/13 182/172/14
f 170/160/14 182/172/14 172/162/13
f 172/162/13 182/172/14 183/173/14
f 172/162/13 183/173/14 184/174/13
f 172/162/13 184/174/13 185/175/14
f 172/162/13 185/175/14 186/176/14
f 186/176/14 185/175/14 187/177/14
f 172/162/13 186/176/14 188/178/14
f 172/162/13 188/178/14 174/164/13
f 186/179/14 187/180/14 189/181/13
f 186/179/14 189/181/13 190/182/15
f 189/181/13 187/180/14 191/183/13
f 189/181/13 191/183/13 192/184/13
f 189/181/13 192/184/13 120/107/56
f 120/107/56 192/184/13 193/185/14
f 189/181/13 120/107/56 194/186/91
f 120/107/56 193/185/14 195/187/14
f 194/186/91 120/107/56 196/188/92
f 196/188/92 120/107/56 119/106/55
f 120/107/56 195/187/14 197/189/90
f 120/107/56 197/189/90 198/190/93
f 120/107/56 198/190/93 122/109/94
f 122/109/94 198/190/93 199/191/95
f 199/191/95 198/190/93 200/192/13
f 199/191/95 200/192/13 201/193/14
f 199/191/95 201/193/14 202/194/13
f 199/191/95 202/194/13 203/195/96
f 203/195/96 202/194/13 204/196/97
f 204/196/97 202/194/13 205/197/14
f 204/196/97 205/197/14 206/198/13
f 204/196/97 206/198/13 207/199/98
f 207/199/98 206/198/13 208/200/14
f 209/201/99 210/202/100 207/199/98
f 209/201/99 207/199/98 57/53/101
f 57/53/101 207/199/98 208/200/14
f 57/53/101 208/200/14 211/203/13
f 212/204/14 211/203/13 213/205/14
f 211/203/13 212/204/14 57/53/101
f 57/53/101 212/204/14 214/206/14
f 57/53/101 214/206/14 215/207/13
f 57/53/101 215/207/13 216/208/13
f 217/209/14 125/210/14 216/208/13
f 216/208/13 125/210/14 218/211/14
f 216/208/13 218/211/14 57/53/101
f 57/53/101 218/211/14 59/55/48
f 59/55/48 218/211/14 149/212/14
f 57/53/101 59/55/48 54/50/13
f 219/213/102 220/214/102 221/215/102
f 221/215/102 220/214/102 222/216/102
f 219/213/102 221/215/102 223/217/102
f 222/216/102 220/214/102 224/218/102
f 219/213/102 223/217/102 225/219/102
f 222/216/102 224/218/102 226/220/102
f 225/219/102 223/217/102 227/221/102
f 226/220/102 224/218/102 228/222/102
f 225/219/102 227/221/102 229/223/102
f 226/220/102 228/222/102 230/224/102
f 229/223/102 227/221/102 231/225/102
f 230/224/102 228/222/102 232/226/102
f 229/223/102 231/225/102 233/227/102
f 230/224/102 232/226/102 234/228/102
f 233/227/102 231/225/102 235/229/102
f 234/228/102 232/226/102 236/230/102
f 233/227/102 235/229/102 237/231/102
f 234/228/102 236/230/102 238/232/102
f 237/231/102 235/229/102 239/233/102
f 238/232/102 236/230/102 240/234/102
f 237/231/102 239/233/102 241/235/102
f 241/235/102 239/233/102 242/236/102
f 241/235/102 242/236/102 243/237/102
f 238/232/102 240/234/102 244/238/102
f 244/238/102 240/234/102 245/239/102
f 244/238/102 245/239/102 246/240/102
f 246/240/102 245/239/102 247/241/102
f 246/240/102 247/241/102 248/242/102
f 248/242/102 247/241/102 249/243/102
f 248/242/102 249/243/102 250/244/102
f 250/244/102 249/243/102 251/245/102
f 250/244/102 251/245/102 252/246/102
f 252/246/102 251/245/102 253/247/102
f 252/246/102 253/247/102 254/248/102
f 254/248/102 253/247/102 255/249/102
f 254/248/102 255/249/102 256/250/102
f 256/250/102 255/249/102 257/251/102
f 256/250/102 257/251/102 258/252/102
f 258/252/102 257/251/102 243/253/102
f 258/252/102 243/253/102 242/254/102
