# CS2 body mesh, tools/cs2_glb_to_obj.py
v 0.01993 -0.16033 0.02106
v -0.01626 -0.15818 0.0288
v -0.01626 -0.16033 0.02106
v -0.01471 -0.15775 0.03034
v -0.01471 -0.15746 0.03141
v 0.02168 -0.15986 0.02275
v 0.02168 -0.15818 0.0288
v 0.02013 -0.15775 0.03034
v 0.02013 -0.15746 0.03141
v -0.01626 -0.15703 0.03296
v -0.01626 -0.15142 0.05314
v -0.01467 -0.15093 0.05488
v 0.02168 -0.15703 0.03296
v 0.02009 -0.15093 0.05488
v 0.02168 -0.15142 0.05314
v 0.02009 -0.15059 0.0561
v -0.01467 -0.15059 0.0561
v 0.02168 -0.15011 0.05784
v 0.02168 -0.1462 0.0719
v 0.01916 -0.1453 0.07513
v -0.01626 -0.15011 0.05784
v -0.01626 -0.1462 0.0719
v -0.01373 -0.1453 0.07513
v 0.01916 -0.14384 0.0804
v -0.01373 -0.14384 0.0804
v 0.02168 -0.14297 0.08351
v -0.01626 -0.14297 0.08351
v -0.01626 -0.13775 0.10229
v 0.02168 -0.13775 0.10229
v 0.01993 -0.15865 0.02059
v -0.01626 -0.15865 0.02059
v 0.02168 -0.15818 0.02228
v -0.01471 -0.15577 0.03095
v -0.01626 -0.15535 0.03249
v 0.0154 0.06297 0.07448
v 0.018 0.06442 0.07286
v 0.0162 0.06412 0.07382
v 0.02168 -0.15535 0.03249
v 0.02013 -0.15577 0.03095
v -0.00822 0.06297 0.07448
v -0.00897 0.06412 0.07382
v -0.01258 0.06442 0.07286
v -0.01428 0.06297 0.07448
v -0.00822 0.06113 0.07533
v -0.01513 0.06113 0.07533
v -0.00822 0.05768 0.07533
v -0.01513 0.0036 0.07533
v 0.02055 0.0036 0.07533
v 0.0154 0.05768 0.07533
v 0.02055 -0.01251 0.07573
v 0.02055 0.06113 0.07533
v -0.01513 -0.01251 0.07573
v 0.0154 0.06113 0.07533
v -0.01513 -0.02857 0.07691
v 0.0197 0.06297 0.07448
v 0.02055 -0.02857 0.07691
v -0.01513 -0.05038 0.07856
v 0.02055 -0.05038 0.07856
v 0.02055 -0.07278 0.082
v -0.01513 -0.07278 0.082
v 0.02055 -0.09356 0.08716
v -0.01513 -0.09356 0.08716
v -0.01513 -0.11461 0.09351
v 0.02055 -0.11461 0.09351
v 0.02055 -0.13638 0.10073
v -0.01513 -0.13638 0.10073
v -0.0037 0.06076 0.0564
v -0.00363 0.06118 0.05594
v -0.00658 0.06066 0.05594
v -0.00636 0.06029 0.0564
v -0.0085 0.05836 0.05594
v -0.0081 0.05822 0.0564
v -0.0085 0.05537 0.05594
v -0.0081 0.05552 0.0564
v -0.00658 0.05308 0.05594
v -0.00636 0.05345 0.0564
v -0.00363 0.05256 0.05594
v -0.0037 0.05298 0.0564
v -0.01002 0.06442 -0.00408
v -0.01258 0.06442 -0.00408
v -0.01009 0.06512 -0.00202
v -0.01002 0.06297 -0.00586
v -0.01428 0.06297 -0.00586
v -0.01513 0.06113 -0.00671
v -0.01002 0.05915 -0.00671
v -0.00885 0.0545 -0.00671
v -0.01513 0.0036 -0.00671
v -0.0059 0.05234 -0.00671
v 0.01946 0.0036 -0.00671
v 0.01023 0.05234 -0.00671
v 0.01357 0.05468 -0.00671
v 0.01946 -0.01653 -0.00621
v 0.01946 0.06113 -0.00671
v -0.01513 -0.01653 -0.00621
v 0.01462 0.05915 -0.00671
v 0.01946 -0.03661 -0.00473
v 0.0149 0.06297 -0.00586
v -0.01513 -0.03661 -0.00473
v 0.01911 0.06297 -0.00586
v 0.01946 -0.06211 -0.00259
v 0.018 0.06442 -0.00408
v 0.0149 0.06442 -0.00408
v 0.01489 0.0653 -0.0015
v -0.01513 -0.06211 -0.00259
v -0.01513 -0.0869 0.00143
v 0.01946 -0.0869 0.00143
v -0.01513 -0.1116 0.00751
v 0.01946 -0.1116 0.00751
v 0.01946 -0.13267 0.01376
v -0.01513 -0.13267 0.01376
v -0.01513 -0.15834 0.02168
v 0.01946 -0.15834 0.02168
v 0.01209 0.04689 0.05594
v 0.00942 0.04581 0.0564
v 0.0095 0.04539 0.05594
v 0.01177 0.04716 0.0564
v 0.01312 0.0497 0.05594
v 0.01269 0.0497 0.0564
v 0.01209 0.05251 0.05594
v 0.01177 0.05224 0.0564
v 0.0095 0.05401 0.05594
v 0.00942 0.05359 0.0564
v -0.01467 -0.14891 0.05563
v -0.01626 -0.14843 0.05737
v 0.02168 -0.14843 0.05737
v 0.02009 -0.14891 0.05563
v 0.01898 0.05116 0.01888
v 0.02055 0.05116 0.02503
v 0.01896 0.05116 0.02683
v 0.02055 0.05116 0.00496
v 0.01899 0.05116 0.01111
v 0.01901 0.05116 0.00337
v 0.00655 0.05349 0.05594
v 0.00676 0.05312 0.0564
v 0.00463 0.05119 0.05594
v 0.00503 0.05105 0.0564
v 0.00463 0.0482 0.05594
v 0.00503 0.04835 0.0564
v 0.00655 0.04591 0.05594
v 0.00676 0.04628 0.0564
v -0.00363 0.06118 0.04959
v -0.00317 0.06377 0.04548
v -0.00789 0.06294 0.04548
v -0.00658 0.06066 0.04959
v -0.01097 0.05927 0.04548
v -0.0085 0.05836 0.04959
v -0.01097 0.05447 0.04548
v -0.0085 0.05537 0.04959
v -0.00789 0.0508 0.04548
v -0.00658 0.05308 0.04959
v -0.00317 0.04996 0.04548
v -0.00363 0.05256 0.04959
v -0.00103 0.05405 0.05594
v -0.00136 0.05433 0.0564
v -0.00001 0.05687 0.05594
v -0.00043 0.05687 0.0564
v -0.00103 0.05968 0.05594
v -0.00136 0.05941 0.0564
v 0.01411 0.04519 0.04548
v 0.0095 0.04539 0.04959
v 0.00996 0.04279 0.04548
v 0.01209 0.04689 0.04959
v 0.01576 0.0497 0.04548
v 0.01312 0.0497 0.04959
v 0.01411 0.05421 0.04548
v 0.01209 0.05251 0.04959
v 0.00996 0.05661 0.04548
v 0.0095 0.05401 0.04959
v -0.00632 0.06022 0.05902
v -0.00618 0.05998 0.06172
v -0.00376 0.06041 0.06172
v -0.00372 0.06068 0.05902
v -0.00802 0.05819 0.05902
v -0.00776 0.0581 0.06172
v -0.00802 0.05555 0.05902
v -0.00776 0.05564 0.06172
v -0.00632 0.05352 0.05902
v -0.00372 0.05306 0.05902
v -0.00376 0.05333 0.06172
v -0.00618 0.05376 0.06172
v -0.00732 0.0558 0.0644
v -0.00595 0.05417 0.0644
v -0.00385 0.0538 0.0644
v -0.00561 0.05475 0.06703
v -0.00396 0.05446 0.06703
v -0.00412 0.05536 0.06959
v -0.00515 0.05555 0.06959
v -0.00439 0.05687 0.07173
v -0.00668 0.05603 0.06703
v -0.00668 0.0577 0.06703
v -0.00582 0.05635 0.06959
v -0.00582 0.05739 0.06959
v -0.00515 0.05819 0.06959
v -0.00412 0.05837 0.06959
v -0.00396 0.05927 0.06703
v -0.00561 0.05898 0.06703
v -0.00385 0.05994 0.0644
v -0.00595 0.05957 0.0644
v -0.00732 0.05794 0.0644
v 0.0161 0.0497 -0.00176
v 0.01002 0.05695 -0.00176
v 0.01438 0.05443 -0.00176
v 0.01438 0.04497 -0.00176
v 0.01002 0.04245 -0.00176
v 0.00506 0.04333 -0.00176
v 0.00183 0.04718 -0.00176
v 0.00183 0.05222 -0.00176
v 0.00506 0.05607 -0.00176
v 0.00298 0.05687 -0.00176
v -0.00311 0.06412 -0.00176
v 0.00125 0.0616 -0.00176
v 0.00125 0.05213 -0.00176
v -0.00311 0.04962 -0.00176
v -0.00807 0.0505 -0.00176
v -0.0113 0.05435 -0.00176
v -0.0113 0.05938 -0.00176
v -0.00807 0.06324 -0.00176
v -0.00789 0.0508 0.00238
v -0.00337 0.05112 0.00175
v -0.00317 0.04996 0.00238
v -0.0073 0.05182 0.00175
v -0.01097 0.05447 0.00238
v -0.00987 0.05487 0.00175
v -0.01097 0.05927 0.00238
v -0.00987 0.05886 0.00175
v -0.00789 0.06294 0.00238
v -0.0073 0.06192 0.00175
v -0.00317 0.06377 0.00238
v -0.00337 0.06261 0.00175
v -0.01626 -0.13607 0.10182
v 0.02168 -0.13607 0.10182
v -0.01626 -0.1565 0.02833
v -0.01626 -0.14973 0.05267
v -0.01626 -0.14452 0.07143
v -0.01626 -0.14129 0.08304
v 0.0197 0.06297 -0.00526
v 0.0197 0.06297 -0.00061
v 0.018 0.06442 -0.00122
v 0.02055 0.06113 -0.00027
v 0.02055 0.06113 -0.00562
v 0.02055 0.0036 -0.00562
v 0.02055 0.0036 -0.00027
v 0.02055 -0.01622 0.00022
v 0.02055 -0.01648 -0.00512
v 0.02055 -0.03598 0.00168
v 0.02055 -0.0365 -0.00365
v 0.02055 -0.06195 -0.00151
v 0.02055 -0.06116 0.00378
v 0.02055 -0.08674 0.00251
v 0.02055 -0.08582 0.00778
v 0.02055 -0.11135 0.00857
v 0.02055 -0.11018 0.01379
v 0.02055 -0.13245 0.01483
v 0.02055 -0.15805 0.02273
v 0.02055 -0.13127 0.02005
v 0.02055 -0.15662 0.02789
v 0.00975 0.05545 0.00175
v 0.00996 0.05661 0.00238
v 0.01411 0.05421 0.00238
v 0.01321 0.05345 0.00175
v 0.01576 0.0497 0.00238
v 0.01458 0.0497 0.00175
v 0.01411 0.04519 0.00238
v 0.01321 0.04595 0.00175
v 0.00996 0.04279 0.00238
v 0.00975 0.04395 0.00175
v -0.01471 -0.15607 0.02987
v -0.01467 -0.14925 0.05442
v 0.00523 0.05577 0.04548
v 0.00655 0.05349 0.04959
v 0.00215 0.0521 0.04548
v 0.00463 0.05119 0.04959
v 0.00215 0.0473 0.04548
v 0.00463 0.0482 0.04959
v 0.00523 0.04363 0.04548
v 0.00655 0.04591 0.04959
v -0.01428 0.06297 0.04426
v -0.01258 0.06442 0.04377
v -0.01258 0.06442 0.0318
v -0.01428 0.06297 0.03108
v -0.01513 0.06113 0.04455
v -0.01513 0.06113 0.03076
v -0.01513 0.0036 0.04455
v -0.01513 0.0036 0.03076
v -0.01513 -0.01469 0.03121
v -0.01513 -0.01402 0.04498
v -0.01513 -0.03294 0.03256
v -0.01513 -0.03159 0.04628
v -0.01513 -0.0549 0.04811
v -0.01513 -0.05692 0.03447
v -0.01513 -0.07811 0.05165
v -0.01513 -0.08048 0.03806
v -0.01513 -0.10335 0.04403
v -0.01513 -0.10032 0.05747
v -0.01513 -0.12444 0.05033
v -0.01513 -0.12141 0.06379
v -0.01513 -0.14831 0.05778
v -0.01513 -0.14462 0.07107
v -0.01373 -0.14362 0.07466
v -0.01373 -0.14216 0.07994
v 0.02168 -0.14129 0.08304
v 0.02168 -0.14452 0.07143
v 0.02168 -0.14973 0.05267
v 0.02168 -0.1565 0.02833
v -0.0126 0.06113 0.05414
v -0.01251 0.06297 0.05444
v -0.01251 0.06297 0.04761
v -0.01258 0.06442 0.05832
v -0.01428 0.06297 0.05766
v -0.01513 0.06113 0.05737
v -0.01513 0.0036 0.05737
v -0.0126 0.06113 0.0479
v -0.0126 0.0036 0.05414
v -0.0126 0.0036 0.0479
v -0.0126 -0.01385 0.04833
v -0.0126 -0.01355 0.05456
v -0.01513 -0.01339 0.05778
v -0.0126 -0.03126 0.04961
v -0.0126 -0.03065 0.05583
v -0.01513 -0.03033 0.05903
v -0.01513 -0.05302 0.06079
v -0.0126 -0.05349 0.0576
v -0.01513 -0.0759 0.06429
v -0.0126 -0.05441 0.05142
v -0.0126 -0.07646 0.06111
v -0.0126 -0.07753 0.05495
v -0.0126 -0.09958 0.06074
v -0.0126 -0.09821 0.06682
v -0.01513 -0.0975 0.06997
v -0.0126 -0.12067 0.06706
v -0.0126 -0.14372 0.07429
v -0.0126 -0.11929 0.07315
v -0.01513 -0.11859 0.0763
v -0.0126 -0.14205 0.08031
v -0.01513 -0.14119 0.08342
v -0.01275 0.06297 0.00097
v -0.01258 0.06442 -0.00122
v -0.01428 0.06297 -0.00061
v -0.0136 0.06113 0.00131
v -0.01513 0.06113 -0.00027
v -0.01358 0.0036 0.00133
v -0.01513 0.0036 -0.00027
v -0.01513 -0.01622 0.00022
v -0.0136 0.06113 0.00338
v -0.01358 0.0036 0.00336
v -0.01358 -0.01614 0.00182
v -0.01513 -0.03598 0.00168
v -0.01358 -0.01604 0.00384
v -0.01513 0.0036 0.00496
v -0.01513 0.06113 0.00496
v -0.01513 -0.01596 0.00544
v -0.01428 0.06297 0.00531
v -0.01358 -0.03562 0.00529
v -0.01513 -0.03547 0.00688
v -0.01513 -0.06039 0.00895
v -0.01275 0.06297 0.00373
v -0.01258 0.06442 0.00607
v -0.01358 -0.06063 0.00737
v -0.01513 -0.08492 0.01294
v -0.01358 -0.03582 0.00327
v -0.01358 -0.06093 0.00536
v -0.01513 -0.06116 0.00378
v -0.01358 -0.08519 0.01136
v -0.01358 -0.08554 0.00936
v -0.01513 -0.08582 0.00778
v -0.01513 -0.11018 0.01379
v -0.01358 -0.10982 0.01535
v -0.01513 -0.13127 0.02005
v -0.01358 -0.10938 0.01733
v -0.01513 -0.10902 0.01889
v -0.01358 -0.13092 0.02161
v -0.01513 -0.15662 0.02789
v -0.01358 -0.15619 0.02943
v -0.01358 -0.13047 0.02359
v -0.01513 -0.13012 0.02516
v -0.01358 -0.15565 0.03138
v -0.01513 -0.15522 0.03293
v -0.01353 -0.14879 0.05604
v -0.01353 -0.12484 0.04857
v -0.01353 -0.14936 0.054
v -0.01353 -0.10375 0.04227
v -0.01353 -0.1253 0.0465
v -0.01513 -0.14984 0.05226
v -0.01513 -0.12571 0.04474
v -0.01353 -0.10422 0.04021
v -0.01513 -0.10461 0.03844
v -0.01353 -0.08079 0.03628
v -0.01353 -0.08115 0.03419
v -0.01513 -0.08147 0.03241
v -0.01513 -0.05776 0.0288
v -0.01353 -0.0575 0.03059
v -0.01513 -0.0335 0.02685
v -0.01353 -0.05719 0.03268
v -0.01353 -0.03332 0.02865
v -0.01353 -0.03312 0.03076
v -0.01353 -0.01489 0.02729
v -0.01513 -0.01498 0.02548
v -0.01353 -0.01478 0.0294
v -0.01353 0.0036 0.02684
v -0.01513 0.0036 0.02503
v -0.01513 0.06113 0.02503
v -0.01353 0.0036 0.02895
v -0.01355 0.06113 0.02682
v -0.01428 0.06297 0.02471
v -0.01355 0.06113 0.02897
v -0.01343 0.06297 0.02649
v -0.01258 0.06442 0.02414
v -0.01343 0.06297 0.02929
v -0.01079 0.06412 0.05989
v 0.00523 0.04363 0.00238
v 0.00582 0.04465 0.00175
v 0.00215 0.0473 0.00238
v 0.00326 0.0477 0.00175
v 0.00215 0.0521 0.00238
v 0.00326 0.05169 0.00175
v 0.00523 0.05577 0.00238
v 0.00582 0.05475 0.00175
v 0.02055 0.0036 0.02001
v 0.02055 0.02904 0.015
v 0.02055 0.03017 0.01787
v 0.02055 0.03312 0.02001
v 0.02055 0.04175 0.02503
v 0.02055 0.04175 0.02001
v 0.02055 0.0036 0.02503
v 0.02055 -0.01498 0.02548
v 0.02055 0.0036 0.00998
v 0.02055 0.03018 0.01209
v 0.02055 0.03312 0.00998
v 0.02055 0.0036 0.00496
v 0.02055 0.04175 0.00998
v 0.02055 0.04175 0.00496
v 0.02055 -0.01596 0.00544
v 0.02055 -0.0335 0.02685
v 0.02055 -0.03547 0.00688
v 0.02055 -0.05776 0.0288
v 0.02055 -0.06039 0.00895
v 0.02055 -0.08492 0.01294
v 0.02055 -0.08147 0.03241
v 0.02055 -0.10902 0.01889
v 0.02055 -0.10461 0.03844
v 0.02055 -0.13012 0.02516
v 0.02055 -0.12571 0.04474
v 0.02055 -0.15522 0.03293
v 0.02055 -0.14984 0.05226
v 0.00941 0.05351 0.05902
v 0.0117 0.05219 0.05902
v 0.01149 0.05201 0.06172
v 0.00936 0.05324 0.06172
v 0.01261 0.0497 0.05902
v 0.00928 0.05277 0.0644
v 0.01113 0.05171 0.0644
v 0.01061 0.05127 0.06703
v 0.00916 0.0521 0.06703
v 0.01233 0.0497 0.06172
v 0.009 0.0512 0.06959
v 0.01186 0.0497 0.0644
v 0.0117 0.04721 0.05902
v 0.01149 0.04739 0.06172
v 0.00941 0.04589 0.05902
v 0.00936 0.04616 0.06172
v 0.00928 0.04663 0.0644
v 0.01113 0.04769 0.0644
v 0.00916 0.04729 0.06703
v 0.01118 0.0497 0.06703
v 0.01061 0.04813 0.06703
v 0.00991 0.04872 0.06959
v 0.009 0.04819 0.06959
v 0.00874 0.0497 0.07173
v 0.01027 0.0497 0.06959
v 0.00991 0.05068 0.06959
v -0.01003 0.06514 0.00607
v 0.02009 -0.14925 0.05442
v 0.02013 -0.15607 0.02987
v -0.00815 0.06531 -0.0004
v -0.00815 0.06531 0.00607
v -0.00815 0.06531 0.02244
v -0.00988 0.06518 0.02311
v 0.02055 -0.14119 0.08342
v 0.02055 -0.11859 0.0763
v 0.02055 -0.0975 0.06997
v 0.02055 -0.0759 0.06429
v 0.02055 -0.05302 0.06079
v 0.02055 -0.03033 0.05903
v 0.02055 -0.01339 0.05778
v 0.02055 0.0036 0.05737
v 0.02055 0.06113 0.05737
v 0.0197 0.06297 0.05766
v 0.018 0.06442 0.06893
v 0.018 0.06442 0.05832
v 0.02055 -0.12141 0.06379
v 0.02055 -0.14462 0.07107
v 0.02055 -0.14831 0.05778
v 0.02055 -0.12444 0.05033
v 0.02055 -0.10032 0.05747
v 0.02055 -0.10335 0.04403
v 0.02055 -0.07811 0.05165
v 0.02055 -0.08048 0.03806
v 0.02055 -0.05692 0.03447
v 0.02055 -0.0549 0.04811
v 0.02055 -0.03294 0.03256
v 0.02055 -0.03159 0.04628
v 0.02055 -0.01469 0.03121
v 0.02055 -0.01402 0.04498
v 0.02055 0.0036 0.03076
v 0.02055 0.0036 0.04455
v 0.02055 0.06113 0.04455
v 0.02055 0.06113 0.03076
v 0.0197 0.06297 0.03108
v 0.0197 0.06297 0.04426
v 0.018 0.06442 0.0318
v 0.018 0.06442 0.04377
v 0.01916 -0.14216 0.07994
v 0.01916 -0.14362 0.07466
v 0.00099 0.06138 0.00238
v 0.00008 0.06062 0.00175
v 0.00263 0.05687 0.00238
v 0.00145 0.05687 0.00175
v 0.00099 0.05236 0.00238
v 0.00008 0.05312 0.00175
v 0.00099 0.05236 0.04548
v -0.00103 0.05405 0.04959
v 0.00263 0.05687 0.04548
v -0.00001 0.05687 0.04959
v 0.00099 0.06138 0.04548
v -0.00103 0.05968 0.04959
v 0.019 -0.10938 0.01733
v 0.019 -0.13047 0.02359
v 0.019 -0.15565 0.03138
v 0.019 -0.15619 0.02943
v 0.019 -0.13092 0.02161
v 0.019 -0.10982 0.01535
v 0.019 -0.08519 0.01136
v 0.019 -0.08554 0.00936
v 0.019 -0.06063 0.00737
v 0.019 -0.06093 0.00536
v 0.019 -0.03582 0.00327
v 0.019 -0.03562 0.00529
v 0.019 -0.01604 0.00384
v 0.019 -0.01614 0.00182
v 0.019 0.0036 0.00336
v 0.01901 0.04175 0.00337
v 0.019 0.0036 0.00133
v 0.01902 0.06113 0.00131
v 0.01817 0.06297 0.00097
v 0.01817 0.06297 0.00373
v 0.018 0.06442 0.00607
v 0.0197 0.06297 0.00531
v 0.01902 0.06113 0.00338
v 0.02055 0.06113 0.00496
v 0.01899 0.04175 0.01111
v 0.01899 0.04175 0.01888
v 0.01899 0.03352 0.01888
v 0.01899 0.03351 0.01111
v 0.01899 0.0311 0.01711
v 0.01899 0.03111 0.01285
v 0.01899 0.03027 0.015
v 0.01896 0.04175 0.02683
v 0.01895 0.0036 0.02684
v 0.01895 0.0036 0.02895
v 0.01895 -0.01489 0.02729
v 0.01895 -0.03332 0.02865
v 0.01895 -0.01478 0.0294
v 0.01895 -0.03312 0.03076
v 0.01897 0.06113 0.02897
v 0.01895 -0.05719 0.03268
v 0.01897 0.06113 0.02682
v 0.02055 0.06113 0.02503
v 0.0197 0.06297 0.02471
v 0.01885 0.06297 0.02649
v 0.018 0.06442 0.02414
v 0.01885 0.06297 0.02929
v 0.01895 -0.08079 0.03628
v 0.01895 -0.0575 0.03059
v 0.01895 -0.08115 0.03419
v 0.01895 -0.10422 0.04021
v 0.01895 -0.10375 0.04227
v 0.01895 -0.1253 0.0465
v 0.01895 -0.14936 0.054
v 0.01895 -0.12484 0.04857
v 0.01895 -0.14879 0.05604
v 0.01793 0.06297 0.04761
v 0.01793 0.06297 0.05444
v 0.01802 0.06113 0.05414
v 0.01802 0.06113 0.0479
v 0.01802 0.0036 0.0479
v 0.01802 0.0036 0.05414
v 0.01802 -0.01355 0.05456
v 0.01802 -0.01385 0.04833
v 0.01802 -0.03065 0.05583
v 0.01802 -0.03126 0.04961
v 0.01802 -0.05349 0.0576
v 0.01802 -0.05441 0.05142
v 0.01802 -0.07646 0.06111
v 0.01802 -0.07753 0.05495
v 0.01802 -0.09958 0.06074
v 0.01802 -0.09821 0.06682
v 0.01802 -0.12067 0.06706
v 0.01802 -0.14372 0.07429
v 0.01802 -0.11929 0.07315
v 0.01802 -0.14205 0.08031
v -0.00807 0.0505 -0.00015
v -0.00311 0.04962 -0.00015
v -0.0113 0.05435 -0.00015
v -0.0113 0.05938 -0.00015
v -0.00807 0.06324 -0.00015
v -0.00311 0.06412 -0.00015
v 0.01488 0.06361 -0.00122
v 0.01357 0.06531 -0.0004
v 0.01356 0.06357 -0.00041
v -0.00337 0.06261 0.00048
v -0.0073 0.06192 0.00048
v -0.00987 0.05886 0.00048
v -0.00987 0.05487 0.00048
v -0.0073 0.05182 0.00048
v -0.00337 0.05112 0.00048
v 0.01002 0.05695 -0.00015
v 0.01438 0.05443 -0.00015
v 0.0161 0.0497 -0.00015
v 0.01438 0.04497 -0.00015
v 0.01002 0.04245 -0.00015
v -0.01001 0.06344 -0.00174
v -0.00799 0.06358 -0.0004
v 0.00511 0.04838 0.05902
v 0.00694 0.04659 0.06172
v 0.00536 0.04847 0.06172
v 0.00536 0.05093 0.06172
v 0.00581 0.04863 0.0644
v 0.00681 0.04635 0.05902
v 0.00511 0.05102 0.05902
v 0.00681 0.05305 0.05902
v 0.00718 0.047 0.0644
v 0.00752 0.04758 0.06703
v 0.00694 0.05281 0.06172
v 0.00718 0.0524 0.0644
v 0.00581 0.05077 0.0644
v 0.00644 0.05053 0.06703
v 0.00752 0.05181 0.06703
v 0.00644 0.04886 0.06703
v 0.00797 0.05102 0.06959
v 0.0073 0.05022 0.06959
v 0.0073 0.04918 0.06959
v 0.00797 0.04838 0.06959
v 0.01321 0.04595 0.00048
v 0.00975 0.04395 0.00048
v 0.01458 0.0497 0.00048
v 0.01321 0.05345 0.00048
v 0.00975 0.05545 0.00048
v -0.00143 0.05935 0.05902
v -0.00163 0.05918 0.06172
v -0.00052 0.05687 0.05902
v -0.002 0.05888 0.0644
v -0.00252 0.05844 0.06703
v -0.00079 0.05687 0.06172
v -0.00127 0.05687 0.0644
v -0.00143 0.05438 0.05902
v -0.00163 0.05456 0.06172
v -0.002 0.05486 0.0644
v -0.00194 0.05687 0.06703
v -0.00252 0.0553 0.06703
v -0.00322 0.05589 0.06959
v -0.00286 0.05687 0.06959
v -0.00322 0.05785 0.06959
v 0.00506 0.04333 -0.00015
v 0.00183 0.04718 -0.00015
v 0.00183 0.05222 -0.00015
v 0.00506 0.05607 -0.00015
v 0.00582 0.05475 0.00048
v 0.00326 0.05169 0.00048
v 0.00326 0.0477 0.00048
v 0.00582 0.04465 0.00048
v 0.01504 0.06526 0.023
v 0.0169 0.06351 0.02414
v 0.01477 0.06355 0.023
v 0.01357 0.06531 0.02244
v 0.01352 0.06357 0.02244
v 0.00125 0.0616 -0.00015
v 0.00298 0.05687 -0.00015
v 0.00125 0.05213 -0.00015
v -0.01148 0.06351 0.02414
v -0.00958 0.06348 0.02311
v -0.00802 0.06358 0.02244
v 0.00008 0.05312 0.00048
v 0.00145 0.05687 0.00048
v 0.00008 0.06062 0.00048
v 0.01357 0.06531 0.00607
v 0.01354 0.06357 0.00607
v 0.0154 0.06076 0.07368
v 0.0154 0.05768 0.0736
v 0.01543 0.06215 0.07295
v 0.01494 0.06529 0.00607
v -0.01008 0.06211 -0.00446
v -0.01148 0.06351 -0.00499
v -0.01008 0.05896 -0.00499
v 0.01673 0.02674 0.07361
v 0.01761 0.0629 0.07361
v 0.01761 0.0629 0.06893
v 0.01668 0.06419 0.05832
v 0.01668 0.06419 0.04377
v 0.01657 0.06368 0.0318
v 0.0169 0.02671 -0.00499
v 0.01674 0.02671 -0.00499
v 0.0169 0.06351 -0.00499
v -0.008 0.06358 0.00607
v 0.01496 0.0621 -0.00446
v 0.01468 0.05896 -0.00499
v 0.01653 0.06412 0.07002
v 0.01639 0.06282 0.07309
v 0.01685 0.06242 0.07003
v -0.01155 0.02671 -0.00499
v -0.01115 0.06368 0.0318
v -0.01155 0.02673 0.07359
v -0.01126 0.06419 0.04377
v -0.01195 0.06399 0.0583
v -0.01195 0.0629 0.07359
v -0.00912 0.0628 0.07309
v -0.01101 0.0624 0.05989
v -0.0059 0.05234 -0.00497
v -0.00885 0.0545 -0.00497
v -0.01002 0.06292 -0.00325
v -0.00826 0.06215 0.07296
v -0.00822 0.06076 0.07368
v -0.00822 0.05768 0.0736
v 0.0149 0.06292 -0.00325
v 0.01357 0.05468 -0.00497
v 0.01023 0.05234 -0.00497
v -0.01148 0.02671 -0.00499
vt 0.211402 0.428205
vt 0.200781 0.475814
vt 0.211402 0.475814
vt 0.198706 0.473586
vt 0.197241 0.47383
vt 0.209082 0.426008
vt 0.200781 0.426008
vt 0.198706 0.427961
vt 0.197241 0.427961
vt 0.195166 0.475814
vt 0.167577 0.475814
vt 0.165136 0.47383
vt 0.195166 0.426008
vt 0.165136 0.427961
vt 0.167577 0.426008
vt 0.163549 0.427961
vt 0.163549 0.47383
vt 0.161107 0.426008
vt 0.141942 0.426008
vt 0.137547 0.429182
vt 0.161107 0.475814
vt 0.141942 0.475814
vt 0.137547 0.47264
vt 0.130345 0.429182
vt 0.130345 0.47264
vt 0.126072 0.426008
vt 0.126072 0.475814
vt 0.100436 0.475814
vt 0.100436 0.426008
vt 0.212989 0.427717
vt 0.212745 0.477737
vt 0.209937 0.424055
vt 0.197363 0.476302
vt 0.19541 0.477981
vt 0.185644 0.73632
vt 0.182226 0.73339
vt 0.183691 0.735832
vt 0.195532 0.423811
vt 0.197363 0.426008
vt 0.185156 0.775872
vt 0.183203 0.77636
vt 0.181371 0.781732
vt 0.184423 0.784661
vt 0.187719 0.775872
vt 0.187353 0.786126
vt 0.192602 0.774895
vt 0.278787 0.786615
vt 0.279031 0.729484
vt 0.192724 0.737297
vt 0.30491 0.729484
vt 0.187719 0.729484
vt 0.30491 0.786615
vt 0.188086 0.73632
vt 0.33079 0.787103
vt 0.185034 0.730949
vt 0.331034 0.729484
vt 0.366436 0.787103
vt 0.366436 0.729484
vt 0.403302 0.729484
vt 0.403302 0.787591
vt 0.438215 0.729484
vt 0.438215 0.787591
vt 0.474349 0.787591
vt 0.474349 0.728996
vt 0.511704 0.728996
vt 0.511704 0.787591
vt 0.604968 0.62743
vt 0.604968 0.626942
vt 0.602527 0.626942
vt 0.602527 0.62743
vt 0.600574 0.62743
vt 0.598132 0.62743
vt 0.596179 0.626942
vt 0.596179 0.62743
vt 0.593738 0.626942
vt 0.594226 0.62743
vt 0.13303 0.679189
vt 0.132664 0.675283
vt 0.129856 0.679678
vt 0.136082 0.679189
vt 0.136082 0.672842
vt 0.139378 0.671377
vt 0.14182 0.679678
vt 0.148778 0.682607
vt 0.2313 0.671377
vt 0.153172 0.686514
vt 0.231422 0.727042
vt 0.153294 0.711905
vt 0.14951 0.717277
vt 0.263649 0.727042
vt 0.139378 0.727042
vt 0.263649 0.671377
vt 0.142552 0.719718
vt 0.296121 0.727042
vt 0.136937 0.720206
vt 0.296121 0.670888
vt 0.136326 0.726066
vt 0.337626 0.727042
vt 0.13303 0.724113
vt 0.133885 0.71923
vt 0.129978 0.718253
vt 0.337626 0.670888
vt 0.378399 0.670888
vt 0.378399 0.727042
vt 0.41966 0.670888
vt 0.41966 0.727042
vt 0.45555 0.727042
vt 0.455306 0.670888
vt 0.499252 0.670888
vt 0.499252 0.727042
vt 0.611316 0.626942
vt 0.613269 0.62743
vt 0.613758 0.626942
vt 0.611316 0.62743
vt 0.609363 0.626942
vt 0.609363 0.62743
vt 0.606922 0.626942
vt 0.606922 0.62743
vt 0.163549 0.475814
vt 0.161473 0.477981
vt 0.161473 0.423811
vt 0.163549 0.426008
vt 0.162206 0.530747
vt 0.159642 0.540025
vt 0.161351 0.543931
vt 0.159764 0.508774
vt 0.162206 0.51854
vt 0.161229 0.505356
vt 0.603992 0.619129
vt 0.603992 0.615711
vt 0.600574 0.615711
vt 0.600574 0.619129
vt 0.597156 0.615711
vt 0.597156 0.619129
vt 0.593249 0.615711
vt 0.593249 0.619129
vt 0.589831 0.615711
vt 0.589831 0.619129
vt 0.586413 0.615711
vt 0.58739 0.619129
vt 0.614734 0.615711
vt 0.617176 0.619129
vt 0.618152 0.615711
vt 0.614734 0.619129
vt 0.610828 0.615711
vt 0.610828 0.619129
vt 0.60741 0.615711
vt 0.60741 0.619129
vt 0.603015 0.631336
vt 0.603015 0.63329
vt 0.60448 0.63329
vt 0.604968 0.631336
vt 0.603015 0.629383
vt 0.604968 0.629871
vt 0.600574 0.629871
vt 0.601062 0.631825
vt 0.598621 0.63036
vt 0.60155 0.63329
vt 0.599109 0.632313
vt 0.596667 0.631336
vt 0.599597 0.633778
vt 0.597644 0.632801
vt 0.595203 0.632313
vt 0.595691 0.633778
vt 0.596667 0.635731
vt 0.598132 0.634754
vt 0.600085 0.635731
vt 0.599109 0.636708
vt 0.598132 0.637196
vt 0.600085 0.638173
vt 0.599597 0.639149
vt 0.60155 0.640126
vt 0.60155 0.639637
vt 0.603504 0.640126
vt 0.601062 0.637684
vt 0.602039 0.637196
vt 0.602039 0.639149
vt 0.602527 0.638661
vt 0.603504 0.638661
vt 0.603992 0.638661
vt 0.60448 0.636708
vt 0.603015 0.636708
vt 0.60448 0.635243
vt 0.603015 0.634754
vt 0.60155 0.635243
vt 0.60155 0.577136
vt 0.595203 0.579577
vt 0.598621 0.579577
vt 0.602527 0.573717
vt 0.600574 0.570299
vt 0.597156 0.569323
vt 0.593738 0.570299
vt 0.591784 0.573717
vt 0.592273 0.577136
vt 0.589831 0.583972
vt 0.586901 0.583483
vt 0.586413 0.583972
vt 0.589831 0.583483
vt 0.593249 0.583972
vt 0.593249 0.583483
vt 0.597156 0.583972
vt 0.597156 0.583483
vt 0.600574 0.583972
vt 0.600574 0.583483
vt 0.603992 0.583972
vt 0.603992 0.583483
vt 0.09891 0.477981
vt 0.09891 0.424055
vt 0.200781 0.477981
vt 0.167211 0.477981
vt 0.141575 0.477981
vt 0.126194 0.477737
vt 0.141209 0.489456
vt 0.138279 0.493118
vt 0.141697 0.490707
vt 0.144505 0.487777
vt 0.141942 0.49852
vt 0.138524 0.498032
vt 0.144871 0.498764
vt 0.144749 0.490219
vt 0.23899 0.486312
vt 0.23899 0.488754
vt 0.239113 0.497513
vt 0.27195 0.487533
vt 0.271218 0.49852
vt 0.271706 0.489975
vt 0.304666 0.489975
vt 0.30369 0.500961
vt 0.304422 0.492416
vt 0.346171 0.496078
vt 0.344951 0.504379
vt 0.34666 0.493606
vt 0.387188 0.499985
vt 0.386944 0.502426
vt 0.385235 0.511216
vt 0.427717 0.510239
vt 0.427229 0.51268
vt 0.425275 0.520981
vt 0.461898 0.520493
vt 0.461409 0.522935
vt 0.502914 0.533677
vt 0.502426 0.536119
vt 0.459456 0.531236
vt 0.499985 0.54442
vt 0.60741 0.583972
vt 0.60741 0.583483
vt 0.610828 0.583972
vt 0.610828 0.583483
vt 0.614734 0.583972
vt 0.614246 0.583483
vt 0.618152 0.583972
vt 0.617664 0.583483
vt 0.198584 0.476302
vt 0.165136 0.475814
vt 0.548814 0.492416
vt 0.548814 0.490707
vt 0.53856 0.490707
vt 0.538072 0.492416
vt 0.548814 0.493881
vt 0.538072 0.493881
vt 0.549303 0.540025
vt 0.538072 0.540025
vt 0.53856 0.554674
vt 0.549303 0.554186
vt 0.539537 0.569323
vt 0.550768 0.568346
vt 0.552232 0.58739
vt 0.54149 0.588855
vt 0.555162 0.606433
vt 0.54442 0.608386
vt 0.549303 0.626942
vt 0.560045 0.6245
vt 0.554186 0.644032
vt 0.564928 0.641591
vt 0.560533 0.663076
vt 0.570788 0.660634
vt 0.137059 0.474593
vt 0.130711 0.474593
vt 0.126194 0.423811
vt 0.141575 0.423811
vt 0.167211 0.423811
vt 0.200415 0.423811
vt 0.557115 0.493606
vt 0.557604 0.491928
vt 0.551744 0.491928
vt 0.561022 0.490707
vt 0.560533 0.492416
vt 0.560533 0.493881
vt 0.560533 0.540025
vt 0.552232 0.493606
vt 0.557604 0.540025
vt 0.552721 0.540025
vt 0.552721 0.554186
vt 0.558092 0.553697
vt 0.561022 0.553697
vt 0.554186 0.568346
vt 0.559069 0.567858
vt 0.562487 0.56737
vt 0.563952 0.585925
vt 0.560533 0.586413
vt 0.566881 0.60448
vt 0.55565 0.586901
vt 0.563463 0.604968
vt 0.55858 0.605945
vt 0.563463 0.623524
vt 0.568346 0.622547
vt 0.571276 0.622059
vt 0.568346 0.641102
vt 0.574206 0.659658
vt 0.573229 0.639637
vt 0.576647 0.639149
vt 0.579089 0.658193
vt 0.582018 0.657216
vt 0.513169 0.492172
vt 0.511216 0.490707
vt 0.511704 0.492416
vt 0.513169 0.493881
vt 0.511704 0.494125
vt 0.513169 0.540025
vt 0.511216 0.540025
vt 0.511704 0.556139
vt 0.515122 0.493881
vt 0.514634 0.540025
vt 0.513657 0.556139
vt 0.51268 0.572253
vt 0.515122 0.55565
vt 0.516587 0.540025
vt 0.516587 0.494125
vt 0.517075 0.55565
vt 0.517075 0.49266
vt 0.516098 0.571764
vt 0.518052 0.571764
vt 0.520005 0.591784
vt 0.515122 0.492172
vt 0.517563 0.490951
vt 0.518052 0.592273
vt 0.522935 0.611805
vt 0.514634 0.571764
vt 0.516587 0.592273
vt 0.514634 0.592761
vt 0.52147 0.612293
vt 0.520005 0.612781
vt 0.518052 0.612781
vt 0.522935 0.632801
vt 0.524888 0.632313
vt 0.528306 0.649892
vt 0.526353 0.632313
vt 0.528306 0.631825
vt 0.529771 0.649892
vt 0.534654 0.6704
vt 0.536607 0.669912
vt 0.531724 0.649403
vt 0.533189 0.648915
vt 0.538072 0.669424
vt 0.539537 0.668935
vt 0.55858 0.664052
vt 0.552232 0.64452
vt 0.557115 0.664052
vt 0.547349 0.62743
vt 0.550768 0.645009
vt 0.555162 0.665029
vt 0.548814 0.645497
vt 0.545885 0.627918
vt 0.543931 0.628407
vt 0.542467 0.608386
vt 0.540513 0.608875
vt 0.539048 0.609363
vt 0.53563 0.589831
vt 0.537584 0.589831
vt 0.534165 0.570299
vt 0.539537 0.589343
vt 0.536119 0.569811
vt 0.537584 0.569811
vt 0.534654 0.554674
vt 0.533189 0.555162
vt 0.536607 0.554674
vt 0.534654 0.540025
vt 0.532701 0.540025
vt 0.532701 0.493881
vt 0.536119 0.540025
vt 0.534654 0.493606
vt 0.532701 0.492416
vt 0.536119 0.493606
vt 0.534165 0.492172
vt 0.532212 0.490707
vt 0.536607 0.492172
vt 0.572741 0.490707
vt 0.573717 0.487777
vt 0.562487 0.489456
vt 0.574206 0.492416
vt 0.574694 0.494125
vt 0.575182 0.540025
vt 0.575671 0.552721
vt 0.576647 0.565905
vt 0.578112 0.583483
vt 0.581042 0.60155
vt 0.585437 0.618641
vt 0.59032 0.635731
vt 0.596179 0.653798
vt 0.239235 0.532212
vt 0.198584 0.5244
vt 0.196631 0.529283
vt 0.191748 0.532701
vt 0.177831 0.540513
vt 0.17832 0.533189
vt 0.239235 0.540513
vt 0.269265 0.541002
vt 0.239113 0.516098
vt 0.196631 0.519517
vt 0.19187 0.51561
vt 0.239113 0.507797
vt 0.178198 0.51561
vt 0.177831 0.508286
vt 0.27073 0.508774
vt 0.299295 0.543443
vt 0.302713 0.511216
vt 0.339091 0.546861
vt 0.343486 0.514634
vt 0.383526 0.52147
vt 0.377911 0.552721
vt 0.422834 0.531236
vt 0.415509 0.562487
vt 0.457015 0.54149
vt 0.44969 0.572741
vt 0.497055 0.554186
vt 0.488021 0.58446
vt 0.606433 0.631825
vt 0.606922 0.629871
vt 0.606433 0.633778
vt 0.608386 0.632313
vt 0.608875 0.630848
vt 0.610828 0.631825
vt 0.605945 0.635243
vt 0.605457 0.637196
vt 0.607898 0.634266
vt 0.60741 0.635731
vt 0.61034 0.63329
vt 0.609363 0.635243
vt 0.611805 0.634266
vt 0.612293 0.632313
vt 0.610828 0.636219
vt 0.609363 0.637684
vt 0.608386 0.636708
vt 0.607898 0.639149
vt 0.606433 0.637684
vt 0.606922 0.638173
vt 0.605457 0.639637
vt 0.605945 0.640126
vt 0.605457 0.639149
vt 0.60448 0.638661
vt 0.517563 0.488754
vt 0.510727 0.488754
vt 0.508774 0.490463
vt 0.507309 0.492172
vt 0.506333 0.493881
vt 0.506333 0.540025
vt 0.506333 0.556139
vt 0.507797 0.572741
vt 0.509262 0.593738
vt 0.51268 0.613758
vt 0.518052 0.634266
vt 0.522935 0.651357
vt 0.529771 0.671865
vt 0.165014 0.426008
vt 0.198584 0.426008
vt 0.512192 0.487289
vt 0.517563 0.487045
vt 0.530259 0.487533
vt 0.530747 0.48851
vt 0.430647 0.655263
vt 0.465804 0.666494
vt 0.473128 0.638661
vt 0.436995 0.62743
vt 0.396466 0.645497
vt 0.402814 0.617664
vt 0.362774 0.637196
vt 0.367656 0.608386
vt 0.330546 0.602527
vt 0.326151 0.631336
vt 0.29368 0.599597
vt 0.29075 0.628895
vt 0.266091 0.597644
vt 0.264626 0.626942
vt 0.238746 0.597156
vt 0.23838 0.626453
vt 0.144749 0.6245
vt 0.145482 0.595691
vt 0.141453 0.623035
vt 0.14243 0.595691
vt 0.138035 0.613758
vt 0.139134 0.596179
vt 0.138035 0.620594
vt 0.442122 0.604968
vt 0.479232 0.616199
vt 0.485092 0.595203
vt 0.447005 0.583483
vt 0.408185 0.594714
vt 0.413068 0.573229
vt 0.371807 0.585437
vt 0.375713 0.563463
vt 0.337382 0.557604
vt 0.333964 0.579577
vt 0.298318 0.554186
vt 0.296121 0.576647
vt 0.268532 0.552232
vt 0.267556 0.574206
vt 0.239113 0.551744
vt 0.238868 0.573717
vt 0.145604 0.572741
vt 0.14536 0.550768
vt 0.142308 0.551256
vt 0.142674 0.572741
vt 0.13889 0.552232
vt 0.139256 0.572253
vt 0.130589 0.427198
vt 0.137181 0.427198
vt 0.423566 0.527329
vt 0.457747 0.538072
vt 0.498032 0.550768
vt 0.499008 0.547838
vt 0.45848 0.534654
vt 0.424299 0.5244
vt 0.384014 0.517563
vt 0.384747 0.514634
vt 0.343974 0.511216
vt 0.344462 0.507797
vt 0.303201 0.504379
vt 0.302957 0.507797
vt 0.270974 0.505356
vt 0.271218 0.501938
vt 0.239113 0.504379
vt 0.176733 0.504868
vt 0.239113 0.500961
vt 0.144749 0.501938
vt 0.141087 0.50145
vt 0.141087 0.505844
vt 0.138524 0.509751
vt 0.142064 0.509262
vt 0.144505 0.505356
vt 0.145116 0.508774
vt 0.176489 0.518052
vt 0.176611 0.530747
vt 0.190405 0.529771
vt 0.190405 0.51854
vt 0.194067 0.527329
vt 0.194067 0.520981
vt 0.195532 0.5244
vt 0.176733 0.543931
vt 0.239113 0.54442
vt 0.239113 0.547838
vt 0.269021 0.544908
vt 0.299051 0.547349
vt 0.268777 0.548326
vt 0.298563 0.550279
vt 0.144993 0.547349
vt 0.33787 0.553697
vt 0.144627 0.543931
vt 0.144993 0.540025
vt 0.14182 0.540025
vt 0.141575 0.543443
vt 0.138401 0.539537
vt 0.14182 0.547838
vt 0.376446 0.559557
vt 0.338359 0.550279
vt 0.377178 0.556627
vt 0.414777 0.566393
vt 0.4138 0.569323
vt 0.448714 0.576159
vt 0.487045 0.588366
vt 0.447981 0.579577
vt 0.486068 0.591784
vt 0.141942 0.5786
vt 0.141942 0.589831
vt 0.145116 0.589343
vt 0.145116 0.579089
vt 0.238868 0.580554
vt 0.238746 0.59032
vt 0.266579 0.591296
vt 0.267067 0.581042
vt 0.294412 0.593249
vt 0.295389 0.582995
vt 0.331523 0.596179
vt 0.332987 0.586413
vt 0.368877 0.602039
vt 0.370586 0.592273
vt 0.406476 0.60155
vt 0.404279 0.611316
vt 0.440657 0.611316
vt 0.477523 0.622547
vt 0.438459 0.621082
vt 0.474837 0.632313
vt 0.59032 0.581042
vt 0.586413 0.580065
vt 0.586413 0.581042
vt 0.59032 0.580065
vt 0.593738 0.581042
vt 0.593738 0.580065
vt 0.597156 0.581042
vt 0.597156 0.580065
vt 0.600574 0.581042
vt 0.600574 0.580065
vt 0.603992 0.581042
vt 0.603992 0.580065
vt 0.130589 0.496567
vt 0.131565 0.499741
vt 0.133274 0.497787
vt 0.129124 0.499008
vt 0.603992 0.582507
vt 0.600574 0.582507
vt 0.597156 0.582507
vt 0.593738 0.582507
vt 0.59032 0.582507
vt 0.586901 0.582507
vt 0.593738 0.622547
vt 0.596179 0.622547
vt 0.598132 0.622547
vt 0.600574 0.622547
vt 0.602527 0.622547
vt 0.604968 0.622547
vt 0.60741 0.581042
vt 0.60741 0.580065
vt 0.610828 0.581042
vt 0.610828 0.580065
vt 0.614246 0.581042
vt 0.614246 0.580065
vt 0.617664 0.581042
vt 0.618152 0.580065
vt 0.510239 0.487289
vt 0.511704 0.486068
vt 0.614246 0.582507
vt 0.617664 0.582507
vt 0.610828 0.582507
vt 0.60741 0.582507
vt 0.606922 0.622547
vt 0.609363 0.622547
vt 0.611316 0.622547
vt 0.613758 0.622547
vt 0.133396 0.537095
vt 0.136204 0.540025
vt 0.132298 0.539537
vt 0.130955 0.536119
vt 0.130222 0.539048
vt 0.532701 0.489456
vt 0.531724 0.487533
vt 0.530747 0.486312
vt 0.131199 0.509751
vt 0.128147 0.536119
vt 0.128391 0.509751
vt 0.187964 0.738273
vt 0.191015 0.738762
vt 0.185766 0.738762
vt 0.133396 0.509751
vt 0.888668 0.319559
vt 0.889157 0.320048
vt 0.888668 0.318094
vt 0.875973 0.266549
vt 0.858882 0.266549
vt 0.858882 0.268777
vt 0.858394 0.273659
vt 0.858394 0.280251
vt 0.858882 0.285836
vt 0.875973 0.302957
vt 0.858882 0.289529
vt 0.858882 0.302957
vt 0.517075 0.485794
vt 0.875973 0.320048
vt 0.876949 0.319559
vt 0.876949 0.318094
vt 0.136082 0.616199
vt 0.132908 0.620106
vt 0.134861 0.62157
vt 0.133641 0.614734
vt 0.889157 0.302957
vt 0.906247 0.302957
vt 0.906247 0.289285
vt 0.906247 0.285836
vt 0.889157 0.266549
vt 0.906247 0.280251
vt 0.906247 0.273659
vt 0.905759 0.266549
vt 0.136937 0.596179
vt 0.135472 0.613269
vt 0.548814 0.489456
vt 0.561022 0.489975
vt 0.137181 0.572253
vt 0.136326 0.552232
vt 0.572741 0.486801
vt 0.561998 0.488021
vt 0.150975 0.68749
vt 0.147557 0.684561
vt 0.141087 0.682119
vt 0.136082 0.681143
vt 0.133518 0.681631
vt 0.130955 0.682119
vt 0.183691 0.774407
vt 0.185156 0.773919
vt 0.187475 0.773919
vt 0.190893 0.773919
vt 0.53856 0.489212
vt 0.134495 0.716788
vt 0.131321 0.715812
vt 0.136937 0.717765
vt 0.142064 0.716788
vt 0.148167 0.715323
vt 0.150975 0.711417
vt 0.887204 0.249977
vt 0.887204 0.250679
vt 0.877438 0.316141
vt 0.878903 0.31492
vt 0.886715 0.31492
vt 0.887692 0.315897
vt 0.876461 0.250679
vt 0.875973 0.249855
vt 0.875484 0.249855
vt 0.876461 0.249977
vt 0.184179 0.738273
vt 0.887692 0.249855
vt 0.889157 0.249855
vt 0.887204 0.252174
vt 0.876461 0.252174
vt 0.214698 0.475082
vt 0.21482 0.429426
vt 0.211768 0.424055
vt 0.213233 0.425764
vt 0.194555 0.479232
vt 0.168187 0.479476
vt 0.196753 0.478744
vt 0.197851 0.477248
vt 0.198218 0.477493
vt 0.199438 0.478744
vt 0.210425 0.479232
vt 0.20188 0.479232
vt 0.208472 0.422559
vt 0.201392 0.422559
vt 0.194555 0.422346
vt 0.168187 0.422346
vt 0.160619 0.422346
vt 0.141331 0.422559
vt 0.136814 0.426008
vt 0.130833 0.426008
vt 0.126194 0.422346
vt 0.101291 0.422346
vt 0.096957 0.474349
vt 0.096957 0.427473
vt 0.101291 0.479476
vt 0.126194 0.479476
vt 0.130955 0.475814
vt 0.136814 0.475814
vt 0.141331 0.479476
vt 0.160619 0.479476
vt 0.162938 0.4785
vt 0.164037 0.476791
vt 0.164647 0.476791
vt 0.165746 0.4785
vt 0.19895 0.423292
vt 0.198218 0.425031
vt 0.197729 0.425031
vt 0.196997 0.423292
vt 0.165746 0.423048
vt 0.164647 0.425031
vt 0.164037 0.425031
vt 0.162938 0.423048
vn 0 -0.9612 0.2757
vn -0.0197 -0.9596 0.2808
vn 0 -0.2742 -0.9617
vn 0.7046 -0.2033 -0.6798
vn -0.7286 -0.2031 -0.6542
vn 0.0236 0.584 0.8114
vn 0.0709 0.6818 0.7281
vn 0.7127 -0.2308 -0.6624
vn -0.046 0.5428 0.8386
vn -0.0709 0.6818 0.7281
vn -0.0012 0.2267 0.974
vn -0.0011 0.143 0.9897
vn 0 -0.001 1
vn -0.001 0.0149 0.9999
vn -0.001 0.0481 0.9988
vn -0.0011 0.0858 0.9963
vn -0.0011 0.1234 0.9924
vn -0.0012 0.205 0.9788
vn -0.0012 0.2746 0.9616
vn -0.0012 0.3214 0.9469
vn 0.1206 0.7254 0.6777
vn -0.374 0.6442 0.6672
vn -0.6962 0.2553 0.6709
vn -0.688 -0.2309 0.688
vn -0.3752 -0.6139 0.6945
vn 0.1223 -0.7025 0.7011
vn 0.0013 0.867 -0.4983
vn 0.0013 0.9373 -0.3485
vn 0.0233 0.5332 -0.8457
vn 0.0183 0.0872 -0.996
vn 0.0192 0.1455 -0.9892
vn -0.0161 -0.0151 -0.9998
vn 0 -0.0169 -0.9999
vn 0 -0.001 -1
vn 0 -0.0502 -0.9987
vn -0.0356 0.0701 -0.9969
vn -0.0373 0.1277 -0.9911
vn 0 -0.0857 -0.9963
vn -0.046 0.5428 -0.8386
vn 0 -0.1232 -0.9924
vn 0 -0.2075 -0.9782
vn 0 -0.2974 -0.9547
vn 0.5402 -0.4618 0.7035
vn 0.7181 0.0014 0.696
vn 0.5451 0.4914 0.6793
vn -0.7671 -0.172 -0.618
vn 0.7533 -0.1991 -0.6268
vn 0 -1 0
vn 0.1429 0.8384 0.526
vn -0.4284 0.7262 0.5376
vn -0.7987 0.3096 0.516
vn -0.7952 -0.2824 0.5365
vn -0.4323 -0.6999 0.5686
vn 0.1456 -0.8186 0.5556
vn 0.6317 -0.549 0.5473
vn 0.836 0.0014 0.5487
vn 0.6297 0.5757 0.5216
vn -0.5168 0.8549 0.0457
vn -0.4901 0.8638 0.1164
vn 0.1586 0.9801 0.1193
vn 0.1507 0.9869 0.0572
vn -0.5075 0.8613 0.0231
vn 0.1686 0.9855 0.0195
vn -0.9446 0.3275 0.0215
vn -0.9383 0.3399 0.0643
vn -0.9493 -0.3118 0.0407
vn -0.9326 0.3355 0.1328
vn -0.9425 -0.3234 0.0845
vn -0.5179 -0.8543 0.0443
vn -0.9371 -0.3119 0.1566
vn -0.5271 -0.8471 0.0677
vn 0.1701 -0.9847 0.0373
vn 0.1545 -0.9851 0.076
vn 0.1629 -0.9762 0.1429
vn -0.5007 -0.8536 0.1435
vn -0.9255 -0.3004 0.2307
vn -0.4929 -0.8413 0.2221
vn 0.1475 -0.9666 0.2096
vn -0.4846 -0.8197 0.3052
vn 0.1568 -0.9365 0.3136
vn 0.1421 -0.8713 0.4697
vn -0.4547 -0.7496 0.481
vn -0.0151 0.0171 0.9997
vn -0.9071 -0.2833 0.3112
vn -0.9065 0.31 0.2865
vn -0.8328 -0.2781 0.4786
vn -0.8354 0.3045 0.4575
vn -0.4533 0.7675 0.4533
vn 0.1392 0.8854 0.4434
vn 0.1529 0.9461 0.2856
vn -0.4804 0.8317 0.2783
vn 0.1439 0.9717 0.1872
vn -0.4866 0.852 0.1932
vn -0.9231 0.3229 0.2091
vn -0.2431 -0.4157 -0.8764
vn 0.0671 -0.4991 -0.864
vn -0.4502 -0.1681 -0.877
vn -0.4434 0.1392 -0.8854
vn -0.2417 0.384 -0.8911
vn 0.068 0.4732 -0.8783
vn -1 -0.001 0
vn 0.5205 0.6553 -0.5475
vn 0.5236 0.8215 -0.2257
vn 0.7041 0.6495 -0.2871
vn 0.6803 0.1999 -0.7051
vn 0.7823 0.6228 0.0014
vn 0.6259 0.7799 0.0014
vn 0.974 0.2267 0.0012
vn 0.707 -0.021 -0.707
vn 0.9997 0.0171 0.0151
vn 0.7055 -0.0679 -0.7055
vn 0.7017 -0.1239 -0.7017
vn 0.696 -0.1763 -0.696
vn 0.6956 -0.2589 -0.6702
vn 0.3381 0.2904 -0.8952
vn 0.4477 0.0013 -0.8942
vn 0.3447 -0.319 -0.8829
vn -0.8011 0.5985 -0.0014
vn -0.6498 0.7601 -0.0014
vn -0.9788 0.205 -0.0012
vn 0.9999 0.0149 0.001
vn -0.947 0.0635 -0.3148
vn -0.9341 0.2739 -0.229
vn -0.9327 0.2959 0.2062
vn -0.9041 0.3956 0.1614
vn -0.8961 0.4023 -0.1874
vn -0.7279 0.5091 -0.4593
vn -0.7236 0.5621 0.4005
vn -0.8121 0.119 -0.5713
vn -0.8 -0.0014 -0.6
vn -0.9554 0.1059 0.2758
vn -0.8204 0.1439 0.5534
vn -0.9469 0.0012 -0.3214
vn -0.9546 0.0012 0.2978
vn -0.8102 0.0208 0.5858
vn -0.9526 0.0212 0.3034
vn -0.8018 0.0437 0.596
vn -0.9524 -0.0187 -0.3042
vn -0.7917 -0.0237 -0.6105
vn -0.9496 -0.042 -0.3106
vn -0.8018 -0.0466 -0.5957
vn -0.7925 -0.0703 -0.6058
vn -0.7914 -0.1196 -0.5995
vn -0.9501 0.042 0.3091
vn -0.8127 0.07 0.5785
vn -0.9465 -0.0635 -0.3164
vn -0.9549 0.0626 0.2902
vn -0.8121 0.119 0.5713
vn -0.8078 0.1736 0.5632
vn -0.9516 0.0846 0.2955
vn -0.9511 -0.0847 -0.2971
vn -0.8001 -0.1448 -0.5822
vn -0.7959 -0.1974 -0.5724
vn -0.9471 -0.1074 -0.3024
vn -0.8317 0.4804 0.2783
vn -0.6174 0.7809 0.0949
vn -0.5769 0.604 0.5499
vn -0.9035 0.2387 0.3559
vn -0.7132 0.2273 0.6631
vn -0.9285 -0.0013 0.3714
vn -0.729 0.0239 0.6841
vn -0.9006 0.2146 -0.378
vn -0.9285 -0.0013 -0.3714
vn -0.9349 0.0192 0.3543
vn -0.7281 0.0709 0.6818
vn -0.9352 -0.0218 -0.3536
vn -0.729 -0.021 -0.6842
vn -0.7051 0.1999 -0.6803
vn -0.5774 0.5774 -0.5774
vn -0.9319 -0.0431 -0.3602
vn -0.7295 -0.0709 -0.6803
vn -0.8354 0.4575 -0.3045
vn -0.6272 0.7695 -0.1201
vn -0.7362 -0.1463 -0.6608
vn -0.9317 0.0404 0.361
vn -0.9336 -0.0869 -0.3477
vn -0.9342 0.0869 0.3461
vn -0.7348 0.1463 0.6623
vn -0.729 0.1997 0.6547
vn -0.9293 0.1102 0.3524
vn -0.9287 -0.1103 -0.354
vn -0.9384 -0.1089 -0.328
vn -0.7533 -0.1991 -0.6268
vn -0.9389 0.1088 0.3264
vn -0.7529 0.2025 0.6262
vn -0.7585 -0.146 -0.6351
vn -0.7668 0.1753 0.6174
vn -0.9377 -0.0644 -0.3415
vn -0.9383 0.0643 0.3399
vn -0.7571 0.146 0.6367
vn -0.76 0.0952 0.6429
vn -0.9417 0.0425 0.3337
vn -0.7609 0.0469 0.6471
vn -0.9412 -0.0425 -0.3352
vn -0.7614 -0.0952 -0.6413
vn -0.7622 -0.0469 -0.6456
vn -0.9379 -0.0013 0.347
vn -0.9379 -0.0013 -0.347
vn -0.7614 -0.0014 -0.6483
vn -0.7614 -0.0014 0.6483
vn -0.7879 0.1746 0.5905
vn -0.9476 0.1074 0.3008
vn -0.9433 0.0858 -0.3206
vn -0.7796 0.1487 -0.6084
vn -0.7262 0.5376 -0.4284
vn -0.8679 0.4584 0.1914
vn -0.7479 0.6528 0.1204
vn -0.8735 0.4345 -0.2195
vn -0.7571 0.6367 -0.146
vn -0.3034 0.9526 -0.0212
vn 0.1061 0.9942 -0.0186
vn 0.7397 0.6713 0.047
vn 0.7504 0.6606 0.0238
vn 0.7479 0.6528 0.1204
vn 0.9978 -0.001 0.0667
vn 0.9995 -0.001 0.0323
vn 0.7616 -0.6465 0.0455
vn 0.729 0.6547 0.1997
vn 0.7282 0.6226 0.2865
vn 0.9897 0.0011 0.143
vn 0.9736 -0.0012 0.2281
vn 0.7508 -0.6569 0.0693
vn 0.7591 -0.6341 0.1476
vn 0.7359 -0.6373 0.2286
vn 0.9546 0.0012 0.2978
vn 0.7323 -0.6049 0.3129
vn 0.6558 -0.5734 0.491
vn 0.8811 0.0013 0.473
vn 0.6524 0.5988 0.4646
vn -0.1898 0.9816 -0.0198
vn -0.2337 0.9721 -0.0204
vn -0.473 0.8811 -0.0013
vn -0.1061 0.9942 -0.0186
vn -0.0872 0.996 -0.0183
vn 0.7395 0.6732 0.0014
vn 0.7201 -0.1762 -0.6711
vn 0.9287 -0.1103 -0.354
vn 0.9231 -0.1344 -0.3604
vn 0.923 0.1374 0.3595
vn 0.7132 0.2273 0.6631
vn 0.9293 0.1102 0.3524
vn 0.717 -0.0955 -0.6905
vn 0.7205 0.1729 0.6716
vn 0.928 -0.0651 -0.3669
vn 0.9279 0.0624 0.3677
vn 0.7155 0.0955 0.692
vn 0.7176 0.0471 0.6948
vn 0.9319 -0.0431 -0.3602
vn 0.7177 -0.0441 -0.6949
vn 0.9317 0.0404 0.361
vn 0.9254 -0.022 -0.3784
vn 0.7181 0.0014 -0.696
vn 0.9909 -0.0373 -0.129
vn 0.9526 0.0212 0.3034
vn 0.9555 0.1724 0.2392
vn 0.6962 0.2553 0.6709
vn 0.5491 0.6301 0.5491
vn 0.8135 0.5094 0.2806
vn 0.8271 0.5024 0.252
vn 0.8177 0.4868 -0.3072
vn 0.8135 0.5094 -0.2806
vn 0.5499 0.604 -0.5769
vn 0.8911 0.2417 -0.384
vn 0.6886 0.2274 -0.6886
vn 0.9857 -0.0195 -0.1673
vn 0.9827 -0.0011 0.1851
vn 0.7504 0.0238 0.6606
vn 0.7395 0.0014 0.6732
vn 0.9349 0.0192 0.3543
vn 0.9724 -0.0204 -0.2323
vn 0.7501 0.0708 0.6576
vn 0.9383 0.0643 0.3399
vn 0.9352 -0.0218 -0.3536
vn 0.7514 -0.0708 -0.656
vn 0.7517 -0.0238 -0.6591
vn 0.7668 0.1753 -0.6174
vn 0.9377 -0.0644 -0.3415
vn 0.7493 -0.1204 -0.6512
vn 0.959 0.0834 -0.2709
vn 0.7028 0.5665 -0.4303
vn 0.7451 -0.1725 -0.6443
vn 0.9429 0.1308 0.3062
vn 0.7748 0.2018 0.5992
vn 0.6997 0.5906 0.402
vn 0.852 0.4866 0.1932
vn 0.7254 0.6777 0.1206
vn 0.8582 0.463 -0.2217
vn 0.7348 0.6623 -0.1463
vn 0.9336 -0.0869 -0.3477
vn 0.7479 0.1204 0.6528
vn 0.9342 0.0869 0.3461
vn 0.7436 0.1726 0.6459
vn 0.7529 0.2025 0.6262
vn 0.9338 0.1326 0.3322
vn 0.7379 0.2303 0.6345
vn 0.9332 -0.1327 -0.3339
vn 0.7364 -0.2303 -0.6361
vn 0.8912 0.4232 0.1632
vn 0.9231 0.3229 0.2091
vn 0.925 0.3007 -0.2323
vn 0.8826 0.4303 -0.1894
vn 0.705 0.5383 -0.4617
vn 0.9433 0.0858 -0.3206
vn 0.7999 0.148 -0.5816
vn 0.9511 0.129 0.2807
vn 0.8078 0.1736 0.5632
vn 0.8018 0.0437 0.596
vn 0.9441 -0.0215 -0.329
vn 0.7917 -0.0237 -0.6105
vn 0.7825 -0.0468 -0.6209
vn 0.9496 -0.042 -0.3106
vn 0.7925 -0.0703 -0.6058
vn 0.9501 0.042 0.3091
vn 0.9465 -0.0635 -0.3164
vn 0.7822 -0.0949 -0.6158
vn 0.7925 0.0674 0.6062
vn 0.7798 -0.1455 -0.6089
vn 0.947 0.0635 0.3148
vn 0.8032 0.0944 0.5882
vn 0.9428 -0.0858 -0.3222
vn 0.9516 0.0846 0.2955
vn 0.7999 0.148 0.5816
vn 0.7955 0.2008 0.5717
vn 0.9476 0.1074 0.3008
vn 0.9471 -0.1074 -0.3024
vn 0.7882 -0.1713 -0.5911
vn 0.9424 -0.131 -0.3078
vn 0.7824 -0.2251 -0.5806
vn -0.5245 -0.8514 0
vn 0.1642 -0.9864 0
vn -0.9471 -0.3211 0
vn -0.9469 0.3214 -0.0012
vn -0.5236 0.852 -0.0013
vn 0.1657 0.9862 0.0011
vn -0.5957 -0.0466 -0.8018
vn 0.7627 0.6468 0.0014
vn 0.7607 -0.6491 0
vn 0.5957 -0.0466 -0.8018
vn 0.5877 0.2568 -0.7673
vn 0.5753 -0.0014 -0.8179
vn 0.6014 0.6283 -0.4936
vn 0.6015 0.7988 0.0014
vn 0.5988 0.6524 0.4646
vn 0.595 0.2855 0.7513
vn 0.5753 -0.0014 0.8179
vn -0.3821 0.1117 0.9173
vn -0.378 0.2146 0.9006
vn -0.3863 0.0409 0.9215
vn 0.0638 -0.3681 0.9276
vn 0.2765 -0.2551 0.9265
vn 0.3559 0.2387 0.9035
vn 0.3657 0.1624 0.9164
vn 0.3677 0.0624 0.9279
vn -0.9999 -0.001 -0.0159
vn -0.9998 -0.0151 -0.0161
vn 0.2518 0.9678 0.0012
vn 0.143 0.9897 0.0011
vn 0.1864 0.9825 0.0011
vn -0.4918 -0.1165 0.8629
vn -0.9997 0.0151 0.0171
vn -0.9999 0.0149 -0.001
vn -0.9989 0.0323 0.0344
vn -0.9993 0.0154 0.0338
vn 0.9945 0.1043 0.0011
vn 0.9963 0.0858 0.0011
vn 0.3714 -0.0013 0.9285
vn 0.2824 0.2824 0.9168
vn 0.3729 -0.185 0.9092
vn 0.0169 0.9999 0.001
vn 0.001 1 0.001
vn -0.9861 -0.1346 -0.0977
vn 0.9997 0.0151 -0.0171
vn 0.9999 -0.0169 0
vn 0.9993 0.0154 -0.0338
vn 0.9995 -0.001 -0.0323
vn 0.9997 0.0151 0.0171
vn 0.9993 0.0318 0.0174
vn -0.7281 0.6818 0.0709
vn 0.3275 0.9446 -0.0215
vn 0.4306 0.9023 -0.0225
vn 0.2978 0.9546 0.0012
vn 0.0659 0.3911 0.918
vn -0.2091 0.3229 0.9231
vn -0.3595 0.1374 0.923
vn -0.354 -0.1103 0.9287
vn -0.2046 -0.2956 0.9331
vn -0.2565 0.9663 -0.0207
vn -0.1864 0.9825 -0.0011
vn -0.3551 0.9346 -0.0218
vn 0.9864 -0.1156 -0.1167
vn 0.819 0.5737 0.0014
vn 0.9892 0.1455 0.0192
vn 0.9997 -0.0172 0.0162
vn 0.9988 0.0481 0.001
vn 0.9163 0.2591 -0.3054
vn 0.7059 0.4856 -0.5157
vn 0.9999 -0.001 -0.0159
vn -0.5587 0.8291 -0.0235
vn 0.5332 0.8457 -0.0233
vn -0.9993 0.0318 0.0174
vn -0.9883 0.1481 0.0379
vn -0.819 0.5737 -0.0014
vn -0.3214 0.9469 -0.0012
vn 0.111 -0.0555 -0.9923
vn 0.5369 -0.0933 -0.8384
vn 0.5277 -0.0691 -0.8466
vn -0.0159 -0.001 0.9999
vn 0.3911 -0.4408 -0.8079
vn 0.7796 0.1487 -0.6084
vn -0.707 -0.021 -0.707
vn -0.6793 0.4914 -0.5451
vn -0.1851 -0.0011 -0.9827
vn -0.2337 0.0204 -0.9721
vn -0.0172 0.9997 -0.0172
vn 0.001 0.9999 -0.0169
vn 0.0012 0.9616 -0.2746
vn -0.0209 0.9599 -0.2797
o clip__p0_c0
f 1/1/1 2/2/1 3/3/1
f 2/2/1 1/1/1 4/4/1
f 4/4/1 1/1/1 5/5/1
f 5/5/1 1/1/1 6/6/1
f 5/5/1 6/6/1 7/7/1
f 5/5/1 7/7/1 8/8/1
f 5/5/1 8/8/1 9/9/1
f 5/5/1 9/9/1 10/10/1
f 10/10/1 9/9/1 11/11/2
f 11/11/2 9/9/1 12/12/1
f 12/12/1 9/9/1 13/13/1
f 12/12/1 13/13/1 14/14/1
f 14/14/1 13/13/1 15/15/1
f 12/12/1 14/14/1 16/16/1
f 12/12/1 16/16/1 17/17/1
f 17/17/1 16/16/1 18/18/1
f 17/17/1 18/18/1 19/19/1
f 17/17/1 19/19/1 20/20/1
f 17/17/1 20/20/1 21/21/1
f 21/21/1 20/20/1 22/22/1
f 22/22/1 20/20/1 23/23/1
f 23/23/1 20/20/1 24/24/1
f 23/23/1 24/24/1 25/25/1
f 25/25/1 24/24/1 26/26/1
f 25/25/1 26/26/1 27/27/1
f 27/27/1 26/26/1 28/28/1
f 28/28/1 26/26/1 29/29/1
f 30/30/3 3/3/3 31/31/3
f 3/3/3 30/30/3 1/1/3
f 32/32/4 1/1/4 30/30/4
f 1/1/4 32/32/4 6/6/4
f 33/33/5 10/10/5 34/34/5
f 10/10/5 33/33/5 5/5/5
f 35/35/6 36/36/7 37/37/7
f 38/38/8 9/9/8 39/39/8
f 9/9/8 38/38/8 13/13/8
f 40/40/9 41/41/10 42/42/10
f 40/40/9 42/42/10 43/43/9
f 40/40/9 43/43/9 44/44/11
f 44/44/11 43/43/9 45/45/12
f 44/44/11 45/45/12 46/46/13
f 46/46/13 45/45/12 47/47/13
f 46/46/13 47/47/13 48/48/14
f 46/46/13 48/48/14 49/49/13
f 48/48/14 47/47/13 50/50/15
f 49/49/13 48/48/14 51/51/12
f 50/50/15 47/47/13 52/52/15
f 49/49/13 51/51/12 53/53/11
f 50/50/15 52/52/15 54/54/16
f 53/53/11 51/51/12 55/55/6
f 53/53/11 55/55/6 35/35/6
f 35/35/6 55/55/6 36/36/7
f 50/50/15 54/54/16 56/56/16
f 56/56/16 54/54/16 57/57/17
f 56/56/16 57/57/17 58/58/17
f 58/58/17 57/57/17 59/59/18
f 59/59/18 57/57/17 60/60/18
f 59/59/18 60/60/18 61/61/19
f 61/61/19 60/60/18 62/62/19
f 61/61/19 62/62/19 63/63/20
f 61/61/19 63/63/20 64/64/20
f 64/64/20 63/63/20 65/65/20
f 65/65/20 63/63/20 66/66/20
f 67/67/21 68/68/21 69/69/22
f 67/67/21 69/69/22 70/70/22
f 70/70/22 69/69/22 71/71/23
f 70/70/22 71/71/23 72/71/23
f 72/71/23 71/71/23 73/72/24
f 72/71/23 73/72/24 74/72/24
f 74/72/24 73/72/24 75/73/25
f 74/72/24 75/73/25 76/74/25
f 76/74/25 75/73/25 77/75/26
f 76/74/25 77/75/26 78/76/26
f 79/77/27 80/78/27 81/79/28
f 80/78/27 79/77/27 82/80/29
f 80/78/27 82/80/29 83/81/29
f 83/81/29 82/80/29 84/82/30
f 84/82/30 82/80/29 85/83/31
f 84/82/30 85/83/31 86/84/32
f 84/82/30 86/84/32 87/85/33
f 87/85/33 86/84/32 88/86/34
f 87/85/33 88/86/34 89/87/33
f 89/87/33 88/86/34 90/88/34
f 89/87/33 90/88/34 91/89/34
f 87/85/33 89/87/33 92/90/35
f 89/87/33 91/89/34 93/91/36
f 87/85/33 92/90/35 94/92/35
f 93/91/36 91/89/34 95/93/37
f 94/92/35 92/90/35 96/94/38
f 93/91/36 95/93/37 97/95/39
f 94/92/35 96/94/38 98/96/38
f 93/91/36 97/95/39 99/97/39
f 98/96/38 96/94/38 100/98/40
f 99/97/39 97/95/39 101/99/27
f 101/99/27 97/95/39 102/100/27
f 101/99/27 102/100/27 103/101/28
f 98/96/38 100/98/40 104/102/40
f 104/102/40 100/98/40 105/103/41
f 105/103/41 100/98/40 106/104/41
f 105/103/41 106/104/41 107/105/3
f 107/105/3 106/104/41 108/106/3
f 107/105/3 108/106/3 109/107/42
f 107/105/3 109/107/42 110/108/42
f 110/108/42 109/107/42 111/109/42
f 111/109/42 109/107/42 112/110/42
f 113/111/43 114/112/26 115/113/26
f 114/112/26 113/111/43 116/114/43
f 116/114/43 113/111/43 117/115/44
f 116/114/43 117/115/44 118/116/44
f 118/116/44 117/115/44 119/117/45
f 118/116/44 119/117/45 120/118/45
f 120/118/45 119/117/45 121/68/21
f 120/118/45 121/68/21 122/67/21
f 123/119/46 21/21/46 124/120/46
f 21/21/46 123/119/46 17/17/46
f 125/121/47 16/16/47 126/122/47
f 16/16/47 125/121/47 18/18/47
f 127/123/48 128/124/48 129/125/48
f 128/124/48 127/123/48 130/126/48
f 130/126/48 127/123/48 131/127/48
f 130/126/48 131/127/48 132/128/48
f 122/67/21 121/68/21 133/69/22
f 122/67/21 133/69/22 134/70/22
f 134/70/22 133/69/22 135/71/23
f 134/70/22 135/71/23 136/71/23
f 136/71/23 135/71/23 137/72/24
f 136/71/23 137/72/24 138/72/24
f 138/72/24 137/72/24 139/73/25
f 138/72/24 139/73/25 140/74/25
f 140/74/25 139/73/25 115/75/26
f 140/74/25 115/75/26 114/76/26
f 141/129/49 142/130/49 143/131/50
f 141/129/49 143/131/50 144/132/50
f 144/132/50 143/131/50 145/133/51
f 144/132/50 145/133/51 146/134/51
f 146/134/51 145/133/51 147/135/52
f 146/134/51 147/135/52 148/136/52
f 148/136/52 147/135/52 149/137/53
f 148/136/52 149/137/53 150/138/53
f 150/138/53 149/137/53 151/139/54
f 150/138/53 151/139/54 152/140/54
f 153/111/43 78/112/26 77/113/26
f 78/112/26 153/111/43 154/114/43
f 154/114/43 153/111/43 155/115/44
f 154/114/43 155/115/44 156/116/44
f 156/116/44 155/115/44 157/117/45
f 156/116/44 157/117/45 158/118/45
f 158/118/45 157/117/45 68/68/21
f 158/118/45 68/68/21 67/67/21
f 159/141/55 160/142/54 161/143/54
f 160/142/54 159/141/55 162/144/55
f 162/144/55 159/141/55 163/145/56
f 162/144/55 163/145/56 164/146/56
f 164/146/56 163/145/56 165/147/57
f 164/146/56 165/147/57 166/148/57
f 166/148/57 165/147/57 167/130/49
f 166/148/57 167/130/49 168/129/49
f 169/149/58 170/150/59 171/151/60
f 169/149/58 171/151/60 172/152/61
f 70/153/62 172/152/61 67/154/63
f 172/152/61 70/153/62 169/149/58
f 169/149/58 70/153/62 72/155/64
f 169/149/58 72/155/64 173/156/65
f 173/156/65 72/155/64 74/157/66
f 174/158/67 170/150/59 169/149/58
f 174/158/67 169/149/58 173/156/65
f 173/156/65 74/157/66 175/159/68
f 173/156/65 175/159/68 174/158/67
f 175/159/68 74/157/66 76/160/69
f 174/158/67 175/159/68 176/161/70
f 175/159/68 76/160/69 177/162/71
f 177/162/71 76/160/69 78/163/72
f 177/162/71 78/163/72 178/164/73
f 177/162/71 178/164/73 179/165/74
f 175/159/68 177/162/71 180/166/75
f 175/159/68 180/166/75 176/161/70
f 180/166/75 177/162/71 179/165/74
f 174/158/67 176/161/70 181/167/76
f 181/167/76 176/161/70 180/166/75
f 180/166/75 179/165/74 182/168/77
f 180/166/75 182/168/77 181/167/76
f 182/168/77 179/165/74 183/169/78
f 182/168/77 183/169/78 184/170/79
f 182/168/77 184/170/79 181/167/76
f 184/170/79 183/169/78 185/171/80
f 184/170/79 185/171/80 186/172/81
f 184/170/79 186/172/81 187/173/82
f 187/173/82 186/172/81 188/174/83
f 181/167/76 184/170/79 189/175/84
f 189/175/84 184/170/79 187/173/82
f 181/167/76 189/175/84 190/176/85
f 189/175/84 187/173/82 191/177/86
f 191/177/86 187/173/82 188/174/83
f 189/175/84 191/177/86 190/176/85
f 191/177/86 188/174/83 192/178/87
f 191/177/86 192/178/87 190/176/85
f 192/178/87 188/174/83 193/179/88
f 193/179/88 188/174/83 194/180/89
f 193/179/88 194/180/89 195/181/90
f 192/178/87 193/179/88 196/182/91
f 196/182/91 193/179/88 195/181/90
f 192/178/87 196/182/91 190/176/85
f 196/182/91 195/181/90 197/183/92
f 196/182/91 197/183/92 198/184/93
f 196/182/91 198/184/93 190/176/85
f 198/184/93 197/183/92 171/151/60
f 198/184/93 171/151/60 170/150/59
f 190/176/85 198/184/93 199/185/94
f 199/185/94 198/184/93 170/150/59
f 190/176/85 199/185/94 181/167/76
f 199/185/94 170/150/59 174/158/67
f 199/185/94 174/158/67 181/167/76
f 200/186/34 201/187/34 202/188/34
f 201/187/34 200/186/34 203/189/34
f 201/187/34 203/189/34 204/190/34
f 201/187/34 204/190/34 205/191/34
f 201/187/34 205/191/34 206/192/34
f 201/187/34 206/192/34 207/193/34
f 201/187/34 207/193/34 208/194/34
f 209/186/34 210/187/34 211/188/34
f 210/187/34 209/186/34 212/189/34
f 210/187/34 212/189/34 213/190/34
f 210/187/34 213/190/34 214/191/34
f 210/187/34 214/191/34 215/192/34
f 210/187/34 215/192/34 216/193/34
f 210/187/34 216/193/34 217/194/34
f 218/195/95 219/196/96 220/197/96
f 219/196/96 218/195/95 221/198/95
f 221/198/95 218/195/95 222/199/97
f 221/198/95 222/199/97 223/200/97
f 223/200/97 222/199/97 224/201/98
f 223/200/97 224/201/98 225/202/98
f 225/202/98 224/201/98 226/203/99
f 225/202/98 226/203/99 227/204/99
f 227/204/99 226/203/99 228/205/100
f 227/204/99 228/205/100 229/206/100
f 230/207/19 29/29/19 231/208/19
f 29/29/19 230/207/19 28/28/19
f 31/31/101 2/2/101 232/209/101
f 2/2/101 31/31/101 3/3/101
f 34/34/101 11/11/101 233/210/101
f 11/11/101 34/34/101 10/10/101
f 124/120/101 22/22/101 234/211/101
f 22/22/101 124/120/101 21/21/101
f 235/212/101 28/28/101 230/207/101
f 28/28/101 235/212/101 27/27/101
f 99/213/102 101/214/103 236/215/104
f 99/213/102 236/215/104 93/216/105
f 236/215/104 101/214/103 237/217/106
f 237/217/106 101/214/103 238/218/107
f 236/215/104 237/217/106 239/219/108
f 93/216/105 236/215/104 240/220/105
f 236/215/104 239/219/108 240/220/108
f 93/216/105 240/220/105 89/221/109
f 240/220/108 239/219/108 241/222/110
f 89/221/109 240/220/105 241/222/109
f 241/222/110 239/219/108 242/223/110
f 89/221/109 241/222/109 92/224/111
f 241/222/110 242/223/110 243/225/110
f 92/224/111 241/222/109 244/226/111
f 241/222/110 243/225/110 244/226/110
f 92/224/111 244/226/111 96/227/111
f 244/226/110 243/225/110 245/228/110
f 96/227/111 244/226/111 246/229/111
f 244/226/110 245/228/110 246/229/110
f 96/227/111 246/229/111 247/230/112
f 246/229/110 245/228/110 248/231/110
f 96/227/111 247/230/112 100/232/112
f 246/229/110 248/231/110 247/230/110
f 100/232/112 247/230/112 106/233/113
f 247/230/110 248/231/110 249/234/110
f 106/233/113 247/230/112 249/234/113
f 249/234/110 248/231/110 250/235/110
f 106/233/113 249/234/113 108/236/4
f 249/234/110 250/235/110 251/237/110
f 108/236/4 249/234/113 251/237/4
f 251/237/110 250/235/110 252/238/110
f 108/236/4 251/237/4 109/239/8
f 251/237/110 252/238/110 253/240/110
f 109/239/8 251/237/4 253/240/8
f 109/239/8 253/240/8 112/241/114
f 112/241/114 253/240/8 254/242/114
f 253/240/110 252/238/110 255/243/110
f 253/240/110 255/243/110 254/242/110
f 254/242/110 255/243/110 256/244/110
f 257/206/100 258/205/100 259/245/115
f 257/206/100 259/245/115 260/246/115
f 260/246/115 259/245/115 261/247/116
f 260/246/115 261/247/116 262/248/116
f 262/248/116 261/247/116 263/249/117
f 262/248/116 263/249/117 264/250/117
f 264/250/117 263/249/117 265/251/96
f 264/250/117 265/251/96 266/252/96
f 267/253/101 5/5/101 33/33/101
f 5/5/101 267/253/101 4/4/101
f 268/254/101 17/17/101 123/119/101
f 17/17/101 268/254/101 12/12/101
f 168/129/49 167/130/49 269/131/50
f 168/129/49 269/131/50 270/132/50
f 270/132/50 269/131/50 271/133/51
f 270/132/50 271/133/51 272/134/51
f 272/134/51 271/133/51 273/135/52
f 272/134/51 273/135/52 274/136/52
f 274/136/52 273/135/52 275/137/53
f 274/136/52 275/137/53 276/138/53
f 276/138/53 275/137/53 161/139/54
f 276/138/53 161/139/54 160/140/54
f 277/255/118 278/256/119 279/257/119
f 277/255/118 279/257/119 280/258/118
f 277/255/118 280/258/118 281/259/120
f 281/259/120 280/258/118 282/260/120
f 281/259/120 282/260/120 283/261/101
f 283/261/101 282/260/120 284/262/101
f 283/261/101 284/262/101 285/263/101
f 283/261/101 285/263/101 286/264/101
f 286/264/101 285/263/101 287/265/101
f 286/264/101 287/265/101 288/266/101
f 288/266/101 287/265/101 289/267/101
f 289/267/101 287/265/101 290/268/101
f 289/267/101 290/268/101 291/269/101
f 291/269/101 290/268/101 292/270/101
f 291/269/101 292/270/101 293/271/101
f 291/269/101 293/271/101 294/272/101
f 294/272/101 293/271/101 295/273/101
f 294/272/101 295/273/101 296/274/101
f 296/274/101 295/273/101 297/275/101
f 296/274/101 297/275/101 298/276/101
f 299/277/101 25/25/101 300/278/101
f 25/25/101 299/277/101 23/23/101
f 231/208/121 26/26/121 301/279/121
f 26/26/121 231/208/121 29/29/121
f 302/280/110 18/18/110 125/121/110
f 18/18/110 302/280/110 19/19/110
f 303/281/121 13/13/121 38/38/121
f 13/13/121 303/281/121 15/15/121
f 304/282/121 6/6/121 32/32/121
f 6/6/121 304/282/121 7/7/121
f 305/283/122 306/284/123 307/285/124
f 307/285/124 306/284/123 278/256/125
f 278/256/125 306/284/123 308/286/126
f 308/286/126 306/284/123 309/287/127
f 309/287/127 306/284/123 305/283/122
f 307/285/124 278/256/125 277/255/128
f 309/287/127 305/283/122 310/288/129
f 310/288/129 305/283/122 311/289/130
f 307/285/124 277/255/128 312/290/131
f 307/285/124 312/290/131 305/283/122
f 312/290/131 277/255/128 281/259/132
f 311/289/130 305/283/122 313/291/133
f 313/291/133 305/283/122 312/290/131
f 312/290/131 281/259/132 314/292/134
f 312/290/131 314/292/134 313/291/133
f 314/292/134 281/259/132 283/261/135
f 314/292/134 283/261/135 286/264/135
f 314/292/134 286/264/135 315/293/136
f 314/292/134 315/293/136 313/291/133
f 315/293/136 286/264/135 288/266/137
f 316/294/138 311/289/130 313/291/133
f 316/294/138 313/291/133 315/293/136
f 311/289/130 316/294/138 317/295/139
f 315/293/136 288/266/137 318/296/136
f 315/293/136 318/296/136 316/294/138
f 317/295/139 316/294/138 319/297/140
f 319/297/140 316/294/138 318/296/136
f 317/295/139 319/297/140 320/298/141
f 320/298/141 319/297/140 321/299/142
f 321/299/142 319/297/140 322/300/140
f 322/300/140 319/297/140 318/296/136
f 321/299/142 322/300/140 323/301/143
f 324/302/144 318/296/136 288/266/137
f 318/296/136 324/302/144 322/300/140
f 324/302/144 288/266/137 289/267/145
f 323/301/143 322/300/140 325/303/146
f 325/303/146 322/300/140 324/302/144
f 324/302/144 289/267/145 326/304/147
f 324/302/144 326/304/147 325/303/146
f 326/304/147 289/267/145 291/269/148
f 326/304/147 291/269/148 294/272/149
f 326/304/147 294/272/149 327/305/150
f 326/304/147 327/305/150 325/303/146
f 327/305/150 294/272/149 296/274/149
f 328/306/151 323/301/143 325/303/146
f 328/306/151 325/303/146 327/305/150
f 323/301/143 328/306/151 329/307/152
f 327/305/150 296/274/149 330/308/150
f 327/305/150 330/308/150 328/306/151
f 330/308/150 296/274/149 298/276/149
f 330/308/150 298/276/149 331/309/150
f 328/306/151 330/308/150 332/310/151
f 328/306/151 332/310/151 329/307/152
f 332/310/151 330/308/150 331/309/150
f 329/307/152 332/310/151 333/311/153
f 332/310/151 331/309/150 334/312/154
f 332/310/151 334/312/154 333/311/153
f 333/311/153 334/312/154 335/313/153
f 336/314/155 337/315/156 338/316/157
f 336/314/155 338/316/157 339/317/158
f 339/317/158 338/316/157 340/318/159
f 339/317/158 340/318/159 341/319/160
f 341/319/160 340/318/159 342/320/161
f 341/319/160 342/320/161 343/321/161
f 336/314/155 339/317/158 344/322/162
f 339/317/158 341/319/160 345/323/163
f 339/317/158 345/323/163 344/322/162
f 341/319/160 343/321/161 346/324/164
f 346/324/164 343/321/161 347/325/165
f 345/323/163 341/319/160 348/326/166
f 348/326/166 341/319/160 346/324/164
f 345/323/163 348/326/166 349/327/167
f 345/323/163 349/327/167 344/322/162
f 344/322/162 349/327/167 350/328/168
f 349/327/167 348/326/166 351/329/167
f 344/322/162 350/328/168 352/330/169
f 351/329/167 348/326/166 353/331/170
f 353/331/170 348/326/166 346/324/164
f 351/329/167 353/331/170 354/332/171
f 354/332/171 353/331/170 355/333/171
f 344/322/162 352/330/169 356/334/172
f 344/322/162 356/334/172 336/314/155
f 356/334/172 352/330/169 357/335/173
f 336/314/155 356/334/172 337/315/156
f 337/315/156 356/334/172 357/335/173
f 355/333/171 353/331/170 358/336/170
f 355/333/171 358/336/170 359/337/174
f 360/338/175 353/331/170 346/324/164
f 353/331/170 360/338/175 358/336/170
f 360/338/175 346/324/164 347/325/165
f 360/338/175 347/325/165 361/339/175
f 360/338/175 361/339/175 358/336/170
f 361/339/175 347/325/165 362/340/165
f 359/337/174 358/336/170 363/341/176
f 363/341/176 358/336/170 361/339/175
f 361/339/175 362/340/165 364/342/177
f 361/339/175 364/342/177 363/341/176
f 364/342/177 362/340/165 365/343/178
f 364/342/177 365/343/178 366/344/179
f 364/342/177 366/344/179 367/345/177
f 364/342/177 367/345/177 363/341/176
f 367/345/177 366/344/179 368/346/179
f 369/347/176 359/337/174 363/341/176
f 369/347/176 363/341/176 367/345/177
f 359/337/174 369/347/176 370/348/5
f 367/345/177 368/346/179 371/349/180
f 367/345/177 371/349/180 369/347/176
f 371/349/180 368/346/179 372/350/179
f 371/349/180 372/350/179 373/351/180
f 369/347/176 371/349/180 374/352/181
f 369/347/176 374/352/181 370/348/5
f 374/352/181 371/349/180 373/351/180
f 370/348/5 374/352/181 375/353/5
f 374/352/181 373/351/180 376/354/181
f 374/352/181 376/354/181 375/353/5
f 375/353/5 376/354/181 377/355/5
f 378/356/182 297/275/183 295/273/183
f 378/356/182 295/273/183 379/357/182
f 379/357/182 295/273/183 293/271/46
f 378/356/182 379/357/182 380/358/184
f 379/357/182 293/271/46 381/359/182
f 380/358/184 379/357/182 382/360/184
f 382/360/184 379/357/182 381/359/182
f 380/358/184 382/360/184 383/361/185
f 381/359/182 293/271/46 292/270/186
f 383/361/185 382/360/184 384/362/185
f 384/362/185 382/360/184 385/363/184
f 385/363/184 382/360/184 381/359/182
f 384/362/185 385/363/184 386/364/187
f 381/359/182 292/270/186 387/365/188
f 381/359/182 387/365/188 385/363/184
f 386/364/187 385/363/184 388/366/189
f 388/366/189 385/363/184 387/365/188
f 386/364/187 388/366/189 389/367/190
f 389/367/190 388/366/189 390/368/191
f 390/368/191 388/366/189 391/369/192
f 391/369/192 388/366/189 387/365/188
f 390/368/191 391/369/192 392/370/193
f 393/371/194 387/365/188 292/270/186
f 387/365/188 393/371/194 391/369/192
f 393/371/194 292/270/186 290/268/195
f 392/370/193 391/369/192 394/372/192
f 394/372/192 391/369/192 393/371/194
f 393/371/194 290/268/195 395/373/194
f 393/371/194 395/373/194 394/372/192
f 395/373/194 290/268/195 287/265/196
f 395/373/194 287/265/196 285/263/196
f 392/370/193 394/372/192 396/374/197
f 396/374/197 394/372/192 395/373/194
f 392/370/193 396/374/197 397/375/193
f 395/373/194 285/263/196 398/376/198
f 395/373/194 398/376/198 396/374/197
f 398/376/198 285/263/196 284/262/199
f 397/375/193 396/374/197 399/377/197
f 399/377/197 396/374/197 398/376/198
f 397/375/193 399/377/197 400/378/200
f 400/378/200 399/377/197 401/379/201
f 399/377/197 398/376/198 402/380/198
f 402/380/198 398/376/198 284/262/199
f 401/379/201 399/377/197 403/381/202
f 403/381/202 399/377/197 402/380/198
f 401/379/201 403/381/202 404/382/128
f 402/380/198 284/262/199 405/383/203
f 402/380/198 405/383/203 403/381/202
f 405/383/203 284/262/199 282/260/204
f 405/383/203 282/260/204 280/258/205
f 404/382/128 403/381/202 406/384/206
f 406/384/206 403/381/202 405/383/203
f 404/382/128 406/384/206 407/385/207
f 405/383/203 280/258/205 408/386/208
f 405/383/203 408/386/208 406/384/206
f 406/384/206 408/386/208 407/385/207
f 408/386/208 280/258/205 279/257/209
f 408/386/208 279/257/209 407/385/207
f 42/387/210 41/388/211 409/389/211
f 42/387/210 409/389/211 308/286/210
f 42/387/210 308/286/210 309/287/118
f 42/387/210 309/287/118 43/390/118
f 43/390/118 309/287/118 310/288/120
f 43/390/118 310/288/120 45/391/120
f 45/391/120 310/288/120 47/392/101
f 47/392/101 310/288/120 311/289/101
f 47/392/101 311/289/101 317/295/101
f 47/392/101 317/295/101 52/393/101
f 52/393/101 317/295/101 320/298/101
f 52/393/101 320/298/101 54/394/101
f 54/394/101 320/298/101 57/395/101
f 57/395/101 320/298/101 321/299/101
f 57/395/101 321/299/101 60/396/101
f 60/396/101 321/299/101 323/301/101
f 60/396/101 323/301/101 329/307/101
f 60/396/101 329/307/101 62/397/101
f 62/397/101 329/307/101 333/311/101
f 62/397/101 333/311/101 63/398/101
f 63/398/101 333/311/101 335/313/101
f 63/398/101 335/313/101 66/399/101
f 410/195/95 266/196/96 265/197/96
f 266/196/96 410/195/95 411/198/95
f 411/198/95 410/195/95 412/199/97
f 411/198/95 412/199/97 413/200/97
f 413/200/97 412/199/97 414/201/98
f 413/200/97 414/201/98 415/202/98
f 415/202/98 414/201/98 416/203/99
f 415/202/98 416/203/99 417/204/99
f 417/204/99 416/203/99 258/205/100
f 417/204/99 258/205/100 257/206/100
f 418/400/110 419/401/110 420/402/110
f 418/400/110 420/402/110 421/403/110
f 422/404/110 421/403/110 423/405/110
f 421/403/110 422/404/110 424/406/110
f 421/403/110 424/406/110 418/400/110
f 418/400/110 424/406/110 425/407/110
f 419/401/110 418/400/110 426/408/110
f 426/408/110 418/400/110 425/407/110
f 419/401/110 426/408/110 427/409/110
f 427/409/110 426/408/110 428/410/110
f 428/410/110 426/408/110 429/411/110
f 429/411/110 426/408/110 425/407/110
f 428/410/110 429/411/110 430/412/110
f 430/412/110 429/411/110 431/413/110
f 429/411/110 425/407/110 432/414/110
f 432/414/110 425/407/110 433/415/110
f 432/414/110 433/415/110 434/416/110
f 434/416/110 433/415/110 435/417/110
f 434/416/110 435/417/110 436/418/110
f 436/418/110 435/417/110 437/419/110
f 437/419/110 435/417/110 438/420/110
f 437/419/110 438/420/110 439/421/110
f 439/421/110 438/420/110 440/422/110
f 439/421/110 440/422/110 441/423/110
f 441/423/110 440/422/110 442/424/110
f 441/423/110 442/424/110 443/425/110
f 443/425/110 442/424/110 444/426/110
f 122/154/63 445/152/61 446/427/212
f 122/154/63 446/427/212 120/428/213
f 446/427/212 445/152/61 447/429/214
f 447/429/214 445/152/61 448/151/60
f 120/428/213 446/427/212 449/430/215
f 449/430/215 446/427/212 447/429/214
f 120/428/213 449/430/215 118/431/216
f 447/429/214 448/151/60 450/183/92
f 118/431/216 449/430/215 116/432/217
f 447/429/214 450/183/92 451/433/218
f 451/433/218 450/183/92 452/434/219
f 452/434/219 450/183/92 453/181/90
f 447/429/214 451/433/218 454/435/220
f 447/429/214 454/435/220 449/430/215
f 452/434/219 453/181/90 455/180/89
f 454/435/220 451/433/218 456/436/221
f 456/436/221 451/433/218 452/434/219
f 449/430/215 454/435/220 457/437/222
f 449/430/215 457/437/222 116/432/217
f 454/435/220 456/436/221 458/438/223
f 454/435/220 458/438/223 457/437/222
f 116/432/217 457/437/222 459/439/73
f 459/439/73 457/437/222 458/438/223
f 116/432/217 459/439/73 114/440/72
f 459/439/73 458/438/223 460/441/74
f 460/441/74 458/438/223 461/442/78
f 461/442/78 458/438/223 462/443/224
f 462/443/224 458/438/223 456/436/221
f 461/442/78 462/443/224 463/444/80
f 462/443/224 456/436/221 464/445/225
f 464/445/225 456/436/221 452/434/219
f 463/444/80 462/443/224 465/446/226
f 465/446/226 462/443/224 464/445/225
f 463/444/80 465/446/226 466/447/227
f 463/444/80 466/447/227 467/448/81
f 467/448/81 466/447/227 468/174/83
f 466/447/227 465/446/226 469/449/228
f 469/449/228 465/446/226 464/445/225
f 466/447/227 469/449/228 468/174/83
f 470/450/229 464/445/225 452/434/219
f 464/445/225 470/450/229 469/449/228
f 469/449/228 470/450/229 468/174/83
f 470/450/229 452/434/219 455/180/89
f 470/450/229 455/180/89 468/174/83
f 471/451/230 337/315/156 357/335/173
f 337/315/156 471/451/230 81/452/231
f 337/315/156 81/452/231 80/453/232
f 337/315/156 80/453/232 338/316/118
f 338/316/118 80/453/232 83/454/118
f 338/316/118 83/454/118 340/318/120
f 340/318/120 83/454/118 84/455/120
f 340/318/120 84/455/120 342/320/101
f 342/320/101 84/455/120 87/456/101
f 342/320/101 87/456/101 94/457/101
f 342/320/101 94/457/101 343/321/101
f 343/321/101 94/457/101 98/458/101
f 343/321/101 98/458/101 347/325/101
f 347/325/101 98/458/101 362/340/101
f 362/340/101 98/458/101 104/459/101
f 362/340/101 104/459/101 105/460/101
f 362/340/101 105/460/101 365/343/101
f 365/343/101 105/460/101 107/461/101
f 365/343/101 107/461/101 366/344/101
f 366/344/101 107/461/101 110/462/101
f 366/344/101 110/462/101 368/346/101
f 368/346/101 110/462/101 111/463/101
f 368/346/101 111/463/101 372/350/101
f 126/122/110 14/14/110 472/464/110
f 14/14/110 126/122/110 16/16/110
f 39/39/110 8/8/110 473/465/110
f 8/8/110 39/39/110 9/9/110
f 474/466/233 81/452/231 471/451/230
f 474/466/233 471/451/230 475/467/233
f 475/467/233 471/451/230 476/468/234
f 476/468/234 471/451/230 477/469/230
f 477/469/230 471/451/230 357/335/173
f 477/469/230 357/335/173 407/385/232
f 407/385/232 357/335/173 404/382/118
f 404/382/118 357/335/173 352/330/118
f 404/382/118 352/330/118 401/379/120
f 401/379/120 352/330/118 350/328/120
f 401/379/120 350/328/120 400/378/101
f 400/378/101 350/328/120 349/327/101
f 400/378/101 349/327/101 351/329/101
f 400/378/101 351/329/101 397/375/101
f 397/375/101 351/329/101 354/332/101
f 397/375/101 354/332/101 392/370/101
f 392/370/101 354/332/101 390/368/101
f 390/368/101 354/332/101 355/333/101
f 390/368/101 355/333/101 359/337/101
f 390/368/101 359/337/101 389/367/101
f 389/367/101 359/337/101 370/348/101
f 389/367/101 370/348/101 386/364/101
f 386/364/101 370/348/101 375/353/101
f 386/364/101 375/353/101 384/362/101
f 384/362/101 375/353/101 377/355/101
f 384/362/101 377/355/101 383/361/101
f 300/278/152 27/27/152 235/212/152
f 27/27/152 300/278/152 25/25/152
f 64/470/110 65/471/110 478/472/110
f 64/470/110 478/472/110 479/473/110
f 64/470/110 479/473/110 61/474/110
f 61/474/110 479/473/110 480/475/110
f 61/474/110 480/475/110 59/476/110
f 59/476/110 480/475/110 481/477/110
f 59/476/110 481/477/110 482/478/110
f 59/476/110 482/478/110 58/479/110
f 58/479/110 482/478/110 483/480/110
f 58/479/110 483/480/110 56/481/110
f 56/481/110 483/480/110 484/482/110
f 56/481/110 484/482/110 50/483/110
f 50/483/110 484/482/110 485/484/110
f 50/483/110 485/484/110 48/485/110
f 48/485/110 485/484/110 51/486/108
f 51/486/108 485/484/110 486/487/108
f 51/486/108 486/487/108 55/488/106
f 55/488/106 486/487/108 487/489/235
f 55/488/106 487/489/235 488/490/107
f 488/490/107 487/489/235 489/491/107
f 55/488/106 488/490/107 36/492/107
f 490/493/110 491/494/110 492/495/110
f 490/493/110 492/495/110 493/496/110
f 490/493/110 493/496/110 494/497/110
f 494/497/110 493/496/110 495/498/110
f 494/497/110 495/498/110 496/499/110
f 496/499/110 495/498/110 497/500/110
f 496/499/110 497/500/110 498/501/110
f 496/499/110 498/501/110 499/502/110
f 499/502/110 498/501/110 500/503/110
f 499/502/110 500/503/110 501/504/110
f 501/504/110 500/503/110 502/505/110
f 501/504/110 502/505/110 503/506/110
f 503/506/110 502/505/110 504/507/110
f 503/506/110 504/507/110 505/508/110
f 505/508/110 504/507/110 506/509/108
f 506/509/108 504/507/110 507/510/108
f 506/509/108 507/510/108 508/511/106
f 506/509/108 508/511/106 509/512/106
f 509/512/106 508/511/106 510/513/107
f 509/512/106 510/513/107 511/514/107
f 512/515/121 20/20/121 513/516/121
f 20/20/121 512/515/121 24/24/121
f 229/206/100 228/205/100 514/245/115
f 229/206/100 514/245/115 515/246/115
f 515/246/115 514/245/115 516/247/116
f 515/246/115 516/247/116 517/248/116
f 517/248/116 516/247/116 518/249/117
f 517/248/116 518/249/117 519/250/117
f 519/250/117 518/249/117 220/251/96
f 519/250/117 220/251/96 219/252/96
f 520/141/55 152/142/54 151/143/54
f 152/142/54 520/141/55 521/144/55
f 521/144/55 520/141/55 522/145/56
f 521/144/55 522/145/56 523/146/56
f 523/146/56 522/145/56 524/147/57
f 523/146/56 524/147/57 525/148/57
f 525/148/57 524/147/57 142/130/49
f 525/148/57 142/130/49 141/129/49
f 437/419/236 439/421/8 526/517/237
f 526/517/237 439/421/8 527/518/238
f 527/518/238 439/421/8 441/423/8
f 527/518/238 441/423/8 528/519/238
f 528/519/238 441/423/8 443/425/8
f 527/518/238 528/519/238 529/520/239
f 527/518/238 529/520/239 530/521/239
f 527/518/238 530/521/239 526/517/237
f 530/521/239 529/520/239 256/244/240
f 530/521/239 256/244/240 255/243/240
f 530/521/239 255/243/240 531/522/241
f 530/521/239 531/522/241 526/517/237
f 531/522/241 255/243/240 252/238/240
f 532/523/237 437/419/236 526/517/237
f 532/523/237 526/517/237 531/522/241
f 437/419/236 532/523/237 436/418/242
f 531/522/241 252/238/240 533/524/241
f 531/522/241 533/524/241 532/523/237
f 533/524/241 252/238/240 250/235/243
f 436/418/242 532/523/237 534/525/244
f 534/525/244 532/523/237 533/524/241
f 533/524/241 250/235/243 535/526/245
f 533/524/241 535/526/245 534/525/244
f 535/526/245 250/235/243 248/231/246
f 535/526/245 248/231/246 245/228/246
f 535/526/245 245/228/246 536/527/245
f 535/526/245 536/527/245 534/525/244
f 536/527/245 245/228/246 243/225/247
f 537/528/244 436/418/242 534/525/244
f 537/528/244 534/525/244 536/527/245
f 436/418/242 537/528/244 434/416/242
f 434/416/242 537/528/244 538/529/248
f 538/529/248 537/528/244 536/527/245
f 434/416/242 538/529/248 432/414/249
f 536/527/245 243/225/247 539/530/250
f 536/527/245 539/530/250 538/529/248
f 539/530/250 243/225/247 242/223/247
f 432/414/249 538/529/248 540/531/251
f 540/531/251 538/529/248 539/530/250
f 432/414/249 540/531/251 429/411/249
f 429/411/249 540/531/251 431/413/252
f 431/413/252 540/531/251 541/532/253
f 540/531/251 539/530/250 542/533/254
f 542/533/254 539/530/250 242/223/247
f 540/531/251 542/533/254 541/532/253
f 542/533/254 242/223/247 543/534/255
f 542/533/254 543/534/255 541/532/253
f 543/534/255 242/223/247 239/219/256
f 543/534/255 239/219/256 237/217/257
f 543/534/255 237/217/257 544/535/258
f 544/535/258 237/217/257 238/218/259
f 544/535/258 238/218/259 545/536/260
f 544/535/258 545/536/260 543/534/255
f 545/536/260 238/218/259 546/537/261
f 545/536/260 546/537/261 547/538/262
f 545/536/260 547/538/262 548/539/263
f 545/536/260 548/539/263 543/534/255
f 548/539/263 547/538/262 549/540/264
f 543/534/255 548/539/263 132/128/265
f 132/128/265 548/539/263 549/540/264
f 543/534/255 132/128/265 541/532/253
f 132/128/265 549/540/264 130/126/252
f 541/532/253 132/128/265 550/541/110
f 550/541/110 132/128/265 131/127/121
f 550/541/110 131/127/121 551/542/121
f 551/542/121 131/127/121 127/123/121
f 550/541/110 551/542/121 552/543/110
f 550/541/110 552/543/110 553/544/110
f 553/544/110 552/543/110 554/545/110
f 553/544/110 554/545/110 555/546/110
f 555/546/110 554/545/110 556/547/110
f 551/542/121 127/123/121 557/548/266
f 557/548/266 127/123/121 129/125/220
f 424/406/267 422/404/268 557/548/266
f 424/406/267 557/548/266 558/549/269
f 557/548/266 129/125/220 559/550/270
f 557/548/266 559/550/270 558/549/269
f 424/406/267 558/549/269 560/551/269
f 560/551/269 558/549/269 559/550/270
f 424/406/267 560/551/269 425/407/271
f 425/407/271 560/551/269 561/552/272
f 425/407/271 561/552/272 433/415/271
f 560/551/269 559/550/270 562/553/273
f 560/551/269 562/553/273 561/552/272
f 562/553/273 559/550/270 502/505/274
f 502/505/274 559/550/270 504/507/275
f 562/553/273 502/505/274 500/503/274
f 504/507/275 559/550/270 507/510/276
f 562/553/273 500/503/274 563/554/277
f 562/553/273 563/554/277 561/552/272
f 563/554/277 500/503/274 498/501/278
f 507/510/276 559/550/270 564/555/279
f 564/555/279 559/550/270 129/125/220
f 507/510/276 564/555/279 508/511/280
f 563/554/277 498/501/278 565/556/277
f 563/554/277 565/556/277 561/552/272
f 565/556/277 498/501/278 497/500/281
f 564/555/279 129/125/220 566/557/282
f 566/557/282 129/125/220 128/124/268
f 566/557/282 128/124/268 567/558/283
f 566/557/282 567/558/283 568/559/284
f 566/557/282 568/559/284 569/560/285
f 569/560/285 568/559/284 570/561/286
f 564/555/279 566/557/282 571/562/287
f 571/562/287 566/557/282 569/560/285
f 571/562/287 569/560/285 570/561/286
f 564/555/279 571/562/287 508/511/280
f 571/562/287 570/561/286 510/513/288
f 571/562/287 510/513/288 508/511/280
f 572/563/289 565/556/277 497/500/281
f 573/564/272 561/552/272 565/556/277
f 573/564/272 565/556/277 572/563/289
f 561/552/272 573/564/272 433/415/271
f 433/415/271 573/564/272 435/417/290
f 435/417/290 573/564/272 574/565/291
f 574/565/291 573/564/272 572/563/289
f 435/417/290 574/565/291 438/420/292
f 438/420/292 574/565/291 440/422/293
f 440/422/293 574/565/291 575/566/294
f 575/566/294 574/565/291 572/563/289
f 440/422/293 575/566/294 442/424/295
f 576/567/296 572/563/289 497/500/281
f 572/563/289 576/567/296 575/566/294
f 576/567/296 497/500/281 495/498/47
f 442/424/295 575/566/294 577/568/294
f 577/568/294 575/566/294 576/567/296
f 442/424/295 577/568/294 444/426/295
f 444/426/295 577/568/294 578/569/294
f 577/568/294 576/567/296 579/570/296
f 579/570/296 576/567/296 495/498/47
f 577/568/294 579/570/296 578/569/294
f 579/570/296 495/498/47 493/496/297
f 578/569/294 579/570/296 580/571/296
f 580/571/296 579/570/296 493/496/297
f 580/571/296 493/496/297 492/495/297
f 509/512/284 511/514/298 581/572/299
f 581/572/299 511/514/298 582/573/300
f 582/573/300 511/514/298 489/491/301
f 582/573/300 489/491/301 487/489/302
f 582/573/300 487/489/302 583/574/303
f 582/573/300 583/574/303 581/572/299
f 583/574/303 487/489/302 486/487/304
f 509/512/284 581/572/299 584/575/305
f 584/575/305 581/572/299 583/574/303
f 509/512/284 584/575/305 506/509/306
f 506/509/306 584/575/305 505/508/307
f 584/575/305 583/574/303 585/576/254
f 584/575/305 585/576/254 505/508/307
f 583/574/303 486/487/304 586/577/308
f 583/574/303 586/577/308 585/576/254
f 586/577/308 486/487/304 485/484/309
f 586/577/308 485/484/309 484/482/310
f 586/577/308 484/482/310 587/578/311
f 586/577/308 587/578/311 585/576/254
f 587/578/311 484/482/310 483/480/312
f 588/579/313 505/508/307 585/576/254
f 588/579/313 585/576/254 587/578/311
f 505/508/307 588/579/313 503/506/307
f 587/578/311 483/480/312 589/580/314
f 587/578/311 589/580/314 588/579/313
f 589/580/314 483/480/312 482/478/315
f 503/506/307 588/579/313 590/581/313
f 590/581/313 588/579/313 589/580/314
f 503/506/307 590/581/313 501/504/316
f 589/580/314 482/478/315 591/582/314
f 589/580/314 591/582/314 590/581/313
f 591/582/314 482/478/315 481/477/317
f 501/504/316 590/581/313 592/583/318
f 592/583/318 590/581/313 591/582/314
f 501/504/316 592/583/318 499/502/319
f 591/582/314 481/477/317 593/584/320
f 591/582/314 593/584/320 592/583/318
f 499/502/319 592/583/318 594/585/321
f 594/585/321 592/583/318 593/584/320
f 499/502/319 594/585/321 496/499/322
f 496/499/322 594/585/321 494/497/323
f 494/497/323 594/585/321 595/586/324
f 595/586/324 594/585/321 593/584/320
f 494/497/323 595/586/324 490/493/323
f 596/587/325 593/584/320 481/477/317
f 593/584/320 596/587/325 595/586/324
f 596/587/325 481/477/317 480/475/326
f 490/493/323 595/586/324 597/588/324
f 597/588/324 595/586/324 596/587/325
f 490/493/323 597/588/324 491/494/323
f 491/494/323 597/588/324 598/589/324
f 597/588/324 596/587/325 599/590/327
f 599/590/327 596/587/325 480/475/326
f 597/588/324 599/590/327 598/589/324
f 599/590/327 480/475/326 479/473/328
f 598/589/324 599/590/327 600/591/327
f 600/591/327 599/590/327 479/473/328
f 600/591/327 479/473/328 478/472/328
f 301/279/326 24/24/326 512/515/326
f 24/24/326 301/279/326 26/26/326
f 601/592/329 213/593/330 602/594/330
f 213/593/330 601/592/329 214/595/329
f 214/595/329 601/592/329 603/596/331
f 214/595/329 603/596/331 215/597/331
f 215/597/331 603/596/331 604/598/332
f 215/597/331 604/598/332 216/599/332
f 216/599/332 604/598/332 605/600/333
f 216/599/332 605/600/333 217/601/333
f 217/601/333 605/600/333 606/602/334
f 217/601/333 606/602/334 210/603/334
f 142/130/334 228/205/334 226/203/333
f 142/130/334 226/203/333 143/131/333
f 143/131/333 226/203/333 224/201/332
f 143/131/333 224/201/332 145/133/332
f 145/133/332 224/201/332 222/199/331
f 145/133/332 222/199/331 147/135/331
f 147/135/331 222/199/331 218/195/329
f 147/135/331 218/195/329 149/137/329
f 149/137/329 218/195/329 220/197/330
f 149/137/329 220/197/330 151/139/330
f 607/604/335 608/605/335 103/606/335
f 608/605/335 607/604/335 609/607/335
f 229/206/334 610/608/334 611/609/333
f 229/206/334 611/609/333 227/204/333
f 227/204/333 611/609/333 612/610/332
f 227/204/333 612/610/332 225/202/332
f 225/202/332 612/610/332 613/611/331
f 225/202/332 613/611/331 223/200/331
f 223/200/331 613/611/331 614/612/329
f 223/200/331 614/612/329 221/198/329
f 221/198/329 614/612/329 615/613/330
f 221/198/329 615/613/330 219/196/330
f 567/558/108 128/124/110 130/126/110
f 567/558/108 130/126/110 549/540/108
f 567/558/108 549/540/108 547/538/106
f 567/558/108 547/538/106 568/559/106
f 568/559/106 547/538/106 546/537/107
f 568/559/106 546/537/107 570/561/107
f 75/73/329 152/614/330 77/75/330
f 152/614/330 75/73/329 150/615/329
f 150/615/329 75/73/329 73/72/331
f 150/615/329 73/72/331 148/616/331
f 148/616/331 73/72/331 71/71/332
f 148/616/331 71/71/332 146/617/332
f 146/617/332 71/71/332 69/69/333
f 146/617/332 69/69/333 144/618/333
f 144/618/333 69/69/333 68/68/334
f 144/618/333 68/68/334 141/619/334
f 234/211/149 23/23/149 299/277/149
f 23/23/149 234/211/149 22/22/149
f 201/603/334 616/602/334 617/620/336
f 201/603/334 617/620/336 202/621/336
f 202/621/336 617/620/336 618/622/110
f 202/621/336 618/622/110 200/623/110
f 200/623/110 618/622/110 619/624/337
f 200/623/110 619/624/337 203/625/337
f 203/625/337 619/624/337 620/626/330
f 203/625/337 620/626/330 204/627/330
f 474/466/338 621/628/338 81/452/338
f 621/628/338 474/466/338 622/629/338
f 623/159/68 624/166/75 625/161/70
f 623/159/68 625/161/70 626/158/67
f 625/161/70 624/166/75 627/167/76
f 625/161/70 627/167/76 626/158/67
f 624/166/75 623/159/68 628/162/71
f 628/162/71 623/159/68 140/160/69
f 628/162/71 140/160/69 114/163/72
f 628/162/71 114/163/72 459/164/73
f 140/160/69 623/159/68 138/157/66
f 628/162/71 459/164/73 460/165/74
f 628/162/71 460/165/74 624/166/75
f 138/157/66 623/159/68 629/156/65
f 629/156/65 623/159/68 626/158/67
f 138/157/66 629/156/65 136/155/64
f 136/155/64 629/156/65 630/149/58
f 630/149/58 629/156/65 626/158/67
f 136/155/64 630/149/58 134/153/62
f 624/166/75 460/165/74 631/168/77
f 631/168/77 460/165/74 461/169/78
f 624/166/75 631/168/77 627/167/76
f 134/153/62 630/149/58 445/152/61
f 134/153/62 445/152/61 122/154/63
f 445/152/61 630/149/58 448/151/60
f 631/168/77 461/169/78 632/170/79
f 631/168/77 632/170/79 627/167/76
f 632/170/79 461/169/78 463/171/80
f 632/170/79 463/171/80 467/172/81
f 448/151/60 630/149/58 633/150/59
f 633/150/59 630/149/58 626/158/67
f 448/151/60 633/150/59 634/184/93
f 633/150/59 626/158/67 635/185/94
f 633/150/59 635/185/94 634/184/93
f 635/185/94 626/158/67 627/167/76
f 448/151/60 634/184/93 450/183/92
f 634/184/93 635/185/94 636/176/85
f 636/176/85 635/185/94 627/167/76
f 450/183/92 634/184/93 637/182/91
f 637/182/91 634/184/93 636/176/85
f 450/183/92 637/182/91 453/181/90
f 636/176/85 627/167/76 638/175/84
f 638/175/84 627/167/76 632/170/79
f 453/181/90 637/182/91 639/179/88
f 453/181/90 639/179/88 455/180/89
f 637/182/91 636/176/85 640/178/87
f 637/182/91 640/178/87 639/179/88
f 455/180/89 639/179/88 468/174/83
f 468/174/83 639/179/88 640/178/87
f 640/178/87 636/176/85 641/177/86
f 641/177/86 636/176/85 638/175/84
f 640/178/87 641/177/86 468/174/83
f 642/173/82 638/175/84 632/170/79
f 638/175/84 642/173/82 641/177/86
f 641/177/86 642/173/82 468/174/83
f 642/173/82 632/170/79 467/172/81
f 642/173/82 467/172/81 468/174/83
f 263/249/337 161/143/330 265/251/330
f 161/143/330 263/249/337 159/141/337
f 159/141/337 263/249/337 261/247/110
f 159/141/337 261/247/110 163/145/110
f 163/145/110 261/247/110 259/245/336
f 163/145/110 259/245/336 165/147/336
f 165/147/336 259/245/336 258/205/334
f 165/147/336 258/205/334 167/130/334
f 643/630/337 266/252/330 644/631/330
f 266/252/330 643/630/337 264/250/337
f 264/250/337 643/630/337 645/632/110
f 264/250/337 645/632/110 262/248/110
f 262/248/110 645/632/110 646/633/336
f 262/248/110 646/633/336 260/246/336
f 260/246/336 646/633/336 647/608/334
f 260/246/336 647/608/334 257/206/334
f 513/516/323 19/19/323 302/280/323
f 19/19/323 513/516/323 20/20/323
f 168/619/334 121/68/334 119/117/336
f 168/619/334 119/117/336 166/634/336
f 166/634/336 119/117/336 117/115/110
f 166/634/336 117/115/110 164/635/110
f 164/635/110 117/115/110 113/111/337
f 164/635/110 113/111/337 162/636/337
f 162/636/337 113/111/337 115/113/330
f 162/636/337 115/113/330 160/637/330
f 67/154/63 172/152/61 648/427/212
f 67/154/63 648/427/212 158/428/213
f 648/427/212 172/152/61 649/429/214
f 649/429/214 172/152/61 171/151/60
f 158/428/213 648/427/212 650/430/215
f 650/430/215 648/427/212 649/429/214
f 158/428/213 650/430/215 156/431/216
f 649/429/214 171/151/60 197/183/92
f 156/431/216 650/430/215 154/432/217
f 649/429/214 197/183/92 651/433/218
f 651/433/218 197/183/92 652/434/219
f 652/434/219 197/183/92 195/181/90
f 649/429/214 651/433/218 653/435/220
f 649/429/214 653/435/220 650/430/215
f 652/434/219 195/181/90 194/180/89
f 653/435/220 651/433/218 654/436/221
f 654/436/221 651/433/218 652/434/219
f 650/430/215 653/435/220 655/437/222
f 650/430/215 655/437/222 154/432/217
f 653/435/220 654/436/221 656/438/223
f 653/435/220 656/438/223 655/437/222
f 154/432/217 655/437/222 178/439/73
f 178/439/73 655/437/222 656/438/223
f 154/432/217 178/439/73 78/440/72
f 178/439/73 656/438/223 179/441/74
f 179/441/74 656/438/223 183/442/78
f 183/442/78 656/438/223 657/443/224
f 657/443/224 656/438/223 654/436/221
f 183/442/78 657/443/224 185/444/80
f 657/443/224 654/436/221 658/445/225
f 658/445/225 654/436/221 652/434/219
f 185/444/80 657/443/224 659/446/226
f 659/446/226 657/443/224 658/445/225
f 185/444/80 659/446/226 660/447/227
f 185/444/80 660/447/227 186/448/81
f 186/448/81 660/447/227 188/174/83
f 660/447/227 659/446/226 661/449/228
f 661/449/228 659/446/226 658/445/225
f 660/447/227 661/449/228 188/174/83
f 662/450/229 658/445/225 652/434/219
f 658/445/225 662/450/229 661/449/228
f 661/449/228 662/450/229 188/174/83
f 662/450/229 652/434/219 194/180/89
f 662/450/229 194/180/89 188/174/83
f 663/592/329 204/593/330 620/594/330
f 204/593/330 663/592/329 205/595/329
f 205/595/329 663/592/329 664/596/331
f 205/595/329 664/596/331 206/597/331
f 206/597/331 664/596/331 665/598/332
f 206/597/331 665/598/332 207/599/332
f 207/599/332 665/598/332 666/600/333
f 207/599/332 666/600/333 208/601/333
f 208/601/333 666/600/333 616/602/334
f 208/601/333 616/602/334 201/603/334
f 167/130/334 258/205/334 416/203/333
f 167/130/334 416/203/333 269/131/333
f 269/131/333 416/203/333 414/201/332
f 269/131/333 414/201/332 271/133/332
f 271/133/332 414/201/332 412/199/331
f 271/133/332 412/199/331 273/135/331
f 273/135/331 412/199/331 410/195/329
f 273/135/331 410/195/329 275/137/329
f 275/137/329 410/195/329 265/197/330
f 275/137/329 265/197/330 161/139/330
f 257/206/334 647/608/334 667/609/333
f 257/206/334 667/609/333 417/204/333
f 417/204/333 667/609/333 668/610/332
f 417/204/333 668/610/332 415/202/332
f 415/202/332 668/610/332 669/611/331
f 415/202/332 669/611/331 413/200/331
f 413/200/331 669/611/331 670/612/329
f 413/200/331 670/612/329 411/198/329
f 411/198/329 670/612/329 644/613/330
f 411/198/329 644/613/330 266/196/330
f 139/73/329 160/614/330 115/75/330
f 160/614/330 139/73/329 276/615/329
f 276/615/329 139/73/329 137/72/331
f 276/615/329 137/72/331 274/616/331
f 274/616/331 137/72/331 135/71/332
f 274/616/331 135/71/332 272/617/332
f 272/617/332 135/71/332 133/69/333
f 272/617/332 133/69/333 270/618/333
f 270/618/333 133/69/333 121/68/334
f 270/618/333 121/68/334 168/619/334
f 552/543/339 551/542/340 423/405/340
f 552/543/339 423/405/340 421/403/339
f 552/543/339 421/403/339 420/402/341
f 552/543/339 420/402/341 554/545/341
f 554/545/341 420/402/341 556/547/342
f 556/547/342 420/402/341 419/401/342
f 556/547/342 419/401/342 427/409/343
f 556/547/342 427/409/343 555/546/343
f 555/546/343 427/409/343 553/544/344
f 553/544/344 427/409/343 428/410/344
f 553/544/344 428/410/344 430/412/345
f 553/544/344 430/412/345 550/541/345
f 671/638/346 672/639/347 570/561/347
f 672/639/347 671/638/346 673/640/346
f 673/640/346 671/638/346 674/641/348
f 673/640/346 674/641/348 675/642/348
f 210/603/334 606/602/334 676/620/336
f 210/603/334 676/620/336 211/621/336
f 211/621/336 676/620/336 677/622/110
f 211/621/336 677/622/110 209/623/110
f 209/623/110 677/622/110 678/624/337
f 209/623/110 678/624/337 212/625/337
f 212/625/337 678/624/337 602/626/330
f 212/625/337 602/626/330 213/627/330
f 518/249/337 151/143/330 220/251/330
f 151/143/330 518/249/337 520/141/337
f 520/141/337 518/249/337 516/247/110
f 520/141/337 516/247/110 522/145/110
f 522/145/110 516/247/110 514/245/336
f 522/145/110 514/245/336 524/147/336
f 524/147/336 514/245/336 228/205/334
f 524/147/336 228/205/334 142/130/334
f 620/626/349 643/630/350 644/631/349
f 643/630/350 620/626/349 619/624/350
f 679/643/351 477/469/352 407/385/351
f 477/469/352 679/643/351 680/644/352
f 477/469/352 680/644/352 476/468/353
f 476/468/353 680/644/352 681/645/353
f 233/210/187 12/12/187 268/254/187
f 12/12/187 233/210/187 11/11/187
f 682/630/337 219/252/330 615/631/330
f 219/252/330 682/630/337 519/250/337
f 519/250/337 682/630/337 683/632/110
f 519/250/337 683/632/110 517/248/110
f 517/248/110 683/632/110 684/633/336
f 517/248/110 684/633/336 515/246/336
f 515/246/336 684/633/336 610/608/334
f 515/246/336 610/608/334 229/206/334
f 141/619/334 68/68/334 157/117/336
f 141/619/334 157/117/336 525/634/336
f 525/634/336 157/117/336 155/115/110
f 525/634/336 155/115/110 523/635/110
f 523/635/110 155/115/110 153/111/337
f 523/635/110 153/111/337 521/636/337
f 521/636/337 153/111/337 77/113/330
f 521/636/337 77/113/330 152/637/330
f 472/464/293 15/15/293 303/281/293
f 15/15/293 472/464/293 14/14/293
f 602/626/349 682/630/350 615/631/349
f 682/630/350 602/626/349 678/624/350
f 685/646/354 675/647/354 674/641/354
f 675/647/354 685/646/354 686/648/354
f 686/648/354 685/646/354 608/605/355
f 686/648/354 608/605/355 609/607/355
f 687/649/355 688/650/101 49/49/101
f 687/649/355 49/49/101 53/53/355
f 687/649/355 53/53/355 35/35/354
f 687/649/355 35/35/354 689/651/354
f 238/218/356 690/652/357 546/537/356
f 546/537/356 690/652/357 671/638/357
f 546/537/356 671/638/357 570/561/356
f 690/652/357 238/218/356 103/606/358
f 103/606/358 238/218/356 101/214/356
f 691/653/359 692/654/359 693/655/359
f 694/656/360 695/657/361 696/658/362
f 694/656/360 696/658/362 697/659/363
f 694/656/360 697/659/363 698/660/101
f 694/656/360 698/660/101 699/661/354
f 694/656/360 699/661/354 700/662/354
f 700/662/354 699/661/354 672/663/354
f 700/662/354 672/663/354 701/662/354
f 701/662/354 672/663/354 702/664/101
f 475/467/364 622/629/364 474/466/364
f 622/629/364 475/467/364 703/665/364
f 703/665/364 475/467/364 476/468/365
f 703/665/364 476/468/365 681/645/365
f 643/630/350 619/624/350 645/632/366
f 645/632/366 619/624/350 618/622/366
f 645/632/366 618/622/366 646/633/367
f 646/633/367 618/622/366 617/620/367
f 702/666/368 704/667/368 705/668/368
f 671/638/357 690/652/357 674/641/369
f 674/641/369 690/652/357 685/646/369
f 685/646/369 690/652/357 608/605/370
f 608/605/370 690/652/357 103/606/358
f 706/669/371 707/670/371 37/671/371
f 707/670/371 706/669/371 708/672/371
f 709/673/372 692/674/373 679/675/374
f 709/673/372 679/675/374 710/676/375
f 709/673/372 710/676/375 711/677/376
f 711/677/376 710/676/375 712/678/377
f 711/677/376 712/678/377 713/679/377
f 711/677/376 713/679/377 714/680/121
f 697/681/378 488/490/378 489/491/378
f 488/490/378 697/681/378 696/682/378
f 712/683/379 279/257/380 278/256/379
f 712/683/379 278/256/379 713/684/381
f 706/669/230 36/492/230 488/490/230
f 36/492/230 706/669/230 37/671/230
f 684/633/367 676/620/367 606/602/382
f 684/633/367 606/602/382 610/608/382
f 610/608/382 606/602/382 605/600/383
f 610/608/382 605/600/383 611/609/383
f 611/609/383 605/600/383 612/610/384
f 612/610/384 605/600/383 604/598/384
f 612/610/384 604/598/384 603/596/385
f 612/610/384 603/596/385 613/611/385
f 613/611/385 603/596/385 614/612/386
f 614/612/386 603/596/385 601/592/386
f 614/612/386 601/592/386 615/613/349
f 615/613/349 601/592/386 602/594/349
f 511/514/387 697/681/388 489/491/388
f 697/681/388 511/514/387 698/685/387
f 698/685/387 511/514/387 510/513/389
f 698/685/387 510/513/389 699/686/389
f 715/687/390 409/389/390 41/388/390
f 409/389/390 715/687/390 716/688/390
f 682/630/350 678/624/350 683/632/366
f 683/632/366 678/624/350 677/622/366
f 683/632/366 677/622/366 684/633/367
f 684/633/367 677/622/366 676/620/367
f 717/689/381 88/86/381 86/84/391
f 717/689/381 86/84/391 718/690/391
f 718/690/391 86/84/391 693/691/392
f 693/691/392 86/84/391 85/83/392
f 693/691/392 85/83/392 691/692/393
f 691/692/393 85/83/392 82/80/393
f 691/692/393 82/80/393 79/77/121
f 691/692/393 79/77/121 719/693/121
f 719/693/121 79/77/121 81/79/394
f 719/693/121 81/79/394 621/694/394
f 40/40/395 715/695/396 41/41/396
f 715/695/396 40/40/395 720/696/395
f 720/696/395 40/40/395 721/697/397
f 721/697/397 40/40/395 44/44/397
f 721/697/397 44/44/397 46/46/110
f 721/697/397 46/46/110 722/698/110
f 672/639/398 510/513/398 570/561/398
f 510/513/398 672/639/398 699/686/398
f 646/633/367 617/620/367 616/602/382
f 646/633/367 616/602/382 647/608/382
f 647/608/382 616/602/382 666/600/383
f 647/608/382 666/600/383 667/609/383
f 667/609/383 666/600/383 668/610/384
f 668/610/384 666/600/383 665/598/384
f 668/610/384 665/598/384 664/596/385
f 668/610/384 664/596/385 669/611/385
f 669/611/385 664/596/385 670/612/386
f 670/612/386 664/596/385 663/592/386
f 670/612/386 663/592/386 644/613/349
f 644/613/349 663/592/386 620/594/349
f 279/257/380 679/643/399 407/385/399
f 679/643/399 279/257/380 710/699/380
f 710/699/380 279/257/380 712/683/379
f 713/684/381 278/256/379 308/286/381
f 49/49/370 722/698/370 46/46/370
f 722/698/370 49/49/370 688/650/370
f 723/700/101 607/701/355 103/101/355
f 723/700/101 103/101/355 102/100/101
f 723/700/101 102/100/101 704/702/400
f 704/702/400 102/100/101 97/95/400
f 704/702/400 97/95/400 95/93/401
f 704/702/400 95/93/401 705/703/401
f 705/703/401 95/93/401 91/89/402
f 705/703/401 91/89/402 724/704/402
f 724/704/402 91/89/402 90/88/403
f 724/704/402 90/88/403 725/705/403
f 725/705/403 90/88/403 88/86/381
f 725/705/403 88/86/381 717/689/381
f 711/677/404 720/706/405 721/707/406
f 232/209/179 4/4/179 267/253/179
f 4/4/179 232/209/179 2/2/179
f 705/668/14 701/662/83 702/666/83
f 701/662/83 705/668/14 700/662/13
f 700/662/13 705/668/14 724/708/14
f 700/662/13 724/708/14 725/709/13
f 700/662/13 725/709/13 726/673/83
f 726/673/83 725/709/13 717/710/83
f 726/673/83 717/710/83 718/711/83
f 726/673/83 718/711/83 693/655/407
f 726/673/83 693/655/407 692/654/13
f 726/673/83 692/654/13 709/673/13
f 473/465/240 7/7/240 304/282/240
f 7/7/240 473/465/240 8/8/240
f 687/712/408 707/713/408 695/714/408
f 707/713/408 687/712/408 689/715/408
f 409/389/409 713/684/409 308/286/409
f 713/684/409 409/389/409 716/688/409
f 551/542/370 422/404/370 423/405/370
f 422/404/370 551/542/370 557/548/370
f 550/541/370 431/413/370 541/532/370
f 431/413/370 550/541/370 430/412/370
f 696/682/410 706/669/410 488/490/410
f 706/669/410 696/682/410 708/672/410
f 707/716/411 35/35/411 37/37/411
f 35/35/411 707/716/411 689/651/411
f 715/717/412 711/677/404 714/718/412
f 711/677/404 715/717/412 720/706/405
f 721/707/406 722/719/413 711/677/404
f 726/673/414 694/656/414 700/662/415
f 694/656/414 726/673/414 711/677/414
f 711/677/414 726/673/414 709/673/415
f 694/656/33 711/677/33 722/719/33
f 694/656/33 722/719/33 688/720/33
f 694/656/33 688/720/33 695/714/32
f 695/714/32 688/720/33 687/712/32
f 30/30/416 31/31/417 111/721/417
f 30/30/416 111/721/417 112/722/416
f 254/723/416 30/30/416 112/724/416
f 30/30/416 254/723/416 32/32/416
f 377/725/417 233/210/417 383/726/417
f 233/210/417 377/725/417 34/34/417
f 33/33/417 34/34/417 377/727/417
f 33/33/417 377/727/417 376/728/417
f 33/33/417 376/728/417 373/729/417
f 33/33/417 373/729/417 267/253/417
f 267/253/417 373/729/417 372/730/417
f 267/253/417 372/730/417 232/209/417
f 111/731/417 232/209/417 372/732/417
f 232/209/417 111/731/417 31/31/417
f 304/282/416 32/32/416 254/733/416
f 304/282/416 254/733/416 256/734/416
f 303/281/416 38/38/416 443/735/416
f 303/281/416 443/735/416 444/736/416
f 302/280/416 125/121/416 492/737/416
f 302/280/416 492/737/416 491/738/416
f 302/280/416 491/738/416 513/516/416
f 513/516/416 491/738/416 598/739/416
f 513/516/416 598/739/416 512/515/416
f 512/515/416 598/739/416 600/740/416
f 512/515/416 600/740/416 478/741/416
f 512/515/416 478/741/416 301/279/416
f 301/279/416 478/741/416 65/742/416
f 301/279/416 65/742/416 231/208/416
f 66/743/417 231/208/416 65/744/416
f 231/208/416 66/743/417 230/207/417
f 235/212/417 230/207/417 66/745/417
f 235/212/417 66/745/417 335/746/417
f 235/212/417 335/746/417 300/278/417
f 300/278/417 335/746/417 334/747/417
f 300/278/417 334/747/417 331/748/417
f 300/278/417 331/748/417 299/277/417
f 299/277/417 331/748/417 298/749/417
f 299/277/417 298/749/417 234/211/417
f 234/211/417 298/749/417 297/750/417
f 234/211/417 297/750/417 124/120/417
f 123/119/417 124/120/417 297/751/417
f 123/119/417 297/751/417 378/752/417
f 123/119/417 378/752/417 380/753/417
f 123/119/417 380/753/417 268/254/417
f 268/254/417 380/753/417 383/754/417
f 268/254/417 383/754/417 233/210/417
f 473/465/416 304/282/416 256/755/416
f 473/465/416 256/755/416 529/756/416
f 473/465/416 529/756/416 528/757/416
f 473/465/416 528/757/416 39/39/416
f 39/39/416 528/757/416 443/758/416
f 39/39/416 443/758/416 38/38/416
f 472/464/416 303/281/416 444/759/416
f 472/464/416 444/759/416 578/760/416
f 472/464/416 578/760/416 580/761/416
f 472/464/416 580/761/416 126/122/416
f 126/122/416 580/761/416 492/762/416
f 126/122/416 492/762/416 125/121/416
