# CS2 body mesh, tools/cs2_glb_to_obj.py
v 0.04755 -0.03202 0.36076
v -0.04626 0.0557 0.36711
v 0.04755 0.05571 0.36711
v -0.04626 0.06443 0.36477
v 0.04755 0.06443 0.36477
v -0.04626 0.07083 0.35838
v 0.04755 0.07083 0.35838
v 0.04876 0.05505 0.33961
v 0.03775 0.05571 0.34965
v 0.04755 -0.03202 0.34965
v 0.04876 0.06007 0.34096
v 0.04876 0.06374 0.34463
v 0.04876 0.06509 0.34965
v 0.04876 0.06374 0.35466
v 0.04876 0.06007 0.35834
v 0.04876 0.05505 0.35968
v 0.04755 0.0557 0.33219
v 0.04755 0.06443 0.33453
v 0.04756 0.07083 0.34092
v 0.04755 0.07316 0.34965
v -0.04747 0.05505 0.35968
v -0.03645 0.0557 0.34965
v -0.04626 -0.03202 0.34965
v -0.04747 0.06007 0.35834
v -0.04747 0.06374 0.35467
v -0.04747 0.06509 0.34965
v -0.04747 0.06374 0.34463
v -0.04747 0.06007 0.34096
v -0.04747 0.05505 0.33961
v -0.04626 0.07316 0.34965
v -0.04626 0.07083 0.34092
v -0.04626 0.06443 0.33453
v -0.04626 0.0557 0.33219
v -0.04626 -0.03202 0.33949
v 0.04755 -0.03202 0.33948
vt 0.978027 0.86523
vt 0.927732 0.816401
vt 0.978027 0.816401
vt 0.927732 0.811518
vt 0.978027 0.811518
vt 0.927732 0.8081
vt 0.978027 0.8081
vt 0.922849 0.816889
vt 0.917478 0.816401
vt 0.921873 0.86523
vt 0.922361 0.813959
vt 0.920408 0.812006
vt 0.917478 0.811029
vt 0.914548 0.812006
vt 0.912595 0.813959
vt 0.911618 0.816889
vt 0.91406 0.86523
vt 0.927244 0.816401
vt 0.925779 0.811518
vt 0.922361 0.8081
vt 0.917478 0.806635
vt 0.912595 0.8081
vt 0.909177 0.811518
vt 0.907712 0.816401
vt 0.993164 0.816889
vt 0.987793 0.816401
vt 0.991211 0.86523
vt 0.992676 0.813959
vt 0.990234 0.812006
vt 0.987793 0.811029
vt 0.984863 0.812006
vt 0.98291 0.813959
vt 0.981933 0.816889
vt 0.983398 0.86523
vt 0.997559 0.816401
vt 0.996094 0.811518
vt 0.992676 0.8081
vt 0.987793 0.806635
vt 0.98291 0.8081
vt 0.979003 0.811518
vt 0.927244 0.86523
vt 0.927244 0.811518
vt 0.927244 0.806635
vt 0.978027 0.806635
vt 0.927244 0.801752
vt 0.978027 0.801752
vt 0.927244 0.796869
vt 0.978027 0.796869
vn 0 -0.0354 0.9994
vn 0 -0.0417 0.9991
vn 0.0013 0.4983 0.867
vn 0.0014 0.7071 0.7071
vn 0.6749 0.0619 0.7353
vn 0.9971 0.0767 0.0011
vn 0.6741 0.0739 0.735
vn 0.6617 -0.3704 0.6519
vn 0.6507 -0.6556 0.3831
vn 0.6476 -0.762 0
vn 0.6507 -0.6556 -0.3831
vn 0.6617 -0.3704 -0.6519
vn 0.6749 0.0619 -0.7353
vn 0.6741 0.0739 -0.735
vn 0.9861 -0.0288 -0.1636
vn 0.9888 -0.0238 -0.1474
vn 0.9879 0.069 -0.1391
vn 1 -0.001 -0.0039
vn 0.9879 0.0762 -0.1348
vn 0.9885 0.1275 -0.0807
vn 0.9887 0.1296 -0.0759
vn 0.9889 0.1486 -0.0056
vn 0.9889 0.1483 -0.0033
vn 0.9886 0.1339 0.0687
vn 0.9888 0.1316 0.071
vn 0.9882 0.0809 0.1301
vn 0.9862 -0.0264 0.1632
vn 0.9893 -0.0215 0.1446
vn 1 0.001 0.0029
vn -0.6749 0.0619 -0.7353
vn -0.9971 0.0767 0.0011
vn -0.6741 0.0739 -0.735
vn -0.6617 -0.3704 -0.6519
vn -0.6507 -0.6556 -0.3831
vn -0.6476 -0.762 0
vn -0.6507 -0.6556 0.3831
vn -0.6617 -0.3704 0.6519
vn -0.6749 0.0619 0.7353
vn -0.6741 0.0739 0.735
vn -0.9861 -0.0288 0.1636
vn -0.9893 -0.0215 0.1446
vn -0.9879 0.069 0.1391
vn -1 0.001 0.0029
vn -0.9879 0.0762 0.1348
vn -0.9885 0.1275 0.0807
vn -0.9887 0.1296 0.0759
vn -0.9889 0.1486 0.0056
vn -0.9889 0.1483 0.0033
vn -0.9886 0.1339 -0.0687
vn -0.9888 0.1316 -0.071
vn -0.9882 0.0809 -0.1301
vn -0.9889 -0.0101 -0.148
vn -0.9869 -0.0102 -0.1607
vn -1 -0.0069 -0.004
vn 0 -0.0417 -0.9991
vn 0 -0.0524 -0.9986
vn -0.0013 0.4983 -0.867
vn -0.0013 0.8652 -0.5015
vn -0.001 1 -0.001
vn 0.001 1 -0.001
vn 0.0012 0.9655 0.2603
o strap4__p0_c0
f 2/2/2 1/1/1 3/3/2
f 2/2/2 3/3/2 4/4/3
f 4/4/3 3/3/2 5/5/3
f 4/4/3 5/5/3 6/6/4
f 6/6/4 5/5/3 7/7/4
f 8/8/5 9/9/6 10/10/7
f 9/9/6 8/8/5 11/11/8
f 9/9/6 11/11/8 12/12/9
f 9/9/6 12/12/9 13/13/10
f 9/9/6 13/13/10 14/14/11
f 9/9/6 14/14/11 15/15/12
f 9/9/6 15/15/12 16/16/13
f 9/9/6 16/16/13 10/17/14
f 8/8/15 17/18/16 11/11/17
f 17/18/16 8/8/15 10/10/18
f 11/11/17 17/18/16 18/19/19
f 11/11/17 18/19/19 12/12/20
f 12/12/20 18/19/19 19/20/21
f 12/12/20 19/20/21 13/13/22
f 13/13/22 19/20/21 20/21/23
f 13/13/22 20/21/23 14/14/24
f 14/14/24 20/21/23 7/22/25
f 14/14/24 7/22/25 15/15/26
f 15/15/26 7/22/25 5/23/26
f 15/15/26 5/23/26 16/16/27
f 16/16/27 5/23/26 3/24/28
f 16/16/27 3/24/28 10/17/29
f 21/25/30 22/26/31 23/27/32
f 22/26/31 21/25/30 24/28/33
f 22/26/31 24/28/33 25/29/34
f 22/26/31 25/29/34 26/30/35
f 22/26/31 26/30/35 27/31/36
f 22/26/31 27/31/36 28/32/37
f 22/26/31 28/32/37 29/33/38
f 22/26/31 29/33/38 23/34/39
f 21/25/40 2/35/41 24/28/42
f 2/35/41 21/25/40 23/27/43
f 24/28/42 2/35/41 4/36/44
f 24/28/42 4/36/44 25/29/45
f 25/29/45 4/36/44 6/37/46
f 25/29/45 6/37/46 26/30/47
f 26/30/47 6/37/46 30/38/48
f 26/30/47 30/38/48 27/31/49
f 27/31/49 30/38/48 31/39/50
f 27/31/49 31/39/50 28/32/51
f 28/32/51 31/39/50 32/40/51
f 28/32/51 32/40/51 29/33/52
f 29/33/52 32/40/51 33/3/53
f 29/33/52 33/3/53 34/1/54
f 35/41/55 33/3/56 17/18/56
f 17/18/56 33/3/56 18/42/57
f 18/42/57 33/3/56 32/5/57
f 18/42/57 32/5/57 19/43/58
f 19/43/58 32/5/57 31/44/58
f 19/43/58 31/44/58 20/45/59
f 20/45/59 31/44/58 30/46/60
f 20/45/59 30/46/60 7/47/61
f 7/47/61 30/46/60 6/48/61
