# CS2 body mesh, tools/cs2_glb_to_obj.py
v -0.01786 0.41 -0.05568
v -0.01722 0.41173 -0.05086
v -0.01666 0.41 -0.0566
v -0.01217 0.41173 -0.05472
v -0.01218 0.41173 -0.04838
v -0.0117 0.41173 -0.04875
v -0.01363 0.41173 -0.04727
v -0.0117 0.41173 -0.05492
v -0.01155 0.40869 -0.05955
v -0.0113 0.40871 -0.05965
v -0.01669 0.41173 -0.04328
v -0.02108 0.41173 -0.04581
v -0.02204 0.41 -0.0515
v -0.02296 0.41 -0.0503
v -0.01862 0.41173 -0.03863
v -0.02352 0.41173 -0.03994
v -0.02591 0.41 -0.04519
v -0.02648 0.41 -0.0438
v -0.01927 0.41173 -0.03364
v -0.02435 0.41173 -0.03364
v -0.02801 0.41 -0.03809
v -0.02821 0.41 -0.0366
v -0.01862 0.41173 -0.02866
v -0.02352 0.41173 -0.02734
v -0.02821 0.41 -0.03069
v -0.02801 0.41 -0.0292
v -0.01669 0.41173 -0.02401
v -0.02108 0.41173 -0.02147
v -0.02648 0.41 -0.02349
v -0.02591 0.41 -0.0221
v -0.01363 0.41173 -0.02002
v -0.01722 0.41173 -0.01643
v -0.02295 0.41 -0.01698
v -0.02204 0.41 -0.01579
v -0.0117 0.41173 -0.01339
v -0.0117 0.41173 -0.01853
v -0.01217 0.41173 -0.01256
v -0.01786 0.41 -0.01161
v -0.01666 0.41 -0.01069
v 0.02434 0.41173 -0.03364
v 0.02351 0.41173 -0.03994
v 0.01861 0.41173 -0.03863
v 0.01668 0.41173 -0.04328
v 0.01927 0.41173 -0.03364
v 0.02108 0.41173 -0.04581
v 0.02351 0.41173 -0.02734
v 0.01362 0.41173 -0.04727
v 0.01861 0.41173 -0.02866
v 0.01721 0.41173 -0.05086
v 0.02108 0.41173 -0.02147
v 0.01217 0.41173 -0.05472
v 0.01668 0.41173 -0.02401
v 0.01217 0.41173 -0.04838
v 0.01169 0.41173 -0.04875
v 0.01169 0.41173 -0.05492
v 0.01721 0.41173 -0.01643
v 0.01362 0.41173 -0.02002
v 0.01169 0.41173 -0.01853
v 0.01217 0.41173 -0.01256
v 0.01169 0.41173 -0.01339
v 0.02801 0.41 -0.03809
v 0.0282 0.41 -0.0366
v 0.0282 0.41 -0.03069
v 0.02801 0.41 -0.0292
v 0.02648 0.41 -0.02349
v 0.0259 0.41 -0.0221
v 0.02295 0.41 -0.01698
v 0.02203 0.41 -0.01579
v 0.01666 0.41 -0.01069
v 0.01785 0.41 -0.01161
v 0.02648 0.41 -0.0438
v 0.0259 0.41 -0.04519
v 0.02295 0.41 -0.0503
v 0.02203 0.41 -0.0515
v 0.01785 0.41 -0.05568
v 0.01666 0.41 -0.0566
v 0.01154 0.4087 -0.05955
v 0.01129 0.40871 -0.05965
v 0.01146 0.41 -0.00771
v 0.01154 0.41 -0.00774
v 0.01169 0.41173 -0.01237
v -0.0117 0.41173 -0.01237
v -0.01147 0.41 -0.00771
v -0.01155 0.41 -0.00774
v 0.01372 0.38165 -0.01475
v 0.01372 0.38165 -0.05253
v 0 0.38165 -0.03364
v 0.00721 0.38165 -0.05585
v 0.00721 0.38165 -0.01144
v 0 0.38165 -0.05699
v 0 0.38165 -0.01029
v -0.00722 0.38165 -0.05585
v -0.00722 0.38165 -0.01144
v -0.01373 0.38165 -0.05253
v -0.01373 0.38165 -0.01475
v 0.03336 0.36925 -0.35617
v -0.03179 0.36924 -0.35617
v 0.03336 0.36925 -0.18346
v -0.03179 0.36924 -0.18346
v 0.03336 0.36924 -0.00569
v -0.03179 0.36924 -0.00569
v -0.05171 0.35706 -0.18346
v -0.05171 0.35706 -0.35617
v 0.01129 0.40871 -0.04906
v 0.01014 0.40592 -0.06012
v 0.01012 0.40589 -0.04996
v 0.00826 0.40347 -0.0509
v 0.00826 0.40347 -0.05867
v 0.00498 0.40125 -0.05226
v 0.0063 0.40196 -0.05716
v 0.00444 0.40103 -0.06165
v 0.00295 0.40043 -0.06185
v 0.00302 0.40044 -0.05252
v 0 0.40004 -0.05799
v 0 0.40004 -0.05291
v -0.00296 0.40043 -0.06185
v -0.00303 0.40044 -0.05252
v 0 0.40004 -0.0093
v 0 0.40004 -0.01437
v -0.00303 0.40044 -0.01477
v -0.00296 0.40043 -0.00544
v -0.00303 0.40044 -0.00545
v 0.00295 0.40043 -0.00544
v 0.00302 0.40044 -0.00545
v 0.00302 0.40044 -0.01477
v 0.00498 0.40125 -0.01503
v 0.00584 0.40161 -0.00903
v 0.00444 0.40103 -0.00563
v 0.00584 0.40161 -0.01539
v 0.0063 0.40196 -0.01013
v 0.00826 0.40347 -0.00862
v 0.00826 0.40347 -0.01639
v 0.00963 0.40525 -0.01696
v 0.01012 0.40589 -0.01733
v 0.01014 0.40592 -0.00717
v 0.01129 0.40871 -0.00764
v 0.01129 0.40871 -0.01823
v -0.00499 0.40125 -0.05226
v -0.00445 0.40103 -0.06165
v -0.0063 0.40196 -0.05716
v -0.00827 0.40347 -0.05867
v -0.00827 0.40347 -0.0509
v -0.01014 0.40592 -0.06012
v -0.01013 0.40589 -0.04996
v -0.0113 0.40871 -0.04906
v -0.00499 0.40125 -0.01503
v -0.00585 0.40161 -0.00903
v -0.00445 0.40103 -0.00563
v -0.00585 0.40161 -0.01539
v -0.00827 0.40347 -0.01639
v -0.0063 0.40196 -0.01013
v -0.00827 0.40347 -0.00862
v -0.00964 0.40525 -0.01696
v -0.01013 0.40589 -0.01733
v -0.01014 0.40592 -0.00717
v -0.0113 0.40871 -0.01823
v -0.0113 0.40871 -0.00764
v -0.04893 0.32941 -0.21064
v -0.04893 0.33493 -0.21174
v -0.04611 0.32914 -0.21347
v -0.05171 0.33493 -0.21174
v -0.05171 0.32941 -0.21064
v -0.05171 0.33961 -0.21486
v -0.04893 0.28617 -0.21064
v -0.05171 0.28617 -0.21064
v -0.04611 0.28645 -0.21347
v -0.04893 0.33961 -0.21486
v -0.05171 0.34273 -0.21954
v -0.04611 0.33383 -0.2144
v -0.04611 0.341 -0.22533
v -0.04611 0.28176 -0.2144
v -0.04893 0.28066 -0.21174
v -0.05171 0.28066 -0.21174
v -0.04611 0.33757 -0.2169
v -0.04893 0.34273 -0.21954
v -0.05171 0.34383 -0.22506
v -0.04611 0.34007 -0.22064
v -0.04893 0.34383 -0.22506
v -0.05171 0.34383 -0.35617
v -0.04893 0.34383 -0.35617
v -0.04611 0.341 -0.35617
v -0.04611 0.27459 -0.35617
v -0.04611 0.27459 -0.22533
v -0.04893 0.27176 -0.22506
v -0.04893 0.27176 -0.35617
v -0.05171 0.27176 -0.22506
v -0.05171 0.27176 -0.35617
v -0.05171 0.27286 -0.21954
v -0.04893 0.27286 -0.21954
v -0.05171 0.27598 -0.21486
v -0.04611 0.27552 -0.22064
v -0.04611 0.27802 -0.2169
v -0.04893 0.27598 -0.21486
v -0.05171 0.26589 -0.35617
v -0.05171 0.26589 -0.19
v -0.05171 0.32941 -0.19
v -0.05171 0.33493 -0.18832
v -0.05171 0.33961 -0.18346
v -0.05171 0.33961 0.00882
v -0.05171 0.35706 0.00882
v -0.00296 0.38301 -0.06185
v -0.00445 0.38301 -0.06165
v 0.00444 0.38301 -0.06165
v 0.00295 0.38301 -0.06185
v 0.01154 0.38301 -0.05955
v 0.01015 0.38301 -0.06013
v -0.01016 0.38301 -0.06013
v -0.01155 0.38301 -0.05955
v 0.01785 0.38301 -0.05568
v 0.01666 0.38301 -0.0566
v -0.01666 0.38301 -0.0566
v -0.01786 0.38301 -0.05568
v 0.02295 0.38301 -0.0503
v 0.02203 0.38301 -0.0515
v -0.01373 0.36924 -0.05253
v -0.00722 0.36924 -0.05585
v 0 0.36924 -0.05699
v 0.00721 0.36925 -0.05585
v 0.01372 0.36925 -0.05253
v -0.02204 0.38301 -0.0515
v -0.02296 0.38301 -0.0503
v 0.02648 0.38301 -0.0438
v 0.0259 0.38301 -0.04519
v -0.02591 0.38301 -0.04519
v -0.02648 0.38301 -0.0438
v -0.01722 0.38128 -0.05086
v 0.02108 0.38128 -0.04581
v -0.02108 0.38128 -0.04581
v 0.01721 0.38128 -0.05086
v -0.01217 0.38128 -0.05472
v 0.02351 0.38128 -0.03994
v 0.02801 0.38301 -0.03809
v 0.0282 0.38301 -0.0366
v -0.02352 0.38128 -0.03994
v -0.02801 0.38301 -0.03809
v 0.01217 0.38128 -0.05472
v -0.0063 0.38128 -0.05716
v 0.02434 0.38128 -0.03364
v 0.0282 0.38301 -0.03069
v -0.02821 0.38301 -0.0366
v -0.02435 0.38128 -0.03364
v -0.02821 0.38301 -0.03069
v 0.0063 0.38128 -0.05716
v 0.02801 0.38301 -0.0292
v 0.02351 0.38128 -0.02734
v 0.02648 0.38301 -0.02349
v 0 0.38128 -0.05799
v -0.02352 0.38128 -0.02734
v -0.02648 0.38301 -0.02349
v -0.02801 0.38301 -0.0292
v 0.02108 0.38128 -0.02147
v 0.02295 0.38301 -0.01698
v 0.0259 0.38301 -0.0221
v -0.02108 0.38128 -0.02147
v -0.02295 0.38301 -0.01698
v -0.02591 0.38301 -0.0221
v 0.01721 0.38128 -0.01643
v 0.01785 0.38301 -0.01161
v 0.02203 0.38301 -0.01579
v -0.02204 0.38301 -0.01579
v -0.01722 0.38128 -0.01643
v -0.01786 0.38301 -0.01161
v 0.01372 0.36924 -0.01475
v 0.01666 0.38301 -0.01069
v 0.01217 0.38128 -0.01256
v 0.01154 0.38301 -0.00774
v -0.01666 0.38301 -0.01069
v -0.01373 0.36924 -0.01475
v 0.01015 0.38301 -0.00716
v -0.01217 0.38128 -0.01256
v -0.01155 0.38301 -0.00774
v -0.01016 0.38301 -0.00716
v 0.00295 0.38301 -0.00544
v 0.00444 0.38301 -0.00563
v -0.00445 0.38301 -0.00563
v -0.00296 0.38301 -0.00544
v 0.0063 0.38128 -0.01013
v -0.0063 0.38128 -0.01013
v 0.00721 0.36924 -0.01144
v 0 0.38128 -0.0093
v 0 0.36924 -0.01029
v -0.00722 0.36924 -0.01144
v -0.00499 0.38128 -0.01503
v -0.00964 0.38128 -0.01696
v -0.01363 0.38128 -0.02002
v -0.01669 0.38128 -0.02401
v -0.01862 0.38128 -0.02866
v 0.00963 0.38128 -0.05033
v 0.01362 0.38128 -0.04727
v 0.00498 0.38128 -0.05226
v 0 0.38128 -0.05291
v -0.00499 0.38128 -0.05226
v 0.01668 0.38128 -0.04328
v 0.01861 0.38128 -0.03863
v 0.01927 0.38128 -0.03364
v 0.01861 0.38128 -0.02866
v 0.01668 0.38128 -0.02401
v 0.01362 0.38128 -0.02002
v 0.00963 0.38128 -0.01696
v 0.00498 0.38128 -0.01503
v 0 0.38128 -0.01437
v -0.01363 0.38128 -0.04727
v -0.01669 0.38128 -0.04328
v -0.00964 0.38128 -0.05033
v -0.01862 0.38128 -0.03863
v -0.01927 0.38128 -0.03364
v -0.03994 0.26589 -0.19
v -0.03994 0.32941 -0.19
v -0.03994 0.33493 -0.18832
v -0.03994 0.33961 -0.18346
v -0.03994 0.33961 0.00882
vt 0.245582 0.300272
vt 0.246193 0.305368
vt 0.246803 0.299295
vt 0.251442 0.301248
vt 0.251442 0.30784
vt 0.25193 0.307352
vt 0.249977 0.309061
vt 0.25193 0.301248
vt 0.25193 0.296365
vt 0.252174 0.296365
vt 0.246803 0.312967
vt 0.242286 0.310526
vt 0.24131 0.304666
vt 0.240333 0.305856
vt 0.24485 0.31782
vt 0.239845 0.316385
vt 0.237403 0.311014
vt 0.236793 0.312479
vt 0.244118 0.322977
vt 0.23899 0.322977
vt 0.235206 0.318339
vt 0.234962 0.319803
vt 0.24485 0.328104
vt 0.239845 0.329295
vt 0.234962 0.325907
vt 0.235206 0.327372
vt 0.246803 0.332713
vt 0.242286 0.335429
vt 0.236793 0.333201
vt 0.237403 0.334697
vt 0.249977 0.336863
vt 0.246193 0.340526
vt 0.240333 0.340068
vt 0.24131 0.341258
vt 0.25193 0.34373
vt 0.25193 0.338359
vt 0.251442 0.344432
vt 0.245582 0.345439
vt 0.246803 0.346416
vt 0.298074 0.322977
vt 0.297342 0.316385
vt 0.292215 0.31782
vt 0.290262 0.312967
vt 0.292947 0.322977
vt 0.294656 0.310526
vt 0.297342 0.329295
vt 0.287088 0.309061
vt 0.292215 0.328104
vt 0.29075 0.305155
vt 0.294656 0.335429
vt 0.285623 0.301248
vt 0.290262 0.332713
vt 0.285623 0.30784
vt 0.285134 0.307352
vt 0.285134 0.301004
vt 0.29075 0.340526
vt 0.287088 0.336863
vt 0.285134 0.338359
vt 0.285623 0.344432
vt 0.285134 0.34373
vt 0.301981 0.318339
vt 0.301981 0.319803
vt 0.301981 0.325907
vt 0.301981 0.327372
vt 0.300272 0.333201
vt 0.299783 0.334697
vt 0.296609 0.340068
vt 0.295633 0.341258
vt 0.290262 0.346416
vt 0.291482 0.345439
vt 0.300272 0.312479
vt 0.299783 0.311014
vt 0.296609 0.305856
vt 0.295633 0.304666
vt 0.291482 0.300272
vt 0.290262 0.299295
vt 0.28489 0.296365
vt 0.28489 0.34959
vt 0.28489 0.349345
vt 0.285134 0.344676
vt 0.25193 0.344676
vt 0.252174 0.34959
vt 0.25193 0.34959
vt 0.160009 0.334208
vt 0.121311 0.334208
vt 0.140599 0.348125
vt 0.117893 0.34077
vt 0.163427 0.34077
vt 0.116733 0.348125
vt 0.164525 0.348125
vt 0.117893 0.355693
vt 0.163427 0.355693
vt 0.121311 0.362285
vt 0.160009 0.362285
vt 0.304666 0.501938
vt 0.246071 0.501938
vt 0.304666 0.639149
vt 0.246071 0.639149
vt 0.304666 0.792962
vt 0.246071 0.792962
vt 0.241798 0.639149
vt 0.241798 0.501938
vt 0.281961 0.307108
vt 0.282693 0.296365
vt 0.279275 0.295877
vt 0.278787 0.305856
vt 0.276589 0.305155
vt 0.276589 0.297342
vt 0.273659 0.303934
vt 0.274636 0.298807
vt 0.272683 0.294137
vt 0.271218 0.293893
vt 0.271218 0.30369
vt 0.268288 0.298044
vt 0.268288 0.303201
vt 0.265114 0.293893
vt 0.265114 0.30369
vt 0.268288 0.34788
vt 0.268288 0.342753
vt 0.265114 0.342265
vt 0.265114 0.351787
vt 0.271218 0.351787
vt 0.271218 0.342265
vt 0.273415 0.342021
vt 0.274148 0.348125
vt 0.272683 0.351543
vt 0.274148 0.341533
vt 0.274636 0.346904
vt 0.276589 0.348582
vt 0.276589 0.340526
vt 0.278542 0.340068
vt 0.279275 0.339579
vt 0.279275 0.350078
vt 0.281961 0.34959
vt 0.281961 0.338603
vt 0.283425 0.34959
vt 0.262673 0.303934
vt 0.263649 0.294137
vt 0.26194 0.298807
vt 0.260231 0.297342
vt 0.260231 0.305155
vt 0.25779 0.295877
vt 0.258278 0.306101
vt 0.254372 0.296365
vt 0.25486 0.307108
vt 0.263161 0.342021
vt 0.262185 0.348125
vt 0.263649 0.351543
vt 0.262185 0.341533
vt 0.259743 0.340526
vt 0.261696 0.346904
vt 0.259743 0.348582
vt 0.258278 0.340068
vt 0.25779 0.339579
vt 0.25779 0.350078
vt 0.25486 0.338847
vt 0.25486 0.34959
vt 0.253639 0.34959
vt 0.212989 0.618641
vt 0.217872 0.618152
vt 0.212745 0.614734
vt 0.21836 0.620594
vt 0.212989 0.62157
vt 0.224952 0.617664
vt 0.177465 0.618641
vt 0.177465 0.62157
vt 0.177709 0.614734
vt 0.222877 0.615711
vt 0.22776 0.613269
vt 0.216529 0.614246
vt 0.222388 0.606922
vt 0.173925 0.614246
vt 0.172704 0.617664
vt 0.17185 0.621082
vt 0.219581 0.612781
vt 0.225562 0.612293
vt 0.22898 0.60741
vt 0.221656 0.61034
vt 0.226661 0.60741
vt 0.22898 0.50145
vt 0.226661 0.50145
vt 0.222388 0.50145
vt 0.168065 0.50145
vt 0.168065 0.606922
vt 0.164037 0.60741
vt 0.164037 0.50145
vt 0.161718 0.60741
vt 0.161718 0.50145
vt 0.163305 0.613269
vt 0.165868 0.611805
vt 0.166356 0.617664
vt 0.168798 0.61034
vt 0.170873 0.612781
vt 0.168554 0.615223
vt 0.155004 0.501938
vt 0.155004 0.636708
vt 0.160619 0.501938
vt 0.160619 0.61034
vt 0.161718 0.614734
vt 0.164647 0.618641
vt 0.169042 0.621082
vt 0.174291 0.622059
vt 0.215552 0.636708
vt 0.215552 0.622059
vt 0.220801 0.637684
vt 0.220801 0.621082
vt 0.225196 0.618641
vt 0.225196 0.639149
vt 0.228126 0.614734
vt 0.229225 0.61034
vt 0.229225 0.501938
vt 0.640614 0.589343
vt 0.640614 0.454543
vt 0.628407 0.589343
vt 0.627918 0.454543
vt 0.124058 0.295389
vt 0.125584 0.295389
vt 0.124058 0.277566
vt 0.125584 0.276833
vt 0.116428 0.295389
vt 0.117954 0.295389
vt 0.116428 0.276833
vt 0.117954 0.277566
vt 0.107395 0.271218
vt 0.107395 0.295389
vt 0.107517 0.268288
vt 0.108798 0.295389
vt 0.108798 0.27195
vt 0.134129 0.27195
vt 0.134129 0.295389
vt 0.13535 0.268288
vt 0.135472 0.295389
vt 0.135472 0.271218
vt 0.096591 0.2678
vt 0.096591 0.295389
vt 0.097812 0.2678
vt 0.097812 0.295389
vt 0.144993 0.2678
vt 0.144993 0.295389
vt 0.14597 0.2678
vt 0.14597 0.295389
vt 0.085788 0.2678
vt 0.085788 0.295389
vt 0.086703 0.2678
vt 0.086703 0.295389
vt 0.166601 0.332499
vt 0.166601 0.345164
vt 0.173315 0.332499
vt 0.173315 0.345164
vt 0.180639 0.332499
vt 0.180639 0.345164
vt 0.188086 0.332499
vt 0.188086 0.345164
vt 0.194678 0.332499
vt 0.194678 0.345164
vt 0.155858 0.2678
vt 0.155858 0.295389
vt 0.157079 0.2678
vt 0.157079 0.295389
vt 0.074801 0.2678
vt 0.074801 0.295389
vt 0.076266 0.2678
vt 0.076266 0.295389
vt 0.166601 0.2678
vt 0.166601 0.295389
vt 0.168065 0.2678
vt 0.168065 0.295389
vt 0.150975 0.297098
vt 0.150975 0.265847
vt 0.08121 0.265847
vt 0.08121 0.297098
vt 0.161718 0.297098
vt 0.161718 0.265847
vt 0.091647 0.265847
vt 0.091647 0.297098
vt 0.140477 0.297098
vt 0.140477 0.265847
vt 0.070833 0.265847
vt 0.066256 0.2678
vt 0.070833 0.297098
vt 0.066256 0.295389
vt 0.06473 0.2678
vt 0.06473 0.295389
vt 0.171972 0.297098
vt 0.176611 0.295389
vt 0.171972 0.265847
vt 0.176611 0.2678
vt 0.102451 0.265847
vt 0.102451 0.297098
vt 0.132176 0.274361
vt 0.1301 0.297098
vt 0.1301 0.275857
vt 0.061708 0.265847
vt 0.058687 0.2678
vt 0.061708 0.297098
vt 0.058687 0.295389
vt 0.178198 0.2678
vt 0.178198 0.295389
vt 0.181127 0.297098
vt 0.184179 0.295389
vt 0.181127 0.265847
vt 0.184179 0.2678
vt 0.110263 0.274361
vt 0.11185 0.297098
vt 0.11185 0.275857
vt 0.057161 0.2678
vt 0.057161 0.295389
vt 0.052553 0.265847
vt 0.048585 0.2678
vt 0.052553 0.297098
vt 0.048616 0.295389
vt 0.121006 0.27781
vt 0.121006 0.297098
vt 0.190405 0.297098
vt 0.194311 0.295389
vt 0.190405 0.265847
vt 0.194311 0.2678
vt 0.185766 0.2678
vt 0.185766 0.295389
vt 0.042238 0.265847
vt 0.037629 0.2678
vt 0.042238 0.297098
vt 0.037629 0.295389
vt 0.047182 0.2678
vt 0.047182 0.295389
vt 0.200659 0.297098
vt 0.205298 0.295389
vt 0.200659 0.265847
vt 0.205298 0.2678
vt 0.195776 0.2678
vt 0.195776 0.295389
vt 0.031465 0.265847
vt 0.026551 0.2678
vt 0.031465 0.297098
vt 0.026551 0.295389
vt 0.036409 0.2678
vt 0.036409 0.295389
vt 0.206153 0.2678
vt 0.206153 0.295389
vt 0.211158 0.297098
vt 0.216041 0.295389
vt 0.211158 0.265847
vt 0.216041 0.2678
vt 0.233375 0.332499
vt 0.233375 0.345164
vt 0.025605 0.2678
vt 0.025605 0.295389
vt 0.020997 0.265847
vt 0.016053 0.2678
vt 0.020997 0.297098
vt 0.016053 0.295389
vt 0.217261 0.2678
vt 0.217261 0.295389
vt 0.166967 0.360302
vt 0.205664 0.360302
vt 0.166967 0.347636
vt 0.205664 0.347636
vt 0.014618 0.27195
vt 0.014649 0.295389
vt 0.015809 0.269021
vt 0.015992 0.2678
vt 0.2219 0.297098
vt 0.226905 0.295389
vt 0.2219 0.265847
vt 0.226905 0.2678
vt 0.227149 0.269021
vt 0.228248 0.27195
vt 0.228248 0.295389
vt 0.005463 0.277566
vt 0.005463 0.295389
vt 0.005524 0.277566
vt 0.006989 0.295389
vt 0.006989 0.276833
vt 0.235939 0.276833
vt 0.235939 0.295389
vt 0.237403 0.277566
vt 0.237526 0.295389
vt 0.237526 0.277566
vt 0.010468 0.276345
vt 0.011597 0.297098
vt 0.011597 0.275857
vt 0.2313 0.275857
vt 0.2313 0.297098
vt 0.232398 0.276345
vt 0.233863 0.360302
vt 0.233863 0.347636
vt 0.227149 0.360302
vt 0.227149 0.347636
vt 0.240455 0.27781
vt 0.240455 0.297098
vt 0.219825 0.360302
vt 0.219825 0.347636
vt 0.212378 0.360302
vt 0.212378 0.347636
vt 0.002441 0.27781
vt 0.002441 0.297098
vt 0.229835 0.274361
vt 0.013153 0.274361
vt 0.209326 0.309763
vt 0.209326 0.330302
vt 0.210303 0.309275
vt 0.212745 0.307596
vt 0.214087 0.305612
vt 0.214087 0.330302
vt 0.214576 0.30491
vt 0.21543 0.302194
vt 0.215796 0.299051
vt 0.217261 0.330302
vt 0.217261 0.299051
vt 0.221412 0.299051
vt 0.221412 0.330302
vt 0.226173 0.299051
vt 0.226173 0.330302
vt 0.160375 0.305368
vt 0.160253 0.330302
vt 0.161473 0.302194
vt 0.163305 0.330302
vt 0.155492 0.330302
vt 0.158788 0.307596
vt 0.155858 0.309519
vt 0.153417 0.310526
vt 0.150365 0.330302
vt 0.150365 0.311014
vt 0.145238 0.330302
vt 0.147191 0.310526
vt 0.144749 0.309519
vt 0.162206 0.299051
vt 0.16184 0.299051
vt 0.163305 0.299051
vt 0.167455 0.299051
vt 0.167455 0.330302
vt 0.172216 0.299051
vt 0.172216 0.330302
vt 0.177343 0.299051
vt 0.177343 0.330302
vt 0.18247 0.299051
vt 0.182348 0.330302
vt 0.187231 0.299051
vt 0.187109 0.330302
vt 0.19126 0.299051
vt 0.19126 0.330302
vt 0.194433 0.330302
vt 0.192724 0.299051
vt 0.193091 0.302194
vt 0.194067 0.30491
vt 0.194433 0.305612
vt 0.195776 0.307596
vt 0.19834 0.309275
vt 0.199194 0.309763
vt 0.199194 0.330302
vt 0.201147 0.310526
vt 0.204321 0.311014
vt 0.204321 0.330302
vt 0.207373 0.310526
vt 0.138524 0.299051
vt 0.137303 0.299051
vt 0.139134 0.302194
vt 0.13889 0.299051
vt 0.137303 0.330302
vt 0.133274 0.330302
vt 0.133274 0.299051
vt 0.140477 0.330302
vt 0.128513 0.330302
vt 0.140233 0.305368
vt 0.128513 0.299051
vt 0.14182 0.307596
vt 0.123386 0.330302
vt 0.123386 0.299051
vt 0.118259 0.330302
vt 0.118259 0.299051
vt 0.640614 0.641102
vt 0.648915 0.641102
vt 0.640614 0.596667
vt 0.648915 0.596667
vt 0.640614 0.592761
vt 0.648915 0.592761
vt 0.648915 0.589343
vt 0.648915 0.454543
vt 0.266823 0.339824
vt 0.268532 0.337626
vt 0.265847 0.339824
vt 0.26487 0.336863
vt 0.262429 0.338847
vt 0.261452 0.338359
vt 0.261208 0.335429
vt 0.258522 0.336619
vt 0.25779 0.336161
vt 0.258034 0.333201
vt 0.254616 0.332713
vt 0.255104 0.333445
vt 0.255837 0.330058
vt 0.272439 0.336863
vt 0.270486 0.339824
vt 0.271218 0.339824
vt 0.276101 0.335429
vt 0.27488 0.338847
vt 0.275613 0.338359
vt 0.279031 0.333201
vt 0.278787 0.336619
vt 0.279519 0.336161
vt 0.281472 0.330058
vt 0.281961 0.333445
vt 0.282693 0.332713
vt 0.276833 0.314432
vt 0.279031 0.312235
vt 0.274392 0.312479
vt 0.282693 0.312479
vt 0.281961 0.311747
vt 0.281472 0.315165
vt 0.278787 0.316874
vt 0.276101 0.309763
vt 0.279519 0.309275
vt 0.278787 0.308573
vt 0.271706 0.311258
vt 0.28489 0.316385
vt 0.284402 0.315653
vt 0.282937 0.318827
vt 0.280007 0.319559
vt 0.272439 0.308329
vt 0.275613 0.306864
vt 0.27488 0.306375
vt 0.268532 0.31077
vt 0.285867 0.32078
vt 0.285623 0.320048
vt 0.283425 0.322733
vt 0.280496 0.322733
vt 0.268532 0.30784
vt 0.271218 0.305612
vt 0.270486 0.305368
vt 0.265603 0.311258
vt 0.285623 0.325388
vt 0.285867 0.324442
vt 0.282937 0.326395
vt 0.280007 0.325632
vt 0.26487 0.308329
vt 0.278787 0.328593
vt 0.284402 0.329814
vt 0.28489 0.328806
vt 0.276833 0.331034
vt 0.274392 0.332713
vt 0.271706 0.333964
vt 0.268532 0.334452
vt 0.265603 0.333964
vt 0.262673 0.332713
vt 0.260231 0.331034
vt 0.258522 0.328593
vt 0.252419 0.328806
vt 0.252907 0.329814
vt 0.254372 0.326395
vt 0.257302 0.325632
vt 0.251442 0.324442
vt 0.251442 0.325388
vt 0.253639 0.322733
vt 0.256813 0.322733
vt 0.251442 0.320048
vt 0.251442 0.32078
vt 0.254372 0.318827
vt 0.257302 0.319559
vt 0.252907 0.315653
vt 0.252419 0.316385
vt 0.255837 0.315165
vt 0.258522 0.316874
vt 0.255104 0.311747
vt 0.254616 0.312479
vt 0.258034 0.312235
vt 0.260231 0.314432
vt 0.258522 0.308573
vt 0.25779 0.309275
vt 0.261208 0.309763
vt 0.262673 0.312479
vt 0.262429 0.306375
vt 0.261452 0.306864
vt 0.266823 0.305368
vt 0.265847 0.305612
vt 0.165746 0.49852
vt 0.165746 0.495102
vt 0.224708 0.49852
vt 0.224708 0.495102
vn -0.2323 0.925 -0.3007
vn -0.1152 0.9869 -0.1128
vn -0.117 0.9795 -0.1639
vn -0.001 1 -0.001
vn -0.001 1 0.001
vn -0.1422 0.9292 -0.341
vn -0.2682 0.8013 -0.5347
vn -0.2717 0.7995 -0.5356
vn -0.1322 0.9883 -0.076
vn -0.3007 0.925 -0.2323
vn -0.1481 0.9883 -0.0379
vn -0.3518 0.9246 -0.146
vn -0.153 0.9882 0.0011
vn -0.3762 0.9253 -0.0488
vn -0.1458 0.9885 0.0402
vn -0.3762 0.9253 0.0488
vn -0.1324 0.9881 0.0785
vn -0.3518 0.9246 0.146
vn 0.001 1 0.001
vn -0.1072 0.9882 0.1095
vn -0.3007 0.925 0.2323
vn 0.001 1 -0.001
vn -0.1775 0.9567 0.2308
vn -0.2323 0.925 0.3007
vn 0.153 0.9882 -0.0011
vn 0.1458 0.9885 -0.0402
vn 0.1324 0.9881 -0.0785
vn 0.1481 0.9883 0.0379
vn 0.1044 0.9888 -0.1067
vn 0.1322 0.9883 0.076
vn 0.1143 0.9799 -0.1635
vn 0.1422 0.9292 -0.341
vn 0.1152 0.9869 0.1128
vn 0.1159 0.9819 0.15
vn 0.3762 0.9253 -0.0488
vn 0.3762 0.9253 0.0488
vn 0.3518 0.9246 0.146
vn 0.3007 0.925 0.2323
vn 0.2323 0.925 0.3007
vn 0.3518 0.9246 -0.146
vn 0.3007 0.925 -0.2323
vn 0.2323 0.925 -0.3007
vn 0.2543 0.8035 -0.5383
vn 0.2577 0.8042 -0.5356
vn 0.146 0.9246 0.3518
vn -0.146 0.9246 0.3518
vn -0.143 0.9897 0.0011
vn -0.079 0.9969 0.0011
vn -0.5236 0.852 0.0013
vn -0.9917 0.1282 0.0011
vn -0.9655 0.2603 0.0012
vn -0.9469 0.3214 0.0012
vn -0.8811 0.473 0.0013
vn -0.8776 0.4793 0.0013
vn -0.7071 0.7071 0.0014
vn -0.7356 0.6774 -0.0042
vn -0.4951 0.8688 -0.0013
vn -0.5288 0.8485 -0.0205
vn -0.3883 0.9215 0.0013
vn -0.266 0.964 -0.0012
vn -0.2688 0.9632 0.0012
vn -0.0333 0.9994 0.001
vn 0.0333 0.9994 0.001
vn 0.2803 0.9599 -0.0012
vn 0.2462 0.9692 0.0012
vn 0.0333 0.9994 -0.001
vn -0.0333 0.9994 -0.001
vn 0.2688 0.9632 -0.0012
vn 0.1307 0.9914 -0.0011
vn 0.3699 0.9291 -0.0013
vn -0.1307 0.9914 -0.0011
vn -0.2949 0.9555 -0.0012
vn -0.2462 0.9692 -0.0012
vn -0.3822 0.9241 -0.0013
vn -0.3914 0.9202 -0.0013
vn -0.3822 0.9241 0.0013
vn -0.5768 0.8169 0.0014
vn -0.6107 0.7919 -0.0014
vn -0.7576 0.6527 -0.0014
vn -0.7099 0.7043 0.0014
vn -0.7942 0.6077 -0.0014
vn -0.9034 0.4289 -0.0013
vn -0.8742 0.4856 -0.0013
vn -0.9518 0.3066 -0.0012
vn -0.9632 0.2688 0.0012
vn -0.9914 0.1307 -0.0011
vn -0.9917 0.1282 -0.0011
vn -0.9914 0.1307 0.0011
vn 0.4951 0.8688 -0.0013
vn 0.3883 0.9215 0.0013
vn 0.5288 0.8485 -0.0205
vn 0.7356 0.6774 -0.0042
vn 0.7071 0.7071 0.0014
vn 0.8794 0.4762 0.0013
vn 0.9438 0.3304 -0.0012
vn 0.9706 0.2406 -0.0012
vn 0.9914 0.1307 0.0011
vn 0.9917 0.1282 0.0011
vn 0.3822 0.9241 -0.0013
vn 0.4132 0.9106 -0.0013
vn 0.5737 0.819 0.0014
vn 0.7208 0.6931 0.0014
vn 0.6107 0.7919 0.0014
vn 0.7525 0.6586 -0.0014
vn 0.7942 0.6077 -0.0014
vn 0.9019 0.432 -0.0013
vn 0.8742 0.4856 -0.0013
vn 0.9616 0.2746 0.0012
vn 0.9489 0.3155 -0.0012
vn 0.9917 0.1282 -0.0011
vn 0.9914 0.1307 -0.0011
vn -0.4407 -0.0199 -0.8974
vn -0.4318 -0.3483 -0.832
vn -0.9884 -0.0034 -0.1521
vn 0 -0.3817 -0.9243
vn 0 -0.023 -0.9997
vn 0 -0.7064 -0.7078
vn -0.4423 0.0199 -0.8966
vn -0.001 0.021 -0.9998
vn -0.9419 0.0088 -0.3358
vn -0.4305 -0.6424 -0.634
vn 0 -0.9236 -0.3833
vn -0.9601 -0.1103 -0.2569
vn -0.999 -0.0438 0
vn -0.9962 0.0314 -0.0813
vn -0.4293 0.3444 -0.835
vn -0.0013 0.3822 -0.9241
vn -0.9186 -0.2845 -0.2744
vn -0.4308 -0.8348 -0.3427
vn 0 -1 -0.0079
vn -0.8335 -0.5138 -0.2031
vn -0.4425 -0.8968 -0.0079
vn 0 -1 0
vn -0.4488 -0.8936 0
vn -0.9991 -0.0417 0
vn -0.9992 0.0396 0.001
vn -0.9991 0.0418 -0.001
vn -0.4435 0.8962 -0.0066
vn -0.4509 0.8926 0.0013
vn -0.001 1 -0.0089
vn -0.0013 0.9241 -0.3822
vn -0.4336 0.831 -0.3485
vn -0.0014 0.7071 -0.7071
vn -0.9984 0.0513 -0.022
vn -0.9979 0.0458 -0.0458
vn -0.4287 0.6355 -0.6422
vn -1 -0.001 0
vn -0.1307 0.0011 -0.9914
vn -0.1294 -0.0011 -0.9916
vn 0.1294 -0.0011 -0.9916
vn 0.1307 0.0011 -0.9914
vn 0.3822 0.0013 -0.9241
vn 0.3775 -0.0013 -0.926
vn 0.3699 0.0013 -0.9291
vn -0.3699 0.0013 -0.9291
vn -0.3822 0.0013 -0.9241
vn -0.3775 -0.0013 -0.926
vn 0.6092 -0.0014 -0.793
vn -0.6092 -0.0014 -0.793
vn 0.793 -0.0014 -0.6092
vn -0.454 0.0013 -0.891
vn -0.3081 -0.0012 -0.9514
vn 0 -0.001 -1
vn 0.3081 -0.0012 -0.9514
vn 0.454 0.0013 -0.891
vn -0.793 -0.0014 -0.6092
vn 0.9241 0.0013 -0.3822
vn -0.9241 0.0013 -0.3822
vn 0.1319 -0.0011 -0.9913
vn 0.1282 0.0011 -0.9917
vn -0.1282 0.0011 -0.9917
vn -0.1319 -0.0011 -0.9913
vn 0.3837 -0.0013 -0.9235
vn 0.3806 -0.0013 -0.9247
vn 0.9914 0.0011 -0.1307
vn -0.3806 -0.0013 -0.9247
vn -0.3837 -0.0013 -0.9235
vn 0.6107 0.0014 -0.7919
vn 0.6077 0.0014 -0.7942
vn -0.9916 -0.0011 -0.1294
vn -0.6077 0.0014 -0.7942
vn -0.6107 0.0014 -0.7919
vn 0.9914 0.0011 0.1307
vn 0.7919 0.0014 -0.6107
vn 0.7942 0.0014 -0.6077
vn -0.7919 0.0014 -0.6107
vn -0.7942 0.0014 -0.6077
vn -0.9914 0.0011 0.1307
vn 0.9235 -0.0013 -0.3837
vn 0.9247 -0.0013 -0.3806
vn 0.9241 0.0013 0.3822
vn -0.9235 -0.0013 -0.3837
vn -0.9247 -0.0013 -0.3806
vn -0.9241 0.0013 0.3822
vn 0.9913 -0.0011 -0.1319
vn 0.9917 0.0011 -0.1282
vn 0.793 -0.0014 0.6092
vn -0.793 -0.0014 0.6092
vn -0.9917 0.0011 -0.1282
vn -0.9913 -0.0011 -0.1319
vn 1 -0.001 0
vn 0.6092 -0.0014 0.793
vn 0.9917 0.0011 0.1282
vn 0.9913 -0.0011 0.1319
vn -0.6092 -0.0014 0.793
vn 0.3699 0.0013 0.9291
vn 0.3822 0.0013 0.9241
vn 0.376 0.0013 0.9266
vn -0.9917 0.0011 0.1282
vn -0.9913 -0.0011 0.1319
vn -0.3791 0.0013 0.9254
vn -0.3822 0.0013 0.9241
vn -0.3806 -0.0013 0.9247
vn -0.3775 -0.0013 0.926
vn -0.3729 0.0013 0.9279
vn 0.1282 0.0011 0.9917
vn 0.1294 -0.0011 0.9916
vn 0.1307 0.0011 0.9914
vn -0.1307 0.0011 0.9914
vn -0.1294 -0.0011 0.9916
vn -0.127 -0.0011 0.9919
vn 0.9247 -0.0013 0.3806
vn 0.9235 -0.0013 0.3837
vn -0.9247 -0.0013 0.3806
vn 0.454 0.0013 0.891
vn 0.3081 -0.0012 0.9514
vn -0.9235 -0.0013 0.3837
vn 0.7942 0.0014 0.6077
vn 0.7919 0.0014 0.6107
vn 0 -0.001 1
vn -0.3081 -0.0012 0.9514
vn -0.454 0.0013 0.891
vn -0.7942 0.0014 0.6077
vn -0.7919 0.0014 0.6107
vn 0.6107 0.0014 0.7919
vn 0.6077 0.0014 0.7942
vn -0.6107 0.0014 0.7919
vn -0.6077 0.0014 0.7942
vn 0.3806 -0.0013 0.9247
vn 0.3837 -0.0013 0.9235
vn -0.3837 -0.0013 0.9235
vn -0.1319 -0.0011 0.9913
vn 0.1319 -0.0011 0.9913
vn -0.1282 0.0011 0.9917
vn 0.242 -0.0012 -0.9703
vn 0.2688 0.0012 -0.9632
vn 0.4951 0.0013 -0.8688
vn 0.5109 0.0013 -0.8596
vn 0.7085 -0.0014 -0.7057
vn 0.7382 -0.0014 -0.6746
vn 0.8661 -0.0013 -0.4999
vn -0.5519 0.0014 0.8339
vn -0.503 -0.0013 0.8643
vn -0.7126 0.0014 0.7015
vn -0.2738 -0.0036 0.9618
vn -0.4351 0.0092 0.9004
vn -0.3244 0.0012 0.9459
vn 0.001 0.001 1
vn 0.0079 -0.001 1
vn 0.2674 -0.0012 0.9636
vn 0.3319 -0.0012 0.9433
vn -0.7551 0.0014 0.6557
vn -0.8661 -0.0013 0.4999
vn -0.9659 -0.0012 0.2589
vn -0.9659 -0.0012 -0.2589
vn -0.8661 -0.0013 -0.4999
vn -0.7512 -0.0014 -0.6601
vn -0.7071 0.0014 -0.7071
vn -0.5251 -0.0013 -0.851
vn -0.5204 0.0013 -0.8539
vn -0.2731 -0.0012 -0.962
vn -0.2674 -0.0012 -0.9636
vn -0.0079 -0.001 -1
vn -0.001 0.001 -1
vn 0.7551 0.0014 0.6557
vn 0.7126 0.0014 0.7015
vn 0.8661 -0.0013 0.4999
vn 0.5188 -0.0013 0.8549
vn 0.9659 -0.0012 0.2589
vn 0.566 -0.0014 0.8244
vn 0.421 -0.0013 0.907
vn 0 -0.025 0.9997
vn 0 -0.5387 0.8425
vn 0 -0.9997 0.024
vn 0.3782 -0.9244 -0.0503
vn 0.1519 -0.9884 0.0022
vn 0.1495 -0.988 -0.0391
vn 0.3497 -0.9257 -0.1443
vn 0.1333 -0.9882 -0.0748
vn 0.3021 -0.9249 -0.2309
vn 0.1081 -0.9885 -0.1058
vn 0.2309 -0.9249 -0.3021
vn 0.0772 -0.9884 -0.131
vn 0.1473 -0.9882 0.0414
vn 0.3782 -0.9244 0.0503
vn 0.131 -0.9884 0.0772
vn 0.3497 -0.9257 0.1443
vn 0.1058 -0.9885 0.1081
vn 0.3021 -0.9249 0.2309
vn 0.0748 -0.9882 0.1333
vn 0.2309 -0.9249 0.3021
vn -0.1081 -0.9885 0.1058
vn -0.2309 -0.9249 0.3021
vn -0.0772 -0.9884 0.131
vn -0.1333 -0.9882 0.0748
vn -0.3021 -0.9249 0.2309
vn -0.1443 -0.9257 0.3497
vn -0.0414 -0.9882 0.1473
vn -0.1495 -0.988 0.0391
vn -0.3497 -0.9257 0.1443
vn -0.0503 -0.9244 0.3782
vn -0.0022 -0.9884 0.1519
vn -0.1519 -0.9884 -0.0022
vn -0.3782 -0.9244 0.0503
vn 0.0503 -0.9244 0.3782
vn 0.0391 -0.988 0.1495
vn -0.1473 -0.9882 -0.0414
vn 0.1443 -0.9257 0.3497
vn 0.1443 -0.9257 -0.3497
vn 0.0414 -0.9882 -0.1473
vn 0.0503 -0.9244 -0.3782
vn 0.0022 -0.9884 -0.1519
vn -0.0503 -0.9244 -0.3782
vn -0.0391 -0.988 -0.1495
vn -0.1443 -0.9257 -0.3497
vn -0.0748 -0.9882 -0.1333
vn -0.2309 -0.9249 -0.3021
vn -0.1058 -0.9885 -0.1081
vn -0.3021 -0.9249 -0.2309
vn -0.131 -0.9884 -0.0772
vn -0.3497 -0.9257 -0.1443
vn -0.3782 -0.9244 -0.0503
o bolt__p0_c0
f 1/1/1 2/2/2 3/3/1
f 3/3/1 2/2/2 4/4/3
f 4/4/3 2/2/2 5/5/4
f 4/4/3 5/5/4 6/6/4
f 5/5/4 2/2/2 7/7/5
f 4/4/3 6/6/4 8/8/6
f 4/4/3 8/8/6 9/9/7
f 9/9/7 8/8/6 10/10/8
f 7/7/5 2/2/2 11/11/5
f 11/11/5 2/2/2 12/12/9
f 12/12/9 2/2/2 13/13/10
f 12/12/9 13/13/10 14/14/10
f 11/11/5 12/12/9 15/15/5
f 15/15/5 12/12/9 16/16/11
f 16/16/11 12/12/9 17/17/12
f 16/16/11 17/17/12 18/18/12
f 15/15/5 16/16/11 19/19/5
f 19/19/5 16/16/11 20/20/13
f 20/20/13 16/16/11 21/21/14
f 20/20/13 21/21/14 22/22/14
f 19/19/5 20/20/13 23/23/4
f 23/23/4 20/20/13 24/24/15
f 24/24/15 20/20/13 25/25/16
f 24/24/15 25/25/16 26/26/16
f 23/23/4 24/24/15 27/27/4
f 27/27/4 24/24/15 28/28/17
f 28/28/17 24/24/15 29/29/18
f 28/28/17 29/29/18 30/30/18
f 27/27/4 28/28/17 31/31/19
f 31/31/19 28/28/17 32/32/20
f 32/32/20 28/28/17 33/33/21
f 32/32/20 33/33/21 34/34/21
f 31/31/19 32/32/20 35/35/22
f 31/31/19 35/35/22 36/36/5
f 35/35/22 32/32/20 37/37/23
f 37/37/23 32/32/20 38/38/24
f 37/37/23 38/38/24 39/39/24
f 40/40/25 41/41/26 42/42/5
f 42/42/5 41/41/26 43/43/5
f 40/40/25 42/42/5 44/44/5
f 43/43/5 41/41/26 45/45/27
f 40/40/25 44/44/5 46/46/28
f 43/43/5 45/45/27 47/47/4
f 46/46/28 44/44/5 48/48/4
f 47/47/4 45/45/27 49/49/29
f 46/46/28 48/48/4 50/50/30
f 47/47/4 49/49/29 51/51/31
f 50/50/30 48/48/4 52/52/22
f 47/47/4 51/51/31 53/53/4
f 53/53/4 51/51/31 54/54/4
f 54/54/4 51/51/31 55/55/32
f 50/50/30 52/52/22 56/56/33
f 56/56/33 52/52/22 57/57/4
f 56/56/33 57/57/4 58/58/4
f 56/56/33 58/58/4 59/59/34
f 59/59/34 58/58/4 60/60/4
f 61/61/35 41/41/26 62/62/35
f 62/62/35 41/41/26 40/40/25
f 63/63/36 40/40/25 64/64/36
f 64/64/36 40/40/25 46/46/28
f 65/65/37 46/46/28 66/66/37
f 66/66/37 46/46/28 50/50/30
f 67/67/38 50/50/30 68/68/38
f 68/68/38 50/50/30 56/56/33
f 69/69/39 56/56/33 59/59/34
f 56/56/33 69/69/39 70/70/39
f 45/45/27 41/41/26 71/71/40
f 45/45/27 71/71/40 72/72/40
f 49/49/29 45/45/27 73/73/41
f 49/49/29 73/73/41 74/74/41
f 51/51/31 49/49/29 75/75/42
f 51/51/31 75/75/42 76/76/42
f 55/55/32 51/51/31 77/77/43
f 55/55/32 77/77/43 78/77/44
f 79/78/45 80/79/45 81/80/45
f 81/80/45 80/79/45 59/59/45
f 82/81/46 37/37/46 83/82/46
f 83/82/46 37/37/46 84/83/46
f 85/84/19 86/85/19 87/86/5
f 87/86/5 86/85/19 88/87/4
f 85/84/19 87/86/5 89/88/22
f 87/86/5 88/87/4 90/89/5
f 89/88/22 87/86/5 91/90/4
f 87/86/5 90/89/5 92/91/5
f 91/90/4 87/86/5 93/92/4
f 87/86/5 92/91/5 94/93/5
f 93/92/4 87/86/5 95/94/5
f 95/94/5 87/86/5 94/93/5
f 96/95/5 97/96/47 98/97/5
f 98/97/5 97/96/47 99/98/48
f 98/97/5 99/98/48 100/99/5
f 100/99/5 99/98/48 101/100/5
f 99/98/48 97/96/47 102/101/49
f 102/101/49 97/96/47 103/102/49
f 54/54/50 55/55/50 104/103/51
f 104/103/51 55/55/50 78/104/52
f 104/103/51 78/104/52 105/105/53
f 104/103/51 105/105/53 106/106/54
f 106/106/54 105/105/53 107/107/55
f 107/107/55 105/105/53 108/108/56
f 107/107/55 108/108/56 109/109/57
f 109/109/57 108/108/56 110/110/58
f 109/109/57 110/110/58 111/111/59
f 109/109/57 111/111/59 112/112/60
f 109/109/57 112/112/60 113/113/61
f 113/113/61 112/112/60 114/114/62
f 113/113/61 114/114/62 115/115/63
f 115/115/63 114/114/62 116/116/64
f 115/115/63 116/116/64 117/117/65
f 118/118/66 119/119/67 120/120/68
f 118/118/66 120/120/68 121/121/69
f 121/121/69 120/120/68 122/121/70
f 119/119/67 118/118/66 123/122/71
f 119/119/67 123/122/71 124/122/72
f 119/119/67 124/122/72 125/123/73
f 125/123/73 124/122/72 126/124/74
f 126/124/74 124/122/72 127/125/75
f 127/125/75 124/122/72 128/126/76
f 126/124/74 127/125/75 129/127/77
f 129/127/77 127/125/75 130/128/78
f 129/127/77 130/128/78 131/129/79
f 129/127/77 131/129/79 132/130/80
f 132/130/80 131/129/79 133/131/81
f 133/131/81 131/129/79 134/132/82
f 134/132/82 131/129/79 135/133/83
f 134/132/82 135/133/83 136/134/84
f 134/132/82 136/134/84 137/135/85
f 137/135/85 136/134/84 60/60/86
f 137/135/85 60/60/86 58/58/50
f 60/60/86 136/134/84 79/136/87
f 60/60/86 79/136/87 81/80/88
f 117/117/65 116/116/64 138/137/89
f 138/137/89 116/116/64 139/138/90
f 138/137/89 139/138/90 140/139/91
f 138/137/89 140/139/91 141/140/92
f 138/137/89 141/140/92 142/141/93
f 142/141/93 141/140/92 143/142/94
f 142/141/93 143/142/94 144/143/94
f 144/143/94 143/142/94 10/144/95
f 144/143/94 10/144/95 145/145/96
f 145/145/96 10/144/95 6/6/97
f 6/6/97 10/144/95 8/8/98
f 122/121/70 120/120/68 146/146/99
f 122/121/70 146/146/99 147/147/100
f 122/121/70 147/147/100 148/148/99
f 147/147/100 146/146/99 149/149/101
f 147/147/100 149/149/101 150/150/102
f 147/147/100 150/150/102 151/151/103
f 151/151/103 150/150/102 152/152/104
f 152/152/104 150/150/102 153/153/105
f 152/152/104 153/153/105 154/154/106
f 152/152/104 154/154/106 155/155/107
f 155/155/107 154/154/106 156/156/108
f 155/155/107 156/156/108 157/157/109
f 157/157/109 156/156/108 83/158/110
f 83/158/110 156/156/108 35/35/111
f 35/35/111 156/156/108 36/36/97
f 83/158/110 35/35/111 82/81/110
f 158/159/112 159/160/113 160/161/114
f 159/160/113 158/159/112 161/162/115
f 161/162/115 158/159/112 162/163/116
f 159/160/113 161/162/115 163/164/117
f 162/163/116 158/159/112 164/165/118
f 162/163/116 164/165/118 165/166/119
f 158/159/112 160/161/114 166/167/120
f 158/159/112 166/167/120 164/165/118
f 159/160/113 163/164/117 167/168/121
f 167/168/121 163/164/117 168/169/122
f 169/170/123 160/161/114 159/160/113
f 169/170/123 159/160/113 167/168/121
f 166/167/120 160/161/114 170/171/124
f 170/171/124 160/161/114 169/170/123
f 164/165/118 166/167/120 171/172/125
f 171/172/125 166/167/120 170/171/124
f 172/173/126 165/166/119 164/165/118
f 172/173/126 164/165/118 171/172/125
f 165/166/119 172/173/126 173/174/127
f 174/175/128 169/170/123 167/168/121
f 169/170/123 174/175/128 170/171/124
f 175/176/129 167/168/121 168/169/122
f 167/168/121 175/176/129 174/175/128
f 175/176/129 168/169/122 176/177/130
f 174/175/128 175/176/129 177/178/131
f 174/175/128 177/178/131 170/171/124
f 175/176/129 176/177/130 178/179/132
f 175/176/129 178/179/132 177/178/131
f 178/179/132 176/177/130 179/180/133
f 177/178/131 178/179/132 170/171/124
f 178/179/132 179/180/133 180/181/134
f 178/179/132 180/181/134 170/171/124
f 170/171/124 180/181/134 181/182/135
f 170/171/124 181/182/135 182/183/136
f 170/171/124 182/183/136 183/184/137
f 183/184/137 182/183/136 184/185/138
f 184/185/138 182/183/136 185/186/139
f 184/185/138 185/186/139 186/187/140
f 186/187/140 185/186/139 187/188/5
f 184/185/138 186/187/140 188/189/141
f 184/185/138 188/189/141 189/190/142
f 184/185/138 189/190/142 183/184/137
f 189/190/142 188/189/141 190/191/143
f 191/192/144 170/171/124 183/184/137
f 191/192/144 183/184/137 189/190/142
f 170/171/124 191/192/144 192/193/145
f 170/171/124 192/193/145 171/172/125
f 171/172/125 192/193/145 172/173/126
f 192/193/145 191/192/144 193/194/146
f 193/194/146 191/192/144 189/190/142
f 192/193/145 193/194/146 172/173/126
f 193/194/146 189/190/142 190/191/143
f 172/173/126 193/194/146 173/174/127
f 173/174/127 193/194/146 190/191/143
f 194/195/147 195/196/147 187/197/147
f 187/197/147 195/196/147 186/198/147
f 186/198/147 195/196/147 188/199/147
f 188/199/147 195/196/147 190/200/147
f 190/200/147 195/196/147 173/201/147
f 173/201/147 195/196/147 165/202/147
f 165/202/147 195/196/147 196/203/147
f 165/202/147 196/203/147 162/204/147
f 162/204/147 196/203/147 197/205/147
f 162/204/147 197/205/147 161/206/147
f 161/206/147 197/205/147 163/207/147
f 163/207/147 197/205/147 198/208/147
f 163/207/147 198/208/147 102/101/147
f 163/207/147 102/101/147 168/209/147
f 168/209/147 102/101/147 176/210/147
f 176/210/147 102/101/147 179/211/147
f 179/211/147 102/101/147 103/102/147
f 198/212/147 199/213/147 102/214/147
f 102/214/147 199/213/147 200/215/147
f 201/216/148 202/217/148 116/218/149
f 116/218/149 202/217/148 139/219/149
f 203/220/150 204/221/150 111/222/151
f 111/222/151 204/221/150 112/223/151
f 77/224/152 205/225/152 78/226/153
f 78/226/153 205/225/152 206/227/152
f 78/226/153 206/227/152 105/228/154
f 143/229/155 207/230/156 10/231/157
f 10/231/157 207/230/156 208/232/156
f 10/231/157 208/232/156 9/233/156
f 75/234/158 209/235/158 76/236/158
f 76/236/158 209/235/158 210/237/158
f 3/238/159 211/239/159 1/240/159
f 1/240/159 211/239/159 212/241/159
f 73/242/160 213/243/160 74/244/160
f 74/244/160 213/243/160 214/245/160
f 215/246/161 94/247/161 216/248/162
f 216/248/162 94/247/161 92/249/162
f 216/248/162 92/249/162 217/250/163
f 217/250/163 92/249/162 90/251/163
f 217/250/163 90/251/163 218/252/164
f 218/252/164 90/251/163 88/253/164
f 218/252/164 88/253/164 219/254/165
f 219/254/165 88/253/164 86/255/165
f 13/256/166 220/257/166 14/258/166
f 14/258/166 220/257/166 221/259/166
f 71/260/167 222/261/167 72/262/167
f 72/262/167 222/261/167 223/263/167
f 17/264/168 224/265/168 18/266/168
f 18/266/168 224/265/168 225/267/168
f 226/268/169 220/257/169 2/269/169
f 2/269/169 220/257/169 13/256/169
f 45/270/170 72/262/170 227/271/170
f 227/271/170 72/262/170 223/263/170
f 228/272/171 224/265/171 12/273/171
f 12/273/171 224/265/171 17/264/171
f 49/274/172 74/244/172 229/275/172
f 229/275/172 74/244/172 214/245/172
f 230/276/173 211/239/173 4/277/173
f 4/277/173 211/239/173 3/238/173
f 41/278/174 61/279/174 231/280/174
f 231/280/174 61/279/174 232/281/174
f 62/282/175 233/283/175 61/279/175
f 61/279/175 233/283/175 232/281/175
f 234/284/176 235/285/176 16/286/176
f 16/286/176 235/285/176 21/287/176
f 51/288/177 76/236/177 236/289/177
f 236/289/177 76/236/177 210/237/177
f 143/229/178 141/290/178 207/230/178
f 207/230/178 141/290/178 237/291/178
f 237/291/178 141/290/178 140/292/178
f 40/293/179 63/294/179 238/295/179
f 238/295/179 63/294/179 239/296/179
f 21/287/180 235/285/180 22/297/180
f 22/297/180 235/285/180 240/298/180
f 241/299/181 242/300/181 20/301/181
f 20/301/181 242/300/181 25/302/181
f 105/228/182 206/227/182 108/303/182
f 108/303/182 206/227/182 243/304/182
f 108/303/182 243/304/182 110/305/182
f 64/306/183 244/307/183 63/294/183
f 63/294/183 244/307/183 239/296/183
f 46/308/184 65/309/184 245/310/184
f 245/310/184 65/309/184 246/311/184
f 114/312/185 247/313/185 116/218/185
f 116/218/185 247/313/185 201/216/185
f 248/314/186 249/315/186 24/316/186
f 24/316/186 249/315/186 29/317/186
f 112/223/187 204/221/187 114/312/187
f 114/312/187 204/221/187 247/313/187
f 25/302/188 242/300/188 26/318/188
f 26/318/188 242/300/188 250/319/188
f 50/320/189 67/321/189 251/322/189
f 251/322/189 67/321/189 252/323/189
f 243/304/190 203/220/190 110/305/190
f 110/305/190 203/220/190 111/222/190
f 66/324/191 253/325/191 65/309/191
f 65/309/191 253/325/191 246/311/191
f 254/326/192 255/327/192 28/328/192
f 28/328/192 255/327/192 33/329/192
f 202/217/193 237/291/193 139/219/193
f 139/219/193 237/291/193 140/292/193
f 29/317/194 249/315/194 30/330/194
f 30/330/194 249/315/194 256/331/194
f 56/332/195 70/333/195 257/334/195
f 257/334/195 70/333/195 258/335/195
f 236/289/196 205/225/196 51/288/196
f 51/288/196 205/225/196 77/224/196
f 68/336/197 259/337/197 67/321/197
f 67/321/197 259/337/197 252/323/197
f 33/329/198 255/327/198 34/338/198
f 34/338/198 255/327/198 260/339/198
f 4/277/199 9/233/199 230/276/199
f 230/276/199 9/233/199 208/232/199
f 261/340/200 262/341/200 32/342/200
f 32/342/200 262/341/200 38/343/200
f 263/344/201 219/254/201 85/345/201
f 85/345/201 219/254/201 86/255/201
f 69/346/202 264/347/202 70/333/202
f 70/333/202 264/347/202 258/335/202
f 59/348/203 80/349/203 265/350/203
f 265/350/203 80/349/203 266/351/203
f 229/275/204 209/235/204 49/274/204
f 49/274/204 209/235/204 75/234/204
f 38/343/205 262/341/205 39/352/205
f 39/352/205 262/341/205 267/353/205
f 215/354/147 268/355/147 94/356/147
f 94/356/147 268/355/147 95/357/147
f 135/358/206 269/359/207 136/360/208
f 136/360/208 269/359/207 79/361/207
f 79/361/207 269/359/207 266/351/207
f 79/361/207 266/351/207 80/349/207
f 270/362/209 271/363/209 37/364/209
f 37/364/209 271/363/209 84/365/209
f 2/269/210 1/240/210 226/268/210
f 226/268/210 1/240/210 212/241/210
f 84/365/211 271/363/212 83/365/213
f 83/365/213 271/363/212 157/366/214
f 157/366/214 271/363/212 155/367/215
f 155/367/215 271/363/212 272/368/212
f 123/369/216 273/370/217 124/371/217
f 124/371/217 273/370/217 274/372/217
f 124/371/217 274/372/217 128/373/218
f 148/374/219 275/375/220 122/376/220
f 122/376/220 275/375/220 276/377/220
f 122/376/220 276/377/220 121/378/221
f 128/373/222 274/372/222 127/379/222
f 127/379/222 274/372/222 277/380/222
f 127/379/222 277/380/222 130/381/222
f 227/271/223 213/243/223 45/270/223
f 45/270/223 213/243/223 73/242/223
f 151/382/224 278/383/224 147/384/224
f 147/384/224 278/383/224 275/375/224
f 147/384/224 275/375/224 148/374/224
f 263/385/225 85/386/225 279/387/226
f 279/387/226 85/386/225 89/388/226
f 12/273/227 14/258/227 228/272/227
f 228/272/227 14/258/227 221/259/227
f 121/378/228 276/377/228 118/389/228
f 118/389/228 276/377/228 280/390/228
f 231/280/229 222/261/229 41/278/229
f 41/278/229 222/261/229 71/260/229
f 279/387/226 89/388/226 281/391/230
f 281/391/230 89/388/226 91/392/230
f 281/391/230 91/392/230 282/393/231
f 282/393/231 91/392/230 93/394/231
f 282/393/231 93/394/231 268/355/232
f 268/355/232 93/394/231 95/357/232
f 118/395/233 280/396/233 123/369/233
f 123/369/233 280/396/233 273/370/233
f 16/286/234 18/266/234 234/284/234
f 234/284/234 18/266/234 225/267/234
f 155/367/235 272/368/235 152/397/235
f 152/397/235 272/368/235 278/383/235
f 152/397/235 278/383/235 151/382/235
f 238/295/236 233/283/236 40/293/236
f 40/293/236 233/283/236 62/282/236
f 130/381/237 277/380/237 131/398/237
f 131/398/237 277/380/237 269/359/237
f 131/398/237 269/359/237 135/358/237
f 20/301/238 22/297/238 241/299/238
f 241/299/238 22/297/238 240/298/238
f 245/310/239 244/307/239 46/308/239
f 46/308/239 244/307/239 64/306/239
f 37/364/240 39/352/240 270/362/240
f 270/362/240 39/352/240 267/353/240
f 265/350/241 264/347/241 59/348/241
f 59/348/241 264/347/241 69/346/241
f 24/316/213 26/318/213 248/314/213
f 248/314/213 26/318/213 250/319/213
f 251/322/216 253/325/216 50/320/216
f 50/320/216 253/325/216 66/324/216
f 257/334/242 259/337/242 56/332/242
f 56/332/242 259/337/242 68/336/242
f 32/342/243 34/338/243 261/340/243
f 261/340/243 34/338/243 260/339/243
f 28/328/244 30/330/244 254/326/244
f 254/326/244 30/330/244 256/331/244
f 146/399/245 283/400/246 149/401/152
f 149/401/152 283/400/246 150/402/152
f 150/402/152 283/400/246 153/403/247
f 153/403/247 283/400/246 284/404/248
f 153/403/247 284/404/248 154/405/158
f 154/405/158 284/404/248 156/406/179
f 156/406/179 284/404/248 36/407/158
f 36/407/158 284/404/248 285/408/249
f 36/407/158 285/408/249 31/409/250
f 31/409/250 285/408/249 27/410/251
f 27/410/251 285/408/249 286/411/251
f 27/410/251 286/411/251 23/412/167
f 23/412/167 286/411/251 287/413/167
f 106/414/252 288/415/253 104/416/205
f 104/416/205 288/415/253 289/417/254
f 288/415/253 106/414/252 290/418/255
f 290/418/255 106/414/252 107/419/256
f 290/418/255 107/419/256 109/420/257
f 290/418/255 109/420/257 113/421/219
f 290/418/255 113/421/219 291/422/258
f 291/422/258 113/421/219 115/423/259
f 291/422/258 115/423/259 292/424/260
f 292/424/260 115/423/259 117/425/218
f 292/424/260 117/425/218 138/426/261
f 53/427/205 54/428/205 104/416/205
f 53/427/205 104/416/205 47/429/262
f 47/429/262 104/416/205 289/417/254
f 47/429/262 289/417/254 43/430/263
f 43/430/263 289/417/254 293/431/263
f 43/430/263 293/431/263 42/432/264
f 42/432/264 293/431/263 294/433/264
f 42/432/264 294/433/264 44/434/147
f 44/434/147 294/433/264 295/435/147
f 44/434/147 295/435/147 48/436/265
f 48/436/265 295/435/147 296/437/265
f 48/436/265 296/437/265 52/438/266
f 52/438/266 296/437/265 297/439/266
f 52/438/266 297/439/266 57/440/267
f 57/440/267 297/439/266 298/441/268
f 57/440/267 298/441/268 299/442/269
f 58/443/159 57/440/267 137/444/159
f 137/444/159 57/440/267 134/445/159
f 134/445/159 57/440/267 299/442/269
f 134/445/159 299/442/269 133/446/270
f 133/446/270 299/442/269 132/447/156
f 132/447/156 299/442/269 129/448/156
f 129/448/156 299/442/269 126/449/271
f 126/449/271 299/442/269 300/450/272
f 126/449/271 300/450/272 125/451/148
f 125/451/148 300/450/272 119/452/273
f 119/452/273 300/450/272 301/453/274
f 119/452/273 301/453/274 120/454/151
f 120/454/151 301/453/274 283/400/246
f 120/454/151 283/400/246 146/399/245
f 5/455/202 7/456/275 145/457/202
f 5/455/202 145/457/202 6/458/202
f 145/457/202 7/456/275 302/459/276
f 302/459/276 7/456/275 303/460/277
f 303/460/277 7/456/275 11/461/277
f 145/457/202 302/459/276 304/462/278
f 303/460/277 11/461/277 305/463/279
f 145/457/202 304/462/278 144/464/280
f 305/463/279 11/461/277 15/465/279
f 144/464/280 304/462/278 142/466/281
f 142/466/281 304/462/278 138/426/261
f 138/426/261 304/462/278 292/424/260
f 305/463/279 15/465/279 306/467/201
f 306/467/201 15/465/279 19/468/201
f 306/467/201 19/468/201 287/469/175
f 287/469/175 19/468/201 23/470/175
f 195/471/230 307/472/230 196/473/282
f 196/473/282 307/472/230 308/474/282
f 196/473/282 308/474/282 197/475/283
f 197/475/283 308/474/282 309/476/283
f 197/475/283 309/476/283 198/212/284
f 198/212/284 309/476/283 310/477/284
f 198/212/284 310/477/284 199/213/133
f 199/213/133 310/477/284 311/478/133
f 233/479/285 238/480/286 232/481/285
f 232/481/285 238/480/286 231/482/287
f 222/483/288 231/482/287 223/484/288
f 223/484/288 231/482/287 227/485/289
f 213/486/290 227/485/289 214/487/290
f 214/487/290 227/485/289 229/488/291
f 210/489/292 209/490/292 229/488/291
f 210/489/292 229/488/291 236/491/293
f 245/492/294 238/480/286 239/493/295
f 245/492/294 239/493/295 244/494/295
f 251/495/296 245/492/294 246/496/297
f 251/495/296 246/496/297 253/497/297
f 257/498/298 251/495/296 252/499/299
f 257/498/298 252/499/299 259/500/299
f 265/501/300 257/498/298 258/502/301
f 265/501/300 258/502/301 264/503/301
f 285/504/133 261/505/302 286/506/133
f 267/507/303 262/508/303 261/505/302
f 267/507/303 261/505/302 270/509/304
f 270/509/304 261/505/302 285/504/133
f 270/509/304 285/504/133 284/510/133
f 286/506/133 261/505/302 254/511/305
f 254/511/305 261/505/302 260/512/306
f 254/511/305 260/512/306 255/513/306
f 286/506/133 254/511/305 287/514/133
f 272/515/307 271/516/307 270/509/304
f 272/515/307 270/509/304 278/517/308
f 278/517/308 270/509/304 284/510/133
f 278/517/308 284/510/133 283/518/133
f 287/514/133 254/511/305 248/519/309
f 248/519/309 254/511/305 256/520/310
f 248/519/309 256/520/310 249/521/310
f 287/514/133 248/519/309 306/522/133
f 276/523/311 275/524/311 278/517/308
f 276/523/311 278/517/308 280/525/312
f 280/525/312 278/517/308 283/518/133
f 280/525/312 283/518/133 301/526/133
f 306/522/133 248/519/309 241/527/313
f 241/527/313 248/519/309 250/528/314
f 241/527/313 250/528/314 242/529/314
f 306/522/133 241/527/313 305/530/133
f 274/531/315 273/532/315 280/525/312
f 274/531/315 280/525/312 277/533/316
f 277/533/316 280/525/312 301/526/133
f 277/533/316 301/526/133 300/534/133
f 305/530/133 241/527/313 234/535/317
f 277/533/316 300/534/133 265/501/300
f 265/501/300 300/534/133 299/536/133
f 277/533/316 265/501/300 266/537/318
f 277/533/316 266/537/318 269/538/318
f 265/501/300 299/536/133 257/498/298
f 257/498/298 299/536/133 298/539/133
f 257/498/298 298/539/133 251/495/296
f 251/495/296 298/539/133 297/540/133
f 251/495/296 297/540/133 245/492/294
f 245/492/294 297/540/133 296/541/133
f 245/492/294 296/541/133 238/480/286
f 238/480/286 296/541/133 295/542/133
f 238/480/286 295/542/133 231/482/287
f 231/482/287 295/542/133 294/543/133
f 231/482/287 294/543/133 227/485/289
f 227/485/289 294/543/133 293/544/133
f 227/485/289 293/544/133 229/488/291
f 229/488/291 293/544/133 289/545/133
f 229/488/291 289/545/133 236/491/293
f 236/491/293 289/545/133 288/546/133
f 206/547/319 205/548/319 236/491/293
f 206/547/319 236/491/293 243/549/320
f 243/549/320 236/491/293 288/546/133
f 243/549/320 288/546/133 290/550/133
f 204/551/321 203/552/321 243/549/320
f 204/551/321 243/549/320 247/553/322
f 247/553/322 243/549/320 290/550/133
f 247/553/322 290/550/133 291/554/133
f 202/555/323 201/556/323 247/553/322
f 202/555/323 247/553/322 237/557/324
f 237/557/324 247/553/322 291/554/133
f 237/557/324 291/554/133 292/558/133
f 208/559/325 207/560/325 237/557/324
f 208/559/325 237/557/324 230/561/326
f 230/561/326 237/557/324 292/558/133
f 230/561/326 292/558/133 304/562/133
f 212/563/327 211/564/327 230/561/326
f 212/563/327 230/561/326 226/565/328
f 226/565/328 230/561/326 304/562/133
f 226/565/328 304/562/133 302/566/133
f 221/567/329 220/568/329 226/565/328
f 221/567/329 226/565/328 228/569/330
f 228/569/330 226/565/328 302/566/133
f 228/569/330 302/566/133 303/570/133
f 225/571/331 224/572/331 228/569/330
f 225/571/331 228/569/330 234/535/317
f 234/535/317 228/569/330 303/570/133
f 234/535/317 303/570/133 305/530/133
f 240/573/332 235/574/332 234/535/317
f 240/573/332 234/535/317 241/527/313
f 185/575/230 182/183/230 187/576/230
f 187/576/230 182/183/230 181/182/230
f 187/576/230 181/182/230 180/577/230
f 187/576/230 180/577/230 179/578/230
