# CS2 body mesh, tools/cs2_glb_to_obj.py
v -0.04626 -0.12036 0.36076
v 0.04755 -0.03202 0.36076
v -0.04626 -0.03202 0.36076
v -0.04626 0.0557 0.36711
v 0.04755 0.0557 0.33219
v 0.04755 -0.03202 0.34965
v 0.04755 -0.03202 0.33948
v 0.04755 -0.12036 0.34965
v 0.04755 0.05571 0.36711
v 0.04755 -0.12036 0.36076
v -0.04626 -0.03202 0.34965
v -0.04626 -0.12036 0.34965
v -0.04747 0.05505 0.33961
v -0.04626 -0.03202 0.33949
v -0.04626 -0.12036 0.33949
v 0.04755 -0.12036 0.33949
v -0.04626 0.0557 0.33219
vt 0.927732 0.915036
vt 0.978027 0.86523
vt 0.927732 0.86523
vt 0.927732 0.816401
vt 0.927244 0.816401
vt 0.921873 0.86523
vt 0.927244 0.86523
vt 0.921873 0.915036
vt 0.907712 0.816401
vt 0.91406 0.86523
vt 0.907712 0.86523
vt 0.907712 0.915036
vt 0.997559 0.816401
vt 0.991211 0.86523
vt 0.997559 0.86523
vt 0.991211 0.915036
vt 0.981933 0.816889
vt 0.983398 0.86523
vt 0.978027 0.915036
vt 0.927244 0.915036
vt 0.978027 0.816401
vn 0.001 0.0313 0.9995
vn 0 -0.0354 0.9994
vn 0 -0.0417 0.9991
vn 0.9888 -0.0238 -0.1474
vn 1 -0.001 -0.0039
vn 1 -0.001 0
vn 0.9893 -0.0215 0.1446
vn 1 0.001 0.0029
vn -0.9893 -0.0215 0.1446
vn -1 0.001 0.0029
vn -1 -0.001 0
vn -0.9889 -0.0101 -0.148
vn -1 -0.0069 -0.004
vn -1 -0.0069 0
vn -0.001 0.0354 -0.9994
vn 0 -0.0417 -0.9991
vn 0 -0.0524 -0.9986
o strap5__p0_c0
f 1/1/1 2/2/2 3/3/2
f 3/3/2 2/2/2 4/4/3
f 5/5/4 6/6/5 7/7/6
f 7/7/6 6/6/5 8/8/6
f 6/10/8 9/9/7 2/11/6
f 6/10/8 2/11/6 10/12/6
f 4/13/9 11/14/10 3/15/11
f 3/15/11 11/14/10 12/16/11
f 13/17/12 14/2/13 11/18/14
f 11/18/14 14/2/13 15/19/11
f 16/20/15 14/2/16 7/7/16
f 7/7/16 14/2/16 17/21/17
