# CS2 body mesh, tools/cs2_glb_to_obj.py
v -0.04626 -0.24773 0.35838
v 0.04755 -0.24773 0.35838
v -0.04626 -0.24134 0.36477
v 0.04755 -0.24134 0.36477
v -0.04626 -0.23261 0.36711
v 0.04755 -0.23261 0.36711
v 0.04755 -0.12036 0.36076
v -0.04626 -0.12036 0.36076
v 0.04755 -0.03202 0.36076
v 0.04755 -0.03202 0.33948
v 0.04755 -0.12036 0.34965
v 0.04755 -0.12036 0.33949
v 0.04755 -0.23261 0.33219
v 0.04755 -0.23261 0.34092
v 0.04755 -0.24134 0.33453
v 0.04755 -0.23697 0.34209
v 0.04755 -0.24773 0.34092
v 0.04755 -0.24017 0.34528
v 0.04755 -0.25007 0.34965
v 0.04755 -0.24134 0.34965
v 0.04755 -0.03202 0.34965
v 0.04755 -0.24017 0.35401
v 0.04755 -0.23697 0.35721
v 0.04755 -0.23261 0.35838
v 0.0376 -0.23261 0.34965
v -0.04626 -0.03202 0.36076
v -0.04626 -0.12036 0.34965
v -0.04626 -0.23261 0.35838
v -0.04626 -0.23697 0.35721
v -0.04626 -0.24017 0.35401
v -0.04626 -0.25007 0.34965
v -0.04626 -0.24134 0.34965
v -0.04626 -0.24773 0.34092
v -0.04626 -0.03202 0.34965
v -0.04626 -0.24017 0.34528
v -0.04626 -0.12036 0.33949
v -0.04626 -0.24134 0.33453
v -0.04626 -0.23697 0.34209
v -0.04626 -0.23261 0.33219
v -0.04626 -0.23261 0.34092
v -0.03631 -0.23261 0.34965
v -0.04626 -0.03202 0.33949
vt 0.927732 0.986328
vt 0.978027 0.986328
vt 0.927732 0.982421
vt 0.978027 0.982421
vt 0.927732 0.977538
vt 0.978027 0.977538
vt 0.978027 0.915036
vt 0.927732 0.915036
vt 0.978027 0.86523
vt 0.927244 0.86523
vt 0.921873 0.915036
vt 0.927244 0.915036
vt 0.927244 0.977538
vt 0.922361 0.977538
vt 0.925779 0.982421
vt 0.921873 0.97998
vt 0.922361 0.985839
vt 0.919919 0.981933
vt 0.917478 0.987304
vt 0.917478 0.982421
vt 0.91406 0.86523
vt 0.912595 0.985839
vt 0.915036 0.981933
vt 0.907712 0.915036
vt 0.909177 0.982421
vt 0.91406 0.915036
vt 0.913083 0.97998
vt 0.907712 0.977538
vt 0.912595 0.977538
vt 0.917478 0.977538
vt 0.997559 0.86523
vt 0.991211 0.915036
vt 0.997559 0.915036
vt 0.992676 0.977538
vt 0.997559 0.977538
vt 0.996094 0.982421
vt 0.991699 0.97998
vt 0.992676 0.985839
vt 0.990234 0.981933
vt 0.987793 0.987304
vt 0.987793 0.982421
vt 0.98291 0.985839
vt 0.983398 0.86523
vt 0.985351 0.981933
vt 0.979003 0.982421
vt 0.983398 0.915036
vt 0.983398 0.97998
vt 0.98291 0.977538
vt 0.987793 0.977538
vt 0.978027 0.987793
vt 0.927244 0.987793
vt 0.978027 0.992676
vt 0.927244 0.992676
vt 0.978027 0.997559
vt 0.927244 0.997559
vt 0.927244 0.982421
vn 0 -0.7064 0.7078
vn 0 -0.5009 0.8655
vn 0.001 0.0313 0.9995
vn 0 -0.0354 0.9994
vn 1 -0.001 0
vn 1 0.001 0.0029
vn 0.6591 -0.0499 -0.7504
vn 0.9979 -0.0655 0
vn 0.6587 -0.0558 -0.7503
vn 0.6607 0.374 -0.6508
vn 0.6607 0.6508 -0.374
vn 0.6615 0.7499 -0.0014
vn 0.6607 0.6508 0.374
vn 0.6607 0.374 0.6508
vn 0.6591 -0.0499 0.7504
vn 0.6587 -0.0558 0.7503
vn -1 -0.001 0
vn -1 -0.0069 0
vn -0.9979 -0.0655 0
vn -0.6587 -0.0558 0.7503
vn -0.6591 -0.0499 0.7504
vn -0.6607 0.374 0.6508
vn -0.6607 0.6508 0.374
vn -0.6615 0.7499 -0.0014
vn -0.6607 0.6508 -0.374
vn -0.6607 0.374 -0.6508
vn -0.6591 -0.0499 -0.7504
vn -0.6587 -0.0558 -0.7503
vn 0 -0.8664 -0.4993
vn 0 -1 0
vn 0 -0.966 0.2586
vn 0 -0.5009 -0.8655
vn -0.001 0.0396 -0.9992
vn -0.001 0.0354 -0.9994
vn 0 -0.0417 -0.9991
o strap6__p0_c0
f 1/1/1 2/2/1 3/3/2
f 3/3/2 2/2/1 4/4/2
f 3/3/2 4/4/2 5/5/3
f 5/5/3 4/4/2 6/6/3
f 5/5/3 6/6/3 7/7/3
f 5/5/3 7/7/3 8/8/3
f 8/8/3 7/7/3 9/9/4
f 10/10/5 11/11/5 12/12/5
f 12/12/5 11/11/5 13/13/5
f 13/13/5 11/11/5 14/14/5
f 13/13/5 14/14/5 15/15/5
f 15/15/5 14/14/5 16/16/5
f 15/15/5 16/16/5 17/17/5
f 17/17/5 16/16/5 18/18/5
f 17/17/5 18/18/5 19/19/5
f 19/19/5 18/18/5 20/20/5
f 19/19/5 20/20/5 2/22/5
f 2/22/5 20/20/5 22/23/5
f 2/22/5 22/23/5 4/25/5
f 21/21/6 7/24/5 11/26/5
f 4/25/5 22/23/5 23/27/5
f 11/26/5 7/24/5 6/28/5
f 4/25/5 23/27/5 6/28/5
f 11/26/5 6/28/5 24/29/5
f 24/29/5 6/28/5 23/27/5
f 24/29/7 25/30/8 11/26/9
f 25/30/8 24/29/7 23/27/10
f 25/30/8 23/27/10 22/23/11
f 25/30/8 22/23/11 20/20/12
f 25/30/8 20/20/12 18/18/13
f 25/30/8 18/18/13 16/16/14
f 25/30/8 16/16/14 14/14/15
f 25/30/8 14/14/15 11/11/16
f 26/31/17 27/32/17 8/33/17
f 8/33/17 27/32/17 28/34/17
f 8/33/17 28/34/17 5/35/17
f 5/35/17 28/34/17 3/36/17
f 3/36/17 28/34/17 29/37/17
f 3/36/17 29/37/17 1/38/17
f 1/38/17 29/37/17 30/39/17
f 1/38/17 30/39/17 31/40/17
f 31/40/17 30/39/17 32/41/17
f 31/40/17 32/41/17 33/42/17
f 33/42/17 32/41/17 35/44/17
f 33/42/17 35/44/17 37/45/17
f 34/43/18 36/7/17 27/46/17
f 37/45/17 35/44/17 38/47/17
f 27/46/17 36/7/17 39/6/17
f 37/45/17 38/47/17 39/6/17
f 27/46/17 39/6/17 40/48/17
f 40/48/17 39/6/17 38/47/17
f 41/49/19 27/46/20 40/48/21
f 41/49/19 40/48/21 38/47/22
f 41/49/19 38/47/22 35/44/23
f 41/49/19 35/44/23 32/41/24
f 41/49/19 32/41/24 30/39/25
f 41/49/19 30/39/25 29/37/26
f 41/49/19 29/37/26 28/34/27
f 41/49/19 28/34/27 27/32/28
f 33/50/29 17/51/29 31/52/30
f 31/52/30 17/51/29 19/53/30
f 31/52/30 19/53/30 1/54/31
f 1/54/31 19/53/30 2/55/31
f 17/51/29 33/50/29 15/56/32
f 15/56/32 33/50/29 37/4/32
f 15/56/32 37/4/32 13/13/33
f 13/13/33 37/4/32 39/6/33
f 13/13/33 39/6/33 36/7/34
f 13/13/33 36/7/34 12/12/34
f 12/12/34 36/7/34 42/9/35
