# CS2 body mesh, tools/cs2_glb_to_obj.py
v -0.05241 0.0989 0.35888
v -0.04991 0.09287 0.35617
v -0.04357 0.10066 0.35888
v -0.04357 0.09413 0.35617
v -0.04887 0.09038 0.34965
v -0.04357 0.09143 0.34965
v 0.04896 0.06479 0.34965
v 0.04999 0.06229 0.35617
v 0.05345 0.06779 0.34965
v 0.04366 0.06374 0.34965
v 0.04366 0.06103 0.35617
v 0.04366 0.05451 0.35888
v 0.05249 0.05626 0.35888
v 0.05536 0.06588 0.35617
v 0.05645 0.07229 0.34965
v 0.05998 0.06127 0.35888
v 0.05895 0.07125 0.35617
v 0.05751 0.07758 0.34965
v 0.06498 0.06875 0.35888
v 0.06021 0.07758 0.35617
v 0.05645 0.08288 0.34965
v 0.06674 0.07758 0.35888
v 0.05895 0.08392 0.35617
v 0.05345 0.08737 0.34965
v 0.06498 0.08642 0.35888
v 0.05536 0.08929 0.35617
v 0.04896 0.09038 0.34965
v 0.05998 0.0939 0.35888
v 0.04999 0.09287 0.35617
v 0.04366 0.09143 0.34965
v 0.05249 0.0989 0.35888
v 0.04366 0.09413 0.35617
v 0.04366 0.10066 0.35888
v -0.05241 0.05626 0.35888
v -0.04991 0.06229 0.35617
v -0.05989 0.06127 0.35888
v -0.05528 0.06588 0.35617
v -0.04887 0.06479 0.34965
v -0.0649 0.06875 0.35888
v -0.05337 0.06779 0.34965
v -0.05887 0.07125 0.35617
v -0.06665 0.07758 0.35888
v -0.05637 0.07229 0.34965
v -0.06012 0.07758 0.35617
v -0.0649 0.08642 0.35888
v -0.05742 0.07758 0.34965
v -0.05887 0.08392 0.35617
v -0.05989 0.0939 0.35888
v -0.05637 0.08288 0.34965
v -0.05528 0.08929 0.35617
v -0.05337 0.08737 0.34965
v 0.04366 0.04798 0.35617
v 0.05499 0.05023 0.35617
v 0.04366 0.04528 0.34965
v 0.05603 0.04774 0.34965
v 0.04366 0.04798 0.34312
v 0.05499 0.05023 0.34312
v 0.04366 0.05451 0.34042
v 0.05249 0.05626 0.34042
v -0.04357 0.05451 0.35888
v -0.04357 0.06103 0.35617
v -0.04357 0.06374 0.34965
v 0.0646 0.05665 0.35617
v 0.06651 0.05474 0.34965
v 0.07101 0.06625 0.35617
v 0.0646 0.05665 0.34312
v 0.05998 0.06127 0.34042
v 0.07351 0.06522 0.34965
v 0.07101 0.06625 0.34312
v 0.06498 0.06875 0.34042
v 0.07327 0.07758 0.35617
v 0.07597 0.07758 0.34965
v 0.07327 0.07758 0.34312
v 0.06674 0.07758 0.34042
v 0.07101 0.08891 0.35617
v 0.07351 0.08995 0.34965
v 0.07101 0.08891 0.34312
v 0.06498 0.08642 0.34042
v 0.0646 0.09852 0.35617
v 0.05499 0.10494 0.35617
v 0.06651 0.10043 0.34965
v 0.05603 0.10743 0.34965
v 0.0646 0.09852 0.34312
v 0.05998 0.0939 0.34042
v 0.05499 0.10494 0.34312
v 0.05249 0.0989 0.34042
v -0.04357 0.05451 0.34042
v -0.04357 0.04798 0.34312
v -0.05241 0.05626 0.34042
v -0.0549 0.05023 0.34312
v -0.04357 0.04528 0.34965
v -0.05989 0.06127 0.34042
v -0.05594 0.04773 0.34965
v -0.04357 0.04798 0.35617
v -0.06451 0.05665 0.34312
v -0.0649 0.06875 0.34042
v -0.0549 0.05023 0.35617
v -0.06642 0.05474 0.34965
v -0.06451 0.05665 0.35617
v -0.07093 0.06625 0.34312
v -0.06665 0.07758 0.34042
v -0.07342 0.06522 0.34965
v -0.07093 0.06625 0.35617
v -0.07318 0.07758 0.34312
v -0.0649 0.08642 0.34042
v -0.07588 0.07758 0.34965
v -0.07318 0.07758 0.35618
v -0.07093 0.08891 0.34312
v -0.05989 0.0939 0.34042
v -0.07342 0.08995 0.34965
v -0.07093 0.08891 0.35617
v -0.06451 0.09852 0.34312
v -0.05241 0.0989 0.34042
v -0.06642 0.10043 0.34965
v -0.06451 0.09852 0.35617
v -0.0549 0.10494 0.34312
v -0.04357 0.10066 0.34042
v -0.04357 0.10719 0.34312
v -0.05594 0.10743 0.34965
v -0.04357 0.10989 0.34965
v -0.0549 0.10494 0.35617
v -0.04357 0.10719 0.35617
v 0.04366 0.10719 0.35617
v 0.04366 0.10989 0.34965
v 0.04366 0.10719 0.34312
v 0.04366 0.10066 0.34042
v -0.04991 0.09287 0.34312
v -0.04357 0.09413 0.34312
v -0.04991 0.06229 0.34312
v -0.05528 0.06588 0.34312
v -0.05887 0.07125 0.34312
v -0.06012 0.07758 0.34312
v -0.05887 0.08392 0.34312
v -0.05528 0.08929 0.34312
v 0.04999 0.06229 0.34312
v 0.04366 0.06103 0.34312
v 0.05536 0.06588 0.34312
v 0.05895 0.07125 0.34312
v 0.06021 0.07758 0.34312
v 0.05895 0.08392 0.34312
v 0.05536 0.08929 0.34312
v 0.04999 0.09287 0.34312
v 0.04366 0.09413 0.34312
v -0.04357 0.06103 0.34312
vt 0.916013 0.743645
vt 0.91113 0.743645
vt 0.916013 0.749504
vt 0.91113 0.749504
vt 0.906247 0.743645
vt 0.906247 0.749504
vt 0.906247 0.790033
vt 0.91113 0.790033
vt 0.906247 0.784661
vt 0.906247 0.795404
vt 0.91113 0.795404
vt 0.916013 0.795404
vt 0.916013 0.790033
vt 0.91113 0.784661
vt 0.906247 0.778802
vt 0.916013 0.784661
vt 0.91113 0.778802
vt 0.906247 0.773431
vt 0.916013 0.778802
vt 0.91113 0.773431
vt 0.906247 0.767571
vt 0.916013 0.773431
vt 0.91113 0.767571
vt 0.906247 0.7622
vt 0.916013 0.767571
vt 0.91113 0.7622
vt 0.906247 0.756828
vt 0.916013 0.7622
vt 0.91113 0.756828
vt 0.906247 0.750969
vt 0.916013 0.756828
vt 0.91113 0.750969
vt 0.916013 0.750969
vt 0.916013 0.71044
vt 0.91113 0.71044
vt 0.916013 0.715812
vt 0.91113 0.715812
vt 0.906247 0.71044
vt 0.916013 0.721671
vt 0.906247 0.715812
vt 0.91113 0.721671
vt 0.916013 0.727042
vt 0.906247 0.721671
vt 0.91113 0.727042
vt 0.916013 0.732414
vt 0.906247 0.727042
vt 0.91113 0.732414
vt 0.916013 0.738273
vt 0.906247 0.732414
vt 0.91113 0.738273
vt 0.906247 0.738273
vt 0.920896 0.795404
vt 0.920896 0.790033
vt 0.926267 0.795404
vt 0.926267 0.790033
vt 0.93115 0.795404
vt 0.93115 0.790033
vt 0.936033 0.795404
vt 0.936033 0.790033
vt 0.916013 0.704581
vt 0.91113 0.704581
vt 0.906247 0.704581
vt 0.920896 0.784661
vt 0.926267 0.784661
vt 0.920896 0.778802
vt 0.93115 0.784661
vt 0.936033 0.784661
vt 0.926267 0.778802
vt 0.93115 0.778802
vt 0.936033 0.778802
vt 0.920896 0.773431
vt 0.926267 0.773431
vt 0.93115 0.773431
vt 0.936033 0.773431
vt 0.920896 0.767571
vt 0.926267 0.767571
vt 0.93115 0.767571
vt 0.936033 0.767571
vt 0.920896 0.7622
vt 0.920896 0.756828
vt 0.926267 0.7622
vt 0.926267 0.756828
vt 0.93115 0.7622
vt 0.936033 0.7622
vt 0.93115 0.756828
vt 0.936033 0.756828
vt 0.936033 0.704581
vt 0.93115 0.704581
vt 0.936033 0.71044
vt 0.93115 0.71044
vt 0.926267 0.704581
vt 0.936033 0.715812
vt 0.926267 0.71044
vt 0.920896 0.704581
vt 0.93115 0.715812
vt 0.936033 0.721671
vt 0.920896 0.71044
vt 0.926267 0.715812
vt 0.920896 0.715812
vt 0.93115 0.721671
vt 0.936033 0.727042
vt 0.926267 0.721671
vt 0.920896 0.721671
vt 0.93115 0.727042
vt 0.936033 0.732414
vt 0.926267 0.727042
vt 0.920896 0.727042
vt 0.93115 0.732414
vt 0.936033 0.738273
vt 0.926267 0.732414
vt 0.920896 0.732414
vt 0.93115 0.738273
vt 0.936033 0.743645
vt 0.926267 0.738273
vt 0.920896 0.738273
vt 0.93115 0.743645
vt 0.936033 0.749504
vt 0.93115 0.749504
vt 0.926267 0.743645
vt 0.926267 0.749504
vt 0.920896 0.743645
vt 0.920896 0.749504
vt 0.920896 0.750969
vt 0.926267 0.750969
vt 0.93115 0.750969
vt 0.936033 0.750969
vt 0.946287 0.743645
vt 0.940916 0.743645
vt 0.946287 0.749504
vt 0.940916 0.749504
vt 0.946287 0.71044
vt 0.940916 0.71044
vt 0.946287 0.715812
vt 0.940916 0.715812
vt 0.946287 0.721671
vt 0.940916 0.721671
vt 0.946287 0.727042
vt 0.940916 0.727042
vt 0.946287 0.732414
vt 0.940916 0.732414
vt 0.946287 0.738273
vt 0.940916 0.738273
vt 0.940916 0.790033
vt 0.940916 0.795404
vt 0.946287 0.795404
vt 0.946287 0.790033
vt 0.940916 0.784661
vt 0.946287 0.784661
vt 0.940916 0.778802
vt 0.946287 0.778802
vt 0.940916 0.773431
vt 0.946287 0.773431
vt 0.940916 0.767571
vt 0.946287 0.767571
vt 0.940916 0.7622
vt 0.946287 0.7622
vt 0.940916 0.756828
vt 0.946287 0.756828
vt 0.940916 0.750969
vt 0.946287 0.750969
vt 0.946287 0.704581
vt 0.940916 0.704581
vn 0.1416 -0.354 0.9245
vn 0.2455 -0.6153 0.7491
vn 0.0754 -0.3812 0.9214
vn 0.1318 -0.6664 0.7338
vn 0.3471 -0.8569 0.3812
vn 0.1804 -0.9092 0.3751
vn -0.3455 0.8568 0.3827
vn -0.2472 0.6124 0.7509
vn -0.6487 0.6586 0.3813
vn -0.1822 0.908 0.3773
vn -0.1334 0.667 0.733
vn -0.0769 0.3817 0.9211
vn -0.1403 0.3569 0.9235
vn -0.463 0.4729 0.7497
vn -0.8498 0.3633 0.382
vn -0.2678 0.2736 0.9238
vn -0.6094 0.2612 0.7486
vn -0.9242 0.009 0.3818
vn -0.3499 0.152 0.9244
vn -0.6613 0.0069 0.7501
vn -0.856 -0.3489 0.3815
vn -0.3831 0.0038 0.9237
vn -0.6141 -0.2472 0.7495
vn -0.6605 -0.6457 0.3831
vn -0.3552 -0.1402 0.9242
vn -0.4747 -0.4632 0.7484
vn -0.3617 -0.8497 0.3835
vn -0.2747 -0.2647 0.9244
vn -0.2594 -0.6089 0.7497
vn -0.1804 -0.9092 0.3751
vn -0.1507 -0.3529 0.9234
vn -0.1284 -0.6463 0.7522
vn -0.0754 -0.3812 0.9214
vn 0.152 0.3499 0.9244
vn 0.2612 0.6094 0.7486
vn 0.2736 0.2678 0.9238
vn 0.4729 0.463 0.7497
vn 0.3596 0.8516 0.3814
vn 0.3569 0.1403 0.9235
vn 0.6586 0.6487 0.3813
vn 0.6148 0.2437 0.7501
vn 0.3824 -0.0064 0.924
vn 0.8568 0.3455 0.3827
vn 0.6628 -0.0069 0.7488
vn 0.3516 -0.1521 0.9237
vn 0.9236 -0.009 0.3833
vn 0.6076 -0.2611 0.7501
vn 0.2662 -0.2733 0.9244
vn 0.8506 -0.3599 0.3833
vn 0.4615 -0.4764 0.7484
vn 0.6473 -0.6589 0.3831
vn 0.1479 -0.741 0.655
vn 0.2784 -0.6895 0.6687
vn 0.195 -0.9807 -0.0116
vn 0.3833 -0.9236 0
vn 0.1448 -0.7313 -0.6665
vn 0.2891 -0.6857 -0.668
vn 0.0754 -0.3812 -0.9214
vn 0.1535 -0.3503 -0.924
vn 0.0769 0.3817 0.9211
vn 0.13 0.6469 0.7514
vn 0.1822 0.908 0.3773
vn 0.5215 -0.5332 0.6661
vn 0.7078 -0.7064 0
vn 0.6845 -0.2908 0.6685
vn 0.5316 -0.5232 -0.6661
vn 0.2747 -0.2647 -0.9244
vn 0.9243 -0.3817 0
vn 0.6906 -0.2766 -0.6682
vn 0.3552 -0.1402 -0.9242
vn 0.7448 -0.0042 0.6673
vn 1 -0.001 0
vn 0.7449 0.0069 -0.6672
vn 0.384 0.0064 -0.9233
vn 0.6899 0.2801 0.6675
vn 0.2764 0.265 0.9238
vn 0.9241 0.3822 -0.0013
vn 0.6861 0.2908 -0.6668
vn 0.3499 0.152 -0.9244
vn 0.5298 0.523 0.6677
vn 0.2908 0.6861 0.6668
vn 0.7071 0.7071 -0.0014
vn 0.3822 0.9241 -0.0013
vn 0.523 0.5298 -0.6677
vn 0.265 0.2764 -0.9238
vn 0.2801 0.6899 -0.6675
vn 0.1403 0.3569 -0.9235
vn -0.0754 -0.3812 -0.9214
vn -0.1479 -0.741 -0.655
vn -0.1416 -0.354 -0.9245
vn -0.2784 -0.6895 -0.6687
vn -0.195 -0.9807 0.0116
vn -0.2662 -0.2733 -0.9244
vn -0.3833 -0.9236 0
vn -0.1448 -0.7313 0.6665
vn -0.5215 -0.5332 -0.6661
vn -0.3516 -0.1521 -0.9237
vn -0.2891 -0.6857 0.668
vn -0.1535 -0.3503 0.924
vn -0.7078 -0.7064 0
vn -0.5316 -0.5232 0.6661
vn -0.6845 -0.2908 -0.6685
vn -0.3824 -0.0064 -0.924
vn -0.9243 -0.3817 0
vn -0.6906 -0.2766 0.6682
vn -0.7448 -0.0042 -0.6673
vn -0.3569 0.1403 -0.9235
vn -1 -0.001 0
vn -0.7449 0.0069 0.6672
vn -0.384 0.0064 0.9233
vn -0.6899 0.2801 -0.6675
vn -0.2764 0.265 -0.9238
vn -0.9241 0.3822 0.0013
vn -0.6861 0.2908 0.6668
vn -0.5298 0.523 -0.6677
vn -0.152 0.3499 -0.9244
vn -0.7071 0.7071 0.0014
vn -0.523 0.5298 0.6677
vn -0.265 0.2764 0.9238
vn -0.2908 0.6861 -0.6668
vn -0.0769 0.3817 -0.9211
vn -0.1464 0.7319 -0.6655
vn -0.3822 0.9241 0.0013
vn -0.1961 0.9805 -0.0104
vn -0.2801 0.6899 0.6675
vn -0.1462 0.7433 0.6528
vn 0.1464 0.7319 0.6655
vn 0.1961 0.9805 0.0104
vn 0.1462 0.7433 -0.6528
vn 0.0769 0.3817 -0.9211
vn 0.3617 -0.8497 -0.3835
vn 0.2594 -0.6089 -0.7497
vn 0.1804 -0.9092 -0.3751
vn 0.1284 -0.6463 -0.7522
vn 0.1507 -0.3529 -0.9234
vn 0.3455 0.8568 -0.3827
vn 0.2472 0.6124 -0.7509
vn 0.6487 0.6586 -0.3813
vn 0.463 0.4729 -0.7497
vn 0.8498 0.3633 -0.382
vn 0.2678 0.2736 -0.9238
vn 0.6094 0.2612 -0.7486
vn 0.9242 0.009 -0.3818
vn 0.6613 0.0069 -0.7501
vn 0.856 -0.3489 -0.3815
vn 0.3831 0.0038 -0.9237
vn 0.6141 -0.2472 -0.7495
vn 0.6605 -0.6457 -0.3831
vn 0.4747 -0.4632 -0.7484
vn -0.2612 0.6094 -0.7486
vn -0.2736 0.2678 -0.9238
vn -0.13 0.6469 -0.7514
vn -0.1822 0.908 -0.3773
vn -0.3596 0.8516 -0.3814
vn -0.4729 0.463 -0.7497
vn -0.6586 0.6487 -0.3813
vn -0.6148 0.2437 -0.7501
vn -0.8568 0.3455 -0.3827
vn -0.6628 -0.0069 -0.7488
vn -0.9236 -0.009 -0.3833
vn -0.6076 -0.2611 -0.7501
vn -0.8506 -0.3599 -0.3833
vn -0.4615 -0.4764 -0.7484
vn -0.6473 -0.6589 -0.3831
vn -0.2455 -0.6153 -0.7491
vn -0.3471 -0.8569 -0.3812
vn -0.1318 -0.6664 -0.7338
vn -0.1804 -0.9092 -0.3751
vn 0.1822 0.908 -0.3773
vn 0.1334 0.667 -0.733
o strap3__p0_c0
f 1/1/1 2/2/2 3/3/3
f 3/3/3 2/2/2 4/4/4
f 4/4/4 2/2/2 5/5/5
f 4/4/4 5/5/5 6/6/6
f 7/7/7 8/8/8 9/9/9
f 10/10/10 11/11/11 7/7/7
f 7/7/7 11/11/11 8/8/8
f 8/8/8 11/11/11 12/12/12
f 8/8/8 12/12/12 13/13/13
f 9/9/9 8/8/8 14/14/14
f 14/14/14 8/8/8 13/13/13
f 9/9/9 14/14/14 15/15/15
f 14/14/14 13/13/13 16/16/16
f 15/15/15 14/14/14 17/17/17
f 17/17/17 14/14/14 16/16/16
f 15/15/15 17/17/17 18/18/18
f 17/17/17 16/16/16 19/19/19
f 18/18/18 17/17/17 20/20/20
f 20/20/20 17/17/17 19/19/19
f 18/18/18 20/20/20 21/21/21
f 20/20/20 19/19/19 22/22/22
f 21/21/21 20/20/20 23/23/23
f 23/23/23 20/20/20 22/22/22
f 21/21/21 23/23/23 24/24/24
f 23/23/23 22/22/22 25/25/25
f 24/24/24 23/23/23 26/26/26
f 26/26/26 23/23/23 25/25/25
f 24/24/24 26/26/26 27/27/27
f 26/26/26 25/25/25 28/28/28
f 27/27/27 26/26/26 29/29/29
f 29/29/29 26/26/26 28/28/28
f 27/27/27 29/29/29 30/30/30
f 29/29/29 28/28/28 31/31/31
f 30/30/30 29/29/29 32/32/32
f 32/32/32 29/29/29 31/31/31
f 32/32/32 31/31/31 33/33/33
f 34/34/34 35/35/35 36/36/36
f 36/36/36 35/35/35 37/37/37
f 37/37/37 35/35/35 38/38/38
f 36/36/36 37/37/37 39/39/39
f 37/37/37 38/38/38 40/40/40
f 39/39/39 37/37/37 41/41/41
f 41/41/41 37/37/37 40/40/40
f 39/39/39 41/41/41 42/42/42
f 41/41/41 40/40/40 43/43/43
f 42/42/42 41/41/41 44/44/44
f 44/44/44 41/41/41 43/43/43
f 42/42/42 44/44/44 45/45/45
f 44/44/44 43/43/43 46/46/46
f 45/45/45 44/44/44 47/47/47
f 47/47/47 44/44/44 46/46/46
f 45/45/45 47/47/47 48/48/48
f 47/47/47 46/46/46 49/49/49
f 48/48/48 47/47/47 50/50/50
f 50/50/50 47/47/47 49/49/49
f 48/48/48 50/50/50 1/1/1
f 50/50/50 49/49/49 51/51/51
f 1/1/1 50/50/50 2/2/2
f 2/2/2 50/50/50 51/51/51
f 2/2/2 51/51/51 5/5/5
f 12/12/3 52/52/52 13/13/1
f 13/13/1 52/52/52 53/53/53
f 53/53/53 52/52/52 54/54/54
f 53/53/53 54/54/54 55/55/55
f 55/55/55 54/54/54 56/56/56
f 55/55/55 56/56/56 57/57/57
f 57/57/57 56/56/56 58/58/58
f 57/57/57 58/58/58 59/59/59
f 60/60/60 61/61/61 34/34/34
f 34/34/34 61/61/61 35/35/35
f 35/35/35 61/61/61 62/62/62
f 35/35/35 62/62/62 38/38/38
f 13/13/1 53/53/53 16/16/48
f 16/16/48 53/53/53 63/63/63
f 63/63/63 53/53/53 55/55/55
f 16/16/48 63/63/63 19/19/45
f 63/63/63 55/55/55 64/64/64
f 64/64/64 55/55/55 57/57/57
f 19/19/45 63/63/63 65/65/65
f 65/65/65 63/63/63 64/64/64
f 19/19/45 65/65/65 22/22/42
f 64/64/64 57/57/57 66/66/66
f 66/66/66 57/57/57 59/59/59
f 66/66/66 59/59/59 67/67/67
f 64/64/64 66/66/66 68/68/68
f 64/64/64 68/68/68 65/65/65
f 66/66/66 67/67/67 69/69/69
f 66/66/66 69/69/69 68/68/68
f 69/69/69 67/67/67 70/70/70
f 71/71/71 22/22/42 65/65/65
f 71/71/71 65/65/65 68/68/68
f 22/22/42 71/71/71 25/25/39
f 68/68/68 69/69/69 72/72/72
f 68/68/68 72/72/72 71/71/71
f 69/69/69 70/70/70 73/73/73
f 69/69/69 73/73/73 72/72/72
f 73/73/73 70/70/70 74/74/74
f 25/25/39 71/71/71 75/75/75
f 75/75/75 71/71/71 72/72/72
f 25/25/39 75/75/75 28/28/76
f 72/72/72 73/73/73 76/76/77
f 72/72/72 76/76/77 75/75/75
f 73/73/73 74/74/74 77/77/78
f 73/73/73 77/77/78 76/76/77
f 77/77/78 74/74/74 78/78/79
f 28/28/76 75/75/75 79/79/80
f 79/79/80 75/75/75 76/76/77
f 28/28/76 79/79/80 31/31/34
f 31/31/34 79/79/80 80/80/81
f 79/79/80 76/76/77 81/81/82
f 79/79/80 81/81/82 80/80/81
f 81/81/82 76/76/77 77/77/78
f 80/80/81 81/81/82 82/82/83
f 83/83/84 77/77/78 78/78/79
f 77/77/78 83/83/84 81/81/82
f 81/81/82 83/83/84 82/82/83
f 83/83/84 78/78/79 84/84/85
f 82/82/83 83/83/84 85/85/86
f 85/85/86 83/83/84 84/84/85
f 85/85/86 84/84/85 86/86/87
f 87/87/88 88/88/89 89/89/90
f 89/89/90 88/88/89 90/90/91
f 90/90/91 88/88/89 91/91/92
f 89/89/90 90/90/91 92/92/93
f 90/90/91 91/91/92 93/93/94
f 93/93/94 91/91/92 94/94/95
f 92/92/93 90/90/91 95/95/96
f 95/95/96 90/90/91 93/93/94
f 92/92/93 95/95/96 96/96/97
f 93/93/94 94/94/95 97/97/98
f 97/97/98 94/94/95 60/60/33
f 97/97/98 60/60/33 34/34/99
f 93/93/94 97/97/98 98/98/100
f 93/93/94 98/98/100 95/95/96
f 97/97/98 34/34/99 99/99/101
f 97/97/98 99/99/101 98/98/100
f 99/99/101 34/34/99 36/36/28
f 100/100/102 96/96/97 95/95/96
f 100/100/102 95/95/96 98/98/100
f 96/96/97 100/100/102 101/101/103
f 98/98/100 99/99/101 102/102/104
f 98/98/100 102/102/104 100/100/102
f 99/99/101 36/36/28 103/103/105
f 99/99/101 103/103/105 102/102/104
f 103/103/105 36/36/28 39/39/25
f 101/101/103 100/100/102 104/104/106
f 104/104/106 100/100/102 102/102/104
f 101/101/103 104/104/106 105/105/107
f 102/102/104 103/103/105 106/106/108
f 102/102/104 106/106/108 104/104/106
f 103/103/105 39/39/25 107/107/109
f 103/103/105 107/107/109 106/106/108
f 107/107/109 39/39/25 42/42/110
f 105/105/107 104/104/106 108/108/111
f 108/108/111 104/104/106 106/106/108
f 105/105/107 108/108/111 109/109/112
f 106/106/108 107/107/109 110/110/113
f 106/106/108 110/110/113 108/108/111
f 107/107/109 42/42/110 111/111/114
f 107/107/109 111/111/114 110/110/113
f 111/111/114 42/42/110 45/45/19
f 109/109/112 108/108/111 112/112/115
f 112/112/115 108/108/111 110/110/113
f 109/109/112 112/112/115 113/113/116
f 110/110/113 111/111/114 114/114/117
f 110/110/113 114/114/117 112/112/115
f 111/111/114 45/45/19 115/115/118
f 111/111/114 115/115/118 114/114/117
f 115/115/118 45/45/19 48/48/119
f 113/113/116 112/112/115 116/116/120
f 116/116/120 112/112/115 114/114/117
f 113/113/116 116/116/120 117/117/121
f 117/117/121 116/116/120 118/118/122
f 116/116/120 114/114/117 119/119/123
f 116/116/120 119/119/123 118/118/122
f 119/119/123 114/114/117 115/115/118
f 118/118/122 119/119/123 120/120/124
f 121/121/125 115/115/118 48/48/119
f 115/115/118 121/121/125 119/119/123
f 119/119/123 121/121/125 120/120/124
f 121/121/125 48/48/119 1/1/13
f 120/120/124 121/121/125 122/122/126
f 122/122/126 121/121/125 1/1/13
f 122/122/126 1/1/13 3/3/12
f 31/31/34 80/80/81 33/33/60
f 33/33/60 80/80/81 123/123/127
f 123/123/127 80/80/81 82/82/83
f 123/123/127 82/82/83 124/124/128
f 124/124/128 82/82/83 85/85/86
f 124/124/128 85/85/86 125/125/129
f 125/125/129 85/85/86 86/86/87
f 125/125/129 86/86/87 126/126/130
f 5/127/131 127/128/132 6/129/133
f 6/129/133 127/128/132 128/130/134
f 128/130/134 127/128/132 113/113/135
f 128/130/134 113/113/135 117/117/58
f 38/131/136 129/132/137 40/133/138
f 40/133/138 129/132/137 130/134/139
f 130/134/139 129/132/137 89/89/87
f 40/133/138 130/134/139 43/135/140
f 130/134/139 89/89/87 92/92/141
f 43/135/140 130/134/139 131/136/142
f 131/136/142 130/134/139 92/92/141
f 43/135/140 131/136/142 46/137/143
f 131/136/142 92/92/141 96/96/79
f 46/137/143 131/136/142 132/138/144
f 132/138/144 131/136/142 96/96/79
f 46/137/143 132/138/144 49/139/145
f 132/138/144 96/96/79 101/101/146
f 49/139/145 132/138/144 133/140/147
f 133/140/147 132/138/144 101/101/146
f 49/139/145 133/140/147 51/141/148
f 133/140/147 101/101/146 105/105/70
f 51/141/148 133/140/147 134/142/149
f 134/142/149 133/140/147 105/105/70
f 51/141/148 134/142/149 5/127/131
f 134/142/149 105/105/70 109/109/67
f 5/127/131 134/142/149 127/128/132
f 127/128/132 134/142/149 109/109/67
f 127/128/132 109/109/67 113/113/135
f 59/59/116 135/143/150 67/67/151
f 58/58/121 136/144/152 59/59/116
f 59/59/116 136/144/152 135/143/150
f 135/143/150 136/144/152 10/145/153
f 135/143/150 10/145/153 7/146/154
f 67/67/151 135/143/150 137/147/155
f 137/147/155 135/143/150 7/146/154
f 67/67/151 137/147/155 70/70/107
f 137/147/155 7/146/154 9/148/156
f 70/70/107 137/147/155 138/149/157
f 138/149/157 137/147/155 9/148/156
f 70/70/107 138/149/157 74/74/103
f 138/149/157 9/148/156 15/150/158
f 74/74/103 138/149/157 139/151/159
f 139/151/159 138/149/157 15/150/158
f 74/74/103 139/151/159 78/78/97
f 139/151/159 15/150/158 18/152/160
f 78/78/97 139/151/159 140/153/161
f 140/153/161 139/151/159 18/152/160
f 78/78/97 140/153/161 84/84/93
f 140/153/161 18/152/160 21/154/162
f 84/84/93 140/153/161 141/155/163
f 141/155/163 140/153/161 21/154/162
f 84/84/93 141/155/163 86/86/90
f 141/155/163 21/154/162 24/156/164
f 86/86/90 141/155/163 142/157/165
f 142/157/165 141/155/163 24/156/164
f 86/86/90 142/157/165 126/126/88
f 142/157/165 24/156/164 27/158/166
f 126/126/88 142/157/165 143/159/167
f 143/159/167 142/157/165 27/158/166
f 143/159/167 27/158/166 30/160/168
f 62/161/169 144/162/170 38/131/136
f 38/131/136 144/162/170 129/132/137
f 129/132/137 144/162/170 87/87/130
f 129/132/137 87/87/130 89/89/87
