# CS2 body mesh, tools/cs2_glb_to_obj.py
v 0.04366 0.10982 0.36786
v 0.04366 0.11247 0.37315
v -0.04357 0.10982 0.36786
v -0.04357 0.11247 0.37315
v -0.04357 0.1602 0.35726
v -0.04357 0.10178 0.3624
v 0.04366 0.1602 0.35726
v -0.04357 0.16343 0.35781
v 0.04366 0.10178 0.3624
v 0.04366 0.16343 0.35781
v 0.04366 0.09525 0.36125
v -0.04357 0.16595 0.35992
v -0.04357 0.09525 0.36125
v 0.04366 0.16595 0.35992
v 0.04366 0.09017 0.35699
v -0.04357 0.16707 0.36301
v -0.04357 0.09017 0.35699
v 0.04366 0.16707 0.36301
v 0.04366 0.08791 0.35076
v -0.04357 0.1665 0.36624
v -0.04357 0.08791 0.35076
v 0.04366 0.1665 0.36624
v 0.04366 0.08906 0.34424
v -0.04357 0.16439 0.36876
v -0.04357 0.08906 0.34424
v 0.04366 0.16439 0.36876
v 0.04366 0.09332 0.33916
v -0.04357 0.1613 0.36988
v -0.04357 0.09332 0.33916
v 0.04366 0.1613 0.36988
v 0.04366 0.09955 0.33689
v -0.04357 0.15784 0.36925
v -0.04357 0.09955 0.33689
v 0.04366 0.15784 0.36925
v 0.04366 0.10607 0.33804
v 0.04366 0.12651 0.36252
v -0.04357 0.10607 0.33804
v -0.04357 0.12651 0.36252
v 0.04366 0.11115 0.3423
v 0.04366 0.12369 0.36287
v -0.04357 0.11115 0.3423
v -0.04357 0.12369 0.36287
v 0.04366 0.11342 0.34853
v -0.04357 0.11342 0.34853
v 0.04366 0.11227 0.35506
v -0.04357 0.11227 0.35506
v 0.04366 0.12417 0.36834
v 0.04366 0.12696 0.3681
v 0.04366 0.15516 0.375
v 0.04366 0.16186 0.3762
v 0.04366 0.16803 0.37396
v 0.04366 0.17225 0.36892
v 0.04366 0.1734 0.36245
v 0.04366 0.17115 0.35628
v 0.04366 0.16611 0.35206
v 0.04366 0.15964 0.35091
v 0.04366 0.10066 0.34965
v -0.04357 0.12417 0.36834
v -0.04357 0.12696 0.3681
v -0.04357 0.15516 0.375
v -0.04357 0.16186 0.37621
v -0.04357 0.16803 0.37396
v -0.04357 0.17225 0.36892
v -0.04357 0.1734 0.36245
v -0.04357 0.17115 0.35628
v -0.04357 0.16611 0.35206
v -0.04357 0.15964 0.35091
v -0.04357 0.10066 0.34965
vt 0.947264 0.645497
vt 0.947264 0.648427
vt 0.995605 0.645497
vt 0.995605 0.648427
vt 0.995605 0.757805
vt 0.995605 0.751946
vt 0.947264 0.757805
vt 0.995605 0.759758
vt 0.947264 0.751946
vt 0.947264 0.759758
vt 0.947264 0.748527
vt 0.995605 0.761223
vt 0.995605 0.748527
vt 0.947264 0.761223
vt 0.947264 0.745598
vt 0.995605 0.762688
vt 0.995605 0.745598
vt 0.947264 0.762688
vt 0.947264 0.74218
vt 0.995605 0.764641
vt 0.995605 0.74218
vt 0.947264 0.764641
vt 0.947264 0.738762
vt 0.995605 0.766106
vt 0.995605 0.738762
vt 0.947264 0.766106
vt 0.947264 0.73632
vt 0.995605 0.768059
vt 0.995605 0.73632
vt 0.947264 0.768059
vt 0.947264 0.732902
vt 0.995605 0.769524
vt 0.995605 0.732902
vt 0.947264 0.769524
vt 0.947264 0.728996
vt 0.947264 0.787103
vt 0.995605 0.728996
vt 0.995605 0.787103
vt 0.947264 0.726066
vt 0.947264 0.788568
vt 0.995605 0.726066
vt 0.995605 0.788568
vt 0.947264 0.796381
vt 0.995605 0.796381
vt 0.947264 0.722648
vt 0.995605 0.722648
vt 0.947264 0.71923
vt 0.995605 0.71923
vt 0.925779 0.689444
vt 0.928709 0.680654
vt 0.922361 0.68749
vt 0.925291 0.680654
vt 0.928709 0.679189
vt 0.925779 0.678701
vt 0.924802 0.660146
vt 0.921384 0.661611
vt 0.920408 0.657704
vt 0.924314 0.658193
vt 0.921873 0.653798
vt 0.925291 0.65624
vt 0.924802 0.651357
vt 0.926756 0.654775
vt 0.929197 0.650868
vt 0.928709 0.654286
vt 0.932615 0.651845
vt 0.930662 0.655263
vt 0.935057 0.655263
vt 0.931639 0.656728
vt 0.936033 0.659169
vt 0.932127 0.658681
vt 0.929197 0.694327
vt 0.933592 0.68749
vt 0.936521 0.694815
vt 0.929685 0.698233
vt 0.937498 0.687002
vt 0.932127 0.701163
vt 0.941404 0.688467
vt 0.936033 0.702628
vt 0.943846 0.691397
vt 0.93994 0.701651
vt 0.944334 0.695303
vt 0.942869 0.69921
vt 0.917966 0.68749
vt 0.915036 0.680654
vt 0.914548 0.689444
vt 0.911618 0.680654
vt 0.915036 0.678701
vt 0.911618 0.679189
vt 0.918943 0.661611
vt 0.915525 0.660146
vt 0.916013 0.658193
vt 0.919919 0.657704
vt 0.915525 0.65624
vt 0.918455 0.653798
vt 0.913572 0.654775
vt 0.915525 0.651357
vt 0.911618 0.654286
vt 0.911618 0.650868
vt 0.910154 0.655263
vt 0.907712 0.651845
vt 0.908689 0.656728
vt 0.905271 0.655263
vt 0.9082 0.658681
vt 0.904294 0.659169
vt 0.911618 0.694327
vt 0.907224 0.68749
vt 0.903806 0.694815
vt 0.902829 0.687002
vt 0.910642 0.698233
vt 0.899411 0.688467
vt 0.9082 0.701163
vt 0.896481 0.691397
vt 0.904294 0.702628
vt 0.895993 0.695303
vt 0.900388 0.701651
vt 0.897458 0.69921
vt 0.995605 0.656728
vt 0.995605 0.655263
vt 0.947264 0.656728
vt 0.947264 0.655263
vt 0.947264 0.669424
vt 0.995605 0.669424
vt 0.995605 0.67333
vt 0.947264 0.67333
vt 0.995605 0.676748
vt 0.947264 0.676748
vt 0.995605 0.679189
vt 0.947264 0.679189
vt 0.995605 0.683096
vt 0.947264 0.683096
vt 0.995605 0.686514
vt 0.947264 0.686514
vt 0.995605 0.689444
vt 0.947264 0.689444
vt 0.995605 0.692862
vt 0.947264 0.692862
vn 0 -0.8936 0.4488
vn 0.001 0.0722 0.9974
vn 0.001 0.0612 0.9981
vn 0 -0.419 0.908
vn 0 -0.4221 0.9065
vn 0 -0.8184 0.5746
vn 0 -0.9962 0.0868
vn 0 -0.9058 -0.4237
vn 0 -0.5731 -0.8195
vn 0 -0.0744 -0.9972
vn 0 -0.088 -0.9961
vn -0.0012 0.205 -0.9788
vn -0.0013 0.4226 -0.9063
vn -0.0011 0.1838 -0.983
vn -0.0014 0.819 -0.5737
vn 0 -0.3033 -0.9529
vn 0 -0.339 -0.9408
vn -0.0011 0.9961 -0.088
vn 0.0011 0.9849 0.1734
vn 1 -0.001 0
vn -1 -0.001 0
vn 0 -0.2102 0.9777
vn 0.0012 0.3274 0.9449
vn 0.0013 0.3791 0.9254
vn 0 -0.2265 0.974
vn 0.0011 0.079 0.9969
vn 0.0014 0.5737 0.819
vn 0.0013 0.9063 0.4226
vn 0 -0.0567 -0.9984
o strap2__p0_c0
f 1/1/1 2/2/1 3/3/1
f 3/3/1 2/2/1 4/4/1
f 5/5/2 6/6/3 7/7/2
f 5/5/2 7/7/2 8/8/4
f 7/7/2 6/6/3 9/9/3
f 8/8/4 7/7/2 10/10/4
f 9/9/3 6/6/3 11/11/5
f 8/8/4 10/10/4 12/12/6
f 11/11/5 6/6/3 13/13/5
f 12/12/6 10/10/4 14/14/6
f 11/11/5 13/13/5 15/15/6
f 12/12/6 14/14/6 16/16/7
f 15/15/6 13/13/5 17/17/6
f 16/16/7 14/14/6 18/18/7
f 15/15/6 17/17/6 19/19/7
f 16/16/7 18/18/7 20/20/8
f 19/19/7 17/17/6 21/21/7
f 20/20/8 18/18/7 22/22/8
f 19/19/7 21/21/7 23/23/8
f 20/20/8 22/22/8 24/24/9
f 23/23/8 21/21/7 25/25/8
f 24/24/9 22/22/8 26/26/9
f 23/23/8 25/25/8 27/27/9
f 24/24/9 26/26/9 28/28/10
f 27/27/9 25/25/8 29/29/9
f 28/28/10 26/26/9 30/30/10
f 27/27/9 29/29/9 31/31/11
f 28/28/10 30/30/10 32/32/12
f 31/31/11 29/29/9 33/33/11
f 32/32/12 30/30/10 34/34/12
f 31/31/11 33/33/11 35/35/13
f 32/32/12 34/34/12 36/36/14
f 35/35/13 33/33/11 37/37/13
f 32/32/12 36/36/14 38/38/14
f 35/35/13 37/37/13 39/39/15
f 38/38/14 36/36/14 40/40/16
f 39/39/15 37/37/13 41/41/15
f 38/38/14 40/40/16 42/42/16
f 42/42/16 40/40/16 1/43/17
f 42/42/16 1/43/17 3/44/17
f 39/39/15 41/41/15 43/45/18
f 43/45/18 41/41/15 44/46/18
f 43/45/18 44/46/18 45/47/19
f 45/47/19 44/46/18 46/48/19
f 1/49/20 40/50/20 2/51/20
f 2/51/20 40/50/20 47/52/20
f 47/52/20 40/50/20 36/53/20
f 47/52/20 36/53/20 48/54/20
f 48/54/20 36/53/20 34/55/20
f 48/54/20 34/55/20 49/56/20
f 49/56/20 34/55/20 50/57/20
f 50/57/20 34/55/20 30/58/20
f 50/57/20 30/58/20 51/59/20
f 51/59/20 30/58/20 26/60/20
f 51/59/20 26/60/20 52/61/20
f 52/61/20 26/60/20 22/62/20
f 52/61/20 22/62/20 53/63/20
f 53/63/20 22/62/20 18/64/20
f 53/63/20 18/64/20 54/65/20
f 54/65/20 18/64/20 14/66/20
f 54/65/20 14/66/20 55/67/20
f 55/67/20 14/66/20 10/68/20
f 55/67/20 10/68/20 56/69/20
f 56/69/20 10/68/20 7/70/20
f 56/69/20 7/70/20 9/71/20
f 56/69/20 9/71/20 45/72/20
f 45/72/20 9/71/20 57/73/20
f 57/73/20 9/71/20 11/74/20
f 45/72/20 57/73/20 43/75/20
f 57/73/20 11/74/20 15/76/20
f 43/75/20 57/73/20 39/77/20
f 57/73/20 15/76/20 19/78/20
f 39/77/20 57/73/20 35/79/20
f 57/73/20 19/78/20 23/80/20
f 35/79/20 57/73/20 31/81/20
f 57/73/20 23/80/20 27/82/20
f 57/73/20 27/82/20 31/81/20
f 4/83/21 58/84/21 3/85/21
f 3/85/21 58/84/21 42/86/21
f 42/86/21 58/84/21 59/87/21
f 42/86/21 59/87/21 38/88/21
f 38/88/21 59/87/21 60/89/21
f 38/88/21 60/89/21 32/90/21
f 32/90/21 60/89/21 28/91/21
f 28/91/21 60/89/21 61/92/21
f 28/91/21 61/92/21 24/93/21
f 24/93/21 61/92/21 62/94/21
f 24/93/21 62/94/21 20/95/21
f 20/95/21 62/94/21 63/96/21
f 20/95/21 63/96/21 16/97/21
f 16/97/21 63/96/21 64/98/21
f 16/97/21 64/98/21 12/99/21
f 12/99/21 64/98/21 65/100/21
f 12/99/21 65/100/21 8/101/21
f 8/101/21 65/100/21 66/102/21
f 8/101/21 66/102/21 5/103/21
f 5/103/21 66/102/21 67/104/21
f 5/103/21 67/104/21 6/105/21
f 6/105/21 67/104/21 46/106/21
f 6/105/21 46/106/21 68/107/21
f 68/107/21 46/106/21 44/108/21
f 6/105/21 68/107/21 13/109/21
f 68/107/21 44/108/21 41/110/21
f 13/109/21 68/107/21 17/111/21
f 68/107/21 41/110/21 37/112/21
f 17/111/21 68/107/21 21/113/21
f 68/107/21 37/112/21 33/114/21
f 21/113/21 68/107/21 25/115/21
f 68/107/21 33/114/21 29/116/21
f 68/107/21 29/116/21 25/115/21
f 59/117/22 58/118/23 48/119/22
f 48/119/22 58/118/23 47/120/23
f 47/120/23 58/118/23 4/4/24
f 47/120/23 4/4/24 2/2/24
f 59/117/22 48/119/22 49/121/25
f 59/117/22 49/121/25 60/122/25
f 60/122/25 49/121/25 61/123/26
f 61/123/26 49/121/25 50/124/26
f 61/123/26 50/124/26 62/125/27
f 62/125/27 50/124/26 51/126/27
f 62/125/27 51/126/27 63/127/28
f 63/127/28 51/126/27 52/128/28
f 63/127/28 52/128/28 64/129/18
f 64/129/18 52/128/28 53/130/18
f 64/129/18 53/130/18 65/131/15
f 65/131/15 53/130/18 54/132/15
f 65/131/15 54/132/15 66/133/13
f 66/133/13 54/132/15 55/134/13
f 66/133/13 55/134/13 67/135/29
f 67/135/29 55/134/13 56/136/29
f 67/135/29 56/136/29 45/47/11
f 67/135/29 45/47/11 46/48/11
