# CS2 body mesh, tools/cs2_glb_to_obj.py
v 0.03183 0.32535 0.37397
v 0.01674 0.33305 0.37397
v 0.04382 0.31337 0.37397
v -0.01674 0.33305 0.37397
v 0 0.3357 0.37397
v 0.05151 0.29827 0.37397
v 0.05416 0.28153 0.37397
v 0.04382 0.2497 0.37397
v 0.05151 0.2648 0.37397
v -0.03184 0.32535 0.37397
v -0.04382 0.31337 0.37397
v -0.05417 0.28153 0.37397
v -0.05151 0.29827 0.37397
v 0.03183 0.23772 0.37397
v 0.01674 0.23002 0.37397
v -0.01674 0.23002 0.37397
v 0 0.22737 0.37397
v -0.04382 0.2497 0.37397
v -0.05151 0.2648 0.37397
v -0.03184 0.23772 0.37397
v -0.0586 0.17076 0.36224
v -0.06054 0.17444 0.36126
v -0.07113 0.16197 0.3646
v -0.07527 0.16982 0.36249
v -0.06468 0.15574 0.36626
v -0.06121 0.17851 0.36016
v -0.05557 0.16784 0.36302
v -0.0767 0.17851 0.36016
v -0.05655 0.15174 0.36734
v -0.0767 0.18596 0.35817
v -0.05176 0.16596 0.36353
v -0.06121 0.18596 0.35817
v -0.04753 0.15037 0.3677
v -0.0767 0.21469 0.35817
v -0.04753 0.16532 0.3637
v -0.06121 0.21469 0.35817
v 0 0.16532 0.3637
v -0.06054 0.21891 0.35817
v 0 0.15037 0.3677
v -0.07527 0.2237 0.35817
v 0.04749 0.15037 0.3677
v -0.0586 0.22272 0.35817
v 0.04749 0.16532 0.3637
v -0.07113 0.23182 0.35817
v 0.05171 0.16596 0.36353
v -0.05557 0.22574 0.35817
v 0.0565 0.15174 0.36734
v -0.06468 0.23827 0.35817
v 0.05552 0.16784 0.36302
v -0.05176 0.22769 0.35817
v 0.06462 0.15574 0.36626
v -0.05655 0.24241 0.35817
v 0.05855 0.17076 0.36224
v -0.04753 0.22835 0.35817
v 0.07107 0.16197 0.36459
v -0.04753 0.24383 0.35817
v -0.00366 0.24383 0.35817
v -0.00366 0.22835 0.35817
v 0.06049 0.17444 0.36125
v 0.07521 0.16982 0.36249
v 0.06116 0.17851 0.36016
v 0.07663 0.17851 0.36016
v 0.07663 0.18596 0.35817
v 0.06116 0.18596 0.35817
v 0.07663 0.21469 0.35817
v 0.06116 0.21469 0.35817
v 0.06049 0.21891 0.35817
v 0.07521 0.2237 0.35817
v 0.05855 0.22272 0.35817
v 0.07107 0.23182 0.35817
v 0.05552 0.22574 0.35817
v 0.06462 0.23827 0.35817
v 0.05171 0.22769 0.35817
v 0.0565 0.24241 0.35817
v 0.04749 0.22835 0.35817
v 0.04749 0.24383 0.35817
v 0.00365 0.24383 0.35817
v 0.00365 0.22835 0.35817
v 0.0565 0.15013 0.36131
v 0.04749 0.14875 0.36168
v 0 0.14875 0.36168
v -0.04753 0.14875 0.36168
v -0.05655 0.15013 0.36131
v -0.06468 0.15413 0.36024
v 0.07107 0.16035 0.35857
v 0.06462 0.15413 0.36024
v -0.07113 0.16035 0.35857
v -0.07527 0.1682 0.35646
v -0.0767 0.1769 0.35413
v -0.0767 0.18596 0.35193
v -0.0767 0.21469 0.35193
v -0.07527 0.2237 0.35193
v -0.07113 0.23182 0.35193
v 0.07107 0.23182 0.35193
v 0.07521 0.2237 0.35193
v 0.07663 0.21469 0.35193
v 0.07663 0.18596 0.35193
v 0.07663 0.1769 0.35413
v 0.07521 0.1682 0.35646
v 0.01674 0.33305 0.34863
v 0.03183 0.32535 0.34863
v 0.04382 0.31337 0.34863
v 0.05151 0.29827 0.34863
v 0.05416 0.28153 0.34863
v 0.05151 0.2648 0.34863
v 0.03183 0.23772 0.34863
v 0.01674 0.23002 0.34863
v 0.04382 0.2497 0.34863
v 0.0565 0.24241 0.35193
v 0.06462 0.23827 0.35193
v -0.05151 0.29827 0.34863
v -0.04382 0.31337 0.34863
v -0.03184 0.32535 0.34863
v -0.05417 0.28153 0.34863
v -0.01674 0.33305 0.34863
v -0.05151 0.2648 0.34863
v 0 0.3357 0.34863
v -0.04382 0.2497 0.34863
v -0.03184 0.23772 0.34863
v -0.01674 0.23002 0.34863
v 0 0.22737 0.34863
v -0.05176 0.22769 0.35193
v -0.04753 0.22835 0.35193
v -0.00366 0.22835 0.35193
v -0.06468 0.23827 0.35193
v -0.05655 0.24241 0.35193
v -0.04753 0.24383 0.35193
v -0.00366 0.24383 0.35193
v 0.00365 0.24383 0.35193
v 0.04749 0.24383 0.35193
v -0.05176 0.16435 0.3575
v -0.05557 0.16622 0.357
v -0.0586 0.16914 0.35621
v -0.06054 0.17282 0.35523
v -0.06121 0.1769 0.35413
v -0.06121 0.18596 0.35193
v -0.06121 0.21469 0.35193
v -0.06054 0.21891 0.35193
v -0.0586 0.22272 0.35193
v -0.05557 0.22574 0.35193
v 0.06049 0.17282 0.35523
v 0.05855 0.16914 0.35621
v 0.06116 0.1769 0.35413
v 0.05552 0.16622 0.35699
v 0.06116 0.18596 0.35193
v 0.05171 0.16435 0.3575
v 0.06116 0.21469 0.35193
v 0.04749 0.1637 0.35767
v 0.06049 0.21891 0.35193
v 0 0.1637 0.35767
v 0.05855 0.22272 0.35193
v -0.04753 0.1637 0.35767
v 0.05552 0.22574 0.35193
v 0.05171 0.22769 0.35193
v 0.04749 0.22835 0.35193
v 0.00365 0.22835 0.35193
vt 0.892087 0.365459
vt 0.879879 0.359111
vt 0.901852 0.375225
vt 0.852535 0.359111
vt 0.866207 0.356883
vt 0.9082 0.387402
vt 0.910154 0.401105
vt 0.901852 0.426954
vt 0.9082 0.414747
vt 0.840327 0.365459
vt 0.830561 0.375225
vt 0.821772 0.401105
vt 0.824213 0.387402
vt 0.892087 0.43675
vt 0.879879 0.443098
vt 0.852535 0.443098
vt 0.866207 0.445296
vt 0.830561 0.426954
vt 0.824213 0.414747
vt 0.840327 0.43675
vt 0.239479 0.426008
vt 0.240333 0.427961
vt 0.245582 0.421613
vt 0.247658 0.42552
vt 0.242409 0.418653
vt 0.240699 0.429914
vt 0.237892 0.424543
vt 0.24839 0.429914
vt 0.23838 0.41673
vt 0.24839 0.433576
vt 0.236061 0.423566
vt 0.240699 0.433576
vt 0.233985 0.415998
vt 0.24839 0.447737
vt 0.233985 0.423292
vt 0.240699 0.447737
vt 0.210547 0.423292
vt 0.240333 0.44969
vt 0.210547 0.415998
vt 0.247658 0.452132
vt 0.187109 0.415998
vt 0.239479 0.451643
vt 0.187109 0.423292
vt 0.245582 0.456038
vt 0.185034 0.423566
vt 0.237892 0.453108
vt 0.182714 0.41673
vt 0.242409 0.459212
vt 0.183203 0.424543
vt 0.236061 0.454054
vt 0.178686 0.418653
vt 0.23838 0.461409
vt 0.181616 0.426008
vt 0.233985 0.454299
vt 0.175512 0.421613
vt 0.233985 0.462111
vt 0.212378 0.462111
vt 0.212378 0.454299
vt 0.180639 0.427961
vt 0.173437 0.42552
vt 0.180395 0.429914
vt 0.172704 0.429914
vt 0.172704 0.433576
vt 0.180395 0.433576
vt 0.172704 0.447737
vt 0.180395 0.447737
vt 0.180639 0.44969
vt 0.173437 0.452132
vt 0.181616 0.451643
vt 0.175512 0.456038
vt 0.183203 0.453108
vt 0.178686 0.459212
vt 0.185034 0.454054
vt 0.182714 0.461409
vt 0.187109 0.454299
vt 0.187109 0.462111
vt 0.208716 0.462111
vt 0.208716 0.454299
vt 0.154637 0.486312
vt 0.154637 0.492416
vt 0.163549 0.486801
vt 0.163549 0.49266
vt 0.210547 0.49266
vt 0.210547 0.486801
vt 0.257546 0.486801
vt 0.257546 0.49266
vt 0.266335 0.492416
vt 0.266335 0.486312
vt 0.274392 0.49144
vt 0.274392 0.485305
vt 0.140233 0.483627
vt 0.140233 0.4897
vt 0.14658 0.485305
vt 0.14658 0.49144
vt 0.292459 0.481643
vt 0.292459 0.475326
vt 0.286355 0.481399
vt 0.286355 0.475326
vt 0.292459 0.467757
vt 0.286355 0.467513
vt 0.292459 0.458968
vt 0.286355 0.458968
vt 0.286355 0.449904
vt 0.292459 0.449904
vt 0.286355 0.421613
vt 0.292459 0.421613
vt 0.292459 0.41258
vt 0.286355 0.41258
vt 0.292459 0.404767
vt 0.286355 0.404767
vt 0.134739 0.404767
vt 0.128513 0.404767
vt 0.134739 0.41258
vt 0.128513 0.41258
vt 0.134739 0.421613
vt 0.128513 0.421613
vt 0.128513 0.449904
vt 0.134739 0.449904
vt 0.128513 0.458968
vt 0.134739 0.458968
vt 0.134739 0.467513
vt 0.128513 0.467513
vt 0.134739 0.475326
vt 0.128513 0.475326
vt 0.942381 0.125095
vt 0.942381 0.157689
vt 0.953612 0.125095
vt 0.953612 0.157689
vt 0.964843 0.125095
vt 0.964843 0.157689
vt 0.975585 0.125095
vt 0.975585 0.157689
vt 0.986816 0.125095
vt 0.986816 0.157689
vt 0.998047 0.125095
vt 0.998047 0.157689
vt 0.796869 0.157689
vt 0.796869 0.125095
vt 0.786126 0.157689
vt 0.8081 0.125095
vt 0.8081 0.157689
vt 0.786126 0.125095
vt 0.774895 0.157689
vt 0.774895 0.125095
vt 0.154637 0.392804
vt 0.154637 0.3867
vt 0.14658 0.392804
vt 0.14658 0.3867
vt 0.140233 0.392804
vt 0.140233 0.3867
vt 0.886227 0.125095
vt 0.886227 0.157689
vt 0.897458 0.125095
vt 0.897458 0.157689
vt 0.875484 0.157689
vt 0.908689 0.125095
vt 0.875484 0.125095
vt 0.908689 0.157689
vt 0.864254 0.157689
vt 0.919919 0.125095
vt 0.864254 0.125095
vt 0.919919 0.157689
vt 0.853023 0.157689
vt 0.93115 0.125095
vt 0.853023 0.125095
vt 0.93115 0.157689
vt 0.841792 0.157689
vt 0.841792 0.125095
vt 0.830561 0.157689
vt 0.830561 0.125095
vt 0.81933 0.157689
vt 0.81933 0.125095
vt 0.259743 0.414747
vt 0.261696 0.408673
vt 0.257546 0.408185
vt 0.257546 0.414289
vt 0.214087 0.414289
vt 0.214087 0.408185
vt 0.28074 0.3867
vt 0.274392 0.3867
vt 0.28074 0.392804
vt 0.274392 0.392804
vt 0.266335 0.3867
vt 0.266335 0.392804
vt 0.257546 0.3867
vt 0.257546 0.392804
vt 0.214087 0.392804
vt 0.214087 0.3867
vt 0.206885 0.3867
vt 0.163549 0.3867
vt 0.206885 0.392804
vt 0.163549 0.392804
vt 0.259499 0.465529
vt 0.261696 0.471419
vt 0.265358 0.469436
vt 0.261452 0.464095
vt 0.268288 0.466536
vt 0.262917 0.46263
vt 0.270241 0.462874
vt 0.263894 0.460677
vt 0.270974 0.458968
vt 0.26487 0.458968
vt 0.26487 0.449904
vt 0.270974 0.449904
vt 0.26487 0.421613
vt 0.270974 0.421613
vt 0.270241 0.417463
vt 0.264382 0.419141
vt 0.268288 0.413556
vt 0.263161 0.417219
vt 0.265358 0.410627
vt 0.261452 0.415754
vt 0.156713 0.460677
vt 0.150731 0.462874
vt 0.157689 0.462874
vt 0.152684 0.466536
vt 0.149998 0.458968
vt 0.159276 0.465072
vt 0.156224 0.458968
vt 0.155614 0.469436
vt 0.156224 0.449904
vt 0.161107 0.465773
vt 0.149998 0.449904
vt 0.159398 0.471419
vt 0.156224 0.421613
vt 0.163549 0.466018
vt 0.149998 0.421613
vt 0.163549 0.471908
vt 0.150731 0.417463
vt 0.210547 0.471908
vt 0.156835 0.419141
vt 0.210547 0.466018
vt 0.152684 0.413556
vt 0.257546 0.466018
vt 0.157811 0.417219
vt 0.257546 0.471908
vt 0.155614 0.410627
vt 0.159642 0.415754
vt 0.159398 0.408673
vt 0.161473 0.414533
vt 0.163549 0.408185
vt 0.163549 0.414289
vt 0.206885 0.414289
vt 0.206885 0.408185
vt 0.136204 0.467513
vt 0.140233 0.475326
vt 0.14658 0.481399
vt 0.154637 0.485305
vt 0.136204 0.41258
vt 0.140233 0.404767
vt 0.14658 0.398175
vt 0.266335 0.485305
vt 0.154637 0.394269
vt 0.274392 0.481399
vt 0.28074 0.475326
vt 0.28489 0.467513
vt 0.28489 0.41258
vt 0.28074 0.404767
vt 0.274392 0.398175
vt 0.266335 0.394269
vn 0 -0.001 1
vn 0.0012 0.2574 0.9663
vn -0.0012 0.2574 0.9663
vn -0.001 0.0546 0.9985
vn 0.001 0.0546 0.9985
vn 0.3079 -0.9194 0.2446
vn 0.0244 -0.9656 0.2588
vn 0 -0.966 0.2586
vn -0.0244 -0.9656 0.2588
vn -0.3079 -0.9194 0.2446
vn -0.4527 -0.8617 0.2294
vn 0.7079 -0.6817 0.1847
vn 0.5864 -0.7824 0.2099
vn -0.7079 -0.6817 0.1847
vn -0.8099 -0.5664 0.1524
vn -0.9513 -0.2976 0.0806
vn -0.9967 -0.0782 0.0214
vn -0.9969 -0.0758 0.0192
vn -1 -0.001 0
vn -0.9993 0.0375 0.001
vn -0.9509 0.3096 0.0012
vn -0.891 0.454 0.0013
vn 0.891 0.454 -0.0013
vn 0.9518 0.3066 -0.0012
vn 0.9993 0.0375 -0.001
vn 1 -0.001 0
vn 0.9967 -0.0782 0.0214
vn 0.9969 -0.0758 0.0192
vn 0.9513 -0.2976 0.0806
vn 0.8915 -0.4372 0.1189
vn 0.3096 0.9509 -0.0012
vn 0.5892 0.808 -0.0014
vn 0.8102 0.5861 -0.0014
vn 0.9879 -0.1553 0
vn 0.587 -0.8096 0
vn 0.8084 -0.5886 0
vn 0.3077 -0.9515 0
vn 0.8912 -0.4535 0
vn 0.7071 0.7071 -0.0014
vn -0.9518 0.3066 0.0012
vn -0.8102 0.5861 0.0014
vn -0.5892 0.808 0.0014
vn -0.951 -0.3092 0
vn -0.3096 0.9509 0.0012
vn -0.8084 -0.5886 0
vn 0.001 1 -0.001
vn -0.587 -0.8096 0
vn -0.3077 -0.9515 0
vn 0 -1 0
vn 0.0139 -0.9999 0
vn -0.7071 0.7071 0.0014
vn -0.0271 0.9996 0.001
vn -0.0271 0.9996 -0.001
vn -0.001 1 0.001
vn -0.001 1 -0.001
vn 0.0271 0.9996 -0.001
vn 0.3099 0.9182 -0.2465
vn 0.5876 0.7819 -0.2082
vn 0.8082 0.5692 -0.1509
vn 0.9505 0.3004 -0.0793
vn 0.9985 0.0531 -0.0135
vn 0.9984 0.0553 -0.0136
vn 0.9998 -0.021 0
vn 0.951 -0.3092 0
vn -0.9505 0.3004 -0.0793
vn -0.8082 0.5692 -0.1509
vn -0.9985 0.0531 -0.0135
vn -0.5876 0.7819 -0.2082
vn -0.9984 0.0553 -0.0136
vn -0.3099 0.9182 -0.2465
vn -0.9998 -0.021 0
vn -0.0133 0.9662 -0.2576
vn -0.0012 0.9655 -0.2603
vn 0.0133 0.9662 -0.2576
vn -0.0139 -0.9999 0
vn 0 -0.26 -0.9656
vn 0 -0.2459 -0.9693
vn 0 -0.2431 -0.97
vn 0 -0.0589 -0.9983
vn 0 -0.001 -1
o strap1__p0_c0
f 1/1/1 2/2/1 3/3/1
f 3/3/1 2/2/1 4/4/1
f 4/4/1 2/2/1 5/5/1
f 6/6/1 3/3/1 7/7/1
f 7/7/1 3/3/1 8/8/1
f 8/8/1 3/3/1 4/4/1
f 7/7/1 8/8/1 9/9/1
f 10/10/1 11/11/1 4/4/1
f 4/4/1 11/11/1 12/12/1
f 4/4/1 12/12/1 8/8/1
f 12/12/1 11/11/1 13/13/1
f 14/14/1 8/8/1 15/15/1
f 15/15/1 8/8/1 16/16/1
f 16/16/1 8/8/1 12/12/1
f 15/15/1 16/16/1 17/17/1
f 16/16/1 12/12/1 18/18/1
f 18/18/1 12/12/1 19/19/1
f 16/16/1 18/18/1 20/20/1
f 21/21/2 22/22/2 23/23/2
f 23/23/2 22/22/2 24/24/3
f 21/21/2 23/23/2 25/25/3
f 24/24/3 22/22/2 26/26/2
f 21/21/2 25/25/3 27/27/2
f 24/24/3 26/26/2 28/28/3
f 27/27/2 25/25/3 29/29/3
f 28/28/3 26/26/2 30/30/4
f 27/27/2 29/29/3 31/31/2
f 30/30/4 26/26/2 32/32/5
f 31/31/2 29/29/3 33/33/2
f 30/30/4 32/32/5 34/34/1
f 31/31/2 33/33/2 35/35/2
f 34/34/1 32/32/5 36/36/1
f 35/35/2 33/33/2 37/37/2
f 34/34/1 36/36/1 38/38/1
f 37/37/2 33/33/2 39/39/2
f 34/34/1 38/38/1 40/40/1
f 37/37/2 39/39/2 41/41/2
f 40/40/1 38/38/1 42/42/1
f 37/37/2 41/41/2 43/43/2
f 40/40/1 42/42/1 44/44/1
f 43/43/2 41/41/2 45/45/3
f 44/44/1 42/42/1 46/46/1
f 45/45/3 41/41/2 47/47/2
f 44/44/1 46/46/1 48/48/1
f 45/45/3 47/47/2 49/49/2
f 48/48/1 46/46/1 50/50/1
f 49/49/2 47/47/2 51/51/2
f 48/48/1 50/50/1 52/52/1
f 49/49/2 51/51/2 53/53/2
f 52/52/1 50/50/1 54/54/1
f 53/53/2 51/51/2 55/55/2
f 52/52/1 54/54/1 56/56/1
f 56/56/1 54/54/1 57/57/1
f 57/57/1 54/54/1 58/58/1
f 53/53/2 55/55/2 59/59/2
f 59/59/2 55/55/2 60/60/2
f 59/59/2 60/60/2 61/61/2
f 61/61/2 60/60/2 62/62/2
f 61/61/2 62/62/2 63/63/5
f 61/61/2 63/63/5 64/64/4
f 64/64/4 63/63/5 65/65/1
f 64/64/4 65/65/1 66/66/1
f 66/66/1 65/65/1 67/67/1
f 67/67/1 65/65/1 68/68/1
f 67/67/1 68/68/1 69/69/1
f 69/69/1 68/68/1 70/70/1
f 69/69/1 70/70/1 71/71/1
f 71/71/1 70/70/1 72/72/1
f 71/71/1 72/72/1 73/73/1
f 73/73/1 72/72/1 74/74/1
f 73/73/1 74/74/1 75/75/1
f 75/75/1 74/74/1 76/76/1
f 75/75/1 76/76/1 77/77/1
f 75/75/1 77/77/1 78/78/1
f 79/79/6 47/80/6 80/81/7
f 80/81/7 47/80/6 41/82/7
f 80/81/7 41/82/7 39/83/8
f 80/81/7 39/83/8 81/84/8
f 81/84/8 39/83/8 82/85/9
f 82/85/9 39/83/8 33/86/9
f 82/85/9 33/86/9 29/87/10
f 82/85/9 29/87/10 83/88/10
f 83/88/10 29/87/10 25/89/11
f 83/88/10 25/89/11 84/90/11
f 85/91/12 55/92/12 86/93/13
f 86/93/13 55/92/12 51/94/13
f 86/93/13 51/94/13 79/79/6
f 79/79/6 51/94/13 47/80/6
f 25/95/14 23/96/15 84/97/14
f 84/97/14 23/96/15 87/98/15
f 87/98/15 23/96/15 24/99/16
f 87/98/15 24/99/16 88/100/16
f 88/100/16 24/99/16 28/101/17
f 88/100/16 28/101/17 89/102/18
f 89/102/18 28/101/17 90/103/19
f 90/103/19 28/101/17 30/104/19
f 90/103/19 30/104/19 91/105/20
f 91/105/20 30/104/19 34/106/20
f 91/105/20 34/106/20 40/107/21
f 91/105/20 40/107/21 92/108/21
f 92/108/21 40/107/21 44/109/22
f 92/108/21 44/109/22 93/110/22
f 94/111/23 70/112/23 95/113/24
f 95/113/24 70/112/23 68/114/24
f 95/113/24 68/114/24 96/115/25
f 96/115/25 68/114/24 65/116/25
f 96/115/25 65/116/25 63/117/26
f 96/115/25 63/117/26 97/118/26
f 97/118/26 63/117/26 62/119/27
f 97/118/26 62/119/27 98/120/28
f 98/120/28 62/119/27 99/121/29
f 99/121/29 62/119/27 60/122/29
f 99/121/29 60/122/29 85/123/30
f 85/123/30 60/122/29 55/124/30
f 100/125/31 2/126/31 101/127/32
f 101/127/32 2/126/31 1/128/32
f 101/127/32 1/128/32 102/129/33
f 102/129/33 1/128/32 3/130/33
f 102/129/33 3/130/33 103/131/24
f 103/131/24 3/130/33 6/132/24
f 103/131/24 6/132/24 104/133/26
f 104/133/26 6/132/24 7/134/26
f 104/133/26 7/134/26 105/135/34
f 105/135/34 7/134/26 9/136/34
f 14/137/35 106/138/35 8/139/36
f 106/138/35 14/137/35 107/140/37
f 107/140/37 14/137/35 15/141/37
f 8/139/36 106/138/35 108/142/36
f 8/139/36 108/142/36 9/143/38
f 9/143/38 108/142/36 105/144/38
f 109/145/31 74/146/31 110/147/32
f 110/147/32 74/146/31 72/148/32
f 110/147/32 72/148/32 94/149/39
f 94/149/39 72/148/32 70/150/39
f 111/151/40 13/152/40 112/153/41
f 112/153/41 13/152/40 11/154/41
f 13/152/40 111/151/40 12/155/19
f 112/153/41 11/154/41 113/156/42
f 12/155/19 111/151/40 114/157/19
f 113/156/42 11/154/41 10/158/42
f 12/155/19 114/157/19 19/159/43
f 113/156/42 10/158/42 115/160/44
f 19/159/43 114/157/19 116/161/43
f 115/160/44 10/158/42 4/162/44
f 19/159/43 116/161/43 18/163/45
f 115/160/44 4/162/44 117/164/46
f 18/163/45 116/161/43 118/165/45
f 117/164/46 4/162/44 5/166/46
f 117/164/46 5/166/46 100/125/31
f 100/125/31 5/166/46 2/126/31
f 18/163/45 118/165/45 20/167/47
f 20/167/47 118/165/45 119/168/47
f 20/167/47 119/168/47 16/169/48
f 16/169/48 119/168/47 120/170/48
f 16/169/48 120/170/48 17/171/49
f 17/171/49 120/170/48 121/172/49
f 17/171/49 121/172/49 15/141/37
f 15/141/37 121/172/49 107/140/37
f 50/173/37 122/174/37 123/175/50
f 50/173/37 123/175/50 54/176/50
f 54/176/50 123/175/50 58/177/49
f 58/177/49 123/175/50 124/178/49
f 44/179/51 48/180/42 93/181/51
f 93/181/51 48/180/42 125/182/42
f 125/182/42 48/180/42 52/183/44
f 125/182/42 52/183/44 126/184/44
f 126/184/44 52/183/44 56/185/52
f 126/184/44 56/185/52 127/186/53
f 127/186/53 56/185/52 128/187/54
f 128/187/54 56/185/52 57/188/54
f 77/189/55 76/190/56 129/191/55
f 129/191/55 76/190/56 130/192/56
f 130/192/56 76/190/56 109/145/31
f 109/145/31 76/190/56 74/146/31
f 31/193/57 131/194/57 132/195/58
f 31/193/57 132/195/58 27/196/58
f 27/196/58 132/195/58 133/197/59
f 27/196/58 133/197/59 21/198/59
f 21/198/59 133/197/59 134/199/60
f 21/198/59 134/199/60 22/200/60
f 22/200/60 134/199/60 135/201/61
f 22/200/60 135/201/61 26/202/62
f 26/202/62 135/201/61 32/203/26
f 32/203/26 135/201/61 136/204/26
f 32/203/26 136/204/26 36/205/63
f 36/205/63 136/204/26 137/206/63
f 36/205/63 137/206/63 138/207/64
f 36/205/63 138/207/64 38/208/64
f 38/208/64 138/207/64 139/209/36
f 38/208/64 139/209/36 42/210/36
f 42/210/36 139/209/36 140/211/35
f 42/210/36 140/211/35 46/212/35
f 46/212/35 140/211/35 122/174/37
f 46/212/35 122/174/37 50/173/37
f 59/213/65 141/214/65 53/215/66
f 53/215/66 141/214/65 142/216/66
f 141/214/65 59/213/65 143/217/67
f 53/215/66 142/216/66 49/218/68
f 143/217/67 59/213/65 61/219/69
f 49/218/68 142/216/66 144/220/68
f 143/217/67 61/219/69 64/221/19
f 49/218/68 144/220/68 45/222/70
f 143/217/67 64/221/19 145/223/19
f 45/222/70 144/220/68 146/224/70
f 145/223/19 64/221/19 66/225/71
f 45/222/70 146/224/70 43/226/72
f 145/223/19 66/225/71 147/227/71
f 43/226/72 146/224/70 148/228/72
f 147/227/71 66/225/71 149/229/43
f 43/226/72 148/228/72 150/230/73
f 149/229/43 66/225/71 67/231/43
f 43/226/72 150/230/73 37/232/73
f 149/229/43 67/231/43 151/233/45
f 37/232/73 150/230/73 35/234/74
f 151/233/45 67/231/43 69/235/45
f 35/234/74 150/230/73 152/236/74
f 35/234/74 152/236/74 131/194/57
f 35/234/74 131/194/57 31/193/57
f 151/233/45 69/235/45 153/237/47
f 153/237/47 69/235/45 71/238/47
f 153/237/47 71/238/47 154/239/48
f 154/239/48 71/238/47 73/240/48
f 154/239/48 73/240/48 155/241/75
f 155/241/75 73/240/48 75/242/75
f 155/241/75 75/242/75 78/243/49
f 155/241/75 78/243/49 156/244/49
f 141/214/76 99/245/76 142/216/76
f 142/216/76 99/245/76 85/246/76
f 99/245/76 141/214/76 98/120/77
f 142/216/76 85/246/76 144/220/76
f 98/120/77 141/214/76 143/217/78
f 144/220/76 85/246/76 86/247/76
f 98/120/77 143/217/78 145/223/79
f 144/220/76 86/247/76 146/224/76
f 98/120/77 145/223/79 97/118/79
f 146/224/76 86/247/76 79/248/76
f 97/118/79 145/223/79 147/227/80
f 146/224/76 79/248/76 148/228/76
f 97/118/79 147/227/80 96/115/80
f 148/228/76 79/248/76 80/81/76
f 96/115/80 147/227/80 95/249/80
f 148/228/76 80/81/76 81/84/76
f 95/249/80 147/227/80 149/229/80
f 148/228/76 81/84/76 150/230/76
f 95/249/80 149/229/80 94/250/80
f 150/230/76 81/84/76 152/236/76
f 94/250/80 149/229/80 151/233/80
f 152/236/76 81/84/76 82/85/76
f 94/250/80 151/233/80 110/251/80
f 152/236/76 82/85/76 83/252/76
f 110/251/80 151/233/80 153/237/80
f 152/236/76 83/252/76 131/194/76
f 110/251/80 153/237/80 109/253/80
f 131/194/76 83/252/76 84/254/76
f 109/253/80 153/237/80 154/239/80
f 131/194/76 84/254/76 132/195/76
f 109/253/80 154/239/80 130/192/80
f 132/195/76 84/254/76 87/255/76
f 130/192/80 154/239/80 155/241/80
f 130/192/80 155/241/80 156/244/80
f 130/192/80 156/244/80 129/191/80
f 132/195/76 87/255/76 133/197/76
f 133/197/76 87/255/76 88/256/76
f 133/197/76 88/256/76 134/199/76
f 134/199/76 88/256/76 89/102/77
f 134/199/76 89/102/77 135/201/78
f 135/201/78 89/102/77 136/204/79
f 136/204/79 89/102/77 90/103/79
f 136/204/79 90/103/79 137/206/80
f 137/206/80 90/103/79 91/105/80
f 137/206/80 91/105/80 92/257/80
f 137/206/80 92/257/80 138/207/80
f 138/207/80 92/257/80 93/258/80
f 138/207/80 93/258/80 139/209/80
f 139/209/80 93/258/80 125/259/80
f 139/209/80 125/259/80 140/211/80
f 140/211/80 125/259/80 126/260/80
f 140/211/80 126/260/80 122/174/80
f 122/174/80 126/260/80 127/186/80
f 122/174/80 127/186/80 123/175/80
f 123/175/80 127/186/80 124/178/80
f 124/178/80 127/186/80 128/187/80
