# CS2 body mesh, tools/cs2_glb_to_obj.py
v -0.03228 -0.42755 -0.16628
v -0.03228 -0.42755 -0.18613
v -0.02759 -0.42755 -0.16628
v -0.02759 -0.42755 -0.18754
v 0.02758 -0.42755 -0.18754
v 0.02758 -0.42755 -0.16628
v 0.03228 -0.42755 -0.16628
v 0.03228 -0.42755 -0.18613
v 0.02758 -0.42755 -0.09255
v -0.02759 -0.42755 -0.09255
v 0.03228 -0.42755 -0.09255
v 0.03802 -0.42755 -0.16628
v 0.03802 -0.42755 -0.09255
v 0.03228 -0.42755 -0.07266
v 0.02758 -0.42755 -0.0713
v -0.02759 -0.42755 -0.0713
v -0.03228 -0.42755 -0.09255
v -0.03228 -0.42755 -0.07266
v -0.03803 -0.42755 -0.16628
v -0.03803 -0.42755 -0.09255
v 0.03572 -0.4243 -0.07761
v 0.03228 -0.4243 -0.07417
v 0.03697 -0.4243 -0.08231
v 0.02758 -0.4243 -0.07291
v 0.03697 -0.4243 -0.17653
v 0.03572 -0.4243 -0.18122
v 0.03228 -0.4243 -0.18466
v 0.02758 -0.4243 -0.18592
v -0.02759 -0.4243 -0.18592
v -0.03698 -0.4243 -0.17653
v -0.03229 -0.4243 -0.18466
v -0.03572 -0.4243 -0.18122
v -0.03698 -0.4243 -0.08231
v -0.02759 -0.4243 -0.07291
v -0.03229 -0.4243 -0.07417
v -0.03572 -0.4243 -0.07761
v 0.03228 -0.42332 -0.18613
v 0.02758 -0.42332 -0.18754
v -0.02759 -0.42332 -0.18754
v -0.03228 -0.42332 -0.18613
v -0.02634 0.26226 -0.18592
v 0.02883 0.26226 -0.18592
v 0.02342 0.27722 -0.18122
v 0.02464 0.28096 -0.18122
v 0.02781 0.27498 -0.18122
v 0.03012 0.27816 -0.18122
v 0.03129 0.2715 -0.18122
v 0.03447 0.27382 -0.18122
v 0.03352 0.26712 -0.18122
v 0.03726 0.26833 -0.18122
v 0.03352 0.26226 -0.18122
v 0.03696 0.26226 -0.18122
v -0.03448 0.26226 -0.18122
v -0.03477 0.26833 -0.18122
v -0.03104 0.26226 -0.18122
v -0.03104 0.26712 -0.18122
v -0.03199 0.27382 -0.18122
v -0.02881 0.2715 -0.18122
v -0.02764 0.27816 -0.18122
v -0.02533 0.27498 -0.18122
v -0.02217 0.28096 -0.18122
v -0.02095 0.27722 -0.18122
v 0.00071 0.25046 -0.18068
v 0.01744 0.24503 -0.1805
v -0.00015 0.24503 -0.1805
v 0.00321 0.25536 -0.18086
v 0.0071 0.25925 -0.18099
v 0.01201 0.26175 -0.18108
v 0.01744 0.26261 -0.18111
v 0.02288 0.26175 -0.18108
v 0.02778 0.25925 -0.18099
v 0.03167 0.25536 -0.18086
v 0.03417 0.25046 -0.18068
v 0.03503 0.24503 -0.1805
v -0.02576 0.24757 -0.1805
v -0.01542 0.23334 -0.1805
v -0.02965 0.24368 -0.1805
v -0.02085 0.25007 -0.1805
v -0.01542 0.25093 -0.1805
v -0.00998 0.25007 -0.1805
v -0.00508 0.24757 -0.1805
v -0.00119 0.24368 -0.1805
v 0.00131 0.23877 -0.1805
v 0.00217 0.23334 -0.1805
v 0.01744 0.24506 -0.17974
v 0.02778 0.25947 -0.17481
v 0.03167 0.25558 -0.17468
v 0.03417 0.25068 -0.17451
v 0.03503 0.24525 -0.17432
v 0.00071 0.25068 -0.17451
v -0.00015 0.24525 -0.17432
v 0.00321 0.25558 -0.17468
v 0.0071 0.25947 -0.17481
v 0.01201 0.26196 -0.1749
v 0.01744 0.26282 -0.17493
v 0.02288 0.26196 -0.1749
v -0.02576 0.24757 -0.17432
v -0.01542 0.23334 -0.17974
v -0.02965 0.24368 -0.17432
v -0.02085 0.25007 -0.17432
v -0.01542 0.25093 -0.17432
v -0.00998 0.25007 -0.17432
v -0.00508 0.24757 -0.17432
v 0.03228 -0.42332 -0.16628
v 0.03802 -0.42332 -0.16628
v -0.03228 -0.42332 -0.16628
v -0.03803 -0.42332 -0.16628
v -0.00119 0.24368 -0.17432
v 0.00131 0.23877 -0.17432
v 0.00217 0.23334 -0.17432
v -0.02015 0.25887 -0.16004
v -0.00592 0.26917 -0.16095
v -0.01626 0.255 -0.1597
v -0.01136 0.25251 -0.15948
v -0.02265 0.26376 -0.16047
v -0.00592 0.25165 -0.1594
v -0.02351 0.26917 -0.16095
v -0.00049 0.25251 -0.15948
v -0.02265 0.27458 -0.16142
v 0.00441 0.255 -0.1597
v -0.02015 0.27947 -0.16185
v 0.00831 0.25887 -0.16004
v -0.01626 0.28334 -0.1622
v 0.0108 0.26376 -0.16047
v -0.01136 0.28583 -0.16242
v 0.01167 0.26917 -0.16095
v -0.00592 0.28669 -0.16249
v 0.0108 0.27458 -0.16142
v -0.00049 0.28583 -0.16242
v 0.00831 0.27947 -0.16185
v 0.00441 0.28334 -0.1622
v 0.03352 0.26226 -0.18466
v 0.03822 0.26226 -0.17653
v -0.03104 0.26226 -0.18466
v -0.03574 0.26226 -0.17653
v 0.00441 0.28389 -0.15604
v -0.00592 0.26924 -0.1602
v -0.00049 0.28638 -0.15626
v -0.00592 0.28723 -0.15634
v -0.01136 0.28638 -0.15626
v -0.01626 0.28389 -0.15604
v -0.02015 0.28001 -0.1557
v -0.02265 0.27513 -0.15527
v -0.02351 0.26971 -0.15479
v -0.02265 0.2643 -0.15431
v -0.02015 0.25941 -0.15388
v -0.01626 0.25554 -0.15354
v -0.01136 0.25305 -0.15332
v -0.00592 0.25219 -0.15325
v -0.00049 0.25305 -0.15332
v 0.00441 0.25554 -0.15354
v 0.0108 0.27513 -0.15527
v 0.00831 0.28001 -0.1557
v 0.01167 0.26971 -0.15479
v 0.0108 0.2643 -0.15431
v 0.00831 0.25941 -0.15388
v 0.03751 -0.09749 -0.1651
v 0.04126 -0.09749 -0.16142
v 0.03751 -0.10833 -0.16336
v 0.04126 -0.10458 -0.16016
v 0.03751 -0.11681 -0.15959
v 0.04368 -0.09749 -0.15678
v 0.04126 -0.11074 -0.15742
v 0.03751 -0.12145 -0.15445
v 0.04368 -0.10077 -0.15611
v 0.04368 -0.10077 -0.14716
v 0.04368 -0.09749 -0.14649
v 0.04126 -0.09749 -0.14185
v 0.04368 -0.1032 -0.15468
v 0.04126 -0.11411 -0.15368
v 0.03751 -0.12145 -0.14882
v 0.04368 -0.10487 -0.15271
v 0.04126 -0.11411 -0.14959
v 0.03751 -0.11681 -0.14368
v 0.04368 -0.10487 -0.15056
v 0.04368 -0.1032 -0.14859
v 0.04126 -0.11074 -0.14585
v 0.03751 -0.10833 -0.13991
v 0.04126 -0.10458 -0.14311
v 0.03751 -0.09749 -0.13817
v 0.03751 -0.09749 -0.11879
v 0.04126 -0.09749 -0.1151
v 0.03751 -0.10833 -0.11705
v 0.04126 -0.10458 -0.11384
v 0.03751 -0.11681 -0.11328
v 0.04368 -0.09749 -0.11046
v 0.04126 -0.11074 -0.1111
v 0.03751 -0.12145 -0.10813
v 0.04368 -0.10077 -0.1098
v 0.04368 -0.10077 -0.10084
v 0.04368 -0.09749 -0.10017
v 0.04126 -0.09749 -0.09553
v 0.04368 -0.1032 -0.10836
v 0.04126 -0.11411 -0.10736
v 0.03751 -0.12145 -0.1025
v 0.04368 -0.10487 -0.10639
v 0.04126 -0.11411 -0.10327
v 0.03751 -0.11681 -0.09736
v 0.04368 -0.10487 -0.10424
v 0.04368 -0.1032 -0.10228
v 0.04126 -0.11074 -0.09953
v 0.03751 -0.10833 -0.09359
v 0.04126 -0.10458 -0.0968
v 0.03751 -0.09749 -0.09185
v -0.03639 -0.09749 -0.09185
v -0.04015 -0.09749 -0.09553
v -0.03639 -0.10833 -0.09359
v -0.04015 -0.10458 -0.0968
v -0.03639 -0.11681 -0.09736
v -0.04256 -0.09749 -0.10017
v -0.04015 -0.11074 -0.09953
v -0.03639 -0.12145 -0.1025
v -0.04256 -0.10077 -0.10084
v -0.04256 -0.10077 -0.1098
v -0.04256 -0.09749 -0.11046
v -0.04015 -0.09749 -0.1151
v -0.04256 -0.1032 -0.10228
v -0.04015 -0.11411 -0.10327
v -0.03639 -0.12145 -0.10813
v -0.04256 -0.10487 -0.10424
v -0.04015 -0.11411 -0.10736
v -0.03639 -0.11681 -0.11328
v -0.04256 -0.10487 -0.10639
v -0.04256 -0.1032 -0.10836
v -0.04015 -0.11074 -0.1111
v -0.03639 -0.10833 -0.11705
v -0.04015 -0.10458 -0.11384
v -0.03639 -0.09749 -0.11879
v -0.03639 -0.09749 -0.13817
v -0.04015 -0.09749 -0.14185
v -0.03639 -0.10833 -0.13991
v -0.04015 -0.10458 -0.14311
v -0.03639 -0.11681 -0.14368
v -0.04256 -0.09749 -0.14649
v -0.04015 -0.11074 -0.14585
v -0.03639 -0.12145 -0.14882
v -0.04256 -0.10077 -0.14716
v -0.04256 -0.10077 -0.15611
v -0.04256 -0.09749 -0.15678
v -0.04015 -0.09749 -0.16142
v -0.04256 -0.1032 -0.14859
v -0.04015 -0.11411 -0.14959
v -0.03639 -0.12145 -0.15445
v -0.04256 -0.10487 -0.15056
v -0.04015 -0.11411 -0.15368
v -0.03639 -0.11681 -0.15959
v -0.04256 -0.10487 -0.15271
v -0.04256 -0.1032 -0.15468
v -0.04015 -0.11074 -0.15742
v -0.03639 -0.10833 -0.16336
v -0.04015 -0.10458 -0.16016
v -0.03639 -0.09749 -0.1651
v -0.03175 0.23187 -0.08231
v -0.02764 0.26226 -0.07672
v 0.03423 0.23187 -0.08231
v 0.03013 0.26226 -0.07672
v 0.02464 0.28642 -0.12018
v 0.03012 0.28167 -0.11311
v 0.03447 0.27417 -0.10398
v 0.03755 0.26688 -0.09463
v 0.03822 0.26226 -0.08231
v 0.03802 -0.42332 -0.09255
v -0.00253 0.28716 -0.07567
v -0.00048 0.2916 -0.09733
v -0.00592 0.2877 -0.07572
v -0.00592 0.29245 -0.0974
v -0.00048 0.29117 -0.10208
v -0.00932 0.28716 -0.07567
v -0.00592 0.29203 -0.10215
v -0.01137 0.2916 -0.09733
v -0.01238 0.28561 -0.07553
v -0.01137 0.29117 -0.10208
v -0.01628 0.2891 -0.09711
v -0.0148 0.28319 -0.07532
v -0.02018 0.28522 -0.09677
v -0.01628 0.28868 -0.10186
v -0.02017 0.2848 -0.10152
v -0.03803 -0.42332 -0.09255
v 0.03228 -0.42332 -0.09255
v 0.03228 -0.42332 -0.07266
v -0.03228 -0.42332 -0.09255
v -0.03228 -0.42332 -0.07266
v -0.03574 0.26226 -0.08231
v -0.03507 0.26688 -0.09463
v -0.03199 0.27417 -0.10398
v -0.02764 0.28167 -0.11311
v -0.02217 0.28642 -0.12018
v 0.02788 0.25143 -0.09414
v 0.0342 0.25274 -0.11538
v 0.02632 0.25448 -0.09425
v 0.0317 0.25765 -0.11555
v 0.03419 0.25258 -0.12015
v 0.03169 0.25748 -0.12032
v 0.02389 0.25691 -0.09433
v 0.0278 0.26155 -0.11569
v 0.02083 0.25847 -0.09438
v 0.02289 0.26405 -0.11578
v 0.0278 0.26138 -0.12045
v 0.02289 0.26388 -0.12054
v -0.03215 0.23877 -0.17432
v -0.03217 0.23878 -0.11992
v -0.02967 0.24369 -0.11992
v -0.03217 0.23878 -0.11515
v -0.02967 0.24369 -0.11515
v -0.02586 0.23673 -0.09397
v -0.0243 0.23979 -0.09397
v -0.02785 0.26226 -0.18215
v 0.03033 0.26226 -0.18215
v 0.02883 0.26226 -0.07291
v 0.03352 0.26226 -0.07417
v 0.03696 0.26226 -0.07761
v 0.03429 0.26226 -0.08231
v -0.02634 0.26226 -0.07291
v -0.03181 0.26226 -0.08231
v -0.03104 0.26226 -0.07417
v -0.03448 0.26226 -0.07761
v 0.01744 0.25901 -0.0944
v 0.01744 0.26491 -0.11581
v 0.01405 0.25847 -0.09438
v 0.01744 0.26474 -0.12057
v 0.012 0.26405 -0.11578
v 0.01099 0.25691 -0.09433
v 0.012 0.26388 -0.12054
v 0.00709 0.26155 -0.11569
v 0.00856 0.25448 -0.09425
v 0.00319 0.25765 -0.11555
v 0.00709 0.26138 -0.12045
v 0.00319 0.25748 -0.12032
v 0.00443 0.26029 -0.09936
v 0.00833 0.26417 -0.0997
v -0.00048 0.2578 -0.09914
v 0.00443 0.26071 -0.09461
v -0.00048 0.25821 -0.09439
v 0.00053 0.26792 -0.07398
v -0.00253 0.26637 -0.07384
v 0.00833 0.26459 -0.09495
v 0.00296 0.27034 -0.07419
v 0.00451 0.27339 -0.07446
v 0.01083 0.26948 -0.09538
v 0.00505 0.27676 -0.07475
v 0.01083 0.26906 -0.10013
v 0.01169 0.2749 -0.09586
v 0.00451 0.28014 -0.07505
v 0.01169 0.27449 -0.10061
v 0.01083 0.28033 -0.09634
v 0.00296 0.28319 -0.07532
v 0.01083 0.27991 -0.10109
v 0.00833 0.28522 -0.09677
v 0.00833 0.2848 -0.10152
v 0.00053 0.28561 -0.07553
v 0.00443 0.2891 -0.09711
v 0.00443 0.28868 -0.10186
v -0.02095 0.28268 -0.12018
v -0.01203 0.24378 -0.09397
v -0.00997 0.25009 -0.11515
v -0.01542 0.24431 -0.09397
v -0.01542 0.25096 -0.11515
v -0.00998 0.25009 -0.11992
v -0.01881 0.24378 -0.09397
v -0.01542 0.25095 -0.11992
v -0.02086 0.25009 -0.11515
v -0.02187 0.24222 -0.09397
v -0.02086 0.25009 -0.11992
v -0.02577 0.24759 -0.11515
v -0.02577 0.24759 -0.11992
v -0.03133 0.26567 -0.09463
v 0.007 0.25143 -0.09414
v 0.00069 0.25274 -0.11538
v 0.00647 0.24804 -0.09402
v -0.00018 0.2473 -0.11519
v 0.00069 0.25258 -0.12015
v -0.00017 0.24714 -0.11996
v -0.0148 0.27034 -0.07419
v -0.02018 0.26459 -0.09495
v -0.01238 0.26792 -0.07398
v -0.01628 0.26071 -0.09461
v -0.00932 0.26637 -0.07384
v -0.01137 0.25821 -0.09439
v -0.00592 0.26583 -0.07379
v -0.00592 0.25735 -0.09431
v -0.00592 0.25694 -0.09906
v -0.01137 0.2578 -0.09914
v -0.01628 0.26029 -0.09936
v -0.02017 0.26417 -0.0997
v -0.02268 0.26906 -0.10013
v -0.02268 0.26948 -0.09538
v -0.01636 0.27339 -0.07446
v -0.02354 0.27449 -0.10061
v -0.02354 0.2749 -0.09586
v -0.0169 0.27676 -0.07475
v -0.02268 0.27991 -0.10109
v -0.02268 0.28033 -0.09634
v -0.01636 0.28014 -0.07505
v 0.02342 0.28268 -0.12018
v -0.00117 0.24369 -0.11515
v -0.00654 0.23979 -0.09397
v 0.00134 0.23878 -0.11515
v -0.00498 0.23673 -0.09397
v 0.0022 0.23334 -0.11515
v -0.00444 0.23334 -0.09397
v 0.0022 0.23334 -0.11992
v 0.00133 0.23878 -0.11992
v -0.00117 0.24369 -0.11992
v -0.00897 0.24222 -0.09397
v -0.00506 0.24759 -0.11515
v -0.00507 0.24759 -0.11992
v -0.03175 0.23187 -0.17841
v 0.03423 0.23187 -0.17841
v -0.00049 0.28609 -0.15945
v -0.00592 0.28695 -0.15953
v -0.00592 0.27224 -0.12608
v -0.01136 0.28609 -0.15945
v -0.01626 0.28361 -0.15923
v -0.02015 0.27973 -0.15889
v -0.02881 0.27186 -0.10398
v -0.02533 0.27849 -0.11311
v 0.02781 0.27849 -0.11311
v 0.03129 0.27186 -0.10398
v 0.03381 0.26567 -0.09463
v 0.02288 0.26185 -0.1781
v 0.01744 0.24625 -0.14552
v 0.02778 0.25936 -0.17802
v 0.03167 0.25547 -0.17788
v 0.03417 0.25057 -0.17771
v 0.02758 -0.42332 -0.0713
v -0.02759 -0.42332 -0.0713
v -0.00592 0.27676 -0.07475
v 0.01744 0.26271 -0.17813
v 0.01201 0.26185 -0.1781
v 0.0071 0.25936 -0.17802
v 0.00321 0.25547 -0.17788
v 0.00831 0.25913 -0.15708
v 0.00441 0.25526 -0.15674
v -0.00049 0.25277 -0.15652
v 0.0108 0.26402 -0.15751
v 0.01167 0.26943 -0.15798
v 0.0108 0.27485 -0.15846
v 0.00831 0.27973 -0.15889
v 0.00441 0.28361 -0.15923
v -0.00998 0.25007 -0.17752
v -0.01542 0.25093 -0.17752
v -0.01542 0.23334 -0.1455
v -0.02085 0.25007 -0.17752
v -0.02576 0.24757 -0.17752
v -0.02965 0.24368 -0.17752
v 0.00071 0.25057 -0.17771
v -0.00015 0.24513 -0.17752
v -0.02015 0.25913 -0.15708
v -0.01626 0.25526 -0.15674
v -0.01136 0.25277 -0.15652
v -0.00592 0.25191 -0.15644
v -0.02265 0.26402 -0.15751
v -0.02351 0.26943 -0.15798
v -0.02265 0.27485 -0.15846
v -0.00508 0.24757 -0.17752
v -0.00119 0.24368 -0.17752
v 0.00131 0.23877 -0.17752
v 0.00217 0.23334 -0.17752
v -0.01542 0.23334 -0.09397
v -0.02639 0.23334 -0.09397
v 0.01744 0.24804 -0.09402
v 0.02842 0.24804 -0.09402
v 0.02788 0.24465 -0.0939
v 0.02632 0.24159 -0.0938
v 0.02389 0.23916 -0.09371
v 0.02083 0.2376 -0.09366
v 0.01744 0.23707 -0.09364
v 0.01405 0.2376 -0.09366
v 0.01099 0.23916 -0.09371
v 0.00856 0.24159 -0.0938
v 0.007 0.24465 -0.0939
v 0.02758 -0.42332 -0.18592
v -0.02759 -0.42332 -0.18592
v -0.02759 -0.42332 -0.07291
v 0.02758 -0.42332 -0.07291
vt 0.691885 0.437239
vt 0.701651 0.437239
vt 0.691885 0.435011
vt 0.702628 0.435011
vt 0.702628 0.408185
vt 0.691885 0.408185
vt 0.691885 0.405988
vt 0.701651 0.405988
vt 0.65624 0.408185
vt 0.65624 0.435011
vt 0.65624 0.405988
vt 0.691885 0.403027
vt 0.65624 0.403027
vt 0.646962 0.405988
vt 0.645985 0.408185
vt 0.645985 0.435011
vt 0.65624 0.437239
vt 0.646962 0.437239
vt 0.691885 0.439924
vt 0.65624 0.439924
vt 0.706534 0.443831
vt 0.708487 0.441633
vt 0.703604 0.444563
vt 0.709464 0.438673
vt 0.644032 0.444563
vt 0.641102 0.443831
vt 0.638661 0.441633
vt 0.638173 0.438673
vt 0.638173 0.40376
vt 0.644032 0.397931
vt 0.638661 0.400861
vt 0.641102 0.398663
vt 0.703604 0.397931
vt 0.709464 0.40376
vt 0.708487 0.400861
vt 0.706534 0.398663
vt 0.704581 0.405988
vt 0.702628 0.405988
vt 0.704581 0.408185
vt 0.704581 0.435011
vt 0.702628 0.437239
vt 0.704581 0.437239
vt 0.746574 0.019349
vt 0.711417 0.397931
vt 0.746574 0.397931
vt 0.711417 0.019349
vt 0.606922 0.015076
vt 0.608386 0.018799
vt 0.611316 0.012848
vt 0.613758 0.015961
vt 0.614734 0.009369
vt 0.618152 0.011689
vt 0.617176 0.005005
vt 0.620594 0.006195
vt 0.617176 0.000153
vt 0.620594 0.000153
vt 0.623035 0.000153
vt 0.622547 0.006195
vt 0.626453 0.000153
vt 0.626453 0.005005
vt 0.625477 0.011689
vt 0.628407 0.009369
vt 0.629383 0.015961
vt 0.631825 0.012848
vt 0.635243 0.018799
vt 0.636219 0.015076
vt 0.82519 0.666982
vt 0.840327 0.662099
vt 0.824213 0.662099
vt 0.827631 0.671377
vt 0.83105 0.674795
vt 0.835444 0.677236
vt 0.840327 0.677725
vt 0.84521 0.677236
vt 0.849605 0.674795
vt 0.853023 0.671377
vt 0.854976 0.666982
vt 0.855953 0.662099
vt 0.874996 0.661122
vt 0.884274 0.673818
vt 0.887692 0.6704
vt 0.890133 0.666005
vt 0.890622 0.661122
vt 0.859859 0.666005
vt 0.859371 0.661122
vt 0.8623 0.6704
vt 0.865719 0.673818
vt 0.870113 0.67626
vt 0.874996 0.676748
vt 0.879879 0.67626
vt 0.694815 0.401105
vt 0.691885 0.401105
vt 0.694815 0.403027
vt 0.694815 0.442091
vt 0.694815 0.439924
vt 0.691885 0.442091
vt 0.827631 0.652821
vt 0.83105 0.649403
vt 0.835444 0.646962
vt 0.82519 0.657216
vt 0.840327 0.646474
vt 0.84521 0.646962
vt 0.849605 0.649403
vt 0.853023 0.652821
vt 0.854976 0.657216
vt 0.708487 0.397931
vt 0.708487 0.019349
vt 0.706534 0.397931
vt 0.706534 0.019349
vt 0.703604 0.019349
vt 0.749504 0.019349
vt 0.749504 0.397931
vt 0.751457 0.019349
vt 0.751457 0.397931
vt 0.754387 0.019349
vt 0.754387 0.397931
vt 0.859859 0.65624
vt 0.8623 0.651845
vt 0.865719 0.648427
vt 0.870113 0.645985
vt 0.874996 0.645497
vt 0.879879 0.645985
vt 0.884274 0.648427
vt 0.890133 0.65624
vt 0.887692 0.651845
vt 0.750969 0.407422
vt 0.746086 0.407422
vt 0.749016 0.421369
vt 0.744621 0.416486
vt 0.744133 0.432356
vt 0.740226 0.407422
vt 0.741203 0.424543
vt 0.737297 0.438429
vt 0.73925 0.411573
vt 0.728019 0.411573
vt 0.727042 0.407422
vt 0.721183 0.407422
vt 0.737785 0.414747
vt 0.73632 0.428938
vt 0.729972 0.438429
vt 0.734855 0.416974
vt 0.730949 0.428938
vt 0.723624 0.432356
vt 0.732414 0.416974
vt 0.729972 0.414747
vt 0.726066 0.424543
vt 0.718741 0.421369
vt 0.722648 0.416486
vt 0.7163 0.407422
vt 0.635243 0.407178
vt 0.63036 0.407178
vt 0.63329 0.421125
vt 0.628895 0.416242
vt 0.628407 0.432112
vt 0.6245 0.407178
vt 0.625477 0.424299
vt 0.62157 0.438185
vt 0.623524 0.411328
vt 0.612293 0.411328
vt 0.611316 0.407178
vt 0.605457 0.407178
vt 0.622059 0.414533
vt 0.620594 0.428694
vt 0.614246 0.438185
vt 0.619129 0.41673
vt 0.615223 0.428694
vt 0.607898 0.432112
vt 0.616688 0.41673
vt 0.614246 0.414533
vt 0.61034 0.424299
vt 0.603015 0.421125
vt 0.606922 0.416242
vt 0.600574 0.407178
vt 0.582507 0.018921
vt 0.58153 0.017243
vt 0.582507 0.012146
vt 0.58153 0.013825
vt 0.641102 0.003601
vt 0.679678 0.001953
vt 0.641102 0.008026
vt 0.684072 0.00708
vt 0.641102 0.0112
vt 0.689932 0.01178
vt 0.641102 0.01587
vt 0.695791 0.016388
vt 0.644032 0.019349
vt 0.641102 0.019349
vt 0.65624 0.401105
vt 0.816889 0.757317
vt 0.818842 0.741203
vt 0.813959 0.757317
vt 0.813959 0.741203
vt 0.818842 0.732902
vt 0.811518 0.757317
vt 0.813959 0.732902
vt 0.818842 0.685537
vt 0.813959 0.685537
vt 0.809076 0.741203
vt 0.809076 0.757317
vt 0.809076 0.732902
vt 0.809076 0.685537
vt 0.804682 0.741203
vt 0.807123 0.757317
vt 0.799799 0.741203
vt 0.804682 0.732902
vt 0.804682 0.685537
vt 0.799799 0.732902
vt 0.799799 0.685537
vt 0.65624 0.442091
vt 0.691885 0.40376
vt 0.701651 0.40376
vt 0.65624 0.40376
vt 0.646962 0.40376
vt 0.691885 0.439192
vt 0.701651 0.439192
vt 0.65624 0.439192
vt 0.646962 0.439192
vt 0.834468 0.757317
vt 0.832514 0.741203
vt 0.832026 0.757317
vt 0.827631 0.741203
vt 0.832026 0.732902
vt 0.827631 0.732902
vt 0.832026 0.685537
vt 0.827631 0.685537
vt 0.81933 0.757317
vt 0.82226 0.757317
vt 0.823237 0.741203
vt 0.823237 0.732902
vt 0.823237 0.685537
vt 0.88818 0.685049
vt 0.888668 0.732902
vt 0.892575 0.685049
vt 0.893063 0.732902
vt 0.888668 0.740715
vt 0.893063 0.740715
vt 0.886227 0.757317
vt 0.888668 0.757317
vt 0.748039 0.000824
vt 0.745109 0.001679
vt 0.751457 0.000824
vt 0.744133 0.005066
vt 0.748039 0.003906
vt 0.694327 0.005066
vt 0.692862 0.001679
vt 0.689932 0.000824
vt 0.687002 0.000824
vt 0.689932 0.003906
vt 0.746574 0.009827
vt 0.751457 0.008576
vt 0.754875 0.005188
vt 0.751946 0.000488
vt 0.755852 0.000488
vt 0.748039 0.006043
vt 0.69042 0.006043
vt 0.691885 0.009827
vt 0.686026 0.000488
vt 0.687002 0.008576
vt 0.683584 0.005188
vt 0.682119 0.000488
vt 0.85107 0.732902
vt 0.85107 0.685537
vt 0.846187 0.732902
vt 0.855464 0.685537
vt 0.855464 0.732902
vt 0.846187 0.685537
vt 0.85107 0.740715
vt 0.855464 0.740715
vt 0.855464 0.757317
vt 0.857906 0.757317
vt 0.846675 0.740715
vt 0.84228 0.757317
vt 0.84521 0.757317
vt 0.839839 0.757317
vt 0.841792 0.741203
vt 0.837397 0.757317
vt 0.841792 0.732902
vt 0.841792 0.685537
vt 0.836909 0.741203
vt 0.836909 0.732902
vt 0.836909 0.685537
vt 0.679189 -0.000305
vt 0.640614 0.001282
vt 0.744133 0.01474
vt 0.731925 0.01474
vt 0.744133 0.019105
vt 0.883785 0.757317
vt 0.883785 0.740715
vt 0.883785 0.732902
vt 0.883297 0.685049
vt 0.868648 0.757317
vt 0.874508 0.740715
vt 0.865719 0.757317
vt 0.869625 0.740715
vt 0.863277 0.757317
vt 0.86523 0.740715
vt 0.860347 0.757317
vt 0.860347 0.740715
vt 0.860347 0.732902
vt 0.860347 0.685537
vt 0.86523 0.685537
vt 0.86523 0.732902
vt 0.869625 0.685537
vt 0.869625 0.732902
vt 0.87402 0.685049
vt 0.874508 0.732902
vt 0.878414 0.685049
vt 0.878903 0.732902
vt 0.878903 0.740715
vt 0.878414 0.757317
vt 0.880856 0.757317
vt 0.641102 0.397931
vt 0.638661 0.397931
vt 0.638661 0.019349
vt 0.635731 0.397931
vt 0.635731 0.019349
vt 0.567858 0.019349
vt 0.567858 0.011719
vt 0.818842 0.681143
vt 0.818842 0.678701
vt 0.813959 0.681143
vt 0.813959 0.678701
vt 0.813959 0.709952
vt 0.809076 0.681143
vt 0.809076 0.678701
vt 0.804682 0.681143
vt 0.800287 0.681143
vt 0.804682 0.678701
vt 0.800287 0.678701
vt 0.568834 0.018921
vt 0.582507 0.00708
vt 0.582507 0.00589
vt 0.559557 0.00708
vt 0.561998 0.006226
vt 0.582507 0.004913
vt 0.56444 0.004822
vt 0.582507 0.004059
vt 0.566393 0.003265
vt 0.582507 0.00354
vt 0.568346 0.002228
vt 0.568834 0.012146
vt 0.574206 0.001526
vt 0.559557 0.002777
vt 0.575671 0.002472
vt 0.559557 0.003327
vt 0.578112 0.004089
vt 0.559557 0.00412
vt 0.580065 0.005524
vt 0.559557 0.005158
vt 0.582995 0.006287
vt 0.559557 0.006287
vt 0.823237 0.681143
vt 0.823237 0.678701
vt 0.82812 0.678701
vt 0.82812 0.681143
vt 0.836909 0.709952
vt 0.832514 0.678701
vt 0.832514 0.681143
vt 0.644032 0.408185
vt 0.645985 0.405988
vt 0.644032 0.405988
vt 0.706534 0.010071
vt 0.706534 0.014191
vt 0.71337 0.010071
vt 0.71337 0.014191
vt 0.722648 0.010071
vt 0.722648 0.014191
vt 0.731925 0.010071
vt 0.731925 0.014191
vt 0.744133 0.010071
vt 0.744133 0.014191
vt 0.731925 0.019105
vt 0.722648 0.01474
vt 0.722648 0.019105
vt 0.71337 0.01474
vt 0.713858 0.019105
vt 0.706534 0.01474
vt 0.707022 0.019105
vt 0.645985 0.437239
vt 0.644032 0.437239
vt 0.644032 0.435011
vt 0.601062 0.397931
vt 0.601062 0.019349
vt 0.598132 0.397931
vt 0.598132 0.019349
vt 0.596179 0.397931
vt 0.596179 0.019349
vt 0.593249 0.397931
vt 0.593249 0.019349
vt 0.881832 0.65624
vt 0.883297 0.658681
vt 0.883785 0.661122
vt 0.880367 0.654286
vt 0.883297 0.664052
vt 0.877926 0.652821
vt 0.881832 0.666494
vt 0.874996 0.652333
vt 0.880367 0.668447
vt 0.872555 0.652821
vt 0.877926 0.669424
vt 0.870113 0.654286
vt 0.874996 0.669912
vt 0.86816 0.65624
vt 0.872555 0.669424
vt 0.866695 0.658681
vt 0.870113 0.668447
vt 0.866207 0.661122
vt 0.86816 0.666494
vt 0.866695 0.664052
vt 0.846187 0.681143
vt 0.85107 0.681143
vt 0.855464 0.681143
vt 0.860347 0.709952
vt 0.855464 0.678701
vt 0.85107 0.678701
vt 0.846187 0.678701
vt 0.841792 0.681143
vt 0.841792 0.678701
vt 0.836909 0.681143
vt 0.836909 0.678701
vt 0.892575 0.681143
vt 0.892575 0.678701
vt 0.88818 0.681143
vt 0.883297 0.709952
vt 0.88818 0.678701
vt 0.883297 0.681143
vt 0.883297 0.678701
vt 0.87402 0.681143
vt 0.87402 0.678701
vt 0.869625 0.681143
vt 0.869625 0.678701
vt 0.878414 0.678701
vt 0.86523 0.681143
vt 0.86523 0.678701
vt 0.860347 0.681143
vt 0.860347 0.678701
vt 0.878414 0.681143
vt 0.653798 0.403027
vt 0.653798 0.401105
vt 0.653798 0.439924
vt 0.653798 0.442091
vt 0.566881 0.011353
vt 0.566881 0.019715
vt 0.63036 0.404035
vt 0.605457 0.404035
vt 0.600574 0.399121
vt 0.635243 0.399121
vt 0.746086 0.404279
vt 0.721183 0.404279
vt 0.7163 0.399365
vt 0.750969 0.399365
vt 0.706046 0.405988
vt 0.705069 0.405988
vt 0.706046 0.408185
vt 0.706046 0.435011
vt 0.706046 0.437239
vt 0.705069 0.437239
vt 0.642567 0.437239
vt 0.643544 0.437239
vt 0.642567 0.435011
vt 0.642567 0.408185
vt 0.642567 0.405988
vt 0.643544 0.405988
vt 0.65624 0.398419
vt 0.691885 0.398419
vt 0.65624 0.444807
vt 0.691885 0.444807
vn 0 -1 0
vn 0.2861 0.0012 -0.9582
vn 0.023 0.001 -0.9997
vn -0.023 0.001 -0.9997
vn -0.2861 0.0012 -0.9582
vn 0 -0.001 -1
vn 0 -0.0354 -0.9994
vn -0.0011 0.1606 -0.987
vn 0.1743 0.2032 -0.9635
vn 0.2393 0.1373 -0.9612
vn 0.2798 0.057 -0.9584
vn 0.2954 0.0136 -0.9553
vn -0.2798 0.057 -0.9584
vn -0.2954 0.0136 -0.9553
vn -0.2393 0.1373 -0.9612
vn -0.1743 0.2032 -0.9635
vn -0.0905 0.2484 -0.9644
vn -0.0012 0.2603 -0.9655
vn 0.0905 0.2484 -0.9644
vn -0.1724 0.2392 -0.9555
vn 0.0704 0.2212 -0.9727
vn -0.2113 0.2113 -0.9543
vn -0.0921 0.2789 -0.9559
vn 0.0012 0.2949 -0.9555
vn 0.0921 0.2789 -0.9559
vn 0.1724 0.2392 -0.9555
vn 0.2392 0.1724 -0.9555
vn 0.2813 0.0895 -0.9554
vn 0.2953 0.0469 -0.9543
vn 0 -0.088 -0.9961
vn 0.2589 -0.0012 -0.9659
vn 0.4999 -0.0013 -0.8661
vn 0.8661 -0.0013 -0.4999
vn 0.9659 -0.0012 -0.2589
vn -0.2589 -0.0012 -0.9659
vn -0.4999 -0.0013 -0.8661
vn -0.5015 0.0013 -0.8652
vn -0.8652 0.0013 -0.5015
vn -0.8663 0.004 -0.4994
vn -0.9661 0.0036 -0.258
vn 0.1742 0.1538 -0.9726
vn 0.0901 0.1963 -0.9764
vn -0.0012 0.2077 -0.9782
vn -0.0901 0.1963 -0.9764
vn -0.1742 0.1538 -0.9726
vn -0.2389 0.0872 -0.9671
vn -0.2794 0.0085 -0.9601
vn -0.2939 -0.0845 -0.9521
vn -0.2791 -0.1765 -0.9439
vn -0.2377 -0.2559 -0.937
vn -0.1728 -0.3219 -0.9309
vn -0.0919 -0.3635 -0.927
vn 0 -0.3786 -0.9255
vn 0.0919 -0.3635 -0.927
vn 0.1728 -0.3219 -0.9309
vn 0.2794 0.0085 -0.9601
vn 0.2389 0.0872 -0.9671
vn 0.2939 -0.0845 -0.9521
vn 0.2791 -0.1765 -0.9439
vn 0.2377 -0.2559 -0.937
vn 0.695 -0.1143 -0.7099
vn 0.778 -0.1042 -0.6195
vn 0.747 -0.2163 -0.6287
vn 0.8167 -0.1666 -0.5525
vn 0.8282 -0.3556 -0.4331
vn 0.9648 -0.0485 -0.2586
vn 0.873 -0.2743 -0.4032
vn 0.8874 -0.438 -0.1436
vn 0.9756 -0.0699 -0.2083
vn 0.9702 -0.0658 0.2332
vn 0.9817 -0.0389 0.1864
vn 0.7804 -0.1104 0.6155
vn 0.9813 -0.1187 -0.1517
vn 0.9221 -0.3563 -0.1509
vn 0.8859 -0.4357 0.1592
vn 0.9831 -0.1686 -0.0718
vn 0.9184 -0.3575 0.1696
vn 0.8235 -0.35 0.4466
vn 0.9754 -0.1953 0.102
vn 0.94 -0.1806 0.2894
vn 0.8664 -0.266 0.4226
vn 0.7459 -0.2027 0.6345
vn 0.8094 -0.1508 0.5675
vn 0.7022 -0.1175 0.7022
vn -0.695 -0.1143 0.7099
vn -0.778 -0.1042 0.6195
vn -0.747 -0.2163 0.6287
vn -0.8167 -0.1666 0.5525
vn -0.8282 -0.3556 0.4331
vn -0.9648 -0.0485 0.2586
vn -0.873 -0.2743 0.4032
vn -0.8874 -0.438 0.1436
vn -0.9756 -0.0699 0.2083
vn -0.9702 -0.0658 -0.2332
vn -0.9817 -0.0389 -0.1864
vn -0.7804 -0.1104 -0.6155
vn -0.9813 -0.1187 0.1517
vn -0.9221 -0.3563 0.1509
vn -0.8859 -0.4357 -0.1592
vn -0.9831 -0.1686 0.0718
vn -0.9184 -0.3575 -0.1696
vn -0.8235 -0.35 -0.4466
vn -0.9754 -0.1953 -0.102
vn -0.94 -0.1806 -0.2894
vn -0.8664 -0.266 -0.4226
vn -0.7459 -0.2027 -0.6345
vn -0.8094 -0.1508 -0.5675
vn -0.7022 -0.1175 -0.7022
vn -0.0011 0.1786 -0.9839
vn 0.4508 0.8891 -0.0791
vn 0.6762 0.7357 -0.0383
vn 0.6043 0.7948 -0.0555
vn 0.8293 0.5588 -0.0096
vn 0.8223 0.5688 -0.0179
vn 0.9063 0.4226 0.0013
vn 0.9422 0.335 -0.0063
vn 0.977 0.2131 0.0012
vn 0.9885 0.1511 -0.0056
vn 0.9897 0.143 0.0011
vn 1 -0.001 0
vn 0.3017 0.9278 0.2196
vn 0.3004 0.9397 0.1633
vn 0.0058 0.9768 0.2141
vn 0.0034 0.987 0.1609
vn 0.308 0.9476 -0.0852
vn -0.2883 0.9324 0.218
vn -0.0011 0.9961 -0.088
vn -0.2972 0.9408 0.163
vn -0.5564 0.7982 0.2309
vn -0.308 0.9476 -0.0852
vn -0.5677 0.8039 0.1771
vn -0.6747 0.6999 0.2343
vn -0.6874 0.7028 0.183
vn -0.5882 0.8057 -0.0701
vn -0.7072 0.7043 -0.0619
vn -1 -0.001 0
vn -1 0.001 0.001
vn -1 0.0029 -0.001
vn -0.977 0.2131 0.0012
vn -0.9422 0.335 -0.0063
vn -0.9651 -0.0459 -0.258
vn -0.9078 0.4195 0.0013
vn -0.8223 0.5688 -0.0179
vn -0.8293 0.5588 -0.0096
vn -0.6043 0.7948 -0.0555
vn -0.6762 0.7357 -0.0383
vn -0.4541 0.8874 -0.0792
vn 0.8516 0.442 0.2818
vn 0.8652 0.4469 0.2272
vn 0.7863 0.5754 0.2249
vn 0.8908 0.4541 -0.0173
vn 0.8079 0.589 -0.0208
vn 0.5677 0.7764 0.2736
vn 0.6754 0.685 0.273
vn 0.5699 0.7923 0.2178
vn 0.3003 0.9153 0.2684
vn 0.3005 0.9297 0.213
vn 0.5865 0.8094 -0.0293
vn 0.5897 0.8071 -0.0293
vn 0.31 0.9501 -0.0342
vn -0.891 0.454 -0.0013
vn -0.8641 0.4404 0.2436
vn -0.8512 0.4341 0.2951
vn -0.001 1 -0.001
vn 0.001 1 0.001
vn -0.001 1 0.001
vn 0.001 1 -0.001
vn 0.006 0.9644 0.2643
vn 0.0035 0.9775 0.2109
vn -0.29 0.9191 0.2669
vn -0.001 0.9994 -0.0354
vn -0.2971 0.9309 0.2126
vn -0.5571 0.7843 0.273
vn -0.31 0.9501 -0.0342
vn -0.5664 0.7949 0.2176
vn -0.6754 0.685 0.273
vn -0.6866 0.6928 0.2205
vn -0.5897 0.8071 -0.0293
vn -0.7069 0.7069 -0.0239
vn 0.5872 -0.8063 0.0716
vn 0.8084 -0.5865 0.0509
vn 0.3092 -0.9473 0.0839
vn 0.5687 -0.7599 0.3149
vn 0.2975 -0.8969 0.3272
vn 0.4353 -0.8214 0.3686
vn 0.2869 -0.8804 0.3775
vn 0.7822 -0.5485 0.2957
vn 0.7694 -0.535 0.3491
vn 0.6751 -0.6473 0.3539
vn 0.9055 -0.2749 0.3234
vn 0.9209 -0.2806 0.2705
vn 0.9538 0.0187 0.2997
vn 0.9509 -0.3082 0.0277
vn 0.9693 0.0205 0.245
vn 0.9089 0.3147 0.2737
vn 0.9226 0.318 0.2182
vn 0.8519 0.4573 0.2554
vn 0.9511 0.3078 -0.0264
vn 0.786 0.5868 0.1946
vn 0.8101 0.5839 -0.0523
vn 0.6747 0.6999 0.2343
vn 0.5669 0.7906 0.2314
vn 0.5712 0.8015 0.1773
vn 0.5882 0.8057 -0.0701
vn 0.9501 0.3108 -0.0264
vn 0.3018 0.9053 0.2988
vn 0.3031 0.9208 0.2456
vn 0.0062 0.9542 0.2992
vn 0.0036 0.9691 0.2467
vn 0.3096 0.9509 -0.0012
vn -0.2884 0.9092 0.3002
vn -0.2963 0.9232 0.2448
vn -0.556 0.7759 0.2979
vn -0.3096 0.9509 -0.0012
vn -0.5673 0.7861 0.2454
vn -0.6742 0.6774 0.2944
vn -0.6872 0.684 0.2449
vn -0.5892 0.808 -0.0014
vn -0.7071 0.7071 -0.0014
vn -0.0012 0.964 0.266
vn 0.2484 0.8548 0.4556
vn 0.0572 0.9566 0.2858
vn -0.8516 0.442 0.2818
vn -0.8652 0.4469 0.2272
vn -0.9052 0.3106 0.29
vn -0.9213 0.3109 0.2335
vn -0.9437 0.1593 0.29
vn -0.8908 0.4541 -0.0173
vn -0.9581 0.1604 0.2372
vn -0.9508 0.3095 -0.0112
vn -0.9877 0.1562 -0.0056
vn -0.6751 -0.6473 0.3539
vn -0.7847 -0.5449 0.2955
vn -0.5649 -0.7396 0.3657
vn -0.5723 -0.7571 0.3151
vn -0.3007 -0.8762 0.3766
vn -0.3005 -0.897 0.3243
vn -0.0077 -0.9238 0.3829
vn -0.0025 -0.9442 0.3293
vn 0 -0.9962 0.0868
vn -0.3092 -0.9473 0.0839
vn -0.5872 -0.8063 0.0716
vn -0.8084 -0.5865 0.0509
vn -0.9509 -0.3082 0.0277
vn -0.9221 -0.2772 0.27
vn -0.8515 -0.4055 0.3325
vn -0.909 -0.2616 0.3244
vn -0.9511 0.3078 -0.0264
vn -0.9691 0.023 0.2456
vn -0.954 0.0339 0.2979
vn -0.8907 0.4528 -0.0392
vn -0.9214 0.3214 0.2186
vn -0.906 0.3245 0.2717
vn -0.8641 0.4612 0.2015
vn -0.8519 0.4573 0.2554
vn -0.9501 0.3108 -0.0264
vn 0.7861 0.5673 0.2454
vn 0.8512 0.4341 0.2951
vn 0.9232 0.2963 0.2448
vn 0.9092 0.2884 0.3002
vn 0.9583 0.152 0.2419
vn 0.9436 0.1507 0.2946
vn 0.9878 0.1555 -0.0011
vn 0.9509 0.3096 -0.0012
vn 0.8102 0.5861 -0.0014
vn 0.6742 0.6774 0.2944
vn 0.5667 0.7679 0.2985
vn 0.5708 0.7835 0.2455
vn 0.5892 0.808 -0.0014
vn 0.9659 -0.0012 0.2589
vn 0.8661 -0.0013 0.4999
vn 0.4999 -0.0013 0.8661
vn 0.021 0.001 0.9998
vn 0.2775 0.8864 0.3705
vn 0.3073 0.948 -0.0824
vn -0.0013 0.9303 0.3668
vn -0.1327 0.8891 0.4381
vn -0.2775 0.8864 0.3705
vn -0.3073 0.948 -0.0824
vn -0.5269 0.7586 0.3834
vn -0.6325 0.6722 0.3848
vn 1 0.001 0.001
vn 0.9994 0.001 -0.0333
vn 0.8011 0.0014 -0.5985
vn 1 0.003 0.0069
vn 0.9997 -0.023 0
vn -0.8011 0.0014 -0.5985
vn -0.9987 0.001 -0.0503
vn -1 0.001 -0.0069
vn 1 0.001 0.0069
vn 0.9745 -0.2243 0.0023
vn 0.9952 -0.0974 0.0021
vn 0.9793 -0.2026 0.0023
vn 0.8173 -0.5762 0
vn 0.9196 -0.3928 0.0052
vn 0.6142 -0.7887 0.0251
vn 0.8706 -0.4911 0.0299
vn 0.4766 -0.8779 0.0466
vn 0.7388 -0.6712 0.0604
vn -0.9997 -0.0232 0.0081
vn -0.7388 -0.6712 0.0604
vn -0.4766 -0.8779 0.0466
vn -0.8706 -0.4911 0.0299
vn -0.6111 -0.7911 0.0251
vn -0.9183 -0.3959 0.0052
vn -0.8173 -0.5762 0
vn -0.9793 -0.2026 0.0023
vn -0.9745 -0.2243 0.0023
vn -0.9952 -0.0974 0.0021
vn -1 0.001 0.0069
vn 0.2757 0.8667 0.4158
vn -0.135 0.8634 0.4861
vn 0.5261 0.7372 0.4239
vn 0.8102 0.5858 -0.0208
vn 0.7233 0.5413 0.4287
vn 0.7081 0.5315 0.4649
vn 0.8898 0.4562 -0.0146
vn 0.7984 0.4242 0.4274
vn 0.022 -0.001 0.9998
vn 0.2789 -0.0012 0.9603
vn -0.6907 0.224 0.6876
vn -0.6786 0.2731 0.6818
vn -0.6244 0.4213 0.6577
vn -0.5988 0.4646 0.6524
vn -0.472 0.6098 0.6367
vn -0.4359 0.643 0.6297
vn -0.295 0.832 0.4698
vn -0.2484 0.8548 0.4556
vn -0.0572 0.9566 0.2858
vn 0.295 0.832 0.4698
vn 0.4359 0.643 0.6297
vn 0.472 0.6098 0.6367
vn 0.5988 0.4646 0.6524
vn 0.6244 0.4213 0.6577
vn 0.6786 0.2731 0.6818
vn 0.6917 0.2274 0.6854
vn -0.2789 -0.0012 0.9603
vn -0.022 -0.001 0.9998
vn -0.021 0.001 0.9998
vn -0.5015 0.0013 0.8652
vn -0.4999 -0.0013 0.8661
vn -0.8663 0.004 0.4994
vn -0.8652 0.0013 0.5015
vn -0.9661 0.0036 0.258
vn -0.0011 0.0858 0.9963
vn 0.0011 0.0858 0.9963
vn 0.0013 0.9092 0.4163
vn 0.001 0.9994 -0.0354
vn -0.2757 0.8667 0.4158
vn -0.5261 0.7372 0.4239
vn -0.6346 0.6479 0.4214
vn 0.7243 -0.4834 0.4917
vn 0.8469 0.0459 0.5298
vn 0.527 -0.6797 0.5102
vn 0.2761 -0.8078 0.5208
vn 0 -0.8184 0.5746
vn 0.8501 -0.2392 0.4692
vn 0.894 0.0391 0.4463
vn 0.8511 0.3147 0.4201
vn 0.7236 0.5621 0.4005
vn 0.5269 0.7586 0.3834
vn 0.2754 0.8507 0.4477
vn -0.0013 0.8942 0.4477
vn -0.1329 0.8483 0.5125
vn -0.2754 0.8507 0.4477
vn -0.3096 0.9509 0.0012
vn -0.5256 0.7245 0.446
vn -0.6339 0.6339 0.4432
vn -0.5892 0.808 0.0014
vn -0.7071 0.7071 0.0014
vn -0.7984 0.4242 0.4274
vn -0.8898 0.4562 -0.0146
vn -0.8508 0.2918 0.437
vn -0.8332 0.2881 0.4719
vn -0.8857 0.1546 0.4378
vn -0.7243 -0.4834 0.4917
vn -0.527 -0.6797 0.5102
vn -0.2761 -0.8078 0.5208
vn -0.8469 -0.087 0.5247
vn 0 -0.8514 0.5245
vn -0.8501 -0.2392 0.4692
vn -0.894 0.0391 0.4463
vn -0.8511 0.3147 0.4201
vn -0.798 0.4466 0.4047
vn 0.5256 0.7245 0.446
vn 0.5892 0.808 0.0014
vn 0.8102 0.5861 0.0014
vn 0.7245 0.5256 0.446
vn 0.778 0.3947 0.4889
vn 0.9518 0.3066 -0.0012
vn 0.8507 0.2754 0.4477
vn 0.8854 0.1392 0.4434
vn 0 -0.001 1
vn 0.001 0.0333 0.9994
vn -0.001 0.0333 0.9994
vn -0.0011 0.1209 0.9927
vn 0.0011 0.1209 0.9927
vn 0.277 0.0837 0.9572
vn -0.2794 0.0811 0.9567
o clip__p0_c0
f 1/1/1 2/2/1 3/3/1
f 3/3/1 2/2/1 4/4/1
f 3/3/1 4/4/1 5/5/1
f 3/3/1 5/5/1 6/6/1
f 6/6/1 5/5/1 7/7/1
f 7/7/1 5/5/1 8/8/1
f 3/3/1 6/6/1 9/9/1
f 9/9/1 6/6/1 7/7/1
f 1/1/1 3/3/1 10/10/1
f 10/10/1 3/3/1 9/9/1
f 9/9/1 7/7/1 11/11/1
f 11/11/1 7/7/1 12/12/1
f 11/11/1 12/12/1 13/13/1
f 9/9/1 11/11/1 14/14/1
f 9/9/1 14/14/1 15/15/1
f 9/9/1 15/15/1 10/10/1
f 10/10/1 15/15/1 16/16/1
f 17/17/1 1/1/1 10/10/1
f 17/17/1 10/10/1 16/16/1
f 17/17/1 16/16/1 18/18/1
f 1/1/1 17/17/1 19/19/1
f 19/19/1 17/17/1 20/20/1
f 21/21/1 22/22/1 23/23/1
f 23/23/1 22/22/1 24/24/1
f 23/23/1 24/24/1 25/25/1
f 26/26/1 25/25/1 27/27/1
f 27/27/1 25/25/1 28/28/1
f 28/28/1 25/25/1 24/24/1
f 28/28/1 24/24/1 29/29/1
f 29/29/1 24/24/1 30/30/1
f 29/29/1 30/30/1 31/31/1
f 31/31/1 30/30/1 32/32/1
f 30/30/1 24/24/1 33/33/1
f 33/33/1 24/24/1 34/34/1
f 33/33/1 34/34/1 35/35/1
f 33/33/1 35/35/1 36/36/1
f 37/37/2 8/38/2 38/39/3
f 38/39/3 8/38/2 5/5/3
f 38/39/3 5/5/3 39/40/4
f 39/40/4 5/5/3 4/4/4
f 39/40/4 4/4/4 2/41/5
f 39/40/4 2/41/5 40/42/5
f 41/43/6 28/44/6 29/45/6
f 28/44/6 41/43/6 42/46/6
f 43/47/6 44/48/6 45/49/6
f 45/49/6 44/48/6 46/50/6
f 45/49/6 46/50/6 47/51/6
f 47/51/6 46/50/6 48/52/6
f 47/51/6 48/52/6 49/53/6
f 49/53/6 48/52/6 50/54/6
f 49/53/6 50/54/6 51/55/6
f 51/55/6 50/54/6 52/56/6
f 53/57/6 54/58/6 55/59/6
f 55/59/6 54/58/6 56/60/6
f 56/60/6 54/58/6 57/61/6
f 56/60/6 57/61/6 58/62/6
f 58/62/6 57/61/6 59/63/6
f 58/62/6 59/63/6 60/64/6
f 60/64/6 59/63/6 61/65/6
f 60/64/6 61/65/6 62/66/6
f 63/67/7 64/68/7 65/69/7
f 64/68/7 63/67/7 66/70/7
f 64/68/7 66/70/7 67/71/7
f 64/68/7 67/71/7 68/72/7
f 64/68/7 68/72/7 69/73/7
f 64/68/7 69/73/7 70/74/7
f 64/68/7 70/74/7 71/75/7
f 64/68/7 71/75/7 72/76/7
f 64/68/7 72/76/7 73/77/7
f 64/68/7 73/77/7 74/78/7
f 75/71/6 76/68/6 77/70/6
f 76/68/6 75/71/6 78/72/6
f 76/68/6 78/72/6 79/73/6
f 76/68/6 79/73/6 80/74/6
f 76/68/6 80/74/6 81/75/6
f 76/68/6 81/75/6 82/76/6
f 76/68/6 82/76/6 83/77/6
f 76/68/6 83/77/6 84/78/6
f 85/79/8 86/80/9 87/81/10
f 85/79/8 87/81/10 88/82/11
f 85/79/8 88/82/11 89/83/12
f 90/84/13 85/79/8 91/85/14
f 85/79/8 90/84/13 92/86/15
f 85/79/8 92/86/15 93/87/16
f 85/79/8 93/87/16 94/88/17
f 85/79/8 94/88/17 95/89/18
f 85/79/8 95/89/18 96/90/19
f 85/79/8 96/90/19 86/80/9
f 97/87/20 98/79/21 99/86/22
f 98/79/21 97/87/20 100/88/23
f 98/79/21 100/88/23 101/89/24
f 98/79/21 101/89/24 102/90/25
f 98/79/21 102/90/25 103/80/26
f 104/91/6 105/92/6 7/93/6
f 7/93/6 105/92/6 12/12/6
f 106/94/6 1/95/6 107/96/6
f 107/96/6 1/95/6 19/19/6
f 98/79/21 103/80/26 108/81/27
f 98/79/21 108/81/27 109/82/28
f 98/79/21 109/82/28 110/83/29
f 111/97/30 112/68/30 113/98/30
f 113/98/30 112/68/30 114/99/30
f 112/68/30 111/97/30 115/100/30
f 114/99/30 112/68/30 116/101/30
f 112/68/30 115/100/30 117/69/30
f 116/101/30 112/68/30 118/102/30
f 112/68/30 117/69/30 119/67/30
f 118/102/30 112/68/30 120/103/30
f 112/68/30 119/67/30 121/70/30
f 120/103/30 112/68/30 122/104/30
f 112/68/30 121/70/30 123/71/30
f 122/104/30 112/68/30 124/105/30
f 112/68/30 123/71/30 125/72/30
f 124/105/30 112/68/30 126/78/30
f 112/68/30 125/72/30 127/73/30
f 126/78/30 112/68/30 128/77/30
f 112/68/30 127/73/30 129/74/30
f 128/77/30 112/68/30 130/76/30
f 112/68/30 129/74/30 131/75/30
f 112/68/30 131/75/30 130/76/30
f 28/44/31 42/46/31 27/106/32
f 27/106/32 42/46/31 132/107/32
f 27/106/32 132/107/32 26/108/33
f 26/108/33 132/107/32 52/109/33
f 26/108/33 52/109/33 25/33/34
f 25/33/34 52/109/33 133/110/34
f 41/43/35 29/45/35 134/111/36
f 134/111/36 29/45/35 31/112/37
f 134/111/36 31/112/37 53/113/38
f 53/113/38 31/112/37 32/114/39
f 53/113/38 32/114/39 135/115/40
f 135/115/40 32/114/39 30/116/40
f 136/80/41 137/79/30 138/90/42
f 138/90/42 137/79/30 139/89/43
f 139/89/43 137/79/30 140/88/44
f 140/88/44 137/79/30 141/87/45
f 141/87/45 137/79/30 142/86/46
f 142/86/46 137/79/30 143/84/47
f 143/84/47 137/79/30 144/85/48
f 144/85/48 137/79/30 145/117/49
f 145/117/49 137/79/30 146/118/50
f 146/118/50 137/79/30 147/119/51
f 147/119/51 137/79/30 148/120/52
f 148/120/52 137/79/30 149/121/53
f 149/121/53 137/79/30 150/122/54
f 150/122/54 137/79/30 151/123/55
f 152/82/56 137/79/30 153/81/57
f 153/81/57 137/79/30 136/80/41
f 137/79/30 152/82/56 154/83/58
f 137/79/30 154/83/58 155/124/59
f 137/79/30 155/124/59 156/125/60
f 137/79/30 156/125/60 151/123/55
f 157/126/61 158/127/62 159/128/63
f 159/128/63 158/127/62 160/129/64
f 159/128/63 160/129/64 161/130/65
f 160/129/64 158/127/62 162/131/66
f 161/130/65 160/129/64 163/132/67
f 161/130/65 163/132/67 164/133/68
f 160/129/64 162/131/66 165/134/69
f 160/129/64 165/134/69 163/132/67
f 165/134/69 162/131/66 166/135/70
f 166/135/70 162/131/66 167/136/71
f 166/135/70 167/136/71 168/137/72
f 163/132/67 165/134/69 169/138/73
f 169/138/73 165/134/69 166/135/70
f 170/139/74 164/133/68 163/132/67
f 170/139/74 163/132/67 169/138/73
f 164/133/68 170/139/74 171/140/75
f 170/139/74 169/138/73 172/141/76
f 172/141/76 169/138/73 166/135/70
f 171/140/75 170/139/74 173/142/77
f 173/142/77 170/139/74 172/141/76
f 171/140/75 173/142/77 174/143/78
f 172/141/76 166/135/70 175/144/79
f 172/141/76 175/144/79 173/142/77
f 175/144/79 166/135/70 176/145/80
f 174/143/78 173/142/77 177/146/81
f 177/146/81 173/142/77 175/144/79
f 177/146/81 175/144/79 176/145/80
f 174/143/78 177/146/81 178/147/82
f 176/145/80 166/135/70 179/148/83
f 176/145/80 179/148/83 177/146/81
f 177/146/81 179/148/83 178/147/82
f 179/148/83 166/135/70 168/137/72
f 178/147/82 179/148/83 180/149/84
f 180/149/84 179/148/83 168/137/72
f 181/150/61 182/151/62 183/152/63
f 183/152/63 182/151/62 184/153/64
f 183/152/63 184/153/64 185/154/65
f 184/153/64 182/151/62 186/155/66
f 185/154/65 184/153/64 187/156/67
f 185/154/65 187/156/67 188/157/68
f 184/153/64 186/155/66 189/158/69
f 184/153/64 189/158/69 187/156/67
f 189/158/69 186/155/66 190/159/70
f 190/159/70 186/155/66 191/160/71
f 190/159/70 191/160/71 192/161/72
f 187/156/67 189/158/69 193/162/73
f 193/162/73 189/158/69 190/159/70
f 194/163/74 188/157/68 187/156/67
f 194/163/74 187/156/67 193/162/73
f 188/157/68 194/163/74 195/164/75
f 194/163/74 193/162/73 196/165/76
f 196/165/76 193/162/73 190/159/70
f 195/164/75 194/163/74 197/166/77
f 197/166/77 194/163/74 196/165/76
f 195/164/75 197/166/77 198/167/78
f 196/165/76 190/159/70 199/168/79
f 196/165/76 199/168/79 197/166/77
f 199/168/79 190/159/70 200/169/80
f 198/167/78 197/166/77 201/170/81
f 201/170/81 197/166/77 199/168/79
f 201/170/81 199/168/79 200/169/80
f 198/167/78 201/170/81 202/171/82
f 200/169/80 190/159/70 203/172/83
f 200/169/80 203/172/83 201/170/81
f 201/170/81 203/172/83 202/171/82
f 203/172/83 190/159/70 192/161/72
f 202/171/82 203/172/83 204/173/84
f 204/173/84 203/172/83 192/161/72
f 205/150/85 206/151/86 207/152/87
f 207/152/87 206/151/86 208/153/88
f 207/152/87 208/153/88 209/154/89
f 208/153/88 206/151/86 210/155/90
f 209/154/89 208/153/88 211/156/91
f 209/154/89 211/156/91 212/157/92
f 208/153/88 210/155/90 213/158/93
f 208/153/88 213/158/93 211/156/91
f 213/158/93 210/155/90 214/159/94
f 214/159/94 210/155/90 215/160/95
f 214/159/94 215/160/95 216/161/96
f 211/156/91 213/158/93 217/162/97
f 217/162/97 213/158/93 214/159/94
f 218/163/98 212/157/92 211/156/91
f 218/163/98 211/156/91 217/162/97
f 212/157/92 218/163/98 219/164/99
f 218/163/98 217/162/97 220/165/100
f 220/165/100 217/162/97 214/159/94
f 219/164/99 218/163/98 221/166/101
f 221/166/101 218/163/98 220/165/100
f 219/164/99 221/166/101 222/167/102
f 220/165/100 214/159/94 223/168/103
f 220/165/100 223/168/103 221/166/101
f 223/168/103 214/159/94 224/169/104
f 222/167/102 221/166/101 225/170/105
f 225/170/105 221/166/101 223/168/103
f 225/170/105 223/168/103 224/169/104
f 222/167/102 225/170/105 226/171/106
f 224/169/104 214/159/94 227/172/107
f 224/169/104 227/172/107 225/170/105
f 225/170/105 227/172/107 226/171/106
f 227/172/107 214/159/94 216/161/96
f 226/171/106 227/172/107 228/173/108
f 228/173/108 227/172/107 216/161/96
f 229/126/85 230/127/86 231/128/87
f 231/128/87 230/127/86 232/129/88
f 231/128/87 232/129/88 233/130/89
f 232/129/88 230/127/86 234/131/90
f 233/130/89 232/129/88 235/132/91
f 233/130/89 235/132/91 236/133/92
f 232/129/88 234/131/90 237/134/93
f 232/129/88 237/134/93 235/132/91
f 237/134/93 234/131/90 238/135/94
f 238/135/94 234/131/90 239/136/95
f 238/135/94 239/136/95 240/137/96
f 235/132/91 237/134/93 241/138/97
f 241/138/97 237/134/93 238/135/94
f 242/139/98 236/133/92 235/132/91
f 242/139/98 235/132/91 241/138/97
f 236/133/92 242/139/98 243/140/99
f 242/139/98 241/138/97 244/141/100
f 244/141/100 241/138/97 238/135/94
f 243/140/99 242/139/98 245/142/101
f 245/142/101 242/139/98 244/141/100
f 243/140/99 245/142/101 246/143/102
f 244/141/100 238/135/94 247/144/103
f 244/141/100 247/144/103 245/142/101
f 247/144/103 238/135/94 248/145/104
f 246/143/102 245/142/101 249/146/105
f 249/146/105 245/142/101 247/144/103
f 249/146/105 247/144/103 248/145/104
f 246/143/102 249/146/105 250/147/106
f 248/145/104 238/135/94 251/148/107
f 248/145/104 251/148/107 249/146/105
f 249/146/105 251/148/107 250/147/106
f 251/148/107 238/135/94 240/137/96
f 250/147/106 251/148/107 252/149/108
f 252/149/108 251/148/107 240/137/96
f 253/174/109 254/175/109 255/176/109
f 255/176/109 254/175/109 256/177/109
f 44/178/110 257/179/111 46/180/112
f 46/180/112 257/179/111 258/181/113
f 46/180/112 258/181/113 48/182/114
f 48/182/114 258/181/113 259/183/115
f 48/182/114 259/183/115 50/184/116
f 50/184/116 259/183/115 260/185/117
f 50/184/116 260/185/117 133/186/118
f 133/186/118 260/185/117 261/110/119
f 50/184/116 133/186/118 52/187/66
f 133/110/120 261/186/120 25/33/120
f 25/33/120 261/186/120 23/30/120
f 12/12/120 105/92/120 13/13/120
f 13/13/120 105/92/120 262/188/120
f 263/189/121 264/190/122 265/191/123
f 265/191/123 264/190/122 266/192/124
f 266/192/124 264/190/122 267/193/125
f 265/191/123 266/192/124 268/194/126
f 266/192/124 267/193/125 269/195/127
f 269/195/127 267/193/125 138/196/125
f 269/195/127 138/196/125 139/197/127
f 268/194/126 266/192/124 270/198/128
f 270/198/128 266/192/124 269/195/127
f 268/194/126 270/198/128 271/199/129
f 269/195/127 139/197/127 272/200/130
f 269/195/127 272/200/130 270/198/128
f 272/200/130 139/197/127 140/201/130
f 271/199/129 270/198/128 273/202/131
f 273/202/131 270/198/128 272/200/130
f 271/199/129 273/202/131 274/203/132
f 274/203/132 273/202/131 275/204/133
f 273/202/131 272/200/130 276/205/134
f 276/205/134 272/200/130 140/201/130
f 273/202/131 276/205/134 275/204/133
f 276/205/134 140/201/130 141/206/134
f 275/204/133 276/205/134 277/207/135
f 277/207/135 276/205/134 141/206/134
f 277/207/135 141/206/134 142/208/135
f 20/20/136 278/209/136 19/19/136
f 19/19/136 278/209/136 107/96/136
f 7/7/120 8/8/120 104/210/120
f 104/210/120 8/8/120 37/211/120
f 279/212/120 280/213/120 11/11/120
f 11/11/120 280/213/120 14/14/120
f 106/214/136 40/215/136 1/1/136
f 1/1/136 40/215/136 2/2/136
f 17/17/136 18/18/136 281/216/136
f 281/216/136 18/18/136 282/217/136
f 283/110/137 135/186/138 33/33/137
f 33/33/137 135/186/138 30/30/137
f 135/186/138 283/110/137 284/185/139
f 135/186/138 284/185/139 54/184/140
f 135/186/138 54/184/140 53/187/141
f 54/184/140 284/185/139 285/183/142
f 54/184/140 285/183/142 57/182/143
f 57/182/143 285/183/142 286/181/144
f 57/182/143 286/181/144 59/180/145
f 59/180/145 286/181/144 287/179/146
f 59/180/145 287/179/146 61/178/147
f 288/218/148 289/219/149 290/220/148
f 290/220/148 289/219/149 291/221/150
f 291/221/150 289/219/149 292/222/151
f 291/221/150 292/222/151 293/223/152
f 293/223/152 292/222/151 88/224/151
f 293/223/152 88/224/151 87/225/152
f 294/226/153 290/227/154 291/221/150
f 294/226/153 291/221/150 295/228/155
f 295/228/155 291/221/150 293/223/152
f 294/226/153 295/228/155 296/189/156
f 296/189/156 295/228/155 297/190/157
f 295/228/155 293/223/152 298/229/158
f 298/229/158 293/223/152 87/225/152
f 295/228/155 298/229/158 297/190/157
f 298/229/158 87/225/152 86/230/159
f 297/190/157 298/229/158 299/193/160
f 299/193/160 298/229/158 86/230/159
f 299/193/160 86/230/159 96/196/160
f 300/231/161 301/232/161 99/233/161
f 99/233/161 301/232/161 302/234/161
f 302/234/161 301/232/161 303/235/162
f 302/234/161 303/235/162 304/236/162
f 304/236/162 303/235/162 305/237/163
f 304/236/162 305/237/163 306/238/163
f 55/239/164 307/240/165 53/241/166
f 53/241/166 307/240/165 41/242/165
f 53/241/166 41/242/165 134/243/166
f 41/242/165 307/240/165 42/244/167
f 42/244/167 307/240/165 308/245/167
f 42/244/167 308/245/167 51/246/164
f 42/244/167 51/246/164 52/247/164
f 42/244/167 52/247/164 132/248/164
f 309/249/167 310/250/164 311/251/164
f 312/252/164 311/251/164 261/253/164
f 311/251/164 312/252/164 256/254/167
f 311/251/164 256/254/167 309/249/167
f 309/249/167 256/254/167 254/255/167
f 309/249/167 254/255/167 313/256/167
f 313/256/167 254/255/167 314/257/166
f 313/256/167 314/257/166 315/258/166
f 315/258/166 314/257/166 316/259/166
f 316/259/166 314/257/166 283/260/164
f 296/189/156 297/190/157 317/191/168
f 317/191/168 297/190/157 318/192/169
f 318/192/169 297/190/157 299/193/160
f 317/191/168 318/192/169 319/194/170
f 318/192/169 299/193/160 320/195/171
f 320/195/171 299/193/160 96/196/160
f 320/195/171 96/196/160 95/197/171
f 319/194/170 318/192/169 321/198/172
f 321/198/172 318/192/169 320/195/171
f 319/194/170 321/198/172 322/199/173
f 320/195/171 95/197/171 323/200/174
f 320/195/171 323/200/174 321/198/172
f 323/200/174 95/197/171 94/201/174
f 322/199/173 321/198/172 324/202/175
f 324/202/175 321/198/172 323/200/174
f 322/199/173 324/202/175 325/203/176
f 325/203/176 324/202/175 326/204/177
f 324/202/175 323/200/174 327/205/178
f 327/205/178 323/200/174 94/201/174
f 324/202/175 327/205/178 326/204/177
f 327/205/178 94/201/174 93/206/178
f 326/204/177 327/205/178 328/207/179
f 328/207/179 327/205/178 93/206/178
f 328/207/179 93/206/178 92/208/179
f 329/261/180 151/262/180 330/263/181
f 151/262/180 329/261/180 150/264/182
f 150/264/182 329/261/180 331/265/182
f 330/263/181 151/262/180 156/266/181
f 331/265/182 329/261/180 332/267/183
f 331/265/182 332/267/183 333/268/184
f 333/268/184 332/267/183 334/269/185
f 333/268/184 334/269/185 335/270/186
f 332/267/183 329/261/180 336/271/187
f 336/271/187 329/261/180 330/263/181
f 332/267/183 336/271/187 337/272/188
f 332/267/183 337/272/188 334/273/189
f 337/272/188 336/271/187 338/274/190
f 338/274/190 336/271/187 339/275/191
f 339/275/191 336/271/187 330/263/181
f 338/274/190 339/275/191 340/276/192
f 341/277/193 330/263/181 156/266/181
f 330/263/181 341/277/193 339/275/191
f 341/277/193 156/266/181 155/278/193
f 340/276/192 339/275/191 342/279/194
f 342/279/194 339/275/191 341/277/193
f 340/276/192 342/279/194 343/218/195
f 341/277/193 155/278/193 344/280/120
f 341/277/193 344/280/120 342/279/194
f 344/280/120 155/278/193 154/281/120
f 343/218/195 342/279/194 345/219/196
f 345/219/196 342/279/194 344/280/120
f 343/218/195 345/219/196 346/220/197
f 344/280/120 154/281/120 347/222/198
f 344/280/120 347/222/198 345/219/196
f 347/222/198 154/281/120 152/224/198
f 346/220/197 345/219/196 348/221/199
f 348/221/199 345/219/196 347/222/198
f 347/222/198 152/224/198 349/223/200
f 347/222/198 349/223/200 348/221/199
f 349/223/200 152/224/198 153/225/200
f 346/227/201 348/221/199 350/226/202
f 350/226/202 348/221/199 351/228/203
f 351/228/203 348/221/199 349/223/200
f 350/226/202 351/228/203 263/189/121
f 263/189/121 351/228/203 264/190/122
f 351/228/203 349/223/200 352/229/204
f 352/229/204 349/223/200 153/225/200
f 351/228/203 352/229/204 264/190/122
f 352/229/204 153/225/200 136/230/204
f 264/190/122 352/229/204 267/193/125
f 267/193/125 352/229/204 136/230/204
f 267/193/125 136/230/204 138/196/125
f 287/179/205 353/282/205 61/178/205
f 61/178/205 353/282/205 62/283/205
f 354/189/206 355/190/207 356/191/208
f 356/191/208 355/190/207 357/192/209
f 357/192/209 355/190/207 358/193/210
f 356/191/208 357/192/209 359/194/211
f 357/192/209 358/193/210 360/195/164
f 360/195/164 358/193/210 102/196/210
f 360/195/164 102/196/210 101/197/164
f 359/194/211 357/192/209 361/198/212
f 361/198/212 357/192/209 360/195/164
f 359/194/211 361/198/212 362/199/213
f 360/195/164 101/197/164 363/200/214
f 360/195/164 363/200/214 361/198/212
f 363/200/214 101/197/164 100/201/214
f 362/199/213 361/198/212 364/202/215
f 364/202/215 361/198/212 363/200/214
f 362/199/213 364/202/215 306/203/216
f 306/203/216 364/202/215 304/204/217
f 364/202/215 363/200/214 365/205/218
f 365/205/218 363/200/214 100/201/214
f 364/202/215 365/205/218 304/204/217
f 365/205/218 100/201/214 97/206/218
f 304/204/217 365/205/218 302/207/219
f 302/207/219 365/205/218 97/206/218
f 302/207/219 97/206/218 99/208/219
f 314/284/220 366/285/221 283/286/222
f 325/238/223 326/236/224 367/237/225
f 367/237/225 326/236/224 368/235/226
f 367/237/225 368/235/226 369/287/227
f 368/235/226 326/236/224 328/234/228
f 369/287/227 368/235/226 370/288/229
f 368/235/226 328/234/228 371/232/230
f 368/235/226 371/232/230 370/288/229
f 371/232/230 328/234/228 92/233/228
f 370/288/229 371/232/230 372/289/231
f 371/232/230 92/233/228 90/231/230
f 371/232/230 90/231/230 372/289/231
f 372/289/231 90/231/230 91/290/231
f 373/291/232 374/292/233 375/293/234
f 375/293/234 374/292/233 376/294/235
f 375/293/234 376/294/235 377/295/236
f 377/295/236 376/294/235 378/296/237
f 377/295/236 378/296/237 379/297/238
f 379/297/238 378/296/237 380/298/239
f 379/297/238 380/298/239 335/270/186
f 335/270/186 380/298/239 333/268/184
f 333/268/184 380/298/239 381/299/240
f 333/268/184 381/299/240 331/265/182
f 331/265/182 381/299/240 149/300/240
f 331/265/182 149/300/240 150/264/182
f 149/300/240 381/299/240 148/301/241
f 381/299/240 380/298/239 382/302/241
f 381/299/240 382/302/241 148/301/241
f 382/302/241 380/298/239 378/296/237
f 148/301/241 382/302/241 147/303/242
f 382/302/241 378/296/237 383/304/242
f 382/302/241 383/304/242 147/303/242
f 383/304/242 378/296/237 376/294/235
f 147/303/242 383/304/242 146/305/243
f 383/304/242 376/294/235 384/306/243
f 383/304/242 384/306/243 146/305/243
f 384/306/243 376/294/235 374/292/233
f 146/305/243 384/306/243 145/307/244
f 145/307/244 384/306/243 385/308/244
f 385/308/244 384/306/243 374/292/233
f 145/307/244 385/308/244 144/290/136
f 385/308/244 374/292/233 386/309/245
f 386/309/245 374/292/233 373/310/246
f 386/309/245 373/310/246 387/311/247
f 144/290/136 385/308/244 388/289/136
f 388/289/136 385/308/244 386/309/245
f 144/290/136 388/289/136 143/231/248
f 386/309/245 387/311/247 389/288/249
f 386/309/245 389/288/249 388/289/136
f 389/288/249 387/311/247 390/287/250
f 143/231/248 388/289/136 391/232/248
f 391/232/248 388/289/136 389/288/249
f 143/231/248 391/232/248 142/233/251
f 142/233/251 391/232/248 277/234/251
f 391/232/248 389/288/249 392/235/252
f 392/235/252 389/288/249 390/287/250
f 391/232/248 392/235/252 277/234/251
f 392/235/252 390/287/250 393/237/253
f 277/234/251 392/235/252 275/236/254
f 275/236/254 392/235/252 393/237/253
f 275/236/254 393/237/253 274/238/255
f 43/283/256 394/282/256 44/178/256
f 44/178/256 394/282/256 257/179/256
f 395/221/257 396/220/258 397/219/259
f 397/219/259 396/220/258 398/218/260
f 397/219/259 398/218/260 399/279/261
f 399/279/261 398/218/260 400/276/262
f 397/219/259 399/279/261 401/280/263
f 397/219/259 401/280/263 402/222/264
f 397/219/259 402/222/264 395/221/257
f 402/222/264 401/280/263 110/281/263
f 402/222/264 110/281/263 109/224/264
f 402/222/264 109/224/264 403/223/265
f 402/222/264 403/223/265 395/221/257
f 403/223/265 109/224/264 108/225/265
f 396/227/266 395/221/257 404/226/267
f 404/226/267 395/221/257 405/228/268
f 405/228/268 395/221/257 403/223/265
f 404/226/267 405/228/268 354/189/206
f 354/189/206 405/228/268 355/190/207
f 405/228/268 403/223/265 406/229/269
f 406/229/269 403/223/265 108/225/265
f 405/228/268 406/229/269 355/190/207
f 406/229/269 108/225/265 103/230/269
f 355/190/207 406/229/269 358/193/210
f 358/193/210 406/229/269 103/230/269
f 358/193/210 103/230/269 102/196/210
f 261/186/270 21/312/271 23/30/270
f 21/312/271 261/186/270 311/187/271
f 21/312/271 311/187/271 22/313/272
f 22/313/272 311/187/271 310/314/272
f 22/313/272 310/314/272 24/315/273
f 24/315/273 310/314/272 309/316/273
f 407/317/165 253/174/165 408/318/165
f 408/318/165 253/174/165 255/176/165
f 409/319/274 129/320/275 410/321/276
f 410/321/276 129/320/275 127/322/127
f 409/319/274 410/321/276 411/323/277
f 410/321/276 127/322/127 412/324/278
f 410/321/276 412/324/278 411/323/277
f 412/324/278 127/322/127 125/325/279
f 411/323/277 412/324/278 413/326/280
f 413/326/280 412/324/278 125/325/279
f 411/323/277 413/326/280 414/327/281
f 413/326/280 125/325/279 123/328/134
f 413/326/280 123/328/134 414/327/281
f 414/327/281 123/328/134 121/329/135
f 253/174/282 314/174/283 254/175/284
f 314/174/283 253/174/282 55/330/285
f 407/317/286 55/330/286 253/174/286
f 256/177/287 312/176/288 255/176/289
f 255/176/289 312/176/288 408/318/137
f 55/331/290 56/332/291 314/333/292
f 314/333/292 56/332/291 366/334/293
f 366/334/293 56/332/291 58/335/294
f 366/334/293 58/335/294 415/336/295
f 415/336/295 58/335/294 60/337/296
f 415/336/295 60/337/296 416/338/297
f 416/338/297 60/337/296 62/339/298
f 416/338/297 62/339/298 353/340/299
f 51/341/300 408/318/300 312/176/300
f 394/342/301 43/343/302 417/344/303
f 417/344/303 43/343/302 45/345/304
f 417/344/303 45/345/304 418/346/305
f 418/346/305 45/345/304 47/347/306
f 418/346/305 47/347/306 419/348/307
f 419/348/307 47/347/306 49/349/308
f 419/348/307 49/349/308 312/350/309
f 312/350/309 49/349/308 51/351/310
f 420/319/311 421/323/312 422/352/313
f 420/319/311 422/352/313 71/353/159
f 420/319/311 71/353/159 70/320/160
f 71/353/159 422/352/313 72/354/314
f 72/354/314 422/352/313 423/355/315
f 423/355/315 422/352/313 421/356/316
f 72/354/314 423/355/315 73/357/317
f 423/355/315 421/356/316 424/358/318
f 423/355/315 424/358/318 73/357/317
f 425/359/319 15/15/319 14/360/320
f 425/359/319 14/360/320 280/361/320
f 257/362/321 394/363/322 258/364/323
f 258/364/323 394/363/322 417/365/324
f 258/364/323 417/365/324 259/366/325
f 259/366/325 417/365/324 418/367/326
f 259/366/325 418/367/326 260/368/327
f 260/368/327 418/367/326 419/369/328
f 260/368/327 419/369/328 261/370/329
f 261/370/329 419/369/328 312/371/220
f 283/286/222 366/285/221 284/372/330
f 284/372/330 366/285/221 415/373/331
f 284/372/330 415/373/331 285/374/332
f 285/374/332 415/373/331 416/375/333
f 285/374/332 416/375/333 286/376/334
f 286/376/334 416/375/333 353/377/335
f 286/376/334 353/377/335 287/378/336
f 18/379/337 16/16/338 282/380/337
f 282/380/337 16/16/338 426/381/338
f 426/381/338 16/16/338 425/359/319
f 425/359/319 16/16/338 15/15/319
f 24/315/273 309/316/273 34/382/339
f 34/382/339 309/316/273 313/383/339
f 34/382/339 313/383/339 35/384/340
f 35/384/340 313/383/339 315/385/341
f 35/384/340 315/385/341 36/386/342
f 36/386/342 315/385/341 316/387/343
f 36/386/342 316/387/343 33/388/344
f 33/388/344 316/387/343 283/389/344
f 346/390/345 427/79/346 343/391/346
f 343/391/346 427/79/346 340/392/346
f 427/79/346 346/390/345 350/393/346
f 340/392/346 427/79/346 338/394/345
f 427/79/346 350/393/346 263/395/346
f 338/394/345 427/79/346 337/396/345
f 427/79/346 263/395/346 265/397/346
f 337/396/345 427/79/346 334/398/345
f 427/79/346 265/397/346 268/399/345
f 334/398/345 427/79/346 335/400/345
f 427/79/346 268/399/345 271/401/346
f 335/400/345 427/79/346 379/402/346
f 427/79/346 271/401/346 274/403/346
f 379/402/346 427/79/346 377/404/346
f 427/79/346 274/403/346 393/405/345
f 377/404/346 427/79/346 375/406/346
f 427/79/346 393/405/345 390/407/346
f 375/406/346 427/79/346 373/408/346
f 427/79/346 390/407/346 387/409/346
f 427/79/346 387/409/346 373/408/346
f 420/319/311 70/320/160 428/321/347
f 428/321/347 70/320/160 69/322/348
f 420/319/311 428/321/347 421/323/312
f 428/321/347 69/322/348 429/324/349
f 428/321/347 429/324/349 421/323/312
f 429/324/349 69/322/348 68/325/174
f 421/323/312 429/324/349 430/326/350
f 430/326/350 429/324/349 68/325/174
f 421/323/312 430/326/350 431/327/351
f 430/326/350 68/325/174 67/328/178
f 430/326/350 67/328/178 431/327/351
f 431/327/351 67/328/178 66/329/179
f 432/410/352 411/356/353 433/411/354
f 434/412/355 433/411/354 411/413/356
f 433/411/354 434/412/355 118/414/182
f 433/411/354 118/414/182 120/415/180
f 433/411/354 120/415/180 432/410/352
f 432/410/352 120/415/180 122/416/181
f 432/410/352 122/416/181 435/417/357
f 432/410/352 435/417/357 411/356/353
f 435/417/357 122/416/181 124/418/193
f 435/417/357 124/418/193 436/419/358
f 435/417/357 436/419/358 411/356/353
f 436/419/358 124/418/193 126/420/120
f 436/419/358 126/420/120 437/358/359
f 436/419/358 437/358/359 411/356/353
f 437/358/359 126/420/120 128/357/198
f 411/356/353 437/358/359 438/355/360
f 438/355/360 437/358/359 128/357/198
f 438/355/360 128/357/198 130/354/200
f 411/356/353 438/355/360 439/352/361
f 439/352/361 438/355/360 130/354/200
f 439/352/361 130/354/200 131/353/204
f 439/352/361 131/353/204 409/319/274
f 409/319/274 131/353/204 129/320/275
f 439/352/361 409/319/274 411/323/277
f 440/319/362 80/320/210 441/321/363
f 441/321/363 80/320/210 79/322/164
f 440/319/362 441/321/363 442/323/364
f 441/321/363 79/322/164 443/324/365
f 441/321/363 443/324/365 442/323/364
f 443/324/365 79/322/164 78/325/366
f 442/323/364 443/324/365 444/326/367
f 444/326/367 443/324/365 78/325/366
f 442/323/364 444/326/367 445/327/368
f 444/326/367 78/325/366 75/328/369
f 444/326/367 75/328/369 445/327/368
f 445/327/368 75/328/369 77/329/370
f 431/421/371 66/422/372 446/423/373
f 431/421/371 446/423/373 421/424/374
f 446/423/373 66/422/372 63/425/230
f 421/424/374 446/423/373 447/426/375
f 447/426/375 446/423/373 63/425/230
f 447/426/375 63/425/230 65/427/231
f 448/428/376 111/429/243 449/430/377
f 449/430/377 111/429/243 113/431/242
f 111/429/243 448/428/376 115/432/244
f 449/430/377 113/431/242 450/433/378
f 450/433/378 113/431/242 114/434/241
f 449/430/377 450/433/378 411/413/356
f 448/428/376 449/430/377 411/424/379
f 450/433/378 114/434/241 451/435/380
f 450/433/378 451/435/380 411/413/356
f 451/435/380 114/434/241 116/436/240
f 411/413/356 451/435/380 434/412/355
f 434/412/355 451/435/380 116/436/240
f 434/412/355 116/436/240 118/414/182
f 452/437/381 115/432/244 448/428/376
f 452/437/381 448/428/376 411/424/379
f 115/432/244 452/437/381 117/427/136
f 117/427/136 452/437/381 453/426/382
f 453/426/382 452/437/381 411/424/379
f 117/427/136 453/426/382 119/425/248
f 453/426/382 411/424/379 454/423/383
f 453/426/382 454/423/383 119/425/248
f 454/423/383 411/424/379 414/421/384
f 119/425/248 454/423/383 121/422/251
f 121/422/251 454/423/383 414/421/384
f 440/319/362 442/323/364 455/352/385
f 440/319/362 455/352/385 81/353/386
f 440/319/362 81/353/386 80/320/210
f 81/353/386 455/352/385 82/354/387
f 82/354/387 455/352/385 456/355/388
f 456/355/388 455/352/385 442/356/389
f 82/354/387 456/355/388 83/357/390
f 456/355/388 442/356/389 457/358/391
f 456/355/388 457/358/391 83/357/390
f 457/358/391 442/356/389 458/419/392
f 83/357/390 457/358/391 84/420/263
f 84/420/263 457/358/391 458/419/392
f 11/438/393 13/13/393 279/439/393
f 279/439/393 13/13/393 262/188/393
f 17/440/393 281/441/393 20/20/393
f 20/20/393 281/441/393 278/209/393
f 398/391/393 459/79/393 400/392/393
f 459/79/393 398/391/393 396/390/393
f 459/79/393 396/390/393 404/393/393
f 459/79/393 404/393/393 354/395/393
f 459/79/393 354/395/393 356/397/393
f 459/79/393 356/397/393 359/399/393
f 459/79/393 359/399/393 362/401/393
f 459/79/393 362/401/393 306/403/393
f 459/79/393 306/403/393 305/405/393
f 459/79/393 305/405/393 460/407/393
f 290/390/394 461/79/394 288/391/394
f 288/391/394 461/79/394 462/392/394
f 461/79/394 290/390/394 294/393/394
f 462/392/394 461/79/394 463/394/394
f 461/79/394 294/393/394 296/395/395
f 463/394/394 461/79/394 464/396/394
f 461/79/394 296/395/395 317/397/394
f 464/396/394 461/79/394 465/398/394
f 461/79/394 317/397/394 319/399/394
f 465/398/394 461/79/394 466/400/394
f 461/79/394 319/399/394 322/401/395
f 466/400/394 461/79/394 467/402/394
f 461/79/394 322/401/395 325/403/395
f 467/402/394 461/79/394 468/404/395
f 461/79/394 325/403/395 367/405/395
f 468/404/395 461/79/394 469/406/395
f 461/79/394 367/405/395 369/407/394
f 469/406/395 461/79/394 470/408/395
f 461/79/394 369/407/394 471/409/395
f 461/79/394 471/409/395 470/408/395
f 308/442/396 307/443/397 408/318/396
f 408/318/396 307/443/397 407/317/397
f 55/330/398 407/317/398 307/443/398
f 308/442/399 408/318/399 51/341/399
f 210/155/164 206/444/164 215/160/164
f 215/160/164 206/444/164 216/445/166
f 216/445/166 206/444/164 228/446/164
f 228/446/164 206/444/164 205/447/164
f 234/131/164 230/448/164 239/136/164
f 239/136/164 230/448/164 240/449/164
f 240/449/164 230/448/164 252/450/164
f 252/450/164 230/448/164 229/451/164
f 162/131/167 158/448/166 167/136/165
f 167/136/165 158/448/166 168/449/165
f 168/449/165 158/448/166 180/450/165
f 180/450/165 158/448/166 157/451/166
f 186/155/167 182/444/165 191/160/167
f 191/160/167 182/444/165 192/445/167
f 192/445/167 182/444/165 204/446/165
f 204/446/165 182/444/165 181/447/165
f 104/452/164 37/453/164 472/454/164
f 472/454/164 37/453/164 38/39/164
f 472/454/164 38/39/164 473/455/164
f 473/455/164 38/39/164 39/40/164
f 473/455/164 39/40/164 106/456/164
f 106/456/164 39/40/164 40/457/164
f 281/458/164 282/459/164 474/460/164
f 474/460/164 282/459/164 426/381/164
f 474/460/164 426/381/164 425/359/166
f 474/460/164 425/359/166 475/461/164
f 475/461/164 425/359/166 279/462/166
f 279/462/166 425/359/166 280/463/166
f 279/464/166 262/188/166 104/465/164
f 104/465/164 262/188/166 105/92/164
f 281/466/164 106/467/166 278/209/164
f 278/209/164 106/467/166 107/96/166
