# CS2 body mesh, tools/cs2_glb_to_obj.py
v 0.00616 -0.022 -0.08938
v 0.00616 -0.02162 -0.0891
v -0.00273 -0.02162 -0.0891
v -0.00273 -0.022 -0.08938
v 0.00616 0.02788 -0.11419
v 0.00616 0.02326 -0.1066
v -0.00273 0.02788 -0.11419
v -0.00273 0.02326 -0.1066
v -0.01161 0.02326 -0.1066
v -0.01161 0.02788 -0.11419
v -0.00273 0.02096 -0.10861
v 0.00616 0.02096 -0.10861
v -0.00273 0.01729 -0.11072
v 0.00616 0.01734 -0.11068
v -0.00273 0.0134 -0.11238
v 0.00616 0.01336 -0.11236
v -0.00273 0.00911 -0.11364
v 0.00616 0.00909 -0.1136
v 0.00616 0.00457 -0.11426
v -0.00273 0.0046 -0.11431
v 0.00616 -0.00099 -0.11403
v -0.00273 -0.00096 -0.11411
v 0.00616 -0.00634 -0.11282
v -0.00273 -0.00633 -0.11295
v -0.00273 -0.01182 -0.11048
v 0.00616 -0.0118 -0.11034
v -0.00273 -0.0169 -0.10637
v 0.00616 -0.01683 -0.1063
v -0.00273 -0.01983 -0.10244
v 0.00616 -0.01975 -0.10233
v -0.00273 -0.02188 -0.0975
v 0.00616 -0.02181 -0.09732
v -0.00273 -0.02236 -0.09347
v 0.00616 -0.02231 -0.09319
v -0.01161 0.02096 -0.10861
v -0.01161 0.01734 -0.11068
v -0.01161 0.01336 -0.11236
v -0.01161 0.00909 -0.1136
v -0.01161 0.00457 -0.11426
v -0.01161 -0.00099 -0.11403
v -0.01161 -0.00634 -0.11282
v -0.01161 -0.0118 -0.11034
v -0.01161 -0.01681 -0.1063
v -0.01161 -0.01975 -0.10233
v -0.01161 -0.02181 -0.09732
v -0.01161 -0.02231 -0.09319
v -0.01161 -0.022 -0.08938
v 0.00616 0.02788 -0.08926
v 0.00616 0.04254 -0.08926
v -0.00273 0.02788 -0.08926
v -0.00273 0.04252 -0.08926
v -0.01161 0.04254 -0.08926
v -0.01161 0.02788 -0.08926
v -0.00273 -0.0204 -0.08927
v -0.00273 -0.01999 -0.08968
v -0.01161 -0.0204 -0.08927
v -0.01161 -0.02 -0.08968
v -0.01161 -0.02036 -0.08965
v -0.01161 -0.01997 -0.09308
v -0.01161 -0.01959 -0.09307
v -0.01161 -0.02165 -0.08943
v -0.01161 -0.02162 -0.0891
v -0.01161 -0.02195 -0.09318
v -0.01161 -0.02147 -0.0972
v -0.01161 -0.01878 -0.09643
v -0.01161 -0.01843 -0.09631
v -0.01161 -0.01649 -0.09952
v -0.01161 -0.01675 -0.09978
v -0.01161 -0.01302 -0.10269
v -0.01161 -0.01951 -0.10205
v -0.01161 -0.01659 -0.10604
v -0.01161 -0.01325 -0.10295
v -0.01161 -0.0116 -0.11002
v -0.01161 -0.00927 -0.10533
v -0.01161 -0.00907 -0.10501
v -0.01161 -0.00464 -0.10685
v -0.01161 -0.00455 -0.10652
v -0.01161 -0.00625 -0.11247
v -0.01161 -0.00097 -0.11367
v -0.01161 0.00026 -0.10752
v -0.01161 0.00028 -0.10717
v -0.01161 0.00459 -0.1139
v -0.01161 0.00517 -0.10714
v -0.01161 0.00517 -0.10678
v -0.01161 0.00909 -0.11325
v -0.01161 0.00904 -0.10614
v -0.01161 0.00904 -0.10579
v -0.01161 0.01332 -0.11201
v -0.01161 0.01286 -0.10451
v -0.01161 0.01293 -0.10411
v -0.01161 0.01743 -0.11027
v -0.01161 0.01683 -0.10198
v -0.01161 0.01664 -0.10173
v -0.01161 0.02096 -0.10821
v -0.01161 0.0202 -0.09932
v -0.01161 0.02018 -0.0989
v -0.01161 0.02326 -0.10625
v -0.01161 0.02321 -0.09562
v -0.01161 0.02321 -0.09523
v -0.01161 0.02788 -0.08968
v -0.01161 0.02788 -0.1138
v -0.01161 0.04254 -0.08961
v -0.01161 0.04254 -0.11383
v -0.01161 0.04254 -0.11419
v -0.00273 0.04252 -0.11419
v 0.00616 0.04254 -0.11419
v 0.00616 0.01683 -0.10198
v 0.00616 0.01286 -0.10451
v 0.00616 0.01743 -0.11027
v 0.00616 0.01293 -0.10411
v 0.00616 0.01664 -0.10173
v 0.00616 0.00904 -0.10579
v 0.00616 0.0202 -0.09932
v 0.00616 0.02018 -0.0989
v 0.00616 0.02096 -0.10821
v 0.00616 0.02321 -0.09562
v 0.00616 0.02321 -0.09523
v 0.00616 0.02326 -0.10625
v 0.00616 0.02788 -0.08968
v 0.00616 0.04254 -0.08961
v 0.00616 0.04254 -0.11383
v 0.00616 0.02788 -0.1138
v 0.00616 0.01332 -0.11201
v 0.00616 0.00909 -0.11325
v 0.00616 0.00904 -0.10614
v 0.00616 0.00517 -0.10678
v 0.00616 0.00517 -0.10714
v 0.00616 0.00028 -0.10717
v 0.00616 0.00459 -0.1139
v 0.00616 0.00026 -0.10752
v 0.00616 -0.00455 -0.10652
v 0.00616 -0.00097 -0.11367
v 0.00616 -0.00464 -0.10685
v 0.00616 -0.00907 -0.10501
v 0.00616 -0.00625 -0.11247
v 0.00616 -0.00927 -0.10533
v 0.00616 -0.01302 -0.10269
v 0.00616 -0.0116 -0.11002
v 0.00616 -0.01325 -0.10295
v 0.00616 -0.01659 -0.10604
v 0.00616 -0.01675 -0.09978
v 0.00616 -0.01649 -0.09952
v 0.00616 -0.01951 -0.10205
v 0.00616 -0.02147 -0.0972
v 0.00616 -0.01878 -0.09643
v 0.00616 -0.01843 -0.09631
v 0.00616 -0.01959 -0.09307
v 0.00616 -0.01997 -0.09308
v 0.00616 -0.02 -0.08968
v 0.00616 -0.02195 -0.09318
v 0.00616 -0.02036 -0.08965
v 0.00616 -0.0204 -0.08927
v 0.00616 -0.02165 -0.08943
v -0.00273 0.00898 -0.10581
v -0.00273 0.00515 -0.1068
v -0.00273 0.01284 -0.10412
v -0.00273 0.00028 -0.10719
v -0.00273 0.01641 -0.10184
v -0.00273 -0.00452 -0.10652
v -0.00273 0.02007 -0.09892
v -0.00273 -0.00902 -0.10505
v -0.00273 0.02316 -0.09525
v -0.00273 -0.01302 -0.10269
v -0.00273 -0.01649 -0.09952
v -0.00273 -0.01848 -0.09631
v -0.00273 -0.01956 -0.09318
vt 0.611316 0.557604
vt 0.611316 0.558092
vt 0.622547 0.559069
vt 0.622547 0.55858
vt 0.56151 0.594714
vt 0.566881 0.603015
vt 0.570788 0.588855
vt 0.576159 0.597156
vt 0.545885 0.557115
vt 0.542955 0.559069
vt 0.551256 0.566881
vt 0.548326 0.568834
vt 0.550279 0.554674
vt 0.555162 0.56444
vt 0.554674 0.552232
vt 0.559557 0.562487
vt 0.559069 0.550279
vt 0.563463 0.560533
vt 0.567858 0.55858
vt 0.56444 0.547838
vt 0.573717 0.556627
vt 0.570788 0.545885
vt 0.579577 0.55565
vt 0.577624 0.54442
vt 0.58446 0.543931
vt 0.585437 0.554674
vt 0.592273 0.543443
vt 0.592273 0.554674
vt 0.598132 0.543931
vt 0.597644 0.555162
vt 0.60448 0.544908
vt 0.603015 0.55565
vt 0.609363 0.545885
vt 0.60741 0.556627
vt 0.613758 0.546861
vt 0.543931 0.588366
vt 0.527329 0.588855
vt 0.543931 0.599597
vt 0.527818 0.600085
vt 0.622059 0.560045
vt 0.622059 0.561022
vt 0.611316 0.559557
vt 0.610828 0.560045
vt 0.610828 0.559557
vt 0.606922 0.559557
vt 0.606433 0.560045
vt 0.60741 0.557115
vt 0.603015 0.556627
vt 0.602527 0.559557
vt 0.602527 0.560045
vt 0.597644 0.560045
vt 0.597644 0.559557
vt 0.592273 0.561022
vt 0.597644 0.55565
vt 0.592273 0.555162
vt 0.592273 0.560533
vt 0.585437 0.555162
vt 0.586413 0.561022
vt 0.586901 0.56151
vt 0.581042 0.562487
vt 0.581042 0.562975
vt 0.579577 0.556139
vt 0.573717 0.557115
vt 0.575182 0.56444
vt 0.575671 0.564928
vt 0.568346 0.559069
vt 0.569811 0.566393
vt 0.569811 0.566881
vt 0.563952 0.561022
vt 0.565416 0.568346
vt 0.565905 0.569323
vt 0.559557 0.562975
vt 0.56151 0.571276
vt 0.56151 0.571764
vt 0.555162 0.564928
vt 0.556627 0.574206
vt 0.557115 0.574694
vt 0.551256 0.56737
vt 0.552721 0.577624
vt 0.553209 0.578112
vt 0.548814 0.569323
vt 0.549303 0.58153
vt 0.549303 0.582018
vt 0.543443 0.561022
vt 0.527329 0.588366
vt 0.526841 0.56151
vt 0.526841 0.560533
vt 0.543443 0.560533
vt 0.526841 0.549303
vt 0.542955 0.549303
vt 0.571276 0.5786
vt 0.574694 0.577136
vt 0.567858 0.581042
vt 0.579577 0.575182
vt 0.56444 0.583483
vt 0.583972 0.573717
vt 0.560533 0.586413
vt 0.588855 0.572741
vt 0.557115 0.589831
vt 0.551744 0.596179
vt 0.593738 0.571764
vt 0.599109 0.571276
vt 0.603015 0.571276
vt 0.606433 0.571276
vt 0.61034 0.571276
vn 0.822 -0.3335 0.4616
vn 0 -0.5762 0.8173
vn 0 -0.8664 -0.4993
vn 0 -0.1655 -0.9862
vn -0.0014 0.5737 -0.819
vn -0.0223 0.402 -0.9154
vn -0.0013 0.4195 -0.9078
vn -0.0212 0.3034 -0.9526
vn -0.0012 0.3214 -0.9469
vn -0.0198 0.1871 -0.9821
vn -0.0012 0.205 -0.9788
vn -0.001 0.0481 -0.9988
vn -0.0174 0.0318 -0.9993
vn 0 -0.1428 -0.9897
vn -0.0178 -0.1254 -0.9919
vn 0 -0.3481 -0.9375
vn -0.02 -0.303 -0.9528
vn -0.0217 -0.507 -0.8617
vn 0 -0.5481 -0.8364
vn -0.0225 -0.7283 -0.6848
vn 0 -0.7388 -0.6739
vn -0.0216 -0.8754 -0.4829
vn 0 -0.8805 -0.474
vn -0.0194 -0.9661 -0.2576
vn 0 -0.9737 -0.2279
vn -0.0161 -0.9997 -0.0161
vn 0 -1 0
vn -0.0172 -0.9959 0.0883
vn 0 -0.9962 0.0868
vn -0.0235 0.5587 -0.8291
vn -0.0202 -0.3302 -0.9437
vn -0.0219 -0.5326 -0.8461
vn -0.0191 -0.9725 -0.2321
vn -0.0159 -0.9999 0
vn 0 -0.001 1
vn -0.0239 0.7069 0.7069
vn -0.857 0.3766 0.3518
vn -1 -0.001 0
vn -0.8365 -0.3043 0.4557
vn 0 -0.001 -1
vn 0.9997 0.0171 0.0151
vn 0.8398 0.4097 0.3563
vn 0 -0.3211 0.9471
vn -0.02 -0.303 0.9528
vn 0 -0.1655 0.9862
vn -0.0212 -0.4301 0.9025
vn -0.0214 -0.4556 0.8899
vn 0.001 0.0313 0.9995
vn -0.0221 -0.5612 0.8274
vn 0.0012 0.2267 0.974
vn -0.0225 -0.6834 0.7297
vn 0.0013 0.4195 0.9078
vn -0.0224 -0.7523 0.6584
vn -0.0224 -0.7727 0.6344
vn -0.0014 0.5985 0.8011
vn -0.0014 0.7799 0.6259
vn -0.0013 0.9063 0.4226
vn -0.0012 0.9782 0.2077
vn -0.0186 0.9942 0.1061
vn -0.0011 0.9945 0.1043
vn -0.0201 0.9772 0.2115
vn -0.0225 0.9023 0.4306
vn -0.0238 0.7709 0.6366
vn -0.0236 0.584 0.8114
vn -0.0223 0.402 0.9154
vn -0.0201 0.2088 0.9778
vn -0.0171 0.0151 0.9997
vn -0.0181 -0.1479 0.9888
vn 0 -0.4724 0.8814
vn 0 -0.6953 0.7188
vn 0 -0.762 0.6476
vn 0 -0.7817 0.6237
vn 0.0011 0.143 0.9897
o trigger__p0_c0
f 1/1/1 2/2/1 3/3/2
f 1/1/1 3/3/2 4/4/2
f 5/5/3 6/6/4 7/7/3
f 7/7/3 6/6/4 8/8/4
f 8/8/4 9/6/4 7/7/3
f 7/7/3 9/6/4 10/5/3
f 11/9/5 8/10/4 12/11/5
f 12/11/5 8/10/4 6/12/4
f 11/9/5 12/11/5 13/13/6
f 13/13/6 12/11/5 14/14/7
f 13/13/6 14/14/7 15/15/8
f 15/15/8 14/14/7 16/16/9
f 15/15/8 16/16/9 17/17/10
f 17/17/10 16/16/9 18/18/11
f 17/17/10 18/18/11 19/19/12
f 17/17/10 19/19/12 20/20/13
f 20/20/13 19/19/12 21/21/14
f 20/20/13 21/21/14 22/22/15
f 22/22/15 21/21/14 23/23/16
f 22/22/15 23/23/16 24/24/17
f 24/24/17 23/23/16 25/25/18
f 25/25/18 23/23/16 26/26/19
f 25/25/18 26/26/19 27/27/20
f 27/27/20 26/26/19 28/28/21
f 27/27/20 28/28/21 29/29/22
f 29/29/22 28/28/21 30/30/23
f 29/29/22 30/30/23 31/31/24
f 31/31/24 30/30/23 32/32/25
f 31/31/24 32/32/25 33/33/26
f 33/33/26 32/32/25 34/34/27
f 33/33/26 34/34/27 4/35/28
f 4/35/28 34/34/27 1/1/29
f 9/12/4 8/10/4 35/11/30
f 35/11/30 8/10/4 11/9/5
f 35/11/30 11/9/5 13/13/6
f 35/11/30 13/13/6 36/14/6
f 36/14/6 13/13/6 15/15/8
f 36/14/6 15/15/8 37/16/8
f 37/16/8 15/15/8 17/17/10
f 37/16/8 17/17/10 38/18/10
f 38/18/10 17/17/10 39/19/13
f 39/19/13 17/17/10 20/20/13
f 39/19/13 20/20/13 40/21/15
f 40/21/15 20/20/13 22/22/15
f 40/21/15 22/22/15 41/23/31
f 41/23/31 22/22/15 24/24/17
f 41/23/31 24/24/17 25/25/18
f 41/23/31 25/25/18 42/26/32
f 42/26/32 25/25/18 27/27/20
f 42/26/32 27/27/20 43/28/20
f 43/28/20 27/27/20 29/29/22
f 43/28/20 29/29/22 44/30/22
f 44/30/22 29/29/22 31/31/24
f 44/30/22 31/31/24 45/32/33
f 45/32/33 31/31/24 33/33/26
f 45/32/33 33/33/26 46/34/34
f 46/34/34 33/33/26 4/35/28
f 46/34/34 4/35/28 47/1/28
f 48/36/35 49/37/35 50/38/35
f 50/38/35 49/37/35 51/39/35
f 51/39/35 52/37/35 50/38/35
f 50/38/35 52/37/35 53/36/35
f 54/40/36 55/41/36 56/42/37
f 56/42/37 55/41/36 57/43/37
f 56/42/37 57/43/37 58/44/38
f 58/44/38 57/43/37 59/45/38
f 59/45/38 57/43/37 60/46/38
f 56/42/37 58/44/38 61/2/38
f 56/42/37 61/2/38 62/2/39
f 58/44/38 59/45/38 63/47/38
f 58/44/38 63/47/38 61/2/38
f 62/2/39 61/2/38 47/1/39
f 62/2/39 47/1/39 3/3/2
f 3/3/2 47/1/39 4/4/2
f 47/1/39 61/2/38 46/34/38
f 46/34/38 61/2/38 63/47/38
f 46/34/38 63/47/38 64/48/38
f 64/48/38 63/47/38 59/45/38
f 46/34/38 64/48/38 45/32/38
f 65/49/38 59/45/38 60/46/38
f 59/45/38 65/49/38 64/48/38
f 65/49/38 60/46/38 66/50/38
f 65/49/38 66/50/38 67/51/38
f 65/49/38 67/51/38 68/52/38
f 65/49/38 68/52/38 64/48/38
f 68/52/38 67/51/38 69/53/38
f 70/54/38 45/32/38 64/48/38
f 70/54/38 64/48/38 68/52/38
f 45/32/38 70/54/38 44/30/38
f 44/30/38 70/54/38 71/55/38
f 71/55/38 70/54/38 68/52/38
f 44/30/38 71/55/38 43/28/38
f 68/52/38 69/53/38 72/56/38
f 68/52/38 72/56/38 71/55/38
f 43/28/38 71/55/38 73/57/38
f 73/57/38 71/55/38 72/56/38
f 43/28/38 73/57/38 42/26/38
f 72/56/38 69/53/38 74/58/38
f 72/56/38 74/58/38 73/57/38
f 74/58/38 69/53/38 75/59/38
f 74/58/38 75/59/38 76/60/38
f 74/58/38 76/60/38 73/57/38
f 76/60/38 75/59/38 77/61/38
f 42/26/38 73/57/38 78/62/38
f 78/62/38 73/57/38 76/60/38
f 42/26/38 78/62/38 41/23/38
f 41/23/38 78/62/38 79/63/38
f 79/63/38 78/62/38 76/60/38
f 41/23/38 79/63/38 40/21/38
f 76/60/38 77/61/38 80/64/38
f 76/60/38 80/64/38 79/63/38
f 80/64/38 77/61/38 81/65/38
f 40/21/38 79/63/38 82/66/38
f 82/66/38 79/63/38 80/64/38
f 40/21/38 82/66/38 39/19/38
f 39/19/38 82/66/38 38/18/38
f 80/64/38 81/65/38 83/67/38
f 80/64/38 83/67/38 82/66/38
f 83/67/38 81/65/38 84/68/38
f 38/18/38 82/66/38 85/69/38
f 85/69/38 82/66/38 83/67/38
f 38/18/38 85/69/38 37/16/38
f 83/67/38 84/68/38 86/70/38
f 83/67/38 86/70/38 85/69/38
f 86/70/38 84/68/38 87/71/38
f 37/16/38 85/69/38 88/72/38
f 88/72/38 85/69/38 86/70/38
f 37/16/38 88/72/38 36/14/38
f 86/70/38 87/71/38 89/73/38
f 86/70/38 89/73/38 88/72/38
f 89/73/38 87/71/38 90/74/38
f 36/14/38 88/72/38 91/75/38
f 91/75/38 88/72/38 89/73/38
f 36/14/38 91/75/38 35/11/38
f 89/73/38 90/74/38 92/76/38
f 89/73/38 92/76/38 91/75/38
f 92/76/38 90/74/38 93/77/38
f 35/11/38 91/75/38 94/78/38
f 94/78/38 91/75/38 92/76/38
f 35/11/38 94/78/38 9/12/38
f 92/76/38 93/77/38 95/79/38
f 92/76/38 95/79/38 94/78/38
f 95/79/38 93/77/38 96/80/38
f 9/12/38 94/78/38 97/81/38
f 97/81/38 94/78/38 95/79/38
f 95/79/38 96/80/38 98/82/38
f 95/79/38 98/82/38 97/81/38
f 98/82/38 96/80/38 99/83/38
f 97/81/38 98/82/38 100/36/38
f 100/36/38 98/82/38 99/83/38
f 100/36/38 99/83/38 53/36/38
f 97/81/38 100/36/38 101/84/38
f 100/36/38 53/36/38 102/85/38
f 102/85/38 53/36/38 52/37/38
f 100/36/38 102/85/38 103/86/38
f 100/36/38 103/86/38 101/84/38
f 101/84/38 103/86/38 104/87/38
f 101/84/38 104/87/38 10/88/38
f 101/84/38 10/88/38 9/12/38
f 9/12/38 97/81/38 101/84/38
f 104/87/40 105/89/40 10/88/40
f 10/88/40 105/89/40 7/90/40
f 7/90/40 105/89/40 5/88/40
f 5/88/40 105/89/40 106/87/40
f 107/76/41 108/73/41 109/75/41
f 108/73/41 107/76/41 110/74/41
f 110/74/41 107/76/41 111/77/41
f 108/73/41 110/74/41 112/71/41
f 111/77/41 107/76/41 113/79/41
f 111/77/41 113/79/41 114/80/41
f 113/79/41 107/76/41 115/78/41
f 115/78/41 107/76/41 109/75/41
f 114/80/41 113/79/41 116/82/41
f 114/80/41 116/82/41 117/83/41
f 113/79/41 115/78/41 118/81/41
f 113/79/41 118/81/41 116/82/41
f 118/81/41 115/78/41 6/12/41
f 6/12/41 115/78/41 12/11/41
f 12/11/41 115/78/41 109/75/41
f 12/11/41 109/75/41 14/14/41
f 117/83/41 116/82/41 119/36/41
f 119/36/41 116/82/41 118/81/41
f 117/83/41 119/36/41 48/36/41
f 48/36/41 119/36/41 120/85/41
f 48/36/41 120/85/41 49/37/41
f 120/85/41 119/36/41 121/86/41
f 119/36/41 118/81/41 122/84/41
f 119/36/41 122/84/41 121/86/41
f 121/86/41 122/84/41 106/87/41
f 106/87/41 122/84/41 5/88/41
f 5/88/41 122/84/41 6/12/41
f 123/72/41 14/14/41 109/75/41
f 14/14/41 123/72/41 16/16/41
f 123/72/41 109/75/41 108/73/41
f 16/16/41 123/72/41 124/69/41
f 123/72/41 108/73/41 125/70/41
f 123/72/41 125/70/41 124/69/41
f 125/70/41 108/73/41 112/71/41
f 16/16/41 124/69/41 18/18/41
f 125/70/41 112/71/41 126/68/41
f 125/70/41 126/68/41 127/67/41
f 125/70/41 127/67/41 124/69/41
f 127/67/41 126/68/41 128/65/41
f 18/18/41 124/69/41 129/66/41
f 129/66/41 124/69/41 127/67/41
f 18/18/41 129/66/41 19/19/41
f 19/19/41 129/66/41 21/21/41
f 127/67/41 128/65/41 130/64/41
f 127/67/41 130/64/41 129/66/41
f 130/64/41 128/65/41 131/61/41
f 21/21/41 129/66/41 132/63/41
f 132/63/41 129/66/41 130/64/41
f 21/21/41 132/63/41 23/23/41
f 130/64/41 131/61/41 133/60/41
f 130/64/41 133/60/41 132/63/41
f 133/60/41 131/61/41 134/59/41
f 23/23/41 132/63/41 135/62/41
f 135/62/41 132/63/41 133/60/41
f 23/23/41 135/62/41 26/26/41
f 133/60/41 134/59/41 136/58/41
f 136/58/41 134/59/41 137/53/41
f 135/62/41 133/60/41 138/57/41
f 138/57/41 133/60/41 136/58/41
f 135/62/41 138/57/41 26/26/41
f 136/58/41 137/53/41 139/56/41
f 136/58/41 139/56/41 138/57/41
f 26/26/41 138/57/41 140/55/41
f 140/55/41 138/57/41 139/56/41
f 26/26/41 140/55/41 28/28/41
f 28/28/41 140/55/41 30/30/41
f 139/56/41 137/53/41 141/52/41
f 139/56/41 141/52/41 140/55/41
f 141/52/41 137/53/41 142/51/41
f 30/30/41 140/55/41 143/54/41
f 143/54/41 140/55/41 141/52/41
f 30/30/41 143/54/41 32/32/41
f 32/32/41 143/54/41 144/48/41
f 144/48/41 143/54/41 141/52/41
f 32/32/41 144/48/41 34/34/41
f 141/52/41 142/51/41 145/49/41
f 141/52/41 145/49/41 144/48/41
f 145/49/41 142/51/41 146/50/41
f 145/49/41 146/50/41 147/46/41
f 145/49/41 147/46/41 148/45/41
f 145/49/41 148/45/41 144/48/41
f 148/45/41 147/46/41 149/43/42
f 150/47/41 34/34/41 144/48/41
f 150/47/41 144/48/41 148/45/41
f 148/45/41 149/43/42 151/44/41
f 148/45/41 151/44/41 150/47/41
f 151/44/41 149/43/42 152/42/42
f 34/34/41 150/47/41 153/2/41
f 153/2/41 150/47/41 151/44/41
f 153/2/41 151/44/41 152/42/42
f 34/34/41 153/2/41 1/1/1
f 153/2/41 152/42/42 2/2/1
f 153/2/41 2/2/1 1/1/1
f 118/81/41 6/12/41 122/84/41
f 154/91/43 87/71/44 155/92/45
f 87/71/44 154/91/43 156/93/46
f 155/92/45 87/71/44 84/68/45
f 87/71/44 156/93/46 90/74/47
f 155/92/45 84/68/45 157/94/48
f 90/74/47 156/93/46 158/95/49
f 157/94/48 84/68/45 81/65/48
f 90/74/47 158/95/49 93/77/49
f 157/94/48 81/65/48 159/96/50
f 93/77/49 158/95/49 160/97/51
f 159/96/50 81/65/48 77/61/50
f 93/77/49 160/97/51 96/80/51
f 159/96/50 77/61/50 161/98/52
f 96/80/51 160/97/51 162/99/53
f 161/98/52 77/61/50 75/59/52
f 96/80/51 162/99/53 99/83/53
f 99/83/53 162/99/53 53/36/54
f 53/36/54 162/99/53 50/100/54
f 161/98/52 75/59/52 69/53/55
f 161/98/52 69/53/55 163/101/55
f 163/101/55 69/53/55 67/51/56
f 163/101/55 67/51/56 164/102/56
f 164/102/56 67/51/56 66/50/57
f 164/102/56 66/50/57 165/103/57
f 165/103/57 66/50/57 60/46/58
f 165/103/57 60/46/58 166/104/58
f 166/104/58 60/46/58 57/43/59
f 166/104/58 57/43/59 55/105/59
f 55/105/59 149/43/60 166/104/58
f 166/104/58 149/43/60 147/46/61
f 166/104/58 147/46/61 165/103/57
f 165/103/57 147/46/61 146/50/62
f 165/103/57 146/50/62 164/102/56
f 164/102/56 146/50/62 142/51/63
f 164/102/56 142/51/63 163/101/55
f 163/101/55 142/51/63 137/53/64
f 163/101/55 137/53/64 161/98/52
f 161/98/52 137/53/64 134/59/65
f 161/98/52 134/59/65 131/61/66
f 161/98/52 131/61/66 159/96/50
f 159/96/50 131/61/66 128/65/67
f 159/96/50 128/65/67 157/94/48
f 157/94/48 128/65/67 126/68/68
f 157/94/48 126/68/68 155/92/45
f 155/92/45 126/68/68 112/71/43
f 155/92/45 112/71/43 154/91/43
f 154/91/43 112/71/43 156/93/46
f 156/93/46 112/71/43 110/74/69
f 156/93/46 110/74/69 158/95/49
f 158/95/49 110/74/69 111/77/2
f 158/95/49 111/77/2 160/97/51
f 160/97/51 111/77/2 114/80/70
f 160/97/51 114/80/70 162/99/53
f 162/99/53 114/80/70 117/83/71
f 162/99/53 117/83/71 48/36/72
f 162/99/53 48/36/72 50/100/54
f 152/42/73 54/40/73 2/2/73
f 2/2/73 54/40/73 3/3/73
f 3/3/73 54/40/73 62/2/73
f 62/2/73 54/40/73 56/42/73
f 152/42/42 149/43/42 55/41/36
f 152/42/42 55/41/36 54/40/36
