# CS2 body mesh, tools/cs2_glb_to_obj.py
v -0.04763 0.07505 0.30079
v -0.04788 0.05985 0.30079
v -0.04142 0.07161 0.30079
v -0.04197 0.11137 0.30079
v -0.0474 0.11137 0.30079
v -0.04094 0.05921 0.30079
v -0.04795 0.05535 0.30079
v -0.02265 0.05852 0.30079
v -0.01158 0.07161 0.30079
v -0.01178 0.06419 0.30079
v -0.00272 0.05777 0.30079
v -0.00272 0.06417 0.30079
v -0.02271 0.05739 0.30079
v -0.00272 0.05668 0.30079
v -0.04088 0.05802 0.30079
v -0.04677 0.05361 0.30079
v -0.0429 0.05122 0.30077
v -0.03613 0.04832 0.30077
v -0.02322 0.04624 0.30077
v -0.01144 0.04539 0.30077
v -0.00272 0.04557 0.30077
v 0.00633 0.06419 0.30079
v 0.01721 0.05852 0.30079
v 0.00614 0.07161 0.30079
v 0.03597 0.07161 0.30079
v 0.01726 0.05739 0.30079
v 0.00599 0.04539 0.30077
v 0.01779 0.04624 0.30077
v 0.03071 0.04832 0.30077
v 0.03549 0.05921 0.30079
v 0.04244 0.05985 0.30079
v 0.04219 0.07505 0.30079
v 0.03652 0.11137 0.30079
v 0.04196 0.11137 0.30079
v 0.04251 0.05535 0.30079
v 0.03544 0.05802 0.30079
v 0.03746 0.05122 0.30077
v 0.04133 0.05361 0.30079
v 0.00532 0.05895 0.24257
v 0.00536 0.0646 0.24255
v -0.00272 0.05895 0.24257
v -0.00272 0.0646 0.24255
v -0.0108 0.0646 0.24255
v -0.01076 0.05895 0.24257
v -0.04895 0.10958 0.29904
v -0.04895 0.07487 0.29904
v -0.04875 0.05996 0.29904
v -0.04868 0.05492 0.29904
v -0.04737 0.05276 0.29904
v -0.04324 0.05 0.29904
v -0.03613 0.04658 0.29904
v -0.02331 0.04413 0.29904
v -0.01146 0.04348 0.29904
v -0.00272 0.04348 0.29904
v 0.00601 0.04348 0.29904
v 0.01787 0.04413 0.29904
v 0.03071 0.04658 0.29904
v 0.03782 0.05 0.29904
v 0.04192 0.05276 0.29904
v 0.04324 0.05492 0.29904
v 0.04331 0.05996 0.29904
v 0.0435 0.07487 0.29904
v 0.0435 0.10958 0.29904
v -0.01082 0.06539 0.24168
v -0.00272 0.06539 0.24168
v 0.00538 0.06539 0.24168
v 0.03496 0.07245 0.29904
v 0.03498 0.10958 0.29904
v -0.04041 0.07245 0.29904
v -0.04043 0.10958 0.29904
v 0.00536 0.07129 0.29904
v 0.00532 0.06499 0.29904
v -0.04453 0.10255 0.11031
v -0.0474 0.10226 0.1079
v -0.04609 0.10074 0.11031
v -0.04895 0.10047 0.1079
v 0.0435 0.10047 0.1079
v 0.04196 0.10226 0.1079
v 0.04065 0.10074 0.11031
v 0.03911 0.10255 0.11031
v 0.00614 0.07245 0.29904
v -0.01158 0.07245 0.29904
v -0.0108 0.07129 0.29904
v -0.01076 0.06499 0.29904
v 0.00614 0.06548 0.24255
v -0.01158 0.06548 0.24255
v -0.00272 0.06497 0.29904
v -0.04043 0.0486 0.18384
v -0.04037 0.04653 0.17186
v -0.03341 0.04247 0.1838
v -0.03341 0.04435 0.19606
v -0.04049 0.04964 0.19608
v -0.03341 0.0455 0.20708
v -0.04059 0.05049 0.2071
v -0.03341 0.04635 0.21927
v -0.04025 0.05168 0.21927
v -0.02324 0.04247 0.20708
v -0.02324 0.04325 0.21927
v -0.02315 0.04133 0.19606
v -0.01146 0.04229 0.21927
v -0.02324 0.04357 0.23148
v -0.03341 0.04682 0.23146
v -0.01146 0.04137 0.20708
v -0.00272 0.04171 0.21927
v -0.00272 0.04071 0.20708
v -0.01146 0.04277 0.23146
v -0.00272 0.04226 0.23146
v -0.01146 0.04001 0.19604
v -0.00272 0.03928 0.19604
v -0.02306 0.03896 0.1838
v -0.01146 0.03735 0.18378
v -0.00272 0.03655 0.18378
v -0.03341 0.03997 0.17182
v -0.02301 0.03597 0.17181
v -0.01146 0.03409 0.17179
v -0.00272 0.03324 0.17179
v -0.04046 0.04319 0.15931
v -0.04584 0.04947 0.15937
v -0.03341 0.03632 0.15915
v -0.02331 0.03178 0.15894
v -0.01146 0.02859 0.15887
v -0.00272 0.02778 0.15887
v -0.0459 0.04436 0.14619
v -0.04895 0.05097 0.14605
v -0.04032 0.03802 0.14638
v -0.01146 0.02268 0.147
v -0.00272 0.0219 0.147
v -0.02358 0.02573 0.1469
v -0.03341 0.03046 0.1466
v -0.01146 0.01485 0.13474
v -0.00272 0.0141 0.13474
v -0.02384 0.01819 0.13474
v -0.03341 0.02353 0.13474
v -0.01146 0.00772 0.12718
v -0.00272 0.00703 0.12718
v -0.024 0.01079 0.12718
v -0.03341 0.0163 0.12718
v -0.04032 0.03148 0.1343
v -0.03986 0.02482 0.12719
v 0.02797 0.04247 0.1838
v 0.01771 0.04133 0.19606
v 0.01762 0.03896 0.1838
v 0.02797 0.03997 0.17182
v 0.03493 0.04653 0.17186
v 0.03502 0.04319 0.15931
v 0.01758 0.03597 0.17181
v 0.02797 0.03632 0.15915
v 0.03488 0.03802 0.14638
v 0.01787 0.03178 0.15894
v 0.02797 0.03046 0.1466
v 0.00601 0.02859 0.15887
v 0.00601 0.03409 0.17179
v 0.01813 0.02573 0.1469
v 0.00601 0.02268 0.147
v 0.0184 0.01819 0.13474
v 0.00601 0.01485 0.13474
v 0.02797 0.02353 0.13474
v 0.03488 0.03148 0.1343
v 0.02797 0.0163 0.12718
v 0.01856 0.01079 0.12718
v 0.03441 0.02482 0.12719
v 0.04047 0.03845 0.13391
v 0.04046 0.04436 0.14619
v 0.04348 0.04518 0.13362
v 0.04038 0.03303 0.12695
v 0.04324 0.04043 0.1267
v 0.0435 0.04203 0.12622
v 0.0435 0.04709 0.13331
v 0.0435 0.04245 0.11555
v 0.0435 0.06183 0.13076
v 0.0435 0.0348 0.12012
v 0.04287 0.034 0.12101
v 0.04022 0.02555 0.12062
v 0.0435 0.02592 0.11715
v 0.03507 0.01685 0.12034
v 0.04258 0.02535 0.11823
v 0.04208 0.01999 0.11748
v 0.04285 0.02007 0.11637
v 0.04074 0.01626 0.11718
v 0.02797 0.00686 0.12034
v 0.01872 0.00122 0.12034
v 0.03528 0.00647 0.11674
v 0.02797 -0.00199 0.11672
v 0.01884 -0.00771 0.11672
v 0.04133 0.01586 0.11605
v 0.0356 0.00579 0.11559
v 0.02797 -0.00328 0.11557
v 0.01886 -0.009 0.11557
v 0.04109 0.01091 0.07968
v 0.03562 0.00097 0.08062
v 0.02797 -0.00808 0.08148
v 0.01886 -0.01377 0.08201
v 0.00601 -0.01239 0.11557
v 0.00601 -0.01717 0.08235
v 0.01868 -0.01245 0.08014
v 0.02731 -0.00705 0.07962
v 0.03484 0.002 0.07883
v 0.03929 0.0107 0.07798
v 0.04173 0.02068 0.07695
v 0.0435 0.02055 0.07875
v 0.04377 0.02874 0.07798
v 0.04205 0.02867 0.07619
v 0.0435 0.03692 0.07718
v 0.04184 0.03664 0.07541
v 0.04377 0.03419 0.11635
v 0.04196 0.05262 0.07386
v 0.0435 0.05327 0.07558
v 0.04196 0.09828 0.08733
v 0.0435 0.09879 0.0891
v 0.04196 0.10058 0.08907
v 0.0435 0.05705 0.11555
v 0.0435 0.06137 0.12679
v 0.0435 0.06231 0.12261
v 0.0435 0.0643 0.11952
v 0.00601 0.03735 0.18378
v 0.00601 0.04001 0.19604
v 0.00601 0.04137 0.20708
v 0.01779 0.04247 0.20708
v 0.00601 0.04229 0.21927
v 0.01779 0.04325 0.21927
v 0.01781 0.04357 0.23148
v 0.00601 0.04277 0.23146
v 0.01781 0.04388 0.24262
v 0.00601 0.04298 0.24262
v -0.00272 0.04252 0.24262
v 0.01781 0.04442 0.25157
v 0.00601 0.0433 0.25157
v -0.00272 0.04291 0.25157
v 0.00601 0.04371 0.26015
v 0.01781 0.04497 0.26015
v -0.00272 0.04346 0.26015
v 0.01781 0.04543 0.26794
v 0.00601 0.04396 0.26796
v -0.00272 0.04378 0.26796
v 0.01781 0.04555 0.27319
v 0.00601 0.04419 0.27313
v -0.00272 0.04422 0.27313
v 0.01781 0.04539 0.28006
v 0.00601 0.04443 0.28025
v -0.00272 0.04426 0.28025
v 0.01781 0.04388 0.28211
v 0.00601 0.04362 0.28211
v -0.00272 0.04366 0.28211
v 0.00601 0.04348 0.28348
v -0.00272 0.04348 0.28348
v 0.01781 0.04369 0.28348
v 0.03071 0.04555 0.28211
v 0.02797 0.04808 0.28025
v 0.03071 0.0455 0.28348
v 0.03782 0.04895 0.28211
v 0.03429 0.05159 0.28018
v -0.04592 0.03845 0.13391
v -0.04583 0.03303 0.12695
v -0.04893 0.04518 0.13362
v -0.04895 0.04709 0.13331
v -0.04868 0.04043 0.1267
v -0.04895 0.04203 0.12622
v -0.04895 0.04245 0.11555
v -0.04895 0.06183 0.13076
v -0.04895 0.0348 0.12012
v -0.04831 0.034 0.12101
v -0.04565 0.02555 0.12062
v -0.04895 0.02592 0.11715
v -0.04051 0.01685 0.12034
v -0.04803 0.02535 0.11823
v -0.04753 0.01999 0.11748
v -0.04829 0.02007 0.11637
v -0.04618 0.01626 0.11718
v -0.03341 0.00686 0.12034
v -0.04073 0.00647 0.11674
v -0.04677 0.01586 0.11605
v -0.02416 0.00122 0.12034
v -0.03341 -0.00199 0.11672
v -0.04104 0.00579 0.11559
v -0.04654 0.01091 0.07968
v -0.01146 -0.00202 0.12034
v -0.00272 -0.00268 0.12034
v -0.02428 -0.00771 0.11672
v -0.01146 -0.01106 0.11672
v -0.00272 -0.0117 0.11672
v -0.01146 -0.01239 0.11557
v -0.00272 -0.013 0.11557
v -0.00272 -0.01781 0.0824
v -0.03341 -0.00328 0.11557
v -0.0243 -0.009 0.11557
v -0.04106 0.00097 0.08062
v -0.03341 -0.00808 0.08148
v -0.0243 -0.01377 0.08201
v -0.01146 -0.01717 0.08235
v -0.00272 -0.01651 0.08053
v -0.01163 -0.01582 0.08047
v -0.00272 -0.01019 0.07992
v -0.01351 -0.00929 0.07982
v -0.02412 -0.01245 0.08014
v -0.02396 -0.00757 0.07957
v -0.03275 -0.00705 0.07962
v -0.03151 -0.00243 0.07909
v -0.04028 0.002 0.07883
v -0.03739 0.0051 0.0784
v -0.04473 0.0107 0.07798
v -0.04147 0.01332 0.07766
v -0.04718 0.02068 0.07695
v -0.04363 0.02241 0.07652
v -0.04895 0.02055 0.07875
v -0.04921 0.02874 0.07798
v -0.04749 0.02867 0.07619
v -0.04728 0.03664 0.07541
v -0.04379 0.04394 0.07466
v -0.04895 0.03692 0.07718
v -0.04921 0.03419 0.11635
v -0.0474 0.05262 0.07386
v -0.04197 0.05267 0.07392
v -0.04895 0.05327 0.07558
v -0.04895 0.05705 0.11555
v -0.04895 0.06137 0.12679
v -0.04895 0.06231 0.12261
v -0.04895 0.0643 0.11952
v -0.04895 0.09879 0.0891
v -0.0474 0.09828 0.08733
v -0.04197 0.09828 0.08733
v -0.0474 0.10058 0.08907
v -0.04895 0.10907 0.26837
v -0.04895 0.10935 0.28635
v -0.0474 0.11082 0.26835
v -0.0474 0.11112 0.28631
v -0.0488 0.06082 0.27715
v -0.04411 0.05476 0.28027
v -0.0488 0.05994 0.27852
v -0.04792 0.05452 0.28171
v -0.04895 0.06123 0.2794
v -0.0473 0.05239 0.28208
v -0.04818 0.0543 0.28311
v -0.04714 0.05186 0.28348
v -0.04895 0.07723 0.28355
v -0.04895 0.07983 0.26837
v -0.04893 0.06227 0.27726
v -0.04895 0.07711 0.26682
v -0.04888 0.06412 0.2683
v -0.04895 0.07509 0.2644
v -0.04875 0.06295 0.26837
v -0.04895 0.07377 0.26107
v -0.04889 0.06532 0.26087
v -0.04895 0.07377 0.25203
v -0.04877 0.06398 0.26082
v -0.04893 0.06578 0.25187
v -0.04895 0.06637 0.24259
v -0.04895 0.07377 0.24257
v -0.04895 0.06658 0.23144
v -0.04882 0.06502 0.24259
v -0.04895 0.07377 0.23142
v -0.0488 0.06447 0.25182
v -0.04888 0.06515 0.23144
v -0.04535 0.05917 0.25168
v -0.04538 0.05921 0.24259
v -0.04554 0.05912 0.23146
v -0.04891 0.06511 0.21927
v -0.04895 0.06657 0.21927
v -0.04895 0.07377 0.21925
v -0.04896 0.06511 0.20708
v -0.04895 0.0666 0.20708
v -0.04895 0.07376 0.20706
v -0.04895 0.07294 0.19606
v -0.04895 0.06562 0.19606
v -0.04895 0.07202 0.18382
v -0.04574 0.05902 0.21927
v -0.04895 0.06417 0.19606
v -0.04895 0.06403 0.18384
v -0.04895 0.07094 0.17184
v -0.04593 0.05836 0.20708
v -0.04895 0.06259 0.18384
v -0.04895 0.06121 0.17186
v -0.04895 0.06887 0.15944
v -0.04588 0.05751 0.19608
v -0.04895 0.0573 0.1594
v -0.04895 0.0658 0.14601
v -0.04893 0.05981 0.17186
v -0.04583 0.05643 0.18384
v -0.04895 0.05255 0.14599
v -0.04895 0.05588 0.1594
v -0.04581 0.05326 0.17186
v 0.0435 0.10907 0.26837
v 0.04196 0.11082 0.26835
v 0.0435 0.10935 0.28635
v 0.04196 0.11112 0.28631
v 0.0435 0.05097 0.14605
v 0.0404 0.04947 0.15937
v 0.0435 0.05588 0.1594
v 0.04037 0.05326 0.17186
v 0.0435 0.05255 0.14599
v 0.04348 0.05981 0.17186
v 0.0435 0.0573 0.1594
v 0.0435 0.0658 0.14601
v 0.0435 0.06887 0.15944
v 0.0435 0.06121 0.17186
v 0.0435 0.07094 0.17184
v 0.0435 0.06403 0.18384
v 0.0435 0.07202 0.18382
v 0.0435 0.06259 0.18384
v 0.0435 0.06562 0.19606
v 0.0404 0.05643 0.18384
v 0.0435 0.07294 0.19606
v 0.0435 0.0666 0.20708
v 0.0435 0.07376 0.20706
v 0.0435 0.07377 0.21925
v 0.04352 0.06511 0.20708
v 0.0435 0.06657 0.21927
v 0.0435 0.07377 0.23142
v 0.0435 0.06658 0.23144
v 0.0435 0.07377 0.24257
v 0.0435 0.06417 0.19606
v 0.04347 0.06511 0.21927
v 0.0435 0.06637 0.24259
v 0.0435 0.07377 0.25203
v 0.04343 0.06515 0.23144
v 0.04338 0.06502 0.24259
v 0.04348 0.06578 0.25187
v 0.04347 0.06532 0.26087
v 0.0435 0.07377 0.26107
v 0.04012 0.05912 0.23146
v 0.04343 0.06412 0.2683
v 0.0435 0.07509 0.2644
v 0.04334 0.06398 0.26082
v 0.0435 0.07711 0.26682
v 0.04348 0.06227 0.27726
v 0.0435 0.07983 0.26837
v 0.04336 0.06447 0.25182
v 0.04331 0.06295 0.26837
v 0.03991 0.05917 0.25168
v 0.03994 0.05921 0.24259
v 0.03991 0.05886 0.26064
v 0.03393 0.05301 0.26039
v 0.03393 0.05294 0.25155
v 0.03397 0.05283 0.24261
v 0.03964 0.05832 0.26794
v 0.03888 0.05723 0.2732
v 0.03429 0.05297 0.26792
v 0.02797 0.04833 0.26794
v 0.04336 0.06082 0.27715
v 0.03424 0.05266 0.27322
v 0.03867 0.05476 0.28027
v -0.03249 0.12285 -0.07974
v -0.02766 0.12285 -0.07808
v -0.03354 0.12285 -0.08086
v -0.02766 0.12285 -0.09911
v -0.03354 0.12285 -0.09459
v -0.033 0.12285 -0.09553
v -0.03065 0.12285 -0.11989
v -0.02355 0.12285 -0.11989
v -0.04829 0.06527 0.12122
v -0.04827 0.06341 0.12381
v -0.04827 0.06263 0.12728
v -0.04826 0.06323 0.13074
v -0.04826 0.0669 0.14601
v -0.04826 0.06981 0.15944
v -0.04826 0.07188 0.17184
v -0.04826 0.07287 0.18382
v -0.04826 0.07367 0.19606
v -0.04826 0.0744 0.20706
v -0.04826 0.0745 0.21925
v -0.04826 0.07459 0.23142
v -0.04826 0.0747 0.24257
v -0.04826 0.07486 0.25198
v -0.04826 0.07498 0.25903
v -0.04824 0.07576 0.26236
v -0.04824 0.0778 0.2648
v -0.04822 0.08093 0.26569
v -0.04609 0.10903 0.26601
v -0.04453 0.1102 0.23141
v -0.04609 0.10845 0.23142
v -0.04453 0.11039 0.24253
v -0.04609 0.10864 0.24257
v -0.04453 0.11079 0.26597
v -0.04609 0.10824 0.21925
v -0.04453 0.11001 0.21922
v -0.04609 0.10804 0.20706
v -0.04453 0.1098 0.20703
v -0.04453 0.10933 0.19601
v -0.04609 0.10758 0.19604
v -0.04453 0.10882 0.18377
v -0.04609 0.10705 0.1838
v -0.04453 0.10827 0.17179
v -0.04609 0.1065 0.17182
v -0.04453 0.10747 0.15942
v -0.04609 0.1057 0.15944
v -0.04453 0.10611 0.14596
v -0.04609 0.10432 0.14594
v -0.04453 0.10427 0.13072
v -0.04609 0.10248 0.13072
v 0.00601 0.00772 0.12718
v 0.00601 -0.00202 0.12034
v 0.00601 -0.01106 0.11672
v 0.00619 -0.01582 0.08047
v 0.00807 -0.00929 0.07982
v 0.01852 -0.00757 0.07957
v 0.02607 -0.00243 0.07909
v 0.03195 0.0051 0.0784
v 0.03602 0.01332 0.07766
v 0.03819 0.02241 0.07652
v 0.03835 0.04394 0.07466
v 0.03652 0.05267 0.07392
v 0.03652 0.09828 0.08733
v -0.03182 0.11681 -0.11996
v -0.03182 0.11681 -0.07803
v -0.0233 0.11681 -0.11996
v -0.0233 0.11681 -0.07803
v 0.0435 0.06123 0.2794
v 0.04336 0.05994 0.27852
v 0.0435 0.07723 0.28355
v 0.04247 0.05452 0.28171
v 0.04274 0.0543 0.28311
v 0.04186 0.05239 0.28208
v 0.0417 0.05186 0.28348
v 0.03782 0.04876 0.28348
v 0.02797 0.04837 0.27311
v 0.02797 0.04835 0.26015
v 0.02797 0.04798 0.25155
v 0.02797 0.04745 0.24261
v 0.03427 0.05223 0.23146
v 0.02797 0.04682 0.23146
v 0.0348 0.05168 0.21927
v 0.02797 0.04635 0.21927
v 0.0403 0.05902 0.21927
v 0.04049 0.05836 0.20708
v 0.02797 0.0455 0.20708
v 0.03514 0.05049 0.2071
v 0.04044 0.05751 0.19608
v 0.03505 0.04964 0.19608
v 0.02797 0.04435 0.19606
v 0.035 0.0486 0.18384
v 0.04281 0.07367 0.19606
v 0.04281 0.0744 0.20706
v 0.04281 0.07287 0.18382
v 0.04281 0.0745 0.21925
v 0.04281 0.07188 0.17184
v 0.04281 0.07459 0.23142
v 0.04281 0.06981 0.15944
v 0.04281 0.0747 0.24257
v 0.04281 0.0669 0.14601
v 0.04281 0.07486 0.25198
v 0.04281 0.06323 0.13074
v 0.04281 0.07498 0.25903
v 0.04283 0.06263 0.12728
v 0.04279 0.07576 0.26236
v 0.04285 0.06341 0.12381
v 0.04279 0.0778 0.2648
v 0.04285 0.06527 0.12122
v 0.04277 0.08093 0.26569
v 0.04065 0.10903 0.26601
v 0.03911 0.10611 0.14596
v 0.04065 0.10432 0.14594
v 0.03911 0.10427 0.13072
v 0.04065 0.10248 0.13072
v 0.04065 0.1057 0.15944
v 0.03911 0.10747 0.15942
v 0.04065 0.1065 0.17182
v 0.03911 0.10827 0.17179
v 0.04065 0.10705 0.1838
v 0.03911 0.10882 0.18377
v 0.04065 0.10758 0.19604
v 0.03911 0.10933 0.19601
v 0.04065 0.10804 0.20706
v 0.03911 0.1098 0.20703
v 0.03911 0.11001 0.21922
v 0.04065 0.10824 0.21925
v 0.03911 0.1102 0.23141
v 0.04065 0.10845 0.23142
v 0.03911 0.11039 0.24253
v 0.04065 0.10864 0.24257
v 0.03911 0.11079 0.26597
v -0.02766 0.1171 -0.07808
v -0.03249 0.1171 -0.07974
v -0.03354 0.1171 -0.08086
v -0.03354 0.1171 -0.09277
v -0.03065 0.11871 -0.12108
v -0.03065 0.1171 -0.11989
v -0.03065 0.12124 -0.12108
v -0.033 0.1171 -0.09643
v -0.033 0.11945 -0.09507
v -0.03182 0.10269 -0.12485
v -0.03182 0.1408 -0.12492
v -0.03182 0.1408 -0.19902
v -0.03182 0.09691 -0.19902
v -0.03182 0.09691 -0.12926
v -0.03182 0.12134 -0.12126
v -0.03182 0.11854 -0.12124
v -0.03182 0.12308 -0.11996
v -0.03182 0.1408 -0.07803
v -0.03182 0.12308 -0.07803
v -0.03182 0.10271 -0.10458
v -0.03182 0.11073 -0.10458
v -0.03182 0.11073 -0.07803
v -0.04432 0.05723 0.2732
v -0.03968 0.05266 0.27322
v -0.04509 0.05832 0.26794
v -0.04535 0.05886 0.26064
v -0.03938 0.05301 0.26039
v -0.03973 0.05297 0.26792
v -0.03341 0.04833 0.26794
v -0.03938 0.05294 0.25155
v -0.03341 0.04835 0.26015
v -0.0394 0.05283 0.24261
v -0.03341 0.04798 0.25155
v -0.0397 0.05223 0.23146
v -0.03341 0.04745 0.24261
v -0.02324 0.04388 0.24262
v -0.02324 0.04442 0.25157
v -0.01146 0.04298 0.24262
v -0.01146 0.0433 0.25157
v -0.01146 0.04371 0.26015
v -0.02324 0.04497 0.26015
v -0.02324 0.04543 0.26794
v -0.01146 0.04396 0.26796
v -0.02324 0.04555 0.27319
v -0.01146 0.04419 0.27313
v -0.03341 0.04837 0.27311
v -0.02324 0.04539 0.28006
v -0.01146 0.04443 0.28025
v -0.03973 0.05159 0.28018
v -0.03341 0.04808 0.28025
v -0.02324 0.04388 0.28211
v -0.01146 0.04362 0.28211
v -0.03615 0.04555 0.28211
v -0.02324 0.04369 0.28348
v -0.01146 0.04348 0.28348
v -0.03615 0.0455 0.28348
v -0.04326 0.04876 0.28348
v -0.04326 0.04895 0.28211
v 0.03652 0.10747 0.15942
v 0.03652 0.10827 0.17179
v 0.03652 0.10882 0.18377
v 0.03652 0.10933 0.19601
v 0.03652 0.1098 0.20703
v 0.03652 0.11001 0.21922
v 0.03652 0.1102 0.23141
v 0.03652 0.11039 0.24253
v 0.03652 0.11082 0.26835
v 0.03652 0.11112 0.28631
v -0.04197 0.10747 0.15942
v -0.04197 0.10827 0.17179
v -0.04197 0.10882 0.18377
v -0.04197 0.10933 0.19601
v -0.04197 0.1098 0.20703
v -0.04197 0.11001 0.21922
v -0.04197 0.1102 0.23141
v -0.04197 0.11039 0.24253
v -0.04197 0.11082 0.26835
v -0.04197 0.11112 0.28631
v -0.0233 0.1408 -0.07803
v -0.0233 0.12308 -0.07803
v -0.0233 0.11073 -0.07803
v -0.0233 0.12308 -0.11996
v -0.0233 0.12134 -0.12126
v -0.0233 0.11854 -0.12124
v -0.02355 0.1171 -0.11989
v -0.02355 0.11871 -0.12108
v -0.02355 0.12124 -0.12108
v -0.01351 -0.00835 0.08081
v -0.01351 0.01898 0.10577
v 0.03652 0.10427 0.13072
v 0.03652 0.10226 0.1079
v -0.04197 0.10226 0.1079
v -0.04197 0.10427 0.13072
v 0.03652 0.10058 0.08907
v -0.04197 0.10058 0.08907
v 0.00807 -0.00835 0.08081
v 0.00807 0.01898 0.10577
v 0.03652 0.10611 0.14596
v -0.04197 0.10611 0.14596
v -0.0233 0.11073 -0.10458
v -0.0233 0.10271 -0.10458
v 0.00761 0.04837 0.11555
v 0.00754 0.04388 0.07516
v -0.01298 0.04388 0.07516
v -0.01305 0.04837 0.11555
v 0.03498 0.1065 0.17182
v 0.03498 0.1057 0.15944
v 0.03498 0.10705 0.1838
v 0.03498 0.10432 0.14594
v 0.03498 0.10758 0.19604
v 0.03498 0.10248 0.13072
v 0.03498 0.10804 0.20706
v 0.03498 0.10047 0.1079
v 0.03498 0.09879 0.0891
v 0.03498 0.10824 0.21925
v 0.03498 0.10845 0.23142
v 0.03498 0.10864 0.24257
v 0.03498 0.10907 0.26837
v 0.03498 0.10935 0.28635
v -0.04043 0.10824 0.21925
v -0.04043 0.10845 0.23142
v -0.04043 0.10864 0.24257
v -0.04043 0.10804 0.20706
v -0.04043 0.10758 0.19604
v -0.04043 0.10907 0.26837
v -0.04043 0.10705 0.1838
v -0.04043 0.10935 0.28635
v -0.04043 0.1065 0.17182
v -0.04043 0.1057 0.15944
v -0.04043 0.10432 0.14594
v -0.04043 0.10248 0.13072
v -0.04043 0.10047 0.1079
v -0.04043 0.09879 0.0891
v -0.0233 0.09691 -0.12926
v -0.0233 0.09691 -0.19902
v -0.02766 0.1171 -0.09911
v -0.0233 0.10269 -0.12485
v 0.03498 0.05253 0.13076
v 0.03498 0.05444 0.14597
v 0.03498 0.05606 0.15946
v 0.03498 0.05102 0.11555
v 0.03498 0.0526 0.07613
v 0.03498 0.04629 0.0767
v 0.03498 0.0574 0.17184
v 0.03498 0.06012 0.19565
v 0.03498 0.06288 0.21972
v 0.03498 0.0655 0.24255
v -0.04043 0.05253 0.13076
v -0.04043 0.05444 0.14597
v -0.04043 0.05606 0.15946
v -0.04043 0.05102 0.11555
v -0.04043 0.0526 0.07613
v -0.04043 0.04629 0.0767
v -0.04043 0.0574 0.17184
v -0.04043 0.06012 0.19565
v -0.04043 0.06288 0.21972
v -0.04043 0.0655 0.24255
v 0.01129 0.04629 0.0767
v 0.00876 0.05102 0.11555
v -0.03575 0.04629 0.0767
v -0.03043 0.04629 0.0767
v -0.0142 0.05102 0.11555
v -0.02244 0.04629 0.0767
v -0.01674 0.04629 0.0767
v -0.01082 0.05253 0.13076
v -0.00272 0.05102 0.11555
v -0.00272 0.05253 0.13076
v -0.01082 0.05444 0.14601
v -0.00272 0.05444 0.14601
v -0.01082 0.05606 0.15944
v -0.00272 0.05606 0.15944
v -0.01082 0.0574 0.17184
v -0.00272 0.0574 0.17184
v -0.00272 0.06026 0.19688
v -0.01082 0.06026 0.19686
v -0.00272 0.06288 0.21972
v -0.01082 0.06288 0.21972
v 0.00538 0.0574 0.17184
v 0.00538 0.05606 0.15944
v 0.00538 0.05444 0.14601
v 0.00538 0.05253 0.13076
v 0.00538 0.06026 0.19686
v 0.02499 0.04629 0.0767
v 0.0303 0.04629 0.0767
v 0.017 0.04629 0.0767
v 0.00538 0.06288 0.21972
v 0.03742 0.04406 0.07514
v -0.04287 0.04406 0.07514
v 0.017 0.04392 0.07514
v 0.02499 0.04396 0.07514
v 0.03036 0.04401 0.07514
v -0.02244 0.04392 0.07514
v -0.03043 0.04396 0.07514
v -0.0358 0.04401 0.07514
v -0.03148 -0.00133 0.08007
v -0.02393 -0.00652 0.08054
v -0.03681 0.00562 0.07932
v -0.04087 0.01391 0.07859
v -0.04282 0.02275 0.07764
v 0.01848 -0.00652 0.08054
v 0.02604 -0.00133 0.08007
v 0.03137 0.00562 0.07932
v 0.03543 0.01391 0.07859
v 0.03737 0.02275 0.07764
v -0.00272 0.01789 0.10577
v -0.00272 0.04835 0.11555
vt 0.423322 0.546373
vt 0.437483 0.545396
vt 0.42674 0.552721
vt 0.389141 0.552232
vt 0.389141 0.546373
vt 0.438459 0.552721
vt 0.441877 0.545396
vt 0.439924 0.572741
vt 0.428205 0.584948
vt 0.435286 0.58446
vt 0.441877 0.594226
vt 0.436018 0.594226
vt 0.441145 0.572253
vt 0.442854 0.593738
vt 0.439436 0.552721
vt 0.443342 0.546373
vt 0.44554 0.550279
vt 0.448714 0.557604
vt 0.451399 0.571276
vt 0.452864 0.583972
vt 0.453352 0.593249
vt -0.718741 -0.410138
vt -0.718741 -0.405255
vt -0.71044 -0.410382
vt -0.71044 -0.405255
vt 0.390851 0.543931
vt 0.423566 0.543931
vt 0.437483 0.543443
vt 0.442366 0.543443
vt 0.444563 0.544908
vt 0.447493 0.549791
vt 0.451155 0.557115
vt 0.453841 0.571276
vt 0.455306 0.583972
vt 0.456038 0.593249
vt -0.920896 0.488266
vt -0.921384 0.488266
vt -0.920896 0.483139
vt -0.921384 0.483139
vt 0.42552 0.554674
vt 0.390851 0.554674
vt 0.427961 0.586413
vt 0.434065 0.586413
vt 0.248024 0.421857
vt 0.25193 0.424543
vt 0.248268 0.42552
vt 0.252419 0.42671
vt 0.42674 0.585437
vt -0.921384 0.488754
vt 0.434065 0.594714
vt 0.16184 0.506333
vt 0.177343 0.508774
vt 0.161473 0.519517
vt 0.145604 0.517563
vt 0.14597 0.505356
vt 0.131443 0.516098
vt 0.131809 0.503891
vt 0.115818 0.515122
vt 0.116245 0.502914
vt 0.130345 0.531236
vt 0.115024 0.530259
vt 0.144261 0.532701
vt 0.113926 0.547349
vt 0.099826 0.529283
vt 0.100436 0.514145
vt 0.12888 0.548326
vt 0.113254 0.559557
vt 0.127781 0.560533
vt 0.099033 0.546373
vt 0.098422 0.559069
vt 0.142308 0.549303
vt 0.140965 0.561998
vt 0.159764 0.535142
vt 0.157445 0.551744
vt 0.155492 0.563952
vt 0.176977 0.521958
vt 0.175268 0.538072
vt 0.172338 0.554674
vt 0.169774 0.566881
vt 0.193823 0.511704
vt 0.193823 0.500473
vt 0.193701 0.525376
vt 0.19187 0.54149
vt 0.18894 0.559069
vt 0.185766 0.571276
vt 0.211158 0.504868
vt 0.210913 0.495346
vt 0.210913 0.516587
vt 0.204321 0.563952
vt 0.200537 0.576159
vt 0.208472 0.546373
vt 0.210669 0.530747
vt 0.221168 0.571276
vt 0.216651 0.582995
vt 0.22544 0.552721
vt 0.227271 0.537095
vt 0.232765 0.576647
vt 0.228004 0.588855
vt 0.237403 0.55858
vt 0.239113 0.542955
vt 0.227393 0.522446
vt 0.238014 0.528306
vt 0.227882 0.509751
vt 0.227638 0.499985
vt 0.237892 0.514634
vt 0.237281 0.504379
vt 0.237892 0.501938
vt 0.228126 0.497513
vt 0.251442 0.499496
vt 0.22898 0.4785
vt 0.247414 0.509262
vt 0.246071 0.510727
vt 0.248024 0.521958
vt 0.253883 0.519028
vt 0.249367 0.534654
vt 0.252419 0.520005
vt 0.255348 0.525864
vt 0.256813 0.524888
vt 0.256813 0.529771
vt 0.251442 0.550768
vt 0.250465 0.565416
vt 0.259743 0.543443
vt 0.260964 0.557115
vt 0.260475 0.571276
vt 0.258278 0.529771
vt 0.260964 0.543443
vt 0.262185 0.558092
vt 0.26194 0.572253
vt 0.304178 0.531236
vt 0.305155 0.545396
vt 0.305155 0.560533
vt 0.303934 0.575182
vt 0.259743 0.59032
vt 0.301737 0.594226
vt 0.306619 0.574694
vt 0.30784 0.560533
vt 0.30784 0.544908
vt 0.307352 0.531724
vt 0.306131 0.519028
vt 0.302713 0.519028
vt 0.301737 0.509262
vt 0.305155 0.508774
vt 0.301004 0.499252
vt 0.304666 0.499252
vt 0.252663 0.509262
vt 0.302469 0.479476
vt 0.299539 0.478744
vt 0.278542 0.424787
vt 0.275369 0.424787
vt 0.276833 0.421857
vt 0.249245 0.481643
vt 0.234352 0.478256
vt 0.239357 0.476302
vt 0.243141 0.473342
vt 0.085971 0.529283
vt 0.08536 0.545885
vt 0.085055 0.55858
vt 0.07474 0.528794
vt 0.074313 0.545885
vt 0.074252 0.55858
vt 0.063814 0.545885
vt 0.063936 0.528794
vt 0.063814 0.55858
vt 0.05417 0.528794
vt 0.054262 0.545885
vt 0.054445 0.55858
vt 0.047548 0.528794
vt 0.047853 0.546373
vt 0.04825 0.55858
vt 0.03885 0.529283
vt 0.038942 0.546373
vt 0.039552 0.559069
vt 0.035554 0.530259
vt 0.03647 0.546861
vt 0.037263 0.559557
vt 0.034761 0.547349
vt 0.035554 0.559557
vt 0.01529 0.548326
vt 0.016175 0.561022
vt 0.033753 0.530259
vt 0.014191 0.531724
vt 0.034059 0.511704
vt 0.03885 0.514145
vt 0.032441 0.511704
vt 0.012879 0.51268
vt 0.033143 0.50145
vt 0.038942 0.503891
vt 0.246193 0.583972
vt 0.241676 0.595691
vt 0.257546 0.589343
vt 0.253883 0.60155
vt 0.257546 0.602527
vt 0.30076 0.606433
vt 0.304178 0.606433
vt 0.304666 0.593249
vt 0.312235 0.605457
vt 0.312723 0.589831
vt 0.312479 0.573229
vt 0.313456 0.55858
vt 0.313456 0.543931
vt 0.312723 0.530259
vt 0.311258 0.517075
vt 0.309061 0.489212
vt 0.309549 0.477035
vt 0.285623 0.421613
vt 0.052644 0.425764
vt 0.030457 0.424543
vt 0.05295 0.423566
vt 0.030671 0.421613
vt 0.014588 0.424055
vt 0.012482 0.420637
vt 0.041963 0.486068
vt 0.038667 0.496323
vt 0.039949 0.486801
vt 0.034547 0.49266
vt 0.038667 0.484848
vt 0.033265 0.494613
vt 0.032868 0.492416
vt 0.013581 0.485794
vt 0.012879 0.491684
vt 0.03177 0.495346
vt 0.012391 0.494858
vt 0.012268 0.50145
vt 0.033845 0.465072
vt 0.014283 0.467513
vt 0.053163 0.462111
vt 0.041749 0.484115
vt 0.055269 0.465773
vt 0.053468 0.482406
vt 0.058443 0.46849
vt 0.053346 0.484115
vt 0.062838 0.470443
vt 0.06296 0.481155
vt 0.074313 0.470687
vt 0.063021 0.483139
vt 0.074435 0.480941
vt 0.086337 0.480453
vt 0.086337 0.470931
vt 0.100558 0.480209
vt 0.086337 0.482162
vt 0.100558 0.471175
vt 0.074557 0.48265
vt 0.10062 0.482162
vt 0.07474 0.490951
vt 0.086459 0.490951
vt 0.10062 0.490951
vt 0.116123 0.482162
vt 0.116062 0.480453
vt 0.11594 0.471175
vt 0.131687 0.482162
vt 0.131565 0.480209
vt 0.131321 0.471175
vt 0.14536 0.472152
vt 0.145726 0.481155
vt 0.160863 0.47264
vt 0.116245 0.490951
vt 0.145848 0.483139
vt 0.161351 0.482894
vt 0.175878 0.473128
vt 0.131809 0.491684
vt 0.161473 0.484848
vt 0.176855 0.485549
vt 0.19187 0.474349
vt 0.14597 0.49266
vt 0.193213 0.488968
vt 0.20896 0.476302
vt 0.176855 0.487533
vt 0.161718 0.493881
vt 0.210913 0.493118
vt 0.193335 0.490951
vt 0.177465 0.497024
vt 0.063326 0.49144
vt 0.063753 0.502914
vt 0.074923 0.502426
vt 0.086337 0.502426
vt 0.05417 0.492172
vt 0.047548 0.493881
vt 0.054262 0.502426
vt 0.054262 0.513657
vt 0.04767 0.502914
vt 0.131565 0.700186
vt 0.129856 0.707022
vt 0.132786 0.698721
vt 0.154637 0.706046
vt 0.148656 0.698721
vt 0.149876 0.698721
vt 0.178564 0.698721
vt 0.179662 0.708487
vt 0.240699 0.472152
vt 0.23777 0.475082
vt 0.233375 0.476547
vt 0.228858 0.476547
vt 0.20896 0.474349
vt 0.191748 0.47264
vt 0.175878 0.471419
vt 0.160741 0.471175
vt 0.145238 0.470687
vt 0.131199 0.469924
vt 0.115818 0.469924
vt 0.100436 0.46968
vt 0.086337 0.469436
vt 0.074435 0.468978
vt 0.065462 0.468734
vt 0.061068 0.467513
vt 0.057863 0.464827
vt 0.056459 0.460677
vt 0.056948 0.424543
vt 0.099948 0.423811
vt 0.099948 0.426954
vt 0.086215 0.423292
vt 0.086215 0.426252
vt 0.05707 0.420881
vt 0.114841 0.427473
vt 0.114841 0.424055
vt 0.129734 0.427473
vt 0.129734 0.424299
vt 0.14304 0.424787
vt 0.143162 0.427961
vt 0.157933 0.424787
vt 0.158055 0.427961
vt 0.17246 0.424543
vt 0.172582 0.427717
vt 0.187475 0.424299
vt 0.187597 0.427473
vt 0.203955 0.424055
vt 0.204199 0.427473
vt 0.222755 0.424299
vt 0.222999 0.427473
vt -0.147435 0.78515
vt -0.098544 0.785638
vt -0.147313 0.773919
vt -0.098422 0.773919
vt 0.03177 0.50145
vt 0.047761 0.513657
vt 0.064119 0.513169
vt 0.074923 0.513169
vt 0.086337 0.513657
vt 0.10062 0.502914
vt 0.275369 0.421613
vt 0.124119 0.691885
vt 0.124119 0.698721
vt 0.130955 0.691885
vt 0.130955 0.698721
vt 0.132786 0.691885
vt 0.146702 0.692373
vt 0.179907 0.693838
vt 0.178564 0.692373
vt 0.179907 0.696768
vt 0.150853 0.691885
vt 0.149388 0.694815
vt 0.458968 0.621082
vt 0.458968 0.663076
vt 0.539537 0.663076
vt 0.539537 0.614734
vt 0.463851 0.614734
vt 0.455061 0.641591
vt 0.455061 0.638661
vt 0.453597 0.643544
vt 0.407697 0.663076
vt 0.407697 0.643544
vt 0.453597 0.636708
vt 0.43675 0.621082
vt 0.43675 0.629871
vt 0.407697 0.636708
vt 0.407697 0.629871
vt 0.187475 0.420637
vt 0.17246 0.420881
vt 0.157933 0.421125
vt 0.143162 0.421125
vt 0.129734 0.420637
vt 0.114963 0.420392
vt 0.10007 0.420148
vt 0.086459 0.419385
vt 0.054353 0.416242
vt 0.031343 0.413556
vt 0.01297 0.412824
vt 0.396954 0.663076
vt 0.396954 0.643544
vt 0.401105 0.629871
vt 0.401105 0.619129
vt 0.407697 0.619129
vt -0.098422 0.767083
vt -0.147313 0.766594
vt -0.148778 0.769036
vt -0.148778 0.771966
vt 0.180761 0.692373
vt 0.179662 0.682607
vt 0.181982 0.682607
vt 0.183813 0.692862
vt 0.184912 0.683096
vt 0.187231 0.683584
vt 0.186132 0.692862
vt 0.381329 0.480941
vt 0.379864 0.480209
vt 0.380352 0.439192
vt -0.149876 0.78515
vt -0.149754 0.773919
vt 0.222633 0.420637
vt 0.250465 0.417219
vt 0.274392 0.4138
vt 0.203955 0.420392
vt 0.427961 0.62157
vt 0.427961 0.610828
vt 0.43675 0.61034
vt -0.725089 -0.462111
vt -0.723624 -0.41084
vt -0.71923 -0.461623
vt 0.317606 0.433576
vt 0.318339 0.480941
vt -0.88525 0.533677
vt -0.878414 0.533677
vt -0.88525 0.532212
vt -0.878414 0.532212
vt -0.891598 0.531724
vt -0.871578 0.533677
vt -0.891598 0.533189
vt -0.87109 0.532212
vt -0.898434 0.531724
vt -0.863277 0.533677
vt -0.898434 0.532701
vt -0.863277 0.532212
vt -0.904294 0.531236
vt -0.850581 0.533677
vt -0.904294 0.532701
vt -0.850581 0.532701
vt -0.840327 0.534165
vt -0.840327 0.532701
vt -0.910642 0.530747
vt -0.910642 0.532212
vt -0.917478 0.530259
vt -0.917478 0.531236
vt -0.923338 0.529771
vt -0.923338 0.530747
vt -0.937498 0.529771
vt -0.93701 0.528306
vt -0.946776 0.528794
vt -0.946776 0.527818
vt -0.953612 0.526841
vt -0.954588 0.528306
vt -0.149754 0.755364
vt -0.15244 0.755364
vt -0.149754 0.766594
vt -0.152806 0.766594
vt 0.463851 0.60448
vt 0.539537 0.60448
vt 0.073214 0.693838
vt 0.073214 0.696768
vt 0.074618 0.691885
vt 0.099521 0.698721
vt 0.074618 0.698721
vt 0.099521 0.691885
vt 0.454573 0.612781
vt -0.952147 0.489456
vt -0.952147 0.488754
vt -0.860347 0.505356
vt -0.868648 0.505844
vt -0.875973 0.505844
vt -0.852046 0.505356
vt -0.83105 0.508774
vt -0.830561 0.505356
vt -0.882321 0.505844
vt -0.895505 0.506333
vt -0.908689 0.506333
vt -0.920896 0.506333
vt -0.951659 0.507309
vt 0.455306 0.608386
vt 0.43675 0.619129
vt 0.131565 0.69042
vt 0.129856 0.684072
vt 0.154637 0.685049
vt -0.147313 0.755364
vt -0.829585 0.488021
vt -0.851558 0.488266
vt -0.83105 0.490463
vt -0.852046 0.489212
vt -0.83105 0.501938
vt -0.83105 0.498764
vt -0.83105 0.493881
vt -0.860347 0.487289
vt -0.852535 0.482162
vt -0.860836 0.482406
vt -0.868648 0.487533
vt -0.868648 0.482406
vt -0.875973 0.487777
vt -0.875973 0.48265
vt -0.882809 0.487777
vt -0.882809 0.48265
vt -0.896481 0.482894
vt -0.896481 0.487777
vt -0.908689 0.483139
vt -0.908689 0.488021
vt -0.710929 -0.461623
vt -0.098422 0.755364
vt -0.839351 0.532701
vt 0.283914 0.418439
vt -0.829585 0.509262
vt -0.82812 0.505356
vt -0.829585 0.493881
vt -0.829585 0.498764
vt -0.829585 0.501938
vt 0.372051 0.504379
vt 0.377911 0.494369
vt 0.37376 0.504868
vt 0.37962 0.494613
vt 0.364971 0.513169
vt 0.364238 0.511704
vt 0.355449 0.51854
vt 0.354472 0.517563
vt 0.344707 0.521958
vt 0.344218 0.520493
vt 0.319315 0.522446
vt 0.319315 0.52147
vt -0.827631 0.505356
vt 0.318583 0.493881
vt 0.318827 0.504379
vt 0.319071 0.511704
vt 0.394757 0.438673
vt 0.395734 0.480697
vt 0.318827 0.41966
vt 0.38255 0.424787
vt -0.85107 0.482162
vn -0.0151 0.0171 0.9997
vn 0 -0.001 1
vn -0.0159 -0.001 0.9999
vn -0.7811 -0.0014 0.6244
vn -0.8179 -0.0014 0.5753
vn -0.8811 0.0013 0.473
vn -0.895 -0.0013 0.4462
vn -0.8676 -0.1946 0.4576
vn -0.8572 -0.2218 0.4648
vn -0.6313 -0.5756 0.5199
vn -0.6047 -0.603 0.5203
vn -0.4039 -0.6969 0.5926
vn -0.4047 -0.6718 0.6204
vn -0.2571 -0.6713 0.6951
vn -0.229 -0.6636 0.7122
vn -0.0936 -0.6423 0.7608
vn -0.0224 -0.6359 0.7715
vn 0 -0.6491 0.7607
vn 0.0693 -0.6569 0.7508
vn 0.2016 -0.6809 0.7041
vn 0.2292 -0.6891 0.6875
vn 0.3753 -0.693 0.6156
vn 0.3743 -0.7173 0.5877
vn 0.5773 -0.6296 0.5199
vn 0.6047 -0.603 0.5203
vn 0.8456 -0.2497 0.4718
vn 0.8572 -0.2218 0.4648
vn 0.876 0.0229 0.4818
vn 0.8896 0.0227 0.4562
vn 0.8102 0.0208 0.5858
vn 0.772 0.0209 0.6352
vn -0.0014 0.7395 0.6732
vn -0.8852 0.0201 0.4647
vn -0.6014 0.4936 0.6283
vn 0.5757 0.5216 0.6297
vn -0.0013 0.9063 0.4226
vn 0.8811 0.0013 0.473
vn -0.6543 0.5736 0.4928
vn 0.6283 0.6014 0.4936
vn -0.0013 0.9175 0.3976
vn -0.0223 0.914 0.4052
vn -0.7499 -0.6502 0.122
vn -0.7456 -0.6432 0.1742
vn -0.5055 -0.846 0.1695
vn -0.4617 -0.8793 0.1169
vn -0.7289 -0.6811 0.0694
vn -0.4527 -0.8872 0.0894
vn -0.471 -0.8796 0.0665
vn -0.2025 -0.9739 0.1025
vn -0.1951 -0.9791 0.0578
vn -0.2096 -0.9666 0.1475
vn -0.0928 -0.993 0.0725
vn -0.2137 -0.9761 0.0384
vn -0.4918 -0.8696 0.044
vn -0.0962 -0.9887 0.1149
vn 0 -0.9978 0.0666
vn 0 -0.9944 0.1054
vn -0.0688 -0.997 0.0344
vn 0 -0.9995 0.0323
vn -0.1009 -0.9785 0.1797
vn 0 -0.9828 0.1849
vn -0.2458 -0.9432 0.2237
vn -0.1285 -0.9585 0.2544
vn 0 -0.9675 0.2529
vn -0.5532 -0.8019 0.2256
vn -0.2805 -0.918 0.2805
vn -0.1342 -0.9329 0.3342
vn 0 -0.938 0.3466
vn -0.7359 -0.6373 0.2286
vn -0.8342 -0.5153 0.1965
vn -0.575 -0.7565 0.3116
vn -0.3286 -0.8541 0.403
vn -0.1647 -0.8915 0.4219
vn 0 -0.9073 0.4205
vn -0.8453 -0.4732 0.2481
vn -0.9788 -0.1783 0.1008
vn -0.7323 -0.6049 0.3129
vn -0.1697 -0.8439 0.509
vn 0 -0.8664 0.4993
vn -0.3383 -0.8026 0.4914
vn -0.5926 -0.6969 0.4039
vn -0.1476 -0.7577 0.6357
vn 0 -0.7817 0.6237
vn -0.3128 -0.7337 0.6031
vn -0.5738 -0.6329 0.5198
vn -0.1216 -0.6246 0.7714
vn -0.2839 -0.598 0.7495
vn -0.5187 -0.5473 0.6568
vn -0.7224 -0.5624 0.4024
vn -0.7035 -0.4618 0.5402
vn -0.8084 0.5311 0.2539
vn 0.7884 0.5596 0.2555
vn 0.4776 -0.8624 0.168
vn 0.1859 -0.9718 0.1452
vn 0.2202 -0.9503 0.2202
vn 0.5214 -0.8234 0.2239
vn 0.7196 -0.6721 0.1745
vn 0.7122 -0.6636 0.229
vn 0.2535 -0.9271 0.2763
vn 0.5428 -0.7807 0.3097
vn 0.7083 -0.6323 0.3137
vn 0.2962 -0.8687 0.397
vn 0.5606 -0.7238 0.4023
vn 0.1392 -0.8992 0.4148
vn 0.1104 -0.9381 0.3284
vn 0.3052 -0.8197 0.4846
vn 0.1433 -0.8557 0.4973
vn 0.2838 -0.7509 0.5963
vn 0.1217 -0.7701 0.6262
vn 0.5455 -0.6584 0.5186
vn 0.6984 -0.5909 0.4038
vn 0.491 -0.5734 0.6558
vn 0.2561 -0.6182 0.7431
vn 0.6808 -0.4913 0.5433
vn 0.8186 -0.4864 0.3054
vn 0.8279 -0.502 0.2502
vn 0.9709 -0.2046 0.1245
vn 0.8079 -0.4408 0.3911
vn 0.9427 -0.2474 0.2239
vn 0.9961 -0.0711 0.0525
vn 0.9997 -0.0172 0.0162
vn 0.9999 0.0149 0.001
vn 0.9999 -0.001 0.0159
vn 0.9741 -0.1012 0.2023
vn 0.8766 -0.2447 0.4143
vn 0.6837 -0.3159 0.6578
vn 0.9456 -0.1531 0.2872
vn 0.5319 -0.4022 0.7452
vn 0.7533 -0.1991 0.6268
vn 0.6702 -0.2589 0.6956
vn 0.9168 -0.2559 0.3066
vn 0.631 -0.3155 0.7087
vn 0.3614 -0.4359 0.8242
vn 0.1931 -0.4589 0.8673
vn 0.5609 -0.4042 0.7225
vn 0.4249 -0.4789 0.7682
vn 0.224 -0.5231 0.8223
vn 0.8527 -0.4279 0.2997
vn 0.7551 -0.5768 0.3117
vn 0.5926 -0.6969 0.4039
vn 0.3354 -0.8211 0.4619
vn 0.8696 -0.372 -0.3246
vn 0.7682 -0.5872 -0.255
vn 0.6086 -0.76 -0.2279
vn 0.3516 -0.9122 -0.2104
vn 0.1421 -0.8713 0.4697
vn 0.1475 -0.9666 -0.2096
vn 0.1709 -0.5351 -0.8273
vn 0.3054 -0.4864 -0.8186
vn 0.3784 -0.352 -0.8561
vn 0.3973 -0.298 -0.868
vn 0.4215 -0.1631 -0.892
vn 0.9205 -0.1827 -0.3455
vn 0.976 -0.0397 -0.214
vn 0.4072 -0.1129 -0.9063
vn 0.9999 -0.0169 0
vn 0.9997 0.0151 0.0171
vn 0.3677 0.0624 -0.9279
vn 0.9999 -0.001 -0.0159
vn 0.4575 0.3045 -0.8354
vn 0.6354 0.3447 -0.691
vn 0.5736 0.4928 -0.6543
vn 0.1057 -0.9625 0.25
vn 0.0772 -0.9813 0.1762
vn 0.0737 -0.9909 0.1128
vn 0.1797 -0.9785 0.1009
vn 0.0711 -0.9949 0.0711
vn 0.1732 -0.9832 0.0569
vn 0.1917 -0.9807 0.0379
vn 0.0508 -0.9981 0.0339
vn 0.1951 -0.9791 0.0578
vn 0.0516 -0.9973 0.0516
vn 0 -0.9988 0.0492
vn 0.1883 -0.9819 0.0186
vn 0.1342 -0.9329 -0.3342
vn 0.0384 -0.9761 -0.2137
vn 0 -0.9864 -0.1642
vn 0.0637 -0.9282 -0.3665
vn 0 -0.9612 -0.2757
vn 0 -0.9737 -0.2279
vn 0 -0.9988 -0.0492
vn 0.0161 -0.9997 0.0161
vn 0 -1 0
vn 0.0688 -0.997 -0.0344
vn 0.0898 -0.9953 0.035
vn 0.2501 -0.829 -0.5002
vn 0.2763 -0.8337 -0.4782
vn 0.2757 -0.9612 0
vn 0.2914 -0.9546 0.0613
vn 0.4302 -0.7263 -0.5361
vn 0.4321 -0.7029 -0.565
vn -0.8363 -0.4572 0.3027
vn -0.8253 -0.4111 0.3872
vn -0.9757 -0.1814 0.1226
vn -0.9999 -0.001 0.0159
vn -0.9498 -0.2218 0.2205
vn -0.9973 -0.0528 0.0517
vn -1 -0.001 0
vn -0.9998 -0.0151 -0.0161
vn -0.9768 -0.0798 0.1988
vn -0.8868 -0.2173 0.4079
vn -0.7025 -0.2871 0.6512
vn -0.9506 -0.1291 0.2823
vn -0.5558 -0.3744 0.7422
vn -0.7671 -0.172 0.618
vn -0.688 -0.2309 0.688
vn -0.9254 -0.2292 0.3018
vn -0.6512 -0.2871 0.7025
vn -0.3872 -0.4111 0.8253
vn -0.5873 -0.3724 0.7186
vn -0.8678 -0.3988 0.2964
vn -0.2181 -0.4376 0.8723
vn -0.4514 -0.4531 0.7687
vn -0.7794 -0.5446 0.3098
vn -0.8829 -0.3432 -0.3205
vn -0.0895 -0.4543 0.8863
vn 0 -0.4472 0.8944
vn -0.2502 -0.502 0.8279
vn -0.0912 -0.5113 0.8546
vn 0 -0.523 0.8523
vn -0.168 -0.8624 0.4776
vn 0 -0.8805 0.474
vn 0 -0.9785 -0.2061
vn -0.6204 -0.6718 0.4047
vn -0.365 -0.8052 0.4674
vn -0.7893 -0.5591 -0.2537
vn -0.6356 -0.7374 -0.2286
vn -0.3794 -0.9004 -0.2131
vn -0.1711 -0.9619 -0.2132
vn 0 -0.523 -0.8523
vn -0.0918 -0.538 -0.8379
vn 0 -0.1042 -0.9946
vn 0.0385 0.169 -0.9849
vn -0.1965 -0.5153 -0.8342
vn 0.1272 0.2557 -0.9584
vn -0.3352 -0.4601 -0.8222
vn 0.2472 0.2223 -0.9431
vn -0.4027 -0.3268 -0.855
vn 0.333 0.1357 -0.9331
vn -0.4205 -0.2727 -0.8653
vn -0.4417 -0.1391 -0.8863
vn 0.3477 -0.0869 -0.9336
vn -0.9273 -0.1573 -0.3397
vn -0.9643 -0.0383 -0.2621
vn -0.4265 -0.09 -0.9
vn 0.2823 -0.1291 -0.9506
vn -0.3863 0.0409 -0.9215
vn 0.0356 -0.1078 -0.9935
vn -0.9993 -0.0154 -0.0328
vn -0.4804 0.2783 -0.8317
vn -0.0012 0.2746 -0.9616
vn -0.6562 0.3159 -0.6853
vn -0.5988 0.4646 -0.6524
vn -0.7734 0.6335 -0.0238
vn -0.9122 -0.3859 -0.1375
vn -0.5199 -0.5756 -0.6313
vn -0.8817 -0.3699 -0.2929
vn -0.7891 -0.3929 -0.4722
vn -0.9975 -0.0688 -0.0169
vn -0.6812 -0.5185 -0.5168
vn -0.9645 -0.2609 -0.0396
vn -0.9994 -0.0333 0
vn -0.9679 -0.2515 0
vn -0.7616 -0.6465 -0.0455
vn -0.7819 -0.6218 0.0453
vn -0.5271 -0.8471 0.0677
vn -0.9993 -0.0339 -0.0164
vn -0.9987 -0.0502 0
vn -0.9315 -0.3614 -0.0417
vn -0.9997 0.0171 0.0151
vn -0.9437 -0.3302 -0.0202
vn -0.9547 -0.2974 0
vn -0.9471 -0.3211 0
vn -0.9664 -0.2562 0.0194
vn -0.7805 -0.6252 0
vn -0.8097 -0.5865 0.0222
vn -0.837 -0.5454 0.0446
vn -0.9722 -0.2335 0.0192
vn -0.9817 -0.1896 0.0186
vn -0.8553 -0.5162 0.0443
vn -0.9772 -0.2113 0.0189
vn -0.8705 -0.4902 0.0439
vn -0.9758 -0.2151 0.0385
vn -0.9766 -0.2 0.0785
vn -0.872 -0.4811 0.0903
vn -0.8546 -0.499 0.1434
vn 0.7504 0.6606 -0.0238
vn 0.9742 -0.2011 0.1024
vn 0.8158 -0.5434 0.1979
vn 0.9716 -0.223 0.0797
vn 0.8378 -0.5266 0.1445
vn 0.9705 -0.2378 0.039
vn 0.8546 -0.5113 0.0912
vn 0.9772 -0.2113 0.0189
vn 0.9722 -0.2335 0.0192
vn 0.9664 -0.2562 0.0194
vn 0.9987 -0.0502 0
vn 0.96 -0.2794 0.0197
vn 0.9471 -0.3211 0
vn 0.8196 -0.5712 0.0449
vn 0.9977 -0.0677 0
vn 0.9348 -0.3547 -0.0205
vn 0.9986 -0.0511 -0.0167
vn 0.9375 -0.3481 0
vn 0.9212 -0.3867 -0.0422
vn 0.7607 -0.6491 0
vn 0.791 -0.6114 0.0223
vn 0.751 -0.6599 -0.0224
vn 0.6476 -0.762 0
vn 0.6848 -0.7283 0.0225
vn 0.6956 -0.717 0.0456
vn 0.7297 -0.6834 -0.0225
vn 0.7011 -0.7025 -0.1223
vn 0.6344 -0.7727 -0.0224
vn 0.4285 -0.9033 0.0212
vn 0.9 -0.4131 -0.1391
vn 0.6052 -0.7931 -0.0688
vn 0.4918 -0.6012 -0.6299
vn -0.001 1 0.001
vn -0.782 0.2285 0.5799
vn -0.8806 0.2694 0.3899
vn -0.8659 0.2694 0.4215
vn -0.9266 0.3414 0.1575
vn -0.9112 0.3889 0.1362
vn -0.8896 0.4562 0.0227
vn -0.8957 0.4446 0.0013
vn -0.8859 0.4549 -0.091
vn -0.8928 0.4358 -0.1142
vn -0.8709 0.4709 -0.1406
vn -0.8552 0.4985 -0.1418
vn -0.8305 0.5444 -0.1182
vn -0.8219 0.5619 -0.0939
vn -0.7937 0.6042 -0.0703
vn -0.7501 0.6576 -0.0708
vn -0.7176 0.6948 -0.0471
vn -0.7504 0.6606 -0.0238
vn -0.7929 0.6089 -0.0237
vn -0.8291 0.5587 -0.0235
vn -0.8613 0.5075 -0.0231
vn -0.8843 0.4647 -0.045
vn -0.9056 0.4088 -0.113
vn -0.9266 0.3414 -0.1575
vn -0.9327 0.2959 -0.2062
vn -0.9498 0.197 -0.2432
vn -0.9537 0.1507 -0.2601
vn -0.8976 0.0445 -0.4387
vn -0.9103 0.0413 -0.4118
vn -0.8179 -0.0014 -0.5753
vn -0.7609 0.6471 -0.0469
vn -0.76 0.6429 -0.0952
vn -0.7711 0.6328 -0.0706
vn -0.9993 0.0318 -0.0174
vn -0.9986 0.0489 -0.0177
vn -0.9989 0.0323 -0.0344
vn -0.9986 0.0156 -0.051
vn -0.9988 0.0481 0.001
vn 0.0936 -0.6423 0.7608
vn 0.0665 -0.4726 0.8787
vn 0.0677 -0.5288 0.8461
vn 0.0681 -0.555 -0.829
vn -0.0572 0.1507 -0.9869
vn -0.1485 0.2352 -0.9605
vn -0.269 0.2 -0.9421
vn -0.3524 0.1102 -0.9293
vn -0.3669 -0.0651 -0.928
vn -0.3024 -0.1074 -0.9471
vn -0.0534 -0.0901 -0.9945
vn -0.0207 0.2565 -0.9663
vn 0.996 -0.0871 -0.0172
vn 0.8678 -0.3988 -0.2964
vn 0.7682 -0.4266 -0.4773
vn 0.9578 -0.2846 -0.0401
vn 0.9617 -0.2742 0
vn 0.6568 -0.5473 -0.5187
vn 0.7404 -0.6706 -0.0456
vn 0.7616 -0.6465 0.0455
vn 0.5007 -0.863 0.0671
vn 0.5086 -0.8607 -0.0218
vn 0.4031 -0.9149 -0.0209
vn 0.4572 -0.8891 0.0214
vn 0.4918 -0.8696 0.044
vn 0.4658 -0.8838 0.0436
vn 0.7061 -0.7047 0.0695
vn 0.4446 -0.8933 0.0659
vn 0.837 -0.5454 0.0446
vn 0.8553 -0.5162 0.0443
vn 0.426 -0.9004 0.0885
vn 0.4346 -0.8932 0.1157
vn 0.7274 -0.6752 0.1222
vn 0.7281 0.6818 -0.0709
vn 0.6948 0.7176 -0.0471
vn 0.7711 0.6328 -0.0706
vn 0.729 0.6841 -0.0239
vn 0.8032 0.5882 -0.0944
vn 0.7734 0.6335 -0.0238
vn 0.8121 0.5713 -0.119
vn 0.8114 0.584 -0.0236
vn 0.8384 0.526 -0.1429
vn 0.8457 0.5332 -0.0233
vn 0.8552 0.4985 -0.1418
vn 0.8789 0.4629 -0.1154
vn 0.8701 0.4907 -0.0454
vn 0.8715 0.4817 -0.0918
vn 0.8928 0.4358 -0.1142
vn 0.8811 0.473 0.0013
vn 0.9159 0.3683 -0.1595
vn 0.876 0.4818 0.0229
vn 0.9231 0.3229 -0.2091
vn 0.8988 0.4161 0.1377
vn 0.9431 0.2223 -0.2472
vn 0.9159 0.3683 0.1595
vn 0.9484 0.175 -0.2646
vn 0.8689 0.2978 0.3955
vn 0.8921 0.0674 -0.4467
vn 0.8659 0.2694 0.4215
vn 0.7673 0.2568 0.5877
vn 0.9049 0.0667 -0.4205
vn 0.8102 0.0208 -0.5858
vn 0.76 0.6429 -0.0952
vn 0.7501 0.6576 -0.0708
vn 0.7397 0.6713 -0.047
vn 0.9986 0.0489 -0.0177
vn 0.9975 0.0689 -0.018
vn 0.9978 0.0656 0.001
vn 0.998 0.052 -0.035
vn 0.998 0.035 -0.052
vn -0.3397 0.0216 0.9403
vn -0.5396 0.0233 0.8416
vn -0.729 0.0239 0.6841
vn -0.9963 -0.0183 -0.0837
vn -0.9597 -0.0185 -0.2805
vn -0.9919 0.0189 -0.1255
vn -0.9819 -0.0198 -0.1885
vn -0.9744 -0.0203 -0.2239
vn -0.8929 -0.0673 -0.4451
vn -0.7274 -0.6752 -0.1222
vn -0.6305 -0.7731 -0.0691
vn -0.751 -0.6599 -0.0224
vn -0.7715 -0.6359 -0.0224
vn -0.6739 -0.7388 0
vn -0.6584 -0.7523 -0.0224
vn -0.454 -0.8907 0.0214
vn -0.7076 -0.7062 0.0225
vn -0.4829 -0.8754 0.0216
vn -0.7184 -0.6942 0.0456
vn -0.5179 -0.8543 0.0443
vn -0.2176 -0.9743 0.0587
vn -0.07 -0.9962 0.0525
vn -0.2099 -0.9775 0.0189
vn -0.4285 -0.9033 -0.0212
vn -0.1589 -0.9269 -0.3401
vn -0.0587 -0.9743 -0.2176
vn -0.4618 -0.6777 -0.5723
vn -0.3052 -0.8197 -0.4846
vn -0.0866 -0.9237 -0.3733
vn -0.0197 -0.9596 -0.2808
vn -0.2786 -0.8156 -0.5072
vn -0.0898 -0.9953 -0.035
vn -0.0167 -0.9986 -0.05
vn -0.0328 -0.9993 0.0164
vn -0.109 -0.9934 0.0356
vn -0.2989 -0.9543 0
vn -0.316 -0.9467 0.0622
vn -0.5342 -0.8451 -0.0219
vn -0.4599 -0.7049 -0.5399
vn -0.001 0.9977 -0.0678
vn -0.001 0.9987 -0.0503
vn -0.001 0.9994 -0.0333
vn -0.001 0.9999 -0.0169
vn -0.0175 0.9993 -0.0339
vn 0 -0.6009 -0.7993
vn 0 -0.3211 -0.9471
vn -0.0012 0.2978 -0.9546
vn -0.0014 0.5737 -0.819
vn -0.0014 0.5985 0.8011
vn -0.0183 0.996 -0.0872
vn -0.0011 0.9945 -0.1043
vn -0.0011 0.9963 -0.0858
vn -0.0011 0.9924 -0.1234
vn -0.7809 0.6174 -0.0949
vn 0.9831 0.0557 0.1743
vn 0.9819 -0.0198 0.1885
vn 0.9945 0.0011 0.1043
vn 0.9663 -0.149 0.2098
vn 0.9997 0.0171 0.0151
vn 0 -0.9999 0.0159
vn -0.8032 0.5882 -0.0944
vn 0 -0.6009 0.7993
vn 0.7809 0.6174 -0.0949
vn 0 -0.5762 0.8173
vn -0.7254 0.6777 -0.1206
vn -0.0011 0.9897 -0.143
vn -0.0189 0.9919 -0.1255
vn -0.0192 0.9892 -0.1455
vn 0.7019 0.7019 -0.1207
vn -0.0014 0.5985 -0.8011
vn -0.7796 0.1487 -0.6084
vn -0.7268 -0.1206 -0.6762
vn 0.7668 0.1753 -0.6174
vn 0.7111 -0.1498 -0.6869
vn -0.0231 0.5075 -0.8613
vn -0.0233 0.5332 -0.8457
vn -0.0013 0.5236 -0.852
vn -0.0014 0.5487 -0.836
vn 0.3332 0.2627 -0.9055
vn 0.1828 0.3472 -0.9198
vn 0.3956 0.1614 -0.9041
vn 0.4205 0.0667 -0.9049
vn 0.4188 -0.0666 -0.9056
vn 0.3939 -0.1613 -0.9049
vn -0.4143 -0.1376 -0.8996
vn 0.0651 0.3653 -0.9286
vn 0 -0.1232 -0.9924
vn -0.0175 -0.106 -0.9942
vn -0.2091 0.3229 -0.9231
vn -0.0869 0.3461 -0.9342
vn -0.3559 0.2387 -0.9035
vn -0.4161 0.1377 -0.8988
vn -0.4387 0.0445 -0.8976
vn -0.437 -0.0445 -0.8983
vn -0.0708 0.6576 -0.7501
vn 0.047 0.6713 -0.7397
vn -0.5707 0.4636 -0.6778
vn 0.5451 0.4914 -0.6793
vn -0.0212 0.3034 -0.9526
vn -0.0012 0.3214 -0.9469
vn 0 -0.001 -1
o pump__p0_c0
f 1/1/1 2/2/1 3/3/1
f 1/1/1 3/3/1 4/4/1
f 1/1/1 4/4/1 5/5/1
f 3/3/1 2/2/1 6/6/1
f 6/6/1 2/2/1 7/7/1
f 3/3/1 6/6/1 8/8/1
f 3/3/1 8/8/1 9/9/1
f 9/9/1 8/8/1 10/10/1
f 10/10/1 8/8/1 11/11/1
f 10/10/1 11/11/1 12/12/1
f 11/11/1 8/8/1 13/13/1
f 13/13/1 8/8/1 6/6/1
f 11/11/1 13/13/1 14/14/1
f 15/15/2 6/6/1 7/7/1
f 6/6/1 15/15/2 13/13/1
f 15/15/2 7/7/1 16/16/2
f 15/15/2 16/16/2 17/17/2
f 15/15/2 17/17/2 18/18/1
f 15/15/2 18/18/1 13/13/1
f 13/13/1 18/18/1 19/19/1
f 13/13/1 19/19/1 20/20/1
f 13/13/1 20/20/1 14/14/1
f 14/14/1 20/20/1 21/21/1
f 12/12/1 11/11/1 22/10/1
f 22/10/1 11/11/1 23/8/1
f 22/10/1 23/8/1 24/9/1
f 24/9/1 23/8/1 25/3/1
f 23/8/1 11/11/1 26/13/1
f 26/13/1 11/11/1 14/14/1
f 27/20/2 14/14/1 21/21/1
f 14/14/1 27/20/2 26/13/1
f 26/13/1 27/20/2 28/19/2
f 26/13/1 28/19/2 29/18/2
f 25/3/1 23/8/1 30/6/1
f 30/6/1 23/8/1 26/13/1
f 25/3/1 30/6/1 31/2/1
f 25/3/1 31/2/1 32/1/1
f 25/3/1 32/1/1 33/4/1
f 33/4/1 32/1/1 34/5/1
f 31/2/1 30/6/1 35/7/1
f 26/13/1 29/18/2 36/15/1
f 26/13/1 36/15/1 30/6/1
f 30/6/1 36/15/1 35/7/1
f 36/15/1 29/18/2 37/17/1
f 35/7/1 36/15/1 38/16/1
f 38/16/1 36/15/1 37/17/1
f 39/22/3 40/23/3 41/24/3
f 41/24/3 40/23/3 42/25/3
f 42/25/3 43/23/3 41/24/3
f 41/24/3 43/23/3 44/22/3
f 5/5/4 45/26/4 1/1/5
f 1/1/5 45/26/4 46/27/5
f 1/1/5 46/27/5 47/28/6
f 1/1/5 47/28/6 2/2/7
f 2/2/7 47/28/6 7/7/8
f 7/7/8 47/28/6 48/29/9
f 7/7/8 48/29/9 16/16/10
f 16/16/10 48/29/9 49/30/11
f 16/16/10 49/30/11 17/17/12
f 17/17/12 49/30/11 50/31/13
f 17/17/12 50/31/13 18/18/14
f 18/18/14 50/31/13 51/32/15
f 18/18/14 51/32/15 19/19/16
f 19/19/16 51/32/15 52/33/16
f 19/19/16 52/33/16 20/20/17
f 20/20/17 52/33/16 53/34/17
f 20/20/17 53/34/17 54/35/17
f 20/20/17 54/35/17 21/21/17
f 21/21/17 54/35/17 27/20/18
f 27/20/18 54/35/17 55/34/18
f 27/20/18 55/34/18 56/33/19
f 27/20/18 56/33/19 28/19/19
f 28/19/19 56/33/19 57/32/20
f 28/19/19 57/32/20 29/18/21
f 29/18/21 57/32/20 58/31/22
f 29/18/21 58/31/22 37/17/23
f 37/17/23 58/31/22 59/30/24
f 37/17/23 59/30/24 38/16/25
f 38/16/25 59/30/24 60/29/26
f 38/16/25 60/29/26 35/7/27
f 35/7/27 60/29/26 61/28/28
f 35/7/27 61/28/28 31/2/29
f 31/2/29 61/28/28 32/1/30
f 32/1/30 61/28/28 62/27/30
f 32/1/30 62/27/30 63/26/31
f 32/1/30 63/26/31 34/5/31
f 64/36/32 43/37/32 65/38/32
f 65/38/32 43/37/32 42/39/32
f 42/39/32 40/37/32 65/38/32
f 65/38/32 40/37/32 66/36/32
f 67/40/5 25/3/5 68/41/5
f 68/41/5 25/3/5 33/4/5
f 69/40/30 70/41/30 3/3/30
f 3/3/30 70/41/30 4/4/30
f 71/42/33 72/43/33 24/9/33
f 24/9/33 72/43/33 22/10/33
f 73/44/34 74/45/34 75/46/34
f 75/46/34 74/45/34 76/47/34
f 77/47/35 78/45/35 79/46/35
f 79/46/35 78/45/35 80/44/35
f 25/3/36 67/40/36 24/9/36
f 24/9/36 67/40/36 81/48/36
f 3/3/36 9/9/36 69/40/36
f 69/40/36 9/9/36 82/48/36
f 83/42/37 9/9/37 84/43/37
f 84/43/37 9/9/37 10/10/37
f 66/36/38 40/37/38 85/49/38
f 43/37/39 64/36/39 86/49/39
f 10/10/40 12/12/40 84/43/40
f 84/43/40 12/12/40 87/50/40
f 87/50/40 12/12/40 72/43/41
f 72/43/41 12/12/40 22/10/41
f 88/51/42 89/52/43 90/53/44
f 88/51/42 90/53/44 91/54/45
f 92/55/46 91/54/45 93/56/47
f 92/55/46 93/56/47 94/57/46
f 94/57/46 93/56/47 95/58/48
f 94/57/46 95/58/48 96/59/46
f 93/56/47 91/54/45 97/60/49
f 95/58/48 93/56/47 98/61/50
f 98/61/50 93/56/47 97/60/49
f 97/60/49 91/54/45 99/62/51
f 99/62/51 91/54/45 90/53/44
f 98/61/50 97/60/49 100/63/52
f 95/58/48 98/61/50 101/64/53
f 101/64/53 98/61/50 100/63/52
f 95/58/48 101/64/53 102/65/54
f 95/58/48 102/65/54 96/59/46
f 97/60/49 99/62/51 103/66/55
f 97/60/49 103/66/55 100/63/52
f 100/63/52 103/66/55 104/67/56
f 104/67/56 103/66/55 105/68/57
f 100/63/52 104/67/56 106/69/58
f 100/63/52 106/69/58 101/64/53
f 106/69/58 104/67/56 107/70/59
f 105/68/57 103/66/55 108/71/60
f 108/71/60 103/66/55 99/62/51
f 105/68/57 108/71/60 109/72/61
f 108/71/60 99/62/51 110/73/62
f 110/73/62 99/62/51 90/53/44
f 109/72/61 108/71/60 111/74/63
f 111/74/63 108/71/60 110/73/62
f 109/72/61 111/74/63 112/75/64
f 110/73/62 90/53/44 113/76/65
f 113/76/65 90/53/44 89/52/43
f 111/74/63 110/73/62 114/77/66
f 114/77/66 110/73/62 113/76/65
f 112/75/64 111/74/63 115/78/67
f 115/78/67 111/74/63 114/77/66
f 112/75/64 115/78/67 116/79/68
f 113/76/65 89/52/43 117/80/69
f 117/80/69 89/52/43 118/81/70
f 114/77/66 113/76/65 119/82/71
f 119/82/71 113/76/65 117/80/69
f 115/78/67 114/77/66 120/83/72
f 120/83/72 114/77/66 119/82/71
f 116/79/68 115/78/67 121/84/73
f 121/84/73 115/78/67 120/83/72
f 116/79/68 121/84/73 122/85/74
f 117/80/69 118/81/70 123/86/75
f 123/86/75 118/81/70 124/87/76
f 119/82/71 117/80/69 125/88/77
f 125/88/77 117/80/69 123/86/75
f 122/85/74 121/84/73 126/89/78
f 122/85/74 126/89/78 127/90/79
f 126/89/78 121/84/73 128/91/80
f 128/91/80 121/84/73 120/83/72
f 129/92/81 120/83/72 119/82/71
f 129/92/81 119/82/71 125/88/77
f 120/83/72 129/92/81 128/91/80
f 127/90/79 126/89/78 130/93/82
f 127/90/79 130/93/82 131/94/83
f 126/89/78 128/91/80 132/95/84
f 126/89/78 132/95/84 130/93/82
f 128/91/80 129/92/81 133/96/85
f 128/91/80 133/96/85 132/95/84
f 131/94/83 130/93/82 134/97/86
f 131/94/83 134/97/86 135/98/18
f 130/93/82 132/95/84 136/99/87
f 130/93/82 136/99/87 134/97/86
f 132/95/84 133/96/85 137/100/88
f 132/95/84 137/100/88 136/99/87
f 138/101/89 133/96/85 129/92/81
f 138/101/89 129/92/81 125/88/77
f 137/100/88 133/96/85 139/102/90
f 139/102/90 133/96/85 138/101/89
f 81/48/91 71/42/91 24/9/91
f 83/42/92 82/48/92 9/9/92
f 140/53/93 141/62/94 142/73/95
f 143/76/96 144/52/97 140/53/93
f 143/76/96 140/53/93 142/73/95
f 144/52/97 143/76/96 145/80/98
f 143/76/96 142/73/95 146/77/99
f 145/80/98 143/76/96 147/82/100
f 147/82/100 143/76/96 146/77/99
f 145/80/98 147/82/100 148/88/101
f 147/82/100 146/77/99 149/83/102
f 148/88/101 147/82/100 150/92/103
f 150/92/103 147/82/100 149/83/102
f 151/84/104 149/83/102 152/78/105
f 149/83/102 151/84/104 153/91/106
f 149/83/102 153/91/106 150/92/103
f 153/91/106 151/84/104 154/89/107
f 153/91/106 154/89/107 155/95/108
f 155/95/108 154/89/107 156/93/109
f 150/92/103 153/91/106 157/96/110
f 157/96/110 153/91/106 155/95/108
f 150/92/103 157/96/110 158/101/111
f 150/92/103 158/101/111 148/88/101
f 157/96/110 155/95/108 159/100/112
f 159/100/112 155/95/108 160/99/113
f 158/101/111 157/96/110 161/102/114
f 161/102/114 157/96/110 159/100/112
f 148/88/101 158/101/111 162/103/115
f 148/88/101 162/103/115 163/86/116
f 163/86/116 162/103/115 164/104/117
f 162/103/115 158/101/111 165/105/118
f 165/105/118 158/101/111 161/102/114
f 164/104/117 162/103/115 166/106/119
f 166/106/119 162/103/115 165/105/118
f 164/104/117 166/106/119 167/107/120
f 164/104/117 167/107/120 168/108/121
f 168/108/121 167/107/120 169/109/122
f 168/108/121 169/109/122 170/110/123
f 167/107/120 166/106/119 171/111/124
f 167/107/120 171/111/124 169/109/122
f 166/106/119 165/105/118 172/112/125
f 166/106/119 172/112/125 171/111/124
f 172/112/125 165/105/118 173/113/126
f 173/113/126 165/105/118 161/102/114
f 171/111/124 172/112/125 174/114/127
f 173/113/126 161/102/114 175/115/128
f 175/115/128 161/102/114 159/100/112
f 172/112/125 173/113/126 176/116/129
f 172/112/125 176/116/129 174/114/127
f 176/116/129 173/113/126 177/117/130
f 177/117/130 173/113/126 175/115/128
f 176/116/129 177/117/130 178/118/131
f 176/116/129 178/118/131 174/114/127
f 177/117/130 175/115/128 179/119/132
f 175/115/128 159/100/112 180/120/133
f 180/120/133 159/100/112 160/99/113
f 180/120/133 160/99/113 181/121/134
f 175/115/128 180/120/133 182/122/135
f 175/115/128 182/122/135 179/119/132
f 180/120/133 181/121/134 183/123/136
f 180/120/133 183/123/136 182/122/135
f 183/123/136 181/121/134 184/124/137
f 185/125/138 177/117/130 179/119/132
f 185/125/138 179/119/132 182/122/135
f 177/117/130 185/125/138 178/118/131
f 182/122/135 183/123/136 186/126/139
f 182/122/135 186/126/139 185/125/138
f 183/123/136 184/124/137 187/127/140
f 183/123/136 187/127/140 186/126/139
f 187/127/140 184/124/137 188/128/141
f 185/125/138 186/126/139 189/129/142
f 185/125/138 189/129/142 178/118/131
f 186/126/139 187/127/140 190/130/143
f 186/126/139 190/130/143 189/129/142
f 187/127/140 188/128/141 191/131/144
f 187/127/140 191/131/144 190/130/143
f 191/131/144 188/128/141 192/132/145
f 192/132/145 188/128/141 193/133/146
f 192/132/145 193/133/146 194/134/147
f 191/131/144 192/132/145 195/135/148
f 191/131/144 195/135/148 196/136/149
f 191/131/144 196/136/149 190/130/143
f 190/130/143 196/136/149 197/137/150
f 190/130/143 197/137/150 198/138/151
f 190/130/143 198/138/151 189/129/142
f 189/129/142 198/138/151 199/139/152
f 200/140/153 178/118/131 189/129/142
f 200/140/153 189/129/142 199/139/152
f 178/118/131 200/140/153 174/114/127
f 200/140/153 199/139/152 201/141/154
f 200/140/153 201/141/154 174/114/127
f 201/141/154 199/139/152 202/142/155
f 201/141/154 202/142/155 203/143/156
f 203/143/156 202/142/155 204/144/155
f 174/114/127 201/141/154 205/145/157
f 205/145/157 201/141/154 203/143/156
f 174/114/127 205/145/157 171/111/124
f 203/143/156 204/144/155 206/146/158
f 171/111/124 205/145/157 169/109/122
f 169/109/122 205/145/157 203/143/156
f 203/143/156 206/146/158 207/147/159
f 203/143/156 207/147/159 169/109/122
f 207/147/159 206/146/158 208/148/160
f 207/147/159 208/148/160 209/149/161
f 209/149/161 208/148/160 210/150/162
f 169/109/122 207/147/159 211/151/123
f 169/109/122 211/151/123 170/110/123
f 170/110/123 211/151/123 212/152/123
f 212/152/123 211/151/123 213/153/123
f 213/153/123 211/151/123 214/154/123
f 214/154/123 211/151/123 207/147/159
f 214/154/123 207/147/159 209/149/123
f 214/154/123 209/149/123 77/47/123
f 149/83/102 146/77/99 152/78/105
f 152/78/105 146/77/99 215/74/163
f 215/74/163 146/77/99 142/73/95
f 152/78/105 215/74/163 112/75/64
f 152/78/105 112/75/64 116/79/68
f 152/78/105 116/79/68 151/84/104
f 112/75/64 215/74/163 109/72/61
f 151/84/104 116/79/68 122/85/74
f 151/84/104 122/85/74 154/89/107
f 154/89/107 122/85/74 127/90/79
f 154/89/107 127/90/79 156/93/109
f 156/93/109 127/90/79 131/94/83
f 109/72/61 215/74/163 216/71/164
f 216/71/164 215/74/163 142/73/95
f 109/72/61 216/71/164 105/68/57
f 216/71/164 142/73/95 141/62/94
f 105/68/57 216/71/164 217/66/165
f 217/66/165 216/71/164 141/62/94
f 105/68/57 217/66/165 104/67/56
f 217/66/165 141/62/94 218/60/166
f 217/66/165 218/60/166 219/63/167
f 217/66/165 219/63/167 104/67/56
f 219/63/167 218/60/166 220/61/168
f 219/63/167 220/61/168 221/64/169
f 104/67/56 219/63/167 222/69/170
f 222/69/170 219/63/167 221/64/169
f 104/67/56 222/69/170 107/70/59
f 222/69/170 221/64/169 223/155/171
f 107/70/59 222/69/170 224/156/170
f 224/156/170 222/69/170 223/155/171
f 107/70/59 224/156/170 225/157/59
f 224/156/170 223/155/171 226/158/171
f 225/157/59 224/156/170 227/159/172
f 227/159/172 224/156/170 226/158/171
f 225/157/59 227/159/172 228/160/173
f 227/159/172 226/158/171 229/161/172
f 227/159/172 229/161/172 228/160/173
f 229/161/172 226/158/171 230/162/171
f 228/160/173 229/161/172 231/163/173
f 229/161/172 230/162/171 232/164/169
f 231/163/173 229/161/172 233/165/172
f 233/165/172 229/161/172 232/164/169
f 231/163/173 233/165/172 234/166/56
f 233/165/172 232/164/169 235/167/174
f 234/166/56 233/165/172 236/168/170
f 236/168/170 233/165/172 235/167/174
f 234/166/56 236/168/170 237/169/173
f 236/168/170 235/167/174 238/170/175
f 237/169/173 236/168/170 239/171/176
f 239/171/176 236/168/170 238/170/175
f 237/169/173 239/171/176 240/172/177
f 239/171/176 238/170/175 241/173/178
f 240/172/177 239/171/176 242/174/179
f 242/174/179 239/171/176 241/173/178
f 240/172/177 242/174/179 243/175/180
f 243/175/180 242/174/179 244/176/181
f 243/175/180 244/176/181 245/177/181
f 245/177/181 244/176/181 55/178/182
f 245/177/181 55/178/182 54/179/183
f 244/176/181 242/174/179 246/180/184
f 244/176/181 246/180/184 55/178/182
f 246/180/184 242/174/179 241/173/178
f 55/178/182 246/180/184 56/181/185
f 246/180/184 241/173/178 247/182/186
f 247/182/186 241/173/178 248/183/187
f 56/181/185 246/180/184 249/184/188
f 249/184/188 246/180/184 247/182/186
f 56/181/185 249/184/188 57/185/189
f 250/186/190 247/182/186 251/187/191
f 252/103/192 138/101/89 125/88/77
f 252/103/192 125/88/77 123/86/75
f 253/105/193 139/102/90 138/101/89
f 253/105/193 138/101/89 252/103/192
f 252/103/192 123/86/75 254/104/194
f 254/104/194 123/86/75 124/87/76
f 254/104/194 124/87/76 255/108/195
f 252/103/192 254/104/194 256/106/196
f 252/103/192 256/106/196 253/105/193
f 254/104/194 255/108/195 257/107/197
f 254/104/194 257/107/197 256/106/196
f 257/107/197 255/108/195 258/109/198
f 258/109/198 255/108/195 259/110/199
f 256/106/196 257/107/197 260/111/200
f 260/111/200 257/107/197 258/109/198
f 253/105/193 256/106/196 261/112/201
f 261/112/201 256/106/196 260/111/200
f 253/105/193 261/112/201 262/113/202
f 253/105/193 262/113/202 139/102/90
f 261/112/201 260/111/200 263/114/203
f 139/102/90 262/113/202 264/115/204
f 139/102/90 264/115/204 137/100/88
f 262/113/202 261/112/201 265/116/205
f 265/116/205 261/112/201 263/114/203
f 262/113/202 265/116/205 266/117/206
f 262/113/202 266/117/206 264/115/204
f 266/117/206 265/116/205 267/118/207
f 267/118/207 265/116/205 263/114/203
f 264/115/204 266/117/206 268/119/208
f 269/120/209 137/100/88 264/115/204
f 137/100/88 269/120/209 136/99/87
f 264/115/204 268/119/208 270/122/210
f 264/115/204 270/122/210 269/120/209
f 268/119/208 266/117/206 271/125/211
f 268/119/208 271/125/211 270/122/210
f 271/125/211 266/117/206 267/118/207
f 136/99/87 269/120/209 272/121/212
f 136/99/87 272/121/212 134/97/86
f 269/120/209 270/122/210 273/123/213
f 269/120/209 273/123/213 272/121/212
f 270/122/210 271/125/211 274/126/214
f 270/122/210 274/126/214 273/123/213
f 271/125/211 267/118/207 275/129/215
f 271/125/211 275/129/215 274/126/214
f 134/97/86 272/121/212 276/188/216
f 134/97/86 276/188/216 135/98/18
f 135/98/18 276/188/216 277/189/217
f 276/188/216 272/121/212 278/124/218
f 278/124/218 272/121/212 273/123/213
f 277/189/217 276/188/216 279/190/219
f 279/190/219 276/188/216 278/124/218
f 277/189/217 279/190/219 280/191/220
f 280/191/220 279/190/219 281/133/221
f 280/191/220 281/133/221 282/192/222
f 282/192/222 281/133/221 283/193/223
f 278/124/218 273/123/213 284/127/224
f 284/127/224 273/123/213 274/126/214
f 279/190/219 278/124/218 285/128/225
f 279/190/219 285/128/225 281/133/221
f 285/128/225 278/124/218 284/127/224
f 284/127/224 274/126/214 286/130/226
f 285/128/225 284/127/224 287/131/227
f 287/131/227 284/127/224 286/130/226
f 281/133/221 285/128/225 288/132/228
f 288/132/228 285/128/225 287/131/227
f 289/134/229 283/193/223 281/133/221
f 289/134/229 281/133/221 288/132/228
f 283/193/223 289/134/229 290/194/230
f 290/194/230 289/134/229 291/195/231
f 291/195/231 289/134/229 288/132/228
f 290/194/230 291/195/231 292/196/232
f 292/196/232 291/195/231 293/197/233
f 291/195/231 288/132/228 294/135/234
f 291/195/231 294/135/234 293/197/233
f 294/135/234 288/132/228 287/131/227
f 293/197/233 294/135/234 295/198/235
f 294/135/234 287/131/227 296/136/236
f 294/135/234 296/136/236 295/198/235
f 296/136/236 287/131/227 286/130/226
f 295/198/235 296/136/236 297/199/237
f 297/199/237 296/136/236 298/137/238
f 298/137/238 296/136/236 286/130/226
f 297/199/237 298/137/238 299/200/239
f 299/200/239 298/137/238 300/138/240
f 300/138/240 298/137/238 286/130/226
f 299/200/239 300/138/240 301/201/158
f 301/201/158 300/138/240 302/139/241
f 300/138/240 286/130/226 275/129/215
f 275/129/215 286/130/226 274/126/214
f 300/138/240 275/129/215 302/139/241
f 301/201/158 302/139/241 303/202/242
f 302/139/241 275/129/215 304/140/243
f 304/140/243 275/129/215 267/118/207
f 304/140/243 267/118/207 263/114/203
f 302/139/241 304/140/243 305/141/244
f 305/141/244 304/140/243 263/114/203
f 303/202/242 302/139/241 306/142/245
f 306/142/245 302/139/241 305/141/244
f 303/202/242 306/142/245 307/144/245
f 303/202/242 307/144/245 308/203/246
f 306/142/245 305/141/244 309/143/198
f 306/142/245 309/143/198 307/144/245
f 305/141/244 263/114/203 310/145/195
f 305/141/244 310/145/195 309/143/198
f 310/145/195 263/114/203 260/111/200
f 310/145/195 260/111/200 258/109/198
f 310/145/195 258/109/198 309/143/198
f 311/146/247 308/203/246 307/144/245
f 311/146/247 307/144/245 309/143/198
f 308/203/246 311/146/247 312/204/248
f 309/143/198 258/109/198 313/147/249
f 309/143/198 313/147/249 311/146/247
f 313/147/249 258/109/198 314/151/199
f 314/151/199 258/109/198 259/110/199
f 314/151/199 259/110/199 315/152/199
f 314/151/199 315/152/199 316/153/199
f 314/151/199 316/153/199 317/154/199
f 314/151/199 317/154/199 313/147/249
f 313/147/249 317/154/199 318/149/199
f 318/149/199 317/154/199 76/47/199
f 319/148/250 311/146/247 313/147/249
f 311/146/247 319/148/250 312/204/251
f 312/204/251 319/148/250 320/205/251
f 319/148/250 313/147/249 318/149/252
f 319/148/250 318/149/252 321/150/253
f 322/206/254 323/207/254 324/208/254
f 324/208/254 323/207/254 325/209/254
f 325/209/254 323/207/254 45/210/254
f 325/209/254 45/210/254 5/211/254
f 326/212/255 327/213/256 328/214/257
f 328/214/257 327/213/256 329/215/258
f 328/214/257 329/215/258 330/216/259
f 328/214/257 330/216/259 326/212/255
f 329/215/258 327/213/256 331/217/260
f 329/215/258 331/217/260 332/218/261
f 329/215/258 332/218/261 330/216/259
f 330/216/259 332/218/261 47/219/262
f 47/219/262 332/218/261 48/220/263
f 48/220/263 332/218/261 333/221/264
f 333/221/264 332/218/261 331/217/260
f 48/220/263 333/221/264 49/222/265
f 49/222/265 333/221/264 50/223/266
f 330/216/259 47/219/262 334/224/199
f 334/224/199 47/219/262 46/225/199
f 334/224/199 46/225/199 45/210/199
f 334/224/199 45/210/199 323/207/199
f 334/224/199 323/207/199 335/226/199
f 335/226/199 323/207/199 322/206/199
f 330/216/259 334/224/199 336/227/267
f 336/227/267 334/224/199 335/226/199
f 330/216/259 336/227/267 326/212/255
f 336/227/267 335/226/199 337/228/198
f 336/227/267 337/228/198 338/229/268
f 338/229/268 337/228/198 339/230/198
f 326/212/255 336/227/267 340/231/269
f 340/231/269 336/227/267 338/229/268
f 338/229/268 339/230/198 341/232/270
f 338/229/268 341/232/270 342/233/268
f 342/233/268 341/232/270 343/234/270
f 338/229/268 342/233/268 344/235/271
f 338/229/268 344/235/271 340/231/269
f 342/233/268 343/234/270 345/236/262
f 342/233/268 345/236/262 344/235/271
f 345/236/262 343/234/270 346/237/262
f 346/237/262 343/234/270 347/238/270
f 346/237/262 347/238/270 348/239/195
f 345/236/262 346/237/262 349/240/272
f 349/240/272 346/237/262 348/239/195
f 348/239/195 347/238/270 350/241/199
f 344/235/271 345/236/262 351/242/273
f 351/242/273 345/236/262 349/240/272
f 349/240/272 348/239/195 352/243/274
f 344/235/271 351/242/273 353/244/275
f 351/242/273 349/240/272 354/245/276
f 351/242/273 354/245/276 353/244/275
f 349/240/272 352/243/274 355/246/277
f 349/240/272 355/246/277 354/245/276
f 352/243/274 348/239/195 356/247/278
f 352/243/274 356/247/278 355/246/277
f 357/248/270 348/239/195 350/241/199
f 348/239/195 357/248/270 356/247/278
f 357/248/270 350/241/199 358/249/199
f 356/247/278 357/248/270 359/250/279
f 357/248/270 358/249/199 360/251/270
f 357/248/270 360/251/270 359/250/279
f 360/251/270 358/249/199 361/252/199
f 360/251/270 361/252/199 362/253/199
f 360/251/270 362/253/199 363/254/199
f 360/251/270 363/254/199 359/250/279
f 363/254/199 362/253/199 364/255/199
f 356/247/278 359/250/279 365/256/280
f 356/247/278 365/256/280 355/246/277
f 359/250/279 363/254/199 366/257/281
f 363/254/199 364/255/199 367/258/270
f 363/254/199 367/258/270 366/257/281
f 367/258/270 364/255/199 368/259/199
f 359/250/279 366/257/281 369/260/282
f 359/250/279 369/260/282 365/256/280
f 366/257/281 367/258/270 370/261/283
f 367/258/270 368/259/199 371/262/270
f 367/258/270 371/262/270 370/261/283
f 371/262/270 368/259/199 372/263/199
f 365/256/280 369/260/282 96/59/46
f 365/256/280 96/59/46 355/246/277
f 373/264/282 369/260/282 366/257/281
f 373/264/282 366/257/281 370/261/283
f 371/262/270 372/263/199 374/265/270
f 369/260/282 373/264/282 94/57/46
f 369/260/282 94/57/46 96/59/46
f 374/265/270 372/263/199 375/266/199
f 376/267/284 370/261/283 371/262/270
f 376/267/284 371/262/270 374/265/270
f 373/264/282 370/261/283 377/268/285
f 377/268/285 370/261/283 376/267/284
f 94/57/46 373/264/282 92/55/46
f 92/55/46 373/264/282 377/268/285
f 374/265/270 375/266/199 378/269/270
f 376/267/284 374/265/270 379/270/284
f 379/270/284 374/265/270 378/269/270
f 378/269/270 375/266/199 259/110/199
f 376/267/284 379/270/284 380/271/286
f 376/267/284 380/271/286 377/268/285
f 379/270/284 378/269/270 124/87/76
f 92/55/46 377/268/285 88/51/42
f 88/51/42 377/268/285 380/271/286
f 380/271/286 379/270/284 118/81/70
f 118/81/70 379/270/284 124/87/76
f 88/51/42 380/271/286 89/52/43
f 89/52/43 380/271/286 118/81/70
f 92/55/46 88/51/42 91/54/45
f 124/87/76 378/269/270 255/108/195
f 255/108/195 378/269/270 259/110/199
f 381/206/287 382/208/287 383/207/287
f 383/207/287 382/208/287 384/209/287
f 383/207/287 384/209/287 63/210/287
f 63/210/287 384/209/287 34/211/287
f 385/87/288 386/81/289 163/86/116
f 163/86/116 386/81/289 145/80/98
f 386/81/289 385/87/288 387/270/290
f 385/87/288 163/86/116 164/104/117
f 386/81/289 387/270/290 388/271/291
f 387/270/290 385/87/288 389/269/123
f 386/81/289 388/271/291 144/52/97
f 386/81/289 144/52/97 145/80/98
f 388/271/291 387/270/290 390/267/290
f 163/86/116 145/80/98 148/88/101
f 387/270/290 389/269/123 391/265/123
f 387/270/290 391/265/123 390/267/290
f 391/265/123 389/269/123 392/266/123
f 391/265/123 392/266/123 393/263/123
f 392/266/123 389/269/123 170/110/123
f 391/265/123 393/263/123 394/262/123
f 391/265/123 394/262/123 390/267/290
f 394/262/123 393/263/123 395/259/123
f 170/110/123 389/269/123 168/108/121
f 168/108/121 389/269/123 385/87/288
f 168/108/121 385/87/288 164/104/117
f 394/262/123 395/259/123 396/258/123
f 396/258/123 395/259/123 397/255/123
f 390/267/290 394/262/123 398/261/292
f 398/261/292 394/262/123 396/258/123
f 396/258/123 397/255/123 399/254/159
f 390/267/290 398/261/292 400/268/293
f 399/254/159 397/255/123 401/253/123
f 390/267/290 400/268/293 388/271/291
f 399/254/159 401/253/123 402/251/122
f 402/251/122 401/253/123 403/252/123
f 402/251/122 403/252/123 404/249/123
f 399/254/159 402/251/122 405/250/294
f 402/251/122 404/249/123 406/248/123
f 402/251/122 406/248/123 405/250/294
f 406/248/123 404/249/123 407/241/123
f 406/248/123 407/241/123 408/239/121
f 408/239/121 407/241/123 409/238/123
f 410/257/295 396/258/123 399/254/159
f 410/257/295 399/254/159 405/250/294
f 396/258/123 410/257/295 398/261/292
f 405/250/294 406/248/123 411/247/296
f 411/247/296 406/248/123 408/239/121
f 408/239/121 409/238/123 412/237/297
f 412/237/297 409/238/123 413/234/123
f 411/247/296 408/239/121 414/243/298
f 408/239/121 412/237/297 415/240/299
f 408/239/121 415/240/299 414/243/298
f 412/237/297 413/234/123 416/236/297
f 412/237/297 416/236/297 415/240/299
f 416/236/297 413/234/123 417/233/297
f 417/233/297 413/234/123 418/232/123
f 411/247/296 414/243/298 419/246/300
f 419/246/300 414/243/298 415/240/299
f 417/233/297 418/232/123 420/229/301
f 420/229/301 418/232/123 421/230/156
f 416/236/297 417/233/297 422/235/302
f 422/235/302 417/233/297 420/229/301
f 420/229/301 421/230/156 423/228/156
f 420/229/301 423/228/156 424/227/303
f 424/227/303 423/228/156 425/226/123
f 426/242/304 415/240/299 416/236/297
f 426/242/304 416/236/297 422/235/302
f 422/235/302 420/229/301 427/231/305
f 427/231/305 420/229/301 424/227/303
f 426/242/304 422/235/302 428/244/306
f 415/240/299 426/242/304 429/245/307
f 429/245/307 426/242/304 428/244/306
f 415/240/299 429/245/307 419/246/300
f 428/244/306 422/235/302 430/272/308
f 430/272/308 422/235/302 427/231/305
f 428/244/306 430/272/308 431/273/309
f 429/245/307 428/244/306 432/274/310
f 432/274/310 428/244/306 431/273/309
f 429/245/307 432/274/310 433/275/311
f 429/245/307 433/275/311 419/246/300
f 430/272/308 427/231/305 434/276/312
f 430/272/308 434/276/312 431/273/309
f 434/276/312 427/231/305 435/277/313
f 431/273/309 434/276/312 436/278/314
f 436/278/314 434/276/312 435/277/313
f 431/273/309 436/278/314 437/279/315
f 435/277/313 427/231/305 438/212/316
f 438/212/316 427/231/305 424/227/303
f 436/278/314 435/277/313 439/280/317
f 436/278/314 439/280/317 437/279/315
f 435/277/313 438/212/316 440/213/318
f 435/277/313 440/213/318 439/280/317
f 441/281/319 442/282/319 443/283/319
f 443/283/319 442/282/319 444/284/319
f 443/283/319 444/284/319 445/285/319
f 445/285/319 444/284/319 446/286/319
f 446/286/319 444/284/319 447/287/319
f 447/287/319 444/284/319 448/288/319
f 75/46/320 76/47/320 449/289/321
f 449/289/321 76/47/320 317/154/322
f 449/289/321 317/154/322 316/153/323
f 449/289/321 316/153/323 450/290/324
f 450/290/324 316/153/323 315/152/325
f 450/290/324 315/152/325 451/291/326
f 451/291/326 315/152/325 259/110/327
f 451/291/326 259/110/327 452/292/328
f 452/292/328 259/110/327 375/266/329
f 452/292/328 375/266/329 453/293/330
f 453/293/330 375/266/329 372/263/331
f 453/293/330 372/263/331 454/294/331
f 454/294/331 372/263/331 368/259/332
f 454/294/331 368/259/332 455/295/332
f 455/295/332 368/259/332 364/255/333
f 455/295/332 364/255/333 456/296/333
f 456/296/333 364/255/333 362/253/334
f 456/296/333 362/253/334 457/297/334
f 457/297/334 362/253/334 361/252/335
f 457/297/334 361/252/335 458/298/335
f 458/298/335 361/252/335 459/299/336
f 459/299/336 361/252/335 358/249/336
f 459/299/336 358/249/336 460/300/337
f 460/300/337 358/249/336 350/241/337
f 460/300/337 350/241/337 461/301/338
f 461/301/338 350/241/337 347/238/338
f 461/301/338 347/238/338 343/234/339
f 461/301/338 343/234/339 462/302/339
f 462/302/339 343/234/339 463/303/340
f 463/303/340 343/234/339 341/232/341
f 463/303/340 341/232/341 464/304/342
f 464/304/342 341/232/341 339/230/343
f 464/304/342 339/230/343 465/305/344
f 465/305/344 339/230/343 337/228/345
f 465/305/344 337/228/345 466/306/346
f 466/306/346 337/228/345 335/226/347
f 466/306/346 335/226/347 322/206/348
f 466/306/346 322/206/348 467/307/348
f 468/308/254 469/309/254 470/310/254
f 470/310/254 469/309/254 471/311/254
f 470/310/254 471/311/254 472/312/254
f 472/312/254 471/311/254 467/307/254
f 469/309/254 468/308/254 473/313/254
f 473/313/254 468/308/254 474/314/254
f 473/313/254 474/314/254 475/315/254
f 475/315/254 474/314/254 476/316/254
f 475/315/254 476/316/254 477/317/349
f 475/315/254 477/317/349 478/318/349
f 478/318/349 477/317/349 479/319/349
f 478/318/349 479/319/349 480/320/349
f 480/320/349 479/319/349 481/321/349
f 480/320/349 481/321/349 482/322/349
f 482/322/349 481/321/349 483/323/349
f 482/322/349 483/323/349 484/324/349
f 484/324/349 483/323/349 485/325/350
f 484/324/349 485/325/350 486/326/350
f 486/326/350 485/325/350 487/327/350
f 486/326/350 487/327/350 488/328/350
f 488/328/350 487/327/350 73/44/351
f 488/328/350 73/44/351 75/46/351
f 482/322/352 484/324/353 455/295/352
f 455/295/352 484/324/353 454/294/353
f 482/322/352 455/295/352 456/296/352
f 454/294/353 484/324/353 486/326/352
f 482/322/352 456/296/352 480/320/352
f 454/294/353 486/326/352 453/293/352
f 480/320/352 456/296/352 457/297/352
f 480/320/352 457/297/352 478/318/352
f 478/318/352 457/297/352 458/298/352
f 478/318/352 458/298/352 475/315/352
f 475/315/352 458/298/352 459/299/352
f 475/315/352 459/299/352 473/313/352
f 473/313/352 459/299/352 460/300/352
f 473/313/352 460/300/352 469/309/352
f 469/309/352 460/300/352 461/301/352
f 469/309/352 461/301/352 471/311/353
f 471/311/353 461/301/352 462/302/352
f 471/311/353 462/302/352 463/303/352
f 471/311/353 463/303/352 464/304/354
f 471/311/353 464/304/354 465/305/355
f 471/311/353 465/305/355 466/306/355
f 471/311/353 466/306/355 467/307/353
f 488/328/352 453/293/352 486/326/352
f 453/293/352 488/328/352 452/292/352
f 452/292/352 488/328/352 451/291/356
f 451/291/356 488/328/352 450/290/356
f 450/290/356 488/328/352 449/289/356
f 449/289/356 488/328/352 75/46/356
f 155/95/108 156/93/109 160/99/113
f 160/99/113 156/93/109 489/97/357
f 489/97/357 156/93/109 131/94/83
f 160/99/113 489/97/357 181/121/134
f 489/97/357 131/94/83 135/98/18
f 181/121/134 489/97/357 490/188/358
f 490/188/358 489/97/357 135/98/18
f 181/121/134 490/188/358 184/124/137
f 490/188/358 135/98/18 277/189/217
f 184/124/137 490/188/358 491/190/359
f 491/190/359 490/188/358 277/189/217
f 184/124/137 491/190/359 188/128/141
f 491/190/359 277/189/217 280/191/220
f 188/128/141 491/190/359 193/133/146
f 193/133/146 491/190/359 280/191/220
f 193/133/146 280/191/220 282/192/222
f 193/133/146 282/192/222 283/193/223
f 193/133/146 283/193/223 194/134/147
f 194/134/147 283/193/223 290/194/230
f 194/134/147 290/194/230 492/195/360
f 492/195/360 290/194/230 292/196/232
f 194/134/147 492/195/360 192/132/145
f 492/195/360 292/196/232 493/197/361
f 192/132/145 492/195/360 195/135/148
f 195/135/148 492/195/360 493/197/361
f 195/135/148 493/197/361 494/198/362
f 195/135/148 494/198/362 196/136/149
f 196/136/149 494/198/362 495/199/363
f 196/136/149 495/199/363 197/137/150
f 197/137/150 495/199/363 496/200/364
f 197/137/150 496/200/364 198/138/151
f 198/138/151 496/200/364 497/201/247
f 198/138/151 497/201/247 199/139/152
f 199/139/152 497/201/247 498/202/365
f 199/139/152 498/202/365 202/142/155
f 202/142/155 498/202/365 204/144/155
f 204/144/155 498/202/365 499/203/366
f 204/144/155 499/203/366 206/146/158
f 206/146/158 499/203/366 500/204/367
f 208/148/160 206/146/158 500/204/368
f 208/148/160 500/204/368 501/205/368
f 502/329/319 503/330/319 504/331/319
f 504/331/319 503/330/319 505/332/319
f 506/216/369 438/212/316 424/227/303
f 507/214/370 440/213/318 438/212/316
f 507/214/370 438/212/316 506/216/369
f 506/216/369 424/227/303 508/224/123
f 508/224/123 424/227/303 425/226/123
f 507/214/370 506/216/369 509/215/371
f 507/214/370 509/215/371 440/213/318
f 383/207/123 425/226/123 381/206/123
f 425/226/123 383/207/123 508/224/123
f 508/224/123 383/207/123 63/210/123
f 508/224/123 63/210/123 62/225/123
f 508/224/123 62/225/123 61/219/297
f 508/224/123 61/219/297 506/216/369
f 506/216/369 61/219/297 510/218/372
f 506/216/369 510/218/372 509/215/371
f 510/218/372 61/219/297 60/220/373
f 509/215/371 510/218/372 511/217/374
f 509/215/371 511/217/374 440/213/318
f 510/218/372 60/220/373 512/221/375
f 510/218/372 512/221/375 511/217/374
f 512/221/375 60/220/373 59/222/376
f 512/221/375 59/222/376 58/223/377
f 511/217/374 512/221/375 250/186/190
f 511/217/374 250/186/190 440/213/318
f 512/221/375 58/223/377 513/333/378
f 512/221/375 513/333/378 250/186/190
f 513/333/378 58/223/377 57/185/189
f 513/333/378 57/185/189 249/184/188
f 513/333/378 249/184/188 247/182/186
f 513/333/378 247/182/186 250/186/190
f 440/213/318 250/186/190 251/187/191
f 248/183/187 251/187/191 247/182/186
f 440/213/318 251/187/191 439/280/317
f 439/280/317 251/187/191 514/334/379
f 514/334/379 251/187/191 248/183/187
f 439/280/317 514/334/379 437/279/315
f 514/334/379 248/183/187 238/170/175
f 238/170/175 248/183/187 241/173/178
f 514/334/379 238/170/175 235/167/174
f 514/334/379 235/167/174 437/279/315
f 437/279/315 235/167/174 232/164/169
f 437/279/315 232/164/169 515/335/380
f 437/279/315 515/335/380 431/273/309
f 515/335/380 232/164/169 230/162/171
f 431/273/309 515/335/380 432/274/310
f 515/335/380 230/162/171 516/336/381
f 515/335/380 516/336/381 432/274/310
f 516/336/381 230/162/171 226/158/171
f 432/274/310 516/336/381 433/275/311
f 516/336/381 226/158/171 517/337/381
f 516/336/381 517/337/381 433/275/311
f 517/337/381 226/158/171 223/155/171
f 433/275/311 517/337/381 518/338/311
f 433/275/311 518/338/311 419/246/300
f 517/337/381 223/155/171 519/65/382
f 517/337/381 519/65/382 518/338/311
f 519/65/382 223/155/171 221/64/169
f 419/246/300 518/338/311 520/59/383
f 520/59/383 518/338/311 519/65/382
f 519/65/382 221/64/169 521/58/384
f 519/65/382 521/58/384 520/59/383
f 521/58/384 221/64/169 220/61/168
f 419/246/300 520/59/383 522/256/385
f 419/246/300 522/256/385 411/247/296
f 411/247/296 522/256/385 405/250/294
f 405/250/294 522/256/385 523/260/386
f 523/260/386 522/256/385 520/59/383
f 405/250/294 523/260/386 410/257/295
f 521/58/384 220/61/168 524/56/387
f 525/57/383 520/59/383 521/58/384
f 520/59/383 525/57/383 523/260/386
f 525/57/383 521/58/384 524/56/387
f 524/56/387 220/61/168 218/60/166
f 523/260/386 525/57/383 526/264/386
f 523/260/386 526/264/386 410/257/295
f 410/257/295 526/264/386 398/261/292
f 398/261/292 526/264/386 400/268/293
f 526/264/386 525/57/383 527/55/383
f 527/55/383 525/57/383 524/56/387
f 526/264/386 527/55/383 400/268/293
f 524/56/387 218/60/166 528/54/388
f 524/56/387 528/54/388 527/55/383
f 528/54/388 218/60/166 141/62/94
f 400/268/293 527/55/383 529/51/389
f 529/51/389 527/55/383 528/54/388
f 400/268/293 529/51/389 388/271/291
f 388/271/291 529/51/389 144/52/97
f 529/51/389 528/54/388 140/53/93
f 140/53/93 528/54/388 141/62/94
f 529/51/389 140/53/93 144/52/97
f 318/149/351 76/47/351 321/339/351
f 321/339/351 76/47/351 74/45/351
f 401/253/390 530/297/390 403/252/391
f 403/252/391 530/297/390 531/298/391
f 530/297/390 401/253/390 532/296/392
f 403/252/391 531/298/391 533/299/393
f 532/296/392 401/253/390 397/255/392
f 403/252/391 533/299/393 404/249/393
f 532/296/392 397/255/392 534/295/394
f 404/249/393 533/299/393 535/300/395
f 534/295/394 397/255/392 395/259/394
f 404/249/393 535/300/395 407/241/395
f 534/295/394 395/259/394 536/294/396
f 407/241/395 535/300/395 537/301/397
f 536/294/396 395/259/394 393/263/396
f 407/241/395 537/301/397 409/238/397
f 536/294/396 393/263/396 538/293/398
f 409/238/397 537/301/397 413/234/399
f 538/293/398 393/263/396 392/266/400
f 413/234/399 537/301/397 539/302/399
f 538/293/398 392/266/400 540/292/401
f 413/234/399 539/302/399 541/303/402
f 540/292/401 392/266/400 170/110/403
f 413/234/399 541/303/402 418/232/404
f 540/292/401 170/110/403 542/291/405
f 418/232/404 541/303/402 543/304/406
f 542/291/405 170/110/403 212/152/407
f 418/232/404 543/304/406 421/230/408
f 542/291/405 212/152/407 544/290/409
f 421/230/408 543/304/406 545/305/410
f 544/290/409 212/152/407 213/153/411
f 421/230/408 545/305/410 423/228/412
f 544/290/409 213/153/411 546/289/413
f 423/228/412 545/305/410 547/306/414
f 546/289/413 213/153/411 214/154/415
f 546/289/413 214/154/415 77/47/416
f 546/289/413 77/47/416 79/46/416
f 423/228/412 547/306/414 425/226/417
f 425/226/417 547/306/414 381/206/418
f 381/206/418 547/306/414 548/307/418
f 549/325/419 550/326/419 551/327/419
f 551/327/419 550/326/419 552/328/419
f 551/327/419 552/328/419 80/44/420
f 80/44/420 552/328/419 79/46/420
f 550/326/419 549/325/419 553/324/421
f 553/324/421 549/325/419 554/323/421
f 553/324/421 554/323/421 555/322/421
f 555/322/421 554/323/421 556/321/421
f 555/322/421 556/321/421 557/320/421
f 557/320/421 556/321/421 558/319/421
f 557/320/421 558/319/421 559/318/421
f 559/318/421 558/319/421 560/317/421
f 559/318/421 560/317/421 561/315/287
f 561/315/287 560/317/421 562/316/287
f 561/315/287 562/316/287 563/314/287
f 561/315/287 563/314/287 564/313/287
f 564/313/287 563/314/287 565/308/287
f 564/313/287 565/308/287 566/309/287
f 566/309/287 565/308/287 567/310/287
f 566/309/287 567/310/287 568/311/287
f 568/311/287 567/310/287 569/312/287
f 568/311/287 569/312/287 548/307/287
f 533/299/422 564/313/422 535/300/422
f 535/300/422 564/313/422 566/309/422
f 564/313/422 533/299/422 561/315/422
f 535/300/422 566/309/422 537/301/422
f 561/315/422 533/299/422 531/298/422
f 561/315/422 531/298/422 559/318/422
f 559/318/422 531/298/422 530/297/422
f 559/318/422 530/297/422 557/320/422
f 557/320/422 530/297/422 532/296/422
f 557/320/422 532/296/422 555/322/422
f 555/322/422 532/296/422 534/295/422
f 555/322/422 534/295/422 553/324/423
f 553/324/423 534/295/422 536/294/423
f 553/324/423 536/294/423 550/326/422
f 550/326/422 536/294/423 538/293/422
f 550/326/422 538/293/422 552/328/422
f 552/328/422 538/293/422 540/292/422
f 552/328/422 540/292/422 542/291/424
f 552/328/422 542/291/424 544/290/424
f 552/328/422 544/290/424 546/289/424
f 552/328/422 546/289/424 79/46/424
f 568/311/423 537/301/422 566/309/422
f 537/301/422 568/311/423 539/302/422
f 539/302/422 568/311/423 541/303/422
f 541/303/422 568/311/423 543/304/425
f 543/304/425 568/311/423 545/305/426
f 545/305/426 568/311/423 547/306/426
f 547/306/426 568/311/423 548/307/423
f 209/149/420 210/339/420 77/47/420
f 77/47/420 210/339/420 78/45/420
f 570/340/427 442/341/427 571/342/428
f 571/342/428 442/341/427 441/343/428
f 571/342/428 441/343/428 572/344/429
f 572/344/429 441/343/428 443/283/429
f 572/344/199 443/283/199 573/345/199
f 573/345/199 443/283/199 445/285/199
f 574/346/199 575/347/430 576/348/199
f 576/348/199 575/347/430 447/287/430
f 447/287/430 575/347/430 446/286/431
f 446/286/431 575/347/430 577/349/432
f 446/286/431 577/349/432 578/350/433
f 578/350/433 577/349/432 573/345/434
f 446/286/431 578/350/433 445/285/435
f 445/285/435 578/350/433 573/345/434
f 579/351/199 580/352/199 581/353/199
f 579/351/199 581/353/199 582/354/199
f 579/351/199 582/354/199 583/355/199
f 580/352/199 579/351/199 584/356/199
f 584/356/199 579/351/199 585/357/199
f 580/352/199 584/356/199 586/358/199
f 580/352/199 586/358/199 587/359/199
f 587/359/199 586/358/199 588/360/199
f 585/357/199 579/351/199 502/361/199
f 502/361/199 579/351/199 589/362/199
f 502/361/199 589/362/199 590/363/199
f 502/361/199 590/363/199 503/364/199
f 503/364/199 590/363/199 591/365/199
f 592/277/436 593/280/437 327/213/256
f 592/277/436 327/213/256 326/212/255
f 592/277/436 326/212/255 340/231/269
f 592/277/436 340/231/269 594/276/438
f 594/276/438 340/231/269 595/272/439
f 595/272/439 340/231/269 344/235/271
f 595/272/439 344/235/271 353/244/275
f 594/276/438 595/272/439 596/273/440
f 596/273/440 595/272/439 353/244/275
f 592/277/436 594/276/438 597/278/441
f 597/278/441 594/276/438 596/273/440
f 592/277/436 597/278/441 593/280/437
f 597/278/441 596/273/440 598/279/442
f 597/278/441 598/279/442 593/280/437
f 596/273/440 353/244/275 599/274/443
f 599/274/443 353/244/275 354/245/276
f 596/273/440 599/274/443 600/335/444
f 596/273/440 600/335/444 598/279/442
f 599/274/443 354/245/276 601/275/445
f 601/275/445 354/245/276 355/246/277
f 600/335/444 599/274/443 602/336/446
f 602/336/446 599/274/443 601/275/445
f 601/275/445 355/246/277 603/338/445
f 603/338/445 355/246/277 96/59/46
f 603/338/445 96/59/46 102/65/54
f 601/275/445 603/338/445 604/337/446
f 604/337/446 603/338/445 102/65/54
f 601/275/445 604/337/446 602/336/446
f 604/337/446 102/65/54 605/155/447
f 605/155/447 102/65/54 101/64/53
f 605/155/447 101/64/53 106/69/58
f 604/337/446 605/155/447 606/158/447
f 604/337/446 606/158/447 602/336/446
f 605/155/447 106/69/58 607/156/58
f 605/155/447 607/156/58 606/158/447
f 607/156/58 106/69/58 107/70/59
f 607/156/58 107/70/59 225/157/59
f 607/156/58 225/157/59 608/159/448
f 607/156/58 608/159/448 606/158/447
f 608/159/448 225/157/59 228/160/173
f 608/159/448 228/160/173 609/161/448
f 608/159/448 609/161/448 606/158/447
f 609/161/448 228/160/173 231/163/173
f 610/162/447 602/336/446 606/158/447
f 610/162/447 606/158/447 609/161/448
f 602/336/446 610/162/447 600/335/444
f 600/335/444 610/162/447 611/164/53
f 611/164/53 610/162/447 609/161/448
f 600/335/444 611/164/53 598/279/442
f 609/161/448 231/163/173 612/165/448
f 609/161/448 612/165/448 611/164/53
f 612/165/448 231/163/173 234/166/56
f 598/279/442 611/164/53 613/167/449
f 613/167/449 611/164/53 612/165/448
f 612/165/448 234/166/56 614/168/58
f 612/165/448 614/168/58 613/167/449
f 614/168/58 234/166/56 237/169/173
f 598/279/442 613/167/449 615/334/450
f 598/279/442 615/334/450 593/280/437
f 613/167/449 614/168/58 616/170/451
f 613/167/449 616/170/451 615/334/450
f 614/168/58 237/169/173 617/171/452
f 614/168/58 617/171/452 616/170/451
f 617/171/452 237/169/173 240/172/177
f 593/280/437 615/334/450 618/187/453
f 593/280/437 618/187/453 327/213/256
f 615/334/450 616/170/451 619/183/454
f 615/334/450 619/183/454 618/187/453
f 616/170/451 617/171/452 620/173/455
f 616/170/451 620/173/455 619/183/454
f 617/171/452 240/172/177 621/174/456
f 617/171/452 621/174/456 620/173/455
f 621/174/456 240/172/177 243/175/180
f 619/183/454 620/173/455 622/182/457
f 619/183/454 622/182/457 618/187/453
f 620/173/455 621/174/456 623/180/458
f 620/173/455 623/180/458 622/182/457
f 621/174/456 243/175/180 624/176/459
f 621/174/456 624/176/459 623/180/458
f 624/176/459 243/175/180 245/177/181
f 624/176/459 245/177/181 53/178/460
f 624/176/459 53/178/460 623/180/458
f 53/178/460 245/177/181 54/179/183
f 623/180/458 53/178/460 52/181/461
f 623/180/458 52/181/461 625/184/462
f 623/180/458 625/184/462 622/182/457
f 625/184/462 52/181/461 51/185/463
f 625/184/462 51/185/463 626/333/464
f 625/184/462 626/333/464 622/182/457
f 626/333/464 51/185/463 50/223/266
f 626/333/464 50/223/266 333/221/264
f 622/182/457 626/333/464 627/186/465
f 627/186/465 626/333/464 333/221/264
f 622/182/457 627/186/465 618/187/453
f 627/186/465 333/221/264 331/217/260
f 618/187/453 627/186/465 327/213/256
f 327/213/256 627/186/465 331/217/260
f 554/323/466 628/366/466 556/321/466
f 556/321/466 628/366/466 629/367/466
f 556/321/466 629/367/466 630/368/467
f 556/321/466 630/368/467 558/319/467
f 558/319/467 630/368/467 631/369/467
f 558/319/467 631/369/467 560/317/467
f 560/317/467 631/369/467 632/370/468
f 560/317/467 632/370/468 562/316/468
f 562/316/468 632/370/468 633/371/469
f 562/316/468 633/371/469 563/314/469
f 563/314/469 633/371/469 634/372/469
f 563/314/469 634/372/469 565/308/469
f 565/308/469 634/372/469 635/373/470
f 565/308/469 635/373/470 567/310/470
f 567/310/470 635/373/470 569/312/469
f 569/312/469 635/373/470 636/374/468
f 569/312/469 636/374/468 382/208/468
f 382/208/468 636/374/468 384/209/468
f 384/209/468 636/374/468 637/375/468
f 384/209/468 637/375/468 34/211/468
f 34/211/468 637/375/468 33/376/468
f 483/323/466 481/321/466 638/366/466
f 638/366/466 481/321/466 639/367/466
f 639/367/466 481/321/466 640/368/467
f 640/368/467 481/321/466 479/319/467
f 640/368/467 479/319/467 641/369/467
f 641/369/467 479/319/467 477/317/467
f 641/369/467 477/317/467 642/370/468
f 642/370/468 477/317/467 476/316/468
f 642/370/468 476/316/468 643/371/469
f 643/371/469 476/316/468 474/314/469
f 643/371/469 474/314/469 644/372/469
f 644/372/469 474/314/469 468/308/469
f 644/372/469 468/308/469 645/373/468
f 645/373/468 468/308/469 470/310/468
f 645/373/468 470/310/468 472/312/469
f 645/373/468 472/312/469 646/374/468
f 646/374/468 472/312/469 324/208/468
f 646/374/468 324/208/468 325/209/468
f 646/374/468 325/209/468 647/375/468
f 647/375/468 325/209/468 5/211/468
f 647/375/468 5/211/468 4/376/468
f 587/359/1 588/360/1 648/377/1
f 648/377/1 588/360/1 649/378/1
f 503/379/1 591/365/1 505/380/1
f 505/380/1 591/365/1 650/381/1
f 505/332/199 649/382/199 504/331/199
f 504/331/199 649/382/199 651/383/199
f 504/331/199 651/383/199 652/384/199
f 504/331/199 652/384/199 653/385/199
f 575/347/471 574/386/472 654/387/471
f 654/387/471 574/386/472 655/388/472
f 655/388/472 574/386/472 576/389/473
f 655/388/472 576/389/473 656/390/473
f 656/390/473 576/389/473 448/391/474
f 448/391/474 576/389/473 447/392/474
f 293/393/199 657/394/199 658/395/199
f 585/396/475 502/329/475 653/397/475
f 653/397/475 502/329/475 504/331/475
f 551/327/476 80/44/476 659/398/476
f 659/398/476 80/44/476 660/399/477
f 661/399/477 73/44/478 662/398/478
f 662/398/478 73/44/478 487/327/478
f 78/45/477 660/399/477 80/44/479
f 660/399/477 78/45/477 663/400/477
f 663/400/477 78/45/477 210/339/477
f 74/45/477 73/44/479 661/399/477
f 74/45/477 661/399/477 664/400/477
f 74/45/477 664/400/477 321/339/477
f 665/394/123 493/393/123 666/395/123
f 551/327/479 659/398/479 549/325/479
f 549/325/479 659/398/479 667/401/479
f 549/325/479 667/401/479 554/323/477
f 554/323/477 667/401/479 628/366/477
f 487/327/479 485/325/479 662/398/479
f 662/398/479 485/325/479 668/401/479
f 668/401/479 485/325/479 483/323/477
f 668/401/479 483/323/477 638/366/477
f 590/402/1 589/362/1 669/403/1
f 669/403/1 589/362/1 670/404/1
f 71/405/199 40/406/199 72/407/199
f 72/407/199 40/406/199 39/22/199
f 671/408/195 672/409/195 666/395/195
f 666/395/195 672/409/195 665/394/195
f 44/22/159 43/406/159 84/407/159
f 84/407/159 43/406/159 83/405/159
f 657/394/121 673/409/121 658/395/121
f 658/395/121 673/409/121 674/408/121
f 629/410/349 628/411/349 675/412/349
f 675/412/349 628/411/349 676/413/349
f 629/410/349 675/412/349 677/414/349
f 676/413/349 628/411/349 667/415/480
f 629/410/349 677/414/349 630/416/349
f 676/413/349 667/415/480 678/417/480
f 630/416/349 677/414/349 679/418/349
f 678/417/480 667/415/480 659/419/351
f 630/416/349 679/418/349 631/420/349
f 678/417/480 659/419/351 680/421/351
f 631/420/349 679/418/349 681/422/254
f 680/421/351 659/419/351 660/423/351
f 631/420/349 681/422/254 632/424/254
f 680/421/351 660/423/351 682/425/351
f 682/425/351 660/423/351 663/426/351
f 682/425/351 663/426/351 683/427/351
f 632/424/254 681/422/254 684/428/254
f 632/424/254 684/428/254 633/429/254
f 633/429/254 684/428/254 685/430/254
f 633/429/254 685/430/254 634/431/254
f 634/431/254 685/430/254 686/432/254
f 634/431/254 686/432/254 635/433/254
f 635/433/254 686/432/254 636/434/254
f 636/434/254 686/432/254 687/435/254
f 636/434/254 687/435/254 637/436/254
f 637/436/254 687/435/254 688/437/254
f 637/436/254 688/437/254 68/438/254
f 637/436/254 68/438/254 33/439/254
f 584/440/3 585/441/3 652/442/3
f 652/442/3 585/441/3 653/443/3
f 689/428/287 643/429/287 690/430/287
f 690/430/287 643/429/287 644/431/287
f 643/429/287 689/428/287 642/424/287
f 690/430/287 644/431/287 691/432/287
f 642/424/287 689/428/287 692/422/287
f 691/432/287 644/431/287 645/433/287
f 642/424/287 692/422/287 641/420/421
f 691/432/287 645/433/287 646/434/287
f 641/420/421 692/422/287 693/418/421
f 691/432/287 646/434/287 694/435/287
f 641/420/421 693/418/421 640/416/421
f 694/435/287 646/434/287 647/436/287
f 640/416/421 693/418/421 695/414/421
f 694/435/287 647/436/287 696/437/287
f 696/437/287 647/436/287 70/438/287
f 70/438/287 647/436/287 4/439/287
f 640/416/421 695/414/421 639/410/421
f 639/410/421 695/414/421 697/412/421
f 639/410/421 697/412/421 638/411/421
f 638/411/421 697/412/421 698/413/421
f 638/411/421 698/413/421 668/415/419
f 668/415/419 698/413/421 699/417/419
f 668/415/419 699/417/419 662/419/420
f 662/419/420 699/417/419 700/421/420
f 662/419/420 700/421/420 661/423/420
f 661/423/420 700/421/420 701/425/420
f 661/423/420 701/425/420 664/426/420
f 664/426/420 701/425/420 702/427/420
f 583/355/183 582/354/183 703/444/183
f 703/444/183 582/354/183 704/445/183
f 655/446/481 656/447/482 654/448/481
f 654/448/481 656/447/482 444/449/483
f 444/449/483 656/447/482 448/450/484
f 654/448/481 444/449/483 705/451/483
f 705/451/483 444/449/483 570/340/485
f 570/340/485 444/449/483 442/341/485
f 589/362/486 579/351/486 670/404/486
f 670/404/486 579/351/486 706/452/486
f 81/453/487 85/49/487 71/454/487
f 71/454/487 85/49/487 40/37/487
f 707/455/199 708/456/199 680/421/199
f 680/421/199 708/456/199 678/417/199
f 707/455/199 680/421/199 682/425/199
f 678/417/199 708/456/199 709/457/199
f 707/455/199 682/425/199 710/458/199
f 678/417/199 709/457/199 676/413/199
f 710/458/199 682/425/199 683/427/199
f 710/458/199 683/427/199 711/459/199
f 710/458/199 711/459/199 712/460/199
f 676/413/199 709/457/199 713/461/199
f 676/413/199 713/461/199 675/412/199
f 675/412/199 713/461/199 677/414/199
f 677/414/199 713/461/199 714/462/199
f 677/414/199 714/462/199 679/418/199
f 679/418/199 714/462/199 681/422/199
f 681/422/199 714/462/199 715/463/199
f 681/422/199 715/463/199 684/428/199
f 684/428/199 715/463/199 685/430/199
f 685/430/199 715/463/199 716/464/199
f 685/430/199 716/464/199 686/432/199
f 686/432/199 716/464/199 687/435/199
f 687/435/199 716/464/199 67/465/199
f 687/435/199 67/465/199 688/437/199
f 688/437/199 67/465/199 68/438/199
f 579/351/488 583/355/488 706/452/488
f 706/452/488 583/355/488 703/466/488
f 591/365/183 590/363/183 650/381/183
f 650/381/183 590/363/183 669/467/183
f 82/453/489 83/454/489 86/49/489
f 86/49/489 83/454/489 43/37/489
f 717/455/123 700/421/123 718/456/123
f 718/456/123 700/421/123 699/417/123
f 700/421/123 717/455/123 701/425/123
f 718/456/123 699/417/123 719/457/123
f 701/425/123 717/455/123 720/458/123
f 719/457/123 699/417/123 698/413/123
f 701/425/123 720/458/123 702/427/123
f 702/427/123 720/458/123 721/459/123
f 721/459/123 720/458/123 722/460/123
f 719/457/123 698/413/123 723/461/123
f 723/461/123 698/413/123 697/412/123
f 723/461/123 697/412/123 695/414/123
f 723/461/123 695/414/123 724/462/123
f 724/462/123 695/414/123 693/418/123
f 724/462/123 693/418/123 692/422/123
f 724/462/123 692/422/123 725/463/123
f 725/463/123 692/422/123 689/428/123
f 725/463/123 689/428/123 690/430/123
f 725/463/123 690/430/123 726/464/159
f 726/464/159 690/430/123 691/432/123
f 726/464/159 691/432/123 694/435/159
f 726/464/159 694/435/159 69/465/159
f 69/465/159 694/435/159 696/437/159
f 69/465/159 696/437/159 70/438/159
f 571/468/183 572/344/183 570/469/183
f 570/469/183 572/344/183 573/345/183
f 570/469/183 573/345/183 705/470/183
f 705/470/183 573/345/183 577/349/183
f 705/470/183 577/349/183 575/347/183
f 705/470/183 575/347/183 654/387/183
f 586/471/490 584/440/490 651/383/490
f 651/383/490 584/440/490 652/442/490
f 672/472/491 671/473/491 727/474/491
f 727/474/491 671/473/491 728/475/491
f 729/476/479 722/460/479 720/458/479
f 729/476/479 720/458/479 730/477/479
f 730/477/479 720/458/479 731/475/479
f 730/477/479 731/475/479 732/478/479
f 732/478/479 731/475/479 733/474/479
f 731/475/479 720/458/479 717/455/477
f 731/475/479 717/455/477 734/479/477
f 731/475/479 734/479/477 735/480/477
f 734/479/477 717/455/477 718/456/492
f 735/480/477 734/479/477 736/481/477
f 734/479/477 718/456/492 737/482/492
f 734/479/477 737/482/492 736/481/477
f 737/482/492 718/456/492 719/457/493
f 736/481/477 737/482/492 738/483/492
f 738/483/492 737/482/492 739/484/493
f 739/484/493 737/482/492 719/457/493
f 738/483/492 739/484/493 740/485/479
f 739/484/493 719/457/493 741/486/493
f 739/484/493 741/486/493 740/485/479
f 741/486/493 719/457/493 723/461/493
f 740/485/479 741/486/493 742/487/479
f 741/486/493 723/461/493 724/462/493
f 742/487/479 741/486/493 743/488/479
f 741/486/493 724/462/493 744/489/493
f 741/486/493 744/489/493 743/488/479
f 744/489/493 724/462/493 725/463/493
f 743/488/479 744/489/493 745/490/479
f 745/490/479 744/489/493 746/491/493
f 746/491/493 744/489/493 725/463/493
f 745/490/479 746/491/493 65/38/479
f 65/38/479 746/491/493 64/36/479
f 64/36/479 746/491/493 86/49/479
f 86/49/479 746/491/493 725/463/493
f 86/49/479 725/463/493 726/464/479
f 86/49/479 726/464/479 82/453/479
f 82/453/479 726/464/479 69/465/479
f 742/487/479 747/486/479 740/485/479
f 747/486/479 742/487/479 743/488/479
f 740/485/479 747/486/479 748/484/479
f 740/485/479 748/484/479 738/483/492
f 738/483/492 748/484/479 749/482/492
f 738/483/492 749/482/492 736/481/477
f 749/482/492 748/484/479 709/457/479
f 709/457/479 748/484/479 747/486/479
f 709/457/479 747/486/479 713/461/479
f 749/482/492 709/457/479 708/456/494
f 713/461/479 747/486/479 714/462/479
f 736/481/477 749/482/492 750/479/477
f 750/479/477 749/482/492 708/456/494
f 736/481/477 750/479/477 735/480/477
f 750/479/477 708/456/494 707/455/477
f 735/480/477 750/479/477 728/475/479
f 728/475/479 750/479/477 707/455/477
f 728/475/479 707/455/477 710/458/479
f 751/489/479 714/462/479 747/486/479
f 751/489/479 747/486/479 743/488/479
f 714/462/479 751/489/479 715/463/479
f 751/489/479 743/488/479 745/490/479
f 728/475/479 710/458/479 752/477/479
f 752/477/479 710/458/479 753/476/479
f 753/476/479 710/458/479 712/460/479
f 728/475/479 752/477/479 754/478/479
f 728/475/479 754/478/479 727/474/479
f 751/489/479 745/490/479 755/491/479
f 751/489/479 755/491/479 715/463/479
f 755/491/479 745/490/479 65/38/479
f 755/491/479 65/38/479 66/36/479
f 755/491/479 66/36/479 85/49/493
f 755/491/479 85/49/493 715/463/479
f 715/463/479 85/49/493 716/464/493
f 716/464/493 85/49/493 81/453/493
f 716/464/493 81/453/493 67/465/493
f 673/472/495 733/474/495 674/473/495
f 674/473/495 733/474/495 731/475/495
f 84/407/479 87/492/479 44/22/479
f 44/22/479 87/492/479 41/24/479
f 41/24/479 87/492/479 39/22/493
f 39/22/493 87/492/479 72/407/493
f 588/493/183 586/471/183 649/382/183
f 649/382/183 586/471/183 651/383/183
f 683/427/253 663/426/253 501/494/253
f 664/426/162 702/427/162 320/494/162
f 210/150/496 208/148/496 663/495/496
f 663/495/496 208/148/496 501/205/496
f 321/150/496 664/495/496 319/148/496
f 319/148/496 664/495/496 320/205/496
f 683/427/497 501/494/497 711/459/497
f 711/459/497 501/494/497 500/496/497
f 756/497/498 712/460/498 500/496/498
f 500/496/498 712/460/498 711/459/498
f 312/496/499 320/494/499 721/459/499
f 721/459/499 320/494/499 702/427/499
f 721/459/500 722/460/500 312/496/500
f 312/496/500 722/460/500 757/497/500
f 672/472/501 727/474/501 758/498/501
f 758/498/501 727/474/501 754/478/501
f 758/498/501 754/478/501 752/477/502
f 758/498/501 752/477/502 759/499/502
f 759/499/502 752/477/502 760/500/502
f 760/500/502 752/477/502 753/476/502
f 760/500/502 753/476/502 712/460/502
f 760/500/502 712/460/502 756/497/502
f 673/472/503 761/498/503 733/474/503
f 733/474/503 761/498/503 732/478/503
f 732/478/503 761/498/503 730/477/504
f 730/477/504 761/498/503 762/499/504
f 730/477/504 762/499/504 763/500/504
f 730/477/504 763/500/504 729/476/504
f 729/476/504 763/500/504 722/460/504
f 722/460/504 763/500/504 757/497/504
f 764/501/505 765/502/506 297/503/237
f 297/503/237 765/502/506 295/504/235
f 764/501/505 297/503/237 299/505/239
f 764/501/505 299/505/239 766/506/507
f 766/506/507 299/505/239 301/507/158
f 766/506/507 301/507/158 767/508/508
f 767/508/508 301/507/158 303/509/242
f 767/508/508 303/509/242 768/510/509
f 768/510/509 303/509/242 308/511/246
f 768/510/509 308/511/246 757/512/510
f 499/513/366 756/497/511 500/496/367
f 757/497/510 308/513/246 312/496/248
f 295/504/235 765/502/506 657/394/512
f 295/504/235 657/394/512 293/393/233
f 657/394/512 765/502/506 673/409/513
f 673/409/513 765/502/506 761/514/514
f 761/514/514 765/502/506 764/501/505
f 761/514/514 764/501/505 762/515/514
f 762/515/514 764/501/505 766/506/507
f 762/515/514 766/506/507 763/516/514
f 763/516/514 766/506/507 767/508/508
f 763/516/514 767/508/508 768/510/509
f 763/516/514 768/510/509 757/512/510
f 494/504/362 769/502/515 495/503/363
f 493/393/361 665/394/516 494/504/362
f 494/504/362 665/394/516 769/502/515
f 769/502/515 665/394/516 672/409/514
f 769/502/515 672/409/514 758/514/513
f 495/503/363 769/502/515 770/501/517
f 770/501/517 769/502/515 758/514/513
f 495/503/363 770/501/517 496/505/364
f 770/501/517 758/514/513 759/515/513
f 496/505/364 770/501/517 771/506/518
f 771/506/518 770/501/517 759/515/513
f 496/505/364 771/506/518 497/507/247
f 771/506/518 759/515/513 760/516/513
f 497/507/247 771/506/518 772/508/519
f 772/508/519 771/506/518 760/516/513
f 497/507/247 772/508/519 498/509/365
f 772/508/519 760/516/513 773/510/520
f 772/508/519 773/510/520 498/509/365
f 773/510/520 760/516/513 756/512/511
f 498/509/365 773/510/520 499/511/366
f 499/511/366 773/510/520 756/512/511
f 666/395/521 493/393/521 774/517/521
f 774/517/521 493/393/521 292/518/521
f 292/518/522 293/393/522 774/517/522
f 774/517/522 293/393/522 658/395/522
f 322/206/523 324/208/523 467/307/523
f 467/307/523 324/208/523 472/312/523
f 569/312/524 382/208/524 548/307/524
f 548/307/524 382/208/524 381/206/524
f 671/408/525 666/395/525 775/519/526
f 775/519/526 666/395/525 774/520/526
f 774/520/526 658/395/526 775/519/526
f 775/519/526 658/395/526 674/408/526
f 728/475/527 671/473/527 735/480/527
f 735/480/527 671/473/527 775/521/527
f 775/521/527 674/473/527 735/480/527
f 735/480/527 674/473/527 731/475/527
