# CS2 body mesh, tools/cs2_glb_to_obj.py
v 0.03699 -0.01948 0.03688
v 0.03699 -0.01948 0.04225
v 0.0357 -0.01945 0.04225
v 0.0357 -0.01945 0.03688
v 0.03452 -0.01894 0.04225
v 0.03731 -0.02134 0.03313
v 0.03452 -0.01894 0.03688
v 0.0363 -0.02141 0.03313
v 0.03731 -0.02134 -0.00212
v 0.03433 -0.02098 0.03313
v 0.03344 -0.02048 0.03313
v 0.03529 -0.02129 0.03313
v 0.0363 -0.02141 -0.00212
v 0.03718 -0.02057 -0.00294
v 0.03829 -0.02106 -0.00212
v 0.03529 -0.02129 -0.00212
v 0.03546 -0.02053 -0.00294
v 0.03433 -0.02098 -0.00212
v 0.03344 -0.02048 -0.00212
v 0.03389 -0.01984 -0.00294
v 0.03389 -0.01984 -0.00404
v 0.03546 -0.02053 -0.00404
v 0.03718 -0.02057 -0.00404
v 0.03433 -0.02098 -0.00433
v 0.03344 -0.02048 -0.00433
v 0.03344 -0.02048 -0.00538
v 0.03433 -0.02098 -0.00538
v 0.03529 -0.02129 -0.00538
v 0.03529 -0.02129 -0.00433
v 0.0363 -0.02141 -0.00433
v 0.0363 -0.02141 -0.00538
v 0.03731 -0.02134 -0.00538
v 0.03731 -0.02134 -0.00433
v 0.03829 -0.02106 -0.00433
v 0.03878 -0.01995 -0.00404
v 0.0392 -0.0206 -0.00433
v 0.03411 -0.01462 0.04225
v 0.0349 -0.01386 0.04225
v 0.03464 -0.01345 0.04225
v 0.03584 -0.01299 0.04225
v 0.03371 -0.01434 0.04225
v 0.03593 -0.01346 0.04225
v 0.03367 -0.01563 0.04225
v 0.03713 -0.01301 0.04225
v 0.03319 -0.01552 0.04225
v 0.03702 -0.01349 0.04225
v 0.03364 -0.01672 0.04225
v 0.03831 -0.01353 0.04225
v 0.03317 -0.01681 0.04225
v 0.03803 -0.01393 0.04225
v 0.03404 -0.01775 0.04225
v 0.0392 -0.01446 0.04225
v 0.03363 -0.01801 0.04225
v 0.0348 -0.01854 0.04225
v 0.03879 -0.01472 0.04225
v 0.03966 -0.01566 0.04225
v 0.03919 -0.01575 0.04225
v 0.03963 -0.01695 0.04225
v 0.03916 -0.01684 0.04225
v 0.03912 -0.01813 0.04225
v 0.03872 -0.01785 0.04225
v 0.03819 -0.01902 0.04225
v 0.03793 -0.01861 0.04225
v 0.0369 -0.019 0.04225
v 0.03581 -0.01898 0.04225
v 0.03456 -0.01741 -0.00521
v 0.03479 -0.01727 -0.00581
v 0.03531 -0.01781 -0.00581
v 0.03516 -0.01803 -0.00521
v 0.03425 -0.01661 -0.00521
v 0.036 -0.01811 -0.00581
v 0.03594 -0.01838 -0.00521
v 0.03589 -0.01698 -0.00581
v 0.03452 -0.01657 -0.00581
v 0.03427 -0.01576 -0.00521
v 0.03552 -0.01639 -0.00581
v 0.03657 -0.01713 -0.00581
v 0.03454 -0.01582 -0.00581
v 0.03462 -0.01498 -0.00521
v 0.03567 -0.01571 -0.00581
v 0.03484 -0.01513 -0.00581
v 0.03524 -0.01438 -0.00521
v 0.03538 -0.01461 -0.00581
v 0.03603 -0.01407 -0.00521
v 0.03626 -0.01533 -0.00581
v 0.03608 -0.01434 -0.00581
v 0.03641 -0.01623 -0.00548
v 0.03683 -0.01435 -0.00581
v 0.03689 -0.01409 -0.00521
v 0.03694 -0.01549 -0.00581
v 0.03752 -0.01466 -0.00581
v 0.03804 -0.0152 -0.00581
v 0.03731 -0.01608 -0.00581
v 0.03831 -0.0159 -0.00581
v 0.03829 -0.01665 -0.00581
v 0.03716 -0.01676 -0.00581
v 0.03799 -0.01734 -0.00581
v 0.03745 -0.01786 -0.00581
v 0.03675 -0.01813 -0.00581
v 0.0368 -0.01839 -0.00521
v 0.03584 -0.01883 -0.00567
v 0.03688 -0.01885 -0.00567
v 0.03759 -0.01808 -0.00521
v 0.03722 -0.02078 -0.00567
v 0.03784 -0.01847 -0.00567
v 0.03821 -0.01749 -0.00521
v 0.03889 -0.02013 -0.00567
v 0.0402 -0.01888 -0.00567
v 0.03829 -0.02106 -0.00538
v 0.03542 -0.02074 -0.00567
v 0.03489 -0.01841 -0.00567
v 0.03377 -0.02002 -0.00567
v 0.03418 -0.01766 -0.00567
v 0.03267 -0.01982 -0.00538
v 0.03252 -0.01871 -0.00567
v 0.03205 -0.01902 -0.00538
v 0.0338 -0.01669 -0.00567
v 0.03159 -0.01811 -0.00538
v 0.03187 -0.01704 -0.00567
v 0.03131 -0.01713 -0.00538
v 0.03382 -0.01566 -0.00567
v 0.03124 -0.01612 -0.00538
v 0.03191 -0.01523 -0.00567
v 0.03136 -0.01511 -0.00538
v 0.03424 -0.01471 -0.00567
v 0.03167 -0.01415 -0.00538
v 0.03263 -0.01359 -0.00567
v 0.03217 -0.01326 -0.00538
v 0.03499 -0.014 -0.00567
v 0.03283 -0.01249 -0.00538
v 0.03393 -0.01234 -0.00567
v 0.03363 -0.01186 -0.00538
v 0.03595 -0.01362 -0.00567
v 0.03454 -0.01141 -0.00538
v 0.03561 -0.01169 -0.00567
v 0.03551 -0.01113 -0.00538
v 0.03653 -0.01105 -0.00538
v 0.03741 -0.01173 -0.00567
v 0.03754 -0.01118 -0.00538
v 0.0385 -0.01149 -0.00538
v 0.03906 -0.01245 -0.00567
v 0.03699 -0.01364 -0.00567
v 0.03794 -0.01406 -0.00567
v 0.03767 -0.01444 -0.00521
v 0.03865 -0.01481 -0.00567
v 0.04031 -0.01375 -0.00567
v 0.03826 -0.01506 -0.00521
v 0.03903 -0.01577 -0.00567
v 0.04096 -0.01543 -0.00567
v 0.03857 -0.01585 -0.00521
v 0.03901 -0.01681 -0.00567
v 0.04092 -0.01723 -0.00567
v 0.03856 -0.01671 -0.00521
v 0.03859 -0.01776 -0.00567
v 0.04116 -0.01832 -0.00538
v 0.04147 -0.01736 -0.00538
v 0.04066 -0.01921 -0.00538
v 0.04159 -0.01635 -0.00538
v 0.04 -0.01998 -0.00538
v 0.0392 -0.0206 -0.00538
v 0.04152 -0.01533 -0.00538
v 0.04124 -0.01436 -0.00538
v 0.04078 -0.01345 -0.00538
v 0.04016 -0.01265 -0.00538
v 0.03939 -0.01199 -0.00538
v 0.03636 -0.01894 0.04496
v 0.03446 -0.01811 0.04496
v 0.03637 -0.01844 0.04964
v 0.03482 -0.01776 0.04964
v 0.03639 -0.01757 0.05351
v 0.03545 -0.01716 0.05351
v 0.0364 -0.01699 0.05485
v 0.03587 -0.01676 0.05485
v 0.03641 -0.01623 0.05535
v 0.03643 -0.01548 0.05485
v 0.03589 -0.01569 0.05485
v 0.03644 -0.0149 0.05351
v 0.03566 -0.01622 0.05485
v 0.03549 -0.01527 0.05351
v 0.03646 -0.01403 0.04964
v 0.03508 -0.0162 0.05351
v 0.03489 -0.01464 0.04964
v 0.03647 -0.01352 0.04496
v 0.03421 -0.01619 0.04964
v 0.03454 -0.01428 0.04496
v 0.03371 -0.01617 0.04496
v 0.03912 -0.01629 0.04496
v 0.03829 -0.01819 0.04496
v 0.03837 -0.01436 0.04496
v 0.03801 -0.01471 0.04964
v 0.03862 -0.01628 0.04964
v 0.03738 -0.01531 0.05351
v 0.03794 -0.01783 0.04964
v 0.03775 -0.01626 0.05351
v 0.03734 -0.0172 0.05351
v 0.03696 -0.01571 0.05485
v 0.03717 -0.01625 0.05485
v 0.03694 -0.01678 0.05485
v 0.03939 -0.01199 -0.00433
v 0.0385 -0.01149 -0.00433
v 0.03894 -0.01263 -0.00404
v 0.03737 -0.01194 -0.00404
v 0.03754 -0.01118 -0.00433
v 0.03653 -0.01105 -0.00433
v 0.03552 -0.01113 -0.00538
v 0.03552 -0.01113 -0.00433
v 0.03565 -0.0119 -0.00404
v 0.03454 -0.01141 -0.00433
v 0.03565 -0.0119 -0.00294
v 0.03363 -0.01186 -0.00433
v 0.03737 -0.01194 -0.00294
v 0.03405 -0.01252 -0.00404
v 0.03283 -0.01249 -0.00433
v 0.03217 -0.01326 -0.00433
v 0.03405 -0.01252 -0.00294
v 0.03281 -0.01371 -0.00404
v 0.03167 -0.01415 -0.00433
v 0.03136 -0.01511 -0.00433
v 0.03281 -0.01371 -0.00294
v 0.03212 -0.01528 -0.00404
v 0.03124 -0.01612 -0.00433
v 0.03131 -0.01713 -0.00433
v 0.03212 -0.01528 -0.00294
v 0.03208 -0.017 -0.00404
v 0.03159 -0.01811 -0.00433
v 0.03205 -0.01902 -0.00433
v 0.03208 -0.017 -0.00294
v 0.0327 -0.0186 -0.00404
v 0.03267 -0.01982 -0.00433
v 0.0327 -0.0186 -0.00294
v 0.03267 -0.01982 -0.00212
v 0.03267 -0.01982 0.03313
v 0.03363 -0.01801 0.03688
v 0.03205 -0.01902 0.03313
v 0.03317 -0.01681 0.03688
v 0.03205 -0.01902 -0.00212
v 0.03159 -0.01811 0.03313
v 0.03159 -0.01811 -0.00212
v 0.03319 -0.01552 0.03688
v 0.03131 -0.01713 0.03313
v 0.03124 -0.01612 0.03313
v 0.03131 -0.01713 -0.00212
v 0.03124 -0.01612 -0.00212
v 0.03136 -0.01511 0.03313
v 0.03372 -0.01435 0.03688
v 0.03167 -0.01415 0.03313
v 0.03136 -0.01511 -0.00212
v 0.03167 -0.01415 -0.00212
v 0.03465 -0.01345 0.03688
v 0.03218 -0.01327 0.03313
v 0.03284 -0.0125 0.03313
v 0.03217 -0.01326 -0.00212
v 0.03283 -0.01249 -0.00212
v 0.03363 -0.01187 0.03313
v 0.03584 -0.01299 0.03688
v 0.03713 -0.01301 0.03688
v 0.03363 -0.01186 -0.00212
v 0.03454 -0.01141 0.03313
v 0.03454 -0.01141 -0.00212
v 0.03552 -0.01113 0.03313
v 0.03653 -0.01105 0.03313
v 0.03754 -0.01118 0.03313
v 0.03552 -0.01113 -0.00212
v 0.03653 -0.01105 -0.00212
v 0.03754 -0.01118 -0.00212
v 0.04116 -0.01832 -0.00212
v 0.04116 -0.01832 0.03313
v 0.04066 -0.01921 0.03313
v 0.03912 -0.01813 0.03688
v 0.04066 -0.01921 -0.00212
v 0.04 -0.01998 0.03313
v 0.04002 -0.01876 -0.00294
v 0.04 -0.01998 -0.00212
v 0.0392 -0.0206 0.03313
v 0.03819 -0.01902 0.03688
v 0.0392 -0.0206 -0.00212
v 0.03878 -0.01995 -0.00294
v 0.03829 -0.02106 0.03313
v 0.03963 -0.01695 0.03688
v 0.03966 -0.01566 0.03688
v 0.04147 -0.01736 0.03313
v 0.04147 -0.01736 -0.00212
v 0.04159 -0.01635 0.03313
v 0.04159 -0.01635 -0.00212
v 0.04071 -0.01719 -0.00294
v 0.04152 -0.01533 -0.00212
v 0.04075 -0.01547 -0.00294
v 0.04152 -0.01533 0.03313
v 0.04124 -0.01436 -0.00212
v 0.04124 -0.01436 0.03313
v 0.0392 -0.01446 0.03688
v 0.03831 -0.01353 0.03688
v 0.0385 -0.01149 0.03313
v 0.0385 -0.01149 -0.00212
v 0.03939 -0.01199 0.03313
v 0.04016 -0.01265 0.03313
v 0.03939 -0.01199 -0.00212
v 0.03894 -0.01263 -0.00294
v 0.04078 -0.01345 0.03313
v 0.04016 -0.01265 -0.00212
v 0.04078 -0.01345 -0.00212
v 0.04013 -0.01387 -0.00294
v 0.04013 -0.01387 -0.00404
v 0.04075 -0.01547 -0.00404
v 0.04016 -0.01265 -0.00433
v 0.04078 -0.01345 -0.00433
v 0.04124 -0.01436 -0.00433
v 0.04152 -0.01533 -0.00433
v 0.04159 -0.01635 -0.00433
v 0.04071 -0.01719 -0.00404
v 0.04147 -0.01736 -0.00433
v 0.04116 -0.01832 -0.00433
v 0.04002 -0.01876 -0.00404
v 0.04066 -0.01921 -0.00433
v 0.04 -0.01998 -0.00433
vt 0.758789 0.946777
vt 0.758789 0.940918
vt 0.757324 0.940918
vt 0.757324 0.946777
vt 0.755859 0.940918
vt 0.756836 0.95166
vt 0.755859 0.946777
vt 0.755859 0.95166
vt 0.756836 0.992676
vt 0.753906 0.95166
vt 0.752441 0.95166
vt 0.754883 0.95166
vt 0.755859 0.992676
vt 0.756836 0.993652
vt 0.758301 0.992676
vt 0.754883 0.992676
vt 0.754395 0.993652
vt 0.753906 0.992676
vt 0.752441 0.992676
vt 0.752441 0.993652
vt 0.751953 0.995117
vt 0.754395 0.995117
vt 0.756348 0.995117
vt 0.75293 0.996094
vt 0.751465 0.996094
vt 0.751465 0.997559
vt 0.752441 0.997559
vt 0.753906 0.997559
vt 0.753906 0.996094
vt 0.754883 0.996094
vt 0.754883 0.997559
vt 0.756348 0.997559
vt 0.756348 0.996094
vt 0.757324 0.996094
vt 0.758789 0.995117
vt 0.758301 0.996094
vt 0.110779 0.089966
vt 0.110779 0.088318
vt 0.110291 0.088318
vt 0.110291 0.086609
vt 0.110291 0.089966
vt 0.110779 0.086609
vt 0.110779 0.091614
vt 0.110291 0.0849
vt 0.110291 0.091553
vt 0.110779 0.0849
vt 0.110779 0.09314
vt 0.110291 0.083191
vt 0.110291 0.093079
vt 0.110779 0.083191
vt 0.110779 0.094604
vt 0.110291 0.081482
vt 0.110291 0.094543
vt 0.110779 0.095947
vt 0.110291 0.096008
vt 0.110779 0.081482
vt 0.110291 0.079773
vt 0.110779 0.079773
vt 0.110291 0.078064
vt 0.110779 0.078064
vt 0.110291 0.076416
vt 0.110779 0.076416
vt 0.110291 0.074829
vt 0.110779 0.074829
vt 0.110291 0.073364
vt 0.110779 0.073303
vt 0.110291 0.071899
vt 0.110779 0.071838
vt 0.110291 0.070435
vt 0.110779 0.070496
vt 0.518066 0.201904
vt 0.518066 0.201416
vt 0.51709 0.201538
vt 0.51709 0.202148
vt 0.519043 0.201416
vt 0.516602 0.201416
vt 0.516113 0.202026
vt 0.51709 0.200439
vt 0.518555 0.200928
vt 0.519531 0.200439
vt 0.518066 0.200195
vt 0.516602 0.200195
vt 0.519043 0.200195
vt 0.52002 0.199463
vt 0.518066 0.199463
vt 0.519043 0.199463
vt 0.519531 0.198486
vt 0.519043 0.19873
vt 0.519043 0.197632
vt 0.518066 0.198853
vt 0.518555 0.197998
vt 0.51709 0.199463
vt 0.518066 0.197632
vt 0.518066 0.197021
vt 0.51709 0.198486
vt 0.51709 0.19751
vt 0.516602 0.197632
vt 0.516602 0.198853
vt 0.515625 0.19812
vt 0.515137 0.19873
vt 0.516113 0.199463
vt 0.515137 0.199585
vt 0.515137 0.200317
vt 0.515625 0.200928
vt 0.515137 0.201416
vt 0.516113 0.202637
vt 0.514648 0.201904
vt 0.514648 0.200562
vt 0.513184 0.203491
vt 0.51416 0.200806
vt 0.514648 0.199585
vt 0.512207 0.20166
vt 0.511719 0.199585
vt 0.512207 0.203003
vt 0.512695 0.203979
vt 0.513672 0.204712
vt 0.515137 0.204712
vt 0.514648 0.205322
vt 0.51709 0.202881
vt 0.516113 0.205688
vt 0.51709 0.205078
vt 0.51709 0.205811
vt 0.518555 0.202515
vt 0.518555 0.205688
vt 0.519531 0.20459
vt 0.519531 0.205322
vt 0.519531 0.201782
vt 0.520508 0.204712
vt 0.520996 0.203369
vt 0.521484 0.203857
vt 0.520508 0.200684
vt 0.522461 0.202881
vt 0.522461 0.201538
vt 0.522949 0.201782
vt 0.520508 0.199463
vt 0.523438 0.200684
vt 0.522949 0.199463
vt 0.523438 0.199341
vt 0.52002 0.19812
vt 0.523438 0.19812
vt 0.522461 0.197266
vt 0.522949 0.197021
vt 0.519531 0.197144
vt 0.522461 0.195923
vt 0.520996 0.195557
vt 0.521484 0.194946
vt 0.520508 0.194214
vt 0.519043 0.194336
vt 0.519531 0.193604
vt 0.518066 0.193359
vt 0.51709 0.19397
vt 0.518555 0.196411
vt 0.51709 0.196167
vt 0.51709 0.196777
vt 0.515625 0.196411
vt 0.515137 0.194336
vt 0.516113 0.197021
vt 0.514648 0.197144
vt 0.513184 0.195679
vt 0.515137 0.197632
vt 0.51416 0.198242
vt 0.512207 0.197388
vt 0.514648 0.198486
vt 0.513672 0.199585
vt 0.51123 0.198364
vt 0.51123 0.197144
vt 0.510742 0.199585
vt 0.511719 0.196045
vt 0.51123 0.200806
vt 0.51123 0.202026
vt 0.512695 0.195068
vt 0.513672 0.194336
vt 0.514648 0.193726
vt 0.515625 0.193359
vt 0.51709 0.193237
vt 0.065063 0.016693
vt 0.06488 0.019989
vt 0.066223 0.016693
vt 0.067383 0.016693
vt 0.067139 0.020676
vt 0.062927 0.025345
vt 0.064575 0.026245
vt 0.060303 0.029358
vt 0.061066 0.030121
vt 0.058807 0.030533
vt 0.059021 0.031052
vt 0.057373 0.030884
vt 0.056854 0.030029
vt 0.056366 0.030212
vt 0.056366 0.02858
vt 0.055969 0.030518
vt 0.055725 0.031036
vt 0.055359 0.028839
vt 0.055542 0.024414
vt 0.054474 0.029312
vt 0.05368 0.03006
vt 0.05368 0.024719
vt 0.054932 0.019485
vt 0.05191 0.025238
vt 0.050232 0.026093
vt 0.052429 0.019638
vt 0.055359 0.016693
vt 0.053955 0.016693
vt 0.052582 0.016693
vt 0.05127 0.016693
vt 0.050079 0.019913
vt 0.050018 0.016693
vt 0.047729 0.020294
vt 0.048828 0.016693
vt 0.047699 0.016693
vt 0.0466 0.016693
vt 0.0625 0.016693
vt 0.061157 0.016693
vt 0.060089 0.019485
vt 0.059723 0.016693
vt 0.062561 0.019669
vt 0.063843 0.016693
vt 0.057526 0.019424
vt 0.058289 0.016693
vt 0.056824 0.016693
vt 0.057465 0.024323
vt 0.059387 0.024429
vt 0.057404 0.028503
vt 0.061218 0.024765
vt 0.058441 0.028595
vt 0.059448 0.02887
vt 0.057404 0.029953
vt 0.057922 0.030029
vt 0.058411 0.030212
vt 0.77002 0.996094
vt 0.770996 0.996094
vt 0.77002 0.995117
vt 0.772461 0.995117
vt 0.772461 0.996094
vt 0.773438 0.996094
vt 0.772461 0.997559
vt 0.773438 0.997559
vt 0.774414 0.997559
vt 0.774414 0.996094
vt 0.774414 0.995117
vt 0.775879 0.996094
vt 0.775879 0.997559
vt 0.776855 0.997559
vt 0.774414 0.993652
vt 0.776855 0.996094
vt 0.772461 0.993652
vt 0.776855 0.995117
vt 0.777832 0.996094
vt 0.777832 0.997559
vt 0.779297 0.997559
vt 0.779297 0.996094
vt 0.776855 0.993652
vt 0.779297 0.995117
vt 0.780273 0.996094
vt 0.780273 0.997559
vt 0.781738 0.997559
vt 0.78125 0.996094
vt 0.778809 0.993652
vt 0.78125 0.995117
vt 0.782715 0.996094
vt 0.782715 0.997559
vt 0.783691 0.997559
vt 0.783691 0.996094
vt 0.78125 0.993652
vt 0.783691 0.995117
vt 0.784668 0.996094
vt 0.785156 0.997559
vt 0.786133 0.997559
vt 0.786133 0.996094
vt 0.783203 0.993652
vt 0.785645 0.995117
vt 0.787109 0.996094
vt 0.787598 0.997559
vt 0.788574 0.997559
vt 0.788086 0.996094
vt 0.788086 0.995117
vt 0.787598 0.993652
vt 0.785645 0.993652
vt 0.786133 0.992676
vt 0.787109 0.992676
vt 0.786133 0.95166
vt 0.787109 0.95166
vt 0.78418 0.946777
vt 0.782715 0.940918
vt 0.78418 0.940918
vt 0.782715 0.946777
vt 0.78125 0.940918
vt 0.785156 0.95166
vt 0.78125 0.946777
vt 0.779297 0.940918
vt 0.785156 0.992676
vt 0.78418 0.95166
vt 0.78418 0.992676
vt 0.779297 0.946777
vt 0.777832 0.940918
vt 0.782715 0.95166
vt 0.781738 0.95166
vt 0.782715 0.992676
vt 0.781738 0.992676
vt 0.780762 0.95166
vt 0.777832 0.946777
vt 0.775879 0.940918
vt 0.779785 0.95166
vt 0.780762 0.992676
vt 0.779785 0.992676
vt 0.775879 0.946777
vt 0.773926 0.940918
vt 0.778809 0.95166
vt 0.777344 0.95166
vt 0.778809 0.992676
vt 0.777344 0.992676
vt 0.776367 0.95166
vt 0.773926 0.946777
vt 0.771973 0.940918
vt 0.771973 0.946777
vt 0.776367 0.992676
vt 0.775391 0.95166
vt 0.775391 0.992676
vt 0.774414 0.95166
vt 0.773438 0.95166
vt 0.771973 0.95166
vt 0.774414 0.992676
vt 0.773438 0.992676
vt 0.771973 0.992676
vt 0.762695 0.992676
vt 0.762695 0.95166
vt 0.76123 0.95166
vt 0.762207 0.946777
vt 0.76123 0.992676
vt 0.760254 0.95166
vt 0.76123 0.993652
vt 0.760254 0.992676
vt 0.759277 0.95166
vt 0.760742 0.946777
vt 0.759277 0.992676
vt 0.758789 0.993652
vt 0.758301 0.95166
vt 0.760742 0.940918
vt 0.762207 0.940918
vt 0.76416 0.946777
vt 0.76416 0.940918
vt 0.766113 0.946777
vt 0.766113 0.940918
vt 0.763672 0.95166
vt 0.763672 0.992676
vt 0.764648 0.95166
vt 0.764648 0.992676
vt 0.763184 0.993652
vt 0.765625 0.992676
vt 0.765625 0.993652
vt 0.765625 0.95166
vt 0.766602 0.992676
vt 0.766602 0.95166
vt 0.768066 0.946777
vt 0.768066 0.940918
vt 0.77002 0.946777
vt 0.77002 0.940918
vt 0.770996 0.95166
vt 0.770996 0.992676
vt 0.77002 0.95166
vt 0.769043 0.95166
vt 0.77002 0.992676
vt 0.77002 0.993652
vt 0.768066 0.95166
vt 0.769043 0.992676
vt 0.768066 0.992676
vt 0.767578 0.993652
vt 0.767578 0.995117
vt 0.765625 0.995117
vt 0.769043 0.996094
vt 0.77002 0.997559
vt 0.769043 0.997559
vt 0.770996 0.997559
vt 0.767578 0.997559
vt 0.767578 0.996094
vt 0.766602 0.996094
vt 0.766602 0.997559
vt 0.765625 0.997559
vt 0.765625 0.996094
vt 0.76416 0.996094
vt 0.76416 0.997559
vt 0.763184 0.997559
vt 0.763184 0.995117
vt 0.763184 0.996094
vt 0.762207 0.996094
vt 0.761719 0.997559
vt 0.760742 0.997559
vt 0.760742 0.995117
vt 0.760742 0.996094
vt 0.759766 0.996094
vt 0.759766 0.997559
vt 0.758301 0.997559
vt 0.757324 0.997559
vn 0.1651 -0.9632 0.2123
vn 0.1745 -0.9847 0
vn -0.2169 -0.9762 0
vn -0.2096 -0.9551 0.2096
vn -0.4018 -0.9157 0
vn 0.172 -0.9838 0.0495
vn -0.3997 -0.8919 0.2116
vn -0.0209 -0.9986 0.048
vn 0.1728 -0.9847 -0.0207
vn -0.4029 -0.914 0.048
vn -0.4897 -0.8707 0.0468
vn -0.2152 -0.9755 0.0459
vn -0.0226 -0.9993 -0.0288
vn 0.1619 -0.9104 -0.3806
vn 0.3619 -0.9318 -0.0284
vn -0.2159 -0.9762 -0.0214
vn -0.2001 -0.9032 -0.3798
vn -0.4028 -0.9148 -0.029
vn -0.4893 -0.8718 -0.0216
vn -0.3822 -0.8442 -0.3759
vn -0.3616 -0.8049 0.4705
vn -0.1909 -0.8577 0.4773
vn 0.1519 -0.8661 0.4762
vn -0.3235 -0.7328 0.5986
vn -0.4289 -0.7645 0.4813
vn -0.4898 -0.8718 0
vn -0.1914 -0.8537 0.4844
vn -0.0166 -0.8014 0.5979
vn -0.022 -0.9998 0
vn 0.1522 -0.8622 0.4831
vn 0.291 -0.7468 0.598
vn 0.4725 -0.7418 0.4758
vn 0.4696 -0.7391 0.4828
vn 0 -0.001 1
vn -0.008 -0.011 -0.9999
vn -0.4102 -0.2579 -0.8748
vn -0.2822 -0.396 -0.8738
vn -0.004 -0.0129 -0.9999
vn -0.012 -0.007 -0.9999
vn -0.108 -0.4706 -0.8757
vn 0.002 -0.0129 -0.9999
vn 0.0665 0.0936 -0.9934
vn -0.4791 -0.0798 -0.8741
vn -0.0139 -0.001 -0.9999
vn 0.1136 0.0209 -0.9933
vn -0.0209 0.1136 -0.9933
vn -0.4711 0.1096 -0.8753
vn -0.0129 0.005 -0.9999
vn 0.0948 -0.0666 -0.9933
vn -0.3956 0.2804 -0.8746
vn -0.011 0.009 -0.9999
vn -0.2577 0.4084 -0.8756
vn -0.007 0.0109 -0.9999
vn 0.0198 -0.1134 -0.9933
vn -0.0798 0.4774 -0.875
vn 0 -0.001 -1
vn 0.1096 0.4711 -0.8753
vn -0.001 0.0129 -0.9999
vn -0.0655 -0.0959 -0.9932
vn 0.2804 0.3956 -0.8746
vn 0.4113 0.2546 -0.8752
vn -0.1145 -0.0187 -0.9932
vn 0.4774 0.0798 -0.875
vn 0.4717 -0.1066 -0.8753
vn -0.0958 0.0643 -0.9933
vn 0.3945 -0.2837 -0.874
vn 0.2563 -0.4116 -0.8746
vn 0.0813 -0.478 -0.8746
vn 0.006 -0.0129 -0.9999
vn 0.0304 0.1294 -0.9911
vn -0.0212 0.1307 -0.9912
vn 0.01 -0.009 -0.9999
vn 0.0198 -0.111 -0.9936
vn -0.0701 0.1137 -0.991
vn 0.0119 -0.005 -0.9999
vn 0.0607 -0.0955 -0.9936
vn 0.0922 -0.0641 -0.9937
vn 0.1532 -0.3901 -0.9079
vn 0.0805 -0.4513 -0.8887
vn -0.0078 -0.4188 -0.908
vn -0.0242 -0.1091 -0.9937
vn -0.0982 -0.4473 -0.889
vn 0.0771 0.1093 -0.991
vn -0.1684 -0.384 -0.9078
vn -0.0652 -0.0911 -0.9937
vn -0.2626 -0.3745 -0.8893
vn 0.1137 0.0701 -0.991
vn -0.3019 -0.2887 -0.9086
vn -0.0944 -0.0618 -0.9936
vn -0.3865 -0.2453 -0.889
vn 0.1307 0.0212 -0.9912
vn -0.3914 -0.1517 -0.9076
vn -0.1099 -0.0209 -0.9937
vn -0.4501 -0.082 -0.8892
vn 0.1306 -0.0304 -0.991
vn -0.4193 0.0091 -0.9078
vn -0.1092 0.0254 -0.9937
vn -0.4478 0.0997 -0.8886
vn 0.1081 -0.077 -0.9912
vn -0.3836 0.1668 -0.9083
vn -0.0911 0.0664 -0.9936
vn -0.3749 0.2643 -0.8886
vn 0.0711 -0.1113 -0.9912
vn -0.289 0.3036 -0.9079
vn -0.0595 0.0954 -0.9937
vn -0.2451 0.3848 -0.8899
vn 0.0224 -0.1309 -0.9911
vn -0.1516 0.3897 -0.9084
vn -0.0187 0.1109 -0.9937
vn -0.0791 0.4508 -0.8891
vn 0.0091 0.4193 -0.9078
vn 0.0254 0.1092 -0.9937
vn 0.0997 0.4478 -0.8886
vn 0.1698 0.381 -0.9089
vn 0.0641 0.0934 -0.9936
vn -0.0293 -0.1317 -0.9909
vn -0.0782 -0.1069 -0.9912
vn 0.005 0.0109 -0.9999
vn -0.1124 -0.07 -0.9912
vn 0.0954 0.0595 -0.9937
vn 0.009 0.009 -0.9999
vn -0.132 -0.0213 -0.991
vn 0.1109 0.0187 -0.9937
vn 0.0129 0.005 -0.9999
vn -0.1294 0.0304 -0.9911
vn 0.1102 -0.0231 -0.9936
vn 0.0129 0.001 -0.9999
vn -0.1093 0.0771 -0.991
vn 0.3827 -0.1699 -0.9081
vn 0.4461 -0.0996 -0.8894
vn 0.3759 -0.2611 -0.8891
vn 0.4177 -0.0091 -0.9085
vn 0.2902 -0.3004 -0.9086
vn 0.2468 -0.3851 -0.8892
vn 0.4508 0.0791 -0.8891
vn 0.3897 0.1516 -0.9084
vn 0.3848 0.2451 -0.8899
vn 0.3036 0.289 -0.9079
vn 0.2613 0.3777 -0.8883
vn 0.2248 -0.9721 0.0667
vn -0.0197 -0.9945 0.1026
vn -0.2383 -0.9692 0.062
vn -0.4013 -0.9112 0.0935
vn -0.4022 -0.9105 0.0964
vn -0.0345 -0.9875 0.154
vn -0.3986 -0.9061 0.1414
vn -0.0498 -0.9646 0.2589
vn -0.3925 -0.8876 0.2409
vn -0.0561 -0.8405 0.5388
vn -0.3444 -0.7806 0.5215
vn 0.0546 0.8421 0.5366
vn -0.5556 0.6333 0.5387
vn 0.0485 0.9644 0.2601
vn -0.8411 0.0576 0.5378
vn -0.8081 -0.3153 0.4975
vn -0.6456 0.7186 0.2586
vn 0.0333 0.9873 0.1552
vn -0.9644 0.0485 0.2601
vn -0.9044 -0.3527 0.24
vn -0.6741 0.7226 0.153
vn 0.0185 0.9947 0.1013
vn -0.9873 0.0333 0.1552
vn -0.9218 -0.3607 0.142
vn -0.6885 0.718 0.1017
vn 0.2395 0.969 0.0608
vn -0.2265 0.9716 0.0681
vn -0.5172 0.8536 0.0631
vn -0.8465 0.5282 0.0662
vn -0.9946 0.0207 0.1015
vn -0.969 0.2395 0.0608
vn -0.9204 -0.3799 0.0926
vn -0.9718 -0.2263 0.0668
vn -0.854 -0.5166 0.0616
vn -0.7215 -0.6922 0.0168
vn 0.8461 -0.5288 0.0677
vn 0.9689 -0.2397 0.0621
vn 0.9946 -0.0185 0.1025
vn 0.9723 0.2236 0.068
vn 0.6907 -0.7158 0.1033
vn 0.515 -0.855 0.0616
vn 0.7151 0.6915 0.1017
vn 0.8555 0.5139 0.063
vn 0.5282 0.8465 0.0662
vn 0.7226 0.6741 0.153
vn 0.9874 -0.0357 0.1542
vn 0.7186 0.6456 0.2586
vn 0.6731 -0.7232 0.1546
vn 0.9645 -0.0511 0.2592
vn 0.6477 -0.716 0.2604
vn 0.6333 0.5556 0.5387
vn 0.841 -0.0547 0.5382
vn 0.5573 -0.6333 0.537
vn 0.5005 0.7201 0.4806
vn 0.3216 0.7354 0.5964
vn 0.5038 0.72 0.4772
vn 0.1891 0.8594 0.4751
vn 0.1896 0.8553 0.4822
vn 0.018 0.802 0.597
vn 0.2158 0.9764 -0.0012
vn 0.021 0.9998 -0.001
vn -0.1734 0.9849 0.0011
vn -0.1505 0.8638 0.4809
vn -0.1536 0.8646 0.4784
vn -0.2891 0.7492 0.5959
vn -0.3637 0.9315 0.0013
vn -0.5393 0.8421 0.0014
vn -0.1604 0.9101 -0.3819
vn -0.4713 0.7392 0.4812
vn 0.1986 0.9029 -0.3812
vn -0.4709 0.7418 0.4775
vn -0.5534 0.5805 0.5974
vn -0.6931 0.7208 0.0014
vn -0.819 0.5737 -0.0014
vn -0.7172 0.5042 0.4809
vn -0.4975 0.7794 -0.3808
vn -0.72 0.5038 0.4772
vn -0.7354 0.3216 0.5964
vn -0.9162 0.4008 0.0013
vn -0.9764 0.2158 0.0012
vn -0.8553 0.1896 0.4822
vn -0.7582 0.5299 -0.3799
vn -0.8581 0.1925 0.4761
vn -0.802 0.018 0.597
vn -0.9998 0.021 0.001
vn -0.9849 -0.1732 0
vn -0.8628 -0.1506 0.4826
vn -0.9029 0.1986 -0.3812
vn -0.8656 -0.1535 0.4767
vn -0.7478 -0.2892 0.5976
vn -0.9317 -0.3633 0
vn -0.8425 -0.5387 0
vn -0.7378 -0.4715 0.4831
vn -0.9109 -0.1603 -0.3802
vn -0.7405 -0.4744 0.476
vn -0.5788 -0.5568 0.5957
vn -0.7215 -0.6924 0
vn -0.6506 -0.7595 0
vn -0.5706 -0.6663 0.48
vn -0.6315 -0.6164 0.4703
vn -0.6626 -0.6478 -0.3758
vn -0.7808 -0.4941 -0.3823
vn -0.7215 -0.6919 -0.0282
vn -0.6511 -0.7587 -0.0196
vn -0.7225 -0.6897 0.0485
vn -0.6511 -0.7577 0.0455
vn -0.7042 -0.6777 0.2119
vn -0.8261 -0.5228 0.2103
vn -0.8435 -0.5348 0.0503
vn -0.963 -0.1692 0.2099
vn -0.9764 0.2158 -0.0012
vn -0.8441 -0.5358 -0.0219
vn -0.9313 -0.3607 0.0498
vn -0.9312 -0.3634 -0.0285
vn -0.9535 0.2117 0.2144
vn -0.9838 -0.173 0.0471
vn -0.9986 0.022 0.0491
vn -0.9845 -0.1741 -0.0208
vn -0.9994 0.0215 -0.0277
vn -0.9751 0.2168 0.0472
vn -0.799 0.5619 0.214
vn -0.5362 0.8441 -0.0014
vn -0.913 0.405 0.0495
vn -0.976 0.217 -0.0202
vn -0.9144 0.4039 -0.0276
vn -0.5278 0.8215 0.2157
vn -0.1734 0.9849 -0.0011
vn -0.8168 0.575 0.0464
vn -0.6919 0.7204 0.0471
vn -0.8191 0.5732 -0.0207
vn -0.6912 0.7222 -0.0267
vn -0.5396 0.8407 0.046
vn -0.1697 0.9619 0.2145
vn 0.2158 0.9764 0.0012
vn 0.2117 0.9535 0.2144
vn -0.5384 0.8425 -0.0205
vn -0.3635 0.9303 0.0486
vn -0.363 0.9314 -0.0271
vn -0.1728 0.9839 0.0458
vn 0.022 0.9986 0.0491
vn 0.2168 0.9751 0.0472
vn -0.1739 0.9846 -0.0196
vn 0.0215 0.9994 -0.0277
vn 0.217 0.976 -0.0202
vn 0.9155 -0.4012 -0.0289
vn 0.9147 -0.4013 0.048
vn 0.8186 -0.5724 0.0478
vn 0.8007 -0.5589 0.2156
vn 0.8174 -0.5758 -0.0193
vn 0.6911 -0.7211 0.0485
vn 0.757 -0.5302 -0.3818
vn 0.6904 -0.7228 -0.0282
vn 0.5353 -0.8433 0.0474
vn 0.5255 -0.8234 0.2139
vn 0.5374 -0.8431 -0.0219
vn 0.4959 -0.7796 -0.3825
vn 0.3615 -0.9312 0.0471
vn 0.5371 -0.8435 0
vn 0.8195 -0.5731 0
vn 0.9539 -0.2115 0.2129
vn 0.9765 -0.2156 0
vn 0.9619 0.1697 0.2145
vn 0.9849 0.1734 -0.0011
vn 0.9752 -0.2166 0.046
vn 0.9765 -0.2145 -0.0213
vn 0.9986 -0.0219 0.048
vn 0.9994 -0.0215 -0.0287
vn 0.9026 -0.2017 -0.3802
vn 0.9846 0.1739 -0.0196
vn 0.9101 0.1604 -0.382
vn 0.9834 0.1755 0.0459
vn 0.9314 0.363 -0.0271
vn 0.9316 0.3603 0.0485
vn 0.8238 0.5243 0.2155
vn 0.8441 0.5362 -0.0014
vn 0.5584 0.8015 0.2138
vn 0.5737 0.819 -0.0014
vn 0.4018 0.9144 0.0494
vn 0.4039 0.9144 -0.0276
vn 0.5718 0.8191 0.0464
vn 0.7204 0.6919 0.0471
vn 0.5732 0.8191 -0.0207
vn 0.5299 0.7582 -0.3799
vn 0.8428 0.5363 0.046
vn 0.7222 0.6912 -0.0267
vn 0.8425 0.5384 -0.0205
vn 0.7794 0.4975 -0.3808
vn 0.7418 0.4709 0.4775
vn 0.8657 0.1504 0.4774
vn 0.5805 0.5534 0.5974
vn 0.7235 0.6903 -0.0014
vn 0.4039 0.9148 -0.0013
vn 0.8441 0.5362 0.0014
vn 0.7392 0.4713 0.4812
vn 0.7471 0.2928 0.5967
vn 0.9327 0.3607 0.0013
vn 0.9849 0.1734 0.0011
vn 0.8627 0.1538 0.4819
vn 0.8019 -0.0152 0.5973
vn 0.9998 -0.021 0
vn 0.8584 -0.1893 0.4769
vn 0.8543 -0.1897 0.4839
vn 0.734 -0.3217 0.5982
vn 0.915 -0.4034 0
vn 0.7214 -0.5036 0.4754
vn 0.7187 -0.5007 0.4824
vn 0.5551 -0.5805 0.5957
vn 0.691 -0.7228 0
vn 0.3618 -0.9323 0
o bullet06__p1_c0
f 1/1/1 2/2/2 3/3/3
f 1/1/1 3/3/3 4/4/4
f 4/4/4 3/3/3 5/5/5
f 1/1/1 4/4/4 6/6/6
f 4/4/4 5/5/5 7/7/7
f 6/6/6 4/4/4 8/8/8
f 6/6/6 8/8/8 9/9/9
f 4/4/4 7/7/7 10/10/10
f 10/10/10 7/7/7 11/11/11
f 8/8/8 4/4/4 12/12/12
f 12/12/12 4/4/4 10/10/10
f 9/9/9 8/8/8 13/13/13
f 13/13/13 8/8/8 12/12/12
f 9/9/9 13/13/13 14/14/14
f 9/9/9 14/14/14 15/15/15
f 13/13/13 12/12/12 16/16/16
f 16/16/16 12/12/12 10/10/10
f 14/14/14 13/13/13 17/17/17
f 17/17/17 13/13/13 16/16/16
f 16/16/16 10/10/10 18/18/18
f 18/18/18 10/10/10 11/11/11
f 16/16/16 18/18/18 17/17/17
f 18/18/18 11/11/11 19/19/19
f 18/18/18 19/19/19 20/20/20
f 18/18/18 20/20/20 17/17/17
f 17/17/17 20/20/20 21/21/21
f 22/22/22 14/14/14 17/17/17
f 22/22/22 17/17/17 21/21/21
f 14/14/14 22/22/22 23/23/23
f 22/22/22 21/21/21 24/24/24
f 24/24/24 21/21/21 25/25/25
f 24/24/24 25/25/25 26/26/26
f 24/24/24 26/26/26 27/27/5
f 24/24/24 27/27/5 28/28/3
f 22/22/22 24/24/24 29/29/27
f 29/29/27 24/24/24 28/28/3
f 22/22/22 29/29/27 30/30/28
f 30/30/28 29/29/27 28/28/3
f 22/22/22 30/30/28 23/23/23
f 30/30/28 28/28/3 31/31/29
f 30/30/28 31/31/29 32/32/2
f 30/30/28 32/32/2 33/33/30
f 30/30/28 33/33/30 23/23/23
f 23/23/23 33/33/30 34/34/31
f 23/23/23 34/34/31 35/35/32
f 35/35/32 34/34/31 36/36/33
f 37/37/34 38/38/34 39/39/34
f 39/39/34 38/38/34 40/40/34
f 37/37/34 39/39/34 41/41/34
f 40/40/34 38/38/34 42/42/34
f 37/37/34 41/41/34 43/43/34
f 40/40/34 42/42/34 44/44/34
f 43/43/34 41/41/34 45/45/34
f 44/44/34 42/42/34 46/46/34
f 43/43/34 45/45/34 47/47/34
f 44/44/34 46/46/34 48/48/34
f 47/47/34 45/45/34 49/49/34
f 48/48/34 46/46/34 50/50/34
f 47/47/34 49/49/34 51/51/34
f 48/48/34 50/50/34 52/52/34
f 51/51/34 49/49/34 53/53/34
f 51/51/34 53/53/34 54/54/34
f 54/54/34 53/53/34 5/55/34
f 52/52/34 50/50/34 55/56/34
f 52/52/34 55/56/34 56/57/34
f 56/57/34 55/56/34 57/58/34
f 56/57/34 57/58/34 58/59/34
f 58/59/34 57/58/34 59/60/34
f 58/59/34 59/60/34 60/61/34
f 60/61/34 59/60/34 61/62/34
f 60/61/34 61/62/34 62/63/34
f 62/63/34 61/62/34 63/64/34
f 62/63/34 63/64/34 2/65/34
f 2/65/34 63/64/34 64/66/34
f 2/65/34 64/66/34 3/67/34
f 3/67/34 64/66/34 65/68/34
f 3/67/34 65/68/34 5/69/34
f 5/69/34 65/68/34 54/70/34
f 66/71/35 67/72/36 68/73/37
f 66/71/35 68/73/37 69/74/38
f 67/72/36 66/71/35 70/75/39
f 69/74/38 68/73/37 71/76/40
f 69/74/38 71/76/40 72/77/41
f 68/73/37 67/72/36 73/78/42
f 68/73/37 73/78/42 71/76/40
f 67/72/36 70/75/39 74/79/43
f 74/79/43 70/75/39 75/80/44
f 73/78/42 67/72/36 76/81/45
f 76/81/45 67/72/36 74/79/43
f 71/76/40 73/78/42 77/82/46
f 74/79/43 75/80/44 78/83/47
f 74/79/43 78/83/47 76/81/45
f 78/83/47 75/80/44 79/84/48
f 76/81/45 78/83/47 80/85/49
f 78/83/47 79/84/48 81/86/50
f 78/83/47 81/86/50 80/85/49
f 81/86/50 79/84/48 82/87/51
f 81/86/50 82/87/51 83/88/52
f 81/86/50 83/88/52 80/85/49
f 83/88/52 82/87/51 84/89/53
f 80/85/49 83/88/52 85/90/54
f 83/88/52 84/89/53 86/91/55
f 83/88/52 86/91/55 85/90/54
f 80/85/49 85/90/54 87/92/56
f 87/92/56 77/82/46 73/78/42
f 85/90/54 86/91/55 88/93/57
f 86/91/55 84/89/53 89/94/58
f 86/91/55 89/94/58 88/93/57
f 85/90/54 88/93/57 90/95/59
f 85/90/54 90/95/59 87/92/56
f 90/95/59 88/93/57 91/96/60
f 90/95/59 91/96/60 92/97/61
f 90/95/59 92/97/61 93/98/62
f 90/95/59 93/98/62 87/92/56
f 93/98/62 92/97/61 94/99/63
f 93/98/62 94/99/63 95/100/64
f 87/92/56 93/98/62 96/101/65
f 96/101/65 93/98/62 95/100/64
f 87/92/56 96/101/65 77/82/46
f 96/101/65 95/100/64 97/102/66
f 96/101/65 97/102/66 98/103/67
f 96/101/65 98/103/67 77/82/46
f 77/82/46 98/103/67 99/104/68
f 77/82/46 99/104/68 71/76/40
f 71/76/40 99/104/68 72/77/41
f 72/77/41 99/104/68 100/105/69
f 72/77/41 100/105/69 101/106/70
f 101/106/70 100/105/69 102/107/71
f 102/107/71 100/105/69 103/108/72
f 101/106/70 102/107/71 104/109/73
f 102/107/71 103/108/72 105/110/74
f 105/110/74 103/108/72 106/111/75
f 102/107/71 105/110/74 107/112/76
f 102/107/71 107/112/76 104/109/73
f 107/112/76 105/110/74 108/113/77
f 104/109/73 107/112/76 109/114/78
f 104/109/73 109/114/78 32/115/79
f 104/109/73 32/115/79 31/116/80
f 110/117/81 101/106/70 104/109/73
f 110/117/81 104/109/73 31/116/80
f 110/117/81 31/116/80 28/118/82
f 101/106/70 110/117/81 111/119/83
f 110/117/81 28/118/82 27/120/84
f 111/119/83 110/117/81 112/121/85
f 112/121/85 110/117/81 27/120/84
f 112/121/85 27/120/84 26/122/86
f 111/119/83 112/121/85 113/123/87
f 112/121/85 26/122/86 114/124/88
f 113/123/87 112/121/85 115/125/89
f 115/125/89 112/121/85 114/124/88
f 115/125/89 114/124/88 116/126/90
f 113/123/87 115/125/89 117/127/91
f 115/125/89 116/126/90 118/128/92
f 117/127/91 115/125/89 119/129/93
f 119/129/93 115/125/89 118/128/92
f 119/129/93 118/128/92 120/130/94
f 117/127/91 119/129/93 121/131/95
f 119/129/93 120/130/94 122/132/96
f 121/131/95 119/129/93 123/133/97
f 123/133/97 119/129/93 122/132/96
f 123/133/97 122/132/96 124/134/98
f 121/131/95 123/133/97 125/135/99
f 123/133/97 124/134/98 126/136/100
f 125/135/99 123/133/97 127/137/101
f 127/137/101 123/133/97 126/136/100
f 127/137/101 126/136/100 128/138/102
f 125/135/99 127/137/101 129/139/103
f 127/137/101 128/138/102 130/140/104
f 129/139/103 127/137/101 131/141/105
f 131/141/105 127/137/101 130/140/104
f 131/141/105 130/140/104 132/142/106
f 129/139/103 131/141/105 133/143/107
f 131/141/105 132/142/106 134/144/108
f 131/141/105 134/144/108 135/145/109
f 131/141/105 135/145/109 133/143/107
f 135/145/109 134/144/108 136/146/110
f 135/145/109 136/146/110 137/147/111
f 135/145/109 137/147/111 138/148/112
f 138/148/112 137/147/111 139/149/113
f 138/148/112 139/149/113 140/150/114
f 138/148/112 140/150/114 141/151/115
f 133/143/107 135/145/109 142/152/116
f 142/152/116 135/145/109 138/148/112
f 133/143/107 142/152/116 84/89/53
f 84/89/53 142/152/116 89/94/58
f 142/152/116 138/148/112 143/153/117
f 142/152/116 143/153/117 89/94/58
f 143/153/117 138/148/112 141/151/115
f 89/94/58 143/153/117 144/154/118
f 143/153/117 141/151/115 145/155/119
f 143/153/117 145/155/119 144/154/118
f 145/155/119 141/151/115 146/156/120
f 144/154/118 145/155/119 147/157/121
f 145/155/119 146/156/120 148/158/122
f 145/155/119 148/158/122 147/157/121
f 148/158/122 146/156/120 149/159/123
f 147/157/121 148/158/122 150/160/124
f 148/158/122 149/159/123 151/161/125
f 148/158/122 151/161/125 150/160/124
f 151/161/125 149/159/123 152/162/126
f 150/160/124 151/161/125 153/163/127
f 151/161/125 152/162/126 154/164/128
f 151/161/125 154/164/128 153/163/127
f 154/164/128 152/162/126 108/113/77
f 153/163/127 154/164/128 106/111/75
f 154/164/128 108/113/77 105/110/74
f 154/164/128 105/110/74 106/111/75
f 108/113/77 152/162/126 155/165/129
f 155/165/129 152/162/126 156/166/130
f 108/113/77 155/165/129 157/167/131
f 156/166/130 152/162/126 158/168/132
f 108/113/77 157/167/131 159/169/133
f 158/168/132 152/162/126 149/159/123
f 108/113/77 159/169/133 107/112/76
f 107/112/76 159/169/133 160/170/134
f 107/112/76 160/170/134 109/114/78
f 158/168/132 149/159/123 161/171/135
f 161/171/135 149/159/123 162/172/136
f 162/172/136 149/159/123 146/156/120
f 162/172/136 146/156/120 163/173/137
f 163/173/137 146/156/120 164/174/138
f 164/174/138 146/156/120 141/151/115
f 164/174/138 141/151/115 165/175/139
f 165/175/139 141/151/115 140/150/114
f 64/176/140 166/177/141 65/178/142
f 65/178/142 166/177/141 54/179/143
f 54/179/143 166/177/141 167/180/144
f 167/180/144 166/177/141 168/181/145
f 167/180/144 168/181/145 169/182/146
f 169/182/146 168/181/145 170/183/147
f 169/182/146 170/183/147 171/184/148
f 171/184/148 170/183/147 172/185/149
f 171/184/148 172/185/149 173/186/150
f 173/186/150 172/185/149 174/187/34
f 175/188/151 176/189/152 174/187/34
f 176/189/152 175/188/151 177/190/153
f 174/187/34 176/189/152 178/191/154
f 174/187/34 178/191/154 173/192/155
f 176/189/152 177/190/153 179/193/156
f 176/189/152 179/193/156 178/191/154
f 179/193/156 177/190/153 180/194/157
f 173/192/155 178/191/154 181/195/158
f 181/195/158 178/191/154 179/193/156
f 173/192/155 181/195/158 171/196/159
f 179/193/156 180/194/157 182/197/160
f 179/193/156 182/197/160 181/195/158
f 182/197/160 180/194/157 183/198/161
f 171/196/159 181/195/158 184/199/162
f 184/199/162 181/195/158 182/197/160
f 171/196/159 184/199/162 169/200/163
f 182/197/160 183/198/161 185/201/164
f 182/197/160 185/201/164 184/199/162
f 46/202/165 42/203/166 183/198/161
f 183/198/161 42/203/166 185/201/164
f 185/201/164 42/203/166 38/204/167
f 185/201/164 38/204/167 37/205/168
f 169/200/163 184/199/162 186/206/169
f 186/206/169 184/199/162 185/201/164
f 186/206/169 185/201/164 37/205/168
f 186/206/169 37/205/168 43/207/170
f 169/200/163 186/206/169 167/208/171
f 186/206/169 43/207/170 47/209/172
f 186/206/169 47/209/172 167/208/171
f 167/208/171 47/209/172 51/210/173
f 167/208/171 51/210/173 54/211/174
f 76/81/45 80/85/49 87/92/56
f 76/81/45 87/92/56 73/78/42
f 72/77/41 101/106/70 111/119/83
f 72/77/41 111/119/83 69/74/38
f 69/74/38 111/119/83 113/123/87
f 69/74/38 113/123/87 66/71/35
f 66/71/35 113/123/87 117/127/91
f 66/71/35 117/127/91 70/75/39
f 70/75/39 117/127/91 121/131/95
f 70/75/39 121/131/95 75/80/44
f 75/80/44 121/131/95 125/135/99
f 75/80/44 125/135/99 79/84/48
f 79/84/48 125/135/99 129/139/103
f 79/84/48 129/139/103 82/87/51
f 82/87/51 129/139/103 133/143/107
f 82/87/51 133/143/107 84/89/53
f 100/105/69 99/104/68 98/103/67
f 100/105/69 98/103/67 103/108/72
f 103/108/72 98/103/67 97/102/66
f 103/108/72 97/102/66 106/111/75
f 106/111/75 97/102/66 95/100/64
f 106/111/75 95/100/64 153/163/127
f 153/163/127 95/100/64 94/99/63
f 153/163/127 94/99/63 150/160/124
f 150/160/124 94/99/63 92/97/61
f 150/160/124 92/97/61 147/157/121
f 147/157/121 92/97/61 91/96/60
f 147/157/121 91/96/60 144/154/118
f 144/154/118 91/96/60 88/93/57
f 144/154/118 88/93/57 89/94/58
f 61/212/175 59/213/176 187/214/177
f 187/214/177 59/213/176 57/215/178
f 61/212/175 187/214/177 188/216/179
f 61/212/175 188/216/179 63/217/180
f 63/217/180 188/216/179 64/176/140
f 64/176/140 188/216/179 166/177/141
f 187/214/177 57/215/178 189/218/181
f 189/218/181 57/215/178 55/219/182
f 189/218/181 55/219/182 50/220/183
f 189/218/181 50/220/183 183/198/161
f 183/198/161 50/220/183 46/202/165
f 189/218/181 183/198/161 180/194/157
f 189/218/181 180/194/157 190/221/184
f 189/218/181 190/221/184 187/214/177
f 190/221/184 180/194/157 177/190/153
f 187/214/177 190/221/184 191/222/185
f 187/214/177 191/222/185 188/216/179
f 190/221/184 177/190/153 192/223/186
f 190/221/184 192/223/186 191/222/185
f 192/223/186 177/190/153 175/188/151
f 188/216/179 191/222/185 193/224/187
f 188/216/179 193/224/187 166/177/141
f 166/177/141 193/224/187 168/181/145
f 193/224/187 191/222/185 194/225/188
f 194/225/188 191/222/185 192/223/186
f 168/181/145 193/224/187 195/226/189
f 195/226/189 193/224/187 194/225/188
f 168/181/145 195/226/189 170/183/147
f 196/227/190 192/223/186 175/188/151
f 192/223/186 196/227/190 194/225/188
f 196/227/190 175/188/151 174/187/34
f 194/225/188 196/227/190 197/228/191
f 194/225/188 197/228/191 195/226/189
f 197/228/191 196/227/190 174/187/34
f 170/183/147 195/226/189 198/229/192
f 198/229/192 195/226/189 197/228/191
f 198/229/192 197/228/191 174/187/34
f 170/183/147 198/229/192 172/185/149
f 172/185/149 198/229/192 174/187/34
f 199/230/193 200/231/194 201/232/195
f 201/232/195 200/231/194 202/233/196
f 202/233/196 200/231/194 203/234/197
f 202/233/196 203/234/197 204/235/198
f 204/235/198 203/234/197 139/236/199
f 204/235/198 139/236/199 137/237/200
f 204/235/198 137/237/200 205/238/201
f 204/235/198 205/238/201 206/239/202
f 202/233/196 204/235/198 207/240/203
f 207/240/203 204/235/198 206/239/202
f 206/239/202 205/238/201 208/241/204
f 206/239/202 208/241/204 207/240/203
f 208/241/204 205/238/201 134/242/205
f 208/241/204 134/242/205 132/243/206
f 202/233/196 207/240/203 209/244/207
f 208/241/204 132/243/206 210/245/208
f 202/233/196 209/244/207 211/246/209
f 207/240/203 208/241/204 212/247/210
f 212/247/210 208/241/204 210/245/208
f 210/245/208 132/243/206 213/248/211
f 210/245/208 213/248/211 212/247/210
f 213/248/211 132/243/206 130/249/212
f 213/248/211 130/249/212 128/250/213
f 213/248/211 128/250/213 214/251/214
f 207/240/203 212/247/210 215/252/215
f 207/240/203 215/252/215 209/244/207
f 212/247/210 213/248/211 216/253/216
f 216/253/216 213/248/211 214/251/214
f 214/251/214 128/250/213 217/254/217
f 214/251/214 217/254/217 216/253/216
f 217/254/217 128/250/213 126/255/218
f 217/254/217 126/255/218 124/256/219
f 217/254/217 124/256/219 218/257/220
f 212/247/210 216/253/216 219/258/221
f 212/247/210 219/258/221 215/252/215
f 216/253/216 217/254/217 220/259/222
f 220/259/222 217/254/217 218/257/220
f 218/257/220 124/256/219 221/260/223
f 218/257/220 221/260/223 220/259/222
f 221/260/223 124/256/219 122/261/224
f 221/260/223 122/261/224 120/262/225
f 221/260/223 120/262/225 222/263/226
f 216/253/216 220/259/222 223/264/227
f 216/253/216 223/264/227 219/258/221
f 220/259/222 221/260/223 224/265/228
f 224/265/228 221/260/223 222/263/226
f 222/263/226 120/262/225 225/266/229
f 222/263/226 225/266/229 224/265/228
f 225/266/229 120/262/225 118/267/230
f 225/266/229 118/267/230 116/268/231
f 225/266/229 116/268/231 226/269/232
f 220/259/222 224/265/228 227/270/233
f 220/259/222 227/270/233 223/264/227
f 224/265/228 225/266/229 228/271/234
f 228/271/234 225/266/229 226/269/232
f 226/269/232 116/268/231 229/272/235
f 226/269/232 229/272/235 228/271/234
f 229/272/235 116/268/231 114/273/236
f 229/272/235 114/273/236 26/274/237
f 229/272/235 26/274/237 25/275/238
f 229/272/235 25/275/238 21/276/239
f 229/272/235 21/276/239 228/271/234
f 228/271/234 21/276/239 20/277/240
f 230/278/241 224/265/228 228/271/234
f 230/278/241 228/271/234 20/277/240
f 224/265/228 230/278/241 227/270/233
f 230/278/241 20/277/240 231/279/242
f 231/279/242 20/277/240 19/280/243
f 231/279/242 19/280/243 232/281/244
f 232/281/244 19/280/243 11/282/245
f 232/281/244 11/282/245 7/283/246
f 53/284/231 7/283/246 5/285/236
f 7/283/246 53/284/231 233/286/247
f 7/283/246 233/286/247 232/281/244
f 233/286/247 53/284/231 49/287/225
f 231/279/242 232/281/244 234/288/248
f 234/288/248 232/281/244 233/286/247
f 233/286/247 49/287/225 235/289/249
f 233/286/247 235/289/249 234/288/248
f 235/289/249 49/287/225 45/290/250
f 231/279/242 234/288/248 236/291/251
f 231/279/242 236/291/251 230/278/241
f 236/291/251 234/288/248 237/292/252
f 237/292/252 234/288/248 235/289/249
f 230/278/241 236/291/251 238/293/253
f 238/293/253 236/291/251 237/292/252
f 230/278/241 238/293/253 227/270/233
f 235/289/249 45/290/250 239/294/254
f 239/294/254 45/290/250 41/295/213
f 237/292/252 235/289/249 240/296/255
f 237/292/252 240/296/255 238/293/253
f 240/296/255 235/289/249 241/297/256
f 241/297/256 235/289/249 239/294/254
f 238/293/253 240/296/255 242/298/257
f 242/298/257 240/296/255 241/297/256
f 238/293/253 242/298/257 227/270/233
f 227/270/233 242/298/257 243/299/258
f 243/299/258 242/298/257 241/297/256
f 227/270/233 243/299/258 223/264/227
f 241/297/256 239/294/254 244/300/259
f 241/297/256 244/300/259 243/299/258
f 245/301/260 239/294/254 41/295/213
f 245/301/260 41/295/213 39/302/261
f 244/300/259 239/294/254 246/303/262
f 246/303/262 239/294/254 245/301/260
f 243/299/258 244/300/259 247/304/263
f 247/304/263 244/300/259 246/303/262
f 243/299/258 247/304/263 223/264/227
f 223/264/227 247/304/263 248/305/264
f 248/305/264 247/304/263 246/303/262
f 223/264/227 248/305/264 219/258/221
f 249/306/265 245/301/260 39/302/261
f 249/306/265 39/302/261 40/307/266
f 250/308/267 246/303/262 245/301/260
f 246/303/262 250/308/267 248/305/264
f 250/308/267 245/301/260 251/309/268
f 251/309/268 245/301/260 249/306/265
f 248/305/264 250/308/267 252/310/269
f 252/310/269 250/308/267 251/309/268
f 248/305/264 252/310/269 219/258/221
f 219/258/221 252/310/269 253/311/270
f 253/311/270 252/310/269 251/309/268
f 219/258/221 253/311/270 215/252/215
f 251/309/268 249/306/265 254/312/271
f 251/309/268 254/312/271 253/311/270
f 255/313/272 249/306/265 40/307/266
f 255/313/272 40/307/266 44/314/273
f 255/313/272 44/314/273 256/315/274
f 215/252/215 253/311/270 257/316/275
f 257/316/275 253/311/270 254/312/271
f 254/312/271 249/306/265 258/317/276
f 254/312/271 258/317/276 257/316/275
f 258/317/276 249/306/265 255/313/272
f 215/252/215 257/316/275 259/318/277
f 259/318/277 257/316/275 258/317/276
f 215/252/215 259/318/277 209/244/207
f 258/317/276 255/313/272 260/319/278
f 258/317/276 260/319/278 259/318/277
f 261/320/279 255/313/272 256/315/274
f 255/313/272 261/320/279 260/319/278
f 261/320/279 256/315/274 262/321/280
f 259/318/277 260/319/278 263/322/281
f 263/322/281 260/319/278 261/320/279
f 259/318/277 263/322/281 209/244/207
f 261/320/279 262/321/280 264/323/282
f 261/320/279 264/323/282 263/322/281
f 263/322/281 264/323/282 209/244/207
f 264/323/282 262/321/280 265/324/283
f 209/244/207 264/323/282 211/246/209
f 211/246/209 264/323/282 265/324/283
f 266/325/284 267/326/285 268/327/286
f 268/327/286 267/326/285 269/328/287
f 266/325/284 268/327/286 270/329/288
f 270/329/288 268/327/286 271/330/289
f 271/330/289 268/327/286 269/328/287
f 266/325/284 270/329/288 272/331/290
f 270/329/288 271/330/289 273/332/291
f 270/329/288 273/332/291 272/331/290
f 273/332/291 271/330/289 274/333/292
f 274/333/292 271/330/289 275/334/293
f 275/334/293 271/330/289 269/328/287
f 273/332/291 274/333/292 276/335/294
f 273/332/291 276/335/294 277/336/295
f 273/332/291 277/336/295 272/331/290
f 276/335/294 274/333/292 278/337/296
f 278/337/296 274/333/292 275/334/293
f 276/335/294 278/337/296 15/15/15
f 276/335/294 15/15/15 277/336/295
f 277/336/295 15/15/15 14/14/14
f 277/336/295 14/14/14 23/23/23
f 15/15/15 278/337/296 6/6/6
f 15/15/15 6/6/6 9/9/9
f 6/6/6 278/337/296 1/1/1
f 1/1/1 278/337/296 275/334/293
f 1/1/1 275/334/293 2/2/2
f 2/2/2 275/334/293 62/338/297
f 62/338/297 275/334/293 269/328/287
f 62/338/297 269/328/287 60/339/298
f 60/339/298 269/328/287 279/340/299
f 60/339/298 279/340/299 58/341/300
f 279/340/299 269/328/287 267/326/285
f 58/341/300 279/340/299 280/342/301
f 58/341/300 280/342/301 56/343/302
f 279/340/299 267/326/285 281/344/303
f 281/344/303 267/326/285 282/345/304
f 282/345/304 267/326/285 266/325/284
f 279/340/299 281/344/303 283/346/305
f 279/340/299 283/346/305 280/342/301
f 281/344/303 282/345/304 284/347/306
f 281/344/303 284/347/306 283/346/305
f 282/345/304 266/325/284 285/348/307
f 282/345/304 285/348/307 284/347/306
f 285/348/307 266/325/284 272/331/290
f 283/346/305 284/347/306 286/349/308
f 284/347/306 285/348/307 287/350/309
f 284/347/306 287/350/309 286/349/308
f 283/346/305 286/349/308 288/351/310
f 283/346/305 288/351/310 280/342/301
f 288/351/310 286/349/308 289/352/311
f 289/352/311 286/349/308 287/350/309
f 280/342/301 288/351/310 290/353/312
f 290/353/312 288/351/310 289/352/311
f 280/342/301 290/353/312 291/354/313
f 280/342/301 291/354/313 56/343/302
f 56/343/302 291/354/313 52/355/314
f 52/355/314 291/354/313 292/356/315
f 52/355/314 292/356/315 48/357/316
f 256/315/274 44/314/273 48/357/316
f 256/315/274 48/357/316 292/356/315
f 256/315/274 292/356/315 293/358/317
f 256/315/274 293/358/317 262/321/280
f 262/321/280 293/358/317 265/324/283
f 265/324/283 293/358/317 294/359/318
f 265/324/283 294/359/318 211/246/209
f 293/358/317 292/356/315 295/360/319
f 293/358/317 295/360/319 294/359/318
f 295/360/319 292/356/315 296/361/320
f 296/361/320 292/356/315 291/354/313
f 294/359/318 295/360/319 297/362/321
f 297/362/321 295/360/319 296/361/320
f 211/246/209 294/359/318 298/363/322
f 298/363/322 294/359/318 297/362/321
f 296/361/320 291/354/313 299/364/323
f 299/364/323 291/354/313 290/353/312
f 297/362/321 296/361/320 300/365/324
f 300/365/324 296/361/320 299/364/323
f 297/362/321 300/365/324 298/363/322
f 299/364/323 290/353/312 301/366/325
f 299/364/323 301/366/325 300/365/324
f 301/366/325 290/353/312 289/352/311
f 300/365/324 301/366/325 302/367/326
f 302/367/326 301/366/325 289/352/311
f 300/365/324 302/367/326 298/363/322
f 302/367/326 289/352/311 287/350/309
f 201/232/195 211/246/209 298/363/322
f 211/246/209 201/232/195 202/233/196
f 298/363/322 302/367/326 303/368/327
f 298/363/322 303/368/327 201/232/195
f 302/367/326 287/350/309 304/369/328
f 302/367/326 304/369/328 303/368/327
f 201/232/195 303/368/327 305/370/329
f 201/232/195 305/370/329 199/230/193
f 199/230/193 305/370/329 165/371/316
f 199/230/193 165/371/316 200/231/194
f 165/371/316 305/370/329 164/372/330
f 200/231/194 165/371/316 140/373/331
f 200/231/194 140/373/331 139/236/199
f 200/231/194 139/236/199 203/234/197
f 164/372/330 305/370/329 163/374/332
f 306/375/333 305/370/329 303/368/327
f 305/370/329 306/375/333 163/374/332
f 306/375/333 303/368/327 307/376/334
f 306/375/333 307/376/334 163/374/332
f 163/374/332 307/376/334 162/377/335
f 307/376/334 303/368/327 304/369/328
f 162/377/335 307/376/334 161/378/336
f 307/376/334 304/369/328 308/379/337
f 307/376/334 308/379/337 161/378/336
f 161/378/336 308/379/337 309/380/338
f 309/380/338 308/379/337 304/369/328
f 161/378/336 309/380/338 158/381/339
f 158/381/339 309/380/338 156/382/300
f 309/380/338 304/369/328 310/383/340
f 310/383/340 304/369/328 287/350/309
f 156/382/300 309/380/338 311/384/341
f 311/384/341 309/380/338 310/383/340
f 310/383/340 287/350/309 285/348/307
f 156/382/300 311/384/341 312/385/342
f 312/385/342 311/384/341 310/383/340
f 156/382/300 312/385/342 155/386/343
f 155/386/343 312/385/342 157/387/298
f 310/383/340 285/348/307 313/388/344
f 310/383/340 313/388/344 312/385/342
f 313/388/344 285/348/307 272/331/290
f 157/387/298 312/385/342 314/389/345
f 314/389/345 312/385/342 313/388/344
f 157/387/298 314/389/345 315/390/346
f 315/390/346 314/389/345 313/388/344
f 157/387/298 315/390/346 159/391/347
f 159/391/347 315/390/346 160/392/297
f 313/388/344 272/331/290 35/35/32
f 313/388/344 35/35/32 315/390/346
f 35/35/32 272/331/290 277/336/295
f 35/35/32 277/336/295 23/23/23
f 315/390/346 35/35/32 36/36/33
f 315/390/346 36/36/33 160/392/297
f 160/392/297 36/36/33 34/34/31
f 160/392/297 34/34/31 109/393/348
f 109/393/348 34/34/31 32/32/2
f 32/32/2 34/34/31 33/33/30
