# CS2 body mesh, tools/cs2_glb_to_obj.py
v 0.05589 0.04616 0.03688
v 0.05589 0.04617 0.04225
v 0.05704 0.04558 0.04225
v 0.05704 0.04557 0.03688
v 0.05787 0.0446 0.04225
v 0.05736 0.0476 0.03313
v 0.05641 0.04797 0.03313
v 0.05641 0.04798 -0.00212
v 0.05787 0.0446 0.03688
v 0.05826 0.04337 0.04225
v 0.05821 0.04705 0.03313
v 0.05736 0.0476 -0.00212
v 0.0562 0.04723 -0.00294
v 0.05894 0.04634 0.03313
v 0.05821 0.04705 -0.00212
v 0.05773 0.04644 -0.00294
v 0.05826 0.04337 0.03688
v 0.05816 0.04209 0.04225
v 0.05894 0.04634 -0.00212
v 0.05952 0.04551 0.03313
v 0.05992 0.04458 0.03313
v 0.05952 0.04551 -0.00212
v 0.05884 0.04513 -0.00294
v 0.05773 0.04644 -0.00404
v 0.0562 0.04723 -0.00404
v 0.05884 0.04513 -0.00404
v 0.05992 0.04458 -0.00212
v 0.06013 0.04358 0.03313
v 0.05936 0.0435 -0.00294
v 0.06013 0.04358 -0.00212
v 0.05576 0.0457 0.04225
v 0.05674 0.0452 0.04225
v 0.05745 0.04436 0.04225
v 0.05467 0.04579 0.04225
v 0.05461 0.04627 0.04225
v 0.05778 0.04332 0.04225
v 0.05362 0.04546 0.04225
v 0.05339 0.04588 0.04225
v 0.05769 0.04222 0.04225
v 0.05278 0.04475 0.04225
v 0.05757 0.04094 0.04225
v 0.0524 0.04505 0.04225
v 0.05228 0.04377 0.04225
v 0.05182 0.04391 0.04225
v 0.05719 0.04125 0.04225
v 0.05658 0.04011 0.04225
v 0.05635 0.04054 0.04225
v 0.05536 0.03972 0.04225
v 0.0553 0.0402 0.04225
v 0.05408 0.03983 0.04225
v 0.05421 0.04029 0.04225
v 0.05293 0.04042 0.04225
v 0.05323 0.0408 0.04225
v 0.0521 0.0414 0.04225
v 0.05253 0.04163 0.04225
v 0.05171 0.04262 0.04225
v 0.05219 0.04268 0.04225
v 0.05247 0.04753 -0.00538
v 0.05164 0.04695 -0.00538
v 0.05164 0.04695 -0.00433
v 0.05093 0.04622 -0.00538
v 0.05247 0.04753 -0.00433
v 0.05093 0.04622 -0.00433
v 0.05341 0.04793 -0.00433
v 0.05341 0.04793 -0.00538
v 0.05285 0.04685 -0.00404
v 0.0544 0.04814 -0.00538
v 0.05038 0.04537 -0.00433
v 0.05038 0.04537 -0.00538
v 0.05154 0.04574 -0.00404
v 0.05001 0.04443 -0.00538
v 0.05001 0.04443 -0.00433
v 0.05075 0.04421 -0.00404
v 0.05075 0.04421 -0.00294
v 0.05154 0.04574 -0.00294
v 0.05449 0.04737 -0.00404
v 0.0544 0.04814 -0.00433
v 0.05541 0.04816 -0.00433
v 0.05541 0.04816 -0.00538
v 0.05641 0.04798 -0.00538
v 0.05641 0.04798 -0.00433
v 0.05736 0.0476 -0.00433
v 0.05821 0.04705 -0.00433
v 0.05449 0.04737 -0.00294
v 0.05285 0.04685 -0.00294
v 0.05541 0.04816 -0.00212
v 0.05541 0.04816 0.03313
v 0.0544 0.04814 -0.00212
v 0.05341 0.04793 -0.00212
v 0.05461 0.04627 0.03688
v 0.0544 0.04814 0.03313
v 0.05341 0.04793 0.03313
v 0.05247 0.04753 -0.00212
v 0.05339 0.04588 0.03688
v 0.05247 0.04753 0.03313
v 0.05164 0.04695 -0.00212
v 0.05164 0.04695 0.03313
v 0.0524 0.04505 0.03688
v 0.05093 0.04622 0.03313
v 0.05093 0.04622 -0.00212
v 0.05182 0.04391 0.03688
v 0.05038 0.04537 0.03313
v 0.05001 0.04443 0.03313
v 0.05001 0.04443 -0.00212
v 0.05038 0.04537 -0.00212
v 0.0575 0.03847 -0.00538
v 0.05722 0.03896 -0.00567
v 0.05833 0.03904 -0.00538
v 0.0586 0.04012 -0.00567
v 0.05904 0.03977 -0.00538
v 0.05959 0.04063 -0.00538
v 0.05942 0.04172 -0.00567
v 0.05997 0.04157 -0.00538
v 0.06015 0.04257 -0.00538
v 0.05957 0.04352 -0.00567
v 0.06013 0.04358 -0.00538
v 0.05992 0.04458 -0.00538
v 0.05902 0.04524 -0.00567
v 0.05952 0.04551 -0.00538
v 0.05894 0.04634 -0.00538
v 0.05786 0.04661 -0.00567
v 0.05821 0.04705 -0.00538
v 0.05736 0.0476 -0.00538
v 0.05411 0.04325 -0.00581
v 0.05454 0.0438 -0.00581
v 0.05499 0.043 -0.00548
v 0.05419 0.04255 -0.00581
v 0.05473 0.04212 -0.00581
v 0.05266 0.04171 -0.00567
v 0.05235 0.0427 -0.00567
v 0.05307 0.04193 -0.00521
v 0.05281 0.04275 -0.00521
v 0.05362 0.04128 -0.00521
v 0.05243 0.04373 -0.00567
v 0.05333 0.04092 -0.00567
v 0.05438 0.04089 -0.00521
v 0.05425 0.04045 -0.00567
v 0.05288 0.0436 -0.00521
v 0.05291 0.04465 -0.00567
v 0.05327 0.04436 -0.00521
v 0.0537 0.04532 -0.00567
v 0.05392 0.04492 -0.00521
v 0.05469 0.04563 -0.00567
v 0.05474 0.04518 -0.00521
v 0.0569 0.04406 -0.00521
v 0.05717 0.04325 -0.00521
v 0.05667 0.04393 -0.00581
v 0.0569 0.04322 -0.00581
v 0.05618 0.0445 -0.00581
v 0.05709 0.04239 -0.00521
v 0.05635 0.04471 -0.00521
v 0.05552 0.04485 -0.00581
v 0.05559 0.04511 -0.00521
v 0.05684 0.04247 -0.00581
v 0.0567 0.04163 -0.00521
v 0.05649 0.0418 -0.00581
v 0.05605 0.04108 -0.00521
v 0.05592 0.04131 -0.00581
v 0.05523 0.04082 -0.00521
v 0.0552 0.04108 -0.00581
v 0.05551 0.03841 -0.00567
v 0.05371 0.03856 -0.00567
v 0.05211 0.03938 -0.00567
v 0.05261 0.03839 -0.00538
v 0.05356 0.03802 -0.00538
v 0.05176 0.03894 -0.00538
v 0.05456 0.03783 -0.00538
v 0.05103 0.03965 -0.00538
v 0.05557 0.03785 -0.00538
v 0.05657 0.03806 -0.00538
v 0.05095 0.04076 -0.00567
v 0.05046 0.04049 -0.00538
v 0.05005 0.04142 -0.00538
v 0.0504 0.04247 -0.00567
v 0.04984 0.04241 -0.00538
v 0.04982 0.04343 -0.00538
v 0.05055 0.04427 -0.00567
v 0.05137 0.04587 -0.00567
v 0.05275 0.04703 -0.00567
v 0.05446 0.04758 -0.00567
v 0.05626 0.04743 -0.00567
v 0.05572 0.04555 -0.00567
v 0.05664 0.04507 -0.00567
v 0.05731 0.04428 -0.00567
v 0.05762 0.0433 -0.00567
v 0.05754 0.04227 -0.00567
v 0.05706 0.04134 -0.00567
v 0.05627 0.04068 -0.00567
v 0.05529 0.04036 -0.00567
v 0.05446 0.04115 -0.00581
v 0.05379 0.04149 -0.00581
v 0.05543 0.0422 -0.00581
v 0.0533 0.04206 -0.00581
v 0.05307 0.04278 -0.00581
v 0.05586 0.04275 -0.00581
v 0.05314 0.04353 -0.00581
v 0.05578 0.04344 -0.00581
v 0.05348 0.0442 -0.00581
v 0.05524 0.04388 -0.00581
v 0.05477 0.04491 -0.00581
v 0.05405 0.04468 -0.00581
v 0.05581 0.04042 0.04496
v 0.0574 0.04176 0.04496
v 0.05695 0.04199 0.04964
v 0.05566 0.04089 0.04964
v 0.05757 0.04382 0.04496
v 0.05623 0.04541 0.04496
v 0.056 0.04496 0.04964
v 0.05709 0.04367 0.04964
v 0.0556 0.04419 0.05351
v 0.05626 0.04341 0.05351
v 0.05533 0.04367 0.05485
v 0.0557 0.04323 0.05485
v 0.05499 0.043 0.05535
v 0.05618 0.04238 0.05351
v 0.05539 0.04172 0.05351
v 0.05566 0.04265 0.05485
v 0.05522 0.04228 0.05485
v 0.05375 0.04059 0.04496
v 0.0524 0.04217 0.04496
v 0.05258 0.04424 0.04496
v 0.05397 0.04103 0.04964
v 0.05288 0.04232 0.04964
v 0.05302 0.04401 0.04964
v 0.05437 0.04181 0.05351
v 0.05371 0.04259 0.05351
v 0.0538 0.04361 0.05351
v 0.05464 0.04233 0.05485
v 0.05427 0.04277 0.05485
v 0.05432 0.04334 0.05485
v 0.05476 0.04372 0.05485
v 0.05458 0.04427 0.05351
v 0.05431 0.0451 0.04964
v 0.05416 0.04558 0.04496
v 0.06015 0.04257 0.03313
v 0.05816 0.04209 0.03688
v 0.06015 0.04257 -0.00212
v 0.05997 0.04157 0.03313
v 0.05922 0.04178 -0.00294
v 0.05997 0.04157 -0.00212
v 0.05757 0.04094 0.03688
v 0.05959 0.04063 0.03313
v 0.05959 0.04063 -0.00212
v 0.05904 0.03977 0.03313
v 0.05658 0.04011 0.03688
v 0.05536 0.03972 0.03688
v 0.05657 0.03806 0.03313
v 0.05833 0.03904 0.03313
v 0.0575 0.03847 0.03313
v 0.05904 0.03977 -0.00212
v 0.05833 0.03904 -0.00212
v 0.05843 0.04026 -0.00294
v 0.0575 0.03847 -0.00212
v 0.05657 0.03806 -0.00212
v 0.05557 0.03785 0.03313
v 0.05557 0.03785 -0.00212
v 0.05712 0.03915 -0.00294
v 0.05548 0.03862 -0.00294
v 0.05548 0.03862 -0.00404
v 0.05712 0.03915 -0.00404
v 0.05843 0.04026 -0.00404
v 0.05833 0.03904 -0.00433
v 0.0575 0.03847 -0.00433
v 0.05922 0.04178 -0.00404
v 0.05904 0.03977 -0.00433
v 0.05657 0.03806 -0.00433
v 0.05557 0.03785 -0.00433
v 0.05959 0.04063 -0.00433
v 0.05997 0.04157 -0.00433
v 0.06015 0.04257 -0.00433
v 0.05936 0.0435 -0.00404
v 0.06013 0.04358 -0.00433
v 0.05992 0.04458 -0.00433
v 0.05952 0.04551 -0.00433
v 0.05894 0.04634 -0.00433
v 0.05456 0.03783 0.03313
v 0.05408 0.03983 0.03688
v 0.05293 0.04042 0.03688
v 0.05356 0.03802 0.03313
v 0.05456 0.03783 -0.00212
v 0.05261 0.03839 0.03313
v 0.05356 0.03802 -0.00212
v 0.05377 0.03877 -0.00294
v 0.05261 0.03839 -0.00212
v 0.05176 0.03894 0.03313
v 0.05377 0.03877 -0.00404
v 0.05225 0.03955 -0.00294
v 0.05176 0.03894 -0.00212
v 0.05103 0.03965 0.03313
v 0.0521 0.0414 0.03688
v 0.05103 0.03965 -0.00212
v 0.05046 0.04049 0.03313
v 0.05171 0.04262 0.03688
v 0.05114 0.04086 -0.00294
v 0.04982 0.04343 0.03313
v 0.05046 0.04049 -0.00212
v 0.05005 0.04142 0.03313
v 0.04984 0.04241 0.03313
v 0.05005 0.04142 -0.00212
v 0.04984 0.04241 -0.00212
v 0.04982 0.04343 -0.00212
v 0.05061 0.0425 -0.00294
v 0.05061 0.0425 -0.00404
v 0.05114 0.04086 -0.00404
v 0.04982 0.04343 -0.00433
v 0.04984 0.04241 -0.00433
v 0.05005 0.04142 -0.00433
v 0.05046 0.04049 -0.00433
v 0.05103 0.03965 -0.00433
v 0.05225 0.03955 -0.00404
v 0.05176 0.03894 -0.00433
v 0.05261 0.03839 -0.00433
v 0.05356 0.03802 -0.00433
v 0.05456 0.03783 -0.00433
vt 0.777832 0.946777
vt 0.777832 0.940918
vt 0.775879 0.940918
vt 0.775879 0.946777
vt 0.773926 0.940918
vt 0.777344 0.95166
vt 0.778809 0.95166
vt 0.778809 0.992676
vt 0.773926 0.946777
vt 0.771973 0.940918
vt 0.776367 0.95166
vt 0.777344 0.992676
vt 0.778809 0.993652
vt 0.775391 0.95166
vt 0.776367 0.992676
vt 0.776855 0.993652
vt 0.771973 0.946777
vt 0.77002 0.940918
vt 0.775391 0.992676
vt 0.774414 0.95166
vt 0.773438 0.95166
vt 0.774414 0.992676
vt 0.774414 0.993652
vt 0.776855 0.995117
vt 0.779297 0.995117
vt 0.774414 0.995117
vt 0.773438 0.992676
vt 0.771973 0.95166
vt 0.772461 0.993652
vt 0.771973 0.992676
vt 0.110779 0.089966
vt 0.110779 0.088318
vt 0.110291 0.088318
vt 0.110291 0.086609
vt 0.110291 0.089966
vt 0.110779 0.086609
vt 0.110779 0.091614
vt 0.110291 0.0849
vt 0.110291 0.091553
vt 0.110779 0.0849
vt 0.110779 0.09314
vt 0.110291 0.083191
vt 0.110291 0.093079
vt 0.110779 0.083191
vt 0.110779 0.094604
vt 0.110291 0.081482
vt 0.110291 0.094543
vt 0.110779 0.095947
vt 0.110291 0.096008
vt 0.110779 0.081482
vt 0.110291 0.079773
vt 0.110779 0.079773
vt 0.110291 0.078064
vt 0.110779 0.078064
vt 0.110291 0.076416
vt 0.110779 0.076416
vt 0.110291 0.074829
vt 0.110779 0.074829
vt 0.110291 0.073364
vt 0.110779 0.073303
vt 0.110291 0.071899
vt 0.110779 0.071838
vt 0.110291 0.070435
vt 0.110779 0.070496
vt 0.783691 0.997559
vt 0.785156 0.997559
vt 0.784668 0.996094
vt 0.786133 0.997559
vt 0.783691 0.996094
vt 0.786133 0.996094
vt 0.782715 0.996094
vt 0.782715 0.997559
vt 0.783691 0.995117
vt 0.781738 0.997559
vt 0.787109 0.996094
vt 0.787598 0.997559
vt 0.785645 0.995117
vt 0.788574 0.997559
vt 0.788086 0.996094
vt 0.788086 0.995117
vt 0.787598 0.993652
vt 0.785645 0.993652
vt 0.78125 0.995117
vt 0.78125 0.996094
vt 0.780273 0.996094
vt 0.780273 0.997559
vt 0.779297 0.997559
vt 0.779297 0.996094
vt 0.777832 0.996094
vt 0.776855 0.996094
vt 0.78125 0.993652
vt 0.783203 0.993652
vt 0.779785 0.992676
vt 0.779785 0.95166
vt 0.780762 0.992676
vt 0.781738 0.992676
vt 0.779297 0.946777
vt 0.780762 0.95166
vt 0.779297 0.940918
vt 0.781738 0.95166
vt 0.782715 0.992676
vt 0.78125 0.946777
vt 0.78125 0.940918
vt 0.782715 0.95166
vt 0.78418 0.992676
vt 0.78418 0.95166
vt 0.782715 0.946777
vt 0.782715 0.940918
vt 0.785156 0.95166
vt 0.785156 0.992676
vt 0.78418 0.946777
vt 0.78418 0.940918
vt 0.786133 0.95166
vt 0.787109 0.95166
vt 0.787109 0.992676
vt 0.786133 0.992676
vt 0.512695 0.195068
vt 0.513184 0.195679
vt 0.513672 0.194336
vt 0.515137 0.194336
vt 0.514648 0.193726
vt 0.515625 0.193359
vt 0.51709 0.19397
vt 0.51709 0.193237
vt 0.518066 0.193359
vt 0.519043 0.194336
vt 0.519531 0.193604
vt 0.520508 0.194214
vt 0.520996 0.195557
vt 0.521484 0.194946
vt 0.522461 0.195923
vt 0.522461 0.197266
vt 0.522949 0.197021
vt 0.523438 0.19812
vt 0.51709 0.200439
vt 0.518066 0.200195
vt 0.51709 0.199463
vt 0.516602 0.200195
vt 0.516113 0.199463
vt 0.514648 0.201904
vt 0.516113 0.202637
vt 0.515137 0.201416
vt 0.516113 0.202026
vt 0.514648 0.200562
vt 0.51709 0.202881
vt 0.51416 0.200806
vt 0.514648 0.199585
vt 0.513672 0.199585
vt 0.51709 0.202148
vt 0.518555 0.202515
vt 0.518066 0.201904
vt 0.519531 0.201782
vt 0.519043 0.201416
vt 0.520508 0.200684
vt 0.519531 0.200439
vt 0.519043 0.197632
vt 0.518066 0.197021
vt 0.518555 0.197998
vt 0.518066 0.197632
vt 0.519043 0.19873
vt 0.51709 0.196777
vt 0.519531 0.198486
vt 0.519043 0.199463
vt 0.52002 0.199463
vt 0.51709 0.19751
vt 0.516113 0.197021
vt 0.516602 0.197632
vt 0.515137 0.197632
vt 0.515625 0.19812
vt 0.514648 0.198486
vt 0.515137 0.19873
vt 0.512207 0.197388
vt 0.511719 0.199585
vt 0.512207 0.20166
vt 0.51123 0.200806
vt 0.510742 0.199585
vt 0.51123 0.202026
vt 0.51123 0.198364
vt 0.512207 0.203003
vt 0.51123 0.197144
vt 0.511719 0.196045
vt 0.513184 0.203491
vt 0.512695 0.203979
vt 0.513672 0.204712
vt 0.515137 0.204712
vt 0.514648 0.205322
vt 0.516113 0.205688
vt 0.51709 0.205078
vt 0.51709 0.205811
vt 0.518555 0.205688
vt 0.519531 0.20459
vt 0.519531 0.205322
vt 0.520508 0.204712
vt 0.520996 0.203369
vt 0.521484 0.203857
vt 0.522461 0.202881
vt 0.522461 0.201538
vt 0.522949 0.201782
vt 0.523438 0.200684
vt 0.522949 0.199463
vt 0.523438 0.199341
vt 0.520508 0.199463
vt 0.52002 0.19812
vt 0.519531 0.197144
vt 0.518555 0.196411
vt 0.51709 0.196167
vt 0.515625 0.196411
vt 0.514648 0.197144
vt 0.51416 0.198242
vt 0.515137 0.199585
vt 0.515137 0.200317
vt 0.516602 0.198853
vt 0.515625 0.200928
vt 0.516602 0.201416
vt 0.51709 0.198486
vt 0.51709 0.201538
vt 0.518066 0.198853
vt 0.518066 0.201416
vt 0.518066 0.199463
vt 0.519043 0.200195
vt 0.518555 0.200928
vt 0.060089 0.019485
vt 0.061157 0.016693
vt 0.059723 0.016693
vt 0.057526 0.019424
vt 0.058289 0.016693
vt 0.056824 0.016693
vt 0.057465 0.024323
vt 0.059387 0.024429
vt 0.054932 0.019485
vt 0.055359 0.016693
vt 0.053955 0.016693
vt 0.052429 0.019638
vt 0.052582 0.016693
vt 0.05127 0.016693
vt 0.05368 0.024719
vt 0.055542 0.024414
vt 0.055359 0.028839
vt 0.056366 0.02858
vt 0.056366 0.030212
vt 0.056854 0.030029
vt 0.057373 0.030884
vt 0.057404 0.028503
vt 0.058441 0.028595
vt 0.057404 0.029953
vt 0.057922 0.030029
vt 0.0625 0.016693
vt 0.062561 0.019669
vt 0.063843 0.016693
vt 0.065063 0.016693
vt 0.06488 0.019989
vt 0.066223 0.016693
vt 0.067383 0.016693
vt 0.067139 0.020676
vt 0.061218 0.024765
vt 0.062927 0.025345
vt 0.064575 0.026245
vt 0.059448 0.02887
vt 0.060303 0.029358
vt 0.061066 0.030121
vt 0.058411 0.030212
vt 0.058807 0.030533
vt 0.059021 0.031052
vt 0.055969 0.030518
vt 0.055725 0.031036
vt 0.054474 0.029312
vt 0.05368 0.03006
vt 0.05191 0.025238
vt 0.050232 0.026093
vt 0.050079 0.019913
vt 0.050018 0.016693
vt 0.047729 0.020294
vt 0.048828 0.016693
vt 0.047699 0.016693
vt 0.0466 0.016693
vt 0.770996 0.95166
vt 0.77002 0.946777
vt 0.770996 0.992676
vt 0.768066 0.940918
vt 0.77002 0.95166
vt 0.77002 0.993652
vt 0.77002 0.992676
vt 0.768066 0.946777
vt 0.769043 0.95166
vt 0.766113 0.940918
vt 0.769043 0.992676
vt 0.768066 0.95166
vt 0.766113 0.946777
vt 0.76416 0.940918
vt 0.76416 0.946777
vt 0.764648 0.95166
vt 0.766602 0.95166
vt 0.765625 0.95166
vt 0.768066 0.992676
vt 0.766602 0.992676
vt 0.767578 0.993652
vt 0.765625 0.992676
vt 0.764648 0.992676
vt 0.763672 0.95166
vt 0.763672 0.992676
vt 0.765625 0.993652
vt 0.763184 0.993652
vt 0.763184 0.995117
vt 0.765625 0.995117
vt 0.767578 0.995117
vt 0.766602 0.996094
vt 0.765625 0.996094
vt 0.77002 0.995117
vt 0.767578 0.996094
vt 0.765625 0.997559
vt 0.76416 0.996094
vt 0.766602 0.997559
vt 0.76416 0.997559
vt 0.763184 0.997559
vt 0.763184 0.996094
vt 0.767578 0.997559
vt 0.769043 0.996094
vt 0.769043 0.997559
vt 0.77002 0.997559
vt 0.77002 0.996094
vt 0.770996 0.996094
vt 0.770996 0.997559
vt 0.772461 0.997559
vt 0.772461 0.995117
vt 0.772461 0.996094
vt 0.773438 0.996094
vt 0.773438 0.997559
vt 0.774414 0.997559
vt 0.774414 0.996094
vt 0.775879 0.996094
vt 0.775879 0.997559
vt 0.776855 0.997559
vt 0.777832 0.997559
vt 0.762695 0.95166
vt 0.762207 0.940918
vt 0.762207 0.946777
vt 0.760742 0.940918
vt 0.760742 0.946777
vt 0.758789 0.940918
vt 0.76123 0.95166
vt 0.762695 0.992676
vt 0.760254 0.95166
vt 0.76123 0.992676
vt 0.76123 0.993652
vt 0.760254 0.992676
vt 0.759277 0.95166
vt 0.760742 0.995117
vt 0.758789 0.993652
vt 0.759277 0.992676
vt 0.758301 0.95166
vt 0.758789 0.946777
vt 0.757324 0.940918
vt 0.758301 0.992676
vt 0.756836 0.95166
vt 0.757324 0.946777
vt 0.755859 0.940918
vt 0.755859 0.946777
vt 0.756836 0.993652
vt 0.753906 0.95166
vt 0.752441 0.95166
vt 0.756836 0.992676
vt 0.755859 0.95166
vt 0.754883 0.95166
vt 0.755859 0.992676
vt 0.754883 0.992676
vt 0.753906 0.992676
vt 0.752441 0.992676
vt 0.752441 0.993652
vt 0.754395 0.993652
vt 0.751953 0.995117
vt 0.754395 0.995117
vt 0.756348 0.995117
vt 0.75293 0.996094
vt 0.751465 0.996094
vt 0.751465 0.997559
vt 0.752441 0.997559
vt 0.753906 0.997559
vt 0.753906 0.996094
vt 0.754883 0.996094
vt 0.754883 0.997559
vt 0.756348 0.997559
vt 0.756348 0.996094
vt 0.757324 0.996094
vt 0.757324 0.997559
vt 0.758301 0.997559
vt 0.758789 0.995117
vt 0.758301 0.996094
vt 0.759766 0.996094
vt 0.759766 0.997559
vt 0.760742 0.997559
vt 0.760742 0.996094
vt 0.762207 0.996094
vt 0.761719 0.997559
vn 0.2712 0.9387 0.2128
vn 0.2774 0.9607 -0.0012
vn 0.6228 0.7823 -0.0014
vn 0.6068 0.7651 0.2157
vn 0.8742 0.4856 -0.0013
vn 0.4559 0.8887 0.0476
vn 0.2772 0.9597 0.0464
vn 0.2768 0.9607 -0.0209
vn 0.8549 0.4719 0.2156
vn 0.9938 0.1114 -0.0011
vn 0.6193 0.7837 0.0468
vn 0.4583 0.8884 -0.0282
vn 0.2547 0.8893 -0.3798
vn 0.7609 0.6471 0.0469
vn 0.623 0.7819 -0.0209
vn 0.5769 0.7215 -0.3829
vn 0.9706 0.1101 0.2139
vn 0.9617 -0.2742 0
vn 0.762 0.647 -0.0267
vn 0.8748 0.482 0.0481
vn 0.9514 0.3044 0.0471
vn 0.8749 0.4839 -0.0202
vn 0.8087 0.4468 -0.3827
vn 0.5472 0.6878 0.4769
vn 0.2431 0.8455 0.4755
vn 0.7695 0.4264 0.4754
vn 0.9527 0.3025 -0.0289
vn 0.9924 0.1138 0.0462
vn 0.9188 0.1057 -0.3804
vn 0.9933 0.1136 -0.0209
vn 0 -0.001 1
vn -0.4856 0.8742 -0.0013
vn -0.6468 0.7627 -0.0014
vn -0.5185 0.613 0.5961
vn -0.7823 0.6228 0.0014
vn -0.4235 0.7668 0.4823
vn -0.6851 0.5444 0.4841
vn -0.2432 0.764 0.5977
vn -0.3066 0.9518 0.0012
vn -0.4264 0.7695 0.4754
vn -0.1138 0.9935 0.0011
vn -0.713 0.3655 0.5983
vn -0.8894 0.4572 0.0013
vn -0.6878 0.5472 0.4769
vn -0.9303 0.3668 0.0013
vn -0.8152 0.3245 0.4796
vn -0.7881 0.3965 0.4709
vn -0.8281 0.4164 -0.3753
vn -0.7244 0.5733 -0.3828
vn -0.1007 0.8725 0.4781
vn -0.0978 0.8716 0.4804
vn 0.0672 0.7997 0.5966
vn 0.0835 0.9965 -0.0011
vn 0.2746 0.9616 -0.0012
vn 0.2401 0.8427 0.4818
vn 0.3655 0.713 0.5983
vn 0.5444 0.6851 0.4841
vn -0.1057 0.9188 -0.3804
vn -0.4468 0.8087 -0.3827
vn 0.0833 0.9962 -0.027
vn 0.0849 0.9953 0.0474
vn -0.1136 0.9933 -0.0209
vn -0.3055 0.9517 -0.0289
vn -0.1101 0.9706 0.2139
vn -0.1138 0.9924 0.0462
vn -0.3044 0.9514 0.0471
vn -0.4839 0.8749 -0.0202
vn -0.4736 0.8556 0.209
vn -0.4856 0.8742 0.0013
vn -0.4853 0.873 0.0481
vn -0.6439 0.7646 -0.0267
vn -0.6454 0.7622 0.0499
vn -0.7641 0.6091 0.2123
vn -0.7823 0.6228 -0.0014
vn -0.78 0.6237 0.0497
vn -0.7819 0.623 -0.0209
vn -0.8718 0.4426 0.2101
vn -0.8894 0.4572 -0.0013
vn -0.8871 0.4592 0.0477
vn -0.9283 0.369 0.046
vn -0.9289 0.3698 -0.0193
vn -0.8884 0.4583 -0.0282
vn 0.2216 -0.4003 -0.8892
vn 0.0538 -0.0998 -0.9936
vn 0.2695 -0.3207 -0.908
vn 0.0879 -0.071 -0.9936
vn 0.3593 -0.283 -0.8893
vn 0.3717 -0.1945 -0.9077
vn 0.1084 -0.0299 -0.9937
vn 0.4404 -0.1236 -0.8893
vn 0.4179 -0.0359 -0.9078
vn 0.1126 0.012 -0.9936
vn 0.4548 0.0533 -0.889
vn 0.3998 0.1277 -0.9077
vn 0.0975 0.0549 -0.9937
vn 0.4007 0.2233 -0.8886
vn 0.321 0.2712 -0.9074
vn 0.0709 0.0867 -0.9937
vn 0.2862 0.3582 -0.8887
vn 0.1914 0.3727 -0.908
vn 0.1111 -0.0322 -0.9933
vn 0.0563 -0.1025 -0.9931
vn 0 -0.001 -1
vn 0.1024 0.0551 -0.9932
vn 0.0322 0.1099 -0.9934
vn 0.118 0.063 -0.991
vn 0.1324 0.0145 -0.9911
vn -0.01 -0.009 -0.9999
vn -0.0119 -0.005 -0.9999
vn -0.004 -0.0129 -0.9999
vn 0.1267 -0.0396 -0.9911
vn 0.084 0.1025 -0.9912
vn 0 -0.0129 -0.9999
vn 0.0373 0.1277 -0.9911
vn -0.0129 0.001 -0.9999
vn 0.1037 -0.0841 -0.991
vn -0.0129 0.005 -0.9999
vn 0.0641 -0.1156 -0.9912
vn -0.009 0.011 -0.9999
vn 0.0133 -0.1322 -0.9911
vn -0.005 0.0129 -0.9999
vn 0.009 0.011 -0.9999
vn 0.0129 0.005 -0.9999
vn 0.4272 0.2323 -0.8738
vn 0.481 0.0537 -0.8751
vn 0.3058 0.3758 -0.8748
vn 0.0129 0.001 -0.9999
vn 0.005 0.0129 -0.9999
vn 0.1372 0.4665 -0.8738
vn -0.001 0.0129 -0.9999
vn 0.4648 -0.1371 -0.8747
vn 0.0119 -0.005 -0.9999
vn 0.3769 -0.3025 -0.8755
vn 0.01 -0.009 -0.9999
vn 0.2306 -0.4268 -0.8745
vn 0.006 -0.0109 -0.9999
vn 0.0523 -0.4804 -0.8755
vn 0.0131 -0.1103 -0.9938
vn -0.031 -0.1073 -0.9937
vn -0.0698 -0.089 -0.9936
vn -0.193 -0.3731 -0.9075
vn -0.1251 -0.4391 -0.8897
vn -0.2845 -0.3579 -0.8894
vn -0.0346 -0.4191 -0.9073
vn -0.3193 -0.271 -0.9081
vn 0.0518 -0.4542 -0.8894
vn 0.129 -0.3969 -0.9088
vn -0.0987 -0.055 -0.9936
vn -0.3989 -0.2231 -0.8894
vn -0.3981 -0.1276 -0.9084
vn -0.1114 -0.012 -0.9937
vn -0.4553 -0.0504 -0.8889
vn -0.4186 0.0332 -0.9076
vn -0.1075 0.0321 -0.9937
vn -0.4396 0.1266 -0.8892
vn -0.3727 0.1914 -0.908
vn -0.0889 0.0686 -0.9937
vn -0.3582 0.2862 -0.8887
vn -0.2712 0.321 -0.9074
vn -0.0549 0.0975 -0.9937
vn -0.2233 0.4007 -0.8886
vn -0.1277 0.3998 -0.9077
vn -0.012 0.1126 -0.9936
vn -0.0505 0.457 -0.888
vn 0.0359 0.4163 -0.9085
vn 0.0299 0.1097 -0.9935
vn 0.1266 0.4396 -0.8892
vn -0.0385 -0.1278 -0.991
vn -0.083 -0.1049 -0.991
vn -0.1167 -0.0629 -0.9912
vn -0.1333 -0.0122 -0.991
vn -0.1277 0.0373 -0.9911
vn -0.1025 0.084 -0.9912
vn -0.063 0.118 -0.991
vn -0.0145 0.1324 -0.9911
vn -0.1386 -0.4636 -0.8751
vn -0.304 -0.3755 -0.8756
vn -0.0551 0.1024 -0.9932
vn -0.4254 -0.2322 -0.8747
vn -0.4815 -0.0509 -0.875
vn -0.1121 0.03 -0.9932
vn -0.4665 0.1372 -0.8738
vn -0.1013 -0.0574 -0.9932
vn -0.3758 0.3058 -0.8748
vn -0.0311 -0.1122 -0.9932
vn -0.0509 0.4831 -0.8741
vn -0.2323 0.4272 -0.8738
vn 0.3078 -0.9458 0.1035
vn 0.0897 -0.994 0.0628
vn 0.5304 -0.845 0.0677
vn 0.8847 -0.455 0.1014
vn 0.7667 -0.6389 0.0632
vn 0.9725 -0.2234 0.0666
vn 0.8717 -0.465 0.1545
vn 0.2907 -0.9442 0.1549
vn 0.9466 0.3058 0.1019
vn 0.9942 0.0883 0.0615
vn 0.8445 0.5315 0.0663
vn 0.4522 0.886 0.1028
vn 0.6414 0.7648 0.0617
vn 0.2236 0.9723 0.068
vn 0.4655 0.8712 0.1561
vn 0.945 0.2888 0.1532
vn 0.469 0.8441 0.2599
vn 0.9283 0.2658 0.2601
vn 0.4175 0.7311 0.5396
vn 0.8137 0.223 0.5368
vn 0.8449 -0.4685 0.2581
vn 0.2672 -0.9282 0.2587
vn 0.7325 -0.4174 0.5378
vn 0.2214 -0.8133 0.5381
vn -0.2248 -0.9721 0.0667
vn -0.4533 -0.8856 0.1014
vn -0.6405 -0.7654 0.0632
vn -0.8461 -0.5288 0.0677
vn -0.9463 -0.3062 0.1034
vn -0.9941 -0.0884 0.0627
vn -0.9922 0.0811 0.0948
vn -0.9919 0.0812 0.0972
vn -0.4633 -0.8727 0.1544
vn -0.9447 -0.2891 0.1547
vn -0.9863 0.0817 0.1433
vn -0.4667 -0.846 0.2579
vn -0.9277 -0.2689 0.259
vn -0.9671 0.082 0.2408
vn -0.4193 -0.7312 0.5381
vn -0.8125 -0.2231 0.5386
vn -0.8497 0.069 0.5228
vn -0.223 0.8137 0.5368
vn -0.5597 0.6639 0.4959
vn -0.2658 0.9283 0.2601
vn -0.6274 0.7406 0.2406
vn -0.2888 0.945 0.1532
vn -0.6388 0.756 0.1428
vn -0.3058 0.9466 0.1019
vn -0.0883 0.9942 0.0615
vn -0.6573 0.748 0.0922
vn -0.5282 0.8465 0.0662
vn -0.7648 0.6414 0.0617
vn -0.8892 0.4572 0.0173
vn 0.9954 -0.0826 0.0484
vn 0.9393 -0.2682 0.214
vn 0.9961 -0.0834 -0.0282
vn 0.7829 -0.6222 0
vn 0.9604 -0.2746 0.0476
vn 0.8885 -0.2549 -0.3816
vn 0.9608 -0.2765 -0.0197
vn 0.7632 -0.6096 0.2141
vn 0.8884 -0.4565 0.0491
vn 0.4835 -0.8753 0
vn 0.8887 -0.4578 -0.0268
vn 0.7831 -0.62 0.0482
vn 0.4732 -0.8545 0.214
vn 0.1124 -0.9937 0
vn 0.1116 -0.9701 0.2156
vn 0.3032 -0.9517 0.0484
vn 0.6463 -0.7616 0.0484
vn 0.4831 -0.8743 0.0467
vn 0.7825 -0.6224 -0.0195
vn 0.6461 -0.7627 -0.0281
vn 0.7227 -0.5766 -0.3811
vn 0.4861 -0.8736 -0.0216
vn 0.3037 -0.9524 -0.0276
vn 0.1127 -0.9925 0.0473
vn 0.1122 -0.9935 -0.0198
vn 0.4483 -0.8086 -0.3811
vn 0.1043 -0.9184 -0.3816
vn 0.0991 -0.8739 0.4759
vn 0.4247 -0.7694 0.477
vn 0.6892 -0.547 0.4751
vn 0.5167 -0.613 0.5978
vn 0.4251 -0.7669 0.4807
vn 0.8444 -0.2432 0.4773
vn 0.6865 -0.5442 0.4822
vn 0.2449 -0.7644 0.5964
vn 0.6476 -0.762 0
vn 0.3048 -0.9524 0
vn 0.0994 -0.8702 0.4826
vn 0.7121 -0.3692 0.5972
vn 0.8896 -0.4567 0
vn 0.8417 -0.2403 0.4836
vn 0.7997 -0.0643 0.5969
vn 0.9965 -0.0834 0
vn 0.8734 0.0977 0.4771
vn 0.8706 0.1008 0.4815
vn 0.764 0.2432 0.5977
vn 0.9528 0.3037 -0.0012
vn 0.8759 0.4825 -0.0013
vn 0.7668 0.4235 0.4823
vn 0.613 0.5185 0.5961
vn 0.7627 0.6468 -0.0014
vn 0.4572 0.8894 -0.0013
vn -0.0838 -0.9953 0.0485
vn -0.2757 -0.9612 0
vn -0.2698 -0.9388 0.2142
vn -0.6237 -0.7817 0
vn -0.6079 -0.7646 0.214
vn -0.8745 -0.4851 0
vn -0.2761 -0.96 0.0477
vn -0.0822 -0.9962 -0.0281
vn -0.4581 -0.8875 0.0491
vn -0.275 -0.9612 -0.0196
vn -0.2532 -0.8891 -0.3813
vn -0.4562 -0.8895 -0.0268
vn -0.6215 -0.7819 0.0482
vn -0.2415 -0.8452 0.4768
vn -0.5748 -0.7242 -0.381
vn -0.6208 -0.7837 -0.0195
vn -0.7629 -0.6447 0.0484
vn -0.8569 -0.4705 0.2105
vn -0.9935 -0.1136 0
vn -0.764 -0.6446 -0.0281
vn -0.8744 -0.4826 0.0495
vn -0.9716 -0.1098 0.2095
vn -0.9967 0.0812 0.0011
vn -0.974 0.0856 0.2097
vn -0.8074 -0.4502 -0.3813
vn -0.9955 0.0825 0.0473
vn -0.9824 0.1809 0.0461
vn -0.8745 -0.4845 -0.0216
vn -0.9512 -0.3047 0.0485
vn -0.9924 -0.1139 0.0474
vn -0.9519 -0.3052 -0.0276
vn -0.9933 -0.1134 -0.0198
vn -0.9962 0.0833 -0.027
vn -0.9831 0.1818 -0.0197
vn -0.9227 0.0881 -0.3753
vn -0.9181 -0.1058 -0.3821
vn -0.8787 0.0796 0.4708
vn -0.8734 -0.1007 0.4764
vn -0.7682 -0.4266 0.4773
vn -0.7997 0.0672 0.5966
vn -0.8623 0.1601 0.4804
vn -0.9839 0.1786 -0.0011
vn -0.9967 0.0812 -0.0011
vn -0.8706 -0.0978 0.4821
vn -0.7634 -0.2466 0.5969
vn -0.952 -0.3062 0
vn -0.7657 -0.427 0.481
vn -0.6114 -0.5185 0.5978
vn -0.7632 -0.6461 0
vn -0.5488 -0.6877 0.4752
vn -0.546 -0.685 0.4823
vn -0.3673 -0.7133 0.5969
vn -0.4582 -0.8888 0
vn -0.242 -0.8409 0.484
vn -0.0658 -0.7991 0.5976
vn -0.0823 -0.9966 0
o bullet11__p1_c0
f 1/1/1 2/2/2 3/3/3
f 1/1/1 3/3/3 4/4/4
f 4/4/4 3/3/3 5/5/5
f 1/1/1 4/4/4 6/6/6
f 1/1/1 6/6/6 7/7/7
f 7/7/7 6/6/6 8/8/8
f 4/4/4 5/5/5 9/9/9
f 9/9/9 5/5/5 10/10/10
f 6/6/6 4/4/4 11/11/11
f 8/8/8 6/6/6 12/12/12
f 12/12/12 6/6/6 11/11/11
f 8/8/8 12/12/12 13/13/13
f 11/11/11 4/4/4 14/14/14
f 14/14/14 4/4/4 9/9/9
f 12/12/12 11/11/11 15/15/15
f 15/15/15 11/11/11 14/14/14
f 13/13/13 12/12/12 16/16/16
f 16/16/16 12/12/12 15/15/15
f 17/17/17 9/9/9 10/10/10
f 17/17/17 10/10/10 18/18/18
f 15/15/15 14/14/14 19/19/19
f 15/15/15 19/19/19 16/16/16
f 20/20/20 14/14/14 9/9/9
f 14/14/14 20/20/20 19/19/19
f 20/20/20 9/9/9 21/21/21
f 21/21/21 9/9/9 17/17/17
f 19/19/19 20/20/20 22/22/22
f 22/22/22 20/20/20 21/21/21
f 16/16/16 19/19/19 23/23/23
f 23/23/23 19/19/19 22/22/22
f 24/24/24 13/13/13 16/16/16
f 13/13/13 24/24/24 25/25/25
f 24/24/24 16/16/16 26/26/26
f 26/26/26 16/16/16 23/23/23
f 22/22/22 21/21/21 27/27/27
f 22/22/22 27/27/27 23/23/23
f 27/27/27 21/21/21 28/28/28
f 28/28/28 21/21/21 17/17/17
f 23/23/23 27/27/27 29/29/29
f 27/27/27 28/28/28 30/30/30
f 27/27/27 30/30/30 29/29/29
f 31/31/31 32/32/31 3/33/31
f 3/33/31 32/32/31 5/34/31
f 31/31/31 3/33/31 2/35/31
f 5/34/31 32/32/31 33/36/31
f 31/31/31 2/35/31 34/37/31
f 5/34/31 33/36/31 10/38/31
f 34/37/31 2/35/31 35/39/31
f 10/38/31 33/36/31 36/40/31
f 34/37/31 35/39/31 37/41/31
f 10/38/31 36/40/31 18/42/31
f 37/41/31 35/39/31 38/43/31
f 18/42/31 36/40/31 39/44/31
f 37/41/31 38/43/31 40/45/31
f 18/42/31 39/44/31 41/46/31
f 40/45/31 38/43/31 42/47/31
f 40/45/31 42/47/31 43/48/31
f 43/48/31 42/47/31 44/49/31
f 41/46/31 39/44/31 45/50/31
f 41/46/31 45/50/31 46/51/31
f 46/51/31 45/50/31 47/52/31
f 46/51/31 47/52/31 48/53/31
f 48/53/31 47/52/31 49/54/31
f 48/53/31 49/54/31 50/55/31
f 50/55/31 49/54/31 51/56/31
f 50/55/31 51/56/31 52/57/31
f 52/57/31 51/56/31 53/58/31
f 52/57/31 53/58/31 54/59/31
f 54/59/31 53/58/31 55/60/31
f 54/59/31 55/60/31 56/61/31
f 56/61/31 55/60/31 57/62/31
f 56/61/31 57/62/31 44/63/31
f 44/63/31 57/62/31 43/64/31
f 58/65/32 59/66/33 60/67/34
f 60/67/34 59/66/33 61/68/35
f 58/65/32 60/67/34 62/69/36
f 60/67/34 61/68/35 63/70/37
f 58/65/32 62/69/36 64/71/38
f 58/65/32 64/71/38 65/72/39
f 62/69/36 60/67/34 66/73/40
f 62/69/36 66/73/40 64/71/38
f 65/72/39 64/71/38 67/74/41
f 63/70/37 61/68/35 68/75/42
f 68/75/42 61/68/35 69/76/43
f 60/67/34 63/70/37 70/77/44
f 70/77/44 63/70/37 68/75/42
f 68/75/42 69/76/43 71/78/45
f 68/75/42 71/78/45 72/79/46
f 68/75/42 72/79/46 73/80/47
f 68/75/42 73/80/47 70/77/44
f 60/67/34 70/77/44 66/73/40
f 70/77/44 73/80/47 74/81/48
f 66/73/40 70/77/44 75/82/49
f 75/82/49 70/77/44 74/81/48
f 76/83/50 64/71/38 66/73/40
f 77/84/51 67/74/41 64/71/38
f 77/84/51 64/71/38 76/83/50
f 67/74/41 77/84/51 78/85/52
f 78/85/52 77/84/51 76/83/50
f 67/74/41 78/85/52 79/86/53
f 79/86/53 78/85/52 80/87/54
f 80/87/54 78/85/52 81/88/55
f 81/88/55 78/85/52 25/25/25
f 25/25/25 78/85/52 76/83/50
f 81/88/55 25/25/25 82/89/56
f 82/89/56 25/25/25 24/24/24
f 82/89/56 24/24/24 83/90/57
f 25/25/25 76/83/50 84/91/58
f 25/25/25 84/91/58 13/13/13
f 85/92/59 76/83/50 66/73/40
f 76/83/50 85/92/59 84/91/58
f 85/92/59 66/73/40 75/82/49
f 13/13/13 84/91/58 86/93/60
f 13/13/13 86/93/60 8/8/8
f 8/8/8 86/93/60 7/7/7
f 7/7/7 86/93/60 87/94/61
f 7/7/7 87/94/61 1/1/1
f 86/93/60 84/91/58 88/95/62
f 86/93/60 88/95/62 87/94/61
f 89/96/63 84/91/58 85/92/59
f 84/91/58 89/96/63 88/95/62
f 1/1/1 87/94/61 90/97/64
f 1/1/1 90/97/64 2/2/2
f 87/94/61 88/95/62 91/98/65
f 91/98/65 88/95/62 89/96/63
f 87/94/61 91/98/65 90/97/64
f 2/2/2 90/97/64 35/99/41
f 91/98/65 89/96/63 92/100/66
f 91/98/65 92/100/66 90/97/64
f 92/100/66 89/96/63 93/101/67
f 93/101/67 89/96/63 85/92/59
f 35/99/41 90/97/64 94/102/68
f 94/102/68 90/97/64 92/100/66
f 35/99/41 94/102/68 38/103/69
f 92/100/66 93/101/67 95/104/70
f 92/100/66 95/104/70 94/102/68
f 93/101/67 85/92/59 96/105/71
f 93/101/67 96/105/71 95/104/70
f 96/105/71 85/92/59 75/82/49
f 94/102/68 95/104/70 97/106/72
f 97/106/72 95/104/70 96/105/71
f 98/107/73 38/103/69 94/102/68
f 38/103/69 98/107/73 42/108/74
f 94/102/68 97/106/72 99/109/75
f 94/102/68 99/109/75 98/107/73
f 97/106/72 96/105/71 100/110/76
f 97/106/72 100/110/76 99/109/75
f 100/110/76 96/105/71 75/82/49
f 42/108/74 98/107/73 101/111/77
f 42/108/74 101/111/77 44/112/78
f 101/111/77 98/107/73 102/113/79
f 102/113/79 98/107/73 99/109/75
f 101/111/77 102/113/79 103/114/80
f 103/114/80 102/113/79 104/115/81
f 102/113/79 99/109/75 105/116/82
f 102/113/79 105/116/82 104/115/81
f 105/116/82 99/109/75 100/110/76
f 105/116/82 100/110/76 75/82/49
f 104/115/81 105/116/82 74/81/48
f 74/81/48 105/116/82 75/82/49
f 106/117/83 107/118/84 108/119/85
f 108/119/85 107/118/84 109/120/86
f 108/119/85 109/120/86 110/121/87
f 110/121/87 109/120/86 111/122/88
f 111/122/88 109/120/86 112/123/89
f 111/122/88 112/123/89 113/124/90
f 113/124/90 112/123/89 114/125/91
f 114/125/91 112/123/89 115/126/92
f 114/125/91 115/126/92 116/127/93
f 116/127/93 115/126/92 117/128/94
f 117/128/94 115/126/92 118/129/95
f 117/128/94 118/129/95 119/130/96
f 119/130/96 118/129/95 120/131/97
f 120/131/97 118/129/95 121/132/98
f 120/131/97 121/132/98 122/133/99
f 122/133/99 121/132/98 123/134/100
f 124/135/101 125/136/102 126/137/103
f 124/135/101 126/137/103 127/138/104
f 127/138/104 126/137/103 128/139/105
f 129/140/106 130/141/107 131/142/108
f 131/142/108 130/141/107 132/143/109
f 129/140/106 131/142/108 133/144/110
f 132/143/109 130/141/107 134/145/111
f 129/140/106 133/144/110 135/146/112
f 135/146/112 133/144/110 136/147/113
f 135/146/112 136/147/113 137/148/114
f 132/143/109 134/145/111 138/149/115
f 138/149/115 134/145/111 139/150/116
f 138/149/115 139/150/116 140/151/117
f 140/151/117 139/150/116 141/152/118
f 140/151/117 141/152/118 142/153/119
f 142/153/119 141/152/118 143/154/120
f 142/153/119 143/154/120 144/155/121
f 145/156/122 146/157/123 147/158/124
f 147/158/124 146/157/123 148/159/125
f 145/156/122 147/158/124 149/160/126
f 148/159/125 146/157/123 150/161/127
f 145/156/122 149/160/126 151/162/128
f 151/162/128 149/160/126 152/163/129
f 151/162/128 152/163/129 153/164/130
f 148/159/125 150/161/127 154/165/131
f 154/165/131 150/161/127 155/166/132
f 154/165/131 155/166/132 156/167/133
f 156/167/133 155/166/132 157/168/134
f 156/167/133 157/168/134 158/169/135
f 158/169/135 157/168/134 159/170/136
f 158/169/135 159/170/136 160/171/137
f 161/172/138 162/173/139 137/148/114
f 137/148/114 162/173/139 135/146/112
f 135/146/112 162/173/139 163/174/140
f 135/146/112 163/174/140 129/140/106
f 163/174/140 162/173/139 164/175/141
f 164/175/141 162/173/139 165/176/142
f 163/174/140 164/175/141 166/177/143
f 165/176/142 162/173/139 167/178/144
f 167/178/144 162/173/139 161/172/138
f 163/174/140 166/177/143 168/179/145
f 167/178/144 161/172/138 169/180/146
f 169/180/146 161/172/138 170/181/147
f 163/174/140 168/179/145 171/182/148
f 163/174/140 171/182/148 129/140/106
f 171/182/148 168/179/145 172/183/149
f 129/140/106 171/182/148 130/141/107
f 171/182/148 172/183/149 173/184/150
f 130/141/107 171/182/148 174/185/151
f 174/185/151 171/182/148 173/184/150
f 174/185/151 173/184/150 175/186/152
f 130/141/107 174/185/151 134/145/111
f 174/185/151 175/186/152 176/187/153
f 134/145/111 174/185/151 177/188/154
f 177/188/154 174/185/151 176/187/153
f 177/188/154 176/187/153 71/189/155
f 134/145/111 177/188/154 139/150/116
f 177/188/154 71/189/155 69/190/156
f 139/150/116 177/188/154 178/191/157
f 178/191/157 177/188/154 69/190/156
f 178/191/157 69/190/156 61/192/158
f 139/150/116 178/191/157 141/152/118
f 178/191/157 61/192/158 59/193/159
f 141/152/118 178/191/157 179/194/160
f 179/194/160 178/191/157 59/193/159
f 179/194/160 59/193/159 58/195/161
f 141/152/118 179/194/160 143/154/120
f 179/194/160 58/195/161 65/196/162
f 179/194/160 65/196/162 180/197/163
f 179/194/160 180/197/163 143/154/120
f 180/197/163 65/196/162 67/198/164
f 180/197/163 67/198/164 79/199/165
f 180/197/163 79/199/165 181/200/166
f 181/200/166 79/199/165 80/201/167
f 181/200/166 80/201/167 123/134/100
f 181/200/166 123/134/100 121/132/98
f 143/154/120 180/197/163 182/202/168
f 182/202/168 180/197/163 181/200/166
f 143/154/120 182/202/168 144/155/121
f 181/200/166 121/132/98 183/203/169
f 181/200/166 183/203/169 182/202/168
f 183/203/169 121/132/98 184/204/170
f 184/204/170 121/132/98 118/129/95
f 183/203/169 184/204/170 151/162/128
f 151/162/128 184/204/170 145/156/122
f 183/203/169 151/162/128 153/164/130
f 183/203/169 153/164/130 182/202/168
f 182/202/168 153/164/130 144/155/121
f 184/204/170 118/129/95 185/205/171
f 184/204/170 185/205/171 145/156/122
f 185/205/171 118/129/95 115/126/92
f 145/156/122 185/205/171 146/157/123
f 185/205/171 115/126/92 186/206/172
f 185/205/171 186/206/172 146/157/123
f 186/206/172 115/126/92 112/123/89
f 146/157/123 186/206/172 150/161/127
f 186/206/172 112/123/89 187/207/173
f 186/206/172 187/207/173 150/161/127
f 187/207/173 112/123/89 109/120/86
f 150/161/127 187/207/173 155/166/132
f 187/207/173 109/120/86 188/208/174
f 187/207/173 188/208/174 155/166/132
f 155/166/132 188/208/174 157/168/134
f 188/208/174 109/120/86 107/118/84
f 157/168/134 188/208/174 189/209/175
f 189/209/175 188/208/174 107/118/84
f 157/168/134 189/209/175 159/170/136
f 106/117/83 170/181/147 107/118/84
f 107/118/84 170/181/147 161/172/138
f 107/118/84 161/172/138 189/209/175
f 189/209/175 161/172/138 137/148/114
f 189/209/175 137/148/114 159/170/136
f 159/170/136 137/148/114 136/147/113
f 159/170/136 136/147/113 160/171/137
f 160/171/137 136/147/113 190/210/176
f 190/210/176 136/147/113 133/144/110
f 190/210/176 133/144/110 191/211/177
f 191/211/177 133/144/110 131/142/108
f 160/171/137 190/210/176 128/139/105
f 128/139/105 190/210/176 191/211/177
f 128/139/105 191/211/177 127/138/104
f 160/171/137 128/139/105 192/212/178
f 191/211/177 131/142/108 193/213/179
f 191/211/177 193/213/179 127/138/104
f 193/213/179 131/142/108 132/143/109
f 160/171/137 192/212/178 158/169/135
f 158/169/135 192/212/178 156/167/133
f 192/212/178 128/139/105 126/137/103
f 127/138/104 193/213/179 194/214/180
f 194/214/180 193/213/179 132/143/109
f 127/138/104 194/214/180 124/135/101
f 194/214/180 132/143/109 138/149/115
f 156/167/133 192/212/178 195/215/181
f 195/215/181 192/212/178 126/137/103
f 156/167/133 195/215/181 154/165/131
f 154/165/131 195/215/181 148/159/125
f 194/214/180 138/149/115 196/216/182
f 194/214/180 196/216/182 124/135/101
f 196/216/182 138/149/115 140/151/117
f 148/159/125 195/215/181 197/217/183
f 197/217/183 195/215/181 126/137/103
f 148/159/125 197/217/183 147/158/124
f 147/158/124 197/217/183 149/160/126
f 196/216/182 140/151/117 198/218/184
f 196/216/182 198/218/184 124/135/101
f 198/218/184 140/151/117 142/153/119
f 149/160/126 197/217/183 199/219/185
f 199/219/185 197/217/183 126/137/103
f 149/160/126 199/219/185 152/163/129
f 199/219/185 126/137/103 125/136/102
f 124/135/101 198/218/184 125/136/102
f 152/163/129 199/219/185 200/220/186
f 200/220/186 199/219/185 125/136/102
f 152/163/129 200/220/186 153/164/130
f 153/164/130 200/220/186 144/155/121
f 200/220/186 125/136/102 201/221/187
f 200/220/186 201/221/187 144/155/121
f 201/221/187 125/136/102 198/218/184
f 144/155/121 201/221/187 142/153/119
f 142/153/119 201/221/187 198/218/184
f 202/222/188 49/223/189 47/224/190
f 202/222/188 47/224/190 203/225/191
f 203/225/191 47/224/190 45/226/192
f 203/225/191 45/226/192 39/227/193
f 202/222/188 203/225/191 204/228/194
f 202/222/188 204/228/194 205/229/195
f 203/225/191 39/227/193 206/230/196
f 206/230/196 39/227/193 36/231/197
f 206/230/196 36/231/197 33/232/198
f 206/230/196 33/232/198 207/233/199
f 207/233/199 33/232/198 32/234/200
f 207/233/199 32/234/200 31/235/201
f 206/230/196 207/233/199 208/236/202
f 203/225/191 206/230/196 209/237/203
f 209/237/203 206/230/196 208/236/202
f 203/225/191 209/237/203 204/228/194
f 209/237/203 208/236/202 210/238/204
f 209/237/203 210/238/204 211/239/205
f 209/237/203 211/239/205 204/228/194
f 211/239/205 210/238/204 212/240/206
f 211/239/205 212/240/206 213/241/207
f 213/241/207 212/240/206 214/242/31
f 204/228/194 211/239/205 215/243/208
f 215/243/208 211/239/205 213/241/207
f 204/228/194 215/243/208 205/229/195
f 205/229/195 215/243/208 216/244/209
f 215/243/208 213/241/207 217/245/210
f 217/245/210 213/241/207 214/242/31
f 215/243/208 217/245/210 216/244/209
f 217/245/210 214/242/31 218/246/211
f 217/245/210 218/246/211 216/244/209
f 51/247/212 49/223/189 202/222/188
f 51/247/212 202/222/188 219/248/213
f 51/247/212 219/248/213 53/249/214
f 219/248/213 202/222/188 205/229/195
f 53/249/214 219/248/213 55/250/215
f 55/250/215 219/248/213 220/251/216
f 55/250/215 220/251/216 57/252/217
f 57/252/217 220/251/216 43/253/218
f 43/253/218 220/251/216 221/254/219
f 219/248/213 205/229/195 222/255/220
f 219/248/213 222/255/220 220/251/216
f 222/255/220 205/229/195 216/244/209
f 221/254/219 220/251/216 223/256/221
f 223/256/221 220/251/216 222/255/220
f 221/254/219 223/256/221 224/257/222
f 222/255/220 216/244/209 225/258/223
f 222/255/220 225/258/223 223/256/221
f 225/258/223 216/244/209 218/246/211
f 224/257/222 223/256/221 226/259/224
f 226/259/224 223/256/221 225/258/223
f 224/257/222 226/259/224 227/260/225
f 225/258/223 218/246/211 228/261/226
f 225/258/223 228/261/226 226/259/224
f 228/261/226 218/246/211 214/242/31
f 227/260/225 226/259/224 229/262/227
f 229/262/227 226/259/224 228/261/226
f 229/262/227 228/261/226 214/242/31
f 227/260/225 229/262/227 230/263/228
f 230/263/228 229/262/227 214/242/31
f 212/240/206 231/264/229 214/242/31
f 214/242/31 231/264/229 230/265/230
f 231/264/229 212/240/206 210/238/204
f 230/265/230 231/264/229 232/266/231
f 232/266/231 231/264/229 210/238/204
f 230/265/230 232/266/231 227/267/232
f 232/266/231 210/238/204 208/236/202
f 227/267/232 232/266/231 233/268/233
f 233/268/233 232/266/231 208/236/202
f 227/267/232 233/268/233 224/269/234
f 233/268/233 208/236/202 207/233/199
f 224/269/234 233/268/233 234/270/235
f 234/270/235 233/268/233 207/233/199
f 234/270/235 207/233/199 31/235/201
f 234/270/235 31/235/201 34/271/236
f 224/269/234 234/270/235 221/272/237
f 234/270/235 34/271/236 37/273/238
f 234/270/235 37/273/238 221/272/237
f 221/272/237 37/273/238 40/274/239
f 221/272/237 40/274/239 43/275/240
f 235/276/241 28/28/28 17/17/17
f 28/28/28 235/276/241 30/30/30
f 235/276/241 17/17/17 236/277/242
f 236/277/242 17/17/17 18/18/18
f 30/30/30 235/276/241 237/278/243
f 30/30/30 237/278/243 29/29/29
f 236/277/242 18/18/18 41/279/244
f 237/278/243 235/276/241 238/280/245
f 238/280/245 235/276/241 236/277/242
f 29/29/29 237/278/243 239/281/246
f 237/278/243 238/280/245 240/282/247
f 237/278/243 240/282/247 239/281/246
f 236/277/242 41/279/244 241/283/248
f 238/280/245 236/277/242 242/284/249
f 238/280/245 242/284/249 240/282/247
f 242/284/249 236/277/242 241/283/248
f 241/283/248 41/279/244 46/285/250
f 240/282/247 242/284/249 243/286/251
f 240/282/247 243/286/251 239/281/246
f 242/284/249 241/283/248 244/287/252
f 242/284/249 244/287/252 243/286/251
f 241/283/248 46/285/250 245/288/253
f 245/288/253 46/285/250 48/289/254
f 245/288/253 48/289/254 246/290/255
f 245/288/253 246/290/255 247/291/256
f 241/283/248 245/288/253 248/292/257
f 241/283/248 248/292/257 244/287/252
f 245/288/253 247/291/256 249/293/258
f 245/288/253 249/293/258 248/292/257
f 244/287/252 248/292/257 250/294/259
f 244/287/252 250/294/259 243/286/251
f 248/292/257 249/293/258 251/295/260
f 248/292/257 251/295/260 250/294/259
f 243/286/251 250/294/259 252/296/261
f 252/296/261 250/294/259 251/295/260
f 243/286/251 252/296/261 239/281/246
f 253/297/262 249/293/258 247/291/256
f 249/293/258 253/297/262 251/295/260
f 253/297/262 247/291/256 254/298/263
f 254/298/263 247/291/256 255/299/264
f 254/298/263 255/299/264 256/300/265
f 253/297/262 254/298/263 257/301/266
f 253/297/262 257/301/266 251/295/260
f 251/295/260 257/301/266 252/296/261
f 257/301/266 254/298/263 258/302/267
f 257/301/266 258/302/267 259/303/268
f 257/301/266 259/303/268 260/304/269
f 257/301/266 260/304/269 252/296/261
f 252/296/261 260/304/269 261/305/270
f 252/296/261 261/305/270 239/281/246
f 261/305/270 260/304/269 262/306/271
f 262/306/271 260/304/269 263/307/272
f 239/281/246 261/305/270 264/308/273
f 239/281/246 264/308/273 29/29/29
f 261/305/270 262/306/271 265/309/274
f 262/306/271 263/307/272 106/310/250
f 106/310/250 263/307/272 266/311/275
f 262/306/271 106/310/250 108/312/276
f 106/310/250 266/311/275 170/313/277
f 170/313/277 266/311/275 169/314/254
f 169/314/254 266/311/275 267/315/278
f 262/306/271 108/312/276 110/316/244
f 262/306/271 110/316/244 265/309/274
f 265/309/274 110/316/244 268/317/279
f 265/309/274 268/317/279 261/305/270
f 268/317/279 110/316/244 111/318/280
f 261/305/270 268/317/279 264/308/273
f 268/317/279 111/318/280 113/319/18
f 264/308/273 268/317/279 269/320/281
f 269/320/281 268/317/279 113/319/18
f 269/320/281 113/319/18 270/321/282
f 269/320/281 270/321/282 264/308/273
f 270/321/282 113/319/18 114/322/283
f 270/321/282 114/322/283 116/323/10
f 264/308/273 270/321/282 271/324/284
f 264/308/273 271/324/284 29/29/29
f 270/321/282 116/323/10 272/325/285
f 270/321/282 272/325/285 271/324/284
f 29/29/29 271/324/284 23/23/23
f 272/325/285 116/323/10 273/326/286
f 272/325/285 273/326/286 271/324/284
f 273/326/286 116/323/10 117/327/287
f 23/23/23 271/324/284 26/26/26
f 26/26/26 271/324/284 273/326/286
f 273/326/286 117/327/287 119/328/288
f 26/26/26 273/326/286 274/329/289
f 274/329/289 273/326/286 119/328/288
f 26/26/26 274/329/289 275/330/290
f 275/330/290 274/329/289 119/328/288
f 26/26/26 275/330/290 24/24/24
f 275/330/290 119/328/288 120/331/291
f 24/24/24 275/330/290 83/90/57
f 275/330/290 120/331/291 122/332/3
f 275/330/290 122/332/3 83/90/57
f 83/90/57 122/332/3 82/89/56
f 82/89/56 122/332/3 123/333/292
f 82/89/56 123/333/292 80/87/54
f 82/89/56 80/87/54 81/88/55
f 247/291/256 246/290/255 255/299/264
f 255/299/264 246/290/255 276/334/293
f 255/299/264 276/334/293 256/300/265
f 50/335/294 246/290/255 48/289/254
f 246/290/255 50/335/294 277/336/295
f 246/290/255 277/336/295 276/334/293
f 277/336/295 50/335/294 52/337/296
f 277/336/295 52/337/296 278/338/297
f 278/338/297 52/337/296 54/339/298
f 276/334/293 277/336/295 279/340/299
f 280/341/300 256/300/265 276/334/293
f 280/341/300 276/334/293 279/340/299
f 279/340/299 277/336/295 281/342/301
f 281/342/301 277/336/295 278/338/297
f 280/341/300 279/340/299 282/343/302
f 282/343/302 279/340/299 281/342/301
f 256/300/265 280/341/300 258/302/267
f 256/300/265 258/302/267 254/298/263
f 280/341/300 282/343/302 283/344/303
f 280/341/300 283/344/303 258/302/267
f 282/343/302 281/342/301 284/345/304
f 282/343/302 284/345/304 283/344/303
f 284/345/304 281/342/301 285/346/305
f 285/346/305 281/342/301 278/338/297
f 258/302/267 283/344/303 286/347/306
f 283/344/303 284/345/304 287/348/307
f 284/345/304 285/346/305 288/349/308
f 284/345/304 288/349/308 287/348/307
f 285/346/305 278/338/297 289/350/309
f 285/346/305 289/350/309 288/349/308
f 289/350/309 278/338/297 290/351/310
f 290/351/310 278/338/297 54/339/298
f 290/351/310 54/339/298 56/352/311
f 288/349/308 289/350/309 291/353/312
f 288/349/308 291/353/312 287/348/307
f 289/350/309 290/351/310 292/354/313
f 289/350/309 292/354/313 291/353/312
f 290/351/310 56/352/311 293/355/314
f 290/351/310 293/355/314 292/354/313
f 293/355/314 56/352/311 44/356/315
f 293/355/314 44/356/315 101/357/316
f 287/348/307 291/353/312 294/358/317
f 293/355/314 101/357/316 295/359/318
f 295/359/318 101/357/316 103/360/319
f 296/361/320 291/353/312 292/354/313
f 291/353/312 296/361/320 294/358/317
f 297/362/321 292/354/313 293/355/314
f 292/354/313 297/362/321 296/361/320
f 293/355/314 295/359/318 298/363/322
f 293/355/314 298/363/322 297/362/321
f 296/361/320 297/362/321 299/364/323
f 299/364/323 297/362/321 298/363/322
f 296/361/320 299/364/323 294/358/317
f 298/363/322 295/359/318 300/365/324
f 298/363/322 300/365/324 299/364/323
f 301/366/325 295/359/318 103/360/319
f 295/359/318 301/366/325 300/365/324
f 301/366/325 103/360/319 104/367/326
f 301/366/325 104/367/326 74/368/327
f 300/365/324 301/366/325 302/369/328
f 300/365/324 302/369/328 299/364/323
f 302/369/328 301/366/325 74/368/327
f 299/364/323 302/369/328 294/358/317
f 302/369/328 74/368/327 73/370/329
f 294/358/317 302/369/328 303/371/330
f 303/371/330 302/369/328 73/370/329
f 294/358/317 303/371/330 304/372/331
f 294/358/317 304/372/331 287/348/307
f 303/371/330 73/370/329 305/373/332
f 305/373/332 73/370/329 72/374/333
f 305/373/332 72/374/333 71/375/334
f 305/373/332 71/375/334 176/376/335
f 305/373/332 176/376/335 175/377/311
f 303/371/330 305/373/332 306/378/336
f 306/378/336 305/373/332 175/377/311
f 303/371/330 306/378/336 307/379/337
f 307/379/337 306/378/336 175/377/311
f 303/371/330 307/379/337 304/372/331
f 307/379/337 175/377/311 173/380/338
f 307/379/337 173/380/338 172/381/298
f 304/372/331 307/379/337 308/382/339
f 308/382/339 307/379/337 172/381/298
f 308/382/339 172/381/298 309/383/340
f 308/382/339 309/383/340 304/372/331
f 309/383/340 172/381/298 168/384/341
f 309/383/340 168/384/341 166/385/296
f 304/372/331 309/383/340 310/386/342
f 304/372/331 310/386/342 287/348/307
f 309/383/340 166/385/296 311/387/343
f 309/383/340 311/387/343 310/386/342
f 287/348/307 310/386/342 283/344/303
f 311/387/343 166/385/296 312/388/344
f 311/387/343 312/388/344 310/386/342
f 312/388/344 166/385/296 164/389/345
f 283/344/303 310/386/342 286/347/306
f 286/347/306 310/386/342 312/388/344
f 312/388/344 164/389/345 165/390/294
f 286/347/306 312/388/344 313/391/346
f 313/391/346 312/388/344 165/390/294
f 313/391/346 165/390/294 314/392/347
f 313/391/346 314/392/347 286/347/306
f 314/392/347 165/390/294 167/393/348
f 314/392/347 167/393/348 169/314/254
f 314/392/347 169/314/254 267/315/278
f 286/347/306 314/392/347 259/303/268
f 259/303/268 314/392/347 267/315/278
f 286/347/306 259/303/268 258/302/267
f 259/303/268 267/315/278 266/311/275
f 259/303/268 266/311/275 260/304/269
f 260/304/269 266/311/275 263/307/272
