# CS2 body mesh, tools/cs2_glb_to_obj.py
v 0.04624 0.02097 0.04225
v 0.04731 0.02123 0.04225
v 0.04728 0.02171 0.04225
v 0.04856 0.02152 0.04225
v 0.04603 0.02141 0.04225
v 0.04839 0.02106 0.04225
v 0.04535 0.02032 0.04225
v 0.04966 0.02085 0.04225
v 0.045 0.02065 0.04225
v 0.04933 0.02049 0.04225
v 0.04478 0.01938 0.04225
v 0.05042 0.01981 0.04225
v 0.04433 0.01955 0.04225
v 0.04998 0.01961 0.04225
v 0.04462 0.0183 0.04225
v 0.05072 0.01856 0.04225
v 0.04413 0.01827 0.04225
v 0.04488 0.01723 0.04225
v 0.04444 0.01702 0.04225
v 0.05024 0.01854 0.04225
v 0.05053 0.01729 0.04225
v 0.05007 0.01746 0.04225
v 0.04986 0.01619 0.04225
v 0.0495 0.01652 0.04225
v 0.04882 0.01543 0.04225
v 0.04862 0.01587 0.04225
v 0.04757 0.01512 0.04225
v 0.04755 0.01561 0.04225
v 0.0463 0.01532 0.04225
v 0.04647 0.01577 0.04225
v 0.0452 0.01599 0.04225
v 0.04553 0.01634 0.04225
v 0.04938 0.01423 -0.00567
v 0.05083 0.0153 -0.00567
v 0.05049 0.01424 -0.00538
v 0.04962 0.01372 -0.00538
v 0.05125 0.01492 -0.00538
v 0.05186 0.01573 -0.00538
v 0.05177 0.01684 -0.00567
v 0.0523 0.01665 -0.00538
v 0.05255 0.01763 -0.00538
v 0.05204 0.01862 -0.00567
v 0.0526 0.01864 -0.00538
v 0.05246 0.01965 -0.00538
v 0.05161 0.02037 -0.00567
v 0.05212 0.02061 -0.00538
v 0.05161 0.02148 -0.00538
v 0.05055 0.02182 -0.00567
v 0.05093 0.02224 -0.00538
v 0.05012 0.02285 -0.00538
v 0.04901 0.02276 -0.00567
v 0.04712 0.01756 -0.00581
v 0.0466 0.01803 -0.00581
v 0.04743 0.01842 -0.00548
v 0.04657 0.01873 -0.00581
v 0.04704 0.01925 -0.00581
v 0.04734 0.02034 -0.00581
v 0.04661 0.02016 -0.00581
v 0.04733 0.02061 -0.00521
v 0.0465 0.02041 -0.00521
v 0.04818 0.02048 -0.00521
v 0.04731 0.02107 -0.00567
v 0.04631 0.02082 -0.00567
v 0.04834 0.02091 -0.00567
v 0.04922 0.02038 -0.00567
v 0.04891 0.02004 -0.00521
v 0.04723 0.02303 -0.00567
v 0.04548 0.0226 -0.00567
v 0.04983 0.01954 -0.00567
v 0.04942 0.01935 -0.00521
v 0.05008 0.01853 -0.00567
v 0.04962 0.01851 -0.00521
v 0.04992 0.01751 -0.00567
v 0.04949 0.01767 -0.00521
v 0.04939 0.01663 -0.00567
v 0.04905 0.01694 -0.00521
v 0.04855 0.01601 -0.00567
v 0.04836 0.01643 -0.00521
v 0.04754 0.01577 -0.00567
v 0.04752 0.01623 -0.00521
v 0.04652 0.01592 -0.00567
v 0.04763 0.01381 -0.00567
v 0.04866 0.01339 -0.00538
v 0.04765 0.01324 -0.00538
v 0.04664 0.0133 -0.00538
v 0.04585 0.01408 -0.00567
v 0.04566 0.01355 -0.00538
v 0.04564 0.01646 -0.00567
v 0.04474 0.01399 -0.00538
v 0.04431 0.01501 -0.00567
v 0.04393 0.0146 -0.00538
v 0.04502 0.0173 -0.00567
v 0.04325 0.01536 -0.00538
v 0.04324 0.01647 -0.00567
v 0.04273 0.01623 -0.00538
v 0.04478 0.0183 -0.00567
v 0.0424 0.01719 -0.00538
v 0.04282 0.01822 -0.00567
v 0.04225 0.01819 -0.00538
v 0.04493 0.01933 -0.00567
v 0.04231 0.01921 -0.00538
v 0.04309 0.02 -0.00567
v 0.04256 0.02019 -0.00538
v 0.04547 0.02021 -0.00567
v 0.043 0.02111 -0.00538
v 0.04402 0.02154 -0.00567
v 0.04361 0.02192 -0.00538
v 0.04437 0.0226 -0.00538
v 0.04524 0.02311 -0.00538
v 0.0462 0.02345 -0.00538
v 0.0472 0.02359 -0.00538
v 0.04822 0.02354 -0.00538
v 0.0492 0.02329 -0.00538
v 0.04774 0.01928 -0.00581
v 0.04826 0.0188 -0.00581
v 0.04809 0.02023 -0.00581
v 0.04873 0.01984 -0.00581
v 0.04917 0.01923 -0.00581
v 0.04935 0.0185 -0.00581
v 0.04829 0.01811 -0.00581
v 0.04924 0.01776 -0.00581
v 0.04885 0.01712 -0.00581
v 0.04781 0.01759 -0.00581
v 0.04824 0.01667 -0.00581
v 0.04751 0.0165 -0.00581
v 0.04677 0.01661 -0.00581
v 0.04668 0.01636 -0.00521
v 0.04595 0.0168 -0.00521
v 0.04613 0.017 -0.00581
v 0.04544 0.01749 -0.00521
v 0.04568 0.0176 -0.00581
v 0.04524 0.01832 -0.00521
v 0.04551 0.01833 -0.00581
v 0.04537 0.01917 -0.00521
v 0.04562 0.01908 -0.00581
v 0.04581 0.0199 -0.00521
v 0.04601 0.01972 -0.00581
v 0.04975 0.01701 0.04496
v 0.04807 0.01579 0.04496
v 0.05006 0.01906 0.04496
v 0.04932 0.01727 0.04964
v 0.04795 0.01627 0.04964
v 0.04883 0.02074 0.04496
v 0.04857 0.02031 0.04964
v 0.04957 0.01894 0.04964
v 0.04812 0.01956 0.05351
v 0.04873 0.01874 0.05351
v 0.04782 0.01906 0.05485
v 0.04857 0.01772 0.05351
v 0.04775 0.01712 0.05351
v 0.04816 0.0186 0.05485
v 0.04743 0.01842 0.05535
v 0.04807 0.01803 0.05485
v 0.04761 0.01769 0.05485
v 0.05093 0.02224 -0.00212
v 0.05161 0.02148 -0.00212
v 0.0504 0.02166 -0.00294
v 0.05161 0.02148 0.03313
v 0.05142 0.02028 -0.00294
v 0.05093 0.02224 0.03313
v 0.05012 0.02285 -0.00212
v 0.04966 0.02085 0.03688
v 0.04893 0.02256 -0.00294
v 0.0492 0.02329 -0.00212
v 0.05012 0.02285 0.03313
v 0.0492 0.02329 0.03313
v 0.04822 0.02354 -0.00212
v 0.04822 0.02354 0.03313
v 0.04856 0.02152 0.03688
v 0.05042 0.01981 0.03688
v 0.05072 0.01856 0.03688
v 0.05212 0.02061 0.03313
v 0.05246 0.01965 0.03313
v 0.05212 0.02061 -0.00212
v 0.05053 0.01729 0.03688
v 0.0526 0.01864 0.03313
v 0.05246 0.01965 -0.00212
v 0.05255 0.01763 0.03313
v 0.0526 0.01864 -0.00212
v 0.05183 0.01861 -0.00294
v 0.04986 0.01619 0.03688
v 0.05255 0.01763 -0.00212
v 0.0523 0.01665 0.03313
v 0.04602 0.0161 0.04496
v 0.0448 0.01777 0.04496
v 0.04628 0.01653 0.04964
v 0.04528 0.01789 0.04964
v 0.04673 0.01727 0.05351
v 0.04613 0.0181 0.05351
v 0.04704 0.01777 0.05485
v 0.0467 0.01824 0.05485
v 0.04725 0.01915 0.05485
v 0.04678 0.01881 0.05485
v 0.04711 0.01972 0.05351
v 0.04628 0.01911 0.05351
v 0.0469 0.02056 0.04964
v 0.04554 0.01956 0.04964
v 0.04678 0.02105 0.04496
v 0.04511 0.01982 0.04496
v 0.05186 0.01573 0.03313
v 0.0523 0.01665 -0.00212
v 0.05157 0.01691 -0.00294
v 0.04882 0.01543 0.03688
v 0.04757 0.01512 0.03688
v 0.04866 0.01339 0.03313
v 0.05186 0.01573 -0.00212
v 0.05125 0.01492 0.03313
v 0.05049 0.01424 0.03313
v 0.04962 0.01372 0.03313
v 0.04962 0.01372 -0.00212
v 0.04866 0.01339 -0.00212
v 0.04929 0.01443 -0.00294
v 0.05049 0.01424 -0.00212
v 0.05125 0.01492 -0.00212
v 0.05067 0.01544 -0.00294
v 0.04762 0.01402 -0.00294
v 0.04762 0.01402 -0.00404
v 0.04929 0.01443 -0.00404
v 0.05067 0.01544 -0.00404
v 0.05157 0.01691 -0.00404
v 0.05183 0.01861 -0.00404
v 0.05186 0.01573 -0.00433
v 0.05125 0.01492 -0.00433
v 0.05049 0.01424 -0.00433
v 0.04962 0.01372 -0.00433
v 0.04866 0.01339 -0.00433
v 0.0523 0.01665 -0.00433
v 0.05255 0.01763 -0.00433
v 0.0526 0.01864 -0.00433
v 0.05246 0.01965 -0.00433
v 0.05142 0.02028 -0.00404
v 0.05212 0.02061 -0.00433
v 0.05161 0.02148 -0.00433
v 0.0504 0.02166 -0.00404
v 0.04893 0.02256 -0.00404
v 0.05093 0.02224 -0.00433
v 0.05012 0.02285 -0.00433
v 0.0492 0.02329 -0.00433
v 0.04822 0.02354 -0.00433
v 0.0472 0.02359 -0.00433
v 0.04724 0.02282 -0.00404
v 0.0462 0.02345 -0.00433
v 0.04724 0.02282 -0.00294
v 0.04524 0.02311 -0.00433
v 0.04557 0.02241 -0.00404
v 0.04437 0.0226 -0.00433
v 0.04361 0.02192 -0.00433
v 0.04557 0.02241 -0.00294
v 0.04418 0.02139 -0.00404
v 0.043 0.02111 -0.00433
v 0.04256 0.02019 -0.00433
v 0.04418 0.02139 -0.00294
v 0.04329 0.01992 -0.00404
v 0.04231 0.01921 -0.00433
v 0.04329 0.01992 -0.00294
v 0.04303 0.01823 -0.00404
v 0.04225 0.01819 -0.00433
v 0.0424 0.01719 -0.00433
v 0.04273 0.01623 -0.00433
v 0.04344 0.01656 -0.00404
v 0.04344 0.01656 -0.00294
v 0.04303 0.01823 -0.00294
v 0.0424 0.01719 -0.00212
v 0.04273 0.01623 -0.00212
v 0.0424 0.01719 0.03313
v 0.04273 0.01623 0.03313
v 0.04444 0.01702 0.03688
v 0.04413 0.01827 0.03688
v 0.04225 0.01819 0.03313
v 0.04433 0.01955 0.03688
v 0.04225 0.01819 -0.00212
v 0.04231 0.01921 0.03313
v 0.04231 0.01921 -0.00212
v 0.045 0.02065 0.03688
v 0.04256 0.02019 0.03313
v 0.043 0.02111 0.03313
v 0.04256 0.02019 -0.00212
v 0.043 0.02111 -0.00212
v 0.04361 0.02192 0.03313
v 0.04604 0.0214 0.03688
v 0.04361 0.02192 -0.00212
v 0.04437 0.0226 0.03313
v 0.04437 0.0226 -0.00212
v 0.04524 0.02311 0.03313
v 0.04524 0.02311 -0.00212
v 0.0462 0.02345 -0.00212
v 0.0462 0.02345 0.03313
v 0.04729 0.02171 0.03688
v 0.0472 0.02359 0.03313
v 0.0472 0.02359 -0.00212
v 0.04765 0.01324 0.03313
v 0.04765 0.01324 -0.00212
v 0.04664 0.0133 0.03313
v 0.04664 0.0133 -0.00212
v 0.0463 0.01532 0.03688
v 0.04566 0.01355 0.03313
v 0.0452 0.01599 0.03688
v 0.04325 0.01536 0.03313
v 0.04474 0.01399 0.03313
v 0.04393 0.0146 0.03313
v 0.04325 0.01536 -0.00212
v 0.04566 0.01355 -0.00212
v 0.04445 0.01517 -0.00294
v 0.04393 0.0146 -0.00212
v 0.04474 0.01399 -0.00212
v 0.04592 0.01428 -0.00294
v 0.04445 0.01517 -0.00404
v 0.04592 0.01428 -0.00404
v 0.04325 0.01536 -0.00433
v 0.04393 0.0146 -0.00433
v 0.04474 0.01399 -0.00433
v 0.04566 0.01355 -0.00433
v 0.04664 0.0133 -0.00433
v 0.04765 0.01324 -0.00433
vt 0.110779 0.089966
vt 0.110779 0.088318
vt 0.110291 0.088318
vt 0.110291 0.086609
vt 0.110291 0.089966
vt 0.110779 0.086609
vt 0.110779 0.091614
vt 0.110291 0.0849
vt 0.110291 0.091553
vt 0.110779 0.0849
vt 0.110779 0.09314
vt 0.110291 0.083191
vt 0.110291 0.093079
vt 0.110779 0.083191
vt 0.110779 0.094604
vt 0.110291 0.081482
vt 0.110291 0.094543
vt 0.110779 0.095947
vt 0.110291 0.096008
vt 0.110779 0.081482
vt 0.110291 0.079773
vt 0.110779 0.079773
vt 0.110291 0.078064
vt 0.110779 0.078064
vt 0.110291 0.076416
vt 0.110779 0.076416
vt 0.110291 0.074829
vt 0.110779 0.074829
vt 0.110291 0.073364
vt 0.110779 0.073303
vt 0.110291 0.071899
vt 0.110779 0.071838
vt 0.110291 0.070435
vt 0.110779 0.070496
vt 0.511719 0.199585
vt 0.512207 0.197388
vt 0.51123 0.198364
vt 0.510742 0.199585
vt 0.51123 0.197144
vt 0.511719 0.196045
vt 0.513184 0.195679
vt 0.512695 0.195068
vt 0.513672 0.194336
vt 0.515137 0.194336
vt 0.514648 0.193726
vt 0.515625 0.193359
vt 0.51709 0.19397
vt 0.51709 0.193237
vt 0.518066 0.193359
vt 0.519043 0.194336
vt 0.519531 0.193604
vt 0.520508 0.194214
vt 0.520996 0.195557
vt 0.516602 0.200195
vt 0.51709 0.200439
vt 0.51709 0.199463
vt 0.518066 0.200195
vt 0.518066 0.199463
vt 0.519043 0.19873
vt 0.519043 0.199463
vt 0.519531 0.198486
vt 0.52002 0.199463
vt 0.519043 0.197632
vt 0.52002 0.19812
vt 0.520508 0.199463
vt 0.519531 0.197144
vt 0.518555 0.196411
vt 0.518066 0.197021
vt 0.522461 0.197266
vt 0.522949 0.199463
vt 0.51709 0.196167
vt 0.51709 0.196777
vt 0.515625 0.196411
vt 0.516113 0.197021
vt 0.514648 0.197144
vt 0.515137 0.197632
vt 0.51416 0.198242
vt 0.514648 0.198486
vt 0.513672 0.199585
vt 0.514648 0.199585
vt 0.51416 0.200806
vt 0.514648 0.200562
vt 0.514648 0.201904
vt 0.512207 0.20166
vt 0.51123 0.200806
vt 0.51123 0.202026
vt 0.512207 0.203003
vt 0.513184 0.203491
vt 0.512695 0.203979
vt 0.516113 0.202637
vt 0.513672 0.204712
vt 0.515137 0.204712
vt 0.514648 0.205322
vt 0.51709 0.202881
vt 0.516113 0.205688
vt 0.51709 0.205078
vt 0.51709 0.205811
vt 0.518555 0.202515
vt 0.518555 0.205688
vt 0.519531 0.20459
vt 0.519531 0.205322
vt 0.519531 0.201782
vt 0.520508 0.204712
vt 0.520996 0.203369
vt 0.521484 0.203857
vt 0.520508 0.200684
vt 0.522461 0.202881
vt 0.522461 0.201538
vt 0.522949 0.201782
vt 0.523438 0.200684
vt 0.523438 0.199341
vt 0.523438 0.19812
vt 0.522949 0.197021
vt 0.522461 0.195923
vt 0.521484 0.194946
vt 0.518066 0.198853
vt 0.51709 0.198486
vt 0.518555 0.197998
vt 0.518066 0.197632
vt 0.51709 0.19751
vt 0.516602 0.197632
vt 0.516602 0.198853
vt 0.515625 0.19812
vt 0.515137 0.19873
vt 0.516113 0.199463
vt 0.515137 0.199585
vt 0.515137 0.200317
vt 0.515625 0.200928
vt 0.515137 0.201416
vt 0.516113 0.202026
vt 0.516602 0.201416
vt 0.51709 0.202148
vt 0.51709 0.201538
vt 0.518066 0.201904
vt 0.518066 0.201416
vt 0.519043 0.201416
vt 0.518555 0.200928
vt 0.519531 0.200439
vt 0.519043 0.200195
vt 0.0625 0.016693
vt 0.061157 0.016693
vt 0.060089 0.019485
vt 0.059723 0.016693
vt 0.062561 0.019669
vt 0.063843 0.016693
vt 0.057526 0.019424
vt 0.058289 0.016693
vt 0.059387 0.024429
vt 0.056824 0.016693
vt 0.061218 0.024765
vt 0.054932 0.019485
vt 0.055359 0.016693
vt 0.053955 0.016693
vt 0.055542 0.024414
vt 0.057465 0.024323
vt 0.056366 0.02858
vt 0.057404 0.028503
vt 0.056854 0.030029
vt 0.058441 0.028595
vt 0.059448 0.02887
vt 0.057404 0.029953
vt 0.057373 0.030884
vt 0.057922 0.030029
vt 0.058411 0.030212
vt 0.771973 0.992676
vt 0.770996 0.992676
vt 0.772461 0.993652
vt 0.770996 0.95166
vt 0.77002 0.993652
vt 0.771973 0.95166
vt 0.773438 0.992676
vt 0.771973 0.946777
vt 0.774414 0.993652
vt 0.774414 0.992676
vt 0.773438 0.95166
vt 0.774414 0.95166
vt 0.775391 0.992676
vt 0.775391 0.95166
vt 0.773926 0.946777
vt 0.771973 0.940918
vt 0.773926 0.940918
vt 0.77002 0.940918
vt 0.77002 0.946777
vt 0.768066 0.940918
vt 0.768066 0.946777
vt 0.766113 0.940918
vt 0.77002 0.95166
vt 0.769043 0.95166
vt 0.77002 0.992676
vt 0.766113 0.946777
vt 0.76416 0.940918
vt 0.768066 0.95166
vt 0.769043 0.992676
vt 0.766602 0.95166
vt 0.768066 0.992676
vt 0.767578 0.993652
vt 0.76416 0.946777
vt 0.762207 0.940918
vt 0.766602 0.992676
vt 0.765625 0.95166
vt 0.065063 0.016693
vt 0.06488 0.019989
vt 0.066223 0.016693
vt 0.067383 0.016693
vt 0.067139 0.020676
vt 0.062927 0.025345
vt 0.064575 0.026245
vt 0.060303 0.029358
vt 0.061066 0.030121
vt 0.058807 0.030533
vt 0.059021 0.031052
vt 0.056366 0.030212
vt 0.055969 0.030518
vt 0.055725 0.031036
vt 0.055359 0.028839
vt 0.054474 0.029312
vt 0.05368 0.03006
vt 0.05368 0.024719
vt 0.05191 0.025238
vt 0.050232 0.026093
vt 0.052429 0.019638
vt 0.052582 0.016693
vt 0.05127 0.016693
vt 0.050079 0.019913
vt 0.050018 0.016693
vt 0.047729 0.020294
vt 0.048828 0.016693
vt 0.047699 0.016693
vt 0.0466 0.016693
vt 0.764648 0.95166
vt 0.765625 0.992676
vt 0.765625 0.993652
vt 0.762207 0.946777
vt 0.760742 0.940918
vt 0.760742 0.946777
vt 0.760254 0.95166
vt 0.764648 0.992676
vt 0.763672 0.95166
vt 0.762695 0.95166
vt 0.76123 0.95166
vt 0.76123 0.992676
vt 0.760254 0.992676
vt 0.76123 0.993652
vt 0.762695 0.992676
vt 0.763672 0.992676
vt 0.763184 0.993652
vt 0.758789 0.993652
vt 0.758789 0.995117
vt 0.760742 0.995117
vt 0.763184 0.995117
vt 0.765625 0.995117
vt 0.767578 0.995117
vt 0.76416 0.996094
vt 0.763184 0.996094
vt 0.762207 0.996094
vt 0.763184 0.997559
vt 0.761719 0.997559
vt 0.76416 0.997559
vt 0.760742 0.997559
vt 0.760742 0.996094
vt 0.759766 0.996094
vt 0.759766 0.997559
vt 0.765625 0.997559
vt 0.765625 0.996094
vt 0.766602 0.996094
vt 0.766602 0.997559
vt 0.767578 0.997559
vt 0.767578 0.996094
vt 0.769043 0.996094
vt 0.769043 0.997559
vt 0.77002 0.997559
vt 0.77002 0.995117
vt 0.77002 0.996094
vt 0.770996 0.996094
vt 0.770996 0.997559
vt 0.772461 0.997559
vt 0.772461 0.995117
vt 0.774414 0.995117
vt 0.772461 0.996094
vt 0.773438 0.996094
vt 0.773438 0.997559
vt 0.774414 0.997559
vt 0.774414 0.996094
vt 0.775879 0.996094
vt 0.775879 0.997559
vt 0.776855 0.997559
vt 0.776855 0.996094
vt 0.776855 0.995117
vt 0.777832 0.996094
vt 0.777832 0.997559
vt 0.779297 0.997559
vt 0.776855 0.993652
vt 0.779297 0.996094
vt 0.779297 0.995117
vt 0.780273 0.996094
vt 0.780273 0.997559
vt 0.781738 0.997559
vt 0.78125 0.996094
vt 0.778809 0.993652
vt 0.78125 0.995117
vt 0.782715 0.996094
vt 0.782715 0.997559
vt 0.783691 0.997559
vt 0.783691 0.996094
vt 0.78125 0.993652
vt 0.783691 0.995117
vt 0.784668 0.996094
vt 0.785156 0.997559
vt 0.786133 0.997559
vt 0.783203 0.993652
vt 0.785645 0.995117
vt 0.786133 0.996094
vt 0.787109 0.996094
vt 0.787598 0.997559
vt 0.788574 0.997559
vt 0.788086 0.996094
vt 0.788086 0.995117
vt 0.787598 0.993652
vt 0.785645 0.993652
vt 0.786133 0.992676
vt 0.787109 0.992676
vt 0.786133 0.95166
vt 0.787109 0.95166
vt 0.78418 0.946777
vt 0.782715 0.940918
vt 0.78418 0.940918
vt 0.782715 0.946777
vt 0.78125 0.940918
vt 0.785156 0.95166
vt 0.78125 0.946777
vt 0.779297 0.940918
vt 0.785156 0.992676
vt 0.78418 0.95166
vt 0.78418 0.992676
vt 0.779297 0.946777
vt 0.777832 0.940918
vt 0.782715 0.95166
vt 0.781738 0.95166
vt 0.782715 0.992676
vt 0.781738 0.992676
vt 0.780762 0.95166
vt 0.777832 0.946777
vt 0.780762 0.992676
vt 0.779785 0.95166
vt 0.779785 0.992676
vt 0.775879 0.940918
vt 0.778809 0.95166
vt 0.778809 0.992676
vt 0.777344 0.992676
vt 0.777344 0.95166
vt 0.775879 0.946777
vt 0.776367 0.95166
vt 0.776367 0.992676
vt 0.759277 0.95166
vt 0.759277 0.992676
vt 0.758301 0.95166
vt 0.758301 0.992676
vt 0.758789 0.940918
vt 0.758789 0.946777
vt 0.757324 0.940918
vt 0.756836 0.95166
vt 0.757324 0.946777
vt 0.755859 0.940918
vt 0.755859 0.946777
vt 0.753906 0.95166
vt 0.752441 0.95166
vt 0.755859 0.95166
vt 0.754883 0.95166
vt 0.753906 0.992676
vt 0.752441 0.992676
vt 0.752441 0.993652
vt 0.756836 0.992676
vt 0.754395 0.993652
vt 0.754883 0.992676
vt 0.751953 0.995117
vt 0.755859 0.992676
vt 0.756836 0.993652
vt 0.754395 0.995117
vt 0.756348 0.995117
vt 0.75293 0.996094
vt 0.751465 0.996094
vt 0.751465 0.997559
vt 0.752441 0.997559
vt 0.753906 0.997559
vt 0.753906 0.996094
vt 0.754883 0.996094
vt 0.754883 0.997559
vt 0.756348 0.997559
vt 0.756348 0.996094
vt 0.757324 0.996094
vt 0.757324 0.997559
vt 0.758301 0.997559
vt 0.758301 0.996094
vn 0 -0.001 1
vn 0.0469 -0.1016 -0.9937
vn 0.0834 -0.0755 -0.9937
vn 0.2482 -0.3373 -0.9081
vn 0.1931 -0.414 -0.8895
vn 0.3364 -0.3108 -0.889
vn 0.3596 -0.2161 -0.9077
vn 0.1045 -0.0389 -0.9938
vn 0.4301 -0.1573 -0.889
vn 0.4146 -0.0637 -0.9078
vn 0.1119 0.0054 -0.9937
vn 0.4583 0.02 -0.8886
vn 0.4076 0.0981 -0.9079
vn 0.1017 0.0481 -0.9937
vn 0.4145 0.1948 -0.889
vn 0.3376 0.2499 -0.9075
vn 0.0754 0.0822 -0.9938
vn 0.3076 0.3376 -0.8896
vn 0.2159 0.3579 -0.9085
vn 0.0389 0.1057 -0.9936
vn 0.0391 0.1106 -0.9931
vn 0.1044 0.0505 -0.9933
vn 0 -0.001 -1
vn 0.1094 -0.0391 -0.9932
vn 0.0493 -0.1043 -0.9933
vn -0.0175 0.4828 -0.8755
vn -0.2002 0.4435 -0.8736
vn -0.005 0.0129 -0.9999
vn -0.009 0.011 -0.9999
vn 0.001 0.0129 -0.9999
vn 0.0044 -0.1335 -0.991
vn 0.0548 -0.1222 -0.991
vn -0.0477 -0.1239 -0.9911
vn -0.0899 -0.098 -0.9911
vn 0.005 0.0129 -0.9999
vn -0.0054 0.1119 -0.9937
vn -0.0481 0.1017 -0.9937
vn -0.121 -0.0559 -0.9911
vn 0.011 0.009 -0.9999
vn -0.1325 -0.0055 -0.9912
vn 0.0129 0.005 -0.9999
vn -0.1238 0.0466 -0.9912
vn 0.0139 -0.001 -0.9999
vn -0.0981 0.0911 -0.991
vn 0.012 -0.007 -0.9999
vn -0.0559 0.1198 -0.9912
vn 0.01 -0.009 -0.9999
vn -0.0033 0.1334 -0.9911
vn 0.004 -0.0129 -0.9999
vn 0.0466 0.1238 -0.9912
vn 0.0043 -0.1117 -0.9937
vn 0.0996 -0.4081 -0.9075
vn 0.0187 -0.4578 -0.8889
vn -0.0651 -0.4134 -0.9082
vn -0.0378 -0.1056 -0.9937
vn -0.1558 -0.4313 -0.8886
vn 0.0911 0.0981 -0.991
vn -0.2176 -0.3582 -0.9079
vn -0.0766 -0.0822 -0.9937
vn -0.3093 -0.3378 -0.8889
vn 0.122 0.0536 -0.9911
vn -0.3387 -0.2467 -0.908
vn -0.1027 -0.0458 -0.9937
vn -0.4154 -0.1916 -0.8892
vn 0.1334 0.0033 -0.9911
vn -0.4069 -0.101 -0.9079
vn -0.1128 -0.0033 -0.9936
vn -0.4567 -0.02 -0.8894
vn 0.125 -0.0466 -0.9911
vn -0.413 0.0636 -0.9085
vn -0.1057 0.0389 -0.9936
vn -0.4309 0.1542 -0.8891
vn 0.0968 -0.091 -0.9911
vn -0.3579 0.2159 -0.9085
vn -0.0822 0.0754 -0.9938
vn -0.3376 0.3076 -0.8896
vn -0.2469 0.3404 -0.9073
vn -0.1948 0.4145 -0.889
vn -0.101 0.4052 -0.9086
vn -0.02 0.4583 -0.8886
vn 0.0636 0.413 -0.9085
vn 0.1572 0.4283 -0.8898
vn -0.0402 -0.1083 -0.9933
vn -0.1054 -0.0482 -0.9933
vn 0.1684 0.4554 -0.8742
vn 0.3305 0.3518 -0.8758
vn 0.4408 0.2033 -0.8742
vn 0.4828 0.0175 -0.8755
vn -0.1084 0.0413 -0.9932
vn 0.4546 -0.1716 -0.874
vn 0.3536 -0.3308 -0.8749
vn -0.0483 0.1066 -0.9931
vn 0.2017 -0.4404 -0.8749
vn 0.0161 -0.4855 -0.8741
vn -0.17 -0.4559 -0.8736
vn 0 -0.0149 -0.9999
vn -0.006 -0.0129 -0.9999
vn -0.3292 -0.3551 -0.8749
vn -0.01 -0.009 -0.9999
vn -0.4417 -0.2001 -0.8746
vn -0.0119 -0.005 -0.9999
vn -0.4844 -0.0175 -0.8747
vn -0.0129 0.001 -0.9999
vn -0.4554 0.1684 -0.8742
vn -0.0129 0.005 -0.9999
vn -0.3549 0.3274 -0.8757
vn 0.4677 -0.8814 0.0664
vn 0.7193 -0.692 0.0604
vn 0.8525 -0.5124 0.1033
vn 0.9543 -0.2912 0.0667
vn 0.2404 -0.9653 0.1023
vn 0.019 -0.998 0.0611
vn 0.9654 0.2391 0.1036
vn 0.9979 0.0201 0.0623
vn 0.8384 -0.5229 0.154
vn 0.8801 0.4699 0.0679
vn 0.2226 -0.9626 0.1545
vn 0.5118 0.853 0.1018
vn 0.6927 0.7186 0.0619
vn 0.2915 0.9541 0.0681
vn 0.5234 0.8377 0.1557
vn 0.9627 0.2213 0.1559
vn 0.5258 0.8097 0.2605
vn 0.9443 0.2021 0.2598
vn 0.4691 0.6995 0.5392
vn 0.8106 -0.5253 0.2588
vn 0.2003 -0.9452 0.2579
vn 0.8271 0.166 0.537
vn 0.7009 -0.469 0.5374
vn 0.1644 -0.8267 0.5381
vn 0.6769 0.7358 -0.021
vn 0.8071 0.5897 -0.0293
vn 0.6251 0.6812 -0.381
vn 0.8066 0.589 0.0494
vn 0.8384 0.3885 -0.3822
vn 0.6743 0.737 0.047
vn 0.5195 0.854 -0.0288
vn 0.659 0.7213 0.2134
vn 0.317 0.8684 -0.3813
vn 0.3428 0.9392 -0.0217
vn 0.518 0.854 0.0486
vn 0.3415 0.9387 0.048
vn 0.1519 0.988 -0.0286
vn 0.1494 0.9876 0.0475
vn 0.3338 0.9182 0.2134
vn 0.676 0.7369 -0.0014
vn 0.3424 0.9395 -0.0013
vn 0.9063 0.4226 -0.0013
vn 0.8854 0.4124 0.2143
vn 0.9991 0.0418 -0.001
vn 0.9759 0.0446 0.2135
vn 0.9397 -0.342 0
vn 0.9047 0.4234 0.047
vn 0.9704 0.2368 0.0478
vn 0.9058 0.4232 -0.0198
vn 0.9177 -0.3341 0.2151
vn 0.7375 -0.6753 0
vn 0.9979 0.0437 0.0479
vn 0.9708 0.2382 -0.0278
vn 0.9872 -0.1521 0.0488
vn 0.9988 0.0447 -0.0197
vn 0.9233 0.0381 -0.3822
vn 0.7203 -0.6595 0.2151
vn 0.4237 -0.9058 0
vn 0.988 -0.1517 -0.0274
vn 0.9389 -0.3411 0.0467
vn -0.2896 -0.9548 0.0666
vn -0.5141 -0.8515 0.1034
vn -0.6905 -0.7208 0.0604
vn -0.8014 -0.5909 0.0929
vn -0.8025 -0.5888 0.096
vn -0.5246 -0.8373 0.1541
vn -0.7971 -0.5866 0.1433
vn -0.5235 -0.8118 0.2587
vn -0.7836 -0.5729 0.2404
vn -0.4671 -0.7023 0.5372
vn -0.6871 -0.5044 0.5229
vn -0.166 0.8271 0.537
vn -0.7022 0.4654 0.5388
vn -0.8586 0.1322 0.4954
vn -0.2021 0.9443 0.2598
vn -0.8097 0.5258 0.2605
vn -0.9595 0.1461 0.2409
vn -0.2213 0.9627 0.1559
vn -0.8377 0.5234 0.1557
vn -0.9782 0.1504 0.1429
vn -0.2391 0.9654 0.1036
vn -0.0201 0.9979 0.0623
vn -0.4699 0.8801 0.0679
vn -0.851 0.5152 0.1019
vn -0.7186 0.6927 0.0619
vn -0.9869 0.1315 0.0936
vn -0.9541 0.2915 0.0681
vn -0.9979 -0.02 0.0612
vn -0.9715 -0.2363 0.0192
vn 0.8545 -0.5174 0.0472
vn 0.9393 -0.3424 -0.0204
vn 0.8691 -0.3137 -0.3825
vn 0.4138 -0.8852 0.2128
vn 0.0428 -0.9991 0
vn 0.0434 -0.9757 0.2147
vn 0.2385 -0.9699 0.0492
vn 0.8544 -0.5189 -0.0274
vn 0.735 -0.6766 0.0456
vn 0.59 -0.806 0.048
vn 0.4213 -0.9058 0.0456
vn 0.4221 -0.9063 -0.0211
vn 0.237 -0.9711 -0.029
vn 0.3901 -0.8384 -0.3807
vn 0.5906 -0.8065 -0.0279
vn 0.7364 -0.6762 -0.0196
vn 0.6831 -0.622 -0.3828
vn 0.0394 -0.9237 -0.381
vn 0.0381 -0.8783 0.4766
vn 0.3732 -0.7963 0.4761
vn 0.6485 -0.5931 0.4772
vn 0.8269 -0.2991 0.4761
vn 0.8778 0.0367 0.4777
vn 0.6844 -0.417 0.5981
vn 0.6455 -0.5934 0.4808
vn 0.4736 -0.6466 0.5979
vn 0.5901 -0.8073 0
vn 0.8543 -0.5198 0
vn 0.3702 -0.7936 0.4829
vn 0.1899 -0.7793 0.5971
vn 0.2389 -0.971 0
vn 0.8225 -0.2998 0.4834
vn 0.7925 -0.1227 0.5974
vn 0.9883 -0.1528 0
vn 0.8753 0.0396 0.482
vn 0.7798 0.1915 0.596
vn 0.9713 0.2378 -0.0012
vn 0.7961 0.3715 0.4777
vn 0.7937 0.3719 0.4814
vn 0.6468 0.4754 0.5964
vn 0.808 0.5892 -0.0014
vn 0.5929 0.65 0.4753
vn 0.2993 0.8258 0.4779
vn 0.5901 0.6473 0.4825
vn 0.4169 0.686 0.5963
vn 0.5204 0.8539 -0.0013
vn 0.2996 0.8236 0.4816
vn 0.1227 0.7938 0.5957
vn 0.153 0.9882 -0.0011
vn -0.0439 0.999 -0.001
vn -0.0396 0.8753 0.482
vn -0.0396 0.8771 0.4788
vn -0.1915 0.7798 0.596
vn -0.2378 0.9713 -0.0012
vn -0.4226 0.9063 -0.0013
vn -0.0408 0.9228 -0.3831
vn -0.3719 0.7937 0.4814
vn -0.3715 0.7961 0.4777
vn -0.4754 0.6468 0.5964
vn -0.5923 0.8057 -0.0014
vn -0.7369 0.676 -0.0014
vn -0.6473 0.5901 0.4825
vn -0.3922 0.8364 -0.3828
vn -0.6468 0.5964 0.4754
vn -0.686 0.4169 0.5963
vn -0.8558 0.5173 0.0013
vn -0.9406 0.3394 0.0013
vn -0.8236 0.2996 0.4816
vn -0.6812 0.6251 -0.381
vn -0.8258 0.2993 0.4779
vn -0.7938 0.1227 0.5957
vn -0.9886 0.1505 0.0011
vn -0.999 -0.0438 0
vn -0.8684 0.317 -0.3813
vn -0.8779 -0.0395 0.4771
vn -0.8751 -0.0368 0.4825
vn -0.7785 -0.1916 0.5977
vn -0.9714 -0.2375 0
vn -0.9429 -0.333 0
vn -0.8277 -0.2889 0.481
vn -0.8559 -0.2155 0.4701
vn -0.8972 -0.2309 -0.3765
vn -0.9235 -0.0408 -0.3815
vn -0.9714 -0.2356 -0.029
vn -0.9426 -0.3332 -0.0203
vn -0.9703 -0.237 0.0491
vn -0.9422 -0.3317 0.0465
vn -0.9488 -0.2358 0.2099
vn -0.9766 -0.0396 0.2112
vn -0.9979 -0.0415 0.0489
vn -0.9192 0.3331 0.2101
vn -0.9989 -0.0426 -0.0208
vn -0.9872 0.152 0.0476
vn -0.988 0.1519 -0.0286
vn -0.7183 0.6622 0.2135
vn -0.9387 0.3415 0.048
vn -0.854 0.518 0.0486
vn -0.9403 0.3397 -0.0216
vn -0.854 0.5195 -0.0288
vn -0.737 0.6743 0.047
vn -0.4124 0.8854 0.2143
vn -0.7384 0.674 -0.021
vn -0.589 0.8066 0.0494
vn -0.5928 0.8048 -0.0293
vn -0.4202 0.9062 0.047
vn -0.4232 0.9058 -0.0198
vn -0.2382 0.9708 -0.0278
vn -0.2368 0.9704 0.0478
vn -0.0446 0.9759 0.2135
vn -0.0459 0.9978 0.048
vn -0.0425 0.9989 -0.0197
vn 0.0425 -0.998 0.0468
vn 0.0437 -0.9988 -0.0208
vn -0.1508 -0.9874 0.0487
vn -0.153 -0.9878 -0.0274
vn -0.3405 -0.9402 0
vn -0.3386 -0.9167 0.2123
vn -0.6768 -0.7362 0
vn -0.3434 -0.9379 0.0494
vn -0.659 -0.7227 0.2083
vn -0.8062 -0.5917 0
vn -0.7914 -0.5743 0.2094
vn -0.8048 -0.5916 0.048
vn -0.8603 -0.5076 0.047
vn -0.5169 -0.8546 0.05
vn -0.6751 -0.7363 0.0456
vn -0.8053 -0.5922 -0.0279
vn -0.8617 -0.507 -0.0217
vn -0.7535 -0.5399 -0.3751
vn -0.3409 -0.9399 -0.0203
vn -0.6237 -0.6815 -0.3828
vn -0.6748 -0.7378 -0.0196
vn -0.7155 -0.5175 0.4693
vn -0.5173 -0.8554 -0.0274
vn -0.3155 -0.8683 -0.3828
vn -0.5948 -0.6469 0.4772
vn -0.301 -0.8261 0.4765
vn -0.6481 -0.4718 0.5978
vn -0.7559 -0.4453 0.4798
vn -0.86 -0.5104 0
vn -0.5917 -0.6472 0.4807
vn -0.4151 -0.6858 0.5978
vn -0.5182 -0.8552 0
vn -0.298 -0.8233 0.483
vn -0.1211 -0.7932 0.5968
vn -0.1516 -0.9884 0
vn 0.0382 -0.8747 0.4831
o bullet09__p1_c0
f 1/1/1 2/2/1 3/3/1
f 3/3/1 2/2/1 4/4/1
f 1/1/1 3/3/1 5/5/1
f 4/4/1 2/2/1 6/6/1
f 1/1/1 5/5/1 7/7/1
f 4/4/1 6/6/1 8/8/1
f 7/7/1 5/5/1 9/9/1
f 8/8/1 6/6/1 10/10/1
f 7/7/1 9/9/1 11/11/1
f 8/8/1 10/10/1 12/12/1
f 11/11/1 9/9/1 13/13/1
f 12/12/1 10/10/1 14/14/1
f 11/11/1 13/13/1 15/15/1
f 12/12/1 14/14/1 16/16/1
f 15/15/1 13/13/1 17/17/1
f 15/15/1 17/17/1 18/18/1
f 18/18/1 17/17/1 19/19/1
f 16/16/1 14/14/1 20/20/1
f 16/16/1 20/20/1 21/21/1
f 21/21/1 20/20/1 22/22/1
f 21/21/1 22/22/1 23/23/1
f 23/23/1 22/22/1 24/24/1
f 23/23/1 24/24/1 25/25/1
f 25/25/1 24/24/1 26/26/1
f 25/25/1 26/26/1 27/27/1
f 27/27/1 26/26/1 28/28/1
f 27/27/1 28/28/1 29/29/1
f 29/29/1 28/28/1 30/30/1
f 29/29/1 30/30/1 31/31/1
f 31/31/1 30/30/1 32/32/1
f 31/31/1 32/32/1 19/33/1
f 19/33/1 32/32/1 18/34/1
f 33/35/2 34/36/3 35/37/4
f 33/35/2 35/37/4 36/38/5
f 35/37/4 34/36/3 37/39/6
f 37/39/6 34/36/3 38/40/7
f 38/40/7 34/36/3 39/41/8
f 38/40/7 39/41/8 40/42/9
f 40/42/9 39/41/8 41/43/10
f 41/43/10 39/41/8 42/44/11
f 41/43/10 42/44/11 43/45/12
f 43/45/12 42/44/11 44/46/13
f 44/46/13 42/44/11 45/47/14
f 44/46/13 45/47/14 46/48/15
f 46/48/15 45/47/14 47/49/16
f 47/49/16 45/47/14 48/50/17
f 47/49/16 48/50/17 49/51/18
f 49/51/18 48/50/17 50/52/19
f 50/52/19 48/50/17 51/53/20
f 52/54/21 53/55/22 54/56/23
f 54/56/23 53/55/22 55/57/24
f 54/56/23 55/57/24 56/58/25
f 57/59/26 56/58/25 58/60/27
f 57/59/26 58/60/27 59/61/28
f 59/61/28 58/60/27 60/62/29
f 57/59/26 59/61/28 61/63/30
f 59/61/28 60/62/29 62/64/31
f 62/64/31 60/62/29 63/65/32
f 61/63/30 59/61/28 64/66/33
f 64/66/33 59/61/28 62/64/31
f 61/63/30 64/66/33 65/67/34
f 61/63/30 65/67/34 66/68/35
f 64/66/33 62/64/31 67/69/36
f 62/64/31 63/65/32 68/70/37
f 62/64/31 68/70/37 67/69/36
f 66/68/35 65/67/34 69/71/38
f 66/68/35 69/71/38 70/72/39
f 69/71/38 65/67/34 48/50/17
f 69/71/38 48/50/17 45/47/14
f 48/50/17 65/67/34 51/53/20
f 51/53/20 65/67/34 64/66/33
f 51/53/20 64/66/33 67/69/36
f 70/72/39 69/71/38 71/73/40
f 71/73/40 69/71/38 45/47/14
f 70/72/39 71/73/40 72/74/41
f 71/73/40 45/47/14 42/44/11
f 72/74/41 71/73/40 73/75/42
f 73/75/42 71/73/40 42/44/11
f 72/74/41 73/75/42 74/76/43
f 73/75/42 42/44/11 39/41/8
f 74/76/43 73/75/42 75/77/44
f 75/77/44 73/75/42 39/41/8
f 74/76/43 75/77/44 76/78/45
f 75/77/44 39/41/8 34/36/3
f 76/78/45 75/77/44 77/79/46
f 77/79/46 75/77/44 34/36/3
f 76/78/45 77/79/46 78/80/47
f 77/79/46 34/36/3 33/35/2
f 78/80/47 77/79/46 79/81/48
f 79/81/48 77/79/46 33/35/2
f 78/80/47 79/81/48 80/82/49
f 80/82/49 79/81/48 81/83/50
f 79/81/48 33/35/2 82/84/51
f 79/81/48 82/84/51 81/83/50
f 36/38/5 83/85/52 33/35/2
f 33/35/2 83/85/52 82/84/51
f 82/84/51 83/85/52 84/86/53
f 82/84/51 84/86/53 85/87/54
f 81/83/50 82/84/51 86/88/55
f 86/88/55 82/84/51 85/87/54
f 86/88/55 85/87/54 87/89/56
f 81/83/50 86/88/55 88/90/57
f 86/88/55 87/89/56 89/91/58
f 88/90/57 86/88/55 90/92/59
f 90/92/59 86/88/55 89/91/58
f 90/92/59 89/91/58 91/93/60
f 88/90/57 90/92/59 92/94/61
f 90/92/59 91/93/60 93/95/62
f 92/94/61 90/92/59 94/96/63
f 94/96/63 90/92/59 93/95/62
f 94/96/63 93/95/62 95/97/64
f 92/94/61 94/96/63 96/98/65
f 94/96/63 95/97/64 97/99/66
f 96/98/65 94/96/63 98/100/67
f 98/100/67 94/96/63 97/99/66
f 98/100/67 97/99/66 99/101/68
f 96/98/65 98/100/67 100/102/69
f 98/100/67 99/101/68 101/103/70
f 100/102/69 98/100/67 102/104/71
f 102/104/71 98/100/67 101/103/70
f 102/104/71 101/103/70 103/105/72
f 100/102/69 102/104/71 104/106/73
f 102/104/71 103/105/72 105/107/74
f 104/106/73 102/104/71 106/108/75
f 106/108/75 102/104/71 105/107/74
f 104/106/73 106/108/75 63/65/32
f 106/108/75 105/107/74 107/109/76
f 106/108/75 107/109/76 108/110/77
f 63/65/32 106/108/75 68/70/37
f 68/70/37 106/108/75 108/110/77
f 68/70/37 108/110/77 109/111/78
f 68/70/37 109/111/78 110/112/79
f 68/70/37 110/112/79 67/69/36
f 67/69/36 110/112/79 111/113/80
f 67/69/36 111/113/80 112/114/81
f 67/69/36 112/114/81 51/53/20
f 51/53/20 112/114/81 113/115/82
f 51/53/20 113/115/82 50/52/19
f 54/56/23 56/58/25 114/116/83
f 114/116/83 56/58/25 57/59/26
f 54/56/23 114/116/83 115/117/84
f 114/116/83 57/59/26 116/118/85
f 114/116/83 116/118/85 117/119/86
f 114/116/83 117/119/86 115/117/84
f 115/117/84 117/119/86 118/120/87
f 115/117/84 118/120/87 119/121/88
f 116/118/85 57/59/26 61/63/30
f 115/117/84 119/121/88 120/122/89
f 115/117/84 120/122/89 54/56/23
f 120/122/89 119/121/88 121/123/90
f 120/122/89 121/123/90 122/124/91
f 54/56/23 120/122/89 123/125/92
f 123/125/92 120/122/89 122/124/91
f 123/125/92 122/124/91 124/126/93
f 54/56/23 123/125/92 52/54/21
f 123/125/92 124/126/93 125/127/94
f 123/125/92 125/127/94 52/54/21
f 52/54/21 125/127/94 126/128/95
f 126/128/95 125/127/94 127/129/96
f 127/129/96 125/127/94 80/82/49
f 126/128/95 127/129/96 128/130/97
f 127/129/96 80/82/49 81/83/50
f 126/128/95 128/130/97 129/131/98
f 126/128/95 129/131/98 52/54/21
f 129/131/98 128/130/97 130/132/99
f 52/54/21 129/131/98 53/55/22
f 129/131/98 130/132/99 131/133/100
f 129/131/98 131/133/100 53/55/22
f 131/133/100 130/132/99 132/134/101
f 53/55/22 131/133/100 133/135/102
f 133/135/102 131/133/100 132/134/101
f 53/55/22 133/135/102 55/57/24
f 133/135/102 132/134/101 134/136/103
f 133/135/102 134/136/103 135/137/104
f 133/135/102 135/137/104 55/57/24
f 135/137/104 134/136/103 136/138/105
f 55/57/24 135/137/104 137/139/106
f 137/139/106 135/137/104 136/138/105
f 55/57/24 137/139/106 56/58/25
f 137/139/106 136/138/105 60/62/29
f 56/58/25 137/139/106 58/60/27
f 58/60/27 137/139/106 60/62/29
f 81/83/50 88/90/57 127/129/96
f 127/129/96 88/90/57 128/130/97
f 128/130/97 88/90/57 92/94/61
f 128/130/97 92/94/61 130/132/99
f 130/132/99 92/94/61 96/98/65
f 130/132/99 96/98/65 132/134/101
f 132/134/101 96/98/65 100/102/69
f 132/134/101 100/102/69 134/136/103
f 134/136/103 100/102/69 104/106/73
f 134/136/103 104/106/73 136/138/105
f 136/138/105 104/106/73 63/65/32
f 136/138/105 63/65/32 60/62/29
f 80/82/49 125/127/94 124/126/93
f 80/82/49 124/126/93 78/80/47
f 78/80/47 124/126/93 122/124/91
f 78/80/47 122/124/91 76/78/45
f 76/78/45 122/124/91 121/123/90
f 76/78/45 121/123/90 74/76/43
f 74/76/43 121/123/90 119/121/88
f 74/76/43 119/121/88 72/74/41
f 72/74/41 119/121/88 118/120/87
f 72/74/41 118/120/87 70/72/39
f 70/72/39 118/120/87 117/119/86
f 70/72/39 117/119/86 66/68/35
f 66/68/35 117/119/86 116/118/85
f 66/68/35 116/118/85 61/63/30
f 26/140/107 24/141/108 138/142/109
f 138/142/109 24/141/108 22/143/110
f 139/144/111 28/145/112 26/140/107
f 139/144/111 26/140/107 138/142/109
f 138/142/109 22/143/110 140/146/113
f 140/146/113 22/143/110 20/147/114
f 139/144/111 138/142/109 141/148/115
f 140/146/113 20/147/114 14/149/116
f 139/144/111 141/148/115 142/150/117
f 140/146/113 14/149/116 143/151/118
f 143/151/118 14/149/116 10/152/119
f 143/151/118 10/152/119 6/153/120
f 140/146/113 143/151/118 144/154/121
f 145/155/122 138/142/109 140/146/113
f 145/155/122 140/146/113 144/154/121
f 138/142/109 145/155/122 141/148/115
f 145/155/122 144/154/121 146/156/123
f 145/155/122 146/156/123 147/157/124
f 145/155/122 147/157/124 141/148/115
f 147/157/124 146/156/123 148/158/125
f 149/159/126 142/150/117 141/148/115
f 149/159/126 141/148/115 147/157/124
f 142/150/117 149/159/126 150/160/127
f 147/157/124 148/158/125 151/161/128
f 147/157/124 151/161/128 149/159/126
f 151/161/128 148/158/125 152/162/1
f 150/160/127 149/159/126 153/163/129
f 153/163/129 149/159/126 151/161/128
f 153/163/129 151/161/128 152/162/1
f 150/160/127 153/163/129 154/164/130
f 154/164/130 153/163/129 152/162/1
f 155/165/131 156/166/132 157/167/133
f 156/166/132 155/165/131 158/168/134
f 157/167/133 156/166/132 159/169/135
f 158/168/134 155/165/131 160/170/136
f 160/170/136 155/165/131 161/171/137
f 161/171/137 155/165/131 157/167/133
f 158/168/134 160/170/136 162/172/138
f 161/171/137 157/167/133 163/173/139
f 161/171/137 163/173/139 164/174/140
f 160/170/136 161/171/137 165/175/141
f 165/175/141 161/171/137 164/174/140
f 160/170/136 165/175/141 162/172/138
f 165/175/141 164/174/140 166/176/142
f 166/176/142 164/174/140 167/177/143
f 166/176/142 167/177/143 168/178/144
f 166/176/142 168/178/144 169/179/145
f 166/176/142 169/179/145 165/175/141
f 165/175/141 169/179/145 162/172/138
f 162/172/138 169/179/145 8/180/146
f 8/180/146 169/179/145 4/181/147
f 162/172/138 8/180/146 12/182/148
f 162/172/138 12/182/148 170/183/149
f 162/172/138 170/183/149 158/168/134
f 170/183/149 12/182/148 16/184/150
f 170/183/149 16/184/150 171/185/151
f 171/185/151 16/184/150 21/186/152
f 158/168/134 170/183/149 172/187/153
f 158/168/134 172/187/153 156/166/132
f 172/187/153 170/183/149 173/188/154
f 173/188/154 170/183/149 171/185/151
f 156/166/132 172/187/153 174/189/155
f 174/189/155 172/187/153 173/188/154
f 156/166/132 174/189/155 159/169/135
f 171/185/151 21/186/152 175/190/156
f 175/190/156 21/186/152 23/191/157
f 173/188/154 171/185/151 176/192/158
f 174/189/155 173/188/154 177/193/159
f 177/193/159 173/188/154 176/192/158
f 174/189/155 177/193/159 159/169/135
f 176/192/158 171/185/151 178/194/160
f 178/194/160 171/185/151 175/190/156
f 177/193/159 176/192/158 179/195/161
f 179/195/161 176/192/158 178/194/160
f 159/169/135 177/193/159 180/196/162
f 180/196/162 177/193/159 179/195/161
f 181/197/163 175/190/156 23/191/157
f 181/197/163 23/191/157 25/198/164
f 179/195/161 178/194/160 182/199/165
f 179/195/161 182/199/165 180/196/162
f 183/200/166 178/194/160 175/190/156
f 178/194/160 183/200/166 182/199/165
f 28/145/112 139/144/111 30/201/167
f 30/201/167 139/144/111 184/202/168
f 30/201/167 184/202/168 32/203/169
f 32/203/169 184/202/168 18/204/170
f 184/202/168 139/144/111 142/150/117
f 18/204/170 184/202/168 185/205/171
f 184/202/168 142/150/117 186/206/172
f 184/202/168 186/206/172 185/205/171
f 186/206/172 142/150/117 150/160/127
f 185/205/171 186/206/172 187/207/173
f 186/206/172 150/160/127 188/208/174
f 186/206/172 188/208/174 187/207/173
f 188/208/174 150/160/127 154/164/130
f 187/207/173 188/208/174 189/209/175
f 188/208/174 154/164/130 190/210/176
f 188/208/174 190/210/176 189/209/175
f 189/209/175 190/210/176 191/211/177
f 190/210/176 154/164/130 152/162/1
f 190/210/176 152/162/1 191/211/177
f 148/158/125 192/212/178 152/162/1
f 192/212/178 148/158/125 146/156/123
f 152/162/1 192/212/178 193/213/179
f 152/162/1 193/213/179 191/214/180
f 192/212/178 146/156/123 194/215/181
f 192/212/178 194/215/181 193/213/179
f 194/215/181 146/156/123 144/154/121
f 191/214/180 193/213/179 195/216/182
f 195/216/182 193/213/179 194/215/181
f 191/214/180 195/216/182 189/217/183
f 194/215/181 144/154/121 196/218/184
f 194/215/181 196/218/184 195/216/182
f 196/218/184 144/154/121 143/151/118
f 189/217/183 195/216/182 197/219/185
f 197/219/185 195/216/182 196/218/184
f 189/217/183 197/219/185 187/220/186
f 196/218/184 143/151/118 198/221/187
f 196/218/184 198/221/187 197/219/185
f 198/221/187 143/151/118 6/153/120
f 198/221/187 6/153/120 2/222/188
f 198/221/187 2/222/188 1/223/189
f 187/220/186 197/219/185 199/224/190
f 199/224/190 197/219/185 198/221/187
f 199/224/190 198/221/187 1/223/189
f 199/224/190 1/223/189 7/225/191
f 187/220/186 199/224/190 185/226/192
f 199/224/190 7/225/191 11/227/193
f 199/224/190 11/227/193 185/226/192
f 185/226/192 11/227/193 15/228/194
f 185/226/192 15/228/194 18/229/195
f 200/230/196 183/200/166 175/190/156
f 200/230/196 175/190/156 181/197/163
f 201/231/197 182/199/165 183/200/166
f 201/231/197 183/200/166 200/230/196
f 202/232/198 180/196/162 182/199/165
f 202/232/198 182/199/165 201/231/197
f 203/233/199 181/197/163 25/198/164
f 203/233/199 25/198/164 27/234/200
f 203/233/199 27/234/200 204/235/201
f 203/233/199 204/235/201 205/236/202
f 201/231/197 200/230/196 206/237/203
f 201/231/197 206/237/203 202/232/198
f 207/238/204 200/230/196 181/197/163
f 200/230/196 207/238/204 206/237/203
f 208/239/205 181/197/163 203/233/199
f 181/197/163 208/239/205 207/238/204
f 203/233/199 205/236/202 209/240/206
f 203/233/199 209/240/206 208/239/205
f 209/240/206 205/236/202 210/241/207
f 210/241/207 205/236/202 211/242/208
f 210/241/207 211/242/208 212/243/209
f 209/240/206 210/241/207 213/244/210
f 209/240/206 213/244/210 208/239/205
f 213/244/210 210/241/207 212/243/209
f 214/245/211 207/238/204 208/239/205
f 214/245/211 208/239/205 213/244/210
f 207/238/204 214/245/211 206/237/203
f 214/245/211 213/244/210 215/246/212
f 214/245/211 215/246/212 206/237/203
f 215/246/212 213/244/210 212/243/209
f 206/237/203 215/246/212 202/232/198
f 216/247/213 217/248/214 212/243/209
f 212/243/209 217/248/214 218/249/215
f 212/243/209 218/249/215 215/246/212
f 215/246/212 218/249/215 219/250/216
f 215/246/212 219/250/216 202/232/198
f 202/232/198 219/250/216 220/251/217
f 202/232/198 220/251/217 180/196/162
f 180/196/162 220/251/217 221/252/218
f 180/196/162 221/252/218 159/169/135
f 220/251/217 219/250/216 222/253/219
f 222/253/219 219/250/216 223/254/220
f 223/254/220 219/250/216 224/255/221
f 223/254/220 224/255/221 37/256/157
f 223/254/220 37/256/157 222/253/219
f 37/256/157 224/255/221 35/257/222
f 222/253/219 37/256/157 38/258/223
f 35/257/222 224/255/221 36/259/164
f 36/259/164 224/255/221 225/260/224
f 36/259/164 225/260/224 226/261/225
f 36/259/164 226/261/225 83/262/226
f 222/253/219 38/258/223 40/263/152
f 222/253/219 40/263/152 227/264/227
f 222/253/219 227/264/227 220/251/217
f 227/264/227 40/263/152 228/265/228
f 227/264/227 228/265/228 220/251/217
f 228/265/228 40/263/152 41/266/229
f 228/265/228 41/266/229 43/267/150
f 220/251/217 228/265/228 221/252/218
f 228/265/228 43/267/150 229/268/230
f 228/265/228 229/268/230 221/252/218
f 229/268/230 43/267/150 230/269/231
f 229/268/230 230/269/231 221/252/218
f 230/269/231 43/267/150 44/270/232
f 230/269/231 44/270/232 46/271/148
f 221/252/218 230/269/231 231/272/233
f 221/252/218 231/272/233 159/169/135
f 230/269/231 46/271/148 232/273/234
f 230/269/231 232/273/234 231/272/233
f 159/169/135 231/272/233 157/167/133
f 232/273/234 46/271/148 233/274/235
f 232/273/234 233/274/235 231/272/233
f 233/274/235 46/271/148 47/275/236
f 233/274/235 47/275/236 49/276/146
f 157/167/133 231/272/233 234/277/237
f 234/277/237 231/272/233 233/274/235
f 157/167/133 234/277/237 163/173/139
f 163/173/139 234/277/237 235/278/238
f 234/277/237 233/274/235 236/279/239
f 236/279/239 233/274/235 49/276/146
f 234/277/237 236/279/239 237/280/240
f 237/280/240 236/279/239 49/276/146
f 237/280/240 49/276/146 50/281/241
f 237/280/240 50/281/241 113/282/147
f 237/280/240 113/282/147 238/283/242
f 238/283/242 113/282/147 239/284/243
f 239/284/243 113/282/147 112/285/244
f 234/277/237 237/280/240 235/278/238
f 235/278/238 237/280/240 238/283/242
f 235/278/238 238/283/242 239/284/243
f 112/285/244 111/286/245 239/284/243
f 239/284/243 111/286/245 240/287/246
f 235/278/238 239/284/243 241/288/247
f 241/288/247 239/284/243 240/287/246
f 240/287/246 111/286/245 242/289/248
f 240/287/246 242/289/248 241/288/247
f 242/289/248 111/286/245 110/290/249
f 242/289/248 110/290/249 109/291/250
f 235/278/238 241/288/247 243/292/251
f 242/289/248 109/291/250 244/293/252
f 235/278/238 243/292/251 163/173/139
f 241/288/247 242/289/248 245/294/253
f 245/294/253 242/289/248 244/293/252
f 244/293/252 109/291/250 246/295/254
f 244/293/252 246/295/254 245/294/253
f 246/295/254 109/291/250 108/296/255
f 246/295/254 108/296/255 107/297/256
f 246/295/254 107/297/256 247/298/257
f 241/288/247 245/294/253 248/299/258
f 241/288/247 248/299/258 243/292/251
f 245/294/253 246/295/254 249/300/259
f 249/300/259 246/295/254 247/298/257
f 247/298/257 107/297/256 250/301/260
f 247/298/257 250/301/260 249/300/259
f 250/301/260 107/297/256 105/302/261
f 250/301/260 105/302/261 103/303/262
f 250/301/260 103/303/262 251/304/263
f 245/294/253 249/300/259 252/305/264
f 245/294/253 252/305/264 248/299/258
f 249/300/259 250/301/260 253/306/265
f 253/306/265 250/301/260 251/304/263
f 251/304/263 103/303/262 254/307/266
f 251/304/263 254/307/266 253/306/265
f 254/307/266 103/303/262 101/308/267
f 254/307/266 101/308/267 99/309/268
f 249/300/259 253/306/265 255/310/269
f 249/300/259 255/310/269 252/305/264
f 253/306/265 254/307/266 256/311/270
f 254/307/266 99/309/268 257/312/271
f 254/307/266 257/312/271 256/311/270
f 257/312/271 99/309/268 258/313/272
f 257/312/271 258/313/272 256/311/270
f 258/313/272 99/309/268 97/314/273
f 258/313/272 97/314/273 95/315/274
f 258/313/272 95/315/274 259/316/275
f 258/313/272 259/316/275 260/317/276
f 258/313/272 260/317/276 256/311/270
f 256/311/270 260/317/276 261/318/277
f 262/319/278 253/306/265 256/311/270
f 262/319/278 256/311/270 261/318/277
f 253/306/265 262/319/278 255/310/269
f 262/319/278 261/318/277 263/320/279
f 263/320/279 261/318/277 264/321/280
f 263/320/279 264/321/280 265/322/281
f 265/322/281 264/321/280 266/323/282
f 265/322/281 266/323/282 267/324/283
f 17/325/268 267/324/283 19/326/273
f 267/324/283 17/325/268 268/327/284
f 267/324/283 268/327/284 265/322/281
f 268/327/284 17/325/268 13/328/262
f 263/320/279 265/322/281 269/329/285
f 269/329/285 265/322/281 268/327/284
f 268/327/284 13/328/262 270/330/286
f 268/327/284 270/330/286 269/329/285
f 270/330/286 13/328/262 9/331/256
f 263/320/279 269/329/285 271/332/287
f 263/320/279 271/332/287 262/319/278
f 271/332/287 269/329/285 272/333/288
f 272/333/288 269/329/285 270/330/286
f 262/319/278 271/332/287 273/334/289
f 273/334/289 271/332/287 272/333/288
f 262/319/278 273/334/289 255/310/269
f 270/330/286 9/331/256 274/335/290
f 274/335/290 9/331/256 5/336/250
f 272/333/288 270/330/286 275/337/291
f 272/333/288 275/337/291 273/334/289
f 275/337/291 270/330/286 276/338/292
f 276/338/292 270/330/286 274/335/290
f 273/334/289 275/337/291 277/339/293
f 277/339/293 275/337/291 276/338/292
f 273/334/289 277/339/293 255/310/269
f 255/310/269 277/339/293 278/340/294
f 278/340/294 277/339/293 276/338/292
f 255/310/269 278/340/294 252/305/264
f 276/338/292 274/335/290 279/341/295
f 276/338/292 279/341/295 278/340/294
f 280/342/296 274/335/290 5/336/250
f 252/305/264 278/340/294 281/343/297
f 281/343/297 278/340/294 279/341/295
f 279/341/295 274/335/290 282/344/298
f 279/341/295 282/344/298 281/343/297
f 282/344/298 274/335/290 280/342/296
f 252/305/264 281/343/297 283/345/299
f 283/345/299 281/343/297 282/344/298
f 252/305/264 283/345/299 248/299/258
f 3/346/245 280/342/296 5/336/250
f 283/345/299 282/344/298 284/347/300
f 284/347/300 282/344/298 280/342/296
f 248/299/258 283/345/299 285/348/301
f 285/348/301 283/345/299 284/347/300
f 248/299/258 285/348/301 286/349/302
f 285/348/301 284/347/300 287/350/303
f 287/350/303 284/347/300 280/342/296
f 285/348/301 287/350/303 286/349/302
f 248/299/258 286/349/302 243/292/251
f 288/351/304 280/342/296 3/346/245
f 280/342/296 288/351/304 287/350/303
f 288/351/304 3/346/245 4/181/147
f 288/351/304 4/181/147 169/179/145
f 288/351/304 169/179/145 168/178/144
f 287/350/303 288/351/304 289/352/305
f 289/352/305 288/351/304 168/178/144
f 287/350/303 289/352/305 286/349/302
f 289/352/305 168/178/144 290/353/306
f 289/352/305 290/353/306 286/349/302
f 286/349/302 290/353/306 243/292/251
f 290/353/306 168/178/144 167/177/143
f 290/353/306 167/177/143 243/292/251
f 243/292/251 167/177/143 163/173/139
f 163/173/139 167/177/143 164/174/140
f 211/242/208 205/236/202 291/354/307
f 291/354/307 205/236/202 204/235/201
f 211/242/208 291/354/307 292/355/308
f 291/354/307 204/235/201 293/356/309
f 291/354/307 293/356/309 292/355/308
f 211/242/208 292/355/308 216/247/213
f 211/242/208 216/247/213 212/243/209
f 292/355/308 293/356/309 294/357/310
f 292/355/308 294/357/310 216/247/213
f 27/234/200 29/358/311 204/235/201
f 204/235/201 29/358/311 295/359/312
f 204/235/201 295/359/312 293/356/309
f 295/359/312 29/358/311 31/360/313
f 294/357/310 293/356/309 296/361/314
f 296/361/314 293/356/309 295/359/312
f 295/359/312 31/360/313 297/362/315
f 295/359/312 297/362/315 296/361/314
f 297/362/315 31/360/313 19/363/316
f 297/362/315 19/363/316 267/364/317
f 297/362/315 267/364/317 298/365/318
f 298/365/318 267/364/317 266/366/319
f 296/361/314 297/362/315 299/367/320
f 297/362/315 298/365/318 300/368/321
f 297/362/315 300/368/321 299/367/320
f 298/365/318 266/366/319 301/369/322
f 301/369/322 266/366/319 264/370/323
f 301/369/322 264/370/323 261/371/324
f 296/361/314 299/367/320 302/372/325
f 296/361/314 302/372/325 294/357/310
f 301/369/322 261/371/324 303/373/326
f 298/365/318 301/369/322 304/374/327
f 298/365/318 304/374/327 300/368/321
f 304/374/327 301/369/322 303/373/326
f 303/373/326 261/371/324 260/375/328
f 300/368/321 304/374/327 305/376/329
f 300/368/321 305/376/329 299/367/320
f 305/376/329 304/374/327 303/373/326
f 299/367/320 305/376/329 302/372/325
f 302/372/325 305/376/329 306/377/330
f 302/372/325 306/377/330 294/357/310
f 306/377/330 305/376/329 303/373/326
f 294/357/310 306/377/330 216/247/213
f 307/378/331 303/373/326 260/375/328
f 303/373/326 307/378/331 306/377/330
f 216/247/213 306/377/330 308/379/332
f 308/379/332 306/377/330 307/378/331
f 216/247/213 308/379/332 217/248/214
f 307/378/331 260/375/328 309/380/333
f 309/380/333 260/375/328 259/381/334
f 309/380/333 259/381/334 95/382/335
f 309/380/333 95/382/335 93/383/316
f 309/380/333 93/383/316 91/384/313
f 307/378/331 309/380/333 310/385/336
f 310/385/336 309/380/333 91/384/313
f 307/378/331 310/385/336 311/386/337
f 311/386/337 310/385/336 91/384/313
f 307/378/331 311/386/337 308/379/332
f 311/386/337 91/384/313 89/387/338
f 311/386/337 89/387/338 87/388/311
f 308/379/332 311/386/337 312/389/339
f 312/389/339 311/386/337 87/388/311
f 308/379/332 312/389/339 313/390/340
f 313/390/340 312/389/339 87/388/311
f 308/379/332 313/390/340 217/248/214
f 313/390/340 87/388/311 85/391/341
f 313/390/340 85/391/341 84/392/200
f 217/248/214 313/390/340 314/393/342
f 314/393/342 313/390/340 84/392/200
f 217/248/214 314/393/342 226/261/225
f 226/261/225 314/393/342 84/392/200
f 226/261/225 84/392/200 83/262/226
f 217/248/214 226/261/225 218/249/215
f 218/249/215 226/261/225 225/260/224
f 218/249/215 225/260/224 224/255/221
f 218/249/215 224/255/221 219/250/216
