# CS2 body mesh, tools/cs2_glb_to_obj.py
v 0.05235 0.01722 0.02949
v 0.052 0.01628 0.02949
v 0.05248 0.01606 0.02949
v 0.05152 0.01543 0.02949
v 0.05287 0.0171 0.02949
v 0.05195 0.01511 0.02949
v 0.05247 0.0182 0.02945
v 0.05084 0.0147 0.02945
v 0.053 0.01818 0.02944
v 0.0512 0.01431 0.02944
v 0.05296 0.01928 0.02932
v 0.05034 0.01364 0.02932
v 0.05243 0.0192 0.02934
v 0.05006 0.0141 0.02934
v 0.05217 0.02014 0.02921
v 0.04915 0.01367 0.02921
v 0.05267 0.02033 0.02918
v 0.04934 0.01318 0.02918
v 0.05221 0.02133 0.02904
v 0.04828 0.01287 0.02904
v 0.05175 0.02105 0.02907
v 0.0482 0.01339 0.02907
v 0.05115 0.02183 0.02895
v 0.04721 0.01338 0.02895
v 0.05154 0.02219 0.02892
v 0.04718 0.01285 0.02892
v 0.05073 0.02294 0.02885
v 0.04608 0.013 0.02888
v 0.05042 0.02251 0.02887
v 0.0462 0.0135 0.0289
v 0.04956 0.02299 0.02884
v 0.04529 0.01384 0.02884
v 0.04979 0.02347 0.02884
v 0.04507 0.01336 0.02884
v 0.0487 0.02384 0.02884
v 0.04419 0.01394 0.02884
v 0.04852 0.02335 0.02884
v 0.04772 0.02398 0.02884
v 0.0476 0.02347 0.02884
v 0.04445 0.01439 0.02884
v 0.04336 0.01462 0.02884
v 0.04366 0.01504 0.02884
v 0.0399 0.00186 0.02185
v 0.0399 0.00186 0.00817
v 0.04098 0.00164 0.00817
v 0.03891 0.0023 0.02185
v 0.04098 0.00164 0.02185
v 0.03891 0.0023 0.00817
v 0.04207 0.00161 0.02185
v 0.038 0.00294 0.02185
v 0.04207 0.00161 0.00817
v 0.04315 0.00182 0.02185
v 0.04315 0.00182 0.00817
v 0.038 0.00294 0.00817
v 0.03729 0.00368 0.02185
v 0.03729 0.00368 0.00817
v 0.03762 0.00407 0.00817
v 0.03762 0.00407 0.02185
v 0.04445 0.01439 0.0016
v 0.04419 0.01394 0.0016
v 0.04336 0.01462 0.0016
v 0.04366 0.01504 0.0016
v 0.04529 0.01384 0.0016
v 0.04507 0.01336 0.0016
v 0.04608 0.013 0.0016
v 0.0462 0.0135 0.0016
v 0.04721 0.01338 0.0016
v 0.04718 0.01285 0.0016
v 0.04819 0.01341 0.0016
v 0.04827 0.01289 0.0016
v 0.04934 0.01318 0.0016
v 0.04915 0.01367 0.0016
v 0.05005 0.01409 0.0016
v 0.05033 0.01363 0.0016
v 0.0512 0.01431 0.0016
v 0.05084 0.0147 0.0016
v 0.05151 0.01542 0.0016
v 0.05194 0.0151 0.0016
v 0.05248 0.01606 0.0016
v 0.052 0.01628 0.0016
v 0.05235 0.01721 0.0016
v 0.05286 0.01708 0.0016
v 0.053 0.01818 0.0016
v 0.05247 0.0182 0.0016
v 0.05243 0.01918 0.0016
v 0.05296 0.01926 0.0016
v 0.05267 0.02033 0.0016
v 0.05217 0.02014 0.0016
v 0.05177 0.02106 0.0016
v 0.05223 0.02133 0.0016
v 0.05154 0.02219 0.0016
v 0.05115 0.02183 0.0016
v 0.05042 0.0225 0.0016
v 0.05073 0.02293 0.0016
v 0.04979 0.02347 0.0016
v 0.04956 0.02299 0.0016
v 0.0487 0.02384 0.0016
v 0.04852 0.02335 0.0016
v 0.04772 0.02398 0.0016
v 0.0476 0.02347 0.0016
v 0.04342 0.01467 0.02409
v 0.04502 0.01331 0.02409
v 0.04526 0.01378 0.02409
v 0.0437 0.01511 0.02409
v 0.04104 0.00217 0.02185
v 0.04007 0.00236 0.02185
v 0.04203 0.00214 0.02185
v 0.03917 0.00277 0.02185
v 0.04301 0.00233 0.02185
v 0.04393 0.00268 0.02185
v 0.0383 0.00337 0.02185
v 0.04417 0.00221 0.02185
v 0.04509 0.00282 0.02185
v 0.04476 0.00323 0.02185
v 0.04549 0.0039 0.02185
v 0.0459 0.00355 0.02185
v 0.04649 0.00448 0.02185
v 0.04603 0.00474 0.02185
v 0.04644 0.00565 0.02185
v 0.04694 0.00549 0.02185
v 0.04716 0.00655 0.02185
v 0.04663 0.00661 0.02185
v 0.04666 0.00761 0.02185
v 0.04719 0.00765 0.02185
v 0.04698 0.00872 0.02185
v 0.04647 0.00857 0.02185
v 0.04659 0.00975 0.02186
v 0.04611 0.00951 0.02184
v 0.04557 0.01033 0.02185
v 0.04598 0.01066 0.02185
v 0.04523 0.01145 0.0218
v 0.04485 0.01108 0.02191
v 0.04436 0.01203 0.02174
v 0.04314 0.01203 0.02197
v 0.04214 0.01221 0.02199
v 0.05248 0.01606 0.02409
v 0.05195 0.01511 0.02409
v 0.05287 0.0171 0.02409
v 0.0512 0.01431 0.02409
v 0.053 0.01818 0.02409
v 0.05034 0.01364 0.02409
v 0.05296 0.01928 0.02409
v 0.04934 0.01318 0.02409
v 0.04828 0.01287 0.02409
v 0.05267 0.02033 0.02409
v 0.05221 0.02133 0.02409
v 0.05154 0.02219 0.02409
v 0.05073 0.02294 0.02409
v 0.04979 0.02347 0.02409
v 0.0487 0.02384 0.02409
v 0.05248 0.01606 0.00699
v 0.05194 0.0151 0.00699
v 0.0512 0.01431 0.00694
v 0.05286 0.01708 0.00699
v 0.053 0.01818 0.00694
v 0.05033 0.01363 0.00682
v 0.05296 0.01926 0.00682
v 0.04934 0.01318 0.00668
v 0.04827 0.01289 0.00655
v 0.05267 0.02033 0.00668
v 0.05223 0.02133 0.00654
v 0.05154 0.02219 0.00643
v 0.05073 0.02293 0.00636
v 0.04979 0.02347 0.00634
v 0.0487 0.02384 0.00634
v 0.04402 0.01163 0.02196
v 0.04772 0.02398 0.02409
v 0.0476 0.02347 0.02409
v 0.04772 0.02398 0.00634
v 0.0476 0.02347 0.00634
v 0.04522 0.0138 0.00645
v 0.04506 0.0133 0.00623
v 0.04339 0.01469 0.00621
v 0.04373 0.01509 0.00648
v 0.0421 0.01223 0.00803
v 0.04314 0.01202 0.00804
v 0.04406 0.0116 0.00805
v 0.04007 0.00236 0.00817
v 0.04104 0.00217 0.00817
v 0.03917 0.00277 0.00817
v 0.04203 0.00214 0.00817
v 0.0383 0.00337 0.00817
v 0.04301 0.00233 0.00817
v 0.04393 0.00268 0.00817
v 0.04417 0.00221 0.00817
v 0.04509 0.00282 0.00817
v 0.04476 0.00323 0.00817
v 0.04549 0.0039 0.00817
v 0.0459 0.00355 0.00817
v 0.04649 0.00448 0.00817
v 0.04603 0.00474 0.00817
v 0.04644 0.00565 0.00817
v 0.04694 0.00549 0.00817
v 0.04716 0.00655 0.00817
v 0.04663 0.00661 0.00817
v 0.04666 0.00761 0.00817
v 0.04719 0.00765 0.00817
v 0.04698 0.00872 0.00817
v 0.04647 0.00857 0.00817
v 0.04659 0.00975 0.00816
v 0.04611 0.00951 0.00818
v 0.04557 0.01033 0.00817
v 0.04598 0.01066 0.00817
v 0.04521 0.01146 0.00822
v 0.04487 0.01107 0.00811
v 0.04433 0.01206 0.00828
v 0.04339 0.01247 0.02173
v 0.04339 0.01248 0.00829
v 0.0423 0.01271 0.02172
v 0.04233 0.0127 0.0083
v 0.04336 0.01462 0.00621
v 0.04366 0.01504 0.00648
v 0.04421 0.01393 0.00622
v 0.04512 0.01335 0.00623
v 0.0461 0.01299 0.00633
v 0.04718 0.01285 0.00643
v 0.04339 0.0146 0.02409
v 0.04363 0.01506 0.02409
v 0.04421 0.01392 0.02409
v 0.04508 0.01336 0.02409
v 0.04608 0.013 0.02409
v 0.04718 0.01285 0.02409
v 0.04719 0.01285 0.02892
v 0.05235 0.01721 0.00699
v 0.052 0.01628 0.00699
v 0.05151 0.01542 0.00699
v 0.05247 0.0182 0.00695
v 0.05084 0.0147 0.00695
v 0.05243 0.01918 0.00685
v 0.05005 0.01409 0.00685
v 0.05217 0.02014 0.00671
v 0.04915 0.01367 0.00671
v 0.05177 0.02106 0.00657
v 0.04819 0.01341 0.00656
v 0.05115 0.02183 0.00646
v 0.04721 0.01338 0.00646
v 0.05042 0.0225 0.00637
v 0.04618 0.01351 0.00646
v 0.04956 0.02299 0.00634
v 0.04524 0.01386 0.00645
v 0.04852 0.02335 0.00634
v 0.04443 0.01439 0.00647
v 0.04529 0.01385 0.02409
v 0.0462 0.0135 0.02409
v 0.04721 0.01338 0.02409
v 0.04443 0.0144 0.02409
v 0.0482 0.01339 0.02409
v 0.04915 0.01367 0.02409
v 0.05006 0.0141 0.02409
v 0.05084 0.0147 0.02409
v 0.05152 0.01543 0.02409
v 0.052 0.01628 0.02409
v 0.05235 0.01722 0.02409
v 0.05247 0.0182 0.02409
v 0.05243 0.0192 0.02409
v 0.05217 0.02014 0.02409
v 0.05175 0.02105 0.02409
v 0.05115 0.02183 0.02409
v 0.05042 0.02251 0.02409
v 0.04956 0.02299 0.02409
v 0.04852 0.02335 0.02409
vt 0.689941 0.081604
vt 0.688965 0.081604
vt 0.688965 0.082214
vt 0.6875 0.081604
vt 0.689941 0.082214
vt 0.6875 0.082214
vt 0.691406 0.081604
vt 0.686523 0.081604
vt 0.691406 0.082214
vt 0.686523 0.082214
vt 0.692383 0.082214
vt 0.685547 0.082214
vt 0.692383 0.081604
vt 0.685547 0.081604
vt 0.693359 0.081604
vt 0.684082 0.081604
vt 0.693359 0.082214
vt 0.684082 0.082214
vt 0.694824 0.082214
vt 0.683105 0.082214
vt 0.694824 0.081604
vt 0.683105 0.081604
vt 0.695801 0.081604
vt 0.681641 0.081604
vt 0.695801 0.082214
vt 0.681641 0.082214
vt 0.697266 0.082214
vt 0.680664 0.082214
vt 0.697266 0.081604
vt 0.680664 0.081604
vt 0.698242 0.081604
vt 0.679199 0.081604
vt 0.698242 0.082214
vt 0.679688 0.082214
vt 0.699707 0.082214
vt 0.678223 0.082214
vt 0.699707 0.081604
vt 0.700684 0.082214
vt 0.700684 0.081604
vt 0.678223 0.081604
vt 0.677246 0.082214
vt 0.677246 0.081604
vt 0.962402 0.086975
vt 0.978027 0.086914
vt 0.978027 0.085693
vt 0.962402 0.088196
vt 0.962402 0.085754
vt 0.978027 0.088135
vt 0.962402 0.084534
vt 0.962402 0.089417
vt 0.978027 0.084473
vt 0.962402 0.083252
vt 0.978027 0.083252
vt 0.978027 0.089355
vt 0.962402 0.090576
vt 0.978027 0.090515
vt 0.978027 0.091125
vt 0.962402 0.091125
vt 0.41626 0.005196
vt 0.41626 0.005795
vt 0.41748 0.005795
vt 0.41748 0.005196
vt 0.415283 0.005196
vt 0.415283 0.005795
vt 0.414062 0.005795
vt 0.414062 0.005196
vt 0.412842 0.005196
vt 0.412842 0.005795
vt 0.411865 0.005196
vt 0.411865 0.005795
vt 0.410645 0.005795
vt 0.410645 0.005196
vt 0.409424 0.005196
vt 0.409424 0.005795
vt 0.408203 0.005795
vt 0.408203 0.005196
vt 0.407227 0.005196
vt 0.407227 0.005795
vt 0.406006 0.005795
vt 0.406006 0.005196
vt 0.404785 0.005196
vt 0.404785 0.005795
vt 0.403809 0.005795
vt 0.403809 0.005196
vt 0.402588 0.005196
vt 0.402588 0.005795
vt 0.401367 0.005795
vt 0.401367 0.005196
vt 0.400391 0.005196
vt 0.400391 0.005795
vt 0.39917 0.005795
vt 0.39917 0.005196
vt 0.397949 0.005196
vt 0.397949 0.005795
vt 0.396729 0.005795
vt 0.396729 0.005196
vt 0.395508 0.005795
vt 0.395508 0.005196
vt 0.394531 0.005795
vt 0.394531 0.005196
vt 0.520996 0.139282
vt 0.523438 0.139648
vt 0.523438 0.139038
vt 0.520996 0.138672
vt 0.898438 0.00668
vt 0.898438 0.007282
vt 0.899902 0.007282
vt 0.897461 0.007282
vt 0.899902 0.00668
vt 0.897461 0.00668
vt 0.900879 0.00668
vt 0.896484 0.00668
vt 0.900879 0.007282
vt 0.896484 0.007282
vt 0.901855 0.00668
vt 0.89502 0.007282
vt 0.902344 0.007282
vt 0.90332 0.00668
vt 0.90332 0.007282
vt 0.89502 0.00668
vt 0.894043 0.00668
vt 0.894043 0.007282
vt 0.893066 0.007282
vt 0.893066 0.00668
vt 0.891602 0.00668
vt 0.891602 0.007282
vt 0.890625 0.007282
vt 0.890625 0.00668
vt 0.889648 0.00668
vt 0.889648 0.007282
vt 0.888184 0.007282
vt 0.888184 0.00668
vt 0.887207 0.00668
vt 0.887207 0.007282
vt 0.885742 0.00668
vt 0.885742 0.007282
vt 0.884766 0.007282
vt 0.884766 0.00668
vt 0.883789 0.00668
vt 0.883789 0.007282
vt 0.882324 0.00668
vt 0.521973 0.143311
vt 0.520996 0.143555
vt 0.439697 0.032562
vt 0.439697 0.026535
vt 0.438477 0.026535
vt 0.438477 0.032562
vt 0.440918 0.032562
vt 0.437256 0.026596
vt 0.440918 0.026535
vt 0.437256 0.032562
vt 0.442139 0.026596
vt 0.436035 0.026718
vt 0.442139 0.032562
vt 0.436035 0.032562
vt 0.443359 0.026718
vt 0.434814 0.026886
vt 0.443359 0.032562
vt 0.434814 0.032562
vt 0.433594 0.027039
vt 0.433594 0.032562
vt 0.44458 0.026886
vt 0.44458 0.032562
vt 0.445801 0.027039
vt 0.445801 0.032562
vt 0.447021 0.027176
vt 0.447021 0.032562
vt 0.448486 0.027252
vt 0.448486 0.032562
vt 0.449463 0.032562
vt 0.449463 0.027267
vt 0.450928 0.032562
vt 0.450928 0.027267
vt 0.680176 0.223145
vt 0.680176 0.217163
vt 0.678711 0.217163
vt 0.678711 0.223145
vt 0.681152 0.223145
vt 0.677734 0.217163
vt 0.681152 0.217163
vt 0.677734 0.223145
vt 0.682617 0.217163
vt 0.67627 0.217285
vt 0.682617 0.223145
vt 0.67627 0.223145
vt 0.683594 0.217285
vt 0.675293 0.217529
vt 0.683594 0.223145
vt 0.675293 0.223145
vt 0.673828 0.217651
vt 0.673828 0.223145
vt 0.685059 0.217529
vt 0.685059 0.223145
vt 0.686035 0.217651
vt 0.686035 0.223145
vt 0.6875 0.217773
vt 0.6875 0.223145
vt 0.688477 0.217896
vt 0.688477 0.223145
vt 0.689941 0.223145
vt 0.689941 0.217896
vt 0.690918 0.223145
vt 0.690918 0.217896
vt 0.523438 0.143311
vt 0.451904 0.032562
vt 0.451904 0.027267
vt 0.452637 0.027267
vt 0.452637 0.032562
vt 0.692383 0.223145
vt 0.692383 0.217896
vt 0.692871 0.217896
vt 0.692871 0.223145
vt 0.882324 0.007282
vt 0.480957 0.05069
vt 0.480957 0.050049
vt 0.47876 0.050385
vt 0.47876 0.051056
vt 0.47876 0.046204
vt 0.479736 0.046509
vt 0.480957 0.0466
vt 0.617188 0.004707
vt 0.615723 0.004707
vt 0.615723 0.005295
vt 0.614746 0.004707
vt 0.617188 0.005295
vt 0.614746 0.005295
vt 0.618164 0.005295
vt 0.613281 0.004707
vt 0.618164 0.004707
vt 0.613281 0.005295
vt 0.612305 0.004707
vt 0.612305 0.005295
vt 0.619141 0.004707
vt 0.619141 0.005295
vt 0.620605 0.005295
vt 0.620605 0.004707
vt 0.621582 0.004707
vt 0.621582 0.005295
vt 0.623047 0.005295
vt 0.623047 0.004707
vt 0.624023 0.004707
vt 0.624023 0.005295
vt 0.625488 0.005295
vt 0.625488 0.004707
vt 0.626465 0.004707
vt 0.626465 0.005295
vt 0.627441 0.005295
vt 0.627441 0.004707
vt 0.628906 0.004707
vt 0.628906 0.005295
vt 0.629883 0.004707
vt 0.629883 0.005295
vt 0.630859 0.005295
vt 0.630859 0.004707
vt 0.632324 0.004707
vt 0.632324 0.005295
vt 0.633301 0.005295
vt 0.633301 0.004707
vt 0.962402 0.082031
vt 0.978027 0.082031
vt 0.962402 0.080811
vt 0.978027 0.080811
vt 0.978027 0.079529
vt 0.962402 0.07959
vt 0.962402 0.078369
vt 0.978027 0.078308
vt 0.962402 0.077148
vt 0.978027 0.077087
vt 0.978027 0.075867
vt 0.962402 0.075928
vt 0.978027 0.074646
vt 0.962402 0.074707
vt 0.962402 0.073486
vt 0.978027 0.073425
vt 0.962402 0.072205
vt 0.978027 0.072205
vt 0.962402 0.070984
vt 0.978027 0.070984
vt 0.978027 0.069702
vt 0.962402 0.069763
vt 0.962402 0.068604
vt 0.978027 0.068542
vt 0.962402 0.067444
vt 0.978027 0.067383
vt 0.962402 0.066162
vt 0.978027 0.066162
vt 0.625 0.455322
vt 0.624512 0.455078
vt 0.624512 0.459229
vt 0.625 0.459717
vt 0.666992 0.223145
vt 0.667969 0.223145
vt 0.667969 0.218018
vt 0.666992 0.217773
vt 0.668945 0.223145
vt 0.668945 0.218018
vt 0.67041 0.223145
vt 0.67041 0.218018
vt 0.671387 0.223145
vt 0.671387 0.217896
vt 0.672852 0.223145
vt 0.672852 0.217773
vt 0.427734 0.032562
vt 0.42749 0.027267
vt 0.427002 0.027267
vt 0.427002 0.032562
vt 0.428711 0.032562
vt 0.428711 0.027267
vt 0.429932 0.032562
vt 0.429932 0.027267
vt 0.431152 0.032562
vt 0.431152 0.027222
vt 0.432373 0.032562
vt 0.432373 0.027176
vt 0.962402 0.065613
vt 0.978027 0.065613
vt 0.197632 0.009171
vt 0.198242 0.00882
vt 0.198242 0.00465
vt 0.197632 0.005013
vt 0.196533 0.005352
vt 0.195435 0.005455
vt 0.195435 0.00885
vt 0.194824 0.00856
vt 0.194824 0.005157
vt 0.627441 0.455811
vt 0.625977 0.455811
vt 0.627441 0.459717
vt 0.62793 0.459229
vt 0.62793 0.455811
vt 0.20166 0.357666
vt 0.200439 0.357666
vt 0.200439 0.358154
vt 0.199341 0.357666
vt 0.20166 0.358154
vt 0.199341 0.358154
vt 0.202881 0.357666
vt 0.19812 0.357666
vt 0.202881 0.358154
vt 0.19812 0.358154
vt 0.203979 0.358154
vt 0.196899 0.358154
vt 0.203979 0.357666
vt 0.196899 0.357666
vt 0.2052 0.357666
vt 0.195801 0.357666
vt 0.2052 0.358154
vt 0.195801 0.358154
vt 0.206421 0.358154
vt 0.19458 0.358154
vt 0.206421 0.357666
vt 0.19458 0.357666
vt 0.20752 0.357666
vt 0.193359 0.357666
vt 0.20752 0.358154
vt 0.193359 0.358154
vt 0.20874 0.358154
vt 0.192261 0.358154
vt 0.20874 0.357666
vt 0.192139 0.357666
vt 0.209839 0.357666
vt 0.191162 0.358154
vt 0.209839 0.358154
vt 0.19104 0.357666
vt 0.21106 0.358154
vt 0.189941 0.358154
vt 0.211182 0.357666
vt 0.212158 0.358154
vt 0.212158 0.357666
vt 0.189819 0.357666
vt 0.188721 0.358154
vt 0.188721 0.357666
vt 0.794922 0.007282
vt 0.795898 0.007282
vt 0.795898 0.00668
vt 0.796875 0.007282
vt 0.794922 0.00668
vt 0.796875 0.00668
vt 0.793945 0.007282
vt 0.797852 0.007282
vt 0.797852 0.00668
vt 0.799316 0.00668
vt 0.799316 0.007282
vt 0.800293 0.007282
vt 0.800293 0.00668
vt 0.801758 0.00668
vt 0.801758 0.007282
vt 0.802734 0.007282
vt 0.802734 0.00668
vt 0.803711 0.00668
vt 0.803711 0.007282
vt 0.805176 0.007282
vt 0.805176 0.00668
vt 0.806152 0.00668
vt 0.806152 0.007282
vt 0.807617 0.007282
vt 0.807617 0.00668
vt 0.808594 0.00668
vt 0.808594 0.007282
vt 0.810059 0.007282
vt 0.810059 0.00668
vt 0.811035 0.00668
vt 0.811035 0.007282
vt 0.812012 0.007282
vt 0.812012 0.00668
vt 0.813477 0.00668
vt 0.813477 0.007282
vt 0.814453 0.00668
vt 0.814453 0.007282
vt 0.815918 0.00668
vt 0.815918 0.007282
vt 0.793945 0.00668
vt 0.792969 0.00668
vt 0.792969 0.007282
vn 0.005 0.019 0.9998
vn 0 -0.001 1
vn -0.012 -0.0151 0.9998
vn 0.005 0.0211 0.9998
vn -0.0121 -0.0171 0.9998
vn 0.0181 0.0734 0.9971
vn -0.0453 -0.0615 0.9971
vn 0.0181 0.0757 0.997
vn 0.0188 0.1231 0.9922
vn -0.0821 -0.0924 0.9923
vn 0.0211 0.1233 0.9921
vn -0.08 -0.0971 0.992
vn 0.0055 0.1386 0.9903
vn -0.1046 -0.0941 0.9901
vn -0.102 -0.0939 0.9903
vn -0.0145 0.1373 0.9904
vn -0.1131 -0.0774 0.9906
vn -0.0146 0.1423 0.9897
vn -0.1185 -0.0802 0.9897
vn -0.0185 0.1013 0.9947
vn -0.0769 -0.0517 0.9957
vn -0.0163 0.0987 0.995
vn -0.0724 -0.0537 0.9959
vn -0.0199 0.0556 0.9983
vn -0.0543 -0.0157 0.9984
vn -0.0265 0.0604 0.9978
vn -0.0609 -0.0158 0.998
vn -0.005 0.0089 0.9999
vn -0.0211 0.005 0.9998
vn -0.0049 0.003 1
vn -0.0191 0.007 0.9998
vn -0.3048 -0.9524 0
vn -0.1148 -0.9934 0
vn -0.4961 -0.8682 0
vn 0.0823 -0.9966 0
vn -0.6446 -0.7645 0
vn 0.2757 -0.9612 0
vn -0.9491 -0.3151 0
vn -0.7652 0.6438 -0.0014
vn -0.7652 0.6438 0.0014
vn 0 -0.001 -1
vn 0.002 -0.0029 1
vn -0.0039 -0.0049 1
vn -0.0222 -0.0111 0.9997
vn -0.0328 -0.0154 0.9993
vn 0.0091 0.0273 0.9996
vn -0.0194 0.0234 0.9995
vn 0.1024 0.1457 0.984
vn 0.1599 0.1778 0.971
vn 0.2036 0.2728 0.9403
vn -0.262 -0.5856 0.7671
vn -0.4481 -0.5295 0.7203
vn -0.4087 -0.5455 0.7317
vn -0.1057 -0.6153 0.7812
vn 0.9065 -0.4221 0
vn 0.8084 -0.5886 0
vn 0.8062 -0.5917 0
vn 0.9714 -0.2375 0
vn 0.6797 -0.7335 0
vn 0.9707 -0.2403 0
vn 0.6768 -0.7362 0
vn 0.9989 -0.046 0
vn 0.5277 -0.8494 0
vn 0.999 -0.0438 0
vn 0.5214 -0.8533 0
vn 0.9901 0.1405 -0.0011
vn 0.3587 -0.9334 0
vn 0.9886 0.1505 -0.0011
vn 0.3526 -0.9358 0
vn 0.1642 -0.9864 0
vn 0.1541 -0.9881 0
vn 0.9428 0.3334 -0.0012
vn 0.9395 0.3424 -0.0013
vn 0.8615 0.5078 -0.0013
vn 0.8558 0.5173 -0.0013
vn 0.7395 0.6732 -0.0014
vn 0.7369 0.676 -0.0014
vn 0.5954 0.8034 -0.0014
vn 0.5923 0.8057 -0.0014
vn 0.407 0.9134 -0.0013
vn 0.2378 0.9713 -0.0012
vn 0.9051 -0.4252 0
vn 0.6739 -0.7388 0
vn 0.9988 -0.0481 0
vn 0.3466 -0.938 0
vn 0.3405 -0.9402 0
vn 0.1617 -0.9868 0
vn 0.9459 0.3244 -0.0012
vn 0.9438 0.3304 -0.0012
vn 0.7342 0.6789 -0.0014
vn 0.7316 0.6818 -0.0014
vn 0.4101 0.912 -0.0013
vn -0.2962 -0.6778 0.673
vn -0.3185 0.9479 -0.0012
vn -0.9713 0.2378 0.0012
vn 0.2577 0.2952 0.92
vn 0.2781 0.3222 -0.9049
vn 0.2771 0.3153 -0.9076
vn 0.2879 0.3446 -0.8935
vn 0.2888 0.3517 -0.8904
vn -0.1014 -0.5548 -0.8257
vn -0.3576 -0.5042 -0.7861
vn -0.2419 -0.535 -0.8095
vn -0.3969 -0.4929 -0.7743
vn -0.274 -0.6229 -0.7328
vn 0.002 -0.0029 -1
vn -0.0039 -0.0049 -1
vn -0.0222 -0.0111 -0.9997
vn -0.0328 -0.0174 -0.9993
vn 0.0091 0.0294 -0.9995
vn -0.0194 0.0234 -0.9995
vn 0.1466 0.1592 -0.9763
vn 0.182 0.1268 -0.9751
vn 0.1757 0.303 -0.9367
vn 0.1805 0.3567 -0.9166
vn 0.4582 -0.8888 0
vn 0.6146 -0.7888 0
vn 0.7632 -0.6461 0
vn 0.8797 -0.4756 0
vn 0.952 -0.3062 0
vn 0.9935 -0.1136 0
vn 0.9967 0.0812 -0.0011
vn 0.9607 0.2774 -0.0012
vn 0.8894 0.4572 -0.0013
vn 0.7823 0.6228 -0.0014
vn 0.7799 0.6259 -0.0014
vn 0.6498 0.7601 0.0014
vn 0.6498 0.7601 -0.0014
vn 0.4888 0.8724 0.0013
vn 0.3155 0.9489 0.0012
vn 0.3066 0.9518 0.0012
vn -0.3007 0.9537 -0.0012
vn -0.2949 0.9555 0.0012
vn -0.9185 0.3738 0.1292
vn -0.9211 0.3654 0.1348
vn -0.8571 0.5148 -0.0177
vn -0.8483 0.5283 -0.0345
vn -0.808 0.5892 -0.0014
vn -0.9036 -0.4284 0
vn -0.9458 -0.3248 0.0025
vn -0.5901 -0.8073 0
vn -0.5852 -0.8109 0.0027
vn -0.4467 -0.8947 0.0026
vn -0.4404 -0.8978 0.0026
vn -0.2361 -0.9717 0
vn -0.2306 -0.973 0
vn -0.0492 -0.9988 0
vn -0.0428 -0.9991 0
vn -0.8923 -0.4514 0.0026
vn -0.9041 -0.4272 -0.0052
vn -0.8128 0.5825 -0.0069
vn -0.8833 0.4689 0.0066
vn -0.4425 -0.8968 0
vn -0.0578 -0.9983 0
vn -0.0556 -0.9985 0
vn -0.9516 0.3073 -0.0037
vn -0.8999 0.4362 0.0039
vn -0.821 0.5498 0.1535
vn -0.8082 0.5595 0.1835
vn -0.8756 0.4819 -0.0312
vn -0.8827 0.4655 -0.0649
vn 0.2899 0.6166 0.7319
vn 0.7203 0.2655 0.6408
vn 0.8879 0.0228 0.4594
vn 0.9225 -0.3709 0.1068
vn 0.8585 -0.5127 -0.0054
vn 0.7313 0.3681 -0.5742
vn 0.3266 0.6938 -0.6418
vn 0.8681 0.1754 -0.4643
vn 0.8829 -0.4694 0.008
vn 0.7874 -0.6067 0.1087
vn 0.2503 0.5302 0.8101
vn 0.4268 0.4792 0.767
vn 0.3805 0.4938 0.7819
vn 0.1217 0.5556 0.8225
vn 0.2829 0.6217 -0.7304
vn 0.4307 0.5737 -0.6967
vn 0.4737 0.554 -0.6846
vn 0.1495 0.6508 -0.7444
vn 0.007 0.0191 0.9998
vn 0.0212 0.1258 0.9918
vn 0.0056 0.1411 0.99
vn -0.1041 -0.0891 0.9906
vn -0.0993 -0.0912 0.9909
vn -0.0123 0.137 0.9905
vn -0.1183 -0.0534 0.9915
vn -0.1248 -0.0442 0.9912
vn -0.0931 -0.0761 0.9927
vn -0.0141 0.1009 0.9948
vn -0.1034 -0.0528 0.9932
vn -0.1073 -0.1933 0.9753
vn -0.1 -0.2473 0.9638
vn -0.0049 0.0069 1
vn -0.1861 -0.3314 0.925
vn -0.1918 -0.3593 0.9133
vn -0.2563 -0.3491 0.9014
vn -0.2636 -0.3539 0.8974
vn -0.2866 -0.3478 0.8927
vn -0.2875 -0.3549 0.8896
o bullet_scaffold09__p1_c0
f 1/1/1 2/2/2 3/3/2
f 3/3/2 2/2/2 4/4/3
f 1/1/1 3/3/2 5/5/4
f 3/3/2 4/4/3 6/6/5
f 1/1/1 5/5/4 7/7/6
f 6/6/5 4/4/3 8/8/7
f 7/7/6 5/5/4 9/9/8
f 6/6/5 8/8/7 10/10/7
f 7/7/6 9/9/8 11/11/9
f 10/10/7 8/8/7 12/12/10
f 7/7/6 11/11/9 13/13/11
f 12/12/10 8/8/7 14/14/12
f 13/13/11 11/11/9 15/15/13
f 12/12/10 14/14/12 16/16/14
f 15/15/13 11/11/9 17/17/13
f 12/12/10 16/16/14 18/18/15
f 15/15/13 17/17/13 19/19/16
f 18/18/15 16/16/14 20/20/17
f 15/15/13 19/19/16 21/21/18
f 20/20/17 16/16/14 22/22/19
f 21/21/18 19/19/16 23/23/20
f 20/20/17 22/22/19 24/24/21
f 23/23/20 19/19/16 25/25/22
f 20/20/17 24/24/21 26/26/23
f 23/23/20 25/25/22 27/27/24
f 26/26/23 24/24/21 28/28/25
f 23/23/20 27/27/24 29/29/26
f 28/28/25 24/24/21 30/30/27
f 29/29/26 27/27/24 31/31/28
f 28/28/25 30/30/27 32/32/29
f 31/31/28 27/27/24 33/33/30
f 28/28/25 32/32/29 34/34/31
f 31/31/28 33/33/30 35/35/2
f 34/34/31 32/32/29 36/36/2
f 31/31/28 35/35/2 37/37/2
f 37/37/2 35/35/2 38/38/2
f 37/37/2 38/38/2 39/39/2
f 36/36/2 32/32/29 40/40/2
f 36/36/2 40/40/2 41/41/2
f 41/41/2 40/40/2 42/42/2
f 43/43/32 44/44/32 45/45/33
f 44/44/32 43/43/32 46/46/34
f 43/43/32 45/45/33 47/47/33
f 44/44/32 46/46/34 48/48/34
f 47/47/33 45/45/33 49/49/35
f 48/48/34 46/46/34 50/50/36
f 49/49/35 45/45/33 51/51/35
f 49/49/35 51/51/35 52/52/37
f 52/52/37 51/51/35 53/53/37
f 48/48/34 50/50/36 54/54/36
f 54/54/36 50/50/36 55/55/38
f 54/54/36 55/55/38 56/56/38
f 56/56/38 55/55/38 57/57/39
f 57/57/39 55/55/38 58/58/40
f 59/59/41 60/60/41 61/61/41
f 59/59/41 61/61/41 62/62/41
f 60/60/41 59/59/41 63/63/41
f 60/60/41 63/63/41 64/64/41
f 64/64/41 63/63/41 65/65/41
f 65/65/41 63/63/41 66/66/41
f 65/65/41 66/66/41 67/67/41
f 65/65/41 67/67/41 68/68/41
f 68/68/41 67/67/41 69/69/41
f 68/68/41 69/69/41 70/70/41
f 70/70/41 69/69/41 71/71/41
f 71/71/41 69/69/41 72/72/41
f 71/71/41 72/72/41 73/73/41
f 71/71/41 73/73/41 74/74/41
f 74/74/41 73/73/41 75/75/41
f 75/75/41 73/73/41 76/76/41
f 75/75/41 76/76/41 77/77/41
f 75/75/41 77/77/41 78/78/41
f 78/78/41 77/77/41 79/79/41
f 79/79/41 77/77/41 80/80/41
f 79/79/41 80/80/41 81/81/41
f 79/79/41 81/81/41 82/82/41
f 82/82/41 81/81/41 83/83/41
f 83/83/41 81/81/41 84/84/41
f 83/83/41 84/84/41 85/85/41
f 83/83/41 85/85/41 86/86/41
f 86/86/41 85/85/41 87/87/41
f 87/87/41 85/85/41 88/88/41
f 87/87/41 88/88/41 89/89/41
f 87/87/41 89/89/41 90/90/41
f 90/90/41 89/89/41 91/91/41
f 91/91/41 89/89/41 92/92/41
f 91/91/41 92/92/41 93/93/41
f 91/91/41 93/93/41 94/94/41
f 94/94/41 93/93/41 95/95/41
f 95/95/41 93/93/41 96/96/41
f 95/95/41 96/96/41 97/97/41
f 97/97/41 96/96/41 98/98/41
f 97/97/41 98/98/41 99/99/41
f 99/99/41 98/98/41 100/100/41
f 101/101/2 102/102/2 103/103/2
f 101/101/2 103/103/2 104/104/2
f 47/105/2 105/106/2 106/107/2
f 105/106/2 47/105/2 107/108/2
f 47/105/2 106/107/2 43/109/2
f 107/108/2 47/105/2 49/110/2
f 43/109/2 106/107/2 46/111/2
f 107/108/2 49/110/2 52/112/2
f 46/111/2 106/107/2 108/113/2
f 107/108/2 52/112/2 109/114/2
f 46/111/2 108/113/2 50/115/2
f 109/114/2 52/112/2 110/116/2
f 50/115/2 108/113/2 111/117/2
f 50/115/2 111/117/2 55/118/2
f 55/118/2 111/117/2 58/119/2
f 110/116/2 52/112/2 112/120/2
f 110/116/2 112/120/2 113/121/2
f 110/116/2 113/121/2 114/122/2
f 114/122/2 113/121/2 115/123/2
f 115/123/2 113/121/2 116/124/2
f 115/123/2 116/124/2 117/125/2
f 115/123/2 117/125/2 118/126/2
f 118/126/2 117/125/2 119/127/2
f 119/127/2 117/125/2 120/128/2
f 119/127/2 120/128/2 121/129/2
f 119/127/2 121/129/2 122/130/2
f 122/130/2 121/129/2 123/131/2
f 123/131/2 121/129/2 124/132/2
f 123/131/2 124/132/2 125/133/42
f 123/131/2 125/133/42 126/134/43
f 126/134/43 125/133/42 127/135/44
f 126/134/43 127/135/44 128/136/45
f 128/136/45 127/135/44 129/137/46
f 129/137/46 127/135/44 130/138/47
f 129/137/46 130/138/47 131/139/48
f 129/137/46 131/139/48 132/140/49
f 132/140/49 131/139/48 133/141/50
f 134/142/51 102/102/52 101/101/53
f 134/142/51 101/101/53 135/143/54
f 136/144/55 3/145/55 6/146/56
f 136/144/55 6/146/56 137/147/57
f 3/145/55 136/144/55 138/148/58
f 137/147/57 6/146/56 10/149/59
f 3/145/55 138/148/58 5/150/60
f 137/147/57 10/149/59 139/151/61
f 5/150/60 138/148/58 9/152/62
f 139/151/61 10/149/59 12/153/63
f 9/152/62 138/148/58 140/154/64
f 139/151/61 12/153/63 141/155/65
f 9/152/62 140/154/64 11/156/66
f 141/155/65 12/153/63 18/157/67
f 11/156/66 140/154/64 142/158/68
f 141/155/65 18/157/67 143/159/69
f 143/159/69 18/157/67 20/160/70
f 143/159/69 20/160/70 144/161/71
f 11/156/66 142/158/68 17/162/72
f 17/162/72 142/158/68 145/163/73
f 17/162/72 145/163/73 19/164/74
f 19/164/74 145/163/73 146/165/75
f 19/164/74 146/165/75 25/166/76
f 25/166/76 146/165/75 147/167/77
f 25/166/76 147/167/77 27/168/78
f 27/168/78 147/167/77 148/169/79
f 27/168/78 148/169/79 149/170/80
f 27/168/78 149/170/80 33/171/80
f 33/171/80 149/170/80 150/172/81
f 33/171/80 150/172/81 35/173/81
f 79/174/82 151/175/82 152/176/56
f 79/174/82 152/176/56 78/177/57
f 151/175/82 79/174/82 82/178/58
f 78/177/57 152/176/56 153/179/61
f 151/175/82 82/178/58 154/180/60
f 78/177/57 153/179/61 75/181/83
f 154/180/60 82/178/58 155/182/84
f 75/181/83 153/179/61 156/183/63
f 155/182/84 82/178/58 83/184/64
f 75/181/83 156/183/63 74/185/65
f 155/182/84 83/184/64 157/186/66
f 74/185/65 156/183/63 158/187/85
f 157/186/66 83/184/64 86/188/68
f 74/185/65 158/187/85 71/189/86
f 71/189/86 158/187/85 159/190/87
f 71/189/86 159/190/87 70/191/71
f 157/186/66 86/188/68 160/192/88
f 160/192/88 86/188/68 87/193/89
f 160/192/88 87/193/89 161/194/74
f 161/194/74 87/193/89 90/195/75
f 161/194/74 90/195/75 162/196/90
f 162/196/90 90/195/75 91/197/91
f 162/196/90 91/197/91 163/198/78
f 163/198/78 91/197/91 94/199/79
f 163/198/78 94/199/79 95/200/92
f 163/198/78 95/200/92 164/201/92
f 164/201/92 95/200/92 97/202/81
f 164/201/92 97/202/81 165/203/81
f 166/204/93 102/102/93 134/142/93
f 35/173/81 150/172/81 167/205/94
f 35/173/81 167/205/94 38/206/94
f 38/206/94 167/205/94 39/207/95
f 39/207/95 167/205/94 168/208/95
f 165/203/81 97/202/81 99/209/94
f 165/203/81 99/209/94 169/210/94
f 169/210/94 99/209/94 170/211/95
f 170/211/95 99/209/94 100/212/95
f 132/140/49 133/141/50 166/213/96
f 171/214/97 172/215/98 173/216/99
f 171/214/97 173/216/99 174/217/100
f 175/218/101 173/216/102 176/219/103
f 176/219/103 173/216/102 172/215/104
f 177/220/105 176/219/105 172/215/105
f 45/221/41 44/222/41 178/223/41
f 178/223/41 44/222/41 48/224/41
f 45/221/41 178/223/41 179/225/41
f 178/223/41 48/224/41 180/226/41
f 45/221/41 179/225/41 181/227/41
f 180/226/41 48/224/41 54/228/41
f 45/221/41 181/227/41 51/229/41
f 180/226/41 54/228/41 182/230/41
f 182/230/41 54/228/41 56/231/41
f 182/230/41 56/231/41 57/232/41
f 51/229/41 181/227/41 53/233/41
f 53/233/41 181/227/41 183/234/41
f 53/233/41 183/234/41 184/235/41
f 53/233/41 184/235/41 185/236/41
f 185/236/41 184/235/41 186/237/41
f 186/237/41 184/235/41 187/238/41
f 186/237/41 187/238/41 188/239/41
f 186/237/41 188/239/41 189/240/41
f 189/240/41 188/239/41 190/241/41
f 190/241/41 188/239/41 191/242/41
f 190/241/41 191/242/41 192/243/41
f 190/241/41 192/243/41 193/244/41
f 193/244/41 192/243/41 194/245/41
f 194/245/41 192/243/41 195/246/41
f 194/245/41 195/246/41 196/247/41
f 194/245/41 196/247/41 197/248/41
f 197/248/41 196/247/41 198/249/106
f 198/249/106 196/247/41 199/250/107
f 198/249/106 199/250/107 200/251/108
f 200/251/108 199/250/107 201/252/109
f 200/251/108 201/252/109 202/253/110
f 200/251/108 202/253/110 203/254/111
f 203/254/111 202/253/110 204/255/112
f 204/255/112 202/253/110 205/256/113
f 204/255/112 205/256/113 177/257/114
f 204/255/112 177/257/114 206/258/115
f 52/52/37 53/53/37 112/259/116
f 112/259/116 53/53/37 185/260/116
f 112/259/116 185/260/116 113/261/117
f 113/261/117 185/260/116 186/262/117
f 113/261/117 186/262/117 189/263/118
f 113/261/117 189/263/118 116/264/118
f 116/264/118 189/263/118 117/265/119
f 117/265/119 189/263/118 190/266/119
f 117/265/119 190/266/119 120/267/120
f 120/267/120 190/266/119 193/268/120
f 120/267/120 193/268/120 194/269/121
f 120/267/120 194/269/121 121/270/121
f 121/270/121 194/269/121 197/271/122
f 121/270/121 197/271/122 124/272/122
f 124/272/122 197/271/122 125/273/123
f 125/273/123 197/271/122 198/274/123
f 125/273/123 198/274/123 127/275/124
f 127/275/124 198/274/123 200/276/124
f 127/275/124 200/276/124 130/277/125
f 130/277/125 200/276/124 203/278/126
f 130/277/125 203/278/126 204/279/127
f 130/277/125 204/279/127 131/280/128
f 131/280/128 204/279/127 133/281/129
f 133/281/129 204/279/127 206/282/129
f 133/281/129 206/282/129 207/283/130
f 207/283/130 206/282/129 208/284/131
f 207/283/130 208/284/131 209/285/132
f 209/285/132 208/284/131 210/286/133
f 209/287/134 135/288/135 101/289/136
f 209/287/134 101/289/136 104/290/137
f 62/291/138 61/292/139 211/293/140
f 62/291/138 211/293/140 212/294/138
f 211/293/140 61/292/139 60/295/141
f 211/293/140 60/295/141 213/296/142
f 213/296/142 60/295/141 64/297/143
f 213/296/142 64/297/143 214/298/144
f 214/298/144 64/297/143 65/299/145
f 214/298/144 65/299/145 215/300/146
f 215/300/146 65/299/145 68/301/147
f 215/300/146 68/301/147 216/302/148
f 216/302/148 68/301/147 70/191/71
f 216/302/148 70/191/71 159/190/87
f 217/303/149 41/304/150 42/305/151
f 217/303/149 42/305/151 218/306/152
f 41/304/150 217/303/149 219/307/141
f 41/304/150 219/307/141 36/308/141
f 36/308/141 219/307/141 220/309/153
f 36/308/141 220/309/153 34/310/153
f 34/310/153 220/309/153 221/311/145
f 34/310/153 221/311/145 28/312/145
f 28/312/145 221/311/145 222/313/154
f 28/312/145 222/313/154 223/314/155
f 223/314/155 222/313/154 144/161/71
f 223/314/155 144/161/71 20/160/70
f 209/285/132 210/286/133 135/315/156
f 135/315/156 210/286/133 175/316/157
f 174/317/158 173/318/159 175/319/160
f 174/317/158 175/319/160 210/320/161
f 208/321/162 206/322/163 171/323/164
f 171/323/164 206/322/163 172/324/165
f 172/324/165 206/322/163 177/325/166
f 133/326/167 207/327/168 103/328/169
f 133/326/167 103/328/169 102/329/170
f 133/326/167 102/329/170 166/330/171
f 208/321/172 171/323/173 174/317/174
f 208/321/172 174/317/174 210/320/175
f 207/327/176 104/290/177 103/328/178
f 209/287/179 104/290/177 207/327/176
f 224/331/1 225/332/2 151/333/2
f 151/333/2 225/332/2 226/334/3
f 224/331/1 151/333/2 154/335/180
f 151/333/2 226/334/3 152/336/5
f 224/331/1 154/335/180 227/337/6
f 152/336/5 226/334/3 228/338/7
f 227/337/6 154/335/180 155/339/8
f 152/336/5 228/338/7 153/340/7
f 227/337/6 155/339/8 157/341/9
f 153/340/7 228/338/7 156/342/10
f 227/337/6 157/341/9 229/343/181
f 156/342/10 228/338/7 230/344/12
f 229/343/181 157/341/9 231/345/182
f 156/342/10 230/344/12 232/346/183
f 231/345/182 157/341/9 160/347/182
f 156/342/10 232/346/183 158/348/184
f 231/345/182 160/347/182 161/349/185
f 158/348/184 232/346/183 159/350/186
f 231/345/182 161/349/185 233/351/18
f 159/350/186 232/346/183 234/352/187
f 233/351/18 161/349/185 235/353/20
f 159/350/186 234/352/187 236/354/188
f 235/353/20 161/349/185 162/355/189
f 159/350/186 236/354/188 216/356/190
f 235/353/20 162/355/189 163/357/24
f 216/356/190 236/354/188 215/358/191
f 235/353/20 163/357/24 237/359/26
f 215/358/191 236/354/188 238/360/192
f 237/359/26 163/357/24 239/361/193
f 215/358/191 238/360/192 214/362/194
f 239/361/193 163/357/24 164/363/30
f 214/362/194 238/360/192 240/364/195
f 239/361/193 164/363/30 165/365/2
f 214/362/194 240/364/195 213/366/196
f 239/361/193 165/365/2 241/367/2
f 241/367/2 165/365/2 169/368/2
f 241/367/2 169/368/2 170/369/2
f 213/366/196 240/364/195 242/370/197
f 213/366/196 242/370/197 211/371/198
f 211/371/198 242/370/197 212/372/199
f 243/373/41 244/374/41 221/375/41
f 221/375/41 244/374/41 245/376/41
f 243/373/41 221/375/41 220/377/41
f 221/375/41 245/376/41 222/378/41
f 243/373/41 220/377/41 246/379/41
f 222/378/41 245/376/41 247/380/41
f 222/378/41 247/380/41 144/381/41
f 144/381/41 247/380/41 143/382/41
f 143/382/41 247/380/41 248/383/41
f 143/382/41 248/383/41 249/384/41
f 143/382/41 249/384/41 141/385/41
f 141/385/41 249/384/41 139/386/41
f 139/386/41 249/384/41 250/387/41
f 139/386/41 250/387/41 251/388/41
f 139/386/41 251/388/41 137/389/41
f 137/389/41 251/388/41 136/390/41
f 136/390/41 251/388/41 252/391/41
f 136/390/41 252/391/41 253/392/41
f 136/390/41 253/392/41 138/393/41
f 138/393/41 253/392/41 140/394/41
f 140/394/41 253/392/41 254/395/41
f 140/394/41 254/395/41 255/396/41
f 140/394/41 255/396/41 142/397/41
f 142/397/41 255/396/41 145/398/41
f 145/398/41 255/396/41 256/399/41
f 145/398/41 256/399/41 257/400/41
f 145/398/41 257/400/41 146/401/41
f 146/401/41 257/400/41 147/402/41
f 147/402/41 257/400/41 258/403/41
f 147/402/41 258/403/41 259/404/41
f 147/402/41 259/404/41 148/405/41
f 148/405/41 259/404/41 149/406/41
f 149/406/41 259/404/41 260/407/41
f 149/406/41 260/407/41 150/408/41
f 150/408/41 260/407/41 261/409/41
f 150/408/41 261/409/41 167/410/41
f 167/410/41 261/409/41 168/411/41
f 219/412/41 217/413/41 220/377/41
f 220/377/41 217/413/41 246/379/41
f 246/379/41 217/413/41 218/414/41
