# CS2 body mesh, tools/cs2_glb_to_obj.py
v 0.00668 0.08018 0.0016
v 0.00668 0.08018 0.00699
v 0.00778 0.08009 0.00699
v 0.00778 0.08009 0.0016
v 0.0056 0.08009 0.0016
v 0.0056 0.08009 0.00699
v 0.00455 0.07975 0.00694
v 0.00455 0.07975 0.0016
v 0.00358 0.07925 0.00682
v 0.00358 0.07925 0.0016
v 0.00274 0.07854 0.00668
v 0.00274 0.07854 0.0016
v 0.00201 0.07772 0.00654
v 0.00201 0.07772 0.0016
v 0.00153 0.07673 0.00643
v 0.00153 0.07673 0.0016
v 0.0012 0.07568 0.00636
v 0.0012 0.07568 0.0016
v 0.00111 0.0746 0.0016
v 0.00111 0.0746 0.00634
v 0.00123 0.07346 0.0016
v 0.00123 0.07346 0.00634
v 0.00152 0.07251 0.0016
v 0.00152 0.07251 0.00634
v 0.00203 0.07262 0.00634
v 0.00203 0.07262 0.0016
v 0.00668 0.08018 0.02409
v 0.00668 0.08018 0.02949
v 0.00777 0.08009 0.02949
v 0.00777 0.08009 0.02409
v 0.00558 0.08009 0.02409
v 0.00558 0.08009 0.02949
v 0.00455 0.07975 0.02944
v 0.00455 0.07975 0.02409
v 0.00357 0.07925 0.02932
v 0.00357 0.07925 0.02409
v 0.00274 0.07854 0.02918
v 0.00274 0.07854 0.02409
v 0.00203 0.0777 0.02904
v 0.00203 0.0777 0.02409
v 0.00153 0.07673 0.02892
v 0.00153 0.07673 0.02409
v 0.00119 0.07568 0.02885
v 0.00119 0.07568 0.02409
v 0.00111 0.0746 0.02409
v 0.00111 0.0746 0.02884
v 0.00123 0.07346 0.02409
v 0.00123 0.07346 0.02884
v 0.00152 0.07251 0.02409
v 0.00152 0.07251 0.02884
v 0.00203 0.07262 0.02884
v 0.00203 0.07262 0.02409
v 0.02036 0.08011 0.00817
v 0.01927 0.08018 0.00817
v 0.01927 0.08018 0.02185
v 0.02036 0.08011 0.02185
v 0.01817 0.08008 0.02185
v 0.01817 0.08008 0.00817
v 0.01713 0.07975 0.00817
v 0.01713 0.07975 0.02185
v 0.01615 0.07925 0.00817
v 0.01615 0.07925 0.02185
v 0.01532 0.07854 0.02185
v 0.01532 0.07854 0.00817
v 0.01461 0.0777 0.02186
v 0.01461 0.0777 0.00816
v 0.01411 0.07673 0.02185
v 0.01411 0.07673 0.00817
v 0.01378 0.07567 0.00822
v 0.01379 0.07569 0.0218
v 0.0137 0.07465 0.02174
v 0.01369 0.07461 0.00828
v 0.01378 0.07358 0.02173
v 0.01377 0.07358 0.00829
v 0.0141 0.07251 0.02172
v 0.0141 0.07255 0.0083
v 0.01461 0.07262 0.02199
v 0.01462 0.07258 0.00803
v 0.01173 0.07459 0.02409
v 0.01225 0.07461 0.02409
v 0.01421 0.07455 0.02196
v 0.01173 0.07455 0.00645
v 0.01224 0.07465 0.00623
v 0.01422 0.07459 0.00805
v 0.01184 0.07251 0.00621
v 0.01133 0.07262 0.00648
v 0.01132 0.07258 0.02409
v 0.00569 0.07956 0.02949
v 0.00668 0.07965 0.02949
v 0.00767 0.07957 0.02949
v 0.00475 0.07926 0.02945
v 0.00862 0.07926 0.02945
v 0.00882 0.07975 0.02944
v 0.00978 0.07925 0.02932
v 0.00386 0.07881 0.02934
v 0.00949 0.07881 0.02934
v 0.00311 0.07817 0.02921
v 0.01025 0.07817 0.02921
v 0.01063 0.07854 0.02918
v 0.01135 0.07772 0.02904
v 0.00247 0.07741 0.02907
v 0.01091 0.07742 0.02907
v 0.00202 0.07653 0.02895
v 0.01135 0.07653 0.02895
v 0.01184 0.07673 0.02892
v 0.01217 0.07567 0.02888
v 0.00172 0.07558 0.02887
v 0.01166 0.07556 0.0289
v 0.00164 0.0746 0.02884
v 0.01173 0.0746 0.02884
v 0.01226 0.0746 0.02884
v 0.01211 0.07356 0.02884
v 0.00175 0.07351 0.02884
v 0.01159 0.07361 0.02884
v 0.01185 0.07251 0.02884
v 0.01134 0.07262 0.02884
v 0.01159 0.07361 0.0016
v 0.01211 0.07356 0.0016
v 0.01185 0.07251 0.0016
v 0.01134 0.07262 0.0016
v 0.01173 0.0746 0.0016
v 0.01226 0.0746 0.0016
v 0.01217 0.07567 0.0016
v 0.01166 0.07556 0.0016
v 0.01135 0.07653 0.0016
v 0.01184 0.07673 0.0016
v 0.0109 0.07741 0.0016
v 0.01134 0.0777 0.0016
v 0.01063 0.07854 0.0016
v 0.01025 0.07817 0.0016
v 0.0095 0.07881 0.0016
v 0.0098 0.07925 0.0016
v 0.00882 0.07975 0.0016
v 0.00862 0.07926 0.0016
v 0.00768 0.07956 0.0016
v 0.00668 0.07965 0.0016
v 0.0057 0.07957 0.0016
v 0.00475 0.07926 0.0016
v 0.00388 0.07881 0.0016
v 0.00311 0.07817 0.0016
v 0.00246 0.07742 0.0016
v 0.00202 0.07653 0.0016
v 0.00172 0.07558 0.0016
v 0.00164 0.0746 0.0016
v 0.00175 0.07351 0.0016
v 0.02476 0.07568 0.02185
v 0.02476 0.07568 0.00817
v 0.02442 0.07673 0.00817
v 0.02485 0.0746 0.02185
v 0.02442 0.07673 0.02185
v 0.02485 0.0746 0.00817
v 0.02393 0.0777 0.02185
v 0.02473 0.0735 0.02185
v 0.02393 0.0777 0.00817
v 0.02473 0.0735 0.00817
v 0.02443 0.07251 0.02185
v 0.02443 0.07251 0.00817
v 0.02321 0.07854 0.02185
v 0.02321 0.07854 0.00817
v 0.02238 0.07924 0.02185
v 0.02238 0.07924 0.00817
v 0.0214 0.07975 0.02185
v 0.0214 0.07975 0.00817
v 0.01185 0.07255 0.02409
v 0.02393 0.07653 0.02185
v 0.02424 0.07558 0.02185
v 0.02348 0.07741 0.02185
v 0.02432 0.0746 0.02185
v 0.02284 0.07817 0.02185
v 0.02209 0.0788 0.02185
v 0.02421 0.07355 0.02185
v 0.02392 0.07262 0.02185
v 0.0212 0.07926 0.02185
v 0.02026 0.07958 0.02185
v 0.01927 0.07965 0.02185
v 0.01827 0.07956 0.02185
v 0.01734 0.07926 0.02185
v 0.01645 0.07881 0.02185
v 0.0157 0.07817 0.02185
v 0.01505 0.07741 0.02184
v 0.0146 0.07653 0.02185
v 0.01429 0.07554 0.02191
v 0.02424 0.07558 0.00817
v 0.02393 0.07653 0.00817
v 0.02432 0.0746 0.00817
v 0.02348 0.07741 0.00817
v 0.02421 0.07355 0.00817
v 0.02392 0.07262 0.00817
v 0.02284 0.07817 0.00817
v 0.02209 0.0788 0.00817
v 0.0212 0.07926 0.00817
v 0.02026 0.07958 0.00817
v 0.01927 0.07965 0.00817
v 0.01827 0.07956 0.00817
v 0.01734 0.07926 0.00817
v 0.01645 0.07881 0.00817
v 0.0157 0.07817 0.00817
v 0.01505 0.07741 0.00818
v 0.0146 0.07653 0.00817
v 0.01429 0.07556 0.00811
v 0.01185 0.07251 0.00621
v 0.01211 0.07358 0.00622
v 0.01225 0.07465 0.00623
v 0.01216 0.07569 0.00633
v 0.01184 0.07673 0.00643
v 0.01134 0.0777 0.00655
v 0.01063 0.07854 0.00668
v 0.0098 0.07925 0.00682
v 0.00882 0.07975 0.00694
v 0.01212 0.07358 0.02409
v 0.01226 0.07461 0.02409
v 0.01216 0.07567 0.02409
v 0.01184 0.07673 0.02409
v 0.01135 0.07772 0.02409
v 0.01063 0.07854 0.02409
v 0.00978 0.07925 0.02409
v 0.00882 0.07975 0.02409
v 0.0057 0.07957 0.00699
v 0.00668 0.07965 0.00699
v 0.00768 0.07956 0.00699
v 0.00475 0.07926 0.00695
v 0.00862 0.07926 0.00695
v 0.00388 0.07881 0.00685
v 0.0095 0.07881 0.00685
v 0.00311 0.07817 0.00671
v 0.01025 0.07817 0.00671
v 0.00246 0.07742 0.00657
v 0.0109 0.07741 0.00656
v 0.00202 0.07653 0.00646
v 0.01135 0.07653 0.00646
v 0.00172 0.07558 0.00637
v 0.00164 0.0746 0.00634
v 0.00175 0.07351 0.00634
v 0.01166 0.07556 0.02409
v 0.01135 0.07653 0.02409
v 0.01159 0.07358 0.02409
v 0.01091 0.07742 0.02409
v 0.01025 0.07817 0.02409
v 0.00949 0.07881 0.02409
v 0.00862 0.07926 0.02409
v 0.00767 0.07957 0.02409
v 0.00668 0.07965 0.02409
v 0.00569 0.07956 0.02409
v 0.00475 0.07926 0.02409
v 0.00386 0.07881 0.02409
v 0.00311 0.07817 0.02409
v 0.00247 0.07741 0.02409
v 0.00202 0.07653 0.02409
v 0.00172 0.07558 0.02409
v 0.00164 0.0746 0.02409
v 0.00175 0.07351 0.02409
v 0.01133 0.07258 0.02409
v 0.01429 0.07358 0.02197
v 0.0143 0.07358 0.00804
v 0.01166 0.07554 0.00646
v 0.01174 0.07455 0.00645
v 0.0116 0.07358 0.00647
v 0.01134 0.07262 0.00648
vt 0.680176 0.223145
vt 0.680176 0.217163
vt 0.678711 0.217163
vt 0.678711 0.223145
vt 0.681152 0.223145
vt 0.681152 0.217163
vt 0.682617 0.217163
vt 0.682617 0.223145
vt 0.683594 0.217285
vt 0.683594 0.223145
vt 0.685059 0.217529
vt 0.685059 0.223145
vt 0.686035 0.217651
vt 0.686035 0.223145
vt 0.6875 0.217773
vt 0.6875 0.223145
vt 0.688477 0.217896
vt 0.688477 0.223145
vt 0.689941 0.223145
vt 0.689941 0.217896
vt 0.690918 0.223145
vt 0.690918 0.217896
vt 0.692383 0.223145
vt 0.692383 0.217896
vt 0.692871 0.217896
vt 0.692871 0.223145
vt 0.439697 0.032562
vt 0.439697 0.026535
vt 0.438477 0.026535
vt 0.438477 0.032562
vt 0.440918 0.032562
vt 0.440918 0.026535
vt 0.442139 0.026596
vt 0.442139 0.032562
vt 0.443359 0.026718
vt 0.443359 0.032562
vt 0.44458 0.026886
vt 0.44458 0.032562
vt 0.445801 0.027039
vt 0.445801 0.032562
vt 0.447021 0.027176
vt 0.447021 0.032562
vt 0.448486 0.027252
vt 0.448486 0.032562
vt 0.449463 0.032562
vt 0.449463 0.027267
vt 0.450928 0.032562
vt 0.450928 0.027267
vt 0.451904 0.032562
vt 0.451904 0.027267
vt 0.452637 0.027267
vt 0.452637 0.032562
vt 0.978027 0.079529
vt 0.978027 0.078308
vt 0.962402 0.078369
vt 0.962402 0.07959
vt 0.962402 0.077148
vt 0.978027 0.077087
vt 0.978027 0.075867
vt 0.962402 0.075928
vt 0.978027 0.074646
vt 0.962402 0.074707
vt 0.962402 0.073486
vt 0.978027 0.073425
vt 0.962402 0.072205
vt 0.978027 0.072205
vt 0.962402 0.070984
vt 0.978027 0.070984
vt 0.978027 0.069702
vt 0.962402 0.069763
vt 0.962402 0.068604
vt 0.978027 0.068542
vt 0.962402 0.067444
vt 0.978027 0.067383
vt 0.962402 0.066162
vt 0.978027 0.066162
vt 0.962402 0.065613
vt 0.978027 0.065613
vt 0.627441 0.455811
vt 0.625977 0.455811
vt 0.627441 0.459717
vt 0.62793 0.459229
vt 0.62793 0.455811
vt 0.196533 0.005352
vt 0.195435 0.005455
vt 0.195435 0.00885
vt 0.194824 0.00856
vt 0.194824 0.005157
vt 0.480957 0.05069
vt 0.480957 0.050049
vt 0.47876 0.050385
vt 0.47876 0.051056
vt 0.625 0.455322
vt 0.625 0.459717
vt 0.197632 0.009171
vt 0.197632 0.005013
vt 0.689941 0.081604
vt 0.688965 0.081604
vt 0.688965 0.082214
vt 0.6875 0.081604
vt 0.689941 0.082214
vt 0.6875 0.082214
vt 0.691406 0.081604
vt 0.686523 0.081604
vt 0.691406 0.082214
vt 0.686523 0.082214
vt 0.692383 0.082214
vt 0.685547 0.082214
vt 0.692383 0.081604
vt 0.685547 0.081604
vt 0.693359 0.081604
vt 0.684082 0.081604
vt 0.693359 0.082214
vt 0.684082 0.082214
vt 0.694824 0.082214
vt 0.683105 0.082214
vt 0.694824 0.081604
vt 0.683105 0.081604
vt 0.695801 0.081604
vt 0.681641 0.081604
vt 0.695801 0.082214
vt 0.681641 0.082214
vt 0.697266 0.082214
vt 0.680664 0.082214
vt 0.697266 0.081604
vt 0.680664 0.081604
vt 0.698242 0.081604
vt 0.679199 0.081604
vt 0.698242 0.082214
vt 0.679688 0.082214
vt 0.699707 0.082214
vt 0.678223 0.082214
vt 0.699707 0.081604
vt 0.700684 0.082214
vt 0.700684 0.081604
vt 0.678223 0.081604
vt 0.677246 0.082214
vt 0.677246 0.081604
vt 0.41626 0.005196
vt 0.41626 0.005795
vt 0.41748 0.005795
vt 0.41748 0.005196
vt 0.415283 0.005196
vt 0.415283 0.005795
vt 0.414062 0.005795
vt 0.414062 0.005196
vt 0.412842 0.005196
vt 0.412842 0.005795
vt 0.411865 0.005196
vt 0.411865 0.005795
vt 0.410645 0.005795
vt 0.410645 0.005196
vt 0.409424 0.005196
vt 0.409424 0.005795
vt 0.408203 0.005795
vt 0.408203 0.005196
vt 0.407227 0.005196
vt 0.407227 0.005795
vt 0.406006 0.005795
vt 0.406006 0.005196
vt 0.404785 0.005196
vt 0.404785 0.005795
vt 0.403809 0.005795
vt 0.403809 0.005196
vt 0.402588 0.005196
vt 0.402588 0.005795
vt 0.401367 0.005795
vt 0.401367 0.005196
vt 0.400391 0.005196
vt 0.400391 0.005795
vt 0.39917 0.005795
vt 0.39917 0.005196
vt 0.397949 0.005196
vt 0.397949 0.005795
vt 0.396729 0.005795
vt 0.396729 0.005196
vt 0.395508 0.005795
vt 0.395508 0.005196
vt 0.394531 0.005795
vt 0.394531 0.005196
vt 0.962402 0.086975
vt 0.978027 0.086914
vt 0.978027 0.085693
vt 0.962402 0.088196
vt 0.962402 0.085754
vt 0.978027 0.088135
vt 0.962402 0.084534
vt 0.962402 0.089417
vt 0.978027 0.084473
vt 0.978027 0.089355
vt 0.962402 0.090576
vt 0.978027 0.090515
vt 0.962402 0.083252
vt 0.978027 0.083252
vt 0.962402 0.082031
vt 0.978027 0.082031
vt 0.962402 0.080811
vt 0.978027 0.080811
vt 0.520996 0.139282
vt 0.523438 0.139648
vt 0.523438 0.139038
vt 0.520996 0.138672
vt 0.898438 0.00668
vt 0.898438 0.007282
vt 0.899902 0.007282
vt 0.897461 0.007282
vt 0.899902 0.00668
vt 0.897461 0.00668
vt 0.900879 0.00668
vt 0.896484 0.00668
vt 0.900879 0.007282
vt 0.896484 0.007282
vt 0.901855 0.00668
vt 0.89502 0.007282
vt 0.902344 0.007282
vt 0.90332 0.00668
vt 0.90332 0.007282
vt 0.89502 0.00668
vt 0.894043 0.00668
vt 0.894043 0.007282
vt 0.893066 0.007282
vt 0.893066 0.00668
vt 0.891602 0.00668
vt 0.891602 0.007282
vt 0.890625 0.007282
vt 0.890625 0.00668
vt 0.889648 0.00668
vt 0.889648 0.007282
vt 0.888184 0.007282
vt 0.888184 0.00668
vt 0.887207 0.00668
vt 0.887207 0.007282
vt 0.885742 0.00668
vt 0.885742 0.007282
vt 0.884766 0.007282
vt 0.884766 0.00668
vt 0.883789 0.00668
vt 0.883789 0.007282
vt 0.882324 0.00668
vt 0.882324 0.007282
vt 0.617188 0.004707
vt 0.615723 0.004707
vt 0.615723 0.005295
vt 0.614746 0.004707
vt 0.617188 0.005295
vt 0.614746 0.005295
vt 0.618164 0.005295
vt 0.613281 0.004707
vt 0.618164 0.004707
vt 0.613281 0.005295
vt 0.612305 0.004707
vt 0.612305 0.005295
vt 0.619141 0.004707
vt 0.619141 0.005295
vt 0.620605 0.005295
vt 0.620605 0.004707
vt 0.621582 0.004707
vt 0.621582 0.005295
vt 0.623047 0.005295
vt 0.623047 0.004707
vt 0.624023 0.004707
vt 0.624023 0.005295
vt 0.625488 0.005295
vt 0.625488 0.004707
vt 0.626465 0.004707
vt 0.626465 0.005295
vt 0.627441 0.005295
vt 0.627441 0.004707
vt 0.628906 0.004707
vt 0.628906 0.005295
vt 0.629883 0.004707
vt 0.629883 0.005295
vt 0.630859 0.005295
vt 0.630859 0.004707
vt 0.632324 0.004707
vt 0.632324 0.005295
vt 0.633301 0.005295
vt 0.633301 0.004707
vt 0.667969 0.218018
vt 0.667969 0.223145
vt 0.668945 0.223145
vt 0.668945 0.218018
vt 0.67041 0.223145
vt 0.67041 0.218018
vt 0.671387 0.223145
vt 0.671387 0.217896
vt 0.672852 0.223145
vt 0.672852 0.217773
vt 0.673828 0.223145
vt 0.673828 0.217651
vt 0.675293 0.223145
vt 0.675293 0.217529
vt 0.67627 0.223145
vt 0.67627 0.217285
vt 0.677734 0.223145
vt 0.677734 0.217163
vt 0.42749 0.027267
vt 0.427734 0.032562
vt 0.428711 0.032562
vt 0.428711 0.027267
vt 0.429932 0.032562
vt 0.429932 0.027267
vt 0.431152 0.032562
vt 0.431152 0.027222
vt 0.432373 0.032562
vt 0.432373 0.027176
vt 0.433594 0.032562
vt 0.433594 0.027039
vt 0.434814 0.032562
vt 0.434814 0.026886
vt 0.436035 0.032562
vt 0.436035 0.026718
vt 0.437256 0.032562
vt 0.437256 0.026596
vt 0.20166 0.357666
vt 0.200439 0.357666
vt 0.200439 0.358154
vt 0.199341 0.357666
vt 0.20166 0.358154
vt 0.199341 0.358154
vt 0.202881 0.357666
vt 0.19812 0.357666
vt 0.202881 0.358154
vt 0.19812 0.358154
vt 0.203979 0.358154
vt 0.196899 0.358154
vt 0.203979 0.357666
vt 0.196899 0.357666
vt 0.2052 0.357666
vt 0.195801 0.357666
vt 0.2052 0.358154
vt 0.195801 0.358154
vt 0.206421 0.358154
vt 0.19458 0.358154
vt 0.206421 0.357666
vt 0.19458 0.357666
vt 0.20752 0.357666
vt 0.193359 0.357666
vt 0.193359 0.358154
vt 0.192261 0.358154
vt 0.20752 0.358154
vt 0.20874 0.358154
vt 0.20874 0.357666
vt 0.209839 0.357666
vt 0.209839 0.358154
vt 0.21106 0.358154
vt 0.211182 0.357666
vt 0.212158 0.358154
vt 0.212158 0.357666
vt 0.794922 0.007282
vt 0.795898 0.007282
vt 0.795898 0.00668
vt 0.796875 0.007282
vt 0.794922 0.00668
vt 0.796875 0.00668
vt 0.793945 0.007282
vt 0.797852 0.007282
vt 0.797852 0.00668
vt 0.799316 0.00668
vt 0.799316 0.007282
vt 0.800293 0.007282
vt 0.800293 0.00668
vt 0.801758 0.00668
vt 0.801758 0.007282
vt 0.802734 0.007282
vt 0.802734 0.00668
vt 0.803711 0.00668
vt 0.803711 0.007282
vt 0.805176 0.007282
vt 0.805176 0.00668
vt 0.806152 0.00668
vt 0.806152 0.007282
vt 0.807617 0.007282
vt 0.807617 0.00668
vt 0.808594 0.00668
vt 0.808594 0.007282
vt 0.810059 0.007282
vt 0.810059 0.00668
vt 0.811035 0.00668
vt 0.811035 0.007282
vt 0.812012 0.007282
vt 0.812012 0.00668
vt 0.813477 0.00668
vt 0.813477 0.007282
vt 0.814453 0.00668
vt 0.814453 0.007282
vt 0.815918 0.00668
vt 0.815918 0.007282
vt 0.793945 0.00668
vt 0.792969 0.00668
vt 0.792969 0.007282
vt 0.523438 0.143311
vt 0.521973 0.143311
vt 0.480957 0.0466
vt 0.479736 0.046509
vt 0.47876 0.046204
vt 0.520996 0.143555
vt 0.192139 0.357666
vt 0.191162 0.358154
vt 0.19104 0.357666
vt 0.189941 0.358154
vt 0.189819 0.357666
vt 0.188721 0.358154
vt 0.188721 0.357666
vt 0.666992 0.223145
vt 0.666992 0.217773
vt 0.978027 0.091125
vt 0.962402 0.091125
vt 0.427002 0.027267
vt 0.427002 0.032562
vt 0.198242 0.00882
vt 0.198242 0.00465
vt 0.624512 0.455078
vt 0.624512 0.459229
vn 0.001 1 -0.001
vn 0.1943 0.9809 -0.0011
vn -0.1943 0.9809 -0.0011
vn -0.3791 0.9254 -0.0013
vn -0.3822 0.9241 -0.0013
vn -0.5487 0.836 -0.0014
vn -0.555 0.8318 0.0014
vn -0.696 0.7181 0.0014
vn -0.6988 0.7154 0.0014
vn -0.8255 0.5644 0.0014
vn -0.8318 0.555 0.0014
vn -0.9266 0.376 0.0013
vn -0.9279 0.3729 0.0013
vn -0.9804 0.197 0.0012
vn -0.9809 0.1943 0.0011
vn -0.9999 -0.0149 0
vn -0.981 -0.1941 0
vn -0.7242 -0.6896 0
vn 0.1955 -0.9807 0
vn -0.001 1 -0.001
vn -0.3791 0.9254 0.0013
vn -0.3822 0.9241 0.0013
vn -0.5487 0.836 0.0014
vn -0.555 0.8318 -0.0014
vn -0.7043 0.7099 -0.0014
vn -0.7071 0.7071 0.0014
vn -0.9228 0.3853 0.0013
vn -0.9241 0.3822 0.0013
vn -0.9999 -0.0169 0
vn -0.0109 0.9999 -0.001
vn -0.0109 0.9999 0.001
vn 0.1943 0.9809 0.0012
vn -0.1943 0.9809 0.0011
vn -0.7099 0.7043 0.0014
vn -0.7099 0.7043 -0.0014
vn -0.8318 0.555 -0.0014
vn -0.9254 0.3791 -0.0013
vn -0.9799 0.1997 0.0012
vn -0.9804 0.197 -0.0012
vn -1 0.0049 0.001
vn -0.9825 -0.1862 0
vn -0.9815 -0.1915 0
vn -0.6882 -0.7255 0
vn -0.6939 -0.7201 0
vn 0.1906 -0.9817 -0.0023
vn 0.0536 -0.9986 0.0021
vn -0.6747 0.4637 -0.5742
vn -0.7648 -0.0528 -0.6421
vn -0.5742 0.6747 -0.4637
vn -0.017 0.9998 0.007
vn 0.1491 0.9829 0.1079
vn -0.6817 -0.0471 0.7302
vn -0.5814 0.5039 0.6387
vn -0.4505 0.765 0.4603
vn -0.1252 0.9862 0.1085
vn 0.0335 0.9994 -0.0051
vn -0.4172 0.0867 -0.9047
vn -0.4115 0.0895 -0.907
vn -0.4428 0.0847 -0.8926
vn -0.4485 0.0819 -0.89
vn -0.6389 -0.1858 -0.7465
vn -0.711 0.0986 -0.6963
vn -0.6797 -0.0559 -0.7313
vn -0.7162 0.1432 -0.683
vn -0.5856 -0.0378 0.8097
vn -0.6246 0.1393 0.7684
vn -0.6174 0.0949 0.7809
vn -0.5469 -0.1599 0.8218
vn -0.02 -0.003 0.9998
vn 0 -0.001 1
vn 0.02 -0.003 0.9998
vn -0.0744 -0.0159 0.9971
vn 0.0743 -0.0138 0.9971
vn -0.0765 -0.0138 0.997
vn 0.0765 -0.0138 0.997
vn -0.1187 -0.0347 0.9923
vn 0.1187 -0.0347 0.9923
vn -0.1209 -0.0325 0.9921
vn 0.1209 -0.0325 0.9921
vn -0.1286 -0.0563 0.9901
vn 0.1286 -0.0563 0.9901
vn -0.1284 -0.0539 0.9903
vn 0.1284 -0.0539 0.9903
vn -0.1175 -0.0703 0.9906
vn 0.1198 -0.068 0.9905
vn -0.1228 -0.073 0.9897
vn 0.1228 -0.073 0.9897
vn -0.0846 -0.059 0.9947
vn 0.079 -0.0472 0.9958
vn -0.0844 -0.0566 0.9948
vn 0.0786 -0.0426 0.996
vn -0.0423 -0.0412 0.9983
vn 0.0379 -0.0411 0.9984
vn -0.0449 -0.0502 0.9977
vn 0.0382 -0.0499 0.998
vn -0.0059 -0.0069 1
vn 0.006 -0.0211 0.9998
vn 0 -0.0069 1
vn 0 -0.021 0.9998
vn 0 -0.001 -1
vn 0.9809 0.1943 0.0012
vn 0.9809 0.1943 -0.0011
vn 0.9254 0.3791 -0.0013
vn 0.9999 -0.0109 0
vn 0.9254 0.3791 0.0013
vn 0.8318 0.555 -0.0014
vn 0.981 -0.1941 0
vn 0.8318 0.555 0.0014
vn 0.7349 -0.6782 0
vn 0.7071 0.7071 -0.0014
vn 0.7071 0.7071 0.0014
vn 0.555 0.8318 0.0014
vn 0.3945 0.9189 0.0013
vn 0.3945 0.9189 -0.0013
vn 0.0029 0.0029 1
vn 0.0059 -0.001 1
vn 0.0202 -0.0131 0.9997
vn 0.0308 -0.0195 0.9993
vn -0.0283 -0.0071 0.9996
vn -0.0122 -0.0274 0.9995
vn -0.1765 0.0196 0.9841
vn -0.2326 0.0554 0.971
vn -0.3383 0.048 0.9398
vn -0.3834 0.0826 0.9199
vn 0.0029 0.0029 -1
vn 0.0059 -0.001 -1
vn 0.0202 -0.0152 -0.9997
vn 0.0308 -0.0216 -0.9993
vn -0.0303 -0.0051 -0.9995
vn -0.0122 -0.0274 -0.9995
vn -0.2093 0.052 -0.9765
vn -0.1976 0.0982 -0.9754
vn -0.351 0.0089 -0.9363
vn -0.3986 -0.0169 -0.917
vn 0.6952 -0.7188 0.0028
vn 0.7707 -0.6372 0
vn 0.9804 -0.1968 0
vn 0.9824 -0.1866 0.0023
vn 0.9997 -0.0251 0.002
vn 0.9998 -0.019 0.002
vn 0.9793 0.2023 0.0012
vn 0.9266 0.376 -0.0013
vn 0.9241 0.3822 0.0013
vn 0.8276 0.5613 0.0014
vn 0.7043 0.7099 0.0014
vn 0.5487 0.836 -0.0014
vn 0.3822 0.9241 -0.0013
vn 0.3791 0.9254 -0.0013
vn 0.7696 -0.6386 -0.0028
vn 0.7866 -0.6175 0.0028
vn 0.9997 -0.023 0
vn 0.9804 0.197 -0.0012
vn 0.9303 0.3668 0.0013
vn 0.9291 0.3699 -0.0013
vn 0.8255 0.5644 -0.0014
vn 0.6988 0.7154 -0.0014
vn 0.696 0.7181 0.0014
vn 0.5487 0.836 0.0014
vn 0.3822 0.9241 0.0013
vn 0.3791 0.9254 0.0013
vn -0.0743 -0.0138 0.9971
vn 0.0744 -0.0159 0.9971
vn 0.1238 -0.0585 0.9906
vn 0.1256 -0.0514 0.9908
vn -0.1198 -0.068 0.9905
vn 0.0987 -0.0838 0.9916
vn 0.092 -0.0932 0.9914
vn 0.1083 -0.053 0.9927
vn 0.0903 -0.0711 0.9934
vn 0.2207 -0.0178 0.9752
vn -0.0842 -0.0543 0.995
vn -0.0448 -0.048 0.9978
vn 0.7364 0.0709 0.6728
vn 0.6779 0.0619 -0.7326
vn 0.5353 0.1824 -0.8248
vn 0.6154 -0.0705 -0.7851
vn 0.5833 0.0436 -0.8111
vn 0.6239 -0.1074 -0.774
vn 0.6419 0.0558 0.7648
vn 0.681 -0.1335 0.72
vn 0.6742 -0.0923 0.7328
vn 0.59 0.2049 0.781
vn 0.2662 0.0134 0.9638
vn 0.3802 -0.0273 0.9245
vn 0.4068 -0.0223 0.9133
vn 0.4269 -0.0813 0.9006
vn 0.4322 -0.0873 0.8976
vn 0.4365 -0.1112 0.8928
vn 0.4423 -0.1085 0.8903
vn -0.1955 -0.9807 0
vn -0.1862 -0.9825 -0.0069
vn -0.0517 -0.9986 0.0083
vn -0.0836 -0.9847 0.1528
vn -0.0986 -0.9778 0.185
vn 0.004 -0.9995 -0.0303
vn 0.019 -0.9978 -0.0634
vn 0.1178 -0.9848 0.1275
vn 0.1264 -0.9829 0.1337
vn -0.035 -0.9992 -0.0185
vn -0.053 -0.998 -0.0339
o bullet_scaffold17__p1_c0
f 1/1/1 2/2/1 3/3/2
f 1/1/1 3/3/2 4/4/2
f 2/2/1 1/1/1 5/5/3
f 2/2/1 5/5/3 6/6/3
f 6/6/3 5/5/3 7/7/4
f 7/7/4 5/5/3 8/8/5
f 7/7/4 8/8/5 9/9/6
f 9/9/6 8/8/5 10/10/7
f 9/9/6 10/10/7 11/11/8
f 11/11/8 10/10/7 12/12/9
f 11/11/8 12/12/9 13/13/10
f 13/13/10 12/12/9 14/14/11
f 13/13/10 14/14/11 15/15/12
f 15/15/12 14/14/11 16/16/13
f 15/15/12 16/16/13 17/17/14
f 17/17/14 16/16/13 18/18/15
f 17/17/14 18/18/15 19/19/16
f 17/17/14 19/19/16 20/20/16
f 20/20/16 19/19/16 21/21/17
f 20/20/16 21/21/17 22/22/17
f 22/22/17 21/21/17 23/23/18
f 22/22/17 23/23/18 24/24/18
f 24/24/18 23/23/18 25/25/19
f 25/25/19 23/23/18 26/26/19
f 27/27/20 28/28/20 29/29/2
f 27/27/20 29/29/2 30/30/2
f 28/28/20 27/27/20 31/31/3
f 28/28/20 31/31/3 32/32/3
f 32/32/3 31/31/3 33/33/21
f 33/33/21 31/31/3 34/34/22
f 33/33/21 34/34/22 35/35/23
f 35/35/23 34/34/22 36/36/24
f 35/35/23 36/36/24 37/37/25
f 37/37/25 36/36/24 38/38/26
f 37/37/25 38/38/26 39/39/10
f 39/39/10 38/38/26 40/40/11
f 39/39/10 40/40/11 41/41/27
f 41/41/27 40/40/11 42/42/28
f 41/41/27 42/42/28 43/43/14
f 43/43/14 42/42/28 44/44/15
f 43/43/14 44/44/15 45/45/29
f 43/43/14 45/45/29 46/46/29
f 46/46/29 45/45/29 47/47/17
f 46/46/29 47/47/17 48/48/17
f 48/48/17 47/47/17 49/49/18
f 48/48/17 49/49/18 50/50/18
f 50/50/18 49/49/18 51/51/19
f 51/51/19 49/49/18 52/52/19
f 53/53/2 54/54/30 55/55/31
f 53/53/2 55/55/31 56/56/32
f 55/55/31 54/54/30 57/57/33
f 57/57/33 54/54/30 58/58/3
f 57/57/33 58/58/3 59/59/5
f 57/57/33 59/59/5 60/60/22
f 60/60/22 59/59/5 61/61/24
f 60/60/22 61/61/24 62/62/24
f 62/62/24 61/61/24 63/63/34
f 63/63/34 61/61/24 64/64/35
f 63/63/34 64/64/35 65/65/11
f 65/65/11 64/64/35 66/66/36
f 65/65/11 66/66/36 67/67/37
f 67/67/37 66/66/36 68/68/37
f 67/67/37 68/68/37 69/69/38
f 67/67/37 69/69/38 70/70/39
f 70/70/39 69/69/38 71/71/40
f 71/71/40 69/69/38 72/72/40
f 71/71/40 72/72/40 73/73/41
f 73/73/41 72/72/40 74/74/42
f 73/73/41 74/74/42 75/75/43
f 75/75/43 74/74/42 76/76/44
f 75/75/43 76/76/44 77/77/45
f 77/77/45 76/76/44 78/78/46
f 71/79/47 73/80/48 79/81/49
f 71/79/47 79/81/49 80/82/50
f 71/79/47 80/82/50 81/83/51
f 74/84/52 72/85/53 82/86/54
f 82/86/54 72/85/53 83/87/55
f 83/87/55 72/85/53 84/88/56
f 82/89/57 83/90/58 85/91/59
f 82/89/57 85/91/59 86/92/60
f 75/93/61 87/94/62 73/80/63
f 73/80/63 87/94/62 79/81/64
f 74/84/65 82/86/66 86/95/67
f 74/84/65 86/95/67 76/96/68
f 88/97/69 89/98/70 28/99/70
f 28/99/70 89/98/70 90/100/71
f 88/97/69 28/99/70 32/101/69
f 28/99/70 90/100/71 29/102/71
f 88/97/69 32/101/69 91/103/72
f 29/102/71 90/100/71 92/104/73
f 91/103/72 32/101/69 33/105/74
f 29/102/71 92/104/73 93/106/75
f 91/103/72 33/105/74 35/107/76
f 93/106/75 92/104/73 94/108/77
f 91/103/72 35/107/76 95/109/78
f 94/108/77 92/104/73 96/110/79
f 95/109/78 35/107/76 97/111/80
f 94/108/77 96/110/79 98/112/81
f 97/111/80 35/107/76 37/113/82
f 94/108/77 98/112/81 99/114/83
f 97/111/80 37/113/82 39/115/84
f 99/114/83 98/112/81 100/116/85
f 97/111/80 39/115/84 101/117/86
f 100/116/85 98/112/81 102/118/87
f 101/117/86 39/115/84 103/119/88
f 100/116/85 102/118/87 104/120/89
f 103/119/88 39/115/84 41/121/90
f 100/116/85 104/120/89 105/122/91
f 103/119/88 41/121/90 43/123/92
f 105/122/91 104/120/89 106/124/93
f 103/119/88 43/123/92 107/125/94
f 106/124/93 104/120/89 108/126/95
f 107/125/94 43/123/92 109/127/96
f 106/124/93 108/126/95 110/128/97
f 109/127/96 43/123/92 46/129/98
f 106/124/93 110/128/97 111/130/99
f 109/127/96 46/129/98 48/131/70
f 111/130/99 110/128/97 112/132/70
f 109/127/96 48/131/70 113/133/70
f 113/133/70 48/131/70 50/134/70
f 113/133/70 50/134/70 51/135/70
f 112/132/70 110/128/97 114/136/70
f 112/132/70 114/136/70 115/137/70
f 115/137/70 114/136/70 116/138/70
f 117/139/100 118/140/100 119/141/100
f 117/139/100 119/141/100 120/142/100
f 118/140/100 117/139/100 121/143/100
f 118/140/100 121/143/100 122/144/100
f 122/144/100 121/143/100 123/145/100
f 123/145/100 121/143/100 124/146/100
f 123/145/100 124/146/100 125/147/100
f 123/145/100 125/147/100 126/148/100
f 126/148/100 125/147/100 127/149/100
f 126/148/100 127/149/100 128/150/100
f 128/150/100 127/149/100 129/151/100
f 129/151/100 127/149/100 130/152/100
f 129/151/100 130/152/100 131/153/100
f 129/151/100 131/153/100 132/154/100
f 132/154/100 131/153/100 133/155/100
f 133/155/100 131/153/100 134/156/100
f 133/155/100 134/156/100 135/157/100
f 133/155/100 135/157/100 4/158/100
f 4/158/100 135/157/100 1/159/100
f 1/159/100 135/157/100 136/160/100
f 1/159/100 136/160/100 137/161/100
f 1/159/100 137/161/100 5/162/100
f 5/162/100 137/161/100 8/163/100
f 8/163/100 137/161/100 138/164/100
f 8/163/100 138/164/100 139/165/100
f 8/163/100 139/165/100 10/166/100
f 10/166/100 139/165/100 12/167/100
f 12/167/100 139/165/100 140/168/100
f 12/167/100 140/168/100 141/169/100
f 12/167/100 141/169/100 14/170/100
f 14/170/100 141/169/100 16/171/100
f 16/171/100 141/169/100 142/172/100
f 16/171/100 142/172/100 143/173/100
f 16/171/100 143/173/100 18/174/100
f 18/174/100 143/173/100 19/175/100
f 19/175/100 143/173/100 144/176/100
f 19/175/100 144/176/100 21/177/100
f 21/177/100 144/176/100 145/178/100
f 21/177/100 145/178/100 23/179/100
f 23/179/100 145/178/100 26/180/100
f 146/181/101 147/182/102 148/183/103
f 147/182/102 146/181/101 149/184/104
f 146/181/101 148/183/103 150/185/105
f 147/182/102 149/184/104 151/186/104
f 150/185/105 148/183/103 152/187/106
f 151/186/104 149/184/104 153/188/107
f 152/187/106 148/183/103 154/189/108
f 151/186/104 153/188/107 155/190/107
f 155/190/107 153/188/107 156/191/109
f 155/190/107 156/191/109 157/192/109
f 152/187/106 154/189/108 158/193/110
f 158/193/110 154/189/108 159/194/111
f 158/193/110 159/194/111 160/195/112
f 160/195/112 159/194/111 161/196/112
f 160/195/112 161/196/112 162/197/113
f 162/197/113 161/196/112 163/198/114
f 162/197/113 163/198/114 53/53/2
f 162/197/113 53/53/2 56/56/32
f 164/199/70 80/200/70 79/201/70
f 164/199/70 79/201/70 87/202/70
f 150/203/70 165/204/70 166/205/70
f 165/204/70 150/203/70 167/206/70
f 150/203/70 166/205/70 146/207/70
f 167/206/70 150/203/70 152/208/70
f 146/207/70 166/205/70 149/209/70
f 167/206/70 152/208/70 158/210/70
f 149/209/70 166/205/70 168/211/70
f 167/206/70 158/210/70 169/212/70
f 149/209/70 168/211/70 153/213/70
f 169/212/70 158/210/70 170/214/70
f 153/213/70 168/211/70 171/215/70
f 153/213/70 171/215/70 156/216/70
f 156/216/70 171/215/70 172/217/70
f 170/214/70 158/210/70 160/218/70
f 170/214/70 160/218/70 162/219/70
f 170/214/70 162/219/70 173/220/70
f 173/220/70 162/219/70 174/221/70
f 174/221/70 162/219/70 56/222/70
f 174/221/70 56/222/70 55/223/70
f 174/221/70 55/223/70 175/224/70
f 175/224/70 55/223/70 176/225/70
f 176/225/70 55/223/70 57/226/70
f 176/225/70 57/226/70 60/227/70
f 176/225/70 60/227/70 177/228/70
f 177/228/70 60/227/70 178/229/70
f 178/229/70 60/227/70 62/230/70
f 178/229/70 62/230/70 63/231/115
f 178/229/70 63/231/115 179/232/116
f 179/232/116 63/231/115 65/233/117
f 179/232/116 65/233/117 180/234/118
f 180/234/118 65/233/117 181/235/119
f 181/235/119 65/233/117 67/236/120
f 181/235/119 67/236/120 70/237/121
f 181/235/119 70/237/121 182/238/122
f 182/238/122 70/237/121 71/239/123
f 182/238/122 71/239/123 81/240/124
f 148/241/100 147/242/100 183/243/100
f 183/243/100 147/242/100 151/244/100
f 148/241/100 183/243/100 184/245/100
f 183/243/100 151/244/100 185/246/100
f 148/241/100 184/245/100 186/247/100
f 185/246/100 151/244/100 155/248/100
f 148/241/100 186/247/100 154/249/100
f 185/246/100 155/248/100 187/250/100
f 187/250/100 155/248/100 157/251/100
f 187/250/100 157/251/100 188/252/100
f 154/249/100 186/247/100 159/253/100
f 159/253/100 186/247/100 189/254/100
f 159/253/100 189/254/100 190/255/100
f 159/253/100 190/255/100 161/256/100
f 161/256/100 190/255/100 163/257/100
f 163/257/100 190/255/100 191/258/100
f 163/257/100 191/258/100 192/259/100
f 163/257/100 192/259/100 53/260/100
f 53/260/100 192/259/100 54/261/100
f 54/261/100 192/259/100 193/262/100
f 54/261/100 193/262/100 194/263/100
f 54/261/100 194/263/100 58/264/100
f 58/264/100 194/263/100 59/265/100
f 59/265/100 194/263/100 195/266/100
f 59/265/100 195/266/100 196/267/100
f 59/265/100 196/267/100 61/268/100
f 61/268/100 196/267/100 64/269/125
f 64/269/125 196/267/100 197/270/126
f 64/269/125 197/270/126 66/271/127
f 66/271/127 197/270/126 198/272/128
f 66/271/127 198/272/128 199/273/129
f 66/271/127 199/273/129 68/274/130
f 68/274/130 199/273/129 69/275/131
f 69/275/131 199/273/129 200/276/132
f 69/275/131 200/276/132 84/277/133
f 69/275/131 84/277/133 72/278/134
f 201/279/135 119/280/136 118/281/137
f 201/279/135 118/281/137 202/282/138
f 202/282/138 118/281/137 122/283/139
f 202/282/138 122/283/139 203/284/140
f 203/284/140 122/283/139 123/285/101
f 203/284/140 123/285/101 204/286/141
f 204/286/141 123/285/101 126/287/142
f 204/286/141 126/287/142 205/288/143
f 205/288/143 126/287/142 128/289/108
f 205/288/143 128/289/108 206/290/144
f 206/290/144 128/289/108 129/291/111
f 206/290/144 129/291/111 207/292/145
f 207/292/145 129/291/111 132/293/112
f 207/292/145 132/293/112 208/294/146
f 208/294/146 132/293/112 133/295/147
f 208/294/146 133/295/147 209/296/148
f 209/296/148 133/295/147 4/4/2
f 209/296/148 4/4/2 3/3/2
f 115/297/149 164/298/150 210/299/107
f 115/297/149 210/299/107 112/300/137
f 112/300/137 210/299/107 211/301/151
f 112/300/137 211/301/151 111/302/151
f 111/302/151 211/301/151 212/303/102
f 111/302/151 212/303/102 106/304/152
f 106/304/152 212/303/102 213/305/153
f 106/304/152 213/305/153 105/306/154
f 105/306/154 213/305/153 214/307/106
f 105/306/154 214/307/106 100/308/155
f 100/308/155 214/307/106 215/309/156
f 100/308/155 215/309/156 99/310/157
f 99/310/157 215/309/156 216/311/112
f 99/310/157 216/311/112 94/312/158
f 94/312/158 216/311/112 217/313/159
f 94/312/158 217/313/159 93/314/160
f 93/314/160 217/313/159 30/30/2
f 93/314/160 30/30/2 29/29/2
f 218/315/69 219/316/70 2/317/70
f 2/317/70 219/316/70 220/318/71
f 218/315/69 2/317/70 6/319/69
f 2/317/70 220/318/71 3/320/71
f 218/315/69 6/319/69 221/321/161
f 3/320/71 220/318/71 222/322/162
f 221/321/161 6/319/69 7/323/74
f 3/320/71 222/322/162 209/324/75
f 221/321/161 7/323/74 9/325/76
f 209/324/75 222/322/162 208/326/77
f 221/321/161 9/325/76 223/327/78
f 208/326/77 222/322/162 224/328/79
f 223/327/78 9/325/76 225/329/80
f 208/326/77 224/328/79 226/330/163
f 225/329/80 9/325/76 11/331/82
f 208/326/77 226/330/163 207/332/164
f 225/329/80 11/331/82 13/333/165
f 207/332/164 226/330/163 206/334/166
f 225/329/80 13/333/165 227/335/86
f 206/334/166 226/330/163 228/336/167
f 227/335/86 13/333/165 229/337/88
f 206/334/166 228/336/167 230/338/168
f 206/334/166 230/338/168 205/339/169
f 205/339/169 230/338/168 204/340/170
f 229/337/88 13/333/165 15/341/171
f 229/337/88 15/341/171 17/342/92
f 229/337/88 17/342/92 231/343/172
f 231/343/172 17/342/92 232/344/96
f 232/344/96 17/342/92 20/345/98
f 232/344/96 20/345/98 22/346/70
f 232/344/96 22/346/70 233/347/70
f 233/347/70 22/346/70 24/348/70
f 233/347/70 24/348/70 25/349/70
f 79/350/100 234/351/100 212/352/100
f 212/352/100 234/351/100 235/353/100
f 79/350/100 212/352/100 211/354/100
f 212/352/100 235/353/100 213/355/100
f 79/350/100 211/354/100 236/356/100
f 213/355/100 235/353/100 237/357/100
f 213/355/100 237/357/100 214/358/100
f 214/358/100 237/357/100 215/359/100
f 215/359/100 237/357/100 238/360/100
f 215/359/100 238/360/100 239/361/100
f 215/359/100 239/361/100 216/362/100
f 216/362/100 239/361/100 217/363/100
f 217/363/100 239/361/100 240/364/100
f 217/363/100 240/364/100 241/365/100
f 217/363/100 241/365/100 30/366/100
f 30/366/100 241/365/100 27/367/100
f 27/367/100 241/365/100 242/368/100
f 27/367/100 242/368/100 243/369/100
f 27/367/100 243/369/100 31/370/100
f 31/370/100 243/369/100 34/371/100
f 34/371/100 243/369/100 244/372/100
f 34/371/100 244/372/100 245/373/100
f 34/371/100 245/373/100 36/374/100
f 36/374/100 245/373/100 38/375/100
f 38/375/100 245/373/100 246/376/100
f 38/375/100 246/376/100 247/377/100
f 38/375/100 247/377/100 40/378/100
f 40/378/100 247/377/100 42/379/100
f 42/379/100 247/377/100 248/380/100
f 42/379/100 248/380/100 249/381/100
f 42/379/100 249/381/100 44/382/100
f 44/382/100 249/381/100 45/383/100
f 45/383/100 249/381/100 250/384/100
f 45/383/100 250/384/100 47/385/100
f 47/385/100 250/384/100 251/386/100
f 47/385/100 251/386/100 49/387/100
f 49/387/100 251/386/100 52/388/100
f 210/389/100 164/390/100 211/354/100
f 211/354/100 164/390/100 236/356/100
f 236/356/100 164/390/100 252/391/100
f 81/392/173 80/200/173 253/393/173
f 84/394/174 254/395/174 83/90/174
f 78/396/175 85/91/176 254/395/177
f 254/395/177 85/91/176 83/90/178
f 253/393/179 80/200/180 164/199/181
f 253/393/179 164/199/181 77/397/182
f 230/338/168 255/398/183 204/340/170
f 204/340/170 255/398/183 203/399/184
f 203/399/184 255/398/183 256/400/185
f 203/399/184 256/400/185 202/401/186
f 202/401/186 256/400/185 257/402/187
f 202/401/186 257/402/187 201/403/188
f 201/403/188 257/402/187 258/404/189
f 120/405/190 119/280/136 201/279/135
f 120/405/190 201/279/135 258/406/190
f 157/192/109 156/191/109 188/407/190
f 188/407/190 156/191/109 172/408/190
f 164/298/150 115/297/149 116/409/191
f 164/298/150 116/409/191 252/410/192
f 86/95/193 85/411/194 78/412/195
f 86/95/193 78/412/195 76/96/196
f 75/93/197 77/413/198 164/414/199
f 75/93/197 164/414/199 87/94/200
