# CS2 body mesh, tools/cs2_glb_to_obj.py
v 0.03669 -0.00982 0.02185
v 0.03669 -0.00982 0.00817
v 0.03779 -0.00979 0.00817
v 0.03562 -0.00961 0.02185
v 0.03779 -0.00979 0.02185
v 0.03886 -0.00958 0.02185
v 0.03886 -0.00958 0.00817
v 0.03562 -0.00961 0.00817
v 0.03459 -0.0092 0.02185
v 0.03459 -0.0092 0.00817
v 0.03373 -0.00864 0.02185
v 0.03373 -0.00864 0.00817
v 0.03397 -0.00818 0.00817
v 0.03397 -0.00818 0.02185
v 0.0385 0.00063 0.02196
v 0.0391 0.00249 0.02409
v 0.03755 0.00082 0.02197
v 0.03723 0.00345 0.02409
v 0.03653 0.00077 0.02199
v 0.03917 0.00277 0.02884
v 0.03837 0.00337 0.02884
v 0.03807 0.00294 0.02884
v 0.03729 0.00368 0.02884
v 0.03763 0.00407 0.02884
v 0.03891 0.0023 0.02884
v 0.03989 0.00187 0.02888
v 0.04005 0.00237 0.0289
v 0.04104 0.00217 0.02895
v 0.04098 0.00164 0.02892
v 0.04208 0.00159 0.02904
v 0.04204 0.00212 0.02907
v 0.04301 0.00233 0.02921
v 0.04315 0.00182 0.02918
v 0.04418 0.00222 0.02932
v 0.04394 0.00269 0.02934
v 0.04476 0.00323 0.02945
v 0.04509 0.00282 0.02944
v 0.04589 0.00357 0.02949
v 0.04548 0.00392 0.02949
v 0.04649 0.00448 0.02949
v 0.04603 0.00474 0.02949
v 0.04644 0.00565 0.02949
v 0.04695 0.00548 0.02949
v 0.04663 0.00661 0.02945
v 0.04716 0.00655 0.02944
v 0.04719 0.00765 0.02932
v 0.04666 0.00761 0.02934
v 0.04647 0.00857 0.02921
v 0.04698 0.00872 0.02918
v 0.04659 0.00975 0.02904
v 0.04611 0.00951 0.02907
v 0.04557 0.01033 0.02895
v 0.04598 0.01066 0.02892
v 0.04523 0.01146 0.02885
v 0.04488 0.01105 0.02887
v 0.04406 0.0116 0.02884
v 0.04432 0.01206 0.02884
v 0.04326 0.01251 0.02884
v 0.04305 0.01203 0.02884
v 0.0423 0.01271 0.02884
v 0.04214 0.01221 0.02884
v 0.03854 0.00061 0.00805
v 0.03755 0.00081 0.00804
v 0.03914 0.00249 0.00623
v 0.0365 0.00077 0.00803
v 0.0372 0.00347 0.00621
v 0.03763 0.00407 0.0016
v 0.03729 0.00368 0.0016
v 0.03729 0.00368 0.00621
v 0.03763 0.00407 0.00648
v 0.03807 0.00294 0.0016
v 0.0381 0.00293 0.00622
v 0.03891 0.0023 0.0016
v 0.03896 0.00229 0.00623
v 0.03989 0.00187 0.0016
v 0.03992 0.00186 0.00633
v 0.04098 0.00164 0.0016
v 0.04098 0.00164 0.00643
v 0.04207 0.00161 0.0016
v 0.04207 0.00161 0.00655
v 0.04315 0.00182 0.0016
v 0.04315 0.00182 0.00668
v 0.03732 0.00365 0.02409
v 0.0376 0.0041 0.02409
v 0.03809 0.00293 0.02409
v 0.03892 0.0023 0.02409
v 0.0399 0.00187 0.02409
v 0.04098 0.00164 0.02409
v 0.04208 0.00159 0.02409
v 0.03837 0.00337 0.0016
v 0.03917 0.00277 0.0016
v 0.04005 0.00237 0.0016
v 0.04104 0.00217 0.0016
v 0.04203 0.00214 0.0016
v 0.04301 0.00233 0.0016
v 0.04393 0.00268 0.0016
v 0.04417 0.00221 0.0016
v 0.04509 0.00282 0.0016
v 0.04476 0.00323 0.0016
v 0.04548 0.00391 0.0016
v 0.04588 0.00356 0.0016
v 0.04649 0.00448 0.0016
v 0.04603 0.00474 0.0016
v 0.04644 0.00563 0.0016
v 0.04694 0.00547 0.0016
v 0.04716 0.00655 0.0016
v 0.04663 0.00661 0.0016
v 0.04666 0.00759 0.0016
v 0.04719 0.00764 0.0016
v 0.04698 0.00872 0.0016
v 0.04647 0.00857 0.0016
v 0.04613 0.00951 0.0016
v 0.04661 0.00975 0.0016
v 0.04598 0.01066 0.0016
v 0.04557 0.01033 0.0016
v 0.04488 0.01105 0.0016
v 0.04522 0.01146 0.0016
v 0.04432 0.01206 0.0016
v 0.04406 0.0116 0.0016
v 0.04326 0.01251 0.0016
v 0.04305 0.01203 0.0016
v 0.0423 0.01271 0.0016
v 0.04214 0.01221 0.0016
v 0.03923 0.003 0.02409
v 0.03741 0.00395 0.02409
v 0.03773 -0.00926 0.02185
v 0.03673 -0.0093 0.02185
v 0.03869 -0.00907 0.02185
v 0.03986 -0.00913 0.02185
v 0.03577 -0.0091 0.02185
v 0.0396 -0.00866 0.02185
v 0.04042 -0.00812 0.02185
v 0.03478 -0.00871 0.02185
v 0.04076 -0.00852 0.02185
v 0.04152 -0.00772 0.02185
v 0.04111 -0.00739 0.02185
v 0.04168 -0.00658 0.02185
v 0.04215 -0.00682 0.02185
v 0.04252 -0.00579 0.02185
v 0.04201 -0.00564 0.02185
v 0.0422 -0.00466 0.02185
v 0.04273 -0.0047 0.02185
v 0.0427 -0.00362 0.02185
v 0.04217 -0.00368 0.02185
v 0.04198 -0.0027 0.02185
v 0.04248 -0.00254 0.02185
v 0.04204 -0.00154 0.02185
v 0.04157 -0.0018 0.02185
v 0.04142 -0.00063 0.02186
v 0.04102 -0.00097 0.02184
v 0.0403 -0.0003 0.02185
v 0.04063 0.00012 0.02185
v 0.03972 0.00072 0.0218
v 0.03943 0.00028 0.02191
v 0.03874 0.00109 0.02174
v 0.03673 -0.0093 0.00817
v 0.03773 -0.00926 0.00817
v 0.03577 -0.0091 0.00817
v 0.03869 -0.00907 0.00817
v 0.03478 -0.00871 0.00817
v 0.03986 -0.00913 0.00817
v 0.0396 -0.00866 0.00817
v 0.04042 -0.00812 0.00817
v 0.04076 -0.00852 0.00817
v 0.04152 -0.00772 0.00817
v 0.04111 -0.00739 0.00817
v 0.04168 -0.00658 0.00817
v 0.04215 -0.00682 0.00817
v 0.04252 -0.00579 0.00817
v 0.04201 -0.00564 0.00817
v 0.0422 -0.00466 0.00817
v 0.04273 -0.0047 0.00817
v 0.0427 -0.00362 0.00817
v 0.04217 -0.00368 0.00817
v 0.04198 -0.0027 0.00817
v 0.04248 -0.00254 0.00817
v 0.04204 -0.00154 0.00817
v 0.04157 -0.0018 0.00817
v 0.04142 -0.00063 0.00816
v 0.04102 -0.00097 0.00818
v 0.0403 -0.0003 0.00817
v 0.04063 0.00012 0.00817
v 0.0397 0.00073 0.00822
v 0.03945 0.00027 0.00811
v 0.0387 0.00111 0.00828
v 0.03658 0.00129 0.02172
v 0.04315 0.00182 0.02409
v 0.04418 0.00222 0.02409
v 0.04509 0.00282 0.02409
v 0.04589 0.00357 0.02409
v 0.04649 0.00448 0.02409
v 0.04695 0.00548 0.02409
v 0.04716 0.00655 0.02409
v 0.04719 0.00765 0.02409
v 0.04698 0.00872 0.02409
v 0.04659 0.00975 0.02409
v 0.04598 0.01066 0.02409
v 0.04523 0.01146 0.02409
v 0.04432 0.01206 0.02409
v 0.04326 0.01251 0.02409
v 0.0423 0.01271 0.02409
v 0.03744 0.00393 0.00648
v 0.03661 0.00129 0.0083
v 0.04417 0.00221 0.00682
v 0.04509 0.00282 0.00694
v 0.04588 0.00356 0.00699
v 0.04649 0.00448 0.00699
v 0.04694 0.00547 0.00699
v 0.04716 0.00655 0.00694
v 0.04719 0.00764 0.00682
v 0.04698 0.00872 0.00668
v 0.04661 0.00975 0.00654
v 0.04598 0.01066 0.00643
v 0.04522 0.01146 0.00636
v 0.04432 0.01206 0.00634
v 0.04326 0.01251 0.00634
v 0.0423 0.01271 0.00634
v 0.03918 0.00301 0.00645
v 0.04214 0.01221 0.02409
v 0.04214 0.01221 0.00634
v 0.03769 0.00131 0.02173
v 0.04104 0.00217 0.00646
v 0.04002 0.00237 0.00646
v 0.03912 0.00278 0.00645
v 0.04203 0.00214 0.00656
v 0.03834 0.00338 0.00647
v 0.04301 0.00233 0.00671
v 0.04393 0.00268 0.00685
v 0.04476 0.00323 0.00695
v 0.04548 0.00391 0.00699
v 0.04603 0.00474 0.00699
v 0.04644 0.00563 0.00699
v 0.04663 0.00661 0.00695
v 0.04666 0.00759 0.00685
v 0.04647 0.00857 0.00671
v 0.04613 0.00951 0.00657
v 0.04557 0.01033 0.00646
v 0.04488 0.01105 0.00637
v 0.04406 0.0116 0.00634
v 0.04305 0.01203 0.00634
v 0.03916 0.00277 0.02409
v 0.04004 0.00237 0.02409
v 0.04104 0.00217 0.02409
v 0.03835 0.00338 0.02409
v 0.04204 0.00212 0.02409
v 0.04301 0.00233 0.02409
v 0.04394 0.00269 0.02409
v 0.04476 0.00323 0.02409
v 0.04548 0.00392 0.02409
v 0.04603 0.00474 0.02409
v 0.04644 0.00565 0.02409
v 0.04663 0.00661 0.02409
v 0.04666 0.00761 0.02409
v 0.04647 0.00857 0.02409
v 0.04611 0.00951 0.02409
v 0.04557 0.01033 0.02409
v 0.04488 0.01105 0.02409
v 0.04406 0.0116 0.02409
v 0.04305 0.01203 0.02409
v 0.03769 0.00131 0.00829
vt 0.456055 0.131592
vt 0.471191 0.131592
vt 0.471191 0.130371
vt 0.456055 0.132812
vt 0.456055 0.130371
vt 0.456055 0.12915
vt 0.471191 0.12915
vt 0.471191 0.132812
vt 0.456055 0.134033
vt 0.471191 0.134033
vt 0.456055 0.135254
vt 0.471191 0.135132
vt 0.471191 0.135742
vt 0.455811 0.135742
vt 0.77832 0.292725
vt 0.77832 0.289062
vt 0.776855 0.292725
vt 0.775879 0.288574
vt 0.775879 0.292969
vt 0.004658 0.142212
vt 0.0035 0.142212
vt 0.003529 0.1427
vt 0.00234 0.1427
vt 0.002346 0.142212
vt 0.004665 0.1427
vt 0.00581 0.1427
vt 0.005798 0.142212
vt 0.006992 0.142212
vt 0.007 0.1427
vt 0.008171 0.1427
vt 0.008171 0.142212
vt 0.009354 0.142212
vt 0.009354 0.1427
vt 0.010544 0.1427
vt 0.010536 0.142212
vt 0.011711 0.142212
vt 0.011703 0.1427
vt 0.012878 0.1427
vt 0.012894 0.142212
vt 0.014046 0.1427
vt 0.014053 0.142212
vt 0.015228 0.142212
vt 0.015228 0.1427
vt 0.016388 0.142212
vt 0.016388 0.1427
vt 0.017578 0.1427
vt 0.017563 0.142212
vt 0.018738 0.142212
vt 0.018738 0.1427
vt 0.019928 0.1427
vt 0.019928 0.142212
vt 0.021103 0.142212
vt 0.021103 0.1427
vt 0.022278 0.1427
vt 0.022278 0.142212
vt 0.023438 0.142212
vt 0.023438 0.1427
vt 0.024673 0.1427
vt 0.024704 0.142212
vt 0.025757 0.1427
vt 0.025757 0.142212
vt 0.092285 0.084839
vt 0.091187 0.084717
vt 0.092285 0.088257
vt 0.090027 0.084412
vt 0.090027 0.088623
vt 0.041718 0.092651
vt 0.042297 0.092651
vt 0.042297 0.087463
vt 0.041718 0.087158
vt 0.043488 0.092651
vt 0.043518 0.087463
vt 0.044678 0.092651
vt 0.044739 0.087463
vt 0.045868 0.092651
vt 0.045898 0.087341
vt 0.047119 0.092651
vt 0.047119 0.087219
vt 0.04834 0.092651
vt 0.04834 0.087097
vt 0.049561 0.092651
vt 0.049561 0.086975
vt 0.702637 0.392334
vt 0.702637 0.386963
vt 0.702148 0.386963
vt 0.702148 0.392334
vt 0.704102 0.392334
vt 0.704102 0.386963
vt 0.705078 0.392334
vt 0.705078 0.386963
vt 0.706543 0.392334
vt 0.706543 0.386963
vt 0.70752 0.392334
vt 0.70752 0.386963
vt 0.708984 0.392334
vt 0.708984 0.386963
vt 0.388916 0.005196
vt 0.388672 0.005795
vt 0.389893 0.005795
vt 0.389893 0.005196
vt 0.387695 0.005196
vt 0.387695 0.005795
vt 0.386475 0.005795
vt 0.386475 0.005196
vt 0.385254 0.005196
vt 0.385254 0.005795
vt 0.384277 0.005196
vt 0.384277 0.005795
vt 0.383057 0.005795
vt 0.383057 0.005196
vt 0.381836 0.005196
vt 0.381836 0.005795
vt 0.380859 0.005795
vt 0.380859 0.005196
vt 0.379639 0.005196
vt 0.379639 0.005795
vt 0.378418 0.005795
vt 0.378418 0.005196
vt 0.377441 0.005196
vt 0.377441 0.005795
vt 0.376221 0.005795
vt 0.376221 0.005196
vt 0.375 0.005196
vt 0.375 0.005795
vt 0.374023 0.005795
vt 0.374023 0.005196
vt 0.372803 0.005196
vt 0.372803 0.005795
vt 0.371582 0.005795
vt 0.371582 0.005196
vt 0.370361 0.005196
vt 0.370361 0.005795
vt 0.369385 0.005795
vt 0.369385 0.005196
vt 0.368164 0.005795
vt 0.36792 0.005196
vt 0.366943 0.005795
vt 0.366943 0.005196
vt 0.77832 0.28833
vt 0.775879 0.288086
vt 0.301758 0.003206
vt 0.301758 0.003809
vt 0.302979 0.003809
vt 0.300781 0.003809
vt 0.302979 0.003206
vt 0.300781 0.003206
vt 0.304199 0.003206
vt 0.299561 0.003206
vt 0.304199 0.003809
vt 0.299561 0.003809
vt 0.30542 0.003206
vt 0.29834 0.003809
vt 0.30542 0.003809
vt 0.306396 0.003206
vt 0.306396 0.003809
vt 0.29834 0.003206
vt 0.297119 0.003206
vt 0.297119 0.003809
vt 0.296143 0.003809
vt 0.296143 0.003206
vt 0.294922 0.003206
vt 0.294922 0.003809
vt 0.293701 0.003809
vt 0.293701 0.003206
vt 0.292725 0.003206
vt 0.292725 0.003809
vt 0.291504 0.003809
vt 0.291504 0.003206
vt 0.290283 0.003206
vt 0.290283 0.003809
vt 0.289062 0.003206
vt 0.289062 0.003809
vt 0.288086 0.003809
vt 0.288086 0.003206
vt 0.286865 0.003206
vt 0.286865 0.003809
vt 0.285889 0.003206
vt 0.285889 0.003809
vt 0.264648 0.00322
vt 0.263672 0.00322
vt 0.263672 0.003809
vt 0.262451 0.00322
vt 0.264648 0.003809
vt 0.262451 0.003809
vt 0.265869 0.003809
vt 0.26123 0.00322
vt 0.265869 0.00322
vt 0.26123 0.003809
vt 0.26001 0.00322
vt 0.26001 0.003809
vt 0.26709 0.00322
vt 0.26709 0.003809
vt 0.268311 0.003809
vt 0.268311 0.00322
vt 0.269531 0.00322
vt 0.269531 0.003809
vt 0.270508 0.003809
vt 0.270508 0.00322
vt 0.271729 0.00322
vt 0.271729 0.003809
vt 0.272949 0.003809
vt 0.272949 0.00322
vt 0.27417 0.00322
vt 0.27417 0.003809
vt 0.275391 0.003809
vt 0.275391 0.00322
vt 0.276367 0.00322
vt 0.276367 0.003809
vt 0.277588 0.00322
vt 0.277588 0.003809
vt 0.278809 0.003809
vt 0.278809 0.00322
vt 0.280029 0.00322
vt 0.280029 0.003809
vt 0.28125 0.003809
vt 0.28125 0.00322
vt 0.966309 0.384277
vt 0.966309 0.384033
vt 0.966309 0.388428
vt 0.966309 0.388916
vt 0.709961 0.392334
vt 0.709961 0.386719
vt 0.711426 0.392334
vt 0.711426 0.386475
vt 0.712402 0.392334
vt 0.712402 0.386475
vt 0.713867 0.392334
vt 0.713867 0.38623
vt 0.714844 0.392334
vt 0.714844 0.38623
vt 0.716309 0.392334
vt 0.716309 0.38623
vt 0.717285 0.386475
vt 0.717285 0.392334
vt 0.71875 0.386475
vt 0.71875 0.392334
vt 0.719727 0.386719
vt 0.719727 0.392334
vt 0.721191 0.386963
vt 0.721191 0.392334
vt 0.722168 0.386963
vt 0.722168 0.392334
vt 0.723633 0.386963
vt 0.723633 0.392334
vt 0.724609 0.392334
vt 0.724609 0.386963
vt 0.726074 0.392334
vt 0.726074 0.386963
vt 0.727051 0.392334
vt 0.727051 0.386963
vt 0.566895 0.009171
vt 0.567383 0.00882
vt 0.567383 0.00465
vt 0.566895 0.005013
vt 0.050781 0.092651
vt 0.050781 0.086792
vt 0.052032 0.092651
vt 0.052032 0.08667
vt 0.053253 0.092651
vt 0.053253 0.086609
vt 0.054474 0.092651
vt 0.054474 0.086609
vt 0.055695 0.092651
vt 0.055695 0.086609
vt 0.056915 0.08667
vt 0.056915 0.092651
vt 0.058136 0.086792
vt 0.058136 0.092651
vt 0.059387 0.086975
vt 0.059387 0.092651
vt 0.060608 0.087097
vt 0.060608 0.092651
vt 0.061829 0.087219
vt 0.061829 0.092651
vt 0.063049 0.087341
vt 0.063049 0.092651
vt 0.06427 0.092651
vt 0.06427 0.087341
vt 0.065552 0.092651
vt 0.065552 0.087341
vt 0.06665 0.092651
vt 0.06665 0.087341
vt 0.092285 0.088867
vt 0.090027 0.089233
vt 0.96875 0.38501
vt 0.96875 0.388672
vt 0.969238 0.388184
vt 0.969238 0.384766
vt 0.727539 0.386963
vt 0.727539 0.392334
vt 0.067261 0.087341
vt 0.067261 0.092651
vt 0.564453 0.00885
vt 0.564453 0.005455
vt 0.563965 0.00856
vt 0.563965 0.005157
vt 0.456055 0.12793
vt 0.471191 0.12793
vt 0.456055 0.126709
vt 0.471191 0.126709
vt 0.456055 0.125488
vt 0.471191 0.125488
vt 0.471191 0.124207
vt 0.456055 0.124268
vt 0.456055 0.123047
vt 0.471191 0.122986
vt 0.456055 0.121826
vt 0.471191 0.121765
vt 0.471191 0.120544
vt 0.456055 0.120605
vt 0.471191 0.119324
vt 0.456055 0.119385
vt 0.456055 0.118164
vt 0.471191 0.118103
vt 0.456055 0.116882
vt 0.471191 0.116882
vt 0.456055 0.115662
vt 0.471191 0.115662
vt 0.471191 0.11438
vt 0.456055 0.114441
vt 0.456055 0.113281
vt 0.471191 0.11322
vt 0.456055 0.112122
vt 0.975586 0.17041
vt 0.974121 0.17041
vt 0.974121 0.171021
vt 0.973145 0.171021
vt 0.975586 0.171021
vt 0.973145 0.17041
vt 0.976562 0.171021
vt 0.972168 0.171021
vt 0.976562 0.17041
vt 0.972168 0.17041
vt 0.970703 0.171021
vt 0.970703 0.17041
vt 0.978027 0.17041
vt 0.978027 0.171021
vt 0.979004 0.171021
vt 0.979004 0.17041
vt 0.980469 0.17041
vt 0.980469 0.171021
vt 0.981445 0.171021
vt 0.981445 0.17041
vt 0.982422 0.171021
vt 0.982422 0.17041
vt 0.983887 0.17041
vt 0.983887 0.171021
vt 0.984863 0.17041
vt 0.984863 0.171021
vt 0.986328 0.171021
vt 0.986328 0.17041
vt 0.987305 0.17041
vt 0.987305 0.171021
vt 0.988281 0.171021
vt 0.988281 0.17041
vt 0.989746 0.17041
vt 0.989746 0.171021
vt 0.990723 0.171021
vt 0.990723 0.17041
vt 0.992188 0.17041
vt 0.992188 0.171021
vt 0.993164 0.171021
vt 0.993164 0.17041
vt 0.994141 0.171021
vt 0.994141 0.17041
vt 0.586914 0.005295
vt 0.587891 0.005295
vt 0.587891 0.004696
vt 0.588867 0.005295
vt 0.586914 0.004696
vt 0.588867 0.004696
vt 0.585938 0.005295
vt 0.589844 0.005295
vt 0.589844 0.004696
vt 0.591309 0.004696
vt 0.591309 0.005295
vt 0.592285 0.005295
vt 0.592285 0.004696
vt 0.59375 0.004696
vt 0.59375 0.005295
vt 0.594727 0.005295
vt 0.594727 0.004696
vt 0.595703 0.004696
vt 0.595703 0.005295
vt 0.597168 0.005295
vt 0.597168 0.004696
vt 0.598145 0.004696
vt 0.598145 0.005295
vt 0.599609 0.005295
vt 0.599609 0.004696
vt 0.600586 0.004696
vt 0.600586 0.005295
vt 0.601562 0.005295
vt 0.602051 0.004696
vt 0.603027 0.004696
vt 0.603027 0.005295
vt 0.604004 0.005295
vt 0.604004 0.004696
vt 0.605469 0.004696
vt 0.605469 0.005295
vt 0.606445 0.004696
vt 0.606445 0.005295
vt 0.60791 0.004696
vt 0.60791 0.005295
vt 0.585938 0.004696
vt 0.584961 0.004696
vt 0.584961 0.005295
vt 0.471191 0.112061
vt 0.456055 0.11084
vt 0.471191 0.11084
vt 0.455811 0.110291
vt 0.471191 0.110291
vt 0.56543 0.005352
vt 0.967773 0.384766
vn -0.0823 -0.9966 0
vn 0.1124 -0.9937 0
vn -0.2872 -0.9579 0
vn 0.3048 -0.9524 0
vn -0.4582 -0.8888 0
vn -0.8543 -0.5198 0
vn -0.8894 0.4572 -0.0013
vn -0.1351 -0.7278 0.6723
vn -0.1218 -0.631 0.7661
vn -0.3169 -0.616 0.7211
vn -0.274 -0.6229 0.7328
vn 0.0366 -0.6241 0.7805
vn -0.0211 0.005 0.9998
vn 0 -0.001 1
vn -0.017 0.009 0.9998
vn -0.0542 -0.0135 0.9984
vn -0.0628 -0.0094 0.998
vn -0.079 -0.0472 0.9958
vn -0.0766 -0.0471 0.9959
vn -0.1175 -0.0703 0.9906
vn -0.1228 -0.073 0.9897
vn -0.1113 -0.0846 0.9902
vn -0.109 -0.087 0.9902
vn -0.089 -0.0855 0.9924
vn -0.0869 -0.0903 0.9921
vn -0.0496 -0.0572 0.9971
vn -0.0497 -0.0595 0.997
vn -0.0121 -0.0171 0.9998
vn 0.005 0.019 0.9998
vn 0.007 0.0191 0.9998
vn 0.0246 0.0716 0.9971
vn 0.0279 0.1217 0.9922
vn 0.0302 0.1219 0.9921
vn 0.0145 0.1398 0.9901
vn 0.0168 0.1376 0.9903
vn -0.0033 0.1383 0.9904
vn -0.0056 0.1411 0.99
vn -0.0119 0.103 0.9946
vn -0.0075 0.1002 0.9949
vn -0.0157 0.0576 0.9982
vn -0.0222 0.0624 0.9978
vn -0.005 0.0089 0.9999
vn -0.0049 0.003 1
vn -0.1254 -0.6703 -0.7315
vn 0.0277 -0.5637 -0.8255
vn -0.2369 -0.5719 -0.7854
vn -0.1174 -0.574 -0.8104
vn -0.279 -0.5691 -0.7735
vn -0.7652 0.6438 -0.0014
vn -0.9305 -0.3664 0
vn -0.9655 -0.2606 0.0024
vn -0.7652 0.6438 0.0014
vn -0.6446 -0.7645 0
vn -0.64 -0.7683 0.0028
vn -0.5068 -0.8621 0.0027
vn -0.5005 -0.8658 0.0027
vn -0.3048 -0.9524 0
vn -0.2989 -0.9543 0
vn -0.1196 -0.9928 0
vn -0.1124 -0.9937 0
vn 0.0845 -0.9964 0
vn 0.0937 -0.9956 0
vn 0.2757 -0.9612 0
vn 0.2814 -0.9596 0
vn -0.9213 -0.3888 0.0026
vn -0.9322 -0.362 -0.0051
vn -0.7704 0.6376 -0.0069
vn -0.8485 0.5291 0.0068
vn -0.5056 -0.8628 0
vn -0.3018 -0.9534 0
vn -0.1293 -0.9916 0
vn -0.1244 -0.9922 0
vn 0 -0.001 -1
vn 0.002 -0.0049 1
vn -0.0039 -0.0049 1
vn -0.0182 -0.0172 0.9997
vn -0.0287 -0.0215 0.9994
vn 0.003 0.0293 0.9996
vn -0.0234 0.0194 0.9995
vn 0.0677 0.1627 0.9844
vn 0.1152 0.2089 0.9711
vn 0.1373 0.314 0.9394
vn 0.1828 0.3472 0.9198
vn 0.002 -0.0049 -1
vn -0.0039 -0.0049 -1
vn -0.0202 -0.0152 -0.9997
vn -0.0288 -0.0236 -0.9993
vn 0.003 0.0293 -0.9996
vn -0.0234 0.0194 -0.9995
vn 0.108 0.1849 -0.9768
vn 0.1472 0.1649 -0.9753
vn 0.1035 0.3346 -0.9367
vn 0.0945 0.3902 -0.9159
vn -0.9794 0.1569 0.1272
vn -0.9796 0.1495 0.1346
vn -0.951 0.3087 -0.0187
vn -0.945 0.3252 -0.0344
vn 0.2872 -0.9579 0
vn 0.2931 -0.9561 0
vn 0.4582 -0.8888 0
vn 0.4677 -0.8839 0
vn 0.6237 -0.7817 0
vn 0.6267 -0.7793 0
vn 0.7632 -0.6461 0
vn 0.8762 -0.4819 0
vn 0.952 -0.3062 0
vn 0.9932 -0.116 0
vn 0.9935 -0.1136 0
vn 0.9974 0.0722 0.001
vn 0.9967 0.0812 -0.0011
vn 0.9632 0.2688 -0.0012
vn 0.9616 0.2746 -0.0012
vn 0.8942 0.4477 -0.0013
vn 0.8894 0.4572 -0.0013
vn 0.7847 0.6198 -0.0014
vn 0.7823 0.6228 0.0014
vn 0.6498 0.7601 -0.0014
vn 0.6468 0.7627 -0.0014
vn 0.4698 0.8828 -0.0013
vn 0.3066 0.9518 -0.0012
vn -0.2518 0.9678 -0.0012
vn -0.9244 0.3499 0.152
vn -0.9129 0.3643 0.1843
vn -0.9614 0.2734 -0.0309
vn -0.9641 0.2577 -0.0641
vn 0.6207 -0.7841 0
vn 0.8745 -0.4851 0
vn 0.9974 0.0722 -0.001
vn 0.9967 0.0812 0.0011
vn 0.9663 0.2574 0.0012
vn 0.9648 0.2631 0.0012
vn 0.8942 0.4477 0.0013
vn 0.7799 0.6259 0.0014
vn 0.7775 0.6289 0.0014
vn 0.6498 0.7601 0.0014
vn 0.473 0.8811 -0.0013
vn 0.1983 0.3777 -0.9045
vn 0.1976 0.3708 -0.9074
vn 0.2034 0.3994 -0.8939
vn 0.2039 0.4064 -0.8906
vn 0.6297 0.5216 -0.5757
vn 0.8074 0.3629 -0.4652
vn 0.9659 -0.2589 0.0072
vn 0.9037 -0.4142 0.1088
vn -0.9528 0.3037 0.0012
vn 0.8602 0.2214 0.4595
vn 0.6446 0.4214 0.6379
vn 0.9822 -0.1544 0.107
vn 0.9515 -0.3077 -0.0049
vn 0.4867 -0.8736 0
vn 0.6446 -0.7645 0
vn 0.7756 -0.6312 0
vn 0.8896 -0.4567 0
vn 0.9641 -0.2657 0
vn 0.9965 -0.0834 0
vn 0.9938 0.1114 -0.0011
vn 0.9528 0.3037 -0.0012
vn 0.8742 0.4856 -0.0013
vn 0.7627 0.6468 -0.0014
vn 0.7652 0.6438 -0.0014
vn 0.6228 0.7823 -0.0014
vn 0.6198 0.7847 -0.0014
vn 0.4635 0.8861 0.0013
vn 0.4604 0.8877 -0.0013
vn 0.2803 0.9599 0.0012
vn 0.0926 0.9957 0.0011
vn -0.0999 -0.0693 0.9926
vn -0.1189 -0.239 0.9637
vn -0.1203 -0.1867 0.975
vn -0.21 -0.3164 0.9251
vn -0.1074 -0.0436 0.9933
vn -0.2162 -0.3444 0.9136
vn -0.12 -0.0464 0.9917
vn -0.2808 -0.3295 0.9014
vn -0.1264 -0.0373 0.9913
vn -0.2852 -0.3372 0.8972
vn -0.3083 -0.3307 0.8919
vn -0.3118 -0.3313 0.8905
vn -0.1108 -0.0797 0.9906
vn -0.1039 -0.0866 0.9908
vn -0.0867 -0.0878 0.9924
vn -0.012 -0.0151 0.9998
vn -0.0033 0.1433 0.9897
vn -0.0119 0.1007 0.9948
vn -0.0049 0.0069 1
vn 0.0858 0.9963 0.0011
vn -0.5078 0.8615 -0.0013
vn -0.5015 0.8652 0.0013
vn -0.9963 0.0859 -0.0032
vn -0.9751 0.2218 0.0035
vn 0.1253 0.5736 0.8095
vn 0.2594 0.5676 0.7814
vn -0.0068 0.57 0.8216
vn 0.3056 0.5649 0.7665
vn 0.1431 0.6675 0.7308
vn -0.0014 0.6674 -0.7447
vn 0.2908 0.657 -0.6956
vn 0.1366 0.6682 -0.7313
vn 0.1592 0.7505 -0.6414
vn 0.334 0.65 -0.6826
o bullet_scaffold08__p1_c0
f 1/1/1 2/2/1 3/3/2
f 2/2/1 1/1/1 4/4/3
f 1/1/1 3/3/2 5/5/2
f 5/5/2 3/3/2 6/6/4
f 6/6/4 3/3/2 7/7/4
f 2/2/1 4/4/3 8/8/3
f 8/8/3 4/4/3 9/9/5
f 8/8/3 9/9/5 10/10/5
f 10/10/5 9/9/5 11/11/6
f 10/10/5 11/11/6 12/12/6
f 12/12/6 11/11/6 13/13/7
f 13/13/7 11/11/6 14/14/7
f 15/15/8 16/16/8 17/17/8
f 17/17/9 16/16/10 18/18/11
f 17/17/9 18/18/11 19/19/12
f 20/20/13 21/21/14 22/22/14
f 22/22/14 21/21/14 23/23/14
f 23/23/14 21/21/14 24/24/14
f 20/20/13 22/22/14 25/25/15
f 20/20/13 25/25/15 26/26/16
f 20/20/13 26/26/16 27/27/17
f 27/27/17 26/26/16 28/28/18
f 28/28/18 26/26/16 29/29/19
f 28/28/18 29/29/19 30/30/20
f 28/28/18 30/30/20 31/31/21
f 31/31/21 30/30/20 32/32/22
f 32/32/22 30/30/20 33/33/23
f 32/32/22 33/33/23 34/34/24
f 32/32/22 34/34/24 35/35/25
f 35/35/25 34/34/24 36/36/26
f 36/36/26 34/34/24 37/37/27
f 36/36/26 37/37/27 38/38/28
f 36/36/26 38/38/28 39/39/28
f 39/39/28 38/38/28 40/40/14
f 39/39/28 40/40/14 41/41/14
f 41/41/14 40/40/14 42/42/29
f 42/42/29 40/40/14 43/43/30
f 42/42/29 43/43/30 44/44/31
f 44/44/31 43/43/30 45/45/31
f 44/44/31 45/45/31 46/46/32
f 44/44/31 46/46/32 47/47/33
f 47/47/33 46/46/32 48/48/34
f 48/48/34 46/46/32 49/49/35
f 48/48/34 49/49/35 50/50/36
f 48/48/34 50/50/36 51/51/37
f 51/51/37 50/50/36 52/52/38
f 52/52/38 50/50/36 53/53/39
f 52/52/38 53/53/39 54/54/40
f 52/52/38 54/54/40 55/55/41
f 55/55/41 54/54/40 56/56/42
f 56/56/42 54/54/40 57/57/43
f 56/56/42 57/57/43 58/58/14
f 56/56/42 58/58/14 59/59/14
f 59/59/14 58/58/14 60/60/14
f 59/59/14 60/60/14 61/61/14
f 62/62/44 63/63/44 64/64/44
f 65/65/45 66/66/46 63/63/47
f 63/63/47 66/66/46 64/64/48
f 67/67/49 68/68/50 69/69/51
f 67/67/49 69/69/51 70/70/52
f 69/69/51 68/68/50 71/71/53
f 69/69/51 71/71/53 72/72/54
f 72/72/54 71/71/53 73/73/55
f 72/72/54 73/73/55 74/74/56
f 74/74/56 73/73/55 75/75/57
f 74/74/56 75/75/57 76/76/58
f 76/76/58 75/75/57 77/77/59
f 76/76/58 77/77/59 78/78/60
f 78/78/60 77/77/59 79/79/61
f 78/78/60 79/79/61 80/80/62
f 80/80/62 79/79/61 81/81/63
f 80/80/62 81/81/63 82/82/64
f 83/83/65 23/84/66 24/85/67
f 83/83/65 24/85/67 84/86/68
f 23/84/66 83/83/65 85/87/53
f 23/84/66 85/87/53 22/88/53
f 22/88/53 85/87/53 86/89/69
f 22/88/53 86/89/69 25/90/69
f 25/90/69 86/89/69 87/91/57
f 25/90/69 87/91/57 26/92/70
f 26/92/70 87/91/57 88/93/71
f 26/92/70 88/93/71 29/94/72
f 29/94/72 88/93/71 89/95/61
f 29/94/72 89/95/61 30/96/62
f 90/97/73 71/98/73 68/99/73
f 90/97/73 68/99/73 67/100/73
f 71/98/73 90/97/73 91/101/73
f 71/98/73 91/101/73 73/102/73
f 73/102/73 91/101/73 75/103/73
f 75/103/73 91/101/73 92/104/73
f 75/103/73 92/104/73 93/105/73
f 75/103/73 93/105/73 77/106/73
f 77/106/73 93/105/73 94/107/73
f 77/106/73 94/107/73 79/108/73
f 79/108/73 94/107/73 81/109/73
f 81/109/73 94/107/73 95/110/73
f 81/109/73 95/110/73 96/111/73
f 81/109/73 96/111/73 97/112/73
f 97/112/73 96/111/73 98/113/73
f 98/113/73 96/111/73 99/114/73
f 98/113/73 99/114/73 100/115/73
f 98/113/73 100/115/73 101/116/73
f 101/116/73 100/115/73 102/117/73
f 102/117/73 100/115/73 103/118/73
f 102/117/73 103/118/73 104/119/73
f 102/117/73 104/119/73 105/120/73
f 105/120/73 104/119/73 106/121/73
f 106/121/73 104/119/73 107/122/73
f 106/121/73 107/122/73 108/123/73
f 106/121/73 108/123/73 109/124/73
f 109/124/73 108/123/73 110/125/73
f 110/125/73 108/123/73 111/126/73
f 110/125/73 111/126/73 112/127/73
f 110/125/73 112/127/73 113/128/73
f 113/128/73 112/127/73 114/129/73
f 114/129/73 112/127/73 115/130/73
f 114/129/73 115/130/73 116/131/73
f 114/129/73 116/131/73 117/132/73
f 117/132/73 116/131/73 118/133/73
f 118/133/73 116/131/73 119/134/73
f 118/133/73 119/134/73 120/135/73
f 120/135/73 119/134/73 121/136/73
f 120/135/73 121/136/73 122/137/73
f 122/137/73 121/136/73 123/138/73
f 18/18/14 16/16/14 124/139/14
f 18/18/14 124/139/14 125/140/14
f 5/141/14 126/142/14 127/143/14
f 126/142/14 5/141/14 128/144/14
f 5/141/14 127/143/14 1/145/14
f 128/144/14 5/141/14 6/146/14
f 1/145/14 127/143/14 4/147/14
f 128/144/14 6/146/14 129/148/14
f 4/147/14 127/143/14 130/149/14
f 128/144/14 129/148/14 131/150/14
f 4/147/14 130/149/14 9/151/14
f 131/150/14 129/148/14 132/152/14
f 9/151/14 130/149/14 133/153/14
f 9/151/14 133/153/14 11/154/14
f 11/154/14 133/153/14 14/155/14
f 132/152/14 129/148/14 134/156/14
f 132/152/14 134/156/14 135/157/14
f 132/152/14 135/157/14 136/158/14
f 136/158/14 135/157/14 137/159/14
f 137/159/14 135/157/14 138/160/14
f 137/159/14 138/160/14 139/161/14
f 137/159/14 139/161/14 140/162/14
f 140/162/14 139/161/14 141/163/14
f 141/163/14 139/161/14 142/164/14
f 141/163/14 142/164/14 143/165/14
f 141/163/14 143/165/14 144/166/14
f 144/166/14 143/165/14 145/167/14
f 145/167/14 143/165/14 146/168/14
f 145/167/14 146/168/14 147/169/74
f 145/167/14 147/169/74 148/170/75
f 148/170/75 147/169/74 149/171/76
f 148/170/75 149/171/76 150/172/77
f 150/172/77 149/171/76 151/173/78
f 151/173/78 149/171/76 152/174/79
f 151/173/78 152/174/79 153/175/80
f 151/173/78 153/175/80 154/176/81
f 154/176/81 153/175/80 155/177/82
f 154/176/81 155/177/82 15/178/83
f 3/179/73 2/180/73 156/181/73
f 156/181/73 2/180/73 8/182/73
f 3/179/73 156/181/73 157/183/73
f 156/181/73 8/182/73 158/184/73
f 3/179/73 157/183/73 159/185/73
f 158/184/73 8/182/73 10/186/73
f 3/179/73 159/185/73 7/187/73
f 158/184/73 10/186/73 160/188/73
f 160/188/73 10/186/73 12/189/73
f 160/188/73 12/189/73 13/190/73
f 7/187/73 159/185/73 161/191/73
f 161/191/73 159/185/73 162/192/73
f 161/191/73 162/192/73 163/193/73
f 161/191/73 163/193/73 164/194/73
f 164/194/73 163/193/73 165/195/73
f 165/195/73 163/193/73 166/196/73
f 165/195/73 166/196/73 167/197/73
f 165/195/73 167/197/73 168/198/73
f 168/198/73 167/197/73 169/199/73
f 169/199/73 167/197/73 170/200/73
f 169/199/73 170/200/73 171/201/73
f 169/199/73 171/201/73 172/202/73
f 172/202/73 171/201/73 173/203/73
f 173/203/73 171/201/73 174/204/73
f 173/203/73 174/204/73 175/205/73
f 173/203/73 175/205/73 176/206/73
f 176/206/73 175/205/73 177/207/84
f 177/207/84 175/205/73 178/208/85
f 177/207/84 178/208/85 179/209/86
f 179/209/86 178/208/85 180/210/87
f 179/209/86 180/210/87 181/211/88
f 179/209/86 181/211/88 182/212/89
f 182/212/89 181/211/88 183/213/90
f 183/213/90 181/211/88 184/214/91
f 183/213/90 184/214/91 62/215/92
f 183/213/90 62/215/92 185/216/93
f 186/217/94 19/218/95 18/219/96
f 186/217/94 18/219/96 125/220/97
f 30/96/62 89/95/61 187/221/98
f 30/96/62 187/221/98 33/222/99
f 33/222/99 187/221/98 188/223/100
f 33/222/99 188/223/100 34/224/101
f 34/224/101 188/223/100 189/225/102
f 34/224/101 189/225/102 37/226/103
f 37/226/103 189/225/102 190/227/104
f 37/226/103 190/227/104 38/228/104
f 38/228/104 190/227/104 191/229/105
f 38/228/104 191/229/105 40/230/105
f 40/230/105 191/229/105 192/231/106
f 40/230/105 192/231/106 43/232/106
f 43/232/106 192/231/106 45/233/107
f 45/233/107 192/231/106 193/234/108
f 45/233/107 193/234/108 46/235/109
f 46/235/109 193/234/108 194/236/110
f 46/235/109 194/236/110 49/237/111
f 49/237/111 194/236/110 195/238/112
f 49/237/111 195/238/112 50/239/113
f 50/239/113 195/238/112 196/240/114
f 50/239/113 196/240/114 53/241/115
f 53/241/115 196/240/114 197/242/116
f 53/241/115 197/242/116 54/243/117
f 54/243/117 197/242/116 198/244/118
f 54/243/117 198/244/118 199/245/119
f 54/243/117 199/245/119 57/246/119
f 57/246/119 199/245/119 200/247/120
f 57/246/119 200/247/120 58/248/120
f 58/248/120 200/247/120 201/249/121
f 58/248/120 201/249/121 60/250/121
f 202/251/122 66/252/123 65/253/124
f 202/251/122 65/253/124 203/254/125
f 82/82/64 81/81/63 97/255/100
f 82/82/64 97/255/100 204/256/101
f 204/256/101 97/255/100 98/257/126
f 204/256/101 98/257/126 205/258/102
f 205/258/102 98/257/126 101/259/104
f 205/258/102 101/259/104 206/260/104
f 206/260/104 101/259/104 102/261/127
f 206/260/104 102/261/127 207/262/127
f 207/262/127 102/261/127 105/263/106
f 207/262/127 105/263/106 208/264/106
f 208/264/106 105/263/106 209/265/107
f 209/265/107 105/263/106 106/266/108
f 209/265/107 106/266/108 210/267/128
f 210/267/128 106/266/108 109/268/129
f 210/267/128 109/268/129 211/269/130
f 211/269/130 109/268/129 110/270/131
f 211/269/130 110/270/131 212/271/132
f 212/271/132 110/270/131 113/272/114
f 212/271/132 113/272/114 213/273/133
f 213/273/133 113/272/114 114/274/134
f 213/273/133 114/274/134 214/275/135
f 214/275/135 114/274/134 117/276/118
f 214/275/135 117/276/118 118/277/136
f 214/275/135 118/277/136 215/278/136
f 215/278/136 118/277/136 120/279/120
f 215/278/136 120/279/120 216/280/120
f 216/280/120 120/279/120 122/281/121
f 216/280/120 122/281/121 217/282/121
f 218/283/137 64/64/138 66/66/139
f 218/283/137 66/66/139 202/284/140
f 155/285/141 124/286/142 16/287/143
f 155/285/141 16/287/143 15/288/144
f 60/250/121 201/249/121 61/289/145
f 61/289/145 201/249/121 219/290/145
f 217/282/121 122/281/121 220/291/145
f 220/291/145 122/281/121 123/292/145
f 218/293/146 185/294/147 64/295/148
f 64/295/148 185/294/147 62/296/149
f 6/6/4 7/7/4 129/297/150
f 129/297/150 7/7/4 161/298/150
f 129/297/150 161/298/150 134/299/151
f 134/299/151 161/298/150 164/300/151
f 134/299/151 164/300/151 135/301/152
f 135/301/152 164/300/151 165/302/152
f 135/301/152 165/302/152 168/303/153
f 135/301/152 168/303/153 138/304/153
f 138/304/153 168/303/153 139/305/154
f 139/305/154 168/303/153 169/306/154
f 139/305/154 169/306/154 142/307/155
f 142/307/155 169/306/154 172/308/155
f 142/307/155 172/308/155 173/309/156
f 142/307/155 173/309/156 143/310/156
f 143/310/156 173/309/156 176/311/157
f 143/310/156 176/311/157 146/312/157
f 146/312/157 176/311/157 147/313/158
f 147/313/158 176/311/157 177/314/158
f 147/313/158 177/314/158 149/315/159
f 149/315/159 177/314/158 179/316/160
f 149/315/159 179/316/160 152/317/161
f 152/317/161 179/316/160 182/318/162
f 152/317/161 182/318/162 183/319/163
f 152/317/161 183/319/163 153/320/164
f 153/320/164 183/319/163 155/321/165
f 155/321/165 183/319/163 185/322/165
f 155/321/165 185/322/165 221/323/166
f 222/324/167 223/325/168 76/326/169
f 76/326/169 223/325/168 74/327/170
f 222/324/167 76/326/169 78/328/171
f 74/327/170 223/325/168 224/329/172
f 222/324/167 78/328/171 80/330/173
f 74/327/170 224/329/172 72/331/174
f 222/324/167 80/330/173 225/332/175
f 72/331/174 224/329/172 226/333/176
f 72/331/174 226/333/176 69/334/177
f 69/334/177 226/333/176 70/335/178
f 225/332/175 80/330/173 227/336/179
f 227/336/179 80/330/173 82/337/180
f 227/336/179 82/337/180 204/338/181
f 227/336/179 204/338/181 228/339/25
f 228/339/25 204/338/181 229/340/26
f 229/340/26 204/338/181 205/341/27
f 229/340/26 205/341/27 206/342/28
f 229/340/26 206/342/28 230/343/182
f 230/343/182 206/342/28 207/344/14
f 230/343/182 207/344/14 231/345/14
f 231/345/14 207/344/14 232/346/30
f 232/346/30 207/344/14 208/347/30
f 232/346/30 208/347/30 233/348/31
f 233/348/31 208/347/30 209/349/31
f 233/348/31 209/349/31 210/350/32
f 233/348/31 210/350/32 234/351/33
f 234/351/33 210/350/32 235/352/34
f 235/352/34 210/350/32 211/353/35
f 235/352/34 211/353/35 212/354/36
f 235/352/34 212/354/36 236/355/183
f 236/355/183 212/354/36 237/356/184
f 237/356/184 212/354/36 213/357/39
f 237/356/184 213/357/39 214/358/40
f 237/356/184 214/358/40 238/359/41
f 238/359/41 214/358/40 239/360/185
f 239/360/185 214/358/40 215/361/43
f 239/360/185 215/361/43 216/362/14
f 239/360/185 216/362/14 240/363/14
f 240/363/14 216/362/14 217/364/14
f 240/363/14 217/364/14 220/365/14
f 241/366/73 242/367/73 87/368/73
f 87/368/73 242/367/73 243/369/73
f 241/366/73 87/368/73 86/370/73
f 87/368/73 243/369/73 88/371/73
f 241/366/73 86/370/73 244/372/73
f 88/371/73 243/369/73 245/373/73
f 88/371/73 245/373/73 89/374/73
f 89/374/73 245/373/73 187/375/73
f 187/375/73 245/373/73 246/376/73
f 187/375/73 246/376/73 247/377/73
f 187/375/73 247/377/73 188/378/73
f 188/378/73 247/377/73 189/379/73
f 189/379/73 247/377/73 248/380/73
f 189/379/73 248/380/73 249/381/73
f 189/379/73 249/381/73 190/382/73
f 190/382/73 249/381/73 191/383/73
f 191/383/73 249/381/73 250/384/73
f 191/383/73 250/384/73 251/385/73
f 191/383/73 251/385/73 192/386/73
f 192/386/73 251/385/73 193/387/73
f 193/387/73 251/385/73 252/388/73
f 193/387/73 252/388/73 253/389/73
f 193/387/73 253/389/73 194/390/73
f 194/390/73 253/389/73 195/391/73
f 195/391/73 253/389/73 254/392/73
f 195/391/73 254/392/73 255/393/73
f 195/391/73 255/393/73 196/394/73
f 196/394/73 255/393/73 197/395/73
f 197/395/73 255/393/73 256/396/73
f 197/395/73 256/396/73 257/397/73
f 197/395/73 257/397/73 198/398/73
f 198/398/73 257/397/73 199/399/73
f 199/399/73 257/397/73 258/400/73
f 199/399/73 258/400/73 200/401/73
f 200/401/73 258/400/73 259/402/73
f 200/401/73 259/402/73 201/403/73
f 201/403/73 259/402/73 219/404/73
f 85/405/73 83/406/73 86/370/73
f 86/370/73 83/406/73 244/372/73
f 244/372/73 83/406/73 84/407/73
f 221/323/166 185/322/165 260/408/186
f 221/323/166 260/408/186 186/409/187
f 186/409/187 260/408/186 203/410/188
f 186/409/187 203/410/188 19/411/189
f 19/411/189 203/410/188 65/412/190
f 260/413/191 202/251/192 203/254/193
f 260/413/191 218/293/194 202/251/192
f 260/413/195 185/294/147 218/293/146
f 186/217/196 125/220/197 221/414/198
f 155/285/141 221/414/199 124/286/142
f 221/414/198 125/220/197 124/286/200
