# CS2 body mesh, tools/cs2_glb_to_obj.py
v 0.04531 -0.04511 0.00817
v 0.04531 -0.04511 0.02185
v 0.04429 -0.0452 0.02185
v 0.04429 -0.0452 0.00817
v 0.04419 -0.04469 0.00817
v 0.04419 -0.04469 0.02185
v 0.03961 -0.03353 0.02409
v 0.03958 -0.03353 0.02884
v 0.03948 -0.03302 0.02884
v 0.03944 -0.03303 0.02409
v 0.04066 -0.03339 0.02409
v 0.04064 -0.03339 0.02884
v 0.03948 -0.03302 0.0016
v 0.03958 -0.03353 0.0016
v 0.03958 -0.03353 0.00621
v 0.03948 -0.03302 0.00648
v 0.04064 -0.03339 0.0016
v 0.04066 -0.03338 0.00622
v 0.04148 -0.0354 0.02197
v 0.04167 -0.03313 0.02409
v 0.03961 -0.03352 0.02409
v 0.04235 -0.03496 0.02196
v 0.04149 -0.03541 0.00804
v 0.03957 -0.03353 0.00621
v 0.0417 -0.0331 0.00623
v 0.04239 -0.03496 0.00805
v 0.04071 -0.03606 0.02199
v 0.04067 -0.03608 0.00803
v 0.04042 -0.03563 0.02172
v 0.03944 -0.03302 0.02409
v 0.04045 -0.03561 0.0083
v 0.04146 -0.03265 0.02884
v 0.04049 -0.03289 0.02884
v 0.04166 -0.03314 0.02884
v 0.04262 -0.03265 0.02888
v 0.04233 -0.03222 0.0289
v 0.04311 -0.03157 0.02895
v 0.04348 -0.03194 0.02892
v 0.04422 -0.03113 0.02904
v 0.04377 -0.03083 0.02907
v 0.04422 -0.02994 0.02921
v 0.04471 -0.03015 0.02918
v 0.04505 -0.0291 0.02932
v 0.04453 -0.02899 0.02934
v 0.04462 -0.02801 0.02945
v 0.04515 -0.02802 0.02944
v 0.04507 -0.02692 0.02949
v 0.04455 -0.02702 0.02949
v 0.04475 -0.02588 0.02949
v 0.04425 -0.02608 0.02949
v 0.0438 -0.02518 0.02949
v 0.04425 -0.02489 0.02949
v 0.04317 -0.02443 0.02945
v 0.04355 -0.02406 0.02944
v 0.04272 -0.02334 0.02932
v 0.04242 -0.02378 0.02934
v 0.04155 -0.02332 0.02921
v 0.04175 -0.02283 0.02918
v 0.04071 -0.02249 0.02904
v 0.0406 -0.02301 0.02907
v 0.03962 -0.02292 0.02895
v 0.03962 -0.02239 0.02892
v 0.03852 -0.02247 0.02885
v 0.03862 -0.02299 0.02887
v 0.03768 -0.02329 0.02884
v 0.03748 -0.02279 0.02884
v 0.03647 -0.02334 0.02884
v 0.03671 -0.0238 0.02884
v 0.03571 -0.02396 0.02884
v 0.03599 -0.02439 0.02884
v 0.04049 -0.03289 0.0016
v 0.04146 -0.03265 0.0016
v 0.04166 -0.03314 0.0016
v 0.04262 -0.03265 0.0016
v 0.04233 -0.03222 0.0016
v 0.04311 -0.03157 0.0016
v 0.04348 -0.03194 0.0016
v 0.04376 -0.03082 0.0016
v 0.04419 -0.03112 0.0016
v 0.04471 -0.03015 0.0016
v 0.04422 -0.02994 0.0016
v 0.04453 -0.029 0.0016
v 0.04505 -0.02911 0.0016
v 0.04515 -0.02802 0.0016
v 0.04462 -0.02801 0.0016
v 0.04455 -0.02703 0.0016
v 0.04507 -0.02693 0.0016
v 0.04475 -0.02588 0.0016
v 0.04425 -0.02608 0.0016
v 0.04381 -0.02519 0.0016
v 0.04426 -0.0249 0.0016
v 0.04355 -0.02406 0.0016
v 0.04317 -0.02443 0.0016
v 0.04243 -0.02379 0.0016
v 0.04273 -0.02335 0.0016
v 0.04175 -0.02283 0.0016
v 0.04155 -0.02332 0.0016
v 0.04061 -0.02299 0.0016
v 0.04072 -0.02247 0.0016
v 0.03962 -0.02239 0.0016
v 0.03962 -0.02292 0.0016
v 0.03862 -0.023 0.0016
v 0.03852 -0.02247 0.0016
v 0.03748 -0.02279 0.0016
v 0.03768 -0.02329 0.0016
v 0.03647 -0.02334 0.0016
v 0.03671 -0.0238 0.0016
v 0.03571 -0.02396 0.0016
v 0.03599 -0.02439 0.0016
v 0.04145 -0.03265 0.02409
v 0.0482 -0.04361 0.02185
v 0.04783 -0.04324 0.02185
v 0.04706 -0.04387 0.02185
v 0.04847 -0.04249 0.02185
v 0.04735 -0.04432 0.02185
v 0.04891 -0.04279 0.02185
v 0.04638 -0.04481 0.02185
v 0.04942 -0.04181 0.02185
v 0.04618 -0.04432 0.02185
v 0.04893 -0.04161 0.02185
v 0.04924 -0.04067 0.02185
v 0.04516 -0.04461 0.02185
v 0.04976 -0.04078 0.02185
v 0.04987 -0.03968 0.02185
v 0.04934 -0.03968 0.02185
v 0.04928 -0.03869 0.02185
v 0.04981 -0.03859 0.02185
v 0.04946 -0.03754 0.02185
v 0.04897 -0.03774 0.02185
v 0.04852 -0.03685 0.02185
v 0.04896 -0.03656 0.02185
v 0.04827 -0.03572 0.02185
v 0.04789 -0.0361 0.02185
v 0.04713 -0.03544 0.02185
v 0.04743 -0.035 0.02185
v 0.04647 -0.0345 0.02185
v 0.04626 -0.03499 0.02185
v 0.04542 -0.03415 0.02186
v 0.04531 -0.03468 0.02184
v 0.04433 -0.03459 0.02185
v 0.04434 -0.03406 0.02185
v 0.04325 -0.03414 0.0218
v 0.04329 -0.03466 0.02191
v 0.04225 -0.03445 0.02174
v 0.04735 -0.04432 0.00817
v 0.0482 -0.04361 0.00817
v 0.04638 -0.04481 0.00817
v 0.04891 -0.04279 0.00817
v 0.04942 -0.04181 0.00817
v 0.04976 -0.04078 0.00817
v 0.04987 -0.03968 0.00817
v 0.04981 -0.03859 0.00817
v 0.04946 -0.03754 0.00817
v 0.04896 -0.03656 0.00817
v 0.04827 -0.03572 0.00817
v 0.04743 -0.035 0.00817
v 0.04647 -0.0345 0.00817
v 0.04542 -0.03415 0.00816
v 0.04706 -0.04387 0.00817
v 0.04783 -0.04324 0.00817
v 0.04618 -0.04432 0.00817
v 0.04847 -0.04249 0.00817
v 0.04516 -0.04461 0.00817
v 0.04893 -0.04161 0.00817
v 0.04924 -0.04067 0.00817
v 0.04934 -0.03968 0.00817
v 0.04928 -0.03869 0.00817
v 0.04897 -0.03774 0.00817
v 0.04852 -0.03685 0.00817
v 0.04789 -0.0361 0.00817
v 0.04713 -0.03544 0.00817
v 0.04626 -0.03499 0.00817
v 0.04531 -0.03468 0.00818
v 0.04433 -0.03459 0.00817
v 0.04434 -0.03406 0.00817
v 0.04323 -0.03415 0.00822
v 0.04331 -0.03466 0.00811
v 0.04221 -0.03446 0.00828
v 0.04262 -0.03265 0.02409
v 0.04348 -0.03194 0.02409
v 0.04422 -0.03113 0.02409
v 0.04471 -0.03015 0.02409
v 0.04505 -0.0291 0.02409
v 0.04515 -0.02802 0.02409
v 0.04507 -0.02692 0.02409
v 0.04475 -0.02588 0.02409
v 0.04425 -0.02489 0.02409
v 0.04355 -0.02406 0.02409
v 0.04272 -0.02334 0.02409
v 0.04175 -0.02283 0.02409
v 0.04071 -0.02249 0.02409
v 0.04171 -0.03311 0.00623
v 0.04264 -0.03264 0.00633
v 0.04348 -0.03194 0.00643
v 0.04419 -0.03112 0.00655
v 0.04471 -0.03015 0.00668
v 0.04505 -0.02911 0.00682
v 0.04515 -0.02802 0.00694
v 0.04507 -0.02693 0.00699
v 0.04475 -0.02588 0.00699
v 0.04426 -0.0249 0.00699
v 0.04355 -0.02406 0.00694
v 0.04273 -0.02335 0.00682
v 0.04175 -0.02283 0.00668
v 0.04072 -0.02247 0.00654
v 0.04311 -0.03157 0.00646
v 0.04231 -0.03223 0.00646
v 0.04142 -0.03268 0.00645
v 0.04376 -0.03082 0.00656
v 0.04047 -0.0329 0.00647
v 0.04422 -0.02994 0.00671
v 0.04453 -0.029 0.00685
v 0.04462 -0.02801 0.00695
v 0.04455 -0.02703 0.00699
v 0.04425 -0.02608 0.00699
v 0.04381 -0.02519 0.00699
v 0.04317 -0.02443 0.00695
v 0.04243 -0.02379 0.00685
v 0.04155 -0.02332 0.00671
v 0.04061 -0.02299 0.00657
v 0.03962 -0.02292 0.00646
v 0.03962 -0.02239 0.00643
v 0.03852 -0.02247 0.00636
v 0.03862 -0.023 0.00637
v 0.03768 -0.02329 0.00634
v 0.03748 -0.02279 0.00634
v 0.03647 -0.02334 0.00634
v 0.03671 -0.0238 0.00634
v 0.03571 -0.02396 0.00634
v 0.03599 -0.02439 0.00634
v 0.04146 -0.03265 0.02409
v 0.04233 -0.03222 0.02409
v 0.04311 -0.03157 0.02409
v 0.04047 -0.0329 0.02409
v 0.04377 -0.03083 0.02409
v 0.04422 -0.02994 0.02409
v 0.04453 -0.02899 0.02409
v 0.04462 -0.02801 0.02409
v 0.04455 -0.02702 0.02409
v 0.04425 -0.02608 0.02409
v 0.0438 -0.02518 0.02409
v 0.04317 -0.02443 0.02409
v 0.04242 -0.02378 0.02409
v 0.04155 -0.02332 0.02409
v 0.0406 -0.02301 0.02409
v 0.03962 -0.02239 0.02409
v 0.03962 -0.02292 0.02409
v 0.03862 -0.02299 0.02409
v 0.03852 -0.02247 0.02409
v 0.03748 -0.02279 0.02409
v 0.03768 -0.02329 0.02409
v 0.03647 -0.02334 0.02409
v 0.03671 -0.0238 0.02409
v 0.03571 -0.02396 0.02409
v 0.03599 -0.02439 0.02409
v 0.04142 -0.03267 0.00645
v 0.04128 -0.03492 0.00829
v 0.04129 -0.03493 0.02173
vt 0.978027 0.089355
vt 0.962402 0.089417
vt 0.962402 0.090576
vt 0.978027 0.090515
vt 0.978027 0.091125
vt 0.962402 0.091125
vt 0.170898 0.564941
vt 0.170898 0.55957
vt 0.170288 0.55957
vt 0.170288 0.564941
vt 0.172119 0.564941
vt 0.171997 0.55957
vt 0.735352 0.450928
vt 0.73584 0.450928
vt 0.73584 0.445801
vt 0.735352 0.445557
vt 0.737305 0.450928
vt 0.737305 0.445801
vt 0.521973 0.143311
vt 0.523438 0.139648
vt 0.520996 0.139282
vt 0.523438 0.143311
vt 0.479736 0.046509
vt 0.47876 0.050385
vt 0.480957 0.050049
vt 0.480957 0.0466
vt 0.520996 0.143555
vt 0.47876 0.046204
vt 0.625 0.455322
vt 0.624512 0.455078
vt 0.624512 0.459229
vt 0.625 0.459717
vt 0.197632 0.009171
vt 0.198242 0.00882
vt 0.198242 0.00465
vt 0.197632 0.005013
vt 0.910645 0.009171
vt 0.90918 0.009171
vt 0.90918 0.009766
vt 0.908203 0.009766
vt 0.908203 0.009171
vt 0.910645 0.009766
vt 0.911621 0.009766
vt 0.911621 0.009171
vt 0.913086 0.009171
vt 0.913086 0.009766
vt 0.914062 0.009766
vt 0.914062 0.009171
vt 0.915039 0.009171
vt 0.915039 0.009766
vt 0.916504 0.009766
vt 0.916504 0.009171
vt 0.91748 0.009171
vt 0.91748 0.009766
vt 0.918945 0.009766
vt 0.918945 0.009171
vt 0.919922 0.009766
vt 0.919922 0.009171
vt 0.920898 0.009171
vt 0.920898 0.009766
vt 0.922363 0.009171
vt 0.922363 0.009766
vt 0.92334 0.009766
vt 0.92334 0.009171
vt 0.924805 0.009171
vt 0.924805 0.009766
vt 0.925781 0.009766
vt 0.925781 0.009171
vt 0.926758 0.009171
vt 0.926758 0.009766
vt 0.928223 0.009766
vt 0.928223 0.009171
vt 0.929199 0.009171
vt 0.929199 0.009766
vt 0.930664 0.009766
vt 0.930664 0.009171
vt 0.931641 0.009766
vt 0.931641 0.009171
vt 0.755859 0.007675
vt 0.755859 0.00827
vt 0.756836 0.00827
vt 0.756836 0.007675
vt 0.754395 0.007675
vt 0.754395 0.00827
vt 0.753418 0.00827
vt 0.753418 0.007675
vt 0.752441 0.007675
vt 0.752441 0.00827
vt 0.750977 0.007675
vt 0.750977 0.00827
vt 0.75 0.00827
vt 0.75 0.007675
vt 0.749023 0.007675
vt 0.749023 0.00827
vt 0.747559 0.00827
vt 0.747559 0.007675
vt 0.746582 0.007675
vt 0.746582 0.00827
vt 0.745605 0.00827
vt 0.745605 0.007675
vt 0.744141 0.007675
vt 0.744141 0.00827
vt 0.743164 0.00827
vt 0.743164 0.007675
vt 0.742188 0.007675
vt 0.742188 0.00827
vt 0.740723 0.00827
vt 0.740723 0.007675
vt 0.739746 0.007675
vt 0.739746 0.00827
vt 0.738281 0.00827
vt 0.738281 0.007675
vt 0.737305 0.007675
vt 0.737305 0.00827
vt 0.736328 0.00827
vt 0.736328 0.007675
vt 0.734863 0.00827
vt 0.734863 0.007675
vt 0.733887 0.00827
vt 0.733887 0.007675
vt 0.523438 0.139038
vt 0.520996 0.138672
vt 0.898438 0.00668
vt 0.898438 0.007282
vt 0.899902 0.007282
vt 0.897461 0.007282
vt 0.899902 0.00668
vt 0.897461 0.00668
vt 0.900879 0.00668
vt 0.896484 0.00668
vt 0.900879 0.007282
vt 0.896484 0.007282
vt 0.901855 0.00668
vt 0.89502 0.007282
vt 0.902344 0.007282
vt 0.90332 0.00668
vt 0.90332 0.007282
vt 0.89502 0.00668
vt 0.894043 0.00668
vt 0.894043 0.007282
vt 0.893066 0.007282
vt 0.893066 0.00668
vt 0.891602 0.00668
vt 0.891602 0.007282
vt 0.890625 0.007282
vt 0.890625 0.00668
vt 0.889648 0.00668
vt 0.889648 0.007282
vt 0.888184 0.007282
vt 0.888184 0.00668
vt 0.887207 0.00668
vt 0.887207 0.007282
vt 0.885742 0.00668
vt 0.885742 0.007282
vt 0.884766 0.007282
vt 0.884766 0.00668
vt 0.883789 0.00668
vt 0.883789 0.007282
vt 0.882324 0.00668
vt 0.882324 0.007282
vt 0.962402 0.086975
vt 0.978027 0.086914
vt 0.978027 0.085693
vt 0.962402 0.088196
vt 0.962402 0.085754
vt 0.978027 0.088135
vt 0.962402 0.084534
vt 0.978027 0.084473
vt 0.962402 0.083252
vt 0.978027 0.083252
vt 0.962402 0.082031
vt 0.978027 0.082031
vt 0.962402 0.080811
vt 0.978027 0.080811
vt 0.978027 0.079529
vt 0.962402 0.07959
vt 0.962402 0.078369
vt 0.978027 0.078308
vt 0.962402 0.077148
vt 0.978027 0.077087
vt 0.978027 0.075867
vt 0.962402 0.075928
vt 0.978027 0.074646
vt 0.962402 0.074707
vt 0.962402 0.073486
vt 0.978027 0.073425
vt 0.962402 0.072205
vt 0.978027 0.072205
vt 0.617188 0.004707
vt 0.615723 0.004707
vt 0.615723 0.005295
vt 0.614746 0.004707
vt 0.617188 0.005295
vt 0.614746 0.005295
vt 0.618164 0.005295
vt 0.613281 0.004707
vt 0.618164 0.004707
vt 0.613281 0.005295
vt 0.612305 0.004707
vt 0.612305 0.005295
vt 0.619141 0.004707
vt 0.619141 0.005295
vt 0.620605 0.005295
vt 0.620605 0.004707
vt 0.621582 0.004707
vt 0.621582 0.005295
vt 0.623047 0.005295
vt 0.623047 0.004707
vt 0.624023 0.004707
vt 0.624023 0.005295
vt 0.625488 0.005295
vt 0.625488 0.004707
vt 0.626465 0.004707
vt 0.626465 0.005295
vt 0.627441 0.005295
vt 0.627441 0.004707
vt 0.628906 0.004707
vt 0.628906 0.005295
vt 0.629883 0.004707
vt 0.629883 0.005295
vt 0.630859 0.005295
vt 0.630859 0.004707
vt 0.632324 0.004707
vt 0.632324 0.005295
vt 0.633301 0.005295
vt 0.633301 0.004707
vt 0.173218 0.564941
vt 0.173218 0.55957
vt 0.174438 0.564941
vt 0.174438 0.55957
vt 0.175659 0.564941
vt 0.175659 0.55957
vt 0.17688 0.564941
vt 0.17688 0.55957
vt 0.178101 0.564941
vt 0.178101 0.559082
vt 0.179321 0.564941
vt 0.179321 0.559082
vt 0.180542 0.564941
vt 0.180542 0.559082
vt 0.181763 0.564941
vt 0.181763 0.559082
vt 0.182983 0.564941
vt 0.182983 0.559082
vt 0.184204 0.564941
vt 0.184204 0.559082
vt 0.185425 0.559082
vt 0.185425 0.564941
vt 0.186768 0.559082
vt 0.186768 0.564941
vt 0.187988 0.559082
vt 0.187988 0.564941
vt 0.189209 0.55957
vt 0.189209 0.564941
vt 0.738281 0.450928
vt 0.738281 0.445801
vt 0.739746 0.450928
vt 0.739746 0.445801
vt 0.740723 0.450928
vt 0.740723 0.445557
vt 0.742188 0.450928
vt 0.742188 0.445557
vt 0.743164 0.450928
vt 0.743164 0.445312
vt 0.744629 0.450928
vt 0.744629 0.445068
vt 0.745605 0.450928
vt 0.745605 0.445068
vt 0.74707 0.450928
vt 0.74707 0.444824
vt 0.748047 0.450928
vt 0.748047 0.444824
vt 0.749512 0.450928
vt 0.749512 0.444824
vt 0.750488 0.445068
vt 0.750488 0.450928
vt 0.751953 0.445068
vt 0.751953 0.450928
vt 0.75293 0.445312
vt 0.75293 0.450928
vt 0.754395 0.445557
vt 0.754395 0.450928
vt 0.351318 0.940918
vt 0.350098 0.940918
vt 0.350098 0.941406
vt 0.349121 0.941406
vt 0.351318 0.941406
vt 0.348877 0.940918
vt 0.352539 0.941406
vt 0.3479 0.941406
vt 0.352539 0.940918
vt 0.3479 0.940918
vt 0.34668 0.941406
vt 0.34668 0.940918
vt 0.35376 0.940918
vt 0.35376 0.941406
vt 0.35498 0.941406
vt 0.35498 0.940918
vt 0.356201 0.940918
vt 0.356201 0.941406
vt 0.357178 0.941406
vt 0.357178 0.940918
vt 0.358398 0.941406
vt 0.358398 0.940918
vt 0.359619 0.940918
vt 0.359619 0.941406
vt 0.36084 0.940918
vt 0.36084 0.941406
vt 0.362061 0.941406
vt 0.362061 0.940918
vt 0.363281 0.940918
vt 0.363281 0.941406
vt 0.364258 0.941406
vt 0.364258 0.940918
vt 0.365479 0.940918
vt 0.365479 0.941406
vt 0.366699 0.941406
vt 0.366699 0.940918
vt 0.36792 0.940918
vt 0.36792 0.941406
vt 0.369141 0.941406
vt 0.369141 0.940918
vt 0.370117 0.941406
vt 0.370117 0.940918
vt 0.424072 0.005795
vt 0.425049 0.005795
vt 0.424805 0.005192
vt 0.426025 0.005795
vt 0.423828 0.005192
vt 0.426025 0.005192
vt 0.423096 0.005795
vt 0.427246 0.005795
vt 0.427246 0.005192
vt 0.428467 0.005192
vt 0.428467 0.005795
vt 0.429688 0.005795
vt 0.429688 0.005192
vt 0.430664 0.005192
vt 0.430664 0.005795
vt 0.431885 0.005795
vt 0.431885 0.005192
vt 0.433105 0.005192
vt 0.433105 0.005795
vt 0.434326 0.005795
vt 0.434326 0.005192
vt 0.435547 0.005192
vt 0.435547 0.005795
vt 0.436768 0.005795
vt 0.436768 0.005192
vt 0.437744 0.005192
vt 0.437744 0.005795
vt 0.438965 0.005795
vt 0.438965 0.005192
vt 0.440186 0.005192
vt 0.440186 0.005795
vt 0.441406 0.005795
vt 0.441406 0.005192
vt 0.442627 0.005192
vt 0.442627 0.005795
vt 0.443848 0.005192
vt 0.443848 0.005795
vt 0.444824 0.005192
vt 0.444824 0.005795
vt 0.423096 0.005192
vt 0.422119 0.005192
vt 0.422119 0.005795
vt 0.480957 0.05069
vt 0.47876 0.051056
vt 0.627441 0.455811
vt 0.627441 0.459717
vt 0.62793 0.459229
vt 0.62793 0.455811
vt 0.195435 0.00885
vt 0.195435 0.005455
vt 0.194824 0.00856
vt 0.194824 0.005157
vt 0.196533 0.005352
vt 0.755371 0.445557
vt 0.755371 0.450928
vt 0.756836 0.445557
vt 0.756836 0.450928
vt 0.757812 0.450928
vt 0.757812 0.445557
vt 0.759277 0.450928
vt 0.759277 0.445557
vt 0.760254 0.450928
vt 0.760254 0.445557
vt 0.760742 0.445557
vt 0.760742 0.450928
vt 0.19043 0.55957
vt 0.19043 0.564941
vt 0.19165 0.55957
vt 0.19165 0.564941
vt 0.192871 0.564941
vt 0.192871 0.55957
vt 0.194092 0.564941
vt 0.194092 0.55957
vt 0.19519 0.564941
vt 0.19519 0.55957
vt 0.195801 0.55957
vt 0.195801 0.564941
vt 0.625977 0.455811
vt 0.962402 0.070984
vt 0.978027 0.070984
vt 0.978027 0.069702
vt 0.962402 0.069763
vt 0.962402 0.068604
vt 0.978027 0.068542
vt 0.962402 0.067444
vt 0.978027 0.067383
vt 0.962402 0.066162
vt 0.978027 0.066162
vt 0.962402 0.065613
vt 0.978027 0.065613
vn 0.1875 -0.9823 0
vn -0.3526 -0.9358 0
vn -0.9825 -0.1862 0
vn -0.2792 -0.9602 0.0024
vn -0.3033 -0.9529 -0.0049
vn -0.9807 -0.1954 -0.0069
vn -0.9452 -0.3263 0.0075
vn -0.3018 -0.9534 0
vn -0.4059 -0.9139 0.0026
vn 0.1959 -0.9806 0.0023
vn 0.29 -0.5752 0.7649
vn 0.1319 -0.6819 0.7194
vn 0.1678 -0.6603 0.732
vn 0.3395 -0.6577 0.6724
vn 0.2621 -0.5226 -0.8113
vn 0.1664 -0.5945 -0.7867
vn 0.1311 -0.6184 -0.7749
vn 0.3129 -0.6049 -0.7323
vn 0.4129 -0.4698 0.7803
vn 0.3679 -0.4297 -0.8246
vn -0.868 -0.4801 0.1269
vn -0.8639 -0.4856 0.1334
vn -0.9397 -0.3416 -0.0178
vn -0.9452 -0.3248 -0.0331
vn -0.9444 -0.2917 0.152
vn -0.9435 -0.2757 0.1838
vn -0.9258 -0.3768 -0.0313
vn -0.9183 -0.3907 -0.0644
vn -0.0181 -0.0131 0.9997
vn 0 -0.001 1
vn -0.018 -0.007 0.9998
vn -0.0252 -0.0515 0.9984
vn -0.0318 -0.054 0.998
vn -0.0151 -0.0893 0.9959
vn -0.0107 -0.0889 0.996
vn -0.0202 -0.1356 0.9906
vn -0.0225 -0.1409 0.9898
vn -0.0022 -0.1406 0.9901
vn 0 -0.1403 0.9901
vn 0.0132 -0.1224 0.9924
vn 0.0155 -0.1251 0.992
vn 0.0149 -0.0755 0.997
vn 0.006 -0.019 0.9998
vn 0.004 -0.019 0.9998
vn -0.0111 0.0171 0.9998
vn -0.042 0.0636 0.9971
vn -0.0763 0.0968 0.9924
vn -0.0742 0.1016 0.9921
vn -0.0989 0.1012 0.9899
vn -0.0987 0.0987 0.9902
vn -0.11 0.0846 0.9903
vn -0.1128 0.0872 0.9898
vn -0.0878 0.0545 0.9946
vn -0.0832 0.0566 0.9949
vn -0.0557 0.0221 0.9982
vn -0.0624 0.0222 0.9978
vn -0.0089 0.003 1
vn -0.0059 -0.001 1
vn 0 -0.001 -1
vn 0.0039 -0.003 1
vn 0 -0.0069 1
vn -0.006 -0.0231 0.9997
vn -0.0082 -0.0357 0.9993
vn -0.0153 0.0254 0.9996
vn -0.0292 0.001 0.9996
vn -0.0482 0.1705 0.9842
vn -0.0377 0.2346 0.9714
vn -0.0833 0.3294 0.9405
vn -0.0685 0.3855 0.9202
vn 0.5497 -0.8354 0
vn 0.6995 -0.7147 0
vn 0.3648 -0.9311 0
vn 0.8259 -0.5638 0
vn 0.9204 -0.391 0
vn 0.9788 -0.2048 0
vn 0.9998 -0.021 0
vn 0.9825 0.1864 -0.0011
vn 0.9228 0.3853 -0.0013
vn 0.836 0.5487 -0.0014
vn 0.836 0.5487 0.0014
vn 0.7154 0.6988 -0.0014
vn 0.5644 0.8255 -0.0014
vn 0.3883 0.9215 -0.0013
vn 0.205 0.9788 -0.0012
vn 0.0039 -0.003 -1
vn 0 -0.0069 -1
vn -0.006 -0.0231 -0.9997
vn -0.0082 -0.0357 -0.9993
vn -0.0173 0.0234 -0.9996
vn -0.0302 -0.001 -0.9995
vn -0.0298 0.2134 -0.9765
vn 0.0154 0.2188 -0.9757
vn -0.1236 0.3301 -0.9358
vn -0.1624 0.3657 -0.9164
vn 0.3526 -0.9358 0
vn 0.691 -0.7228 0
vn 0.6939 -0.7201 0
vn 0.8281 -0.5606 0
vn 0.8323 -0.5544 0
vn 0.9255 -0.3786 0
vn 0.928 -0.3725 0
vn 0.9794 -0.2021 0
vn 0.981 -0.1941 0
vn 1 -0.0089 0
vn 1 -0.0049 0
vn 0.9825 0.1864 0.0011
vn 0.9266 0.376 -0.0013
vn 0.9266 0.376 0.0013
vn 0.838 0.5456 0.0014
vn 0.7154 0.6988 0.0014
vn 0.7126 0.7015 -0.0014
vn 0.5706 0.8212 -0.0014
vn 0.3976 0.9175 -0.0013
vn 0.3914 0.9202 -0.0013
vn 0.2131 0.977 -0.0012
vn 0.3504 -0.9366 0.0025
vn 0.3565 -0.9343 0.0025
vn 0.556 -0.8312 0
vn 0.6967 -0.7174 0
vn 0.7023 -0.7119 0
vn 0.923 -0.3848 0
vn 0.9279 0.3729 0.0013
vn 0.838 0.5456 -0.0014
vn 0.7181 0.696 0.0014
vn 0.5644 0.8255 0.0014
vn 0.407 0.9134 0.0013
vn 0.4039 0.9148 0.0013
vn 0.2158 0.9764 0.0012
vn -0.0088 -0.1194 0.9928
vn 0.1108 -0.2435 0.9636
vn 0.0661 -0.2119 0.975
vn 0.1152 -0.3635 0.9245
vn -0.0333 -0.11 0.9934
vn 0.1313 -0.3843 0.9138
vn -0.0407 -0.1231 0.9916
vn 0.0827 -0.4257 0.9011
vn -0.0523 -0.1194 0.9915
vn 0.08 -0.4347 0.897
vn 0.0602 -0.4475 0.8923
vn 0.0632 -0.4518 0.8899
vn -0.0066 -0.1363 0.9906
vn 0 -0.1354 0.9908
vn 0.004 -0.021 0.9998
vn -0.0765 0.0993 0.9921
vn -0.1098 0.0821 0.9906
vn -0.0856 0.0567 0.9947
vn -0.0536 0.0242 0.9983
vn -0.0753 0.42 -0.9044
vn -0.0723 0.4158 -0.9066
vn -0.0875 0.4405 -0.8935
vn -0.0907 0.4482 -0.8893
vn 0.174 0.8005 -0.5735
vn 0.4106 0.7839 -0.4658
vn 0.9207 0.3902 0.0064
vn 0.9668 0.2312 0.1086
vn 0.5415 0.7048 0.4582
vn 0.2479 0.7278 0.6394
vn 0.8687 0.4836 0.107
vn 0.9392 0.3433 -0.0038
vn -0.2539 0.5311 0.8084
vn -0.1044 0.6307 0.7689
vn -0.1454 0.6072 0.7811
vn -0.3567 0.4423 0.8228
vn 0.001 1 -0.001
vn -0.0029 1 -0.001
vn -0.1838 0.983 -0.0011
vn -0.1864 0.9825 -0.0011
vn -0.3883 0.9215 -0.0013
vn -0.5487 0.836 -0.0014
vn -0.5487 0.836 0.0014
vn -0.9106 0.4132 -0.0013
vn -0.9106 0.4132 0.0013
vn -0.8364 -0.5481 0
vn 0.0129 0.9999 -0.001
vn 0.0089 1 0.001
vn -0.1864 0.9825 0.0011
vn -0.3914 0.9202 -0.0013
vn -0.297 0.6149 0.7305
vn -0.4127 0.5245 -0.7448
vn -0.173 0.6964 -0.6964
vn -0.3041 0.6097 -0.732
vn -0.1335 0.7185 -0.6825
vn -0.3339 0.6889 -0.6433
vn 0.0069 1 -0.001
vn 0.0049 1 -0.001
vn -0.1812 0.9834 0.0011
vn -0.3699 0.9291 0.0013
vn -0.5393 0.8421 0.0014
vn -0.5456 0.838 0.0014
vn -0.9303 0.3668 -0.0013
vn -0.9279 0.3729 0.0013
vn -0.8376 -0.5462 -0.0027
vn -0.9061 -0.4231 0.0026
o bullet_scaffold05__p1_c0
f 1/1/1 2/2/1 3/3/2
f 1/1/1 3/3/2 4/4/2
f 4/4/2 3/3/2 5/5/3
f 5/5/3 3/3/2 6/6/3
f 7/7/4 8/8/5 9/9/6
f 7/7/4 9/9/6 10/10/7
f 8/8/5 7/7/4 11/11/1
f 8/8/5 11/11/1 12/12/1
f 13/13/3 14/14/8 15/15/9
f 13/13/3 15/15/9 16/16/3
f 15/15/9 14/14/8 17/17/1
f 15/15/9 17/17/1 18/18/10
f 19/19/11 20/20/12 21/21/13
f 22/22/14 20/20/14 19/19/14
f 23/23/15 24/24/16 25/25/17
f 26/26/18 23/23/18 25/25/18
f 19/19/11 21/21/13 27/27/19
f 28/28/20 24/24/16 23/23/15
f 29/29/21 27/30/22 21/31/23
f 29/29/21 21/31/23 30/32/24
f 16/33/25 24/34/26 28/35/27
f 16/33/25 28/35/27 31/36/28
f 32/37/29 33/38/30 12/39/30
f 12/39/30 33/38/30 8/40/30
f 8/40/30 33/38/30 9/41/30
f 32/37/29 12/39/30 34/42/31
f 32/37/29 34/42/31 35/43/32
f 32/37/29 35/43/32 36/44/33
f 36/44/33 35/43/32 37/45/34
f 37/45/34 35/43/32 38/46/35
f 37/45/34 38/46/35 39/47/36
f 37/45/34 39/47/36 40/48/37
f 40/48/37 39/47/36 41/49/38
f 41/49/38 39/47/36 42/50/39
f 41/49/38 42/50/39 43/51/40
f 41/49/38 43/51/40 44/52/41
f 44/52/41 43/51/40 45/53/42
f 45/53/42 43/51/40 46/54/42
f 45/53/42 46/54/42 47/55/43
f 45/53/42 47/55/43 48/56/44
f 48/56/44 47/55/43 49/57/30
f 48/56/44 49/57/30 50/58/30
f 50/58/30 49/57/30 51/59/45
f 51/59/45 49/57/30 52/60/45
f 51/59/45 52/60/45 53/61/46
f 53/61/46 52/60/45 54/62/46
f 53/61/46 54/62/46 55/63/47
f 53/61/46 55/63/47 56/64/48
f 56/64/48 55/63/47 57/65/49
f 57/65/49 55/63/47 58/66/50
f 57/65/49 58/66/50 59/67/51
f 57/65/49 59/67/51 60/68/52
f 60/68/52 59/67/51 61/69/53
f 61/69/53 59/67/51 62/70/54
f 61/69/53 62/70/54 63/71/55
f 61/69/53 63/71/55 64/72/56
f 64/72/56 63/71/55 65/73/57
f 65/73/57 63/71/55 66/74/58
f 65/73/57 66/74/58 67/75/30
f 65/73/57 67/75/30 68/76/30
f 68/76/30 67/75/30 69/77/30
f 68/76/30 69/77/30 70/78/30
f 71/79/59 17/80/59 14/81/59
f 71/79/59 14/81/59 13/82/59
f 17/80/59 71/79/59 72/83/59
f 17/80/59 72/83/59 73/84/59
f 73/84/59 72/83/59 74/85/59
f 74/85/59 72/83/59 75/86/59
f 74/85/59 75/86/59 76/87/59
f 74/85/59 76/87/59 77/88/59
f 77/88/59 76/87/59 78/89/59
f 77/88/59 78/89/59 79/90/59
f 79/90/59 78/89/59 80/91/59
f 80/91/59 78/89/59 81/92/59
f 80/91/59 81/92/59 82/93/59
f 80/91/59 82/93/59 83/94/59
f 83/94/59 82/93/59 84/95/59
f 84/95/59 82/93/59 85/96/59
f 84/95/59 85/96/59 86/97/59
f 84/95/59 86/97/59 87/98/59
f 87/98/59 86/97/59 88/99/59
f 88/99/59 86/97/59 89/100/59
f 88/99/59 89/100/59 90/101/59
f 88/99/59 90/101/59 91/102/59
f 91/102/59 90/101/59 92/103/59
f 92/103/59 90/101/59 93/104/59
f 92/103/59 93/104/59 94/105/59
f 92/103/59 94/105/59 95/106/59
f 95/106/59 94/105/59 96/107/59
f 96/107/59 94/105/59 97/108/59
f 96/107/59 97/108/59 98/109/59
f 96/107/59 98/109/59 99/110/59
f 99/110/59 98/109/59 100/111/59
f 100/111/59 98/109/59 101/112/59
f 100/111/59 101/112/59 102/113/59
f 100/111/59 102/113/59 103/114/59
f 103/114/59 102/113/59 104/115/59
f 104/115/59 102/113/59 105/116/59
f 104/115/59 105/116/59 106/117/59
f 106/117/59 105/116/59 107/118/59
f 106/117/59 107/118/59 108/119/59
f 108/119/59 107/118/59 109/120/59
f 21/21/30 20/20/30 110/121/30
f 21/21/30 110/121/30 30/122/30
f 111/123/30 112/124/30 113/125/30
f 112/124/30 111/123/30 114/126/30
f 111/123/30 113/125/30 115/127/30
f 114/126/30 111/123/30 116/128/30
f 115/127/30 113/125/30 117/129/30
f 114/126/30 116/128/30 118/130/30
f 117/129/30 113/125/30 119/131/30
f 114/126/30 118/130/30 120/132/30
f 117/129/30 119/131/30 2/133/30
f 120/132/30 118/130/30 121/134/30
f 2/133/30 119/131/30 122/135/30
f 2/133/30 122/135/30 3/136/30
f 3/136/30 122/135/30 6/137/30
f 121/134/30 118/130/30 123/138/30
f 121/134/30 123/138/30 124/139/30
f 121/134/30 124/139/30 125/140/30
f 125/140/30 124/139/30 126/141/30
f 126/141/30 124/139/30 127/142/30
f 126/141/30 127/142/30 128/143/30
f 126/141/30 128/143/30 129/144/30
f 129/144/30 128/143/30 130/145/30
f 130/145/30 128/143/30 131/146/30
f 130/145/30 131/146/30 132/147/30
f 130/145/30 132/147/30 133/148/30
f 133/148/30 132/147/30 134/149/30
f 134/149/30 132/147/30 135/150/30
f 134/149/30 135/150/30 136/151/60
f 134/149/30 136/151/60 137/152/61
f 137/152/61 136/151/60 138/153/62
f 137/152/61 138/153/62 139/154/63
f 139/154/63 138/153/62 140/155/64
f 140/155/64 138/153/62 141/156/65
f 140/155/64 141/156/65 142/157/66
f 140/155/64 142/157/66 143/158/67
f 143/158/67 142/157/66 144/159/68
f 143/158/67 144/159/68 22/160/69
f 115/161/70 145/162/70 146/163/71
f 145/162/70 115/161/70 117/164/72
f 115/161/70 146/163/71 111/165/71
f 145/162/70 117/164/72 147/166/72
f 147/166/72 117/164/72 2/2/1
f 147/166/72 2/2/1 1/1/1
f 111/165/71 146/163/71 116/167/73
f 116/167/73 146/163/71 148/168/73
f 116/167/73 148/168/73 118/169/74
f 118/169/74 148/168/73 149/170/74
f 118/169/74 149/170/74 123/171/75
f 123/171/75 149/170/74 150/172/75
f 123/171/75 150/172/75 124/173/76
f 124/173/76 150/172/75 151/174/76
f 124/173/76 151/174/76 152/175/77
f 124/173/76 152/175/77 127/176/77
f 127/176/77 152/175/77 128/177/78
f 128/177/78 152/175/77 153/178/78
f 128/177/78 153/178/78 131/179/79
f 131/179/79 153/178/78 154/180/80
f 131/179/79 154/180/80 155/181/81
f 131/179/79 155/181/81 132/182/81
f 132/182/81 155/181/81 156/183/82
f 132/182/81 156/183/82 135/184/82
f 135/184/82 156/183/82 136/185/83
f 136/185/83 156/183/82 157/186/83
f 136/185/83 157/186/83 138/187/84
f 138/187/84 157/186/83 158/188/84
f 146/189/59 145/190/59 159/191/59
f 159/191/59 145/190/59 147/192/59
f 146/189/59 159/191/59 160/193/59
f 159/191/59 147/192/59 161/194/59
f 146/189/59 160/193/59 162/195/59
f 161/194/59 147/192/59 1/196/59
f 146/189/59 162/195/59 148/197/59
f 161/194/59 1/196/59 163/198/59
f 163/198/59 1/196/59 4/199/59
f 163/198/59 4/199/59 5/200/59
f 148/197/59 162/195/59 149/201/59
f 149/201/59 162/195/59 164/202/59
f 149/201/59 164/202/59 165/203/59
f 149/201/59 165/203/59 150/204/59
f 150/204/59 165/203/59 151/205/59
f 151/205/59 165/203/59 166/206/59
f 151/205/59 166/206/59 167/207/59
f 151/205/59 167/207/59 152/208/59
f 152/208/59 167/207/59 153/209/59
f 153/209/59 167/207/59 168/210/59
f 153/209/59 168/210/59 169/211/59
f 153/209/59 169/211/59 154/212/59
f 154/212/59 169/211/59 155/213/59
f 155/213/59 169/211/59 170/214/59
f 155/213/59 170/214/59 171/215/59
f 155/213/59 171/215/59 156/216/59
f 156/216/59 171/215/59 157/217/85
f 157/217/85 171/215/59 172/218/86
f 157/217/85 172/218/86 158/219/87
f 158/219/87 172/218/86 173/220/88
f 158/219/87 173/220/88 174/221/89
f 158/219/87 174/221/89 175/222/90
f 175/222/90 174/221/89 176/223/91
f 176/223/91 174/221/89 177/224/92
f 176/223/91 177/224/92 26/225/93
f 176/223/91 26/225/93 178/226/94
f 12/12/1 11/11/1 20/227/95
f 12/12/1 20/227/95 34/228/95
f 34/228/95 20/227/95 179/229/70
f 34/228/95 179/229/70 35/230/70
f 35/230/70 179/229/70 180/231/96
f 35/230/70 180/231/96 38/232/97
f 38/232/97 180/231/96 181/233/98
f 38/232/97 181/233/98 39/234/99
f 39/234/99 181/233/98 182/235/100
f 39/234/99 182/235/100 42/236/101
f 42/236/101 182/235/100 183/237/102
f 42/236/101 183/237/102 43/238/103
f 43/238/103 183/237/102 184/239/104
f 43/238/103 184/239/104 46/240/105
f 46/240/105 184/239/104 185/241/106
f 46/240/105 185/241/106 47/242/77
f 47/242/77 185/241/106 186/243/107
f 47/242/77 186/243/107 49/244/108
f 49/244/108 186/243/107 187/245/109
f 49/244/108 187/245/109 52/246/109
f 52/246/109 187/245/109 54/247/110
f 54/247/110 187/245/109 188/248/111
f 54/247/110 188/248/111 55/249/112
f 55/249/112 188/248/111 189/250/82
f 55/249/112 189/250/82 58/251/113
f 58/251/113 189/250/82 190/252/114
f 58/251/113 190/252/114 59/253/115
f 59/253/115 190/252/114 191/254/84
f 18/18/10 17/17/1 73/255/116
f 18/18/10 73/255/116 192/256/117
f 192/256/117 73/255/116 74/257/70
f 192/256/117 74/257/70 193/258/118
f 193/258/118 74/257/70 77/259/119
f 193/258/118 77/259/119 194/260/120
f 194/260/120 77/259/119 79/261/98
f 194/260/120 79/261/98 195/262/99
f 195/262/99 79/261/98 80/263/74
f 195/262/99 80/263/74 196/264/121
f 196/264/121 80/263/74 83/265/102
f 196/264/121 83/265/102 197/266/103
f 197/266/103 83/265/102 84/267/104
f 197/266/103 84/267/104 198/268/105
f 198/268/105 84/267/104 87/269/106
f 198/268/105 87/269/106 199/270/106
f 199/270/106 87/269/106 88/271/122
f 199/270/106 88/271/122 200/272/122
f 200/272/122 88/271/122 91/273/123
f 200/272/122 91/273/123 201/274/109
f 201/274/109 91/273/123 202/275/124
f 202/275/124 91/273/123 92/276/81
f 202/275/124 92/276/81 203/277/112
f 203/277/112 92/276/81 95/278/125
f 203/277/112 95/278/125 204/279/126
f 204/279/126 95/278/125 96/280/127
f 204/279/126 96/280/127 205/281/128
f 205/281/128 96/280/127 99/282/84
f 206/283/129 207/284/130 193/285/131
f 193/285/131 207/284/130 192/286/132
f 206/283/129 193/285/131 194/287/133
f 192/286/132 207/284/130 208/288/134
f 206/283/129 194/287/133 195/289/135
f 192/286/132 208/288/134 18/290/136
f 206/283/129 195/289/135 209/291/137
f 18/290/136 208/288/134 210/292/138
f 18/290/136 210/292/138 15/293/139
f 15/293/139 210/292/138 16/294/140
f 209/291/137 195/289/135 211/295/141
f 211/295/141 195/289/135 196/296/142
f 211/295/141 196/296/142 197/297/40
f 211/295/141 197/297/40 212/298/41
f 212/298/41 197/297/40 213/299/42
f 213/299/42 197/297/40 198/300/42
f 213/299/42 198/300/42 199/301/143
f 213/299/42 199/301/143 214/302/44
f 214/302/44 199/301/143 200/303/30
f 214/302/44 200/303/30 215/304/30
f 215/304/30 200/303/30 216/305/45
f 216/305/45 200/303/30 201/306/45
f 216/305/45 201/306/45 217/307/46
f 217/307/46 201/306/45 202/308/46
f 217/307/46 202/308/46 203/309/47
f 217/307/46 203/309/47 218/310/144
f 218/310/144 203/309/47 219/311/49
f 219/311/49 203/309/47 204/312/50
f 219/311/49 204/312/50 205/313/145
f 219/311/49 205/313/145 220/314/52
f 220/314/52 205/313/145 221/315/146
f 221/315/146 205/313/145 222/316/54
f 221/315/146 222/316/54 223/317/147
f 221/315/146 223/317/147 224/318/56
f 224/318/56 223/317/147 225/319/57
f 225/319/57 223/317/147 226/320/58
f 225/319/57 226/320/58 227/321/30
f 225/319/57 227/321/30 228/322/30
f 228/322/30 227/321/30 229/323/30
f 228/322/30 229/323/30 230/324/30
f 231/325/59 232/326/59 179/327/59
f 179/327/59 232/326/59 233/328/59
f 231/325/59 179/327/59 20/329/59
f 179/327/59 233/328/59 180/330/59
f 231/325/59 20/329/59 234/331/59
f 180/330/59 233/328/59 235/332/59
f 180/330/59 235/332/59 181/333/59
f 181/333/59 235/332/59 182/334/59
f 182/334/59 235/332/59 236/335/59
f 182/334/59 236/335/59 237/336/59
f 182/334/59 237/336/59 183/337/59
f 183/337/59 237/336/59 184/338/59
f 184/338/59 237/336/59 238/339/59
f 184/338/59 238/339/59 239/340/59
f 184/338/59 239/340/59 185/341/59
f 185/341/59 239/340/59 186/342/59
f 186/342/59 239/340/59 240/343/59
f 186/342/59 240/343/59 241/344/59
f 186/342/59 241/344/59 187/345/59
f 187/345/59 241/344/59 188/346/59
f 188/346/59 241/344/59 242/347/59
f 188/346/59 242/347/59 243/348/59
f 188/346/59 243/348/59 189/349/59
f 189/349/59 243/348/59 190/350/59
f 190/350/59 243/348/59 244/351/59
f 190/350/59 244/351/59 245/352/59
f 190/350/59 245/352/59 191/353/59
f 191/353/59 245/352/59 246/354/59
f 246/354/59 245/352/59 247/355/59
f 246/354/59 247/355/59 248/356/59
f 246/354/59 248/356/59 249/357/59
f 249/357/59 248/356/59 250/358/59
f 250/358/59 248/356/59 251/359/59
f 250/358/59 251/359/59 252/360/59
f 252/360/59 251/359/59 253/361/59
f 252/360/59 253/361/59 254/362/59
f 254/362/59 253/361/59 255/363/59
f 11/364/59 7/365/59 20/329/59
f 20/329/59 7/365/59 234/331/59
f 234/331/59 7/365/59 10/366/59
f 256/367/148 25/25/149 24/24/150
f 256/367/148 24/24/150 16/368/151
f 144/369/152 110/370/153 20/371/154
f 144/369/152 20/371/154 22/372/155
f 256/373/156 178/374/157 25/375/158
f 25/375/158 178/374/157 26/376/159
f 257/377/160 256/373/161 16/33/162
f 257/377/160 16/33/162 31/36/163
f 205/281/128 99/282/84 222/378/164
f 222/378/164 99/282/84 100/379/165
f 222/378/164 100/379/165 223/380/166
f 223/380/166 100/379/165 103/381/167
f 223/380/166 103/381/167 104/382/168
f 223/380/166 104/382/168 226/383/168
f 226/383/168 104/382/168 106/384/169
f 226/383/168 106/384/169 227/385/170
f 227/385/170 106/384/169 108/386/171
f 227/385/170 108/386/171 229/387/172
f 229/387/172 108/386/171 230/388/173
f 230/388/173 108/386/171 109/389/173
f 59/253/115 191/254/84 62/390/174
f 62/390/174 191/254/84 246/391/175
f 62/390/174 246/391/175 63/392/166
f 63/392/166 246/391/175 249/393/176
f 63/392/166 249/393/176 250/394/177
f 63/392/166 250/394/177 66/395/177
f 66/395/177 250/394/177 252/396/169
f 66/395/177 252/396/169 67/397/169
f 67/397/169 252/396/169 254/398/172
f 67/397/169 254/398/172 69/399/172
f 69/399/172 254/398/172 70/400/173
f 70/400/173 254/398/172 255/401/173
f 257/377/178 178/374/157 256/373/156
f 29/29/179 30/32/180 258/402/181
f 258/402/181 30/32/180 110/370/182
f 144/369/152 258/402/183 110/370/153
f 138/187/84 158/188/84 141/403/184
f 141/403/184 158/188/84 175/404/185
f 141/403/184 175/404/185 176/405/186
f 141/403/184 176/405/186 142/406/166
f 142/406/166 176/405/186 144/407/187
f 144/407/187 176/405/186 178/408/187
f 144/407/187 178/408/187 258/409/188
f 258/409/188 178/408/187 257/410/189
f 258/409/188 257/410/189 29/411/190
f 29/411/190 257/410/189 31/412/191
f 29/411/190 31/412/191 27/413/192
f 27/413/192 31/412/191 28/414/193
