# CS2 body mesh, tools/cs2_glb_to_obj.py
v 0.05946 -0.08013 0.00817
v 0.05946 -0.08013 0.02185
v 0.05844 -0.08022 0.02185
v 0.05844 -0.08022 0.00817
v 0.05834 -0.07971 0.00817
v 0.05834 -0.07971 0.02185
v 0.05376 -0.06854 0.02409
v 0.05372 -0.06855 0.02884
v 0.05362 -0.06804 0.02884
v 0.05359 -0.06804 0.02409
v 0.05481 -0.0684 0.02409
v 0.05479 -0.0684 0.02884
v 0.05362 -0.06804 0.0016
v 0.05372 -0.06855 0.0016
v 0.05372 -0.06855 0.00621
v 0.05362 -0.06804 0.00648
v 0.05479 -0.0684 0.0016
v 0.05481 -0.06839 0.00622
v 0.05563 -0.07042 0.02197
v 0.05582 -0.06814 0.02409
v 0.05649 -0.06998 0.02196
v 0.05654 -0.06997 0.00805
v 0.05563 -0.07043 0.00804
v 0.05585 -0.06812 0.00623
v 0.05485 -0.07108 0.02199
v 0.05482 -0.0711 0.00803
v 0.05457 -0.07065 0.02172
v 0.0615 -0.07934 0.02185
v 0.0615 -0.07934 0.00817
v 0.06235 -0.07863 0.00817
v 0.06053 -0.07983 0.02185
v 0.06235 -0.07863 0.02185
v 0.06053 -0.07983 0.00817
v 0.06306 -0.07781 0.02185
v 0.06306 -0.07781 0.00817
v 0.06357 -0.07683 0.02185
v 0.06357 -0.07683 0.00817
v 0.06391 -0.0758 0.02185
v 0.06391 -0.0758 0.00817
v 0.06401 -0.0747 0.02185
v 0.06401 -0.0747 0.00817
v 0.06395 -0.07361 0.00817
v 0.06395 -0.07361 0.02185
v 0.06361 -0.07256 0.02185
v 0.06361 -0.07256 0.00817
v 0.06311 -0.07158 0.02185
v 0.06311 -0.07158 0.00817
v 0.06241 -0.07074 0.00817
v 0.06241 -0.07074 0.02185
v 0.06158 -0.07002 0.00817
v 0.06158 -0.07002 0.02185
v 0.06062 -0.06952 0.02185
v 0.06062 -0.06952 0.00817
v 0.05957 -0.06917 0.02186
v 0.05957 -0.06917 0.00816
v 0.0546 -0.07063 0.0083
v 0.05561 -0.06766 0.02884
v 0.05464 -0.0679 0.02884
v 0.05581 -0.06815 0.02884
v 0.05676 -0.06766 0.02888
v 0.05648 -0.06723 0.0289
v 0.05726 -0.06658 0.02895
v 0.05763 -0.06696 0.02892
v 0.05836 -0.06614 0.02904
v 0.05792 -0.06584 0.02907
v 0.05837 -0.06495 0.02921
v 0.05885 -0.06516 0.02918
v 0.0592 -0.06411 0.02932
v 0.05868 -0.064 0.02934
v 0.05877 -0.06302 0.02945
v 0.0593 -0.06303 0.02944
v 0.05922 -0.06193 0.02949
v 0.05869 -0.06203 0.02949
v 0.05889 -0.06089 0.02949
v 0.0584 -0.06109 0.02949
v 0.05795 -0.0602 0.02949
v 0.05839 -0.0599 0.02949
v 0.05732 -0.05944 0.02945
v 0.0577 -0.05907 0.02944
v 0.05686 -0.05835 0.02932
v 0.05656 -0.05879 0.02934
v 0.05569 -0.05833 0.02921
v 0.0559 -0.05784 0.02918
v 0.05485 -0.0575 0.02904
v 0.05474 -0.05802 0.02907
v 0.05376 -0.05793 0.02895
v 0.05377 -0.0574 0.02892
v 0.05267 -0.05748 0.02885
v 0.05277 -0.058 0.02887
v 0.05183 -0.0583 0.02884
v 0.05163 -0.05781 0.02884
v 0.05062 -0.05835 0.02884
v 0.05086 -0.05881 0.02884
v 0.04985 -0.05897 0.02884
v 0.05014 -0.05941 0.02884
v 0.05677 -0.06766 0.02409
v 0.05763 -0.06696 0.02409
v 0.05836 -0.06614 0.02409
v 0.05885 -0.06516 0.02409
v 0.0592 -0.06411 0.02409
v 0.0593 -0.06303 0.02409
v 0.05922 -0.06193 0.02409
v 0.05889 -0.06089 0.02409
v 0.05839 -0.0599 0.02409
v 0.0577 -0.05907 0.02409
v 0.05686 -0.05835 0.02409
v 0.0559 -0.05784 0.02409
v 0.05485 -0.0575 0.02409
v 0.05464 -0.0679 0.0016
v 0.05561 -0.06766 0.0016
v 0.05581 -0.06815 0.0016
v 0.05676 -0.06766 0.0016
v 0.05648 -0.06723 0.0016
v 0.05726 -0.06658 0.0016
v 0.05763 -0.06696 0.0016
v 0.0579 -0.06583 0.0016
v 0.05834 -0.06613 0.0016
v 0.05885 -0.06516 0.0016
v 0.05837 -0.06495 0.0016
v 0.05868 -0.06402 0.0016
v 0.0592 -0.06412 0.0016
v 0.0593 -0.06303 0.0016
v 0.05877 -0.06302 0.0016
v 0.0587 -0.06204 0.0016
v 0.05922 -0.06194 0.0016
v 0.05889 -0.06089 0.0016
v 0.0584 -0.06109 0.0016
v 0.05796 -0.06021 0.0016
v 0.0584 -0.05992 0.0016
v 0.0577 -0.05907 0.0016
v 0.05732 -0.05944 0.0016
v 0.05657 -0.0588 0.0016
v 0.05687 -0.05836 0.0016
v 0.0559 -0.05784 0.0016
v 0.05569 -0.05833 0.0016
v 0.05475 -0.058 0.0016
v 0.05486 -0.05748 0.0016
v 0.05377 -0.0574 0.0016
v 0.05376 -0.05793 0.0016
v 0.05277 -0.05801 0.0016
v 0.05267 -0.05749 0.0016
v 0.05163 -0.05781 0.0016
v 0.05183 -0.0583 0.0016
v 0.05062 -0.05835 0.0016
v 0.05086 -0.05881 0.0016
v 0.04985 -0.05897 0.0016
v 0.05014 -0.05941 0.0016
v 0.05678 -0.06765 0.00633
v 0.05763 -0.06696 0.00643
v 0.05834 -0.06613 0.00655
v 0.05885 -0.06516 0.00668
v 0.0592 -0.06412 0.00682
v 0.0593 -0.06303 0.00694
v 0.05922 -0.06194 0.00699
v 0.05889 -0.06089 0.00699
v 0.0584 -0.05992 0.00699
v 0.0577 -0.05907 0.00694
v 0.05687 -0.05836 0.00682
v 0.0559 -0.05784 0.00668
v 0.05486 -0.05748 0.00654
v 0.0556 -0.06766 0.02409
v 0.06197 -0.07825 0.02185
v 0.06121 -0.07889 0.02185
v 0.06262 -0.07751 0.02185
v 0.06033 -0.07933 0.02185
v 0.06308 -0.07663 0.02185
v 0.06339 -0.07569 0.02185
v 0.05931 -0.07963 0.02185
v 0.06348 -0.0747 0.02185
v 0.06343 -0.0737 0.02185
v 0.06312 -0.07276 0.02185
v 0.06266 -0.07187 0.02185
v 0.06204 -0.07111 0.02185
v 0.06128 -0.07046 0.02185
v 0.06041 -0.07001 0.02185
v 0.05946 -0.06969 0.02184
v 0.05848 -0.0696 0.02185
v 0.05848 -0.06907 0.02185
v 0.0574 -0.06916 0.0218
v 0.05744 -0.06968 0.02191
v 0.0564 -0.06947 0.02174
v 0.06121 -0.07889 0.00817
v 0.06197 -0.07825 0.00817
v 0.06033 -0.07933 0.00817
v 0.06262 -0.07751 0.00817
v 0.05931 -0.07963 0.00817
v 0.06308 -0.07663 0.00817
v 0.06339 -0.07569 0.00817
v 0.06348 -0.0747 0.00817
v 0.06343 -0.0737 0.00817
v 0.06312 -0.07276 0.00817
v 0.06266 -0.07187 0.00817
v 0.06204 -0.07111 0.00817
v 0.06128 -0.07046 0.00817
v 0.06041 -0.07001 0.00817
v 0.05946 -0.06969 0.00818
v 0.05848 -0.0696 0.00817
v 0.05848 -0.06907 0.00817
v 0.05738 -0.06917 0.00822
v 0.05746 -0.06968 0.00811
v 0.05636 -0.06948 0.00828
v 0.05726 -0.06658 0.00646
v 0.05646 -0.06724 0.00646
v 0.05557 -0.06769 0.00645
v 0.0579 -0.06583 0.00656
v 0.05462 -0.06792 0.00647
v 0.05837 -0.06495 0.00671
v 0.05868 -0.06402 0.00685
v 0.05877 -0.06302 0.00695
v 0.0587 -0.06204 0.00699
v 0.0584 -0.06109 0.00699
v 0.05796 -0.06021 0.00699
v 0.05732 -0.05944 0.00695
v 0.05657 -0.0588 0.00685
v 0.05569 -0.05833 0.00671
v 0.05475 -0.058 0.00657
v 0.05376 -0.05793 0.00646
v 0.05377 -0.0574 0.00643
v 0.05267 -0.05749 0.00636
v 0.05277 -0.05801 0.00637
v 0.05183 -0.0583 0.00634
v 0.05163 -0.05781 0.00634
v 0.05062 -0.05835 0.00634
v 0.05086 -0.05881 0.00634
v 0.04985 -0.05897 0.00634
v 0.05014 -0.05941 0.00634
v 0.05647 -0.06723 0.02409
v 0.05726 -0.06658 0.02409
v 0.05462 -0.06791 0.02409
v 0.05792 -0.06584 0.02409
v 0.05837 -0.06495 0.02409
v 0.05868 -0.064 0.02409
v 0.05877 -0.06302 0.02409
v 0.05869 -0.06203 0.02409
v 0.0584 -0.06109 0.02409
v 0.05795 -0.0602 0.02409
v 0.05732 -0.05944 0.02409
v 0.05656 -0.05879 0.02409
v 0.05569 -0.05833 0.02409
v 0.05474 -0.05802 0.02409
v 0.05377 -0.0574 0.02409
v 0.05376 -0.05793 0.02409
v 0.05277 -0.058 0.02409
v 0.05267 -0.05748 0.02409
v 0.05163 -0.05781 0.02409
v 0.05183 -0.0583 0.02409
v 0.05062 -0.05835 0.02409
v 0.05086 -0.05881 0.02409
v 0.04985 -0.05897 0.02409
v 0.05014 -0.05941 0.02409
v 0.05543 -0.06994 0.00829
v 0.05544 -0.06995 0.02173
vt 0.978027 0.241211
vt 0.962891 0.241333
vt 0.962891 0.242432
vt 0.978027 0.242432
vt 0.978027 0.243042
vt 0.962891 0.243042
vt 0.427734 0.032562
vt 0.42749 0.027267
vt 0.427002 0.027267
vt 0.427002 0.032562
vt 0.428711 0.032562
vt 0.428711 0.027267
vt 0.666992 0.223145
vt 0.667969 0.223145
vt 0.667969 0.218018
vt 0.666992 0.217773
vt 0.668945 0.223145
vt 0.668945 0.218018
vt 0.310547 0.779297
vt 0.311768 0.775391
vt 0.30957 0.774902
vt 0.311768 0.778809
vt 0.556641 0.003929
vt 0.555664 0.003841
vt 0.556641 0.007374
vt 0.554688 0.007717
vt 0.30957 0.779297
vt 0.554688 0.00351
vt 0.148193 0.236938
vt 0.147705 0.236694
vt 0.147705 0.240967
vt 0.148193 0.241455
vt 0.962891 0.238892
vt 0.978027 0.23877
vt 0.978027 0.237549
vt 0.962891 0.240112
vt 0.962891 0.237549
vt 0.978027 0.23999
vt 0.962891 0.236328
vt 0.978027 0.236328
vt 0.962891 0.235107
vt 0.978027 0.235107
vt 0.962891 0.233887
vt 0.978027 0.233887
vt 0.962891 0.232666
vt 0.978027 0.232666
vt 0.978027 0.231445
vt 0.962891 0.231445
vt 0.962891 0.230225
vt 0.978027 0.230225
vt 0.962891 0.229004
vt 0.978027 0.229004
vt 0.978027 0.227783
vt 0.962891 0.227783
vt 0.978027 0.226562
vt 0.962891 0.226562
vt 0.962891 0.225342
vt 0.978027 0.225342
vt 0.962891 0.224121
vt 0.978027 0.224121
vt 0.017166 0.008675
vt 0.017715 0.008316
vt 0.017715 0.004154
vt 0.017166 0.004513
vt 0.679199 0.081604
vt 0.678223 0.081604
vt 0.678223 0.082214
vt 0.677246 0.082214
vt 0.677246 0.081604
vt 0.679688 0.082214
vt 0.680664 0.082214
vt 0.680664 0.081604
vt 0.681641 0.081604
vt 0.681641 0.082214
vt 0.683105 0.082214
vt 0.683105 0.081604
vt 0.684082 0.081604
vt 0.684082 0.082214
vt 0.685547 0.082214
vt 0.685547 0.081604
vt 0.686523 0.081604
vt 0.686523 0.082214
vt 0.6875 0.082214
vt 0.6875 0.081604
vt 0.688965 0.082214
vt 0.688965 0.081604
vt 0.689941 0.081604
vt 0.689941 0.082214
vt 0.691406 0.081604
vt 0.691406 0.082214
vt 0.692383 0.082214
vt 0.692383 0.081604
vt 0.693359 0.081604
vt 0.693359 0.082214
vt 0.694824 0.082214
vt 0.694824 0.081604
vt 0.695801 0.081604
vt 0.695801 0.082214
vt 0.697266 0.082214
vt 0.697266 0.081604
vt 0.698242 0.081604
vt 0.698242 0.082214
vt 0.699707 0.082214
vt 0.699707 0.081604
vt 0.700684 0.082214
vt 0.700684 0.081604
vt 0.429932 0.032562
vt 0.429932 0.027267
vt 0.431152 0.032562
vt 0.431152 0.027222
vt 0.432373 0.032562
vt 0.432373 0.027176
vt 0.433594 0.032562
vt 0.433594 0.027039
vt 0.434814 0.032562
vt 0.434814 0.026886
vt 0.436035 0.032562
vt 0.436035 0.026718
vt 0.437256 0.032562
vt 0.437256 0.026596
vt 0.438477 0.032562
vt 0.438477 0.026535
vt 0.439697 0.032562
vt 0.439697 0.026535
vt 0.440918 0.032562
vt 0.440918 0.026535
vt 0.442139 0.026596
vt 0.442139 0.032562
vt 0.443359 0.026718
vt 0.443359 0.032562
vt 0.44458 0.026886
vt 0.44458 0.032562
vt 0.445801 0.027039
vt 0.445801 0.032562
vt 0.41626 0.005196
vt 0.41626 0.005795
vt 0.41748 0.005795
vt 0.41748 0.005196
vt 0.415283 0.005196
vt 0.415283 0.005795
vt 0.414062 0.005795
vt 0.414062 0.005196
vt 0.412842 0.005196
vt 0.412842 0.005795
vt 0.411865 0.005196
vt 0.411865 0.005795
vt 0.410645 0.005795
vt 0.410645 0.005196
vt 0.409424 0.005196
vt 0.409424 0.005795
vt 0.408203 0.005795
vt 0.408203 0.005196
vt 0.407227 0.005196
vt 0.407227 0.005795
vt 0.406006 0.005795
vt 0.406006 0.005196
vt 0.404785 0.005196
vt 0.404785 0.005795
vt 0.403809 0.005795
vt 0.403809 0.005196
vt 0.402588 0.005196
vt 0.402588 0.005795
vt 0.401367 0.005795
vt 0.401367 0.005196
vt 0.400391 0.005196
vt 0.400391 0.005795
vt 0.39917 0.005795
vt 0.39917 0.005196
vt 0.397949 0.005196
vt 0.397949 0.005795
vt 0.396729 0.005795
vt 0.396729 0.005196
vt 0.395508 0.005795
vt 0.395508 0.005196
vt 0.394531 0.005795
vt 0.394531 0.005196
vt 0.67041 0.223145
vt 0.67041 0.218018
vt 0.671387 0.223145
vt 0.671387 0.217896
vt 0.672852 0.223145
vt 0.672852 0.217773
vt 0.673828 0.223145
vt 0.673828 0.217651
vt 0.675293 0.223145
vt 0.675293 0.217529
vt 0.67627 0.223145
vt 0.67627 0.217285
vt 0.677734 0.223145
vt 0.677734 0.217163
vt 0.678711 0.223145
vt 0.678711 0.217163
vt 0.680176 0.223145
vt 0.680176 0.217163
vt 0.681152 0.223145
vt 0.681152 0.217163
vt 0.682617 0.217163
vt 0.682617 0.223145
vt 0.683594 0.217285
vt 0.683594 0.223145
vt 0.685059 0.217529
vt 0.685059 0.223145
vt 0.686035 0.217651
vt 0.686035 0.223145
vt 0.311768 0.774902
vt 0.30957 0.774414
vt 0.051147 0.24585
vt 0.051147 0.24646
vt 0.052307 0.24646
vt 0.049988 0.24646
vt 0.052307 0.24585
vt 0.049988 0.24585
vt 0.053436 0.24585
vt 0.048828 0.24585
vt 0.053436 0.24646
vt 0.048828 0.24646
vt 0.054626 0.24585
vt 0.047699 0.24646
vt 0.054688 0.24646
vt 0.055756 0.24585
vt 0.055756 0.24646
vt 0.047699 0.24585
vt 0.046539 0.24585
vt 0.04657 0.24646
vt 0.04541 0.24646
vt 0.04541 0.24585
vt 0.044281 0.24585
vt 0.044281 0.24646
vt 0.043121 0.24646
vt 0.043121 0.24585
vt 0.041992 0.24585
vt 0.041992 0.24646
vt 0.040833 0.24646
vt 0.040833 0.24585
vt 0.039673 0.24585
vt 0.039673 0.24646
vt 0.038513 0.24585
vt 0.038513 0.24646
vt 0.037354 0.24646
vt 0.037354 0.24585
vt 0.036194 0.24585
vt 0.036163 0.24646
vt 0.035126 0.24585
vt 0.035126 0.24646
vt 0.158691 0.00322
vt 0.157471 0.00322
vt 0.157471 0.003809
vt 0.15625 0.00322
vt 0.158691 0.003809
vt 0.15625 0.003809
vt 0.15979 0.003809
vt 0.155029 0.00322
vt 0.15979 0.00322
vt 0.155029 0.003809
vt 0.153931 0.00322
vt 0.153931 0.003809
vt 0.161011 0.00322
vt 0.161011 0.003809
vt 0.162109 0.003809
vt 0.162109 0.00322
vt 0.16333 0.00322
vt 0.16333 0.003809
vt 0.164551 0.003809
vt 0.164551 0.00322
vt 0.165649 0.00322
vt 0.165649 0.003809
vt 0.16687 0.003809
vt 0.16687 0.00322
vt 0.168091 0.00322
vt 0.168091 0.003809
vt 0.169189 0.003809
vt 0.169189 0.00322
vt 0.17041 0.00322
vt 0.17041 0.003809
vt 0.171509 0.00322
vt 0.171509 0.003809
vt 0.172729 0.003809
vt 0.172729 0.00322
vt 0.17395 0.00322
vt 0.17395 0.003809
vt 0.175049 0.003809
vt 0.175049 0.00322
vt 0.193359 0.357666
vt 0.192139 0.357666
vt 0.192261 0.358154
vt 0.191162 0.358154
vt 0.193359 0.358154
vt 0.19104 0.357666
vt 0.19458 0.358154
vt 0.189941 0.358154
vt 0.19458 0.357666
vt 0.189819 0.357666
vt 0.188721 0.358154
vt 0.188721 0.357666
vt 0.195801 0.357666
vt 0.195801 0.358154
vt 0.196899 0.358154
vt 0.196899 0.357666
vt 0.19812 0.357666
vt 0.19812 0.358154
vt 0.199341 0.358154
vt 0.199341 0.357666
vt 0.200439 0.358154
vt 0.200439 0.357666
vt 0.20166 0.357666
vt 0.20166 0.358154
vt 0.202881 0.357666
vt 0.202881 0.358154
vt 0.203979 0.358154
vt 0.203979 0.357666
vt 0.2052 0.357666
vt 0.2052 0.358154
vt 0.206421 0.358154
vt 0.206421 0.357666
vt 0.20752 0.357666
vt 0.20752 0.358154
vt 0.20874 0.358154
vt 0.20874 0.357666
vt 0.209839 0.357666
vt 0.209839 0.358154
vt 0.21106 0.358154
vt 0.211182 0.357666
vt 0.212158 0.358154
vt 0.212158 0.357666
vt 0.794922 0.007282
vt 0.795898 0.007282
vt 0.795898 0.00668
vt 0.796875 0.007282
vt 0.794922 0.00668
vt 0.796875 0.00668
vt 0.793945 0.007282
vt 0.797852 0.007282
vt 0.797852 0.00668
vt 0.799316 0.00668
vt 0.799316 0.007282
vt 0.800293 0.007282
vt 0.800293 0.00668
vt 0.801758 0.00668
vt 0.801758 0.007282
vt 0.802734 0.007282
vt 0.802734 0.00668
vt 0.803711 0.00668
vt 0.803711 0.007282
vt 0.805176 0.007282
vt 0.805176 0.00668
vt 0.806152 0.00668
vt 0.806152 0.007282
vt 0.807617 0.007282
vt 0.807617 0.00668
vt 0.808594 0.00668
vt 0.808594 0.007282
vt 0.810059 0.007282
vt 0.810059 0.00668
vt 0.811035 0.00668
vt 0.811035 0.007282
vt 0.812012 0.007282
vt 0.812012 0.00668
vt 0.813477 0.00668
vt 0.813477 0.007282
vt 0.814453 0.00668
vt 0.814453 0.007282
vt 0.815918 0.00668
vt 0.815918 0.007282
vt 0.793945 0.00668
vt 0.792969 0.00668
vt 0.792969 0.007282
vt 0.150513 0.237549
vt 0.150513 0.241333
vt 0.151001 0.240967
vt 0.151001 0.237305
vt 0.014931 0.008354
vt 0.014931 0.004955
vt 0.014366 0.008064
vt 0.014366 0.004662
vt 0.556641 0.007996
vt 0.554688 0.008369
vt 0.016006 0.004856
vt 0.149536 0.237305
vt 0.6875 0.217773
vt 0.6875 0.223145
vt 0.688477 0.217896
vt 0.688477 0.223145
vt 0.689941 0.223145
vt 0.689941 0.217896
vt 0.690918 0.223145
vt 0.690918 0.217896
vt 0.692383 0.223145
vt 0.692383 0.217896
vt 0.692871 0.217896
vt 0.692871 0.223145
vt 0.447021 0.027176
vt 0.447021 0.032562
vt 0.448486 0.027252
vt 0.448486 0.032562
vt 0.449463 0.032562
vt 0.449463 0.027267
vt 0.450928 0.032562
vt 0.450928 0.027267
vt 0.451904 0.032562
vt 0.451904 0.027267
vt 0.452637 0.027267
vt 0.452637 0.032562
vt 0.962891 0.2229
vt 0.978027 0.2229
vt 0.978027 0.221558
vt 0.962891 0.22168
vt 0.962891 0.220459
vt 0.978027 0.220459
vt 0.962891 0.21936
vt 0.978027 0.219238
vt 0.962891 0.218018
vt 0.978027 0.218018
vt 0.962891 0.217529
vt 0.978027 0.217529
vn 0.1875 -0.9823 0
vn -0.3526 -0.9358 0
vn -0.9825 -0.1862 0
vn -0.2792 -0.9602 0.0024
vn -0.3033 -0.9529 -0.0049
vn -0.9807 -0.1954 -0.0069
vn -0.9452 -0.3263 0.0075
vn -0.3018 -0.9534 0
vn -0.4059 -0.9139 0.0026
vn 0.1959 -0.9806 0.0023
vn 0.29 -0.5752 0.7649
vn 0.1319 -0.6819 0.7194
vn 0.1678 -0.6603 0.732
vn 0.3395 -0.6577 0.6724
vn 0.3129 -0.6049 -0.7323
vn 0.2621 -0.5226 -0.8113
vn 0.1664 -0.5945 -0.7867
vn 0.1311 -0.6184 -0.7749
vn 0.4129 -0.4698 0.7803
vn 0.3679 -0.4297 -0.8246
vn -0.868 -0.4801 0.1269
vn -0.8639 -0.4856 0.1334
vn -0.9397 -0.3416 -0.0178
vn -0.9452 -0.3248 -0.0331
vn 0.5497 -0.8354 0
vn 0.6995 -0.7147 0
vn 0.3648 -0.9311 0
vn 0.8259 -0.5638 0
vn 0.9204 -0.391 0
vn 0.9788 -0.2048 0
vn 0.9998 -0.021 0
vn 0.9825 0.1864 0.0011
vn 0.9228 0.3853 -0.0013
vn 0.836 0.5487 -0.0014
vn 0.836 0.5487 0.0014
vn 0.7154 0.6988 0.0014
vn 0.7154 0.6988 -0.0014
vn 0.5644 0.8255 0.0014
vn 0.5644 0.8255 -0.0014
vn 0.3883 0.9215 -0.0013
vn 0.205 0.9788 -0.0012
vn -0.9444 -0.2917 0.152
vn -0.9435 -0.2757 0.1838
vn -0.9258 -0.3768 -0.0313
vn -0.9183 -0.3907 -0.0644
vn -0.0181 -0.0131 0.9997
vn 0 -0.001 1
vn -0.0181 -0.009 0.9998
vn -0.0252 -0.0515 0.9984
vn -0.0318 -0.054 0.998
vn -0.0151 -0.0893 0.9959
vn -0.0107 -0.0889 0.996
vn -0.0202 -0.1356 0.9906
vn -0.0225 -0.1409 0.9898
vn -0.0022 -0.1406 0.9901
vn 0 -0.1403 0.9901
vn 0.0132 -0.1224 0.9924
vn 0.0155 -0.1251 0.992
vn 0.0149 -0.0755 0.997
vn 0.006 -0.019 0.9998
vn 0.004 -0.019 0.9998
vn -0.0111 0.0171 0.9998
vn -0.042 0.0636 0.9971
vn -0.0763 0.0968 0.9924
vn -0.0742 0.1016 0.9921
vn -0.0989 0.1012 0.9899
vn -0.0987 0.0987 0.9902
vn -0.11 0.0846 0.9903
vn -0.1128 0.0872 0.9898
vn -0.0878 0.0545 0.9946
vn -0.0832 0.0566 0.9949
vn -0.0557 0.0221 0.9982
vn -0.0624 0.0222 0.9978
vn -0.0089 0.003 1
vn -0.0059 -0.001 1
vn 0.3526 -0.9358 0
vn 0.691 -0.7228 0
vn 0.6939 -0.7201 0
vn 0.8281 -0.5606 0
vn 0.8323 -0.5544 0
vn 0.9255 -0.3786 0
vn 0.928 -0.3725 0
vn 0.9794 -0.2021 0
vn 0.981 -0.1941 0
vn 1 -0.0089 0
vn 1 -0.0049 0
vn 0.9825 0.1864 -0.0011
vn 0.9266 0.376 0.0013
vn 0.838 0.5456 0.0014
vn 0.838 0.5456 -0.0014
vn 0.7126 0.7015 -0.0014
vn 0.5706 0.8212 -0.0014
vn 0.3976 0.9175 -0.0013
vn 0.3914 0.9202 -0.0013
vn 0.2131 0.977 0.0012
vn 0.205 0.9788 0.0012
vn 0 -0.001 -1
vn 0.3504 -0.9366 0.0025
vn 0.3565 -0.9343 0.0025
vn 0.556 -0.8312 0
vn 0.6967 -0.7174 0
vn 0.7023 -0.7119 0
vn 0.923 -0.3848 0
vn 0.9279 0.3729 0.0013
vn 0.7181 0.696 -0.0014
vn 0.407 0.9134 -0.0013
vn 0.4039 0.9148 -0.0013
vn 0.2158 0.9764 -0.0012
vn 0.0039 -0.003 1
vn 0 -0.0069 1
vn -0.006 -0.0231 0.9997
vn -0.0082 -0.0357 0.9993
vn -0.0153 0.0254 0.9996
vn -0.0292 0.001 0.9996
vn -0.0482 0.1705 0.9842
vn -0.0377 0.2346 0.9714
vn -0.0833 0.3294 0.9405
vn -0.0685 0.3855 0.9202
vn 0.0039 -0.003 -1
vn 0 -0.0069 -1
vn -0.006 -0.0231 -0.9997
vn -0.0082 -0.0357 -0.9993
vn -0.0173 0.0234 -0.9996
vn -0.0302 -0.001 -0.9995
vn -0.0298 0.2134 -0.9765
vn 0.0154 0.2188 -0.9757
vn -0.1236 0.3301 -0.9358
vn -0.1624 0.3657 -0.9164
vn -0.0088 -0.1194 0.9928
vn 0.1108 -0.2435 0.9636
vn 0.0661 -0.2119 0.975
vn 0.1152 -0.3635 0.9245
vn -0.0333 -0.11 0.9934
vn 0.1313 -0.3843 0.9138
vn -0.0407 -0.1231 0.9916
vn 0.0827 -0.4257 0.9011
vn -0.0524 -0.1219 0.9912
vn 0.08 -0.4347 0.897
vn 0.0602 -0.4475 0.8923
vn 0.0632 -0.4518 0.8899
vn -0.0066 -0.1363 0.9906
vn 0 -0.1354 0.9908
vn 0.004 -0.021 0.9998
vn -0.0765 0.0993 0.9921
vn -0.1098 0.0821 0.9906
vn -0.0856 0.0567 0.9947
vn -0.0536 0.0242 0.9983
vn 0.174 0.8005 -0.5735
vn 0.4106 0.7839 -0.4658
vn 0.9207 0.3902 0.0064
vn 0.9668 0.2312 0.1086
vn 0.5415 0.7048 0.4582
vn 0.2479 0.7278 0.6394
vn 0.8687 0.4836 0.107
vn 0.9392 0.3433 -0.0038
vn -0.0753 0.42 -0.9044
vn -0.0723 0.4158 -0.9066
vn -0.0875 0.4405 -0.8935
vn -0.0907 0.4482 -0.8893
vn -0.2539 0.5311 0.8084
vn -0.1044 0.6307 0.7689
vn -0.1454 0.6072 0.7811
vn -0.3567 0.4423 0.8228
vn -0.297 0.6149 0.7305
vn -0.4127 0.5245 -0.7448
vn -0.173 0.6964 -0.6964
vn -0.3041 0.6097 -0.732
vn -0.1335 0.7185 -0.6825
vn -0.3339 0.6889 -0.6433
vn 0.001 1 -0.001
vn -0.0029 1 -0.001
vn -0.1838 0.983 -0.0011
vn -0.1864 0.9825 0.0011
vn -0.3883 0.9215 0.0013
vn -0.3883 0.9215 -0.0013
vn -0.5487 0.836 0.0014
vn -0.5487 0.836 -0.0014
vn -0.9106 0.4132 -0.0013
vn -0.9106 0.4132 0.0013
vn -0.8364 -0.5481 0
vn 0.0129 0.9999 0.001
vn 0.0089 1 -0.001
vn -0.1864 0.9825 -0.0011
vn -0.3914 0.9202 -0.0013
vn 0.0069 1 -0.001
vn 0.0049 1 -0.001
vn -0.1812 0.9834 0.0011
vn -0.3699 0.9291 0.0013
vn -0.5393 0.8421 0.0014
vn -0.5456 0.838 0.0014
vn -0.9303 0.3668 -0.0013
vn -0.9279 0.3729 0.0013
vn -0.8376 -0.5462 -0.0027
vn -0.9061 -0.4231 0.0026
o bullet_scaffold02__p1_c0
f 1/1/1 2/2/1 3/3/2
f 1/1/1 3/3/2 4/4/2
f 4/4/2 3/3/2 5/5/3
f 5/5/3 3/3/2 6/6/3
f 7/7/4 8/8/5 9/9/6
f 7/7/4 9/9/6 10/10/7
f 8/8/5 7/7/4 11/11/1
f 8/8/5 11/11/1 12/12/1
f 13/13/3 14/14/8 15/15/9
f 13/13/3 15/15/9 16/16/3
f 15/15/9 14/14/8 17/17/1
f 15/15/9 17/17/1 18/18/10
f 19/19/11 20/20/12 7/21/13
f 21/22/14 20/20/14 19/19/14
f 22/23/15 23/24/15 24/25/15
f 23/24/16 15/26/17 24/25/18
f 19/19/11 7/21/13 25/27/19
f 26/28/20 15/26/17 23/24/16
f 27/29/21 25/30/22 7/31/23
f 27/29/21 7/31/23 10/32/24
f 28/33/25 29/34/25 30/35/26
f 29/34/25 28/33/25 31/36/27
f 28/33/25 30/35/26 32/37/26
f 29/34/25 31/36/27 33/38/27
f 33/38/27 31/36/27 2/2/1
f 33/38/27 2/2/1 1/1/1
f 32/37/26 30/35/26 34/39/28
f 34/39/28 30/35/26 35/40/28
f 34/39/28 35/40/28 36/41/29
f 36/41/29 35/40/28 37/42/29
f 36/41/29 37/42/29 38/43/30
f 38/43/30 37/42/29 39/44/30
f 38/43/30 39/44/30 40/45/31
f 40/45/31 39/44/30 41/46/31
f 40/45/31 41/46/31 42/47/32
f 40/45/31 42/47/32 43/48/32
f 43/48/32 42/47/32 44/49/33
f 44/49/33 42/47/32 45/50/33
f 44/49/33 45/50/33 46/51/34
f 46/51/34 45/50/33 47/52/35
f 46/51/34 47/52/35 48/53/36
f 46/51/34 48/53/36 49/54/37
f 49/54/37 48/53/36 50/55/38
f 49/54/37 50/55/38 51/56/39
f 51/56/39 50/55/38 52/57/40
f 52/57/40 50/55/38 53/58/40
f 52/57/40 53/58/40 54/59/41
f 54/59/41 53/58/40 55/60/41
f 16/61/42 15/62/43 26/63/44
f 16/61/42 26/63/44 56/64/45
f 57/65/46 58/66/47 12/67/47
f 12/67/47 58/66/47 8/68/47
f 8/68/47 58/66/47 9/69/47
f 57/65/46 12/67/47 59/70/48
f 57/65/46 59/70/48 60/71/49
f 57/65/46 60/71/49 61/72/50
f 61/72/50 60/71/49 62/73/51
f 62/73/51 60/71/49 63/74/52
f 62/73/51 63/74/52 64/75/53
f 62/73/51 64/75/53 65/76/54
f 65/76/54 64/75/53 66/77/55
f 66/77/55 64/75/53 67/78/56
f 66/77/55 67/78/56 68/79/57
f 66/77/55 68/79/57 69/80/58
f 69/80/58 68/79/57 70/81/59
f 70/81/59 68/79/57 71/82/59
f 70/81/59 71/82/59 72/83/60
f 70/81/59 72/83/60 73/84/61
f 73/84/61 72/83/60 74/85/47
f 73/84/61 74/85/47 75/86/47
f 75/86/47 74/85/47 76/87/62
f 76/87/62 74/85/47 77/88/62
f 76/87/62 77/88/62 78/89/63
f 78/89/63 77/88/62 79/90/63
f 78/89/63 79/90/63 80/91/64
f 78/89/63 80/91/64 81/92/65
f 81/92/65 80/91/64 82/93/66
f 82/93/66 80/91/64 83/94/67
f 82/93/66 83/94/67 84/95/68
f 82/93/66 84/95/68 85/96/69
f 85/96/69 84/95/68 86/97/70
f 86/97/70 84/95/68 87/98/71
f 86/97/70 87/98/71 88/99/72
f 86/97/70 88/99/72 89/100/73
f 89/100/73 88/99/72 90/101/74
f 90/101/74 88/99/72 91/102/75
f 90/101/74 91/102/75 92/103/47
f 90/101/74 92/103/47 93/104/47
f 93/104/47 92/103/47 94/105/47
f 93/104/47 94/105/47 95/106/47
f 12/12/1 11/11/1 20/107/76
f 12/12/1 20/107/76 59/108/76
f 59/108/76 20/107/76 96/109/25
f 59/108/76 96/109/25 60/110/25
f 60/110/25 96/109/25 97/111/77
f 60/110/25 97/111/77 63/112/78
f 63/112/78 97/111/77 98/113/79
f 63/112/78 98/113/79 64/114/80
f 64/114/80 98/113/79 99/115/81
f 64/114/80 99/115/81 67/116/82
f 67/116/82 99/115/81 100/117/83
f 67/116/82 100/117/83 68/118/84
f 68/118/84 100/117/83 101/119/85
f 68/118/84 101/119/85 71/120/86
f 71/120/86 101/119/85 102/121/87
f 71/120/86 102/121/87 72/122/32
f 72/122/32 102/121/87 103/123/88
f 72/122/32 103/123/88 74/124/88
f 74/124/88 103/123/88 104/125/89
f 74/124/88 104/125/89 77/126/90
f 77/126/90 104/125/89 79/127/37
f 79/127/37 104/125/89 105/128/91
f 79/127/37 105/128/91 80/129/92
f 80/129/92 105/128/91 106/130/39
f 80/129/92 106/130/39 83/131/93
f 83/131/93 106/130/39 107/132/94
f 83/131/93 107/132/94 84/133/95
f 84/133/95 107/132/94 108/134/96
f 109/135/97 17/136/97 14/137/97
f 109/135/97 14/137/97 13/138/97
f 17/136/97 109/135/97 110/139/97
f 17/136/97 110/139/97 111/140/97
f 111/140/97 110/139/97 112/141/97
f 112/141/97 110/139/97 113/142/97
f 112/141/97 113/142/97 114/143/97
f 112/141/97 114/143/97 115/144/97
f 115/144/97 114/143/97 116/145/97
f 115/144/97 116/145/97 117/146/97
f 117/146/97 116/145/97 118/147/97
f 118/147/97 116/145/97 119/148/97
f 118/147/97 119/148/97 120/149/97
f 118/147/97 120/149/97 121/150/97
f 121/150/97 120/149/97 122/151/97
f 122/151/97 120/149/97 123/152/97
f 122/151/97 123/152/97 124/153/97
f 122/151/97 124/153/97 125/154/97
f 125/154/97 124/153/97 126/155/97
f 126/155/97 124/153/97 127/156/97
f 126/155/97 127/156/97 128/157/97
f 126/155/97 128/157/97 129/158/97
f 129/158/97 128/157/97 130/159/97
f 130/159/97 128/157/97 131/160/97
f 130/159/97 131/160/97 132/161/97
f 130/159/97 132/161/97 133/162/97
f 133/162/97 132/161/97 134/163/97
f 134/163/97 132/161/97 135/164/97
f 134/163/97 135/164/97 136/165/97
f 134/163/97 136/165/97 137/166/97
f 137/166/97 136/165/97 138/167/97
f 138/167/97 136/165/97 139/168/97
f 138/167/97 139/168/97 140/169/97
f 138/167/97 140/169/97 141/170/97
f 141/170/97 140/169/97 142/171/97
f 142/171/97 140/169/97 143/172/97
f 142/171/97 143/172/97 144/173/97
f 144/173/97 143/172/97 145/174/97
f 144/173/97 145/174/97 146/175/97
f 146/175/97 145/174/97 147/176/97
f 18/18/10 17/17/1 111/177/98
f 18/18/10 111/177/98 24/178/99
f 24/178/99 111/177/98 112/179/25
f 24/178/99 112/179/25 148/180/100
f 148/180/100 112/179/25 115/181/101
f 148/180/100 115/181/101 149/182/102
f 149/182/102 115/181/101 117/183/79
f 149/182/102 117/183/79 150/184/80
f 150/184/80 117/183/79 118/185/29
f 150/184/80 118/185/29 151/186/103
f 151/186/103 118/185/29 121/187/83
f 151/186/103 121/187/83 152/188/84
f 152/188/84 121/187/83 122/189/85
f 152/188/84 122/189/85 153/190/86
f 153/190/86 122/189/85 125/191/87
f 153/190/86 125/191/87 154/192/32
f 154/192/32 125/191/87 126/193/104
f 154/192/32 126/193/104 155/194/104
f 155/194/104 126/193/104 129/195/89
f 155/194/104 129/195/89 156/196/90
f 156/196/90 129/195/89 157/197/105
f 157/197/105 129/195/89 130/198/37
f 157/197/105 130/198/37 158/199/92
f 158/199/92 130/198/37 133/200/39
f 158/199/92 133/200/39 159/201/106
f 159/201/106 133/200/39 134/202/107
f 159/201/106 134/202/107 160/203/108
f 160/203/108 134/202/107 137/204/41
f 7/21/47 20/20/47 161/205/47
f 7/21/47 161/205/47 10/206/47
f 32/207/47 162/208/47 163/209/47
f 162/208/47 32/207/47 164/210/47
f 32/207/47 163/209/47 28/211/47
f 164/210/47 32/207/47 34/212/47
f 28/211/47 163/209/47 31/213/47
f 164/210/47 34/212/47 36/214/47
f 31/213/47 163/209/47 165/215/47
f 164/210/47 36/214/47 166/216/47
f 31/213/47 165/215/47 2/217/47
f 166/216/47 36/214/47 167/218/47
f 2/217/47 165/215/47 168/219/47
f 2/217/47 168/219/47 3/220/47
f 3/220/47 168/219/47 6/221/47
f 167/218/47 36/214/47 38/222/47
f 167/218/47 38/222/47 40/223/47
f 167/218/47 40/223/47 169/224/47
f 169/224/47 40/223/47 170/225/47
f 170/225/47 40/223/47 43/226/47
f 170/225/47 43/226/47 44/227/47
f 170/225/47 44/227/47 171/228/47
f 171/228/47 44/227/47 172/229/47
f 172/229/47 44/227/47 46/230/47
f 172/229/47 46/230/47 49/231/47
f 172/229/47 49/231/47 173/232/47
f 173/232/47 49/231/47 174/233/47
f 174/233/47 49/231/47 51/234/47
f 174/233/47 51/234/47 52/235/109
f 174/233/47 52/235/109 175/236/110
f 175/236/110 52/235/109 54/237/111
f 175/236/110 54/237/111 176/238/112
f 176/238/112 54/237/111 177/239/113
f 177/239/113 54/237/111 178/240/114
f 177/239/113 178/240/114 179/241/115
f 177/239/113 179/241/115 180/242/116
f 180/242/116 179/241/115 181/243/117
f 180/242/116 181/243/117 21/244/118
f 30/245/97 29/246/97 182/247/97
f 182/247/97 29/246/97 33/248/97
f 30/245/97 182/247/97 183/249/97
f 182/247/97 33/248/97 184/250/97
f 30/245/97 183/249/97 185/251/97
f 184/250/97 33/248/97 1/252/97
f 30/245/97 185/251/97 35/253/97
f 184/250/97 1/252/97 186/254/97
f 186/254/97 1/252/97 4/255/97
f 186/254/97 4/255/97 5/256/97
f 35/253/97 185/251/97 37/257/97
f 37/257/97 185/251/97 187/258/97
f 37/257/97 187/258/97 188/259/97
f 37/257/97 188/259/97 39/260/97
f 39/260/97 188/259/97 41/261/97
f 41/261/97 188/259/97 189/262/97
f 41/261/97 189/262/97 190/263/97
f 41/261/97 190/263/97 42/264/97
f 42/264/97 190/263/97 45/265/97
f 45/265/97 190/263/97 191/266/97
f 45/265/97 191/266/97 192/267/97
f 45/265/97 192/267/97 47/268/97
f 47/268/97 192/267/97 48/269/97
f 48/269/97 192/267/97 193/270/97
f 48/269/97 193/270/97 194/271/97
f 48/269/97 194/271/97 50/272/97
f 50/272/97 194/271/97 53/273/119
f 53/273/119 194/271/97 195/274/120
f 53/273/119 195/274/120 55/275/121
f 55/275/121 195/274/120 196/276/122
f 55/275/121 196/276/122 197/277/123
f 55/275/121 197/277/123 198/278/124
f 198/278/124 197/277/123 199/279/125
f 199/279/125 197/277/123 200/280/126
f 199/279/125 200/280/126 22/281/127
f 199/279/125 22/281/127 201/282/128
f 202/283/129 203/284/130 148/285/131
f 148/285/131 203/284/130 24/286/132
f 202/283/129 148/285/131 149/287/133
f 24/286/132 203/284/130 204/288/134
f 202/283/129 149/287/133 150/289/135
f 24/286/132 204/288/134 18/290/136
f 202/283/129 150/289/135 205/291/137
f 18/290/136 204/288/134 206/292/138
f 18/290/136 206/292/138 15/293/139
f 15/293/139 206/292/138 16/294/140
f 205/291/137 150/289/135 207/295/141
f 207/295/141 150/289/135 151/296/142
f 207/295/141 151/296/142 152/297/57
f 207/295/141 152/297/57 208/298/58
f 208/298/58 152/297/57 209/299/59
f 209/299/59 152/297/57 153/300/59
f 209/299/59 153/300/59 154/301/143
f 209/299/59 154/301/143 210/302/61
f 210/302/61 154/301/143 155/303/47
f 210/302/61 155/303/47 211/304/47
f 211/304/47 155/303/47 212/305/62
f 212/305/62 155/303/47 156/306/62
f 212/305/62 156/306/62 213/307/63
f 213/307/63 156/306/62 157/308/63
f 213/307/63 157/308/63 158/309/64
f 213/307/63 158/309/64 214/310/144
f 214/310/144 158/309/64 215/311/66
f 215/311/66 158/309/64 159/312/67
f 215/311/66 159/312/67 160/313/145
f 215/311/66 160/313/145 216/314/69
f 216/314/69 160/313/145 217/315/146
f 217/315/146 160/313/145 218/316/71
f 217/315/146 218/316/71 219/317/147
f 217/315/146 219/317/147 220/318/73
f 220/318/73 219/317/147 221/319/74
f 221/319/74 219/317/147 222/320/75
f 221/319/74 222/320/75 223/321/47
f 221/319/74 223/321/47 224/322/47
f 224/322/47 223/321/47 225/323/47
f 224/322/47 225/323/47 226/324/47
f 161/325/97 227/326/97 96/327/97
f 96/327/97 227/326/97 228/328/97
f 161/325/97 96/327/97 20/329/97
f 96/327/97 228/328/97 97/330/97
f 161/325/97 20/329/97 229/331/97
f 97/330/97 228/328/97 230/332/97
f 97/330/97 230/332/97 98/333/97
f 98/333/97 230/332/97 99/334/97
f 99/334/97 230/332/97 231/335/97
f 99/334/97 231/335/97 232/336/97
f 99/334/97 232/336/97 100/337/97
f 100/337/97 232/336/97 101/338/97
f 101/338/97 232/336/97 233/339/97
f 101/338/97 233/339/97 234/340/97
f 101/338/97 234/340/97 102/341/97
f 102/341/97 234/340/97 103/342/97
f 103/342/97 234/340/97 235/343/97
f 103/342/97 235/343/97 236/344/97
f 103/342/97 236/344/97 104/345/97
f 104/345/97 236/344/97 105/346/97
f 105/346/97 236/344/97 237/347/97
f 105/346/97 237/347/97 238/348/97
f 105/346/97 238/348/97 106/349/97
f 106/349/97 238/348/97 107/350/97
f 107/350/97 238/348/97 239/351/97
f 107/350/97 239/351/97 240/352/97
f 107/350/97 240/352/97 108/353/97
f 108/353/97 240/352/97 241/354/97
f 241/354/97 240/352/97 242/355/97
f 241/354/97 242/355/97 243/356/97
f 241/354/97 243/356/97 244/357/97
f 244/357/97 243/356/97 245/358/97
f 245/358/97 243/356/97 246/359/97
f 245/358/97 246/359/97 247/360/97
f 247/360/97 246/359/97 248/361/97
f 247/360/97 248/361/97 249/362/97
f 249/362/97 248/361/97 250/363/97
f 11/364/97 7/365/97 20/329/97
f 20/329/97 7/365/97 229/331/97
f 229/331/97 7/365/97 10/366/97
f 181/367/148 161/368/149 20/369/150
f 181/367/148 20/369/150 21/370/151
f 204/371/152 201/372/153 24/373/154
f 24/373/154 201/372/153 22/374/155
f 204/375/156 24/25/157 15/26/158
f 204/375/156 15/26/158 16/376/159
f 251/377/160 204/371/161 16/61/162
f 251/377/160 16/61/162 56/64/163
f 251/377/164 201/372/153 204/371/152
f 27/29/165 10/32/166 252/378/167
f 252/378/167 10/32/166 161/368/168
f 181/367/148 252/378/169 161/368/149
f 160/203/108 137/204/41 218/379/170
f 218/379/170 137/204/41 138/380/171
f 218/379/170 138/380/171 219/381/172
f 219/381/172 138/380/171 141/382/173
f 219/381/172 141/382/173 142/383/174
f 219/381/172 142/383/174 222/384/175
f 222/384/175 142/383/174 144/385/176
f 222/384/175 144/385/176 223/386/177
f 223/386/177 144/385/176 146/387/178
f 223/386/177 146/387/178 225/388/179
f 225/388/179 146/387/178 226/389/180
f 226/389/180 146/387/178 147/390/180
f 84/133/95 108/134/96 87/391/181
f 87/391/181 108/134/96 241/392/182
f 87/391/181 241/392/182 88/393/172
f 88/393/172 241/392/182 244/394/183
f 88/393/172 244/394/183 245/395/184
f 88/393/172 245/395/184 91/396/184
f 91/396/184 245/395/184 247/397/177
f 91/396/184 247/397/177 92/398/176
f 92/398/176 247/397/177 249/399/179
f 92/398/176 249/399/179 94/400/179
f 94/400/179 249/399/179 95/401/180
f 95/401/180 249/399/179 250/402/180
f 54/59/41 55/60/41 178/403/185
f 178/403/185 55/60/41 198/404/186
f 178/403/185 198/404/186 199/405/187
f 178/403/185 199/405/187 179/406/172
f 179/406/172 199/405/187 181/407/188
f 181/407/188 199/405/187 201/408/188
f 181/407/188 201/408/188 252/409/189
f 252/409/189 201/408/188 251/410/190
f 252/409/189 251/410/190 27/411/191
f 27/411/191 251/410/190 56/412/192
f 27/411/191 56/412/192 25/413/193
f 25/413/193 56/412/192 26/414/194
