# CS2 body mesh, tools/cs2_glb_to_obj.py
v 0.05569 0.07336 0.02918
v 0.05569 0.07336 0.02409
v 0.0546 0.0735 0.02904
v 0.0546 0.0735 0.02409
v 0.05351 0.07338 0.02892
v 0.05351 0.07338 0.02409
v 0.05245 0.0731 0.02885
v 0.05245 0.0731 0.02409
v 0.05149 0.07258 0.02409
v 0.05149 0.07258 0.02884
v 0.0506 0.07185 0.02409
v 0.0506 0.07185 0.02884
v 0.04997 0.0711 0.02409
v 0.04997 0.0711 0.02884
v 0.05033 0.07072 0.02884
v 0.05033 0.07072 0.02409
v 0.05569 0.07336 0.00668
v 0.05569 0.07336 0.0016
v 0.0546 0.07352 0.00654
v 0.0546 0.07352 0.0016
v 0.05351 0.07338 0.00643
v 0.05351 0.07338 0.0016
v 0.05245 0.07309 0.00636
v 0.05245 0.07309 0.0016
v 0.05149 0.07258 0.0016
v 0.05149 0.07258 0.00634
v 0.0506 0.07185 0.0016
v 0.0506 0.07185 0.00634
v 0.04997 0.0711 0.0016
v 0.04997 0.0711 0.00634
v 0.05033 0.07072 0.00634
v 0.05033 0.07072 0.0016
v 0.05854 0.06099 0.0218
v 0.05851 0.06099 0.00822
v 0.0575 0.06111 0.02174
v 0.05746 0.06112 0.00828
v 0.05643 0.06107 0.02173
v 0.05643 0.06108 0.00829
v 0.05535 0.06078 0.02172
v 0.05539 0.06079 0.0083
v 0.05543 0.06027 0.02199
v 0.0554 0.06026 0.00803
v 0.05751 0.06309 0.02409
v 0.05746 0.06308 0.00645
v 0.05755 0.06257 0.00623
v 0.05543 0.06305 0.00621
v 0.05555 0.06355 0.00648
v 0.05551 0.06356 0.02409
v 0.05921 0.07094 0.0016
v 0.05921 0.07094 0.00699
v 0.05973 0.06997 0.00699
v 0.05973 0.06997 0.0016
v 0.05854 0.0718 0.0016
v 0.06002 0.06892 0.00694
v 0.05854 0.0718 0.00699
v 0.06002 0.06892 0.0016
v 0.05769 0.0725 0.00694
v 0.06013 0.06782 0.00682
v 0.05769 0.0725 0.0016
v 0.06013 0.06782 0.0016
v 0.05675 0.07304 0.00682
v 0.05999 0.06674 0.00668
v 0.05675 0.07304 0.0016
v 0.05999 0.06674 0.0016
v 0.05967 0.06568 0.00655
v 0.05967 0.06568 0.0016
v 0.05913 0.06474 0.00643
v 0.05913 0.06474 0.0016
v 0.05843 0.0639 0.00633
v 0.05841 0.06388 0.0016
v 0.05761 0.06326 0.00623
v 0.05757 0.06322 0.0016
v 0.05663 0.0628 0.00622
v 0.05661 0.06278 0.0016
v 0.0556 0.06243 0.00621
v 0.0556 0.06243 0.0016
v 0.05921 0.07094 0.02409
v 0.05921 0.07094 0.02949
v 0.05973 0.06998 0.02949
v 0.05973 0.06998 0.02409
v 0.05853 0.07181 0.02409
v 0.06002 0.06892 0.02944
v 0.05853 0.07181 0.02949
v 0.06002 0.06892 0.02409
v 0.05769 0.0725 0.02944
v 0.06012 0.06784 0.02932
v 0.05769 0.0725 0.02409
v 0.06012 0.06784 0.02409
v 0.05673 0.07304 0.02932
v 0.05999 0.06674 0.02918
v 0.05673 0.07304 0.02409
v 0.05999 0.06674 0.02409
v 0.05969 0.06568 0.02904
v 0.05969 0.06568 0.02409
v 0.05913 0.06474 0.02892
v 0.05913 0.06474 0.02409
v 0.05841 0.06388 0.02888
v 0.05842 0.06389 0.02409
v 0.05757 0.06322 0.02884
v 0.05758 0.06323 0.02409
v 0.05661 0.06278 0.02884
v 0.05664 0.06279 0.02409
v 0.0556 0.06243 0.02884
v 0.05563 0.06245 0.02409
v 0.06272 0.05426 0.00817
v 0.06283 0.05535 0.00817
v 0.06283 0.05535 0.02185
v 0.06272 0.05426 0.02185
v 0.06277 0.05646 0.02185
v 0.06233 0.05324 0.02185
v 0.06277 0.05646 0.00817
v 0.06233 0.05324 0.00817
v 0.06248 0.0575 0.00817
v 0.06179 0.05228 0.00817
v 0.06248 0.0575 0.02185
v 0.06179 0.05228 0.02185
v 0.06201 0.0585 0.00817
v 0.06106 0.05147 0.00817
v 0.06201 0.0585 0.02185
v 0.06106 0.05147 0.02185
v 0.06133 0.05935 0.02185
v 0.06019 0.05079 0.00817
v 0.06133 0.05935 0.00817
v 0.06019 0.05079 0.02185
v 0.06052 0.0601 0.02186
v 0.05921 0.05032 0.00817
v 0.06052 0.0601 0.00816
v 0.05921 0.05032 0.02185
v 0.05814 0.05002 0.02185
v 0.05814 0.05002 0.00817
v 0.05956 0.06063 0.02185
v 0.05956 0.06063 0.00817
v 0.05742 0.0606 0.00805
v 0.05815 0.07144 0.02949
v 0.05876 0.07065 0.02949
v 0.05923 0.06978 0.02949
v 0.05739 0.07206 0.02945
v 0.05949 0.06882 0.02945
v 0.05652 0.07256 0.02934
v 0.05959 0.06784 0.02934
v 0.05558 0.07284 0.02921
v 0.05947 0.06685 0.02921
v 0.05459 0.07296 0.02907
v 0.0592 0.06589 0.02907
v 0.05361 0.07286 0.02895
v 0.05869 0.06504 0.02895
v 0.05265 0.0726 0.02887
v 0.05805 0.06426 0.0289
v 0.05178 0.07213 0.02884
v 0.05728 0.06367 0.02884
v 0.05093 0.07144 0.02884
v 0.05637 0.06324 0.02884
v 0.0554 0.06292 0.02884
v 0.05637 0.06324 0.0016
v 0.0554 0.06292 0.0016
v 0.05728 0.06367 0.0016
v 0.05805 0.06426 0.0016
v 0.05869 0.06504 0.0016
v 0.05918 0.0659 0.0016
v 0.05947 0.06685 0.0016
v 0.05959 0.06783 0.0016
v 0.05949 0.06882 0.0016
v 0.05924 0.06977 0.0016
v 0.05876 0.07065 0.0016
v 0.05816 0.07143 0.0016
v 0.05739 0.07206 0.0016
v 0.05654 0.07255 0.0016
v 0.05558 0.07284 0.0016
v 0.0546 0.07298 0.0016
v 0.05361 0.07286 0.0016
v 0.05265 0.0726 0.0016
v 0.05178 0.07213 0.0016
v 0.05093 0.07144 0.0016
v 0.05547 0.06304 0.02409
v 0.05751 0.06256 0.02409
v 0.05738 0.06061 0.02196
v 0.05902 0.05082 0.02185
v 0.05806 0.05055 0.02185
v 0.05991 0.05124 0.02185
v 0.05706 0.04997 0.02185
v 0.05708 0.0505 0.02185
v 0.06069 0.05186 0.02185
v 0.05596 0.05013 0.02185
v 0.06136 0.05259 0.02185
v 0.05603 0.05064 0.02185
v 0.05499 0.05046 0.02185
v 0.05511 0.05097 0.02185
v 0.06185 0.05346 0.02185
v 0.0622 0.05438 0.02185
v 0.0623 0.05537 0.02185
v 0.06225 0.05637 0.02185
v 0.06198 0.05732 0.02185
v 0.06156 0.05822 0.02185
v 0.06094 0.05899 0.02185
v 0.06021 0.05966 0.02184
v 0.05935 0.06014 0.02185
v 0.05837 0.0605 0.02191
v 0.05806 0.05055 0.00817
v 0.05706 0.04997 0.00817
v 0.05902 0.05082 0.00817
v 0.05708 0.0505 0.00817
v 0.05991 0.05124 0.00817
v 0.05596 0.05013 0.00817
v 0.05603 0.05064 0.00817
v 0.05499 0.05046 0.00817
v 0.05511 0.05097 0.00817
v 0.06069 0.05186 0.00817
v 0.06136 0.05259 0.00817
v 0.06185 0.05346 0.00817
v 0.0622 0.05438 0.00817
v 0.0623 0.05537 0.00817
v 0.06225 0.05637 0.00817
v 0.06198 0.05732 0.00817
v 0.06156 0.05822 0.00817
v 0.06094 0.05899 0.00817
v 0.06021 0.05966 0.00818
v 0.05935 0.06014 0.00817
v 0.05839 0.06049 0.00811
v 0.05727 0.06366 0.02409
v 0.05805 0.06425 0.02409
v 0.05869 0.06504 0.02409
v 0.05635 0.06323 0.02409
v 0.0592 0.06589 0.02409
v 0.05947 0.06685 0.02409
v 0.05959 0.06784 0.02409
v 0.05949 0.06882 0.02409
v 0.05923 0.06978 0.02409
v 0.05876 0.07065 0.02409
v 0.05815 0.07144 0.02409
v 0.05739 0.07206 0.02409
v 0.05652 0.07256 0.02409
v 0.05558 0.07284 0.02409
v 0.05459 0.07296 0.02409
v 0.05361 0.07286 0.02409
v 0.05265 0.0726 0.02409
v 0.05178 0.07213 0.02409
v 0.05093 0.07144 0.02409
v 0.05537 0.0629 0.02409
v 0.05816 0.07143 0.00699
v 0.05876 0.07065 0.00699
v 0.05924 0.06977 0.00699
v 0.05739 0.07206 0.00695
v 0.05949 0.06882 0.00695
v 0.05654 0.07255 0.00685
v 0.05959 0.06783 0.00685
v 0.05558 0.07284 0.00671
v 0.05947 0.06685 0.00671
v 0.0546 0.07298 0.00657
v 0.05918 0.06589 0.00656
v 0.05361 0.07286 0.00646
v 0.05869 0.06504 0.00646
v 0.05803 0.06424 0.00646
v 0.05265 0.0726 0.00637
v 0.05178 0.07213 0.00634
v 0.05093 0.07144 0.00634
v 0.05724 0.06363 0.00645
v 0.05636 0.06322 0.00647
v 0.0554 0.06292 0.00648
v 0.05641 0.06055 0.00804
v 0.05641 0.06056 0.02197
vt 0.187988 0.559082
vt 0.187988 0.564941
vt 0.189209 0.55957
vt 0.189209 0.564941
vt 0.19043 0.55957
vt 0.19043 0.564941
vt 0.19165 0.55957
vt 0.19165 0.564941
vt 0.192871 0.564941
vt 0.192871 0.55957
vt 0.194092 0.564941
vt 0.194092 0.55957
vt 0.19519 0.564941
vt 0.19519 0.55957
vt 0.195801 0.55957
vt 0.195801 0.564941
vt 0.75293 0.445312
vt 0.75293 0.450928
vt 0.754395 0.445557
vt 0.754395 0.450928
vt 0.755371 0.445557
vt 0.755371 0.450928
vt 0.756836 0.445557
vt 0.756836 0.450928
vt 0.757812 0.450928
vt 0.757812 0.445557
vt 0.759277 0.450928
vt 0.759277 0.445557
vt 0.760254 0.450928
vt 0.760254 0.445557
vt 0.760742 0.445557
vt 0.760742 0.450928
vt 0.962891 0.22168
vt 0.978027 0.221558
vt 0.962891 0.220459
vt 0.978027 0.220459
vt 0.962891 0.21936
vt 0.978027 0.219238
vt 0.962891 0.218018
vt 0.978027 0.218018
vt 0.962891 0.217529
vt 0.978027 0.217529
vt 0.150513 0.237549
vt 0.149536 0.237305
vt 0.150513 0.241333
vt 0.556641 0.007996
vt 0.556641 0.007374
vt 0.554688 0.007717
vt 0.554688 0.008369
vt 0.016006 0.004856
vt 0.014931 0.004955
vt 0.014931 0.008354
vt 0.148193 0.236938
vt 0.148193 0.241455
vt 0.017166 0.008675
vt 0.017166 0.004513
vt 0.748047 0.450928
vt 0.748047 0.444824
vt 0.74707 0.444824
vt 0.74707 0.450928
vt 0.749512 0.450928
vt 0.745605 0.445068
vt 0.749512 0.444824
vt 0.745605 0.450928
vt 0.750488 0.445068
vt 0.744629 0.445068
vt 0.750488 0.450928
vt 0.744629 0.450928
vt 0.751953 0.445068
vt 0.743164 0.445312
vt 0.751953 0.450928
vt 0.743164 0.450928
vt 0.742188 0.445557
vt 0.742188 0.450928
vt 0.740723 0.445557
vt 0.740723 0.450928
vt 0.739746 0.445801
vt 0.739746 0.450928
vt 0.738281 0.445801
vt 0.738281 0.450928
vt 0.737305 0.445801
vt 0.737305 0.450928
vt 0.73584 0.445801
vt 0.73584 0.450928
vt 0.182983 0.564941
vt 0.182983 0.559082
vt 0.181763 0.559082
vt 0.181763 0.564941
vt 0.184204 0.564941
vt 0.180542 0.559082
vt 0.184204 0.559082
vt 0.180542 0.564941
vt 0.185425 0.559082
vt 0.179321 0.559082
vt 0.185425 0.564941
vt 0.179321 0.564941
vt 0.186768 0.559082
vt 0.178101 0.559082
vt 0.186768 0.564941
vt 0.178101 0.564941
vt 0.17688 0.55957
vt 0.17688 0.564941
vt 0.175659 0.55957
vt 0.175659 0.564941
vt 0.174438 0.55957
vt 0.174438 0.564941
vt 0.173218 0.55957
vt 0.173218 0.564941
vt 0.171997 0.55957
vt 0.172119 0.564941
vt 0.170898 0.55957
vt 0.170898 0.564941
vt 0.978027 0.231445
vt 0.978027 0.230225
vt 0.962891 0.230225
vt 0.962891 0.231445
vt 0.962891 0.229004
vt 0.962891 0.232666
vt 0.978027 0.229004
vt 0.978027 0.232666
vt 0.978027 0.227783
vt 0.978027 0.233887
vt 0.962891 0.227783
vt 0.962891 0.233887
vt 0.978027 0.226562
vt 0.978027 0.235107
vt 0.962891 0.226562
vt 0.962891 0.235107
vt 0.962891 0.225342
vt 0.978027 0.236328
vt 0.978027 0.225342
vt 0.962891 0.236328
vt 0.962891 0.224121
vt 0.978027 0.237549
vt 0.978027 0.224121
vt 0.962891 0.237549
vt 0.962891 0.238892
vt 0.978027 0.23877
vt 0.962891 0.2229
vt 0.978027 0.2229
vt 0.014366 0.008064
vt 0.014366 0.004662
vt 0.920898 0.009171
vt 0.919922 0.009171
vt 0.919922 0.009766
vt 0.918945 0.009171
vt 0.920898 0.009766
vt 0.918945 0.009766
vt 0.922363 0.009171
vt 0.91748 0.009171
vt 0.922363 0.009766
vt 0.91748 0.009766
vt 0.92334 0.009766
vt 0.916504 0.009766
vt 0.92334 0.009171
vt 0.916504 0.009171
vt 0.924805 0.009171
vt 0.915039 0.009171
vt 0.924805 0.009766
vt 0.915039 0.009766
vt 0.925781 0.009766
vt 0.914062 0.009766
vt 0.925781 0.009171
vt 0.914062 0.009171
vt 0.926758 0.009171
vt 0.913086 0.009171
vt 0.926758 0.009766
vt 0.913086 0.009766
vt 0.928223 0.009766
vt 0.911621 0.009766
vt 0.928223 0.009171
vt 0.911621 0.009171
vt 0.929199 0.009171
vt 0.910645 0.009171
vt 0.929199 0.009766
vt 0.910645 0.009766
vt 0.930664 0.009766
vt 0.90918 0.009766
vt 0.930664 0.009171
vt 0.931641 0.009766
vt 0.931641 0.009171
vt 0.90918 0.009171
vt 0.908203 0.009766
vt 0.908203 0.009171
vt 0.755859 0.007675
vt 0.755859 0.00827
vt 0.756836 0.00827
vt 0.756836 0.007675
vt 0.754395 0.007675
vt 0.754395 0.00827
vt 0.753418 0.00827
vt 0.753418 0.007675
vt 0.752441 0.007675
vt 0.752441 0.00827
vt 0.750977 0.007675
vt 0.750977 0.00827
vt 0.75 0.00827
vt 0.75 0.007675
vt 0.749023 0.007675
vt 0.749023 0.00827
vt 0.747559 0.00827
vt 0.747559 0.007675
vt 0.746582 0.007675
vt 0.746582 0.00827
vt 0.745605 0.00827
vt 0.745605 0.007675
vt 0.744141 0.007675
vt 0.744141 0.00827
vt 0.743164 0.00827
vt 0.743164 0.007675
vt 0.742188 0.007675
vt 0.742188 0.00827
vt 0.740723 0.00827
vt 0.740723 0.007675
vt 0.739746 0.007675
vt 0.739746 0.00827
vt 0.738281 0.00827
vt 0.738281 0.007675
vt 0.737305 0.007675
vt 0.737305 0.00827
vt 0.736328 0.00827
vt 0.736328 0.007675
vt 0.734863 0.00827
vt 0.734863 0.007675
vt 0.733887 0.00827
vt 0.733887 0.007675
vt 0.30957 0.774902
vt 0.311768 0.775391
vt 0.311768 0.774902
vt 0.30957 0.774414
vt 0.151001 0.240967
vt 0.151001 0.237305
vt 0.051147 0.24585
vt 0.051147 0.24646
vt 0.052307 0.24646
vt 0.049988 0.24646
vt 0.052307 0.24585
vt 0.049988 0.24585
vt 0.053436 0.24585
vt 0.048828 0.24585
vt 0.053436 0.24646
vt 0.048828 0.24646
vt 0.054626 0.24585
vt 0.047699 0.24646
vt 0.054688 0.24646
vt 0.055756 0.24585
vt 0.055756 0.24646
vt 0.047699 0.24585
vt 0.046539 0.24585
vt 0.04657 0.24646
vt 0.04541 0.24646
vt 0.04541 0.24585
vt 0.044281 0.24585
vt 0.044281 0.24646
vt 0.043121 0.24646
vt 0.043121 0.24585
vt 0.041992 0.24585
vt 0.041992 0.24646
vt 0.040833 0.24646
vt 0.040833 0.24585
vt 0.039673 0.24585
vt 0.039673 0.24646
vt 0.038513 0.24585
vt 0.038513 0.24646
vt 0.037354 0.24646
vt 0.037354 0.24585
vt 0.036194 0.24585
vt 0.036163 0.24646
vt 0.035126 0.24585
vt 0.035126 0.24646
vt 0.158691 0.00322
vt 0.157471 0.00322
vt 0.157471 0.003809
vt 0.15625 0.00322
vt 0.158691 0.003809
vt 0.15625 0.003809
vt 0.15979 0.003809
vt 0.155029 0.00322
vt 0.15979 0.00322
vt 0.155029 0.003809
vt 0.153931 0.00322
vt 0.153931 0.003809
vt 0.161011 0.00322
vt 0.161011 0.003809
vt 0.162109 0.003809
vt 0.162109 0.00322
vt 0.16333 0.00322
vt 0.16333 0.003809
vt 0.164551 0.003809
vt 0.164551 0.00322
vt 0.165649 0.00322
vt 0.165649 0.003809
vt 0.16687 0.003809
vt 0.16687 0.00322
vt 0.168091 0.00322
vt 0.168091 0.003809
vt 0.169189 0.003809
vt 0.169189 0.00322
vt 0.17041 0.00322
vt 0.17041 0.003809
vt 0.171509 0.00322
vt 0.171509 0.003809
vt 0.172729 0.003809
vt 0.172729 0.00322
vt 0.17395 0.00322
vt 0.17395 0.003809
vt 0.175049 0.003809
vt 0.175049 0.00322
vt 0.017715 0.008316
vt 0.017715 0.004154
vt 0.424072 0.005795
vt 0.425049 0.005795
vt 0.424805 0.005192
vt 0.426025 0.005795
vt 0.423828 0.005192
vt 0.426025 0.005192
vt 0.423096 0.005795
vt 0.427246 0.005795
vt 0.427246 0.005192
vt 0.428467 0.005192
vt 0.428467 0.005795
vt 0.429688 0.005795
vt 0.429688 0.005192
vt 0.430664 0.005192
vt 0.430664 0.005795
vt 0.431885 0.005795
vt 0.431885 0.005192
vt 0.433105 0.005192
vt 0.433105 0.005795
vt 0.434326 0.005795
vt 0.434326 0.005192
vt 0.435547 0.005192
vt 0.435547 0.005795
vt 0.436768 0.005795
vt 0.436768 0.005192
vt 0.437744 0.005192
vt 0.437744 0.005795
vt 0.438965 0.005795
vt 0.438965 0.005192
vt 0.440186 0.005192
vt 0.440186 0.005795
vt 0.441406 0.005795
vt 0.441406 0.005192
vt 0.442627 0.005192
vt 0.442627 0.005795
vt 0.443848 0.005192
vt 0.443848 0.005795
vt 0.444824 0.005192
vt 0.444824 0.005795
vt 0.423096 0.005192
vt 0.422119 0.005192
vt 0.422119 0.005795
vt 0.359619 0.940918
vt 0.358398 0.940918
vt 0.358398 0.941406
vt 0.357178 0.940918
vt 0.359619 0.941406
vt 0.357178 0.941406
vt 0.36084 0.940918
vt 0.356201 0.940918
vt 0.36084 0.941406
vt 0.356201 0.941406
vt 0.362061 0.941406
vt 0.35498 0.941406
vt 0.362061 0.940918
vt 0.35498 0.940918
vt 0.363281 0.940918
vt 0.35376 0.940918
vt 0.363281 0.941406
vt 0.35376 0.941406
vt 0.364258 0.941406
vt 0.352539 0.941406
vt 0.364258 0.940918
vt 0.352539 0.940918
vt 0.365479 0.940918
vt 0.351318 0.940918
vt 0.365479 0.941406
vt 0.351318 0.941406
vt 0.366699 0.941406
vt 0.350098 0.941406
vt 0.350098 0.940918
vt 0.349121 0.941406
vt 0.366699 0.940918
vt 0.36792 0.940918
vt 0.36792 0.941406
vt 0.369141 0.941406
vt 0.369141 0.940918
vt 0.370117 0.941406
vt 0.370117 0.940918
vt 0.348877 0.940918
vt 0.3479 0.941406
vt 0.3479 0.940918
vt 0.34668 0.941406
vt 0.34668 0.940918
vt 0.147705 0.236694
vt 0.147705 0.240967
vt 0.554688 0.00351
vt 0.555664 0.003841
vt 0.310547 0.779297
vt 0.30957 0.779297
vt 0.556641 0.003929
vt 0.311768 0.778809
vt 0.735352 0.450928
vt 0.735352 0.445557
vt 0.170288 0.55957
vt 0.170288 0.564941
vt 0.962891 0.240112
vt 0.978027 0.23999
vt 0.962891 0.241333
vt 0.978027 0.241211
vt 0.962891 0.242432
vt 0.978027 0.242432
vt 0.978027 0.243042
vt 0.962891 0.243042
vn 0.2131 0.977 -0.0012
vn 0.2077 0.9782 -0.0012
vn 0.023 0.9997 -0.001
vn 0.0149 0.9999 -0.001
vn -0.1786 0.9839 -0.0011
vn -0.1838 0.983 -0.0011
vn -0.3668 0.9303 -0.0013
vn -0.3699 0.9291 -0.0013
vn -0.5581 0.8297 -0.0014
vn -0.6988 0.7154 0.0014
vn -0.9733 0.2295 0.0012
vn -0.716 -0.6981 0
vn 0.2267 0.974 -0.0012
vn 0.2213 0.9752 0.0012
vn 0.0251 0.9997 -0.001
vn -0.1891 0.982 -0.0011
vn -0.1943 0.9809 -0.0011
vn -0.9733 0.2295 -0.0012
vn 0.2323 0.9727 -0.0012
vn 0.235 0.972 0.0012
vn 0.0396 0.9992 0.001
vn -0.1505 0.9886 0.0011
vn -0.158 0.9874 0.0011
vn -0.7015 0.7126 -0.0014
vn -0.696 0.7181 0.0014
vn -0.9874 -0.1582 -0.0022
vn -0.9998 -0.019 0.002
vn 0.4856 0.6603 -0.5729
vn -0.0238 0.7658 -0.6426
vn 0.6931 0.5528 -0.4626
vn 0.1014 0.4152 -0.9041
vn 0.1011 0.4085 -0.9071
vn 0.0993 0.4377 -0.8936
vn 0.0995 0.4444 -0.8903
vn -0.0239 0.6812 0.7317
vn 0.5213 0.5652 0.6394
vn 0.7795 0.4247 0.4605
vn -0.1626 0.6458 -0.746
vn 0.1239 0.7061 -0.6972
vn -0.0296 0.681 -0.7317
vn 0.1696 0.7105 -0.683
vn -0.018 0.5877 0.8089
vn 0.1621 0.6196 0.768
vn 0.1167 0.613 0.7814
vn -0.1438 0.55 0.8227
vn 0.8401 0.5425 -0.0014
vn 0.9291 0.3699 -0.0013
vn 0.9291 0.3699 0.0013
vn 0.7181 0.696 0.0014
vn 0.983 0.1838 0.0011
vn 0.7181 0.696 -0.0014
vn 0.9834 0.1812 0.0011
vn 0.5706 0.8212 0.0014
vn 1 -0.0029 0
vn 0.5675 0.8234 0.0014
vn 0.9999 -0.0109 0
vn 0.4039 0.9148 0.0013
vn 0.9794 -0.2021 0
vn 0.3976 0.9175 0.0013
vn 0.9782 -0.2075 0
vn 0.923 -0.3848 0
vn 0.9191 -0.3941 0
vn 0.8259 -0.5638 0
vn 0.8195 -0.5731 0
vn 0.7023 -0.7119 0
vn 0.6995 -0.7147 0
vn 0.5289 -0.8487 0.0027
vn 0.5226 -0.8526 0.0027
vn 0.378 -0.9258 0.0026
vn 0.371 -0.9287 0
vn -0.2229 -0.9748 0.0023
vn -0.1148 -0.9934 0
vn 0.838 0.5456 -0.0014
vn 0.983 0.1838 -0.0011
vn 0.5706 0.8212 -0.0014
vn 0.4039 0.9148 -0.0013
vn 0.982 -0.1888 0
vn 0.3976 0.9175 -0.0013
vn 0.9804 -0.1968 0
vn 0.8173 -0.5762 0
vn 0.8151 -0.5793 0
vn 0.5245 -0.8514 0
vn -0.1153 -0.9933 -0.0044
vn -0.0893 -0.996 0.0021
vn 0.9734 -0.2292 0
vn 0.9997 -0.023 0
vn 0.987 0.1606 0.0011
vn 0.9051 -0.4252 0
vn 0.987 0.1606 -0.0011
vn 0.9373 0.3485 -0.0013
vn 0.8107 -0.5855 0
vn 0.9373 0.3485 0.0013
vn 0.85 0.5267 -0.0013
vn 0.6825 -0.7309 0
vn 0.85 0.5267 0.0013
vn 0.7316 0.6818 -0.0014
vn 0.5277 -0.8494 0
vn 0.5861 0.8102 -0.0014
vn 0.3496 -0.9369 0
vn 0.1617 -0.9868 0
vn 0.4132 0.9106 -0.0013
vn 0.9901 0.0894 0.108
vn 0.9975 -0.0702 -0.0042
vn -0.0131 0.0151 0.9998
vn 0 -0.001 1
vn 0.008 -0.0191 0.9998
vn -0.0529 0.0551 0.9971
vn 0.0279 -0.0718 0.997
vn 0.03 -0.0697 0.9971
vn -0.0925 0.0834 0.9922
vn 0.0359 -0.1201 0.9921
vn 0.0382 -0.1203 0.992
vn -0.117 0.0776 0.9901
vn 0.0248 -0.1387 0.99
vn -0.1147 0.0799 0.9902
vn -0.1228 0.0608 0.9906
vn 0.0066 -0.1363 0.9906
vn -0.1282 0.0635 0.9897
vn 0.0067 -0.1413 0.9899
vn -0.096 0.0386 0.9946
vn 0.0043 -0.0906 0.9959
vn -0.0936 0.0386 0.9949
vn 0.0064 -0.0885 0.9961
vn -0.0575 0.0136 0.9983
vn -0.0146 -0.0553 0.9984
vn -0.0661 0.0094 0.9978
vn -0.0211 -0.0601 0.998
vn -0.0089 0.001 1
vn -0.0141 -0.0171 0.9998
vn -0.0059 -0.003 1
vn -0.0161 -0.011 0.9998
vn 0 -0.001 -1
vn 0.9998 -0.019 0.006
vn 0.9772 -0.1823 0.1091
vn 0.0039 -0.003 1
vn -0.002 -0.0049 1
vn -0.0141 -0.0192 0.9997
vn -0.0205 -0.0298 0.9993
vn -0.0051 0.0293 0.9996
vn -0.0275 0.0132 0.9995
vn 0.0243 0.1773 0.9839
vn 0.063 0.2284 0.9715
vn 0.0587 0.3352 0.9403
vn 0.0941 0.3803 0.9201
vn 0.0039 -0.003 -1
vn -0.002 -0.0049 -1
vn -0.0142 -0.0212 -0.9997
vn -0.0226 -0.0298 -0.9993
vn -0.0051 0.0293 -0.9996
vn -0.0275 0.0132 -0.9995
vn 0.0596 0.2079 -0.9763
vn 0.1034 0.1955 -0.9752
vn 0.0192 0.3512 -0.9361
vn -0.0013 0.4008 -0.9162
vn -0.9814 0.1161 0.1528
vn -0.9736 0.1326 0.1856
vn -0.999 0.0322 -0.0301
vn -0.9978 0.0158 -0.0643
vn 0.008 -0.017 0.9998
vn -0.0131 0.0171 0.9998
vn -0.0948 0.0811 0.9922
vn 0.0358 -0.1176 0.9924
vn -0.0927 0.0858 0.992
vn 0.0202 -0.1356 0.9906
vn 0.027 -0.1315 0.991
vn -0.0178 -0.1278 0.9916
vn -0.0269 -0.129 0.9913
vn -0.0958 0.0364 0.9947
vn 0.0154 -0.1178 0.9929
vn -0.0915 0.0408 0.995
vn -0.0109 -0.1149 0.9933
vn 0.1073 -0.1933 0.9753
vn 0.1567 -0.2155 0.9638
vn 0.1832 -0.334 0.9246
vn -0.064 0.0115 0.9979
vn 0.204 -0.3519 0.9135
vn 0.1605 -0.4055 0.8999
vn 0.1609 -0.4124 0.8967
vn 0.1462 -0.4286 0.8916
vn 0.1494 -0.4295 0.8906
vn -0.9881 -0.0833 0.1291
vn -0.9866 -0.0913 0.1352
vn -0.9973 0.0712 -0.0181
vn -0.9957 0.0862 -0.0338
vn 0.1613 -0.5423 -0.8246
vn -0.0902 -0.6123 -0.7854
vn 0.025 -0.5846 -0.8109
vn -0.1311 -0.6184 -0.7749
vn 0.0338 -0.6412 0.7666
vn -0.158 -0.6759 0.7199
vn -0.1158 -0.6697 0.7335
vn 0.1865 -0.5978 0.7797
vn 0.0397 -0.6798 -0.7323
vn 0.0456 -0.7363 0.6751
vn -0.9293 -0.3694 0
vn -0.9257 -0.3782 -0.0077
vn -0.8653 -0.5012 0.0081
vn -0.047 -0.9989 0
vn -0.2279 -0.9737 0
vn -0.7023 -0.7119 0
vn -0.974 0.2267 0.0012
o bullet_scaffold13__p1_c0
f 1/1/1 2/2/2 3/3/3
f 3/3/3 2/2/2 4/4/4
f 3/3/3 4/4/4 5/5/5
f 5/5/5 4/4/4 6/6/6
f 5/5/5 6/6/6 7/7/7
f 7/7/7 6/6/6 8/8/8
f 7/7/7 8/8/8 9/9/9
f 7/7/7 9/9/9 10/10/9
f 10/10/9 9/9/9 11/11/10
f 10/10/9 11/11/10 12/12/10
f 12/12/10 11/11/10 13/13/11
f 12/12/10 13/13/11 14/14/11
f 14/14/11 13/13/11 15/15/12
f 15/15/12 13/13/11 16/16/12
f 17/17/13 18/18/14 19/19/15
f 19/19/15 18/18/14 20/20/4
f 19/19/15 20/20/4 21/21/16
f 21/21/16 20/20/4 22/22/17
f 21/21/16 22/22/17 23/23/7
f 23/23/7 22/22/17 24/24/8
f 23/23/7 24/24/8 25/25/9
f 23/23/7 25/25/9 26/26/9
f 26/26/9 25/25/9 27/27/10
f 26/26/9 27/27/10 28/28/10
f 28/28/10 27/27/10 29/29/18
f 28/28/10 29/29/18 30/30/11
f 30/30/11 29/29/18 31/31/12
f 31/31/12 29/29/18 32/32/12
f 33/33/19 34/34/20 35/35/21
f 35/35/21 34/34/20 36/36/21
f 35/35/21 36/36/21 37/37/22
f 37/37/22 36/36/21 38/38/23
f 37/37/22 38/38/23 39/39/24
f 39/39/24 38/38/23 40/40/25
f 39/39/24 40/40/25 41/41/26
f 41/41/26 40/40/25 42/42/27
f 35/43/28 37/44/29 43/45/30
f 44/46/31 45/47/32 46/48/33
f 44/46/31 46/48/33 47/49/34
f 38/50/35 36/51/36 44/52/37
f 39/53/38 48/54/39 37/44/40
f 37/44/40 48/54/39 43/45/41
f 38/50/42 44/52/43 47/55/44
f 38/50/42 47/55/44 40/56/45
f 49/57/46 50/58/46 51/59/47
f 49/57/46 51/59/47 52/60/48
f 50/58/46 49/57/46 53/61/49
f 52/60/48 51/59/47 54/62/50
f 50/58/46 53/61/49 55/63/51
f 52/60/48 54/62/50 56/64/52
f 55/63/51 53/61/49 57/65/53
f 56/64/52 54/62/50 58/66/54
f 57/65/53 53/61/49 59/67/55
f 56/64/52 58/66/54 60/68/56
f 57/65/53 59/67/55 61/69/57
f 60/68/56 58/66/54 62/70/58
f 61/69/57 59/67/55 63/71/59
f 61/69/57 63/71/59 17/17/13
f 17/17/13 63/71/59 18/18/14
f 60/68/56 62/70/58 64/72/60
f 64/72/60 62/70/58 65/73/61
f 64/72/60 65/73/61 66/74/62
f 66/74/62 65/73/61 67/75/63
f 66/74/62 67/75/63 68/76/64
f 68/76/64 67/75/63 69/77/65
f 68/76/64 69/77/65 70/78/66
f 70/78/66 69/77/65 71/79/67
f 70/78/66 71/79/67 72/80/68
f 72/80/68 71/79/67 73/81/69
f 72/80/68 73/81/69 74/82/70
f 74/82/70 73/81/69 75/83/71
f 74/82/70 75/83/71 76/84/72
f 77/85/73 78/86/73 79/87/47
f 77/85/73 79/87/47 80/88/47
f 78/86/73 77/85/73 81/89/49
f 80/88/47 79/87/47 82/90/74
f 78/86/73 81/89/49 83/91/51
f 80/88/47 82/90/74 84/92/52
f 83/91/51 81/89/49 85/93/75
f 84/92/52 82/90/74 86/94/54
f 85/93/75 81/89/49 87/95/55
f 84/92/52 86/94/54 88/96/56
f 85/93/75 87/95/55 89/97/76
f 88/96/56 86/94/54 90/98/77
f 89/97/76 87/95/55 91/99/78
f 89/97/76 91/99/78 1/1/1
f 1/1/1 91/99/78 2/2/2
f 88/96/56 90/98/77 92/100/79
f 92/100/79 90/98/77 93/101/61
f 92/100/79 93/101/61 94/102/62
f 94/102/62 93/101/61 95/103/80
f 94/102/62 95/103/80 96/104/81
f 96/104/81 95/103/80 97/105/66
f 96/104/81 97/105/66 98/106/66
f 98/106/66 97/105/66 99/107/82
f 98/106/66 99/107/82 100/108/82
f 100/108/82 99/107/82 101/109/70
f 100/108/82 101/109/70 102/110/70
f 102/110/70 101/109/70 103/111/83
f 102/110/70 103/111/83 104/112/84
f 105/113/85 106/114/86 107/115/86
f 105/113/85 107/115/86 108/116/85
f 107/115/86 106/114/86 109/117/87
f 105/113/85 108/116/85 110/118/88
f 109/117/87 106/114/86 111/119/89
f 105/113/85 110/118/88 112/120/88
f 109/117/87 111/119/89 113/121/90
f 112/120/88 110/118/88 114/122/91
f 109/117/87 113/121/90 115/123/92
f 114/122/91 110/118/88 116/124/91
f 115/123/92 113/121/90 117/125/93
f 114/122/91 116/124/91 118/126/94
f 115/123/92 117/125/93 119/127/95
f 118/126/94 116/124/91 120/128/94
f 119/127/95 117/125/93 121/129/96
f 118/126/94 120/128/94 122/130/97
f 121/129/96 117/125/93 123/131/96
f 122/130/97 120/128/94 124/132/97
f 121/129/96 123/131/96 125/133/98
f 122/130/97 124/132/97 126/134/99
f 125/133/98 123/131/96 127/135/98
f 126/134/99 124/132/97 128/136/99
f 126/134/99 128/136/99 129/137/100
f 126/134/99 129/137/100 130/138/100
f 125/133/98 127/135/98 131/139/101
f 131/139/101 127/135/98 132/140/101
f 131/139/101 132/140/101 34/34/20
f 131/139/101 34/34/20 33/33/19
f 44/52/37 36/51/36 45/141/102
f 45/141/102 36/51/36 133/142/103
f 134/143/104 135/144/105 78/145/105
f 78/145/105 135/144/105 136/146/106
f 134/143/104 78/145/105 83/147/104
f 78/145/105 136/146/106 79/148/106
f 134/143/104 83/147/104 137/149/107
f 79/148/106 136/146/106 138/150/108
f 137/149/107 83/147/104 85/151/107
f 79/148/106 138/150/108 82/152/109
f 137/149/107 85/151/107 89/153/110
f 82/152/109 138/150/108 86/154/111
f 137/149/107 89/153/110 139/155/110
f 86/154/111 138/150/108 140/156/112
f 139/155/110 89/153/110 141/157/113
f 86/154/111 140/156/112 142/158/114
f 141/157/113 89/153/110 1/159/115
f 86/154/111 142/158/114 90/160/114
f 141/157/113 1/159/115 3/161/116
f 90/160/114 142/158/114 93/162/117
f 141/157/113 3/161/116 143/163/118
f 93/162/117 142/158/114 144/164/119
f 143/163/118 3/161/116 145/165/120
f 93/162/117 144/164/119 146/166/121
f 145/165/120 3/161/116 5/167/122
f 93/162/117 146/166/121 95/168/123
f 145/165/120 5/167/122 7/169/124
f 95/168/123 146/166/121 97/170/125
f 145/165/120 7/169/124 147/171/126
f 97/170/125 146/166/121 148/172/127
f 147/171/126 7/169/124 149/173/128
f 97/170/125 148/172/127 150/174/129
f 149/173/128 7/169/124 10/175/130
f 97/170/125 150/174/129 99/176/131
f 149/173/128 10/175/130 12/177/105
f 99/176/131 150/174/129 101/178/105
f 149/173/128 12/177/105 151/179/105
f 151/179/105 12/177/105 14/180/105
f 151/179/105 14/180/105 15/181/105
f 101/178/105 150/174/129 152/182/105
f 101/178/105 152/182/105 103/183/105
f 103/183/105 152/182/105 153/184/105
f 154/185/132 74/186/132 76/187/132
f 154/185/132 76/187/132 155/188/132
f 74/186/132 154/185/132 156/189/132
f 74/186/132 156/189/132 72/190/132
f 72/190/132 156/189/132 70/191/132
f 70/191/132 156/189/132 157/192/132
f 70/191/132 157/192/132 158/193/132
f 70/191/132 158/193/132 68/194/132
f 68/194/132 158/193/132 159/195/132
f 68/194/132 159/195/132 66/196/132
f 66/196/132 159/195/132 64/197/132
f 64/197/132 159/195/132 160/198/132
f 64/197/132 160/198/132 161/199/132
f 64/197/132 161/199/132 60/200/132
f 60/200/132 161/199/132 56/201/132
f 56/201/132 161/199/132 162/202/132
f 56/201/132 162/202/132 163/203/132
f 56/201/132 163/203/132 52/204/132
f 52/204/132 163/203/132 49/205/132
f 49/205/132 163/203/132 164/206/132
f 49/205/132 164/206/132 165/207/132
f 49/205/132 165/207/132 53/208/132
f 53/208/132 165/207/132 59/209/132
f 59/209/132 165/207/132 166/210/132
f 59/209/132 166/210/132 167/211/132
f 59/209/132 167/211/132 63/212/132
f 63/212/132 167/211/132 18/213/132
f 18/213/132 167/211/132 168/214/132
f 18/213/132 168/214/132 169/215/132
f 18/213/132 169/215/132 20/216/132
f 20/216/132 169/215/132 22/217/132
f 22/217/132 169/215/132 170/218/132
f 22/217/132 170/218/132 171/219/132
f 22/217/132 171/219/132 24/220/132
f 24/220/132 171/219/132 25/221/132
f 25/221/132 171/219/132 172/222/132
f 25/221/132 172/222/132 27/223/132
f 27/223/132 172/222/132 173/224/132
f 27/223/132 173/224/132 29/225/132
f 29/225/132 173/224/132 32/226/132
f 174/227/105 175/228/105 43/229/105
f 174/227/105 43/229/105 48/230/105
f 35/43/28 43/45/30 175/231/133
f 35/43/28 175/231/133 176/232/134
f 128/233/105 177/234/105 178/235/105
f 177/234/105 128/233/105 179/236/105
f 128/233/105 178/235/105 129/237/105
f 179/236/105 128/233/105 124/238/105
f 129/237/105 178/235/105 180/239/105
f 179/236/105 124/238/105 120/240/105
f 180/239/105 178/235/105 181/241/105
f 179/236/105 120/240/105 182/242/105
f 180/239/105 181/241/105 183/243/105
f 182/242/105 120/240/105 184/244/105
f 183/243/105 181/241/105 185/245/105
f 183/243/105 185/245/105 186/246/105
f 186/246/105 185/245/105 187/247/105
f 184/244/105 120/240/105 116/248/105
f 184/244/105 116/248/105 110/249/105
f 184/244/105 110/249/105 188/250/105
f 188/250/105 110/249/105 189/251/105
f 189/251/105 110/249/105 108/252/105
f 189/251/105 108/252/105 107/253/105
f 189/251/105 107/253/105 190/254/105
f 190/254/105 107/253/105 191/255/105
f 191/255/105 107/253/105 109/256/105
f 191/255/105 109/256/105 115/257/105
f 191/255/105 115/257/105 192/258/105
f 192/258/105 115/257/105 193/259/105
f 193/259/105 115/257/105 119/260/105
f 193/259/105 119/260/105 121/261/135
f 193/259/105 121/261/135 194/262/136
f 194/262/136 121/261/135 125/263/137
f 194/262/136 125/263/137 195/264/138
f 195/264/138 125/263/137 196/265/139
f 196/265/139 125/263/137 131/266/140
f 196/265/139 131/266/140 33/267/141
f 196/265/139 33/267/141 197/268/142
f 197/268/142 33/267/141 35/269/143
f 197/268/142 35/269/143 176/270/144
f 126/271/132 130/272/132 198/273/132
f 198/273/132 130/272/132 199/274/132
f 126/271/132 198/273/132 200/275/132
f 198/273/132 199/274/132 201/276/132
f 126/271/132 200/275/132 202/277/132
f 201/276/132 199/274/132 203/278/132
f 126/271/132 202/277/132 122/279/132
f 201/276/132 203/278/132 204/280/132
f 204/280/132 203/278/132 205/281/132
f 204/280/132 205/281/132 206/282/132
f 122/279/132 202/277/132 118/283/132
f 118/283/132 202/277/132 207/284/132
f 118/283/132 207/284/132 208/285/132
f 118/283/132 208/285/132 114/286/132
f 114/286/132 208/285/132 112/287/132
f 112/287/132 208/285/132 209/288/132
f 112/287/132 209/288/132 210/289/132
f 112/287/132 210/289/132 105/290/132
f 105/290/132 210/289/132 106/291/132
f 106/291/132 210/289/132 211/292/132
f 106/291/132 211/292/132 212/293/132
f 106/291/132 212/293/132 111/294/132
f 111/294/132 212/293/132 113/295/132
f 113/295/132 212/293/132 213/296/132
f 113/295/132 213/296/132 214/297/132
f 113/295/132 214/297/132 117/298/132
f 117/298/132 214/297/132 123/299/145
f 123/299/145 214/297/132 215/300/146
f 123/299/145 215/300/146 127/301/147
f 127/301/147 215/300/146 216/302/148
f 127/301/147 216/302/148 217/303/149
f 127/301/147 217/303/149 132/304/150
f 132/304/150 217/303/149 34/305/151
f 34/305/151 217/303/149 218/306/152
f 34/305/151 218/306/152 133/307/153
f 34/305/151 133/307/153 36/308/154
f 47/55/155 46/309/156 42/310/157
f 47/55/155 42/310/157 40/56/158
f 219/311/132 220/312/132 98/313/132
f 98/313/132 220/312/132 221/314/132
f 219/311/132 98/313/132 100/315/132
f 98/313/132 221/314/132 96/316/132
f 219/311/132 100/315/132 222/317/132
f 96/316/132 221/314/132 223/318/132
f 96/316/132 223/318/132 94/319/132
f 94/319/132 223/318/132 92/320/132
f 92/320/132 223/318/132 224/321/132
f 92/320/132 224/321/132 225/322/132
f 92/320/132 225/322/132 88/323/132
f 88/323/132 225/322/132 84/324/132
f 84/324/132 225/322/132 226/325/132
f 84/324/132 226/325/132 227/326/132
f 84/324/132 227/326/132 80/327/132
f 80/327/132 227/326/132 77/328/132
f 77/328/132 227/326/132 228/329/132
f 77/328/132 228/329/132 229/330/132
f 77/328/132 229/330/132 81/331/132
f 81/331/132 229/330/132 87/332/132
f 87/332/132 229/330/132 230/333/132
f 87/332/132 230/333/132 231/334/132
f 87/332/132 231/334/132 91/335/132
f 91/335/132 231/334/132 2/336/132
f 2/336/132 231/334/132 232/337/132
f 2/336/132 232/337/132 233/338/132
f 2/336/132 233/338/132 4/339/132
f 4/339/132 233/338/132 6/340/132
f 6/340/132 233/338/132 234/341/132
f 6/340/132 234/341/132 235/342/132
f 6/340/132 235/342/132 8/343/132
f 8/343/132 235/342/132 9/344/132
f 9/344/132 235/342/132 236/345/132
f 9/344/132 236/345/132 11/346/132
f 11/346/132 236/345/132 237/347/132
f 11/346/132 237/347/132 13/348/132
f 13/348/132 237/347/132 16/349/132
f 102/350/132 104/351/132 100/315/132
f 100/315/132 104/351/132 222/317/132
f 222/317/132 104/351/132 238/352/132
f 239/353/104 240/354/105 50/355/105
f 50/355/105 240/354/105 241/356/159
f 239/353/104 50/355/105 55/357/160
f 50/355/105 241/356/159 51/358/106
f 239/353/104 55/357/160 242/359/107
f 51/358/106 241/356/159 243/360/108
f 242/359/107 55/357/160 57/361/107
f 51/358/106 243/360/108 54/362/109
f 242/359/107 57/361/107 61/363/161
f 54/362/109 243/360/108 58/364/162
f 242/359/107 61/363/161 244/365/163
f 58/364/162 243/360/108 245/366/112
f 244/365/163 61/363/161 246/367/113
f 58/364/162 245/366/112 247/368/164
f 246/367/113 61/363/161 17/369/115
f 58/364/162 247/368/164 62/370/165
f 246/367/113 17/369/115 19/371/116
f 62/370/165 247/368/164 65/372/166
f 246/367/113 19/371/116 248/373/118
f 65/372/166 247/368/164 249/374/167
f 248/373/118 19/371/116 250/375/168
f 65/372/166 249/374/167 251/376/169
f 250/375/168 19/371/116 21/377/170
f 65/372/166 251/376/169 67/378/171
f 250/375/168 21/377/170 23/379/124
f 67/378/171 251/376/169 69/380/172
f 69/380/172 251/376/169 252/381/173
f 69/380/172 252/381/173 71/382/174
f 250/375/168 23/379/124 253/383/175
f 253/383/175 23/379/124 254/384/128
f 254/384/128 23/379/124 26/385/130
f 254/384/128 26/385/130 28/386/105
f 254/384/128 28/386/105 255/387/105
f 255/387/105 28/386/105 30/388/105
f 255/387/105 30/388/105 31/389/105
f 256/390/176 73/391/177 71/382/174
f 73/391/177 256/390/176 257/392/178
f 73/391/177 257/392/178 75/393/179
f 75/393/179 257/392/178 258/394/180
f 39/53/181 41/395/182 174/396/183
f 39/53/181 174/396/183 48/54/184
f 71/382/174 252/381/173 256/390/176
f 42/397/185 46/48/186 259/398/187
f 259/398/187 46/48/186 45/47/188
f 260/399/189 175/228/190 174/227/191
f 260/399/189 174/227/191 41/400/192
f 133/401/193 259/398/193 45/47/193
f 176/402/194 175/228/194 260/399/194
f 155/403/195 76/84/72 75/83/71
f 155/403/195 75/83/71 258/404/195
f 104/112/84 103/111/83 153/405/196
f 104/112/84 153/405/196 238/406/197
f 130/138/100 129/137/100 180/407/198
f 130/138/100 180/407/198 199/408/198
f 199/408/198 180/407/198 183/409/199
f 199/408/198 183/409/199 203/410/199
f 203/410/199 183/409/199 186/411/200
f 203/410/199 186/411/200 205/412/200
f 205/412/200 186/411/200 206/413/201
f 206/413/201 186/411/200 187/414/201
