# CS2 body mesh, tools/cs2_glb_to_obj.py
v 0.01729 0.07938 -0.00212
v 0.01826 0.07968 -0.00212
v 0.01758 0.07867 -0.00294
v 0.01826 0.07968 0.03313
v 0.01927 0.079 -0.00294
v 0.01729 0.07938 0.03313
v 0.01639 0.07891 -0.00212
v 0.01801 0.07765 0.03688
v 0.01639 0.07891 0.03313
v 0.01615 0.07771 -0.00294
v 0.0156 0.07826 -0.00212
v 0.0156 0.07826 0.03313
v 0.01694 0.07693 0.03688
v 0.01496 0.07748 -0.00212
v 0.01496 0.07748 0.03313
v 0.01801 0.07765 0.04225
v 0.01927 0.0779 0.04225
v 0.01694 0.07693 0.04225
v 0.01927 0.0779 0.03688
v 0.02053 0.07765 0.04225
v 0.02053 0.07765 0.03688
v 0.02028 0.07968 0.03313
v 0.01622 0.07586 0.03688
v 0.01622 0.07586 0.04225
v 0.01927 0.07978 0.03313
v 0.01927 0.07978 -0.00212
v 0.02028 0.07968 -0.00212
v 0.02095 0.07867 -0.00294
v 0.02095 0.07867 -0.00404
v 0.02215 0.07891 -0.00433
v 0.02238 0.07771 -0.00404
v 0.02125 0.07938 -0.00433
v 0.01927 0.079 -0.00404
v 0.02028 0.07968 -0.00433
v 0.01927 0.07978 -0.00433
v 0.01927 0.07978 -0.00538
v 0.02028 0.07968 -0.00538
v 0.01826 0.07968 -0.00433
v 0.01826 0.07968 -0.00538
v 0.01758 0.07867 -0.00404
v 0.01729 0.07938 -0.00538
v 0.01729 0.07938 -0.00433
v 0.01639 0.07891 -0.00433
v 0.01639 0.07891 -0.00538
v 0.0156 0.07826 -0.00538
v 0.01615 0.07771 -0.00404
v 0.0156 0.07826 -0.00433
v 0.01496 0.07748 -0.00433
v 0.01496 0.07748 -0.00538
v 0.01448 0.07658 -0.00538
v 0.0152 0.07628 -0.00294
v 0.01448 0.07658 -0.00433
v 0.0152 0.07628 -0.00404
v 0.01419 0.07561 -0.00433
v 0.01419 0.07561 -0.00538
v 0.01409 0.0746 -0.00538
v 0.01409 0.0746 -0.00433
v 0.01487 0.0746 -0.00404
v 0.01419 0.07359 -0.00433
v 0.01419 0.07359 -0.00538
v 0.01448 0.07262 -0.00538
v 0.01487 0.0746 -0.00294
v 0.01448 0.07262 -0.00433
v 0.0152 0.07291 -0.00404
v 0.01496 0.07172 -0.00433
v 0.01496 0.07172 -0.00538
v 0.0156 0.07094 -0.00538
v 0.0156 0.07094 -0.00433
v 0.0152 0.07291 -0.00294
v 0.01615 0.07149 -0.00404
v 0.01639 0.07029 -0.00433
v 0.01639 0.07029 -0.00538
v 0.01729 0.06981 -0.00538
v 0.01615 0.07149 -0.00294
v 0.01729 0.06981 -0.00433
v 0.01758 0.07053 -0.00404
v 0.01826 0.06952 -0.00433
v 0.01826 0.06952 -0.00538
v 0.01927 0.06942 -0.00538
v 0.01927 0.06942 -0.00433
v 0.01927 0.0702 -0.00404
v 0.01927 0.0702 -0.00294
v 0.01758 0.07053 -0.00294
v 0.01826 0.06952 -0.00212
v 0.01927 0.06942 -0.00212
v 0.01639 0.07029 -0.00212
v 0.01826 0.06952 0.03313
v 0.01927 0.06942 0.03313
v 0.01927 0.0713 0.03688
v 0.01729 0.06981 -0.00212
v 0.01729 0.06981 0.03313
v 0.01801 0.07155 0.03688
v 0.01801 0.07155 0.04225
v 0.01927 0.0713 0.04225
v 0.01694 0.07227 0.04225
v 0.01694 0.07227 0.03688
v 0.01622 0.07334 0.04225
v 0.01639 0.07029 0.03313
v 0.01622 0.07334 0.03688
v 0.01597 0.0746 0.04225
v 0.0156 0.07094 0.03313
v 0.01496 0.07172 0.03313
v 0.0156 0.07094 -0.00212
v 0.01496 0.07172 -0.00212
v 0.01448 0.07262 0.03313
v 0.01598 0.0746 0.03688
v 0.01448 0.07262 -0.00212
v 0.01419 0.07359 0.03313
v 0.01419 0.07359 -0.00212
v 0.01409 0.0746 0.03313
v 0.01419 0.07561 0.03313
v 0.01409 0.0746 -0.00212
v 0.01419 0.07561 -0.00212
v 0.01449 0.07658 0.03313
v 0.01448 0.07658 -0.00212
v 0.01645 0.0746 0.04225
v 0.01667 0.07568 0.04225
v 0.01728 0.07659 0.04225
v 0.01667 0.07352 0.04225
v 0.01819 0.0772 0.04225
v 0.01728 0.07261 0.04225
v 0.01927 0.07741 0.04225
v 0.01819 0.072 0.04225
v 0.01927 0.07179 0.04225
v 0.02034 0.0772 0.04225
v 0.0216 0.07693 0.04225
v 0.02126 0.07659 0.04225
v 0.02231 0.07586 0.04225
v 0.02187 0.07568 0.04225
v 0.02257 0.0746 0.04225
v 0.02208 0.0746 0.04225
v 0.02231 0.07334 0.04225
v 0.02187 0.07352 0.04225
v 0.0216 0.07227 0.04225
v 0.02126 0.07261 0.04225
v 0.02053 0.07155 0.04225
v 0.02034 0.072 0.04225
v 0.0198 0.07726 0.04496
v 0.01776 0.07685 0.04496
v 0.01804 0.07644 0.04964
v 0.0197 0.07677 0.04964
v 0.01661 0.07513 0.04496
v 0.0171 0.07503 0.04964
v 0.01701 0.07309 0.04496
v 0.01874 0.07194 0.04496
v 0.01884 0.07243 0.04964
v 0.01743 0.07337 0.04964
v 0.01901 0.07329 0.05351
v 0.01816 0.07386 0.05351
v 0.01912 0.07386 0.05485
v 0.01864 0.07418 0.05485
v 0.01796 0.07486 0.05351
v 0.01927 0.0746 0.05535
v 0.01853 0.07475 0.05485
v 0.01852 0.07571 0.05351
v 0.01953 0.07591 0.05351
v 0.01885 0.07523 0.05485
v 0.01942 0.07534 0.05485
v 0.01969 0.07397 0.05485
v 0.02001 0.07349 0.05351
v 0.0205 0.07276 0.04964
v 0.02077 0.07235 0.04496
v 0.01724 0.07544 -0.00521
v 0.01772 0.07615 -0.00521
v 0.01749 0.07534 -0.00581
v 0.01791 0.07596 -0.00581
v 0.01843 0.07663 -0.00521
v 0.01734 0.0746 -0.00581
v 0.01707 0.0746 -0.00521
v 0.01835 0.0746 -0.00581
v 0.01749 0.07386 -0.00581
v 0.01724 0.07376 -0.00521
v 0.01862 0.07524 -0.00581
v 0.01862 0.07395 -0.00581
v 0.01791 0.07324 -0.00581
v 0.01772 0.07305 -0.00521
v 0.01853 0.07282 -0.00581
v 0.01843 0.07257 -0.00521
v 0.01927 0.07369 -0.00581
v 0.01927 0.07267 -0.00581
v 0.01927 0.0746 -0.00548
v 0.01927 0.07241 -0.00521
v 0.02 0.07282 -0.00581
v 0.01825 0.07215 -0.00567
v 0.01991 0.07395 -0.00581
v 0.02063 0.07324 -0.00581
v 0.02011 0.07257 -0.00521
v 0.02105 0.07386 -0.00581
v 0.02018 0.0746 -0.00581
v 0.02119 0.0746 -0.00581
v 0.02105 0.07534 -0.00581
v 0.01991 0.07524 -0.00581
v 0.02063 0.07596 -0.00581
v 0.02 0.07638 -0.00581
v 0.01927 0.07551 -0.00581
v 0.01927 0.07652 -0.00581
v 0.01853 0.07638 -0.00581
v 0.02011 0.07663 -0.00521
v 0.01927 0.07679 -0.00521
v 0.01927 0.07725 -0.00567
v 0.01825 0.07705 -0.00567
v 0.02028 0.07705 -0.00567
v 0.02114 0.07648 -0.00567
v 0.02082 0.07615 -0.00521
v 0.01927 0.07921 -0.00567
v 0.0175 0.07886 -0.00567
v 0.02103 0.07886 -0.00567
v 0.02253 0.07786 -0.00567
v 0.02125 0.07938 -0.00538
v 0.016 0.07786 -0.00567
v 0.01739 0.07648 -0.00567
v 0.015 0.07637 -0.00567
v 0.01682 0.07561 -0.00567
v 0.01465 0.0746 -0.00567
v 0.01661 0.0746 -0.00567
v 0.015 0.07283 -0.00567
v 0.01682 0.07358 -0.00567
v 0.016 0.07133 -0.00567
v 0.01739 0.07272 -0.00567
v 0.0175 0.07033 -0.00567
v 0.01927 0.06998 -0.00567
v 0.02028 0.06952 -0.00538
v 0.01927 0.07194 -0.00567
v 0.02103 0.07033 -0.00567
v 0.02125 0.06981 -0.00538
v 0.02028 0.07215 -0.00567
v 0.02082 0.07305 -0.00521
v 0.02253 0.07133 -0.00567
v 0.02114 0.07272 -0.00567
v 0.02129 0.07376 -0.00521
v 0.02353 0.07283 -0.00567
v 0.02172 0.07358 -0.00567
v 0.02146 0.0746 -0.00521
v 0.02388 0.0746 -0.00567
v 0.02192 0.0746 -0.00567
v 0.02129 0.07544 -0.00521
v 0.02353 0.07637 -0.00567
v 0.02172 0.07561 -0.00567
v 0.0216 0.07693 0.03688
v 0.02231 0.07586 0.03688
v 0.02215 0.07891 0.03313
v 0.02257 0.0746 0.03688
v 0.02358 0.07748 0.03313
v 0.02231 0.07334 0.03688
v 0.02435 0.07561 0.03313
v 0.02293 0.07826 0.03313
v 0.02405 0.07658 0.03313
v 0.02293 0.07826 -0.00212
v 0.02358 0.07748 -0.00212
v 0.02405 0.07658 -0.00212
v 0.02215 0.07891 -0.00212
v 0.02238 0.07771 -0.00294
v 0.02334 0.07628 -0.00294
v 0.02435 0.07561 -0.00212
v 0.02445 0.0746 0.03313
v 0.02435 0.07561 -0.00538
v 0.02405 0.07658 -0.00538
v 0.02445 0.0746 -0.00538
v 0.02358 0.07748 -0.00538
v 0.02435 0.07359 -0.00538
v 0.02293 0.07826 -0.00538
v 0.02405 0.07262 -0.00538
v 0.02215 0.07891 -0.00538
v 0.02358 0.07172 -0.00538
v 0.02293 0.07094 -0.00538
v 0.02215 0.07029 -0.00538
v 0.02152 0.0761 0.04496
v 0.02193 0.07407 0.04496
v 0.0211 0.07583 0.04964
v 0.02143 0.07417 0.04964
v 0.02038 0.07534 0.05351
v 0.02058 0.07434 0.05351
v 0.01989 0.07502 0.05485
v 0.02001 0.07445 0.05485
v 0.02367 0.0746 -0.00294
v 0.02445 0.0746 -0.00212
v 0.02435 0.07359 0.03313
v 0.02435 0.07359 -0.00212
v 0.02405 0.07262 0.03313
v 0.02358 0.07172 0.03313
v 0.02405 0.07262 -0.00212
v 0.02334 0.07291 -0.00294
v 0.0216 0.07227 0.03688
v 0.02053 0.07155 0.03688
v 0.02293 0.07094 0.03313
v 0.02358 0.07172 -0.00212
v 0.02215 0.07029 0.03313
v 0.02293 0.07094 -0.00212
v 0.02238 0.07149 -0.00294
v 0.02125 0.06981 0.03313
v 0.02028 0.06952 0.03313
v 0.02215 0.07029 -0.00212
v 0.02125 0.06981 -0.00212
v 0.02028 0.06952 -0.00212
v 0.02095 0.07053 -0.00294
v 0.02095 0.07053 -0.00404
v 0.02238 0.07149 -0.00404
v 0.02334 0.07291 -0.00404
v 0.02367 0.0746 -0.00404
v 0.02358 0.07172 -0.00433
v 0.02293 0.07094 -0.00433
v 0.02215 0.07029 -0.00433
v 0.02125 0.06981 -0.00433
v 0.02028 0.06952 -0.00433
v 0.02405 0.07262 -0.00433
v 0.02435 0.07359 -0.00433
v 0.02445 0.0746 -0.00433
v 0.02435 0.07561 -0.00433
v 0.02334 0.07628 -0.00404
v 0.02405 0.07658 -0.00433
v 0.02358 0.07748 -0.00433
v 0.02293 0.07826 -0.00433
v 0.02125 0.07938 -0.00212
v 0.02125 0.07938 0.03313
vt 0.771973 0.992676
vt 0.770996 0.992676
vt 0.772461 0.993652
vt 0.770996 0.95166
vt 0.77002 0.993652
vt 0.771973 0.95166
vt 0.773438 0.992676
vt 0.771973 0.946777
vt 0.773438 0.95166
vt 0.774414 0.993652
vt 0.774414 0.992676
vt 0.774414 0.95166
vt 0.773926 0.946777
vt 0.775391 0.992676
vt 0.775391 0.95166
vt 0.771973 0.940918
vt 0.77002 0.940918
vt 0.773926 0.940918
vt 0.77002 0.946777
vt 0.768066 0.940918
vt 0.768066 0.946777
vt 0.769043 0.95166
vt 0.775879 0.946777
vt 0.775879 0.940918
vt 0.77002 0.95166
vt 0.77002 0.992676
vt 0.769043 0.992676
vt 0.767578 0.993652
vt 0.767578 0.995117
vt 0.766602 0.996094
vt 0.765625 0.995117
vt 0.767578 0.996094
vt 0.77002 0.995117
vt 0.769043 0.996094
vt 0.77002 0.996094
vt 0.77002 0.997559
vt 0.769043 0.997559
vt 0.770996 0.996094
vt 0.770996 0.997559
vt 0.772461 0.995117
vt 0.772461 0.997559
vt 0.772461 0.996094
vt 0.773438 0.996094
vt 0.773438 0.997559
vt 0.774414 0.997559
vt 0.774414 0.995117
vt 0.774414 0.996094
vt 0.775879 0.996094
vt 0.775879 0.997559
vt 0.776855 0.997559
vt 0.776855 0.993652
vt 0.776855 0.996094
vt 0.776855 0.995117
vt 0.777832 0.996094
vt 0.777832 0.997559
vt 0.779297 0.997559
vt 0.779297 0.996094
vt 0.779297 0.995117
vt 0.780273 0.996094
vt 0.780273 0.997559
vt 0.781738 0.997559
vt 0.778809 0.993652
vt 0.78125 0.996094
vt 0.78125 0.995117
vt 0.782715 0.996094
vt 0.782715 0.997559
vt 0.783691 0.997559
vt 0.783691 0.996094
vt 0.78125 0.993652
vt 0.783691 0.995117
vt 0.784668 0.996094
vt 0.785156 0.997559
vt 0.786133 0.997559
vt 0.783203 0.993652
vt 0.786133 0.996094
vt 0.785645 0.995117
vt 0.787109 0.996094
vt 0.787598 0.997559
vt 0.788574 0.997559
vt 0.788086 0.996094
vt 0.788086 0.995117
vt 0.787598 0.993652
vt 0.785645 0.993652
vt 0.786133 0.992676
vt 0.787109 0.992676
vt 0.78418 0.992676
vt 0.786133 0.95166
vt 0.787109 0.95166
vt 0.78418 0.946777
vt 0.785156 0.992676
vt 0.785156 0.95166
vt 0.782715 0.946777
vt 0.782715 0.940918
vt 0.78418 0.940918
vt 0.78125 0.940918
vt 0.78125 0.946777
vt 0.779297 0.940918
vt 0.78418 0.95166
vt 0.779297 0.946777
vt 0.777832 0.940918
vt 0.782715 0.95166
vt 0.781738 0.95166
vt 0.782715 0.992676
vt 0.781738 0.992676
vt 0.780762 0.95166
vt 0.777832 0.946777
vt 0.780762 0.992676
vt 0.779785 0.95166
vt 0.779785 0.992676
vt 0.778809 0.95166
vt 0.777344 0.95166
vt 0.778809 0.992676
vt 0.777344 0.992676
vt 0.776367 0.95166
vt 0.776367 0.992676
vt 0.110779 0.089966
vt 0.110779 0.088318
vt 0.110291 0.088318
vt 0.110291 0.086609
vt 0.110291 0.089966
vt 0.110779 0.086609
vt 0.110779 0.091614
vt 0.110291 0.0849
vt 0.110291 0.091553
vt 0.110779 0.0849
vt 0.110779 0.09314
vt 0.110291 0.083191
vt 0.110291 0.093079
vt 0.110779 0.083191
vt 0.110779 0.094604
vt 0.110291 0.081482
vt 0.110291 0.094543
vt 0.110779 0.095947
vt 0.110291 0.096008
vt 0.110779 0.081482
vt 0.110291 0.079773
vt 0.110779 0.079773
vt 0.110291 0.078064
vt 0.110779 0.078064
vt 0.110291 0.076416
vt 0.110779 0.076416
vt 0.110291 0.074829
vt 0.110779 0.074829
vt 0.110291 0.073364
vt 0.110779 0.073303
vt 0.110291 0.071899
vt 0.110779 0.071838
vt 0.110291 0.070435
vt 0.110779 0.070496
vt 0.057526 0.019424
vt 0.058289 0.016693
vt 0.056824 0.016693
vt 0.054932 0.019485
vt 0.055359 0.016693
vt 0.053955 0.016693
vt 0.055542 0.024414
vt 0.057465 0.024323
vt 0.052429 0.019638
vt 0.052582 0.016693
vt 0.05127 0.016693
vt 0.05368 0.024719
vt 0.050079 0.019913
vt 0.050018 0.016693
vt 0.048828 0.016693
vt 0.047729 0.020294
vt 0.047699 0.016693
vt 0.0466 0.016693
vt 0.050232 0.026093
vt 0.05191 0.025238
vt 0.05368 0.03006
vt 0.054474 0.029312
vt 0.055725 0.031036
vt 0.055969 0.030518
vt 0.055359 0.028839
vt 0.057373 0.030884
vt 0.056366 0.030212
vt 0.056366 0.02858
vt 0.057404 0.028503
vt 0.056854 0.030029
vt 0.057404 0.029953
vt 0.059021 0.031052
vt 0.058807 0.030533
vt 0.061066 0.030121
vt 0.060303 0.029358
vt 0.064575 0.026245
vt 0.062927 0.025345
vt 0.067139 0.020676
vt 0.06488 0.019989
vt 0.067383 0.016693
vt 0.066223 0.016693
vt 0.519531 0.198486
vt 0.519043 0.197632
vt 0.519043 0.19873
vt 0.518555 0.197998
vt 0.518066 0.197021
vt 0.519043 0.199463
vt 0.52002 0.199463
vt 0.518066 0.199463
vt 0.519043 0.200195
vt 0.519531 0.200439
vt 0.518066 0.198853
vt 0.518066 0.200195
vt 0.518555 0.200928
vt 0.519043 0.201416
vt 0.518066 0.201416
vt 0.518066 0.201904
vt 0.51709 0.200439
vt 0.51709 0.201538
vt 0.51709 0.199463
vt 0.51709 0.202148
vt 0.516602 0.201416
vt 0.518555 0.202515
vt 0.516602 0.200195
vt 0.515625 0.200928
vt 0.516113 0.202026
vt 0.515137 0.200317
vt 0.516113 0.199463
vt 0.515137 0.199585
vt 0.515137 0.19873
vt 0.516602 0.198853
vt 0.515625 0.19812
vt 0.516602 0.197632
vt 0.51709 0.198486
vt 0.51709 0.19751
vt 0.518066 0.197632
vt 0.516113 0.197021
vt 0.51709 0.196777
vt 0.51709 0.196167
vt 0.518555 0.196411
vt 0.515625 0.196411
vt 0.514648 0.197144
vt 0.515137 0.197632
vt 0.51709 0.19397
vt 0.519043 0.194336
vt 0.515137 0.194336
vt 0.513184 0.195679
vt 0.515625 0.193359
vt 0.514648 0.193726
vt 0.51709 0.193237
vt 0.518066 0.193359
vt 0.519531 0.193604
vt 0.520508 0.194214
vt 0.520996 0.195557
vt 0.521484 0.194946
vt 0.519531 0.197144
vt 0.522461 0.195923
vt 0.522461 0.197266
vt 0.522949 0.197021
vt 0.52002 0.19812
vt 0.523438 0.19812
vt 0.522949 0.199463
vt 0.523438 0.199341
vt 0.520508 0.199463
vt 0.523438 0.200684
vt 0.522461 0.201538
vt 0.522949 0.201782
vt 0.520508 0.200684
vt 0.522461 0.202881
vt 0.520996 0.203369
vt 0.521484 0.203857
vt 0.519531 0.201782
vt 0.520508 0.204712
vt 0.519531 0.20459
vt 0.519531 0.205322
vt 0.518555 0.205688
vt 0.51709 0.205078
vt 0.51709 0.205811
vt 0.516113 0.205688
vt 0.51709 0.202881
vt 0.515137 0.204712
vt 0.514648 0.205322
vt 0.516113 0.202637
vt 0.515137 0.201416
vt 0.513184 0.203491
vt 0.514648 0.201904
vt 0.514648 0.200562
vt 0.512207 0.20166
vt 0.51416 0.200806
vt 0.514648 0.199585
vt 0.511719 0.199585
vt 0.513672 0.199585
vt 0.514648 0.198486
vt 0.512207 0.197388
vt 0.51416 0.198242
vt 0.766113 0.940918
vt 0.766113 0.946777
vt 0.76416 0.940918
vt 0.76416 0.946777
vt 0.762207 0.940918
vt 0.766602 0.95166
vt 0.762207 0.946777
vt 0.760742 0.940918
vt 0.764648 0.95166
vt 0.760742 0.946777
vt 0.758789 0.940918
vt 0.762695 0.95166
vt 0.765625 0.95166
vt 0.763672 0.95166
vt 0.765625 0.992676
vt 0.764648 0.992676
vt 0.763672 0.992676
vt 0.766602 0.992676
vt 0.765625 0.993652
vt 0.763184 0.993652
vt 0.762695 0.992676
vt 0.76123 0.95166
vt 0.51123 0.198364
vt 0.51123 0.197144
vt 0.510742 0.199585
vt 0.511719 0.196045
vt 0.51123 0.200806
vt 0.512695 0.195068
vt 0.51123 0.202026
vt 0.513672 0.194336
vt 0.512207 0.203003
vt 0.512695 0.203979
vt 0.513672 0.204712
vt 0.0625 0.016693
vt 0.061157 0.016693
vt 0.060089 0.019485
vt 0.059723 0.016693
vt 0.062561 0.019669
vt 0.063843 0.016693
vt 0.059387 0.024429
vt 0.065063 0.016693
vt 0.061218 0.024765
vt 0.058441 0.028595
vt 0.059448 0.02887
vt 0.057922 0.030029
vt 0.058411 0.030212
vt 0.76123 0.993652
vt 0.76123 0.992676
vt 0.760254 0.95166
vt 0.760254 0.992676
vt 0.759277 0.95166
vt 0.758301 0.95166
vt 0.759277 0.992676
vt 0.758789 0.993652
vt 0.758789 0.946777
vt 0.757324 0.940918
vt 0.757324 0.946777
vt 0.756836 0.95166
vt 0.758301 0.992676
vt 0.755859 0.95166
vt 0.756836 0.992676
vt 0.756836 0.993652
vt 0.754883 0.95166
vt 0.753906 0.95166
vt 0.755859 0.992676
vt 0.754883 0.992676
vt 0.753906 0.992676
vt 0.754395 0.993652
vt 0.754395 0.995117
vt 0.756348 0.995117
vt 0.758789 0.995117
vt 0.760742 0.995117
vt 0.757324 0.996094
vt 0.756348 0.996094
vt 0.754883 0.996094
vt 0.756348 0.997559
vt 0.754883 0.997559
vt 0.757324 0.997559
vt 0.753906 0.997559
vt 0.753906 0.996094
vt 0.75293 0.996094
vt 0.752441 0.997559
vt 0.758301 0.997559
vt 0.758301 0.996094
vt 0.759766 0.996094
vt 0.759766 0.997559
vt 0.760742 0.997559
vt 0.760742 0.996094
vt 0.762207 0.996094
vt 0.761719 0.997559
vt 0.763184 0.997559
vt 0.763184 0.995117
vt 0.763184 0.996094
vt 0.76416 0.996094
vt 0.76416 0.997559
vt 0.765625 0.997559
vt 0.765625 0.996094
vt 0.766602 0.997559
vt 0.767578 0.997559
vt 0.768066 0.992676
vt 0.768066 0.95166
vt 0.755859 0.940918
vt 0.755859 0.946777
vt 0.752441 0.95166
vt 0.752441 0.992676
vt 0.752441 0.993652
vt 0.751953 0.995117
vt 0.751465 0.996094
vt 0.751465 0.997559
vn -0.3822 0.9239 -0.0194
vn -0.1938 0.9807 -0.027
vn -0.3523 0.8552 -0.3802
vn -0.195 0.9796 0.049
vn -0.0013 0.9241 -0.3822
vn -0.3817 0.9231 0.0462
vn -0.5548 0.8315 -0.0291
vn -0.3745 0.9021 0.2142
vn -0.5537 0.8313 0.0491
vn -0.652 0.6553 -0.3813
vn -0.7084 0.7055 -0.021
vn -0.7063 0.7063 0.0471
vn -0.6908 0.6908 0.2136
vn -0.8315 0.5548 -0.0291
vn -0.8313 0.5537 0.0491
vn -0.3822 0.9241 -0.0013
vn 0.001 1 -0.001
vn -0.7071 0.7071 -0.0014
vn -0.0012 0.9764 0.2158
vn 0.3822 0.9241 -0.0013
vn 0.3745 0.9021 0.2142
vn 0.195 0.9796 0.049
vn -0.9036 0.3711 0.2139
vn -0.9241 0.3822 -0.0013
vn -0.001 0.9989 0.046
vn -0.001 0.9998 -0.021
vn 0.1938 0.9807 -0.027
vn 0.3523 0.8552 -0.3802
vn 0.3352 0.8118 0.4782
vn 0.4463 0.6669 0.5967
vn 0.6203 0.6236 0.4757
vn 0.3356 0.8095 0.4819
vn -0.0013 0.8794 0.4762
vn 0.155 0.7869 0.5973
vn -0.0013 0.8759 0.4825
vn -0.001 1 -0.001
vn 0.1943 0.9809 -0.0011
vn -0.155 0.7869 0.5973
vn -0.1943 0.9809 -0.0011
vn -0.3352 0.8118 0.4782
vn -0.3356 0.8095 0.4819
vn -0.4463 0.6669 0.5967
vn -0.555 0.8318 -0.0014
vn -0.6203 0.6236 0.4757
vn -0.6209 0.6175 0.4829
vn -0.6669 0.4463 0.5967
vn -0.8318 0.555 0.0014
vn -0.9241 0.3822 0.0013
vn -0.8534 0.356 -0.3808
vn -0.8095 0.3356 0.4819
vn -0.8118 0.3352 0.4782
vn -0.7869 0.155 0.5973
vn -0.9809 0.1943 0.0011
vn -1 -0.001 0
vn -0.8759 0.0013 0.4825
vn -0.8794 0.0013 0.4762
vn -0.7867 -0.1582 0.5968
vn -0.981 -0.1941 0
vn -0.9243 -0.3817 0
vn -0.9247 -0.0013 -0.3806
vn -0.8083 -0.3357 0.4837
vn -0.8129 -0.335 0.4763
vn -0.6682 -0.4427 0.598
vn -0.8323 -0.5544 0
vn -0.7078 -0.7064 0
vn -0.6191 -0.6207 0.4811
vn -0.8542 -0.3526 -0.3821
vn -0.6221 -0.6204 0.4775
vn -0.4445 -0.6667 0.5982
vn -0.556 -0.8312 0
vn -0.3833 -0.9236 0
vn -0.654 -0.6523 -0.3831
vn -0.3339 -0.8093 0.4833
vn -0.3369 -0.812 0.4767
vn -0.1566 -0.7874 0.5962
vn -0.1955 -0.9807 0
vn -0.0983 -0.9952 0
vn -0.0873 -0.8719 0.4818
vn -0.1644 -0.8674 0.4697
vn -0.1678 -0.9115 -0.3754
vn -0.3544 -0.8533 -0.3824
vn -0.1954 -0.9803 -0.0282
vn -0.0979 -0.995 -0.0196
vn -0.5558 -0.8309 -0.0276
vn -0.1961 -0.9794 0.0478
vn -0.098 -0.9941 0.0468
vn -0.1854 -0.9601 0.2092
vn -0.3811 -0.9243 -0.0207
vn -0.3846 -0.9217 0.0504
vn -0.3794 -0.9004 0.2131
vn -0.6908 -0.6923 0.2085
vn -0.5547 -0.8307 0.0476
vn -0.9031 -0.3714 0.2156
vn -0.7071 -0.7057 0.0456
vn -0.8296 -0.5563 0.0476
vn -0.7063 -0.7077 -0.0196
vn -0.8319 -0.5542 -0.0276
vn -0.9229 -0.3821 0.0476
vn -0.977 0.0012 0.2131
vn -0.9236 -0.3827 -0.0208
vn -0.9802 -0.192 0.0477
vn -0.9806 -0.194 -0.0282
vn -0.9989 0.0031 0.0461
vn -0.9801 0.1922 0.0489
vn -0.9998 -0.001 -0.02
vn -0.9801 0.1965 -0.0271
vn -0.9231 0.3817 0.0462
vn -0.9239 0.3822 -0.0194
vn 0 -0.001 1
vn 0.1927 0.9758 0.1032
vn 0.4023 0.9135 0.0605
vn -0.0535 0.9963 0.0666
vn -0.5554 0.8252 0.103
vn -0.3613 0.9304 0.0622
vn -0.7434 0.6654 0.0678
vn -0.5396 0.8279 0.1531
vn 0.2062 0.9663 0.1543
vn -0.9764 0.1898 0.103
vn -0.9121 0.4055 0.0606
vn -0.9963 -0.0535 0.0677
vn -0.9663 0.2062 0.1543
vn -0.8257 -0.5548 0.1014
vn -0.9306 -0.3609 0.0608
vn -0.6663 -0.7427 0.0663
vn -0.5375 -0.8379 0.0949
vn -0.4044 -0.9125 0.062
vn -0.1963 -0.9804 0.0187
vn -0.5511 -0.8222 0.1422
vn -0.8295 -0.5367 0.1546
vn -0.5394 -0.8075 0.2387
vn -0.8177 -0.5146 0.2581
vn -0.4819 -0.7229 0.4952
vn -0.7198 -0.4395 0.5374
vn -0.941 0.2176 0.2592
vn -0.8183 0.2027 0.5379
vn -0.5114 0.8192 0.2596
vn 0.2176 0.941 0.2592
vn -0.4359 0.721 0.5387
vn 0.1992 0.8198 0.5369
vn 0.167 -0.8365 0.5219
vn 0.4376 -0.7211 0.5371
vn 0.1891 -0.9521 0.2404
vn 0.5128 -0.8189 0.2579
vn 0.1943 -0.9704 0.1432
vn 0.5384 -0.8284 0.1547
vn 0.1931 -0.9764 0.0965
vn 0.5532 -0.8269 0.1014
vn 0.1955 -0.9762 0.094
vn 0.3593 -0.9312 0.0608
vn -0.0129 0.001 -0.9999
vn -0.0109 0.007 -0.9999
vn -0.4469 0.1873 -0.8747
vn -0.3402 0.3463 -0.8742
vn -0.009 0.011 -0.9999
vn -0.4836 0.004 -0.8753
vn -0.0119 -0.005 -0.9999
vn 0.115 -0.0011 -0.9934
vn -0.4478 -0.1841 -0.875
vn -0.01 -0.009 -0.9999
vn 0.0815 -0.0826 -0.9933
vn 0.0825 0.0802 -0.9934
vn -0.3445 -0.34 -0.8751
vn -0.006 -0.0129 -0.9999
vn -0.189 -0.4474 -0.8741
vn -0.002 -0.0129 -0.9999
vn 0.0011 0.1138 -0.9935
vn -0.0027 -0.4862 -0.8738
vn 0 -0.001 -1
vn 0.004 -0.0129 -0.9999
vn 0.1826 -0.4491 -0.8746
vn 0.0513 0.1243 -0.9909
vn -0.0825 0.0802 -0.9934
vn 0.3415 -0.343 -0.8751
vn 0.008 -0.011 -0.9999
vn 0.4461 -0.1906 -0.8745
vn -0.115 -0.0011 -0.9934
vn 0.4852 -0.004 -0.8744
vn 0.4486 0.1809 -0.8752
vn -0.0815 -0.0826 -0.9933
vn 0.3463 0.3402 -0.8742
vn 0.1873 0.4469 -0.8747
vn 0 -0.116 -0.9932
vn 0.004 0.4836 -0.8753
vn -0.1809 0.4486 -0.8752
vn 0.001 0.0129 -0.9999
vn -0.003 0.0129 -0.9999
vn -0.0022 -0.1332 -0.9911
vn 0.0501 -0.1242 -0.991
vn -0.0524 -0.1219 -0.9912
vn -0.0945 -0.0934 -0.9911
vn 0.007 0.0109 -0.9999
vn 0.0011 0.1114 -0.9938
vn -0.0435 0.1037 -0.9937
vn 0.0435 0.1037 -0.9937
vn 0.0799 0.0777 -0.9938
vn 0.0808 0.412 -0.9076
vn 0.176 0.4233 -0.8887
vn -0.0013 0.4572 -0.8894
vn -0.0808 0.412 -0.9076
vn -0.176 0.4233 -0.8887
vn -0.2316 0.351 -0.9073
vn -0.0799 0.0777 -0.9938
vn -0.3226 0.3226 -0.8898
vn 0.0922 -0.0957 -0.9911
vn -0.3482 0.2346 -0.9076
vn -0.1037 0.0435 -0.9937
vn -0.4233 0.176 -0.8887
vn 0.123 -0.0513 -0.9911
vn -0.412 0.0808 -0.9076
vn -0.1114 0.0011 -0.9938
vn -0.4572 0.0013 -0.8894
vn 0.1322 -0.0033 -0.9912
vn -0.4104 -0.0807 -0.9083
vn -0.1047 -0.0412 -0.9936
vn -0.4215 -0.1759 -0.8896
vn 0.124 0.0489 -0.9911
vn -0.3492 -0.2314 -0.908
vn -0.0789 -0.08 -0.9937
vn -0.3244 -0.3229 -0.8891
vn 0.0958 0.0934 -0.991
vn -0.2329 -0.3478 -0.9082
vn -0.0423 -0.1036 -0.9937
vn -0.1744 -0.4228 -0.8893
vn -0.0821 -0.4092 -0.9087
vn 0 -0.1113 -0.9938
vn 0 -0.4567 -0.8896
vn 0.0821 -0.4092 -0.9087
vn 0.0011 0.1331 -0.9911
vn 0.0423 -0.1036 -0.9937
vn 0.1744 -0.4228 -0.8893
vn -0.0489 0.124 -0.9911
vn 0.012 -0.007 -0.9999
vn 0.0789 -0.08 -0.9937
vn -0.0934 0.0958 -0.991
vn 0.0139 -0.001 -0.9999
vn 0.1047 -0.0412 -0.9936
vn -0.122 0.0536 -0.9911
vn 0.0129 0.003 -0.9999
vn 0.1114 0.0011 -0.9938
vn -0.1331 0.0011 -0.9911
vn 0.011 0.009 -0.9999
vn 0.1037 0.0435 -0.9937
vn -0.123 -0.0513 -0.9911
vn 0.7071 0.7071 -0.0014
vn 0.6908 0.6908 0.2136
vn 0.9241 0.3822 -0.0013
vn 0.9021 0.3745 0.2142
vn 1 -0.001 0
vn 0.5537 0.8313 0.0491
vn 0.9767 -0.0012 0.2145
vn 0.9243 -0.3817 0
vn 0.8313 0.5537 0.0491
vn 0.9031 -0.3714 0.2156
vn 0.7078 -0.7064 0
vn 0.9796 0.195 0.049
vn 0.7063 0.7063 0.0471
vn 0.9231 0.3817 0.0462
vn 0.7084 0.7055 -0.021
vn 0.8315 0.5548 -0.0291
vn 0.9239 0.3822 -0.0194
vn 0.5548 0.8315 -0.0291
vn 0.652 0.6553 -0.3813
vn 0.8534 0.356 -0.3808
vn 0.9801 0.1965 -0.0271
vn 0.9989 0.001 0.046
vn 0.412 0.0808 -0.9076
vn 0.4233 0.176 -0.8887
vn 0.4572 0.0013 -0.8894
vn 0.3482 0.2346 -0.9076
vn 0.4104 -0.0807 -0.9083
vn 0.3226 0.3226 -0.8898
vn 0.4215 -0.1759 -0.8896
vn 0.2316 0.351 -0.9073
vn 0.3492 -0.2314 -0.908
vn 0.3244 -0.3229 -0.8891
vn 0.2329 -0.3478 -0.9082
vn 0.9963 0.0535 0.0666
vn 0.9316 0.3581 0.0621
vn 0.8252 0.5554 0.103
vn 0.6685 0.7406 0.0679
vn 0.976 -0.1925 0.1018
vn 0.9132 -0.4027 0.062
vn 0.8279 0.5396 0.1531
vn 0.7414 -0.6678 0.0663
vn 0.9667 -0.2034 0.1555
vn 0.8192 0.5114 0.2596
vn 0.9414 -0.2146 0.2603
vn 0.721 0.4359 0.5387
vn 0.8186 -0.1993 0.5386
vn 0.9247 -0.0013 -0.3806
vn 0.9998 -0.001 -0.02
vn 0.9797 -0.1947 0.0478
vn 0.9806 -0.194 -0.0282
vn 0.9229 -0.3821 0.0476
vn 0.8296 -0.5563 0.0476
vn 0.9236 -0.3827 -0.0208
vn 0.8542 -0.3526 -0.3821
vn 0.6887 -0.6934 0.2119
vn 0.3833 -0.9236 0
vn 0.3752 -0.903 0.2094
vn 0.7056 -0.707 0.0486
vn 0.8319 -0.5542 -0.0276
vn 0.5547 -0.8307 0.0476
vn 0.7063 -0.7077 -0.0196
vn 0.654 -0.6523 -0.3831
vn 0.3837 -0.9222 0.0476
vn 0.1961 -0.9794 0.0478
vn 0.5558 -0.8309 -0.0276
vn 0.3811 -0.9243 -0.0207
vn 0.1954 -0.9803 -0.0282
vn 0.3544 -0.8533 -0.3824
vn 0.3369 -0.812 0.4767
vn 0.6221 -0.6204 0.4775
vn 0.8129 -0.335 0.4763
vn 0.8794 0.0013 0.4762
vn 0.6682 -0.4427 0.598
vn 0.6191 -0.6207 0.4811
vn 0.4445 -0.6667 0.5982
vn 0.556 -0.8312 0
vn 0.8323 -0.5544 0
vn 0.3339 -0.8093 0.4833
vn 0.1566 -0.7874 0.5962
vn 0.1955 -0.9807 0
vn 0.8083 -0.3357 0.4837
vn 0.7867 -0.1582 0.5968
vn 0.981 -0.1941 0
vn 0.8759 0.0013 0.4825
vn 0.7869 0.155 0.5973
vn 0.9809 0.1943 -0.0011
vn 0.8118 0.3352 0.4782
vn 0.8095 0.3356 0.4819
vn 0.6669 0.4463 0.5967
vn 0.8318 0.555 -0.0014
vn 0.7071 0.7071 0.0014
vn 0.6209 0.6175 0.4829
vn 0.555 0.8318 -0.0014
vn 0.3822 0.9239 -0.0194
vn 0.3817 0.9231 0.0462
vn 0.1854 -0.9601 0.2092
vn 0.098 -0.9941 0.0468
vn 0.0979 -0.995 -0.0196
vn 0.1678 -0.9115 -0.3754
vn 0.1644 -0.8674 0.4697
vn 0.0873 -0.8719 0.4818
vn 0.0983 -0.9952 0
o bullet16__p1_c0
f 1/1/1 2/2/2 3/3/3
f 2/2/2 1/1/1 4/4/4
f 3/3/3 2/2/2 5/5/5
f 4/4/4 1/1/1 6/6/6
f 6/6/6 1/1/1 7/7/7
f 7/7/7 1/1/1 3/3/3
f 4/4/4 6/6/6 8/8/8
f 6/6/6 7/7/7 9/9/9
f 6/6/6 9/9/9 8/8/8
f 7/7/7 3/3/3 10/10/10
f 9/9/9 7/7/7 11/11/11
f 11/11/11 7/7/7 10/10/10
f 9/9/9 11/11/11 12/12/12
f 9/9/9 12/12/12 13/13/13
f 9/9/9 13/13/13 8/8/8
f 12/12/12 11/11/11 14/14/14
f 14/14/14 11/11/11 10/10/10
f 12/12/12 14/14/14 15/15/15
f 12/12/12 15/15/15 13/13/13
f 8/8/8 13/13/13 16/16/16
f 8/8/8 16/16/16 17/17/17
f 16/16/16 13/13/13 18/18/18
f 8/8/8 17/17/17 19/19/19
f 8/8/8 19/19/19 4/4/4
f 19/19/19 17/17/17 20/20/20
f 19/19/19 20/20/20 21/21/21
f 19/19/19 21/21/21 22/22/22
f 18/18/18 13/13/13 23/23/23
f 23/23/23 13/13/13 15/15/15
f 18/18/18 23/23/23 24/24/24
f 4/4/4 19/19/19 25/25/25
f 25/25/25 19/19/19 22/22/22
f 4/4/4 25/25/25 2/2/2
f 25/25/25 22/22/22 26/26/26
f 25/25/25 26/26/26 2/2/2
f 26/26/26 22/22/22 27/27/27
f 2/2/2 26/26/26 5/5/5
f 5/5/5 26/26/26 27/27/27
f 5/5/5 27/27/27 28/28/28
f 5/5/5 28/28/28 29/29/29
f 30/30/30 29/29/29 31/31/31
f 29/29/29 30/30/30 32/32/32
f 5/5/5 29/29/29 33/33/33
f 29/29/29 32/32/32 34/34/34
f 29/29/29 34/34/34 33/33/33
f 5/5/5 33/33/33 3/3/3
f 33/33/33 34/34/34 35/35/35
f 35/35/35 34/34/34 36/36/36
f 36/36/36 34/34/34 37/37/37
f 35/35/35 36/36/36 38/38/38
f 35/35/35 38/38/38 33/33/33
f 38/38/38 36/36/36 39/39/39
f 3/3/3 33/33/33 40/40/40
f 40/40/40 33/33/33 38/38/38
f 38/38/38 39/39/39 41/41/16
f 3/3/3 40/40/40 10/10/10
f 38/38/38 41/41/16 42/42/41
f 38/38/38 42/42/41 40/40/40
f 42/42/41 41/41/16 43/43/42
f 42/42/41 43/43/42 40/40/40
f 43/43/42 41/41/16 44/44/43
f 43/43/42 44/44/43 45/45/18
f 40/40/40 43/43/42 46/46/44
f 40/40/40 46/46/44 10/10/10
f 43/43/42 45/45/18 47/47/45
f 43/43/42 47/47/45 46/46/44
f 47/47/45 45/45/18 48/48/46
f 47/47/45 48/48/46 46/46/44
f 48/48/46 45/45/18 49/49/47
f 48/48/46 49/49/47 50/50/48
f 10/10/10 46/46/44 51/51/49
f 48/48/46 50/50/48 52/52/50
f 46/46/44 48/48/46 53/53/51
f 53/53/51 48/48/46 52/52/50
f 46/46/44 53/53/51 51/51/49
f 52/52/50 50/50/48 54/54/52
f 52/52/50 54/54/52 53/53/51
f 54/54/52 50/50/48 55/55/53
f 54/54/52 55/55/53 56/56/54
f 14/14/14 10/10/10 51/51/49
f 54/54/52 56/56/54 57/57/55
f 53/53/51 54/54/52 58/58/56
f 58/58/56 54/54/52 57/57/55
f 57/57/55 56/56/54 59/59/57
f 57/57/55 59/59/57 58/58/56
f 59/59/57 56/56/54 60/60/58
f 59/59/57 60/60/58 61/61/59
f 62/62/60 51/51/49 53/53/51
f 62/62/60 53/53/51 58/58/56
f 59/59/57 61/61/59 63/63/61
f 58/58/56 59/59/57 64/64/62
f 64/64/62 59/59/57 63/63/61
f 63/63/61 61/61/59 65/65/63
f 63/63/61 65/65/63 64/64/62
f 65/65/63 61/61/59 66/66/64
f 65/65/63 66/66/64 67/67/65
f 65/65/63 67/67/65 68/68/66
f 58/58/56 64/64/62 69/69/67
f 58/58/56 69/69/67 62/62/60
f 64/64/62 65/65/63 70/70/68
f 70/70/68 65/65/63 68/68/66
f 68/68/66 67/67/65 71/71/69
f 68/68/66 71/71/69 70/70/68
f 71/71/69 67/67/65 72/72/70
f 71/71/69 72/72/70 73/73/71
f 64/64/62 70/70/68 74/74/72
f 64/64/62 74/74/72 69/69/67
f 71/71/69 73/73/71 75/75/73
f 70/70/68 71/71/69 76/76/74
f 76/76/74 71/71/69 75/75/73
f 75/75/73 73/73/71 77/77/75
f 75/75/73 77/77/75 76/76/74
f 77/77/75 73/73/71 78/78/76
f 77/77/75 78/78/76 79/79/77
f 77/77/75 79/79/77 80/80/78
f 77/77/75 80/80/78 81/81/79
f 77/77/75 81/81/79 76/76/74
f 76/76/74 81/81/79 82/82/80
f 83/83/81 70/70/68 76/76/74
f 83/83/81 76/76/74 82/82/80
f 70/70/68 83/83/81 74/74/72
f 83/83/81 82/82/80 84/84/82
f 84/84/82 82/82/80 85/85/83
f 74/74/72 83/83/81 86/86/84
f 84/84/82 85/85/83 87/87/85
f 87/87/85 85/85/83 88/88/86
f 87/87/85 88/88/86 89/89/87
f 83/83/81 84/84/82 90/90/88
f 83/83/81 90/90/88 86/86/84
f 84/84/82 87/87/85 91/91/89
f 84/84/82 91/91/89 90/90/88
f 87/87/85 89/89/87 92/92/90
f 87/87/85 92/92/90 91/91/89
f 92/92/90 89/89/87 93/93/71
f 93/93/71 89/89/87 94/94/76
f 92/92/90 93/93/71 95/95/65
f 92/92/90 95/95/65 96/96/91
f 92/92/90 96/96/91 91/91/89
f 96/96/91 95/95/65 97/97/59
f 98/98/92 90/90/88 91/91/89
f 90/90/88 98/98/92 86/86/84
f 98/98/92 91/91/89 96/96/91
f 96/96/91 97/97/59 99/99/93
f 99/99/93 97/97/59 100/100/54
f 98/98/92 96/96/91 101/101/94
f 98/98/92 101/101/94 86/86/84
f 101/101/94 96/96/91 102/102/95
f 102/102/95 96/96/91 99/99/93
f 86/86/84 101/101/94 103/103/96
f 103/103/96 101/101/94 102/102/95
f 86/86/84 103/103/96 74/74/72
f 74/74/72 103/103/96 104/104/97
f 104/104/97 103/103/96 102/102/95
f 74/74/72 104/104/97 69/69/67
f 102/102/95 99/99/93 105/105/98
f 102/102/95 105/105/98 104/104/97
f 106/106/99 99/99/93 100/100/54
f 106/106/99 100/100/54 24/24/24
f 106/106/99 24/24/24 23/23/23
f 69/69/67 104/104/97 107/107/100
f 107/107/100 104/104/97 105/105/98
f 105/105/98 99/99/93 108/108/101
f 105/105/98 108/108/101 107/107/100
f 108/108/101 99/99/93 106/106/99
f 69/69/67 107/107/100 109/109/102
f 109/109/102 107/107/100 108/108/101
f 69/69/67 109/109/102 62/62/60
f 108/108/101 106/106/99 110/110/103
f 108/108/101 110/110/103 109/109/102
f 110/110/103 106/106/99 111/111/104
f 111/111/104 106/106/99 23/23/23
f 109/109/102 110/110/103 112/112/105
f 109/109/102 112/112/105 62/62/60
f 112/112/105 110/110/103 111/111/104
f 62/62/60 112/112/105 113/113/106
f 113/113/106 112/112/105 111/111/104
f 62/62/60 113/113/106 51/51/49
f 111/111/104 23/23/23 114/114/107
f 111/111/104 114/114/107 113/113/106
f 114/114/107 23/23/23 15/15/15
f 51/51/49 113/113/106 115/115/108
f 115/115/108 113/113/106 114/114/107
f 115/115/108 114/114/107 15/15/15
f 51/51/49 115/115/108 14/14/14
f 14/14/14 115/115/108 15/15/15
f 116/116/109 117/117/109 24/118/109
f 24/118/109 117/117/109 18/119/109
f 116/116/109 24/118/109 100/120/109
f 18/119/109 117/117/109 118/121/109
f 116/116/109 100/120/109 119/122/109
f 18/119/109 118/121/109 16/123/109
f 119/122/109 100/120/109 97/124/109
f 16/123/109 118/121/109 120/125/109
f 119/122/109 97/124/109 121/126/109
f 16/123/109 120/125/109 17/127/109
f 121/126/109 97/124/109 95/128/109
f 17/127/109 120/125/109 122/129/109
f 121/126/109 95/128/109 123/130/109
f 17/127/109 122/129/109 20/131/109
f 123/130/109 95/128/109 93/132/109
f 123/130/109 93/132/109 124/133/109
f 124/133/109 93/132/109 94/134/109
f 20/131/109 122/129/109 125/135/109
f 20/131/109 125/135/109 126/136/109
f 126/136/109 125/135/109 127/137/109
f 126/136/109 127/137/109 128/138/109
f 128/138/109 127/137/109 129/139/109
f 128/138/109 129/139/109 130/140/109
f 130/140/109 129/139/109 131/141/109
f 130/140/109 131/141/109 132/142/109
f 132/142/109 131/141/109 133/143/109
f 132/142/109 133/143/109 134/144/109
f 134/144/109 133/143/109 135/145/109
f 134/144/109 135/145/109 136/146/109
f 136/146/109 135/145/109 137/147/109
f 136/146/109 137/147/109 94/148/109
f 94/148/109 137/147/109 124/149/109
f 138/150/110 125/151/111 122/152/112
f 138/150/110 122/152/112 139/153/113
f 139/153/113 122/152/112 120/154/114
f 139/153/113 120/154/114 118/155/115
f 138/150/110 139/153/113 140/156/116
f 138/150/110 140/156/116 141/157/117
f 139/153/113 118/155/115 142/158/118
f 142/158/118 118/155/115 117/159/119
f 142/158/118 117/159/119 116/160/120
f 139/153/113 142/158/118 143/161/121
f 139/153/113 143/161/121 140/156/116
f 142/158/118 116/160/120 144/162/122
f 144/162/122 116/160/120 119/163/123
f 144/162/122 119/163/123 121/164/124
f 144/162/122 121/164/124 145/165/125
f 145/165/125 121/164/124 123/166/126
f 145/165/125 123/166/126 124/167/127
f 144/162/122 145/165/125 146/168/128
f 142/158/118 144/162/122 147/169/129
f 147/169/129 144/162/122 146/168/128
f 142/158/118 147/169/129 143/161/121
f 147/169/129 146/168/128 148/170/130
f 147/169/129 148/170/130 149/171/131
f 147/169/129 149/171/131 143/161/121
f 149/171/131 148/170/130 150/172/132
f 149/171/131 150/172/132 151/173/133
f 143/161/121 149/171/131 152/174/134
f 152/174/134 149/171/131 151/173/133
f 143/161/121 152/174/134 140/156/116
f 151/173/133 150/172/132 153/175/109
f 152/174/134 151/173/133 154/176/135
f 154/176/135 151/173/133 153/175/109
f 140/156/116 152/174/134 155/177/136
f 155/177/136 152/174/134 154/176/135
f 140/156/116 155/177/136 141/157/117
f 141/157/117 155/177/136 156/178/137
f 155/177/136 154/176/135 157/179/138
f 155/177/136 157/179/138 156/178/137
f 157/179/138 154/176/135 153/175/109
f 156/178/137 157/179/138 158/180/139
f 158/180/139 157/179/138 153/175/109
f 150/181/140 159/182/141 153/175/109
f 159/182/141 150/181/140 148/183/142
f 159/182/141 148/183/142 160/184/143
f 160/184/143 148/183/142 146/185/144
f 160/184/143 146/185/144 161/186/145
f 161/186/145 146/185/144 145/187/146
f 161/186/145 145/187/146 162/188/147
f 162/188/147 145/187/146 124/189/148
f 162/188/147 124/189/148 137/190/149
f 163/191/150 164/192/151 165/193/152
f 165/193/152 164/192/151 166/194/153
f 166/194/153 164/192/151 167/195/154
f 163/191/150 165/193/152 168/196/155
f 163/191/150 168/196/155 169/197/156
f 168/196/155 165/193/152 170/198/157
f 169/197/156 168/196/155 171/199/158
f 171/199/158 168/196/155 170/198/157
f 169/197/156 171/199/158 172/200/159
f 170/198/157 165/193/152 173/201/160
f 173/201/160 165/193/152 166/194/153
f 171/199/158 170/198/157 174/202/161
f 172/200/159 171/199/158 175/203/162
f 175/203/162 171/199/158 174/202/161
f 172/200/159 175/203/162 176/204/163
f 176/204/163 175/203/162 177/205/164
f 177/205/164 175/203/162 174/202/161
f 176/204/163 177/205/164 178/206/165
f 177/205/164 174/202/161 179/207/166
f 178/206/165 177/205/164 180/208/167
f 180/208/167 177/205/164 179/207/166
f 179/207/166 174/202/161 181/209/168
f 178/206/165 180/208/167 182/210/169
f 180/208/167 179/207/166 183/211/170
f 180/208/167 183/211/170 182/210/169
f 178/206/165 182/210/169 184/212/171
f 183/211/170 179/207/166 185/213/172
f 185/213/172 179/207/166 181/209/168
f 183/211/170 185/213/172 186/214/173
f 182/210/169 183/211/170 187/215/174
f 186/214/173 185/213/172 188/216/175
f 188/216/175 185/213/172 189/217/176
f 189/217/176 185/213/172 181/209/168
f 188/216/175 189/217/176 190/218/177
f 190/218/177 189/217/176 191/219/178
f 191/219/178 189/217/176 192/220/179
f 192/220/179 189/217/176 181/209/168
f 191/219/178 192/220/179 193/221/180
f 193/221/180 192/220/179 194/222/181
f 192/220/179 181/209/168 195/223/182
f 192/220/179 195/223/182 194/222/181
f 195/223/182 181/209/168 173/201/160
f 194/222/181 195/223/182 196/224/183
f 195/223/182 173/201/160 197/225/184
f 195/223/182 197/225/184 196/224/183
f 197/225/184 173/201/160 166/194/153
f 197/225/184 166/194/153 167/195/154
f 194/222/181 196/224/183 198/226/185
f 196/224/183 197/225/184 199/227/186
f 196/224/183 199/227/186 198/226/185
f 199/227/186 197/225/184 167/195/154
f 199/227/186 167/195/154 200/228/187
f 200/228/187 167/195/154 201/229/188
f 198/226/185 199/227/186 202/230/189
f 202/230/189 199/227/186 200/228/187
f 198/226/185 202/230/189 203/231/190
f 198/226/185 203/231/190 204/232/191
f 202/230/189 200/228/187 205/233/192
f 200/228/187 201/229/188 206/234/193
f 200/228/187 206/234/193 205/233/192
f 203/231/190 202/230/189 207/235/194
f 207/235/194 202/230/189 205/233/192
f 203/231/190 207/235/194 208/236/195
f 207/235/194 205/233/192 37/237/196
f 207/235/194 37/237/196 209/238/197
f 37/237/196 205/233/192 36/239/198
f 36/239/198 205/233/192 39/240/199
f 39/240/199 205/233/192 206/234/193
f 39/240/199 206/234/193 41/241/200
f 41/241/200 206/234/193 44/242/201
f 44/242/201 206/234/193 210/243/202
f 210/243/202 206/234/193 201/229/188
f 44/242/201 210/243/202 45/244/203
f 210/243/202 201/229/188 211/245/204
f 45/244/203 210/243/202 49/246/205
f 210/243/202 211/245/204 212/247/206
f 210/243/202 212/247/206 49/246/205
f 49/246/205 212/247/206 50/248/207
f 212/247/206 211/245/204 213/249/208
f 50/248/207 212/247/206 55/250/209
f 212/247/206 213/249/208 214/251/210
f 212/247/206 214/251/210 55/250/209
f 55/250/209 214/251/210 56/252/211
f 214/251/210 213/249/208 215/253/212
f 56/252/211 214/251/210 60/254/213
f 214/251/210 215/253/212 216/255/214
f 214/251/210 216/255/214 60/254/213
f 60/254/213 216/255/214 61/256/215
f 216/255/214 215/253/212 217/257/216
f 61/256/215 216/255/214 66/258/217
f 216/255/214 217/257/216 218/259/218
f 216/255/214 218/259/218 66/258/217
f 66/258/217 218/259/218 67/260/219
f 218/259/218 217/257/216 219/261/220
f 67/260/219 218/259/218 72/262/221
f 218/259/218 219/261/220 220/263/222
f 218/259/218 220/263/222 72/262/221
f 72/262/221 220/263/222 73/264/223
f 220/263/222 219/261/220 184/212/171
f 73/264/223 220/263/222 78/265/224
f 78/265/224 220/263/222 221/266/225
f 221/266/225 220/263/222 184/212/171
f 78/265/224 221/266/225 79/267/226
f 79/267/226 221/266/225 222/268/227
f 221/266/225 184/212/171 223/269/228
f 223/269/228 184/212/171 182/210/169
f 223/269/228 182/210/169 187/215/174
f 222/268/227 221/266/225 224/270/229
f 224/270/229 221/266/225 223/269/228
f 222/268/227 224/270/229 225/271/230
f 223/269/228 187/215/174 226/272/231
f 223/269/228 226/272/231 224/270/229
f 226/272/231 187/215/174 227/273/232
f 224/270/229 226/272/231 228/274/233
f 226/272/231 227/273/232 229/275/234
f 226/272/231 229/275/234 228/274/233
f 229/275/234 227/273/232 230/276/235
f 228/274/233 229/275/234 231/277/236
f 229/275/234 230/276/235 232/278/237
f 229/275/234 232/278/237 231/277/236
f 232/278/237 230/276/235 233/279/238
f 231/277/236 232/278/237 234/280/239
f 232/278/237 233/279/238 235/281/240
f 232/278/237 235/281/240 234/280/239
f 235/281/240 233/279/238 236/282/241
f 234/280/239 235/281/240 237/283/242
f 235/281/240 236/282/241 238/284/243
f 235/281/240 238/284/243 237/283/242
f 238/284/243 236/282/241 204/232/191
f 237/283/242 238/284/243 208/236/195
f 238/284/243 204/232/191 203/231/190
f 238/284/243 203/231/190 208/236/195
f 21/21/21 20/20/20 126/285/244
f 21/21/21 126/285/244 239/286/245
f 239/286/245 126/285/244 128/287/246
f 239/286/245 128/287/246 240/288/247
f 240/288/247 128/287/246 130/289/248
f 21/21/21 239/286/245 241/290/249
f 240/288/247 130/289/248 242/291/250
f 242/291/250 130/289/248 132/292/251
f 239/286/245 240/288/247 243/293/252
f 242/291/250 132/292/251 244/294/253
f 244/294/253 132/292/251 134/295/254
f 240/288/247 242/291/250 245/296/255
f 239/286/245 243/293/252 246/297/256
f 239/286/245 246/297/256 241/290/249
f 243/293/252 240/288/247 247/298/257
f 247/298/257 240/288/247 245/296/255
f 246/297/256 243/293/252 248/299/258
f 243/293/252 247/298/257 249/300/259
f 243/293/252 249/300/259 248/299/258
f 247/298/257 245/296/255 250/301/260
f 247/298/257 250/301/260 249/300/259
f 251/302/261 241/290/249 246/297/256
f 251/302/261 246/297/256 248/299/258
f 248/299/258 249/300/259 252/303/262
f 248/299/258 252/303/262 251/302/261
f 249/300/259 250/301/260 253/304/263
f 249/300/259 253/304/263 252/303/262
f 254/305/264 250/301/260 245/296/255
f 250/301/260 254/305/264 253/304/263
f 254/305/264 245/296/255 255/306/265
f 255/306/265 245/296/255 242/291/250
f 234/280/239 237/283/242 256/307/266
f 256/307/266 237/283/242 257/308/267
f 234/280/239 256/307/266 258/309/268
f 257/308/267 237/283/242 259/310/269
f 234/280/239 258/309/268 260/311/270
f 259/310/269 237/283/242 208/236/195
f 234/280/239 260/311/270 231/277/236
f 259/310/269 208/236/195 261/312/271
f 231/277/236 260/311/270 262/313/272
f 261/312/271 208/236/195 263/314/273
f 263/314/273 208/236/195 207/235/194
f 263/314/273 207/235/194 209/238/197
f 231/277/236 262/313/272 264/315/274
f 231/277/236 264/315/274 228/274/233
f 228/274/233 264/315/274 265/316/275
f 228/274/233 265/316/275 266/317/276
f 228/274/233 266/317/276 224/270/229
f 224/270/229 266/317/276 225/271/230
f 174/202/161 170/198/157 181/209/168
f 181/209/168 170/198/157 173/201/160
f 178/206/165 184/212/171 219/261/220
f 178/206/165 219/261/220 176/204/163
f 176/204/163 219/261/220 217/257/216
f 176/204/163 217/257/216 172/200/159
f 172/200/159 217/257/216 215/253/212
f 172/200/159 215/253/212 169/197/156
f 169/197/156 215/253/212 213/249/208
f 169/197/156 213/249/208 163/191/150
f 163/191/150 213/249/208 211/245/204
f 163/191/150 211/245/204 164/192/151
f 164/192/151 211/245/204 201/229/188
f 164/192/151 201/229/188 167/195/154
f 131/318/277 129/319/278 267/320/279
f 267/320/279 129/319/278 127/321/280
f 138/150/110 127/321/280 125/151/111
f 127/321/280 138/150/110 267/320/279
f 267/320/279 138/150/110 141/157/117
f 131/318/277 267/320/279 268/322/281
f 131/318/277 268/322/281 133/323/282
f 267/320/279 141/157/117 269/324/283
f 267/320/279 269/324/283 268/322/281
f 269/324/283 141/157/117 156/178/137
f 133/323/282 268/322/281 135/325/284
f 135/325/284 268/322/281 162/188/147
f 135/325/284 162/188/147 137/190/149
f 162/188/147 268/322/281 270/326/285
f 270/326/285 268/322/281 269/324/283
f 162/188/147 270/326/285 161/186/145
f 269/324/283 156/178/137 271/327/286
f 269/324/283 271/327/286 270/326/285
f 271/327/286 156/178/137 158/180/139
f 161/186/145 270/326/285 272/328/287
f 272/328/287 270/326/285 271/327/286
f 161/186/145 272/328/287 160/184/143
f 271/327/286 158/180/139 273/329/288
f 271/327/286 273/329/288 272/328/287
f 273/329/288 158/180/139 153/175/109
f 160/184/143 272/328/287 274/330/289
f 274/330/289 272/328/287 273/329/288
f 274/330/289 273/329/288 153/175/109
f 160/184/143 274/330/289 159/182/141
f 159/182/141 274/330/289 153/175/109
f 187/215/174 183/211/170 186/214/173
f 187/215/174 186/214/173 227/273/232
f 227/273/232 186/214/173 188/216/175
f 227/273/232 188/216/175 230/276/235
f 230/276/235 188/216/175 190/218/177
f 230/276/235 190/218/177 233/279/238
f 233/279/238 190/218/177 191/219/178
f 233/279/238 191/219/178 236/282/241
f 236/282/241 191/219/178 193/221/180
f 236/282/241 193/221/180 204/232/191
f 204/232/191 193/221/180 194/222/181
f 204/232/191 194/222/181 198/226/185
f 275/331/290 253/304/263 254/305/264
f 276/332/291 254/305/264 255/306/265
f 254/305/264 276/332/291 275/331/290
f 277/333/292 255/306/265 242/291/250
f 255/306/265 277/333/292 276/332/291
f 277/333/292 242/291/250 244/294/253
f 276/332/291 277/333/292 278/334/293
f 276/332/291 278/334/293 275/331/290
f 277/333/292 244/294/253 279/335/294
f 277/333/292 279/335/294 278/334/293
f 279/335/294 244/294/253 280/336/295
f 278/334/293 279/335/294 281/337/296
f 281/337/296 279/335/294 280/336/295
f 275/331/290 278/334/293 282/338/297
f 282/338/297 278/334/293 281/337/296
f 280/336/295 244/294/253 283/339/298
f 283/339/298 244/294/253 134/295/254
f 283/339/298 134/295/254 136/340/299
f 283/339/298 136/340/299 284/341/300
f 280/336/295 283/339/298 285/342/301
f 285/342/301 283/339/298 284/341/300
f 286/343/302 281/337/296 280/336/295
f 286/343/302 280/336/295 285/342/301
f 281/337/296 286/343/302 282/338/297
f 285/342/301 284/341/300 287/344/303
f 286/343/302 285/342/301 288/345/304
f 288/345/304 285/342/301 287/344/303
f 282/338/297 286/343/302 289/346/305
f 289/346/305 286/343/302 288/345/304
f 287/344/303 284/341/300 290/347/306
f 290/347/306 284/341/300 291/348/307
f 288/345/304 287/344/303 292/349/308
f 292/349/308 287/344/303 290/347/306
f 288/345/304 292/349/308 289/346/305
f 290/347/306 291/348/307 293/350/309
f 290/347/306 293/350/309 292/349/308
f 293/350/309 291/348/307 294/351/310
f 293/350/309 294/351/310 295/352/311
f 293/350/309 295/352/311 292/349/308
f 292/349/308 295/352/311 289/346/305
f 289/346/305 295/352/311 296/353/312
f 289/346/305 296/353/312 297/354/313
f 289/346/305 297/354/313 282/338/297
f 282/338/297 297/354/313 298/355/314
f 282/338/297 298/355/314 275/331/290
f 275/331/290 298/355/314 299/356/315
f 275/331/290 299/356/315 253/304/263
f 298/355/314 297/354/313 300/357/316
f 300/357/316 297/354/313 301/358/317
f 301/358/317 297/354/313 302/359/318
f 301/358/317 302/359/318 265/360/254
f 301/358/317 265/360/254 300/357/316
f 265/360/254 302/359/318 266/361/319
f 300/357/316 265/360/254 264/362/320
f 266/361/319 302/359/318 225/363/299
f 225/363/299 302/359/318 303/364/321
f 225/363/299 303/364/321 304/365/322
f 225/363/299 304/365/322 222/366/323
f 300/357/316 264/362/320 262/367/251
f 300/357/316 262/367/251 305/368/324
f 300/357/316 305/368/324 298/355/314
f 305/368/324 262/367/251 306/369/325
f 305/368/324 306/369/325 298/355/314
f 306/369/325 262/367/251 260/370/326
f 306/369/325 260/370/326 258/371/248
f 298/355/314 306/369/325 299/356/315
f 306/369/325 258/371/248 307/372/327
f 306/369/325 307/372/327 299/356/315
f 307/372/327 258/371/248 308/373/328
f 307/372/327 308/373/328 299/356/315
f 308/373/328 258/371/248 256/374/329
f 308/373/328 256/374/329 257/375/246
f 299/356/315 308/373/328 309/376/330
f 299/356/315 309/376/330 253/304/263
f 308/373/328 257/375/246 310/377/331
f 308/373/328 310/377/331 309/376/330
f 310/377/331 257/375/246 311/378/332
f 310/377/331 311/378/332 309/376/330
f 311/378/332 257/375/246 259/379/333
f 253/304/263 309/376/330 252/303/262
f 311/378/332 259/379/333 261/380/334
f 311/378/332 261/380/334 312/381/335
f 309/376/330 311/378/332 31/31/31
f 31/31/31 311/378/332 312/381/335
f 309/376/330 31/31/31 252/303/262
f 312/381/335 261/380/334 30/30/30
f 312/381/335 30/30/30 31/31/31
f 30/30/30 261/380/334 263/382/336
f 30/30/30 263/382/336 209/383/20
f 30/30/30 209/383/20 32/32/32
f 32/32/32 209/383/20 34/34/34
f 34/34/34 209/383/20 37/37/37
f 28/28/28 252/303/262 31/31/31
f 28/28/28 31/31/31 29/29/29
f 252/303/262 28/28/28 251/302/261
f 251/302/261 28/28/28 313/384/337
f 313/384/337 28/28/28 27/27/27
f 251/302/261 313/384/337 241/290/249
f 313/384/337 27/27/27 314/385/338
f 313/384/337 314/385/338 241/290/249
f 314/385/338 27/27/27 22/22/22
f 241/290/249 314/385/338 21/21/21
f 21/21/21 314/385/338 22/22/22
f 284/341/300 136/340/299 94/386/323
f 284/341/300 94/386/323 89/387/339
f 284/341/300 89/387/339 291/348/307
f 291/348/307 89/387/339 88/388/340
f 291/348/307 88/388/340 294/351/310
f 294/351/310 88/388/340 85/389/341
f 294/351/310 85/389/341 82/390/342
f 294/351/310 82/390/342 295/352/311
f 295/352/311 82/390/342 81/391/343
f 295/352/311 81/391/343 296/353/312
f 302/359/318 297/354/313 296/353/312
f 302/359/318 296/353/312 303/364/321
f 303/364/321 296/353/312 304/365/322
f 304/365/322 296/353/312 81/391/343
f 304/365/322 81/391/343 80/392/344
f 304/365/322 80/392/344 79/393/345
f 304/365/322 79/393/345 222/366/323
