# CS2 body mesh, tools/cs2_glb_to_obj.py
v 0.04238 -0.02816 0.04225
v 0.04209 -0.02922 0.04225
v 0.04252 -0.02944 0.04225
v 0.04174 -0.03046 0.04225
v 0.04286 -0.0282 0.04225
v 0.04142 -0.03009 0.04225
v 0.04224 -0.02707 0.04225
v 0.04062 -0.03109 0.04225
v 0.0427 -0.02692 0.04225
v 0.04047 -0.03063 0.04225
v 0.0417 -0.02612 0.04225
v 0.03934 -0.03126 0.04225
v 0.04206 -0.0258 0.04225
v 0.03938 -0.03077 0.04225
v 0.04083 -0.02545 0.04225
v 0.0381 -0.03092 0.04225
v 0.04104 -0.02502 0.04225
v 0.03977 -0.02516 0.04225
v 0.0398 -0.02468 0.04225
v 0.03832 -0.03048 0.04225
v 0.03708 -0.03013 0.04225
v 0.03745 -0.02981 0.04225
v 0.03645 -0.02901 0.04225
v 0.03691 -0.02886 0.04225
v 0.03628 -0.02774 0.04225
v 0.03677 -0.02777 0.04225
v 0.03662 -0.02649 0.04225
v 0.03706 -0.02671 0.04225
v 0.03741 -0.02548 0.04225
v 0.03773 -0.02584 0.04225
v 0.03853 -0.02484 0.04225
v 0.03868 -0.0253 0.04225
v 0.0352 -0.02943 -0.00567
v 0.03497 -0.02764 -0.00567
v 0.03693 -0.02778 -0.00567
v 0.0372 -0.02678 -0.00567
v 0.03706 -0.02881 -0.00567
v 0.03544 -0.02591 -0.00567
v 0.03783 -0.02596 -0.00567
v 0.03443 -0.02862 -0.00538
v 0.03441 -0.02761 -0.00538
v 0.03466 -0.02961 -0.00538
v 0.03458 -0.0266 -0.00538
v 0.03494 -0.02565 -0.00538
v 0.03508 -0.03054 -0.00538
v 0.03548 -0.02479 -0.00538
v 0.03609 -0.03099 -0.00567
v 0.03566 -0.03136 -0.00538
v 0.03757 -0.02971 -0.00567
v 0.0364 -0.03206 -0.00538
v 0.03654 -0.02448 -0.00567
v 0.03751 -0.0321 -0.00567
v 0.03617 -0.02406 -0.00538
v 0.037 -0.02347 -0.00538
v 0.03726 -0.0326 -0.00538
v 0.03873 -0.02545 -0.00567
v 0.03821 -0.03296 -0.00538
v 0.03811 -0.02359 -0.00567
v 0.03793 -0.02305 -0.00538
v 0.03892 -0.02283 -0.00538
v 0.03925 -0.03257 -0.00567
v 0.03921 -0.03313 -0.00538
v 0.04023 -0.03311 -0.00538
v 0.03839 -0.03034 -0.00567
v 0.0399 -0.02336 -0.00567
v 0.03993 -0.0228 -0.00538
v 0.04094 -0.02297 -0.00538
v 0.03976 -0.02532 -0.00567
v 0.04163 -0.02384 -0.00567
v 0.04188 -0.02333 -0.00538
v 0.03888 -0.02589 -0.00521
v 0.04076 -0.02559 -0.00567
v 0.03973 -0.02578 -0.00521
v 0.04055 -0.026 -0.00521
v 0.04158 -0.02623 -0.00567
v 0.04306 -0.02494 -0.00567
v 0.04123 -0.02653 -0.00521
v 0.04209 -0.02712 -0.00567
v 0.04395 -0.0265 -0.00567
v 0.04165 -0.02727 -0.00521
v 0.04222 -0.02815 -0.00567
v 0.04418 -0.02829 -0.00567
v 0.04176 -0.02812 -0.00521
v 0.04195 -0.02915 -0.00567
v 0.0437 -0.03003 -0.00567
v 0.04154 -0.02895 -0.00521
v 0.04131 -0.02997 -0.00567
v 0.0426 -0.03145 -0.00567
v 0.04101 -0.02962 -0.00521
v 0.04042 -0.03048 -0.00567
v 0.04027 -0.03005 -0.00521
v 0.04104 -0.03234 -0.00567
v 0.03939 -0.03061 -0.00567
v 0.03942 -0.03015 -0.00521
v 0.04122 -0.03288 -0.00538
v 0.04214 -0.03246 -0.00538
v 0.03859 -0.02993 -0.00521
v 0.04018 -0.02979 -0.00581
v 0.03944 -0.02989 -0.00581
v 0.03871 -0.02969 -0.00581
v 0.03792 -0.02941 -0.00521
v 0.03951 -0.02888 -0.00581
v 0.03812 -0.02923 -0.00581
v 0.03749 -0.02866 -0.00521
v 0.03888 -0.02857 -0.00581
v 0.03775 -0.02858 -0.00581
v 0.03722 -0.02931 0.04496
v 0.03696 -0.02725 0.04496
v 0.03886 -0.03058 0.04496
v 0.04092 -0.03032 0.04496
v 0.04067 -0.02988 0.04964
v 0.03823 -0.02561 0.04496
v 0.04029 -0.02535 0.04496
v 0.03899 -0.0301 0.04964
v 0.04024 -0.02913 0.05351
v 0.03848 -0.02605 0.04964
v 0.04015 -0.02584 0.04964
v 0.03744 -0.02739 0.04964
v 0.03766 -0.02906 0.04964
v 0.03891 -0.0268 0.05351
v 0.03993 -0.02668 0.05351
v 0.03828 -0.02761 0.05351
v 0.03841 -0.02863 0.05351
v 0.03922 -0.02926 0.05351
v 0.03995 -0.02862 0.05485
v 0.03938 -0.02869 0.05485
v 0.03957 -0.02797 0.05535
v 0.03892 -0.02834 0.05485
v 0.03885 -0.02777 0.05485
v 0.0392 -0.02731 0.05485
v 0.03977 -0.02724 0.05485
v 0.04297 -0.03188 -0.00538
v 0.04367 -0.03114 -0.00538
v 0.04421 -0.03028 -0.00538
v 0.04457 -0.02933 -0.00538
v 0.04474 -0.02833 -0.00538
v 0.04471 -0.02731 -0.00538
v 0.04449 -0.02632 -0.00538
v 0.04407 -0.0254 -0.00538
v 0.04348 -0.02457 -0.00538
v 0.04274 -0.02387 -0.00538
v 0.03897 -0.02728 -0.00581
v 0.03957 -0.02797 -0.00548
v 0.03866 -0.0279 -0.00581
v 0.03739 -0.02781 -0.00521
v 0.03765 -0.02783 -0.00581
v 0.03761 -0.02699 -0.00521
v 0.03785 -0.02711 -0.00581
v 0.03813 -0.02631 -0.00521
v 0.03831 -0.02651 -0.00581
v 0.03896 -0.02614 -0.00581
v 0.03971 -0.02605 -0.00581
v 0.03964 -0.02706 -0.00581
v 0.04043 -0.02624 -0.00581
v 0.04026 -0.02737 -0.00581
v 0.04103 -0.0267 -0.00581
v 0.0414 -0.02736 -0.00581
v 0.04048 -0.02803 -0.00581
v 0.04149 -0.0281 -0.00581
v 0.0413 -0.02883 -0.00581
v 0.04017 -0.02866 -0.00581
v 0.04084 -0.02942 -0.00581
v 0.04122 -0.03288 -0.00212
v 0.04023 -0.03311 -0.00212
v 0.04097 -0.03214 -0.00294
v 0.03927 -0.03236 -0.00294
v 0.03927 -0.03236 -0.00404
v 0.04097 -0.03214 -0.00404
v 0.04214 -0.03246 -0.00433
v 0.04246 -0.03129 -0.00404
v 0.04122 -0.03288 -0.00433
v 0.04023 -0.03311 -0.00433
v 0.03921 -0.03313 -0.00433
v 0.03821 -0.03296 -0.00433
v 0.03761 -0.03191 -0.00404
v 0.03726 -0.0326 -0.00433
v 0.0364 -0.03206 -0.00433
v 0.03566 -0.03136 -0.00433
v 0.03625 -0.03085 -0.00404
v 0.03508 -0.03054 -0.00433
v 0.03466 -0.02961 -0.00433
v 0.03761 -0.03191 -0.00294
v 0.0354 -0.02936 -0.00404
v 0.03443 -0.02862 -0.00433
v 0.03441 -0.02761 -0.00433
v 0.03625 -0.03085 -0.00294
v 0.03518 -0.02766 -0.00404
v 0.03458 -0.0266 -0.00433
v 0.03494 -0.02565 -0.00433
v 0.0354 -0.02936 -0.00294
v 0.03563 -0.026 -0.00404
v 0.03548 -0.02479 -0.00433
v 0.03617 -0.02406 -0.00433
v 0.03518 -0.02766 -0.00294
v 0.03669 -0.02464 -0.00404
v 0.037 -0.02347 -0.00433
v 0.03793 -0.02305 -0.00433
v 0.03563 -0.026 -0.00294
v 0.03818 -0.02379 -0.00404
v 0.03892 -0.02283 -0.00433
v 0.03993 -0.0228 -0.00433
v 0.03988 -0.02357 -0.00404
v 0.03818 -0.02379 -0.00294
v 0.03669 -0.02464 -0.00294
v 0.03988 -0.02357 -0.00294
v 0.03892 -0.02283 -0.00212
v 0.03993 -0.0228 -0.00212
v 0.03993 -0.0228 0.03313
v 0.03892 -0.02283 0.03313
v 0.0398 -0.02468 0.03688
v 0.03793 -0.02305 -0.00212
v 0.037 -0.02347 -0.00212
v 0.03793 -0.02305 0.03313
v 0.03853 -0.02484 0.03688
v 0.037 -0.02347 0.03313
v 0.03617 -0.02406 -0.00212
v 0.03617 -0.02406 0.03313
v 0.03741 -0.02548 0.03688
v 0.03548 -0.02479 -0.00212
v 0.03662 -0.02649 0.03688
v 0.03548 -0.02479 0.03313
v 0.03494 -0.02565 -0.00212
v 0.03458 -0.0266 -0.00212
v 0.03494 -0.02565 0.03313
v 0.03458 -0.0266 0.03313
v 0.03628 -0.02774 0.03688
v 0.03441 -0.02761 -0.00212
v 0.03443 -0.02862 -0.00212
v 0.03441 -0.02761 0.03313
v 0.03645 -0.02901 0.03688
v 0.03443 -0.02862 0.03313
v 0.03466 -0.02961 -0.00212
v 0.03508 -0.03054 -0.00212
v 0.03466 -0.02961 0.03313
v 0.03708 -0.03013 0.03688
v 0.03508 -0.03054 0.03313
v 0.03566 -0.03136 -0.00212
v 0.0364 -0.03206 -0.00212
v 0.03566 -0.03136 0.03313
v 0.0364 -0.03206 0.03313
v 0.0381 -0.03092 0.03688
v 0.03726 -0.0326 -0.00212
v 0.03821 -0.03296 -0.00212
v 0.03726 -0.0326 0.03313
v 0.03821 -0.03296 0.03313
v 0.03934 -0.03126 0.03688
v 0.03921 -0.03313 -0.00212
v 0.04062 -0.03109 0.03688
v 0.04023 -0.03311 0.03313
v 0.04122 -0.03288 0.03313
v 0.03921 -0.03313 0.03313
v 0.04214 -0.03246 -0.00212
v 0.04214 -0.03246 0.03313
v 0.04246 -0.03129 -0.00294
v 0.04297 -0.03188 -0.00212
v 0.04174 -0.03046 0.03688
v 0.04297 -0.03188 0.03313
v 0.04367 -0.03114 -0.00212
v 0.04367 -0.03114 0.03313
v 0.04252 -0.02944 0.03688
v 0.04351 -0.02993 -0.00294
v 0.04421 -0.03028 -0.00212
v 0.04421 -0.03028 0.03313
v 0.04286 -0.0282 0.03688
v 0.04457 -0.02933 0.03313
v 0.04457 -0.02933 -0.00212
v 0.0427 -0.02692 0.03688
v 0.04474 -0.02833 0.03313
v 0.04474 -0.02833 -0.00212
v 0.04397 -0.02827 -0.00294
v 0.04471 -0.02731 -0.00212
v 0.04471 -0.02731 0.03313
v 0.04351 -0.02993 -0.00404
v 0.04375 -0.02657 -0.00294
v 0.04449 -0.02632 -0.00212
v 0.04449 -0.02632 0.03313
v 0.04407 -0.0254 -0.00212
v 0.04407 -0.0254 0.03313
v 0.04206 -0.0258 0.03688
v 0.04397 -0.02827 -0.00404
v 0.0429 -0.02508 -0.00294
v 0.04348 -0.02457 -0.00212
v 0.04348 -0.02457 0.03313
v 0.04274 -0.02387 -0.00212
v 0.04274 -0.02387 0.03313
v 0.04375 -0.02657 -0.00404
v 0.04154 -0.02403 -0.00294
v 0.04188 -0.02333 -0.00212
v 0.04188 -0.02333 0.03313
v 0.04094 -0.02297 -0.00212
v 0.04094 -0.02297 0.03313
v 0.04104 -0.02502 0.03688
v 0.0429 -0.02508 -0.00404
v 0.04154 -0.02403 -0.00404
v 0.04407 -0.0254 -0.00433
v 0.04348 -0.02457 -0.00433
v 0.04274 -0.02387 -0.00433
v 0.04188 -0.02333 -0.00433
v 0.04094 -0.02297 -0.00433
v 0.04449 -0.02632 -0.00433
v 0.04471 -0.02731 -0.00433
v 0.04474 -0.02833 -0.00433
v 0.04457 -0.02933 -0.00433
v 0.04421 -0.03028 -0.00433
v 0.04367 -0.03114 -0.00433
v 0.04297 -0.03188 -0.00433
v 0.04219 -0.02868 0.04496
v 0.0417 -0.02855 0.04964
v 0.04193 -0.02662 0.04496
v 0.04149 -0.02687 0.04964
v 0.04074 -0.0273 0.05351
v 0.04023 -0.02759 0.05485
v 0.04086 -0.02832 0.05351
v 0.0403 -0.02816 0.05485
vt 0.110779 0.089966
vt 0.110779 0.088318
vt 0.110291 0.088318
vt 0.110291 0.086609
vt 0.110291 0.089966
vt 0.110779 0.086609
vt 0.110779 0.091614
vt 0.110291 0.0849
vt 0.110291 0.091553
vt 0.110779 0.0849
vt 0.110779 0.09314
vt 0.110291 0.083191
vt 0.110291 0.093079
vt 0.110779 0.083191
vt 0.110779 0.094604
vt 0.110291 0.081482
vt 0.110291 0.094543
vt 0.110779 0.095947
vt 0.110291 0.096008
vt 0.110779 0.081482
vt 0.110291 0.079773
vt 0.110779 0.079773
vt 0.110291 0.078064
vt 0.110779 0.078064
vt 0.110291 0.076416
vt 0.110779 0.076416
vt 0.110291 0.074829
vt 0.110779 0.074829
vt 0.110291 0.073364
vt 0.110779 0.073303
vt 0.110291 0.071899
vt 0.110779 0.071838
vt 0.110291 0.070435
vt 0.110779 0.070496
vt 0.512207 0.197388
vt 0.511719 0.199585
vt 0.513672 0.199585
vt 0.51416 0.200806
vt 0.51416 0.198242
vt 0.512207 0.20166
vt 0.514648 0.201904
vt 0.51123 0.198364
vt 0.510742 0.199585
vt 0.51123 0.197144
vt 0.51123 0.200806
vt 0.51123 0.202026
vt 0.511719 0.196045
vt 0.512207 0.203003
vt 0.513184 0.195679
vt 0.512695 0.195068
vt 0.514648 0.197144
vt 0.513672 0.194336
vt 0.513184 0.203491
vt 0.515137 0.194336
vt 0.512695 0.203979
vt 0.513672 0.204712
vt 0.514648 0.193726
vt 0.516113 0.202637
vt 0.515625 0.193359
vt 0.515137 0.204712
vt 0.514648 0.205322
vt 0.516113 0.205688
vt 0.51709 0.19397
vt 0.51709 0.193237
vt 0.518066 0.193359
vt 0.515625 0.196411
vt 0.51709 0.205078
vt 0.51709 0.205811
vt 0.518555 0.205688
vt 0.51709 0.202881
vt 0.519531 0.20459
vt 0.519531 0.205322
vt 0.516113 0.202026
vt 0.518555 0.202515
vt 0.51709 0.202148
vt 0.518066 0.201904
vt 0.519531 0.201782
vt 0.520996 0.203369
vt 0.519043 0.201416
vt 0.520508 0.200684
vt 0.522461 0.201538
vt 0.519531 0.200439
vt 0.520508 0.199463
vt 0.522949 0.199463
vt 0.52002 0.199463
vt 0.52002 0.19812
vt 0.522461 0.197266
vt 0.519531 0.198486
vt 0.519531 0.197144
vt 0.520996 0.195557
vt 0.519043 0.197632
vt 0.518555 0.196411
vt 0.518066 0.197021
vt 0.519043 0.194336
vt 0.51709 0.196167
vt 0.51709 0.196777
vt 0.519531 0.193604
vt 0.520508 0.194214
vt 0.516113 0.197021
vt 0.518066 0.197632
vt 0.51709 0.19751
vt 0.516602 0.197632
vt 0.515137 0.197632
vt 0.51709 0.198486
vt 0.515625 0.19812
vt 0.514648 0.198486
vt 0.516602 0.198853
vt 0.515137 0.19873
vt 0.0625 0.016693
vt 0.061157 0.016693
vt 0.060089 0.019485
vt 0.059723 0.016693
vt 0.062561 0.019669
vt 0.063843 0.016693
vt 0.057526 0.019424
vt 0.058289 0.016693
vt 0.065063 0.016693
vt 0.056824 0.016693
vt 0.054932 0.019485
vt 0.055359 0.016693
vt 0.055542 0.024414
vt 0.06488 0.019989
vt 0.066223 0.016693
vt 0.067383 0.016693
vt 0.067139 0.020676
vt 0.057465 0.024323
vt 0.056366 0.02858
vt 0.062927 0.025345
vt 0.064575 0.026245
vt 0.061218 0.024765
vt 0.059387 0.024429
vt 0.060303 0.029358
vt 0.061066 0.030121
vt 0.059448 0.02887
vt 0.058441 0.028595
vt 0.057404 0.028503
vt 0.056854 0.030029
vt 0.057404 0.029953
vt 0.057373 0.030884
vt 0.057922 0.030029
vt 0.058411 0.030212
vt 0.058807 0.030533
vt 0.059021 0.031052
vt 0.521484 0.194946
vt 0.522461 0.195923
vt 0.522949 0.197021
vt 0.523438 0.19812
vt 0.523438 0.199341
vt 0.523438 0.200684
vt 0.522949 0.201782
vt 0.522461 0.202881
vt 0.521484 0.203857
vt 0.520508 0.204712
vt 0.516602 0.200195
vt 0.51709 0.199463
vt 0.516113 0.199463
vt 0.514648 0.199585
vt 0.515137 0.199585
vt 0.514648 0.200562
vt 0.515137 0.200317
vt 0.515137 0.201416
vt 0.515625 0.200928
vt 0.516602 0.201416
vt 0.51709 0.201538
vt 0.51709 0.200439
vt 0.518066 0.201416
vt 0.518066 0.200195
vt 0.518555 0.200928
vt 0.519043 0.200195
vt 0.518066 0.199463
vt 0.519043 0.199463
vt 0.519043 0.19873
vt 0.518066 0.198853
vt 0.518555 0.197998
vt 0.771973 0.992676
vt 0.770996 0.992676
vt 0.772461 0.993652
vt 0.77002 0.993652
vt 0.77002 0.995117
vt 0.772461 0.995117
vt 0.773438 0.996094
vt 0.774414 0.995117
vt 0.772461 0.996094
vt 0.770996 0.996094
vt 0.77002 0.996094
vt 0.77002 0.997559
vt 0.770996 0.997559
vt 0.769043 0.996094
vt 0.769043 0.997559
vt 0.767578 0.997559
vt 0.767578 0.995117
vt 0.767578 0.996094
vt 0.766602 0.996094
vt 0.766602 0.997559
vt 0.765625 0.997559
vt 0.765625 0.996094
vt 0.765625 0.995117
vt 0.76416 0.996094
vt 0.76416 0.997559
vt 0.763184 0.997559
vt 0.763184 0.996094
vt 0.767578 0.993652
vt 0.763184 0.995117
vt 0.762207 0.996094
vt 0.761719 0.997559
vt 0.760742 0.997559
vt 0.760742 0.996094
vt 0.765625 0.993652
vt 0.760742 0.995117
vt 0.759766 0.996094
vt 0.759766 0.997559
vt 0.758301 0.997559
vt 0.758301 0.996094
vt 0.763184 0.993652
vt 0.758789 0.995117
vt 0.757324 0.996094
vt 0.757324 0.997559
vt 0.756348 0.997559
vt 0.756348 0.996094
vt 0.76123 0.993652
vt 0.756348 0.995117
vt 0.754883 0.996094
vt 0.754883 0.997559
vt 0.753906 0.997559
vt 0.753906 0.996094
vt 0.758789 0.993652
vt 0.754395 0.995117
vt 0.75293 0.996094
vt 0.752441 0.997559
vt 0.751465 0.997559
vt 0.751465 0.996094
vt 0.751953 0.995117
vt 0.754395 0.993652
vt 0.756836 0.993652
vt 0.752441 0.993652
vt 0.753906 0.992676
vt 0.752441 0.992676
vt 0.752441 0.95166
vt 0.753906 0.95166
vt 0.755859 0.946777
vt 0.754883 0.992676
vt 0.755859 0.992676
vt 0.754883 0.95166
vt 0.757324 0.946777
vt 0.755859 0.940918
vt 0.757324 0.940918
vt 0.755859 0.95166
vt 0.756836 0.992676
vt 0.756836 0.95166
vt 0.758789 0.946777
vt 0.758789 0.940918
vt 0.758301 0.992676
vt 0.760742 0.946777
vt 0.758301 0.95166
vt 0.760742 0.940918
vt 0.759277 0.992676
vt 0.760254 0.992676
vt 0.759277 0.95166
vt 0.760254 0.95166
vt 0.762207 0.946777
vt 0.762207 0.940918
vt 0.76123 0.992676
vt 0.762695 0.992676
vt 0.76123 0.95166
vt 0.76416 0.946777
vt 0.762695 0.95166
vt 0.76416 0.940918
vt 0.763672 0.992676
vt 0.764648 0.992676
vt 0.763672 0.95166
vt 0.766113 0.946777
vt 0.764648 0.95166
vt 0.766113 0.940918
vt 0.765625 0.992676
vt 0.766602 0.992676
vt 0.765625 0.95166
vt 0.766602 0.95166
vt 0.768066 0.946777
vt 0.768066 0.940918
vt 0.768066 0.992676
vt 0.769043 0.992676
vt 0.768066 0.95166
vt 0.769043 0.95166
vt 0.77002 0.946777
vt 0.77002 0.940918
vt 0.77002 0.992676
vt 0.771973 0.946777
vt 0.771973 0.940918
vt 0.770996 0.95166
vt 0.771973 0.95166
vt 0.77002 0.95166
vt 0.773438 0.992676
vt 0.773438 0.95166
vt 0.774414 0.993652
vt 0.774414 0.992676
vt 0.773926 0.946777
vt 0.774414 0.95166
vt 0.773926 0.940918
vt 0.775391 0.992676
vt 0.775391 0.95166
vt 0.775879 0.946777
vt 0.775879 0.940918
vt 0.776855 0.993652
vt 0.776367 0.992676
vt 0.776367 0.95166
vt 0.777832 0.946777
vt 0.777832 0.940918
vt 0.777344 0.95166
vt 0.777344 0.992676
vt 0.779297 0.946777
vt 0.779297 0.940918
vt 0.778809 0.95166
vt 0.778809 0.992676
vt 0.778809 0.993652
vt 0.779785 0.992676
vt 0.779785 0.95166
vt 0.776855 0.995117
vt 0.78125 0.993652
vt 0.780762 0.992676
vt 0.780762 0.95166
vt 0.781738 0.992676
vt 0.781738 0.95166
vt 0.78125 0.946777
vt 0.78125 0.940918
vt 0.779297 0.995117
vt 0.783203 0.993652
vt 0.782715 0.992676
vt 0.782715 0.95166
vt 0.78418 0.992676
vt 0.78418 0.95166
vt 0.78125 0.995117
vt 0.785645 0.993652
vt 0.785156 0.992676
vt 0.785156 0.95166
vt 0.786133 0.992676
vt 0.786133 0.95166
vt 0.782715 0.946777
vt 0.78418 0.946777
vt 0.782715 0.940918
vt 0.78418 0.940918
vt 0.783691 0.995117
vt 0.785645 0.995117
vt 0.787598 0.993652
vt 0.788086 0.995117
vt 0.782715 0.996094
vt 0.783691 0.996094
vt 0.784668 0.996094
vt 0.783691 0.997559
vt 0.785156 0.997559
vt 0.782715 0.997559
vt 0.786133 0.997559
vt 0.786133 0.996094
vt 0.787109 0.996094
vt 0.787598 0.997559
vt 0.781738 0.997559
vt 0.78125 0.996094
vt 0.780273 0.996094
vt 0.780273 0.997559
vt 0.779297 0.997559
vt 0.779297 0.996094
vt 0.777832 0.996094
vt 0.777832 0.997559
vt 0.776855 0.997559
vt 0.776855 0.996094
vt 0.775879 0.996094
vt 0.775879 0.997559
vt 0.774414 0.997559
vt 0.774414 0.996094
vt 0.773438 0.997559
vt 0.772461 0.997559
vt 0.053955 0.016693
vt 0.052429 0.019638
vt 0.052582 0.016693
vt 0.05127 0.016693
vt 0.05368 0.024719
vt 0.050079 0.019913
vt 0.050018 0.016693
vt 0.048828 0.016693
vt 0.047729 0.020294
vt 0.047699 0.016693
vt 0.0466 0.016693
vt 0.050232 0.026093
vt 0.05191 0.025238
vt 0.05368 0.03006
vt 0.054474 0.029312
vt 0.055725 0.031036
vt 0.055969 0.030518
vt 0.055359 0.028839
vt 0.056366 0.030212
vt 0.788086 0.996094
vt 0.788574 0.997559
vt 0.787109 0.992676
vt 0.787109 0.95166
vn 0 -0.001 1
vn -0.1065 -0.0344 -0.9937
vn -0.1121 0.0076 -0.9937
vn 0.133 -0.01 -0.9911
vn 0.119 -0.0607 -0.991
vn 0.1257 0.0419 -0.9912
vn -0.0995 0.0503 -0.9938
vn 0.0853 -0.1026 -0.9911
vn -0.415 -0.0552 -0.9081
vn -0.4561 0.0309 -0.8894
vn -0.4333 -0.1449 -0.8895
vn -0.4046 0.1098 -0.9079
vn -0.4099 0.2042 -0.8889
vn -0.3644 -0.2068 -0.908
vn -0.3319 0.2559 -0.908
vn -0.0856 -0.0732 -0.9936
vn -0.3453 -0.3017 -0.8887
vn 0.1002 0.0863 -0.9912
vn -0.2576 -0.3322 -0.9074
vn -0.0732 0.0844 -0.9937
vn -0.0492 -0.1018 -0.9936
vn -0.3015 0.3435 -0.8895
vn -0.2069 0.3661 -0.9073
vn -0.2056 -0.4068 -0.8901
vn 0.0407 -0.1256 -0.9912
vn -0.1113 -0.405 -0.9075
vn -0.0366 0.1055 -0.9937
vn -0.145 0.435 -0.8887
vn -0.0525 0.4157 -0.908
vn -0.0087 -0.1122 -0.9936
vn -0.0323 -0.4567 -0.8891
vn 0.0539 -0.4161 -0.9077
vn 0.0606 0.1178 -0.9912
vn 0.0076 0.1121 -0.9937
vn 0.0309 0.4561 -0.8894
vn 0.1098 0.4046 -0.9079
vn -0.0111 -0.1319 -0.9912
vn 0.0503 0.0995 -0.9938
vn 0.2042 0.4099 -0.8889
vn -0.007 0.0109 -0.9999
vn -0.0618 -0.1179 -0.9911
vn -0.003 0.0129 -0.9999
vn 0.003 0.0129 -0.9999
vn -0.1014 -0.0864 -0.9911
vn 0.0844 0.0732 -0.9937
vn 0.007 0.0109 -0.9999
vn -0.1267 -0.0396 -0.9911
vn 0.1055 0.0366 -0.9937
vn 0.0109 0.007 -0.9999
vn -0.1321 0.0122 -0.9912
vn 0.1111 -0.0098 -0.9938
vn 0.0129 0.003 -0.9999
vn -0.1178 0.0606 -0.9912
vn 0.1007 -0.0504 -0.9936
vn 0.0139 -0.001 -0.9999
vn -0.0863 0.1002 -0.9912
vn 0.0744 -0.0845 -0.9936
vn 0.012 -0.007 -0.9999
vn -0.0419 0.1257 -0.9912
vn 0.008 -0.011 -0.9999
vn 0.0355 -0.1054 -0.9938
vn 0.01 0.1343 -0.9909
vn 0.004 -0.0129 -0.9999
vn 0.1464 -0.432 -0.8899
vn 0.2083 -0.363 -0.9082
vn -0.002 -0.0129 -0.9999
vn 0.1511 -0.4606 -0.8747
vn -0.0382 -0.4847 -0.8738
vn -0.2209 -0.4314 -0.8747
vn -0.008 -0.011 -0.9999
vn 0.0076 0.1169 -0.9931
vn -0.3687 -0.3153 -0.8744
vn -0.01 -0.009 -0.9999
vn 0.087 0.0757 -0.9933
vn -0.4618 -0.1496 -0.8743
vn -0.9976 0.018 0.0666
vn -0.9542 -0.2929 0.0614
vn -0.8625 -0.4955 0.1028
vn -0.7163 -0.6946 0.0664
vn -0.9603 0.2598 0.1021
vn -0.8817 0.4677 0.0621
vn -0.2585 -0.9605 0.1034
vn -0.4656 -0.8829 0.0606
vn -0.6953 0.7155 0.0679
vn -0.0169 -0.9976 0.0677
vn 0.4972 -0.8615 0.1029
vn 0.2944 -0.9537 0.0614
vn 0.4806 -0.8631 0.1553
vn -0.495 0.863 0.1013
vn -0.2932 0.954 0.0627
vn -0.1263 0.9876 0.0932
vn -0.1265 0.9873 0.0958
vn -0.2715 -0.9502 0.1532
vn 0.4531 -0.8526 0.2602
vn -0.4784 0.8646 0.1536
vn -0.1259 0.9817 0.143
vn -0.9494 0.2734 0.1549
vn -0.864 -0.4789 0.1552
vn -0.4545 0.8524 0.2586
vn -0.1231 0.963 0.2398
vn -0.9237 0.2821 0.2592
vn -0.8516 -0.4549 0.2604
vn -0.2802 -0.9248 0.2573
vn 0.3859 -0.7506 0.5364
vn -0.256 -0.8038 0.5369
vn -0.7494 -0.3878 0.5367
vn -0.8035 0.2543 0.5383
vn -0.3879 0.748 0.5385
vn -0.1082 0.8468 0.5208
vn 0.3002 -0.3467 -0.8886
vn 0.3308 -0.2591 -0.9075
vn 0.4082 -0.2041 -0.8898
vn 0.4038 -0.1128 -0.9079
vn 0.4577 -0.031 -0.8885
vn 0.4157 0.0525 -0.908
vn 0.435 0.145 -0.8887
vn 0.3634 0.2099 -0.9077
vn 0.3464 0.2984 -0.8893
vn 0.2559 0.3319 -0.908
vn 0.0769 -0.0871 -0.9932
vn 0 -0.001 -1
vn 0.1157 -0.0076 -0.9933
vn -0.0139 -0.003 -0.9999
vn -0.4842 0.0368 -0.8742
vn -0.0129 0.003 -0.9999
vn -0.431 0.2192 -0.8753
vn -0.0109 0.007 -0.9999
vn -0.3151 0.3669 -0.8753
vn -0.1495 0.4601 -0.8752
vn 0.0368 0.4842 -0.8742
vn -0.0087 -0.1146 -0.9934
vn 0.2192 0.431 -0.8753
vn -0.0882 -0.0758 -0.9932
vn 0.3669 0.3151 -0.8753
vn 0.4601 0.1495 -0.8752
vn -0.1147 0.0098 -0.9933
vn 0.4836 -0.0396 -0.8744
vn 0.4327 -0.2194 -0.8744
vn -0.0757 0.087 -0.9933
vn 0.3169 -0.3672 -0.8745
vn 0.3165 -0.9484 -0.0201
vn 0.1255 -0.9917 -0.0291
vn 0.2945 -0.8758 -0.3825
vn -0.0642 -0.9217 -0.3826
vn -0.0608 -0.8776 0.4754
vn 0.2796 -0.8342 0.4753
vn 0.3968 -0.696 0.5985
vn 0.5773 -0.6629 0.4766
vn 0.2766 -0.8315 0.4818
vn 0.1023 -0.7963 0.5962
vn -0.0609 -0.874 0.482
vn -0.0688 -0.9976 0
vn 0.1269 -0.9919 0
vn -0.2102 -0.7745 0.5967
vn -0.2642 -0.9645 0
vn -0.4456 -0.8952 0
vn -0.3915 -0.7878 0.4756
vn -0.3922 -0.7829 0.483
vn -0.4917 -0.6348 0.5961
vn -0.6116 -0.7912 0
vn -0.7556 -0.655 0
vn -0.6618 -0.5728 0.4837
vn -0.6645 -0.5756 0.4766
vn -0.6973 -0.3949 0.5982
vn -0.8673 -0.4977 0
vn -0.9481 -0.3181 0
vn -0.8306 -0.2784 0.4822
vn -0.4118 -0.8283 -0.3801
vn -0.8333 -0.2814 0.4758
vn -0.7957 -0.1038 0.5968
vn -0.9921 -0.1256 0
vn -0.9977 0.0678 0.001
vn -0.8735 0.0595 0.4831
vn -0.6987 -0.6047 -0.3823
vn -0.8763 0.0623 0.4776
vn -0.774 0.2086 0.5979
vn -0.9648 0.2631 0.0012
vn -0.8957 0.4446 0.0013
vn -0.783 0.3939 0.4815
vn -0.8765 -0.2927 -0.3822
vn -0.7877 0.3898 0.4771
vn -0.6347 0.4899 0.5976
vn -0.7919 0.6107 0.0014
vn -0.6557 0.7551 0.0014
vn -0.5761 0.6601 0.4821
vn -0.9221 0.0656 -0.3814
vn -0.5758 0.663 0.4784
vn -0.3986 0.6962 0.597
vn -0.4983 0.867 0.0013
vn -0.3185 0.9479 -0.0012
vn -0.2786 0.8295 0.484
vn -0.8283 0.4102 -0.3817
vn -0.278 0.8339 0.4768
vn -0.1007 0.7958 0.5972
vn -0.1258 0.9921 -0.0011
vn -0.0292 0.9996 -0.001
vn -0.0257 0.877 0.4797
vn -0.1034 0.8771 0.469
vn -0.2925 0.8774 -0.3804
vn -0.6079 0.6969 -0.3806
vn -0.1056 0.9201 -0.3771
vn -0.1266 0.9916 -0.028
vn -0.0277 0.9994 -0.0215
vn -0.0283 0.9985 0.0472
vn -0.1266 0.9907 0.049
vn -0.118 0.9707 0.2094
vn -0.3184 0.9477 -0.0214
vn -0.497 0.8673 -0.0286
vn -0.3166 0.9474 0.0474
vn -0.3127 0.9268 0.208
vn -0.4951 0.8675 0.0483
vn -0.6563 0.7542 -0.021
vn -0.6545 0.7544 0.0499
vn -0.6382 0.7407 0.2096
vn -0.6557 0.7551 -0.0014
vn -0.7907 0.6115 -0.0294
vn -0.8742 0.4364 0.213
vn -0.7899 0.6112 0.0496
vn -0.8957 0.4446 -0.0013
vn -0.895 0.4455 -0.0199
vn -0.9641 0.2641 -0.0282
vn -0.8937 0.4462 0.0475
vn -0.9636 0.263 0.0486
vn -0.9743 0.0676 0.215
vn -0.9977 0.0678 -0.001
vn -0.9972 0.0713 -0.0202
vn -0.9918 -0.1243 -0.0291
vn -0.9964 0.0708 0.0468
vn -0.9268 -0.3075 0.2154
vn -0.9908 -0.1264 0.0478
vn -0.9479 -0.318 -0.0201
vn -0.8677 -0.4964 -0.0272
vn -0.9475 -0.3163 0.0461
vn -0.7379 -0.6398 0.2148
vn -0.8671 -0.4957 0.0497
vn -0.7549 -0.6556 -0.0196
vn -0.6124 -0.79 -0.028
vn -0.755 -0.6539 0.0484
vn -0.6121 -0.7893 0.0482
vn -0.435 -0.8745 0.2145
vn -0.4476 -0.894 -0.0213
vn -0.2623 -0.9646 -0.027
vn -0.444 -0.8948 0.046
vn -0.2612 -0.9641 0.0473
vn -0.0688 -0.9744 0.2138
vn -0.0702 -0.9973 -0.0213
vn 0.3092 -0.9262 0.2156
vn 0.3166 -0.9486 0
vn 0.1252 -0.991 0.0478
vn 0.3178 -0.947 0.0461
vn -0.0697 -0.9964 0.0479
vn 0.4948 -0.8686 -0.0272
vn 0.4973 -0.8661 0.0497
vn 0.6065 -0.6971 -0.3823
vn 0.6541 -0.7561 -0.0196
vn 0.6415 -0.7364 0.2149
vn 0.6554 -0.7537 0.0484
vn 0.6565 -0.7544 0
vn 0.7912 -0.6109 -0.028
vn 0.7905 -0.6106 0.0482
vn 0.8754 -0.4332 0.2144
vn 0.8944 -0.4472 0
vn 0.8272 -0.4136 -0.3803
vn 0.8948 -0.446 -0.0213
vn 0.894 -0.4457 0.0461
vn 0.9743 -0.0701 0.2141
vn 0.9976 -0.0699 0
vn 0.9637 -0.2627 0.0473
vn 0.9642 -0.2637 -0.027
vn 0.9273 0.3072 0.2138
vn 0.9489 0.3155 -0.0012
vn 0.9963 -0.0709 0.048
vn 0.9974 -0.0691 -0.0213
vn 0.922 -0.0628 -0.3821
vn 0.9916 0.1266 -0.028
vn 0.9911 0.124 0.0489
vn 0.7867 -0.3933 0.4759
vn 0.8774 0.2925 -0.3804
vn 0.9487 0.3154 -0.0214
vn 0.9474 0.3166 0.0474
vn 0.8673 0.497 -0.0286
vn 0.8675 0.4951 0.0483
vn 0.7379 0.6415 0.2097
vn 0.7551 0.6557 -0.0014
vn 0.8772 -0.0623 0.476
vn 0.6969 0.6079 -0.3806
vn 0.7542 0.6563 -0.021
vn 0.7531 0.6563 0.047
vn 0.6115 0.7907 -0.0294
vn 0.6112 0.7899 0.0496
vn 0.8339 0.278 0.4768
vn 0.4139 0.8262 -0.3822
vn 0.4455 0.895 -0.0199
vn 0.4472 0.893 0.0503
vn 0.2641 0.9641 -0.0282
vn 0.263 0.9636 0.0486
vn 0.439 0.8736 0.2098
vn 0.2516 0.9447 0.2104
vn 0.4477 0.8942 -0.0013
vn 0.2631 0.9648 -0.0012
vn 0.663 0.5758 0.4784
vn 0.3935 0.7854 0.4777
vn 0.2307 0.898 -0.3748
vn 0.2257 0.8527 0.4711
vn 0.6962 0.3986 0.597
vn 0.6601 0.5761 0.4821
vn 0.4899 0.6347 0.5976
vn 0.7551 0.6557 0.0014
vn 0.6137 0.7895 -0.0014
vn 0.8688 0.4951 0.0013
vn 0.3902 0.7852 0.4808
vn 0.212 0.7722 0.5989
vn 0.9489 0.3155 0.0012
vn 0.8312 0.275 0.4832
vn 0.7958 0.1007 0.5972
vn 0.9921 0.1258 -0.0011
vn 0.8736 -0.0624 0.4826
vn 0.7736 -0.212 0.5972
vn 0.9648 -0.2628 0
vn 0.784 -0.3904 0.4827
vn 0.6333 -0.4935 0.5962
vn 0.79 -0.6131 0
vn 0.5745 -0.6602 0.4838
vn 0.4961 -0.8682 0
vn 0.6932 -0.7177 0.0664
vn 0.9609 -0.257 0.1033
vn 0.8821 -0.4672 0.0606
vn 0.9976 -0.0159 0.0676
vn 0.9497 -0.2731 0.1533
vn 0.861 0.4983 0.1014
vn 0.954 0.2932 0.0627
vn 0.7184 0.6923 0.0679
vn 0.5948 0.7983 0.0945
vn 0.4677 0.8817 0.0621
vn 0.2616 0.965 0.0183
vn 0.606 0.7826 0.1422
vn 0.8646 0.4784 0.1536
vn 0.5933 0.7686 0.2395
vn 0.8524 0.4545 0.2586
vn 0.5313 0.6855 0.4978
vn 0.748 0.3879 0.5385
vn 0.9242 -0.2819 0.2575
vn 0.803 -0.2578 0.5374
vn 0.1473 0.8649 0.4798
vn 0.1682 0.9857 -0.0011
vn 0.166 0.9859 -0.0195
vn 0.1675 0.9848 0.0457
o bullet05__p1_c0
f 1/1/1 2/2/1 3/3/1
f 3/3/1 2/2/1 4/4/1
f 1/1/1 3/3/1 5/5/1
f 4/4/1 2/2/1 6/6/1
f 1/1/1 5/5/1 7/7/1
f 4/4/1 6/6/1 8/8/1
f 7/7/1 5/5/1 9/9/1
f 8/8/1 6/6/1 10/10/1
f 7/7/1 9/9/1 11/11/1
f 8/8/1 10/10/1 12/12/1
f 11/11/1 9/9/1 13/13/1
f 12/12/1 10/10/1 14/14/1
f 11/11/1 13/13/1 15/15/1
f 12/12/1 14/14/1 16/16/1
f 15/15/1 13/13/1 17/17/1
f 15/15/1 17/17/1 18/18/1
f 18/18/1 17/17/1 19/19/1
f 16/16/1 14/14/1 20/20/1
f 16/16/1 20/20/1 21/21/1
f 21/21/1 20/20/1 22/22/1
f 21/21/1 22/22/1 23/23/1
f 23/23/1 22/22/1 24/24/1
f 23/23/1 24/24/1 25/25/1
f 25/25/1 24/24/1 26/26/1
f 25/25/1 26/26/1 27/27/1
f 27/27/1 26/26/1 28/28/1
f 27/27/1 28/28/1 29/29/1
f 29/29/1 28/28/1 30/30/1
f 29/29/1 30/30/1 31/31/1
f 31/31/1 30/30/1 32/32/1
f 31/31/1 32/32/1 19/33/1
f 19/33/1 32/32/1 18/34/1
f 33/35/2 34/36/3 35/37/4
f 35/37/4 34/36/3 36/38/5
f 33/35/2 35/37/4 37/39/6
f 36/38/5 34/36/3 38/40/7
f 36/38/5 38/40/7 39/41/8
f 34/36/3 33/35/2 40/42/9
f 34/36/3 40/42/9 41/43/10
f 40/42/9 33/35/2 42/44/11
f 34/36/3 41/43/10 43/45/12
f 34/36/3 43/45/12 38/40/7
f 38/40/7 43/45/12 44/46/13
f 42/44/11 33/35/2 45/47/14
f 38/40/7 44/46/13 46/48/15
f 45/47/14 33/35/2 47/49/16
f 47/49/16 33/35/2 37/39/6
f 45/47/14 47/49/16 48/50/17
f 47/49/16 37/39/6 49/51/18
f 48/50/17 47/49/16 50/52/19
f 38/40/7 46/48/15 51/53/20
f 47/49/16 49/51/18 52/54/21
f 47/49/16 52/54/21 50/52/19
f 51/53/20 46/48/15 53/55/22
f 38/40/7 51/53/20 39/41/8
f 51/53/20 53/55/22 54/56/23
f 50/52/19 52/54/21 55/57/24
f 39/41/8 51/53/20 56/58/25
f 55/57/24 52/54/21 57/59/26
f 51/53/20 54/56/23 58/60/27
f 51/53/20 58/60/27 56/58/25
f 58/60/27 54/56/23 59/61/28
f 58/60/27 59/61/28 60/62/29
f 57/59/26 52/54/21 61/63/30
f 57/59/26 61/63/30 62/64/31
f 62/64/31 61/63/30 63/65/32
f 61/63/30 52/54/21 64/66/33
f 64/66/33 52/54/21 49/51/18
f 58/60/27 60/62/29 65/67/34
f 65/67/34 60/62/29 66/68/35
f 65/67/34 66/68/35 67/69/36
f 58/60/27 65/67/34 68/70/37
f 58/60/27 68/70/37 56/58/25
f 65/67/34 67/69/36 69/71/38
f 69/71/38 67/69/36 70/72/39
f 56/58/25 68/70/37 71/73/40
f 65/67/34 69/71/38 72/74/41
f 65/67/34 72/74/41 68/70/37
f 71/73/40 68/70/37 73/75/42
f 73/75/42 68/70/37 72/74/41
f 73/75/42 72/74/41 74/76/43
f 72/74/41 69/71/38 75/77/44
f 72/74/41 75/77/44 74/76/43
f 75/77/44 69/71/38 76/78/45
f 74/76/43 75/77/44 77/79/46
f 75/77/44 76/78/45 78/80/47
f 75/77/44 78/80/47 77/79/46
f 78/80/47 76/78/45 79/81/48
f 77/79/46 78/80/47 80/82/49
f 78/80/47 79/81/48 81/83/50
f 78/80/47 81/83/50 80/82/49
f 81/83/50 79/81/48 82/84/51
f 80/82/49 81/83/50 83/85/52
f 81/83/50 82/84/51 84/86/53
f 81/83/50 84/86/53 83/85/52
f 84/86/53 82/84/51 85/87/54
f 83/85/52 84/86/53 86/88/55
f 84/86/53 85/87/54 87/89/56
f 84/86/53 87/89/56 86/88/55
f 87/89/56 85/87/54 88/90/57
f 86/88/55 87/89/56 89/91/58
f 87/89/56 88/90/57 90/92/59
f 87/89/56 90/92/59 89/91/58
f 89/91/58 90/92/59 91/93/60
f 90/92/59 88/90/57 92/94/61
f 91/93/60 90/92/59 93/95/62
f 93/95/62 90/92/59 92/94/61
f 91/93/60 93/95/62 94/96/63
f 95/97/64 92/94/61 96/98/65
f 92/94/61 95/97/64 63/65/32
f 92/94/61 63/65/32 61/63/30
f 92/94/61 61/63/30 93/95/62
f 93/95/62 61/63/30 64/66/33
f 93/95/62 64/66/33 94/96/63
f 94/96/63 64/66/33 97/99/66
f 98/100/67 91/93/60 94/96/63
f 94/96/63 97/99/66 99/101/68
f 94/96/63 99/101/68 98/100/67
f 99/101/68 97/99/66 100/102/69
f 100/102/69 97/99/66 101/103/70
f 98/100/67 99/101/68 102/104/71
f 102/104/71 99/101/68 100/102/69
f 100/102/69 101/103/70 103/105/72
f 103/105/72 101/103/70 104/106/73
f 102/104/71 100/102/69 105/107/74
f 105/107/74 100/102/69 103/105/72
f 103/105/72 104/106/73 106/108/75
f 103/105/72 106/108/75 105/107/74
f 26/109/76 24/110/77 107/111/78
f 107/111/78 24/110/77 22/112/79
f 26/109/76 107/111/78 108/113/80
f 26/109/76 108/113/80 28/114/81
f 107/111/78 22/112/79 109/115/82
f 109/115/82 22/112/79 20/116/83
f 28/114/81 108/113/80 30/117/84
f 109/115/82 20/116/83 14/118/85
f 109/115/82 14/118/85 110/119/86
f 110/119/86 14/118/85 10/120/87
f 109/115/82 110/119/86 111/121/88
f 30/117/84 108/113/80 112/122/89
f 30/117/84 112/122/89 32/123/90
f 32/123/90 112/122/89 18/124/91
f 18/124/91 112/122/89 113/125/92
f 109/115/82 111/121/88 114/126/93
f 109/115/82 114/126/93 107/111/78
f 114/126/93 111/121/88 115/127/94
f 113/125/92 112/122/89 116/128/95
f 113/125/92 116/128/95 117/129/96
f 116/128/95 112/122/89 118/130/97
f 118/130/97 112/122/89 108/113/80
f 119/131/98 108/113/80 107/111/78
f 108/113/80 119/131/98 118/130/97
f 119/131/98 107/111/78 114/126/93
f 117/129/96 116/128/95 120/132/99
f 117/129/96 120/132/99 121/133/100
f 116/128/95 118/130/97 122/134/101
f 116/128/95 122/134/101 120/132/99
f 118/130/97 119/131/98 123/135/102
f 118/130/97 123/135/102 122/134/101
f 119/131/98 114/126/93 124/136/103
f 119/131/98 124/136/103 123/135/102
f 124/136/103 114/126/93 115/127/94
f 124/136/103 115/127/94 125/137/104
f 124/136/103 125/137/104 126/138/105
f 124/136/103 126/138/105 123/135/102
f 126/138/105 125/137/104 127/139/1
f 123/135/102 126/138/105 128/140/106
f 128/140/106 126/138/105 127/139/1
f 123/135/102 128/140/106 122/134/101
f 122/134/101 128/140/106 129/141/107
f 129/141/107 128/140/106 127/139/1
f 122/134/101 129/141/107 120/132/99
f 129/141/107 127/139/1 130/142/108
f 129/141/107 130/142/108 120/132/99
f 130/142/108 127/139/1 131/143/109
f 120/132/99 130/142/108 121/133/100
f 121/133/100 130/142/108 131/143/109
f 96/98/65 92/94/61 88/90/57
f 96/98/65 88/90/57 132/144/110
f 132/144/110 88/90/57 133/145/111
f 133/145/111 88/90/57 85/87/54
f 133/145/111 85/87/54 134/146/112
f 134/146/112 85/87/54 135/147/113
f 135/147/113 85/87/54 82/84/51
f 135/147/113 82/84/51 136/148/114
f 136/148/114 82/84/51 137/149/115
f 137/149/115 82/84/51 79/81/48
f 137/149/115 79/81/48 138/150/116
f 138/150/116 79/81/48 139/151/117
f 139/151/117 79/81/48 76/78/45
f 139/151/117 76/78/45 140/152/118
f 140/152/118 76/78/45 141/153/119
f 141/153/119 76/78/45 69/71/38
f 141/153/119 69/71/38 70/72/39
f 142/154/120 143/155/121 144/156/122
f 144/156/122 143/155/121 105/107/74
f 145/157/123 106/108/75 104/106/73
f 144/156/122 105/107/74 106/108/75
f 106/108/75 145/157/123 146/158/124
f 106/108/75 146/158/124 144/156/122
f 146/158/124 145/157/123 147/159/125
f 144/156/122 146/158/124 148/160/126
f 148/160/126 146/158/124 147/159/125
f 148/160/126 147/159/125 149/161/127
f 144/156/122 148/160/126 142/154/120
f 148/160/126 149/161/127 150/162/128
f 148/160/126 150/162/128 142/154/120
f 150/162/128 149/161/127 71/73/40
f 150/162/128 71/73/40 151/163/129
f 150/162/128 151/163/129 142/154/120
f 151/163/129 71/73/40 73/75/42
f 151/163/129 73/75/42 152/164/130
f 142/154/120 151/163/129 153/165/131
f 153/165/131 151/163/129 152/164/130
f 153/165/131 152/164/130 154/166/132
f 142/154/120 153/165/131 143/155/121
f 153/165/131 154/166/132 155/167/133
f 153/165/131 155/167/133 143/155/121
f 155/167/133 154/166/132 156/168/134
f 155/167/133 156/168/134 157/169/135
f 155/167/133 157/169/135 158/170/136
f 155/167/133 158/170/136 143/155/121
f 158/170/136 157/169/135 159/171/137
f 158/170/136 159/171/137 160/172/138
f 158/170/136 160/172/138 161/173/139
f 158/170/136 161/173/139 143/155/121
f 161/173/139 160/172/138 162/174/140
f 161/173/139 162/174/140 98/100/67
f 161/173/139 98/100/67 102/104/71
f 161/173/139 102/104/71 143/155/121
f 143/155/121 102/104/71 105/107/74
f 39/41/8 56/58/25 149/161/127
f 149/161/127 56/58/25 71/73/40
f 39/41/8 149/161/127 147/159/125
f 39/41/8 147/159/125 36/38/5
f 36/38/5 147/159/125 145/157/123
f 36/38/5 145/157/123 35/37/4
f 35/37/4 145/157/123 104/106/73
f 35/37/4 104/106/73 37/39/6
f 37/39/6 104/106/73 101/103/70
f 37/39/6 101/103/70 49/51/18
f 49/51/18 101/103/70 97/99/66
f 49/51/18 97/99/66 64/66/33
f 163/175/141 164/176/142 165/177/143
f 165/177/143 164/176/142 166/178/144
f 165/177/143 166/178/144 167/179/145
f 165/177/143 167/179/145 168/180/146
f 169/181/147 170/182/148 168/180/146
f 169/181/147 168/180/146 171/183/149
f 171/183/149 168/180/146 172/184/150
f 172/184/150 168/180/146 167/179/145
f 172/184/150 167/179/145 173/185/151
f 172/184/150 173/185/151 62/186/152
f 172/184/150 62/186/152 63/187/153
f 62/186/152 173/185/151 174/188/154
f 174/188/154 173/185/151 167/179/145
f 62/186/152 174/188/154 57/189/155
f 57/189/155 174/188/154 55/190/156
f 174/188/154 167/179/145 175/191/157
f 175/191/157 167/179/145 166/178/144
f 55/190/156 174/188/154 176/192/158
f 176/192/158 174/188/154 175/191/157
f 55/190/156 176/192/158 177/193/159
f 177/193/159 176/192/158 175/191/157
f 55/190/156 177/193/159 50/194/160
f 50/194/160 177/193/159 48/195/161
f 48/195/161 177/193/159 178/196/162
f 177/193/159 175/191/157 179/197/163
f 177/193/159 179/197/163 178/196/162
f 48/195/161 178/196/162 180/198/164
f 180/198/164 178/196/162 179/197/163
f 48/195/161 180/198/164 45/199/165
f 45/199/165 180/198/164 42/200/166
f 42/200/166 180/198/164 181/201/167
f 179/197/163 175/191/157 182/202/168
f 182/202/168 175/191/157 166/178/144
f 180/198/164 179/197/163 183/203/169
f 180/198/164 183/203/169 181/201/167
f 42/200/166 181/201/167 184/204/170
f 184/204/170 181/201/167 183/203/169
f 42/200/166 184/204/170 40/205/171
f 40/205/171 184/204/170 41/206/172
f 41/206/172 184/204/170 185/207/173
f 183/203/169 179/197/163 186/208/174
f 186/208/174 179/197/163 182/202/168
f 184/204/170 183/203/169 187/209/175
f 184/204/170 187/209/175 185/207/173
f 41/206/172 185/207/173 188/210/176
f 188/210/176 185/207/173 187/209/175
f 41/206/172 188/210/176 43/211/177
f 43/211/177 188/210/176 44/212/178
f 44/212/178 188/210/176 189/213/179
f 187/209/175 183/203/169 190/214/180
f 190/214/180 183/203/169 186/208/174
f 188/210/176 187/209/175 191/215/181
f 188/210/176 191/215/181 189/213/179
f 44/212/178 189/213/179 192/216/182
f 192/216/182 189/213/179 191/215/181
f 44/212/178 192/216/182 46/217/183
f 46/217/183 192/216/182 53/218/184
f 53/218/184 192/216/182 193/219/185
f 191/215/181 187/209/175 194/220/186
f 194/220/186 187/209/175 190/214/180
f 192/216/182 191/215/181 195/221/187
f 192/216/182 195/221/187 193/219/185
f 53/218/184 193/219/185 196/222/188
f 196/222/188 193/219/185 195/221/187
f 53/218/184 196/222/188 54/223/189
f 54/223/189 196/222/188 59/224/190
f 59/224/190 196/222/188 197/225/191
f 195/221/187 191/215/181 198/226/192
f 198/226/192 191/215/181 194/220/186
f 196/222/188 195/221/187 199/227/193
f 196/222/188 199/227/193 197/225/191
f 59/224/190 197/225/191 200/228/194
f 200/228/194 197/225/191 199/227/193
f 59/224/190 200/228/194 60/229/195
f 60/229/195 200/228/194 66/230/196
f 66/230/196 200/228/194 201/231/197
f 201/231/197 200/228/194 202/232/198
f 202/232/198 200/228/194 199/227/193
f 202/232/198 199/227/193 203/233/199
f 204/234/200 199/227/193 195/221/187
f 199/227/193 204/234/200 203/233/199
f 204/234/200 195/221/187 198/226/192
f 202/232/198 203/233/199 205/235/201
f 205/235/201 203/233/199 206/236/202
f 205/235/201 206/236/202 207/237/203
f 207/237/203 206/236/202 208/238/204
f 208/238/204 206/236/202 209/239/205
f 208/238/204 209/239/205 210/240/206
f 206/236/202 203/233/199 211/241/207
f 206/236/202 211/241/207 209/239/205
f 211/241/207 203/233/199 212/242/208
f 212/242/208 203/233/199 204/234/200
f 209/239/205 211/241/207 213/243/209
f 213/243/209 211/241/207 212/242/208
f 210/240/206 209/239/205 214/244/210
f 214/244/210 209/239/205 213/243/209
f 210/240/206 214/244/210 19/245/195
f 19/245/195 214/244/210 31/246/190
f 213/243/209 212/242/208 215/247/211
f 213/243/209 215/247/211 214/244/210
f 215/247/211 212/242/208 216/248/212
f 216/248/212 212/242/208 204/234/200
f 214/244/210 215/247/211 217/249/213
f 217/249/213 215/247/211 216/248/212
f 31/246/190 214/244/210 218/250/214
f 218/250/214 214/244/210 217/249/213
f 31/246/190 218/250/214 29/251/215
f 216/248/212 204/234/200 219/252/216
f 216/248/212 219/252/216 217/249/213
f 219/252/216 204/234/200 198/226/192
f 29/251/215 218/250/214 220/253/217
f 218/250/214 217/249/213 221/254/218
f 221/254/218 217/249/213 219/252/216
f 218/250/214 221/254/218 220/253/217
f 29/251/215 220/253/217 27/255/219
f 219/252/216 198/226/192 222/256/220
f 219/252/216 222/256/220 221/254/218
f 222/256/220 198/226/192 223/257/221
f 221/254/218 222/256/220 224/258/222
f 221/254/218 224/258/222 220/253/217
f 224/258/222 222/256/220 223/257/221
f 223/257/221 198/226/192 194/220/186
f 220/253/217 224/258/222 225/259/223
f 225/259/223 224/258/222 223/257/221
f 226/260/224 27/255/219 220/253/217
f 226/260/224 220/253/217 225/259/223
f 27/255/219 226/260/224 25/261/225
f 223/257/221 194/220/186 227/262/226
f 223/257/221 227/262/226 225/259/223
f 227/262/226 194/220/186 228/263/227
f 225/259/223 227/262/226 229/264/228
f 225/259/223 229/264/228 226/260/224
f 229/264/228 227/262/226 228/263/227
f 228/263/227 194/220/186 190/214/180
f 230/265/229 25/261/225 226/260/224
f 226/260/224 229/264/228 231/266/230
f 231/266/230 229/264/228 228/263/227
f 226/260/224 231/266/230 230/265/229
f 25/261/225 230/265/229 23/267/166
f 228/263/227 190/214/180 232/268/231
f 228/263/227 232/268/231 231/266/230
f 232/268/231 190/214/180 233/269/232
f 231/266/230 232/268/231 234/270/233
f 231/266/230 234/270/233 230/265/229
f 234/270/233 232/268/231 233/269/232
f 233/269/232 190/214/180 186/208/174
f 235/271/234 23/267/166 230/265/229
f 230/265/229 234/270/233 236/272/235
f 236/272/235 234/270/233 233/269/232
f 230/265/229 236/272/235 235/271/234
f 23/267/166 235/271/234 21/273/161
f 233/269/232 186/208/174 237/274/236
f 233/269/232 237/274/236 236/272/235
f 237/274/236 186/208/174 238/275/237
f 236/272/235 237/274/236 239/276/238
f 236/272/235 239/276/238 235/271/234
f 239/276/238 237/274/236 238/275/237
f 238/275/237 186/208/174 182/202/168
f 235/271/234 239/276/238 240/277/239
f 240/277/239 239/276/238 238/275/237
f 241/278/240 21/273/161 235/271/234
f 241/278/240 235/271/234 240/277/239
f 21/273/161 241/278/240 16/279/156
f 238/275/237 182/202/168 242/280/241
f 238/275/237 242/280/241 240/277/239
f 242/280/241 182/202/168 243/281/242
f 240/277/239 242/280/241 244/282/243
f 240/277/239 244/282/243 241/278/240
f 244/282/243 242/280/241 243/281/242
f 243/281/242 182/202/168 166/178/144
f 241/278/240 244/282/243 245/283/244
f 245/283/244 244/282/243 243/281/242
f 246/284/245 16/279/156 241/278/240
f 246/284/245 241/278/240 245/283/244
f 16/279/156 246/284/245 12/285/152
f 243/281/242 166/178/144 247/286/246
f 243/281/242 247/286/246 245/283/244
f 247/286/246 166/178/144 164/176/142
f 12/285/152 246/284/245 248/287/247
f 12/285/152 248/287/247 8/288/248
f 248/287/247 246/284/245 249/289/249
f 248/287/247 249/289/249 250/290/250
f 251/291/251 246/284/245 245/283/244
f 251/291/251 245/283/244 247/286/246
f 246/284/245 251/291/251 249/289/249
f 251/291/251 247/286/246 164/176/142
f 251/291/251 164/176/142 249/289/249
f 89/91/58 91/93/60 162/174/140
f 162/174/140 91/93/60 98/100/67
f 89/91/58 162/174/140 160/172/138
f 89/91/58 160/172/138 86/88/55
f 86/88/55 160/172/138 159/171/137
f 86/88/55 159/171/137 83/85/52
f 83/85/52 159/171/137 157/169/135
f 83/85/52 157/169/135 80/82/49
f 80/82/49 157/169/135 156/168/134
f 80/82/49 156/168/134 77/79/46
f 77/79/46 156/168/134 154/166/132
f 77/79/46 154/166/132 74/76/43
f 74/76/43 154/166/132 152/164/130
f 74/76/43 152/164/130 73/75/42
f 250/290/250 249/289/249 163/175/141
f 163/175/141 249/289/249 164/176/142
f 250/290/250 163/175/141 252/292/252
f 252/292/252 163/175/141 165/177/143
f 250/290/250 252/292/252 253/293/253
f 250/290/250 253/293/253 248/287/247
f 252/292/252 165/177/143 254/294/254
f 254/294/254 165/177/143 168/180/146
f 253/293/253 252/292/252 255/295/255
f 255/295/255 252/292/252 254/294/254
f 248/287/247 253/293/253 256/296/256
f 248/287/247 256/296/256 8/288/248
f 253/293/253 255/295/255 257/297/257
f 253/293/253 257/297/257 256/296/256
f 8/288/248 256/296/256 4/298/258
f 257/297/257 255/295/255 258/299/259
f 258/299/259 255/295/255 254/294/254
f 256/296/256 257/297/257 259/300/260
f 259/300/260 257/297/257 258/299/259
f 4/298/258 256/296/256 260/301/261
f 260/301/261 256/296/256 259/300/260
f 4/298/258 260/301/261 3/302/262
f 170/182/148 254/294/254 168/180/146
f 258/299/259 254/294/254 261/303/263
f 261/303/263 254/294/254 170/182/148
f 259/300/260 258/299/259 262/304/264
f 262/304/264 258/299/259 261/303/263
f 260/301/261 259/300/260 263/305/265
f 263/305/265 259/300/260 262/304/264
f 264/306/266 3/302/262 260/301/261
f 3/302/262 264/306/266 5/307/267
f 260/301/261 263/305/265 265/308/268
f 260/301/261 265/308/268 264/306/266
f 263/305/265 262/304/264 266/309/269
f 263/305/265 266/309/269 265/308/268
f 266/309/269 262/304/264 261/303/263
f 5/307/267 264/306/266 267/310/270
f 5/307/267 267/310/270 9/311/271
f 264/306/266 265/308/268 268/312/272
f 265/308/268 266/309/269 269/313/273
f 265/308/268 269/313/273 268/312/272
f 266/309/269 261/303/263 270/314/274
f 266/309/269 270/314/274 269/313/273
f 268/312/272 269/313/273 271/315/275
f 271/315/275 269/313/273 270/314/274
f 264/306/266 268/312/272 272/316/276
f 272/316/276 268/312/272 271/315/275
f 264/306/266 272/316/276 267/310/270
f 270/314/274 261/303/263 273/317/277
f 273/317/277 261/303/263 170/182/148
f 271/315/275 270/314/274 274/318/278
f 272/316/276 271/315/275 275/319/279
f 275/319/279 271/315/275 274/318/278
f 272/316/276 275/319/279 276/320/280
f 272/316/276 276/320/280 267/310/270
f 276/320/280 275/319/279 277/321/281
f 277/321/281 275/319/279 274/318/278
f 267/310/270 276/320/280 278/322/282
f 278/322/282 276/320/280 277/321/281
f 267/310/270 278/322/282 279/323/283
f 267/310/270 279/323/283 9/311/271
f 9/311/271 279/323/283 13/324/284
f 280/325/285 274/318/278 270/314/274
f 280/325/285 270/314/274 273/317/277
f 281/326/286 277/321/281 274/318/278
f 278/322/282 277/321/281 282/327/287
f 282/327/287 277/321/281 281/326/286
f 278/322/282 282/327/287 283/328/288
f 278/322/282 283/328/288 279/323/283
f 283/328/288 282/327/287 284/329/289
f 284/329/289 282/327/287 281/326/286
f 279/323/283 283/328/288 285/330/290
f 285/330/290 283/328/288 284/329/289
f 286/331/291 281/326/286 274/318/278
f 286/331/291 274/318/278 280/325/285
f 284/329/289 281/326/286 287/332/292
f 285/330/290 284/329/289 288/333/293
f 288/333/293 284/329/289 287/332/292
f 279/323/283 285/330/290 289/334/294
f 289/334/294 285/330/290 288/333/293
f 288/333/293 287/332/292 290/335/295
f 288/333/293 290/335/295 289/334/294
f 289/334/294 290/335/295 291/336/296
f 279/323/283 289/334/294 292/337/297
f 292/337/297 289/334/294 291/336/296
f 279/323/283 292/337/297 13/324/284
f 292/337/297 291/336/296 210/338/298
f 13/324/284 292/337/297 17/339/299
f 17/339/299 292/337/297 210/338/298
f 17/339/299 210/338/298 19/340/300
f 293/341/301 287/332/292 281/326/286
f 293/341/301 281/326/286 286/331/291
f 287/332/292 293/341/301 294/342/302
f 287/332/292 294/342/302 205/343/303
f 205/343/303 294/342/302 202/344/304
f 293/341/301 286/331/291 295/345/305
f 293/341/301 295/345/305 296/346/306
f 293/341/301 296/346/306 297/347/307
f 297/347/307 296/346/306 140/348/308
f 140/348/308 296/346/306 295/345/305
f 297/347/307 140/348/308 141/349/309
f 140/348/308 295/345/305 139/350/310
f 297/347/307 141/349/309 70/351/299
f 297/347/307 70/351/299 298/352/311
f 298/352/311 70/351/299 299/353/312
f 299/353/312 70/351/299 67/354/300
f 139/350/310 295/345/305 138/355/313
f 138/355/313 295/345/305 300/356/314
f 300/356/314 295/345/305 286/331/291
f 138/355/313 300/356/314 301/357/315
f 301/357/315 300/356/314 286/331/291
f 138/355/313 301/357/315 137/358/316
f 301/357/315 286/331/291 280/325/285
f 137/358/316 301/357/315 136/359/267
f 301/357/315 280/325/285 302/360/317
f 301/357/315 302/360/317 136/359/267
f 302/360/317 280/325/285 303/361/318
f 302/360/317 303/361/318 136/359/267
f 136/359/267 303/361/318 135/362/319
f 303/361/318 280/325/285 273/317/277
f 135/362/319 303/361/318 134/363/262
f 303/361/318 273/317/277 304/364/320
f 303/361/318 304/364/320 134/363/262
f 304/364/320 273/317/277 305/365/321
f 304/364/320 305/365/321 134/363/262
f 134/363/262 305/365/321 133/366/322
f 305/365/321 273/317/277 170/182/148
f 133/366/322 305/365/321 132/367/258
f 305/365/321 170/182/148 306/368/323
f 305/365/321 306/368/323 132/367/258
f 306/368/323 170/182/148 169/181/147
f 306/368/323 169/181/147 132/367/258
f 132/367/258 169/181/147 96/369/324
f 96/369/324 169/181/147 95/370/248
f 95/370/248 169/181/147 171/183/149
f 95/370/248 171/183/149 172/184/150
f 95/370/248 172/184/150 63/187/153
f 110/119/86 10/120/87 6/371/325
f 110/119/86 6/371/325 307/372/326
f 307/372/326 6/371/325 2/373/327
f 307/372/326 2/373/327 1/374/328
f 110/119/86 307/372/326 308/375/329
f 110/119/86 308/375/329 111/121/88
f 307/372/326 1/374/328 309/376/330
f 309/376/330 1/374/328 7/377/331
f 309/376/330 7/377/331 11/378/332
f 309/376/330 11/378/332 113/379/333
f 113/379/333 11/378/332 15/380/334
f 113/379/333 15/380/334 18/381/335
f 309/376/330 113/379/333 117/382/336
f 307/372/326 309/376/330 310/383/337
f 310/383/337 309/376/330 117/382/336
f 307/372/326 310/383/337 308/375/329
f 310/383/337 117/382/336 121/384/338
f 310/383/337 121/384/338 311/385/339
f 310/383/337 311/385/339 308/375/329
f 311/385/339 121/384/338 131/386/340
f 311/385/339 131/386/340 312/387/341
f 312/387/341 131/386/340 127/139/1
f 308/375/329 311/385/339 313/388/342
f 313/388/342 311/385/339 312/387/341
f 308/375/329 313/388/342 111/121/88
f 111/121/88 313/388/342 115/127/94
f 313/388/342 312/387/341 314/389/343
f 314/389/343 312/387/341 127/139/1
f 313/388/342 314/389/343 115/127/94
f 314/389/343 127/139/1 125/137/104
f 314/389/343 125/137/104 115/127/94
f 294/342/302 293/341/301 297/347/307
f 294/342/302 297/347/307 298/352/311
f 294/342/302 298/352/311 299/353/312
f 294/342/302 299/353/312 202/344/304
f 202/344/304 299/353/312 201/390/344
f 201/390/344 299/353/312 66/391/345
f 66/391/345 299/353/312 67/354/300
f 287/332/292 205/343/303 290/335/295
f 290/335/295 205/343/303 207/392/346
f 290/335/295 207/392/346 291/336/296
f 291/336/296 207/392/346 208/393/347
f 291/336/296 208/393/347 210/338/298
