# CS2 body mesh, tools/cs2_glb_to_obj.py
v 0.05409 0.02908 0.04225
v 0.05325 0.02838 0.04225
v 0.05348 0.02795 0.04225
v 0.05225 0.02757 0.04225
v 0.05447 0.02877 0.04225
v 0.0522 0.02805 0.04225
v 0.0546 0.03005 0.04225
v 0.05097 0.02769 0.04225
v 0.05507 0.02991 0.04225
v 0.05111 0.02815 0.04225
v 0.0547 0.03114 0.04225
v 0.04983 0.02829 0.04225
v 0.05518 0.03119 0.04225
v 0.05013 0.02866 0.04225
v 0.05438 0.03219 0.04225
v 0.04901 0.02927 0.04225
v 0.0548 0.03242 0.04225
v 0.05368 0.03303 0.04225
v 0.05398 0.03341 0.04225
v 0.04943 0.02951 0.04225
v 0.04863 0.0305 0.04225
v 0.04911 0.03055 0.04225
v 0.04874 0.03179 0.04225
v 0.04921 0.03165 0.04225
v 0.04934 0.03292 0.04225
v 0.04972 0.03262 0.04225
v 0.05033 0.03375 0.04225
v 0.05056 0.03332 0.04225
v 0.05156 0.03413 0.04225
v 0.05161 0.03365 0.04225
v 0.05284 0.03401 0.04225
v 0.0527 0.03355 0.04225
v 0.05432 0.03543 -0.00433
v 0.05516 0.03487 -0.00433
v 0.05516 0.03487 -0.00538
v 0.05432 0.03543 -0.00538
v 0.05338 0.03582 -0.00538
v 0.05338 0.03582 -0.00433
v 0.05284 0.03401 0.03688
v 0.05398 0.03341 0.03688
v 0.05432 0.03543 0.03313
v 0.05338 0.03582 0.03313
v 0.05516 0.03487 0.03313
v 0.05338 0.03582 -0.00212
v 0.05432 0.03543 -0.00212
v 0.05516 0.03487 -0.00212
v 0.05316 0.03507 -0.00294
v 0.05468 0.03427 -0.00294
v 0.05468 0.03427 -0.00404
v 0.05316 0.03507 -0.00404
v 0.05438 0.0263 -0.00538
v 0.05411 0.02679 -0.00567
v 0.05522 0.02687 -0.00538
v 0.05549 0.02794 -0.00567
v 0.05593 0.02759 -0.00538
v 0.05649 0.02844 -0.00538
v 0.05633 0.02954 -0.00567
v 0.05687 0.02938 -0.00538
v 0.05706 0.03037 -0.00538
v 0.0565 0.03133 -0.00567
v 0.05706 0.03139 -0.00538
v 0.05685 0.03238 -0.00538
v 0.05596 0.03305 -0.00567
v 0.05646 0.03332 -0.00538
v 0.05589 0.03416 -0.00538
v 0.05481 0.03444 -0.00567
v 0.051 0.03075 -0.00581
v 0.0512 0.03142 -0.00581
v 0.0519 0.03085 -0.00548
v 0.05133 0.03014 -0.00581
v 0.04748 0.03216 -0.00567
v 0.04832 0.03375 -0.00567
v 0.04984 0.03252 -0.00567
v 0.05064 0.03318 -0.00567
v 0.04936 0.0316 -0.00567
v 0.0497 0.03491 -0.00567
v 0.05163 0.03349 -0.00567
v 0.04732 0.03326 -0.00538
v 0.04788 0.03411 -0.00538
v 0.04694 0.03232 -0.00538
v 0.04859 0.03483 -0.00538
v 0.04943 0.0354 -0.00538
v 0.04675 0.03132 -0.00538
v 0.05037 0.0358 -0.00538
v 0.04731 0.03037 -0.00567
v 0.04675 0.03031 -0.00538
v 0.04927 0.03057 -0.00567
v 0.04696 0.02931 -0.00538
v 0.05142 0.03544 -0.00567
v 0.04785 0.02865 -0.00567
v 0.05136 0.036 -0.00538
v 0.04735 0.02838 -0.00538
v 0.04957 0.02958 -0.00567
v 0.04792 0.02754 -0.00538
v 0.05238 0.03601 -0.00538
v 0.049 0.02726 -0.00567
v 0.04864 0.02682 -0.00538
v 0.05023 0.02879 -0.00567
v 0.04949 0.02626 -0.00538
v 0.05059 0.02642 -0.00567
v 0.05043 0.02588 -0.00538
v 0.05143 0.02569 -0.00538
v 0.05115 0.0283 -0.00567
v 0.05239 0.02626 -0.00567
v 0.05245 0.0257 -0.00538
v 0.05344 0.0259 -0.00538
v 0.05218 0.02821 -0.00567
v 0.05213 0.02867 -0.00521
v 0.05128 0.02875 -0.00521
v 0.05295 0.02892 -0.00521
v 0.05211 0.02893 -0.00581
v 0.05317 0.02852 -0.00567
v 0.05361 0.02947 -0.00521
v 0.05397 0.02918 -0.00567
v 0.05401 0.03023 -0.00521
v 0.05445 0.03009 -0.00567
v 0.05409 0.03108 -0.00521
v 0.05454 0.03113 -0.00567
v 0.05383 0.0319 -0.00521
v 0.05424 0.03212 -0.00567
v 0.05329 0.03255 -0.00521
v 0.05358 0.03291 -0.00567
v 0.05253 0.03295 -0.00521
v 0.05322 0.03527 -0.00567
v 0.05266 0.03339 -0.00567
v 0.05168 0.03303 -0.00521
v 0.0517 0.03276 -0.00581
v 0.05245 0.03269 -0.00581
v 0.05099 0.03254 -0.00581
v 0.05086 0.03278 -0.00521
v 0.05181 0.03176 -0.00581
v 0.05248 0.03156 -0.00581
v 0.05312 0.03234 -0.00581
v 0.0536 0.03177 -0.00581
v 0.05041 0.03206 -0.00581
v 0.0502 0.03223 -0.00521
v 0.05281 0.03094 -0.00581
v 0.05382 0.03105 -0.00581
v 0.05375 0.0303 -0.00581
v 0.05006 0.0314 -0.00581
v 0.0498 0.03147 -0.00521
v 0.05261 0.03027 -0.00581
v 0.0534 0.02964 -0.00581
v 0.05282 0.02916 -0.00581
v 0.04999 0.03065 -0.00581
v 0.04972 0.03062 -0.00521
v 0.05021 0.02993 -0.00581
v 0.04998 0.0298 -0.00521
v 0.05069 0.02935 -0.00581
v 0.05052 0.02914 -0.00521
v 0.05136 0.029 -0.00581
v 0.052 0.02994 -0.00581
v 0.05215 0.03355 0.04496
v 0.05399 0.03258 0.04496
v 0.05211 0.03305 0.04964
v 0.0536 0.03226 0.04964
v 0.05203 0.03218 0.05351
v 0.05293 0.0317 0.05351
v 0.05197 0.0316 0.05485
v 0.05248 0.03133 0.05485
v 0.0519 0.03085 0.05535
v 0.05266 0.03078 0.05485
v 0.05239 0.03027 0.05485
v 0.05324 0.03073 0.05351
v 0.05276 0.02982 0.05351
v 0.05178 0.02952 0.05351
v 0.05184 0.0301 0.05485
v 0.0517 0.02865 0.04964
v 0.05332 0.02915 0.04964
v 0.05166 0.02815 0.04496
v 0.0541 0.03065 0.04964
v 0.05364 0.02876 0.04496
v 0.0546 0.0306 0.04496
v 0.05685 0.03238 -0.00433
v 0.05706 0.03139 -0.00433
v 0.05646 0.03332 -0.00433
v 0.05706 0.03037 -0.00433
v 0.05628 0.03131 -0.00404
v 0.05589 0.03416 -0.00433
v 0.05577 0.03295 -0.00404
v 0.05577 0.03295 -0.00294
v 0.05613 0.0296 -0.00404
v 0.05687 0.02938 -0.00433
v 0.05649 0.02844 -0.00433
v 0.05593 0.02759 -0.00433
v 0.05628 0.03131 -0.00294
v 0.05533 0.02808 -0.00404
v 0.05522 0.02687 -0.00433
v 0.05438 0.0263 -0.00433
v 0.05344 0.0259 -0.00433
v 0.05245 0.0257 -0.00433
v 0.05401 0.02698 -0.00404
v 0.05613 0.0296 -0.00294
v 0.05533 0.02808 -0.00294
v 0.05401 0.02698 -0.00294
v 0.05237 0.02647 -0.00404
v 0.05237 0.02647 -0.00294
v 0.05344 0.0259 -0.00212
v 0.05245 0.0257 -0.00212
v 0.05245 0.0257 0.03313
v 0.05344 0.0259 0.03313
v 0.05438 0.0263 -0.00212
v 0.05522 0.02687 -0.00212
v 0.05437 0.0263 0.03313
v 0.05348 0.02795 0.03688
v 0.05225 0.02757 0.03688
v 0.05446 0.02878 0.03688
v 0.05521 0.02687 0.03313
v 0.05593 0.02759 -0.00212
v 0.05593 0.02759 0.03313
v 0.05507 0.02991 0.03688
v 0.05649 0.02844 -0.00212
v 0.05649 0.02844 0.03313
v 0.05687 0.02938 -0.00212
v 0.05706 0.03037 -0.00212
v 0.05687 0.02938 0.03313
v 0.05706 0.03037 0.03313
v 0.05518 0.03119 0.03688
v 0.05706 0.03139 -0.00212
v 0.05685 0.03238 -0.00212
v 0.05706 0.03139 0.03313
v 0.05685 0.03238 0.03313
v 0.0548 0.03242 0.03688
v 0.05646 0.03332 0.03313
v 0.05646 0.03332 -0.00212
v 0.05589 0.03416 0.03313
v 0.05589 0.03416 -0.00212
v 0.04921 0.0311 0.04496
v 0.05017 0.03293 0.04496
v 0.04982 0.02912 0.04496
v 0.05021 0.02944 0.04964
v 0.04971 0.03105 0.04964
v 0.05088 0.02999 0.05351
v 0.05049 0.03255 0.04964
v 0.05057 0.03097 0.05351
v 0.05105 0.03188 0.05351
v 0.05133 0.03037 0.05485
v 0.05115 0.03092 0.05485
v 0.05142 0.03143 0.05485
v 0.05033 0.03375 0.03688
v 0.04934 0.03292 0.03688
v 0.04874 0.03179 0.03688
v 0.04863 0.0305 0.03688
v 0.04732 0.03326 0.03313
v 0.04901 0.02927 0.03688
v 0.04675 0.03132 0.03313
v 0.04983 0.02829 0.03688
v 0.04696 0.02931 0.03313
v 0.05097 0.02769 0.03688
v 0.04792 0.02754 0.03313
v 0.04949 0.02626 0.03313
v 0.05143 0.02569 0.03313
v 0.05043 0.02588 0.03313
v 0.05143 0.02569 -0.00212
v 0.05043 0.02588 -0.00212
v 0.05065 0.02663 -0.00294
v 0.05065 0.02663 -0.00404
v 0.04949 0.02626 -0.00212
v 0.04864 0.02682 0.03313
v 0.04864 0.02682 -0.00212
v 0.04913 0.02743 -0.00294
v 0.04792 0.02754 -0.00212
v 0.04735 0.02838 0.03313
v 0.04913 0.02743 -0.00404
v 0.04735 0.02838 -0.00212
v 0.04804 0.02875 -0.00294
v 0.04804 0.02875 -0.00404
v 0.04696 0.02931 -0.00212
v 0.04675 0.03031 0.03313
v 0.04675 0.03031 -0.00212
v 0.04753 0.03039 -0.00294
v 0.04753 0.03039 -0.00404
v 0.04675 0.03132 -0.00212
v 0.04694 0.03232 0.03313
v 0.04694 0.03232 -0.00212
v 0.04768 0.0321 -0.00294
v 0.04768 0.0321 -0.00404
v 0.04732 0.03326 -0.00212
v 0.04788 0.03411 0.03313
v 0.04848 0.03362 -0.00294
v 0.04788 0.03411 -0.00212
v 0.04859 0.03483 0.03313
v 0.04859 0.03483 -0.00212
v 0.04943 0.0354 0.03313
v 0.04848 0.03362 -0.00404
v 0.0498 0.03472 -0.00294
v 0.04943 0.0354 -0.00212
v 0.05037 0.0358 0.03313
v 0.05156 0.03413 0.03688
v 0.05136 0.036 0.03313
v 0.05037 0.0358 -0.00212
v 0.05238 0.03601 0.03313
v 0.05136 0.036 -0.00212
v 0.05144 0.03523 -0.00294
v 0.05238 0.03601 -0.00212
v 0.05144 0.03523 -0.00404
v 0.0498 0.03472 -0.00404
v 0.05238 0.03601 -0.00433
v 0.05037 0.0358 -0.00433
v 0.05136 0.036 -0.00433
v 0.04943 0.0354 -0.00433
v 0.04859 0.03483 -0.00433
v 0.04788 0.03411 -0.00433
v 0.04732 0.03326 -0.00433
v 0.04694 0.03232 -0.00433
v 0.04675 0.03132 -0.00433
v 0.04675 0.03031 -0.00433
v 0.04696 0.02931 -0.00433
v 0.04735 0.02838 -0.00433
v 0.04792 0.02754 -0.00433
v 0.04864 0.02682 -0.00433
v 0.04949 0.02626 -0.00433
v 0.05043 0.02588 -0.00433
v 0.05143 0.02569 -0.00433
vt 0.110779 0.089966
vt 0.110779 0.088318
vt 0.110291 0.088318
vt 0.110291 0.086609
vt 0.110291 0.089966
vt 0.110779 0.086609
vt 0.110779 0.091614
vt 0.110291 0.0849
vt 0.110291 0.091553
vt 0.110779 0.0849
vt 0.110779 0.09314
vt 0.110291 0.083191
vt 0.110291 0.093079
vt 0.110779 0.083191
vt 0.110779 0.094604
vt 0.110291 0.081482
vt 0.110291 0.094543
vt 0.110779 0.095947
vt 0.110291 0.096008
vt 0.110779 0.081482
vt 0.110291 0.079773
vt 0.110779 0.079773
vt 0.110291 0.078064
vt 0.110779 0.078064
vt 0.110291 0.076416
vt 0.110779 0.076416
vt 0.110291 0.074829
vt 0.110779 0.074829
vt 0.110291 0.073364
vt 0.110779 0.073303
vt 0.110291 0.071899
vt 0.110779 0.071838
vt 0.110291 0.070435
vt 0.110779 0.070496
vt 0.75293 0.996094
vt 0.751465 0.996094
vt 0.751465 0.997559
vt 0.752441 0.997559
vt 0.753906 0.997559
vt 0.753906 0.996094
vt 0.757324 0.946777
vt 0.757324 0.940918
vt 0.755859 0.940918
vt 0.755859 0.946777
vt 0.753906 0.95166
vt 0.754883 0.95166
vt 0.752441 0.95166
vt 0.754883 0.992676
vt 0.753906 0.992676
vt 0.752441 0.992676
vt 0.754395 0.993652
vt 0.752441 0.993652
vt 0.751953 0.995117
vt 0.754395 0.995117
vt 0.522949 0.197021
vt 0.522461 0.197266
vt 0.523438 0.19812
vt 0.522949 0.199463
vt 0.523438 0.199341
vt 0.523438 0.200684
vt 0.522461 0.201538
vt 0.522949 0.201782
vt 0.522461 0.202881
vt 0.520996 0.203369
vt 0.521484 0.203857
vt 0.520508 0.204712
vt 0.519531 0.20459
vt 0.519531 0.205322
vt 0.518555 0.205688
vt 0.51709 0.205078
vt 0.51709 0.205811
vt 0.516113 0.205688
vt 0.516602 0.198853
vt 0.516113 0.199463
vt 0.51709 0.199463
vt 0.51709 0.198486
vt 0.512207 0.197388
vt 0.511719 0.199585
vt 0.513672 0.199585
vt 0.51416 0.200806
vt 0.51416 0.198242
vt 0.512207 0.20166
vt 0.514648 0.201904
vt 0.51123 0.198364
vt 0.510742 0.199585
vt 0.51123 0.197144
vt 0.51123 0.200806
vt 0.51123 0.202026
vt 0.511719 0.196045
vt 0.512207 0.203003
vt 0.513184 0.195679
vt 0.512695 0.195068
vt 0.514648 0.197144
vt 0.513672 0.194336
vt 0.513184 0.203491
vt 0.515137 0.194336
vt 0.512695 0.203979
vt 0.514648 0.193726
vt 0.515625 0.196411
vt 0.515625 0.193359
vt 0.513672 0.204712
vt 0.51709 0.19397
vt 0.51709 0.193237
vt 0.51709 0.196167
vt 0.518066 0.193359
vt 0.519043 0.194336
vt 0.519531 0.193604
vt 0.520508 0.194214
vt 0.518555 0.196411
vt 0.520996 0.195557
vt 0.521484 0.194946
vt 0.522461 0.195923
vt 0.519531 0.197144
vt 0.519043 0.197632
vt 0.518066 0.197021
vt 0.519531 0.198486
vt 0.518555 0.197998
vt 0.52002 0.19812
vt 0.52002 0.199463
vt 0.520508 0.199463
vt 0.519531 0.200439
vt 0.520508 0.200684
vt 0.519043 0.201416
vt 0.519531 0.201782
vt 0.518066 0.201904
vt 0.518555 0.202515
vt 0.51709 0.202148
vt 0.51709 0.202881
vt 0.516113 0.202026
vt 0.515137 0.204712
vt 0.514648 0.205322
vt 0.516113 0.202637
vt 0.515137 0.201416
vt 0.515625 0.200928
vt 0.516602 0.201416
vt 0.515137 0.200317
vt 0.514648 0.200562
vt 0.516602 0.200195
vt 0.51709 0.200439
vt 0.51709 0.201538
vt 0.518066 0.201416
vt 0.515137 0.199585
vt 0.514648 0.199585
vt 0.518066 0.200195
vt 0.518555 0.200928
vt 0.519043 0.200195
vt 0.515137 0.19873
vt 0.514648 0.198486
vt 0.518066 0.199463
vt 0.519043 0.199463
vt 0.519043 0.19873
vt 0.515625 0.19812
vt 0.515137 0.197632
vt 0.516602 0.197632
vt 0.516113 0.197021
vt 0.51709 0.19751
vt 0.51709 0.196777
vt 0.518066 0.197632
vt 0.518066 0.198853
vt 0.066223 0.016693
vt 0.06488 0.019989
vt 0.067383 0.016693
vt 0.067139 0.020676
vt 0.062927 0.025345
vt 0.064575 0.026245
vt 0.060303 0.029358
vt 0.061066 0.030121
vt 0.058807 0.030533
vt 0.059021 0.031052
vt 0.057373 0.030884
vt 0.055969 0.030518
vt 0.055725 0.031036
vt 0.056366 0.030212
vt 0.054474 0.029312
vt 0.05368 0.03006
vt 0.055359 0.028839
vt 0.056366 0.02858
vt 0.056854 0.030029
vt 0.055542 0.024414
vt 0.05368 0.024719
vt 0.054932 0.019485
vt 0.05191 0.025238
vt 0.050232 0.026093
vt 0.052429 0.019638
vt 0.053955 0.016693
vt 0.052582 0.016693
vt 0.05127 0.016693
vt 0.050079 0.019913
vt 0.050018 0.016693
vt 0.047729 0.020294
vt 0.048828 0.016693
vt 0.047699 0.016693
vt 0.0466 0.016693
vt 0.783691 0.997559
vt 0.785156 0.997559
vt 0.784668 0.996094
vt 0.786133 0.997559
vt 0.783691 0.996094
vt 0.786133 0.996094
vt 0.782715 0.996094
vt 0.782715 0.997559
vt 0.783691 0.995117
vt 0.781738 0.997559
vt 0.787109 0.996094
vt 0.787598 0.997559
vt 0.785645 0.995117
vt 0.788574 0.997559
vt 0.788086 0.996094
vt 0.788086 0.995117
vt 0.787598 0.993652
vt 0.785645 0.993652
vt 0.78125 0.995117
vt 0.78125 0.996094
vt 0.780273 0.996094
vt 0.780273 0.997559
vt 0.779297 0.997559
vt 0.779297 0.996094
vt 0.783203 0.993652
vt 0.779297 0.995117
vt 0.777832 0.996094
vt 0.777832 0.997559
vt 0.776855 0.997559
vt 0.776855 0.996094
vt 0.775879 0.996094
vt 0.775879 0.997559
vt 0.774414 0.997559
vt 0.774414 0.996094
vt 0.776855 0.995117
vt 0.78125 0.993652
vt 0.778809 0.993652
vt 0.776855 0.993652
vt 0.774414 0.995117
vt 0.774414 0.993652
vt 0.775391 0.992676
vt 0.774414 0.992676
vt 0.774414 0.95166
vt 0.775391 0.95166
vt 0.776367 0.992676
vt 0.777344 0.992676
vt 0.776367 0.95166
vt 0.775879 0.946777
vt 0.773926 0.946777
vt 0.773926 0.940918
vt 0.775879 0.940918
vt 0.777832 0.946777
vt 0.777344 0.95166
vt 0.777832 0.940918
vt 0.778809 0.992676
vt 0.778809 0.95166
vt 0.779297 0.946777
vt 0.779785 0.992676
vt 0.779785 0.95166
vt 0.779297 0.940918
vt 0.780762 0.992676
vt 0.781738 0.992676
vt 0.780762 0.95166
vt 0.781738 0.95166
vt 0.78125 0.946777
vt 0.78125 0.940918
vt 0.782715 0.992676
vt 0.78418 0.992676
vt 0.782715 0.95166
vt 0.78418 0.95166
vt 0.782715 0.946777
vt 0.782715 0.940918
vt 0.785156 0.95166
vt 0.785156 0.992676
vt 0.78418 0.946777
vt 0.78418 0.940918
vt 0.786133 0.95166
vt 0.787109 0.95166
vt 0.787109 0.992676
vt 0.786133 0.992676
vt 0.0625 0.016693
vt 0.061157 0.016693
vt 0.060089 0.019485
vt 0.059723 0.016693
vt 0.062561 0.019669
vt 0.063843 0.016693
vt 0.057526 0.019424
vt 0.058289 0.016693
vt 0.065063 0.016693
vt 0.056824 0.016693
vt 0.055359 0.016693
vt 0.057465 0.024323
vt 0.059387 0.024429
vt 0.057404 0.028503
vt 0.061218 0.024765
vt 0.058441 0.028595
vt 0.059448 0.02887
vt 0.057404 0.029953
vt 0.057922 0.030029
vt 0.058411 0.030212
vt 0.760742 0.946777
vt 0.762207 0.946777
vt 0.760742 0.940918
vt 0.762207 0.940918
vt 0.758789 0.940918
vt 0.76416 0.946777
vt 0.76416 0.940918
vt 0.766113 0.946777
vt 0.766113 0.940918
vt 0.762695 0.95166
vt 0.768066 0.946777
vt 0.768066 0.940918
vt 0.764648 0.95166
vt 0.77002 0.946777
vt 0.77002 0.940918
vt 0.766602 0.95166
vt 0.771973 0.946777
vt 0.771973 0.940918
vt 0.769043 0.95166
vt 0.770996 0.95166
vt 0.773438 0.95166
vt 0.771973 0.95166
vt 0.773438 0.992676
vt 0.771973 0.992676
vt 0.772461 0.993652
vt 0.772461 0.995117
vt 0.770996 0.992676
vt 0.77002 0.95166
vt 0.77002 0.992676
vt 0.77002 0.993652
vt 0.769043 0.992676
vt 0.768066 0.95166
vt 0.77002 0.995117
vt 0.768066 0.992676
vt 0.767578 0.993652
vt 0.767578 0.995117
vt 0.766602 0.992676
vt 0.765625 0.95166
vt 0.765625 0.992676
vt 0.765625 0.993652
vt 0.765625 0.995117
vt 0.764648 0.992676
vt 0.763672 0.95166
vt 0.763672 0.992676
vt 0.763184 0.993652
vt 0.763184 0.995117
vt 0.762695 0.992676
vt 0.76123 0.95166
vt 0.76123 0.993652
vt 0.76123 0.992676
vt 0.760254 0.95166
vt 0.760254 0.992676
vt 0.759277 0.95166
vt 0.760742 0.995117
vt 0.758789 0.993652
vt 0.759277 0.992676
vt 0.758301 0.95166
vt 0.758789 0.946777
vt 0.756836 0.95166
vt 0.758301 0.992676
vt 0.755859 0.95166
vt 0.756836 0.992676
vt 0.756836 0.993652
vt 0.755859 0.992676
vt 0.756348 0.995117
vt 0.758789 0.995117
vt 0.754883 0.996094
vt 0.757324 0.996094
vt 0.756348 0.996094
vt 0.756348 0.997559
vt 0.754883 0.997559
vt 0.757324 0.997559
vt 0.758301 0.997559
vt 0.758301 0.996094
vt 0.759766 0.996094
vt 0.759766 0.997559
vt 0.760742 0.997559
vt 0.760742 0.996094
vt 0.762207 0.996094
vt 0.761719 0.997559
vt 0.763184 0.997559
vt 0.763184 0.996094
vt 0.76416 0.996094
vt 0.76416 0.997559
vt 0.765625 0.997559
vt 0.765625 0.996094
vt 0.766602 0.996094
vt 0.766602 0.997559
vt 0.767578 0.997559
vt 0.767578 0.996094
vt 0.769043 0.996094
vt 0.769043 0.997559
vt 0.77002 0.997559
vt 0.77002 0.996094
vt 0.770996 0.996094
vt 0.770996 0.997559
vt 0.772461 0.997559
vt 0.772461 0.996094
vt 0.773438 0.996094
vt 0.773438 0.997559
vn 0 -0.001 1
vn 0.3728 0.7111 0.5961
vn 0.482 0.7338 0.4787
vn 0.5519 0.8339 -0.0014
vn 0.4667 0.8844 -0.0013
vn 0.2832 0.9591 -0.0012
vn 0.2507 0.8381 0.4844
vn 0.2772 0.9375 0.2103
vn 0.4603 0.8622 0.2114
vn 0.4657 0.8836 0.0478
vn 0.2832 0.9579 0.0466
vn 0.5493 0.8344 0.0461
vn 0.2826 0.959 -0.021
vn 0.4647 0.885 -0.0283
vn 0.5511 0.8342 -0.0206
vn 0.2617 0.8867 -0.3813
vn 0.4418 0.815 -0.3748
vn 0.4185 0.7768 0.4706
vn 0.2501 0.8424 0.4772
vn 0.2185 -0.403 -0.8887
vn 0.0537 -0.0974 -0.9938
vn 0.2665 -0.3236 -0.9079
vn 0.0879 -0.071 -0.9936
vn 0.3564 -0.286 -0.8895
vn 0.3717 -0.1945 -0.9077
vn 0.1084 -0.0299 -0.9937
vn 0.4389 -0.1297 -0.8891
vn 0.4179 -0.0359 -0.9078
vn 0.1123 0.0098 -0.9936
vn 0.4559 0.0476 -0.8887
vn 0.3989 0.1246 -0.9085
vn 0.0997 0.0526 -0.9936
vn 0.4026 0.2168 -0.8893
vn 0.3204 0.2678 -0.9086
vn 0.0709 0.0867 -0.9937
vn 0.2893 0.3553 -0.8889
vn 0.1944 0.37 -0.9085
vn 0.115 0.012 -0.9933
vn 0.0905 -0.0735 -0.9932
vn 0 -0.001 -1
vn 0.0735 0.0893 -0.9933
vn -0.1075 0.0321 -0.9937
vn -0.0867 0.0709 -0.9937
vn 0.1014 -0.0864 -0.9911
vn 0.0618 -0.1179 -0.9911
vn 0.1267 -0.0396 -0.9911
vn -0.0526 0.0997 -0.9936
vn 0.0133 -0.1322 -0.9911
vn -0.37 0.1944 -0.9085
vn -0.3553 0.2893 -0.8889
vn -0.4381 0.1327 -0.8891
vn -0.2678 0.3204 -0.9086
vn -0.2168 0.4026 -0.8893
vn -0.4173 0.0387 -0.9079
vn -0.1246 0.3989 -0.9085
vn -0.1114 -0.012 -0.9937
vn -0.4543 -0.0476 -0.8896
vn 0.1321 0.0122 -0.9912
vn -0.4006 -0.1247 -0.9077
vn -0.012 0.1102 -0.9938
vn -0.0985 -0.0526 -0.9937
vn -0.0476 0.4559 -0.8887
vn -0.4017 -0.22 -0.889
vn 0.118 0.063 -0.991
vn -0.3222 -0.268 -0.908
vn 0.0387 0.4173 -0.9079
vn -0.0698 -0.089 -0.9936
vn -0.2875 -0.3549 -0.8896
vn 0.084 0.1025 -0.9912
vn -0.196 -0.3704 -0.908
vn -0.031 -0.1073 -0.9937
vn -0.1311 -0.4376 -0.8895
vn -0.0373 -0.4168 -0.9082
vn 0.0396 0.128 -0.991
vn 0.0109 -0.1125 -0.9936
vn 0.049 -0.4532 -0.8901
vn 0.1232 -0.4019 -0.9074
vn -0.0122 0.1321 -0.9912
vn 0.006 -0.0109 -0.9999
vn 0 -0.0129 -0.9999
vn 0.01 -0.009 -0.9999
vn 0.0466 -0.4815 -0.8752
vn -0.063 0.118 -0.991
vn 0.0119 -0.005 -0.9999
vn -0.1025 0.084 -0.9912
vn 0.0129 0.001 -0.9999
vn -0.128 0.0396 -0.991
vn 0.0129 0.005 -0.9999
vn -0.1333 -0.0122 -0.991
vn 0.009 0.011 -0.9999
vn -0.1167 -0.0629 -0.9912
vn 0.005 0.0129 -0.9999
vn -0.0853 -0.1026 -0.9911
vn -0.001 0.0129 -0.9999
vn 0.0321 0.1075 -0.9937
vn 0.1297 0.4406 -0.8883
vn -0.0385 -0.1278 -0.991
vn -0.005 0.0129 -0.9999
vn -0.0481 0.482 -0.8748
vn 0.1402 0.4641 -0.8746
vn -0.2289 0.4263 -0.8751
vn -0.009 0.011 -0.9999
vn 0.0132 -0.1151 -0.9933
vn -0.0724 -0.0916 -0.9932
vn 0.3089 0.3728 -0.875
vn 0.4263 0.2289 -0.8751
vn -0.3758 0.3058 -0.8748
vn -0.0129 0.005 -0.9999
vn -0.1162 -0.0121 -0.9932
vn 0.482 0.0481 -0.8748
vn 0.4623 -0.1401 -0.8756
vn -0.4641 0.1402 -0.8746
vn -0.0129 0.001 -0.9999
vn -0.0893 0.0735 -0.9933
vn 0.3746 -0.3091 -0.8741
vn 0.2272 -0.4259 -0.8758
vn -0.4826 -0.0452 -0.8747
vn -0.0119 -0.005 -0.9999
vn -0.4273 -0.2256 -0.8755
vn -0.01 -0.009 -0.9999
vn -0.3076 -0.3761 -0.874
vn -0.006 -0.0109 -0.9999
vn -0.1417 -0.4611 -0.876
vn -0.012 0.115 -0.9933
vn 0.3048 0.9505 0.0605
vn 0.089 0.9907 0.1029
vn 0.4626 0.8816 0.0942
vn 0.4636 0.8807 0.0972
vn 0.103 0.9827 0.1539
vn 0.4616 0.8754 0.1433
vn 0.1161 0.9587 0.2596
vn 0.4503 0.8597 0.2411
vn 0.1118 0.835 0.5388
vn 0.3977 0.7545 0.5221
vn 0.8349 -0.1149 0.5382
vn 0.8283 0.2586 0.497
vn 0.5109 -0.6706 0.5378
vn 0.9586 -0.1189 0.2586
vn 0.9266 0.2889 0.2406
vn 0.5968 -0.7594 0.2589
vn -0.1174 -0.9589 0.2583
vn -0.1133 -0.8355 0.5376
vn -0.1018 -0.9826 0.1551
vn 0.6217 -0.768 0.1539
vn -0.0877 -0.991 0.1015
vn 0.9825 -0.1031 0.1553
vn 0.9446 0.2959 0.1419
vn 0.6381 -0.7631 0.1029
vn 0.1558 -0.9856 0.0661
vn 0.4557 -0.8881 0.0604
vn 0.8086 -0.5843 0.0686
vn 0.9908 -0.0889 0.1016
vn 0.9503 -0.3052 0.0618
vn 0.945 0.3132 0.0938
vn 0.9852 0.1573 0.0674
vn 0.8886 0.4546 0.0618
vn 0.7682 0.6399 0.0181
vn 0.9945 0.1043 0.0011
vn 0.9555 0.2949 -0.0012
vn 0.7658 0.2396 0.5967
vn 0.8794 0.4762 -0.0013
vn 0.8715 0.0918 0.4817
vn 0.7692 0.4197 0.4818
vn 0.7985 -0.0732 0.5975
vn 0.9957 -0.0925 0
vn 0.8734 0.0917 0.4783
vn 0.9592 -0.2829 0
vn 0.6162 0.5149 0.5959
vn 0.7701 0.6379 -0.0014
vn 0.7718 0.4193 0.4781
vn 0.7043 0.7099 -0.0014
vn 0.6172 0.6239 0.4793
vn 0.6752 0.5679 0.4708
vn 0.7056 0.6003 -0.3766
vn 0.8131 0.4393 -0.3818
vn 0.8435 -0.25 0.4754
vn 0.8392 -0.2505 0.4826
vn 0.7096 -0.3729 0.5979
vn 0.8847 -0.4661 0
vn 0.778 -0.6282 0
vn 0.6804 -0.5514 0.4827
vn 0.9194 0.097 -0.3812
vn 0.6832 -0.5542 0.4755
vn 0.5132 -0.6161 0.5976
vn 0.6387 -0.7695 0
vn 0.4772 -0.8788 0
vn 0.4181 -0.7691 0.4834
vn 0.2379 -0.7654 0.5979
vn 0.296 -0.9552 0
vn 0.1054 -0.9944 0
vn 0.0904 -0.871 0.4828
vn 0.421 -0.7718 0.4765
vn 0.8858 -0.2619 -0.3831
vn 0.7198 -0.5801 -0.3813
vn 0.4409 -0.8131 -0.3802
vn 0.0932 -0.8739 0.4772
vn 0.0956 -0.9191 -0.3824
vn 0.2977 -0.9543 -0.0275
vn 0.105 -0.9943 -0.0197
vn 0.1053 -0.9933 0.047
vn 0.2971 -0.9536 0.0483
vn 0.4765 -0.8789 -0.0215
vn 0.6401 -0.7678 -0.0281
vn 0.4799 -0.8761 0.0466
vn 0.4661 -0.8586 0.2135
vn 0.1033 -0.9713 0.2142
vn 0.7577 -0.6164 0.2143
vn 0.6401 -0.7667 0.0484
vn 0.7756 -0.6312 0
vn 0.7776 -0.6285 -0.0195
vn 0.7756 -0.6293 0.0483
vn 0.9362 -0.2781 0.2152
vn 0.8836 -0.4674 -0.0269
vn 0.8833 -0.4663 0.0492
vn 0.9582 -0.2853 -0.0198
vn 0.9955 -0.0904 -0.0283
vn 0.9578 -0.2835 0.0479
vn 0.9948 -0.0897 0.0487
vn 0.9725 0.1016 0.2096
vn 0.9945 0.1043 -0.0011
vn 0.9944 0.1039 -0.0208
vn 0.9546 0.2965 -0.0288
vn 0.9933 0.1064 0.0459
vn 0.9539 0.296 0.0495
vn 0.8602 0.4639 0.2117
vn 0.8784 0.4755 0.048
vn 0.8784 0.4775 -0.0202
vn 0.7493 0.6283 0.2094
vn 0.7661 0.641 0.0469
vn 0.7006 0.712 0.0471
vn 0.7027 0.7111 -0.021
vn 0.7671 0.6409 -0.0266
vn -0.8069 0.5869 0.0671
vn -0.9495 0.3079 0.0606
vn -0.9907 0.089 0.1029
vn -0.9854 -0.1571 0.0662
vn -0.6391 0.7625 0.1014
vn -0.4546 0.8886 0.0618
vn -0.7644 -0.6365 0.1029
vn -0.8872 -0.4573 0.0604
vn -0.1573 0.9852 0.0674
vn -0.5859 -0.8074 0.0686
vn -0.3067 -0.9498 0.0619
vn -0.7667 -0.6233 0.1539
vn -0.9827 0.103 0.1539
vn -0.7608 -0.5951 0.2589
vn -0.6239 0.7659 0.1556
vn -0.9587 0.1161 0.2596
vn -0.5956 0.7598 0.2607
vn -0.6721 -0.5091 0.5377
vn -0.835 0.1118 0.5388
vn -0.5092 0.6706 0.5395
vn -0.4648 0.8589 0.2151
vn -0.7596 0.6136 0.2159
vn -0.4762 0.8794 -0.0013
vn -0.7775 0.6289 -0.0014
vn -0.1043 0.9945 -0.0011
vn -0.9366 0.2778 0.2136
vn -0.9591 0.2832 0.0012
vn -0.9715 -0.1019 0.2139
vn -0.9946 -0.1042 0
vn -0.8836 0.4657 0.0478
vn -0.8576 -0.4679 0.2136
vn -0.8797 -0.4756 0
vn -0.9946 0.092 0.0477
vn -0.6147 -0.7591 0.2142
vn -0.6297 -0.7768 0
vn -0.9541 -0.2956 0.0482
vn -0.2764 -0.9367 0.215
vn -0.2843 -0.9587 0
vn -0.768 -0.6386 0.0484
vn -0.4646 -0.8841 0.0492
vn -0.0909 -0.9947 0.0488
vn -0.285 -0.9573 0.0479
vn -0.0916 -0.9954 -0.0283
vn -0.2838 -0.9587 -0.0197
vn -0.2636 -0.8852 -0.3834
vn -0.2482 -0.8443 0.475
vn -0.4658 -0.8845 -0.0269
vn -0.6278 -0.7769 0.0483
vn -0.63 -0.7763 -0.0195
vn -0.5819 -0.7183 -0.3813
vn -0.7691 -0.6386 -0.0281
vn -0.877 -0.4782 0.0466
vn -0.5524 -0.6847 0.4754
vn -0.8798 -0.4749 -0.0215
vn -0.812 -0.4427 -0.3804
vn -0.773 -0.4191 0.4762
vn -0.9547 -0.2962 -0.0275
vn -0.9935 -0.104 0.047
vn -0.9941 -0.1062 -0.0197
vn -0.9194 -0.0941 -0.3819
vn -0.8743 -0.0917 0.4766
vn -0.9953 0.0927 -0.0273
vn -0.9579 0.2832 0.0466
vn -0.959 0.2826 -0.021
vn -0.8867 0.2617 -0.3813
vn -0.8424 0.2501 0.4772
vn -0.885 0.4647 -0.0283
vn -0.7763 0.6287 0.0468
vn -0.7186 0.5804 -0.3831
vn -0.777 0.6291 -0.0209
vn -0.6379 0.7687 0.0469
vn -0.6379 0.7697 -0.0266
vn -0.4755 0.8784 0.048
vn -0.6817 0.5544 0.4774
vn -0.4393 0.8131 -0.3818
vn -0.4775 0.8784 -0.0202
vn -0.296 0.9539 0.0495
vn -0.0991 0.9722 0.212
vn -0.1044 0.9933 0.0505
vn -0.2965 0.9546 -0.0288
vn 0.0896 0.9948 0.0476
vn -0.1039 0.9944 -0.0208
vn -0.097 0.9194 -0.3812
vn 0.0903 0.9955 -0.0272
vn -0.0917 0.8734 0.4783
vn -0.4193 0.7718 0.4781
vn 0.0732 0.7997 0.5959
vn -0.2361 0.7677 0.5957
vn -0.0918 0.8715 0.4817
vn 0.0926 0.9957 -0.0011
vn -0.2978 0.9546 -0.0012
vn -0.4762 0.8794 0.0013
vn -0.4197 0.7692 0.4818
vn -0.5114 0.6194 0.5957
vn -0.6409 0.7677 0.0014
vn -0.7775 0.6289 0.0014
vn -0.6819 0.5512 0.4808
vn -0.7111 0.3728 0.5961
vn -0.8861 0.4635 0.0013
vn -0.8397 0.2472 0.4836
vn -0.7997 0.0732 0.5959
vn -0.9959 0.0903 0.0011
vn -0.8706 -0.0919 0.4833
vn -0.7664 -0.2362 0.5974
vn -0.9547 -0.2974 0
vn -0.7703 -0.4162 0.4831
vn -0.6177 -0.5114 0.5974
vn -0.7682 -0.6402 0
vn -0.5496 -0.682 0.4826
vn -0.3747 -0.7083 0.5982
vn -0.4645 -0.8855 0
vn -0.2488 -0.84 0.4822
vn -0.0748 -0.7979 0.5981
vn -0.0914 -0.9958 0
o bullet10__p1_c0
f 1/1/1 2/2/1 3/3/1
f 3/3/1 2/2/1 4/4/1
f 1/1/1 3/3/1 5/5/1
f 4/4/1 2/2/1 6/6/1
f 1/1/1 5/5/1 7/7/1
f 4/4/1 6/6/1 8/8/1
f 7/7/1 5/5/1 9/9/1
f 8/8/1 6/6/1 10/10/1
f 7/7/1 9/9/1 11/11/1
f 8/8/1 10/10/1 12/12/1
f 11/11/1 9/9/1 13/13/1
f 12/12/1 10/10/1 14/14/1
f 11/11/1 13/13/1 15/15/1
f 12/12/1 14/14/1 16/16/1
f 15/15/1 13/13/1 17/17/1
f 15/15/1 17/17/1 18/18/1
f 18/18/1 17/17/1 19/19/1
f 16/16/1 14/14/1 20/20/1
f 16/16/1 20/20/1 21/21/1
f 21/21/1 20/20/1 22/22/1
f 21/21/1 22/22/1 23/23/1
f 23/23/1 22/22/1 24/24/1
f 23/23/1 24/24/1 25/25/1
f 25/25/1 24/24/1 26/26/1
f 25/25/1 26/26/1 27/27/1
f 27/27/1 26/26/1 28/28/1
f 27/27/1 28/28/1 29/29/1
f 29/29/1 28/28/1 30/30/1
f 29/29/1 30/30/1 31/31/1
f 31/31/1 30/30/1 32/32/1
f 31/31/1 32/32/1 19/33/1
f 19/33/1 32/32/1 18/34/1
f 33/35/2 34/36/3 35/37/4
f 33/35/2 35/37/4 36/38/5
f 33/35/2 36/38/5 37/39/6
f 33/35/2 37/39/6 38/40/7
f 39/41/8 31/42/6 19/43/5
f 39/41/8 19/43/5 40/44/9
f 39/41/8 40/44/9 41/45/10
f 39/41/8 41/45/10 42/46/11
f 41/45/10 40/44/9 43/47/12
f 42/46/11 41/45/10 44/48/13
f 41/45/10 43/47/12 45/49/14
f 41/45/10 45/49/14 44/48/13
f 45/49/14 43/47/12 46/50/15
f 44/48/13 45/49/14 47/51/16
f 45/49/14 46/50/15 48/52/17
f 45/49/14 48/52/17 47/51/16
f 47/51/16 48/52/17 49/53/18
f 47/51/16 49/53/18 50/54/19
f 51/55/20 52/56/21 53/57/22
f 53/57/22 52/56/21 54/58/23
f 53/57/22 54/58/23 55/59/24
f 55/59/24 54/58/23 56/60/25
f 56/60/25 54/58/23 57/61/26
f 56/60/25 57/61/26 58/62/27
f 58/62/27 57/61/26 59/63/28
f 59/63/28 57/61/26 60/64/29
f 59/63/28 60/64/29 61/65/30
f 61/65/30 60/64/29 62/66/31
f 62/66/31 60/64/29 63/67/32
f 62/66/31 63/67/32 64/68/33
f 64/68/33 63/67/32 65/69/34
f 65/69/34 63/67/32 66/70/35
f 65/69/34 66/70/35 35/71/36
f 35/71/36 66/70/35 36/72/37
f 67/73/38 68/74/39 69/75/40
f 67/73/38 69/75/40 70/76/41
f 71/77/42 72/78/43 73/79/44
f 73/79/44 72/78/43 74/80/45
f 71/77/42 73/79/44 75/81/46
f 74/80/45 72/78/43 76/82/47
f 74/80/45 76/82/47 77/83/48
f 72/78/43 71/77/42 78/84/49
f 72/78/43 78/84/49 79/85/50
f 78/84/49 71/77/42 80/86/51
f 72/78/43 79/85/50 81/87/52
f 72/78/43 81/87/52 76/82/47
f 76/82/47 81/87/52 82/88/53
f 80/86/51 71/77/42 83/89/54
f 76/82/47 82/88/53 84/90/55
f 83/89/54 71/77/42 85/91/56
f 85/91/56 71/77/42 75/81/46
f 83/89/54 85/91/56 86/92/57
f 85/91/56 75/81/46 87/93/58
f 86/92/57 85/91/56 88/94/59
f 76/82/47 84/90/55 89/95/60
f 85/91/56 87/93/58 90/96/61
f 85/91/56 90/96/61 88/94/59
f 89/95/60 84/90/55 91/97/62
f 88/94/59 90/96/61 92/98/63
f 90/96/61 87/93/58 93/99/64
f 92/98/63 90/96/61 94/100/65
f 89/95/60 91/97/62 95/101/66
f 90/96/61 93/99/64 96/102/67
f 90/96/61 96/102/67 94/100/65
f 94/100/65 96/102/67 97/103/68
f 96/102/67 93/99/64 98/104/69
f 97/103/68 96/102/67 99/105/70
f 96/102/67 98/104/69 100/106/71
f 96/102/67 100/106/71 99/105/70
f 99/105/70 100/106/71 101/107/72
f 101/107/72 100/106/71 102/108/73
f 100/106/71 98/104/69 103/109/74
f 102/108/73 100/106/71 104/110/75
f 104/110/75 100/106/71 103/109/74
f 102/108/73 104/110/75 105/111/76
f 105/111/76 104/110/75 106/112/77
f 106/112/77 104/110/75 52/56/21
f 106/112/77 52/56/21 51/55/20
f 104/110/75 103/109/74 107/113/78
f 104/110/75 107/113/78 52/56/21
f 107/113/78 103/109/74 108/114/79
f 108/114/79 103/109/74 109/115/80
f 107/113/78 108/114/79 110/116/81
f 108/114/79 109/115/80 111/117/82
f 52/56/21 107/113/78 112/118/83
f 112/118/83 107/113/78 110/116/81
f 52/56/21 112/118/83 54/58/23
f 112/118/83 110/116/81 113/119/84
f 54/58/23 112/118/83 114/120/85
f 114/120/85 112/118/83 113/119/84
f 54/58/23 114/120/85 57/61/26
f 114/120/85 113/119/84 115/121/86
f 57/61/26 114/120/85 116/122/87
f 116/122/87 114/120/85 115/121/86
f 57/61/26 116/122/87 60/64/29
f 116/122/87 115/121/86 117/123/88
f 60/64/29 116/122/87 118/124/89
f 118/124/89 116/122/87 117/123/88
f 60/64/29 118/124/89 63/67/32
f 118/124/89 117/123/88 119/125/90
f 63/67/32 118/124/89 120/126/91
f 120/126/91 118/124/89 119/125/90
f 63/67/32 120/126/91 66/70/35
f 120/126/91 119/125/90 121/127/92
f 120/126/91 121/127/92 122/128/93
f 120/126/91 122/128/93 66/70/35
f 122/128/93 121/127/92 123/129/94
f 66/70/35 122/128/93 124/130/95
f 66/70/35 124/130/95 36/72/37
f 36/72/37 124/130/95 37/131/96
f 37/131/96 124/130/95 95/101/66
f 95/101/66 124/130/95 89/95/60
f 124/130/95 122/128/93 125/132/97
f 124/130/95 125/132/97 89/95/60
f 125/132/97 122/128/93 123/129/94
f 89/95/60 125/132/97 77/83/48
f 89/95/60 77/83/48 76/82/47
f 77/83/48 125/132/97 126/133/98
f 126/133/98 125/132/97 123/129/94
f 126/133/98 123/129/94 127/134/99
f 127/134/99 123/129/94 128/135/100
f 126/133/98 127/134/99 129/136/101
f 126/133/98 129/136/101 130/137/102
f 127/134/99 128/135/100 131/138/103
f 127/134/99 131/138/103 129/136/101
f 131/138/103 128/135/100 132/139/104
f 132/139/104 128/135/100 133/140/105
f 132/139/104 133/140/105 134/141/106
f 130/137/102 129/136/101 135/142/107
f 130/137/102 135/142/107 136/143/108
f 129/136/101 131/138/103 68/74/39
f 129/136/101 68/74/39 135/142/107
f 131/138/103 132/139/104 69/75/40
f 131/138/103 69/75/40 68/74/39
f 132/139/104 134/141/106 137/144/109
f 132/139/104 137/144/109 69/75/40
f 137/144/109 134/141/106 138/145/110
f 137/144/109 138/145/110 139/146/111
f 135/142/107 68/74/39 140/147/112
f 135/142/107 140/147/112 136/143/108
f 140/147/112 68/74/39 67/73/38
f 136/143/108 140/147/112 141/148/113
f 137/144/109 139/146/111 142/149/114
f 137/144/109 142/149/114 69/75/40
f 142/149/114 139/146/111 143/150/115
f 142/149/114 143/150/115 144/151/116
f 141/148/113 140/147/112 145/152/117
f 145/152/117 140/147/112 67/73/38
f 141/148/113 145/152/117 146/153/118
f 145/152/117 67/73/38 147/154/119
f 145/152/117 147/154/119 146/153/118
f 146/153/118 147/154/119 148/155/120
f 147/154/119 67/73/38 70/76/41
f 148/155/120 147/154/119 149/156/121
f 149/156/121 147/154/119 70/76/41
f 148/155/120 149/156/121 150/157/122
f 150/157/122 149/156/121 151/158/123
f 151/158/123 149/156/121 70/76/41
f 150/157/122 151/158/123 109/115/80
f 109/115/80 151/158/123 111/117/82
f 151/158/123 70/76/41 152/159/124
f 151/158/123 152/159/124 111/117/82
f 152/159/124 70/76/41 69/75/40
f 152/159/124 69/75/40 142/149/114
f 111/117/82 152/159/124 144/151/116
f 144/151/116 152/159/124 142/149/114
f 74/80/45 77/83/48 130/137/102
f 130/137/102 77/83/48 126/133/98
f 74/80/45 130/137/102 136/143/108
f 74/80/45 136/143/108 73/79/44
f 73/79/44 136/143/108 141/148/113
f 73/79/44 141/148/113 75/81/46
f 75/81/46 141/148/113 146/153/118
f 75/81/46 146/153/118 87/93/58
f 87/93/58 146/153/118 148/155/120
f 87/93/58 148/155/120 93/99/64
f 93/99/64 148/155/120 150/157/122
f 93/99/64 150/157/122 98/104/69
f 98/104/69 150/157/122 109/115/80
f 98/104/69 109/115/80 103/109/74
f 110/116/81 108/114/79 144/151/116
f 144/151/116 108/114/79 111/117/82
f 110/116/81 144/151/116 143/150/115
f 110/116/81 143/150/115 113/119/84
f 113/119/84 143/150/115 139/146/111
f 113/119/84 139/146/111 115/121/86
f 115/121/86 139/146/111 138/145/110
f 115/121/86 138/145/110 117/123/88
f 117/123/88 138/145/110 134/141/106
f 117/123/88 134/141/106 119/125/90
f 119/125/90 134/141/106 133/140/105
f 119/125/90 133/140/105 121/127/92
f 121/127/92 133/140/105 128/135/100
f 121/127/92 128/135/100 123/129/94
f 32/160/125 153/161/126 18/162/127
f 18/162/127 153/161/126 154/163/128
f 154/163/128 153/161/126 155/164/129
f 154/163/128 155/164/129 156/165/130
f 156/165/130 155/164/129 157/166/131
f 156/165/130 157/166/131 158/167/132
f 158/167/132 157/166/131 159/168/133
f 158/167/132 159/168/133 160/169/134
f 160/169/134 159/168/133 161/170/1
f 162/171/135 160/172/136 161/170/1
f 162/171/135 161/170/1 163/173/137
f 160/172/136 162/171/135 164/174/138
f 160/172/136 164/174/138 158/175/139
f 162/171/135 163/173/137 165/176/140
f 162/171/135 165/176/140 164/174/138
f 165/176/140 163/173/137 166/177/141
f 166/177/141 163/173/137 167/178/142
f 165/176/140 166/177/141 168/179/143
f 165/176/140 168/179/143 169/180/144
f 165/176/140 169/180/144 164/174/138
f 169/180/144 168/179/143 170/181/145
f 171/182/146 158/175/139 164/174/138
f 171/182/146 164/174/138 169/180/144
f 158/175/139 171/182/146 156/183/147
f 169/180/144 170/181/145 172/184/148
f 169/180/144 172/184/148 171/182/146
f 172/184/148 170/181/145 6/185/149
f 172/184/148 6/185/149 2/186/150
f 172/184/148 2/186/150 1/187/151
f 156/183/147 171/182/146 173/188/152
f 173/188/152 171/182/146 172/184/148
f 173/188/152 172/184/148 1/187/151
f 173/188/152 1/187/151 7/189/153
f 156/183/147 173/188/152 154/190/154
f 173/188/152 7/189/153 11/191/155
f 173/188/152 11/191/155 154/190/154
f 154/190/154 11/191/155 15/192/156
f 154/190/154 15/192/156 18/193/157
f 61/194/158 62/195/159 174/196/160
f 174/196/160 62/195/159 64/197/161
f 61/194/158 174/196/160 175/198/162
f 174/196/160 64/197/161 176/199/163
f 61/194/158 175/198/162 177/200/164
f 61/194/158 177/200/164 59/201/165
f 175/198/162 174/196/160 178/202/166
f 175/198/162 178/202/166 177/200/164
f 59/201/165 177/200/164 58/203/167
f 176/199/163 64/197/161 179/204/168
f 179/204/168 64/197/161 65/205/169
f 174/196/160 176/199/163 180/206/170
f 180/206/170 176/199/163 179/204/168
f 179/204/168 65/205/169 35/207/171
f 179/204/168 35/207/171 34/208/172
f 179/204/168 34/208/172 49/209/173
f 179/204/168 49/209/173 180/206/170
f 174/196/160 180/206/170 178/202/166
f 180/206/170 49/209/173 48/210/174
f 178/202/166 180/206/170 181/211/175
f 181/211/175 180/206/170 48/210/174
f 182/212/176 177/200/164 178/202/166
f 183/213/177 58/203/167 177/200/164
f 183/213/177 177/200/164 182/212/176
f 58/203/167 183/213/177 184/214/178
f 184/214/178 183/213/177 182/212/176
f 58/203/167 184/214/178 56/215/179
f 56/215/179 184/214/178 55/216/180
f 55/216/180 184/214/178 185/217/181
f 186/218/182 182/212/176 178/202/166
f 186/218/182 178/202/166 181/211/175
f 184/214/178 182/212/176 187/219/183
f 184/214/178 187/219/183 185/217/181
f 55/216/180 185/217/181 188/220/184
f 188/220/184 185/217/181 187/219/183
f 55/216/180 188/220/184 53/221/185
f 53/221/185 188/220/184 51/222/186
f 51/222/186 188/220/184 189/223/187
f 51/222/186 189/223/187 190/224/188
f 51/222/186 190/224/188 106/225/189
f 106/225/189 190/224/188 105/226/190
f 105/226/190 190/224/188 191/227/191
f 188/220/184 187/219/183 192/228/192
f 193/229/193 187/219/183 182/212/176
f 193/229/193 182/212/176 186/218/182
f 192/228/192 187/219/183 194/230/194
f 194/230/194 187/219/183 193/229/193
f 192/228/192 194/230/194 195/231/195
f 192/228/192 195/231/195 196/232/196
f 196/232/196 195/231/195 197/233/197
f 197/233/197 195/231/195 198/234/198
f 199/235/199 198/234/198 200/236/200
f 200/236/200 198/234/198 201/237/201
f 198/234/198 195/231/195 202/238/202
f 198/234/198 202/238/202 201/237/201
f 202/238/202 195/231/195 203/239/203
f 203/239/203 195/231/195 194/230/194
f 201/237/201 202/238/202 204/240/204
f 204/240/204 202/238/202 203/239/203
f 201/237/201 204/240/204 205/241/205
f 201/237/201 205/241/205 206/242/206
f 206/242/206 205/241/205 4/243/190
f 4/243/190 205/241/205 3/244/186
f 3/244/186 205/241/205 207/245/207
f 205/241/205 204/240/204 208/246/208
f 208/246/208 204/240/204 203/239/203
f 205/241/205 208/246/208 207/245/207
f 3/244/186 207/245/207 5/247/209
f 208/246/208 203/239/203 209/248/210
f 209/248/210 203/239/203 194/230/194
f 207/245/207 208/246/208 210/249/211
f 210/249/211 208/246/208 209/248/210
f 5/247/209 207/245/207 211/250/212
f 209/248/210 194/230/194 212/251/213
f 209/248/210 212/251/213 210/249/211
f 212/251/213 194/230/194 193/229/193
f 207/245/207 210/249/211 213/252/214
f 213/252/214 210/249/211 212/251/213
f 207/245/207 213/252/214 211/250/212
f 5/247/209 211/250/212 9/253/167
f 212/251/213 193/229/193 214/254/215
f 212/251/213 214/254/215 213/252/214
f 214/254/215 193/229/193 215/255/216
f 213/252/214 214/254/215 216/256/217
f 213/252/214 216/256/217 211/250/212
f 216/256/217 214/254/215 215/255/216
f 215/255/216 193/229/193 186/218/182
f 211/250/212 216/256/217 217/257/218
f 217/257/218 216/256/217 215/255/216
f 218/258/219 9/253/167 211/250/212
f 218/258/219 211/250/212 217/257/218
f 9/253/167 218/258/219 13/259/220
f 215/255/216 186/218/182 219/260/221
f 215/255/216 219/260/221 217/257/218
f 219/260/221 186/218/182 220/261/222
f 217/257/218 219/260/221 221/262/223
f 217/257/218 221/262/223 218/258/219
f 221/262/223 219/260/221 220/261/222
f 220/261/222 186/218/182 181/211/175
f 218/258/219 221/262/223 222/263/224
f 222/263/224 221/262/223 220/261/222
f 223/264/225 13/259/220 218/258/219
f 13/259/220 223/264/225 17/265/161
f 218/258/219 222/263/224 224/266/226
f 218/258/219 224/266/226 223/264/225
f 222/263/224 220/261/222 225/267/227
f 222/263/224 225/267/227 224/266/226
f 225/267/227 220/261/222 181/211/175
f 17/265/161 223/264/225 40/268/228
f 17/265/161 40/268/228 19/269/169
f 40/268/228 223/264/225 226/270/229
f 226/270/229 223/264/225 224/266/226
f 40/268/228 226/270/229 43/271/230
f 43/271/230 226/270/229 46/272/231
f 226/270/229 224/266/226 227/273/232
f 226/270/229 227/273/232 46/272/231
f 227/273/232 224/266/226 225/267/227
f 227/273/232 225/267/227 181/211/175
f 46/272/231 227/273/232 48/210/174
f 48/210/174 227/273/232 181/211/175
f 26/274/233 24/275/234 228/276/235
f 228/276/235 24/275/234 22/277/236
f 26/274/233 228/276/235 229/278/237
f 26/274/233 229/278/237 28/279/238
f 228/276/235 22/277/236 230/280/239
f 230/280/239 22/277/236 20/281/240
f 28/279/238 229/278/237 30/282/241
f 230/280/239 20/281/240 14/283/242
f 30/282/241 229/278/237 153/161/126
f 30/282/241 153/161/126 32/160/125
f 230/280/239 14/283/242 170/181/145
f 170/181/145 14/283/242 10/284/243
f 170/181/145 10/284/243 6/185/149
f 230/280/239 170/181/145 168/179/143
f 230/280/239 168/179/143 231/285/244
f 230/280/239 231/285/244 228/276/235
f 231/285/244 168/179/143 166/177/141
f 228/276/235 231/285/244 232/286/245
f 228/276/235 232/286/245 229/278/237
f 231/285/244 166/177/141 233/287/246
f 231/285/244 233/287/246 232/286/245
f 233/287/246 166/177/141 167/178/142
f 229/278/237 232/286/245 234/288/247
f 229/278/237 234/288/247 153/161/126
f 153/161/126 234/288/247 155/164/129
f 234/288/247 232/286/245 235/289/248
f 235/289/248 232/286/245 233/287/246
f 155/164/129 234/288/247 236/290/249
f 236/290/249 234/288/247 235/289/248
f 155/164/129 236/290/249 157/166/131
f 235/289/248 233/287/246 237/291/250
f 237/291/250 233/287/246 167/178/142
f 236/290/249 235/289/248 238/292/251
f 238/292/251 235/289/248 237/291/250
f 157/166/131 236/290/249 239/293/252
f 239/293/252 236/290/249 238/292/251
f 157/166/131 239/293/252 159/168/133
f 159/168/133 239/293/252 161/170/1
f 161/170/1 239/293/252 238/292/251
f 161/170/1 238/292/251 237/291/250
f 161/170/1 237/291/250 167/178/142
f 161/170/1 167/178/142 163/173/137
f 240/294/253 241/295/254 27/296/255
f 27/296/255 241/295/254 25/297/256
f 240/294/253 27/296/255 29/298/257
f 25/297/256 241/295/254 242/299/258
f 25/297/256 242/299/258 23/300/259
f 23/300/259 242/299/258 243/301/260
f 23/300/259 243/301/260 21/302/261
f 242/299/258 241/295/254 244/303/262
f 21/302/261 243/301/260 245/304/263
f 21/302/261 245/304/263 16/305/264
f 243/301/260 242/299/258 246/306/265
f 16/305/264 245/304/263 247/307/266
f 16/305/264 247/307/266 12/308/267
f 245/304/263 243/301/260 248/309/268
f 12/308/267 247/307/266 249/310/269
f 12/308/267 249/310/269 8/311/270
f 247/307/266 245/304/263 250/312/271
f 8/311/270 249/310/269 206/242/206
f 8/311/270 206/242/206 4/243/190
f 249/310/269 247/307/266 251/313/272
f 201/237/201 206/242/206 200/236/200
f 200/236/200 206/242/206 252/314/273
f 252/314/273 206/242/206 249/310/269
f 200/236/200 252/314/273 199/235/199
f 252/314/273 249/310/269 253/315/274
f 253/315/274 249/310/269 251/313/272
f 199/235/199 252/314/273 254/316/275
f 254/316/275 252/314/273 253/315/274
f 199/235/199 254/316/275 197/233/197
f 199/235/199 197/233/197 198/234/198
f 254/316/275 253/315/274 255/317/276
f 255/317/276 253/315/274 251/313/272
f 197/233/197 254/316/275 256/318/277
f 256/318/277 254/316/275 255/317/276
f 197/233/197 256/318/277 257/319/278
f 255/317/276 251/313/272 258/320/279
f 255/317/276 258/320/279 256/318/277
f 258/320/279 251/313/272 259/321/280
f 259/321/280 251/313/272 247/307/266
f 259/321/280 247/307/266 250/312/271
f 258/320/279 259/321/280 260/322/281
f 260/322/281 259/321/280 250/312/271
f 256/318/277 258/320/279 261/323/282
f 261/323/282 258/320/279 260/322/281
f 260/322/281 250/312/271 262/324/283
f 260/322/281 262/324/283 261/323/282
f 262/324/283 250/312/271 263/325/284
f 263/325/284 250/312/271 245/304/263
f 263/325/284 245/304/263 248/309/268
f 256/318/277 261/323/282 264/326/285
f 256/318/277 264/326/285 257/319/278
f 262/324/283 263/325/284 265/327/286
f 265/327/286 263/325/284 248/309/268
f 266/328/287 261/323/282 262/324/283
f 266/328/287 262/324/283 265/327/286
f 264/326/285 261/323/282 267/329/288
f 267/329/288 261/323/282 266/328/287
f 265/327/286 248/309/268 268/330/289
f 265/327/286 268/330/289 266/328/287
f 268/330/289 248/309/268 269/331/290
f 269/331/290 248/309/268 243/301/260
f 269/331/290 243/301/260 246/306/265
f 268/330/289 269/331/290 270/332/291
f 270/332/291 269/331/290 246/306/265
f 266/328/287 268/330/289 271/333/292
f 271/333/292 268/330/289 270/332/291
f 272/334/293 267/329/288 266/328/287
f 272/334/293 266/328/287 271/333/292
f 270/332/291 246/306/265 273/335/294
f 270/332/291 273/335/294 271/333/292
f 273/335/294 246/306/265 274/336/295
f 274/336/295 246/306/265 242/299/258
f 274/336/295 242/299/258 244/303/262
f 273/335/294 274/336/295 275/337/296
f 275/337/296 274/336/295 244/303/262
f 271/333/292 273/335/294 276/338/297
f 276/338/297 273/335/294 275/337/296
f 277/339/298 272/334/293 271/333/292
f 277/339/298 271/333/292 276/338/297
f 275/337/296 244/303/262 278/340/299
f 275/337/296 278/340/299 276/338/297
f 278/340/299 244/303/262 279/341/300
f 279/341/300 244/303/262 241/295/254
f 276/338/297 278/340/299 280/342/301
f 278/340/299 279/341/300 281/343/302
f 278/340/299 281/343/302 280/342/301
f 279/341/300 241/295/254 282/344/303
f 279/341/300 282/344/303 281/343/302
f 282/344/303 241/295/254 240/294/253
f 281/343/302 282/344/303 283/345/304
f 281/343/302 283/345/304 280/342/301
f 282/344/303 240/294/253 284/346/305
f 282/344/303 284/346/305 283/345/304
f 285/347/306 276/338/297 280/342/301
f 276/338/297 285/347/306 277/339/298
f 280/342/301 283/345/304 286/348/307
f 283/345/304 284/346/305 287/349/308
f 283/345/304 287/349/308 286/348/307
f 284/346/305 240/294/253 288/350/309
f 284/346/305 288/350/309 287/349/308
f 288/350/309 240/294/253 289/351/310
f 289/351/310 240/294/253 29/298/257
f 289/351/310 29/298/257 31/42/6
f 289/351/310 31/42/6 39/41/8
f 288/350/309 289/351/310 290/352/311
f 290/352/311 289/351/310 39/41/8
f 287/349/308 288/350/309 291/353/312
f 291/353/312 288/350/309 290/352/311
f 287/349/308 291/353/312 286/348/307
f 290/352/311 39/41/8 292/354/313
f 292/354/313 39/41/8 42/46/11
f 291/353/312 290/352/311 293/355/314
f 293/355/314 290/352/311 292/354/313
f 286/348/307 291/353/312 294/356/315
f 294/356/315 291/353/312 293/355/314
f 292/354/313 42/46/11 295/357/316
f 292/354/313 295/357/316 293/355/314
f 293/355/314 295/357/316 294/356/315
f 295/357/316 42/46/11 44/48/13
f 295/357/316 44/48/13 47/51/16
f 295/357/316 47/51/16 294/356/315
f 294/356/315 47/51/16 50/54/19
f 296/358/317 286/348/307 294/356/315
f 296/358/317 294/356/315 50/54/19
f 286/348/307 296/358/317 297/359/318
f 286/348/307 297/359/318 280/342/301
f 296/358/317 50/54/19 298/360/319
f 280/342/301 297/359/318 285/347/306
f 297/359/318 296/358/317 299/361/320
f 296/358/317 298/360/319 300/362/321
f 296/358/317 300/362/321 299/361/320
f 300/362/321 298/360/319 91/363/257
f 300/362/321 91/363/257 299/361/320
f 91/363/257 298/360/319 95/364/322
f 299/361/320 91/363/257 84/365/323
f 95/364/322 298/360/319 37/39/6
f 37/39/6 298/360/319 38/40/7
f 38/40/7 298/360/319 50/54/19
f 38/40/7 50/54/19 33/35/2
f 33/35/2 50/54/19 49/53/18
f 33/35/2 49/53/18 34/36/3
f 299/361/320 84/365/323 82/366/324
f 299/361/320 82/366/324 301/367/325
f 299/361/320 301/367/325 297/359/318
f 301/367/325 82/366/324 302/368/326
f 301/367/325 302/368/326 297/359/318
f 302/368/326 82/366/324 81/369/327
f 297/359/318 302/368/326 285/347/306
f 302/368/326 81/369/327 79/370/328
f 285/347/306 302/368/326 303/371/329
f 303/371/329 302/368/326 79/370/328
f 285/347/306 303/371/329 304/372/330
f 304/372/330 303/371/329 79/370/328
f 304/372/330 79/370/328 78/373/331
f 285/347/306 304/372/330 277/339/298
f 304/372/330 78/373/331 80/374/259
f 277/339/298 304/372/330 305/375/332
f 305/375/332 304/372/330 80/374/259
f 277/339/298 305/375/332 306/376/333
f 306/376/333 305/375/332 80/374/259
f 306/376/333 80/374/259 83/377/334
f 277/339/298 306/376/333 272/334/293
f 306/376/333 83/377/334 86/378/261
f 272/334/293 306/376/333 307/379/335
f 307/379/335 306/376/333 86/378/261
f 272/334/293 307/379/335 308/380/336
f 308/380/336 307/379/335 86/378/261
f 308/380/336 86/378/261 88/381/337
f 272/334/293 308/380/336 267/329/288
f 308/380/336 88/381/337 92/382/264
f 267/329/288 308/380/336 309/383/338
f 309/383/338 308/380/336 92/382/264
f 267/329/288 309/383/338 310/384/339
f 310/384/339 309/383/338 92/382/264
f 310/384/339 92/382/264 94/385/340
f 267/329/288 310/384/339 264/326/285
f 310/384/339 94/385/340 97/386/267
f 264/326/285 310/384/339 311/387/341
f 311/387/341 310/384/339 97/386/267
f 264/326/285 311/387/341 312/388/342
f 312/388/342 311/387/341 97/386/267
f 312/388/342 97/386/267 99/389/343
f 312/388/342 99/389/343 101/390/270
f 264/326/285 312/388/342 257/319/278
f 312/388/342 101/390/270 313/391/344
f 312/388/342 313/391/344 257/319/278
f 313/391/344 101/390/270 314/392/345
f 313/391/344 314/392/345 257/319/278
f 314/392/345 101/390/270 102/393/346
f 314/392/345 102/393/346 105/226/190
f 314/392/345 105/226/190 191/227/191
f 257/319/278 314/392/345 196/232/196
f 196/232/196 314/392/345 191/227/191
f 257/319/278 196/232/196 197/233/197
f 196/232/196 191/227/191 190/224/188
f 196/232/196 190/224/188 192/228/192
f 192/228/192 190/224/188 189/223/187
f 192/228/192 189/223/187 188/220/184
