# CS2 body mesh, tools/cs2_glb_to_obj.py
v 0.05652 0.04836 0.02884
v 0.05652 0.04836 0.02409
v 0.05539 0.04855 0.02409
v 0.05539 0.04855 0.02884
v 0.05441 0.04854 0.02409
v 0.05441 0.04854 0.02884
v 0.05436 0.04802 0.02884
v 0.05436 0.04802 0.02409
v 0.05652 0.04836 0.00634
v 0.05652 0.04836 0.0016
v 0.05539 0.04855 0.0016
v 0.05539 0.04855 0.00634
v 0.05441 0.04854 0.0016
v 0.05441 0.04854 0.00634
v 0.05436 0.04802 0.00634
v 0.05436 0.04802 0.0016
v 0.05321 0.03626 0.02174
v 0.05317 0.03628 0.00828
v 0.05215 0.03642 0.02173
v 0.05215 0.03643 0.00829
v 0.05104 0.03635 0.02172
v 0.05107 0.03635 0.0083
v 0.05102 0.03583 0.02199
v 0.05098 0.03583 0.00803
v 0.05355 0.0382 0.00645
v 0.05353 0.03768 0.00623
v 0.05155 0.03856 0.00621
v 0.05176 0.03903 0.00648
v 0.06035 0.04146 0.02409
v 0.06035 0.04146 0.02949
v 0.05996 0.04044 0.02949
v 0.05996 0.04044 0.02409
v 0.06056 0.04254 0.02409
v 0.05935 0.03952 0.02944
v 0.06056 0.04254 0.02949
v 0.05935 0.03952 0.02409
v 0.06053 0.04363 0.02944
v 0.05861 0.03873 0.02932
v 0.06053 0.04363 0.02409
v 0.05861 0.03873 0.02409
v 0.06031 0.04471 0.02932
v 0.05769 0.03812 0.02918
v 0.06031 0.04471 0.02409
v 0.05769 0.03812 0.02409
v 0.0567 0.03765 0.02904
v 0.0567 0.03765 0.02409
v 0.05986 0.0457 0.02918
v 0.05986 0.0457 0.02409
v 0.05925 0.04662 0.02904
v 0.05925 0.04662 0.02409
v 0.05846 0.04736 0.02892
v 0.05846 0.04736 0.02409
v 0.05754 0.04798 0.02885
v 0.05754 0.04798 0.02409
v 0.06035 0.04146 0.0016
v 0.06035 0.04146 0.00699
v 0.05996 0.04043 0.00699
v 0.05996 0.04043 0.0016
v 0.06056 0.04253 0.0016
v 0.05935 0.03952 0.00694
v 0.06056 0.04253 0.00699
v 0.05935 0.03952 0.0016
v 0.06053 0.04363 0.00694
v 0.0586 0.03872 0.00682
v 0.06053 0.04363 0.0016
v 0.0586 0.03872 0.0016
v 0.06031 0.04469 0.00682
v 0.05769 0.03812 0.00668
v 0.06031 0.04469 0.0016
v 0.05769 0.03812 0.0016
v 0.05668 0.03767 0.00655
v 0.05669 0.03767 0.0016
v 0.05986 0.0457 0.00668
v 0.05986 0.0457 0.0016
v 0.05927 0.04663 0.00654
v 0.05927 0.04663 0.0016
v 0.05846 0.04736 0.00643
v 0.05846 0.04736 0.0016
v 0.05754 0.04797 0.00636
v 0.05754 0.04797 0.0016
v 0.06003 0.04258 0.02949
v 0.05984 0.04161 0.02949
v 0.05949 0.04068 0.02949
v 0.06 0.04357 0.02945
v 0.05894 0.03985 0.02945
v 0.05981 0.04455 0.02934
v 0.05826 0.03914 0.02934
v 0.0594 0.04544 0.02921
v 0.05743 0.03858 0.02921
v 0.05885 0.04627 0.02907
v 0.05654 0.03816 0.02907
v 0.05813 0.04695 0.02895
v 0.05556 0.03798 0.02895
v 0.05562 0.03746 0.02892
v 0.0545 0.03743 0.02888
v 0.0573 0.0475 0.02887
v 0.05454 0.03795 0.0289
v 0.05638 0.04785 0.02884
v 0.05359 0.03814 0.02884
v 0.05345 0.03764 0.02884
v 0.05249 0.03806 0.02884
v 0.0553 0.04804 0.02884
v 0.05268 0.03855 0.02884
v 0.05156 0.03861 0.02884
v 0.0518 0.03907 0.02884
v 0.05359 0.0382 0.02409
v 0.05268 0.03855 0.0016
v 0.05249 0.03806 0.0016
v 0.05156 0.03861 0.0016
v 0.0518 0.03907 0.0016
v 0.05359 0.03814 0.0016
v 0.05345 0.03764 0.0016
v 0.0545 0.03743 0.0016
v 0.05454 0.03795 0.0016
v 0.05556 0.03798 0.0016
v 0.05562 0.03746 0.0016
v 0.05652 0.03817 0.0016
v 0.05743 0.03858 0.0016
v 0.05825 0.03913 0.0016
v 0.05894 0.03985 0.0016
v 0.05949 0.04067 0.0016
v 0.05984 0.04161 0.0016
v 0.06003 0.04257 0.0016
v 0.06 0.04357 0.0016
v 0.05981 0.04453 0.0016
v 0.0594 0.04544 0.0016
v 0.05887 0.04628 0.0016
v 0.05813 0.04695 0.0016
v 0.0573 0.0475 0.0016
v 0.05638 0.04785 0.0016
v 0.0553 0.04804 0.0016
v 0.05703 0.02854 0.00817
v 0.05734 0.02959 0.00817
v 0.05734 0.02959 0.02185
v 0.05703 0.02854 0.02185
v 0.0575 0.03069 0.02185
v 0.05645 0.02761 0.02185
v 0.0575 0.03069 0.00817
v 0.05645 0.02761 0.00817
v 0.05741 0.03177 0.00817
v 0.05573 0.02677 0.00817
v 0.05741 0.03177 0.02185
v 0.05573 0.02677 0.02185
v 0.05714 0.03284 0.00817
v 0.05486 0.02612 0.00817
v 0.05714 0.03284 0.02185
v 0.05486 0.02612 0.02185
v 0.05664 0.0338 0.02185
v 0.05388 0.02561 0.00817
v 0.05664 0.0338 0.00817
v 0.05388 0.02561 0.02185
v 0.05283 0.02535 0.00817
v 0.05283 0.02535 0.02185
v 0.05598 0.03469 0.02186
v 0.05598 0.03469 0.00816
v 0.05514 0.03539 0.02185
v 0.05514 0.03539 0.00817
v 0.05418 0.03595 0.00822
v 0.0542 0.03594 0.0218
v 0.05172 0.03904 0.02409
v 0.05158 0.03854 0.02409
v 0.05349 0.03768 0.02409
v 0.05274 0.02587 0.02185
v 0.05174 0.02579 0.02185
v 0.05369 0.02611 0.02185
v 0.05173 0.02526 0.02185
v 0.05065 0.02541 0.02185
v 0.05077 0.02593 0.02185
v 0.05458 0.02657 0.02185
v 0.0496 0.02577 0.02185
v 0.05537 0.02716 0.02185
v 0.04977 0.02627 0.02185
v 0.04871 0.02629 0.02185
v 0.04893 0.02676 0.02185
v 0.05601 0.02792 0.02185
v 0.05654 0.02876 0.02185
v 0.05682 0.02971 0.02185
v 0.05696 0.0307 0.02185
v 0.05688 0.03168 0.02185
v 0.05664 0.03265 0.02185
v 0.05619 0.03352 0.02185
v 0.05559 0.03432 0.02184
v 0.05484 0.03496 0.02185
v 0.05394 0.03549 0.02191
v 0.05299 0.03579 0.02196
v 0.05173 0.02526 0.00817
v 0.05174 0.02579 0.00817
v 0.05065 0.02541 0.00817
v 0.05274 0.02587 0.00817
v 0.05077 0.02593 0.00817
v 0.05369 0.02611 0.00817
v 0.0496 0.02577 0.00817
v 0.04977 0.02627 0.00817
v 0.04871 0.02629 0.00817
v 0.04893 0.02676 0.00817
v 0.05458 0.02657 0.00817
v 0.05537 0.02716 0.00817
v 0.05601 0.02792 0.00817
v 0.05654 0.02876 0.00817
v 0.05682 0.02971 0.00817
v 0.05696 0.0307 0.00817
v 0.05688 0.03168 0.00817
v 0.05664 0.03265 0.00817
v 0.05619 0.03352 0.00817
v 0.05559 0.03432 0.00818
v 0.05484 0.03496 0.00817
v 0.05396 0.03548 0.00811
v 0.05303 0.03577 0.00805
v 0.05203 0.03593 0.02197
v 0.05203 0.03592 0.00804
v 0.06003 0.04257 0.00699
v 0.05984 0.04161 0.00699
v 0.05949 0.04067 0.00699
v 0.06 0.04357 0.00695
v 0.05894 0.03985 0.00695
v 0.05981 0.04453 0.00685
v 0.05825 0.03913 0.00685
v 0.0594 0.04544 0.00671
v 0.05743 0.03858 0.00671
v 0.05887 0.04628 0.00657
v 0.05652 0.03817 0.00656
v 0.05813 0.04695 0.00646
v 0.05556 0.03798 0.00646
v 0.05562 0.03746 0.00643
v 0.05453 0.03743 0.00633
v 0.0573 0.0475 0.00637
v 0.05452 0.03795 0.00646
v 0.05638 0.04785 0.00634
v 0.0535 0.03763 0.00623
v 0.05354 0.03815 0.00645
v 0.05251 0.03806 0.00622
v 0.0553 0.04804 0.00634
v 0.05265 0.03855 0.00647
v 0.05156 0.03861 0.00621
v 0.0518 0.03907 0.00648
v 0.05358 0.03815 0.02409
v 0.05454 0.03795 0.02409
v 0.05451 0.03743 0.02409
v 0.05556 0.03798 0.02409
v 0.05346 0.03763 0.02409
v 0.05562 0.03746 0.02409
v 0.05266 0.03856 0.02409
v 0.05654 0.03816 0.02409
v 0.05743 0.03858 0.02409
v 0.05826 0.03914 0.02409
v 0.05894 0.03985 0.02409
v 0.05949 0.04068 0.02409
v 0.05984 0.04161 0.02409
v 0.06003 0.04258 0.02409
v 0.06 0.04357 0.02409
v 0.05981 0.04455 0.02409
v 0.0594 0.04544 0.02409
v 0.05885 0.04627 0.02409
v 0.05813 0.04695 0.02409
v 0.0573 0.0475 0.02409
v 0.05638 0.04785 0.02409
v 0.0553 0.04804 0.02409
v 0.05251 0.03806 0.02409
v 0.05159 0.03859 0.02409
v 0.05176 0.03909 0.02409
vt 0.724609 0.386963
vt 0.724609 0.392334
vt 0.726074 0.392334
vt 0.726074 0.386963
vt 0.727051 0.392334
vt 0.727051 0.386963
vt 0.727539 0.386963
vt 0.727539 0.392334
vt 0.06427 0.087341
vt 0.06427 0.092651
vt 0.065552 0.092651
vt 0.065552 0.087341
vt 0.06665 0.092651
vt 0.06665 0.087341
vt 0.067261 0.087341
vt 0.067261 0.092651
vt 0.962891 0.220459
vt 0.978027 0.220459
vt 0.962891 0.21936
vt 0.978027 0.219238
vt 0.962891 0.218018
vt 0.978027 0.218018
vt 0.962891 0.217529
vt 0.978027 0.217529
vt 0.556641 0.007996
vt 0.556641 0.007374
vt 0.554688 0.007717
vt 0.554688 0.008369
vt 0.714844 0.392334
vt 0.714844 0.38623
vt 0.713867 0.38623
vt 0.713867 0.392334
vt 0.716309 0.392334
vt 0.712402 0.386475
vt 0.716309 0.38623
vt 0.712402 0.392334
vt 0.717285 0.386475
vt 0.711426 0.386475
vt 0.717285 0.392334
vt 0.711426 0.392334
vt 0.71875 0.386475
vt 0.709961 0.386719
vt 0.71875 0.392334
vt 0.709961 0.392334
vt 0.708984 0.386963
vt 0.708984 0.392334
vt 0.719727 0.386719
vt 0.719727 0.392334
vt 0.721191 0.386963
vt 0.721191 0.392334
vt 0.722168 0.386963
vt 0.722168 0.392334
vt 0.723633 0.386963
vt 0.723633 0.392334
vt 0.054474 0.092651
vt 0.054474 0.086609
vt 0.053253 0.086609
vt 0.053253 0.092651
vt 0.055695 0.092651
vt 0.052032 0.08667
vt 0.055695 0.086609
vt 0.052032 0.092651
vt 0.056915 0.08667
vt 0.050781 0.086792
vt 0.056915 0.092651
vt 0.050781 0.092651
vt 0.058136 0.086792
vt 0.049561 0.086975
vt 0.058136 0.092651
vt 0.049561 0.092651
vt 0.04834 0.087097
vt 0.04834 0.092651
vt 0.059387 0.086975
vt 0.059387 0.092651
vt 0.060608 0.087097
vt 0.060608 0.092651
vt 0.061829 0.087219
vt 0.061829 0.092651
vt 0.063049 0.087341
vt 0.063049 0.092651
vt 0.015228 0.142212
vt 0.014053 0.142212
vt 0.014046 0.1427
vt 0.012894 0.142212
vt 0.015228 0.1427
vt 0.012878 0.1427
vt 0.016388 0.142212
vt 0.011711 0.142212
vt 0.016388 0.1427
vt 0.011703 0.1427
vt 0.017578 0.1427
vt 0.010544 0.1427
vt 0.017563 0.142212
vt 0.010536 0.142212
vt 0.018738 0.142212
vt 0.009354 0.142212
vt 0.018738 0.1427
vt 0.009354 0.1427
vt 0.019928 0.1427
vt 0.008171 0.1427
vt 0.019928 0.142212
vt 0.008171 0.142212
vt 0.021103 0.142212
vt 0.006992 0.142212
vt 0.021103 0.1427
vt 0.007 0.1427
vt 0.022278 0.1427
vt 0.00581 0.1427
vt 0.022278 0.142212
vt 0.005798 0.142212
vt 0.023438 0.142212
vt 0.004658 0.142212
vt 0.023438 0.1427
vt 0.004665 0.1427
vt 0.024673 0.1427
vt 0.003529 0.1427
vt 0.024704 0.142212
vt 0.025757 0.1427
vt 0.025757 0.142212
vt 0.0035 0.142212
vt 0.00234 0.1427
vt 0.002346 0.142212
vt 0.150513 0.237549
vt 0.149536 0.237305
vt 0.150513 0.241333
vt 0.388916 0.005196
vt 0.388672 0.005795
vt 0.389893 0.005795
vt 0.389893 0.005196
vt 0.387695 0.005196
vt 0.387695 0.005795
vt 0.386475 0.005795
vt 0.386475 0.005196
vt 0.385254 0.005196
vt 0.385254 0.005795
vt 0.384277 0.005196
vt 0.384277 0.005795
vt 0.383057 0.005795
vt 0.383057 0.005196
vt 0.381836 0.005196
vt 0.381836 0.005795
vt 0.380859 0.005795
vt 0.380859 0.005196
vt 0.379639 0.005196
vt 0.379639 0.005795
vt 0.378418 0.005795
vt 0.378418 0.005196
vt 0.377441 0.005196
vt 0.377441 0.005795
vt 0.376221 0.005795
vt 0.376221 0.005196
vt 0.375 0.005196
vt 0.375 0.005795
vt 0.374023 0.005795
vt 0.374023 0.005196
vt 0.372803 0.005196
vt 0.372803 0.005795
vt 0.371582 0.005795
vt 0.371582 0.005196
vt 0.370361 0.005196
vt 0.370361 0.005795
vt 0.369385 0.005795
vt 0.369385 0.005196
vt 0.368164 0.005795
vt 0.36792 0.005196
vt 0.366943 0.005795
vt 0.366943 0.005196
vt 0.978027 0.231445
vt 0.978027 0.230225
vt 0.962891 0.230225
vt 0.962891 0.231445
vt 0.962891 0.229004
vt 0.962891 0.232666
vt 0.978027 0.229004
vt 0.978027 0.232666
vt 0.978027 0.227783
vt 0.978027 0.233887
vt 0.962891 0.227783
vt 0.962891 0.233887
vt 0.978027 0.226562
vt 0.978027 0.235107
vt 0.962891 0.226562
vt 0.962891 0.235107
vt 0.962891 0.225342
vt 0.978027 0.236328
vt 0.978027 0.225342
vt 0.962891 0.236328
vt 0.978027 0.237549
vt 0.962891 0.237549
vt 0.962891 0.224121
vt 0.978027 0.224121
vt 0.962891 0.2229
vt 0.978027 0.2229
vt 0.978027 0.221558
vt 0.962891 0.22168
vt 0.016006 0.004856
vt 0.014931 0.004955
vt 0.014931 0.008354
vt 0.148193 0.241455
vt 0.017166 0.008675
vt 0.30957 0.774902
vt 0.311768 0.775391
vt 0.311768 0.774902
vt 0.30957 0.774414
vt 0.051147 0.24585
vt 0.051147 0.24646
vt 0.052307 0.24646
vt 0.049988 0.24646
vt 0.052307 0.24585
vt 0.049988 0.24585
vt 0.053436 0.24585
vt 0.048828 0.24585
vt 0.053436 0.24646
vt 0.048828 0.24646
vt 0.054626 0.24585
vt 0.047699 0.24646
vt 0.054688 0.24646
vt 0.055756 0.24585
vt 0.055756 0.24646
vt 0.047699 0.24585
vt 0.046539 0.24585
vt 0.04657 0.24646
vt 0.04541 0.24646
vt 0.04541 0.24585
vt 0.044281 0.24585
vt 0.044281 0.24646
vt 0.043121 0.24646
vt 0.043121 0.24585
vt 0.041992 0.24585
vt 0.041992 0.24646
vt 0.040833 0.24646
vt 0.040833 0.24585
vt 0.039673 0.24585
vt 0.039673 0.24646
vt 0.038513 0.24585
vt 0.038513 0.24646
vt 0.037354 0.24646
vt 0.037354 0.24585
vt 0.036194 0.24585
vt 0.036163 0.24646
vt 0.035126 0.24585
vt 0.035126 0.24646
vt 0.148193 0.236938
vt 0.017166 0.004513
vt 0.158691 0.00322
vt 0.157471 0.00322
vt 0.157471 0.003809
vt 0.15625 0.00322
vt 0.158691 0.003809
vt 0.15625 0.003809
vt 0.15979 0.003809
vt 0.155029 0.00322
vt 0.15979 0.00322
vt 0.155029 0.003809
vt 0.153931 0.00322
vt 0.153931 0.003809
vt 0.161011 0.00322
vt 0.161011 0.003809
vt 0.162109 0.003809
vt 0.162109 0.00322
vt 0.16333 0.00322
vt 0.16333 0.003809
vt 0.164551 0.003809
vt 0.164551 0.00322
vt 0.165649 0.00322
vt 0.165649 0.003809
vt 0.16687 0.003809
vt 0.16687 0.00322
vt 0.168091 0.00322
vt 0.168091 0.003809
vt 0.169189 0.003809
vt 0.169189 0.00322
vt 0.17041 0.00322
vt 0.17041 0.003809
vt 0.171509 0.00322
vt 0.171509 0.003809
vt 0.172729 0.003809
vt 0.172729 0.00322
vt 0.17395 0.00322
vt 0.17395 0.003809
vt 0.175049 0.003809
vt 0.175049 0.00322
vt 0.014366 0.008064
vt 0.014366 0.004662
vt 0.151001 0.240967
vt 0.151001 0.237305
vt 0.017715 0.008316
vt 0.017715 0.004154
vt 0.147705 0.236694
vt 0.147705 0.240967
vt 0.310547 0.779297
vt 0.30957 0.779297
vt 0.554688 0.00351
vt 0.555664 0.003841
vt 0.983887 0.17041
vt 0.982422 0.17041
vt 0.982422 0.171021
vt 0.981445 0.17041
vt 0.983887 0.171021
vt 0.981445 0.171021
vt 0.984863 0.17041
vt 0.980469 0.17041
vt 0.984863 0.171021
vt 0.980469 0.171021
vt 0.986328 0.171021
vt 0.979004 0.171021
vt 0.986328 0.17041
vt 0.979004 0.17041
vt 0.987305 0.17041
vt 0.978027 0.17041
vt 0.987305 0.171021
vt 0.978027 0.171021
vt 0.988281 0.171021
vt 0.976562 0.171021
vt 0.988281 0.17041
vt 0.976562 0.17041
vt 0.989746 0.17041
vt 0.975586 0.17041
vt 0.989746 0.171021
vt 0.975586 0.171021
vt 0.990723 0.171021
vt 0.974121 0.171021
vt 0.990723 0.17041
vt 0.974121 0.17041
vt 0.992188 0.17041
vt 0.973145 0.171021
vt 0.992188 0.171021
vt 0.973145 0.17041
vt 0.993164 0.171021
vt 0.972168 0.171021
vt 0.993164 0.17041
vt 0.994141 0.171021
vt 0.994141 0.17041
vt 0.972168 0.17041
vt 0.970703 0.171021
vt 0.970703 0.17041
vt 0.586914 0.005295
vt 0.587891 0.005295
vt 0.587891 0.004696
vt 0.588867 0.005295
vt 0.586914 0.004696
vt 0.588867 0.004696
vt 0.585938 0.005295
vt 0.589844 0.005295
vt 0.589844 0.004696
vt 0.591309 0.004696
vt 0.591309 0.005295
vt 0.592285 0.005295
vt 0.592285 0.004696
vt 0.59375 0.004696
vt 0.59375 0.005295
vt 0.594727 0.005295
vt 0.594727 0.004696
vt 0.595703 0.004696
vt 0.595703 0.005295
vt 0.597168 0.005295
vt 0.597168 0.004696
vt 0.598145 0.004696
vt 0.598145 0.005295
vt 0.599609 0.005295
vt 0.599609 0.004696
vt 0.600586 0.004696
vt 0.600586 0.005295
vt 0.601562 0.005295
vt 0.602051 0.004696
vt 0.603027 0.004696
vt 0.603027 0.005295
vt 0.604004 0.005295
vt 0.604004 0.004696
vt 0.605469 0.004696
vt 0.605469 0.005295
vt 0.606445 0.004696
vt 0.606445 0.005295
vt 0.60791 0.004696
vt 0.60791 0.005295
vt 0.585938 0.004696
vt 0.584961 0.004696
vt 0.584961 0.005295
vt 0.311768 0.778809
vt 0.556641 0.003929
vt 0.962891 0.238892
vt 0.978027 0.23877
vt 0.962891 0.240112
vt 0.978027 0.23999
vt 0.962891 0.241333
vt 0.978027 0.241211
vt 0.962891 0.242432
vt 0.978027 0.242432
vt 0.978027 0.243042
vt 0.962891 0.243042
vt 0.041718 0.092651
vt 0.042297 0.092651
vt 0.042297 0.087463
vt 0.041718 0.087158
vt 0.043488 0.092651
vt 0.043518 0.087463
vt 0.044678 0.092651
vt 0.044739 0.087463
vt 0.045868 0.092651
vt 0.045898 0.087341
vt 0.047119 0.092651
vt 0.047119 0.087219
vt 0.702637 0.392334
vt 0.702637 0.386963
vt 0.702148 0.386963
vt 0.702148 0.392334
vt 0.704102 0.392334
vt 0.704102 0.386963
vt 0.705078 0.392334
vt 0.705078 0.386963
vt 0.706543 0.392334
vt 0.706543 0.386963
vt 0.70752 0.392334
vt 0.70752 0.386963
vn 0.2603 0.9655 -0.0012
vn 0.0835 0.9965 -0.0011
vn -0.4635 0.8861 -0.0013
vn -0.9967 0.0812 0.0011
vn 0.2631 0.9648 -0.0012
vn -0.9967 0.0812 -0.0011
vn 0.2295 0.9733 0.0012
vn 0.0396 0.9992 0.001
vn 0.0333 0.9994 0.001
vn -0.5519 0.8339 -0.0014
vn -0.5456 0.838 0.0014
vn -0.9994 0.0334 -0.003
vn -0.9852 0.1712 0.0034
vn 0.1797 0.3868 -0.9045
vn 0.1792 0.3799 -0.9075
vn 0.1816 0.4111 -0.8933
vn 0.1821 0.418 -0.89
vn 0.9617 -0.2742 0
vn 0.8896 -0.4567 0
vn 0.9965 -0.0834 0
vn 0.7853 -0.6192 0
vn 0.7829 -0.6222 0
vn 0.994 0.109 0.0011
vn 0.6535 -0.7569 0
vn 0.9935 0.1138 -0.0011
vn 0.6476 -0.762 0
vn 0.9555 0.2949 -0.0012
vn 0.5025 -0.8646 0
vn 0.9528 0.3037 -0.0012
vn 0.4961 -0.8682 0
vn 0.3166 -0.9486 0
vn 0.3048 -0.9524 0
vn 0.8776 0.4793 -0.0013
vn 0.8759 0.4825 -0.0013
vn 0.7701 0.6379 -0.0014
vn 0.7652 0.6438 -0.0014
vn 0.6259 0.7799 -0.0014
vn 0.6228 0.7823 -0.0014
vn 0.4604 0.8877 -0.0013
vn 0.4572 0.8894 -0.0013
vn 0.9608 -0.2771 0
vn 0.994 0.109 -0.0011
vn 0.9938 0.1114 -0.0011
vn 0.4898 -0.8718 0
vn 0.4835 -0.8753 0
vn 0.3136 -0.9495 0
vn 0.8844 0.4667 -0.0013
vn 0.8811 0.473 -0.0013
vn 0.6168 0.7871 -0.0014
vn 0.6137 0.7895 -0.0014
vn 0.001 0.021 0.9998
vn 0 -0.001 1
vn -0.01 -0.0171 0.9998
vn 0.003 0.021 0.9998
vn -0.008 -0.0191 0.9998
vn 0.0074 0.0749 0.9972
vn -0.0344 -0.0677 0.9971
vn 0.0074 0.0772 0.997
vn -0.0011 0.1234 0.9924
vn -0.066 -0.1058 0.9922
vn 0.0033 0.1236 0.9923
vn -0.0637 -0.1081 0.9921
vn -0.0168 0.1401 0.99
vn -0.0883 -0.1104 0.99
vn -0.0168 0.1376 0.9903
vn -0.0858 -0.1102 0.9902
vn -0.0351 0.1325 0.9906
vn -0.0997 -0.0963 0.9903
vn -0.0376 0.1378 0.9897
vn -0.1048 -0.0966 0.9898
vn -0.0341 0.098 0.9946
vn -0.0661 -0.065 0.9957
vn -0.0318 0.0954 0.9949
vn -0.0636 -0.0625 0.996
vn -0.0285 0.0517 0.9983
vn -0.0503 -0.0241 0.9984
vn -0.0351 0.0564 0.9978
vn -0.0592 -0.0243 0.9979
vn -0.0069 0.0069 1
vn -0.021 0.001 0.9998
vn -0.0049 0.003 1
vn -0.019 0.005 0.9998
vn 0.604 0.5533 -0.5736
vn 0.1203 0.7561 -0.6432
vn 0.7862 0.4069 -0.4652
vn 0 -0.001 -1
vn 0.9123 -0.4096 0
vn 0.9771 -0.2129 0
vn 0.9995 -0.0312 0
vn 0.8084 -0.5886 0
vn 0.9866 0.1631 0.0011
vn 0.6854 -0.7282 0
vn 0.935 0.3546 -0.0013
vn 0.5308 -0.8475 0
vn 0.8481 0.5299 0.0013
vn 0.3557 -0.9346 0
vn 0.8481 0.5299 -0.0013
vn 0.1642 -0.9864 0
vn 0.7289 0.6846 -0.0014
vn 0.5799 0.8147 -0.0014
vn 0.5768 0.8169 -0.0014
vn 0.4163 0.9092 0.0013
vn 0.4132 0.9106 -0.0013
vn 0.1079 0.6728 0.7319
vn 0.6216 0.454 0.6383
vn 0.8473 0.266 0.4598
vn 0.1017 0.6734 -0.7323
vn 0.2553 0.6709 -0.6962
vn 0.3016 0.6661 -0.6822
vn 0.0942 0.5784 0.8103
vn 0.2775 0.5757 0.7691
vn 0.2319 0.5774 0.7828
vn 0.002 -0.0049 1
vn -0.0039 -0.0049 1
vn -0.0182 -0.0172 0.9997
vn -0.0267 -0.0257 0.9993
vn 0.001 0.0292 0.9996
vn -0.0234 0.0194 0.9995
vn 0.058 0.1693 0.9839
vn 0.1048 0.2159 0.9708
vn 0.1228 0.3171 0.9404
vn 0.1648 0.3563 0.9197
vn -0.0382 0.6643 -0.7465
vn -0.0348 0.57 0.8209
vn 0.002 -0.0049 -1
vn -0.0039 -0.0049 -1
vn -0.0182 -0.0172 -0.9997
vn -0.0267 -0.0257 -0.9993
vn 0.001 0.0292 -0.9996
vn -0.0255 0.0173 -0.9995
vn 0.0978 0.1918 -0.9765
vn 0.1394 0.1695 -0.9756
vn 0.0866 0.3397 -0.9365
vn 0.0744 0.3938 -0.9162
vn 0.9889 -0.1019 0.1078
vn 0.966 -0.2583 -0.0048
vn 0.9779 -0.2089 0.007
vn 0.9245 -0.3651 0.1094
vn -0.9404 0.3044 0.1515
vn -0.9307 0.3149 0.1861
vn -0.9746 0.2218 -0.03
vn -0.9764 0.206 -0.0646
vn -0.9861 0.1061 0.1276
vn -0.9859 0.099 0.1347
vn -0.9658 0.2588 -0.0182
vn -0.9603 0.277 -0.0335
vn -0.0905 -0.6378 0.7648
vn -0.285 -0.6323 0.7204
vn -0.2425 -0.6346 0.7338
vn 0.069 -0.6195 0.7819
vn 0.0565 -0.5632 -0.8244
vn -0.2063 -0.5836 -0.7854
vn -0.0866 -0.5786 -0.811
vn -0.2478 -0.5818 -0.7747
vn -0.0345 -0.07 0.997
vn -0.0879 -0.1053 0.9905
vn -0.0145 0.1398 0.9901
vn -0.0831 -0.1074 0.9907
vn -0.1076 -0.0721 0.9916
vn -0.0353 0.1401 0.9895
vn -0.1145 -0.0652 0.9913
vn -0.0341 0.0956 0.9948
vn -0.082 -0.0899 0.9926
vn -0.0296 0.0952 0.995
vn -0.0948 -0.0666 0.9933
vn -0.0763 -0.2081 0.9751
vn -0.0602 -0.2598 0.9638
vn -0.1326 -0.355 0.9254
vn -0.1313 -0.3843 0.9138
vn -0.1975 -0.3877 0.9004
vn -0.2041 -0.3893 0.8982
vn -0.2274 -0.3913 0.8918
vn -0.2277 -0.3948 0.8901
vn -0.097 -0.7333 0.673
vn -0.0908 -0.6751 -0.7322
vn -0.0302 -0.9995 0
vn -0.2361 -0.9717 0
vn -0.4112 -0.9116 0
vn -0.8259 -0.5638 0
vn -0.912 0.4101 -0.0013
vn -0.8894 0.4572 0.0013
vn -0.8238 -0.5669 0
vn -0.8825 -0.4704 0.0027
vn -0.8894 0.4572 -0.0013
vn -0.4582 -0.8888 0
vn -0.4498 -0.8931 0.0026
vn -0.2996 -0.9541 0.0025
vn -0.2937 -0.9559 0.0024
vn -0.0823 -0.9966 0
vn -0.0755 -0.9971 0
vn 0.1077 -0.9942 0
vn 0.1148 -0.9934 0
vn -0.812 -0.5837 0.0027
vn -0.8251 -0.565 -0.0027
vn -0.8931 0.4498 -0.0066
vn -0.9461 0.3237 0.0087
vn -0.4551 -0.8904 0
vn -0.2989 -0.9543 0
vn -0.08 -0.9968 0
vn 0.0983 -0.9952 0
vn 0.1007 -0.9949 0
o bullet_scaffold11__p1_c0
f 1/1/1 2/2/1 3/3/2
f 1/1/1 3/3/2 4/4/2
f 4/4/2 3/3/2 5/5/3
f 4/4/2 5/5/3 6/6/3
f 6/6/3 5/5/3 7/7/4
f 7/7/4 5/5/3 8/8/4
f 9/9/5 10/10/1 11/11/2
f 9/9/5 11/11/2 12/12/2
f 12/12/2 11/11/2 13/13/3
f 12/12/2 13/13/3 14/14/3
f 14/14/3 13/13/3 15/15/4
f 15/15/4 13/13/3 16/16/6
f 17/17/7 18/18/7 19/19/8
f 19/19/8 18/18/7 20/20/9
f 19/19/8 20/20/9 21/21/10
f 21/21/10 20/20/9 22/22/11
f 21/21/10 22/22/11 23/23/12
f 23/23/12 22/22/11 24/24/13
f 25/25/14 26/26/15 27/27/16
f 25/25/14 27/27/16 28/28/17
f 29/29/18 30/30/18 31/31/19
f 29/29/18 31/31/19 32/32/19
f 30/30/18 29/29/18 33/33/20
f 32/32/19 31/31/19 34/34/21
f 30/30/18 33/33/20 35/35/20
f 32/32/19 34/34/21 36/36/22
f 35/35/20 33/33/20 37/37/23
f 36/36/22 34/34/21 38/38/24
f 37/37/23 33/33/20 39/39/25
f 36/36/22 38/38/24 40/40/26
f 37/37/23 39/39/25 41/41/27
f 40/40/26 38/38/24 42/42/28
f 41/41/27 39/39/25 43/43/29
f 40/40/26 42/42/28 44/44/30
f 44/44/30 42/42/28 45/45/31
f 44/44/30 45/45/31 46/46/32
f 41/41/27 43/43/29 47/47/33
f 47/47/33 43/43/29 48/48/34
f 47/47/33 48/48/34 49/49/35
f 49/49/35 48/48/34 50/50/36
f 49/49/35 50/50/36 51/51/37
f 51/51/37 50/50/36 52/52/38
f 51/51/37 52/52/38 53/53/39
f 53/53/39 52/52/38 54/54/40
f 53/53/39 54/54/40 2/2/1
f 53/53/39 2/2/1 1/1/1
f 55/55/41 56/56/41 57/57/19
f 55/55/41 57/57/19 58/58/19
f 56/56/41 55/55/41 59/59/20
f 58/58/19 57/57/19 60/60/21
f 56/56/41 59/59/20 61/61/20
f 58/58/19 60/60/21 62/62/22
f 61/61/20 59/59/20 63/63/42
f 62/62/22 60/60/21 64/64/24
f 63/63/42 59/59/20 65/65/43
f 62/62/22 64/64/24 66/66/26
f 63/63/42 65/65/43 67/67/27
f 66/66/26 64/64/24 68/68/44
f 67/67/27 65/65/43 69/69/29
f 66/66/26 68/68/44 70/70/45
f 70/70/45 68/68/44 71/71/46
f 70/70/45 71/71/46 72/72/32
f 67/67/27 69/69/29 73/73/47
f 73/73/47 69/69/29 74/74/48
f 73/73/47 74/74/48 75/75/35
f 75/75/35 74/74/48 76/76/36
f 75/75/35 76/76/36 77/77/49
f 77/77/49 76/76/36 78/78/50
f 77/77/49 78/78/50 79/79/39
f 79/79/39 78/78/50 80/80/40
f 79/79/39 80/80/40 10/10/1
f 79/79/39 10/10/1 9/9/5
f 81/81/51 82/82/52 30/83/52
f 30/83/52 82/82/52 83/84/53
f 81/81/51 30/83/52 35/85/54
f 30/83/52 83/84/53 31/86/55
f 81/81/51 35/85/54 84/87/56
f 31/86/55 83/84/53 85/88/57
f 84/87/56 35/85/54 37/89/58
f 31/86/55 85/88/57 34/90/57
f 84/87/56 37/89/58 41/91/59
f 34/90/57 85/88/57 38/92/60
f 84/87/56 41/91/59 86/93/61
f 38/92/60 85/88/57 87/94/62
f 86/93/61 41/91/59 88/95/63
f 38/92/60 87/94/62 89/96/64
f 88/95/63 41/91/59 47/97/65
f 38/92/60 89/96/64 42/98/66
f 88/95/63 47/97/65 49/99/67
f 42/98/66 89/96/64 45/100/68
f 88/95/63 49/99/67 90/101/69
f 45/100/68 89/96/64 91/102/70
f 90/101/69 49/99/67 92/103/71
f 45/100/68 91/102/70 93/104/72
f 92/103/71 49/99/67 51/105/73
f 45/100/68 93/104/72 94/106/74
f 92/103/71 51/105/73 53/107/75
f 94/106/74 93/104/72 95/108/76
f 92/103/71 53/107/75 96/109/77
f 95/108/76 93/104/72 97/110/78
f 96/109/77 53/107/75 98/111/79
f 95/108/76 97/110/78 99/112/80
f 98/111/79 53/107/75 1/113/81
f 95/108/76 99/112/80 100/114/82
f 98/111/79 1/113/81 4/115/52
f 100/114/82 99/112/80 101/116/52
f 98/111/79 4/115/52 102/117/52
f 102/117/52 4/115/52 6/118/52
f 102/117/52 6/118/52 7/119/52
f 101/116/52 99/112/80 103/120/52
f 101/116/52 103/120/52 104/121/52
f 104/121/52 103/120/52 105/122/52
f 17/123/83 19/124/84 106/125/85
f 107/126/86 108/127/86 109/128/86
f 107/126/86 109/128/86 110/129/86
f 108/127/86 107/126/86 111/130/86
f 108/127/86 111/130/86 112/131/86
f 112/131/86 111/130/86 113/132/86
f 113/132/86 111/130/86 114/133/86
f 113/132/86 114/133/86 115/134/86
f 113/132/86 115/134/86 116/135/86
f 116/135/86 115/134/86 117/136/86
f 116/135/86 117/136/86 72/137/86
f 72/137/86 117/136/86 70/138/86
f 70/138/86 117/136/86 118/139/86
f 70/138/86 118/139/86 119/140/86
f 70/138/86 119/140/86 66/141/86
f 66/141/86 119/140/86 62/142/86
f 62/142/86 119/140/86 120/143/86
f 62/142/86 120/143/86 121/144/86
f 62/142/86 121/144/86 58/145/86
f 58/145/86 121/144/86 55/146/86
f 55/146/86 121/144/86 122/147/86
f 55/146/86 122/147/86 123/148/86
f 55/146/86 123/148/86 59/149/86
f 59/149/86 123/148/86 65/150/86
f 65/150/86 123/148/86 124/151/86
f 65/150/86 124/151/86 125/152/86
f 65/150/86 125/152/86 69/153/86
f 69/153/86 125/152/86 74/154/86
f 74/154/86 125/152/86 126/155/86
f 74/154/86 126/155/86 127/156/86
f 74/154/86 127/156/86 76/157/86
f 76/157/86 127/156/86 78/158/86
f 78/158/86 127/156/86 128/159/86
f 78/158/86 128/159/86 129/160/86
f 78/158/86 129/160/86 80/161/86
f 80/161/86 129/160/86 10/162/86
f 10/162/86 129/160/86 130/163/86
f 10/162/86 130/163/86 11/164/86
f 11/164/86 130/163/86 131/165/86
f 11/164/86 131/165/86 13/166/86
f 13/166/86 131/165/86 16/167/86
f 132/168/87 133/169/88 134/170/88
f 132/168/87 134/170/88 135/171/87
f 134/170/88 133/169/88 136/172/89
f 132/168/87 135/171/87 137/173/90
f 136/172/89 133/169/88 138/174/89
f 132/168/87 137/173/90 139/175/90
f 136/172/89 138/174/89 140/176/91
f 139/175/90 137/173/90 141/177/92
f 136/172/89 140/176/91 142/178/91
f 141/177/92 137/173/90 143/179/92
f 142/178/91 140/176/91 144/180/93
f 141/177/92 143/179/92 145/181/94
f 142/178/91 144/180/93 146/182/93
f 145/181/94 143/179/92 147/183/94
f 146/182/93 144/180/93 148/184/95
f 145/181/94 147/183/94 149/185/96
f 148/184/95 144/180/93 150/186/97
f 149/185/96 147/183/94 151/187/96
f 149/185/96 151/187/96 152/188/98
f 152/188/98 151/187/96 153/189/98
f 148/184/95 150/186/97 154/190/99
f 154/190/99 150/186/97 155/191/99
f 154/190/99 155/191/99 156/192/100
f 156/192/100 155/191/99 157/193/101
f 156/192/100 157/193/101 158/194/102
f 156/192/100 158/194/102 159/195/103
f 159/195/103 158/194/102 17/17/7
f 17/17/7 158/194/102 18/18/7
f 20/196/104 18/197/105 25/198/106
f 19/124/107 160/199/108 106/125/109
f 20/196/110 25/198/111 28/200/112
f 161/201/52 162/202/52 106/203/52
f 161/201/52 106/203/52 160/204/52
f 153/205/52 163/206/52 164/207/52
f 163/206/52 153/205/52 165/208/52
f 153/205/52 164/207/52 166/209/52
f 165/208/52 153/205/52 151/210/52
f 166/209/52 164/207/52 167/211/52
f 165/208/52 151/210/52 147/212/52
f 167/211/52 164/207/52 168/213/52
f 165/208/52 147/212/52 169/214/52
f 167/211/52 168/213/52 170/215/52
f 169/214/52 147/212/52 171/216/52
f 170/215/52 168/213/52 172/217/52
f 170/215/52 172/217/52 173/218/52
f 173/218/52 172/217/52 174/219/52
f 171/216/52 147/212/52 143/220/52
f 171/216/52 143/220/52 137/221/52
f 171/216/52 137/221/52 175/222/52
f 175/222/52 137/221/52 176/223/52
f 176/223/52 137/221/52 135/224/52
f 176/223/52 135/224/52 134/225/52
f 176/223/52 134/225/52 177/226/52
f 177/226/52 134/225/52 178/227/52
f 178/227/52 134/225/52 136/228/52
f 178/227/52 136/228/52 142/229/52
f 178/227/52 142/229/52 179/230/52
f 179/230/52 142/229/52 180/231/52
f 180/231/52 142/229/52 146/232/52
f 180/231/52 146/232/52 148/233/113
f 180/231/52 148/233/113 181/234/114
f 181/234/114 148/233/113 154/235/115
f 181/234/114 154/235/115 182/236/116
f 182/236/116 154/235/115 183/237/117
f 183/237/117 154/235/115 156/238/118
f 183/237/117 156/238/118 159/239/119
f 183/237/117 159/239/119 184/240/120
f 184/240/120 159/239/119 17/241/121
f 184/240/120 17/241/121 185/242/122
f 21/243/123 160/199/108 19/124/107
f 20/196/110 28/200/112 22/244/124
f 152/245/86 186/246/86 187/247/86
f 187/247/86 186/246/86 188/248/86
f 152/245/86 187/247/86 189/249/86
f 187/247/86 188/248/86 190/250/86
f 152/245/86 189/249/86 191/251/86
f 190/250/86 188/248/86 192/252/86
f 152/245/86 191/251/86 149/253/86
f 190/250/86 192/252/86 193/254/86
f 193/254/86 192/252/86 194/255/86
f 193/254/86 194/255/86 195/256/86
f 149/253/86 191/251/86 145/257/86
f 145/257/86 191/251/86 196/258/86
f 145/257/86 196/258/86 197/259/86
f 145/257/86 197/259/86 141/260/86
f 141/260/86 197/259/86 139/261/86
f 139/261/86 197/259/86 198/262/86
f 139/261/86 198/262/86 199/263/86
f 139/261/86 199/263/86 132/264/86
f 132/264/86 199/263/86 133/265/86
f 133/265/86 199/263/86 200/266/86
f 133/265/86 200/266/86 201/267/86
f 133/265/86 201/267/86 138/268/86
f 138/268/86 201/267/86 140/269/86
f 140/269/86 201/267/86 202/270/86
f 140/269/86 202/270/86 203/271/86
f 140/269/86 203/271/86 144/272/86
f 144/272/86 203/271/86 150/273/125
f 150/273/125 203/271/86 204/274/126
f 150/273/125 204/274/126 155/275/127
f 155/275/127 204/274/126 205/276/128
f 155/275/127 205/276/128 206/277/129
f 155/275/127 206/277/129 157/278/130
f 157/278/130 206/277/129 158/279/131
f 158/279/131 206/277/129 207/280/132
f 158/279/131 207/280/132 208/281/133
f 158/279/131 208/281/133 18/282/134
f 25/198/106 18/197/105 26/283/135
f 26/283/135 18/197/105 208/284/136
f 17/123/83 106/125/85 162/285/137
f 17/123/83 162/285/137 185/286/138
f 28/200/139 27/287/140 24/288/141
f 28/200/139 24/288/141 22/244/142
f 21/243/143 23/289/144 161/290/145
f 21/243/143 161/290/145 160/199/146
f 209/291/147 162/202/148 161/201/149
f 209/291/147 161/201/149 23/292/150
f 24/293/151 27/27/152 210/294/153
f 210/294/153 27/27/152 26/26/154
f 211/295/51 212/296/52 56/297/52
f 56/297/52 212/296/52 213/298/55
f 211/295/51 56/297/52 61/299/54
f 56/297/52 213/298/55 57/300/55
f 211/295/51 61/299/54 214/301/56
f 57/300/55 213/298/55 215/302/57
f 214/301/56 61/299/54 63/303/58
f 57/300/55 215/302/57 60/304/155
f 214/301/56 63/303/58 67/305/59
f 60/304/155 215/302/57 64/306/60
f 214/301/56 67/305/59 216/307/61
f 64/306/60 215/302/57 217/308/62
f 216/307/61 67/305/59 218/309/63
f 64/306/60 217/308/62 219/310/156
f 218/309/63 67/305/59 73/311/157
f 64/306/60 219/310/156 68/312/158
f 218/309/63 73/311/157 75/313/67
f 68/312/158 219/310/156 71/314/159
f 218/309/63 75/313/67 220/315/160
f 71/314/159 219/310/156 221/316/161
f 220/315/160 75/313/67 222/317/162
f 71/314/159 221/316/161 223/318/163
f 222/317/162 75/313/67 77/319/164
f 71/314/159 223/318/163 224/320/165
f 222/317/162 77/319/164 79/321/75
f 224/320/165 223/318/163 225/322/166
f 222/317/162 79/321/75 226/323/77
f 225/322/166 223/318/163 227/324/167
f 226/323/77 79/321/75 228/325/79
f 225/322/166 227/324/167 229/326/168
f 228/325/79 79/321/75 9/327/81
f 229/326/168 227/324/167 230/328/169
f 228/325/79 9/327/81 12/329/52
f 229/326/168 230/328/169 231/330/170
f 228/325/79 12/329/52 232/331/52
f 232/331/52 12/329/52 14/332/52
f 232/331/52 14/332/52 15/333/52
f 231/330/170 230/328/169 233/334/171
f 231/330/170 233/334/171 234/335/172
f 234/335/172 233/334/171 235/336/173
f 236/337/86 237/338/86 238/339/86
f 238/339/86 237/338/86 239/340/86
f 236/337/86 238/339/86 240/341/86
f 238/339/86 239/340/86 241/342/86
f 236/337/86 240/341/86 242/343/86
f 241/342/86 239/340/86 243/344/86
f 241/342/86 243/344/86 46/345/86
f 46/345/86 243/344/86 44/346/86
f 44/346/86 243/344/86 244/347/86
f 44/346/86 244/347/86 245/348/86
f 44/346/86 245/348/86 40/349/86
f 40/349/86 245/348/86 36/350/86
f 36/350/86 245/348/86 246/351/86
f 36/350/86 246/351/86 247/352/86
f 36/350/86 247/352/86 32/353/86
f 32/353/86 247/352/86 29/354/86
f 29/354/86 247/352/86 248/355/86
f 29/354/86 248/355/86 249/356/86
f 29/354/86 249/356/86 33/357/86
f 33/357/86 249/356/86 39/358/86
f 39/358/86 249/356/86 250/359/86
f 39/358/86 250/359/86 251/360/86
f 39/358/86 251/360/86 43/361/86
f 43/361/86 251/360/86 48/362/86
f 48/362/86 251/360/86 252/363/86
f 48/362/86 252/363/86 253/364/86
f 48/362/86 253/364/86 50/365/86
f 50/365/86 253/364/86 52/366/86
f 52/366/86 253/364/86 254/367/86
f 52/366/86 254/367/86 255/368/86
f 52/366/86 255/368/86 54/369/86
f 54/369/86 255/368/86 2/370/86
f 2/370/86 255/368/86 256/371/86
f 2/370/86 256/371/86 3/372/86
f 3/372/86 256/371/86 257/373/86
f 3/372/86 257/373/86 5/374/86
f 5/374/86 257/373/86 8/375/86
f 258/376/86 259/377/86 240/341/86
f 240/341/86 259/377/86 242/343/86
f 242/343/86 259/377/86 260/378/86
f 185/379/174 162/202/174 209/291/174
f 208/380/175 210/294/175 26/26/175
f 166/381/176 186/382/176 152/188/98
f 166/381/176 152/188/98 153/189/98
f 186/382/176 166/381/176 167/383/177
f 186/382/176 167/383/177 188/384/177
f 188/384/177 167/383/177 170/385/178
f 188/384/177 170/385/178 192/386/178
f 192/386/178 170/385/178 173/387/179
f 192/386/178 173/387/179 194/388/179
f 194/388/179 173/387/179 195/389/180
f 195/389/180 173/387/179 174/390/180
f 110/391/181 109/392/182 234/393/183
f 110/391/181 234/393/183 235/394/184
f 234/393/183 109/392/182 108/395/185
f 234/393/183 108/395/185 231/396/186
f 231/396/186 108/395/185 112/397/187
f 231/396/186 112/397/187 229/398/188
f 229/398/188 112/397/187 113/399/189
f 229/398/188 113/399/189 225/400/190
f 225/400/190 113/399/189 116/401/191
f 225/400/190 116/401/191 224/402/192
f 224/402/192 116/401/191 72/72/32
f 224/402/192 72/72/32 71/71/46
f 259/403/193 104/404/194 105/405/195
f 259/403/193 105/405/195 260/406/196
f 104/404/194 259/403/193 258/407/197
f 104/404/194 258/407/197 101/408/185
f 101/408/185 258/407/197 240/409/198
f 101/408/185 240/409/198 100/410/198
f 100/410/198 240/409/198 238/411/189
f 100/410/198 238/411/189 95/412/199
f 95/412/199 238/411/189 241/413/200
f 95/412/199 241/413/200 94/414/201
f 94/414/201 241/413/200 46/46/32
f 94/414/201 46/46/32 45/45/31
