# CS2 body mesh, tools/cs2_glb_to_obj.py
v 0.04926 -0.05459 0.03688
v 0.04926 -0.05459 0.04225
v 0.04798 -0.05444 0.04225
v 0.04798 -0.05444 0.03688
v 0.04839 -0.05645 0.03313
v 0.0474 -0.05623 0.03313
v 0.04941 -0.05647 0.03313
v 0.05041 -0.05629 0.03313
v 0.05041 -0.05629 -0.00212
v 0.04941 -0.05647 -0.00212
v 0.04839 -0.05645 -0.00212
v 0.0474 -0.05623 -0.00212
v 0.04764 -0.05549 -0.00294
v 0.04935 -0.05569 -0.00294
v 0.051 -0.05523 -0.00294
v 0.04764 -0.05549 -0.00404
v 0.04935 -0.05569 -0.00404
v 0.04839 -0.05645 -0.00433
v 0.0474 -0.05623 -0.00433
v 0.0474 -0.05623 -0.00538
v 0.04839 -0.05645 -0.00538
v 0.04941 -0.05647 -0.00538
v 0.04941 -0.05647 -0.00433
v 0.05041 -0.05629 -0.00433
v 0.05041 -0.05629 -0.00538
v 0.051 -0.05523 -0.00404
v 0.05135 -0.05592 -0.00433
v 0.05221 -0.05537 -0.00433
v 0.05235 -0.05416 -0.00404
v 0.05415 -0.05191 -0.00212
v 0.05415 -0.05191 0.03313
v 0.05393 -0.0529 0.03313
v 0.05214 -0.05232 0.03688
v 0.05393 -0.0529 -0.00212
v 0.05352 -0.05383 0.03313
v 0.05319 -0.05266 -0.00294
v 0.05352 -0.05383 -0.00212
v 0.05294 -0.05467 0.03313
v 0.05151 -0.05344 0.03688
v 0.05294 -0.05467 -0.00212
v 0.05235 -0.05416 -0.00294
v 0.05221 -0.05537 0.03313
v 0.05151 -0.05344 0.04225
v 0.05214 -0.05232 0.04225
v 0.0505 -0.05424 0.04225
v 0.05229 -0.05104 0.03688
v 0.05229 -0.05104 0.04225
v 0.0505 -0.05424 0.03688
v 0.05194 -0.04981 0.03688
v 0.05135 -0.05592 0.03313
v 0.05194 -0.04981 0.04225
v 0.05221 -0.05537 -0.00212
v 0.04633 -0.05043 0.04225
v 0.04686 -0.04948 0.04225
v 0.04649 -0.04916 0.04225
v 0.0475 -0.04836 0.04225
v 0.04587 -0.05028 0.04225
v 0.04772 -0.0488 0.04225
v 0.0462 -0.05152 0.04225
v 0.04874 -0.04802 0.04225
v 0.04571 -0.05156 0.04225
v 0.04878 -0.0485 0.04225
v 0.0465 -0.05258 0.04225
v 0.05002 -0.04817 0.04225
v 0.04606 -0.0528 0.04225
v 0.04987 -0.04863 0.04225
v 0.04717 -0.05344 0.04225
v 0.05114 -0.0488 0.04225
v 0.04686 -0.05381 0.04225
v 0.04813 -0.05398 0.04225
v 0.05083 -0.04916 0.04225
v 0.05151 -0.05003 0.04225
v 0.05181 -0.05108 0.04225
v 0.05168 -0.05217 0.04225
v 0.05114 -0.05313 0.04225
v 0.05028 -0.05381 0.04225
v 0.04922 -0.05411 0.04225
v 0.05339 -0.05273 -0.00567
v 0.0536 -0.05094 -0.00567
v 0.05415 -0.05191 -0.00538
v 0.05417 -0.0509 -0.00538
v 0.05393 -0.0529 -0.00538
v 0.05399 -0.0499 -0.00538
v 0.05352 -0.05383 -0.00538
v 0.05311 -0.04921 -0.00567
v 0.05251 -0.0543 -0.00567
v 0.05362 -0.04895 -0.00538
v 0.05294 -0.05467 -0.00538
v 0.05307 -0.0481 -0.00538
v 0.05221 -0.05537 -0.00538
v 0.0511 -0.05542 -0.00567
v 0.05135 -0.05592 -0.00538
v 0.052 -0.04779 -0.00567
v 0.05237 -0.04736 -0.00538
v 0.05153 -0.04678 -0.00538
v 0.04917 -0.05349 -0.00521
v 0.04915 -0.05322 -0.00581
v 0.04988 -0.05302 -0.00581
v 0.05 -0.05326 -0.00521
v 0.05047 -0.05255 -0.00581
v 0.05067 -0.05273 -0.00521
v 0.05083 -0.0519 -0.00581
v 0.05109 -0.05198 -0.00521
v 0.05092 -0.05115 -0.00581
v 0.05119 -0.05113 -0.00521
v 0.05072 -0.05043 -0.00581
v 0.05096 -0.05031 -0.00521
v 0.05025 -0.04984 -0.00581
v 0.05043 -0.04963 -0.00521
v 0.0496 -0.04947 -0.00581
v 0.04968 -0.04922 -0.00521
v 0.05161 -0.05057 0.04496
v 0.05033 -0.04894 0.04496
v 0.05008 -0.04938 0.04964
v 0.05137 -0.05263 0.04496
v 0.05113 -0.0507 0.04964
v 0.04966 -0.05014 0.05351
v 0.04974 -0.05391 0.04496
v 0.05093 -0.05238 0.04964
v 0.0496 -0.05343 0.04964
v 0.05029 -0.05094 0.05351
v 0.04937 -0.05064 0.05485
v 0.05017 -0.05196 0.05351
v 0.04937 -0.05259 0.05351
v 0.04973 -0.0511 0.05485
v 0.049 -0.0513 0.05535
v 0.04966 -0.05167 0.05485
v 0.04921 -0.05203 0.05485
v 0.04758 -0.05297 -0.00521
v 0.04775 -0.05277 -0.00581
v 0.04841 -0.05313 -0.00581
v 0.04832 -0.05339 -0.00521
v 0.04705 -0.0523 -0.00521
v 0.04872 -0.05217 -0.00581
v 0.04729 -0.05218 -0.00581
v 0.04682 -0.05147 -0.00521
v 0.04819 -0.05172 -0.00581
v 0.04942 -0.05212 -0.00581
v 0.049 -0.0513 -0.00548
v 0.04708 -0.05145 -0.00581
v 0.04813 -0.05102 -0.00581
v 0.04692 -0.05063 -0.00521
v 0.04987 -0.05159 -0.00581
v 0.04717 -0.05071 -0.00581
v 0.04733 -0.04988 -0.00521
v 0.04754 -0.05005 -0.00581
v 0.04859 -0.05049 -0.00581
v 0.04801 -0.04935 -0.00521
v 0.04982 -0.05089 -0.00581
v 0.04928 -0.05043 -0.00581
v 0.04885 -0.04938 -0.00581
v 0.04813 -0.04959 -0.00581
v 0.04883 -0.04912 -0.00521
v 0.04879 -0.04866 -0.00567
v 0.0478 -0.04894 -0.00567
v 0.04982 -0.04878 -0.00567
v 0.05073 -0.04928 -0.00567
v 0.04864 -0.0467 -0.00567
v 0.04691 -0.04719 -0.00567
v 0.05043 -0.04691 -0.00567
v 0.05137 -0.0501 -0.00567
v 0.0506 -0.04638 -0.00538
v 0.04961 -0.04616 -0.00538
v 0.0486 -0.04614 -0.00538
v 0.0476 -0.04632 -0.00538
v 0.04665 -0.04669 -0.00538
v 0.04579 -0.04723 -0.00538
v 0.04549 -0.0483 -0.00567
v 0.04506 -0.04794 -0.00538
v 0.04698 -0.04958 -0.00567
v 0.04448 -0.04877 -0.00538
v 0.04461 -0.04988 -0.00567
v 0.04408 -0.0497 -0.00538
v 0.04648 -0.05048 -0.00567
v 0.04386 -0.05069 -0.00538
v 0.0444 -0.05167 -0.00567
v 0.04384 -0.05171 -0.00538
v 0.04636 -0.05151 -0.00567
v 0.04402 -0.05271 -0.00538
v 0.04489 -0.0534 -0.00567
v 0.04439 -0.05365 -0.00538
v 0.04664 -0.05251 -0.00567
v 0.04493 -0.05451 -0.00538
v 0.046 -0.05481 -0.00567
v 0.04564 -0.05524 -0.00538
v 0.04728 -0.05332 -0.00567
v 0.04647 -0.05582 -0.00538
v 0.04758 -0.05569 -0.00567
v 0.04818 -0.05383 -0.00567
v 0.04936 -0.0559 -0.00567
v 0.04921 -0.05395 -0.00567
v 0.05021 -0.05367 -0.00567
v 0.05102 -0.05303 -0.00567
v 0.05153 -0.05212 -0.00567
v 0.05165 -0.05109 -0.00567
v 0.04768 -0.05367 0.04496
v 0.04792 -0.05323 0.04964
v 0.04835 -0.05247 0.05351
v 0.04863 -0.05196 0.05485
v 0.0488 -0.05058 0.05485
v 0.04864 -0.05001 0.05351
v 0.04834 -0.05093 0.05485
v 0.04828 -0.05151 0.05485
v 0.04783 -0.05065 0.05351
v 0.0484 -0.04918 0.04964
v 0.04771 -0.05167 0.05351
v 0.04827 -0.04869 0.04496
v 0.04707 -0.05022 0.04964
v 0.04664 -0.04998 0.04496
v 0.04688 -0.0519 0.04964
v 0.04639 -0.05204 0.04496
v 0.05186 -0.04796 -0.00404
v 0.05153 -0.04678 -0.00433
v 0.05036 -0.04712 -0.00404
v 0.0506 -0.04638 -0.00433
v 0.04961 -0.04616 -0.00433
v 0.0486 -0.04614 -0.00433
v 0.04866 -0.04691 -0.00404
v 0.0476 -0.04632 -0.00433
v 0.04866 -0.04691 -0.00294
v 0.04665 -0.04669 -0.00433
v 0.05036 -0.04712 -0.00294
v 0.047 -0.04738 -0.00404
v 0.04579 -0.04723 -0.00433
v 0.04506 -0.04794 -0.00433
v 0.047 -0.04738 -0.00294
v 0.04565 -0.04844 -0.00404
v 0.04448 -0.04877 -0.00433
v 0.04408 -0.0497 -0.00433
v 0.04565 -0.04844 -0.00294
v 0.04481 -0.04994 -0.00404
v 0.04386 -0.05069 -0.00433
v 0.04384 -0.05171 -0.00433
v 0.04481 -0.04994 -0.00294
v 0.04461 -0.05165 -0.00404
v 0.04402 -0.05271 -0.00433
v 0.04439 -0.05365 -0.00433
v 0.04461 -0.05165 -0.00294
v 0.04508 -0.0533 -0.00404
v 0.04493 -0.05451 -0.00433
v 0.04564 -0.05524 -0.00433
v 0.04508 -0.0533 -0.00294
v 0.04614 -0.05465 -0.00404
v 0.04647 -0.05582 -0.00433
v 0.04614 -0.05465 -0.00294
v 0.04647 -0.05582 -0.00212
v 0.04647 -0.05582 0.03313
v 0.04686 -0.05381 0.03688
v 0.04564 -0.05524 0.03313
v 0.04606 -0.0528 0.03688
v 0.04564 -0.05524 -0.00212
v 0.04493 -0.05451 0.03313
v 0.04493 -0.05451 -0.00212
v 0.04571 -0.05156 0.03688
v 0.04439 -0.05365 0.03313
v 0.04402 -0.05271 0.03313
v 0.04439 -0.05365 -0.00212
v 0.04402 -0.05271 -0.00212
v 0.04384 -0.05171 0.03313
v 0.04587 -0.05029 0.03688
v 0.04386 -0.05069 0.03313
v 0.04384 -0.05171 -0.00212
v 0.04386 -0.05069 -0.00212
v 0.0465 -0.04916 0.03688
v 0.04408 -0.0497 0.03313
v 0.04449 -0.04877 0.03313
v 0.04408 -0.0497 -0.00212
v 0.04448 -0.04877 -0.00212
v 0.04507 -0.04794 0.03313
v 0.0475 -0.04836 0.03688
v 0.04579 -0.04723 0.03313
v 0.04506 -0.04794 -0.00212
v 0.04579 -0.04723 -0.00212
v 0.04874 -0.04802 0.03688
v 0.04665 -0.04669 0.03313
v 0.05002 -0.04817 0.03688
v 0.0476 -0.04632 0.03313
v 0.04665 -0.04669 -0.00212
v 0.0476 -0.04632 -0.00212
v 0.0486 -0.04614 0.03313
v 0.04961 -0.04616 0.03313
v 0.0506 -0.04638 0.03313
v 0.0486 -0.04614 -0.00212
v 0.04961 -0.04616 -0.00212
v 0.0506 -0.04638 -0.00212
v 0.05135 -0.05592 -0.00212
v 0.05319 -0.05266 -0.00404
v 0.05339 -0.05096 -0.00294
v 0.05352 -0.05383 -0.00433
v 0.05294 -0.05467 -0.00433
v 0.05393 -0.0529 -0.00433
v 0.05415 -0.05191 -0.00433
v 0.05339 -0.05096 -0.00404
v 0.05417 -0.0509 -0.00433
v 0.05399 -0.0499 -0.00433
v 0.05362 -0.04895 -0.00433
v 0.05292 -0.0493 -0.00404
v 0.05307 -0.0481 -0.00433
v 0.05292 -0.0493 -0.00294
v 0.05237 -0.04736 -0.00433
v 0.05186 -0.04796 -0.00294
v 0.05153 -0.04678 -0.00212
v 0.05307 -0.0481 -0.00212
v 0.05237 -0.04736 -0.00212
v 0.05153 -0.04678 0.03313
v 0.05237 -0.04736 0.03313
v 0.05114 -0.0488 0.03688
v 0.05307 -0.0481 0.03313
v 0.05362 -0.04895 0.03313
v 0.05362 -0.04895 -0.00212
v 0.05399 -0.0499 0.03313
v 0.05399 -0.0499 -0.00212
v 0.05417 -0.0509 0.03313
v 0.05417 -0.0509 -0.00212
vt 0.757324 0.946777
vt 0.757324 0.940918
vt 0.755859 0.940918
vt 0.755859 0.946777
vt 0.753906 0.95166
vt 0.752441 0.95166
vt 0.754883 0.95166
vt 0.755859 0.95166
vt 0.755859 0.992676
vt 0.754883 0.992676
vt 0.753906 0.992676
vt 0.752441 0.992676
vt 0.752441 0.993652
vt 0.754395 0.993652
vt 0.756836 0.993652
vt 0.751953 0.995117
vt 0.754395 0.995117
vt 0.75293 0.996094
vt 0.751465 0.996094
vt 0.751465 0.997559
vt 0.752441 0.997559
vt 0.753906 0.997559
vt 0.753906 0.996094
vt 0.754883 0.996094
vt 0.754883 0.997559
vt 0.756348 0.995117
vt 0.756348 0.996094
vt 0.757324 0.996094
vt 0.758789 0.995117
vt 0.762695 0.992676
vt 0.762695 0.95166
vt 0.76123 0.95166
vt 0.762207 0.946777
vt 0.76123 0.992676
vt 0.760254 0.95166
vt 0.76123 0.993652
vt 0.760254 0.992676
vt 0.759277 0.95166
vt 0.760742 0.946777
vt 0.759277 0.992676
vt 0.758789 0.993652
vt 0.758301 0.95166
vt 0.760742 0.940918
vt 0.762207 0.940918
vt 0.758789 0.940918
vt 0.76416 0.946777
vt 0.76416 0.940918
vt 0.758789 0.946777
vt 0.766113 0.946777
vt 0.756836 0.95166
vt 0.766113 0.940918
vt 0.758301 0.992676
vt 0.110779 0.089966
vt 0.110779 0.088318
vt 0.110291 0.088318
vt 0.110291 0.086609
vt 0.110291 0.089966
vt 0.110779 0.086609
vt 0.110779 0.091614
vt 0.110291 0.0849
vt 0.110291 0.091553
vt 0.110779 0.0849
vt 0.110779 0.09314
vt 0.110291 0.083191
vt 0.110291 0.093079
vt 0.110779 0.083191
vt 0.110779 0.094604
vt 0.110291 0.081482
vt 0.110291 0.094543
vt 0.110779 0.095947
vt 0.110291 0.096008
vt 0.110779 0.081482
vt 0.110291 0.079773
vt 0.110779 0.079773
vt 0.110291 0.078064
vt 0.110779 0.078064
vt 0.110291 0.076416
vt 0.110779 0.076416
vt 0.110291 0.074829
vt 0.110779 0.074829
vt 0.110291 0.073364
vt 0.110779 0.073303
vt 0.110291 0.071899
vt 0.110779 0.071838
vt 0.110291 0.070435
vt 0.110779 0.070496
vt 0.511719 0.199585
vt 0.512207 0.197388
vt 0.51123 0.198364
vt 0.51123 0.197144
vt 0.510742 0.199585
vt 0.511719 0.196045
vt 0.51123 0.200806
vt 0.513184 0.195679
vt 0.512207 0.20166
vt 0.512695 0.195068
vt 0.51123 0.202026
vt 0.513672 0.194336
vt 0.512207 0.203003
vt 0.513184 0.203491
vt 0.512695 0.203979
vt 0.515137 0.194336
vt 0.514648 0.193726
vt 0.515625 0.193359
vt 0.516113 0.202026
vt 0.516602 0.201416
vt 0.515625 0.200928
vt 0.515137 0.201416
vt 0.515137 0.200317
vt 0.514648 0.200562
vt 0.515137 0.199585
vt 0.514648 0.199585
vt 0.515137 0.19873
vt 0.514648 0.198486
vt 0.515625 0.19812
vt 0.515137 0.197632
vt 0.516602 0.197632
vt 0.516113 0.197021
vt 0.51709 0.19751
vt 0.51709 0.196777
vt 0.0625 0.016693
vt 0.061157 0.016693
vt 0.060089 0.019485
vt 0.059723 0.016693
vt 0.057526 0.019424
vt 0.058289 0.016693
vt 0.056824 0.016693
vt 0.057465 0.024323
vt 0.062561 0.019669
vt 0.063843 0.016693
vt 0.059387 0.024429
vt 0.057404 0.028503
vt 0.065063 0.016693
vt 0.06488 0.019989
vt 0.066223 0.016693
vt 0.061218 0.024765
vt 0.062927 0.025345
vt 0.058441 0.028595
vt 0.057404 0.029953
vt 0.059448 0.02887
vt 0.060303 0.029358
vt 0.057922 0.030029
vt 0.057373 0.030884
vt 0.058411 0.030212
vt 0.058807 0.030533
vt 0.518066 0.201904
vt 0.518066 0.201416
vt 0.51709 0.201538
vt 0.51709 0.202148
vt 0.519043 0.201416
vt 0.51709 0.200439
vt 0.518555 0.200928
vt 0.519531 0.200439
vt 0.518066 0.200195
vt 0.516602 0.200195
vt 0.51709 0.199463
vt 0.519043 0.200195
vt 0.518066 0.199463
vt 0.52002 0.199463
vt 0.516113 0.199463
vt 0.519043 0.199463
vt 0.519531 0.198486
vt 0.519043 0.19873
vt 0.518066 0.198853
vt 0.519043 0.197632
vt 0.516602 0.198853
vt 0.51709 0.198486
vt 0.518066 0.197632
vt 0.518555 0.197998
vt 0.518066 0.197021
vt 0.518555 0.196411
vt 0.519531 0.197144
vt 0.51709 0.196167
vt 0.515625 0.196411
vt 0.519043 0.194336
vt 0.520996 0.195557
vt 0.51709 0.19397
vt 0.514648 0.197144
vt 0.51709 0.193237
vt 0.518066 0.193359
vt 0.519531 0.193604
vt 0.520508 0.194214
vt 0.521484 0.194946
vt 0.522461 0.195923
vt 0.522461 0.197266
vt 0.522949 0.197021
vt 0.52002 0.19812
vt 0.523438 0.19812
vt 0.522949 0.199463
vt 0.523438 0.199341
vt 0.520508 0.199463
vt 0.523438 0.200684
vt 0.522461 0.201538
vt 0.522949 0.201782
vt 0.520508 0.200684
vt 0.522461 0.202881
vt 0.520996 0.203369
vt 0.521484 0.203857
vt 0.519531 0.201782
vt 0.520508 0.204712
vt 0.519531 0.20459
vt 0.519531 0.205322
vt 0.518555 0.202515
vt 0.518555 0.205688
vt 0.51709 0.205078
vt 0.51709 0.205811
vt 0.516113 0.205688
vt 0.51709 0.202881
vt 0.515137 0.204712
vt 0.514648 0.205322
vt 0.513672 0.204712
vt 0.516113 0.202637
vt 0.514648 0.201904
vt 0.51416 0.200806
vt 0.513672 0.199585
vt 0.51416 0.198242
vt 0.067383 0.016693
vt 0.067139 0.020676
vt 0.064575 0.026245
vt 0.061066 0.030121
vt 0.059021 0.031052
vt 0.056854 0.030029
vt 0.056366 0.02858
vt 0.056366 0.030212
vt 0.055969 0.030518
vt 0.055725 0.031036
vt 0.055359 0.028839
vt 0.055542 0.024414
vt 0.054474 0.029312
vt 0.05368 0.03006
vt 0.054932 0.019485
vt 0.055359 0.016693
vt 0.053955 0.016693
vt 0.05368 0.024719
vt 0.052429 0.019638
vt 0.052582 0.016693
vt 0.05127 0.016693
vt 0.05191 0.025238
vt 0.050232 0.026093
vt 0.050079 0.019913
vt 0.050018 0.016693
vt 0.047729 0.020294
vt 0.048828 0.016693
vt 0.047699 0.016693
vt 0.0466 0.016693
vt 0.767578 0.995117
vt 0.769043 0.996094
vt 0.77002 0.995117
vt 0.77002 0.996094
vt 0.770996 0.996094
vt 0.770996 0.997559
vt 0.772461 0.997559
vt 0.772461 0.996094
vt 0.772461 0.995117
vt 0.773438 0.996094
vt 0.773438 0.997559
vt 0.774414 0.997559
vt 0.772461 0.993652
vt 0.774414 0.996094
vt 0.77002 0.993652
vt 0.774414 0.995117
vt 0.775879 0.996094
vt 0.775879 0.997559
vt 0.776855 0.997559
vt 0.776855 0.996094
vt 0.774414 0.993652
vt 0.776855 0.995117
vt 0.777832 0.996094
vt 0.777832 0.997559
vt 0.779297 0.997559
vt 0.779297 0.996094
vt 0.776855 0.993652
vt 0.779297 0.995117
vt 0.780273 0.996094
vt 0.780273 0.997559
vt 0.781738 0.997559
vt 0.78125 0.996094
vt 0.778809 0.993652
vt 0.78125 0.995117
vt 0.782715 0.996094
vt 0.782715 0.997559
vt 0.783691 0.997559
vt 0.783691 0.996094
vt 0.78125 0.993652
vt 0.783691 0.995117
vt 0.784668 0.996094
vt 0.785156 0.997559
vt 0.786133 0.997559
vt 0.786133 0.996094
vt 0.783203 0.993652
vt 0.785645 0.995117
vt 0.787109 0.996094
vt 0.787598 0.997559
vt 0.788574 0.997559
vt 0.788086 0.996094
vt 0.788086 0.995117
vt 0.787598 0.993652
vt 0.785645 0.993652
vt 0.786133 0.992676
vt 0.787109 0.992676
vt 0.786133 0.95166
vt 0.787109 0.95166
vt 0.78418 0.946777
vt 0.782715 0.940918
vt 0.78418 0.940918
vt 0.782715 0.946777
vt 0.78125 0.940918
vt 0.785156 0.95166
vt 0.78125 0.946777
vt 0.779297 0.940918
vt 0.785156 0.992676
vt 0.78418 0.95166
vt 0.78418 0.992676
vt 0.779297 0.946777
vt 0.777832 0.940918
vt 0.782715 0.95166
vt 0.781738 0.95166
vt 0.782715 0.992676
vt 0.781738 0.992676
vt 0.780762 0.95166
vt 0.777832 0.946777
vt 0.775879 0.940918
vt 0.779785 0.95166
vt 0.780762 0.992676
vt 0.779785 0.992676
vt 0.775879 0.946777
vt 0.773926 0.940918
vt 0.778809 0.95166
vt 0.777344 0.95166
vt 0.778809 0.992676
vt 0.777344 0.992676
vt 0.776367 0.95166
vt 0.773926 0.946777
vt 0.771973 0.940918
vt 0.775391 0.95166
vt 0.776367 0.992676
vt 0.775391 0.992676
vt 0.771973 0.946777
vt 0.77002 0.940918
vt 0.774414 0.95166
vt 0.77002 0.946777
vt 0.773438 0.95166
vt 0.774414 0.992676
vt 0.773438 0.992676
vt 0.771973 0.95166
vt 0.770996 0.95166
vt 0.77002 0.95166
vt 0.771973 0.992676
vt 0.770996 0.992676
vt 0.77002 0.992676
vt 0.756836 0.992676
vt 0.760742 0.995117
vt 0.763184 0.993652
vt 0.759766 0.996094
vt 0.758301 0.996094
vt 0.758301 0.997559
vt 0.757324 0.997559
vt 0.759766 0.997559
vt 0.756348 0.997559
vt 0.760742 0.997559
vt 0.760742 0.996094
vt 0.762207 0.996094
vt 0.761719 0.997559
vt 0.763184 0.997559
vt 0.763184 0.995117
vt 0.763184 0.996094
vt 0.76416 0.996094
vt 0.76416 0.997559
vt 0.765625 0.997559
vt 0.765625 0.996094
vt 0.765625 0.995117
vt 0.766602 0.996094
vt 0.766602 0.997559
vt 0.767578 0.997559
vt 0.765625 0.993652
vt 0.767578 0.996094
vt 0.769043 0.997559
vt 0.77002 0.997559
vt 0.767578 0.993652
vt 0.769043 0.992676
vt 0.766602 0.992676
vt 0.768066 0.992676
vt 0.769043 0.95166
vt 0.768066 0.95166
vt 0.768066 0.946777
vt 0.766602 0.95166
vt 0.768066 0.940918
vt 0.765625 0.95166
vt 0.765625 0.992676
vt 0.764648 0.95166
vt 0.764648 0.992676
vt 0.763672 0.95166
vt 0.763672 0.992676
vn 0.079 -0.9745 0.21
vn 0.0777 -0.997 0
vn -0.1172 -0.9931 0
vn -0.1195 -0.9701 0.2111
vn -0.1176 -0.9919 0.0475
vn -0.2152 -0.9755 0.0459
vn 0.0789 -0.9958 0.046
vn 0.2731 -0.9608 0.0476
vn 0.271 -0.9622 -0.0271
vn 0.0794 -0.9966 -0.0215
vn -0.1181 -0.9926 -0.029
vn -0.2131 -0.9768 -0.0213
vn -0.1219 -0.9183 -0.3767
vn 0.0726 -0.9213 -0.382
vn 0.4192 -0.8241 -0.3811
vn -0.1111 -0.8757 0.4699
vn 0.0695 -0.877 0.4754
vn -0.093 -0.7978 0.5958
vn -0.1878 -0.857 0.4799
vn -0.2142 -0.9768 0
vn 0.0696 -0.8734 0.482
vn 0.217 -0.7736 0.5953
vn 0.2728 -0.9621 0
vn 0.3989 -0.7833 0.4768
vn 0.3997 -0.7783 0.4842
vn 0.4953 -0.6317 0.5963
vn 0.6677 -0.572 0.4764
vn 0.9927 -0.1169 -0.0289
vn 0.9918 -0.1189 0.0476
vn 0.9496 -0.3101 0.0459
vn 0.9292 -0.3008 0.2147
vn 0.9508 -0.309 -0.02
vn 0.8726 -0.4859 0.0495
vn 0.8794 -0.2856 -0.3808
vn 0.8713 -0.49 -0.0271
vn 0.7603 -0.6478 0.0484
vn 0.7436 -0.6332 0.2147
vn 0.76 -0.6496 -0.0196
vn 0.7017 -0.6013 -0.3822
vn 0.6184 -0.7844 0.0482
vn 0.7607 -0.6491 0
vn 0.951 -0.3092 0
vn 0.4551 -0.8904 0
vn 0.9737 0.0779 0.214
vn 0.9971 0.0767 -0.0011
vn 0.4412 -0.8721 0.2117
vn 0.8705 0.4435 0.2135
vn 0.4516 -0.8909 0.049
vn 0.891 0.454 -0.0013
vn 0.6186 -0.7852 -0.028
vn 0 -0.001 1
vn 0.1065 -0.0344 -0.9937
vn 0.1121 0.0076 -0.9937
vn 0.4163 -0.0497 -0.9079
vn 0.455 0.0365 -0.8897
vn 0.4358 -0.1419 -0.8888
vn 0.403 0.1157 -0.9078
vn 0.3644 -0.2068 -0.908
vn 0.0995 0.0503 -0.9938
vn 0.0856 -0.0732 -0.9936
vn 0.4072 0.2073 -0.8895
vn 0.3482 -0.2987 -0.8886
vn 0.329 0.2588 -0.9081
vn 0.2606 -0.3294 -0.9075
vn 0.0515 -0.0996 -0.9937
vn 0.209 -0.4077 -0.8889
vn 0.0732 0.0844 -0.9937
vn 0.2984 0.3464 -0.8893
vn 0.2036 0.3654 -0.9083
vn 0.004 -0.0129 -0.9999
vn 0.0354 -0.4836 -0.8746
vn 0.2178 -0.4341 -0.8741
vn 0.01 -0.009 -0.9999
vn 0.3657 -0.3184 -0.8746
vn 0.0119 -0.005 -0.9999
vn 0.4593 -0.1526 -0.8751
vn 0.0129 0.001 -0.9999
vn 0.483 0.034 -0.8749
vn 0.0129 0.005 -0.9999
vn 0.4337 0.2161 -0.8748
vn 0.009 0.011 -0.9999
vn 0.3182 0.3639 -0.8754
vn 0.005 0.0129 -0.9999
vn 0.1527 0.4611 -0.8741
vn 0.001 0.0129 -0.9999
vn 0.9644 -0.2556 0.068
vn 0.9967 0.0533 0.062
vn 0.9568 0.2721 0.1028
vn 0.8635 0.4996 0.0686
vn 0.4815 0.8706 0.1008
vn 0.6659 0.7435 0.0618
vn 0.2583 0.9638 0.0668
vn 0.4923 0.8567 0.1543
vn 0.8702 -0.482 0.1024
vn 0.7415 -0.6682 0.0604
vn 0.954 0.2575 0.1534
vn 0.497 0.8283 0.2586
vn 0.5007 -0.863 0.0671
vn 0.2733 -0.9566 0.1015
vn 0.0543 -0.9967 0.0609
vn 0.8561 -0.4928 0.1559
vn 0.2562 -0.9541 0.1548
vn 0.9374 0.2333 0.2585
vn 0.4434 0.7157 0.5397
vn 0.8275 -0.4974 0.2603
vn 0.2352 -0.9364 0.2604
vn 0.8204 0.1926 0.5384
vn 0.7171 -0.4432 0.5378
vn 0.1942 -0.8208 0.5371
vn -0.006 -0.0109 -0.9999
vn -0.3169 -0.3672 -0.8745
vn -0.1541 -0.4581 -0.8754
vn 0 -0.0129 -0.9999
vn -0.01 -0.009 -0.9999
vn 0.0368 0.1104 -0.9932
vn -0.4354 -0.2162 -0.8739
vn -0.0119 -0.005 -0.9999
vn 0.1021 0.0528 -0.9934
vn -0.0528 0.1021 -0.9934
vn 0 -0.001 -1
vn -0.4825 -0.0368 -0.8751
vn 0.1091 -0.0367 -0.9933
vn -0.0129 0.001 -0.9999
vn -0.1104 0.0368 -0.9932
vn -0.4611 0.1527 -0.8741
vn -0.0129 0.005 -0.9999
vn -0.3669 0.3151 -0.8753
vn 0.0517 -0.1045 -0.9932
vn -0.009 0.011 -0.9999
vn -0.1034 -0.0528 -0.9932
vn -0.0356 -0.1102 -0.9933
vn -0.034 0.483 -0.8749
vn -0.2161 0.4337 -0.8748
vn -0.005 0.0129 -0.9999
vn 0.0089 -0.1341 -0.9909
vn 0.0595 -0.1202 -0.991
vn -0.0431 -0.1259 -0.9911
vn -0.0876 -0.1003 -0.9911
vn -0.0098 0.1099 -0.9939
vn -0.0503 0.0995 -0.9938
vn 0.0344 0.1077 -0.9936
vn -0.119 -0.0607 -0.991
vn 0.1418 0.4341 -0.8896
vn 0.0497 0.4147 -0.9086
vn -0.0365 0.455 -0.8897
vn -0.1129 0.4055 -0.9071
vn -0.2073 0.4072 -0.8895
vn -0.2588 0.329 -0.9081
vn -0.0844 0.0732 -0.9937
vn -0.3494 0.2954 -0.8892
vn 0.1014 -0.0864 -0.9911
vn -0.3654 0.2036 -0.9083
vn -0.1077 0.0344 -0.9936
vn -0.4341 0.1418 -0.8896
vn 0.127 -0.042 -0.991
vn -0.4147 0.0497 -0.9086
vn -0.1111 -0.0098 -0.9938
vn -0.4566 -0.0365 -0.8889
vn 0.1318 0.01 -0.9912
vn -0.4038 -0.1128 -0.9079
vn -0.1007 -0.0504 -0.9936
vn -0.409 -0.2074 -0.8886
vn 0.12 0.0583 -0.9911
vn -0.3279 -0.262 -0.9076
vn -0.0721 -0.0867 -0.9936
vn -0.2972 -0.3497 -0.8885
vn 0.0863 0.1002 -0.9912
vn -0.2053 -0.3657 -0.9078
vn -0.0355 -0.1054 -0.9938
vn -0.1404 -0.437 -0.8884
vn -0.0483 -0.4175 -0.9074
vn 0.0419 0.1257 -0.9912
vn 0.0087 -0.1122 -0.9936
vn 0.0351 -0.4577 -0.8884
vn 0.1142 -0.4026 -0.9082
vn -0.01 0.1318 -0.9912
vn -0.0583 0.12 -0.9911
vn -0.1002 0.0863 -0.9912
vn -0.1257 0.0419 -0.9912
vn -0.133 -0.01 -0.9911
vn -0.1173 -0.9887 0.0938
vn -0.1175 -0.9884 0.0964
vn -0.1166 -0.9828 0.1433
vn -0.1135 -0.9635 0.2425
vn -0.1006 -0.8464 0.523
vn -0.1926 0.8204 0.5384
vn -0.2333 0.9374 0.2585
vn -0.7157 0.4434 0.5397
vn -0.8201 -0.1959 0.5376
vn -0.6809 -0.5384 0.4965
vn -0.8283 0.497 0.2586
vn -0.2544 0.9549 0.1532
vn -0.9369 -0.2335 0.2601
vn -0.7622 -0.6006 0.2415
vn -0.2721 0.9568 0.1028
vn -0.0533 0.9967 0.062
vn -0.4996 0.8635 0.0686
vn -0.8567 0.4923 0.1543
vn -0.8688 0.4849 0.101
vn -0.7435 0.6659 0.0618
vn -0.9638 0.2583 0.0668
vn -0.9546 -0.2546 0.1547
vn -0.7767 -0.6132 0.1439
vn -0.9561 -0.2748 0.1016
vn -0.9966 -0.0555 0.0609
vn -0.7687 -0.6328 0.0935
vn -0.864 -0.4991 0.0671
vn -0.6667 -0.7429 0.0603
vn -0.4882 -0.8725 0.0189
vn 0.5722 0.6662 0.4783
vn 0.3912 0.7014 0.5958
vn 0.2708 0.8372 0.4751
vn 0.2714 0.8329 0.4824
vn 0.0946 0.7959 0.598
vn 0.1185 0.9929 0.0011
vn -0.079 0.9969 0.0011
vn -0.0682 0.8729 0.4831
vn -0.0681 0.8765 0.4765
vn -0.2188 0.7714 0.5976
vn -0.2717 0.9624 -0.0012
vn -0.454 0.891 0.0013
vn -0.0712 0.9223 -0.3799
vn -0.3977 0.7807 0.4821
vn 0.2858 0.8786 -0.3826
vn -0.4006 0.7834 0.4752
vn -0.4971 0.6285 0.5982
vn -0.6198 0.7847 0.0014
vn -0.7601 0.6498 0.0014
vn -0.6664 0.569 0.4818
vn -0.4213 0.822 -0.3832
vn -0.6693 0.5687 0.4781
vn -0.6988 0.3949 0.5964
vn -0.8724 0.4888 0.0013
vn -0.9518 0.3066 0.0012
vn -0.8329 0.2714 0.4824
vn -0.703 0.6009 -0.3803
vn -0.8356 0.2744 0.4759
vn -0.7959 0.0946 0.598
vn -0.9932 0.1161 0.0011
vn -0.9969 -0.0789 0
vn -0.8738 -0.0682 0.4814
vn -0.8786 0.2858 -0.3826
vn -0.8766 -0.071 0.4759
vn -0.7727 -0.2188 0.5958
vn -0.9625 -0.2714 0
vn -0.8912 -0.4535 0
vn -0.7795 -0.3978 0.4839
vn -0.9216 -0.0712 -0.3815
vn -0.7821 -0.4008 0.4771
vn -0.6302 -0.4971 0.5965
vn -0.7853 -0.6192 0
vn -0.6506 -0.7595 0
vn -0.5674 -0.6665 0.4835
vn -0.823 -0.421 -0.3813
vn -0.5703 -0.6692 0.4763
vn -0.3931 -0.6986 0.5979
vn -0.4898 -0.8718 0
vn -0.4018 -0.9157 0
vn -0.3516 -0.804 0.4795
vn -0.4239 -0.7745 0.4696
vn -0.444 -0.8129 -0.3769
vn -0.5995 -0.7033 -0.3821
vn -0.4883 -0.8722 -0.0271
vn -0.4 -0.9163 -0.0209
vn -0.4875 -0.8717 0.0496
vn -0.3997 -0.9154 0.048
vn -0.4723 -0.8559 0.2106
vn -0.6371 -0.7412 0.2113
vn -0.6493 -0.759 0.0484
vn -0.8705 -0.4457 0.2087
vn -0.6481 -0.7613 -0.0196
vn -0.7831 -0.62 0.0482
vn -0.784 -0.6202 -0.028
vn -0.9737 -0.0754 0.215
vn -0.9509 0.3096 -0.0012
vn -0.8891 -0.4554 0.0462
vn -0.9612 -0.2716 0.0476
vn -0.8915 -0.4524 -0.0214
vn -0.9618 -0.2725 -0.0271
vn -0.9957 -0.0801 0.0461
vn -0.9285 0.3039 0.2134
vn -0.7601 0.6498 -0.0014
vn -0.9917 0.119 0.0487
vn -0.9967 -0.0782 -0.0214
vn -0.9928 0.1167 -0.0278
vn -0.7446 0.6327 0.213
vn -0.454 0.891 -0.0013
vn -0.9494 0.3105 0.0473
vn -0.8712 0.4886 0.0482
vn -0.9507 0.3094 -0.0213
vn -0.8728 0.4873 -0.0285
vn -0.7609 0.6471 0.0469
vn -0.4435 0.8705 0.2135
vn -0.079 0.9969 -0.0011
vn -0.6206 0.7825 0.0497
vn -0.7594 0.6503 -0.021
vn -0.6208 0.7834 -0.0294
vn -0.0753 0.974 0.2136
vn 0.3096 0.9509 -0.0012
vn -0.4527 0.8904 0.0476
vn 0.3005 0.9297 0.213
vn -0.2719 0.9611 0.0489
vn -0.4551 0.8902 -0.02
vn -0.2728 0.9616 -0.0284
vn -0.0778 0.9959 0.0471
vn 0.1165 0.992 0.0486
vn 0.3074 0.9504 0.0472
vn -0.0782 0.9967 -0.0203
vn 0.1167 0.9928 -0.0278
vn 0.3094 0.9507 -0.0213
vn 0.454 -0.8907 -0.0214
vn 0.8361 -0.271 0.4769
vn 0.9217 0.074 -0.3808
vn 0.6999 -0.3912 0.5976
vn 0.6649 -0.5692 0.4836
vn 0.6176 -0.7865 0
vn 0.8727 -0.4882 0
vn 0.8334 -0.268 0.4833
vn 0.7971 -0.0945 0.5964
vn 0.993 -0.1184 0
vn 0.9971 0.0767 0.0011
vn 0.8765 0.0681 0.4765
vn 0.8729 0.0682 0.4831
vn 0.7714 0.2188 0.5976
vn 0.9624 0.2717 0.0012
vn 0.891 0.454 0.0013
vn 0.7807 0.3977 0.4821
vn 0.7834 0.4006 0.4752
vn 0.6285 0.4971 0.5982
vn 0.7871 0.6168 0.0014
vn 0.6498 0.7601 -0.0014
vn 0.8241 0.4176 -0.3827
vn 0.569 0.6664 0.4818
vn 0.4888 0.8724 -0.0013
vn 0.3096 0.9509 0.0012
vn 0.6009 0.703 -0.3803
vn 0.4873 0.8728 -0.0285
vn 0.7858 0.6177 -0.0294
vn 0.6503 0.7594 -0.021
vn 0.4886 0.8712 0.0482
vn 0.6502 0.7583 0.047
vn 0.6327 0.7446 0.213
vn 0.785 0.6175 0.0497
vn 0.8904 0.4527 0.0476
vn 0.8902 0.4551 -0.02
vn 0.9611 0.2719 0.0489
vn 0.9625 0.2699 -0.0283
vn 0.9959 0.0778 0.0471
vn 0.9967 0.0782 -0.0203
o bullet03__p1_c0
f 1/1/1 2/2/2 3/3/3
f 1/1/1 3/3/3 4/4/4
f 1/1/1 4/4/4 5/5/5
f 5/5/5 4/4/4 6/6/6
f 1/1/1 5/5/5 7/7/7
f 1/1/1 7/7/7 8/8/8
f 8/8/8 7/7/7 9/9/9
f 7/7/7 5/5/5 10/10/10
f 7/7/7 10/10/10 9/9/9
f 5/5/5 6/6/6 11/11/11
f 5/5/5 11/11/11 10/10/10
f 11/11/11 6/6/6 12/12/12
f 11/11/11 12/12/12 13/13/13
f 10/10/10 11/11/11 14/14/14
f 10/10/10 14/14/14 9/9/9
f 14/14/14 11/11/11 13/13/13
f 9/9/9 14/14/14 15/15/15
f 14/14/14 13/13/13 16/16/16
f 14/14/14 16/16/16 17/17/17
f 17/17/17 16/16/16 18/18/18
f 18/18/18 16/16/16 19/19/19
f 18/18/18 19/19/19 20/20/20
f 18/18/18 20/20/20 21/21/3
f 18/18/18 21/21/3 22/22/2
f 17/17/17 18/18/18 23/23/21
f 23/23/21 18/18/18 22/22/2
f 17/17/17 23/23/21 24/24/22
f 24/24/22 23/23/21 22/22/2
f 24/24/22 22/22/2 25/25/23
f 17/17/17 24/24/22 26/26/24
f 26/26/24 24/24/22 27/27/25
f 26/26/24 27/27/25 28/28/26
f 26/26/24 28/28/26 29/29/27
f 30/30/28 31/31/29 32/32/30
f 32/32/30 31/31/29 33/33/31
f 30/30/28 32/32/30 34/34/32
f 34/34/32 32/32/30 35/35/33
f 35/35/33 32/32/30 33/33/31
f 30/30/28 34/34/32 36/36/34
f 34/34/32 35/35/33 37/37/35
f 34/34/32 37/37/35 36/36/34
f 37/37/35 35/35/33 38/38/36
f 38/38/36 35/35/33 39/39/37
f 39/39/37 35/35/33 33/33/31
f 37/37/35 38/38/36 40/40/38
f 37/37/35 40/40/38 41/41/39
f 37/37/35 41/41/39 36/36/34
f 40/40/38 38/38/36 42/42/40
f 42/42/40 38/38/36 39/39/37
f 39/39/37 33/33/31 43/43/41
f 43/43/41 33/33/31 44/44/42
f 39/39/37 43/43/41 45/45/43
f 44/44/42 33/33/31 46/46/44
f 46/46/44 33/33/31 31/31/29
f 44/44/42 46/46/44 47/47/45
f 39/39/37 45/45/43 48/48/46
f 39/39/37 48/48/46 42/42/40
f 48/48/46 45/45/43 2/2/2
f 48/48/46 2/2/2 1/1/1
f 47/47/45 46/46/44 49/49/47
f 48/48/46 1/1/1 50/50/48
f 48/48/46 50/50/48 42/42/40
f 50/50/48 1/1/1 8/8/8
f 47/47/45 49/49/47 51/51/49
f 42/42/40 50/50/48 52/52/50
f 42/42/40 52/52/50 40/40/38
f 53/53/51 54/54/51 55/55/51
f 55/55/51 54/54/51 56/56/51
f 53/53/51 55/55/51 57/57/51
f 56/56/51 54/54/51 58/58/51
f 53/53/51 57/57/51 59/59/51
f 56/56/51 58/58/51 60/60/51
f 59/59/51 57/57/51 61/61/51
f 60/60/51 58/58/51 62/62/51
f 59/59/51 61/61/51 63/63/51
f 60/60/51 62/62/51 64/64/51
f 63/63/51 61/61/51 65/65/51
f 64/64/51 62/62/51 66/66/51
f 63/63/51 65/65/51 67/67/51
f 64/64/51 66/66/51 68/68/51
f 67/67/51 65/65/51 69/69/51
f 67/67/51 69/69/51 70/70/51
f 70/70/51 69/69/51 3/71/51
f 68/68/51 66/66/51 71/72/51
f 68/68/51 71/72/51 51/73/51
f 51/73/51 71/72/51 72/74/51
f 51/73/51 72/74/51 47/75/51
f 47/75/51 72/74/51 73/76/51
f 47/75/51 73/76/51 44/77/51
f 44/77/51 73/76/51 74/78/51
f 44/77/51 74/78/51 43/79/51
f 43/79/51 74/78/51 75/80/51
f 43/79/51 75/80/51 45/81/51
f 45/81/51 75/80/51 76/82/51
f 45/81/51 76/82/51 2/83/51
f 2/83/51 76/82/51 77/84/51
f 2/83/51 77/84/51 3/85/51
f 3/85/51 77/84/51 70/86/51
f 78/87/52 79/88/53 80/89/54
f 80/89/54 79/88/53 81/90/55
f 78/87/52 80/89/54 82/91/56
f 81/90/55 79/88/53 83/92/57
f 78/87/52 82/91/56 84/93/58
f 83/92/57 79/88/53 85/94/59
f 78/87/52 84/93/58 86/95/60
f 83/92/57 85/94/59 87/96/61
f 86/95/60 84/93/58 88/97/62
f 87/96/61 85/94/59 89/98/63
f 86/95/60 88/97/62 90/99/64
f 86/95/60 90/99/64 91/100/65
f 91/100/65 90/99/64 92/101/66
f 89/98/63 85/94/59 93/102/67
f 89/98/63 93/102/67 94/103/68
f 94/103/68 93/102/67 95/104/69
f 96/105/70 97/106/71 98/107/72
f 96/105/70 98/107/72 99/108/73
f 99/108/73 98/107/72 100/109/74
f 99/108/73 100/109/74 101/110/75
f 101/110/75 100/109/74 102/111/76
f 101/110/75 102/111/76 103/112/77
f 103/112/77 102/111/76 104/113/78
f 103/112/77 104/113/78 105/114/79
f 105/114/79 104/113/78 106/115/80
f 105/114/79 106/115/80 107/116/81
f 107/116/81 106/115/80 108/117/82
f 107/116/81 108/117/82 109/118/83
f 109/118/83 108/117/82 110/119/84
f 109/118/83 110/119/84 111/120/85
f 74/121/86 73/122/87 112/123/88
f 112/123/88 73/122/87 72/124/89
f 112/123/88 72/124/89 113/125/90
f 113/125/90 72/124/89 71/126/91
f 113/125/90 71/126/91 66/127/92
f 112/123/88 113/125/90 114/128/93
f 74/121/86 112/123/88 115/129/94
f 74/121/86 115/129/94 75/130/95
f 112/123/88 114/128/93 116/131/96
f 112/123/88 116/131/96 115/129/94
f 116/131/96 114/128/93 117/132/97
f 75/130/95 115/129/94 76/133/98
f 76/133/98 115/129/94 118/134/99
f 76/133/98 118/134/99 77/135/100
f 118/134/99 115/129/94 119/136/101
f 119/136/101 115/129/94 116/131/96
f 118/134/99 119/136/101 120/137/102
f 116/131/96 117/132/97 121/138/103
f 116/131/96 121/138/103 119/136/101
f 121/138/103 117/132/97 122/139/104
f 120/137/102 119/136/101 123/140/105
f 123/140/105 119/136/101 121/138/103
f 120/137/102 123/140/105 124/141/106
f 121/138/103 122/139/104 125/142/107
f 121/138/103 125/142/107 123/140/105
f 125/142/107 122/139/104 126/143/51
f 124/141/106 123/140/105 127/144/108
f 127/144/108 123/140/105 125/142/107
f 127/144/108 125/142/107 126/143/51
f 124/141/106 127/144/108 128/145/109
f 128/145/109 127/144/108 126/143/51
f 129/146/110 130/147/111 131/148/112
f 129/146/110 131/148/112 132/149/113
f 130/147/111 129/146/110 133/150/114
f 132/149/113 131/148/112 97/106/71
f 132/149/113 97/106/71 96/105/70
f 131/148/112 130/147/111 134/151/115
f 131/148/112 134/151/115 97/106/71
f 130/147/111 133/150/114 135/152/116
f 135/152/116 133/150/114 136/153/117
f 134/151/115 130/147/111 137/154/118
f 137/154/118 130/147/111 135/152/116
f 97/106/71 134/151/115 138/155/119
f 97/106/71 138/155/119 98/107/72
f 98/107/72 138/155/119 100/109/74
f 138/155/119 134/151/115 139/156/120
f 137/154/118 135/152/116 140/157/121
f 140/157/121 135/152/116 136/153/117
f 137/154/118 140/157/121 141/158/122
f 140/157/121 136/153/117 142/159/123
f 100/109/74 138/155/119 143/160/124
f 143/160/124 138/155/119 139/156/120
f 100/109/74 143/160/124 102/111/76
f 102/111/76 143/160/124 104/113/78
f 140/157/121 142/159/123 144/161/125
f 140/157/121 144/161/125 141/158/122
f 144/161/125 142/159/123 145/162/126
f 141/158/122 144/161/125 146/163/127
f 146/163/127 144/161/125 145/162/126
f 141/158/122 146/163/127 147/164/128
f 146/163/127 145/162/126 148/165/129
f 149/166/130 104/113/78 143/160/124
f 149/166/130 143/160/124 139/156/120
f 104/113/78 149/166/130 106/115/80
f 106/115/80 149/166/130 108/117/82
f 149/166/130 139/156/120 150/167/131
f 149/166/130 150/167/131 108/117/82
f 150/167/131 139/156/120 147/164/128
f 108/117/82 150/167/131 110/119/84
f 110/119/84 150/167/131 151/168/132
f 151/168/132 150/167/131 147/164/128
f 110/119/84 151/168/132 111/120/85
f 152/169/133 147/164/128 146/163/127
f 147/164/128 152/169/133 151/168/132
f 152/169/133 146/163/127 148/165/129
f 151/168/132 152/169/133 153/170/134
f 153/170/134 152/169/133 148/165/129
f 151/168/132 153/170/134 111/120/85
f 153/170/134 148/165/129 154/171/135
f 154/171/135 148/165/129 155/172/136
f 111/120/85 153/170/134 156/173/137
f 156/173/137 153/170/134 154/171/135
f 111/120/85 156/173/137 157/174/138
f 111/120/85 157/174/138 109/118/83
f 156/173/137 154/171/135 158/175/139
f 154/171/135 155/172/136 159/176/140
f 154/171/135 159/176/140 158/175/139
f 157/174/138 156/173/137 160/177/141
f 160/177/141 156/173/137 158/175/139
f 109/118/83 157/174/138 161/178/142
f 109/118/83 161/178/142 107/116/81
f 161/178/142 157/174/138 93/102/67
f 93/102/67 157/174/138 160/177/141
f 93/102/67 160/177/141 95/104/69
f 95/104/69 160/177/141 162/179/143
f 162/179/143 160/177/141 163/180/144
f 163/180/144 160/177/141 158/175/139
f 163/180/144 158/175/139 164/181/145
f 164/181/145 158/175/139 165/182/146
f 165/182/146 158/175/139 159/176/140
f 165/182/146 159/176/140 166/183/147
f 166/183/147 159/176/140 167/184/148
f 167/184/148 159/176/140 168/185/149
f 168/185/149 159/176/140 155/172/136
f 167/184/148 168/185/149 169/186/150
f 168/185/149 155/172/136 170/187/151
f 169/186/150 168/185/149 171/188/152
f 168/185/149 170/187/151 172/189/153
f 168/185/149 172/189/153 171/188/152
f 171/188/152 172/189/153 173/190/154
f 172/189/153 170/187/151 174/191/155
f 173/190/154 172/189/153 175/192/156
f 172/189/153 174/191/155 176/193/157
f 172/189/153 176/193/157 175/192/156
f 175/192/156 176/193/157 177/194/158
f 176/193/157 174/191/155 178/195/159
f 177/194/158 176/193/157 179/196/160
f 176/193/157 178/195/159 180/197/161
f 176/193/157 180/197/161 179/196/160
f 179/196/160 180/197/161 181/198/162
f 180/197/161 178/195/159 182/199/163
f 181/198/162 180/197/161 183/200/164
f 180/197/161 182/199/163 184/201/165
f 180/197/161 184/201/165 183/200/164
f 183/200/164 184/201/165 185/202/166
f 184/201/165 182/199/163 186/203/167
f 185/202/166 184/201/165 187/204/168
f 184/201/165 186/203/167 188/205/169
f 184/201/165 188/205/169 187/204/168
f 187/204/168 188/205/169 20/206/170
f 20/206/170 188/205/169 21/207/171
f 188/205/169 186/203/167 189/208/172
f 21/207/171 188/205/169 190/209/173
f 190/209/173 188/205/169 189/208/172
f 21/207/171 190/209/173 22/210/174
f 22/210/174 190/209/173 25/211/175
f 25/211/175 190/209/173 91/100/65
f 25/211/175 91/100/65 92/101/66
f 190/209/173 189/208/172 191/212/176
f 190/209/173 191/212/176 91/100/65
f 191/212/176 189/208/172 96/105/70
f 96/105/70 189/208/172 132/149/113
f 191/212/176 96/105/70 99/108/73
f 91/100/65 191/212/176 192/213/177
f 192/213/177 191/212/176 99/108/73
f 91/100/65 192/213/177 86/95/60
f 192/213/177 99/108/73 101/110/75
f 86/95/60 192/213/177 193/214/178
f 193/214/178 192/213/177 101/110/75
f 86/95/60 193/214/178 78/87/52
f 193/214/178 101/110/75 103/112/77
f 78/87/52 193/214/178 194/215/179
f 194/215/179 193/214/178 103/112/77
f 78/87/52 194/215/179 79/88/53
f 194/215/179 103/112/77 105/114/79
f 79/88/53 194/215/179 195/216/180
f 195/216/180 194/215/179 105/114/79
f 195/216/180 105/114/79 107/116/81
f 79/88/53 195/216/180 85/94/59
f 195/216/180 107/116/81 161/178/142
f 195/216/180 161/178/142 85/94/59
f 85/94/59 161/178/142 93/102/67
f 137/154/118 141/158/122 139/156/120
f 139/156/120 141/158/122 147/164/128
f 137/154/118 139/156/120 134/151/115
f 132/149/113 189/208/172 186/203/167
f 132/149/113 186/203/167 129/146/110
f 129/146/110 186/203/167 182/199/163
f 129/146/110 182/199/163 133/150/114
f 133/150/114 182/199/163 178/195/159
f 133/150/114 178/195/159 136/153/117
f 136/153/117 178/195/159 174/191/155
f 136/153/117 174/191/155 142/159/123
f 142/159/123 174/191/155 170/187/151
f 142/159/123 170/187/151 145/162/126
f 145/162/126 170/187/151 155/172/136
f 145/162/126 155/172/136 148/165/129
f 77/135/100 118/134/99 70/217/181
f 70/217/181 118/134/99 196/218/182
f 196/218/182 118/134/99 120/137/102
f 196/218/182 120/137/102 197/219/183
f 197/219/183 120/137/102 124/141/106
f 197/219/183 124/141/106 198/220/184
f 198/220/184 124/141/106 128/145/109
f 198/220/184 128/145/109 199/221/185
f 199/221/185 128/145/109 126/143/51
f 122/139/104 200/222/186 126/143/51
f 200/222/186 122/139/104 117/132/97
f 200/222/186 117/132/97 201/223/187
f 201/223/187 117/132/97 114/128/93
f 126/143/51 200/222/186 202/224/188
f 202/224/188 200/222/186 201/223/187
f 126/143/51 202/224/188 203/225/189
f 126/143/51 203/225/189 199/226/190
f 202/224/188 201/223/187 204/227/191
f 202/224/188 204/227/191 203/225/189
f 201/223/187 114/128/93 205/228/192
f 201/223/187 205/228/192 204/227/191
f 205/228/192 114/128/93 113/125/90
f 199/226/190 203/225/189 206/229/193
f 206/229/193 203/225/189 204/227/191
f 199/226/190 206/229/193 198/230/194
f 205/228/192 113/125/90 207/231/195
f 207/231/195 113/125/90 66/127/92
f 207/231/195 66/127/92 62/232/196
f 207/231/195 62/232/196 58/233/197
f 208/234/198 204/227/191 205/228/192
f 208/234/198 205/228/192 207/231/195
f 204/227/191 208/234/198 206/229/193
f 207/231/195 58/233/197 209/235/199
f 207/231/195 209/235/199 208/234/198
f 209/235/199 58/233/197 54/236/200
f 209/235/199 54/236/200 53/237/201
f 206/229/193 208/234/198 210/238/202
f 210/238/202 208/234/198 209/235/199
f 206/229/193 210/238/202 198/230/194
f 198/230/194 210/238/202 197/239/203
f 210/238/202 209/235/199 211/240/204
f 211/240/204 209/235/199 53/237/201
f 210/238/202 211/240/204 197/239/203
f 211/240/204 53/237/201 59/241/205
f 197/239/203 211/240/204 196/242/206
f 211/240/204 59/241/205 63/243/207
f 211/240/204 63/243/207 196/242/206
f 196/242/206 63/243/207 67/244/208
f 196/242/206 67/244/208 70/245/209
f 212/246/210 213/247/211 214/248/212
f 214/248/212 213/247/211 215/249/213
f 214/248/212 215/249/213 216/250/214
f 163/251/215 164/252/216 216/250/214
f 216/250/214 164/252/216 217/253/217
f 214/248/212 216/250/214 218/254/218
f 218/254/218 216/250/214 217/253/217
f 217/253/217 164/252/216 219/255/219
f 217/253/217 219/255/219 218/254/218
f 219/255/219 164/252/216 165/256/220
f 219/255/219 165/256/220 166/257/221
f 214/248/212 218/254/218 220/258/222
f 219/255/219 166/257/221 221/259/223
f 214/248/212 220/258/222 222/260/224
f 218/254/218 219/255/219 223/261/225
f 223/261/225 219/255/219 221/259/223
f 221/259/223 166/257/221 224/262/226
f 221/259/223 224/262/226 223/261/225
f 224/262/226 166/257/221 167/263/227
f 224/262/226 167/263/227 169/264/228
f 224/262/226 169/264/228 225/265/229
f 218/254/218 223/261/225 226/266/230
f 218/254/218 226/266/230 220/258/222
f 223/261/225 224/262/226 227/267/231
f 227/267/231 224/262/226 225/265/229
f 225/265/229 169/264/228 228/268/232
f 225/265/229 228/268/232 227/267/231
f 228/268/232 169/264/228 171/269/233
f 228/268/232 171/269/233 173/270/234
f 228/268/232 173/270/234 229/271/235
f 223/261/225 227/267/231 230/272/236
f 223/261/225 230/272/236 226/266/230
f 227/267/231 228/268/232 231/273/237
f 231/273/237 228/268/232 229/271/235
f 229/271/235 173/270/234 232/274/238
f 229/271/235 232/274/238 231/273/237
f 232/274/238 173/270/234 175/275/239
f 232/274/238 175/275/239 177/276/240
f 232/274/238 177/276/240 233/277/241
f 227/267/231 231/273/237 234/278/242
f 227/267/231 234/278/242 230/272/236
f 231/273/237 232/274/238 235/279/243
f 235/279/243 232/274/238 233/277/241
f 233/277/241 177/276/240 236/280/244
f 233/277/241 236/280/244 235/279/243
f 236/280/244 177/276/240 179/281/245
f 236/280/244 179/281/245 181/282/246
f 236/280/244 181/282/246 237/283/247
f 231/273/237 235/279/243 238/284/248
f 231/273/237 238/284/248 234/278/242
f 235/279/243 236/280/244 239/285/249
f 239/285/249 236/280/244 237/283/247
f 237/283/247 181/282/246 240/286/250
f 237/283/247 240/286/250 239/285/249
f 240/286/250 181/282/246 183/287/251
f 240/286/250 183/287/251 185/288/252
f 240/286/250 185/288/252 241/289/253
f 235/279/243 239/285/249 242/290/254
f 235/279/243 242/290/254 238/284/248
f 239/285/249 240/286/250 243/291/255
f 243/291/255 240/286/250 241/289/253
f 241/289/253 185/288/252 244/292/256
f 241/289/253 244/292/256 243/291/255
f 244/292/256 185/288/252 187/293/257
f 244/292/256 187/293/257 20/294/258
f 244/292/256 20/294/258 19/295/259
f 244/292/256 19/295/259 16/296/260
f 244/292/256 16/296/260 243/291/255
f 243/291/255 16/296/260 13/297/261
f 245/298/262 239/285/249 243/291/255
f 245/298/262 243/291/255 13/297/261
f 239/285/249 245/298/262 242/290/254
f 245/298/262 13/297/261 246/299/263
f 246/299/263 13/297/261 12/300/264
f 246/299/263 12/300/264 247/301/265
f 247/301/265 12/300/264 6/302/266
f 247/301/265 6/302/266 4/303/267
f 69/304/252 4/303/267 3/305/257
f 4/303/267 69/304/252 248/306/268
f 4/303/267 248/306/268 247/301/265
f 248/306/268 69/304/252 65/307/246
f 246/299/263 247/301/265 249/308/269
f 249/308/269 247/301/265 248/306/268
f 248/306/268 65/307/246 250/309/270
f 248/306/268 250/309/270 249/308/269
f 250/309/270 65/307/246 61/310/240
f 246/299/263 249/308/269 251/311/271
f 246/299/263 251/311/271 245/298/262
f 251/311/271 249/308/269 252/312/272
f 252/312/272 249/308/269 250/309/270
f 245/298/262 251/311/271 253/313/273
f 253/313/273 251/311/271 252/312/272
f 245/298/262 253/313/273 242/290/254
f 250/309/270 61/310/240 254/314/274
f 254/314/274 61/310/240 57/315/275
f 252/312/272 250/309/270 255/316/276
f 252/312/272 255/316/276 253/313/273
f 255/316/276 250/309/270 256/317/277
f 256/317/277 250/309/270 254/314/274
f 253/313/273 255/316/276 257/318/278
f 257/318/278 255/316/276 256/317/277
f 253/313/273 257/318/278 242/290/254
f 242/290/254 257/318/278 258/319/279
f 258/319/279 257/318/278 256/317/277
f 242/290/254 258/319/279 238/284/248
f 256/317/277 254/314/274 259/320/280
f 256/317/277 259/320/280 258/319/279
f 260/321/281 254/314/274 57/315/275
f 260/321/281 57/315/275 55/322/282
f 259/320/280 254/314/274 261/323/283
f 261/323/283 254/314/274 260/321/281
f 258/319/279 259/320/280 262/324/284
f 262/324/284 259/320/280 261/323/283
f 258/319/279 262/324/284 238/284/248
f 238/284/248 262/324/284 263/325/285
f 263/325/285 262/324/284 261/323/283
f 238/284/248 263/325/285 234/278/242
f 264/326/286 260/321/281 55/322/282
f 264/326/286 55/322/282 56/327/287
f 265/328/288 261/323/283 260/321/281
f 261/323/283 265/328/288 263/325/285
f 265/328/288 260/321/281 266/329/289
f 266/329/289 260/321/281 264/326/286
f 263/325/285 265/328/288 267/330/290
f 267/330/290 265/328/288 266/329/289
f 263/325/285 267/330/290 234/278/242
f 234/278/242 267/330/290 268/331/291
f 268/331/291 267/330/290 266/329/289
f 234/278/242 268/331/291 230/272/236
f 266/329/289 264/326/286 269/332/292
f 266/329/289 269/332/292 268/331/291
f 270/333/293 264/326/286 56/327/287
f 270/333/293 56/327/287 60/334/294
f 269/332/292 264/326/286 271/335/295
f 271/335/295 264/326/286 270/333/293
f 268/331/291 269/332/292 272/336/296
f 272/336/296 269/332/292 271/335/295
f 268/331/291 272/336/296 230/272/236
f 230/272/236 272/336/296 273/337/297
f 273/337/297 272/336/296 271/335/295
f 230/272/236 273/337/297 226/266/230
f 274/338/298 270/333/293 60/334/294
f 274/338/298 60/334/294 64/339/299
f 275/340/300 271/335/295 270/333/293
f 271/335/295 275/340/300 273/337/297
f 274/338/298 64/339/299 276/341/301
f 275/340/300 270/333/293 277/342/302
f 277/342/302 270/333/293 274/338/298
f 273/337/297 275/340/300 278/343/303
f 278/343/303 275/340/300 277/342/302
f 273/337/297 278/343/303 226/266/230
f 226/266/230 278/343/303 279/344/304
f 279/344/304 278/343/303 277/342/302
f 226/266/230 279/344/304 220/258/222
f 277/342/302 274/338/298 280/345/305
f 277/342/302 280/345/305 279/344/304
f 281/346/306 274/338/298 276/341/301
f 274/338/298 281/346/306 280/345/305
f 281/346/306 276/341/301 282/347/307
f 279/344/304 280/345/305 283/348/308
f 283/348/308 280/345/305 281/346/306
f 279/344/304 283/348/308 220/258/222
f 283/348/308 281/346/306 284/349/309
f 283/348/308 284/349/309 220/258/222
f 220/258/222 284/349/309 222/260/224
f 222/260/224 284/349/309 285/350/310
f 286/351/311 50/50/48 8/8/8
f 50/50/48 286/351/311 52/52/50
f 286/351/311 8/8/8 9/9/9
f 286/351/311 9/9/9 15/15/15
f 286/351/311 15/15/15 52/52/50
f 40/40/38 52/52/50 41/41/39
f 41/41/39 52/52/50 15/15/15
f 14/14/14 17/17/17 15/15/15
f 15/15/15 17/17/17 26/26/24
f 15/15/15 26/26/24 41/41/39
f 41/41/39 26/26/24 29/29/27
f 41/41/39 29/29/27 36/36/34
f 36/36/34 29/29/27 287/352/312
f 36/36/34 287/352/312 288/353/313
f 36/36/34 288/353/313 30/30/28
f 287/352/312 29/29/27 289/354/314
f 289/354/314 29/29/27 290/355/315
f 290/355/315 29/29/27 28/28/26
f 290/355/315 28/28/26 88/356/41
f 290/355/315 88/356/41 289/354/314
f 88/356/41 28/28/26 90/357/316
f 289/354/314 88/356/41 84/358/317
f 90/357/316 28/28/26 92/359/43
f 92/359/43 28/28/26 27/27/25
f 92/359/43 27/27/25 24/24/22
f 92/359/43 24/24/22 25/25/23
f 289/354/314 84/358/317 82/360/42
f 289/354/314 82/360/42 291/361/318
f 289/354/314 291/361/318 287/352/312
f 291/361/318 82/360/42 292/362/319
f 291/361/318 292/362/319 287/352/312
f 292/362/319 82/360/42 80/363/320
f 292/362/319 80/363/320 81/364/321
f 287/352/312 292/362/319 293/365/322
f 292/362/319 81/364/321 294/366/323
f 292/362/319 294/366/323 293/365/322
f 294/366/323 81/364/321 295/367/324
f 294/366/323 295/367/324 293/365/322
f 295/367/324 81/364/321 83/368/325
f 295/367/324 83/368/325 87/369/326
f 287/352/312 293/365/322 288/353/313
f 295/367/324 87/369/326 296/370/327
f 293/365/322 295/367/324 297/371/328
f 297/371/328 295/367/324 296/370/327
f 296/370/327 87/369/326 298/372/329
f 296/370/327 298/372/329 297/371/328
f 298/372/329 87/369/326 89/373/330
f 298/372/329 89/373/330 94/374/331
f 299/375/332 288/353/313 293/365/322
f 299/375/332 293/365/322 297/371/328
f 298/372/329 94/374/331 300/376/333
f 300/376/333 94/374/331 213/247/211
f 213/247/211 94/374/331 95/377/334
f 213/247/211 95/377/334 162/378/335
f 213/247/211 162/378/335 215/249/213
f 215/249/213 162/378/335 216/250/214
f 216/250/214 162/378/335 163/251/215
f 300/376/333 213/247/211 212/246/210
f 300/376/333 212/246/210 298/372/329
f 298/372/329 212/246/210 297/371/328
f 297/371/328 212/246/210 301/379/336
f 297/371/328 301/379/336 299/375/332
f 214/248/212 222/260/224 212/246/210
f 212/246/210 222/260/224 301/379/336
f 301/379/336 222/260/224 302/380/337
f 302/380/337 222/260/224 285/350/310
f 299/375/332 301/379/336 303/381/338
f 301/379/336 302/380/337 304/382/339
f 301/379/336 304/382/339 303/381/338
f 302/380/337 285/350/310 305/383/340
f 304/382/339 302/380/337 306/384/341
f 306/384/341 302/380/337 305/383/340
f 305/383/340 285/350/310 282/347/307
f 282/347/307 285/350/310 284/349/309
f 282/347/307 284/349/309 281/346/306
f 305/383/340 282/347/307 276/341/301
f 306/384/341 305/383/340 307/385/342
f 307/385/342 305/383/340 276/341/301
f 304/382/339 306/384/341 308/386/343
f 308/386/343 306/384/341 307/385/342
f 304/382/339 308/386/343 303/381/338
f 307/385/342 276/341/301 68/387/331
f 68/387/331 276/341/301 64/339/299
f 307/385/342 68/387/331 51/51/49
f 307/385/342 51/51/49 49/49/47
f 307/385/342 49/49/47 308/386/343
f 303/381/338 308/386/343 309/388/344
f 309/388/344 308/386/343 49/49/47
f 303/381/338 309/388/344 310/389/345
f 303/381/338 310/389/345 299/375/332
f 309/388/344 49/49/47 311/390/346
f 309/388/344 311/390/346 310/389/345
f 311/390/346 49/49/47 46/46/44
f 299/375/332 310/389/345 312/391/347
f 312/391/347 310/389/345 311/390/346
f 299/375/332 312/391/347 288/353/313
f 311/390/346 46/46/44 313/392/348
f 311/390/346 313/392/348 312/391/347
f 313/392/348 46/46/44 31/31/29
f 288/353/313 312/391/347 314/393/349
f 314/393/349 312/391/347 313/392/348
f 314/393/349 313/392/348 31/31/29
f 288/353/313 314/393/349 30/30/28
f 30/30/28 314/393/349 31/31/29
