# CS2 body mesh, tools/cs2_glb_to_obj.py
v 0.05571 0.07214 -0.00404
v 0.05724 0.07137 -0.00404
v 0.05686 0.07253 -0.00433
v 0.05772 0.07198 -0.00433
v 0.05592 0.07289 -0.00433
v 0.05491 0.07307 -0.00433
v 0.05592 0.07289 -0.00538
v 0.05491 0.07307 -0.00538
v 0.0539 0.07304 -0.00538
v 0.0539 0.07304 -0.00433
v 0.05399 0.07227 -0.00404
v 0.05399 0.07227 -0.00294
v 0.05571 0.07214 -0.00294
v 0.05491 0.07307 -0.00212
v 0.05592 0.07289 -0.00212
v 0.0539 0.07304 -0.00212
v 0.05592 0.07289 0.03313
v 0.05491 0.07307 0.03313
v 0.0539 0.07304 0.03313
v 0.05541 0.07108 0.03688
v 0.05413 0.07117 0.03688
v 0.05541 0.07108 0.04225
v 0.05413 0.07117 0.04225
v 0.05473 0.0706 0.04496
v 0.05528 0.07061 0.04225
v 0.05419 0.07069 0.04225
v 0.05732 0.06824 0.04225
v 0.05724 0.06715 0.04225
v 0.05771 0.06702 0.04225
v 0.05713 0.06587 0.04225
v 0.0578 0.0683 0.04225
v 0.05675 0.06617 0.04225
v 0.05698 0.06929 0.04225
v 0.05615 0.06503 0.04225
v 0.0574 0.06952 0.04225
v 0.05592 0.06545 0.04225
v 0.05626 0.07012 0.04225
v 0.05493 0.06463 0.04225
v 0.05656 0.0705 0.04225
v 0.05487 0.06511 0.04225
v 0.05365 0.06472 0.04225
v 0.05378 0.06519 0.04225
v 0.0525 0.0653 0.04225
v 0.0528 0.06568 0.04225
v 0.05166 0.06628 0.04225
v 0.05208 0.06651 0.04225
v 0.05126 0.0675 0.04225
v 0.05174 0.06756 0.04225
v 0.05135 0.06878 0.04225
v 0.05182 0.06865 0.04225
v 0.05193 0.06993 0.04225
v 0.05231 0.06963 0.04225
v 0.05291 0.07077 0.04225
v 0.05315 0.07035 0.04225
v 0.05381 0.06846 -0.00581
v 0.05453 0.0679 -0.00548
v 0.05362 0.06779 -0.00581
v 0.05397 0.06718 -0.00581
v 0.05708 0.06339 -0.00538
v 0.0568 0.06388 -0.00567
v 0.05791 0.06398 -0.00538
v 0.05817 0.06506 -0.00567
v 0.05861 0.06471 -0.00538
v 0.05916 0.06557 -0.00538
v 0.05898 0.06667 -0.00567
v 0.05952 0.06652 -0.00538
v 0.0597 0.06752 -0.00538
v 0.05911 0.06846 -0.00567
v 0.05967 0.06853 -0.00538
v 0.05945 0.06952 -0.00538
v 0.05855 0.07017 -0.00567
v 0.05904 0.07045 -0.00538
v 0.05846 0.07128 -0.00538
v 0.05737 0.07154 -0.00567
v 0.05772 0.07198 -0.00538
v 0.05686 0.07253 -0.00538
v 0.05244 0.06953 -0.00567
v 0.05322 0.07021 -0.00567
v 0.0528 0.06925 -0.00521
v 0.05345 0.06981 -0.00521
v 0.05421 0.07053 -0.00567
v 0.05426 0.07008 -0.00521
v 0.05242 0.06849 -0.00521
v 0.05197 0.06861 -0.00567
v 0.05235 0.06763 -0.00521
v 0.0519 0.06758 -0.00567
v 0.05262 0.06682 -0.00521
v 0.05222 0.06659 -0.00567
v 0.05318 0.06617 -0.00521
v 0.0529 0.06581 -0.00567
v 0.05394 0.06579 -0.00521
v 0.05382 0.06534 -0.00567
v 0.05051 0.06563 -0.00567
v 0.04995 0.06734 -0.00567
v 0.05008 0.06913 -0.00567
v 0.04961 0.06628 -0.00538
v 0.04939 0.06727 -0.00538
v 0.05002 0.06535 -0.00538
v 0.04936 0.06828 -0.00538
v 0.04954 0.06928 -0.00538
v 0.05061 0.06452 -0.00538
v 0.04991 0.07023 -0.00538
v 0.05169 0.06426 -0.00567
v 0.05134 0.06382 -0.00538
v 0.0522 0.06327 -0.00538
v 0.05089 0.07074 -0.00567
v 0.0533 0.06345 -0.00567
v 0.05045 0.07109 -0.00538
v 0.05115 0.07182 -0.00538
v 0.05315 0.06291 -0.00538
v 0.05226 0.07192 -0.00567
v 0.05198 0.07241 -0.00538
v 0.05415 0.06273 -0.00538
v 0.05291 0.07282 -0.00538
v 0.05397 0.07248 -0.00567
v 0.05509 0.06332 -0.00567
v 0.05516 0.06276 -0.00538
v 0.05615 0.06298 -0.00538
v 0.05576 0.07235 -0.00567
v 0.05524 0.07046 -0.00567
v 0.05617 0.06999 -0.00567
v 0.05684 0.06921 -0.00567
v 0.05588 0.06963 -0.00521
v 0.05644 0.06898 -0.00521
v 0.05512 0.07001 -0.00521
v 0.05717 0.06822 -0.00567
v 0.05671 0.06817 -0.00521
v 0.05709 0.06719 -0.00567
v 0.05664 0.06731 -0.00521
v 0.05662 0.06627 -0.00567
v 0.05626 0.06655 -0.00521
v 0.05584 0.06559 -0.00567
v 0.05561 0.06599 -0.00521
v 0.05485 0.06527 -0.00567
v 0.0548 0.06572 -0.00521
v 0.05477 0.06599 -0.00581
v 0.05402 0.06605 -0.00581
v 0.05464 0.06699 -0.00581
v 0.05548 0.06622 -0.00581
v 0.05335 0.06638 -0.00581
v 0.05525 0.06734 -0.00581
v 0.05605 0.06672 -0.00581
v 0.05639 0.06739 -0.00581
v 0.05286 0.06695 -0.00581
v 0.05262 0.06767 -0.00581
v 0.05268 0.06841 -0.00581
v 0.05301 0.06909 -0.00581
v 0.05358 0.06958 -0.00581
v 0.05442 0.06881 -0.00581
v 0.0543 0.06981 -0.00581
v 0.05505 0.06976 -0.00581
v 0.05509 0.06862 -0.00581
v 0.05572 0.06942 -0.00581
v 0.05621 0.06885 -0.00581
v 0.05544 0.06801 -0.00581
v 0.05644 0.06813 -0.00581
v 0.05433 0.0652 0.04496
v 0.0563 0.06585 0.04496
v 0.05597 0.06623 0.04964
v 0.05437 0.0657 0.04964
v 0.05723 0.0677 0.04496
v 0.05673 0.06774 0.04964
v 0.05658 0.06967 0.04496
v 0.05469 0.0701 0.04964
v 0.0562 0.06934 0.04964
v 0.05463 0.06923 0.05351
v 0.05554 0.06877 0.05351
v 0.05459 0.06865 0.05485
v 0.0551 0.06839 0.05485
v 0.05453 0.0679 0.05535
v 0.05587 0.0678 0.05351
v 0.05528 0.06784 0.05485
v 0.05502 0.06733 0.05485
v 0.0554 0.06689 0.05351
v 0.05443 0.06657 0.05351
v 0.05448 0.06715 0.05485
v 0.05846 0.07128 -0.00433
v 0.05904 0.07045 -0.00433
v 0.05836 0.07007 -0.00404
v 0.05945 0.06952 -0.00433
v 0.05967 0.06853 -0.00433
v 0.0589 0.06844 -0.00404
v 0.0597 0.06752 -0.00433
v 0.05952 0.06652 -0.00433
v 0.05877 0.06672 -0.00404
v 0.05916 0.06557 -0.00433
v 0.05861 0.06471 -0.00433
v 0.058 0.06519 -0.00404
v 0.05791 0.06398 -0.00433
v 0.05708 0.06339 -0.00433
v 0.05615 0.06298 -0.00433
v 0.05516 0.06276 -0.00433
v 0.0567 0.06407 -0.00404
v 0.058 0.06519 -0.00294
v 0.05877 0.06672 -0.00294
v 0.0589 0.06844 -0.00294
v 0.0567 0.06407 -0.00294
v 0.05507 0.06353 -0.00404
v 0.05507 0.06353 -0.00294
v 0.05615 0.06298 -0.00212
v 0.05516 0.06276 0.03313
v 0.05516 0.06276 -0.00212
v 0.05615 0.06298 0.03313
v 0.05708 0.06339 -0.00212
v 0.05791 0.06398 -0.00212
v 0.05708 0.06339 0.03313
v 0.05615 0.06503 0.03688
v 0.05493 0.06463 0.03688
v 0.05713 0.06587 0.03688
v 0.05791 0.06398 0.03313
v 0.05861 0.06471 -0.00212
v 0.05861 0.06471 0.03313
v 0.05771 0.06702 0.03688
v 0.05916 0.06557 -0.00212
v 0.05916 0.06557 0.03313
v 0.05952 0.06652 -0.00212
v 0.0597 0.06752 -0.00212
v 0.05952 0.06652 0.03313
v 0.0578 0.0683 0.03688
v 0.05969 0.06752 0.03313
v 0.0574 0.06952 0.03688
v 0.05967 0.06853 -0.00212
v 0.05967 0.06853 0.03313
v 0.05945 0.06952 0.03313
v 0.05945 0.06952 -0.00212
v 0.05836 0.07007 -0.00294
v 0.05904 0.07045 -0.00212
v 0.05904 0.07045 0.03313
v 0.05846 0.07128 -0.00212
v 0.05724 0.07137 -0.00294
v 0.05686 0.07253 -0.00212
v 0.05772 0.07198 -0.00212
v 0.05846 0.07128 0.03313
v 0.05686 0.07253 0.03313
v 0.05772 0.07198 0.03313
v 0.05656 0.0705 0.03688
v 0.05248 0.06613 0.04496
v 0.05183 0.0681 0.04496
v 0.05286 0.06646 0.04964
v 0.05352 0.06703 0.05351
v 0.05233 0.06806 0.04964
v 0.05276 0.06995 0.04496
v 0.05309 0.06957 0.04964
v 0.0532 0.068 0.05351
v 0.05396 0.06741 0.05485
v 0.05366 0.06891 0.05351
v 0.05378 0.06796 0.05485
v 0.05404 0.06847 0.05485
v 0.04961 0.06628 -0.00212
v 0.04961 0.06628 0.03313
v 0.04939 0.06727 0.03313
v 0.05126 0.0675 0.03688
v 0.04939 0.06727 -0.00212
v 0.04936 0.06828 0.03313
v 0.05016 0.06736 -0.00294
v 0.04936 0.06828 -0.00212
v 0.04954 0.06928 0.03313
v 0.05135 0.06878 0.03688
v 0.04954 0.06928 -0.00212
v 0.05029 0.06908 -0.00294
v 0.04991 0.07023 0.03313
v 0.05166 0.06628 0.03688
v 0.05193 0.06993 0.03688
v 0.0525 0.0653 0.03688
v 0.05291 0.07077 0.03688
v 0.05045 0.07109 0.03313
v 0.04991 0.07023 -0.00212
v 0.05291 0.07282 0.03313
v 0.05115 0.07182 0.03313
v 0.05198 0.07241 0.03313
v 0.05291 0.07282 -0.00212
v 0.05045 0.07109 -0.00212
v 0.05236 0.07173 -0.00294
v 0.05198 0.07241 -0.00212
v 0.05115 0.07182 -0.00212
v 0.05106 0.07061 -0.00294
v 0.05236 0.07173 -0.00404
v 0.05106 0.07061 -0.00404
v 0.05291 0.07282 -0.00433
v 0.05198 0.07241 -0.00433
v 0.05115 0.07182 -0.00433
v 0.05045 0.07109 -0.00433
v 0.04991 0.07023 -0.00433
v 0.05029 0.06908 -0.00404
v 0.04954 0.06928 -0.00433
v 0.04936 0.06828 -0.00433
v 0.05016 0.06736 -0.00404
v 0.04939 0.06727 -0.00433
v 0.04961 0.06628 -0.00433
v 0.0507 0.06573 -0.00294
v 0.0507 0.06573 -0.00404
v 0.05002 0.06535 -0.00433
v 0.05061 0.06452 -0.00433
v 0.05134 0.06382 -0.00433
v 0.05182 0.06443 -0.00404
v 0.0522 0.06327 -0.00433
v 0.05182 0.06443 -0.00294
v 0.05315 0.06291 -0.00433
v 0.05415 0.06273 -0.00433
v 0.05335 0.06366 -0.00404
v 0.05335 0.06366 -0.00294
v 0.05415 0.06273 -0.00212
v 0.05415 0.06273 0.03313
v 0.05315 0.06291 -0.00212
v 0.05315 0.06291 0.03313
v 0.05365 0.06472 0.03688
v 0.0522 0.06327 0.03313
v 0.0522 0.06327 -0.00212
v 0.05134 0.06382 0.03313
v 0.05134 0.06382 -0.00212
v 0.05061 0.06452 0.03313
v 0.05061 0.06452 -0.00212
v 0.05002 0.06535 0.03313
v 0.05002 0.06535 -0.00212
vt 0.785645 0.995117
vt 0.783691 0.995117
vt 0.784668 0.996094
vt 0.783691 0.996094
vt 0.786133 0.996094
vt 0.787109 0.996094
vt 0.786133 0.997559
vt 0.787598 0.997559
vt 0.788574 0.997559
vt 0.788086 0.996094
vt 0.788086 0.995117
vt 0.787598 0.993652
vt 0.785645 0.993652
vt 0.786133 0.992676
vt 0.785156 0.992676
vt 0.787109 0.992676
vt 0.785156 0.95166
vt 0.786133 0.95166
vt 0.787109 0.95166
vt 0.782715 0.946777
vt 0.78418 0.946777
vt 0.782715 0.940918
vt 0.78418 0.940918
vt 0.047729 0.020294
vt 0.047699 0.016693
vt 0.0466 0.016693
vt 0.110779 0.089966
vt 0.110779 0.088318
vt 0.110291 0.088318
vt 0.110291 0.086609
vt 0.110291 0.089966
vt 0.110779 0.086609
vt 0.110779 0.091614
vt 0.110291 0.0849
vt 0.110291 0.091553
vt 0.110779 0.0849
vt 0.110779 0.09314
vt 0.110291 0.083191
vt 0.110291 0.093079
vt 0.110779 0.083191
vt 0.110779 0.094604
vt 0.110291 0.081482
vt 0.110291 0.094543
vt 0.110779 0.095947
vt 0.110291 0.096008
vt 0.110779 0.081482
vt 0.110291 0.079773
vt 0.110779 0.079773
vt 0.110291 0.078064
vt 0.110779 0.078064
vt 0.110291 0.076416
vt 0.110779 0.076416
vt 0.110291 0.074829
vt 0.110779 0.074829
vt 0.110291 0.073364
vt 0.110779 0.073303
vt 0.110291 0.071899
vt 0.110779 0.071838
vt 0.110291 0.070435
vt 0.110779 0.070496
vt 0.516602 0.200195
vt 0.51709 0.199463
vt 0.516113 0.199463
vt 0.516602 0.198853
vt 0.519531 0.193604
vt 0.519043 0.194336
vt 0.520508 0.194214
vt 0.520996 0.195557
vt 0.521484 0.194946
vt 0.522461 0.195923
vt 0.522461 0.197266
vt 0.522949 0.197021
vt 0.523438 0.19812
vt 0.522949 0.199463
vt 0.523438 0.199341
vt 0.523438 0.200684
vt 0.522461 0.201538
vt 0.522949 0.201782
vt 0.522461 0.202881
vt 0.520996 0.203369
vt 0.521484 0.203857
vt 0.520508 0.204712
vt 0.514648 0.201904
vt 0.516113 0.202637
vt 0.515137 0.201416
vt 0.516113 0.202026
vt 0.51709 0.202881
vt 0.51709 0.202148
vt 0.514648 0.200562
vt 0.51416 0.200806
vt 0.514648 0.199585
vt 0.513672 0.199585
vt 0.514648 0.198486
vt 0.51416 0.198242
vt 0.515137 0.197632
vt 0.514648 0.197144
vt 0.516113 0.197021
vt 0.515625 0.196411
vt 0.512207 0.197388
vt 0.511719 0.199585
vt 0.512207 0.20166
vt 0.51123 0.198364
vt 0.510742 0.199585
vt 0.51123 0.197144
vt 0.51123 0.200806
vt 0.51123 0.202026
vt 0.511719 0.196045
vt 0.512207 0.203003
vt 0.513184 0.195679
vt 0.512695 0.195068
vt 0.513672 0.194336
vt 0.513184 0.203491
vt 0.515137 0.194336
vt 0.512695 0.203979
vt 0.513672 0.204712
vt 0.514648 0.193726
vt 0.515137 0.204712
vt 0.514648 0.205322
vt 0.515625 0.193359
vt 0.516113 0.205688
vt 0.51709 0.205078
vt 0.51709 0.205811
vt 0.518555 0.205688
vt 0.51709 0.19397
vt 0.51709 0.193237
vt 0.518066 0.193359
vt 0.519531 0.20459
vt 0.519531 0.205322
vt 0.518555 0.202515
vt 0.519531 0.201782
vt 0.520508 0.200684
vt 0.519043 0.201416
vt 0.519531 0.200439
vt 0.518066 0.201904
vt 0.520508 0.199463
vt 0.52002 0.199463
vt 0.52002 0.19812
vt 0.519531 0.198486
vt 0.519531 0.197144
vt 0.519043 0.197632
vt 0.518555 0.196411
vt 0.518066 0.197021
vt 0.51709 0.196167
vt 0.51709 0.196777
vt 0.51709 0.19751
vt 0.516602 0.197632
vt 0.51709 0.198486
vt 0.518066 0.197632
vt 0.515625 0.19812
vt 0.518066 0.198853
vt 0.518555 0.197998
vt 0.519043 0.19873
vt 0.515137 0.19873
vt 0.515137 0.199585
vt 0.515137 0.200317
vt 0.515625 0.200928
vt 0.516602 0.201416
vt 0.51709 0.200439
vt 0.51709 0.201538
vt 0.518066 0.201416
vt 0.518066 0.200195
vt 0.518555 0.200928
vt 0.519043 0.200195
vt 0.518066 0.199463
vt 0.519043 0.199463
vt 0.057526 0.019424
vt 0.056824 0.016693
vt 0.054932 0.019485
vt 0.055359 0.016693
vt 0.053955 0.016693
vt 0.055542 0.024414
vt 0.057465 0.024323
vt 0.052429 0.019638
vt 0.052582 0.016693
vt 0.05127 0.016693
vt 0.05368 0.024719
vt 0.050079 0.019913
vt 0.050018 0.016693
vt 0.048828 0.016693
vt 0.050232 0.026093
vt 0.05191 0.025238
vt 0.05368 0.03006
vt 0.054474 0.029312
vt 0.055725 0.031036
vt 0.055969 0.030518
vt 0.057373 0.030884
vt 0.055359 0.028839
vt 0.056366 0.030212
vt 0.056854 0.030029
vt 0.056366 0.02858
vt 0.057404 0.028503
vt 0.057404 0.029953
vt 0.783691 0.997559
vt 0.785156 0.997559
vt 0.782715 0.996094
vt 0.782715 0.997559
vt 0.781738 0.997559
vt 0.78125 0.996094
vt 0.78125 0.995117
vt 0.780273 0.996094
vt 0.780273 0.997559
vt 0.779297 0.997559
vt 0.779297 0.996094
vt 0.779297 0.995117
vt 0.777832 0.996094
vt 0.777832 0.997559
vt 0.776855 0.997559
vt 0.776855 0.996094
vt 0.776855 0.995117
vt 0.775879 0.996094
vt 0.775879 0.997559
vt 0.774414 0.997559
vt 0.774414 0.996094
vt 0.774414 0.995117
vt 0.773438 0.996094
vt 0.773438 0.997559
vt 0.772461 0.997559
vt 0.772461 0.996094
vt 0.770996 0.996094
vt 0.770996 0.997559
vt 0.77002 0.997559
vt 0.77002 0.996094
vt 0.772461 0.995117
vt 0.774414 0.993652
vt 0.776855 0.993652
vt 0.778809 0.993652
vt 0.772461 0.993652
vt 0.77002 0.995117
vt 0.77002 0.993652
vt 0.770996 0.992676
vt 0.77002 0.95166
vt 0.77002 0.992676
vt 0.770996 0.95166
vt 0.771973 0.992676
vt 0.773438 0.992676
vt 0.771973 0.95166
vt 0.771973 0.946777
vt 0.77002 0.946777
vt 0.77002 0.940918
vt 0.771973 0.940918
vt 0.773926 0.946777
vt 0.773438 0.95166
vt 0.773926 0.940918
vt 0.774414 0.992676
vt 0.774414 0.95166
vt 0.775879 0.946777
vt 0.775391 0.992676
vt 0.775391 0.95166
vt 0.775879 0.940918
vt 0.776367 0.992676
vt 0.777344 0.992676
vt 0.776367 0.95166
vt 0.777832 0.946777
vt 0.777832 0.940918
vt 0.777344 0.95166
vt 0.779297 0.946777
vt 0.779297 0.940918
vt 0.778809 0.992676
vt 0.778809 0.95166
vt 0.779785 0.95166
vt 0.779785 0.992676
vt 0.78125 0.993652
vt 0.780762 0.992676
vt 0.780762 0.95166
vt 0.781738 0.992676
vt 0.783203 0.993652
vt 0.78418 0.992676
vt 0.782715 0.992676
vt 0.781738 0.95166
vt 0.78418 0.95166
vt 0.782715 0.95166
vt 0.78125 0.946777
vt 0.78125 0.940918
vt 0.0625 0.016693
vt 0.061157 0.016693
vt 0.060089 0.019485
vt 0.059723 0.016693
vt 0.058289 0.016693
vt 0.062561 0.019669
vt 0.063843 0.016693
vt 0.059387 0.024429
vt 0.065063 0.016693
vt 0.058441 0.028595
vt 0.061218 0.024765
vt 0.06488 0.019989
vt 0.066223 0.016693
vt 0.067383 0.016693
vt 0.067139 0.020676
vt 0.062927 0.025345
vt 0.064575 0.026245
vt 0.059448 0.02887
vt 0.057922 0.030029
vt 0.060303 0.029358
vt 0.061066 0.030121
vt 0.058411 0.030212
vt 0.058807 0.030533
vt 0.059021 0.031052
vt 0.762695 0.992676
vt 0.762695 0.95166
vt 0.76123 0.95166
vt 0.762207 0.946777
vt 0.76123 0.992676
vt 0.760254 0.95166
vt 0.76123 0.993652
vt 0.760254 0.992676
vt 0.759277 0.95166
vt 0.760742 0.946777
vt 0.759277 0.992676
vt 0.758789 0.993652
vt 0.758301 0.95166
vt 0.760742 0.940918
vt 0.762207 0.940918
vt 0.758789 0.940918
vt 0.76416 0.946777
vt 0.76416 0.940918
vt 0.758789 0.946777
vt 0.757324 0.940918
vt 0.766113 0.946777
vt 0.766113 0.940918
vt 0.757324 0.946777
vt 0.755859 0.940918
vt 0.755859 0.946777
vt 0.756836 0.95166
vt 0.758301 0.992676
vt 0.753906 0.95166
vt 0.752441 0.95166
vt 0.755859 0.95166
vt 0.754883 0.95166
vt 0.753906 0.992676
vt 0.752441 0.992676
vt 0.752441 0.993652
vt 0.756836 0.992676
vt 0.754395 0.993652
vt 0.754883 0.992676
vt 0.751953 0.995117
vt 0.755859 0.992676
vt 0.756836 0.993652
vt 0.754395 0.995117
vt 0.756348 0.995117
vt 0.75293 0.996094
vt 0.751465 0.996094
vt 0.751465 0.997559
vt 0.752441 0.997559
vt 0.753906 0.997559
vt 0.753906 0.996094
vt 0.754883 0.996094
vt 0.754883 0.997559
vt 0.756348 0.997559
vt 0.756348 0.996094
vt 0.757324 0.996094
vt 0.757324 0.997559
vt 0.758301 0.997559
vt 0.758789 0.995117
vt 0.758301 0.996094
vt 0.759766 0.996094
vt 0.759766 0.997559
vt 0.760742 0.997559
vt 0.760742 0.995117
vt 0.760742 0.996094
vt 0.762207 0.996094
vt 0.761719 0.997559
vt 0.763184 0.997559
vt 0.763184 0.993652
vt 0.763184 0.995117
vt 0.763184 0.996094
vt 0.76416 0.996094
vt 0.76416 0.997559
vt 0.765625 0.997559
vt 0.765625 0.996094
vt 0.765625 0.995117
vt 0.766602 0.996094
vt 0.766602 0.997559
vt 0.767578 0.997559
vt 0.765625 0.993652
vt 0.767578 0.996094
vt 0.769043 0.996094
vt 0.767578 0.995117
vt 0.769043 0.997559
vt 0.767578 0.993652
vt 0.769043 0.992676
vt 0.769043 0.95166
vt 0.768066 0.992676
vt 0.768066 0.95166
vt 0.768066 0.946777
vt 0.766602 0.95166
vt 0.766602 0.992676
vt 0.768066 0.940918
vt 0.765625 0.95166
vt 0.765625 0.992676
vt 0.764648 0.95166
vt 0.764648 0.992676
vt 0.763672 0.95166
vt 0.763672 0.992676
vn 0.2364 0.8463 0.4773
vn 0.54 0.6938 0.4765
vn 0.3618 0.7155 0.5976
vn 0.5408 0.6881 0.4838
vn 0.2334 0.8436 0.4836
vn 0.0583 0.8009 0.596
vn 0.2688 0.9632 0.0012
vn 0.0745 0.9972 -0.001
vn -0.023 0.9997 -0.001
vn -0.0202 0.8766 0.4807
vn 0.0593 0.8807 0.47
vn 0.0571 0.925 -0.3756
vn 0.2482 0.8902 -0.382
vn 0.0742 0.9968 -0.029
vn 0.268 0.9632 -0.0208
vn -0.0235 0.9995 -0.0214
vn 0.2689 0.9619 0.0488
vn 0.0733 0.9961 0.0492
vn -0.0241 0.9986 0.0471
vn 0.2646 0.9408 0.212
vn 0.0673 0.9755 0.2093
vn 0.2688 0.9632 -0.0012
vn 0.4291 0.8985 0.093
vn 0.2902 0.9549 0.0626
vn 0.0734 0.9971 0.0181
vn 0 -0.001 1
vn 0.0903 -0.0711 -0.9934
vn 0 -0.001 -1
vn 0.1152 0.0143 -0.9932
vn 0.0712 0.0915 -0.9933
vn 0.2246 -0.3975 -0.8897
vn 0.0561 -0.0976 -0.9936
vn 0.2724 -0.3179 -0.9082
vn 0.0877 -0.0686 -0.9938
vn 0.3593 -0.283 -0.8893
vn 0.3737 -0.1883 -0.9083
vn 0.1084 -0.0299 -0.9937
vn 0.4404 -0.1236 -0.8893
vn 0.4192 -0.0305 -0.9074
vn 0.1104 0.0142 -0.9938
vn 0.4548 0.0533 -0.889
vn 0.3973 0.1306 -0.9083
vn 0.0975 0.0549 -0.9937
vn 0.3979 0.2263 -0.8891
vn 0.3181 0.2742 -0.9075
vn 0.0686 0.0889 -0.9937
vn 0.2832 0.3611 -0.8885
vn 0.1884 0.3754 -0.9075
vn 0.1037 -0.0841 -0.991
vn 0.0641 -0.1156 -0.9912
vn -0.0129 0.005 -0.9999
vn -0.009 0.011 -0.9999
vn 0.0156 -0.1325 -0.9911
vn -0.005 0.0129 -0.9999
vn -0.0129 0.001 -0.9999
vn 0.1287 -0.035 -0.9911
vn -0.0119 -0.005 -0.9999
vn 0.1324 0.0145 -0.9911
vn -0.01 -0.009 -0.9999
vn 0.1157 0.0653 -0.9911
vn -0.004 -0.0129 -0.9999
vn 0.084 0.1025 -0.9912
vn 0 -0.0129 -0.9999
vn 0.0373 0.1277 -0.9911
vn -0.0987 -0.055 -0.9936
vn -0.1116 -0.0142 -0.9936
vn -0.1072 0.0298 -0.9938
vn -0.399 -0.1307 -0.9076
vn -0.4542 -0.0561 -0.8892
vn -0.3989 -0.2231 -0.8894
vn -0.4176 0.0305 -0.9081
vn -0.4411 0.1206 -0.8893
vn -0.3164 -0.2739 -0.9082
vn -0.3754 0.1884 -0.9075
vn -0.0697 -0.0866 -0.9938
vn -0.2814 -0.3608 -0.8892
vn -0.1898 -0.3723 -0.9085
vn -0.0889 0.0686 -0.9937
vn -0.031 -0.1073 -0.9937
vn -0.3611 0.2832 -0.8885
vn -0.2742 0.3181 -0.9075
vn -0.1221 -0.4416 -0.8889
vn -0.0549 0.0975 -0.9937
vn -0.2263 0.3979 -0.8891
vn -0.0319 -0.4181 -0.9078
vn -0.1306 0.3973 -0.9083
vn -0.0142 0.1104 -0.9938
vn -0.0561 0.4525 -0.89
vn 0.0305 0.4176 -0.9081
vn 0.0131 -0.1127 -0.9935
vn 0.0547 -0.4553 -0.8887
vn 0.1321 -0.3977 -0.9079
vn 0.0298 0.1072 -0.9938
vn 0.1235 0.4387 -0.8901
vn -0.0361 -0.1276 -0.9912
vn -0.083 -0.1049 -0.991
vn -0.1167 -0.0629 -0.9912
vn 0.005 0.0129 -0.9999
vn 0.009 0.011 -0.9999
vn -0.001 0.0129 -0.9999
vn -0.1314 -0.0167 -0.9912
vn 0.0129 0.005 -0.9999
vn -0.1277 0.0373 -0.9911
vn 0.0129 0.001 -0.9999
vn -0.1048 0.0817 -0.9911
vn 0.0119 -0.005 -0.9999
vn -0.0653 0.1157 -0.9911
vn 0.01 -0.009 -0.9999
vn -0.0145 0.1324 -0.9911
vn 0.006 -0.0109 -0.9999
vn 0.0552 -0.4815 -0.8747
vn -0.1325 -0.465 -0.8753
vn -0.0143 0.1152 -0.9932
vn 0.2337 -0.424 -0.875
vn -0.3014 -0.382 -0.8736
vn -0.0915 0.0712 -0.9933
vn 0.3805 -0.3029 -0.8737
vn 0.4662 -0.1309 -0.8749
vn -0.4226 -0.2353 -0.8752
vn -0.4826 -0.0538 -0.8742
vn -0.4655 0.134 -0.8748
vn -0.3787 0.3027 -0.8746
vn -0.2355 0.4244 -0.8743
vn 0.0132 -0.1151 -0.9933
vn -0.0566 0.482 -0.8743
vn 0.134 0.4655 -0.8748
vn -0.0722 -0.0892 -0.9934
vn 0.3027 0.3787 -0.8746
vn 0.4244 0.2355 -0.8743
vn -0.114 -0.0143 -0.9934
vn 0.482 0.0566 -0.8743
vn -0.0706 -0.9922 0.1025
vn 0.1747 -0.9823 0.067
vn 0.6507 -0.7523 0.1031
vn 0.4689 -0.8812 0.0607
vn 0.8178 -0.5714 0.0684
vn 0.6348 -0.7572 0.1542
vn -0.0863 -0.984 0.1558
vn 0.9921 -0.0718 0.1026
vn 0.9551 -0.2899 0.0613
vn 0.9825 0.1735 0.0682
vn 0.9841 -0.085 0.1556
vn 0.7517 0.6517 0.1015
vn 0.8799 0.471 0.0622
vn 0.5707 0.8184 0.0669
vn 0.4444 0.8845 0.1424
vn 0.7577 0.6337 0.1558
vn 0.436 0.8674 0.2399
vn 0.7506 0.6084 0.2576
vn 0.3917 0.7752 0.4957
vn 0.6615 0.5235 0.537
vn 0.9607 -0.102 0.2582
vn 0.8363 -0.0995 0.5392
vn 0.5218 -0.6615 0.5386
vn 0.6072 -0.7511 0.2593
vn -0.1006 -0.9609 0.258
vn -0.0979 -0.8368 0.5387
vn 0.6168 0.7871 -0.0014
vn 0.4509 0.8926 -0.0013
vn 0.6066 0.5255 0.5965
vn 0.7576 0.6527 -0.0014
vn 0.8706 0.492 -0.0013
vn 0.762 0.431 0.4834
vn 0.7647 0.4339 0.4765
vn 0.7629 0.2501 0.5962
vn 0.9499 0.3125 -0.0012
vn 0.9927 0.1209 -0.0011
vn 0.8687 0.107 0.4836
vn 0.8725 0.1067 0.4768
vn 0.7997 -0.0583 0.5976
vn 0.9972 -0.0744 0
vn 0.9633 -0.2685 0
vn 0.8447 -0.2333 0.4818
vn 0.8474 -0.2362 0.4755
vn 0.717 -0.3618 0.5959
vn 0.8928 -0.4504 0
vn 0.7876 -0.6161 0
vn 0.6895 -0.5406 0.482
vn 0.6924 -0.5402 0.4783
vn 0.5238 -0.6066 0.5981
vn 0.6535 -0.7569 0
vn 0.493 -0.87 0
vn 0.4326 -0.762 0.4818
vn 0.2519 -0.7606 0.5984
vn 0.3136 -0.9495 0
vn 0.122 -0.9925 0
vn 0.1054 -0.8702 0.4814
vn 0.4322 -0.7646 0.4781
vn 0.7286 -0.5694 -0.3807
vn 0.891 -0.248 -0.3802
vn 0.9173 0.1117 -0.3821
vn 0.4558 -0.804 -0.3819
vn 0.1082 -0.873 0.4756
vn 0.1132 -0.9177 -0.3809
vn 0.3127 -0.9494 -0.0277
vn 0.1226 -0.9913 0.0477
vn 0.122 -0.9923 -0.02
vn 0.3124 -0.9487 0.0487
vn 0.4925 -0.87 -0.0216
vn 0.6522 -0.7576 -0.0281
vn 0.4929 -0.8688 0.0468
vn 0.4804 -0.8504 0.2145
vn 0.1197 -0.9695 0.214
vn 0.7714 -0.5994 0.2138
vn 0.6524 -0.7564 0.0484
vn 0.7873 -0.6162 -0.0195
vn 0.7881 -0.6137 0.0482
vn 0.9413 -0.2616 0.2132
vn 0.892 -0.4513 -0.0268
vn 0.8934 -0.4467 0.0489
vn 0.9633 -0.2677 -0.0196
vn 0.9969 -0.0741 -0.0279
vn 0.9629 -0.2657 0.0474
vn 0.9698 0.1157 0.2148
vn 0.9962 -0.0732 0.0481
vn 0.8501 0.4817 0.2129
vn 0.9924 0.1209 -0.0211
vn 0.9918 0.1187 0.0464
vn 0.9494 0.3105 0.0473
vn 0.9498 0.3116 -0.029
vn 0.8039 0.4573 -0.3803
vn 0.8695 0.4936 -0.0203
vn 0.8693 0.4918 0.0482
vn 0.7569 0.653 -0.0267
vn 0.5697 0.7274 -0.3826
vn 0.4486 0.8933 -0.0281
vn 0.6169 0.7868 -0.0209
vn 0.7557 0.6532 0.047
vn 0.4494 0.8921 0.0475
vn 0.6162 0.7862 0.0467
vn 0.6013 0.7713 0.2087
vn -0.9826 -0.1733 0.0669
vn -0.8803 -0.4705 0.0607
vn -0.7509 -0.6523 0.1031
vn -0.573 -0.8167 0.0684
vn -0.2883 -0.9556 0.0612
vn -0.9923 0.0718 0.1014
vn -0.9549 0.2902 0.0626
vn -0.7558 -0.6364 0.1542
vn -0.8184 0.5707 0.0669
vn -0.7497 -0.6089 0.2594
vn -0.9844 0.0849 0.1543
vn -0.6517 0.7517 0.1015
vn -0.471 0.8799 0.0622
vn -0.3132 0.945 0.0938
vn -0.3108 0.9456 0.0965
vn -0.637 0.755 0.1558
vn -0.3089 0.9403 0.1429
vn -0.9607 0.0993 0.2592
vn -0.663 -0.52 0.5385
vn -0.6084 0.7506 0.2576
vn -0.3025 0.9218 0.2423
vn -0.8373 0.0994 0.5376
vn -0.5235 0.6615 0.537
vn -0.2675 0.8086 0.524
vn -0.9489 -0.3142 -0.0278
vn -0.9482 -0.3139 0.0487
vn -0.9915 -0.1214 0.0476
vn -0.9697 -0.1183 0.2138
vn -0.9922 -0.1232 -0.02
vn -0.9961 0.0733 0.0492
vn -0.9173 -0.1147 -0.3813
vn -0.9968 0.0742 -0.029
vn -0.9622 0.2683 0.0462
vn -0.9409 0.2619 0.2148
vn -0.9632 0.268 -0.0208
vn -0.8902 0.2482 -0.382
vn -0.8921 0.4494 0.0475
vn -0.964 0.266 -0.0012
vn -0.9927 -0.1208 0
vn -0.7895 0.6137 -0.0014
vn -0.8494 -0.4821 0.2146
vn -0.8709 -0.4914 0
vn -0.7695 0.6023 0.2121
vn -0.492 0.8706 -0.0013
vn -0.6011 -0.77 0.2138
vn -0.6146 -0.7888 0
vn -0.4843 0.8494 0.2097
vn -0.3125 0.9499 -0.0012
vn -0.3032 0.9295 0.2101
vn -0.7875 0.6144 0.0497
vn -0.8933 0.4486 -0.0281
vn -0.3136 0.9484 0.0474
vn -0.2196 0.9744 0.0473
vn -0.6545 0.7544 0.0499
vn -0.4918 0.8693 0.0482
vn -0.3146 0.9488 -0.0291
vn -0.2198 0.9753 -0.0202
vn -0.2779 0.8848 -0.374
vn -0.7868 0.6169 -0.0209
vn -0.4536 0.8062 -0.3799
vn -0.4936 0.8695 -0.0203
vn -0.2705 0.8394 0.4715
vn -0.653 0.7569 -0.0267
vn -0.7274 0.5697 -0.3826
vn -0.4339 0.7647 0.4765
vn -0.6938 0.54 0.4765
vn -0.2501 0.7629 0.5962
vn -0.1927 0.8561 0.4796
vn -0.2185 0.9758 -0.0012
vn -0.492 0.8706 0.0013
vn -0.431 0.762 0.4834
vn -0.522 0.6098 0.5963
vn -0.6527 0.7576 -0.0014
vn -0.7895 0.6137 0.0014
vn -0.6911 0.5371 0.4836
vn -0.7155 0.3618 0.5976
vn -0.8942 0.4477 0.0013
vn -0.964 0.266 0.0012
vn -0.8463 0.2364 0.4773
vn -0.8436 0.2334 0.4836
vn -0.7997 0.0613 0.5973
vn -0.9974 0.0722 0.001
vn -0.8725 -0.1098 0.4762
vn -0.8697 -0.1069 0.4819
vn -0.7615 -0.2502 0.5979
vn -0.95 -0.3122 0
vn -0.8051 -0.4539 -0.3817
vn -0.7658 -0.4304 0.4778
vn -0.7633 -0.4308 0.4815
vn -0.6082 -0.522 0.598
vn -0.7582 -0.652 0
vn -0.5388 -0.691 0.4819
vn -0.542 -0.6909 0.4784
vn -0.3599 -0.7182 0.5955
vn -0.4488 -0.8936 0
vn -0.2671 -0.9637 0
vn -0.5676 -0.73 -0.3806
vn -0.235 -0.8439 0.4822
vn -0.0598 -0.7991 0.5982
vn -0.2345 -0.8481 0.4751
vn -0.0733 -0.9973 0
vn -0.2463 -0.8917 -0.3798
vn -0.073 -0.9969 -0.0279
vn -0.0743 -0.9961 0.0481
vn -0.2663 -0.9637 -0.0195
vn -0.2671 -0.9625 0.0474
vn -0.26 -0.9418 0.213
vn -0.4483 -0.8925 0.0489
vn -0.4497 -0.8928 -0.0268
vn -0.6153 -0.7868 0.0482
vn -0.6147 -0.7885 -0.0195
vn -0.7577 -0.6508 0.0484
vn -0.7563 -0.6537 -0.0281
vn -0.8697 -0.4913 0.0468
vn -0.8709 -0.4909 -0.0216
o bullet13__p1_c0
f 1/1/1 2/2/2 3/3/3
f 3/3/3 2/2/2 4/4/4
f 1/1/1 3/3/3 5/5/5
f 1/1/1 5/5/5 6/6/6
f 6/6/6 5/5/5 7/7/7
f 6/6/6 7/7/7 8/8/8
f 6/6/6 8/8/8 9/9/9
f 6/6/6 9/9/9 10/10/10
f 6/6/6 10/10/10 11/11/11
f 6/6/6 11/11/11 1/1/1
f 1/1/1 11/11/11 12/12/12
f 1/1/1 12/12/12 13/13/13
f 13/13/13 12/12/12 14/14/14
f 13/13/13 14/14/14 15/15/15
f 14/14/14 12/12/12 16/16/16
f 15/15/15 14/14/14 17/17/17
f 14/14/14 16/16/16 18/18/18
f 14/14/14 18/18/18 17/17/17
f 18/18/18 16/16/16 19/19/19
f 17/17/17 18/18/18 20/20/20
f 18/18/18 19/19/19 21/21/21
f 18/18/18 21/21/21 20/20/20
f 20/20/20 21/21/21 22/22/22
f 22/22/22 21/21/21 23/23/8
f 24/24/23 25/25/24 26/26/25
f 27/27/26 28/28/26 29/29/26
f 29/29/26 28/28/26 30/30/26
f 27/27/26 29/29/26 31/31/26
f 30/30/26 28/28/26 32/32/26
f 27/27/26 31/31/26 33/33/26
f 30/30/26 32/32/26 34/34/26
f 33/33/26 31/31/26 35/35/26
f 34/34/26 32/32/26 36/36/26
f 33/33/26 35/35/26 37/37/26
f 34/34/26 36/36/26 38/38/26
f 37/37/26 35/35/26 39/39/26
f 38/38/26 36/36/26 40/40/26
f 37/37/26 39/39/26 25/41/26
f 38/38/26 40/40/26 41/42/26
f 25/41/26 39/39/26 22/43/26
f 25/41/26 22/43/26 26/44/26
f 26/44/26 22/43/26 23/45/26
f 41/42/26 40/40/26 42/46/26
f 41/42/26 42/46/26 43/47/26
f 43/47/26 42/46/26 44/48/26
f 43/47/26 44/48/26 45/49/26
f 45/49/26 44/48/26 46/50/26
f 45/49/26 46/50/26 47/51/26
f 47/51/26 46/50/26 48/52/26
f 47/51/26 48/52/26 49/53/26
f 49/53/26 48/52/26 50/54/26
f 49/53/26 50/54/26 51/55/26
f 51/55/26 50/54/26 52/56/26
f 51/55/26 52/56/26 53/57/26
f 53/57/26 52/56/26 54/58/26
f 53/57/26 54/58/26 23/59/26
f 23/59/26 54/58/26 26/60/26
f 55/61/27 56/62/28 57/63/29
f 57/63/29 56/62/28 58/64/30
f 59/65/31 60/66/32 61/67/33
f 61/67/33 60/66/32 62/68/34
f 61/67/33 62/68/34 63/69/35
f 63/69/35 62/68/34 64/70/36
f 64/70/36 62/68/34 65/71/37
f 64/70/36 65/71/37 66/72/38
f 66/72/38 65/71/37 67/73/39
f 67/73/39 65/71/37 68/74/40
f 67/73/39 68/74/40 69/75/41
f 69/75/41 68/74/40 70/76/42
f 70/76/42 68/74/40 71/77/43
f 70/76/42 71/77/43 72/78/44
f 72/78/44 71/77/43 73/79/45
f 73/79/45 71/77/43 74/80/46
f 73/79/45 74/80/46 75/81/47
f 75/81/47 74/80/46 76/82/48
f 77/83/49 78/84/50 79/85/51
f 79/85/51 78/84/50 80/86/52
f 80/86/52 78/84/50 81/87/53
f 80/86/52 81/87/53 82/88/54
f 77/83/49 79/85/51 83/89/55
f 77/83/49 83/89/55 84/90/56
f 84/90/56 83/89/55 85/91/57
f 84/90/56 85/91/57 86/92/58
f 86/92/58 85/91/57 87/93/59
f 86/92/58 87/93/59 88/94/60
f 88/94/60 87/93/59 89/95/61
f 88/94/60 89/95/61 90/96/62
f 90/96/62 89/95/61 91/97/63
f 90/96/62 91/97/63 92/98/64
f 93/99/65 94/100/66 86/92/58
f 86/92/58 94/100/66 84/90/56
f 93/99/65 86/92/58 88/94/60
f 84/90/56 94/100/66 95/101/67
f 84/90/56 95/101/67 77/83/49
f 94/100/66 93/99/65 96/102/68
f 94/100/66 96/102/68 97/103/69
f 96/102/68 93/99/65 98/104/70
f 94/100/66 97/103/69 99/105/71
f 94/100/66 99/105/71 95/101/67
f 95/101/67 99/105/71 100/106/72
f 98/104/70 93/99/65 101/107/73
f 95/101/67 100/106/72 102/108/74
f 101/107/73 93/99/65 103/109/75
f 103/109/75 93/99/65 88/94/60
f 101/107/73 103/109/75 104/110/76
f 103/109/75 88/94/60 90/96/62
f 104/110/76 103/109/75 105/111/77
f 95/101/67 102/108/74 106/112/78
f 103/109/75 90/96/62 107/113/79
f 103/109/75 107/113/79 105/111/77
f 106/112/78 102/108/74 108/114/80
f 95/101/67 106/112/78 77/83/49
f 106/112/78 108/114/80 109/115/81
f 77/83/49 106/112/78 78/84/50
f 105/111/77 107/113/79 110/116/82
f 106/112/78 109/115/81 111/117/83
f 106/112/78 111/117/83 78/84/50
f 111/117/83 109/115/81 112/118/84
f 110/116/82 107/113/79 113/119/85
f 111/117/83 112/118/84 114/120/86
f 78/84/50 111/117/83 81/87/53
f 111/117/83 114/120/86 115/121/87
f 111/117/83 115/121/87 81/87/53
f 115/121/87 114/120/86 9/122/88
f 115/121/87 9/122/88 8/123/89
f 113/119/85 107/113/79 116/124/90
f 113/119/85 116/124/90 117/125/91
f 117/125/91 116/124/90 118/126/92
f 116/124/90 107/113/79 92/98/64
f 92/98/64 107/113/79 90/96/62
f 115/121/87 8/123/89 119/127/93
f 119/127/93 8/123/89 7/128/94
f 119/127/93 7/128/94 76/82/48
f 119/127/93 76/82/48 74/80/46
f 115/121/87 119/127/93 120/129/95
f 115/121/87 120/129/95 81/87/53
f 119/127/93 74/80/46 121/130/96
f 119/127/93 121/130/96 120/129/95
f 81/87/53 120/129/95 82/88/54
f 121/130/96 74/80/46 122/131/97
f 122/131/97 74/80/46 71/77/43
f 121/130/96 122/131/97 123/132/98
f 123/132/98 122/131/97 124/133/99
f 121/130/96 123/132/98 125/134/100
f 121/130/96 125/134/100 120/129/95
f 120/129/95 125/134/100 82/88/54
f 122/131/97 71/77/43 126/135/101
f 122/131/97 126/135/101 124/133/99
f 126/135/101 71/77/43 68/74/40
f 124/133/99 126/135/101 127/136/102
f 126/135/101 68/74/40 128/137/103
f 126/135/101 128/137/103 127/136/102
f 128/137/103 68/74/40 65/71/37
f 127/136/102 128/137/103 129/138/104
f 128/137/103 65/71/37 130/139/105
f 128/137/103 130/139/105 129/138/104
f 130/139/105 65/71/37 62/68/34
f 129/138/104 130/139/105 131/140/106
f 130/139/105 62/68/34 132/141/107
f 130/139/105 132/141/107 131/140/106
f 131/140/106 132/141/107 133/142/108
f 132/141/107 62/68/34 60/66/32
f 133/142/108 132/141/107 134/143/109
f 134/143/109 132/141/107 60/66/32
f 133/142/108 134/143/109 135/144/110
f 59/65/31 118/126/92 60/66/32
f 60/66/32 118/126/92 116/124/90
f 60/66/32 116/124/90 134/143/109
f 134/143/109 116/124/90 92/98/64
f 134/143/109 92/98/64 135/144/110
f 135/144/110 92/98/64 91/97/63
f 135/144/110 91/97/63 136/145/111
f 136/145/111 91/97/63 137/146/112
f 137/146/112 91/97/63 89/95/61
f 136/145/111 137/146/112 138/147/113
f 136/145/111 138/147/113 139/148/114
f 137/146/112 89/95/61 140/149/115
f 140/149/115 89/95/61 87/93/59
f 138/147/113 137/146/112 58/64/30
f 58/64/30 137/146/112 140/149/115
f 139/148/114 138/147/113 141/150/116
f 139/148/114 141/150/116 142/151/117
f 142/151/117 141/150/116 143/152/118
f 140/149/115 87/93/59 144/153/119
f 140/149/115 144/153/119 58/64/30
f 144/153/119 87/93/59 85/91/57
f 58/64/30 144/153/119 57/63/29
f 56/62/28 138/147/113 58/64/30
f 138/147/113 56/62/28 141/150/116
f 144/153/119 85/91/57 145/154/120
f 144/153/119 145/154/120 57/63/29
f 145/154/120 85/91/57 83/89/55
f 57/63/29 145/154/120 146/155/121
f 146/155/121 145/154/120 83/89/55
f 146/155/121 83/89/55 79/85/51
f 57/63/29 146/155/121 55/61/27
f 146/155/121 79/85/51 147/156/122
f 146/155/121 147/156/122 55/61/27
f 147/156/122 79/85/51 80/86/52
f 147/156/122 80/86/52 148/157/123
f 147/156/122 148/157/123 55/61/27
f 148/157/123 80/86/52 82/88/54
f 55/61/27 148/157/123 149/158/124
f 55/61/27 149/158/124 56/62/28
f 148/157/123 82/88/54 150/159/125
f 148/157/123 150/159/125 149/158/124
f 150/159/125 82/88/54 125/134/100
f 150/159/125 125/134/100 151/160/126
f 150/159/125 151/160/126 149/158/124
f 149/158/124 151/160/126 152/161/127
f 149/158/124 152/161/127 56/62/28
f 152/161/127 151/160/126 153/162/128
f 152/161/127 153/162/128 154/163/129
f 56/62/28 152/161/127 155/164/130
f 155/164/130 152/161/127 154/163/129
f 56/62/28 155/164/130 141/150/116
f 155/164/130 154/163/129 156/165/131
f 141/150/116 155/164/130 143/152/118
f 143/152/118 155/164/130 156/165/131
f 131/140/106 133/142/108 142/151/117
f 142/151/117 133/142/108 139/148/114
f 139/148/114 133/142/108 135/144/110
f 139/148/114 135/144/110 136/145/111
f 131/140/106 142/151/117 143/152/118
f 131/140/106 143/152/118 129/138/104
f 129/138/104 143/152/118 156/165/131
f 129/138/104 156/165/131 127/136/102
f 127/136/102 156/165/131 154/163/129
f 127/136/102 154/163/129 124/133/99
f 124/133/99 154/163/129 153/162/128
f 124/133/99 153/162/128 123/132/98
f 123/132/98 153/162/128 151/160/126
f 123/132/98 151/160/126 125/134/100
f 157/166/132 40/167/133 158/168/134
f 158/168/134 40/167/133 36/169/135
f 158/168/134 36/169/135 32/170/136
f 157/166/132 158/168/134 159/171/137
f 157/166/132 159/171/137 160/172/138
f 158/168/134 32/170/136 161/173/139
f 161/173/139 32/170/136 28/174/140
f 161/173/139 28/174/140 27/175/141
f 158/168/134 161/173/139 162/176/142
f 158/168/134 162/176/142 159/171/137
f 161/173/139 27/175/141 163/177/143
f 163/177/143 27/175/141 33/178/144
f 163/177/143 33/178/144 37/179/145
f 163/177/143 37/179/145 24/24/23
f 24/24/23 37/179/145 25/25/24
f 163/177/143 24/24/23 164/180/146
f 161/173/139 163/177/143 165/181/147
f 165/181/147 163/177/143 164/180/146
f 161/173/139 165/181/147 162/176/142
f 165/181/147 164/180/146 166/182/148
f 165/181/147 166/182/148 167/183/149
f 165/181/147 167/183/149 162/176/142
f 167/183/149 166/182/148 168/184/150
f 167/183/149 168/184/150 169/185/151
f 169/185/151 168/184/150 170/186/26
f 162/176/142 167/183/149 171/187/152
f 171/187/152 167/183/149 169/185/151
f 162/176/142 171/187/152 159/171/137
f 169/185/151 170/186/26 172/188/153
f 169/185/151 172/188/153 171/187/152
f 172/188/153 170/186/26 173/189/154
f 159/171/137 171/187/152 174/190/155
f 174/190/155 171/187/152 172/188/153
f 174/190/155 172/188/153 173/189/154
f 159/171/137 174/190/155 160/172/138
f 160/172/138 174/190/155 175/191/156
f 175/191/156 174/190/155 173/189/154
f 175/191/156 173/189/154 176/192/157
f 75/193/158 76/194/159 3/3/3
f 3/3/3 76/194/159 7/7/7
f 3/3/3 7/7/7 5/5/5
f 75/193/158 3/3/3 4/4/4
f 75/193/158 4/4/4 177/195/160
f 75/193/158 177/195/160 73/196/161
f 73/196/161 177/195/160 72/197/162
f 177/195/160 4/4/4 2/2/2
f 72/197/162 177/195/160 178/198/163
f 177/195/160 2/2/2 179/199/164
f 177/195/160 179/199/164 178/198/163
f 72/197/162 178/198/163 180/200/165
f 180/200/165 178/198/163 179/199/164
f 72/197/162 180/200/165 70/201/166
f 70/201/166 180/200/165 69/202/167
f 69/202/167 180/200/165 181/203/168
f 180/200/165 179/199/164 182/204/169
f 180/200/165 182/204/169 181/203/168
f 69/202/167 181/203/168 183/205/170
f 183/205/170 181/203/168 182/204/169
f 69/202/167 183/205/170 67/206/171
f 67/206/171 183/205/170 66/207/172
f 66/207/172 183/205/170 184/208/173
f 183/205/170 182/204/169 185/209/174
f 183/205/170 185/209/174 184/208/173
f 66/207/172 184/208/173 186/210/175
f 186/210/175 184/208/173 185/209/174
f 66/207/172 186/210/175 64/211/176
f 64/211/176 186/210/175 63/212/177
f 63/212/177 186/210/175 187/213/178
f 186/210/175 185/209/174 188/214/179
f 186/210/175 188/214/179 187/213/178
f 63/212/177 187/213/178 189/215/180
f 189/215/180 187/213/178 188/214/179
f 63/212/177 189/215/180 61/216/181
f 61/216/181 189/215/180 59/217/182
f 59/217/182 189/215/180 190/218/183
f 59/217/182 190/218/183 191/219/184
f 59/217/182 191/219/184 118/220/185
f 118/220/185 191/219/184 117/221/186
f 117/221/186 191/219/184 192/222/187
f 190/218/183 189/215/180 193/223/188
f 193/223/188 189/215/180 188/214/179
f 193/223/188 188/214/179 194/224/189
f 195/225/190 188/214/179 185/209/174
f 188/214/179 195/225/190 194/224/189
f 195/225/190 185/209/174 196/226/191
f 196/226/191 185/209/174 182/204/169
f 193/223/188 194/224/189 197/227/192
f 193/223/188 197/227/192 198/228/193
f 198/228/193 197/227/192 199/229/194
f 199/229/194 197/227/192 200/230/195
f 201/231/196 202/232/197 200/230/195
f 201/231/196 200/230/195 203/233/198
f 200/230/195 197/227/192 204/234/199
f 200/230/195 204/234/199 203/233/198
f 204/234/199 197/227/192 205/235/200
f 205/235/200 197/227/192 194/224/189
f 203/233/198 204/234/199 206/236/201
f 206/236/201 204/234/199 205/235/200
f 203/233/198 206/236/201 207/237/202
f 203/233/198 207/237/202 208/238/203
f 208/238/203 207/237/202 38/239/186
f 38/239/186 207/237/202 34/240/182
f 34/240/182 207/237/202 209/241/204
f 207/237/202 206/236/201 210/242/205
f 210/242/205 206/236/201 205/235/200
f 207/237/202 210/242/205 209/241/204
f 34/240/182 209/241/204 30/243/177
f 210/242/205 205/235/200 211/244/206
f 211/244/206 205/235/200 194/224/189
f 209/241/204 210/242/205 212/245/207
f 212/245/207 210/242/205 211/244/206
f 30/243/177 209/241/204 213/246/208
f 211/244/206 194/224/189 214/247/209
f 211/244/206 214/247/209 212/245/207
f 214/247/209 194/224/189 195/225/190
f 209/241/204 212/245/207 215/248/210
f 215/248/210 212/245/207 214/247/209
f 209/241/204 215/248/210 213/246/208
f 30/243/177 213/246/208 29/249/172
f 214/247/209 195/225/190 216/250/211
f 214/247/209 216/250/211 215/248/210
f 216/250/211 195/225/190 217/251/212
f 215/248/210 216/250/211 218/252/213
f 215/248/210 218/252/213 213/246/208
f 218/252/213 216/250/211 217/251/212
f 29/249/172 213/246/208 219/253/214
f 217/251/212 195/225/190 196/226/191
f 29/249/172 219/253/214 31/254/167
f 213/246/208 218/252/213 220/255/215
f 220/255/215 218/252/213 217/251/212
f 213/246/208 220/255/215 219/253/214
f 31/254/167 219/253/214 221/256/216
f 31/254/167 221/256/216 35/257/162
f 217/251/212 196/226/191 222/258/217
f 217/251/212 222/258/217 220/255/215
f 219/253/214 220/255/215 223/259/218
f 223/259/218 220/255/215 222/258/217
f 219/253/214 223/259/218 224/260/219
f 219/253/214 224/260/219 221/256/216
f 223/259/218 222/258/217 225/261/220
f 225/261/220 222/258/217 196/226/191
f 223/259/218 225/261/220 224/260/219
f 225/261/220 196/226/191 226/262/221
f 226/262/221 196/226/191 182/204/169
f 224/260/219 225/261/220 227/263/222
f 227/263/222 225/261/220 226/262/221
f 226/262/221 182/204/169 179/199/164
f 224/260/219 227/263/222 228/264/223
f 224/260/219 228/264/223 221/256/216
f 227/263/222 226/262/221 229/265/224
f 227/263/222 229/265/224 228/264/223
f 226/262/221 179/199/164 230/266/225
f 226/262/221 230/266/225 229/265/224
f 230/266/225 179/199/164 2/2/2
f 230/266/225 2/2/2 13/13/13
f 13/13/13 2/2/2 1/1/1
f 230/266/225 13/13/13 231/267/226
f 231/267/226 13/13/13 15/15/15
f 229/265/224 230/266/225 232/268/227
f 232/268/227 230/266/225 231/267/226
f 233/269/228 228/264/223 229/265/224
f 233/269/228 229/265/224 232/268/227
f 228/264/223 233/269/228 221/256/216
f 231/267/226 15/15/15 234/270/229
f 234/270/229 15/15/15 17/17/17
f 232/268/227 231/267/226 235/271/230
f 235/271/230 231/267/226 234/270/229
f 232/268/227 235/271/230 233/269/228
f 234/270/229 17/17/17 236/272/231
f 221/256/216 233/269/228 236/272/231
f 234/270/229 236/272/231 235/271/230
f 235/271/230 236/272/231 233/269/228
f 221/256/216 236/272/231 35/257/162
f 236/272/231 17/17/17 20/20/20
f 35/257/162 236/272/231 39/273/158
f 39/273/158 236/272/231 20/20/20
f 39/273/158 20/20/20 22/22/22
f 48/274/232 46/275/233 237/276/234
f 237/276/234 46/275/233 44/277/235
f 237/276/234 44/277/235 157/166/132
f 157/166/132 44/277/235 42/278/236
f 157/166/132 42/278/236 40/167/133
f 237/276/234 157/166/132 160/172/138
f 48/274/232 237/276/234 238/279/237
f 48/274/232 238/279/237 50/280/238
f 237/276/234 160/172/138 239/281/239
f 237/276/234 239/281/239 238/279/237
f 239/281/239 160/172/138 175/191/156
f 50/280/238 238/279/237 52/282/240
f 239/281/239 175/191/156 240/283/241
f 240/283/241 175/191/156 176/192/157
f 238/279/237 239/281/239 241/284/242
f 241/284/242 239/281/239 240/283/241
f 52/282/240 238/279/237 242/285/243
f 242/285/243 238/279/237 241/284/242
f 52/282/240 242/285/243 54/286/244
f 54/286/244 242/285/243 26/287/245
f 26/287/245 242/285/243 24/288/246
f 24/288/246 242/285/243 243/289/247
f 243/289/247 242/285/243 241/284/242
f 24/288/246 243/289/247 164/290/248
f 244/291/249 241/284/242 240/283/241
f 241/284/242 244/291/249 243/289/247
f 244/291/249 240/283/241 245/292/250
f 245/292/250 240/283/241 176/192/157
f 164/290/248 243/289/247 246/293/251
f 246/293/251 243/289/247 244/291/249
f 164/290/248 246/293/251 166/294/252
f 244/291/249 245/292/250 247/295/253
f 244/291/249 247/295/253 246/293/251
f 245/292/250 176/192/157 170/186/26
f 245/292/250 170/186/26 247/295/253
f 170/186/26 176/192/157 173/189/154
f 166/294/252 246/293/251 248/296/254
f 248/296/254 246/293/251 247/295/253
f 248/296/254 247/295/253 170/186/26
f 166/294/252 248/296/254 168/297/255
f 168/297/255 248/296/254 170/186/26
f 249/298/256 250/299/257 251/300/258
f 251/300/258 250/299/257 252/301/259
f 249/298/256 251/300/258 253/302/260
f 253/302/260 251/300/258 254/303/261
f 254/303/261 251/300/258 252/301/259
f 249/298/256 253/302/260 255/304/262
f 253/302/260 254/303/261 256/305/263
f 253/302/260 256/305/263 255/304/262
f 256/305/263 254/303/261 257/306/264
f 257/306/264 254/303/261 258/307/265
f 258/307/265 254/303/261 252/301/259
f 256/305/263 257/306/264 259/308/266
f 256/305/263 259/308/266 260/309/267
f 256/305/263 260/309/267 255/304/262
f 259/308/266 257/306/264 261/310/268
f 261/310/268 257/306/264 258/307/265
f 258/307/265 252/301/259 49/311/269
f 49/311/269 252/301/259 47/312/270
f 258/307/265 49/311/269 51/313/271
f 47/312/270 252/301/259 262/314/272
f 262/314/272 252/301/259 250/299/257
f 47/312/270 262/314/272 45/315/273
f 258/307/265 51/313/271 263/316/274
f 258/307/265 263/316/274 261/310/268
f 263/316/274 51/313/271 53/317/275
f 45/315/273 262/314/272 264/318/276
f 45/315/273 264/318/276 43/319/277
f 263/316/274 53/317/275 265/320/278
f 265/320/278 53/317/275 23/321/279
f 265/320/278 23/321/279 21/322/280
f 261/310/268 263/316/274 266/323/281
f 266/323/281 263/316/274 265/320/278
f 261/310/268 266/323/281 267/324/282
f 261/310/268 267/324/282 259/308/266
f 259/308/266 267/324/282 260/309/267
f 265/320/278 21/322/280 268/325/283
f 268/325/283 21/322/280 19/326/284
f 266/323/281 265/320/278 269/327/285
f 265/320/278 268/325/283 270/328/286
f 265/320/278 270/328/286 269/327/285
f 268/325/283 19/326/284 271/329/287
f 271/329/287 19/326/284 16/330/288
f 271/329/287 16/330/288 12/331/289
f 266/323/281 269/327/285 272/332/290
f 266/323/281 272/332/290 267/324/282
f 271/329/287 12/331/289 273/333/291
f 268/325/283 271/329/287 274/334/292
f 268/325/283 274/334/292 270/328/286
f 274/334/292 271/329/287 273/333/291
f 273/333/291 12/331/289 11/335/293
f 270/328/286 274/334/292 275/336/294
f 270/328/286 275/336/294 269/327/285
f 275/336/294 274/334/292 273/333/291
f 269/327/285 275/336/294 272/332/290
f 272/332/290 275/336/294 276/337/295
f 272/332/290 276/337/295 267/324/282
f 276/337/295 275/336/294 273/333/291
f 267/324/282 276/337/295 260/309/267
f 277/338/296 273/333/291 11/335/293
f 273/333/291 277/338/296 276/337/295
f 260/309/267 276/337/295 278/339/297
f 278/339/297 276/337/295 277/338/296
f 277/338/296 11/335/293 279/340/298
f 279/340/298 11/335/293 10/341/299
f 279/340/298 10/341/299 9/342/300
f 279/340/298 9/342/300 114/343/279
f 279/340/298 114/343/279 112/344/301
f 277/338/296 279/340/298 280/345/302
f 280/345/302 279/340/298 112/344/301
f 277/338/296 280/345/302 281/346/303
f 281/346/303 280/345/302 112/344/301
f 277/338/296 281/346/303 278/339/297
f 281/346/303 112/344/301 109/347/304
f 281/346/303 109/347/304 108/348/305
f 278/339/297 281/346/303 282/349/306
f 282/349/306 281/346/303 108/348/305
f 282/349/306 108/348/305 283/350/307
f 282/349/306 283/350/307 278/339/297
f 283/350/307 108/348/305 102/351/308
f 283/350/307 102/351/308 100/352/309
f 278/339/297 283/350/307 284/353/310
f 278/339/297 284/353/310 260/309/267
f 283/350/307 100/352/309 285/354/311
f 283/350/307 285/354/311 284/353/310
f 285/354/311 100/352/309 286/355/312
f 285/354/311 286/355/312 284/353/310
f 286/355/312 100/352/309 99/356/313
f 260/309/267 284/353/310 255/304/262
f 286/355/312 99/356/313 97/357/270
f 255/304/262 284/353/310 287/358/314
f 287/358/314 284/353/310 286/355/312
f 286/355/312 97/357/270 288/359/315
f 286/355/312 288/359/315 287/358/314
f 288/359/315 97/357/270 289/360/316
f 288/359/315 289/360/316 287/358/314
f 289/360/316 97/357/270 96/361/317
f 289/360/316 96/361/317 98/362/273
f 255/304/262 287/358/314 290/363/318
f 287/358/314 289/360/316 291/364/319
f 287/358/314 291/364/319 290/363/318
f 289/360/316 98/362/273 292/365/320
f 289/360/316 292/365/320 291/364/319
f 292/365/320 98/362/273 293/366/321
f 292/365/320 293/366/321 291/364/319
f 293/366/321 98/362/273 101/367/322
f 293/366/321 101/367/322 104/368/277
f 255/304/262 290/363/318 249/298/256
f 293/366/321 104/368/277 294/369/323
f 291/364/319 293/366/321 295/370/324
f 295/370/324 293/366/321 294/369/323
f 294/369/323 104/368/277 296/371/325
f 294/369/323 296/371/325 295/370/324
f 296/371/325 104/368/277 105/372/326
f 296/371/325 105/372/326 110/373/327
f 297/374/328 290/363/318 291/364/319
f 297/374/328 291/364/319 295/370/324
f 296/371/325 110/373/327 298/375/329
f 298/375/329 110/373/327 299/376/330
f 296/371/325 298/375/329 300/377/331
f 296/371/325 300/377/331 295/370/324
f 300/377/331 298/375/329 299/376/330
f 299/376/330 110/373/327 113/378/332
f 299/376/330 113/378/332 117/221/186
f 299/376/330 117/221/186 192/222/187
f 299/376/330 192/222/187 198/228/193
f 299/376/330 198/228/193 300/377/331
f 198/228/193 192/222/187 191/219/184
f 198/228/193 191/219/184 193/223/188
f 193/223/188 191/219/184 190/218/183
f 300/377/331 198/228/193 199/229/194
f 301/379/333 295/370/324 300/377/331
f 301/379/333 300/377/331 199/229/194
f 295/370/324 301/379/333 297/374/328
f 200/230/195 202/232/197 199/229/194
f 301/379/333 199/229/194 302/380/334
f 302/380/334 199/229/194 202/232/197
f 302/380/334 202/232/197 303/381/335
f 303/381/335 202/232/197 201/231/196
f 301/379/333 302/380/334 304/382/336
f 302/380/334 303/381/335 305/383/337
f 302/380/334 305/383/337 304/382/336
f 303/381/335 201/231/196 208/238/203
f 208/238/203 201/231/196 203/233/198
f 305/383/337 303/381/335 306/384/338
f 306/384/338 303/381/335 208/238/203
f 304/382/336 305/383/337 307/385/339
f 307/385/339 305/383/337 306/384/338
f 308/386/340 301/379/333 304/382/336
f 308/386/340 304/382/336 307/385/339
f 301/379/333 308/386/340 297/374/328
f 306/384/338 208/238/203 41/387/327
f 41/387/327 208/238/203 38/239/186
f 306/384/338 41/387/327 43/319/277
f 306/384/338 43/319/277 264/318/276
f 306/384/338 264/318/276 307/385/339
f 308/386/340 307/385/339 309/388/341
f 309/388/341 307/385/339 264/318/276
f 308/386/340 309/388/341 310/389/342
f 308/386/340 310/389/342 297/374/328
f 309/388/341 264/318/276 311/390/343
f 309/388/341 311/390/343 310/389/342
f 311/390/343 264/318/276 262/314/272
f 297/374/328 310/389/342 312/391/344
f 312/391/344 310/389/342 311/390/343
f 297/374/328 312/391/344 290/363/318
f 311/390/343 262/314/272 313/392/345
f 311/390/343 313/392/345 312/391/344
f 313/392/345 262/314/272 250/299/257
f 290/363/318 312/391/344 314/393/346
f 314/393/346 312/391/344 313/392/345
f 314/393/346 313/392/345 250/299/257
f 290/363/318 314/393/346 249/298/256
f 249/298/256 314/393/346 250/299/257
