# CS2 body mesh, tools/cs2_glb_to_obj.py
v 0.05398 -0.06627 0.03688
v 0.05398 -0.06627 0.04225
v 0.0527 -0.06611 0.04225
v 0.0527 -0.06611 0.03688
v 0.05311 -0.06812 0.03313
v 0.05212 -0.0679 0.03313
v 0.05413 -0.06814 0.03313
v 0.05513 -0.06796 0.03313
v 0.05513 -0.06796 -0.00212
v 0.05413 -0.06814 -0.00212
v 0.05311 -0.06812 -0.00212
v 0.05212 -0.0679 -0.00212
v 0.05236 -0.06716 -0.00294
v 0.05406 -0.06737 -0.00294
v 0.05572 -0.0669 -0.00294
v 0.05236 -0.06716 -0.00404
v 0.05406 -0.06737 -0.00404
v 0.05311 -0.06812 -0.00433
v 0.05212 -0.0679 -0.00433
v 0.05212 -0.0679 -0.00538
v 0.05311 -0.06812 -0.00538
v 0.05413 -0.06814 -0.00538
v 0.05413 -0.06814 -0.00433
v 0.05513 -0.06796 -0.00433
v 0.05513 -0.06796 -0.00538
v 0.05572 -0.0669 -0.00404
v 0.05607 -0.06759 -0.00433
v 0.05693 -0.06705 -0.00433
v 0.05707 -0.06584 -0.00404
v 0.05886 -0.06359 -0.00212
v 0.05886 -0.06359 0.03313
v 0.05865 -0.06458 0.03313
v 0.05686 -0.064 0.03688
v 0.05865 -0.06458 -0.00212
v 0.05824 -0.06551 0.03313
v 0.05791 -0.06434 -0.00294
v 0.05824 -0.06551 -0.00212
v 0.05766 -0.06634 0.03313
v 0.05623 -0.06512 0.03688
v 0.05766 -0.06634 -0.00212
v 0.05707 -0.06584 -0.00294
v 0.05693 -0.06705 0.03313
v 0.05623 -0.06512 0.04225
v 0.05686 -0.064 0.04225
v 0.05522 -0.06592 0.04225
v 0.05701 -0.06272 0.03688
v 0.05701 -0.06272 0.04225
v 0.05522 -0.06592 0.03688
v 0.05666 -0.06148 0.03688
v 0.05607 -0.06759 0.03313
v 0.05666 -0.06148 0.04225
v 0.05693 -0.06705 -0.00212
v 0.05104 -0.06211 0.04225
v 0.05158 -0.06115 0.04225
v 0.05121 -0.06084 0.04225
v 0.05222 -0.06004 0.04225
v 0.05058 -0.06196 0.04225
v 0.05244 -0.06047 0.04225
v 0.05091 -0.0632 0.04225
v 0.05346 -0.05969 0.04225
v 0.05043 -0.06324 0.04225
v 0.0535 -0.06017 0.04225
v 0.05121 -0.06426 0.04225
v 0.05474 -0.05984 0.04225
v 0.05078 -0.06448 0.04225
v 0.05459 -0.0603 0.04225
v 0.05189 -0.06512 0.04225
v 0.05586 -0.06047 0.04225
v 0.05158 -0.06549 0.04225
v 0.05285 -0.06565 0.04225
v 0.05555 -0.06084 0.04225
v 0.05623 -0.0617 0.04225
v 0.05652 -0.06276 0.04225
v 0.05639 -0.06385 0.04225
v 0.05586 -0.0648 0.04225
v 0.055 -0.06548 0.04225
v 0.05394 -0.06578 0.04225
v 0.05389 -0.06516 -0.00521
v 0.05387 -0.0649 -0.00581
v 0.05459 -0.06469 -0.00581
v 0.05471 -0.06493 -0.00521
v 0.05518 -0.06423 -0.00581
v 0.05539 -0.0644 -0.00521
v 0.05555 -0.06357 -0.00581
v 0.05581 -0.06366 -0.00521
v 0.05564 -0.06283 -0.00581
v 0.05591 -0.06281 -0.00521
v 0.05543 -0.0621 -0.00581
v 0.05567 -0.06198 -0.00521
v 0.05497 -0.06151 -0.00581
v 0.05514 -0.06131 -0.00521
v 0.05431 -0.06115 -0.00581
v 0.0544 -0.06089 -0.00521
v 0.05633 -0.06224 0.04496
v 0.05504 -0.06061 0.04496
v 0.0548 -0.06105 0.04964
v 0.05608 -0.0643 0.04496
v 0.05585 -0.06238 0.04964
v 0.05437 -0.06181 0.05351
v 0.05445 -0.06559 0.04496
v 0.05565 -0.06406 0.04964
v 0.05432 -0.0651 0.04964
v 0.05501 -0.06261 0.05351
v 0.05409 -0.06232 0.05485
v 0.05489 -0.06363 0.05351
v 0.05408 -0.06427 0.05351
v 0.05444 -0.06277 0.05485
v 0.05372 -0.06298 0.05535
v 0.05438 -0.06335 0.05485
v 0.05392 -0.0637 0.05485
v 0.05811 -0.0644 -0.00567
v 0.05832 -0.06262 -0.00567
v 0.05886 -0.06359 -0.00538
v 0.05888 -0.06257 -0.00538
v 0.05865 -0.06458 -0.00538
v 0.0587 -0.06157 -0.00538
v 0.05824 -0.06551 -0.00538
v 0.05783 -0.06088 -0.00567
v 0.05723 -0.06598 -0.00567
v 0.05833 -0.06063 -0.00538
v 0.05766 -0.06634 -0.00538
v 0.05779 -0.05977 -0.00538
v 0.05693 -0.06705 -0.00538
v 0.05581 -0.06709 -0.00567
v 0.05607 -0.06759 -0.00538
v 0.05672 -0.05947 -0.00567
v 0.05708 -0.05904 -0.00538
v 0.05625 -0.05846 -0.00538
v 0.05291 -0.06339 -0.00581
v 0.05285 -0.0627 -0.00581
v 0.05372 -0.06298 -0.00548
v 0.0533 -0.06216 -0.00581
v 0.05344 -0.06385 -0.00581
v 0.05229 -0.06465 -0.00521
v 0.05247 -0.06444 -0.00581
v 0.05312 -0.06481 -0.00581
v 0.05304 -0.06506 -0.00521
v 0.05176 -0.06397 -0.00521
v 0.052 -0.06385 -0.00581
v 0.05153 -0.06315 -0.00521
v 0.05413 -0.06379 -0.00581
v 0.0518 -0.06313 -0.00581
v 0.05163 -0.0623 -0.00521
v 0.05459 -0.06326 -0.00581
v 0.05189 -0.06238 -0.00581
v 0.05205 -0.06155 -0.00521
v 0.05226 -0.06173 -0.00581
v 0.05272 -0.06102 -0.00521
v 0.05453 -0.06256 -0.00581
v 0.054 -0.06211 -0.00581
v 0.05357 -0.06106 -0.00581
v 0.05285 -0.06126 -0.00581
v 0.05355 -0.06079 -0.00521
v 0.05351 -0.06033 -0.00567
v 0.05251 -0.06061 -0.00567
v 0.05454 -0.06045 -0.00567
v 0.05544 -0.06096 -0.00567
v 0.05336 -0.05838 -0.00567
v 0.05162 -0.05886 -0.00567
v 0.05515 -0.05859 -0.00567
v 0.05608 -0.06177 -0.00567
v 0.05532 -0.05805 -0.00538
v 0.05433 -0.05783 -0.00538
v 0.05331 -0.05781 -0.00538
v 0.05231 -0.05799 -0.00538
v 0.05137 -0.05836 -0.00538
v 0.05051 -0.05891 -0.00538
v 0.05021 -0.05998 -0.00567
v 0.04978 -0.05961 -0.00538
v 0.0517 -0.06125 -0.00567
v 0.0492 -0.06045 -0.00538
v 0.04933 -0.06155 -0.00567
v 0.04879 -0.06138 -0.00538
v 0.05119 -0.06216 -0.00567
v 0.04857 -0.06237 -0.00538
v 0.04912 -0.06334 -0.00567
v 0.04855 -0.06338 -0.00538
v 0.05107 -0.06319 -0.00567
v 0.04873 -0.06438 -0.00538
v 0.04961 -0.06507 -0.00567
v 0.0491 -0.06533 -0.00538
v 0.05135 -0.06418 -0.00567
v 0.04965 -0.06619 -0.00538
v 0.05072 -0.06649 -0.00567
v 0.05035 -0.06692 -0.00538
v 0.052 -0.065 -0.00567
v 0.05119 -0.0675 -0.00538
v 0.05229 -0.06737 -0.00567
v 0.0529 -0.0655 -0.00567
v 0.05408 -0.06758 -0.00567
v 0.05393 -0.06562 -0.00567
v 0.05492 -0.06534 -0.00567
v 0.05574 -0.0647 -0.00567
v 0.05624 -0.0638 -0.00567
v 0.05636 -0.06277 -0.00567
v 0.05239 -0.06534 0.04496
v 0.05264 -0.06491 0.04964
v 0.05307 -0.06415 0.05351
v 0.05335 -0.06364 0.05485
v 0.05351 -0.06225 0.05485
v 0.05336 -0.06169 0.05351
v 0.05306 -0.06261 0.05485
v 0.05299 -0.06318 0.05485
v 0.05255 -0.06232 0.05351
v 0.05312 -0.06085 0.04964
v 0.05243 -0.06334 0.05351
v 0.05298 -0.06037 0.04496
v 0.05179 -0.0619 0.04964
v 0.05135 -0.06165 0.04496
v 0.05159 -0.06358 0.04964
v 0.05111 -0.06371 0.04496
v 0.05607 -0.06759 -0.00212
v 0.05791 -0.06434 -0.00404
v 0.05811 -0.06263 -0.00294
v 0.05824 -0.06551 -0.00433
v 0.05766 -0.06634 -0.00433
v 0.05865 -0.06458 -0.00433
v 0.05886 -0.06359 -0.00433
v 0.05811 -0.06263 -0.00404
v 0.05888 -0.06257 -0.00433
v 0.0587 -0.06157 -0.00433
v 0.05833 -0.06063 -0.00433
v 0.05764 -0.06098 -0.00404
v 0.05779 -0.05977 -0.00433
v 0.05764 -0.06098 -0.00294
v 0.05708 -0.05904 -0.00433
v 0.05625 -0.05846 -0.00433
v 0.05532 -0.05805 -0.00433
v 0.05433 -0.05783 -0.00433
v 0.05658 -0.05963 -0.00404
v 0.05658 -0.05963 -0.00294
v 0.05508 -0.05879 -0.00404
v 0.05508 -0.05879 -0.00294
v 0.05625 -0.05846 -0.00212
v 0.05532 -0.05805 -0.00212
v 0.05779 -0.05977 -0.00212
v 0.05708 -0.05904 -0.00212
v 0.05625 -0.05846 0.03313
v 0.05708 -0.05904 0.03313
v 0.05532 -0.05805 0.03313
v 0.05433 -0.05783 -0.00212
v 0.05433 -0.05783 0.03313
v 0.05474 -0.05984 0.03688
v 0.05586 -0.06047 0.03688
v 0.05779 -0.05977 0.03313
v 0.05833 -0.06063 0.03313
v 0.05833 -0.06063 -0.00212
v 0.0587 -0.06157 0.03313
v 0.0587 -0.06157 -0.00212
v 0.05888 -0.06257 0.03313
v 0.05888 -0.06257 -0.00212
v 0.05331 -0.05781 -0.00433
v 0.05337 -0.05859 -0.00404
v 0.05231 -0.05799 -0.00433
v 0.05337 -0.05859 -0.00294
v 0.05137 -0.05836 -0.00433
v 0.05172 -0.05906 -0.00404
v 0.05051 -0.05891 -0.00433
v 0.04978 -0.05961 -0.00433
v 0.05172 -0.05906 -0.00294
v 0.05037 -0.06012 -0.00404
v 0.0492 -0.06045 -0.00433
v 0.04879 -0.06138 -0.00433
v 0.05037 -0.06012 -0.00294
v 0.04953 -0.06162 -0.00404
v 0.04857 -0.06237 -0.00433
v 0.04855 -0.06338 -0.00433
v 0.04953 -0.06162 -0.00294
v 0.04933 -0.06332 -0.00404
v 0.04873 -0.06438 -0.00433
v 0.0491 -0.06533 -0.00433
v 0.04933 -0.06332 -0.00294
v 0.0498 -0.06498 -0.00404
v 0.04965 -0.06619 -0.00433
v 0.05035 -0.06692 -0.00433
v 0.0498 -0.06498 -0.00294
v 0.05086 -0.06633 -0.00404
v 0.05119 -0.0675 -0.00433
v 0.05086 -0.06633 -0.00294
v 0.05119 -0.0675 -0.00212
v 0.05119 -0.0675 0.03313
v 0.05158 -0.06549 0.03688
v 0.05035 -0.06692 0.03313
v 0.05078 -0.06448 0.03688
v 0.05035 -0.06692 -0.00212
v 0.04965 -0.06619 0.03313
v 0.04965 -0.06619 -0.00212
v 0.05043 -0.06324 0.03688
v 0.0491 -0.06533 0.03313
v 0.04873 -0.06438 0.03313
v 0.0491 -0.06533 -0.00212
v 0.04873 -0.06438 -0.00212
v 0.04855 -0.06338 0.03313
v 0.05059 -0.06196 0.03688
v 0.04857 -0.06237 0.03313
v 0.04855 -0.06338 -0.00212
v 0.04857 -0.06237 -0.00212
v 0.05121 -0.06084 0.03688
v 0.0488 -0.06138 0.03313
v 0.0492 -0.06045 0.03313
v 0.04879 -0.06138 -0.00212
v 0.0492 -0.06045 -0.00212
v 0.04978 -0.05961 0.03313
v 0.05222 -0.06004 0.03688
v 0.05051 -0.05891 0.03313
v 0.04978 -0.05961 -0.00212
v 0.05051 -0.05891 -0.00212
v 0.05346 -0.05969 0.03688
v 0.05137 -0.05836 0.03313
v 0.05231 -0.05799 0.03313
v 0.05137 -0.05836 -0.00212
v 0.05231 -0.05799 -0.00212
v 0.05331 -0.05781 0.03313
v 0.05331 -0.05781 -0.00212
vt 0.757324 0.946777
vt 0.757324 0.940918
vt 0.755859 0.940918
vt 0.755859 0.946777
vt 0.753906 0.95166
vt 0.752441 0.95166
vt 0.754883 0.95166
vt 0.755859 0.95166
vt 0.755859 0.992676
vt 0.754883 0.992676
vt 0.753906 0.992676
vt 0.752441 0.992676
vt 0.752441 0.993652
vt 0.754395 0.993652
vt 0.756836 0.993652
vt 0.751953 0.995117
vt 0.754395 0.995117
vt 0.75293 0.996094
vt 0.751465 0.996094
vt 0.751465 0.997559
vt 0.752441 0.997559
vt 0.753906 0.997559
vt 0.753906 0.996094
vt 0.754883 0.996094
vt 0.754883 0.997559
vt 0.756348 0.995117
vt 0.756348 0.996094
vt 0.757324 0.996094
vt 0.758789 0.995117
vt 0.762695 0.992676
vt 0.762695 0.95166
vt 0.76123 0.95166
vt 0.762207 0.946777
vt 0.76123 0.992676
vt 0.760254 0.95166
vt 0.76123 0.993652
vt 0.760254 0.992676
vt 0.759277 0.95166
vt 0.760742 0.946777
vt 0.759277 0.992676
vt 0.758789 0.993652
vt 0.758301 0.95166
vt 0.760742 0.940918
vt 0.762207 0.940918
vt 0.758789 0.940918
vt 0.76416 0.946777
vt 0.76416 0.940918
vt 0.758789 0.946777
vt 0.766113 0.946777
vt 0.756836 0.95166
vt 0.766113 0.940918
vt 0.758301 0.992676
vt 0.110779 0.089966
vt 0.110779 0.088318
vt 0.110291 0.088318
vt 0.110291 0.086609
vt 0.110291 0.089966
vt 0.110779 0.086609
vt 0.110779 0.091614
vt 0.110291 0.0849
vt 0.110291 0.091553
vt 0.110779 0.0849
vt 0.110779 0.09314
vt 0.110291 0.083191
vt 0.110291 0.093079
vt 0.110779 0.083191
vt 0.110779 0.094604
vt 0.110291 0.081482
vt 0.110291 0.094543
vt 0.110779 0.095947
vt 0.110291 0.096008
vt 0.110779 0.081482
vt 0.110291 0.079773
vt 0.110779 0.079773
vt 0.110291 0.078064
vt 0.110779 0.078064
vt 0.110291 0.076416
vt 0.110779 0.076416
vt 0.110291 0.074829
vt 0.110779 0.074829
vt 0.110291 0.073364
vt 0.110779 0.073303
vt 0.110291 0.071899
vt 0.110779 0.071838
vt 0.110291 0.070435
vt 0.110779 0.070496
vt 0.516113 0.202026
vt 0.516602 0.201416
vt 0.515625 0.200928
vt 0.515137 0.201416
vt 0.515137 0.200317
vt 0.514648 0.200562
vt 0.515137 0.199585
vt 0.514648 0.199585
vt 0.515137 0.19873
vt 0.514648 0.198486
vt 0.515625 0.19812
vt 0.515137 0.197632
vt 0.516602 0.197632
vt 0.516113 0.197021
vt 0.51709 0.19751
vt 0.51709 0.196777
vt 0.0625 0.016693
vt 0.061157 0.016693
vt 0.060089 0.019485
vt 0.059723 0.016693
vt 0.057526 0.019424
vt 0.058289 0.016693
vt 0.056824 0.016693
vt 0.057465 0.024323
vt 0.062561 0.019669
vt 0.063843 0.016693
vt 0.059387 0.024429
vt 0.057404 0.028503
vt 0.065063 0.016693
vt 0.06488 0.019989
vt 0.066223 0.016693
vt 0.061218 0.024765
vt 0.062927 0.025345
vt 0.058441 0.028595
vt 0.057404 0.029953
vt 0.059448 0.02887
vt 0.060303 0.029358
vt 0.057922 0.030029
vt 0.057373 0.030884
vt 0.058411 0.030212
vt 0.058807 0.030533
vt 0.511719 0.199585
vt 0.512207 0.197388
vt 0.51123 0.198364
vt 0.51123 0.197144
vt 0.510742 0.199585
vt 0.511719 0.196045
vt 0.51123 0.200806
vt 0.513184 0.195679
vt 0.512207 0.20166
vt 0.512695 0.195068
vt 0.51123 0.202026
vt 0.513672 0.194336
vt 0.512207 0.203003
vt 0.513184 0.203491
vt 0.512695 0.203979
vt 0.515137 0.194336
vt 0.514648 0.193726
vt 0.515625 0.193359
vt 0.518066 0.200195
vt 0.518066 0.199463
vt 0.51709 0.199463
vt 0.518066 0.198853
vt 0.51709 0.200439
vt 0.518066 0.201904
vt 0.518066 0.201416
vt 0.51709 0.201538
vt 0.51709 0.202148
vt 0.519043 0.201416
vt 0.518555 0.200928
vt 0.519531 0.200439
vt 0.516602 0.200195
vt 0.519043 0.200195
vt 0.52002 0.199463
vt 0.516113 0.199463
vt 0.519043 0.199463
vt 0.519531 0.198486
vt 0.519043 0.19873
vt 0.519043 0.197632
vt 0.516602 0.198853
vt 0.51709 0.198486
vt 0.518066 0.197632
vt 0.518555 0.197998
vt 0.518066 0.197021
vt 0.518555 0.196411
vt 0.519531 0.197144
vt 0.51709 0.196167
vt 0.515625 0.196411
vt 0.519043 0.194336
vt 0.520996 0.195557
vt 0.51709 0.19397
vt 0.514648 0.197144
vt 0.51709 0.193237
vt 0.518066 0.193359
vt 0.519531 0.193604
vt 0.520508 0.194214
vt 0.521484 0.194946
vt 0.522461 0.195923
vt 0.522461 0.197266
vt 0.522949 0.197021
vt 0.52002 0.19812
vt 0.523438 0.19812
vt 0.522949 0.199463
vt 0.523438 0.199341
vt 0.520508 0.199463
vt 0.523438 0.200684
vt 0.522461 0.201538
vt 0.522949 0.201782
vt 0.520508 0.200684
vt 0.522461 0.202881
vt 0.520996 0.203369
vt 0.521484 0.203857
vt 0.519531 0.201782
vt 0.520508 0.204712
vt 0.519531 0.20459
vt 0.519531 0.205322
vt 0.518555 0.202515
vt 0.518555 0.205688
vt 0.51709 0.205078
vt 0.51709 0.205811
vt 0.516113 0.205688
vt 0.51709 0.202881
vt 0.515137 0.204712
vt 0.514648 0.205322
vt 0.513672 0.204712
vt 0.516113 0.202637
vt 0.514648 0.201904
vt 0.51416 0.200806
vt 0.513672 0.199585
vt 0.51416 0.198242
vt 0.067383 0.016693
vt 0.067139 0.020676
vt 0.064575 0.026245
vt 0.061066 0.030121
vt 0.059021 0.031052
vt 0.056854 0.030029
vt 0.056366 0.02858
vt 0.056366 0.030212
vt 0.055969 0.030518
vt 0.055725 0.031036
vt 0.055359 0.028839
vt 0.055542 0.024414
vt 0.054474 0.029312
vt 0.05368 0.03006
vt 0.054932 0.019485
vt 0.055359 0.016693
vt 0.053955 0.016693
vt 0.05368 0.024719
vt 0.052429 0.019638
vt 0.052582 0.016693
vt 0.05127 0.016693
vt 0.05191 0.025238
vt 0.050232 0.026093
vt 0.050079 0.019913
vt 0.050018 0.016693
vt 0.047729 0.020294
vt 0.048828 0.016693
vt 0.047699 0.016693
vt 0.0466 0.016693
vt 0.756836 0.992676
vt 0.760742 0.995117
vt 0.763184 0.993652
vt 0.759766 0.996094
vt 0.758301 0.996094
vt 0.758301 0.997559
vt 0.757324 0.997559
vt 0.759766 0.997559
vt 0.756348 0.997559
vt 0.760742 0.997559
vt 0.760742 0.996094
vt 0.762207 0.996094
vt 0.761719 0.997559
vt 0.763184 0.997559
vt 0.763184 0.995117
vt 0.763184 0.996094
vt 0.76416 0.996094
vt 0.76416 0.997559
vt 0.765625 0.997559
vt 0.765625 0.996094
vt 0.765625 0.995117
vt 0.766602 0.996094
vt 0.766602 0.997559
vt 0.767578 0.997559
vt 0.765625 0.993652
vt 0.767578 0.996094
vt 0.769043 0.996094
vt 0.769043 0.997559
vt 0.77002 0.997559
vt 0.77002 0.996094
vt 0.770996 0.996094
vt 0.770996 0.997559
vt 0.767578 0.995117
vt 0.767578 0.993652
vt 0.77002 0.995117
vt 0.77002 0.993652
vt 0.769043 0.992676
vt 0.77002 0.992676
vt 0.766602 0.992676
vt 0.768066 0.992676
vt 0.769043 0.95166
vt 0.768066 0.95166
vt 0.77002 0.95166
vt 0.770996 0.992676
vt 0.770996 0.95166
vt 0.77002 0.946777
vt 0.768066 0.946777
vt 0.766602 0.95166
vt 0.768066 0.940918
vt 0.77002 0.940918
vt 0.765625 0.95166
vt 0.765625 0.992676
vt 0.764648 0.95166
vt 0.764648 0.992676
vt 0.763672 0.95166
vt 0.763672 0.992676
vt 0.772461 0.997559
vt 0.772461 0.996094
vt 0.772461 0.995117
vt 0.773438 0.996094
vt 0.773438 0.997559
vt 0.774414 0.997559
vt 0.772461 0.993652
vt 0.774414 0.996094
vt 0.774414 0.995117
vt 0.775879 0.996094
vt 0.775879 0.997559
vt 0.776855 0.997559
vt 0.776855 0.996094
vt 0.774414 0.993652
vt 0.776855 0.995117
vt 0.777832 0.996094
vt 0.777832 0.997559
vt 0.779297 0.997559
vt 0.779297 0.996094
vt 0.776855 0.993652
vt 0.779297 0.995117
vt 0.780273 0.996094
vt 0.780273 0.997559
vt 0.781738 0.997559
vt 0.78125 0.996094
vt 0.778809 0.993652
vt 0.78125 0.995117
vt 0.782715 0.996094
vt 0.782715 0.997559
vt 0.783691 0.997559
vt 0.783691 0.996094
vt 0.78125 0.993652
vt 0.783691 0.995117
vt 0.784668 0.996094
vt 0.785156 0.997559
vt 0.786133 0.997559
vt 0.786133 0.996094
vt 0.783203 0.993652
vt 0.785645 0.995117
vt 0.787109 0.996094
vt 0.787598 0.997559
vt 0.788574 0.997559
vt 0.788086 0.996094
vt 0.788086 0.995117
vt 0.787598 0.993652
vt 0.785645 0.993652
vt 0.786133 0.992676
vt 0.787109 0.992676
vt 0.786133 0.95166
vt 0.787109 0.95166
vt 0.78418 0.946777
vt 0.782715 0.940918
vt 0.78418 0.940918
vt 0.782715 0.946777
vt 0.78125 0.940918
vt 0.785156 0.95166
vt 0.78125 0.946777
vt 0.779297 0.940918
vt 0.785156 0.992676
vt 0.78418 0.95166
vt 0.78418 0.992676
vt 0.779297 0.946777
vt 0.777832 0.940918
vt 0.782715 0.95166
vt 0.781738 0.95166
vt 0.782715 0.992676
vt 0.781738 0.992676
vt 0.780762 0.95166
vt 0.777832 0.946777
vt 0.775879 0.940918
vt 0.779785 0.95166
vt 0.780762 0.992676
vt 0.779785 0.992676
vt 0.775879 0.946777
vt 0.773926 0.940918
vt 0.778809 0.95166
vt 0.777344 0.95166
vt 0.778809 0.992676
vt 0.777344 0.992676
vt 0.776367 0.95166
vt 0.773926 0.946777
vt 0.771973 0.940918
vt 0.775391 0.95166
vt 0.776367 0.992676
vt 0.775391 0.992676
vt 0.771973 0.946777
vt 0.774414 0.95166
vt 0.773438 0.95166
vt 0.774414 0.992676
vt 0.773438 0.992676
vt 0.771973 0.95166
vt 0.771973 0.992676
vn 0.079 -0.9745 0.21
vn 0.0777 -0.997 0
vn -0.1172 -0.9931 0
vn -0.1195 -0.9701 0.2111
vn -0.1176 -0.9919 0.0475
vn -0.2152 -0.9755 0.0459
vn 0.0789 -0.9958 0.046
vn 0.2731 -0.9608 0.0476
vn 0.271 -0.9622 -0.0271
vn 0.0794 -0.9966 -0.0215
vn -0.1181 -0.9926 -0.029
vn -0.2131 -0.9768 -0.0213
vn -0.1219 -0.9183 -0.3767
vn 0.0726 -0.9213 -0.382
vn 0.4192 -0.8241 -0.3811
vn -0.1111 -0.8757 0.4699
vn 0.0695 -0.877 0.4754
vn -0.093 -0.7978 0.5958
vn -0.1878 -0.857 0.4799
vn -0.2142 -0.9768 0
vn 0.0696 -0.8734 0.482
vn 0.217 -0.7736 0.5953
vn 0.2728 -0.9621 0
vn 0.3989 -0.7833 0.4768
vn 0.3997 -0.7783 0.4842
vn 0.4953 -0.6317 0.5963
vn 0.6677 -0.572 0.4764
vn 0.9927 -0.1169 -0.0289
vn 0.9918 -0.1189 0.0476
vn 0.9496 -0.3101 0.0459
vn 0.9292 -0.3008 0.2147
vn 0.9508 -0.309 -0.02
vn 0.8726 -0.4859 0.0495
vn 0.8794 -0.2856 -0.3808
vn 0.8713 -0.49 -0.0271
vn 0.7603 -0.6478 0.0484
vn 0.7436 -0.6332 0.2147
vn 0.76 -0.6496 -0.0196
vn 0.7017 -0.6013 -0.3822
vn 0.6184 -0.7844 0.0482
vn 0.7607 -0.6491 0
vn 0.951 -0.3092 0
vn 0.4551 -0.8904 0
vn 0.9737 0.0779 0.214
vn 0.9971 0.0767 -0.0011
vn 0.4412 -0.8721 0.2117
vn 0.8705 0.4435 0.2135
vn 0.4516 -0.8909 0.049
vn 0.891 0.454 -0.0013
vn 0.6186 -0.7852 -0.028
vn 0 -0.001 1
vn 0.004 -0.0129 -0.9999
vn 0.0354 -0.4836 -0.8746
vn 0.2178 -0.4341 -0.8741
vn 0.01 -0.009 -0.9999
vn 0.3657 -0.3184 -0.8746
vn 0.0119 -0.005 -0.9999
vn 0.4593 -0.1526 -0.8751
vn 0.0129 0.001 -0.9999
vn 0.483 0.034 -0.8749
vn 0.0129 0.005 -0.9999
vn 0.4337 0.2161 -0.8748
vn 0.009 0.011 -0.9999
vn 0.3182 0.3639 -0.8754
vn 0.005 0.0129 -0.9999
vn 0.1527 0.4611 -0.8741
vn 0.001 0.0129 -0.9999
vn 0.9644 -0.2556 0.068
vn 0.9967 0.0533 0.062
vn 0.9568 0.2721 0.1028
vn 0.8635 0.4996 0.0686
vn 0.4815 0.8706 0.1008
vn 0.6659 0.7435 0.0618
vn 0.2583 0.9638 0.0668
vn 0.4923 0.8567 0.1543
vn 0.8702 -0.482 0.1024
vn 0.7415 -0.6682 0.0604
vn 0.954 0.2575 0.1534
vn 0.497 0.8283 0.2586
vn 0.5007 -0.863 0.0671
vn 0.2733 -0.9566 0.1015
vn 0.0543 -0.9967 0.0609
vn 0.8561 -0.4928 0.1559
vn 0.2562 -0.9541 0.1548
vn 0.9374 0.2333 0.2585
vn 0.4434 0.7157 0.5397
vn 0.8275 -0.4974 0.2603
vn 0.2352 -0.9364 0.2604
vn 0.8204 0.1926 0.5384
vn 0.7171 -0.4432 0.5378
vn 0.1942 -0.8208 0.5371
vn 0.1065 -0.0344 -0.9937
vn 0.1121 0.0076 -0.9937
vn 0.4163 -0.0497 -0.9079
vn 0.455 0.0365 -0.8897
vn 0.4358 -0.1419 -0.8888
vn 0.403 0.1157 -0.9078
vn 0.3644 -0.2068 -0.908
vn 0.0995 0.0503 -0.9938
vn 0.0856 -0.0732 -0.9936
vn 0.4072 0.2073 -0.8895
vn 0.3482 -0.2987 -0.8886
vn 0.329 0.2588 -0.9081
vn 0.2606 -0.3294 -0.9075
vn 0.0515 -0.0996 -0.9937
vn 0.209 -0.4077 -0.8889
vn 0.0732 0.0844 -0.9937
vn 0.2984 0.3464 -0.8893
vn 0.2036 0.3654 -0.9083
vn 0.1021 0.0528 -0.9934
vn 0.1091 -0.0367 -0.9933
vn 0 -0.001 -1
vn 0.0517 -0.1045 -0.9932
vn 0.0368 0.1104 -0.9932
vn -0.006 -0.0109 -0.9999
vn -0.3169 -0.3672 -0.8745
vn -0.1541 -0.4581 -0.8754
vn 0 -0.0129 -0.9999
vn -0.01 -0.009 -0.9999
vn -0.4354 -0.2162 -0.8739
vn -0.0119 -0.005 -0.9999
vn -0.0528 0.1021 -0.9934
vn -0.4825 -0.0368 -0.8751
vn -0.0129 0.001 -0.9999
vn -0.1104 0.0368 -0.9932
vn -0.4611 0.1527 -0.8741
vn -0.0129 0.005 -0.9999
vn -0.3669 0.3151 -0.8753
vn -0.009 0.011 -0.9999
vn -0.1034 -0.0528 -0.9932
vn -0.0356 -0.1102 -0.9933
vn -0.034 0.483 -0.8749
vn -0.2161 0.4337 -0.8748
vn -0.005 0.0129 -0.9999
vn 0.0089 -0.1341 -0.9909
vn 0.0595 -0.1202 -0.991
vn -0.0431 -0.1259 -0.9911
vn -0.0876 -0.1003 -0.9911
vn -0.0098 0.1099 -0.9939
vn -0.0503 0.0995 -0.9938
vn 0.0344 0.1077 -0.9936
vn -0.119 -0.0607 -0.991
vn 0.1418 0.4341 -0.8896
vn 0.0497 0.4147 -0.9086
vn -0.0365 0.455 -0.8897
vn -0.1129 0.4055 -0.9071
vn -0.2073 0.4072 -0.8895
vn -0.2588 0.329 -0.9081
vn -0.0844 0.0732 -0.9937
vn -0.3494 0.2954 -0.8892
vn 0.1014 -0.0864 -0.9911
vn -0.3654 0.2036 -0.9083
vn -0.1077 0.0344 -0.9936
vn -0.4341 0.1418 -0.8896
vn 0.127 -0.042 -0.991
vn -0.4147 0.0497 -0.9086
vn -0.1111 -0.0098 -0.9938
vn -0.4566 -0.0365 -0.8889
vn 0.1318 0.01 -0.9912
vn -0.4038 -0.1128 -0.9079
vn -0.1007 -0.0504 -0.9936
vn -0.409 -0.2074 -0.8886
vn 0.12 0.0583 -0.9911
vn -0.3279 -0.262 -0.9076
vn -0.0721 -0.0867 -0.9936
vn -0.2972 -0.3497 -0.8885
vn 0.0863 0.1002 -0.9912
vn -0.2053 -0.3657 -0.9078
vn -0.0355 -0.1054 -0.9938
vn -0.1404 -0.437 -0.8884
vn -0.0483 -0.4175 -0.9074
vn 0.0419 0.1257 -0.9912
vn 0.0087 -0.1122 -0.9936
vn 0.0351 -0.4577 -0.8884
vn 0.1142 -0.4026 -0.9082
vn -0.01 0.1318 -0.9912
vn -0.0583 0.12 -0.9911
vn -0.1002 0.0863 -0.9912
vn -0.1257 0.0419 -0.9912
vn -0.133 -0.01 -0.9911
vn -0.1173 -0.9887 0.0938
vn -0.1175 -0.9884 0.0964
vn -0.1166 -0.9828 0.1433
vn -0.1135 -0.9635 0.2425
vn -0.1006 -0.8464 0.523
vn -0.1926 0.8204 0.5384
vn -0.2333 0.9374 0.2585
vn -0.7157 0.4434 0.5397
vn -0.8201 -0.1959 0.5376
vn -0.6809 -0.5384 0.4965
vn -0.8283 0.497 0.2586
vn -0.2544 0.9549 0.1532
vn -0.9369 -0.2335 0.2601
vn -0.7622 -0.6006 0.2415
vn -0.2721 0.9568 0.1028
vn -0.0533 0.9967 0.062
vn -0.4996 0.8635 0.0686
vn -0.8567 0.4923 0.1543
vn -0.8688 0.4849 0.101
vn -0.7435 0.6659 0.0618
vn -0.9638 0.2583 0.0668
vn -0.9546 -0.2546 0.1547
vn -0.7767 -0.6132 0.1439
vn -0.9561 -0.2748 0.1016
vn -0.9966 -0.0555 0.0609
vn -0.7687 -0.6328 0.0935
vn -0.864 -0.4991 0.0671
vn -0.6667 -0.7429 0.0603
vn -0.4882 -0.8725 0.0189
vn 0.454 -0.8907 -0.0214
vn 0.8361 -0.271 0.4769
vn 0.9217 0.074 -0.3808
vn 0.6999 -0.3912 0.5976
vn 0.6649 -0.5692 0.4836
vn 0.6176 -0.7865 0
vn 0.8727 -0.4882 0
vn 0.8334 -0.268 0.4833
vn 0.7971 -0.0945 0.5964
vn 0.993 -0.1184 0
vn 0.9971 0.0767 0.0011
vn 0.8765 0.0681 0.4765
vn 0.8729 0.0682 0.4831
vn 0.7714 0.2188 0.5976
vn 0.9624 0.2717 0.0012
vn 0.891 0.454 0.0013
vn 0.7807 0.3977 0.4821
vn 0.7834 0.4006 0.4752
vn 0.6285 0.4971 0.5982
vn 0.7871 0.6168 -0.0014
vn 0.6498 0.7601 -0.0014
vn 0.8241 0.4176 -0.3827
vn 0.569 0.6664 0.4818
vn 0.3912 0.7014 0.5958
vn 0.4888 0.8724 0.0013
vn 0.3096 0.9509 0.0012
vn 0.2714 0.8329 0.4824
vn 0.0946 0.7959 0.598
vn 0.1185 0.9929 0.0011
vn 0.5722 0.6662 0.4783
vn 0.6009 0.703 -0.3803
vn 0.2708 0.8372 0.4751
vn 0.2858 0.8786 -0.3826
vn 0.4873 0.8728 -0.0285
vn 0.3094 0.9507 -0.0213
vn 0.7858 0.6177 -0.0294
vn 0.6503 0.7594 -0.021
vn 0.4886 0.8712 0.0482
vn 0.6502 0.7583 0.047
vn 0.3074 0.9504 0.0472
vn 0.1167 0.9928 -0.0278
vn 0.1165 0.992 0.0486
vn 0.3005 0.9297 0.213
vn 0.6327 0.7446 0.213
vn 0.785 0.6175 0.0497
vn 0.3096 0.9509 -0.0012
vn 0.8904 0.4527 0.0476
vn 0.8902 0.4551 -0.02
vn 0.9611 0.2719 0.0489
vn 0.9625 0.2699 -0.0283
vn 0.9959 0.0778 0.0471
vn 0.9967 0.0782 -0.0203
vn -0.079 0.9969 0.0011
vn -0.0682 0.8729 0.4831
vn -0.0681 0.8765 0.4765
vn -0.2188 0.7714 0.5976
vn -0.2717 0.9624 -0.0012
vn -0.454 0.891 0.0013
vn -0.0712 0.9223 -0.3799
vn -0.3977 0.7807 0.4821
vn -0.4006 0.7834 0.4752
vn -0.4971 0.6285 0.5982
vn -0.6198 0.7847 0.0014
vn -0.7601 0.6498 0.0014
vn -0.6664 0.569 0.4818
vn -0.4213 0.822 -0.3832
vn -0.6693 0.5687 0.4781
vn -0.6988 0.3949 0.5964
vn -0.8724 0.4888 0.0013
vn -0.9518 0.3066 0.0012
vn -0.8329 0.2714 0.4824
vn -0.703 0.6009 -0.3803
vn -0.8356 0.2744 0.4759
vn -0.7959 0.0946 0.598
vn -0.9932 0.1161 0.0011
vn -0.9969 -0.0789 0
vn -0.8738 -0.0682 0.4814
vn -0.8786 0.2858 -0.3826
vn -0.8766 -0.071 0.4759
vn -0.7727 -0.2188 0.5958
vn -0.9625 -0.2714 0
vn -0.8912 -0.4535 0
vn -0.7795 -0.3978 0.4839
vn -0.9216 -0.0712 -0.3815
vn -0.7821 -0.4008 0.4771
vn -0.6302 -0.4971 0.5965
vn -0.7853 -0.6192 0
vn -0.6506 -0.7595 0
vn -0.5674 -0.6665 0.4835
vn -0.823 -0.421 -0.3813
vn -0.5703 -0.6692 0.4763
vn -0.3931 -0.6986 0.5979
vn -0.4898 -0.8718 0
vn -0.4018 -0.9157 0
vn -0.3516 -0.804 0.4795
vn -0.4239 -0.7745 0.4696
vn -0.444 -0.8129 -0.3769
vn -0.5995 -0.7033 -0.3821
vn -0.4883 -0.8722 -0.0271
vn -0.4 -0.9163 -0.0209
vn -0.4875 -0.8717 0.0496
vn -0.3997 -0.9154 0.048
vn -0.4723 -0.8559 0.2106
vn -0.6371 -0.7412 0.2113
vn -0.6493 -0.759 0.0484
vn -0.8705 -0.4457 0.2087
vn -0.6481 -0.7613 -0.0196
vn -0.7831 -0.62 0.0482
vn -0.784 -0.6202 -0.028
vn -0.9737 -0.0754 0.215
vn -0.9509 0.3096 -0.0012
vn -0.8891 -0.4554 0.0462
vn -0.9612 -0.2716 0.0476
vn -0.8915 -0.4524 -0.0214
vn -0.9618 -0.2725 -0.0271
vn -0.9957 -0.0801 0.0461
vn -0.9285 0.3039 0.2134
vn -0.7601 0.6498 -0.0014
vn -0.9917 0.119 0.0487
vn -0.9967 -0.0782 -0.0214
vn -0.9928 0.1167 -0.0278
vn -0.7446 0.6327 0.213
vn -0.454 0.891 -0.0013
vn -0.9494 0.3105 0.0473
vn -0.8712 0.4886 0.0482
vn -0.9507 0.3094 -0.0213
vn -0.8728 0.4873 -0.0285
vn -0.7609 0.6471 0.0469
vn -0.4435 0.8705 0.2135
vn -0.079 0.9969 -0.0011
vn -0.6206 0.7825 0.0497
vn -0.7594 0.6503 -0.021
vn -0.6208 0.7834 -0.0294
vn -0.0753 0.974 0.2136
vn -0.4527 0.8904 0.0476
vn -0.2719 0.9611 0.0489
vn -0.4551 0.8902 -0.02
vn -0.2728 0.9616 -0.0284
vn -0.0778 0.9959 0.0471
vn -0.0782 0.9967 -0.0203
o bullet02__p1_c0
f 1/1/1 2/2/2 3/3/3
f 1/1/1 3/3/3 4/4/4
f 1/1/1 4/4/4 5/5/5
f 5/5/5 4/4/4 6/6/6
f 1/1/1 5/5/5 7/7/7
f 1/1/1 7/7/7 8/8/8
f 8/8/8 7/7/7 9/9/9
f 7/7/7 5/5/5 10/10/10
f 7/7/7 10/10/10 9/9/9
f 5/5/5 6/6/6 11/11/11
f 5/5/5 11/11/11 10/10/10
f 11/11/11 6/6/6 12/12/12
f 11/11/11 12/12/12 13/13/13
f 10/10/10 11/11/11 14/14/14
f 10/10/10 14/14/14 9/9/9
f 14/14/14 11/11/11 13/13/13
f 9/9/9 14/14/14 15/15/15
f 14/14/14 13/13/13 16/16/16
f 14/14/14 16/16/16 17/17/17
f 17/17/17 16/16/16 18/18/18
f 18/18/18 16/16/16 19/19/19
f 18/18/18 19/19/19 20/20/20
f 18/18/18 20/20/20 21/21/3
f 18/18/18 21/21/3 22/22/2
f 17/17/17 18/18/18 23/23/21
f 23/23/21 18/18/18 22/22/2
f 17/17/17 23/23/21 24/24/22
f 24/24/22 23/23/21 22/22/2
f 24/24/22 22/22/2 25/25/23
f 17/17/17 24/24/22 26/26/24
f 26/26/24 24/24/22 27/27/25
f 26/26/24 27/27/25 28/28/26
f 26/26/24 28/28/26 29/29/27
f 30/30/28 31/31/29 32/32/30
f 32/32/30 31/31/29 33/33/31
f 30/30/28 32/32/30 34/34/32
f 34/34/32 32/32/30 35/35/33
f 35/35/33 32/32/30 33/33/31
f 30/30/28 34/34/32 36/36/34
f 34/34/32 35/35/33 37/37/35
f 34/34/32 37/37/35 36/36/34
f 37/37/35 35/35/33 38/38/36
f 38/38/36 35/35/33 39/39/37
f 39/39/37 35/35/33 33/33/31
f 37/37/35 38/38/36 40/40/38
f 37/37/35 40/40/38 41/41/39
f 37/37/35 41/41/39 36/36/34
f 40/40/38 38/38/36 42/42/40
f 42/42/40 38/38/36 39/39/37
f 39/39/37 33/33/31 43/43/41
f 43/43/41 33/33/31 44/44/42
f 39/39/37 43/43/41 45/45/43
f 44/44/42 33/33/31 46/46/44
f 46/46/44 33/33/31 31/31/29
f 44/44/42 46/46/44 47/47/45
f 39/39/37 45/45/43 48/48/46
f 39/39/37 48/48/46 42/42/40
f 48/48/46 45/45/43 2/2/2
f 48/48/46 2/2/2 1/1/1
f 47/47/45 46/46/44 49/49/47
f 48/48/46 1/1/1 50/50/48
f 48/48/46 50/50/48 42/42/40
f 50/50/48 1/1/1 8/8/8
f 47/47/45 49/49/47 51/51/49
f 42/42/40 50/50/48 52/52/50
f 42/42/40 52/52/50 40/40/38
f 53/53/51 54/54/51 55/55/51
f 55/55/51 54/54/51 56/56/51
f 53/53/51 55/55/51 57/57/51
f 56/56/51 54/54/51 58/58/51
f 53/53/51 57/57/51 59/59/51
f 56/56/51 58/58/51 60/60/51
f 59/59/51 57/57/51 61/61/51
f 60/60/51 58/58/51 62/62/51
f 59/59/51 61/61/51 63/63/51
f 60/60/51 62/62/51 64/64/51
f 63/63/51 61/61/51 65/65/51
f 64/64/51 62/62/51 66/66/51
f 63/63/51 65/65/51 67/67/51
f 64/64/51 66/66/51 68/68/51
f 67/67/51 65/65/51 69/69/51
f 67/67/51 69/69/51 70/70/51
f 70/70/51 69/69/51 3/71/51
f 68/68/51 66/66/51 71/72/51
f 68/68/51 71/72/51 51/73/51
f 51/73/51 71/72/51 72/74/51
f 51/73/51 72/74/51 47/75/51
f 47/75/51 72/74/51 73/76/51
f 47/75/51 73/76/51 44/77/51
f 44/77/51 73/76/51 74/78/51
f 44/77/51 74/78/51 43/79/51
f 43/79/51 74/78/51 75/80/51
f 43/79/51 75/80/51 45/81/51
f 45/81/51 75/80/51 76/82/51
f 45/81/51 76/82/51 2/83/51
f 2/83/51 76/82/51 77/84/51
f 2/83/51 77/84/51 3/85/51
f 3/85/51 77/84/51 70/86/51
f 78/87/52 79/88/53 80/89/54
f 78/87/52 80/89/54 81/90/55
f 81/90/55 80/89/54 82/91/56
f 81/90/55 82/91/56 83/92/57
f 83/92/57 82/91/56 84/93/58
f 83/92/57 84/93/58 85/94/59
f 85/94/59 84/93/58 86/95/60
f 85/94/59 86/95/60 87/96/61
f 87/96/61 86/95/60 88/97/62
f 87/96/61 88/97/62 89/98/63
f 89/98/63 88/97/62 90/99/64
f 89/98/63 90/99/64 91/100/65
f 91/100/65 90/99/64 92/101/66
f 91/100/65 92/101/66 93/102/67
f 74/103/68 73/104/69 94/105/70
f 94/105/70 73/104/69 72/106/71
f 94/105/70 72/106/71 95/107/72
f 95/107/72 72/106/71 71/108/73
f 95/107/72 71/108/73 66/109/74
f 94/105/70 95/107/72 96/110/75
f 74/103/68 94/105/70 97/111/76
f 74/103/68 97/111/76 75/112/77
f 94/105/70 96/110/75 98/113/78
f 94/105/70 98/113/78 97/111/76
f 98/113/78 96/110/75 99/114/79
f 75/112/77 97/111/76 76/115/80
f 76/115/80 97/111/76 100/116/81
f 76/115/80 100/116/81 77/117/82
f 100/116/81 97/111/76 101/118/83
f 101/118/83 97/111/76 98/113/78
f 100/116/81 101/118/83 102/119/84
f 98/113/78 99/114/79 103/120/85
f 98/113/78 103/120/85 101/118/83
f 103/120/85 99/114/79 104/121/86
f 102/119/84 101/118/83 105/122/87
f 105/122/87 101/118/83 103/120/85
f 102/119/84 105/122/87 106/123/88
f 103/120/85 104/121/86 107/124/89
f 103/120/85 107/124/89 105/122/87
f 107/124/89 104/121/86 108/125/51
f 106/123/88 105/122/87 109/126/90
f 109/126/90 105/122/87 107/124/89
f 109/126/90 107/124/89 108/125/51
f 106/123/88 109/126/90 110/127/91
f 110/127/91 109/126/90 108/125/51
f 111/128/92 112/129/93 113/130/94
f 113/130/94 112/129/93 114/131/95
f 111/128/92 113/130/94 115/132/96
f 114/131/95 112/129/93 116/133/97
f 111/128/92 115/132/96 117/134/98
f 116/133/97 112/129/93 118/135/99
f 111/128/92 117/134/98 119/136/100
f 116/133/97 118/135/99 120/137/101
f 119/136/100 117/134/98 121/138/102
f 120/137/101 118/135/99 122/139/103
f 119/136/100 121/138/102 123/140/104
f 119/136/100 123/140/104 124/141/105
f 124/141/105 123/140/104 125/142/106
f 122/139/103 118/135/99 126/143/107
f 122/139/103 126/143/107 127/144/108
f 127/144/108 126/143/107 128/145/109
f 129/146/110 130/147/111 131/148/112
f 131/148/112 130/147/111 132/149/113
f 129/146/110 131/148/112 133/150/114
f 134/151/115 135/152/116 136/153/117
f 134/151/115 136/153/117 137/154/118
f 135/152/116 134/151/115 138/155/119
f 137/154/118 136/153/117 79/88/53
f 137/154/118 79/88/53 78/87/52
f 136/153/117 135/152/116 133/150/114
f 136/153/117 133/150/114 79/88/53
f 135/152/116 138/155/119 139/156/120
f 139/156/120 138/155/119 140/157/121
f 133/150/114 135/152/116 129/146/110
f 129/146/110 135/152/116 139/156/120
f 79/88/53 133/150/114 141/158/122
f 79/88/53 141/158/122 80/89/54
f 80/89/54 141/158/122 82/91/56
f 141/158/122 133/150/114 131/148/112
f 129/146/110 139/156/120 142/159/123
f 142/159/123 139/156/120 140/157/121
f 129/146/110 142/159/123 130/147/111
f 142/159/123 140/157/121 143/160/124
f 82/91/56 141/158/122 144/161/125
f 144/161/125 141/158/122 131/148/112
f 82/91/56 144/161/125 84/93/58
f 84/93/58 144/161/125 86/95/60
f 142/159/123 143/160/124 145/162/126
f 142/159/123 145/162/126 130/147/111
f 145/162/126 143/160/124 146/163/127
f 130/147/111 145/162/126 147/164/128
f 147/164/128 145/162/126 146/163/127
f 130/147/111 147/164/128 132/149/113
f 147/164/128 146/163/127 148/165/129
f 149/166/130 86/95/60 144/161/125
f 149/166/130 144/161/125 131/148/112
f 86/95/60 149/166/130 88/97/62
f 88/97/62 149/166/130 90/99/64
f 149/166/130 131/148/112 150/167/131
f 149/166/130 150/167/131 90/99/64
f 150/167/131 131/148/112 132/149/113
f 90/99/64 150/167/131 92/101/66
f 92/101/66 150/167/131 151/168/132
f 151/168/132 150/167/131 132/149/113
f 92/101/66 151/168/132 93/102/67
f 152/169/133 132/149/113 147/164/128
f 132/149/113 152/169/133 151/168/132
f 152/169/133 147/164/128 148/165/129
f 151/168/132 152/169/133 153/170/134
f 153/170/134 152/169/133 148/165/129
f 151/168/132 153/170/134 93/102/67
f 153/170/134 148/165/129 154/171/135
f 154/171/135 148/165/129 155/172/136
f 93/102/67 153/170/134 156/173/137
f 156/173/137 153/170/134 154/171/135
f 93/102/67 156/173/137 157/174/138
f 93/102/67 157/174/138 91/100/65
f 156/173/137 154/171/135 158/175/139
f 154/171/135 155/172/136 159/176/140
f 154/171/135 159/176/140 158/175/139
f 157/174/138 156/173/137 160/177/141
f 160/177/141 156/173/137 158/175/139
f 91/100/65 157/174/138 161/178/142
f 91/100/65 161/178/142 89/98/63
f 161/178/142 157/174/138 126/143/107
f 126/143/107 157/174/138 160/177/141
f 126/143/107 160/177/141 128/145/109
f 128/145/109 160/177/141 162/179/143
f 162/179/143 160/177/141 163/180/144
f 163/180/144 160/177/141 158/175/139
f 163/180/144 158/175/139 164/181/145
f 164/181/145 158/175/139 165/182/146
f 165/182/146 158/175/139 159/176/140
f 165/182/146 159/176/140 166/183/147
f 166/183/147 159/176/140 167/184/148
f 167/184/148 159/176/140 168/185/149
f 168/185/149 159/176/140 155/172/136
f 167/184/148 168/185/149 169/186/150
f 168/185/149 155/172/136 170/187/151
f 169/186/150 168/185/149 171/188/152
f 168/185/149 170/187/151 172/189/153
f 168/185/149 172/189/153 171/188/152
f 171/188/152 172/189/153 173/190/154
f 172/189/153 170/187/151 174/191/155
f 173/190/154 172/189/153 175/192/156
f 172/189/153 174/191/155 176/193/157
f 172/189/153 176/193/157 175/192/156
f 175/192/156 176/193/157 177/194/158
f 176/193/157 174/191/155 178/195/159
f 177/194/158 176/193/157 179/196/160
f 176/193/157 178/195/159 180/197/161
f 176/193/157 180/197/161 179/196/160
f 179/196/160 180/197/161 181/198/162
f 180/197/161 178/195/159 182/199/163
f 181/198/162 180/197/161 183/200/164
f 180/197/161 182/199/163 184/201/165
f 180/197/161 184/201/165 183/200/164
f 183/200/164 184/201/165 185/202/166
f 184/201/165 182/199/163 186/203/167
f 185/202/166 184/201/165 187/204/168
f 184/201/165 186/203/167 188/205/169
f 184/201/165 188/205/169 187/204/168
f 187/204/168 188/205/169 20/206/170
f 20/206/170 188/205/169 21/207/171
f 188/205/169 186/203/167 189/208/172
f 21/207/171 188/205/169 190/209/173
f 190/209/173 188/205/169 189/208/172
f 21/207/171 190/209/173 22/210/174
f 22/210/174 190/209/173 25/211/175
f 25/211/175 190/209/173 124/141/105
f 25/211/175 124/141/105 125/142/106
f 190/209/173 189/208/172 191/212/176
f 190/209/173 191/212/176 124/141/105
f 191/212/176 189/208/172 78/87/52
f 78/87/52 189/208/172 137/154/118
f 191/212/176 78/87/52 81/90/55
f 124/141/105 191/212/176 192/213/177
f 192/213/177 191/212/176 81/90/55
f 124/141/105 192/213/177 119/136/100
f 192/213/177 81/90/55 83/92/57
f 119/136/100 192/213/177 193/214/178
f 193/214/178 192/213/177 83/92/57
f 119/136/100 193/214/178 111/128/92
f 193/214/178 83/92/57 85/94/59
f 111/128/92 193/214/178 194/215/179
f 194/215/179 193/214/178 85/94/59
f 111/128/92 194/215/179 112/129/93
f 194/215/179 85/94/59 87/96/61
f 112/129/93 194/215/179 195/216/180
f 195/216/180 194/215/179 87/96/61
f 195/216/180 87/96/61 89/98/63
f 112/129/93 195/216/180 118/135/99
f 195/216/180 89/98/63 161/178/142
f 195/216/180 161/178/142 118/135/99
f 118/135/99 161/178/142 126/143/107
f 137/154/118 189/208/172 186/203/167
f 137/154/118 186/203/167 134/151/115
f 134/151/115 186/203/167 182/199/163
f 134/151/115 182/199/163 138/155/119
f 138/155/119 182/199/163 178/195/159
f 138/155/119 178/195/159 140/157/121
f 140/157/121 178/195/159 174/191/155
f 140/157/121 174/191/155 143/160/124
f 143/160/124 174/191/155 170/187/151
f 143/160/124 170/187/151 146/163/127
f 146/163/127 170/187/151 155/172/136
f 146/163/127 155/172/136 148/165/129
f 77/117/82 100/116/81 70/217/181
f 70/217/181 100/116/81 196/218/182
f 196/218/182 100/116/81 102/119/84
f 196/218/182 102/119/84 197/219/183
f 197/219/183 102/119/84 106/123/88
f 197/219/183 106/123/88 198/220/184
f 198/220/184 106/123/88 110/127/91
f 198/220/184 110/127/91 199/221/185
f 199/221/185 110/127/91 108/125/51
f 104/121/86 200/222/186 108/125/51
f 200/222/186 104/121/86 99/114/79
f 200/222/186 99/114/79 201/223/187
f 201/223/187 99/114/79 96/110/75
f 108/125/51 200/222/186 202/224/188
f 202/224/188 200/222/186 201/223/187
f 108/125/51 202/224/188 203/225/189
f 108/125/51 203/225/189 199/226/190
f 202/224/188 201/223/187 204/227/191
f 202/224/188 204/227/191 203/225/189
f 201/223/187 96/110/75 205/228/192
f 201/223/187 205/228/192 204/227/191
f 205/228/192 96/110/75 95/107/72
f 199/226/190 203/225/189 206/229/193
f 206/229/193 203/225/189 204/227/191
f 199/226/190 206/229/193 198/230/194
f 205/228/192 95/107/72 207/231/195
f 207/231/195 95/107/72 66/109/74
f 207/231/195 66/109/74 62/232/196
f 207/231/195 62/232/196 58/233/197
f 208/234/198 204/227/191 205/228/192
f 208/234/198 205/228/192 207/231/195
f 204/227/191 208/234/198 206/229/193
f 207/231/195 58/233/197 209/235/199
f 207/231/195 209/235/199 208/234/198
f 209/235/199 58/233/197 54/236/200
f 209/235/199 54/236/200 53/237/201
f 206/229/193 208/234/198 210/238/202
f 210/238/202 208/234/198 209/235/199
f 206/229/193 210/238/202 198/230/194
f 198/230/194 210/238/202 197/239/203
f 210/238/202 209/235/199 211/240/204
f 211/240/204 209/235/199 53/237/201
f 210/238/202 211/240/204 197/239/203
f 211/240/204 53/237/201 59/241/205
f 197/239/203 211/240/204 196/242/206
f 211/240/204 59/241/205 63/243/207
f 211/240/204 63/243/207 196/242/206
f 196/242/206 63/243/207 67/244/208
f 196/242/206 67/244/208 70/245/209
f 212/246/210 50/50/48 8/8/8
f 50/50/48 212/246/210 52/52/50
f 212/246/210 8/8/8 9/9/9
f 212/246/210 9/9/9 15/15/15
f 212/246/210 15/15/15 52/52/50
f 40/40/38 52/52/50 41/41/39
f 41/41/39 52/52/50 15/15/15
f 14/14/14 17/17/17 15/15/15
f 15/15/15 17/17/17 26/26/24
f 15/15/15 26/26/24 41/41/39
f 41/41/39 26/26/24 29/29/27
f 41/41/39 29/29/27 36/36/34
f 36/36/34 29/29/27 213/247/211
f 36/36/34 213/247/211 214/248/212
f 36/36/34 214/248/212 30/30/28
f 213/247/211 29/29/27 215/249/213
f 215/249/213 29/29/27 216/250/214
f 216/250/214 29/29/27 28/28/26
f 216/250/214 28/28/26 121/251/41
f 216/250/214 121/251/41 215/249/213
f 121/251/41 28/28/26 123/252/215
f 215/249/213 121/251/41 117/253/216
f 123/252/215 28/28/26 125/254/43
f 125/254/43 28/28/26 27/27/25
f 125/254/43 27/27/25 24/24/22
f 125/254/43 24/24/22 25/25/23
f 215/249/213 117/253/216 115/255/42
f 215/249/213 115/255/42 217/256/217
f 215/249/213 217/256/217 213/247/211
f 217/256/217 115/255/42 218/257/218
f 217/256/217 218/257/218 213/247/211
f 218/257/218 115/255/42 113/258/219
f 218/257/218 113/258/219 114/259/220
f 213/247/211 218/257/218 219/260/221
f 218/257/218 114/259/220 220/261/222
f 218/257/218 220/261/222 219/260/221
f 220/261/222 114/259/220 221/262/223
f 220/261/222 221/262/223 219/260/221
f 221/262/223 114/259/220 116/263/224
f 221/262/223 116/263/224 120/264/225
f 213/247/211 219/260/221 214/248/212
f 221/262/223 120/264/225 222/265/226
f 219/260/221 221/262/223 223/266/227
f 223/266/227 221/262/223 222/265/226
f 222/265/226 120/264/225 224/267/228
f 222/265/226 224/267/228 223/266/227
f 224/267/228 120/264/225 122/268/229
f 224/267/228 122/268/229 127/269/230
f 225/270/231 214/248/212 219/260/221
f 225/270/231 219/260/221 223/266/227
f 224/267/228 127/269/230 226/271/232
f 226/271/232 127/269/230 227/272/233
f 227/272/233 127/269/230 128/273/234
f 227/272/233 128/273/234 162/274/235
f 227/272/233 162/274/235 228/275/236
f 228/275/236 162/274/235 229/276/237
f 229/276/237 162/274/235 163/277/238
f 226/271/232 227/272/233 230/278/239
f 226/271/232 230/278/239 224/267/228
f 224/267/228 230/278/239 223/266/227
f 223/266/227 230/278/239 231/279/240
f 223/266/227 231/279/240 225/270/231
f 232/280/241 233/281/242 230/278/239
f 230/278/239 233/281/242 231/279/240
f 231/279/240 233/281/242 234/282/243
f 234/282/243 233/281/242 235/283/244
f 225/270/231 231/279/240 236/284/245
f 231/279/240 234/282/243 237/285/246
f 231/279/240 237/285/246 236/284/245
f 234/282/243 235/283/244 238/286/247
f 237/285/246 234/282/243 239/287/248
f 239/287/248 234/282/243 238/286/247
f 238/286/247 235/283/244 240/288/249
f 240/288/249 235/283/244 241/289/250
f 240/288/249 241/289/250 242/290/251
f 238/286/247 240/288/249 243/291/252
f 239/287/248 238/286/247 244/292/253
f 244/292/253 238/286/247 243/291/252
f 237/285/246 239/287/248 245/293/254
f 245/293/254 239/287/248 244/292/253
f 237/285/246 245/293/254 236/284/245
f 244/292/253 243/291/252 68/294/230
f 68/294/230 243/291/252 64/295/255
f 244/292/253 68/294/230 51/51/49
f 244/292/253 51/51/49 49/49/47
f 244/292/253 49/49/47 245/293/254
f 236/284/245 245/293/254 246/296/256
f 246/296/256 245/293/254 49/49/47
f 236/284/245 246/296/256 247/297/257
f 236/284/245 247/297/257 225/270/231
f 246/296/256 49/49/47 248/298/258
f 246/296/256 248/298/258 247/297/257
f 248/298/258 49/49/47 46/46/44
f 225/270/231 247/297/257 249/299/259
f 249/299/259 247/297/257 248/298/258
f 225/270/231 249/299/259 214/248/212
f 248/298/258 46/46/44 250/300/260
f 248/298/258 250/300/260 249/299/259
f 250/300/260 46/46/44 31/31/29
f 214/248/212 249/299/259 251/301/261
f 251/301/261 249/299/259 250/300/260
f 251/301/261 250/300/260 31/31/29
f 214/248/212 251/301/261 30/30/28
f 30/30/28 251/301/261 31/31/29
f 230/278/239 227/272/233 232/280/241
f 232/280/241 227/272/233 228/275/236
f 232/280/241 228/275/236 229/276/237
f 163/277/238 164/302/262 229/276/237
f 229/276/237 164/302/262 252/303/263
f 232/280/241 229/276/237 253/304/264
f 253/304/264 229/276/237 252/303/263
f 252/303/263 164/302/262 254/305/265
f 252/303/263 254/305/265 253/304/264
f 254/305/265 164/302/262 165/306/266
f 254/305/265 165/306/266 166/307/267
f 232/280/241 253/304/264 255/308/268
f 254/305/265 166/307/267 256/309/269
f 232/280/241 255/308/268 233/281/242
f 253/304/264 254/305/265 257/310/270
f 257/310/270 254/305/265 256/309/269
f 256/309/269 166/307/267 258/311/271
f 256/309/269 258/311/271 257/310/270
f 258/311/271 166/307/267 167/312/272
f 258/311/271 167/312/272 169/313/273
f 258/311/271 169/313/273 259/314/274
f 253/304/264 257/310/270 260/315/275
f 253/304/264 260/315/275 255/308/268
f 257/310/270 258/311/271 261/316/276
f 261/316/276 258/311/271 259/314/274
f 259/314/274 169/313/273 262/317/277
f 259/314/274 262/317/277 261/316/276
f 262/317/277 169/313/273 171/318/278
f 262/317/277 171/318/278 173/319/279
f 262/317/277 173/319/279 263/320/280
f 257/310/270 261/316/276 264/321/281
f 257/310/270 264/321/281 260/315/275
f 261/316/276 262/317/277 265/322/282
f 265/322/282 262/317/277 263/320/280
f 263/320/280 173/319/279 266/323/283
f 263/320/280 266/323/283 265/322/282
f 266/323/283 173/319/279 175/324/284
f 266/323/283 175/324/284 177/325/285
f 266/323/283 177/325/285 267/326/286
f 261/316/276 265/322/282 268/327/287
f 261/316/276 268/327/287 264/321/281
f 265/322/282 266/323/283 269/328/288
f 269/328/288 266/323/283 267/326/286
f 267/326/286 177/325/285 270/329/289
f 267/326/286 270/329/289 269/328/288
f 270/329/289 177/325/285 179/330/290
f 270/329/289 179/330/290 181/331/291
f 270/329/289 181/331/291 271/332/292
f 265/322/282 269/328/288 272/333/293
f 265/322/282 272/333/293 268/327/287
f 269/328/288 270/329/289 273/334/294
f 273/334/294 270/329/289 271/332/292
f 271/332/292 181/331/291 274/335/295
f 271/332/292 274/335/295 273/334/294
f 274/335/295 181/331/291 183/336/296
f 274/335/295 183/336/296 185/337/297
f 274/335/295 185/337/297 275/338/298
f 269/328/288 273/334/294 276/339/299
f 269/328/288 276/339/299 272/333/293
f 273/334/294 274/335/295 277/340/300
f 277/340/300 274/335/295 275/338/298
f 275/338/298 185/337/297 278/341/301
f 275/338/298 278/341/301 277/340/300
f 278/341/301 185/337/297 187/342/302
f 278/341/301 187/342/302 20/343/303
f 278/341/301 20/343/303 19/344/304
f 278/341/301 19/344/304 16/345/305
f 278/341/301 16/345/305 277/340/300
f 277/340/300 16/345/305 13/346/306
f 279/347/307 273/334/294 277/340/300
f 279/347/307 277/340/300 13/346/306
f 273/334/294 279/347/307 276/339/299
f 279/347/307 13/346/306 280/348/308
f 280/348/308 13/346/306 12/349/309
f 280/348/308 12/349/309 281/350/310
f 281/350/310 12/349/309 6/351/311
f 281/350/310 6/351/311 4/352/312
f 69/353/297 4/352/312 3/354/302
f 4/352/312 69/353/297 282/355/313
f 4/352/312 282/355/313 281/350/310
f 282/355/313 69/353/297 65/356/291
f 280/348/308 281/350/310 283/357/314
f 283/357/314 281/350/310 282/355/313
f 282/355/313 65/356/291 284/358/315
f 282/355/313 284/358/315 283/357/314
f 284/358/315 65/356/291 61/359/285
f 280/348/308 283/357/314 285/360/316
f 280/348/308 285/360/316 279/347/307
f 285/360/316 283/357/314 286/361/317
f 286/361/317 283/357/314 284/358/315
f 279/347/307 285/360/316 287/362/318
f 287/362/318 285/360/316 286/361/317
f 279/347/307 287/362/318 276/339/299
f 284/358/315 61/359/285 288/363/319
f 288/363/319 61/359/285 57/364/320
f 286/361/317 284/358/315 289/365/321
f 286/361/317 289/365/321 287/362/318
f 289/365/321 284/358/315 290/366/322
f 290/366/322 284/358/315 288/363/319
f 287/362/318 289/365/321 291/367/323
f 291/367/323 289/365/321 290/366/322
f 287/362/318 291/367/323 276/339/299
f 276/339/299 291/367/323 292/368/324
f 292/368/324 291/367/323 290/366/322
f 276/339/299 292/368/324 272/333/293
f 290/366/322 288/363/319 293/369/325
f 290/366/322 293/369/325 292/368/324
f 294/370/326 288/363/319 57/364/320
f 294/370/326 57/364/320 55/371/327
f 293/369/325 288/363/319 295/372/328
f 295/372/328 288/363/319 294/370/326
f 292/368/324 293/369/325 296/373/329
f 296/373/329 293/369/325 295/372/328
f 292/368/324 296/373/329 272/333/293
f 272/333/293 296/373/329 297/374/330
f 297/374/330 296/373/329 295/372/328
f 272/333/293 297/374/330 268/327/287
f 298/375/331 294/370/326 55/371/327
f 298/375/331 55/371/327 56/376/332
f 299/377/333 295/372/328 294/370/326
f 295/372/328 299/377/333 297/374/330
f 299/377/333 294/370/326 300/378/334
f 300/378/334 294/370/326 298/375/331
f 297/374/330 299/377/333 301/379/335
f 301/379/335 299/377/333 300/378/334
f 297/374/330 301/379/335 268/327/287
f 268/327/287 301/379/335 302/380/336
f 302/380/336 301/379/335 300/378/334
f 268/327/287 302/380/336 264/321/281
f 300/378/334 298/375/331 303/381/337
f 300/378/334 303/381/337 302/380/336
f 304/382/338 298/375/331 56/376/332
f 304/382/338 56/376/332 60/383/339
f 303/381/337 298/375/331 305/384/340
f 305/384/340 298/375/331 304/382/338
f 302/380/336 303/381/337 306/385/341
f 306/385/341 303/381/337 305/384/340
f 302/380/336 306/385/341 264/321/281
f 264/321/281 306/385/341 307/386/342
f 307/386/342 306/385/341 305/384/340
f 264/321/281 307/386/342 260/315/275
f 308/387/343 304/382/338 60/383/339
f 308/387/343 60/383/339 64/295/255
f 309/388/344 305/384/340 304/382/338
f 305/384/340 309/388/344 307/386/342
f 308/387/343 64/295/255 243/291/252
f 309/388/344 304/382/338 310/389/345
f 310/389/345 304/382/338 308/387/343
f 307/386/342 309/388/344 311/390/346
f 311/390/346 309/388/344 310/389/345
f 307/386/342 311/390/346 260/315/275
f 260/315/275 311/390/346 312/391/347
f 312/391/347 311/390/346 310/389/345
f 260/315/275 312/391/347 255/308/268
f 310/389/345 308/387/343 313/392/348
f 310/389/345 313/392/348 312/391/347
f 242/290/251 308/387/343 243/291/252
f 308/387/343 242/290/251 313/392/348
f 242/290/251 243/291/252 240/288/249
f 312/391/347 313/392/348 314/393/349
f 314/393/349 313/392/348 242/290/251
f 312/391/347 314/393/349 255/308/268
f 314/393/349 242/290/251 241/289/250
f 314/393/349 241/289/250 255/308/268
f 255/308/268 241/289/250 233/281/242
f 233/281/242 241/289/250 235/283/244
