# CS2 body mesh, tools/cs2_glb_to_obj.py
v 0.02691 0.07616 -0.00212
v 0.02731 0.07709 -0.00212
v 0.02765 0.07592 -0.00294
v 0.02731 0.07709 0.03313
v 0.02848 0.07743 -0.00294
v 0.02691 0.07616 0.03313
v 0.0267 0.07516 -0.00212
v 0.02871 0.07559 0.03688
v 0.0267 0.07516 0.03313
v 0.02747 0.07421 -0.00294
v 0.02669 0.07415 -0.00212
v 0.02669 0.07415 0.03313
v 0.02857 0.07431 0.03688
v 0.02688 0.07315 -0.00212
v 0.02688 0.07315 0.03313
v 0.02795 0.07257 -0.00294
v 0.02871 0.07559 0.04225
v 0.02933 0.07672 0.04225
v 0.02857 0.07431 0.04225
v 0.02933 0.07672 0.03688
v 0.03033 0.07752 0.04225
v 0.02893 0.07308 0.03688
v 0.02893 0.07308 0.04225
v 0.03033 0.07752 0.03688
v 0.03157 0.07788 0.04225
v 0.02788 0.07793 0.03313
v 0.02974 0.07208 0.03688
v 0.02973 0.07207 0.04225
v 0.02788 0.07793 -0.00212
v 0.02861 0.07864 0.03313
v 0.02861 0.07864 -0.00212
v 0.02946 0.07919 0.03313
v 0.0304 0.07957 0.03313
v 0.02946 0.07919 -0.00212
v 0.02982 0.0785 -0.00294
v 0.03157 0.07788 0.03688
v 0.03284 0.07774 0.04225
v 0.03284 0.07774 0.03688
v 0.03242 0.07975 0.03313
v 0.03341 0.07954 0.03313
v 0.0314 0.07976 0.03313
v 0.0304 0.07957 -0.00212
v 0.0314 0.07976 -0.00212
v 0.03242 0.07975 -0.00212
v 0.03341 0.07954 -0.00212
v 0.03434 0.07914 0.03313
v 0.03434 0.07914 -0.00212
v 0.03318 0.0788 -0.00294
v 0.03397 0.07712 0.03688
v 0.03397 0.07712 0.04225
v 0.03478 0.07612 0.04225
v 0.03478 0.07612 0.03688
v 0.03514 0.07489 0.04225
v 0.03518 0.07857 0.03313
v 0.03589 0.07784 0.03313
v 0.03518 0.07857 -0.00212
v 0.03468 0.07797 -0.00294
v 0.03589 0.07784 -0.00212
v 0.03645 0.07699 0.03313
v 0.03468 0.07797 -0.00404
v 0.03318 0.0788 -0.00404
v 0.03576 0.07663 -0.00294
v 0.03576 0.07663 -0.00404
v 0.03645 0.07699 -0.00212
v 0.03683 0.07605 0.03313
v 0.03683 0.07605 -0.00212
v 0.03514 0.07489 0.03688
v 0.03004 0.07244 0.04225
v 0.02936 0.0733 0.04225
v 0.02905 0.07435 0.04225
v 0.03101 0.07192 0.04225
v 0.03086 0.07145 0.04225
v 0.02917 0.07544 0.04225
v 0.0321 0.0718 0.04225
v 0.03214 0.07131 0.04225
v 0.0297 0.07641 0.04225
v 0.03315 0.0721 0.04225
v 0.03338 0.07167 0.04225
v 0.03401 0.07279 0.04225
v 0.03438 0.07248 0.04225
v 0.03055 0.07709 0.04225
v 0.03161 0.0774 0.04225
v 0.0327 0.07728 0.04225
v 0.03366 0.07675 0.04225
v 0.03435 0.0759 0.04225
v 0.03466 0.07484 0.04225
v 0.035 0.07361 0.04225
v 0.03454 0.07375 0.04225
v 0.03215 0.07729 0.04496
v 0.03016 0.07671 0.04496
v 0.03047 0.07632 0.04964
v 0.03209 0.07679 0.04964
v 0.02916 0.07489 0.04496
v 0.02966 0.07484 0.04964
v 0.02974 0.0729 0.04496
v 0.03156 0.0719 0.04496
v 0.03161 0.0724 0.04964
v 0.03013 0.07322 0.04964
v 0.03171 0.07327 0.05351
v 0.03081 0.07376 0.05351
v 0.03177 0.07385 0.05485
v 0.03052 0.07474 0.05351
v 0.03126 0.07413 0.05485
v 0.03185 0.0746 0.05535
v 0.03232 0.07401 0.05485
v 0.0311 0.07468 0.05485
v 0.03101 0.07564 0.05351
v 0.032 0.07593 0.05351
v 0.03138 0.07519 0.05485
v 0.03193 0.07535 0.05485
v 0.03356 0.07549 -0.00581
v 0.03244 0.0753 -0.00581
v 0.03309 0.07607 -0.00581
v 0.03243 0.07643 -0.00581
v 0.03185 0.0746 -0.00548
v 0.03177 0.07551 -0.00581
v 0.03115 0.07519 -0.00581
v 0.03168 0.07652 -0.00581
v 0.03096 0.07631 -0.00581
v 0.03038 0.07584 -0.00581
v 0.03084 0.07654 -0.00521
v 0.03166 0.07678 -0.00521
v 0.03251 0.07669 -0.00521
v 0.03265 0.07713 -0.00567
v 0.03162 0.07724 -0.00567
v 0.03356 0.07663 -0.00567
v 0.03326 0.07628 -0.00521
v 0.03145 0.0792 -0.00567
v 0.03324 0.079 -0.00567
v 0.03421 0.07582 -0.00567
v 0.0338 0.07561 -0.00521
v 0.03482 0.07813 -0.00567
v 0.03434 0.07914 -0.00538
v 0.03341 0.07954 -0.00538
v 0.03242 0.07975 -0.00538
v 0.0314 0.07976 -0.00538
v 0.03595 0.07673 -0.00567
v 0.0304 0.07957 -0.00538
v 0.0345 0.07483 -0.00567
v 0.03645 0.075 -0.00567
v 0.03404 0.07479 -0.00521
v 0.02972 0.07869 -0.00567
v 0.03438 0.0738 -0.00567
v 0.03625 0.07321 -0.00567
v 0.03394 0.07394 -0.00521
v 0.02946 0.07919 -0.00538
v 0.03063 0.07695 -0.00567
v 0.02861 0.07864 -0.00538
v 0.02832 0.07757 -0.00567
v 0.02788 0.07793 -0.00538
v 0.02982 0.0763 -0.00567
v 0.02731 0.07709 -0.00538
v 0.02745 0.07599 -0.00567
v 0.02691 0.07616 -0.00538
v 0.02932 0.0754 -0.00567
v 0.0267 0.07516 -0.00538
v 0.02725 0.0742 -0.00567
v 0.02669 0.07415 -0.00538
v 0.02921 0.07437 -0.00567
v 0.02688 0.07315 -0.00538
v 0.02776 0.07247 -0.00567
v 0.02726 0.07221 -0.00538
v 0.0295 0.07337 -0.00567
v 0.02781 0.07136 -0.00538
v 0.02889 0.07106 -0.00567
v 0.02852 0.07063 -0.00538
v 0.03015 0.07257 -0.00567
v 0.02936 0.07006 -0.00538
v 0.03046 0.0702 -0.00567
v 0.03029 0.06966 -0.00538
v 0.03105 0.07207 -0.00567
v 0.03129 0.06945 -0.00538
v 0.03225 0.07 -0.00567
v 0.0323 0.06944 -0.00538
v 0.0333 0.06963 -0.00538
v 0.03208 0.07195 -0.00567
v 0.03204 0.07241 -0.00521
v 0.03287 0.07265 -0.00521
v 0.03398 0.0705 -0.00567
v 0.03424 0.07 -0.00538
v 0.03308 0.07224 -0.00567
v 0.03353 0.07319 -0.00521
v 0.03539 0.07163 -0.00567
v 0.03389 0.07289 -0.00567
v 0.03002 0.07518 -0.00581
v 0.02976 0.07526 -0.00521
v 0.03017 0.07601 -0.00521
v 0.02993 0.07443 -0.00581
v 0.02967 0.07441 -0.00521
v 0.03094 0.07452 -0.00581
v 0.03015 0.07371 -0.00581
v 0.02991 0.07359 -0.00521
v 0.03127 0.0739 -0.00581
v 0.03062 0.07312 -0.00581
v 0.03044 0.07292 -0.00521
v 0.03127 0.07276 -0.00581
v 0.03119 0.07251 -0.00521
v 0.03202 0.07268 -0.00581
v 0.03193 0.07369 -0.00581
v 0.03274 0.07289 -0.00581
v 0.03255 0.07401 -0.00581
v 0.03333 0.07336 -0.00581
v 0.03369 0.07402 -0.00581
v 0.03276 0.07468 -0.00581
v 0.03377 0.07477 -0.00581
v 0.03518 0.07857 -0.00538
v 0.03589 0.07784 -0.00538
v 0.03645 0.07699 -0.00538
v 0.03683 0.07605 -0.00538
v 0.03701 0.07505 -0.00538
v 0.037 0.07403 -0.00538
v 0.03679 0.07304 -0.00538
v 0.03639 0.07211 -0.00538
v 0.03582 0.07127 -0.00538
v 0.03509 0.07056 -0.00538
v 0.03397 0.07629 0.04496
v 0.03455 0.0743 0.04496
v 0.03355 0.07249 0.04496
v 0.03358 0.07598 0.04964
v 0.03405 0.07436 0.04964
v 0.03324 0.07288 0.04964
v 0.0329 0.07544 0.05351
v 0.03318 0.07445 0.05351
v 0.03269 0.07356 0.05351
v 0.03244 0.07507 0.05485
v 0.0326 0.07452 0.05485
v 0.03701 0.07505 0.03313
v 0.035 0.07361 0.03688
v 0.03438 0.07248 0.03688
v 0.03639 0.07211 0.03313
v 0.03582 0.07127 0.03313
v 0.037 0.07403 0.03313
v 0.03679 0.07304 0.03313
v 0.03639 0.07211 -0.00212
v 0.03582 0.07127 -0.00212
v 0.03522 0.07177 -0.00294
v 0.03679 0.07304 -0.00212
v 0.03605 0.07327 -0.00294
v 0.03522 0.07177 -0.00404
v 0.037 0.07403 -0.00212
v 0.03701 0.07505 -0.00212
v 0.03624 0.07498 -0.00294
v 0.03605 0.07327 -0.00404
v 0.03624 0.07498 -0.00404
v 0.03639 0.07211 -0.00433
v 0.03582 0.07127 -0.00433
v 0.03679 0.07304 -0.00433
v 0.037 0.07403 -0.00433
v 0.03701 0.07505 -0.00433
v 0.03683 0.07605 -0.00433
v 0.03645 0.07699 -0.00433
v 0.03589 0.07784 -0.00433
v 0.03518 0.07857 -0.00433
v 0.03434 0.07914 -0.00433
v 0.03341 0.07954 -0.00433
v 0.03242 0.07975 -0.00433
v 0.03147 0.07898 -0.00294
v 0.03147 0.07898 -0.00404
v 0.02982 0.0785 -0.00404
v 0.0314 0.07976 -0.00433
v 0.0304 0.07957 -0.00433
v 0.02946 0.07919 -0.00433
v 0.02861 0.07864 -0.00433
v 0.02848 0.07743 -0.00404
v 0.02788 0.07793 -0.00433
v 0.02731 0.07709 -0.00433
v 0.02765 0.07592 -0.00404
v 0.02691 0.07616 -0.00433
v 0.0267 0.07516 -0.00433
v 0.02747 0.07421 -0.00404
v 0.02669 0.07415 -0.00433
v 0.02688 0.07315 -0.00433
v 0.02795 0.07257 -0.00404
v 0.02726 0.07221 -0.00433
v 0.02781 0.07136 -0.00433
v 0.02852 0.07063 -0.00433
v 0.02902 0.07123 -0.00404
v 0.02936 0.07006 -0.00433
v 0.02902 0.07123 -0.00294
v 0.03053 0.0704 -0.00404
v 0.03029 0.06966 -0.00433
v 0.03129 0.06945 -0.00433
v 0.0323 0.06944 -0.00433
v 0.03053 0.0704 -0.00294
v 0.03224 0.07021 -0.00404
v 0.0333 0.06963 -0.00433
v 0.03389 0.07069 -0.00404
v 0.03424 0.07 -0.00433
v 0.03509 0.07056 -0.00433
v 0.03224 0.07021 -0.00294
v 0.03389 0.07069 -0.00294
v 0.0333 0.06963 -0.00212
v 0.0323 0.06944 -0.00212
v 0.0323 0.06944 0.03313
v 0.0333 0.06963 0.03313
v 0.03129 0.06945 -0.00212
v 0.03214 0.07131 0.03688
v 0.03129 0.06945 0.03313
v 0.03086 0.07145 0.03688
v 0.03029 0.06966 0.03313
v 0.03029 0.06966 -0.00212
v 0.02936 0.07006 0.03313
v 0.02936 0.07006 -0.00212
v 0.02853 0.07063 0.03313
v 0.02782 0.07136 0.03313
v 0.02852 0.07063 -0.00212
v 0.02781 0.07136 -0.00212
v 0.02726 0.07221 0.03313
v 0.02726 0.07221 -0.00212
v 0.03509 0.07056 -0.00212
v 0.03424 0.07 -0.00212
v 0.03424 0.07 0.03313
v 0.03509 0.07056 0.03313
v 0.03338 0.07167 0.03688
vt 0.771973 0.992676
vt 0.770996 0.992676
vt 0.772461 0.993652
vt 0.770996 0.95166
vt 0.77002 0.993652
vt 0.771973 0.95166
vt 0.773438 0.992676
vt 0.771973 0.946777
vt 0.773438 0.95166
vt 0.774414 0.993652
vt 0.774414 0.992676
vt 0.774414 0.95166
vt 0.773926 0.946777
vt 0.775391 0.992676
vt 0.775391 0.95166
vt 0.776855 0.993652
vt 0.771973 0.940918
vt 0.77002 0.940918
vt 0.773926 0.940918
vt 0.77002 0.946777
vt 0.768066 0.940918
vt 0.775879 0.946777
vt 0.775879 0.940918
vt 0.768066 0.946777
vt 0.766113 0.940918
vt 0.77002 0.95166
vt 0.777832 0.946777
vt 0.777832 0.940918
vt 0.77002 0.992676
vt 0.769043 0.95166
vt 0.769043 0.992676
vt 0.768066 0.95166
vt 0.766602 0.95166
vt 0.768066 0.992676
vt 0.767578 0.993652
vt 0.766113 0.946777
vt 0.76416 0.940918
vt 0.76416 0.946777
vt 0.764648 0.95166
vt 0.763672 0.95166
vt 0.765625 0.95166
vt 0.766602 0.992676
vt 0.765625 0.992676
vt 0.764648 0.992676
vt 0.763672 0.992676
vt 0.762695 0.95166
vt 0.762695 0.992676
vt 0.763184 0.993652
vt 0.762207 0.946777
vt 0.762207 0.940918
vt 0.760742 0.940918
vt 0.760742 0.946777
vt 0.758789 0.940918
vt 0.76123 0.95166
vt 0.760254 0.95166
vt 0.76123 0.992676
vt 0.76123 0.993652
vt 0.760254 0.992676
vt 0.759277 0.95166
vt 0.760742 0.995117
vt 0.763184 0.995117
vt 0.758789 0.993652
vt 0.758789 0.995117
vt 0.759277 0.992676
vt 0.758301 0.95166
vt 0.758301 0.992676
vt 0.758789 0.946777
vt 0.110779 0.089966
vt 0.110779 0.088318
vt 0.110291 0.088318
vt 0.110291 0.086609
vt 0.110291 0.089966
vt 0.110779 0.086609
vt 0.110779 0.091614
vt 0.110291 0.0849
vt 0.110291 0.091553
vt 0.110779 0.0849
vt 0.110779 0.09314
vt 0.110291 0.083191
vt 0.110291 0.093079
vt 0.110779 0.083191
vt 0.110779 0.094604
vt 0.110291 0.081482
vt 0.110291 0.094543
vt 0.110779 0.095947
vt 0.110291 0.096008
vt 0.110779 0.081482
vt 0.110291 0.079773
vt 0.110779 0.079773
vt 0.110291 0.078064
vt 0.110779 0.078064
vt 0.110291 0.076416
vt 0.110779 0.076416
vt 0.110291 0.074829
vt 0.110779 0.074829
vt 0.110291 0.073364
vt 0.110779 0.073303
vt 0.110291 0.071899
vt 0.110779 0.071838
vt 0.110291 0.070435
vt 0.110779 0.070496
vt 0.060089 0.019485
vt 0.061157 0.016693
vt 0.059723 0.016693
vt 0.057526 0.019424
vt 0.058289 0.016693
vt 0.056824 0.016693
vt 0.057465 0.024323
vt 0.059387 0.024429
vt 0.054932 0.019485
vt 0.055359 0.016693
vt 0.053955 0.016693
vt 0.055542 0.024414
vt 0.052429 0.019638
vt 0.052582 0.016693
vt 0.05127 0.016693
vt 0.050079 0.019913
vt 0.050018 0.016693
vt 0.048828 0.016693
vt 0.05191 0.025238
vt 0.05368 0.024719
vt 0.054474 0.029312
vt 0.055359 0.028839
vt 0.055969 0.030518
vt 0.056366 0.02858
vt 0.056366 0.030212
vt 0.057373 0.030884
vt 0.055725 0.031036
vt 0.056854 0.030029
vt 0.057404 0.028503
vt 0.058441 0.028595
vt 0.057404 0.029953
vt 0.057922 0.030029
vt 0.515137 0.200317
vt 0.516113 0.199463
vt 0.515137 0.199585
vt 0.515137 0.19873
vt 0.51709 0.199463
vt 0.516602 0.198853
vt 0.51709 0.198486
vt 0.515625 0.19812
vt 0.516602 0.197632
vt 0.51709 0.19751
vt 0.516113 0.197021
vt 0.515137 0.197632
vt 0.514648 0.198486
vt 0.51416 0.198242
vt 0.514648 0.197144
vt 0.513672 0.199585
vt 0.514648 0.199585
vt 0.513184 0.195679
vt 0.512207 0.197388
vt 0.51416 0.200806
vt 0.514648 0.200562
vt 0.511719 0.199585
vt 0.51123 0.198364
vt 0.51123 0.197144
vt 0.511719 0.196045
vt 0.512695 0.195068
vt 0.512207 0.20166
vt 0.513672 0.194336
vt 0.514648 0.201904
vt 0.513184 0.203491
vt 0.515137 0.201416
vt 0.515137 0.194336
vt 0.516113 0.202637
vt 0.515137 0.204712
vt 0.516113 0.202026
vt 0.514648 0.193726
vt 0.515625 0.196411
vt 0.515625 0.193359
vt 0.51709 0.19397
vt 0.51709 0.193237
vt 0.51709 0.196167
vt 0.518066 0.193359
vt 0.519043 0.194336
vt 0.519531 0.193604
vt 0.518555 0.196411
vt 0.520508 0.194214
vt 0.520996 0.195557
vt 0.521484 0.194946
vt 0.519531 0.197144
vt 0.522461 0.195923
vt 0.522461 0.197266
vt 0.522949 0.197021
vt 0.52002 0.19812
vt 0.523438 0.19812
vt 0.522949 0.199463
vt 0.523438 0.199341
vt 0.520508 0.199463
vt 0.523438 0.200684
vt 0.522461 0.201538
vt 0.522949 0.201782
vt 0.520508 0.200684
vt 0.522461 0.202881
vt 0.520996 0.203369
vt 0.521484 0.203857
vt 0.520508 0.204712
vt 0.519531 0.201782
vt 0.519043 0.201416
vt 0.518066 0.201904
vt 0.519531 0.20459
vt 0.519531 0.205322
vt 0.518555 0.202515
vt 0.51709 0.202148
vt 0.51709 0.205078
vt 0.51709 0.202881
vt 0.518066 0.197632
vt 0.518066 0.197021
vt 0.51709 0.196777
vt 0.518555 0.197998
vt 0.519043 0.197632
vt 0.518066 0.198853
vt 0.519043 0.19873
vt 0.519531 0.198486
vt 0.518066 0.199463
vt 0.519043 0.199463
vt 0.52002 0.199463
vt 0.519043 0.200195
vt 0.519531 0.200439
vt 0.518555 0.200928
vt 0.518066 0.200195
vt 0.518066 0.201416
vt 0.51709 0.200439
vt 0.51709 0.201538
vt 0.516602 0.201416
vt 0.516602 0.200195
vt 0.515625 0.200928
vt 0.510742 0.199585
vt 0.51123 0.200806
vt 0.51123 0.202026
vt 0.512207 0.203003
vt 0.512695 0.203979
vt 0.513672 0.204712
vt 0.514648 0.205322
vt 0.516113 0.205688
vt 0.51709 0.205811
vt 0.518555 0.205688
vt 0.0625 0.016693
vt 0.062561 0.019669
vt 0.063843 0.016693
vt 0.065063 0.016693
vt 0.06488 0.019989
vt 0.066223 0.016693
vt 0.067383 0.016693
vt 0.067139 0.020676
vt 0.061218 0.024765
vt 0.062927 0.025345
vt 0.064575 0.026245
vt 0.059448 0.02887
vt 0.060303 0.029358
vt 0.061066 0.030121
vt 0.058411 0.030212
vt 0.058807 0.030533
vt 0.059021 0.031052
vt 0.757324 0.940918
vt 0.756836 0.95166
vt 0.757324 0.946777
vt 0.755859 0.940918
vt 0.755859 0.946777
vt 0.753906 0.95166
vt 0.752441 0.95166
vt 0.755859 0.95166
vt 0.754883 0.95166
vt 0.753906 0.992676
vt 0.752441 0.992676
vt 0.752441 0.993652
vt 0.754883 0.992676
vt 0.754395 0.993652
vt 0.751953 0.995117
vt 0.755859 0.992676
vt 0.756836 0.992676
vt 0.756836 0.993652
vt 0.754395 0.995117
vt 0.756348 0.995117
vt 0.75293 0.996094
vt 0.751465 0.996094
vt 0.751465 0.997559
vt 0.752441 0.997559
vt 0.753906 0.997559
vt 0.753906 0.996094
vt 0.754883 0.996094
vt 0.754883 0.997559
vt 0.756348 0.997559
vt 0.756348 0.996094
vt 0.757324 0.996094
vt 0.757324 0.997559
vt 0.758301 0.997559
vt 0.758301 0.996094
vt 0.759766 0.996094
vt 0.759766 0.997559
vt 0.760742 0.996094
vt 0.760742 0.997559
vt 0.762207 0.996094
vt 0.761719 0.997559
vt 0.763184 0.997559
vt 0.763184 0.996094
vt 0.76416 0.996094
vt 0.76416 0.997559
vt 0.765625 0.993652
vt 0.765625 0.995117
vt 0.767578 0.995117
vt 0.765625 0.996094
vt 0.765625 0.997559
vt 0.766602 0.996094
vt 0.766602 0.997559
vt 0.767578 0.997559
vt 0.767578 0.996094
vt 0.769043 0.996094
vt 0.769043 0.997559
vt 0.77002 0.997559
vt 0.77002 0.995117
vt 0.77002 0.996094
vt 0.770996 0.996094
vt 0.770996 0.997559
vt 0.772461 0.995117
vt 0.772461 0.997559
vt 0.772461 0.996094
vt 0.773438 0.996094
vt 0.773438 0.997559
vt 0.774414 0.997559
vt 0.774414 0.995117
vt 0.774414 0.996094
vt 0.775879 0.996094
vt 0.775879 0.997559
vt 0.776855 0.997559
vt 0.776855 0.995117
vt 0.776855 0.996094
vt 0.777832 0.996094
vt 0.777832 0.997559
vt 0.779297 0.997559
vt 0.779297 0.996094
vt 0.779297 0.995117
vt 0.780273 0.996094
vt 0.780273 0.997559
vt 0.781738 0.997559
vt 0.778809 0.993652
vt 0.78125 0.995117
vt 0.78125 0.996094
vt 0.782715 0.996094
vt 0.782715 0.997559
vt 0.783691 0.997559
vt 0.783691 0.996094
vt 0.78125 0.993652
vt 0.783691 0.995117
vt 0.784668 0.996094
vt 0.785156 0.997559
vt 0.785645 0.995117
vt 0.786133 0.996094
vt 0.787109 0.996094
vt 0.783203 0.993652
vt 0.785645 0.993652
vt 0.78418 0.992676
vt 0.782715 0.992676
vt 0.782715 0.95166
vt 0.78418 0.95166
vt 0.781738 0.992676
vt 0.78125 0.946777
vt 0.781738 0.95166
vt 0.78125 0.940918
vt 0.779297 0.940918
vt 0.779297 0.946777
vt 0.780762 0.95166
vt 0.780762 0.992676
vt 0.779785 0.95166
vt 0.779785 0.992676
vt 0.778809 0.95166
vt 0.777344 0.95166
vt 0.778809 0.992676
vt 0.777344 0.992676
vt 0.776367 0.95166
vt 0.776367 0.992676
vt 0.786133 0.997559
vt 0.787598 0.997559
vt 0.788574 0.997559
vt 0.788086 0.996094
vt 0.788086 0.995117
vt 0.787598 0.993652
vt 0.786133 0.992676
vt 0.787109 0.992676
vt 0.785156 0.992676
vt 0.785156 0.95166
vt 0.786133 0.95166
vt 0.787109 0.95166
vt 0.78418 0.946777
vt 0.782715 0.946777
vt 0.782715 0.940918
vt 0.78418 0.940918
vt 0.05368 0.03006
vt 0.050232 0.026093
vt 0.047729 0.020294
vt 0.047699 0.016693
vt 0.0466 0.016693
vn -0.9536 0.3004 -0.0212
vn -0.8763 0.4808 -0.0284
vn -0.8815 0.2788 -0.3812
vn -0.8748 0.482 0.0481
vn -0.7091 0.5939 -0.38
vn -0.9524 0.3013 0.047
vn -0.9936 0.1094 -0.0276
vn -0.9311 0.2944 0.2155
vn -0.9929 0.1091 0.0483
vn -0.9212 -0.0797 -0.3809
vn -0.9961 -0.0852 -0.0216
vn -0.9951 -0.0872 0.0463
vn -0.973 -0.0859 0.214
vn -0.9592 -0.2813 -0.0273
vn -0.9586 -0.2805 0.0478
vn -0.8209 -0.4247 -0.3818
vn -0.9537 0.3007 0.0012
vn -0.7677 0.6409 -0.0014
vn -0.9961 -0.088 0
vn -0.7474 0.6293 0.2129
vn -0.4635 0.8861 -0.0013
vn -0.8654 -0.4537 0.2126
vn -0.8864 -0.463 0
vn -0.4506 0.8667 0.2141
vn -0.088 0.9961 -0.0011
vn -0.7661 0.641 0.0469
vn -0.6282 -0.7479 0.2146
vn -0.6417 -0.767 0
vn -0.767 0.6413 -0.021
vn -0.6269 0.7775 0.0498
vn -0.627 0.7785 -0.0295
vn -0.4625 0.8854 0.0477
vn -0.2809 0.9585 0.0491
vn -0.4615 0.8869 -0.0201
vn -0.4282 0.8197 -0.3804
vn -0.0859 0.9727 0.2155
vn 0.3007 0.9537 -0.0012
vn 0.2944 0.9311 0.2155
vn 0.1091 0.9929 0.0483
vn 0.3013 0.9524 0.047
vn -0.0872 0.9951 0.0475
vn -0.2787 0.96 -0.0285
vn -0.0874 0.996 -0.0205
vn 0.1094 0.9936 -0.0276
vn 0.3004 0.9536 -0.0212
vn 0.4788 0.8766 0.048
vn 0.4808 0.8763 -0.0284
vn 0.2788 0.8815 -0.3812
vn 0.626 0.7502 0.2128
vn 0.6438 0.7652 -0.0014
vn 0.8877 0.4604 -0.0013
vn 0.8667 0.4506 0.2141
vn 0.9963 0.0858 -0.0011
vn 0.641 0.7661 0.0469
vn 0.78 0.6237 0.0497
vn 0.6443 0.7645 -0.021
vn 0.5939 0.7091 -0.38
vn 0.7809 0.6239 -0.0294
vn 0.8871 0.4592 0.0477
vn 0.5651 0.6725 0.4779
vn 0.264 0.8383 0.477
vn 0.8197 0.4282 -0.3804
vn 0.7788 0.4081 0.4764
vn 0.8869 0.4615 -0.0201
vn 0.9594 0.2779 0.049
vn 0.96 0.2787 -0.0285
vn 0.974 0.0804 0.2116
vn 0 -0.001 1
vn 0.1065 0.9891 0.1018
vn 0.3234 0.9443 0.061
vn -0.1388 0.9881 0.0665
vn -0.6231 0.7756 0.1012
vn -0.4382 0.8968 0.0614
vn -0.7973 0.5998 0.0673
vn -0.6073 0.7791 0.1552
vn 0.1188 0.981 0.1531
vn -0.9891 0.1065 0.1018
vn -0.9443 0.3234 0.061
vn -0.988 -0.139 0.0677
vn -0.9807 0.1215 0.1534
vn -0.7749 -0.6237 0.1027
vn -0.8965 -0.4387 0.0629
vn -0.5988 -0.7979 0.0688
vn -0.1053 -0.9891 0.103
vn -0.3222 -0.9446 0.0624
vn 0.1403 -0.9878 0.0678
vn -0.1203 -0.9806 0.1546
vn -0.7773 -0.6101 0.1537
vn -0.1346 -0.9566 0.2586
vn -0.7717 -0.5812 0.2583
vn -0.1291 -0.8318 0.5399
vn -0.9564 0.1332 0.2599
vn -0.678 -0.5018 0.5371
vn 0.243 -0.8322 0.4984
vn -0.8335 0.1274 0.5376
vn -0.5816 0.7708 0.2601
vn 0.1332 0.9564 0.2599
vn -0.4983 0.6795 0.5385
vn 0.1274 0.8335 0.5376
vn 0.431 0.2192 -0.8753
vn -0.0747 -0.0894 -0.9932
vn 0.3151 0.3669 -0.8753
vn 0.1495 0.4601 -0.8752
vn 0 -0.001 -1
vn 0.0109 -0.1149 -0.9933
vn 0.0882 -0.0758 -0.9932
vn -0.0396 0.482 -0.8753
vn -0.2192 0.431 -0.8753
vn -0.3698 0.312 -0.8751
vn -0.009 0.011 -0.9999
vn -0.005 0.0129 -0.9999
vn 0.001 0.0129 -0.9999
vn -0.0408 -0.1281 -0.9909
vn 0.0111 -0.1319 -0.9912
vn -0.0876 -0.1003 -0.9911
vn 0.005 0.0129 -0.9999
vn -0.0098 0.1123 -0.9936
vn 0.0343 0.1053 -0.9939
vn -0.119 -0.0607 -0.991
vn 0.009 0.011 -0.9999
vn 0.0732 0.0844 -0.9937
vn 0.2006 0.3681 -0.9079
vn 0.1388 0.4366 -0.8889
vn 0.0469 0.417 -0.9077
vn -0.0392 0.456 -0.8891
vn 0.0997 0.0526 -0.9936
vn -0.1186 0.4005 -0.9086
vn -0.133 -0.01 -0.9911
vn 0.1123 0.0098 -0.9936
vn 0.0129 0.005 -0.9999
vn -0.0526 0.0997 -0.9936
vn -0.1257 0.0419 -0.9912
vn 0.1065 -0.0344 -0.9937
vn 0.0129 0.001 -0.9999
vn -0.2107 0.4081 -0.8883
vn 0.0595 -0.1202 -0.991
vn -0.2618 0.3262 -0.9083
vn -0.0867 0.0709 -0.9937
vn -0.3494 0.2954 -0.8892
vn 0.1014 -0.0864 -0.9911
vn -0.3681 0.2006 -0.9079
vn -0.1075 0.0321 -0.9937
vn -0.4366 0.1388 -0.8889
vn 0.127 -0.042 -0.991
vn -0.417 0.0469 -0.9077
vn -0.1111 -0.0098 -0.9938
vn -0.4555 -0.042 -0.8893
vn 0.1318 0.01 -0.9912
vn -0.4022 -0.1187 -0.9078
vn -0.0985 -0.0526 -0.9937
vn -0.4063 -0.2105 -0.8892
vn 0.1178 0.0606 -0.9912
vn -0.3279 -0.262 -0.9076
vn -0.0721 -0.0867 -0.9936
vn -0.2941 -0.3526 -0.8883
vn 0.0863 0.1002 -0.9912
vn -0.2023 -0.3684 -0.9074
vn -0.0333 -0.1076 -0.9936
vn -0.1373 -0.4361 -0.8894
vn 0.0419 0.1257 -0.9912
vn -0.0455 -0.4165 -0.908
vn 0.0087 -0.1122 -0.9936
vn 0.0406 -0.4566 -0.8888
vn 0.1173 -0.4035 -0.9074
vn -0.01 0.1318 -0.9912
vn 0.006 -0.0109 -0.9999
vn 0.01 -0.009 -0.9999
vn 0.0515 -0.0996 -0.9937
vn 0.212 -0.4049 -0.8894
vn -0.0606 0.1178 -0.9912
vn 0.0119 -0.005 -0.9999
vn 0.0856 -0.0732 -0.9936
vn -0.1002 0.0863 -0.9912
vn -0.4601 0.1495 -0.8752
vn -0.0129 0.001 -0.9999
vn -0.0129 0.005 -0.9999
vn -0.4836 -0.0396 -0.8744
vn -0.0119 -0.005 -0.9999
vn 0.1147 0.0098 -0.9933
vn -0.4327 -0.2194 -0.8744
vn -0.01 -0.009 -0.9999
vn 0.0735 0.0893 -0.9933
vn -0.3138 -0.3702 -0.8744
vn -0.006 -0.0109 -0.9999
vn -0.1481 -0.4631 -0.8739
vn 0 -0.0129 -0.9999
vn 0.0382 -0.4847 -0.8738
vn -0.0098 0.1147 -0.9933
vn 0.2209 -0.4314 -0.8747
vn -0.0893 0.0735 -0.9933
vn 0.3687 -0.3153 -0.8744
vn 0.4618 -0.1496 -0.8743
vn -0.1159 -0.0098 -0.9932
vn 0.4842 0.0368 -0.8742
vn 0.2954 0.3494 -0.8892
vn 0.3262 0.2618 -0.9083
vn 0.4054 0.2137 -0.8888
vn 0.403 0.1157 -0.9078
vn 0.456 0.0392 -0.8891
vn 0.4176 -0.0442 -0.9075
vn 0.4373 -0.1358 -0.889
vn 0.3671 -0.2038 -0.9076
vn 0.3512 -0.2956 -0.8884
vn 0.2635 -0.3265 -0.9077
vn 0.5998 0.7973 0.0673
vn 0.773 0.6263 0.1012
vn 0.8968 0.4382 0.0614
vn 0.9877 0.1414 0.0666
vn 0.9892 -0.1041 0.1029
vn 0.9441 -0.3238 0.0624
vn 0.8729 -0.4788 0.0932
vn 0.872 -0.4799 0.0963
vn 0.7791 0.6073 0.1552
vn 0.9808 -0.1189 0.1545
vn 0.8685 -0.4749 0.1423
vn 0.7708 0.5816 0.2601
vn 0.9568 -0.1331 0.2583
vn 0.8504 -0.4679 0.2408
vn 0.6795 0.4983 0.5385
vn 0.8324 -0.1275 0.5393
vn 0.7486 -0.4088 0.522
vn 0.9538 -0.3004 0
vn 0.9951 0.085 0.0497
vn 0.9336 -0.2902 0.2103
vn 0.8762 -0.4819 0
vn 0.8549 -0.4741 0.2107
vn 0.8762 -0.4793 0.0494
vn 0.8252 -0.5628 0.0477
vn 0.9931 -0.1067 0.0494
vn 0.9525 -0.301 0.0457
vn 0.8767 -0.4803 -0.0271
vn 0.824 -0.5663 -0.0193
vn 0.807 -0.4564 -0.3747
vn 0.9537 -0.3001 -0.0199
vn 0.882 -0.2754 -0.3823
vn 0.7709 -0.4295 0.4704
vn 0.9938 -0.1071 -0.0287
vn 0.996 0.0874 -0.0205
vn 0.9205 0.0797 -0.3825
vn 0.8378 -0.2674 0.4761
vn 0.8759 0.0768 0.4764
vn 0.7025 -0.3875 0.5969
vn 0.7243 -0.4934 0.4817
vn 0.8259 -0.5638 0
vn 0.835 -0.2644 0.4825
vn 0.7972 -0.0884 0.5972
vn 0.9941 -0.1089 0
vn 0.8722 0.077 0.483
vn 0.7705 0.2257 0.5962
vn 0.9607 0.2774 -0.0012
vn 0.7761 0.4051 0.4832
vn 0.6254 0.5007 0.5985
vn 0.7799 0.6259 -0.0014
vn 0.5619 0.6726 0.4814
vn 0.3876 0.701 0.5987
vn 0.4825 0.8759 -0.0013
vn 0.3007 0.9537 0.0012
vn 0.2646 0.834 0.4843
vn 0.0884 0.796 0.5988
vn 0.109 0.994 0.0011
vn -0.0797 0.9205 -0.3825
vn -0.0768 0.8759 0.4764
vn -0.4044 0.7811 0.4758
vn -0.077 0.8722 0.483
vn -0.088 0.9961 0.0011
vn -0.2257 0.7705 0.5962
vn -0.2803 0.9599 -0.0012
vn -0.4051 0.7761 0.4832
vn -0.5007 0.6254 0.5985
vn -0.6259 0.7799 -0.0014
vn -0.6725 0.5651 0.4779
vn -0.6695 0.5655 0.4816
vn -0.7035 0.3839 0.5981
vn -0.8776 0.4793 0.0013
vn -0.8383 0.264 0.477
vn -0.8356 0.261 0.4834
vn -0.7973 0.0854 0.5976
vn -0.9943 0.1066 0.0011
vn -0.875 -0.0769 0.478
vn -0.8731 -0.077 0.4813
vn -0.7691 -0.2258 0.5979
vn -0.96 -0.28 0
vn -0.7799 -0.4046 0.4777
vn -0.7774 -0.4049 0.4814
vn -0.6271 -0.5007 0.5967
vn -0.7805 -0.6252 0
vn -0.5639 -0.6696 0.4833
vn -0.5667 -0.6724 0.4762
vn -0.3857 -0.7038 0.5966
vn -0.4803 -0.8771 0
vn -0.3018 -0.9534 0
vn -0.596 -0.7063 -0.382
vn -0.2656 -0.8386 0.4757
vn -0.2627 -0.8359 0.482
vn -0.0869 -0.7978 0.5966
vn -0.1077 -0.9942 0
vn 0.0868 -0.9962 0
vn 0.0755 -0.8736 0.4808
vn -0.2772 -0.8813 -0.3827
vn 0.0754 -0.8754 0.4775
vn 0.224 -0.77 0.5974
vn 0.2786 -0.9604 0
vn 0.4064 -0.7787 0.478
vn 0.4031 -0.7785 0.4811
vn 0.5024 -0.6255 0.5969
vn 0.0811 -0.9209 -0.3813
vn 0.4266 -0.8198 -0.382
vn 0.2798 -0.9597 -0.0272
vn 0.0863 -0.996 -0.0216
vn 0.086 -0.9952 0.0463
vn 0.2791 -0.9591 0.0478
vn -0.1083 -0.9937 -0.0287
vn 0.0869 -0.9742 0.2085
vn -0.1077 -0.9931 0.0471
vn -0.2958 -0.931 0.2141
vn -0.2995 -0.953 0.0457
vn -0.3015 -0.9532 -0.0199
vn -0.4842 -0.8735 0.0495
vn -0.4819 -0.8758 -0.0271
vn -0.6432 -0.7642 0.0484
vn -0.7782 -0.6262 0.0483
vn -0.6421 -0.7664 -0.0195
vn -0.7791 -0.6263 -0.028
vn -0.884 -0.4652 0.0464
vn -0.8866 -0.462 -0.0214
vn 0.4614 -0.8872 0
vn 0.6267 -0.7793 0
vn 0.6995 -0.7147 0
vn 0.6123 -0.6274 0.4811
vn 0.5588 -0.6843 0.4685
vn 0.5877 -0.7173 -0.3743
vn 0.6248 -0.7803 -0.028
vn 0.6978 -0.716 -0.0196
vn 0.4604 -0.8874 -0.0214
vn 0.4614 -0.8859 0.0491
vn 0.6247 -0.7794 0.0483
vn 0.6985 -0.7142 0.0456
vn 0.6171 -0.7581 0.2109
vn 0.4483 -0.8683 0.2122
vn 0.2708 -0.9323 0.2398
vn 0.2755 -0.9508 0.1418
vn 0.2994 -0.9494 0.0945
vn 0.4403 -0.8956 0.0629
vn 0.627 -0.7788 0.0195
o bullet15__p1_c0
f 1/1/1 2/2/2 3/3/3
f 2/2/2 1/1/1 4/4/4
f 3/3/3 2/2/2 5/5/5
f 4/4/4 1/1/1 6/6/6
f 6/6/6 1/1/1 7/7/7
f 7/7/7 1/1/1 3/3/3
f 4/4/4 6/6/6 8/8/8
f 6/6/6 7/7/7 9/9/9
f 6/6/6 9/9/9 8/8/8
f 7/7/7 3/3/3 10/10/10
f 9/9/9 7/7/7 11/11/11
f 11/11/11 7/7/7 10/10/10
f 9/9/9 11/11/11 12/12/12
f 9/9/9 12/12/12 13/13/13
f 9/9/9 13/13/13 8/8/8
f 12/12/12 11/11/11 14/14/14
f 14/14/14 11/11/11 10/10/10
f 12/12/12 14/14/14 15/15/15
f 12/12/12 15/15/15 13/13/13
f 14/14/14 10/10/10 16/16/16
f 8/8/8 13/13/13 17/17/17
f 8/8/8 17/17/17 18/18/18
f 17/17/17 13/13/13 19/19/19
f 8/8/8 18/18/18 20/20/20
f 8/8/8 20/20/20 4/4/4
f 20/20/20 18/18/18 21/21/21
f 19/19/19 13/13/13 22/22/22
f 22/22/22 13/13/13 15/15/15
f 19/19/19 22/22/22 23/23/23
f 20/20/20 21/21/21 24/24/24
f 24/24/24 21/21/21 25/25/25
f 4/4/4 20/20/20 26/26/26
f 4/4/4 26/26/26 2/2/2
f 23/23/23 22/22/22 27/27/27
f 23/23/23 27/27/27 28/28/28
f 2/2/2 26/26/26 29/29/29
f 26/26/26 20/20/20 30/30/30
f 26/26/26 30/30/30 29/29/29
f 30/30/30 20/20/20 24/24/24
f 2/2/2 29/29/29 5/5/5
f 29/29/29 30/30/30 31/31/31
f 29/29/29 31/31/31 5/5/5
f 30/30/30 24/24/24 32/32/32
f 30/30/30 32/32/32 31/31/31
f 32/32/32 24/24/24 33/33/33
f 31/31/31 32/32/32 34/34/34
f 34/34/34 32/32/32 33/33/33
f 5/5/5 31/31/31 35/35/35
f 35/35/35 31/31/31 34/34/34
f 33/33/33 24/24/24 36/36/36
f 36/36/36 24/24/24 25/25/25
f 36/36/36 25/25/25 37/37/37
f 36/36/36 37/37/37 38/38/38
f 36/36/36 38/38/38 39/39/39
f 39/39/39 38/38/38 40/40/40
f 33/33/33 36/36/36 41/41/41
f 41/41/41 36/36/36 39/39/39
f 42/42/42 34/34/34 33/33/33
f 42/42/42 33/33/33 41/41/41
f 34/34/34 42/42/42 35/35/35
f 41/41/41 39/39/39 43/43/43
f 41/41/41 43/43/43 42/42/42
f 39/39/39 40/40/40 44/44/44
f 44/44/44 40/40/40 45/45/45
f 45/45/45 40/40/40 46/46/46
f 46/46/46 40/40/40 38/38/38
f 45/45/45 46/46/46 47/47/47
f 45/45/45 47/47/47 48/48/48
f 46/46/46 38/38/38 49/49/49
f 50/50/50 38/38/38 37/37/37
f 38/38/38 50/50/50 49/49/49
f 49/49/49 50/50/50 51/51/51
f 49/49/49 51/51/51 52/52/52
f 52/52/52 51/51/51 53/53/53
f 46/46/46 49/49/49 54/54/54
f 46/46/46 54/54/54 47/47/47
f 54/54/54 49/49/49 55/55/55
f 55/55/55 49/49/49 52/52/52
f 47/47/47 54/54/54 56/56/56
f 56/56/56 54/54/54 55/55/55
f 47/47/47 56/56/56 57/57/57
f 47/47/47 57/57/57 48/48/48
f 56/56/56 55/55/55 58/58/58
f 56/56/56 58/58/58 57/57/57
f 55/55/55 52/52/52 59/59/59
f 55/55/55 59/59/59 58/58/58
f 48/48/48 57/57/57 60/60/60
f 48/48/48 60/60/60 61/61/61
f 57/57/57 58/58/58 62/62/62
f 60/60/60 57/57/57 63/63/63
f 63/63/63 57/57/57 62/62/62
f 58/58/58 59/59/59 64/64/64
f 58/58/58 64/64/64 62/62/62
f 64/64/64 59/59/59 65/65/65
f 65/65/65 59/59/59 52/52/52
f 62/62/62 64/64/64 66/66/66
f 66/66/66 64/64/64 65/65/65
f 65/65/65 52/52/52 67/67/67
f 67/67/67 52/52/52 53/53/53
f 68/68/68 69/69/68 23/70/68
f 23/70/68 69/69/68 19/71/68
f 68/68/68 23/70/68 28/72/68
f 19/71/68 69/69/68 70/73/68
f 68/68/68 28/72/68 71/74/68
f 19/71/68 70/73/68 17/75/68
f 71/74/68 28/72/68 72/76/68
f 17/75/68 70/73/68 73/77/68
f 71/74/68 72/76/68 74/78/68
f 17/75/68 73/77/68 18/79/68
f 74/78/68 72/76/68 75/80/68
f 18/79/68 73/77/68 76/81/68
f 74/78/68 75/80/68 77/82/68
f 18/79/68 76/81/68 21/83/68
f 77/82/68 75/80/68 78/84/68
f 77/82/68 78/84/68 79/85/68
f 79/85/68 78/84/68 80/86/68
f 21/83/68 76/81/68 81/87/68
f 21/83/68 81/87/68 25/88/68
f 25/88/68 81/87/68 82/89/68
f 25/88/68 82/89/68 37/90/68
f 37/90/68 82/89/68 83/91/68
f 37/90/68 83/91/68 50/92/68
f 50/92/68 83/91/68 84/93/68
f 50/92/68 84/93/68 51/94/68
f 51/94/68 84/93/68 85/95/68
f 51/94/68 85/95/68 53/96/68
f 53/96/68 85/95/68 86/97/68
f 53/96/68 86/97/68 87/98/68
f 87/98/68 86/97/68 88/99/68
f 87/98/68 88/99/68 80/100/68
f 80/100/68 88/99/68 79/101/68
f 89/102/69 83/103/70 82/104/71
f 89/102/69 82/104/71 90/105/72
f 90/105/72 82/104/71 81/106/73
f 90/105/72 81/106/73 76/107/74
f 89/102/69 90/105/72 91/108/75
f 89/102/69 91/108/75 92/109/76
f 90/105/72 76/107/74 93/110/77
f 93/110/77 76/107/74 73/111/78
f 93/110/77 73/111/78 70/112/79
f 90/105/72 93/110/77 94/113/80
f 90/105/72 94/113/80 91/108/75
f 93/110/77 70/112/79 95/114/81
f 95/114/81 70/112/79 69/115/82
f 95/114/81 69/115/82 68/116/83
f 95/114/81 68/116/83 96/117/84
f 96/117/84 68/116/83 71/118/85
f 96/117/84 71/118/85 74/119/86
f 95/114/81 96/117/84 97/120/87
f 93/110/77 95/114/81 98/121/88
f 98/121/88 95/114/81 97/120/87
f 93/110/77 98/121/88 94/113/80
f 98/121/88 97/120/87 99/122/89
f 98/121/88 99/122/89 100/123/90
f 98/121/88 100/123/90 94/113/80
f 100/123/90 99/122/89 101/124/91
f 94/113/80 100/123/90 102/125/92
f 94/113/80 102/125/92 91/108/75
f 100/123/90 101/124/91 103/126/93
f 100/123/90 103/126/93 102/125/92
f 103/126/93 101/124/91 104/127/68
f 104/127/68 101/124/91 105/128/94
f 102/125/92 103/126/93 106/129/95
f 106/129/95 103/126/93 104/127/68
f 91/108/75 102/125/92 107/130/96
f 107/130/96 102/125/92 106/129/95
f 91/108/75 107/130/96 92/109/76
f 92/109/76 107/130/96 108/131/97
f 107/130/96 106/129/95 109/132/98
f 109/132/98 106/129/95 104/127/68
f 107/130/96 109/132/98 108/131/97
f 109/132/98 104/127/68 110/133/99
f 109/132/98 110/133/99 108/131/97
f 111/134/100 112/135/101 113/136/102
f 113/136/102 112/135/101 114/137/103
f 115/138/104 116/139/105 112/135/101
f 112/135/101 116/139/105 114/137/103
f 116/139/105 115/138/104 117/140/106
f 114/137/103 116/139/105 118/141/107
f 116/139/105 117/140/106 119/142/108
f 116/139/105 119/142/108 118/141/107
f 119/142/108 117/140/106 120/143/109
f 119/142/108 120/143/109 121/144/110
f 119/142/108 121/144/110 122/145/111
f 119/142/108 122/145/111 118/141/107
f 114/137/103 118/141/107 123/146/112
f 123/146/112 118/141/107 122/145/111
f 123/146/112 122/145/111 124/147/113
f 124/147/113 122/145/111 125/148/114
f 123/146/112 124/147/113 126/149/115
f 123/146/112 126/149/115 127/150/116
f 124/147/113 125/148/114 128/151/117
f 126/149/115 124/147/113 129/152/118
f 129/152/118 124/147/113 128/151/117
f 127/150/116 126/149/115 130/153/119
f 127/150/116 130/153/119 131/154/120
f 130/153/119 126/149/115 132/155/121
f 132/155/121 126/149/115 129/152/118
f 132/155/121 129/152/118 133/156/122
f 133/156/122 129/152/118 134/157/123
f 134/157/123 129/152/118 135/158/124
f 135/158/124 129/152/118 128/151/117
f 135/158/124 128/151/117 136/159/125
f 130/153/119 132/155/121 137/160/126
f 136/159/125 128/151/117 138/161/127
f 130/153/119 137/160/126 139/162/128
f 130/153/119 139/162/128 131/154/120
f 139/162/128 137/160/126 140/163/129
f 131/154/120 139/162/128 141/164/130
f 138/161/127 128/151/117 142/165/131
f 139/162/128 140/163/129 143/166/132
f 139/162/128 143/166/132 141/164/130
f 143/166/132 140/163/129 144/167/133
f 141/164/130 143/166/132 145/168/134
f 142/165/131 128/151/117 125/148/114
f 138/161/127 142/165/131 146/169/135
f 142/165/131 125/148/114 147/170/136
f 146/169/135 142/165/131 148/171/137
f 142/165/131 147/170/136 149/172/138
f 142/165/131 149/172/138 148/171/137
f 148/171/137 149/172/138 150/173/139
f 149/172/138 147/170/136 151/174/140
f 150/173/139 149/172/138 152/175/141
f 149/172/138 151/174/140 153/176/142
f 149/172/138 153/176/142 152/175/141
f 152/175/141 153/176/142 154/177/143
f 153/176/142 151/174/140 155/178/144
f 154/177/143 153/176/142 156/179/145
f 153/176/142 155/178/144 157/180/146
f 153/176/142 157/180/146 156/179/145
f 156/179/145 157/180/146 158/181/147
f 157/180/146 155/178/144 159/182/148
f 158/181/147 157/180/146 160/183/149
f 157/180/146 159/182/148 161/184/150
f 157/180/146 161/184/150 160/183/149
f 160/183/149 161/184/150 162/185/151
f 161/184/150 159/182/148 163/186/152
f 162/185/151 161/184/150 164/187/153
f 161/184/150 163/186/152 165/188/154
f 161/184/150 165/188/154 164/187/153
f 164/187/153 165/188/154 166/189/155
f 165/188/154 163/186/152 167/190/156
f 166/189/155 165/188/154 168/191/157
f 165/188/154 167/190/156 169/192/158
f 165/188/154 169/192/158 168/191/157
f 168/191/157 169/192/158 170/193/159
f 169/192/158 167/190/156 171/194/160
f 170/193/159 169/192/158 172/195/161
f 172/195/161 169/192/158 173/196/162
f 173/196/162 169/192/158 171/194/160
f 172/195/161 173/196/162 174/197/163
f 174/197/163 173/196/162 175/198/164
f 173/196/162 171/194/160 176/199/165
f 176/199/165 171/194/160 177/200/166
f 176/199/165 177/200/166 178/201/167
f 175/198/164 173/196/162 179/202/168
f 179/202/168 173/196/162 176/199/165
f 175/198/164 179/202/168 180/203/169
f 176/199/165 178/201/167 181/204/170
f 176/199/165 181/204/170 179/202/168
f 181/204/170 178/201/167 182/205/171
f 179/202/168 181/204/170 183/206/172
f 181/204/170 182/205/171 184/207/173
f 181/204/170 184/207/173 183/206/172
f 184/207/173 182/205/171 145/168/134
f 183/206/172 184/207/173 144/167/133
f 184/207/173 145/168/134 143/166/132
f 184/207/173 143/166/132 144/167/133
f 185/208/174 186/209/175 187/210/176
f 186/209/175 185/208/174 188/211/177
f 186/209/175 188/211/177 189/212/178
f 185/208/174 187/210/176 120/143/109
f 120/143/109 187/210/176 121/144/110
f 188/211/177 185/208/174 190/213/179
f 189/212/178 188/211/177 191/214/180
f 191/214/180 188/211/177 190/213/179
f 189/212/178 191/214/180 192/215/181
f 190/213/179 185/208/174 117/140/106
f 117/140/106 185/208/174 120/143/109
f 191/214/180 190/213/179 193/216/182
f 192/215/181 191/214/180 194/217/183
f 194/217/183 191/214/180 193/216/182
f 192/215/181 194/217/183 195/218/184
f 195/218/184 194/217/183 196/219/185
f 196/219/185 194/217/183 193/216/182
f 195/218/184 196/219/185 197/220/186
f 197/220/186 196/219/185 198/221/187
f 197/220/186 198/221/187 177/200/166
f 196/219/185 193/216/182 199/222/188
f 196/219/185 199/222/188 198/221/187
f 198/221/187 199/222/188 200/223/189
f 199/222/188 193/216/182 115/138/104
f 197/220/186 177/200/166 171/194/160
f 200/223/189 199/222/188 201/224/190
f 201/224/190 199/222/188 115/138/104
f 200/223/189 201/224/190 202/225/191
f 202/225/191 201/224/190 203/226/192
f 203/226/192 201/224/190 204/227/193
f 204/227/193 201/224/190 115/138/104
f 203/226/192 204/227/193 205/228/194
f 205/228/194 204/227/193 111/134/100
f 111/134/100 204/227/193 112/135/101
f 112/135/101 204/227/193 115/138/104
f 117/140/106 115/138/104 190/213/179
f 190/213/179 115/138/104 193/216/182
f 132/155/121 133/156/122 206/229/195
f 132/155/121 206/229/195 207/230/196
f 132/155/121 207/230/196 137/160/126
f 137/160/126 207/230/196 208/231/197
f 137/160/126 208/231/197 209/232/198
f 137/160/126 209/232/198 140/163/129
f 140/163/129 209/232/198 210/233/199
f 140/163/129 210/233/199 211/234/200
f 140/163/129 211/234/200 144/167/133
f 144/167/133 211/234/200 212/235/201
f 144/167/133 212/235/201 213/236/202
f 144/167/133 213/236/202 183/206/172
f 183/206/172 213/236/202 214/237/203
f 183/206/172 214/237/203 215/238/204
f 183/206/172 215/238/204 179/202/168
f 179/202/168 215/238/204 180/203/169
f 84/239/205 83/103/70 89/102/69
f 84/239/205 89/102/69 216/240/206
f 84/239/205 216/240/206 85/241/207
f 216/240/206 89/102/69 92/109/76
f 85/241/207 216/240/206 86/242/208
f 86/242/208 216/240/206 217/243/209
f 86/242/208 217/243/209 88/244/210
f 88/244/210 217/243/209 79/245/211
f 79/245/211 217/243/209 218/246/212
f 216/240/206 92/109/76 219/247/213
f 216/240/206 219/247/213 217/243/209
f 219/247/213 92/109/76 108/131/97
f 218/246/212 217/243/209 220/248/214
f 220/248/214 217/243/209 219/247/213
f 218/246/212 220/248/214 221/249/215
f 219/247/213 108/131/97 222/250/216
f 219/247/213 222/250/216 220/248/214
f 222/250/216 108/131/97 110/133/99
f 221/249/215 220/248/214 223/251/217
f 223/251/217 220/248/214 222/250/216
f 221/249/215 223/251/217 224/252/218
f 222/250/216 110/133/99 225/253/219
f 222/250/216 225/253/219 223/251/217
f 225/253/219 110/133/99 104/127/68
f 224/252/218 223/251/217 226/254/220
f 226/254/220 223/251/217 225/253/219
f 226/254/220 225/253/219 104/127/68
f 224/252/218 226/254/220 105/255/221
f 105/255/221 226/254/220 104/127/68
f 125/148/114 122/145/111 121/144/110
f 125/148/114 121/144/110 147/170/136
f 147/170/136 121/144/110 187/210/176
f 147/170/136 187/210/176 151/174/140
f 151/174/140 187/210/176 186/209/175
f 151/174/140 186/209/175 155/178/144
f 155/178/144 186/209/175 189/212/178
f 155/178/144 189/212/178 159/182/148
f 159/182/148 189/212/178 192/215/181
f 159/182/148 192/215/181 163/186/152
f 163/186/152 192/215/181 195/218/184
f 163/186/152 195/218/184 167/190/156
f 167/190/156 195/218/184 197/220/186
f 167/190/156 197/220/186 171/194/160
f 178/201/167 200/223/189 202/225/191
f 200/223/189 178/201/167 177/200/166
f 200/223/189 177/200/166 198/221/187
f 178/201/167 202/225/191 182/205/171
f 182/205/171 202/225/191 203/226/192
f 182/205/171 203/226/192 145/168/134
f 145/168/134 203/226/192 205/228/194
f 145/168/134 205/228/194 141/164/130
f 141/164/130 205/228/194 111/134/100
f 141/164/130 111/134/100 131/154/120
f 131/154/120 111/134/100 113/136/102
f 131/154/120 113/136/102 127/150/116
f 127/150/116 113/136/102 114/137/103
f 127/150/116 114/137/103 123/146/112
f 87/256/222 67/67/67 53/53/53
f 227/257/223 65/65/65 67/67/67
f 65/65/65 227/257/223 66/66/66
f 67/67/67 87/256/222 228/258/224
f 67/67/67 228/258/224 227/257/223
f 228/258/224 87/256/222 80/259/225
f 228/258/224 80/259/225 229/260/226
f 228/258/224 229/260/226 230/261/227
f 230/261/227 229/260/226 231/262/228
f 227/257/223 228/258/224 232/263/229
f 228/258/224 230/261/227 233/264/230
f 228/258/224 233/264/230 232/263/229
f 230/261/227 231/262/228 234/265/231
f 234/265/231 231/262/228 235/266/232
f 234/265/231 235/266/232 236/267/233
f 230/261/227 234/265/231 237/268/234
f 230/261/227 237/268/234 233/264/230
f 234/265/231 236/267/233 238/269/235
f 234/265/231 238/269/235 237/268/234
f 238/269/235 236/267/233 239/270/236
f 233/264/230 237/268/234 240/271/237
f 240/271/237 237/268/234 238/269/235
f 233/264/230 240/271/237 232/263/229
f 241/272/238 227/257/223 232/263/229
f 241/272/238 232/263/229 240/271/237
f 227/257/223 241/272/238 66/66/66
f 241/272/238 240/271/237 242/273/239
f 241/272/238 242/273/239 66/66/66
f 242/273/239 240/271/237 238/269/235
f 66/66/66 242/273/239 62/62/62
f 242/273/239 238/269/235 243/274/240
f 243/274/240 238/269/235 239/270/236
f 62/62/62 242/273/239 244/275/241
f 244/275/241 242/273/239 243/274/240
f 62/62/62 244/275/241 63/63/63
f 243/274/240 239/270/236 245/276/242
f 245/276/242 239/270/236 246/277/243
f 245/276/242 246/277/243 214/278/244
f 245/276/242 214/278/244 213/279/225
f 245/276/242 213/279/225 212/280/222
f 243/274/240 245/276/242 247/281/245
f 247/281/245 245/276/242 212/280/222
f 243/274/240 247/281/245 248/282/246
f 248/282/246 247/281/245 212/280/222
f 243/274/240 248/282/246 244/275/241
f 248/282/246 212/280/222 211/283/247
f 248/282/246 211/283/247 210/284/53
f 244/275/241 248/282/246 249/285/248
f 249/285/248 248/282/246 210/284/53
f 244/275/241 249/285/248 250/286/249
f 250/286/249 249/285/248 210/284/53
f 244/275/241 250/286/249 63/63/63
f 250/286/249 210/284/53 209/287/250
f 250/286/249 209/287/250 208/288/51
f 63/63/63 250/286/249 251/289/251
f 251/289/251 250/286/249 208/288/51
f 63/63/63 251/289/251 252/290/252
f 252/290/252 251/289/251 208/288/51
f 63/63/63 252/290/252 60/60/60
f 252/290/252 208/288/51 207/291/253
f 60/60/60 252/290/252 253/292/254
f 252/290/252 207/291/253 206/293/50
f 252/290/252 206/293/50 253/292/254
f 253/292/254 206/293/50 254/294/255
f 254/294/255 206/293/50 133/295/256
f 254/294/255 133/295/256 134/296/257
f 254/294/255 134/296/257 255/297/258
f 255/297/258 134/296/257 256/298/259
f 256/298/259 134/296/257 135/299/260
f 44/44/44 43/43/43 39/39/39
f 257/300/261 42/42/42 43/43/43
f 257/300/261 43/43/43 44/44/44
f 42/42/42 257/300/261 35/35/35
f 257/300/261 44/44/44 48/48/48
f 48/48/48 44/44/44 45/45/45
f 257/300/261 48/48/48 61/61/61
f 35/35/35 257/300/261 258/301/262
f 258/301/262 257/300/261 61/61/61
f 35/35/35 258/301/262 259/302/263
f 35/35/35 259/302/263 5/5/5
f 258/301/262 61/61/61 256/298/259
f 256/298/259 61/61/61 255/297/258
f 255/297/258 61/61/61 254/294/255
f 254/294/255 61/61/61 60/60/60
f 254/294/255 60/60/60 253/292/254
f 258/301/262 256/298/259 260/303/264
f 260/303/264 256/298/259 136/304/265
f 136/304/265 256/298/259 135/299/260
f 258/301/262 260/303/264 261/305/266
f 261/305/266 260/303/264 136/304/265
f 258/301/262 261/305/266 259/302/263
f 261/305/266 136/304/265 138/306/267
f 261/305/266 138/306/267 146/307/21
f 259/302/263 261/305/266 262/308/268
f 262/308/268 261/305/266 146/307/21
f 262/308/268 146/307/21 263/309/269
f 262/308/268 263/309/269 259/302/263
f 263/309/269 146/307/21 148/310/270
f 263/309/269 148/310/270 150/311/18
f 259/302/263 263/309/269 264/312/271
f 259/302/263 264/312/271 5/5/5
f 263/309/269 150/311/18 265/313/272
f 263/309/269 265/313/272 264/312/271
f 5/5/5 264/312/271 3/3/3
f 265/313/272 150/311/18 266/314/273
f 265/313/272 266/314/273 264/312/271
f 266/314/273 150/311/18 152/315/274
f 3/3/3 264/312/271 267/316/275
f 267/316/275 264/312/271 266/314/273
f 266/314/273 152/315/274 154/317/17
f 3/3/3 267/316/275 10/10/10
f 266/314/273 154/317/17 268/318/276
f 266/314/273 268/318/276 267/316/275
f 268/318/276 154/317/17 269/319/277
f 268/318/276 269/319/277 267/316/275
f 269/319/277 154/317/17 156/320/278
f 269/319/277 156/320/278 158/321/19
f 10/10/10 267/316/275 270/322/279
f 270/322/279 267/316/275 269/319/277
f 269/319/277 158/321/19 271/323/280
f 269/319/277 271/323/280 270/322/279
f 271/323/280 158/321/19 272/324/281
f 271/323/280 272/324/281 270/322/279
f 272/324/281 158/321/19 160/325/282
f 272/324/281 160/325/282 162/326/23
f 10/10/10 270/322/279 16/16/16
f 270/322/279 272/324/281 273/327/283
f 270/322/279 273/327/283 16/16/16
f 272/324/281 162/326/23 274/328/284
f 272/324/281 274/328/284 273/327/283
f 274/328/284 162/326/23 275/329/285
f 274/328/284 275/329/285 273/327/283
f 275/329/285 162/326/23 164/330/286
f 275/329/285 164/330/286 166/331/28
f 275/329/285 166/331/28 276/332/287
f 273/327/283 275/329/285 277/333/288
f 277/333/288 275/329/285 276/332/287
f 276/332/287 166/331/28 278/334/289
f 276/332/287 278/334/289 277/333/288
f 278/334/289 166/331/28 168/335/290
f 278/334/289 168/335/290 170/336/291
f 273/327/283 277/333/288 279/337/292
f 273/327/283 279/337/292 16/16/16
f 277/333/288 278/334/289 280/338/293
f 278/334/289 170/336/291 281/339/294
f 278/334/289 281/339/294 280/338/293
f 281/339/294 170/336/291 282/340/295
f 281/339/294 282/340/295 280/338/293
f 282/340/295 170/336/291 172/341/296
f 282/340/295 172/341/296 174/342/297
f 282/340/295 174/342/297 283/343/298
f 277/333/288 280/338/293 284/344/299
f 277/333/288 284/344/299 279/337/292
f 280/338/293 282/340/295 285/345/300
f 285/345/300 282/340/295 283/343/298
f 283/343/298 174/342/297 286/346/301
f 283/343/298 286/346/301 285/345/300
f 286/346/301 174/342/297 175/347/302
f 285/345/300 286/346/301 287/348/303
f 287/348/303 286/346/301 288/349/304
f 287/348/303 288/349/304 289/350/305
f 280/338/293 285/345/300 290/351/306
f 280/338/293 290/351/306 284/344/299
f 291/352/307 292/353/308 290/351/306
f 290/351/306 292/353/308 293/354/309
f 293/354/309 292/353/308 294/355/310
f 294/355/310 292/353/308 295/356/311
f 290/351/306 293/354/309 296/357/312
f 290/351/306 296/357/312 284/344/299
f 294/355/310 295/356/311 297/358/313
f 293/354/309 294/355/310 298/359/314
f 293/354/309 298/359/314 296/357/312
f 298/359/314 294/355/310 297/358/313
f 75/360/297 72/361/291 297/358/313
f 297/358/313 72/361/291 299/362/315
f 297/358/313 299/362/315 298/359/314
f 299/362/315 72/361/291 28/28/28
f 296/357/312 298/359/314 300/363/316
f 300/363/316 298/359/314 299/362/315
f 299/362/315 28/28/28 27/27/27
f 296/357/312 300/363/316 301/364/317
f 296/357/312 301/364/317 284/344/299
f 300/363/316 299/362/315 302/365/318
f 302/365/318 299/362/315 27/27/27
f 300/363/316 302/365/318 301/364/317
f 284/344/299 301/364/317 303/366/319
f 303/366/319 301/364/317 302/365/318
f 284/344/299 303/366/319 279/337/292
f 302/365/318 27/27/27 304/367/320
f 302/365/318 304/367/320 303/366/319
f 304/367/320 27/27/27 305/368/321
f 303/366/319 304/367/320 306/369/322
f 303/366/319 306/369/322 279/337/292
f 306/369/322 304/367/320 305/368/321
f 305/368/321 27/27/27 22/22/22
f 279/337/292 306/369/322 307/370/323
f 307/370/323 306/369/322 305/368/321
f 279/337/292 307/370/323 16/16/16
f 305/368/321 22/22/22 308/371/324
f 305/368/321 308/371/324 307/370/323
f 308/371/324 22/22/22 15/15/15
f 16/16/16 307/370/323 309/372/325
f 309/372/325 307/370/323 308/371/324
f 309/372/325 308/371/324 15/15/15
f 16/16/16 309/372/325 14/14/14
f 14/14/14 309/372/325 15/15/15
f 286/346/301 175/347/302 180/373/326
f 286/346/301 180/373/326 288/349/304
f 288/349/304 180/373/326 289/350/305
f 289/350/305 180/373/326 215/374/327
f 289/350/305 215/374/327 214/375/328
f 289/350/305 214/375/328 246/376/329
f 289/350/305 246/376/329 239/377/330
f 289/350/305 239/377/330 287/348/303
f 287/348/303 239/377/330 236/378/331
f 287/348/303 236/378/331 291/352/307
f 287/348/303 291/352/307 285/345/300
f 285/345/300 291/352/307 290/351/306
f 291/352/307 236/378/331 310/379/332
f 310/379/332 236/378/331 235/380/333
f 291/352/307 310/379/332 311/381/334
f 291/352/307 311/381/334 292/353/308
f 292/353/308 311/381/334 295/356/311
f 295/356/311 311/381/334 312/382/335
f 312/382/335 311/381/334 310/379/332
f 295/356/311 312/382/335 297/358/313
f 310/379/332 235/380/333 313/383/336
f 310/379/332 313/383/336 312/382/335
f 313/383/336 235/380/333 231/384/337
f 313/383/336 231/384/337 229/385/338
f 312/382/335 313/383/336 314/386/339
f 312/382/335 314/386/339 297/358/313
f 314/386/339 313/383/336 229/385/338
f 297/358/313 314/386/339 75/360/297
f 75/360/297 314/386/339 78/387/326
f 78/387/326 314/386/339 229/385/338
f 78/387/326 229/385/338 80/388/327
f 105/128/94 101/124/91 99/122/89
f 105/128/94 99/122/89 224/389/340
f 224/389/340 99/122/89 97/120/87
f 224/389/340 97/120/87 221/390/341
f 221/390/341 97/120/87 96/117/84
f 221/390/341 96/117/84 218/391/342
f 218/391/342 96/117/84 74/119/86
f 218/391/342 74/119/86 77/392/343
f 218/391/342 77/392/343 79/393/344
