# CS2 body mesh, tools/cs2_glb_to_obj.py
v 0.05569 0.07336 0.02185
v 0.05569 0.07336 0.00817
v 0.0546 0.0735 0.02186
v 0.0546 0.0735 0.00816
v 0.05351 0.07339 0.02185
v 0.05351 0.07339 0.00817
v 0.05244 0.07308 0.00822
v 0.05246 0.07309 0.0218
v 0.05154 0.0726 0.02174
v 0.0515 0.07258 0.00828
v 0.05069 0.07195 0.02173
v 0.05068 0.07195 0.00829
v 0.04997 0.0711 0.02172
v 0.05 0.07112 0.0083
v 0.05033 0.07072 0.02199
v 0.05031 0.0707 0.00803
v 0.04554 0.08009 0.00699
v 0.04554 0.08009 0.0016
v 0.04444 0.08018 0.0016
v 0.04444 0.08018 0.00699
v 0.04336 0.08009 0.0016
v 0.04336 0.08009 0.00699
v 0.04231 0.07975 0.00694
v 0.04231 0.07975 0.0016
v 0.04134 0.07925 0.00682
v 0.04134 0.07925 0.0016
v 0.0405 0.07854 0.00668
v 0.0405 0.07854 0.0016
v 0.03977 0.07772 0.00654
v 0.03977 0.07772 0.0016
v 0.03929 0.07673 0.00643
v 0.03929 0.07673 0.0016
v 0.03896 0.07568 0.00636
v 0.03896 0.07568 0.0016
v 0.03887 0.0746 0.0016
v 0.03887 0.0746 0.00634
v 0.03899 0.07346 0.0016
v 0.03899 0.07346 0.00634
v 0.03928 0.07251 0.0016
v 0.03928 0.07251 0.00634
v 0.03979 0.07262 0.00634
v 0.03979 0.07262 0.0016
v 0.04553 0.08009 0.02949
v 0.04553 0.08009 0.02409
v 0.04444 0.08018 0.02409
v 0.04444 0.08018 0.02949
v 0.04335 0.08009 0.02409
v 0.04335 0.08009 0.02949
v 0.04231 0.07975 0.02944
v 0.04231 0.07975 0.02409
v 0.04133 0.07925 0.02932
v 0.04133 0.07925 0.02409
v 0.0405 0.07854 0.02918
v 0.0405 0.07854 0.02409
v 0.03979 0.0777 0.02904
v 0.03979 0.0777 0.02409
v 0.03929 0.07673 0.02892
v 0.03929 0.07673 0.02409
v 0.03895 0.07568 0.02885
v 0.03895 0.07568 0.02409
v 0.03887 0.0746 0.02409
v 0.03887 0.0746 0.02884
v 0.03899 0.07346 0.02409
v 0.03899 0.07346 0.02884
v 0.03928 0.07251 0.02409
v 0.03928 0.07251 0.02884
v 0.03979 0.07262 0.02884
v 0.03979 0.07262 0.02409
v 0.05039 0.07419 0.00645
v 0.05075 0.07382 0.00623
v 0.05177 0.07213 0.00805
v 0.05042 0.07422 0.02409
v 0.05072 0.07379 0.02409
v 0.05173 0.07212 0.02196
v 0.04961 0.07251 0.00621
v 0.04961 0.07251 0.0016
v 0.04987 0.07356 0.0016
v 0.04987 0.07358 0.00622
v 0.05002 0.0746 0.0016
v 0.05001 0.07465 0.00623
v 0.04993 0.07567 0.0016
v 0.04992 0.07569 0.00633
v 0.0496 0.07673 0.0016
v 0.0496 0.07673 0.00643
v 0.0491 0.0777 0.0016
v 0.0491 0.0777 0.00655
v 0.04839 0.07854 0.0016
v 0.04839 0.07854 0.00668
v 0.04756 0.07925 0.0016
v 0.04756 0.07925 0.00682
v 0.04658 0.07975 0.0016
v 0.04658 0.07975 0.00694
v 0.04961 0.07251 0.02884
v 0.04962 0.07255 0.02409
v 0.04988 0.07358 0.02409
v 0.04987 0.07356 0.02884
v 0.05002 0.07461 0.02409
v 0.05002 0.0746 0.02884
v 0.04993 0.07567 0.02409
v 0.04993 0.07567 0.02888
v 0.0496 0.07673 0.02409
v 0.0496 0.07673 0.02892
v 0.04911 0.07772 0.02409
v 0.04911 0.07772 0.02904
v 0.04839 0.07854 0.02409
v 0.04839 0.07854 0.02918
v 0.04754 0.07925 0.02409
v 0.04754 0.07925 0.02932
v 0.04658 0.07975 0.02409
v 0.04658 0.07975 0.02944
v 0.04874 0.073 0.00621
v 0.04854 0.07348 0.00648
v 0.04851 0.07346 0.02409
v 0.05975 0.06998 0.00817
v 0.05921 0.07094 0.00817
v 0.05921 0.07094 0.02185
v 0.05975 0.06998 0.02185
v 0.05853 0.07181 0.02185
v 0.06002 0.06892 0.02185
v 0.05853 0.07181 0.00817
v 0.06002 0.06892 0.00817
v 0.05769 0.0725 0.00817
v 0.06012 0.06782 0.00817
v 0.05769 0.0725 0.02185
v 0.06012 0.06782 0.02185
v 0.05673 0.07305 0.00817
v 0.05999 0.06674 0.00817
v 0.05673 0.07305 0.02185
v 0.05999 0.06674 0.02185
v 0.05967 0.06568 0.00817
v 0.05967 0.06568 0.02185
v 0.05913 0.06474 0.00817
v 0.05913 0.06474 0.02185
v 0.05843 0.06389 0.02185
v 0.05843 0.06389 0.00817
v 0.05757 0.06322 0.02185
v 0.05757 0.06322 0.00817
v 0.05658 0.06272 0.02185
v 0.05658 0.06272 0.00817
v 0.0556 0.06243 0.02185
v 0.0556 0.06243 0.00817
v 0.04949 0.0746 0.02884
v 0.04935 0.07361 0.02884
v 0.0491 0.07262 0.02884
v 0.04942 0.07556 0.0289
v 0.04911 0.07653 0.02895
v 0.04867 0.07742 0.02907
v 0.04801 0.07817 0.02921
v 0.04725 0.07881 0.02934
v 0.04638 0.07926 0.02945
v 0.04543 0.07957 0.02949
v 0.04444 0.07965 0.02949
v 0.04345 0.07956 0.02949
v 0.04251 0.07926 0.02945
v 0.04163 0.07881 0.02934
v 0.04087 0.07817 0.02921
v 0.04023 0.07741 0.02907
v 0.03978 0.07653 0.02895
v 0.03948 0.07558 0.02887
v 0.0394 0.0746 0.02884
v 0.03951 0.07351 0.02884
v 0.04935 0.07361 0.0016
v 0.0491 0.07262 0.0016
v 0.04949 0.0746 0.0016
v 0.04942 0.07556 0.0016
v 0.04911 0.07653 0.0016
v 0.04866 0.07741 0.0016
v 0.04801 0.07817 0.0016
v 0.04726 0.07881 0.0016
v 0.04638 0.07926 0.0016
v 0.04544 0.07956 0.0016
v 0.04444 0.07965 0.0016
v 0.04346 0.07957 0.0016
v 0.04251 0.07926 0.0016
v 0.04164 0.07881 0.0016
v 0.04087 0.07817 0.0016
v 0.04022 0.07742 0.0016
v 0.03978 0.07653 0.0016
v 0.03948 0.07558 0.0016
v 0.0394 0.0746 0.0016
v 0.03951 0.07351 0.0016
v 0.04877 0.07301 0.02409
v 0.05869 0.06504 0.02185
v 0.05806 0.06427 0.02185
v 0.05918 0.0659 0.02185
v 0.05728 0.06367 0.02185
v 0.05947 0.06685 0.02185
v 0.05959 0.06783 0.02185
v 0.05634 0.06318 0.02185
v 0.0554 0.06292 0.02185
v 0.05949 0.06882 0.02185
v 0.05925 0.06978 0.02185
v 0.05876 0.07065 0.02185
v 0.05815 0.07144 0.02185
v 0.05739 0.07206 0.02185
v 0.05652 0.07256 0.02185
v 0.05558 0.07284 0.02185
v 0.05459 0.07296 0.02184
v 0.05361 0.07286 0.02185
v 0.05261 0.07259 0.02191
v 0.05806 0.06427 0.00817
v 0.05869 0.06504 0.00817
v 0.05728 0.06367 0.00817
v 0.05918 0.0659 0.00817
v 0.05634 0.06318 0.00817
v 0.0554 0.06292 0.00817
v 0.05947 0.06685 0.00817
v 0.05959 0.06783 0.00817
v 0.05949 0.06882 0.00817
v 0.05925 0.06978 0.00817
v 0.05876 0.07065 0.00817
v 0.05815 0.07144 0.00817
v 0.05739 0.07206 0.00817
v 0.05652 0.07256 0.00817
v 0.05558 0.07284 0.00817
v 0.05459 0.07296 0.00818
v 0.05361 0.07286 0.00817
v 0.05263 0.0726 0.00811
v 0.04911 0.07653 0.00646
v 0.04942 0.07554 0.00646
v 0.0495 0.07455 0.00645
v 0.04936 0.07358 0.00647
v 0.0491 0.07262 0.00648
v 0.04866 0.07741 0.00656
v 0.04801 0.07817 0.00671
v 0.04726 0.07881 0.00685
v 0.04638 0.07926 0.00695
v 0.04544 0.07956 0.00699
v 0.04444 0.07965 0.00699
v 0.04346 0.07957 0.00699
v 0.04251 0.07926 0.00695
v 0.04164 0.07881 0.00685
v 0.04087 0.07817 0.00671
v 0.04022 0.07742 0.00657
v 0.03978 0.07653 0.00646
v 0.03948 0.07558 0.00637
v 0.0394 0.0746 0.00634
v 0.03951 0.07351 0.00634
v 0.04949 0.07459 0.02409
v 0.04942 0.07556 0.02409
v 0.04911 0.07653 0.02409
v 0.04935 0.07358 0.02409
v 0.04867 0.07742 0.02409
v 0.04801 0.07817 0.02409
v 0.04725 0.07881 0.02409
v 0.04638 0.07926 0.02409
v 0.04543 0.07957 0.02409
v 0.04444 0.07965 0.02409
v 0.04345 0.07956 0.02409
v 0.04251 0.07926 0.02409
v 0.04163 0.07881 0.02409
v 0.04087 0.07817 0.02409
v 0.04023 0.07741 0.02409
v 0.03978 0.07653 0.02409
v 0.03948 0.07558 0.02409
v 0.0394 0.0746 0.02409
v 0.03951 0.07351 0.02409
v 0.04909 0.07258 0.02409
v 0.05097 0.07151 0.00804
v 0.05097 0.07152 0.02197
vt 0.962891 0.225342
vt 0.978027 0.225342
vt 0.962891 0.224121
vt 0.978027 0.224121
vt 0.962891 0.2229
vt 0.978027 0.2229
vt 0.978027 0.221558
vt 0.962891 0.22168
vt 0.962891 0.220459
vt 0.978027 0.220459
vt 0.962891 0.21936
vt 0.978027 0.219238
vt 0.962891 0.218018
vt 0.978027 0.218018
vt 0.962891 0.217529
vt 0.978027 0.217529
vt 0.678711 0.217163
vt 0.678711 0.223145
vt 0.680176 0.223145
vt 0.680176 0.217163
vt 0.681152 0.223145
vt 0.681152 0.217163
vt 0.682617 0.217163
vt 0.682617 0.223145
vt 0.683594 0.217285
vt 0.683594 0.223145
vt 0.685059 0.217529
vt 0.685059 0.223145
vt 0.686035 0.217651
vt 0.686035 0.223145
vt 0.6875 0.217773
vt 0.6875 0.223145
vt 0.688477 0.217896
vt 0.688477 0.223145
vt 0.689941 0.223145
vt 0.689941 0.217896
vt 0.690918 0.223145
vt 0.690918 0.217896
vt 0.692383 0.223145
vt 0.692383 0.217896
vt 0.692871 0.217896
vt 0.692871 0.223145
vt 0.438477 0.026535
vt 0.438477 0.032562
vt 0.439697 0.032562
vt 0.439697 0.026535
vt 0.440918 0.032562
vt 0.440918 0.026535
vt 0.442139 0.026596
vt 0.442139 0.032562
vt 0.443359 0.026718
vt 0.443359 0.032562
vt 0.44458 0.026886
vt 0.44458 0.032562
vt 0.445801 0.027039
vt 0.445801 0.032562
vt 0.447021 0.027176
vt 0.447021 0.032562
vt 0.448486 0.027252
vt 0.448486 0.032562
vt 0.449463 0.032562
vt 0.449463 0.027267
vt 0.450928 0.032562
vt 0.450928 0.027267
vt 0.451904 0.032562
vt 0.451904 0.027267
vt 0.452637 0.027267
vt 0.452637 0.032562
vt 0.014931 0.008354
vt 0.014931 0.004955
vt 0.014366 0.008064
vt 0.014366 0.004662
vt 0.150513 0.237549
vt 0.150513 0.241333
vt 0.151001 0.240967
vt 0.151001 0.237305
vt 0.667969 0.218018
vt 0.667969 0.223145
vt 0.668945 0.223145
vt 0.668945 0.218018
vt 0.67041 0.223145
vt 0.67041 0.218018
vt 0.671387 0.223145
vt 0.671387 0.217896
vt 0.672852 0.223145
vt 0.672852 0.217773
vt 0.673828 0.223145
vt 0.673828 0.217651
vt 0.675293 0.223145
vt 0.675293 0.217529
vt 0.67627 0.223145
vt 0.67627 0.217285
vt 0.677734 0.223145
vt 0.677734 0.217163
vt 0.42749 0.027267
vt 0.427734 0.032562
vt 0.428711 0.032562
vt 0.428711 0.027267
vt 0.429932 0.032562
vt 0.429932 0.027267
vt 0.431152 0.032562
vt 0.431152 0.027222
vt 0.432373 0.032562
vt 0.432373 0.027176
vt 0.433594 0.032562
vt 0.433594 0.027039
vt 0.434814 0.032562
vt 0.434814 0.026886
vt 0.436035 0.032562
vt 0.436035 0.026718
vt 0.437256 0.032562
vt 0.437256 0.026596
vt 0.556641 0.007996
vt 0.556641 0.007374
vt 0.554688 0.007717
vt 0.554688 0.008369
vt 0.149536 0.237305
vt 0.148193 0.236938
vt 0.148193 0.241455
vt 0.016006 0.004856
vt 0.017166 0.008675
vt 0.017166 0.004513
vt 0.978027 0.231445
vt 0.978027 0.230225
vt 0.962891 0.230225
vt 0.962891 0.231445
vt 0.962891 0.229004
vt 0.962891 0.232666
vt 0.978027 0.229004
vt 0.978027 0.232666
vt 0.978027 0.227783
vt 0.978027 0.233887
vt 0.962891 0.227783
vt 0.962891 0.233887
vt 0.978027 0.226562
vt 0.978027 0.235107
vt 0.962891 0.226562
vt 0.962891 0.235107
vt 0.978027 0.236328
vt 0.962891 0.236328
vt 0.978027 0.237549
vt 0.962891 0.237549
vt 0.962891 0.238892
vt 0.978027 0.23877
vt 0.962891 0.240112
vt 0.978027 0.23999
vt 0.962891 0.241333
vt 0.978027 0.241211
vt 0.962891 0.242432
vt 0.978027 0.242432
vt 0.679199 0.081604
vt 0.678223 0.081604
vt 0.678223 0.082214
vt 0.677246 0.082214
vt 0.677246 0.081604
vt 0.679688 0.082214
vt 0.680664 0.082214
vt 0.680664 0.081604
vt 0.681641 0.081604
vt 0.681641 0.082214
vt 0.683105 0.082214
vt 0.683105 0.081604
vt 0.684082 0.081604
vt 0.684082 0.082214
vt 0.685547 0.082214
vt 0.685547 0.081604
vt 0.686523 0.081604
vt 0.686523 0.082214
vt 0.6875 0.082214
vt 0.6875 0.081604
vt 0.688965 0.082214
vt 0.688965 0.081604
vt 0.689941 0.081604
vt 0.689941 0.082214
vt 0.691406 0.081604
vt 0.691406 0.082214
vt 0.692383 0.082214
vt 0.692383 0.081604
vt 0.693359 0.081604
vt 0.693359 0.082214
vt 0.694824 0.082214
vt 0.694824 0.081604
vt 0.695801 0.081604
vt 0.695801 0.082214
vt 0.697266 0.082214
vt 0.697266 0.081604
vt 0.698242 0.081604
vt 0.698242 0.082214
vt 0.699707 0.082214
vt 0.699707 0.081604
vt 0.700684 0.082214
vt 0.700684 0.081604
vt 0.41626 0.005196
vt 0.41626 0.005795
vt 0.41748 0.005795
vt 0.41748 0.005196
vt 0.415283 0.005196
vt 0.415283 0.005795
vt 0.414062 0.005795
vt 0.414062 0.005196
vt 0.412842 0.005196
vt 0.412842 0.005795
vt 0.411865 0.005196
vt 0.411865 0.005795
vt 0.410645 0.005795
vt 0.410645 0.005196
vt 0.409424 0.005196
vt 0.409424 0.005795
vt 0.408203 0.005795
vt 0.408203 0.005196
vt 0.407227 0.005196
vt 0.407227 0.005795
vt 0.406006 0.005795
vt 0.406006 0.005196
vt 0.404785 0.005196
vt 0.404785 0.005795
vt 0.403809 0.005795
vt 0.403809 0.005196
vt 0.402588 0.005196
vt 0.402588 0.005795
vt 0.401367 0.005795
vt 0.401367 0.005196
vt 0.400391 0.005196
vt 0.400391 0.005795
vt 0.39917 0.005795
vt 0.39917 0.005196
vt 0.397949 0.005196
vt 0.397949 0.005795
vt 0.396729 0.005795
vt 0.396729 0.005196
vt 0.395508 0.005795
vt 0.395508 0.005196
vt 0.394531 0.005795
vt 0.394531 0.005196
vt 0.30957 0.774902
vt 0.311768 0.775391
vt 0.311768 0.774902
vt 0.30957 0.774414
vt 0.051147 0.24585
vt 0.051147 0.24646
vt 0.052307 0.24646
vt 0.049988 0.24646
vt 0.052307 0.24585
vt 0.049988 0.24585
vt 0.053436 0.24585
vt 0.048828 0.24585
vt 0.053436 0.24646
vt 0.048828 0.24646
vt 0.054626 0.24585
vt 0.047699 0.24646
vt 0.054688 0.24646
vt 0.055756 0.24585
vt 0.055756 0.24646
vt 0.047699 0.24585
vt 0.046539 0.24585
vt 0.04657 0.24646
vt 0.04541 0.24646
vt 0.04541 0.24585
vt 0.044281 0.24585
vt 0.044281 0.24646
vt 0.043121 0.24646
vt 0.043121 0.24585
vt 0.041992 0.24585
vt 0.041992 0.24646
vt 0.040833 0.24646
vt 0.040833 0.24585
vt 0.039673 0.24585
vt 0.039673 0.24646
vt 0.038513 0.24585
vt 0.038513 0.24646
vt 0.037354 0.24646
vt 0.037354 0.24585
vt 0.036194 0.24585
vt 0.036163 0.24646
vt 0.035126 0.24585
vt 0.035126 0.24646
vt 0.158691 0.00322
vt 0.157471 0.00322
vt 0.157471 0.003809
vt 0.15625 0.00322
vt 0.158691 0.003809
vt 0.15625 0.003809
vt 0.15979 0.003809
vt 0.155029 0.00322
vt 0.15979 0.00322
vt 0.155029 0.003809
vt 0.153931 0.00322
vt 0.153931 0.003809
vt 0.161011 0.00322
vt 0.161011 0.003809
vt 0.162109 0.003809
vt 0.162109 0.00322
vt 0.16333 0.00322
vt 0.16333 0.003809
vt 0.164551 0.003809
vt 0.164551 0.00322
vt 0.165649 0.00322
vt 0.165649 0.003809
vt 0.16687 0.003809
vt 0.16687 0.00322
vt 0.168091 0.00322
vt 0.168091 0.003809
vt 0.169189 0.003809
vt 0.169189 0.00322
vt 0.17041 0.00322
vt 0.17041 0.003809
vt 0.171509 0.00322
vt 0.171509 0.003809
vt 0.172729 0.003809
vt 0.172729 0.00322
vt 0.17395 0.00322
vt 0.17395 0.003809
vt 0.175049 0.003809
vt 0.175049 0.00322
vt 0.193359 0.357666
vt 0.192139 0.357666
vt 0.192261 0.358154
vt 0.191162 0.358154
vt 0.19104 0.357666
vt 0.189941 0.358154
vt 0.189819 0.357666
vt 0.188721 0.358154
vt 0.188721 0.357666
vt 0.193359 0.358154
vt 0.19458 0.358154
vt 0.19458 0.357666
vt 0.195801 0.357666
vt 0.195801 0.358154
vt 0.196899 0.358154
vt 0.196899 0.357666
vt 0.19812 0.357666
vt 0.19812 0.358154
vt 0.199341 0.358154
vt 0.199341 0.357666
vt 0.200439 0.358154
vt 0.200439 0.357666
vt 0.20166 0.357666
vt 0.20166 0.358154
vt 0.202881 0.357666
vt 0.202881 0.358154
vt 0.203979 0.358154
vt 0.203979 0.357666
vt 0.2052 0.357666
vt 0.2052 0.358154
vt 0.206421 0.358154
vt 0.206421 0.357666
vt 0.20752 0.357666
vt 0.20752 0.358154
vt 0.20874 0.358154
vt 0.20874 0.357666
vt 0.209839 0.357666
vt 0.209839 0.358154
vt 0.21106 0.358154
vt 0.211182 0.357666
vt 0.212158 0.358154
vt 0.212158 0.357666
vt 0.794922 0.007282
vt 0.795898 0.007282
vt 0.795898 0.00668
vt 0.796875 0.007282
vt 0.794922 0.00668
vt 0.796875 0.00668
vt 0.793945 0.007282
vt 0.797852 0.007282
vt 0.797852 0.00668
vt 0.799316 0.00668
vt 0.799316 0.007282
vt 0.800293 0.007282
vt 0.800293 0.00668
vt 0.801758 0.00668
vt 0.801758 0.007282
vt 0.802734 0.007282
vt 0.802734 0.00668
vt 0.803711 0.00668
vt 0.803711 0.007282
vt 0.805176 0.007282
vt 0.805176 0.00668
vt 0.806152 0.00668
vt 0.806152 0.007282
vt 0.807617 0.007282
vt 0.807617 0.00668
vt 0.808594 0.00668
vt 0.808594 0.007282
vt 0.810059 0.007282
vt 0.810059 0.00668
vt 0.811035 0.00668
vt 0.811035 0.007282
vt 0.812012 0.007282
vt 0.812012 0.00668
vt 0.813477 0.00668
vt 0.813477 0.007282
vt 0.814453 0.00668
vt 0.814453 0.007282
vt 0.815918 0.00668
vt 0.815918 0.007282
vt 0.793945 0.00668
vt 0.792969 0.00668
vt 0.792969 0.007282
vt 0.554688 0.00351
vt 0.555664 0.003841
vt 0.556641 0.003929
vt 0.310547 0.779297
vt 0.30957 0.779297
vt 0.311768 0.778809
vt 0.978027 0.243042
vt 0.962891 0.243042
vt 0.017715 0.008316
vt 0.017715 0.004154
vt 0.147705 0.236694
vt 0.147705 0.240967
vt 0.666992 0.223145
vt 0.666992 0.217773
vt 0.427002 0.027267
vt 0.427002 0.032562
vn 0.205 0.9788 -0.0012
vn 0.0129 0.9999 -0.001
vn -0.1838 0.983 -0.0011
vn -0.1864 0.9825 -0.0011
vn -0.3668 0.9303 0.0013
vn -0.3668 0.9303 -0.0013
vn -0.5425 0.8401 0.0014
vn -0.5393 0.8421 0.0014
vn -0.6903 0.7235 0.0014
vn -0.696 0.7181 0.0014
vn -0.983 0.1838 -0.0011
vn -0.982 0.1891 0.0011
vn -0.7201 -0.6938 -0.0028
vn -0.8075 -0.5899 0.0027
vn 0.1943 0.9809 -0.0011
vn 0.001 1 -0.001
vn -0.1943 0.9809 -0.0011
vn -0.3791 0.9254 -0.0013
vn -0.3822 0.9241 -0.0013
vn -0.5487 0.836 -0.0014
vn -0.555 0.8318 0.0014
vn -0.6988 0.7154 0.0014
vn -0.8255 0.5644 0.0014
vn -0.8318 0.555 0.0014
vn -0.9266 0.376 0.0013
vn -0.9279 0.3729 0.0013
vn -0.9804 0.197 0.0012
vn -0.9809 0.1943 0.0011
vn -0.9999 -0.0149 0
vn -0.981 -0.1941 0
vn -0.7242 -0.6896 0
vn 0.1955 -0.9807 0
vn -0.001 1 -0.001
vn -0.3791 0.9254 0.0013
vn -0.3822 0.9241 0.0013
vn -0.5487 0.836 0.0014
vn -0.555 0.8318 -0.0014
vn -0.7043 0.7099 -0.0014
vn -0.7071 0.7071 -0.0014
vn -0.9228 0.3853 0.0013
vn -0.9241 0.3822 0.0013
vn -0.9999 -0.0169 0
vn 0.3952 0.7953 0.4597
vn 0.1045 0.761 0.6403
vn 0.7595 0.6415 0.1077
vn 0.857 0.5153 -0.004
vn 0.0207 0.8169 -0.5764
vn 0.2525 0.8493 -0.4637
vn 0.8301 0.5575 0.0068
vn 0.9041 0.4137 0.1073
vn 0.6952 -0.7188 0.0028
vn 0.7707 -0.6372 0
vn 0.9804 -0.1968 0
vn 0.9824 -0.1866 0.0023
vn 0.9997 -0.0251 0.002
vn 0.9998 -0.019 0.002
vn 0.9809 0.1943 0.0012
vn 0.9793 0.2023 0.0012
vn 0.9266 0.376 -0.0013
vn 0.9241 0.3822 0.0013
vn 0.8318 0.555 0.0014
vn 0.8276 0.5613 0.0014
vn 0.7071 0.7071 0.0014
vn 0.7043 0.7099 -0.0014
vn 0.555 0.8318 0.0014
vn 0.5487 0.836 -0.0014
vn 0.3822 0.9241 -0.0013
vn 0.3791 0.9254 -0.0013
vn 0.7696 -0.6386 -0.0028
vn 0.7866 -0.6175 0.0028
vn 0.981 -0.1941 0
vn 0.9997 -0.023 0
vn 0.9809 0.1943 -0.0011
vn 0.9804 0.197 -0.0012
vn 0.9303 0.3668 0.0013
vn 0.9291 0.3699 -0.0013
vn 0.8318 0.555 -0.0014
vn 0.8255 0.5644 -0.0014
vn 0.6988 0.7154 -0.0014
vn 0.696 0.7181 0.0014
vn 0.5487 0.836 0.0014
vn 0.3822 0.9241 0.0013
vn 0.3791 0.9254 0.0013
vn -0.1552 0.3974 -0.9044
vn -0.1519 0.3931 -0.9069
vn -0.1692 0.4181 -0.8925
vn -0.1727 0.4224 -0.8898
vn -0.4612 0.6121 -0.6423
vn -0.5056 0.4332 -0.7461
vn -0.305 0.6504 -0.6956
vn -0.4175 0.5396 -0.7311
vn -0.2695 0.6777 -0.6841
vn -0.4106 0.5458 0.7305
vn -0.3526 0.4706 0.8088
vn -0.2224 0.602 0.7669
vn -0.256 0.5702 0.7806
vn -0.4338 0.3702 0.8215
vn 0.8339 0.5519 -0.0014
vn 0.7181 0.696 -0.0014
vn 0.9853 0.1708 -0.0011
vn 0.9853 0.1708 0.0011
vn 0.5675 0.8234 0.0014
vn 0.9999 -0.0129 0
vn 0.5675 0.8234 -0.0014
vn 0.3945 0.9189 0.0013
vn 0.9782 -0.2075 0
vn 0.3945 0.9189 -0.0013
vn 0.9191 -0.3941 0
vn 0.8238 -0.5669 0
vn 0.6967 -0.7174 0
vn 0.534 -0.8455 0
vn 0.371 -0.9287 0
vn -0.1668 -0.986 0
vn 0.006 -0.0211 0.9998
vn 0 -0.001 1
vn 0 -0.021 0.9998
vn 0.0379 -0.0411 0.9984
vn 0.0382 -0.0499 0.998
vn 0.079 -0.0472 0.9958
vn 0.0786 -0.0426 0.996
vn 0.1198 -0.068 0.9905
vn 0.1228 -0.073 0.9897
vn 0.1286 -0.0563 0.9901
vn 0.1284 -0.0539 0.9903
vn 0.1187 -0.0347 0.9923
vn 0.1209 -0.0325 0.9921
vn 0.0743 -0.0138 0.9971
vn 0.0765 -0.0138 0.997
vn 0.02 -0.003 0.9998
vn -0.02 -0.003 0.9998
vn -0.0744 -0.0159 0.9971
vn -0.0765 -0.0138 0.997
vn -0.1187 -0.0347 0.9923
vn -0.1209 -0.0325 0.9921
vn -0.1286 -0.0563 0.9901
vn -0.1284 -0.0539 0.9903
vn -0.1175 -0.0703 0.9906
vn -0.1228 -0.073 0.9897
vn -0.0846 -0.059 0.9947
vn -0.0844 -0.0566 0.9948
vn -0.0423 -0.0412 0.9983
vn -0.0449 -0.0502 0.9977
vn -0.0059 -0.0069 1
vn 0 -0.0069 1
vn 0 -0.001 -1
vn 0.0039 -0.001 1
vn 0.002 -0.0049 1
vn 0 -0.025 0.9997
vn 0 -0.0375 0.9993
vn -0.0214 0.0214 0.9995
vn -0.0303 -0.0051 0.9995
vn -0.0801 0.159 0.984
vn -0.0811 0.2232 0.9714
vn -0.1457 0.3063 0.9407
vn -0.1409 0.367 0.9195
vn 0.0039 -0.001 -1
vn 0.002 -0.0049 -1
vn 0 -0.025 -0.9997
vn 0 -0.0375 -0.9993
vn -0.0214 0.0214 -0.9995
vn -0.0303 -0.0051 -0.9995
vn -0.0697 0.2041 -0.9765
vn -0.0275 0.2185 -0.9755
vn -0.1845 0.2983 -0.9365
vn -0.2289 0.3268 -0.917
vn 0.1083 -0.053 0.9927
vn 0.2662 0.0134 0.9638
vn 0.2207 -0.0178 0.9752
vn 0.3802 -0.0273 0.9245
vn 0.4068 -0.0223 0.9133
vn 0.4269 -0.0813 0.9006
vn 0.4322 -0.0873 0.8976
vn 0.4365 -0.1112 0.8928
vn 0.4423 -0.1085 0.8903
vn 0.0903 -0.0711 0.9934
vn 0.0987 -0.0838 0.9916
vn 0.092 -0.0932 0.9914
vn 0.1238 -0.0585 0.9906
vn 0.1256 -0.0514 0.9908
vn 0.0744 -0.0159 0.9971
vn -0.0743 -0.0138 0.9971
vn -0.1198 -0.068 0.9905
vn -0.0842 -0.0543 0.995
vn -0.0448 -0.048 0.9978
vn 0.4429 -0.3496 -0.8256
vn 0.278 -0.5513 -0.7866
vn 0.3574 -0.4642 -0.8104
vn 0.2478 -0.5818 -0.7747
vn 0.4226 -0.5332 -0.7329
vn 0.3946 -0.5071 0.7663
vn 0.2568 -0.6451 0.7196
vn 0.2881 -0.6162 0.733
vn 0.4956 -0.3806 0.7807
vn 0.4585 -0.5807 0.6727
vn -0.9293 -0.3694 0
vn -0.8709 -0.4675 0.1515
vn -0.8735 -0.45 0.1859
vn -0.8353 -0.549 -0.0304
vn -0.8267 -0.5592 -0.0623
vn -0.7604 -0.6367 0.1282
vn -0.7573 -0.639 0.1347
vn -0.8587 -0.5122 -0.019
vn -0.8643 -0.5019 -0.0328
vn -0.1955 -0.9807 0
vn -0.1862 -0.9825 -0.0069
vn -0.0517 -0.9986 0.0083
o bullet_scaffold14__p1_c0
f 1/1/1 2/2/1 3/3/2
f 3/3/2 2/2/1 4/4/2
f 3/3/2 4/4/2 5/5/3
f 5/5/3 4/4/2 6/6/4
f 5/5/3 6/6/4 7/7/5
f 5/5/3 7/7/5 8/8/6
f 8/8/6 7/7/5 9/9/7
f 9/9/7 7/7/5 10/10/8
f 9/9/7 10/10/8 11/11/9
f 11/11/9 10/10/8 12/12/10
f 11/11/9 12/12/10 13/13/11
f 13/13/11 12/12/10 14/14/12
f 13/13/11 14/14/12 15/15/13
f 15/15/13 14/14/12 16/16/14
f 17/17/15 18/18/15 19/19/16
f 17/17/15 19/19/16 20/20/16
f 20/20/16 19/19/16 21/21/17
f 20/20/16 21/21/17 22/22/17
f 22/22/17 21/21/17 23/23/18
f 23/23/18 21/21/17 24/24/19
f 23/23/18 24/24/19 25/25/20
f 25/25/20 24/24/19 26/26/21
f 25/25/20 26/26/21 27/27/10
f 27/27/10 26/26/21 28/28/22
f 27/27/10 28/28/22 29/29/23
f 29/29/23 28/28/22 30/30/24
f 29/29/23 30/30/24 31/31/25
f 31/31/25 30/30/24 32/32/26
f 31/31/25 32/32/26 33/33/27
f 33/33/27 32/32/26 34/34/28
f 33/33/27 34/34/28 35/35/29
f 33/33/27 35/35/29 36/36/29
f 36/36/29 35/35/29 37/37/30
f 36/36/29 37/37/30 38/38/30
f 38/38/30 37/37/30 39/39/31
f 38/38/30 39/39/31 40/40/31
f 40/40/31 39/39/31 41/41/32
f 41/41/32 39/39/31 42/42/32
f 43/43/15 44/44/15 45/45/33
f 43/43/15 45/45/33 46/46/33
f 46/46/33 45/45/33 47/47/17
f 46/46/33 47/47/17 48/48/17
f 48/48/17 47/47/17 49/49/34
f 49/49/34 47/47/17 50/50/35
f 49/49/34 50/50/35 51/51/36
f 51/51/36 50/50/35 52/52/37
f 51/51/36 52/52/37 53/53/38
f 53/53/38 52/52/37 54/54/39
f 53/53/38 54/54/39 55/55/23
f 55/55/23 54/54/39 56/56/24
f 55/55/23 56/56/24 57/57/40
f 57/57/40 56/56/24 58/58/41
f 57/57/40 58/58/41 59/59/27
f 59/59/27 58/58/41 60/60/28
f 59/59/27 60/60/28 61/61/42
f 59/59/27 61/61/42 62/62/42
f 62/62/42 61/61/42 63/63/30
f 62/62/42 63/63/30 64/64/30
f 64/64/30 63/63/30 65/65/31
f 64/64/30 65/65/31 66/66/31
f 66/66/31 65/65/31 67/67/32
f 67/67/32 65/65/31 68/68/32
f 69/69/43 10/70/44 70/71/45
f 70/71/45 10/70/44 71/72/46
f 9/73/47 72/74/48 73/75/49
f 9/73/47 73/75/49 74/76/50
f 75/77/51 76/78/52 77/79/53
f 75/77/51 77/79/53 78/80/54
f 78/80/54 77/79/53 79/81/55
f 78/80/54 79/81/55 80/82/56
f 80/82/56 79/81/55 81/83/57
f 80/82/56 81/83/57 82/84/58
f 82/84/58 81/83/57 83/85/59
f 82/84/58 83/85/59 84/86/60
f 84/86/60 83/85/59 85/87/61
f 84/86/60 85/87/61 86/88/62
f 86/88/62 85/87/61 87/89/63
f 86/88/62 87/89/63 88/90/64
f 88/90/64 87/89/63 89/91/65
f 88/90/64 89/91/65 90/92/66
f 90/92/66 89/91/65 91/93/67
f 90/92/66 91/93/67 92/94/68
f 92/94/68 91/93/67 18/18/15
f 92/94/68 18/18/15 17/17/15
f 93/95/69 94/96/70 95/97/71
f 93/95/69 95/97/71 96/98/53
f 96/98/53 95/97/71 97/99/72
f 96/98/53 97/99/72 98/100/72
f 98/100/72 97/99/72 99/101/73
f 98/100/72 99/101/73 100/102/74
f 100/102/74 99/101/73 101/103/75
f 100/102/74 101/103/75 102/104/76
f 102/104/76 101/103/75 103/105/77
f 102/104/76 103/105/77 104/106/78
f 104/106/78 103/105/77 105/107/79
f 104/106/78 105/107/79 106/108/80
f 106/108/80 105/107/79 107/109/65
f 106/108/80 107/109/65 108/110/81
f 108/110/81 107/109/65 109/111/82
f 108/110/81 109/111/82 110/112/83
f 110/112/83 109/111/82 44/44/15
f 110/112/83 44/44/15 43/43/15
f 69/113/84 70/114/85 111/115/86
f 69/113/84 111/115/86 112/116/87
f 9/73/47 11/117/88 72/74/48
f 13/118/89 113/119/90 11/117/91
f 11/117/91 113/119/90 72/74/92
f 12/120/93 10/70/44 69/69/43
f 12/120/94 69/69/95 112/121/96
f 12/120/94 112/121/96 14/122/97
f 114/123/76 115/124/98 116/125/98
f 114/123/76 116/125/98 117/126/76
f 116/125/98 115/124/98 118/127/99
f 114/123/76 117/126/76 119/128/100
f 118/127/99 115/124/98 120/129/99
f 114/123/76 119/128/100 121/130/101
f 118/127/99 120/129/99 122/131/102
f 121/130/101 119/128/100 123/132/103
f 118/127/99 122/131/102 124/133/104
f 123/132/103 119/128/100 125/134/103
f 124/133/104 122/131/102 126/135/105
f 123/132/103 125/134/103 127/136/106
f 124/133/104 126/135/105 128/137/107
f 128/137/107 126/135/105 1/1/1
f 1/1/1 126/135/105 2/2/1
f 127/136/106 125/134/103 129/138/106
f 127/136/106 129/138/106 130/139/108
f 130/139/108 129/138/106 131/140/108
f 130/139/108 131/140/108 132/141/109
f 132/141/109 131/140/108 133/142/109
f 132/141/109 133/142/109 134/143/110
f 132/141/109 134/143/110 135/144/110
f 135/144/110 134/143/110 136/145/111
f 135/144/110 136/145/111 137/146/111
f 137/146/111 136/145/111 138/147/112
f 137/146/111 138/147/112 139/148/112
f 139/148/112 138/147/112 140/149/113
f 139/148/112 140/149/113 141/150/113
f 142/151/114 143/152/115 96/153/115
f 96/153/115 143/152/115 93/154/115
f 93/154/115 143/152/115 144/155/115
f 142/151/114 96/153/115 98/156/116
f 142/151/114 98/156/116 100/157/117
f 142/151/114 100/157/117 145/158/118
f 145/158/118 100/157/117 146/159/119
f 146/159/119 100/157/117 102/160/120
f 146/159/119 102/160/120 104/161/121
f 146/159/119 104/161/121 147/162/122
f 147/162/122 104/161/121 148/163/123
f 148/163/123 104/161/121 106/164/124
f 148/163/123 106/164/124 108/165/125
f 148/163/123 108/165/125 149/166/126
f 149/166/126 108/165/125 150/167/127
f 150/167/127 108/165/125 110/168/128
f 150/167/127 110/168/128 43/169/129
f 150/167/127 43/169/129 151/170/129
f 151/170/129 43/169/129 46/171/115
f 151/170/129 46/171/115 152/172/115
f 152/172/115 46/171/115 153/173/130
f 153/173/130 46/171/115 48/174/130
f 153/173/130 48/174/130 154/175/131
f 154/175/131 48/174/130 49/176/132
f 154/175/131 49/176/132 51/177/133
f 154/175/131 51/177/133 155/178/134
f 155/178/134 51/177/133 156/179/135
f 156/179/135 51/177/133 53/180/136
f 156/179/135 53/180/136 55/181/137
f 156/179/135 55/181/137 157/182/138
f 157/182/138 55/181/137 158/183/139
f 158/183/139 55/181/137 57/184/140
f 158/183/139 57/184/140 59/185/141
f 158/183/139 59/185/141 159/186/142
f 159/186/142 59/185/141 160/187/143
f 160/187/143 59/185/141 62/188/144
f 160/187/143 62/188/144 64/189/115
f 160/187/143 64/189/115 161/190/115
f 161/190/115 64/189/115 66/191/115
f 161/190/115 66/191/115 67/192/115
f 162/193/145 77/194/145 76/195/145
f 162/193/145 76/195/145 163/196/145
f 77/194/145 162/193/145 164/197/145
f 77/194/145 164/197/145 79/198/145
f 79/198/145 164/197/145 81/199/145
f 81/199/145 164/197/145 165/200/145
f 81/199/145 165/200/145 166/201/145
f 81/199/145 166/201/145 83/202/145
f 83/202/145 166/201/145 167/203/145
f 83/202/145 167/203/145 85/204/145
f 85/204/145 167/203/145 87/205/145
f 87/205/145 167/203/145 168/206/145
f 87/205/145 168/206/145 169/207/145
f 87/205/145 169/207/145 89/208/145
f 89/208/145 169/207/145 91/209/145
f 91/209/145 169/207/145 170/210/145
f 91/209/145 170/210/145 171/211/145
f 91/209/145 171/211/145 18/212/145
f 18/212/145 171/211/145 19/213/145
f 19/213/145 171/211/145 172/214/145
f 19/213/145 172/214/145 173/215/145
f 19/213/145 173/215/145 21/216/145
f 21/216/145 173/215/145 24/217/145
f 24/217/145 173/215/145 174/218/145
f 24/217/145 174/218/145 175/219/145
f 24/217/145 175/219/145 26/220/145
f 26/220/145 175/219/145 28/221/145
f 28/221/145 175/219/145 176/222/145
f 28/221/145 176/222/145 177/223/145
f 28/221/145 177/223/145 30/224/145
f 30/224/145 177/223/145 32/225/145
f 32/225/145 177/223/145 178/226/145
f 32/225/145 178/226/145 179/227/145
f 32/225/145 179/227/145 34/228/145
f 34/228/145 179/227/145 35/229/145
f 35/229/145 179/227/145 180/230/145
f 35/229/145 180/230/145 37/231/145
f 37/231/145 180/230/145 181/232/145
f 37/231/145 181/232/145 39/233/145
f 39/233/145 181/232/145 42/234/145
f 182/235/115 73/236/115 72/237/115
f 182/235/115 72/237/115 113/238/115
f 133/239/115 183/240/115 184/241/115
f 183/240/115 133/239/115 185/242/115
f 133/239/115 184/241/115 134/243/115
f 185/242/115 133/239/115 131/244/115
f 134/243/115 184/241/115 136/245/115
f 185/242/115 131/244/115 129/246/115
f 136/245/115 184/241/115 186/247/115
f 185/242/115 129/246/115 187/248/115
f 136/245/115 186/247/115 138/249/115
f 187/248/115 129/246/115 188/250/115
f 138/249/115 186/247/115 189/251/115
f 138/249/115 189/251/115 140/252/115
f 140/252/115 189/251/115 190/253/115
f 188/250/115 129/246/115 125/254/115
f 188/250/115 125/254/115 119/255/115
f 188/250/115 119/255/115 191/256/115
f 191/256/115 119/255/115 192/257/115
f 192/257/115 119/255/115 117/258/115
f 192/257/115 117/258/115 116/259/115
f 192/257/115 116/259/115 193/260/115
f 193/260/115 116/259/115 194/261/115
f 194/261/115 116/259/115 118/262/115
f 194/261/115 118/262/115 124/263/115
f 194/261/115 124/263/115 195/264/115
f 195/264/115 124/263/115 196/265/115
f 196/265/115 124/263/115 128/266/115
f 196/265/115 128/266/115 1/267/146
f 196/265/115 1/267/146 197/268/147
f 197/268/147 1/267/146 3/269/148
f 197/268/147 3/269/148 198/270/149
f 198/270/149 3/269/148 199/271/150
f 199/271/150 3/269/148 5/272/151
f 199/271/150 5/272/151 8/273/152
f 199/271/150 8/273/152 200/274/153
f 200/274/153 8/273/152 9/275/154
f 200/274/153 9/275/154 74/276/155
f 132/277/145 135/278/145 201/279/145
f 201/279/145 135/278/145 137/280/145
f 132/277/145 201/279/145 202/281/145
f 201/279/145 137/280/145 203/282/145
f 132/277/145 202/281/145 204/283/145
f 203/282/145 137/280/145 139/284/145
f 132/277/145 204/283/145 130/285/145
f 203/282/145 139/284/145 205/286/145
f 205/286/145 139/284/145 141/287/145
f 205/286/145 141/287/145 206/288/145
f 130/285/145 204/283/145 127/289/145
f 127/289/145 204/283/145 207/290/145
f 127/289/145 207/290/145 208/291/145
f 127/289/145 208/291/145 123/292/145
f 123/292/145 208/291/145 121/293/145
f 121/293/145 208/291/145 209/294/145
f 121/293/145 209/294/145 210/295/145
f 121/293/145 210/295/145 114/296/145
f 114/296/145 210/295/145 115/297/145
f 115/297/145 210/295/145 211/298/145
f 115/297/145 211/298/145 212/299/145
f 115/297/145 212/299/145 120/300/145
f 120/300/145 212/299/145 122/301/145
f 122/301/145 212/299/145 213/302/145
f 122/301/145 213/302/145 214/303/145
f 122/301/145 214/303/145 126/304/145
f 126/304/145 214/303/145 2/305/156
f 2/305/156 214/303/145 215/306/157
f 2/305/156 215/306/157 4/307/158
f 4/307/158 215/306/157 216/308/159
f 4/307/158 216/308/159 217/309/160
f 4/307/158 217/309/160 6/310/161
f 6/310/161 217/309/160 7/311/162
f 7/311/162 217/309/160 218/312/163
f 7/311/162 218/312/163 71/313/164
f 7/311/162 71/313/164 10/314/165
f 219/315/166 220/316/167 82/317/168
f 82/317/168 220/316/167 80/318/169
f 80/318/169 220/316/167 221/319/170
f 80/318/169 221/319/170 78/320/171
f 78/320/171 221/319/170 222/321/172
f 78/320/171 222/321/172 75/322/173
f 75/322/173 222/321/172 223/323/174
f 219/315/166 82/317/168 84/324/175
f 219/315/166 84/324/175 86/325/176
f 219/315/166 86/325/176 224/326/177
f 224/326/177 86/325/176 225/327/178
f 225/327/178 86/325/176 88/328/179
f 225/327/178 88/328/179 90/329/125
f 225/327/178 90/329/125 226/330/126
f 226/330/126 90/329/125 227/331/180
f 227/331/180 90/329/125 92/332/128
f 227/331/180 92/332/128 17/333/129
f 227/331/180 17/333/129 228/334/129
f 228/334/129 17/333/129 20/335/115
f 228/334/129 20/335/115 229/336/115
f 229/336/115 20/335/115 230/337/130
f 230/337/130 20/335/115 22/338/130
f 230/337/130 22/338/130 231/339/181
f 231/339/181 22/338/130 23/340/132
f 231/339/181 23/340/132 25/341/133
f 231/339/181 25/341/133 232/342/134
f 232/342/134 25/341/133 233/343/135
f 233/343/135 25/341/133 27/344/136
f 233/343/135 27/344/136 29/345/182
f 233/343/135 29/345/182 234/346/138
f 234/346/138 29/345/182 235/347/139
f 235/347/139 29/345/182 31/348/183
f 235/347/139 31/348/183 33/349/141
f 235/347/139 33/349/141 236/350/184
f 236/350/184 33/349/141 237/351/143
f 237/351/143 33/349/141 36/352/144
f 237/351/143 36/352/144 38/353/115
f 237/351/143 38/353/115 238/354/115
f 238/354/115 38/353/115 40/355/115
f 238/354/115 40/355/115 41/356/115
f 239/357/145 240/358/145 99/359/145
f 99/359/145 240/358/145 241/360/145
f 239/357/145 99/359/145 97/361/145
f 99/359/145 241/360/145 101/362/145
f 239/357/145 97/361/145 242/363/145
f 101/362/145 241/360/145 243/364/145
f 101/362/145 243/364/145 103/365/145
f 103/365/145 243/364/145 105/366/145
f 105/366/145 243/364/145 244/367/145
f 105/366/145 244/367/145 245/368/145
f 105/366/145 245/368/145 107/369/145
f 107/369/145 245/368/145 109/370/145
f 109/370/145 245/368/145 246/371/145
f 109/370/145 246/371/145 247/372/145
f 109/370/145 247/372/145 44/373/145
f 44/373/145 247/372/145 45/374/145
f 45/374/145 247/372/145 248/375/145
f 45/374/145 248/375/145 249/376/145
f 45/374/145 249/376/145 47/377/145
f 47/377/145 249/376/145 50/378/145
f 50/378/145 249/376/145 250/379/145
f 50/378/145 250/379/145 251/380/145
f 50/378/145 251/380/145 52/381/145
f 52/381/145 251/380/145 54/382/145
f 54/382/145 251/380/145 252/383/145
f 54/382/145 252/383/145 253/384/145
f 54/382/145 253/384/145 56/385/145
f 56/385/145 253/384/145 58/386/145
f 58/386/145 253/384/145 254/387/145
f 58/386/145 254/387/145 255/388/145
f 58/386/145 255/388/145 60/389/145
f 60/389/145 255/388/145 61/390/145
f 61/390/145 255/388/145 256/391/145
f 61/390/145 256/391/145 63/392/145
f 63/392/145 256/391/145 257/393/145
f 63/392/145 257/393/145 65/394/145
f 65/394/145 257/393/145 68/395/145
f 95/396/145 94/397/145 97/361/145
f 97/361/145 94/397/145 242/363/145
f 242/363/145 94/397/145 258/398/145
f 16/399/185 111/115/186 259/400/187
f 259/400/187 111/115/186 70/114/188
f 71/401/189 259/400/189 70/114/189
f 260/402/190 73/236/191 182/235/192
f 260/402/190 182/235/192 15/403/193
f 74/404/194 73/236/194 260/402/194
f 141/150/113 140/149/113 206/405/195
f 206/405/195 140/149/113 190/406/195
f 112/121/196 111/407/197 16/408/198
f 112/121/196 16/408/198 14/122/199
f 13/118/200 15/409/201 182/410/202
f 13/118/200 182/410/202 113/119/203
f 163/411/204 76/78/52 75/77/51
f 163/411/204 75/77/51 223/412/204
f 94/96/70 93/95/69 144/413/205
f 94/96/70 144/413/205 258/414/206
