# CS2 body mesh, tools/cs2_glb_to_obj.py
v 0.04501 0.07975 0.03313
v 0.046 0.07954 0.03313
v 0.04501 0.07975 -0.00212
v 0.046 0.07954 -0.00212
v 0.04694 0.07914 0.03313
v 0.04544 0.07774 0.03688
v 0.04694 0.07914 -0.00212
v 0.04577 0.0788 -0.00294
v 0.04656 0.07713 0.03688
v 0.04656 0.07713 0.04225
v 0.04544 0.07774 0.04225
v 0.04737 0.07612 0.04225
v 0.04737 0.07612 0.03688
v 0.04773 0.07489 0.04225
v 0.04777 0.07857 0.03313
v 0.04848 0.07784 0.03313
v 0.04777 0.07857 -0.00212
v 0.04727 0.07797 -0.00294
v 0.04848 0.07784 -0.00212
v 0.04904 0.07699 0.03313
v 0.04727 0.07797 -0.00404
v 0.04577 0.0788 -0.00404
v 0.04835 0.07663 -0.00294
v 0.04835 0.07663 -0.00404
v 0.04904 0.07699 -0.00212
v 0.04942 0.07605 0.03313
v 0.04942 0.07605 -0.00212
v 0.04773 0.07489 0.03688
v 0.0395 0.07616 -0.00212
v 0.0399 0.07709 -0.00212
v 0.04025 0.07592 -0.00294
v 0.0399 0.07709 0.03313
v 0.04107 0.07743 -0.00294
v 0.0395 0.07616 0.03313
v 0.03929 0.07516 -0.00212
v 0.0413 0.07559 0.03688
v 0.03929 0.07516 0.03313
v 0.04006 0.07421 -0.00294
v 0.03928 0.07415 -0.00212
v 0.03928 0.07415 0.03313
v 0.04116 0.07431 0.03688
v 0.03947 0.07315 -0.00212
v 0.03947 0.07315 0.03313
v 0.04054 0.07257 -0.00294
v 0.0413 0.07559 0.04225
v 0.04192 0.07672 0.04225
v 0.04116 0.07431 0.04225
v 0.04192 0.07672 0.03688
v 0.04292 0.07752 0.04225
v 0.04152 0.07308 0.03688
v 0.04152 0.07308 0.04225
v 0.04292 0.07752 0.03688
v 0.04416 0.07788 0.04225
v 0.04048 0.07793 0.03313
v 0.04233 0.07208 0.03688
v 0.04232 0.07207 0.04225
v 0.04048 0.07793 -0.00212
v 0.0412 0.07864 0.03313
v 0.0412 0.07864 -0.00212
v 0.04205 0.07919 0.03313
v 0.04299 0.07957 0.03313
v 0.04205 0.07919 -0.00212
v 0.04241 0.0785 -0.00294
v 0.04416 0.07788 0.03688
v 0.04399 0.07976 0.03313
v 0.04299 0.07957 -0.00212
v 0.04399 0.07976 -0.00212
v 0.04264 0.07244 0.04225
v 0.04195 0.0733 0.04225
v 0.04164 0.07435 0.04225
v 0.0436 0.07192 0.04225
v 0.04345 0.07145 0.04225
v 0.04176 0.07544 0.04225
v 0.04469 0.0718 0.04225
v 0.04473 0.07131 0.04225
v 0.04229 0.07641 0.04225
v 0.04574 0.0721 0.04225
v 0.04597 0.07167 0.04225
v 0.0466 0.07279 0.04225
v 0.04697 0.07248 0.04225
v 0.04315 0.07709 0.04225
v 0.0442 0.0774 0.04225
v 0.04529 0.07728 0.04225
v 0.04625 0.07675 0.04225
v 0.04694 0.0759 0.04225
v 0.04725 0.07484 0.04225
v 0.04759 0.07361 0.04225
v 0.04713 0.07375 0.04225
v 0.04474 0.07729 0.04496
v 0.04656 0.0763 0.04496
v 0.04468 0.07679 0.04964
v 0.04714 0.0743 0.04496
v 0.04614 0.07249 0.04496
v 0.04617 0.07598 0.04964
v 0.04459 0.07593 0.05351
v 0.04664 0.07436 0.04964
v 0.04583 0.07288 0.04964
v 0.04549 0.07544 0.05351
v 0.04453 0.07535 0.05485
v 0.04577 0.07445 0.05351
v 0.04528 0.07356 0.05351
v 0.04503 0.07507 0.05485
v 0.04444 0.0746 0.05535
v 0.04519 0.07452 0.05485
v 0.04492 0.07401 0.05485
v 0.04615 0.07549 -0.00581
v 0.04503 0.0753 -0.00581
v 0.04568 0.07607 -0.00581
v 0.04502 0.07643 -0.00581
v 0.04444 0.0746 -0.00548
v 0.04436 0.07551 -0.00581
v 0.04374 0.07519 -0.00581
v 0.04428 0.07652 -0.00581
v 0.04356 0.07631 -0.00581
v 0.04297 0.07584 -0.00581
v 0.04343 0.07654 -0.00521
v 0.04425 0.07678 -0.00521
v 0.0451 0.07669 -0.00521
v 0.04524 0.07713 -0.00567
v 0.04421 0.07724 -0.00567
v 0.04615 0.07663 -0.00567
v 0.04585 0.07628 -0.00521
v 0.04404 0.0792 -0.00567
v 0.04583 0.079 -0.00567
v 0.0468 0.07582 -0.00567
v 0.04639 0.07561 -0.00521
v 0.04741 0.07813 -0.00567
v 0.04694 0.07914 -0.00538
v 0.046 0.07954 -0.00538
v 0.04501 0.07975 -0.00538
v 0.04399 0.07976 -0.00538
v 0.04854 0.07673 -0.00567
v 0.04299 0.07957 -0.00538
v 0.04709 0.07483 -0.00567
v 0.04904 0.075 -0.00567
v 0.04663 0.07479 -0.00521
v 0.04231 0.07869 -0.00567
v 0.04698 0.0738 -0.00567
v 0.04885 0.07321 -0.00567
v 0.04654 0.07394 -0.00521
v 0.04205 0.07919 -0.00538
v 0.04322 0.07695 -0.00567
v 0.0412 0.07864 -0.00538
v 0.04091 0.07757 -0.00567
v 0.04048 0.07793 -0.00538
v 0.04241 0.0763 -0.00567
v 0.0399 0.07709 -0.00538
v 0.04004 0.07599 -0.00567
v 0.0395 0.07616 -0.00538
v 0.04191 0.0754 -0.00567
v 0.03929 0.07516 -0.00538
v 0.03985 0.0742 -0.00567
v 0.03928 0.07415 -0.00538
v 0.0418 0.07437 -0.00567
v 0.03947 0.07315 -0.00538
v 0.04035 0.07247 -0.00567
v 0.03985 0.07221 -0.00538
v 0.04209 0.07337 -0.00567
v 0.0404 0.07136 -0.00538
v 0.04148 0.07106 -0.00567
v 0.04111 0.07063 -0.00538
v 0.04274 0.07257 -0.00567
v 0.04195 0.07006 -0.00538
v 0.04306 0.0702 -0.00567
v 0.04289 0.06966 -0.00538
v 0.04365 0.07207 -0.00567
v 0.04388 0.06945 -0.00538
v 0.04485 0.07 -0.00567
v 0.0449 0.06944 -0.00538
v 0.04589 0.06963 -0.00538
v 0.04468 0.07195 -0.00567
v 0.04464 0.07241 -0.00521
v 0.04546 0.07265 -0.00521
v 0.04658 0.0705 -0.00567
v 0.04684 0.07 -0.00538
v 0.04567 0.07224 -0.00567
v 0.04612 0.07319 -0.00521
v 0.04798 0.07163 -0.00567
v 0.04648 0.07289 -0.00567
v 0.04353 0.07452 -0.00581
v 0.04386 0.0739 -0.00581
v 0.04777 0.07857 -0.00538
v 0.04848 0.07784 -0.00538
v 0.04904 0.07699 -0.00538
v 0.04942 0.07605 -0.00538
v 0.04961 0.07505 -0.00538
v 0.04959 0.07403 -0.00538
v 0.04938 0.07304 -0.00538
v 0.04899 0.07211 -0.00538
v 0.04841 0.07127 -0.00538
v 0.04769 0.07056 -0.00538
v 0.04261 0.07518 -0.00581
v 0.04235 0.07526 -0.00521
v 0.04276 0.07601 -0.00521
v 0.04253 0.07443 -0.00581
v 0.04226 0.07441 -0.00521
v 0.04274 0.07371 -0.00581
v 0.0425 0.07359 -0.00521
v 0.04321 0.07312 -0.00581
v 0.04303 0.07292 -0.00521
v 0.04387 0.07276 -0.00581
v 0.04378 0.07251 -0.00521
v 0.04461 0.07268 -0.00581
v 0.04452 0.07369 -0.00581
v 0.04533 0.07289 -0.00581
v 0.04514 0.07401 -0.00581
v 0.04592 0.07336 -0.00581
v 0.04628 0.07402 -0.00581
v 0.04535 0.07468 -0.00581
v 0.04636 0.07477 -0.00581
v 0.04275 0.07671 0.04496
v 0.04306 0.07632 0.04964
v 0.04175 0.07489 0.04496
v 0.04225 0.07484 0.04964
v 0.04233 0.0729 0.04496
v 0.04415 0.0719 0.04496
v 0.0442 0.0724 0.04964
v 0.04272 0.07322 0.04964
v 0.0443 0.07327 0.05351
v 0.0434 0.07376 0.05351
v 0.04436 0.07385 0.05485
v 0.04311 0.07474 0.05351
v 0.04386 0.07413 0.05485
v 0.04369 0.07468 0.05485
v 0.04361 0.07564 0.05351
v 0.04397 0.07519 0.05485
v 0.04961 0.07505 0.03313
v 0.04759 0.07361 0.03688
v 0.04697 0.07248 0.03688
v 0.04899 0.07211 0.03313
v 0.04841 0.07127 0.03313
v 0.04959 0.07403 0.03313
v 0.04939 0.07304 0.03313
v 0.04899 0.07211 -0.00212
v 0.04841 0.07127 -0.00212
v 0.04782 0.07177 -0.00294
v 0.04938 0.07304 -0.00212
v 0.04864 0.07327 -0.00294
v 0.04782 0.07177 -0.00404
v 0.04959 0.07403 -0.00212
v 0.04961 0.07505 -0.00212
v 0.04883 0.07498 -0.00294
v 0.04864 0.07327 -0.00404
v 0.04883 0.07498 -0.00404
v 0.04899 0.07211 -0.00433
v 0.04841 0.07127 -0.00433
v 0.04938 0.07304 -0.00433
v 0.04959 0.07403 -0.00433
v 0.04961 0.07505 -0.00433
v 0.04942 0.07605 -0.00433
v 0.04904 0.07699 -0.00433
v 0.04848 0.07784 -0.00433
v 0.04777 0.07857 -0.00433
v 0.04694 0.07914 -0.00433
v 0.046 0.07954 -0.00433
v 0.04501 0.07975 -0.00433
v 0.04589 0.06963 -0.00433
v 0.04684 0.07 -0.00433
v 0.04769 0.07056 -0.00433
v 0.04648 0.07069 -0.00404
v 0.04648 0.07069 -0.00294
v 0.04483 0.07021 -0.00404
v 0.04483 0.07021 -0.00294
v 0.04769 0.07056 -0.00212
v 0.04684 0.07 -0.00212
v 0.04589 0.06963 -0.00212
v 0.04589 0.06963 0.03313
v 0.04684 0.07 0.03313
v 0.04473 0.07131 0.03688
v 0.04769 0.07056 0.03313
v 0.04597 0.07167 0.03688
v 0.04406 0.07898 -0.00294
v 0.04406 0.07898 -0.00404
v 0.04241 0.0785 -0.00404
v 0.04399 0.07976 -0.00433
v 0.04299 0.07957 -0.00433
v 0.04205 0.07919 -0.00433
v 0.0412 0.07864 -0.00433
v 0.04107 0.07743 -0.00404
v 0.04048 0.07793 -0.00433
v 0.0399 0.07709 -0.00433
v 0.04025 0.07592 -0.00404
v 0.0395 0.07616 -0.00433
v 0.03929 0.07516 -0.00433
v 0.04006 0.07421 -0.00404
v 0.03928 0.07415 -0.00433
v 0.03947 0.07315 -0.00433
v 0.04054 0.07257 -0.00404
v 0.03985 0.07221 -0.00433
v 0.0404 0.07136 -0.00433
v 0.04111 0.07063 -0.00433
v 0.04161 0.07123 -0.00404
v 0.04195 0.07006 -0.00433
v 0.04161 0.07123 -0.00294
v 0.04312 0.0704 -0.00404
v 0.04289 0.06966 -0.00433
v 0.04388 0.06945 -0.00433
v 0.0449 0.06944 -0.00433
v 0.04312 0.0704 -0.00294
v 0.0449 0.06944 -0.00212
v 0.0449 0.06944 0.03313
v 0.04388 0.06945 -0.00212
v 0.04388 0.06945 0.03313
v 0.04345 0.07145 0.03688
v 0.04289 0.06966 0.03313
v 0.04289 0.06966 -0.00212
v 0.04195 0.07006 0.03313
v 0.04195 0.07006 -0.00212
v 0.04112 0.07063 0.03313
v 0.04041 0.07136 0.03313
v 0.04111 0.07063 -0.00212
v 0.0404 0.07136 -0.00212
v 0.03985 0.07221 0.03313
v 0.03985 0.07221 -0.00212
vt 0.764648 0.95166
vt 0.763672 0.95166
vt 0.764648 0.992676
vt 0.763672 0.992676
vt 0.762695 0.95166
vt 0.76416 0.946777
vt 0.762695 0.992676
vt 0.763184 0.993652
vt 0.762207 0.946777
vt 0.762207 0.940918
vt 0.76416 0.940918
vt 0.760742 0.940918
vt 0.760742 0.946777
vt 0.758789 0.940918
vt 0.76123 0.95166
vt 0.760254 0.95166
vt 0.76123 0.992676
vt 0.76123 0.993652
vt 0.760254 0.992676
vt 0.759277 0.95166
vt 0.760742 0.995117
vt 0.763184 0.995117
vt 0.758789 0.993652
vt 0.758789 0.995117
vt 0.759277 0.992676
vt 0.758301 0.95166
vt 0.758301 0.992676
vt 0.758789 0.946777
vt 0.771973 0.992676
vt 0.770996 0.992676
vt 0.772461 0.993652
vt 0.770996 0.95166
vt 0.77002 0.993652
vt 0.771973 0.95166
vt 0.773438 0.992676
vt 0.771973 0.946777
vt 0.773438 0.95166
vt 0.774414 0.993652
vt 0.774414 0.992676
vt 0.774414 0.95166
vt 0.773926 0.946777
vt 0.775391 0.992676
vt 0.775391 0.95166
vt 0.776855 0.993652
vt 0.771973 0.940918
vt 0.77002 0.940918
vt 0.773926 0.940918
vt 0.77002 0.946777
vt 0.768066 0.940918
vt 0.775879 0.946777
vt 0.775879 0.940918
vt 0.768066 0.946777
vt 0.766113 0.940918
vt 0.77002 0.95166
vt 0.777832 0.946777
vt 0.777832 0.940918
vt 0.77002 0.992676
vt 0.769043 0.95166
vt 0.769043 0.992676
vt 0.768066 0.95166
vt 0.766602 0.95166
vt 0.768066 0.992676
vt 0.767578 0.993652
vt 0.766113 0.946777
vt 0.765625 0.95166
vt 0.766602 0.992676
vt 0.765625 0.992676
vt 0.110779 0.089966
vt 0.110779 0.088318
vt 0.110291 0.088318
vt 0.110291 0.086609
vt 0.110291 0.089966
vt 0.110779 0.086609
vt 0.110779 0.091614
vt 0.110291 0.0849
vt 0.110291 0.091553
vt 0.110779 0.0849
vt 0.110779 0.09314
vt 0.110291 0.083191
vt 0.110291 0.093079
vt 0.110779 0.083191
vt 0.110779 0.094604
vt 0.110291 0.081482
vt 0.110291 0.094543
vt 0.110779 0.095947
vt 0.110291 0.096008
vt 0.110779 0.081482
vt 0.110291 0.079773
vt 0.110779 0.079773
vt 0.110291 0.078064
vt 0.110779 0.078064
vt 0.110291 0.076416
vt 0.110779 0.076416
vt 0.110291 0.074829
vt 0.110779 0.074829
vt 0.110291 0.073364
vt 0.110779 0.073303
vt 0.110291 0.071899
vt 0.110779 0.071838
vt 0.110291 0.070435
vt 0.110779 0.070496
vt 0.0625 0.016693
vt 0.061157 0.016693
vt 0.060089 0.019485
vt 0.062561 0.019669
vt 0.063843 0.016693
vt 0.059387 0.024429
vt 0.065063 0.016693
vt 0.06488 0.019989
vt 0.066223 0.016693
vt 0.067383 0.016693
vt 0.067139 0.020676
vt 0.061218 0.024765
vt 0.058441 0.028595
vt 0.062927 0.025345
vt 0.064575 0.026245
vt 0.059448 0.02887
vt 0.057922 0.030029
vt 0.060303 0.029358
vt 0.061066 0.030121
vt 0.058411 0.030212
vt 0.057373 0.030884
vt 0.058807 0.030533
vt 0.059021 0.031052
vt 0.515137 0.200317
vt 0.516113 0.199463
vt 0.515137 0.199585
vt 0.515137 0.19873
vt 0.51709 0.199463
vt 0.516602 0.198853
vt 0.51709 0.198486
vt 0.515625 0.19812
vt 0.516602 0.197632
vt 0.51709 0.19751
vt 0.516113 0.197021
vt 0.515137 0.197632
vt 0.514648 0.198486
vt 0.51416 0.198242
vt 0.514648 0.197144
vt 0.513672 0.199585
vt 0.514648 0.199585
vt 0.513184 0.195679
vt 0.512207 0.197388
vt 0.51416 0.200806
vt 0.514648 0.200562
vt 0.511719 0.199585
vt 0.51123 0.198364
vt 0.51123 0.197144
vt 0.511719 0.196045
vt 0.512695 0.195068
vt 0.512207 0.20166
vt 0.513672 0.194336
vt 0.514648 0.201904
vt 0.513184 0.203491
vt 0.515137 0.201416
vt 0.515137 0.194336
vt 0.516113 0.202637
vt 0.515137 0.204712
vt 0.516113 0.202026
vt 0.514648 0.193726
vt 0.515625 0.196411
vt 0.515625 0.193359
vt 0.51709 0.19397
vt 0.51709 0.193237
vt 0.51709 0.196167
vt 0.518066 0.193359
vt 0.519043 0.194336
vt 0.519531 0.193604
vt 0.518555 0.196411
vt 0.520508 0.194214
vt 0.520996 0.195557
vt 0.521484 0.194946
vt 0.519531 0.197144
vt 0.522461 0.195923
vt 0.522461 0.197266
vt 0.522949 0.197021
vt 0.52002 0.19812
vt 0.523438 0.19812
vt 0.522949 0.199463
vt 0.523438 0.199341
vt 0.520508 0.199463
vt 0.523438 0.200684
vt 0.522461 0.201538
vt 0.522949 0.201782
vt 0.520508 0.200684
vt 0.522461 0.202881
vt 0.520996 0.203369
vt 0.521484 0.203857
vt 0.520508 0.204712
vt 0.519531 0.201782
vt 0.519043 0.201416
vt 0.518066 0.201904
vt 0.519531 0.20459
vt 0.519531 0.205322
vt 0.518555 0.202515
vt 0.51709 0.202148
vt 0.51709 0.205078
vt 0.51709 0.202881
vt 0.518066 0.198853
vt 0.518066 0.199463
vt 0.510742 0.199585
vt 0.51123 0.200806
vt 0.51123 0.202026
vt 0.512207 0.203003
vt 0.512695 0.203979
vt 0.513672 0.204712
vt 0.514648 0.205322
vt 0.516113 0.205688
vt 0.51709 0.205811
vt 0.518555 0.205688
vt 0.518066 0.197632
vt 0.518066 0.197021
vt 0.51709 0.196777
vt 0.518555 0.197998
vt 0.519043 0.197632
vt 0.519043 0.19873
vt 0.519531 0.198486
vt 0.519043 0.199463
vt 0.52002 0.199463
vt 0.519043 0.200195
vt 0.519531 0.200439
vt 0.518555 0.200928
vt 0.518066 0.200195
vt 0.518066 0.201416
vt 0.51709 0.200439
vt 0.51709 0.201538
vt 0.516602 0.201416
vt 0.516602 0.200195
vt 0.515625 0.200928
vt 0.059723 0.016693
vt 0.057526 0.019424
vt 0.058289 0.016693
vt 0.056824 0.016693
vt 0.057465 0.024323
vt 0.054932 0.019485
vt 0.055359 0.016693
vt 0.053955 0.016693
vt 0.055542 0.024414
vt 0.052429 0.019638
vt 0.052582 0.016693
vt 0.05127 0.016693
vt 0.050079 0.019913
vt 0.050018 0.016693
vt 0.048828 0.016693
vt 0.05191 0.025238
vt 0.05368 0.024719
vt 0.054474 0.029312
vt 0.055359 0.028839
vt 0.055969 0.030518
vt 0.056366 0.02858
vt 0.056366 0.030212
vt 0.055725 0.031036
vt 0.056854 0.030029
vt 0.057404 0.028503
vt 0.057404 0.029953
vt 0.757324 0.940918
vt 0.756836 0.95166
vt 0.757324 0.946777
vt 0.755859 0.940918
vt 0.755859 0.946777
vt 0.753906 0.95166
vt 0.752441 0.95166
vt 0.755859 0.95166
vt 0.754883 0.95166
vt 0.753906 0.992676
vt 0.752441 0.992676
vt 0.752441 0.993652
vt 0.754883 0.992676
vt 0.754395 0.993652
vt 0.751953 0.995117
vt 0.755859 0.992676
vt 0.756836 0.992676
vt 0.756836 0.993652
vt 0.754395 0.995117
vt 0.756348 0.995117
vt 0.75293 0.996094
vt 0.751465 0.996094
vt 0.751465 0.997559
vt 0.752441 0.997559
vt 0.753906 0.997559
vt 0.753906 0.996094
vt 0.754883 0.996094
vt 0.754883 0.997559
vt 0.756348 0.997559
vt 0.756348 0.996094
vt 0.757324 0.996094
vt 0.757324 0.997559
vt 0.758301 0.997559
vt 0.758301 0.996094
vt 0.759766 0.996094
vt 0.759766 0.997559
vt 0.760742 0.996094
vt 0.760742 0.997559
vt 0.762207 0.996094
vt 0.761719 0.997559
vt 0.763184 0.997559
vt 0.763184 0.996094
vt 0.76416 0.996094
vt 0.76416 0.997559
vt 0.784668 0.996094
vt 0.785156 0.997559
vt 0.786133 0.997559
vt 0.786133 0.996094
vt 0.787109 0.996094
vt 0.787598 0.997559
vt 0.788574 0.997559
vt 0.788086 0.996094
vt 0.788086 0.995117
vt 0.785645 0.995117
vt 0.787598 0.993652
vt 0.785645 0.993652
vt 0.783691 0.995117
vt 0.783203 0.993652
vt 0.786133 0.992676
vt 0.787109 0.992676
vt 0.785156 0.992676
vt 0.78418 0.992676
vt 0.78418 0.95166
vt 0.785156 0.95166
vt 0.78125 0.946777
vt 0.786133 0.95166
vt 0.787109 0.95166
vt 0.78418 0.946777
vt 0.782715 0.946777
vt 0.78125 0.940918
vt 0.782715 0.940918
vt 0.78418 0.940918
vt 0.765625 0.993652
vt 0.765625 0.995117
vt 0.767578 0.995117
vt 0.765625 0.996094
vt 0.765625 0.997559
vt 0.766602 0.996094
vt 0.766602 0.997559
vt 0.767578 0.997559
vt 0.767578 0.996094
vt 0.769043 0.996094
vt 0.769043 0.997559
vt 0.77002 0.997559
vt 0.77002 0.995117
vt 0.77002 0.996094
vt 0.770996 0.996094
vt 0.770996 0.997559
vt 0.772461 0.995117
vt 0.772461 0.997559
vt 0.772461 0.996094
vt 0.773438 0.996094
vt 0.773438 0.997559
vt 0.774414 0.997559
vt 0.774414 0.995117
vt 0.774414 0.996094
vt 0.775879 0.996094
vt 0.775879 0.997559
vt 0.776855 0.997559
vt 0.776855 0.995117
vt 0.776855 0.996094
vt 0.777832 0.996094
vt 0.777832 0.997559
vt 0.779297 0.997559
vt 0.779297 0.996094
vt 0.779297 0.995117
vt 0.780273 0.996094
vt 0.780273 0.997559
vt 0.781738 0.997559
vt 0.778809 0.993652
vt 0.78125 0.995117
vt 0.78125 0.996094
vt 0.782715 0.996094
vt 0.782715 0.997559
vt 0.783691 0.997559
vt 0.783691 0.996094
vt 0.78125 0.993652
vt 0.782715 0.992676
vt 0.782715 0.95166
vt 0.781738 0.992676
vt 0.781738 0.95166
vt 0.779297 0.940918
vt 0.779297 0.946777
vt 0.780762 0.95166
vt 0.780762 0.992676
vt 0.779785 0.95166
vt 0.779785 0.992676
vt 0.778809 0.95166
vt 0.777344 0.95166
vt 0.778809 0.992676
vt 0.777344 0.992676
vt 0.776367 0.95166
vt 0.776367 0.992676
vt 0.05368 0.03006
vt 0.050232 0.026093
vt 0.047729 0.020294
vt 0.047699 0.016693
vt 0.0466 0.016693
vn 0.1091 0.9929 0.0483
vn 0.3013 0.9524 0.047
vn 0.1094 0.9936 -0.0276
vn 0.3004 0.9536 -0.0212
vn 0.4788 0.8766 0.048
vn 0.2944 0.9311 0.2155
vn 0.4808 0.8763 -0.0284
vn 0.2788 0.8815 -0.3812
vn 0.626 0.7502 0.2128
vn 0.6438 0.7652 -0.0014
vn 0.3007 0.9537 -0.0012
vn 0.8877 0.4604 -0.0013
vn 0.8667 0.4506 0.2141
vn 0.9963 0.0858 -0.0011
vn 0.641 0.7661 0.0469
vn 0.78 0.6237 0.0497
vn 0.6443 0.7645 -0.021
vn 0.5939 0.7091 -0.38
vn 0.7809 0.6239 -0.0294
vn 0.8871 0.4592 0.0477
vn 0.5651 0.6725 0.4779
vn 0.264 0.8383 0.477
vn 0.8197 0.4282 -0.3804
vn 0.7788 0.4081 0.4764
vn 0.8869 0.4615 -0.0201
vn 0.9594 0.2779 0.049
vn 0.96 0.2787 -0.0285
vn 0.974 0.0804 0.2116
vn -0.9536 0.3004 -0.0212
vn -0.8763 0.4808 -0.0284
vn -0.8815 0.2788 -0.3812
vn -0.8748 0.482 0.0481
vn -0.7091 0.5939 -0.38
vn -0.9524 0.3013 0.047
vn -0.9936 0.1094 -0.0276
vn -0.9311 0.2944 0.2155
vn -0.9929 0.1091 0.0483
vn -0.9212 -0.0797 -0.3809
vn -0.9961 -0.0852 -0.0216
vn -0.9951 -0.0872 0.0463
vn -0.973 -0.0859 0.214
vn -0.9592 -0.2813 -0.0273
vn -0.9586 -0.2805 0.0478
vn -0.8209 -0.4247 -0.3818
vn -0.9537 0.3007 0.0012
vn -0.7677 0.6409 -0.0014
vn -0.9961 -0.088 0
vn -0.7474 0.6293 0.2129
vn -0.4635 0.8861 0.0013
vn -0.8654 -0.4537 0.2126
vn -0.8864 -0.463 0
vn -0.4506 0.8667 0.2141
vn -0.088 0.9961 0.0011
vn -0.7661 0.641 0.0469
vn -0.6282 -0.7479 0.2146
vn -0.6417 -0.767 0
vn -0.767 0.6413 -0.021
vn -0.6269 0.7775 0.0498
vn -0.627 0.7785 -0.0295
vn -0.4625 0.8854 0.0477
vn -0.2809 0.9585 0.0491
vn -0.4615 0.8869 -0.0201
vn -0.4282 0.8197 -0.3804
vn -0.0859 0.9727 0.2155
vn -0.0872 0.9951 0.0475
vn -0.2787 0.96 -0.0285
vn -0.0874 0.996 -0.0205
vn 0 -0.001 1
vn 0.5998 0.7973 0.0673
vn 0.3234 0.9443 0.061
vn 0.1065 0.9891 0.1018
vn 0.773 0.6263 0.1012
vn 0.8968 0.4382 0.0614
vn 0.1188 0.981 0.1531
vn 0.9877 0.1414 0.0666
vn 0.9892 -0.1041 0.1029
vn 0.9441 -0.3238 0.0624
vn 0.8729 -0.4788 0.0932
vn 0.872 -0.4799 0.0963
vn 0.7791 0.6073 0.1552
vn 0.1332 0.9564 0.2599
vn 0.9808 -0.1189 0.1545
vn 0.8685 -0.4749 0.1423
vn 0.7708 0.5816 0.2601
vn 0.1274 0.8335 0.5376
vn 0.9568 -0.1331 0.2583
vn 0.8504 -0.4679 0.2408
vn 0.6795 0.4983 0.5385
vn 0.8324 -0.1275 0.5393
vn 0.7486 -0.4088 0.522
vn 0.431 0.2192 -0.8753
vn -0.0747 -0.0894 -0.9932
vn 0.3151 0.3669 -0.8753
vn 0.1495 0.4601 -0.8752
vn 0 -0.001 -1
vn 0.0109 -0.1149 -0.9933
vn 0.0882 -0.0758 -0.9932
vn -0.0396 0.482 -0.8753
vn -0.2192 0.431 -0.8753
vn -0.3698 0.312 -0.8751
vn -0.009 0.011 -0.9999
vn -0.005 0.0129 -0.9999
vn 0.001 0.0129 -0.9999
vn -0.0408 -0.1281 -0.9909
vn 0.0111 -0.1319 -0.9912
vn -0.0876 -0.1003 -0.9911
vn 0.005 0.0129 -0.9999
vn -0.0098 0.1123 -0.9936
vn 0.0343 0.1053 -0.9939
vn -0.119 -0.0607 -0.991
vn 0.009 0.011 -0.9999
vn 0.0732 0.0844 -0.9937
vn 0.2006 0.3681 -0.9079
vn 0.1388 0.4366 -0.8889
vn 0.0469 0.417 -0.9077
vn -0.0392 0.456 -0.8891
vn 0.0997 0.0526 -0.9936
vn -0.1186 0.4005 -0.9086
vn -0.133 -0.01 -0.9911
vn 0.1123 0.0098 -0.9936
vn 0.0129 0.005 -0.9999
vn -0.0526 0.0997 -0.9936
vn -0.1257 0.0419 -0.9912
vn 0.1065 -0.0344 -0.9937
vn 0.0129 0.001 -0.9999
vn -0.2107 0.4081 -0.8883
vn 0.0595 -0.1202 -0.991
vn -0.2618 0.3262 -0.9083
vn -0.0867 0.0709 -0.9937
vn -0.3494 0.2954 -0.8892
vn 0.1014 -0.0864 -0.9911
vn -0.3681 0.2006 -0.9079
vn -0.1075 0.0321 -0.9937
vn -0.4366 0.1388 -0.8889
vn 0.127 -0.042 -0.991
vn -0.417 0.0469 -0.9077
vn -0.1111 -0.0098 -0.9938
vn -0.4555 -0.042 -0.8893
vn 0.1318 0.01 -0.9912
vn -0.4022 -0.1187 -0.9078
vn -0.0985 -0.0526 -0.9937
vn -0.4063 -0.2105 -0.8892
vn 0.1178 0.0606 -0.9912
vn -0.3279 -0.262 -0.9076
vn -0.0721 -0.0867 -0.9936
vn -0.2941 -0.3526 -0.8883
vn 0.0863 0.1002 -0.9912
vn -0.2023 -0.3684 -0.9074
vn -0.0333 -0.1076 -0.9936
vn -0.1373 -0.4361 -0.8894
vn 0.0419 0.1257 -0.9912
vn -0.0455 -0.4165 -0.908
vn 0.0087 -0.1122 -0.9936
vn 0.0406 -0.4566 -0.8888
vn 0.1173 -0.4035 -0.9074
vn -0.01 0.1318 -0.9912
vn 0.006 -0.0109 -0.9999
vn 0.01 -0.009 -0.9999
vn 0.0515 -0.0996 -0.9937
vn 0.212 -0.4049 -0.8894
vn -0.0606 0.1178 -0.9912
vn 0.0119 -0.005 -0.9999
vn 0.0856 -0.0732 -0.9936
vn -0.1002 0.0863 -0.9912
vn 0.1147 0.0098 -0.9933
vn 0.0735 0.0893 -0.9933
vn 0.2954 0.3494 -0.8892
vn 0.3262 0.2618 -0.9083
vn 0.4054 0.2137 -0.8888
vn 0.403 0.1157 -0.9078
vn 0.456 0.0392 -0.8891
vn 0.4176 -0.0442 -0.9075
vn 0.4373 -0.1358 -0.889
vn 0.3671 -0.2038 -0.9076
vn 0.3512 -0.2956 -0.8884
vn 0.2635 -0.3265 -0.9077
vn -0.4601 0.1495 -0.8752
vn -0.0129 0.001 -0.9999
vn -0.0129 0.005 -0.9999
vn -0.4836 -0.0396 -0.8744
vn -0.0119 -0.005 -0.9999
vn -0.4327 -0.2194 -0.8744
vn -0.01 -0.009 -0.9999
vn -0.3138 -0.3702 -0.8744
vn -0.006 -0.0109 -0.9999
vn -0.1481 -0.4631 -0.8739
vn 0 -0.0129 -0.9999
vn 0.0382 -0.4847 -0.8738
vn -0.0098 0.1147 -0.9933
vn 0.2209 -0.4314 -0.8747
vn -0.0893 0.0735 -0.9933
vn 0.3687 -0.3153 -0.8744
vn 0.4618 -0.1496 -0.8743
vn -0.1159 -0.0098 -0.9932
vn 0.4842 0.0368 -0.8742
vn -0.1388 0.9881 0.0665
vn -0.6231 0.7756 0.1012
vn -0.4382 0.8968 0.0614
vn -0.7973 0.5998 0.0673
vn -0.6073 0.7791 0.1552
vn -0.9891 0.1065 0.1018
vn -0.9443 0.3234 0.061
vn -0.988 -0.139 0.0677
vn -0.9807 0.1215 0.1534
vn -0.7749 -0.6237 0.1027
vn -0.8965 -0.4387 0.0629
vn -0.5988 -0.7979 0.0688
vn -0.1053 -0.9891 0.103
vn -0.3222 -0.9446 0.0624
vn 0.1403 -0.9878 0.0678
vn -0.1203 -0.9806 0.1546
vn -0.7773 -0.6101 0.1537
vn -0.1346 -0.9566 0.2586
vn -0.7717 -0.5812 0.2583
vn -0.1291 -0.8318 0.5399
vn -0.9564 0.1332 0.2599
vn -0.678 -0.5018 0.5371
vn 0.243 -0.8322 0.4984
vn -0.8335 0.1274 0.5376
vn -0.5816 0.7708 0.2601
vn -0.4983 0.6795 0.5385
vn 0.9538 -0.3004 0
vn 0.9951 0.085 0.0497
vn 0.9336 -0.2902 0.2103
vn 0.8762 -0.4819 0
vn 0.8549 -0.4741 0.2107
vn 0.8762 -0.4793 0.0494
vn 0.8252 -0.5628 0.0477
vn 0.9931 -0.1067 0.0494
vn 0.9525 -0.301 0.0457
vn 0.8767 -0.4803 -0.0271
vn 0.824 -0.5663 -0.0193
vn 0.807 -0.4564 -0.3747
vn 0.9537 -0.3001 -0.0199
vn 0.882 -0.2754 -0.3823
vn 0.7709 -0.4295 0.4704
vn 0.9938 -0.1071 -0.0287
vn 0.996 0.0874 -0.0205
vn 0.9205 0.0797 -0.3825
vn 0.8378 -0.2674 0.4761
vn 0.8759 0.0768 0.4764
vn 0.7025 -0.3875 0.5969
vn 0.7243 -0.4934 0.4817
vn 0.8259 -0.5638 0
vn 0.835 -0.2644 0.4825
vn 0.7972 -0.0884 0.5972
vn 0.9941 -0.1089 0
vn 0.8722 0.077 0.483
vn 0.7705 0.2257 0.5962
vn 0.9607 0.2774 -0.0012
vn 0.7761 0.4051 0.4832
vn 0.6254 0.5007 0.5985
vn 0.7799 0.6259 -0.0014
vn 0.5619 0.6726 0.4814
vn 0.3876 0.701 0.5987
vn 0.4825 0.8759 -0.0013
vn 0.3007 0.9537 0.0012
vn 0.2646 0.834 0.4843
vn 0.0884 0.796 0.5988
vn 0.109 0.994 0.0011
vn 0.224 -0.77 0.5974
vn 0.2786 -0.9604 0
vn 0.4614 -0.8872 0
vn 0.4031 -0.7785 0.4811
vn 0.5024 -0.6255 0.5969
vn 0.6267 -0.7793 0
vn 0.6995 -0.7147 0
vn 0.6123 -0.6274 0.4811
vn 0.5588 -0.6843 0.4685
vn 0.4064 -0.7787 0.478
vn 0.5877 -0.7173 -0.3743
vn 0.4266 -0.8198 -0.382
vn 0.0754 -0.8754 0.4775
vn 0.0811 -0.9209 -0.3813
vn 0.6248 -0.7803 -0.028
vn 0.6978 -0.716 -0.0196
vn 0.4604 -0.8874 -0.0214
vn 0.2798 -0.9597 -0.0272
vn 0.2791 -0.9591 0.0478
vn 0.4614 -0.8859 0.0491
vn 0.0869 -0.9742 0.2085
vn 0.6247 -0.7794 0.0483
vn 0.6985 -0.7142 0.0456
vn 0.6171 -0.7581 0.2109
vn 0.4483 -0.8683 0.2122
vn 0.0868 -0.9962 0
vn -0.0797 0.9205 -0.3825
vn -0.0768 0.8759 0.4764
vn -0.4044 0.7811 0.4758
vn -0.077 0.8722 0.483
vn -0.2257 0.7705 0.5962
vn -0.2803 0.9599 -0.0012
vn -0.4635 0.8861 -0.0013
vn -0.4051 0.7761 0.4832
vn -0.5007 0.6254 0.5985
vn -0.6259 0.7799 -0.0014
vn -0.6725 0.5651 0.4779
vn -0.6695 0.5655 0.4816
vn -0.7035 0.3839 0.5981
vn -0.8776 0.4793 0.0013
vn -0.8383 0.264 0.477
vn -0.8356 0.261 0.4834
vn -0.7973 0.0854 0.5976
vn -0.9943 0.1066 0.0011
vn -0.875 -0.0769 0.478
vn -0.8731 -0.077 0.4813
vn -0.7691 -0.2258 0.5979
vn -0.96 -0.28 0
vn -0.7799 -0.4046 0.4777
vn -0.7774 -0.4049 0.4814
vn -0.6271 -0.5007 0.5967
vn -0.7805 -0.6252 0
vn -0.5639 -0.6696 0.4833
vn -0.5667 -0.6724 0.4762
vn -0.3857 -0.7038 0.5966
vn -0.4803 -0.8771 0
vn -0.3018 -0.9534 0
vn -0.596 -0.7063 -0.382
vn -0.2656 -0.8386 0.4757
vn -0.2627 -0.8359 0.482
vn -0.0869 -0.7978 0.5966
vn -0.1077 -0.9942 0
vn 0.0755 -0.8736 0.4808
vn -0.2772 -0.8813 -0.3827
vn 0.0863 -0.996 -0.0216
vn 0.086 -0.9952 0.0463
vn -0.1083 -0.9937 -0.0287
vn -0.1077 -0.9931 0.0471
vn -0.2958 -0.931 0.2141
vn -0.2995 -0.953 0.0457
vn -0.3015 -0.9532 -0.0199
vn -0.4842 -0.8735 0.0495
vn -0.4819 -0.8758 -0.0271
vn -0.6432 -0.7642 0.0484
vn -0.7782 -0.6262 0.0483
vn -0.6421 -0.7664 -0.0195
vn -0.7791 -0.6263 -0.028
vn -0.884 -0.4652 0.0464
vn -0.8866 -0.462 -0.0214
vn 0.2708 -0.9323 0.2398
vn 0.2755 -0.9508 0.1418
vn 0.2994 -0.9494 0.0945
vn 0.4403 -0.8956 0.0629
vn 0.627 -0.7788 0.0195
o bullet14__p1_c0
f 1/1/1 2/2/2 3/3/3
f 3/3/3 2/2/2 4/4/4
f 4/4/4 2/2/2 5/5/5
f 5/5/5 2/2/2 6/6/6
f 4/4/4 5/5/5 7/7/7
f 4/4/4 7/7/7 8/8/8
f 5/5/5 6/6/6 9/9/9
f 10/10/10 6/6/6 11/11/11
f 6/6/6 10/10/10 9/9/9
f 9/9/9 10/10/10 12/12/12
f 9/9/9 12/12/12 13/13/13
f 13/13/13 12/12/12 14/14/14
f 5/5/5 9/9/9 15/15/15
f 5/5/5 15/15/15 7/7/7
f 15/15/15 9/9/9 16/16/16
f 16/16/16 9/9/9 13/13/13
f 7/7/7 15/15/15 17/17/17
f 17/17/17 15/15/15 16/16/16
f 7/7/7 17/17/17 18/18/18
f 7/7/7 18/18/18 8/8/8
f 17/17/17 16/16/16 19/19/19
f 17/17/17 19/19/19 18/18/18
f 16/16/16 13/13/13 20/20/20
f 16/16/16 20/20/20 19/19/19
f 8/8/8 18/18/18 21/21/21
f 8/8/8 21/21/21 22/22/22
f 18/18/18 19/19/19 23/23/23
f 21/21/21 18/18/18 24/24/24
f 24/24/24 18/18/18 23/23/23
f 19/19/19 20/20/20 25/25/25
f 19/19/19 25/25/25 23/23/23
f 25/25/25 20/20/20 26/26/26
f 26/26/26 20/20/20 13/13/13
f 23/23/23 25/25/25 27/27/27
f 27/27/27 25/25/25 26/26/26
f 26/26/26 13/13/13 28/28/28
f 28/28/28 13/13/13 14/14/14
f 29/29/29 30/30/30 31/31/31
f 30/30/30 29/29/29 32/32/32
f 31/31/31 30/30/30 33/33/33
f 32/32/32 29/29/29 34/34/34
f 34/34/34 29/29/29 35/35/35
f 35/35/35 29/29/29 31/31/31
f 32/32/32 34/34/34 36/36/36
f 34/34/34 35/35/35 37/37/37
f 34/34/34 37/37/37 36/36/36
f 35/35/35 31/31/31 38/38/38
f 37/37/37 35/35/35 39/39/39
f 39/39/39 35/35/35 38/38/38
f 37/37/37 39/39/39 40/40/40
f 37/37/37 40/40/40 41/41/41
f 37/37/37 41/41/41 36/36/36
f 40/40/40 39/39/39 42/42/42
f 42/42/42 39/39/39 38/38/38
f 40/40/40 42/42/42 43/43/43
f 40/40/40 43/43/43 41/41/41
f 42/42/42 38/38/38 44/44/44
f 36/36/36 41/41/41 45/45/45
f 36/36/36 45/45/45 46/46/46
f 45/45/45 41/41/41 47/47/47
f 36/36/36 46/46/46 48/48/48
f 36/36/36 48/48/48 32/32/32
f 48/48/48 46/46/46 49/49/49
f 47/47/47 41/41/41 50/50/50
f 50/50/50 41/41/41 43/43/43
f 47/47/47 50/50/50 51/51/51
f 48/48/48 49/49/49 52/52/52
f 52/52/52 49/49/49 53/53/53
f 32/32/32 48/48/48 54/54/54
f 32/32/32 54/54/54 30/30/30
f 51/51/51 50/50/50 55/55/55
f 51/51/51 55/55/55 56/56/56
f 30/30/30 54/54/54 57/57/57
f 54/54/54 48/48/48 58/58/58
f 54/54/54 58/58/58 57/57/57
f 58/58/58 48/48/48 52/52/52
f 30/30/30 57/57/57 33/33/33
f 57/57/57 58/58/58 59/59/59
f 57/57/57 59/59/59 33/33/33
f 58/58/58 52/52/52 60/60/60
f 58/58/58 60/60/60 59/59/59
f 60/60/60 52/52/52 61/61/61
f 59/59/59 60/60/60 62/62/62
f 62/62/62 60/60/60 61/61/61
f 33/33/33 59/59/59 63/63/63
f 63/63/63 59/59/59 62/62/62
f 61/61/61 52/52/52 64/64/64
f 64/64/64 52/52/52 53/53/53
f 64/64/64 53/53/53 11/11/11
f 64/64/64 11/11/11 6/6/6
f 64/64/64 6/6/6 1/1/1
f 1/1/1 6/6/6 2/2/2
f 61/61/61 64/64/64 65/65/65
f 65/65/65 64/64/64 1/1/1
f 66/66/66 62/62/62 61/61/61
f 66/66/66 61/61/61 65/65/65
f 62/62/62 66/66/66 63/63/63
f 65/65/65 1/1/1 67/67/67
f 65/65/65 67/67/67 66/66/66
f 68/68/68 69/69/68 51/70/68
f 51/70/68 69/69/68 47/71/68
f 68/68/68 51/70/68 56/72/68
f 47/71/68 69/69/68 70/73/68
f 68/68/68 56/72/68 71/74/68
f 47/71/68 70/73/68 45/75/68
f 71/74/68 56/72/68 72/76/68
f 45/75/68 70/73/68 73/77/68
f 71/74/68 72/76/68 74/78/68
f 45/75/68 73/77/68 46/79/68
f 74/78/68 72/76/68 75/80/68
f 46/79/68 73/77/68 76/81/68
f 74/78/68 75/80/68 77/82/68
f 46/79/68 76/81/68 49/83/68
f 77/82/68 75/80/68 78/84/68
f 77/82/68 78/84/68 79/85/68
f 79/85/68 78/84/68 80/86/68
f 49/83/68 76/81/68 81/87/68
f 49/83/68 81/87/68 53/88/68
f 53/88/68 81/87/68 82/89/68
f 53/88/68 82/89/68 11/90/68
f 11/90/68 82/89/68 83/91/68
f 11/90/68 83/91/68 10/92/68
f 10/92/68 83/91/68 84/93/68
f 10/92/68 84/93/68 12/94/68
f 12/94/68 84/93/68 85/95/68
f 12/94/68 85/95/68 14/96/68
f 14/96/68 85/95/68 86/97/68
f 14/96/68 86/97/68 87/98/68
f 87/98/68 86/97/68 88/99/68
f 87/98/68 88/99/68 80/100/68
f 80/100/68 88/99/68 79/101/68
f 84/102/69 83/103/70 89/104/71
f 84/102/69 89/104/71 90/105/72
f 84/102/69 90/105/72 85/106/73
f 90/105/72 89/104/71 91/107/74
f 85/106/73 90/105/72 86/108/75
f 86/108/75 90/105/72 92/109/76
f 86/108/75 92/109/76 88/110/77
f 88/110/77 92/109/76 79/111/78
f 79/111/78 92/109/76 93/112/79
f 90/105/72 91/107/74 94/113/80
f 90/105/72 94/113/80 92/109/76
f 94/113/80 91/107/74 95/114/81
f 93/112/79 92/109/76 96/115/82
f 96/115/82 92/109/76 94/113/80
f 93/112/79 96/115/82 97/116/83
f 94/113/80 95/114/81 98/117/84
f 94/113/80 98/117/84 96/115/82
f 98/117/84 95/114/81 99/118/85
f 97/116/83 96/115/82 100/119/86
f 100/119/86 96/115/82 98/117/84
f 97/116/83 100/119/86 101/120/87
f 98/117/84 99/118/85 102/121/88
f 98/117/84 102/121/88 100/119/86
f 102/121/88 99/118/85 103/122/68
f 101/120/87 100/119/86 104/123/89
f 104/123/89 100/119/86 102/121/88
f 104/123/89 102/121/88 103/122/68
f 101/120/87 104/123/89 105/124/90
f 105/124/90 104/123/89 103/122/68
f 106/125/91 107/126/92 108/127/93
f 108/127/93 107/126/92 109/128/94
f 110/129/95 111/130/96 107/126/92
f 107/126/92 111/130/96 109/128/94
f 111/130/96 110/129/95 112/131/97
f 109/128/94 111/130/96 113/132/98
f 111/130/96 112/131/97 114/133/99
f 111/130/96 114/133/99 113/132/98
f 114/133/99 112/131/97 115/134/100
f 114/133/99 115/134/100 116/135/101
f 114/133/99 116/135/101 117/136/102
f 114/133/99 117/136/102 113/132/98
f 109/128/94 113/132/98 118/137/103
f 118/137/103 113/132/98 117/136/102
f 118/137/103 117/136/102 119/138/104
f 119/138/104 117/136/102 120/139/105
f 118/137/103 119/138/104 121/140/106
f 118/137/103 121/140/106 122/141/107
f 119/138/104 120/139/105 123/142/108
f 121/140/106 119/138/104 124/143/109
f 124/143/109 119/138/104 123/142/108
f 122/141/107 121/140/106 125/144/110
f 122/141/107 125/144/110 126/145/111
f 125/144/110 121/140/106 127/146/112
f 127/146/112 121/140/106 124/143/109
f 127/146/112 124/143/109 128/147/113
f 128/147/113 124/143/109 129/148/114
f 129/148/114 124/143/109 130/149/115
f 130/149/115 124/143/109 123/142/108
f 130/149/115 123/142/108 131/150/116
f 125/144/110 127/146/112 132/151/117
f 131/150/116 123/142/108 133/152/118
f 125/144/110 132/151/117 134/153/119
f 125/144/110 134/153/119 126/145/111
f 134/153/119 132/151/117 135/154/120
f 126/145/111 134/153/119 136/155/121
f 133/152/118 123/142/108 137/156/122
f 134/153/119 135/154/120 138/157/123
f 134/153/119 138/157/123 136/155/121
f 138/157/123 135/154/120 139/158/124
f 136/155/121 138/157/123 140/159/125
f 137/156/122 123/142/108 120/139/105
f 133/152/118 137/156/122 141/160/126
f 137/156/122 120/139/105 142/161/127
f 141/160/126 137/156/122 143/162/128
f 137/156/122 142/161/127 144/163/129
f 137/156/122 144/163/129 143/162/128
f 143/162/128 144/163/129 145/164/130
f 144/163/129 142/161/127 146/165/131
f 145/164/130 144/163/129 147/166/132
f 144/163/129 146/165/131 148/167/133
f 144/163/129 148/167/133 147/166/132
f 147/166/132 148/167/133 149/168/134
f 148/167/133 146/165/131 150/169/135
f 149/168/134 148/167/133 151/170/136
f 148/167/133 150/169/135 152/171/137
f 148/167/133 152/171/137 151/170/136
f 151/170/136 152/171/137 153/172/138
f 152/171/137 150/169/135 154/173/139
f 153/172/138 152/171/137 155/174/140
f 152/171/137 154/173/139 156/175/141
f 152/171/137 156/175/141 155/174/140
f 155/174/140 156/175/141 157/176/142
f 156/175/141 154/173/139 158/177/143
f 157/176/142 156/175/141 159/178/144
f 156/175/141 158/177/143 160/179/145
f 156/175/141 160/179/145 159/178/144
f 159/178/144 160/179/145 161/180/146
f 160/179/145 158/177/143 162/181/147
f 161/180/146 160/179/145 163/182/148
f 160/179/145 162/181/147 164/183/149
f 160/179/145 164/183/149 163/182/148
f 163/182/148 164/183/149 165/184/150
f 164/183/149 162/181/147 166/185/151
f 165/184/150 164/183/149 167/186/152
f 167/186/152 164/183/149 168/187/153
f 168/187/153 164/183/149 166/185/151
f 167/186/152 168/187/153 169/188/154
f 169/188/154 168/187/153 170/189/155
f 168/187/153 166/185/151 171/190/156
f 171/190/156 166/185/151 172/191/157
f 171/190/156 172/191/157 173/192/158
f 170/189/155 168/187/153 174/193/159
f 174/193/159 168/187/153 171/190/156
f 170/189/155 174/193/159 175/194/160
f 171/190/156 173/192/158 176/195/161
f 171/190/156 176/195/161 174/193/159
f 176/195/161 173/192/158 177/196/162
f 174/193/159 176/195/161 178/197/163
f 176/195/161 177/196/162 179/198/164
f 176/195/161 179/198/164 178/197/163
f 179/198/164 177/196/162 140/159/125
f 178/197/163 179/198/164 139/158/124
f 179/198/164 140/159/125 138/157/123
f 179/198/164 138/157/123 139/158/124
f 112/131/97 110/129/95 180/199/165
f 180/199/165 110/129/95 181/200/166
f 127/146/112 128/147/113 182/201/167
f 127/146/112 182/201/167 183/202/168
f 127/146/112 183/202/168 132/151/117
f 132/151/117 183/202/168 184/203/169
f 132/151/117 184/203/169 185/204/170
f 132/151/117 185/204/170 135/154/120
f 135/154/120 185/204/170 186/205/171
f 135/154/120 186/205/171 187/206/172
f 135/154/120 187/206/172 139/158/124
f 139/158/124 187/206/172 188/207/173
f 139/158/124 188/207/173 189/208/174
f 139/158/124 189/208/174 178/197/163
f 178/197/163 189/208/174 190/209/175
f 178/197/163 190/209/175 191/210/176
f 178/197/163 191/210/176 174/193/159
f 174/193/159 191/210/176 175/194/160
f 192/211/177 193/212/178 194/213/179
f 193/212/178 192/211/177 195/214/180
f 193/212/178 195/214/180 196/215/181
f 192/211/177 194/213/179 115/134/100
f 115/134/100 194/213/179 116/135/101
f 195/214/180 192/211/177 180/199/165
f 196/215/181 195/214/180 197/216/182
f 197/216/182 195/214/180 180/199/165
f 196/215/181 197/216/182 198/217/183
f 180/199/165 192/211/177 112/131/97
f 112/131/97 192/211/177 115/134/100
f 197/216/182 180/199/165 181/200/166
f 198/217/183 197/216/182 199/218/184
f 199/218/184 197/216/182 181/200/166
f 198/217/183 199/218/184 200/219/185
f 200/219/185 199/218/184 201/220/186
f 201/220/186 199/218/184 181/200/166
f 200/219/185 201/220/186 202/221/187
f 202/221/187 201/220/186 203/222/188
f 202/221/187 203/222/188 172/191/157
f 201/220/186 181/200/166 204/223/189
f 201/220/186 204/223/189 203/222/188
f 203/222/188 204/223/189 205/224/190
f 204/223/189 181/200/166 110/129/95
f 202/221/187 172/191/157 166/185/151
f 205/224/190 204/223/189 206/225/191
f 206/225/191 204/223/189 110/129/95
f 205/224/190 206/225/191 207/226/192
f 207/226/192 206/225/191 208/227/193
f 208/227/193 206/225/191 209/228/194
f 209/228/194 206/225/191 110/129/95
f 208/227/193 209/228/194 210/229/195
f 210/229/195 209/228/194 106/125/91
f 106/125/91 209/228/194 107/126/92
f 107/126/92 209/228/194 110/129/95
f 89/104/71 83/103/70 82/230/196
f 89/104/71 82/230/196 211/231/197
f 211/231/197 82/230/196 81/232/198
f 211/231/197 81/232/198 76/233/199
f 89/104/71 211/231/197 212/234/200
f 89/104/71 212/234/200 91/107/74
f 211/231/197 76/233/199 213/235/201
f 213/235/201 76/233/199 73/236/202
f 213/235/201 73/236/202 70/237/203
f 211/231/197 213/235/201 214/238/204
f 211/231/197 214/238/204 212/234/200
f 213/235/201 70/237/203 215/239/205
f 215/239/205 70/237/203 69/240/206
f 215/239/205 69/240/206 68/241/207
f 215/239/205 68/241/207 216/242/208
f 216/242/208 68/241/207 71/243/209
f 216/242/208 71/243/209 74/244/210
f 215/239/205 216/242/208 217/245/211
f 213/235/201 215/239/205 218/246/212
f 218/246/212 215/239/205 217/245/211
f 213/235/201 218/246/212 214/238/204
f 218/246/212 217/245/211 219/247/213
f 218/246/212 219/247/213 220/248/214
f 218/246/212 220/248/214 214/238/204
f 220/248/214 219/247/213 221/249/215
f 214/238/204 220/248/214 222/250/216
f 214/238/204 222/250/216 212/234/200
f 220/248/214 221/249/215 223/251/217
f 220/248/214 223/251/217 222/250/216
f 223/251/217 221/249/215 103/122/68
f 103/122/68 221/249/215 105/252/218
f 222/250/216 223/251/217 224/253/219
f 224/253/219 223/251/217 103/122/68
f 212/234/200 222/250/216 225/254/220
f 225/254/220 222/250/216 224/253/219
f 212/234/200 225/254/220 91/107/74
f 91/107/74 225/254/220 95/114/81
f 225/254/220 224/253/219 226/255/221
f 226/255/221 224/253/219 103/122/68
f 225/254/220 226/255/221 95/114/81
f 226/255/221 103/122/68 99/118/85
f 226/255/221 99/118/85 95/114/81
f 120/139/105 117/136/102 116/135/101
f 120/139/105 116/135/101 142/161/127
f 142/161/127 116/135/101 194/213/179
f 142/161/127 194/213/179 146/165/131
f 146/165/131 194/213/179 193/212/178
f 146/165/131 193/212/178 150/169/135
f 150/169/135 193/212/178 196/215/181
f 150/169/135 196/215/181 154/173/139
f 154/173/139 196/215/181 198/217/183
f 154/173/139 198/217/183 158/177/143
f 158/177/143 198/217/183 200/219/185
f 158/177/143 200/219/185 162/181/147
f 162/181/147 200/219/185 202/221/187
f 162/181/147 202/221/187 166/185/151
f 173/192/158 205/224/190 207/226/192
f 205/224/190 173/192/158 172/191/157
f 205/224/190 172/191/157 203/222/188
f 173/192/158 207/226/192 177/196/162
f 177/196/162 207/226/192 208/227/193
f 177/196/162 208/227/193 140/159/125
f 140/159/125 208/227/193 210/229/195
f 140/159/125 210/229/195 136/155/121
f 136/155/121 210/229/195 106/125/91
f 136/155/121 106/125/91 126/145/111
f 126/145/111 106/125/91 108/127/93
f 126/145/111 108/127/93 122/141/107
f 122/141/107 108/127/93 109/128/94
f 122/141/107 109/128/94 118/137/103
f 87/256/222 28/28/28 14/14/14
f 227/257/223 26/26/26 28/28/28
f 26/26/26 227/257/223 27/27/27
f 28/28/28 87/256/222 228/258/224
f 28/28/28 228/258/224 227/257/223
f 228/258/224 87/256/222 80/259/225
f 228/258/224 80/259/225 229/260/226
f 228/258/224 229/260/226 230/261/227
f 230/261/227 229/260/226 231/262/228
f 227/257/223 228/258/224 232/263/229
f 228/258/224 230/261/227 233/264/230
f 228/258/224 233/264/230 232/263/229
f 230/261/227 231/262/228 234/265/231
f 234/265/231 231/262/228 235/266/232
f 234/265/231 235/266/232 236/267/233
f 230/261/227 234/265/231 237/268/234
f 230/261/227 237/268/234 233/264/230
f 234/265/231 236/267/233 238/269/235
f 234/265/231 238/269/235 237/268/234
f 238/269/235 236/267/233 239/270/236
f 233/264/230 237/268/234 240/271/237
f 240/271/237 237/268/234 238/269/235
f 233/264/230 240/271/237 232/263/229
f 241/272/238 227/257/223 232/263/229
f 241/272/238 232/263/229 240/271/237
f 227/257/223 241/272/238 27/27/27
f 241/272/238 240/271/237 242/273/239
f 241/272/238 242/273/239 27/27/27
f 242/273/239 240/271/237 238/269/235
f 27/27/27 242/273/239 23/23/23
f 242/273/239 238/269/235 243/274/240
f 243/274/240 238/269/235 239/270/236
f 23/23/23 242/273/239 244/275/241
f 244/275/241 242/273/239 243/274/240
f 23/23/23 244/275/241 24/24/24
f 243/274/240 239/270/236 245/276/242
f 245/276/242 239/270/236 246/277/243
f 245/276/242 246/277/243 190/278/244
f 245/276/242 190/278/244 189/279/225
f 245/276/242 189/279/225 188/280/222
f 243/274/240 245/276/242 247/281/245
f 247/281/245 245/276/242 188/280/222
f 243/274/240 247/281/245 248/282/246
f 248/282/246 247/281/245 188/280/222
f 243/274/240 248/282/246 244/275/241
f 248/282/246 188/280/222 187/283/247
f 248/282/246 187/283/247 186/284/14
f 244/275/241 248/282/246 249/285/248
f 249/285/248 248/282/246 186/284/14
f 244/275/241 249/285/248 250/286/249
f 250/286/249 249/285/248 186/284/14
f 244/275/241 250/286/249 24/24/24
f 250/286/249 186/284/14 185/287/250
f 250/286/249 185/287/250 184/288/12
f 24/24/24 250/286/249 251/289/251
f 251/289/251 250/286/249 184/288/12
f 24/24/24 251/289/251 252/290/252
f 252/290/252 251/289/251 184/288/12
f 24/24/24 252/290/252 21/21/21
f 252/290/252 184/288/12 183/291/253
f 21/21/21 252/290/252 253/292/254
f 252/290/252 183/291/253 182/293/10
f 252/290/252 182/293/10 253/292/254
f 253/292/254 182/293/10 254/294/255
f 254/294/255 182/293/10 128/295/256
f 254/294/255 128/295/256 129/296/257
f 254/294/255 129/296/257 255/297/258
f 255/297/258 129/296/257 256/298/259
f 256/298/259 129/296/257 130/299/260
f 257/300/261 170/301/262 175/302/263
f 257/300/261 175/302/263 258/303/264
f 258/303/264 175/302/263 259/304/265
f 259/304/265 175/302/263 191/305/266
f 259/304/265 191/305/266 190/306/267
f 259/304/265 190/306/267 246/307/268
f 259/304/265 246/307/268 239/308/269
f 259/304/265 239/308/269 260/309/270
f 260/309/270 239/308/269 236/310/271
f 260/309/270 236/310/271 261/311/272
f 260/309/270 261/311/272 262/312/273
f 262/312/273 261/311/272 263/313/274
f 261/311/272 236/310/271 264/314/275
f 264/314/275 236/310/271 235/315/276
f 261/311/272 264/314/275 265/316/277
f 261/311/272 265/316/277 266/317/278
f 266/317/278 265/316/277 267/318/279
f 267/318/279 265/316/277 268/319/280
f 268/319/280 265/316/277 264/314/275
f 267/318/279 268/319/280 269/320/281
f 264/314/275 235/315/276 270/321/282
f 264/314/275 270/321/282 268/319/280
f 270/321/282 235/315/276 231/322/283
f 270/321/282 231/322/283 229/323/284
f 268/319/280 270/321/282 271/324/285
f 268/319/280 271/324/285 269/320/281
f 271/324/285 270/321/282 229/323/284
f 269/320/281 271/324/285 75/325/286
f 75/325/286 271/324/285 78/326/263
f 78/326/263 271/324/285 229/323/284
f 78/326/263 229/323/284 80/327/266
f 3/3/3 67/67/67 1/1/1
f 272/328/287 66/66/66 67/67/67
f 272/328/287 67/67/67 3/3/3
f 66/66/66 272/328/287 63/63/63
f 272/328/287 3/3/3 8/8/8
f 8/8/8 3/3/3 4/4/4
f 272/328/287 8/8/8 22/22/22
f 63/63/63 272/328/287 273/329/288
f 273/329/288 272/328/287 22/22/22
f 63/63/63 273/329/288 274/330/289
f 63/63/63 274/330/289 33/33/33
f 273/329/288 22/22/22 256/298/259
f 256/298/259 22/22/22 255/297/258
f 255/297/258 22/22/22 254/294/255
f 254/294/255 22/22/22 21/21/21
f 254/294/255 21/21/21 253/292/254
f 273/329/288 256/298/259 275/331/290
f 275/331/290 256/298/259 131/332/53
f 131/332/53 256/298/259 130/299/260
f 273/329/288 275/331/290 276/333/291
f 276/333/291 275/331/290 131/332/53
f 273/329/288 276/333/291 274/330/289
f 276/333/291 131/332/53 133/334/292
f 276/333/291 133/334/292 141/335/293
f 274/330/289 276/333/291 277/336/294
f 277/336/294 276/333/291 141/335/293
f 277/336/294 141/335/293 278/337/295
f 277/336/294 278/337/295 274/330/289
f 278/337/295 141/335/293 143/338/296
f 278/337/295 143/338/296 145/339/46
f 274/330/289 278/337/295 279/340/297
f 274/330/289 279/340/297 33/33/33
f 278/337/295 145/339/46 280/341/298
f 278/337/295 280/341/298 279/340/297
f 33/33/33 279/340/297 31/31/31
f 280/341/298 145/339/46 281/342/299
f 280/341/298 281/342/299 279/340/297
f 281/342/299 145/339/46 147/343/300
f 31/31/31 279/340/297 282/344/301
f 282/344/301 279/340/297 281/342/299
f 281/342/299 147/343/300 149/345/45
f 31/31/31 282/344/301 38/38/38
f 281/342/299 149/345/45 283/346/302
f 281/342/299 283/346/302 282/344/301
f 283/346/302 149/345/45 284/347/303
f 283/346/302 284/347/303 282/344/301
f 284/347/303 149/345/45 151/348/304
f 284/347/303 151/348/304 153/349/47
f 38/38/38 282/344/301 285/350/305
f 285/350/305 282/344/301 284/347/303
f 284/347/303 153/349/47 286/351/306
f 284/347/303 286/351/306 285/350/305
f 286/351/306 153/349/47 287/352/307
f 286/351/306 287/352/307 285/350/305
f 287/352/307 153/349/47 155/353/308
f 287/352/307 155/353/308 157/354/51
f 38/38/38 285/350/305 44/44/44
f 285/350/305 287/352/307 288/355/309
f 285/350/305 288/355/309 44/44/44
f 287/352/307 157/354/51 289/356/310
f 287/352/307 289/356/310 288/355/309
f 289/356/310 157/354/51 290/357/311
f 289/356/310 290/357/311 288/355/309
f 290/357/311 157/354/51 159/358/312
f 290/357/311 159/358/312 161/359/56
f 290/357/311 161/359/56 291/360/313
f 288/355/309 290/357/311 292/361/314
f 292/361/314 290/357/311 291/360/313
f 291/360/313 161/359/56 293/362/315
f 291/360/313 293/362/315 292/361/314
f 293/362/315 161/359/56 163/363/316
f 293/362/315 163/363/316 165/364/317
f 288/355/309 292/361/314 294/365/318
f 288/355/309 294/365/318 44/44/44
f 292/361/314 293/362/315 295/366/319
f 293/362/315 165/364/317 296/367/320
f 293/362/315 296/367/320 295/366/319
f 296/367/320 165/364/317 297/368/321
f 296/367/320 297/368/321 295/366/319
f 297/368/321 165/364/317 167/369/322
f 297/368/321 167/369/322 169/370/286
f 297/368/321 169/370/286 298/371/323
f 292/361/314 295/366/319 299/372/324
f 292/361/314 299/372/324 294/365/318
f 295/366/319 297/368/321 262/312/273
f 262/312/273 297/368/321 298/371/323
f 298/371/323 169/370/286 257/300/261
f 298/371/323 257/300/261 262/312/273
f 257/300/261 169/370/286 170/301/262
f 262/312/273 257/300/261 260/309/270
f 260/309/270 257/300/261 258/303/264
f 260/309/270 258/303/264 259/304/265
f 295/366/319 262/312/273 263/313/274
f 295/366/319 263/313/274 299/372/324
f 261/311/272 266/317/278 263/313/274
f 263/313/274 266/317/278 300/373/325
f 300/373/325 266/317/278 301/374/326
f 301/374/326 266/317/278 267/318/279
f 263/313/274 300/373/325 302/375/327
f 263/313/274 302/375/327 299/372/324
f 301/374/326 267/318/279 269/320/281
f 300/373/325 301/374/326 303/376/328
f 300/373/325 303/376/328 302/375/327
f 303/376/328 301/374/326 269/320/281
f 75/325/286 72/377/317 269/320/281
f 269/320/281 72/377/317 304/378/329
f 269/320/281 304/378/329 303/376/328
f 304/378/329 72/377/317 56/56/56
f 302/375/327 303/376/328 305/379/330
f 305/379/330 303/376/328 304/378/329
f 304/378/329 56/56/56 55/55/55
f 302/375/327 305/379/330 306/380/331
f 302/375/327 306/380/331 299/372/324
f 305/379/330 304/378/329 307/381/332
f 307/381/332 304/378/329 55/55/55
f 305/379/330 307/381/332 306/380/331
f 299/372/324 306/380/331 308/382/333
f 308/382/333 306/380/331 307/381/332
f 299/372/324 308/382/333 294/365/318
f 307/381/332 55/55/55 309/383/334
f 307/381/332 309/383/334 308/382/333
f 309/383/334 55/55/55 310/384/335
f 308/382/333 309/383/334 311/385/336
f 308/382/333 311/385/336 294/365/318
f 311/385/336 309/383/334 310/384/335
f 310/384/335 55/55/55 50/50/50
f 294/365/318 311/385/336 312/386/337
f 312/386/337 311/385/336 310/384/335
f 294/365/318 312/386/337 44/44/44
f 310/384/335 50/50/50 313/387/338
f 310/384/335 313/387/338 312/386/337
f 313/387/338 50/50/50 43/43/43
f 44/44/44 312/386/337 314/388/339
f 314/388/339 312/386/337 313/387/338
f 314/388/339 313/387/338 43/43/43
f 44/44/44 314/388/339 42/42/42
f 42/42/42 314/388/339 43/43/43
f 105/252/218 221/249/215 219/247/213
f 105/252/218 219/247/213 101/389/340
f 101/389/340 219/247/213 217/245/211
f 101/389/340 217/245/211 97/390/341
f 97/390/341 217/245/211 216/242/208
f 97/390/341 216/242/208 93/391/342
f 93/391/342 216/242/208 74/244/210
f 93/391/342 74/244/210 77/392/343
f 93/391/342 77/392/343 79/393/344
