# CS2 body mesh, tools/cs2_glb_to_obj.py
v 0.03797 -0.02161 0.00817
v 0.03797 -0.02161 0.02185
v 0.0369 -0.02179 0.02185
v 0.0369 -0.02179 0.00817
v 0.03579 -0.02177 0.02185
v 0.03579 -0.02177 0.00817
v 0.03479 -0.02156 0.02185
v 0.03479 -0.02156 0.00817
v 0.03485 -0.02104 0.00817
v 0.03485 -0.02104 0.02185
v 0.03376 -0.00865 0.02409
v 0.03373 -0.00864 0.02884
v 0.03397 -0.00818 0.02884
v 0.03393 -0.00816 0.02409
v 0.03468 -0.00919 0.02409
v 0.03466 -0.00918 0.02884
v 0.03563 -0.00961 0.02409
v 0.03562 -0.00961 0.02884
v 0.03668 -0.00981 0.02409
v 0.03667 -0.00981 0.02888
v 0.03779 -0.00979 0.02409
v 0.03779 -0.00979 0.02892
v 0.03887 -0.0096 0.02409
v 0.03887 -0.0096 0.02904
v 0.03397 -0.00818 0.0016
v 0.03373 -0.00864 0.0016
v 0.03373 -0.00864 0.00621
v 0.03397 -0.00818 0.00648
v 0.03466 -0.00918 0.0016
v 0.03468 -0.00918 0.00622
v 0.03562 -0.00961 0.0016
v 0.03567 -0.00961 0.00623
v 0.03667 -0.00981 0.0016
v 0.0367 -0.00982 0.00633
v 0.03779 -0.00979 0.0016
v 0.03779 -0.00979 0.00643
v 0.03886 -0.00958 0.0016
v 0.03886 -0.00958 0.00655
v 0.03497 -0.01136 0.02197
v 0.03581 -0.00924 0.02409
v 0.03373 -0.00902 0.02409
v 0.03592 -0.0112 0.02196
v 0.03497 -0.01137 0.00804
v 0.03369 -0.00902 0.00621
v 0.03585 -0.00923 0.00623
v 0.03597 -0.0112 0.00805
v 0.03403 -0.01177 0.02199
v 0.034 -0.01178 0.00803
v 0.03577 -0.0091 0.02884
v 0.03485 -0.0087 0.02884
v 0.03671 -0.0093 0.0289
v 0.03773 -0.00926 0.02895
v 0.03871 -0.00909 0.02907
v 0.0396 -0.00866 0.02921
v 0.03986 -0.00913 0.02918
v 0.04078 -0.00851 0.02932
v 0.04043 -0.00811 0.02934
v 0.04111 -0.00739 0.02945
v 0.04152 -0.00772 0.02944
v 0.04214 -0.0068 0.02949
v 0.04166 -0.00656 0.02949
v 0.04252 -0.00579 0.02949
v 0.04201 -0.00564 0.02949
v 0.0422 -0.00466 0.02949
v 0.04273 -0.0047 0.02949
v 0.04217 -0.00368 0.02945
v 0.0427 -0.00362 0.02944
v 0.04248 -0.00254 0.02932
v 0.04198 -0.0027 0.02934
v 0.04157 -0.0018 0.02921
v 0.04204 -0.00154 0.02918
v 0.04142 -0.00063 0.02904
v 0.04102 -0.00097 0.02907
v 0.0403 -0.0003 0.02895
v 0.04063 0.00012 0.02892
v 0.03971 0.00073 0.02885
v 0.03947 0.00026 0.02887
v 0.03855 0.0006 0.02884
v 0.03869 0.00111 0.02884
v 0.03756 0.00131 0.02884
v 0.03747 0.00079 0.02884
v 0.03658 0.00129 0.02884
v 0.03653 0.00077 0.02884
v 0.03389 -0.01127 0.02172
v 0.03371 -0.00849 0.02409
v 0.03485 -0.0087 0.0016
v 0.03577 -0.0091 0.0016
v 0.03671 -0.0093 0.0016
v 0.03773 -0.00926 0.0016
v 0.03869 -0.00907 0.0016
v 0.03986 -0.00913 0.0016
v 0.0396 -0.00866 0.0016
v 0.04042 -0.00812 0.0016
v 0.04077 -0.00852 0.0016
v 0.04152 -0.00772 0.0016
v 0.04111 -0.00739 0.0016
v 0.04166 -0.00657 0.0016
v 0.04213 -0.00682 0.0016
v 0.04252 -0.00579 0.0016
v 0.04201 -0.00564 0.0016
v 0.0422 -0.00467 0.0016
v 0.04273 -0.00472 0.0016
v 0.0427 -0.00362 0.0016
v 0.04217 -0.00368 0.0016
v 0.04198 -0.00271 0.0016
v 0.04249 -0.00255 0.0016
v 0.04204 -0.00154 0.0016
v 0.04157 -0.0018 0.0016
v 0.04104 -0.00096 0.0016
v 0.04144 -0.00062 0.0016
v 0.04063 0.00012 0.0016
v 0.0403 -0.0003 0.0016
v 0.03947 0.00025 0.0016
v 0.03971 0.00073 0.0016
v 0.03869 0.00111 0.0016
v 0.03855 0.0006 0.0016
v 0.03756 0.00131 0.0016
v 0.03747 0.00079 0.0016
v 0.03658 0.00129 0.0016
v 0.03653 0.00077 0.0016
v 0.03375 -0.0085 0.00648
v 0.03392 -0.01126 0.0083
v 0.03575 -0.00872 0.02409
v 0.03899 -0.02118 0.02185
v 0.03875 -0.02071 0.02185
v 0.03783 -0.0211 0.02185
v 0.03958 -0.02019 0.02185
v 0.03991 -0.0206 0.02185
v 0.04069 -0.01982 0.02185
v 0.03685 -0.02126 0.02185
v 0.04028 -0.01948 0.02185
v 0.04085 -0.01867 0.02185
v 0.0358 -0.02125 0.02185
v 0.04131 -0.01893 0.02185
v 0.04173 -0.01791 0.02185
v 0.04123 -0.01775 0.02185
v 0.04147 -0.01679 0.02185
v 0.042 -0.01685 0.02185
v 0.04197 -0.01575 0.02185
v 0.04144 -0.01579 0.02185
v 0.04127 -0.01481 0.02185
v 0.04178 -0.01466 0.02185
v 0.04136 -0.01366 0.02185
v 0.04089 -0.0139 0.02185
v 0.04036 -0.01306 0.02185
v 0.04077 -0.01273 0.02185
v 0.04 -0.01196 0.02185
v 0.03966 -0.01237 0.02185
v 0.0391 -0.01132 0.02186
v 0.03884 -0.01179 0.02184
v 0.03793 -0.01142 0.02185
v 0.03809 -0.01091 0.02185
v 0.03703 -0.01068 0.0218
v 0.03692 -0.01119 0.02191
v 0.03598 -0.01068 0.02174
v 0.03899 -0.02118 0.00817
v 0.03783 -0.0211 0.00817
v 0.03875 -0.02071 0.00817
v 0.03685 -0.02126 0.00817
v 0.03958 -0.02019 0.00817
v 0.03991 -0.0206 0.00817
v 0.0358 -0.02125 0.00817
v 0.04069 -0.01982 0.00817
v 0.04028 -0.01948 0.00817
v 0.04085 -0.01867 0.00817
v 0.04131 -0.01893 0.00817
v 0.04173 -0.01791 0.00817
v 0.04123 -0.01775 0.00817
v 0.04147 -0.01679 0.00817
v 0.042 -0.01685 0.00817
v 0.04197 -0.01575 0.00817
v 0.04144 -0.01579 0.00817
v 0.04127 -0.01481 0.00817
v 0.04178 -0.01466 0.00817
v 0.04136 -0.01366 0.00817
v 0.04089 -0.0139 0.00817
v 0.04036 -0.01306 0.00817
v 0.04077 -0.01273 0.00817
v 0.04 -0.01196 0.00817
v 0.03966 -0.01237 0.00817
v 0.0391 -0.01132 0.00816
v 0.03884 -0.01179 0.00818
v 0.03793 -0.01142 0.00817
v 0.03809 -0.01091 0.00817
v 0.037 -0.01068 0.00822
v 0.03694 -0.01119 0.00811
v 0.03594 -0.01068 0.00828
v 0.03986 -0.00913 0.00668
v 0.04077 -0.00852 0.00682
v 0.04152 -0.00772 0.00694
v 0.04213 -0.00682 0.00699
v 0.04252 -0.00579 0.00699
v 0.04273 -0.00472 0.00699
v 0.0427 -0.00362 0.00694
v 0.04249 -0.00255 0.00682
v 0.04204 -0.00154 0.00668
v 0.04144 -0.00062 0.00654
v 0.04063 0.00012 0.00643
v 0.03971 0.00073 0.00636
v 0.03869 0.00111 0.00634
v 0.03986 -0.00913 0.02409
v 0.04078 -0.00851 0.02409
v 0.04152 -0.00772 0.02409
v 0.04214 -0.0068 0.02409
v 0.04252 -0.00579 0.02409
v 0.04273 -0.0047 0.02409
v 0.0427 -0.00362 0.02409
v 0.04248 -0.00254 0.02409
v 0.04204 -0.00154 0.02409
v 0.04142 -0.00063 0.02409
v 0.04063 0.00012 0.02409
v 0.03971 0.00073 0.02409
v 0.03869 0.00111 0.02409
v 0.03571 -0.00873 0.00645
v 0.03773 -0.00926 0.00646
v 0.03669 -0.00929 0.00646
v 0.03571 -0.0091 0.00645
v 0.03869 -0.00907 0.00656
v 0.03482 -0.00869 0.00647
v 0.0396 -0.00866 0.00671
v 0.04042 -0.00812 0.00685
v 0.04111 -0.00739 0.00695
v 0.04166 -0.00657 0.00699
v 0.04201 -0.00564 0.00699
v 0.0422 -0.00467 0.00699
v 0.04217 -0.00368 0.00695
v 0.04198 -0.00271 0.00685
v 0.04157 -0.0018 0.00671
v 0.04104 -0.00096 0.00657
v 0.0403 -0.0003 0.00646
v 0.03947 0.00025 0.00637
v 0.03855 0.0006 0.00634
v 0.03756 0.00131 0.00634
v 0.03747 0.00079 0.00634
v 0.03658 0.00129 0.00634
v 0.03653 0.00077 0.00634
v 0.03576 -0.0091 0.02409
v 0.03671 -0.00929 0.02409
v 0.03773 -0.00926 0.02409
v 0.03483 -0.00869 0.02409
v 0.03871 -0.00909 0.02409
v 0.0396 -0.00866 0.02409
v 0.04043 -0.00811 0.02409
v 0.04111 -0.00739 0.02409
v 0.04166 -0.00656 0.02409
v 0.04201 -0.00564 0.02409
v 0.0422 -0.00466 0.02409
v 0.04217 -0.00368 0.02409
v 0.04198 -0.0027 0.02409
v 0.04157 -0.0018 0.02409
v 0.04102 -0.00097 0.02409
v 0.0403 -0.0003 0.02409
v 0.03947 0.00026 0.02409
v 0.03855 0.0006 0.02409
v 0.03756 0.00131 0.02409
v 0.03747 0.00079 0.02409
v 0.03658 0.00129 0.02409
v 0.03653 0.00077 0.02409
v 0.03492 -0.01085 0.00829
v 0.03492 -0.01086 0.02173
vt 0.471191 0.131592
vt 0.456055 0.131592
vt 0.456055 0.132812
vt 0.471191 0.132812
vt 0.456055 0.134033
vt 0.471191 0.134033
vt 0.456055 0.135254
vt 0.471191 0.135132
vt 0.471191 0.135742
vt 0.455811 0.135742
vt 0.427734 0.032562
vt 0.42749 0.027267
vt 0.427002 0.027267
vt 0.427002 0.032562
vt 0.428711 0.032562
vt 0.428711 0.027267
vt 0.429932 0.032562
vt 0.429932 0.027267
vt 0.431152 0.032562
vt 0.431152 0.027222
vt 0.432373 0.032562
vt 0.432373 0.027176
vt 0.433594 0.032562
vt 0.433594 0.027039
vt 0.666992 0.223145
vt 0.667969 0.223145
vt 0.667969 0.218018
vt 0.666992 0.217773
vt 0.668945 0.223145
vt 0.668945 0.218018
vt 0.67041 0.223145
vt 0.67041 0.218018
vt 0.671387 0.223145
vt 0.671387 0.217896
vt 0.672852 0.223145
vt 0.672852 0.217773
vt 0.673828 0.223145
vt 0.673828 0.217651
vt 0.776855 0.292725
vt 0.77832 0.289062
vt 0.775879 0.288574
vt 0.77832 0.292725
vt 0.091187 0.084717
vt 0.090027 0.088623
vt 0.092285 0.088257
vt 0.092285 0.084839
vt 0.775879 0.292969
vt 0.090027 0.084412
vt 0.679199 0.081604
vt 0.678223 0.081604
vt 0.678223 0.082214
vt 0.677246 0.082214
vt 0.677246 0.081604
vt 0.679688 0.082214
vt 0.680664 0.082214
vt 0.680664 0.081604
vt 0.681641 0.081604
vt 0.681641 0.082214
vt 0.683105 0.082214
vt 0.683105 0.081604
vt 0.684082 0.081604
vt 0.684082 0.082214
vt 0.685547 0.082214
vt 0.685547 0.081604
vt 0.686523 0.081604
vt 0.686523 0.082214
vt 0.6875 0.082214
vt 0.6875 0.081604
vt 0.688965 0.082214
vt 0.688965 0.081604
vt 0.689941 0.081604
vt 0.689941 0.082214
vt 0.691406 0.081604
vt 0.691406 0.082214
vt 0.692383 0.082214
vt 0.692383 0.081604
vt 0.693359 0.081604
vt 0.693359 0.082214
vt 0.694824 0.082214
vt 0.694824 0.081604
vt 0.695801 0.081604
vt 0.695801 0.082214
vt 0.697266 0.082214
vt 0.697266 0.081604
vt 0.698242 0.081604
vt 0.698242 0.082214
vt 0.699707 0.082214
vt 0.699707 0.081604
vt 0.700684 0.082214
vt 0.700684 0.081604
vt 0.966309 0.384277
vt 0.966309 0.384033
vt 0.966309 0.388428
vt 0.966309 0.388916
vt 0.41626 0.005196
vt 0.41626 0.005795
vt 0.41748 0.005795
vt 0.41748 0.005196
vt 0.415283 0.005196
vt 0.415283 0.005795
vt 0.414062 0.005795
vt 0.414062 0.005196
vt 0.412842 0.005196
vt 0.412842 0.005795
vt 0.411865 0.005196
vt 0.411865 0.005795
vt 0.410645 0.005795
vt 0.410645 0.005196
vt 0.409424 0.005196
vt 0.409424 0.005795
vt 0.408203 0.005795
vt 0.408203 0.005196
vt 0.407227 0.005196
vt 0.407227 0.005795
vt 0.406006 0.005795
vt 0.406006 0.005196
vt 0.404785 0.005196
vt 0.404785 0.005795
vt 0.403809 0.005795
vt 0.403809 0.005196
vt 0.402588 0.005196
vt 0.402588 0.005795
vt 0.401367 0.005795
vt 0.401367 0.005196
vt 0.400391 0.005196
vt 0.400391 0.005795
vt 0.39917 0.005795
vt 0.39917 0.005196
vt 0.397949 0.005196
vt 0.397949 0.005795
vt 0.396729 0.005795
vt 0.396729 0.005196
vt 0.395508 0.005795
vt 0.395508 0.005196
vt 0.394531 0.005795
vt 0.394531 0.005196
vt 0.566895 0.009171
vt 0.567383 0.00882
vt 0.567383 0.00465
vt 0.566895 0.005013
vt 0.77832 0.28833
vt 0.775879 0.288086
vt 0.301758 0.003206
vt 0.301758 0.003809
vt 0.302979 0.003809
vt 0.300781 0.003809
vt 0.302979 0.003206
vt 0.300781 0.003206
vt 0.304199 0.003206
vt 0.299561 0.003206
vt 0.304199 0.003809
vt 0.299561 0.003809
vt 0.30542 0.003206
vt 0.29834 0.003809
vt 0.30542 0.003809
vt 0.306396 0.003206
vt 0.306396 0.003809
vt 0.29834 0.003206
vt 0.297119 0.003206
vt 0.297119 0.003809
vt 0.296143 0.003809
vt 0.296143 0.003206
vt 0.294922 0.003206
vt 0.294922 0.003809
vt 0.293701 0.003809
vt 0.293701 0.003206
vt 0.292725 0.003206
vt 0.292725 0.003809
vt 0.291504 0.003809
vt 0.291504 0.003206
vt 0.290283 0.003206
vt 0.290283 0.003809
vt 0.289062 0.003206
vt 0.289062 0.003809
vt 0.288086 0.003809
vt 0.288086 0.003206
vt 0.286865 0.003206
vt 0.286865 0.003809
vt 0.285889 0.003206
vt 0.285889 0.003809
vt 0.264648 0.00322
vt 0.263672 0.00322
vt 0.263672 0.003809
vt 0.262451 0.00322
vt 0.264648 0.003809
vt 0.262451 0.003809
vt 0.265869 0.003809
vt 0.26123 0.00322
vt 0.265869 0.00322
vt 0.26123 0.003809
vt 0.26001 0.00322
vt 0.26001 0.003809
vt 0.26709 0.00322
vt 0.26709 0.003809
vt 0.268311 0.003809
vt 0.268311 0.00322
vt 0.269531 0.00322
vt 0.269531 0.003809
vt 0.270508 0.003809
vt 0.270508 0.00322
vt 0.271729 0.00322
vt 0.271729 0.003809
vt 0.272949 0.003809
vt 0.272949 0.00322
vt 0.27417 0.00322
vt 0.27417 0.003809
vt 0.275391 0.003809
vt 0.275391 0.00322
vt 0.276367 0.00322
vt 0.276367 0.003809
vt 0.277588 0.00322
vt 0.277588 0.003809
vt 0.278809 0.003809
vt 0.278809 0.00322
vt 0.280029 0.00322
vt 0.280029 0.003809
vt 0.28125 0.003809
vt 0.28125 0.00322
vt 0.675293 0.223145
vt 0.675293 0.217529
vt 0.67627 0.223145
vt 0.67627 0.217285
vt 0.677734 0.223145
vt 0.677734 0.217163
vt 0.678711 0.223145
vt 0.678711 0.217163
vt 0.680176 0.223145
vt 0.680176 0.217163
vt 0.681152 0.223145
vt 0.681152 0.217163
vt 0.682617 0.217163
vt 0.682617 0.223145
vt 0.683594 0.217285
vt 0.683594 0.223145
vt 0.685059 0.217529
vt 0.685059 0.223145
vt 0.686035 0.217651
vt 0.686035 0.223145
vt 0.6875 0.217773
vt 0.6875 0.223145
vt 0.688477 0.217896
vt 0.688477 0.223145
vt 0.689941 0.223145
vt 0.689941 0.217896
vt 0.434814 0.032562
vt 0.434814 0.026886
vt 0.436035 0.032562
vt 0.436035 0.026718
vt 0.437256 0.032562
vt 0.437256 0.026596
vt 0.438477 0.032562
vt 0.438477 0.026535
vt 0.439697 0.032562
vt 0.439697 0.026535
vt 0.440918 0.032562
vt 0.440918 0.026535
vt 0.442139 0.026596
vt 0.442139 0.032562
vt 0.443359 0.026718
vt 0.443359 0.032562
vt 0.44458 0.026886
vt 0.44458 0.032562
vt 0.445801 0.027039
vt 0.445801 0.032562
vt 0.447021 0.027176
vt 0.447021 0.032562
vt 0.448486 0.027252
vt 0.448486 0.032562
vt 0.449463 0.032562
vt 0.449463 0.027267
vt 0.092285 0.088867
vt 0.090027 0.089233
vt 0.471191 0.130371
vt 0.456055 0.130371
vt 0.456055 0.12915
vt 0.471191 0.12915
vt 0.456055 0.12793
vt 0.471191 0.12793
vt 0.456055 0.126709
vt 0.471191 0.126709
vt 0.456055 0.125488
vt 0.471191 0.125488
vt 0.471191 0.124207
vt 0.456055 0.124268
vt 0.456055 0.123047
vt 0.471191 0.122986
vt 0.456055 0.121826
vt 0.471191 0.121765
vt 0.471191 0.120544
vt 0.456055 0.120605
vt 0.471191 0.119324
vt 0.456055 0.119385
vt 0.456055 0.118164
vt 0.471191 0.118103
vt 0.456055 0.116882
vt 0.471191 0.116882
vt 0.456055 0.115662
vt 0.471191 0.115662
vt 0.471191 0.11438
vt 0.456055 0.114441
vt 0.193359 0.357666
vt 0.192139 0.357666
vt 0.192261 0.358154
vt 0.191162 0.358154
vt 0.193359 0.358154
vt 0.19104 0.357666
vt 0.19458 0.358154
vt 0.189941 0.358154
vt 0.19458 0.357666
vt 0.189819 0.357666
vt 0.188721 0.358154
vt 0.188721 0.357666
vt 0.195801 0.357666
vt 0.195801 0.358154
vt 0.196899 0.358154
vt 0.196899 0.357666
vt 0.19812 0.357666
vt 0.19812 0.358154
vt 0.199341 0.358154
vt 0.199341 0.357666
vt 0.200439 0.358154
vt 0.200439 0.357666
vt 0.20166 0.357666
vt 0.20166 0.358154
vt 0.202881 0.357666
vt 0.202881 0.358154
vt 0.203979 0.358154
vt 0.203979 0.357666
vt 0.2052 0.357666
vt 0.2052 0.358154
vt 0.206421 0.358154
vt 0.206421 0.357666
vt 0.20752 0.357666
vt 0.20752 0.358154
vt 0.20874 0.358154
vt 0.20874 0.357666
vt 0.209839 0.357666
vt 0.209839 0.358154
vt 0.21106 0.358154
vt 0.211182 0.357666
vt 0.212158 0.358154
vt 0.212158 0.357666
vt 0.96875 0.38501
vt 0.96875 0.388672
vt 0.969238 0.388184
vt 0.969238 0.384766
vt 0.794922 0.007282
vt 0.795898 0.007282
vt 0.795898 0.00668
vt 0.796875 0.007282
vt 0.794922 0.00668
vt 0.796875 0.00668
vt 0.793945 0.007282
vt 0.797852 0.007282
vt 0.797852 0.00668
vt 0.799316 0.00668
vt 0.799316 0.007282
vt 0.800293 0.007282
vt 0.800293 0.00668
vt 0.801758 0.00668
vt 0.801758 0.007282
vt 0.802734 0.007282
vt 0.802734 0.00668
vt 0.803711 0.00668
vt 0.803711 0.007282
vt 0.805176 0.007282
vt 0.805176 0.00668
vt 0.806152 0.00668
vt 0.806152 0.007282
vt 0.807617 0.007282
vt 0.807617 0.00668
vt 0.808594 0.00668
vt 0.808594 0.007282
vt 0.810059 0.007282
vt 0.810059 0.00668
vt 0.811035 0.00668
vt 0.811035 0.007282
vt 0.812012 0.007282
vt 0.812012 0.00668
vt 0.813477 0.00668
vt 0.813477 0.007282
vt 0.814453 0.00668
vt 0.814453 0.007282
vt 0.815918 0.00668
vt 0.815918 0.007282
vt 0.793945 0.00668
vt 0.792969 0.00668
vt 0.792969 0.007282
vt 0.564453 0.00885
vt 0.564453 0.005455
vt 0.563965 0.00856
vt 0.563965 0.005157
vt 0.450928 0.032562
vt 0.450928 0.027267
vt 0.451904 0.032562
vt 0.451904 0.027267
vt 0.452637 0.027267
vt 0.452637 0.032562
vt 0.690918 0.223145
vt 0.690918 0.217896
vt 0.692383 0.223145
vt 0.692383 0.217896
vt 0.692871 0.217896
vt 0.692871 0.223145
vt 0.56543 0.005352
vt 0.456055 0.113281
vt 0.471191 0.11322
vt 0.456055 0.112122
vt 0.471191 0.112061
vt 0.456055 0.11084
vt 0.471191 0.11084
vt 0.455811 0.110291
vt 0.471191 0.110291
vt 0.967773 0.384766
vn 0.2786 -0.9604 0
vn 0.0755 -0.9971 0
vn -0.1077 -0.9942 0
vn -0.6116 -0.7912 0
vn -0.9943 0.1066 0.0011
vn -0.812 -0.5837 0.0027
vn -0.8251 -0.565 -0.0027
vn -0.8931 0.4498 -0.0066
vn -0.9461 0.3237 0.0087
vn -0.4551 -0.8904 0
vn -0.4582 -0.8888 0
vn -0.2989 -0.9543 0
vn -0.0823 -0.9966 0
vn -0.08 -0.9968 0
vn 0.0983 -0.9952 0
vn 0.1007 -0.9949 0
vn 0.3048 -0.9524 0
vn 0.3166 -0.9486 0
vn -0.8894 0.4572 -0.0013
vn -0.8238 -0.5669 0
vn -0.8825 -0.4704 0.0027
vn -0.4498 -0.8931 0.0026
vn -0.2996 -0.9541 0.0025
vn -0.2937 -0.9559 0.0024
vn -0.0755 -0.9971 0
vn 0.1077 -0.9942 0
vn 0.1148 -0.9934 0
vn 0.3136 -0.9495 0
vn 0.1123 -0.6338 0.7653
vn -0.0755 -0.6897 0.7202
vn -0.0339 -0.6801 0.7324
vn 0.1351 -0.725 0.6754
vn 0.0958 -0.579 -0.8097
vn -0.0167 -0.618 -0.786
vn -0.0542 -0.6319 -0.7731
vn 0.1222 -0.669 -0.7331
vn 0.2578 -0.5706 0.7797
vn 0.227 -0.517 -0.8253
vn -0.021 0.001 0.9998
vn 0 -0.001 1
vn -0.019 0.005 0.9998
vn -0.0503 -0.0241 0.9984
vn -0.0592 -0.0243 0.9979
vn -0.0661 -0.065 0.9957
vn -0.0636 -0.0625 0.996
vn -0.0997 -0.0963 0.9903
vn -0.1048 -0.0966 0.9898
vn -0.0883 -0.1104 0.99
vn -0.0858 -0.1102 0.9902
vn -0.066 -0.1058 0.9922
vn -0.0637 -0.1081 0.9921
vn -0.0344 -0.0677 0.9971
vn -0.008 -0.0191 0.9998
vn -0.01 -0.0171 0.9998
vn 0.001 0.021 0.9998
vn 0.003 0.021 0.9998
vn 0.0074 0.0749 0.9972
vn 0.0074 0.0772 0.997
vn -0.0011 0.1234 0.9924
vn 0.0033 0.1236 0.9923
vn -0.0168 0.1401 0.99
vn -0.0168 0.1376 0.9903
vn -0.0351 0.1325 0.9906
vn -0.0376 0.1378 0.9897
vn -0.0341 0.098 0.9946
vn -0.0318 0.0954 0.9949
vn -0.0285 0.0517 0.9983
vn -0.0351 0.0564 0.9978
vn -0.0069 0.0069 1
vn -0.0049 0.003 1
vn -0.9704 -0.205 0.1274
vn -0.9681 -0.2119 0.1335
vn -0.9985 -0.0512 -0.0188
vn -0.9988 -0.0366 -0.0334
vn 0 -0.001 -1
vn -0.9884 -0.0034 0.1521
vn -0.9826 0.0104 0.1855
vn -0.9954 -0.0906 -0.0306
vn -0.9924 -0.1056 -0.0636
vn 0.0039 -0.003 1
vn -0.002 -0.0049 1
vn -0.0121 -0.0212 0.9997
vn -0.0185 -0.0318 0.9993
vn -0.0091 0.0273 0.9996
vn -0.0294 0.0091 0.9995
vn 0.0034 0.179 0.9838
vn 0.0327 0.2364 0.9711
vn 0.0165 0.3412 0.9399
vn 0.0464 0.3913 0.9191
vn 0.0039 -0.003 -1
vn -0.002 -0.0049 -1
vn -0.0121 -0.0233 -0.9997
vn -0.0185 -0.0318 -0.9993
vn -0.0091 0.0273 -0.9996
vn -0.0294 0.0091 -0.9995
vn 0.0347 0.2116 -0.9767
vn 0.0777 0.2083 -0.975
vn -0.0243 0.3498 -0.9365
vn -0.0493 0.3954 -0.9172
vn 0.4835 -0.8753 0
vn 0.4898 -0.8718 0
vn 0.6476 -0.762 0
vn 0.6535 -0.7569 0
vn 0.7829 -0.6222 0
vn 0.7853 -0.6192 0
vn 0.8896 -0.4567 0
vn 0.9608 -0.2771 0
vn 0.9965 -0.0834 0
vn 0.994 0.109 -0.0011
vn 0.9938 0.1114 -0.0011
vn 0.9555 0.2949 -0.0012
vn 0.9528 0.3037 -0.0012
vn 0.8844 0.4667 -0.0013
vn 0.8811 0.473 -0.0013
vn 0.7701 0.6379 -0.0014
vn 0.7652 0.6438 -0.0014
vn 0.6168 0.7871 -0.0014
vn 0.6137 0.7895 -0.0014
vn 0.4604 0.8877 -0.0013
vn 0.4572 0.8894 -0.0013
vn 0.2603 0.9655 -0.0012
vn 0.2631 0.9648 -0.0012
vn 0.4961 -0.8682 0
vn 0.5025 -0.8646 0
vn 0.9617 -0.2742 0
vn 0.9935 0.1138 0.0011
vn 0.8776 0.4793 -0.0013
vn 0.8759 0.4825 -0.0013
vn 0.6259 0.7799 -0.0014
vn 0.6228 0.7823 -0.0014
vn 0.0499 0.4244 -0.9041
vn 0.0525 0.4157 -0.908
vn 0.0447 0.4484 -0.8927
vn 0.0448 0.4516 -0.8911
vn 0.4614 -0.8872 0
vn 0.6267 -0.7793 0
vn 0.7657 -0.6432 0
vn 0.8762 -0.4819 0
vn 0.95 -0.3122 0
vn 0.9941 -0.1089 0
vn 0.9953 0.0973 -0.0011
vn 0.9607 0.2774 -0.0012
vn 0.8877 0.4604 -0.0013
vn 0.8877 0.4604 0.0013
vn 0.7799 0.6259 0.0014
vn 0.6409 0.7677 0.0014
vn 0.6409 0.7677 -0.0014
vn 0.4825 0.8759 -0.0013
vn 0.3007 0.9537 -0.0012
vn 0.2978 0.9546 -0.0012
vn 0.1138 0.9935 0.0011
vn 0.1138 0.9935 -0.0011
vn -0.082 -0.0899 0.9926
vn -0.0602 -0.2598 0.9638
vn -0.0763 -0.2081 0.9751
vn -0.1326 -0.355 0.9254
vn -0.0948 -0.0666 0.9933
vn -0.1313 -0.3843 0.9138
vn -0.1076 -0.0721 0.9916
vn -0.1975 -0.3877 0.9004
vn -0.1145 -0.0652 0.9913
vn -0.2041 -0.3893 0.8982
vn -0.2274 -0.3913 0.8918
vn -0.2277 -0.3948 0.8901
vn -0.0879 -0.1053 0.9905
vn -0.0831 -0.1074 0.9907
vn -0.0345 -0.07 0.997
vn -0.0145 0.1398 0.9901
vn -0.0353 0.1401 0.9895
vn -0.0341 0.0956 0.9948
vn -0.0296 0.0952 0.995
vn 0.4011 0.7148 -0.5728
vn 0.6227 0.6294 -0.4649
vn 0.9947 0.1026 0.0076
vn 0.992 -0.0626 0.1092
vn 0.7223 0.5164 0.46
vn 0.4504 0.6246 0.638
vn 0.9717 0.2105 0.1071
vn 0.9986 0.0527 -0.0052
vn 0.0835 0.9965 -0.0011
vn -0.4635 0.8861 -0.0013
vn -0.9967 0.0812 0.0011
vn -0.0882 0.5825 0.808
vn 0.0858 0.6328 0.7695
vn 0.041 0.623 0.7812
vn -0.209 0.5294 0.8223
vn -0.1048 0.6746 0.7307
vn -0.0835 0.9965 0.0011
vn -0.0812 0.9967 0.0011
vn -0.2717 0.9624 0.0012
vn -0.2774 0.9607 0.0012
vn -0.7823 0.6228 -0.0014
vn -0.7799 0.6259 0.0014
vn -0.9606 -0.2778 -0.0024
vn -0.9901 -0.1406 0.0022
vn -0.2404 0.6206 -0.7463
vn 0.0354 0.7179 -0.6952
vn -0.1143 0.6722 -0.7315
vn 0.0801 0.7263 -0.6827
vn -0.1171 0.7577 -0.642
o bullet_scaffold07__p1_c0
f 1/1/1 2/2/1 3/3/2
f 1/1/1 3/3/2 4/4/2
f 4/4/2 3/3/2 5/5/3
f 4/4/2 5/5/3 6/6/3
f 6/6/3 5/5/3 7/7/4
f 6/6/3 7/7/4 8/8/4
f 8/8/4 7/7/4 9/9/5
f 9/9/5 7/7/4 10/10/5
f 11/11/6 12/12/7 13/13/8
f 11/11/6 13/13/8 14/14/9
f 12/12/7 11/11/6 15/15/10
f 12/12/7 15/15/10 16/16/11
f 16/16/11 15/15/10 17/17/12
f 16/16/11 17/17/12 18/18/12
f 18/18/12 17/17/12 19/19/13
f 18/18/12 19/19/13 20/20/14
f 20/20/14 19/19/13 21/21/15
f 20/20/14 21/21/15 22/22/16
f 22/22/16 21/21/15 23/23/17
f 22/22/16 23/23/17 24/24/18
f 25/25/19 26/26/20 27/27/21
f 25/25/19 27/27/21 28/28/19
f 27/27/21 26/26/20 29/29/11
f 27/27/21 29/29/11 30/30/22
f 30/30/22 29/29/11 31/31/23
f 30/30/22 31/31/23 32/32/24
f 32/32/24 31/31/23 33/33/13
f 32/32/24 33/33/13 34/34/25
f 34/34/25 33/33/13 35/35/26
f 34/34/25 35/35/26 36/36/27
f 36/36/27 35/35/26 37/37/17
f 36/36/27 37/37/17 38/38/28
f 39/39/29 40/40/30 41/41/31
f 42/42/32 40/40/32 39/39/32
f 43/43/33 44/44/34 45/45/35
f 46/46/36 43/43/36 45/45/36
f 39/39/29 41/41/31 47/47/37
f 48/48/38 44/44/34 43/43/33
f 49/49/39 50/50/40 16/51/40
f 16/51/40 50/50/40 12/52/40
f 12/52/40 50/50/40 13/53/40
f 49/49/39 16/51/40 18/54/41
f 49/49/39 18/54/41 20/55/42
f 49/49/39 20/55/42 51/56/43
f 51/56/43 20/55/42 52/57/44
f 52/57/44 20/55/42 22/58/45
f 52/57/44 22/58/45 24/59/46
f 52/57/44 24/59/46 53/60/47
f 53/60/47 24/59/46 54/61/48
f 54/61/48 24/59/46 55/62/49
f 54/61/48 55/62/49 56/63/50
f 54/61/48 56/63/50 57/64/51
f 57/64/51 56/63/50 58/65/52
f 58/65/52 56/63/50 59/66/52
f 58/65/52 59/66/52 60/67/53
f 58/65/52 60/67/53 61/68/54
f 61/68/54 60/67/53 62/69/40
f 61/68/54 62/69/40 63/70/40
f 63/70/40 62/69/40 64/71/55
f 64/71/55 62/69/40 65/72/56
f 64/71/55 65/72/56 66/73/57
f 66/73/57 65/72/56 67/74/58
f 66/73/57 67/74/58 68/75/59
f 66/73/57 68/75/59 69/76/60
f 69/76/60 68/75/59 70/77/61
f 70/77/61 68/75/59 71/78/62
f 70/77/61 71/78/62 72/79/63
f 70/77/61 72/79/63 73/80/64
f 73/80/64 72/79/63 74/81/65
f 74/81/65 72/79/63 75/82/66
f 74/81/65 75/82/66 76/83/67
f 74/81/65 76/83/67 77/84/68
f 77/84/68 76/83/67 78/85/69
f 78/85/69 76/83/67 79/86/70
f 78/85/69 79/86/70 80/87/40
f 78/85/69 80/87/40 81/88/40
f 81/88/40 80/87/40 82/89/40
f 81/88/40 82/89/40 83/90/40
f 84/91/71 47/92/72 41/93/73
f 84/91/71 41/93/73 85/94/74
f 86/95/75 29/96/75 26/97/75
f 86/95/75 26/97/75 25/98/75
f 29/96/75 86/95/75 87/99/75
f 29/96/75 87/99/75 31/100/75
f 31/100/75 87/99/75 33/101/75
f 33/101/75 87/99/75 88/102/75
f 33/101/75 88/102/75 89/103/75
f 33/101/75 89/103/75 35/104/75
f 35/104/75 89/103/75 90/105/75
f 35/104/75 90/105/75 37/106/75
f 37/106/75 90/105/75 91/107/75
f 91/107/75 90/105/75 92/108/75
f 91/107/75 92/108/75 93/109/75
f 91/107/75 93/109/75 94/110/75
f 94/110/75 93/109/75 95/111/75
f 95/111/75 93/109/75 96/112/75
f 95/111/75 96/112/75 97/113/75
f 95/111/75 97/113/75 98/114/75
f 98/114/75 97/113/75 99/115/75
f 99/115/75 97/113/75 100/116/75
f 99/115/75 100/116/75 101/117/75
f 99/115/75 101/117/75 102/118/75
f 102/118/75 101/117/75 103/119/75
f 103/119/75 101/117/75 104/120/75
f 103/119/75 104/120/75 105/121/75
f 103/119/75 105/121/75 106/122/75
f 106/122/75 105/121/75 107/123/75
f 107/123/75 105/121/75 108/124/75
f 107/123/75 108/124/75 109/125/75
f 107/123/75 109/125/75 110/126/75
f 110/126/75 109/125/75 111/127/75
f 111/127/75 109/125/75 112/128/75
f 111/127/75 112/128/75 113/129/75
f 111/127/75 113/129/75 114/130/75
f 114/130/75 113/129/75 115/131/75
f 115/131/75 113/129/75 116/132/75
f 115/131/75 116/132/75 117/133/75
f 117/133/75 116/132/75 118/134/75
f 117/133/75 118/134/75 119/135/75
f 119/135/75 118/134/75 120/136/75
f 121/137/76 44/138/77 48/139/78
f 121/137/76 48/139/78 122/140/79
f 41/41/40 40/40/40 123/141/40
f 41/41/40 123/141/40 85/142/40
f 124/143/40 125/144/40 126/145/40
f 125/144/40 124/143/40 127/146/40
f 124/143/40 126/145/40 2/147/40
f 127/146/40 124/143/40 128/148/40
f 2/147/40 126/145/40 3/149/40
f 127/146/40 128/148/40 129/150/40
f 3/149/40 126/145/40 130/151/40
f 127/146/40 129/150/40 131/152/40
f 3/149/40 130/151/40 5/153/40
f 131/152/40 129/150/40 132/154/40
f 5/153/40 130/151/40 133/155/40
f 5/153/40 133/155/40 7/156/40
f 7/156/40 133/155/40 10/157/40
f 132/154/40 129/150/40 134/158/40
f 132/154/40 134/158/40 135/159/40
f 132/154/40 135/159/40 136/160/40
f 136/160/40 135/159/40 137/161/40
f 137/161/40 135/159/40 138/162/40
f 137/161/40 138/162/40 139/163/40
f 137/161/40 139/163/40 140/164/40
f 140/164/40 139/163/40 141/165/40
f 141/165/40 139/163/40 142/166/40
f 141/165/40 142/166/40 143/167/40
f 141/165/40 143/167/40 144/168/40
f 144/168/40 143/167/40 145/169/40
f 145/169/40 143/167/40 146/170/40
f 145/169/40 146/170/40 147/171/80
f 145/169/40 147/171/80 148/172/81
f 148/172/81 147/171/80 149/173/82
f 148/172/81 149/173/82 150/174/83
f 150/174/83 149/173/82 151/175/84
f 151/175/84 149/173/82 152/176/85
f 151/175/84 152/176/85 153/177/86
f 151/175/84 153/177/86 154/178/87
f 154/178/87 153/177/86 155/179/88
f 154/178/87 155/179/88 42/180/89
f 156/181/75 1/182/75 157/183/75
f 157/183/75 1/182/75 4/184/75
f 156/181/75 157/183/75 158/185/75
f 157/183/75 4/184/75 159/186/75
f 156/181/75 158/185/75 160/187/75
f 159/186/75 4/184/75 6/188/75
f 156/181/75 160/187/75 161/189/75
f 159/186/75 6/188/75 162/190/75
f 162/190/75 6/188/75 8/191/75
f 162/190/75 8/191/75 9/192/75
f 161/189/75 160/187/75 163/193/75
f 163/193/75 160/187/75 164/194/75
f 163/193/75 164/194/75 165/195/75
f 163/193/75 165/195/75 166/196/75
f 166/196/75 165/195/75 167/197/75
f 167/197/75 165/195/75 168/198/75
f 167/197/75 168/198/75 169/199/75
f 167/197/75 169/199/75 170/200/75
f 170/200/75 169/199/75 171/201/75
f 171/201/75 169/199/75 172/202/75
f 171/201/75 172/202/75 173/203/75
f 171/201/75 173/203/75 174/204/75
f 174/204/75 173/203/75 175/205/75
f 175/205/75 173/203/75 176/206/75
f 175/205/75 176/206/75 177/207/75
f 175/205/75 177/207/75 178/208/75
f 178/208/75 177/207/75 179/209/90
f 179/209/90 177/207/75 180/210/91
f 179/209/90 180/210/91 181/211/92
f 181/211/92 180/210/91 182/212/93
f 181/211/92 182/212/93 183/213/94
f 181/211/92 183/213/94 184/214/95
f 184/214/95 183/213/94 185/215/96
f 185/215/96 183/213/94 186/216/97
f 185/215/96 186/216/97 46/217/98
f 185/215/96 46/217/98 187/218/99
f 38/38/28 37/37/17 91/219/100
f 38/38/28 91/219/100 188/220/101
f 188/220/101 91/219/100 94/221/102
f 188/220/101 94/221/102 189/222/103
f 189/222/103 94/221/102 95/223/104
f 189/222/103 95/223/104 190/224/105
f 190/224/105 95/223/104 98/225/106
f 190/224/105 98/225/106 191/226/106
f 191/226/106 98/225/106 99/227/107
f 191/226/106 99/227/107 192/228/107
f 192/228/107 99/227/107 102/229/108
f 192/228/107 102/229/108 193/230/108
f 193/230/108 102/229/108 194/231/109
f 194/231/109 102/229/108 103/232/110
f 194/231/109 103/232/110 195/233/111
f 195/233/111 103/232/110 106/234/112
f 195/233/111 106/234/112 196/235/113
f 196/235/113 106/234/112 107/236/114
f 196/235/113 107/236/114 197/237/115
f 197/237/115 107/236/114 110/238/116
f 197/237/115 110/238/116 198/239/117
f 198/239/117 110/238/116 111/240/118
f 198/239/117 111/240/118 199/241/119
f 199/241/119 111/240/118 114/242/120
f 199/241/119 114/242/120 115/243/121
f 199/241/119 115/243/121 200/244/122
f 24/24/18 23/23/17 201/245/123
f 24/24/18 201/245/123 55/246/124
f 55/246/124 201/245/123 202/247/102
f 55/246/124 202/247/102 56/248/103
f 56/248/103 202/247/102 203/249/104
f 56/248/103 203/249/104 59/250/105
f 59/250/105 203/249/104 204/251/106
f 59/250/105 204/251/106 60/252/106
f 60/252/106 204/251/106 205/253/125
f 60/252/106 205/253/125 62/254/125
f 62/254/125 205/253/125 206/255/108
f 62/254/125 206/255/108 65/256/108
f 65/256/108 206/255/108 67/257/109
f 67/257/109 206/255/108 207/258/126
f 67/257/109 207/258/126 68/259/111
f 68/259/111 207/258/126 208/260/112
f 68/259/111 208/260/112 71/261/127
f 71/261/127 208/260/112 209/262/128
f 71/261/127 209/262/128 72/263/115
f 72/263/115 209/262/128 210/264/116
f 72/263/115 210/264/116 75/265/129
f 75/265/129 210/264/116 211/266/130
f 75/265/129 211/266/130 76/267/119
f 76/267/119 211/266/130 212/268/120
f 76/267/119 212/268/120 213/269/121
f 76/267/119 213/269/121 79/270/121
f 214/271/131 45/45/132 44/44/133
f 214/271/131 44/44/133 121/272/134
f 2/2/1 1/1/1 156/273/135
f 2/2/1 156/273/135 124/274/135
f 124/274/135 156/273/135 128/275/136
f 128/275/136 156/273/135 161/276/136
f 128/275/136 161/276/136 129/277/137
f 129/277/137 161/276/136 163/278/137
f 129/277/137 163/278/137 134/279/138
f 134/279/138 163/278/137 166/280/138
f 134/279/138 166/280/138 135/281/139
f 135/281/139 166/280/138 167/282/139
f 135/281/139 167/282/139 170/283/140
f 135/281/139 170/283/140 138/284/140
f 138/284/140 170/283/140 139/285/141
f 139/285/141 170/283/140 171/286/141
f 139/285/141 171/286/141 142/287/142
f 142/287/142 171/286/141 174/288/142
f 142/287/142 174/288/142 175/289/143
f 142/287/142 175/289/143 143/290/144
f 143/290/144 175/289/143 178/291/145
f 143/290/144 178/291/145 146/292/145
f 146/292/145 178/291/145 147/293/146
f 147/293/146 178/291/145 179/294/147
f 147/293/146 179/294/147 149/295/148
f 149/295/148 179/294/147 181/296/148
f 149/295/148 181/296/148 152/297/149
f 152/297/149 181/296/148 184/298/150
f 152/297/149 184/298/150 185/299/151
f 152/297/149 185/299/151 153/300/152
f 215/301/153 216/302/154 34/303/155
f 34/303/155 216/302/154 32/304/156
f 215/301/153 34/303/155 36/305/157
f 32/304/156 216/302/154 217/306/158
f 215/301/153 36/305/157 38/307/159
f 32/304/156 217/306/158 30/308/160
f 215/301/153 38/307/159 218/309/161
f 30/308/160 217/306/158 219/310/162
f 30/308/160 219/310/162 27/311/163
f 27/311/163 219/310/162 28/312/164
f 218/309/161 38/307/159 220/313/165
f 220/313/165 38/307/159 188/314/166
f 220/313/165 188/314/166 189/315/50
f 220/313/165 189/315/50 221/316/51
f 221/316/51 189/315/50 222/317/52
f 222/317/52 189/315/50 190/318/167
f 222/317/52 190/318/167 191/319/53
f 222/317/52 191/319/53 223/320/53
f 223/320/53 191/319/53 192/321/40
f 223/320/53 192/321/40 224/322/40
f 224/322/40 192/321/40 225/323/55
f 225/323/55 192/321/40 193/324/56
f 225/323/55 193/324/56 226/325/57
f 226/325/57 193/324/56 194/326/58
f 226/325/57 194/326/58 195/327/59
f 226/325/57 195/327/59 227/328/60
f 227/328/60 195/327/59 228/329/61
f 228/329/61 195/327/59 196/330/168
f 228/329/61 196/330/168 197/331/63
f 228/329/61 197/331/63 229/332/169
f 229/332/169 197/331/63 230/333/170
f 230/333/170 197/331/63 198/334/171
f 230/333/170 198/334/171 199/335/67
f 230/333/170 199/335/67 231/336/68
f 231/336/68 199/335/67 232/337/69
f 232/337/69 199/335/67 200/338/70
f 232/337/69 200/338/70 233/339/40
f 232/337/69 233/339/40 234/340/40
f 234/340/40 233/339/40 235/341/40
f 234/340/40 235/341/40 236/342/40
f 155/343/172 123/344/173 40/345/174
f 155/343/172 40/345/174 42/346/175
f 237/347/75 238/348/75 19/349/75
f 19/349/75 238/348/75 239/350/75
f 237/347/75 19/349/75 17/351/75
f 19/349/75 239/350/75 21/352/75
f 237/347/75 17/351/75 240/353/75
f 21/352/75 239/350/75 241/354/75
f 21/352/75 241/354/75 23/355/75
f 23/355/75 241/354/75 201/356/75
f 201/356/75 241/354/75 242/357/75
f 201/356/75 242/357/75 243/358/75
f 201/356/75 243/358/75 202/359/75
f 202/359/75 243/358/75 203/360/75
f 203/360/75 243/358/75 244/361/75
f 203/360/75 244/361/75 245/362/75
f 203/360/75 245/362/75 204/363/75
f 204/363/75 245/362/75 205/364/75
f 205/364/75 245/362/75 246/365/75
f 205/364/75 246/365/75 247/366/75
f 205/364/75 247/366/75 206/367/75
f 206/367/75 247/366/75 207/368/75
f 207/368/75 247/366/75 248/369/75
f 207/368/75 248/369/75 249/370/75
f 207/368/75 249/370/75 208/371/75
f 208/371/75 249/370/75 209/372/75
f 209/372/75 249/370/75 250/373/75
f 209/372/75 250/373/75 251/374/75
f 209/372/75 251/374/75 210/375/75
f 210/375/75 251/374/75 211/376/75
f 211/376/75 251/374/75 252/377/75
f 211/376/75 252/377/75 253/378/75
f 211/376/75 253/378/75 212/379/75
f 212/379/75 253/378/75 213/380/75
f 213/380/75 253/378/75 254/381/75
f 213/380/75 254/381/75 255/382/75
f 255/382/75 254/381/75 256/383/75
f 255/382/75 256/383/75 257/384/75
f 257/384/75 256/383/75 258/385/75
f 15/386/75 11/387/75 17/351/75
f 17/351/75 11/387/75 240/353/75
f 240/353/75 11/387/75 14/388/75
f 214/389/176 187/390/177 45/391/178
f 45/391/178 187/390/177 46/392/179
f 79/270/121 213/269/121 255/393/180
f 79/270/121 255/393/180 80/394/180
f 80/394/180 255/393/180 257/395/181
f 80/394/180 257/395/181 82/396/181
f 82/396/181 257/395/181 83/397/182
f 83/397/182 257/395/181 258/398/182
f 200/244/122 115/243/121 117/399/180
f 200/244/122 117/399/180 233/400/180
f 233/400/180 117/399/180 119/401/181
f 233/400/180 119/401/181 235/402/181
f 235/402/181 119/401/181 236/403/182
f 236/403/182 119/401/181 120/404/182
f 259/405/183 214/389/184 121/137/185
f 259/405/183 121/137/185 122/140/186
f 259/405/187 187/390/177 214/389/176
f 153/300/152 185/299/151 155/406/188
f 155/406/188 185/299/151 187/407/189
f 155/406/188 187/407/189 260/408/190
f 260/408/190 187/407/189 259/409/191
f 260/408/190 259/409/191 84/410/192
f 84/410/192 259/409/191 122/411/193
f 84/410/192 122/411/193 47/412/194
f 47/412/194 122/411/193 48/413/195
f 84/91/196 85/94/197 260/414/198
f 260/414/198 85/94/197 123/344/199
f 155/343/172 260/414/200 123/344/173
