# CS2 body mesh, tools/cs2_glb_to_obj.py
v 0.05853 0.061 0.02885
v 0.05853 0.061 0.02409
v 0.05745 0.06112 0.02409
v 0.05745 0.06112 0.02884
v 0.0563 0.06104 0.02409
v 0.0563 0.06104 0.02884
v 0.05535 0.06078 0.02409
v 0.05535 0.06078 0.02884
v 0.05543 0.06027 0.02884
v 0.05543 0.06027 0.02409
v 0.05853 0.06099 0.00636
v 0.05853 0.06099 0.0016
v 0.05745 0.06112 0.0016
v 0.05745 0.06112 0.00634
v 0.0563 0.06104 0.0016
v 0.0563 0.06104 0.00634
v 0.05535 0.06078 0.0016
v 0.05535 0.06078 0.00634
v 0.05543 0.06027 0.00634
v 0.05543 0.06027 0.0016
v 0.05552 0.04855 0.02173
v 0.05653 0.04835 0.00828
v 0.05552 0.04856 0.00829
v 0.05441 0.04854 0.02172
v 0.05444 0.04853 0.0083
v 0.05436 0.04802 0.02199
v 0.05433 0.04802 0.00803
v 0.05701 0.05025 0.00645
v 0.05503 0.05071 0.00621
v 0.05527 0.05117 0.00648
v 0.05697 0.04974 0.00623
v 0.05657 0.04834 0.02174
v 0.05706 0.05025 0.02409
v 0.05523 0.05119 0.02409
v 0.05998 0.04043 0.00817
v 0.06035 0.04146 0.00817
v 0.06035 0.04146 0.02185
v 0.05998 0.04043 0.02185
v 0.06056 0.04254 0.02185
v 0.05935 0.03952 0.02185
v 0.06056 0.04254 0.00817
v 0.05935 0.03952 0.00817
v 0.06053 0.04363 0.00817
v 0.05859 0.03872 0.00817
v 0.06053 0.04363 0.02185
v 0.05859 0.03872 0.02185
v 0.06031 0.04471 0.00817
v 0.05769 0.03812 0.00817
v 0.06031 0.04471 0.02185
v 0.05769 0.03812 0.02185
v 0.05669 0.03766 0.00817
v 0.05669 0.03766 0.02185
v 0.05986 0.0457 0.02185
v 0.05986 0.0457 0.00817
v 0.05925 0.04662 0.02186
v 0.05925 0.04662 0.00816
v 0.05846 0.04736 0.02185
v 0.05846 0.04736 0.00817
v 0.05753 0.04797 0.00822
v 0.05755 0.04796 0.0218
v 0.06283 0.05535 0.0016
v 0.06283 0.05535 0.00699
v 0.0627 0.05426 0.00699
v 0.0627 0.05426 0.0016
v 0.06278 0.05644 0.0016
v 0.06233 0.05324 0.00694
v 0.06278 0.05644 0.00699
v 0.06233 0.05324 0.0016
v 0.06248 0.0575 0.00694
v 0.06179 0.05227 0.00682
v 0.06248 0.0575 0.0016
v 0.06179 0.05227 0.0016
v 0.06201 0.05849 0.00682
v 0.06106 0.05147 0.00668
v 0.06201 0.05849 0.0016
v 0.06106 0.05147 0.0016
v 0.06133 0.05935 0.00668
v 0.06019 0.05079 0.00655
v 0.06133 0.05935 0.0016
v 0.06019 0.05079 0.0016
v 0.06053 0.06011 0.00654
v 0.05921 0.05032 0.00643
v 0.06053 0.06011 0.0016
v 0.05921 0.05032 0.0016
v 0.05815 0.05004 0.00633
v 0.05813 0.05003 0.0016
v 0.05956 0.06063 0.00643
v 0.05956 0.06063 0.0016
v 0.06283 0.05535 0.02409
v 0.06283 0.05535 0.02949
v 0.0627 0.05427 0.02949
v 0.0627 0.05427 0.02409
v 0.06277 0.05646 0.02409
v 0.06233 0.05324 0.02944
v 0.06277 0.05646 0.02949
v 0.06233 0.05324 0.02409
v 0.06248 0.0575 0.02944
v 0.0618 0.05229 0.02932
v 0.06248 0.0575 0.02409
v 0.0618 0.05229 0.02409
v 0.06201 0.0585 0.02932
v 0.06106 0.05147 0.02918
v 0.06201 0.0585 0.02409
v 0.06106 0.05147 0.02409
v 0.06133 0.05935 0.02918
v 0.06021 0.05077 0.02904
v 0.06133 0.05935 0.02409
v 0.06021 0.05077 0.02409
v 0.06052 0.0601 0.02904
v 0.05921 0.05032 0.02892
v 0.06052 0.0601 0.02409
v 0.05921 0.05032 0.02409
v 0.05813 0.05003 0.02888
v 0.05813 0.05003 0.02409
v 0.05956 0.06063 0.02892
v 0.05956 0.06063 0.02409
v 0.06225 0.05637 0.02949
v 0.0623 0.05537 0.02949
v 0.06218 0.05439 0.02949
v 0.06198 0.05732 0.02945
v 0.06185 0.05346 0.02945
v 0.06155 0.05822 0.02934
v 0.06136 0.0526 0.02934
v 0.06094 0.05899 0.02921
v 0.06069 0.05186 0.02921
v 0.06021 0.05966 0.02907
v 0.05993 0.05123 0.02907
v 0.05935 0.06014 0.02895
v 0.05902 0.05082 0.02895
v 0.05841 0.06048 0.02887
v 0.05804 0.05055 0.0289
v 0.05743 0.06059 0.02884
v 0.05708 0.0505 0.02884
v 0.05706 0.04997 0.02884
v 0.05602 0.05016 0.02884
v 0.05633 0.06052 0.02884
v 0.05609 0.05068 0.02884
v 0.05499 0.05046 0.02884
v 0.05511 0.05097 0.02884
v 0.05609 0.05068 0.0016
v 0.05602 0.05016 0.0016
v 0.05499 0.05046 0.0016
v 0.05511 0.05097 0.0016
v 0.05708 0.0505 0.0016
v 0.05706 0.04997 0.0016
v 0.05804 0.05055 0.0016
v 0.05902 0.05082 0.0016
v 0.05991 0.05124 0.0016
v 0.06069 0.05186 0.0016
v 0.06136 0.05259 0.0016
v 0.06185 0.05346 0.0016
v 0.06218 0.05438 0.0016
v 0.0623 0.05537 0.0016
v 0.06225 0.05636 0.0016
v 0.06198 0.05732 0.0016
v 0.06156 0.05821 0.0016
v 0.06094 0.05899 0.0016
v 0.06022 0.05967 0.0016
v 0.05935 0.06014 0.0016
v 0.0584 0.06048 0.0016
v 0.05743 0.06059 0.0016
v 0.05633 0.06052 0.0016
v 0.05506 0.0507 0.02409
v 0.05693 0.04974 0.02409
v 0.05562 0.03745 0.02185
v 0.05556 0.03798 0.02185
v 0.05456 0.03795 0.02185
v 0.05652 0.03817 0.02185
v 0.05452 0.03742 0.02185
v 0.05345 0.03764 0.02185
v 0.05359 0.03814 0.02185
v 0.05743 0.03858 0.02185
v 0.05242 0.03805 0.02185
v 0.05825 0.03913 0.02185
v 0.05261 0.03853 0.02185
v 0.05156 0.03861 0.02185
v 0.0518 0.03907 0.02185
v 0.05894 0.03985 0.02185
v 0.05951 0.04067 0.02185
v 0.05984 0.04161 0.02185
v 0.06003 0.04259 0.02185
v 0.06 0.04357 0.02185
v 0.05981 0.04455 0.02185
v 0.0594 0.04544 0.02185
v 0.05885 0.04627 0.02184
v 0.05813 0.04695 0.02185
v 0.05726 0.04753 0.02191
v 0.05633 0.04787 0.02196
v 0.05562 0.03745 0.00817
v 0.05452 0.03742 0.00817
v 0.05456 0.03795 0.00817
v 0.05345 0.03764 0.00817
v 0.05556 0.03798 0.00817
v 0.05359 0.03814 0.00817
v 0.05652 0.03817 0.00817
v 0.05242 0.03805 0.00817
v 0.05261 0.03853 0.00817
v 0.05156 0.03861 0.00817
v 0.0518 0.03907 0.00817
v 0.05743 0.03858 0.00817
v 0.05825 0.03913 0.00817
v 0.05894 0.03985 0.00817
v 0.05951 0.04067 0.00817
v 0.05984 0.04161 0.00817
v 0.06003 0.04259 0.00817
v 0.06 0.04357 0.00817
v 0.05981 0.04455 0.00817
v 0.0594 0.04544 0.00817
v 0.05885 0.04627 0.00818
v 0.05813 0.04695 0.00817
v 0.05728 0.04752 0.00811
v 0.05637 0.04785 0.00805
v 0.06225 0.05636 0.00699
v 0.0623 0.05537 0.00699
v 0.06218 0.05438 0.00699
v 0.06198 0.05732 0.00695
v 0.06185 0.05346 0.00695
v 0.06156 0.05821 0.00685
v 0.06136 0.05259 0.00685
v 0.06094 0.05899 0.00671
v 0.06069 0.05186 0.00671
v 0.06022 0.05967 0.00657
v 0.05991 0.05124 0.00656
v 0.05935 0.06014 0.00646
v 0.05902 0.05082 0.00646
v 0.0584 0.06048 0.00637
v 0.05802 0.05054 0.00646
v 0.05743 0.06059 0.00634
v 0.05711 0.04998 0.00623
v 0.05702 0.0505 0.00645
v 0.05605 0.05016 0.00622
v 0.05633 0.06052 0.00634
v 0.05606 0.05067 0.00647
v 0.05499 0.05046 0.00621
v 0.05511 0.05097 0.00648
v 0.05707 0.0505 0.02409
v 0.05804 0.05055 0.02409
v 0.05902 0.05082 0.02409
v 0.05707 0.04998 0.02409
v 0.05607 0.05068 0.02409
v 0.05993 0.05123 0.02409
v 0.06069 0.05186 0.02409
v 0.06136 0.0526 0.02409
v 0.06185 0.05346 0.02409
v 0.06218 0.05439 0.02409
v 0.0623 0.05537 0.02409
v 0.06225 0.05637 0.02409
v 0.06198 0.05732 0.02409
v 0.06155 0.05822 0.02409
v 0.06094 0.05899 0.02409
v 0.06021 0.05966 0.02409
v 0.05935 0.06014 0.02409
v 0.05841 0.06048 0.02409
v 0.05743 0.06059 0.02409
v 0.05633 0.06052 0.02409
v 0.05604 0.05016 0.02409
v 0.05503 0.05045 0.02409
v 0.05507 0.05098 0.02409
v 0.05538 0.04805 0.00804
v 0.05538 0.04806 0.02197
vt 0.19165 0.55957
vt 0.19165 0.564941
vt 0.192871 0.564941
vt 0.192871 0.55957
vt 0.194092 0.564941
vt 0.194092 0.55957
vt 0.19519 0.564941
vt 0.19519 0.55957
vt 0.195801 0.55957
vt 0.195801 0.564941
vt 0.756836 0.445557
vt 0.756836 0.450928
vt 0.757812 0.450928
vt 0.757812 0.445557
vt 0.759277 0.450928
vt 0.759277 0.445557
vt 0.760254 0.450928
vt 0.760254 0.445557
vt 0.760742 0.445557
vt 0.760742 0.450928
vt 0.962402 0.067444
vt 0.978027 0.068542
vt 0.978027 0.067383
vt 0.962402 0.066162
vt 0.978027 0.066162
vt 0.962402 0.065613
vt 0.978027 0.065613
vt 0.480957 0.05069
vt 0.47876 0.050385
vt 0.47876 0.051056
vt 0.480957 0.050049
vt 0.627441 0.455811
vt 0.625977 0.455811
vt 0.627441 0.459717
vt 0.625 0.459717
vt 0.196533 0.005352
vt 0.195435 0.005455
vt 0.195435 0.00885
vt 0.197632 0.009171
vt 0.978027 0.079529
vt 0.978027 0.078308
vt 0.962402 0.078369
vt 0.962402 0.07959
vt 0.962402 0.077148
vt 0.962402 0.080811
vt 0.978027 0.077087
vt 0.978027 0.080811
vt 0.978027 0.075867
vt 0.978027 0.082031
vt 0.962402 0.075928
vt 0.962402 0.082031
vt 0.978027 0.074646
vt 0.978027 0.083252
vt 0.962402 0.074707
vt 0.962402 0.083252
vt 0.978027 0.084473
vt 0.962402 0.084534
vt 0.962402 0.073486
vt 0.978027 0.073425
vt 0.962402 0.072205
vt 0.978027 0.072205
vt 0.962402 0.070984
vt 0.978027 0.070984
vt 0.978027 0.069702
vt 0.962402 0.069763
vt 0.962402 0.068604
vt 0.625 0.455322
vt 0.748047 0.450928
vt 0.748047 0.444824
vt 0.74707 0.444824
vt 0.74707 0.450928
vt 0.749512 0.450928
vt 0.745605 0.445068
vt 0.749512 0.444824
vt 0.745605 0.450928
vt 0.750488 0.445068
vt 0.744629 0.445068
vt 0.750488 0.450928
vt 0.744629 0.450928
vt 0.751953 0.445068
vt 0.743164 0.445312
vt 0.751953 0.450928
vt 0.743164 0.450928
vt 0.75293 0.445312
vt 0.742188 0.445557
vt 0.75293 0.450928
vt 0.742188 0.450928
vt 0.754395 0.445557
vt 0.740723 0.445557
vt 0.754395 0.450928
vt 0.740723 0.450928
vt 0.739746 0.445801
vt 0.739746 0.450928
vt 0.755371 0.445557
vt 0.755371 0.450928
vt 0.182983 0.564941
vt 0.182983 0.559082
vt 0.181763 0.559082
vt 0.181763 0.564941
vt 0.184204 0.564941
vt 0.180542 0.559082
vt 0.184204 0.559082
vt 0.180542 0.564941
vt 0.185425 0.559082
vt 0.179321 0.559082
vt 0.185425 0.564941
vt 0.179321 0.564941
vt 0.186768 0.559082
vt 0.178101 0.559082
vt 0.186768 0.564941
vt 0.178101 0.564941
vt 0.187988 0.559082
vt 0.17688 0.55957
vt 0.187988 0.564941
vt 0.17688 0.564941
vt 0.189209 0.55957
vt 0.175659 0.55957
vt 0.189209 0.564941
vt 0.175659 0.564941
vt 0.174438 0.55957
vt 0.174438 0.564941
vt 0.19043 0.55957
vt 0.19043 0.564941
vt 0.920898 0.009171
vt 0.919922 0.009171
vt 0.919922 0.009766
vt 0.918945 0.009171
vt 0.920898 0.009766
vt 0.918945 0.009766
vt 0.922363 0.009171
vt 0.91748 0.009171
vt 0.922363 0.009766
vt 0.91748 0.009766
vt 0.92334 0.009766
vt 0.916504 0.009766
vt 0.92334 0.009171
vt 0.916504 0.009171
vt 0.924805 0.009171
vt 0.915039 0.009171
vt 0.924805 0.009766
vt 0.915039 0.009766
vt 0.925781 0.009766
vt 0.914062 0.009766
vt 0.925781 0.009171
vt 0.914062 0.009171
vt 0.926758 0.009171
vt 0.913086 0.009171
vt 0.926758 0.009766
vt 0.913086 0.009766
vt 0.928223 0.009766
vt 0.911621 0.009766
vt 0.928223 0.009171
vt 0.911621 0.009171
vt 0.929199 0.009171
vt 0.910645 0.009171
vt 0.929199 0.009766
vt 0.910645 0.009766
vt 0.930664 0.009766
vt 0.90918 0.009766
vt 0.930664 0.009171
vt 0.931641 0.009766
vt 0.931641 0.009171
vt 0.90918 0.009171
vt 0.908203 0.009766
vt 0.908203 0.009171
vt 0.197632 0.005013
vt 0.755859 0.007675
vt 0.755859 0.00827
vt 0.756836 0.00827
vt 0.756836 0.007675
vt 0.754395 0.007675
vt 0.754395 0.00827
vt 0.753418 0.00827
vt 0.753418 0.007675
vt 0.752441 0.007675
vt 0.752441 0.00827
vt 0.750977 0.007675
vt 0.750977 0.00827
vt 0.75 0.00827
vt 0.75 0.007675
vt 0.749023 0.007675
vt 0.749023 0.00827
vt 0.747559 0.00827
vt 0.747559 0.007675
vt 0.746582 0.007675
vt 0.746582 0.00827
vt 0.745605 0.00827
vt 0.745605 0.007675
vt 0.744141 0.007675
vt 0.744141 0.00827
vt 0.743164 0.00827
vt 0.743164 0.007675
vt 0.742188 0.007675
vt 0.742188 0.00827
vt 0.740723 0.00827
vt 0.740723 0.007675
vt 0.739746 0.007675
vt 0.739746 0.00827
vt 0.738281 0.00827
vt 0.738281 0.007675
vt 0.737305 0.007675
vt 0.737305 0.00827
vt 0.736328 0.00827
vt 0.736328 0.007675
vt 0.734863 0.00827
vt 0.734863 0.007675
vt 0.733887 0.00827
vt 0.733887 0.007675
vt 0.520996 0.139282
vt 0.523438 0.139648
vt 0.523438 0.139038
vt 0.520996 0.138672
vt 0.898438 0.00668
vt 0.898438 0.007282
vt 0.899902 0.007282
vt 0.897461 0.007282
vt 0.899902 0.00668
vt 0.897461 0.00668
vt 0.900879 0.00668
vt 0.896484 0.00668
vt 0.900879 0.007282
vt 0.896484 0.007282
vt 0.901855 0.00668
vt 0.89502 0.007282
vt 0.902344 0.007282
vt 0.90332 0.00668
vt 0.90332 0.007282
vt 0.89502 0.00668
vt 0.894043 0.00668
vt 0.894043 0.007282
vt 0.893066 0.007282
vt 0.893066 0.00668
vt 0.891602 0.00668
vt 0.891602 0.007282
vt 0.890625 0.007282
vt 0.890625 0.00668
vt 0.889648 0.00668
vt 0.889648 0.007282
vt 0.888184 0.007282
vt 0.888184 0.00668
vt 0.887207 0.00668
vt 0.887207 0.007282
vt 0.885742 0.00668
vt 0.885742 0.007282
vt 0.884766 0.007282
vt 0.884766 0.00668
vt 0.883789 0.00668
vt 0.883789 0.007282
vt 0.882324 0.00668
vt 0.882324 0.007282
vt 0.617188 0.004707
vt 0.615723 0.004707
vt 0.615723 0.005295
vt 0.614746 0.004707
vt 0.617188 0.005295
vt 0.614746 0.005295
vt 0.618164 0.005295
vt 0.613281 0.004707
vt 0.618164 0.004707
vt 0.613281 0.005295
vt 0.612305 0.004707
vt 0.612305 0.005295
vt 0.619141 0.004707
vt 0.619141 0.005295
vt 0.620605 0.005295
vt 0.620605 0.004707
vt 0.621582 0.004707
vt 0.621582 0.005295
vt 0.623047 0.005295
vt 0.623047 0.004707
vt 0.624023 0.004707
vt 0.624023 0.005295
vt 0.625488 0.005295
vt 0.625488 0.004707
vt 0.626465 0.004707
vt 0.626465 0.005295
vt 0.627441 0.005295
vt 0.627441 0.004707
vt 0.628906 0.004707
vt 0.628906 0.005295
vt 0.629883 0.004707
vt 0.629883 0.005295
vt 0.630859 0.005295
vt 0.630859 0.004707
vt 0.632324 0.004707
vt 0.632324 0.005295
vt 0.633301 0.005295
vt 0.633301 0.004707
vt 0.194824 0.00856
vt 0.194824 0.005157
vt 0.62793 0.459229
vt 0.62793 0.455811
vt 0.198242 0.00882
vt 0.198242 0.00465
vt 0.624512 0.455078
vt 0.624512 0.459229
vt 0.359619 0.940918
vt 0.358398 0.940918
vt 0.358398 0.941406
vt 0.357178 0.940918
vt 0.359619 0.941406
vt 0.357178 0.941406
vt 0.36084 0.940918
vt 0.356201 0.940918
vt 0.36084 0.941406
vt 0.356201 0.941406
vt 0.362061 0.941406
vt 0.35498 0.941406
vt 0.362061 0.940918
vt 0.35498 0.940918
vt 0.363281 0.940918
vt 0.35376 0.940918
vt 0.363281 0.941406
vt 0.35376 0.941406
vt 0.364258 0.941406
vt 0.352539 0.941406
vt 0.364258 0.940918
vt 0.352539 0.940918
vt 0.365479 0.940918
vt 0.351318 0.940918
vt 0.365479 0.941406
vt 0.351318 0.941406
vt 0.366699 0.941406
vt 0.350098 0.941406
vt 0.366699 0.940918
vt 0.350098 0.940918
vt 0.36792 0.940918
vt 0.349121 0.941406
vt 0.36792 0.941406
vt 0.348877 0.940918
vt 0.369141 0.941406
vt 0.3479 0.941406
vt 0.369141 0.940918
vt 0.370117 0.941406
vt 0.370117 0.940918
vt 0.3479 0.940918
vt 0.34668 0.941406
vt 0.34668 0.940918
vt 0.424072 0.005795
vt 0.425049 0.005795
vt 0.424805 0.005192
vt 0.426025 0.005795
vt 0.423828 0.005192
vt 0.426025 0.005192
vt 0.423096 0.005795
vt 0.427246 0.005795
vt 0.427246 0.005192
vt 0.428467 0.005192
vt 0.428467 0.005795
vt 0.429688 0.005795
vt 0.429688 0.005192
vt 0.430664 0.005192
vt 0.430664 0.005795
vt 0.431885 0.005795
vt 0.431885 0.005192
vt 0.433105 0.005192
vt 0.433105 0.005795
vt 0.434326 0.005795
vt 0.434326 0.005192
vt 0.435547 0.005192
vt 0.435547 0.005795
vt 0.436768 0.005795
vt 0.436768 0.005192
vt 0.437744 0.005192
vt 0.437744 0.005795
vt 0.438965 0.005795
vt 0.438965 0.005192
vt 0.440186 0.005192
vt 0.440186 0.005795
vt 0.441406 0.005795
vt 0.441406 0.005192
vt 0.442627 0.005192
vt 0.442627 0.005795
vt 0.443848 0.005192
vt 0.443848 0.005795
vt 0.444824 0.005192
vt 0.444824 0.005795
vt 0.423096 0.005192
vt 0.422119 0.005192
vt 0.422119 0.005795
vt 0.47876 0.046204
vt 0.479736 0.046509
vt 0.521973 0.143311
vt 0.520996 0.143555
vt 0.480957 0.0466
vt 0.523438 0.143311
vt 0.962402 0.086975
vt 0.978027 0.086914
vt 0.978027 0.085693
vt 0.962402 0.088196
vt 0.962402 0.085754
vt 0.978027 0.088135
vt 0.962402 0.089417
vt 0.978027 0.089355
vt 0.962402 0.090576
vt 0.978027 0.090515
vt 0.978027 0.091125
vt 0.962402 0.091125
vt 0.170898 0.564941
vt 0.170898 0.55957
vt 0.170288 0.55957
vt 0.170288 0.564941
vt 0.172119 0.564941
vt 0.171997 0.55957
vt 0.173218 0.564941
vt 0.173218 0.55957
vt 0.735352 0.450928
vt 0.73584 0.450928
vt 0.73584 0.445801
vt 0.735352 0.445557
vt 0.737305 0.450928
vt 0.737305 0.445801
vt 0.738281 0.450928
vt 0.738281 0.445801
vn 0.2323 0.9727 0.0012
vn 0.2295 0.9733 0.0012
vn 0.0189 0.9998 0.001
vn 0.0189 0.9998 -0.001
vn -0.1606 0.987 -0.0011
vn -0.6644 0.7473 0.0014
vn -0.9871 -0.1604 0
vn 0.2323 0.9727 -0.0012
vn 0.2295 0.9733 -0.0012
vn 0.021 0.9998 -0.001
vn 0.0926 0.9957 0.0011
vn 0.2803 0.9599 0.0012
vn 0.0858 0.9963 0.0011
vn -0.5078 0.8615 -0.0013
vn -0.5015 0.8652 0.0013
vn -0.9963 0.0859 -0.0032
vn -0.9751 0.2218 0.0035
vn 0.1983 0.3777 -0.9045
vn 0.2034 0.3994 -0.8939
vn 0.2039 0.4064 -0.8906
vn 0.1976 0.3708 -0.9074
vn 0.6297 0.5216 -0.5757
vn 0.1625 0.7488 -0.6425
vn 0.8074 0.3629 -0.4652
vn 0.1366 0.6682 -0.7313
vn 0.2908 0.657 -0.6956
vn 0.334 0.65 -0.6826
vn 0.1431 0.6675 0.7308
vn 0.6446 0.4214 0.6379
vn 0.8602 0.2214 0.4595
vn 0.1253 0.5736 0.8095
vn 0.3056 0.5649 0.7665
vn 0.2594 0.5676 0.7814
vn 0.8896 -0.4567 0
vn 0.9641 -0.2657 0
vn 0.9965 -0.0834 0
vn 0.7756 -0.6312 0
vn 0.9938 0.1114 -0.0011
vn 0.6446 -0.7645 0
vn 0.9938 0.1114 0.0011
vn 0.9528 0.3037 -0.0012
vn 0.4867 -0.8736 0
vn 0.9528 0.3037 0.0012
vn 0.3048 -0.9524 0
vn 0.8742 0.4856 0.0013
vn 0.8742 0.4856 -0.0013
vn 0.7627 0.6468 -0.0014
vn 0.7652 0.6438 0.0014
vn 0.6228 0.7823 -0.0014
vn 0.6198 0.7847 0.0014
vn 0.4635 0.8861 0.0013
vn 0.4604 0.8877 -0.0013
vn -0.0014 0.6674 -0.7447
vn 0.9993 -0.0375 0
vn 0.9994 -0.0354 0
vn 0.974 -0.2265 0
vn 0.9734 -0.2292 0
vn 0.9874 0.158 0.0011
vn 0.9109 -0.4127 0
vn 0.9094 -0.4159 0
vn 0.9384 0.3455 0.0013
vn 0.8173 -0.5762 0
vn 0.9373 0.3485 0.0013
vn 0.8129 -0.5824 0
vn 0.8558 0.5173 0.0013
vn 0.6854 -0.7282 0
vn 0.852 0.5236 -0.0013
vn 0.6825 -0.7309 0
vn 0.7447 0.6674 -0.0014
vn 0.534 -0.8455 0
vn 0.7395 0.6732 -0.0014
vn 0.5277 -0.8494 0
vn 0.5954 0.8034 -0.0014
vn 0.3526 -0.9358 0
vn 0.5861 0.8102 -0.0014
vn 0.3436 -0.9391 0
vn 0.1693 -0.9856 0
vn 0.1617 -0.9868 0
vn 0.4101 0.912 -0.0013
vn 0.4039 0.9148 -0.0013
vn 0.9994 -0.0333 0
vn 0.9123 -0.4096 0
vn 0.9874 0.158 -0.0011
vn 0.6967 -0.7174 0
vn 0.691 -0.7228 0
vn 0.7369 0.676 -0.0014
vn 0.5371 -0.8435 0
vn 0.7316 0.6818 -0.0014
vn 0.5923 0.8057 -0.0014
vn 0.3405 -0.9402 0
vn 0.5861 0.8102 0.0014
vn 0.3345 -0.9424 0
vn 0.1642 -0.9864 0
vn 0.4195 0.9078 -0.0013
vn 0.4132 0.9106 0.0013
vn -0.003 0.019 0.9998
vn 0 -0.001 1
vn -0.004 -0.021 0.9998
vn -0.0117 0.0752 0.9971
vn -0.017 -0.0734 0.9972
vn -0.017 -0.0756 0.997
vn -0.0301 0.1194 0.9924
vn -0.0382 -0.1179 0.9923
vn -0.0279 0.1217 0.9922
vn -0.0359 -0.1201 0.9921
vn -0.0515 0.1294 0.9903
vn -0.0599 -0.1278 0.99
vn -0.0491 0.1291 0.9904
vn -0.0574 -0.1275 0.9902
vn -0.0656 0.1208 0.9905
vn -0.0739 -0.1166 0.9904
vn -0.0683 0.1262 0.9897
vn -0.0767 -0.122 0.9896
vn -0.0567 0.0856 0.9947
vn -0.0505 -0.0757 0.9959
vn -0.0521 0.0876 0.9948
vn -0.046 -0.0777 0.9959
vn -0.0413 0.0434 0.9982
vn -0.0442 -0.0348 0.9984
vn -0.048 0.0459 0.9978
vn -0.051 -0.0372 0.998
vn -0.0069 0.0069 1
vn -0.022 -0.003 0.9998
vn -0.0059 -0.001 1
vn -0.0189 0.001 0.9998
vn -0.0068 0.57 0.8216
vn 0 -0.001 -1
vn 0.002 -0.0049 1
vn -0.0039 -0.0049 1
vn -0.0182 -0.0172 0.9997
vn -0.0287 -0.0215 0.9994
vn 0.003 0.0293 0.9996
vn -0.0234 0.0194 0.9995
vn 0.0677 0.1627 0.9844
vn 0.1152 0.2089 0.9711
vn 0.1373 0.314 0.9394
vn 0.1828 0.3472 0.9198
vn 0.002 -0.0049 -1
vn -0.0039 -0.0049 -1
vn -0.0202 -0.0152 -0.9997
vn -0.0288 -0.0236 -0.9993
vn 0.003 0.0293 -0.9996
vn -0.0234 0.0194 -0.9995
vn 0.108 0.1849 -0.9768
vn 0.1472 0.1649 -0.9753
vn 0.1035 0.3346 -0.9367
vn 0.0945 0.3902 -0.9159
vn 0.9822 -0.1544 0.107
vn 0.9515 -0.3077 -0.0049
vn 0.9659 -0.2589 0.0072
vn 0.9037 -0.4142 0.1088
vn -0.9244 0.3499 0.152
vn -0.9129 0.3643 0.1843
vn -0.9614 0.2734 -0.0309
vn -0.9641 0.2577 -0.0641
vn -0.9794 0.1569 0.1272
vn -0.9796 0.1495 0.1346
vn -0.951 0.3087 -0.0187
vn -0.945 0.3252 -0.0344
vn -0.003 0.021 0.9998
vn -0.004 -0.019 0.9998
vn -0.0492 0.1316 0.9901
vn -0.0619 -0.1204 0.9908
vn -0.0549 -0.1247 0.9907
vn -0.0872 -0.0953 0.9916
vn -0.0966 -0.0886 0.9914
vn -0.0565 -0.1074 0.9926
vn -0.052 0.0852 0.995
vn -0.0747 -0.0894 0.9932
vn -0.0391 0.0433 0.9983
vn -0.0238 -0.2205 0.9751
vn 0.0048 -0.2669 0.9637
vn -0.0421 -0.3772 0.9252
vn -0.0049 0.001 1
vn -0.0344 -0.4063 0.9131
vn -0.0973 -0.4238 0.9005
vn -0.1034 -0.4291 0.8973
vn -0.1279 -0.4333 0.8921
vn -0.1251 -0.4391 0.8897
vn 0.0277 -0.5637 -0.8255
vn -0.2369 -0.5719 -0.7854
vn -0.1174 -0.574 -0.8104
vn -0.279 -0.5691 -0.7735
vn -0.1218 -0.631 0.7661
vn -0.3169 -0.616 0.7211
vn -0.274 -0.6229 0.7328
vn 0.0366 -0.6241 0.7805
vn -0.1254 -0.6703 -0.7315
vn -0.1351 -0.7278 0.6723
vn -0.0823 -0.9966 0
vn 0.1124 -0.9937 0
vn -0.2872 -0.9579 0
vn -0.4582 -0.8888 0
vn -0.8543 -0.5198 0
vn -0.8894 0.4572 0.0013
vn -0.646 -0.7633 0.0028
vn -0.6637 -0.748 -0.0028
vn -0.9756 0.2195 -0.0059
vn -0.9962 0.0863 0.0075
vn -0.2279 -0.9737 0
vn -0.0578 -0.9983 0
vn -0.974 0.2267 0.0012
vn -0.6623 -0.7492 0
vn -0.7415 -0.6709 0.0028
vn -0.2202 -0.9755 0.0023
vn -0.0601 -0.9982 0.0021
vn -0.0536 -0.9986 0.0021
o bullet_scaffold12__p1_c0
f 1/1/1 2/2/2 3/3/3
f 1/1/1 3/3/3 4/4/4
f 4/4/4 3/3/3 5/5/5
f 4/4/4 5/5/5 6/6/5
f 6/6/5 5/5/5 7/7/6
f 6/6/5 7/7/6 8/8/6
f 8/8/6 7/7/6 9/9/7
f 9/9/7 7/7/6 10/10/7
f 11/11/8 12/12/9 13/13/10
f 11/11/8 13/13/10 14/14/10
f 14/14/10 13/13/10 15/15/5
f 14/14/10 15/15/5 16/16/5
f 16/16/5 15/15/5 17/17/6
f 16/16/5 17/17/6 18/18/6
f 18/18/6 17/17/6 19/19/7
f 19/19/7 17/17/6 20/20/7
f 21/21/11 22/22/12 23/23/13
f 21/21/11 23/23/13 24/24/14
f 24/24/14 23/23/13 25/25/15
f 24/24/14 25/25/15 26/26/16
f 26/26/16 25/25/15 27/27/17
f 28/28/18 29/29/19 30/30/20
f 28/28/18 31/31/21 29/29/19
f 32/32/22 21/33/23 33/34/24
f 21/33/25 34/35/26 33/34/27
f 23/36/28 22/37/29 28/38/30
f 23/36/31 28/38/32 30/39/33
f 35/40/34 36/41/35 37/42/35
f 35/40/34 37/42/35 38/43/34
f 37/42/35 36/41/35 39/44/36
f 35/40/34 38/43/34 40/45/37
f 39/44/36 36/41/35 41/46/36
f 35/40/34 40/45/37 42/47/37
f 39/44/36 41/46/36 43/48/38
f 42/47/37 40/45/37 44/49/39
f 39/44/36 43/48/38 45/50/40
f 44/49/39 40/45/37 46/51/39
f 45/50/40 43/48/38 47/52/41
f 44/49/39 46/51/39 48/53/42
f 45/50/40 47/52/41 49/54/43
f 48/53/42 46/51/39 50/55/42
f 48/53/42 50/55/42 51/56/44
f 51/56/44 50/55/42 52/57/44
f 49/54/43 47/52/41 53/58/45
f 53/58/45 47/52/41 54/59/46
f 53/58/45 54/59/46 55/60/47
f 55/60/47 54/59/46 56/61/48
f 55/60/47 56/61/48 57/62/49
f 57/62/49 56/61/48 58/63/50
f 57/62/49 58/63/50 59/64/51
f 57/62/49 59/64/51 60/65/52
f 60/65/52 59/64/51 32/66/12
f 32/66/12 59/64/51 22/22/12
f 32/66/12 22/22/12 21/21/11
f 24/67/53 34/35/26 21/33/25
f 61/68/54 62/69/55 63/70/56
f 61/68/54 63/70/56 64/71/57
f 62/69/55 61/68/54 65/72/58
f 64/71/57 63/70/56 66/73/59
f 62/69/55 65/72/58 67/74/58
f 64/71/57 66/73/59 68/75/60
f 67/74/58 65/72/58 69/76/61
f 68/75/60 66/73/59 70/77/62
f 69/76/61 65/72/58 71/78/63
f 68/75/60 70/77/62 72/79/64
f 69/76/61 71/78/63 73/80/65
f 72/79/64 70/77/62 74/81/66
f 73/80/65 71/78/63 75/82/67
f 72/79/64 74/81/66 76/83/68
f 73/80/65 75/82/67 77/84/69
f 76/83/68 74/81/66 78/85/70
f 77/84/69 75/82/67 79/86/71
f 76/83/68 78/85/70 80/87/72
f 77/84/69 79/86/71 81/88/73
f 80/87/72 78/85/70 82/89/74
f 81/88/73 79/86/71 83/90/75
f 80/87/72 82/89/74 84/91/76
f 84/91/76 82/89/74 85/92/77
f 84/91/76 85/92/77 86/93/78
f 81/88/73 83/90/75 87/94/79
f 87/94/79 83/90/75 88/95/80
f 87/94/79 88/95/80 11/11/8
f 11/11/8 88/95/80 12/12/9
f 89/96/81 90/97/81 91/98/56
f 89/96/81 91/98/56 92/99/57
f 90/97/81 89/96/81 93/100/58
f 92/99/57 91/98/56 94/101/82
f 90/97/81 93/100/58 95/102/83
f 92/99/57 94/101/82 96/103/60
f 95/102/83 93/100/58 97/104/61
f 96/103/60 94/101/82 98/105/62
f 97/104/61 93/100/58 99/106/63
f 96/103/60 98/105/62 100/107/64
f 97/104/61 99/106/63 101/108/65
f 100/107/64 98/105/62 102/109/84
f 101/108/65 99/106/63 103/110/67
f 100/107/64 102/109/84 104/111/85
f 101/108/65 103/110/67 105/112/86
f 104/111/85 102/109/84 106/113/87
f 105/112/86 103/110/67 107/114/88
f 104/111/85 106/113/87 108/115/72
f 105/112/86 107/114/88 109/116/89
f 108/115/72 106/113/87 110/117/90
f 109/116/89 107/114/88 111/118/91
f 108/115/72 110/117/90 112/119/92
f 112/119/92 110/117/90 113/120/93
f 112/119/92 113/120/93 114/121/78
f 109/116/89 111/118/91 115/122/94
f 115/122/94 111/118/91 116/123/95
f 115/122/94 116/123/95 1/1/1
f 1/1/1 116/123/95 2/2/2
f 117/124/96 118/125/97 90/126/97
f 90/126/97 118/125/97 119/127/98
f 117/124/96 90/126/97 95/128/96
f 90/126/97 119/127/98 91/129/98
f 117/124/96 95/128/96 120/130/99
f 91/129/98 119/127/98 121/131/100
f 120/130/99 95/128/96 97/132/99
f 91/129/98 121/131/100 94/133/101
f 120/130/99 97/132/99 101/134/102
f 94/133/101 121/131/100 98/135/103
f 120/130/99 101/134/102 122/136/104
f 98/135/103 121/131/100 123/137/105
f 122/136/104 101/134/102 124/138/106
f 98/135/103 123/137/105 125/139/107
f 124/138/106 101/134/102 105/140/108
f 98/135/103 125/139/107 102/141/109
f 124/138/106 105/140/108 109/142/110
f 102/141/109 125/139/107 106/143/111
f 124/138/106 109/142/110 126/144/112
f 106/143/111 125/139/107 127/145/113
f 126/144/112 109/142/110 128/146/114
f 106/143/111 127/145/113 129/147/115
f 128/146/114 109/142/110 115/148/116
f 106/143/111 129/147/115 110/149/117
f 128/146/114 115/148/116 1/150/118
f 110/149/117 129/147/115 113/151/119
f 128/146/114 1/150/118 130/152/120
f 113/151/119 129/147/115 131/153/121
f 130/152/120 1/150/118 132/154/122
f 113/151/119 131/153/121 133/155/123
f 132/154/122 1/150/118 4/156/124
f 113/151/119 133/155/123 134/157/125
f 132/154/122 4/156/124 6/158/97
f 134/157/125 133/155/123 135/159/97
f 132/154/122 6/158/97 136/160/97
f 136/160/97 6/158/97 8/161/97
f 136/160/97 8/161/97 9/162/97
f 135/159/97 133/155/123 137/163/97
f 135/159/97 137/163/97 138/164/97
f 138/164/97 137/163/97 139/165/97
f 23/36/31 30/39/33 25/166/126
f 140/167/127 141/168/127 142/169/127
f 140/167/127 142/169/127 143/170/127
f 141/168/127 140/167/127 144/171/127
f 141/168/127 144/171/127 145/172/127
f 145/172/127 144/171/127 86/173/127
f 86/173/127 144/171/127 146/174/127
f 86/173/127 146/174/127 147/175/127
f 86/173/127 147/175/127 84/176/127
f 84/176/127 147/175/127 148/177/127
f 84/176/127 148/177/127 80/178/127
f 80/178/127 148/177/127 76/179/127
f 76/179/127 148/177/127 149/180/127
f 76/179/127 149/180/127 150/181/127
f 76/179/127 150/181/127 72/182/127
f 72/182/127 150/181/127 68/183/127
f 68/183/127 150/181/127 151/184/127
f 68/183/127 151/184/127 152/185/127
f 68/183/127 152/185/127 64/186/127
f 64/186/127 152/185/127 61/187/127
f 61/187/127 152/185/127 153/188/127
f 61/187/127 153/188/127 154/189/127
f 61/187/127 154/189/127 65/190/127
f 65/190/127 154/189/127 71/191/127
f 71/191/127 154/189/127 155/192/127
f 71/191/127 155/192/127 156/193/127
f 71/191/127 156/193/127 75/194/127
f 75/194/127 156/193/127 79/195/127
f 79/195/127 156/193/127 157/196/127
f 79/195/127 157/196/127 158/197/127
f 79/195/127 158/197/127 83/198/127
f 83/198/127 158/197/127 88/199/127
f 88/199/127 158/197/127 159/200/127
f 88/199/127 159/200/127 160/201/127
f 88/199/127 160/201/127 12/202/127
f 12/202/127 160/201/127 13/203/127
f 13/203/127 160/201/127 161/204/127
f 13/203/127 161/204/127 15/205/127
f 15/205/127 161/204/127 162/206/127
f 15/205/127 162/206/127 17/207/127
f 17/207/127 162/206/127 20/208/127
f 163/209/97 164/210/97 33/211/97
f 163/209/97 33/211/97 34/212/97
f 165/213/97 166/214/97 167/215/97
f 166/214/97 165/213/97 168/216/97
f 165/213/97 167/215/97 169/217/97
f 168/216/97 165/213/97 52/218/97
f 169/217/97 167/215/97 170/219/97
f 168/216/97 52/218/97 50/220/97
f 170/219/97 167/215/97 171/221/97
f 168/216/97 50/220/97 172/222/97
f 170/219/97 171/221/97 173/223/97
f 172/222/97 50/220/97 174/224/97
f 173/223/97 171/221/97 175/225/97
f 173/223/97 175/225/97 176/226/97
f 176/226/97 175/225/97 177/227/97
f 174/224/97 50/220/97 46/228/97
f 174/224/97 46/228/97 40/229/97
f 174/224/97 40/229/97 178/230/97
f 178/230/97 40/229/97 179/231/97
f 179/231/97 40/229/97 38/232/97
f 179/231/97 38/232/97 37/233/97
f 179/231/97 37/233/97 180/234/97
f 180/234/97 37/233/97 181/235/97
f 181/235/97 37/233/97 39/236/97
f 181/235/97 39/236/97 45/237/97
f 181/235/97 45/237/97 182/238/97
f 182/238/97 45/237/97 183/239/97
f 183/239/97 45/237/97 49/240/97
f 183/239/97 49/240/97 53/241/128
f 183/239/97 53/241/128 184/242/129
f 184/242/129 53/241/128 55/243/130
f 184/242/129 55/243/130 185/244/131
f 185/244/131 55/243/130 186/245/132
f 186/245/132 55/243/130 57/246/133
f 186/245/132 57/246/133 60/247/134
f 186/245/132 60/247/134 187/248/135
f 187/248/135 60/247/134 32/249/136
f 187/248/135 32/249/136 188/250/137
f 189/251/127 190/252/127 191/253/127
f 191/253/127 190/252/127 192/254/127
f 189/251/127 191/253/127 193/255/127
f 191/253/127 192/254/127 194/256/127
f 189/251/127 193/255/127 195/257/127
f 194/256/127 192/254/127 196/258/127
f 189/251/127 195/257/127 51/259/127
f 194/256/127 196/258/127 197/260/127
f 197/260/127 196/258/127 198/261/127
f 197/260/127 198/261/127 199/262/127
f 51/259/127 195/257/127 48/263/127
f 48/263/127 195/257/127 200/264/127
f 48/263/127 200/264/127 201/265/127
f 48/263/127 201/265/127 44/266/127
f 44/266/127 201/265/127 42/267/127
f 42/267/127 201/265/127 202/268/127
f 42/267/127 202/268/127 203/269/127
f 42/267/127 203/269/127 35/270/127
f 35/270/127 203/269/127 36/271/127
f 36/271/127 203/269/127 204/272/127
f 36/271/127 204/272/127 205/273/127
f 36/271/127 205/273/127 41/274/127
f 41/274/127 205/273/127 43/275/127
f 43/275/127 205/273/127 206/276/127
f 43/275/127 206/276/127 207/277/127
f 43/275/127 207/277/127 47/278/127
f 47/278/127 207/277/127 54/279/138
f 54/279/138 207/277/127 208/280/139
f 54/279/138 208/280/139 56/281/140
f 56/281/140 208/280/139 209/282/141
f 56/281/140 209/282/141 210/283/142
f 56/281/140 210/283/142 58/284/143
f 58/284/143 210/283/142 59/285/144
f 59/285/144 210/283/142 211/286/145
f 59/285/144 211/286/145 212/287/146
f 59/285/144 212/287/146 22/288/147
f 28/38/30 22/37/29 31/289/148
f 31/289/148 22/37/29 212/290/149
f 32/32/22 33/34/24 164/291/150
f 32/32/22 164/291/150 188/292/151
f 30/39/152 29/293/153 27/294/154
f 30/39/152 27/294/154 25/166/155
f 24/67/156 26/295/157 163/296/158
f 24/67/156 163/296/158 34/35/159
f 213/297/160 214/298/97 62/299/97
f 62/299/97 214/298/97 215/300/161
f 213/297/160 62/299/97 67/301/160
f 62/299/97 215/300/161 63/302/161
f 213/297/160 67/301/160 216/303/99
f 63/302/161 215/300/161 217/304/100
f 216/303/99 67/301/160 69/305/99
f 63/302/161 217/304/100 66/306/101
f 216/303/99 69/305/99 73/307/102
f 66/306/101 217/304/100 70/308/103
f 216/303/99 73/307/102 218/309/104
f 70/308/103 217/304/100 219/310/105
f 218/309/104 73/307/102 220/311/162
f 70/308/103 219/310/105 221/312/163
f 220/311/162 73/307/102 77/313/108
f 70/308/103 221/312/163 74/314/164
f 220/311/162 77/313/108 81/315/110
f 74/314/164 221/312/163 78/316/165
f 220/311/162 81/315/110 222/317/112
f 78/316/165 221/312/163 223/318/166
f 222/317/112 81/315/110 224/319/114
f 78/316/165 223/318/166 225/320/167
f 224/319/114 81/315/110 87/321/168
f 78/316/165 225/320/167 82/322/169
f 224/319/114 87/321/168 11/323/170
f 82/322/169 225/320/167 85/324/171
f 224/319/114 11/323/170 226/325/120
f 85/324/171 225/320/167 227/326/172
f 226/325/120 11/323/170 228/327/122
f 85/324/171 227/326/172 229/328/173
f 228/327/122 11/323/170 14/329/174
f 229/328/173 227/326/172 230/330/175
f 228/327/122 14/329/174 16/331/97
f 229/328/173 230/330/175 231/332/176
f 228/327/122 16/331/97 232/333/97
f 232/333/97 16/331/97 18/334/97
f 232/333/97 18/334/97 19/335/97
f 231/332/176 230/330/175 233/336/177
f 231/332/176 233/336/177 234/337/178
f 234/337/178 233/336/177 235/338/179
f 236/339/127 237/340/127 114/341/127
f 114/341/127 237/340/127 238/342/127
f 236/339/127 114/341/127 239/343/127
f 114/341/127 238/342/127 112/344/127
f 236/339/127 239/343/127 240/345/127
f 112/344/127 238/342/127 241/346/127
f 112/344/127 241/346/127 108/347/127
f 108/347/127 241/346/127 104/348/127
f 104/348/127 241/346/127 242/349/127
f 104/348/127 242/349/127 243/350/127
f 104/348/127 243/350/127 100/351/127
f 100/351/127 243/350/127 96/352/127
f 96/352/127 243/350/127 244/353/127
f 96/352/127 244/353/127 245/354/127
f 96/352/127 245/354/127 92/355/127
f 92/355/127 245/354/127 89/356/127
f 89/356/127 245/354/127 246/357/127
f 89/356/127 246/357/127 247/358/127
f 89/356/127 247/358/127 93/359/127
f 93/359/127 247/358/127 99/360/127
f 99/360/127 247/358/127 248/361/127
f 99/360/127 248/361/127 249/362/127
f 99/360/127 249/362/127 103/363/127
f 103/363/127 249/362/127 107/364/127
f 107/364/127 249/362/127 250/365/127
f 107/364/127 250/365/127 251/366/127
f 107/364/127 251/366/127 111/367/127
f 111/367/127 251/366/127 116/368/127
f 116/368/127 251/366/127 252/369/127
f 116/368/127 252/369/127 253/370/127
f 116/368/127 253/370/127 2/371/127
f 2/371/127 253/370/127 3/372/127
f 3/372/127 253/370/127 254/373/127
f 3/372/127 254/373/127 5/374/127
f 5/374/127 254/373/127 255/375/127
f 5/374/127 255/375/127 7/376/127
f 7/376/127 255/375/127 10/377/127
f 256/378/127 257/379/127 239/343/127
f 239/343/127 257/379/127 240/345/127
f 240/345/127 257/379/127 258/380/127
f 27/381/180 29/29/181 259/382/182
f 259/382/182 29/29/181 31/31/183
f 260/383/184 164/210/185 163/209/186
f 260/383/184 163/209/186 26/384/187
f 212/385/188 259/382/188 31/31/188
f 188/386/189 164/210/189 260/383/189
f 169/387/190 190/388/190 189/389/191
f 190/388/190 169/387/190 170/390/192
f 169/387/190 189/389/191 165/391/191
f 165/391/191 189/389/191 52/57/44
f 52/57/44 189/389/191 51/56/44
f 190/388/190 170/390/192 192/392/192
f 192/392/192 170/390/192 173/393/193
f 192/392/192 173/393/193 196/394/193
f 196/394/193 173/393/193 176/395/194
f 196/394/193 176/395/194 198/396/194
f 198/396/194 176/395/194 199/397/195
f 199/397/195 176/395/194 177/398/195
f 257/399/196 138/400/197 139/401/198
f 257/399/196 139/401/198 258/402/199
f 138/400/197 257/399/196 256/403/200
f 138/400/197 256/403/200 135/404/200
f 135/404/200 256/403/200 239/405/201
f 135/404/200 239/405/201 134/406/201
f 134/406/201 239/405/201 114/121/78
f 134/406/201 114/121/78 113/120/93
f 143/407/202 142/408/203 234/409/204
f 143/407/202 234/409/204 235/410/202
f 234/409/204 142/408/203 141/411/200
f 234/409/204 141/411/200 231/412/205
f 231/412/205 141/411/200 145/413/206
f 231/412/205 145/413/206 229/414/207
f 229/414/207 145/413/206 86/93/78
f 229/414/207 86/93/78 85/92/77
