# CS2 body mesh, tools/cs2_glb_to_obj.py
v 0.01927 0.08018 0.0016
v 0.01927 0.08018 0.00699
v 0.02037 0.08009 0.00699
v 0.02037 0.08009 0.0016
v 0.01818 0.08009 0.0016
v 0.01818 0.08009 0.00699
v 0.01713 0.07975 0.00694
v 0.01713 0.07975 0.0016
v 0.01617 0.07925 0.00682
v 0.01617 0.07925 0.0016
v 0.01532 0.07854 0.00668
v 0.01532 0.07854 0.0016
v 0.0146 0.07772 0.00654
v 0.0146 0.07772 0.0016
v 0.01411 0.07673 0.00643
v 0.01411 0.07673 0.0016
v 0.01378 0.07568 0.00636
v 0.01378 0.07568 0.0016
v 0.01369 0.0746 0.0016
v 0.01369 0.0746 0.00634
v 0.01381 0.07346 0.0016
v 0.01381 0.07346 0.00634
v 0.0141 0.07251 0.0016
v 0.0141 0.07251 0.00634
v 0.01461 0.07262 0.00634
v 0.01461 0.07262 0.0016
v 0.01927 0.08018 0.02409
v 0.01927 0.08018 0.02949
v 0.02035 0.08009 0.02949
v 0.02035 0.08009 0.02409
v 0.01817 0.08009 0.02409
v 0.01817 0.08009 0.02949
v 0.01713 0.07975 0.02944
v 0.01713 0.07975 0.02409
v 0.01615 0.07925 0.02932
v 0.01615 0.07925 0.02409
v 0.01532 0.07854 0.02918
v 0.01532 0.07854 0.02409
v 0.01461 0.0777 0.02904
v 0.01461 0.0777 0.02409
v 0.01411 0.07673 0.02892
v 0.01411 0.07673 0.02409
v 0.01378 0.07568 0.02885
v 0.01378 0.07568 0.02409
v 0.01369 0.0746 0.02409
v 0.01369 0.0746 0.02884
v 0.01381 0.07346 0.02409
v 0.01381 0.07346 0.02884
v 0.0141 0.07251 0.02409
v 0.0141 0.07251 0.02884
v 0.01461 0.07262 0.02884
v 0.01461 0.07262 0.02409
v 0.03295 0.08011 0.02185
v 0.03295 0.08011 0.00817
v 0.03185 0.08018 0.02185
v 0.03185 0.08018 0.00817
v 0.03075 0.08008 0.02185
v 0.03075 0.08008 0.00817
v 0.02972 0.07975 0.00817
v 0.02972 0.07975 0.02185
v 0.02874 0.07925 0.00817
v 0.02874 0.07925 0.02185
v 0.02791 0.07854 0.02185
v 0.02791 0.07854 0.00817
v 0.0272 0.0777 0.02186
v 0.0272 0.0777 0.00816
v 0.0267 0.07673 0.02185
v 0.0267 0.07673 0.00817
v 0.02637 0.07567 0.00822
v 0.02637 0.07569 0.0218
v 0.02628 0.07465 0.02174
v 0.02628 0.07461 0.00828
v 0.02637 0.07358 0.02173
v 0.02636 0.07358 0.00829
v 0.02669 0.07251 0.02172
v 0.02668 0.07255 0.0083
v 0.0272 0.07262 0.02199
v 0.02721 0.07258 0.00803
v 0.02432 0.07455 0.00645
v 0.02483 0.07465 0.00623
v 0.0268 0.07459 0.00805
v 0.02431 0.07459 0.02409
v 0.02484 0.07461 0.02409
v 0.02679 0.07455 0.02196
v 0.03734 0.07568 0.02185
v 0.03734 0.07568 0.00817
v 0.03701 0.07673 0.00817
v 0.03743 0.0746 0.02185
v 0.03701 0.07673 0.02185
v 0.03743 0.0746 0.00817
v 0.03651 0.0777 0.02185
v 0.03732 0.0735 0.02185
v 0.03651 0.0777 0.00817
v 0.03732 0.0735 0.00817
v 0.03702 0.07251 0.02185
v 0.03702 0.07251 0.00817
v 0.0358 0.07854 0.02185
v 0.0358 0.07854 0.00817
v 0.03497 0.07924 0.02185
v 0.03497 0.07924 0.00817
v 0.03399 0.07975 0.02185
v 0.03399 0.07975 0.00817
v 0.02442 0.07251 0.00621
v 0.02391 0.07262 0.00648
v 0.02443 0.07251 0.00621
v 0.02443 0.07251 0.0016
v 0.0247 0.07356 0.0016
v 0.02469 0.07358 0.00622
v 0.02485 0.0746 0.0016
v 0.02484 0.07465 0.00623
v 0.02475 0.07567 0.0016
v 0.02475 0.07569 0.00633
v 0.02442 0.07673 0.0016
v 0.02442 0.07673 0.00643
v 0.02392 0.0777 0.0016
v 0.02392 0.0777 0.00655
v 0.02321 0.07854 0.0016
v 0.02321 0.07854 0.00668
v 0.02238 0.07925 0.0016
v 0.02238 0.07925 0.00682
v 0.0214 0.07975 0.0016
v 0.0214 0.07975 0.00694
v 0.02432 0.0746 0.02884
v 0.02418 0.07361 0.02884
v 0.0247 0.07356 0.02884
v 0.02443 0.07251 0.02884
v 0.02392 0.07262 0.02884
v 0.02485 0.0746 0.02884
v 0.02475 0.07567 0.02888
v 0.02424 0.07556 0.0289
v 0.02393 0.07653 0.02895
v 0.02442 0.07673 0.02892
v 0.02394 0.07772 0.02904
v 0.02349 0.07742 0.02907
v 0.02284 0.07817 0.02921
v 0.02321 0.07854 0.02918
v 0.02237 0.07925 0.02932
v 0.02207 0.07881 0.02934
v 0.0212 0.07926 0.02945
v 0.0214 0.07975 0.02944
v 0.02025 0.07957 0.02949
v 0.01927 0.07965 0.02949
v 0.01827 0.07956 0.02949
v 0.01734 0.07926 0.02945
v 0.01645 0.07881 0.02934
v 0.0157 0.07817 0.02921
v 0.01505 0.07741 0.02907
v 0.0146 0.07653 0.02895
v 0.0143 0.07558 0.02887
v 0.01422 0.0746 0.02884
v 0.01433 0.07351 0.02884
v 0.02444 0.07255 0.02409
v 0.0247 0.07358 0.02409
v 0.02475 0.07567 0.02409
v 0.02442 0.07673 0.02409
v 0.02394 0.07772 0.02409
v 0.02321 0.07854 0.02409
v 0.02237 0.07925 0.02409
v 0.0214 0.07975 0.02409
v 0.02418 0.07361 0.0016
v 0.02392 0.07262 0.0016
v 0.02432 0.0746 0.0016
v 0.02424 0.07556 0.0016
v 0.02393 0.07653 0.0016
v 0.02348 0.07741 0.0016
v 0.02284 0.07817 0.0016
v 0.02209 0.07881 0.0016
v 0.0212 0.07926 0.0016
v 0.02026 0.07956 0.0016
v 0.01927 0.07965 0.0016
v 0.01829 0.07957 0.0016
v 0.01734 0.07926 0.0016
v 0.01646 0.07881 0.0016
v 0.0157 0.07817 0.0016
v 0.01504 0.07742 0.0016
v 0.0146 0.07653 0.0016
v 0.0143 0.07558 0.0016
v 0.01422 0.0746 0.0016
v 0.01433 0.07351 0.0016
v 0.02443 0.07255 0.02409
v 0.02391 0.07258 0.02409
v 0.03652 0.07653 0.02185
v 0.03682 0.07558 0.02185
v 0.03607 0.07741 0.02185
v 0.0369 0.0746 0.02185
v 0.03542 0.07817 0.02185
v 0.03467 0.0788 0.02185
v 0.0368 0.07355 0.02185
v 0.03651 0.07262 0.02185
v 0.03378 0.07926 0.02185
v 0.03284 0.07958 0.02185
v 0.03185 0.07965 0.02185
v 0.03086 0.07956 0.02185
v 0.02992 0.07926 0.02185
v 0.02903 0.07881 0.02185
v 0.02828 0.07817 0.02185
v 0.02764 0.07741 0.02184
v 0.02719 0.07653 0.02185
v 0.02687 0.07554 0.02191
v 0.03682 0.07558 0.00817
v 0.03652 0.07653 0.00817
v 0.0369 0.0746 0.00817
v 0.03607 0.07741 0.00817
v 0.0368 0.07355 0.00817
v 0.03651 0.07262 0.00817
v 0.03542 0.07817 0.00817
v 0.03467 0.0788 0.00817
v 0.03378 0.07926 0.00817
v 0.03284 0.07958 0.00817
v 0.03185 0.07965 0.00817
v 0.03086 0.07956 0.00817
v 0.02992 0.07926 0.00817
v 0.02903 0.07881 0.00817
v 0.02828 0.07817 0.00817
v 0.02764 0.07741 0.00818
v 0.02719 0.07653 0.00817
v 0.02687 0.07556 0.00811
v 0.02688 0.07358 0.02197
v 0.02688 0.07358 0.00804
v 0.01829 0.07957 0.00699
v 0.01927 0.07965 0.00699
v 0.02026 0.07956 0.00699
v 0.01734 0.07926 0.00695
v 0.0212 0.07926 0.00695
v 0.01646 0.07881 0.00685
v 0.02209 0.07881 0.00685
v 0.0157 0.07817 0.00671
v 0.02284 0.07817 0.00671
v 0.01504 0.07742 0.00657
v 0.02348 0.07741 0.00656
v 0.0146 0.07653 0.00646
v 0.02393 0.07653 0.00646
v 0.0143 0.07558 0.00637
v 0.01422 0.0746 0.00634
v 0.01433 0.07351 0.00634
v 0.02432 0.07459 0.02409
v 0.02424 0.07556 0.02409
v 0.02393 0.07653 0.02409
v 0.02418 0.07358 0.02409
v 0.02349 0.07742 0.02409
v 0.02284 0.07817 0.02409
v 0.02207 0.07881 0.02409
v 0.0212 0.07926 0.02409
v 0.02025 0.07957 0.02409
v 0.01927 0.07965 0.02409
v 0.01827 0.07956 0.02409
v 0.01734 0.07926 0.02409
v 0.01645 0.07881 0.02409
v 0.0157 0.07817 0.02409
v 0.01505 0.07741 0.02409
v 0.0146 0.07653 0.02409
v 0.0143 0.07558 0.02409
v 0.01422 0.0746 0.02409
v 0.01433 0.07351 0.02409
v 0.02425 0.07554 0.00646
v 0.02433 0.07455 0.00645
v 0.02418 0.07358 0.00647
v 0.02392 0.07262 0.00648
vt 0.054474 0.092651
vt 0.054474 0.086609
vt 0.053253 0.086609
vt 0.053253 0.092651
vt 0.055695 0.092651
vt 0.055695 0.086609
vt 0.056915 0.08667
vt 0.056915 0.092651
vt 0.058136 0.086792
vt 0.058136 0.092651
vt 0.059387 0.086975
vt 0.059387 0.092651
vt 0.060608 0.087097
vt 0.060608 0.092651
vt 0.061829 0.087219
vt 0.061829 0.092651
vt 0.063049 0.087341
vt 0.063049 0.092651
vt 0.06427 0.092651
vt 0.06427 0.087341
vt 0.065552 0.092651
vt 0.065552 0.087341
vt 0.06665 0.092651
vt 0.06665 0.087341
vt 0.067261 0.087341
vt 0.067261 0.092651
vt 0.714844 0.392334
vt 0.714844 0.38623
vt 0.713867 0.38623
vt 0.713867 0.392334
vt 0.716309 0.392334
vt 0.716309 0.38623
vt 0.717285 0.386475
vt 0.717285 0.392334
vt 0.71875 0.386475
vt 0.71875 0.392334
vt 0.719727 0.386719
vt 0.719727 0.392334
vt 0.721191 0.386963
vt 0.721191 0.392334
vt 0.722168 0.386963
vt 0.722168 0.392334
vt 0.723633 0.386963
vt 0.723633 0.392334
vt 0.724609 0.392334
vt 0.724609 0.386963
vt 0.726074 0.392334
vt 0.726074 0.386963
vt 0.727051 0.392334
vt 0.727051 0.386963
vt 0.727539 0.386963
vt 0.727539 0.392334
vt 0.456055 0.124268
vt 0.471191 0.124207
vt 0.456055 0.123047
vt 0.471191 0.122986
vt 0.456055 0.121826
vt 0.471191 0.121765
vt 0.471191 0.120544
vt 0.456055 0.120605
vt 0.471191 0.119324
vt 0.456055 0.119385
vt 0.456055 0.118164
vt 0.471191 0.118103
vt 0.456055 0.116882
vt 0.471191 0.116882
vt 0.456055 0.115662
vt 0.471191 0.115662
vt 0.471191 0.11438
vt 0.456055 0.114441
vt 0.456055 0.113281
vt 0.471191 0.11322
vt 0.456055 0.112122
vt 0.471191 0.112061
vt 0.456055 0.11084
vt 0.471191 0.11084
vt 0.455811 0.110291
vt 0.471191 0.110291
vt 0.56543 0.005352
vt 0.564453 0.005455
vt 0.564453 0.00885
vt 0.563965 0.00856
vt 0.563965 0.005157
vt 0.96875 0.38501
vt 0.967773 0.384766
vt 0.96875 0.388672
vt 0.969238 0.388184
vt 0.969238 0.384766
vt 0.456055 0.131592
vt 0.471191 0.131592
vt 0.471191 0.130371
vt 0.456055 0.132812
vt 0.456055 0.130371
vt 0.471191 0.132812
vt 0.456055 0.12915
vt 0.456055 0.134033
vt 0.471191 0.12915
vt 0.471191 0.134033
vt 0.456055 0.135254
vt 0.471191 0.135132
vt 0.456055 0.12793
vt 0.471191 0.12793
vt 0.456055 0.126709
vt 0.471191 0.126709
vt 0.456055 0.125488
vt 0.471191 0.125488
vt 0.092285 0.088867
vt 0.092285 0.088257
vt 0.090027 0.088623
vt 0.090027 0.089233
vt 0.042297 0.087463
vt 0.042297 0.092651
vt 0.043488 0.092651
vt 0.043518 0.087463
vt 0.044678 0.092651
vt 0.044739 0.087463
vt 0.045868 0.092651
vt 0.045898 0.087341
vt 0.047119 0.092651
vt 0.047119 0.087219
vt 0.04834 0.092651
vt 0.04834 0.087097
vt 0.049561 0.092651
vt 0.049561 0.086975
vt 0.050781 0.092651
vt 0.050781 0.086792
vt 0.052032 0.092651
vt 0.052032 0.08667
vt 0.004658 0.142212
vt 0.0035 0.142212
vt 0.003529 0.1427
vt 0.00234 0.1427
vt 0.002346 0.142212
vt 0.004665 0.1427
vt 0.00581 0.1427
vt 0.005798 0.142212
vt 0.006992 0.142212
vt 0.007 0.1427
vt 0.008171 0.1427
vt 0.008171 0.142212
vt 0.009354 0.142212
vt 0.009354 0.1427
vt 0.010544 0.1427
vt 0.010536 0.142212
vt 0.011711 0.142212
vt 0.011703 0.1427
vt 0.012878 0.1427
vt 0.012894 0.142212
vt 0.014046 0.1427
vt 0.014053 0.142212
vt 0.015228 0.142212
vt 0.015228 0.1427
vt 0.016388 0.142212
vt 0.016388 0.1427
vt 0.017578 0.1427
vt 0.017563 0.142212
vt 0.018738 0.142212
vt 0.018738 0.1427
vt 0.019928 0.1427
vt 0.019928 0.142212
vt 0.021103 0.142212
vt 0.021103 0.1427
vt 0.022278 0.1427
vt 0.022278 0.142212
vt 0.023438 0.142212
vt 0.023438 0.1427
vt 0.024673 0.1427
vt 0.024704 0.142212
vt 0.025757 0.1427
vt 0.025757 0.142212
vt 0.702637 0.386963
vt 0.702637 0.392334
vt 0.704102 0.392334
vt 0.704102 0.386963
vt 0.705078 0.392334
vt 0.705078 0.386963
vt 0.706543 0.392334
vt 0.706543 0.386963
vt 0.70752 0.392334
vt 0.70752 0.386963
vt 0.708984 0.392334
vt 0.708984 0.386963
vt 0.709961 0.392334
vt 0.709961 0.386719
vt 0.711426 0.392334
vt 0.711426 0.386475
vt 0.712402 0.392334
vt 0.712402 0.386475
vt 0.388916 0.005196
vt 0.388672 0.005795
vt 0.389893 0.005795
vt 0.389893 0.005196
vt 0.387695 0.005196
vt 0.387695 0.005795
vt 0.386475 0.005795
vt 0.386475 0.005196
vt 0.385254 0.005196
vt 0.385254 0.005795
vt 0.384277 0.005196
vt 0.384277 0.005795
vt 0.383057 0.005795
vt 0.383057 0.005196
vt 0.381836 0.005196
vt 0.381836 0.005795
vt 0.380859 0.005795
vt 0.380859 0.005196
vt 0.379639 0.005196
vt 0.379639 0.005795
vt 0.378418 0.005795
vt 0.378418 0.005196
vt 0.377441 0.005196
vt 0.377441 0.005795
vt 0.376221 0.005795
vt 0.376221 0.005196
vt 0.375 0.005196
vt 0.375 0.005795
vt 0.374023 0.005795
vt 0.374023 0.005196
vt 0.372803 0.005196
vt 0.372803 0.005795
vt 0.371582 0.005795
vt 0.371582 0.005196
vt 0.370361 0.005196
vt 0.370361 0.005795
vt 0.369385 0.005795
vt 0.369385 0.005196
vt 0.368164 0.005795
vt 0.36792 0.005196
vt 0.366943 0.005795
vt 0.366943 0.005196
vt 0.775879 0.288574
vt 0.77832 0.289062
vt 0.77832 0.28833
vt 0.775879 0.288086
vt 0.301758 0.003206
vt 0.301758 0.003809
vt 0.302979 0.003809
vt 0.300781 0.003809
vt 0.302979 0.003206
vt 0.300781 0.003206
vt 0.304199 0.003206
vt 0.299561 0.003206
vt 0.304199 0.003809
vt 0.299561 0.003809
vt 0.30542 0.003206
vt 0.29834 0.003809
vt 0.30542 0.003809
vt 0.306396 0.003206
vt 0.306396 0.003809
vt 0.29834 0.003206
vt 0.297119 0.003206
vt 0.297119 0.003809
vt 0.296143 0.003809
vt 0.296143 0.003206
vt 0.294922 0.003206
vt 0.294922 0.003809
vt 0.293701 0.003809
vt 0.293701 0.003206
vt 0.292725 0.003206
vt 0.292725 0.003809
vt 0.291504 0.003809
vt 0.291504 0.003206
vt 0.290283 0.003206
vt 0.290283 0.003809
vt 0.289062 0.003206
vt 0.289062 0.003809
vt 0.288086 0.003809
vt 0.288086 0.003206
vt 0.286865 0.003206
vt 0.286865 0.003809
vt 0.285889 0.003206
vt 0.285889 0.003809
vt 0.566895 0.009171
vt 0.566895 0.005013
vt 0.966309 0.384277
vt 0.966309 0.388916
vt 0.264648 0.00322
vt 0.263672 0.00322
vt 0.263672 0.003809
vt 0.262451 0.00322
vt 0.264648 0.003809
vt 0.262451 0.003809
vt 0.265869 0.003809
vt 0.26123 0.00322
vt 0.265869 0.00322
vt 0.26123 0.003809
vt 0.26001 0.00322
vt 0.26001 0.003809
vt 0.26709 0.00322
vt 0.26709 0.003809
vt 0.268311 0.003809
vt 0.268311 0.00322
vt 0.269531 0.00322
vt 0.269531 0.003809
vt 0.270508 0.003809
vt 0.270508 0.00322
vt 0.271729 0.00322
vt 0.271729 0.003809
vt 0.272949 0.003809
vt 0.272949 0.00322
vt 0.27417 0.00322
vt 0.27417 0.003809
vt 0.275391 0.003809
vt 0.275391 0.00322
vt 0.276367 0.00322
vt 0.276367 0.003809
vt 0.277588 0.00322
vt 0.277588 0.003809
vt 0.278809 0.003809
vt 0.278809 0.00322
vt 0.280029 0.00322
vt 0.280029 0.003809
vt 0.28125 0.003809
vt 0.28125 0.00322
vt 0.77832 0.292725
vt 0.776855 0.292725
vt 0.092285 0.084839
vt 0.091187 0.084717
vt 0.775879 0.292969
vt 0.090027 0.084412
vt 0.983887 0.17041
vt 0.982422 0.17041
vt 0.982422 0.171021
vt 0.981445 0.17041
vt 0.983887 0.171021
vt 0.981445 0.171021
vt 0.984863 0.17041
vt 0.980469 0.17041
vt 0.984863 0.171021
vt 0.980469 0.171021
vt 0.986328 0.171021
vt 0.979004 0.171021
vt 0.986328 0.17041
vt 0.979004 0.17041
vt 0.987305 0.17041
vt 0.978027 0.17041
vt 0.987305 0.171021
vt 0.978027 0.171021
vt 0.988281 0.171021
vt 0.976562 0.171021
vt 0.988281 0.17041
vt 0.976562 0.17041
vt 0.989746 0.17041
vt 0.975586 0.17041
vt 0.975586 0.171021
vt 0.974121 0.171021
vt 0.989746 0.171021
vt 0.990723 0.171021
vt 0.990723 0.17041
vt 0.992188 0.17041
vt 0.992188 0.171021
vt 0.993164 0.171021
vt 0.993164 0.17041
vt 0.994141 0.171021
vt 0.994141 0.17041
vt 0.586914 0.005295
vt 0.587891 0.005295
vt 0.587891 0.004696
vt 0.588867 0.005295
vt 0.586914 0.004696
vt 0.588867 0.004696
vt 0.585938 0.005295
vt 0.589844 0.005295
vt 0.589844 0.004696
vt 0.591309 0.004696
vt 0.591309 0.005295
vt 0.592285 0.005295
vt 0.592285 0.004696
vt 0.59375 0.004696
vt 0.59375 0.005295
vt 0.594727 0.005295
vt 0.594727 0.004696
vt 0.595703 0.004696
vt 0.595703 0.005295
vt 0.597168 0.005295
vt 0.597168 0.004696
vt 0.598145 0.004696
vt 0.598145 0.005295
vt 0.599609 0.005295
vt 0.599609 0.004696
vt 0.600586 0.004696
vt 0.600586 0.005295
vt 0.601562 0.005295
vt 0.602051 0.004696
vt 0.603027 0.004696
vt 0.603027 0.005295
vt 0.604004 0.005295
vt 0.604004 0.004696
vt 0.605469 0.004696
vt 0.605469 0.005295
vt 0.606445 0.004696
vt 0.606445 0.005295
vt 0.60791 0.004696
vt 0.60791 0.005295
vt 0.585938 0.004696
vt 0.584961 0.004696
vt 0.584961 0.005295
vt 0.974121 0.17041
vt 0.973145 0.171021
vt 0.973145 0.17041
vt 0.972168 0.171021
vt 0.972168 0.17041
vt 0.970703 0.171021
vt 0.970703 0.17041
vt 0.041718 0.092651
vt 0.041718 0.087158
vt 0.702148 0.386963
vt 0.702148 0.392334
vt 0.471191 0.135742
vt 0.455811 0.135742
vt 0.567383 0.00882
vt 0.567383 0.00465
vt 0.966309 0.384033
vt 0.966309 0.388428
vn 0.001 1 -0.001
vn 0.1943 0.9809 -0.0011
vn -0.1943 0.9809 -0.0011
vn -0.3791 0.9254 -0.0013
vn -0.3822 0.9241 -0.0013
vn -0.5487 0.836 -0.0014
vn -0.555 0.8318 0.0014
vn -0.696 0.7181 0.0014
vn -0.6988 0.7154 0.0014
vn -0.8255 0.5644 0.0014
vn -0.8318 0.555 0.0014
vn -0.9266 0.376 0.0013
vn -0.9279 0.3729 0.0013
vn -0.9804 0.197 0.0012
vn -0.9809 0.1943 0.0011
vn -0.9999 -0.0149 0
vn -0.981 -0.1941 0
vn -0.7242 -0.6896 0
vn 0.1955 -0.9807 0
vn -0.001 1 -0.001
vn -0.3791 0.9254 0.0013
vn -0.3822 0.9241 0.0013
vn -0.5487 0.836 0.0014
vn -0.555 0.8318 -0.0014
vn -0.7043 0.7099 -0.0014
vn -0.7071 0.7071 0.0014
vn -0.9228 0.3853 0.0013
vn -0.9241 0.3822 0.0013
vn -0.9999 -0.0169 0
vn -0.0109 0.9999 -0.001
vn -0.7099 0.7043 -0.0014
vn -0.9254 0.3791 -0.0013
vn -0.9254 0.3791 0.0013
vn -0.9799 0.1997 0.0012
vn -0.9804 0.197 -0.0012
vn -1 0.0049 0.001
vn -0.9825 -0.1862 0
vn -0.9815 -0.1915 0
vn -0.6882 -0.7255 0
vn -0.6939 -0.7201 0
vn 0.1906 -0.9817 -0.0023
vn 0.0536 -0.9986 0.0021
vn -0.6817 -0.0471 0.7302
vn -0.5814 0.5039 0.6387
vn -0.4505 0.765 0.4603
vn -0.1252 0.9862 0.1085
vn 0.0335 0.9994 -0.0051
vn -0.6747 0.4637 -0.5742
vn -0.7648 -0.0528 -0.6421
vn -0.5742 0.6747 -0.4637
vn -0.017 0.9998 0.007
vn 0.1491 0.9829 0.1079
vn 0.9809 0.1943 -0.0011
vn 0.9254 0.3791 -0.0013
vn 0.9999 -0.0109 0
vn 0.8318 0.555 -0.0014
vn 0.981 -0.1941 0
vn 0.7349 -0.6782 0
vn 0.7071 0.7071 -0.0014
vn 0.555 0.8318 -0.0014
vn 0.3945 0.9189 -0.0013
vn -0.4172 0.0867 -0.9047
vn -0.4115 0.0895 -0.907
vn -0.4428 0.0847 -0.8926
vn -0.4485 0.0819 -0.89
vn 0.6952 -0.7188 0.0028
vn 0.7707 -0.6372 0
vn 0.9804 -0.1968 0
vn 0.9824 -0.1866 0.0023
vn 0.9997 -0.0251 0.002
vn 0.9998 -0.019 0.002
vn 0.9809 0.1943 0.0012
vn 0.9793 0.2023 0.0012
vn 0.9266 0.376 -0.0013
vn 0.9241 0.3822 0.0013
vn 0.8318 0.555 0.0014
vn 0.8276 0.5613 0.0014
vn 0.7071 0.7071 0.0014
vn 0.7043 0.7099 -0.0014
vn 0.555 0.8318 0.0014
vn 0.5487 0.836 -0.0014
vn 0.3822 0.9241 -0.0013
vn 0.3791 0.9254 -0.0013
vn 0.006 -0.0211 0.9998
vn 0 -0.001 1
vn 0 -0.021 0.9998
vn 0.0379 -0.0411 0.9984
vn 0.0382 -0.0499 0.998
vn 0.079 -0.0472 0.9958
vn 0.0786 -0.0426 0.996
vn 0.1198 -0.068 0.9905
vn 0.1228 -0.073 0.9897
vn 0.1286 -0.0563 0.9901
vn 0.1284 -0.0539 0.9903
vn 0.1187 -0.0347 0.9923
vn 0.1209 -0.0325 0.9921
vn 0.0743 -0.0138 0.9971
vn 0.0765 -0.0138 0.997
vn 0.02 -0.003 0.9998
vn -0.02 -0.003 0.9998
vn -0.0744 -0.0159 0.9971
vn -0.0765 -0.0138 0.997
vn -0.1187 -0.0347 0.9923
vn -0.1209 -0.0325 0.9921
vn -0.1286 -0.0563 0.9901
vn -0.1284 -0.0539 0.9903
vn -0.1175 -0.0703 0.9906
vn -0.1228 -0.073 0.9897
vn -0.0846 -0.059 0.9947
vn -0.0844 -0.0566 0.9948
vn -0.0423 -0.0412 0.9983
vn -0.0449 -0.0502 0.9977
vn -0.0059 -0.0069 1
vn 0 -0.0069 1
vn 0.7696 -0.6386 -0.0028
vn 0.7866 -0.6175 0.0028
vn 0.9997 -0.023 0
vn 0.9804 0.197 -0.0012
vn 0.9303 0.3668 0.0013
vn 0.9291 0.3699 -0.0013
vn 0.8255 0.5644 -0.0014
vn 0.6988 0.7154 -0.0014
vn 0.696 0.7181 0.0014
vn 0.5487 0.836 0.0014
vn 0.3822 0.9241 0.0013
vn 0.3791 0.9254 0.0013
vn 0 -0.001 -1
vn 0.0029 0.0029 1
vn 0.0059 -0.001 1
vn 0.0202 -0.0131 0.9997
vn 0.0308 -0.0195 0.9993
vn -0.0283 -0.0071 0.9996
vn -0.0122 -0.0274 0.9995
vn -0.1765 0.0196 0.9841
vn -0.2326 0.0554 0.971
vn -0.3383 0.048 0.9398
vn -0.3834 0.0826 0.9199
vn -0.5856 -0.0378 0.8097
vn -0.6246 0.1393 0.7684
vn -0.6174 0.0949 0.7809
vn -0.5469 -0.1599 0.8218
vn -0.6389 -0.1858 -0.7465
vn -0.711 0.0986 -0.6963
vn -0.6797 -0.0559 -0.7313
vn -0.7162 0.1432 -0.683
vn 0.0029 0.0029 -1
vn 0.0059 -0.001 -1
vn 0.0202 -0.0152 -0.9997
vn 0.0308 -0.0216 -0.9993
vn -0.0303 -0.0051 -0.9995
vn -0.0122 -0.0274 -0.9995
vn -0.2093 0.052 -0.9765
vn -0.1976 0.0982 -0.9754
vn -0.351 0.0089 -0.9363
vn -0.3986 -0.0169 -0.917
vn 0.7364 0.0709 0.6728
vn 0.6779 0.0619 -0.7326
vn 0.6419 0.0558 0.7648
vn 0.681 -0.1335 0.72
vn 0.6742 -0.0923 0.7328
vn 0.59 0.2049 0.781
vn 0.5353 0.1824 -0.8248
vn 0.6154 -0.0705 -0.7851
vn 0.5833 0.0436 -0.8111
vn 0.6239 -0.1074 -0.774
vn -0.0743 -0.0138 0.9971
vn 0.0744 -0.0159 0.9971
vn 0.1238 -0.0585 0.9906
vn 0.1256 -0.0514 0.9908
vn -0.1198 -0.068 0.9905
vn 0.0987 -0.0838 0.9916
vn 0.092 -0.0932 0.9914
vn 0.1083 -0.053 0.9927
vn 0.0903 -0.0711 0.9934
vn 0.2207 -0.0178 0.9752
vn -0.0842 -0.0543 0.995
vn -0.0448 -0.048 0.9978
vn 0.2662 0.0134 0.9638
vn 0.3802 -0.0273 0.9245
vn 0.4068 -0.0223 0.9133
vn 0.4269 -0.0813 0.9006
vn 0.4322 -0.0873 0.8976
vn 0.4365 -0.1112 0.8928
vn 0.4423 -0.1085 0.8903
vn -0.1955 -0.9807 0
vn -0.1862 -0.9825 -0.0069
vn -0.0517 -0.9986 0.0083
vn -0.0836 -0.9847 0.1528
vn -0.0986 -0.9778 0.185
vn 0.004 -0.9995 -0.0303
vn 0.019 -0.9978 -0.0634
vn 0.1178 -0.9848 0.1275
vn 0.1264 -0.9829 0.1337
vn -0.035 -0.9992 -0.0185
vn -0.053 -0.998 -0.0339
o bullet_scaffold16__p1_c0
f 1/1/1 2/2/1 3/3/2
f 1/1/1 3/3/2 4/4/2
f 2/2/1 1/1/1 5/5/3
f 2/2/1 5/5/3 6/6/3
f 6/6/3 5/5/3 7/7/4
f 7/7/4 5/5/3 8/8/5
f 7/7/4 8/8/5 9/9/6
f 9/9/6 8/8/5 10/10/7
f 9/9/6 10/10/7 11/11/8
f 11/11/8 10/10/7 12/12/9
f 11/11/8 12/12/9 13/13/10
f 13/13/10 12/12/9 14/14/11
f 13/13/10 14/14/11 15/15/12
f 15/15/12 14/14/11 16/16/13
f 15/15/12 16/16/13 17/17/14
f 17/17/14 16/16/13 18/18/15
f 17/17/14 18/18/15 19/19/16
f 17/17/14 19/19/16 20/20/16
f 20/20/16 19/19/16 21/21/17
f 20/20/16 21/21/17 22/22/17
f 22/22/17 21/21/17 23/23/18
f 22/22/17 23/23/18 24/24/18
f 24/24/18 23/23/18 25/25/19
f 25/25/19 23/23/18 26/26/19
f 27/27/20 28/28/20 29/29/2
f 27/27/20 29/29/2 30/30/2
f 28/28/20 27/27/20 31/31/3
f 28/28/20 31/31/3 32/32/3
f 32/32/3 31/31/3 33/33/21
f 33/33/21 31/31/3 34/34/22
f 33/33/21 34/34/22 35/35/23
f 35/35/23 34/34/22 36/36/24
f 35/35/23 36/36/24 37/37/25
f 37/37/25 36/36/24 38/38/26
f 37/37/25 38/38/26 39/39/10
f 39/39/10 38/38/26 40/40/11
f 39/39/10 40/40/11 41/41/27
f 41/41/27 40/40/11 42/42/28
f 41/41/27 42/42/28 43/43/14
f 43/43/14 42/42/28 44/44/15
f 43/43/14 44/44/15 45/45/29
f 43/43/14 45/45/29 46/46/29
f 46/46/29 45/45/29 47/47/17
f 46/46/29 47/47/17 48/48/17
f 48/48/17 47/47/17 49/49/18
f 48/48/17 49/49/18 50/50/18
f 50/50/18 49/49/18 51/51/19
f 51/51/19 49/49/18 52/52/19
f 53/53/2 54/54/2 55/55/30
f 55/55/30 54/54/2 56/56/30
f 55/55/30 56/56/30 57/57/3
f 57/57/3 56/56/30 58/58/3
f 57/57/3 58/58/3 59/59/5
f 57/57/3 59/59/5 60/60/5
f 60/60/5 59/59/5 61/61/24
f 60/60/5 61/61/24 62/62/24
f 62/62/24 61/61/24 63/63/31
f 63/63/31 61/61/24 64/64/31
f 63/63/31 64/64/31 65/65/11
f 65/65/11 64/64/31 66/66/11
f 65/65/11 66/66/11 67/67/32
f 67/67/32 66/66/11 68/68/33
f 67/67/32 68/68/33 69/69/34
f 67/67/32 69/69/34 70/70/35
f 70/70/35 69/69/34 71/71/36
f 71/71/36 69/69/34 72/72/36
f 71/71/36 72/72/36 73/73/37
f 73/73/37 72/72/36 74/74/38
f 73/73/37 74/74/38 75/75/39
f 75/75/39 74/74/38 76/76/40
f 75/75/39 76/76/40 77/77/41
f 77/77/41 76/76/40 78/78/42
f 74/79/43 72/80/44 79/81/45
f 79/81/45 72/80/44 80/82/46
f 80/82/46 72/80/44 81/83/47
f 71/84/48 73/85/49 82/86/50
f 71/84/48 82/86/50 83/87/51
f 71/84/48 83/87/51 84/88/52
f 85/89/53 86/90/53 87/91/54
f 86/90/53 85/89/53 88/92/55
f 85/89/53 87/91/54 89/93/54
f 86/90/53 88/92/55 90/94/55
f 89/93/54 87/91/54 91/95/56
f 90/94/55 88/92/55 92/96/57
f 91/95/56 87/91/54 93/97/56
f 90/94/55 92/96/57 94/98/57
f 94/98/57 92/96/57 95/99/58
f 94/98/57 95/99/58 96/100/58
f 91/95/56 93/97/56 97/101/59
f 97/101/59 93/97/56 98/102/59
f 97/101/59 98/102/59 99/103/60
f 99/103/60 98/102/59 100/104/60
f 99/103/60 100/104/60 101/105/61
f 101/105/61 100/104/60 102/106/61
f 101/105/61 102/106/61 54/54/2
f 101/105/61 54/54/2 53/53/2
f 79/107/62 80/108/63 103/109/64
f 79/107/62 103/109/64 104/110/65
f 105/111/66 106/112/67 107/113/68
f 105/111/66 107/113/68 108/114/69
f 108/114/69 107/113/68 109/115/70
f 108/114/69 109/115/70 110/116/71
f 110/116/71 109/115/70 111/117/72
f 110/116/71 111/117/72 112/118/73
f 112/118/73 111/117/72 113/119/74
f 112/118/73 113/119/74 114/120/75
f 114/120/75 113/119/74 115/121/76
f 114/120/75 115/121/76 116/122/77
f 116/122/77 115/121/76 117/123/78
f 116/122/77 117/123/78 118/124/79
f 118/124/79 117/123/78 119/125/80
f 118/124/79 119/125/80 120/126/81
f 120/126/81 119/125/80 121/127/82
f 120/126/81 121/127/82 122/128/83
f 122/128/83 121/127/82 4/4/2
f 122/128/83 4/4/2 3/3/2
f 123/129/84 124/130/85 125/131/85
f 125/131/85 124/130/85 126/132/85
f 126/132/85 124/130/85 127/133/85
f 123/129/84 125/131/85 128/134/86
f 123/129/84 128/134/86 129/135/87
f 123/129/84 129/135/87 130/136/88
f 130/136/88 129/135/87 131/137/89
f 131/137/89 129/135/87 132/138/90
f 131/137/89 132/138/90 133/139/91
f 131/137/89 133/139/91 134/140/92
f 134/140/92 133/139/91 135/141/93
f 135/141/93 133/139/91 136/142/94
f 135/141/93 136/142/94 137/143/95
f 135/141/93 137/143/95 138/144/96
f 138/144/96 137/143/95 139/145/97
f 139/145/97 137/143/95 140/146/98
f 139/145/97 140/146/98 29/147/99
f 139/145/97 29/147/99 141/148/99
f 141/148/99 29/147/99 28/149/85
f 141/148/99 28/149/85 142/150/85
f 142/150/85 28/149/85 143/151/100
f 143/151/100 28/149/85 32/152/100
f 143/151/100 32/152/100 144/153/101
f 144/153/101 32/152/100 33/154/102
f 144/153/101 33/154/102 35/155/103
f 144/153/101 35/155/103 145/156/104
f 145/156/104 35/155/103 146/157/105
f 146/157/105 35/155/103 37/158/106
f 146/157/105 37/158/106 39/159/107
f 146/157/105 39/159/107 147/160/108
f 147/160/108 39/159/107 148/161/109
f 148/161/109 39/159/107 41/162/110
f 148/161/109 41/162/110 43/163/111
f 148/161/109 43/163/111 149/164/112
f 149/164/112 43/163/111 150/165/113
f 150/165/113 43/163/111 46/166/114
f 150/165/113 46/166/114 48/167/85
f 150/165/113 48/167/85 151/168/85
f 151/168/85 48/167/85 50/169/85
f 151/168/85 50/169/85 51/170/85
f 126/171/115 152/172/116 153/173/57
f 126/171/115 153/173/57 125/174/68
f 125/174/68 153/173/57 83/175/117
f 125/174/68 83/175/117 128/176/117
f 128/176/117 83/175/117 154/177/53
f 128/176/117 154/177/53 129/178/118
f 129/178/118 154/177/53 155/179/119
f 129/178/118 155/179/119 132/180/120
f 132/180/120 155/179/119 156/181/56
f 132/180/120 156/181/56 133/182/121
f 133/182/121 156/181/56 157/183/122
f 133/182/121 157/183/122 136/184/123
f 136/184/123 157/183/122 158/185/80
f 136/184/123 158/185/80 137/186/124
f 137/186/124 158/185/80 159/187/125
f 137/186/124 159/187/125 140/188/126
f 140/188/126 159/187/125 30/30/2
f 140/188/126 30/30/2 29/29/2
f 160/189/127 107/190/127 106/191/127
f 160/189/127 106/191/127 161/192/127
f 107/190/127 160/189/127 162/193/127
f 107/190/127 162/193/127 109/194/127
f 109/194/127 162/193/127 111/195/127
f 111/195/127 162/193/127 163/196/127
f 111/195/127 163/196/127 164/197/127
f 111/195/127 164/197/127 113/198/127
f 113/198/127 164/197/127 165/199/127
f 113/198/127 165/199/127 115/200/127
f 115/200/127 165/199/127 117/201/127
f 117/201/127 165/199/127 166/202/127
f 117/201/127 166/202/127 167/203/127
f 117/201/127 167/203/127 119/204/127
f 119/204/127 167/203/127 121/205/127
f 121/205/127 167/203/127 168/206/127
f 121/205/127 168/206/127 169/207/127
f 121/205/127 169/207/127 4/208/127
f 4/208/127 169/207/127 1/209/127
f 1/209/127 169/207/127 170/210/127
f 1/209/127 170/210/127 171/211/127
f 1/209/127 171/211/127 5/212/127
f 5/212/127 171/211/127 8/213/127
f 8/213/127 171/211/127 172/214/127
f 8/213/127 172/214/127 173/215/127
f 8/213/127 173/215/127 10/216/127
f 10/216/127 173/215/127 12/217/127
f 12/217/127 173/215/127 174/218/127
f 12/217/127 174/218/127 175/219/127
f 12/217/127 175/219/127 14/220/127
f 14/220/127 175/219/127 16/221/127
f 16/221/127 175/219/127 176/222/127
f 16/221/127 176/222/127 177/223/127
f 16/221/127 177/223/127 18/224/127
f 18/224/127 177/223/127 19/225/127
f 19/225/127 177/223/127 178/226/127
f 19/225/127 178/226/127 21/227/127
f 21/227/127 178/226/127 179/228/127
f 21/227/127 179/228/127 23/229/127
f 23/229/127 179/228/127 26/230/127
f 180/231/85 83/232/85 82/233/85
f 180/231/85 82/233/85 181/234/85
f 89/235/85 182/236/85 183/237/85
f 182/236/85 89/235/85 184/238/85
f 89/235/85 183/237/85 85/239/85
f 184/238/85 89/235/85 91/240/85
f 85/239/85 183/237/85 88/241/85
f 184/238/85 91/240/85 97/242/85
f 88/241/85 183/237/85 185/243/85
f 184/238/85 97/242/85 186/244/85
f 88/241/85 185/243/85 92/245/85
f 186/244/85 97/242/85 187/246/85
f 92/245/85 185/243/85 188/247/85
f 92/245/85 188/247/85 95/248/85
f 95/248/85 188/247/85 189/249/85
f 187/246/85 97/242/85 99/250/85
f 187/246/85 99/250/85 101/251/85
f 187/246/85 101/251/85 190/252/85
f 190/252/85 101/251/85 191/253/85
f 191/253/85 101/251/85 53/254/85
f 191/253/85 53/254/85 55/255/85
f 191/253/85 55/255/85 192/256/85
f 192/256/85 55/255/85 193/257/85
f 193/257/85 55/255/85 57/258/85
f 193/257/85 57/258/85 60/259/85
f 193/257/85 60/259/85 194/260/85
f 194/260/85 60/259/85 195/261/85
f 195/261/85 60/259/85 62/262/85
f 195/261/85 62/262/85 63/263/128
f 195/261/85 63/263/128 196/264/129
f 196/264/129 63/263/128 65/265/130
f 196/264/129 65/265/130 197/266/131
f 197/266/131 65/265/130 198/267/132
f 198/267/132 65/265/130 67/268/133
f 198/267/132 67/268/133 70/269/134
f 198/267/132 70/269/134 199/270/135
f 199/270/135 70/269/134 71/271/136
f 199/270/135 71/271/136 84/272/137
f 74/79/138 79/81/139 104/273/140
f 74/79/138 104/273/140 76/274/141
f 75/275/142 181/276/143 73/85/144
f 73/85/144 181/276/143 82/86/145
f 87/277/127 86/278/127 200/279/127
f 200/279/127 86/278/127 90/280/127
f 87/277/127 200/279/127 201/281/127
f 200/279/127 90/280/127 202/282/127
f 87/277/127 201/281/127 203/283/127
f 202/282/127 90/280/127 94/284/127
f 87/277/127 203/283/127 93/285/127
f 202/282/127 94/284/127 204/286/127
f 204/286/127 94/284/127 96/287/127
f 204/286/127 96/287/127 205/288/127
f 93/285/127 203/283/127 98/289/127
f 98/289/127 203/283/127 206/290/127
f 98/289/127 206/290/127 207/291/127
f 98/289/127 207/291/127 100/292/127
f 100/292/127 207/291/127 102/293/127
f 102/293/127 207/291/127 208/294/127
f 102/293/127 208/294/127 209/295/127
f 102/293/127 209/295/127 54/296/127
f 54/296/127 209/295/127 56/297/127
f 56/297/127 209/295/127 210/298/127
f 56/297/127 210/298/127 211/299/127
f 56/297/127 211/299/127 58/300/127
f 58/300/127 211/299/127 59/301/127
f 59/301/127 211/299/127 212/302/127
f 59/301/127 212/302/127 213/303/127
f 59/301/127 213/303/127 61/304/127
f 61/304/127 213/303/127 64/305/146
f 64/305/146 213/303/127 214/306/147
f 64/305/146 214/306/147 66/307/148
f 66/307/148 214/306/147 215/308/149
f 66/307/148 215/308/149 216/309/150
f 66/307/148 216/309/150 68/310/151
f 68/310/151 216/309/150 69/311/152
f 69/311/152 216/309/150 217/312/153
f 69/311/152 217/312/153 81/313/154
f 69/311/152 81/313/154 72/314/155
f 84/315/156 83/232/156 218/316/156
f 81/317/157 219/318/157 80/108/157
f 218/316/158 83/232/159 180/231/160
f 218/316/158 180/231/160 77/319/161
f 78/320/162 103/109/163 219/318/164
f 219/318/164 103/109/163 80/108/165
f 220/321/100 221/322/85 2/323/85
f 2/323/85 221/322/85 222/324/99
f 220/321/100 2/323/85 6/325/100
f 2/323/85 222/324/99 3/326/99
f 220/321/100 6/325/100 223/327/166
f 3/326/99 222/324/99 224/328/167
f 223/327/166 6/325/100 7/329/102
f 3/326/99 224/328/167 122/330/98
f 223/327/166 7/329/102 9/331/103
f 122/330/98 224/328/167 120/332/95
f 223/327/166 9/331/103 225/333/104
f 120/332/95 224/328/167 226/334/96
f 225/333/104 9/331/103 227/335/105
f 120/332/95 226/334/96 228/336/168
f 227/335/105 9/331/103 11/337/106
f 120/332/95 228/336/168 118/338/169
f 227/335/105 11/337/106 13/339/170
f 118/338/169 228/336/168 116/340/171
f 227/335/105 13/339/170 229/341/108
f 116/340/171 228/336/168 230/342/172
f 229/341/108 13/339/170 231/343/109
f 116/340/171 230/342/172 232/344/173
f 116/340/171 232/344/173 114/345/174
f 114/345/174 232/344/173 112/346/175
f 231/343/109 13/339/170 15/347/176
f 231/343/109 15/347/176 17/348/111
f 231/343/109 17/348/111 233/349/177
f 233/349/177 17/348/111 234/350/113
f 234/350/113 17/348/111 20/351/114
f 234/350/113 20/351/114 22/352/85
f 234/350/113 22/352/85 235/353/85
f 235/353/85 22/352/85 24/354/85
f 235/353/85 24/354/85 25/355/85
f 236/356/127 237/357/127 154/358/127
f 154/358/127 237/357/127 238/359/127
f 236/356/127 154/358/127 83/360/127
f 154/358/127 238/359/127 155/361/127
f 236/356/127 83/360/127 239/362/127
f 155/361/127 238/359/127 240/363/127
f 155/361/127 240/363/127 156/364/127
f 156/364/127 240/363/127 157/365/127
f 157/365/127 240/363/127 241/366/127
f 157/365/127 241/366/127 242/367/127
f 157/365/127 242/367/127 158/368/127
f 158/368/127 242/367/127 159/369/127
f 159/369/127 242/367/127 243/370/127
f 159/369/127 243/370/127 244/371/127
f 159/369/127 244/371/127 30/372/127
f 30/372/127 244/371/127 27/373/127
f 27/373/127 244/371/127 245/374/127
f 27/373/127 245/374/127 246/375/127
f 27/373/127 246/375/127 31/376/127
f 31/376/127 246/375/127 34/377/127
f 34/377/127 246/375/127 247/378/127
f 34/377/127 247/378/127 248/379/127
f 34/377/127 248/379/127 36/380/127
f 36/380/127 248/379/127 38/381/127
f 38/381/127 248/379/127 249/382/127
f 38/381/127 249/382/127 250/383/127
f 38/381/127 250/383/127 40/384/127
f 40/384/127 250/383/127 42/385/127
f 42/385/127 250/383/127 251/386/127
f 42/385/127 251/386/127 252/387/127
f 42/385/127 252/387/127 44/388/127
f 44/388/127 252/387/127 45/389/127
f 45/389/127 252/387/127 253/390/127
f 45/389/127 253/390/127 47/391/127
f 47/391/127 253/390/127 254/392/127
f 47/391/127 254/392/127 49/393/127
f 49/393/127 254/392/127 52/394/127
f 153/395/127 152/396/127 83/360/127
f 83/360/127 152/396/127 239/362/127
f 239/362/127 152/396/127 181/397/127
f 232/344/173 255/398/178 112/346/175
f 112/346/175 255/398/178 110/399/179
f 110/399/179 255/398/178 256/400/180
f 110/399/179 256/400/180 108/401/181
f 108/401/181 256/400/180 257/402/182
f 108/401/181 257/402/182 105/403/183
f 105/403/183 257/402/182 258/404/184
f 161/405/185 106/112/67 105/111/66
f 161/405/185 105/111/66 258/406/185
f 152/172/116 126/171/115 127/407/186
f 152/172/116 127/407/186 181/408/187
f 96/100/58 95/99/58 205/409/185
f 205/409/185 95/99/58 189/410/185
f 104/273/188 103/411/189 78/412/190
f 104/273/188 78/412/190 76/274/191
f 75/275/192 77/413/193 180/414/194
f 75/275/192 180/414/194 181/276/195
