# CS2 body mesh, tools/cs2_glb_to_obj.py
v 0.04525 -0.04472 -0.00212
v 0.04525 -0.04472 0.03313
v 0.04424 -0.04481 0.03313
v 0.04426 -0.04293 0.03688
v 0.04552 -0.04269 0.03688
v 0.04426 -0.04293 0.04225
v 0.04552 -0.04269 0.04225
v 0.043 -0.04267 0.04225
v 0.043 -0.04267 0.03688
v 0.04194 -0.04195 0.04225
v 0.04323 -0.04471 0.03313
v 0.04424 -0.04481 -0.00212
v 0.04425 -0.04404 -0.00294
v 0.04594 -0.04372 -0.00294
v 0.04323 -0.04471 -0.00212
v 0.04226 -0.0444 0.03313
v 0.04194 -0.04195 0.03688
v 0.04123 -0.04087 0.04225
v 0.04123 -0.04087 0.03688
v 0.04257 -0.04369 -0.00294
v 0.03996 -0.04247 0.03313
v 0.03948 -0.04158 0.03313
v 0.04226 -0.0444 -0.00212
v 0.04137 -0.04392 0.03313
v 0.04059 -0.04327 0.03313
v 0.04137 -0.04392 -0.00212
v 0.04059 -0.04327 -0.00212
v 0.03996 -0.04247 -0.00212
v 0.03948 -0.04158 -0.00212
v 0.04021 -0.04128 -0.00294
v 0.04115 -0.04272 -0.00294
v 0.04021 -0.04128 -0.00404
v 0.04115 -0.04272 -0.00404
v 0.04257 -0.04369 -0.00404
v 0.03996 -0.04247 -0.00433
v 0.03948 -0.04158 -0.00433
v 0.03948 -0.04158 -0.00538
v 0.03996 -0.04247 -0.00538
v 0.04059 -0.04327 -0.00538
v 0.04059 -0.04327 -0.00433
v 0.04137 -0.04392 -0.00433
v 0.04137 -0.04392 -0.00538
v 0.04226 -0.0444 -0.00538
v 0.04226 -0.0444 -0.00433
v 0.04323 -0.04471 -0.00433
v 0.04323 -0.04471 -0.00538
v 0.04424 -0.04481 -0.00538
v 0.04425 -0.04404 -0.00404
v 0.04424 -0.04481 -0.00433
v 0.04525 -0.04472 -0.00433
v 0.04525 -0.04472 -0.00538
v 0.04594 -0.04372 -0.00404
v 0.04623 -0.04444 -0.00433
v 0.04713 -0.04397 -0.00433
v 0.04737 -0.04277 -0.00404
v 0.04713 -0.04397 -0.00212
v 0.04713 -0.04397 0.03313
v 0.04623 -0.04444 0.03313
v 0.04623 -0.04444 -0.00212
v 0.0466 -0.04199 0.03688
v 0.0466 -0.04199 0.04225
v 0.04737 -0.04277 -0.00294
v 0.04792 -0.04333 -0.00212
v 0.04792 -0.04333 0.03313
v 0.04732 -0.04092 0.03688
v 0.04732 -0.04092 0.04225
v 0.04857 -0.04255 -0.00212
v 0.04857 -0.04255 0.03313
v 0.04834 -0.04135 -0.00294
v 0.04906 -0.04166 -0.00212
v 0.04906 -0.04166 0.03313
v 0.04323 -0.03703 0.04225
v 0.04431 -0.03682 0.04225
v 0.04432 -0.03634 0.04225
v 0.04558 -0.0366 0.04225
v 0.04305 -0.03658 0.04225
v 0.04539 -0.03705 0.04225
v 0.04232 -0.03763 0.04225
v 0.04664 -0.03732 0.04225
v 0.04198 -0.03728 0.04225
v 0.04629 -0.03766 0.04225
v 0.0417 -0.03854 0.04225
v 0.04735 -0.0384 0.04225
v 0.04125 -0.03835 0.04225
v 0.0469 -0.03858 0.04225
v 0.04147 -0.03961 0.04225
v 0.04759 -0.03966 0.04225
v 0.04099 -0.03961 0.04225
v 0.04168 -0.04069 0.04225
v 0.0471 -0.03966 0.04225
v 0.04688 -0.04073 0.04225
v 0.04626 -0.04164 0.04225
v 0.04534 -0.04224 0.04225
v 0.04426 -0.04245 0.04225
v 0.04319 -0.04222 0.04225
v 0.04228 -0.04161 0.04225
v 0.04602 -0.04391 -0.00567
v 0.04752 -0.04293 -0.00567
v 0.04713 -0.04397 -0.00538
v 0.04623 -0.04444 -0.00538
v 0.04792 -0.04333 -0.00538
v 0.04857 -0.04255 -0.00538
v 0.04854 -0.04144 -0.00567
v 0.04906 -0.04166 -0.00538
v 0.04936 -0.04069 -0.00538
v 0.0489 -0.03967 -0.00567
v 0.04947 -0.03968 -0.00538
v 0.04938 -0.03867 -0.00538
v 0.04857 -0.03791 -0.00567
v 0.04909 -0.03769 -0.00538
v 0.04862 -0.03679 -0.00538
v 0.04758 -0.0364 -0.00567
v 0.04798 -0.036 -0.00538
v 0.0472 -0.03535 -0.00538
v 0.04609 -0.03539 -0.00567
v 0.04631 -0.03487 -0.00538
v 0.04209 -0.03962 -0.00521
v 0.04236 -0.03962 -0.00581
v 0.0425 -0.04036 -0.00581
v 0.04225 -0.04046 -0.00521
v 0.04227 -0.03878 -0.00521
v 0.04344 -0.03998 -0.00581
v 0.04291 -0.04098 -0.00581
v 0.04272 -0.04117 -0.00521
v 0.04345 -0.03928 -0.00581
v 0.04252 -0.03888 -0.00581
v 0.04275 -0.03807 -0.00521
v 0.04393 -0.04048 -0.00581
v 0.04294 -0.03826 -0.00581
v 0.04395 -0.03879 -0.00581
v 0.04347 -0.0376 -0.00521
v 0.04354 -0.04141 -0.00581
v 0.04343 -0.04165 -0.00521
v 0.04427 -0.04156 -0.00581
v 0.04463 -0.04048 -0.00581
v 0.04357 -0.03785 -0.00581
v 0.04427 -0.04183 -0.00521
v 0.04429 -0.03963 -0.00548
v 0.04501 -0.04142 -0.00581
v 0.04564 -0.04101 -0.00581
v 0.04511 -0.04167 -0.00521
v 0.04513 -0.03999 -0.00581
v 0.04606 -0.04039 -0.00581
v 0.04621 -0.03965 -0.00581
v 0.04513 -0.03929 -0.00581
v 0.04607 -0.03891 -0.00581
v 0.04566 -0.03829 -0.00581
v 0.04464 -0.03879 -0.00581
v 0.04504 -0.03786 -0.00581
v 0.0443 -0.03771 -0.00581
v 0.04514 -0.03762 -0.00521
v 0.04431 -0.03744 -0.00521
v 0.04431 -0.03698 -0.00567
v 0.04329 -0.03717 -0.00567
v 0.04532 -0.03719 -0.00567
v 0.04618 -0.03777 -0.00567
v 0.04585 -0.0381 -0.00521
v 0.04433 -0.03502 -0.00567
v 0.04256 -0.03535 -0.00567
v 0.04534 -0.03456 -0.00538
v 0.04433 -0.03445 -0.00538
v 0.04332 -0.03455 -0.00538
v 0.04235 -0.03483 -0.00538
v 0.04145 -0.0353 -0.00538
v 0.04105 -0.03634 -0.00567
v 0.04066 -0.03594 -0.00538
v 0.04243 -0.03774 -0.00567
v 0.04001 -0.03672 -0.00538
v 0.04004 -0.03783 -0.00567
v 0.03952 -0.03761 -0.00538
v 0.04184 -0.0386 -0.00567
v 0.03922 -0.03858 -0.00538
v 0.03967 -0.03959 -0.00567
v 0.03911 -0.03959 -0.00538
v 0.04163 -0.03961 -0.00567
v 0.0392 -0.0406 -0.00538
v 0.04001 -0.04136 -0.00567
v 0.04183 -0.04063 -0.00567
v 0.041 -0.04287 -0.00567
v 0.04239 -0.0415 -0.00567
v 0.04248 -0.04388 -0.00567
v 0.04325 -0.04208 -0.00567
v 0.04425 -0.04425 -0.00567
v 0.04426 -0.04229 -0.00567
v 0.04528 -0.0421 -0.00567
v 0.04583 -0.0412 -0.00521
v 0.04615 -0.04153 -0.00567
v 0.04631 -0.04049 -0.00521
v 0.04673 -0.04067 -0.00567
v 0.04648 -0.03965 -0.00521
v 0.04694 -0.03966 -0.00567
v 0.04632 -0.03881 -0.00521
v 0.04675 -0.03864 -0.00567
v 0.04479 -0.0423 0.04496
v 0.04276 -0.04187 0.04496
v 0.0447 -0.0418 0.04964
v 0.04163 -0.04014 0.04496
v 0.04304 -0.04146 0.04964
v 0.04454 -0.04095 0.05351
v 0.04212 -0.04005 0.04964
v 0.04353 -0.04074 0.05351
v 0.04443 -0.04038 0.05485
v 0.04297 -0.03988 0.05351
v 0.04386 -0.04026 0.05485
v 0.04355 -0.03978 0.05485
v 0.04429 -0.03963 0.05535
v 0.04471 -0.03901 0.05485
v 0.04415 -0.03889 0.05485
v 0.04504 -0.03853 0.05351
v 0.04366 -0.03921 0.05485
v 0.04404 -0.03832 0.05351
v 0.04553 -0.03781 0.04964
v 0.04388 -0.03746 0.04964
v 0.04318 -0.03888 0.05351
v 0.04246 -0.03839 0.04964
v 0.04378 -0.03697 0.04496
v 0.04205 -0.03811 0.04496
v 0.04653 -0.04116 0.04496
v 0.04695 -0.03913 0.04496
v 0.04611 -0.04088 0.04964
v 0.04646 -0.03922 0.04964
v 0.04581 -0.03739 0.04496
v 0.0456 -0.03939 0.05351
v 0.04503 -0.03949 0.05485
v 0.04539 -0.04039 0.05351
v 0.04491 -0.04006 0.05485
v 0.04759 -0.03966 0.03688
v 0.04936 -0.04069 0.03313
v 0.04936 -0.04069 -0.00212
v 0.04735 -0.0384 0.03688
v 0.04947 -0.03968 0.03313
v 0.04947 -0.03968 -0.00212
v 0.04869 -0.03967 -0.00294
v 0.04938 -0.03867 0.03313
v 0.04938 -0.03867 -0.00212
v 0.04834 -0.04135 -0.00404
v 0.04837 -0.03799 -0.00294
v 0.04909 -0.03769 -0.00212
v 0.04909 -0.03769 0.03313
v 0.04862 -0.03679 -0.00212
v 0.04862 -0.03679 0.03313
v 0.04664 -0.03732 0.03688
v 0.04869 -0.03967 -0.00404
v 0.04743 -0.03655 -0.00294
v 0.04798 -0.036 -0.00212
v 0.04798 -0.036 0.03313
v 0.0472 -0.03535 -0.00212
v 0.0472 -0.03535 0.03313
v 0.04558 -0.0366 0.03688
v 0.04432 -0.03634 0.03688
v 0.04631 -0.03487 0.03313
v 0.04534 -0.03456 0.03313
v 0.04534 -0.03456 -0.00212
v 0.04631 -0.03487 -0.00212
v 0.04601 -0.03558 -0.00294
v 0.04743 -0.03655 -0.00404
v 0.04601 -0.03558 -0.00404
v 0.04433 -0.03523 -0.00294
v 0.04433 -0.03523 -0.00404
v 0.04837 -0.03799 -0.00404
v 0.04862 -0.03679 -0.00433
v 0.04798 -0.036 -0.00433
v 0.0472 -0.03535 -0.00433
v 0.04631 -0.03487 -0.00433
v 0.04534 -0.03456 -0.00433
v 0.04909 -0.03769 -0.00433
v 0.04938 -0.03867 -0.00433
v 0.04947 -0.03968 -0.00433
v 0.04936 -0.04069 -0.00433
v 0.04906 -0.04166 -0.00433
v 0.04857 -0.04255 -0.00433
v 0.04792 -0.04333 -0.00433
v 0.04433 -0.03445 -0.00433
v 0.04332 -0.03455 -0.00433
v 0.04235 -0.03483 -0.00433
v 0.04264 -0.03555 -0.00404
v 0.04145 -0.0353 -0.00433
v 0.04264 -0.03555 -0.00294
v 0.04066 -0.03594 -0.00433
v 0.0412 -0.03649 -0.00404
v 0.04001 -0.03672 -0.00433
v 0.03952 -0.03761 -0.00433
v 0.0412 -0.03649 -0.00294
v 0.04024 -0.03791 -0.00404
v 0.03922 -0.03858 -0.00433
v 0.03911 -0.03959 -0.00433
v 0.04024 -0.03791 -0.00294
v 0.03989 -0.0396 -0.00404
v 0.0392 -0.0406 -0.00433
v 0.03989 -0.0396 -0.00294
v 0.0392 -0.0406 -0.00212
v 0.0392 -0.0406 0.03313
v 0.04099 -0.03961 0.03688
v 0.03911 -0.03959 0.03313
v 0.04125 -0.03835 0.03688
v 0.03911 -0.03959 -0.00212
v 0.03922 -0.03858 0.03313
v 0.03922 -0.03858 -0.00212
v 0.04198 -0.03728 0.03688
v 0.03952 -0.03761 0.03313
v 0.04001 -0.03672 0.03313
v 0.03952 -0.03761 -0.00212
v 0.04001 -0.03672 -0.00212
v 0.04066 -0.03594 0.03313
v 0.04305 -0.03658 0.03688
v 0.04145 -0.0353 0.03313
v 0.04066 -0.03594 -0.00212
v 0.04145 -0.0353 -0.00212
v 0.04235 -0.03484 0.03313
v 0.04332 -0.03455 0.03313
v 0.04235 -0.03483 -0.00212
v 0.04332 -0.03455 -0.00212
v 0.04433 -0.03446 0.03313
v 0.04433 -0.03445 -0.00212
vt 0.760254 0.992676
vt 0.760254 0.95166
vt 0.759277 0.95166
vt 0.760742 0.946777
vt 0.762207 0.946777
vt 0.760742 0.940918
vt 0.762207 0.940918
vt 0.758789 0.940918
vt 0.758789 0.946777
vt 0.757324 0.940918
vt 0.758301 0.95166
vt 0.759277 0.992676
vt 0.758789 0.993652
vt 0.76123 0.993652
vt 0.758301 0.992676
vt 0.756836 0.95166
vt 0.757324 0.946777
vt 0.755859 0.940918
vt 0.755859 0.946777
vt 0.756836 0.993652
vt 0.753906 0.95166
vt 0.752441 0.95166
vt 0.756836 0.992676
vt 0.755859 0.95166
vt 0.754883 0.95166
vt 0.755859 0.992676
vt 0.754883 0.992676
vt 0.753906 0.992676
vt 0.752441 0.992676
vt 0.752441 0.993652
vt 0.754395 0.993652
vt 0.751953 0.995117
vt 0.754395 0.995117
vt 0.756348 0.995117
vt 0.75293 0.996094
vt 0.751465 0.996094
vt 0.751465 0.997559
vt 0.752441 0.997559
vt 0.753906 0.997559
vt 0.753906 0.996094
vt 0.754883 0.996094
vt 0.754883 0.997559
vt 0.756348 0.997559
vt 0.756348 0.996094
vt 0.757324 0.996094
vt 0.757324 0.997559
vt 0.758301 0.997559
vt 0.758789 0.995117
vt 0.758301 0.996094
vt 0.759766 0.996094
vt 0.759766 0.997559
vt 0.760742 0.995117
vt 0.760742 0.996094
vt 0.762207 0.996094
vt 0.763184 0.995117
vt 0.762695 0.992676
vt 0.762695 0.95166
vt 0.76123 0.95166
vt 0.76123 0.992676
vt 0.76416 0.946777
vt 0.76416 0.940918
vt 0.763184 0.993652
vt 0.763672 0.992676
vt 0.763672 0.95166
vt 0.766113 0.946777
vt 0.766113 0.940918
vt 0.764648 0.992676
vt 0.764648 0.95166
vt 0.765625 0.993652
vt 0.765625 0.992676
vt 0.765625 0.95166
vt 0.110779 0.089966
vt 0.110779 0.088318
vt 0.110291 0.088318
vt 0.110291 0.086609
vt 0.110291 0.089966
vt 0.110779 0.086609
vt 0.110779 0.091614
vt 0.110291 0.0849
vt 0.110291 0.091553
vt 0.110779 0.0849
vt 0.110779 0.09314
vt 0.110291 0.083191
vt 0.110291 0.093079
vt 0.110779 0.083191
vt 0.110779 0.094604
vt 0.110291 0.081482
vt 0.110291 0.094543
vt 0.110779 0.095947
vt 0.110291 0.096008
vt 0.110779 0.081482
vt 0.110291 0.079773
vt 0.110779 0.079773
vt 0.110291 0.078064
vt 0.110779 0.078064
vt 0.110291 0.076416
vt 0.110779 0.076416
vt 0.110291 0.074829
vt 0.110779 0.074829
vt 0.110291 0.073364
vt 0.110779 0.073303
vt 0.110291 0.071899
vt 0.110779 0.071838
vt 0.110291 0.070435
vt 0.110779 0.070496
vt 0.511719 0.199585
vt 0.512207 0.197388
vt 0.51123 0.198364
vt 0.510742 0.199585
vt 0.51123 0.197144
vt 0.511719 0.196045
vt 0.513184 0.195679
vt 0.512695 0.195068
vt 0.513672 0.194336
vt 0.515137 0.194336
vt 0.514648 0.193726
vt 0.515625 0.193359
vt 0.51709 0.19397
vt 0.51709 0.193237
vt 0.518066 0.193359
vt 0.519043 0.194336
vt 0.519531 0.193604
vt 0.520508 0.194214
vt 0.520996 0.195557
vt 0.521484 0.194946
vt 0.518066 0.201904
vt 0.518066 0.201416
vt 0.51709 0.201538
vt 0.51709 0.202148
vt 0.519043 0.201416
vt 0.51709 0.200439
vt 0.516602 0.201416
vt 0.516113 0.202026
vt 0.518066 0.200195
vt 0.518555 0.200928
vt 0.519531 0.200439
vt 0.516602 0.200195
vt 0.519043 0.200195
vt 0.518066 0.199463
vt 0.52002 0.199463
vt 0.515625 0.200928
vt 0.515137 0.201416
vt 0.515137 0.200317
vt 0.516113 0.199463
vt 0.519043 0.199463
vt 0.514648 0.200562
vt 0.51709 0.199463
vt 0.515137 0.199585
vt 0.515137 0.19873
vt 0.514648 0.199585
vt 0.516602 0.198853
vt 0.515625 0.19812
vt 0.516602 0.197632
vt 0.51709 0.198486
vt 0.51709 0.19751
vt 0.518066 0.197632
vt 0.518066 0.198853
vt 0.518555 0.197998
vt 0.519043 0.19873
vt 0.519043 0.197632
vt 0.519531 0.198486
vt 0.52002 0.19812
vt 0.520508 0.199463
vt 0.519531 0.197144
vt 0.518555 0.196411
vt 0.518066 0.197021
vt 0.522461 0.197266
vt 0.522949 0.199463
vt 0.522461 0.195923
vt 0.522949 0.197021
vt 0.523438 0.19812
vt 0.523438 0.199341
vt 0.523438 0.200684
vt 0.522461 0.201538
vt 0.522949 0.201782
vt 0.520508 0.200684
vt 0.522461 0.202881
vt 0.520996 0.203369
vt 0.521484 0.203857
vt 0.519531 0.201782
vt 0.520508 0.204712
vt 0.519531 0.20459
vt 0.519531 0.205322
vt 0.518555 0.202515
vt 0.518555 0.205688
vt 0.51709 0.205078
vt 0.51709 0.205811
vt 0.51709 0.202881
vt 0.516113 0.205688
vt 0.515137 0.204712
vt 0.514648 0.205322
vt 0.516113 0.202637
vt 0.513672 0.204712
vt 0.513184 0.203491
vt 0.512695 0.203979
vt 0.512207 0.203003
vt 0.514648 0.201904
vt 0.512207 0.20166
vt 0.51123 0.202026
vt 0.51123 0.200806
vt 0.51416 0.200806
vt 0.513672 0.199585
vt 0.514648 0.198486
vt 0.51416 0.198242
vt 0.515137 0.197632
vt 0.514648 0.197144
vt 0.516113 0.197021
vt 0.515625 0.196411
vt 0.51709 0.196777
vt 0.51709 0.196167
vt 0.0625 0.016693
vt 0.062561 0.019669
vt 0.063843 0.016693
vt 0.065063 0.016693
vt 0.06488 0.019989
vt 0.066223 0.016693
vt 0.067383 0.016693
vt 0.061218 0.024765
vt 0.067139 0.020676
vt 0.062927 0.025345
vt 0.059448 0.02887
vt 0.064575 0.026245
vt 0.060303 0.029358
vt 0.058411 0.030212
vt 0.061066 0.030121
vt 0.058807 0.030533
vt 0.059021 0.031052
vt 0.057373 0.030884
vt 0.056854 0.030029
vt 0.056366 0.030212
vt 0.056366 0.02858
vt 0.055969 0.030518
vt 0.055725 0.031036
vt 0.055359 0.028839
vt 0.055542 0.024414
vt 0.05368 0.024719
vt 0.054474 0.029312
vt 0.05368 0.03006
vt 0.05191 0.025238
vt 0.052429 0.019638
vt 0.050232 0.026093
vt 0.050079 0.019913
vt 0.047729 0.020294
vt 0.05127 0.016693
vt 0.052582 0.016693
vt 0.050018 0.016693
vt 0.048828 0.016693
vt 0.047699 0.016693
vt 0.0466 0.016693
vt 0.061157 0.016693
vt 0.060089 0.019485
vt 0.059723 0.016693
vt 0.057526 0.019424
vt 0.058289 0.016693
vt 0.056824 0.016693
vt 0.059387 0.024429
vt 0.057465 0.024323
vt 0.054932 0.019485
vt 0.055359 0.016693
vt 0.053955 0.016693
vt 0.057404 0.028503
vt 0.057404 0.029953
vt 0.058441 0.028595
vt 0.057922 0.030029
vt 0.768066 0.946777
vt 0.768066 0.940918
vt 0.766602 0.95166
vt 0.766602 0.992676
vt 0.77002 0.946777
vt 0.77002 0.940918
vt 0.768066 0.95166
vt 0.768066 0.992676
vt 0.767578 0.993652
vt 0.769043 0.95166
vt 0.769043 0.992676
vt 0.765625 0.995117
vt 0.77002 0.993652
vt 0.77002 0.992676
vt 0.77002 0.95166
vt 0.770996 0.992676
vt 0.770996 0.95166
vt 0.771973 0.946777
vt 0.771973 0.940918
vt 0.767578 0.995117
vt 0.772461 0.993652
vt 0.771973 0.992676
vt 0.771973 0.95166
vt 0.773438 0.992676
vt 0.773438 0.95166
vt 0.773926 0.946777
vt 0.773926 0.940918
vt 0.775879 0.946777
vt 0.775879 0.940918
vt 0.774414 0.95166
vt 0.775391 0.95166
vt 0.775391 0.992676
vt 0.774414 0.992676
vt 0.774414 0.993652
vt 0.772461 0.995117
vt 0.774414 0.995117
vt 0.776855 0.993652
vt 0.776855 0.995117
vt 0.77002 0.995117
vt 0.770996 0.996094
vt 0.772461 0.996094
vt 0.773438 0.996094
vt 0.772461 0.997559
vt 0.773438 0.997559
vt 0.770996 0.997559
vt 0.774414 0.997559
vt 0.774414 0.996094
vt 0.775879 0.996094
vt 0.775879 0.997559
vt 0.77002 0.997559
vt 0.77002 0.996094
vt 0.769043 0.996094
vt 0.769043 0.997559
vt 0.767578 0.997559
vt 0.767578 0.996094
vt 0.766602 0.996094
vt 0.766602 0.997559
vt 0.765625 0.997559
vt 0.765625 0.996094
vt 0.76416 0.996094
vt 0.76416 0.997559
vt 0.763184 0.997559
vt 0.763184 0.996094
vt 0.761719 0.997559
vt 0.760742 0.997559
vt 0.776855 0.997559
vt 0.776855 0.996094
vt 0.777832 0.996094
vt 0.777832 0.997559
vt 0.779297 0.997559
vt 0.779297 0.996094
vt 0.779297 0.995117
vt 0.780273 0.996094
vt 0.780273 0.997559
vt 0.781738 0.997559
vt 0.778809 0.993652
vt 0.78125 0.996094
vt 0.78125 0.995117
vt 0.782715 0.996094
vt 0.782715 0.997559
vt 0.783691 0.997559
vt 0.783691 0.996094
vt 0.78125 0.993652
vt 0.783691 0.995117
vt 0.784668 0.996094
vt 0.785156 0.997559
vt 0.786133 0.997559
vt 0.786133 0.996094
vt 0.783203 0.993652
vt 0.785645 0.995117
vt 0.787109 0.996094
vt 0.787598 0.997559
vt 0.788574 0.997559
vt 0.788086 0.996094
vt 0.788086 0.995117
vt 0.787598 0.993652
vt 0.785645 0.993652
vt 0.786133 0.992676
vt 0.787109 0.992676
vt 0.786133 0.95166
vt 0.787109 0.95166
vt 0.78418 0.946777
vt 0.782715 0.940918
vt 0.78418 0.940918
vt 0.782715 0.946777
vt 0.78125 0.940918
vt 0.785156 0.95166
vt 0.78125 0.946777
vt 0.779297 0.940918
vt 0.785156 0.992676
vt 0.78418 0.95166
vt 0.78418 0.992676
vt 0.779297 0.946777
vt 0.777832 0.940918
vt 0.782715 0.95166
vt 0.781738 0.95166
vt 0.782715 0.992676
vt 0.781738 0.992676
vt 0.780762 0.95166
vt 0.777832 0.946777
vt 0.779785 0.95166
vt 0.780762 0.992676
vt 0.779785 0.992676
vt 0.778809 0.95166
vt 0.777344 0.95166
vt 0.778809 0.992676
vt 0.777344 0.992676
vt 0.776367 0.95166
vt 0.776367 0.992676
vn 0.1873 -0.9819 -0.0281
vn 0.1852 -0.9816 0.0475
vn -0.0082 -0.9988 0.0474
vn -0.0094 -0.9769 0.2134
vn 0.3662 -0.9053 0.2151
vn -0.0079 -1 0
vn 0.374 -0.9274 0
vn -0.3894 -0.9211 0
vn -0.3856 -0.8984 0.2103
vn -0.7133 -0.7009 0
vn -0.2044 -0.9777 0.0481
vn -0.008 -0.9998 -0.0201
vn -0.0077 -0.9238 -0.3829
vn 0.3471 -0.8569 -0.3812
vn -0.2035 -0.9787 -0.0284
vn -0.391 -0.919 0.0505
vn -0.697 -0.6861 0.2085
vn -0.8364 -0.5481 0
vn -0.8192 -0.5334 0.2109
vn -0.3612 -0.8516 -0.3799
vn -0.836 -0.5466 0.0475
vn -0.8857 -0.4619 0.0463
vn -0.3905 -0.9204 -0.0208
vn -0.5612 -0.8263 0.0477
vn -0.7128 -0.6999 0.0456
vn -0.5621 -0.8266 -0.0277
vn -0.7119 -0.702 -0.0196
vn -0.8362 -0.5478 -0.0276
vn -0.8866 -0.462 -0.0214
vn -0.7802 -0.5002 -0.3755
vn -0.6605 -0.6457 -0.3831
vn -0.7405 -0.481 0.4694
vn -0.6255 -0.6171 0.4775
vn -0.3442 -0.808 0.4781
vn -0.671 -0.439 0.5975
vn -0.7774 -0.4049 0.4814
vn -0.8864 -0.463 0
vn -0.6258 -0.614 0.4811
vn -0.4517 -0.6642 0.5956
vn -0.5622 -0.827 0
vn -0.3409 -0.8077 0.4811
vn -0.1632 -0.7843 0.5985
vn -0.2034 -0.9791 0
vn -0.008 -0.8787 0.4773
vn -0.008 -0.8752 0.4837
vn 0.1501 -0.7879 0.5973
vn 0.1875 -0.9823 0
vn 0.3295 -0.8158 0.4752
vn 0.3265 -0.8131 0.4819
vn 0.4408 -0.6696 0.5978
vn 0.6154 -0.6271 0.4775
vn 0.5494 -0.8351 -0.0276
vn 0.5482 -0.835 0.0476
vn 0.3742 -0.9262 0.0474
vn 0.3749 -0.9268 -0.0207
vn 0.6835 -0.6975 0.2153
vn 0.7023 -0.7119 0
vn 0.6473 -0.6589 -0.3831
vn 0.7006 -0.7132 -0.0196
vn 0.6985 -0.7142 0.0456
vn 0.8996 -0.3812 0.2132
vn 0.9204 -0.391 0
vn 0.8255 -0.5637 -0.0277
vn 0.8252 -0.5628 0.0477
vn 0.8507 -0.363 -0.3802
vn 0.921 -0.389 -0.0208
vn 0.9202 -0.3885 0.0477
vn 0 -0.001 1
vn 0.0423 -0.1036 -0.9937
vn 0.0789 -0.08 -0.9937
vn 0.2299 -0.3506 -0.9079
vn 0.1713 -0.4254 -0.8886
vn 0.3214 -0.3259 -0.8891
vn 0.3464 -0.2344 -0.9083
vn 0.1025 -0.0435 -0.9938
vn 0.4224 -0.1792 -0.8885
vn 0.4113 -0.0836 -0.9076
vn 0.1126 -0.0011 -0.9936
vn 0.4567 -0.004 -0.8896
vn 0.4111 0.0779 -0.9083
vn 0.1037 0.0435 -0.9937
vn 0.425 0.1697 -0.8891
vn 0.3503 0.2282 -0.9084
vn 0.0799 0.0777 -0.9938
vn 0.3256 0.3196 -0.8898
vn 0.2346 0.3482 -0.9076
vn 0.0435 0.1037 -0.9937
vn 0.179 0.4207 -0.8894
vn -0.0119 -0.005 -0.9999
vn -0.4847 0.0067 -0.8746
vn -0.4504 -0.181 -0.8743
vn -0.01 -0.009 -0.9999
vn -0.0129 0.001 -0.9999
vn 0.1084 0.0413 -0.9933
vn -0.3476 -0.3369 -0.875
vn -0.006 -0.0129 -0.9999
vn 0.1074 -0.0436 -0.9933
vn -0.4452 0.1938 -0.8742
vn -0.0109 0.007 -0.9999
vn 0.0459 0.1064 -0.9933
vn -0.3372 0.3494 -0.8742
vn 0.0425 -0.1085 -0.9932
vn -0.009 0.009 -0.9999
vn -0.1921 -0.4448 -0.8748
vn -0.002 -0.0129 -0.9999
vn -0.008 -0.4853 -0.8743
vn -0.0436 0.1062 -0.9934
vn -0.1778 0.4512 -0.8745
vn 0.004 -0.0129 -0.9999
vn 0 -0.001 -1
vn 0.1795 -0.4517 -0.8739
vn 0.3354 -0.3491 -0.875
vn 0.008 -0.011 -0.9999
vn -0.1064 0.0459 -0.9933
vn 0.4435 -0.1936 -0.8751
vn 0.4843 -0.0094 -0.8749
vn -0.1074 -0.0436 -0.9933
vn 0.4512 0.1778 -0.8745
vn 0.3494 0.3372 -0.8742
vn -0.0447 -0.1063 -0.9933
vn 0.1938 0.4452 -0.8742
vn 0.0067 0.4847 -0.8746
vn 0.001 0.0129 -0.9999
vn -0.003 0.0129 -0.9999
vn -0.0022 -0.1332 -0.9911
vn 0.0477 -0.1239 -0.9911
vn -0.0524 -0.1219 -0.9912
vn -0.0968 -0.091 -0.9911
vn 0.007 0.0109 -0.9999
vn 0.0011 0.1114 -0.9938
vn -0.0413 0.1059 -0.9935
vn 0.0865 0.4106 -0.9077
vn 0.004 0.4583 -0.8888
vn -0.0779 0.4111 -0.9083
vn -0.1727 0.4224 -0.8898
vn -0.2282 0.3503 -0.9084
vn -0.0777 0.0799 -0.9938
vn -0.3196 0.3256 -0.8898
vn 0.0922 -0.0957 -0.9911
vn -0.3454 0.2375 -0.9079
vn -0.1037 0.0435 -0.9937
vn -0.4207 0.179 -0.8894
vn 0.1208 -0.0535 -0.9912
vn -0.4106 0.0865 -0.9077
vn -0.1114 0.0011 -0.9938
vn -0.4583 0.004 -0.8888
vn 0.1322 -0.0033 -0.9912
vn -0.4128 -0.0779 -0.9075
vn -0.1047 -0.0412 -0.9936
vn -0.4241 -0.1729 -0.8889
vn 0.124 0.0489 -0.9911
vn -0.3492 -0.2314 -0.908
vn -0.0811 -0.0777 -0.9937
vn -0.3274 -0.3199 -0.8891
vn 0.0958 0.0934 -0.991
vn -0.2359 -0.345 -0.9085
vn -0.0446 -0.1014 -0.9938
vn -0.1776 -0.4237 -0.8882
vn -0.085 -0.4101 -0.9081
vn 0.0536 0.122 -0.9911
vn 0 -0.1136 -0.9935
vn -0.0053 -0.4556 -0.8901
vn 0.0793 -0.4116 -0.9079
vn 0.0033 0.1334 -0.9911
vn -0.0489 0.124 -0.9911
vn 0.012 -0.007 -0.9999
vn -0.0934 0.0958 -0.991
vn 0.0139 -0.001 -0.9999
vn -0.122 0.0536 -0.9911
vn 0.0129 0.003 -0.9999
vn -0.1334 0.0033 -0.9911
vn 0.0109 0.007 -0.9999
vn -0.1228 -0.0489 -0.9912
vn 0.4226 -0.9038 0.0682
vn 0.1882 -0.9769 0.1015
vn -0.032 -0.9976 0.0619
vn -0.3395 -0.9381 0.0684
vn -0.5565 -0.8246 0.1014
vn -0.7278 -0.6832 0.0604
vn -0.8325 -0.5459 0.0951
vn 0.1729 -0.9726 0.1551
vn -0.8335 -0.5437 0.0981
vn -0.5658 -0.8097 0.1557
vn 0.1521 -0.9539 0.2588
vn -0.8279 -0.5426 0.1419
vn -0.5653 -0.7836 0.2575
vn 0.1227 -0.8342 0.5376
vn -0.8119 -0.5314 0.2417
vn -0.5036 -0.6766 0.5372
vn -0.7126 -0.4679 0.5228
vn 0.5056 0.6736 0.5392
vn -0.1212 0.8337 0.5388
vn 0.5676 0.7814 0.2594
vn -0.6765 0.5019 0.5389
vn -0.8502 0.1772 0.4958
vn -0.1507 0.9537 0.2601
vn 0.5669 0.8092 0.1541
vn -0.1713 0.9732 0.1535
vn -0.7814 0.5676 0.2594
vn -0.9506 0.1966 0.24
vn -0.8092 0.5669 0.1541
vn -0.1898 0.9764 0.103
vn -0.9691 0.2015 0.1425
vn -0.8252 0.5554 0.103
vn -0.9786 0.1829 0.0945
vn -0.4237 0.9033 0.0668
vn 0.0331 0.9976 0.0608
vn -0.6809 0.7298 0.0619
vn -0.9378 0.3407 0.0671
vn -0.9976 0.0331 0.0608
vn -0.9822 -0.1869 0.0186
vn 0.6817 -0.7291 0.0604
vn 0.8235 -0.5582 0.1015
vn 0.9375 -0.341 0.0685
vn 0.977 0.187 0.1028
vn 0.9975 -0.0331 0.0619
vn 0.9033 0.4237 0.0668
vn 0.8109 -0.5641 0.1556
vn 0.9732 0.1713 0.1535
vn 0.5588 0.8229 0.103
vn 0.7298 0.6809 0.0619
vn 0.3407 0.9378 0.0671
vn 0.9537 0.1507 0.2601
vn 0.8337 0.1212 0.5388
vn 0.7823 -0.5671 0.2576
vn 0.6751 -0.5055 0.5374
vn 0.9768 -0.0106 0.2137
vn 1 -0.0089 0
vn 0.978 -0.203 0.0481
vn 0.9789 -0.2022 -0.0284
vn 0.9051 0.3676 0.2136
vn 0.9279 0.3729 -0.0013
vn 0.9988 -0.0093 0.0475
vn 0.9998 -0.0091 -0.0201
vn 0.924 -0.0064 -0.3824
vn 0.9812 0.1867 0.0488
vn 0.9817 0.1884 -0.0269
vn 0.809 -0.3424 0.4778
vn 0.8568 0.3455 -0.3827
vn 0.9264 0.376 -0.0194
vn 0.9258 0.3753 0.0461
vn 0.8357 0.5484 -0.029
vn 0.8355 0.5472 0.049
vn 0.697 0.6845 0.2136
vn 0.7126 0.7015 -0.0014
vn 0.879 -0.0067 0.4768
vn 0.6586 0.6487 -0.3813
vn 0.7139 0.6999 -0.021
vn 0.712 0.7006 0.0471
vn 0.5643 0.825 -0.0291
vn 0.5634 0.8247 0.0492
vn 0.3815 0.899 0.2149
vn 0.3914 0.9202 -0.0013
vn 0.0058 0.9768 0.2141
vn 0.0089 1 -0.001
vn 0.3913 0.9191 0.0464
vn 0.2033 0.9779 0.0493
vn 0.2047 0.9785 -0.0272
vn 0.3916 0.9199 -0.0195
vn 0.3596 0.8516 -0.3814
vn 0.627 0.6169 0.4757
vn 0.3422 0.8102 0.4759
vn 0.009 0.9242 -0.3818
vn 0.0067 0.8799 0.4752
vn 0.8156 0.3278 0.4767
vn 0.6698 0.4426 0.5963
vn 0.6242 0.6141 0.4829
vn 0.4499 0.6641 0.5971
vn 0.7126 0.7015 0.0014
vn 0.5644 0.8255 0.0014
vn 0.836 0.5487 -0.0014
vn 0.3914 0.9202 0.0013
vn 0.3429 0.8055 0.4833
vn 0.1648 0.7849 0.5973
vn 0.205 0.9788 0.0012
vn 0.9279 0.3729 0.0013
vn 0.8129 0.3249 0.4833
vn 0.7884 0.1517 0.5962
vn 0.9825 0.1864 -0.0011
vn 0.8755 -0.0067 0.4831
vn 0.7851 -0.1616 0.5979
vn 0.9788 -0.2048 0
vn 0.8067 -0.3428 0.4815
vn 0.6628 -0.4536 0.5958
vn 0.8259 -0.5638 0
vn 0.6123 -0.6274 0.4811
vn 0.5497 -0.8354 0
vn 0.0067 0.8764 0.4815
vn -0.1484 0.7899 0.595
vn -0.1864 0.9825 -0.0011
vn -0.376 0.9266 -0.0013
vn -0.3285 0.811 0.4841
vn -0.3278 0.8156 0.4767
vn -0.4389 0.6726 0.5958
vn -0.5487 0.836 -0.0014
vn -0.7015 0.7126 0.0014
vn -0.3455 0.8568 -0.3827
vn -0.6141 0.6242 0.4829
vn -0.6169 0.627 0.4757
vn -0.6641 0.4499 0.5971
vn -0.8276 0.5613 0.0014
vn -0.9215 0.3883 0.0013
vn -0.8055 0.3429 0.4833
vn -0.6487 0.6586 -0.3813
vn -0.8102 0.3422 0.4759
vn -0.7849 0.1648 0.5973
vn -0.9793 0.2023 0.0012
vn -1 0.0069 0.001
vn -0.8764 0.0067 0.4815
vn -0.8516 0.3596 -0.3814
vn -0.8792 0.0093 0.4763
vn -0.7886 -0.1484 0.5967
vn -0.9825 -0.1862 0
vn -0.9592 -0.2829 0
vn -0.8408 -0.247 0.4818
vn -0.8657 -0.1693 0.4711
vn -0.9078 -0.1853 -0.3763
vn -0.9242 0.009 -0.3818
vn -0.9822 -0.1859 -0.0281
vn -0.9591 -0.2823 -0.0197
vn -0.9813 -0.1865 0.0475
vn -0.9586 -0.2805 0.0478
vn -0.9598 -0.1869 0.2095
vn -1 0.0069 -0.001
vn -0.9776 0.0129 0.2101
vn -0.9988 0.0114 0.0486
vn -0.8997 0.3835 0.2085
vn -0.9997 0.0091 -0.0211
vn -0.9779 0.2033 0.0493
vn -0.9784 0.2047 -0.0272
vn -0.6845 0.697 0.2136
vn -0.9191 0.3913 0.0464
vn -0.8269 0.5602 0.0491
vn -0.9199 0.3916 -0.0195
vn -0.8272 0.5612 -0.0291
vn -0.7006 0.712 0.0471
vn -0.3641 0.9066 0.2132
vn -0.5472 0.8355 0.049
vn -0.6999 0.7139 -0.021
vn -0.5484 0.8357 -0.029
vn -0.3721 0.927 0.046
vn -0.1867 0.9812 0.0488
vn -0.3729 0.9277 -0.0194
vn -0.1857 0.9822 -0.0269
vn 0.0072 0.9989 0.0463
vn 0.0091 0.9997 -0.0211
o bullet04__p1_c0
f 1/1/1 2/2/2 3/3/3
f 3/3/3 2/2/2 4/4/4
f 4/4/4 2/2/2 5/5/5
f 6/6/6 5/5/5 7/7/7
f 5/5/5 6/6/6 4/4/4
f 4/4/4 6/6/6 8/8/8
f 4/4/4 8/8/8 9/9/9
f 9/9/9 8/8/8 10/10/10
f 3/3/3 4/4/4 11/11/11
f 11/11/11 4/4/4 9/9/9
f 3/3/3 11/11/11 12/12/12
f 3/3/3 12/12/12 1/1/1
f 1/1/1 12/12/12 13/13/13
f 1/1/1 13/13/13 14/14/14
f 12/12/12 11/11/11 15/15/15
f 12/12/12 15/15/15 13/13/13
f 11/11/11 9/9/9 16/16/16
f 11/11/11 16/16/16 15/15/15
f 17/17/17 9/9/9 10/10/10
f 9/9/9 17/17/17 16/16/16
f 17/17/17 10/10/10 18/18/18
f 17/17/17 18/18/18 19/19/19
f 13/13/13 15/15/15 20/20/20
f 17/17/17 19/19/19 21/21/21
f 21/21/21 19/19/19 22/22/22
f 23/23/23 15/15/15 16/16/16
f 15/15/15 23/23/23 20/20/20
f 24/24/24 16/16/16 17/17/17
f 16/16/16 24/24/24 23/23/23
f 17/17/17 21/21/21 25/25/25
f 17/17/17 25/25/25 24/24/24
f 23/23/23 24/24/24 26/26/26
f 26/26/26 24/24/24 25/25/25
f 23/23/23 26/26/26 20/20/20
f 25/25/25 21/21/21 27/27/27
f 25/25/25 27/27/27 26/26/26
f 28/28/28 21/21/21 22/22/22
f 21/21/21 28/28/28 27/27/27
f 28/28/28 22/22/22 29/29/29
f 28/28/28 29/29/29 30/30/30
f 27/27/27 28/28/28 31/31/31
f 27/27/27 31/31/31 26/26/26
f 31/31/31 28/28/28 30/30/30
f 26/26/26 31/31/31 20/20/20
f 31/31/31 30/30/30 32/32/32
f 20/20/20 31/31/31 33/33/33
f 33/33/33 31/31/31 32/32/32
f 20/20/20 33/33/33 34/34/34
f 20/20/20 34/34/34 13/13/13
f 33/33/33 32/32/32 35/35/35
f 35/35/35 32/32/32 36/36/36
f 35/35/35 36/36/36 37/37/37
f 35/35/35 37/37/37 38/38/18
f 35/35/35 38/38/18 39/39/10
f 33/33/33 35/35/35 40/40/38
f 40/40/38 35/35/35 39/39/10
f 33/33/33 40/40/38 41/41/39
f 41/41/39 40/40/38 39/39/10
f 33/33/33 41/41/39 34/34/34
f 41/41/39 39/39/10 42/42/40
f 41/41/39 42/42/40 43/43/8
f 34/34/34 41/41/39 44/44/41
f 44/44/41 41/41/39 43/43/8
f 44/44/41 43/43/8 45/45/42
f 44/44/41 45/45/42 34/34/34
f 45/45/42 43/43/8 46/46/43
f 45/45/42 46/46/43 47/47/6
f 34/34/34 45/45/42 48/48/44
f 34/34/34 48/48/44 13/13/13
f 45/45/42 47/47/6 49/49/45
f 45/45/42 49/49/45 48/48/44
f 13/13/13 48/48/44 14/14/14
f 49/49/45 47/47/6 50/50/46
f 49/49/45 50/50/46 48/48/44
f 50/50/46 47/47/6 51/51/47
f 14/14/14 48/48/44 52/52/48
f 52/52/48 48/48/44 50/50/46
f 52/52/48 50/50/46 53/53/49
f 52/52/48 53/53/49 54/54/50
f 52/52/48 54/54/50 55/55/51
f 56/56/52 57/57/53 58/58/54
f 58/58/54 57/57/53 5/5/5
f 58/58/54 5/5/5 2/2/2
f 58/58/54 2/2/2 59/59/55
f 58/58/54 59/59/55 56/56/52
f 59/59/55 2/2/2 1/1/1
f 59/59/55 1/1/1 14/14/14
f 59/59/55 14/14/14 56/56/52
f 5/5/5 57/57/53 60/60/56
f 5/5/5 60/60/56 7/7/7
f 7/7/7 60/60/56 61/61/57
f 56/56/52 14/14/14 62/62/58
f 62/62/58 14/14/14 52/52/48
f 63/63/59 57/57/53 56/56/52
f 63/63/59 56/56/52 62/62/58
f 60/60/56 57/57/53 64/64/60
f 64/64/60 57/57/53 63/63/59
f 61/61/57 60/60/56 65/65/61
f 62/62/58 52/52/48 55/55/51
f 61/61/57 65/65/61 66/66/62
f 63/63/59 62/62/58 67/67/63
f 63/63/59 67/67/63 64/64/60
f 60/60/56 64/64/60 68/68/64
f 68/68/64 64/64/60 67/67/63
f 60/60/56 68/68/64 65/65/61
f 67/67/63 62/62/58 69/69/65
f 69/69/65 62/62/58 55/55/51
f 68/68/64 67/67/63 70/70/66
f 70/70/66 67/67/63 69/69/65
f 65/65/61 68/68/64 71/71/67
f 71/71/67 68/68/64 70/70/66
f 72/72/68 73/73/68 74/74/68
f 74/74/68 73/73/68 75/75/68
f 72/72/68 74/74/68 76/76/68
f 75/75/68 73/73/68 77/77/68
f 72/72/68 76/76/68 78/78/68
f 75/75/68 77/77/68 79/79/68
f 78/78/68 76/76/68 80/80/68
f 79/79/68 77/77/68 81/81/68
f 78/78/68 80/80/68 82/82/68
f 79/79/68 81/81/68 83/83/68
f 82/82/68 80/80/68 84/84/68
f 83/83/68 81/81/68 85/85/68
f 82/82/68 84/84/68 86/86/68
f 83/83/68 85/85/68 87/87/68
f 86/86/68 84/84/68 88/88/68
f 86/86/68 88/88/68 89/89/68
f 89/89/68 88/88/68 18/90/68
f 87/87/68 85/85/68 90/91/68
f 87/87/68 90/91/68 66/92/68
f 66/92/68 90/91/68 91/93/68
f 66/92/68 91/93/68 61/94/68
f 61/94/68 91/93/68 92/95/68
f 61/94/68 92/95/68 7/96/68
f 7/96/68 92/95/68 93/97/68
f 7/96/68 93/97/68 6/98/68
f 6/98/68 93/97/68 94/99/68
f 6/98/68 94/99/68 8/100/68
f 8/100/68 94/99/68 95/101/68
f 8/100/68 95/101/68 10/102/68
f 10/102/68 95/101/68 96/103/68
f 10/102/68 96/103/68 18/104/68
f 18/104/68 96/103/68 89/105/68
f 97/106/69 98/107/70 99/108/71
f 97/106/69 99/108/71 100/109/72
f 99/108/71 98/107/70 101/110/73
f 101/110/73 98/107/70 102/111/74
f 102/111/74 98/107/70 103/112/75
f 102/111/74 103/112/75 104/113/76
f 104/113/76 103/112/75 105/114/77
f 105/114/77 103/112/75 106/115/78
f 105/114/77 106/115/78 107/116/79
f 107/116/79 106/115/78 108/117/80
f 108/117/80 106/115/78 109/118/81
f 108/117/80 109/118/81 110/119/82
f 110/119/82 109/118/81 111/120/83
f 111/120/83 109/118/81 112/121/84
f 111/120/83 112/121/84 113/122/85
f 113/122/85 112/121/84 114/123/86
f 114/123/86 112/121/84 115/124/87
f 114/123/86 115/124/87 116/125/88
f 117/126/89 118/127/90 119/128/91
f 117/126/89 119/128/91 120/129/92
f 118/127/90 117/126/89 121/130/93
f 119/128/91 118/127/90 122/131/94
f 120/129/92 119/128/91 123/132/95
f 123/132/95 119/128/91 122/131/94
f 120/129/92 123/132/95 124/133/96
f 122/131/94 118/127/90 125/134/97
f 118/127/90 121/130/93 126/135/98
f 118/127/90 126/135/98 125/134/97
f 126/135/98 121/130/93 127/136/99
f 123/132/95 122/131/94 128/137/100
f 125/134/97 126/135/98 129/138/101
f 129/138/101 126/135/98 127/136/99
f 125/134/97 129/138/101 130/139/102
f 129/138/101 127/136/99 131/140/103
f 132/141/104 124/133/96 123/132/95
f 132/141/104 123/132/95 128/137/100
f 124/133/96 132/141/104 133/142/105
f 132/141/104 128/137/100 134/143/106
f 132/141/104 134/143/106 133/142/105
f 134/143/106 128/137/100 135/144/107
f 129/138/101 131/140/103 136/145/108
f 129/138/101 136/145/108 130/139/102
f 133/142/105 134/143/106 137/146/109
f 135/144/107 128/137/100 138/147/110
f 134/143/106 135/144/107 139/148/111
f 134/143/106 139/148/111 137/146/109
f 139/148/111 135/144/107 140/149/112
f 137/146/109 139/148/111 141/150/113
f 140/149/112 135/144/107 142/151/114
f 142/151/114 135/144/107 138/147/110
f 140/149/112 142/151/114 143/152/115
f 143/152/115 142/151/114 144/153/116
f 144/153/116 142/151/114 145/154/117
f 145/154/117 142/151/114 138/147/110
f 144/153/116 145/154/117 146/155/118
f 146/155/118 145/154/117 147/156/119
f 145/154/117 138/147/110 148/157/120
f 145/154/117 148/157/120 147/156/119
f 148/157/120 138/147/110 130/139/102
f 147/156/119 148/157/120 149/158/121
f 148/157/120 130/139/102 150/159/122
f 148/157/120 150/159/122 149/158/121
f 150/159/122 130/139/102 136/145/108
f 149/158/121 150/159/122 151/160/123
f 150/159/122 136/145/108 152/161/124
f 150/159/122 152/161/124 151/160/123
f 152/161/124 136/145/108 131/140/103
f 152/161/124 131/140/103 153/162/125
f 153/162/125 131/140/103 154/163/126
f 151/160/123 152/161/124 155/164/127
f 155/164/127 152/161/124 153/162/125
f 151/160/123 155/164/127 156/165/128
f 151/160/123 156/165/128 157/166/129
f 155/164/127 153/162/125 158/167/130
f 153/162/125 154/163/126 159/168/131
f 153/162/125 159/168/131 158/167/130
f 156/165/128 155/164/127 115/124/87
f 115/124/87 155/164/127 158/167/130
f 156/165/128 115/124/87 112/121/84
f 115/124/87 158/167/130 160/169/132
f 115/124/87 160/169/132 116/125/88
f 160/169/132 158/167/130 161/170/133
f 161/170/133 158/167/130 162/171/134
f 162/171/134 158/167/130 159/168/131
f 162/171/134 159/168/131 163/172/135
f 163/172/135 159/168/131 164/173/136
f 164/173/136 159/168/131 165/174/137
f 165/174/137 159/168/131 154/163/126
f 164/173/136 165/174/137 166/175/138
f 165/174/137 154/163/126 167/176/139
f 166/175/138 165/174/137 168/177/140
f 165/174/137 167/176/139 169/178/141
f 165/174/137 169/178/141 168/177/140
f 168/177/140 169/178/141 170/179/142
f 169/178/141 167/176/139 171/180/143
f 170/179/142 169/178/141 172/181/144
f 169/178/141 171/180/143 173/182/145
f 169/178/141 173/182/145 172/181/144
f 172/181/144 173/182/145 174/183/146
f 173/182/145 171/180/143 175/184/147
f 174/183/146 173/182/145 176/185/148
f 173/182/145 175/184/147 177/186/149
f 173/182/145 177/186/149 176/185/148
f 176/185/148 177/186/149 37/187/150
f 177/186/149 175/184/147 178/188/151
f 37/187/150 177/186/149 38/189/152
f 177/186/149 178/188/151 179/190/153
f 177/186/149 179/190/153 38/189/152
f 38/189/152 179/190/153 39/191/154
f 179/190/153 178/188/151 180/192/155
f 39/191/154 179/190/153 42/193/156
f 179/190/153 180/192/155 181/194/157
f 179/190/153 181/194/157 42/193/156
f 42/193/156 181/194/157 43/195/158
f 43/195/158 181/194/157 46/196/159
f 181/194/157 180/192/155 182/197/160
f 46/196/159 181/194/157 183/198/161
f 183/198/161 181/194/157 182/197/160
f 46/196/159 183/198/161 47/199/162
f 47/199/162 183/198/161 51/200/163
f 51/200/163 183/198/161 97/106/69
f 51/200/163 97/106/69 100/109/72
f 183/198/161 182/197/160 184/201/164
f 183/198/161 184/201/164 97/106/69
f 184/201/164 182/197/160 137/146/109
f 137/146/109 182/197/160 133/142/105
f 184/201/164 137/146/109 141/150/113
f 97/106/69 184/201/164 185/202/165
f 185/202/165 184/201/164 141/150/113
f 97/106/69 185/202/165 98/107/70
f 185/202/165 141/150/113 186/203/166
f 98/107/70 185/202/165 187/204/167
f 187/204/167 185/202/165 186/203/166
f 98/107/70 187/204/167 103/112/75
f 187/204/167 186/203/166 188/205/168
f 103/112/75 187/204/167 189/206/169
f 189/206/169 187/204/167 188/205/168
f 103/112/75 189/206/169 106/115/78
f 189/206/169 188/205/168 190/207/170
f 106/115/78 189/206/169 191/208/171
f 191/208/171 189/206/169 190/207/170
f 106/115/78 191/208/171 109/118/81
f 191/208/171 190/207/170 192/209/172
f 109/118/81 191/208/171 193/210/173
f 193/210/173 191/208/171 192/209/172
f 109/118/81 193/210/173 112/121/84
f 193/210/173 192/209/172 157/166/129
f 112/121/84 193/210/173 156/165/128
f 156/165/128 193/210/173 157/166/129
f 128/137/100 122/131/94 138/147/110
f 138/147/110 122/131/94 125/134/97
f 138/147/110 125/134/97 130/139/102
f 182/197/160 180/192/155 133/142/105
f 133/142/105 180/192/155 124/133/96
f 124/133/96 180/192/155 178/188/151
f 124/133/96 178/188/151 120/129/92
f 120/129/92 178/188/151 175/184/147
f 120/129/92 175/184/147 117/126/89
f 117/126/89 175/184/147 171/180/143
f 117/126/89 171/180/143 121/130/93
f 121/130/93 171/180/143 167/176/139
f 121/130/93 167/176/139 127/136/99
f 127/136/99 167/176/139 154/163/126
f 127/136/99 154/163/126 131/140/103
f 93/211/174 194/212/175 94/213/176
f 94/213/176 194/212/175 95/214/177
f 95/214/177 194/212/175 195/215/178
f 95/214/177 195/215/178 96/216/179
f 96/216/179 195/215/178 89/217/180
f 195/215/178 194/212/175 196/218/181
f 89/217/180 195/215/178 197/219/182
f 195/215/178 196/218/181 198/220/183
f 195/215/178 198/220/183 197/219/182
f 198/220/183 196/218/181 199/221/184
f 197/219/182 198/220/183 200/222/185
f 198/220/183 199/221/184 201/223/186
f 198/220/183 201/223/186 200/222/185
f 201/223/186 199/221/184 202/224/187
f 200/222/185 201/223/186 203/225/188
f 201/223/186 202/224/187 204/226/189
f 201/223/186 204/226/189 203/225/188
f 203/225/188 204/226/189 205/227/190
f 204/226/189 202/224/187 206/228/68
f 204/226/189 206/228/68 205/227/190
f 207/229/191 208/230/192 206/228/68
f 208/230/192 207/229/191 209/231/193
f 206/228/68 208/230/192 210/232/194
f 206/228/68 210/232/194 205/233/195
f 208/230/192 209/231/193 211/234/196
f 208/230/192 211/234/196 210/232/194
f 211/234/196 209/231/193 212/235/197
f 211/234/196 212/235/197 213/236/198
f 210/232/194 211/234/196 214/237/199
f 210/232/194 214/237/199 205/233/195
f 214/237/199 211/234/196 213/236/198
f 205/233/195 214/237/199 203/238/200
f 214/237/199 213/236/198 215/239/201
f 214/237/199 215/239/201 203/238/200
f 215/239/201 213/236/198 216/240/202
f 203/238/200 215/239/201 200/241/203
f 200/241/203 215/239/201 217/242/204
f 217/242/204 215/239/201 216/240/202
f 200/241/203 217/242/204 197/243/205
f 217/242/204 216/240/202 72/244/206
f 72/244/206 216/240/202 73/245/207
f 217/242/204 72/244/206 78/246/208
f 217/242/204 78/246/208 82/247/209
f 217/242/204 82/247/209 197/243/205
f 197/243/205 82/247/209 86/248/210
f 197/243/205 86/248/210 89/249/211
f 141/150/113 139/148/111 140/149/112
f 141/150/113 140/149/112 186/203/166
f 186/203/166 140/149/112 143/152/115
f 186/203/166 143/152/115 188/205/168
f 188/205/168 143/152/115 144/153/116
f 188/205/168 144/153/116 190/207/170
f 190/207/170 144/153/116 146/155/118
f 190/207/170 146/155/118 192/209/172
f 192/209/172 146/155/118 147/156/119
f 192/209/172 147/156/119 157/166/129
f 157/166/129 147/156/119 149/158/121
f 157/166/129 149/158/121 151/160/123
f 93/211/174 92/250/212 218/251/213
f 218/251/213 92/250/212 91/252/214
f 93/211/174 218/251/213 194/212/175
f 218/251/213 91/252/214 219/253/215
f 219/253/215 91/252/214 90/254/216
f 219/253/215 90/254/216 85/255/217
f 194/212/175 218/251/213 220/256/218
f 194/212/175 220/256/218 196/218/181
f 218/251/213 219/253/215 221/257/219
f 218/251/213 221/257/219 220/256/218
f 219/253/215 85/255/217 222/258/220
f 222/258/220 85/255/217 81/259/221
f 221/257/219 219/253/215 212/235/197
f 212/235/197 219/253/215 222/258/220
f 212/235/197 222/258/220 213/236/198
f 221/257/219 212/235/197 209/231/193
f 222/258/220 81/259/221 77/260/222
f 213/236/198 222/258/220 216/240/202
f 216/240/202 222/258/220 77/260/222
f 216/240/202 77/260/222 73/245/207
f 221/257/219 209/231/193 223/261/223
f 221/257/219 223/261/223 220/256/218
f 223/261/223 209/231/193 207/229/191
f 223/261/223 207/229/191 224/262/224
f 224/262/224 207/229/191 206/228/68
f 220/256/218 223/261/223 225/263/225
f 225/263/225 223/261/223 224/262/224
f 220/256/218 225/263/225 196/218/181
f 196/218/181 225/263/225 199/221/184
f 225/263/225 224/262/224 226/264/226
f 226/264/226 224/262/224 206/228/68
f 225/263/225 226/264/226 199/221/184
f 226/264/226 206/228/68 202/224/187
f 226/264/226 202/224/187 199/221/184
f 227/265/227 66/66/62 65/65/61
f 66/66/62 227/265/227 87/266/228
f 228/267/229 65/65/61 71/71/67
f 65/65/61 228/267/229 227/265/227
f 229/268/230 71/71/67 70/70/66
f 71/71/67 229/268/230 228/267/229
f 229/268/230 70/70/66 69/69/65
f 87/266/228 227/265/227 230/269/231
f 87/266/228 230/269/231 83/270/232
f 227/265/227 228/267/229 231/271/233
f 228/267/229 229/268/230 232/272/234
f 228/267/229 232/272/234 231/271/233
f 229/268/230 69/69/65 233/273/235
f 229/268/230 233/273/235 232/272/234
f 227/265/227 231/271/233 234/274/236
f 227/265/227 234/274/236 230/269/231
f 231/271/233 232/272/234 235/275/237
f 231/271/233 235/275/237 234/274/236
f 235/275/237 232/272/234 233/273/235
f 233/273/235 69/69/65 236/276/238
f 236/276/238 69/69/65 55/55/51
f 235/275/237 233/273/235 237/277/239
f 234/274/236 235/275/237 238/278/240
f 238/278/240 235/275/237 237/277/239
f 234/274/236 238/278/240 239/279/241
f 234/274/236 239/279/241 230/269/231
f 239/279/241 238/278/240 240/280/242
f 240/280/242 238/278/240 237/277/239
f 230/269/231 239/279/241 241/281/243
f 241/281/243 239/279/241 240/280/242
f 230/269/231 241/281/243 242/282/244
f 230/269/231 242/282/244 83/270/232
f 83/270/232 242/282/244 79/283/245
f 243/284/246 237/277/239 233/273/235
f 243/284/246 233/273/235 236/276/238
f 244/285/247 240/280/242 237/277/239
f 241/281/243 240/280/242 245/286/248
f 245/286/248 240/280/242 244/285/247
f 241/281/243 245/286/248 246/287/249
f 241/281/243 246/287/249 242/282/244
f 246/287/249 245/286/248 247/288/250
f 247/288/250 245/286/248 244/285/247
f 242/282/244 246/287/249 248/289/251
f 248/289/251 246/287/249 247/288/250
f 249/290/252 79/283/245 242/282/244
f 249/290/252 242/282/244 248/289/251
f 79/283/245 249/290/252 75/291/253
f 75/291/253 249/290/252 250/292/254
f 75/291/253 250/292/254 74/293/255
f 249/290/252 248/289/251 251/294/256
f 249/290/252 251/294/256 252/295/257
f 252/295/257 251/294/256 253/296/258
f 251/294/256 248/289/251 254/297/259
f 251/294/256 254/297/259 253/296/258
f 254/297/259 248/289/251 247/288/250
f 253/296/258 254/297/259 255/298/260
f 255/298/260 254/297/259 247/288/250
f 255/298/260 247/288/250 244/285/247
f 255/298/260 244/285/247 256/299/261
f 255/298/260 256/299/261 257/300/262
f 255/298/260 257/300/262 258/301/263
f 258/301/263 257/300/262 259/302/264
f 256/299/261 244/285/247 260/303/265
f 260/303/265 244/285/247 237/277/239
f 260/303/265 237/277/239 243/284/246
f 256/299/261 260/303/265 261/304/266
f 256/299/261 261/304/266 262/305/267
f 256/299/261 262/305/267 263/306/268
f 263/306/268 262/305/267 113/307/269
f 113/307/269 262/305/267 261/304/266
f 263/306/268 113/307/269 114/308/270
f 113/307/269 261/304/266 111/309/271
f 263/306/268 114/308/270 116/310/272
f 263/306/268 116/310/272 264/311/273
f 264/311/273 116/310/272 265/312/274
f 265/312/274 116/310/272 160/313/275
f 111/309/271 261/304/266 110/314/276
f 110/314/276 261/304/266 266/315/277
f 266/315/277 261/304/266 260/303/265
f 110/314/276 266/315/277 267/316/278
f 267/316/278 266/315/277 260/303/265
f 110/314/276 267/316/278 108/317/279
f 267/316/278 260/303/265 243/284/246
f 108/317/279 267/316/278 107/318/228
f 267/316/278 243/284/246 268/319/280
f 267/316/278 268/319/280 107/318/228
f 268/319/280 243/284/246 269/320/281
f 268/319/280 269/320/281 107/318/228
f 107/318/228 269/320/281 105/321/282
f 269/320/281 243/284/246 236/276/238
f 105/321/282 269/320/281 104/322/62
f 269/320/281 236/276/238 270/323/283
f 269/320/281 270/323/283 104/322/62
f 270/323/283 236/276/238 271/324/284
f 270/323/283 271/324/284 104/322/62
f 104/322/62 271/324/284 102/325/285
f 271/324/284 236/276/238 55/55/51
f 102/325/285 271/324/284 101/326/57
f 271/324/284 55/55/51 272/327/286
f 271/324/284 272/327/286 101/326/57
f 272/327/286 55/55/51 54/54/50
f 272/327/286 54/54/50 101/326/57
f 101/326/57 54/54/50 99/328/287
f 99/328/287 54/54/50 100/329/7
f 100/329/7 54/54/50 53/53/49
f 100/329/7 53/53/49 50/50/46
f 100/329/7 50/50/46 51/51/47
f 256/299/261 263/306/268 257/300/262
f 257/300/262 263/306/268 264/311/273
f 257/300/262 264/311/273 265/312/274
f 257/300/262 265/312/274 259/302/264
f 160/313/275 161/330/255 265/312/274
f 265/312/274 161/330/255 273/331/288
f 265/312/274 273/331/288 259/302/264
f 273/331/288 161/330/255 274/332/289
f 273/331/288 274/332/289 259/302/264
f 274/332/289 161/330/255 162/333/290
f 274/332/289 162/333/290 163/334/291
f 274/332/289 163/334/291 275/335/292
f 259/302/264 274/332/289 276/336/293
f 276/336/293 274/332/289 275/335/292
f 275/335/292 163/334/291 277/337/294
f 275/335/292 277/337/294 276/336/293
f 277/337/294 163/334/291 164/338/295
f 277/337/294 164/338/295 166/339/296
f 259/302/264 276/336/293 278/340/297
f 277/337/294 166/339/296 279/341/298
f 276/336/293 277/337/294 280/342/299
f 280/342/299 277/337/294 279/341/298
f 279/341/298 166/339/296 281/343/300
f 279/341/298 281/343/300 280/342/299
f 281/343/300 166/339/296 168/344/301
f 281/343/300 168/344/301 170/345/302
f 281/343/300 170/345/302 282/346/303
f 276/336/293 280/342/299 283/347/304
f 276/336/293 283/347/304 278/340/297
f 280/342/299 281/343/300 284/348/305
f 284/348/305 281/343/300 282/346/303
f 282/346/303 170/345/302 285/349/306
f 282/346/303 285/349/306 284/348/305
f 285/349/306 170/345/302 172/350/307
f 285/349/306 172/350/307 174/351/308
f 285/349/306 174/351/308 286/352/309
f 280/342/299 284/348/305 287/353/310
f 280/342/299 287/353/310 283/347/304
f 284/348/305 285/349/306 288/354/311
f 288/354/311 285/349/306 286/352/309
f 286/352/309 174/351/308 289/355/312
f 286/352/309 289/355/312 288/354/311
f 289/355/312 174/351/308 176/356/313
f 289/355/312 176/356/313 37/357/314
f 289/355/312 37/357/314 36/358/315
f 289/355/312 36/358/315 32/359/316
f 289/355/312 32/359/316 288/354/311
f 288/354/311 32/359/316 30/360/317
f 290/361/318 284/348/305 288/354/311
f 290/361/318 288/354/311 30/360/317
f 284/348/305 290/361/318 287/353/310
f 290/361/318 30/360/317 291/362/319
f 291/362/319 30/360/317 29/363/320
f 291/362/319 29/363/320 292/364/321
f 292/364/321 29/363/320 22/365/322
f 292/364/321 22/365/322 19/366/323
f 88/367/324 19/366/323 18/368/313
f 19/366/323 88/367/324 293/369/325
f 19/366/323 293/369/325 292/364/321
f 293/369/325 88/367/324 84/370/302
f 291/362/319 292/364/321 294/371/326
f 294/371/326 292/364/321 293/369/325
f 293/369/325 84/370/302 295/372/327
f 293/369/325 295/372/327 294/371/326
f 295/372/327 84/370/302 80/373/296
f 291/362/319 294/371/326 296/374/328
f 291/362/319 296/374/328 290/361/318
f 296/374/328 294/371/326 297/375/329
f 297/375/329 294/371/326 295/372/327
f 290/361/318 296/374/328 298/376/330
f 298/376/330 296/374/328 297/375/329
f 290/361/318 298/376/330 287/353/310
f 295/372/327 80/373/296 299/377/331
f 299/377/331 80/373/296 76/378/291
f 297/375/329 295/372/327 300/379/332
f 297/375/329 300/379/332 298/376/330
f 300/379/332 295/372/327 301/380/333
f 301/380/333 295/372/327 299/377/331
f 298/376/330 300/379/332 302/381/334
f 302/381/334 300/379/332 301/380/333
f 298/376/330 302/381/334 287/353/310
f 287/353/310 302/381/334 303/382/335
f 303/382/335 302/381/334 301/380/333
f 287/353/310 303/382/335 283/347/304
f 301/380/333 299/377/331 304/383/336
f 301/380/333 304/383/336 303/382/335
f 305/384/337 299/377/331 76/378/291
f 305/384/337 76/378/291 74/293/255
f 304/383/336 299/377/331 306/385/338
f 306/385/338 299/377/331 305/384/337
f 303/382/335 304/383/336 307/386/339
f 307/386/339 304/383/336 306/385/338
f 303/382/335 307/386/339 283/347/304
f 305/384/337 74/293/255 250/292/254
f 283/347/304 307/386/339 308/387/340
f 308/387/340 307/386/339 306/385/338
f 283/347/304 308/387/340 278/340/297
f 306/385/338 305/384/337 309/388/341
f 306/385/338 309/388/341 308/387/340
f 305/384/337 250/292/254 310/389/342
f 305/384/337 310/389/342 309/388/341
f 308/387/340 309/388/341 311/390/343
f 308/387/340 311/390/343 278/340/297
f 311/390/343 309/388/341 310/389/342
f 278/340/297 311/390/343 312/391/344
f 312/391/344 311/390/343 310/389/342
f 278/340/297 312/391/344 258/301/263
f 278/340/297 258/301/263 259/302/264
f 312/391/344 310/389/342 313/392/345
f 313/392/345 310/389/342 250/292/254
f 313/392/345 250/292/254 252/295/257
f 252/295/257 250/292/254 249/290/252
f 312/391/344 313/392/345 314/393/346
f 314/393/346 313/392/345 252/295/257
f 312/391/344 314/393/346 258/301/263
f 314/393/346 252/295/257 253/296/258
f 314/393/346 253/296/258 258/301/263
f 258/301/263 253/296/258 255/298/260
