# CS2 body mesh, tools/cs2_glb_to_obj.py
v 0.05848 -0.08021 0.02409
v 0.05844 -0.08022 0.02884
v 0.05834 -0.07971 0.02884
v 0.0583 -0.07972 0.02409
v 0.05953 -0.08007 0.02409
v 0.0595 -0.08008 0.02884
v 0.05834 -0.07971 0.0016
v 0.05844 -0.08022 0.0016
v 0.05844 -0.08022 0.00621
v 0.05834 -0.07971 0.00648
v 0.0595 -0.08008 0.0016
v 0.05953 -0.08006 0.00622
v 0.06124 -0.07485 0.04225
v 0.06095 -0.07591 0.04225
v 0.06139 -0.07612 0.04225
v 0.0606 -0.07714 0.04225
v 0.06173 -0.07488 0.04225
v 0.06028 -0.07678 0.04225
v 0.0611 -0.07376 0.04225
v 0.05948 -0.07778 0.04225
v 0.06156 -0.07361 0.04225
v 0.05933 -0.07732 0.04225
v 0.06056 -0.07281 0.04225
v 0.05821 -0.07794 0.04225
v 0.06092 -0.07249 0.04225
v 0.05824 -0.07746 0.04225
v 0.05969 -0.07214 0.04225
v 0.05696 -0.0776 0.04225
v 0.05991 -0.0717 0.04225
v 0.05863 -0.07185 0.04225
v 0.05867 -0.07136 0.04225
v 0.05718 -0.07717 0.04225
v 0.05595 -0.07682 0.04225
v 0.05631 -0.0765 0.04225
v 0.05531 -0.0757 0.04225
v 0.05577 -0.07555 0.04225
v 0.05515 -0.07442 0.04225
v 0.05563 -0.07446 0.04225
v 0.05548 -0.07318 0.04225
v 0.05592 -0.0734 0.04225
v 0.05627 -0.07216 0.04225
v 0.05659 -0.07253 0.04225
v 0.05739 -0.07153 0.04225
v 0.05754 -0.07199 0.04225
v 0.05669 -0.07265 -0.00567
v 0.05759 -0.07214 -0.00567
v 0.057 -0.073 -0.00521
v 0.05774 -0.07257 -0.00521
v 0.05647 -0.07367 -0.00521
v 0.05606 -0.07347 -0.00567
v 0.05625 -0.0745 -0.00521
v 0.05579 -0.07447 -0.00567
v 0.05636 -0.07535 -0.00521
v 0.05592 -0.0755 -0.00567
v 0.05678 -0.07609 -0.00521
v 0.05643 -0.07639 -0.00567
v 0.05746 -0.07662 -0.00521
v 0.05725 -0.07703 -0.00567
v 0.06101 -0.07915 -0.00538
v 0.0599 -0.07903 -0.00567
v 0.06146 -0.07814 -0.00567
v 0.06183 -0.07856 -0.00538
v 0.06253 -0.07782 -0.00538
v 0.06257 -0.07671 -0.00567
v 0.06307 -0.07696 -0.00538
v 0.06343 -0.07602 -0.00538
v 0.06304 -0.07497 -0.00567
v 0.0636 -0.07501 -0.00538
v 0.06357 -0.074 -0.00538
v 0.06281 -0.07319 -0.00567
v 0.06335 -0.07301 -0.00538
v 0.06293 -0.07208 -0.00538
v 0.06192 -0.07162 -0.00567
v 0.06235 -0.07125 -0.00538
v 0.06161 -0.07056 -0.00538
v 0.0605 -0.07052 -0.00567
v 0.06075 -0.07002 -0.00538
v 0.05784 -0.07396 -0.00581
v 0.05844 -0.07465 -0.00548
v 0.05752 -0.07459 -0.00581
v 0.05775 -0.07525 -0.00581
v 0.06008 -0.07957 0.03313
v 0.05909 -0.07979 0.03313
v 0.06008 -0.07957 -0.00212
v 0.05909 -0.07979 -0.00212
v 0.06101 -0.07915 -0.00212
v 0.05983 -0.07883 -0.00294
v 0.06101 -0.07915 0.03313
v 0.05948 -0.07778 0.03688
v 0.06132 -0.07798 -0.00294
v 0.05983 -0.07883 -0.00404
v 0.06183 -0.07856 -0.00212
v 0.0606 -0.07714 0.03688
v 0.06183 -0.07856 0.03313
v 0.06253 -0.07782 -0.00212
v 0.06253 -0.07782 0.03313
v 0.06138 -0.07612 0.03688
v 0.06132 -0.07798 -0.00404
v 0.06238 -0.07662 -0.00294
v 0.06307 -0.07696 -0.00212
v 0.06307 -0.07696 0.03313
v 0.06172 -0.07488 0.03688
v 0.06343 -0.07602 0.03313
v 0.06343 -0.07602 -0.00212
v 0.06156 -0.07361 0.03688
v 0.0636 -0.07501 0.03313
v 0.0636 -0.07501 -0.00212
v 0.06283 -0.07496 -0.00294
v 0.06357 -0.074 -0.00212
v 0.06357 -0.074 0.03313
v 0.06238 -0.07662 -0.00404
v 0.06261 -0.07326 -0.00294
v 0.06335 -0.07301 -0.00212
v 0.06335 -0.07301 0.03313
v 0.06293 -0.07208 -0.00212
v 0.06293 -0.07208 0.03313
v 0.06092 -0.07249 0.03688
v 0.06283 -0.07496 -0.00404
v 0.06176 -0.07176 -0.00294
v 0.06235 -0.07125 -0.00212
v 0.06235 -0.07125 0.03313
v 0.06161 -0.07056 -0.00212
v 0.06161 -0.07056 0.03313
v 0.06261 -0.07326 -0.00404
v 0.0604 -0.07071 -0.00294
v 0.06075 -0.07002 -0.00212
v 0.06075 -0.07002 0.03313
v 0.0598 -0.06966 -0.00212
v 0.0598 -0.06966 0.03313
v 0.05991 -0.0717 0.03688
v 0.05867 -0.07136 0.03688
v 0.06176 -0.07176 -0.00404
v 0.0604 -0.07071 -0.00404
v 0.05874 -0.07026 -0.00294
v 0.05874 -0.07026 -0.00404
v 0.06293 -0.07208 -0.00433
v 0.06235 -0.07125 -0.00433
v 0.06161 -0.07056 -0.00433
v 0.06075 -0.07002 -0.00433
v 0.0598 -0.06966 -0.00433
v 0.0598 -0.06966 -0.00538
v 0.06335 -0.07301 -0.00433
v 0.06357 -0.074 -0.00433
v 0.0636 -0.07501 -0.00433
v 0.06343 -0.07602 -0.00433
v 0.06307 -0.07696 -0.00433
v 0.06253 -0.07782 -0.00433
v 0.06183 -0.07856 -0.00433
v 0.06101 -0.07915 -0.00433
v 0.06008 -0.07957 -0.00538
v 0.06008 -0.07957 -0.00433
v 0.05909 -0.07979 -0.00433
v 0.05909 -0.07979 -0.00538
v 0.05406 -0.07612 -0.00567
v 0.05383 -0.07433 -0.00567
v 0.0543 -0.07259 -0.00567
v 0.0533 -0.07531 -0.00538
v 0.05327 -0.07429 -0.00538
v 0.05352 -0.0763 -0.00538
v 0.05344 -0.07329 -0.00538
v 0.0538 -0.07234 -0.00538
v 0.05394 -0.07722 -0.00538
v 0.05434 -0.07148 -0.00538
v 0.05495 -0.07768 -0.00567
v 0.05453 -0.07805 -0.00538
v 0.05526 -0.07875 -0.00538
v 0.05541 -0.07117 -0.00567
v 0.05638 -0.07878 -0.00567
v 0.05504 -0.07074 -0.00538
v 0.05587 -0.07016 -0.00538
v 0.05612 -0.07929 -0.00538
v 0.05707 -0.07965 -0.00538
v 0.05697 -0.07028 -0.00567
v 0.05679 -0.06974 -0.00538
v 0.05778 -0.06951 -0.00538
v 0.05811 -0.07926 -0.00567
v 0.05807 -0.07982 -0.00538
v 0.05876 -0.07005 -0.00567
v 0.0588 -0.06949 -0.00538
v 0.05862 -0.07201 -0.00567
v 0.05962 -0.07228 -0.00567
v 0.05859 -0.07246 -0.00521
v 0.05941 -0.07269 -0.00521
v 0.06044 -0.07291 -0.00567
v 0.06009 -0.07321 -0.00521
v 0.06095 -0.07381 -0.00567
v 0.06052 -0.07396 -0.00521
v 0.06108 -0.07484 -0.00567
v 0.06062 -0.07481 -0.00521
v 0.06081 -0.07584 -0.00567
v 0.0604 -0.07563 -0.00521
v 0.06018 -0.07666 -0.00567
v 0.05988 -0.07631 -0.00521
v 0.05928 -0.07717 -0.00567
v 0.05913 -0.07673 -0.00521
v 0.05825 -0.0773 -0.00567
v 0.05828 -0.07684 -0.00521
v 0.05905 -0.07648 -0.00581
v 0.0583 -0.07657 -0.00581
v 0.05758 -0.07638 -0.00581
v 0.05837 -0.07556 -0.00581
v 0.05698 -0.07592 -0.00581
v 0.05661 -0.07526 -0.00581
v 0.06053 -0.07982 0.02409
v 0.06053 -0.07982 0.02884
v 0.06148 -0.07933 0.02409
v 0.06148 -0.07934 0.02888
v 0.06235 -0.07863 0.02409
v 0.06235 -0.07863 0.02892
v 0.06308 -0.07781 0.02409
v 0.06308 -0.07781 0.02904
v 0.06357 -0.07683 0.02409
v 0.06357 -0.07683 0.02918
v 0.06391 -0.07578 0.02409
v 0.06391 -0.07578 0.02932
v 0.06401 -0.0747 0.02409
v 0.06401 -0.0747 0.02944
v 0.06393 -0.0736 0.02409
v 0.06393 -0.0736 0.02949
v 0.06361 -0.07256 0.02409
v 0.06361 -0.07256 0.02949
v 0.06311 -0.07158 0.02409
v 0.06311 -0.07158 0.02949
v 0.06241 -0.07074 0.02944
v 0.06241 -0.07074 0.02409
v 0.06158 -0.07002 0.02932
v 0.06158 -0.07002 0.02409
v 0.06062 -0.06952 0.02918
v 0.06062 -0.06952 0.02409
v 0.05957 -0.06917 0.02904
v 0.05957 -0.06917 0.02409
v 0.06053 -0.07982 0.0016
v 0.06057 -0.0798 0.00623
v 0.06148 -0.07934 0.0016
v 0.0615 -0.07932 0.00633
v 0.06235 -0.07863 0.0016
v 0.06235 -0.07863 0.00643
v 0.06306 -0.07781 0.0016
v 0.06306 -0.07781 0.00655
v 0.06357 -0.07683 0.0016
v 0.06357 -0.07683 0.00668
v 0.06391 -0.0758 0.0016
v 0.06391 -0.0758 0.00682
v 0.06401 -0.0747 0.0016
v 0.06401 -0.0747 0.00694
v 0.06393 -0.07362 0.0016
v 0.06393 -0.07362 0.00699
v 0.06361 -0.07256 0.0016
v 0.06361 -0.07256 0.00699
v 0.06312 -0.07159 0.0016
v 0.06312 -0.07159 0.00699
v 0.06241 -0.07074 0.00694
v 0.06241 -0.07074 0.0016
v 0.06159 -0.07003 0.00682
v 0.06159 -0.07003 0.0016
v 0.06062 -0.06952 0.00668
v 0.06062 -0.06952 0.0016
v 0.05958 -0.06915 0.00654
v 0.05958 -0.06915 0.0016
v 0.06033 -0.07933 0.02884
v 0.05936 -0.07958 0.02884
v 0.06119 -0.0789 0.0289
v 0.06197 -0.07825 0.02895
v 0.06264 -0.07751 0.02907
v 0.06308 -0.07663 0.02921
v 0.06339 -0.07568 0.02934
v 0.06348 -0.0747 0.02945
v 0.06341 -0.0737 0.02949
v 0.06312 -0.07276 0.02949
v 0.06267 -0.07187 0.02949
v 0.06204 -0.07111 0.02945
v 0.06128 -0.07046 0.02934
v 0.06041 -0.07001 0.02921
v 0.05946 -0.06969 0.02907
v 0.05848 -0.06961 0.02895
v 0.05848 -0.06908 0.02892
v 0.05739 -0.06916 0.02885
v 0.05748 -0.06968 0.02887
v 0.05654 -0.06997 0.02884
v 0.05635 -0.06948 0.02884
v 0.05533 -0.07003 0.02884
v 0.05557 -0.07049 0.02884
v 0.05457 -0.07065 0.02884
v 0.05485 -0.07108 0.02884
v 0.0597 -0.07611 -0.00581
v 0.06016 -0.07551 -0.00581
v 0.06036 -0.07479 -0.00581
v 0.06026 -0.07404 -0.00581
v 0.05989 -0.07339 -0.00581
v 0.05929 -0.07293 -0.00581
v 0.05857 -0.07273 -0.00581
v 0.05936 -0.07958 0.0016
v 0.06033 -0.07933 0.0016
v 0.06119 -0.0789 0.0016
v 0.06197 -0.07825 0.0016
v 0.06262 -0.07751 0.0016
v 0.06308 -0.07663 0.0016
v 0.06339 -0.07569 0.0016
v 0.06348 -0.0747 0.0016
v 0.06341 -0.07371 0.0016
v 0.06312 -0.07276 0.0016
v 0.06268 -0.07188 0.0016
v 0.06204 -0.07111 0.0016
v 0.06129 -0.07047 0.0016
v 0.06041 -0.07001 0.0016
v 0.05947 -0.06968 0.0016
v 0.05848 -0.06908 0.0016
v 0.05848 -0.06961 0.0016
v 0.05748 -0.06968 0.0016
v 0.05738 -0.06916 0.0016
v 0.05635 -0.06948 0.0016
v 0.05654 -0.06997 0.0016
v 0.05533 -0.07003 0.0016
v 0.05557 -0.07049 0.0016
v 0.05457 -0.07065 0.0016
v 0.05485 -0.07108 0.0016
v 0.05978 -0.07701 0.04496
v 0.06105 -0.07537 0.04496
v 0.06057 -0.07523 0.04964
v 0.05953 -0.07657 0.04964
v 0.06079 -0.07331 0.04496
v 0.05915 -0.07204 0.04496
v 0.05902 -0.07252 0.04964
v 0.06035 -0.07356 0.04964
v 0.05879 -0.07336 0.05351
v 0.0596 -0.07399 0.05351
v 0.05863 -0.07393 0.05485
v 0.05909 -0.07428 0.05485
v 0.05844 -0.07465 0.05535
v 0.05973 -0.075 0.05351
v 0.0591 -0.07581 0.05351
v 0.05916 -0.07485 0.05485
v 0.05881 -0.07531 0.05485
v 0.05608 -0.076 0.04496
v 0.05582 -0.07394 0.04496
v 0.05772 -0.07727 0.04496
v 0.05709 -0.0723 0.04496
v 0.05785 -0.07678 0.04964
v 0.05734 -0.07273 0.04964
v 0.0563 -0.07407 0.04964
v 0.05652 -0.07575 0.04964
v 0.05777 -0.07349 0.05351
v 0.05714 -0.0743 0.05351
v 0.05727 -0.07532 0.05351
v 0.05808 -0.07594 0.05351
v 0.05824 -0.07538 0.05485
v 0.05778 -0.07503 0.05485
v 0.05771 -0.07445 0.05485
v 0.05806 -0.074 0.05485
v 0.05652 -0.07452 -0.00581
v 0.05671 -0.07379 -0.00581
v 0.05717 -0.0732 -0.00581
v 0.05783 -0.07283 -0.00581
v 0.0585 -0.07374 -0.00581
v 0.05913 -0.07405 -0.00581
v 0.05935 -0.07472 -0.00581
v 0.05904 -0.07534 -0.00581
v 0.06197 -0.07825 0.00646
v 0.06117 -0.07892 0.00646
v 0.06028 -0.07936 0.00645
v 0.06262 -0.07751 0.00656
v 0.05933 -0.07959 0.00647
v 0.06308 -0.07663 0.00671
v 0.06339 -0.07569 0.00685
v 0.06348 -0.0747 0.00695
v 0.06341 -0.07371 0.00699
v 0.06312 -0.07276 0.00699
v 0.06268 -0.07188 0.00699
v 0.06204 -0.07111 0.00695
v 0.06129 -0.07047 0.00685
v 0.06041 -0.07001 0.00671
v 0.05947 -0.06968 0.00657
v 0.05848 -0.06961 0.00646
v 0.05848 -0.06908 0.00643
v 0.05738 -0.06916 0.00636
v 0.05748 -0.06968 0.00637
v 0.05654 -0.06997 0.00634
v 0.05635 -0.06948 0.00634
v 0.05533 -0.07003 0.00634
v 0.05557 -0.07049 0.00634
v 0.05457 -0.07065 0.00634
v 0.05485 -0.07108 0.00634
v 0.05813 -0.07904 -0.00294
v 0.05813 -0.07904 -0.00404
v 0.05807 -0.07982 -0.00433
v 0.05707 -0.07965 -0.00433
v 0.05647 -0.07859 -0.00404
v 0.05612 -0.07929 -0.00433
v 0.05526 -0.07875 -0.00433
v 0.05453 -0.07805 -0.00433
v 0.05511 -0.07754 -0.00404
v 0.05394 -0.07722 -0.00433
v 0.05352 -0.0763 -0.00433
v 0.05647 -0.07859 -0.00294
v 0.05426 -0.07605 -0.00404
v 0.0533 -0.07531 -0.00433
v 0.05327 -0.07429 -0.00433
v 0.05511 -0.07754 -0.00294
v 0.05404 -0.07435 -0.00404
v 0.05344 -0.07329 -0.00433
v 0.0538 -0.07234 -0.00433
v 0.05426 -0.07605 -0.00294
v 0.0545 -0.07269 -0.00404
v 0.05434 -0.07148 -0.00433
v 0.05504 -0.07074 -0.00433
v 0.05404 -0.07435 -0.00294
v 0.05555 -0.07133 -0.00404
v 0.05587 -0.07016 -0.00433
v 0.05679 -0.06974 -0.00433
v 0.0545 -0.07269 -0.00294
v 0.05704 -0.07048 -0.00404
v 0.05778 -0.06951 -0.00433
v 0.0588 -0.06949 -0.00433
v 0.05704 -0.07048 -0.00294
v 0.05555 -0.07133 -0.00294
v 0.05778 -0.06951 -0.00212
v 0.0588 -0.06949 -0.00212
v 0.0588 -0.06949 0.03313
v 0.05778 -0.06951 0.03313
v 0.05679 -0.06974 -0.00212
v 0.05587 -0.07016 -0.00212
v 0.05679 -0.06974 0.03313
v 0.05739 -0.07153 0.03688
v 0.05587 -0.07016 0.03313
v 0.05504 -0.07074 -0.00212
v 0.05504 -0.07074 0.03313
v 0.05627 -0.07216 0.03688
v 0.05434 -0.07148 -0.00212
v 0.05548 -0.07318 0.03688
v 0.05434 -0.07148 0.03313
v 0.0538 -0.07234 -0.00212
v 0.05344 -0.07329 -0.00212
v 0.0538 -0.07234 0.03313
v 0.05344 -0.07329 0.03313
v 0.05515 -0.07442 0.03688
v 0.05327 -0.07429 -0.00212
v 0.0533 -0.07531 -0.00212
v 0.05327 -0.07429 0.03313
v 0.05531 -0.0757 0.03688
v 0.0533 -0.07531 0.03313
v 0.05352 -0.0763 -0.00212
v 0.05394 -0.07722 -0.00212
v 0.05352 -0.0763 0.03313
v 0.05595 -0.07682 0.03688
v 0.05394 -0.07722 0.03313
v 0.05453 -0.07805 -0.00212
v 0.05526 -0.07875 -0.00212
v 0.05453 -0.07805 0.03313
v 0.05526 -0.07875 0.03313
v 0.05696 -0.0776 0.03688
v 0.05612 -0.07929 -0.00212
v 0.05707 -0.07965 -0.00212
v 0.05612 -0.07929 0.03313
v 0.05707 -0.07965 0.03313
v 0.05821 -0.07794 0.03688
v 0.05807 -0.07982 -0.00212
v 0.05807 -0.07982 0.03313
v 0.06032 -0.07934 0.02409
v 0.06119 -0.0789 0.02409
v 0.06197 -0.07825 0.02409
v 0.05933 -0.07958 0.02409
v 0.06264 -0.07751 0.02409
v 0.06308 -0.07663 0.02409
v 0.06339 -0.07568 0.02409
v 0.06348 -0.0747 0.02409
v 0.06341 -0.0737 0.02409
v 0.06312 -0.07276 0.02409
v 0.06267 -0.07187 0.02409
v 0.06204 -0.07111 0.02409
v 0.06128 -0.07046 0.02409
v 0.06041 -0.07001 0.02409
v 0.05946 -0.06969 0.02409
v 0.05848 -0.06908 0.02409
v 0.05848 -0.06961 0.02409
v 0.05748 -0.06968 0.02409
v 0.05739 -0.06916 0.02409
v 0.05635 -0.06948 0.02409
v 0.05654 -0.06997 0.02409
v 0.05533 -0.07003 0.02409
v 0.05557 -0.07049 0.02409
v 0.05457 -0.07065 0.02409
v 0.05485 -0.07108 0.02409
vt 0.170898 0.564941
vt 0.170898 0.55957
vt 0.170288 0.55957
vt 0.170288 0.564941
vt 0.172119 0.564941
vt 0.171997 0.55957
vt 0.735352 0.450928
vt 0.73584 0.450928
vt 0.73584 0.445801
vt 0.735352 0.445557
vt 0.737305 0.450928
vt 0.737305 0.445801
vt 0.110779 0.089966
vt 0.110779 0.088318
vt 0.110291 0.088318
vt 0.110291 0.086609
vt 0.110291 0.089966
vt 0.110779 0.086609
vt 0.110779 0.091614
vt 0.110291 0.0849
vt 0.110291 0.091553
vt 0.110779 0.0849
vt 0.110779 0.09314
vt 0.110291 0.083191
vt 0.110291 0.093079
vt 0.110779 0.083191
vt 0.110779 0.094604
vt 0.110291 0.081482
vt 0.110291 0.094543
vt 0.110779 0.095947
vt 0.110291 0.096008
vt 0.110779 0.081482
vt 0.110291 0.079773
vt 0.110779 0.079773
vt 0.110291 0.078064
vt 0.110779 0.078064
vt 0.110291 0.076416
vt 0.110779 0.076416
vt 0.110291 0.074829
vt 0.110779 0.074829
vt 0.110291 0.073364
vt 0.110779 0.073303
vt 0.110291 0.071899
vt 0.110779 0.071838
vt 0.110291 0.070435
vt 0.110779 0.070496
vt 0.514648 0.201904
vt 0.516113 0.202637
vt 0.515137 0.201416
vt 0.516113 0.202026
vt 0.514648 0.200562
vt 0.51416 0.200806
vt 0.514648 0.199585
vt 0.513672 0.199585
vt 0.514648 0.198486
vt 0.51416 0.198242
vt 0.515137 0.197632
vt 0.514648 0.197144
vt 0.516113 0.197021
vt 0.515625 0.196411
vt 0.520508 0.194214
vt 0.519043 0.194336
vt 0.520996 0.195557
vt 0.521484 0.194946
vt 0.522461 0.195923
vt 0.522461 0.197266
vt 0.522949 0.197021
vt 0.523438 0.19812
vt 0.522949 0.199463
vt 0.523438 0.199341
vt 0.523438 0.200684
vt 0.522461 0.201538
vt 0.522949 0.201782
vt 0.522461 0.202881
vt 0.520996 0.203369
vt 0.521484 0.203857
vt 0.520508 0.204712
vt 0.519531 0.20459
vt 0.519531 0.205322
vt 0.516602 0.200195
vt 0.51709 0.199463
vt 0.516113 0.199463
vt 0.516602 0.198853
vt 0.771973 0.95166
vt 0.770996 0.95166
vt 0.771973 0.992676
vt 0.770996 0.992676
vt 0.773438 0.992676
vt 0.772461 0.993652
vt 0.773438 0.95166
vt 0.771973 0.946777
vt 0.774414 0.993652
vt 0.772461 0.995117
vt 0.774414 0.992676
vt 0.773926 0.946777
vt 0.771973 0.940918
vt 0.774414 0.95166
vt 0.773926 0.940918
vt 0.775391 0.992676
vt 0.775391 0.95166
vt 0.775879 0.946777
vt 0.775879 0.940918
vt 0.774414 0.995117
vt 0.776855 0.993652
vt 0.776367 0.992676
vt 0.776367 0.95166
vt 0.777832 0.946777
vt 0.777832 0.940918
vt 0.777344 0.95166
vt 0.777344 0.992676
vt 0.779297 0.946777
vt 0.779297 0.940918
vt 0.778809 0.95166
vt 0.778809 0.992676
vt 0.778809 0.993652
vt 0.779785 0.992676
vt 0.779785 0.95166
vt 0.776855 0.995117
vt 0.78125 0.993652
vt 0.780762 0.992676
vt 0.780762 0.95166
vt 0.781738 0.992676
vt 0.781738 0.95166
vt 0.78125 0.946777
vt 0.78125 0.940918
vt 0.779297 0.995117
vt 0.783203 0.993652
vt 0.782715 0.992676
vt 0.782715 0.95166
vt 0.78418 0.992676
vt 0.78418 0.95166
vt 0.78125 0.995117
vt 0.785645 0.993652
vt 0.785156 0.992676
vt 0.785156 0.95166
vt 0.786133 0.992676
vt 0.786133 0.95166
vt 0.782715 0.946777
vt 0.78418 0.946777
vt 0.782715 0.940918
vt 0.78418 0.940918
vt 0.783691 0.995117
vt 0.785645 0.995117
vt 0.787598 0.993652
vt 0.788086 0.995117
vt 0.782715 0.996094
vt 0.783691 0.996094
vt 0.784668 0.996094
vt 0.783691 0.997559
vt 0.785156 0.997559
vt 0.782715 0.997559
vt 0.786133 0.997559
vt 0.786133 0.996094
vt 0.787109 0.996094
vt 0.787598 0.997559
vt 0.781738 0.997559
vt 0.78125 0.996094
vt 0.780273 0.996094
vt 0.780273 0.997559
vt 0.779297 0.997559
vt 0.779297 0.996094
vt 0.777832 0.996094
vt 0.777832 0.997559
vt 0.776855 0.997559
vt 0.776855 0.996094
vt 0.775879 0.996094
vt 0.775879 0.997559
vt 0.774414 0.997559
vt 0.774414 0.996094
vt 0.773438 0.996094
vt 0.773438 0.997559
vt 0.772461 0.997559
vt 0.772461 0.996094
vt 0.770996 0.996094
vt 0.770996 0.997559
vt 0.512207 0.197388
vt 0.511719 0.199585
vt 0.512207 0.20166
vt 0.51123 0.198364
vt 0.510742 0.199585
vt 0.51123 0.197144
vt 0.51123 0.200806
vt 0.51123 0.202026
vt 0.511719 0.196045
vt 0.512207 0.203003
vt 0.513184 0.195679
vt 0.512695 0.195068
vt 0.513672 0.194336
vt 0.513184 0.203491
vt 0.515137 0.194336
vt 0.512695 0.203979
vt 0.513672 0.204712
vt 0.514648 0.193726
vt 0.515625 0.193359
vt 0.515137 0.204712
vt 0.514648 0.205322
vt 0.516113 0.205688
vt 0.51709 0.19397
vt 0.51709 0.193237
vt 0.518066 0.193359
vt 0.51709 0.205078
vt 0.51709 0.205811
vt 0.518555 0.205688
vt 0.51709 0.202881
vt 0.518555 0.202515
vt 0.51709 0.202148
vt 0.518066 0.201904
vt 0.519531 0.201782
vt 0.519043 0.201416
vt 0.520508 0.200684
vt 0.519531 0.200439
vt 0.520508 0.199463
vt 0.52002 0.199463
vt 0.52002 0.19812
vt 0.519531 0.198486
vt 0.519531 0.197144
vt 0.519043 0.197632
vt 0.518555 0.196411
vt 0.518066 0.197021
vt 0.51709 0.196167
vt 0.51709 0.196777
vt 0.519531 0.193604
vt 0.518066 0.197632
vt 0.51709 0.19751
vt 0.516602 0.197632
vt 0.51709 0.198486
vt 0.515625 0.19812
vt 0.515137 0.19873
vt 0.173218 0.564941
vt 0.173218 0.55957
vt 0.174438 0.564941
vt 0.174438 0.55957
vt 0.175659 0.564941
vt 0.175659 0.55957
vt 0.17688 0.564941
vt 0.17688 0.55957
vt 0.178101 0.564941
vt 0.178101 0.559082
vt 0.179321 0.564941
vt 0.179321 0.559082
vt 0.180542 0.564941
vt 0.180542 0.559082
vt 0.181763 0.564941
vt 0.181763 0.559082
vt 0.182983 0.564941
vt 0.182983 0.559082
vt 0.184204 0.564941
vt 0.184204 0.559082
vt 0.185425 0.559082
vt 0.185425 0.564941
vt 0.186768 0.559082
vt 0.186768 0.564941
vt 0.187988 0.559082
vt 0.187988 0.564941
vt 0.189209 0.55957
vt 0.189209 0.564941
vt 0.738281 0.450928
vt 0.738281 0.445801
vt 0.739746 0.450928
vt 0.739746 0.445801
vt 0.740723 0.450928
vt 0.740723 0.445557
vt 0.742188 0.450928
vt 0.742188 0.445557
vt 0.743164 0.450928
vt 0.743164 0.445312
vt 0.744629 0.450928
vt 0.744629 0.445068
vt 0.745605 0.450928
vt 0.745605 0.445068
vt 0.74707 0.450928
vt 0.74707 0.444824
vt 0.748047 0.450928
vt 0.748047 0.444824
vt 0.749512 0.450928
vt 0.749512 0.444824
vt 0.750488 0.445068
vt 0.750488 0.450928
vt 0.751953 0.445068
vt 0.751953 0.450928
vt 0.75293 0.445312
vt 0.75293 0.450928
vt 0.754395 0.445557
vt 0.754395 0.450928
vt 0.910645 0.009171
vt 0.90918 0.009171
vt 0.90918 0.009766
vt 0.908203 0.009766
vt 0.908203 0.009171
vt 0.910645 0.009766
vt 0.911621 0.009766
vt 0.911621 0.009171
vt 0.913086 0.009171
vt 0.913086 0.009766
vt 0.914062 0.009766
vt 0.914062 0.009171
vt 0.915039 0.009171
vt 0.915039 0.009766
vt 0.916504 0.009766
vt 0.916504 0.009171
vt 0.91748 0.009171
vt 0.91748 0.009766
vt 0.918945 0.009766
vt 0.918945 0.009171
vt 0.919922 0.009766
vt 0.919922 0.009171
vt 0.920898 0.009171
vt 0.920898 0.009766
vt 0.922363 0.009171
vt 0.922363 0.009766
vt 0.92334 0.009766
vt 0.92334 0.009171
vt 0.924805 0.009171
vt 0.924805 0.009766
vt 0.925781 0.009766
vt 0.925781 0.009171
vt 0.926758 0.009171
vt 0.926758 0.009766
vt 0.928223 0.009766
vt 0.928223 0.009171
vt 0.929199 0.009171
vt 0.929199 0.009766
vt 0.930664 0.009766
vt 0.930664 0.009171
vt 0.931641 0.009766
vt 0.931641 0.009171
vt 0.518555 0.197998
vt 0.519043 0.19873
vt 0.519043 0.199463
vt 0.519043 0.200195
vt 0.518555 0.200928
vt 0.518066 0.201416
vt 0.51709 0.201538
vt 0.755859 0.007675
vt 0.755859 0.00827
vt 0.756836 0.00827
vt 0.756836 0.007675
vt 0.754395 0.007675
vt 0.754395 0.00827
vt 0.753418 0.00827
vt 0.753418 0.007675
vt 0.752441 0.007675
vt 0.752441 0.00827
vt 0.750977 0.007675
vt 0.750977 0.00827
vt 0.75 0.00827
vt 0.75 0.007675
vt 0.749023 0.007675
vt 0.749023 0.00827
vt 0.747559 0.00827
vt 0.747559 0.007675
vt 0.746582 0.007675
vt 0.746582 0.00827
vt 0.745605 0.00827
vt 0.745605 0.007675
vt 0.744141 0.007675
vt 0.744141 0.00827
vt 0.743164 0.00827
vt 0.743164 0.007675
vt 0.742188 0.007675
vt 0.742188 0.00827
vt 0.740723 0.00827
vt 0.740723 0.007675
vt 0.739746 0.007675
vt 0.739746 0.00827
vt 0.738281 0.00827
vt 0.738281 0.007675
vt 0.737305 0.007675
vt 0.737305 0.00827
vt 0.736328 0.00827
vt 0.736328 0.007675
vt 0.734863 0.00827
vt 0.734863 0.007675
vt 0.733887 0.00827
vt 0.733887 0.007675
vt 0.054932 0.019485
vt 0.055359 0.016693
vt 0.053955 0.016693
vt 0.052429 0.019638
vt 0.052582 0.016693
vt 0.05127 0.016693
vt 0.05368 0.024719
vt 0.055542 0.024414
vt 0.050079 0.019913
vt 0.050018 0.016693
vt 0.048828 0.016693
vt 0.047729 0.020294
vt 0.047699 0.016693
vt 0.0466 0.016693
vt 0.050232 0.026093
vt 0.05191 0.025238
vt 0.05368 0.03006
vt 0.054474 0.029312
vt 0.055725 0.031036
vt 0.055969 0.030518
vt 0.057373 0.030884
vt 0.055359 0.028839
vt 0.056366 0.02858
vt 0.056366 0.030212
vt 0.056854 0.030029
vt 0.0625 0.016693
vt 0.061157 0.016693
vt 0.060089 0.019485
vt 0.059723 0.016693
vt 0.062561 0.019669
vt 0.063843 0.016693
vt 0.057526 0.019424
vt 0.058289 0.016693
vt 0.065063 0.016693
vt 0.056824 0.016693
vt 0.06488 0.019989
vt 0.066223 0.016693
vt 0.067383 0.016693
vt 0.067139 0.020676
vt 0.057465 0.024323
vt 0.062927 0.025345
vt 0.064575 0.026245
vt 0.061218 0.024765
vt 0.059387 0.024429
vt 0.060303 0.029358
vt 0.061066 0.030121
vt 0.059448 0.02887
vt 0.058441 0.028595
vt 0.057404 0.028503
vt 0.057404 0.029953
vt 0.057922 0.030029
vt 0.058411 0.030212
vt 0.058807 0.030533
vt 0.059021 0.031052
vt 0.515137 0.199585
vt 0.515137 0.200317
vt 0.515625 0.200928
vt 0.516602 0.201416
vt 0.51709 0.200439
vt 0.518066 0.200195
vt 0.518066 0.199463
vt 0.518066 0.198853
vt 0.351318 0.940918
vt 0.350098 0.940918
vt 0.350098 0.941406
vt 0.349121 0.941406
vt 0.351318 0.941406
vt 0.348877 0.940918
vt 0.352539 0.941406
vt 0.3479 0.941406
vt 0.352539 0.940918
vt 0.3479 0.940918
vt 0.34668 0.941406
vt 0.34668 0.940918
vt 0.35376 0.940918
vt 0.35376 0.941406
vt 0.35498 0.941406
vt 0.35498 0.940918
vt 0.356201 0.940918
vt 0.356201 0.941406
vt 0.357178 0.941406
vt 0.357178 0.940918
vt 0.358398 0.941406
vt 0.358398 0.940918
vt 0.359619 0.940918
vt 0.359619 0.941406
vt 0.36084 0.940918
vt 0.36084 0.941406
vt 0.362061 0.941406
vt 0.362061 0.940918
vt 0.363281 0.940918
vt 0.363281 0.941406
vt 0.364258 0.941406
vt 0.364258 0.940918
vt 0.365479 0.940918
vt 0.365479 0.941406
vt 0.366699 0.941406
vt 0.366699 0.940918
vt 0.36792 0.940918
vt 0.36792 0.941406
vt 0.369141 0.941406
vt 0.369141 0.940918
vt 0.370117 0.941406
vt 0.370117 0.940918
vt 0.77002 0.993652
vt 0.77002 0.995117
vt 0.77002 0.996094
vt 0.77002 0.997559
vt 0.769043 0.996094
vt 0.769043 0.997559
vt 0.767578 0.997559
vt 0.767578 0.995117
vt 0.767578 0.996094
vt 0.766602 0.996094
vt 0.766602 0.997559
vt 0.765625 0.997559
vt 0.765625 0.996094
vt 0.765625 0.995117
vt 0.76416 0.996094
vt 0.76416 0.997559
vt 0.763184 0.997559
vt 0.763184 0.996094
vt 0.767578 0.993652
vt 0.763184 0.995117
vt 0.762207 0.996094
vt 0.761719 0.997559
vt 0.760742 0.997559
vt 0.760742 0.996094
vt 0.765625 0.993652
vt 0.760742 0.995117
vt 0.759766 0.996094
vt 0.759766 0.997559
vt 0.758301 0.997559
vt 0.758301 0.996094
vt 0.763184 0.993652
vt 0.758789 0.995117
vt 0.757324 0.996094
vt 0.757324 0.997559
vt 0.756348 0.997559
vt 0.756348 0.996094
vt 0.76123 0.993652
vt 0.756348 0.995117
vt 0.754883 0.996094
vt 0.754883 0.997559
vt 0.753906 0.997559
vt 0.753906 0.996094
vt 0.758789 0.993652
vt 0.754395 0.995117
vt 0.75293 0.996094
vt 0.752441 0.997559
vt 0.751465 0.997559
vt 0.751465 0.996094
vt 0.751953 0.995117
vt 0.754395 0.993652
vt 0.756836 0.993652
vt 0.752441 0.993652
vt 0.753906 0.992676
vt 0.752441 0.992676
vt 0.752441 0.95166
vt 0.753906 0.95166
vt 0.755859 0.946777
vt 0.754883 0.992676
vt 0.755859 0.992676
vt 0.754883 0.95166
vt 0.757324 0.946777
vt 0.755859 0.940918
vt 0.757324 0.940918
vt 0.755859 0.95166
vt 0.756836 0.992676
vt 0.756836 0.95166
vt 0.758789 0.946777
vt 0.758789 0.940918
vt 0.758301 0.992676
vt 0.760742 0.946777
vt 0.758301 0.95166
vt 0.760742 0.940918
vt 0.759277 0.992676
vt 0.760254 0.992676
vt 0.759277 0.95166
vt 0.760254 0.95166
vt 0.762207 0.946777
vt 0.762207 0.940918
vt 0.76123 0.992676
vt 0.762695 0.992676
vt 0.76123 0.95166
vt 0.76416 0.946777
vt 0.762695 0.95166
vt 0.76416 0.940918
vt 0.763672 0.992676
vt 0.764648 0.992676
vt 0.763672 0.95166
vt 0.766113 0.946777
vt 0.764648 0.95166
vt 0.766113 0.940918
vt 0.765625 0.992676
vt 0.766602 0.992676
vt 0.765625 0.95166
vt 0.766602 0.95166
vt 0.768066 0.946777
vt 0.768066 0.940918
vt 0.768066 0.992676
vt 0.769043 0.992676
vt 0.768066 0.95166
vt 0.769043 0.95166
vt 0.77002 0.946777
vt 0.77002 0.940918
vt 0.77002 0.992676
vt 0.77002 0.95166
vt 0.424072 0.005795
vt 0.425049 0.005795
vt 0.424805 0.005192
vt 0.426025 0.005795
vt 0.423828 0.005192
vt 0.426025 0.005192
vt 0.423096 0.005795
vt 0.427246 0.005795
vt 0.427246 0.005192
vt 0.428467 0.005192
vt 0.428467 0.005795
vt 0.429688 0.005795
vt 0.429688 0.005192
vt 0.430664 0.005192
vt 0.430664 0.005795
vt 0.431885 0.005795
vt 0.431885 0.005192
vt 0.433105 0.005192
vt 0.433105 0.005795
vt 0.434326 0.005795
vt 0.434326 0.005192
vt 0.435547 0.005192
vt 0.435547 0.005795
vt 0.436768 0.005795
vt 0.436768 0.005192
vt 0.437744 0.005192
vt 0.437744 0.005795
vt 0.438965 0.005795
vt 0.438965 0.005192
vt 0.440186 0.005192
vt 0.440186 0.005795
vt 0.441406 0.005795
vt 0.441406 0.005192
vt 0.442627 0.005192
vt 0.442627 0.005795
vt 0.443848 0.005192
vt 0.443848 0.005795
vt 0.444824 0.005192
vt 0.444824 0.005795
vt 0.423096 0.005192
vt 0.422119 0.005192
vt 0.422119 0.005795
vt 0.788086 0.996094
vt 0.788574 0.997559
vt 0.787109 0.992676
vt 0.787109 0.95166
vt 0.755371 0.445557
vt 0.755371 0.450928
vt 0.756836 0.445557
vt 0.756836 0.450928
vt 0.757812 0.450928
vt 0.757812 0.445557
vt 0.759277 0.450928
vt 0.759277 0.445557
vt 0.760254 0.450928
vt 0.760254 0.445557
vt 0.760742 0.445557
vt 0.760742 0.450928
vt 0.19043 0.55957
vt 0.19043 0.564941
vt 0.19165 0.55957
vt 0.19165 0.564941
vt 0.192871 0.564941
vt 0.192871 0.55957
vt 0.194092 0.564941
vt 0.194092 0.55957
vt 0.19519 0.564941
vt 0.19519 0.55957
vt 0.195801 0.55957
vt 0.195801 0.564941
vn -0.2792 -0.9602 0.0024
vn -0.3033 -0.9529 -0.0049
vn -0.9807 -0.1954 -0.0069
vn -0.9452 -0.3263 0.0075
vn 0.1875 -0.9823 0
vn -0.9825 -0.1862 0
vn -0.3018 -0.9534 0
vn -0.4059 -0.9139 0.0026
vn 0.1959 -0.9806 0.0023
vn 0 -0.001 1
vn 0.0853 -0.1026 -0.9911
vn 0.0407 -0.1256 -0.9912
vn -0.0109 0.007 -0.9999
vn -0.007 0.0109 -0.9999
vn -0.0129 0.003 -0.9999
vn 0.119 -0.0607 -0.991
vn -0.0139 -0.003 -0.9999
vn 0.133 -0.01 -0.9911
vn -0.01 -0.009 -0.9999
vn 0.1257 0.0419 -0.9912
vn -0.008 -0.011 -0.9999
vn 0.1002 0.0863 -0.9912
vn -0.002 -0.0129 -0.9999
vn 0.0606 0.1178 -0.9912
vn 0.2083 -0.363 -0.9082
vn 0.0355 -0.1054 -0.9938
vn 0.0744 -0.0845 -0.9936
vn 0.3002 -0.3467 -0.8886
vn 0.3308 -0.2591 -0.9075
vn 0.1007 -0.0504 -0.9936
vn 0.4082 -0.2041 -0.8898
vn 0.4038 -0.1128 -0.9079
vn 0.1111 -0.0098 -0.9938
vn 0.4577 -0.031 -0.8885
vn 0.4157 0.0525 -0.908
vn 0.1055 0.0366 -0.9937
vn 0.435 0.145 -0.8887
vn 0.3634 0.2099 -0.9077
vn 0.0844 0.0732 -0.9937
vn 0.3464 0.2984 -0.8893
vn 0.2559 0.3319 -0.908
vn 0.0503 0.0995 -0.9938
vn 0.2042 0.4099 -0.8889
vn 0.0769 -0.0871 -0.9932
vn 0 -0.001 -1
vn 0.1157 -0.0076 -0.9933
vn 0.087 0.0757 -0.9933
vn 0.3178 -0.947 0.0461
vn 0.1252 -0.991 0.0478
vn 0.3165 -0.9484 -0.0201
vn 0.1255 -0.9917 -0.0291
vn 0.4948 -0.8686 -0.0272
vn 0.2945 -0.8758 -0.3825
vn 0.4973 -0.8661 0.0497
vn 0.3092 -0.9262 0.2156
vn 0.6065 -0.6971 -0.3823
vn 0.2796 -0.8342 0.4753
vn 0.6541 -0.7561 -0.0196
vn 0.6415 -0.7364 0.2149
vn 0.3166 -0.9486 0
vn 0.6554 -0.7537 0.0484
vn 0.6565 -0.7544 0
vn 0.7912 -0.6109 -0.028
vn 0.7905 -0.6106 0.0482
vn 0.8754 -0.4332 0.2144
vn 0.8944 -0.4472 0
vn 0.5773 -0.6629 0.4766
vn 0.8272 -0.4136 -0.3803
vn 0.8948 -0.446 -0.0213
vn 0.894 -0.4457 0.0461
vn 0.9743 -0.0701 0.2141
vn 0.9976 -0.0699 0
vn 0.9637 -0.2627 0.0473
vn 0.9642 -0.2637 -0.027
vn 0.9273 0.3072 0.2138
vn 0.9489 0.3155 -0.0012
vn 0.9963 -0.0709 0.048
vn 0.9974 -0.0691 -0.0213
vn 0.922 -0.0628 -0.3821
vn 0.9916 0.1266 -0.028
vn 0.9911 0.124 0.0489
vn 0.7867 -0.3933 0.4759
vn 0.8774 0.2925 -0.3804
vn 0.9487 0.3154 -0.0214
vn 0.9474 0.3166 0.0474
vn 0.8673 0.497 -0.0286
vn 0.8675 0.4951 0.0483
vn 0.7379 0.6415 0.2097
vn 0.7551 0.6557 -0.0014
vn 0.8772 -0.0623 0.476
vn 0.6969 0.6079 -0.3806
vn 0.7542 0.6563 -0.021
vn 0.7531 0.6563 0.047
vn 0.6115 0.7907 -0.0294
vn 0.6112 0.7899 0.0496
vn 0.8339 0.278 0.4768
vn 0.4139 0.8262 -0.3822
vn 0.4455 0.895 -0.0199
vn 0.4472 0.893 0.0503
vn 0.2641 0.9641 -0.0282
vn 0.263 0.9636 0.0486
vn 0.439 0.8736 0.2098
vn 0.2516 0.9447 0.2104
vn 0.4477 0.8942 -0.0013
vn 0.2631 0.9648 -0.0012
vn 0.663 0.5758 0.4784
vn 0.3935 0.7854 0.4777
vn 0.2307 0.898 -0.3748
vn 0.2257 0.8527 0.4711
vn 0.6962 0.3986 0.597
vn 0.6601 0.5761 0.4821
vn 0.4899 0.6347 0.5976
vn 0.6137 0.7895 -0.0014
vn 0.8688 0.4951 0.0013
vn 0.3902 0.7852 0.4808
vn 0.212 0.7722 0.5989
vn 0.9489 0.3155 0.0012
vn 0.8312 0.275 0.4832
vn 0.7958 0.1007 0.5972
vn 0.9921 0.1258 -0.0011
vn 0.8736 -0.0624 0.4826
vn 0.7736 -0.212 0.5972
vn 0.9648 -0.2628 0
vn 0.784 -0.3904 0.4827
vn 0.6333 -0.4935 0.5962
vn 0.79 -0.6131 0
vn 0.5745 -0.6602 0.4838
vn 0.3968 -0.696 0.5985
vn 0.4961 -0.8682 0
vn 0.2766 -0.8315 0.4818
vn 0.1023 -0.7963 0.5962
vn 0.1269 -0.9919 0
vn -0.1065 -0.0344 -0.9937
vn -0.1121 0.0076 -0.9937
vn -0.0995 0.0503 -0.9938
vn -0.415 -0.0552 -0.9081
vn -0.4561 0.0309 -0.8894
vn -0.4333 -0.1449 -0.8895
vn -0.4046 0.1098 -0.9079
vn -0.4099 0.2042 -0.8889
vn -0.3644 -0.2068 -0.908
vn -0.3319 0.2559 -0.908
vn -0.0856 -0.0732 -0.9936
vn -0.3453 -0.3017 -0.8887
vn -0.2576 -0.3322 -0.9074
vn -0.0732 0.0844 -0.9937
vn -0.0492 -0.1018 -0.9936
vn -0.3015 0.3435 -0.8895
vn -0.2069 0.3661 -0.9073
vn -0.2056 -0.4068 -0.8901
vn -0.1113 -0.405 -0.9075
vn -0.0366 0.1055 -0.9937
vn -0.145 0.435 -0.8887
vn -0.0525 0.4157 -0.908
vn -0.0087 -0.1122 -0.9936
vn -0.0323 -0.4567 -0.8891
vn 0.0539 -0.4161 -0.9077
vn 0.0076 0.1121 -0.9937
vn 0.0309 0.4561 -0.8894
vn 0.1098 0.4046 -0.9079
vn -0.0111 -0.1319 -0.9912
vn -0.0618 -0.1179 -0.9911
vn -0.003 0.0129 -0.9999
vn 0.003 0.0129 -0.9999
vn -0.1014 -0.0864 -0.9911
vn 0.007 0.0109 -0.9999
vn -0.1267 -0.0396 -0.9911
vn 0.0109 0.007 -0.9999
vn -0.1321 0.0122 -0.9912
vn 0.0129 0.003 -0.9999
vn -0.1178 0.0606 -0.9912
vn 0.0139 -0.001 -0.9999
vn -0.0863 0.1002 -0.9912
vn 0.012 -0.007 -0.9999
vn -0.0419 0.1257 -0.9912
vn 0.008 -0.011 -0.9999
vn 0.01 0.1343 -0.9909
vn 0.004 -0.0129 -0.9999
vn 0.1464 -0.432 -0.8899
vn 0.1511 -0.4606 -0.8747
vn -0.0382 -0.4847 -0.8738
vn -0.2209 -0.4314 -0.8747
vn 0.0076 0.1169 -0.9931
vn -0.3687 -0.3153 -0.8744
vn -0.4618 -0.1496 -0.8743
vn 0.3526 -0.9358 0
vn 0.5497 -0.8354 0
vn 0.691 -0.7228 0
vn 0.6939 -0.7201 0
vn 0.8281 -0.5606 0
vn 0.8323 -0.5544 0
vn 0.9255 -0.3786 0
vn 0.928 -0.3725 0
vn 0.9794 -0.2021 0
vn 0.981 -0.1941 0
vn 1 -0.0089 0
vn 1 -0.0049 0
vn 0.9825 0.1864 0.0011
vn 0.9266 0.376 0.0013
vn 0.838 0.5456 0.0014
vn 0.7154 0.6988 0.0014
vn 0.7126 0.7015 0.0014
vn 0.5706 0.8212 0.0014
vn 0.5644 0.8255 -0.0014
vn 0.3976 0.9175 -0.0013
vn 0.3914 0.9202 0.0013
vn 0.2131 0.977 -0.0012
vn 0.205 0.9788 0.0012
vn 0.3504 -0.9366 0.0025
vn 0.3565 -0.9343 0.0025
vn 0.556 -0.8312 0
vn 0.6967 -0.7174 0
vn 0.7023 -0.7119 0
vn 0.9204 -0.391 0
vn 0.923 -0.3848 0
vn 0.9825 0.1864 -0.0011
vn 0.9279 0.3729 -0.0013
vn 0.838 0.5456 -0.0014
vn 0.7181 0.696 -0.0014
vn 0.5706 0.8212 -0.0014
vn 0.5644 0.8255 0.0014
vn 0.407 0.9134 -0.0013
vn 0.4039 0.9148 0.0013
vn 0.2158 0.9764 0.0012
vn -0.0181 -0.0131 0.9997
vn -0.0181 -0.009 0.9998
vn -0.0252 -0.0515 0.9984
vn -0.0318 -0.054 0.998
vn -0.0151 -0.0893 0.9959
vn -0.0107 -0.0889 0.996
vn -0.0202 -0.1356 0.9906
vn -0.0225 -0.1409 0.9898
vn -0.0022 -0.1406 0.9901
vn 0 -0.1403 0.9901
vn 0.0132 -0.1224 0.9924
vn 0.0155 -0.1251 0.992
vn 0.0149 -0.0755 0.997
vn 0.006 -0.019 0.9998
vn 0.004 -0.019 0.9998
vn -0.0111 0.0171 0.9998
vn -0.042 0.0636 0.9971
vn -0.0763 0.0968 0.9924
vn -0.0742 0.1016 0.9921
vn -0.0989 0.1012 0.9899
vn -0.0987 0.0987 0.9902
vn -0.11 0.0846 0.9903
vn -0.1128 0.0872 0.9898
vn -0.0878 0.0545 0.9946
vn -0.0832 0.0566 0.9949
vn -0.0557 0.0221 0.9982
vn -0.0624 0.0222 0.9978
vn -0.0089 0.003 1
vn -0.0059 -0.001 1
vn 0.3169 -0.3672 -0.8745
vn 0.4327 -0.2194 -0.8744
vn 0.4836 -0.0396 -0.8744
vn 0.4601 0.1495 -0.8752
vn 0.3669 0.3151 -0.8753
vn 0.2192 0.431 -0.8753
vn 0.0368 0.4842 -0.8742
vn 0.4972 -0.8615 0.1029
vn 0.2944 -0.9537 0.0614
vn 0.6932 -0.7177 0.0664
vn 0.9609 -0.257 0.1033
vn 0.8821 -0.4672 0.0606
vn 0.9976 -0.0159 0.0676
vn 0.9497 -0.2731 0.1533
vn 0.4806 -0.8631 0.1553
vn 0.861 0.4983 0.1014
vn 0.954 0.2932 0.0627
vn 0.7184 0.6923 0.0679
vn 0.5948 0.7983 0.0945
vn 0.4677 0.8817 0.0621
vn 0.2616 0.965 0.0183
vn 0.606 0.7826 0.1422
vn 0.8646 0.4784 0.1536
vn 0.5933 0.7686 0.2395
vn 0.8524 0.4545 0.2586
vn 0.5313 0.6855 0.4978
vn 0.748 0.3879 0.5385
vn 0.9242 -0.2819 0.2575
vn 0.4531 -0.8526 0.2602
vn 0.803 -0.2578 0.5374
vn 0.3859 -0.7506 0.5364
vn -0.9976 0.018 0.0666
vn -0.9542 -0.2929 0.0614
vn -0.8625 -0.4955 0.1028
vn -0.7163 -0.6946 0.0664
vn -0.9603 0.2598 0.1021
vn -0.8817 0.4677 0.0621
vn -0.2585 -0.9605 0.1034
vn -0.4656 -0.8829 0.0606
vn -0.6953 0.7155 0.0679
vn -0.0169 -0.9976 0.0677
vn -0.495 0.863 0.1013
vn -0.2932 0.954 0.0627
vn -0.1263 0.9876 0.0932
vn -0.1265 0.9873 0.0958
vn -0.2715 -0.9502 0.1532
vn -0.4784 0.8646 0.1536
vn -0.1259 0.9817 0.143
vn -0.9494 0.2734 0.1549
vn -0.864 -0.4789 0.1552
vn -0.4545 0.8524 0.2586
vn -0.1231 0.963 0.2398
vn -0.9237 0.2821 0.2592
vn -0.8516 -0.4549 0.2604
vn -0.2802 -0.9248 0.2573
vn -0.256 -0.8038 0.5369
vn -0.7494 -0.3878 0.5367
vn -0.8035 0.2543 0.5383
vn -0.3879 0.748 0.5385
vn -0.1082 0.8468 0.5208
vn -0.4842 0.0368 -0.8742
vn -0.431 0.2192 -0.8753
vn -0.3151 0.3669 -0.8753
vn -0.1495 0.4601 -0.8752
vn -0.0087 -0.1146 -0.9934
vn -0.0882 -0.0758 -0.9932
vn -0.1147 0.0098 -0.9933
vn -0.0757 0.087 -0.9933
vn -0.0088 -0.1194 0.9928
vn 0.1108 -0.2435 0.9636
vn 0.0661 -0.2119 0.975
vn 0.1152 -0.3635 0.9245
vn -0.0333 -0.11 0.9934
vn 0.1313 -0.3843 0.9138
vn -0.0407 -0.1231 0.9916
vn 0.0827 -0.4257 0.9011
vn -0.0524 -0.1219 0.9912
vn 0.08 -0.4347 0.897
vn 0.0602 -0.4475 0.8923
vn 0.0632 -0.4518 0.8899
vn -0.0066 -0.1363 0.9906
vn 0 -0.1354 0.9908
vn 0.004 -0.021 0.9998
vn -0.0765 0.0993 0.9921
vn -0.1098 0.0821 0.9906
vn -0.0856 0.0567 0.9947
vn -0.0536 0.0242 0.9983
vn -0.0642 -0.9217 -0.3826
vn -0.0608 -0.8776 0.4754
vn -0.0609 -0.874 0.482
vn -0.0688 -0.9976 0
vn -0.2102 -0.7745 0.5967
vn -0.2642 -0.9645 0
vn -0.4456 -0.8952 0
vn -0.3915 -0.7878 0.4756
vn -0.3922 -0.7829 0.483
vn -0.4917 -0.6348 0.5961
vn -0.6116 -0.7912 0
vn -0.7556 -0.655 0
vn -0.6618 -0.5728 0.4837
vn -0.6645 -0.5756 0.4766
vn -0.6973 -0.3949 0.5982
vn -0.8673 -0.4977 0
vn -0.9481 -0.3181 0
vn -0.8306 -0.2784 0.4822
vn -0.4118 -0.8283 -0.3801
vn -0.8333 -0.2814 0.4758
vn -0.7957 -0.1038 0.5968
vn -0.9921 -0.1256 0
vn -0.9977 0.0678 0.001
vn -0.8735 0.0595 0.4831
vn -0.6987 -0.6047 -0.3823
vn -0.8763 0.0623 0.4776
vn -0.774 0.2086 0.5979
vn -0.9648 0.2631 0.0012
vn -0.8957 0.4446 0.0013
vn -0.783 0.3939 0.4815
vn -0.8765 -0.2927 -0.3822
vn -0.7877 0.3898 0.4771
vn -0.6347 0.4899 0.5976
vn -0.7919 0.6107 0.0014
vn -0.6557 0.7551 -0.0014
vn -0.5761 0.6601 0.4821
vn -0.9221 0.0656 -0.3814
vn -0.5758 0.663 0.4784
vn -0.3986 0.6962 0.597
vn -0.4983 0.867 -0.0013
vn -0.3185 0.9479 -0.0012
vn -0.2786 0.8295 0.484
vn -0.8283 0.4102 -0.3817
vn -0.278 0.8339 0.4768
vn -0.1007 0.7958 0.5972
vn -0.1258 0.9921 -0.0011
vn -0.0292 0.9996 -0.001
vn -0.0257 0.877 0.4797
vn -0.1034 0.8771 0.469
vn -0.2925 0.8774 -0.3804
vn -0.6079 0.6969 -0.3806
vn -0.1056 0.9201 -0.3771
vn -0.1266 0.9916 -0.028
vn -0.0277 0.9994 -0.0215
vn -0.0283 0.9985 0.0472
vn -0.1266 0.9907 0.049
vn -0.118 0.9707 0.2094
vn -0.3184 0.9477 -0.0214
vn -0.497 0.8673 -0.0286
vn -0.3166 0.9474 0.0474
vn -0.3127 0.9268 0.208
vn -0.4951 0.8675 0.0483
vn -0.6563 0.7542 -0.021
vn -0.6545 0.7544 0.0499
vn -0.6382 0.7407 0.2096
vn -0.7907 0.6115 -0.0294
vn -0.8742 0.4364 0.213
vn -0.7899 0.6112 0.0496
vn -0.8957 0.4446 -0.0013
vn -0.895 0.4455 -0.0199
vn -0.9641 0.2641 -0.0282
vn -0.8937 0.4462 0.0475
vn -0.9636 0.263 0.0486
vn -0.9743 0.0676 0.215
vn -0.9972 0.0713 -0.0202
vn -0.9918 -0.1243 -0.0291
vn -0.9964 0.0708 0.0468
vn -0.9268 -0.3075 0.2154
vn -0.9908 -0.1264 0.0478
vn -0.9479 -0.318 -0.0201
vn -0.8677 -0.4964 -0.0272
vn -0.9475 -0.3163 0.0461
vn -0.7379 -0.6398 0.2148
vn -0.8671 -0.4957 0.0497
vn -0.7549 -0.6556 -0.0196
vn -0.6124 -0.79 -0.028
vn -0.755 -0.6539 0.0484
vn -0.6121 -0.7893 0.0482
vn -0.435 -0.8745 0.2145
vn -0.4476 -0.894 -0.0213
vn -0.2623 -0.9646 -0.027
vn -0.444 -0.8948 0.046
vn -0.2612 -0.9641 0.0473
vn -0.0688 -0.9744 0.2138
vn -0.0702 -0.9973 -0.0213
vn -0.0697 -0.9964 0.0479
vn 0.1473 0.8649 0.4798
vn 0.1682 0.9857 -0.0011
vn 0.166 0.9859 -0.0195
vn 0.1675 0.9848 0.0457
vn 0.001 1 0.001
vn -0.0029 1 0.001
vn -0.1838 0.983 0.0011
vn -0.1864 0.9825 0.0011
vn -0.3883 0.9215 0.0013
vn -0.3883 0.9215 -0.0013
vn -0.5487 0.836 -0.0014
vn -0.5487 0.836 0.0014
vn -0.9106 0.4132 0.0013
vn -0.8364 -0.5481 0
vn 0.0129 0.9999 0.001
vn 0.0089 1 0.001
vn -0.1864 0.9825 -0.0011
vn -0.3914 0.9202 -0.0013
vn -0.9106 0.4132 -0.0013
o bullet01__p1_c0
f 1/1/1 2/2/2 3/3/3
f 1/1/1 3/3/3 4/4/4
f 2/2/2 1/1/1 5/5/5
f 2/2/2 5/5/5 6/6/5
f 7/7/6 8/8/7 9/9/8
f 7/7/6 9/9/8 10/10/6
f 9/9/8 8/8/7 11/11/5
f 9/9/8 11/11/5 12/12/9
f 13/13/10 14/14/10 15/15/10
f 15/15/10 14/14/10 16/16/10
f 13/13/10 15/15/10 17/17/10
f 16/16/10 14/14/10 18/18/10
f 13/13/10 17/17/10 19/19/10
f 16/16/10 18/18/10 20/20/10
f 19/19/10 17/17/10 21/21/10
f 20/20/10 18/18/10 22/22/10
f 19/19/10 21/21/10 23/23/10
f 20/20/10 22/22/10 24/24/10
f 23/23/10 21/21/10 25/25/10
f 24/24/10 22/22/10 26/26/10
f 23/23/10 25/25/10 27/27/10
f 24/24/10 26/26/10 28/28/10
f 27/27/10 25/25/10 29/29/10
f 27/27/10 29/29/10 30/30/10
f 30/30/10 29/29/10 31/31/10
f 28/28/10 26/26/10 32/32/10
f 28/28/10 32/32/10 33/33/10
f 33/33/10 32/32/10 34/34/10
f 33/33/10 34/34/10 35/35/10
f 35/35/10 34/34/10 36/36/10
f 35/35/10 36/36/10 37/37/10
f 37/37/10 36/36/10 38/38/10
f 37/37/10 38/38/10 39/39/10
f 39/39/10 38/38/10 40/40/10
f 39/39/10 40/40/10 41/41/10
f 41/41/10 40/40/10 42/42/10
f 41/41/10 42/42/10 43/43/10
f 43/43/10 42/42/10 44/44/10
f 43/43/10 44/44/10 31/45/10
f 31/45/10 44/44/10 30/46/10
f 45/47/11 46/48/12 47/49/13
f 47/49/13 46/48/12 48/50/14
f 45/47/11 47/49/13 49/51/15
f 45/47/11 49/51/15 50/52/16
f 50/52/16 49/51/15 51/53/17
f 50/52/16 51/53/17 52/54/18
f 52/54/18 51/53/17 53/55/19
f 52/54/18 53/55/19 54/56/20
f 54/56/20 53/55/19 55/57/21
f 54/56/20 55/57/21 56/58/22
f 56/58/22 55/57/21 57/59/23
f 56/58/22 57/59/23 58/60/24
f 59/61/25 60/62/26 61/63/27
f 59/61/25 61/63/27 62/64/28
f 62/64/28 61/63/27 63/65/29
f 63/65/29 61/63/27 64/66/30
f 63/65/29 64/66/30 65/67/31
f 65/67/31 64/66/30 66/68/32
f 66/68/32 64/66/30 67/69/33
f 66/68/32 67/69/33 68/70/34
f 68/70/34 67/69/33 69/71/35
f 69/71/35 67/69/33 70/72/36
f 69/71/35 70/72/36 71/73/37
f 71/73/37 70/72/36 72/74/38
f 72/74/38 70/72/36 73/75/39
f 72/74/38 73/75/39 74/76/40
f 74/76/40 73/75/39 75/77/41
f 75/77/41 73/75/39 76/78/42
f 75/77/41 76/78/42 77/79/43
f 78/80/44 79/81/45 80/82/46
f 80/82/46 79/81/45 81/83/47
f 82/84/48 83/85/49 84/86/50
f 84/86/50 83/85/49 85/87/51
f 82/84/48 84/86/50 86/88/52
f 86/88/52 84/86/50 87/89/53
f 82/84/48 86/88/52 88/90/54
f 82/84/48 88/90/54 89/91/55
f 86/88/52 87/89/53 90/92/56
f 90/92/56 87/89/53 91/93/57
f 88/90/54 86/88/52 92/94/58
f 92/94/58 86/88/52 90/92/56
f 89/91/55 88/90/54 93/95/59
f 89/91/55 93/95/59 20/96/60
f 88/90/54 92/94/58 94/97/61
f 88/90/54 94/97/61 93/95/59
f 20/96/60 93/95/59 16/98/62
f 94/97/61 92/94/58 95/99/63
f 95/99/63 92/94/58 90/92/56
f 93/95/59 94/97/61 96/100/64
f 96/100/64 94/97/61 95/99/63
f 16/98/62 93/95/59 97/101/65
f 97/101/65 93/95/59 96/100/64
f 16/98/62 97/101/65 15/102/66
f 98/103/67 90/92/56 91/93/57
f 95/99/63 90/92/56 99/104/68
f 99/104/68 90/92/56 98/103/67
f 96/100/64 95/99/63 100/105/69
f 100/105/69 95/99/63 99/104/68
f 97/101/65 96/100/64 101/106/70
f 101/106/70 96/100/64 100/105/69
f 102/107/71 15/102/66 97/101/65
f 15/102/66 102/107/71 17/108/72
f 97/101/65 101/106/70 103/109/73
f 97/101/65 103/109/73 102/107/71
f 101/106/70 100/105/69 104/110/74
f 101/106/70 104/110/74 103/109/73
f 104/110/74 100/105/69 99/104/68
f 17/108/72 102/107/71 105/111/75
f 17/108/72 105/111/75 21/112/76
f 102/107/71 103/109/73 106/113/77
f 103/109/73 104/110/74 107/114/78
f 103/109/73 107/114/78 106/113/77
f 104/110/74 99/104/68 108/115/79
f 104/110/74 108/115/79 107/114/78
f 106/113/77 107/114/78 109/116/80
f 109/116/80 107/114/78 108/115/79
f 102/107/71 106/113/77 110/117/81
f 110/117/81 106/113/77 109/116/80
f 102/107/71 110/117/81 105/111/75
f 108/115/79 99/104/68 111/118/82
f 111/118/82 99/104/68 98/103/67
f 109/116/80 108/115/79 112/119/83
f 110/117/81 109/116/80 113/120/84
f 113/120/84 109/116/80 112/119/83
f 110/117/81 113/120/84 114/121/85
f 110/117/81 114/121/85 105/111/75
f 114/121/85 113/120/84 115/122/86
f 115/122/86 113/120/84 112/119/83
f 105/111/75 114/121/85 116/123/87
f 116/123/87 114/121/85 115/122/86
f 105/111/75 116/123/87 117/124/88
f 105/111/75 117/124/88 21/112/76
f 21/112/76 117/124/88 25/125/89
f 118/126/90 112/119/83 108/115/79
f 118/126/90 108/115/79 111/118/82
f 119/127/91 115/122/86 112/119/83
f 116/123/87 115/122/86 120/128/92
f 120/128/92 115/122/86 119/127/91
f 116/123/87 120/128/92 121/129/93
f 116/123/87 121/129/93 117/124/88
f 121/129/93 120/128/92 122/130/94
f 122/130/94 120/128/92 119/127/91
f 117/124/88 121/129/93 123/131/95
f 123/131/95 121/129/93 122/130/94
f 124/132/96 119/127/91 112/119/83
f 124/132/96 112/119/83 118/126/90
f 122/130/94 119/127/91 125/133/97
f 123/131/95 122/130/94 126/134/98
f 126/134/98 122/130/94 125/133/97
f 117/124/88 123/131/95 127/135/99
f 127/135/99 123/131/95 126/134/98
f 126/134/98 125/133/97 128/136/100
f 126/134/98 128/136/100 127/135/99
f 127/135/99 128/136/100 129/137/101
f 117/124/88 127/135/99 130/138/102
f 130/138/102 127/135/99 129/137/101
f 117/124/88 130/138/102 25/125/89
f 130/138/102 129/137/101 131/139/103
f 25/125/89 130/138/102 29/140/104
f 29/140/104 130/138/102 131/139/103
f 29/140/104 131/139/103 31/141/105
f 132/142/106 125/133/97 119/127/91
f 132/142/106 119/127/91 124/132/96
f 125/133/97 132/142/106 133/143/107
f 125/133/97 133/143/107 134/144/108
f 134/144/108 133/143/107 135/145/109
f 132/142/106 124/132/96 136/146/110
f 132/142/106 136/146/110 137/147/111
f 132/142/106 137/147/111 138/148/112
f 138/148/112 137/147/111 74/149/89
f 74/149/89 137/147/111 136/146/110
f 138/148/112 74/149/89 75/150/113
f 74/149/89 136/146/110 72/151/114
f 138/148/112 75/150/113 77/152/104
f 138/148/112 77/152/104 139/153/115
f 139/153/115 77/152/104 140/154/116
f 140/154/116 77/152/104 141/155/105
f 72/151/114 136/146/110 71/156/117
f 71/156/117 136/146/110 142/157/118
f 142/157/118 136/146/110 124/132/96
f 71/156/117 142/157/118 143/158/119
f 143/158/119 142/157/118 124/132/96
f 71/156/117 143/158/119 69/159/120
f 143/158/119 124/132/96 118/126/90
f 69/159/120 143/158/119 68/160/72
f 143/158/119 118/126/90 144/161/121
f 143/158/119 144/161/121 68/160/72
f 144/161/121 118/126/90 145/162/122
f 144/161/121 145/162/122 68/160/72
f 68/160/72 145/162/122 66/163/123
f 145/162/122 118/126/90 111/118/82
f 66/163/123 145/162/122 65/164/66
f 145/162/122 111/118/82 146/165/124
f 145/162/122 146/165/124 65/164/66
f 146/165/124 111/118/82 147/166/125
f 146/165/124 147/166/125 65/164/66
f 65/164/66 147/166/125 63/167/126
f 147/166/125 111/118/82 98/103/67
f 63/167/126 147/166/125 62/168/62
f 147/166/125 98/103/67 148/169/127
f 147/166/125 148/169/127 62/168/62
f 148/169/127 98/103/67 149/170/128
f 148/169/127 149/170/128 62/168/62
f 62/168/62 149/170/128 59/171/129
f 59/171/129 149/170/128 150/172/60
f 150/172/60 149/170/128 151/173/130
f 150/172/60 151/173/130 152/174/131
f 150/172/60 152/174/131 153/175/132
f 154/176/133 155/177/134 52/54/18
f 52/54/18 155/177/134 50/52/16
f 154/176/133 52/54/18 54/56/20
f 50/52/16 155/177/134 156/178/135
f 50/52/16 156/178/135 45/47/11
f 155/177/134 154/176/133 157/179/136
f 155/177/134 157/179/136 158/180/137
f 157/179/136 154/176/133 159/181/138
f 155/177/134 158/180/137 160/182/139
f 155/177/134 160/182/139 156/178/135
f 156/178/135 160/182/139 161/183/140
f 159/181/138 154/176/133 162/184/141
f 156/178/135 161/183/140 163/185/142
f 162/184/141 154/176/133 164/186/143
f 164/186/143 154/176/133 54/56/20
f 162/184/141 164/186/143 165/187/144
f 164/186/143 54/56/20 56/58/22
f 165/187/144 164/186/143 166/188/145
f 156/178/135 163/185/142 167/189/146
f 164/186/143 56/58/22 168/190/147
f 164/186/143 168/190/147 166/188/145
f 167/189/146 163/185/142 169/191/148
f 156/178/135 167/189/146 45/47/11
f 167/189/146 169/191/148 170/192/149
f 166/188/145 168/190/147 171/193/150
f 45/47/11 167/189/146 46/48/12
f 171/193/150 168/190/147 172/194/151
f 167/189/146 170/192/149 173/195/152
f 167/189/146 173/195/152 46/48/12
f 173/195/152 170/192/149 174/196/153
f 173/195/152 174/196/153 175/197/154
f 172/194/151 168/190/147 176/198/155
f 172/194/151 176/198/155 177/199/156
f 177/199/156 176/198/155 153/200/157
f 176/198/155 168/190/147 58/60/24
f 58/60/24 168/190/147 56/58/22
f 173/195/152 175/197/154 178/201/158
f 178/201/158 175/197/154 179/202/159
f 178/201/158 179/202/159 141/203/160
f 173/195/152 178/201/158 180/204/161
f 173/195/152 180/204/161 46/48/12
f 178/201/158 141/203/160 76/78/42
f 76/78/42 141/203/160 77/79/43
f 46/48/12 180/204/161 48/50/14
f 178/201/158 76/78/42 181/205/162
f 178/201/158 181/205/162 180/204/161
f 48/50/14 180/204/161 182/206/163
f 182/206/163 180/204/161 181/205/162
f 182/206/163 181/205/162 183/207/164
f 181/205/162 76/78/42 184/208/165
f 181/205/162 184/208/165 183/207/164
f 184/208/165 76/78/42 73/75/39
f 183/207/164 184/208/165 185/209/166
f 184/208/165 73/75/39 186/210/167
f 184/208/165 186/210/167 185/209/166
f 186/210/167 73/75/39 70/72/36
f 185/209/166 186/210/167 187/211/168
f 186/210/167 70/72/36 188/212/169
f 186/210/167 188/212/169 187/211/168
f 188/212/169 70/72/36 67/69/33
f 187/211/168 188/212/169 189/213/170
f 188/212/169 67/69/33 190/214/171
f 188/212/169 190/214/171 189/213/170
f 190/214/171 67/69/33 64/66/30
f 189/213/170 190/214/171 191/215/172
f 190/214/171 64/66/30 192/216/173
f 190/214/171 192/216/173 191/215/172
f 192/216/173 64/66/30 61/63/27
f 191/215/172 192/216/173 193/217/174
f 192/216/173 61/63/27 194/218/175
f 192/216/173 194/218/175 193/217/174
f 193/217/174 194/218/175 195/219/176
f 194/218/175 61/63/27 60/62/26
f 195/219/176 194/218/175 196/220/177
f 196/220/177 194/218/175 60/62/26
f 195/219/176 196/220/177 197/221/178
f 150/222/179 60/62/26 59/61/25
f 60/62/26 150/222/179 153/200/157
f 60/62/26 153/200/157 176/198/155
f 60/62/26 176/198/155 196/220/177
f 196/220/177 176/198/155 58/60/24
f 196/220/177 58/60/24 197/221/178
f 197/221/178 58/60/24 57/59/23
f 198/223/180 195/219/176 197/221/178
f 197/221/178 57/59/23 199/224/181
f 197/221/178 199/224/181 198/223/180
f 199/224/181 57/59/23 200/225/182
f 200/225/182 57/59/23 55/57/21
f 198/223/180 199/224/181 201/226/183
f 201/226/183 199/224/181 200/225/182
f 200/225/182 55/57/21 202/227/184
f 202/227/184 55/57/21 53/55/19
f 201/226/183 200/225/182 81/83/47
f 81/83/47 200/225/182 202/227/184
f 202/227/184 53/55/19 203/228/185
f 202/227/184 203/228/185 81/83/47
f 6/6/5 5/5/5 204/229/186
f 6/6/5 204/229/186 205/230/186
f 205/230/186 204/229/186 206/231/187
f 205/230/186 206/231/187 207/232/187
f 207/232/187 206/231/187 208/233/188
f 207/232/187 208/233/188 209/234/189
f 209/234/189 208/233/188 210/235/190
f 209/234/189 210/235/190 211/236/191
f 211/236/191 210/235/190 212/237/192
f 211/236/191 212/237/192 213/238/193
f 213/238/193 212/237/192 214/239/194
f 213/238/193 214/239/194 215/240/195
f 215/240/195 214/239/194 216/241/196
f 215/240/195 216/241/196 217/242/197
f 217/242/197 216/241/196 218/243/198
f 217/242/197 218/243/198 219/244/198
f 219/244/198 218/243/198 220/245/199
f 219/244/198 220/245/199 221/246/199
f 221/246/199 220/245/199 222/247/200
f 221/246/199 222/247/200 223/248/200
f 223/248/200 222/247/200 224/249/201
f 224/249/201 222/247/200 225/250/202
f 224/249/201 225/250/202 226/251/203
f 226/251/203 225/250/202 227/252/204
f 226/251/203 227/252/204 228/253/205
f 228/253/205 227/252/204 229/254/206
f 228/253/205 229/254/206 230/255/207
f 230/255/207 229/254/206 231/256/208
f 12/12/9 11/11/5 232/257/209
f 12/12/9 232/257/209 233/258/210
f 233/258/210 232/257/209 234/259/187
f 233/258/210 234/259/187 235/260/211
f 235/260/211 234/259/187 236/261/212
f 235/260/211 236/261/212 237/262/213
f 237/262/213 236/261/212 238/263/190
f 237/262/213 238/263/190 239/264/191
f 239/264/191 238/263/190 240/265/214
f 239/264/191 240/265/214 241/266/215
f 241/266/215 240/265/214 242/267/194
f 241/266/215 242/267/194 243/268/195
f 243/268/195 242/267/194 244/269/196
f 243/268/195 244/269/196 245/270/197
f 245/270/197 244/269/196 246/271/216
f 245/270/197 246/271/216 247/272/216
f 247/272/216 246/271/216 248/273/217
f 247/272/216 248/273/217 249/274/217
f 249/274/217 248/273/217 250/275/200
f 249/274/217 250/275/200 251/276/218
f 251/276/218 250/275/200 252/277/219
f 252/277/219 250/275/200 253/278/201
f 252/277/219 253/278/201 254/279/220
f 254/279/220 253/278/201 255/280/221
f 254/279/220 255/280/221 256/281/222
f 256/281/222 255/280/221 257/282/223
f 256/281/222 257/282/223 258/283/224
f 258/283/224 257/282/223 259/284/208
f 260/285/225 261/286/10 6/287/10
f 6/287/10 261/286/10 2/288/10
f 2/288/10 261/286/10 3/289/10
f 260/285/225 6/287/10 205/290/226
f 260/285/225 205/290/226 207/291/227
f 260/285/225 207/291/227 262/292/228
f 262/292/228 207/291/227 263/293/229
f 263/293/229 207/291/227 209/294/230
f 263/293/229 209/294/230 211/295/231
f 263/293/229 211/295/231 264/296/232
f 264/296/232 211/295/231 265/297/233
f 265/297/233 211/295/231 213/298/234
f 265/297/233 213/298/234 215/299/235
f 265/297/233 215/299/235 266/300/236
f 266/300/236 215/299/235 267/301/237
f 267/301/237 215/299/235 217/302/237
f 267/301/237 217/302/237 219/303/238
f 267/301/237 219/303/238 268/304/239
f 268/304/239 219/303/238 221/305/10
f 268/304/239 221/305/10 269/306/10
f 269/306/10 221/305/10 270/307/240
f 270/307/240 221/305/10 223/308/240
f 270/307/240 223/308/240 271/309/241
f 271/309/241 223/308/240 224/310/241
f 271/309/241 224/310/241 226/311/242
f 271/309/241 226/311/242 272/312/243
f 272/312/243 226/311/242 273/313/244
f 273/313/244 226/311/242 228/314/245
f 273/313/244 228/314/245 230/315/246
f 273/313/244 230/315/246 274/316/247
f 274/316/247 230/315/246 275/317/248
f 275/317/248 230/315/246 276/318/249
f 275/317/248 276/318/249 277/319/250
f 275/317/248 277/319/250 278/320/251
f 278/320/251 277/319/250 279/321/252
f 279/321/252 277/319/250 280/322/253
f 279/321/252 280/322/253 281/323/10
f 279/321/252 281/323/10 282/324/10
f 282/324/10 281/323/10 283/325/10
f 282/324/10 283/325/10 284/326/10
f 193/217/174 195/219/176 285/327/254
f 285/327/254 195/219/176 198/223/180
f 193/217/174 285/327/254 286/328/255
f 193/217/174 286/328/255 191/215/172
f 191/215/172 286/328/255 287/329/256
f 191/215/172 287/329/256 189/213/170
f 189/213/170 287/329/256 288/330/257
f 189/213/170 288/330/257 187/211/168
f 187/211/168 288/330/257 289/331/258
f 187/211/168 289/331/258 185/209/166
f 185/209/166 289/331/258 290/332/259
f 185/209/166 290/332/259 183/207/164
f 183/207/164 290/332/259 291/333/260
f 183/207/164 291/333/260 182/206/163
f 292/334/45 11/335/45 8/336/45
f 292/334/45 8/336/45 7/337/45
f 11/335/45 292/334/45 293/338/45
f 11/335/45 293/338/45 232/339/45
f 232/339/45 293/338/45 234/340/45
f 234/340/45 293/338/45 294/341/45
f 234/340/45 294/341/45 295/342/45
f 234/340/45 295/342/45 236/343/45
f 236/343/45 295/342/45 296/344/45
f 236/343/45 296/344/45 238/345/45
f 238/345/45 296/344/45 240/346/45
f 240/346/45 296/344/45 297/347/45
f 240/346/45 297/347/45 298/348/45
f 240/346/45 298/348/45 242/349/45
f 242/349/45 298/348/45 244/350/45
f 244/350/45 298/348/45 299/351/45
f 244/350/45 299/351/45 300/352/45
f 244/350/45 300/352/45 246/353/45
f 246/353/45 300/352/45 248/354/45
f 248/354/45 300/352/45 301/355/45
f 248/354/45 301/355/45 302/356/45
f 248/354/45 302/356/45 250/357/45
f 250/357/45 302/356/45 253/358/45
f 253/358/45 302/356/45 303/359/45
f 253/358/45 303/359/45 304/360/45
f 253/358/45 304/360/45 255/361/45
f 255/361/45 304/360/45 257/362/45
f 257/362/45 304/360/45 305/363/45
f 257/362/45 305/363/45 306/364/45
f 257/362/45 306/364/45 259/365/45
f 259/365/45 306/364/45 307/366/45
f 307/366/45 306/364/45 308/367/45
f 307/366/45 308/367/45 309/368/45
f 307/366/45 309/368/45 310/369/45
f 310/369/45 309/368/45 311/370/45
f 311/370/45 309/368/45 312/371/45
f 311/370/45 312/371/45 313/372/45
f 313/372/45 312/371/45 314/373/45
f 313/372/45 314/373/45 315/374/45
f 315/374/45 314/373/45 316/375/45
f 317/376/261 22/377/262 18/378/263
f 317/376/261 18/378/263 318/379/264
f 318/379/264 18/378/263 14/380/265
f 318/379/264 14/380/265 13/381/266
f 317/376/261 318/379/264 319/382/267
f 317/376/261 319/382/267 320/383/268
f 318/379/264 13/381/266 321/384/269
f 321/384/269 13/381/266 19/385/270
f 321/384/269 19/385/270 23/386/271
f 321/384/269 23/386/271 322/387/272
f 322/387/272 23/386/271 27/388/273
f 322/387/272 27/388/273 30/389/274
f 321/384/269 322/387/272 323/390/275
f 318/379/264 321/384/269 324/391/276
f 324/391/276 321/384/269 323/390/275
f 318/379/264 324/391/276 319/382/267
f 324/391/276 323/390/275 325/392/277
f 324/391/276 325/392/277 326/393/278
f 324/391/276 326/393/278 319/382/267
f 326/393/278 325/392/277 327/394/279
f 326/393/278 327/394/279 328/395/280
f 328/395/280 327/394/279 329/396/10
f 319/382/267 326/393/278 330/397/281
f 330/397/281 326/393/278 328/395/280
f 319/382/267 330/397/281 320/383/268
f 320/383/268 330/397/281 331/398/282
f 330/397/281 328/395/280 332/399/283
f 332/399/283 328/395/280 329/396/10
f 330/397/281 332/399/283 331/398/282
f 332/399/283 329/396/10 333/400/284
f 332/399/283 333/400/284 331/398/282
f 38/401/285 36/402/286 334/403/287
f 334/403/287 36/402/286 34/404/288
f 38/401/285 334/403/287 335/405/289
f 38/401/285 335/405/289 40/406/290
f 334/403/287 34/404/288 336/407/291
f 336/407/291 34/404/288 32/408/292
f 40/406/290 335/405/289 42/409/293
f 336/407/291 32/408/292 26/410/294
f 336/407/291 26/410/294 317/376/261
f 317/376/261 26/410/294 22/377/262
f 336/407/291 317/376/261 320/383/268
f 42/409/293 335/405/289 337/411/295
f 42/409/293 337/411/295 44/412/296
f 44/412/296 337/411/295 30/413/297
f 30/413/297 337/411/295 322/414/298
f 336/407/291 320/383/268 338/415/299
f 336/407/291 338/415/299 334/403/287
f 338/415/299 320/383/268 331/398/282
f 322/414/298 337/411/295 339/416/300
f 322/414/298 339/416/300 323/417/301
f 339/416/300 337/411/295 340/418/302
f 340/418/302 337/411/295 335/405/289
f 341/419/303 335/405/289 334/403/287
f 335/405/289 341/419/303 340/418/302
f 341/419/303 334/403/287 338/415/299
f 323/417/301 339/416/300 342/420/304
f 323/417/301 342/420/304 325/421/305
f 339/416/300 340/418/302 343/422/306
f 339/416/300 343/422/306 342/420/304
f 340/418/302 341/419/303 344/423/307
f 340/418/302 344/423/307 343/422/306
f 341/419/303 338/415/299 345/424/308
f 341/419/303 345/424/308 344/423/307
f 345/424/308 338/415/299 331/398/282
f 345/424/308 331/398/282 333/400/284
f 345/424/308 333/400/284 346/425/309
f 345/424/308 346/425/309 344/423/307
f 346/425/309 333/400/284 329/396/10
f 344/423/307 346/425/309 347/426/310
f 347/426/310 346/425/309 329/396/10
f 344/423/307 347/426/310 343/422/306
f 343/422/306 347/426/310 348/427/311
f 348/427/311 347/426/310 329/396/10
f 343/422/306 348/427/311 342/420/304
f 348/427/311 329/396/10 349/428/312
f 348/427/311 349/428/312 342/420/304
f 349/428/312 329/396/10 327/429/313
f 342/420/304 349/428/312 325/421/305
f 325/421/305 349/428/312 327/429/313
f 51/53/17 203/228/185 53/55/19
f 80/82/46 81/83/47 203/228/185
f 203/228/185 51/53/17 350/430/314
f 203/228/185 350/430/314 80/82/46
f 350/430/314 51/53/17 49/51/15
f 80/82/46 350/430/314 351/431/315
f 351/431/315 350/430/314 49/51/15
f 351/431/315 49/51/15 47/49/13
f 80/82/46 351/431/315 78/80/44
f 351/431/315 47/49/13 352/432/316
f 351/431/315 352/432/316 78/80/44
f 352/432/316 47/49/13 48/50/14
f 352/432/316 48/50/14 353/433/317
f 352/432/316 353/433/317 78/80/44
f 353/433/317 48/50/14 182/206/163
f 353/433/317 182/206/163 291/333/260
f 78/80/44 353/433/317 354/434/318
f 354/434/318 353/433/317 291/333/260
f 354/434/318 291/333/260 290/332/259
f 78/80/44 354/434/318 79/81/45
f 354/434/318 290/332/259 355/435/319
f 354/434/318 355/435/319 79/81/45
f 355/435/319 290/332/259 289/331/258
f 355/435/319 289/331/258 288/330/257
f 355/435/319 288/330/257 356/436/320
f 355/435/319 356/436/320 79/81/45
f 356/436/320 288/330/257 287/329/256
f 356/436/320 287/329/256 286/328/255
f 356/436/320 286/328/255 357/437/321
f 356/436/320 357/437/321 79/81/45
f 357/437/321 286/328/255 285/327/254
f 357/437/321 285/327/254 198/223/180
f 357/437/321 198/223/180 201/226/183
f 357/437/321 201/226/183 79/81/45
f 79/81/45 201/226/183 81/83/47
f 358/438/322 359/439/323 235/440/324
f 235/440/324 359/439/323 233/441/325
f 358/438/322 235/440/324 237/442/326
f 233/441/325 359/439/323 360/443/327
f 358/438/322 237/442/326 239/444/328
f 233/441/325 360/443/327 12/445/329
f 358/438/322 239/444/328 361/446/330
f 12/445/329 360/443/327 362/447/331
f 12/445/329 362/447/331 9/448/332
f 9/448/332 362/447/331 10/449/333
f 361/446/330 239/444/328 363/450/334
f 363/450/334 239/444/328 241/451/335
f 363/450/334 241/451/335 243/452/235
f 363/450/334 243/452/235 364/453/236
f 364/453/236 243/452/235 365/454/237
f 365/454/237 243/452/235 245/455/237
f 365/454/237 245/455/237 247/456/336
f 365/454/237 247/456/336 366/457/239
f 366/457/239 247/456/336 249/458/10
f 366/457/239 249/458/10 367/459/10
f 367/459/10 249/458/10 368/460/240
f 368/460/240 249/458/10 251/461/240
f 368/460/240 251/461/240 369/462/241
f 369/462/241 251/461/240 252/463/241
f 369/462/241 252/463/241 254/464/242
f 369/462/241 254/464/242 370/465/337
f 370/465/337 254/464/242 371/466/244
f 371/466/244 254/464/242 256/467/245
f 371/466/244 256/467/245 258/468/338
f 371/466/244 258/468/338 372/469/247
f 372/469/247 258/468/338 373/470/339
f 373/470/339 258/468/338 374/471/249
f 373/470/339 374/471/249 375/472/340
f 373/470/339 375/472/340 376/473/251
f 376/473/251 375/472/340 377/474/252
f 377/474/252 375/472/340 378/475/253
f 377/474/252 378/475/253 379/476/10
f 377/474/252 379/476/10 380/477/10
f 380/477/10 379/476/10 381/478/10
f 380/477/10 381/478/10 382/479/10
f 84/86/50 85/87/51 87/89/53
f 87/89/53 85/87/51 383/480/341
f 87/89/53 383/480/341 384/481/342
f 87/89/53 384/481/342 91/93/57
f 149/170/128 98/103/67 91/93/57
f 149/170/128 91/93/57 151/173/130
f 151/173/130 91/93/57 152/174/131
f 152/174/131 91/93/57 384/481/342
f 152/174/131 384/481/342 385/482/343
f 152/174/131 385/482/343 177/483/344
f 152/174/131 177/483/344 153/175/132
f 177/483/344 385/482/343 386/484/345
f 386/484/345 385/482/343 384/481/342
f 177/483/344 386/484/345 172/485/346
f 172/485/346 386/484/345 171/486/347
f 386/484/345 384/481/342 387/487/348
f 387/487/348 384/481/342 383/480/341
f 171/486/347 386/484/345 388/488/349
f 388/488/349 386/484/345 387/487/348
f 171/486/347 388/488/349 389/489/350
f 389/489/350 388/488/349 387/487/348
f 171/486/347 389/489/350 166/490/351
f 166/490/351 389/489/350 165/491/352
f 165/491/352 389/489/350 390/492/353
f 389/489/350 387/487/348 391/493/354
f 389/489/350 391/493/354 390/492/353
f 165/491/352 390/492/353 392/494/355
f 392/494/355 390/492/353 391/493/354
f 165/491/352 392/494/355 162/495/356
f 162/495/356 392/494/355 159/496/357
f 159/496/357 392/494/355 393/497/358
f 391/493/354 387/487/348 394/498/359
f 394/498/359 387/487/348 383/480/341
f 392/494/355 391/493/354 395/499/360
f 392/494/355 395/499/360 393/497/358
f 159/496/357 393/497/358 396/500/361
f 396/500/361 393/497/358 395/499/360
f 159/496/357 396/500/361 157/501/362
f 157/501/362 396/500/361 158/502/363
f 158/502/363 396/500/361 397/503/364
f 395/499/360 391/493/354 398/504/365
f 398/504/365 391/493/354 394/498/359
f 396/500/361 395/499/360 399/505/366
f 396/500/361 399/505/366 397/503/364
f 158/502/363 397/503/364 400/506/367
f 400/506/367 397/503/364 399/505/366
f 158/502/363 400/506/367 160/507/368
f 160/507/368 400/506/367 161/508/369
f 161/508/369 400/506/367 401/509/370
f 399/505/366 395/499/360 402/510/371
f 402/510/371 395/499/360 398/504/365
f 400/506/367 399/505/366 403/511/372
f 400/506/367 403/511/372 401/509/370
f 161/508/369 401/509/370 404/512/373
f 404/512/373 401/509/370 403/511/372
f 161/508/369 404/512/373 163/513/374
f 163/513/374 404/512/373 169/514/375
f 169/514/375 404/512/373 405/515/376
f 403/511/372 399/505/366 406/516/377
f 406/516/377 399/505/366 402/510/371
f 404/512/373 403/511/372 407/517/378
f 404/512/373 407/517/378 405/515/376
f 169/514/375 405/515/376 408/518/379
f 408/518/379 405/515/376 407/517/378
f 169/514/375 408/518/379 170/519/380
f 170/519/380 408/518/379 174/520/381
f 174/520/381 408/518/379 409/521/382
f 407/517/378 403/511/372 410/522/383
f 410/522/383 403/511/372 406/516/377
f 408/518/379 407/517/378 411/523/384
f 408/518/379 411/523/384 409/521/382
f 174/520/381 409/521/382 412/524/385
f 412/524/385 409/521/382 411/523/384
f 174/520/381 412/524/385 175/525/386
f 175/525/386 412/524/385 179/526/387
f 179/526/387 412/524/385 413/527/388
f 413/527/388 412/524/385 135/528/389
f 135/528/389 412/524/385 411/523/384
f 135/528/389 411/523/384 414/529/390
f 415/530/391 411/523/384 407/517/378
f 411/523/384 415/530/391 414/529/390
f 415/530/391 407/517/378 410/522/383
f 135/528/389 414/529/390 134/531/392
f 134/531/392 414/529/390 416/532/393
f 134/531/392 416/532/393 417/533/394
f 417/533/394 416/532/393 418/534/395
f 418/534/395 416/532/393 419/535/396
f 418/534/395 419/535/396 131/536/397
f 416/532/393 414/529/390 420/537/398
f 416/532/393 420/537/398 419/535/396
f 420/537/398 414/529/390 421/538/399
f 421/538/399 414/529/390 415/530/391
f 419/535/396 420/537/398 422/539/400
f 422/539/400 420/537/398 421/538/399
f 131/536/397 419/535/396 423/540/401
f 423/540/401 419/535/396 422/539/400
f 131/536/397 423/540/401 31/541/386
f 31/541/386 423/540/401 43/542/381
f 422/539/400 421/538/399 424/543/402
f 422/539/400 424/543/402 423/540/401
f 424/543/402 421/538/399 425/544/403
f 425/544/403 421/538/399 415/530/391
f 423/540/401 424/543/402 426/545/404
f 426/545/404 424/543/402 425/544/403
f 43/542/381 423/540/401 427/546/405
f 427/546/405 423/540/401 426/545/404
f 43/542/381 427/546/405 41/547/375
f 425/544/403 415/530/391 428/548/406
f 425/544/403 428/548/406 426/545/404
f 428/548/406 415/530/391 410/522/383
f 41/547/375 427/546/405 429/549/407
f 427/546/405 426/545/404 430/550/408
f 430/550/408 426/545/404 428/548/406
f 427/546/405 430/550/408 429/549/407
f 41/547/375 429/549/407 39/551/409
f 428/548/406 410/522/383 431/552/410
f 428/548/406 431/552/410 430/550/408
f 431/552/410 410/522/383 432/553/411
f 430/550/408 431/552/410 433/554/412
f 430/550/408 433/554/412 429/549/407
f 433/554/412 431/552/410 432/553/411
f 432/553/411 410/522/383 406/516/377
f 429/549/407 433/554/412 434/555/413
f 434/555/413 433/554/412 432/553/411
f 435/556/414 39/551/409 429/549/407
f 435/556/414 429/549/407 434/555/413
f 39/551/409 435/556/414 37/557/363
f 432/553/411 406/516/377 436/558/415
f 432/553/411 436/558/415 434/555/413
f 436/558/415 406/516/377 437/559/416
f 434/555/413 436/558/415 438/560/417
f 434/555/413 438/560/417 435/556/414
f 438/560/417 436/558/415 437/559/416
f 437/559/416 406/516/377 402/510/371
f 439/561/418 37/557/363 435/556/414
f 435/556/414 438/560/417 440/562/419
f 440/562/419 438/560/417 437/559/416
f 435/556/414 440/562/419 439/561/418
f 37/557/363 439/561/418 35/563/357
f 437/559/416 402/510/371 441/564/420
f 437/559/416 441/564/420 440/562/419
f 441/564/420 402/510/371 442/565/421
f 440/562/419 441/564/420 443/566/422
f 440/562/419 443/566/422 439/561/418
f 443/566/422 441/564/420 442/565/421
f 442/565/421 402/510/371 398/504/365
f 444/567/423 35/563/357 439/561/418
f 439/561/418 443/566/422 445/568/424
f 445/568/424 443/566/422 442/565/421
f 439/561/418 445/568/424 444/567/423
f 35/563/357 444/567/423 33/569/352
f 442/565/421 398/504/365 446/570/425
f 442/565/421 446/570/425 445/568/424
f 446/570/425 398/504/365 447/571/426
f 445/568/424 446/570/425 448/572/427
f 445/568/424 448/572/427 444/567/423
f 448/572/427 446/570/425 447/571/426
f 447/571/426 398/504/365 394/498/359
f 444/567/423 448/572/427 449/573/428
f 449/573/428 448/572/427 447/571/426
f 450/574/429 33/569/352 444/567/423
f 450/574/429 444/567/423 449/573/428
f 33/569/352 450/574/429 28/575/347
f 447/571/426 394/498/359 451/576/430
f 447/571/426 451/576/430 449/573/428
f 451/576/430 394/498/359 452/577/431
f 449/573/428 451/576/430 453/578/432
f 449/573/428 453/578/432 450/574/429
f 453/578/432 451/576/430 452/577/431
f 452/577/431 394/498/359 383/480/341
f 450/574/429 453/578/432 454/579/433
f 454/579/433 453/578/432 452/577/431
f 455/580/434 28/575/347 450/574/429
f 455/580/434 450/574/429 454/579/433
f 28/575/347 455/580/434 24/581/344
f 452/577/431 383/480/341 456/582/435
f 452/577/431 456/582/435 454/579/433
f 456/582/435 383/480/341 85/87/51
f 24/581/344 455/580/434 89/91/55
f 24/581/344 89/91/55 20/96/60
f 89/91/55 455/580/434 83/85/49
f 89/91/55 83/85/49 82/84/48
f 457/583/436 455/580/434 454/579/433
f 457/583/436 454/579/433 456/582/435
f 455/580/434 457/583/436 83/85/49
f 457/583/436 456/582/435 85/87/51
f 457/583/436 85/87/51 83/85/49
f 458/584/45 459/585/45 206/586/45
f 206/586/45 459/585/45 460/587/45
f 458/584/45 206/586/45 204/588/45
f 206/586/45 460/587/45 208/589/45
f 458/584/45 204/588/45 461/590/45
f 208/589/45 460/587/45 462/591/45
f 208/589/45 462/591/45 210/592/45
f 210/592/45 462/591/45 212/593/45
f 212/593/45 462/591/45 463/594/45
f 212/593/45 463/594/45 464/595/45
f 212/593/45 464/595/45 214/596/45
f 214/596/45 464/595/45 216/597/45
f 216/597/45 464/595/45 465/598/45
f 216/597/45 465/598/45 466/599/45
f 216/597/45 466/599/45 218/600/45
f 218/600/45 466/599/45 220/601/45
f 220/601/45 466/599/45 467/602/45
f 220/601/45 467/602/45 468/603/45
f 220/601/45 468/603/45 222/604/45
f 222/604/45 468/603/45 225/605/45
f 225/605/45 468/603/45 469/606/45
f 225/605/45 469/606/45 470/607/45
f 225/605/45 470/607/45 227/608/45
f 227/608/45 470/607/45 229/609/45
f 229/609/45 470/607/45 471/610/45
f 229/609/45 471/610/45 472/611/45
f 229/609/45 472/611/45 231/612/45
f 231/612/45 472/611/45 473/613/45
f 473/613/45 472/611/45 474/614/45
f 473/613/45 474/614/45 475/615/45
f 473/613/45 475/615/45 476/616/45
f 476/616/45 475/615/45 477/617/45
f 477/617/45 475/615/45 478/618/45
f 477/617/45 478/618/45 479/619/45
f 479/619/45 478/618/45 480/620/45
f 479/619/45 480/620/45 481/621/45
f 481/621/45 480/620/45 482/622/45
f 5/623/45 1/624/45 204/588/45
f 204/588/45 1/624/45 461/590/45
f 461/590/45 1/624/45 4/625/45
f 133/143/107 132/142/106 138/148/112
f 133/143/107 138/148/112 139/153/115
f 133/143/107 139/153/115 140/154/116
f 133/143/107 140/154/116 135/145/109
f 135/145/109 140/154/116 413/626/437
f 413/626/437 140/154/116 179/627/438
f 179/627/438 140/154/116 141/155/105
f 125/133/97 134/144/108 128/136/100
f 128/136/100 134/144/108 417/628/439
f 128/136/100 417/628/439 129/137/101
f 129/137/101 417/628/439 418/629/440
f 129/137/101 418/629/440 131/139/103
f 258/283/224 259/284/208 374/630/441
f 374/630/441 259/284/208 307/631/442
f 374/630/441 307/631/442 375/632/443
f 375/632/443 307/631/442 310/633/444
f 375/632/443 310/633/444 311/634/445
f 375/632/443 311/634/445 378/635/446
f 378/635/446 311/634/445 313/636/447
f 378/635/446 313/636/447 379/637/448
f 379/637/448 313/636/447 315/638/449
f 379/637/448 315/638/449 381/639/449
f 381/639/449 315/638/449 382/640/450
f 382/640/450 315/638/449 316/641/450
f 230/255/207 231/256/208 276/642/451
f 276/642/451 231/256/208 473/643/452
f 276/642/451 473/643/452 277/644/443
f 277/644/443 473/643/452 476/645/453
f 277/644/443 476/645/453 477/646/454
f 277/644/443 477/646/454 280/647/454
f 280/647/454 477/646/454 479/648/447
f 280/647/454 479/648/447 281/649/447
f 281/649/447 479/648/447 481/650/455
f 281/649/447 481/650/455 283/651/449
f 283/651/449 481/650/455 284/652/450
f 284/652/450 481/650/455 482/653/450
