# CS2 body mesh, tools/cs2_glb_to_obj.py
v 0.00824 0.00892 -0.38956
v 0.00511 0.01543 -0.38956
v -0.00008 0.00892 -0.39794
v -0.00193 0.01703 -0.38956
v 0.00511 0.00242 -0.38956
v -0.00758 0.01253 -0.38956
v -0.00193 0.00081 -0.38956
v -0.00758 0.00531 -0.38956
v 0.00188 0.0154 -0.40224
v -0.00123 0.01596 -0.40227
v -0.00141 0.01559 -0.40224
v 0.0037 0.01458 -0.40224
v 0.00589 0.01211 -0.40224
v 0.00409 0.01471 -0.40227
v 0.00659 0.01025 -0.40224
v 0.0064 0.00696 -0.40224
v 0.00696 0.01007 -0.40227
v 0.00557 0.00514 -0.40224
v 0.00125 0.00225 -0.40224
v 0.00311 0.00295 -0.40224
v 0.00571 0.00476 -0.40227
v -0.00204 0.00244 -0.40224
v 0.00107 0.00188 -0.40227
v -0.00386 0.00327 -0.40224
v -0.00573 0.0127 -0.40224
v -0.00327 0.01489 -0.40224
v -0.00587 0.01309 -0.40227
v -0.00675 0.00759 -0.40224
v -0.00656 0.01089 -0.40224
v -0.00712 0.00777 -0.40227
v -0.00605 0.00573 -0.40224
v -0.00424 0.00313 -0.40227
v 0.00969 0.00892 -0.4469
v 0.00601 0.01656 -0.4469
v 0.00601 0.01656 -0.39949
v 0.00969 0.00892 -0.39949
v -0.00225 0.01844 -0.39949
v -0.00225 0.01844 -0.4469
v -0.00888 0.01316 -0.39949
v -0.00888 0.01316 -0.4469
v -0.00888 0.00468 -0.39949
v -0.00888 0.00468 -0.4469
v -0.00225 -0.0006 -0.39949
v -0.00225 -0.0006 -0.4469
v 0.00601 0.00128 -0.39949
v 0.00601 0.00128 -0.4469
v -0.00031 0.00662 -0.45508
v -0.00025 0.00721 -0.45544
v 0.00059 0.00671 -0.45508
v 0.00042 0.00728 -0.45544
v -0.00117 0.00689 -0.45508
v 0.00073 0.00825 -0.45533
v 0.00143 0.00811 -0.45544
v 0.00101 0.00759 -0.45544
v 0.00097 0.00902 -0.45533
v 0.00002 0.00787 -0.45533
v -0.00089 0.00741 -0.45544
v -0.00141 0.00783 -0.45544
v -0.00075 0.00811 -0.45533
v -0.00113 0.00882 -0.45533
v 0.0004 0.00852 -0.45482
v 0.00054 0.00898 -0.45482
v -0.00002 0.0083 -0.45482
v -0.00048 0.00844 -0.45482
v 0.00032 0.00941 -0.45482
v 0.00059 0.00973 -0.45533
v -0.0007 0.00886 -0.45482
v -0.00018 0.00997 -0.45533
v -0.00056 0.00932 -0.45482
v -0.00089 0.00959 -0.45533
v -0.00014 0.00954 -0.45482
v -0.00225 -0.0006 -0.45497
v -0.00888 0.00468 -0.45497
v -0.00888 0.01316 -0.45497
v 0.00969 0.00892 -0.45497
v 0.00601 0.00128 -0.45497
v 0.00601 0.01656 -0.45497
v -0.00225 0.01844 -0.45497
v -0.00415 0.00811 -0.45497
v -0.00957 0.00703 -0.45497
v -0.00423 0.00892 -0.45497
v -0.00975 0.00892 -0.45497
v -0.00391 0.00733 -0.45497
v -0.00415 0.00973 -0.45497
v -0.00957 0.01081 -0.45497
v -0.00902 0.00522 -0.45497
v -0.00902 0.01262 -0.45497
v -0.00383 0.00778 -0.45397
v -0.00398 0.00931 -0.45397
v -0.00391 0.01051 -0.45497
v -0.00353 0.00662 -0.45497
v -0.00812 0.00355 -0.45497
v -0.00692 0.00208 -0.45497
v -0.00311 0.00643 -0.45397
v -0.00301 0.00599 -0.45497
v -0.00545 0.00088 -0.45497
v -0.00238 0.00547 -0.45497
v -0.00378 -0.00002 -0.45497
v -0.00167 0.00509 -0.45497
v -0.00193 0.00546 -0.45397
v -0.00089 0.00486 -0.45497
v -0.00197 -0.00057 -0.45497
v -0.00008 -0.00075 -0.45497
v -0.00008 0.00478 -0.45497
v 0.00181 -0.00057 -0.45497
v -0.00046 0.00502 -0.45397
v 0.00073 0.00486 -0.45497
v 0.00151 0.00509 -0.45497
v 0.00106 0.00517 -0.45397
v 0.00362 -0.00002 -0.45497
v 0.00529 0.00088 -0.45497
v 0.00222 0.00547 -0.45497
v 0.00676 0.00208 -0.45497
v 0.00241 0.00589 -0.45397
v 0.00285 0.00599 -0.45497
v 0.00796 0.00355 -0.45497
v 0.00337 0.00662 -0.45497
v 0.00886 0.00522 -0.45497
v 0.00375 0.00733 -0.45497
v 0.00338 0.00707 -0.45397
v 0.00399 0.00811 -0.45497
v 0.00941 0.00703 -0.45497
v 0.00203 0.00635 -0.45469
v 0.00382 0.00854 -0.45397
v 0.00407 0.00892 -0.45497
v 0.00959 0.00892 -0.45497
v 0.00399 0.00973 -0.45497
v 0.00941 0.01081 -0.45497
v 0.00367 0.01006 -0.45397
v 0.00375 0.01051 -0.45497
v 0.00886 0.01262 -0.45497
v 0.00285 0.00735 -0.45469
v 0.00337 0.01122 -0.45497
v 0.00796 0.01429 -0.45497
v 0.00676 0.01576 -0.45497
v 0.00295 0.01141 -0.45397
v 0.00285 0.01185 -0.45497
v 0.00529 0.01696 -0.45497
v 0.00222 0.01237 -0.45497
v 0.00362 0.01786 -0.45497
v 0.00151 0.01275 -0.45497
v 0.00073 0.01299 -0.45497
v 0.00181 0.01841 -0.45497
v 0.00177 0.01238 -0.45397
v -0.00008 0.01859 -0.45497
v -0.00008 0.01307 -0.45497
v -0.00197 0.01841 -0.45497
v 0.0003 0.01282 -0.45397
v 0.00149 0.01185 -0.45469
v -0.00089 0.01299 -0.45497
v -0.00122 0.01267 -0.45397
v -0.00167 0.01275 -0.45497
v -0.00378 0.01786 -0.45497
v -0.00545 0.01696 -0.45497
v -0.00238 0.01237 -0.45497
v -0.00257 0.01195 -0.45397
v -0.00301 0.01185 -0.45497
v -0.00692 0.01576 -0.45497
v -0.00812 0.01429 -0.45497
v -0.00353 0.01122 -0.45497
v -0.00354 0.01077 -0.45397
v -0.00301 0.01049 -0.45469
v -0.00219 0.01149 -0.45469
v -0.00339 0.00925 -0.45469
v -0.00326 0.00796 -0.45469
v -0.00265 0.00917 -0.45445
v -0.00265 0.00681 -0.45469
v -0.00165 0.00599 -0.45469
v -0.00208 0.00728 -0.45445
v -0.00255 0.00817 -0.45445
v -0.00041 0.00561 -0.45469
v 0.00088 0.00574 -0.45469
v -0.00033 0.00635 -0.45445
v -0.0013 0.00664 -0.45445
v -0.00186 0.00746 -0.45508
v -0.00229 0.00825 -0.45508
v -0.00238 0.00915 -0.45508
v -0.00172 0.00842 -0.45544
v -0.00179 0.00909 -0.45544
v -0.00211 0.01001 -0.45508
v -0.00159 0.00973 -0.45544
v -0.00236 0.01014 -0.45445
v -0.00154 0.0107 -0.45508
v -0.00172 0.01092 -0.45445
v -0.00083 0.01139 -0.45445
v -0.00104 0.0121 -0.45469
v 0.00025 0.01223 -0.45469
v 0.00017 0.01149 -0.45445
v -0.00075 0.01113 -0.45508
v -0.00117 0.01025 -0.45544
v 0.00015 0.01122 -0.45508
v -0.00058 0.01056 -0.45544
v 0.00009 0.01063 -0.45544
v 0.00101 0.01096 -0.45508
v 0.00073 0.01043 -0.45544
v 0.00114 0.0112 -0.45445
v 0.00125 0.01001 -0.45544
v 0.0017 0.01038 -0.45508
v 0.00192 0.01056 -0.45445
v 0.00249 0.01103 -0.45469
v 0.0031 0.00989 -0.45469
v 0.00239 0.00967 -0.45445
v 0.00213 0.00959 -0.45508
v 0.00323 0.0086 -0.45469
v 0.00249 0.00867 -0.45445
v 0.00156 0.00942 -0.45544
v 0.0022 0.0077 -0.45445
v 0.00163 0.00875 -0.45544
v 0.00222 0.00869 -0.45508
v 0.00196 0.00783 -0.45508
v 0.00138 0.00714 -0.45508
v 0.00156 0.00692 -0.45445
v 0.00067 0.00645 -0.45445
v -0.00363 0.00035 -0.44633
v -0.00363 0.00035 -0.40009
v -0.00523 0.00121 -0.40009
v -0.00505 0.00149 -0.39953
v -0.00189 -0.00018 -0.40009
v -0.0064 0.0026 -0.39953
v -0.0035 0.00066 -0.39953
v -0.00182 0.00015 -0.39953
v -0.00297 0.00195 -0.39946
v -0.00155 0.00152 -0.39946
v -0.00427 0.00264 -0.39946
v -0.00548 0.00313 -0.39936
v -0.00636 0.00473 -0.39946
v 0.00019 0.00101 -0.39936
v 0.00139 0.00152 -0.39946
v 0.00166 0.00015 -0.39953
v -0.00008 -0.00002 -0.39953
v -0.00008 -0.00036 -0.40009
v 0.00173 -0.00018 -0.40009
v 0.00173 -0.00018 -0.44633
v -0.00189 -0.00018 -0.44633
v -0.00008 -0.00036 -0.44633
v 0.00167 0.0001 -0.44689
v -0.00008 -0.00007 -0.44689
v -0.00183 0.0001 -0.44689
v -0.00352 0.00061 -0.44689
v -0.00508 0.00144 -0.44689
v -0.00523 0.00121 -0.44633
v -0.00644 0.00256 -0.44689
v -0.00664 0.00236 -0.40009
v -0.00664 0.00236 -0.44633
v -0.00779 0.00377 -0.40009
v -0.00779 0.00377 -0.44633
v -0.00756 0.00392 -0.44689
v -0.00865 0.00537 -0.44633
v -0.00839 0.00548 -0.44689
v -0.00751 0.00395 -0.39953
v -0.00865 0.00537 -0.40009
v -0.00918 0.00711 -0.44633
v -0.0089 0.00717 -0.44689
v -0.00705 0.00603 -0.39946
v -0.00834 0.0055 -0.39953
v -0.00748 0.00745 -0.39946
v -0.00918 0.00711 -0.40009
v -0.00885 0.00718 -0.39953
v -0.00799 0.00865 -0.39936
v -0.00936 0.00892 -0.44633
v -0.00907 0.00892 -0.44689
v -0.0089 0.01068 -0.44689
v -0.00936 0.00892 -0.40009
v -0.00918 0.01073 -0.44633
v -0.00839 0.01236 -0.44689
v -0.00918 0.01073 -0.40009
v -0.00902 0.00892 -0.39953
v -0.00865 0.01247 -0.44633
v -0.00756 0.01392 -0.44689
v -0.00865 0.01247 -0.40009
v -0.00748 0.01039 -0.39946
v -0.00885 0.01066 -0.39953
v -0.00705 0.01181 -0.39946
v -0.00834 0.01234 -0.39953
v -0.00636 0.01311 -0.39946
v -0.00751 0.01389 -0.39953
v -0.00587 0.01432 -0.39936
v -0.0064 0.01524 -0.39953
v -0.00427 0.0152 -0.39946
v -0.00779 0.01407 -0.40009
v -0.00779 0.01407 -0.44633
v -0.00644 0.01528 -0.44689
v -0.00664 0.01548 -0.40009
v -0.00664 0.01548 -0.44633
v -0.00523 0.01663 -0.40009
v -0.00523 0.01663 -0.44633
v 0.00252 0.01748 -0.4536
v -0.00008 0.0182 -0.45305
v 0.00173 0.01802 -0.45305
v 0.00347 0.01749 -0.45305
v 0.00173 0.01802 -0.44718
v -0.00008 0.0182 -0.44718
v 0.00167 0.01774 -0.44689
v 0.00347 0.01749 -0.44718
v -0.00008 0.01791 -0.44689
v 0.00336 0.01723 -0.44689
v -0.00183 0.01774 -0.44689
v 0.00507 0.01663 -0.44718
v 0.00492 0.0164 -0.44689
v -0.00189 0.01802 -0.44718
v -0.00352 0.01723 -0.44689
v -0.00189 0.01802 -0.45305
v -0.00363 0.01749 -0.44718
v -0.00508 0.0164 -0.44689
v 0.00648 0.01548 -0.44718
v 0.00628 0.01528 -0.44689
v -0.00096 0.01782 -0.4536
v -0.00363 0.01749 -0.45305
v -0.0043 0.01681 -0.4536
v -0.00523 0.01663 -0.45305
v -0.00523 0.01663 -0.44718
v -0.00664 0.01548 -0.44718
v -0.00664 0.01548 -0.45305
v -0.00779 0.01407 -0.44718
v -0.00779 0.01407 -0.45305
v -0.00865 0.01247 -0.44718
v -0.00699 0.01459 -0.4536
v -0.00865 0.01247 -0.45305
v -0.00918 0.01073 -0.44718
v -0.00918 0.01073 -0.45305
v -0.00936 0.00892 -0.44718
v -0.00864 0.01152 -0.4536
v -0.00936 0.00892 -0.45305
v -0.00918 0.00711 -0.44718
v -0.00918 0.00711 -0.45305
v -0.00865 0.00537 -0.44718
v -0.00898 0.00804 -0.4536
v -0.00865 0.00537 -0.45305
v -0.00779 0.00377 -0.44718
v -0.00779 0.00377 -0.45305
v -0.00797 0.00471 -0.4536
v -0.00505 0.01635 -0.39953
v -0.00363 0.01749 -0.40009
v -0.00363 0.01749 -0.44633
v -0.00297 0.01589 -0.39946
v -0.00189 0.01802 -0.44633
v -0.00189 0.01802 -0.40009
v -0.00008 0.0182 -0.44633
v -0.0035 0.01718 -0.39953
v 0.00173 0.01802 -0.44633
v -0.00155 0.01632 -0.39946
v -0.00182 0.01769 -0.39953
v -0.00035 0.01683 -0.39936
v -0.00008 0.0182 -0.40009
v -0.00008 0.01786 -0.39953
v 0.00139 0.01632 -0.39946
v 0.00281 0.01589 -0.39946
v 0.00166 0.01769 -0.39953
v 0.00173 0.01802 -0.40009
v 0.00334 0.01718 -0.39953
v 0.00411 0.0152 -0.39946
v 0.00347 0.01749 -0.40009
v 0.00489 0.01635 -0.39953
v 0.00532 0.01471 -0.39936
v 0.0062 0.01311 -0.39946
v 0.00624 0.01524 -0.39953
v 0.00347 0.01749 -0.44633
v 0.00507 0.01663 -0.44633
v 0.00507 0.01663 -0.40009
v 0.00648 0.01548 -0.44633
v 0.00648 0.01548 -0.40009
v 0.00763 0.01407 -0.44633
v 0.0074 0.01392 -0.44689
v 0.00763 0.01407 -0.40009
v 0.00735 0.01389 -0.39953
v 0.00849 0.01247 -0.40009
v 0.00849 0.01247 -0.44633
v 0.00823 0.01236 -0.44689
v 0.00818 0.01234 -0.39953
v 0.00902 0.01073 -0.40009
v 0.00902 0.01073 -0.44633
v 0.00874 0.01068 -0.44689
v 0.0092 0.00892 -0.44633
v 0.00891 0.00892 -0.44689
v 0.00874 0.00717 -0.44689
v 0.00902 0.00711 -0.44633
v 0.00823 0.00548 -0.44689
v 0.00902 0.00711 -0.40009
v 0.00849 0.00537 -0.44633
v 0.0074 0.00392 -0.44689
v 0.00763 0.00377 -0.44633
v 0.00628 0.00256 -0.44689
v 0.0092 0.00892 -0.40009
v 0.00869 0.01066 -0.39953
v 0.00869 0.00718 -0.39953
v 0.00849 0.00537 -0.40009
v 0.00818 0.0055 -0.39953
v 0.00886 0.00892 -0.39953
v 0.00732 0.00745 -0.39946
v 0.00783 0.0092 -0.39936
v 0.00689 0.00603 -0.39946
v 0.00732 0.01039 -0.39946
v 0.00689 0.01181 -0.39946
v 0.0062 0.00473 -0.39946
v 0.00735 0.00395 -0.39953
v 0.00571 0.00352 -0.39936
v 0.00411 0.00264 -0.39946
v 0.00624 0.0026 -0.39953
v 0.00763 0.00377 -0.40009
v 0.00281 0.00195 -0.39946
v 0.00334 0.00066 -0.39953
v 0.00347 0.00035 -0.40009
v 0.00489 0.00149 -0.39953
v 0.00507 0.00121 -0.40009
v 0.00648 0.00236 -0.40009
v 0.00648 0.00236 -0.44633
v 0.00507 0.00121 -0.44633
v 0.00492 0.00144 -0.44689
v 0.00347 0.00035 -0.44633
v 0.00336 0.00061 -0.44689
v -0.00664 0.00236 -0.45305
v -0.00664 0.00236 -0.44718
v -0.00523 0.00121 -0.44718
v -0.00363 0.00035 -0.44718
v -0.00523 0.00121 -0.45305
v -0.00189 -0.00018 -0.44718
v -0.00189 -0.00018 -0.45305
v -0.00363 0.00035 -0.45305
v -0.00268 0.00036 -0.4536
v -0.00575 0.00201 -0.4536
v -0.00378 -0.00002 -0.45417
v -0.00197 -0.00057 -0.45417
v -0.00545 0.00088 -0.45417
v -0.00692 0.00208 -0.45417
v -0.00812 0.00355 -0.45417
v -0.00902 0.00522 -0.45417
v -0.00957 0.00703 -0.45417
v -0.00975 0.00892 -0.45417
v -0.00957 0.01081 -0.45417
v -0.00902 0.01262 -0.45417
v -0.00812 0.01429 -0.45417
v -0.00692 0.01576 -0.45417
v -0.00545 0.01696 -0.45417
v -0.00378 0.01786 -0.45417
v -0.00197 0.01841 -0.45417
v -0.00008 0.01859 -0.45417
v 0.00181 0.01841 -0.45417
v 0.00362 0.01786 -0.45417
v 0.00559 0.01583 -0.4536
v 0.00529 0.01696 -0.45417
v 0.00676 0.01576 -0.45417
v 0.00796 0.01429 -0.45417
v 0.00886 0.01262 -0.45417
v 0.00781 0.01314 -0.4536
v 0.00941 0.01081 -0.45417
v 0.00959 0.00892 -0.45417
v 0.00882 0.0098 -0.4536
v 0.00941 0.00703 -0.45417
v 0.00848 0.00633 -0.4536
v 0.00902 0.01073 -0.45305
v 0.0092 0.00892 -0.45305
v 0.00886 0.00522 -0.45417
v 0.00796 0.00355 -0.45417
v 0.00683 0.00325 -0.4536
v 0.00676 0.00208 -0.45417
v 0.00529 0.00088 -0.45417
v 0.00414 0.00103 -0.4536
v 0.00362 -0.00002 -0.45417
v 0.00181 -0.00057 -0.45417
v -0.00008 -0.00075 -0.45417
v 0.0008 0.00002 -0.4536
v -0.00008 -0.00036 -0.45305
v 0.00173 -0.00018 -0.45305
v -0.00008 -0.00036 -0.44718
v 0.00173 -0.00018 -0.44718
v 0.00347 0.00035 -0.44718
v 0.00347 0.00035 -0.45305
v 0.00507 0.00121 -0.44718
v 0.00507 0.00121 -0.45305
v 0.00648 0.00236 -0.45305
v 0.00648 0.00236 -0.44718
v 0.00763 0.00377 -0.44718
v 0.00763 0.00377 -0.45305
v 0.00849 0.00537 -0.45305
v 0.00849 0.00537 -0.44718
v 0.00902 0.00711 -0.45305
v 0.00902 0.00711 -0.44718
v 0.0092 0.00892 -0.44718
v 0.00902 0.01073 -0.44718
v 0.00849 0.01247 -0.44718
v 0.00849 0.01247 -0.45305
v 0.00763 0.01407 -0.44718
v 0.00763 0.01407 -0.45305
v 0.00648 0.01548 -0.45305
v 0.00507 0.01663 -0.45305
vt 0.883511 0.930784
vt 0.865963 0.895291
vt 0.83694 0.930784
vt 0.826563 0.886532
vt 0.865963 0.966277
vt 0.794977 0.911069
vt 0.826563 0.975036
vt 0.794977 0.950468
vt 0.852229 0.881283
vt 0.828028 0.876919
vt 0.826624 0.879757
vt 0.866359 0.887661
vt 0.883389 0.906857
vt 0.86935 0.886654
vt 0.888852 0.921354
vt 0.887356 0.946989
vt 0.89172 0.922758
vt 0.880947 0.961089
vt 0.847285 0.983612
vt 0.861782 0.978149
vt 0.881985 0.96411
vt 0.82165 0.982086
vt 0.845882 0.98645
vt 0.80755 0.975707
vt 0.792932 0.90228
vt 0.812128 0.88522
vt 0.791894 0.899258
vt 0.785028 0.942015
vt 0.786523 0.91641
vt 0.782189 0.940611
vt 0.79049 0.956511
vt 0.804529 0.976714
vt 0.511765 0.355358
vt 0.440352 0.355358
vt 0.440352 0.770165
vt 0.511765 0.770165
vt 0.439772 0.857051
vt 0.511765 0.857051
vt 0.368511 0.857051
vt 0.369152 0.770165
vt 0.369152 0.355358
vt 0.301981 0.857051
vt 0.302225 0.770165
vt 0.302225 0.355358
vt 0.238044 0.857051
vt 0.23777 0.770165
vt 0.23777 0.355358
vt 0.170995 0.857051
vt 0.170324 0.770165
vt 0.170324 0.355358
vt 0.099918 0.857051
vt 0.099368 0.770165
vt 0.028352 0.857051
vt 0.099368 0.355358
vt 0.028352 0.770165
vt 0.028352 0.355358
vt 0.17478 0.19837
vt 0.174078 0.191595
vt 0.165777 0.197455
vt 0.167699 0.190924
vt 0.183477 0.195746
vt 0.1648 0.181463
vt 0.158055 0.182836
vt 0.162084 0.187811
vt 0.162694 0.174078
vt 0.171484 0.185156
vt 0.180212 0.189764
vt 0.185217 0.185736
vt 0.178808 0.18302
vt 0.182501 0.176275
vt 0.168981 0.177923
vt 0.168187 0.174566
vt 0.17185 0.179662
vt 0.175176 0.178808
vt 0.170019 0.171636
vt 0.166417 0.167425
vt 0.177007 0.175848
vt 0.173742 0.165288
vt 0.176244 0.172521
vt 0.180395 0.16892
vt 0.173345 0.170782
vt 0.207282 0.329325
vt 0.314982 0.245613
vt 0.314982 0.111332
vt 0.013215 0.178472
vt 0.073 0.299448
vt 0.073 0.057436
vt 0.207282 0.027558
vt 0.238685 0.188879
vt 0.326945 0.205725
vt 0.239479 0.175878
vt 0.329722 0.174993
vt 0.234809 0.201605
vt 0.238197 0.162633
vt 0.326518 0.144505
vt 0.318003 0.23542
vt 0.317545 0.115268
vt 0.222327 0.190832
vt 0.224494 0.17066
vt 0.234901 0.15006
vt 0.228217 0.212928
vt 0.303537 0.262642
vt 0.283853 0.286569
vt 0.212531 0.208808
vt 0.219916 0.223304
vt 0.260079 0.306162
vt 0.20954 0.231269
vt 0.232734 0.320719
vt 0.197882 0.237739
vt 0.1966 0.221534
vt 0.185247 0.241127
vt 0.203253 0.329661
vt 0.17246 0.332591
vt 0.172033 0.242622
vt 0.14182 0.3296
vt 0.177068 0.227149
vt 0.159062 0.240913
vt 0.146275 0.237281
vt 0.156835 0.224891
vt 0.112217 0.320536
vt 0.085086 0.306009
vt 0.134953 0.23072
vt 0.06122 0.286325
vt 0.139012 0.215064
vt 0.124546 0.222449
vt 0.041719 0.26252
vt 0.116581 0.212073
vt 0.027192 0.235206
vt 0.110141 0.200476
vt 0.126316 0.199194
vt 0.106754 0.187811
vt 0.018281 0.205756
vt 0.146916 0.20603
vt 0.12067 0.179662
vt 0.105258 0.174627
vt 0.015351 0.174993
vt 0.106937 0.161687
vt 0.018403 0.144383
vt 0.122959 0.159429
vt 0.11063 0.148869
vt 0.027467 0.114841
vt 0.137089 0.193823
vt 0.117161 0.137547
vt 0.041993 0.087741
vt 0.061678 0.063936
vt 0.132786 0.141606
vt 0.125431 0.127171
vt 0.085452 0.044465
vt 0.135777 0.119236
vt 0.112735 0.03
vt 0.147404 0.112827
vt 0.160009 0.109439
vt 0.142125 0.021149
vt 0.148656 0.128971
vt 0.172857 0.01822
vt 0.173193 0.107913
vt 0.203375 0.021302
vt 0.168187 0.123325
vt 0.153996 0.139744
vt 0.186132 0.109592
vt 0.18836 0.125584
vt 0.198889 0.113315
vt 0.232856 0.030335
vt 0.259896 0.044801
vt 0.210181 0.119785
vt 0.206122 0.13538
vt 0.220557 0.128086
vt 0.283639 0.064425
vt 0.303079 0.088076
vt 0.228492 0.138432
vt 0.218787 0.15128
vt 0.208045 0.15656
vt 0.198248 0.144444
vt 0.212561 0.171514
vt 0.210883 0.187048
vt 0.203284 0.172369
vt 0.203467 0.200873
vt 0.19126 0.21073
vt 0.196326 0.194983
vt 0.202094 0.184332
vt 0.176244 0.215155
vt 0.16068 0.213507
vt 0.17539 0.205969
vt 0.186956 0.202551
vt 0.190527 0.190008
vt 0.19483 0.182012
vt 0.195746 0.173009
vt 0.188299 0.180059
vt 0.188971 0.173681
vt 0.193121 0.164342
vt 0.187109 0.167577
vt 0.199866 0.160894
vt 0.187384 0.157292
vt 0.192328 0.151555
vt 0.181799 0.145787
vt 0.184515 0.136937
vt 0.168981 0.135289
vt 0.169836 0.144536
vt 0.179449 0.152989
vt 0.183111 0.162572
vt 0.170446 0.152104
vt 0.177526 0.159551
vt 0.171148 0.158818
vt 0.161748 0.154637
vt 0.165014 0.160619
vt 0.1583 0.147923
vt 0.160009 0.164647
vt 0.154729 0.160375
vt 0.14893 0.155461
vt 0.14182 0.149541
vt 0.134342 0.163305
vt 0.143162 0.166021
vt 0.150426 0.16834
vt 0.132664 0.178838
vt 0.141881 0.177984
vt 0.156926 0.170293
vt 0.145299 0.18955
vt 0.156255 0.176672
vt 0.14948 0.177404
vt 0.152074 0.186071
vt 0.157781 0.193121
vt 0.152837 0.19892
vt 0.163427 0.204688
vt 0.757653 0.989959
vt 0.648854 0.989959
vt 0.648854 0.878597
vt 0.757653 0.878597
vt 0.540422 0.878597
vt 0.540422 0.989959
vt 0.438459 0.878597
vt 0.438459 0.989959
vt 0.340281 0.878597
vt 0.340281 0.989959
vt 0.237556 0.878597
vt 0.237556 0.989959
vt 0.129429 0.878597
vt 0.129429 0.989959
vt 0.021271 0.878597
vt 0.021271 0.989959
vt 0.974242 0.066012
vt 0.567339 0.066012
vt 0.567339 0.08179
vt 0.561785 0.082125
vt 0.567339 0.050172
vt 0.561785 0.097751
vt 0.561785 0.066439
vt 0.561785 0.0506
vt 0.550768 0.066652
vt 0.550768 0.051485
vt 0.524308 0.060121
vt 0.524308 0.081606
vt 0.550768 0.082095
vt 0.524308 0.089022
vt 0.550768 0.095676
vt 0.550768 0.113895
vt 0.524308 0.121403
vt 0.550768 0.032838
vt 0.524308 0.029603
vt 0.550768 0.018555
vt 0.561785 0.018555
vt 0.561785 0.034639
vt 0.567339 0.034455
vt 0.567339 0.018555
vt 0.974242 0.018555
vt 0.974242 0.050172
vt 0.974242 0.034455
vt 0.979797 0.018555
vt 0.979797 0.03354
vt 0.979797 0.049623
vt 0.979797 0.065615
vt 0.979797 0.081484
vt 0.974242 0.08179
vt 0.979797 0.097354
vt 0.567339 0.097537
vt 0.974242 0.097537
vt 0.567339 0.113254
vt 0.974242 0.113254
vt 0.979797 0.113163
vt 0.974242 0.129002
vt 0.979797 0.128941
vt 0.561785 0.113407
vt 0.567339 0.129002
vt 0.974242 0.144688
vt 0.979797 0.144658
vt 0.550768 0.129032
vt 0.524308 0.143529
vt 0.561785 0.129093
vt 0.550768 0.144475
vt 0.524308 0.15125
vt 0.567339 0.144688
vt 0.561785 0.144749
vt 0.550768 0.158147
vt 0.524308 0.183844
vt 0.974242 0.160344
vt 0.979797 0.160344
vt 0.979797 0.176
vt 0.567339 0.160344
vt 0.974242 0.176
vt 0.979797 0.191687
vt 0.567339 0.176
vt 0.561785 0.160375
vt 0.974242 0.191687
vt 0.979797 0.207373
vt 0.567339 0.191687
vt 0.550768 0.176397
vt 0.561785 0.176031
vt 0.550768 0.191595
vt 0.524308 0.20603
vt 0.561785 0.191717
vt 0.550768 0.207068
vt 0.524308 0.213782
vt 0.561785 0.207373
vt 0.550768 0.220771
vt 0.561785 0.223029
vt 0.550768 0.239051
vt 0.524308 0.246345
vt 0.567339 0.207404
vt 0.974242 0.207373
vt 0.979797 0.223029
vt 0.567339 0.223029
vt 0.974242 0.223029
vt 0.567339 0.238716
vt 0.974242 0.238716
vt 0.383038 0.968474
vt 0.41792 0.960051
vt 0.394635 0.960051
vt 0.37138 0.960051
vt 0.394604 0.884945
vt 0.41789 0.884945
vt 0.394604 0.879788
vt 0.371349 0.884945
vt 0.417859 0.879788
vt 0.371319 0.879788
vt 0.441145 0.879788
vt 0.348094 0.884945
vt 0.348064 0.879788
vt 0.441176 0.884945
vt 0.464431 0.879788
vt 0.441176 0.960051
vt 0.464461 0.884945
vt 0.487716 0.879788
vt 0.324809 0.884945
vt 0.324778 0.879788
vt 0.429579 0.968474
vt 0.464461 0.960051
vt 0.47615 0.968474
vt 0.487747 0.960051
vt 0.487747 0.884945
vt 0.511002 0.879788
vt 0.511002 0.884945
vt 0.534288 0.879788
vt 0.511063 0.960051
vt 0.534288 0.884945
vt 0.557573 0.879788
vt 0.534349 0.960051
vt 0.557573 0.884945
vt 0.580859 0.879788
vt 0.522721 0.968474
vt 0.557665 0.960051
vt 0.580859 0.884945
vt 0.580981 0.960051
vt 0.604144 0.884976
vt 0.604144 0.879788
vt 0.6274 0.879788
vt 0.569323 0.968474
vt 0.604266 0.960051
vt 0.62743 0.884976
vt 0.627552 0.960051
vt 0.650716 0.884976
vt 0.650685 0.879788
vt 0.615925 0.968474
vt 0.650838 0.960051
vt 0.674001 0.884976
vt 0.674001 0.879788
vt 0.674123 0.960051
vt 0.662557 0.968474
vt 0.979797 0.238716
vt 0.561785 0.238716
vt 0.567339 0.254402
vt 0.974242 0.254372
vt 0.979797 0.254372
vt 0.550768 0.25425
vt 0.524308 0.268563
vt 0.974242 0.270058
vt 0.979797 0.270058
vt 0.567339 0.270089
vt 0.974242 0.285714
vt 0.979797 0.285714
vt 0.979797 0.30137
vt 0.561785 0.254402
vt 0.974242 0.301401
vt 0.979797 0.317057
vt 0.550768 0.269692
vt 0.524308 0.276376
vt 0.561785 0.270058
vt 0.550768 0.283425
vt 0.524308 0.309
vt 0.567339 0.285714
vt 0.561785 0.285714
vt 0.550768 0.301706
vt 0.550768 0.316874
vt 0.561785 0.301401
vt 0.524308 0.331187
vt 0.567339 0.30137
vt 0.561785 0.317057
vt 0.550768 0.332347
vt 0.524308 0.339
vt 0.567339 0.317087
vt 0.561785 0.332713
vt 0.550768 0.34608
vt 0.550768 0.36433
vt 0.561785 0.348369
vt 0.524308 0.371593
vt 0.974242 0.317057
vt 0.979797 0.332743
vt 0.974242 0.332713
vt 0.979797 0.348399
vt 0.567339 0.332743
vt 0.974242 0.348399
vt 0.567339 0.348369
vt 0.974242 0.364055
vt 0.979797 0.364055
vt 0.567339 0.364025
vt 0.561785 0.364055
vt 0.567339 0.379742
vt 0.974242 0.379742
vt 0.979797 0.379772
vt 0.561785 0.379711
vt 0.567339 0.395428
vt 0.974242 0.395428
vt 0.979797 0.395459
vt 0.974242 0.411115
vt 0.979797 0.411115
vt 0.979797 0.426832
vt 0.974242 0.426801
vt 0.979797 0.44261
vt 0.567339 0.42674
vt 0.974242 0.442518
vt 0.979797 0.458419
vt 0.974242 0.458266
vt 0.979797 0.474288
vt 0.567339 0.411054
vt 0.561785 0.395367
vt 0.561785 0.42671
vt 0.567339 0.442488
vt 0.561785 0.442366
vt 0.561785 0.411023
vt 0.550768 0.426893
vt 0.550768 0.408673
vt 0.524308 0.434126
vt 0.524308 0.401593
vt 0.550768 0.44203
vt 0.524308 0.456069
vt 0.550768 0.395001
vt 0.524308 0.393811
vt 0.550768 0.379498
vt 0.550768 0.457411
vt 0.524308 0.463454
vt 0.561785 0.458022
vt 0.550768 0.471145
vt 0.550768 0.489456
vt 0.524308 0.49498
vt 0.561785 0.473739
vt 0.567339 0.458235
vt 0.550768 0.50502
vt 0.524308 0.513962
vt 0.550768 0.521317
vt 0.524308 0.517624
vt 0.561785 0.521317
vt 0.561785 0.505509
vt 0.567339 0.521317
vt 0.567339 0.505448
vt 0.561785 0.489547
vt 0.974242 0.521317
vt 0.567339 0.489669
vt 0.567339 0.473922
vt 0.974242 0.474075
vt 0.974242 0.489883
vt 0.979797 0.490219
vt 0.974242 0.505539
vt 0.979797 0.506333
vt 0.979797 0.521317
vt 0.697348 0.960051
vt 0.697317 0.884945
vt 0.697317 0.879788
vt 0.720603 0.884884
vt 0.720695 0.879788
vt 0.743889 0.884854
vt 0.744133 0.879788
vt 0.720481 0.960051
vt 0.767174 0.884884
vt 0.767327 0.879788
vt 0.766991 0.960051
vt 0.743675 0.960051
vt 0.754662 0.968474
vt 0.709037 0.968474
vt 0.744987 0.979369
vt 0.768761 0.979369
vt 0.746117 0.989624
vt 0.770379 0.989624
vt 0.721305 0.979369
vt 0.721702 0.989624
vt 0.697775 0.979369
vt 0.697867 0.989624
vt 0.674337 0.989624
vt 0.674306 0.979369
vt 0.65096 0.989624
vt 0.65096 0.979369
vt 0.627613 0.989624
vt 0.627613 0.979369
vt 0.604297 0.979369
vt 0.604297 0.989624
vt 0.580981 0.979369
vt 0.580981 0.989624
vt 0.557665 0.989624
vt 0.557665 0.979369
vt 0.534379 0.989624
vt 0.534379 0.979369
vt 0.511093 0.989624
vt 0.511093 0.979369
vt 0.487808 0.989624
vt 0.487808 0.979369
vt 0.464522 0.989624
vt 0.464492 0.979369
vt 0.441237 0.989624
vt 0.441237 0.979369
vt 0.417951 0.989624
vt 0.417951 0.979369
vt 0.394665 0.989624
vt 0.394665 0.979369
vt 0.37141 0.989624
vt 0.37141 0.979369
vt 0.348155 0.989624
vt 0.336497 0.968474
vt 0.348155 0.979369
vt 0.32487 0.989624
vt 0.32487 0.979369
vt 0.301614 0.979369
vt 0.301614 0.989624
vt 0.278359 0.979369
vt 0.278359 0.989624
vt 0.255135 0.989624
vt 0.289987 0.968474
vt 0.255104 0.979369
vt 0.23188 0.989624
vt 0.23188 0.979369
vt 0.208625 0.989624
vt 0.243477 0.968474
vt 0.208625 0.979369
vt 0.185369 0.989624
vt 0.196997 0.968474
vt 0.255104 0.960051
vt 0.231849 0.960051
vt 0.185369 0.979369
vt 0.162114 0.979369
vt 0.162114 0.989624
vt 0.150487 0.968474
vt 0.138829 0.979369
vt 0.138829 0.989624
vt 0.115543 0.979369
vt 0.115543 0.989624
vt 0.104007 0.968474
vt 0.092257 0.979369
vt 0.092196 0.989624
vt 0.068819 0.979369
vt 0.068728 0.989624
vt 0.044954 0.989624
vt 0.04532 0.979369
vt 0.020814 0.989624
vt 0.021455 0.979369
vt 0.012207 0.968474
vt 0.057649 0.968474
vt 0.046236 0.960051
vt 0.023072 0.960051
vt 0.069308 0.960051
vt 0.046144 0.884854
vt 0.022889 0.884823
vt 0.02298 0.879788
vt 0.046052 0.879788
vt 0.069308 0.879788
vt 0.069308 0.884945
vt 0.092502 0.884976
vt 0.092502 0.879788
vt 0.092471 0.960051
vt 0.115696 0.884976
vt 0.115665 0.960051
vt 0.115726 0.879788
vt 0.13889 0.960051
vt 0.13892 0.884976
vt 0.13892 0.879788
vt 0.162114 0.884976
vt 0.162114 0.879788
vt 0.162114 0.960051
vt 0.185369 0.960051
vt 0.185339 0.884976
vt 0.185339 0.879788
vt 0.208625 0.960051
vt 0.208563 0.884945
vt 0.208563 0.879788
vt 0.231819 0.884945
vt 0.231788 0.879788
vt 0.255043 0.879788
vt 0.255043 0.884945
vt 0.278268 0.879788
vt 0.278298 0.884945
vt 0.301523 0.879788
vt 0.278359 0.960051
vt 0.301553 0.884945
vt 0.301614 0.960051
vt 0.324839 0.960051
vt 0.348094 0.960051
vn -0.7099 0.0014 0.7043
vn -0.4425 -0.5539 0.7053
vn 0 -0.001 1
vn 0.158 -0.6914 0.705
vn -0.4408 0.5573 0.7037
vn 0.6395 -0.3085 0.7041
vn 0.1564 0.6938 0.7029
vn 0.6379 0.3084 0.7057
vn 0.0053 0.0884 0.9961
vn 0.067 0.0604 0.9959
vn 0.0896 -0.0053 0.996
vn 0.0592 -0.0669 0.996
vn -0.0043 -0.0906 0.9959
vn -0.0604 0.067 0.9959
vn -0.0884 0.0053 0.9961
vn -0.068 -0.0581 0.996
vn 1 -0.001 0
vn 0.6228 0.7823 -0.0014
vn 0.6202 0.7813 0.0705
vn 0.9975 0.001 0.07
vn 0.6171 0.7733 0.1456
vn 0.9895 -0.0011 0.1442
vn -0.2195 0.9649 0.1442
vn -0.2212 0.9727 0.0704
vn -0.224 0.9746 0.0012
vn -0.8921 0.4281 0.1446
vn -0.8979 0.4346 0.0699
vn -0.9019 0.432 0.0013
vn -0.8909 -0.4311 0.1432
vn -0.8992 -0.4318 0.0713
vn -0.9006 -0.4346 0
vn -0.2212 -0.9643 0.1457
vn -0.2229 -0.9722 0.0718
vn -0.2224 -0.975 0
vn 0.6182 -0.7727 0.144
vn 0.6224 -0.7794 0.072
vn 0.6237 -0.7817 0
vn -0.078 -0.7819 -0.6186
vn -0.0197 -0.2823 -0.9591
vn 0.2282 -0.7517 -0.6188
vn 0.074 -0.2718 -0.9595
vn -0.3717 -0.6924 -0.6184
vn -0.3117 0.2566 -0.9149
vn 0.2445 -0.1406 -0.9594
vn 0.1829 -0.2134 -0.9597
vn -0.4029 -0.0384 -0.9144
vn -0.0385 0.4045 -0.9137
vn -0.1393 -0.2457 -0.9593
vn -0.2121 -0.1843 -0.9597
vn 0.2566 0.3117 -0.9149
vn 0.4022 0.0412 -0.9146
vn -0.2291 0.1863 -0.9554
vn -0.2927 -0.0313 -0.9557
vn -0.0287 0.2935 -0.9555
vn 0.1863 0.2291 -0.9554
vn -0.1874 -0.2262 -0.9559
vn -0.2554 -0.3149 -0.9141
vn 0.2935 0.0287 -0.9555
vn 0.0398 -0.4018 -0.9149
vn 0.2276 -0.1861 -0.9558
vn 0.3134 -0.2568 -0.9142
vn 0.03 -0.2939 -0.9554
vn 0 -0.001 -1
vn 0.0029 0.001 -1
vn 0.0029 0.0029 -1
vn 0.0039 -0.001 -1
vn 0.0785 0.0247 -0.9966
vn 0.0808 -0.0096 -0.9967
vn 0.0641 0.0511 -0.9966
vn 0.001 0.0029 -1
vn 0.0379 0.0725 -0.9966
vn -0.001 0.0029 -1
vn 0.0074 0.0817 -0.9966
vn -0.001 0.0049 -1
vn -0.0247 0.0785 -0.9966
vn -0.0511 0.0641 -0.9966
vn -0.0029 0.0029 -1
vn -0.0029 0.001 -1
vn -0.0725 0.0379 -0.9966
vn 0.2946 -0.3562 -0.8868
vn -0.0817 0.0074 -0.9966
vn -0.0039 -0.001 -1
vn -0.0773 -0.0247 -0.9967
vn 0.4079 -0.2173 -0.8868
vn -0.063 -0.051 -0.9967
vn -0.002 -0.0029 -1
vn -0.039 -0.0726 -0.9966
vn 0 -0.0049 -1
vn -0.0085 -0.0818 -0.9966
vn 0.2171 0.4062 -0.8876
vn 0.0236 -0.0784 -0.9966
vn 0.002 -0.0029 -1
vn 0.0521 -0.0619 -0.9967
vn 0.0715 -0.0401 -0.9966
vn -0.4062 0.2171 -0.8876
vn -0.2928 0.3559 -0.8875
vn -0.4592 0.0477 -0.8871
vn -0.4432 -0.133 -0.8865
vn -0.2147 0.0225 -0.9764
vn -0.3577 -0.2931 -0.8867
vn -0.2188 -0.4066 -0.887
vn -0.1677 -0.1364 -0.9763
vn -0.207 -0.0621 -0.9764
vn -0.0463 -0.4587 -0.8874
vn 0.1345 -0.442 -0.8869
vn -0.0213 -0.2145 -0.9765
vn -0.1016 -0.1896 -0.9766
vn -0.607 -0.5008 -0.6171
vn -0.7526 -0.2264 -0.6183
vn -0.7838 0.0765 -0.6163
vn -0.2706 -0.0753 -0.9598
vn -0.2797 0.0209 -0.9599
vn -0.6927 0.3735 -0.617
vn -0.2455 0.1378 -0.9596
vn -0.1898 0.103 -0.9764
vn -0.5008 0.6053 -0.6188
vn -0.1363 0.1663 -0.9766
vn -0.0621 0.2084 -0.9761
vn -0.1329 0.4415 -0.8874
vn 0.0449 0.4614 -0.8861
vn 0.0202 0.217 -0.976
vn -0.2299 0.7521 -0.6176
vn -0.1844 0.2136 -0.9593
vn 0.0765 0.7838 -0.6163
vn -0.0754 0.2721 -0.9593
vn 0.0209 0.2797 -0.9599
vn 0.3698 0.6952 -0.6163
vn 0.1378 0.2455 -0.9596
vn 0.103 0.1898 -0.9764
vn 0.2136 0.1844 -0.9593
vn 0.6084 0.4972 -0.6185
vn 0.1663 0.1363 -0.9766
vn 0.3559 0.2928 -0.8875
vn 0.4415 0.1329 -0.8874
vn 0.206 0.0646 -0.9764
vn 0.7521 0.2299 -0.6176
vn 0.4598 -0.0449 -0.8869
vn 0.2156 -0.0201 -0.9763
vn 0.2721 0.0754 -0.9593
vn 0.1908 -0.1004 -0.9765
vn 0.2812 -0.021 -0.9594
vn 0.7825 -0.0765 -0.6179
vn 0.6937 -0.3699 -0.6181
vn 0.499 -0.6086 -0.617
vn 0.1377 -0.1665 -0.9764
vn 0.0633 -0.2058 -0.9765
vn -0.382 -0.9242 -0.0051
vn -0.3829 -0.9238 0.0077
vn -0.5566 -0.8308 0.0082
vn -0.1105 -0.1658 0.9799
vn -0.1941 -0.981 0.0069
vn -0.3362 -0.3317 0.8814
vn -0.0961 -0.2289 0.9687
vn -0.0378 -0.1876 0.9815
vn 0.2299 0.4827 0.8451
vn 0.183 0.6936 0.6967
vn 0.2664 0.9203 0.2866
vn 0.3382 0.9063 0.2533
vn 0.2872 0.557 0.7792
vn 0.7055 0.6309 0.3228
vn 0.6063 0.3915 0.6922
vn 0.6212 0.359 0.6966
vn 0.8392 0.4638 0.2839
vn 0.1531 0.7048 0.6927
vn 0.1317 0.9385 0.3192
vn -0.2168 0.6535 0.7252
vn 0.0431 -0.4381 0.8979
vn -0.0027 -0.4735 0.8808
vn 0 -1 0.0059
vn 0.099 -0.9951 0.0065
vn 0.099 -0.9951 -0.0065
vn -0.1941 -0.981 -0.0069
vn 0 -1 -0.0059
vn 0.0863 -0.8897 -0.4483
vn 0 -0.8936 -0.4488
vn -0.1728 -0.8771 -0.4481
vn -0.3412 -0.8261 -0.4486
vn -0.4949 -0.7441 -0.4488
vn -0.5553 -0.8316 -0.0054
vn -0.6328 -0.6311 -0.4486
vn -0.7078 -0.7064 0.0056
vn -0.7078 -0.7064 -0.0056
vn -0.8318 -0.555 0.0082
vn -0.8306 -0.5569 -0.0054
vn -0.7427 -0.4968 -0.4489
vn -0.9235 -0.3835 -0.0051
vn -0.8251 -0.343 -0.4489
vn -0.1587 -0.1086 0.9813
vn -0.9244 -0.3813 0.0077
vn -0.9812 -0.1928 -0.0069
vn -0.8766 -0.1744 -0.4485
vn 0.5028 0.1775 0.846
vn 0.8805 0.4005 0.2535
vn -0.2301 -0.0948 0.9685
vn 0.596 0.1915 0.7798
vn 0.9446 -0.0556 0.3235
vn -0.9807 -0.1954 0.0069
vn -0.1973 -0.0392 0.9796
vn 0.7063 -0.1531 0.6912
vn 0.9209 -0.2662 0.2849
vn -1 0.001 -0.0049
vn -0.8934 -0.0013 -0.4493
vn -0.8757 0.1745 -0.4503
vn -1 -0.001 0.0059
vn -0.9807 0.1952 -0.0058
vn -0.824 0.3432 -0.4508
vn -0.9807 0.1952 0.0058
vn -0.473 0.0013 0.8811
vn -0.9246 0.3809 -0.0064
vn -0.7414 0.497 -0.4508
vn -0.9233 0.384 0.0064
vn 0.6932 -0.1864 0.6963
vn -0.1878 0.039 0.9814
vn 0.4818 -0.2333 0.8447
vn 0.9069 -0.3379 0.2516
vn -0.2316 0.0949 0.9682
vn 0.5553 -0.2871 0.7805
vn 0.6296 -0.7059 0.3245
vn -0.166 0.1119 0.9798
vn 0.3898 -0.6095 0.6904
vn -0.332 0.338 0.8807
vn 0.3608 -0.6215 0.6953
vn 0.4624 -0.8395 0.2855
vn -0.8322 0.5544 0.0068
vn -0.8322 0.5544 -0.0068
vn -0.6313 0.6313 -0.4505
vn -0.7071 0.7071 0.0069
vn -0.7071 0.7071 -0.0069
vn -0.5544 0.8322 0.0068
vn -0.5575 0.8301 -0.0068
vn 0.2655 0.8692 0.4172
vn 0.0074 0.9964 -0.084
vn 0.187 0.9787 -0.0843
vn 0.3899 0.9171 -0.0829
vn 0.1941 0.98 0.0441
vn -0.001 0.999 0.0439
vn 0.14 0.7001 0.7001
vn 0.384 0.9223 0.0435
vn 0.0014 0.7154 0.6988
vn 0.273 0.6625 0.6976
vn -0.14 0.7001 0.7001
vn 0.5545 0.8311 0.0433
vn 0.3984 0.5935 0.6993
vn -0.1941 0.98 0.0441
vn -0.273 0.6625 0.6976
vn -0.204 0.9753 -0.0853
vn -0.384 0.9223 0.0435
vn -0.3984 0.5935 0.6993
vn 0.7078 0.705 0.0442
vn 0.5064 0.5031 0.7003
vn -0.0896 0.9055 0.4148
vn -0.3745 0.9233 -0.0852
vn -0.4301 0.8006 0.4172
vn -0.5616 0.823 -0.0847
vn -0.5545 0.8311 0.0433
vn -0.5064 0.5031 0.7003
vn -0.7078 0.705 0.0442
vn -0.5935 0.3984 0.6993
vn -0.6988 0.7105 -0.0832
vn -0.8311 0.5545 0.0433
vn -0.6601 0.2765 0.6984
vn -0.8341 0.5451 -0.0844
vn -0.9236 0.3808 0.0435
vn -0.7001 0.14 0.7001
vn -0.7044 0.5751 0.416
vn -0.9171 0.3899 -0.0829
vn -0.98 0.1941 0.0441
vn -0.9787 0.187 -0.0843
vn -0.9991 -0.001 0.0428
vn -0.7154 0.0014 0.6988
vn -0.7016 -0.14 0.6986
vn -0.8706 0.2619 0.4164
vn -0.9964 0.0074 -0.084
vn -0.9795 -0.1966 0.0429
vn -0.9754 -0.2037 -0.084
vn -0.9226 -0.3835 0.0422
vn -0.6608 -0.273 0.6991
vn -0.9047 -0.0896 0.4165
vn -0.9236 -0.374 -0.0837
vn -0.8294 -0.5571 0.0419
vn -0.5953 -0.3985 0.6978
vn -0.8236 -0.561 -0.0832
vn -0.8017 -0.4298 0.4153
vn -0.497 0.7414 -0.4508
vn -0.1061 0.1597 0.9814
vn -0.384 0.9233 0.0064
vn -0.384 0.9233 -0.0064
vn -0.3432 0.824 -0.4508
vn 0.1792 -0.5033 0.8453
vn 0.4019 -0.8803 0.252
vn -0.1952 0.9807 -0.0058
vn -0.1745 0.8757 -0.4503
vn -0.1952 0.9807 0.0058
vn -0.001 1 -0.0049
vn -0.0013 0.8926 -0.4509
vn 0.1745 0.8757 -0.4503
vn -0.0949 0.2316 0.9682
vn 0.1952 0.9807 -0.0058
vn 0.3432 0.824 -0.4508
vn 0.1898 -0.5954 0.7807
vn -0.0543 -0.9448 0.3231
vn -0.0392 0.196 0.9798
vn -0.1514 -0.7072 0.6906
vn -0.2645 -0.9214 0.2846
vn -0.001 1 0.0069
vn 0.004 0.4709 0.8822
vn -0.1847 -0.6942 0.6957
vn -0.2314 -0.4796 0.8465
vn 0.0366 0.1901 0.9811
vn -0.3362 -0.9076 0.2514
vn 0.1952 0.9807 0.0058
vn 0.0949 0.2316 0.9682
vn -0.2889 -0.5539 0.7809
vn -0.7074 -0.6279 0.3245
vn 0.384 0.9233 0.0064
vn 0.1119 0.166 0.9798
vn -0.608 -0.3916 0.6906
vn -0.6202 -0.3626 0.6956
vn 0.335 0.335 0.8807
vn -0.8384 -0.4642 0.2857
vn 0.384 0.9233 -0.0064
vn 0.497 0.7414 -0.4508
vn 0.5575 0.8301 -0.0068
vn 0.6313 0.6313 -0.4505
vn 0.5544 0.8322 0.0068
vn 0.7071 0.7071 -0.0069
vn 0.7071 0.7071 0.0069
vn 0.8322 0.5544 -0.0068
vn 0.7414 0.497 -0.4508
vn 0.8322 0.5544 0.0068
vn 0.1597 0.1061 0.9814
vn 0.9233 0.384 0.0064
vn 0.9246 0.3809 -0.0064
vn 0.824 0.3432 -0.4508
vn 0.2316 0.0949 0.9682
vn 0.9807 0.1952 0.0058
vn 0.9807 0.1952 -0.0058
vn 0.8757 0.1745 -0.4503
vn 1 0.001 -0.0049
vn 0.8934 -0.0013 -0.4493
vn 0.8766 -0.1744 -0.4485
vn 0.9812 -0.1928 -0.0069
vn 0.8251 -0.343 -0.4489
vn 0.9807 -0.1954 0.0069
vn 0.9235 -0.3835 -0.0051
vn 0.7427 -0.4968 -0.4489
vn 0.8306 -0.5569 -0.0054
vn 0.6328 -0.6311 -0.4486
vn 1 -0.001 0.0059
vn 0.196 0.0392 0.9798
vn 0.1887 -0.0366 0.9813
vn 0.9244 -0.3813 0.0077
vn 0.2301 -0.0948 0.9685
vn 0.4725 -0.004 0.8813
vn -0.6936 0.183 0.6967
vn -0.7048 0.1531 0.6927
vn -0.9214 0.2631 0.2861
vn -0.9445 0.053 0.3243
vn -0.4827 0.2299 0.8451
vn -0.9063 0.3382 0.2533
vn -0.5966 -0.1882 0.7802
vn -0.8795 -0.4037 0.2521
vn -0.5046 -0.1776 0.8449
vn -0.5543 0.2907 0.7799
vn -0.6309 0.7055 0.3228
vn 0.167 -0.1093 0.9799
vn -0.3915 0.6063 0.6922
vn -0.359 0.6212 0.6966
vn -0.4638 0.8392 0.2839
vn 0.3332 -0.3347 0.8814
vn 0.8318 -0.555 0.0082
vn -0.1775 0.5028 0.846
vn -0.4005 0.8805 0.2535
vn -0.1808 0.5757 0.7974
vn -0.8915 0.4249 0.157
vn 0.0726 -0.239 0.9683
vn 0.0961 -0.2289 0.9687
vn 0.2893 -0.9572 0.0074
vn 0.3829 -0.9238 0.0077
vn 0.1074 -0.1599 0.9813
vn 0.2915 -0.9566 -0.0049
vn 0.5566 -0.8308 0.0082
vn 0.7078 -0.7064 0.0056
vn 0.7078 -0.7064 -0.0056
vn 0.5553 -0.8316 -0.0054
vn 0.4949 -0.7441 -0.4488
vn 0.382 -0.9242 -0.0051
vn 0.3412 -0.8261 -0.4486
vn 0.2599 -0.8546 -0.4495
vn -0.7097 -0.6994 -0.0847
vn -0.7058 -0.7072 0.0427
vn -0.5049 -0.5066 0.6989
vn -0.5555 -0.8305 0.0419
vn -0.3967 -0.5967 0.6975
vn -0.3819 -0.9232 0.0421
vn -0.2747 -0.6596 0.6996
vn -0.5462 -0.8336 -0.0829
vn -0.2897 -0.9561 0.0428
vn -0.2085 -0.6861 0.697
vn -0.2899 -0.957 -0.0098
vn -0.3887 -0.9175 -0.0843
vn -0.3659 -0.846 0.3878
vn -0.5766 -0.7042 0.4142
vn -0.3463 -0.7622 0.547
vn -0.2847 -0.943 0.1724
vn -0.3833 -0.9236 0
vn -0.2901 -0.957 0
vn -0.4384 -0.7124 0.548
vn -0.556 -0.8312 0
vn -0.6123 -0.57 0.548
vn -0.7078 -0.7064 0
vn -0.8323 -0.5544 0
vn -0.6776 -0.4881 0.5501
vn -0.9243 -0.3817 0
vn -0.7818 -0.294 0.5498
vn -0.981 -0.1941 0
vn -0.8136 -0.1898 0.5495
vn -0.8357 0.029 0.5484
vn -1 -0.001 0
vn -0.8243 0.1342 0.55
vn -0.9809 0.1943 0.0011
vn -0.9241 0.3822 0.0013
vn -0.7619 0.3446 0.5484
vn -0.8318 0.555 0.0014
vn -0.7096 0.4404 0.5501
vn -0.7071 0.7071 0.0014
vn -0.57 0.6106 0.5497
vn -0.555 0.8318 0.0014
vn -0.488 0.6791 0.5483
vn -0.3822 0.9241 0.0013
vn -0.2939 0.7831 0.548
vn -0.1943 0.9809 0.0011
vn -0.1897 0.8148 0.5478
vn -0.001 1 0.001
vn 0.029 0.8357 0.5484
vn 0.1943 0.9809 -0.0011
vn 0.1342 0.8243 0.55
vn 0.3822 0.9241 -0.0013
vn 0.3446 0.7619 0.5484
vn 0.555 0.8318 -0.0014
vn 0.5787 0.7014 0.4162
vn 0.4404 0.7096 0.5501
vn 0.7071 0.7071 -0.0014
vn 0.6106 0.57 0.5497
vn 0.6791 0.488 0.5483
vn 0.8318 0.555 -0.0014
vn 0.7831 0.2939 0.548
vn 0.9241 0.3822 -0.0013
vn 0.9809 0.1943 -0.0011
vn 0.8028 0.4264 0.4167
vn 0.8133 0.1931 0.5488
vn 0.8347 -0.029 0.55
vn 0.981 -0.1941 0
vn 0.9055 0.0896 0.4148
vn 0.8254 -0.1341 0.5483
vn 0.9243 -0.3817 0
vn 0.8701 -0.2653 0.4154
vn 0.9759 0.2011 -0.0851
vn 0.9965 -0.0096 -0.083
vn 0.7611 -0.3481 0.5473
vn 0.7111 -0.4403 0.5482
vn 0.8323 -0.5544 0
vn 0.7027 -0.5784 0.4143
vn 0.5717 -0.6106 0.548
vn 0.7078 -0.7064 0
vn 0.4899 -0.6761 0.5503
vn 0.556 -0.8312 0
vn 0.428 -0.8028 0.4151
vn 0.2922 -0.7828 0.5494
vn 0.3833 -0.9236 0
vn 0.1914 -0.8129 0.55
vn 0.1955 -0.9807 0
vn 0 -1 0
vn -0.0276 -0.8351 0.5494
vn -0.0983 -0.9952 0
vn -0.0724 -0.7453 0.6628
vn -0.0865 -0.8863 0.455
vn 0.0882 -0.9051 0.416
vn -0.0085 -0.9965 -0.083
vn -0.0959 -0.9846 -0.1463
vn 0.2023 -0.9757 -0.0839
vn 0 -0.9991 0.0428
vn -0.0975 -0.9943 0.0421
vn -0.0695 -0.7133 0.6974
vn 0 -0.7147 0.6995
vn 0.1384 -0.7026 0.698
vn 0.1952 -0.9798 0.0429
vn 0.3819 -0.9232 0.0421
vn 0.2747 -0.6596 0.6996
vn 0.3724 -0.9243 -0.0837
vn 0.5555 -0.8305 0.0419
vn 0.5594 -0.8247 -0.0832
vn 0.3967 -0.5967 0.6975
vn 0.698 -0.7111 -0.0847
vn 0.7058 -0.7072 0.0427
vn 0.5049 -0.5066 0.6989
vn 0.8294 -0.5571 0.0419
vn 0.5953 -0.3985 0.6978
vn 0.8325 -0.5478 -0.083
vn 0.9168 -0.3904 -0.0843
vn 0.9226 -0.3835 0.0422
vn 0.6608 -0.273 0.6991
vn 0.9789 -0.1867 -0.083
vn 0.9795 -0.1966 0.0429
vn 0.7016 -0.14 0.6986
vn 0.9991 -0.001 0.0428
vn 0.7154 0.0014 0.6988
vn 0.7001 0.14 0.7001
vn 0.98 0.1941 0.0441
vn 0.6601 0.2765 0.6984
vn 0.9236 0.3808 0.0435
vn 0.5935 0.3984 0.6993
vn 0.9246 0.3712 -0.085
vn 0.8311 0.5545 0.0433
vn 0.823 0.5616 -0.0847
vn 0.7105 0.6988 -0.0832
vn 0.5451 0.8341 -0.0844
o shell__p1_c0
f 1/1/1 2/2/2 3/3/3
f 3/3/3 2/2/2 4/4/4
f 1/1/1 3/3/3 5/5/5
f 3/3/3 4/4/4 6/6/6
f 5/5/5 3/3/3 7/7/7
f 3/3/3 6/6/6 8/8/8
f 3/3/3 8/8/8 7/7/7
f 9/9/3 10/10/9 11/11/3
f 9/9/3 11/11/3 12/12/3
f 13/13/3 14/14/10 12/12/3
f 13/13/3 12/12/3 15/15/3
f 16/16/3 17/17/11 15/15/3
f 16/16/3 15/15/3 18/18/3
f 18/18/3 15/15/3 12/12/3
f 12/12/3 11/11/3 19/19/3
f 12/12/3 19/19/3 18/18/3
f 20/20/3 21/21/12 18/18/3
f 20/20/3 18/18/3 19/19/3
f 22/22/3 23/23/13 19/19/3
f 22/22/3 19/19/3 24/24/3
f 19/19/3 11/11/3 25/25/3
f 19/19/3 25/25/3 24/24/3
f 25/25/3 11/11/3 26/26/3
f 25/25/3 26/26/3 27/27/14
f 24/24/3 25/25/3 28/28/3
f 28/28/3 25/25/3 29/29/3
f 28/28/3 29/29/3 30/30/15
f 24/24/3 28/28/3 31/31/3
f 24/24/3 31/31/3 32/32/16
f 33/33/17 34/34/18 35/35/19
f 33/33/17 35/35/19 36/36/20
f 36/36/20 35/35/19 2/37/21
f 36/36/20 2/37/21 1/38/22
f 2/37/21 35/35/19 4/39/23
f 35/35/19 34/34/18 37/40/24
f 35/35/19 37/40/24 4/39/23
f 37/40/24 34/34/18 38/41/25
f 4/39/23 37/40/24 6/42/26
f 37/40/24 38/41/25 39/43/27
f 37/40/24 39/43/27 6/42/26
f 39/43/27 38/41/25 40/44/28
f 6/42/26 39/43/27 8/45/29
f 39/43/27 40/44/28 41/46/30
f 39/43/27 41/46/30 8/45/29
f 41/46/30 40/44/28 42/47/31
f 8/45/29 41/46/30 7/48/32
f 41/46/30 42/47/31 43/49/33
f 41/46/30 43/49/33 7/48/32
f 43/49/33 42/47/31 44/50/34
f 7/48/32 43/49/33 5/51/35
f 43/49/33 44/50/34 45/52/36
f 43/49/33 45/52/36 5/51/35
f 5/51/35 45/52/36 1/53/22
f 45/52/36 44/50/34 46/54/37
f 1/53/22 45/52/36 36/55/20
f 36/55/20 45/52/36 46/54/37
f 36/55/20 46/54/37 33/56/17
f 47/57/38 48/58/39 49/59/40
f 49/59/40 48/58/39 50/60/41
f 48/58/39 47/57/38 51/61/42
f 52/62/43 53/63/44 54/64/45
f 52/62/43 54/64/45 50/60/41
f 53/63/44 52/62/43 55/65/46
f 50/60/41 48/58/39 56/66/47
f 50/60/41 56/66/47 52/62/43
f 48/58/39 51/61/42 57/67/48
f 48/58/39 57/67/48 56/66/47
f 57/67/48 51/61/42 58/68/49
f 57/67/48 58/68/49 59/69/50
f 57/67/48 59/69/50 56/66/47
f 59/69/50 58/68/49 60/70/51
f 61/71/52 55/65/46 52/62/43
f 61/71/52 52/62/43 56/66/47
f 55/65/46 61/71/52 62/72/53
f 61/71/52 56/66/47 63/73/54
f 56/66/47 59/69/50 64/74/55
f 56/66/47 64/74/55 63/73/54
f 63/73/54 64/74/55 61/71/52
f 64/74/55 59/69/50 60/70/51
f 61/71/52 64/74/55 62/72/53
f 55/65/46 62/72/53 65/75/56
f 65/75/56 62/72/53 64/74/55
f 55/65/46 65/75/56 66/76/57
f 64/74/55 60/70/51 67/77/58
f 64/74/55 67/77/58 65/75/56
f 66/76/57 65/75/56 68/78/59
f 67/77/58 60/70/51 69/79/60
f 67/77/58 69/79/60 65/75/56
f 69/79/60 60/70/51 70/80/61
f 69/79/60 70/80/61 68/78/59
f 68/78/59 65/75/56 71/81/62
f 68/78/59 71/81/62 69/79/60
f 69/79/60 71/81/62 65/75/56
f 72/82/63 73/83/63 74/84/63
f 72/82/63 74/84/63 75/85/63
f 72/82/63 75/85/63 76/86/63
f 75/85/63 74/84/63 77/87/63
f 77/87/63 74/84/63 78/88/63
f 79/89/64 80/90/63 81/91/64
f 81/91/64 80/90/63 82/92/63
f 80/90/63 79/89/64 83/93/65
f 81/91/64 82/92/63 84/94/66
f 84/94/66 82/92/63 85/95/63
f 80/90/63 83/93/65 86/96/63
f 84/94/66 85/95/63 87/97/63
f 79/89/64 81/91/64 88/98/67
f 79/89/64 88/98/67 83/93/65
f 81/91/64 84/94/66 89/99/68
f 81/91/64 89/99/68 88/98/67
f 84/94/66 87/97/63 90/100/66
f 86/96/63 83/93/65 91/101/65
f 86/96/63 91/101/65 92/102/63
f 92/102/63 91/101/65 93/103/63
f 91/101/65 83/93/65 94/104/69
f 94/104/69 83/93/65 88/98/67
f 93/103/63 91/101/65 95/105/65
f 95/105/65 91/101/65 94/104/69
f 93/103/63 95/105/65 96/106/63
f 96/106/63 95/105/65 97/107/65
f 97/107/65 95/105/65 94/104/69
f 96/106/63 97/107/65 98/108/63
f 98/108/63 97/107/65 99/109/70
f 97/107/65 94/104/69 100/110/71
f 97/107/65 100/110/71 99/109/70
f 98/108/63 99/109/70 101/111/70
f 101/111/70 99/109/70 100/110/71
f 98/108/63 101/111/70 102/112/63
f 102/112/63 101/111/70 103/113/63
f 103/113/63 101/111/70 104/114/72
f 103/113/63 104/114/72 105/115/63
f 101/111/70 100/110/71 106/116/73
f 101/111/70 106/116/73 104/114/72
f 105/115/63 104/114/72 107/117/72
f 105/115/63 107/117/72 108/118/74
f 107/117/72 104/114/72 109/119/75
f 107/117/72 109/119/75 108/118/74
f 109/119/75 104/114/72 106/116/73
f 105/115/63 108/118/74 110/120/63
f 110/120/63 108/118/74 111/121/63
f 111/121/63 108/118/74 112/122/74
f 111/121/63 112/122/74 113/123/63
f 108/118/74 109/119/75 114/124/76
f 108/118/74 114/124/76 112/122/74
f 113/123/63 112/122/74 115/125/77
f 115/125/77 112/122/74 114/124/76
f 113/123/63 115/125/77 116/126/63
f 116/126/63 115/125/77 117/127/77
f 117/127/77 115/125/77 114/124/76
f 116/126/63 117/127/77 118/128/63
f 118/128/63 117/127/77 119/129/78
f 117/127/77 114/124/76 120/130/79
f 117/127/77 120/130/79 119/129/78
f 118/128/63 119/129/78 121/131/78
f 121/131/78 119/129/78 120/130/79
f 118/128/63 121/131/78 122/132/63
f 120/130/79 114/124/76 123/133/80
f 123/133/80 114/124/76 109/119/75
f 121/131/78 120/130/79 124/134/81
f 122/132/63 121/131/78 125/135/82
f 125/135/82 121/131/78 124/134/81
f 122/132/63 125/135/82 126/136/63
f 126/136/63 125/135/82 127/137/82
f 126/136/63 127/137/82 128/138/63
f 127/137/82 125/135/82 129/139/83
f 129/139/83 125/135/82 124/134/81
f 128/138/63 127/137/82 130/140/82
f 130/140/82 127/137/82 129/139/83
f 128/138/63 130/140/82 131/141/63
f 132/142/84 124/134/81 120/130/79
f 132/142/84 120/130/79 123/133/80
f 131/141/63 130/140/82 133/143/82
f 131/141/63 133/143/82 134/144/63
f 134/144/63 133/143/82 135/145/63
f 133/143/82 130/140/82 136/146/85
f 136/146/85 130/140/82 129/139/83
f 135/145/63 133/143/82 137/147/86
f 137/147/86 133/143/82 136/146/85
f 135/145/63 137/147/86 138/148/63
f 138/148/63 137/147/86 139/149/86
f 139/149/86 137/147/86 136/146/85
f 138/148/63 139/149/86 140/150/63
f 140/150/63 139/149/86 141/151/86
f 140/150/63 141/151/86 142/152/86
f 140/150/63 142/152/86 143/153/63
f 141/151/86 139/149/86 144/154/87
f 144/154/87 139/149/86 136/146/85
f 141/151/86 144/154/87 142/152/86
f 143/153/63 142/152/86 145/155/63
f 145/155/63 142/152/86 146/156/88
f 145/155/63 146/156/88 147/157/63
f 142/152/86 144/154/87 148/158/89
f 142/152/86 148/158/89 146/156/88
f 144/154/87 136/146/85 149/159/90
f 144/154/87 149/159/90 148/158/89
f 147/157/63 146/156/88 150/160/88
f 146/156/88 148/158/89 151/161/91
f 146/156/88 151/161/91 150/160/88
f 147/157/63 150/160/88 152/162/92
f 152/162/92 150/160/88 151/161/91
f 147/157/63 152/162/92 153/163/63
f 153/163/63 152/162/92 154/164/63
f 154/164/63 152/162/92 155/165/92
f 152/162/92 151/161/91 156/166/93
f 152/162/92 156/166/93 155/165/92
f 154/164/63 155/165/92 157/167/92
f 157/167/92 155/165/92 156/166/93
f 154/164/63 157/167/92 158/168/63
f 158/168/63 157/167/92 159/169/63
f 159/169/63 157/167/92 160/170/66
f 160/170/66 157/167/92 156/166/93
f 159/169/63 160/170/66 87/97/63
f 87/97/63 160/170/66 90/100/66
f 90/100/66 160/170/66 161/171/94
f 161/171/94 160/170/66 156/166/93
f 90/100/66 161/171/94 84/94/66
f 84/94/66 161/171/94 89/99/68
f 161/171/94 156/166/93 162/172/95
f 161/171/94 162/172/95 89/99/68
f 162/172/95 156/166/93 163/173/96
f 163/173/96 156/166/93 151/161/91
f 89/99/68 162/172/95 164/174/97
f 89/99/68 164/174/97 165/175/98
f 89/99/68 165/175/98 88/98/67
f 164/174/97 162/172/95 166/176/99
f 164/174/97 166/176/99 165/175/98
f 88/98/67 165/175/98 167/177/100
f 88/98/67 167/177/100 94/104/69
f 94/104/69 167/177/100 100/110/71
f 100/110/71 167/177/100 168/178/101
f 100/110/71 168/178/101 106/116/73
f 167/177/100 165/175/98 169/179/102
f 167/177/100 169/179/102 168/178/101
f 169/179/102 165/175/98 170/180/103
f 170/180/103 165/175/98 166/176/99
f 106/116/73 168/178/101 171/181/104
f 106/116/73 171/181/104 172/182/105
f 106/116/73 172/182/105 109/119/75
f 171/181/104 168/178/101 173/183/106
f 171/181/104 173/183/106 172/182/105
f 109/119/75 172/182/105 123/133/80
f 174/184/107 168/178/101 169/179/102
f 168/178/101 174/184/107 173/183/106
f 175/185/108 169/179/102 170/180/103
f 169/179/102 175/185/108 174/184/107
f 175/185/108 170/180/103 176/186/109
f 176/186/109 170/180/103 166/176/99
f 174/184/107 175/185/108 51/61/42
f 174/184/107 51/61/42 173/183/106
f 175/185/108 176/186/109 58/68/49
f 175/185/108 58/68/49 51/61/42
f 176/186/109 166/176/99 177/187/110
f 173/183/106 51/61/42 47/57/38
f 58/68/49 176/186/109 178/188/111
f 176/186/109 177/187/110 179/189/112
f 176/186/109 179/189/112 178/188/111
f 177/187/110 166/176/99 180/190/113
f 177/187/110 180/190/113 179/189/112
f 178/188/111 179/189/112 60/70/51
f 178/188/111 60/70/51 58/68/49
f 179/189/112 180/190/113 181/191/114
f 179/189/112 181/191/114 60/70/51
f 180/190/113 166/176/99 182/192/115
f 182/192/115 166/176/99 162/172/95
f 181/191/114 180/190/113 183/193/116
f 183/193/116 180/190/113 182/192/115
f 182/192/115 162/172/95 163/173/96
f 182/192/115 163/173/96 184/194/117
f 182/192/115 184/194/117 183/193/116
f 184/194/117 163/173/96 185/195/118
f 184/194/117 185/195/118 183/193/116
f 185/195/118 163/173/96 186/196/119
f 186/196/119 163/173/96 151/161/91
f 186/196/119 151/161/91 148/158/89
f 186/196/119 148/158/89 187/197/120
f 187/197/120 148/158/89 149/159/90
f 186/196/119 187/197/120 188/198/121
f 186/196/119 188/198/121 185/195/118
f 188/198/121 187/197/120 149/159/90
f 189/199/122 183/193/116 185/195/118
f 189/199/122 185/195/118 188/198/121
f 183/193/116 189/199/122 190/200/123
f 183/193/116 190/200/123 181/191/114
f 189/199/122 188/198/121 191/201/124
f 181/191/114 190/200/123 70/80/61
f 190/200/123 189/199/122 192/202/125
f 190/200/123 192/202/125 70/80/61
f 189/199/122 191/201/124 193/203/126
f 189/199/122 193/203/126 192/202/125
f 191/201/124 188/198/121 194/204/127
f 191/201/124 194/204/127 193/203/126
f 181/191/114 70/80/61 60/70/51
f 192/202/125 193/203/126 68/78/59
f 192/202/125 68/78/59 70/80/61
f 193/203/126 194/204/127 195/205/128
f 194/204/127 188/198/121 196/206/129
f 196/206/129 188/198/121 149/159/90
f 195/205/128 194/204/127 197/207/130
f 193/203/126 195/205/128 66/76/57
f 66/76/57 195/205/128 197/207/130
f 193/203/126 66/76/57 68/78/59
f 194/204/127 196/206/129 198/208/131
f 194/204/127 198/208/131 197/207/130
f 196/206/129 149/159/90 199/209/132
f 196/206/129 199/209/132 198/208/131
f 199/209/132 149/159/90 200/210/133
f 200/210/133 149/159/90 136/146/85
f 200/210/133 136/146/85 129/139/83
f 200/210/133 129/139/83 201/211/134
f 200/210/133 201/211/134 199/209/132
f 201/211/134 129/139/83 124/134/81
f 198/208/131 199/209/132 202/212/135
f 202/212/135 199/209/132 201/211/134
f 198/208/131 202/212/135 203/213/136
f 198/208/131 203/213/136 197/207/130
f 201/211/134 124/134/81 204/214/137
f 201/211/134 204/214/137 202/212/135
f 204/214/137 124/134/81 132/142/84
f 202/212/135 204/214/137 205/215/138
f 205/215/138 204/214/137 132/142/84
f 202/212/135 205/215/138 203/213/136
f 197/207/130 203/213/136 206/216/139
f 205/215/138 132/142/84 207/217/140
f 207/217/140 132/142/84 123/133/80
f 197/207/130 206/216/139 55/65/46
f 197/207/130 55/65/46 66/76/57
f 206/216/139 203/213/136 208/218/141
f 206/216/139 208/218/141 55/65/46
f 209/219/142 203/213/136 205/215/138
f 203/213/136 209/219/142 208/218/141
f 209/219/142 205/215/138 210/220/143
f 210/220/143 205/215/138 207/217/140
f 208/218/141 209/219/142 53/63/44
f 53/63/44 209/219/142 210/220/143
f 208/218/141 53/63/44 55/65/46
f 210/220/143 207/217/140 211/221/144
f 212/222/145 207/217/140 123/133/80
f 207/217/140 212/222/145 211/221/144
f 212/222/145 123/133/80 172/182/105
f 212/222/145 172/182/105 213/223/146
f 212/222/145 213/223/146 211/221/144
f 213/223/146 172/182/105 173/183/106
f 213/223/146 173/183/106 49/59/40
f 213/223/146 49/59/40 211/221/144
f 49/59/40 173/183/106 47/57/38
f 211/221/144 54/64/45 210/220/143
f 210/220/143 54/64/45 53/63/44
f 211/221/144 49/59/40 50/60/41
f 211/221/144 50/60/41 54/64/45
f 75/224/17 77/225/18 34/226/18
f 75/224/17 34/226/18 33/227/17
f 34/226/18 77/225/18 38/228/25
f 38/228/25 77/225/18 78/229/25
f 38/228/25 78/229/25 40/230/28
f 40/230/28 78/229/25 74/231/28
f 40/230/28 74/231/28 42/232/31
f 42/232/31 74/231/28 73/233/31
f 42/232/31 73/233/31 44/234/34
f 44/234/34 73/233/31 72/235/34
f 44/234/34 72/235/34 46/236/37
f 46/236/37 72/235/34 76/237/37
f 46/236/37 76/237/37 33/238/17
f 33/238/17 76/237/37 75/239/17
f 214/240/147 215/241/148 216/242/149
f 216/242/149 215/241/148 217/243/150
f 215/241/148 214/240/147 218/244/151
f 216/242/149 217/243/150 219/245/152
f 215/241/148 218/244/151 220/246/153
f 215/241/148 220/246/153 217/243/150
f 220/246/153 218/244/151 221/247/154
f 217/243/150 220/246/153 222/248/155
f 220/246/153 221/247/154 223/249/156
f 220/246/153 223/249/156 222/248/155
f 222/248/155 223/249/156 22/250/157
f 222/248/155 22/250/157 24/251/158
f 222/248/155 24/251/158 224/252/159
f 222/248/155 224/252/159 217/243/150
f 224/252/159 24/251/158 32/253/160
f 217/243/150 224/252/159 225/254/161
f 225/254/161 224/252/159 32/253/160
f 217/243/150 225/254/161 219/245/152
f 225/254/161 32/253/160 226/255/162
f 225/254/161 226/255/162 219/245/152
f 226/255/162 32/253/160 31/256/163
f 227/257/164 22/250/157 223/249/156
f 22/250/157 227/257/164 23/258/165
f 23/258/165 227/257/164 228/259/166
f 228/259/166 227/257/164 229/260/167
f 227/257/164 223/249/156 230/261/168
f 227/257/164 230/261/168 229/260/167
f 230/261/168 223/249/156 221/247/154
f 229/260/167 230/261/168 231/262/169
f 231/262/169 230/261/168 221/247/154
f 229/260/167 231/262/169 232/263/170
f 231/262/169 221/247/154 218/244/151
f 232/263/170 231/262/169 233/264/171
f 231/262/169 218/244/151 234/265/172
f 233/264/171 231/262/169 235/266/173
f 235/266/173 231/262/169 234/265/172
f 233/264/171 235/266/173 236/267/174
f 236/267/174 235/266/173 237/268/175
f 237/268/175 235/266/173 238/269/176
f 238/269/176 235/266/173 234/265/172
f 238/269/176 234/265/172 239/270/177
f 218/244/151 214/240/147 234/265/172
f 234/265/172 214/240/147 239/270/177
f 239/270/177 214/240/147 240/271/178
f 240/271/178 214/240/147 241/272/179
f 241/272/179 214/240/147 216/242/149
f 240/271/178 241/272/179 242/273/180
f 241/272/179 216/242/149 243/274/181
f 243/274/181 216/242/149 219/245/152
f 242/273/180 241/272/179 244/275/182
f 244/275/182 241/272/179 243/274/181
f 243/274/181 219/245/152 245/276/183
f 243/274/181 245/276/183 244/275/182
f 242/273/180 244/275/182 246/277/184
f 246/277/184 244/275/182 245/276/183
f 242/273/180 246/277/184 247/278/185
f 247/278/185 246/277/184 248/279/186
f 248/279/186 246/277/184 245/276/183
f 247/278/185 248/279/186 249/280/187
f 250/281/188 245/276/183 219/245/152
f 250/281/188 219/245/152 226/255/162
f 248/279/186 245/276/183 251/282/189
f 251/282/189 245/276/183 250/281/188
f 249/280/187 248/279/186 252/283/190
f 252/283/190 248/279/186 251/282/189
f 249/280/187 252/283/190 253/284/191
f 250/281/188 226/255/162 254/285/192
f 254/285/192 226/255/162 31/256/163
f 254/285/192 31/256/163 28/286/193
f 250/281/188 254/285/192 255/287/194
f 250/281/188 255/287/194 251/282/189
f 254/285/192 28/286/193 256/288/195
f 254/285/192 256/288/195 255/287/194
f 256/288/195 28/286/193 30/289/196
f 251/282/189 255/287/194 257/290/197
f 251/282/189 257/290/197 252/283/190
f 255/287/194 256/288/195 258/291/198
f 255/287/194 258/291/198 257/290/197
f 256/288/195 30/289/196 259/292/199
f 256/288/195 259/292/199 258/291/198
f 259/292/199 30/289/196 29/293/200
f 260/294/201 253/284/191 252/283/190
f 260/294/201 252/283/190 257/290/197
f 253/284/191 260/294/201 261/295/202
f 261/295/202 260/294/201 262/296/203
f 260/294/201 257/290/197 263/297/204
f 263/297/204 257/290/197 258/291/198
f 262/296/203 260/294/201 264/298/205
f 262/296/203 264/298/205 265/299/206
f 260/294/201 263/297/204 266/300/207
f 260/294/201 266/300/207 264/298/205
f 263/297/204 258/291/198 267/301/208
f 267/301/208 258/291/198 259/292/199
f 265/299/206 264/298/205 268/302/209
f 265/299/206 268/302/209 269/303/210
f 264/298/205 266/300/207 270/304/211
f 264/298/205 270/304/211 268/302/209
f 267/301/208 259/292/199 271/305/212
f 271/305/212 259/292/199 29/293/200
f 263/297/204 267/301/208 272/306/213
f 263/297/204 272/306/213 266/300/207
f 272/306/213 267/301/208 271/305/212
f 271/305/212 29/293/200 273/307/214
f 271/305/212 273/307/214 272/306/213
f 273/307/214 29/293/200 25/308/215
f 266/300/207 272/306/213 274/309/216
f 274/309/216 272/306/213 273/307/214
f 266/300/207 274/309/216 270/304/211
f 273/307/214 25/308/215 275/310/217
f 273/307/214 275/310/217 274/309/216
f 275/310/217 25/308/215 27/311/218
f 270/304/211 274/309/216 276/312/219
f 276/312/219 274/309/216 275/310/217
f 276/312/219 275/310/217 277/313/220
f 277/313/220 275/310/217 27/311/218
f 276/312/219 277/313/220 278/314/221
f 277/313/220 27/311/218 279/315/222
f 277/313/220 279/315/222 278/314/221
f 279/315/222 27/311/218 26/316/223
f 270/304/211 276/312/219 280/317/224
f 280/317/224 276/312/219 278/314/221
f 270/304/211 280/317/224 281/318/225
f 270/304/211 281/318/225 268/302/209
f 268/302/209 281/318/225 269/303/210
f 269/303/210 281/318/225 282/319/226
f 280/317/224 278/314/221 283/320/227
f 281/318/225 280/317/224 284/321/228
f 281/318/225 284/321/228 282/319/226
f 284/321/228 280/317/224 283/320/227
f 283/320/227 278/314/221 285/322/229
f 283/320/227 285/322/229 284/321/228
f 282/319/226 284/321/228 286/323/230
f 286/323/230 284/321/228 285/322/229
f 287/324/231 288/325/232 289/326/233
f 287/324/231 289/326/233 290/327/234
f 289/326/233 288/325/232 291/328/235
f 289/326/233 291/328/235 290/327/234
f 291/328/235 288/325/232 292/329/236
f 291/328/235 292/329/236 293/330/237
f 291/328/235 293/330/237 294/331/238
f 291/328/235 294/331/238 290/327/234
f 293/330/237 292/329/236 295/332/239
f 294/331/238 293/330/237 296/333/240
f 295/332/239 292/329/236 297/334/241
f 294/331/238 296/333/240 298/335/242
f 294/331/238 298/335/242 290/327/234
f 298/335/242 296/333/240 299/336/243
f 297/334/241 292/329/236 300/337/244
f 297/334/241 300/337/244 301/338/245
f 300/337/244 292/329/236 302/339/246
f 302/339/246 292/329/236 288/325/232
f 301/338/245 300/337/244 303/340/247
f 303/340/247 300/337/244 302/339/246
f 301/338/245 303/340/247 304/341/248
f 298/335/242 299/336/243 305/342/249
f 305/342/249 299/336/243 306/343/250
f 302/339/246 288/325/232 307/344/251
f 303/340/247 302/339/246 308/345/252
f 307/344/251 288/325/232 287/324/231
f 308/345/252 302/339/246 309/346/253
f 309/346/253 302/339/246 307/344/251
f 303/340/247 308/345/252 310/347/254
f 310/347/254 308/345/252 309/346/253
f 311/348/255 304/341/248 303/340/247
f 311/348/255 303/340/247 310/347/254
f 304/341/248 311/348/255 282/349/256
f 282/349/256 311/348/255 312/350/257
f 312/350/257 311/348/255 310/347/254
f 282/349/256 312/350/257 269/351/258
f 312/350/257 310/347/254 313/352/259
f 313/352/259 310/347/254 309/346/253
f 269/351/258 312/350/257 314/353/260
f 269/351/258 314/353/260 265/354/261
f 312/350/257 313/352/259 315/355/262
f 312/350/257 315/355/262 314/353/260
f 265/354/261 314/353/260 316/356/263
f 316/356/263 314/353/260 315/355/262
f 265/354/261 316/356/263 262/357/264
f 315/355/262 313/352/259 317/358/265
f 317/358/265 313/352/259 309/346/253
f 316/356/263 315/355/262 318/359/266
f 318/359/266 315/355/262 317/358/265
f 262/357/264 316/356/263 319/360/267
f 319/360/267 316/356/263 320/361/268
f 320/361/268 316/356/263 318/359/266
f 262/357/264 319/360/267 321/362/269
f 321/362/269 319/360/267 320/361/268
f 262/357/264 321/362/269 261/363/270
f 261/363/270 321/362/269 253/364/271
f 320/361/268 318/359/266 322/365/272
f 322/365/272 318/359/266 317/358/265
f 321/362/269 320/361/268 323/366/273
f 323/366/273 320/361/268 322/365/272
f 253/364/271 321/362/269 324/367/274
f 321/362/269 323/366/273 325/368/275
f 321/362/269 325/368/275 324/367/274
f 253/364/271 324/367/274 326/369/276
f 326/369/276 324/367/274 325/368/275
f 253/364/271 326/369/276 249/370/277
f 323/366/273 322/365/272 327/371/278
f 323/366/273 327/371/278 325/368/275
f 326/369/276 325/368/275 328/372/279
f 249/370/277 326/369/276 329/373/280
f 249/370/277 329/373/280 247/374/281
f 326/369/276 328/372/279 330/375/282
f 326/369/276 330/375/282 329/373/280
f 328/372/279 325/368/275 331/376/283
f 328/372/279 331/376/283 330/375/282
f 331/376/283 325/368/275 327/371/278
f 304/377/284 282/319/226 286/323/230
f 332/378/285 285/322/229 278/314/221
f 332/378/285 278/314/221 279/315/222
f 333/379/286 286/323/230 285/322/229
f 333/379/286 285/322/229 332/378/285
f 304/377/284 286/323/230 334/380/287
f 334/380/287 286/323/230 333/379/286
f 304/377/284 334/380/287 301/381/288
f 332/378/285 279/315/222 335/382/289
f 335/382/289 279/315/222 26/316/223
f 335/382/289 26/316/223 11/383/290
f 301/381/288 334/380/287 336/384/291
f 301/381/288 336/384/291 297/385/292
f 336/384/291 334/380/287 337/386/293
f 337/386/293 334/380/287 333/379/286
f 297/385/292 336/384/291 338/387/294
f 338/387/294 336/384/291 337/386/293
f 297/385/292 338/387/294 295/388/295
f 295/388/295 338/387/294 293/389/296
f 339/390/297 333/379/286 332/378/285
f 333/379/286 339/390/297 337/386/293
f 339/390/297 332/378/285 335/382/289
f 293/389/296 338/387/294 340/391/298
f 293/389/296 340/391/298 296/392/299
f 339/390/297 335/382/289 341/393/300
f 341/393/300 335/382/289 11/383/290
f 341/393/300 11/383/290 10/394/301
f 339/390/297 341/393/300 342/395/302
f 339/390/297 342/395/302 337/386/293
f 341/393/300 10/394/301 343/396/303
f 341/393/300 343/396/303 342/395/302
f 343/396/303 10/394/301 9/397/304
f 337/386/293 342/395/302 344/398/305
f 337/386/293 344/398/305 338/387/294
f 342/395/302 343/396/303 345/399/306
f 342/395/302 345/399/306 344/398/305
f 343/396/303 9/397/304 346/400/307
f 343/396/303 346/400/307 345/399/306
f 346/400/307 9/397/304 347/401/308
f 345/399/306 346/400/307 348/402/309
f 345/399/306 348/402/309 344/398/305
f 348/402/309 346/400/307 347/401/308
f 347/401/308 9/397/304 12/403/310
f 349/404/311 338/387/294 344/398/305
f 349/404/311 344/398/305 348/402/309
f 338/387/294 349/404/311 340/391/298
f 348/402/309 347/401/308 350/405/312
f 348/402/309 350/405/312 349/404/311
f 347/401/308 12/403/310 351/406/313
f 347/401/308 351/406/313 350/405/312
f 351/406/313 12/403/310 14/407/314
f 340/391/298 349/404/311 352/408/315
f 352/408/315 349/404/311 350/405/312
f 350/405/312 351/406/313 353/409/316
f 350/405/312 353/409/316 352/408/315
f 351/406/313 14/407/314 354/410/317
f 351/406/313 354/410/317 353/409/316
f 354/410/317 14/407/314 355/411/318
f 353/409/316 354/410/317 356/412/319
f 356/412/319 354/410/317 355/411/318
f 355/411/318 14/407/314 13/413/320
f 357/414/321 340/391/298 352/408/315
f 340/391/298 357/414/321 296/392/299
f 296/392/299 357/414/321 299/415/322
f 299/415/322 357/414/321 358/416/323
f 358/416/323 357/414/321 352/408/315
f 299/415/322 358/416/323 306/417/324
f 359/418/325 352/408/315 353/409/316
f 352/408/315 359/418/325 358/416/323
f 359/418/325 353/409/316 356/412/319
f 306/417/324 358/416/323 360/419/326
f 358/416/323 359/418/325 361/420/327
f 358/416/323 361/420/327 360/419/326
f 361/420/327 359/418/325 356/412/319
f 306/417/324 360/419/326 362/421/328
f 362/421/328 360/419/326 361/420/327
f 306/417/324 362/421/328 363/422/329
f 361/420/327 356/412/319 364/423/330
f 361/420/327 364/423/330 362/421/328
f 364/423/330 356/412/319 365/424/331
f 365/424/331 356/412/319 355/411/318
f 362/421/328 364/423/330 366/425/332
f 366/425/332 364/423/330 365/424/331
f 363/422/329 362/421/328 367/426/333
f 367/426/333 362/421/328 366/425/332
f 363/422/329 367/426/333 368/427/334
f 365/424/331 355/411/318 369/428/335
f 365/424/331 369/428/335 366/425/332
f 367/426/333 366/425/332 370/429/336
f 370/429/336 366/425/332 369/428/335
f 368/427/334 367/426/333 371/430/337
f 371/430/337 367/426/333 370/429/336
f 368/427/334 371/430/337 372/431/338
f 372/431/338 371/430/337 373/432/339
f 373/432/339 371/430/337 370/429/336
f 372/431/338 373/432/339 374/433/340
f 374/433/340 373/432/339 375/434/341
f 375/434/341 373/432/339 376/435/342
f 375/434/341 376/435/342 377/436/343
f 376/435/342 373/432/339 378/437/344
f 377/436/343 376/435/342 379/438/345
f 379/438/345 376/435/342 378/437/344
f 377/436/343 379/438/345 380/439/346
f 380/439/346 379/438/345 381/440/347
f 380/439/346 381/440/347 382/441/348
f 383/442/349 373/432/339 370/429/336
f 373/432/339 383/442/349 378/437/344
f 383/442/349 370/429/336 384/443/350
f 384/443/350 370/429/336 369/428/335
f 378/437/344 383/442/349 385/444/351
f 386/445/352 379/438/345 378/437/344
f 379/438/345 386/445/352 381/440/347
f 378/437/344 385/444/351 387/446/353
f 378/437/344 387/446/353 386/445/352
f 385/444/351 383/442/349 388/447/354
f 388/447/354 383/442/349 384/443/350
f 387/446/353 385/444/351 389/448/355
f 389/448/355 385/444/351 388/447/354
f 388/447/354 384/443/350 390/449/356
f 388/447/354 390/449/356 389/448/355
f 389/448/355 390/449/356 16/450/357
f 16/450/357 390/449/356 17/451/358
f 389/448/355 16/450/357 391/452/359
f 389/448/355 391/452/359 387/446/353
f 391/452/359 16/450/357 18/453/360
f 17/451/358 390/449/356 392/454/361
f 392/454/361 390/449/356 384/443/350
f 17/451/358 392/454/361 15/455/362
f 392/454/361 384/443/350 393/456/363
f 392/454/361 393/456/363 15/455/362
f 393/456/363 384/443/350 369/428/335
f 15/455/362 393/456/363 13/413/320
f 393/456/363 369/428/335 355/411/318
f 393/456/363 355/411/318 13/413/320
f 394/457/364 391/452/359 18/453/360
f 394/457/364 18/453/360 21/458/365
f 391/452/359 394/457/364 395/459/366
f 391/452/359 395/459/366 387/446/353
f 394/457/364 21/458/365 396/460/367
f 394/457/364 396/460/367 395/459/366
f 387/446/353 395/459/366 386/445/352
f 396/460/367 21/458/365 397/461/368
f 397/461/368 21/458/365 20/462/369
f 395/459/366 396/460/367 398/463/370
f 398/463/370 396/460/367 397/461/368
f 386/445/352 395/459/366 399/464/371
f 399/464/371 395/459/366 398/463/370
f 386/445/352 399/464/371 381/440/347
f 397/461/368 20/462/369 400/465/372
f 400/465/372 20/462/369 19/466/373
f 400/465/372 19/466/373 228/467/374
f 228/467/374 19/466/373 23/468/375
f 400/465/372 228/467/374 229/469/376
f 400/465/372 229/469/376 401/470/377
f 400/465/372 401/470/377 397/461/368
f 401/470/377 229/469/376 232/471/378
f 401/470/377 232/471/378 402/472/379
f 397/461/368 401/470/377 403/473/380
f 403/473/380 401/470/377 402/472/379
f 397/461/368 403/473/380 398/463/370
f 402/472/379 232/471/378 233/474/381
f 398/463/370 403/473/380 404/475/382
f 404/475/382 403/473/380 402/472/379
f 398/463/370 404/475/382 405/476/383
f 398/463/370 405/476/383 399/464/371
f 399/464/371 405/476/383 381/440/347
f 381/440/347 405/476/383 406/477/384
f 381/440/347 406/477/384 382/441/348
f 405/476/383 404/475/382 407/478/385
f 405/476/383 407/478/385 406/477/384
f 406/477/384 407/478/385 382/441/348
f 407/478/385 404/475/382 402/472/379
f 382/441/348 407/478/385 408/479/386
f 407/478/385 402/472/379 409/480/387
f 407/478/385 409/480/387 408/479/386
f 409/480/387 402/472/379 233/474/381
f 408/479/386 409/480/387 410/481/388
f 410/481/388 409/480/387 233/474/381
f 410/481/388 233/474/381 236/482/389
f 411/483/390 329/373/280 330/375/282
f 411/483/390 330/375/282 331/376/283
f 412/484/391 247/374/281 329/373/280
f 412/484/391 329/373/280 411/483/390
f 247/374/281 412/484/391 242/485/392
f 242/485/392 412/484/391 413/486/393
f 413/486/393 412/484/391 411/483/390
f 242/485/392 413/486/393 240/487/394
f 240/487/394 413/486/393 414/488/395
f 240/487/394 414/488/395 239/489/396
f 413/486/393 411/483/390 415/490/397
f 413/486/393 415/490/397 414/488/395
f 239/489/396 414/488/395 416/491/398
f 239/489/396 416/491/398 238/492/399
f 416/491/398 414/488/395 417/493/400
f 417/493/400 414/488/395 418/494/401
f 418/494/401 414/488/395 415/490/397
f 417/493/400 418/494/401 419/495/402
f 420/496/403 415/490/397 411/483/390
f 415/490/397 420/496/403 418/494/401
f 418/494/401 420/496/403 419/495/402
f 420/496/403 411/483/390 331/376/283
f 419/495/402 420/496/403 421/497/404
f 419/495/402 421/497/404 422/498/405
f 422/498/405 421/497/404 98/499/406
f 422/498/405 98/499/406 102/500/407
f 98/499/406 421/497/404 423/501/408
f 423/501/408 421/497/404 420/496/403
f 98/499/406 423/501/408 96/502/409
f 423/501/408 420/496/403 424/503/410
f 423/501/408 424/503/410 96/502/409
f 424/503/410 420/496/403 331/376/283
f 96/502/409 424/503/410 93/504/411
f 93/504/411 424/503/410 92/505/412
f 92/505/412 424/503/410 425/506/413
f 425/506/413 424/503/410 331/376/283
f 92/505/412 425/506/413 86/507/414
f 86/507/414 425/506/413 426/508/415
f 426/508/415 425/506/413 331/376/283
f 86/507/414 426/508/415 80/509/416
f 426/508/415 331/376/283 427/510/417
f 426/508/415 427/510/417 80/509/416
f 427/510/417 331/376/283 327/371/278
f 80/509/416 427/510/417 428/511/418
f 428/511/418 427/510/417 327/371/278
f 80/509/416 428/511/418 82/512/419
f 428/511/418 327/371/278 429/513/420
f 428/511/418 429/513/420 82/512/419
f 82/512/419 429/513/420 85/514/421
f 429/513/420 327/371/278 322/365/272
f 85/514/421 429/513/420 87/515/422
f 429/513/420 322/365/272 430/516/423
f 429/513/420 430/516/423 87/515/422
f 87/515/422 430/516/423 159/517/424
f 430/516/423 322/365/272 317/358/265
f 159/517/424 430/516/423 431/518/425
f 431/518/425 430/516/423 317/358/265
f 159/517/424 431/518/425 158/519/426
f 158/519/426 431/518/425 432/520/427
f 432/520/427 431/518/425 317/358/265
f 158/519/426 432/520/427 154/521/428
f 432/520/427 317/358/265 433/522/429
f 432/520/427 433/522/429 154/521/428
f 433/522/429 317/358/265 309/346/253
f 154/521/428 433/522/429 153/523/430
f 153/523/430 433/522/429 434/524/431
f 434/524/431 433/522/429 309/346/253
f 153/523/430 434/524/431 147/525/432
f 434/524/431 309/346/253 435/526/433
f 434/524/431 435/526/433 147/525/432
f 435/526/433 309/346/253 307/344/251
f 147/525/432 435/526/433 145/527/434
f 435/526/433 307/344/251 436/528/435
f 435/526/433 436/528/435 145/527/434
f 145/527/434 436/528/435 143/529/436
f 436/528/435 307/344/251 287/324/231
f 143/529/436 436/528/435 437/530/437
f 437/530/437 436/528/435 287/324/231
f 143/529/436 437/530/437 140/531/438
f 140/531/438 437/530/437 438/532/439
f 438/532/439 437/530/437 287/324/231
f 140/531/438 438/532/439 138/533/440
f 438/532/439 287/324/231 439/534/441
f 138/533/440 438/532/439 440/535/442
f 440/535/442 438/532/439 439/534/441
f 138/533/440 440/535/442 135/536/443
f 135/536/443 440/535/442 441/537/444
f 441/537/444 440/535/442 439/534/441
f 439/534/441 287/324/231 290/327/234
f 135/536/443 441/537/444 442/538/445
f 442/538/445 441/537/444 439/534/441
f 135/536/443 442/538/445 134/539/446
f 134/539/446 442/538/445 443/540/447
f 134/539/446 443/540/447 131/541/448
f 131/541/448 443/540/447 128/542/449
f 443/540/447 442/538/445 444/543/450
f 444/543/450 442/538/445 439/534/441
f 128/542/449 443/540/447 445/544/451
f 445/544/451 443/540/447 444/543/450
f 128/542/449 445/544/451 126/545/17
f 126/545/17 445/544/451 446/546/452
f 126/545/17 446/546/452 122/547/453
f 446/546/452 445/544/451 447/548/454
f 447/548/454 445/544/451 444/543/450
f 122/547/453 446/546/452 448/549/455
f 122/547/453 448/549/455 118/550/456
f 446/546/452 447/548/454 449/551/457
f 446/546/452 449/551/457 448/549/455
f 447/548/454 444/543/450 450/552/458
f 447/548/454 450/552/458 451/553/459
f 447/548/454 451/553/459 449/551/457
f 118/550/456 448/549/455 452/554/460
f 452/554/460 448/549/455 449/551/457
f 118/550/456 452/554/460 453/555/461
f 118/550/456 453/555/461 116/556/462
f 452/554/460 449/551/457 454/557/463
f 452/554/460 454/557/463 453/555/461
f 116/556/462 453/555/461 455/558/464
f 455/558/464 453/555/461 454/557/463
f 116/556/462 455/558/464 113/559/465
f 113/559/465 455/558/464 456/560/466
f 113/559/465 456/560/466 111/561/467
f 456/560/466 455/558/464 457/562/468
f 457/562/468 455/558/464 454/557/463
f 111/561/467 456/560/466 458/563/469
f 458/563/469 456/560/466 457/562/468
f 111/561/467 458/563/469 110/564/470
f 110/564/470 458/563/469 459/565/471
f 459/565/471 458/563/469 457/562/468
f 110/564/470 459/565/471 105/566/472
f 105/566/472 459/565/471 103/567/473
f 103/567/473 459/565/471 460/568/474
f 103/567/473 460/568/474 102/569/475
f 102/569/475 460/568/474 422/570/476
f 422/570/476 460/568/474 419/571/477
f 460/568/474 459/565/471 461/572/478
f 460/568/474 461/572/478 419/571/477
f 461/572/478 459/565/471 457/562/468
f 419/571/477 461/572/478 462/573/479
f 419/571/477 462/573/479 417/574/480
f 462/573/479 461/572/478 463/575/481
f 463/575/481 461/572/478 457/562/468
f 417/574/480 462/573/479 464/576/482
f 417/574/480 464/576/482 416/577/483
f 416/577/483 464/576/482 238/578/484
f 238/578/484 464/576/482 237/579/485
f 237/579/485 464/576/482 236/580/486
f 464/576/482 462/573/479 465/581/487
f 465/581/487 462/573/479 463/575/481
f 464/576/482 465/581/487 236/580/486
f 236/580/486 465/581/487 466/582/488
f 466/582/488 465/581/487 463/575/481
f 236/580/486 466/582/488 410/583/489
f 466/582/488 463/575/481 467/584/490
f 467/584/490 463/575/481 457/562/468
f 410/583/489 466/582/488 468/585/491
f 466/582/488 467/584/490 469/586/492
f 469/586/492 467/584/490 457/562/468
f 466/582/488 469/586/492 468/585/491
f 410/583/489 468/585/491 408/587/493
f 469/586/492 457/562/468 470/588/494
f 469/586/492 470/588/494 468/585/491
f 470/588/494 457/562/468 454/557/463
f 408/587/493 468/585/491 471/589/495
f 471/589/495 468/585/491 470/588/494
f 408/587/493 471/589/495 382/590/496
f 382/590/496 471/589/495 472/591/497
f 472/591/497 471/589/495 470/588/494
f 382/590/496 472/591/497 380/592/498
f 470/588/494 454/557/463 473/593/499
f 470/588/494 473/593/499 472/591/497
f 473/593/499 454/557/463 474/594/500
f 473/593/499 474/594/500 472/591/497
f 474/594/500 454/557/463 449/551/457
f 380/592/498 472/591/497 475/595/501
f 475/595/501 472/591/497 474/594/500
f 380/592/498 475/595/501 377/596/502
f 474/594/500 449/551/457 476/597/503
f 377/596/502 475/595/501 477/598/504
f 477/598/504 475/595/501 474/594/500
f 477/598/504 474/594/500 476/597/503
f 377/596/502 477/598/504 375/599/505
f 476/597/503 449/551/457 451/553/459
f 476/597/503 451/553/459 477/598/504
f 375/599/505 477/598/504 478/600/506
f 478/600/506 477/598/504 451/553/459
f 375/599/505 478/600/506 374/601/507
f 374/601/507 478/600/506 372/602/508
f 478/600/506 451/553/459 479/603/509
f 478/600/506 479/603/509 372/602/508
f 479/603/509 451/553/459 450/552/458
f 372/602/508 479/603/509 368/604/510
f 368/604/510 479/603/509 480/605/511
f 368/604/510 480/605/511 363/606/512
f 479/603/509 450/552/458 481/607/513
f 479/603/509 481/607/513 480/605/511
f 481/607/513 450/552/458 444/543/450
f 363/606/512 480/605/511 482/608/514
f 482/608/514 480/605/511 481/607/513
f 363/606/512 482/608/514 306/343/250
f 481/607/513 444/543/450 483/609/515
f 481/607/513 483/609/515 482/608/514
f 483/609/515 444/543/450 439/534/441
f 306/343/250 482/608/514 305/342/249
f 305/342/249 482/608/514 483/609/515
f 305/342/249 483/609/515 484/610/516
f 484/610/516 483/609/515 439/534/441
f 305/342/249 484/610/516 485/611/517
f 485/611/517 484/610/516 439/534/441
f 305/342/249 485/611/517 298/335/242
f 485/611/517 439/534/441 290/327/234
f 485/611/517 290/327/234 298/335/242
