# CS2 body mesh, tools/cs2_glb_to_obj.py
v 0.04291 0.06635 -0.23199
v 0.04291 0.03761 -0.23199
v 0.0403 0.03761 -0.23199
v 0.0403 0.06635 -0.23199
v 0.05251 0.03761 -0.205
v 0.04377 0.03848 -0.23137
v 0.05286 0.03848 -0.20602
v 0.05286 0.06548 -0.20602
v 0.04377 0.06548 -0.23137
v 0.05251 0.06635 -0.205
v 0.05166 0.03761 -0.20276
v 0.05166 0.06635 -0.20276
v 0.05096 0.06635 -0.20232
v 0.04855 0.06635 -0.20252
v 0.04753 0.06635 -0.1998
v 0.04683 0.06635 -0.19936
v 0.04442 0.06635 -0.19956
v 0.04029 0.06635 -0.1966
v 0.0427 0.06635 -0.1964
v 0.04339 0.06635 -0.19684
v 0.04855 0.03761 -0.20252
v 0.05096 0.03761 -0.20232
v 0.04442 0.03761 -0.19956
v 0.04753 0.03761 -0.1998
v 0.04683 0.03761 -0.19936
v 0.04029 0.03761 -0.1966
v 0.04339 0.03761 -0.19684
v 0.0427 0.03761 -0.1964
vt 1.646484 0.699219
vt 1.645508 0.741211
vt 1.641602 0.740723
vt 1.642578 0.699219
vt 1.686523 0.742188
vt 1.646484 0.739746
vt 1.685547 0.740723
vt 1.686523 0.70166
vt 1.647461 0.700684
vt 1.6875 0.700195
vt 1.69043 0.742188
vt 1.691406 0.700684
vt 1.69043 0.698242
vt 1.69043 0.696777
vt 1.689453 0.693848
vt 1.645508 0.695801
vt 1.692383 0.690918
vt 1.693359 0.689941
vt 1.691406 0.686523
vt 1.693359 0.679688
vt 1.695312 0.683105
vt 1.695312 0.684082
vt 1.689453 0.744141
vt 1.688477 0.748535
vt 1.689453 0.745605
vt 1.644531 0.744629
vt 1.69043 0.755859
vt 1.691406 0.751465
vt 1.691406 0.752441
vt 1.692383 0.762695
vt 1.693359 0.758301
vt 1.693359 0.759766
vt 1.701172 0.700684
vt 1.700195 0.742188
vt 1.699219 0.742188
vt 1.700195 0.700684
vt 1.696289 0.700684
vt 1.695312 0.742188
vt 1.709961 0.701172
vt 1.708984 0.742676
vt 1.708008 0.742188
vt 1.708984 0.700684
vt 1.705078 0.700684
vt 1.704102 0.742188
vt 1.692383 0.700684
vt 1.691406 0.742188
vt 1.713867 0.701172
vt 1.712891 0.742676
vn 0 -0.001 -1
vn 0 -1 0
vn 0.9441 -0.0215 -0.329
vn 0.001 1 0.001
vn 0.9285 -0.0013 0.3714
vn -0.0169 0.9999 0.001
vn 0.2281 -0.0012 0.9736
vn 0.7614 -0.0014 0.6483
vn 0.5236 0.0013 0.852
vn -0.0858 0.0011 0.9963
o release__p0_c0
f 1/1/1 2/2/1 3/3/1
f 1/1/1 3/3/1 4/4/1
f 5/5/2 2/2/2 6/6/3
f 5/5/2 6/6/3 7/7/3
f 7/7/3 6/6/3 8/8/3
f 8/8/3 6/6/3 9/9/3
f 9/9/3 6/6/3 2/2/1
f 9/9/3 2/2/1 1/1/1
f 8/8/3 9/9/3 1/1/4
f 8/8/3 1/1/4 10/10/4
f 7/7/3 8/8/3 10/10/5
f 7/7/3 10/10/5 5/5/5
f 5/5/5 10/10/5 11/11/5
f 11/11/5 10/10/5 12/12/5
f 12/13/4 10/10/4 13/14/4
f 13/14/4 10/10/4 14/15/4
f 14/15/4 10/10/4 1/1/4
f 14/15/4 1/1/4 4/16/6
f 15/17/4 14/15/4 16/18/4
f 16/18/4 14/15/4 17/19/6
f 17/19/6 14/15/4 4/16/6
f 17/19/6 4/16/6 18/20/6
f 17/19/6 18/20/6 19/21/4
f 17/19/6 19/21/4 20/22/4
f 5/5/2 11/23/2 21/24/2
f 21/24/2 11/23/2 22/25/2
f 5/5/2 21/24/2 2/2/2
f 2/2/2 21/24/2 3/26/2
f 3/26/2 21/24/2 23/27/2
f 23/27/2 21/24/2 24/28/2
f 23/27/2 24/28/2 25/29/2
f 3/26/2 23/27/2 26/30/2
f 26/30/2 23/27/2 27/31/2
f 26/30/2 27/31/2 28/32/2
f 16/33/7 25/34/7 24/35/8
f 16/33/7 24/35/8 15/36/8
f 15/36/8 24/35/8 14/37/5
f 14/37/5 24/35/8 21/38/5
f 19/39/7 28/40/7 27/41/8
f 19/39/7 27/41/8 20/42/8
f 20/42/8 27/41/8 17/43/5
f 17/43/5 27/41/8 23/44/5
f 12/12/9 13/45/7 11/11/9
f 11/11/9 13/45/7 22/46/7
f 18/47/10 26/48/10 19/39/7
f 19/39/7 26/48/10 28/40/7
f 17/43/10 23/44/10 16/33/7
f 16/33/7 23/44/10 25/34/7
f 22/46/7 13/45/7 21/38/10
f 21/38/10 13/45/7 14/37/10
