# CS2 body mesh, tools/cs2_glb_to_obj.py
v 0.00724 -0.08893 0.16178
v 0.00693 -0.08882 0.12541
v 0.00833 -0.08809 0.12304
v 0.00864 -0.08807 0.15939
v 0.00725 -0.06848 0.15888
v -0.00005 -0.06848 0.15888
v 0.00725 -0.07503 0.15981
v 0.00725 -0.06149 0.1589
v -0.00005 -0.07503 0.15981
v 0.00725 -0.08128 0.16095
v -0.00005 -0.06149 0.1589
v -0.00734 -0.07503 0.15981
v -0.00734 -0.06848 0.15888
v -0.00734 -0.06149 0.1589
v -0.00734 -0.08128 0.16095
v -0.00005 -0.05429 0.15972
v -0.00734 -0.05429 0.15972
v 0.00725 -0.05429 0.15972
v -0.00005 -0.08128 0.16095
v -0.00734 -0.08784 0.16275
v 0.00725 -0.08784 0.16275
v -0.00005 -0.08792 0.16277
v -0.00005 -0.08893 0.16199
v -0.00733 -0.08893 0.16178
v -0.00005 -0.08882 0.12541
v -0.00702 -0.08882 0.12541
v -0.00842 -0.08809 0.12304
v -0.00873 -0.08807 0.15939
v -0.00005 -0.04746 0.1615
v 0.00725 -0.04746 0.1615
v -0.00734 -0.04746 0.1615
v -0.00005 -0.04211 0.16494
v 0.00725 -0.04211 0.16494
v -0.00734 -0.04211 0.16494
v 0.00725 -0.03613 0.17212
v -0.00734 -0.03613 0.17212
v -0.00005 -0.03613 0.17212
v -0.00005 -0.03119 0.18246
v 0.00725 -0.03119 0.18246
v -0.00734 -0.03119 0.18246
v -0.00874 -0.0869 0.16069
v -0.00874 -0.08484 0.11666
v -0.00874 -0.08136 0.15935
v -0.00874 -0.08126 0.11203
v -0.00874 -0.07503 0.15821
v -0.00874 -0.075 0.10818
v -0.00874 -0.06848 0.15729
v -0.00874 -0.06844 0.1068
v -0.00874 -0.06143 0.10707
v -0.00874 -0.06149 0.15732
v -0.00874 -0.05375 0.10927
v -0.00874 -0.05427 0.15812
v -0.00874 -0.04673 0.1133
v -0.00874 -0.04744 0.15977
v -0.00874 -0.03998 0.12056
v -0.00874 -0.04133 0.16369
v -0.00874 -0.03366 0.13007
v -0.00874 -0.03048 0.14094
v -0.00874 -0.02925 0.15585
v -0.00874 -0.03549 0.17013
v -0.00874 -0.03121 0.17962
v 0.00865 -0.05427 0.15812
v 0.00865 -0.06149 0.15732
v 0.00865 -0.05375 0.10927
v 0.00865 -0.06143 0.10707
v 0.00865 -0.04673 0.1133
v 0.00865 -0.06848 0.15729
v 0.00865 -0.06844 0.1068
v 0.00865 -0.075 0.10818
v 0.00865 -0.04744 0.15977
v 0.00865 -0.03998 0.12056
v 0.00865 -0.07503 0.15821
v 0.00865 -0.08126 0.11203
v 0.00865 -0.04133 0.16369
v 0.00865 -0.03366 0.13007
v 0.00865 -0.03048 0.14094
v 0.00865 -0.02925 0.15585
v 0.00865 -0.03549 0.17013
v 0.00865 -0.03121 0.17962
v 0.00865 -0.08136 0.15935
v 0.00865 -0.08484 0.11666
v 0.00865 -0.0869 0.16069
vt 0.594238 0.754883
vt 0.630859 0.754883
vt 0.633301 0.756348
vt 0.59668 0.756836
vt 0.572754 0.754883
vt 0.572754 0.747559
vt 0.57959 0.754883
vt 0.565918 0.754883
vt 0.57959 0.747559
vt 0.585938 0.754883
vt 0.565918 0.747559
vt 0.57959 0.739746
vt 0.572754 0.739746
vt 0.565918 0.739746
vt 0.585938 0.739746
vt 0.558594 0.747559
vt 0.558594 0.739746
vt 0.558594 0.754883
vt 0.585938 0.747559
vt 0.592773 0.739746
vt 0.592773 0.754883
vt 0.592773 0.747559
vt 0.594238 0.747559
vt 0.594238 0.739746
vt 0.630859 0.747559
vt 0.630859 0.740234
vt 0.633301 0.738281
vt 0.59668 0.738281
vt 0.551758 0.747559
vt 0.551758 0.754883
vt 0.551758 0.739746
vt 0.544922 0.747559
vt 0.544922 0.754883
vt 0.544922 0.739746
vt 0.535645 0.754883
vt 0.535645 0.739746
vt 0.535645 0.747559
vt 0.524414 0.747559
vt 0.524414 0.754883
vt 0.524414 0.739746
vt 0.882324 0.687988
vt 0.883301 0.689453
vt 0.845703 0.687988
vt 0.885254 0.687012
vt 0.885742 0.688477
vt 0.839355 0.691406
vt 0.884277 0.694824
vt 0.881836 0.694824
vt 0.834473 0.694824
vt 0.883301 0.701172
vt 0.880859 0.701172
vt 0.830566 0.701172
vt 0.882324 0.708008
vt 0.879883 0.708008
vt 0.829102 0.708008
vt 0.882324 0.714844
vt 0.82959 0.714844
vt 0.879883 0.714844
vt 0.882812 0.722168
vt 0.831543 0.722656
vt 0.880859 0.722168
vt 0.884766 0.729004
vt 0.835449 0.72998
vt 0.882324 0.729004
vt 0.888184 0.733887
vt 0.842773 0.736816
vt 0.88623 0.735352
vt 0.852539 0.743164
vt 0.863281 0.746094
vt 0.89502 0.740234
vt 0.878418 0.747559
vt 0.893066 0.741211
vt 0.905762 0.744629
vt 0.902344 0.745605
vt 0.941406 0.72168
vt 0.942383 0.714355
vt 0.990723 0.722168
vt 0.992676 0.714355
vt 0.986816 0.729492
vt 0.942383 0.70752
vt 0.993164 0.70752
vt 0.939453 0.72168
vt 0.939941 0.714355
vt 0.9375 0.728516
vt 0.939941 0.70752
vt 0.991699 0.701172
vt 0.939941 0.728516
vt 0.934082 0.733887
vt 0.979492 0.736328
vt 0.941406 0.700684
vt 0.987793 0.694824
vt 0.939453 0.701172
vt 0.936035 0.734863
vt 0.969727 0.742676
vt 0.958984 0.745605
vt 0.927246 0.739746
vt 0.943848 0.74707
vt 0.929199 0.740723
vt 0.916504 0.744629
vt 0.919922 0.745117
vt 0.94043 0.694336
vt 0.937988 0.694824
vt 0.983398 0.690918
vt 0.938965 0.688965
vt 0.936523 0.687988
vt 0.976562 0.6875
vt 0.9375 0.687012
vt 0.939941 0.6875
vn 0.3875 -0.8242 0.4129
vn 0.2989 -0.9543 0
vn 0.9679 -0.2515 0
vn 0.8379 -0.538 0.0918
vn 0.4016 0.0891 0.9115
vn 0.0011 0.0858 0.9963
vn 0.4023 0.1874 0.8961
vn 0.4112 -0.0441 0.9105
vn 0.0011 0.1631 0.9866
vn 0.4089 0.214 0.8871
vn 0 -0.0502 0.9987
vn -0.4232 0.1632 0.8912
vn -0.4205 0.0667 0.9049
vn -0.429 -0.0225 0.903
vn -0.4303 0.1894 0.8826
vn 0 -0.1655 0.9862
vn -0.4215 -0.1631 0.892
vn 0.4006 -0.1872 0.8969
vn 0.0012 0.2267 0.974
vn -0.4294 -0.1926 0.8823
vn 0.4079 -0.2173 0.8868
vn 0 -0.2075 0.9782
vn 0 -0.8952 0.4456
vn -0.4173 -0.8073 0.4173
vn 0 -1 0
vn -0.3225 -0.9466 0
vn -0.9734 -0.2292 0
vn -0.8546 -0.5113 0.0912
vn 0 -0.3972 0.9177
vn 0.4078 -0.3561 0.8408
vn -0.4321 -0.3303 0.8391
vn 0 -0.6491 0.7607
vn 0.4038 -0.5909 0.6984
vn -0.4322 -0.5668 0.7014
vn 0.3679 -0.7859 0.497
vn -0.3978 -0.7679 0.5021
vn 0 -0.8354 0.5497
vn 0.191 -0.8829 0.429
vn -0.2179 -0.8732 0.4359
vn -0.928 -0.0651 0.3669
vn -1 -0.001 0
vn -0.9433 0.0858 0.3206
vn -0.9417 0.0425 0.3337
vn -0.9446 0.0215 0.3275
vn -0.9379 -0.0013 0.347
vn -0.9412 -0.0425 0.3352
vn -0.9471 -0.1074 0.3024
vn -0.9481 -0.1779 0.2635
vn -0.9494 -0.2435 0.1986
vn -0.7742 -0.5664 0.2824
vn 0.9377 -0.0644 0.3415
vn 0.9352 -0.0218 0.3536
vn 1 -0.001 0
vn 0.9417 0.0425 0.3337
vn 0.9999 -0.0169 0
vn 0.9424 -0.131 0.3078
vn 0.9383 0.0643 0.3399
vn 0.9418 -0.203 0.2679
vn 0.9417 -0.2693 0.2016
vn 0.7495 -0.598 0.2839
vn 0.9389 0.1088 0.3264
vn 0.9234 -0.088 0.3737
o trigger__p0_c0
f 1/1/1 2/2/2 3/3/3
f 1/1/1 3/3/3 4/4/4
f 5/5/5 6/6/6 7/7/7
f 6/6/6 5/5/5 8/8/8
f 7/7/7 6/6/6 9/9/9
f 7/7/7 9/9/9 10/10/10
f 6/6/6 8/8/8 11/11/11
f 9/9/9 6/6/6 12/12/12
f 12/12/12 6/6/6 13/13/13
f 13/13/13 6/6/6 14/14/14
f 14/14/14 6/6/6 11/11/11
f 9/9/9 12/12/12 15/15/15
f 14/14/14 11/11/11 16/16/16
f 16/16/16 11/11/11 8/8/8
f 14/14/14 16/16/16 17/17/17
f 16/16/16 8/8/8 18/18/18
f 9/9/9 15/15/15 19/19/19
f 9/9/9 19/19/19 10/10/10
f 19/19/19 15/15/15 20/20/20
f 10/10/10 19/19/19 21/21/21
f 19/19/19 20/20/20 22/22/22
f 19/19/19 22/22/22 21/21/21
f 22/22/22 20/20/20 23/23/23
f 22/22/22 23/23/23 21/21/21
f 21/21/21 23/23/23 1/1/1
f 23/23/23 20/20/20 24/24/24
f 1/1/1 23/23/23 25/25/25
f 25/25/25 23/23/23 24/24/24
f 1/1/1 25/25/25 2/2/2
f 25/25/25 24/24/24 26/26/26
f 26/26/26 24/24/24 27/27/27
f 27/27/27 24/24/24 28/28/28
f 29/29/29 16/16/16 18/18/18
f 16/16/16 29/29/29 17/17/17
f 29/29/29 18/18/18 30/30/30
f 17/17/17 29/29/29 31/31/31
f 29/29/29 30/30/30 32/32/32
f 29/29/29 32/32/32 31/31/31
f 32/32/32 30/30/30 33/33/33
f 31/31/31 32/32/32 34/34/34
f 32/32/32 33/33/33 35/35/35
f 34/34/34 32/32/32 36/36/36
f 32/32/32 35/35/35 37/37/37
f 32/32/32 37/37/37 36/36/36
f 37/37/37 35/35/35 38/38/23
f 37/37/37 38/38/23 36/36/36
f 38/38/23 35/35/35 39/39/38
f 36/36/36 38/38/23 40/40/39
f 28/41/28 41/42/40 27/43/27
f 41/42/40 28/41/28 24/44/24
f 41/42/40 24/44/24 20/45/20
f 27/43/27 41/42/40 42/46/41
f 41/42/40 20/45/20 15/47/15
f 42/46/41 41/42/40 43/48/42
f 43/48/42 41/42/40 15/47/15
f 42/46/41 43/48/42 44/49/41
f 43/48/42 15/47/15 12/50/12
f 44/49/41 43/48/42 45/51/43
f 45/51/43 43/48/42 12/50/12
f 44/49/41 45/51/43 46/52/41
f 45/51/43 12/50/12 13/53/13
f 46/52/41 45/51/43 47/54/44
f 47/54/44 45/51/43 13/53/13
f 46/52/41 47/54/44 48/55/41
f 47/54/44 13/53/13 14/56/14
f 48/55/41 47/54/44 49/57/41
f 47/54/44 14/56/14 50/58/45
f 47/54/44 50/58/45 49/57/41
f 50/58/45 14/56/14 17/59/17
f 49/57/41 50/58/45 51/60/41
f 50/58/45 17/59/17 52/61/46
f 50/58/45 52/61/46 51/60/41
f 52/61/46 17/59/17 31/62/31
f 51/60/41 52/61/46 53/63/41
f 52/61/46 31/62/31 54/64/47
f 52/61/46 54/64/47 53/63/41
f 54/64/47 31/62/31 34/65/34
f 53/63/41 54/64/47 55/66/41
f 54/64/47 34/65/34 56/67/48
f 54/64/47 56/67/48 55/66/41
f 55/66/41 56/67/48 57/68/41
f 57/68/41 56/67/48 58/69/41
f 56/67/48 34/65/34 36/70/36
f 58/69/41 56/67/48 59/71/41
f 56/67/48 36/70/36 60/72/49
f 56/67/48 60/72/49 59/71/41
f 60/72/49 36/70/36 40/73/39
f 59/71/41 60/72/49 61/74/50
f 61/74/50 60/72/49 40/73/39
f 62/75/51 63/76/52 64/77/53
f 64/77/53 63/76/52 65/78/53
f 62/75/51 64/77/53 66/79/53
f 65/78/53 63/76/52 67/80/54
f 65/78/53 67/80/54 68/81/53
f 63/76/52 62/75/51 18/82/18
f 63/76/52 18/82/18 8/83/8
f 63/76/52 8/83/8 67/80/54
f 18/82/18 62/75/51 30/84/30
f 67/80/54 8/83/8 5/85/5
f 68/81/53 67/80/54 69/86/55
f 30/84/30 62/75/51 70/87/56
f 70/87/56 62/75/51 66/79/53
f 30/84/30 70/87/56 33/88/33
f 70/87/56 66/79/53 71/89/53
f 69/86/55 67/80/54 72/90/57
f 72/90/57 67/80/54 5/85/5
f 69/86/55 72/90/57 73/91/55
f 72/90/57 5/85/5 7/92/7
f 70/87/56 71/89/53 74/93/58
f 70/87/56 74/93/58 33/88/33
f 74/93/58 71/89/53 75/94/53
f 74/93/58 75/94/53 76/95/55
f 33/88/33 74/93/58 35/96/35
f 74/93/58 76/95/55 77/97/53
f 35/96/35 74/93/58 78/98/59
f 78/98/59 74/93/58 77/97/53
f 35/96/35 78/98/59 39/99/38
f 78/98/59 77/97/53 79/100/60
f 78/98/59 79/100/60 39/99/38
f 80/101/61 72/90/57 7/92/7
f 72/90/57 80/101/61 73/91/55
f 80/101/61 7/92/7 10/102/10
f 73/91/55 80/101/61 81/103/55
f 80/101/61 10/102/10 82/104/62
f 80/101/61 82/104/62 81/103/55
f 82/104/62 10/102/10 21/105/21
f 81/103/55 82/104/62 3/106/3
f 82/104/62 21/105/21 1/107/1
f 3/106/3 82/104/62 4/108/4
f 4/108/4 82/104/62 1/107/1
