# CS2 body mesh, tools/cs2_glb_to_obj.py
v 0.00905 0.0302 -0.20337
v 0.00889 0.02857 -0.20255
v -0.00004 0.0302 -0.20429
v -0.00004 0.02857 -0.20344
v 0.00905 0.03831 -0.20337
v -0.00004 0.03831 -0.20429
v 0.00911 0.07262 -0.20337
v -0.00004 0.07262 -0.20429
v 0.00911 0.07498 -0.20337
v -0.00004 0.07524 -0.20429
v -0.00004 0.03831 0.3192
v 0.0216 0.03831 0.3192
v -0.00004 0.07702 0.3192
v 0.0216 0.07702 0.3192
v 0.03297 0.03534 0.3192
v 0.02156 0.03534 0.3192
v 0.02156 0.0336 0.31647
v 0.03298 0.07998 0.3192
v 0.02156 0.07998 0.3192
v 0.03297 0.0336 0.31645
v 0.02156 0.03291 0.31357
v 0.03957 0.03534 0.31919
v 0.03958 0.07998 0.31919
v 0.03957 0.0336 0.31645
v 0.03958 0.08173 0.31645
v 0.03297 0.03291 0.31355
v 0.02156 0.03291 0.31067
v 0.03957 0.03291 0.31355
v 0.03298 0.08173 0.31645
v 0.03958 0.08225 0.31355
v 0.02156 0.08173 0.31646
v 0.03297 0.03291 0.31065
v 0.03957 0.03291 0.31065
v 0.02156 0.03361 0.30777
v 0.03298 0.08225 0.31355
v 0.02156 0.08225 0.31356
v 0.03958 0.08224 0.31065
v 0.03297 0.03361 0.30776
v 0.02156 0.03534 0.30566
v 0.03957 0.03361 0.30775
v 0.03297 0.03534 0.30565
v 0.0216 0.03831 0.30535
v 0.03123 0.03831 0.30534
v 0.03957 0.03534 0.30564
v 0.03447 0.03932 0.30534
v 0.03759 0.04096 0.30534
v 0.03993 0.04313 0.30533
v 0.03298 0.08224 0.31065
v 0.03958 0.08172 0.30775
v 0.02156 0.08224 0.31066
v 0.03298 0.08172 0.30776
v 0.03958 0.07995 0.30564
v 0.02156 0.08172 0.30776
v 0.03298 0.07999 0.30565
v 0.02156 0.07999 0.30566
v 0.0376 0.07523 0.30534
v 0.03944 0.07306 0.30533
v 0.03123 0.07702 0.30534
v 0.0216 0.07702 0.30534
v -0.02168 0.03831 0.3192
v -0.02169 0.07702 0.3192
v -0.03306 0.03534 0.3192
v -0.02165 0.03534 0.3192
v -0.02165 0.0336 0.31647
v -0.03307 0.07998 0.3192
v -0.02165 0.07998 0.3192
v -0.03306 0.0336 0.31645
v -0.02165 0.03291 0.31357
v -0.03966 0.03534 0.31919
v -0.03966 0.07998 0.31919
v -0.03966 0.0336 0.31645
v -0.03966 0.08173 0.31645
v -0.03306 0.03291 0.31355
v -0.02165 0.03291 0.31067
v -0.03966 0.03291 0.31355
v -0.03307 0.08173 0.31645
v -0.03966 0.08225 0.31355
v -0.02165 0.08173 0.31646
v -0.03306 0.03291 0.31065
v -0.03966 0.03291 0.31065
v -0.02165 0.03361 0.30777
v -0.03307 0.08225 0.31355
v -0.02165 0.08225 0.31356
v -0.03966 0.08224 0.31065
v -0.03306 0.03361 0.30776
v -0.02165 0.03534 0.30566
v -0.03966 0.03361 0.30775
v -0.03307 0.08224 0.31065
v -0.03966 0.08172 0.30775
v -0.02165 0.08224 0.31066
v -0.03306 0.03534 0.30565
v -0.02168 0.03831 0.30535
v -0.03132 0.03831 0.30534
v -0.03966 0.03534 0.30564
v -0.03456 0.03932 0.30534
v -0.03767 0.04096 0.30534
v -0.04002 0.04313 0.30533
v -0.03307 0.08172 0.30776
v -0.02165 0.08172 0.30776
v -0.03966 0.07995 0.30564
v -0.03307 0.07999 0.30565
v -0.02165 0.07999 0.30566
v -0.03769 0.07523 0.30534
v -0.03953 0.07306 0.30533
v -0.03132 0.07702 0.30534
v -0.02169 0.07702 0.30534
v 0.04043 0.07164 -0.13044
v 0.04068 0.07093 -0.13113
v 0.03989 0.07316 -0.13216
v 0.03988 0.07316 -0.12984
v 0.04068 0.07093 -0.13317
v 0.04378 0.07262 -0.13892
v 0.04378 0.07473 -0.13892
v 0.04139 0.04593 -0.13191
v 0.04068 0.04615 -0.13122
v 0.03998 0.07067 -0.13044
v 0.03663 0.0694 -0.12914
v 0.03735 0.04722 -0.12993
v 0.04636 0.07262 -0.14796
v 0.04636 0.07473 -0.14796
v 0.04738 0.07473 -0.15701
v 0.04378 0.03831 -0.13892
v 0.04139 0.04593 -0.13408
v 0.04104 0.04526 -0.13102
v 0.03993 0.04313 -0.13225
v 0.04738 0.07262 -0.15701
v 0.04631 0.07262 -0.16606
v 0.04631 0.07473 -0.16606
v 0.04738 0.03831 -0.15701
v 0.04378 0.07473 -0.17511
v 0.04636 0.03831 -0.14796
v 0.04631 0.03831 -0.16606
v 0.04738 0.0302 -0.15701
v 0.04378 0.07262 -0.17511
v 0.04631 0.0302 -0.16606
v 0.04378 0.03831 -0.17511
v 0.04378 0.0302 -0.17511
v 0.04653 0.02857 -0.15701
v 0.04549 0.02857 -0.1659
v 0.04554 0.02857 -0.14813
v 0.04299 0.02857 -0.17478
v 0.04636 0.0302 -0.14796
v 0.04299 0.02857 -0.13924
v 0.03953 0.0302 -0.18278
v 0.03884 0.02857 -0.18231
v 0.04378 0.0302 -0.13892
v 0.03841 0.02857 -0.13133
v 0.03953 0.03831 -0.18278
v 0.03358 0.0302 -0.19034
v 0.03297 0.02857 -0.18973
v 0.02661 0.0302 -0.19587
v 0.02613 0.02857 -0.19522
v 0.03358 0.03831 -0.19034
v 0.03953 0.07262 -0.18278
v 0.03954 0.07473 -0.18278
v 0.03358 0.07473 -0.19034
v 0.03358 0.07262 -0.19034
v 0.02661 0.03831 -0.19587
v 0.01803 0.0302 -0.2007
v 0.01771 0.02857 -0.19991
v 0.02662 0.07262 -0.19587
v 0.02662 0.07473 -0.19587
v 0.01803 0.07473 -0.2007
v 0.01803 0.03831 -0.2007
v 0.01803 0.07262 -0.2007
v -0.01812 0.03831 -0.2007
v -0.0267 0.03831 -0.19587
v -0.01812 0.07262 -0.2007
v -0.0092 0.07262 -0.20337
v -0.01812 0.07473 -0.2007
v -0.02671 0.07262 -0.19587
v -0.02671 0.07473 -0.19587
v -0.03367 0.07473 -0.19034
v -0.0092 0.07498 -0.20337
v -0.00914 0.03831 -0.20337
v -0.00914 0.0302 -0.20337
v -0.00898 0.02857 -0.20255
v -0.0178 0.02857 -0.19991
v -0.01812 0.0302 -0.2007
v -0.02622 0.02857 -0.19522
v -0.0267 0.0302 -0.19587
v -0.03306 0.02857 -0.18973
v -0.03366 0.0302 -0.19034
v -0.03893 0.02857 -0.18231
v -0.03366 0.03831 -0.19034
v -0.03367 0.07262 -0.19034
v -0.03962 0.03831 -0.18278
v -0.03962 0.07262 -0.18278
v -0.03962 0.07473 -0.18278
v -0.04387 0.07473 -0.17511
v -0.03962 0.0302 -0.18278
v -0.04308 0.02857 -0.17478
v -0.04387 0.07262 -0.17511
v -0.04387 0.03831 -0.17511
v -0.04387 0.0302 -0.17511
v -0.04558 0.02857 -0.1659
v -0.0464 0.07262 -0.16606
v -0.0464 0.07473 -0.16606
v -0.04747 0.07473 -0.15701
v -0.0464 0.0302 -0.16606
v -0.0464 0.03831 -0.16606
v -0.04662 0.02857 -0.15701
v -0.04747 0.03831 -0.15701
v -0.04747 0.07262 -0.15701
v -0.04645 0.07262 -0.14796
v -0.04645 0.07473 -0.14796
v -0.04747 0.0302 -0.15701
v -0.04563 0.02857 -0.14813
v -0.04387 0.07473 -0.13892
v -0.04645 0.03831 -0.14796
v -0.04645 0.0302 -0.14796
v -0.04308 0.02857 -0.13924
v -0.04387 0.07262 -0.13892
v -0.04387 0.03831 -0.13892
v -0.04387 0.0302 -0.13892
v -0.0385 0.02857 -0.13133
v -0.03998 0.07316 -0.13216
v -0.03921 0.03045 -0.13093
v -0.03306 0.03067 -0.12362
v -0.0325 0.02857 -0.12418
v -0.02576 0.02857 -0.11884
v -0.03456 0.03933 -0.12541
v -0.03132 0.03831 -0.12239
v -0.03921 0.03882 -0.13115
v -0.03767 0.04096 -0.12883
v -0.04002 0.04313 -0.13225
v -0.02606 0.03064 -0.11804
v -0.02533 0.03831 -0.11755
v -0.01743 0.02857 -0.11412
v -0.01776 0.03064 -0.11333
v -0.01776 0.03831 -0.11333
v -0.00869 0.02857 -0.11158
v -0.00885 0.03831 -0.11076
v -0.00885 0.03064 -0.11076
v -0.00004 0.02857 -0.11058
v -0.00004 0.03831 -0.10973
v -0.00004 0.03064 -0.10973
v -0.04113 0.04526 -0.13102
v -0.04148 0.04593 -0.13408
v -0.04148 0.04702 -0.13191
v -0.04077 0.07093 -0.13317
v -0.04077 0.06995 -0.13113
v -0.04052 0.07164 -0.13044
v -0.03997 0.07316 -0.12984
v -0.01948 0.07702 -0.17017
v -0.03804 0.07702 -0.18062
v -0.04114 0.07702 -0.17444
v -0.03193 0.07702 -0.1877
v -0.04387 0.07702 -0.16572
v -0.02517 0.07702 -0.19296
v -0.04513 0.07702 -0.15701
v -0.04406 0.07702 -0.14826
v -0.01768 0.07702 -0.19783
v -0.0177 0.07702 -0.17356
v -0.00897 0.07702 -0.2005
v -0.00004 0.07702 -0.20143
v -0.04143 0.07702 -0.13951
v -0.04012 0.07506 -0.13253
v -0.03773 0.07702 -0.13361
v -0.03857 0.07531 -0.12766
v -0.00004 0.07593 -0.19662
v -0.01665 0.07593 -0.17082
v -0.00004 0.07702 -0.19216
v -0.01449 0.07702 -0.16977
v -0.0168 0.07593 -0.11388
v -0.01456 0.07702 -0.11297
v -0.01683 0.07593 -0.11072
v -0.01459 0.07702 -0.10968
v -0.02059 0.07593 0.29037
v -0.01835 0.07702 0.29124
v -0.0318 0.07702 -0.12686
v -0.01954 0.07702 -0.11479
v -0.03132 0.07702 -0.12257
v -0.03857 0.07472 -0.12448
v -0.03955 0.07306 0.29112
v -0.04024 0.07155 0.29111
v -0.03132 0.07702 -0.11951
v -0.01956 0.07702 -0.11206
v -0.03771 0.07521 0.29113
v -0.03953 0.07306 0.3046
v -0.03132 0.07702 0.29122
v -0.02334 0.07702 0.29123
v -0.04023 0.07155 0.3046
v -0.04055 0.06989 0.30533
v -0.03769 0.07523 0.3046
v -0.03132 0.07702 0.3046
v -0.02164 0.07702 0.3046
v -0.00004 0.07702 0.3046
v -0.00004 0.07702 0.30534
v -0.00004 0.07702 0.29125
v -0.00004 0.07702 -0.10728
v -0.00004 0.07702 -0.10973
v 0.01826 0.07702 0.29124
v 0.0205 0.07593 0.29037
v 0.0145 0.07702 -0.10968
v 0.01674 0.07593 -0.11072
v 0.01447 0.07702 -0.11297
v 0.01671 0.07593 -0.11388
v 0.0144 0.07702 -0.16977
v 0.01656 0.07593 -0.17082
v 0.04397 0.07702 -0.14826
v 0.04504 0.07702 -0.15701
v 0.01939 0.07702 -0.17017
v 0.04378 0.07702 -0.16572
v 0.04134 0.07702 -0.13951
v 0.04105 0.07702 -0.17444
v 0.03764 0.07702 -0.13361
v 0.03795 0.07702 -0.18062
v 0.03184 0.07702 -0.1877
v 0.03171 0.07702 -0.12686
v 0.02508 0.07702 -0.19296
v 0.01945 0.07702 -0.11479
v 0.01761 0.07702 -0.17356
v 0.03123 0.07702 -0.12257
v 0.03123 0.07702 -0.11951
v 0.01947 0.07702 -0.11206
v 0.03123 0.07702 0.29122
v 0.02325 0.07702 0.29123
v 0.01759 0.07702 -0.19783
v 0.03123 0.07702 0.3046
v 0.00888 0.07702 -0.2005
v 0.02155 0.07702 0.3046
v -0.04147 0.07246 0.30726
v -0.04147 0.04374 0.30718
v -0.04145 0.07873 0.31724
v -0.04148 0.04692 0.30533
v -0.04145 0.0787 0.30745
v -0.04145 0.03713 0.30737
v -0.04145 0.03713 0.31741
v -0.04144 0.03525 0.30857
v -0.04144 0.03469 0.31086
v -0.04144 0.03469 0.31334
v -0.04144 0.03526 0.31574
v -0.04145 0.08004 0.31579
v -0.04145 0.08046 0.31339
v -0.04145 0.08005 0.30854
v -0.04145 0.08046 0.31081
v 0.04136 0.03713 0.31741
v 0.04138 0.04374 0.30718
v 0.04136 0.07873 0.31724
v 0.04136 0.03526 0.31574
v 0.04136 0.03525 0.30857
v 0.04136 0.03469 0.31334
v 0.04136 0.03469 0.31086
v 0.04136 0.03713 0.30737
v 0.04139 0.04582 0.30533
v 0.04138 0.07246 0.30726
v 0.04046 0.07087 0.30533
v 0.04136 0.0787 0.30745
v 0.04136 0.08004 0.31579
v 0.04136 0.08005 0.30854
v 0.04136 0.08046 0.31339
v 0.04136 0.08046 0.31081
v -0.04112 0.04516 0.29119
v -0.03998 0.047 0.29119
v -0.04112 0.04516 0.3046
v -0.04024 0.06974 0.29111
v 0.04003 0.07506 -0.13253
v 0.03848 0.07531 -0.12766
v 0.03848 0.07472 -0.12448
v 0.03946 0.07306 0.2912
v 0.03763 0.07521 0.29121
v 0.0376 0.07523 0.3046
v 0.03944 0.07306 0.3046
v 0.04015 0.07155 0.29119
v 0.04014 0.07155 0.3046
v 0.03975 0.0706 0.3044
v 0.03977 0.0706 0.29119
v 0.03641 0.06931 0.30344
v 0.03642 0.06931 0.29119
v 0.03642 0.06861 -0.12798
v 0.03621 0.06853 0.29078
v 0.0362 0.06853 0.3027
v 0.03711 0.04798 -0.12874
v 0.03711 0.04787 0.29078
v 0.03711 0.04786 0.3027
v 0.03735 0.04709 0.30345
v 0.04067 0.04605 0.30439
v 0.03735 0.04709 0.29119
v 0.04067 0.04605 0.29119
v 0.04103 0.04516 0.29119
v 0.04103 0.04516 0.3046
v 0.03993 0.04313 -0.12949
v 0.03758 0.04096 -0.12883
v 0.03993 0.04313 0.2912
v 0.03758 0.04096 -0.12624
v 0.03447 0.03933 -0.12541
v 0.03993 0.04313 0.3046
v 0.03759 0.04096 0.2912
v 0.03447 0.03933 -0.12277
v 0.03123 0.03831 -0.12239
v 0.03123 0.03831 -0.12015
v 0.03759 0.04096 0.3046
v 0.03447 0.03932 0.29121
v 0.03123 0.03831 0.29122
v 0.03447 0.03932 0.3046
v 0.03123 0.03831 0.3046
v 0.04042 0.02721 -0.14031
v 0.03609 0.02721 -0.13275
v 0.04287 0.02721 -0.14866
v 0.03045 0.02721 -0.12615
v 0.04374 0.02721 -0.15701
v 0.03241 0.02857 -0.12418
v 0.02567 0.02857 -0.11884
v 0.02416 0.02721 -0.12111
v 0.01629 0.02721 -0.11669
v 0.01734 0.02857 -0.11412
v 0.04282 0.02721 -0.16536
v 0.04042 0.02721 -0.17371
v 0.03657 0.02721 -0.18079
v 0.03101 0.02721 -0.18776
v 0.02456 0.02721 -0.19309
v 0.01665 0.02721 -0.19734
v -0.01638 0.02721 -0.11669
v -0.02425 0.02721 -0.12111
v -0.00816 0.02721 -0.11426
v -0.00004 0.02721 -0.11336
v -0.00004 0.02721 -0.15701
v -0.03053 0.02721 -0.12615
v -0.03618 0.02721 -0.13275
v -0.04051 0.02721 -0.14031
v -0.04296 0.02721 -0.14866
v -0.04383 0.02721 -0.15701
v -0.0429 0.02721 -0.16536
v -0.04051 0.02721 -0.17371
v -0.03666 0.02721 -0.18079
v -0.0311 0.02721 -0.18776
v -0.02465 0.02721 -0.19309
v -0.01674 0.02721 -0.19734
v -0.00845 0.02721 -0.19987
v -0.00004 0.02721 -0.20066
v 0.00807 0.02721 -0.11426
v 0.0086 0.02857 -0.11158
v 0.00836 0.02721 -0.19987
v -0.04002 0.04313 -0.12949
v -0.03767 0.04096 -0.12624
v -0.04002 0.04313 0.2912
v -0.03456 0.03933 -0.12277
v -0.03767 0.04096 0.2912
v -0.04002 0.04313 0.3046
v -0.03767 0.04096 0.3046
v -0.03456 0.03932 0.3046
v -0.03456 0.03932 0.29121
v -0.03132 0.03831 -0.12015
v -0.03132 0.03831 0.29122
v -0.01779 0.03831 -0.11035
v -0.00004 0.03831 -0.10664
v -0.02155 0.03831 0.29124
v -0.00004 0.03831 0.29125
v -0.03132 0.03831 0.3046
v -0.02168 0.03831 0.3046
v -0.00004 0.03831 0.30461
v -0.00004 0.03831 0.30536
v 0.02524 0.03831 -0.11755
v 0.0177 0.03831 -0.11035
v 0.01767 0.03831 -0.11333
v 0.00876 0.03831 -0.11076
v 0.02146 0.03831 0.29124
v 0.02159 0.03831 0.3046
v 0.03913 0.03045 -0.13093
v 0.03913 0.03882 -0.13115
v 0.03297 0.03067 -0.12362
v 0.02597 0.03064 -0.11804
v 0.01767 0.03064 -0.11333
v 0.00876 0.03064 -0.11076
vt 0.357422 0.814453
vt 0.357422 0.8125
vt 0.347412 0.814453
vt 0.347412 0.812012
vt 0.357178 0.823242
vt 0.347412 0.823242
vt 0.357178 0.860352
vt 0.347412 0.860352
vt 0.357178 0.863281
vt 0.347412 0.863281
vt 0.626465 0.952148
vt 0.626465 0.975586
vt 0.668457 0.952148
vt 0.668457 0.975586
vt 0.623047 0.987793
vt 0.623047 0.975586
vt 0.619629 0.975586
vt 0.671875 0.987793
vt 0.671875 0.975586
vt 0.619629 0.987793
vt 0.616211 0.975586
vt 0.623047 0.995117
vt 0.671875 0.995117
vt 0.619629 0.995117
vt 0.675293 0.995117
vt 0.616211 0.987793
vt 0.613281 0.975586
vt 0.616211 0.995117
vt 0.675293 0.988281
vt 0.678711 0.995117
vt 0.675293 0.975586
vt 0.613281 0.987793
vt 0.613281 0.995117
vt 0.609863 0.975586
vt 0.678711 0.988281
vt 0.678711 0.975586
vt 0.681641 0.995117
vt 0.609863 0.987793
vt 0.606934 0.975586
vt 0.609863 0.995117
vt 0.606934 0.987793
vt 0.603516 0.975586
vt 0.603516 0.986328
vt 0.606934 0.995117
vt 0.602539 0.989746
vt 0.601074 0.993164
vt 0.598633 0.995605
vt 0.681641 0.988281
vt 0.685059 0.995117
vt 0.681641 0.975586
vt 0.685059 0.987793
vt 0.687988 0.995117
vt 0.68457 0.975586
vt 0.687988 0.987793
vt 0.687988 0.975586
vt 0.692871 0.993164
vt 0.695312 0.995117
vt 0.690918 0.986328
vt 0.690918 0.975586
vt 1.625977 0.952148
vt 1.667969 0.952148
vt 1.625977 0.975586
vt 1.667969 0.975586
vt 1.623047 0.987793
vt 1.623047 0.975586
vt 1.619141 0.975586
vt 1.671875 0.987793
vt 1.671875 0.975586
vt 1.619141 0.987793
vt 1.616211 0.975586
vt 1.623047 0.995117
vt 1.671875 0.995117
vt 1.619141 0.995117
vt 1.674805 0.995117
vt 1.616211 0.987793
vt 1.613281 0.975586
vt 1.616211 0.995117
vt 1.674805 0.988281
vt 1.678711 0.995117
vt 1.674805 0.975586
vt 1.613281 0.987793
vt 1.613281 0.995117
vt 1.609375 0.975586
vt 1.678711 0.988281
vt 1.678711 0.975586
vt 1.681641 0.995117
vt 1.609375 0.987793
vt 1.606445 0.975586
vt 1.609375 0.995117
vt 1.681641 0.988281
vt 1.68457 0.995117
vt 1.681641 0.975586
vt 1.606445 0.987793
vt 1.603516 0.975586
vt 1.603516 0.986328
vt 1.606445 0.995117
vt 1.602539 0.989746
vt 1.600586 0.993164
vt 1.598633 0.995605
vt 1.68457 0.987793
vt 1.68457 0.975586
vt 1.6875 0.995117
vt 1.6875 0.987793
vt 1.6875 0.975586
vt 1.692383 0.993164
vt 1.695312 0.995117
vt 1.69043 0.986328
vt 1.69043 0.975586
vt 0.455811 0.859375
vt 0.454834 0.858887
vt 0.454102 0.861328
vt 0.456543 0.86084
vt 0.452637 0.858887
vt 0.445801 0.86084
vt 0.445801 0.862793
vt 0.453857 0.831543
vt 0.454834 0.832031
vt 0.455811 0.858398
vt 0.459717 0.857422
vt 0.45874 0.833008
vt 0.435791 0.86084
vt 0.435791 0.862793
vt 0.42627 0.862793
vt 0.445557 0.823242
vt 0.451416 0.831543
vt 0.454834 0.831055
vt 0.453857 0.828125
vt 0.426025 0.86084
vt 0.416504 0.86084
vt 0.416504 0.862793
vt 0.426025 0.823242
vt 0.406738 0.862793
vt 0.435547 0.823242
vt 0.416504 0.823242
vt 0.426025 0.814453
vt 0.406738 0.86084
vt 0.416504 0.814453
vt 0.406738 0.823242
vt 0.406738 0.814453
vt 0.426025 0.8125
vt 0.416504 0.8125
vt 0.435547 0.8125
vt 0.406738 0.8125
vt 0.435547 0.814453
vt 0.445312 0.8125
vt 0.397461 0.814453
vt 0.397461 0.8125
vt 0.445312 0.814453
vt 0.455078 0.8125
vt 0.397461 0.823242
vt 0.387207 0.814453
vt 0.387207 0.8125
vt 0.37793 0.814453
vt 0.37793 0.8125
vt 0.387207 0.823242
vt 0.397461 0.860352
vt 0.397461 0.862793
vt 0.387207 0.862793
vt 0.387207 0.860352
vt 0.37793 0.823242
vt 0.367432 0.814453
vt 0.367432 0.8125
vt 0.37793 0.860352
vt 0.37793 0.862793
vt 0.367188 0.862793
vt 0.367432 0.823242
vt 0.367188 0.860352
vt 1.367188 0.823242
vt 1.37793 0.823242
vt 1.367188 0.860352
vt 1.356445 0.860352
vt 1.367188 0.862793
vt 1.37793 0.860352
vt 1.37793 0.862793
vt 1.386719 0.862793
vt 1.356445 0.863281
vt 1.34668 0.860352
vt 1.34668 0.863281
vt 1.34668 0.823242
vt 1.356445 0.823242
vt 1.34668 0.814453
vt 1.357422 0.814453
vt 1.357422 0.8125
vt 1.34668 0.812012
vt 1.367188 0.8125
vt 1.367188 0.814453
vt 1.37793 0.8125
vt 1.37793 0.814453
vt 1.386719 0.8125
vt 1.386719 0.814453
vt 1.397461 0.8125
vt 1.386719 0.823242
vt 1.386719 0.860352
vt 1.397461 0.823242
vt 1.397461 0.860352
vt 1.397461 0.862793
vt 1.40625 0.862793
vt 1.397461 0.814453
vt 1.40625 0.8125
vt 1.40625 0.86084
vt 1.40625 0.823242
vt 1.40625 0.814453
vt 1.416016 0.8125
vt 1.416016 0.86084
vt 1.416016 0.862793
vt 1.425781 0.862793
vt 1.416016 0.814453
vt 1.416016 0.823242
vt 1.425781 0.8125
vt 1.425781 0.823242
vt 1.425781 0.86084
vt 1.435547 0.86084
vt 1.435547 0.862793
vt 1.425781 0.814453
vt 1.435547 0.8125
vt 1.445312 0.862793
vt 1.435547 0.823242
vt 1.435547 0.814453
vt 1.445312 0.8125
vt 1.445312 0.86084
vt 1.445312 0.823242
vt 1.445312 0.814453
vt 1.455078 0.8125
vt 1.454102 0.861328
vt 1.455078 0.814453
vt 1.464844 0.814453
vt 1.464844 0.812012
vt 1.473633 0.812012
vt 1.462891 0.82373
vt 1.466797 0.822754
vt 1.455078 0.82373
vt 1.458008 0.825684
vt 1.453125 0.828125
vt 1.473633 0.814453
vt 1.474609 0.822754
vt 1.484375 0.8125
vt 1.484375 0.814941
vt 1.483398 0.823242
vt 1.494141 0.812988
vt 1.494141 0.82373
vt 1.494141 0.81543
vt 1.503906 0.813477
vt 1.50293 0.824219
vt 1.503906 0.815918
vt 1.454102 0.831055
vt 1.451172 0.831543
vt 1.453125 0.831543
vt 1.452148 0.858887
vt 1.454102 0.858887
vt 1.455078 0.859375
vt 1.456055 0.86084
vt 1.542969 0.89209
vt 1.554688 0.912109
vt 1.547852 0.915527
vt 1.557617 0.915039
vt 1.548828 0.919434
vt 1.5625 0.905762
vt 1.56543 0.908203
vt 1.538086 0.918457
vt 1.539062 0.922363
vt 1.568359 0.898438
vt 1.572266 0.900879
vt 1.529297 0.919922
vt 1.52832 0.92334
vt 1.518555 0.921875
vt 1.519531 0.918457
vt 1.508789 0.918945
vt 1.573242 0.890625
vt 1.577148 0.891602
vt 1.546875 0.890137
vt 1.577148 0.881348
vt 1.580078 0.881836
vt 1.578125 0.870605
vt 1.582031 0.870605
vt 1.509766 0.915527
vt 1.501953 0.914551
vt 1.500977 0.916016
vt 1.50293 0.911133
vt 1.496094 0.912598
vt 1.572266 0.870605
vt 1.543945 0.888672
vt 1.567383 0.870605
vt 1.542969 0.88623
vt 1.481445 0.888184
vt 1.480469 0.885254
vt 1.478516 0.887695
vt 1.477539 0.885254
vt 1.041992 0.893066
vt 1.040039 0.890625
vt 1.498047 0.915039
vt 1.496094 0.904785
vt 1.482422 0.891113
vt 1.491211 0.904297
vt 1.492188 0.912598
vt 1.039062 0.915039
vt 1.498047 0.916504
vt 1.039062 0.916504
vt 1.487305 0.904297
vt 1.479492 0.891113
vt 1.040039 0.912109
vt 1.024414 0.915527
vt 1.040039 0.904785
vt 1.040039 0.896484
vt 1.024414 0.91748
vt 1.023438 0.915527
vt 1.023438 0.918457
vt 1.024414 0.912109
vt 1.025391 0.912109
vt 1.024414 0.904785
vt 1.025391 0.904785
vt 1.025391 0.894043
vt 1.024414 0.894531
vt 1.025391 0.870605
vt 1.040039 0.870605
vt 1.009766 0.870605
vt 1.009766 0.894531
vt 1.474609 0.870605
vt 1.477539 0.870605
vt 0.040863 0.890625
vt 0.042023 0.893066
vt 0.477539 0.885254
vt 0.47876 0.887695
vt 0.481201 0.885254
vt 0.482178 0.888184
vt 0.542969 0.88623
vt 0.544434 0.888672
vt 0.567383 0.870605
vt 0.572754 0.870605
vt 0.519531 0.918457
vt 0.529297 0.919922
vt 0.543457 0.89209
vt 0.538574 0.918457
vt 0.509766 0.915527
vt 0.54834 0.915527
vt 0.503418 0.911133
vt 0.554688 0.912109
vt 0.5625 0.905762
vt 0.496094 0.904785
vt 0.568359 0.898438
vt 0.483154 0.891113
vt 0.547363 0.890137
vt 0.491455 0.904297
vt 0.487793 0.904297
vt 0.47998 0.891113
vt 0.040497 0.904785
vt 0.040741 0.896484
vt 0.57373 0.890625
vt 0.025848 0.904785
vt 0.577148 0.881348
vt 0.577637 0.891602
vt 0.578125 0.870605
vt 0.580566 0.881836
vt 0.582031 0.870605
vt 0.026184 0.894043
vt 0.02504 0.904785
vt 0.02536 0.894531
vt 0.02626 0.870605
vt 0.040863 0.870605
vt 0.025391 0.870605
vt 0.474854 0.870605
vt 0.010292 0.870605
vt 0.010269 0.894531
vt 0.477783 0.870605
vt 1.711914 0.981934
vt 1.743164 0.981445
vt 1.705078 0.992676
vt 1.740234 0.979492
vt 1.712891 0.979492
vt 1.744141 0.979004
vt 1.710938 0.979004
vt 1.705078 0.981934
vt 1.703125 0.979492
vt 1.701172 0.981934
vt 1.75 0.981934
vt 1.751953 0.979492
vt 1.75 0.992676
vt 1.751953 0.983398
vt 1.754883 0.981934
vt 1.75293 0.98584
vt 1.754883 0.985352
vt 1.75293 0.988281
vt 1.754883 0.98877
vt 1.751953 0.991211
vt 1.754883 0.992188
vt 1.751953 0.995117
vt 1.703125 0.995117
vt 1.703125 0.991211
vt 1.701172 0.992188
vt 1.703125 0.988281
vt 1.700195 0.98877
vt 1.703125 0.983398
vt 1.703125 0.98584
vt 1.700195 0.985352
vt 0.750488 0.992676
vt 0.743164 0.981445
vt 0.705078 0.992676
vt 0.752441 0.995117
vt 0.703613 0.995117
vt 0.752441 0.991211
vt 0.754883 0.992188
vt 0.755371 0.98877
vt 0.752441 0.983398
vt 0.75293 0.988281
vt 0.755371 0.985352
vt 0.75293 0.98584
vt 0.754883 0.981934
vt 0.752441 0.979492
vt 0.750488 0.981934
vt 0.744141 0.979004
vt 0.740723 0.979492
vt 0.711914 0.981934
vt 0.713379 0.979492
vt 0.710938 0.979004
vt 0.705078 0.981934
vt 0.703613 0.979492
vt 0.701172 0.981934
vt 0.703613 0.991211
vt 0.701172 0.992188
vt 0.703613 0.983398
vt 0.700684 0.985352
vt 0.703125 0.988281
vt 0.700684 0.98877
vt 0.703125 0.98584
vt 0.723145 0.772949
vt 0.269531 0.772949
vt 0.723145 0.774902
vt 0.269531 0.774902
vt 0.254639 0.772949
vt 0.254639 0.774902
vt 0.254639 0.799316
vt 0.269531 0.799316
vt 0.254639 0.80127
vt 0.723145 0.799316
vt 0.269531 0.80127
vt 0.723145 0.80127
vt 0.519043 0.921875
vt 0.528809 0.92334
vt 0.508789 0.918945
vt 0.539062 0.922363
vt 0.549316 0.919434
vt 0.557617 0.915039
vt 0.565918 0.908203
vt 0.572266 0.900879
vt 0.501953 0.914551
vt 0.500977 0.916016
vt 0.496582 0.912598
vt 0.498535 0.915039
vt 0.49292 0.912598
vt 0.039917 0.915039
vt 0.040192 0.912109
vt 0.498779 0.916504
vt 0.025528 0.912109
vt 0.024704 0.912109
vt 0.025238 0.915527
vt 0.024399 0.915527
vt 0.039703 0.916504
vt 0.498779 0.91748
vt 0.024994 0.91748
vt 0.023895 0.918457
vt 0.024948 0.918945
vt 0.039673 0.91748
vt 0.026962 0.920898
vt 0.039825 0.920898
vt 0.497314 0.920898
vt 0.496094 0.921387
vt 0.040253 0.921875
vt 0.027466 0.921387
vt 0.496826 0.943848
vt 0.498047 0.944824
vt 0.040161 0.943848
vt 0.027298 0.943848
vt 0.026611 0.944336
vt 0.024399 0.946289
vt 0.023224 0.946289
vt 0.039551 0.944824
vt 0.039062 0.948242
vt 0.499023 0.948242
vt 0.498535 0.949219
vt 0.038788 0.949219
vt 0.02417 0.947266
vt 0.496582 0.95166
vt 0.499756 0.95166
vt 0.49585 0.955078
vt 0.038605 0.95166
vt 0.49292 0.955078
vt 0.491943 0.958984
vt 0.024048 0.950195
vt 0.023224 0.950195
vt 0.038452 0.95459
vt 0.489014 0.958984
vt 0.488525 0.962402
vt 0.486084 0.962402
vt 0.02388 0.953613
vt 0.023071 0.953613
vt 0.03833 0.958496
vt 0.038239 0.961914
vt 0.023758 0.95752
vt 0.022949 0.95752
vt 0.023682 0.961426
vt 0.022873 0.961426
vt 0.576172 0.990234
vt 0.584961 0.985352
vt 0.574707 0.987305
vt 0.566406 0.993164
vt 0.583008 0.982422
vt 0.565918 0.989746
vt 0.590332 0.976562
vt 0.556641 0.990723
vt 0.592773 0.978516
vt 0.556641 0.994141
vt 0.598633 0.971191
vt 0.546875 0.993164
vt 0.595703 0.969727
vt 0.600586 0.960938
vt 0.603516 0.962402
vt 0.547363 0.989746
vt 0.538574 0.987305
vt 0.537109 0.990234
vt 0.528809 0.98584
vt 0.530762 0.98291
vt 0.522949 0.977051
vt 0.520996 0.979492
vt 0.514648 0.97168
vt 0.517578 0.969727
vt 0.512695 0.961426
vt 0.509766 0.962402
vt 1.603516 0.962402
vt 1.598633 0.971191
vt 1.600586 0.960938
vt 1.606445 0.952637
vt 1.595703 0.969727
vt 1.602539 0.952148
vt 1.603516 0.943359
vt 1.607422 0.943359
vt 1.556641 0.943359
vt 1.589844 0.976562
vt 1.592773 0.978516
vt 1.584961 0.985352
vt 1.583008 0.982422
vt 1.574219 0.987305
vt 1.576172 0.990234
vt 1.566406 0.993164
vt 1.56543 0.989746
vt 1.556641 0.990723
vt 1.556641 0.994141
vt 1.546875 0.993164
vt 1.546875 0.989746
vt 1.538086 0.987305
vt 1.537109 0.990234
vt 1.52832 0.98584
vt 1.530273 0.98291
vt 1.522461 0.977051
vt 1.520508 0.979492
vt 1.514648 0.97168
vt 1.517578 0.969727
vt 1.512695 0.961426
vt 1.509766 0.962402
vt 1.506836 0.953125
vt 1.509766 0.952148
vt 1.508789 0.943359
vt 1.505859 0.943359
vt 0.556641 0.943359
vt 0.603027 0.952148
vt 0.606445 0.952637
vt 0.604004 0.943359
vt 0.607422 0.943359
vt 0.509766 0.952148
vt 0.509277 0.943359
vt 0.506836 0.953125
vt 0.505859 0.943359
vt 1.496094 0.95166
vt 1.492188 0.955078
vt 1.038086 0.95166
vt 1.498047 0.949219
vt 1.499023 0.95166
vt 1.495117 0.955078
vt 1.038086 0.949219
vt 1.491211 0.958984
vt 1.023438 0.947266
vt 1.488281 0.958984
vt 1.488281 0.962402
vt 1.038086 0.95459
vt 1.023438 0.950195
vt 1.022461 0.946289
vt 1.022461 0.950195
vt 1.023438 0.953613
vt 1.022461 0.953613
vt 1.023438 0.95752
vt 1.022461 0.95752
vt 1.038086 0.958496
vt 1.022461 0.961426
vt 1.485352 0.962402
vt 1.483398 0.969238
vt 1.038086 0.961914
vt 1.474609 0.977539
vt 1.478516 0.977539
vt 1.475586 0.986816
vt 1.470703 0.996094
vt 1.474609 0.996094
vt 1.038086 0.972656
vt 1.037109 0.996094
vt 1.023438 0.961426
vt 1.023438 0.972168
vt 1.022461 0.996094
vt 1.022461 0.972168
vt 1.006836 0.972168
vt 1.006836 0.996094
vt 0.007427 0.972168
vt 0.022552 0.972168
vt 0.007378 0.96875
vt 0.02211 0.96875
vt 0.010307 0.966797
vt 0.019775 0.966797
vt 0.016602 0.966309
vt 0.013443 0.966309
vt 0.483398 0.969238
vt 0.475342 0.977539
vt 0.47876 0.977539
vt 0.47583 0.986816
vt 0.471191 0.996094
vt 0.474609 0.996094
vt 0.038086 0.972656
vt 0.037994 0.996094
vt 0.023453 0.972168
vt 0.023361 0.996094
vt 0.022537 0.996094
vt 0.007462 0.996094
vt 0.6875 0.970215
vt 0.672363 0.970215
vt 0.687012 0.973633
vt 0.672363 0.973633
vt 1.012695 0.966309
vt 1.016602 0.966309
vt 1.009766 0.966797
vt 1.019531 0.966797
vt 1.021484 0.96875
vt 1.006836 0.96875
vt 1.686523 0.973633
vt 1.671875 0.973633
vt 1.671875 0.970215
vt 1.6875 0.970215
vt 0.499756 0.916992
vt 0.455078 0.814453
vt 0.455078 0.82373
vt 0.458008 0.825684
vt 0.462891 0.82373
vt 0.465088 0.814453
vt 0.465088 0.812012
vt 0.467041 0.822754
vt 0.474121 0.812012
vt 0.474365 0.814453
vt 0.475098 0.822754
vt 0.484619 0.8125
vt 0.484619 0.814941
vt 0.484131 0.823242
vt 0.494385 0.812988
vt 0.494141 0.82373
vt 0.494385 0.81543
vt 0.503906 0.813477
vt 0.503906 0.815918
vt 0.503418 0.824219
vn 0.1766 -0.2648 -0.948
vn 0.1222 -0.726 -0.6768
vn -0.0192 -0.2335 -0.9722
vn -0.0225 -0.7062 -0.7076
vn 0.1885 -0.0198 -0.9819
vn 0 -0.0169 -0.9999
vn 0.1649 0.451 -0.8772
vn 0.0013 0.4477 -0.8942
vn 0 -0.6953 0.7188
vn 0 -0.2974 0.9547
vn 0.001 0.0149 0.9999
vn 0 -0.4724 0.8814
vn 0 -0.9184 0.3956
vn 0.0013 0.4983 0.867
vn 0 -0.9922 0.1244
vn 0.3648 -0.4656 0.8063
vn 0.3633 0.4689 0.805
vn 0.3833 -0.8404 0.3833
vn 0.3717 0.8704 0.3228
vn -0.0175 -0.9941 -0.1072
vn 0.3544 -0.9284 0.1118
vn 0.0013 0.9373 0.3485
vn 0.3685 0.9273 0.0652
vn 0.3473 -0.9338 -0.0855
vn -0.0212 -0.9033 -0.4285
vn 0.0011 0.9963 0.0858
vn 0.3753 0.9227 -0.0881
vn -0.0216 -0.4813 -0.8763
vn 0.3875 -0.8242 -0.4129
vn 0 -0.4724 -0.8814
vn -0.02 -0.9523 -0.3045
vn 0.0939 -0.7178 -0.6899
vn 0.3648 -0.4656 -0.8063
vn 0.2571 -0.6713 -0.6951
vn 0.3752 -0.6139 -0.6945
vn 0.8079 -0.4408 -0.3911
vn -0.0186 0.9942 -0.1061
vn 0.3558 0.8418 -0.406
vn 0.0013 0.9063 -0.4226
vn 0.3563 0.4097 -0.8398
vn -0.0225 0.9023 -0.4306
vn -0.0227 0.4562 -0.8896
vn 0.3411 0.5513 -0.7614
vn 0.805 0.3633 -0.4689
vn 0.071 0.7053 -0.7053
vn -0.0239 0.729 -0.6841
vn -0.0197 -0.2794 0.96
vn -0.0159 -0.001 0.9999
vn -0.0214 -0.4556 0.8899
vn -0.0209 -0.9149 0.4031
vn -0.0229 0.4818 0.876
vn -0.0178 -0.9918 0.1266
vn -0.3911 -0.4408 0.8079
vn -0.3897 0.4442 0.8067
vn -0.4129 -0.8242 0.3875
vn -0.4009 0.8559 0.3266
vn 0 -0.9944 -0.1054
vn -0.3809 -0.9177 0.1132
vn -0.0218 0.9346 0.3551
vn -0.3944 0.9166 0.066
vn -0.3733 -0.9237 -0.0866
vn 0 -0.9073 -0.4205
vn -0.0183 0.996 0.0872
vn -0.4016 0.9115 -0.0891
vn 0 -0.4977 -0.8673
vn -0.4173 -0.8073 -0.4173
vn 0.0011 0.9945 -0.1043
vn -0.3854 0.8263 -0.4108
vn -0.0214 -0.4556 -0.8899
vn 0 -0.9543 -0.2989
vn -0.1223 -0.7025 -0.7011
vn -0.3911 -0.4408 -0.8079
vn -0.2853 -0.6524 -0.7021
vn -0.4038 -0.5909 -0.6984
vn -0.8561 -0.3769 -0.3536
vn -0.3817 0.3848 -0.8404
vn -0.0225 0.4306 -0.9023
vn 0.0013 0.473 -0.8811
vn -0.3687 0.5279 -0.7651
vn -0.8535 0.2979 -0.4275
vn -0.0955 0.692 -0.7155
vn 0.0014 0.7395 -0.6732
vn 0.9291 0.3699 0.0013
vn 0.974 0.2267 0.0012
vn 0.9421 0.2 0.269
vn 0.8896 0.4562 0.0227
vn 0.9554 0.1059 0.2758
vn 0.9251 0.0194 0.3791
vn 0.8381 0.4339 0.3305
vn 0.96 -0.2794 0.0197
vn 0.3536 -0.0218 0.9352
vn 0.9785 -0.0012 0.2064
vn 0.8912 0.4232 0.1632
vn 0.926 0.3769 -0.022
vn 0.9147 -0.0223 0.4036
vn 0.9428 -0.0858 0.3222
vn 0.8814 -0.4724 0
vn 0.6778 0.4636 0.5707
vn 0.8944 -0.2907 0.3399
vn 0.9999 -0.0169 0
vn 0.9819 -0.0198 -0.1885
vn 0.8961 0.4023 -0.1874
vn 0.8398 0.4097 -0.3563
vn 0.9679 -0.2515 0
vn 0.9254 -0.022 -0.3784
vn 0.948 -0.2648 -0.1766
vn 0.8929 -0.2664 -0.3631
vn 0.6967 -0.7174 0
vn 0.6768 -0.726 -0.1222
vn 0.6863 -0.712 0.1482
vn 0.6435 -0.7211 -0.2568
vn 0.9494 -0.2435 0.1986
vn 0.6508 -0.7036 0.2853
vn 0.8089 -0.2504 -0.532
vn 0.5877 -0.7173 -0.3743
vn 0.8868 -0.2173 0.4079
vn 0.5968 -0.6752 0.4335
vn 0.828 -0.0235 -0.5603
vn 0.6956 -0.2589 -0.6702
vn 0.4845 -0.7284 -0.4845
vn 0.5293 -0.2538 -0.8096
vn 0.3743 -0.7173 -0.5877
vn 0.707 -0.021 -0.707
vn 0.7463 0.3986 -0.5331
vn 0.6229 0.4359 -0.6496
vn 0.5603 -0.0235 -0.828
vn 0.3631 -0.2664 -0.8929
vn 0.2568 -0.7211 -0.6435
vn 0.4827 0.453 -0.7495
vn 0.3305 0.4339 -0.8381
vn 0.3784 -0.022 -0.9254
vn -0.3961 -0.0013 -0.9182
vn -0.5753 -0.0014 -0.8179
vn -0.2064 -0.0012 -0.9785
vn -0.3563 0.4097 -0.8398
vn -0.5083 0.426 -0.7484
vn -0.6459 0.4068 -0.6459
vn -0.1894 0.4303 -0.8826
vn -0.1986 -0.2435 -0.9494
vn -0.1482 -0.712 -0.6863
vn -0.2853 -0.7036 -0.6508
vn -0.3858 -0.2419 -0.8903
vn -0.4039 -0.6969 -0.5926
vn -0.5527 -0.2238 -0.8028
vn -0.514 -0.7059 -0.4873
vn -0.7127 -0.2308 -0.6624
vn -0.6156 -0.693 -0.3753
vn -0.7181 0.0014 -0.696
vn -0.836 0.0014 -0.5487
vn -0.7651 0.3687 -0.5279
vn -0.857 0.3766 -0.3518
vn -0.8219 -0.2223 -0.5244
vn -0.6697 -0.6967 -0.2571
vn -0.9285 -0.0013 -0.3714
vn -0.904 -0.2355 -0.3569
vn -0.7011 -0.7025 -0.1223
vn -0.9827 -0.0011 -0.1851
vn -0.9085 0.3746 -0.1851
vn -0.9357 0.352 -0.0218
vn -0.9552 -0.2395 -0.1739
vn -0.7188 -0.6953 0
vn -1 -0.001 0
vn -0.9791 0.0176 0.2028
vn -0.9041 0.3956 0.1614
vn -0.9734 -0.2292 0
vn -0.7105 -0.6879 0.1482
vn -0.8559 0.4009 0.3266
vn -0.9561 -0.2183 0.1955
vn -0.6769 -0.6785 0.2855
vn -0.9285 -0.0013 0.3714
vn -0.9182 -0.0013 0.3961
vn -0.8969 -0.1872 0.4006
vn -0.6244 -0.6494 0.4341
vn -0.9537 0.1507 0.2601
vn -0.8081 -0.1704 0.5639
vn -0.6869 -0.1498 0.7111
vn -0.5472 -0.6333 0.5472
vn -0.4341 -0.6494 0.6244
vn -0.7249 -0.5379 0.4303
vn -0.6056 -0.5769 0.5481
vn -0.8179 -0.0014 0.5753
vn -0.8063 -0.4656 0.3648
vn -0.9152 -0.2324 0.3291
vn -0.5551 -0.144 0.8192
vn -0.4039 -0.6969 0.5926
vn -0.3137 -0.6323 0.7083
vn -0.3939 -0.1613 0.9049
vn -0.2853 -0.7036 0.6508
vn -0.148 -0.6598 0.7368
vn -0.1482 -0.712 0.6863
vn -0.2098 -0.149 0.9663
vn -0.0224 -0.6359 0.7715
vn 0 -0.7174 0.6967
vn 0 -0.1862 0.9825
vn -0.9817 -0.1896 0.0186
vn -0.9428 -0.0858 0.3222
vn -0.9997 -0.0172 0.0162
vn -0.959 0.0834 0.2709
vn -0.9963 0.0858 0.0011
vn -0.974 0.2267 0.0012
vn -0.9023 0.4306 0.0225
vn 0.001 1 0.001
vn -0.7857 0.4985 0.3662
vn -0.6272 0.7695 0.1201
vn 0.0012 0.9678 -0.2518
vn -0.4161 0.8988 -0.1377
vn -0.4088 0.9056 -0.113
vn -0.4562 0.8896 -0.0227
vn -0.0169 0.9999 0.001
vn -0.5871 0.8092 0.0236
vn -0.852 0.5236 0.0013
vn -0.9778 0.2088 -0.0201
vn -0.5487 0.836 0.0014
vn -0.8549 0.5168 0.0457
vn -0.1455 0.9892 -0.0192
vn -0.9549 0.2902 0.0626
vn -0.9787 0.0591 -0.1967
vn 0.4306 0.9023 -0.0225
vn 0.3821 0.9173 -0.1117
vn 0.3889 0.9112 -0.1362
vn 0.1255 0.9919 -0.0189
vn -0.9446 0.0215 -0.3275
vn -0.9619 -0.0592 -0.2669
vn -0.9164 0.1624 0.3657
vn -0.989 -0.0192 -0.1468
vn -0.9112 0.1362 -0.3889
vn -0.9231 -0.1344 -0.3604
vn -0.918 -0.1117 0.3804
vn -0.9129 -0.3499 -0.2102
vn -0.9212 -0.3867 -0.0422
vn -0.9276 -0.3681 0.0638
vn -0.9207 -0.3442 0.1841
vn -0.9159 0.3683 0.1595
vn -0.9154 0.402 0.0223
vn -0.9124 0.3502 -0.2119
vn -0.9223 0.384 -0.0435
vn 0.9119 -0.1361 0.3872
vn 0.9622 -0.1071 -0.2502
vn 0.909 0.1881 0.3719
vn 0.9095 -0.3715 0.1865
vn 0.9011 -0.3777 -0.2129
vn 0.9169 -0.3939 0.0645
vn 0.91 -0.4123 -0.0427
vn 0.9166 -0.1593 -0.3666
vn 0.9494 -0.1999 -0.2421
vn 0.947 0.0635 -0.3148
vn 0.9231 0.2091 -0.3229
vn 0.9041 0.1614 -0.3956
vn 0.9041 0.3956 0.1614
vn 0.9006 0.378 -0.2146
vn 0.9038 0.4274 0.0225
vn 0.9112 0.4096 -0.044
vn -0.3729 0.9279 0.0013
vn -0.3821 0.9173 0.1117
vn -0.378 0.9006 0.2146
vn -0.0204 0.9721 0.2337
vn 0.3502 0.9124 0.2119
vn 0.3524 0.9293 0.1102
vn 0.3485 0.9373 0.0013
vn -0.9897 -0.1428 0
vn -0.9954 0.0887 -0.0361
vn -0.9742 -0.2011 0.1024
vn -0.9993 0.0154 -0.0338
vn 0.7651 0.5279 0.3687
vn 0.5978 0.7927 0.1196
vn 0.5587 0.8291 0.0235
vn 0.836 0.5487 0.0014
vn 0.5236 0.852 0.0013
vn 0.9078 0.4195 0.0013
vn 0.3532 -0.9353 0.0205
vn 0.3466 -0.938 0
vn 0.9988 0.0481 -0.001
vn 0.2978 0.9546 0.0012
vn 0.2565 0.0207 -0.9663
vn 0.8673 -0.4977 0
vn 0.7805 -0.6252 0
vn 0.7871 -0.4952 0.3678
vn 0.5746 -0.8184 0
vn 0.7014 -0.5668 0.4322
vn 0.7955 0.2008 -0.5717
vn 0.371 -0.9287 0
vn 0.5752 -0.6073 0.5481
vn 0.1441 -0.9896 0
vn 0.2025 -0.9739 0.1025
vn 0.1859 -0.9718 0.1452
vn 0.2176 -0.9743 0.0587
vn 0.1684 -0.9674 0.1891
vn 0.2279 -0.9737 0
vn 0.5186 -0.6584 0.5455
vn 0.4047 -0.6718 0.6204
vn 0.1247 -0.9706 0.2061
vn 0.0796 -0.9719 0.2215
vn 0.2853 -0.6524 0.7021
vn 0.2137 -0.9761 -0.0384
vn 0.1986 -0.9769 -0.0784
vn 0.1828 -0.9755 -0.1227
vn 0.1656 -0.9722 -0.1656
vn 0.1227 -0.9755 -0.1828
vn 0.0784 -0.9769 -0.1986
vn -0.1041 -0.9686 0.226
vn -0.1475 -0.9666 0.2096
vn -0.0595 -0.9688 0.2406
vn -0.0194 -0.9661 0.2576
vn 0 -1 0
vn -0.1922 -0.9623 0.1922
vn -0.2096 -0.9666 0.1475
vn -0.226 -0.9686 0.1041
vn -0.2406 -0.9688 0.0595
vn -0.2529 -0.9675 0
vn -0.2363 -0.9709 -0.039
vn -0.2215 -0.9719 -0.0796
vn -0.2061 -0.9706 -0.1247
vn -0.1891 -0.9674 -0.1684
vn -0.1452 -0.9718 -0.1859
vn -0.1025 -0.9739 -0.2025
vn -0.0587 -0.9743 -0.2176
vn -0.0191 -0.9725 -0.2321
vn 0.039 -0.9709 0.2363
vn 0.1222 -0.6752 0.7274
vn 0.0384 -0.9761 -0.2137
vn -0.7993 -0.6009 0
vn -0.5993 -0.8005 0
vn -0.3956 -0.9184 0
vn -0.811 -0.5811 0.0685
vn -0.1642 -0.9864 0
vn -0.0159 -0.9999 0
vn -0.9998 -0.0151 -0.0161
vn 0.3743 -0.7173 0.5877
vn 0.2568 -0.7211 0.6435
vn 0.1222 -0.726 0.6768
vn 0.9999 0.0149 -0.001
vn 0.0014 0.5985 -0.8011
vn -0.0236 0.584 -0.8114
vn 0.7141 -0.344 0.6097
vn 0.7959 -0.1974 0.5724
vn 0.8103 -0.0236 0.5855
vn 0.6711 -0.1762 0.7201
vn 0.5363 -0.1693 0.8269
vn 0.3729 -0.185 0.9092
vn 0.1893 -0.1698 0.9671
o clip__p0_c0
f 1/1/1 2/2/2 3/3/3
f 3/3/3 2/2/2 4/4/4
f 1/1/1 3/3/3 5/5/5
f 5/5/5 3/3/3 6/6/6
f 5/5/5 6/6/6 7/7/5
f 7/7/5 6/6/6 8/8/6
f 7/7/5 8/8/6 9/9/7
f 9/9/7 8/8/6 10/10/8
f 11/11/9 12/12/10 13/13/11
f 13/13/11 12/12/10 14/14/11
f 14/14/11 12/12/10 15/15/12
f 15/15/12 12/12/10 16/16/12
f 15/15/12 16/16/12 17/17/13
f 14/14/11 15/15/12 18/18/14
f 14/14/11 18/18/14 19/19/14
f 15/15/12 17/17/13 20/20/13
f 20/20/13 17/17/13 21/21/15
f 15/15/12 20/20/13 22/22/16
f 15/15/12 22/22/16 18/18/14
f 18/18/14 22/22/16 23/23/17
f 22/22/16 20/20/13 24/24/18
f 18/18/14 23/23/17 25/25/19
f 20/20/13 21/21/15 26/26/15
f 20/20/13 26/26/15 24/24/18
f 26/26/15 21/21/15 27/27/20
f 24/24/18 26/26/15 28/28/21
f 18/18/14 25/25/19 29/29/22
f 18/18/14 29/29/22 19/19/14
f 29/29/22 25/25/19 30/30/23
f 19/19/14 29/29/22 31/31/22
f 28/28/21 26/26/15 32/32/20
f 32/32/20 26/26/15 27/27/20
f 28/28/21 32/32/20 33/33/24
f 32/32/20 27/27/20 34/34/25
f 31/31/22 29/29/22 35/35/26
f 35/35/26 29/29/22 30/30/23
f 31/31/22 35/35/26 36/36/26
f 35/35/26 30/30/23 37/37/27
f 32/32/20 34/34/25 38/38/25
f 32/32/20 38/38/25 33/33/24
f 38/38/25 34/34/25 39/39/28
f 33/33/24 38/38/25 40/40/29
f 38/38/25 39/39/28 41/41/30
f 38/38/25 41/41/30 40/40/29
f 41/41/30 39/39/28 42/42/31
f 41/41/30 42/42/31 43/43/32
f 40/40/29 41/41/30 44/44/33
f 41/41/30 43/43/32 45/45/34
f 41/41/30 45/45/34 44/44/33
f 44/44/33 45/45/34 46/46/35
f 44/44/33 46/46/35 47/47/36
f 48/48/37 35/35/26 37/37/27
f 35/35/26 48/48/37 36/36/26
f 48/48/37 37/37/27 49/49/38
f 36/36/26 48/48/37 50/50/37
f 48/48/37 49/49/38 51/51/39
f 48/48/37 51/51/39 50/50/37
f 51/51/39 49/49/38 52/52/40
f 50/50/37 51/51/39 53/53/41
f 53/53/41 51/51/39 54/54/8
f 54/54/8 51/51/39 52/52/40
f 53/53/41 54/54/8 55/55/42
f 54/54/8 52/52/40 56/56/43
f 56/56/43 52/52/40 57/57/44
f 54/54/8 56/56/43 58/58/45
f 54/54/8 58/58/45 55/55/42
f 55/55/42 58/58/45 59/59/46
f 11/60/9 13/61/11 60/62/47
f 60/62/47 13/61/11 61/63/48
f 60/62/47 61/63/48 62/64/49
f 60/62/47 62/64/49 63/65/49
f 63/65/49 62/64/49 64/66/50
f 62/64/49 61/63/48 65/67/51
f 65/67/51 61/63/48 66/68/51
f 64/66/50 62/64/49 67/69/50
f 64/66/50 67/69/50 68/70/52
f 67/69/50 62/64/49 69/71/53
f 69/71/53 62/64/49 65/67/51
f 69/71/53 65/67/51 70/72/54
f 67/69/50 69/71/53 71/73/55
f 70/72/54 65/67/51 72/74/56
f 68/70/52 67/69/50 73/75/52
f 73/75/52 67/69/50 71/73/55
f 68/70/52 73/75/52 74/76/57
f 73/75/52 71/73/55 75/77/58
f 72/74/56 65/67/51 76/78/59
f 76/78/59 65/67/51 66/68/51
f 72/74/56 76/78/59 77/79/60
f 76/78/59 66/68/51 78/80/59
f 73/75/52 75/77/58 79/81/57
f 73/75/52 79/81/57 74/76/57
f 79/81/57 75/77/58 80/82/61
f 74/76/57 79/81/57 81/83/62
f 76/78/59 78/80/59 82/84/63
f 76/78/59 82/84/63 77/79/60
f 82/84/63 78/80/59 83/85/63
f 77/79/60 82/84/63 84/86/64
f 81/83/62 79/81/57 85/87/62
f 85/87/62 79/81/57 80/82/61
f 81/83/62 85/87/62 86/88/65
f 85/87/62 80/82/61 87/89/66
f 84/86/64 82/84/63 88/90/67
f 88/90/67 82/84/63 83/85/63
f 84/86/64 88/90/67 89/91/68
f 88/90/67 83/85/63 90/92/67
f 85/87/62 87/89/66 91/93/69
f 85/87/62 91/93/69 86/88/65
f 86/88/65 91/93/69 92/94/70
f 92/94/70 91/93/69 93/95/71
f 91/93/69 87/89/66 94/96/72
f 93/95/71 91/93/69 95/97/73
f 95/97/73 91/93/69 94/96/72
f 95/97/73 94/96/72 96/98/74
f 96/98/74 94/96/72 97/99/75
f 98/100/41 88/90/67 90/92/67
f 88/90/67 98/100/41 89/91/68
f 98/100/41 90/92/67 99/101/39
f 89/91/68 98/100/41 100/102/76
f 98/100/41 99/101/39 101/103/77
f 98/100/41 101/103/77 100/102/76
f 101/103/77 99/101/39 102/104/78
f 100/102/76 101/103/77 103/105/79
f 100/102/76 103/105/79 104/106/80
f 103/105/79 101/103/77 105/107/81
f 105/107/81 101/103/77 102/104/78
f 105/107/81 102/104/78 106/108/82
f 107/109/83 108/110/84 109/111/85
f 107/109/83 109/111/85 110/112/86
f 109/111/85 108/110/84 111/113/87
f 109/111/85 111/113/87 112/114/88
f 109/111/85 112/114/88 113/115/89
f 111/113/87 108/110/84 114/116/90
f 114/116/90 108/110/84 115/117/91
f 115/117/91 108/110/84 116/118/91
f 115/117/91 116/118/91 117/119/91
f 115/117/91 117/119/91 118/120/91
f 113/115/89 112/114/88 119/121/92
f 113/115/89 119/121/92 120/122/93
f 120/122/93 119/121/92 121/123/94
f 122/124/95 112/114/88 111/113/87
f 112/114/88 122/124/95 119/121/92
f 123/125/96 111/113/87 114/116/90
f 111/113/87 123/125/96 122/124/95
f 123/125/96 114/116/90 124/126/97
f 124/126/97 114/116/90 115/117/98
f 123/125/96 124/126/97 125/127/99
f 123/125/96 125/127/99 122/124/95
f 126/128/100 121/123/94 119/121/92
f 121/123/94 126/128/100 127/129/101
f 121/123/94 127/129/101 128/130/102
f 126/128/100 119/121/92 129/131/100
f 126/128/100 129/131/100 127/129/101
f 128/130/102 127/129/101 130/132/103
f 129/131/100 119/121/92 131/133/92
f 131/133/92 119/121/92 122/124/95
f 127/129/101 129/131/100 132/134/101
f 129/131/100 131/133/92 133/135/104
f 130/132/103 127/129/101 134/136/105
f 132/134/101 129/131/100 135/137/106
f 135/137/106 129/131/100 133/135/104
f 127/129/101 132/134/101 136/138/105
f 127/129/101 136/138/105 134/136/105
f 132/134/101 135/137/106 137/139/107
f 132/134/101 137/139/107 136/138/105
f 135/137/106 133/135/104 138/140/108
f 135/137/106 138/140/108 139/141/109
f 135/137/106 139/141/109 137/139/107
f 138/140/108 133/135/104 140/142/110
f 137/139/107 139/141/109 141/143/111
f 140/142/110 133/135/104 142/144/112
f 142/144/112 133/135/104 131/133/92
f 140/142/110 142/144/112 143/145/113
f 142/144/112 131/133/92 122/124/95
f 137/139/107 141/143/111 144/146/114
f 137/139/107 144/146/114 136/138/105
f 144/146/114 141/143/111 145/147/115
f 143/145/113 142/144/112 146/148/116
f 146/148/116 142/144/112 122/124/95
f 143/145/113 146/148/116 147/149/117
f 136/138/105 144/146/114 148/150/118
f 144/146/114 145/147/115 149/151/119
f 144/146/114 149/151/119 148/150/118
f 149/151/119 145/147/115 150/152/120
f 136/138/105 148/150/118 134/136/105
f 149/151/119 150/152/120 151/153/121
f 151/153/121 150/152/120 152/154/122
f 148/150/118 149/151/119 153/155/123
f 153/155/123 149/151/119 151/153/121
f 134/136/105 148/150/118 154/156/118
f 134/136/105 154/156/118 130/132/103
f 130/132/103 154/156/118 155/157/124
f 155/157/124 154/156/118 156/158/125
f 154/156/118 148/150/118 157/159/123
f 157/159/123 148/150/118 153/155/123
f 154/156/118 157/159/123 156/158/125
f 153/155/123 151/153/121 158/160/126
f 153/155/123 158/160/126 157/159/123
f 159/161/127 151/153/121 152/154/122
f 151/153/121 159/161/127 158/160/126
f 159/161/127 152/154/122 160/162/128
f 156/158/125 157/159/123 161/163/126
f 161/163/126 157/159/123 158/160/126
f 156/158/125 161/163/126 162/164/129
f 162/164/129 161/163/126 163/165/130
f 159/161/127 160/162/128 1/1/1
f 1/1/1 160/162/128 2/2/2
f 159/161/127 1/1/1 164/166/131
f 159/161/127 164/166/131 158/160/126
f 164/166/131 1/1/1 5/5/5
f 164/166/131 5/5/5 7/7/5
f 9/9/7 163/165/130 7/7/5
f 158/160/126 164/166/131 165/167/131
f 165/167/131 164/166/131 7/7/5
f 165/167/131 7/7/5 163/165/130
f 158/160/126 165/167/131 161/163/126
f 161/163/126 165/167/131 163/165/130
f 166/168/132 167/169/133 168/170/132
f 166/168/132 168/170/132 169/171/134
f 169/171/134 168/170/132 170/172/135
f 170/172/135 168/170/132 171/173/133
f 171/173/133 168/170/132 167/169/133
f 170/172/135 171/173/133 172/174/136
f 172/174/136 171/173/133 173/175/137
f 169/171/134 170/172/135 174/176/138
f 169/171/134 174/176/138 8/177/6
f 8/177/6 174/176/138 10/178/8
f 169/171/134 8/177/6 6/179/6
f 169/171/134 6/179/6 175/180/134
f 169/171/134 175/180/134 166/168/132
f 175/180/134 6/179/6 3/181/3
f 166/168/132 175/180/134 176/182/139
f 176/182/139 175/180/134 3/181/3
f 176/182/139 3/181/3 177/183/140
f 177/183/140 3/181/3 4/184/4
f 176/182/139 177/183/140 178/185/141
f 166/168/132 176/182/139 179/186/142
f 179/186/142 176/182/139 178/185/141
f 179/186/142 178/185/141 180/187/143
f 166/168/132 179/186/142 167/169/133
f 179/186/142 180/187/143 181/188/144
f 179/186/142 181/188/144 167/169/133
f 181/188/144 180/187/143 182/189/145
f 181/188/144 182/189/145 183/190/146
f 183/190/146 182/189/145 184/191/147
f 167/169/133 181/188/144 185/192/148
f 185/192/148 181/188/144 183/190/146
f 167/169/133 185/192/148 186/193/148
f 167/169/133 186/193/148 171/173/133
f 171/173/133 186/193/148 173/175/137
f 186/193/148 185/192/148 187/194/149
f 187/194/149 185/192/148 183/190/146
f 173/175/137 186/193/148 188/195/149
f 188/195/149 186/193/148 187/194/149
f 173/175/137 188/195/149 189/196/150
f 189/196/150 188/195/149 190/197/151
f 191/198/152 183/190/146 184/191/147
f 183/190/146 191/198/152 187/194/149
f 191/198/152 184/191/147 192/199/153
f 190/197/151 188/195/149 193/200/154
f 193/200/154 188/195/149 187/194/149
f 187/194/149 191/198/152 194/201/154
f 187/194/149 194/201/154 193/200/154
f 191/198/152 192/199/153 195/202/155
f 191/198/152 195/202/155 194/201/154
f 195/202/155 192/199/153 196/203/156
f 190/197/151 193/200/154 197/204/157
f 197/204/157 193/200/154 194/201/154
f 190/197/151 197/204/157 198/205/158
f 198/205/158 197/204/157 199/206/159
f 195/202/155 196/203/156 200/207/160
f 194/201/154 195/202/155 201/208/157
f 194/201/154 201/208/157 197/204/157
f 201/208/157 195/202/155 200/207/160
f 200/207/160 196/203/156 202/209/161
f 197/204/157 201/208/157 203/210/162
f 203/210/162 201/208/157 200/207/160
f 204/211/162 199/206/159 197/204/157
f 204/211/162 197/204/157 203/210/162
f 199/206/159 204/211/162 205/212/163
f 205/212/163 204/211/162 203/210/162
f 199/206/159 205/212/163 206/213/164
f 207/214/165 200/207/160 202/209/161
f 200/207/160 207/214/165 203/210/162
f 207/214/165 202/209/161 208/215/166
f 206/213/164 205/212/163 209/216/167
f 203/210/162 207/214/165 210/217/163
f 203/210/162 210/217/163 205/212/163
f 207/214/165 208/215/166 211/218/168
f 207/214/165 211/218/168 210/217/163
f 211/218/168 208/215/166 212/219/169
f 209/216/167 205/212/163 213/220/170
f 205/212/163 210/217/163 214/221/171
f 214/221/171 210/217/163 211/218/168
f 205/212/163 214/221/171 213/220/170
f 211/218/168 212/219/169 215/222/172
f 211/218/168 215/222/172 214/221/171
f 215/222/172 212/219/169 216/223/173
f 209/216/167 213/220/170 217/224/174
f 215/222/172 216/223/173 218/225/175
f 215/222/172 218/225/175 214/221/171
f 218/225/175 216/223/173 219/226/176
f 219/226/176 216/223/173 220/227/177
f 219/226/176 220/227/177 221/228/178
f 218/225/175 219/226/176 222/229/179
f 222/229/179 219/226/176 223/230/180
f 218/225/175 222/229/179 224/231/181
f 218/225/175 224/231/181 214/221/171
f 224/231/181 222/229/179 225/232/182
f 224/231/181 225/232/182 226/233/183
f 224/231/181 226/233/183 214/221/171
f 223/230/180 219/226/176 227/234/184
f 227/234/184 219/226/176 221/228/178
f 223/230/180 227/234/184 228/235/185
f 227/234/184 221/228/178 229/236/186
f 228/235/185 227/234/184 230/237/187
f 230/237/187 227/234/184 229/236/186
f 228/235/185 230/237/187 231/238/188
f 230/237/187 229/236/186 232/239/189
f 231/238/188 230/237/187 233/240/190
f 230/237/187 232/239/189 234/241/191
f 230/237/187 234/241/191 233/240/190
f 234/241/191 232/239/189 235/242/192
f 233/240/190 234/241/191 236/243/193
f 234/241/191 235/242/192 237/244/194
f 234/241/191 237/244/194 236/243/193
f 238/245/195 239/246/196 226/233/183
f 226/233/183 239/246/196 214/221/171
f 239/246/196 238/245/195 240/247/197
f 214/221/171 239/246/196 241/248/198
f 241/248/198 239/246/196 240/247/197
f 214/221/171 241/248/198 213/220/170
f 241/248/198 240/247/197 242/249/199
f 213/220/170 241/248/198 217/224/174
f 217/224/174 241/248/198 242/249/199
f 217/224/174 242/249/199 243/250/200
f 217/224/174 243/250/200 244/251/201
f 245/252/202 246/253/202 247/254/202
f 247/254/202 246/253/202 189/255/150
f 247/254/202 189/255/150 190/256/151
f 189/255/150 246/253/202 248/257/202
f 248/257/202 246/253/202 245/252/202
f 189/255/150 248/257/202 173/258/137
f 247/254/202 190/256/151 249/259/202
f 247/254/202 249/259/202 245/252/202
f 249/259/202 190/256/151 198/260/158
f 173/258/137 248/257/202 250/261/202
f 250/261/202 248/257/202 245/252/202
f 173/258/137 250/261/202 172/262/136
f 249/259/202 198/260/158 251/263/202
f 249/259/202 251/263/202 245/252/202
f 251/263/202 198/260/158 199/264/159
f 251/263/202 199/264/159 206/265/164
f 251/263/202 206/265/164 252/266/202
f 251/263/202 252/266/202 245/252/202
f 252/266/202 206/265/164 209/267/167
f 253/268/202 172/262/136 250/261/202
f 172/262/136 253/268/202 170/269/135
f 253/268/202 250/261/202 254/270/202
f 254/270/202 250/261/202 245/252/202
f 170/269/135 253/268/202 255/271/202
f 255/271/202 253/268/202 254/270/202
f 170/269/135 255/271/202 174/272/138
f 255/271/202 254/270/202 256/273/202
f 255/271/202 256/273/202 174/272/138
f 174/272/138 256/273/202 10/274/8
f 257/275/202 245/252/202 252/266/202
f 257/275/202 252/266/202 209/267/167
f 257/275/202 209/267/167 258/276/203
f 258/276/203 209/267/167 217/277/174
f 245/252/202 257/275/202 259/278/202
f 259/278/202 257/275/202 258/276/203
f 258/276/203 217/277/174 260/279/204
f 258/276/203 260/279/204 259/278/202
f 261/280/205 262/281/206 263/282/205
f 263/282/205 262/281/206 264/283/207
f 264/283/207 262/281/206 265/284/208
f 264/283/207 265/284/208 266/285/208
f 266/285/208 265/284/208 267/286/208
f 266/285/208 267/286/208 268/287/208
f 268/287/208 267/286/208 269/288/208
f 268/287/208 269/288/208 270/289/208
f 244/290/201 260/279/204 217/277/174
f 271/291/202 245/252/202 259/278/202
f 271/291/202 259/278/202 260/279/204
f 245/252/202 271/291/202 272/292/209
f 271/291/202 260/279/204 273/293/202
f 271/291/202 273/293/202 272/292/209
f 260/279/204 244/290/201 274/294/210
f 260/279/204 274/294/210 273/293/202
f 274/294/210 244/290/201 275/295/211
f 275/295/211 244/290/201 243/296/200
f 275/295/211 243/296/200 276/297/212
f 272/292/209 273/293/202 277/298/202
f 277/298/202 273/293/202 274/294/210
f 272/292/209 277/298/202 278/299/209
f 274/294/210 275/295/211 279/300/213
f 274/294/210 279/300/213 277/298/202
f 275/295/211 276/297/212 280/301/214
f 278/299/209 277/298/202 281/302/215
f 281/302/215 277/298/202 279/300/213
f 278/299/209 281/302/215 282/303/202
f 280/301/214 276/297/212 283/304/216
f 280/301/214 283/304/216 104/305/80
f 104/305/80 283/304/216 284/306/217
f 280/301/214 104/305/80 103/307/79
f 280/301/214 103/307/79 285/308/213
f 280/301/214 285/308/213 275/295/211
f 275/295/211 285/308/213 279/300/213
f 285/308/213 103/307/79 105/309/81
f 279/300/213 285/308/213 286/310/215
f 279/300/213 286/310/215 281/302/215
f 286/310/215 285/308/213 105/309/81
f 281/302/215 286/310/215 282/303/202
f 286/310/215 105/309/81 287/311/202
f 286/310/215 287/311/202 282/303/202
f 287/311/202 105/309/81 106/312/82
f 282/303/202 287/311/202 270/289/202
f 270/289/202 287/311/202 288/313/202
f 288/313/202 287/311/202 289/313/202
f 270/289/202 288/313/202 290/314/202
f 289/313/202 287/311/202 106/312/202
f 289/313/202 106/312/202 13/315/202
f 13/315/202 106/312/202 61/316/202
f 270/289/202 290/314/202 291/317/202
f 270/289/202 291/317/202 268/287/202
f 268/287/202 291/317/202 292/318/202
f 268/287/202 292/318/202 266/285/202
f 266/285/202 292/318/202 263/282/202
f 266/285/202 263/282/202 264/283/202
f 293/319/218 294/320/218 295/321/218
f 295/321/218 294/320/218 296/322/218
f 295/321/218 296/322/218 297/323/218
f 297/323/218 296/322/218 298/324/218
f 297/323/218 298/324/218 299/325/219
f 299/325/219 298/324/218 300/326/220
f 299/325/219 300/326/220 263/327/205
f 263/327/205 300/326/220 261/328/205
f 301/329/202 302/330/202 303/331/202
f 303/331/202 302/330/202 304/332/202
f 301/329/202 303/331/202 305/333/202
f 303/331/202 304/332/202 306/334/202
f 305/333/202 303/331/202 307/335/202
f 303/331/202 306/334/202 308/336/202
f 303/331/202 308/336/202 309/337/202
f 307/335/202 303/331/202 310/338/202
f 303/331/202 309/337/202 311/339/202
f 310/338/202 303/331/202 312/340/202
f 303/331/202 311/339/202 313/341/202
f 310/338/202 312/340/202 314/342/202
f 314/342/202 312/340/202 315/343/202
f 315/343/202 312/340/202 316/344/202
f 315/343/202 316/344/202 317/345/221
f 317/345/221 316/344/202 318/346/209
f 313/341/202 311/339/202 319/347/202
f 317/345/221 318/346/209 320/348/221
f 313/341/202 319/347/202 321/349/202
f 321/349/202 319/347/202 163/350/130
f 313/341/202 321/349/202 256/351/202
f 321/349/202 163/350/130 9/352/7
f 321/349/202 9/352/7 256/351/202
f 256/351/202 9/352/7 10/353/8
f 320/348/221 318/346/209 322/354/209
f 320/348/221 322/354/209 58/355/45
f 58/355/45 322/354/209 59/356/46
f 322/354/209 318/346/209 293/319/209
f 322/354/209 293/319/209 288/357/209
f 288/357/209 293/319/209 290/358/209
f 322/354/209 288/357/209 289/359/209
f 290/358/209 293/319/209 291/360/202
f 322/354/209 289/359/209 59/356/209
f 59/356/209 289/359/209 13/361/209
f 59/356/209 13/361/209 14/362/209
f 291/360/202 293/319/209 295/321/202
f 291/360/202 295/321/202 292/363/209
f 292/363/209 295/321/202 297/323/209
f 292/363/209 297/323/209 263/327/209
f 263/327/209 297/323/209 299/325/209
f 323/364/222 324/365/223 325/366/224
f 324/365/223 323/364/222 326/367/225
f 326/367/225 323/364/222 284/368/217
f 324/365/223 326/367/225 97/369/75
f 284/368/217 323/364/222 104/370/80
f 104/370/80 323/364/222 327/371/226
f 327/371/226 323/364/222 325/366/224
f 104/370/80 327/371/226 100/372/76
f 100/372/76 327/371/226 89/373/68
f 324/365/223 97/369/75 328/374/227
f 328/374/227 97/369/75 94/375/72
f 324/365/223 328/374/227 329/376/228
f 324/365/223 329/376/228 325/366/224
f 328/374/227 94/375/72 330/377/229
f 328/374/227 330/377/229 329/376/228
f 330/377/229 94/375/72 87/378/66
f 330/377/229 87/378/66 331/379/230
f 331/379/230 87/378/66 80/380/61
f 331/379/230 80/380/61 332/381/231
f 331/379/230 332/381/231 330/377/229
f 332/381/231 80/380/61 75/382/58
f 330/377/229 332/381/231 333/383/232
f 333/383/232 332/381/231 75/382/58
f 330/377/229 333/383/232 329/376/228
f 333/383/232 75/382/58 71/384/55
f 333/383/232 71/384/55 69/385/53
f 333/383/232 69/385/53 329/376/228
f 329/376/228 69/385/53 325/366/224
f 325/366/224 69/385/53 70/386/54
f 325/366/224 70/386/54 334/387/233
f 334/387/233 70/386/54 72/388/56
f 325/366/224 334/387/233 327/371/226
f 334/387/233 72/388/56 335/389/234
f 335/389/234 72/388/56 77/390/60
f 327/371/226 334/387/233 336/391/235
f 336/391/235 334/387/233 335/389/234
f 327/371/226 336/391/235 89/373/68
f 335/389/234 77/390/60 337/392/236
f 335/389/234 337/392/236 336/391/235
f 337/392/236 77/390/60 84/393/64
f 89/373/68 336/391/235 84/393/64
f 84/393/64 336/391/235 337/392/236
f 338/394/237 339/395/238 340/396/239
f 338/394/237 340/396/239 22/397/16
f 22/397/16 340/396/239 23/398/17
f 338/394/237 22/397/16 341/399/240
f 341/399/240 22/397/16 24/400/18
f 341/399/240 24/400/18 28/401/21
f 338/394/237 341/399/240 342/402/241
f 341/399/240 28/401/21 343/403/242
f 341/399/240 343/403/242 342/402/241
f 343/403/242 28/401/21 33/404/24
f 343/403/242 33/404/24 344/405/243
f 343/403/242 344/405/243 342/402/241
f 344/405/243 33/404/24 40/406/29
f 344/405/243 40/406/29 342/402/241
f 342/402/241 40/406/29 44/407/33
f 345/408/244 338/394/237 342/402/241
f 345/408/244 342/402/241 44/407/33
f 338/394/237 345/408/244 339/395/238
f 345/408/244 44/407/33 47/409/36
f 345/408/244 47/409/36 339/395/238
f 339/395/238 47/409/36 346/410/245
f 339/395/238 346/410/245 347/411/246
f 347/411/246 346/410/245 348/412/247
f 339/395/238 347/411/246 340/396/239
f 347/411/246 348/412/247 57/413/44
f 347/411/246 57/413/44 349/414/248
f 347/411/246 349/414/248 340/396/239
f 349/414/248 57/413/44 52/415/40
f 349/414/248 52/415/40 49/416/38
f 340/396/239 349/414/248 350/417/249
f 340/396/239 350/417/249 23/398/17
f 23/398/17 350/417/249 25/418/19
f 349/414/248 49/416/38 351/419/250
f 349/414/248 351/419/250 350/417/249
f 351/419/250 49/416/38 37/420/27
f 25/418/19 350/417/249 352/421/251
f 352/421/251 350/417/249 351/419/250
f 25/418/19 352/421/251 30/422/23
f 351/419/250 37/420/27 353/423/252
f 351/419/250 353/423/252 352/421/251
f 353/423/252 37/420/27 30/422/23
f 353/423/252 30/422/23 352/421/251
f 318/346/253 316/344/253 294/320/253
f 294/320/253 316/344/253 296/322/253
f 296/322/253 316/344/253 298/324/253
f 298/324/253 316/344/253 312/340/253
f 298/324/253 312/340/253 300/326/254
f 300/326/254 312/340/253 303/331/60
f 300/326/254 303/331/60 313/341/255
f 300/326/254 313/341/255 261/328/256
f 261/328/256 313/341/255 256/351/256
f 256/273/256 254/270/257 261/280/256
f 261/280/256 254/270/257 262/281/258
f 262/281/258 254/270/257 245/252/23
f 262/281/258 245/252/23 272/292/259
f 262/281/258 272/292/259 265/284/259
f 265/284/259 272/292/259 278/299/259
f 265/284/259 278/299/259 267/286/259
f 267/286/259 278/299/259 269/288/259
f 269/288/259 278/299/259 282/303/259
f 238/424/195 354/425/260 240/426/197
f 240/426/197 354/425/260 355/427/261
f 355/427/261 354/425/260 356/428/262
f 355/427/261 356/428/262 326/429/225
f 355/427/261 326/429/225 284/430/217
f 240/426/197 355/427/261 357/431/263
f 357/431/263 355/427/261 284/430/217
f 357/431/263 284/430/217 283/432/216
f 240/426/197 357/431/263 242/433/199
f 357/431/263 283/432/216 276/434/212
f 357/431/263 276/434/212 242/433/199
f 242/433/199 276/434/212 243/435/200
f 301/329/202 120/436/93 302/330/202
f 302/330/202 120/436/93 121/437/94
f 120/436/93 301/329/202 113/438/89
f 302/330/202 121/437/94 128/439/102
f 302/330/202 128/439/102 304/332/202
f 304/332/202 128/439/102 130/440/103
f 304/332/202 130/440/103 306/334/202
f 306/334/202 130/440/103 155/441/124
f 306/334/202 155/441/124 308/336/202
f 308/336/202 155/441/124 309/337/202
f 309/337/202 155/441/124 156/442/125
f 309/337/202 156/442/125 311/339/202
f 311/339/202 156/442/125 162/443/129
f 311/339/202 162/443/129 319/347/202
f 319/347/202 162/443/129 163/350/130
f 305/333/202 113/438/89 301/329/202
f 113/438/89 305/333/202 358/444/264
f 358/444/264 305/333/202 307/335/202
f 113/438/89 358/444/264 109/445/85
f 358/444/264 307/335/202 359/446/265
f 358/444/264 359/446/265 109/445/85
f 359/446/265 307/335/202 310/338/202
f 109/445/85 359/446/265 110/447/86
f 359/446/265 310/338/202 314/342/202
f 359/446/265 314/342/202 360/448/266
f 359/446/265 360/448/266 110/447/86
f 360/448/266 314/342/202 315/343/202
f 110/447/86 360/448/266 361/449/267
f 360/448/266 315/343/202 362/450/268
f 360/448/266 362/450/268 361/449/267
f 362/450/268 315/343/202 317/345/221
f 362/450/268 317/345/221 320/348/221
f 110/447/86 361/449/267 107/451/83
f 362/450/268 320/348/221 363/452/268
f 362/450/268 363/452/268 361/449/267
f 363/452/268 320/348/221 58/355/45
f 363/452/268 58/355/45 56/453/43
f 363/452/268 56/453/43 364/454/267
f 363/452/268 364/454/267 361/449/267
f 364/454/267 56/453/43 57/455/44
f 365/456/269 107/451/83 361/449/267
f 365/456/269 361/449/267 364/454/267
f 107/451/83 365/456/269 116/457/270
f 364/454/267 57/455/44 366/458/269
f 364/454/267 366/458/269 365/456/269
f 366/458/269 57/455/44 348/459/247
f 366/458/269 348/459/247 367/460/271
f 365/456/269 366/458/269 368/461/271
f 368/461/271 366/458/269 367/460/271
f 365/456/269 368/461/271 116/457/270
f 368/461/271 367/460/271 369/462/271
f 116/457/270 368/461/271 370/463/271
f 370/463/271 368/461/271 369/462/271
f 116/457/270 370/463/271 117/464/270
f 117/464/270 370/463/271 371/465/272
f 370/463/271 369/462/271 372/466/272
f 370/463/271 372/466/272 371/465/272
f 372/466/272 369/462/271 373/467/272
f 371/465/272 372/466/272 374/468/272
f 371/465/272 374/468/272 117/464/91
f 117/464/91 374/468/272 118/469/91
f 374/468/272 372/466/272 375/470/272
f 375/470/272 372/466/272 373/467/272
f 374/468/272 375/470/272 118/469/273
f 375/470/272 373/467/272 376/471/272
f 376/471/272 373/467/272 377/472/274
f 377/472/274 373/467/272 369/462/274
f 377/472/274 369/462/274 367/460/274
f 377/472/274 367/460/274 378/473/274
f 378/473/274 367/460/274 346/474/245
f 346/474/245 367/460/274 348/459/247
f 375/470/272 376/471/272 379/475/273
f 375/470/272 379/475/273 118/469/273
f 379/475/273 376/471/272 377/472/273
f 379/475/273 377/472/273 378/473/273
f 118/469/273 379/475/273 380/476/273
f 380/476/273 379/475/273 378/473/273
f 118/469/273 380/476/273 115/477/273
f 115/477/273 380/476/273 124/478/97
f 380/476/273 378/473/273 381/479/275
f 380/476/273 381/479/275 124/478/97
f 381/479/275 378/473/273 382/480/275
f 124/478/97 381/479/275 383/481/276
f 124/478/97 383/481/276 125/482/99
f 125/482/99 383/481/276 384/483/277
f 383/481/276 381/479/275 385/484/276
f 385/484/276 381/479/275 382/480/275
f 384/483/277 383/481/276 386/485/278
f 386/485/278 383/481/276 385/484/276
f 384/483/277 386/485/278 387/486/279
f 346/474/245 382/480/275 378/473/280
f 382/480/275 346/474/245 388/487/276
f 382/480/275 388/487/276 385/484/276
f 388/487/276 346/474/245 47/488/36
f 386/485/278 385/484/276 389/489/278
f 389/489/278 385/484/276 388/487/276
f 387/486/279 386/485/278 390/490/281
f 390/490/281 386/485/278 389/489/278
f 387/486/279 390/490/281 391/491/282
f 391/491/282 390/490/281 392/492/283
f 388/487/276 47/488/36 393/493/278
f 388/487/276 393/493/278 389/489/278
f 393/493/278 47/488/36 46/494/35
f 390/490/281 389/489/278 394/495/281
f 390/490/281 394/495/281 392/492/283
f 394/495/281 389/489/278 393/493/278
f 392/492/283 394/495/281 395/496/283
f 393/493/278 46/494/35 396/497/281
f 393/493/278 396/497/281 394/495/281
f 394/495/281 396/497/281 395/496/283
f 396/497/281 46/494/35 45/498/34
f 395/496/283 396/497/281 397/499/283
f 396/497/281 45/498/34 43/500/32
f 396/497/281 43/500/32 397/499/283
f 143/501/113 147/502/117 398/503/284
f 143/501/113 398/503/284 140/504/110
f 398/503/284 147/502/117 399/505/285
f 140/504/110 398/503/284 400/506/286
f 399/505/285 147/502/117 401/507/287
f 140/504/110 400/506/286 402/508/288
f 401/507/287 147/502/117 403/509/289
f 140/504/110 402/508/288 138/510/108
f 401/507/287 403/509/289 404/511/290
f 138/510/108 402/508/288 139/512/109
f 401/507/287 404/511/290 405/513/291
f 405/513/291 404/511/290 406/514/292
f 406/514/292 404/511/290 407/515/293
f 139/512/109 402/508/288 408/516/294
f 139/512/109 408/516/294 409/517/295
f 139/512/109 409/517/295 141/518/111
f 141/518/111 409/517/295 145/519/115
f 145/519/115 409/517/295 410/520/296
f 145/519/115 410/520/296 411/521/297
f 145/519/115 411/521/297 150/522/120
f 150/522/120 411/521/297 152/523/122
f 152/523/122 411/521/297 412/524/298
f 152/523/122 412/524/298 413/525/299
f 152/523/122 413/525/299 160/526/128
f 229/527/186 221/528/178 414/529/300
f 229/527/186 414/529/300 232/530/189
f 414/529/300 221/528/178 415/531/301
f 232/530/189 414/529/300 416/532/302
f 232/530/189 416/532/302 417/533/303
f 232/530/189 417/533/303 235/534/192
f 417/533/303 416/532/302 418/535/304
f 418/535/304 416/532/302 414/529/300
f 418/535/304 414/529/300 415/531/301
f 415/531/301 221/528/178 419/536/305
f 415/531/301 419/536/305 418/535/304
f 419/536/305 221/528/178 220/537/177
f 419/536/305 220/537/177 216/538/173
f 419/536/305 216/538/173 420/539/306
f 419/536/305 420/539/306 418/535/304
f 420/539/306 216/538/173 421/540/307
f 420/539/306 421/540/307 418/535/304
f 421/540/307 216/538/173 212/541/169
f 421/540/307 212/541/169 208/542/166
f 421/540/307 208/542/166 422/543/308
f 421/540/307 422/543/308 418/535/304
f 422/543/308 208/542/166 423/544/309
f 422/543/308 423/544/309 418/535/304
f 423/544/309 208/542/166 202/545/161
f 423/544/309 202/545/161 196/546/156
f 423/544/309 196/546/156 424/547/310
f 423/544/309 424/547/310 418/535/304
f 424/547/310 196/546/156 425/548/311
f 424/547/310 425/548/311 418/535/304
f 425/548/311 196/546/156 192/549/153
f 425/548/311 192/549/153 184/550/147
f 425/548/311 184/550/147 426/551/312
f 425/548/311 426/551/312 418/535/304
f 426/551/312 184/550/147 427/552/313
f 426/551/312 427/552/313 418/535/304
f 427/552/313 184/550/147 182/553/145
f 427/552/313 182/553/145 180/554/143
f 418/535/304 427/552/313 428/555/314
f 428/555/314 427/552/313 180/554/143
f 428/555/314 180/554/143 429/556/315
f 428/555/314 429/556/315 418/535/304
f 429/556/315 180/554/143 178/557/141
f 429/556/315 178/557/141 177/558/140
f 418/535/304 429/556/315 430/559/316
f 430/559/316 429/556/315 177/558/140
f 418/535/304 430/559/316 431/560/317
f 431/560/317 430/559/316 177/558/140
f 431/560/317 177/558/140 4/561/4
f 398/503/284 399/505/285 418/562/304
f 418/562/304 399/505/285 401/507/287
f 398/503/284 418/562/304 400/506/286
f 418/562/304 401/507/287 405/513/291
f 400/506/286 418/562/304 402/508/288
f 402/508/288 418/562/304 408/516/294
f 408/516/294 418/562/304 409/517/295
f 409/517/295 418/562/304 410/520/296
f 410/520/296 418/562/304 411/521/297
f 411/521/297 418/562/304 412/524/298
f 418/562/304 405/513/291 406/514/292
f 412/524/298 418/562/304 413/525/299
f 418/562/304 406/514/292 432/563/318
f 432/563/318 406/514/292 433/564/319
f 433/564/319 406/514/292 407/515/293
f 432/563/318 433/564/319 417/565/303
f 432/563/318 417/565/303 418/562/304
f 417/565/303 433/564/319 235/566/192
f 413/525/299 418/562/304 434/567/320
f 434/567/320 418/562/304 431/568/317
f 413/525/299 434/567/320 2/569/2
f 2/569/2 434/567/320 431/568/317
f 413/525/299 2/569/2 160/526/128
f 2/569/2 431/568/317 4/570/4
f 435/571/321 436/572/322 437/573/321
f 238/574/195 226/575/183 435/571/321
f 435/571/321 226/575/183 225/576/182
f 435/571/321 225/576/182 436/572/322
f 238/574/195 435/571/321 354/577/260
f 354/577/260 435/571/321 437/573/321
f 436/572/322 225/576/182 222/578/179
f 354/577/260 437/573/321 356/579/262
f 436/572/322 222/578/179 438/580/323
f 438/580/323 222/578/179 223/581/180
f 439/582/322 437/573/321 436/572/322
f 439/582/322 436/572/322 438/580/323
f 356/579/262 437/573/321 440/583/324
f 440/583/324 437/573/321 439/582/322
f 356/579/262 440/583/324 326/584/225
f 326/584/225 440/583/324 97/585/75
f 97/585/75 440/583/324 441/586/322
f 441/586/322 440/583/324 439/582/322
f 97/585/75 441/586/322 96/587/74
f 96/587/74 441/586/322 442/588/323
f 96/587/74 442/588/323 95/589/73
f 441/586/322 439/582/322 443/590/323
f 443/590/323 439/582/322 438/580/323
f 441/586/322 443/590/323 442/588/323
f 95/589/73 442/588/323 93/591/71
f 443/590/323 438/580/323 444/592/325
f 444/592/325 438/580/323 223/581/180
f 444/592/325 223/581/180 228/593/185
f 443/590/323 444/592/325 445/594/325
f 443/590/323 445/594/325 442/588/323
f 444/592/325 228/593/185 446/595/326
f 444/592/325 446/595/326 445/594/325
f 446/595/326 228/593/185 231/596/188
f 446/595/326 231/596/188 233/597/190
f 446/595/326 233/597/190 447/598/304
f 447/598/304 233/597/190 236/599/193
f 446/595/326 447/598/304 448/600/326
f 446/595/326 448/600/326 445/594/325
f 448/600/326 447/598/304 449/601/304
f 450/602/325 442/588/323 445/594/325
f 450/602/325 445/594/325 448/600/326
f 442/588/323 450/602/325 93/591/71
f 448/600/326 449/601/304 451/603/326
f 448/600/326 451/603/326 450/602/325
f 450/602/325 451/603/326 93/591/71
f 451/603/326 449/601/304 452/604/304
f 93/591/71 451/603/326 92/605/70
f 92/605/70 451/603/326 452/604/304
f 92/605/70 452/604/304 453/604/304
f 92/605/70 453/604/304 60/606/47
f 60/606/47 453/604/304 11/607/9
f 12/608/162 42/609/162 16/610/162
f 16/610/162 42/609/162 39/611/162
f 16/610/162 39/611/162 17/612/327
f 17/612/327 39/611/162 34/613/327
f 17/612/327 34/613/327 27/614/327
f 17/612/327 27/614/327 21/615/327
f 391/491/282 392/492/283 454/616/328
f 454/616/328 392/492/283 455/617/304
f 454/616/328 455/617/304 456/618/329
f 455/617/304 392/492/283 395/496/283
f 456/618/329 455/617/304 457/619/330
f 457/619/330 455/617/304 447/620/304
f 457/619/330 447/620/304 236/621/193
f 455/617/304 395/496/283 458/622/304
f 455/617/304 458/622/304 447/620/304
f 458/622/304 395/496/283 397/499/283
f 447/620/304 458/622/304 449/623/304
f 458/622/304 397/499/283 459/624/304
f 458/622/304 459/624/304 449/623/304
f 459/624/304 397/499/283 43/500/32
f 449/623/304 459/624/304 452/625/304
f 459/624/304 43/500/32 42/609/31
f 459/624/304 42/609/31 452/625/304
f 452/625/304 42/609/31 453/626/304
f 453/626/304 42/609/31 12/608/10
f 453/626/304 12/608/10 11/627/9
f 59/628/162 14/629/162 55/630/162
f 55/630/162 14/629/162 19/631/162
f 55/630/162 19/631/162 31/31/162
f 55/630/162 31/31/162 53/53/162
f 53/53/162 31/31/162 36/36/327
f 53/53/162 36/36/327 50/50/327
f 68/632/100 74/633/100 64/634/331
f 64/634/331 74/633/100 81/635/331
f 64/634/331 81/635/331 86/636/331
f 64/634/331 86/636/331 63/637/331
f 63/637/331 86/636/331 92/605/331
f 63/637/331 92/605/331 60/606/331
f 90/92/100 83/85/100 99/101/100
f 99/101/100 83/85/100 78/80/100
f 99/101/100 78/80/100 102/638/100
f 102/638/100 78/80/100 66/639/100
f 102/638/100 66/639/100 61/640/100
f 102/638/100 61/640/100 106/641/100
f 269/288/332 282/303/332 270/289/332
f 318/346/333 294/320/333 293/319/333
f 107/451/83 116/457/334 108/642/84
f 460/643/335 146/148/116 122/124/95
f 146/148/116 460/643/335 147/149/117
f 460/643/335 122/124/95 461/644/336
f 461/644/336 122/124/95 125/127/99
f 461/644/336 125/127/99 384/645/277
f 461/644/336 384/645/277 387/646/279
f 461/644/336 387/646/279 460/643/335
f 147/149/117 460/643/335 462/647/337
f 462/647/337 460/643/335 387/646/279
f 147/149/117 462/647/337 403/648/289
f 462/647/337 387/646/279 391/649/282
f 403/648/289 462/647/337 404/650/290
f 462/647/337 391/649/282 463/651/338
f 462/647/337 463/651/338 404/650/290
f 463/651/338 391/649/282 454/652/328
f 404/650/290 463/651/338 407/653/293
f 463/651/338 454/652/328 464/654/339
f 463/651/338 464/654/339 407/653/293
f 464/654/339 454/652/328 456/655/329
f 407/653/293 464/654/339 433/656/319
f 464/654/339 456/655/329 457/657/330
f 433/656/319 464/654/339 465/658/340
f 465/658/340 464/654/339 457/657/330
f 433/656/319 465/658/340 235/659/192
f 235/659/192 465/658/340 237/660/194
f 237/660/194 465/658/340 236/661/193
f 236/661/193 465/658/340 457/657/330
