# CS2 body mesh, tools/cs2_glb_to_obj.py
v 0.00013 0.07723 -0.22333
v 0.00094 0.07113 -0.22333
v -0.00244 0.07113 -0.22333
v -0.00164 0.07723 -0.22333
v -0.00571 0.072 -0.22333
v -0.00336 0.07769 -0.22333
v -0.00864 0.0737 -0.22333
v -0.00365 0.07895 -0.22208
v -0.00075 0.07818 -0.22208
v 0.00214 0.07895 -0.22208
v 0.00313 0.081 -0.22333
v 0.00427 0.08108 -0.22208
v 0.00376 0.0821 -0.22333
v 0.00222 0.08009 -0.22333
v 0.00112 0.07946 -0.22333
v -0.00012 0.07913 -0.22333
v 0.00504 0.08397 -0.22208
v 0.00409 0.08334 -0.22333
v 0.00409 0.08461 -0.22333
v 0.00376 0.08585 -0.22333
v 0.00427 0.08687 -0.22208
v 0.00313 0.08695 -0.22333
v 0.00222 0.08785 -0.22333
v 0.00214 0.08899 -0.22208
v 0.00112 0.08849 -0.22333
v -0.00075 0.08977 -0.22208
v -0.00012 0.08882 -0.22333
v -0.00262 0.08849 -0.22333
v -0.00365 0.08899 -0.22208
v -0.00139 0.08882 -0.22333
v -0.00373 0.08785 -0.22333
v -0.00463 0.08695 -0.22333
v -0.00489 0.08937 -0.22333
v -0.00336 0.09026 -0.22333
v -0.00615 0.08812 -0.22333
v -0.00577 0.08687 -0.22208
v -0.00704 0.08658 -0.22333
v -0.0075 0.08486 -0.22333
v -0.00527 0.08585 -0.22333
v -0.00655 0.08397 -0.22208
v -0.0056 0.08461 -0.22333
v -0.0056 0.08334 -0.22333
v -0.0075 0.08309 -0.22333
v -0.00527 0.0821 -0.22333
v -0.00577 0.08108 -0.22208
v -0.00704 0.08137 -0.22333
v -0.00615 0.07983 -0.22333
v -0.00489 0.07858 -0.22333
v -0.00463 0.081 -0.22333
v -0.00373 0.08009 -0.22333
v -0.00262 0.07946 -0.22333
v -0.00139 0.07913 -0.22333
v -0.01272 0.07902 -0.22333
v -0.01103 0.07609 -0.22333
v -0.0136 0.08228 -0.22333
v -0.0136 0.08567 -0.22333
v -0.01272 0.08893 -0.22333
v -0.01103 0.09186 -0.22333
v -0.00864 0.09425 -0.22333
v -0.00571 0.09594 -0.22333
v -0.00164 0.09072 -0.22333
v -0.00244 0.09682 -0.22333
v 0.00013 0.09072 -0.22333
v 0.00094 0.09682 -0.22333
v 0.00185 0.09026 -0.22333
v 0.0042 0.09594 -0.22333
v 0.00339 0.08937 -0.22333
v 0.00713 0.09425 -0.22333
v 0.00464 0.08812 -0.22333
v 0.00953 0.09186 -0.22333
v 0.00553 0.08658 -0.22333
v 0.01122 0.08893 -0.22333
v 0.00599 0.08486 -0.22333
v 0.01209 0.08567 -0.22333
v 0.00599 0.08309 -0.22333
v 0.01209 0.08228 -0.22333
v 0.00553 0.08137 -0.22333
v 0.01122 0.07902 -0.22333
v 0.00464 0.07983 -0.22333
v 0.00953 0.07609 -0.22333
v 0.00339 0.07858 -0.22333
v 0.00713 0.0737 -0.22333
v 0.0042 0.072 -0.22333
v 0.00185 0.07769 -0.22333
v 0.01028 0.09244 -0.2227
v 0.00873 0.09125 -0.21954
v 0.0121 0.0893 -0.21978
v 0.01028 0.09244 -0.21978
v 0.00652 0.09345 -0.21954
v 0.00772 0.09501 -0.2227
v 0.00772 0.09501 -0.21978
v 0.00382 0.09501 -0.21954
v 0.00457 0.09683 -0.2227
v 0.00457 0.09683 -0.21978
v 0.00081 0.09582 -0.21954
v 0.00106 0.09777 -0.2227
v 0.00106 0.09777 -0.21978
v -0.00257 0.09777 -0.2227
v -0.00231 0.09582 -0.21954
v -0.00257 0.09777 -0.21978
v 0.00081 0.09582 -0.14282
v -0.00608 0.09683 -0.2227
v -0.00608 0.09683 -0.21978
v -0.00533 0.09501 -0.21954
v -0.00231 0.09582 -0.14282
v 0.00072 0.09516 -0.14223
v 0.00357 0.0944 -0.14223
v 0.00382 0.09501 -0.14282
v -0.00223 0.09516 -0.14223
v -0.00533 0.09501 -0.14282
v -0.00507 0.0944 -0.14223
v -0.00803 0.09345 -0.14282
v -0.00762 0.09293 -0.14223
v -0.00803 0.09345 -0.21954
v -0.00922 0.09501 -0.21978
v -0.01023 0.09125 -0.14282
v -0.00971 0.09084 -0.14223
v -0.01023 0.09125 -0.21954
v -0.01179 0.09244 -0.21978
v -0.00922 0.09501 -0.2227
v -0.01179 0.09244 -0.2227
v -0.01361 0.0893 -0.21978
v -0.01361 0.0893 -0.2227
v -0.01455 0.08579 -0.2227
v -0.01455 0.08579 -0.21978
v -0.01179 0.08855 -0.21954
v -0.01179 0.08855 -0.14282
v -0.01118 0.08829 -0.14223
v -0.01194 0.08545 -0.14223
v -0.0126 0.08553 -0.21954
v -0.0126 0.08553 -0.14282
v -0.01194 0.0825 -0.14223
v -0.0126 0.08241 -0.14282
v -0.01118 0.07966 -0.14223
v -0.01179 0.0794 -0.14282
v -0.0126 0.08241 -0.21954
v -0.01179 0.0794 -0.21954
v -0.01361 0.07865 -0.21978
v -0.01455 0.08216 -0.21978
v -0.01455 0.08216 -0.2227
v -0.01361 0.07865 -0.2227
v 0.00081 0.07213 -0.14282
v 0.00081 0.07213 -0.21954
v 0.00382 0.07293 -0.14282
v 0.00382 0.07293 -0.21954
v 0.00652 0.07449 -0.14282
v 0.00652 0.07449 -0.21954
v 0.00612 0.07502 -0.14223
v 0.00357 0.07355 -0.14223
v 0.0082 0.0771 -0.14223
v 0.00873 0.0767 -0.21954
v 0.00873 0.0767 -0.14282
v 0.00967 0.07966 -0.14223
v 0.01029 0.0794 -0.21954
v 0.01029 0.0794 -0.14282
v 0.01109 0.08241 -0.21954
v 0.01109 0.08241 -0.14282
v 0.01044 0.0825 -0.14223
v 0.01109 0.08553 -0.21954
v 0.01109 0.08553 -0.14282
v 0.01044 0.08545 -0.14223
v 0.01029 0.08855 -0.21954
v 0.01029 0.08855 -0.14282
v 0.00967 0.08829 -0.14223
v 0.00873 0.09125 -0.14282
v 0.0082 0.09084 -0.14223
v 0.00652 0.09345 -0.14282
v 0.00612 0.09293 -0.14223
v -0.00533 0.07293 -0.14282
v -0.00533 0.07293 -0.21954
v -0.00231 0.07213 -0.14282
v -0.00223 0.07279 -0.14223
v 0.00072 0.07279 -0.14223
v -0.00507 0.07355 -0.14223
v -0.00231 0.07213 -0.21954
v -0.00803 0.07449 -0.14282
v -0.00762 0.07502 -0.14223
v -0.00803 0.07449 -0.21954
v -0.00257 0.07018 -0.21978
v -0.00608 0.07112 -0.21978
v 0.00106 0.07018 -0.21978
v -0.01023 0.0767 -0.14282
v -0.00971 0.0771 -0.14223
v -0.01023 0.0767 -0.21954
v -0.01179 0.0755 -0.21978
v -0.00922 0.07294 -0.21978
v -0.01179 0.0755 -0.2227
v -0.00922 0.07294 -0.2227
v -0.00608 0.07112 -0.2227
v -0.00257 0.07018 -0.2227
v 0.00106 0.07018 -0.2227
v 0.00457 0.07112 -0.21978
v 0.00457 0.07112 -0.2227
v 0.00772 0.07294 -0.21978
v 0.00772 0.07294 -0.2227
v 0.01028 0.0755 -0.21978
v 0.01028 0.0755 -0.2227
v 0.0121 0.07865 -0.2227
v 0.0121 0.07865 -0.21978
v 0.01304 0.08216 -0.2227
v 0.01304 0.08216 -0.21978
v 0.01304 0.08579 -0.2227
v 0.01304 0.08579 -0.21978
v 0.0121 0.0893 -0.2227
v 0.00257 0.07595 -0.12252
v 0.00453 0.07709 -0.12252
v 0.00248 0.07837 -0.12252
v 0.00613 0.07869 -0.12252
v 0.00038 0.07537 -0.12252
v -0.00075 0.0775 -0.12252
v -0.00189 0.07537 -0.12252
v 0.00485 0.08074 -0.12252
v 0.00727 0.08065 -0.12252
v 0.00785 0.08284 -0.12252
v -0.00399 0.07837 -0.12252
v -0.00408 0.07595 -0.12252
v -0.00604 0.07709 -0.12252
v -0.00764 0.07869 -0.12252
v -0.00075 0.08397 -0.12386
v -0.00636 0.08074 -0.12252
v -0.00877 0.08065 -0.12252
v -0.00936 0.08284 -0.12252
v -0.00722 0.08397 -0.12252
v -0.00936 0.08511 -0.12252
v -0.00877 0.0873 -0.12252
v -0.00636 0.08721 -0.12252
v -0.00764 0.08926 -0.12252
v -0.00604 0.09086 -0.12252
v -0.00399 0.08958 -0.12252
v -0.00408 0.092 -0.12252
v -0.00189 0.09258 -0.12252
v -0.00075 0.09044 -0.12252
v 0.00038 0.09258 -0.12252
v 0.00248 0.08958 -0.12252
v 0.00257 0.092 -0.12252
v 0.00453 0.09086 -0.12252
v 0.00485 0.08721 -0.12252
v 0.00613 0.08926 -0.12252
v 0.00727 0.0873 -0.12252
v 0.00572 0.08397 -0.12252
v 0.00785 0.08511 -0.12252
v -0.01067 0.07987 -0.13009
v -0.00868 0.07789 -0.1263
v -0.00998 0.08015 -0.1263
v -0.00927 0.07744 -0.13009
v -0.00683 0.07605 -0.1263
v -0.00729 0.07546 -0.13009
v -0.00486 0.07406 -0.13009
v -0.00458 0.07475 -0.1263
v -0.00215 0.07334 -0.13009
v -0.00206 0.07407 -0.1263
v 0.00055 0.07407 -0.1263
v 0.00065 0.07334 -0.13009
v 0.00307 0.07475 -0.1263
v 0.00335 0.07406 -0.13009
v 0.00533 0.07605 -0.1263
v 0.00578 0.07546 -0.13009
v 0.00776 0.07744 -0.13009
v 0.00717 0.07789 -0.1263
v 0.00916 0.07987 -0.13009
v 0.00847 0.08015 -0.1263
v 0.00989 0.08257 -0.13009
v 0.00915 0.08267 -0.1263
v 0.00915 0.08528 -0.1263
v 0.00989 0.08537 -0.13009
v 0.00847 0.0878 -0.1263
v 0.00916 0.08808 -0.13009
v 0.00717 0.09005 -0.1263
v 0.00776 0.09051 -0.13009
v 0.00533 0.0919 -0.1263
v 0.00578 0.09249 -0.13009
v 0.00335 0.09389 -0.13009
v 0.00307 0.0932 -0.1263
v 0.00065 0.09461 -0.13009
v 0.00055 0.09388 -0.1263
v -0.00215 0.09461 -0.13009
v -0.00206 0.09388 -0.1263
v -0.00458 0.0932 -0.1263
v -0.00486 0.09389 -0.13009
v -0.00683 0.0919 -0.1263
v -0.00729 0.09249 -0.13009
v -0.00868 0.09005 -0.1263
v -0.00927 0.09051 -0.13009
v -0.01067 0.08808 -0.13009
v -0.00998 0.0878 -0.1263
v -0.01139 0.08537 -0.13009
v -0.01066 0.08528 -0.1263
v -0.01139 0.08257 -0.13009
v -0.01066 0.08267 -0.1263
v -0.00962 0.07717 -0.13577
v -0.01107 0.0797 -0.13577
v -0.00755 0.07511 -0.13577
v -0.00503 0.07365 -0.13577
v -0.00221 0.0729 -0.13577
v 0.0007 0.0729 -0.13577
v 0.00352 0.07365 -0.13577
v 0.00605 0.07511 -0.13577
v 0.00811 0.07717 -0.13577
v 0.00957 0.0797 -0.13577
v 0.01032 0.08252 -0.13577
v 0.01032 0.08543 -0.13577
v 0.00957 0.08825 -0.13577
v 0.00811 0.09077 -0.13577
v 0.00605 0.09284 -0.13577
v 0.00352 0.0943 -0.13577
v 0.0007 0.09505 -0.13577
v -0.00221 0.09505 -0.13577
v -0.00503 0.0943 -0.13577
v -0.00755 0.09284 -0.13577
v -0.00962 0.09077 -0.13577
v -0.01107 0.08825 -0.13577
v -0.01183 0.08543 -0.13577
v -0.01183 0.08252 -0.13577
vt 0.163884 0.952696
vt 0.16657 0.959014
vt 0.169805 0.957091
vt 0.165593 0.95172
vt 0.17243 0.954405
vt 0.166967 0.950285
vt 0.174291 0.95114
vt 0.16654 0.948912
vt 0.16422 0.951292
vt 0.160985 0.952178
vt 0.15891 0.950804
vt 0.157781 0.951353
vt 0.157659 0.950102
vt 0.160283 0.95114
vt 0.161687 0.95114
vt 0.16306 0.950743
vt 0.1554 0.949034
vt 0.156652 0.949095
vt 0.15595 0.947874
vt 0.155553 0.946501
vt 0.154485 0.945799
vt 0.155553 0.945097
vt 0.155889 0.943724
vt 0.155339 0.942595
vt 0.15659 0.942473
vt 0.157659 0.940214
vt 0.157598 0.941465
vt 0.160192 0.940367
vt 0.160894 0.939299
vt 0.158818 0.940764
vt 0.161596 0.940367
vt 0.162969 0.940703
vt 0.16187 0.938261
vt 0.159886 0.938261
vt 0.163762 0.938749
vt 0.164098 0.940153
vt 0.165502 0.939726
vt 0.166906 0.941099
vt 0.16422 0.941404
vt 0.166478 0.942473
vt 0.165227 0.942412
vt 0.165929 0.943632
vt 0.167913 0.942808
vt 0.166326 0.945006
vt 0.167394 0.945708
vt 0.168432 0.9447
vt 0.168432 0.946684
vt 0.167943 0.948576
vt 0.166326 0.94641
vt 0.16599 0.947783
vt 0.165288 0.949034
vt 0.164281 0.950041
vt 0.175207 0.943754
vt 0.175237 0.947508
vt 0.1742 0.940123
vt 0.172277 0.936888
vt 0.169591 0.934263
vt 0.166326 0.932401
vt 0.162694 0.931455
vt 0.15894 0.931486
vt 0.157994 0.93878
vt 0.155309 0.932493
vt 0.156285 0.939787
vt 0.152074 0.934416
vt 0.154912 0.941191
vt 0.149449 0.937101
vt 0.153935 0.94293
vt 0.147588 0.940367
vt 0.153447 0.944823
vt 0.146641 0.943999
vt 0.153447 0.946806
vt 0.146672 0.947752
vt 0.153996 0.948698
vt 0.147679 0.951384
vt 0.154973 0.950407
vt 0.149602 0.954619
vt 0.156377 0.951781
vt 0.152287 0.957244
vt 0.158116 0.952757
vt 0.155553 0.959105
vt 0.160009 0.953246
vt 0.159185 0.960051
vt 0.162938 0.960021
vt 0.161992 0.953246
vt 0.004364 0.123966
vt 0.003204 0.123966
vt 0.003204 0.127384
vt 0.009461 0.123966
vt 0.007416 0.120518
vt 0.007416 0.123966
vt 0.009461 0.127384
vt 0.004364 0.127384
vt 0.003204 0.130924
vt 0.007416 0.127384
vt 0.009461 0.130924
vt 0.004364 0.130924
vt 0.007416 0.130924
vt 0.009461 0.134373
vt 0.003204 0.134373
vt 0.004364 0.134373
vt 0.003204 0.137761
vt 0.007416 0.134373
vt 0.004364 0.137761
vt 0.003204 0.14124
vt 0.009461 0.137761
vt 0.007416 0.137761
vt 0.090121 0.134373
vt 0.004364 0.14124
vt 0.007416 0.14124
vt 0.009461 0.14124
vt 0.090121 0.137761
vt 0.091769 0.134373
vt 0.091769 0.130924
vt 0.090121 0.130924
vt 0.091769 0.137761
vt 0.090121 0.14124
vt 0.091769 0.14124
vt 0.090121 0.144749
vt 0.091769 0.144749
vt 0.009461 0.144749
vt 0.007416 0.144749
vt 0.090121 0.148228
vt 0.091769 0.148228
vt 0.009461 0.148228
vt 0.007416 0.148228
vt 0.004364 0.144749
vt 0.003204 0.144749
vt 0.004364 0.148228
vt 0.003204 0.148228
vt 0.007416 0.151677
vt 0.004364 0.151677
vt 0.003204 0.151677
vt 0.004364 0.155126
vt 0.003204 0.155126
vt 0.007416 0.155126
vt 0.009461 0.151677
vt 0.090121 0.151677
vt 0.091769 0.151677
vt 0.091769 0.155126
vt 0.009461 0.155126
vt 0.090121 0.155126
vt 0.091769 0.158544
vt 0.090121 0.158544
vt 0.091769 0.162023
vt 0.090121 0.162023
vt 0.009461 0.158544
vt 0.009461 0.162023
vt 0.007416 0.162023
vt 0.007416 0.158544
vt 0.004364 0.158544
vt 0.004364 0.162023
vt 0.003204 0.158544
vt 0.003204 0.162023
vt 0.090121 0.096194
vt 0.009461 0.096194
vt 0.090121 0.099704
vt 0.009461 0.099704
vt 0.090121 0.103183
vt 0.009461 0.103183
vt 0.091769 0.103183
vt 0.091769 0.099704
vt 0.091769 0.106632
vt 0.009461 0.106632
vt 0.090121 0.106632
vt 0.091769 0.110019
vt 0.009461 0.110019
vt 0.090121 0.110019
vt 0.009461 0.113498
vt 0.090121 0.113498
vt 0.091769 0.113498
vt 0.009461 0.117008
vt 0.090121 0.117008
vt 0.091769 0.117008
vt 0.009461 0.120518
vt 0.090121 0.120518
vt 0.091769 0.120518
vt 0.090121 0.123966
vt 0.091769 0.123966
vt 0.090121 0.127384
vt 0.091769 0.127384
vt 0.090121 0.089328
vt 0.009461 0.089328
vt 0.090121 0.092807
vt 0.091769 0.092807
vt 0.091769 0.096194
vt 0.091769 0.089328
vt 0.009461 0.092807
vt 0.090121 0.085879
vt 0.091769 0.085879
vt 0.009461 0.085879
vt 0.007416 0.092807
vt 0.007416 0.089328
vt 0.007416 0.096194
vt 0.090121 0.082369
vt 0.091769 0.082369
vt 0.090121 0.078951
vt 0.091769 0.078951
vt 0.009461 0.078951
vt 0.009461 0.082369
vt 0.007416 0.082369
vt 0.007416 0.078951
vt 0.004364 0.078951
vt 0.007416 0.085879
vt 0.004364 0.082369
vt 0.003204 0.078951
vt 0.003204 0.082369
vt 0.004364 0.085879
vt 0.003204 0.085879
vt 0.004364 0.089328
vt 0.003204 0.089328
vt 0.004364 0.092807
vt 0.003204 0.092807
vt 0.004364 0.096194
vt 0.003204 0.096194
vt 0.007416 0.099704
vt 0.004364 0.099704
vt 0.003204 0.099704
vt 0.007416 0.103183
vt 0.004364 0.103183
vt 0.003204 0.103183
vt 0.003204 0.106632
vt 0.007416 0.106632
vt 0.004364 0.106632
vt 0.003204 0.110019
vt 0.004364 0.110019
vt 0.003204 0.113498
vt 0.007416 0.110019
vt 0.004364 0.113498
vt 0.003204 0.117008
vt 0.007416 0.113498
vt 0.004364 0.117008
vt 0.003204 0.120518
vt 0.007416 0.117008
vt 0.004364 0.120518
vt 0.096255 0.980193
vt 0.09415 0.978973
vt 0.094058 0.981536
vt 0.09183 0.978332
vt 0.097964 0.981933
vt 0.096591 0.9841
vt 0.099155 0.984039
vt 0.090579 0.98056
vt 0.089389 0.978301
vt 0.087039 0.978912
vt 0.097507 0.987579
vt 0.099765 0.986389
vt 0.099734 0.98883
vt 0.099094 0.99118
vt 0.090518 0.987518
vt 0.09653 0.991058
vt 0.097873 0.993255
vt 0.096133 0.994964
vt 0.093966 0.993591
vt 0.094028 0.996155
vt 0.091678 0.996765
vt 0.090457 0.994507
vt 0.089236 0.996734
vt 0.086886 0.996094
vt 0.087008 0.99353
vt 0.084811 0.994873
vt 0.083102 0.993133
vt 0.084475 0.990966
vt 0.081912 0.991028
vt 0.08356 0.987457
vt 0.081301 0.988678
vt 0.081332 0.986236
vt 0.084536 0.984008
vt 0.081973 0.983886
vt 0.083193 0.981811
vt 0.0871 0.981475
vt 0.084933 0.980102
vt 0.6039 0.351146
vt 0.601489 0.355266
vt 0.6039 0.355266
vt 0.601489 0.351146
vt 0.601489 0.359508
vt 0.6039 0.359508
vt 0.598773 0.359508
vt 0.598773 0.355266
vt 0.598773 0.351146
vt 0.596026 0.351146
vt 0.596026 0.355266
vt 0.596026 0.359508
vt 0.59331 0.351146
vt 0.59331 0.355266
vt 0.59331 0.359508
vt 0.590564 0.359508
vt 0.590564 0.355266
vt 0.590564 0.351146
vt 0.587817 0.355266
vt 0.587817 0.351146
vt 0.587817 0.359508
vt 0.58507 0.359508
vt 0.58507 0.355266
vt 0.58507 0.351146
vt 0.582354 0.351146
vt 0.582354 0.355266
vt 0.582354 0.359508
vt 0.579608 0.351146
vt 0.579608 0.355266
vt 0.579608 0.359508
vt 0.576861 0.351146
vt 0.576861 0.355266
vt 0.576861 0.359508
vt 0.574114 0.355266
vt 0.574114 0.359508
vt 0.574114 0.351146
vt 0.571398 0.359508
vt 0.571398 0.355266
vt 0.571398 0.351146
vt 0.568651 0.359508
vt 0.568651 0.355266
vt 0.568651 0.351146
vt 0.565905 0.355266
vt 0.565905 0.351146
vt 0.565905 0.359508
vt 0.563189 0.351146
vt 0.563189 0.355266
vt 0.563189 0.359508
vt 0.560442 0.351146
vt 0.560442 0.355266
vt 0.560442 0.359508
vt 0.557695 0.351146
vt 0.557695 0.355266
vt 0.557695 0.359508
vt 0.554979 0.359508
vt 0.554979 0.355266
vt 0.554979 0.351146
vt 0.552232 0.359508
vt 0.552232 0.355266
vt 0.552232 0.351146
vt 0.549486 0.359508
vt 0.549486 0.355266
vt 0.549486 0.351146
vt 0.54677 0.351146
vt 0.54677 0.355266
vt 0.54677 0.359508
vt 0.544023 0.351146
vt 0.544023 0.355266
vt 0.544023 0.359508
vt 0.541307 0.351146
vt 0.541307 0.355266
vt 0.541307 0.359508
vt 0.538499 0.359508
vt 0.538499 0.355266
vt 0.538499 0.351146
vt 0.515763 0.416059
vt 0.512772 0.422803
vt 0.515763 0.422803
vt 0.512772 0.416059
vt 0.512772 0.429151
vt 0.515763 0.429151
vt 0.50969 0.429151
vt 0.50969 0.422803
vt 0.50969 0.416059
vt 0.506638 0.416059
vt 0.506638 0.422803
vt 0.506638 0.429151
vt 0.503586 0.416059
vt 0.503586 0.422803
vt 0.503586 0.429151
vt 0.500534 0.429151
vt 0.500534 0.422803
vt 0.500534 0.416059
vt 0.497513 0.429151
vt 0.497513 0.422803
vt 0.494461 0.429151
vt 0.497513 0.416059
vt 0.494461 0.422803
vt 0.494461 0.416059
vt 0.491409 0.416059
vt 0.491409 0.422803
vt 0.491409 0.429151
vt 0.488357 0.416059
vt 0.488357 0.422803
vt 0.488357 0.429151
vt 0.485336 0.416059
vt 0.485336 0.422803
vt 0.485336 0.429151
vt 0.482284 0.429151
vt 0.482284 0.422803
vt 0.482284 0.416059
vt 0.479232 0.429151
vt 0.479232 0.422803
vt 0.479232 0.416059
vt 0.476211 0.429151
vt 0.476211 0.422803
vt 0.476211 0.416059
vt 0.473159 0.429151
vt 0.473159 0.422803
vt 0.473159 0.416059
vt 0.470107 0.416059
vt 0.470107 0.422803
vt 0.470107 0.429151
vt 0.467086 0.416059
vt 0.467086 0.422803
vt 0.467086 0.429151
vt 0.464034 0.416059
vt 0.464034 0.422803
vt 0.464034 0.429151
vt 0.460982 0.429151
vt 0.460982 0.422803
vt 0.460982 0.416059
vt 0.45793 0.429151
vt 0.45793 0.422803
vt 0.45793 0.416059
vt 0.454878 0.429151
vt 0.454878 0.422803
vt 0.454878 0.416059
vt 0.451827 0.416059
vt 0.451827 0.422803
vt 0.451827 0.429151
vt 0.448805 0.416059
vt 0.448805 0.422803
vt 0.448805 0.429151
vt 0.445753 0.416059
vt 0.445753 0.429151
vt 0.445753 0.422803
vt 0.442701 0.429151
vt 0.442701 0.422803
vt 0.442701 0.416059
vn -0.001 0.0069 -1
vn 0 -0.001 -1
vn 0.001 0.0069 -1
vn 0.0961 0.1666 -0.9813
vn -0.0011 0.1917 -0.9815
vn -0.0961 0.1666 -0.9813
vn 0.0224 -0.0193 -0.9996
vn -0.1666 0.0961 -0.9813
vn 0.0284 -0.0091 -0.9996
vn 0.0204 -0.0214 -0.9996
vn 0.0081 -0.0294 -0.9995
vn 0.0061 -0.0293 -0.9996
vn -0.193 -0.0011 -0.9812
vn 0.0303 -0.0051 -0.9995
vn 0.0294 0.0071 -0.9995
vn 0.0294 0.0091 -0.9995
vn -0.168 -0.0962 -0.9811
vn 0.0214 0.0214 -0.9995
vn -0.0974 -0.1668 -0.9812
vn 0.0091 0.0294 -0.9995
vn 0 -0.1941 -0.981
vn 0.0071 0.0294 -0.9995
vn -0.0091 0.0294 -0.9995
vn 0.0974 -0.1668 -0.9812
vn -0.0071 0.0294 -0.9995
vn -0.0214 0.0214 -0.9995
vn 0.0039 -0.0049 -1
vn 0.002 -0.0049 -1
vn 0.168 -0.0962 -0.9811
vn 0.0059 -0.001 -1
vn -0.0294 0.0091 -0.9995
vn 0.193 -0.0011 -0.9812
vn -0.0294 0.0071 -0.9995
vn -0.0303 -0.0051 -0.9995
vn 0.0069 0.001 -1
vn -0.0284 -0.0091 -0.9996
vn 0.1666 0.0961 -0.9813
vn 0.0049 0.003 -1
vn -0.0224 -0.0193 -0.9996
vn -0.0204 -0.0214 -0.9996
vn -0.0081 -0.0294 -0.9995
vn -0.0061 -0.0293 -0.9996
vn -0.002 -0.0049 -1
vn -0.0039 -0.0049 -1
vn -0.0059 -0.001 -1
vn -0.0069 0.001 -1
vn -0.0049 0.003 -1
vn 0.7713 0.5898 -0.2394
vn 0.4383 0.3346 -0.8342
vn 0.3346 0.4383 -0.8342
vn 0.7931 0.6084 0.0294
vn 0.8144 0.3382 0.4715
vn 0.6996 0.536 0.4725
vn 0.6084 0.7931 0.0294
vn 0.5898 0.7713 -0.2394
vn 0.2113 0.5091 -0.8344
vn 0.536 0.6996 0.4725
vn 0.3827 0.9234 0.03
vn 0.3734 0.8959 -0.2406
vn 0.3382 0.8144 0.4715
vn 0.1294 0.9911 0.0304
vn 0.0725 0.547 -0.834
vn 0.126 0.9625 -0.2403
vn -0.0725 0.547 -0.834
vn 0.1158 0.8734 0.4731
vn -0.126 0.9625 -0.2403
vn -0.2113 0.5091 -0.8344
vn -0.1294 0.9911 0.0304
vn -0.1158 0.8734 0.4731
vn 0.1315 0.9913 0.0077
vn -0.3734 0.8959 -0.2406
vn -0.3382 0.8144 0.4715
vn -0.3827 0.9234 0.03
vn -0.1315 0.9913 0.0077
vn 0.086 0.6547 0.751
vn 0.2541 0.6109 0.7498
vn 0.3818 0.9242 0.009
vn -0.086 0.6547 0.751
vn -0.3818 0.9242 0.009
vn -0.2541 0.6109 0.7498
vn -0.6072 0.7945 0.0069
vn -0.4017 0.5264 0.7494
vn -0.6084 0.7931 0.0294
vn -0.536 0.6996 0.4725
vn -0.7921 0.6103 0.0069
vn -0.5264 0.4017 0.7494
vn -0.7931 0.6084 0.0294
vn -0.6996 0.536 0.4725
vn -0.5898 0.7713 -0.2394
vn -0.3346 0.4383 -0.8342
vn -0.7713 0.5898 -0.2394
vn -0.4383 0.3346 -0.8342
vn -0.8144 0.3382 0.4715
vn -0.8975 0.3699 -0.2402
vn -0.5091 0.2113 -0.8344
vn -0.9625 0.126 -0.2403
vn -0.547 0.0725 -0.834
vn -0.8734 0.1158 0.4731
vn -0.9234 0.3827 0.03
vn -0.9242 0.3818 0.009
vn -0.6109 0.2541 0.7498
vn -0.6547 0.086 0.751
vn -0.9911 0.1294 0.0304
vn -0.9913 0.1315 0.0077
vn -0.6563 -0.086 0.7496
vn -0.9916 -0.1292 0.0088
vn -0.641 -0.1725 0.7479
vn -0.9659 -0.2589 0.0072
vn -0.9909 -0.1317 0.0293
vn -0.9656 -0.2585 0.0294
vn -0.8524 -0.229 0.4702
vn -0.8743 -0.1157 0.4714
vn -0.9629 -0.1259 -0.2388
vn -0.938 -0.2526 -0.2373
vn -0.5454 -0.0724 -0.8351
vn -0.5346 -0.1432 -0.8329
vn 0.1304 -0.9914 0.0088
vn 0.1305 -0.991 0.0292
vn 0.3829 -0.9238 0.0077
vn 0.3807 -0.9243 0.0287
vn 0.6094 -0.7928 0.0083
vn 0.6075 -0.7937 0.0308
vn 0.4033 -0.523 0.7509
vn 0.2524 -0.6104 0.7508
vn 0.5245 -0.4016 0.7507
vn 0.7925 -0.6091 0.0308
vn 0.794 -0.6079 0.0083
vn 0.6116 -0.2506 0.7504
vn 0.9236 -0.3822 0.0287
vn 0.9244 -0.3813 0.0077
vn 0.9909 -0.1317 0.0293
vn 0.9916 -0.1292 0.0088
vn 0.6563 -0.086 0.7496
vn 0.9911 0.1294 0.0304
vn 0.9913 0.1315 0.0077
vn 0.6547 0.086 0.751
vn 0.9234 0.3827 0.03
vn 0.9242 0.3818 0.009
vn 0.6109 0.2541 0.7498
vn 0.7921 0.6103 0.0069
vn 0.5264 0.4017 0.7494
vn 0.6072 0.7945 0.0069
vn 0.4017 0.5264 0.7494
vn -0.3829 -0.9238 0.0077
vn -0.3807 -0.9243 0.0287
vn -0.1304 -0.9914 0.0088
vn -0.0876 -0.6554 0.7502
vn 0.0876 -0.6554 0.7502
vn -0.2524 -0.6104 0.7508
vn -0.1305 -0.991 0.0292
vn -0.6094 -0.7928 0.0083
vn -0.4033 -0.523 0.7509
vn -0.6075 -0.7937 0.0308
vn -0.1142 -0.8748 0.4709
vn -0.3365 -0.8143 0.473
vn 0.1142 -0.8748 0.4709
vn -0.794 -0.6079 0.0083
vn -0.5245 -0.4016 0.7507
vn -0.8653 -0.5012 0.0081
vn -0.5758 -0.3316 0.7473
vn -0.8651 -0.5008 0.03
vn -0.7925 -0.6091 0.0308
vn -0.698 -0.5394 0.4709
vn -0.7661 -0.4403 0.4682
vn -0.8414 -0.4849 -0.2386
vn -0.5376 -0.6995 0.4708
vn -0.7703 -0.5903 -0.2411
vn -0.4786 -0.2781 -0.8328
vn -0.4365 -0.3344 -0.8353
vn -0.592 -0.769 -0.2412
vn -0.336 -0.435 -0.8354
vn -0.3713 -0.8973 -0.2387
vn -0.2095 -0.5086 -0.8351
vn -0.1273 -0.9626 -0.239
vn -0.071 -0.5464 -0.8345
vn 0.1273 -0.9626 -0.239
vn 0.071 -0.5464 -0.8345
vn 0.3365 -0.8143 0.473
vn 0.3713 -0.8973 -0.2387
vn 0.2095 -0.5086 -0.8351
vn 0.5376 -0.6995 0.4708
vn 0.592 -0.769 -0.2412
vn 0.336 -0.435 -0.8354
vn 0.4365 -0.3344 -0.8353
vn 0.698 -0.5394 0.4709
vn 0.7703 -0.5903 -0.2411
vn 0.5074 -0.2111 -0.8355
vn 0.8965 -0.3731 -0.2389
vn 0.5454 -0.0724 -0.8351
vn 0.8152 -0.3347 0.4726
vn 0.9629 -0.1259 -0.2388
vn 0.547 0.0725 -0.834
vn 0.8743 -0.1157 0.4714
vn 0.9625 0.126 -0.2403
vn 0.5091 0.2113 -0.8344
vn 0.8734 0.1158 0.4731
vn 0.8975 0.3699 -0.2402
vn 0 -0.001 1
vn -0.009 0.015 0.9998
vn 0.001 0.0169 0.9999
vn -0.015 0.009 0.9998
vn 0.009 0.015 0.9998
vn 0.015 0.009 0.9998
vn 0.0179 -0.001 0.9998
vn 0.016 -0.009 0.9998
vn 0.01 -0.015 0.9998
vn 0 -0.0189 0.9998
vn -0.01 -0.015 0.9998
vn -0.016 -0.009 0.9998
vn -0.0179 -0.001 0.9998
vn -0.8506 -0.4897 0.1917
vn -0.7655 -0.5907 0.2552
vn -0.838 -0.4821 0.2557
vn -0.779 -0.5965 0.1932
vn -0.7492 -0.5764 0.3262
vn -0.8185 -0.4756 0.3223
vn -0.5747 -0.7506 0.3261
vn -0.5889 -0.7669 0.2551
vn -0.5982 -0.7777 0.1933
vn -0.3748 -0.9068 0.1932
vn -0.3713 -0.8927 0.2555
vn -0.3636 -0.8723 0.3269
vn -0.129 -0.9728 0.1923
vn -0.1258 -0.9582 0.2569
vn -0.1248 -0.9373 0.3255
vn 0.1248 -0.9373 0.3255
vn 0.1258 -0.9582 0.2569
vn 0.129 -0.9728 0.1923
vn 0.3713 -0.8927 0.2555
vn 0.3748 -0.9068 0.1932
vn 0.3636 -0.8723 0.3269
vn 0.5747 -0.7506 0.3261
vn 0.5889 -0.7669 0.2551
vn 0.5982 -0.7777 0.1933
vn 0.779 -0.5965 0.1932
vn 0.7655 -0.5907 0.2552
vn 0.7492 -0.5764 0.3262
vn 0.906 -0.3765 0.1933
vn 0.8935 -0.3696 0.2553
vn 0.8732 -0.3618 0.3267
vn 0.973 -0.1276 0.1921
vn 0.9585 -0.1244 0.2566
vn 0.9376 -0.1233 0.3252
vn 0.9584 0.1272 0.2557
vn 0.937 0.1234 0.3268
vn 0.9727 0.1278 0.1935
vn 0.874 0.3615 0.3249
vn 0.8928 0.3699 0.257
vn 0.9065 0.3762 0.1917
vn 0.7503 0.576 0.3243
vn 0.7673 0.5877 0.2568
vn 0.7772 0.5994 0.1916
vn 0.5877 0.7673 0.2568
vn 0.596 0.7798 0.1915
vn 0.576 0.7503 0.3243
vn 0.3762 0.9065 0.1917
vn 0.3699 0.8928 0.257
vn 0.3615 0.874 0.3249
vn 0.1278 0.9727 0.1935
vn 0.1272 0.9584 0.2557
vn 0.1234 0.937 0.3268
vn -0.1278 0.9727 0.1935
vn -0.1272 0.9584 0.2557
vn -0.1234 0.937 0.3268
vn -0.3615 0.874 0.3249
vn -0.3699 0.8928 0.257
vn -0.3762 0.9065 0.1917
vn -0.576 0.7503 0.3243
vn -0.5877 0.7673 0.2568
vn -0.596 0.7798 0.1915
vn -0.7503 0.576 0.3243
vn -0.7673 0.5877 0.2568
vn -0.7772 0.5994 0.1916
vn -0.9065 0.3762 0.1917
vn -0.8928 0.3699 0.257
vn -0.874 0.3615 0.3249
vn -0.9727 0.1278 0.1935
vn -0.9584 0.1272 0.2557
vn -0.937 0.1234 0.3268
vn -0.973 -0.1276 0.1921
vn -0.9585 -0.1244 0.2566
vn -0.9376 -0.1233 0.3252
vn -0.9135 -0.245 0.3248
vn -0.9341 -0.2518 0.2532
vn -0.948 -0.2547 0.1907
vn -0.865 -0.5014 0.0162
vn -0.7917 -0.6093 0.0452
vn -0.8649 -0.5 0.0441
vn -0.7932 -0.6088 0.0166
vn -0.7906 -0.6074 0.0779
vn -0.8632 -0.4991 0.0759
vn -0.6058 -0.7918 0.0779
vn -0.6077 -0.7929 0.0452
vn -0.6072 -0.7944 0.0166
vn -0.3834 -0.9234 0.0181
vn -0.3828 -0.9227 0.0449
vn -0.3805 -0.9215 0.0783
vn -0.1316 -0.9911 0.0178
vn -0.1299 -0.9905 0.0456
vn -0.131 -0.9884 0.0772
vn 0.131 -0.9884 0.0772
vn 0.1299 -0.9905 0.0456
vn 0.1316 -0.9911 0.0178
vn 0.3805 -0.9215 0.0783
vn 0.3828 -0.9227 0.0449
vn 0.6058 -0.7918 0.0779
vn 0.3834 -0.9234 0.0181
vn 0.6077 -0.7929 0.0452
vn 0.6072 -0.7944 0.0166
vn 0.7932 -0.6088 0.0166
vn 0.7917 -0.6093 0.0452
vn 0.7906 -0.6074 0.0779
vn 0.9241 -0.3818 0.0181
vn 0.9234 -0.3812 0.0449
vn 0.9208 -0.3821 0.0783
vn 0.9913 -0.1303 0.0178
vn 0.9903 -0.1312 0.0456
vn 0.9885 -0.1297 0.0771
vn 0.9884 0.1298 0.0784
vn 0.9904 0.1311 0.0444
vn 0.991 0.1327 0.0167
vn 0.9211 0.3817 0.0769
vn 0.9231 0.3817 0.0462
vn 0.923 0.3845 0.0168
vn 0.7912 0.6067 0.0764
vn 0.7922 0.6086 0.0438
vn 0.7926 0.6094 0.018
vn 0.6067 0.7912 0.0764
vn 0.6086 0.7922 0.0438
vn 0.6094 0.7926 0.018
vn 0.3813 0.9243 0.0168
vn 0.3817 0.9231 0.0462
vn 0.3817 0.9211 0.0769
vn 0.1302 0.9914 0.0167
vn 0.1311 0.9904 0.0444
vn 0.1298 0.9884 0.0784
vn -0.1302 0.9914 0.0167
vn -0.1311 0.9904 0.0444
vn -0.1298 0.9884 0.0784
vn -0.3817 0.9211 0.0769
vn -0.3817 0.9231 0.0462
vn -0.3813 0.9243 0.0168
vn -0.6067 0.7912 0.0764
vn -0.6086 0.7922 0.0438
vn -0.6094 0.7926 0.018
vn -0.7912 0.6067 0.0764
vn -0.7922 0.6086 0.0438
vn -0.7926 0.6094 0.018
vn -0.923 0.3845 0.0168
vn -0.9231 0.3817 0.0462
vn -0.9211 0.3817 0.0769
vn -0.991 0.1327 0.0167
vn -0.9904 0.1311 0.0444
vn -0.9884 0.1298 0.0784
vn -0.9913 -0.1303 0.0178
vn -0.9885 -0.1297 0.0771
vn -0.9903 -0.1312 0.0456
vn -0.9633 -0.2573 0.0761
vn -0.9648 -0.2592 0.0446
vn -0.9659 -0.2585 0.017
o cylbullet5__p1_c0
f 1/1/1 2/2/2 3/3/2
f 1/1/1 3/3/2 4/4/3
f 4/4/3 3/3/2 5/5/2
f 4/4/3 5/5/2 6/6/3
f 6/6/3 5/5/2 7/7/2
f 4/4/3 6/6/3 8/8/4
f 1/1/1 4/4/3 9/9/5
f 9/9/5 4/4/3 8/8/4
f 1/1/1 9/9/5 10/10/6
f 11/11/7 12/12/8 10/10/6
f 12/12/8 11/11/7 13/13/9
f 11/11/7 10/10/6 14/14/10
f 14/14/10 10/10/6 15/15/11
f 15/15/11 10/10/6 9/9/5
f 15/15/11 9/9/5 16/16/12
f 12/12/8 13/13/9 17/17/13
f 17/17/13 13/13/9 18/18/14
f 17/17/13 18/18/14 19/19/15
f 17/17/13 19/19/15 20/20/16
f 17/17/13 20/20/16 21/21/17
f 21/21/17 20/20/16 22/22/18
f 21/21/17 22/22/18 23/23/18
f 21/21/17 23/23/18 24/24/19
f 24/24/19 23/23/18 25/25/20
f 24/24/19 25/25/20 26/26/21
f 26/26/21 25/25/20 27/27/22
f 28/28/23 29/29/24 26/26/21
f 28/28/23 26/26/21 30/30/25
f 30/30/25 26/26/21 27/27/22
f 28/28/23 30/30/25 31/31/26
f 28/28/23 31/31/26 29/29/24
f 30/30/25 27/27/22 32/32/26
f 30/30/25 32/32/26 31/31/26
f 31/31/26 32/32/26 29/29/24
f 32/32/26 27/27/22 25/25/20
f 33/33/27 34/34/28 29/29/24
f 33/33/27 29/29/24 35/35/27
f 35/35/27 29/29/24 36/36/29
f 36/36/29 29/29/24 32/32/26
f 35/35/27 36/36/29 37/37/30
f 37/37/30 36/36/29 38/38/30
f 32/32/26 25/25/20 39/39/31
f 32/32/26 39/39/31 36/36/29
f 39/39/31 25/25/20 23/23/18
f 38/38/30 36/36/29 40/40/32
f 40/40/32 36/36/29 39/39/31
f 39/39/31 23/23/18 41/41/33
f 39/39/31 41/41/33 40/40/32
f 41/41/33 23/23/18 42/42/34
f 41/41/33 42/42/34 40/40/32
f 42/42/34 23/23/18 22/22/18
f 38/38/30 40/40/32 43/43/35
f 42/42/34 22/22/18 20/20/16
f 42/42/34 20/20/16 44/44/36
f 42/42/34 44/44/36 40/40/32
f 44/44/36 20/20/16 19/19/15
f 43/43/35 40/40/32 45/45/37
f 45/45/37 40/40/32 44/44/36
f 43/43/35 45/45/37 46/46/38
f 46/46/38 45/45/37 47/47/38
f 47/47/38 45/45/37 48/48/38
f 45/45/37 44/44/36 49/49/39
f 49/49/39 44/44/36 19/19/15
f 48/48/38 45/45/37 8/8/4
f 8/8/4 45/45/37 49/49/39
f 48/48/38 8/8/4 6/6/3
f 49/49/39 19/19/15 50/50/40
f 49/49/39 50/50/40 8/8/4
f 50/50/40 19/19/15 18/18/14
f 50/50/40 18/18/14 13/13/9
f 8/8/4 50/50/40 51/51/41
f 51/51/41 50/50/40 13/13/9
f 8/8/4 51/51/41 9/9/5
f 51/51/41 13/13/9 52/52/42
f 51/51/41 52/52/42 9/9/5
f 52/52/42 13/13/9 11/11/7
f 9/9/5 52/52/42 16/16/12
f 52/52/42 11/11/7 14/14/10
f 52/52/42 14/14/10 16/16/12
f 16/16/12 14/14/10 15/15/11
f 53/53/2 47/47/38 54/54/2
f 54/54/2 47/47/38 48/48/38
f 47/47/38 53/53/2 46/46/38
f 54/54/2 48/48/38 7/7/2
f 46/46/38 53/53/2 55/55/2
f 7/7/2 48/48/38 6/6/3
f 46/46/38 55/55/2 43/43/35
f 43/43/35 55/55/2 38/38/30
f 38/38/30 55/55/2 56/56/2
f 38/38/30 56/56/2 57/57/2
f 38/38/30 57/57/2 37/37/30
f 37/37/30 57/57/2 58/58/2
f 37/37/30 58/58/2 35/35/27
f 35/35/27 58/58/2 59/59/2
f 35/35/27 59/59/2 33/33/27
f 33/33/27 59/59/2 60/60/2
f 33/33/27 60/60/2 34/34/28
f 34/34/28 60/60/2 61/61/28
f 61/61/28 60/60/2 62/62/2
f 34/34/28 61/61/28 29/29/24
f 61/61/28 62/62/2 63/63/43
f 63/63/43 62/62/2 64/64/2
f 61/61/28 63/63/43 26/26/21
f 61/61/28 26/26/21 29/29/24
f 63/63/43 64/64/2 65/65/43
f 65/65/43 64/64/2 66/66/2
f 63/63/43 65/65/43 24/24/19
f 63/63/43 24/24/19 26/26/21
f 65/65/43 66/66/2 67/67/44
f 65/65/43 67/67/44 24/24/19
f 67/67/44 66/66/2 68/68/2
f 67/67/44 68/68/2 69/69/44
f 69/69/44 68/68/2 70/70/2
f 24/24/19 67/67/44 21/21/17
f 21/21/17 67/67/44 69/69/44
f 69/69/44 70/70/2 71/71/45
f 69/69/44 71/71/45 21/21/17
f 71/71/45 70/70/2 72/72/2
f 71/71/45 72/72/2 73/73/45
f 71/71/45 73/73/45 21/21/17
f 73/73/45 72/72/2 74/74/2
f 73/73/45 74/74/2 75/75/46
f 75/75/46 74/74/2 76/76/2
f 73/73/45 75/75/46 17/17/13
f 73/73/45 17/17/13 21/21/17
f 75/75/46 76/76/2 77/77/47
f 77/77/47 76/76/2 78/78/2
f 75/75/46 77/77/47 12/12/8
f 75/75/46 12/12/8 17/17/13
f 77/77/47 78/78/2 79/79/47
f 77/77/47 79/79/47 12/12/8
f 79/79/47 78/78/2 80/80/2
f 79/79/47 80/80/2 81/81/47
f 81/81/47 80/80/2 82/82/2
f 81/81/47 82/82/2 83/83/2
f 79/79/47 81/81/47 10/10/6
f 79/79/47 10/10/6 12/12/8
f 81/81/47 83/83/2 84/84/1
f 81/81/47 84/84/1 10/10/6
f 84/84/1 83/83/2 2/2/2
f 84/84/1 2/2/2 1/1/1
f 84/84/1 1/1/1 10/10/6
f 85/85/48 70/86/49 68/87/50
f 86/88/51 87/89/52 88/90/53
f 88/90/53 87/89/52 85/85/48
f 86/88/51 88/90/53 89/91/54
f 85/85/48 68/87/50 90/92/55
f 85/85/48 90/92/55 88/90/53
f 90/92/55 68/87/50 66/93/56
f 89/91/54 88/90/53 91/94/57
f 91/94/57 88/90/53 90/92/55
f 89/91/54 91/94/57 92/95/58
f 90/92/55 66/93/56 93/96/59
f 90/92/55 93/96/59 91/94/57
f 92/95/58 91/94/57 94/97/60
f 94/97/60 91/94/57 93/96/59
f 92/95/58 94/97/60 95/98/61
f 64/99/62 93/96/59 66/93/56
f 93/96/59 64/99/62 96/100/63
f 93/96/59 96/100/63 94/97/60
f 96/100/63 64/99/62 62/101/64
f 95/98/61 94/97/60 97/102/65
f 97/102/65 94/97/60 96/100/63
f 96/100/63 62/101/64 98/103/66
f 96/100/63 98/103/66 97/102/65
f 98/103/66 62/101/64 60/104/67
f 95/98/61 97/102/65 99/105/68
f 97/102/65 98/103/66 100/106/69
f 97/102/65 100/106/69 99/105/68
f 95/98/61 99/105/68 101/107/70
f 100/106/69 98/103/66 102/108/71
f 102/108/71 98/103/66 60/104/67
f 100/106/69 102/108/71 103/109/72
f 99/105/68 100/106/69 104/110/73
f 104/110/73 100/106/69 103/109/72
f 101/107/70 99/105/68 105/111/74
f 105/111/74 99/105/68 104/110/73
f 101/107/70 105/111/74 106/112/75
f 101/107/70 106/112/75 107/113/76
f 101/107/70 107/113/76 108/114/77
f 106/112/75 105/111/74 109/115/78
f 109/115/78 105/111/74 110/116/79
f 110/116/79 105/111/74 104/110/73
f 109/115/78 110/116/79 111/117/80
f 111/117/80 110/116/79 112/118/81
f 111/117/80 112/118/81 113/119/82
f 110/116/79 104/110/73 114/120/83
f 110/116/79 114/120/83 112/118/81
f 114/120/83 104/110/73 115/121/84
f 115/121/84 104/110/73 103/109/72
f 115/121/84 103/109/72 102/108/71
f 113/119/82 112/118/81 116/122/85
f 113/119/82 116/122/85 117/123/86
f 112/118/81 114/120/83 118/124/87
f 112/118/81 118/124/87 116/122/85
f 114/120/83 115/121/84 119/125/88
f 114/120/83 119/125/88 118/124/87
f 115/121/84 102/108/71 120/126/89
f 115/121/84 120/126/89 119/125/88
f 120/126/89 102/108/71 60/104/67
f 120/126/89 60/104/67 59/127/90
f 120/126/89 59/127/90 121/128/91
f 120/126/89 121/128/91 119/125/88
f 121/128/91 59/127/90 58/129/92
f 122/130/93 118/124/87 119/125/88
f 122/130/93 119/125/88 121/128/91
f 121/128/91 58/129/92 123/131/94
f 121/128/91 123/131/94 122/130/93
f 123/131/94 58/129/92 57/132/95
f 123/131/94 57/132/95 124/133/96
f 124/133/96 57/132/95 56/134/97
f 122/130/93 123/131/94 125/135/98
f 125/135/98 123/131/94 124/133/96
f 126/136/99 118/124/87 122/130/93
f 126/136/99 122/130/93 125/135/98
f 118/124/87 126/136/99 127/137/100
f 118/124/87 127/137/100 116/122/85
f 116/122/85 127/137/100 117/123/86
f 117/123/86 127/137/100 128/138/101
f 128/138/101 127/137/100 129/139/102
f 126/136/99 125/135/98 130/140/103
f 126/136/99 130/140/103 127/137/100
f 129/139/102 127/137/100 131/141/104
f 131/141/104 127/137/100 130/140/103
f 129/139/102 131/141/104 132/142/105
f 132/142/105 131/141/104 133/143/106
f 133/143/106 131/141/104 130/140/103
f 132/142/105 133/143/106 134/144/107
f 134/144/107 133/143/106 135/145/108
f 135/145/108 133/143/106 136/146/109
f 136/146/109 133/143/106 130/140/103
f 135/145/108 136/146/109 137/147/110
f 137/147/110 136/146/109 138/148/111
f 136/146/109 130/140/103 139/149/112
f 136/146/109 139/149/112 138/148/111
f 139/149/112 130/140/103 125/135/98
f 139/149/112 125/135/98 124/133/96
f 138/148/111 139/149/112 140/150/113
f 140/150/113 139/149/112 124/133/96
f 140/150/113 124/133/96 56/134/97
f 138/148/111 140/150/113 141/151/114
f 140/150/113 56/134/97 55/152/115
f 140/150/113 55/152/115 141/151/114
f 141/151/114 55/152/115 53/153/116
f 142/154/117 143/155/118 144/156/119
f 144/156/119 143/155/118 145/157/120
f 144/156/119 145/157/120 146/158/121
f 146/158/121 145/157/120 147/159/122
f 148/160/123 149/161/124 144/156/119
f 148/160/123 144/156/119 146/158/121
f 148/160/123 146/158/121 150/162/125
f 146/158/121 147/159/122 151/163/126
f 150/162/125 146/158/121 152/164/127
f 152/164/127 146/158/121 151/163/126
f 150/162/125 152/164/127 153/165/128
f 152/164/127 151/163/126 154/166/129
f 152/164/127 154/166/129 155/167/130
f 152/164/127 155/167/130 153/165/128
f 155/167/130 154/166/129 156/168/131
f 153/165/128 155/167/130 157/169/132
f 157/169/132 155/167/130 156/168/131
f 153/165/128 157/169/132 158/170/133
f 157/169/132 156/168/131 159/171/134
f 158/170/133 157/169/132 160/172/135
f 160/172/135 157/169/132 159/171/134
f 158/170/133 160/172/135 161/173/136
f 160/172/135 159/171/134 162/174/137
f 161/173/136 160/172/135 163/175/138
f 163/175/138 160/172/135 162/174/137
f 161/173/136 163/175/138 164/176/139
f 163/175/138 162/174/137 86/88/51
f 164/176/139 163/175/138 165/177/140
f 165/177/140 163/175/138 86/88/51
f 164/176/139 165/177/140 166/178/141
f 165/177/140 86/88/51 89/91/54
f 166/178/141 165/177/140 167/179/142
f 167/179/142 165/177/140 89/91/54
f 166/178/141 167/179/142 168/180/143
f 167/179/142 89/91/54 108/114/77
f 167/179/142 108/114/77 168/180/143
f 168/180/143 108/114/77 107/113/76
f 108/114/77 89/91/54 92/95/58
f 108/114/77 92/95/58 95/98/61
f 108/114/77 95/98/61 101/107/70
f 169/181/144 170/182/145 171/183/146
f 169/181/144 171/183/146 172/184/147
f 172/184/147 171/183/146 173/185/148
f 169/181/144 172/184/147 174/186/149
f 173/185/148 171/183/146 142/154/117
f 173/185/148 142/154/117 149/161/124
f 149/161/124 142/154/117 144/156/119
f 142/154/117 171/183/146 175/187/150
f 175/187/150 171/183/146 170/182/145
f 142/154/117 175/187/150 143/155/118
f 169/181/144 174/186/149 176/188/151
f 176/188/151 174/186/149 177/189/152
f 178/190/153 170/182/145 169/181/144
f 178/190/153 169/181/144 176/188/151
f 175/187/150 170/182/145 179/191/154
f 170/182/145 178/190/153 180/192/155
f 170/182/145 180/192/155 179/191/154
f 175/187/150 179/191/154 181/193/156
f 175/187/150 181/193/156 143/155/118
f 182/194/157 176/188/151 177/189/152
f 182/194/157 177/189/152 183/195/158
f 182/194/157 183/195/158 135/196/159
f 135/196/159 183/195/158 134/197/160
f 182/194/157 135/196/159 137/198/161
f 176/188/151 182/194/157 184/199/162
f 184/199/162 182/194/157 137/198/161
f 176/188/151 184/199/162 178/190/153
f 184/199/162 137/198/161 185/200/163
f 185/200/163 137/198/161 138/201/164
f 185/200/163 138/201/164 141/202/165
f 178/190/153 184/199/162 186/203/166
f 186/203/166 184/199/162 185/200/163
f 178/190/153 186/203/166 180/192/155
f 185/200/163 141/202/165 187/204/167
f 185/200/163 187/204/167 186/203/166
f 187/204/167 141/202/165 53/205/168
f 187/204/167 53/205/168 54/206/169
f 186/203/166 187/204/167 188/207/170
f 188/207/170 187/204/167 54/206/169
f 186/203/166 188/207/170 180/192/155
f 188/207/170 54/206/169 7/208/171
f 180/192/155 188/207/170 189/209/172
f 189/209/172 188/207/170 7/208/171
f 180/192/155 189/209/172 179/191/154
f 189/209/172 7/208/171 5/210/173
f 179/191/154 189/209/172 190/211/174
f 190/211/174 189/209/172 5/210/173
f 179/191/154 190/211/174 181/193/156
f 190/211/174 5/210/173 3/212/175
f 190/211/174 3/212/175 191/213/176
f 190/211/174 191/213/176 181/193/156
f 191/213/176 3/212/175 2/214/177
f 181/193/156 191/213/176 192/215/178
f 181/193/156 192/215/178 143/155/118
f 143/155/118 192/215/178 145/157/120
f 191/213/176 2/214/177 193/216/179
f 191/213/176 193/216/179 192/215/178
f 193/216/179 2/214/177 83/217/180
f 145/157/120 192/215/178 194/218/181
f 194/218/181 192/215/178 193/216/179
f 145/157/120 194/218/181 147/159/122
f 194/218/181 193/216/179 195/219/182
f 195/219/182 193/216/179 83/217/180
f 195/219/182 83/217/180 82/220/183
f 195/219/182 82/220/183 80/221/184
f 147/159/122 194/218/181 196/222/185
f 196/222/185 194/218/181 195/219/182
f 147/159/122 196/222/185 151/163/126
f 195/219/182 80/221/184 197/223/186
f 195/219/182 197/223/186 196/222/185
f 197/223/186 80/221/184 78/224/187
f 151/163/126 196/222/185 154/166/129
f 197/223/186 78/224/187 198/225/188
f 197/223/186 198/225/188 196/222/185
f 198/225/188 78/224/187 76/226/189
f 154/166/129 196/222/185 199/227/190
f 199/227/190 196/222/185 198/225/188
f 154/166/129 199/227/190 156/168/131
f 198/225/188 76/226/189 200/228/191
f 198/225/188 200/228/191 199/227/190
f 200/228/191 76/226/189 74/229/192
f 156/168/131 199/227/190 201/230/193
f 201/230/193 199/227/190 200/228/191
f 156/168/131 201/230/193 159/171/134
f 200/228/191 74/229/192 202/231/194
f 200/228/191 202/231/194 201/230/193
f 202/231/194 74/229/192 72/232/195
f 159/171/134 201/230/193 203/233/196
f 203/233/196 201/230/193 202/231/194
f 159/171/134 203/233/196 162/174/137
f 202/231/194 72/232/195 204/234/197
f 202/231/194 204/234/197 203/233/196
f 204/234/197 72/232/195 70/86/49
f 162/174/137 203/233/196 87/89/52
f 87/89/52 203/233/196 204/234/197
f 162/174/137 87/89/52 86/88/51
f 204/234/197 70/86/49 85/85/48
f 204/234/197 85/85/48 87/89/52
f 205/235/198 206/236/198 207/237/199
f 207/237/199 206/236/198 208/238/198
f 205/235/198 207/237/199 209/239/198
f 209/239/198 207/237/199 210/240/200
f 209/239/198 210/240/200 211/241/198
f 207/237/199 208/238/198 212/242/201
f 212/242/201 208/238/198 213/243/198
f 212/242/201 213/243/198 214/244/198
f 211/241/198 210/240/200 215/245/202
f 211/241/198 215/245/202 216/246/198
f 216/246/198 215/245/202 217/247/198
f 217/247/198 215/245/202 218/248/198
f 219/249/198 210/240/200 207/237/199
f 219/249/198 207/237/199 212/242/201
f 210/240/200 219/249/198 215/245/202
f 218/248/198 215/245/202 220/250/203
f 220/250/203 215/245/202 219/249/198
f 218/248/198 220/250/203 221/251/198
f 221/251/198 220/250/203 222/252/198
f 222/252/198 220/250/203 223/253/204
f 222/252/198 223/253/204 224/254/198
f 224/254/198 223/253/204 225/255/198
f 225/255/198 223/253/204 226/256/205
f 225/255/198 226/256/205 227/257/198
f 227/257/198 226/256/205 228/258/198
f 228/258/198 226/256/205 229/259/206
f 228/258/198 229/259/206 230/260/198
f 229/259/206 226/256/205 219/249/198
f 230/260/198 229/259/206 231/261/198
f 231/261/198 229/259/206 232/262/207
f 232/262/207 229/259/206 219/249/198
f 231/261/198 232/262/207 233/263/198
f 233/263/198 232/262/207 234/264/208
f 234/264/208 232/262/207 219/249/198
f 233/263/198 234/264/208 235/265/198
f 235/265/198 234/264/208 236/266/198
f 236/266/198 234/264/208 237/267/209
f 237/267/209 234/264/208 219/249/198
f 236/266/198 237/267/209 238/268/198
f 238/268/198 237/267/209 239/269/198
f 239/269/198 237/267/209 240/270/210
f 240/270/210 237/267/209 219/249/198
f 239/269/198 240/270/210 241/271/198
f 241/271/198 240/270/210 214/244/198
f 214/244/198 240/270/210 212/242/201
f 212/242/201 240/270/210 219/249/198
f 223/253/204 220/250/203 219/249/198
f 223/253/204 219/249/198 226/256/205
f 242/272/211 243/273/212 244/274/213
f 243/273/212 242/272/211 245/275/214
f 244/274/213 243/273/212 218/276/215
f 244/274/213 218/276/215 221/277/216
f 218/276/215 243/273/212 217/278/217
f 243/273/212 245/275/214 246/279/218
f 243/273/212 246/279/218 217/278/217
f 246/279/218 245/275/214 247/280/219
f 246/279/218 247/280/219 248/281/220
f 217/278/217 246/279/218 249/282/221
f 249/282/221 246/279/218 248/281/220
f 217/278/217 249/282/221 216/283/222
f 249/282/221 248/281/220 250/284/223
f 216/283/222 249/282/221 251/285/224
f 251/285/224 249/282/221 250/284/223
f 216/283/222 251/285/224 211/286/225
f 211/286/225 251/285/224 209/287/226
f 209/287/226 251/285/224 252/288/227
f 252/288/227 251/285/224 250/284/223
f 252/288/227 250/284/223 253/289/228
f 252/288/227 253/289/228 254/290/229
f 254/290/229 253/289/228 255/291/230
f 252/288/227 254/290/229 205/292/231
f 252/288/227 205/292/231 209/287/226
f 205/292/231 254/290/229 206/293/232
f 254/290/229 255/291/230 256/294/233
f 254/290/229 256/294/233 206/293/232
f 256/294/233 255/291/230 257/295/234
f 256/294/233 257/295/234 258/296/235
f 206/293/232 256/294/233 259/297/236
f 259/297/236 256/294/233 258/296/235
f 206/293/232 259/297/236 208/298/237
f 259/297/236 258/296/235 260/299/238
f 208/298/237 259/297/236 261/300/239
f 261/300/239 259/297/236 260/299/238
f 208/298/237 261/300/239 213/301/240
f 261/300/239 260/299/238 262/302/241
f 213/301/240 261/300/239 263/303/242
f 263/303/242 261/300/239 262/302/241
f 213/301/240 263/303/242 214/304/243
f 263/303/242 262/302/241 264/305/244
f 263/303/242 264/305/244 214/304/243
f 214/304/243 264/305/244 241/306/245
f 264/305/244 262/302/241 265/307/246
f 241/306/245 264/305/244 239/308/247
f 264/305/244 265/307/246 266/309/248
f 264/305/244 266/309/248 239/308/247
f 266/309/248 265/307/246 267/310/249
f 239/308/247 266/309/248 238/311/250
f 266/309/248 267/310/249 268/312/251
f 266/309/248 268/312/251 238/311/250
f 268/312/251 267/310/249 269/313/252
f 238/311/250 268/312/251 270/314/253
f 270/314/253 268/312/251 269/313/252
f 270/314/253 269/313/252 271/315/254
f 238/311/250 270/314/253 236/316/255
f 270/314/253 271/315/254 272/317/256
f 236/316/255 270/314/253 273/318/257
f 273/318/257 270/314/253 272/317/256
f 236/316/255 273/318/257 235/319/258
f 273/318/257 272/317/256 274/320/259
f 235/319/258 273/318/257 275/321/260
f 275/321/260 273/318/257 274/320/259
f 235/319/258 275/321/260 233/322/261
f 275/321/260 274/320/259 276/323/262
f 275/321/260 276/323/262 277/324/263
f 275/321/260 277/324/263 233/322/261
f 233/322/261 277/324/263 231/325/264
f 231/325/264 277/324/263 230/326/265
f 277/324/263 276/323/262 278/327/266
f 277/324/263 278/327/266 230/326/265
f 278/327/266 276/323/262 279/328/267
f 230/326/265 278/327/266 228/329/268
f 278/327/266 279/328/267 280/330/269
f 278/327/266 280/330/269 228/329/268
f 280/330/269 279/328/267 281/331/270
f 228/329/268 280/330/269 227/332/271
f 280/330/269 281/331/270 282/333/272
f 280/330/269 282/333/272 227/332/271
f 282/333/272 281/331/270 283/334/273
f 282/333/272 283/334/273 284/335/274
f 227/332/271 282/333/272 285/336/275
f 285/336/275 282/333/272 284/335/274
f 227/332/271 285/336/275 225/337/276
f 285/336/275 284/335/274 286/338/277
f 225/337/276 285/336/275 287/339/278
f 287/339/278 285/336/275 286/338/277
f 225/337/276 287/339/278 224/340/279
f 287/339/278 286/338/277 288/341/280
f 224/340/279 287/339/278 289/342/281
f 289/342/281 287/339/278 288/341/280
f 224/340/279 289/342/281 222/343/282
f 222/343/282 289/342/281 221/344/283
f 221/344/283 289/342/281 244/345/284
f 244/345/284 289/342/281 288/341/280
f 244/345/284 288/341/280 242/346/285
f 134/347/286 290/348/287 291/349/288
f 290/348/287 134/347/286 183/350/289
f 291/349/288 290/348/287 245/351/290
f 291/349/288 245/351/290 242/352/291
f 245/351/290 290/348/287 247/353/292
f 290/348/287 183/350/289 292/354/293
f 290/348/287 292/354/293 247/353/292
f 292/354/293 183/350/289 177/355/294
f 292/354/293 177/355/294 174/356/295
f 247/353/292 292/354/293 293/357/296
f 293/357/296 292/354/293 174/356/295
f 247/353/292 293/357/296 248/358/297
f 293/357/296 174/356/295 172/359/298
f 248/358/297 293/357/296 294/360/299
f 294/360/299 293/357/296 172/359/298
f 248/358/297 294/360/299 250/361/300
f 250/361/300 294/360/299 253/362/301
f 294/360/299 172/359/298 295/363/302
f 294/360/299 295/363/302 253/362/301
f 295/363/302 172/359/298 173/364/303
f 295/363/302 255/365/304 253/362/301
f 255/365/304 295/363/302 296/366/305
f 296/366/305 295/363/302 173/364/303
f 255/365/304 296/366/305 257/367/306
f 296/366/305 173/364/303 149/368/307
f 296/366/305 149/368/307 297/369/308
f 296/366/305 297/369/308 257/367/306
f 297/369/308 149/368/307 148/370/309
f 297/369/308 148/370/309 150/371/310
f 257/367/306 297/369/308 298/372/311
f 298/372/311 297/369/308 150/371/310
f 257/367/306 298/372/311 258/373/312
f 298/372/311 150/371/310 153/374/313
f 258/373/312 298/372/311 299/375/314
f 299/375/314 298/372/311 153/374/313
f 258/373/312 299/375/314 260/376/315
f 299/375/314 153/374/313 158/377/316
f 260/376/315 299/375/314 300/378/317
f 300/378/317 299/375/314 158/377/316
f 260/376/315 300/378/317 262/379/318
f 262/379/318 300/378/317 265/380/319
f 300/378/317 158/377/316 301/381/320
f 300/378/317 301/381/320 265/380/319
f 301/381/320 158/377/316 161/382/321
f 265/380/319 301/381/320 267/383/322
f 301/381/320 161/382/321 302/384/323
f 301/381/320 302/384/323 267/383/322
f 302/384/323 161/382/321 164/385/324
f 267/383/322 302/384/323 269/386/325
f 302/384/323 164/385/324 303/387/326
f 302/384/323 303/387/326 269/386/325
f 303/387/326 164/385/324 166/388/327
f 269/386/325 303/387/326 271/389/328
f 303/387/326 166/388/327 304/390/329
f 303/387/326 304/390/329 271/389/328
f 304/390/329 166/388/327 168/391/330
f 304/390/329 168/391/330 107/392/331
f 271/389/328 304/390/329 305/393/332
f 305/393/332 304/390/329 107/392/331
f 271/389/328 305/393/332 272/394/333
f 305/393/332 107/392/331 106/395/334
f 272/394/333 305/393/332 306/396/335
f 306/396/335 305/393/332 106/395/334
f 272/394/333 306/396/335 274/397/336
f 306/396/335 106/395/334 109/398/337
f 307/399/338 274/397/336 306/396/335
f 307/399/338 306/396/335 109/398/337
f 274/397/336 307/399/338 276/400/339
f 276/400/339 307/399/338 279/401/340
f 307/399/338 109/398/337 308/402/341
f 307/399/338 308/402/341 279/401/340
f 308/402/341 109/398/337 111/403/342
f 279/401/340 308/402/341 281/404/343
f 308/402/341 111/403/342 309/405/344
f 308/402/341 309/405/344 281/404/343
f 309/405/344 111/403/342 113/406/345
f 281/404/343 309/405/344 283/407/346
f 309/405/344 113/406/345 310/408/347
f 309/405/344 310/408/347 283/407/346
f 310/408/347 113/406/345 117/409/348
f 310/408/347 117/409/348 128/410/349
f 283/407/346 310/408/347 311/411/350
f 311/411/350 310/408/347 128/410/349
f 283/407/346 311/411/350 284/412/351
f 311/411/350 128/410/349 129/413/352
f 284/412/351 311/411/350 312/414/353
f 312/414/353 311/411/350 129/413/352
f 284/412/351 312/414/353 286/415/354
f 312/414/353 129/413/352 132/416/355
f 286/415/354 312/414/353 288/417/356
f 288/417/356 312/414/353 313/418/357
f 313/418/357 312/414/353 132/416/355
f 288/417/356 313/418/357 242/419/358
f 242/419/358 313/418/357 291/420/359
f 291/420/359 313/418/357 132/416/355
f 291/420/359 132/416/355 134/421/360
