# CS2 body mesh, tools/cs2_glb_to_obj.py
v 0.0094 -0.04025 -0.19041
v 0.00816 -0.04426 -0.1838
v -0.0094 -0.04025 -0.19041
v 0.01401 -0.03933 -0.18911
v 0.01401 -0.03336 -0.19599
v 0.0094 -0.0346 -0.19698
v 0.01401 -0.04329 -0.18186
v 0.0094 -0.02942 -0.20131
v 0.01401 -0.04571 -0.17298
v 0.01401 -0.02812 -0.20076
v 0.0094 -0.02288 -0.20548
v 0.01401 -0.02144 -0.2048
v 0.0094 -0.01629 -0.20825
v 0.01401 -0.01573 -0.20726
v 0.0094 -0.00191 -0.21202
v 0.01401 -0.00183 -0.21103
v 0.00489 -0.04816 -0.17054
v -0.00816 -0.04426 -0.1838
v -0.00489 -0.04816 -0.17054
v -0.01401 -0.04571 -0.17298
v -0.01401 -0.04329 -0.18186
v -0.01401 -0.03933 -0.18911
v -0.01401 -0.03336 -0.19599
v -0.0094 -0.0346 -0.19698
v -0.0094 -0.02942 -0.20131
v -0.01401 -0.02812 -0.20076
v -0.0094 -0.02288 -0.20548
v -0.01401 -0.02144 -0.2048
v -0.0094 -0.01629 -0.20825
v -0.01401 -0.01573 -0.20726
v -0.0094 -0.00191 -0.21202
v -0.01401 -0.00183 -0.21103
v -0.00638 0.01533 -0.22252
v -0.00638 0.02033 -0.22991
v 0.00638 0.01533 -0.22252
v 0.00638 0.02033 -0.22991
v -0.00638 0.02732 -0.23693
v 0.00638 0.02732 -0.23693
v -0.00638 0.03049 -0.23836
v 0.00638 0.03049 -0.23836
v -0.0094 -0.0035 -0.20735
v 0.0094 -0.0035 -0.20735
v -0.0094 -0.03632 -0.18973
v -0.0094 -0.0325 -0.19433
v 0.0094 -0.03632 -0.18973
v 0.0094 -0.0325 -0.19433
v -0.0094 -0.0272 -0.19859
v 0.0094 -0.0272 -0.19859
v -0.0094 -0.02079 -0.20212
v 0.0094 -0.02079 -0.20212
v -0.0094 -0.01426 -0.20465
v 0.0094 -0.01426 -0.20465
v 0.00638 0.03044 -0.24297
v 0.01073 0.03044 -0.24297
v 0.00638 0.02511 -0.24055
v 0.01073 0.02511 -0.24055
v 0.00638 0.01783 -0.23298
v 0.01073 0.01783 -0.23298
v 0.00638 0.01104 -0.22361
v 0.01073 0.01104 -0.22361
v 0.01073 0.00923 -0.20913
v -0.00638 0.01104 -0.22361
v -0.01074 0.00923 -0.20913
v -0.01073 0.01104 -0.22361
v -0.00638 0.01783 -0.23298
v -0.01073 0.01783 -0.23298
v -0.00638 0.02511 -0.24055
v -0.01073 0.02511 -0.24055
v -0.00638 0.03044 -0.24297
v -0.01073 0.03044 -0.24297
v 0.00479 -0.00697 -0.21278
v 0.00479 -0.00697 -0.20501
v 0.00339 -0.01036 -0.21278
v 0.00339 -0.01036 -0.20501
v 0 -0.01177 -0.21278
v 0 -0.01177 -0.20501
v -0.00339 -0.01036 -0.21278
v -0.00339 -0.01036 -0.20501
v -0.00479 -0.00697 -0.21278
v -0.00479 -0.00697 -0.20501
v -0.00339 -0.00359 -0.21278
v -0.00339 -0.00359 -0.20501
v 0 -0.00218 -0.21278
v 0 -0.00218 -0.20501
v 0.00339 -0.00359 -0.21278
v 0.00339 -0.00359 -0.20501
v -0.01401 0.00234 -0.20865
v 0.01401 0.00234 -0.20865
v 0.01401 -0.04438 -0.17176
v 0.00489 -0.0444 -0.1679
v -0.00489 -0.0444 -0.1679
v -0.01401 -0.04438 -0.17176
v -0.01471 -0.0418 -0.18066
v -0.01401 -0.0423 -0.17277
v -0.01401 -0.04031 -0.1803
v -0.01471 -0.03789 -0.18789
v -0.01401 -0.03628 -0.18715
v -0.01401 -0.03018 -0.19383
v -0.01471 -0.03207 -0.19498
v -0.01401 -0.02441 -0.19799
v -0.01471 -0.02629 -0.19931
v -0.01401 -0.01789 -0.20065
v -0.01471 -0.01891 -0.20264
v -0.01401 -0.0099 -0.20082
v -0.01471 -0.01221 -0.20433
v -0.01401 -0.00243 -0.19919
v -0.01449 -0.00061 -0.20451
v -0.01401 0.00427 -0.19576
v -0.01401 0.00475 -0.20171
v -0.01074 0.01362 -0.18763
v -0.01073 0.0241 -0.18138
v -0.01074 0.0125 -0.19984
v -0.01073 0.02853 -0.18583
v -0.01073 0.03922 -0.1848
v -0.01073 0.05603 -0.19125
v 0.01471 -0.0418 -0.18066
v 0.01401 -0.0423 -0.17277
v 0.01401 -0.04031 -0.1803
v 0.01471 -0.03789 -0.18789
v 0.01401 -0.03628 -0.18715
v 0.01401 -0.03018 -0.19383
v 0.01471 -0.03207 -0.19498
v 0.01401 -0.02441 -0.19799
v 0.01471 -0.02629 -0.19931
v 0.01401 -0.01789 -0.20065
v 0.01471 -0.01891 -0.20264
v 0.01401 -0.0099 -0.20082
v 0.01471 -0.01221 -0.20433
v 0.01401 -0.00243 -0.19919
v 0.01449 -0.00061 -0.20451
v 0.01401 0.00427 -0.19576
v 0.01401 0.00475 -0.20171
v 0.01073 0.05603 -0.19125
v 0.01073 0.03922 -0.1848
v 0.01073 0.02853 -0.18583
v 0.01073 0.0241 -0.18138
v 0.01073 0.0125 -0.19984
v 0.01073 0.01362 -0.18763
v 0 -0.03906 -0.18022
v -0.00489 -0.04172 -0.16919
v 0.00489 -0.04172 -0.16919
v 0 -0.03523 -0.18645
v 0 -0.02905 -0.19294
v 0 -0.02336 -0.19632
v 0 -0.01721 -0.19854
v 0 -0.00942 -0.19859
v 0 -0.00306 -0.19782
v 0 0.00357 -0.19459
v 0 0.0133 -0.18671
vt 0.965819 0.571764
vt 0.967284 0.581042
vt 0.987793 0.571764
vt 0.960448 0.572253
vt 0.960448 0.56151
vt 0.965819 0.56151
vt 0.960448 0.58153
vt 0.965819 0.553697
vt 0.960448 0.592273
vt 0.960448 0.553209
vt 0.965819 0.544908
vt 0.960448 0.543931
vt 0.965819 0.536119
vt 0.960448 0.536607
vt 0.965819 0.519028
vt 0.960448 0.519517
vt 0.971191 0.596667
vt 0.986328 0.581042
vt 0.98291 0.596667
vt 0.993652 0.592273
vt 0.993652 0.58153
vt 0.993652 0.572253
vt 0.993652 0.56151
vt 0.987793 0.56151
vt 0.987793 0.553697
vt 0.993164 0.553209
vt 0.987793 0.544908
vt 0.993164 0.543931
vt 0.987793 0.536119
vt 0.993164 0.536607
vt 0.987793 0.519028
vt 0.993164 0.519517
vt 0.983398 0.484115
vt 0.983398 0.4738
vt 0.970214 0.484115
vt 0.970214 0.4738
vt 0.983398 0.462081
vt 0.970214 0.462081
vt 0.984375 0.45793
vt 0.969237 0.45793
vt 0.986328 0.523911
vt 0.967284 0.523911
vt 0.986328 0.568834
vt 0.986328 0.561998
vt 0.967284 0.568834
vt 0.967284 0.561998
vt 0.986328 0.554186
vt 0.967284 0.554186
vt 0.986328 0.545885
vt 0.967284 0.545885
vt 0.986328 0.537095
vt 0.967284 0.537584
vt 0.969237 0.453597
vt 0.964354 0.453597
vt 0.969237 0.461165
vt 0.964354 0.461165
vt 0.969237 0.473556
vt 0.964354 0.473556
vt 0.969237 0.486801
vt 0.964354 0.486801
vt 0.963378 0.504379
vt 0.984375 0.486801
vt 0.990234 0.503891
vt 0.989257 0.486801
vt 0.984375 0.473312
vt 0.989257 0.473312
vt 0.984375 0.461165
vt 0.989257 0.461165
vt 0.984375 0.453597
vt 0.989257 0.453597
vt 0.808588 0.613269
vt 0.800287 0.613269
vt 0.808588 0.617664
vt 0.800287 0.617664
vt 0.808588 0.62157
vt 0.800287 0.62157
vt 0.808588 0.625477
vt 0.800287 0.625477
vt 0.808588 0.629383
vt 0.800287 0.629383
vt 0.808588 0.63329
vt 0.800287 0.63329
vt 0.808588 0.637196
vt 0.800287 0.637196
vt 0.808588 0.641102
vt 0.800287 0.641102
vt 0.808588 0.645009
vt 0.800287 0.645009
vt 0.817866 0.617176
vt 0.817866 0.613269
vt 0.814936 0.620106
vt 0.811029 0.610828
vt 0.814936 0.610828
vt 0.811029 0.620106
vt 0.993164 0.51268
vt 0.960448 0.513169
vt 0.960448 0.594714
vt 0.971191 0.602039
vt 0.98291 0.602039
vt 0.993652 0.594714
vt 0.898434 0.685537
vt 0.888668 0.682607
vt 0.896969 0.687002
vt 0.896969 0.683096
vt 0.887204 0.684072
vt 0.889157 0.681143
vt 0.880856 0.678213
vt 0.881344 0.676748
vt 0.879391 0.680166
vt 0.874508 0.669912
vt 0.873043 0.671865
vt 0.872066 0.67333
vt 0.869625 0.663564
vt 0.866695 0.667959
vt 0.868648 0.666005
vt 0.867183 0.656728
vt 0.8623 0.660634
vt 0.864742 0.657704
vt 0.866695 0.647938
vt 0.859859 0.654286
vt 0.862789 0.65038
vt 0.868648 0.640126
vt 0.855953 0.639149
vt 0.862789 0.638173
vt 0.872066 0.632801
vt 0.865719 0.632313
vt 0.858394 0.634754
vt 0.880856 0.622547
vt 0.887692 0.611316
vt 0.867672 0.624012
vt 0.84228 0.625477
vt 0.857906 0.62743
vt 0.882809 0.606433
vt 0.832026 0.618152
vt 0.823725 0.61034
vt 0.884274 0.595203
vt 0.876949 0.576647
vt 0.821284 0.60448
vt 0.864254 0.991699
vt 0.865719 0.993164
vt 0.87402 0.988769
vt 0.86523 0.989257
vt 0.874996 0.990234
vt 0.873531 0.987304
vt 0.881832 0.984375
vt 0.880856 0.98291
vt 0.882809 0.986328
vt 0.88818 0.976074
vt 0.889157 0.978515
vt 0.890622 0.979492
vt 0.892575 0.970214
vt 0.895505 0.97412
vt 0.89404 0.972167
vt 0.895505 0.962889
vt 0.899899 0.966796
vt 0.897458 0.963866
vt 0.895505 0.9541
vt 0.902829 0.960448
vt 0.899411 0.95703
vt 0.89404 0.946287
vt 0.906735 0.945799
vt 0.899899 0.944334
vt 0.890133 0.938963
vt 0.896481 0.938475
vt 0.904294 0.940916
vt 0.941404 0.910642
vt 0.88525 0.882809
vt 0.938475 0.916501
vt 0.878414 0.901364
vt 0.879391 0.912595
vt 0.930662 0.924314
vt 0.920408 0.931639
vt 0.874508 0.917478
vt 0.894528 0.930174
vt 0.881344 0.928709
vt 0.904782 0.933592
vt 0.989257 0.314432
vt 0.965819 0.314432
vt 0.989257 0.334208
vt 0.965819 0.334208
vt 0.989257 0.345134
vt 0.965819 0.345134
vt 0.961913 0.433821
vt 0.961913 0.442549
vt 0.977538 0.432356
vt 0.972167 0.443587
vt 0.98291 0.443587
vt 0.992676 0.442549
vt 0.992676 0.433821
vt 0.961913 0.425764
vt 0.992676 0.425764
vt 0.977538 0.424543
vt 0.961913 0.416242
vt 0.992676 0.416242
vt 0.977538 0.415204
vt 0.961913 0.408918
vt 0.992676 0.408918
vt 0.977538 0.408429
vt 0.961913 0.401349
vt 0.992676 0.401349
vt 0.977538 0.401349
vt 0.961913 0.392804
vt 0.992676 0.392804
vt 0.977538 0.392804
vt 0.961913 0.384747
vt 0.992676 0.384747
vt 0.977538 0.385723
vt 0.961913 0.37669
vt 0.992676 0.37669
vt 0.977538 0.377667
vt 0.964843 0.364177
vt 0.989746 0.364177
vt 0.977538 0.364971
vt 0.965819 0.352031
vt 0.989257 0.352031
vt 0.98291 0.446455
vt 0.992676 0.445051
vt 0.972167 0.446455
vt 0.961913 0.445051
vn 0.1964 -0.8353 -0.5136
vn 0.1132 -0.9177 -0.3809
vn -0.2241 -0.8211 -0.5249
vn 0.2786 -0.8156 -0.5072
vn 0.2853 -0.7036 -0.6508
vn 0.3141 -0.6849 -0.6574
vn 0.2341 -0.9147 -0.3295
vn 0.2561 -0.6182 -0.7431
vn 0.1953 -0.9565 -0.2167
vn 0.255 -0.5872 -0.7682
vn 0.2481 -0.4732 -0.8453
vn 0.2339 -0.3277 -0.9154
vn 0.2016 -0.2693 -0.9417
vn 0.0595 -0.9688 -0.2406
vn -0.1376 -0.9115 -0.3876
vn -0.0808 -0.9661 -0.245
vn -0.2202 -0.9503 -0.2202
vn -0.2612 -0.9054 -0.3346
vn -0.3077 -0.8008 -0.5138
vn -0.3141 -0.6849 -0.6574
vn -0.3467 -0.6624 -0.6641
vn -0.2839 -0.598 -0.7495
vn -0.2824 -0.5664 -0.7742
vn -0.2739 -0.4509 -0.8495
vn -0.2574 -0.3051 -0.9169
vn -0.2239 -0.2474 -0.9427
vn 0 -0.8354 -0.5497
vn 0 -0.7817 -0.6237
vn 0 -0.5762 -0.8173
vn 0 -0.4221 -0.9065
vn 0 -0.9543 -0.2989
vn 0 -0.7174 -0.6967
vn 0 -0.4472 -0.8944
vn 0 -0.3211 -0.9471
vn 0 -0.2515 -0.9679
vn 0 -0.6009 -0.7993
vn 0 -0.9612 -0.2757
vn 0 -0.938 -0.3466
vn 0 -0.9944 -0.1054
vn 0.9999 -0.0169 0
vn 0.6967 -0.7174 0
vn 0 -1 0
vn -0.7188 -0.6953 0
vn -1 -0.001 0
vn -0.7181 0.696 0.0014
vn 0.001 1 0.001
vn 0.696 0.7181 0.0014
vn 0 -0.001 -1
vn 0 -0.9999 0.0159
vn 0.0012 0.2267 -0.974
vn -0.0463 0.5686 -0.8213
vn -0.0626 0.2902 -0.9549
vn 0.0236 0.584 -0.8114
vn -0.1914 0.4584 -0.8679
vn 0.042 0.3091 -0.9501
vn 0.1665 0.4789 -0.862
vn 0 -0.0857 -0.9963
vn 0.3465 -0.6358 0.6897
vn 0.3458 -0.6084 0.7144
vn 0.1464 -0.581 0.8006
vn 0.1455 -0.5539 0.8197
vn -0.172 -0.5627 0.8086
vn -0.1709 -0.5351 0.8273
vn -0.3742 -0.5859 0.7188
vn -0.3752 -0.6139 0.6945
vn 0.0011 0.1631 -0.9866
vn -0.9963 0.0011 0.0858
vn -0.9961 -0.0711 0.0525
vn -0.9931 0.0736 0.0917
vn -0.9426 -0.3066 -0.1323
vn -0.9112 0.3889 0.1362
vn -0.9327 0.2959 0.2062
vn -0.9399 -0.2908 -0.1792
vn -0.9503 0.2189 0.2216
vn -0.9981 -0.0519 -0.0339
vn -0.9265 -0.2779 -0.2537
vn -0.9461 0.1529 0.2856
vn -0.9553 -0.1753 -0.2382
vn -0.9549 0.0626 0.2902
vn -0.9741 -0.1012 -0.2023
vn -0.9993 0.0174 0.0318
vn -0.9736 -0.0012 0.2281
vn -0.9831 -0.0582 -0.1734
vn -0.9999 -0.0169 0
vn -0.9945 0.0011 0.1043
vn -0.996 0.0183 -0.0872
vn -0.9989 0.0323 -0.0344
vn -0.9993 0.0154 0.0338
vn -0.9975 0.0689 -0.018
vn -0.9997 0.0171 0.0151
vn -0.9998 -0.0151 -0.0161
vn 0.996 -0.0161 0.0882
vn 0.9945 -0.0901 0.0534
vn 0.9999 0.0149 0.001
vn 0.9913 0.0933 0.0933
vn 0.9335 -0.3326 -0.1341
vn 0.8988 0.4161 0.1377
vn 0.9231 0.3229 0.2091
vn 0.9308 -0.3172 -0.1817
vn 0.9432 0.2444 0.2251
vn 0.997 -0.07 -0.0345
vn 0.9169 -0.3051 -0.2574
vn 0.9403 0.1776 0.2905
vn 0.9494 -0.1999 -0.2421
vn 0.9516 0.0846 0.2955
vn 0.9708 -0.1233 -0.2058
vn 0.9995 -0.001 0.0323
vn 0.9724 -0.0204 0.2323
vn 0.9812 -0.0785 -0.1764
vn 0.9994 -0.0333 0
vn 0.9941 -0.0164 0.1071
vn 0.9954 0.0361 -0.0887
vn 0.998 0.052 -0.035
vn 0.9989 0.0323 0.0344
vn 0.996 0.0872 -0.0183
vn 1 -0.001 0
vn 0.9999 -0.001 -0.0159
vn -0.9417 0.3337 -0.0425
vn -0.9286 0.3653 -0.0651
vn -0.9446 0.3275 -0.0215
vn -0.924 0.3721 -0.0879
vn -0.9041 0.3956 -0.1614
vn 0.8912 0.4232 -0.1632
vn 0.9115 0.4016 -0.0891
vn 0.918 0.3911 -0.0659
vn 0.9357 0.352 -0.0218
vn 0.9325 0.3586 -0.043
vn 0.0013 0.3699 0.9291
vn 0.0011 0.143 0.9897
vn 0 -0.0857 0.9963
vn -0.0881 0.9227 0.3753
vn -0.1234 0.9705 0.2073
vn 0.0013 0.9279 0.3729
vn -0.0798 0.9765 0.2002
vn 0.0591 0.9787 0.1967
vn 0.1013 0.9738 0.2038
vn 0.0652 0.9273 0.3685
vn -0.0944 0.8032 0.5882
vn 0.07 0.8127 0.5785
vn 0.0014 0.7988 0.6015
vn -0.1204 0.6528 0.7479
vn 0.0954 0.6678 0.7382
vn 0.0014 0.6468 0.7627
vn -0.1406 0.4709 0.8709
vn 0.1164 0.4901 0.8638
vn 0.0013 0.4446 0.8957
vn -0.1671 0.1904 0.9674
vn 0.1462 0.2109 0.9665
vn 0.0011 0.1838 0.983
vn -0.1546 -0.0773 0.9849
vn 0.1358 -0.0965 0.986
vn 0 -0.0677 0.9977
vn -0.1323 -0.3066 0.9426
vn 0.1103 -0.3268 0.9386
vn 0 -0.2742 0.9617
vn -0.1189 -0.5179 0.8472
vn 0.0918 -0.538 0.8379
vn 0 -0.523 0.8523
vn -0.0924 -0.5646 0.8202
vn 0.0685 -0.5811 0.811
vn 0 -0.5481 0.8364
vn -0.0436 -0.4641 0.8847
vn 0.0216 -0.4813 0.8763
vn 0.0014 0.7181 0.696
vn 0.1649 0.451 0.8772
vn 0.3305 0.4339 0.8381
vn 0.3337 0.4634 0.8209
vn -0.1894 0.4303 0.8826
vn -0.3563 0.4097 0.8398
vn -0.36 0.4393 0.8231
o trigger__p0_c0
f 1/1/1 2/2/2 3/3/3
f 2/2/2 1/1/1 4/4/4
f 4/4/4 1/1/1 5/5/5
f 5/5/5 1/1/1 6/6/6
f 2/2/2 4/4/4 7/7/7
f 5/5/5 6/6/6 8/8/8
f 2/2/2 7/7/7 9/9/9
f 5/5/5 8/8/8 10/10/10
f 10/10/10 8/8/8 11/11/11
f 10/10/10 11/11/11 12/12/11
f 12/12/11 11/11/11 13/13/12
f 12/12/11 13/13/12 14/14/12
f 14/14/12 13/13/12 15/15/13
f 14/14/12 15/15/13 16/16/13
f 2/2/2 9/9/9 17/17/14
f 2/2/2 17/17/14 18/18/15
f 18/18/15 17/17/14 19/19/16
f 18/18/15 19/19/16 20/20/17
f 18/18/15 20/20/17 21/21/18
f 2/2/2 18/18/15 3/3/3
f 18/18/15 21/21/18 22/22/19
f 18/18/15 22/22/19 3/3/3
f 3/3/3 22/22/19 23/23/20
f 3/3/3 23/23/20 24/24/21
f 24/24/21 23/23/20 25/25/22
f 25/25/22 23/23/20 26/26/23
f 25/25/22 26/26/23 27/27/24
f 27/27/24 26/26/23 28/28/24
f 27/27/24 28/28/24 29/29/25
f 29/29/25 28/28/24 30/30/25
f 29/29/25 30/30/25 31/31/26
f 31/31/26 30/30/25 32/32/26
f 33/33/27 34/34/28 35/35/27
f 35/35/27 34/34/28 36/36/28
f 36/36/28 34/34/28 37/37/29
f 36/36/28 37/37/29 38/38/29
f 38/38/29 37/37/29 39/39/30
f 38/38/29 39/39/30 40/40/30
f 41/41/31 31/31/31 42/42/31
f 42/42/31 31/31/31 15/15/31
f 43/43/28 44/44/32 45/45/28
f 45/45/28 44/44/32 46/46/32
f 46/46/32 44/44/32 47/47/29
f 46/46/32 47/47/29 48/48/29
f 48/48/29 47/47/29 49/49/33
f 48/48/29 49/49/33 50/50/33
f 50/50/33 49/49/33 51/51/34
f 50/50/33 51/51/34 52/52/34
f 52/52/34 51/51/34 41/41/35
f 52/52/34 41/41/35 42/42/35
f 53/53/30 54/54/30 55/55/36
f 55/55/36 54/54/30 56/56/36
f 55/55/36 56/56/36 57/57/28
f 57/57/28 56/56/36 58/58/28
f 57/57/28 58/58/28 59/59/37
f 59/59/37 58/58/28 60/60/38
f 59/59/37 60/60/38 61/61/39
f 59/59/37 61/61/39 62/62/37
f 62/62/37 61/61/39 63/63/39
f 62/62/37 63/63/39 64/64/38
f 62/62/37 64/64/38 65/65/28
f 65/65/28 64/64/38 66/66/28
f 65/65/28 66/66/28 67/67/36
f 67/67/36 66/66/28 68/68/36
f 67/67/36 68/68/36 69/69/30
f 69/69/30 68/68/36 70/70/30
f 71/71/40 72/72/40 73/73/41
f 73/73/41 72/72/40 74/74/41
f 73/73/41 74/74/41 75/75/42
f 75/75/42 74/74/41 76/76/42
f 75/75/42 76/76/42 77/77/43
f 77/77/43 76/76/42 78/78/43
f 77/77/43 78/78/43 79/79/44
f 79/79/44 78/78/43 80/80/44
f 79/79/44 80/80/44 81/81/45
f 81/81/45 80/80/44 82/82/45
f 81/81/45 82/82/45 83/83/46
f 83/83/46 82/82/45 84/84/46
f 83/83/46 84/84/46 85/85/47
f 85/85/47 84/84/46 86/86/47
f 85/85/47 86/86/47 71/87/40
f 71/87/40 86/86/47 72/88/40
f 79/89/48 81/90/48 77/91/48
f 77/91/48 81/90/48 85/92/48
f 85/92/48 81/90/48 83/93/48
f 77/91/48 85/92/48 73/73/48
f 73/73/48 85/92/48 71/71/48
f 77/91/48 73/73/48 75/94/48
f 39/39/49 69/69/49 40/40/49
f 40/40/49 69/69/49 53/53/49
f 35/35/50 59/59/50 33/33/50
f 33/33/50 59/59/50 62/62/50
f 31/31/51 87/95/52 15/15/53
f 87/95/52 31/31/51 32/32/54
f 15/15/53 87/95/52 88/96/55
f 15/15/53 88/96/55 16/16/56
f 88/96/55 87/95/52 63/63/57
f 88/96/55 63/63/57 61/61/57
f 9/9/58 89/97/59 17/17/60
f 17/17/60 89/97/59 90/98/61
f 17/17/60 90/98/61 19/19/62
f 19/19/62 90/98/61 91/99/63
f 19/19/62 91/99/63 92/100/64
f 19/19/62 92/100/64 20/20/65
f 45/45/66 1/1/66 43/43/66
f 43/43/66 1/1/66 3/3/66
f 92/101/67 93/102/44 20/103/68
f 93/102/44 92/101/67 94/104/69
f 20/103/68 93/102/44 21/105/70
f 93/102/44 94/104/69 95/106/71
f 21/105/70 93/102/44 96/107/44
f 96/107/44 93/102/44 95/106/71
f 96/107/44 95/106/71 97/108/72
f 21/105/70 96/107/44 22/109/73
f 96/107/44 97/108/72 98/110/74
f 22/109/73 96/107/44 99/111/75
f 99/111/75 96/107/44 98/110/74
f 22/109/73 99/111/75 23/112/76
f 99/111/75 98/110/74 100/113/77
f 23/112/76 99/111/75 26/114/78
f 99/111/75 100/113/77 101/115/44
f 99/111/75 101/115/44 26/114/78
f 101/115/44 100/113/77 102/116/79
f 26/114/78 101/115/44 28/117/80
f 101/115/44 102/116/79 103/118/81
f 101/115/44 103/118/81 28/117/80
f 103/118/81 102/116/79 104/119/82
f 28/117/80 103/118/81 30/120/83
f 103/118/81 104/119/82 105/121/84
f 103/118/81 105/121/84 30/120/83
f 105/121/84 104/119/82 106/122/85
f 30/120/83 105/121/84 32/123/86
f 105/121/84 106/122/85 107/124/87
f 105/121/84 107/124/87 32/123/86
f 107/124/87 106/122/85 108/125/88
f 107/124/87 108/125/88 109/126/89
f 107/124/87 109/126/89 32/123/86
f 32/123/86 109/126/89 87/127/90
f 110/128/91 111/129/91 112/130/91
f 112/130/91 111/129/91 64/131/91
f 112/130/91 64/131/91 63/132/91
f 64/131/91 111/129/91 113/133/44
f 64/131/91 113/133/44 66/134/44
f 66/134/44 113/133/44 68/135/44
f 68/135/44 113/133/44 114/136/44
f 68/135/44 114/136/44 115/137/44
f 68/135/44 115/137/44 70/138/44
f 89/139/92 9/140/93 116/141/94
f 89/139/92 116/141/94 117/142/95
f 116/141/94 9/140/93 7/143/96
f 117/142/95 116/141/94 118/144/97
f 116/141/94 7/143/96 119/145/40
f 116/141/94 119/145/40 118/144/97
f 118/144/97 119/145/40 120/146/98
f 119/145/40 7/143/96 4/147/99
f 120/146/98 119/145/40 121/148/100
f 119/145/40 4/147/99 122/149/101
f 119/145/40 122/149/101 121/148/100
f 122/149/101 4/147/99 5/150/102
f 121/148/100 122/149/101 123/151/103
f 122/149/101 5/150/102 10/152/104
f 123/151/103 122/149/101 124/153/40
f 124/153/40 122/149/101 10/152/104
f 123/151/103 124/153/40 125/154/105
f 124/153/40 10/152/104 12/155/106
f 125/154/105 124/153/40 126/156/107
f 126/156/107 124/153/40 12/155/106
f 125/154/105 126/156/107 127/157/108
f 126/156/107 12/155/106 14/158/109
f 127/157/108 126/156/107 128/159/110
f 128/159/110 126/156/107 14/158/109
f 127/157/108 128/159/110 129/160/111
f 128/159/110 14/158/109 16/161/112
f 129/160/111 128/159/110 130/162/113
f 130/162/113 128/159/110 16/161/112
f 129/160/111 130/162/113 131/163/114
f 131/163/114 130/162/113 132/164/115
f 132/164/115 130/162/113 16/161/112
f 132/164/115 16/161/112 88/165/116
f 54/166/116 133/167/116 56/168/116
f 56/168/116 133/167/116 134/169/116
f 56/168/116 134/169/116 135/170/116
f 56/168/116 135/170/116 58/171/116
f 58/171/116 135/170/116 60/172/117
f 60/172/117 135/170/116 136/173/117
f 60/172/117 136/173/117 137/174/117
f 137/174/117 136/173/117 138/175/117
f 60/172/117 137/174/117 61/176/117
f 40/40/44 53/53/44 38/38/44
f 55/55/44 38/38/44 53/53/44
f 38/38/44 55/55/44 36/36/44
f 36/36/44 55/55/44 57/57/44
f 36/36/44 57/57/44 35/35/44
f 35/35/44 57/57/44 59/59/44
f 42/42/44 15/15/44 52/52/44
f 52/52/44 15/15/44 13/13/44
f 52/52/44 13/13/44 50/50/44
f 50/50/44 13/13/44 11/11/44
f 50/50/44 11/11/44 48/48/44
f 48/48/44 11/11/44 8/8/44
f 48/48/44 8/8/44 46/46/44
f 46/46/44 8/8/44 6/6/44
f 46/46/44 6/6/44 45/45/44
f 45/45/44 6/6/44 1/1/44
f 33/33/117 62/62/116 34/34/116
f 34/34/116 62/62/116 65/65/116
f 34/34/116 65/65/116 37/37/116
f 37/37/116 65/65/116 67/67/116
f 37/37/116 67/67/116 39/39/116
f 39/39/116 67/67/116 69/69/116
f 43/43/116 3/3/116 44/44/116
f 44/44/116 3/3/116 24/24/116
f 44/44/116 24/24/116 47/47/116
f 47/47/116 24/24/116 25/25/116
f 47/47/116 25/25/116 49/49/116
f 49/49/116 25/25/116 27/27/116
f 49/49/116 27/27/116 51/51/116
f 51/51/116 27/27/116 29/29/116
f 51/51/116 29/29/116 41/41/116
f 41/41/116 29/29/116 31/31/116
f 110/128/118 112/130/119 108/125/120
f 108/125/120 112/130/119 109/126/121
f 109/126/121 112/130/119 63/132/122
f 109/126/121 63/132/122 87/127/122
f 88/165/123 61/176/123 132/164/124
f 132/164/124 61/176/123 137/174/125
f 132/164/124 137/174/125 131/163/126
f 131/163/126 137/174/125 138/175/127
f 133/177/128 115/178/128 134/179/129
f 134/179/129 115/178/128 114/180/129
f 134/179/129 114/180/129 135/181/130
f 135/181/130 114/180/129 113/182/130
f 95/183/131 94/184/132 139/185/133
f 139/185/133 94/184/132 140/186/134
f 139/185/133 140/186/134 141/187/135
f 139/185/133 141/187/135 117/188/136
f 139/185/133 117/188/136 118/189/137
f 95/183/131 139/185/133 97/190/138
f 139/185/133 118/189/137 120/191/139
f 97/190/138 139/185/133 142/192/140
f 142/192/140 139/185/133 120/191/139
f 97/190/138 142/192/140 98/193/141
f 142/192/140 120/191/139 121/194/142
f 98/193/141 142/192/140 143/195/143
f 143/195/143 142/192/140 121/194/142
f 98/193/141 143/195/143 100/196/144
f 143/195/143 121/194/142 123/197/145
f 100/196/144 143/195/143 144/198/146
f 144/198/146 143/195/143 123/197/145
f 100/196/144 144/198/146 102/199/147
f 144/198/146 123/197/145 125/200/148
f 102/199/147 144/198/146 145/201/149
f 145/201/149 144/198/146 125/200/148
f 102/199/147 145/201/149 104/202/150
f 145/201/149 125/200/148 127/203/151
f 104/202/150 145/201/149 146/204/152
f 146/204/152 145/201/149 127/203/151
f 104/202/150 146/204/152 106/205/153
f 146/204/152 127/203/151 129/206/154
f 106/205/153 146/204/152 147/207/155
f 147/207/155 146/204/152 129/206/154
f 106/205/153 147/207/155 108/208/156
f 147/207/155 129/206/154 131/209/157
f 108/208/156 147/207/155 148/210/158
f 148/210/158 147/207/155 131/209/157
f 108/208/156 148/210/158 110/211/159
f 148/210/158 131/209/157 138/212/160
f 110/211/159 148/210/158 149/213/161
f 149/213/161 148/210/158 138/212/160
f 110/211/159 149/213/161 111/214/162
f 149/213/161 138/212/160 136/215/163
f 149/213/161 136/215/163 111/214/162
f 135/181/164 113/182/164 136/215/164
f 136/215/164 113/182/164 111/214/164
f 141/187/165 90/216/165 89/217/166
f 141/187/165 89/217/166 117/188/167
f 90/216/165 141/187/165 91/218/168
f 91/218/168 141/187/165 140/186/168
f 91/218/168 140/186/168 92/219/169
f 92/219/169 140/186/168 94/184/170
