# CS2 body mesh, tools/cs2_glb_to_obj.py
v 0.02165 0.14628 -0.22333
v 0.02746 0.1532 -0.22333
v 0.02862 0.15266 -0.22333
v 0.02054 0.14655 -0.22208
v 0.01995 0.14539 -0.22333
v 0.01935 0.14706 -0.22333
v 0.02959 0.15184 -0.22333
v 0.02238 0.14523 -0.22333
v 0.03033 0.15079 -0.22333
v 0.02226 0.14409 -0.22208
v 0.02097 0.14394 -0.22333
v 0.02233 0.1428 -0.22333
v 0.02394 0.14205 -0.22333
v 0.02336 0.14441 -0.22333
v 0.03076 0.14959 -0.22333
v 0.02498 0.14283 -0.22208
v 0.02452 0.14387 -0.22333
v 0.03087 0.14832 -0.22333
v 0.02578 0.14365 -0.22333
v 0.03065 0.14706 -0.22333
v 0.02705 0.14376 -0.22333
v 0.02797 0.14309 -0.22208
v 0.02569 0.14174 -0.22333
v 0.02825 0.1442 -0.22333
v 0.03011 0.14591 -0.22333
v 0.02929 0.14493 -0.22333
v 0.02699 0.15424 -0.22208
v 0.0262 0.15342 -0.22333
v 0.02971 0.15298 -0.22208
v 0.03144 0.15052 -0.22208
v 0.0317 0.14753 -0.22208
v 0.03043 0.14481 -0.22208
v 0.03278 0.14824 -0.22333
v 0.03248 0.14649 -0.22333
v 0.03173 0.14488 -0.22333
v 0.03834 0.14464 -0.22333
v 0.03893 0.14797 -0.22333
v 0.03692 0.14157 -0.22333
v 0.03864 0.15134 -0.22333
v 0.03058 0.14352 -0.22333
v 0.03474 0.13898 -0.22333
v 0.03197 0.13704 -0.22333
v 0.03263 0.15001 -0.22333
v 0.03748 0.15452 -0.22333
v 0.02913 0.1425 -0.22333
v 0.02879 0.13589 -0.22333
v 0.02746 0.14189 -0.22333
v 0.02542 0.13559 -0.22333
v 0.03202 0.15168 -0.22333
v 0.03554 0.15729 -0.22333
v 0.02209 0.13618 -0.22333
v 0.01903 0.13761 -0.22333
v 0.01644 0.13978 -0.22333
v 0.0145 0.14255 -0.22333
v 0.01334 0.14573 -0.22333
v 0.01304 0.1491 -0.22333
v 0.01919 0.14883 -0.22333
v 0.01363 0.15243 -0.22333
v 0.0195 0.15058 -0.22333
v 0.01506 0.1555 -0.22333
v 0.02025 0.15219 -0.22333
v 0.01724 0.15809 -0.22333
v 0.02139 0.15355 -0.22333
v 0.02285 0.15457 -0.22333
v 0.02001 0.16003 -0.22333
v 0.02452 0.15518 -0.22333
v 0.02318 0.16118 -0.22333
v 0.02629 0.15533 -0.22333
v 0.02655 0.16148 -0.22333
v 0.02401 0.15398 -0.22208
v 0.02803 0.15502 -0.22333
v 0.02988 0.16089 -0.22333
v 0.02964 0.15427 -0.22333
v 0.03295 0.15946 -0.22333
v 0.031 0.15313 -0.22333
v 0.02155 0.15226 -0.22208
v 0.02268 0.15214 -0.22333
v 0.02028 0.14954 -0.22208
v 0.02186 0.15116 -0.22333
v 0.02373 0.15287 -0.22333
v 0.02132 0.15001 -0.22333
v 0.02493 0.15331 -0.22333
v 0.0211 0.14875 -0.22333
v 0.02121 0.14748 -0.22333
v 0.02857 0.13687 -0.14282
v 0.02857 0.13687 -0.21954
v 0.03151 0.13794 -0.14282
v 0.03151 0.13794 -0.21954
v 0.0312 0.13852 -0.14223
v 0.02843 0.13752 -0.14223
v 0.03361 0.14021 -0.14223
v 0.03406 0.13972 -0.14282
v 0.03406 0.13972 -0.21954
v 0.03551 0.14247 -0.14223
v 0.03607 0.14211 -0.21954
v 0.03607 0.14211 -0.14282
v 0.03675 0.14514 -0.14223
v 0.03738 0.14494 -0.21954
v 0.03738 0.14494 -0.14282
v 0.03726 0.14804 -0.14223
v 0.03793 0.14801 -0.21954
v 0.03793 0.14801 -0.14282
v 0.03701 0.15098 -0.14223
v 0.03765 0.15112 -0.21954
v 0.03765 0.15112 -0.14282
v 0.03659 0.15405 -0.21954
v 0.03659 0.15405 -0.14282
v 0.036 0.15375 -0.14223
v 0.0348 0.15661 -0.21954
v 0.0348 0.15661 -0.14282
v 0.03431 0.15616 -0.14223
v 0.03241 0.15861 -0.21954
v 0.03241 0.15861 -0.14282
v 0.02958 0.15993 -0.21954
v 0.03205 0.15805 -0.14223
v 0.02958 0.15993 -0.14282
v 0.02938 0.1593 -0.14223
v 0.02651 0.16047 -0.14282
v 0.02648 0.15981 -0.14223
v 0.0234 0.1602 -0.14282
v 0.02355 0.15955 -0.14223
v 0.02651 0.16047 -0.21954
v 0.0234 0.1602 -0.21954
v 0.02047 0.15913 -0.14282
v 0.02078 0.15855 -0.14223
v 0.02047 0.15913 -0.21954
v 0.0266 0.16243 -0.21978
v 0.01792 0.15735 -0.14282
v 0.01836 0.15686 -0.14223
v 0.01792 0.15735 -0.21954
v 0.02298 0.16212 -0.21978
v 0.01591 0.15496 -0.14282
v 0.01647 0.1546 -0.14223
v 0.01956 0.16088 -0.21978
v 0.01659 0.15879 -0.21978
v 0.01459 0.15213 -0.14282
v 0.01523 0.15193 -0.14223
v 0.01591 0.15496 -0.21954
v 0.01425 0.15601 -0.21978
v 0.01659 0.15879 -0.2227
v 0.01405 0.14906 -0.14282
v 0.01471 0.14903 -0.14223
v 0.01459 0.15213 -0.21954
v 0.01272 0.15272 -0.21978
v 0.01425 0.15601 -0.2227
v 0.01956 0.16088 -0.2227
v 0.02298 0.16212 -0.2227
v 0.0266 0.16243 -0.2227
v 0.03017 0.1618 -0.21978
v 0.03017 0.1618 -0.2227
v 0.03346 0.16027 -0.21978
v 0.03346 0.16027 -0.2227
v 0.03625 0.15793 -0.21978
v 0.03625 0.15793 -0.2227
v 0.03833 0.15496 -0.21978
v 0.03833 0.15496 -0.2227
v 0.03957 0.15155 -0.21978
v 0.03957 0.15155 -0.2227
v 0.03989 0.14793 -0.21978
v 0.03541 0.14253 -0.13577
v 0.03354 0.1403 -0.13577
v 0.03324 0.14062 -0.13009
v 0.03115 0.13863 -0.13577
v 0.03504 0.14277 -0.13009
v 0.03094 0.13902 -0.13009
v 0.02841 0.13763 -0.13577
v 0.02831 0.13806 -0.13009
v 0.03664 0.14518 -0.13577
v 0.03622 0.14531 -0.13009
v 0.03715 0.14805 -0.13577
v 0.03671 0.14807 -0.13009
v 0.03646 0.15086 -0.13009
v 0.03689 0.15095 -0.13577
v 0.03551 0.15349 -0.13009
v 0.0359 0.15369 -0.13577
v 0.0339 0.15578 -0.13009
v 0.03422 0.15608 -0.13577
v 0.03199 0.15796 -0.13577
v 0.03175 0.15759 -0.13009
v 0.02935 0.15919 -0.13577
v 0.02922 0.15877 -0.13009
v 0.02648 0.1597 -0.13577
v 0.02646 0.15926 -0.13009
v 0.02367 0.15901 -0.13009
v 0.02357 0.15944 -0.13577
v 0.02103 0.15805 -0.13009
v 0.02083 0.15844 -0.13577
v 0.01874 0.15645 -0.13009
v 0.01844 0.15677 -0.13577
v 0.01657 0.15454 -0.13577
v 0.01694 0.1543 -0.13009
v 0.01533 0.15189 -0.13577
v 0.01575 0.15176 -0.13009
v 0.01483 0.14902 -0.13577
v 0.01527 0.149 -0.13009
v 0.01551 0.14621 -0.13009
v 0.01508 0.14612 -0.13577
v 0.01497 0.14609 -0.14223
v 0.01647 0.14358 -0.13009
v 0.01608 0.14338 -0.13577
v 0.01808 0.14129 -0.13009
v 0.01598 0.14332 -0.14223
v 0.01775 0.14099 -0.13577
v 0.01767 0.14091 -0.14223
v 0.01272 0.15272 -0.2227
v 0.01209 0.14914 -0.21978
v 0.01209 0.14914 -0.2227
v 0.01405 0.14906 -0.21954
v 0.01241 0.14552 -0.21978
v 0.01241 0.14552 -0.2227
v 0.01432 0.14595 -0.21954
v 0.01365 0.14211 -0.21978
v 0.01365 0.14211 -0.2227
v 0.01573 0.13914 -0.2227
v 0.01573 0.13914 -0.21978
v 0.01539 0.14302 -0.21954
v 0.01718 0.14046 -0.21954
v 0.01718 0.14046 -0.14282
v 0.01539 0.14302 -0.14282
v 0.01432 0.14595 -0.14282
v 0.03274 0.14117 -0.1263
v 0.03441 0.14317 -0.1263
v 0.03185 0.14213 -0.12252
v 0.0306 0.13968 -0.1263
v 0.03331 0.14387 -0.12252
v 0.03 0.14083 -0.12252
v 0.03551 0.14553 -0.1263
v 0.03427 0.14592 -0.12252
v 0.02815 0.13878 -0.1263
v 0.02787 0.14006 -0.12252
v 0.02552 0.13781 -0.13009
v 0.03597 0.1481 -0.1263
v 0.03466 0.14816 -0.12252
v 0.03446 0.15041 -0.12252
v 0.03574 0.1507 -0.1263
v 0.03369 0.15254 -0.12252
v 0.03485 0.15315 -0.1263
v 0.03239 0.1544 -0.12252
v 0.03335 0.15528 -0.1263
v 0.03135 0.15696 -0.1263
v 0.03065 0.15586 -0.12252
v 0.02899 0.15806 -0.1263
v 0.0286 0.15681 -0.12252
v 0.02642 0.15851 -0.1263
v 0.02637 0.15721 -0.12252
v 0.02411 0.15701 -0.12252
v 0.02383 0.15829 -0.1263
v 0.02198 0.15624 -0.12252
v 0.02138 0.15739 -0.1263
v 0.02012 0.15494 -0.12252
v 0.01924 0.1559 -0.1263
v 0.01756 0.1539 -0.1263
v 0.01867 0.1532 -0.12252
v 0.01646 0.15154 -0.1263
v 0.01771 0.15115 -0.12252
v 0.01601 0.14897 -0.1263
v 0.01731 0.14891 -0.12252
v 0.01751 0.14666 -0.12252
v 0.01624 0.14637 -0.1263
v 0.01829 0.14453 -0.12252
v 0.01713 0.14392 -0.1263
v 0.01959 0.14267 -0.12252
v 0.01862 0.14179 -0.1263
v 0.01992 0.13902 -0.14223
v 0.01999 0.13911 -0.13577
v 0.02259 0.13777 -0.14223
v 0.02022 0.13948 -0.13009
v 0.02263 0.13788 -0.13577
v 0.0255 0.13726 -0.14223
v 0.02276 0.1383 -0.13009
v 0.0255 0.13737 -0.13577
v 0.03989 0.14793 -0.2227
v 0.03926 0.14435 -0.21978
v 0.03926 0.14435 -0.2227
v 0.03772 0.14106 -0.21978
v 0.03772 0.14106 -0.2227
v 0.03539 0.13828 -0.2227
v 0.03539 0.13828 -0.21978
v 0.03241 0.13619 -0.2227
v 0.03241 0.13619 -0.21978
v 0.029 0.13495 -0.2227
v 0.029 0.13495 -0.21978
v 0.02538 0.13464 -0.2227
v 0.02547 0.1366 -0.21954
v 0.02538 0.13464 -0.21978
v 0.0218 0.13527 -0.2227
v 0.02547 0.1366 -0.14282
v 0.0224 0.13714 -0.21954
v 0.0224 0.13714 -0.14282
v 0.0218 0.13527 -0.21978
v 0.01957 0.13846 -0.21954
v 0.01957 0.13846 -0.14282
v 0.01851 0.1368 -0.21978
v 0.01851 0.1368 -0.2227
v 0.02062 0.14011 -0.1263
v 0.02132 0.14121 -0.12252
v 0.02298 0.13901 -0.1263
v 0.02338 0.14025 -0.12252
v 0.02555 0.13856 -0.1263
v 0.02561 0.13986 -0.12252
v 0.01962 0.14966 -0.12252
v 0.01991 0.14632 -0.12252
v 0.02599 0.14853 -0.12386
v 0.03094 0.14438 -0.12252
v 0.0282 0.14246 -0.12252
v 0.02486 0.14216 -0.12252
v 0.03236 0.14741 -0.12252
v 0.02183 0.14358 -0.12252
v 0.03207 0.15075 -0.12252
v 0.02103 0.15269 -0.12252
v 0.02378 0.15461 -0.12252
v 0.02711 0.15491 -0.12252
v 0.03015 0.15349 -0.12252
vt 0.165929 0.943632
vt 0.155889 0.943724
vt 0.155553 0.945097
vt 0.166478 0.942473
vt 0.167913 0.942808
vt 0.166906 0.941099
vt 0.155553 0.946501
vt 0.166326 0.945006
vt 0.15595 0.947874
vt 0.167394 0.945708
vt 0.168432 0.9447
vt 0.168432 0.946684
vt 0.167943 0.948576
vt 0.166326 0.94641
vt 0.156652 0.949095
vt 0.16654 0.948912
vt 0.16599 0.947783
vt 0.157659 0.950102
vt 0.165288 0.949034
vt 0.15891 0.950804
vt 0.164281 0.950041
vt 0.16422 0.951292
vt 0.166967 0.950285
vt 0.16306 0.950743
vt 0.160283 0.95114
vt 0.161687 0.95114
vt 0.155339 0.942595
vt 0.15659 0.942473
vt 0.154485 0.945799
vt 0.1554 0.949034
vt 0.157781 0.951353
vt 0.160985 0.952178
vt 0.156377 0.951781
vt 0.158116 0.952757
vt 0.160009 0.953246
vt 0.155553 0.959105
vt 0.152287 0.957244
vt 0.159185 0.960051
vt 0.149602 0.954619
vt 0.161992 0.953246
vt 0.162938 0.960021
vt 0.16657 0.959014
vt 0.154973 0.950407
vt 0.147679 0.951384
vt 0.163884 0.952696
vt 0.169805 0.957091
vt 0.165593 0.95172
vt 0.17243 0.954405
vt 0.153996 0.948698
vt 0.146672 0.947752
vt 0.174291 0.95114
vt 0.175237 0.947508
vt 0.175207 0.943754
vt 0.1742 0.940123
vt 0.172277 0.936888
vt 0.169591 0.934263
vt 0.165502 0.939726
vt 0.166326 0.932401
vt 0.163762 0.938749
vt 0.162694 0.931455
vt 0.16187 0.938261
vt 0.15894 0.931486
vt 0.159886 0.938261
vt 0.157994 0.93878
vt 0.155309 0.932493
vt 0.156285 0.939787
vt 0.152074 0.934416
vt 0.154912 0.941191
vt 0.149449 0.937101
vt 0.157659 0.940214
vt 0.153935 0.94293
vt 0.147588 0.940367
vt 0.153447 0.944823
vt 0.146641 0.943999
vt 0.153447 0.946806
vt 0.160894 0.939299
vt 0.160192 0.940367
vt 0.164098 0.940153
vt 0.161596 0.940367
vt 0.158818 0.940764
vt 0.162969 0.940703
vt 0.157598 0.941465
vt 0.16422 0.941404
vt 0.165227 0.942412
vt 0.090121 0.092807
vt 0.009461 0.092807
vt 0.090121 0.096194
vt 0.009461 0.096194
vt 0.091769 0.096194
vt 0.091769 0.092807
vt 0.091769 0.099704
vt 0.090121 0.099704
vt 0.009461 0.099704
vt 0.091769 0.103183
vt 0.009461 0.103183
vt 0.090121 0.103183
vt 0.091769 0.106632
vt 0.009461 0.106632
vt 0.090121 0.106632
vt 0.091769 0.110019
vt 0.009461 0.110019
vt 0.090121 0.110019
vt 0.091769 0.113498
vt 0.009461 0.113498
vt 0.090121 0.113498
vt 0.009461 0.117008
vt 0.090121 0.117008
vt 0.091769 0.117008
vt 0.009461 0.120518
vt 0.090121 0.120518
vt 0.091769 0.120518
vt 0.009461 0.123966
vt 0.090121 0.123966
vt 0.009461 0.127384
vt 0.091769 0.123966
vt 0.090121 0.127384
vt 0.091769 0.127384
vt 0.090121 0.130924
vt 0.091769 0.130924
vt 0.090121 0.134373
vt 0.091769 0.134373
vt 0.009461 0.130924
vt 0.009461 0.134373
vt 0.090121 0.137761
vt 0.091769 0.137761
vt 0.009461 0.137761
vt 0.007416 0.130924
vt 0.090121 0.14124
vt 0.091769 0.14124
vt 0.009461 0.14124
vt 0.007416 0.134373
vt 0.090121 0.144749
vt 0.091769 0.144749
vt 0.007416 0.137761
vt 0.007416 0.14124
vt 0.090121 0.148228
vt 0.091769 0.148228
vt 0.009461 0.144749
vt 0.007416 0.144749
vt 0.004364 0.14124
vt 0.090121 0.151677
vt 0.091769 0.151677
vt 0.009461 0.148228
vt 0.007416 0.148228
vt 0.004364 0.144749
vt 0.003204 0.14124
vt 0.003204 0.144749
vt 0.004364 0.137761
vt 0.003204 0.137761
vt 0.004364 0.134373
vt 0.003204 0.134373
vt 0.004364 0.130924
vt 0.003204 0.130924
vt 0.007416 0.127384
vt 0.004364 0.127384
vt 0.003204 0.127384
vt 0.007416 0.123966
vt 0.004364 0.123966
vt 0.003204 0.123966
vt 0.007416 0.120518
vt 0.004364 0.120518
vt 0.003204 0.120518
vt 0.007416 0.117008
vt 0.004364 0.117008
vt 0.003204 0.117008
vt 0.007416 0.113498
vt 0.004364 0.113498
vt 0.003204 0.113498
vt 0.007416 0.110019
vt 0.494461 0.416059
vt 0.494461 0.422803
vt 0.497513 0.422803
vt 0.497513 0.416059
vt 0.500534 0.416059
vt 0.491409 0.416059
vt 0.497513 0.429151
vt 0.500534 0.422803
vt 0.503586 0.416059
vt 0.494461 0.429151
vt 0.500534 0.429151
vt 0.503586 0.422803
vt 0.503586 0.429151
vt 0.491409 0.422803
vt 0.491409 0.429151
vt 0.488357 0.416059
vt 0.488357 0.422803
vt 0.488357 0.429151
vt 0.485336 0.429151
vt 0.485336 0.422803
vt 0.485336 0.416059
vt 0.482284 0.429151
vt 0.482284 0.422803
vt 0.482284 0.416059
vt 0.479232 0.429151
vt 0.479232 0.422803
vt 0.479232 0.416059
vt 0.476211 0.416059
vt 0.476211 0.422803
vt 0.476211 0.429151
vt 0.473159 0.416059
vt 0.473159 0.422803
vt 0.473159 0.429151
vt 0.470107 0.416059
vt 0.470107 0.422803
vt 0.470107 0.429151
vt 0.467086 0.429151
vt 0.467086 0.422803
vt 0.467086 0.416059
vt 0.464034 0.429151
vt 0.464034 0.422803
vt 0.464034 0.416059
vt 0.460982 0.429151
vt 0.460982 0.422803
vt 0.460982 0.416059
vt 0.45793 0.416059
vt 0.45793 0.422803
vt 0.45793 0.429151
vt 0.454878 0.416059
vt 0.454878 0.422803
vt 0.454878 0.429151
vt 0.451827 0.416059
vt 0.451827 0.422803
vt 0.451827 0.429151
vt 0.448805 0.429151
vt 0.448805 0.422803
vt 0.448805 0.416059
vt 0.445753 0.429151
vt 0.445753 0.422803
vt 0.442701 0.429151
vt 0.445753 0.416059
vt 0.442701 0.422803
vt 0.442701 0.416059
vt 0.004364 0.148228
vt 0.003204 0.148228
vt 0.007416 0.151677
vt 0.004364 0.151677
vt 0.003204 0.151677
vt 0.009461 0.151677
vt 0.007416 0.155126
vt 0.004364 0.155126
vt 0.003204 0.155126
vt 0.009461 0.155126
vt 0.007416 0.158544
vt 0.004364 0.158544
vt 0.003204 0.158544
vt 0.004364 0.162023
vt 0.003204 0.162023
vt 0.007416 0.162023
vt 0.009461 0.158544
vt 0.009461 0.162023
vt 0.090121 0.162023
vt 0.090121 0.158544
vt 0.091769 0.162023
vt 0.091769 0.158544
vt 0.090121 0.155126
vt 0.091769 0.155126
vt 0.58507 0.351146
vt 0.587817 0.355266
vt 0.587817 0.351146
vt 0.590564 0.351146
vt 0.58507 0.355266
vt 0.582354 0.351146
vt 0.587817 0.359508
vt 0.590564 0.355266
vt 0.59331 0.351146
vt 0.58507 0.359508
vt 0.590564 0.359508
vt 0.582354 0.355266
vt 0.579608 0.351146
vt 0.582354 0.359508
vt 0.59331 0.355266
vt 0.59331 0.359508
vt 0.596026 0.351146
vt 0.579608 0.355266
vt 0.579608 0.359508
vt 0.576861 0.359508
vt 0.576861 0.355266
vt 0.576861 0.351146
vt 0.574114 0.359508
vt 0.574114 0.355266
vt 0.574114 0.351146
vt 0.571398 0.359508
vt 0.571398 0.355266
vt 0.571398 0.351146
vt 0.568651 0.351146
vt 0.568651 0.355266
vt 0.568651 0.359508
vt 0.565905 0.351146
vt 0.565905 0.355266
vt 0.565905 0.359508
vt 0.563189 0.351146
vt 0.563189 0.355266
vt 0.563189 0.359508
vt 0.560442 0.359508
vt 0.560442 0.355266
vt 0.560442 0.351146
vt 0.557695 0.359508
vt 0.557695 0.355266
vt 0.557695 0.351146
vt 0.554979 0.359508
vt 0.554979 0.355266
vt 0.554979 0.351146
vt 0.552232 0.351146
vt 0.552232 0.355266
vt 0.552232 0.359508
vt 0.549486 0.351146
vt 0.549486 0.355266
vt 0.549486 0.359508
vt 0.54677 0.351146
vt 0.54677 0.355266
vt 0.54677 0.359508
vt 0.544023 0.359508
vt 0.544023 0.355266
vt 0.544023 0.351146
vt 0.541307 0.359508
vt 0.541307 0.355266
vt 0.538499 0.359508
vt 0.541307 0.351146
vt 0.538499 0.355266
vt 0.538499 0.351146
vt 0.515763 0.422803
vt 0.512772 0.416059
vt 0.512772 0.422803
vt 0.515763 0.416059
vt 0.515763 0.429151
vt 0.50969 0.416059
vt 0.512772 0.429151
vt 0.50969 0.422803
vt 0.506638 0.416059
vt 0.50969 0.429151
vt 0.506638 0.422803
vt 0.506638 0.429151
vt 0.004364 0.110019
vt 0.003204 0.110019
vt 0.007416 0.106632
vt 0.004364 0.106632
vt 0.003204 0.106632
vt 0.007416 0.103183
vt 0.004364 0.103183
vt 0.003204 0.103183
vt 0.003204 0.099704
vt 0.004364 0.099704
vt 0.003204 0.096194
vt 0.007416 0.099704
vt 0.004364 0.096194
vt 0.007416 0.096194
vt 0.003204 0.092807
vt 0.004364 0.092807
vt 0.003204 0.089328
vt 0.007416 0.092807
vt 0.004364 0.089328
vt 0.003204 0.085879
vt 0.009461 0.089328
vt 0.007416 0.089328
vt 0.004364 0.085879
vt 0.003204 0.082369
vt 0.090121 0.089328
vt 0.091769 0.089328
vt 0.009461 0.085879
vt 0.090121 0.085879
vt 0.091769 0.085879
vt 0.007416 0.085879
vt 0.009461 0.082369
vt 0.090121 0.082369
vt 0.091769 0.082369
vt 0.090121 0.078951
vt 0.091769 0.078951
vt 0.009461 0.078951
vt 0.007416 0.082369
vt 0.007416 0.078951
vt 0.004364 0.078951
vt 0.004364 0.082369
vt 0.003204 0.078951
vt 0.6039 0.355266
vt 0.601489 0.351146
vt 0.601489 0.355266
vt 0.6039 0.351146
vt 0.6039 0.359508
vt 0.598773 0.351146
vt 0.601489 0.359508
vt 0.598773 0.355266
vt 0.598773 0.359508
vt 0.596026 0.355266
vt 0.596026 0.359508
vt 0.090457 0.994507
vt 0.093966 0.993591
vt 0.090518 0.987518
vt 0.094058 0.981536
vt 0.096591 0.9841
vt 0.097964 0.981933
vt 0.099155 0.984039
vt 0.096255 0.980193
vt 0.09415 0.978973
vt 0.09183 0.978332
vt 0.097507 0.987579
vt 0.099765 0.986389
vt 0.099734 0.98883
vt 0.099094 0.99118
vt 0.090579 0.98056
vt 0.089389 0.978301
vt 0.087039 0.978912
vt 0.09653 0.991058
vt 0.097873 0.993255
vt 0.096133 0.994964
vt 0.0871 0.981475
vt 0.084933 0.980102
vt 0.083193 0.981811
vt 0.094028 0.996155
vt 0.091678 0.996765
vt 0.089236 0.996734
vt 0.086886 0.996094
vt 0.087008 0.99353
vt 0.084811 0.994873
vt 0.083102 0.993133
vt 0.084475 0.990966
vt 0.081912 0.991028
vt 0.081301 0.988678
vt 0.08356 0.987457
vt 0.081332 0.986236
vt 0.084536 0.984008
vt 0.081973 0.983886
vn -0.0244 -0.0173 -0.9996
vn 0.0112 0.0274 -0.9996
vn 0.0132 0.0275 -0.9995
vn 0.1813 0.0661 -0.9812
vn 0.0049 0.003 -1
vn 0.0059 -0.001 -1
vn 0.0234 0.0194 -0.9995
vn 0.0254 0.0153 -0.9996
vn 0.1237 0.1482 -0.9812
vn 0.003 0.0049 -1
vn -0.0142 -0.0254 -0.9996
vn 0.0293 0.0051 -0.9996
vn 0.0342 0.1897 -0.9813
vn -0.0122 -0.0274 -0.9995
vn 0.0293 0.003 -0.9996
vn 0.002 -0.0292 -0.9996
vn 0.0284 -0.0112 -0.9995
vn 0.004 -0.0293 -0.9996
vn -0.0661 0.1813 -0.9812
vn -0.001 0.0049 -1
vn 0.0163 -0.0254 -0.9995
vn 0.0264 -0.0132 -0.9996
vn 0.0183 -0.0234 -0.9996
vn -0.0329 -0.1894 -0.9813
vn -0.001 0.0313 -0.9995
vn -0.1251 -0.1484 -0.981
vn -0.1827 -0.0661 -0.9809
vn -0.1897 0.0342 -0.9813
vn -0.1482 0.1237 -0.9812
vn -0.0059 -0.001 -1
vn -0.0049 0.003 -1
vn 0 -0.001 -1
vn -0.003 0.0049 -1
vn -0.0059 -0.003 -1
vn 0.0059 -0.003 -1
vn 0.0039 -0.0049 -1
vn 0 -0.0069 -1
vn 0.0649 -0.1839 -0.9808
vn -0.002 -0.0069 -1
vn -0.0039 -0.0049 -1
vn 0.1472 -0.1263 -0.981
vn -0.0173 0.0255 -0.9995
vn 0.1906 -0.0318 -0.9812
vn -0.0275 0.0132 -0.9995
vn -0.0173 0.0234 -0.9996
vn -0.0274 0.0112 -0.9996
vn -0.003 0.0313 -0.9995
vn -0.0302 -0.001 -0.9995
vn -0.0303 -0.003 -0.9995
vn 0.2157 -0.9764 0.007
vn 0.2173 -0.9757 0.0287
vn 0.4615 -0.8871 0.008
vn 0.4604 -0.8872 0.0296
vn 0.3049 -0.5857 0.751
vn 0.1445 -0.6458 0.7497
vn 0.4478 -0.4857 0.7507
vn 0.6751 -0.7376 0.0083
vn 0.6772 -0.7351 0.031
vn 0.5589 -0.3525 0.7506
vn 0.8436 -0.5362 0.0303
vn 0.8441 -0.5361 0.0081
vn 0.6301 -0.1992 0.7505
vn 0.9535 -0.2999 0.0301
vn 0.9531 -0.3025 0.0074
vn 0.6618 -0.0296 0.7491
vn 0.9986 -0.0451 0.0294
vn 0.999 -0.0442 0.0082
vn 0.6452 0.1429 0.7505
vn 0.9759 0.2162 0.0299
vn 0.9761 0.2173 0.0082
vn 0.8877 0.4593 0.031
vn 0.8866 0.4625 0.0066
vn 0.5861 0.3067 0.7499
vn 0.7371 0.6751 0.0296
vn 0.737 0.6759 0.0069
vn 0.4891 0.4463 0.7494
vn 0.5356 0.844 0.0289
vn 0.5355 0.8445 0.0068
vn 0.2995 0.9537 0.0288
vn 0.3561 0.5578 0.7497
vn 0.2999 0.9539 0.0086
vn 0.1993 0.6317 0.7491
vn 0.0441 0.999 0.0072
vn 0.0296 0.6603 0.7504
vn -0.2173 0.9761 0.0082
vn -0.1429 0.6452 0.7505
vn 0.043 0.9986 0.0304
vn -0.2162 0.9759 0.0299
vn -0.4625 0.8866 0.0066
vn -0.3067 0.5861 0.7499
vn -0.4626 0.886 0.031
vn 0.0395 0.8806 0.4723
vn -0.6759 0.737 0.0069
vn -0.4463 0.4891 0.7494
vn -0.6751 0.7371 0.0296
vn -0.1923 0.8601 0.4725
vn -0.8425 0.5386 0.0068
vn -0.5578 0.3561 0.7497
vn -0.4077 0.7813 0.4727
vn -0.596 0.6498 0.4718
vn -0.9539 0.2999 0.0086
vn -0.6317 0.1993 0.7491
vn -0.8419 0.5388 0.0289
vn -0.7445 0.4738 0.4705
vn -0.6573 0.714 -0.2412
vn -0.999 0.0441 0.0072
vn -0.6603 0.0296 0.7504
vn -0.9527 0.3025 0.0289
vn -0.8404 0.2637 0.4734
vn -0.8198 0.5203 -0.2393
vn -0.3738 0.4053 -0.8343
vn -0.4633 0.298 -0.8346
vn -0.4503 0.8597 -0.2411
vn -0.2545 0.4889 -0.8344
vn -0.2088 0.9484 -0.2388
vn -0.118 0.5376 -0.8349
vn 0.0428 0.9702 -0.2386
vn 0.0234 0.5491 -0.8354
vn 0.2637 0.8404 0.4734
vn 0.2923 0.9255 -0.241
vn 0.1656 0.5266 -0.8339
vn 0.4738 0.7445 0.4705
vn 0.5203 0.8198 -0.2393
vn 0.2947 0.4662 -0.8342
vn 0.6498 0.596 0.4718
vn 0.717 0.654 -0.2411
vn 0.4053 0.3738 -0.8343
vn 0.7813 0.4077 0.4727
vn 0.8617 0.4467 -0.2408
vn 0.4889 0.2545 -0.8344
vn 0.8601 0.1923 0.4725
vn 0.9475 0.2119 -0.2393
vn 0.5376 0.118 -0.8349
vn 0.8804 -0.0367 0.4728
vn 0.8417 -0.5397 0.0164
vn 0.8432 -0.5357 0.0445
vn 0.6751 -0.7363 0.0456
vn 0.6763 -0.7364 0.0168
vn 0.4626 -0.8864 0.0187
vn 0.953 -0.3023 0.0174
vn 0.6745 -0.7341 0.0785
vn 0.4603 -0.8866 0.0463
vn 0.2149 -0.9765 0.0165
vn 0.841 -0.5356 0.0767
vn 0.4619 -0.8835 0.0779
vn 0.2152 -0.9755 0.0459
vn 0.2152 -0.9735 0.0767
vn 0.9525 -0.301 0.0457
vn 0.9507 -0.3 0.0779
vn 0.9989 -0.0425 0.0187
vn 0.9981 -0.0435 0.0446
vn 0.9961 -0.0448 0.0765
vn 0.9737 0.214 0.0779
vn 0.9753 0.2163 0.0447
vn 0.9761 0.2165 0.0177
vn 0.8848 0.4597 0.0764
vn 0.8861 0.4614 0.0449
vn 0.8875 0.4604 0.0174
vn 0.7362 0.6723 0.077
vn 0.7357 0.6759 0.0441
vn 0.7371 0.6755 0.0182
vn 0.5371 0.8433 0.0178
vn 0.5363 0.8428 0.046
vn 0.5362 0.8405 0.0782
vn 0.2997 0.9538 0.0187
vn 0.3007 0.9527 0.0444
vn 0.2997 0.951 0.0765
vn 0.0446 0.9988 0.0176
vn 0.0436 0.998 0.0457
vn 0.0425 0.9961 0.0775
vn -0.2169 0.9731 0.0781
vn -0.2163 0.9753 0.0447
vn -0.2165 0.9761 0.0177
vn -0.4597 0.8848 0.0764
vn -0.4614 0.8861 0.0449
vn -0.4604 0.8875 0.0173
vn -0.6723 0.7362 0.077
vn -0.6759 0.7357 0.0441
vn -0.6755 0.7371 0.0182
vn -0.8433 0.5371 0.0178
vn -0.8428 0.5363 0.046
vn -0.8405 0.5362 0.0782
vn -0.9538 0.2997 0.0187
vn -0.9527 0.3007 0.0444
vn -0.951 0.2997 0.0765
vn -0.9988 0.0446 0.0176
vn -0.998 0.0436 0.0457
vn -0.9961 0.0425 0.0775
vn -0.9732 -0.2167 0.0768
vn -0.9752 -0.2166 0.046
vn -0.9762 -0.2163 0.0165
vn -0.8844 -0.4603 0.0779
vn -0.8857 -0.4619 0.0463
vn -0.8168 -0.5717 0.0774
vn -0.8872 -0.461 0.0187
vn -0.8173 -0.5744 0.0449
vn -0.8183 -0.5745 0.0165
vn -0.9255 0.2923 -0.241
vn -0.5266 0.1656 -0.8339
vn -0.8806 0.0395 0.4723
vn -0.9702 0.0428 -0.2386
vn -0.5491 0.0234 -0.8354
vn -0.9986 0.043 0.0304
vn -0.8611 -0.1922 0.4708
vn -0.9479 -0.209 -0.2404
vn -0.5371 -0.1211 -0.8348
vn -0.9754 -0.2187 0.0287
vn -0.7825 -0.4075 0.4708
vn -0.8604 -0.4499 -0.2393
vn -0.4871 -0.2543 -0.8355
vn -0.7956 -0.5579 -0.2362
vn -0.455 -0.3185 -0.8316
vn -0.724 -0.5065 0.4683
vn -0.8864 -0.462 0.0296
vn -0.8202 -0.5713 0.0306
vn -0.8189 -0.5738 0.0082
vn -0.8863 -0.4631 0.008
vn -0.5463 -0.3811 0.7459
vn -0.587 -0.3031 0.7507
vn -0.9761 -0.217 0.007
vn -0.6468 -0.1429 0.7491
vn 0.8289 -0.5249 0.1936
vn 0.6534 -0.7121 0.2569
vn 0.6633 -0.7235 0.1913
vn 0.4536 -0.8701 0.1927
vn 0.8147 -0.5208 0.255
vn 0.9355 -0.2965 0.1921
vn 0.6398 -0.6966 0.3248
vn 0.4451 -0.8581 0.2561
vn 0.2132 -0.958 0.1919
vn 0.7972 -0.5086 0.3253
vn 0.4347 -0.8398 0.3253
vn 0.9218 -0.2915 0.2556
vn 0.9803 -0.044 0.1927
vn 0.9016 -0.2853 0.3252
vn 0.2094 -0.9437 0.2562
vn 0.2047 -0.9226 0.327
vn -0.0428 -0.9804 0.1925
vn 0.9656 -0.0407 0.2568
vn 0.9444 -0.0423 0.3259
vn 0.9228 0.2062 0.3256
vn 0.9436 0.208 0.2576
vn 0.958 0.2119 0.1932
vn 0.8378 0.4369 0.3273
vn 0.8584 0.4437 0.2577
vn 0.8698 0.4549 0.1911
vn 0.6969 0.6385 0.3265
vn 0.7116 0.6546 0.2552
vn 0.724 0.6623 0.193
vn 0.5279 0.8273 0.1921
vn 0.5177 0.8162 0.2565
vn 0.509 0.7962 0.3271
vn 0.2968 0.9351 0.1937
vn 0.2918 0.9212 0.2573
vn 0.2855 0.9009 0.3269
vn 0.044 0.9805 0.1914
vn 0.0433 0.9657 0.256
vn 0.0424 0.9439 0.3275
vn -0.2029 0.9237 0.3249
vn -0.208 0.9436 0.2576
vn -0.2119 0.958 0.1932
vn -0.4369 0.8378 0.3273
vn -0.4473 0.8564 0.258
vn -0.4514 0.8717 0.1909
vn -0.6385 0.6969 0.3265
vn -0.6513 0.7147 0.2551
vn -0.6623 0.724 0.193
vn -0.8273 0.5279 0.1921
vn -0.8162 0.5177 0.2565
vn -0.7962 0.509 0.3271
vn -0.9362 0.2935 0.1934
vn -0.9224 0.2884 0.2568
vn -0.9022 0.282 0.3263
vn -0.9805 0.044 0.1914
vn -0.9657 0.0433 0.256
vn -0.9443 0.0397 0.3267
vn -0.9231 -0.2031 0.3266
vn -0.9441 -0.2078 0.256
vn -0.9584 -0.2116 0.1917
vn -0.8387 -0.4366 0.3255
vn -0.8571 -0.4469 0.2562
vn -0.7764 -0.5406 0.324
vn -0.8711 -0.4518 0.1926
vn -0.7919 -0.5556 0.2535
vn -0.8044 -0.5622 0.192
vn -0.6419 -0.7654 0.0454
vn -0.5381 -0.8427 0.0164
vn -0.5373 -0.8422 0.0445
vn -0.6438 -0.765 0.0167
vn -0.6394 -0.7652 0.0752
vn -0.3008 -0.9535 0.0174
vn -0.5339 -0.8421 0.0767
vn -0.2995 -0.953 0.0457
vn -0.0436 -0.9989 0.0187
vn -0.2985 -0.9512 0.0779
vn -0.0446 -0.998 0.0446
vn -0.0436 -0.9961 0.0764
vn 0.9698 -0.0429 -0.24
vn 0.5507 -0.0234 -0.8344
vn 0.8415 -0.2635 0.4716
vn 0.926 -0.292 -0.2393
vn 0.5248 -0.1655 -0.835
vn 0.7432 -0.474 0.4723
vn 0.819 -0.5207 -0.2411
vn 0.4644 -0.2945 -0.8352
vn 0.3719 -0.405 -0.8352
vn 0.6552 -0.7166 -0.2394
vn 0.2527 -0.4885 -0.8352
vn 0.5945 -0.6499 0.4736
vn 0.4481 -0.8614 -0.2392
vn 0.4056 -0.7836 0.4705
vn 0.1196 -0.5382 -0.8343
vn 0.2106 -0.9475 -0.2406
vn -0.0248 -0.5498 -0.835
vn 0.1905 -0.8617 0.4703
vn -0.0416 -0.9699 -0.2397
vn -0.1671 -0.5236 -0.8354
vn -0.044 -0.9986 0.0293
vn -0.0381 -0.8801 0.4734
vn -0.2904 -0.9266 -0.2391
vn -0.2962 -0.4629 -0.8355
vn -0.0431 -0.999 0.0082
vn -0.0281 -0.6626 0.7484
vn -0.3014 -0.953 0.0301
vn -0.301 -0.9536 0.0074
vn -0.1975 -0.6312 0.75
vn -0.2653 -0.8407 0.472
vn -0.5378 -0.8425 0.0303
vn -0.5376 -0.8431 0.0081
vn -0.3543 -0.5574 0.7508
vn -0.6427 -0.766 0.0083
vn -0.4279 -0.5085 0.7472
vn -0.6444 -0.764 0.031
vn -0.4721 -0.7445 0.4721
vn -0.566 -0.6781 0.4688
vn -0.6252 -0.743 -0.2388
vn -0.5225 -0.8178 -0.2412
vn -0.3563 -0.4242 -0.8325
vn -0.6223 -0.7408 0.2527
vn -0.5266 -0.8277 0.1937
vn -0.519 -0.8159 0.2549
vn -0.6307 -0.7522 0.1907
vn -0.609 -0.724 0.3239
vn -0.2949 -0.9361 0.1919
vn -0.5068 -0.7984 0.3251
vn -0.2898 -0.9224 0.2553
vn -0.2835 -0.9023 0.3249
vn -0.042 -0.9655 0.2571
vn -0.041 -0.9446 0.3256
vn 0.018 -0.003 0.9998
vn 0.017 0.007 0.9998
vn 0 -0.001 1
vn -0.013 0.013 0.9998
vn -0.007 0.017 0.9998
vn 0.003 0.019 0.9998
vn -0.019 0.003 0.9998
vn 0.011 0.015 0.9998
vn -0.018 -0.005 0.9998
vn 0.014 -0.011 0.9998
vn 0.006 -0.017 0.9998
vn -0.004 -0.017 0.9998
vn -0.012 -0.013 0.9998
o cylbullet8__p1_c0
f 1/1/1 2/2/2 3/3/3
f 4/4/4 5/5/5 6/6/6
f 1/1/1 3/3/3 7/7/7
f 1/1/1 7/7/7 8/8/1
f 1/1/1 8/8/1 4/4/4
f 8/8/1 7/7/7 9/9/8
f 5/5/5 4/4/4 10/10/9
f 10/10/9 4/4/4 8/8/1
f 5/5/5 10/10/9 11/11/5
f 11/11/5 10/10/9 12/12/10
f 12/12/10 10/10/9 13/13/10
f 8/8/1 9/9/8 14/14/11
f 8/8/1 14/14/11 10/10/9
f 14/14/11 9/9/8 15/15/12
f 13/13/10 10/10/9 16/16/13
f 16/16/13 10/10/9 14/14/11
f 14/14/11 15/15/12 17/17/14
f 14/14/11 17/17/14 16/16/13
f 17/17/14 15/15/12 18/18/15
f 17/17/14 18/18/15 19/19/16
f 17/17/14 19/19/16 16/16/13
f 19/19/16 18/18/15 20/20/17
f 16/16/13 19/19/16 21/21/18
f 21/21/18 19/19/16 20/20/17
f 16/16/13 21/21/18 22/22/19
f 16/16/13 22/22/19 23/23/20
f 16/16/13 23/23/20 13/13/10
f 21/21/18 20/20/17 24/24/21
f 24/24/21 20/20/17 25/25/22
f 24/24/21 25/25/22 26/26/23
f 27/27/24 2/2/2 28/28/25
f 3/3/3 2/2/2 27/27/24
f 3/3/3 27/27/24 29/29/26
f 3/3/3 29/29/26 7/7/7
f 7/7/7 29/29/26 30/30/27
f 7/7/7 30/30/27 9/9/8
f 9/9/8 30/30/27 15/15/12
f 15/15/12 30/30/27 31/31/28
f 15/15/12 31/31/28 18/18/15
f 18/18/15 31/31/28 20/20/17
f 20/20/17 31/31/28 25/25/22
f 25/25/22 31/31/28 32/32/29
f 25/25/22 32/32/29 26/26/23
f 31/31/28 30/30/27 33/33/30
f 26/26/23 32/32/29 22/22/19
f 26/26/23 22/22/19 24/24/21
f 24/24/21 22/22/19 21/21/18
f 32/32/29 31/31/28 34/34/31
f 34/34/31 31/31/28 33/33/30
f 32/32/29 34/34/31 35/35/31
f 35/35/31 34/34/31 36/36/32
f 36/36/32 34/34/31 33/33/30
f 36/36/32 33/33/30 37/37/32
f 35/35/31 36/36/32 38/38/32
f 37/37/32 33/33/30 39/39/32
f 35/35/31 38/38/32 40/40/33
f 35/35/31 40/40/33 32/32/29
f 40/40/33 38/38/32 41/41/32
f 40/40/33 41/41/32 42/42/32
f 39/39/32 33/33/30 43/43/30
f 43/43/30 33/33/30 30/30/27
f 39/39/32 43/43/30 44/44/32
f 32/32/29 40/40/33 45/45/33
f 45/45/33 40/40/33 42/42/32
f 45/45/33 42/42/32 46/46/32
f 32/32/29 45/45/33 22/22/19
f 45/45/33 46/46/32 47/47/20
f 45/45/33 47/47/20 22/22/19
f 47/47/20 46/46/32 48/48/32
f 49/49/34 44/44/32 43/43/30
f 49/49/34 43/43/30 30/30/27
f 44/44/32 49/49/34 50/50/32
f 49/49/34 30/30/27 29/29/26
f 47/47/20 48/48/32 23/23/20
f 47/47/20 23/23/20 22/22/19
f 23/23/20 48/48/32 51/51/32
f 23/23/20 51/51/32 13/13/10
f 13/13/10 51/51/32 52/52/32
f 13/13/10 52/52/32 12/12/10
f 12/12/10 52/52/32 53/53/32
f 12/12/10 53/53/32 11/11/5
f 11/11/5 53/53/32 54/54/32
f 11/11/5 54/54/32 5/5/5
f 5/5/5 54/54/32 6/6/6
f 6/6/6 54/54/32 55/55/32
f 6/6/6 55/55/32 56/56/32
f 6/6/6 56/56/32 57/57/6
f 57/57/6 56/56/32 58/58/32
f 57/57/6 58/58/32 59/59/35
f 59/59/35 58/58/32 60/60/32
f 59/59/35 60/60/32 61/61/35
f 61/61/35 60/60/32 62/62/32
f 61/61/35 62/62/32 63/63/36
f 63/63/36 62/62/32 64/64/36
f 64/64/36 62/62/32 65/65/32
f 64/64/36 65/65/32 66/66/37
f 66/66/37 65/65/32 67/67/32
f 66/66/37 67/67/32 68/68/37
f 68/68/37 67/67/32 69/69/32
f 66/66/37 68/68/37 70/70/38
f 68/68/37 69/69/32 71/71/39
f 71/71/39 69/69/32 72/72/32
f 68/68/37 71/71/39 27/27/24
f 68/68/37 27/27/24 70/70/38
f 71/71/39 72/72/32 73/73/39
f 73/73/39 72/72/32 74/74/32
f 27/27/24 71/71/39 29/29/26
f 29/29/26 71/71/39 73/73/39
f 73/73/39 74/74/32 75/75/40
f 73/73/39 75/75/40 29/29/26
f 75/75/40 74/74/32 50/50/32
f 29/29/26 75/75/40 49/49/34
f 49/49/34 75/75/40 50/50/32
f 64/64/36 66/66/37 70/70/38
f 64/64/36 70/70/38 63/63/36
f 63/63/36 70/70/38 76/76/41
f 63/63/36 76/76/41 61/61/35
f 76/76/41 70/70/38 77/77/42
f 61/61/35 76/76/41 78/78/43
f 61/61/35 78/78/43 59/59/35
f 76/76/41 77/77/42 79/79/44
f 76/76/41 79/79/44 78/78/43
f 59/59/35 78/78/43 57/57/6
f 79/79/44 77/77/42 80/80/45
f 80/80/45 77/77/42 70/70/38
f 79/79/44 80/80/45 81/81/46
f 79/79/44 81/81/46 78/78/43
f 80/80/45 70/70/38 82/82/47
f 80/80/45 82/82/47 81/81/46
f 82/82/47 70/70/38 27/27/24
f 82/82/47 27/27/24 28/28/25
f 82/82/47 28/28/25 81/81/46
f 78/78/43 81/81/46 83/83/48
f 83/83/48 81/81/46 28/28/25
f 83/83/48 28/28/25 84/84/49
f 83/83/48 84/84/49 78/78/43
f 84/84/49 28/28/25 2/2/2
f 4/4/4 57/57/6 78/78/43
f 4/4/4 78/78/43 84/84/49
f 57/57/6 4/4/4 6/6/6
f 84/84/49 2/2/2 1/1/1
f 84/84/49 1/1/1 4/4/4
f 85/85/50 86/86/51 87/87/52
f 87/87/52 86/86/51 88/88/53
f 85/85/50 87/87/52 89/89/54
f 85/85/50 89/89/54 90/90/55
f 89/89/54 87/87/52 91/91/56
f 87/87/52 88/88/53 92/92/57
f 87/87/52 92/92/57 91/91/56
f 92/92/57 88/88/53 93/93/58
f 91/91/56 92/92/57 94/94/59
f 92/92/57 93/93/58 95/95/60
f 94/94/59 92/92/57 96/96/61
f 96/96/61 92/92/57 95/95/60
f 94/94/59 96/96/61 97/97/62
f 96/96/61 95/95/60 98/98/63
f 97/97/62 96/96/61 99/99/64
f 99/99/64 96/96/61 98/98/63
f 97/97/62 99/99/64 100/100/65
f 99/99/64 98/98/63 101/101/66
f 100/100/65 99/99/64 102/102/67
f 102/102/67 99/99/64 101/101/66
f 100/100/65 102/102/67 103/103/68
f 102/102/67 101/101/66 104/104/69
f 102/102/67 104/104/69 105/105/70
f 102/102/67 105/105/70 103/103/68
f 105/105/70 104/104/69 106/106/71
f 103/103/68 105/105/70 107/107/72
f 107/107/72 105/105/70 106/106/71
f 103/103/68 107/107/72 108/108/73
f 107/107/72 106/106/71 109/109/74
f 108/108/73 107/107/72 110/110/75
f 110/110/75 107/107/72 109/109/74
f 108/108/73 110/110/75 111/111/76
f 110/110/75 109/109/74 112/112/77
f 111/111/76 110/110/75 113/113/78
f 113/113/78 110/110/75 112/112/77
f 113/113/78 112/112/77 114/114/79
f 111/111/76 113/113/78 115/115/80
f 113/113/78 114/114/79 116/116/81
f 113/113/78 116/116/81 115/115/80
f 115/115/80 116/116/81 117/117/82
f 116/116/81 118/118/83 117/117/82
f 117/117/82 118/118/83 119/119/84
f 118/118/83 116/116/81 114/114/79
f 119/119/84 118/118/83 120/120/85
f 119/119/84 120/120/85 121/121/86
f 118/118/83 114/114/79 122/122/87
f 120/120/85 118/118/83 123/123/88
f 123/123/88 118/118/83 122/122/87
f 121/121/86 120/120/85 124/124/89
f 121/121/86 124/124/89 125/125/90
f 120/120/85 123/123/88 126/126/91
f 120/120/85 126/126/91 124/124/89
f 123/123/88 122/122/87 127/127/92
f 125/125/90 124/124/89 128/128/93
f 125/125/90 128/128/93 129/129/94
f 124/124/89 126/126/91 130/130/95
f 124/124/89 130/130/95 128/128/93
f 126/126/91 123/123/88 131/131/96
f 131/131/96 123/123/88 127/127/92
f 129/129/94 128/128/93 132/132/97
f 132/132/97 128/128/93 130/130/95
f 129/129/94 132/132/97 133/133/98
f 126/126/91 131/131/96 134/134/99
f 126/126/91 134/134/99 130/130/95
f 130/130/95 134/134/99 135/135/100
f 133/133/98 132/132/97 136/136/101
f 133/133/98 136/136/101 137/137/102
f 132/132/97 130/130/95 138/138/103
f 132/132/97 138/138/103 136/136/101
f 130/130/95 135/135/100 139/139/104
f 130/130/95 139/139/104 138/138/103
f 135/135/100 134/134/99 140/140/105
f 135/135/100 140/140/105 139/139/104
f 137/137/102 136/136/101 141/141/106
f 137/137/102 141/141/106 142/142/107
f 136/136/101 138/138/103 143/143/108
f 136/136/101 143/143/108 141/141/106
f 138/138/103 139/139/104 144/144/109
f 138/138/103 144/144/109 143/143/108
f 139/139/104 140/140/105 145/145/110
f 139/139/104 145/145/110 144/144/109
f 145/145/110 140/140/105 62/146/111
f 145/145/110 62/146/111 60/147/112
f 62/146/111 140/140/105 146/148/113
f 146/148/113 140/140/105 134/134/99
f 62/146/111 146/148/113 65/149/114
f 146/148/113 134/134/99 131/131/96
f 65/149/114 146/148/113 147/150/115
f 147/150/115 146/148/113 131/131/96
f 65/149/114 147/150/115 67/151/116
f 147/150/115 131/131/96 127/127/92
f 67/151/116 147/150/115 148/152/117
f 148/152/117 147/150/115 127/127/92
f 67/151/116 148/152/117 69/153/118
f 148/152/117 127/127/92 149/154/119
f 149/154/119 127/127/92 122/122/87
f 149/154/119 122/122/87 114/114/79
f 69/153/118 148/152/117 150/155/120
f 150/155/120 148/152/117 149/154/119
f 69/153/118 150/155/120 72/156/121
f 149/154/119 114/114/79 151/157/122
f 149/154/119 151/157/122 150/155/120
f 151/157/122 114/114/79 112/112/77
f 150/155/120 151/157/122 152/158/123
f 150/155/120 152/158/123 72/156/121
f 72/156/121 152/158/123 74/159/124
f 151/157/122 112/112/77 153/160/125
f 151/157/122 153/160/125 152/158/123
f 153/160/125 112/112/77 109/109/74
f 74/159/124 152/158/123 154/161/126
f 154/161/126 152/158/123 153/160/125
f 74/159/124 154/161/126 50/162/127
f 153/160/125 109/109/74 155/163/128
f 153/160/125 155/163/128 154/161/126
f 155/163/128 109/109/74 106/106/71
f 50/162/127 154/161/126 156/164/129
f 156/164/129 154/161/126 155/163/128
f 50/162/127 156/164/129 44/165/130
f 155/163/128 106/106/71 157/166/131
f 155/163/128 157/166/131 156/164/129
f 157/166/131 106/106/71 104/104/69
f 44/165/130 156/164/129 158/167/132
f 158/167/132 156/164/129 157/166/131
f 44/165/130 158/167/132 39/168/133
f 157/166/131 104/104/69 159/169/134
f 157/166/131 159/169/134 158/167/132
f 94/170/135 160/171/136 161/172/137
f 94/170/135 161/172/137 91/173/138
f 91/173/138 161/172/137 89/174/139
f 160/171/136 94/170/135 97/175/140
f 161/172/137 160/171/136 162/176/141
f 89/174/139 161/172/137 163/177/142
f 163/177/142 161/172/137 162/176/141
f 89/174/139 163/177/142 90/178/143
f 162/176/141 160/171/136 164/179/144
f 163/177/142 162/176/141 165/180/145
f 90/178/143 163/177/142 166/181/146
f 166/181/146 163/177/142 165/180/145
f 166/181/146 165/180/145 167/182/147
f 164/179/144 160/171/136 168/183/148
f 168/183/148 160/171/136 97/175/140
f 164/179/144 168/183/148 169/184/149
f 168/183/148 97/175/140 100/185/150
f 169/184/149 168/183/148 170/186/151
f 170/186/151 168/183/148 100/185/150
f 169/184/149 170/186/151 171/187/152
f 171/187/152 170/186/151 172/188/153
f 170/186/151 100/185/150 173/189/154
f 170/186/151 173/189/154 172/188/153
f 173/189/154 100/185/150 103/190/155
f 172/188/153 173/189/154 174/191/156
f 173/189/154 103/190/155 175/192/157
f 173/189/154 175/192/157 174/191/156
f 175/192/157 103/190/155 108/193/158
f 174/191/156 175/192/157 176/194/159
f 175/192/157 108/193/158 177/195/160
f 175/192/157 177/195/160 176/194/159
f 177/195/160 108/193/158 111/196/161
f 177/195/160 111/196/161 115/197/162
f 176/194/159 177/195/160 178/198/163
f 178/198/163 177/195/160 115/197/162
f 176/194/159 178/198/163 179/199/164
f 178/198/163 115/197/162 117/200/165
f 179/199/164 178/198/163 180/201/166
f 180/201/166 178/198/163 117/200/165
f 179/199/164 180/201/166 181/202/167
f 180/201/166 117/200/165 119/203/168
f 182/204/169 181/202/167 180/201/166
f 182/204/169 180/201/166 119/203/168
f 181/202/167 182/204/169 183/205/170
f 183/205/170 182/204/169 184/206/171
f 182/204/169 119/203/168 185/207/172
f 182/204/169 185/207/172 184/206/171
f 185/207/172 119/203/168 121/208/173
f 184/206/171 185/207/172 186/209/174
f 185/207/172 121/208/173 187/210/175
f 185/207/172 187/210/175 186/209/174
f 187/210/175 121/208/173 125/211/176
f 186/209/174 187/210/175 188/212/177
f 187/210/175 125/211/176 189/213/178
f 187/210/175 189/213/178 188/212/177
f 189/213/178 125/211/176 129/214/179
f 189/213/178 129/214/179 133/215/180
f 188/212/177 189/213/178 190/216/181
f 190/216/181 189/213/178 133/215/180
f 188/212/177 190/216/181 191/217/182
f 190/216/181 133/215/180 137/218/183
f 191/217/182 190/216/181 192/219/184
f 192/219/184 190/216/181 137/218/183
f 191/217/182 192/219/184 193/220/185
f 192/219/184 137/218/183 142/221/186
f 193/220/185 192/219/184 194/222/187
f 194/222/187 192/219/184 142/221/186
f 193/220/185 194/222/187 195/223/188
f 195/223/188 194/222/187 196/224/189
f 194/222/187 142/221/186 197/225/190
f 194/222/187 197/225/190 196/224/189
f 197/225/190 142/221/186 198/226/191
f 196/224/189 197/225/190 199/227/192
f 197/225/190 198/226/191 200/228/193
f 197/225/190 200/228/193 199/227/192
f 199/227/192 200/228/193 201/229/194
f 200/228/193 198/226/191 202/230/195
f 201/229/194 200/228/193 203/231/196
f 203/231/196 200/228/193 202/230/195
f 203/231/196 202/230/195 204/232/197
f 205/233/198 145/145/110 60/147/112
f 145/145/110 205/233/198 144/144/109
f 205/233/198 60/147/112 58/234/199
f 144/144/109 205/233/198 206/235/200
f 144/144/109 206/235/200 143/143/108
f 205/233/198 58/234/199 207/236/201
f 205/233/198 207/236/201 206/235/200
f 207/236/201 58/234/199 56/237/202
f 143/143/108 206/235/200 208/238/203
f 143/143/108 208/238/203 141/141/106
f 206/235/200 207/236/201 209/239/204
f 206/235/200 209/239/204 208/238/203
f 207/236/201 56/237/202 210/240/205
f 207/236/201 210/240/205 209/239/204
f 210/240/205 56/237/202 55/241/206
f 208/238/203 209/239/204 211/242/207
f 208/238/203 211/242/207 141/141/106
f 209/239/204 210/240/205 212/243/208
f 209/239/204 212/243/208 211/242/207
f 210/240/205 55/241/206 213/244/209
f 210/240/205 213/244/209 212/243/208
f 213/244/209 55/241/206 54/245/210
f 213/244/209 54/245/210 214/246/211
f 214/246/211 54/245/210 53/247/212
f 213/244/209 214/246/211 215/248/213
f 213/244/209 215/248/213 212/243/208
f 212/243/208 215/248/213 216/249/214
f 212/243/208 216/249/214 211/242/207
f 216/249/214 215/248/213 217/250/215
f 216/249/214 217/250/215 218/251/216
f 216/249/214 218/251/216 219/252/217
f 216/249/214 219/252/217 211/242/207
f 219/252/217 218/251/216 204/253/218
f 219/252/217 204/253/218 202/254/219
f 211/242/207 219/252/217 220/255/220
f 220/255/220 219/252/217 202/254/219
f 211/242/207 220/255/220 141/141/106
f 220/255/220 202/254/219 198/256/221
f 141/141/106 220/255/220 142/142/107
f 142/142/107 220/255/220 198/256/221
f 164/257/222 221/258/223 162/259/224
f 162/259/224 221/258/223 165/260/225
f 221/258/223 164/257/222 222/261/226
f 222/261/226 164/257/222 169/262/227
f 221/258/223 222/261/226 223/263/228
f 165/260/225 221/258/223 224/264/229
f 224/264/229 221/258/223 223/263/228
f 165/260/225 224/264/229 167/265/230
f 223/263/228 222/261/226 225/266/231
f 224/264/229 223/263/228 226/267/232
f 222/261/226 169/262/227 227/268/233
f 222/261/226 227/268/233 225/266/231
f 227/268/233 169/262/227 171/269/234
f 225/266/231 227/268/233 228/270/235
f 224/264/229 226/267/232 229/271/236
f 224/264/229 229/271/236 167/265/230
f 229/271/236 226/267/232 230/272/237
f 167/265/230 229/271/236 231/273/238
f 228/270/235 227/268/233 232/274/239
f 232/274/239 227/268/233 171/269/234
f 228/270/235 232/274/239 233/275/240
f 233/275/240 232/274/239 234/276/241
f 232/274/239 171/269/234 235/277/242
f 232/274/239 235/277/242 234/276/241
f 235/277/242 171/269/234 172/278/243
f 234/276/241 235/277/242 236/279/244
f 235/277/242 172/278/243 237/280/245
f 235/277/242 237/280/245 236/279/244
f 237/280/245 172/278/243 174/281/246
f 236/279/244 237/280/245 238/282/247
f 237/280/245 174/281/246 239/283/248
f 237/280/245 239/283/248 238/282/247
f 239/283/248 174/281/246 176/284/249
f 239/283/248 176/284/249 179/285/250
f 238/282/247 239/283/248 240/286/251
f 240/286/251 239/283/248 179/285/250
f 238/282/247 240/286/251 241/287/252
f 240/286/251 179/285/250 181/288/253
f 241/287/252 240/286/251 242/289/254
f 242/289/254 240/286/251 181/288/253
f 241/287/252 242/289/254 243/290/255
f 242/289/254 181/288/253 183/291/256
f 242/289/254 183/291/256 244/292/257
f 242/289/254 244/292/257 243/290/255
f 243/290/255 244/292/257 245/293/258
f 245/293/258 244/292/257 246/294/259
f 244/292/257 183/291/256 247/295/260
f 244/292/257 247/295/260 246/294/259
f 247/295/260 183/291/256 184/296/261
f 246/294/259 247/295/260 248/297/262
f 247/295/260 184/296/261 249/298/263
f 247/295/260 249/298/263 248/297/262
f 249/298/263 184/296/261 186/299/264
f 248/297/262 249/298/263 250/300/265
f 249/298/263 186/299/264 251/301/266
f 249/298/263 251/301/266 250/300/265
f 251/301/266 186/299/264 188/302/267
f 251/301/266 188/302/267 191/303/268
f 250/300/265 251/301/266 252/304/269
f 252/304/269 251/301/266 191/303/268
f 250/300/265 252/304/269 253/305/270
f 252/304/269 191/303/268 193/306/271
f 253/305/270 252/304/269 254/307/272
f 254/307/272 252/304/269 193/306/271
f 253/305/270 254/307/272 255/308/273
f 254/307/272 193/306/271 195/309/274
f 255/308/273 254/307/272 256/310/275
f 256/310/275 254/307/272 195/309/274
f 255/308/273 256/310/275 257/311/276
f 257/311/276 256/310/275 258/312/277
f 256/310/275 195/309/274 259/313/278
f 256/310/275 259/313/278 258/312/277
f 259/313/278 195/309/274 196/314/279
f 258/312/277 259/313/278 260/315/280
f 259/313/278 196/314/279 261/316/281
f 259/313/278 261/316/281 260/315/280
f 260/315/280 261/316/281 262/317/282
f 261/316/281 196/314/279 199/318/283
f 262/317/282 261/316/281 263/319/284
f 263/319/284 261/316/281 199/318/283
f 263/319/284 199/318/283 201/320/285
f 203/321/286 264/322/287 265/323/288
f 264/322/287 203/321/286 204/324/289
f 203/321/286 265/323/288 201/325/290
f 265/323/288 264/322/287 266/326/291
f 201/325/290 265/323/288 267/327/292
f 265/323/288 266/326/291 268/328/293
f 265/323/288 268/328/293 267/327/292
f 268/328/293 266/326/291 269/329/294
f 267/327/292 268/328/293 270/330/295
f 270/330/295 268/328/293 271/331/296
f 271/331/296 268/328/293 269/329/294
f 270/330/295 271/331/296 231/332/297
f 231/332/297 271/331/296 167/182/147
f 167/182/147 271/331/296 166/181/146
f 166/181/146 271/331/296 269/329/294
f 166/181/146 269/329/294 90/178/143
f 101/101/66 159/169/134 104/104/69
f 272/333/298 39/168/133 158/167/132
f 272/333/298 158/167/132 159/169/134
f 39/168/133 272/333/298 37/334/299
f 159/169/134 101/101/66 273/335/300
f 159/169/134 273/335/300 272/333/298
f 273/335/300 101/101/66 98/98/63
f 37/334/299 272/333/298 274/336/301
f 274/336/301 272/333/298 273/335/300
f 37/334/299 274/336/301 36/337/302
f 273/335/300 98/98/63 275/338/303
f 273/335/300 275/338/303 274/336/301
f 275/338/303 98/98/63 95/95/60
f 36/337/302 274/336/301 276/339/304
f 276/339/304 274/336/301 275/338/303
f 36/337/302 276/339/304 38/340/305
f 275/338/303 95/95/60 93/93/58
f 38/340/305 276/339/304 41/341/306
f 41/341/306 276/339/304 277/342/307
f 277/342/307 276/339/304 275/338/303
f 41/341/306 277/342/307 42/343/308
f 275/338/303 93/93/58 278/344/309
f 275/338/303 278/344/309 277/342/307
f 278/344/309 93/93/58 88/88/53
f 42/343/308 277/342/307 279/345/310
f 279/345/310 277/342/307 278/344/309
f 278/344/309 88/88/53 280/346/311
f 278/344/309 280/346/311 279/345/310
f 280/346/311 88/88/53 86/86/51
f 46/347/312 42/343/308 279/345/310
f 46/347/312 279/345/310 281/348/313
f 281/348/313 279/345/310 280/346/311
f 46/347/312 281/348/313 48/349/314
f 280/346/311 86/86/51 282/350/315
f 280/346/311 282/350/315 281/348/313
f 48/349/314 281/348/313 283/351/316
f 283/351/316 281/348/313 282/350/315
f 48/349/314 283/351/316 51/352/317
f 282/350/315 86/86/51 284/353/318
f 284/353/318 86/86/51 85/85/50
f 283/351/316 282/350/315 285/354/319
f 285/354/319 282/350/315 284/353/318
f 51/352/317 283/351/316 286/355/320
f 286/355/320 283/351/316 285/354/319
f 51/352/317 286/355/320 52/356/321
f 284/353/318 85/85/50 287/357/322
f 287/357/322 85/85/50 90/90/55
f 287/357/322 90/90/55 269/358/323
f 284/353/318 287/357/322 288/359/324
f 284/353/318 288/359/324 285/354/319
f 287/357/322 269/358/323 289/360/325
f 287/357/322 289/360/325 288/359/324
f 289/360/325 269/358/323 266/361/326
f 285/354/319 288/359/324 290/362/327
f 285/354/319 290/362/327 286/355/320
f 288/359/324 289/360/325 291/363/328
f 288/359/324 291/363/328 290/362/327
f 289/360/325 266/361/326 292/364/329
f 289/360/325 292/364/329 291/363/328
f 292/364/329 266/361/326 264/365/330
f 292/364/329 264/365/330 218/366/331
f 218/366/331 264/365/330 204/367/332
f 292/364/329 218/366/331 217/368/333
f 292/364/329 217/368/333 291/363/328
f 291/363/328 217/368/333 293/369/334
f 291/363/328 293/369/334 290/362/327
f 293/369/334 217/368/333 215/370/335
f 293/369/334 215/370/335 214/371/336
f 290/362/327 293/369/334 294/372/337
f 294/372/337 293/369/334 214/371/336
f 290/362/327 294/372/337 286/355/320
f 294/372/337 214/371/336 53/373/338
f 286/355/320 294/372/337 52/356/321
f 52/356/321 294/372/337 53/373/338
f 263/374/339 267/375/340 295/376/341
f 267/375/340 263/374/339 201/377/342
f 263/374/339 295/376/341 262/378/343
f 295/376/341 267/375/340 270/379/344
f 262/378/343 295/376/341 296/380/345
f 295/376/341 270/379/344 297/381/346
f 295/376/341 297/381/346 296/380/345
f 297/381/346 270/379/344 231/273/238
f 296/380/345 297/381/346 298/382/347
f 297/381/346 231/273/238 299/383/348
f 297/381/346 299/383/348 298/382/347
f 299/383/348 231/273/238 229/271/236
f 298/382/347 299/383/348 300/384/349
f 299/383/348 229/271/236 230/272/237
f 299/383/348 230/272/237 300/384/349
f 301/385/350 302/386/351 303/387/352
f 304/388/353 303/387/352 305/389/354
f 304/388/353 305/389/354 226/390/352
f 226/390/352 305/389/354 230/391/352
f 304/388/353 226/390/352 223/392/352
f 304/388/353 223/392/352 225/393/352
f 304/388/353 225/393/352 228/394/352
f 230/391/352 305/389/354 306/395/355
f 306/395/355 305/389/354 303/387/352
f 230/391/352 306/395/355 300/396/352
f 300/396/352 306/395/355 298/397/352
f 298/397/352 306/395/355 296/398/352
f 304/388/353 228/394/352 307/399/356
f 304/388/353 307/399/356 303/387/352
f 307/399/356 228/394/352 233/400/352
f 307/399/356 233/400/352 234/401/352
f 296/398/352 306/395/355 308/402/357
f 308/402/357 306/395/355 303/387/352
f 296/398/352 308/402/357 262/403/352
f 262/403/352 308/402/357 260/404/352
f 307/399/356 234/401/352 309/405/358
f 307/399/356 309/405/358 303/387/352
f 309/405/358 234/401/352 236/406/352
f 309/405/358 236/406/352 238/407/352
f 260/404/352 308/402/357 302/386/351
f 302/386/351 308/402/357 303/387/352
f 260/404/352 302/386/351 258/408/352
f 258/408/352 302/386/351 257/409/352
f 257/409/352 302/386/351 301/385/350
f 257/409/352 301/385/350 255/410/352
f 255/410/352 301/385/350 253/411/352
f 253/411/352 301/385/350 310/412/359
f 310/412/359 301/385/350 303/387/352
f 253/411/352 310/412/359 250/413/352
f 250/413/352 310/412/359 248/414/352
f 248/414/352 310/412/359 311/415/360
f 311/415/360 310/412/359 303/387/352
f 248/414/352 311/415/360 246/416/352
f 246/416/352 311/415/360 245/417/352
f 245/417/352 311/415/360 312/418/361
f 312/418/361 311/415/360 303/387/352
f 245/417/352 312/418/361 243/419/352
f 312/418/361 303/387/352 313/420/362
f 312/418/361 313/420/362 243/419/352
f 313/420/362 303/387/352 309/405/358
f 243/419/352 313/420/362 241/421/352
f 313/420/362 309/405/358 238/407/352
f 313/420/362 238/407/352 241/421/352
