# CS2 body mesh, tools/cs2_glb_to_obj.py
v 0.03928 0.12715 -0.22208
v 0.03951 0.12603 -0.22333
v 0.03833 0.12652 -0.22333
v 0.04052 0.12525 -0.22333
v 0.04166 0.12532 -0.22208
v 0.0413 0.12424 -0.22333
v 0.04281 0.12255 -0.22208
v 0.04179 0.12306 -0.22333
v 0.04196 0.12179 -0.22333
v 0.04179 0.12053 -0.22333
v 0.04242 0.11957 -0.22208
v 0.0413 0.11935 -0.22333
v 0.04052 0.11834 -0.22333
v 0.04387 0.12179 -0.22333
v 0.04059 0.11719 -0.22208
v 0.03951 0.11756 -0.22333
v 0.03782 0.11605 -0.22208
v 0.03833 0.11707 -0.22333
v 0.04364 0.12355 -0.22333
v 0.04296 0.12519 -0.22333
v 0.04829 0.12827 -0.22333
v 0.04958 0.12515 -0.22333
v 0.05002 0.12179 -0.22333
v 0.04958 0.11844 -0.22333
v 0.04364 0.12003 -0.22333
v 0.04829 0.11532 -0.22333
v 0.04188 0.1266 -0.22333
v 0.04623 0.13095 -0.22333
v 0.04354 0.13301 -0.22333
v 0.04296 0.11839 -0.22333
v 0.04623 0.11263 -0.22333
v 0.04188 0.11698 -0.22333
v 0.04354 0.11057 -0.22333
v 0.04047 0.1159 -0.22333
v 0.04042 0.10928 -0.22333
v 0.03883 0.11522 -0.22333
v 0.03707 0.10884 -0.22333
v 0.03707 0.11499 -0.22333
v 0.03371 0.10928 -0.22333
v 0.0353 0.11522 -0.22333
v 0.03366 0.1159 -0.22333
v 0.03059 0.11057 -0.22333
v 0.0279 0.11263 -0.22333
v 0.03225 0.11698 -0.22333
v 0.02585 0.11532 -0.22333
v 0.03117 0.11839 -0.22333
v 0.02455 0.11844 -0.22333
v 0.03049 0.12003 -0.22333
v 0.02411 0.12179 -0.22333
v 0.03026 0.12179 -0.22333
v 0.03049 0.12355 -0.22333
v 0.02455 0.12515 -0.22333
v 0.03117 0.12519 -0.22333
v 0.02585 0.12827 -0.22333
v 0.03225 0.1266 -0.22333
v 0.0279 0.13095 -0.22333
v 0.03366 0.12768 -0.22333
v 0.03059 0.13301 -0.22333
v 0.0353 0.12836 -0.22333
v 0.03371 0.13431 -0.22333
v 0.03707 0.1286 -0.22333
v 0.03707 0.13475 -0.22333
v 0.03631 0.12754 -0.22208
v 0.03883 0.12836 -0.22333
v 0.04042 0.13431 -0.22333
v 0.04047 0.12768 -0.22333
v 0.03707 0.12668 -0.22333
v 0.0358 0.12652 -0.22333
v 0.03707 0.1169 -0.22333
v 0.0358 0.11707 -0.22333
v 0.03485 0.11644 -0.22208
v 0.03462 0.12603 -0.22333
v 0.03462 0.11756 -0.22333
v 0.03354 0.12639 -0.22208
v 0.03361 0.11834 -0.22333
v 0.03361 0.12525 -0.22333
v 0.03171 0.12401 -0.22208
v 0.03283 0.12424 -0.22333
v 0.03283 0.11935 -0.22333
v 0.03234 0.12306 -0.22333
v 0.03132 0.12104 -0.22208
v 0.03234 0.12053 -0.22333
v 0.03218 0.12179 -0.22333
v 0.03247 0.11826 -0.22208
v 0.04496 0.12969 -0.13577
v 0.04684 0.12744 -0.14223
v 0.04505 0.12977 -0.14223
v 0.04271 0.13157 -0.14223
v 0.04674 0.12738 -0.13577
v 0.04797 0.12471 -0.14223
v 0.04465 0.12938 -0.13009
v 0.04265 0.13147 -0.13577
v 0.03999 0.13269 -0.14223
v 0.04636 0.12716 -0.13009
v 0.04243 0.13109 -0.13009
v 0.03996 0.13258 -0.13577
v 0.03984 0.13216 -0.13009
v 0.04786 0.12468 -0.13577
v 0.04743 0.12457 -0.13009
v 0.04835 0.12179 -0.14223
v 0.04824 0.12179 -0.13577
v 0.0478 0.12179 -0.13009
v 0.04743 0.11902 -0.13009
v 0.04786 0.1189 -0.13577
v 0.04797 0.11887 -0.14223
v 0.04636 0.11643 -0.13009
v 0.04674 0.11621 -0.13577
v 0.04684 0.11615 -0.14223
v 0.04465 0.11421 -0.13009
v 0.04496 0.11389 -0.13577
v 0.04505 0.11381 -0.14223
v 0.04271 0.11202 -0.14223
v 0.04265 0.11212 -0.13577
v 0.04243 0.1125 -0.13009
v 0.03999 0.11089 -0.14223
v 0.03996 0.111 -0.13577
v 0.03984 0.11143 -0.13009
v 0.03707 0.11051 -0.14223
v 0.03707 0.11062 -0.13577
v 0.03707 0.11106 -0.13009
v 0.04016 0.11025 -0.14282
v 0.04016 0.11025 -0.21954
v 0.04304 0.11144 -0.14282
v 0.04304 0.11144 -0.21954
v 0.04551 0.11334 -0.14282
v 0.04551 0.11334 -0.21954
v 0.04741 0.11582 -0.21954
v 0.04741 0.11582 -0.14282
v 0.04861 0.1187 -0.21954
v 0.04861 0.1187 -0.14282
v 0.04901 0.12179 -0.14282
v 0.04901 0.12179 -0.21954
v 0.04861 0.12489 -0.14282
v 0.04861 0.12489 -0.21954
v 0.04741 0.12777 -0.21954
v 0.04741 0.12777 -0.14282
v 0.04551 0.13024 -0.14282
v 0.04551 0.13024 -0.21954
v 0.04304 0.13214 -0.21954
v 0.04304 0.13214 -0.14282
v 0.04016 0.13334 -0.21954
v 0.04016 0.13334 -0.14282
v 0.03707 0.13374 -0.14282
v 0.03707 0.13308 -0.14223
v 0.03397 0.13334 -0.14282
v 0.03414 0.13269 -0.14223
v 0.03707 0.13374 -0.21954
v 0.03397 0.13334 -0.21954
v 0.03109 0.13214 -0.14282
v 0.03142 0.13157 -0.14223
v 0.03109 0.13214 -0.21954
v 0.02862 0.13024 -0.14282
v 0.02909 0.12977 -0.14223
v 0.02672 0.12777 -0.14282
v 0.02729 0.12744 -0.14223
v 0.02552 0.12489 -0.14282
v 0.02616 0.12471 -0.14223
v 0.02552 0.12489 -0.21954
v 0.02512 0.12179 -0.14282
v 0.02578 0.12179 -0.14223
v 0.02672 0.12777 -0.21954
v 0.02862 0.13024 -0.21954
v 0.02552 0.1187 -0.14282
v 0.02616 0.11887 -0.14223
v 0.02512 0.12179 -0.21954
v 0.02502 0.12875 -0.21978
v 0.02672 0.11582 -0.14282
v 0.02729 0.11615 -0.14223
v 0.02552 0.1187 -0.21954
v 0.02862 0.11334 -0.14282
v 0.02909 0.11381 -0.14223
v 0.03142 0.11202 -0.14223
v 0.02672 0.11582 -0.21954
v 0.02363 0.11819 -0.21978
v 0.03109 0.11144 -0.14282
v 0.03414 0.11089 -0.14223
v 0.02502 0.11484 -0.21978
v 0.02315 0.12179 -0.21978
v 0.03397 0.11025 -0.14282
v 0.03707 0.10984 -0.14282
v 0.03109 0.11144 -0.21954
v 0.03397 0.11025 -0.21954
v 0.03707 0.10984 -0.21954
v 0.03707 0.10788 -0.21978
v 0.02862 0.11334 -0.21954
v 0.03346 0.10835 -0.21978
v 0.03011 0.10974 -0.21978
v 0.02723 0.11196 -0.21978
v 0.03346 0.10835 -0.2227
v 0.03707 0.10788 -0.2227
v 0.03011 0.10974 -0.2227
v 0.02723 0.11196 -0.2227
v 0.02502 0.11484 -0.2227
v 0.02363 0.11819 -0.2227
v 0.02315 0.12179 -0.2227
v 0.02363 0.12539 -0.2227
v 0.02363 0.12539 -0.21978
v 0.02502 0.12875 -0.2227
v 0.02723 0.13163 -0.21978
v 0.02723 0.13163 -0.2227
v 0.03011 0.13384 -0.21978
v 0.03011 0.13384 -0.2227
v 0.03346 0.13523 -0.21978
v 0.03346 0.13523 -0.2227
v 0.03707 0.13296 -0.13577
v 0.03707 0.13252 -0.13009
v 0.03429 0.13216 -0.13009
v 0.03417 0.13258 -0.13577
v 0.0317 0.13109 -0.13009
v 0.03148 0.13147 -0.13577
v 0.02948 0.12938 -0.13009
v 0.02917 0.12969 -0.13577
v 0.02739 0.12738 -0.13577
v 0.02777 0.12716 -0.13009
v 0.02627 0.12468 -0.13577
v 0.0267 0.12457 -0.13009
v 0.02589 0.12179 -0.13577
v 0.02633 0.12179 -0.13009
v 0.0267 0.11902 -0.13009
v 0.02627 0.1189 -0.13577
v 0.02777 0.11643 -0.13009
v 0.02739 0.11621 -0.13577
v 0.02948 0.11421 -0.13009
v 0.02917 0.11389 -0.13577
v 0.03148 0.11212 -0.13577
v 0.0317 0.1125 -0.13009
v 0.03417 0.111 -0.13577
v 0.03429 0.11143 -0.13009
v 0.03707 0.13571 -0.21978
v 0.03707 0.13571 -0.2227
v 0.04067 0.13523 -0.21978
v 0.04067 0.13523 -0.2227
v 0.04402 0.13384 -0.21978
v 0.04402 0.13384 -0.2227
v 0.0469 0.13163 -0.21978
v 0.0469 0.13163 -0.2227
v 0.04911 0.12875 -0.21978
v 0.04911 0.12875 -0.2227
v 0.0505 0.12539 -0.21978
v 0.0505 0.12539 -0.2227
v 0.05098 0.12179 -0.2227
v 0.05098 0.12179 -0.21978
v 0.0505 0.11819 -0.2227
v 0.0505 0.11819 -0.21978
v 0.04911 0.11484 -0.2227
v 0.04911 0.11484 -0.21978
v 0.0469 0.11196 -0.2227
v 0.0469 0.11196 -0.21978
v 0.04402 0.10974 -0.2227
v 0.04402 0.10974 -0.21978
v 0.04067 0.10835 -0.2227
v 0.04067 0.10835 -0.21978
v 0.03109 0.12427 -0.12252
v 0.03065 0.12095 -0.12252
v 0.03707 0.12179 -0.12386
v 0.03313 0.12693 -0.12252
v 0.02955 0.12613 -0.12252
v 0.02868 0.12404 -0.12252
v 0.03093 0.12793 -0.12252
v 0.02838 0.12179 -0.12252
v 0.03272 0.12931 -0.12252
v 0.02868 0.11955 -0.12252
v 0.03622 0.12821 -0.12252
v 0.03482 0.13018 -0.12252
v 0.03707 0.13047 -0.12252
v 0.03193 0.11785 -0.12252
v 0.02955 0.11745 -0.12252
v 0.03093 0.11565 -0.12252
v 0.03954 0.12777 -0.12252
v 0.03931 0.13018 -0.12252
v 0.04141 0.12931 -0.12252
v 0.03459 0.11582 -0.12252
v 0.03272 0.11427 -0.12252
v 0.03482 0.11341 -0.12252
v 0.0422 0.12573 -0.12252
v 0.0432 0.12793 -0.12252
v 0.04458 0.12613 -0.12252
v 0.03791 0.11538 -0.12252
v 0.03707 0.11311 -0.12252
v 0.03931 0.11341 -0.12252
v 0.04348 0.12264 -0.12252
v 0.04545 0.12404 -0.12252
v 0.04575 0.12179 -0.12252
v 0.04545 0.11955 -0.12252
v 0.041 0.11666 -0.12252
v 0.04141 0.11427 -0.12252
v 0.0432 0.11565 -0.12252
v 0.04458 0.11745 -0.12252
v 0.04304 0.11932 -0.12252
v 0.04671 0.12438 -0.1263
v 0.04572 0.12679 -0.1263
v 0.04705 0.12179 -0.1263
v 0.04413 0.12886 -0.1263
v 0.04671 0.11921 -0.1263
v 0.04206 0.13044 -0.1263
v 0.04572 0.1168 -0.1263
v 0.03965 0.13144 -0.1263
v 0.04413 0.11473 -0.1263
v 0.04206 0.11314 -0.1263
v 0.03965 0.11215 -0.1263
v 0.03707 0.1118 -0.1263
v 0.03707 0.13178 -0.1263
v 0.03448 0.13144 -0.1263
v 0.03207 0.13044 -0.1263
v 0.03 0.12886 -0.1263
v 0.02842 0.12679 -0.1263
v 0.02742 0.12438 -0.1263
v 0.02708 0.12179 -0.1263
v 0.02742 0.11921 -0.1263
v 0.02842 0.1168 -0.1263
v 0.03 0.11473 -0.1263
v 0.03207 0.11314 -0.1263
v 0.03448 0.11215 -0.1263
vt 0.1554 0.949034
vt 0.156652 0.949095
vt 0.15595 0.947874
vt 0.157659 0.950102
vt 0.157781 0.951353
vt 0.15891 0.950804
vt 0.160985 0.952178
vt 0.160283 0.95114
vt 0.161687 0.95114
vt 0.16306 0.950743
vt 0.16422 0.951292
vt 0.164281 0.950041
vt 0.165288 0.949034
vt 0.161992 0.953246
vt 0.16654 0.948912
vt 0.16599 0.947783
vt 0.167394 0.945708
vt 0.166326 0.94641
vt 0.160009 0.953246
vt 0.158116 0.952757
vt 0.155553 0.959105
vt 0.159185 0.960051
vt 0.162938 0.960021
vt 0.16657 0.959014
vt 0.163884 0.952696
vt 0.169805 0.957091
vt 0.156377 0.951781
vt 0.152287 0.957244
vt 0.149602 0.954619
vt 0.165593 0.95172
vt 0.17243 0.954405
vt 0.166967 0.950285
vt 0.174291 0.95114
vt 0.167943 0.948576
vt 0.175237 0.947508
vt 0.168432 0.946684
vt 0.175207 0.943754
vt 0.168432 0.9447
vt 0.1742 0.940123
vt 0.167913 0.942808
vt 0.166906 0.941099
vt 0.172277 0.936888
vt 0.169591 0.934263
vt 0.165502 0.939726
vt 0.166326 0.932401
vt 0.163762 0.938749
vt 0.162694 0.931455
vt 0.16187 0.938261
vt 0.15894 0.931486
vt 0.159886 0.938261
vt 0.157994 0.93878
vt 0.155309 0.932493
vt 0.156285 0.939787
vt 0.152074 0.934416
vt 0.154912 0.941191
vt 0.149449 0.937101
vt 0.153935 0.94293
vt 0.147588 0.940367
vt 0.153447 0.944823
vt 0.146641 0.943999
vt 0.153447 0.946806
vt 0.146672 0.947752
vt 0.154485 0.945799
vt 0.153996 0.948698
vt 0.147679 0.951384
vt 0.154973 0.950407
vt 0.155553 0.946501
vt 0.155553 0.945097
vt 0.166326 0.945006
vt 0.165929 0.943632
vt 0.166478 0.942473
vt 0.155889 0.943724
vt 0.165227 0.942412
vt 0.155339 0.942595
vt 0.16422 0.941404
vt 0.15659 0.942473
vt 0.157659 0.940214
vt 0.157598 0.941465
vt 0.162969 0.940703
vt 0.158818 0.940764
vt 0.160894 0.939299
vt 0.161596 0.940367
vt 0.160192 0.940367
vt 0.164098 0.940153
vt 0.488357 0.422803
vt 0.491409 0.416059
vt 0.488357 0.416059
vt 0.485336 0.416059
vt 0.491409 0.422803
vt 0.494461 0.416059
vt 0.488357 0.429151
vt 0.485336 0.422803
vt 0.482284 0.416059
vt 0.491409 0.429151
vt 0.485336 0.429151
vt 0.482284 0.422803
vt 0.482284 0.429151
vt 0.494461 0.422803
vt 0.494461 0.429151
vt 0.497513 0.416059
vt 0.497513 0.422803
vt 0.497513 0.429151
vt 0.500534 0.429151
vt 0.500534 0.422803
vt 0.500534 0.416059
vt 0.503586 0.429151
vt 0.503586 0.422803
vt 0.503586 0.416059
vt 0.506638 0.429151
vt 0.506638 0.422803
vt 0.506638 0.416059
vt 0.50969 0.416059
vt 0.50969 0.422803
vt 0.50969 0.429151
vt 0.512772 0.416059
vt 0.512772 0.422803
vt 0.512772 0.429151
vt 0.515763 0.416059
vt 0.515763 0.422803
vt 0.515763 0.429151
vt 0.090121 0.082369
vt 0.009461 0.082369
vt 0.090121 0.085879
vt 0.009461 0.085879
vt 0.091769 0.085879
vt 0.091769 0.082369
vt 0.091769 0.089328
vt 0.090121 0.089328
vt 0.009461 0.089328
vt 0.091769 0.092807
vt 0.009461 0.092807
vt 0.090121 0.092807
vt 0.091769 0.096194
vt 0.009461 0.096194
vt 0.090121 0.096194
vt 0.091769 0.099704
vt 0.090121 0.099704
vt 0.009461 0.099704
vt 0.091769 0.103183
vt 0.090121 0.103183
vt 0.009461 0.103183
vt 0.091769 0.106632
vt 0.009461 0.106632
vt 0.090121 0.106632
vt 0.091769 0.110019
vt 0.090121 0.110019
vt 0.009461 0.110019
vt 0.009461 0.113498
vt 0.090121 0.113498
vt 0.009461 0.117008
vt 0.091769 0.113498
vt 0.090121 0.117008
vt 0.091769 0.117008
vt 0.090121 0.120518
vt 0.091769 0.120518
vt 0.090121 0.123966
vt 0.091769 0.123966
vt 0.009461 0.120518
vt 0.009461 0.123966
vt 0.090121 0.127384
vt 0.091769 0.127384
vt 0.009461 0.127384
vt 0.090121 0.130924
vt 0.091769 0.130924
vt 0.090121 0.134373
vt 0.091769 0.134373
vt 0.090121 0.137761
vt 0.091769 0.137761
vt 0.009461 0.137761
vt 0.090121 0.14124
vt 0.091769 0.14124
vt 0.009461 0.134373
vt 0.009461 0.130924
vt 0.090121 0.144749
vt 0.091769 0.144749
vt 0.009461 0.14124
vt 0.007416 0.134373
vt 0.090121 0.148228
vt 0.091769 0.148228
vt 0.009461 0.144749
vt 0.090121 0.151677
vt 0.091769 0.151677
vt 0.091769 0.155126
vt 0.009461 0.148228
vt 0.007416 0.144749
vt 0.090121 0.155126
vt 0.091769 0.158544
vt 0.007416 0.148228
vt 0.007416 0.14124
vt 0.090121 0.158544
vt 0.091769 0.162023
vt 0.090121 0.162023
vt 0.009461 0.155126
vt 0.009461 0.158544
vt 0.009461 0.162023
vt 0.007416 0.162023
vt 0.009461 0.151677
vt 0.007416 0.158544
vt 0.007416 0.155126
vt 0.007416 0.151677
vt 0.004364 0.158544
vt 0.004364 0.162023
vt 0.003204 0.158544
vt 0.003204 0.162023
vt 0.003204 0.155126
vt 0.004364 0.155126
vt 0.003204 0.151677
vt 0.004364 0.151677
vt 0.003204 0.148228
vt 0.004364 0.148228
vt 0.003204 0.144749
vt 0.004364 0.144749
vt 0.003204 0.14124
vt 0.004364 0.14124
vt 0.004364 0.137761
vt 0.003204 0.137761
vt 0.007416 0.137761
vt 0.004364 0.134373
vt 0.003204 0.134373
vt 0.007416 0.130924
vt 0.004364 0.130924
vt 0.003204 0.130924
vt 0.007416 0.127384
vt 0.004364 0.127384
vt 0.003204 0.127384
vt 0.007416 0.123966
vt 0.004364 0.123966
vt 0.479232 0.416059
vt 0.479232 0.422803
vt 0.479232 0.429151
vt 0.476211 0.429151
vt 0.476211 0.422803
vt 0.476211 0.416059
vt 0.473159 0.429151
vt 0.473159 0.422803
vt 0.473159 0.416059
vt 0.470107 0.429151
vt 0.470107 0.422803
vt 0.470107 0.416059
vt 0.467086 0.416059
vt 0.467086 0.422803
vt 0.467086 0.429151
vt 0.464034 0.416059
vt 0.464034 0.422803
vt 0.464034 0.429151
vt 0.460982 0.416059
vt 0.460982 0.422803
vt 0.460982 0.429151
vt 0.45793 0.429151
vt 0.45793 0.422803
vt 0.45793 0.416059
vt 0.454878 0.429151
vt 0.454878 0.422803
vt 0.454878 0.416059
vt 0.451827 0.429151
vt 0.451827 0.422803
vt 0.451827 0.416059
vt 0.448805 0.416059
vt 0.448805 0.422803
vt 0.448805 0.429151
vt 0.445753 0.416059
vt 0.445753 0.422803
vt 0.442701 0.416059
vt 0.445753 0.429151
vt 0.442701 0.422803
vt 0.442701 0.429151
vt 0.003204 0.123966
vt 0.007416 0.120518
vt 0.004364 0.120518
vt 0.003204 0.120518
vt 0.007416 0.117008
vt 0.004364 0.117008
vt 0.003204 0.117008
vt 0.007416 0.113498
vt 0.004364 0.113498
vt 0.003204 0.113498
vt 0.007416 0.110019
vt 0.004364 0.110019
vt 0.003204 0.110019
vt 0.007416 0.106632
vt 0.004364 0.106632
vt 0.003204 0.106632
vt 0.007416 0.103183
vt 0.004364 0.103183
vt 0.003204 0.103183
vt 0.003204 0.099704
vt 0.004364 0.099704
vt 0.003204 0.096194
vt 0.007416 0.099704
vt 0.004364 0.096194
vt 0.003204 0.092807
vt 0.007416 0.096194
vt 0.004364 0.092807
vt 0.003204 0.089328
vt 0.007416 0.092807
vt 0.004364 0.089328
vt 0.003204 0.085879
vt 0.007416 0.089328
vt 0.004364 0.085879
vt 0.003204 0.082369
vt 0.007416 0.085879
vt 0.004364 0.082369
vt 0.007416 0.082369
vt 0.009461 0.078951
vt 0.007416 0.078951
vt 0.090121 0.078951
vt 0.091769 0.078951
vt 0.004364 0.078951
vt 0.003204 0.078951
vt 0.084475 0.990966
vt 0.087008 0.99353
vt 0.090518 0.987518
vt 0.08356 0.987457
vt 0.081912 0.991028
vt 0.083102 0.993133
vt 0.081301 0.988678
vt 0.084811 0.994873
vt 0.081332 0.986236
vt 0.086886 0.996094
vt 0.084536 0.984008
vt 0.081973 0.983886
vt 0.083193 0.981811
vt 0.090457 0.994507
vt 0.089236 0.996734
vt 0.091678 0.996765
vt 0.0871 0.981475
vt 0.084933 0.980102
vt 0.087039 0.978912
vt 0.093966 0.993591
vt 0.094028 0.996155
vt 0.096133 0.994964
vt 0.090579 0.98056
vt 0.089389 0.978301
vt 0.09183 0.978332
vt 0.09653 0.991058
vt 0.097873 0.993255
vt 0.099094 0.99118
vt 0.094058 0.981536
vt 0.09415 0.978973
vt 0.096255 0.980193
vt 0.097964 0.981933
vt 0.097507 0.987579
vt 0.099734 0.98883
vt 0.099765 0.986389
vt 0.099155 0.984039
vt 0.096591 0.9841
vt 0.58507 0.351146
vt 0.58507 0.355266
vt 0.587817 0.351146
vt 0.582354 0.355266
vt 0.582354 0.351146
vt 0.582354 0.359508
vt 0.58507 0.359508
vt 0.579608 0.359508
vt 0.587817 0.355266
vt 0.587817 0.359508
vt 0.590564 0.359508
vt 0.579608 0.355266
vt 0.579608 0.351146
vt 0.576861 0.351146
vt 0.590564 0.355266
vt 0.59331 0.359508
vt 0.590564 0.351146
vt 0.576861 0.355266
vt 0.574114 0.351146
vt 0.576861 0.359508
vt 0.59331 0.355266
vt 0.59331 0.351146
vt 0.596026 0.359508
vt 0.574114 0.355266
vt 0.574114 0.359508
vt 0.571398 0.351146
vt 0.596026 0.355266
vt 0.596026 0.351146
vt 0.598773 0.351146
vt 0.598773 0.355266
vt 0.598773 0.359508
vt 0.601489 0.351146
vt 0.601489 0.355266
vt 0.601489 0.359508
vt 0.6039 0.351146
vt 0.6039 0.355266
vt 0.6039 0.359508
vt 0.571398 0.355266
vt 0.571398 0.359508
vt 0.568651 0.359508
vt 0.568651 0.355266
vt 0.568651 0.351146
vt 0.565905 0.359508
vt 0.565905 0.355266
vt 0.565905 0.351146
vt 0.563189 0.359508
vt 0.563189 0.355266
vt 0.563189 0.351146
vt 0.560442 0.351146
vt 0.560442 0.355266
vt 0.560442 0.359508
vt 0.557695 0.351146
vt 0.557695 0.355266
vt 0.557695 0.359508
vt 0.554979 0.351146
vt 0.554979 0.355266
vt 0.554979 0.359508
vt 0.552232 0.359508
vt 0.552232 0.355266
vt 0.552232 0.351146
vt 0.549486 0.359508
vt 0.549486 0.355266
vt 0.549486 0.351146
vt 0.54677 0.359508
vt 0.54677 0.355266
vt 0.54677 0.351146
vt 0.544023 0.351146
vt 0.544023 0.355266
vt 0.544023 0.359508
vt 0.541307 0.351146
vt 0.541307 0.355266
vt 0.538499 0.351146
vt 0.541307 0.359508
vt 0.538499 0.355266
vt 0.538499 0.359508
vn -0.0747 -0.1772 -0.9813
vn 0.0173 0.0255 -0.9995
vn 0.0051 0.0293 -0.9996
vn 0.0194 0.0234 -0.9995
vn -0.1542 -0.1162 -0.9812
vn 0.0275 0.0132 -0.9995
vn -0.192 -0.0246 -0.9811
vn 0.0274 0.0112 -0.9996
vn 0.0303 -0.003 -0.9995
vn 0.0303 -0.0051 -0.9995
vn -0.1774 0.076 -0.9812
vn 0.0244 -0.0173 -0.9996
vn 0.0224 -0.0193 -0.9996
vn -0.0059 -0.001 -1
vn -0.1188 0.1531 -0.981
vn 0.0122 -0.0274 -0.9995
vn -0.0246 0.1934 -0.9808
vn 0.0102 -0.0295 -0.9995
vn -0.0059 -0.003 -1
vn 0 -0.001 -1
vn -0.0069 0.001 -1
vn -0.0039 -0.0049 -1
vn -0.0049 0.003 -1
vn -0.003 0.0049 -1
vn 0.001 0.0049 -1
vn 0.001 0.0069 -1
vn 0.003 0.0049 -1
vn 0.0049 0.003 -1
vn 0.0059 -0.001 -1
vn 0.0059 -0.003 -1
vn 0.0039 -0.0049 -1
vn 0.002 -0.0069 -1
vn 0.002 -0.0049 -1
vn 0 -0.0069 -1
vn 0.0258 -0.1909 -0.9813
vn -0.002 -0.0049 -1
vn 0.003 0.0293 -0.9996
vn -0.0112 0.0274 -0.9996
vn -0.002 -0.0313 -0.9995
vn -0.004 -0.0314 -0.9995
vn 0.0736 0.1798 -0.9809
vn -0.0132 0.0275 -0.9995
vn -0.0183 -0.0234 -0.9996
vn 0.1175 -0.1529 -0.9812
vn -0.0234 0.0194 -0.9995
vn 0.1784 -0.0735 -0.9812
vn -0.0255 0.0173 -0.9995
vn -0.0264 -0.0132 -0.9996
vn -0.0293 0.0051 -0.9996
vn 0.1911 0.027 -0.9812
vn -0.0284 -0.0112 -0.9995
vn -0.0293 0.003 -0.9996
vn 0.1531 0.1188 -0.981
vn 0.705 0.7078 0.0442
vn 0.8665 0.4988 0.0176
vn 0.707 0.707 0.0182
vn 0.4988 0.8665 0.0176
vn 0.8645 0.5005 0.0455
vn 0.9658 0.2588 0.0182
vn 0.705 0.705 0.077
vn 0.5005 0.8645 0.0455
vn 0.2588 0.9658 0.0182
vn 0.8628 0.4996 0.0774
vn 0.4996 0.8628 0.0774
vn 0.2595 0.9647 0.0459
vn 0.2576 0.9631 0.0774
vn 0.9654 0.2565 0.0459
vn 0.9631 0.2576 0.0774
vn 0.9999 0.001 0.0169
vn 0.999 -0.001 0.0449
vn 0.9971 0.0011 0.0767
vn 0.9625 -0.2603 0.0762
vn 0.9648 -0.2592 0.0446
vn 0.9659 -0.2585 0.017
vn 0.8632 -0.4991 0.0759
vn 0.8649 -0.5 0.0441
vn 0.8662 -0.4994 0.0189
vn 0.7042 -0.7056 0.0786
vn 0.7071 -0.7057 0.0456
vn 0.7077 -0.7063 0.0168
vn 0.501 -0.8652 0.019
vn 0.4983 -0.8659 0.0441
vn 0.4974 -0.8642 0.0759
vn 0.2599 -0.9655 0.017
vn 0.2577 -0.9652 0.0446
vn 0.2588 -0.9629 0.0761
vn 0.1316 -0.9911 0.0178
vn 0.1299 -0.9905 0.0456
vn 0.131 -0.9884 0.0772
vn 0.2575 -0.9662 0.0072
vn 0.26 -0.9652 0.0294
vn 0.4996 -0.8662 0.0081
vn 0.4991 -0.866 0.03
vn 0.3297 -0.5737 0.7498
vn 0.1708 -0.6388 0.7501
vn 0.4677 -0.4661 0.751
vn 0.7064 -0.7078 0.0083
vn 0.7061 -0.7075 0.0311
vn 0.5723 -0.3314 0.7501
vn 0.8651 -0.5008 0.03
vn 0.8653 -0.5012 0.0081
vn 0.6399 -0.1691 0.7496
vn 0.9656 -0.2585 0.0294
vn 0.9659 -0.2589 0.0072
vn 0.6615 0.0014 0.7499
vn 1 0.001 0.0069
vn 0.9996 0.001 0.0292
vn 0.6394 0.1724 0.7493
vn 0.9658 0.2592 0.0084
vn 0.9654 0.2588 0.0307
vn 0.5741 0.3315 0.7487
vn 0.8654 0.5002 0.0286
vn 0.8657 0.5006 0.0067
vn 0.4663 0.4696 0.7497
vn 0.7071 0.7071 0.0069
vn 0.7068 0.7068 0.0296
vn 0.5002 0.8654 0.0286
vn 0.5006 0.8657 0.0067
vn 0.2588 0.9654 0.0307
vn 0.3315 0.5741 0.7487
vn 0.2592 0.9658 0.0084
vn 0.1724 0.6394 0.7493
vn 0.001 1 0.0069
vn -0.0014 0.6615 0.7499
vn -0.2592 0.9658 0.0084
vn -0.1724 0.6394 0.7493
vn 0.001 0.9996 0.0292
vn -0.2588 0.9654 0.0307
vn -0.5006 0.8657 0.0067
vn -0.3315 0.5741 0.7487
vn -0.5002 0.8654 0.0286
vn -0.7071 0.7071 0.0069
vn -0.4663 0.4696 0.7497
vn -0.8657 0.5006 0.0067
vn -0.5741 0.3315 0.7487
vn -0.9658 0.2592 0.0084
vn -0.6394 0.1724 0.7493
vn -0.9654 0.2588 0.0307
vn -1 0.001 0.0069
vn -0.6615 0.0014 0.7499
vn -0.8654 0.5002 0.0286
vn -0.7068 0.7068 0.0296
vn -0.9659 -0.2589 0.0072
vn -0.6399 -0.1691 0.7496
vn -0.9996 0.001 0.0292
vn -0.7623 0.441 0.4738
vn -0.8653 -0.5012 0.0081
vn -0.5723 -0.3314 0.7501
vn -0.9656 -0.2585 0.0294
vn -0.7064 -0.7078 0.0083
vn -0.4677 -0.4661 0.751
vn -0.3297 -0.5737 0.7498
vn -0.8651 -0.5008 0.03
vn -0.8517 -0.2258 0.4728
vn -0.4996 -0.8662 0.0081
vn -0.1708 -0.6388 0.7501
vn -0.7636 -0.4408 0.4719
vn -0.8819 -0.0013 0.4714
vn -0.2575 -0.9662 0.0072
vn -0.0876 -0.6585 0.7475
vn -0.1304 -0.9914 0.0088
vn -0.4991 -0.866 0.03
vn -0.26 -0.9652 0.0294
vn -0.1305 -0.991 0.0292
vn -0.114 -0.8766 0.4675
vn -0.7061 -0.7075 0.0311
vn -0.2275 -0.851 0.4733
vn -0.4389 -0.7648 0.4717
vn -0.6249 -0.6232 0.4703
vn -0.2515 -0.9375 -0.2403
vn -0.1273 -0.9626 -0.239
vn -0.1416 -0.5323 -0.8346
vn -0.071 -0.5497 -0.8323
vn -0.2762 -0.4763 -0.8348
vn -0.4867 -0.8403 -0.2388
vn -0.3878 -0.3894 -0.8355
vn -0.6873 -0.6857 -0.2396
vn -0.4777 -0.2745 -0.8345
vn -0.8414 -0.4849 -0.2386
vn -0.5312 -0.1431 -0.8351
vn -0.938 -0.2499 -0.2401
vn -0.5503 -0.0014 -0.835
vn -0.971 -0.0012 -0.2392
vn -0.9375 0.2529 -0.2389
vn -0.5329 0.1432 -0.834
vn -0.8513 0.2291 0.4719
vn -0.8406 0.4854 -0.2404
vn -0.4768 0.278 -0.8339
vn -0.6233 0.6233 0.4721
vn -0.6852 0.6884 -0.2379
vn -0.3896 0.3896 -0.8345
vn -0.441 0.7623 0.4738
vn -0.4854 0.8406 -0.2404
vn -0.2747 0.4796 -0.8334
vn -0.2291 0.8513 0.4719
vn -0.2496 0.9385 -0.2385
vn 0.001 0.9999 0.0169
vn -0.001 0.9989 0.046
vn -0.0011 0.9971 0.0767
vn -0.2576 0.9631 0.0774
vn -0.2595 0.9647 0.0459
vn -0.2588 0.9658 0.0182
vn -0.4996 0.8628 0.0774
vn -0.5005 0.8645 0.0455
vn -0.4988 0.8665 0.0176
vn -0.705 0.705 0.077
vn -0.705 0.7078 0.0442
vn -0.707 0.707 0.0182
vn -0.8665 0.4988 0.0176
vn -0.8645 0.5005 0.0455
vn -0.8628 0.4996 0.0774
vn -0.9658 0.2588 0.0182
vn -0.9654 0.2565 0.0459
vn -0.9631 0.2576 0.0774
vn -0.9999 0.001 0.0169
vn -0.999 -0.001 0.0449
vn -0.9971 0.0011 0.0767
vn -0.9625 -0.2603 0.0762
vn -0.9648 -0.2592 0.0446
vn -0.9659 -0.2585 0.017
vn -0.8632 -0.4991 0.0759
vn -0.8649 -0.5 0.0441
vn -0.8662 -0.4994 0.0189
vn -0.7042 -0.7056 0.0786
vn -0.7071 -0.7057 0.0456
vn -0.7077 -0.7063 0.0168
vn -0.501 -0.8652 0.019
vn -0.4983 -0.8659 0.0441
vn -0.4974 -0.8642 0.0759
vn -0.2599 -0.9655 0.017
vn -0.2577 -0.9652 0.0446
vn -0.1316 -0.9911 0.0178
vn -0.2588 -0.9629 0.0761
vn -0.1299 -0.9905 0.0456
vn -0.131 -0.9884 0.0772
vn -0.1432 0.5329 -0.834
vn -0.0013 0.8811 0.473
vn 0.0012 0.9706 -0.2406
vn 0.0014 0.5487 -0.836
vn 0.2291 0.8513 0.4719
vn 0.2496 0.9385 -0.2385
vn 0.1432 0.5329 -0.834
vn 0.441 0.7623 0.4738
vn 0.4854 0.8406 -0.2404
vn 0.2747 0.4796 -0.8334
vn 0.6233 0.6233 0.4721
vn 0.6852 0.6884 -0.2379
vn 0.3896 0.3896 -0.8345
vn 0.7623 0.441 0.4738
vn 0.8406 0.4854 -0.2404
vn 0.4768 0.278 -0.8339
vn 0.8513 0.2291 0.4719
vn 0.9375 0.2529 -0.2389
vn 0.5329 0.1432 -0.834
vn 0.5503 -0.0014 -0.835
vn 0.971 -0.0012 -0.2392
vn 0.5312 -0.1431 -0.8351
vn 0.8819 -0.0013 0.4714
vn 0.938 -0.2499 -0.2401
vn 0.4777 -0.2745 -0.8345
vn 0.8517 -0.2258 0.4728
vn 0.8414 -0.4849 -0.2386
vn 0.3878 -0.3894 -0.8355
vn 0.7636 -0.4408 0.4719
vn 0.6873 -0.6857 -0.2396
vn 0.2762 -0.4763 -0.8348
vn 0.6249 -0.6232 0.4703
vn 0.4867 -0.8403 -0.2388
vn 0.1416 -0.5323 -0.8346
vn 0.4389 -0.7648 0.4717
vn 0.2515 -0.9375 -0.2403
vn 0.2275 -0.851 0.4733
vn 0.1305 -0.991 0.0292
vn 0.114 -0.8766 0.4675
vn 0.1304 -0.9914 0.0088
vn 0.0876 -0.6585 0.7475
vn 0.1273 -0.9626 -0.239
vn 0.071 -0.5497 -0.8323
vn 0.016 -0.007 0.9998
vn 0.0189 0.001 0.9998
vn 0 -0.001 1
vn 0.012 -0.013 0.9998
vn 0.002 -0.019 0.9998
vn 0.015 0.011 0.9998
vn -0.006 -0.017 0.9998
vn 0.007 0.017 0.9998
vn -0.014 -0.011 0.9998
vn -0.003 0.0169 0.9999
vn -0.018 -0.003 0.9998
vn -0.011 0.015 0.9998
vn -0.017 0.007 0.9998
vn 0.9476 0.255 0.1923
vn 0.9335 0.2492 0.2577
vn 0.9815 0.0011 0.1917
vn 0.8372 0.4826 0.2575
vn 0.8499 0.4902 0.1934
vn 0.8179 0.473 0.3275
vn 0.9128 0.2453 0.3265
vn 0.6683 0.6683 0.3268
vn 0.9667 -0.0012 0.256
vn 0.9454 -0.0012 0.3259
vn 0.9135 -0.245 0.3248
vn 0.6837 0.6837 0.2554
vn 0.6938 0.6938 0.1931
vn 0.4902 0.8499 0.1934
vn 0.9341 -0.249 0.256
vn 0.8189 -0.4727 0.3256
vn 0.9482 -0.252 0.1935
vn 0.4826 0.8372 0.2575
vn 0.255 0.9476 0.1923
vn 0.473 0.8179 0.3275
vn 0.838 -0.4821 0.2557
vn 0.8506 -0.4897 0.1917
vn 0.6695 -0.6679 0.325
vn 0.2492 0.9335 0.2577
vn 0.2453 0.9128 0.3265
vn -0.0011 0.9815 0.1917
vn 0.6825 -0.6841 0.2571
vn 0.6948 -0.6933 0.1915
vn 0.4914 -0.8495 0.1918
vn 0.4839 -0.8369 0.2558
vn 0.4708 -0.82 0.3255
vn 0.2536 -0.9477 0.1936
vn 0.2506 -0.9335 0.2563
vn 0.2434 -0.9141 0.3245
vn 0.129 -0.9728 0.1923
vn 0.1256 -0.9591 0.2538
vn 0.1246 -0.9384 0.3223
vn -0.0012 0.9663 0.2574
vn 0.0012 0.9449 0.3274
vn -0.2453 0.9128 0.3265
vn -0.2492 0.9335 0.2577
vn -0.255 0.9476 0.1923
vn -0.473 0.8179 0.3275
vn -0.4826 0.8372 0.2575
vn -0.4902 0.8499 0.1934
vn -0.6683 0.6683 0.3268
vn -0.6837 0.6837 0.2554
vn -0.6938 0.6938 0.1931
vn -0.8499 0.4902 0.1934
vn -0.8372 0.4826 0.2575
vn -0.8179 0.473 0.3275
vn -0.9476 0.255 0.1923
vn -0.9335 0.2492 0.2577
vn -0.9128 0.2453 0.3265
vn -0.9815 0.0011 0.1917
vn -0.9667 -0.0012 0.256
vn -0.9454 -0.0012 0.3259
vn -0.9135 -0.245 0.3248
vn -0.9341 -0.249 0.256
vn -0.9482 -0.252 0.1935
vn -0.8189 -0.4727 0.3256
vn -0.838 -0.4821 0.2557
vn -0.8506 -0.4897 0.1917
vn -0.6695 -0.6679 0.325
vn -0.6825 -0.6841 0.2571
vn -0.6948 -0.6933 0.1915
vn -0.4914 -0.8495 0.1918
vn -0.4839 -0.8369 0.2558
vn -0.4708 -0.82 0.3255
vn -0.2536 -0.9477 0.1936
vn -0.2506 -0.9335 0.2563
vn -0.129 -0.9728 0.1923
vn -0.2434 -0.9141 0.3245
vn -0.1256 -0.9591 0.2538
vn -0.1246 -0.9384 0.3223
o cylbullet7__p1_c0
f 1/1/1 2/2/2 3/3/3
f 2/2/2 1/1/1 4/4/4
f 4/4/4 1/1/1 5/5/5
f 4/4/4 5/5/5 6/6/6
f 6/6/6 5/5/5 7/7/7
f 6/6/6 7/7/7 8/8/8
f 8/8/8 7/7/7 9/9/9
f 9/9/9 7/7/7 10/10/10
f 10/10/10 7/7/7 11/11/11
f 10/10/10 11/11/11 12/12/12
f 12/12/12 11/11/11 13/13/13
f 11/11/11 7/7/7 14/14/14
f 13/13/13 11/11/11 15/15/15
f 13/13/13 15/15/15 16/16/16
f 17/17/17 18/18/18 16/16/16
f 17/17/17 16/16/16 15/15/15
f 14/14/14 7/7/7 19/19/14
f 19/19/14 7/7/7 5/5/5
f 19/19/14 5/5/5 20/20/19
f 19/19/14 20/20/19 21/21/20
f 19/19/14 21/21/20 22/22/20
f 19/19/14 22/22/20 14/14/14
f 14/14/14 22/22/20 23/23/20
f 14/14/14 23/23/20 24/24/20
f 14/14/14 24/24/20 25/25/21
f 14/14/14 25/25/21 11/11/11
f 25/25/21 24/24/20 26/26/20
f 27/27/22 21/21/20 20/20/19
f 27/27/22 20/20/19 5/5/5
f 21/21/20 27/27/22 28/28/20
f 28/28/20 27/27/22 29/29/20
f 25/25/21 26/26/20 30/30/23
f 25/25/21 30/30/23 11/11/11
f 30/30/23 26/26/20 31/31/20
f 11/11/11 30/30/23 15/15/15
f 30/30/23 31/31/20 32/32/23
f 30/30/23 32/32/23 15/15/15
f 32/32/23 31/31/20 33/33/20
f 32/32/23 33/33/20 34/34/24
f 32/32/23 34/34/24 15/15/15
f 34/34/24 33/33/20 35/35/20
f 15/15/15 34/34/24 36/36/24
f 36/36/24 34/34/24 35/35/20
f 36/36/24 35/35/20 37/37/20
f 15/15/15 36/36/24 17/17/17
f 36/36/24 37/37/20 38/38/25
f 36/36/24 38/38/25 17/17/17
f 38/38/25 37/37/20 39/39/20
f 38/38/25 39/39/20 40/40/26
f 40/40/26 39/39/20 41/41/27
f 41/41/27 39/39/20 42/42/20
f 41/41/27 42/42/20 43/43/20
f 41/41/27 43/43/20 44/44/27
f 44/44/27 43/43/20 45/45/20
f 44/44/27 45/45/20 46/46/28
f 46/46/28 45/45/20 47/47/20
f 46/46/28 47/47/20 48/48/28
f 48/48/28 47/47/20 49/49/20
f 48/48/28 49/49/20 50/50/29
f 50/50/29 49/49/20 51/51/29
f 51/51/29 49/49/20 52/52/20
f 51/51/29 52/52/20 53/53/30
f 53/53/30 52/52/20 54/54/20
f 53/53/30 54/54/20 55/55/31
f 55/55/31 54/54/20 56/56/20
f 55/55/31 56/56/20 57/57/32
f 57/57/32 56/56/20 58/58/20
f 57/57/32 58/58/20 59/59/33
f 59/59/33 58/58/20 60/60/20
f 59/59/33 60/60/20 61/61/34
f 61/61/34 60/60/20 62/62/20
f 59/59/33 61/61/34 63/63/35
f 61/61/34 62/62/20 64/64/36
f 64/64/36 62/62/20 65/65/20
f 61/61/34 64/64/36 1/1/1
f 61/61/34 1/1/1 63/63/35
f 64/64/36 65/65/20 66/66/22
f 64/64/36 66/66/22 1/1/1
f 66/66/22 65/65/20 29/29/20
f 66/66/22 29/29/20 27/27/22
f 66/66/22 27/27/22 5/5/5
f 66/66/22 5/5/5 1/1/1
f 63/63/35 1/1/1 3/3/3
f 63/63/35 3/3/3 67/67/37
f 63/63/35 67/67/37 68/68/38
f 67/67/37 3/3/3 18/18/18
f 18/18/18 3/3/3 2/2/2
f 18/18/18 2/2/2 16/16/16
f 16/16/16 2/2/2 4/4/4
f 16/16/16 4/4/4 13/13/13
f 13/13/13 4/4/4 6/6/6
f 13/13/13 6/6/6 12/12/12
f 12/12/12 6/6/6 10/10/10
f 10/10/10 6/6/6 8/8/8
f 10/10/10 8/8/8 9/9/9
f 69/69/39 67/67/37 18/18/18
f 69/69/39 18/18/18 17/17/17
f 67/67/37 69/69/39 70/70/40
f 70/70/40 69/69/39 17/17/17
f 67/67/37 70/70/40 68/68/38
f 70/70/40 17/17/17 71/71/41
f 71/71/41 17/17/17 38/38/25
f 71/71/41 38/38/25 40/40/26
f 68/68/38 70/70/40 72/72/42
f 68/68/38 72/72/42 63/63/35
f 70/70/40 71/71/41 73/73/43
f 70/70/40 73/73/43 72/72/42
f 63/63/35 72/72/42 74/74/44
f 63/63/35 74/74/44 59/59/33
f 59/59/33 74/74/44 57/57/32
f 57/57/32 74/74/44 55/55/31
f 55/55/31 74/74/44 53/53/30
f 72/72/42 73/73/43 75/75/43
f 75/75/43 73/73/43 71/71/41
f 74/74/44 72/72/42 76/76/45
f 76/76/45 72/72/42 75/75/43
f 53/53/30 74/74/44 77/77/46
f 77/77/46 74/74/44 76/76/45
f 53/53/30 77/77/46 51/51/29
f 51/51/29 77/77/46 50/50/29
f 77/77/46 76/76/45 78/78/47
f 76/76/45 75/75/43 79/79/48
f 76/76/45 79/79/48 78/78/47
f 77/77/46 78/78/47 80/80/49
f 80/80/49 78/78/47 79/79/48
f 50/50/29 77/77/46 81/81/50
f 81/81/50 77/77/46 80/80/49
f 50/50/29 81/81/50 48/48/28
f 80/80/49 79/79/48 82/82/51
f 82/82/51 79/79/48 81/81/50
f 80/80/49 82/82/51 83/83/52
f 80/80/49 83/83/52 81/81/50
f 81/81/50 83/83/52 82/82/51
f 81/81/50 79/79/48 84/84/53
f 81/81/50 84/84/53 48/48/28
f 84/84/53 79/79/48 75/75/43
f 48/48/28 84/84/53 46/46/28
f 46/46/28 84/84/53 44/44/27
f 84/84/53 75/75/43 71/71/41
f 44/44/27 84/84/53 41/41/27
f 41/41/27 84/84/53 71/71/41
f 41/41/27 71/71/41 40/40/26
f 85/85/54 86/86/55 87/87/56
f 85/85/54 87/87/56 88/88/57
f 86/86/55 85/85/54 89/89/58
f 86/86/55 89/89/58 90/90/59
f 89/89/58 85/85/54 91/91/60
f 85/85/54 88/88/57 92/92/61
f 85/85/54 92/92/61 91/91/60
f 92/92/61 88/88/57 93/93/62
f 89/89/58 91/91/60 94/94/63
f 91/91/60 92/92/61 95/95/64
f 92/92/61 93/93/62 96/96/65
f 92/92/61 96/96/65 95/95/64
f 95/95/64 96/96/65 97/97/66
f 89/89/58 94/94/63 98/98/67
f 89/89/58 98/98/67 90/90/59
f 98/98/67 94/94/63 99/99/68
f 90/90/59 98/98/67 100/100/69
f 98/98/67 99/99/68 101/101/70
f 98/98/67 101/101/70 100/100/69
f 101/101/70 99/99/68 102/102/71
f 101/101/70 102/102/71 103/103/72
f 100/100/69 101/101/70 104/104/73
f 104/104/73 101/101/70 103/103/72
f 100/100/69 104/104/73 105/105/74
f 104/104/73 103/103/72 106/106/75
f 105/105/74 104/104/73 107/107/76
f 107/107/76 104/104/73 106/106/75
f 105/105/74 107/107/76 108/108/77
f 107/107/76 106/106/75 109/109/78
f 108/108/77 107/107/76 110/110/79
f 110/110/79 107/107/76 109/109/78
f 108/108/77 110/110/79 111/111/80
f 111/111/80 110/110/79 112/112/81
f 110/110/79 109/109/78 113/113/82
f 110/110/79 113/113/82 112/112/81
f 113/113/82 109/109/78 114/114/83
f 112/112/81 113/113/82 115/115/84
f 113/113/82 114/114/83 116/116/85
f 113/113/82 116/116/85 115/115/84
f 116/116/85 114/114/83 117/117/86
f 116/116/85 118/118/87 115/115/84
f 118/118/87 116/116/85 119/119/88
f 119/119/88 116/116/85 117/117/86
f 119/119/88 117/117/86 120/120/89
f 121/121/90 122/122/91 123/123/92
f 123/123/92 122/122/91 124/124/93
f 121/121/90 123/123/92 112/125/94
f 121/121/90 112/125/94 115/126/95
f 112/125/94 123/123/92 111/127/96
f 123/123/92 124/124/93 125/128/97
f 123/123/92 125/128/97 111/127/96
f 125/128/97 124/124/93 126/129/98
f 111/127/96 125/128/97 108/130/99
f 125/128/97 126/129/98 127/131/100
f 108/130/99 125/128/97 128/132/101
f 128/132/101 125/128/97 127/131/100
f 108/130/99 128/132/101 105/133/102
f 128/132/101 127/131/100 129/134/103
f 105/133/102 128/132/101 130/135/104
f 130/135/104 128/132/101 129/134/103
f 105/133/102 130/135/104 100/136/105
f 130/135/104 129/134/103 131/137/106
f 130/135/104 131/137/106 100/136/105
f 131/137/106 129/134/103 132/138/107
f 100/136/105 131/137/106 90/139/108
f 131/137/106 132/138/107 133/140/109
f 131/137/106 133/140/109 90/139/108
f 133/140/109 132/138/107 134/141/110
f 90/139/108 133/140/109 86/142/111
f 133/140/109 134/141/110 135/143/112
f 86/142/111 133/140/109 136/144/113
f 136/144/113 133/140/109 135/143/112
f 86/142/111 136/144/113 87/145/114
f 136/144/113 135/143/112 137/146/115
f 136/144/113 137/146/115 87/145/114
f 137/146/115 135/143/112 138/147/116
f 137/146/115 138/147/116 139/148/117
f 87/145/114 137/146/115 140/149/118
f 140/149/118 137/146/115 139/148/117
f 140/149/118 139/148/117 141/150/119
f 87/145/114 140/149/118 88/151/120
f 140/149/118 141/150/119 142/152/121
f 140/149/118 142/152/121 88/151/120
f 88/151/120 142/152/121 93/153/122
f 143/154/123 144/155/124 93/153/122
f 143/154/123 93/153/122 142/152/121
f 144/155/124 143/154/123 145/156/125
f 144/155/124 145/156/125 146/157/126
f 143/154/123 142/152/121 147/158/127
f 147/158/127 142/152/121 141/150/119
f 145/156/125 143/154/123 148/159/128
f 148/159/128 143/154/123 147/158/127
f 146/157/126 145/156/125 149/160/129
f 146/157/126 149/160/129 150/161/130
f 145/156/125 148/159/128 151/162/131
f 145/156/125 151/162/131 149/160/129
f 150/161/130 149/160/129 152/163/132
f 152/163/132 149/160/129 151/162/131
f 150/161/130 152/163/132 153/164/133
f 153/164/133 152/163/132 154/165/134
f 153/164/133 154/165/134 155/166/135
f 155/166/135 154/165/134 156/167/136
f 155/166/135 156/167/136 157/168/137
f 156/167/136 154/165/134 158/169/138
f 157/168/137 156/167/136 159/170/139
f 159/170/139 156/167/136 158/169/138
f 157/168/137 159/170/139 160/171/140
f 161/172/141 154/165/134 152/163/132
f 154/165/134 161/172/141 158/169/138
f 161/172/141 152/163/132 162/173/142
f 162/173/142 152/163/132 151/162/131
f 160/171/140 159/170/139 163/174/143
f 160/171/140 163/174/143 164/175/144
f 165/176/145 159/170/139 158/169/138
f 159/170/139 165/176/145 163/174/143
f 158/169/138 161/172/141 166/177/146
f 164/175/144 163/174/143 167/178/147
f 164/175/144 167/178/147 168/179/148
f 167/178/147 163/174/143 169/180/149
f 169/180/149 163/174/143 165/176/145
f 168/179/148 167/178/147 170/181/150
f 168/179/148 170/181/150 171/182/151
f 171/182/151 170/181/150 172/183/152
f 167/178/147 169/180/149 173/184/153
f 167/178/147 173/184/153 170/181/150
f 169/180/149 165/176/145 174/185/154
f 172/183/152 170/181/150 175/186/155
f 172/183/152 175/186/155 176/187/156
f 173/184/153 169/180/149 177/188/157
f 177/188/157 169/180/149 174/185/154
f 174/185/154 165/176/145 178/189/158
f 176/187/156 175/186/155 179/190/159
f 176/187/156 179/190/159 118/191/160
f 118/191/160 179/190/159 180/192/161
f 179/190/159 175/186/155 181/193/162
f 181/193/162 175/186/155 170/181/150
f 180/192/161 179/190/159 182/194/163
f 182/194/163 179/190/159 181/193/162
f 180/192/161 182/194/163 183/195/164
f 183/195/164 182/194/163 184/196/165
f 181/193/162 170/181/150 185/197/166
f 185/197/166 170/181/150 173/184/153
f 182/194/163 181/193/162 186/198/167
f 182/194/163 186/198/167 184/196/165
f 181/193/162 185/197/166 187/199/168
f 181/193/162 187/199/168 186/198/167
f 185/197/166 173/184/153 188/200/169
f 185/197/166 188/200/169 187/199/168
f 188/200/169 173/184/153 177/188/157
f 184/196/165 186/198/167 189/201/170
f 184/196/165 189/201/170 190/202/171
f 190/202/171 189/201/170 39/203/172
f 190/202/171 39/203/172 37/204/173
f 39/203/172 189/201/170 42/205/174
f 189/201/170 186/198/167 191/206/175
f 189/201/170 191/206/175 42/205/174
f 191/206/175 186/198/167 187/199/168
f 42/205/174 191/206/175 43/207/176
f 191/206/175 187/199/168 192/208/177
f 191/206/175 192/208/177 43/207/176
f 192/208/177 187/199/168 188/200/169
f 43/207/176 192/208/177 45/209/178
f 192/208/177 188/200/169 193/210/179
f 192/208/177 193/210/179 45/209/178
f 193/210/179 188/200/169 177/188/157
f 45/209/178 193/210/179 47/211/180
f 193/210/179 177/188/157 194/212/181
f 193/210/179 194/212/181 47/211/180
f 194/212/181 177/188/157 174/185/154
f 47/211/180 194/212/181 49/213/182
f 194/212/181 174/185/154 195/214/183
f 194/212/181 195/214/183 49/213/182
f 195/214/183 174/185/154 178/189/158
f 49/213/182 195/214/183 196/215/184
f 49/213/182 196/215/184 52/216/185
f 195/214/183 178/189/158 197/217/186
f 195/214/183 197/217/186 196/215/184
f 197/217/186 178/189/158 165/176/145
f 197/217/186 165/176/145 158/169/138
f 197/217/186 158/169/138 166/177/146
f 197/217/186 166/177/146 196/215/184
f 52/216/185 196/215/184 198/218/187
f 198/218/187 196/215/184 166/177/146
f 52/216/185 198/218/187 54/219/188
f 198/218/187 166/177/146 199/220/189
f 199/220/189 166/177/146 161/172/141
f 199/220/189 161/172/141 162/173/142
f 54/219/188 198/218/187 200/221/190
f 200/221/190 198/218/187 199/220/189
f 54/219/188 200/221/190 56/222/191
f 199/220/189 162/173/142 201/223/192
f 199/220/189 201/223/192 200/221/190
f 201/223/192 162/173/142 151/162/131
f 56/222/191 200/221/190 202/224/193
f 202/224/193 200/221/190 201/223/192
f 56/222/191 202/224/193 58/225/194
f 201/223/192 151/162/131 203/226/195
f 201/223/192 203/226/195 202/224/193
f 203/226/195 151/162/131 148/159/128
f 58/225/194 202/224/193 204/227/196
f 204/227/196 202/224/193 203/226/195
f 96/96/65 93/93/62 144/228/197
f 96/96/65 144/228/197 205/229/198
f 96/96/65 205/229/198 97/97/66
f 97/97/66 205/229/198 206/230/199
f 206/230/199 205/229/198 207/231/200
f 205/229/198 144/228/197 208/232/201
f 205/229/198 208/232/201 207/231/200
f 208/232/201 144/228/197 146/233/202
f 207/231/200 208/232/201 209/234/203
f 208/232/201 146/233/202 210/235/204
f 208/232/201 210/235/204 209/234/203
f 210/235/204 146/233/202 150/236/205
f 209/234/203 210/235/204 211/237/206
f 210/235/204 150/236/205 212/238/207
f 210/235/204 212/238/207 211/237/206
f 212/238/207 150/236/205 153/239/208
f 212/238/207 153/239/208 155/240/209
f 211/237/206 212/238/207 213/241/210
f 213/241/210 212/238/207 155/240/209
f 211/237/206 213/241/210 214/242/211
f 213/241/210 155/240/209 157/243/212
f 214/242/211 213/241/210 215/244/213
f 215/244/213 213/241/210 157/243/212
f 214/242/211 215/244/213 216/245/214
f 215/244/213 157/243/212 160/246/215
f 216/245/214 215/244/213 217/247/216
f 217/247/216 215/244/213 160/246/215
f 216/245/214 217/247/216 218/248/217
f 218/248/217 217/247/216 219/249/218
f 217/247/216 160/246/215 220/250/219
f 217/247/216 220/250/219 219/249/218
f 220/250/219 160/246/215 164/251/220
f 219/249/218 220/250/219 221/252/221
f 220/250/219 164/251/220 222/253/222
f 220/250/219 222/253/222 221/252/221
f 222/253/222 164/251/220 168/254/223
f 221/252/221 222/253/222 223/255/224
f 222/253/222 168/254/223 224/256/225
f 222/253/222 224/256/225 223/255/224
f 224/256/225 168/254/223 171/257/226
f 224/256/225 171/257/226 172/258/227
f 223/255/224 224/256/225 225/259/228
f 225/259/228 224/256/225 172/258/227
f 223/255/224 225/259/228 226/260/229
f 225/259/228 172/258/227 176/261/230
f 226/260/229 225/259/228 227/262/231
f 227/262/231 225/259/228 176/261/230
f 227/262/231 176/261/230 118/263/232
f 226/260/229 227/262/231 228/264/233
f 227/262/231 118/263/232 119/265/234
f 227/262/231 119/265/234 228/264/233
f 228/264/233 119/265/234 120/266/235
f 60/267/236 58/225/194 204/227/196
f 229/268/237 203/226/195 148/159/128
f 203/226/195 229/268/237 204/227/196
f 229/268/237 148/159/128 147/158/127
f 60/267/236 204/227/196 230/269/238
f 230/269/238 204/227/196 229/268/237
f 60/267/236 230/269/238 62/270/239
f 229/268/237 147/158/127 231/271/240
f 229/268/237 231/271/240 230/269/238
f 231/271/240 147/158/127 141/150/119
f 62/270/239 230/269/238 232/272/241
f 232/272/241 230/269/238 231/271/240
f 62/270/239 232/272/241 65/273/242
f 231/271/240 141/150/119 233/274/243
f 231/271/240 233/274/243 232/272/241
f 233/274/243 141/150/119 139/148/117
f 232/272/241 233/274/243 234/275/244
f 232/272/241 234/275/244 65/273/242
f 65/273/242 234/275/244 29/276/245
f 233/274/243 139/148/117 235/277/246
f 233/274/243 235/277/246 234/275/244
f 235/277/246 139/148/117 138/147/116
f 29/276/245 234/275/244 236/278/247
f 236/278/247 234/275/244 235/277/246
f 29/276/245 236/278/247 28/279/248
f 235/277/246 138/147/116 237/280/249
f 235/277/246 237/280/249 236/278/247
f 237/280/249 138/147/116 135/143/112
f 28/279/248 236/278/247 238/281/250
f 238/281/250 236/278/247 237/280/249
f 28/279/248 238/281/250 21/282/251
f 237/280/249 135/143/112 239/283/252
f 237/280/249 239/283/252 238/281/250
f 239/283/252 135/143/112 134/141/110
f 21/282/251 238/281/250 240/284/253
f 240/284/253 238/281/250 239/283/252
f 21/282/251 240/284/253 22/285/254
f 239/283/252 134/141/110 132/138/107
f 22/285/254 240/284/253 23/286/255
f 23/286/255 240/284/253 241/287/256
f 241/287/256 240/284/253 239/283/252
f 23/286/255 241/287/256 24/288/257
f 239/283/252 132/138/107 242/289/258
f 239/283/252 242/289/258 241/287/256
f 242/289/258 132/138/107 129/134/103
f 24/288/257 241/287/256 243/290/259
f 243/290/259 241/287/256 242/289/258
f 24/288/257 243/290/259 26/291/260
f 242/289/258 129/134/103 244/292/261
f 242/289/258 244/292/261 243/290/259
f 244/292/261 129/134/103 127/131/100
f 26/291/260 243/290/259 245/293/262
f 245/293/262 243/290/259 244/292/261
f 26/291/260 245/293/262 31/294/263
f 244/292/261 127/131/100 246/295/264
f 244/292/261 246/295/264 245/293/262
f 246/295/264 127/131/100 126/129/98
f 31/294/263 245/293/262 247/296/265
f 247/296/265 245/293/262 246/295/264
f 31/294/263 247/296/265 33/297/266
f 246/295/264 126/129/98 248/298/267
f 246/295/264 248/298/267 247/296/265
f 248/298/267 126/129/98 124/124/93
f 33/297/266 247/296/265 249/299/268
f 249/299/268 247/296/265 248/298/267
f 33/297/266 249/299/268 35/300/269
f 248/298/267 124/124/93 250/301/270
f 248/298/267 250/301/270 249/299/268
f 250/301/270 124/124/93 122/122/91
f 35/300/269 249/299/268 251/302/271
f 251/302/271 249/299/268 250/301/270
f 250/301/270 122/122/91 252/303/272
f 250/301/270 252/303/272 251/302/271
f 252/303/272 122/122/91 183/304/273
f 183/304/273 122/122/91 121/121/90
f 252/303/272 183/304/273 184/305/274
f 183/304/273 121/121/90 180/306/275
f 180/306/275 121/121/90 115/126/95
f 180/306/275 115/126/95 118/307/276
f 252/303/272 184/305/274 190/308/277
f 252/303/272 190/308/277 251/302/271
f 251/302/271 190/308/277 37/309/278
f 251/302/271 37/309/278 35/300/269
f 253/310/279 254/311/280 255/312/281
f 256/313/282 253/310/279 255/312/281
f 253/310/279 256/313/282 257/314/281
f 253/310/279 257/314/281 258/315/281
f 257/314/281 256/313/282 259/316/281
f 253/310/279 258/315/281 254/311/280
f 254/311/280 258/315/281 260/317/281
f 259/316/281 256/313/282 261/318/281
f 254/311/280 260/317/281 262/319/281
f 261/318/281 256/313/282 263/320/283
f 263/320/283 256/313/282 255/312/281
f 261/318/281 263/320/283 264/321/281
f 264/321/281 263/320/283 265/322/281
f 254/311/280 262/319/281 266/323/284
f 254/311/280 266/323/284 255/312/281
f 266/323/284 262/319/281 267/324/281
f 266/323/284 267/324/281 268/325/281
f 265/322/281 263/320/283 269/326/285
f 269/326/285 263/320/283 255/312/281
f 265/322/281 269/326/285 270/327/281
f 270/327/281 269/326/285 271/328/281
f 266/323/284 268/325/281 272/329/286
f 266/323/284 272/329/286 255/312/281
f 272/329/286 268/325/281 273/330/281
f 272/329/286 273/330/281 274/331/281
f 271/328/281 269/326/285 275/332/287
f 275/332/287 269/326/285 255/312/281
f 271/328/281 275/332/287 276/333/281
f 276/333/281 275/332/287 277/334/281
f 272/329/286 274/331/281 278/335/288
f 272/329/286 278/335/288 255/312/281
f 278/335/288 274/331/281 279/336/281
f 278/335/288 279/336/281 280/337/281
f 277/334/281 275/332/287 281/338/289
f 281/338/289 275/332/287 255/312/281
f 277/334/281 281/338/289 282/339/281
f 282/339/281 281/338/289 283/340/281
f 283/340/281 281/338/289 284/341/281
f 278/335/288 280/337/281 285/342/290
f 278/335/288 285/342/290 255/312/281
f 285/342/290 280/337/281 286/343/281
f 285/342/290 286/343/281 287/344/281
f 285/342/290 287/344/281 288/345/281
f 284/341/281 281/338/289 289/346/291
f 289/346/291 281/338/289 255/312/281
f 284/341/281 289/346/291 288/345/281
f 289/346/291 255/312/281 285/342/290
f 289/346/291 285/342/290 288/345/281
f 99/347/292 290/348/293 102/349/294
f 290/348/293 99/347/292 291/350/295
f 291/350/295 99/347/292 94/351/296
f 290/348/293 291/350/295 277/352/297
f 290/348/293 277/352/297 282/353/298
f 277/352/297 291/350/295 276/354/299
f 290/348/293 282/353/298 292/355/300
f 290/348/293 292/355/300 102/349/294
f 292/355/300 282/353/298 283/356/301
f 292/355/300 283/356/301 284/357/302
f 291/350/295 94/351/296 293/358/303
f 291/350/295 293/358/303 276/354/299
f 293/358/303 94/351/296 91/359/304
f 293/358/303 91/359/304 95/360/305
f 292/355/300 284/357/302 294/361/306
f 292/355/300 294/361/306 102/349/294
f 294/361/306 284/357/302 288/362/307
f 102/349/294 294/361/306 103/363/308
f 293/358/303 95/360/305 295/364/309
f 293/358/303 295/364/309 276/354/299
f 295/364/309 95/360/305 97/365/310
f 276/354/299 295/364/309 271/366/311
f 103/363/308 294/361/306 296/367/312
f 296/367/312 294/361/306 288/362/307
f 103/363/308 296/367/312 106/368/313
f 296/367/312 288/362/307 287/369/314
f 271/366/311 295/364/309 297/370/315
f 297/370/315 295/364/309 97/365/310
f 271/366/311 297/370/315 270/371/316
f 297/370/315 97/365/310 206/372/317
f 106/368/313 296/367/312 298/373/318
f 298/373/318 296/367/312 287/369/314
f 106/368/313 298/373/318 109/374/319
f 109/374/319 298/373/318 114/375/320
f 298/373/318 287/369/314 299/376/321
f 298/373/318 299/376/321 114/375/320
f 299/376/321 287/369/314 286/377/322
f 114/375/320 299/376/321 117/378/323
f 299/376/321 286/377/322 300/379/324
f 299/376/321 300/379/324 117/378/323
f 300/379/324 286/377/322 280/380/325
f 117/378/323 300/379/324 120/381/326
f 120/381/326 300/379/324 301/382/327
f 301/382/327 300/379/324 280/380/325
f 301/382/327 280/380/325 279/383/328
f 302/384/329 270/371/316 297/370/315
f 270/371/316 302/384/329 265/385/330
f 302/384/329 297/370/315 206/372/317
f 265/385/330 302/384/329 264/386/331
f 302/384/329 206/372/317 303/387/332
f 302/384/329 303/387/332 264/386/331
f 303/387/332 206/372/317 207/388/333
f 264/386/331 303/387/332 261/389/334
f 303/387/332 207/388/333 304/390/335
f 303/387/332 304/390/335 261/389/334
f 304/390/335 207/388/333 209/391/336
f 261/389/334 304/390/335 259/392/337
f 304/390/335 209/391/336 305/393/338
f 304/390/335 305/393/338 259/392/337
f 305/393/338 209/391/336 211/394/339
f 305/393/338 211/394/339 214/395/340
f 259/392/337 305/393/338 306/396/341
f 306/396/341 305/393/338 214/395/340
f 259/392/337 306/396/341 257/397/342
f 306/396/341 214/395/340 216/398/343
f 257/397/342 306/396/341 307/399/344
f 307/399/344 306/396/341 216/398/343
f 257/397/342 307/399/344 258/400/345
f 307/399/344 216/398/343 218/401/346
f 258/400/345 307/399/344 308/402/347
f 308/402/347 307/399/344 218/401/346
f 258/400/345 308/402/347 260/403/348
f 260/403/348 308/402/347 262/404/349
f 308/402/347 218/401/346 309/405/350
f 308/402/347 309/405/350 262/404/349
f 309/405/350 218/401/346 219/406/351
f 262/404/349 309/405/350 267/407/352
f 309/405/350 219/406/351 310/408/353
f 309/405/350 310/408/353 267/407/352
f 310/408/353 219/406/351 221/409/354
f 267/407/352 310/408/353 268/410/355
f 310/408/353 221/409/354 311/411/356
f 310/408/353 311/411/356 268/410/355
f 311/411/356 221/409/354 223/412/357
f 311/411/356 223/412/357 226/413/358
f 268/410/355 311/411/356 312/414/359
f 312/414/359 311/411/356 226/413/358
f 268/410/355 312/414/359 273/415/360
f 312/414/359 226/413/358 228/416/361
f 273/415/360 312/414/359 313/417/362
f 313/417/362 312/414/359 228/416/361
f 313/417/362 228/416/361 120/418/363
f 273/415/360 313/417/362 274/419/364
f 313/417/362 120/418/363 301/420/365
f 313/417/362 301/420/365 274/419/364
f 274/419/364 301/420/365 279/421/366
