# CS2 body mesh, tools/cs2_glb_to_obj.py
v 0.02229 -0.17748 0.44113
v 0.02229 -0.17748 0.43745
v 0.02501 -0.17438 0.44113
v 0.01919 -0.1802 0.44113
v 0.01919 -0.1802 0.43745
v 0.017 -0.17458 0.43307
v 0.01576 -0.18249 0.43745
v 0.01576 -0.18249 0.44113
v 0.01206 -0.18431 0.43745
v 0.01206 -0.18431 0.44113
v 0.01141 -0.17832 0.43307
v 0.01762 -0.17064 0.42869
v 0.00816 -0.18564 0.44113
v 0.00816 -0.18564 0.43745
v 0.00503 -0.18048 0.43307
v 0.00411 -0.18644 0.43745
v 0.00411 -0.18644 0.44113
v 0 -0.18671 0.44113
v 0 -0.18671 0.43745
v -0.00169 -0.18092 0.43307
v 0.00753 -0.17738 0.42869
v -0.00457 -0.17817 0.42869
v 0.01727 -0.17033 0.42431
v 0.02298 -0.15976 0.42869
v 0.00738 -0.17694 0.42431
v -0.00448 -0.17772 0.42431
v -0.00457 -0.17817 0.41993
v 0.00753 -0.17738 0.41993
v -0.00169 -0.18092 0.41555
v 0.02253 -0.15967 0.42431
v 0.00503 -0.18048 0.41555
v 0.02175 -0.14781 0.42431
v 0 -0.18671 0.41117
v 0.02219 -0.14766 0.42869
v 0.02298 -0.15976 0.41993
v 0.01762 -0.17064 0.41993
v 0.01141 -0.17832 0.41555
v 0.02442 -0.16348 0.41555
v 0.02219 -0.14766 0.41993
v 0.01514 -0.13792 0.42431
v 0.01545 -0.13757 0.42869
v 0.02313 -0.14378 0.43307
v 0.02573 -0.15688 0.41555
v 0.02529 -0.15016 0.41555
v 0.01545 -0.13757 0.41993
v 0.02313 -0.14378 0.41555
v 0.03152 -0.15519 0.41117
v 0.03125 -0.15107 0.41117
v 0.03125 -0.1593 0.41117
v 0.03125 -0.15107 0.39487
v 0.03152 -0.15519 0.39487
v 0.03125 -0.1593 0.39487
v 0.03045 -0.14703 0.41117
v 0.03045 -0.14703 0.39487
v 0.02912 -0.14313 0.39487
v 0.03045 -0.16335 0.41117
v 0.03045 -0.16335 0.39487
v 0.02912 -0.14313 0.41117
v 0.0273 -0.13943 0.39487
v 0.02912 -0.16725 0.41117
v 0.02912 -0.16725 0.39487
v 0.0273 -0.13943 0.41117
v 0.02501 -0.136 0.39487
v 0.0273 -0.17095 0.41117
v 0.0273 -0.17095 0.39487
v 0.02144 -0.16952 0.41555
v 0.02501 -0.17438 0.41117
v 0.02501 -0.17438 0.39487
v 0.017 -0.17458 0.41555
v 0.02229 -0.17748 0.41117
v 0.02229 -0.17748 0.39487
v 0.01919 -0.1802 0.39487
v 0.01919 -0.1802 0.41117
v 0.01576 -0.18249 0.39487
v 0.01576 -0.18249 0.41117
v 0.01206 -0.18431 0.39487
v 0.01206 -0.18431 0.41117
v 0.00816 -0.18564 0.39487
v 0.00816 -0.18564 0.41117
v 0.00411 -0.18644 0.41117
v 0.00411 -0.18644 0.39487
v 0 -0.18671 0.39487
v -0.03045 -0.16335 0.44113
v -0.03125 -0.1593 0.43745
v -0.03045 -0.16335 0.43745
v -0.02529 -0.16022 0.43307
v -0.02912 -0.16725 0.44113
v -0.02313 -0.1666 0.43307
v -0.02219 -0.16272 0.42869
v -0.02912 -0.16725 0.43745
v -0.0273 -0.17095 0.43745
v -0.0273 -0.17095 0.44113
v -0.02501 -0.17438 0.44113
v -0.02501 -0.17438 0.43745
v -0.02229 -0.17748 0.43745
v -0.02229 -0.17748 0.44113
v -0.01939 -0.17219 0.43307
v -0.01919 -0.1802 0.44113
v -0.01545 -0.17281 0.42869
v -0.01433 -0.17663 0.43307
v -0.01919 -0.1802 0.43745
v -0.01576 -0.18249 0.44113
v -0.01576 -0.18249 0.43745
v -0.01206 -0.18431 0.44113
v -0.01206 -0.18431 0.43745
v -0.00829 -0.17961 0.43307
v -0.00816 -0.18564 0.43745
v -0.00816 -0.18564 0.44113
v -0.00411 -0.18644 0.44113
v -0.00411 -0.18644 0.43745
v -0.01514 -0.17246 0.42431
v -0.02175 -0.16257 0.42431
v -0.02298 -0.15062 0.42869
v -0.01545 -0.17281 0.41993
v -0.02219 -0.16272 0.41993
v -0.02253 -0.15071 0.42431
v -0.02298 -0.15062 0.41993
v -0.01727 -0.14005 0.42431
v -0.01762 -0.13974 0.42869
v -0.00753 -0.133 0.42869
v -0.00738 -0.13344 0.42431
v -0.00753 -0.133 0.41993
v -0.01762 -0.13974 0.41993
v 0.00457 -0.1322 0.41993
v -0.02442 -0.1469 0.41555
v -0.01141 -0.13206 0.41555
v -0.02573 -0.1535 0.41555
v -0.02529 -0.16022 0.41555
v 0.00169 -0.12946 0.41555
v -0.02313 -0.1666 0.41555
v -0.00503 -0.1299 0.41555
v -0.03152 -0.15519 0.41117
v -0.03125 -0.1593 0.41117
v -0.03125 -0.15107 0.41117
v -0.03125 -0.1593 0.39487
v -0.03152 -0.15519 0.39487
v -0.03125 -0.15107 0.39487
v -0.03045 -0.16335 0.41117
v -0.03045 -0.16335 0.39487
v -0.03045 -0.14703 0.41117
v -0.03045 -0.14703 0.39487
v -0.02912 -0.14313 0.39487
v -0.02912 -0.16725 0.41117
v -0.02912 -0.16725 0.39487
v -0.0273 -0.17095 0.39487
v -0.02912 -0.14313 0.41117
v -0.0273 -0.13943 0.39487
v -0.0273 -0.17095 0.41117
v -0.02501 -0.17438 0.41117
v -0.02501 -0.17438 0.39487
v -0.01939 -0.17219 0.41555
v -0.02229 -0.17748 0.41117
v -0.02229 -0.17748 0.39487
v -0.01433 -0.17663 0.41555
v -0.01919 -0.1802 0.41117
v -0.01919 -0.1802 0.39487
v -0.01576 -0.18249 0.39487
v -0.01576 -0.18249 0.41117
v -0.00829 -0.17961 0.41555
v -0.01206 -0.18431 0.41117
v -0.01206 -0.18431 0.39487
v -0.00816 -0.18564 0.41117
v -0.00816 -0.18564 0.39487
v -0.00411 -0.18644 0.41117
v -0.00411 -0.18644 0.39487
v 0.01433 -0.13375 0.41555
v 0.01576 -0.12789 0.41117
v 0.00829 -0.13077 0.41555
v 0.01206 -0.12607 0.41117
v 0.01206 -0.12607 0.39487
v 0.00816 -0.12474 0.39487
v 0.01576 -0.12789 0.39487
v 0.00816 -0.12474 0.41117
v 0.00411 -0.12394 0.39487
v 0.01919 -0.13018 0.41117
v 0.01919 -0.13018 0.39487
v 0.02229 -0.1329 0.41117
v 0.02229 -0.1329 0.39487
v 0.00411 -0.12394 0.41117
v 0 -0.12367 0.39487
v 0.02501 -0.136 0.41117
v 0.01939 -0.13819 0.41555
v 0 -0.12367 0.41117
v -0.00411 -0.12394 0.41117
v -0.00411 -0.12394 0.39487
v -0.00816 -0.12474 0.41117
v -0.00816 -0.12474 0.39487
v -0.01206 -0.12607 0.39487
v -0.01206 -0.12607 0.41117
v -0.01576 -0.12789 0.39487
v -0.01576 -0.12789 0.41117
v -0.01919 -0.13018 0.39487
v -0.01919 -0.13018 0.41117
v -0.02229 -0.1329 0.39487
v -0.02229 -0.1329 0.41117
v -0.017 -0.1358 0.41555
v -0.02501 -0.136 0.41117
v -0.02501 -0.136 0.39487
v -0.02144 -0.14086 0.41555
v -0.0273 -0.13943 0.41117
v 0.03045 -0.14703 0.43745
v 0.03125 -0.15107 0.44113
v 0.03125 -0.15107 0.43745
v 0.03045 -0.14703 0.44113
v 0.02912 -0.14313 0.44113
v 0.03152 -0.15519 0.43745
v 0.03152 -0.15519 0.44113
v 0.02529 -0.15016 0.43307
v 0.02912 -0.14313 0.43745
v 0.0273 -0.13943 0.44113
v 0.03125 -0.1593 0.43745
v 0.03125 -0.1593 0.44113
v 0.02573 -0.15688 0.43307
v 0.03045 -0.16335 0.44113
v 0.02442 -0.16348 0.43307
v 0.03045 -0.16335 0.43745
v 0.02912 -0.16725 0.43745
v 0.02912 -0.16725 0.44113
v 0.02144 -0.16952 0.43307
v 0.0273 -0.17095 0.43745
v 0.0273 -0.17095 0.44113
v 0.02501 -0.17438 0.43745
v -0.00411 -0.12394 0.44113
v -0.00411 -0.12394 0.43745
v -0.00816 -0.12474 0.44113
v -0.00816 -0.12474 0.43745
v -0.00503 -0.1299 0.43307
v -0.01206 -0.12607 0.44113
v -0.01206 -0.12607 0.43745
v -0.01141 -0.13206 0.43307
v -0.01576 -0.12789 0.43745
v -0.01576 -0.12789 0.44113
v -0.01919 -0.13018 0.43745
v -0.01919 -0.13018 0.44113
v -0.02229 -0.1329 0.44113
v -0.02229 -0.1329 0.43745
v -0.02501 -0.136 0.43745
v -0.02501 -0.136 0.44113
v -0.017 -0.1358 0.43307
v -0.0273 -0.13943 0.44113
v -0.02144 -0.14086 0.43307
v -0.0273 -0.13943 0.43745
v -0.02912 -0.14313 0.44113
v -0.02912 -0.14313 0.43745
v -0.03045 -0.14703 0.44113
v -0.02442 -0.1469 0.43307
v -0.03045 -0.14703 0.43745
v -0.03125 -0.15107 0.44113
v -0.03125 -0.15107 0.43745
v -0.03152 -0.15519 0.44113
v -0.03152 -0.15519 0.43745
v -0.02573 -0.1535 0.43307
v -0.03125 -0.1593 0.44113
v 0.0273 -0.13943 0.43745
v 0.02501 -0.136 0.43745
v 0.02501 -0.136 0.44113
v 0.02229 -0.1329 0.44113
v 0.01939 -0.13819 0.43307
v 0.02229 -0.1329 0.43745
v 0.01919 -0.13018 0.44113
v 0.01433 -0.13375 0.43307
v 0.01919 -0.13018 0.43745
v 0.01576 -0.12789 0.44113
v 0.01576 -0.12789 0.43745
v 0.00829 -0.13077 0.43307
v 0.01206 -0.12607 0.43745
v 0.01206 -0.12607 0.44113
v 0.00816 -0.12474 0.44113
v 0.00816 -0.12474 0.43745
v 0.00411 -0.12394 0.43745
v 0.00411 -0.12394 0.44113
v 0.00457 -0.1322 0.42869
v 0.00169 -0.12946 0.43307
v 0 -0.12367 0.43745
v 0 -0.12367 0.44113
v 0.00448 -0.13266 0.42431
v 0.02754 -0.14584 0.39249
v 0.02902 -0.15329 0.39249
v 0.02418 -0.13903 0.39249
v 0.02852 -0.16086 0.39249
v 0.02608 -0.16805 0.39249
v 0.02186 -0.17436 0.39249
v 0.01917 -0.13333 0.39249
v 0.01616 -0.17937 0.39249
v 0.00935 -0.18273 0.39249
v 0.01286 -0.12911 0.39249
v 0.0019 -0.18421 0.39249
v 0.00567 -0.12667 0.39249
v -0.0019 -0.12617 0.39249
v -0.00567 -0.18371 0.39249
v -0.01286 -0.18127 0.39249
v -0.00935 -0.12765 0.39249
v -0.01917 -0.17705 0.39249
v -0.01616 -0.13101 0.39249
v -0.02418 -0.17135 0.39249
v -0.02186 -0.13602 0.39249
v -0.02754 -0.16454 0.39249
v -0.02608 -0.14233 0.39249
v -0.02902 -0.15709 0.39249
v -0.02852 -0.14952 0.39249
vt 0.885464 0.969085
vt 0.880978 0.969085
vt 0.885464 0.965423
vt 0.885464 0.972777
vt 0.880978 0.972777
vt 0.874233 0.970946
vt 0.880978 0.97647
vt 0.885464 0.97647
vt 0.880978 0.980163
vt 0.885464 0.980163
vt 0.874233 0.978332
vt 0.868892 0.967254
vt 0.885464 0.983856
vt 0.880978 0.983856
vt 0.874233 0.985687
vt 0.880978 0.987548
vt 0.885464 0.987548
vt 0.885464 0.991241
vt 0.880978 0.991241
vt 0.874233 0.993072
vt 0.868892 0.982025
vt 0.868892 0.996765
vt 0.863552 0.967254
vt 0.868892 0.952513
vt 0.863552 0.982025
vt 0.863552 0.996765
vt 0.858211 0.996765
vt 0.858211 0.982025
vt 0.85287 0.993072
vt 0.863552 0.952513
vt 0.85287 0.985687
vt 0.863552 0.937742
vt 0.847255 0.991241
vt 0.868892 0.937742
vt 0.858211 0.952513
vt 0.858211 0.967254
vt 0.85287 0.978332
vt 0.85287 0.956175
vt 0.858211 0.937742
vt 0.863552 0.923002
vt 0.868892 0.923002
vt 0.874233 0.934049
vt 0.85287 0.94882
vt 0.85287 0.941435
vt 0.858211 0.923002
vt 0.85287 0.934049
vt 0.847255 0.946959
vt 0.847255 0.943266
vt 0.847255 0.950652
vt 0.83285 0.943266
vt 0.83285 0.946959
vt 0.83285 0.950652
vt 0.847255 0.939573
vt 0.83285 0.939573
vt 0.83285 0.935911
vt 0.847255 0.954344
vt 0.83285 0.954344
vt 0.847255 0.935911
vt 0.83285 0.932218
vt 0.847255 0.958037
vt 0.83285 0.958037
vt 0.847255 0.932218
vt 0.83285 0.928526
vt 0.847255 0.96173
vt 0.83285 0.96173
vt 0.85287 0.963561
vt 0.847255 0.965423
vt 0.83285 0.965423
vt 0.85287 0.970946
vt 0.847255 0.969085
vt 0.83285 0.969085
vt 0.83285 0.972777
vt 0.847255 0.972777
vt 0.83285 0.97647
vt 0.847255 0.97647
vt 0.83285 0.980163
vt 0.847255 0.980163
vt 0.83285 0.983856
vt 0.847255 0.983856
vt 0.847255 0.987548
vt 0.83285 0.987548
vt 0.83285 0.991241
vt 0.885464 0.851039
vt 0.880978 0.854732
vt 0.880978 0.851039
vt 0.874233 0.852901
vt 0.885464 0.847346
vt 0.874233 0.845515
vt 0.868892 0.849208
vt 0.880978 0.847346
vt 0.880978 0.843684
vt 0.885464 0.843684
vt 0.885464 0.839991
vt 0.880978 0.839991
vt 0.880978 0.836299
vt 0.885464 0.836299
vt 0.874233 0.83813
vt 0.885464 0.832606
vt 0.868892 0.834437
vt 0.874233 0.830775
vt 0.880978 0.832606
vt 0.885464 0.828913
vt 0.880978 0.828913
vt 0.885464 0.825221
vt 0.880978 0.825221
vt 0.874233 0.823389
vt 0.880978 0.821528
vt 0.885464 0.821528
vt 0.885464 0.817835
vt 0.880978 0.817835
vt 0.885464 0.814173
vt 0.880978 0.814173
vt 0.874233 0.816004
vt 0.868892 0.819697
vt 0.863552 0.834437
vt 0.863552 0.819697
vt 0.858211 0.819697
vt 0.863552 0.849208
vt 0.868892 0.863948
vt 0.858211 0.834437
vt 0.858211 0.849208
vt 0.863552 0.863948
vt 0.858211 0.863948
vt 0.863552 0.878719
vt 0.868892 0.878719
vt 0.868892 0.89346
vt 0.863552 0.89346
vt 0.858211 0.89346
vt 0.858211 0.878719
vt 0.858211 0.908231
vt 0.85287 0.867641
vt 0.85287 0.889798
vt 0.85287 0.860286
vt 0.85287 0.852901
vt 0.85287 0.904538
vt 0.85287 0.845515
vt 0.85287 0.897153
vt 0.847255 0.858425
vt 0.847255 0.854732
vt 0.847255 0.862117
vt 0.83285 0.854732
vt 0.83285 0.858425
vt 0.83285 0.862117
vt 0.847255 0.851039
vt 0.83285 0.851039
vt 0.847255 0.86581
vt 0.83285 0.86581
vt 0.83285 0.869503
vt 0.847255 0.847346
vt 0.83285 0.847346
vt 0.83285 0.843684
vt 0.847255 0.869503
vt 0.83285 0.873196
vt 0.847255 0.843684
vt 0.847255 0.839991
vt 0.83285 0.839991
vt 0.85287 0.83813
vt 0.847255 0.836299
vt 0.83285 0.836299
vt 0.85287 0.830775
vt 0.847255 0.832606
vt 0.83285 0.832606
vt 0.83285 0.828913
vt 0.847255 0.828913
vt 0.85287 0.823389
vt 0.847255 0.825221
vt 0.83285 0.825221
vt 0.85287 0.816004
vt 0.847255 0.821528
vt 0.83285 0.821528
vt 0.847255 0.817835
vt 0.847255 0.814173
vt 0.83285 0.817835
vt 0.83285 0.814173
vt 0.85287 0.919309
vt 0.847255 0.917447
vt 0.85287 0.911924
vt 0.847255 0.913755
vt 0.83285 0.913755
vt 0.83285 0.910062
vt 0.83285 0.917447
vt 0.847255 0.910062
vt 0.83285 0.9064
vt 0.847255 0.92114
vt 0.83285 0.92114
vt 0.847255 0.924833
vt 0.83285 0.924833
vt 0.847255 0.9064
vt 0.83285 0.902707
vt 0.847255 0.928526
vt 0.85287 0.926664
vt 0.847255 0.902707
vt 0.847255 0.899014
vt 0.83285 0.899014
vt 0.847255 0.895321
vt 0.83285 0.895321
vt 0.83285 0.891629
vt 0.847255 0.891629
vt 0.83285 0.887936
vt 0.847255 0.887936
vt 0.83285 0.884243
vt 0.847255 0.884243
vt 0.83285 0.880551
vt 0.847255 0.880551
vt 0.85287 0.882412
vt 0.847255 0.876888
vt 0.83285 0.876888
vt 0.85287 0.875027
vt 0.847255 0.873196
vt 0.880978 0.939573
vt 0.885464 0.943266
vt 0.880978 0.943266
vt 0.885464 0.939573
vt 0.885464 0.935911
vt 0.880978 0.946959
vt 0.885464 0.946959
vt 0.874233 0.941435
vt 0.880978 0.935911
vt 0.885464 0.932218
vt 0.880978 0.950652
vt 0.885464 0.950652
vt 0.874233 0.94882
vt 0.885464 0.954344
vt 0.874233 0.956175
vt 0.880978 0.954344
vt 0.880978 0.958037
vt 0.885464 0.958037
vt 0.874233 0.963561
vt 0.880978 0.96173
vt 0.885464 0.96173
vt 0.880978 0.965423
vt 0.885464 0.899014
vt 0.880978 0.899014
vt 0.885464 0.895321
vt 0.880978 0.895321
vt 0.874233 0.897153
vt 0.885464 0.891629
vt 0.880978 0.891629
vt 0.874233 0.889798
vt 0.880978 0.887936
vt 0.885464 0.887936
vt 0.880978 0.884243
vt 0.885464 0.884243
vt 0.885464 0.880551
vt 0.880978 0.880551
vt 0.880978 0.876888
vt 0.885464 0.876888
vt 0.874233 0.882412
vt 0.885464 0.873196
vt 0.874233 0.875027
vt 0.880978 0.873196
vt 0.885464 0.869503
vt 0.880978 0.869503
vt 0.885464 0.86581
vt 0.874233 0.867641
vt 0.880978 0.86581
vt 0.885464 0.862117
vt 0.880978 0.862117
vt 0.885464 0.858425
vt 0.880978 0.858425
vt 0.874233 0.860286
vt 0.885464 0.854732
vt 0.880978 0.932218
vt 0.880978 0.928526
vt 0.885464 0.928526
vt 0.885464 0.924833
vt 0.874233 0.926664
vt 0.880978 0.924833
vt 0.885464 0.92114
vt 0.874233 0.919309
vt 0.880978 0.92114
vt 0.885464 0.917447
vt 0.880978 0.917447
vt 0.874233 0.911924
vt 0.880978 0.913755
vt 0.885464 0.913755
vt 0.885464 0.910062
vt 0.880978 0.910062
vt 0.880978 0.9064
vt 0.885464 0.9064
vt 0.868892 0.908231
vt 0.874233 0.904538
vt 0.880978 0.902707
vt 0.885464 0.902707
vt 0.863552 0.908231
vt 0.364574 0.473739
vt 0.368786 0.46852
vt 0.365123 0.469588
vt 0.366192 0.465529
vt 0.36784 0.475784
vt 0.364605 0.47795
vt 0.371624 0.461562
vt 0.367779 0.461654
vt 0.369854 0.458022
vt 0.368847 0.483322
vt 0.365184 0.482162
vt 0.366283 0.486221
vt 0.371746 0.490188
vt 0.367901 0.490066
vt 0.370006 0.493698
vt 0.37257 0.496963
vt 0.376324 0.496078
vt 0.375561 0.499954
vt 0.376171 0.455672
vt 0.372387 0.454726
vt 0.382305 0.500595
vt 0.378887 0.502518
vt 0.375347 0.451766
vt 0.38255 0.504593
vt 0.389233 0.503403
vt 0.386425 0.50618
vt 0.390484 0.507248
vt 0.394635 0.507767
vt 0.382122 0.451094
vt 0.378674 0.449202
vt 0.382275 0.447066
vt 0.396588 0.504349
vt 0.398816 0.507767
vt 0.38905 0.448195
vt 0.386151 0.445448
vt 0.39021 0.444349
vt 0.39436 0.44377
vt 0.396588 0.447188
vt 0.398541 0.44377
vt 0.404126 0.503342
vt 0.402997 0.507187
vt 0.407025 0.506088
vt 0.410901 0.504471
vt 0.411054 0.500443
vt 0.414533 0.502365
vt 0.403943 0.448134
vt 0.402722 0.444288
vt 0.406751 0.445357
vt 0.410657 0.446944
vt 0.417005 0.495865
vt 0.417829 0.499771
vt 0.420789 0.49675
vt 0.423322 0.493393
vt 0.410901 0.450942
vt 0.414289 0.449019
vt 0.417615 0.451582
vt 0.421552 0.489914
vt 0.425398 0.489822
vt 0.416852 0.455458
vt 0.420606 0.454451
vt 0.42439 0.483016
vt 0.426984 0.485946
vt 0.428053 0.481826
vt 0.428602 0.477676
vt 0.42143 0.461348
vt 0.42317 0.457778
vt 0.425275 0.461409
vt 0.426893 0.465316
vt 0.425336 0.475784
vt 0.428571 0.473464
vt 0.424329 0.468215
vt 0.428022 0.469314
vn 0.7078 -0.7064 0
vn 0.5891 -0.5671 -0.5756
vn 0.7924 -0.61 0
vn 0.6085 -0.7935 0
vn 0.4838 -0.6602 -0.5745
vn 0.4508 -0.5727 -0.6846
vn 0.4215 -0.7019 -0.5742
vn 0.4993 -0.8664 0
vn 0.2972 -0.7621 -0.5752
vn 0.3833 -0.9236 0
vn 0.3574 -0.6345 -0.6853
vn 0.7144 -0.6255 -0.3136
vn 0.2586 -0.966 0
vn 0.2266 -0.7868 -0.5742
vn 0.1033 -0.7215 -0.6846
vn 0.0896 -0.8133 -0.5749
vn 0.1317 -0.9913 0
vn 0.0644 -0.9979 0
vn 0.0484 -0.759 -0.6493
vn 0.0484 -0.7564 -0.6524
vn 0.3054 -0.8999 -0.3113
vn 0.0613 -0.9546 -0.2914
vn 0.7531 -0.6579 0
vn 0.9321 -0.1828 -0.3126
vn 0.3225 -0.9466 0
vn 0.0613 -0.9546 0.2914
vn 0.3054 -0.8999 0.3113
vn 0.0484 -0.7564 0.6524
vn 0.981 -0.1941 0
vn 0.1033 -0.7215 0.6846
vn 0.9469 0.3214 0.0012
vn 0.0607 -0.9325 0.3561
vn 0.8999 0.3039 -0.3128
vn 0.9321 -0.1828 0.3126
vn 0.7144 -0.6255 0.3136
vn 0.3574 -0.6345 0.6853
vn 0.6761 -0.2695 0.6857
vn 0.8999 0.3039 0.3128
vn 0.6586 0.7525 0.0014
vn 0.6251 0.7156 -0.3117
vn 0.6342 0.3556 -0.6866
vn 0.7276 -0.0069 0.686
vn 0.7209 0.1017 0.6855
vn 0.6251 0.7156 0.3118
vn 0.6342 0.3556 0.6866
vn 0.9658 0.0084 0.2592
vn 0.9582 0.119 0.2601
vn 0.9568 -0.1331 0.2583
vn 0.9914 0.1307 0.0011
vn 1 -0.001 0
vn 0.9914 -0.1305 0
vn 0.9315 0.2558 0.2587
vn 0.9663 0.2574 0.0012
vn 0.9241 0.3822 0.0013
vn 0.935 -0.2429 0.2583
vn 0.9656 -0.26 0
vn 0.8947 0.3635 0.2596
vn 0.867 0.4983 0.0013
vn 0.889 -0.3774 0.2595
vn 0.9243 -0.3817 0
vn 0.8328 0.4898 0.258
vn 0.7942 0.6077 0.0014
vn 0.8407 -0.4758 0.2587
vn 0.8655 -0.5009 0
vn 0.6256 -0.3737 0.6848
vn 0.7608 -0.5951 0.2589
vn 0.4508 -0.5727 0.6846
vn 0.6898 -0.6755 0.2607
vn 0.5829 -0.7704 0.2584
vn 0.4884 -0.8331 0.2597
vn 0.3614 -0.8961 0.2577
vn 0.2577 -0.9304 0.2606
vn 0.1203 -0.9584 0.2589
vn -0.9656 -0.26 0
vn -0.8127 -0.0911 -0.5755
vn -0.7859 -0.2283 -0.5747
vn -0.7207 -0.1049 -0.6853
vn -0.9243 -0.3817 0
vn -0.6358 -0.3556 -0.685
vn -0.8992 -0.3072 -0.3116
vn -0.7611 -0.299 -0.5756
vn -0.7006 -0.4233 -0.5744
vn -0.8655 -0.5009 0
vn -0.7924 -0.61 0
vn -0.6587 -0.4856 -0.5747
vn -0.5654 -0.5908 -0.5756
vn -0.7078 -0.7064 0
vn -0.5712 -0.4526 -0.6848
vn -0.6085 -0.7935 0
vn -0.6272 -0.7129 -0.3136
vn -0.3719 -0.627 -0.6846
vn -0.5092 -0.639 -0.5766
vn -0.4993 -0.8664 0
vn -0.3958 -0.7142 -0.5773
vn -0.3833 -0.9236 0
vn -0.3261 -0.7506 -0.5747
vn -0.2713 -0.675 -0.6862
vn -0.1959 -0.7941 -0.5753
vn -0.2586 -0.966 0
vn -0.1317 -0.9913 0
vn -0.1238 -0.809 -0.5747
vn -0.0644 -0.9979 0
vn -0.0588 -0.9187 -0.3905
vn -0.1221 -0.6597 -0.7416
vn -0.3931 -0.8645 -0.3132
vn -0.6594 -0.7518 0
vn -0.4425 -0.8968 0
vn -0.3931 -0.8645 0.3132
vn -0.9471 -0.3211 0
vn -0.9319 0.1858 -0.3116
vn -0.6272 -0.7129 0.3136
vn -0.8992 -0.3072 0.3116
vn -0.9809 0.1943 0.0011
vn -0.9319 0.1858 0.3116
vn -0.7525 0.6586 0.0014
vn -0.7156 0.6251 -0.3118
vn -0.3039 0.8999 -0.3128
vn -0.3214 0.9469 0.0012
vn -0.3039 0.8999 0.3128
vn -0.7156 0.6251 0.3118
vn 0.1858 0.9319 0.3116
vn -0.6754 0.273 0.685
vn -0.3556 0.6342 0.6866
vn -0.7276 0.0097 0.6859
vn -0.7207 -0.1049 0.6853
vn 0.0069 0.729 0.6845
vn -0.6358 -0.3556 0.685
vn -0.1017 0.7209 0.6855
vn -0.9656 -0.006 0.2601
vn -0.9586 -0.1189 0.2586
vn -0.9564 0.1332 0.2599
vn -0.9914 -0.1305 0
vn -1 -0.001 0
vn -0.9914 0.1307 0.0011
vn -0.9309 -0.2561 0.2603
vn -0.9345 0.2431 0.26
vn -0.9663 0.2574 0.0012
vn -0.9241 0.3822 0.0013
vn -0.8953 -0.3632 0.2579
vn -0.8899 0.3742 0.2609
vn -0.867 0.4983 0.0013
vn -0.832 -0.4902 0.2598
vn -0.769 -0.5846 0.2584
vn -0.5712 -0.4526 0.6848
vn -0.6771 -0.6882 0.2607
vn -0.3719 -0.627 0.6846
vn -0.5934 -0.7622 0.2588
vn -0.4776 -0.8396 0.2588
vn -0.2713 -0.675 0.6862
vn -0.3756 -0.8898 0.2593
vn -0.1221 -0.6597 0.7416
vn -0.2412 -0.9355 0.2581
vn -0.1317 -0.9571 0.258
vn -0.0647 -0.9898 0.127
vn 0.3701 0.6266 0.6858
vn 0.4762 0.8399 0.2604
vn 0.2695 0.6777 0.6841
vn 0.3777 0.8883 0.2613
vn 0.3822 0.9241 0.0013
vn 0.2603 0.9655 0.0012
vn 0.5015 0.8652 0.0013
vn 0.2431 0.9345 0.26
vn 0.1307 0.9914 0.0011
vn 0.5956 0.7598 0.2607
vn 0.6107 0.7919 0.0014
vn 0.6782 0.6877 0.2589
vn 0.7071 0.7071 0.0014
vn 0.1332 0.9564 0.2599
vn -0.001 1 0.001
vn 0.7708 0.5816 0.2601
vn 0.5725 0.449 0.686
vn -0.006 0.966 0.2586
vn -0.119 0.9582 0.2601
vn -0.1307 0.9914 0.0011
vn -0.2558 0.9315 0.2587
vn -0.2603 0.9655 0.0012
vn -0.3822 0.9241 0.0013
vn -0.3635 0.8947 0.2596
vn -0.5015 0.8652 0.0013
vn -0.4898 0.8328 0.258
vn -0.6107 0.7919 0.0014
vn -0.5816 0.7708 0.2601
vn -0.7071 0.7071 0.0014
vn -0.6877 0.6782 0.2589
vn -0.449 0.5725 0.686
vn -0.7626 0.5921 0.2605
vn -0.7942 0.6077 0.0014
vn -0.6266 0.3701 0.6858
vn -0.8399 0.4762 0.2604
vn 0.7863 0.2249 -0.5754
vn 0.8115 0.0911 -0.5772
vn 0.8179 0.0179 -0.5751
vn 0.7209 0.1017 -0.6855
vn 0.7618 0.2955 -0.5765
vn 0.8083 -0.1254 -0.5753
vn 0.7276 -0.0069 -0.686
vn 0.6761 -0.2695 -0.6857
vn 0.7933 -0.1976 -0.5758
vn 0.7495 -0.3279 -0.5751
vn 0.6256 -0.3737 -0.6848
vn 0.7155 -0.394 -0.577
vn 0.6374 -0.511 -0.5767
vn -0.0911 0.8115 -0.5772
vn -0.2284 0.7846 -0.5764
vn -0.1017 0.7209 -0.6855
vn -0.2991 0.7597 -0.5774
vn -0.3556 0.6342 -0.6866
vn -0.4234 0.6991 -0.5762
vn -0.4857 0.6571 -0.5764
vn -0.5908 0.5637 -0.5772
vn -0.639 0.5109 -0.575
vn -0.449 0.5725 -0.686
vn -0.6266 0.3701 -0.6858
vn -0.7169 0.3939 -0.5752
vn -0.7481 0.328 -0.5768
vn -0.6754 0.273 -0.685
vn -0.7937 0.1942 -0.5765
vn -0.8084 0.1222 -0.5758
vn -0.8177 -0.0151 -0.5754
vn -0.7276 0.0097 -0.6859
vn 0.6991 0.4234 -0.5762
vn 0.6571 0.4857 -0.5764
vn 0.5725 0.449 -0.686
vn 0.5671 0.5874 -0.5773
vn 0.3701 0.6266 -0.6858
vn 0.5109 0.639 -0.575
vn 0.3939 0.7169 -0.5752
vn 0.2695 0.6777 -0.6841
vn 0.328 0.7481 -0.5768
vn 0.1976 0.7921 -0.5776
vn 0.1222 0.8084 -0.5758
vn 0.1858 0.9319 -0.3116
vn 0.0069 0.729 -0.6845
vn -0.0151 0.8188 -0.5739
vn 0.001 1 0.001
vn 0.1943 0.9809 0.0012
vn 0.6653 0.1206 -0.7368
vn 0.0049 0.001 -1
vn 0.6612 0.1431 -0.7365
vn 0.6123 0.2862 -0.737
vn 0.675 -0.0325 -0.7371
vn 0.601 0.311 -0.7363
vn 0.5167 0.4342 -0.7379
vn 0.0039 -0.001 -1
vn 0.6738 -0.0559 -0.7368
vn 0.6444 -0.2029 -0.7373
vn 0.0039 -0.003 -1
vn 0.6361 -0.2303 -0.7364
vn 0.5682 -0.3641 -0.738
vn 0.5542 -0.3853 -0.7378
vn 0.4564 -0.4977 -0.7375
vn 0.0029 0.0029 -1
vn 0.498 0.4583 -0.7362
vn 0.002 -0.0049 -1
vn 0.436 -0.517 -0.7366
vn 0.3854 0.556 -0.7364
vn 0.3091 -0.6006 -0.7374
vn 0.288 -0.6127 -0.7359
vn 0.1447 -0.6618 -0.7356
vn 0.119 -0.6647 -0.7376
vn 0.3642 0.57 -0.7365
vn 0.2303 0.6345 -0.7379
vn 0 -0.0049 -1
vn -0.031 -0.6758 -0.7364
vn 0.001 0.0049 -1
vn 0.2063 0.6438 -0.7369
vn 0.0589 0.6736 -0.7368
vn 0.0296 0.6751 -0.7371
vn -0.001 0.0049 -1
vn -0.1174 0.6672 -0.7356
vn -0.0574 -0.6729 -0.7375
vn -0.2046 -0.6433 -0.7378
vn -0.2286 -0.6373 -0.7359
vn -0.002 -0.0049 -1
vn -0.3658 -0.5667 -0.7382
vn -0.1463 0.6592 -0.7376
vn -0.2862 0.6123 -0.737
vn -0.311 0.601 -0.7363
vn -0.0039 -0.003 -1
vn -0.3871 -0.5527 -0.738
vn -0.4994 -0.4547 -0.7375
vn -0.5154 -0.4377 -0.7367
vn -0.0029 0.0029 -1
vn -0.4342 0.5167 -0.7379
vn -0.4549 0.5012 -0.7361
vn -0.5992 -0.3109 -0.7378
vn -0.556 0.3854 -0.7364
vn -0.6115 -0.2897 -0.7363
vn -0.6608 -0.1463 -0.7362
vn -0.6657 -0.1174 -0.737
vn -0.0049 0.001 -1
vn -0.57 0.3642 -0.7365
vn -0.6345 0.2303 -0.7379
vn -0.6438 0.2063 -0.7369
vn -0.0039 -0.001 -1
vn -0.6751 0.0296 -0.7371
vn -0.6736 0.0589 -0.7368
o loader_handle__p1_c0
f 1/1/1 2/2/2 3/3/3
f 2/2/2 1/1/1 4/4/4
f 5/5/5 6/6/6 2/2/2
f 5/5/5 2/2/2 4/4/4
f 5/5/5 4/4/4 7/7/7
f 5/5/5 7/7/7 6/6/6
f 7/7/7 4/4/4 8/8/8
f 7/7/7 8/8/8 9/9/9
f 9/9/9 8/8/8 10/10/10
f 6/6/6 7/7/7 11/11/11
f 11/11/11 7/7/7 9/9/9
f 6/6/6 11/11/11 12/12/12
f 9/9/9 10/10/10 13/13/13
f 9/9/9 13/13/13 14/14/14
f 11/11/11 9/9/9 15/15/15
f 15/15/15 9/9/9 14/14/14
f 14/14/14 13/13/13 16/16/16
f 14/14/14 16/16/16 15/15/15
f 16/16/16 13/13/13 17/17/17
f 16/16/16 17/17/17 18/18/18
f 16/16/16 18/18/18 19/19/19
f 16/16/16 19/19/19 15/15/15
f 15/15/15 19/19/19 20/20/20
f 21/21/21 11/11/11 15/15/15
f 21/21/21 15/15/15 20/20/20
f 11/11/11 21/21/21 12/12/12
f 21/21/21 20/20/20 22/22/22
f 12/12/12 21/21/21 23/23/23
f 12/12/12 23/23/23 24/24/24
f 21/21/21 22/22/22 25/25/25
f 21/21/21 25/25/25 23/23/23
f 25/25/25 22/22/22 26/26/18
f 25/25/25 26/26/18 27/27/26
f 25/25/25 27/27/26 28/28/27
f 25/25/25 28/28/27 23/23/23
f 28/28/27 27/27/26 29/29/28
f 30/30/29 24/24/24 23/23/23
f 28/28/27 29/29/28 31/31/30
f 24/24/24 30/30/29 32/32/31
f 31/31/30 29/29/28 33/33/32
f 24/24/24 32/32/31 34/34/33
f 30/30/29 23/23/23 35/35/34
f 30/30/29 35/35/34 32/32/31
f 36/36/35 23/23/23 28/28/27
f 23/23/23 36/36/35 35/35/34
f 37/37/36 28/28/27 31/31/30
f 28/28/27 37/37/36 36/36/35
f 35/35/34 36/36/35 38/38/37
f 32/32/31 35/35/34 39/39/38
f 40/40/39 34/34/33 32/32/31
f 40/40/39 32/32/31 39/39/38
f 34/34/33 40/40/39 41/41/40
f 34/34/33 41/41/40 42/42/41
f 35/35/34 38/38/37 43/43/42
f 35/35/34 43/43/42 39/39/38
f 39/39/38 43/43/42 44/44/43
f 40/40/39 39/39/38 45/45/44
f 39/39/38 44/44/43 46/46/45
f 39/39/38 46/46/45 45/45/44
f 44/44/43 43/43/42 47/47/46
f 44/44/43 47/47/46 48/48/47
f 47/47/46 43/43/42 49/49/48
f 49/49/48 43/43/42 38/38/37
f 48/48/47 47/47/46 50/50/49
f 47/47/46 49/49/48 51/51/50
f 47/47/46 51/51/50 50/50/49
f 51/51/50 49/49/48 52/52/51
f 48/48/47 50/50/49 53/53/52
f 48/48/47 53/53/52 44/44/43
f 53/53/52 50/50/49 54/54/53
f 44/44/43 53/53/52 46/46/45
f 53/53/52 54/54/53 55/55/54
f 52/52/51 49/49/48 56/56/55
f 56/56/55 49/49/48 38/38/37
f 52/52/51 56/56/55 57/57/56
f 53/53/52 55/55/54 58/58/57
f 53/53/52 58/58/57 46/46/45
f 58/58/57 55/55/54 59/59/58
f 57/57/56 56/56/55 60/60/59
f 60/60/59 56/56/55 38/38/37
f 57/57/56 60/60/59 61/61/60
f 58/58/57 59/59/58 62/62/61
f 58/58/57 62/62/61 46/46/45
f 62/62/61 59/59/58 63/63/62
f 61/61/60 60/60/59 64/64/63
f 61/61/60 64/64/63 65/65/64
f 60/60/59 38/38/37 66/66/65
f 60/60/59 66/66/65 64/64/63
f 66/66/65 38/38/37 36/36/35
f 65/65/64 64/64/63 67/67/66
f 67/67/66 64/64/63 66/66/65
f 65/65/64 67/67/66 68/68/3
f 66/66/65 36/36/35 69/69/67
f 66/66/65 69/69/67 67/67/66
f 69/69/67 36/36/35 37/37/36
f 68/68/3 67/67/66 70/70/68
f 70/70/68 67/67/66 69/69/67
f 68/68/3 70/70/68 71/71/1
f 71/71/1 70/70/68 72/72/4
f 70/70/68 69/69/67 73/73/69
f 70/70/68 73/73/69 72/72/4
f 73/73/69 69/69/67 37/37/36
f 72/72/4 73/73/69 74/74/8
f 74/74/8 73/73/69 75/75/70
f 75/75/70 73/73/69 37/37/36
f 74/74/8 75/75/70 76/76/10
f 75/75/70 37/37/36 77/77/71
f 75/75/70 77/77/71 76/76/10
f 77/77/71 37/37/36 31/31/30
f 76/76/10 77/77/71 78/78/13
f 77/77/71 31/31/30 79/79/72
f 77/77/71 79/79/72 78/78/13
f 79/79/72 31/31/30 80/80/73
f 79/79/72 80/80/73 78/78/13
f 80/80/73 31/31/30 33/33/32
f 78/78/13 80/80/73 81/81/17
f 81/81/17 80/80/73 33/33/32
f 81/81/17 33/33/32 82/82/18
f 83/83/74 84/84/75 85/85/76
f 85/85/76 84/84/75 86/86/77
f 83/83/74 85/85/76 87/87/78
f 85/85/76 86/86/77 88/88/79
f 88/88/79 86/86/77 89/89/80
f 87/87/78 85/85/76 90/90/81
f 90/90/81 85/85/76 88/88/79
f 87/87/78 90/90/81 91/91/82
f 91/91/82 90/90/81 88/88/79
f 87/87/78 91/91/82 92/92/83
f 92/92/83 91/91/82 93/93/84
f 93/93/84 91/91/82 94/94/85
f 93/93/84 94/94/85 95/95/86
f 93/93/84 95/95/86 96/96/87
f 94/94/85 91/91/82 97/97/88
f 97/97/88 91/91/82 88/88/79
f 94/94/85 97/97/88 95/95/86
f 96/96/87 95/95/86 98/98/89
f 97/97/88 88/88/79 99/99/90
f 99/99/90 88/88/79 89/89/80
f 95/95/86 97/97/88 100/100/91
f 100/100/91 97/97/88 99/99/90
f 98/98/89 95/95/86 101/101/92
f 101/101/92 95/95/86 100/100/91
f 98/98/89 101/101/92 102/102/93
f 102/102/93 101/101/92 103/103/94
f 103/103/94 101/101/92 100/100/91
f 102/102/93 103/103/94 104/104/95
f 104/104/95 103/103/94 105/105/96
f 103/103/94 100/100/91 106/106/97
f 103/103/94 106/106/97 105/105/96
f 106/106/97 100/100/91 99/99/90
f 104/104/95 105/105/96 107/107/98
f 107/107/98 105/105/96 106/106/97
f 104/104/95 107/107/98 108/108/99
f 108/108/99 107/107/98 109/109/100
f 109/109/100 107/107/98 110/110/101
f 110/110/101 107/107/98 106/106/97
f 109/109/100 110/110/101 18/111/102
f 18/111/102 110/110/101 19/112/103
f 19/112/103 110/110/101 20/113/104
f 20/113/104 110/110/101 106/106/97
f 20/113/104 106/106/97 22/114/105
f 22/114/105 106/106/97 99/99/90
f 22/114/105 99/99/90 111/115/106
f 22/114/105 111/115/106 26/116/107
f 111/115/106 99/99/90 89/89/80
f 26/116/107 111/115/106 27/117/108
f 111/115/106 89/89/80 112/118/109
f 112/118/109 89/89/80 113/119/110
f 27/117/108 111/115/106 114/120/111
f 111/115/106 112/118/109 115/121/112
f 111/115/106 115/121/112 114/120/111
f 112/118/109 113/119/110 116/122/113
f 112/118/109 116/122/113 117/123/114
f 112/118/109 117/123/114 115/121/112
f 116/122/113 113/119/110 118/124/115
f 116/122/113 118/124/115 117/123/114
f 118/124/115 113/119/110 119/125/116
f 118/124/115 119/125/116 120/126/117
f 118/124/115 120/126/117 121/127/118
f 118/124/115 121/127/118 122/128/119
f 117/123/114 118/124/115 123/129/120
f 123/129/120 118/124/115 122/128/119
f 122/128/119 121/127/118 124/130/121
f 117/123/114 123/129/120 125/131/122
f 123/129/120 122/128/119 126/132/123
f 127/133/124 115/121/112 117/123/114
f 127/133/124 117/123/114 125/131/122
f 115/121/112 127/133/124 128/134/125
f 122/128/119 124/130/121 129/135/126
f 115/121/112 128/134/125 130/136/127
f 122/128/119 129/135/126 131/137/128
f 122/128/119 131/137/128 126/132/123
f 115/121/112 130/136/127 114/120/111
f 128/134/125 127/133/124 132/138/129
f 128/134/125 132/138/129 133/139/130
f 132/138/129 127/133/124 134/140/131
f 134/140/131 127/133/124 125/131/122
f 133/139/130 132/138/129 135/141/132
f 132/138/129 134/140/131 136/142/133
f 132/138/129 136/142/133 135/141/132
f 136/142/133 134/140/131 137/143/134
f 133/139/130 135/141/132 138/144/135
f 133/139/130 138/144/135 128/134/125
f 128/134/125 138/144/135 130/136/127
f 138/144/135 135/141/132 139/145/74
f 137/143/134 134/140/131 140/146/136
f 140/146/136 134/140/131 125/131/122
f 137/143/134 140/146/136 141/147/137
f 141/147/137 140/146/136 142/148/138
f 138/144/135 139/145/74 143/149/139
f 138/144/135 143/149/139 130/136/127
f 143/149/139 139/145/74 144/150/78
f 143/149/139 144/150/78 145/151/83
f 142/148/138 140/146/136 146/152/140
f 146/152/140 140/146/136 125/131/122
f 142/148/138 146/152/140 147/153/141
f 143/149/139 145/151/83 148/154/142
f 143/149/139 148/154/142 130/136/127
f 148/154/142 145/151/83 149/155/143
f 149/155/143 145/151/83 150/156/84
f 130/136/127 148/154/142 151/157/144
f 151/157/144 148/154/142 149/155/143
f 130/136/127 151/157/144 114/120/111
f 149/155/143 150/156/84 152/158/145
f 149/155/143 152/158/145 151/157/144
f 152/158/145 150/156/84 153/159/87
f 114/120/111 151/157/144 154/160/146
f 154/160/146 151/157/144 152/158/145
f 152/158/145 153/159/87 155/161/147
f 152/158/145 155/161/147 154/160/146
f 155/161/147 153/159/87 156/162/89
f 155/161/147 156/162/89 157/163/93
f 154/160/146 155/161/147 158/164/148
f 158/164/148 155/161/147 157/163/93
f 114/120/111 154/160/146 159/165/149
f 159/165/149 154/160/146 158/164/148
f 114/120/111 159/165/149 27/117/108
f 158/164/148 157/163/93 160/166/150
f 158/164/148 160/166/150 159/165/149
f 160/166/150 157/163/93 161/167/95
f 27/117/108 159/165/149 29/168/151
f 160/166/150 161/167/95 162/169/152
f 160/166/150 162/169/152 159/165/149
f 162/169/152 161/167/95 163/170/99
f 29/168/151 159/165/149 164/171/153
f 164/171/153 159/165/149 162/169/152
f 164/171/153 162/169/152 163/170/99
f 29/168/151 164/171/153 33/172/154
f 164/171/153 163/170/99 165/173/100
f 164/171/153 165/173/100 33/172/154
f 33/172/154 165/173/100 82/174/102
f 166/175/155 167/176/156 168/177/157
f 168/177/157 167/176/156 169/178/158
f 169/178/158 167/176/156 170/179/159
f 169/178/158 170/179/159 171/180/160
f 170/179/159 167/176/156 172/181/161
f 169/178/158 171/180/160 173/182/162
f 169/178/158 173/182/162 168/177/157
f 173/182/162 171/180/160 174/183/163
f 172/181/161 167/176/156 175/184/164
f 175/184/164 167/176/156 166/175/155
f 172/181/161 175/184/164 176/185/165
f 176/185/165 175/184/164 177/186/166
f 177/186/166 175/184/164 166/175/155
f 176/185/165 177/186/166 178/187/167
f 173/182/162 174/183/163 179/188/168
f 173/182/162 179/188/168 168/177/157
f 179/188/168 174/183/163 180/189/169
f 178/187/167 177/186/166 181/190/170
f 178/187/167 181/190/170 63/63/62
f 63/63/62 181/190/170 62/62/61
f 181/190/170 177/186/166 182/191/171
f 181/190/170 182/191/171 62/62/61
f 182/191/171 177/186/166 166/175/155
f 62/62/61 182/191/171 46/46/45
f 46/46/45 182/191/171 45/45/44
f 45/45/44 182/191/171 166/175/155
f 45/45/44 166/175/155 168/177/157
f 45/45/44 168/177/157 124/130/121
f 45/45/44 124/130/121 40/40/39
f 124/130/121 168/177/157 129/135/126
f 129/135/126 168/177/157 179/188/168
f 129/135/126 179/188/168 183/192/172
f 183/192/172 179/188/168 180/189/169
f 129/135/126 183/192/172 131/137/128
f 183/192/172 180/189/169 184/193/173
f 183/192/172 184/193/173 131/137/128
f 184/193/173 180/189/169 185/194/174
f 184/193/173 185/194/174 186/195/175
f 184/193/173 186/195/175 131/137/128
f 186/195/175 185/194/174 187/196/176
f 186/195/175 187/196/176 188/197/177
f 131/137/128 186/195/175 189/198/178
f 189/198/178 186/195/175 188/197/177
f 189/198/178 188/197/177 190/199/179
f 131/137/128 189/198/178 126/132/123
f 189/198/178 190/199/179 191/200/180
f 189/198/178 191/200/180 126/132/123
f 191/200/180 190/199/179 192/201/181
f 191/200/180 192/201/181 193/202/182
f 191/200/180 193/202/182 126/132/123
f 193/202/182 192/201/181 194/203/183
f 193/202/182 194/203/183 195/204/184
f 126/132/123 193/202/182 196/205/185
f 196/205/185 193/202/182 195/204/184
f 126/132/123 196/205/185 123/129/120
f 195/204/184 194/203/183 197/206/186
f 195/204/184 197/206/186 196/205/185
f 197/206/186 194/203/183 198/207/187
f 123/129/120 196/205/185 199/208/188
f 199/208/188 196/205/185 197/206/186
f 123/129/120 199/208/188 125/131/122
f 125/131/122 199/208/188 146/152/140
f 199/208/188 197/206/186 200/209/189
f 199/208/188 200/209/189 146/152/140
f 200/209/189 197/206/186 198/207/187
f 146/152/140 200/209/189 147/153/141
f 147/153/141 200/209/189 198/207/187
f 201/210/190 202/211/49 203/212/191
f 202/211/49 201/210/190 204/213/53
f 204/213/53 201/210/190 205/214/54
f 203/212/191 202/211/49 206/215/192
f 206/215/192 202/211/49 207/216/50
f 201/210/190 203/212/191 208/217/193
f 208/217/193 203/212/191 206/215/192
f 205/214/54 201/210/190 209/218/194
f 205/214/54 209/218/194 210/219/58
f 201/210/190 208/217/193 42/42/41
f 201/210/190 42/42/41 209/218/194
f 206/215/192 207/216/50 211/220/195
f 211/220/195 207/216/50 212/221/51
f 208/217/193 206/215/192 213/222/196
f 213/222/196 206/215/192 211/220/195
f 211/220/195 212/221/51 214/223/56
f 208/217/193 213/222/196 34/34/33
f 208/217/193 34/34/33 42/42/41
f 213/222/196 211/220/195 215/224/197
f 211/220/195 214/223/56 216/225/198
f 211/220/195 216/225/198 215/224/197
f 216/225/198 214/223/56 217/226/199
f 216/225/198 217/226/199 215/224/197
f 217/226/199 214/223/56 218/227/60
f 213/222/196 215/224/197 24/24/24
f 213/222/196 24/24/24 34/34/33
f 215/224/197 217/226/199 219/228/200
f 217/226/199 218/227/60 220/229/201
f 217/226/199 220/229/201 219/228/200
f 220/229/201 218/227/60 221/230/64
f 220/229/201 221/230/64 3/3/3
f 215/224/197 219/228/200 12/12/12
f 215/224/197 12/12/12 24/24/24
f 219/228/200 220/229/201 222/231/202
f 222/231/202 220/229/201 3/3/3
f 219/228/200 222/231/202 6/6/6
f 219/228/200 6/6/6 12/12/12
f 222/231/202 3/3/3 2/2/2
f 222/231/202 2/2/2 6/6/6
f 223/232/174 224/233/203 225/234/176
f 225/234/176 224/233/203 226/235/204
f 226/235/204 224/233/203 227/236/205
f 225/234/176 226/235/204 228/237/177
f 226/235/204 227/236/205 229/238/206
f 226/235/204 229/238/206 228/237/177
f 229/238/206 227/236/205 230/239/207
f 230/239/207 227/236/205 120/126/117
f 228/237/177 229/238/206 231/240/208
f 231/240/208 229/238/206 230/239/207
f 228/237/177 231/240/208 232/241/179
f 232/241/179 231/240/208 233/242/209
f 233/242/209 231/240/208 230/239/207
f 232/241/179 233/242/209 234/243/181
f 234/243/181 233/242/209 235/244/183
f 235/244/183 233/242/209 236/245/210
f 235/244/183 236/245/210 237/246/211
f 235/244/183 237/246/211 238/247/187
f 236/245/210 233/242/209 239/248/212
f 239/248/212 233/242/209 230/239/207
f 236/245/210 239/248/212 237/246/211
f 238/247/187 237/246/211 240/249/141
f 239/248/212 230/239/207 119/125/116
f 119/125/116 230/239/207 120/126/117
f 237/246/211 239/248/212 241/250/213
f 241/250/213 239/248/212 119/125/116
f 240/249/141 237/246/211 242/251/214
f 242/251/214 237/246/211 241/250/213
f 240/249/141 242/251/214 243/252/138
f 243/252/138 242/251/214 244/253/215
f 244/253/215 242/251/214 241/250/213
f 243/252/138 244/253/215 245/254/137
f 241/250/213 119/125/116 246/255/216
f 241/250/213 246/255/216 244/253/215
f 245/254/137 244/253/215 247/256/217
f 247/256/217 244/253/215 246/255/216
f 245/254/137 247/256/217 248/257/134
f 248/257/134 247/256/217 249/258/218
f 249/258/218 247/256/217 246/255/216
f 248/257/134 249/258/218 250/259/133
f 246/255/216 119/125/116 113/119/110
f 250/259/133 249/258/218 251/260/219
f 249/258/218 246/255/216 252/261/220
f 249/258/218 252/261/220 251/260/219
f 252/261/220 246/255/216 113/119/110
f 250/259/133 251/260/219 253/262/132
f 253/262/132 251/260/219 84/84/75
f 253/262/132 84/84/75 83/83/74
f 251/260/219 252/261/220 86/86/77
f 251/260/219 86/86/77 84/84/75
f 86/86/77 252/261/220 89/89/80
f 89/89/80 252/261/220 113/119/110
f 254/263/221 210/219/58 209/218/194
f 254/263/221 209/218/194 42/42/41
f 210/219/58 254/263/221 255/264/222
f 210/219/58 255/264/222 256/265/62
f 256/265/62 255/264/222 257/266/167
f 254/263/221 42/42/41 258/267/223
f 254/263/221 258/267/223 255/264/222
f 258/267/223 42/42/41 41/41/40
f 257/266/167 255/264/222 259/268/224
f 259/268/224 255/264/222 258/267/223
f 257/266/167 259/268/224 260/269/165
f 258/267/223 41/41/40 261/270/225
f 258/267/223 261/270/225 259/268/224
f 260/269/165 259/268/224 262/271/226
f 262/271/226 259/268/224 261/270/225
f 260/269/165 262/271/226 263/272/161
f 262/271/226 261/270/225 264/273/227
f 262/271/226 264/273/227 263/272/161
f 261/270/225 41/41/40 265/274/228
f 261/270/225 265/274/228 264/273/227
f 263/272/161 264/273/227 266/275/229
f 266/275/229 264/273/227 265/274/228
f 263/272/161 266/275/229 267/276/159
f 267/276/159 266/275/229 268/277/160
f 268/277/160 266/275/229 269/278/230
f 269/278/230 266/275/229 265/274/228
f 268/277/160 269/278/230 270/279/231
f 270/279/231 269/278/230 265/274/228
f 268/277/160 270/279/231 271/280/163
f 272/281/232 265/274/228 41/41/40
f 272/281/232 41/41/40 40/40/39
f 270/279/231 265/274/228 273/282/233
f 273/282/233 265/274/228 272/281/232
f 271/280/163 270/279/231 274/283/234
f 274/283/234 270/279/231 273/282/233
f 271/280/163 274/283/234 275/284/235
f 275/284/235 274/283/234 223/232/174
f 272/281/232 40/40/39 276/285/236
f 276/285/236 40/40/39 124/130/121
f 272/281/232 276/285/236 121/127/118
f 121/127/118 276/285/236 124/130/121
f 272/281/232 121/127/118 120/126/117
f 272/281/232 120/126/117 273/282/233
f 274/283/234 273/282/233 227/236/205
f 227/236/205 273/282/233 120/126/117
f 223/232/174 274/283/234 224/233/203
f 224/233/203 274/283/234 227/236/205
f 50/286/237 277/287/238 54/288/239
f 54/288/239 277/287/238 55/289/240
f 277/287/238 50/286/237 278/290/238
f 278/290/238 50/286/237 51/291/241
f 55/289/240 277/287/238 279/292/238
f 55/289/240 279/292/238 59/293/242
f 59/293/242 279/292/238 63/294/243
f 278/290/238 51/291/241 280/295/244
f 280/295/244 51/291/241 52/296/245
f 280/295/244 52/296/245 57/297/246
f 278/290/238 280/295/244 281/298/247
f 281/298/247 280/295/244 57/297/246
f 278/290/238 281/298/247 277/287/238
f 281/298/247 57/297/246 61/299/248
f 281/298/247 61/299/248 65/300/249
f 281/298/247 65/300/249 68/301/250
f 277/287/238 281/298/247 282/302/247
f 282/302/247 281/298/247 68/301/250
f 277/287/238 282/302/247 279/292/238
f 282/302/247 68/301/250 71/303/251
f 283/304/252 63/294/243 279/292/238
f 283/304/252 279/292/238 282/302/247
f 63/294/243 283/304/252 178/305/253
f 282/302/247 71/303/251 284/306/254
f 282/302/247 284/306/254 283/304/252
f 284/306/254 71/303/251 72/307/255
f 178/305/253 283/304/252 176/308/256
f 284/306/254 72/307/255 74/309/257
f 284/306/254 74/309/257 285/310/254
f 284/306/254 285/310/254 283/304/252
f 285/310/254 74/309/257 76/311/258
f 285/310/254 76/311/258 78/312/259
f 285/310/254 78/312/259 81/313/260
f 176/308/256 283/304/252 286/314/252
f 286/314/252 283/304/252 285/310/254
f 176/308/256 286/314/252 172/315/261
f 172/315/261 286/314/252 170/316/262
f 285/310/254 81/313/260 287/317/263
f 285/310/254 287/317/263 286/314/252
f 287/317/263 81/313/260 82/318/264
f 170/316/262 286/314/252 288/319/265
f 288/319/265 286/314/252 287/317/263
f 170/316/262 288/319/265 171/320/266
f 171/320/266 288/319/265 174/321/267
f 174/321/267 288/319/265 180/322/268
f 180/322/268 288/319/265 289/323/269
f 289/323/269 288/319/265 287/317/263
f 180/322/268 289/323/269 185/324/270
f 290/325/263 287/317/263 82/318/264
f 287/317/263 290/325/263 289/323/269
f 290/325/263 82/318/264 165/326/271
f 290/325/263 165/326/271 163/327/272
f 290/325/263 163/327/272 161/328/273
f 290/325/263 161/328/273 291/329/274
f 290/325/263 291/329/274 289/323/269
f 291/329/274 161/328/273 157/330/275
f 292/331/269 185/324/270 289/323/269
f 292/331/269 289/323/269 291/329/274
f 185/324/270 292/331/269 187/332/276
f 187/332/276 292/331/269 188/333/277
f 188/333/277 292/331/269 190/334/278
f 291/329/274 157/330/275 293/335/279
f 291/329/274 293/335/279 292/331/269
f 293/335/279 157/330/275 156/336/280
f 293/335/279 156/336/280 153/337/281
f 293/335/279 153/337/281 150/338/282
f 190/334/278 292/331/269 294/339/283
f 294/339/283 292/331/269 293/335/279
f 190/334/278 294/339/283 192/340/284
f 192/340/284 294/339/283 194/341/285
f 293/335/279 150/338/282 295/342/279
f 293/335/279 295/342/279 294/339/283
f 295/342/279 150/338/282 145/343/286
f 194/341/285 294/339/283 296/344/283
f 296/344/283 294/339/283 295/342/279
f 194/341/285 296/344/283 198/345/287
f 295/342/279 145/343/286 297/346/279
f 295/342/279 297/346/279 296/344/283
f 297/346/279 145/343/286 144/347/288
f 297/346/279 144/347/288 139/348/289
f 297/346/279 139/348/289 135/349/290
f 198/345/287 296/344/283 298/350/291
f 298/350/291 296/344/283 297/346/279
f 198/345/287 298/350/291 147/351/292
f 147/351/292 298/350/291 142/352/293
f 142/352/293 298/350/291 141/353/294
f 297/346/279 135/349/290 299/354/295
f 297/346/279 299/354/295 298/350/291
f 299/354/295 135/349/290 136/355/296
f 141/353/294 298/350/291 300/356/291
f 300/356/291 298/350/291 299/354/295
f 300/356/291 299/354/295 136/355/296
f 141/353/294 300/356/291 137/357/297
f 137/357/297 300/356/291 136/355/296
