# CS2 body mesh, tools/cs2_glb_to_obj.py
v 0.03812 0.09579 -0.26774
v 0.03763 0.09331 -0.2684
v 0.03812 0.10059 -0.26645
v 0.03763 0.10306 -0.26579
v 0.03689 0.09173 -0.26882
v 0.03689 0.10464 -0.26536
v 0.03602 0.09118 -0.26897
v 0.03602 0.10519 -0.26522
v 0.02892 0.09718 -0.30802
v 0.02884 0.09986 -0.3068
v 0.02885 0.09394 -0.30832
v 0.02873 0.09046 -0.30752
v 0.02874 0.08748 -0.30562
v 0.02891 0.10222 -0.30411
v 0.02877 0.08566 -0.30232
v 0.02885 0.10517 -0.29859
v 0.02983 0.08585 -0.29899
v 0.02903 0.10973 -0.2901
v 0.03109 0.1135 -0.28291
v 0.03244 0.08679 -0.29421
v 0.03453 0.11303 -0.27963
v 0.03491 0.08772 -0.29053
v 0.03839 0.08928 -0.28638
v 0.03839 0.11221 -0.27707
v 0.03602 0.1059 -0.26785
v 0.03689 0.10534 -0.268
v 0.03602 0.106 -0.26939
v 0.03689 0.10543 -0.26932
v 0.03602 0.10505 -0.27217
v 0.03763 0.10381 -0.2691
v 0.03763 0.10377 -0.26842
v 0.03812 0.10129 -0.26908
v 0.03763 0.10315 -0.27107
v 0.03689 0.10456 -0.27189
v 0.03602 0.10312 -0.27438
v 0.03689 0.10277 -0.27392
v 0.03602 0.10049 -0.27568
v 0.03763 0.10178 -0.27263
v 0.03812 0.09931 -0.27128
v 0.03812 0.09649 -0.27037
v 0.03763 0.09992 -0.27355
v 0.03689 0.10034 -0.27512
v 0.03602 0.09756 -0.27587
v 0.03689 0.09763 -0.2753
v 0.03763 0.09784 -0.27368
v 0.03602 0.09478 -0.27493
v 0.03763 0.09588 -0.27302
v 0.03689 0.09506 -0.27443
v 0.03763 0.09432 -0.27165
v 0.03763 0.09402 -0.27103
v 0.03689 0.09244 -0.27146
v 0.03689 0.09302 -0.27264
v 0.03602 0.09257 -0.27299
v 0.03602 0.09189 -0.2716
v 0.02482 0.11088 -0.26648
v 0.02953 0.11084 -0.26679
v 0.03074 0.11469 -0.27849
v 0.0248 0.11519 -0.27927
v 0.02478 0.10491 -0.25317
v 0.02478 0.11511 -0.28141
v 0.02977 0.10529 -0.25444
v 0.03138 0.11445 -0.28083
v 0.02477 0.11418 -0.28376
v 0.02487 0.10994 -0.29049
v 0.02485 0.10558 -0.29873
v 0.02484 0.10243 -0.30438
v 0.02479 0.10008 -0.30681
v 0.02483 0.0973 -0.30814
v 0.02478 0.09395 -0.30841
v 0.02479 0.09053 -0.30762
v 0.02477 0.08753 -0.30575
v 0.02482 0.08526 -0.30235
v 0.03839 0.10909 -0.26856
v 0.03839 0.10513 -0.2619
v 0.03839 0.10571 -0.26649
v 0.03839 0.10451 -0.26383
v 0.03839 0.106 -0.26939
v 0.03839 0.1023 -0.2619
v 0.03839 0.11231 -0.27444
v 0.03839 0.10266 -0.2598
v 0.03839 0.10505 -0.27217
v 0.03839 0.09952 -0.26095
v 0.03839 0.11254 -0.2758
v 0.03839 0.09946 -0.25888
v 0.03839 0.10312 -0.27438
v 0.03839 0.09659 -0.26114
v 0.03839 0.09548 -0.25936
v 0.03839 0.10049 -0.27568
v 0.03839 0.09396 -0.26244
v 0.03839 0.0926 -0.26112
v 0.03839 0.09756 -0.27587
v 0.03839 0.09202 -0.26465
v 0.03839 0.09478 -0.27493
v 0.03839 0.09042 -0.26402
v 0.03839 0.08811 -0.28486
v 0.03839 0.09108 -0.26743
v 0.03839 0.08768 -0.28309
v 0.03839 0.08881 -0.27294
v 0.03839 0.09257 -0.27299
v 0.03839 0.09137 -0.27033
v 0.03602 0.10571 -0.26649
v 0.03602 0.09137 -0.27033
v 0.03602 0.09108 -0.26743
v 0.03689 0.09165 -0.2675
v 0.03602 0.09202 -0.26465
v 0.03763 0.09326 -0.26772
v 0.03689 0.09252 -0.26494
v 0.03763 0.09393 -0.26575
v 0.03689 0.09431 -0.2629
v 0.03602 0.09396 -0.26244
v 0.03763 0.0953 -0.26419
v 0.03812 0.09777 -0.26554
v 0.03763 0.09716 -0.26327
v 0.03689 0.09674 -0.2617
v 0.03602 0.09659 -0.26114
v 0.03689 0.09945 -0.26152
v 0.03602 0.09952 -0.26095
v 0.03763 0.09923 -0.26314
v 0.03689 0.10201 -0.26239
v 0.03602 0.1023 -0.2619
v 0.03763 0.1012 -0.2638
v 0.03689 0.10405 -0.26418
v 0.03602 0.10451 -0.26383
v 0.03763 0.10276 -0.26517
v 0.03382 0.11395 -0.27729
v 0.03408 0.11388 -0.2787
v 0.03388 0.11048 -0.26755
v 0.03434 0.10534 -0.25749
v 0.03429 0.10217 -0.25523
v 0.03431 0.09852 -0.25443
v 0.02953 0.10176 -0.25179
v 0.02486 0.1014 -0.25084
v 0.02954 0.09766 -0.25083
v 0.02483 0.09745 -0.24995
v 0.02962 0.0934 -0.25176
v 0.02484 0.09326 -0.25083
v 0.02477 0.08985 -0.25351
v 0.0344 0.09444 -0.25519
v 0.02987 0.09023 -0.2543
v 0.03446 0.09129 -0.25724
v 0.0346 0.08914 -0.26114
v 0.02988 0.08839 -0.25821
v 0.02478 0.08812 -0.25762
v 0.03448 0.08738 -0.27126
v 0.02986 0.08651 -0.26967
v 0.02481 0.08629 -0.26908
v 0.03425 0.0861 -0.28388
v 0.03003 0.08499 -0.28419
v 0.02485 0.08463 -0.28385
v 0.0248 0.0845 -0.28941
v 0.03067 0.08511 -0.28913
v 0.0343 0.08636 -0.28777
v 0.02479 0.08456 -0.29376
v 0.02478 0.08477 -0.29839
vt 0.442122 0.961425
vt 0.444563 0.962889
vt 0.437727 0.958495
vt 0.435774 0.956542
vt 0.446516 0.963378
vt 0.434797 0.954588
vt 0.447493 0.962889
vt 0.434797 0.953612
vt 0.496323 0.97705
vt 0.494613 0.974609
vt 0.497055 0.980956
vt 0.496811 0.984863
vt 0.494858 0.988281
vt 0.49144 0.972167
vt 0.491195 0.990234
vt 0.486068 0.968261
vt 0.487289 0.989746
vt 0.477523 0.962401
vt 0.468734 0.958983
vt 0.481185 0.989257
vt 0.463363 0.95996
vt 0.475814 0.988769
vt 0.469466 0.987304
vt 0.45848 0.961425
vt 0.448225 0.970214
vt 0.448469 0.970702
vt 0.44969 0.970214
vt 0.44969 0.970702
vt 0.452376 0.971191
vt 0.449446 0.972167
vt 0.448714 0.972167
vt 0.449446 0.974609
vt 0.451399 0.973144
vt 0.452132 0.971679
vt 0.454573 0.973144
vt 0.454085 0.973144
vt 0.455794 0.975585
vt 0.452864 0.97412
vt 0.451643 0.976562
vt 0.450911 0.979492
vt 0.453841 0.976074
vt 0.455306 0.975585
vt 0.456038 0.978027
vt 0.45555 0.978027
vt 0.454085 0.978027
vt 0.455306 0.980956
vt 0.453352 0.97998
vt 0.454817 0.980468
vt 0.452132 0.981445
vt 0.451399 0.981933
vt 0.451888 0.983398
vt 0.453108 0.982421
vt 0.453352 0.98291
vt 0.452132 0.983886
vt 0.457503 0.942381
vt 0.455061 0.946776
vt 0.465072 0.955565
vt 0.469466 0.950682
vt 0.444563 0.933103
vt 0.471175 0.952147
vt 0.443098 0.938475
vt 0.466536 0.957518
vt 0.473373 0.953612
vt 0.480453 0.958983
vt 0.48851 0.964354
vt 0.494125 0.968749
vt 0.497055 0.970702
vt 0.499741 0.972655
vt 0.497299 0.976074
vt 0.499985 0.978515
vt 0.502426 0.974609
vt 0.502914 0.980468
vt 0.505356 0.97705
vt 0.506333 0.98291
vt 0.508774 0.979003
vt 0.512192 0.981445
vt 0.509262 0.985351
vt 0.448714 0.965331
vt 0.441389 0.970214
vt 0.446516 0.969237
vt 0.443587 0.970702
vt 0.449934 0.968749
vt 0.441389 0.973144
vt 0.45555 0.961425
vt 0.438948 0.973144
vt 0.453108 0.969726
vt 0.440413 0.976562
vt 0.457015 0.961425
vt 0.437971 0.976562
vt 0.45555 0.972167
vt 0.440657 0.97998
vt 0.438704 0.980956
vt 0.457015 0.975097
vt 0.442122 0.98291
vt 0.440657 0.984375
vt 0.457259 0.978515
vt 0.444807 0.984863
vt 0.456282 0.981445
vt 0.444075 0.986816
vt 0.467757 0.988769
vt 0.447981 0.985839
vt 0.465804 0.989746
vt 0.454329 0.988281
vt 0.454085 0.984375
vt 0.451155 0.985351
vt 0.445784 0.971191
vt 0.44969 0.984375
vt 0.447005 0.970702
vt 0.450911 0.984375
vt 0.448225 0.984375
vt 0.448225 0.983886
vt 0.445296 0.983886
vt 0.449446 0.983886
vt 0.448225 0.982421
vt 0.448958 0.982421
vt 0.448225 0.97998
vt 0.44554 0.983398
vt 0.446516 0.981933
vt 0.443587 0.981445
vt 0.443342 0.981933
vt 0.444807 0.980468
vt 0.446028 0.978027
vt 0.447005 0.975585
vt 0.444075 0.979003
vt 0.442366 0.979492
vt 0.441877 0.979492
vt 0.442366 0.976562
vt 0.441633 0.976562
vt 0.443831 0.97705
vt 0.443098 0.97412
vt 0.44261 0.97412
vt 0.444319 0.975097
vt 0.444807 0.972167
vt 0.444319 0.971679
vt 0.445784 0.973632
vt 0.446272 0.973144
vt 0.445784 0.971679
vt 0.461898 0.957518
vt 0.462874 0.958983
vt 0.457259 0.960936
vt 0.456038 0.95996
vt 0.45262 0.95117
vt 0.449934 0.955565
vt 0.44261 0.944334
vt 0.442854 0.950682
vt 0.439436 0.949217
vt 0.438948 0.942381
vt 0.43553 0.948241
vt 0.435041 0.941404
vt 0.438948 0.936033
vt 0.440168 0.93115
vt 0.430647 0.947752
vt 0.434797 0.935057
vt 0.435286 0.929685
vt 0.430403 0.935057
vt 0.430158 0.929685
vt 0.425275 0.930662
vt 0.430647 0.941404
vt 0.42674 0.948729
vt 0.426496 0.936521
vt 0.42674 0.942381
vt 0.423078 0.950194
vt 0.422346 0.944823
vt 0.4138 0.954588
vt 0.422101 0.937986
vt 0.420637 0.932615
vt 0.412824 0.949705
vt 0.40379 0.95996
vt 0.411359 0.944334
vt 0.409162 0.938963
vt 0.400616 0.956542
vt 0.397931 0.952635
vt 0.395245 0.947264
vt 0.390118 0.950682
vt 0.39378 0.956053
vt 0.397198 0.958495
vt 0.402326 0.961425
vt 0.401105 0.962889
vt 0.395001 0.961425
vt 0.390118 0.960936
vt 0.385968 0.953124
vt 0.384014 0.960936
vt 0.381817 0.955565
vt 0.380352 0.961913
vt 0.378155 0.958007
vt 0.43553 0.952635
vt 0.448225 0.961913
vt 0.43675 0.952147
vt 0.448225 0.960448
vt 0.438459 0.952635
vt 0.447249 0.958983
vt 0.441145 0.953612
vt 0.44554 0.95703
vn -0.0204 0.2337 -0.9721
vn 0.0012 0.2518 -0.9678
vn 0.9881 -0.0379 0.1494
vn 0.9999 -0.0169 0
vn 0.996 -0.0161 0.0882
vn 0.9994 -0.0333 0
vn 0.9999 -0.001 0.0159
vn 0.9846 0.0361 -0.1713
vn 0.998 0.035 -0.052
vn 0.923 0.1374 -0.3595
vn 0.9461 0.1529 -0.2856
vn 0.7513 0.2855 -0.595
vn 0.7884 0.2555 -0.5596
vn 0.6226 0.2865 -0.7282
vn 0.7282 0.2865 -0.6226
vn 0.6495 0.2871 -0.7041
vn 0.545 0.3117 -0.7784
vn 0.5168 0.8549 0.0457
vn 0.7069 0.7069 0.0239
vn 0.5444 0.8305 -0.1182
vn 0.7382 0.6678 -0.0954
vn 0.5376 0.7262 -0.4284
vn 0.9417 0.3337 -0.0425
vn 0.9446 0.3275 0.0215
vn 0.9883 0.1322 -0.076
vn 0.9484 0.2646 -0.175
vn 0.7391 0.5799 -0.3427
vn 0.5451 0.4914 -0.6793
vn 0.7262 0.4284 -0.5376
vn 0.5439 0.1996 -0.8151
vn 0.9484 0.175 -0.2646
vn 0.9919 0.0189 -0.1255
vn 0.9888 -0.0949 -0.1148
vn 0.9433 0.0858 -0.3206
vn 0.7205 0.1729 -0.6716
vn 0.5461 -0.1183 -0.8293
vn 0.7493 -0.1204 -0.6512
vn 0.9511 -0.0847 -0.2971
vn 0.5402 -0.4618 -0.7035
vn 0.9481 -0.1779 -0.2635
vn 0.7376 -0.3428 -0.5817
vn 0.9399 -0.2908 -0.1792
vn 0.9426 -0.3066 -0.1323
vn 0.7263 -0.6256 -0.2848
vn 0.7224 -0.5624 -0.4024
vn 0.5431 -0.6822 -0.4895
vn 0.5264 -0.7653 -0.3704
vn 0.0218 0.9346 0.3551
vn 0.0643 0.9383 0.3399
vn 0.1154 0.9866 0.1154
vn 0.0554 0.9924 0.1098
vn 0.0952 0.76 0.6429
vn 0.1028 0.9684 -0.2272
vn 0.2295 0.7605 0.6074
vn 0.2824 0.9168 -0.2824
vn 0.1914 0.8679 -0.4584
vn 0.1406 0.8709 -0.4709
vn 0.0918 0.8715 -0.4817
vn 0.0704 0.7912 -0.6074
vn 0.0463 0.8213 -0.5686
vn 0.0466 0.5941 -0.803
vn 0.0236 0.584 -0.8114
vn 0.0207 0.2565 -0.9663
vn 0.0172 -0.0871 -0.996
vn 0 -0.4221 -0.9065
vn 0.0225 -0.7283 -0.6848
vn 0 -0.7174 -0.6967
vn 0.0622 -0.9467 -0.316
vn 0.1285 -0.9585 -0.2544
vn 0.9999 -0.001 -0.0159
vn 0.9999 0.0149 0.001
vn 1 -0.001 0
vn 0.5466 -0.8287 0.1199
vn 0.739 -0.6671 0.0938
vn 0.5361 -0.7263 0.4302
vn 0.5179 -0.8543 -0.0443
vn 0.7076 -0.7062 -0.0225
vn 0.9408 -0.3364 0.0412
vn 0.9437 -0.3302 -0.0202
vn 0.9881 -0.1346 0.0749
vn 0.7379 -0.5803 0.3446
vn 0.948 -0.2648 0.1766
vn 0.725 -0.432 0.5363
vn 0.5433 -0.4913 0.6808
vn 0.9481 -0.1779 0.2635
vn 0.9918 -0.0166 0.1265
vn 0.989 0.0948 0.1135
vn 0.9428 -0.0858 0.3222
vn 0.7201 -0.1762 0.6711
vn 0.5446 -0.1962 0.8154
vn 0.7479 0.1204 0.6528
vn 0.5444 0.1182 0.8305
vn 0.947 0.0635 0.3148
vn 0.7391 0.3427 0.5799
vn 0.5415 0.4582 0.7048
vn 0.9484 0.175 0.2646
vn 0.7236 0.5621 0.4005
vn 0.5451 0.6793 0.4914
vn 0.9403 0.2905 0.1776
vn 0.9429 0.3062 0.1308
vn 0.7282 0.6226 0.2865
vn 0.5279 0.7651 0.3687
vn 0.0013 0.5236 0.852
vn 0.0011 0.143 0.9897
vn 0.0014 0.8169 0.5768
vn 0 -0.2515 0.9679
vn -0.0236 0.8092 0.5871
vn 0 -0.6009 0.7993
vn 0 -0.8514 0.5245
vn 0 -0.9896 0.1441
vn -0.0178 -0.9918 0.1266
vn -0.0172 -0.9959 -0.0883
vn -0.0194 -0.9661 -0.2576
vn 0 -0.9675 -0.2529
vn -0.0427 -0.9108 -0.4107
vn -0.0222 -0.8108 -0.5849
vn 0 -0.8184 -0.5746
vn 0 -0.523 -0.8523
vn 0 -0.1428 -0.9897
vn 0.0014 0.5985 -0.8011
vn 0.0013 0.852 -0.5236
vn 0.0011 0.9897 -0.143
vn -0.0189 0.9919 -0.1255
vn -0.0183 0.996 0.0872
vn -0.0207 0.9663 0.2565
vn 0.0012 0.9678 0.2518
vn -0.0441 0.9098 0.4128
vn 0.1872 0.9717 0.1439
vn 0.3559 0.9035 -0.2387
vn 0.4831 0.747 -0.4568
vn 0.4223 0.8644 -0.2729
vn 0.2978 0.9546 0.0012
vn 0.2062 0.9327 0.2959
vn 0.2146 0.9006 0.378
vn 0.3558 0.8418 0.406
vn 0.4619 0.7021 0.542
vn 0.542 0.7021 0.4619
vn 0.672 0.4065 0.6189
vn 0.5856 0.3723 0.7201
vn 0.7382 0.0954 0.6678
vn 0.6471 0.0469 0.7609
vn 0.3266 0.4009 0.8559
vn 0.1377 0.4161 0.8988
vn 0.7201 -0.2585 0.6439
vn 0.3863 0.0409 0.9215
vn 0.1644 -0.0011 0.9864
vn 0.383 -0.3814 0.8413
vn 0.1646 -0.4202 0.8924
vn 0.1217 -0.7701 0.6262
vn 0.6439 -0.2585 0.7201
vn 0.6808 -0.4913 0.5433
vn 0.3137 -0.7099 0.6306
vn 0.5757 -0.5807 0.5757
vn 0.4782 -0.8337 0.2763
vn 0.397 -0.8687 0.2962
vn 0.3876 -0.9115 0.1376
vn 0.2076 -0.9229 0.3242
vn 0.0613 -0.9546 0.2914
vn 0.3082 -0.9421 0.1325
vn 0.371 -0.9287 0
vn 0.1405 -0.9801 0.1405
vn 0.0561 -0.9868 0.1518
vn 0.3102 -0.9498 0.0407
vn 0.1518 -0.9868 0.0561
vn 0.0711 -0.9949 0.0711
vn 0.1492 -0.9881 -0.0367
vn 0.2299 -0.9649 -0.1266
vn 0.429 -0.8829 -0.191
vn 0.5464 -0.7781 -0.3099
vn 0.5926 -0.6969 -0.4039
vn 0.4853 -0.8524 -0.1947
vn 0.2914 -0.9546 -0.0613
vn 0.2529 -0.9675 0
vn 0.2321 -0.9725 0.0191
vn 0.1701 -0.9847 -0.0373
vn -0.0192 -0.2335 0.9722
o release__p0_c0
f 1/1/1 2/2/1 3/3/2
f 3/3/2 2/2/1 4/4/2
f 4/4/2 2/2/1 5/5/2
f 4/4/2 5/5/2 6/6/2
f 6/6/2 5/5/2 7/7/2
f 6/6/2 7/7/2 8/8/2
f 9/9/3 10/10/4 11/11/5
f 11/11/5 10/10/4 12/12/6
f 12/12/6 10/10/4 13/13/6
f 13/13/6 10/10/4 14/14/7
f 13/13/6 14/14/7 15/15/8
f 15/15/8 14/14/7 16/16/9
f 15/15/8 16/16/9 17/17/10
f 17/17/10 16/16/9 18/18/11
f 17/17/10 18/18/11 19/19/12
f 17/17/10 19/19/12 20/20/13
f 20/20/13 19/19/12 21/21/14
f 20/20/13 21/21/14 22/22/15
f 22/22/15 21/21/14 23/23/16
f 23/23/16 21/21/14 24/24/17
f 25/25/18 26/26/19 27/27/20
f 27/27/20 26/26/19 28/28/21
f 27/27/20 28/28/21 29/29/22
f 28/28/21 26/26/19 30/30/23
f 30/30/23 26/26/19 31/31/24
f 30/30/23 31/31/24 32/32/25
f 28/28/21 30/30/23 33/33/26
f 33/33/26 30/30/23 32/32/25
f 29/29/22 28/28/21 34/34/27
f 34/34/27 28/28/21 33/33/26
f 29/29/22 34/34/27 35/35/28
f 35/35/28 34/34/27 36/36/29
f 36/36/29 34/34/27 33/33/26
f 35/35/28 36/36/29 37/37/30
f 33/33/26 32/32/25 38/38/31
f 33/33/26 38/38/31 36/36/29
f 38/38/31 32/32/25 39/39/32
f 39/39/32 32/32/25 40/40/33
f 36/36/29 38/38/31 41/41/34
f 41/41/34 38/38/31 39/39/32
f 37/37/30 36/36/29 42/42/35
f 42/42/35 36/36/29 41/41/34
f 37/37/30 42/42/35 43/43/36
f 43/43/36 42/42/35 44/44/37
f 44/44/37 42/42/35 41/41/34
f 41/41/34 39/39/32 45/45/38
f 41/41/34 45/45/38 44/44/37
f 43/43/36 44/44/37 46/46/39
f 45/45/38 39/39/32 47/47/40
f 45/45/38 47/47/40 44/44/37
f 47/47/40 39/39/32 40/40/33
f 46/46/39 44/44/37 48/48/41
f 48/48/41 44/44/37 47/47/40
f 47/47/40 40/40/33 49/49/42
f 47/47/40 49/49/42 48/48/41
f 49/49/42 40/40/33 50/50/43
f 49/49/42 50/50/43 51/51/44
f 48/48/41 49/49/42 52/52/45
f 48/48/41 52/52/45 46/46/39
f 52/52/45 49/49/42 51/51/44
f 46/46/39 52/52/45 53/53/46
f 52/52/45 51/51/44 54/54/47
f 52/52/45 54/54/47 53/53/46
f 55/55/48 56/56/49 57/57/50
f 55/55/48 57/57/50 58/58/51
f 56/56/49 55/55/48 59/59/52
f 58/58/51 57/57/50 60/60/53
f 56/56/49 59/59/52 61/61/54
f 60/60/53 57/57/50 62/62/55
f 60/60/53 62/62/55 19/19/56
f 60/60/53 19/19/56 63/63/57
f 63/63/57 19/19/56 64/64/58
f 64/64/58 19/19/56 18/18/58
f 64/64/58 18/18/58 65/65/58
f 65/65/58 18/18/58 16/16/58
f 65/65/58 16/16/58 66/66/59
f 66/66/59 16/16/58 14/14/60
f 66/66/59 14/14/60 67/67/61
f 67/67/61 14/14/60 10/10/62
f 67/67/61 10/10/62 68/68/63
f 68/68/63 10/10/62 9/69/63
f 68/68/63 9/69/63 11/70/64
f 68/68/63 11/70/64 69/71/64
f 69/71/64 11/70/64 12/72/65
f 69/71/64 12/72/65 70/73/65
f 70/73/65 12/72/65 13/74/66
f 70/73/65 13/74/66 71/75/67
f 71/75/67 13/74/66 72/76/68
f 72/76/68 13/74/66 15/77/69
f 73/78/4 74/79/4 75/80/4
f 75/80/4 74/79/4 76/81/4
f 73/78/4 75/80/4 77/82/7
f 76/81/4 74/79/4 78/83/4
f 73/78/4 77/82/7 79/84/7
f 78/83/4 74/79/4 80/85/4
f 79/84/7 77/82/7 81/86/7
f 78/83/4 80/85/4 82/87/4
f 79/84/7 81/86/7 83/88/7
f 82/87/4 80/85/4 84/89/4
f 83/88/7 81/86/7 85/90/7
f 82/87/4 84/89/4 86/91/70
f 83/88/7 85/90/7 24/24/7
f 86/91/70 84/89/4 87/92/70
f 24/24/7 85/90/7 88/93/7
f 86/91/70 87/92/70 89/94/70
f 24/24/7 88/93/7 23/23/71
f 89/94/70 87/92/70 90/95/70
f 23/23/71 88/93/7 91/96/71
f 89/94/70 90/95/70 92/97/70
f 23/23/71 91/96/71 93/98/71
f 92/97/70 90/95/70 94/99/70
f 23/23/71 93/98/71 95/100/71
f 92/97/70 94/99/70 96/101/70
f 95/100/71 93/98/71 97/102/71
f 96/101/70 94/99/70 98/103/70
f 97/102/71 93/98/71 99/104/71
f 97/102/71 99/104/71 98/103/70
f 96/101/70 98/103/70 100/105/71
f 100/105/71 98/103/70 99/104/71
f 8/106/70 7/107/72 101/108/72
f 101/108/72 7/107/72 102/109/72
f 101/108/72 102/109/72 54/54/72
f 101/108/72 54/54/72 25/25/72
f 103/110/73 104/111/74 105/112/75
f 104/111/74 103/110/73 7/107/76
f 104/111/74 7/107/76 5/113/77
f 104/111/74 5/113/77 106/114/78
f 106/114/78 5/113/77 2/115/79
f 106/114/78 2/115/79 1/116/80
f 104/111/74 106/114/78 107/117/81
f 104/111/74 107/117/81 105/112/75
f 106/114/78 1/116/80 108/118/82
f 106/114/78 108/118/82 107/117/81
f 105/112/75 107/117/81 109/119/83
f 109/119/83 107/117/81 108/118/82
f 105/112/75 109/119/83 110/120/84
f 109/119/83 108/118/82 111/121/85
f 108/118/82 1/116/80 112/122/86
f 108/118/82 112/122/86 111/121/85
f 112/122/86 1/116/80 3/123/87
f 109/119/83 111/121/85 113/124/88
f 113/124/88 111/121/85 112/122/86
f 110/120/84 109/119/83 114/125/89
f 114/125/89 109/119/83 113/124/88
f 110/120/84 114/125/89 115/126/90
f 115/126/90 114/125/89 116/127/91
f 116/127/91 114/125/89 113/124/88
f 115/126/90 116/127/91 117/128/92
f 113/124/88 112/122/86 118/129/93
f 113/124/88 118/129/93 116/127/91
f 118/129/93 112/122/86 3/123/87
f 117/128/92 116/127/91 119/130/94
f 117/128/92 119/130/94 120/131/95
f 116/127/91 118/129/93 121/132/96
f 121/132/96 118/129/93 3/123/87
f 116/127/91 121/132/96 119/130/94
f 120/131/95 119/130/94 122/133/97
f 122/133/97 119/130/94 121/132/96
f 120/131/95 122/133/97 123/134/98
f 121/132/96 3/123/87 124/135/99
f 121/132/96 124/135/99 122/133/97
f 124/135/99 3/123/87 4/136/100
f 124/135/99 4/136/100 6/137/101
f 124/135/99 6/137/101 122/133/97
f 122/133/97 6/137/101 123/134/98
f 123/134/98 6/137/101 8/106/102
f 46/46/103 93/98/103 43/43/104
f 43/43/104 93/98/103 91/96/104
f 93/98/103 46/46/103 99/104/105
f 43/43/104 91/96/104 37/37/106
f 99/104/105 46/46/103 53/53/107
f 37/37/106 91/96/104 88/93/106
f 37/37/106 88/93/106 35/35/108
f 35/35/108 88/93/106 85/90/108
f 35/35/108 85/90/108 29/29/109
f 29/29/109 85/90/108 81/86/109
f 29/29/109 81/86/109 27/27/110
f 27/27/110 81/86/109 77/82/111
f 27/27/110 77/82/111 25/25/112
f 25/25/112 77/82/111 75/80/113
f 25/25/112 75/80/113 101/108/114
f 101/108/114 75/80/113 8/106/115
f 8/106/115 75/80/113 123/134/116
f 123/134/116 75/80/113 76/81/117
f 123/134/116 76/81/117 120/131/118
f 120/131/118 76/81/117 78/83/118
f 120/131/118 78/83/118 117/128/119
f 117/128/119 78/83/118 82/87/119
f 117/128/119 82/87/119 115/126/2
f 115/126/2 82/87/119 86/91/2
f 115/126/2 86/91/2 110/120/120
f 110/120/120 86/91/2 89/94/120
f 110/120/120 89/94/120 105/112/121
f 105/112/121 89/94/120 92/97/121
f 105/112/121 92/97/121 103/110/122
f 103/110/122 92/97/121 96/101/123
f 103/110/122 96/101/123 7/107/124
f 7/107/124 96/101/123 100/105/125
f 7/107/124 100/105/125 102/109/126
f 102/109/126 100/105/125 54/54/127
f 54/54/127 100/105/125 53/53/107
f 53/53/107 100/105/125 99/104/105
f 125/138/128 57/57/50 56/56/49
f 57/57/50 125/138/128 126/139/129
f 57/57/50 126/139/129 62/62/55
f 62/62/55 126/139/129 21/21/130
f 62/62/55 21/21/130 19/19/56
f 21/21/130 126/139/129 24/24/131
f 24/24/131 126/139/129 83/140/132
f 83/140/132 126/139/129 125/138/128
f 83/140/132 125/138/128 79/141/133
f 127/142/134 125/138/128 56/56/49
f 125/138/128 127/142/134 79/141/133
f 79/141/133 127/142/134 73/143/135
f 127/142/134 56/56/49 61/61/54
f 73/143/135 127/142/134 128/144/136
f 128/144/136 127/142/134 61/61/54
f 73/143/135 128/144/136 74/145/137
f 74/145/137 128/144/136 80/146/138
f 80/146/138 128/144/136 129/147/139
f 129/147/139 128/144/136 61/61/54
f 80/146/138 129/147/139 84/148/140
f 84/148/140 129/147/139 130/149/141
f 129/147/139 61/61/54 131/150/142
f 129/147/139 131/150/142 130/149/141
f 131/150/142 61/61/54 59/59/52
f 131/150/142 59/59/52 132/151/143
f 84/148/140 130/149/141 87/152/144
f 131/150/142 132/151/143 133/153/145
f 131/150/142 133/153/145 130/149/141
f 133/153/145 132/151/143 134/154/146
f 133/153/145 134/154/146 135/155/147
f 133/153/145 135/155/147 130/149/141
f 135/155/147 134/154/146 136/156/148
f 135/155/147 136/156/148 137/157/149
f 138/158/150 87/152/144 130/149/141
f 138/158/150 130/149/141 135/155/147
f 87/152/144 138/158/150 90/159/151
f 135/155/147 137/157/149 139/160/152
f 135/155/147 139/160/152 138/158/150
f 90/159/151 138/158/150 140/161/153
f 140/161/153 138/158/150 139/160/152
f 90/159/151 140/161/153 94/162/154
f 94/162/154 140/161/153 141/163/155
f 141/163/155 140/161/153 139/160/152
f 94/162/154 141/163/155 98/164/156
f 142/165/157 139/160/152 137/157/149
f 139/160/152 142/165/157 141/163/155
f 142/165/157 137/157/149 143/166/158
f 98/164/156 141/163/155 144/167/159
f 144/167/159 141/163/155 142/165/157
f 98/164/156 144/167/159 97/168/160
f 142/165/157 143/166/158 145/169/161
f 142/165/157 145/169/161 144/167/159
f 145/169/161 143/166/158 146/170/162
f 97/168/160 144/167/159 147/171/163
f 147/171/163 144/167/159 145/169/161
f 145/169/161 146/170/162 148/172/164
f 145/169/161 148/172/164 147/171/163
f 148/172/164 146/170/162 149/173/165
f 148/172/164 149/173/165 150/174/166
f 147/171/163 148/172/164 151/175/167
f 151/175/167 148/172/164 150/174/166
f 97/168/160 147/171/163 152/176/168
f 152/176/168 147/171/163 151/175/167
f 97/168/160 152/176/168 95/177/169
f 95/177/169 152/176/168 23/178/170
f 23/178/170 152/176/168 22/179/171
f 22/179/171 152/176/168 151/175/167
f 22/179/171 151/175/167 20/180/172
f 20/180/172 151/175/167 150/174/166
f 20/180/172 150/174/166 153/181/173
f 20/180/172 153/181/173 17/182/174
f 17/182/174 153/181/173 154/183/175
f 17/182/174 154/183/175 15/184/69
f 15/184/69 154/183/175 72/185/68
f 25/186/106 54/187/106 26/188/106
f 26/188/106 54/187/106 51/189/106
f 26/188/106 51/189/106 31/190/106
f 31/190/106 51/189/106 50/191/176
f 31/190/106 50/191/176 32/192/106
f 32/192/106 50/191/176 40/193/176
