# CS2 body mesh, tools/cs2_glb_to_obj.py
v -0.01483 0.06492 0.46445
v -0.01615 0.06931 0.46445
v -0.01773 0.06932 0.46445
v -0.01856 0.069 0.46445
v -0.01962 0.06808 0.46445
v -0.02007 0.06727 0.46445
v -0.02058 0.06305 0.46445
v -0.0148 0.06056 0.46445
v -0.02146 0.05916 0.46445
v -0.01483 0.05751 0.46445
v -0.02279 0.05669 0.46445
v -0.0175 0.05558 0.46445
v -0.0241 0.05463 0.46445
v -0.01917 0.05395 0.46445
v -0.02558 0.05253 0.46445
v -0.02035 0.05231 0.46445
v -0.02665 0.05081 0.46445
v -0.0212 0.05096 0.46445
v -0.02745 0.04858 0.46445
v -0.02183 0.0492 0.46445
v -0.0295 0.0434 0.46445
v -0.02346 0.04515 0.46445
v -0.03056 0.03871 0.46445
v -0.02431 0.04147 0.46445
v -0.0311 0.03333 0.46445
v -0.02474 0.03724 0.46445
v -0.03101 0.02923 0.46445
v -0.02466 0.03402 0.46445
v -0.0304 0.02554 0.46445
v -0.02418 0.03112 0.46445
v -0.02966 0.02156 0.46445
v -0.02359 0.028 0.46445
v -0.02735 0.01605 0.46445
v -0.02175 0.02368 0.46445
v -0.02309 0.01037 0.46445
v -0.01837 0.01922 0.46445
v -0.01881 0.00686 0.46445
v -0.01496 0.01647 0.46445
v -0.01235 0.00436 0.46445
v -0.00982 0.0145 0.46445
v -0.00604 0.00303 0.46445
v -0.00481 0.01346 0.46445
v 0 0.0027 0.46445
v 0 0.0132 0.46445
v 0.00604 0.00303 0.46445
v 0.00481 0.01346 0.46445
v 0.01235 0.00436 0.46445
v 0.00982 0.0145 0.46445
v 0.01881 0.00686 0.46445
v 0.01496 0.01647 0.46445
v 0.02309 0.01037 0.46445
v 0.01837 0.01922 0.46445
v 0.02735 0.01605 0.46445
v 0.02175 0.02368 0.46445
v 0.02966 0.02156 0.46445
v 0.02359 0.028 0.46445
v 0.0304 0.02554 0.46445
v 0.02418 0.03112 0.46445
v 0.03101 0.02923 0.46445
v 0.02467 0.03402 0.46445
v 0.0311 0.03333 0.46445
v 0.02474 0.03724 0.46445
v 0.03056 0.03871 0.46445
v 0.02431 0.04147 0.46445
v 0.0295 0.0434 0.46445
v 0.02346 0.04515 0.46445
v 0.02745 0.04858 0.46445
v 0.02184 0.0492 0.46445
v 0.02665 0.05081 0.46445
v 0.0212 0.05096 0.46445
v 0.02558 0.05253 0.46445
v 0.02035 0.05231 0.46445
v 0.0241 0.05463 0.46445
v 0.01917 0.05395 0.46445
v 0.02279 0.05669 0.46445
v 0.01737 0.05558 0.46445
v 0.02146 0.05916 0.46445
v 0.01478 0.05751 0.46445
v 0.02058 0.06305 0.46445
v 0.01482 0.06056 0.46445
v 0.02007 0.06727 0.46445
v 0.01478 0.06492 0.46445
v 0.01962 0.06808 0.46445
v 0.01856 0.069 0.46445
v 0.01773 0.06932 0.46445
v 0.01615 0.06931 0.46445
v 0.01946 0.07017 0.46351
v 0.01863 0.0705 0.4635
v 0.02086 0.07189 0.46077
v 0.01616 0.07265 0.17819
v 0.01616 0.07265 0.45758
v 0.02038 0.07266 0.17819
v 0.02038 0.07266 0.45758
v 0.02004 0.07221 0.17498
v 0.02004 0.07221 0.46079
v 0.01616 0.07215 0.17488
v 0.01616 0.07215 0.46089
v 0.01863 0.0705 0.17227
v 0.01616 0.07054 0.46341
v 0.01616 0.07053 0.17236
v 0.01773 0.06932 0.17132
v 0.01615 0.06931 0.17132
v 0.01946 0.07017 0.17226
v 0.01856 0.069 0.17132
v 0.02086 0.07189 0.175
v 0.02121 0.07234 0.17819
v 0.02121 0.07234 0.45758
v 0.02221 0.07142 0.17819
v 0.02186 0.07099 0.17499
v 0.02052 0.06923 0.17226
v 0.01962 0.06808 0.17132
v 0.02221 0.07142 0.45758
v 0.02264 0.0706 0.17819
v 0.02186 0.07099 0.46078
v 0.02264 0.0706 0.45758
v 0.02052 0.06923 0.46351
v 0.02228 0.07017 0.46079
v 0.02098 0.06843 0.46349
v 0.02166 0.06336 0.46336
v 0.02294 0.0637 0.46094
v 0.02248 0.05968 0.46336
v 0.02374 0.05736 0.46338
v 0.02367 0.06031 0.46094
v 0.02338 0.06382 0.45758
v 0.02338 0.06382 0.17819
v 0.02502 0.05534 0.46338
v 0.02488 0.05819 0.46092
v 0.02407 0.06052 0.45758
v 0.02407 0.06052 0.17819
v 0.02648 0.05324 0.46334
v 0.02616 0.0562 0.46092
v 0.02527 0.05847 0.45758
v 0.02527 0.05847 0.17819
v 0.02761 0.05144 0.46334
v 0.02752 0.05402 0.46096
v 0.02653 0.05648 0.45758
v 0.02654 0.05648 0.17819
v 0.02848 0.04913 0.46341
v 0.02866 0.05219 0.46096
v 0.02788 0.05429 0.45758
v 0.02788 0.05429 0.17819
v 0.03055 0.04388 0.4634
v 0.02981 0.04993 0.46088
v 0.02903 0.05245 0.45758
v 0.02903 0.05245 0.17819
v 0.03164 0.03901 0.46332
v 0.03196 0.0445 0.46088
v 0.03023 0.05018 0.45758
v 0.03023 0.05018 0.17819
v 0.03217 0.03341 0.4632
v 0.03308 0.03939 0.4606
v 0.0324 0.0447 0.45758
v 0.0324 0.0447 0.17819
v 0.03204 0.02907 0.4631
v 0.03358 0.03349 0.46019
v 0.03352 0.03951 0.4571
v 0.03352 0.03951 0.17867
v 0.03138 0.02518 0.46299
v 0.0334 0.02877 0.45978
v 0.03402 0.03349 0.45627
v 0.03402 0.03349 0.1795
v 0.03057 0.02092 0.46285
v 0.03266 0.02457 0.45935
v 0.03381 0.02863 0.4554
v 0.03381 0.02863 0.18037
v -0.02761 0.05144 0.46334
v -0.02648 0.05324 0.46334
v -0.02502 0.05534 0.46338
v -0.02752 0.05402 0.46096
v -0.02616 0.0562 0.46092
v -0.02373 0.05736 0.46338
v -0.02488 0.05819 0.46092
v -0.02653 0.05648 0.45758
v -0.02527 0.05847 0.45758
v -0.02248 0.05968 0.46336
v -0.02367 0.06031 0.46094
v -0.02407 0.06052 0.45758
v -0.02166 0.06336 0.46336
v -0.02294 0.0637 0.46094
v -0.02338 0.06382 0.45758
v -0.02098 0.06843 0.46349
v -0.02228 0.07017 0.46079
v -0.02052 0.06923 0.46351
v -0.02264 0.0706 0.45758
v -0.02186 0.07099 0.46078
v -0.01946 0.07017 0.46351
v -0.01616 0.07054 0.46341
v -0.01862 0.0705 0.4635
v -0.01616 0.07215 0.46089
v -0.02086 0.07189 0.46077
v -0.02004 0.07221 0.46079
v -0.01616 0.07265 0.45758
v -0.02221 0.07142 0.45758
v -0.02121 0.07234 0.45758
v -0.02038 0.07266 0.45758
v -0.02038 0.07266 0.17819
v -0.01616 0.07265 0.17819
v -0.02121 0.07234 0.17819
v -0.02221 0.07142 0.17819
v -0.02004 0.07221 0.17498
v -0.01616 0.07215 0.17488
v -0.02264 0.0706 0.17819
v -0.02086 0.07189 0.175
v -0.01862 0.0705 0.17227
v -0.01616 0.07053 0.17236
v -0.01773 0.06932 0.17132
v -0.01615 0.06931 0.17132
v -0.01946 0.07017 0.17226
v -0.01856 0.069 0.17132
v -0.02186 0.07099 0.17499
v -0.02052 0.06923 0.17226
v -0.01962 0.06808 0.17132
v -0.02228 0.07017 0.17498
v -0.02098 0.06843 0.17228
v -0.02007 0.06727 0.17132
v -0.02058 0.06304 0.17132
v -0.02166 0.06336 0.17241
v -0.02146 0.05916 0.17132
v -0.02294 0.0637 0.17483
v -0.02248 0.05968 0.17241
v -0.02279 0.05669 0.17132
v -0.02338 0.06382 0.17819
v -0.02367 0.06031 0.17483
v -0.02407 0.06052 0.17819
v -0.02373 0.05736 0.17239
v -0.0241 0.05463 0.17132
v -0.02488 0.05819 0.17485
v -0.02527 0.05847 0.17819
v -0.02502 0.05534 0.17239
v -0.02558 0.05253 0.17132
v -0.02616 0.0562 0.17485
v -0.02653 0.05648 0.17819
v -0.02648 0.05324 0.17243
v -0.02665 0.05081 0.17132
v -0.02752 0.05402 0.17481
v -0.02788 0.05429 0.17819
v -0.02761 0.05144 0.17243
v -0.02745 0.04857 0.17132
v -0.02788 0.05429 0.45758
v -0.02866 0.05219 0.17481
v -0.02848 0.04913 0.17236
v -0.0295 0.0434 0.17132
v -0.02903 0.05245 0.17819
v -0.02981 0.04993 0.17489
v -0.03055 0.04388 0.17237
v -0.03056 0.03871 0.17132
v -0.03164 0.03901 0.17245
v -0.0311 0.03333 0.17132
v -0.03196 0.0445 0.1749
v -0.03023 0.05018 0.17819
v -0.02903 0.05245 0.45758
v 0.01478 0.0689 0.45059
v 0.01478 0.06492 0.45059
v 0.02807 0.01489 0.46263
v 0.03173 0.01985 0.4588
v 0.03304 0.02429 0.45447
v 0.03304 0.02429 0.1813
v 0.02355 0.0086 0.46236
v 0.02893 0.01292 0.45785
v 0.03206 0.01937 0.45324
v 0.03206 0.01937 0.18253
v 0.019 0.00461 0.46217
v 0.01237 0.00179 0.46201
v 0.02401 0.00558 0.45666
v 0.01907 0.00073 0.45577
v 0.01225 -0.00263 0.45512
v 0.02914 0.01206 0.45107
v 0.02407 0.00425 0.44829
v 0.01899 -0.00098 0.44617
v 0.01213 -0.00461 0.44458
v 0.006 -0.00438 0.45476
v 0.00593 -0.00649 0.44371
v 0.00593 -0.00649 0.19206
v 0.01213 -0.00461 0.19119
v 0.006 -0.00439 0.18101
v 0.01225 -0.00263 0.18065
v 0.01899 -0.00098 0.1896
v 0.01907 0.00073 0.18
v 0.01237 0.00179 0.17376
v 0.02407 0.00425 0.18748
v 0.019 0.00461 0.1736
v 0.01235 0.00436 0.17132
v 0.01881 0.00686 0.17132
v 0.02401 0.00558 0.17911
v 0.02355 0.0086 0.17341
v 0.02309 0.01037 0.17132
v 0.02914 0.01206 0.1847
v 0.02893 0.01292 0.17792
v 0.02807 0.01489 0.17314
v 0.02735 0.01605 0.17132
v 0.03173 0.01985 0.17697
v 0.03057 0.02092 0.17292
v 0.02966 0.02156 0.17132
v 0.03266 0.02457 0.17642
v 0.03138 0.02518 0.17278
v 0.0304 0.02554 0.17132
v 0.0334 0.02877 0.17599
v 0.03204 0.02907 0.17267
v 0.03101 0.02923 0.17132
v 0.03358 0.03349 0.17558
v 0.03217 0.03341 0.17257
v 0.0311 0.03333 0.17132
v 0.03308 0.03939 0.17517
v 0.03164 0.03901 0.17245
v 0.03056 0.03871 0.17132
v 0.03196 0.0445 0.1749
v 0.03055 0.04388 0.17237
v 0.0295 0.0434 0.17132
v 0.02981 0.04993 0.17489
v 0.02848 0.04913 0.17236
v 0.02745 0.04857 0.17132
v 0.02866 0.05219 0.17481
v 0.02761 0.05144 0.17243
v 0.02665 0.05081 0.17132
v 0.02752 0.05402 0.17481
v 0.02648 0.05324 0.17243
v 0.02558 0.05253 0.17132
v 0.02616 0.0562 0.17485
v 0.02502 0.05534 0.17239
v 0.0241 0.05463 0.17132
v 0.02488 0.05819 0.17485
v 0.02374 0.05736 0.17239
v 0.02279 0.05669 0.17132
v 0.02367 0.06031 0.17483
v 0.02248 0.05968 0.17241
v 0.02146 0.05916 0.17132
v 0.02294 0.0637 0.17483
v 0.02166 0.06336 0.17241
v 0.02058 0.06304 0.17132
v 0.02228 0.07017 0.17498
v 0.02098 0.06843 0.17228
v 0.02007 0.06727 0.17132
v -0.03217 0.03341 0.17257
v -0.03101 0.02923 0.17132
v -0.03308 0.03939 0.17517
v -0.03239 0.0447 0.17819
v -0.03023 0.05018 0.45758
v -0.03204 0.02907 0.17267
v -0.0304 0.02554 0.17132
v -0.03358 0.03349 0.17558
v -0.03352 0.03951 0.17867
v -0.03239 0.0447 0.45758
v -0.03138 0.02518 0.17278
v -0.02966 0.02156 0.17132
v -0.0334 0.02877 0.17599
v -0.03402 0.03349 0.1795
v -0.03352 0.03951 0.4571
v -0.03057 0.02092 0.17292
v -0.02735 0.01605 0.17132
v -0.03266 0.02457 0.17642
v -0.03381 0.02863 0.18037
v -0.03402 0.03349 0.45627
v -0.02807 0.01489 0.17314
v -0.02309 0.01037 0.17132
v -0.03173 0.01985 0.17697
v -0.03304 0.02429 0.1813
v -0.03381 0.02863 0.4554
v -0.02355 0.0086 0.17341
v -0.01881 0.00686 0.17132
v -0.02893 0.01292 0.17792
v -0.03206 0.01937 0.18253
v -0.03304 0.02429 0.45447
v -0.019 0.00461 0.1736
v -0.01235 0.00436 0.17132
v -0.02401 0.00558 0.17911
v -0.02914 0.01206 0.1847
v -0.03206 0.01937 0.45324
v -0.01237 0.00179 0.17376
v -0.00604 0.00303 0.17132
v -0.01907 0.00073 0.18
v -0.02407 0.00425 0.18748
v -0.02914 0.01206 0.45107
v -0.00606 0.00031 0.17385
v 0 0.0027 0.17132
v -0.01225 -0.00263 0.18065
v -0.01899 -0.00098 0.1896
v -0.02407 0.00425 0.44829
v -0.01213 -0.00461 0.19119
v -0.00599 -0.00439 0.18101
v 0 -0.00009 0.1739
v -0.01899 -0.00098 0.44617
v 0.00606 0.00031 0.17385
v 0.00604 0.00303 0.17132
v 0 -0.00493 0.1812
v -0.00593 -0.00649 0.19206
v 0 -0.00711 0.19254
v 0 -0.00711 0.44323
v -0.00593 -0.00649 0.44371
v -0.01213 -0.00461 0.44458
v 0 -0.00493 0.45457
v -0.00599 -0.00438 0.45476
v -0.01225 -0.00263 0.45512
v -0.01907 0.00073 0.45577
v 0 -0.00009 0.46187
v 0.00606 0.00031 0.46192
v -0.00606 0.00031 0.46192
v -0.01237 0.00179 0.46201
v -0.019 0.00461 0.46217
v -0.02401 0.00558 0.45666
v -0.02355 0.0086 0.46236
v -0.02893 0.01292 0.45785
v -0.02807 0.01489 0.46263
v -0.03173 0.01985 0.4588
v -0.03057 0.02092 0.46285
v -0.03266 0.02457 0.45935
v -0.03138 0.02518 0.46299
v -0.0334 0.02877 0.45978
v -0.03204 0.02907 0.4631
v -0.03358 0.03349 0.46019
v -0.03217 0.03341 0.4632
v -0.03308 0.03939 0.4606
v -0.03164 0.03901 0.46332
v -0.03196 0.0445 0.46088
v -0.03055 0.04388 0.4634
v -0.02981 0.04993 0.46088
v -0.02848 0.04913 0.46341
v -0.02866 0.05219 0.46096
v -0.01541 0.07606 -0.02378
v -0.02014 0.07606 -0.02378
v -0.01541 0.07606 -0.03531
v -0.01541 0.07606 -0.04014
v -0.01842 0.07606 -0.03912
v -0.02014 0.07606 -0.03687
v -0.01873 0.07657 -0.03954
v -0.02064 0.07657 -0.03703
v -0.02064 0.07657 -0.02378
v -0.02064 0.07887 -0.02378
v -0.02064 0.07887 -0.03703
v -0.02014 0.07938 -0.03687
v -0.02014 0.07938 -0.02378
v -0.01541 0.07938 -0.02378
v -0.01541 0.07938 -0.03531
v -0.01541 0.07938 -0.04014
v -0.01842 0.07938 -0.03912
v -0.01873 0.07887 -0.03954
v -0.01541 0.07887 -0.04063
v -0.01541 0.07657 -0.04063
v -0.01992 0.07596 -0.04243
v -0.01533 0.07596 -0.04243
v -0.01992 0.07774 -0.04272
v -0.01533 0.07774 -0.04272
v -0.01533 0.07457 -0.04161
v -0.01992 0.07953 -0.04239
v -0.01992 0.07457 -0.04161
v -0.01533 0.07953 -0.04239
v -0.01532 0.07337 -0.04025
v -0.01992 0.08091 -0.04161
v -0.01953 0.07337 -0.04025
v -0.01533 0.08091 -0.04161
v -0.01532 0.07288 -0.03877
v -0.01955 0.08207 -0.04032
v -0.01937 0.07288 -0.03877
v -0.01532 0.08207 -0.04032
v -0.01532 0.07288 -0.03705
v -0.01937 0.0826 -0.03877
v -0.01937 0.07288 -0.03705
v -0.01532 0.0826 -0.03877
v -0.01953 0.07337 -0.03558
v -0.01937 0.0826 -0.03706
v -0.01532 0.07337 -0.03558
v -0.01532 0.0826 -0.03706
v -0.01992 0.07457 -0.03421
v -0.01532 0.08207 -0.0355
v -0.01533 0.07457 -0.03421
v -0.01955 0.08207 -0.0355
v -0.01992 0.07596 -0.0334
v -0.01533 0.08091 -0.03421
v -0.01533 0.07596 -0.0334
v -0.01992 0.08091 -0.03421
v -0.01533 0.07596 -0.02555
v -0.01533 0.07953 -0.03344
v -0.01992 0.07597 -0.02359
v -0.01992 0.07953 -0.02359
v -0.01533 0.07953 -0.02559
v -0.01992 0.07953 -0.03344
v -0.01759 0.08674 -0.12398
v -0.01951 0.08084 -0.12398
v -0.01797 0.08693 -0.12221
v -0.01127 0.08352 -0.13809
v -0.00893 0.08675 -0.13809
v -0.0125 0.07973 -0.13809
v -0.01395 0.09177 -0.12398
v -0.0057 0.08909 -0.13809
v -0.01424 0.09206 -0.12221
v -0.00893 0.09541 -0.12398
v -0.00191 0.09032 -0.13809
v -0.00912 0.09579 -0.12221
v -0.00302 0.09733 -0.12398
v 0.00207 0.09033 -0.13809
v 0.00318 0.09734 -0.12398
v 0.00325 0.09775 -0.12221
v -0.00309 0.09775 -0.12221
v 0.00325 0.09775 -0.05224
v -0.00309 0.09775 -0.05224
v -0.00912 0.09579 -0.05224
v -0.00309 0.09775 -0.03791
v 0.00325 0.09775 -0.03791
v 0.00325 0.09775 -0.02359
v -0.00309 0.09775 -0.02359
v -0.00912 0.09579 -0.03791
v -0.00912 0.09579 -0.02359
v -0.01424 0.09206 -0.03791
v -0.01424 0.09206 -0.02359
v -0.01424 0.09206 -0.05224
v -0.01797 0.08693 -0.03791
v -0.01797 0.08693 -0.02359
v -0.01797 0.08693 -0.05224
v -0.01992 0.08091 -0.02359
v -0.01992 0.08091 -0.05224
v -0.01992 0.07774 -0.05224
v -0.01992 0.08091 -0.12221
v -0.01992 0.07774 -0.12221
v -0.01951 0.07774 -0.12398
v -0.0125 0.07774 -0.13809
v -0.0125 0.07575 -0.13809
v -0.01992 0.07457 -0.05224
v -0.01992 0.07457 -0.12221
v -0.01951 0.07464 -0.12398
v -0.01759 0.06873 -0.12398
v -0.01126 0.07196 -0.13809
v -0.01796 0.06854 -0.12221
v -0.01796 0.06854 -0.05224
v -0.01394 0.06372 -0.12398
v -0.00892 0.06874 -0.13809
v -0.01424 0.06342 -0.12221
v -0.00892 0.06007 -0.12398
v -0.0057 0.06639 -0.13809
v -0.01796 0.06854 -0.03791
v -0.00301 0.05815 -0.12398
v -0.00191 0.06516 -0.13809
v 0.00319 0.05815 -0.12398
v 0.00208 0.06516 -0.13809
v -0.00911 0.05969 -0.12221
v -0.00308 0.05774 -0.12221
v 0.00326 0.05774 -0.12221
v -0.01424 0.06342 -0.05224
v -0.00911 0.05969 -0.05224
v -0.00308 0.05774 -0.05224
v 0.00326 0.05774 -0.05224
v 0.00326 0.05774 -0.03791
v -0.01424 0.06342 -0.03791
v -0.00911 0.05969 -0.03791
v -0.00308 0.05774 -0.03791
v -0.00308 0.05774 -0.02359
v 0.00326 0.05774 -0.02359
v -0.00911 0.05969 -0.02359
v -0.01424 0.06342 -0.02359
v -0.01796 0.06854 -0.02359
v -0.01992 0.07457 -0.02359
v 0.00326 0.03338 -0.02359
v 0.00326 0.03338 -0.03791
v 0.00326 0.03338 -0.05224
v 0.00326 0.03338 -0.12221
v -0.00481 0.01346 0.45059
v 0 0.0132 0.45059
v 0.00481 0.01346 0.45059
v -0.00982 0.0145 0.45059
v 0.00982 0.0145 0.45059
v -0.01496 0.01647 0.45059
v 0.01496 0.01647 0.45059
v -0.01483 0.06492 0.45059
v -0.0148 0.06056 0.45059
v -0.01483 0.05751 0.45059
v 0.01478 0.05751 0.45059
v 0.01482 0.06056 0.45059
v -0.01837 0.01922 0.45059
v 0.01837 0.01922 0.45059
v -0.02175 0.02368 0.45059
v 0.02175 0.02368 0.45059
v -0.02359 0.028 0.45059
v 0.02359 0.028 0.45059
v -0.02466 0.03402 0.45059
v -0.02418 0.03112 0.45059
v 0.02418 0.03112 0.45059
v 0.02467 0.03402 0.45059
v -0.02474 0.03724 0.45059
v -0.02431 0.04147 0.45059
v 0.02474 0.03724 0.45059
v 0.02431 0.04147 0.45059
v -0.02346 0.04515 0.45059
v 0.02346 0.04515 0.45059
v -0.0212 0.05096 0.45059
v -0.02183 0.0492 0.45059
v 0.02184 0.0492 0.45059
v 0.0212 0.05096 0.45059
v -0.02035 0.05231 0.45059
v -0.01917 0.05395 0.45059
v 0.02035 0.05231 0.45059
v 0.01917 0.05395 0.45059
v -0.0175 0.05558 0.45059
v 0.01737 0.05558 0.45059
v -0.02614 0.03762 0.17132
v -0.02509 0.04188 0.17132
v -0.02462 0.04044 0.19343
v -0.02376 0.04417 0.19343
v -0.02506 0.03616 0.19343
v -0.02328 0.0466 0.17132
v -0.02668 0.03276 0.17132
v -0.02212 0.04828 0.19343
v -0.02498 0.0329 0.19343
v -0.02229 0.04892 0.17132
v -0.02658 0.02908 0.17132
v -0.02147 0.05006 0.19343
v -0.02449 0.02997 0.19343
v -0.02129 0.05063 0.17132
v -0.02599 0.02578 0.17132
v -0.02061 0.05143 0.19343
v -0.02389 0.0268 0.19343
v -0.02022 0.05236 0.17132
v -0.02524 0.02224 0.17132
v -0.01941 0.05309 0.19343
v -0.02203 0.02243 0.19343
v -0.01871 0.05447 0.17132
v -0.02303 0.01737 0.17132
v -0.01836 0.05473 0.19343
v -0.01688 0.0562 0.17132
v -0.01729 0.0567 0.19343
v -0.0186 0.01791 0.19343
v -0.01915 0.01237 0.17132
v -0.01516 0.01512 0.19343
v -0.01541 0.0093 0.17132
v -0.00995 0.01313 0.19343
v -0.01002 0.00712 0.17132
v -0.00487 0.01207 0.19343
v -0.00487 0.00596 0.17132
v 0 0.01181 0.19343
v 0 0.00568 0.17132
v 0.00487 0.01207 0.19343
v 0.00488 0.00596 0.17132
v 0.00995 0.01313 0.19343
v 0.01002 0.00712 0.17132
v 0.01516 0.01512 0.19343
v 0.01541 0.0093 0.17132
v 0.01861 0.01791 0.19343
v 0.01915 0.01237 0.17132
v 0.02203 0.02243 0.19343
v 0.02303 0.01737 0.17132
v 0.0239 0.0268 0.19343
v 0.02524 0.02224 0.17132
v 0.02449 0.02997 0.19343
v 0.026 0.02578 0.17132
v 0.02498 0.0329 0.19343
v 0.02659 0.02908 0.17132
v 0.02506 0.03616 0.19343
v 0.02668 0.03276 0.17132
v 0.02463 0.04044 0.19343
v 0.02615 0.03762 0.17132
v 0.02377 0.04417 0.19343
v 0.02509 0.04188 0.17132
v 0.02212 0.04828 0.19343
v 0.02311 0.0466 0.17132
v 0.02147 0.05006 0.19343
v 0.02231 0.04865 0.17132
v 0.02061 0.05143 0.19343
v 0.02132 0.05023 0.17132
v 0.01941 0.05309 0.19343
v 0.01995 0.05216 0.17132
v 0.01836 0.05473 0.19343
v 0.01874 0.05406 0.17132
v 0.01729 0.0567 0.19343
v 0.01713 0.05617 0.17132
v 0.01475 0.0588 0.17132
v -0.01458 0.05798 0.17132
v 0 0.05143 0.19343
v 0 0.05309 0.19343
v 0 0.05006 0.19343
v 0 0.05473 0.19343
v 0 0.0567 0.19343
v 0 0.04828 0.19343
v 0 0.04417 0.19343
v 0 0.04044 0.19343
v 0 0.03616 0.19343
v 0 0.0329 0.19343
v 0 0.02997 0.19343
v 0 0.0268 0.19343
v 0 0.02243 0.19343
v 0 0.01791 0.19343
v 0 0.01512 0.19343
v 0 0.01313 0.19343
vt 0.988281 0.464827
vt 0.991699 0.471908
vt 0.989746 0.471908
vt 0.988281 0.471908
vt 0.985839 0.471908
vt 0.984375 0.471908
vt 0.979492 0.471908
vt 0.983886 0.464827
vt 0.973632 0.471908
vt 0.97998 0.464827
vt 0.968261 0.471908
vt 0.971191 0.464827
vt 0.962889 0.471908
vt 0.964843 0.464827
vt 0.95703 0.471908
vt 0.958983 0.464827
vt 0.952635 0.471908
vt 0.954588 0.464827
vt 0.946776 0.471908
vt 0.949217 0.464827
vt 0.933103 0.471908
vt 0.935545 0.464827
vt 0.920408 0.471908
vt 0.923338 0.464827
vt 0.906247 0.471908
vt 0.909177 0.464827
vt 0.895016 0.471908
vt 0.897946 0.464827
vt 0.88525 0.471908
vt 0.88818 0.464827
vt 0.874996 0.471908
vt 0.877926 0.464827
vt 0.860347 0.471908
vt 0.862789 0.464827
vt 0.843745 0.471908
vt 0.845698 0.464827
vt 0.831538 0.471908
vt 0.833003 0.464827
vt 0.816889 0.471908
vt 0.817866 0.464827
vt 0.803217 0.471908
vt 0.803705 0.464827
vt 0.790521 0.471908
vt 0.790521 0.464827
vt 0.777825 0.471908
vt 0.777337 0.464827
vt 0.764153 0.471908
vt 0.763176 0.464827
vt 0.749504 0.471908
vt 0.748039 0.464827
vt 0.737297 0.471908
vt 0.735343 0.464827
vt 0.720695 0.471908
vt 0.718253 0.464827
vt 0.706046 0.471908
vt 0.703116 0.464827
vt 0.695791 0.471908
vt 0.692862 0.464827
vt 0.686026 0.471908
vt 0.683096 0.464827
vt 0.674795 0.471908
vt 0.671865 0.464827
vt 0.660634 0.471908
vt 0.657704 0.464827
vt 0.647938 0.471908
vt 0.645497 0.464827
vt 0.634266 0.471908
vt 0.631825 0.464827
vt 0.628407 0.471908
vt 0.626453 0.464827
vt 0.624012 0.471908
vt 0.622059 0.464827
vt 0.618152 0.471908
vt 0.616199 0.464827
vt 0.612781 0.471908
vt 0.609851 0.464827
vt 0.60741 0.471908
vt 0.601062 0.464827
vt 0.60155 0.471908
vt 0.597156 0.464827
vt 0.596667 0.471908
vt 0.592273 0.464827
vt 0.595203 0.471908
vt 0.592761 0.471908
vt 0.591296 0.471908
vt 0.589343 0.464827
vt 0.593249 0.483383
vt 0.591784 0.473586
vt 0.594226 0.488021
vt 0.58739 0.92822
vt 0.58739 0.495102
vt 0.592761 0.92822
vt 0.592761 0.495102
vt 0.592761 0.933592
vt 0.592761 0.488021
vt 0.58739 0.93408
vt 0.58739 0.487777
vt 0.591784 0.938475
vt 0.588366 0.473586
vt 0.588366 0.937986
vt 0.591296 0.942381
vt 0.589343 0.942381
vt 0.593249 0.938475
vt 0.592761 0.942381
vt 0.594226 0.933592
vt 0.594226 0.92822
vt 0.594226 0.495102
vt 0.596179 0.92822
vt 0.596179 0.933592
vt 0.595691 0.938475
vt 0.595203 0.942381
vt 0.596179 0.495102
vt 0.597644 0.92822
vt 0.596179 0.4897
vt 0.597644 0.495102
vt 0.595691 0.483383
vt 0.597156 0.4897
vt 0.596667 0.483383
vt 0.602527 0.483627
vt 0.603992 0.489456
vt 0.608386 0.483627
vt 0.613269 0.483627
vt 0.609363 0.489456
vt 0.60448 0.495102
vt 0.60448 0.92822
vt 0.618152 0.483627
vt 0.613758 0.489456
vt 0.609363 0.495102
vt 0.609363 0.92822
vt 0.624012 0.483627
vt 0.618641 0.489456
vt 0.614246 0.495102
vt 0.614246 0.92822
vt 0.628895 0.483627
vt 0.624012 0.489456
vt 0.618641 0.495102
vt 0.618641 0.92822
vt 0.634266 0.483627
vt 0.628407 0.489456
vt 0.624012 0.495102
vt 0.624012 0.92822
vt 0.647938 0.483627
vt 0.634266 0.489456
vt 0.628407 0.495102
vt 0.628407 0.92822
vt 0.660146 0.483871
vt 0.64745 0.489456
vt 0.634266 0.495102
vt 0.634266 0.92822
vt 0.674795 0.483871
vt 0.660146 0.489975
vt 0.64745 0.495102
vt 0.64745 0.92822
vt 0.686026 0.484115
vt 0.674795 0.490707
vt 0.659658 0.495834
vt 0.659658 0.927244
vt 0.695791 0.484359
vt 0.686514 0.49144
vt 0.674306 0.497024
vt 0.674306 0.925779
vt 0.706534 0.484603
vt 0.696768 0.491928
vt 0.686514 0.49852
vt 0.686514 0.924314
vt 0.952147 0.483627
vt 0.95703 0.483627
vt 0.962889 0.483627
vt 0.95703 0.489456
vt 0.962401 0.489456
vt 0.967772 0.483627
vt 0.967284 0.489456
vt 0.961913 0.495102
vt 0.966796 0.495102
vt 0.972655 0.483627
vt 0.971679 0.489456
vt 0.971191 0.495102
vt 0.978515 0.483627
vt 0.97705 0.489456
vt 0.976562 0.495102
vt 0.984375 0.483383
vt 0.983886 0.4897
vt 0.985351 0.483383
vt 0.983886 0.495102
vt 0.984863 0.4897
vt 0.987793 0.483383
vt 0.992676 0.483627
vt 0.989257 0.483383
vt 0.993652 0.489456
vt 0.986816 0.4897
vt 0.988281 0.4897
vt 0.99414 0.495102
vt 0.984863 0.495102
vt 0.986816 0.495102
vt 0.988281 0.495102
vt 0.988281 0.92822
vt 0.99414 0.92822
vt 0.986816 0.92822
vt 0.984863 0.92822
vt 0.988281 0.933592
vt 0.993652 0.93408
vt 0.983886 0.92822
vt 0.986816 0.933592
vt 0.989257 0.938475
vt 0.992676 0.937986
vt 0.989746 0.942381
vt 0.991699 0.942381
vt 0.987793 0.938475
vt 0.988281 0.942381
vt 0.984863 0.933592
vt 0.985351 0.938475
vt 0.985839 0.942381
vt 0.983886 0.93408
vt 0.984375 0.940916
vt 0.984375 0.942381
vt 0.979492 0.949705
vt 0.978515 0.940916
vt 0.973632 0.949705
vt 0.97705 0.93408
vt 0.972655 0.940916
vt 0.968261 0.949705
vt 0.976562 0.92822
vt 0.971679 0.93408
vt 0.971191 0.92822
vt 0.967772 0.940916
vt 0.962889 0.949705
vt 0.967284 0.93408
vt 0.966796 0.92822
vt 0.962889 0.940916
vt 0.95703 0.949705
vt 0.962401 0.93408
vt 0.961913 0.92822
vt 0.95703 0.940916
vt 0.952635 0.949705
vt 0.95703 0.93408
vt 0.956542 0.92822
vt 0.952147 0.940916
vt 0.946776 0.949705
vt 0.956542 0.495102
vt 0.952635 0.93408
vt 0.946776 0.940916
vt 0.933103 0.949705
vt 0.952147 0.92822
vt 0.946776 0.93408
vt 0.933103 0.940916
vt 0.920408 0.949705
vt 0.920896 0.940428
vt 0.906247 0.949705
vt 0.933592 0.93408
vt 0.946776 0.92822
vt 0.952147 0.495102
vt 0.589343 0.451155
vt 0.592273 0.451155
vt 0.72216 0.484848
vt 0.707999 0.492874
vt 0.696768 0.499985
vt 0.696768 0.922849
vt 0.73925 0.485305
vt 0.724601 0.494613
vt 0.708975 0.501938
vt 0.708975 0.920896
vt 0.751946 0.485549
vt 0.766106 0.485794
vt 0.742668 0.496567
vt 0.755852 0.498032
vt 0.769036 0.499008
vt 0.726066 0.505844
vt 0.744133 0.510239
vt 0.757317 0.513657
vt 0.770501 0.516098
vt 0.780267 0.499741
vt 0.780755 0.517563
vt 0.780755 0.905759
vt 0.770501 0.907224
vt 0.780267 0.923826
vt 0.769036 0.924314
vt 0.757317 0.909665
vt 0.755852 0.925779
vt 0.766106 0.938475
vt 0.744133 0.913083
vt 0.751946 0.938963
vt 0.764153 0.949705
vt 0.749504 0.949705
vt 0.742668 0.927244
vt 0.73925 0.938963
vt 0.737297 0.949705
vt 0.726066 0.917478
vt 0.724601 0.929197
vt 0.72216 0.939451
vt 0.720695 0.949705
vt 0.707999 0.930662
vt 0.706534 0.93994
vt 0.706046 0.949705
vt 0.696768 0.931639
vt 0.695791 0.93994
vt 0.695791 0.949705
vt 0.686514 0.932127
vt 0.686026 0.940428
vt 0.686026 0.949705
vt 0.674795 0.932615
vt 0.674795 0.940428
vt 0.674795 0.949705
vt 0.660146 0.933592
vt 0.660146 0.940428
vt 0.660634 0.949705
vt 0.64745 0.93408
vt 0.647938 0.940916
vt 0.647938 0.949705
vt 0.634266 0.93408
vt 0.634266 0.940916
vt 0.634266 0.949705
vt 0.628407 0.93408
vt 0.628895 0.940916
vt 0.628407 0.949705
vt 0.624012 0.93408
vt 0.624012 0.940916
vt 0.624012 0.949705
vt 0.618641 0.93408
vt 0.618152 0.940916
vt 0.618152 0.949705
vt 0.613758 0.93408
vt 0.613269 0.940916
vt 0.612781 0.949705
vt 0.609363 0.93408
vt 0.608386 0.940916
vt 0.60741 0.949705
vt 0.603992 0.93408
vt 0.602527 0.940916
vt 0.60155 0.949705
vt 0.597156 0.93408
vt 0.596667 0.940916
vt 0.596667 0.942381
vt 0.906247 0.940428
vt 0.895016 0.949705
vt 0.920896 0.933592
vt 0.933592 0.92822
vt 0.946776 0.495102
vt 0.895016 0.940428
vt 0.88525 0.949705
vt 0.906247 0.932615
vt 0.921384 0.927244
vt 0.933592 0.495102
vt 0.88525 0.93994
vt 0.874996 0.949705
vt 0.894528 0.932127
vt 0.906735 0.925779
vt 0.921384 0.495834
vt 0.874508 0.93994
vt 0.860347 0.949705
vt 0.884274 0.931639
vt 0.894528 0.924314
vt 0.906735 0.497024
vt 0.858882 0.939451
vt 0.843745 0.949705
vt 0.873043 0.930662
vt 0.884274 0.922849
vt 0.894528 0.49852
vt 0.841792 0.938963
vt 0.831538 0.949705
vt 0.856441 0.929197
vt 0.872066 0.920896
vt 0.884274 0.499985
vt 0.829096 0.938963
vt 0.816889 0.949705
vt 0.838374 0.927244
vt 0.854976 0.917478
vt 0.872066 0.501938
vt 0.814936 0.938475
vt 0.803217 0.949705
vt 0.82519 0.925779
vt 0.836909 0.913083
vt 0.854976 0.505844
vt 0.80224 0.938475
vt 0.790521 0.949705
vt 0.812006 0.924314
vt 0.823725 0.909665
vt 0.836909 0.510239
vt 0.810541 0.907224
vt 0.800775 0.923826
vt 0.790521 0.938475
vt 0.823725 0.513657
vt 0.778802 0.938475
vt 0.777825 0.949705
vt 0.790521 0.923338
vt 0.800287 0.905759
vt 0.790521 0.905271
vt 0.790521 0.51854
vt 0.800287 0.517563
vt 0.810541 0.516098
vt 0.790521 0.499985
vt 0.800775 0.499741
vt 0.812006 0.499008
vt 0.82519 0.498032
vt 0.790521 0.486068
vt 0.778802 0.486068
vt 0.80224 0.486068
vt 0.814936 0.485794
vt 0.829096 0.485549
vt 0.838374 0.496567
vt 0.841792 0.485305
vt 0.856441 0.494613
vt 0.858882 0.484848
vt 0.873043 0.492874
vt 0.874508 0.484603
vt 0.884274 0.491928
vt 0.88525 0.484359
vt 0.894528 0.49144
vt 0.895016 0.484115
vt 0.906247 0.490707
vt 0.906247 0.483871
vt 0.920896 0.489975
vt 0.920896 0.483871
vt 0.933592 0.489456
vt 0.933103 0.483627
vt 0.946776 0.489456
vt 0.946776 0.483627
vt 0.952635 0.489456
vt 0.572741 0.437727
vt 0.572741 0.428449
vt 0.595691 0.437727
vt 0.600574 0.437727
vt 0.600574 0.428449
vt 0.593249 0.428449
vt 0.600574 0.426954
vt 0.593249 0.426954
vt 0.572741 0.426954
vt 0.572741 0.420148
vt 0.593249 0.420148
vt 0.593249 0.418653
vt 0.572741 0.418653
vt 0.572741 0.409406
vt 0.595691 0.409406
vt 0.600574 0.409406
vt 0.600574 0.418897
vt 0.600574 0.420392
vt 0.603015 0.418897
vt 0.610828 0.418897
vt 0.611805 0.420392
vt 0.611805 0.426954
vt 0.603015 0.428205
vt 0.610828 0.428205
vt 0.545396 0.568834
vt 0.55565 0.568834
vt 0.545396 0.571764
vt 0.55565 0.571764
vt 0.55565 0.565905
vt 0.545396 0.574694
vt 0.545396 0.565905
vt 0.55565 0.574694
vt 0.55565 0.562487
vt 0.545396 0.577624
vt 0.546373 0.562487
vt 0.55565 0.577624
vt 0.55565 0.559557
vt 0.545885 0.581042
vt 0.546861 0.559557
vt 0.55565 0.581042
vt 0.55565 0.556139
vt 0.546373 0.583972
vt 0.546861 0.556139
vt 0.55565 0.583972
vt 0.546861 0.552721
vt 0.546373 0.58739
vt 0.55565 0.552721
vt 0.55565 0.58739
vt 0.545885 0.549303
vt 0.55565 0.590808
vt 0.55565 0.549303
vt 0.545885 0.590808
vt 0.546373 0.546861
vt 0.55565 0.593738
vt 0.55565 0.546861
vt 0.544908 0.593738
vt 0.55565 0.531236
vt 0.55565 0.596667
vt 0.546373 0.526841
vt 0.549303 0.52147
vt 0.558092 0.525864
vt 0.544908 0.596667
vt 0.55565 0.612293
vt 0.544908 0.616199
vt 0.969237 0.33079
vt 0.962401 0.33079
vt 0.969237 0.332957
vt 0.969237 0.314676
vt 0.975585 0.314676
vt 0.962401 0.314676
vt 0.975585 0.33079
vt 0.982421 0.314676
vt 0.975585 0.332957
vt 0.982421 0.33079
vt 0.988769 0.314676
vt 0.982421 0.332957
vt 0.988769 0.33079
vt 0.995605 0.314676
vt 0.995605 0.33079
vt 0.995605 0.332957
vt 0.988769 0.332957
vt 0.995605 0.413068
vt 0.988769 0.413068
vt 0.982421 0.413068
vt 0.988769 0.429426
vt 0.995605 0.429426
vt 0.995605 0.445998
vt 0.988769 0.445998
vt 0.982421 0.429426
vt 0.982421 0.445998
vt 0.975585 0.429426
vt 0.975585 0.445998
vt 0.975585 0.413068
vt 0.969237 0.429426
vt 0.969237 0.445998
vt 0.969237 0.413068
vt 0.963866 0.432356
vt 0.962401 0.445998
vt 0.964354 0.430372
vt 0.962401 0.433821
vt 0.960936 0.434523
vt 0.960936 0.445998
vt 0.964354 0.428449
vt 0.963866 0.42671
vt 0.962401 0.413068
vt 0.962401 0.425275
vt 0.960936 0.424299
vt 0.959471 0.424055
vt 0.959471 0.413068
vt 0.962401 0.332957
vt 0.957518 0.424299
vt 0.959471 0.332957
vt 0.959471 0.33079
vt 0.959471 0.314676
vt 0.956053 0.314676
vt 0.956053 0.413068
vt 0.956053 0.425275
vt 0.954588 0.42671
vt 0.956053 0.332957
vt 0.956053 0.33079
vt 0.949217 0.33079
vt 0.949217 0.314676
vt 0.949217 0.332957
vt 0.949217 0.413068
vt 0.9541 0.428449
vt 0.942869 0.33079
vt 0.942869 0.314676
vt 0.942869 0.332957
vt 0.936521 0.33079
vt 0.936521 0.314676
vt 0.949217 0.429426
vt 0.9541 0.430372
vt 0.929685 0.33079
vt 0.929685 0.314676
vt 0.923338 0.33079
vt 0.923338 0.314676
vt 0.936521 0.332957
vt 0.929685 0.332957
vt 0.923338 0.332957
vt 0.942869 0.413068
vt 0.936521 0.413068
vt 0.929685 0.413068
vt 0.923338 0.413068
vt 0.923338 0.429426
vt 0.942869 0.429426
vt 0.936521 0.429426
vt 0.929685 0.429426
vt 0.929685 0.445998
vt 0.923338 0.445998
vt 0.936521 0.445998
vt 0.942869 0.445998
vt 0.949217 0.445998
vt 0.954588 0.432112
vt 0.956053 0.445998
vt 0.956053 0.433821
vt 0.957518 0.434767
vt 0.957518 0.445998
vt 0.551744 0.497513
vt 0.553697 0.498764
vt 0.546861 0.497513
vt 0.551744 0.486068
vt 0.546861 0.486068
vt 0.551744 0.510239
vt 0.549303 0.510727
vt 0.546861 0.510239
vt 0.553697 0.509262
vt 0.55565 0.507309
vt 0.556139 0.505356
vt 0.556139 0.502426
vt 0.55565 0.500473
vt 0.544908 0.498764
vt 0.544908 0.509262
vt 0.542955 0.507309
vt 0.542467 0.505356
vt 0.542467 0.502426
vt 0.542955 0.500473
vt 0.904782 0.445998
vt 0.904782 0.429426
vt 0.904782 0.413068
vt 0.904782 0.332957
vt 0.803705 0.451155
vt 0.790521 0.451155
vt 0.777337 0.451155
vt 0.817866 0.451155
vt 0.763176 0.451155
vt 0.833003 0.451155
vt 0.748039 0.451155
vt 0.988281 0.451155
vt 0.983886 0.451155
vt 0.97998 0.451155
vt 0.601062 0.451155
vt 0.597156 0.451155
vt 0.845698 0.451155
vt 0.735343 0.451155
vt 0.862789 0.451155
vt 0.718253 0.451155
vt 0.877926 0.451155
vt 0.703116 0.451155
vt 0.897946 0.451155
vt 0.88818 0.451155
vt 0.692862 0.451155
vt 0.683096 0.451155
vt 0.909177 0.451155
vt 0.923338 0.451155
vt 0.671865 0.451155
vt 0.657704 0.451155
vt 0.935545 0.451155
vt 0.645497 0.451155
vt 0.954588 0.451155
vt 0.949217 0.451155
vt 0.631825 0.451155
vt 0.626453 0.451155
vt 0.958983 0.451155
vt 0.964843 0.451155
vt 0.622059 0.451155
vt 0.616199 0.451155
vt 0.971191 0.451155
vt 0.609851 0.451155
vt 0.919919 0.960448
vt 0.932615 0.960448
vt 0.919919 0.989746
vt 0.932615 0.989746
vt 0.905271 0.989746
vt 0.946287 0.960448
vt 0.905271 0.960448
vt 0.946287 0.989746
vt 0.894528 0.989746
vt 0.952635 0.960448
vt 0.894528 0.960448
vt 0.952147 0.989746
vt 0.884762 0.989746
vt 0.957518 0.960448
vt 0.884762 0.960448
vt 0.956542 0.989746
vt 0.874508 0.989746
vt 0.962401 0.960448
vt 0.874508 0.960448
vt 0.962401 0.989746
vt 0.859859 0.989746
vt 0.968261 0.960448
vt 0.859859 0.960448
vt 0.967772 0.989746
vt 0.974609 0.960448
vt 0.973632 0.989746
vt 0.843257 0.989746
vt 0.843257 0.960448
vt 0.831538 0.989746
vt 0.831538 0.960448
vt 0.816889 0.989746
vt 0.816889 0.960448
vt 0.803217 0.989746
vt 0.803217 0.960448
vt 0.790521 0.989746
vt 0.790521 0.960448
vt 0.777825 0.989746
vt 0.777825 0.960448
vt 0.764153 0.989746
vt 0.764153 0.960448
vt 0.749504 0.989746
vt 0.749504 0.960448
vt 0.737785 0.989746
vt 0.737785 0.960448
vt 0.721183 0.989746
vt 0.721183 0.960448
vt 0.706534 0.989746
vt 0.706534 0.960448
vt 0.69628 0.989746
vt 0.69628 0.960448
vt 0.686514 0.989746
vt 0.686514 0.960448
vt 0.675771 0.989746
vt 0.675771 0.960448
vt 0.661122 0.989746
vt 0.661122 0.960448
vt 0.648427 0.989746
vt 0.648427 0.960448
vt 0.634754 0.989746
vt 0.634754 0.960448
vt 0.628895 0.989746
vt 0.628895 0.960448
vt 0.6245 0.989746
vt 0.6245 0.960448
vt 0.618641 0.989746
vt 0.618641 0.960448
vt 0.613269 0.989746
vt 0.613269 0.960448
vt 0.60741 0.989746
vt 0.606922 0.960448
vt 0.599109 0.949705
vt 0.981445 0.949705
vt 0.846675 0.965331
vt 0.799799 0.965331
vt 0.844234 0.964354
vt 0.799799 0.964354
vt 0.841792 0.963378
vt 0.799799 0.966308
vt 0.848628 0.966308
vt 0.755852 0.964354
vt 0.752922 0.965331
vt 0.758293 0.963378
vt 0.750969 0.966308
vt 0.799799 0.963378
vt 0.839351 0.961913
vt 0.760735 0.961913
vt 0.799799 0.961913
vt 0.799799 0.967284
vt 0.749504 0.967284
vt 0.850581 0.967284
vt 0.799799 0.969726
vt 0.746086 0.969726
vt 0.853999 0.969726
vt 0.799799 0.972167
vt 0.744133 0.972167
vt 0.855953 0.972167
vt 0.799799 0.975097
vt 0.743156 0.975097
vt 0.856929 0.975097
vt 0.743156 0.97705
vt 0.856929 0.97705
vt 0.799799 0.97705
vt 0.744133 0.979003
vt 0.855953 0.979003
vt 0.799799 0.979003
vt 0.745598 0.980956
vt 0.854488 0.980956
vt 0.799799 0.980956
vt 0.749992 0.983886
vt 0.850093 0.983886
vt 0.799799 0.983886
vt 0.757805 0.986816
vt 0.84228 0.986816
vt 0.799799 0.986816
vt 0.765618 0.988769
vt 0.834468 0.988769
vt 0.799799 0.988769
vt 0.777337 0.989746
vt 0.822748 0.989746
vt 0.799799 0.989746
vt 0.789056 0.990722
vt 0.811029 0.990722
vt 0.799799 0.990722
vn -0.0151 0.0171 0.9997
vn 0.252 0.5024 0.8271
vn 0.3439 0.608 0.7156
vn 0.0468 0.6193 0.7837
vn 0.0954 0.7382 0.6678
vn 0.474 0.7879 0.3931
vn -0.0183 0.996 -0.0872
vn -0.018 0.9975 0.0689
vn 0.1778 0.9809 -0.0786
vn 0.1747 0.9829 0.0582
vn 0.1614 0.9041 -0.3956
vn 0.1592 0.9173 0.365
vn -0.022 0.9247 -0.38
vn -0.0218 0.9346 0.3551
vn 0.0955 0.7155 -0.692
vn -0.0238 0.7504 0.6606
vn -0.0238 0.6606 0.7504
vn -0.0239 0.729 -0.6841
vn 0.0466 0.5941 -0.803
vn -0.0238 0.6335 -0.7734
vn 0.3427 0.5799 -0.7391
vn 0.2496 0.47 -0.8466
vn 0.4786 0.7694 -0.4231
vn 0.5085 0.8561 -0.0926
vn 0.4996 0.8635 0.0686
vn 0.7809 0.6174 -0.0949
vn 0.7236 0.5621 -0.4005
vn 0.5331 0.3986 -0.7463
vn 0.4339 0.3305 -0.8381
vn 0.7711 0.6328 0.0706
vn 0.9516 0.2955 -0.0846
vn 0.7201 0.5856 0.3723
vn 0.947 0.3148 0.0635
vn 0.5376 0.4284 0.7262
vn 0.4393 0.36 0.8231
vn 0.8837 0.3187 0.3429
vn 0.7132 0.2273 0.6631
vn 0.6174 0.1753 0.7668
vn 0.6873 0.1465 0.7115
vn 0.7796 0.1487 0.6084
vn 0.6423 0.2585 0.7216
vn 0.9375 0.1551 0.3116
vn 0.7341 0.3146 0.6018
vn 0.5856 0.3723 0.7201
vn 0.672 0.4065 0.6189
vn 0.5621 0.4005 0.7236
vn 0.8837 0.3429 0.3187
vn 0.9834 0.172 0.0581
vn 0.9852 0.1533 -0.0772
vn 0.6496 0.4359 0.6229
vn 0.5665 0.4303 0.7028
vn 0.7987 0.516 0.3096
vn 0.9286 0.3653 0.0651
vn 0.9342 0.3461 -0.0869
vn 0.6524 0.4646 0.5988
vn 0.6293 0.3155 0.7102
vn 0.7784 0.545 0.3117
vn 0.8476 0.5261 0.0691
vn 0.8561 0.5085 -0.0926
vn 0.6997 0.402 0.5906
vn 0.6226 0.2865 0.7282
vn 0.8307 0.5524 0.0696
vn 0.8395 0.5353 -0.0933
vn 0.7102 0.3155 0.6293
vn 0.6345 0.2303 0.7379
vn 0.8177 0.4868 0.3072
vn 0.8386 0.5428 0.046
vn 0.8476 0.5261 -0.0691
vn 0.745 0.2578 0.6153
vn 0.7019 0.1207 0.7019
vn 0.8559 0.4009 0.3266
vn 0.8635 0.4996 0.0686
vn 0.8715 0.4817 -0.0918
vn 0.7999 0.148 0.5816
vn 0.7609 0.0469 0.6471
vn 0.8957 0.3145 0.3145
vn 0.8921 0.4467 0.0674
vn 0.8992 0.4281 -0.0901
vn 0.8386 0.046 0.5428
vn 0.7724 -0.0706 0.6312
vn 0.9461 0.1529 0.2856
vn 0.8551 -0.0926 0.5102
vn 0.7882 -0.1713 0.5911
vn 0.9663 0.0207 0.2565
vn 0.9869 0.1507 0.0572
vn 0.9883 0.1322 -0.076
vn 0.8618 -0.1697 0.4781
vn 0.7824 -0.2251 0.5806
vn 0.9583 -0.13 0.2547
vn 0.998 0.035 0.052
vn 0.9975 0.018 -0.0689
vn 0.8497 -0.2755 0.4495
vn 0.7225 -0.4042 0.5609
vn 0.9494 -0.1999 0.2421
vn 0.9922 -0.1121 0.0544
vn 0.9908 -0.1301 -0.0362
vn -0.7201 0.3723 0.5856
vn -0.6495 0.2871 0.7041
vn -0.6754 0.4352 0.5953
vn -0.5906 0.402 0.6997
vn -0.6423 0.2585 0.7216
vn -0.672 0.4065 0.6189
vn -0.5856 0.3723 0.7201
vn -0.8177 0.4868 0.3072
vn -0.7987 0.516 0.3096
vn -0.6958 0.3734 0.6136
vn -0.608 0.3439 0.7156
vn -0.8476 0.5261 0.0691
vn -0.8635 0.4996 0.0686
vn -0.7513 0.2855 0.595
vn -0.6631 0.2273 0.7132
vn -0.8957 0.3145 0.3145
vn -0.9383 0.3399 0.0643
vn -0.7913 0.1228 0.599
vn -0.7019 0.1207 0.7019
vn -0.9429 0.1308 0.3062
vn -0.9869 0.1507 0.0572
vn -0.729 0.1997 0.6547
vn -0.6367 0.146 0.7571
vn -0.4634 0.3337 0.8209
vn -0.8952 0.2904 0.3381
vn -0.5621 0.4005 0.7236
vn -0.2783 0.4804 0.8317
vn -0.9549 0.2902 0.0626
vn -0.7432 0.557 0.3708
vn -0.3723 0.5856 0.7201
vn -0.0703 0.6042 0.7937
vn 0.0014 0.7601 0.6498
vn 0.0014 0.6732 0.7395
vn -0.1206 0.7254 0.6777
vn 0.0013 0.9373 0.3485
vn -0.5037 0.7677 0.3961
vn -0.1849 0.91 0.3712
vn 0.001 0.9977 0.0678
vn -0.7937 0.6042 0.0703
vn -0.5261 0.8476 0.0691
vn -0.1967 0.9787 0.0591
vn -0.2002 0.9765 -0.0798
vn 0.0011 0.9963 -0.0858
vn -0.5353 0.8395 -0.0933
vn -0.8032 0.5882 -0.0944
vn -0.1874 0.8961 -0.4023
vn 0.0013 0.9279 -0.3729
vn -0.959 0.2709 -0.0834
vn -0.5083 0.7484 -0.426
vn -0.1207 0.7019 -0.7019
vn 0.0014 0.7395 -0.6732
vn -0.07 0.5785 -0.8127
vn 0.0014 0.6468 -0.7627
vn -0.3708 0.557 -0.7432
vn -0.2754 0.4477 -0.8507
vn -0.7463 0.5331 -0.3986
vn -0.557 0.3708 -0.7432
vn -0.4575 0.3045 -0.8354
vn -0.8936 0.2662 -0.3613
vn -0.7205 0.1729 -0.6716
vn -0.6272 0.1201 -0.7695
vn -0.692 0.0955 -0.7155
vn -0.7809 0.0949 -0.6174
vn -0.6547 0.1997 -0.729
vn -0.9389 0.1088 -0.3264
vn -0.745 0.2578 -0.6153
vn -0.6018 0.3146 -0.7341
vn -0.9883 0.1322 -0.076
vn -0.8952 0.2904 -0.3381
vn -0.9433 0.3206 -0.0858
vn -0.691 0.3447 -0.6354
vn -0.5799 0.3427 -0.7391
vn -0.8209 0.4634 -0.3337
vn -0.8715 0.4817 -0.0918
vn -0.6678 0.3776 -0.6414
vn -0.5856 0.3723 -0.7201
vn -0.8024 0.4929 -0.3366
vn -0.8561 0.5085 -0.0926
vn -0.672 0.4065 -0.6189
vn -0.6423 0.2585 -0.7216
vn -0.8635 0.4996 -0.0686
vn -0.7156 0.3439 -0.608
vn -0.6345 0.2303 -0.7379
vn -0.8549 0.5168 0.0457
vn -0.8381 0.4339 -0.3305
vn -0.7216 0.2585 -0.6423
vn -0.6459 0.1726 -0.7436
vn -0.8859 0.4549 -0.091
vn -0.8709 0.3475 -0.3475
vn -0.7529 0.2025 -0.6262
vn -0.7053 0.071 -0.7053
vn -0.8032 0.0944 -0.5882
vn -0.7614 -0.0014 -0.6483
vn -0.9055 0.2627 -0.3332
vn -0.9115 0.4016 -0.0891
vn -0.8783 0.4732 0.068
vn -0.9945 0.0163 0.1035
vn 0.7687 -0.4531 0.4514
vn 0.5752 -0.5498 0.6057
vn 0.9255 -0.3004 0.2307
vn 0.9788 -0.1965 0.0579
vn 0.9758 -0.2151 -0.0385
vn 0.6313 -0.5756 0.5199
vn 0.3758 -0.6411 0.6691
vn 0.8402 -0.4947 0.2222
vn 0.9542 -0.2929 0.0614
vn 0.9493 -0.3118 -0.0407
vn 0.4023 -0.7238 0.5606
vn 0.2016 -0.6809 0.7041
vn 0.2286 -0.7374 0.6356
vn 0.6951 -0.6713 0.2571
vn 0.5138 -0.8008 0.3077
vn 0.2927 -0.8825 0.3681
vn 0.8787 -0.4726 0.0665
vn 0.7718 -0.6321 0.0691
vn 0.5629 -0.8213 0.0924
vn 0.3473 -0.9338 0.0855
vn 0.1376 -0.9115 0.3876
vn 0.1797 -0.9785 0.1009
vn 0.1762 -0.9813 -0.0772
vn 0.3411 -0.9379 -0.063
vn 0.136 -0.9227 -0.3608
vn 0.2889 -0.8951 -0.3396
vn 0.5534 -0.8301 -0.0681
vn 0.5072 -0.8156 -0.2786
vn 0.2279 -0.76 -0.6086
vn 0.7616 -0.6465 -0.0455
vn 0.4003 -0.7465 -0.5315
vn 0.2016 -0.7056 -0.6793
vn 0.3758 -0.6675 -0.6428
vn 0.6875 -0.6891 -0.2292
vn 0.6299 -0.6012 -0.4918
vn 0.5757 -0.5773 -0.579
vn 0.8705 -0.4902 -0.0439
vn 0.8342 -0.5153 -0.1965
vn 0.7682 -0.4789 -0.4249
vn 0.725 -0.432 -0.5363
vn 0.9235 -0.3225 -0.2074
vn 0.8529 -0.3013 -0.4264
vn 0.7889 -0.252 -0.5604
vn 0.9498 -0.2218 -0.2205
vn 0.8676 -0.1946 -0.4576
vn 0.7959 -0.1974 -0.5724
vn 0.9604 -0.1513 -0.2342
vn 0.8638 -0.1195 -0.4895
vn 0.7822 -0.0949 -0.6158
vn 0.9616 0.0012 -0.2746
vn 0.8291 0.0235 -0.5587
vn 0.7504 0.0238 -0.6606
vn 0.9429 0.1308 -0.3062
vn 0.7913 0.1228 -0.599
vn 0.692 0.0955 -0.7155
vn 0.8952 0.2904 -0.3381
vn 0.7379 0.2303 -0.6345
vn 0.6262 0.2025 -0.7529
vn 0.857 0.3766 -0.3518
vn 0.7041 0.2871 -0.6495
vn 0.6153 0.2578 -0.745
vn 0.8209 0.4634 -0.3337
vn 0.6958 0.3734 -0.6136
vn 0.6226 0.2865 -0.7282
vn 0.8024 0.4929 -0.3366
vn 0.6496 0.4359 -0.6229
vn 0.5621 0.4005 -0.7236
vn 0.7825 0.5222 -0.339
vn 0.6459 0.4068 -0.6459
vn 0.557 0.3708 -0.7432
vn 0.6678 0.3776 -0.6414
vn 0.5799 0.3427 -0.7391
vn 0.8837 0.3187 -0.3429
vn 0.7282 0.2865 -0.6226
vn 0.6345 0.2303 -0.7379
vn 0.9338 0.1326 -0.3322
vn 0.7695 0.1201 -0.6272
vn 0.6777 0.1206 -0.7254
vn 0.8826 0.2942 -0.3666
vn 0.7051 0.1999 -0.6803
vn 0.6084 0.1487 -0.7796
vn -0.836 0.0014 -0.5487
vn -0.7925 -0.0703 -0.6058
vn -0.9476 0.1074 -0.3008
vn -0.9049 0.4205 0.0667
vn -0.8715 -0.0888 -0.4823
vn -0.8081 -0.1704 -0.5639
vn -0.9628 -0.0208 -0.2695
vn -0.9909 0.1116 -0.0748
vn -0.877 -0.1681 -0.4502
vn -0.8028 -0.2238 -0.5527
vn -0.9647 -0.128 -0.2302
vn -0.9978 -0.001 -0.0667
vn -0.9899 0.1299 0.0563
vn -0.8653 -0.2727 -0.4205
vn -0.7452 -0.4022 -0.5319
vn -0.9561 -0.1969 -0.2169
vn -0.9935 -0.1078 -0.0356
vn -0.9986 0.0156 0.051
vn -0.7902 -0.4453 -0.421
vn -0.6056 -0.5464 -0.5785
vn -0.9331 -0.2956 -0.2046
vn -0.9805 -0.193 -0.0379
vn -0.9945 -0.0901 0.0534
vn -0.6558 -0.5734 -0.491
vn -0.405 -0.6457 -0.6473
vn -0.8513 -0.4871 -0.1948
vn -0.9528 -0.303 -0.02
vn -0.983 -0.1745 0.057
vn -0.4302 -0.7263 -0.5361
vn -0.2292 -0.6891 -0.6875
vn -0.7122 -0.6636 -0.229
vn -0.8847 -0.4641 -0.0436
vn -0.9578 -0.2846 0.0401
vn -0.2561 -0.7445 -0.6165
vn -0.0939 -0.6914 -0.7163
vn -0.5396 -0.7937 -0.2809
vn -0.7819 -0.6218 -0.0453
vn -0.8925 -0.4462 0.0659
vn -0.1217 -0.7701 -0.6262
vn 0 -0.6953 -0.7188
vn -0.3208 -0.8821 -0.345
vn -0.5795 -0.8121 -0.0685
vn -0.7919 -0.6068 0.0689
vn -0.3665 -0.9282 -0.0637
vn -0.1609 -0.9162 -0.367
vn 0 -0.7817 -0.6237
vn -0.5892 -0.8026 0.0929
vn 0.0933 -0.7828 -0.6152
vn 0.0695 -0.7047 -0.7061
vn -0.0205 -0.9353 -0.3532
vn -0.1986 -0.9769 -0.0784
vn 0 -0.9962 -0.0868
vn 0 -0.9944 0.1054
vn -0.2025 -0.9739 0.1025
vn -0.3733 -0.9237 0.0866
vn -0.0207 -0.9256 0.378
vn -0.1629 -0.9044 0.3943
vn -0.3248 -0.8687 0.3739
vn -0.5428 -0.7807 0.3097
vn 0 -0.762 0.6476
vn 0.0936 -0.7621 0.6407
vn 0.0694 -0.6811 0.7289
vn 0 -0.6725 0.7401
vn -0.122 -0.7485 0.6518
vn -0.0938 -0.6671 0.739
vn -0.2568 -0.7211 0.6435
vn -0.229 -0.6636 0.7122
vn -0.4323 -0.6999 0.5686
vn -0.4047 -0.6187 0.6734
vn -0.7196 -0.6451 0.2568
vn -0.6568 -0.5473 0.5187
vn -0.6046 -0.5185 0.6046
vn -0.8569 -0.4661 0.2202
vn -0.7902 -0.4194 0.4469
vn -0.7418 -0.3709 0.5588
vn -0.9346 -0.2736 0.2273
vn -0.8617 -0.2473 0.443
vn -0.7959 -0.1974 0.5724
vn -0.9553 -0.1753 0.2382
vn -0.8708 -0.1437 0.4702
vn -0.8001 -0.1448 0.5822
vn -0.9622 -0.1071 0.2502
vn -0.8634 -0.0657 0.5002
vn -0.7825 -0.0468 0.6209
vn -0.9678 0.0012 0.2518
vn -0.8457 0.0233 0.5332
vn -0.772 0.0209 0.6352
vn -0.9511 0.129 0.2807
vn -0.8121 0.119 0.5713
vn -0.7155 0.0955 0.692
vn -0.9065 0.2865 0.31
vn -0.7605 0.2295 0.6074
vn -0.6547 0.1997 0.729
vn -0.8704 0.3717 0.3228
vn -0.7282 0.2865 0.6226
vn -0.8354 0.4575 0.3045
vn 0 -1 0
vn -0.3956 -0.9184 0
vn -0.1665 -0.8775 -0.4497
vn -0.2612 -0.9054 -0.3346
vn -0.4148 -0.8992 -0.1392
vn -0.5588 -0.3709 -0.7418
vn -0.8817 -0.3699 -0.2929
vn -0.928 -0.3725 0
vn -0.9291 0.3699 0.0013
vn -0.8837 0.3429 -0.3187
vn -0.4232 0.8912 -0.1632
vn -0.3976 0.9175 0.0013
vn 0.001 1 0.001
vn -0.1665 0.862 -0.4789
vn -0.2662 0.8936 -0.3613
vn -0.5513 0.3411 -0.7614
vn -0.3145 0.3145 -0.8957
vn -0.3205 -0.3432 -0.8829
vn 0.0013 0.3455 0.9384
vn 0 -0.001 1
vn 0.0014 0.6468 0.7627
vn 0 -0.3211 0.9471
vn 0.0013 0.8811 0.473
vn 0 -0.6009 0.7993
vn 0.0013 0.867 0.4983
vn -0.0223 -0.6114 0.791
vn 0.0011 0.9897 0.143
vn -0.0221 -0.8284 0.5596
vn 0.0011 0.9862 0.1657
vn -0.0219 -0.8451 0.5342
vn 0.0011 0.9862 -0.1657
vn -0.0186 -0.9819 0.1883
vn 0.0011 0.9825 -0.1864
vn -0.0183 -0.9858 0.1672
vn 0.0013 0.852 -0.5236
vn -0.0183 -0.9858 -0.1672
vn 0.0013 0.867 -0.4983
vn -0.018 -0.989 -0.1466
vn -0.0014 0.6228 -0.7823
vn -0.0218 -0.8607 -0.5086
vn 0 -0.8514 -0.5245
vn 0 -0.6491 -0.7607
vn 0 -0.6252 -0.7805
vn -0.2568 0.7673 -0.5877
vn 0 -0.8664 -0.4993
vn -0.3411 0.5513 -0.7614
vn -0.3446 -0.5803 -0.7379
vn -0.2538 -0.788 -0.5609
vn -0.8398 0.4097 -0.3563
vn -0.9293 0.1102 -0.3524
vn -0.8988 0.4161 -0.1377
vn -0.805 0.3633 -0.4689
vn -0.6524 0.5988 -0.4646
vn -0.8789 0.1154 -0.4629
vn -0.691 0.6354 -0.3447
vn -0.4231 0.7694 -0.4786
vn -0.7254 0.6777 -0.1206
vn -0.4393 0.8231 -0.36
vn -0.1406 0.8709 -0.4709
vn -0.4709 0.8709 -0.1406
vn -0.1592 0.9173 -0.365
vn -0.0227 0.8896 -0.4562
vn -0.0218 0.9346 -0.3551
vn -0.0189 0.9919 -0.1255
vn -0.1586 0.9801 -0.1193
vn -0.0169 0.9999 0.001
vn -0.1686 0.9855 -0.0195
vn -0.4818 0.876 -0.0229
vn -0.0172 0.9997 -0.0172
vn -0.729 0.6841 -0.0239
vn -0.7181 0.696 0.0014
vn -0.9038 0.4274 -0.0225
vn -0.8942 0.4477 0.0013
vn -0.9599 0.2797 -0.0209
vn -0.9897 0.143 0.0011
vn -0.9788 0.205 0.0012
vn -1 -0.001 0
vn -0.9546 0.2978 0.0012
vn -0.9919 0.1255 -0.0189
vn -0.9997 0.0171 0.0151
vn -0.9832 0.1394 -0.1176
vn -0.9945 0.0011 -0.1043
vn -0.9469 0.0012 -0.3214
vn -0.907 -0.0013 -0.421
vn -0.8863 -0.1391 -0.4417
vn -0.9897 -0.1428 0
vn -0.9782 -0.2075 0
vn -0.96 -0.2794 0.0197
vn -0.9827 -0.1561 -0.0992
vn -0.9332 -0.1327 -0.3339
vn -0.8393 -0.4306 -0.332
vn -0.8078 -0.3895 -0.4424
vn -0.894 -0.4329 -0.1156
vn -0.8944 -0.4472 0
vn -0.6833 -0.6591 -0.3141
vn -0.6511 -0.6227 -0.434
vn -0.7163 -0.6914 -0.0939
vn -0.4324 -0.8382 -0.3322
vn -0.4213 -0.789 -0.4472
vn -0.9025 -0.4301 0.0212
vn -0.1589 -0.9269 -0.3401
vn -0.1407 -0.8858 -0.4422
vn 0 -0.9466 -0.3225
vn 0 -0.9073 -0.4205
vn -0.4617 -0.8793 -0.1169
vn -0.1575 -0.9825 -0.0993
vn 0 -0.9944 -0.1054
vn -0.7188 -0.6953 0
vn -0.474 -0.8805 0
vn -0.1642 -0.9864 0
vn 0 -0.9999 0.0159
vn -0.7297 -0.6834 0.0225
vn -0.4829 -0.8754 0.0216
vn -0.1672 -0.9858 0.0183
vn -0.9547 -0.2974 0
vn -0.9919 -0.1254 0.0178
vn -0.9998 -0.0151 -0.0161
vn -0.9616 0.2746 0.0012
vn 0.0511 0.9985 -0.0177
vn 0.0503 0.9987 0.001
vn -0.0678 0.9977 0.001
vn -0.0689 0.9975 -0.018
vn 0.1898 0.9816 -0.0198
vn -0.2115 0.9772 -0.0201
vn 0.3551 0.9346 -0.0218
vn -0.38 0.9247 -0.022
vn 0.9999 0.0149 -0.001
vn 0.9999 -0.001 0.0159
vn 0.6366 0.7709 -0.0238
vn -0.6606 0.7504 -0.0238
vn 0.7823 0.6228 0.0014
vn 0.7929 0.6089 -0.0237
vn -0.8114 0.584 -0.0236
vn 0.9189 0.3945 0.0013
vn -0.9357 0.352 -0.0218
vn 0.983 0.1838 -0.0011
vn -0.9866 0.1631 0.0011
vn -0.9892 0.1455 -0.0192
vn 0.9995 0.0313 -0.001
vn 0.996 -0.0871 0.0172
vn -0.9999 -0.001 -0.0159
vn -0.9963 -0.0857 0
vn 0.9772 -0.2113 0.0189
vn 0.9437 -0.3302 0.0202
vn 0.9249 -0.3796 0.0207
vn -0.9471 -0.3211 0
vn 0.8461 -0.5326 0.0219
vn 0.7993 -0.6009 0
vn 0.8097 -0.5865 0.0222
vn -0.8523 -0.523 0
vn -0.8173 -0.5762 0
vn 0.7076 -0.7062 0.0225
vn 0.6967 -0.7174 0
vn 0.5849 -0.8108 0.0222
vn -0.6739 -0.7388 0
vn -0.5993 -0.8005 0
vn 0.9805 -0.193 -0.0379
vn 0.9528 -0.303 -0.02
vn 0.9437 -0.3302 -0.0202
vn 0.9961 -0.0711 -0.0525
vn 0.9177 -0.3972 0
vn 0.9973 -0.0528 -0.0517
vn 0.9913 0.0933 -0.0933
vn 0.8814 -0.4724 0
vn 0.989 0.1135 -0.0948
vn 0.9796 0.1614 -0.1195
vn 0.8523 -0.523 0
vn 0.9754 0.1841 -0.1215
vn 0.8173 -0.5762 0
vn 0.9511 0.2807 -0.129
vn 0.9338 0.3322 -0.1326
vn 0.862 0.4789 -0.1665
vn 0.7401 -0.6725 0
vn 0.828 0.5345 -0.1692
vn 0.8705 -0.4902 0.0439
vn 0.7051 0.6803 -0.1999
vn 0.6803 0.7051 -0.1999
vn 0.5024 0.8271 -0.252
vn 0.4736 0.8445 -0.2498
vn 0.2516 0.9346 -0.2516
vn 0.2782 0.9259 -0.2554
vn 0.1059 0.9554 -0.2758
vn 0.129 0.9511 -0.2807
vn 0.0012 0.9616 -0.2746
vn -0.129 0.9511 -0.2807
vn -0.1529 0.9461 -0.2856
vn -0.2782 0.9259 -0.2554
vn -0.3054 0.9163 -0.2591
vn -0.5311 0.8084 -0.2539
vn -0.5024 0.8271 -0.252
vn -0.729 0.6547 -0.1997
vn -0.7051 0.6803 -0.1999
vn -0.8772 0.451 -0.1649
vn -0.8456 0.5068 -0.1679
vn -0.9584 0.2557 -0.1272
vn -0.9429 0.3062 -0.1308
vn -0.9824 0.1587 -0.0981
vn -0.9796 0.1614 -0.1195
vn -0.9931 0.0736 -0.0917
vn -0.9913 0.0933 -0.0933
vn -0.9973 -0.0528 -0.0517
vn -0.9981 -0.035 -0.0509
vn -0.9845 -0.1715 -0.0373
vn -0.9375 -0.3481 0
vn -0.8461 -0.5326 0.0219
vn -0.8763 -0.4813 0.0216
vn -0.8899 -0.4556 0.0214
vn -0.8097 -0.5865 0.0222
vn 0 -0.001 -1
vn 0 -0.0169 -0.9999
vn -0.0159 -0.001 -0.9999
vn -0.0161 -0.0151 -0.9998
o pump__p0_c0
f 1/1/1 2/2/1 3/3/1
f 1/1/1 3/3/1 4/4/1
f 1/1/1 4/4/1 5/5/1
f 1/1/1 5/5/1 6/6/1
f 1/1/1 6/6/1 7/7/1
f 1/1/1 7/7/1 8/8/1
f 8/8/1 7/7/1 9/9/1
f 8/8/1 9/9/1 10/10/1
f 10/10/1 9/9/1 11/11/1
f 10/10/1 11/11/1 12/12/1
f 12/12/1 11/11/1 13/13/1
f 12/12/1 13/13/1 14/14/1
f 14/14/1 13/13/1 15/15/1
f 14/14/1 15/15/1 16/16/1
f 16/16/1 15/15/1 17/17/1
f 16/16/1 17/17/1 18/18/1
f 18/18/1 17/17/1 19/19/1
f 18/18/1 19/19/1 20/20/1
f 20/20/1 19/19/1 21/21/1
f 20/20/1 21/21/1 22/22/1
f 22/22/1 21/21/1 23/23/1
f 22/22/1 23/23/1 24/24/1
f 24/24/1 23/23/1 25/25/1
f 24/24/1 25/25/1 26/26/1
f 26/26/1 25/25/1 27/27/1
f 26/26/1 27/27/1 28/28/1
f 28/28/1 27/27/1 29/29/1
f 28/28/1 29/29/1 30/30/1
f 30/30/1 29/29/1 31/31/1
f 30/30/1 31/31/1 32/32/1
f 32/32/1 31/31/1 33/33/1
f 32/32/1 33/33/1 34/34/1
f 34/34/1 33/33/1 35/35/1
f 34/34/1 35/35/1 36/36/1
f 36/36/1 35/35/1 37/37/1
f 36/36/1 37/37/1 38/38/1
f 38/38/1 37/37/1 39/39/1
f 38/38/1 39/39/1 40/40/1
f 40/40/1 39/39/1 41/41/1
f 40/40/1 41/41/1 42/42/1
f 42/42/1 41/41/1 43/43/1
f 42/42/1 43/43/1 44/44/1
f 44/44/1 43/43/1 45/45/1
f 44/44/1 45/45/1 46/46/1
f 46/46/1 45/45/1 47/47/1
f 46/46/1 47/47/1 48/48/1
f 48/48/1 47/47/1 49/49/1
f 48/48/1 49/49/1 50/50/1
f 50/50/1 49/49/1 51/51/1
f 50/50/1 51/51/1 52/52/1
f 52/52/1 51/51/1 53/53/1
f 52/52/1 53/53/1 54/54/1
f 54/54/1 53/53/1 55/55/1
f 54/54/1 55/55/1 56/56/1
f 56/56/1 55/55/1 57/57/1
f 56/56/1 57/57/1 58/58/1
f 58/58/1 57/57/1 59/59/1
f 58/58/1 59/59/1 60/60/1
f 60/60/1 59/59/1 61/61/1
f 60/60/1 61/61/1 62/62/1
f 62/62/1 61/61/1 63/63/1
f 62/62/1 63/63/1 64/64/1
f 64/64/1 63/63/1 65/65/1
f 64/64/1 65/65/1 66/66/1
f 66/66/1 65/65/1 67/67/1
f 66/66/1 67/67/1 68/68/1
f 68/68/1 67/67/1 69/69/1
f 68/68/1 69/69/1 70/70/1
f 70/70/1 69/69/1 71/71/1
f 70/70/1 71/71/1 72/72/1
f 72/72/1 71/71/1 73/73/1
f 72/72/1 73/73/1 74/74/1
f 74/74/1 73/73/1 75/75/1
f 74/74/1 75/75/1 76/76/1
f 76/76/1 75/75/1 77/77/1
f 76/76/1 77/77/1 78/78/1
f 78/78/1 77/77/1 79/79/1
f 78/78/1 79/79/1 80/80/1
f 80/80/1 79/79/1 81/81/1
f 80/80/1 81/81/1 82/82/1
f 82/82/1 81/81/1 83/83/1
f 82/82/1 83/83/1 84/84/1
f 82/82/1 84/84/1 85/85/1
f 82/82/1 85/85/1 86/86/1
f 84/84/2 87/87/3 85/85/4
f 87/87/3 88/88/5 85/85/4
f 87/87/3 89/89/6 88/88/5
f 90/90/7 91/91/8 92/92/9
f 92/92/9 91/91/8 93/93/10
f 90/90/7 92/92/9 94/94/11
f 93/93/10 91/91/8 95/95/12
f 90/90/7 94/94/11 96/96/13
f 95/95/12 91/91/8 97/97/14
f 96/96/13 94/94/11 98/98/15
f 95/95/12 97/97/14 88/88/5
f 88/88/5 97/97/14 99/99/16
f 88/88/5 99/99/16 85/85/4
f 85/85/4 99/99/16 86/86/17
f 96/96/13 98/98/15 100/100/18
f 100/100/18 98/98/15 101/101/19
f 100/100/18 101/101/19 102/102/20
f 101/101/19 98/98/15 103/103/21
f 101/101/19 103/103/21 104/104/22
f 98/98/15 94/94/11 105/105/23
f 98/98/15 105/105/23 103/103/21
f 105/105/23 94/94/11 106/106/24
f 106/106/24 94/94/11 92/92/9
f 106/106/24 92/92/9 93/93/10
f 106/106/24 93/93/10 107/107/25
f 107/107/25 93/93/10 95/95/12
f 105/105/23 106/106/24 108/108/26
f 108/108/26 106/106/24 107/107/25
f 109/109/27 103/103/21 105/105/23
f 109/109/27 105/105/23 108/108/26
f 103/103/21 109/109/27 110/110/28
f 103/103/21 110/110/28 104/104/22
f 104/104/22 110/110/28 111/111/29
f 89/89/6 107/107/25 95/95/12
f 89/89/6 95/95/12 88/88/5
f 112/112/30 108/108/26 107/107/25
f 112/112/30 107/107/25 89/89/6
f 108/108/26 112/112/30 113/113/31
f 108/108/26 113/113/31 109/109/27
f 112/112/30 89/89/6 114/114/32
f 114/114/32 89/89/6 87/87/3
f 112/112/30 114/114/32 115/115/33
f 112/112/30 115/115/33 113/113/31
f 114/114/32 87/87/3 116/116/34
f 116/116/34 87/87/3 84/84/2
f 116/116/34 84/84/2 83/83/35
f 114/114/32 116/116/34 117/117/36
f 114/114/32 117/117/36 115/115/33
f 116/116/34 83/83/35 118/118/37
f 116/116/34 118/118/37 117/117/36
f 118/118/37 83/83/35 81/81/38
f 118/118/37 81/81/38 79/79/39
f 118/118/37 79/79/39 119/119/40
f 118/118/37 119/119/40 117/117/36
f 119/119/40 79/79/39 77/77/41
f 120/120/42 115/115/33 117/117/36
f 120/120/42 117/117/36 119/119/40
f 119/119/40 77/77/41 121/121/43
f 119/119/40 121/121/43 120/120/42
f 121/121/43 77/77/41 75/75/44
f 121/121/43 75/75/44 122/122/45
f 122/122/45 75/75/44 73/73/46
f 120/120/42 121/121/43 123/123/47
f 123/123/47 121/121/43 122/122/45
f 124/124/48 115/115/33 120/120/42
f 124/124/48 120/120/42 123/123/47
f 115/115/33 124/124/48 125/125/49
f 115/115/33 125/125/49 113/113/31
f 122/122/45 73/73/46 126/126/50
f 126/126/50 73/73/46 71/71/51
f 123/123/47 122/122/45 127/127/52
f 127/127/52 122/122/45 126/126/50
f 124/124/48 123/123/47 128/128/53
f 128/128/53 123/123/47 127/127/52
f 129/129/54 125/125/49 124/124/48
f 129/129/54 124/124/48 128/128/53
f 126/126/50 71/71/51 130/130/55
f 130/130/55 71/71/51 69/69/56
f 127/127/52 126/126/50 131/131/57
f 131/131/57 126/126/50 130/130/55
f 128/128/53 127/127/52 132/132/58
f 132/132/58 127/127/52 131/131/57
f 129/129/54 128/128/53 133/133/59
f 133/133/59 128/128/53 132/132/58
f 130/130/55 69/69/56 134/134/60
f 134/134/60 69/69/56 67/67/61
f 131/131/57 130/130/55 135/135/52
f 135/135/52 130/130/55 134/134/60
f 132/132/58 131/131/57 136/136/62
f 136/136/62 131/131/57 135/135/52
f 133/133/59 132/132/58 137/137/63
f 137/137/63 132/132/58 136/136/62
f 134/134/60 67/67/61 138/138/64
f 138/138/64 67/67/61 65/65/65
f 135/135/52 134/134/60 139/139/66
f 139/139/66 134/134/60 138/138/64
f 136/136/62 135/135/52 140/140/67
f 140/140/67 135/135/52 139/139/66
f 137/137/63 136/136/62 141/141/68
f 141/141/68 136/136/62 140/140/67
f 138/138/64 65/65/65 142/142/69
f 142/142/69 65/65/65 63/63/70
f 139/139/66 138/138/64 143/143/71
f 143/143/71 138/138/64 142/142/69
f 140/140/67 139/139/66 144/144/72
f 144/144/72 139/139/66 143/143/71
f 141/141/68 140/140/67 145/145/73
f 145/145/73 140/140/67 144/144/72
f 142/142/69 63/63/70 146/146/74
f 146/146/74 63/63/70 61/61/75
f 143/143/71 142/142/69 147/147/76
f 147/147/76 142/142/69 146/146/74
f 144/144/72 143/143/71 148/148/77
f 148/148/77 143/143/71 147/147/76
f 145/145/73 144/144/72 149/149/78
f 149/149/78 144/144/72 148/148/77
f 146/146/74 61/61/75 150/150/79
f 150/150/79 61/61/75 59/59/80
f 147/147/76 146/146/74 151/151/81
f 151/151/81 146/146/74 150/150/79
f 148/148/77 147/147/76 152/152/33
f 152/152/33 147/147/76 151/151/81
f 149/149/78 148/148/77 153/153/31
f 153/153/31 148/148/77 152/152/33
f 150/150/79 59/59/80 154/154/82
f 154/154/82 59/59/80 57/57/83
f 151/151/81 150/150/79 155/155/84
f 155/155/84 150/150/79 154/154/82
f 152/152/33 151/151/81 156/156/85
f 156/156/85 151/151/81 155/155/84
f 153/153/31 152/152/33 157/157/86
f 157/157/86 152/152/33 156/156/85
f 154/154/82 57/57/83 158/158/87
f 158/158/87 57/57/83 55/55/88
f 155/155/84 154/154/82 159/159/89
f 159/159/89 154/154/82 158/158/87
f 156/156/85 155/155/84 160/160/90
f 160/160/90 155/155/84 159/159/89
f 157/157/86 156/156/85 161/161/91
f 161/161/91 156/156/85 160/160/90
f 158/158/87 55/55/88 162/162/92
f 162/162/92 55/55/88 53/53/93
f 159/159/89 158/158/87 163/163/94
f 163/163/94 158/158/87 162/162/92
f 160/160/90 159/159/89 164/164/95
f 164/164/95 159/159/89 163/163/94
f 161/161/91 160/160/90 165/165/96
f 165/165/96 160/160/90 164/164/95
f 166/166/97 17/17/98 167/167/99
f 167/167/99 17/17/98 15/15/100
f 17/17/98 166/166/97 19/19/101
f 167/167/99 15/15/100 168/168/102
f 168/168/102 15/15/100 13/13/103
f 166/166/97 167/167/99 169/169/104
f 167/167/99 168/168/102 170/170/105
f 167/167/99 170/170/105 169/169/104
f 168/168/102 13/13/103 171/171/106
f 171/171/106 13/13/103 11/11/107
f 170/170/105 168/168/102 172/172/104
f 172/172/104 168/168/102 171/171/106
f 169/169/104 170/170/105 173/173/108
f 170/170/105 172/172/104 174/174/109
f 170/170/105 174/174/109 173/173/108
f 171/171/106 11/11/107 175/175/110
f 175/175/110 11/11/107 9/9/111
f 172/172/104 171/171/106 176/176/112
f 176/176/112 171/171/106 175/175/110
f 174/174/109 172/172/104 177/177/113
f 177/177/113 172/172/104 176/176/112
f 175/175/110 9/9/111 178/178/114
f 178/178/114 9/9/111 7/7/115
f 176/176/112 175/175/110 179/179/116
f 179/179/116 175/175/110 178/178/114
f 177/177/113 176/176/112 180/180/117
f 180/180/117 176/176/112 179/179/116
f 178/178/114 7/7/115 181/181/118
f 181/181/118 7/7/115 6/6/119
f 181/181/118 6/6/119 5/5/120
f 178/178/114 181/181/118 182/182/121
f 178/178/114 182/182/121 179/179/116
f 181/181/118 5/5/120 183/183/122
f 181/181/118 183/183/122 182/182/121
f 183/183/122 5/5/120 4/4/123
f 179/179/116 182/182/121 184/184/124
f 179/179/116 184/184/124 180/180/117
f 182/182/121 183/183/122 185/185/125
f 182/182/121 185/185/125 184/184/124
f 183/183/122 4/4/123 186/186/126
f 183/183/122 186/186/126 185/185/125
f 186/186/126 4/4/123 3/3/127
f 187/187/128 3/3/127 2/2/129
f 3/3/127 187/187/128 188/188/130
f 3/3/127 188/188/130 186/186/126
f 188/188/130 187/187/128 189/189/131
f 185/185/125 186/186/126 190/190/132
f 190/190/132 186/186/126 188/188/130
f 188/188/130 189/189/131 191/191/133
f 188/188/130 191/191/133 190/190/132
f 191/191/133 189/189/131 192/192/134
f 185/185/125 190/190/132 193/193/135
f 185/185/125 193/193/135 184/184/124
f 190/190/132 191/191/133 194/194/136
f 190/190/132 194/194/136 193/193/135
f 191/191/133 192/192/134 195/195/137
f 191/191/133 195/195/137 194/194/136
f 195/195/137 192/192/134 196/196/138
f 196/196/138 192/192/134 197/197/139
f 194/194/136 195/195/137 198/198/140
f 198/198/140 195/195/137 196/196/138
f 193/193/135 194/194/136 199/199/141
f 199/199/141 194/194/136 198/198/140
f 196/196/138 197/197/139 200/200/142
f 196/196/138 200/200/142 198/198/140
f 200/200/142 197/197/139 201/201/143
f 193/193/135 199/199/141 202/202/144
f 193/193/135 202/202/144 184/184/124
f 199/199/141 198/198/140 203/203/145
f 203/203/145 198/198/140 200/200/142
f 200/200/142 201/201/143 204/204/146
f 200/200/142 204/204/146 203/203/145
f 204/204/146 201/201/143 205/205/147
f 204/204/146 205/205/147 206/206/148
f 206/206/148 205/205/147 207/207/149
f 204/204/146 206/206/148 208/208/150
f 204/204/146 208/208/150 203/203/145
f 208/208/150 206/206/148 209/209/151
f 210/210/152 199/199/141 203/203/145
f 210/210/152 203/203/145 208/208/150
f 199/199/141 210/210/152 202/202/144
f 208/208/150 209/209/151 211/211/153
f 208/208/150 211/211/153 210/210/152
f 211/211/153 209/209/151 212/212/154
f 202/202/144 210/210/152 213/213/155
f 213/213/155 210/210/152 211/211/153
f 211/211/153 212/212/154 214/214/156
f 211/211/153 214/214/156 213/213/155
f 214/214/156 212/212/154 215/215/157
f 214/214/156 215/215/157 216/216/158
f 214/214/156 216/216/158 217/217/159
f 214/214/156 217/217/159 213/213/155
f 217/217/159 216/216/158 218/218/160
f 219/219/161 202/202/144 213/213/155
f 219/219/161 213/213/155 217/217/159
f 217/217/159 218/218/160 220/220/162
f 217/217/159 220/220/162 219/219/161
f 220/220/162 218/218/160 221/221/163
f 202/202/144 219/219/161 222/222/164
f 202/202/144 222/222/164 184/184/124
f 184/184/124 222/222/164 180/180/117
f 222/222/164 219/219/161 223/223/165
f 223/223/165 219/219/161 220/220/162
f 180/180/117 222/222/164 224/224/166
f 224/224/166 222/222/164 223/223/165
f 180/180/117 224/224/166 177/177/113
f 225/225/167 220/220/162 221/221/163
f 220/220/162 225/225/167 223/223/165
f 225/225/167 221/221/163 226/226/168
f 224/224/166 223/223/165 227/227/169
f 227/227/169 223/223/165 225/225/167
f 177/177/113 224/224/166 228/228/170
f 228/228/170 224/224/166 227/227/169
f 177/177/113 228/228/170 174/174/109
f 225/225/167 226/226/168 229/229/171
f 225/225/167 229/229/171 227/227/169
f 229/229/171 226/226/168 230/230/172
f 228/228/170 227/227/169 231/231/173
f 231/231/173 227/227/169 229/229/171
f 174/174/109 228/228/170 232/232/174
f 232/232/174 228/228/170 231/231/173
f 174/174/109 232/232/174 173/173/108
f 229/229/171 230/230/172 233/233/175
f 229/229/171 233/233/175 231/231/173
f 233/233/175 230/230/172 234/234/176
f 232/232/174 231/231/173 235/235/169
f 235/235/169 231/231/173 233/233/175
f 173/173/108 232/232/174 236/236/177
f 236/236/177 232/232/174 235/235/169
f 233/233/175 234/234/176 237/237/178
f 233/233/175 237/237/178 235/235/169
f 237/237/178 234/234/176 238/238/179
f 173/173/108 236/236/177 239/239/180
f 173/173/108 239/239/180 169/169/104
f 236/236/177 235/235/169 240/240/181
f 240/240/181 235/235/169 237/237/178
f 237/237/178 238/238/179 241/241/182
f 237/237/178 241/241/182 240/240/181
f 241/241/182 238/238/179 242/242/183
f 236/236/177 240/240/181 243/243/184
f 236/236/177 243/243/184 239/239/180
f 240/240/181 241/241/182 244/244/185
f 240/240/181 244/244/185 243/243/184
f 241/241/182 242/242/183 245/245/186
f 241/241/182 245/245/186 244/244/185
f 245/245/186 242/242/183 246/246/187
f 245/245/186 246/246/187 247/247/188
f 247/247/188 246/246/187 248/248/189
f 244/244/185 245/245/186 249/249/190
f 249/249/190 245/245/186 247/247/188
f 250/250/191 243/243/184 244/244/185
f 250/250/191 244/244/185 249/249/190
f 243/243/184 250/250/191 251/251/192
f 243/243/184 251/251/192 239/239/180
f 252/252/193 253/253/193 86/86/193
f 254/254/194 162/162/92 53/53/93
f 254/254/194 53/53/93 51/51/195
f 255/255/196 163/163/94 162/162/92
f 255/255/196 162/162/92 254/254/194
f 256/256/197 164/164/95 163/163/94
f 256/256/197 163/163/94 255/255/196
f 257/257/198 165/165/96 164/164/95
f 257/257/198 164/164/95 256/256/197
f 258/258/199 254/254/194 51/51/195
f 258/258/199 51/51/195 49/49/200
f 259/259/201 255/255/196 254/254/194
f 259/259/201 254/254/194 258/258/199
f 260/260/202 256/256/197 255/255/196
f 260/260/202 255/255/196 259/259/201
f 261/261/203 257/257/198 256/256/197
f 261/261/203 256/256/197 260/260/202
f 262/262/204 258/258/199 49/49/200
f 262/262/204 49/49/200 47/47/205
f 262/262/204 47/47/205 263/263/206
f 258/258/199 262/262/204 264/264/207
f 258/258/199 264/264/207 259/259/201
f 262/262/204 263/263/206 265/265/208
f 262/262/204 265/265/208 264/264/207
f 265/265/208 263/263/206 266/266/209
f 259/259/201 264/264/207 267/267/210
f 259/259/201 267/267/210 260/260/202
f 264/264/207 265/265/208 268/268/211
f 264/264/207 268/268/211 267/267/210
f 265/265/208 266/266/209 269/269/212
f 265/265/208 269/269/212 268/268/211
f 269/269/212 266/266/209 270/270/213
f 270/270/213 266/266/209 271/271/214
f 270/270/213 271/271/214 272/272/215
f 270/270/213 272/272/215 273/273/216
f 270/270/213 273/273/216 274/274/217
f 270/270/213 274/274/217 269/269/212
f 274/274/217 273/273/216 275/275/218
f 274/274/217 275/275/218 276/276/219
f 269/269/212 274/274/217 277/277/220
f 277/277/220 274/274/217 276/276/219
f 269/269/212 277/277/220 268/268/211
f 277/277/220 276/276/219 278/278/221
f 278/278/221 276/276/219 279/279/222
f 268/268/211 277/277/220 280/280/223
f 280/280/223 277/277/220 278/278/221
f 268/268/211 280/280/223 267/267/210
f 278/278/221 279/279/222 281/281/224
f 281/281/224 279/279/222 282/282/225
f 281/281/224 282/282/225 283/283/226
f 278/278/221 281/281/224 284/284/227
f 278/278/221 284/284/227 280/280/223
f 281/281/224 283/283/226 285/285/228
f 281/281/224 285/285/228 284/284/227
f 285/285/228 283/283/226 286/286/229
f 287/287/230 267/267/210 280/280/223
f 287/287/230 280/280/223 284/284/227
f 267/267/210 287/287/230 260/260/202
f 260/260/202 287/287/230 261/261/203
f 287/287/230 284/284/227 288/288/231
f 288/288/231 284/284/227 285/285/228
f 287/287/230 288/288/231 261/261/203
f 289/289/232 285/285/228 286/286/229
f 285/285/228 289/289/232 288/288/231
f 289/289/232 286/286/229 290/290/233
f 261/261/203 288/288/231 291/291/234
f 291/291/234 288/288/231 289/289/232
f 261/261/203 291/291/234 257/257/198
f 289/289/232 290/290/233 292/292/235
f 289/289/232 292/292/235 291/291/234
f 292/292/235 290/290/233 293/293/236
f 257/257/198 291/291/234 294/294/237
f 294/294/237 291/291/234 292/292/235
f 257/257/198 294/294/237 165/165/96
f 292/292/235 293/293/236 295/295/238
f 292/292/235 295/295/238 294/294/237
f 295/295/238 293/293/236 296/296/239
f 165/165/96 294/294/237 297/297/240
f 297/297/240 294/294/237 295/295/238
f 165/165/96 297/297/240 161/161/91
f 295/295/238 296/296/239 298/298/241
f 295/295/238 298/298/241 297/297/240
f 298/298/241 296/296/239 299/299/242
f 161/161/91 297/297/240 300/300/243
f 300/300/243 297/297/240 298/298/241
f 161/161/91 300/300/243 157/157/86
f 298/298/241 299/299/242 301/301/244
f 298/298/241 301/301/244 300/300/243
f 301/301/244 299/299/242 302/302/245
f 157/157/86 300/300/243 303/303/246
f 303/303/246 300/300/243 301/301/244
f 157/157/86 303/303/246 153/153/31
f 301/301/244 302/302/245 304/304/247
f 301/301/244 304/304/247 303/303/246
f 304/304/247 302/302/245 305/305/248
f 153/153/31 303/303/246 306/306/249
f 306/306/249 303/303/246 304/304/247
f 153/153/31 306/306/249 149/149/78
f 304/304/247 305/305/248 307/307/250
f 304/304/247 307/307/250 306/306/249
f 307/307/250 305/305/248 308/308/251
f 149/149/78 306/306/249 309/309/252
f 309/309/252 306/306/249 307/307/250
f 149/149/78 309/309/252 145/145/73
f 307/307/250 308/308/251 310/310/253
f 307/307/250 310/310/253 309/309/252
f 310/310/253 308/308/251 311/311/254
f 145/145/73 309/309/252 312/312/255
f 312/312/255 309/309/252 310/310/253
f 145/145/73 312/312/255 141/141/68
f 310/310/253 311/311/254 313/313/256
f 310/310/253 313/313/256 312/312/255
f 313/313/256 311/311/254 314/314/257
f 141/141/68 312/312/255 315/315/258
f 315/315/258 312/312/255 313/313/256
f 141/141/68 315/315/258 137/137/63
f 313/313/256 314/314/257 316/316/259
f 313/313/256 316/316/259 315/315/258
f 316/316/259 314/314/257 317/317/260
f 137/137/63 315/315/258 318/318/261
f 318/318/261 315/315/258 316/316/259
f 137/137/63 318/318/261 133/133/59
f 316/316/259 317/317/260 319/319/262
f 316/316/259 319/319/262 318/318/261
f 319/319/262 317/317/260 320/320/263
f 133/133/59 318/318/261 321/321/258
f 321/321/258 318/318/261 319/319/262
f 133/133/59 321/321/258 129/129/54
f 319/319/262 320/320/263 322/322/264
f 319/319/262 322/322/264 321/321/258
f 322/322/264 320/320/263 323/323/265
f 129/129/54 321/321/258 324/324/266
f 324/324/266 321/321/258 322/322/264
f 129/129/54 324/324/266 125/125/49
f 322/322/264 323/323/265 325/325/267
f 322/322/264 325/325/267 324/324/266
f 325/325/267 323/323/265 326/326/268
f 125/125/49 324/324/266 327/327/269
f 327/327/269 324/324/266 325/325/267
f 125/125/49 327/327/269 113/113/31
f 325/325/267 326/326/268 328/328/270
f 325/325/267 328/328/270 327/327/269
f 328/328/270 326/326/268 329/329/271
f 113/113/31 327/327/269 330/330/272
f 330/330/272 327/327/269 328/328/270
f 113/113/31 330/330/272 109/109/27
f 109/109/27 330/330/272 110/110/28
f 330/330/272 328/328/270 331/331/273
f 331/331/273 328/328/270 329/329/271
f 330/330/272 331/331/273 110/110/28
f 331/331/273 329/329/271 332/332/274
f 110/110/28 331/331/273 111/111/29
f 111/111/29 331/331/273 332/332/274
f 333/333/275 247/247/188 248/248/189
f 333/333/275 248/248/189 334/334/276
f 335/335/277 249/249/190 247/247/188
f 335/335/277 247/247/188 333/333/275
f 336/336/144 250/250/191 249/249/190
f 336/336/144 249/249/190 335/335/277
f 337/337/278 251/251/192 250/250/191
f 337/337/278 250/250/191 336/336/144
f 338/338/279 333/333/275 334/334/276
f 338/338/279 334/334/276 339/339/280
f 340/340/281 335/335/277 333/333/275
f 340/340/281 333/333/275 338/338/279
f 341/341/282 336/336/144 335/335/277
f 341/341/282 335/335/277 340/340/281
f 342/342/124 337/337/278 336/336/144
f 342/342/124 336/336/144 341/341/282
f 343/343/283 338/338/279 339/339/280
f 343/343/283 339/339/280 344/344/284
f 345/345/285 340/340/281 338/338/279
f 345/345/285 338/338/279 343/343/283
f 346/346/286 341/341/282 340/340/281
f 346/346/286 340/340/281 345/345/285
f 347/347/287 342/342/124 341/341/282
f 347/347/287 341/341/282 346/346/286
f 348/348/288 343/343/283 344/344/284
f 348/348/288 344/344/284 349/349/289
f 350/350/290 345/345/285 343/343/283
f 350/350/290 343/343/283 348/348/288
f 351/351/291 346/346/286 345/345/285
f 351/351/291 345/345/285 350/350/290
f 352/352/292 347/347/287 346/346/286
f 352/352/292 346/346/286 351/351/291
f 353/353/293 348/348/288 349/349/289
f 353/353/293 349/349/289 354/354/294
f 355/355/295 350/350/290 348/348/288
f 355/355/295 348/348/288 353/353/293
f 356/356/296 351/351/291 350/350/290
f 356/356/296 350/350/290 355/355/295
f 357/357/297 352/352/292 351/351/291
f 357/357/297 351/351/291 356/356/296
f 358/358/298 353/353/293 354/354/294
f 358/358/298 354/354/294 359/359/299
f 360/360/300 355/355/295 353/353/293
f 360/360/300 353/353/293 358/358/298
f 361/361/301 356/356/296 355/355/295
f 361/361/301 355/355/295 360/360/300
f 362/362/302 357/357/297 356/356/296
f 362/362/302 356/356/296 361/361/301
f 363/363/303 358/358/298 359/359/299
f 363/363/303 359/359/299 364/364/304
f 365/365/305 360/360/300 358/358/298
f 365/365/305 358/358/298 363/363/303
f 366/366/306 361/361/301 360/360/300
f 366/366/306 360/360/300 365/365/305
f 367/367/307 362/362/302 361/361/301
f 367/367/307 361/361/301 366/366/306
f 368/368/308 363/363/303 364/364/304
f 368/368/308 364/364/304 369/369/309
f 370/370/310 365/365/305 363/363/303
f 370/370/310 363/363/303 368/368/308
f 371/371/311 366/366/306 365/365/305
f 371/371/311 365/365/305 370/370/310
f 372/372/312 367/367/307 366/366/306
f 372/372/312 366/366/306 371/371/311
f 373/373/313 368/368/308 369/369/309
f 373/373/313 369/369/309 374/374/314
f 375/375/315 370/370/310 368/368/308
f 375/375/315 368/368/308 373/373/313
f 376/376/316 371/371/311 370/370/310
f 376/376/316 370/370/310 375/375/315
f 377/377/317 372/372/312 371/371/311
f 377/377/317 371/371/311 376/376/316
f 376/376/316 375/375/315 378/378/318
f 375/375/315 373/373/313 379/379/319
f 375/375/315 379/379/319 378/378/318
f 379/379/319 373/373/313 380/380/320
f 380/380/320 373/373/313 374/374/314
f 377/377/317 376/376/316 381/381/321
f 381/381/321 376/376/316 378/378/318
f 380/380/320 374/374/314 382/382/322
f 382/382/322 374/374/314 383/383/323
f 382/382/322 383/383/323 279/279/222
f 279/279/222 383/383/323 282/282/225
f 382/382/322 279/279/222 276/276/219
f 382/382/322 276/276/219 275/275/218
f 382/382/322 275/275/218 380/380/320
f 380/380/320 275/275/218 384/384/324
f 380/380/320 384/384/324 379/379/319
f 384/384/324 275/275/218 273/273/216
f 379/379/319 384/384/324 385/385/325
f 379/379/319 385/385/325 378/378/318
f 384/384/324 273/273/216 386/386/326
f 384/384/324 386/386/326 385/385/325
f 386/386/326 273/273/216 272/272/215
f 386/386/326 272/272/215 387/387/327
f 385/385/325 386/386/326 388/388/328
f 388/388/328 386/386/326 387/387/327
f 378/378/318 385/385/325 389/389/329
f 389/389/329 385/385/325 388/388/328
f 378/378/318 389/389/329 381/381/321
f 387/387/327 272/272/215 390/390/330
f 387/387/327 390/390/330 388/388/328
f 390/390/330 272/272/215 271/271/214
f 389/389/329 388/388/328 391/391/331
f 391/391/331 388/388/328 390/390/330
f 381/381/321 389/389/329 392/392/332
f 392/392/332 389/389/329 391/391/331
f 381/381/321 392/392/332 393/393/333
f 381/381/321 393/393/333 377/377/317
f 390/390/330 271/271/214 394/394/334
f 390/390/330 394/394/334 391/391/331
f 394/394/334 271/271/214 395/395/335
f 395/395/335 271/271/214 266/266/209
f 395/395/335 266/266/209 263/263/206
f 395/395/335 263/263/206 45/45/336
f 45/45/336 263/263/206 47/47/205
f 395/395/335 45/45/336 43/43/337
f 395/395/335 43/43/337 394/394/334
f 396/396/338 391/391/331 394/394/334
f 396/396/338 394/394/334 43/43/337
f 391/391/331 396/396/338 392/392/332
f 396/396/338 43/43/337 41/41/339
f 392/392/332 396/396/338 397/397/340
f 397/397/340 396/396/338 41/41/339
f 392/392/332 397/397/340 393/393/333
f 397/397/340 41/41/339 39/39/341
f 397/397/340 39/39/341 398/398/342
f 397/397/340 398/398/342 393/393/333
f 398/398/342 39/39/341 37/37/343
f 393/393/333 398/398/342 399/399/344
f 393/393/333 399/399/344 377/377/317
f 377/377/317 399/399/344 372/372/312
f 398/398/342 37/37/343 400/400/345
f 398/398/342 400/400/345 399/399/344
f 400/400/345 37/37/343 35/35/346
f 372/372/312 399/399/344 401/401/347
f 401/401/347 399/399/344 400/400/345
f 372/372/312 401/401/347 367/367/307
f 400/400/345 35/35/346 402/402/348
f 400/400/345 402/402/348 401/401/347
f 402/402/348 35/35/346 33/33/349
f 367/367/307 401/401/347 403/403/350
f 403/403/350 401/401/347 402/402/348
f 367/367/307 403/403/350 362/362/302
f 402/402/348 33/33/349 404/404/351
f 402/402/348 404/404/351 403/403/350
f 404/404/351 33/33/349 31/31/352
f 362/362/302 403/403/350 405/405/353
f 405/405/353 403/403/350 404/404/351
f 362/362/302 405/405/353 357/357/297
f 404/404/351 31/31/352 406/406/354
f 404/404/351 406/406/354 405/405/353
f 406/406/354 31/31/352 29/29/355
f 357/357/297 405/405/353 407/407/356
f 407/407/356 405/405/353 406/406/354
f 357/357/297 407/407/356 352/352/292
f 406/406/354 29/29/355 408/408/357
f 406/406/354 408/408/357 407/407/356
f 408/408/357 29/29/355 27/27/358
f 352/352/292 407/407/356 409/409/359
f 409/409/359 407/407/356 408/408/357
f 352/352/292 409/409/359 347/347/287
f 408/408/357 27/27/358 410/410/360
f 408/408/357 410/410/360 409/409/359
f 410/410/360 27/27/358 25/25/361
f 347/347/287 409/409/359 411/411/362
f 411/411/362 409/409/359 410/410/360
f 347/347/287 411/411/362 342/342/124
f 410/410/360 25/25/361 412/412/363
f 410/410/360 412/412/363 411/411/362
f 412/412/363 25/25/361 23/23/364
f 342/342/124 411/411/362 413/413/365
f 413/413/365 411/411/362 412/412/363
f 342/342/124 413/413/365 337/337/278
f 412/412/363 23/23/364 414/414/366
f 412/412/363 414/414/366 413/413/365
f 414/414/366 23/23/364 21/21/367
f 337/337/278 413/413/365 415/415/368
f 415/415/368 413/413/365 414/414/366
f 337/337/278 415/415/368 251/251/192
f 414/414/366 21/21/367 416/416/369
f 414/414/366 416/416/369 415/415/368
f 416/416/369 21/21/367 19/19/101
f 416/416/369 19/19/101 166/166/97
f 415/415/368 416/416/369 417/417/370
f 415/415/368 417/417/370 251/251/192
f 417/417/370 416/416/369 166/166/97
f 251/251/192 417/417/370 239/239/180
f 417/417/370 166/166/97 169/169/104
f 417/417/370 169/169/104 239/239/180
f 418/418/371 419/419/372 420/420/371
f 421/421/373 420/420/371 422/422/374
f 422/422/374 420/420/371 423/423/375
f 423/423/375 420/420/371 419/419/372
f 422/422/374 423/423/375 424/424/376
f 423/423/375 419/419/372 425/425/377
f 423/423/375 425/425/377 424/424/376
f 425/425/377 419/419/372 426/426/378
f 425/425/377 426/426/378 427/427/379
f 425/425/377 427/427/379 428/428/380
f 425/425/377 428/428/380 424/424/376
f 428/428/380 427/427/379 429/429/381
f 429/429/381 427/427/379 430/430/382
f 429/429/381 430/430/382 431/431/383
f 429/429/381 431/431/383 432/432/383
f 429/429/381 432/432/383 433/433/384
f 429/429/381 433/433/384 434/434/385
f 429/429/381 434/434/385 428/428/380
f 428/428/380 434/434/385 435/435/386
f 428/428/380 435/435/386 424/424/376
f 434/436/385 433/437/384 435/435/386
f 435/435/386 433/437/384 436/438/387
f 435/435/386 436/438/387 424/424/376
f 424/424/376 436/438/387 437/439/388
f 424/424/376 437/439/388 422/440/374
f 422/440/374 437/439/388 421/441/373
f 438/442/389 439/443/389 440/444/390
f 440/444/390 439/443/389 441/445/390
f 439/443/389 438/442/389 442/446/391
f 440/444/390 441/445/390 443/447/392
f 442/446/391 438/442/389 444/448/391
f 443/447/392 441/445/390 445/449/392
f 442/446/391 444/448/391 446/450/393
f 443/447/392 445/449/392 447/451/394
f 446/450/393 444/448/391 448/452/395
f 447/451/394 445/449/392 449/453/396
f 446/450/393 448/452/395 450/454/397
f 447/451/394 449/453/396 451/455/398
f 450/454/397 448/452/395 452/456/399
f 451/455/398 449/453/396 453/457/400
f 450/454/397 452/456/399 454/458/401
f 451/455/398 453/457/400 455/459/402
f 454/458/401 452/456/399 456/460/403
f 455/459/402 453/457/400 457/461/404
f 454/458/401 456/460/403 458/462/405
f 455/459/402 457/461/404 459/463/406
f 454/458/401 458/462/405 460/464/407
f 459/463/406 457/461/404 461/465/408
f 460/464/407 458/462/405 462/466/409
f 459/463/406 461/465/408 463/467/410
f 460/464/407 462/466/409 464/468/409
f 459/463/406 463/467/410 465/469/411
f 464/468/409 462/466/409 466/470/407
f 465/469/411 463/467/410 467/471/412
f 464/468/409 466/470/407 468/472/407
f 465/469/411 467/471/412 469/473/413
f 468/472/407 466/470/407 470/474/414
f 469/473/413 467/471/412 471/475/415
f 470/474/414 466/470/407 472/476/416
f 470/474/414 472/476/416 473/477/417
f 470/474/414 473/477/417 474/478/418
f 469/473/413 471/475/415 475/479/415
f 475/479/415 471/475/415 474/480/418
f 475/479/415 474/480/418 473/481/417
f 476/482/419 477/483/420 478/484/421
f 477/483/420 476/482/419 479/485/422
f 479/485/422 476/482/419 480/486/423
f 477/483/420 479/485/422 481/487/424
f 480/486/423 476/482/419 482/488/425
f 480/486/423 482/488/425 483/489/426
f 482/488/425 476/482/419 484/490/427
f 484/490/427 476/482/419 478/484/421
f 483/489/426 482/488/425 485/491/428
f 483/489/426 485/491/428 486/492/429
f 482/488/425 484/490/427 487/493/430
f 482/488/425 487/493/430 485/491/428
f 486/492/429 485/491/428 488/494/431
f 486/492/429 488/494/431 489/495/432
f 489/495/432 488/494/431 490/496/433
f 490/496/433 488/494/431 491/497/434
f 488/494/431 485/491/428 492/498/435
f 488/494/431 492/498/435 491/497/434
f 492/498/435 485/491/428 487/493/430
f 491/497/434 492/498/435 493/499/436
f 492/498/435 487/493/430 494/500/437
f 492/498/435 494/500/437 493/499/436
f 494/500/437 487/493/430 495/501/438
f 495/501/438 487/493/430 484/490/427
f 493/499/436 494/500/437 496/502/437
f 493/499/436 496/502/437 497/503/439
f 497/503/439 496/502/437 498/504/439
f 498/504/439 496/502/437 499/505/437
f 496/502/437 494/500/437 500/506/438
f 496/502/437 500/506/438 499/505/437
f 500/506/438 494/500/437 495/501/438
f 499/505/437 500/506/438 501/507/438
f 501/507/438 500/506/438 502/508/440
f 502/508/440 500/506/438 495/501/438
f 501/507/438 502/508/440 503/509/440
f 504/510/441 495/501/438 484/490/427
f 495/501/438 504/510/441 502/508/440
f 504/510/441 484/490/427 478/484/421
f 503/509/440 502/508/440 505/511/442
f 505/511/442 502/508/440 504/510/441
f 503/509/440 505/511/442 506/512/443
f 504/510/441 478/484/421 507/513/442
f 504/510/441 507/513/442 505/511/442
f 506/512/443 505/511/442 465/514/444
f 506/512/443 465/514/444 508/515/445
f 465/514/444 505/511/442 459/516/444
f 508/515/445 465/514/444 469/517/446
f 508/515/445 469/517/446 475/518/447
f 508/515/445 475/518/447 473/519/447
f 459/516/444 505/511/442 455/520/448
f 455/520/448 505/511/442 451/521/448
f 451/521/448 505/511/442 507/513/442
f 451/521/448 507/513/442 509/522/449
f 509/522/449 507/513/442 478/484/421
f 451/521/448 509/522/449 447/523/446
f 447/523/446 509/522/449 443/524/450
f 443/524/450 509/522/449 440/525/450
f 440/525/450 509/522/449 510/526/447
f 509/522/449 478/484/421 511/527/451
f 509/522/449 511/527/451 510/526/447
f 511/527/451 478/484/421 477/483/420
f 440/525/450 510/526/447 438/528/447
f 511/527/451 477/483/420 512/529/452
f 511/527/451 512/529/452 510/526/447
f 512/529/452 477/483/420 513/530/453
f 513/530/453 477/483/420 481/487/424
f 513/530/453 481/487/424 514/531/454
f 513/530/453 514/531/454 515/532/455
f 438/528/447 510/526/447 516/533/456
f 438/528/447 516/533/456 444/534/457
f 444/534/457 516/533/456 448/535/458
f 516/533/456 510/526/447 517/536/459
f 517/536/459 510/526/447 512/529/452
f 518/537/460 512/529/452 513/530/453
f 512/529/452 518/537/460 517/536/459
f 518/537/460 513/530/453 515/532/455
f 518/537/460 515/532/455 519/538/461
f 518/537/460 519/538/461 517/536/459
f 519/538/461 515/532/455 520/539/462
f 521/540/463 516/533/456 517/536/459
f 521/540/463 517/536/459 519/538/461
f 522/541/464 448/535/458 516/533/456
f 522/541/464 516/533/456 521/540/463
f 448/535/458 522/541/464 452/542/458
f 519/538/461 520/539/462 523/543/465
f 519/538/461 523/543/465 521/540/463
f 523/543/465 520/539/462 524/544/466
f 521/540/463 523/543/465 525/545/467
f 521/540/463 525/545/467 522/541/464
f 523/543/465 524/544/466 526/546/468
f 523/543/465 526/546/468 525/545/467
f 526/546/468 524/544/466 527/547/469
f 528/548/470 452/542/458 522/541/464
f 452/542/458 528/548/470 456/549/458
f 526/546/468 527/547/469 529/550/471
f 529/550/471 527/547/469 530/551/472
f 529/550/471 530/551/472 531/552/473
f 531/552/473 530/551/472 532/553/474
f 526/546/468 529/550/471 533/554/475
f 526/546/468 533/554/475 525/545/467
f 529/550/471 531/552/473 534/555/476
f 529/550/471 534/555/476 533/554/475
f 534/555/476 531/552/473 535/556/477
f 525/545/467 533/554/475 536/557/478
f 525/545/467 536/557/478 522/541/464
f 533/554/475 534/555/476 537/558/479
f 533/554/475 537/558/479 536/557/478
f 534/555/476 535/556/477 538/559/480
f 534/555/476 538/559/480 537/558/479
f 538/559/480 535/556/477 539/560/481
f 538/559/480 539/560/481 540/561/481
f 522/541/464 536/557/478 541/562/482
f 522/541/464 541/562/482 528/548/470
f 536/557/478 537/558/479 542/563/483
f 536/557/478 542/563/483 541/562/482
f 537/558/479 538/559/480 543/564/484
f 543/564/484 538/559/480 540/561/481
f 537/558/479 543/564/484 542/563/483
f 543/564/484 540/561/481 544/565/484
f 544/565/484 540/561/481 545/566/481
f 543/564/484 544/565/484 546/567/483
f 543/564/484 546/567/483 542/563/483
f 542/563/483 546/567/483 547/568/482
f 542/563/483 547/568/482 541/562/482
f 541/562/482 547/568/482 548/569/470
f 541/562/482 548/569/470 528/548/470
f 528/548/470 548/569/470 456/549/458
f 456/549/458 548/569/470 458/570/485
f 458/570/485 548/569/470 549/571/486
f 458/570/485 549/571/486 462/572/457
f 462/572/457 549/571/486 466/573/447
f 466/573/447 549/571/486 472/574/450
f 471/575/447 467/576/447 468/577/447
f 471/575/447 468/577/447 474/578/447
f 474/578/447 468/577/447 470/579/447
f 468/577/447 467/576/447 445/580/447
f 468/577/447 445/580/447 441/581/447
f 468/577/447 441/581/447 439/582/447
f 445/580/447 467/576/447 449/583/447
f 449/583/447 467/576/447 453/584/487
f 453/584/487 467/576/447 457/585/487
f 457/585/487 467/576/447 461/586/447
f 461/586/447 467/576/447 463/587/447
f 468/577/447 439/582/447 464/588/447
f 464/588/447 439/582/447 442/589/447
f 464/588/447 442/589/447 446/590/447
f 464/588/447 446/590/447 450/591/447
f 464/588/447 450/591/447 454/592/450
f 464/588/447 454/592/450 460/593/447
f 82/82/488 86/86/488 253/253/488
f 545/566/447 540/561/447 550/594/447
f 550/594/447 540/561/447 551/595/447
f 551/595/447 540/561/447 539/560/447
f 551/595/447 539/560/447 552/596/447
f 552/596/447 539/560/447 535/556/447
f 552/596/447 535/556/447 553/597/447
f 42/42/489 44/44/490 554/598/490
f 554/598/490 44/44/490 555/599/490
f 44/44/491 46/46/492 555/599/492
f 555/599/492 46/46/492 556/600/492
f 40/40/493 42/42/493 557/601/493
f 557/601/493 42/42/493 554/598/493
f 46/46/494 48/48/494 556/600/494
f 556/600/494 48/48/494 558/602/494
f 38/38/495 40/40/495 559/603/495
f 559/603/495 40/40/495 557/601/495
f 48/48/496 50/50/496 558/602/496
f 558/602/496 50/50/496 560/604/496
f 1/1/497 8/8/497 561/605/497
f 561/605/497 8/8/497 562/606/497
f 562/606/497 8/8/497 10/10/498
f 562/606/497 10/10/498 563/607/498
f 78/78/487 80/80/447 564/608/487
f 564/608/487 80/80/447 565/609/447
f 565/609/447 80/80/447 82/82/447
f 565/609/447 82/82/447 253/253/447
f 36/36/499 38/38/499 566/610/499
f 566/610/499 38/38/499 559/603/499
f 50/50/500 52/52/500 560/604/500
f 560/604/500 52/52/500 567/611/500
f 34/34/501 36/36/502 568/612/502
f 568/612/502 36/36/502 566/610/502
f 52/52/503 54/54/503 567/611/503
f 567/611/503 54/54/503 569/613/503
f 32/32/504 34/34/504 570/614/504
f 570/614/504 34/34/504 568/612/504
f 54/54/379 56/56/505 569/613/505
f 569/613/505 56/56/505 571/615/505
f 28/28/506 30/30/506 572/616/506
f 572/616/506 30/30/506 573/617/506
f 573/617/506 30/30/506 32/32/506
f 573/617/506 32/32/506 570/614/506
f 56/56/507 58/58/508 571/615/508
f 571/615/508 58/58/508 574/618/508
f 574/618/508 58/58/508 60/60/508
f 574/618/508 60/60/508 575/619/508
f 26/26/509 28/28/509 576/620/509
f 576/620/509 28/28/509 572/616/509
f 24/24/510 26/26/510 577/621/510
f 577/621/510 26/26/510 576/620/510
f 60/60/511 62/62/511 575/619/511
f 575/619/511 62/62/511 578/622/511
f 62/62/512 64/64/512 578/622/512
f 578/622/512 64/64/512 579/623/512
f 22/22/513 24/24/513 580/624/513
f 580/624/513 24/24/513 577/621/513
f 64/64/457 66/66/457 579/623/457
f 579/623/457 66/66/457 581/625/457
f 18/18/514 20/20/515 582/626/514
f 582/626/514 20/20/515 583/627/515
f 583/627/515 20/20/515 22/22/515
f 583/627/515 22/22/515 580/624/515
f 66/66/378 68/68/378 581/625/378
f 581/625/378 68/68/378 584/628/378
f 584/628/378 68/68/378 70/70/516
f 584/628/378 70/70/516 585/629/516
f 16/16/517 18/18/517 586/630/517
f 586/630/517 18/18/517 582/626/517
f 14/14/518 16/16/519 587/631/519
f 587/631/519 16/16/519 586/630/519
f 70/70/520 72/72/520 585/629/520
f 585/629/520 72/72/520 588/632/520
f 72/72/521 74/74/521 588/632/521
f 588/632/521 74/74/521 589/633/521
f 12/12/522 14/14/523 590/634/523
f 590/634/523 14/14/523 587/631/523
f 10/10/524 12/12/524 563/607/524
f 563/607/524 12/12/524 590/634/524
f 74/74/525 76/76/525 589/633/525
f 589/633/525 76/76/525 591/635/525
f 76/76/526 78/78/526 591/635/526
f 591/635/526 78/78/526 564/608/526
f 592/636/527 593/637/528 594/638/527
f 594/638/527 593/637/528 595/639/529
f 592/636/527 594/638/527 596/640/530
f 595/639/529 593/637/528 597/641/531
f 592/636/527 596/640/530 598/642/532
f 595/639/529 597/641/531 599/643/531
f 598/642/532 596/640/530 600/644/533
f 599/643/531 597/641/531 601/645/534
f 598/642/532 600/644/533 602/646/535
f 599/643/531 601/645/534 603/647/534
f 602/646/535 600/644/533 604/648/536
f 603/647/534 601/645/534 605/649/537
f 602/646/535 604/648/536 606/650/538
f 603/647/534 605/649/537 607/651/539
f 606/650/538 604/648/536 608/652/540
f 607/651/539 605/649/537 609/653/539
f 606/650/538 608/652/540 610/654/541
f 607/651/539 609/653/539 611/655/539
f 610/654/541 608/652/540 612/656/542
f 611/655/539 609/653/539 613/657/543
f 610/654/541 612/656/542 614/658/544
f 611/655/539 613/657/543 615/659/517
f 615/659/517 613/657/543 616/660/523
f 615/659/517 616/660/523 617/661/545
f 614/658/544 612/656/542 618/662/546
f 614/658/544 618/662/546 619/663/547
f 619/663/547 618/662/546 620/664/548
f 619/663/547 620/664/548 621/665/549
f 621/665/549 620/664/548 622/666/550
f 621/665/549 622/666/550 623/667/551
f 624/668/552 625/669/553 623/667/551
f 623/667/551 622/666/550 624/668/552
f 625/669/553 624/668/552 626/670/554
f 625/669/553 626/670/554 627/671/554
f 627/671/554 626/670/554 628/672/555
f 627/671/554 628/672/555 629/673/556
f 629/673/556 628/672/555 630/674/557
f 629/673/556 630/674/557 631/675/558
f 631/675/558 630/674/557 632/676/559
f 631/675/558 632/676/559 633/677/560
f 633/677/560 632/676/559 634/678/561
f 633/677/560 634/678/561 635/679/562
f 635/679/562 634/678/561 636/680/563
f 635/679/562 636/680/563 637/681/564
f 637/681/564 636/680/563 638/682/565
f 637/681/564 638/682/565 639/683/566
f 639/683/566 638/682/565 640/684/567
f 639/683/566 640/684/567 641/685/568
f 641/685/568 640/684/567 642/686/569
f 641/685/568 642/686/569 643/687/570
f 643/687/570 642/686/569 644/688/571
f 643/687/570 644/688/571 645/689/572
f 645/689/572 644/688/571 646/690/573
f 645/689/572 646/690/573 647/691/573
f 647/691/573 646/690/573 648/692/301
f 647/691/573 648/692/301 649/693/301
f 649/693/301 648/692/301 650/694/574
f 649/693/301 650/694/574 651/695/378
f 651/695/378 650/694/574 652/696/464
f 651/695/378 652/696/464 653/697/464
f 653/697/464 652/696/464 654/698/575
f 653/697/464 654/698/575 655/699/575
f 655/699/575 654/698/575 656/700/575
f 655/699/575 656/700/575 657/701/575
f 657/701/575 656/700/575 658/702/576
f 657/701/575 658/702/576 659/703/575
f 659/703/575 658/702/576 660/704/577
f 659/703/575 660/704/577 661/705/578
f 104/104/579 111/111/579 101/101/579
f 101/101/579 111/111/579 662/706/579
f 101/101/579 662/706/579 102/102/579
f 662/706/579 111/111/579 329/329/579
f 329/329/579 111/111/579 332/332/579
f 662/706/579 329/329/579 326/326/579
f 662/706/579 326/326/579 661/705/579
f 661/705/579 326/326/579 323/323/579
f 661/705/579 323/323/579 659/703/579
f 659/703/579 323/323/579 320/320/579
f 659/703/579 320/320/579 657/701/579
f 657/701/579 320/320/579 317/317/579
f 657/701/579 317/317/579 655/699/579
f 655/699/579 317/317/579 314/314/579
f 655/699/579 314/314/579 653/697/579
f 653/697/579 314/314/579 311/311/579
f 653/697/579 311/311/579 651/695/579
f 651/695/579 311/311/579 308/308/579
f 651/695/579 308/308/579 649/693/579
f 649/693/579 308/308/579 305/305/579
f 649/693/579 305/305/579 647/691/579
f 647/691/579 305/305/579 302/302/580
f 647/691/579 302/302/580 645/689/580
f 645/689/580 302/302/580 299/299/580
f 645/689/580 299/299/580 643/687/580
f 643/687/580 299/299/580 296/296/580
f 643/687/580 296/296/580 641/685/580
f 641/685/580 296/296/580 293/293/580
f 641/685/580 293/293/580 639/683/580
f 639/683/580 293/293/580 290/290/580
f 639/683/580 290/290/580 637/681/580
f 637/681/580 290/290/580 286/286/580
f 637/681/580 286/286/580 635/679/580
f 635/679/580 286/286/580 283/283/580
f 635/679/580 283/283/580 633/677/580
f 633/677/580 283/283/580 282/282/580
f 633/677/580 282/282/580 631/675/580
f 631/675/580 282/282/580 383/383/580
f 631/675/580 383/383/580 629/673/580
f 629/673/580 383/383/580 374/374/580
f 629/673/580 374/374/580 627/671/580
f 627/671/580 374/374/580 369/369/581
f 627/671/580 369/369/581 625/669/581
f 625/669/581 369/369/581 364/364/581
f 625/669/581 364/364/581 623/667/581
f 623/667/581 364/364/581 359/359/581
f 623/667/581 359/359/581 621/665/581
f 621/665/581 359/359/581 354/354/581
f 621/665/581 354/354/581 619/663/581
f 619/663/581 354/354/581 349/349/581
f 619/663/581 349/349/581 614/658/581
f 614/658/581 349/349/581 344/344/581
f 614/658/581 344/344/581 610/654/581
f 610/654/581 344/344/581 339/339/581
f 610/654/581 339/339/581 606/650/581
f 606/650/581 339/339/581 334/334/581
f 606/650/581 334/334/581 602/646/581
f 602/646/581 334/334/581 248/248/581
f 602/646/581 248/248/581 598/642/581
f 598/642/581 248/248/581 246/246/582
f 598/642/581 246/246/582 592/636/582
f 592/636/582 246/246/582 242/242/582
f 592/636/582 242/242/582 593/637/582
f 593/637/582 242/242/582 238/238/582
f 593/637/582 238/238/582 597/641/582
f 597/641/582 238/238/582 234/234/582
f 597/641/582 234/234/582 601/645/582
f 601/645/582 234/234/582 230/230/582
f 601/645/582 230/230/582 605/649/582
f 605/649/582 230/230/582 226/226/582
f 605/649/582 226/226/582 609/653/582
f 609/653/582 226/226/582 221/221/582
f 609/653/582 221/221/582 613/657/582
f 613/657/582 221/221/582 218/218/582
f 613/657/582 218/218/582 616/660/582
f 616/660/582 218/218/582 663/707/579
f 663/707/579 218/218/582 216/216/582
f 663/707/579 216/216/582 212/212/582
f 212/212/582 216/216/582 215/215/579
f 663/707/579 212/212/582 206/206/579
f 206/206/579 212/212/582 209/209/579
f 663/707/579 206/206/579 207/207/579
f 654/708/579 664/709/579 656/710/579
f 656/710/579 664/709/579 665/711/579
f 656/710/579 665/711/579 658/712/579
f 664/709/579 654/708/579 666/713/579
f 666/713/579 654/708/579 652/714/579
f 665/711/579 664/709/579 611/715/579
f 611/715/579 664/709/579 607/716/579
f 607/716/579 664/709/579 666/713/579
f 665/711/579 611/715/579 615/717/579
f 607/716/579 666/713/579 603/718/579
f 667/719/579 658/712/579 665/711/579
f 667/719/579 665/711/579 615/717/579
f 658/712/579 667/719/579 660/720/579
f 667/719/579 615/717/579 617/721/579
f 660/720/579 667/719/579 668/722/579
f 668/722/579 667/719/579 617/721/579
f 603/718/579 666/713/579 669/723/579
f 669/723/579 666/713/579 652/714/579
f 603/718/579 669/723/579 599/724/579
f 669/723/579 652/714/579 650/725/579
f 599/724/579 669/723/579 670/726/579
f 670/726/579 669/723/579 650/725/579
f 599/724/579 670/726/579 595/727/579
f 670/726/579 650/725/579 648/728/579
f 595/727/579 670/726/579 671/729/579
f 671/729/579 670/726/579 648/728/579
f 595/727/579 671/729/579 594/730/579
f 671/729/579 648/728/579 646/731/579
f 594/730/579 671/729/579 672/732/579
f 672/732/579 671/729/579 646/731/579
f 594/730/579 672/732/579 596/733/579
f 672/732/579 646/731/579 644/734/579
f 596/733/579 672/732/579 600/735/579
f 672/732/579 644/734/579 642/736/579
f 600/735/579 672/732/579 673/737/579
f 673/737/579 672/732/579 642/736/579
f 600/735/579 673/737/579 604/738/579
f 673/737/579 642/736/579 640/739/579
f 604/738/579 673/737/579 674/740/579
f 674/740/579 673/737/579 640/739/579
f 604/738/579 674/740/579 608/741/579
f 674/740/579 640/739/579 638/742/579
f 608/741/579 674/740/579 675/743/579
f 675/743/579 674/740/579 638/742/579
f 608/741/579 675/743/579 612/744/579
f 675/743/579 638/742/579 636/745/579
f 612/744/579 675/743/579 676/746/579
f 676/746/579 675/743/579 636/745/579
f 612/744/579 676/746/579 618/747/579
f 676/746/579 636/745/579 634/748/579
f 618/747/579 676/746/579 677/749/579
f 677/749/579 676/746/579 634/748/579
f 618/747/579 677/749/579 620/750/579
f 677/749/579 634/748/579 632/751/579
f 620/750/579 677/749/579 678/752/579
f 678/752/579 677/749/579 632/751/579
f 620/750/579 678/752/579 622/753/579
f 678/752/579 632/751/579 630/754/579
f 622/753/579 678/752/579 679/755/579
f 679/755/579 678/752/579 630/754/579
f 622/753/579 679/755/579 624/756/579
f 679/755/579 630/754/579 628/757/579
f 624/756/579 679/755/579 626/758/579
f 626/758/579 679/755/579 628/757/579
