# CS2 body mesh, tools/cs2_glb_to_obj.py
v -0.00537 0.0692 -0.17311
v -0.00276 0.06802 -0.17311
v 0.00197 0.06774 -0.17311
v 0.00171 0.06722 -0.17316
v -0.00851 0.07274 -0.17311
v -0.00592 0.06901 -0.17316
v -0.00952 0.07542 -0.17311
v -0.00924 0.08015 -0.17311
v -0.01005 0.07568 -0.17316
v -0.00806 0.08276 -0.17311
v -0.00452 0.0859 -0.17311
v -0.00825 0.08331 -0.17316
v -0.00184 0.08691 -0.17311
v 0.00289 0.08663 -0.17311
v -0.00158 0.08744 -0.17316
v 0.00549 0.08545 -0.17311
v 0.00864 0.08191 -0.17311
v 0.00605 0.08564 -0.17316
v 0.00965 0.07923 -0.17311
v 0.00819 0.0719 -0.17311
v 0.00465 0.06875 -0.17311
v 0.00838 0.07134 -0.17316
v 0.00937 0.0745 -0.17311
v 0.01017 0.07897 -0.17316
v -0.00578 0.07616 -0.24888
v -0.01357 0.07462 -0.24888
v -0.00589 0.07733 -0.24888
v -0.00544 0.07505 -0.24888
v -0.01383 0.07733 -0.24888
v -0.01278 0.07201 -0.24888
v -0.00578 0.07849 -0.24888
v -0.00489 0.07402 -0.24888
v -0.01357 0.08004 -0.24888
v -0.01149 0.06961 -0.24888
v -0.01278 0.08265 -0.24888
v -0.00976 0.0675 -0.24888
v -0.00544 0.07961 -0.24888
v -0.00415 0.07311 -0.24888
v -0.00489 0.08064 -0.24888
v -0.00766 0.06577 -0.24888
v -0.01149 0.08505 -0.24888
v -0.00325 0.07237 -0.24888
v -0.00415 0.08154 -0.24888
v -0.00526 0.06449 -0.24888
v -0.00976 0.08715 -0.24888
v -0.00222 0.07182 -0.24888
v -0.00766 0.08888 -0.24888
v -0.00325 0.08228 -0.24888
v -0.00222 0.08283 -0.24888
v -0.00526 0.09017 -0.24888
v -0.00265 0.09096 -0.24888
v -0.0011 0.07148 -0.24888
v -0.00265 0.0637 -0.24888
v -0.0011 0.08317 -0.24888
v 0.00006 0.06343 -0.24888
v 0.00006 0.08328 -0.24888
v 0.00006 0.09123 -0.24888
v -0.00157 0.08272 -0.24744
v 0.00006 0.07137 -0.24888
v 0.00123 0.08317 -0.24888
v 0.00278 0.09096 -0.24888
v 0.00278 0.0637 -0.24888
v 0.00538 0.09017 -0.24888
v -0.00049 0.07172 -0.24744
v 0.00062 0.08293 -0.24744
v 0.00234 0.08283 -0.24888
v 0.00272 0.08229 -0.24744
v 0.00337 0.08228 -0.24888
v 0.00779 0.08888 -0.24888
v 0.00442 0.0809 -0.24744
v 0.00428 0.08154 -0.24888
v 0.00989 0.08715 -0.24888
v 0.00502 0.08064 -0.24888
v 0.01162 0.08505 -0.24888
v 0.0129 0.08265 -0.24888
v 0.00557 0.07961 -0.24888
v 0.00545 0.07896 -0.24744
v 0.0137 0.08004 -0.24888
v 0.00591 0.07849 -0.24888
v 0.01396 0.07733 -0.24888
v 0.00602 0.07733 -0.24888
v 0.00567 0.07677 -0.24744
v 0.0137 0.07462 -0.24888
v 0.00591 0.07616 -0.24888
v 0.00503 0.07467 -0.24744
v 0.0129 0.07201 -0.24888
v 0.00557 0.07505 -0.24888
v 0.00502 0.07402 -0.24888
v 0.01162 0.06961 -0.24888
v 0.00364 0.07297 -0.24744
v 0.00428 0.07311 -0.24888
v 0.00989 0.0675 -0.24888
v 0.00337 0.07237 -0.24888
v 0.00779 0.06577 -0.24888
v 0.00234 0.07182 -0.24888
v 0.00538 0.06449 -0.24888
v 0.00123 0.07148 -0.24888
v 0.0017 0.07194 -0.24744
v 0.00145 0.07276 -0.24847
v -0.0004 0.07257 -0.24847
v -0.00219 0.07312 -0.24847
v -0.00259 0.07236 -0.24744
v -0.0003 0.07363 -0.24814
v -0.00363 0.0743 -0.24847
v -0.00429 0.07375 -0.24744
v -0.00533 0.07569 -0.24744
v -0.00451 0.07594 -0.24847
v -0.00554 0.07788 -0.24744
v -0.00469 0.07779 -0.24847
v -0.00415 0.07958 -0.24847
v -0.0049 0.07998 -0.24744
v -0.00351 0.08168 -0.24744
v -0.00281 0.07497 -0.24814
v -0.00297 0.08102 -0.24847
v -0.00169 0.07405 -0.24814
v -0.0025 0.07522 -0.24904
v -0.00349 0.07625 -0.24814
v -0.0015 0.0744 -0.24904
v -0.00311 0.07636 -0.24904
v -0.00363 0.07769 -0.24814
v -0.00184 0.07576 -0.24956
v -0.00026 0.07403 -0.24904
v 0.00103 0.07415 -0.24904
v 0.00114 0.07377 -0.24814
v 0.00242 0.07446 -0.24814
v 0.00309 0.07364 -0.24847
v 0.00334 0.07558 -0.24814
v 0.00428 0.07508 -0.24847
v 0.00376 0.07696 -0.24814
v 0.00482 0.07686 -0.24847
v 0.00362 0.0784 -0.24814
v 0.00463 0.07871 -0.24847
v 0.00293 0.07968 -0.24814
v 0.00376 0.08036 -0.24847
v 0.00231 0.08154 -0.24847
v 0.00181 0.0806 -0.24814
v 0.00043 0.08102 -0.24814
v 0.00053 0.08208 -0.24847
v -0.00132 0.0819 -0.24847
v -0.00101 0.08088 -0.24814
v -0.00229 0.0802 -0.24814
v -0.0009 0.0805 -0.24904
v -0.00204 0.07989 -0.24904
v -0.00321 0.07908 -0.24814
v 0.00039 0.08063 -0.24904
v -0.00286 0.07889 -0.24904
v -0.00324 0.07765 -0.24904
v 0.00031 0.07978 -0.24956
v 0.00163 0.08025 -0.24904
v 0.00123 0.0795 -0.24956
v -0.00239 0.07757 -0.24956
v -0.0023 0.07661 -0.24956
v -0.00211 0.07849 -0.24956
v -0.00144 0.07718 -0.24939
v -0.00089 0.07616 -0.24939
v -0.0011 0.07828 -0.24939
v -0.0011 0.07515 -0.24956
v 0.00021 0.07582 -0.24939
v -0.00018 0.07487 -0.24956
v 0.00078 0.07497 -0.24956
v 0.00123 0.07637 -0.24939
v 0.00163 0.07542 -0.24956
v 0.00224 0.07616 -0.24956
v 0.00076 0.07676 -0.24866
v 0.00015 0.07643 -0.24866
v 0.00157 0.07747 -0.24939
v 0.00252 0.07708 -0.24956
v -0.00051 0.07663 -0.24866
v 0.00242 0.07804 -0.24956
v 0.00096 0.07741 -0.24866
v 0.00197 0.07889 -0.24956
v 0.00063 0.07802 -0.24866
v -0.00083 0.07724 -0.24866
v -0.00063 0.0779 -0.24866
v -0.00002 0.07822 -0.24866
v 0.00102 0.07849 -0.24939
v -0.00008 0.07883 -0.24939
v -0.00065 0.07969 -0.24956
v -0.0015 0.07923 -0.24956
v 0.00263 0.07943 -0.24904
v 0.00324 0.07829 -0.24904
v 0.00336 0.077 -0.24904
v 0.00299 0.07576 -0.24904
v 0.00217 0.07476 -0.24904
v -0.00902 0.08641 -0.16922
v -0.00596 0.08634 -0.16912
v -0.00707 0.08801 -0.16922
v -0.00409 0.08735 -0.16912
v -0.00825 0.08508 -0.16897
v -0.00485 0.08919 -0.16922
v -0.00205 0.08796 -0.16912
v -0.00244 0.08992 -0.16922
v -0.00033 0.08869 -0.16897
v -0.00254 0.0904 -0.17002
v -0.00504 0.08964 -0.17002
v -0.00734 0.08841 -0.17002
v -0.00936 0.08675 -0.17002
v -0.00734 0.08841 -0.23646
v -0.00936 0.08675 -0.23646
v -0.00504 0.08964 -0.23646
v -0.00907 0.08646 -0.23726
v -0.00712 0.08807 -0.23726
v -0.00488 0.08927 -0.23726
v -0.00254 0.0904 -0.23646
v -0.00246 0.09 -0.23726
v 0.00006 0.09066 -0.23646
v 0.00006 0.09025 -0.23726
v 0.00258 0.09 -0.23726
v 0.00266 0.0904 -0.23646
v 0.00266 0.0904 -0.17002
v 0.00006 0.09066 -0.17002
v 0.00257 0.08992 -0.16922
v 0.00006 0.09017 -0.16922
v 0.00218 0.08796 -0.16912
v 0.00421 0.08735 -0.16912
v 0.00498 0.08919 -0.16922
v 0.00609 0.08634 -0.16912
v 0.0072 0.08801 -0.16922
v 0.00782 0.08564 -0.16897
v 0.00915 0.08641 -0.16922
v 0.00908 0.08335 -0.16912
v 0.01074 0.08446 -0.16922
v 0.01193 0.08224 -0.16922
v 0.01008 0.08148 -0.16912
v 0.01266 0.07983 -0.16922
v 0.0107 0.07944 -0.16912
v 0.01143 0.07772 -0.16897
v 0.01291 0.07733 -0.16922
v 0.0107 0.07521 -0.16912
v 0.01266 0.07482 -0.16922
v 0.01193 0.07241 -0.16922
v 0.01008 0.07318 -0.16912
v 0.01074 0.07019 -0.16922
v 0.00908 0.0713 -0.16912
v 0.00838 0.06957 -0.16897
v 0.00915 0.06824 -0.16922
v 0.00609 0.06831 -0.16912
v 0.0072 0.06665 -0.16922
v 0.00498 0.06546 -0.16922
v 0.00421 0.06731 -0.16912
v 0.00257 0.06473 -0.16922
v 0.00218 0.06669 -0.16912
v -0.00895 0.08335 -0.16912
v -0.00996 0.08148 -0.16912
v -0.01057 0.07944 -0.16912
v -0.0113 0.07693 -0.16897
v -0.01057 0.07521 -0.16912
v -0.00996 0.07318 -0.16912
v -0.00895 0.0713 -0.16912
v -0.00769 0.06901 -0.16897
v -0.00596 0.06831 -0.16912
v -0.00409 0.06731 -0.16912
v -0.00205 0.06669 -0.16912
v 0.00046 0.06596 -0.16897
v -0.01102 0.08473 -0.17002
v -0.01102 0.08473 -0.23646
v -0.01068 0.08451 -0.23726
v -0.01062 0.08446 -0.16922
v -0.01225 0.08243 -0.17002
v -0.0118 0.08224 -0.16922
v -0.01225 0.08243 -0.23646
v -0.01188 0.08227 -0.23726
v -0.01301 0.07993 -0.23646
v -0.01261 0.07985 -0.23726
v -0.01301 0.07993 -0.17002
v -0.01253 0.07983 -0.16922
v -0.01326 0.07733 -0.23646
v -0.01286 0.07733 -0.23726
v -0.01261 0.07481 -0.23726
v -0.01278 0.07733 -0.16922
v -0.01326 0.07733 -0.17002
v -0.01253 0.07482 -0.16922
v -0.01301 0.07473 -0.17002
v -0.01301 0.07473 -0.23646
v -0.01188 0.07238 -0.23726
v -0.0118 0.07241 -0.16922
v -0.01225 0.07223 -0.17002
v -0.01225 0.07223 -0.23646
v -0.01068 0.07015 -0.23726
v -0.01062 0.07019 -0.16922
v -0.01102 0.06992 -0.17002
v -0.01102 0.06992 -0.23646
v -0.00907 0.06819 -0.23726
v -0.00902 0.06824 -0.16922
v -0.00936 0.0679 -0.23646
v -0.00936 0.0679 -0.17002
v -0.00707 0.06665 -0.16922
v -0.00734 0.06624 -0.23646
v -0.00712 0.06658 -0.23726
v -0.00734 0.06624 -0.17002
v -0.00504 0.06501 -0.23646
v -0.00488 0.06539 -0.23726
v -0.00254 0.06425 -0.23646
v -0.00246 0.06465 -0.23726
v -0.00504 0.06501 -0.17002
v -0.00485 0.06546 -0.16922
v -0.00254 0.06425 -0.17002
v -0.00244 0.06473 -0.16922
v 0.00006 0.06448 -0.16922
v 0.00006 0.064 -0.17002
v 0.00266 0.06425 -0.17002
v 0.00266 0.06425 -0.23646
v 0.00006 0.064 -0.23646
v 0.00258 0.06465 -0.23726
v 0.00006 0.0644 -0.23726
v 0.00006 0.06343 -0.24772
v -0.00265 0.0637 -0.24772
v -0.00367 0.06503 -0.2469
v 0.00278 0.0637 -0.24772
v 0.00132 0.06454 -0.2469
v 0.00612 0.066 -0.2469
v 0.00538 0.06449 -0.24772
v 0.00006 0.064 -0.24612
v 0.00266 0.06425 -0.24612
v -0.00254 0.06425 -0.24612
v 0.00266 0.06425 -0.23768
v 0.00006 0.064 -0.23768
v -0.00254 0.06425 -0.23768
v 0.00516 0.06501 -0.17002
v 0.00516 0.06501 -0.23646
v 0.00501 0.06539 -0.23726
v 0.00724 0.06658 -0.23726
v 0.00747 0.06624 -0.23646
v 0.0092 0.06819 -0.23726
v 0.00747 0.06624 -0.17002
v 0.00949 0.0679 -0.23646
v 0.00949 0.0679 -0.17002
v 0.01115 0.06992 -0.23646
v 0.01081 0.07015 -0.23726
v 0.01115 0.06992 -0.17002
v 0.01238 0.07223 -0.17002
v 0.01238 0.07223 -0.23646
v 0.012 0.07238 -0.23726
v 0.01314 0.07473 -0.17002
v 0.01314 0.07473 -0.23646
v 0.01274 0.07481 -0.23726
v 0.01339 0.07733 -0.23646
v 0.01299 0.07733 -0.23726
v 0.01339 0.07733 -0.17002
v 0.01274 0.07985 -0.23726
v 0.01314 0.07993 -0.17002
v 0.01314 0.07993 -0.23646
v 0.012 0.08227 -0.23726
v 0.01238 0.08243 -0.23646
v 0.01081 0.08451 -0.23726
v 0.01238 0.08243 -0.17002
v 0.01115 0.08473 -0.23646
v 0.0092 0.08646 -0.23726
v 0.01115 0.08473 -0.17002
v 0.00949 0.08675 -0.23646
v 0.00949 0.08675 -0.17002
v 0.00747 0.08841 -0.23646
v 0.00724 0.08807 -0.23726
v 0.00747 0.08841 -0.17002
v 0.00516 0.08964 -0.17002
v 0.00516 0.08964 -0.23646
v 0.00501 0.08927 -0.23726
v 0.00779 0.06577 -0.24772
v 0.00989 0.0675 -0.24772
v 0.01162 0.06961 -0.24772
v 0.01 0.06918 -0.2469
v 0.0129 0.07201 -0.24772
v 0.0137 0.07462 -0.24772
v 0.01236 0.0736 -0.2469
v 0.01396 0.07733 -0.24772
v 0.0137 0.08004 -0.24772
v 0.01285 0.07859 -0.2469
v 0.0129 0.08265 -0.24772
v 0.0114 0.08338 -0.2469
v 0.01162 0.08505 -0.24772
v 0.00989 0.08715 -0.24772
v 0.00779 0.08888 -0.24772
v 0.00821 0.08726 -0.2469
v 0.00538 0.09017 -0.24772
v 0.00278 0.09096 -0.24772
v 0.00379 0.08962 -0.2469
v 0.00516 0.08964 -0.24612
v 0.00266 0.0904 -0.24612
v 0.00266 0.0904 -0.23768
v 0.00516 0.08964 -0.23768
v 0.00747 0.08841 -0.23768
v 0.00747 0.08841 -0.24612
v 0.00949 0.08675 -0.23768
v 0.00949 0.08675 -0.24612
v 0.01115 0.08473 -0.24612
v 0.01115 0.08473 -0.23768
v 0.01238 0.08243 -0.24612
v 0.01238 0.08243 -0.23768
v 0.01314 0.07993 -0.23768
v 0.01314 0.07993 -0.24612
v 0.01339 0.07733 -0.24612
v 0.01339 0.07733 -0.23768
v 0.01314 0.07473 -0.23768
v 0.01314 0.07473 -0.24612
v 0.01238 0.07223 -0.24612
v 0.01238 0.07223 -0.23768
v 0.01115 0.06992 -0.23768
v 0.01115 0.06992 -0.24612
v 0.00949 0.0679 -0.24612
v 0.00949 0.0679 -0.23768
v 0.00747 0.06624 -0.23768
v 0.00516 0.06501 -0.23768
v 0.00516 0.06501 -0.24612
v 0.00747 0.06624 -0.24612
v -0.01383 0.07733 -0.24772
v -0.01357 0.08004 -0.24772
v -0.01272 0.07607 -0.2469
v -0.01357 0.07462 -0.24772
v -0.01278 0.07201 -0.24772
v -0.01127 0.07127 -0.2469
v -0.01149 0.06961 -0.24772
v -0.00976 0.0675 -0.24772
v -0.00766 0.06577 -0.24772
v -0.00809 0.06739 -0.2469
v -0.00526 0.06449 -0.24772
v -0.00504 0.06501 -0.24612
v -0.00504 0.06501 -0.23768
v -0.00734 0.06624 -0.24612
v -0.00936 0.0679 -0.24612
v -0.00734 0.06624 -0.23768
v -0.00936 0.0679 -0.23768
v -0.01102 0.06992 -0.23768
v -0.01225 0.07223 -0.23768
v -0.01102 0.06992 -0.24612
v -0.01225 0.07223 -0.24612
v -0.01301 0.07473 -0.24612
v -0.01301 0.07473 -0.23768
v -0.01326 0.07733 -0.23768
v -0.01326 0.07733 -0.24612
v -0.01223 0.08106 -0.2469
v -0.01301 0.07993 -0.23768
v -0.01301 0.07993 -0.24612
v -0.01225 0.08243 -0.23768
v -0.01102 0.08473 -0.23768
v -0.01225 0.08243 -0.24612
v -0.00936 0.08675 -0.23768
v -0.01102 0.08473 -0.24612
v -0.00987 0.08548 -0.2469
v -0.00936 0.08675 -0.24612
v -0.00734 0.08841 -0.23768
v -0.00734 0.08841 -0.24612
v -0.00504 0.08964 -0.23768
v -0.00504 0.08964 -0.24612
v -0.00599 0.08866 -0.2469
v -0.00254 0.0904 -0.24612
v -0.00254 0.0904 -0.23768
v 0.00006 0.09066 -0.23768
v 0.00006 0.09066 -0.24612
v -0.0012 0.09011 -0.2469
v 0.00006 0.09123 -0.24772
v -0.00265 0.09096 -0.24772
v -0.00526 0.09017 -0.24772
v -0.00766 0.08888 -0.24772
v -0.00976 0.08715 -0.24772
v -0.01149 0.08505 -0.24772
v -0.01278 0.08265 -0.24772
vt 0.80755 0.975707
vt 0.82165 0.982086
vt 0.847285 0.983612
vt 0.845882 0.98645
vt 0.79049 0.956511
vt 0.804529 0.976714
vt 0.785028 0.942015
vt 0.786523 0.91641
vt 0.782189 0.940611
vt 0.792932 0.90228
vt 0.812128 0.88522
vt 0.791894 0.899258
vt 0.826624 0.879757
vt 0.852229 0.881283
vt 0.828028 0.876919
vt 0.866359 0.887661
vt 0.883389 0.906857
vt 0.86935 0.886654
vt 0.888852 0.921354
vt 0.880947 0.961089
vt 0.861782 0.978149
vt 0.881985 0.96411
vt 0.887356 0.946989
vt 0.89172 0.922758
vt 0.238685 0.188879
vt 0.326945 0.205725
vt 0.239479 0.175878
vt 0.234809 0.201605
vt 0.329722 0.174993
vt 0.318003 0.23542
vt 0.238197 0.162633
vt 0.228217 0.212928
vt 0.326518 0.144505
vt 0.303537 0.262642
vt 0.317545 0.115268
vt 0.283853 0.286569
vt 0.234901 0.15006
vt 0.219916 0.223304
vt 0.228492 0.138432
vt 0.260079 0.306162
vt 0.303079 0.088076
vt 0.20954 0.231269
vt 0.220557 0.128086
vt 0.232734 0.320719
vt 0.283639 0.064425
vt 0.197882 0.237739
vt 0.259896 0.044801
vt 0.210181 0.119785
vt 0.198889 0.113315
vt 0.232856 0.030335
vt 0.203375 0.021302
vt 0.185247 0.241127
vt 0.203253 0.329661
vt 0.186132 0.109592
vt 0.17246 0.332591
vt 0.173193 0.107913
vt 0.172857 0.01822
vt 0.18836 0.125584
vt 0.172033 0.242622
vt 0.160009 0.109439
vt 0.142125 0.021149
vt 0.14182 0.3296
vt 0.112735 0.03
vt 0.177068 0.227149
vt 0.168187 0.123325
vt 0.147404 0.112827
vt 0.148656 0.128971
vt 0.135777 0.119236
vt 0.085452 0.044465
vt 0.132786 0.141606
vt 0.125431 0.127171
vt 0.061678 0.063936
vt 0.117161 0.137547
vt 0.041993 0.087741
vt 0.027467 0.114841
vt 0.11063 0.148869
vt 0.122959 0.159429
vt 0.018403 0.144383
vt 0.106937 0.161687
vt 0.015351 0.174993
vt 0.105258 0.174627
vt 0.12067 0.179662
vt 0.018281 0.205756
vt 0.106754 0.187811
vt 0.126316 0.199194
vt 0.027192 0.235206
vt 0.110141 0.200476
vt 0.116581 0.212073
vt 0.041719 0.26252
vt 0.139012 0.215064
vt 0.124546 0.222449
vt 0.06122 0.286325
vt 0.134953 0.23072
vt 0.085086 0.306009
vt 0.146275 0.237281
vt 0.112217 0.320536
vt 0.159062 0.240913
vt 0.156835 0.224891
vt 0.16068 0.213507
vt 0.176244 0.215155
vt 0.19126 0.21073
vt 0.1966 0.221534
vt 0.17539 0.205969
vt 0.203467 0.200873
vt 0.212531 0.208808
vt 0.222327 0.190832
vt 0.210883 0.187048
vt 0.224494 0.17066
vt 0.212561 0.171514
vt 0.208045 0.15656
vt 0.218787 0.15128
vt 0.206122 0.13538
vt 0.196326 0.194983
vt 0.198248 0.144444
vt 0.186956 0.202551
vt 0.190527 0.190008
vt 0.202094 0.184332
vt 0.183477 0.195746
vt 0.19483 0.182012
vt 0.203284 0.172369
vt 0.185217 0.185736
vt 0.17478 0.19837
vt 0.165777 0.197455
vt 0.163427 0.204688
vt 0.152837 0.19892
vt 0.146916 0.20603
vt 0.145299 0.18955
vt 0.137089 0.193823
vt 0.141881 0.177984
vt 0.132664 0.178838
vt 0.143162 0.166021
vt 0.134342 0.163305
vt 0.14893 0.155461
vt 0.14182 0.149541
vt 0.153996 0.139744
vt 0.1583 0.147923
vt 0.169836 0.144536
vt 0.168981 0.135289
vt 0.184515 0.136937
vt 0.181799 0.145787
vt 0.192328 0.151555
vt 0.179449 0.152989
vt 0.187384 0.157292
vt 0.199866 0.160894
vt 0.170446 0.152104
vt 0.193121 0.164342
vt 0.195746 0.173009
vt 0.171148 0.158818
vt 0.161748 0.154637
vt 0.165014 0.160619
vt 0.188971 0.173681
vt 0.188299 0.180059
vt 0.187109 0.167577
vt 0.182501 0.176275
vt 0.178808 0.18302
vt 0.180395 0.16892
vt 0.180212 0.189764
vt 0.171484 0.185156
vt 0.174078 0.191595
vt 0.167699 0.190924
vt 0.1648 0.181463
vt 0.162084 0.187811
vt 0.158055 0.182836
vt 0.168981 0.177923
vt 0.17185 0.179662
vt 0.162694 0.174078
vt 0.156255 0.176672
vt 0.175176 0.178808
vt 0.156926 0.170293
vt 0.168187 0.174566
vt 0.160009 0.164647
vt 0.170019 0.171636
vt 0.177007 0.175848
vt 0.176244 0.172521
vt 0.173345 0.170782
vt 0.166417 0.167425
vt 0.173742 0.165288
vt 0.177526 0.159551
vt 0.183111 0.162572
vt 0.154729 0.160375
vt 0.150426 0.16834
vt 0.14948 0.177404
vt 0.152074 0.186071
vt 0.157781 0.193121
vt 0.561785 0.223029
vt 0.550768 0.239051
vt 0.561785 0.238716
vt 0.550768 0.25425
vt 0.550768 0.220771
vt 0.561785 0.254402
vt 0.550768 0.269692
vt 0.561785 0.270058
vt 0.550768 0.283425
vt 0.567339 0.270089
vt 0.567339 0.254402
vt 0.567339 0.238716
vt 0.567339 0.223029
vt 0.974242 0.238716
vt 0.974242 0.223029
vt 0.974242 0.254372
vt 0.979797 0.223029
vt 0.979797 0.238716
vt 0.979797 0.254372
vt 0.974242 0.270058
vt 0.979797 0.270058
vt 0.974242 0.285714
vt 0.979797 0.285714
vt 0.979797 0.30137
vt 0.974242 0.301401
vt 0.567339 0.30137
vt 0.567339 0.285714
vt 0.561785 0.301401
vt 0.561785 0.285714
vt 0.550768 0.301706
vt 0.524308 0.309
vt 0.524308 0.276376
vt 0.550768 0.316874
vt 0.524308 0.331187
vt 0.561785 0.317057
vt 0.550768 0.332347
vt 0.561785 0.332713
vt 0.550768 0.34608
vt 0.524308 0.339
vt 0.561785 0.348369
vt 0.550768 0.36433
vt 0.561785 0.364055
vt 0.524308 0.371593
vt 0.561785 0.379711
vt 0.550768 0.379498
vt 0.524308 0.393811
vt 0.561785 0.395367
vt 0.550768 0.395001
vt 0.524308 0.401593
vt 0.550768 0.408673
vt 0.561785 0.411023
vt 0.524308 0.434126
vt 0.550768 0.426893
vt 0.561785 0.42671
vt 0.561785 0.442366
vt 0.550768 0.44203
vt 0.524308 0.456069
vt 0.561785 0.458022
vt 0.550768 0.457411
vt 0.524308 0.463454
vt 0.550768 0.471145
vt 0.561785 0.473739
vt 0.550768 0.489456
vt 0.561785 0.489547
vt 0.524308 0.49498
vt 0.561785 0.505509
vt 0.550768 0.50502
vt 0.561785 0.521317
vt 0.524308 0.513962
vt 0.550768 0.521317
vt 0.524308 0.517624
vt 0.524308 0.268563
vt 0.524308 0.246345
vt 0.524308 0.213782
vt 0.550768 0.207068
vt 0.524308 0.20603
vt 0.550768 0.191595
vt 0.524308 0.183844
vt 0.550768 0.176397
vt 0.550768 0.158147
vt 0.524308 0.15125
vt 0.550768 0.144475
vt 0.524308 0.143529
vt 0.550768 0.129032
vt 0.524308 0.121403
vt 0.550768 0.113895
vt 0.524308 0.089022
vt 0.550768 0.095676
vt 0.550768 0.082095
vt 0.524308 0.081606
vt 0.550768 0.066652
vt 0.524308 0.060121
vt 0.550768 0.051485
vt 0.550768 0.032838
vt 0.567339 0.207404
vt 0.974242 0.207373
vt 0.979797 0.207373
vt 0.561785 0.207373
vt 0.567339 0.191687
vt 0.561785 0.191717
vt 0.974242 0.191687
vt 0.979797 0.191687
vt 0.974242 0.176
vt 0.979797 0.176
vt 0.567339 0.176
vt 0.561785 0.176031
vt 0.974242 0.160344
vt 0.979797 0.160344
vt 0.979797 0.144658
vt 0.561785 0.160375
vt 0.567339 0.160344
vt 0.561785 0.144749
vt 0.567339 0.144688
vt 0.974242 0.144688
vt 0.979797 0.128941
vt 0.561785 0.129093
vt 0.567339 0.129002
vt 0.974242 0.129002
vt 0.979797 0.113163
vt 0.561785 0.113407
vt 0.567339 0.113254
vt 0.974242 0.113254
vt 0.979797 0.097354
vt 0.561785 0.097751
vt 0.974242 0.097537
vt 0.567339 0.097537
vt 0.561785 0.082125
vt 0.974242 0.08179
vt 0.979797 0.081484
vt 0.567339 0.08179
vt 0.974242 0.066012
vt 0.979797 0.065615
vt 0.974242 0.050172
vt 0.979797 0.049623
vt 0.567339 0.066012
vt 0.561785 0.066439
vt 0.567339 0.050172
vt 0.561785 0.0506
vt 0.561785 0.034639
vt 0.567339 0.034455
vt 0.561785 0.018555
vt 0.550768 0.018555
vt 0.524308 0.029603
vt 0.567339 0.018555
vt 0.974242 0.018555
vt 0.974242 0.034455
vt 0.979797 0.018555
vt 0.979797 0.03354
vt 0.020814 0.989624
vt 0.04532 0.979369
vt 0.021455 0.979369
vt 0.044954 0.989624
vt 0.012207 0.968474
vt 0.068819 0.979369
vt 0.068728 0.989624
vt 0.057649 0.968474
vt 0.104007 0.968474
vt 0.092257 0.979369
vt 0.046236 0.960051
vt 0.069308 0.960051
vt 0.023072 0.960051
vt 0.069308 0.884945
vt 0.046144 0.884854
vt 0.022889 0.884823
vt 0.069308 0.879788
vt 0.02298 0.879788
vt 0.046052 0.879788
vt 0.567339 0.505448
vt 0.974242 0.521317
vt 0.974242 0.505539
vt 0.979797 0.506333
vt 0.979797 0.521317
vt 0.979797 0.490219
vt 0.567339 0.521317
vt 0.974242 0.489883
vt 0.979797 0.474288
vt 0.567339 0.489669
vt 0.974242 0.474075
vt 0.567339 0.473922
vt 0.974242 0.458266
vt 0.979797 0.458419
vt 0.567339 0.458235
vt 0.567339 0.442488
vt 0.974242 0.442518
vt 0.979797 0.44261
vt 0.567339 0.42674
vt 0.974242 0.426801
vt 0.979797 0.426832
vt 0.974242 0.411115
vt 0.979797 0.411115
vt 0.567339 0.411054
vt 0.979797 0.395459
vt 0.567339 0.395428
vt 0.974242 0.395428
vt 0.979797 0.379772
vt 0.974242 0.379742
vt 0.979797 0.364055
vt 0.567339 0.379742
vt 0.974242 0.364055
vt 0.979797 0.348399
vt 0.567339 0.364025
vt 0.974242 0.348399
vt 0.567339 0.348369
vt 0.974242 0.332713
vt 0.979797 0.332743
vt 0.567339 0.332743
vt 0.567339 0.317087
vt 0.974242 0.317057
vt 0.979797 0.317057
vt 0.092196 0.989624
vt 0.115543 0.989624
vt 0.115543 0.979369
vt 0.138829 0.989624
vt 0.138829 0.979369
vt 0.162114 0.989624
vt 0.162114 0.979369
vt 0.185369 0.989624
vt 0.150487 0.968474
vt 0.185369 0.979369
vt 0.208625 0.979369
vt 0.208625 0.989624
vt 0.196997 0.968474
vt 0.23188 0.979369
vt 0.23188 0.989624
vt 0.255104 0.979369
vt 0.255135 0.989624
vt 0.243477 0.968474
vt 0.278359 0.979369
vt 0.278359 0.989624
vt 0.301614 0.989624
vt 0.289987 0.968474
vt 0.301614 0.979369
vt 0.32487 0.989624
vt 0.32487 0.979369
vt 0.348155 0.979369
vt 0.348155 0.989624
vt 0.336497 0.968474
vt 0.37141 0.979369
vt 0.37141 0.989624
vt 0.394665 0.979369
vt 0.394665 0.989624
vt 0.383038 0.968474
vt 0.37138 0.960051
vt 0.394635 0.960051
vt 0.394604 0.884945
vt 0.371349 0.884945
vt 0.394604 0.879788
vt 0.371319 0.879788
vt 0.348094 0.884945
vt 0.348064 0.879788
vt 0.348094 0.960051
vt 0.324809 0.884945
vt 0.324778 0.879788
vt 0.324839 0.960051
vt 0.301614 0.960051
vt 0.301553 0.884945
vt 0.301523 0.879788
vt 0.278359 0.960051
vt 0.278298 0.884945
vt 0.278268 0.879788
vt 0.255043 0.884945
vt 0.255043 0.879788
vt 0.255104 0.960051
vt 0.231849 0.960051
vt 0.231819 0.884945
vt 0.231788 0.879788
vt 0.208563 0.879788
vt 0.208563 0.884945
vt 0.185339 0.879788
vt 0.208625 0.960051
vt 0.185369 0.960051
vt 0.185339 0.884976
vt 0.162114 0.879788
vt 0.162114 0.884976
vt 0.13892 0.879788
vt 0.162114 0.960051
vt 0.13889 0.960051
vt 0.13892 0.884976
vt 0.115726 0.879788
vt 0.115696 0.884976
vt 0.092502 0.879788
vt 0.092502 0.884976
vt 0.092471 0.960051
vt 0.115665 0.960051
vt 0.604297 0.989624
vt 0.627613 0.989624
vt 0.604297 0.979369
vt 0.580981 0.979369
vt 0.580981 0.989624
vt 0.557665 0.989624
vt 0.615925 0.968474
vt 0.627613 0.979369
vt 0.65096 0.979369
vt 0.65096 0.989624
vt 0.662557 0.968474
vt 0.674306 0.979369
vt 0.674337 0.989624
vt 0.697775 0.979369
vt 0.697867 0.989624
vt 0.721702 0.989624
vt 0.721305 0.979369
vt 0.746117 0.989624
vt 0.709037 0.968474
vt 0.744987 0.979369
vt 0.768761 0.979369
vt 0.770379 0.989624
vt 0.754662 0.968474
vt 0.743675 0.960051
vt 0.766991 0.960051
vt 0.743889 0.884854
vt 0.767174 0.884884
vt 0.720481 0.960051
vt 0.744133 0.879788
vt 0.767327 0.879788
vt 0.720695 0.879788
vt 0.697348 0.960051
vt 0.720603 0.884884
vt 0.697317 0.879788
vt 0.697317 0.884945
vt 0.674001 0.879788
vt 0.674001 0.884976
vt 0.650685 0.879788
vt 0.650716 0.884976
vt 0.674123 0.960051
vt 0.650838 0.960051
vt 0.6274 0.879788
vt 0.627552 0.960051
vt 0.62743 0.884976
vt 0.604144 0.884976
vt 0.604144 0.879788
vt 0.604266 0.960051
vt 0.580859 0.879788
vt 0.569323 0.968474
vt 0.580859 0.884945
vt 0.580981 0.960051
vt 0.557573 0.884945
vt 0.557573 0.879788
vt 0.534288 0.884945
vt 0.534288 0.879788
vt 0.557665 0.960051
vt 0.511002 0.884945
vt 0.534349 0.960051
vt 0.511002 0.879788
vt 0.522721 0.968474
vt 0.511063 0.960051
vt 0.487747 0.884945
vt 0.487716 0.879788
vt 0.487747 0.960051
vt 0.464461 0.884945
vt 0.464431 0.879788
vt 0.464461 0.960051
vt 0.47615 0.968474
vt 0.441176 0.960051
vt 0.441176 0.884945
vt 0.441145 0.879788
vt 0.41789 0.884945
vt 0.417859 0.879788
vt 0.41792 0.960051
vt 0.429579 0.968474
vt 0.417951 0.979369
vt 0.417951 0.989624
vt 0.441237 0.979369
vt 0.441237 0.989624
vt 0.464492 0.979369
vt 0.464522 0.989624
vt 0.487808 0.979369
vt 0.487808 0.989624
vt 0.511093 0.979369
vt 0.511093 0.989624
vt 0.534379 0.979369
vt 0.534379 0.989624
vt 0.557665 0.979369
vn 0 -0.001 1
vn -0.0043 -0.0906 0.9959
vn -0.068 -0.0581 0.996
vn -0.0884 0.0053 0.9961
vn -0.0604 0.067 0.9959
vn 0.0053 0.0884 0.9961
vn 0.067 0.0604 0.9959
vn 0.0592 -0.0669 0.996
vn 0.0896 -0.0053 0.996
vn 0.0029 0.001 -1
vn 0 -0.001 -1
vn 0.0029 0.0029 -1
vn 0.0039 -0.001 -1
vn 0.002 -0.0029 -1
vn 0.001 0.0029 -1
vn 0 -0.0049 -1
vn 0.0236 -0.0784 -0.9966
vn -0.001 0.0029 -1
vn -0.002 -0.0029 -1
vn 0.0074 0.0817 -0.9966
vn -0.0085 -0.0818 -0.9966
vn -0.039 -0.0726 -0.9966
vn -0.063 -0.051 -0.9967
vn -0.0039 -0.001 -1
vn -0.0773 -0.0247 -0.9967
vn -0.0817 0.0074 -0.9966
vn -0.0029 0.001 -1
vn -0.0725 0.0379 -0.9966
vn -0.0029 0.0029 -1
vn -0.0511 0.0641 -0.9966
vn -0.001 0.0049 -1
vn -0.0247 0.0785 -0.9966
vn 0.1345 -0.442 -0.8869
vn -0.0463 -0.4587 -0.8874
vn -0.2188 -0.4066 -0.887
vn 0.0379 0.0725 -0.9966
vn -0.0213 -0.2145 -0.9765
vn -0.3577 -0.2931 -0.8867
vn 0.0641 0.0511 -0.9966
vn 0.0785 0.0247 -0.9966
vn -0.4432 -0.133 -0.8865
vn 0.0808 -0.0096 -0.9967
vn -0.4592 0.0477 -0.8871
vn -0.4062 0.2171 -0.8876
vn 0.0715 -0.0401 -0.9966
vn 0.0521 -0.0619 -0.9967
vn -0.1677 -0.1364 -0.9763
vn -0.2928 0.3559 -0.8875
vn -0.1016 -0.1896 -0.9766
vn -0.607 -0.5008 -0.6171
vn -0.207 -0.0621 -0.9764
vn -0.3717 -0.6924 -0.6184
vn -0.7526 -0.2264 -0.6183
vn -0.2147 0.0225 -0.9764
vn -0.2121 -0.1843 -0.9597
vn -0.078 -0.7819 -0.6186
vn 0.2282 -0.7517 -0.6188
vn 0.0633 -0.2058 -0.9765
vn 0.1377 -0.1665 -0.9764
vn 0.2946 -0.3562 -0.8868
vn 0.1908 -0.1004 -0.9765
vn 0.4079 -0.2173 -0.8868
vn 0.2156 -0.0201 -0.9763
vn 0.4598 -0.0449 -0.8869
vn 0.206 0.0646 -0.9764
vn 0.4415 0.1329 -0.8874
vn 0.1663 0.1363 -0.9766
vn 0.3559 0.2928 -0.8875
vn 0.2171 0.4062 -0.8876
vn 0.103 0.1898 -0.9764
vn 0.0202 0.217 -0.976
vn 0.0449 0.4614 -0.8861
vn -0.1329 0.4415 -0.8874
vn -0.0621 0.2084 -0.9761
vn -0.1363 0.1663 -0.9766
vn -0.2299 0.7521 -0.6176
vn -0.5008 0.6053 -0.6188
vn -0.1898 0.103 -0.9764
vn 0.0765 0.7838 -0.6163
vn -0.6927 0.3735 -0.617
vn -0.7838 0.0765 -0.6163
vn 0.0209 0.2797 -0.9599
vn 0.3698 0.6952 -0.6163
vn 0.1378 0.2455 -0.9596
vn -0.2797 0.0209 -0.9599
vn -0.2706 -0.0753 -0.9598
vn -0.2455 0.1378 -0.9596
vn 0.4022 0.0412 -0.9146
vn 0.2566 0.3117 -0.9149
vn 0.3134 -0.2568 -0.9142
vn -0.1393 -0.2457 -0.9593
vn -0.0385 0.4045 -0.9137
vn -0.0197 -0.2823 -0.9591
vn 0.074 -0.2718 -0.9595
vn -0.3117 0.2566 -0.9149
vn 0.1829 -0.2134 -0.9597
vn 0.2445 -0.1406 -0.9594
vn -0.2291 0.1863 -0.9554
vn -0.0287 0.2935 -0.9555
vn -0.4029 -0.0384 -0.9144
vn 0.2812 -0.021 -0.9594
vn 0.1863 0.2291 -0.9554
vn 0.2721 0.0754 -0.9593
vn -0.2927 -0.0313 -0.9557
vn 0.2136 0.1844 -0.9593
vn -0.1874 -0.2262 -0.9559
vn 0.2935 0.0287 -0.9555
vn 0.2276 -0.1861 -0.9558
vn 0.03 -0.2939 -0.9554
vn -0.2554 -0.3149 -0.9141
vn 0.0398 -0.4018 -0.9149
vn -0.0754 0.2721 -0.9593
vn -0.1844 0.2136 -0.9593
vn 0.6084 0.4972 -0.6185
vn 0.7521 0.2299 -0.6176
vn 0.7825 -0.0765 -0.6179
vn 0.6937 -0.3699 -0.6181
vn 0.499 -0.6086 -0.617
vn -0.332 0.338 0.8807
vn 0.3608 -0.6215 0.6953
vn -0.1061 0.1597 0.9814
vn 0.1792 -0.5033 0.8453
vn 0.3898 -0.6095 0.6904
vn -0.0949 0.2316 0.9682
vn 0.1898 -0.5954 0.7807
vn -0.0392 0.196 0.9798
vn -0.1514 -0.7072 0.6906
vn -0.1952 0.9807 0.0058
vn -0.384 0.9233 0.0064
vn -0.5544 0.8322 0.0068
vn -0.7071 0.7071 0.0069
vn -0.5575 0.8301 -0.0068
vn -0.7071 0.7071 -0.0069
vn -0.384 0.9233 -0.0064
vn -0.6313 0.6313 -0.4505
vn -0.497 0.7414 -0.4508
vn -0.3432 0.824 -0.4508
vn -0.1952 0.9807 -0.0058
vn -0.1745 0.8757 -0.4503
vn -0.001 1 -0.0049
vn -0.0013 0.8926 -0.4509
vn 0.1745 0.8757 -0.4503
vn 0.1952 0.9807 -0.0058
vn 0.1952 0.9807 0.0058
vn -0.001 1 0.0069
vn 0.0366 0.1901 0.9811
vn 0.004 0.4709 0.8822
vn -0.1847 -0.6942 0.6957
vn -0.2645 -0.9214 0.2846
vn -0.0543 -0.9448 0.3231
vn -0.2314 -0.4796 0.8465
vn -0.3362 -0.9076 0.2514
vn 0.0949 0.2316 0.9682
vn -0.2889 -0.5539 0.7809
vn 0.1119 0.166 0.9798
vn -0.608 -0.3916 0.6906
vn -0.7074 -0.6279 0.3245
vn 0.335 0.335 0.8807
vn -0.6202 -0.3626 0.6956
vn 0.1597 0.1061 0.9814
vn -0.8384 -0.4642 0.2857
vn 0.2316 0.0949 0.9682
vn -0.5046 -0.1776 0.8449
vn -0.8795 -0.4037 0.2521
vn 0.196 0.0392 0.9798
vn -0.5966 -0.1882 0.7802
vn -0.9445 0.053 0.3243
vn -0.7048 0.1531 0.6927
vn 0.4725 -0.004 0.8813
vn -0.9214 0.2631 0.2861
vn -0.6936 0.183 0.6967
vn 0.1887 -0.0366 0.9813
vn 0.2301 -0.0948 0.9685
vn -0.4827 0.2299 0.8451
vn -0.9063 0.3382 0.2533
vn 0.167 -0.1093 0.9799
vn -0.5543 0.2907 0.7799
vn -0.6309 0.7055 0.3228
vn -0.3915 0.6063 0.6922
vn 0.3332 -0.3347 0.8814
vn -0.359 0.6212 0.6966
vn 0.1074 -0.1599 0.9813
vn -0.4638 0.8392 0.2839
vn 0.0961 -0.2289 0.9687
vn -0.1775 0.5028 0.846
vn 0.0726 -0.239 0.9683
vn -0.4005 0.8805 0.2535
vn -0.1808 0.5757 0.7974
vn -0.8915 0.4249 0.157
vn 0.4019 -0.8803 0.252
vn 0.4624 -0.8395 0.2855
vn 0.6296 -0.7059 0.3245
vn 0.5553 -0.2871 0.7805
vn 0.9069 -0.3379 0.2516
vn 0.4818 -0.2333 0.8447
vn 0.9209 -0.2662 0.2849
vn 0.6932 -0.1864 0.6963
vn 0.7063 -0.1531 0.6912
vn 0.9446 -0.0556 0.3235
vn 0.596 0.1915 0.7798
vn 0.8805 0.4005 0.2535
vn 0.5028 0.1775 0.846
vn 0.8392 0.4638 0.2839
vn 0.6212 0.359 0.6966
vn 0.7055 0.6309 0.3228
vn 0.6063 0.3915 0.6922
vn 0.2872 0.557 0.7792
vn 0.3382 0.9063 0.2533
vn 0.2299 0.4827 0.8451
vn 0.2664 0.9203 0.2866
vn 0.183 0.6936 0.6967
vn 0.1531 0.7048 0.6927
vn -0.8322 0.5544 0.0068
vn -0.8322 0.5544 -0.0068
vn -0.7414 0.497 -0.4508
vn -0.166 0.1119 0.9798
vn -0.9233 0.384 0.0064
vn -0.2316 0.0949 0.9682
vn -0.9246 0.3809 -0.0064
vn -0.824 0.3432 -0.4508
vn -0.9807 0.1952 -0.0058
vn -0.8757 0.1745 -0.4503
vn -0.9807 0.1952 0.0058
vn -0.1878 0.039 0.9814
vn -1 0.001 -0.0049
vn -0.8934 -0.0013 -0.4493
vn -0.8766 -0.1744 -0.4485
vn -0.473 0.0013 0.8811
vn -1 -0.001 0.0059
vn -0.1973 -0.0392 0.9796
vn -0.9807 -0.1954 0.0069
vn -0.9812 -0.1928 -0.0069
vn -0.8251 -0.343 -0.4489
vn -0.2301 -0.0948 0.9685
vn -0.9244 -0.3813 0.0077
vn -0.9235 -0.3835 -0.0051
vn -0.7427 -0.4968 -0.4489
vn -0.1587 -0.1086 0.9813
vn -0.8318 -0.555 0.0082
vn -0.8306 -0.5569 -0.0054
vn -0.6328 -0.6311 -0.4486
vn -0.3362 -0.3317 0.8814
vn -0.7078 -0.7064 -0.0056
vn -0.7078 -0.7064 0.0056
vn -0.1105 -0.1658 0.9799
vn -0.5553 -0.8316 -0.0054
vn -0.4949 -0.7441 -0.4488
vn -0.5566 -0.8308 0.0082
vn -0.382 -0.9242 -0.0051
vn -0.3412 -0.8261 -0.4486
vn -0.1941 -0.981 -0.0069
vn -0.1728 -0.8771 -0.4481
vn -0.3829 -0.9238 0.0077
vn -0.0961 -0.2289 0.9687
vn -0.1941 -0.981 0.0069
vn -0.0378 -0.1876 0.9815
vn -0.0027 -0.4735 0.8808
vn 0 -1 0.0059
vn 0.0431 -0.4381 0.8979
vn -0.2168 0.6535 0.7252
vn 0.1317 0.9385 0.3192
vn 0.099 -0.9951 0.0065
vn 0.099 -0.9951 -0.0065
vn 0 -1 -0.0059
vn 0.0863 -0.8897 -0.4483
vn 0 -0.8936 -0.4488
vn -0.0983 -0.9952 0
vn -0.0276 -0.8351 0.5494
vn -0.0724 -0.7453 0.6628
vn 0 -1 0
vn -0.0865 -0.8863 0.455
vn 0.1914 -0.8129 0.55
vn 0.1955 -0.9807 0
vn 0.0882 -0.9051 0.416
vn 0.428 -0.8028 0.4151
vn 0.2922 -0.7828 0.5494
vn -0.0085 -0.9965 -0.083
vn 0.2023 -0.9757 -0.0839
vn -0.0959 -0.9846 -0.1463
vn 0.1952 -0.9798 0.0429
vn 0 -0.9991 0.0428
vn -0.0975 -0.9943 0.0421
vn 0.1384 -0.7026 0.698
vn -0.0695 -0.7133 0.6974
vn 0 -0.7147 0.6995
vn 0.3829 -0.9238 0.0077
vn 0.2915 -0.9566 -0.0049
vn 0.382 -0.9242 -0.0051
vn 0.3412 -0.8261 -0.4486
vn 0.2599 -0.8546 -0.4495
vn 0.4949 -0.7441 -0.4488
vn 0.2893 -0.9572 0.0074
vn 0.5553 -0.8316 -0.0054
vn 0.6328 -0.6311 -0.4486
vn 0.5566 -0.8308 0.0082
vn 0.7078 -0.7064 -0.0056
vn 0.7078 -0.7064 0.0056
vn 0.8306 -0.5569 -0.0054
vn 0.7427 -0.4968 -0.4489
vn 0.8318 -0.555 0.0082
vn 0.9244 -0.3813 0.0077
vn 0.9235 -0.3835 -0.0051
vn 0.8251 -0.343 -0.4489
vn 0.9807 -0.1954 0.0069
vn 0.9812 -0.1928 -0.0069
vn 0.8766 -0.1744 -0.4485
vn 1 0.001 -0.0049
vn 0.8934 -0.0013 -0.4493
vn 1 -0.001 0.0059
vn 0.8757 0.1745 -0.4503
vn 0.9807 0.1952 0.0058
vn 0.9807 0.1952 -0.0058
vn 0.824 0.3432 -0.4508
vn 0.9246 0.3809 -0.0064
vn 0.7414 0.497 -0.4508
vn 0.9233 0.384 0.0064
vn 0.8322 0.5544 -0.0068
vn 0.6313 0.6313 -0.4505
vn 0.8322 0.5544 0.0068
vn 0.7071 0.7071 -0.0069
vn 0.7071 0.7071 0.0069
vn 0.5575 0.8301 -0.0068
vn 0.497 0.7414 -0.4508
vn 0.5544 0.8322 0.0068
vn 0.384 0.9233 0.0064
vn 0.384 0.9233 -0.0064
vn 0.3432 0.824 -0.4508
vn 0.3833 -0.9236 0
vn 0.556 -0.8312 0
vn 0.4899 -0.6761 0.5503
vn 0.7078 -0.7064 0
vn 0.5717 -0.6106 0.548
vn 0.8323 -0.5544 0
vn 0.7111 -0.4403 0.5482
vn 0.9243 -0.3817 0
vn 0.7027 -0.5784 0.4143
vn 0.7611 -0.3481 0.5473
vn 0.8254 -0.1341 0.5483
vn 0.981 -0.1941 0
vn 0.8701 -0.2653 0.4154
vn 0.8347 -0.029 0.55
vn 1 -0.001 0
vn 0.8133 0.1931 0.5488
vn 0.9809 0.1943 0.0012
vn 0.9055 0.0896 0.4148
vn 0.7831 0.2939 0.548
vn 0.9241 0.3822 -0.0013
vn 0.8318 0.555 -0.0014
vn 0.8028 0.4264 0.4167
vn 0.6791 0.488 0.5483
vn 0.7071 0.7071 -0.0014
vn 0.6106 0.57 0.5497
vn 0.4404 0.7096 0.5501
vn 0.555 0.8318 -0.0014
vn 0.5787 0.7014 0.4162
vn 0.3446 0.7619 0.5484
vn 0.3822 0.9241 -0.0013
vn 0.1342 0.8243 0.55
vn 0.1943 0.9809 -0.0011
vn 0.2655 0.8692 0.4172
vn 0.3899 0.9171 -0.0829
vn 0.187 0.9787 -0.0843
vn 0.1941 0.98 0.0441
vn 0.384 0.9223 0.0435
vn 0.14 0.7001 0.7001
vn 0.273 0.6625 0.6976
vn 0.5545 0.8311 0.0433
vn 0.3984 0.5935 0.6993
vn 0.5451 0.8341 -0.0844
vn 0.7078 0.705 0.0442
vn 0.5064 0.5031 0.7003
vn 0.7105 0.6988 -0.0832
vn 0.823 0.5616 -0.0847
vn 0.8311 0.5545 0.0433
vn 0.5935 0.3984 0.6993
vn 0.9246 0.3712 -0.085
vn 0.9236 0.3808 0.0435
vn 0.6601 0.2765 0.6984
vn 0.98 0.1941 0.0441
vn 0.7001 0.14 0.7001
vn 0.9759 0.2011 -0.0851
vn 0.9965 -0.0096 -0.083
vn 0.9991 -0.001 0.0428
vn 0.7154 0.0014 0.6988
vn 0.7016 -0.14 0.6986
vn 0.9795 -0.1966 0.0429
vn 0.6608 -0.273 0.6991
vn 0.9789 -0.1867 -0.083
vn 0.9168 -0.3904 -0.0843
vn 0.9226 -0.3835 0.0422
vn 0.5953 -0.3985 0.6978
vn 0.8294 -0.5571 0.0419
vn 0.5049 -0.5066 0.6989
vn 0.8325 -0.5478 -0.083
vn 0.698 -0.7111 -0.0847
vn 0.7058 -0.7072 0.0427
vn 0.3967 -0.5967 0.6975
vn 0.5555 -0.8305 0.0419
vn 0.2747 -0.6596 0.6996
vn 0.3819 -0.9232 0.0421
vn 0.3724 -0.9243 -0.0837
vn 0.5594 -0.8247 -0.0832
vn -1 -0.001 0
vn -0.981 -0.1941 0
vn -0.8357 0.029 0.5484
vn -0.8243 0.1342 0.55
vn -0.9809 0.1943 0.0011
vn -0.9241 0.3822 0.0013
vn -0.9047 -0.0896 0.4165
vn -0.8136 -0.1898 0.5495
vn -0.7818 -0.294 0.5498
vn -0.9243 -0.3817 0
vn -0.8017 -0.4298 0.4153
vn -0.6776 -0.4881 0.5501
vn -0.8323 -0.5544 0
vn -0.6123 -0.57 0.548
vn -0.7078 -0.7064 0
vn -0.556 -0.8312 0
vn -0.4384 -0.7124 0.548
vn -0.3833 -0.9236 0
vn -0.5766 -0.7042 0.4142
vn -0.3463 -0.7622 0.547
vn -0.2847 -0.943 0.1724
vn -0.2901 -0.957 0
vn -0.3659 -0.846 0.3878
vn -0.3887 -0.9175 -0.0843
vn -0.2899 -0.957 -0.0098
vn -0.3819 -0.9232 0.0421
vn -0.2897 -0.9561 0.0428
vn -0.5462 -0.8336 -0.0829
vn -0.2747 -0.6596 0.6996
vn -0.2085 -0.6861 0.697
vn -0.3967 -0.5967 0.6975
vn -0.7097 -0.6994 -0.0847
vn -0.5555 -0.8305 0.0419
vn -0.5049 -0.5066 0.6989
vn -0.7058 -0.7072 0.0427
vn -0.5953 -0.3985 0.6978
vn -0.8294 -0.5571 0.0419
vn -0.6608 -0.273 0.6991
vn -0.9226 -0.3835 0.0422
vn -0.8236 -0.561 -0.0832
vn -0.9236 -0.374 -0.0837
vn -0.7016 -0.14 0.6986
vn -0.9754 -0.2037 -0.084
vn -0.9795 -0.1966 0.0429
vn -0.9991 -0.001 0.0428
vn -0.7154 0.0014 0.6988
vn -0.9964 0.0074 -0.084
vn -0.7001 0.14 0.7001
vn -0.8706 0.2619 0.4164
vn -0.98 0.1941 0.0441
vn -0.9787 0.187 -0.0843
vn -0.9236 0.3808 0.0435
vn -0.6601 0.2765 0.6984
vn -0.8311 0.5545 0.0433
vn -0.5935 0.3984 0.6993
vn -0.9171 0.3899 -0.0829
vn -0.7078 0.705 0.0442
vn -0.8341 0.5451 -0.0844
vn -0.5064 0.5031 0.7003
vn -0.7044 0.5751 0.416
vn -0.6988 0.7105 -0.0832
vn -0.5545 0.8311 0.0433
vn -0.3984 0.5935 0.6993
vn -0.5616 0.823 -0.0847
vn -0.384 0.9223 0.0435
vn -0.273 0.6625 0.6976
vn -0.3745 0.9233 -0.0852
vn -0.4301 0.8006 0.4172
vn -0.204 0.9753 -0.0853
vn -0.1941 0.98 0.0441
vn -0.14 0.7001 0.7001
vn -0.001 0.999 0.0439
vn 0.0014 0.7154 0.6988
vn 0.0074 0.9964 -0.084
vn -0.0896 0.9055 0.4148
vn 0.029 0.8357 0.5484
vn -0.001 1 -0.001
vn -0.1897 0.8148 0.5478
vn -0.1943 0.9809 0.0011
vn -0.2939 0.7831 0.548
vn -0.3822 0.9241 0.0013
vn -0.488 0.6791 0.5483
vn -0.555 0.8318 0.0014
vn -0.57 0.6106 0.5497
vn -0.7071 0.7071 0.0014
vn -0.7096 0.4404 0.5501
vn -0.8318 0.555 0.0014
vn -0.7619 0.3446 0.5484
o shell__p1_c0
f 1/1/1 2/2/1 3/3/1
f 3/3/1 2/2/1 4/4/2
f 5/5/1 6/6/3 1/1/1
f 5/5/1 1/1/1 7/7/1
f 8/8/1 9/9/4 7/7/1
f 8/8/1 7/7/1 10/10/1
f 10/10/1 7/7/1 1/1/1
f 10/10/1 1/1/1 3/3/1
f 11/11/1 12/12/5 10/10/1
f 11/11/1 10/10/1 13/13/1
f 13/13/1 10/10/1 3/3/1
f 14/14/1 15/15/6 13/13/1
f 14/14/1 13/13/1 16/16/1
f 16/16/1 13/13/1 3/3/1
f 17/17/1 18/18/7 16/16/1
f 17/17/1 16/16/1 19/19/1
f 16/16/1 3/3/1 20/20/1
f 16/16/1 20/20/1 19/19/1
f 20/20/1 3/3/1 21/21/1
f 20/20/1 21/21/1 22/22/8
f 19/19/1 20/20/1 23/23/1
f 19/19/1 23/23/1 24/24/9
f 25/25/10 26/26/11 27/27/10
f 26/26/11 25/25/10 28/28/12
f 27/27/10 26/26/11 29/29/11
f 26/26/11 28/28/12 30/30/11
f 27/27/10 29/29/11 31/31/13
f 30/30/11 28/28/12 32/32/12
f 31/31/13 29/29/11 33/33/11
f 30/30/11 32/32/12 34/34/11
f 31/31/13 33/33/11 35/35/11
f 34/34/11 32/32/12 36/36/11
f 31/31/13 35/35/11 37/37/13
f 36/36/11 32/32/12 38/38/12
f 37/37/13 35/35/11 39/39/13
f 36/36/11 38/38/12 40/40/11
f 39/39/13 35/35/11 41/41/11
f 40/40/11 38/38/12 42/42/12
f 39/39/13 41/41/11 43/43/14
f 40/40/11 42/42/12 44/44/11
f 43/43/14 41/41/11 45/45/11
f 44/44/11 42/42/12 46/46/15
f 43/43/14 45/45/11 47/47/11
f 43/43/14 47/47/11 48/48/14
f 48/48/14 47/47/11 49/49/14
f 49/49/14 47/47/11 50/50/11
f 49/49/14 50/50/11 51/51/11
f 44/44/11 46/46/15 52/52/15
f 44/44/11 52/52/15 53/53/11
f 49/49/14 51/51/11 54/54/16
f 53/53/11 52/52/15 55/55/11
f 54/54/16 51/51/11 56/56/16
f 56/56/16 51/51/11 57/57/11
f 54/54/16 56/56/16 58/58/17
f 55/55/11 52/52/15 59/59/18
f 56/56/16 57/57/11 60/60/19
f 60/60/19 57/57/11 61/61/11
f 55/55/11 59/59/18 62/62/11
f 60/60/19 61/61/11 63/63/11
f 59/59/18 52/52/15 64/64/20
f 56/56/16 60/60/19 65/65/21
f 56/56/16 65/65/21 58/58/17
f 60/60/19 63/63/11 66/66/19
f 65/65/21 60/60/19 67/67/22
f 67/67/22 60/60/19 66/66/19
f 66/66/19 63/63/11 68/68/19
f 66/66/19 68/68/19 67/67/22
f 68/68/19 63/63/11 69/69/11
f 67/67/22 68/68/19 70/70/23
f 68/68/19 69/69/11 71/71/19
f 68/68/19 71/71/19 70/70/23
f 71/71/19 69/69/11 72/72/11
f 71/71/19 72/72/11 73/73/24
f 71/71/19 73/73/24 70/70/23
f 73/73/24 72/72/11 74/74/11
f 73/73/24 74/74/11 75/75/11
f 70/70/23 73/73/24 76/76/24
f 76/76/24 73/73/24 75/75/11
f 70/70/23 76/76/24 77/77/25
f 76/76/24 75/75/11 78/78/11
f 76/76/24 78/78/11 79/79/24
f 76/76/24 79/79/24 77/77/25
f 79/79/24 78/78/11 80/80/11
f 77/77/25 79/79/24 81/81/24
f 81/81/24 79/79/24 80/80/11
f 77/77/25 81/81/24 82/82/26
f 81/81/24 80/80/11 83/83/11
f 82/82/26 81/81/24 84/84/27
f 84/84/27 81/81/24 83/83/11
f 82/82/26 84/84/27 85/85/28
f 84/84/27 83/83/11 86/86/11
f 85/85/28 84/84/27 87/87/27
f 87/87/27 84/84/27 86/86/11
f 85/85/28 87/87/27 88/88/29
f 88/88/29 87/87/27 86/86/11
f 88/88/29 86/86/11 89/89/11
f 85/85/28 88/88/29 90/90/30
f 88/88/29 89/89/11 91/91/29
f 88/88/29 91/91/29 90/90/30
f 91/91/29 89/89/11 92/92/11
f 91/91/29 92/92/11 93/93/31
f 91/91/29 93/93/31 90/90/30
f 93/93/31 92/92/11 94/94/11
f 90/90/30 93/93/31 95/95/31
f 95/95/31 93/93/31 94/94/11
f 95/95/31 94/94/11 96/96/11
f 95/95/31 96/96/11 62/62/11
f 95/95/31 62/62/11 97/97/18
f 97/97/18 62/62/11 59/59/18
f 90/90/30 95/95/31 98/98/32
f 98/98/32 95/95/31 97/97/18
f 98/98/32 97/97/18 59/59/18
f 98/98/32 59/59/18 64/64/20
f 98/98/32 64/64/20 99/99/33
f 99/99/33 64/64/20 100/100/34
f 100/100/34 64/64/20 101/101/35
f 101/101/35 64/64/20 102/102/36
f 99/99/33 100/100/34 103/103/37
f 103/103/37 100/100/34 101/101/35
f 101/101/35 102/102/36 104/104/38
f 104/104/38 102/102/36 105/105/39
f 104/104/38 105/105/39 106/106/40
f 104/104/38 106/106/40 107/107/41
f 107/107/41 106/106/40 108/108/42
f 107/107/41 108/108/42 109/109/43
f 109/109/43 108/108/42 110/110/44
f 110/110/44 108/108/42 111/111/45
f 110/110/44 111/111/45 112/112/46
f 113/113/47 101/101/35 104/104/38
f 110/110/44 112/112/46 114/114/48
f 114/114/48 112/112/46 58/58/17
f 101/101/35 113/113/47 115/115/49
f 101/101/35 115/115/49 103/103/37
f 115/115/49 113/113/47 116/116/50
f 116/116/50 113/113/47 117/117/51
f 115/115/49 116/116/50 118/118/52
f 115/115/49 118/118/52 103/103/37
f 116/116/50 117/117/51 119/119/53
f 119/119/53 117/117/51 120/120/54
f 118/118/52 116/116/50 121/121/55
f 121/121/55 116/116/50 119/119/53
f 103/103/37 118/118/52 122/122/56
f 103/103/37 122/122/56 123/123/57
f 103/103/37 123/123/57 124/124/58
f 103/103/37 124/124/58 99/99/33
f 99/99/33 124/124/58 125/125/59
f 99/99/33 125/125/59 126/126/60
f 126/126/60 125/125/59 127/127/61
f 126/126/60 127/127/61 128/128/62
f 128/128/62 127/127/61 129/129/63
f 128/128/62 129/129/63 130/130/64
f 130/130/64 129/129/63 131/131/65
f 130/130/64 131/131/65 132/132/66
f 132/132/66 131/131/65 133/133/67
f 132/132/66 133/133/67 134/134/68
f 134/134/68 133/133/67 135/135/69
f 135/135/69 133/133/67 136/136/70
f 135/135/69 136/136/70 137/137/71
f 135/135/69 137/137/71 138/138/72
f 138/138/72 137/137/71 139/139/73
f 138/138/72 139/139/73 65/65/21
f 65/65/21 139/139/73 58/58/17
f 58/58/17 139/139/73 114/114/48
f 114/114/48 139/139/73 140/140/74
f 140/140/74 139/139/73 137/137/71
f 114/114/48 140/140/74 141/141/75
f 140/140/74 137/137/71 142/142/76
f 141/141/75 140/140/74 143/143/77
f 143/143/77 140/140/74 142/142/76
f 141/141/75 143/143/77 144/144/78
f 142/142/76 137/137/71 145/145/79
f 144/144/78 143/143/77 146/146/80
f 144/144/78 146/146/80 120/120/54
f 120/120/54 146/146/80 147/147/81
f 120/120/54 147/147/81 119/119/53
f 142/142/76 145/145/79 148/148/82
f 148/148/82 145/145/79 149/149/83
f 148/148/82 149/149/83 150/150/84
f 147/147/81 146/146/80 151/151/85
f 147/147/81 151/151/85 119/119/53
f 119/119/53 151/151/85 152/152/86
f 119/119/53 152/152/86 121/121/55
f 151/151/85 146/146/80 153/153/87
f 153/153/87 146/146/80 143/143/77
f 152/152/86 151/151/85 154/154/88
f 152/152/86 154/154/88 121/121/55
f 154/154/88 151/151/85 153/153/87
f 121/121/55 154/154/88 155/155/89
f 154/154/88 153/153/87 156/156/90
f 121/121/55 155/155/89 157/157/91
f 121/121/55 157/157/91 118/118/52
f 157/157/91 155/155/89 158/158/92
f 118/118/52 157/157/91 159/159/93
f 159/159/93 157/157/91 158/158/92
f 118/118/52 159/159/93 122/122/56
f 122/122/56 159/159/93 123/123/57
f 123/123/57 159/159/93 160/160/94
f 160/160/94 159/159/93 158/158/92
f 160/160/94 158/158/92 161/161/95
f 160/160/94 161/161/95 162/162/96
f 162/162/96 161/161/95 163/163/97
f 161/161/95 158/158/92 164/164/98
f 164/164/98 158/158/92 165/165/99
f 163/163/97 161/161/95 166/166/100
f 166/166/100 161/161/95 164/164/98
f 163/163/97 166/166/100 167/167/101
f 164/164/98 165/165/99 168/168/102
f 167/167/101 166/166/100 169/169/103
f 164/164/98 168/168/102 170/170/104
f 164/164/98 170/170/104 166/166/100
f 169/169/103 166/166/100 171/171/105
f 170/170/104 168/168/102 172/172/106
f 170/170/104 172/172/106 166/166/100
f 172/172/106 168/168/102 173/173/107
f 172/172/106 173/173/107 174/174/108
f 172/172/106 174/174/108 175/175/109
f 171/171/105 166/166/100 176/176/110
f 176/176/110 166/166/100 172/172/106
f 171/171/105 176/176/110 150/150/84
f 172/172/106 175/175/109 177/177/111
f 172/172/106 177/177/111 176/176/110
f 150/150/84 176/176/110 148/148/82
f 148/148/82 176/176/110 177/177/111
f 148/148/82 177/177/111 178/178/112
f 148/148/82 178/178/112 142/142/76
f 178/178/112 177/177/111 156/156/90
f 142/142/76 178/178/112 179/179/113
f 179/179/113 178/178/112 156/156/90
f 142/142/76 179/179/113 143/143/77
f 179/179/113 156/156/90 153/153/87
f 179/179/113 153/153/87 143/143/77
f 107/107/41 109/109/43 120/120/54
f 120/120/54 109/109/43 110/110/44
f 107/107/41 120/120/54 117/117/51
f 107/107/41 117/117/51 113/113/47
f 107/107/41 113/113/47 104/104/38
f 120/120/54 110/110/44 144/144/78
f 144/144/78 110/110/44 114/114/48
f 144/144/78 114/114/48 141/141/75
f 138/138/72 65/65/21 135/135/69
f 135/135/69 65/65/21 67/67/22
f 135/135/69 67/67/22 70/70/23
f 135/135/69 70/70/23 134/134/68
f 134/134/68 70/70/23 77/77/25
f 134/134/68 77/77/25 132/132/66
f 132/132/66 77/77/25 82/82/26
f 132/132/66 82/82/26 130/130/64
f 130/130/64 82/82/26 128/128/62
f 128/128/62 82/82/26 85/85/28
f 128/128/62 85/85/28 126/126/60
f 126/126/60 85/85/28 90/90/30
f 126/126/60 90/90/30 98/98/32
f 126/126/60 98/98/32 99/99/33
f 145/145/79 137/137/71 149/149/83
f 149/149/83 137/137/71 136/136/70
f 149/149/83 136/136/70 180/180/114
f 180/180/114 136/136/70 133/133/67
f 180/180/114 133/133/67 131/131/65
f 149/149/83 180/180/114 171/171/105
f 149/149/83 171/171/105 150/150/84
f 180/180/114 131/131/65 181/181/115
f 180/180/114 181/181/115 171/171/105
f 171/171/105 181/181/115 169/169/103
f 181/181/115 131/131/65 129/129/63
f 169/169/103 181/181/115 167/167/101
f 167/167/101 181/181/115 182/182/116
f 182/182/116 181/181/115 129/129/63
f 167/167/101 182/182/116 163/163/97
f 182/182/116 129/129/63 183/183/117
f 182/182/116 183/183/117 163/163/97
f 183/183/117 129/129/63 127/127/61
f 163/163/97 183/183/117 162/162/96
f 183/183/117 127/127/61 184/184/118
f 183/183/117 184/184/118 162/162/96
f 184/184/118 127/127/61 125/125/59
f 162/162/96 184/184/118 160/160/94
f 184/184/118 125/125/59 124/124/58
f 160/160/94 184/184/118 123/123/57
f 123/123/57 184/184/118 124/124/58
f 174/174/108 154/154/88 156/156/90
f 174/174/108 156/156/90 177/177/111
f 174/174/108 177/177/111 175/175/109
f 154/154/88 174/174/108 173/173/107
f 154/154/88 173/173/107 168/168/102
f 154/154/88 168/168/102 155/155/89
f 155/155/89 168/168/102 158/158/92
f 158/158/92 168/168/102 165/165/99
f 185/185/119 186/186/120 187/187/121
f 187/187/121 186/186/120 188/188/122
f 186/186/120 185/185/119 189/189/123
f 187/187/121 188/188/122 190/190/124
f 190/190/124 188/188/122 191/191/125
f 190/190/124 191/191/125 192/192/126
f 192/192/126 191/191/125 193/193/127
f 190/190/124 192/192/126 194/194/128
f 187/187/121 190/190/124 195/195/129
f 195/195/129 190/190/124 194/194/128
f 187/187/121 195/195/129 196/196/130
f 187/187/121 196/196/130 185/185/119
f 185/185/119 196/196/130 197/197/131
f 196/196/130 195/195/129 198/198/132
f 197/197/131 196/196/130 199/199/133
f 199/199/133 196/196/130 198/198/132
f 198/198/132 195/195/129 200/200/134
f 200/200/134 195/195/129 194/194/128
f 199/199/133 198/198/132 201/201/135
f 198/198/132 200/200/134 202/202/136
f 198/198/132 202/202/136 201/201/135
f 202/202/136 200/200/134 203/203/137
f 203/203/137 200/200/134 204/204/138
f 204/204/138 200/200/134 194/194/128
f 203/203/137 204/204/138 205/205/139
f 205/205/139 204/204/138 206/206/140
f 206/206/140 204/204/138 194/194/128
f 205/205/139 206/206/140 207/207/141
f 207/207/141 206/206/140 208/208/142
f 208/208/142 206/206/140 209/209/143
f 209/209/143 206/206/140 210/210/144
f 206/206/140 194/194/128 211/211/145
f 206/206/140 211/211/145 210/210/144
f 211/211/145 194/194/128 192/192/126
f 210/210/144 211/211/145 212/212/146
f 211/211/145 192/192/126 213/213/147
f 211/211/145 213/213/147 212/212/146
f 213/213/147 192/192/126 193/193/127
f 212/212/146 213/213/147 214/214/148
f 214/214/148 213/213/147 193/193/127
f 214/214/148 193/193/127 14/215/149
f 14/215/149 193/193/127 15/216/150
f 212/212/146 214/214/148 215/217/151
f 215/217/151 214/214/148 14/215/149
f 215/217/151 14/215/149 16/218/152
f 212/212/146 215/217/151 216/219/153
f 215/217/151 16/218/152 217/220/154
f 215/217/151 217/220/154 216/219/153
f 216/219/153 217/220/154 218/221/155
f 218/221/155 217/220/154 219/222/156
f 219/222/156 217/220/154 18/223/157
f 218/221/155 219/222/156 220/224/158
f 219/222/156 18/223/157 221/225/159
f 219/222/156 221/225/159 220/224/158
f 220/224/158 221/225/159 222/226/160
f 221/225/159 18/223/157 17/227/161
f 222/226/160 221/225/159 223/228/162
f 221/225/159 17/227/161 224/229/163
f 221/225/159 224/229/163 223/228/162
f 224/229/163 17/227/161 19/230/164
f 223/228/162 224/229/163 225/231/165
f 224/229/163 19/230/164 226/232/166
f 224/229/163 226/232/166 225/231/165
f 226/232/166 19/230/164 24/233/167
f 225/231/165 226/232/166 227/234/168
f 227/234/168 226/232/166 24/233/167
f 225/231/165 227/234/168 228/235/169
f 227/234/168 24/233/167 23/236/170
f 228/235/169 227/234/168 229/237/171
f 229/237/171 227/234/168 23/236/170
f 228/235/169 229/237/171 230/238/172
f 230/238/172 229/237/171 231/239/173
f 229/237/171 23/236/170 232/240/174
f 229/237/171 232/240/174 231/239/173
f 232/240/174 23/236/170 20/241/175
f 231/239/173 232/240/174 233/242/176
f 232/240/174 20/241/175 234/243/177
f 232/240/174 234/243/177 233/242/176
f 234/243/177 20/241/175 22/244/178
f 233/242/176 234/243/177 235/245/179
f 235/245/179 234/243/177 22/244/178
f 233/242/176 235/245/179 236/246/180
f 235/245/179 22/244/178 237/247/181
f 235/245/179 237/247/181 236/246/180
f 236/246/180 237/247/181 238/248/182
f 237/247/181 22/244/178 21/249/183
f 238/248/182 237/247/181 239/250/184
f 237/247/181 21/249/183 240/251/185
f 237/247/181 240/251/185 239/250/184
f 239/250/184 240/251/185 241/252/186
f 240/251/185 21/249/183 3/253/187
f 241/252/186 240/251/185 242/254/188
f 242/254/188 240/251/185 3/253/187
f 242/254/188 3/253/187 4/255/189
f 13/256/190 188/188/122 11/257/191
f 11/257/191 188/188/122 186/186/120
f 188/188/122 13/256/190 191/191/125
f 191/191/125 13/256/190 15/216/150
f 191/191/125 15/216/150 193/193/127
f 11/257/191 186/186/120 12/258/192
f 12/258/192 186/186/120 189/189/123
f 12/258/192 189/189/123 243/259/193
f 12/258/192 243/259/193 10/260/194
f 10/260/194 243/259/193 244/261/195
f 10/260/194 244/261/195 8/262/196
f 8/262/196 244/261/195 245/263/197
f 8/262/196 245/263/197 246/264/198
f 8/262/196 246/264/198 9/265/199
f 9/265/199 246/264/198 247/266/200
f 9/265/199 247/266/200 7/267/201
f 7/267/201 247/266/200 248/268/202
f 7/267/201 248/268/202 5/269/203
f 5/269/203 248/268/202 249/270/204
f 5/269/203 249/270/204 6/271/205
f 6/271/205 249/270/204 250/272/206
f 6/271/205 250/272/206 251/273/207
f 1/274/208 251/273/207 252/275/209
f 1/274/208 252/275/209 2/276/210
f 2/276/210 252/275/209 253/277/211
f 2/276/210 253/277/211 254/278/212
f 255/279/213 197/197/131 199/199/133
f 197/197/131 255/279/213 185/185/119
f 255/279/213 199/199/133 256/280/214
f 256/280/214 199/199/133 201/201/135
f 256/280/214 201/201/135 257/281/215
f 185/185/119 255/279/213 258/282/216
f 185/185/119 258/282/216 189/189/123
f 189/189/123 258/282/216 243/259/193
f 258/282/216 255/279/213 259/283/217
f 259/283/217 255/279/213 256/280/214
f 243/259/193 258/282/216 260/284/218
f 260/284/218 258/282/216 259/283/217
f 243/259/193 260/284/218 244/261/195
f 261/285/219 256/280/214 257/281/215
f 256/280/214 261/285/219 259/283/217
f 261/285/219 257/281/215 262/286/220
f 261/285/219 262/286/220 263/287/221
f 261/285/219 263/287/221 259/283/217
f 263/287/221 262/286/220 264/288/222
f 265/289/223 260/284/218 259/283/217
f 265/289/223 259/283/217 263/287/221
f 266/290/224 244/261/195 260/284/218
f 266/290/224 260/284/218 265/289/223
f 244/261/195 266/290/224 245/263/197
f 263/287/221 264/288/222 267/291/225
f 263/287/221 267/291/225 265/289/223
f 267/291/225 264/288/222 268/292/226
f 267/291/225 268/292/226 269/293/227
f 245/263/197 266/290/224 270/294/228
f 245/263/197 270/294/228 246/264/198
f 266/290/224 265/289/223 271/295/229
f 266/290/224 271/295/229 270/294/228
f 271/295/229 265/289/223 267/291/225
f 246/264/198 270/294/228 272/296/230
f 272/296/230 270/294/228 271/295/229
f 246/264/198 272/296/230 247/266/200
f 271/295/229 267/291/225 273/297/231
f 271/295/229 273/297/231 272/296/230
f 274/298/232 267/291/225 269/293/227
f 267/291/225 274/298/232 273/297/231
f 274/298/232 269/293/227 275/299/233
f 247/266/200 272/296/230 276/300/234
f 276/300/234 272/296/230 273/297/231
f 247/266/200 276/300/234 248/268/202
f 273/297/231 274/298/232 277/301/235
f 273/297/231 277/301/235 276/300/234
f 274/298/232 275/299/233 278/302/236
f 274/298/232 278/302/236 277/301/235
f 278/302/236 275/299/233 279/303/237
f 248/268/202 276/300/234 280/304/238
f 280/304/238 276/300/234 277/301/235
f 248/268/202 280/304/238 249/270/204
f 277/301/235 278/302/236 281/305/239
f 277/301/235 281/305/239 280/304/238
f 278/302/236 279/303/237 282/306/240
f 278/302/236 282/306/240 281/305/239
f 282/306/240 279/303/237 283/307/241
f 249/270/204 280/304/238 284/308/242
f 284/308/242 280/304/238 281/305/239
f 249/270/204 284/308/242 250/272/206
f 281/305/239 282/306/240 285/309/243
f 285/309/243 282/306/240 283/307/241
f 284/308/242 281/305/239 286/310/244
f 286/310/244 281/305/239 285/309/243
f 250/272/206 284/308/242 287/311/245
f 285/309/243 283/307/241 288/312/246
f 285/309/243 288/312/246 286/310/244
f 288/312/246 283/307/241 289/313/247
f 284/308/242 286/310/244 290/314/248
f 290/314/248 286/310/244 288/312/246
f 284/308/242 290/314/248 287/311/245
f 288/312/246 289/313/247 291/315/249
f 288/312/246 291/315/249 290/314/248
f 291/315/249 289/313/247 292/316/250
f 251/273/207 250/272/206 287/311/245
f 1/274/208 6/271/205 251/273/207
f 251/273/207 287/311/245 252/275/209
f 291/315/249 292/316/250 293/317/251
f 293/317/251 292/316/250 294/318/252
f 295/319/253 290/314/248 291/315/249
f 290/314/248 295/319/253 287/311/245
f 252/275/209 287/311/245 296/320/254
f 296/320/254 287/311/245 295/319/253
f 252/275/209 296/320/254 253/277/211
f 295/319/253 291/315/249 297/321/255
f 297/321/255 291/315/249 293/317/251
f 295/319/253 297/321/255 296/320/254
f 253/277/211 296/320/254 298/322/256
f 298/322/256 296/320/254 297/321/255
f 253/277/211 298/322/256 299/323/257
f 298/322/256 297/321/255 300/324/258
f 300/324/258 297/321/255 293/317/251
f 298/322/256 300/324/258 299/323/257
f 253/277/211 299/323/257 254/278/212
f 254/278/212 299/323/257 241/325/259
f 241/325/259 299/323/257 300/324/258
f 254/278/212 241/325/259 242/326/260
f 254/278/212 242/326/260 4/327/261
f 254/278/212 4/327/261 2/276/210
f 241/325/259 300/324/258 301/328/262
f 301/328/262 300/324/258 302/329/263
f 302/329/263 300/324/258 303/330/264
f 303/330/264 300/324/258 293/317/251
f 302/329/263 303/330/264 304/331/265
f 303/330/264 293/317/251 294/318/252
f 304/331/265 303/330/264 305/332/266
f 305/332/266 303/330/264 294/318/252
f 53/333/267 306/334/268 307/335/269
f 306/334/268 53/333/267 55/336/270
f 307/335/269 306/334/268 308/337/271
f 306/334/268 55/336/270 309/338/272
f 309/338/272 55/336/270 62/339/273
f 308/337/271 306/334/268 310/340/274
f 310/340/274 306/334/268 309/338/272
f 310/340/274 309/338/272 311/341/275
f 311/341/275 309/338/272 312/342/276
f 308/337/271 310/340/274 313/343/277
f 313/343/277 310/340/274 314/344/278
f 308/337/271 313/343/277 315/345/279
f 313/343/277 314/344/278 316/346/280
f 315/345/279 313/343/277 317/347/281
f 317/347/281 313/343/277 316/346/280
f 315/345/279 317/347/281 318/348/282
f 317/347/281 316/346/280 304/349/283
f 318/348/282 317/347/281 294/350/284
f 317/347/281 304/349/283 305/351/285
f 317/347/281 305/351/285 294/350/284
f 319/352/286 302/353/287 320/354/288
f 320/354/288 302/353/287 321/355/289
f 321/355/289 302/353/287 304/356/290
f 320/354/288 321/355/289 322/357/291
f 302/353/287 319/352/286 301/358/292
f 320/354/288 322/357/291 323/359/293
f 320/354/288 323/359/293 319/352/286
f 323/359/293 322/357/291 324/360/294
f 301/358/292 319/352/286 239/250/184
f 301/358/292 239/250/184 241/252/186
f 239/250/184 319/352/286 238/248/182
f 238/248/182 319/352/286 325/361/295
f 325/361/295 319/352/286 323/359/293
f 238/248/182 325/361/295 236/246/180
f 323/359/293 324/360/294 326/362/296
f 325/361/295 323/359/293 327/363/297
f 327/363/297 323/359/293 326/362/296
f 325/361/295 327/363/297 236/246/180
f 326/362/296 324/360/294 328/364/298
f 326/362/296 328/364/298 327/363/297
f 328/364/298 324/360/294 329/365/299
f 236/246/180 327/363/297 330/366/300
f 330/366/300 327/363/297 328/364/298
f 236/246/180 330/366/300 233/242/176
f 233/242/176 330/366/300 331/367/301
f 331/367/301 330/366/300 328/364/298
f 233/242/176 331/367/301 231/239/173
f 328/364/298 329/365/299 332/368/302
f 328/364/298 332/368/302 331/367/301
f 332/368/302 329/365/299 333/369/303
f 231/239/173 331/367/301 334/370/304
f 334/370/304 331/367/301 332/368/302
f 231/239/173 334/370/304 230/238/172
f 332/368/302 333/369/303 335/371/305
f 332/368/302 335/371/305 334/370/304
f 335/371/305 333/369/303 336/372/306
f 335/371/305 336/372/306 337/373/307
f 335/371/305 337/373/307 334/370/304
f 337/373/307 336/372/306 338/374/308
f 230/238/172 334/370/304 339/375/309
f 339/375/309 334/370/304 337/373/307
f 230/238/172 339/375/309 228/235/169
f 337/373/307 338/374/308 340/376/310
f 228/235/169 339/375/309 225/231/165
f 225/231/165 339/375/309 341/377/311
f 341/377/311 339/375/309 337/373/307
f 225/231/165 341/377/311 223/228/162
f 337/373/307 340/376/310 342/378/312
f 337/373/307 342/378/312 341/377/311
f 342/378/312 340/376/310 343/379/313
f 342/378/312 343/379/313 344/380/314
f 342/378/312 344/380/314 341/377/311
f 344/380/314 343/379/313 345/381/315
f 223/228/162 341/377/311 346/382/316
f 346/382/316 341/377/311 344/380/314
f 223/228/162 346/382/316 222/226/160
f 344/380/314 345/381/315 347/383/317
f 344/380/314 347/383/317 346/382/316
f 347/383/317 345/381/315 348/384/318
f 222/226/160 346/382/316 349/385/319
f 349/385/319 346/382/316 347/383/317
f 222/226/160 349/385/319 220/224/158
f 347/383/317 348/384/318 350/386/320
f 349/385/319 347/383/317 351/387/321
f 351/387/321 347/383/317 350/386/320
f 349/385/319 351/387/321 220/224/158
f 350/386/320 348/384/318 352/388/322
f 350/386/320 352/388/322 351/387/321
f 352/388/322 348/384/318 353/389/323
f 220/224/158 351/387/321 354/390/324
f 354/390/324 351/387/321 352/388/322
f 220/224/158 354/390/324 218/221/155
f 218/221/155 354/390/324 355/391/325
f 355/391/325 354/390/324 352/388/322
f 218/221/155 355/391/325 216/219/153
f 352/388/322 353/389/323 356/392/326
f 352/388/322 356/392/326 355/391/325
f 356/392/326 353/389/323 357/393/327
f 356/392/326 357/393/327 209/209/143
f 356/392/326 209/209/143 355/391/325
f 209/209/143 357/393/327 208/208/142
f 355/391/325 209/209/143 210/210/144
f 355/391/325 210/210/144 216/219/153
f 216/219/153 210/210/144 212/212/146
f 62/339/273 96/394/328 309/338/272
f 309/338/272 96/394/328 312/342/276
f 312/342/276 96/394/328 94/395/329
f 312/342/276 94/395/329 358/396/330
f 358/396/330 94/395/329 92/397/331
f 312/342/276 358/396/330 311/341/275
f 358/396/330 92/397/331 359/398/332
f 358/396/330 359/398/332 311/341/275
f 359/398/332 92/397/331 89/399/333
f 359/398/332 89/399/333 360/400/334
f 360/400/334 89/399/333 86/401/335
f 359/398/332 360/400/334 361/402/336
f 359/398/332 361/402/336 311/341/275
f 360/400/334 86/401/335 362/403/337
f 360/400/334 362/403/337 361/402/336
f 362/403/337 86/401/335 363/404/338
f 363/404/338 86/401/335 83/405/339
f 362/403/337 363/404/338 364/406/340
f 362/403/337 364/406/340 361/402/336
f 363/404/338 83/405/339 365/407/341
f 363/404/338 365/407/341 364/406/340
f 365/407/341 83/405/339 80/408/342
f 365/407/341 80/408/342 366/409/343
f 366/409/343 80/408/342 78/410/344
f 365/407/341 366/409/343 367/411/345
f 365/407/341 367/411/345 364/406/340
f 366/409/343 78/410/344 368/412/346
f 368/412/346 78/410/344 75/413/347
f 368/412/346 75/413/347 74/414/348
f 366/409/343 368/412/346 369/415/349
f 366/409/343 369/415/349 367/411/345
f 368/412/346 74/414/348 370/416/350
f 368/412/346 370/416/350 369/415/349
f 370/416/350 74/414/348 72/417/351
f 370/416/350 72/417/351 371/418/352
f 371/418/352 72/417/351 372/419/353
f 372/419/353 72/417/351 69/420/354
f 370/416/350 371/418/352 373/421/355
f 373/421/355 371/418/352 372/419/353
f 370/416/350 373/421/355 369/415/349
f 372/419/353 69/420/354 374/422/356
f 372/419/353 374/422/356 373/421/355
f 374/422/356 69/420/354 63/423/357
f 374/422/356 63/423/357 375/424/358
f 375/424/358 63/423/357 61/425/359
f 373/421/355 374/422/356 376/426/360
f 373/421/355 376/426/360 377/427/361
f 377/427/361 376/426/360 378/428/362
f 377/427/361 378/428/362 379/429/363
f 377/427/361 379/429/363 380/430/364
f 380/430/364 379/429/363 208/431/365
f 380/430/364 208/431/365 357/432/366
f 380/430/364 357/432/366 381/433/367
f 380/430/364 381/433/367 377/427/361
f 381/433/367 357/432/366 353/434/368
f 382/435/369 373/421/355 377/427/361
f 382/435/369 377/427/361 381/433/367
f 381/433/367 353/434/368 383/436/370
f 381/433/367 383/436/370 382/435/369
f 383/436/370 353/434/368 348/437/371
f 373/421/355 382/435/369 384/438/372
f 384/438/372 382/435/369 383/436/370
f 373/421/355 384/438/372 385/439/373
f 385/439/373 384/438/372 383/436/370
f 373/421/355 385/439/373 369/415/349
f 383/436/370 348/437/371 386/440/374
f 383/436/370 386/440/374 385/439/373
f 386/440/374 348/437/371 345/441/375
f 369/415/349 385/439/373 387/442/376
f 387/442/376 385/439/373 386/440/374
f 386/440/374 345/441/375 388/443/377
f 386/440/374 388/443/377 387/442/376
f 388/443/377 345/441/375 343/444/378
f 388/443/377 343/444/378 389/445/379
f 388/443/377 389/445/379 387/442/376
f 389/445/379 343/444/378 340/446/380
f 369/415/349 387/442/376 390/447/381
f 390/447/381 387/442/376 389/445/379
f 369/415/349 390/447/381 367/411/345
f 367/411/345 390/447/381 391/448/382
f 391/448/382 390/447/381 389/445/379
f 367/411/345 391/448/382 364/406/340
f 389/445/379 340/446/380 392/449/383
f 389/445/379 392/449/383 391/448/382
f 392/449/383 340/446/380 338/450/384
f 392/449/383 338/450/384 336/451/385
f 392/449/383 336/451/385 393/452/386
f 392/449/383 393/452/386 391/448/382
f 393/452/386 336/451/385 333/453/387
f 394/454/388 364/406/340 391/448/382
f 394/454/388 391/448/382 393/452/386
f 364/406/340 394/454/388 395/455/389
f 395/455/389 394/454/388 393/452/386
f 364/406/340 395/455/389 361/402/336
f 393/452/386 333/453/387 396/456/390
f 393/452/386 396/456/390 395/455/389
f 396/456/390 333/453/387 329/457/391
f 396/456/390 329/457/391 397/458/392
f 396/456/390 397/458/392 395/455/389
f 397/458/392 329/457/391 324/459/393
f 361/402/336 395/455/389 398/460/394
f 398/460/394 395/455/389 397/458/392
f 361/402/336 398/460/394 399/461/395
f 399/461/395 398/460/394 397/458/392
f 397/458/392 324/459/393 400/462/396
f 397/458/392 400/462/396 399/461/395
f 400/462/396 324/459/393 322/463/397
f 361/402/336 399/461/395 311/341/275
f 400/462/396 322/463/397 401/464/398
f 400/462/396 401/464/398 399/461/395
f 401/464/398 322/463/397 321/465/399
f 401/464/398 321/465/399 402/466/400
f 402/466/400 321/465/399 304/349/283
f 402/466/400 304/349/283 316/346/280
f 402/466/400 316/346/280 314/344/278
f 310/340/274 311/341/275 314/344/278
f 402/466/400 314/344/278 403/467/401
f 403/467/401 314/344/278 311/341/275
f 401/464/398 402/466/400 404/468/402
f 404/468/402 402/466/400 403/467/401
f 401/464/398 404/468/402 399/461/395
f 404/468/402 403/467/401 311/341/275
f 404/468/402 311/341/275 399/461/395
f 29/469/403 26/470/404 405/471/405
f 29/469/403 405/471/405 406/472/406
f 29/469/403 406/472/406 33/473/407
f 33/473/407 406/472/406 35/474/408
f 406/472/406 405/471/405 407/475/409
f 405/471/405 26/470/404 408/476/410
f 405/471/405 408/476/410 407/475/409
f 408/476/410 26/470/404 409/477/411
f 409/477/411 26/470/404 30/478/412
f 408/476/410 409/477/411 410/479/413
f 408/476/410 410/479/413 407/475/409
f 409/477/411 30/478/412 411/480/414
f 409/477/411 411/480/414 410/479/413
f 411/480/414 30/478/412 34/481/415
f 411/480/414 34/481/415 412/482/416
f 411/480/414 412/482/416 410/479/413
f 412/482/416 34/481/415 36/483/417
f 412/482/416 36/483/417 40/484/418
f 412/482/416 40/484/418 413/485/419
f 413/485/419 40/484/418 44/486/420
f 412/482/416 413/485/419 414/487/421
f 412/482/416 414/487/421 410/479/413
f 413/485/419 44/486/420 415/488/422
f 413/485/419 415/488/422 414/487/421
f 415/488/422 44/486/420 307/489/423
f 307/489/423 44/486/420 53/490/424
f 415/488/422 307/489/423 308/491/425
f 415/488/422 308/491/425 414/487/421
f 414/487/421 308/491/425 416/492/426
f 416/492/426 308/491/425 315/493/427
f 416/492/426 315/493/427 417/494/428
f 417/494/428 315/493/427 318/495/429
f 414/487/421 416/492/426 418/496/430
f 418/496/430 416/492/426 417/494/428
f 417/494/428 318/495/429 292/497/431
f 292/497/431 318/495/429 294/498/432
f 417/494/428 292/497/431 289/499/433
f 414/487/421 418/496/430 419/500/434
f 417/494/428 289/499/433 420/501/435
f 417/494/428 420/501/435 418/496/430
f 418/496/430 420/501/435 419/500/434
f 420/501/435 289/499/433 283/502/436
f 420/501/435 283/502/436 421/503/437
f 420/501/435 421/503/437 419/500/434
f 421/503/437 283/502/436 279/504/438
f 414/487/421 419/500/434 410/479/413
f 421/503/437 279/504/438 422/505/439
f 421/503/437 422/505/439 419/500/434
f 422/505/439 279/504/438 275/506/440
f 422/505/439 275/506/440 423/507/441
f 419/500/434 422/505/439 424/508/442
f 419/500/434 424/508/442 410/479/413
f 424/508/442 422/505/439 423/507/441
f 410/479/413 424/508/442 425/509/443
f 425/509/443 424/508/442 423/507/441
f 423/507/441 275/506/440 269/510/444
f 410/479/413 425/509/443 426/511/445
f 426/511/445 425/509/443 423/507/441
f 423/507/441 269/510/444 427/512/446
f 423/507/441 427/512/446 426/511/445
f 410/479/413 426/511/445 407/475/409
f 427/512/446 269/510/444 428/513/447
f 427/512/446 428/513/447 426/511/445
f 428/513/447 269/510/444 268/514/448
f 407/475/409 426/511/445 429/515/449
f 429/515/449 426/511/445 428/513/447
f 428/513/447 268/514/448 264/516/450
f 407/475/409 429/515/449 430/517/451
f 428/513/447 264/516/450 431/518/452
f 429/515/449 428/513/447 432/519/453
f 432/519/453 428/513/447 431/518/452
f 429/515/449 432/519/453 430/517/451
f 431/518/452 264/516/450 433/520/454
f 431/518/452 433/520/454 432/519/453
f 433/520/454 264/516/450 262/521/455
f 407/475/409 430/517/451 406/472/406
f 433/520/454 262/521/455 434/522/456
f 434/522/456 262/521/455 257/523/457
f 432/519/453 433/520/454 435/524/458
f 432/519/453 435/524/458 430/517/451
f 434/522/456 257/523/457 436/525/459
f 433/520/454 434/522/456 437/526/460
f 433/520/454 437/526/460 435/524/458
f 437/526/460 434/522/456 436/525/459
f 436/525/459 257/523/457 201/527/461
f 435/524/458 437/526/460 438/528/462
f 435/524/458 438/528/462 430/517/451
f 437/526/460 436/525/459 439/529/463
f 437/526/460 439/529/463 438/528/462
f 436/525/459 201/527/461 440/530/464
f 440/530/464 201/527/461 202/531/465
f 439/529/463 436/525/459 441/532/466
f 441/532/466 436/525/459 440/530/464
f 440/530/464 202/531/465 442/533/467
f 440/530/464 442/533/467 441/532/466
f 442/533/467 202/531/465 203/534/468
f 441/532/466 442/533/467 443/535/469
f 439/529/463 441/532/466 444/536/470
f 444/536/470 441/532/466 443/535/469
f 439/529/463 444/536/470 438/528/462
f 443/535/469 442/533/467 445/537/471
f 443/535/469 445/537/471 444/536/470
f 442/533/467 203/534/468 446/538/472
f 442/533/467 446/538/472 445/537/471
f 446/538/472 203/534/468 205/539/473
f 446/538/472 205/539/473 447/540/474
f 446/538/472 447/540/474 445/537/471
f 447/540/474 205/539/473 207/541/475
f 447/540/474 207/541/475 208/431/365
f 447/540/474 208/431/365 379/429/363
f 447/540/474 379/429/363 448/542/476
f 447/540/474 448/542/476 445/537/471
f 448/542/476 379/429/363 378/428/362
f 448/542/476 378/428/362 376/426/360
f 445/537/471 448/542/476 449/543/477
f 449/543/477 448/542/476 376/426/360
f 445/537/471 449/543/477 444/536/470
f 375/424/358 376/426/360 374/422/356
f 376/426/360 375/424/358 450/544/478
f 376/426/360 450/544/478 449/543/477
f 450/544/478 375/424/358 61/425/359
f 450/544/478 61/425/359 57/545/479
f 449/543/477 450/544/478 451/546/480
f 451/546/480 450/544/478 57/545/479
f 449/543/477 451/546/480 444/536/470
f 451/546/480 57/545/479 51/547/481
f 451/546/480 51/547/481 452/548/482
f 451/546/480 452/548/482 444/536/470
f 452/548/482 51/547/481 50/549/483
f 444/536/470 452/548/482 453/550/484
f 453/550/484 452/548/482 50/549/483
f 453/550/484 50/549/483 47/551/485
f 444/536/470 453/550/484 438/528/462
f 453/550/484 47/551/485 454/552/486
f 453/550/484 454/552/486 438/528/462
f 454/552/486 47/551/485 45/553/487
f 454/552/486 45/553/487 455/554/488
f 454/552/486 455/554/488 438/528/462
f 455/554/488 45/553/487 41/555/489
f 438/528/462 455/554/488 456/556/490
f 456/556/490 455/554/488 41/555/489
f 438/528/462 456/556/490 430/517/451
f 456/556/490 41/555/489 35/474/408
f 430/517/451 456/556/490 406/472/406
f 406/472/406 456/556/490 35/474/408
f 27/27/10 106/106/40 25/25/10
f 25/25/10 106/106/40 28/28/12
f 106/106/40 27/27/10 108/108/42
f 108/108/42 27/27/10 31/31/13
f 108/108/42 31/31/13 111/111/45
f 111/111/45 31/31/13 37/37/13
f 111/111/45 37/37/13 39/39/13
f 28/28/12 106/106/40 105/105/39
f 28/28/12 105/105/39 32/32/12
f 32/32/12 105/105/39 38/38/12
f 38/38/12 105/105/39 42/42/12
f 42/42/12 105/105/39 102/102/36
f 42/42/12 102/102/36 46/46/15
f 46/46/15 102/102/36 52/52/15
f 52/52/15 102/102/36 64/64/20
f 112/112/46 111/111/45 39/39/13
f 112/112/46 39/39/13 43/43/14
f 112/112/46 43/43/14 48/48/14
f 112/112/46 48/48/14 49/49/14
f 112/112/46 49/49/14 58/58/17
f 58/58/17 49/49/14 54/54/16
f 217/220/154 16/218/152 18/223/157
