# CS2 body mesh, tools/cs2_glb_to_obj.py
v 0.01115 -0.11519 -0.04867
v 0.01115 -0.1133 -0.03865
v 0.0093 -0.11575 -0.05164
v 0.00676 -0.1131 -0.03731
v 0.01115 -0.11631 -0.05461
v 0.01115 -0.1236 -0.09245
v 0.01066 -0.12419 -0.09564
v -0.00902 -0.11575 -0.05164
v -0.00647 -0.1131 -0.03731
v -0.01087 -0.11519 -0.04867
v -0.01087 -0.1133 -0.03865
v -0.01087 -0.11631 -0.05461
v -0.01087 -0.1236 -0.09245
v -0.01038 -0.12419 -0.09564
v -0.01087 -0.12469 -0.09856
v -0.01087 -0.12554 -0.10332
v -0.00647 -0.12577 -0.10466
v 0.00676 -0.12577 -0.10466
v 0.01115 -0.12554 -0.10332
v 0.01115 -0.12469 -0.09856
v 0.00676 -0.00064 -0.03713
v -0.00647 -0.00064 -0.03713
v -0.01087 -0.00064 -0.03849
v -0.01087 -0.00064 -0.04867
v -0.00988 0.00226 -0.04896
v -0.00988 0.00226 -0.03868
v -0.00647 0.00146 -0.03722
v -0.00808 0.00397 -0.05019
v -0.00808 0.00397 -0.03887
v 0.01115 -0.00064 -0.03849
v 0.01115 -0.00064 -0.04867
v 0.00675 0.00146 -0.03722
v 0.01016 0.00226 -0.04896
v 0.01016 0.00226 -0.03868
v 0.00836 0.00397 -0.03887
v 0.00836 0.00397 -0.05019
v -0.01087 -0.00064 -0.0746
v -0.01027 -0.00123 -0.07299
v -0.01057 -0.00064 -0.07135
v -0.01027 -0.11592 -0.07299
v -0.01086 -0.11655 -0.07135
v -0.01087 -0.11719 -0.0746
v -0.01038 -0.00159 -0.09564
v -0.01087 -0.00064 -0.09245
v -0.01087 -0.00064 -0.09856
v -0.01004 0.00042 -0.09557
v -0.01002 0.00201 -0.09245
v -0.00995 0.00213 -0.09856
v -0.00938 0.00001 -0.05166
v -0.01087 -0.00064 -0.05462
v -0.00988 0.00226 -0.05433
v -0.00877 0.00231 -0.05165
v -0.00808 0.00397 -0.05345
v -0.00808 0.00397 -0.07456
v -0.00808 0.00397 -0.10309
v -0.00988 0.00226 -0.10329
v -0.00669 0.00328 -0.10416
v -0.01087 -0.00064 -0.10348
v -0.00647 -0.00064 -0.10483
v 0.00676 -0.00064 -0.10483
v 0.01085 -0.00064 -0.07135
v 0.01055 -0.00123 -0.07299
v 0.01115 -0.00064 -0.0746
v 0.01055 -0.11592 -0.07299
v 0.01115 -0.11719 -0.0746
v 0.01114 -0.11655 -0.07135
v 0.01066 -0.00159 -0.09564
v 0.01115 -0.00064 -0.09245
v 0.01115 -0.00064 -0.09856
v 0.01032 0.00042 -0.09557
v 0.01031 0.00201 -0.09245
v 0.01023 0.00213 -0.09856
v 0.00966 0.00001 -0.05166
v 0.01115 -0.00064 -0.05462
v 0.01016 0.00226 -0.05433
v 0.00905 0.00231 -0.05165
v 0.00836 0.00397 -0.05345
v 0.00836 0.00397 -0.07456
v 0.00836 0.00397 -0.10309
v 0.01016 0.00226 -0.10329
v 0.00697 0.00328 -0.10416
v 0.01115 -0.00064 -0.10348
v 0.00844 -0.00393 -0.10342
v 0.00844 -0.00393 -0.03863
v 0.00844 -0.00064 -0.10342
v 0.00844 -0.00064 -0.03863
v 0.0084 0.00321 -0.07456
v 0.00696 0.00385 -0.10284
v 0.00696 0.00385 -0.0756
v 0.00725 0.00434 -0.07551
v -0.00816 -0.00393 -0.03863
v -0.00815 -0.00064 -0.10342
v -0.00815 -0.00064 -0.03863
v -0.00816 -0.00393 -0.10342
v -0.00812 0.00321 -0.07456
v -0.00667 0.00385 -0.10284
v -0.00667 0.00385 -0.0756
v -0.00697 0.00434 -0.07551
v 0.00725 0.00434 -0.10275
v -0.00697 0.00434 -0.10275
vt 0.182007 0.618164
vt 0.160767 0.618164
vt 0.188354 0.614258
vt 0.157959 0.608887
vt 0.19458 0.618164
vt 0.274902 0.618164
vt 0.281738 0.617188
vt 0.188354 0.574219
vt 0.157959 0.580078
vt 0.182007 0.570312
vt 0.160767 0.570312
vt 0.19458 0.570312
vt 0.274902 0.570312
vt 0.281738 0.571289
vt 0.288086 0.570312
vt 0.298096 0.570312
vt 0.300781 0.580078
vt 0.300781 0.608887
vt 0.298096 0.618164
vt 0.288086 0.618164
vt 0.009697 0.626953
vt 0.009499 0.484619
vt 0.026993 0.626953
vt 0.026794 0.484375
vt 0.033081 0.627441
vt 0.032898 0.484375
vt 0.045685 0.629883
vt 0.045776 0.484375
vt 0.046478 0.480713
vt 0.032593 0.480713
vt 0.026886 0.481689
vt 0.04837 0.477783
vt 0.031677 0.477783
vt 0.080078 0.484619
vt 0.077942 0.485596
vt 0.075989 0.484619
vt 0.077942 0.630859
vt 0.075867 0.631836
vt 0.080078 0.632324
vt 0.106689 0.641113
vt 0.102661 0.640625
vt 0.106689 0.48584
vt 0.102661 0.484619
vt 0.110352 0.484619
vt 0.110352 0.64209
vt 0.106689 0.483398
vt 0.102783 0.480957
vt 0.110474 0.480957
vt 0.050293 0.630371
vt 0.050385 0.483643
vt 0.054779 0.631348
vt 0.054779 0.484619
vt 0.054291 0.480957
vt 0.050476 0.480225
vt 0.052887 0.477783
vt 0.079956 0.477783
vt 0.117065 0.477783
vt 0.116455 0.480957
vt 0.120483 0.47876
vt 0.116455 0.484619
vt 0.122253 0.484131
vt 0.116394 0.643066
vt 0.122498 0.643066
vt 0.139526 0.484131
vt 0.139771 0.643066
vt 0.161377 0.506348
vt 0.296387 0.506348
vt 0.161255 0.499756
vt 0.296143 0.491943
vt 0.22168 0.491943
vt 0.162354 0.48877
vt 0.219482 0.48877
vt 0.15918 0.489258
vt 0.156494 0.499023
vt 0.22229 0.486572
vt 0.219482 0.487549
vt 0.22168 0.485352
vt 0.272949 0.485107
vt 0.296631 0.486572
vt 0.296387 0.485107
vt 0.265869 0.485107
vt 0.162354 0.492188
vt 0.296387 0.499756
vt 0.162842 0.487793
vt 0.162109 0.485107
vt 0.161377 0.541992
vt 0.154419 0.541992
vt 0.154419 0.506348
vt 0.296143 0.490234
vt 0.301025 0.495361
vt 0.301025 0.5
vt 0.302979 0.506348
vt 0.296387 0.541992
vt 0.302979 0.541992
vt 0.151489 0.538574
vt 0.151489 0.510254
vt 0.306396 0.510254
vt 0.306396 0.538574
vn 0 -0.9828 0.1849
vn 0 -0.9785 0.2061
vn -0.0189 -0.9775 0.2099
vn -0.0186 -0.9819 0.1883
vn 0.143 0.0011 0.9897
vn 0.1967 0.0591 0.9787
vn -0.1609 0.0194 0.9868
vn -0.2154 0.0397 0.9757
vn -0.8257 0.0207 0.5638
vn -0.8204 0.1439 0.5534
vn -1 -0.001 0
vn -0.9866 0.1631 -0.0011
vn -0.836 0.5487 -0.0014
vn -0.7278 0.4559 0.5123
vn -0.3229 0.2091 0.9231
vn -0.696 0.7181 -0.0014
vn -0.5949 0.6782 0.4316
vn 0.8078 0.1736 0.5632
vn 0.8179 -0.0014 0.5753
vn 1 -0.001 0
vn 0.983 0.1838 0.0011
vn 0.3007 0.2323 0.925
vn 0.819 0.5737 0.0014
vn 0.7059 0.4856 0.5157
vn 0.5665 0.7028 0.4303
vn 0.6732 0.7395 0.0014
vn -0.9424 -0.131 0.3078
vn -0.9684 -0.2421 0.0596
vn -0.9725 -0.1642 -0.1655
vn -0.983 0.1838 -0.0011
vn -0.9619 0.1697 -0.2145
vn -0.9623 0.1909 0.1935
vn -0.9999 -0.001 0.0159
vn -0.9867 -0.0171 -0.1618
vn -0.9945 0.1043 -0.0011
vn -0.9754 0.1215 -0.1841
vn -0.9763 0.1441 0.1617
vn -0.9831 0.0197 0.1818
vn -0.9892 0.1455 -0.0192
vn -0.9762 0.1642 -0.1416
vn -0.9784 0.1809 0.0997
vn -0.9977 0.0158 0.0665
vn -0.8811 0.0013 -0.473
vn -0.9897 0.143 -0.0011
vn -0.8859 0.091 -0.4549
vn -0.8724 0.023 0.4883
vn -0.8928 0.1142 0.4358
vn -0.857 0.3766 0.3518
vn -0.8704 0.3228 -0.3717
vn -0.9154 0.402 -0.0223
vn -0.828 0.5345 0.1692
vn -0.852 0.4866 -0.1932
vn -0.8291 0.5587 -0.0235
vn -0.9998 -0.0151 -0.0161
vn -0.8457 0.5332 -0.0233
vn -0.6606 0.7504 -0.0238
vn -0.4488 0.789 -0.4196
vn -0.8011 0.5985 -0.0014
vn -0.7262 0.4284 -0.5376
vn -0.1894 0.4303 -0.8826
vn -0.8121 0.119 -0.5713
vn -0.9919 0.1255 -0.0189
vn -0.211 0.0177 -0.9773
vn -0.7811 -0.0014 -0.6244
vn -0.1644 -0.0011 -0.9864
vn 0.1928 0.0367 -0.9806
vn 0.1468 -0.0192 -0.989
vn 0.9671 -0.1906 -0.1685
vn 0.9622 -0.2657 0.0604
vn 0.9369 -0.1552 0.3132
vn 0.9788 0.205 0.0012
vn 0.9565 0.2154 0.1967
vn 0.9565 0.194 -0.218
vn 0.9995 -0.001 0.0323
vn 0.9924 0.1234 0.0011
vn 0.9864 -0.0011 -0.1644
vn 0.9717 0.1439 -0.1872
vn 0.9722 0.1669 0.1644
vn 0.9827 -0.0011 0.1851
vn 0.9859 0.166 -0.0195
vn 0.9717 0.1872 -0.1439
vn 0.9738 0.2038 0.1013
vn 0.9978 -0.001 0.0667
vn 0.9866 0.1631 0.0011
vn 0.8758 -0.0202 -0.4823
vn 0.8789 0.1154 -0.4629
vn 0.867 0.0013 0.4983
vn 0.8854 0.1392 0.4434
vn 0.8398 0.4097 0.3563
vn 0.857 0.3518 -0.3766
vn 0.9038 0.4274 -0.0225
vn 0.8069 0.5656 0.1704
vn 0.8349 0.5148 -0.1948
vn 0.8291 0.5587 -0.0235
vn 0.6366 0.7709 -0.0238
vn 0.8114 0.584 -0.0236
vn 0.4152 0.8095 -0.4152
vn 0.9999 -0.001 -0.0159
vn 0.7823 0.6228 0.0014
vn 0.7048 0.4582 -0.5415
vn 0.1649 0.451 -0.8772
vn 0.7999 0.148 -0.5816
vn 0.9892 0.1455 -0.0192
vn 0.7721 -0.0238 -0.635
vn -0.9494 -0.1999 0.2421
vn -0.9662 -0.0182 -0.2573
vn -0.996 -0.0871 0.0172
vn -0.9118 -0.4011 0.0876
vn -0.8847 -0.4641 0.0436
vn -0.9168 -0.256 0.3066
vn -0.6413 -0.0952 0.7614
vn -0.6062 0.0674 0.7925
vn -0.9999 -0.0169 0
vn -0.9724 -0.0204 -0.2323
vn -0.9987 -0.0502 0
vn 0.9999 -0.0169 0
vn 0.9427 -0.2253 0.246
vn 0.9643 -0.0383 -0.2621
vn 0.9942 -0.106 0.0175
vn 0.8996 -0.4277 0.0886
vn 0.8705 -0.4902 0.0439
vn 0.9071 -0.2833 0.3112
vn 0.6256 -0.1201 0.7709
vn 0.5882 0.0944 0.8032
vn 0.9994 -0.0333 0
vn 0.9977 -0.0677 0
vn 0.9708 -0.0402 -0.2366
vn -0.8271 0.5024 -0.252
vn 0.0012 0.9546 -0.2978
vn -0.0212 0.9526 -0.3034
vn 0.8084 0.5311 -0.2539
vn -0.867 0.4983 -0.0013
vn 0 -0.001 1
vn 0.852 0.5236 0.0013
vn -0.6949 -0.0441 -0.7177
vn -0.6842 -0.021 -0.729
vn -0.3275 0.9446 -0.0215
vn 0.6803 -0.0709 -0.7295
vn 0.3034 0.9526 -0.0212
vn 0 -0.001 -1
vn -0.0169 0.9999 -0.001
vn 0.001 1 0.001
o clip__p0_c0
f 1/1/1 2/2/1 3/3/2
f 3/3/2 2/2/1 4/4/1
f 5/5/3 3/3/2 6/6/3
f 6/6/3 3/3/2 7/7/1
f 3/3/2 4/4/1 8/8/3
f 8/8/3 4/4/1 9/9/4
f 8/8/3 9/9/4 10/10/4
f 10/10/4 9/9/4 11/11/4
f 12/12/2 13/13/2 8/8/3
f 8/8/3 13/13/2 14/14/4
f 8/8/3 14/14/4 3/3/2
f 3/3/2 14/14/4 7/7/1
f 15/15/4 16/16/4 14/14/4
f 14/14/4 16/16/4 17/17/4
f 14/14/4 17/17/4 7/7/1
f 7/7/1 17/17/4 18/18/1
f 7/7/1 18/18/1 19/19/1
f 7/7/1 19/19/1 20/20/1
f 4/21/5 21/22/6 9/23/7
f 9/23/7 21/22/6 22/24/8
f 9/23/7 22/24/8 11/25/9
f 11/25/9 22/24/8 23/26/10
f 11/25/9 23/26/10 10/27/11
f 10/27/11 23/26/10 24/28/12
f 24/28/12 23/26/10 25/29/13
f 23/26/10 22/24/8 26/30/14
f 23/26/10 26/30/14 25/29/13
f 26/30/14 22/24/8 27/31/15
f 25/29/13 26/30/14 28/32/16
f 26/30/14 27/31/15 29/33/17
f 26/30/14 29/33/17 28/32/16
f 21/24/6 4/23/5 30/26/18
f 30/26/18 4/23/5 2/25/19
f 30/26/18 2/25/19 1/27/20
f 30/26/18 1/27/20 31/28/21
f 21/24/6 30/26/18 32/31/22
f 30/26/18 31/28/21 33/29/23
f 32/31/22 30/26/18 34/30/24
f 34/30/24 30/26/18 33/29/23
f 32/31/22 34/30/24 35/33/25
f 34/30/24 33/29/23 36/32/26
f 34/30/24 36/32/26 35/33/25
f 37/34/27 38/35/28 39/36/29
f 39/36/29 38/35/28 40/37/30
f 40/37/30 38/35/28 37/34/27
f 39/36/29 40/37/30 41/38/31
f 40/37/30 37/34/27 42/39/32
f 40/37/30 42/39/32 41/38/31
f 14/40/33 13/41/34 43/42/35
f 43/42/35 13/41/34 44/43/36
f 14/40/33 43/42/35 45/44/37
f 14/40/33 45/44/37 15/45/38
f 43/42/35 44/43/36 46/46/39
f 43/42/35 46/46/39 45/44/37
f 46/46/39 44/43/36 47/47/40
f 45/44/37 46/46/39 48/48/41
f 48/48/41 46/46/39 47/47/40
f 8/49/42 10/27/43 49/50/44
f 49/50/44 10/27/43 24/28/45
f 12/51/46 8/49/42 50/52/47
f 50/52/47 8/49/42 49/50/44
f 50/52/47 49/50/44 51/53/48
f 49/50/44 24/28/45 25/29/49
f 51/53/48 49/50/44 52/54/50
f 52/54/50 49/50/44 25/29/49
f 51/53/48 52/54/50 53/55/51
f 52/54/50 25/29/49 28/32/52
f 52/54/50 28/32/52 53/55/51
f 37/34/30 39/36/12 47/47/53
f 37/34/30 47/47/53 44/43/44
f 37/34/30 44/43/44 13/41/54
f 37/34/30 13/41/54 42/39/54
f 42/39/54 13/41/54 41/38/54
f 41/38/54 13/41/54 12/51/54
f 41/38/54 12/51/54 50/52/39
f 41/38/54 50/52/39 39/36/12
f 39/36/12 50/52/39 51/53/55
f 39/36/12 51/53/55 47/47/53
f 47/47/53 51/53/55 54/56/56
f 54/56/56 51/53/55 53/55/16
f 47/47/53 54/56/56 55/57/57
f 47/47/53 55/57/57 48/48/58
f 48/48/58 55/57/57 56/58/59
f 56/58/59 55/57/57 57/59/60
f 48/48/58 56/58/59 58/60/61
f 58/60/61 56/58/59 57/59/60
f 48/48/58 58/60/61 45/44/62
f 58/60/61 57/59/60 59/61/63
f 45/44/62 58/60/61 16/62/64
f 45/44/62 16/62/64 15/45/11
f 16/62/64 58/60/61 17/63/65
f 17/63/65 58/60/61 59/61/63
f 17/63/65 59/61/63 60/64/66
f 17/63/65 60/64/66 18/65/67
f 61/36/68 62/35/69 63/34/70
f 63/34/70 62/35/69 64/37/71
f 64/37/71 62/35/69 61/36/68
f 63/34/70 64/37/71 65/39/72
f 64/37/71 61/36/68 66/38/73
f 64/37/71 66/38/73 65/39/72
f 7/40/74 67/42/75 6/41/76
f 6/41/76 67/42/75 68/43/77
f 67/42/75 7/40/74 69/44/78
f 69/44/78 7/40/74 20/45/79
f 68/43/77 67/42/75 70/46/80
f 70/46/80 67/42/75 69/44/78
f 68/43/77 70/46/80 71/47/81
f 70/46/80 69/44/78 72/48/82
f 70/46/80 72/48/82 71/47/81
f 3/49/83 73/50/84 1/27/85
f 1/27/85 73/50/84 31/28/86
f 5/51/87 74/52/88 3/49/83
f 3/49/83 74/52/88 73/50/84
f 73/50/84 74/52/88 75/53/89
f 31/28/86 73/50/84 33/29/90
f 73/50/84 75/53/89 76/54/91
f 73/50/84 76/54/91 33/29/90
f 76/54/91 75/53/89 77/55/92
f 33/29/90 76/54/91 36/32/93
f 36/32/93 76/54/91 77/55/92
f 77/55/26 75/53/94 78/56/95
f 78/56/95 75/53/94 71/47/96
f 78/56/95 71/47/96 79/57/97
f 71/47/96 75/53/94 61/36/21
f 61/36/21 75/53/94 74/52/80
f 61/36/21 74/52/80 66/38/98
f 66/38/98 74/52/80 5/51/98
f 66/38/98 5/51/98 6/41/98
f 66/38/98 6/41/98 65/39/98
f 65/39/98 6/41/98 63/34/71
f 71/47/96 61/36/21 63/34/71
f 63/34/71 6/41/98 68/43/84
f 63/34/71 68/43/84 71/47/96
f 72/48/99 79/57/97 71/47/96
f 79/57/97 72/48/99 80/58/100
f 79/57/97 80/58/100 81/59/101
f 80/58/100 72/48/99 82/60/102
f 80/58/100 82/60/102 81/59/101
f 81/59/101 82/60/102 60/61/66
f 60/61/66 82/60/102 18/63/67
f 82/60/102 72/48/99 69/44/103
f 18/63/67 82/60/102 19/62/104
f 19/62/104 82/60/102 69/44/103
f 19/62/104 69/44/103 20/45/20
f 83/66/11 84/67/11 85/68/105
f 85/68/105 84/67/11 86/69/106
f 85/68/105 86/69/106 87/70/107
f 85/68/105 87/70/107 88/71/108
f 88/71/108 87/70/107 89/72/109
f 85/68/105 88/71/108 81/73/110
f 85/68/105 81/73/110 60/74/111
f 89/72/112 87/75/112 90/76/112
f 90/76/112 87/75/112 78/77/112
f 36/78/113 86/79/106 35/80/114
f 86/79/106 36/78/113 87/75/107
f 87/75/107 36/78/113 77/81/113
f 87/75/107 77/81/113 78/77/115
f 91/67/116 92/82/117 93/83/118
f 92/82/117 91/67/116 94/66/116
f 93/83/118 92/82/117 95/70/119
f 95/70/119 92/82/117 96/71/120
f 95/70/119 96/71/120 97/72/121
f 96/71/120 92/82/117 57/73/122
f 57/73/122 92/82/117 59/74/123
f 97/72/124 98/76/124 95/75/124
f 95/75/124 98/76/124 54/77/124
f 53/81/125 95/75/119 54/77/126
f 95/75/119 53/81/125 28/78/125
f 95/75/119 28/78/125 93/79/118
f 93/79/118 28/78/125 29/80/127
f 81/73/101 88/71/128 99/84/129
f 81/73/101 99/84/129 79/85/97
f 100/84/130 96/71/131 57/73/60
f 99/84/132 88/71/132 90/76/132
f 90/76/132 88/71/132 89/72/132
f 83/86/133 85/87/133 94/66/133
f 94/66/133 85/87/133 92/88/133
f 100/84/134 98/76/134 96/71/134
f 96/71/134 98/76/134 97/72/134
f 35/89/114 86/69/106 32/90/135
f 32/90/135 86/69/106 21/91/136
f 100/84/130 57/73/60 55/85/57
f 100/84/130 55/85/57 54/77/56
f 100/84/130 54/77/56 98/76/137
f 27/90/138 22/91/138 29/89/127
f 29/89/127 22/91/138 93/83/118
f 79/85/97 99/84/129 78/77/95
f 78/77/95 99/84/129 90/76/139
f 91/67/140 93/92/140 84/93/140
f 84/93/140 93/92/140 86/94/140
f 85/87/141 60/95/141 92/88/141
f 92/88/141 60/95/141 59/96/141
f 93/92/142 22/97/142 86/94/142
f 86/94/142 22/97/142 21/98/142
f 91/67/142 84/93/142 94/66/142
f 94/66/142 84/93/142 83/86/142
