# CS2 body mesh, tools/cs2_glb_to_obj.py
v -0.00495 -0.02725 -0.13096
v -0.00495 -0.03348 -0.13057
v 0.00524 -0.02725 -0.13096
v 0.00524 -0.03348 -0.13057
v -0.00495 -0.0424 -0.14311
v 0.00524 -0.0424 -0.14311
v 0.00524 -0.05023 -0.14764
v -0.00495 -0.05023 -0.14764
v 0.00524 -0.05702 -0.14682
v -0.00495 -0.05702 -0.14682
v 0.00524 -0.06263 -0.1438
v -0.00495 -0.06263 -0.1438
v -0.00495 -0.06231 -0.14674
v 0.00524 -0.06231 -0.14674
v 0.00524 -0.05749 -0.1498
v -0.00495 -0.05749 -0.1498
v -0.00495 -0.05 -0.15175
v 0.00524 -0.05 -0.15175
v 0.00524 -0.03897 -0.15196
v -0.00495 -0.03897 -0.15196
v 0.00524 -0.02725 -0.16064
v -0.00495 -0.02725 -0.16064
vt 0.561035 0.772949
vt 0.550293 0.772949
vt 0.561035 0.789551
vt 0.550293 0.789551
vt 0.529785 0.772949
vt 0.529785 0.789551
vt 0.516113 0.789551
vt 0.516113 0.772949
vt 0.504883 0.789551
vt 0.504883 0.772949
vt 0.495361 0.789551
vt 0.495361 0.772949
vt 0.490479 0.772949
vt 0.490479 0.789551
vt 0.482666 0.789551
vt 0.482666 0.772949
vt 0.469971 0.772949
vt 0.469971 0.789551
vt 0.45166 0.789551
vt 0.45166 0.772949
vt 0.432129 0.789551
vt 0.432129 0.772949
vt 1.456055 0.715332
vt 1.451172 0.71582
vt 1.460938 0.70752
vt 1.456055 0.706543
vt 1.457031 0.695312
vt 1.463867 0.694824
vt 1.464844 0.676758
vt 1.450195 0.682129
vt 1.428711 0.66748
vt 1.478516 0.657227
vt 1.429688 0.657227
vt 0.429688 0.657227
vt 0.429199 0.66748
vt 0.479248 0.657227
vt 0.464844 0.676758
vt 0.450195 0.682129
vt 0.45752 0.695312
vt 0.464355 0.694824
vt 0.461182 0.70752
vt 0.456299 0.706543
vt 0.451172 0.71582
vt 0.456055 0.715332
vn -0.001 0.0656 0.9978
vn 0 -0.4221 0.9065
vn 0 -0.6725 0.7401
vn 0 -0.1862 0.9825
vn -0.0012 0.3214 0.9469
vn 0 -0.5481 0.8364
vn 0 -0.8514 -0.5245
vn 0 -0.4221 -0.9065
vn 0 -0.1428 -0.9897
vn 0 -0.3481 -0.9375
vn 0 -0.6009 -0.7993
vn -1 -0.001 0
vn 1 -0.001 0
o trigger__p0_c0
f 1/1/1 2/2/2 3/3/1
f 3/3/1 2/2/2 4/4/2
f 4/4/2 2/2/2 5/5/3
f 4/4/2 5/5/3 6/6/3
f 6/6/3 5/5/3 7/7/4
f 7/7/4 5/5/3 8/8/4
f 7/7/4 8/8/4 9/9/5
f 9/9/5 8/8/4 10/10/5
f 9/9/5 10/10/5 11/11/6
f 11/11/6 10/10/5 12/12/6
f 11/11/6 12/12/6 13/13/7
f 11/11/6 13/13/7 14/14/7
f 14/14/7 13/13/7 15/15/8
f 15/15/8 13/13/7 16/16/8
f 15/15/8 16/16/8 17/17/9
f 15/15/8 17/17/9 18/18/9
f 18/18/9 17/17/9 19/19/10
f 19/19/10 17/17/9 20/20/10
f 19/19/10 20/20/10 21/21/11
f 21/21/11 20/20/10 22/22/11
f 13/23/12 12/24/12 16/25/12
f 16/25/12 12/24/12 10/26/12
f 16/25/12 10/26/12 8/27/12
f 16/25/12 8/27/12 17/28/12
f 17/28/12 8/27/12 20/29/12
f 20/29/12 8/27/12 5/30/12
f 20/29/12 5/30/12 2/31/12
f 20/29/12 2/31/12 22/32/12
f 22/32/12 2/31/12 1/33/12
f 3/34/13 4/35/13 21/36/13
f 21/36/13 4/35/13 19/37/13
f 19/37/13 4/35/13 6/38/13
f 19/37/13 6/38/13 7/39/13
f 19/37/13 7/39/13 18/40/13
f 18/40/13 7/39/13 15/41/13
f 15/41/13 7/39/13 9/42/13
f 15/41/13 9/42/13 11/43/13
f 15/41/13 11/43/13 14/44/13
