# CS2 body mesh, tools/cs2_glb_to_obj.py
v 0.00742 -0.03425 -0.16564
v 0.00742 -0.02253 -0.173
v 0.01571 -0.03425 -0.16564
v 0.01571 -0.02253 -0.173
v 0.01571 -0.0093 -0.17675
v 0.00742 -0.0093 -0.17675
v 0.00752 0.00493 -0.1767
v 0.0156 0.00493 -0.1767
v 0.01571 -0.03472 -0.1635
v 0.01156 -0.03497 -0.16174
v 0.00742 -0.03472 -0.1635
v 0.00742 0.00493 -0.16414
v 0.00742 -0.0093 -0.16548
v 0.00742 -0.02253 -0.16599
v 0.01571 -0.02253 -0.16599
v 0.01571 -0.0093 -0.16548
v 0.01571 0.00493 -0.16414
v 0.01156 -0.02253 -0.16396
v 0.01156 -0.0093 -0.16345
v 0.01156 0.00493 -0.16211
vt 0.471191 0.950195
vt 0.474365 0.931152
vt 0.455811 0.951172
vt 0.454102 0.931152
vt 0.472412 0.92334
vt 0.455811 0.91748
vt 0.469971 0.912598
vt 0.474609 0.912109
vt 0.473877 0.891602
vt 0.453857 0.912109
vt 0.454346 0.891602
vt 0.458252 0.95166
vt 0.471924 0.951172
vt 0.459717 0.949219
vt 0.463135 0.95459
vt 0.469482 0.953125
vt 0.485596 0.890625
vt 0.502441 0.891602
vt 0.486084 0.910156
vt 0.501465 0.911133
vt 0.486084 0.928223
vt 0.495605 0.928223
vt 0.487061 0.944336
vt 0.484619 0.945312
vt 0.479492 0.945801
vt 0.479492 0.928223
vt 0.479492 0.910156
vt 0.479492 0.890625
vn 0 -0.5481 -0.8364
vn 0 -0.4221 -0.9065
vn 0 -0.1428 -0.9897
vn 0 -0.001 -1
vn 0 -0.9828 -0.1849
vn 0 -0.9785 -0.2061
vn 0 -0.9922 -0.1244
vn -0.9998 -0.0151 -0.0161
vn 0.9999 -0.001 0.0159
vn 0.9999 -0.001 -0.0159
vn -0.4232 0.1632 0.8912
vn -0.4467 0.0674 0.8921
vn -0.437 -0.0445 0.8983
vn -0.4451 -0.0673 0.8929
vn 0.4023 0.1874 0.8961
vn 0.4281 0.0901 0.8992
vn 0.4188 -0.0666 0.9056
vn 0.4265 -0.09 0.9
o trigger__p0_c0
f 1/1/1 2/2/2 3/3/1
f 3/3/1 2/2/2 4/4/2
f 2/5/2 5/6/3 4/4/2
f 5/6/3 2/5/2 6/7/3
f 6/8/3 7/9/4 5/10/3
f 5/10/3 7/9/4 8/11/4
f 9/12/5 1/13/6 3/14/6
f 9/12/5 10/15/7 11/16/5
f 9/12/5 11/16/5 1/13/6
f 12/17/8 7/18/8 13/19/8
f 13/19/8 7/18/8 6/20/8
f 13/19/8 6/20/8 14/21/8
f 14/21/8 6/20/8 2/22/8
f 14/21/8 2/22/8 1/23/8
f 14/21/8 1/23/8 11/24/8
f 9/24/9 3/23/9 15/21/9
f 15/21/9 3/23/9 4/22/9
f 15/21/9 4/22/9 5/20/10
f 15/21/9 5/20/10 16/19/10
f 16/19/10 5/20/10 8/18/10
f 16/19/10 8/18/10 17/17/10
f 11/24/11 10/25/11 14/21/12
f 14/21/12 10/25/11 18/26/12
f 14/21/12 18/26/12 13/19/13
f 13/19/13 18/26/12 19/27/13
f 13/19/13 19/27/13 20/28/14
f 13/19/13 20/28/14 12/17/14
f 10/25/15 15/21/16 18/26/16
f 16/19/17 19/27/17 18/26/16
f 19/27/17 16/19/17 20/28/18
f 9/24/15 15/21/16 10/25/15
f 18/26/16 15/21/16 16/19/17
f 20/28/18 16/19/17 17/17/18
