# CS2 body mesh, tools/cs2_glb_to_obj.py
v -0.00398 0.13425 -0.19972
v -0.00252 0.13396 -0.20004
v -0.00429 0.13116 -0.19972
v -0.00279 0.13116 -0.20004
v -0.00063 0.13358 -0.20028
v -0.0053 0.13116 -0.19938
v -0.00498 0.13445 -0.19938
v -0.006 0.13116 -0.19899
v -0.00566 0.12773 -0.19899
v -0.00594 0.12767 -0.19853
v -0.00498 0.12787 -0.19938
v -0.00466 0.12443 -0.19899
v -0.00493 0.12432 -0.19853
v -0.00398 0.12806 -0.19972
v -0.00402 0.1247 -0.19938
v -0.00304 0.12139 -0.19899
v -0.00327 0.12124 -0.19853
v -0.00085 0.11873 -0.19899
v -0.00105 0.11853 -0.19853
v -0.00246 0.12178 -0.19938
v -0.00308 0.12509 -0.19972
v -0.00252 0.12835 -0.20004
v 0.00181 0.11655 -0.19899
v 0.00165 0.11631 -0.19853
v -0.00036 0.11923 -0.19938
v -0.00161 0.12235 -0.19972
v -0.0017 0.12566 -0.20004
v -0.00063 0.12873 -0.20028
v 0.00008 0.1264 -0.20028
v -0.00037 0.12318 -0.20004
v -0.00087 0.13116 -0.20028
v 0.00263 0.13116 -0.20047
v 0.00036 0.11994 -0.19972
v 0.00141 0.121 -0.20004
v 0.0022 0.11713 -0.19938
v 0.00276 0.11797 -0.19972
v 0.00359 0.11921 -0.20004
v 0.00485 0.11492 -0.19899
v 0.00474 0.11466 -0.19853
v 0.00511 0.11557 -0.19938
v 0.00814 0.11392 -0.19899
v 0.00809 0.11365 -0.19853
v 0.0055 0.11651 -0.19972
v 0.00607 0.11789 -0.20004
v 0.01157 0.11359 -0.19899
v 0.01157 0.1133 -0.19853
v 0.015 0.11392 -0.19899
v 0.00828 0.11461 -0.19938
v 0.01157 0.11429 -0.19938
v 0.00848 0.1156 -0.19972
v 0.00877 0.11707 -0.20004
v 0.01157 0.1153 -0.19972
v 0.01486 0.11461 -0.19938
v 0.01157 0.11679 -0.20004
v 0.01466 0.1156 -0.19972
v 0.01803 0.11557 -0.19938
v 0.02094 0.11713 -0.19938
v 0.02133 0.11655 -0.19899
v 0.02475 0.12235 -0.19972
v 0.02716 0.1247 -0.19938
v 0.0256 0.12178 -0.19938
v 0.02622 0.12509 -0.19972
v 0.02812 0.12787 -0.19938
v 0.0183 0.11492 -0.19899
v 0.01505 0.11365 -0.19853
v 0.0184 0.11466 -0.19853
v 0.02149 0.11631 -0.19853
v 0.024 0.11873 -0.19899
v 0.0242 0.11853 -0.19853
v 0.0235 0.11923 -0.19938
v 0.02618 0.12139 -0.19899
v 0.02642 0.12124 -0.19853
v 0.0278 0.12443 -0.19899
v 0.02807 0.12432 -0.19853
v 0.0288 0.12773 -0.19899
v 0.02908 0.12767 -0.19853
v 0.02914 0.13116 -0.19899
v 0.02943 0.13116 -0.19853
v 0.02844 0.13116 -0.19938
v 0.0288 0.13458 -0.19899
v 0.02908 0.13464 -0.19853
v 0.02812 0.13445 -0.19938
v 0.0278 0.13788 -0.19899
v 0.02743 0.13116 -0.19972
v 0.02807 0.13799 -0.19853
v 0.02712 0.13425 -0.19972
v 0.02593 0.13116 -0.20004
v 0.02716 0.13761 -0.19938
v 0.02618 0.14092 -0.19899
v 0.02642 0.14108 -0.19853
v 0.02566 0.13396 -0.20004
v 0.02401 0.13116 -0.20028
v 0.02622 0.13722 -0.19972
v 0.0256 0.14053 -0.19938
v 0.024 0.14358 -0.19899
v 0.0242 0.14378 -0.19853
v 0.02377 0.13358 -0.20028
v 0.02034 0.1329 -0.20047
v 0.02484 0.13665 -0.20004
v 0.02133 0.14577 -0.19899
v 0.02149 0.146 -0.19853
v 0.0235 0.14309 -0.19938
v 0.0183 0.14739 -0.19899
v 0.02475 0.13997 -0.19972
v 0.0184 0.14765 -0.19853
v 0.02094 0.14518 -0.19938
v 0.02278 0.14237 -0.19972
v 0.02351 0.13914 -0.20004
v 0.02306 0.13592 -0.20028
v 0.02173 0.14131 -0.20004
v 0.02038 0.14434 -0.19972
v 0.01803 0.14674 -0.19938
v 0.01983 0.13458 -0.20047
v 0.02191 0.13807 -0.20028
v 0.01901 0.13613 -0.20047
v 0.01724 0.13228 -0.20057
v 0.01735 0.13116 -0.20057
v 0.01441 0.13116 -0.20063
v 0.01691 0.13337 -0.20057
v 0.01435 0.13171 -0.20063
v 0.01157 0.13116 -0.20069
v 0.01419 0.13224 -0.20063
v 0.01393 0.13273 -0.20063
v 0.01637 0.13437 -0.20057
v 0.01566 0.13524 -0.20057
v 0.01358 0.13316 -0.20063
v 0.01478 0.13596 -0.20057
v 0.01789 0.13748 -0.20047
v 0.01654 0.13859 -0.20047
v 0.02037 0.13995 -0.20028
v 0.01499 0.13942 -0.20047
v 0.01378 0.13649 -0.20057
v 0.01848 0.1415 -0.20028
v 0.01955 0.1431 -0.20004
v 0.01633 0.14265 -0.20028
v 0.01332 0.13993 -0.20047
v 0.014 0.14336 -0.20028
v 0.01707 0.14443 -0.20004
v 0.01437 0.14524 -0.20004
v 0.01157 0.14552 -0.20004
v 0.01764 0.14581 -0.19972
v 0.01466 0.14671 -0.19972
v 0.01157 0.14701 -0.19972
v 0.01486 0.1477 -0.19938
v 0.01157 0.14803 -0.19938
v 0.015 0.14839 -0.19899
v 0.01157 0.14873 -0.19899
v 0.01505 0.14867 -0.19853
v 0.02484 0.12566 -0.20004
v 0.02712 0.12806 -0.19972
v 0.02566 0.12835 -0.20004
v 0.02351 0.12318 -0.20004
v 0.02306 0.1264 -0.20028
v 0.02191 0.12425 -0.20028
v 0.02377 0.12873 -0.20028
v 0.01983 0.12773 -0.20047
v 0.02034 0.12941 -0.20047
v 0.02051 0.13116 -0.20047
v 0.01691 0.12895 -0.20057
v 0.01724 0.13003 -0.20057
v 0.01435 0.1306 -0.20063
v 0.01419 0.13007 -0.20063
v 0.01393 0.12958 -0.20063
v 0.01637 0.12795 -0.20057
v 0.01358 0.12915 -0.20063
v 0.01566 0.12707 -0.20057
v 0.01901 0.12619 -0.20047
v 0.02037 0.12236 -0.20028
v 0.01789 0.12483 -0.20047
v 0.01478 0.12635 -0.20057
v 0.01315 0.1288 -0.20063
v 0.01654 0.12372 -0.20047
v 0.01378 0.12582 -0.20057
v 0.01499 0.12289 -0.20047
v 0.01848 0.12081 -0.20028
v 0.01633 0.11966 -0.20028
v 0.014 0.11896 -0.20028
v 0.01332 0.12239 -0.20047
v 0.02173 0.121 -0.20004
v 0.01955 0.11921 -0.20004
v 0.01707 0.11789 -0.20004
v 0.01437 0.11707 -0.20004
v 0.01157 0.11872 -0.20028
v 0.02278 0.11994 -0.19972
v 0.02038 0.11797 -0.19972
v 0.01764 0.11651 -0.19972
v 0.0028 0.1329 -0.20047
v 0.0059 0.13228 -0.20057
v 0.00879 0.13171 -0.20063
v 0.00579 0.13116 -0.20057
v 0.00874 0.13116 -0.20063
v 0.0059 0.13003 -0.20057
v 0.00008 0.13592 -0.20028
v 0.00331 0.13458 -0.20047
v 0.0028 0.12941 -0.20047
v 0.00879 0.1306 -0.20063
v 0.00331 0.12773 -0.20047
v 0.00623 0.12895 -0.20057
v 0.00895 0.13007 -0.20063
v 0.00413 0.12619 -0.20047
v 0.00677 0.12795 -0.20057
v 0.00921 0.12958 -0.20063
v 0.00525 0.12483 -0.20047
v 0.00749 0.12707 -0.20057
v 0.00957 0.12915 -0.20063
v 0.00123 0.12425 -0.20028
v 0.0066 0.12372 -0.20047
v 0.00836 0.12635 -0.20057
v 0.01 0.1288 -0.20063
v 0.00277 0.12236 -0.20028
v 0.00466 0.12081 -0.20028
v 0.00815 0.12289 -0.20047
v 0.00936 0.12582 -0.20057
v 0.01049 0.12854 -0.20063
v 0.00681 0.11966 -0.20028
v 0.00983 0.12239 -0.20047
v 0.01044 0.12549 -0.20057
v 0.01102 0.12838 -0.20063
v 0.00914 0.11896 -0.20028
v 0.01157 0.12221 -0.20047
v 0.01157 0.12538 -0.20057
v 0.01157 0.12832 -0.20063
v 0.0127 0.12549 -0.20057
v 0.01212 0.12838 -0.20063
v 0.01266 0.12854 -0.20063
v 0.01315 0.13351 -0.20063
v 0.01266 0.13378 -0.20063
v 0.01212 0.13394 -0.20063
v 0.0127 0.13682 -0.20057
v 0.01157 0.13693 -0.20057
v 0.01157 0.1401 -0.20047
v 0.00983 0.13993 -0.20047
v 0.01157 0.1436 -0.20028
v 0.00914 0.14336 -0.20028
v 0.00877 0.14524 -0.20004
v 0.00607 0.14443 -0.20004
v 0.00848 0.14671 -0.19972
v 0.00681 0.14265 -0.20028
v 0.00815 0.13942 -0.20047
v 0.0066 0.13859 -0.20047
v 0.0055 0.14581 -0.19972
v 0.00359 0.1431 -0.20004
v 0.00466 0.1415 -0.20028
v 0.00525 0.13748 -0.20047
v 0.00276 0.14434 -0.19972
v 0.00141 0.14131 -0.20004
v 0.00277 0.13995 -0.20028
v 0.00413 0.13613 -0.20047
v 0.00036 0.14237 -0.19972
v -0.00037 0.13914 -0.20004
v 0.00123 0.13807 -0.20028
v -0.00161 0.13997 -0.19972
v -0.0017 0.13665 -0.20004
v -0.00308 0.13722 -0.19972
v -0.00402 0.13761 -0.19938
v -0.00246 0.14053 -0.19938
v -0.00036 0.14309 -0.19938
v -0.00466 0.13788 -0.19899
v -0.00566 0.13458 -0.19899
v 0.0022 0.14518 -0.19938
v -0.00304 0.14092 -0.19899
v -0.00493 0.13799 -0.19853
v -0.00327 0.14108 -0.19853
v -0.00594 0.13464 -0.19853
v -0.00105 0.14378 -0.19853
v -0.00628 0.13116 -0.19853
v -0.00085 0.14358 -0.19899
v 0.00165 0.146 -0.19853
v 0.00181 0.14577 -0.19899
v 0.00474 0.14765 -0.19853
v 0.00511 0.14674 -0.19938
v 0.00485 0.14739 -0.19899
v 0.00809 0.14867 -0.19853
v 0.00828 0.1477 -0.19938
v 0.00814 0.14839 -0.19899
v 0.01157 0.14901 -0.19853
v 0.01044 0.13682 -0.20057
v 0.00936 0.13649 -0.20057
v 0.01102 0.13394 -0.20063
v 0.01157 0.13399 -0.20063
v 0.01049 0.13378 -0.20063
v 0.00836 0.13596 -0.20057
v 0.01 0.13351 -0.20063
v 0.00749 0.13524 -0.20057
v 0.00957 0.13316 -0.20063
v 0.00677 0.13437 -0.20057
v 0.00921 0.13273 -0.20063
v 0.00623 0.13337 -0.20057
v 0.00895 0.13224 -0.20063
vt 1.93457 0.41333
vt 1.893555 0.421387
vt 1.943359 0.499756
vt 1.901367 0.499756
vt 1.84082 0.431885
vt 1.97168 0.499756
vt 1.962891 0.407715
vt 1.991211 0.499756
vt 1.982422 0.595703
vt 1.990234 0.597168
vt 1.962891 0.591797
vt 1.954102 0.687988
vt 1.961914 0.690918
vt 1.93457 0.586426
vt 1.935547 0.680664
vt 1.908203 0.772949
vt 1.915039 0.777344
vt 1.847656 0.847656
vt 1.853516 0.853516
vt 1.892578 0.762207
vt 1.910156 0.669434
vt 1.893555 0.578125
vt 1.772461 0.908691
vt 1.777344 0.915527
vt 1.833984 0.833984
vt 1.869141 0.746582
vt 1.871094 0.653809
vt 1.84082 0.567871
vt 1.821289 0.632812
vt 1.833984 0.723145
vt 1.847656 0.499756
vt 1.75 0.499756
vt 1.813477 0.813965
vt 1.78418 0.78418
vt 1.761719 0.892578
vt 1.746094 0.869141
vt 1.722656 0.833984
vt 1.6875 0.95459
vt 1.69043 0.961914
vt 1.680664 0.936035
vt 1.595703 0.982422
vt 1.59668 0.990234
vt 1.668945 0.910156
vt 1.65332 0.871582
vt 1.499023 0.991699
vt 1.5 1
vt 1.40332 0.982422
vt 1.591797 0.962891
vt 1.499023 0.972168
vt 1.585938 0.935059
vt 1.578125 0.894043
vt 1.499023 0.943848
vt 1.407227 0.962891
vt 1.499023 0.901855
vt 1.413086 0.935059
vt 1.318359 0.936035
vt 1.237305 0.892578
vt 1.226562 0.908691
vt 1.129883 0.746582
vt 1.063477 0.680664
vt 1.106445 0.762207
vt 1.088867 0.669434
vt 1.036133 0.591797
vt 1.311523 0.95459
vt 1.402344 0.990234
vt 1.308594 0.961914
vt 1.22168 0.915527
vt 1.151367 0.847656
vt 1.145508 0.853516
vt 1.165039 0.833984
vt 1.09082 0.772949
vt 1.083984 0.777344
vt 1.044922 0.687988
vt 1.037109 0.690918
vt 1.016602 0.595703
vt 1.008789 0.597168
vt 1.007812 0.499756
vt 1 0.5
vt 1.027344 0.499756
vt 1.016602 0.403809
vt 1.008789 0.402344
vt 1.036133 0.407715
vt 1.044922 0.311523
vt 1.055664 0.499756
vt 1.037109 0.308594
vt 1.064453 0.41333
vt 1.097656 0.499756
vt 1.063477 0.319092
vt 1.09082 0.226562
vt 1.083984 0.222168
vt 1.105469 0.421387
vt 1.151367 0.499756
vt 1.088867 0.329834
vt 1.106445 0.237427
vt 1.151367 0.151978
vt 1.145508 0.146362
vt 1.158203 0.431885
vt 1.253906 0.450928
vt 1.12793 0.345947
vt 1.226562 0.09082
vt 1.22168 0.084229
vt 1.165039 0.165894
vt 1.311523 0.04538
vt 1.129883 0.253174
vt 1.308594 0.038055
vt 1.237305 0.107117
vt 1.185547 0.185913
vt 1.165039 0.276367
vt 1.177734 0.366455
vt 1.214844 0.215454
vt 1.25293 0.130737
vt 1.318359 0.063477
vt 1.268555 0.404053
vt 1.209961 0.306396
vt 1.291016 0.36084
vt 1.354492 0.470947
vt 1.351562 0.499756
vt 1.426758 0.499756
vt 1.363281 0.443359
vt 1.427734 0.485596
vt 1.499023 0.499756
vt 1.432617 0.471924
vt 1.439453 0.459473
vt 1.376953 0.417725
vt 1.395508 0.395508
vt 1.448242 0.448486
vt 1.416992 0.376953
vt 1.322266 0.322754
vt 1.360352 0.291748
vt 1.25293 0.253662
vt 1.40332 0.268555
vt 1.443359 0.363525
vt 1.305664 0.210327
vt 1.276367 0.165527
vt 1.366211 0.178101
vt 1.450195 0.25415
vt 1.431641 0.158325
vt 1.345703 0.128296
vt 1.420898 0.105469
vt 1.499023 0.097717
vt 1.329102 0.089722
vt 1.413086 0.064453
vt 1.499023 0.055969
vt 1.407227 0.036621
vt 1.499023 0.027542
vt 1.40332 0.017395
vt 1.499023 0.007942
vt 1.402344 0.009644
vt 1.12793 0.653809
vt 1.064453 0.586426
vt 1.105469 0.578125
vt 1.165039 0.723145
vt 1.177734 0.632812
vt 1.209961 0.693359
vt 1.158203 0.567871
vt 1.268555 0.595703
vt 1.253906 0.548828
vt 1.249023 0.499756
vt 1.363281 0.556152
vt 1.354492 0.528809
vt 1.427734 0.51416
vt 1.432617 0.527832
vt 1.439453 0.540039
vt 1.376953 0.582031
vt 1.448242 0.55127
vt 1.395508 0.604004
vt 1.291016 0.638672
vt 1.25293 0.746094
vt 1.322266 0.676758
vt 1.416992 0.622559
vt 1.458984 0.560059
vt 1.360352 0.708008
vt 1.443359 0.63623
vt 1.40332 0.730957
vt 1.305664 0.789551
vt 1.366211 0.821777
vt 1.431641 0.841309
vt 1.450195 0.745605
vt 1.214844 0.78418
vt 1.276367 0.833984
vt 1.345703 0.871582
vt 1.420898 0.894043
vt 1.499023 0.848145
vt 1.185547 0.813965
vt 1.25293 0.869141
vt 1.329102 0.910156
vt 1.745117 0.450928
vt 1.644531 0.470947
vt 1.571289 0.485596
vt 1.647461 0.499756
vt 1.572266 0.499756
vt 1.644531 0.528809
vt 1.821289 0.366455
vt 1.730469 0.404053
vt 1.745117 0.548828
vt 1.571289 0.51416
vt 1.730469 0.595703
vt 1.635742 0.556152
vt 1.566406 0.527832
vt 1.708008 0.638672
vt 1.62207 0.582031
vt 1.55957 0.540039
vt 1.676758 0.676758
vt 1.603516 0.604004
vt 1.550781 0.55127
vt 1.789062 0.693359
vt 1.638672 0.708008
vt 1.582031 0.622559
vt 1.540039 0.560059
vt 1.746094 0.746094
vt 1.693359 0.789551
vt 1.595703 0.730957
vt 1.555664 0.63623
vt 1.527344 0.566895
vt 1.632812 0.821777
vt 1.548828 0.745605
vt 1.52832 0.644531
vt 1.513672 0.571289
vt 1.567383 0.841309
vt 1.499023 0.75
vt 1.499023 0.647461
vt 1.499023 0.572754
vt 1.470703 0.644531
vt 1.485352 0.571289
vt 1.47168 0.566895
vt 1.458984 0.439453
vt 1.47168 0.432617
vt 1.485352 0.428467
vt 1.470703 0.35498
vt 1.499023 0.352295
vt 1.499023 0.249512
vt 1.548828 0.25415
vt 1.499023 0.151611
vt 1.567383 0.158325
vt 1.578125 0.105469
vt 1.65332 0.128296
vt 1.585938 0.064453
vt 1.632812 0.178101
vt 1.595703 0.268555
vt 1.638672 0.291748
vt 1.668945 0.089722
vt 1.722656 0.165527
vt 1.693359 0.210327
vt 1.676758 0.322754
vt 1.746094 0.130737
vt 1.78418 0.215454
vt 1.746094 0.253662
vt 1.708008 0.36084
vt 1.813477 0.185913
vt 1.833984 0.276367
vt 1.789062 0.306396
vt 1.869141 0.253174
vt 1.871094 0.345947
vt 1.910156 0.329834
vt 1.935547 0.319092
vt 1.892578 0.237427
vt 1.833984 0.165894
vt 1.954102 0.311523
vt 1.982422 0.403809
vt 1.761719 0.107117
vt 1.908203 0.226562
vt 1.961914 0.308594
vt 1.915039 0.222168
vt 1.990234 0.402344
vt 1.853516 0.146362
vt 2 0.5
vt 1.847656 0.151978
vt 1.777344 0.084229
vt 1.772461 0.09082
vt 1.69043 0.038055
vt 1.680664 0.063477
vt 1.6875 0.04538
vt 1.59668 0.009644
vt 1.591797 0.036621
vt 1.595703 0.017395
vt 1.5 0
vt 1.52832 0.35498
vt 1.555664 0.363525
vt 1.513672 0.428467
vt 1.499023 0.427002
vt 1.527344 0.432617
vt 1.582031 0.376953
vt 1.540039 0.439453
vt 1.603516 0.395508
vt 1.550781 0.448486
vt 1.62207 0.417725
vt 1.55957 0.459473
vt 1.635742 0.443359
vt 1.566406 0.471924
vn -0.2612 0.0409 -0.9644
vn -0.1683 0.0172 -0.9856
vn -0.2695 -0.0208 -0.9628
vn -0.1827 -0.0173 -0.983
vn -0.1043 0.0011 -0.9945
vn -0.4131 -0.0224 -0.9104
vn -0.4128 0.0441 -0.9098
vn -0.707 -0.021 -0.707
vn -0.7017 -0.1239 -0.7017
vn -0.8454 -0.1712 -0.506
vn -0.4188 -0.0666 -0.9056
vn -0.6512 -0.2871 -0.7025
vn -0.7999 -0.3095 -0.5142
vn -0.2669 -0.0592 -0.9619
vn -0.3939 -0.1613 -0.9049
vn -0.5923 -0.4021 -0.6982
vn -0.7265 -0.4595 -0.5109
vn -0.5142 -0.4892 -0.7045
vn -0.6047 -0.603 -0.5203
vn -0.3569 -0.2355 -0.904
vn -0.2502 -0.1071 -0.9622
vn -0.1703 -0.0385 -0.9846
vn -0.4038 -0.5909 -0.6984
vn -0.4873 -0.7059 -0.514
vn -0.3112 -0.2833 -0.9071
vn -0.2342 -0.1513 -0.9604
vn -0.1734 -0.0582 -0.9831
vn -0.1071 -0.0164 -0.9941
vn -0.0897 -0.0339 -0.9954
vn -0.1573 -0.098 -0.9827
vn -0.1025 -0.0185 -0.9946
vn -0.0499 -0.0156 -0.9986
vn -0.1924 -0.1937 -0.962
vn -0.1381 -0.1175 -0.9834
vn -0.237 -0.3555 -0.9041
vn -0.1712 -0.2147 -0.9616
vn -0.0992 -0.1561 -0.9827
vn -0.2853 -0.6524 -0.7021
vn -0.3407 -0.7828 -0.5208
vn -0.1628 -0.3926 -0.9052
vn -0.1482 -0.6879 -0.7105
vn -0.1697 -0.8439 -0.509
vn -0.1058 -0.2515 -0.9621
vn -0.0761 -0.1558 -0.9848
vn 0 -0.7174 -0.6967
vn -0.0219 -0.8451 -0.5342
vn 0.1223 -0.7025 -0.7011
vn -0.0876 -0.4011 -0.9118
vn 0 -0.4221 -0.9065
vn -0.0604 -0.2657 -0.9622
vn -0.0373 -0.1715 -0.9845
vn 0 -0.2742 -0.9617
vn 0.0652 -0.42 -0.9052
vn 0 -0.1862 -0.9825
vn 0.0401 -0.2846 -0.9578
vn 0.1391 -0.4131 -0.9
vn 0.2129 -0.3777 -0.9011
vn 0.3752 -0.6139 -0.6945
vn 0.2134 -0.1726 -0.9616
vn 0.3729 -0.185 -0.9092
vn 0.3343 -0.2595 -0.906
vn 0.2302 -0.128 -0.9647
vn 0.3999 -0.089 -0.9122
vn 0.2571 -0.6713 -0.6951
vn 0.1433 -0.8557 -0.4973
vn 0.3077 -0.8008 -0.5138
vn 0.4576 -0.7279 -0.5107
vn 0.4875 -0.5158 -0.7045
vn 0.5773 -0.6296 -0.5199
vn 0.2848 -0.3097 -0.9072
vn 0.5683 -0.4304 -0.7013
vn 0.7045 -0.4892 -0.5142
vn 0.631 -0.3155 -0.7087
vn 0.7838 -0.3389 -0.5204
vn 0.6869 -0.1498 -0.7111
vn 0.8338 -0.1948 -0.5166
vn 0.696 0.0014 -0.7181
vn 0.8455 -0.0205 -0.5336
vn 0.4036 -0.0223 -0.9147
vn 0.6777 0.1206 -0.7254
vn 0.828 0.1692 -0.5345
vn 0.3935 0.0631 -0.9172
vn 0.6226 0.2865 -0.7282
vn 0.2573 -0.0182 -0.9662
vn 0.7784 0.3117 -0.545
vn 0.2424 0.0609 -0.9683
vn 0.1673 -0.0195 -0.9857
vn 0.3657 0.1624 -0.9164
vn 0.5621 0.4005 -0.7236
vn 0.7048 0.4582 -0.5415
vn 0.1481 0.0379 -0.9883
vn 0.0858 0.0011 -0.9963
vn 0.2272 0.1028 -0.9684
vn 0.3281 0.2356 -0.9148
vn 0.4861 0.4828 -0.7284
vn 0.5769 0.604 -0.5499
vn 0.0872 0.0183 -0.996
vn 0.0338 0.0154 -0.9993
vn 0.1507 0.0572 -0.9869
vn 0.3723 0.5856 -0.7201
vn 0.4619 0.7021 -0.542
vn 0.2824 0.2824 -0.9168
vn 0.2585 0.6423 -0.7216
vn 0.2109 0.1462 -0.9665
vn 0.3117 0.7784 -0.545
vn 0.2119 0.3502 -0.9124
vn 0.1671 0.1904 -0.9674
vn 0.1344 0.0964 -0.9862
vn 0.0701 0.0356 -0.9969
vn 0.1154 0.1154 -0.9866
vn 0.1462 0.2109 -0.9665
vn 0.1362 0.3889 -0.9112
vn 0.0712 0.0537 -0.996
vn 0.0159 -0.001 -0.9999
vn 0.0171 0.0151 -0.9997
vn 0 -0.001 -1
vn -0.001 0.0149 -0.9999
vn -0.001 0.0313 -0.9995
vn 0.0174 0.0318 -0.9993
vn 0.0537 0.0712 -0.996
vn -0.001 0.0481 -0.9988
vn 0.0361 0.0887 -0.9954
vn 0.0772 0.1533 -0.9852
vn 0.0183 0.0872 -0.996
vn 0.0572 0.1507 -0.9869
vn 0.0195 0.166 -0.9859
vn -0.0011 0.1631 -0.9866
vn 0.0823 0.2468 -0.9656
vn 0.0409 0.2612 -0.9644
vn -0.0012 0.2518 -0.9678
vn 0.0659 0.3911 -0.918
vn -0.0013 0.3945 -0.9189
vn 0.1206 0.6777 -0.7254
vn -0.0014 0.696 -0.7181
vn 0.1429 0.8384 -0.526
vn 0.1546 -0.0773 -0.9849
vn 0.2453 -0.0822 -0.966
vn 0.152 -0.0573 -0.9867
vn 0.1381 -0.1175 -0.9834
vn 0.0701 -0.0536 -0.9961
vn 0.0712 -0.0723 -0.9948
vn 0.0897 -0.0339 -0.9954
vn 0.0334 -0.0344 -0.9989
vn 0.0323 -0.001 -0.9995
vn 0.0164 -0.0339 -0.9993
vn 0.0162 -0.0172 -0.9997
vn 0 -0.0333 -0.9994
vn 0.0534 -0.0901 -0.9945
vn 0.0167 -0.0511 -0.9986
vn 0 -0.0502 -0.9987
vn 0 -0.0677 -0.9977
vn 0.0356 -0.1078 -0.9935
vn 0.0175 -0.106 -0.9942
vn 0.1187 -0.1369 -0.9835
vn 0.0773 -0.1776 -0.9811
vn 0.057 -0.1745 -0.983
vn 0.0186 -0.1896 -0.9817
vn 0 -0.1042 -0.9946
vn 0.1712 -0.2147 -0.9616
vn 0.15 -0.2355 -0.9602
vn 0.0822 -0.2736 -0.9583
vn -0.0492 -0.001 -0.9988
vn -0.0328 -0.0154 -0.9993
vn -0.0323 -0.001 -0.9995
vn -0.0872 0.0183 -0.996
vn -0.05 -0.0177 -0.9986
vn -0.0328 -0.0174 -0.9993
vn -0.0334 -0.0344 -0.9989
vn -0.0162 -0.0172 -0.9997
vn -0.0912 -0.0523 -0.9945
vn -0.0164 -0.0339 -0.9993
vn -0.0712 -0.0723 -0.9948
vn -0.0534 -0.0901 -0.9945
vn -0.0167 -0.0511 -0.9986
vn -0.035 -0.0886 -0.9955
vn -0.0174 0.0318 -0.9993
vn -0.0011 0.0858 -0.9963
vn -0.0356 0.0701 -0.9969
vn -0.0379 0.1481 -0.9883
vn -0.076 0.1322 -0.9883
vn -0.0609 0.2424 -0.9683
vn -0.0338 0.0154 -0.9993
vn -0.1028 0.2272 -0.9684
vn -0.0964 0.1344 -0.9862
vn -0.0537 0.0712 -0.996
vn -0.1671 0.1904 -0.9674
vn -0.1344 0.0964 -0.9862
vn -0.0712 0.0537 -0.996
vn -0.1904 0.1671 -0.9674
vn -0.1533 0.0772 -0.9852
vn -0.0887 0.0361 -0.9954
vn -0.2312 0.1253 -0.9648
vn -0.1713 0.0361 -0.9846
vn -0.2468 0.0823 -0.9656
vn -0.3889 0.1362 -0.9112
vn -0.3502 0.2119 -0.9124
vn -0.3054 0.2591 -0.9163
vn -0.6423 0.2585 -0.7216
vn -0.692 0.0955 -0.7155
vn -0.2356 0.3281 -0.9148
vn -0.5856 0.3723 -0.7201
vn -0.794 0.2826 -0.5383
vn -0.7262 0.4284 -0.5376
vn -0.8384 0.1429 -0.526
vn -0.604 0.5769 -0.5499
vn -0.852 0.0013 -0.5236
vn -0.5123 0.4559 -0.7278
vn -0.4914 0.6793 -0.5451
vn -0.4005 0.5621 -0.7236
vn -0.3411 0.7614 -0.5513
vn -0.1595 0.3683 -0.9159
vn -0.2865 0.6226 -0.7282
vn -0.1692 0.828 -0.5345
vn -0.0881 0.3753 -0.9227
vn -0.1463 0.6623 -0.7348
vn -0.0235 0.8291 -0.5587
vn -0.0159 -0.001 -0.9999
vn -0.0171 0.0151 -0.9997
o weapon_offset__p1_c0
f 1/1/1 2/2/2 3/3/3
f 3/3/3 2/2/2 4/4/4
f 4/4/4 2/2/2 5/5/5
f 1/1/1 3/3/3 6/6/6
f 1/1/1 6/6/6 7/7/7
f 7/7/7 6/6/6 8/8/8
f 8/8/8 6/6/6 9/9/9
f 8/8/8 9/9/9 10/10/10
f 6/6/6 3/3/3 11/11/11
f 6/6/6 11/11/11 9/9/9
f 10/10/10 9/9/9 12/12/12
f 12/12/12 9/9/9 11/11/11
f 10/10/10 12/12/12 13/13/13
f 11/11/11 3/3/3 14/14/14
f 14/14/14 3/3/3 4/4/4
f 12/12/12 11/11/11 15/15/15
f 15/15/15 11/11/11 14/14/14
f 13/13/13 12/12/12 16/16/16
f 16/16/16 12/12/12 15/15/15
f 13/13/13 16/16/16 17/17/17
f 17/17/17 16/16/16 18/18/18
f 17/17/17 18/18/18 19/19/19
f 16/16/16 15/15/15 20/20/20
f 16/16/16 20/20/20 18/18/18
f 15/15/15 14/14/14 21/21/21
f 15/15/15 21/21/21 20/20/20
f 21/21/21 14/14/14 22/22/22
f 22/22/22 14/14/14 4/4/4
f 19/19/19 18/18/18 23/23/23
f 19/19/19 23/23/23 24/24/24
f 18/18/18 20/20/20 25/25/25
f 18/18/18 25/25/25 23/23/23
f 20/20/20 21/21/21 26/26/26
f 20/20/20 26/26/26 25/25/25
f 21/21/21 22/22/22 27/27/27
f 21/21/21 27/27/27 26/26/26
f 27/27/27 22/22/22 28/28/28
f 27/27/27 28/28/28 29/29/29
f 27/27/27 29/29/29 30/30/30
f 27/27/27 30/30/30 26/26/26
f 28/28/28 22/22/22 31/31/31
f 31/31/31 22/22/22 4/4/4
f 28/28/28 31/31/31 32/32/32
f 31/31/31 4/4/4 5/5/5
f 31/31/31 5/5/5 32/32/32
f 26/26/26 30/30/30 33/33/33
f 26/26/26 33/33/33 25/25/25
f 33/33/33 30/30/30 34/34/34
f 25/25/25 33/33/33 35/35/35
f 25/25/25 35/35/35 23/23/23
f 33/33/33 34/34/34 36/36/36
f 33/33/33 36/36/36 35/35/35
f 36/36/36 34/34/34 37/37/37
f 23/23/23 35/35/35 38/38/38
f 23/23/23 38/38/38 24/24/24
f 24/24/24 38/38/38 39/39/39
f 38/38/38 35/35/35 40/40/40
f 40/40/40 35/35/35 36/36/36
f 39/39/39 38/38/38 41/41/41
f 41/41/41 38/38/38 40/40/40
f 39/39/39 41/41/41 42/42/42
f 43/43/43 36/36/36 37/37/37
f 36/36/36 43/43/43 40/40/40
f 43/43/43 37/37/37 44/44/44
f 42/42/42 41/41/41 45/45/45
f 42/42/42 45/45/45 46/46/46
f 46/46/46 45/45/45 47/47/47
f 48/48/48 41/41/41 40/40/40
f 41/41/41 48/48/48 45/45/45
f 48/48/48 40/40/40 43/43/43
f 47/47/47 45/45/45 49/49/49
f 49/49/49 45/45/45 48/48/48
f 48/48/48 43/43/43 50/50/50
f 50/50/50 43/43/43 44/44/44
f 48/48/48 50/50/50 49/49/49
f 50/50/50 44/44/44 51/51/51
f 49/49/49 50/50/50 52/52/52
f 52/52/52 50/50/50 51/51/51
f 49/49/49 52/52/52 53/53/53
f 52/52/52 51/51/51 54/54/54
f 52/52/52 54/54/54 55/55/55
f 55/55/55 56/56/56 53/53/53
f 55/55/55 53/53/53 52/52/52
f 57/57/57 58/58/58 56/56/56
f 59/59/59 60/60/60 61/61/61
f 60/60/60 59/59/59 62/62/62
f 60/60/60 62/62/62 63/63/63
f 53/53/53 56/56/56 64/64/64
f 64/64/64 56/56/56 58/58/58
f 53/53/53 64/64/64 47/47/47
f 53/53/53 47/47/47 49/49/49
f 47/47/47 64/64/64 65/65/65
f 47/47/47 65/65/65 46/46/46
f 65/65/65 64/64/64 66/66/66
f 66/66/66 64/64/64 58/58/58
f 66/66/66 58/58/58 67/67/67
f 67/67/67 58/58/58 68/68/68
f 68/68/68 58/58/58 57/57/57
f 67/67/67 68/68/68 69/69/69
f 68/68/68 57/57/57 70/70/70
f 69/69/69 68/68/68 71/71/71
f 71/71/71 68/68/68 70/70/70
f 69/69/69 71/71/71 72/72/72
f 71/71/71 70/70/70 61/61/61
f 72/72/72 71/71/71 73/73/73
f 73/73/73 71/71/71 61/61/61
f 72/72/72 73/73/73 74/74/74
f 73/73/73 61/61/61 60/60/60
f 74/74/74 73/73/73 75/75/75
f 75/75/75 73/73/73 60/60/60
f 74/74/74 75/75/75 76/76/76
f 75/75/75 60/60/60 63/63/63
f 76/76/76 75/75/75 77/77/77
f 77/77/77 75/75/75 63/63/63
f 76/76/76 77/77/77 78/78/78
f 77/77/77 63/63/63 79/79/79
f 78/78/78 77/77/77 80/80/80
f 80/80/80 77/77/77 79/79/79
f 78/78/78 80/80/80 81/81/81
f 80/80/80 79/79/79 82/82/82
f 81/81/81 80/80/80 83/83/83
f 83/83/83 80/80/80 82/82/82
f 82/82/82 79/79/79 84/84/84
f 81/81/81 83/83/83 85/85/85
f 82/82/82 84/84/84 86/86/86
f 86/86/86 84/84/84 87/87/87
f 83/83/83 82/82/82 88/88/88
f 88/88/88 82/82/82 86/86/86
f 85/85/85 83/83/83 89/89/89
f 89/89/89 83/83/83 88/88/88
f 85/85/85 89/89/89 90/90/90
f 86/86/86 87/87/87 91/91/91
f 91/91/91 87/87/87 92/92/92
f 88/88/88 86/86/86 93/93/93
f 93/93/93 86/86/86 91/91/91
f 89/89/89 88/88/88 94/94/94
f 94/94/94 88/88/88 93/93/93
f 90/90/90 89/89/89 95/95/95
f 95/95/95 89/89/89 94/94/94
f 90/90/90 95/95/95 96/96/96
f 91/91/91 92/92/92 97/97/97
f 97/97/97 92/92/92 98/98/98
f 93/93/93 91/91/91 99/99/99
f 99/99/99 91/91/91 97/97/97
f 96/96/96 95/95/95 100/100/100
f 96/96/96 100/100/100 101/101/101
f 100/100/100 95/95/95 102/102/102
f 102/102/102 95/95/95 94/94/94
f 101/101/101 100/100/100 103/103/103
f 104/104/104 94/94/94 93/93/93
f 94/94/94 104/104/104 102/102/102
f 104/104/104 93/93/93 99/99/99
f 101/101/101 103/103/103 105/105/105
f 100/100/100 102/102/102 106/106/106
f 100/100/100 106/106/106 103/103/103
f 102/102/102 104/104/104 107/107/107
f 102/102/102 107/107/107 106/106/106
f 104/104/104 99/99/99 108/108/108
f 104/104/104 108/108/108 107/107/107
f 108/108/108 99/99/99 109/109/109
f 109/109/109 99/99/99 97/97/97
f 107/107/107 108/108/108 110/110/110
f 106/106/106 107/107/107 111/111/111
f 111/111/111 107/107/107 110/110/110
f 106/106/106 111/111/111 112/112/112
f 106/106/106 112/112/112 103/103/103
f 109/109/109 97/97/97 113/113/98
f 113/113/98 97/97/97 98/98/98
f 114/114/113 108/108/108 109/109/109
f 108/108/108 114/114/113 110/110/110
f 109/109/109 113/113/98 115/115/98
f 109/109/109 115/115/98 114/114/113
f 113/113/98 98/98/98 116/116/114
f 116/116/114 98/98/98 117/117/114
f 116/116/114 117/117/114 118/118/114
f 113/113/98 116/116/114 119/119/115
f 113/113/98 119/119/115 115/115/98
f 116/116/114 118/118/114 120/120/114
f 116/116/114 120/120/114 119/119/115
f 120/120/114 118/118/114 121/121/116
f 120/120/114 121/121/116 122/122/114
f 120/120/114 122/122/114 119/119/115
f 122/122/114 121/121/116 123/123/114
f 119/119/115 122/122/114 124/124/115
f 124/124/115 122/122/114 123/123/114
f 119/119/115 124/124/115 115/115/98
f 124/124/115 123/123/114 125/125/115
f 125/125/115 123/123/114 126/126/117
f 125/125/115 126/126/117 127/127/118
f 115/115/98 124/124/115 128/128/119
f 128/128/119 124/124/115 125/125/115
f 115/115/98 128/128/119 114/114/113
f 125/125/115 127/127/118 129/129/119
f 125/125/115 129/129/119 128/128/119
f 114/114/113 128/128/119 130/130/120
f 130/130/120 128/128/119 129/129/119
f 114/114/113 130/130/120 110/110/110
f 129/129/119 127/127/118 131/131/121
f 131/131/121 127/127/118 132/132/118
f 130/130/120 129/129/119 133/133/122
f 133/133/122 129/129/119 131/131/121
f 110/110/110 130/130/120 134/134/123
f 134/134/123 130/130/120 133/133/122
f 110/110/110 134/134/123 111/111/111
f 133/133/122 131/131/121 135/135/124
f 135/135/124 131/131/121 136/136/121
f 135/135/124 136/136/121 137/137/124
f 133/133/122 135/135/124 138/138/125
f 133/133/122 138/138/125 134/134/123
f 135/135/124 137/137/124 139/139/126
f 135/135/124 139/139/126 138/138/125
f 139/139/126 137/137/124 140/140/127
f 141/141/128 111/111/111 134/134/123
f 141/141/128 134/134/123 138/138/125
f 111/111/111 141/141/128 112/112/112
f 138/138/125 139/139/126 142/142/129
f 138/138/125 142/142/129 141/141/128
f 142/142/129 139/139/126 143/143/130
f 141/141/128 142/142/129 144/144/131
f 141/141/128 144/144/131 112/112/112
f 144/144/131 142/142/129 145/145/132
f 112/112/112 144/144/131 146/146/133
f 146/146/133 144/144/131 147/147/134
f 112/112/112 146/146/133 103/103/103
f 146/146/133 147/147/134 148/148/135
f 103/103/103 146/146/133 105/105/105
f 105/105/105 146/146/133 148/148/135
f 149/149/136 150/150/137 62/62/62
f 62/62/62 150/150/137 63/63/63
f 150/150/137 149/149/136 151/151/138
f 149/149/136 62/62/62 152/152/139
f 150/150/137 151/151/138 84/84/84
f 151/151/138 149/149/136 153/153/140
f 150/150/137 84/84/84 79/79/79
f 150/150/137 79/79/79 63/63/63
f 84/84/84 151/151/138 87/87/87
f 153/153/140 149/149/136 154/154/141
f 154/154/141 149/149/136 152/152/139
f 151/151/138 153/153/140 155/155/142
f 151/151/138 155/155/142 87/87/87
f 153/153/140 154/154/141 156/156/143
f 155/155/142 153/153/140 157/157/143
f 157/157/143 153/153/140 156/156/143
f 87/87/87 155/155/142 92/92/92
f 155/155/142 157/157/143 158/158/144
f 155/155/142 158/158/144 92/92/92
f 157/157/143 156/156/143 159/159/145
f 158/158/144 157/157/143 160/160/146
f 160/160/146 157/157/143 159/159/145
f 92/92/92 158/158/144 98/98/98
f 158/158/144 160/160/146 117/117/114
f 158/158/144 117/117/114 98/98/98
f 117/117/114 160/160/146 161/161/146
f 160/160/146 159/159/145 162/162/146
f 160/160/146 162/162/146 161/161/146
f 162/162/146 159/159/145 163/163/146
f 161/161/146 162/162/146 121/121/116
f 121/121/116 162/162/146 163/163/146
f 163/163/146 159/159/145 164/164/145
f 164/164/145 159/159/145 156/156/143
f 163/163/146 164/164/145 165/165/147
f 165/165/147 164/164/145 166/166/145
f 164/164/145 156/156/143 167/167/143
f 164/164/145 167/167/143 166/166/145
f 167/167/143 156/156/143 154/154/141
f 121/121/116 118/118/114 161/161/146
f 161/161/146 118/118/114 117/117/114
f 167/167/143 154/154/141 168/168/148
f 168/168/148 154/154/141 152/152/139
f 166/166/145 167/167/143 169/169/149
f 169/169/149 167/167/143 168/168/148
f 166/166/145 169/169/149 170/170/150
f 166/166/145 170/170/150 171/171/147
f 170/170/150 169/169/149 172/172/149
f 170/170/150 172/172/149 173/173/150
f 173/173/150 172/172/149 174/174/151
f 172/172/149 169/169/149 175/175/152
f 175/175/152 169/169/149 168/168/148
f 174/174/151 172/172/149 176/176/153
f 176/176/153 172/172/149 175/175/152
f 174/174/151 176/176/153 177/177/153
f 174/174/151 177/177/153 178/178/151
f 175/175/152 168/168/148 179/179/154
f 179/179/154 168/168/148 152/152/139
f 176/176/153 175/175/152 180/180/155
f 180/180/155 175/175/152 179/179/154
f 177/177/153 176/176/153 181/181/156
f 181/181/156 176/176/153 180/180/155
f 177/177/153 181/181/156 182/182/157
f 177/177/153 182/182/157 183/183/158
f 179/179/154 152/152/139 59/59/59
f 59/59/59 152/152/139 62/62/62
f 180/180/155 179/179/154 184/184/159
f 184/184/159 179/179/154 59/59/59
f 181/181/156 180/180/155 185/185/160
f 185/185/160 180/180/155 184/184/159
f 186/186/161 182/182/157 181/181/156
f 186/186/161 181/181/156 185/185/160
f 182/182/157 186/186/161 55/55/55
f 182/182/157 55/55/55 54/54/54
f 186/186/161 185/185/160 57/57/57
f 185/185/160 184/184/159 70/70/70
f 185/185/160 70/70/70 57/57/57
f 70/70/70 184/184/159 61/61/61
f 61/61/61 184/184/159 59/59/59
f 55/55/55 186/186/161 56/56/56
f 56/56/56 186/186/161 57/57/57
f 187/187/162 188/188/163 32/32/32
f 189/189/163 190/190/163 188/188/163
f 188/188/163 190/190/163 32/32/32
f 190/190/163 189/189/163 191/191/163
f 191/191/163 189/189/163 121/121/116
f 190/190/163 191/191/163 192/192/164
f 193/193/165 194/194/162 187/187/162
f 32/32/32 190/190/163 195/195/166
f 195/195/166 190/190/163 192/192/164
f 5/5/5 187/187/162 32/32/32
f 187/187/162 5/5/5 193/193/165
f 32/32/32 195/195/166 28/28/28
f 196/196/164 192/192/164 191/191/163
f 196/196/164 191/191/163 121/121/116
f 195/195/166 192/192/164 197/197/166
f 195/195/166 197/197/166 28/28/28
f 192/192/164 196/196/164 198/198/167
f 192/192/164 198/198/167 197/197/166
f 198/198/167 196/196/164 199/199/164
f 199/199/164 196/196/164 121/121/116
f 197/197/166 198/198/167 200/200/166
f 198/198/167 199/199/164 201/201/167
f 198/198/167 201/201/167 200/200/166
f 201/201/167 199/199/164 202/202/164
f 202/202/164 199/199/164 121/121/116
f 197/197/166 200/200/166 29/29/29
f 197/197/166 29/29/29 28/28/28
f 200/200/166 201/201/167 203/203/168
f 201/201/167 202/202/164 204/204/167
f 201/201/167 204/204/167 203/203/168
f 204/204/167 202/202/164 205/205/169
f 205/205/169 202/202/164 121/121/116
f 29/29/29 200/200/166 206/206/170
f 206/206/170 200/200/166 203/203/168
f 29/29/29 206/206/170 30/30/30
f 203/203/168 204/204/167 207/207/168
f 204/204/167 205/205/169 208/208/171
f 204/204/167 208/208/171 207/207/168
f 208/208/171 205/205/169 209/209/169
f 209/209/169 205/205/169 121/121/116
f 206/206/170 203/203/168 210/210/172
f 210/210/172 203/203/168 207/207/168
f 206/206/170 210/210/172 34/34/34
f 206/206/170 34/34/34 30/30/30
f 210/210/172 207/207/168 211/211/173
f 212/212/174 207/207/168 208/208/171
f 207/207/168 212/212/174 211/211/173
f 213/213/171 208/208/171 209/209/169
f 208/208/171 213/213/171 212/212/174
f 213/213/171 209/209/169 214/214/169
f 214/214/169 209/209/169 121/121/116
f 210/210/172 211/211/173 37/37/37
f 210/210/172 37/37/37 34/34/34
f 211/211/173 212/212/174 215/215/175
f 212/212/174 213/213/171 216/216/174
f 212/212/174 216/216/174 215/215/175
f 213/213/171 214/214/169 217/217/169
f 213/213/171 217/217/169 216/216/174
f 217/217/169 214/214/169 218/218/169
f 218/218/169 214/214/169 121/121/116
f 211/211/173 215/215/175 44/44/44
f 211/211/173 44/44/44 37/37/37
f 215/215/175 216/216/174 219/219/175
f 216/216/174 217/217/169 220/220/150
f 216/216/174 220/220/150 219/219/175
f 217/217/169 218/218/169 221/221/147
f 217/217/169 221/221/147 220/220/150
f 221/221/147 218/218/169 222/222/147
f 222/222/147 218/218/169 121/121/116
f 215/215/175 219/219/175 51/51/51
f 215/215/175 51/51/51 44/44/44
f 219/219/175 220/220/150 183/183/158
f 220/220/150 221/221/147 178/178/151
f 220/220/150 178/178/151 183/183/158
f 183/183/158 178/178/151 177/177/153
f 178/178/151 221/221/147 223/223/147
f 223/223/147 221/221/147 222/222/147
f 178/178/151 223/223/147 174/174/151
f 174/174/151 223/223/147 173/173/150
f 219/219/175 183/183/158 54/54/54
f 219/219/175 54/54/54 51/51/51
f 54/54/54 183/183/158 182/182/157
f 223/223/147 222/222/147 224/224/147
f 223/223/147 224/224/147 173/173/150
f 224/224/147 222/222/147 121/121/116
f 173/173/150 224/224/147 225/225/147
f 225/225/147 224/224/147 121/121/116
f 173/173/150 225/225/147 170/170/150
f 170/170/150 225/225/147 171/171/147
f 171/171/147 225/225/147 121/121/116
f 165/165/147 166/166/145 171/171/147
f 165/165/147 171/171/147 121/121/116
f 165/165/147 121/121/116 163/163/146
f 126/126/117 123/123/114 121/121/116
f 126/126/117 121/121/116 226/226/117
f 126/126/117 226/226/117 127/127/118
f 127/127/118 226/226/117 132/132/118
f 226/226/117 121/121/116 227/227/117
f 226/226/117 227/227/117 132/132/118
f 227/227/117 121/121/116 228/228/117
f 227/227/117 228/228/117 229/229/117
f 227/227/117 229/229/117 132/132/118
f 229/229/117 228/228/117 230/230/117
f 132/132/118 229/229/117 136/136/121
f 132/132/118 136/136/121 131/131/121
f 229/229/117 230/230/117 231/231/118
f 229/229/117 231/231/118 136/136/121
f 231/231/118 230/230/117 232/232/176
f 136/136/121 231/231/118 137/137/124
f 231/231/118 232/232/176 233/233/177
f 231/231/118 233/233/177 137/137/124
f 233/233/177 232/232/176 234/234/178
f 137/137/124 233/233/177 140/140/127
f 233/233/177 234/234/178 235/235/179
f 233/233/177 235/235/179 140/140/127
f 235/235/179 234/234/178 236/236/180
f 140/140/127 235/235/179 237/237/181
f 236/236/180 234/234/178 238/238/178
f 238/238/178 234/234/178 239/239/176
f 238/238/178 239/239/176 240/240/182
f 235/235/179 236/236/180 241/241/183
f 235/235/179 241/241/183 237/237/181
f 236/236/180 238/238/178 242/242/184
f 238/238/178 240/240/182 243/243/185
f 238/238/178 243/243/185 242/242/184
f 243/243/185 240/240/182 244/244/182
f 236/236/180 242/242/184 245/245/186
f 236/236/180 245/245/186 241/241/183
f 242/242/184 243/243/185 246/246/187
f 243/243/185 244/244/182 247/247/188
f 243/243/185 247/247/188 246/246/187
f 247/247/188 244/244/182 248/248/162
f 242/242/184 246/246/187 249/249/189
f 242/242/184 249/249/189 245/245/186
f 246/246/187 247/247/188 250/250/190
f 247/247/188 248/248/162 251/251/191
f 247/247/188 251/251/191 250/250/190
f 251/251/191 248/248/162 194/194/162
f 251/251/191 194/194/162 193/193/165
f 249/249/189 246/246/187 252/252/192
f 252/252/192 246/246/187 250/250/190
f 250/250/190 251/251/191 253/253/193
f 253/253/193 251/251/191 193/193/165
f 252/252/192 250/250/190 254/254/194
f 254/254/194 250/250/190 253/253/193
f 253/253/193 193/193/165 2/2/2
f 2/2/2 193/193/165 5/5/5
f 254/254/194 253/253/193 1/1/1
f 1/1/1 253/253/193 2/2/2
f 252/252/192 254/254/194 255/255/195
f 254/254/194 1/1/1 7/7/7
f 254/254/194 7/7/7 255/255/195
f 252/252/192 255/255/195 256/256/196
f 252/252/192 256/256/196 249/249/189
f 249/249/189 256/256/196 257/257/197
f 249/249/189 257/257/197 245/245/186
f 256/256/196 255/255/195 258/258/198
f 255/255/195 7/7/7 259/259/199
f 255/255/195 259/259/199 258/258/198
f 245/245/186 257/257/197 260/260/200
f 245/245/186 260/260/200 241/241/183
f 257/257/197 256/256/196 261/261/201
f 261/261/201 256/256/196 258/258/198
f 258/258/198 259/259/199 262/262/202
f 258/258/198 262/262/202 263/263/203
f 258/258/198 263/263/203 261/261/201
f 262/262/202 259/259/199 264/264/204
f 261/261/201 263/263/203 265/265/205
f 264/264/204 259/259/199 8/8/8
f 8/8/8 259/259/199 7/7/7
f 264/264/204 8/8/8 266/266/206
f 266/266/206 8/8/8 10/10/10
f 261/261/201 265/265/205 267/267/207
f 261/261/201 267/267/207 257/257/197
f 267/267/207 265/265/205 268/268/208
f 257/257/197 267/267/207 260/260/200
f 267/267/207 268/268/208 269/269/209
f 267/267/207 269/269/209 260/260/200
f 269/269/209 268/268/208 270/270/210
f 260/260/200 269/269/209 271/271/211
f 260/260/200 271/271/211 241/241/183
f 241/241/183 271/271/211 237/237/181
f 269/269/209 270/270/210 272/272/212
f 269/269/209 272/272/212 271/271/211
f 272/272/212 270/270/210 273/273/213
f 237/237/181 271/271/211 274/274/214
f 274/274/214 271/271/211 272/272/212
f 272/272/212 273/273/213 275/275/215
f 272/272/212 275/275/215 274/274/214
f 275/275/215 273/273/213 276/276/216
f 275/275/215 276/276/216 147/147/134
f 147/147/134 276/276/216 148/148/135
f 275/275/215 147/147/134 145/145/132
f 275/275/215 145/145/132 274/274/214
f 145/145/132 147/147/134 144/144/131
f 143/143/130 237/237/181 274/274/214
f 143/143/130 274/274/214 145/145/132
f 143/143/130 145/145/132 142/142/129
f 237/237/181 143/143/130 140/140/127
f 140/140/127 143/143/130 139/139/126
f 277/277/217 239/239/176 232/232/176
f 232/232/176 239/239/176 234/234/178
f 239/239/176 277/277/217 278/278/218
f 277/277/217 232/232/176 230/230/117
f 239/239/176 278/278/218 240/240/182
f 278/278/218 277/277/217 279/279/217
f 279/279/217 277/277/217 280/280/117
f 280/280/117 277/277/217 230/230/117
f 278/278/218 279/279/217 281/281/217
f 279/279/217 280/280/117 121/121/116
f 279/279/217 121/121/116 281/281/217
f 280/280/117 230/230/117 228/228/117
f 280/280/117 228/228/117 121/121/116
f 278/278/218 281/281/217 282/282/218
f 278/278/218 282/282/218 240/240/182
f 282/282/218 281/281/217 283/283/217
f 283/283/217 281/281/217 121/121/116
f 240/240/182 282/282/218 244/244/182
f 282/282/218 283/283/217 284/284/164
f 282/282/218 284/284/164 244/244/182
f 284/284/164 283/283/217 285/285/217
f 285/285/217 283/283/217 121/121/116
f 244/244/182 284/284/164 248/248/162
f 284/284/164 285/285/217 286/286/164
f 284/284/164 286/286/164 248/248/162
f 286/286/164 285/285/217 287/287/163
f 287/287/163 285/285/217 121/121/116
f 248/248/162 286/286/164 194/194/162
f 286/286/164 287/287/163 288/288/164
f 286/286/164 288/288/164 194/194/162
f 288/288/164 287/287/163 289/289/163
f 289/289/163 287/287/163 121/121/116
f 194/194/162 288/288/164 187/187/162
f 288/288/164 289/289/163 188/188/163
f 288/288/164 188/188/163 187/187/162
f 188/188/163 289/289/163 189/189/163
f 189/189/163 289/289/163 121/121/116
