# CS2 body mesh, tools/cs2_glb_to_obj.py
v -0.04596 0.06274 -0.02623
v -0.04596 0.07498 -0.02623
v -0.04596 0.06274 -0.02978
v -0.04596 0.07498 -0.02978
v -0.01009 0.06886 -0.02563
v -0.01458 0.07462 -0.02443
v -0.01458 0.06311 -0.02443
v -0.02676 0.07511 -0.0268
v -0.02676 0.06262 -0.0268
v -0.04172 0.07498 -0.02571
v -0.04172 0.06274 -0.02571
v 0.00041 0.07012 -0.02602
v -0.0124 0.07012 -0.02602
v 0.00041 0.06761 -0.02602
v -0.0124 0.06761 -0.02602
v -0.04135 0.07498 -0.03114
v -0.02676 0.07511 -0.03202
v -0.01458 0.07462 -0.03135
v 0.00041 0.07012 -0.03011
v -0.0124 0.07012 -0.03011
v -0.01009 0.06886 -0.02975
v -0.01458 0.06311 -0.03135
v -0.02676 0.06262 -0.03202
v -0.04135 0.06274 -0.03114
v 0.00041 0.06761 -0.03011
v -0.0124 0.06761 -0.03011
vt 0.379395 0.730957
vt 0.379883 0.699707
vt 0.367676 0.730957
vt 0.36792 0.700195
vt 0.47168 0.71582
vt 0.459473 0.70166
vt 0.459473 0.72998
vt 0.428467 0.699707
vt 0.428467 0.731445
vt 0.390625 0.700684
vt 0.390381 0.730469
vt 0.254883 0.504883
vt 0.254883 0.471924
vt 0.248657 0.504883
vt 0.248535 0.471924
vt 0.380371 0.689941
vt 0.39209 0.687988
vt 0.427979 0.686523
vt 0.457764 0.68457
vt 0.265625 0.504883
vt 0.265381 0.471924
vt 0.47876 0.688477
vt 0.479004 0.671387
vt 0.469238 0.670898
vt 0.458008 0.74707
vt 0.42749 0.744141
vt 0.391846 0.743652
vt 0.379883 0.740723
vt 0.238037 0.504883
vt 0.237915 0.471924
vt 0.458984 0.655273
vt 0.426758 0.654297
vt 0.389648 0.657227
vt 0.377441 0.658203
vt 0.480957 0.654785
vt 0.271973 0.504883
vt 0.271973 0.471924
vn -0.9998 -0.0151 -0.0161
vn 0.2565 0.0207 0.9663
vn -0.1234 0.0011 0.9924
vn -0.0492 -0.001 0.9988
vn 0.0171 0.0151 0.9997
vn -0.0159 -0.001 0.9999
vn -0.001 1 -0.001
vn -0.0172 0.9997 -0.0172
vn -0.001 0.9999 -0.0169
vn 0.0333 0.9994 -0.001
vn 0.7823 0.6228 -0.0014
vn 0.0328 -0.9993 0.0164
vn 0 -1 0
vn -0.0159 -0.9999 0
vn 0 -0.9999 0.0159
vn 0.329 -0.0215 -0.9441
vn 0.0882 -0.0161 -0.996
vn -0.0159 -0.001 -0.9999
vn -0.1234 0.0011 -0.9924
vn -0.2978 0.0012 -0.9546
vn 0.791 -0.6114 0.0223
vn 0 -0.0169 -0.9999
o chamber__p0_c0
f 1/1/1 2/2/1 3/3/1
f 3/3/1 2/2/1 4/4/1
f 5/5/2 6/6/3 7/7/3
f 7/7/3 6/6/3 8/8/4
f 7/7/3 8/8/4 9/9/4
f 9/9/4 8/8/4 10/10/5
f 9/9/4 10/10/5 11/11/5
f 11/11/5 10/10/5 1/1/3
f 1/1/3 10/10/5 2/2/3
f 12/12/6 13/13/6 14/14/6
f 14/14/6 13/13/6 15/15/6
f 2/2/7 10/10/8 4/16/7
f 4/16/7 10/10/8 16/17/8
f 16/17/8 10/10/8 8/8/9
f 16/17/8 8/8/9 17/18/9
f 17/18/9 8/8/9 18/19/10
f 18/19/10 8/8/9 6/6/10
f 19/20/7 20/21/7 12/12/7
f 12/12/7 20/21/7 13/13/7
f 6/22/11 5/23/11 18/19/11
f 18/19/11 5/23/11 21/24/11
f 7/7/12 9/9/13 22/25/12
f 22/25/12 9/9/13 23/26/13
f 23/26/13 9/9/13 11/11/14
f 23/26/13 11/11/14 24/27/14
f 24/27/14 11/11/14 1/1/15
f 24/27/14 1/1/15 3/28/15
f 14/14/15 15/15/15 25/29/15
f 25/29/15 15/15/15 26/30/15
f 21/24/16 22/31/17 18/19/17
f 18/19/17 22/31/17 23/32/18
f 18/19/17 23/32/18 17/18/18
f 17/18/18 23/32/18 16/17/19
f 16/17/19 23/32/18 24/33/19
f 16/17/19 24/33/19 4/16/20
f 4/16/20 24/33/19 3/34/20
f 5/23/21 7/35/21 21/24/21
f 21/24/21 7/35/21 22/31/21
f 25/36/22 26/37/22 19/20/22
f 19/20/22 26/37/22 20/21/22
