# CS2 body mesh, tools/cs2_glb_to_obj.py
v 0.02337 -0.16593 -0.05433
v -0.00025 -0.16593 -0.05433
v 0.02337 -0.17119 -0.07067
v 0.02255 -0.16474 -0.05064
v 0.00058 -0.17214 -0.07362
v 0.02255 -0.17214 -0.07362
v -0.00025 -0.17309 -0.07657
v 0.02337 -0.17309 -0.07657
v -0.00025 -0.17411 -0.08057
v 0.02337 -0.17411 -0.08057
v 0.00058 -0.16474 -0.05064
v 0.02337 -0.16356 -0.04695
v -0.00025 -0.15872 -0.03193
v 0.02337 -0.15872 -0.03193
v 0.02117 -0.1572 -0.02721
v 0.00195 -0.1572 -0.02721
v 0.02337 -0.15569 -0.0225
v -0.00025 -0.15569 -0.0225
v 0.02337 -0.15152 -0.00876
v -0.00025 -0.17119 -0.07067
v -0.00025 -0.16356 -0.04695
v -0.00025 -0.15152 -0.00876
v 0.02337 -0.1032 -0.09877
v -0.00025 -0.1032 -0.09877
v 0.02337 -0.08701 -0.10247
v -0.00025 -0.08701 -0.10247
v 0.02337 -0.07009 -0.10485
v -0.00025 -0.07009 -0.10485
v 0.02337 -0.0548 -0.10615
v -0.00025 -0.0548 -0.10615
v 0.02337 -0.03945 -0.10642
v -0.00025 -0.03945 -0.10642
v 0.02337 0.02331 -0.10642
v -0.00025 0.02331 -0.10642
v 0.0034 0.03488 -0.10379
v 0.0014 0.02895 -0.10379
v -0.00024 0.02895 -0.10379
v -0.00025 0.02331 -0.10379
v 0.00141 0.02331 -0.10379
v 0.02172 0.02331 -0.10379
v 0.02172 0.02895 -0.10379
v 0.02337 0.02331 -0.10379
v 0.02336 0.02896 -0.10379
v 0.01973 0.03488 -0.10379
v 0.02337 0.02895 -0.03345
v -0.00025 0.02895 -0.03345
v 0.02337 -0.0388 -0.03331
v -0.00025 -0.05054 -0.03316
v 0.02337 -0.05054 -0.03316
v -0.00025 -0.06089 -0.03232
v 0.02337 -0.06089 -0.03232
v 0.02337 -0.07203 -0.03032
v -0.00025 -0.08321 -0.02744
v 0.02337 -0.08321 -0.02744
v -0.00025 -0.0388 -0.03331
v -0.00025 -0.07203 -0.03033
v -0.00025 -0.08689 -0.04132
v 0.00195 -0.08824 -0.04609
v 0.00195 -0.0758 -0.04928
v -0.00025 -0.07479 -0.04442
v 0.00195 -0.06321 -0.05151
v -0.00025 -0.06259 -0.0466
v 0.00195 -0.05161 -0.05247
v -0.00025 -0.05132 -0.04752
v 0.00195 -0.03897 -0.05265
v -0.00025 -0.03892 -0.0477
v -0.00025 0.02895 -0.0477
v 0.00195 0.02895 -0.05265
v 0.02337 -0.06259 -0.0466
v 0.02337 -0.05132 -0.04752
v 0.02117 -0.05161 -0.05247
v 0.02117 -0.06321 -0.05151
v 0.02117 -0.03897 -0.05265
v 0.02337 -0.07479 -0.04442
v 0.02117 -0.0758 -0.04928
v 0.02337 -0.08689 -0.04132
v 0.02117 -0.08824 -0.04609
v 0.02337 -0.03892 -0.0477
v 0.02337 0.02895 -0.0477
v 0.02117 0.02895 -0.05265
v -0.00025 -0.06579 -0.07209
v 0.00058 -0.06628 -0.07593
v -0.00025 -0.08001 -0.06958
v 0.00058 -0.0808 -0.07338
v 0.00058 -0.05303 -0.07704
v -0.00025 -0.09386 -0.06605
v -0.00025 -0.06676 -0.07978
v -0.00025 -0.07681 -0.05413
v -0.00025 -0.05281 -0.07317
v -0.00025 -0.05189 -0.05742
v 0.00058 -0.03919 -0.07726
v -0.00025 -0.06382 -0.05643
v -0.00025 -0.08958 -0.05086
v 0.00058 -0.09491 -0.06978
v -0.00025 -0.09596 -0.07351
v -0.00025 -0.08159 -0.07717
v -0.00025 -0.10062 -0.08877
v 0.00058 -0.10145 -0.09175
v -0.00025 -0.08507 -0.09231
v 0.00058 -0.0857 -0.09535
v -0.00025 -0.1023 -0.09473
v -0.00025 -0.08633 -0.09839
v -0.00025 -0.06968 -0.10072
v 0.00058 -0.06929 -0.09764
v -0.00025 -0.0546 -0.10199
v -0.00025 -0.06891 -0.09456
v 0.00058 -0.05442 -0.0989
v -0.00025 -0.03942 -0.10225
v -0.00025 -0.05424 -0.0958
v -0.00025 -0.05325 -0.08091
v -0.00025 -0.03937 -0.09606
v 0.00058 -0.0394 -0.09916
v -0.00025 0.02895 -0.10225
v 0.00058 0.02895 -0.09916
v -0.00025 0.02895 -0.09606
v 0.0034 0.03488 -0.07484
v -0.00025 -0.03922 -0.08113
v -0.00025 0.02895 -0.08113
v 0.00058 0.02895 -0.07726
v -0.00025 0.02895 -0.07339
v -0.00025 0.02895 -0.06976
v 0.0034 0.03488 -0.06976
v -0.00025 -0.03915 -0.07339
v -0.00025 -0.03901 -0.0576
v -0.00025 0.02895 -0.0576
v 0.02255 -0.09491 -0.06978
v 0.02255 -0.0808 -0.07338
v 0.02337 -0.09386 -0.06605
v 0.02337 -0.09596 -0.07351
v 0.02337 -0.10062 -0.08877
v 0.02337 -0.08958 -0.05086
v 0.02337 -0.07681 -0.05413
v 0.02337 -0.08001 -0.06958
v 0.02337 -0.06382 -0.05643
v 0.02337 -0.06579 -0.07209
v 0.02337 -0.05189 -0.05742
v 0.02255 -0.06628 -0.07593
v 0.02337 -0.06676 -0.07978
v 0.02337 -0.03901 -0.0576
v 0.02337 0.02895 -0.0576
v 0.02337 0.02895 -0.06976
v 0.02337 -0.03915 -0.07339
v 0.02337 -0.05281 -0.07317
v 0.02337 0.02895 -0.07339
v 0.02255 -0.03919 -0.07726
v 0.02255 -0.05303 -0.07704
v 0.01973 0.03488 -0.07484
v 0.01973 0.03488 -0.06976
v 0.02255 0.02895 -0.07726
v 0.02337 -0.03922 -0.08113
v 0.02337 -0.05325 -0.08091
v 0.02337 0.02895 -0.08113
v 0.02337 0.02895 -0.09606
v 0.02337 -0.03937 -0.09606
v 0.02337 -0.05424 -0.0958
v 0.02255 -0.0394 -0.09916
v 0.02255 0.02895 -0.09916
v 0.02337 0.02895 -0.10225
v 0.02337 -0.03942 -0.10225
v 0.02255 -0.05442 -0.0989
v 0.02337 -0.0546 -0.10199
v 0.02337 -0.06891 -0.09456
v 0.02255 -0.06929 -0.09764
v 0.02337 -0.06968 -0.10072
v 0.02337 -0.08507 -0.09231
v 0.02337 -0.08159 -0.07717
v 0.02255 -0.0857 -0.09535
v 0.02255 -0.10145 -0.09175
v 0.02337 -0.08633 -0.09839
v 0.02337 -0.1023 -0.09473
v 0.02172 0.02895 -0.07484
v 0.02172 0.02895 -0.06976
v 0.0014 0.02895 -0.07484
v 0.0014 0.02895 -0.06976
vt 0.861816 0.550293
vt 0.834961 0.550293
vt 0.861816 0.569824
vt 0.86084 0.545898
vt 0.835449 0.573242
vt 0.86084 0.573242
vt 0.834961 0.57666
vt 0.861816 0.57666
vt 0.834961 0.581543
vt 0.861816 0.581543
vt 0.835449 0.545898
vt 0.861816 0.541504
vt 0.834961 0.523438
vt 0.861816 0.523438
vt 0.859375 0.518066
vt 0.837402 0.518066
vt 0.861816 0.512695
vt 0.834961 0.512695
vt 0.861816 0.496338
vt 0.834961 0.569824
vt 0.834961 0.541504
vt 0.834961 0.496338
vt 0.769531 0.601074
vt 0.797363 0.601074
vt 0.769531 0.516113
vt 0.797363 0.516113
vt 0.769531 0.49707
vt 0.797363 0.49707
vt 0.769531 0.477295
vt 0.797363 0.477295
vt 0.769531 0.459473
vt 0.797363 0.459473
vt 0.769531 0.44165
vt 0.797363 0.44165
vt 0.769531 0.392578
vt 0.797363 0.392578
vt 0.854492 0.591797
vt 0.85791 0.599121
vt 0.855957 0.600098
vt 0.85791 0.606445
vt 0.859375 0.605469
vt 0.82959 0.397705
vt 0.801758 0.397705
vt 0.82959 0.452393
vt 0.802246 0.466064
vt 0.82959 0.466064
vt 0.802246 0.478027
vt 0.82959 0.478027
vt 0.82959 0.491211
vt 0.802246 0.504395
vt 0.82959 0.504395
vt 0.82959 0.586426
vt 0.802246 0.452393
vt 0.802246 0.491211
vt 0.802246 0.586426
vt 0.789062 0.804688
vt 0.772949 0.802246
vt 0.79834 0.72168
vt 0.782227 0.720215
vt 0.795898 0.805176
vt 0.805176 0.722656
vt 0.806641 0.70752
vt 0.783203 0.706543
vt 0.799805 0.707031
vt 0.806641 0.692871
vt 0.800293 0.692871
vt 0.783691 0.693359
vt 0.806152 0.679199
vt 0.782715 0.681641
vt 0.798828 0.679688
vt 0.804199 0.664551
vt 0.797363 0.665527
vt 0.780762 0.667969
vt 0.788574 0.611328
vt 0.79541 0.609375
vt 0.772461 0.61377
vt 0.832031 0.691895
vt 0.836914 0.691895
vt 0.832031 0.708984
vt 0.836426 0.708984
vt 0.835938 0.67627
vt 0.830566 0.725586
vt 0.841797 0.691406
vt 0.813477 0.708008
vt 0.831055 0.676758
vt 0.812988 0.678223
vt 0.833496 0.660156
vt 0.813965 0.692383
vt 0.812012 0.723145
vt 0.802734 0.806152
vt 0.820801 0.809082
vt 0.834961 0.726074
vt 0.825684 0.80957
vt 0.830078 0.810547
vt 0.839844 0.726562
vt 0.841309 0.708984
vt 0.85791 0.729004
vt 0.850098 0.813477
vt 0.861816 0.729492
vt 0.853516 0.813965
vt 0.859375 0.710449
vt 0.863281 0.710449
vt 0.865723 0.72998
vt 0.857422 0.814941
vt 0.870605 0.72998
vt 0.862305 0.814941
vt 0.87207 0.710938
vt 0.867188 0.710938
vt 0.871582 0.690918
vt 0.866699 0.690918
vt 0.870117 0.672852
vt 0.862793 0.691406
vt 0.865723 0.67334
vt 0.868164 0.655273
vt 0.858887 0.691406
vt 0.861816 0.673828
vt 0.863281 0.655762
vt 0.86084 0.606934
vt 0.85791 0.674316
vt 0.840332 0.675781
vt 0.855469 0.657227
vt 0.859375 0.65625
vt 0.854492 0.600586
vt 0.850586 0.601562
vt 0.847168 0.602051
vt 0.821289 0.597168
vt 0.838379 0.659668
vt 0.830078 0.604492
vt 0.825195 0.605469
vt 0.820312 0.605957
vt 0.816406 0.606445
vt 0.81543 0.598145
vt 0.828613 0.660645
vt 0.810547 0.663574
vt 0.802246 0.609375
vt 0.86084 0.607422
vt 0.671875 0.30249
vt 0.687012 0.30127
vt 0.687012 0.30249
vt 0.687012 0.299072
vt 0.671875 0.299072
vt 0.669434 0.30249
vt 0.668945 0.299072
vt 0.6875 0.335693
vt 0.672363 0.334961
vt 0.6875 0.334961
vt 0.672363 0.337891
vt 0.6875 0.337891
vt 0.669434 0.337891
vt 0.669434 0.334961
vt 0.814941 0.605469
vt 0.658691 0.313232
vt 0.651367 0.325195
vt 0.658691 0.325439
vt 0.661133 0.324219
vt 0.663574 0.313232
vt 0.663574 0.325439
vt 0.669922 0.324463
vt 0.669922 0.325439
vt 0.669922 0.313965
vt 0.672363 0.324463
vt 0.672363 0.313965
vt 0.687988 0.324463
vt 0.688965 0.325195
vt 0.688965 0.313232
vt 0.687988 0.325439
vt 0.651367 0.312988
vt 0.661133 0.314209
vt 0.669922 0.313232
vt 0.687988 0.313965
vt 0.687988 0.313232
vn -0.0202 -0.9442 0.3286
vn -0.0197 -0.9596 0.2808
vn -0.0194 -0.9661 0.2576
vn -0.02 -0.9523 0.3045
vn 0 -0.2515 -0.9679
vn 0 -0.1862 -0.9825
vn 0 -0.1232 -0.9924
vn 0 -0.0677 -0.9977
vn 0 -0.0169 -0.9999
vn -0.0159 -0.001 0.9999
vn -0.0174 0.0318 0.9993
vn -0.0189 0.1255 0.9919
vn -0.0201 0.2088 0.9778
vn -0.0207 0.2565 0.9663
vn -0.9941 -0.0164 -0.1071
vn -0.9998 -0.0151 -0.0161
vn -0.918 -0.1117 -0.3804
vn -0.9234 -0.088 -0.3737
vn -0.9217 -0.0436 -0.3856
vn -0.9182 -0.0013 -0.3961
vn -0.9945 0.0011 -0.1043
vn -0.9924 -0.0166 -0.1216
vn -0.9104 -0.0224 -0.4131
vn 0.9999 -0.001 0.0159
vn 0.9935 -0.0344 -0.1089
vn 0.9941 -0.0164 -0.1071
vn 0.9147 -0.0223 -0.4036
vn 0.9173 -0.0659 -0.3927
vn 0.918 -0.1117 -0.3804
vn 0.9119 -0.1361 -0.3872
vn -0.9995 -0.001 -0.0323
vn -1 -0.001 0
vn -0.9993 -0.0174 -0.0328
vn -0.9995 -0.001 0.0323
vn -0.996 0.0183 0.0872
vn -0.9233 0.0852 0.3745
vn -0.9215 0.0409 0.3863
vn -0.9173 0.1117 0.3821
vn -0.9182 -0.0013 0.3961
vn -0.9954 0.0361 0.0887
vn -0.9942 0.0186 0.1061
vn -0.9945 0.0011 0.1043
vn -0.9846 0.0361 0.1713
vn -0.9599 0.2797 -0.0209
vn -0.876 0.4818 -0.0229
vn -0.9999 0.0149 0.001
vn -0.9972 0.0528 -0.0528
vn -0.998 0.052 0.035
vn -0.9899 0.0563 -0.1299
vn 0.9999 0.0149 -0.001
vn 0.9989 -0.0344 -0.0334
vn 0.9993 0.0154 0.0338
vn 0.9944 0.0546 0.0902
vn 0.9112 0.1362 0.3889
vn 0.9954 0.0361 0.0887
vn 0.9173 0.1117 0.3821
vn 0.9166 0.066 0.3944
vn 0.9993 -0.0174 -0.0328
vn 0.9144 0.0196 0.4042
vn 0.9942 0.0186 0.1061
vn 0.9924 0.0011 0.1234
vn 0.907 -0.0013 0.421
vn 0.9883 0.076 -0.1322
vn 0.852 0.5236 -0.0013
vn 0.9995 0.0313 -0.001
vn 0.9969 0.0701 0.0356
vn 0.8613 0.5075 -0.0231
vn 0.996 0.0712 -0.0537
vn 0.9831 0.0557 0.1743
vn 0.9526 0.3034 -0.0212
vn 0.9999 -0.001 -0.0159
vn 0.9935 0.0367 0.1079
vn -0.9734 -0.2292 0
vn -0.9782 -0.2075 0
vn -0.9547 -0.2974 0
vn 0.9734 -0.2292 0
vn 0.9679 -0.2515 0
vn 0.9471 -0.3211 0
vn 0.9528 -0.303 0.02
vn -0.001 1 -0.001
vn -0.0011 0.9862 -0.1657
vn -0.0011 0.9825 -0.1864
o clip__p0_c0
f 1/1/1 2/2/1 3/3/1
f 2/2/1 1/1/1 4/4/1
f 5/5/1 6/6/1 3/3/1
f 7/7/2 8/8/2 6/6/1
f 9/9/3 10/10/3 8/8/2
f 11/11/1 4/4/1 12/12/1
f 13/13/1 12/12/1 14/14/1
f 13/13/1 14/14/1 15/15/1
f 16/16/1 15/15/1 17/17/4
f 18/18/4 17/17/4 19/19/4
f 3/3/1 2/2/1 20/20/1
f 3/3/1 20/20/1 5/5/1
f 4/4/1 11/11/1 2/2/1
f 6/6/1 5/5/1 7/7/2
f 8/8/2 7/7/2 9/9/3
f 12/12/1 21/21/1 11/11/1
f 21/21/1 12/12/1 13/13/1
f 15/15/1 16/16/1 13/13/1
f 17/17/4 18/18/4 16/16/1
f 19/19/4 22/22/4 18/18/4
f 10/23/5 9/24/5 23/25/5
f 24/26/5 25/27/6 23/25/5
f 26/28/6 27/29/7 25/27/6
f 28/30/7 29/31/8 27/29/7
f 30/32/8 31/33/9 29/31/8
f 32/34/9 33/35/9 31/33/9
f 23/25/5 9/24/5 24/26/5
f 25/27/6 24/26/5 26/28/6
f 27/29/7 26/28/6 28/30/7
f 29/31/8 28/30/7 30/32/8
f 31/33/9 30/32/8 32/34/9
f 33/35/9 32/34/9 34/36/9
f 35/37/9 36/38/9 37/39/9
f 37/39/9 36/38/9 38/40/9
f 38/40/9 36/38/9 39/41/9
f 40/41/9 41/38/9 42/40/9
f 42/40/9 41/38/9 43/39/9
f 43/39/9 41/38/9 44/37/9
f 45/42/10 46/43/10 47/44/10
f 48/45/11 49/46/11 47/44/10
f 50/47/12 51/48/12 49/46/11
f 51/48/12 50/47/12 52/49/13
f 53/50/14 54/51/14 52/49/13
f 54/51/14 53/50/14 19/52/14
f 47/44/10 46/43/10 55/53/10
f 47/44/10 55/53/10 48/45/11
f 49/46/11 48/45/11 50/47/12
f 52/49/13 50/47/12 56/54/13
f 52/49/13 56/54/13 53/50/14
f 19/52/14 53/50/14 22/55/14
f 18/56/15 22/57/16 57/58/15
f 57/58/15 22/57/16 53/59/16
f 16/60/17 18/56/15 58/61/17
f 58/61/17 18/56/15 57/58/15
f 58/61/17 57/58/15 59/62/18
f 57/58/15 53/59/16 56/63/16
f 59/62/18 57/58/15 60/64/15
f 60/64/15 57/58/15 56/63/16
f 59/62/18 60/64/15 61/65/19
f 60/64/15 56/63/16 62/66/15
f 60/64/15 62/66/15 61/65/19
f 62/66/15 56/63/16 50/67/16
f 61/65/19 62/66/15 63/68/20
f 62/66/15 50/67/16 48/69/16
f 63/68/20 62/66/15 64/70/21
f 64/70/21 62/66/15 48/69/16
f 63/68/20 64/70/21 65/71/20
f 64/70/21 48/69/16 66/72/21
f 64/70/21 66/72/21 65/71/20
f 66/72/21 48/69/16 55/73/16
f 65/71/20 66/72/21 67/74/22
f 67/74/22 66/72/21 55/73/16
f 65/71/20 67/74/22 68/75/23
f 67/74/22 55/73/16 46/76/16
f 51/67/24 69/66/25 49/69/24
f 69/66/25 51/67/24 52/63/24
f 49/69/24 69/66/25 70/70/26
f 70/70/26 69/66/25 71/68/27
f 71/68/27 69/66/25 72/65/28
f 70/70/26 71/68/27 73/71/27
f 72/65/28 69/66/25 74/64/25
f 74/64/25 69/66/25 52/63/24
f 72/65/28 74/64/25 75/62/29
f 74/64/25 52/63/24 76/58/25
f 74/64/25 76/58/25 75/62/29
f 76/58/25 52/63/24 54/59/24
f 76/58/25 54/59/24 19/57/24
f 75/62/29 76/58/25 77/61/30
f 76/58/25 19/57/24 17/56/25
f 76/58/25 17/56/25 77/61/30
f 77/61/30 17/56/25 15/60/30
f 78/72/26 49/69/24 70/70/26
f 78/72/26 70/70/26 73/71/27
f 49/69/24 78/72/26 47/73/24
f 78/72/26 73/71/27 79/74/26
f 78/72/26 79/74/26 47/73/24
f 79/74/26 73/71/27 80/75/27
f 47/73/24 79/74/26 45/76/24
f 81/77/31 82/78/32 83/79/33
f 83/79/33 82/78/32 84/80/32
f 82/78/32 81/77/31 85/81/32
f 83/79/33 84/80/32 86/82/33
f 84/80/32 82/78/32 87/83/34
f 87/83/34 82/78/32 85/81/32
f 81/77/31 83/79/33 88/84/35
f 88/84/35 83/79/33 86/82/33
f 85/81/32 81/77/31 89/85/31
f 89/85/31 81/77/31 90/86/35
f 85/81/32 89/85/31 91/87/32
f 81/77/31 88/84/35 92/88/35
f 81/77/31 92/88/35 90/86/35
f 92/88/35 88/84/35 59/62/36
f 92/88/35 59/62/36 61/65/37
f 92/88/35 61/65/37 90/86/35
f 59/62/36 88/84/35 58/61/38
f 90/86/35 61/65/37 63/68/39
f 58/61/38 88/84/35 93/89/40
f 93/89/40 88/84/35 86/82/33
f 58/61/38 93/89/40 13/90/40
f 13/90/40 93/89/40 86/82/33
f 58/61/38 13/90/40 16/60/38
f 13/90/40 86/82/33 21/91/33
f 21/91/33 86/82/33 94/92/32
f 21/91/33 94/92/32 11/93/32
f 94/92/32 86/82/33 84/80/32
f 11/93/32 94/92/32 2/94/34
f 2/94/34 94/92/32 95/95/34
f 94/92/32 84/80/32 96/96/34
f 94/92/32 96/96/34 95/95/34
f 2/94/34 95/95/34 97/97/33
f 97/97/33 95/95/34 96/96/34
f 2/94/34 97/97/33 20/98/33
f 96/96/34 84/80/32 87/83/34
f 20/98/33 97/97/33 98/99/32
f 20/98/33 98/99/32 5/100/32
f 97/97/33 96/96/34 99/101/33
f 99/101/33 96/96/34 87/83/34
f 98/99/32 97/97/33 100/102/32
f 100/102/32 97/97/33 99/101/33
f 5/100/32 98/99/32 101/103/41
f 5/100/32 101/103/41 7/104/41
f 7/104/41 101/103/41 24/105/16
f 7/104/41 24/105/16 9/106/16
f 24/105/16 101/103/41 26/107/16
f 101/103/41 98/99/32 102/108/41
f 101/103/41 102/108/41 26/107/16
f 102/108/41 98/99/32 100/102/32
f 26/107/16 102/108/41 28/109/16
f 28/109/16 102/108/41 103/110/42
f 103/110/42 102/108/41 100/102/32
f 28/109/16 103/110/42 30/111/16
f 103/110/42 100/102/32 104/112/32
f 104/112/32 100/102/32 99/101/33
f 30/111/16 103/110/42 105/113/42
f 105/113/42 103/110/42 104/112/32
f 30/111/16 105/113/42 32/114/16
f 104/112/32 99/101/33 106/115/33
f 106/115/33 99/101/33 87/83/34
f 105/113/42 104/112/32 107/116/32
f 107/116/32 104/112/32 106/115/33
f 32/114/16 105/113/42 108/117/42
f 108/117/42 105/113/42 107/116/32
f 32/114/16 108/117/42 34/118/16
f 34/118/16 108/117/42 38/40/16
f 106/115/33 87/83/34 109/119/31
f 106/115/33 109/119/31 107/116/32
f 109/119/31 87/83/34 110/120/34
f 110/120/34 87/83/34 85/81/32
f 107/116/32 109/119/31 111/121/31
f 111/121/31 109/119/31 110/120/34
f 112/122/32 108/117/42 107/116/32
f 112/122/32 107/116/32 111/121/31
f 113/123/43 38/40/16 108/117/42
f 113/123/43 108/117/42 112/122/32
f 38/40/16 113/123/43 37/39/44
f 37/39/44 113/123/43 35/37/45
f 113/123/43 112/122/32 114/124/46
f 113/123/43 114/124/46 35/37/45
f 114/124/46 112/122/32 111/121/31
f 35/37/45 114/124/46 115/125/47
f 115/125/47 114/124/46 111/121/31
f 35/37/45 115/125/47 116/126/45
f 117/127/34 111/121/31 110/120/34
f 111/121/31 117/127/34 115/125/47
f 117/127/34 110/120/34 85/81/32
f 117/127/34 85/81/32 91/87/32
f 115/125/47 117/127/34 118/128/48
f 115/125/47 118/128/48 116/126/45
f 118/128/48 117/127/34 91/87/32
f 116/126/45 118/128/48 119/129/46
f 119/129/46 118/128/48 91/87/32
f 116/126/45 119/129/46 120/130/49
f 120/130/49 119/129/46 91/87/32
f 116/126/45 120/130/49 121/131/16
f 116/126/45 121/131/16 122/132/45
f 120/130/49 91/87/32 123/133/31
f 120/130/49 123/133/31 121/131/16
f 123/133/31 91/87/32 89/85/31
f 123/133/31 89/85/31 90/86/35
f 121/131/16 123/133/31 124/134/42
f 124/134/42 123/133/31 90/86/35
f 124/134/42 90/86/35 63/68/39
f 121/131/16 124/134/42 125/135/42
f 124/134/42 63/68/39 65/71/39
f 124/134/42 65/71/39 125/135/42
f 125/135/42 65/71/39 68/75/39
f 126/92/50 127/80/50 128/82/51
f 126/92/50 128/82/51 4/93/50
f 4/93/50 128/82/51 12/91/51
f 126/92/50 4/93/50 129/95/52
f 126/92/50 129/95/52 127/80/50
f 129/95/52 4/93/50 1/94/52
f 12/91/51 128/82/51 14/90/53
f 129/95/52 1/94/52 130/97/51
f 130/97/51 1/94/52 3/98/51
f 14/90/53 128/82/51 131/89/53
f 14/90/53 131/89/53 15/60/54
f 15/60/54 131/89/53 77/61/54
f 77/61/54 131/89/53 132/84/55
f 132/84/55 131/89/53 128/82/51
f 77/61/54 132/84/55 75/62/56
f 132/84/55 128/82/51 133/79/51
f 133/79/51 128/82/51 127/80/50
f 75/62/56 132/84/55 134/88/55
f 75/62/56 134/88/55 72/65/57
f 132/84/55 133/79/51 135/77/58
f 132/84/55 135/77/58 134/88/55
f 72/65/57 134/88/55 136/86/55
f 136/86/55 134/88/55 135/77/58
f 72/65/57 136/86/55 71/68/59
f 133/79/51 127/80/50 137/78/50
f 133/79/51 137/78/50 135/77/58
f 137/78/50 127/80/50 138/83/52
f 71/68/59 136/86/55 139/134/60
f 71/68/59 139/134/60 73/71/59
f 73/71/59 139/134/60 140/135/61
f 73/71/59 140/135/61 80/75/62
f 140/135/61 139/134/60 141/131/50
f 139/134/60 136/86/55 142/133/58
f 139/134/60 142/133/58 141/131/50
f 142/133/58 136/86/55 143/85/58
f 143/85/58 136/86/55 135/77/58
f 141/131/50 142/133/58 144/130/63
f 142/133/58 143/85/58 145/87/24
f 142/133/58 145/87/24 144/130/63
f 143/85/58 135/77/58 146/81/50
f 143/85/58 146/81/50 145/87/24
f 146/81/50 135/77/58 137/78/50
f 141/131/50 144/130/63 147/126/64
f 141/131/50 147/126/64 148/132/64
f 144/130/63 145/87/24 149/129/65
f 144/130/63 149/129/65 147/126/64
f 145/87/24 146/81/50 150/127/52
f 145/87/24 150/127/52 149/129/65
f 146/81/50 137/78/50 151/120/52
f 146/81/50 151/120/52 150/127/52
f 151/120/52 137/78/50 138/83/52
f 147/126/64 149/129/65 152/128/66
f 152/128/66 149/129/65 150/127/52
f 147/126/64 152/128/66 44/37/67
f 152/128/66 150/127/52 153/125/68
f 152/128/66 153/125/68 44/37/67
f 150/127/52 151/120/52 154/121/58
f 150/127/52 154/121/58 153/125/68
f 154/121/58 151/120/52 155/119/58
f 155/119/58 151/120/52 138/83/52
f 153/125/68 154/121/58 156/122/24
f 156/122/24 154/121/58 155/119/58
f 44/37/67 153/125/68 157/124/65
f 157/124/65 153/125/68 156/122/24
f 44/37/67 157/124/65 158/123/69
f 158/123/69 157/124/65 156/122/24
f 44/37/67 158/123/69 43/39/70
f 43/39/70 158/123/69 42/40/71
f 42/40/71 158/123/69 159/117/60
f 159/117/60 158/123/69 156/122/24
f 42/40/71 159/117/60 33/136/24
f 33/136/24 159/117/60 31/114/24
f 159/117/60 156/122/24 160/116/50
f 160/116/50 156/122/24 155/119/58
f 31/114/24 159/117/60 161/113/60
f 161/113/60 159/117/60 160/116/50
f 31/114/24 161/113/60 29/111/24
f 160/116/50 155/119/58 162/115/51
f 162/115/51 155/119/58 138/83/52
f 161/113/60 160/116/50 163/112/50
f 163/112/50 160/116/50 162/115/51
f 29/111/24 161/113/60 164/110/60
f 164/110/60 161/113/60 163/112/50
f 29/111/24 164/110/60 27/109/24
f 162/115/51 138/83/52 165/101/51
f 162/115/51 165/101/51 163/112/50
f 165/101/51 138/83/52 166/96/52
f 166/96/52 138/83/52 127/80/50
f 166/96/52 127/80/50 129/95/52
f 166/96/52 129/95/52 130/97/51
f 166/96/52 130/97/51 165/101/51
f 163/112/50 165/101/51 167/102/50
f 167/102/50 165/101/51 130/97/51
f 163/112/50 167/102/50 164/110/60
f 167/102/50 130/97/51 168/99/50
f 168/99/50 130/97/51 3/98/51
f 168/99/50 3/98/51 6/100/50
f 168/99/50 6/100/50 8/104/72
f 164/110/60 167/102/50 169/108/72
f 169/108/72 167/102/50 168/99/50
f 164/110/60 169/108/72 27/109/24
f 27/109/24 169/108/72 25/107/24
f 169/108/72 168/99/50 170/103/72
f 169/108/72 170/103/72 25/107/24
f 170/103/72 168/99/50 8/104/72
f 25/107/24 170/103/72 23/105/24
f 23/105/24 170/103/72 8/104/72
f 23/105/24 8/104/72 10/106/24
f 171/137/73 41/138/74 40/139/16
f 41/138/74 171/137/73 44/140/75
f 44/140/75 171/137/73 147/141/75
f 147/141/75 171/137/73 172/142/75
f 147/141/75 172/142/75 148/143/75
f 36/144/76 173/145/77 39/146/71
f 173/145/77 36/144/76 116/147/78
f 116/147/78 36/144/76 35/148/78
f 173/145/77 116/147/78 122/149/79
f 173/145/77 122/149/79 174/150/79
f 174/151/10 122/132/10 121/131/10
f 172/151/10 141/131/10 148/132/10
f 67/152/80 45/153/80 79/154/80
f 67/152/80 79/154/80 80/155/80
f 125/156/80 80/155/80 140/157/80
f 125/156/80 140/157/80 172/158/80
f 172/158/80 140/157/80 141/159/80
f 174/160/80 172/158/80 171/161/81
f 173/162/81 171/161/81 40/163/82
f 33/164/80 34/165/80 40/163/82
f 33/164/80 40/163/82 42/166/80
f 46/167/80 45/153/80 67/152/80
f 80/155/80 68/168/80 67/152/80
f 68/168/80 80/155/80 125/156/80
f 174/160/80 125/156/80 172/158/80
f 125/156/80 174/160/80 121/169/80
f 171/161/81 173/162/81 174/160/80
f 40/163/82 39/170/82 173/162/81
f 39/170/82 40/163/82 34/165/80
f 39/170/82 34/165/80 38/171/80
