# CS2 body mesh, tools/cs2_glb_to_obj.py
v 0.00067 0.04835 -0.13114
v 0.00923 0.0399 -0.13114
v -0.00263 0.04187 -0.13114
v -0.00234 0.03635 -0.13114
v 0.00531 0.05136 -0.13114
v 0.00067 0.03171 -0.13114
v 0.01083 0.05165 -0.13114
v 0.00531 0.0287 -0.13114
v 0.01599 0.04966 -0.13114
v 0.01083 0.02841 -0.13114
v 0.01947 0.04537 -0.13114
v 0.01599 0.03039 -0.13114
v 0.0209 0.04003 -0.13114
v 0.01947 0.03469 -0.13114
v 0.00984 0.03909 -0.16809
v 0.00969 0.03834 -0.16893
v 0.00901 0.03845 -0.16905
v 0.00818 0.04056 -0.1669
v 0.00798 0.03972 -0.16753
v 0.00723 0.03972 -0.16783
v 0.00818 0.03909 -0.16809
v 0.00737 0.04037 -0.16735
v 0.00687 0.04077 -0.168
v 0.00779 0.04102 -0.16686
v 0.0084 0.04168 -0.16653
v 0.00901 0.04172 -0.16639
v 0.00744 0.04164 -0.16733
v 0.00823 0.04244 -0.16687
v 0.00901 0.04261 -0.16663
v 0.008 0.04293 -0.1673
v 0.00901 0.04307 -0.16705
v 0.00699 0.04215 -0.1678
v 0.00764 0.04329 -0.16727
v 0.00631 0.04112 -0.16863
v 0.00666 0.03991 -0.16865
v 0.00553 0.04121 -0.16877
v 0.00628 0.04232 -0.16786
v 0.0061 0.0401 -0.16944
v 0.00538 0.04012 -0.16967
v 0.00534 0.03929 -0.17042
v 0.00741 0.03925 -0.16826
v 0.00692 0.03924 -0.16927
v 0.00631 0.03928 -0.1702
v 0.00779 0.03878 -0.16868
v 0.00833 0.03834 -0.16893
v 0.00744 0.03858 -0.16987
v 0.00813 0.0381 -0.17022
v 0.00687 0.03847 -0.17094
v 0.00781 0.03783 -0.17132
v 0.0072 0.03756 -0.17182
v 0.00901 0.03901 -0.16821
v 0.00901 0.03982 -0.1675
v 0.00901 0.04085 -0.16672
v 0.00984 0.04056 -0.1669
v 0.00901 0.03815 -0.17043
v 0.01005 0.03972 -0.16753
v 0.01079 0.03972 -0.16783
v 0.00989 0.0381 -0.17022
v 0.00901 0.03773 -0.17156
v 0.01021 0.03783 -0.17132
v 0.01058 0.03858 -0.16987
v 0.01082 0.03756 -0.17182
v 0.00901 0.03716 -0.17233
v 0.01116 0.03847 -0.17094
v 0.01146 0.03643 -0.17274
v 0.01225 0.03848 -0.17116
v 0.01171 0.03928 -0.1702
v 0.01333 0.0366 -0.1722
v 0.0135 0.03867 -0.17073
v 0.01268 0.03929 -0.17042
v 0.01321 0.03299 -0.17392
v 0.01115 0.03284 -0.1744
v 0.01312 0.02832 -0.17547
v 0.0111 0.02822 -0.17582
v 0.00901 0.0282 -0.17582
v 0.00901 0.03276 -0.1745
v 0.00901 0.03642 -0.17285
v 0.00687 0.03284 -0.1744
v 0.00693 0.02822 -0.17582
v 0.00656 0.03643 -0.17274
v 0.0049 0.02832 -0.17547
v 0.00577 0.03848 -0.17116
v 0.00469 0.0366 -0.1722
v 0.00481 0.03299 -0.17392
v 0.00293 0.0331 -0.17289
v 0.00299 0.02856 -0.1744
v 0.00113 0.02894 -0.17258
v 0.00453 0.03867 -0.17073
v 0.00303 0.03676 -0.17124
v 0.00116 0.03338 -0.17116
v 0.00347 0.03912 -0.16986
v 0.00467 0.03983 -0.16977
v 0.00151 0.03715 -0.16956
v 0.00447 0.0408 -0.16881
v -0.00055 0.03402 -0.16859
v -0.00075 0.02948 -0.16999
v -0.00239 0.03015 -0.16619
v 0.00006 0.03807 -0.16691
v -0.00206 0.03494 -0.16493
v 0.00249 0.03999 -0.16814
v 0.00411 0.04218 -0.16698
v 0.0015 0.04146 -0.16525
v -0.00125 0.03935 -0.16333
v 0.0036 0.04416 -0.16384
v 0.00634 0.04393 -0.16599
v 0.00618 0.04606 -0.16283
v 0.00302 0.04622 -0.16021
v 0.00054 0.04319 -0.16165
v 0.00901 0.04484 -0.16543
v -0.00031 0.04479 -0.15774
v 0.00591 0.04815 -0.15927
v -0.00233 0.0408 -0.15891
v -0.0032 0.03607 -0.15995
v -0.00351 0.03093 -0.16071
v -0.00421 0.03171 -0.15481
v -0.00401 0.03716 -0.15459
v -0.00315 0.04214 -0.15418
v -0.0045 0.038 -0.14972
v -0.00461 0.03239 -0.14974
v -0.00483 0.03298 -0.14545
v -0.00482 0.03864 -0.14545
v -0.00401 0.04385 -0.14545
v -0.00367 0.04313 -0.14959
v -0.00098 0.04617 -0.15361
v -0.00138 0.0473 -0.14934
v 0.00203 0.04915 -0.15302
v 0.00247 0.04783 -0.1567
v 0.00564 0.04972 -0.15599
v 0.00182 0.05034 -0.14903
v -0.00161 0.04815 -0.14544
v -0.00369 0.04426 -0.14488
v 0.00171 0.05125 -0.14544
v 0.00533 0.05208 -0.1488
v -0.00155 0.04835 -0.14488
v -0.00353 0.04458 -0.14404
v -0.00155 0.04855 -0.14403
v -0.00417 0.04555 -0.13404
v 0.00151 0.05125 -0.14488
v 0.00488 0.05268 -0.14488
v 0.0053 0.05286 -0.14544
v 0.00458 0.05265 -0.14403
v 0.00901 0.05329 -0.14545
v 0.00135 0.05132 -0.14403
v 0.00394 0.05362 -0.13404
v 0.00901 0.05262 -0.14872
v 0.01269 0.05208 -0.1488
v 0.01273 0.05286 -0.14544
v 0.00901 0.05159 -0.15243
v 0.01259 0.05097 -0.15259
v 0.01238 0.04972 -0.15599
v 0.00543 0.05097 -0.15259
v 0.00901 0.05038 -0.15574
v 0.00901 0.04883 -0.15893
v 0.01211 0.04815 -0.15927
v 0.01184 0.04606 -0.16283
v 0.00901 0.04679 -0.16243
v 0.01168 0.04393 -0.16599
v 0.01038 0.04329 -0.16727
v 0.00901 0.04364 -0.16693
v 0.01002 0.04293 -0.1673
v 0.01103 0.04215 -0.1678
v 0.01174 0.04232 -0.16786
v 0.00979 0.04244 -0.16687
v 0.01058 0.04164 -0.16733
v 0.00962 0.04168 -0.16653
v 0.01171 0.04112 -0.16863
v 0.01023 0.04102 -0.16686
v 0.01115 0.04077 -0.168
v 0.01065 0.04037 -0.16735
v 0.01249 0.04121 -0.16877
v 0.01192 0.0401 -0.16944
v 0.01136 0.03991 -0.16865
v 0.01264 0.04012 -0.16967
v 0.01061 0.03925 -0.16826
v 0.0111 0.03924 -0.16927
v 0.01335 0.03983 -0.16977
v 0.01355 0.0408 -0.16881
v 0.01023 0.03878 -0.16868
v 0.01455 0.03912 -0.16986
v 0.01391 0.04218 -0.16698
v 0.01553 0.03999 -0.16814
v 0.01442 0.04416 -0.16384
v 0.01652 0.04146 -0.16525
v 0.015 0.04622 -0.16021
v 0.01651 0.03715 -0.16956
v 0.01748 0.04319 -0.16165
v 0.01499 0.03676 -0.17124
v 0.01555 0.04783 -0.1567
v 0.01509 0.0331 -0.17289
v 0.01503 0.02856 -0.1744
v 0.01689 0.02894 -0.17258
v 0.01686 0.03338 -0.17116
v 0.01858 0.03402 -0.16859
v 0.01877 0.02948 -0.16999
v 0.02041 0.03015 -0.16619
v 0.01796 0.03807 -0.16691
v 0.02008 0.03494 -0.16493
v 0.01927 0.03935 -0.16333
v 0.02123 0.03607 -0.15995
v 0.02153 0.03093 -0.16071
v 0.02223 0.03171 -0.15481
v 0.02035 0.0408 -0.15891
v 0.01834 0.04479 -0.15774
v 0.02203 0.03716 -0.15459
v 0.02117 0.04214 -0.15418
v 0.02253 0.038 -0.14972
v 0.02263 0.03239 -0.14974
v 0.02285 0.03298 -0.14545
v 0.02284 0.03864 -0.14545
v 0.02203 0.04385 -0.14545
v 0.02169 0.04313 -0.14959
v 0.0194 0.0473 -0.14934
v 0.01963 0.04815 -0.14544
v 0.01631 0.05125 -0.14544
v 0.019 0.04617 -0.15361
v 0.01621 0.05034 -0.14903
v 0.01599 0.04915 -0.15302
v -0.00219 0.04952 -0.13403
v -0.00186 0.04912 -0.13338
v -0.0037 0.04531 -0.13338
v 0.00091 0.05181 -0.13338
v 0.00071 0.05228 -0.13403
v 0.00407 0.05312 -0.13338
v 0.01083 0.05165 -0.10863
v 0.00531 0.05136 -0.10863
v 0.00067 0.04835 -0.10863
v -0.00263 0.04187 -0.10863
v -0.00234 0.03635 -0.10863
v 0.00067 0.03171 -0.10863
v 0.00531 0.0287 -0.10863
v 0.01225 0.04991 -0.12705
v 0.01225 0.04991 -0.14499
v 0.009 0.05043 -0.14499
v 0.009 0.05043 -0.12705
v 0.00574 0.04991 -0.14499
v 0.00574 0.04991 -0.12705
v 0.0028 0.04841 -0.14499
v 0.0028 0.04841 -0.12705
v 0.00047 0.04608 -0.14499
v 0.00047 0.04608 -0.12705
v -0.00103 0.04314 -0.14499
v -0.00103 0.04314 -0.12705
v -0.00154 0.03989 -0.14499
v -0.00154 0.03989 -0.12705
v -0.00103 0.03663 -0.14499
v -0.00103 0.03663 -0.12705
v 0.00047 0.03369 -0.14499
v 0.00047 0.03369 -0.12705
v 0.0028 0.03136 -0.14499
v 0.0028 0.03136 -0.12705
v 0.00574 0.02987 -0.14499
v 0.00574 0.02987 -0.12705
v 0.009 0.02935 -0.14499
v 0.009 0.02935 -0.12705
v 0.00899 0.05057 -0.11272
v 0.00899 0.05057 0.00533
v 0.01371 0.0493 -0.11272
v 0.01371 0.0493 0.00533
v 0.01826 0.04475 -0.11272
v 0.01826 0.04475 0.00533
v 0.01953 0.04003 -0.11272
v 0.01953 0.04003 0.00533
v 0.01826 0.0353 -0.11272
v 0.01826 0.0353 0.00533
v 0.01518 0.0315 -0.11272
v 0.01518 0.0315 0.00533
v 0.01062 0.02975 -0.11272
v 0.01062 0.02975 0.00533
v 0.00525 0.05023 -0.13338
v 0.0209 0.04003 -0.10863
v 0.01947 0.03469 -0.10863
v 0.01599 0.03039 -0.10863
v 0.01947 0.04537 -0.10863
v 0.01083 0.02841 -0.10863
v 0.01599 0.04966 -0.10863
v 0.01519 0.03136 -0.12705
v 0.01225 0.02987 -0.12705
v 0.01519 0.03136 -0.14499
v 0.01225 0.02987 -0.14499
v 0.01752 0.03369 -0.14499
v 0.01752 0.03369 -0.12705
v 0.01902 0.03663 -0.14499
v 0.01902 0.03663 -0.12705
v 0.01954 0.03989 -0.14499
v 0.01954 0.03989 -0.12705
v 0.01902 0.04314 -0.14499
v 0.01902 0.04314 -0.12705
v 0.01752 0.04608 -0.14499
v 0.01752 0.04608 -0.12705
v 0.01519 0.04841 -0.14499
v 0.01519 0.04841 -0.12705
v -0.00129 0.04165 0.00533
v -0.00129 0.04165 -0.11272
v -0.00103 0.03677 0.00533
v -0.00103 0.03677 -0.11272
v 0.00046 0.04622 -0.11272
v 0.00163 0.03266 0.00533
v 0.00046 0.04622 0.00533
v 0.00163 0.03266 -0.11272
v 0.00426 0.0493 -0.11272
v 0.00573 0.03 0.00533
v 0.00426 0.0493 0.00533
v 0.00573 0.03 -0.11272
v 0.00901 0.02948 -0.16999
v 0.00901 0.03015 -0.16619
v 0.00901 0.03093 -0.16071
v 0.00901 0.03171 -0.15481
v 0.00901 0.03239 -0.14974
v -0.00085 0.04364 -0.13338
v 0.00045 0.04619 -0.13338
v 0.00246 0.04875 -0.13338
vt 0.411133 0.703613
vt 0.415771 0.712891
vt 0.417236 0.702637
vt 0.421631 0.70459
vt 0.407471 0.706543
vt 0.424561 0.708008
vt 0.405762 0.710938
vt 0.425781 0.712402
vt 0.406006 0.71582
vt 0.424561 0.717285
vt 0.408447 0.719727
vt 0.421631 0.720703
vt 0.412598 0.722168
vt 0.417236 0.722656
vt 0.355713 0.629395
vt 0.355469 0.628418
vt 0.35498 0.62793
vt 0.354004 0.631348
vt 0.35376 0.630371
vt 0.352783 0.630371
vt 0.35376 0.629395
vt 0.353271 0.630859
vt 0.352295 0.630859
vt 0.353516 0.631836
vt 0.354004 0.632812
vt 0.354492 0.632812
vt 0.352783 0.632324
vt 0.35376 0.633789
vt 0.354736 0.633789
vt 0.353271 0.634277
vt 0.354736 0.634277
vt 0.352051 0.632812
vt 0.353027 0.634277
vt 0.351074 0.630859
vt 0.351807 0.629883
vt 0.350342 0.630859
vt 0.351318 0.632812
vt 0.35083 0.629395
vt 0.350098 0.629395
vt 0.350098 0.62793
vt 0.353027 0.629395
vt 0.352295 0.628418
vt 0.351074 0.62793
vt 0.353516 0.628906
vt 0.354004 0.628418
vt 0.352783 0.627441
vt 0.35376 0.626953
vt 0.352051 0.626465
vt 0.353271 0.625488
vt 0.352539 0.625
vt 0.354736 0.629395
vt 0.354736 0.630371
vt 0.354736 0.631836
vt 0.355469 0.631348
vt 0.35498 0.626465
vt 0.355957 0.630371
vt 0.356689 0.630371
vt 0.355957 0.626953
vt 0.35498 0.625488
vt 0.356445 0.625488
vt 0.356934 0.627441
vt 0.357178 0.625
vt 0.35498 0.624023
vt 0.357666 0.626465
vt 0.358154 0.623535
vt 0.359131 0.626465
vt 0.358398 0.62793
vt 0.360596 0.624023
vt 0.360596 0.627441
vt 0.359619 0.62793
vt 0.361328 0.619141
vt 0.358398 0.618652
vt 0.362549 0.613281
vt 0.358887 0.612793
vt 0.355225 0.612305
vt 0.35498 0.618164
vt 0.35498 0.623047
vt 0.351807 0.618164
vt 0.351562 0.612305
vt 0.351807 0.623047
vt 0.3479 0.613281
vt 0.350586 0.626465
vt 0.349365 0.624023
vt 0.348877 0.619141
vt 0.345947 0.620117
vt 0.344482 0.614746
vt 0.341064 0.617188
vt 0.349121 0.626953
vt 0.347168 0.625
vt 0.343262 0.62207
vt 0.347656 0.628418
vt 0.349365 0.628906
vt 0.344727 0.626953
vt 0.349121 0.630859
vt 0.340332 0.625488
vt 0.337402 0.620117
vt 0.333984 0.625
vt 0.342773 0.630371
vt 0.337402 0.629883
vt 0.346436 0.630859
vt 0.348633 0.633301
vt 0.345215 0.634766
vt 0.340576 0.634766
vt 0.3479 0.638184
vt 0.351318 0.635742
vt 0.351074 0.640137
vt 0.347168 0.643066
vt 0.34375 0.639648
vt 0.354492 0.637207
vt 0.342285 0.644531
vt 0.35083 0.645508
vt 0.338379 0.640625
vt 0.334473 0.63623
vt 0.329834 0.631348
vt 0.326172 0.638672
vt 0.331787 0.642578
vt 0.33667 0.646484
vt 0.329346 0.648438
vt 0.323486 0.644531
vt 0.321289 0.649902
vt 0.327393 0.65332
vt 0.332764 0.657227
vt 0.334717 0.652344
vt 0.341064 0.649902
vt 0.339844 0.655273
vt 0.345459 0.652344
vt 0.346436 0.647949
vt 0.350342 0.649902
vt 0.344971 0.657715
vt 0.338623 0.660156
vt 0.333496 0.658203
vt 0.344238 0.662109
vt 0.349609 0.65918
vt 0.338623 0.660645
vt 0.333496 0.659668
vt 0.338623 0.661621
vt 0.32959 0.671875
vt 0.34375 0.662598
vt 0.348389 0.664062
vt 0.349365 0.663574
vt 0.347412 0.665039
vt 0.354492 0.663086
vt 0.343262 0.663574
vt 0.343262 0.676758
vt 0.354248 0.65918
vt 0.358887 0.658691
vt 0.359131 0.663086
vt 0.354248 0.654785
vt 0.358398 0.654297
vt 0.358398 0.649902
vt 0.349854 0.654297
vt 0.354248 0.650391
vt 0.354492 0.645996
vt 0.35791 0.645508
vt 0.35791 0.640625
vt 0.354492 0.641113
vt 0.35791 0.635742
vt 0.356445 0.634277
vt 0.354736 0.634766
vt 0.355957 0.634277
vt 0.357422 0.632812
vt 0.358154 0.632812
vt 0.355469 0.633789
vt 0.356689 0.632324
vt 0.355225 0.632812
vt 0.358398 0.631348
vt 0.355957 0.631836
vt 0.357422 0.631348
vt 0.356445 0.631348
vt 0.359375 0.631348
vt 0.358887 0.629395
vt 0.357666 0.629883
vt 0.359619 0.629395
vt 0.356689 0.629883
vt 0.357422 0.628906
vt 0.360352 0.629395
vt 0.360596 0.630859
vt 0.356201 0.628906
vt 0.361816 0.628418
vt 0.36084 0.633789
vt 0.363037 0.630859
vt 0.361084 0.638184
vt 0.364258 0.634766
vt 0.361572 0.643066
vt 0.36499 0.627441
vt 0.365479 0.639648
vt 0.362793 0.625488
vt 0.362305 0.647949
vt 0.364014 0.620605
vt 0.365967 0.615234
vt 0.369385 0.617676
vt 0.366943 0.623047
vt 0.369629 0.625977
vt 0.372559 0.621094
vt 0.375977 0.625977
vt 0.366943 0.630859
vt 0.372314 0.630859
vt 0.368896 0.635742
vt 0.375 0.637207
vt 0.379883 0.632812
vt 0.383057 0.640137
vt 0.370605 0.641113
vt 0.366455 0.64502
vt 0.377197 0.644043
vt 0.37207 0.647461
vt 0.37915 0.649902
vt 0.385498 0.646973
vt 0.386963 0.652344
vt 0.380371 0.655273
vt 0.374756 0.657715
vt 0.373535 0.652832
vt 0.368164 0.655762
vt 0.369141 0.660156
vt 0.36377 0.662109
vt 0.367432 0.650391
vt 0.363281 0.657715
vt 0.362793 0.652344
vt 0.334717 0.67334
vt 0.334473 0.674316
vt 0.329346 0.67334
vt 0.338867 0.675781
vt 0.339355 0.675293
vt 0.342529 0.678223
vt 0.400146 0.718262
vt 0.433105 0.718262
vt 0.433105 0.710449
vt 0.400146 0.710449
vt 0.433105 0.702637
vt 0.400146 0.702637
vt 0.433105 0.691895
vt 0.400146 0.691895
vt 0.432861 0.684082
vt 0.400146 0.684082
vt 0.432861 0.67627
vt 0.400146 0.67627
vt 0.433105 0.668457
vt 0.400146 0.668457
vt 0.293213 0.726074
vt 0.270996 0.726074
vt 0.270996 0.72998
vt 0.293213 0.72998
vt 0.270996 0.734375
vt 0.293213 0.734375
vt 0.270996 0.738281
vt 0.293213 0.738281
vt 0.270996 0.742676
vt 0.293213 0.742676
vt 0.270996 0.746582
vt 0.293213 0.746582
vt 0.270996 0.750488
vt 0.293213 0.750488
vt 0.270996 0.754883
vt 0.293213 0.754883
vt 0.270996 0.758789
vt 0.293213 0.758789
vt 0.270996 0.763184
vt 0.293213 0.763184
vt 0.270996 0.76709
vt 0.293213 0.76709
vt 0.270996 0.771484
vt 0.293213 0.771484
vt 0.500488 0.534668
vt 0.634766 0.534668
vt 0.500488 0.529297
vt 0.634766 0.529297
vt 0.500488 0.521484
vt 0.634766 0.521484
vt 0.500488 0.516113
vt 0.634766 0.516113
vt 0.500488 0.510254
vt 0.634766 0.510254
vt 0.500488 0.504883
vt 0.634766 0.504883
vt 0.500488 0.500977
vt 0.634766 0.500977
vt 0.372314 0.670898
vt 0.362061 0.695312
vt 0.378906 0.672852
vt 0.37915 0.673828
vt 0.368652 0.693359
vt 0.400146 0.741699
vt 0.400146 0.749512
vt 0.432861 0.741699
vt 0.432861 0.749512
vt 0.432861 0.733887
vt 0.400146 0.757324
vt 0.400146 0.733887
vt 0.432861 0.757324
vt 0.400146 0.765137
vt 0.432861 0.765137
vt 0.432861 0.726074
vt 0.400146 0.726074
vt 0.293213 0.697266
vt 0.293213 0.692871
vt 0.270996 0.697266
vt 0.270996 0.692871
vt 0.270996 0.701172
vt 0.293213 0.701172
vt 0.270996 0.705566
vt 0.293213 0.705566
vt 0.270996 0.709473
vt 0.293213 0.709473
vt 0.270996 0.713867
vt 0.293213 0.713867
vt 0.270996 0.717773
vt 0.293213 0.717773
vt 0.270996 0.72168
vt 0.293213 0.72168
vt 0.634766 0.551758
vt 0.500488 0.551758
vt 0.634766 0.557129
vt 0.500488 0.557129
vt 0.500488 0.545898
vt 0.634766 0.562988
vt 0.634766 0.545898
vt 0.500488 0.562988
vt 0.500488 0.540527
vt 0.634766 0.568848
vt 0.634766 0.540527
vt 0.500488 0.568848
vt 0.634766 0.574219
vt 0.500488 0.574219
vt 0.400146 0.773438
vt 0.433105 0.773438
vt 0.293213 0.688965
vt 0.270996 0.688965
vt 0.368652 0.692871
vt 0.43457 0.618652
vt 0.432373 0.616211
vt 0.437012 0.621582
vt 0.424805 0.621582
vt 0.424805 0.626465
vt 0.438965 0.626465
vt 0.412598 0.621582
vt 0.41748 0.616211
vt 0.415039 0.618652
vt 0.410645 0.626465
vt 0.424805 0.633301
vt 0.44043 0.633301
vt 0.40918 0.633301
vt 0.424805 0.640625
vt 0.441406 0.640625
vt 0.408447 0.640625
vt 0.424805 0.647461
vt 0.441895 0.647461
vt 0.407959 0.647461
vt 0.429932 0.614746
vt 0.42749 0.614258
vt 0.424805 0.614258
vt 0.422363 0.614258
vt 0.419678 0.614746
vt 0.369141 0.693848
vt 0.328369 0.677734
vt 0.332275 0.678223
vt 0.336426 0.679199
vt 0.340088 0.681152
vt 0.350586 0.66748
vt 0.35498 0.666504
vt 0.360107 0.666016
vt 0.365479 0.665039
vt 0.370605 0.663574
vt 0.375732 0.661621
vt 0.380127 0.659668
vt 0.384277 0.658691
vt 0.388428 0.65918
vt 0.330322 0.660156
vt 0.326904 0.657715
vt 0.322998 0.65625
vt 0.318848 0.65625
vn 0 -0.0169 -0.9999
vn -0.1207 0.7019 -0.7019
vn -0.1632 0.8912 -0.4232
vn 0.0225 0.9023 -0.4306
vn 0.1406 0.4709 -0.8709
vn 0.1455 0.6105 -0.7785
vn 0.5757 0.5216 -0.6297
vn 0.0709 0.7281 -0.6818
vn 0.6153 0.2578 -0.745
vn 0.7913 0.1228 -0.599
vn 0.5173 0.1174 -0.8477
vn 0.3669 -0.0651 -0.928
vn -0.0159 -0.001 -0.9999
vn 0.6869 -0.1498 -0.7111
vn 0.4469 -0.4194 -0.7902
vn -0.0216 -0.4813 -0.8763
vn 0.3352 -0.0425 -0.9412
vn -0.0186 -0.1896 -0.9817
vn 0.451 0.1649 -0.8772
vn -0.0236 0.584 -0.8114
vn 0.5037 0.3961 -0.7677
vn 0.7694 0.4231 -0.4786
vn -0.0469 0.6471 -0.7609
vn -0.0949 0.6174 -0.7809
vn 0.4646 0.5988 -0.6524
vn 0.0014 0.6468 -0.7627
vn 0.4893 0.7031 -0.516
vn 0.6408 0.6705 -0.3739
vn 0.3723 0.7201 -0.5856
vn 0.3633 0.805 -0.4689
vn 0.1142 0.8928 -0.4358
vn 0.5222 0.7825 -0.339
vn 0.1776 0.9403 -0.2905
vn 0.3133 0.7568 -0.5736
vn 0.1164 0.8638 -0.4901
vn 0.0239 0.6841 -0.729
vn 0.0239 0.729 -0.6841
vn 0.0014 0.6228 -0.7823
vn -0.0013 0.4446 -0.8957
vn -0.1649 0.451 -0.8772
vn 0.0012 0.9678 -0.2518
vn -0.1713 0.5928 -0.7869
vn -0.6014 0.4936 -0.6283
vn -0.2062 0.9327 -0.2959
vn 0.0013 0.8942 -0.4477
vn -0.1418 0.8552 -0.4985
vn -0.5513 0.7614 -0.3411
vn -0.047 0.6713 -0.7397
vn 0.0014 0.696 -0.7181
vn -0.3427 0.7391 -0.5799
vn 0.0926 0.5085 -0.8561
vn -0.402 0.6997 -0.5906
vn 0.3045 0.4575 -0.8354
vn 0.2842 0.5668 -0.7733
vn 0.0238 0.6606 -0.7504
vn 0.2904 0.3381 -0.8952
vn 0.0869 0.3461 -0.9342
vn 0.2824 0.2824 -0.9168
vn 0.0846 0.2955 -0.9516
vn -0.0012 0.2746 -0.9616
vn -0.0013 0.3455 -0.9384
vn -0.0013 0.4983 -0.867
vn -0.1088 0.3264 -0.9389
vn -0.1059 0.2758 -0.9554
vn -0.1164 0.4901 -0.8638
vn -0.3054 0.2591 -0.9163
vn -0.0238 0.6335 -0.7734
vn -0.3305 0.4339 -0.8381
vn -0.3145 0.3145 -0.8957
vn -0.5668 0.2842 -0.7733
vn -0.5519 0.2273 -0.8023
vn -0.7051 0.1999 -0.6803
vn -0.3117 0.545 -0.7784
vn -0.5331 0.3986 -0.7463
vn -0.7216 0.2585 -0.6423
vn -0.4914 0.5451 -0.6793
vn -0.2578 0.6153 -0.745
vn -0.6958 0.3734 -0.6136
vn -0.3449 0.6653 -0.6621
vn -0.8409 0.2205 -0.4942
vn -0.828 0.1692 -0.5345
vn -0.9293 0.1102 -0.3524
vn -0.7677 0.3961 -0.5037
vn -0.9202 0.1857 -0.3445
vn -0.604 0.5499 -0.5769
vn -0.4316 0.6782 -0.5949
vn -0.6283 0.6014 -0.4936
vn -0.8404 0.3848 -0.3817
vn -0.4893 0.7031 -0.516
vn -0.2568 0.7673 -0.5877
vn -0.2826 0.794 -0.5383
vn -0.5127 0.7251 -0.4596
vn -0.675 0.5983 -0.4317
vn 0.0014 0.8169 -0.5768
vn -0.7432 0.557 -0.3708
vn -0.2783 0.8317 -0.4804
vn -0.8952 0.3381 -0.2904
vn -0.9648 0.1253 -0.2312
vn -0.9765 0.0798 -0.2002
vn -0.9911 0.0373 -0.1277
vn -0.9826 0.1006 -0.1563
vn -0.925 0.3007 -0.2323
vn -0.9909 0.0748 -0.1116
vn -0.9963 0.0011 -0.0858
vn -0.9978 -0.001 -0.0667
vn -0.9931 0.0736 -0.0917
vn -0.9281 0.3557 -0.1104
vn -0.9363 0.3149 -0.1554
vn -0.7733 0.5668 -0.2842
vn -0.782 0.5799 -0.2285
vn -0.545 0.7784 -0.3117
vn -0.5331 0.7463 -0.3986
vn -0.2978 0.8689 -0.3955
vn -0.5596 0.7884 -0.2555
vn -0.7902 0.6011 -0.1196
vn -0.9056 0.4088 -0.113
vn -0.5429 0.8166 -0.1962
vn -0.3054 0.9163 -0.2591
vn -0.8992 0.4281 -0.0901
vn -0.8121 0.5713 -0.119
vn -0.8627 0.4412 0.2471
vn -0.5621 0.8093 -0.1703
vn -0.4088 0.9056 -0.113
vn -0.3438 0.9211 -0.1825
vn -0.3889 0.9112 -0.1362
vn 0.0012 0.9733 -0.2295
vn -0.5534 0.8204 -0.1439
vn -0.384 0.8911 0.2417
vn -0.0207 0.9663 -0.2565
vn 0.2782 0.9259 -0.2554
vn 0.2477 0.9422 -0.2255
vn -0.0215 0.9446 -0.3275
vn 0.2627 0.9055 -0.3332
vn 0.2694 0.8806 -0.3899
vn -0.2904 0.8952 -0.3381
vn -0.0223 0.914 -0.4052
vn -0.0229 0.876 -0.4818
vn 0.2498 0.8445 -0.4736
vn 0.2539 0.8084 -0.5311
vn 0.0014 0.836 -0.5487
vn 0.2285 0.782 -0.5799
vn 0.0014 0.5985 -0.8011
vn -0.3536 -0.0218 -0.9352
vn -0.4709 0.1406 -0.8709
vn 0.0706 0.6328 -0.7711
vn -0.4722 -0.3929 -0.7891
vn -0.7017 -0.1239 -0.7017
vn -0.4112 -0.0441 -0.9105
vn -0.5279 0.3687 -0.7651
vn -0.5353 0.0933 -0.8395
vn -0.8032 0.0944 -0.5882
vn -0.6153 0.2578 -0.745
vn -0.4928 0.5736 -0.6543
vn -0.7879 0.3931 -0.474
vn -0.516 0.7031 -0.4893
vn -0.6672 0.6442 -0.374
vn 0.2303 0.6345 -0.7379
vn 0.3159 0.6853 -0.6562
vn -0.4831 0.747 -0.4568
vn 0.4636 0.5707 -0.6778
vn 0.402 0.6997 -0.5906
vn 0.5774 0.5774 -0.5774
vn 0.4596 0.7251 -0.5127
vn 0.6014 0.6283 -0.4936
vn 0.4831 0.747 -0.4568
vn 0.672 0.4065 -0.6189
vn 0.6492 0.6258 -0.4323
vn 0.5083 0.426 -0.7484
vn 0.5037 0.7677 -0.3961
vn 0.545 0.3117 -0.7784
vn 0.5311 0.2539 -0.8084
vn 0.6886 0.2274 -0.6886
vn 0.7041 0.2871 -0.6495
vn 0.8271 0.252 -0.5024
vn 0.8151 0.1996 -0.5439
vn 0.923 0.1374 -0.3595
vn 0.7484 0.426 -0.5083
vn 0.9124 0.2119 -0.3502
vn 0.8242 0.4145 -0.3859
vn 0.9605 0.1485 -0.2352
vn 0.9738 0.1013 -0.2038
vn 0.9899 0.0563 -0.1299
vn 0.8826 0.3666 -0.2942
vn 0.7201 0.5856 -0.3723
vn 0.9797 0.122 -0.159
vn 0.9148 0.3281 -0.2356
vn 0.989 0.0948 -0.1135
vn 0.996 0.0183 -0.0872
vn 0.9975 0.018 -0.0689
vn 0.9913 0.0933 -0.0933
vn 0.9224 0.362 -0.1345
vn 0.9266 0.3414 -0.1575
vn 0.7605 0.6074 -0.2295
vn 0.7519 0.6284 -0.1992
vn 0.5236 0.8215 -0.2257
vn 0.7513 0.595 -0.2855
vn 0.5311 0.8084 -0.2539
vn 0.516 0.7987 -0.3096
vn -0.7884 0.5596 0.2555
vn -0.6524 0.4646 0.5988
vn -0.7201 0.3723 0.5856
vn -0.4646 0.6524 0.5988
vn -0.5311 0.8084 0.2539
vn -0.3146 0.7341 0.6018
vn 0.143 0.9897 -0.0011
vn -0.3214 0.9469 -0.0012
vn -0.7627 0.6468 0.0014
vn -0.9821 0.1871 -0.0198
vn -0.9547 -0.2974 0
vn -0.7188 -0.6953 0
vn -0.3225 -0.9466 0
vn 0.2978 0.9546 -0.0012
vn 0.001 1 -0.001
vn -0.6015 0.7988 0.0014
vn -0.8291 0.5587 -0.0235
vn -0.9599 0.2797 -0.0209
vn -0.9998 -0.0151 -0.0161
vn -0.8173 -0.5762 0
vn -0.5993 -0.8005 0
vn -0.0161 -0.9997 0.0161
vn 0.4983 0.867 -0.0013
vn 0.852 0.5236 -0.0013
vn 0.9999 -0.001 0.0159
vn 0.8899 -0.4556 0.0214
vn 0.5849 -0.8108 0.0222
vn 0.1466 -0.989 0.018
vn 0.926 0.3769 0.022
vn 0.9154 0.402 0.0223
vn 0.8811 0.473 -0.0013
vn 0.5768 0.8169 -0.0014
vn 0.3045 -0.9523 0.02
vn 0.8097 -0.5865 0.0222
vn 0.9528 -0.303 0.02
vn 0.9469 0.3214 -0.0012
vn 0.8011 0.5985 -0.0014
vn -0.9919 0.1255 -0.0189
vn -0.473 0.8811 -0.0013
vn 0.8503 0.2722 0.4505
vn -0.0189 -0.9775 0.2099
vn -0.0186 -0.9819 0.1883
vn -0.0183 -0.9858 0.1672
vn 0 -0.9785 0.2061
vn -0.018 -0.989 0.1466
vn -0.0191 -0.9725 0.2321
vn 0 -0.9737 0.2279
vn 0.001 0.0149 0.9999
vn -0.0159 -0.001 0.9999
vn -0.0379 0.1481 0.9883
vn -0.0192 0.1455 0.9892
vn 0.0011 0.1631 0.9866
vn 0.0379 0.1481 0.9883
vn 0.0385 0.169 0.9849
vn 0.076 0.1322 0.9883
vn 0.0772 0.1533 0.9852
vn 0.1154 0.1154 0.9866
vn 0.1299 0.0563 0.9899
vn 0.1322 0.076 0.9883
vn 0.1277 0.0373 0.9911
vn 0.1255 0.0189 0.9919
vn 0.0897 -0.0339 0.9954
vn 0.0689 -0.0355 0.997
vn -0.1481 0.0379 0.9883
vn -0.1609 0.0194 0.9868
vn -0.1405 0.0191 0.9899
vn -0.1494 -0.0379 0.9881
vn -0.1043 0.0011 0.9945
vn -0.1035 0.0163 0.9945
o slide__p0_c0
f 1/1/1 2/2/1 3/3/1
f 3/3/1 2/2/1 4/4/1
f 2/2/1 1/1/1 5/5/1
f 4/4/1 2/2/1 6/6/1
f 2/2/1 5/5/1 7/7/1
f 6/6/1 2/2/1 8/8/1
f 2/2/1 7/7/1 9/9/1
f 8/8/1 2/2/1 10/10/1
f 2/2/1 9/9/1 11/11/1
f 10/10/1 2/2/1 12/12/1
f 2/2/1 11/11/1 13/13/1
f 12/12/1 2/2/1 14/14/1
f 14/14/1 2/2/1 13/13/1
f 15/15/2 16/16/3 17/17/4
f 18/18/5 19/19/6 20/20/7
f 20/20/7 19/19/6 21/21/8
f 18/18/5 20/20/7 22/22/9
f 22/22/9 20/20/7 23/23/10
f 18/18/5 22/22/9 24/24/11
f 24/24/11 22/22/9 23/23/10
f 18/18/5 24/24/11 25/25/12
f 18/18/5 25/25/12 26/26/13
f 25/25/12 24/24/11 27/27/14
f 27/27/14 24/24/11 23/23/10
f 26/26/13 25/25/12 28/28/15
f 28/28/15 25/25/12 27/27/14
f 26/26/13 28/28/15 29/29/16
f 29/29/16 28/28/15 30/30/17
f 30/30/17 28/28/15 27/27/14
f 29/29/16 30/30/17 31/31/18
f 30/30/17 27/27/14 32/32/19
f 32/32/19 27/27/14 23/23/10
f 30/30/17 32/32/19 33/33/20
f 32/32/19 23/23/10 34/34/21
f 34/34/21 23/23/10 35/35/22
f 35/35/22 23/23/10 20/20/7
f 36/36/23 37/37/24 34/34/21
f 36/36/23 34/34/21 38/38/25
f 38/38/25 34/34/21 35/35/22
f 36/36/23 38/38/25 39/39/26
f 39/39/26 38/38/25 40/40/23
f 35/35/22 20/20/7 41/41/27
f 41/41/27 20/20/7 21/21/8
f 38/38/25 35/35/22 42/42/28
f 42/42/28 35/35/22 41/41/27
f 38/38/25 42/42/28 43/43/29
f 41/41/27 21/21/8 44/44/30
f 41/41/27 44/44/30 42/42/28
f 44/44/30 21/21/8 45/45/31
f 43/43/29 42/42/28 46/46/32
f 46/46/32 42/42/28 44/44/30
f 46/46/32 44/44/30 45/45/31
f 46/46/32 45/45/31 47/47/33
f 43/43/29 46/46/32 48/48/34
f 46/46/32 47/47/33 49/49/35
f 46/46/32 49/49/35 48/48/34
f 48/48/34 49/49/35 50/50/36
f 51/51/37 52/52/38 15/15/2
f 52/52/38 51/51/37 21/21/8
f 21/21/8 51/51/37 17/17/4
f 17/17/4 51/51/37 15/15/2
f 52/52/38 21/21/8 19/19/6
f 21/21/8 17/17/4 45/45/31
f 45/45/31 17/17/4 47/47/33
f 52/52/38 19/19/6 18/18/5
f 52/52/38 18/18/5 53/53/39
f 53/53/39 18/18/5 26/26/13
f 52/52/38 53/53/39 54/54/40
f 54/54/40 53/53/39 26/26/13
f 47/47/33 17/17/4 55/55/41
f 52/52/38 54/54/40 56/56/42
f 52/52/38 56/56/42 15/15/2
f 47/47/33 55/55/41 49/49/35
f 15/15/2 56/56/42 57/57/43
f 57/57/43 56/56/42 54/54/40
f 55/55/41 17/17/4 58/58/44
f 58/58/44 17/17/4 16/16/3
f 49/49/35 55/55/41 59/59/45
f 55/55/41 58/58/44 60/60/46
f 55/55/41 60/60/46 59/59/45
f 49/49/35 59/59/45 50/50/36
f 60/60/46 58/58/44 61/61/47
f 61/61/47 58/58/44 16/16/3
f 59/59/45 60/60/46 62/62/48
f 50/50/36 59/59/45 63/63/49
f 63/63/49 59/59/45 62/62/48
f 62/62/48 60/60/46 64/64/50
f 64/64/50 60/60/46 61/61/47
f 63/63/49 62/62/48 65/65/51
f 62/62/48 64/64/50 66/66/26
f 62/62/48 66/66/26 65/65/51
f 64/64/50 61/61/47 67/67/52
f 64/64/50 67/67/52 66/66/26
f 65/65/51 66/66/26 68/68/53
f 68/68/53 66/66/26 69/69/54
f 69/69/54 66/66/26 70/70/55
f 70/70/55 66/66/26 67/67/52
f 71/71/56 72/72/57 68/68/53
f 72/72/57 71/71/56 73/73/58
f 72/72/57 73/73/58 74/74/59
f 72/72/57 74/74/59 75/75/60
f 72/72/57 75/75/60 76/76/61
f 77/77/62 65/65/51 72/72/57
f 77/77/62 72/72/57 76/76/61
f 65/65/51 77/77/62 63/63/49
f 76/76/61 75/75/60 78/78/63
f 76/76/61 78/78/63 77/77/62
f 78/78/63 75/75/60 79/79/64
f 63/63/49 77/77/62 80/80/65
f 80/80/65 77/77/62 78/78/63
f 63/63/49 80/80/65 50/50/36
f 78/78/63 79/79/64 81/81/66
f 50/50/36 80/80/65 82/82/67
f 50/50/36 82/82/67 48/48/34
f 80/80/65 78/78/63 83/83/68
f 80/80/65 83/83/68 82/82/67
f 78/78/63 81/81/66 84/84/69
f 78/78/63 84/84/69 83/83/68
f 48/48/34 82/82/67 43/43/29
f 84/84/69 81/81/66 85/85/70
f 84/84/69 85/85/70 83/83/68
f 85/85/70 81/81/66 86/86/71
f 85/85/70 86/86/71 87/87/72
f 43/43/29 82/82/67 40/40/23
f 43/43/29 40/40/23 38/38/25
f 88/88/73 82/82/67 83/83/68
f 82/82/67 88/88/73 40/40/23
f 83/83/68 85/85/70 89/89/74
f 85/85/70 87/87/72 90/90/75
f 88/88/73 83/83/68 91/91/76
f 91/91/76 83/83/68 89/89/74
f 40/40/23 88/88/73 92/92/77
f 92/92/77 88/88/73 91/91/76
f 40/40/23 92/92/77 39/39/26
f 89/89/74 85/85/70 93/93/78
f 93/93/78 85/85/70 90/90/75
f 89/89/74 93/93/78 91/91/76
f 39/39/26 92/92/77 94/94/79
f 94/94/79 92/92/77 91/91/76
f 39/39/26 94/94/79 36/36/23
f 36/36/23 94/94/79 37/37/24
f 95/95/80 90/90/75 87/87/72
f 90/90/75 95/95/80 93/93/78
f 95/95/80 87/87/72 96/96/81
f 95/95/80 96/96/81 97/97/82
f 93/93/78 95/95/80 98/98/83
f 95/95/80 97/97/82 99/99/84
f 100/100/85 91/91/76 93/93/78
f 101/101/86 94/94/79 91/91/76
f 101/101/86 91/91/76 100/100/85
f 94/94/79 101/101/86 37/37/24
f 100/100/85 93/93/78 102/102/87
f 102/102/87 93/93/78 98/98/83
f 100/100/85 102/102/87 101/101/86
f 103/103/88 98/98/83 95/95/80
f 103/103/88 95/95/80 99/99/84
f 98/98/83 103/103/88 102/102/87
f 32/32/19 34/34/21 37/37/24
f 32/32/19 37/37/24 33/33/20
f 101/101/86 102/102/87 104/104/89
f 105/105/90 37/37/24 101/101/86
f 37/37/24 105/105/90 33/33/20
f 101/101/86 104/104/89 106/106/91
f 101/101/86 106/106/91 105/105/90
f 104/104/89 102/102/87 107/107/92
f 104/104/89 107/107/92 106/106/91
f 107/107/92 102/102/87 108/108/93
f 108/108/93 102/102/87 103/103/88
f 33/33/20 105/105/90 109/109/94
f 109/109/94 105/105/90 106/106/91
f 108/108/93 103/103/88 110/110/95
f 108/108/93 110/110/95 107/107/92
f 106/106/91 107/107/92 111/111/96
f 110/110/95 103/103/88 112/112/97
f 112/112/97 103/103/88 113/113/98
f 113/113/98 103/103/88 99/99/84
f 113/113/98 99/99/84 97/97/82
f 113/113/98 97/97/82 114/114/99
f 113/113/98 114/114/99 115/115/100
f 113/113/98 115/115/100 116/116/101
f 112/112/97 113/113/98 117/117/102
f 117/117/102 113/113/98 116/116/101
f 112/112/97 117/117/102 110/110/95
f 116/116/101 115/115/100 118/118/103
f 116/116/101 118/118/103 117/117/102
f 118/118/103 115/115/100 119/119/104
f 118/118/103 119/119/104 120/120/105
f 118/118/103 120/120/105 121/121/106
f 118/118/103 121/121/106 122/122/107
f 117/117/102 118/118/103 123/123/108
f 123/123/108 118/118/103 122/122/107
f 124/124/109 110/110/95 117/117/102
f 117/117/102 123/123/108 125/125/110
f 117/117/102 125/125/110 124/124/109
f 125/125/110 123/123/108 122/122/107
f 110/110/95 124/124/109 126/126/111
f 126/126/111 124/124/109 125/125/110
f 110/110/95 126/126/111 127/127/112
f 110/110/95 127/127/112 107/107/92
f 107/107/92 127/127/112 128/128/113
f 128/128/113 127/127/112 126/126/111
f 107/107/92 128/128/113 111/111/96
f 126/126/111 125/125/110 129/129/114
f 130/130/115 125/125/110 122/122/107
f 130/130/115 122/122/107 131/131/116
f 129/129/114 125/125/110 132/132/117
f 132/132/117 125/125/110 130/130/115
f 126/126/111 129/129/114 133/133/118
f 133/133/118 129/129/114 132/132/117
f 130/130/115 131/131/116 134/134/115
f 130/130/115 134/134/115 132/132/117
f 134/134/115 131/131/116 135/135/119
f 134/134/115 135/135/119 136/136/120
f 136/136/120 135/135/119 137/137/121
f 132/132/117 134/134/115 138/138/122
f 138/138/122 134/134/115 136/136/120
f 132/132/117 138/138/122 139/139/123
f 132/132/117 139/139/123 140/140/124
f 132/132/117 140/140/124 133/133/118
f 139/139/123 138/138/122 141/141/125
f 133/133/118 140/140/124 142/142/126
f 141/141/125 138/138/122 143/143/127
f 143/143/127 138/138/122 136/136/120
f 141/141/125 143/143/127 144/144/128
f 133/133/118 142/142/126 145/145/129
f 145/145/129 142/142/126 146/146/130
f 146/146/130 142/142/126 147/147/131
f 145/145/129 146/146/130 148/148/132
f 145/145/129 148/148/132 133/133/118
f 148/148/132 146/146/130 149/149/133
f 148/148/132 149/149/133 150/150/134
f 133/133/118 148/148/132 151/151/135
f 133/133/118 151/151/135 126/126/111
f 126/126/111 151/151/135 128/128/113
f 128/128/113 151/151/135 148/148/132
f 128/128/113 148/148/132 152/152/136
f 152/152/136 148/148/132 150/150/134
f 128/128/113 152/152/136 153/153/137
f 153/153/137 152/152/136 150/150/134
f 128/128/113 153/153/137 111/111/96
f 153/153/137 150/150/134 154/154/138
f 111/111/96 153/153/137 106/106/91
f 153/153/137 154/154/138 155/155/139
f 106/106/91 153/153/137 156/156/140
f 156/156/140 153/153/137 155/155/139
f 106/106/91 156/156/140 109/109/94
f 109/109/94 156/156/140 155/155/139
f 109/109/94 155/155/139 157/157/141
f 109/109/94 157/157/141 158/158/142
f 109/109/94 158/158/142 159/159/142
f 109/109/94 159/159/142 33/33/20
f 33/33/20 159/159/142 31/31/18
f 31/31/18 159/159/142 158/158/142
f 33/33/20 31/31/18 30/30/17
f 31/31/18 158/158/142 160/160/143
f 31/31/18 160/160/143 29/29/16
f 160/160/143 158/158/142 161/161/144
f 161/161/144 158/158/142 162/162/145
f 29/29/16 160/160/143 163/163/146
f 29/29/16 163/163/146 26/26/13
f 160/160/143 161/161/144 164/164/147
f 160/160/143 164/164/147 163/163/146
f 26/26/13 163/163/146 165/165/148
f 165/165/148 163/163/146 164/164/147
f 26/26/13 165/165/148 54/54/40
f 161/161/144 162/162/145 166/166/149
f 165/165/148 164/164/147 167/167/150
f 165/165/148 167/167/150 54/54/40
f 168/168/151 164/164/147 161/161/144
f 164/164/147 168/168/151 167/167/150
f 168/168/151 161/161/144 166/166/149
f 54/54/40 167/167/150 169/169/152
f 169/169/152 167/167/150 168/168/151
f 170/170/55 166/166/149 162/162/145
f 54/54/40 169/169/152 57/57/43
f 57/57/43 169/169/152 168/168/151
f 166/166/149 170/170/55 171/171/153
f 168/168/151 166/166/149 172/172/154
f 168/168/151 172/172/154 57/57/43
f 172/172/154 166/166/149 171/171/153
f 171/171/153 170/170/55 173/173/67
f 57/57/43 172/172/154 174/174/155
f 57/57/43 174/174/155 15/15/2
f 172/172/154 171/171/153 175/175/156
f 172/172/154 175/175/156 174/174/155
f 171/171/153 173/173/67 70/70/55
f 70/70/55 173/173/67 176/176/157
f 176/176/157 173/173/67 177/177/158
f 171/171/153 70/70/55 67/67/52
f 171/171/153 67/67/52 175/175/156
f 175/175/156 67/67/52 61/61/47
f 174/174/155 175/175/156 178/178/159
f 178/178/159 175/175/156 61/61/47
f 174/174/155 178/178/159 15/15/2
f 178/178/159 61/61/47 16/16/3
f 178/178/159 16/16/3 15/15/2
f 68/68/53 69/69/54 179/179/160
f 72/72/57 65/65/51 68/68/53
f 70/70/55 176/176/157 69/69/54
f 69/69/54 176/176/157 179/179/160
f 179/179/160 176/176/157 177/177/158
f 173/173/67 170/170/55 177/177/158
f 177/177/158 170/170/55 162/162/145
f 177/177/158 162/162/145 180/180/161
f 177/177/158 180/180/161 179/179/160
f 158/158/142 157/157/141 162/162/145
f 162/162/145 157/157/141 180/180/161
f 180/180/161 157/157/141 155/155/139
f 179/179/160 180/180/161 181/181/162
f 180/180/161 155/155/139 182/182/163
f 181/181/162 180/180/161 183/183/164
f 183/183/164 180/180/161 182/182/163
f 182/182/163 155/155/139 184/184/165
f 182/182/163 184/184/165 183/183/164
f 184/184/165 155/155/139 154/154/138
f 184/184/165 154/154/138 150/150/134
f 179/179/160 181/181/162 185/185/166
f 185/185/166 181/181/162 183/183/164
f 183/183/164 184/184/165 186/186/167
f 179/179/160 185/185/166 187/187/168
f 179/179/160 187/187/168 68/68/53
f 184/184/165 150/150/134 188/188/169
f 68/68/53 187/187/168 189/189/170
f 189/189/170 187/187/168 185/185/166
f 68/68/53 189/189/170 71/71/56
f 71/71/56 189/189/170 73/73/58
f 73/73/58 189/189/170 190/190/171
f 190/190/171 189/189/170 191/191/172
f 189/189/170 185/185/166 192/192/173
f 189/189/170 192/192/173 191/191/172
f 191/191/172 192/192/173 193/193/174
f 193/193/174 192/192/173 185/185/166
f 191/191/172 193/193/174 194/194/175
f 194/194/175 193/193/174 195/195/176
f 193/193/174 185/185/166 196/196/177
f 196/196/177 185/185/166 183/183/164
f 195/195/176 193/193/174 197/197/178
f 193/193/174 196/196/177 198/198/179
f 198/198/179 196/196/177 183/183/164
f 193/193/174 198/198/179 197/197/178
f 198/198/179 183/183/164 186/186/167
f 195/195/176 197/197/178 199/199/180
f 199/199/180 197/197/178 198/198/179
f 195/195/176 199/199/180 200/200/181
f 200/200/181 199/199/180 201/201/182
f 199/199/180 198/198/179 202/202/183
f 198/198/179 186/186/167 203/203/184
f 198/198/179 203/203/184 202/202/183
f 203/203/184 186/186/167 184/184/165
f 203/203/184 184/184/165 188/188/169
f 201/201/182 199/199/180 204/204/185
f 199/199/180 202/202/183 205/205/186
f 205/205/186 202/202/183 203/203/184
f 199/199/180 205/205/186 204/204/185
f 201/201/182 204/204/185 206/206/187
f 206/206/187 204/204/185 205/205/186
f 201/201/182 206/206/187 207/207/188
f 207/207/188 206/206/187 208/208/189
f 208/208/189 206/206/187 209/209/190
f 209/209/190 206/206/187 210/210/191
f 206/206/187 205/205/186 211/211/192
f 206/206/187 211/211/192 210/210/191
f 210/210/191 211/211/192 212/212/193
f 212/212/193 211/211/192 205/205/186
f 210/210/191 212/212/193 213/213/194
f 213/213/194 212/212/193 214/214/195
f 212/212/193 205/205/186 215/215/196
f 215/215/196 205/205/186 203/203/184
f 214/214/195 212/212/193 216/216/197
f 212/212/193 215/215/196 217/217/198
f 217/217/198 215/215/196 203/203/184
f 212/212/193 217/217/198 216/216/197
f 214/214/195 216/216/197 146/146/130
f 214/214/195 146/146/130 147/147/131
f 146/146/130 216/216/197 217/217/198
f 217/217/198 203/203/184 188/188/169
f 146/146/130 217/217/198 149/149/133
f 217/217/198 188/188/169 150/150/134
f 217/217/198 150/150/134 149/149/133
f 218/218/199 136/136/120 137/137/121
f 136/136/120 218/218/199 143/143/127
f 218/218/199 137/137/121 219/219/200
f 219/219/200 137/137/121 220/220/201
f 218/218/199 219/219/200 221/221/202
f 143/143/127 218/218/199 222/222/203
f 222/222/203 218/218/199 221/221/202
f 143/143/127 222/222/203 144/144/128
f 222/222/203 221/221/202 223/223/204
f 222/222/203 223/223/204 144/144/128
f 224/224/205 7/225/205 5/226/206
f 224/224/205 5/226/206 225/227/206
f 225/227/206 5/226/206 1/228/207
f 225/227/206 1/228/207 226/229/207
f 226/229/207 1/228/207 3/230/208
f 226/229/207 3/230/208 227/231/208
f 227/231/208 3/230/208 4/232/209
f 227/231/208 4/232/209 228/233/209
f 228/233/209 4/232/209 6/234/210
f 228/233/209 6/234/210 229/235/210
f 229/235/210 6/234/210 8/236/211
f 229/235/210 8/236/211 230/237/211
f 231/238/212 232/239/212 233/240/213
f 231/238/212 233/240/213 234/241/213
f 234/241/213 233/240/213 235/242/206
f 234/241/213 235/242/206 236/243/206
f 236/243/206 235/242/206 237/244/214
f 236/243/206 237/244/214 238/245/214
f 238/245/214 237/244/214 239/246/215
f 238/245/214 239/246/215 240/247/215
f 240/247/215 239/246/215 241/248/216
f 240/247/215 241/248/216 242/249/216
f 242/249/216 241/248/216 243/250/217
f 242/249/216 243/250/217 244/251/217
f 244/251/217 243/250/217 245/252/209
f 244/251/217 245/252/209 246/253/209
f 246/253/209 245/252/209 247/254/218
f 246/253/209 247/254/218 248/255/218
f 248/255/218 247/254/218 249/256/219
f 248/255/218 249/256/219 250/257/219
f 250/257/219 249/256/219 251/258/211
f 250/257/219 251/258/211 252/259/211
f 252/259/211 251/258/211 253/260/220
f 252/259/211 253/260/220 254/261/220
f 255/262/213 256/263/213 257/264/221
f 257/264/221 256/263/213 258/265/221
f 257/264/221 258/265/221 259/266/222
f 259/266/222 258/265/221 260/267/222
f 259/266/222 260/267/222 261/268/223
f 261/268/223 260/267/222 262/269/223
f 261/268/223 262/269/223 263/270/224
f 263/270/224 262/269/223 264/271/224
f 263/270/224 264/271/224 265/272/225
f 265/272/225 264/271/224 266/273/225
f 265/272/225 266/273/225 267/274/226
f 267/274/226 266/273/225 268/275/226
f 269/276/227 235/277/227 223/278/227
f 223/278/227 235/277/227 144/279/227
f 144/279/227 235/277/227 141/280/228
f 270/281/223 271/282/224 13/283/223
f 13/283/223 271/282/224 14/284/224
f 270/281/223 13/283/223 11/285/229
f 14/284/224 271/282/224 272/286/225
f 270/281/223 11/285/229 273/287/229
f 14/284/224 272/286/225 12/288/225
f 12/288/225 272/286/225 274/289/226
f 12/288/225 274/289/226 10/290/226
f 273/287/229 11/285/229 9/291/230
f 273/287/229 9/291/230 275/292/230
f 275/292/230 9/291/230 7/225/205
f 275/292/230 7/225/205 224/224/205
f 276/293/225 277/294/231 278/295/225
f 278/295/225 277/294/231 279/296/231
f 276/293/225 278/295/225 280/297/232
f 276/293/225 280/297/232 281/298/232
f 281/298/232 280/297/232 282/299/233
f 281/298/232 282/299/233 283/300/233
f 283/300/233 282/299/233 284/301/223
f 283/300/233 284/301/223 285/302/223
f 285/302/223 284/301/223 286/303/234
f 285/302/223 286/303/234 287/304/234
f 287/304/234 286/303/234 288/305/235
f 287/304/234 288/305/235 289/306/235
f 289/306/235 288/305/235 290/307/230
f 289/306/235 290/307/230 291/308/230
f 291/308/230 290/307/230 232/239/212
f 291/308/230 232/239/212 231/238/212
f 292/309/236 293/310/236 294/311/209
f 294/311/209 293/310/236 295/312/209
f 293/310/236 292/309/236 296/313/215
f 294/311/209 295/312/209 297/314/210
f 296/313/215 292/309/236 298/315/215
f 297/314/210 295/312/209 299/316/210
f 296/313/215 298/315/215 300/317/237
f 297/314/210 299/316/210 301/318/211
f 300/317/237 298/315/215 302/319/237
f 300/317/237 302/319/237 255/262/213
f 255/262/213 302/319/237 256/263/213
f 301/318/211 299/316/210 303/320/211
f 301/318/211 303/320/211 268/321/226
f 268/321/226 303/320/211 267/322/226
f 10/290/226 274/289/226 230/323/211
f 10/290/226 230/323/211 8/324/211
f 279/296/231 277/294/231 254/325/220
f 279/296/231 254/325/220 253/326/220
f 141/280/238 235/277/238 139/327/238
f 87/328/239 86/329/239 96/330/240
f 96/330/240 86/329/239 304/331/240
f 96/330/240 304/331/240 305/332/241
f 96/330/240 305/332/241 97/333/241
f 305/332/241 304/331/240 194/334/240
f 194/334/240 304/331/240 190/335/242
f 194/334/240 190/335/242 191/336/242
f 305/332/241 194/334/240 195/337/241
f 97/333/241 305/332/241 306/338/243
f 306/338/243 305/332/241 195/337/241
f 97/333/241 306/338/243 114/339/243
f 306/338/243 195/337/241 200/340/243
f 114/339/243 306/338/243 307/341/243
f 307/341/243 306/338/243 200/340/243
f 114/339/243 307/341/243 115/342/243
f 307/341/243 200/340/243 201/343/243
f 115/342/243 307/341/243 308/344/243
f 308/344/243 307/341/243 201/343/243
f 115/342/243 308/344/243 119/345/243
f 308/344/243 201/343/243 207/346/243
f 81/347/244 79/348/244 86/329/239
f 86/329/239 79/348/244 304/331/244
f 304/331/244 79/348/244 75/349/244
f 304/331/244 75/349/244 74/350/244
f 304/331/244 74/350/244 190/335/242
f 190/335/242 74/350/244 73/351/245
f 140/352/238 139/327/238 235/277/238
f 220/220/246 309/353/246 219/219/246
f 219/219/246 309/353/246 310/354/246
f 219/219/246 310/354/246 221/221/247
f 221/221/247 310/354/246 311/355/247
f 221/221/247 311/355/247 223/223/247
f 223/223/247 311/355/247 269/356/247
f 235/357/248 233/358/249 140/140/248
f 140/140/248 233/358/249 142/142/250
f 142/142/250 233/358/249 147/147/251
f 147/147/251 233/358/249 232/359/252
f 147/147/251 232/359/252 214/214/253
f 214/214/253 232/359/252 290/360/254
f 214/214/253 290/360/254 213/213/255
f 213/213/255 290/360/254 288/361/255
f 213/213/255 288/361/255 210/210/256
f 210/210/256 288/361/255 286/362/257
f 210/210/256 286/362/257 284/363/258
f 210/210/256 284/363/258 209/209/259
f 209/209/259 284/363/258 282/364/260
f 209/209/259 282/364/260 208/208/260
f 208/208/260 282/364/260 280/365/261
f 241/366/262 122/122/262 243/367/263
f 243/367/263 122/122/262 121/121/264
f 243/367/263 121/121/264 245/368/265
f 245/368/265 121/121/264 247/369/266
f 247/369/266 121/121/264 120/120/267
