# CS2 body mesh, tools/cs2_glb_to_obj.py
v 0.00717 -0.00913 -0.17521
v 0.01076 -0.00913 -0.17521
v 0.0072 -0.01605 -0.18584
v 0.01083 -0.01605 -0.18584
v 0.00721 -0.02349 -0.18966
v 0.01085 -0.02349 -0.18966
v 0.00721 -0.02989 -0.18974
v 0.01085 -0.02989 -0.18974
v 0.00721 -0.03512 -0.18824
v 0.01084 -0.03512 -0.18824
v 0.0072 -0.0387 -0.18609
v 0.01083 -0.0387 -0.18609
v 0.00719 -0.04103 -0.18396
v 0.01081 -0.04103 -0.18396
v 0.00715 -0.01586 -0.16918
v 0.00716 -0.01601 -0.17301
v 0.00718 -0.01671 -0.17794
v 0.00719 -0.01934 -0.18246
v 0.0072 -0.02455 -0.18626
v 0.0072 -0.03069 -0.18687
v 0.0072 -0.0358 -0.18576
v 0.0072 -0.03849 -0.18437
v 0.00719 -0.0406 -0.1828
v 0.01073 -0.01586 -0.16918
v 0.01075 -0.01601 -0.17301
v 0.01078 -0.01671 -0.17794
v 0.01081 -0.01934 -0.18246
v 0.01083 -0.02455 -0.18626
v 0.01083 -0.03069 -0.18687
v 0.01083 -0.0358 -0.18576
v 0.01082 -0.03849 -0.18437
v 0.01081 -0.0406 -0.1828
vt 0.486816 0.602539
vt 0.486816 0.609375
vt 0.509277 0.602539
vt 0.509277 0.609375
vt 0.524414 0.602539
vt 0.524414 0.609375
vt 0.536133 0.602539
vt 0.536133 0.609375
vt 0.545898 0.602539
vt 0.545898 0.609375
vt 0.553223 0.602539
vt 0.553223 0.609375
vt 0.558594 0.602539
vt 0.558594 0.609375
vt 0.521973 0.652344
vt 0.526855 0.637207
vt 0.518066 0.646484
vt 0.512695 0.639648
vt 0.506836 0.626953
vt 0.504883 0.634766
vt 0.492432 0.626953
vt 0.493652 0.633301
vt 0.482422 0.632324
vt 0.483643 0.637695
vt 0.475586 0.63916
vt 0.476562 0.643555
vt 0.47168 0.645508
vt 0.473389 0.647949
vt 0.469971 0.650879
vt 0.471436 0.652344
vt 0.554199 0.653809
vt 0.557617 0.647949
vt 0.549316 0.638672
vt 0.563477 0.641113
vt 0.569336 0.628906
vt 0.571289 0.636719
vt 0.584473 0.629883
vt 0.583008 0.635742
vt 0.594238 0.635254
vt 0.592773 0.640625
vt 0.601074 0.642578
vt 0.599609 0.646973
vt 0.604492 0.648926
vt 0.602539 0.651367
vt 0.605957 0.654297
vt 0.604492 0.655762
vt 0.561035 0.602539
vt 0.561035 0.609375
vt 0.56543 0.602539
vt 0.56543 0.609375
vt 0.570801 0.602539
vt 0.570801 0.609375
vt 0.580078 0.602539
vt 0.580078 0.609375
vt 0.591309 0.602539
vt 0.591309 0.609375
vt 0.603027 0.602539
vt 0.603027 0.609375
vt 0.612305 0.602539
vt 0.612305 0.609375
vt 0.621094 0.602539
vt 0.621094 0.609375
vt 0.62793 0.602539
vt 0.62793 0.609375
vn 0.0014 0.836 -0.5487
vn 0.0014 0.6468 -0.7627
vn -0.0012 0.2267 -0.974
vn 0 -0.1428 -0.9897
vn 0 -0.4221 -0.9065
vn 0 -0.6009 -0.7993
vn -0.0225 -0.6834 -0.7297
vn -0.9998 -0.0151 -0.0161
vn -1 -0.001 0
vn 0.9999 -0.001 0.0159
vn 0.9999 0.0149 -0.001
vn -0.0207 -0.9256 0.378
vn 0.0014 0.5985 0.8011
vn 0.0014 0.5487 0.836
vn 0.0013 0.3455 0.9384
vn -0.0177 0.0489 0.9986
vn -0.0202 -0.3302 0.9437
vn -0.0225 -0.7283 0.6848
vn -0.0205 -0.9353 0.3532
vn -0.0175 -0.9941 0.1072
vn -0.0167 -0.9986 0.05
o trigger__p0_c0
f 1/1/1 2/2/1 3/3/2
f 3/3/2 2/2/1 4/4/2
f 3/3/2 4/4/2 5/5/3
f 5/5/3 4/4/2 6/6/3
f 5/5/3 6/6/3 7/7/4
f 7/7/4 6/6/3 8/8/4
f 7/7/4 8/8/4 9/9/5
f 9/9/5 8/8/4 10/10/5
f 9/9/5 10/10/5 11/11/6
f 11/11/6 10/10/5 12/12/6
f 11/11/6 12/12/6 13/13/7
f 13/13/7 12/12/6 14/14/7
f 15/15/8 1/16/8 16/17/8
f 16/17/8 1/16/8 17/18/8
f 17/18/8 1/16/8 3/19/8
f 17/18/8 3/19/8 18/20/8
f 18/20/8 3/19/8 5/21/8
f 18/20/8 5/21/8 19/22/8
f 19/22/8 5/21/8 7/23/8
f 19/22/8 7/23/8 20/24/8
f 20/24/8 7/23/8 9/25/8
f 20/24/8 9/25/8 21/26/9
f 21/26/9 9/25/8 11/27/9
f 21/26/9 11/27/9 22/28/9
f 22/28/9 11/27/9 13/29/9
f 22/28/9 13/29/9 23/30/9
f 24/31/10 25/32/10 2/33/10
f 2/33/10 25/32/10 26/34/10
f 2/33/10 26/34/10 4/35/11
f 4/35/11 26/34/10 27/36/11
f 4/35/11 27/36/11 6/37/10
f 6/37/10 27/36/11 28/38/10
f 6/37/10 28/38/10 8/39/10
f 8/39/10 28/38/10 29/40/10
f 8/39/10 29/40/10 10/41/10
f 10/41/10 29/40/10 30/42/10
f 10/41/10 30/42/10 12/43/10
f 12/43/10 30/42/10 31/44/10
f 12/43/10 31/44/10 14/45/11
f 14/45/11 31/44/10 32/46/11
f 13/13/12 14/14/12 23/47/12
f 23/47/12 14/14/12 32/48/12
f 23/47/13 32/48/13 22/49/14
f 22/49/14 32/48/13 31/50/14
f 22/49/14 31/50/14 21/51/15
f 21/51/15 31/50/14 30/52/15
f 21/51/15 30/52/15 20/53/16
f 20/53/16 30/52/15 29/54/16
f 20/53/16 29/54/16 19/55/17
f 19/55/17 29/54/16 28/56/17
f 19/55/17 28/56/17 18/57/18
f 18/57/18 28/56/17 27/58/18
f 18/57/18 27/58/18 17/59/19
f 17/59/19 27/58/18 26/60/19
f 17/59/19 26/60/19 16/61/20
f 16/61/20 26/60/19 25/62/20
f 16/61/20 25/62/20 15/63/21
f 15/63/21 25/62/20 24/64/21
