# CS2 body mesh, tools/cs2_glb_to_obj.py
v 0.00902 0.10624 0.07334
v 0.00569 0.10595 0.07334
v 0.00902 0.08706 0.07334
v 0.00246 0.10508 0.07334
v 0.01235 0.10595 0.07334
v -0.00057 0.10367 0.07334
v 0.01558 0.10508 0.07334
v -0.0033 0.10175 0.07334
v 0.01861 0.10367 0.07334
v -0.00567 0.09939 0.07334
v 0.02135 0.10175 0.07334
v -0.00759 0.09665 0.07334
v 0.02371 0.09939 0.07334
v -0.009 0.09362 0.07334
v 0.02563 0.09665 0.07334
v -0.00986 0.09039 0.07334
v 0.02704 0.09362 0.07334
v -0.01015 0.08706 0.07334
v 0.02791 0.09039 0.07334
v -0.00986 0.08373 0.07334
v 0.0282 0.08706 0.07334
v -0.009 0.0805 0.07334
v 0.02791 0.08373 0.07334
v -0.00759 0.07747 0.07334
v 0.02704 0.0805 0.07334
v -0.00567 0.07473 0.07334
v 0.02563 0.07747 0.07334
v -0.0033 0.07237 0.07334
v 0.02371 0.07473 0.07334
v -0.00057 0.07045 0.07334
v 0.02135 0.07237 0.07334
v 0.00246 0.06904 0.07334
v 0.01861 0.07045 0.07334
v 0.00569 0.06818 0.07334
v 0.01558 0.06904 0.07334
v 0.00902 0.06788 0.07334
v 0.01235 0.06818 0.07334
v -0.00427 0.08222 -0.1895
v 0.0018 0.08443 -0.19129
v -0.00323 0.07999 -0.1895
v 0.00237 0.08322 -0.19129
v -0.00181 0.07797 -0.1895
v 0.00145 0.08573 -0.19129
v -0.00491 0.08461 -0.1895
v 0.00902 0.08706 -0.19198
v 0.00314 0.08212 -0.19129
v -0.00007 0.07622 -0.1895
v 0.00134 0.08706 -0.19129
v -0.00512 0.08706 -0.1895
v 0.00408 0.08118 -0.19129
v 0.00195 0.07481 -0.1895
v 0.00146 0.0884 -0.19129
v -0.00491 0.08952 -0.1895
v 0.00518 0.08041 -0.19129
v 0.00418 0.07377 -0.1895
v 0.0018 0.08969 -0.19129
v -0.00427 0.0919 -0.1895
v 0.00639 0.07984 -0.19129
v 0.00657 0.07313 -0.1895
v 0.00237 0.09091 -0.19129
v -0.00323 0.09414 -0.1895
v 0.00769 0.07949 -0.19129
v 0.00902 0.07292 -0.1895
v 0.00314 0.092 -0.19129
v -0.00181 0.09616 -0.1895
v 0.00902 0.07938 -0.19129
v 0.01148 0.07313 -0.1895
v 0.00408 0.09295 -0.19129
v -0.00007 0.0979 -0.1895
v 0.01036 0.07949 -0.19129
v 0.01386 0.07377 -0.1895
v 0.00518 0.09372 -0.19129
v 0.00195 0.09931 -0.1895
v 0.01165 0.07984 -0.19129
v 0.0161 0.07481 -0.1895
v 0.0064 0.09428 -0.19129
v 0.00418 0.10036 -0.1895
v 0.01286 0.08041 -0.19129
v 0.01812 0.07623 -0.1895
v 0.00769 0.09463 -0.19129
v 0.00657 0.10099 -0.1895
v 0.01396 0.08117 -0.19129
v 0.01986 0.07797 -0.1895
v 0.01491 0.08212 -0.19129
v 0.01568 0.08322 -0.19129
v 0.01624 0.08443 -0.19129
v 0.01659 0.08573 -0.19129
v 0.01671 0.08706 -0.19129
v 0.01659 0.0884 -0.19129
v 0.01625 0.08969 -0.19129
v 0.01568 0.0909 -0.19129
v 0.01491 0.092 -0.19129
v 0.01812 0.0979 -0.1895
v 0.01986 0.09616 -0.1895
v 0.01396 0.09295 -0.19129
v 0.0161 0.09931 -0.1895
v 0.01287 0.09372 -0.19129
v 0.01386 0.10036 -0.1895
v 0.01165 0.09428 -0.19129
v 0.01148 0.10099 -0.1895
v 0.01036 0.09463 -0.19129
v 0.00902 0.10121 -0.1895
v 0.00902 0.09475 -0.19129
v 0.02127 0.09414 -0.1895
v 0.02232 0.0919 -0.1895
v 0.02295 0.08952 -0.1895
v 0.02317 0.08706 -0.1895
v 0.02295 0.08461 -0.1895
v 0.02232 0.08222 -0.1895
v 0.02127 0.07999 -0.1895
vt 1.499023 0.001106
vt 1.413086 0.008652
vt 1.499023 0.497803
vt 1.329102 0.031067
vt 1.584961 0.008652
vt 1.25 0.067627
vt 1.668945 0.031067
vt 1.179688 0.11731
vt 1.748047 0.067627
vt 1.118164 0.178589
vt 1.818359 0.11731
vt 1.068359 0.249512
vt 1.879883 0.178589
vt 1.032227 0.327881
vt 1.929688 0.249512
vt 1.009766 0.411621
vt 1.96582 0.327881
vt 1.001953 0.497803
vt 1.988281 0.411621
vt 1.009766 0.583984
vt 1.996094 0.497803
vt 1.032227 0.667969
vt 1.988281 0.583984
vt 1.068359 0.746094
vt 1.96582 0.667969
vt 1.118164 0.817383
vt 1.929688 0.746094
vt 1.179688 0.878418
vt 1.879883 0.817383
vt 1.25 0.928223
vt 1.818359 0.878418
vt 1.329102 0.964844
vt 1.748047 0.928223
vt 1.413086 0.987305
vt 1.668945 0.964844
vt 1.499023 0.994629
vt 1.584961 0.987305
vt 1.032227 0.666016
vt 1.243164 0.588867
vt 1.068359 0.744141
vt 1.263672 0.631348
vt 1.118164 0.814941
vt 1.231445 0.543457
vt 1.009766 0.583008
vt 1.495117 0.497314
vt 1.290039 0.669922
vt 1.178711 0.875977
vt 1.227539 0.49707
vt 1.001953 0.497314
vt 1.323242 0.702637
vt 1.249023 0.925293
vt 1.231445 0.450439
vt 1.009766 0.411377
vt 1.361328 0.729492
vt 1.326172 0.961914
vt 1.243164 0.405273
vt 1.032227 0.328125
vt 1.40332 0.749512
vt 1.40918 0.983887
vt 1.263672 0.362793
vt 1.068359 0.25
vt 1.448242 0.761719
vt 1.495117 0.991699
vt 1.290039 0.324463
vt 1.118164 0.179443
vt 1.495117 0.765625
vt 1.581055 0.983887
vt 1.323242 0.291504
vt 1.178711 0.11853
vt 1.541992 0.761719
vt 1.664062 0.961914
vt 1.361328 0.264648
vt 1.249023 0.069092
vt 1.586914 0.749512
vt 1.741211 0.925293
vt 1.40332 0.244873
vt 1.326172 0.032684
vt 1.628906 0.729492
vt 1.811523 0.875977
vt 1.448242 0.232788
vt 1.40918 0.010376
vt 1.666992 0.702637
vt 1.87207 0.814941
vt 1.700195 0.669922
vt 1.726562 0.631348
vt 1.74707 0.588867
vt 1.758789 0.543945
vt 1.762695 0.497314
vt 1.758789 0.450684
vt 1.74707 0.405273
vt 1.726562 0.363037
vt 1.700195 0.324463
vt 1.811523 0.11853
vt 1.87207 0.179443
vt 1.666992 0.291504
vt 1.741211 0.069092
vt 1.628906 0.264648
vt 1.664062 0.032684
vt 1.586914 0.244873
vt 1.581055 0.010376
vt 1.541992 0.232788
vt 1.495117 0.002871
vt 1.495117 0.228638
vt 1.921875 0.25
vt 1.958008 0.328125
vt 1.980469 0.411377
vt 1.988281 0.497314
vt 1.980469 0.583008
vt 1.958008 0.666016
vt 1.921875 0.744141
vn -0.0159 -0.001 0.9999
vn -0.0161 -0.0151 0.9998
vn 0.001 0.0149 0.9999
vn -0.0151 0.0171 0.9997
vn 0 -0.001 1
vn -0.2724 -0.0835 -0.9586
vn -0.1764 -0.0785 -0.9812
vn -0.2342 -0.1513 -0.9604
vn -0.2134 -0.1726 -0.9616
vn -0.1919 -0.0391 -0.9806
vn -0.2669 -0.0592 -0.9619
vn 0 -0.0169 -0.9999
vn -0.16 -0.1194 -0.9799
vn -0.1924 -0.1937 -0.962
vn -0.1827 -0.0173 -0.983
vn -0.2695 -0.0208 -0.9628
vn -0.1206 -0.1588 -0.9799
vn -0.15 -0.2355 -0.9602
vn -0.1894 0.0174 -0.9817
vn -0.2612 0.0409 -0.9644
vn -0.0992 -0.1561 -0.9827
vn -0.1058 -0.2515 -0.9621
vn -0.1743 0.0557 -0.9831
vn -0.266 0.0618 -0.962
vn -0.0773 -0.1776 -0.9811
vn -0.0604 -0.2657 -0.9622
vn -0.2312 0.1253 -0.9648
vn -0.0379 -0.193 -0.9805
vn -0.0194 -0.2562 -0.9664
vn -0.1563 0.1006 -0.9826
vn -0.2109 0.1462 -0.9665
vn -0.0183 -0.1685 -0.9855
vn 0.0401 -0.2846 -0.9578
vn -0.1176 0.1394 -0.9832
vn -0.1904 0.1671 -0.9674
vn 0.0189 -0.2113 -0.9772
vn 0.0822 -0.2736 -0.9583
vn -0.0964 0.1344 -0.9862
vn -0.1462 0.2109 -0.9665
vn 0.0579 -0.1965 -0.9788
vn 0.1286 -0.2559 -0.9581
vn -0.0772 0.1533 -0.9852
vn -0.1028 0.2272 -0.9684
vn 0.0773 -0.1776 -0.9811
vn 0.1712 -0.2147 -0.9616
vn -0.0385 0.169 -0.9849
vn -0.0609 0.2424 -0.9683
vn 0.1008 -0.1783 -0.9788
vn 0.1924 -0.1937 -0.962
vn 0.1404 -0.1392 -0.9803
vn 0.1573 -0.098 -0.9827
vn 0.1734 -0.0582 -0.9831
vn 0.1673 -0.0195 -0.9857
vn 0.1713 0.0361 -0.9846
vn 0.1533 0.0772 -0.9852
vn 0.137 0.12 -0.9833
vn 0.1671 0.1904 -0.9674
vn 0.1904 0.1671 -0.9674
vn 0.0981 0.1587 -0.9824
vn 0.1253 0.2312 -0.9648
vn 0.0772 0.1533 -0.9852
vn 0.0823 0.2468 -0.9656
vn 0.0581 0.172 -0.9834
vn 0.0409 0.2612 -0.9644
vn 0.0198 0.1871 -0.9821
vn -0.0012 0.2518 -0.9678
vn -0.0011 0.1631 -0.9866
vn 0.2109 0.1462 -0.9665
vn 0.2468 0.0823 -0.9656
vn 0.2424 0.0609 -0.9683
vn 0.2573 -0.0182 -0.9662
vn 0.2453 -0.0822 -0.966
vn 0.2502 -0.1071 -0.9622
vn 0.2134 -0.1726 -0.9616
o weapon_offset__p2_c0
f 1/1/1 2/2/1 3/3/2
f 3/3/2 2/2/1 4/4/1
f 1/1/1 3/3/2 5/5/3
f 3/3/2 4/4/1 6/6/1
f 5/5/3 3/3/2 7/7/3
f 3/3/2 6/6/1 8/8/1
f 7/7/3 3/3/2 9/9/3
f 3/3/2 8/8/1 10/10/1
f 9/9/3 3/3/2 11/11/3
f 3/3/2 10/10/1 12/12/1
f 11/11/3 3/3/2 13/13/3
f 3/3/2 12/12/1 14/14/1
f 13/13/3 3/3/2 15/15/3
f 3/3/2 14/14/1 16/16/1
f 15/15/3 3/3/2 17/17/3
f 3/3/2 16/16/1 18/18/1
f 17/17/3 3/3/2 19/19/3
f 3/3/2 18/18/1 20/20/4
f 19/19/3 3/3/2 21/21/3
f 3/3/2 20/20/4 22/22/4
f 21/21/3 3/3/2 23/23/5
f 3/3/2 22/22/4 24/24/4
f 23/23/5 3/3/2 25/25/5
f 3/3/2 24/24/4 26/26/4
f 25/25/5 3/3/2 27/27/5
f 3/3/2 26/26/4 28/28/4
f 27/27/5 3/3/2 29/29/5
f 3/3/2 28/28/4 30/30/4
f 29/29/5 3/3/2 31/31/5
f 3/3/2 30/30/4 32/32/4
f 31/31/5 3/3/2 33/33/5
f 3/3/2 32/32/4 34/34/4
f 33/33/5 3/3/2 35/35/5
f 3/3/2 34/34/4 36/36/4
f 35/35/5 3/3/2 37/37/5
f 37/37/5 3/3/2 36/36/4
f 38/38/6 39/39/7 40/40/8
f 40/40/8 39/39/7 41/41/7
f 40/40/8 41/41/7 42/42/9
f 39/39/7 38/38/6 43/43/10
f 43/43/10 38/38/6 44/44/11
f 41/41/7 39/39/7 45/45/12
f 45/45/12 39/39/7 43/43/10
f 42/42/9 41/41/7 46/46/13
f 46/46/13 41/41/7 45/45/12
f 42/42/9 46/46/13 47/47/14
f 43/43/10 44/44/11 48/48/15
f 43/43/10 48/48/15 45/45/12
f 48/48/15 44/44/11 49/49/16
f 47/47/14 46/46/13 50/50/17
f 50/50/17 46/46/13 45/45/12
f 47/47/14 50/50/17 51/51/18
f 48/48/15 49/49/16 52/52/19
f 48/48/15 52/52/19 45/45/12
f 52/52/19 49/49/16 53/53/20
f 51/51/18 50/50/17 54/54/21
f 54/54/21 50/50/17 45/45/12
f 51/51/18 54/54/21 55/55/22
f 52/52/19 53/53/20 56/56/23
f 52/52/19 56/56/23 45/45/12
f 56/56/23 53/53/20 57/57/24
f 55/55/22 54/54/21 58/58/25
f 58/58/25 54/54/21 45/45/12
f 55/55/22 58/58/25 59/59/26
f 56/56/23 57/57/24 60/60/23
f 56/56/23 60/60/23 45/45/12
f 60/60/23 57/57/24 61/61/27
f 59/59/26 58/58/25 62/62/28
f 62/62/28 58/58/25 45/45/12
f 59/59/26 62/62/28 63/63/29
f 60/60/23 61/61/27 64/64/30
f 60/60/23 64/64/30 45/45/12
f 64/64/30 61/61/27 65/65/31
f 63/63/29 62/62/28 66/66/32
f 66/66/32 62/62/28 45/45/12
f 63/63/29 66/66/32 67/67/33
f 64/64/30 65/65/31 68/68/34
f 64/64/30 68/68/34 45/45/12
f 68/68/34 65/65/31 69/69/35
f 67/67/33 66/66/32 70/70/36
f 70/70/36 66/66/32 45/45/12
f 67/67/33 70/70/36 71/71/37
f 68/68/34 69/69/35 72/72/38
f 68/68/34 72/72/38 45/45/12
f 72/72/38 69/69/35 73/73/39
f 71/71/37 70/70/36 74/74/40
f 74/74/40 70/70/36 45/45/12
f 71/71/37 74/74/40 75/75/41
f 72/72/38 73/73/39 76/76/42
f 72/72/38 76/76/42 45/45/12
f 76/76/42 73/73/39 77/77/43
f 75/75/41 74/74/40 78/78/44
f 78/78/44 74/74/40 45/45/12
f 75/75/41 78/78/44 79/79/45
f 76/76/42 77/77/43 80/80/46
f 76/76/42 80/80/46 45/45/12
f 80/80/46 77/77/43 81/81/47
f 79/79/45 78/78/44 82/82/48
f 82/82/48 78/78/44 45/45/12
f 79/79/45 82/82/48 83/83/49
f 83/83/49 82/82/48 84/84/50
f 84/84/50 82/82/48 45/45/12
f 84/84/50 45/45/12 85/85/51
f 85/85/51 45/45/12 86/86/51
f 86/86/51 45/45/12 87/87/52
f 87/87/52 45/45/12 88/88/53
f 88/88/53 45/45/12 89/89/54
f 89/89/54 45/45/12 90/90/55
f 90/90/55 45/45/12 91/91/55
f 91/91/55 45/45/12 92/92/56
f 93/93/57 94/94/58 92/92/56
f 93/93/57 92/92/56 95/95/59
f 95/95/59 92/92/56 45/45/12
f 93/93/57 95/95/59 96/96/60
f 96/96/60 95/95/59 97/97/61
f 97/97/61 95/95/59 45/45/12
f 96/96/60 97/97/61 98/98/62
f 98/98/62 97/97/61 99/99/63
f 99/99/63 97/97/61 45/45/12
f 98/98/62 99/99/63 100/100/64
f 100/100/64 99/99/63 101/101/65
f 101/101/65 99/99/63 45/45/12
f 100/100/64 101/101/65 102/102/66
f 101/101/65 45/45/12 103/103/67
f 101/101/65 103/103/67 102/102/66
f 103/103/67 45/45/12 80/80/46
f 102/102/66 103/103/67 81/81/47
f 81/81/47 103/103/67 80/80/46
f 92/92/56 94/94/58 91/91/55
f 91/91/55 94/94/58 104/104/68
f 91/91/55 104/104/68 90/90/55
f 90/90/55 104/104/68 105/105/69
f 90/90/55 105/105/69 89/89/54
f 89/89/54 105/105/69 106/106/70
f 89/89/54 106/106/70 88/88/53
f 88/88/53 106/106/70 107/107/71
f 88/88/53 107/107/71 87/87/52
f 87/87/52 107/107/71 108/108/72
f 87/87/52 108/108/72 86/86/51
f 86/86/51 108/108/72 109/109/73
f 86/86/51 109/109/73 85/85/51
f 85/85/51 109/109/73 110/110/74
f 85/85/51 110/110/74 84/84/50
f 84/84/50 110/110/74 83/83/49
