# CS2 body mesh, tools/cs2_glb_to_obj.py
v 0.00956 0.03998 -0.17065
v 0.00899 0.03974 -0.17065
v 0.00899 0.04054 -0.17087
v 0.00843 0.03998 -0.17065
v 0.00899 0.03937 -0.17028
v 0.00816 0.03971 -0.17028
v 0.00819 0.04054 -0.17065
v 0.00782 0.04054 -0.17028
v 0.00843 0.04111 -0.17065
v 0.00816 0.04137 -0.17028
v 0.00899 0.04134 -0.17065
v 0.00956 0.04111 -0.17065
v 0.00899 0.04171 -0.17028
v 0.00979 0.04054 -0.17065
v 0.01016 0.04054 -0.17028
v 0.00982 0.04137 -0.17028
v 0.00982 0.03971 -0.17028
v -0.01662 0.02291 -0.1278
v -0.02298 0.01234 -0.13439
v -0.01904 0.02573 -0.12968
v -0.02508 0.01592 -0.13675
v -0.01525 0.0244 -0.12732
v -0.01686 0.02795 -0.12888
v -0.03016 0.00133 -0.13456
v -0.03029 0.0036 -0.13245
v -0.03306 0.00266 -0.13346
v -0.03304 0.00517 -0.13198
v -0.03279 0.00083 -0.13572
v -0.03072 -0.00004 -0.13758
v -0.0277 0.00096 -0.13659
v -0.03541 0.0021 -0.13581
v -0.03561 0.00459 -0.1336
v -0.03538 0.00751 -0.13262
v -0.03274 0.00803 -0.13148
v -0.03741 0.00703 -0.13465
v -0.03666 0.01 -0.13419
v -0.03743 0.00413 -0.13636
v -0.03397 0.00043 -0.13835
v -0.0366 0.00216 -0.13892
v -0.03829 0.0095 -0.13677
v -0.03702 0.01211 -0.13657
v -0.03857 0.00664 -0.13729
v -0.03832 0.0048 -0.13954
v -0.03611 0.01375 -0.13937
v -0.03493 0.01413 -0.13673
v -0.03885 0.00812 -0.13979
v -0.03802 0.01132 -0.13939
v -0.0366 0.01256 -0.14198
v -0.03418 0.01449 -0.14182
v -0.03807 0.00954 -0.14221
v -0.03805 0.00621 -0.14241
v -0.03707 0.00335 -0.14174
v -0.03425 0.01276 -0.14439
v -0.03172 0.01412 -0.14385
v -0.03632 0.01072 -0.14422
v -0.03662 0.00787 -0.14475
v -0.03616 0.005 -0.14453
v -0.03426 0.00985 -0.1461
v -0.03419 0.00653 -0.14636
v -0.035 0.0025 -0.1436
v -0.03327 0.00367 -0.14563
v -0.0316 0.01185 -0.14596
v -0.02883 0.01279 -0.14494
v -0.0291 0.01462 -0.14269
v -0.02884 0.01028 -0.14643
v -0.03176 0.00871 -0.14704
v -0.02914 0.00743 -0.14693
v -0.03122 0.00539 -0.14679
v -0.02798 0.00492 -0.14602
v -0.03035 0.00268 -0.14531
v -0.03239 0.00121 -0.14351
v -0.02958 0.00079 -0.14284
v -0.03474 0.00101 -0.1411
v -0.03185 -0.00002 -0.14072
v -0.02869 0.00012 -0.13966
v -0.02556 0.00473 -0.13419
v -0.02764 0.0027 -0.13402
v -0.02529 0.00289 -0.13643
v -0.02577 0.0017 -0.13904
v -0.02386 0.00413 -0.13902
v -0.02487 0.00334 -0.14184
v -0.02696 0.00132 -0.14168
v -0.02359 0.00596 -0.14164
v -0.02722 0.00278 -0.14418
v -0.02522 0.00545 -0.14422
v -0.02447 0.00842 -0.14376
v -0.02331 0.00881 -0.14112
v -0.02651 0.00794 -0.14579
v -0.02627 0.01086 -0.14481
v -0.02393 0.01138 -0.13204
v -0.02509 0.00988 -0.1333
v -0.02289 0.01219 -0.13396
v -0.02405 0.0107 -0.13522
v -0.0227 0.01359 -0.13581
v -0.02416 0.01011 -0.1356
v -0.02528 0.00924 -0.13354
v -0.02704 0.01045 -0.13217
v -0.02737 0.00984 -0.13232
v -0.02396 0.01162 -0.13758
v -0.02386 0.0121 -0.13707
v -0.02401 0.01532 -0.13665
v -0.02537 0.01347 -0.1385
v -0.02517 0.01383 -0.13791
v -0.02585 0.01675 -0.13667
v -0.02734 0.01501 -0.1385
v -0.02701 0.01526 -0.13792
v -0.02115 0.02672 -0.12729
v -0.02821 0.01667 -0.13475
v -0.02114 0.02587 -0.12502
v -0.02895 0.01535 -0.13247
v -0.01871 0.02346 -0.12426
v -0.0265 0.01243 -0.13121
v -0.018 0.02959 -0.12619
v -0.01784 0.02875 -0.12393
v -0.01631 0.02562 -0.1235
v -0.01396 0.03246 -0.12595
v -0.01108 0.0269 -0.1292
v -0.01341 0.03153 -0.1292
v -0.00372 0.02922 -0.13003
v -0.00729 0.03629 -0.13003
v 0.0022 0.03217 -0.13047
v -0.00136 0.03925 -0.13047
v -0.00729 0.03629 -0.1217
v -0.00136 0.03925 -0.12126
v -0.00372 0.02922 -0.1217
v 0.0022 0.03217 -0.12126
v -0.01354 0.03146 -0.12269
v -0.0112 0.02683 -0.12269
v -0.01069 0.02598 -0.12595
v 0.00899 0.04171 -0.16635
v 0.00982 0.04137 -0.16635
v 0.01016 0.04054 -0.16635
v 0.00982 0.03971 -0.16635
v 0.00899 0.03937 -0.16635
v 0.00816 0.03971 -0.16635
v 0.00782 0.04054 -0.16635
v 0.00816 0.04137 -0.16635
v -0.02769 0.017 -0.13527
v -0.02885 0.01551 -0.13652
v -0.02902 0.01649 -0.13343
v -0.02932 0.01528 -0.13701
v -0.03074 0.01473 -0.13502
v -0.03017 0.01499 -0.13468
v -0.02884 0.01492 -0.13172
v -0.03056 0.01304 -0.13319
v -0.03 0.01342 -0.13297
v -0.02783 0.01317 -0.13057
v -0.02947 0.01116 -0.13196
v -0.02899 0.01167 -0.13183
v -0.02588 0.01194 -0.13091
v -0.03004 0.01547 -0.13769
v -0.02982 0.01533 -0.13749
v -0.02759 0.01502 -0.13919
v -0.02528 0.01329 -0.13949
v -0.02537 0.01329 -0.13917
v -0.02792 0.01502 -0.14006
v -0.02378 0.0112 -0.13815
v -0.02648 0.01335 -0.1426
v -0.02446 0.01132 -0.14205
v -0.02357 0.01065 -0.13887
v -0.02383 0.00924 -0.136
v -0.02401 0.0095 -0.13591
v -0.02303 0.00733 -0.13862
v -0.02526 0.00851 -0.13358
v -0.02382 0.00591 -0.1362
v -0.02526 0.00758 -0.13366
v -0.0277 0.00892 -0.13205
v -0.02763 0.0092 -0.13221
v -0.02999 0.01068 -0.1318
v -0.02762 0.0056 -0.13231
v -0.03013 0.00674 -0.13137
v -0.03122 0.0128 -0.13319
v -0.03143 0.0147 -0.13526
v -0.03391 0.01054 -0.13239
v -0.03467 0.01267 -0.13423
v -0.03153 0.01277 -0.1331
v -0.03066 0.01006 -0.13162
v -0.03231 0.01466 -0.13557
v -0.0332 0.01533 -0.13875
v -0.03116 0.0155 -0.14083
v -0.02572 0.01446 -0.13355
vt 0.405029 0.605957
vt 0.40625 0.60498
vt 0.404297 0.603516
vt 0.406494 0.603027
vt 0.407471 0.605469
vt 0.407715 0.602539
vt 0.405273 0.602051
vt 0.405762 0.600586
vt 0.403564 0.601562
vt 0.403076 0.600586
vt 0.402588 0.603027
vt 0.402344 0.604492
vt 0.401123 0.602051
vt 0.403564 0.605957
vt 0.402832 0.606934
vt 0.401123 0.60498
vt 0.405518 0.606934
vt 0.683594 0.523926
vt 0.686523 0.505859
vt 0.678223 0.523926
vt 0.680664 0.505859
vt 0.683594 0.526367
vt 0.678223 0.52832
vt 0.719238 0.529297
vt 0.723145 0.530762
vt 0.723633 0.526855
vt 0.727051 0.526855
vt 0.720215 0.525879
vt 0.716797 0.526855
vt 0.714844 0.529785
vt 0.722168 0.523438
vt 0.726074 0.522949
vt 0.729492 0.520996
vt 0.730469 0.524902
vt 0.727051 0.518555
vt 0.729492 0.515625
vt 0.723633 0.52002
vt 0.71875 0.523438
vt 0.720215 0.520508
vt 0.726074 0.513672
vt 0.727051 0.510254
vt 0.724121 0.516602
vt 0.721191 0.517578
vt 0.722168 0.506348
vt 0.726074 0.506348
vt 0.722168 0.513672
vt 0.723145 0.510254
vt 0.71875 0.507812
vt 0.716797 0.504883
vt 0.719727 0.511719
vt 0.71875 0.515137
vt 0.71875 0.518066
vt 0.714355 0.507812
vt 0.710938 0.505859
vt 0.716309 0.510254
vt 0.716309 0.513184
vt 0.71582 0.515625
vt 0.713379 0.51123
vt 0.713379 0.514648
vt 0.71582 0.518555
vt 0.712891 0.517578
vt 0.709961 0.509277
vt 0.706055 0.508789
vt 0.70752 0.505371
vt 0.706543 0.512695
vt 0.710449 0.513184
vt 0.708008 0.515625
vt 0.710449 0.516602
vt 0.70752 0.519043
vt 0.710938 0.52002
vt 0.713867 0.520996
vt 0.711914 0.522949
vt 0.717285 0.521484
vt 0.715332 0.523438
vt 0.713379 0.526367
vt 0.714355 0.534668
vt 0.717773 0.532715
vt 0.711914 0.532227
vt 0.710449 0.528809
vt 0.706543 0.529297
vt 0.707031 0.525391
vt 0.710449 0.525391
vt 0.703125 0.524902
vt 0.708496 0.522461
vt 0.705078 0.521484
vt 0.70166 0.519043
vt 0.700195 0.522461
vt 0.70459 0.51709
vt 0.702637 0.513672
vt 0.740723 0.530762
vt 0.743164 0.530762
vt 0.740723 0.527832
vt 0.743652 0.52832
vt 0.741211 0.525391
vt 0.744141 0.52832
vt 0.743652 0.53125
vt 0.742676 0.533691
vt 0.743164 0.533691
vt 0.744629 0.525879
vt 0.743652 0.525879
vt 0.741211 0.522949
vt 0.744629 0.522949
vt 0.743652 0.522949
vt 0.741699 0.520508
vt 0.744629 0.520508
vt 0.744141 0.520508
vt 0.672852 0.523926
vt 0.674805 0.504395
vt 0.669922 0.523926
vt 0.67041 0.503906
vt 0.664551 0.524414
vt 0.664062 0.503906
vt 0.67334 0.529785
vt 0.669922 0.529785
vt 0.664551 0.528809
vt 0.673828 0.536133
vt 0.685547 0.532715
vt 0.678711 0.535156
vt 0.690918 0.541992
vt 0.680664 0.54541
vt 0.693359 0.550293
vt 0.682617 0.554199
vt 0.669434 0.546875
vt 0.669434 0.555664
vt 0.65918 0.54541
vt 0.657227 0.554199
vt 0.668945 0.536621
vt 0.662109 0.535156
vt 0.657227 0.533691
vt 0.393311 0.604492
vt 0.382568 0.604492
vt 0.393311 0.606934
vt 0.382568 0.606934
vt 0.393311 0.609375
vt 0.382568 0.609375
vt 0.393311 0.611816
vt 0.382568 0.611816
vt 0.393311 0.614258
vt 0.382568 0.614258
vt 0.393311 0.594727
vt 0.382568 0.594727
vt 0.393311 0.597168
vt 0.382568 0.597168
vt 0.393311 0.599609
vt 0.382568 0.599609
vt 0.393311 0.602051
vt 0.382568 0.602051
vt 0.741699 0.518066
vt 0.744141 0.518066
vt 0.741699 0.515137
vt 0.744629 0.517578
vt 0.744629 0.515137
vt 0.744141 0.515137
vt 0.741211 0.512695
vt 0.744629 0.512695
vt 0.743652 0.512695
vt 0.740723 0.510254
vt 0.744141 0.509766
vt 0.743652 0.509766
vt 0.740723 0.507812
vt 0.743652 0.507324
vt 0.743164 0.507324
vt 0.658691 0.524414
vt 0.656738 0.505371
vt 0.658203 0.526855
vt 0.653809 0.532227
vt 0.648438 0.541992
vt 0.645508 0.550781
vt -0.286377 0.51416
vt -0.286133 0.514648
vt -0.282959 0.513672
vt -0.280029 0.514648
vt -0.280273 0.515137
vt -0.282959 0.512695
vt -0.278564 0.517578
vt -0.279053 0.510254
vt -0.282715 0.508301
vt -0.279541 0.505371
vt -0.274414 0.508301
vt -0.275879 0.513184
vt -0.270996 0.513184
vt -0.273438 0.516602
vt -0.277344 0.517578
vt -0.278564 0.520996
vt -0.278809 0.520996
vt -0.27417 0.520996
vt -0.269531 0.518555
vt -0.280762 0.523438
vt -0.270752 0.524414
vt -0.275635 0.524414
vt -0.27417 0.529297
vt -0.27832 0.527832
vt -0.280273 0.524414
vt -0.28418 0.524414
vt -0.28418 0.523926
vt -0.287109 0.522949
vt -0.282471 0.528809
vt -0.286621 0.52832
vt -0.279297 0.532227
vt -0.284912 0.532715
vt -0.286377 0.522461
vt -0.287842 0.52002
vt -0.288574 0.52002
vt -0.287598 0.51709
vt -0.28833 0.51709
vt -0.285889 0.515137
vt -0.283203 0.514648
vt -0.290771 0.526855
vt -0.29248 0.522949
vt -0.295166 0.527344
vt -0.297363 0.521973
vt -0.293457 0.519043
vt -0.297607 0.516113
vt -0.293457 0.514648
vt -0.288818 0.52002
vt -0.287842 0.523926
vt -0.290527 0.53125
vt -0.289551 0.516113
vt -0.290283 0.511719
vt -0.295166 0.510742
vt -0.290771 0.506836
vt -0.286865 0.509766
vt -0.2854 0.504883
vt 0.723633 0.550293
vt 0.725098 0.552734
vt 0.727539 0.549316
vt 0.727539 0.553223
vt 0.725098 0.545898
vt 0.723145 0.547852
vt 0.730469 0.552734
vt 0.731934 0.550781
vt -0.28125 0.522461
vt -0.279541 0.520508
vt -0.283936 0.522949
vt -0.279297 0.518066
vt -0.280762 0.515625
vt 0.727539 0.544434
vt 0.72998 0.545898
vt 0.731934 0.547852
vt 0.740234 0.533203
vn 0.383 -0.3814 -0.8413
vn -0.0219 -0.5326 -0.8461
vn -0.0161 -0.0151 -0.9998
vn -0.4126 -0.3856 -0.8252
vn -0.0205 -0.9353 -0.3532
vn -0.6641 -0.6624 -0.3467
vn -0.5487 0.0014 -0.836
vn -0.9308 -0.0193 -0.3651
vn -0.3766 0.3518 -0.857
vn -0.6672 0.6442 -0.374
vn 0.0013 0.5236 -0.852
vn 0.3518 0.3766 -0.857
vn 0.0013 0.9279 -0.3729
vn 0.5236 0.0013 -0.852
vn 0.9285 -0.0013 -0.3714
vn 0.6408 0.6705 -0.3739
vn 0.6375 -0.6881 -0.3465
vn 0.7887 -0.59 -0.1729
vn 0.872 -0.4811 -0.0903
vn 0.0901 0.4281 -0.8992
vn 0.2725 0.4187 -0.8663
vn 0.4674 -0.8052 -0.365
vn -0.2323 0.3007 -0.925
vn 0.0929 -0.8026 0.5892
vn 0.0677 -0.5288 0.8461
vn -0.2848 -0.6256 0.7263
vn -0.2574 -0.3051 0.9169
vn -0.2455 -0.8624 0.4426
vn 0.0189 -0.9775 0.2099
vn 0.403 -0.8541 0.3286
vn -0.5968 -0.6752 0.4335
vn -0.6097 -0.344 0.7141
vn -0.5487 0.0014 0.836
vn -0.238 0.0403 0.9704
vn -0.8115 -0.07 0.5801
vn -0.7282 0.2865 0.6226
vn -0.8242 -0.4359 0.3614
vn -0.4076 -0.906 0.1145
vn -0.7184 -0.6942 0.0456
vn -0.9327 0.2062 0.2959
vn -0.7784 0.545 0.3117
vn -0.9622 -0.1071 0.2502
vn -0.9249 -0.3796 -0.0207
vn -0.6606 0.7504 -0.0238
vn -0.516 0.7987 0.3096
vn -0.9954 0.0361 -0.0887
vn -0.9098 0.4128 -0.0441
vn -0.7201 0.5856 -0.3723
vn -0.4339 0.8381 -0.3305
vn -0.9006 0.2146 -0.378
vn -0.9049 -0.1613 -0.3939
vn -0.7794 -0.5446 -0.3098
vn -0.4317 0.5983 -0.675
vn -0.1196 0.7927 -0.5978
vn -0.691 0.3447 -0.6354
vn -0.7181 0.0014 -0.696
vn -0.6637 -0.3449 -0.6637
vn -0.4153 0.2414 -0.8771
vn -0.4143 -0.1376 -0.8996
vn -0.5186 -0.6584 -0.5455
vn -0.3078 -0.5156 -0.7996
vn -0.0926 0.5085 -0.8561
vn 0.2585 0.6423 -0.7216
vn 0.2198 0.8717 -0.4381
vn 0.2356 0.3281 -0.9148
vn -0.1154 0.1154 -0.9866
vn 0.2178 -0.06 -0.9741
vn -0.0407 -0.3118 -0.9493
vn 0.3577 -0.4063 -0.8408
vn 0.0693 -0.6569 -0.7508
vn -0.198 -0.8146 -0.5451
vn 0.1665 -0.8775 -0.4497
vn -0.4929 -0.8413 -0.2221
vn -0.1227 -0.9755 -0.1828
vn 0.2624 -0.9641 -0.0396
vn 0.6688 -0.374 0.6425
vn 0.4047 -0.6187 0.6734
vn 0.6945 -0.6139 0.3752
vn 0.6344 -0.7727 0.0224
vn 0.8979 -0.4381 0.0431
vn 0.7551 -0.5768 -0.3117
vn 0.4846 -0.8197 -0.3052
vn 0.9254 -0.2292 -0.3018
vn 0.4631 -0.6259 -0.6275
vn 0.7087 -0.3155 -0.631
vn 0.8032 0.0944 -0.5882
vn 0.9584 0.1272 -0.2557
vn 0.5332 0.0233 -0.8457
vn 0.5856 0.3723 -0.7201
vn 0.481 -0.7496 0.4547
vn 0.5752 -0.6073 0.5481
vn 0.811 -0.5811 -0.0685
vn 0.8154 -0.1962 -0.5446
vn 0.9586 -0.0835 0.2724
vn 0.7046 -0.2033 0.6798
vn 0.0903 -0.4811 0.872
vn 0.2823 -0.1291 0.9506
vn 0.9554 0.2758 -0.1059
vn 0.9105 -0.0441 -0.4112
vn 0.4868 0.3072 -0.8177
vn 0.6958 0.6136 -0.3734
vn 0.5906 0.402 -0.6997
vn 0.0014 0.6228 -0.7823
vn 0.31 0.9065 -0.2865
vn 0.0952 0.76 -0.6429
vn -0.6896 0.6864 -0.2309
vn -0.6853 0.6562 -0.3159
vn -0.7102 0.3155 0.6293
vn -0.8151 0.1996 0.5439
vn 0.0216 -0.4813 0.8763
vn 0 -0.523 0.8523
vn -0.6528 0.7479 -0.1204
vn -0.5376 0.4284 0.7262
vn -0.6074 0.7912 -0.0704
vn 0.1476 -0.6341 -0.7591
vn -0.4393 0.36 -0.8231
vn 0.2292 -0.6891 -0.6875
vn -0.4303 0.5665 -0.7028
vn 0.2571 -0.6713 -0.6951
vn -0.3708 0.557 -0.7432
vn -0.4303 0.5665 0.7028
vn -0.3723 0.5856 0.7201
vn 0.2016 -0.6809 0.7041
vn 0.2568 -0.6451 0.7196
vn -0.4528 0.4496 0.77
vn 0.0451 -0.5967 0.8012
vn 0.316 -0.9467 0.0622
vn 0.001 1 -0.001
vn 0.696 0.7181 -0.0014
vn 0.9999 -0.001 0.0159
vn 0.7076 -0.7062 0.0225
vn -0.0161 -0.9997 0.0161
vn -0.7188 -0.6953 0
vn -1 -0.001 0
vn -0.7181 0.696 0.0014
vn -0.5127 0.7251 -0.4596
vn -0.4009 0.8559 -0.3266
vn -0.8307 0.5524 0.0696
vn -0.1299 0.9899 -0.0563
vn -0.3518 0.857 0.3766
vn -0.6964 0.6964 0.173
vn -0.828 0.1692 0.5345
vn -0.3986 0.5331 0.7463
vn -0.5076 -0.2804 0.8147
vn -0.0997 0.1809 0.9784
vn -0.3804 -0.1117 0.918
vn -0.0223 -0.6114 0.791
vn 0.0011 0.9963 0.0858
vn 0.0563 0.9899 0.1299
vn 0.3944 0.9166 -0.066
vn 0.7051 0.6803 -0.1999
vn 0.7155 0.692 -0.0955
vn 0.365 0.9173 -0.1592
vn 0.8921 0.4467 0.0674
vn 0.5665 0.7028 -0.4303
vn 0.805 0.4689 -0.3633
vn 0.9291 0.3699 -0.0013
vn 0.9383 0.0643 0.3399
vn 0.9164 0.1624 0.3657
vn 0.9945 -0.0523 0.0912
vn 0.7053 0.071 0.7053
vn 0.8903 -0.2419 0.3858
vn 0.7055 -0.0679 0.7055
vn 0.3543 0.0192 0.9349
vn 0.3821 0.1117 0.9173
vn 0.0651 0.3653 0.9286
vn 0.3917 -0.2696 0.8797
vn 0.0977 -0.1346 0.9861
vn 0.0212 0.3034 0.9526
vn -0.2295 0.6074 0.7605
vn -0.1894 0.8826 0.4303
vn 0.3587 0.9237 -0.1343
vn -0.3817 0.3848 0.8404
vn -0.4936 0.6014 0.6283
vn 0.0012 0.2746 0.9616
vn -0.146 0.6367 0.7571
vn -0.1154 0.8789 0.4629
vn -0.2198 0.8717 0.4381
vn -0.2849 0.9577 0.0414
vn -0.0397 0.9757 -0.2154
vn 0.4865 0.7257 0.4865
vn 0.5451 0.6793 0.4914
vn 0.4284 0.7262 0.5376
vn 0.707 -0.021 0.707
vn 0.9342 0.0869 0.3461
vn 0.926 0.3769 0.022
vn 0.361 0.0404 0.9317
vn 0.5216 0.6297 0.5757
vn 0.4646 0.6524 0.5988
o bolt__p0_c0
f 1/1/1 2/2/2 3/3/3
f 3/3/3 2/2/2 4/4/4
f 4/4/4 2/2/2 5/5/5
f 4/4/4 5/5/5 6/6/6
f 4/4/4 6/6/6 7/7/7
f 4/4/4 7/7/7 3/3/3
f 7/7/7 6/6/6 8/8/8
f 7/7/7 8/8/8 9/9/9
f 7/7/7 9/9/9 3/3/3
f 9/9/9 8/8/8 10/10/10
f 3/3/3 9/9/9 11/11/11
f 11/11/11 9/9/9 10/10/10
f 3/3/3 11/11/11 12/12/12
f 11/11/11 10/10/10 13/13/13
f 1/1/1 3/3/3 14/14/14
f 14/14/14 3/3/3 12/12/12
f 1/1/1 14/14/14 15/15/15
f 15/15/15 14/14/14 16/16/16
f 16/16/16 14/14/14 12/12/12
f 1/1/1 15/15/15 17/17/17
f 16/16/16 12/12/12 13/13/13
f 13/13/13 12/12/12 11/11/11
f 1/1/1 17/17/17 2/2/2
f 2/2/2 17/17/17 5/5/5
f 18/18/18 19/19/19 20/20/20
f 20/20/20 19/19/19 21/21/21
f 18/18/18 20/20/20 22/22/22
f 22/22/22 20/20/20 23/23/23
f 24/24/24 25/25/25 26/26/26
f 26/26/26 25/25/25 27/27/27
f 24/24/24 26/26/26 28/28/28
f 24/24/24 28/28/28 29/29/29
f 24/24/24 29/29/29 30/30/30
f 28/28/28 26/26/26 31/31/31
f 26/26/26 27/27/27 32/32/32
f 26/26/26 32/32/32 31/31/31
f 32/32/32 27/27/27 33/33/33
f 33/33/33 27/27/27 34/34/34
f 32/32/32 33/33/33 35/35/35
f 35/35/35 33/33/33 36/36/36
f 31/31/31 32/32/32 37/37/37
f 37/37/37 32/32/32 35/35/35
f 38/38/38 28/28/28 31/31/31
f 28/28/28 38/38/38 29/29/29
f 31/31/31 37/37/37 39/39/39
f 31/31/31 39/39/39 38/38/38
f 35/35/35 36/36/36 40/40/40
f 40/40/40 36/36/36 41/41/41
f 37/37/37 35/35/35 42/42/42
f 42/42/42 35/35/35 40/40/40
f 39/39/39 37/37/37 43/43/43
f 43/43/43 37/37/37 42/42/42
f 44/44/44 41/41/41 45/45/45
f 43/43/43 42/42/42 46/46/46
f 46/46/46 42/42/42 40/40/40
f 47/47/47 40/40/40 41/41/41
f 47/47/47 41/41/41 44/44/44
f 40/40/40 47/47/47 46/46/46
f 47/47/47 44/44/44 48/48/48
f 48/48/48 44/44/44 49/49/49
f 46/46/46 47/47/47 50/50/50
f 50/50/50 47/47/47 48/48/48
f 51/51/51 43/43/43 46/46/46
f 51/51/51 46/46/46 50/50/50
f 43/43/43 51/51/51 52/52/52
f 43/43/43 52/52/52 39/39/39
f 48/48/48 49/49/49 53/53/53
f 53/53/53 49/49/49 54/54/54
f 50/50/50 48/48/48 55/55/55
f 55/55/55 48/48/48 53/53/53
f 51/51/51 50/50/50 56/56/56
f 56/56/56 50/50/50 55/55/55
f 57/57/57 52/52/52 51/51/51
f 57/57/57 51/51/51 56/56/56
f 56/56/56 55/55/55 58/58/58
f 58/58/58 55/55/55 53/53/53
f 57/57/57 56/56/56 59/59/59
f 59/59/59 56/56/56 58/58/58
f 52/52/52 57/57/57 60/60/60
f 57/57/57 59/59/59 61/61/61
f 57/57/57 61/61/61 60/60/60
f 58/58/58 53/53/53 62/62/62
f 62/62/62 53/53/53 54/54/54
f 62/62/62 54/54/54 63/63/63
f 63/63/63 54/54/54 64/64/64
f 62/62/62 63/63/63 65/65/65
f 58/58/58 62/62/62 66/66/66
f 66/66/66 62/62/62 65/65/65
f 58/58/58 66/66/66 59/59/59
f 66/66/66 65/65/65 67/67/67
f 59/59/59 66/66/66 68/68/68
f 68/68/68 66/66/66 67/67/67
f 59/59/59 68/68/68 61/61/61
f 68/68/68 67/67/67 69/69/69
f 68/68/68 69/69/69 70/70/70
f 68/68/68 70/70/70 61/61/61
f 61/61/61 70/70/70 71/71/71
f 61/61/61 71/71/71 60/60/60
f 71/71/71 70/70/70 72/72/72
f 60/60/60 71/71/71 73/73/73
f 60/60/60 73/73/73 52/52/52
f 52/52/52 73/73/73 39/39/39
f 39/39/39 73/73/73 38/38/38
f 73/73/73 71/71/71 74/74/74
f 73/73/73 74/74/74 38/38/38
f 74/74/74 71/71/71 72/72/72
f 38/38/38 74/74/74 29/29/29
f 74/74/74 72/72/72 75/75/75
f 74/74/74 75/75/75 29/29/29
f 76/76/76 77/77/77 78/78/78
f 24/24/24 77/77/77 25/25/25
f 77/77/77 24/24/24 30/30/30
f 77/77/77 30/30/30 78/78/78
f 78/78/78 30/30/30 79/79/79
f 78/78/78 79/79/79 80/80/80
f 79/79/79 30/30/30 75/75/75
f 75/75/75 30/30/30 29/29/29
f 80/80/80 79/79/79 81/81/81
f 79/79/79 75/75/75 82/82/82
f 79/79/79 82/82/82 81/81/81
f 82/82/82 75/75/75 72/72/72
f 80/80/80 81/81/81 83/83/83
f 82/82/82 72/72/72 84/84/84
f 82/82/82 84/84/84 81/81/81
f 84/84/84 72/72/72 70/70/70
f 84/84/84 70/70/70 69/69/69
f 81/81/81 84/84/84 85/85/85
f 81/81/81 85/85/85 83/83/83
f 85/85/85 84/84/84 69/69/69
f 83/83/83 85/85/85 86/86/86
f 83/83/83 86/86/86 87/87/87
f 85/85/85 69/69/69 88/88/88
f 85/85/85 88/88/88 86/86/86
f 88/88/88 69/69/69 67/67/67
f 86/86/86 88/88/88 89/89/89
f 88/88/88 67/67/67 65/65/65
f 88/88/88 65/65/65 89/89/89
f 89/89/89 65/65/65 63/63/63
f 90/90/90 91/91/91 92/92/92
f 92/92/92 91/91/91 93/93/80
f 92/92/92 93/93/80 94/94/93
f 93/93/80 91/91/91 95/95/94
f 95/95/94 91/91/91 96/96/95
f 96/96/95 91/91/91 97/97/96
f 96/96/95 97/97/96 98/98/97
f 93/93/80 95/95/94 99/99/98
f 94/94/93 93/93/80 100/100/99
f 100/100/99 93/93/80 99/99/98
f 94/94/93 100/100/99 101/101/100
f 100/100/99 99/99/98 102/102/101
f 101/101/100 100/100/99 103/103/102
f 103/103/102 100/100/99 102/102/101
f 101/101/100 103/103/102 104/104/103
f 103/103/102 102/102/101 105/105/104
f 104/104/103 103/103/102 106/106/105
f 106/106/105 103/103/102 105/105/104
f 20/20/20 107/107/106 23/23/23
f 107/107/106 20/20/20 21/21/21
f 107/107/106 21/21/21 108/108/107
f 107/107/106 108/108/107 109/109/108
f 109/109/108 108/108/107 110/110/109
f 109/109/108 110/110/109 111/111/110
f 111/111/110 110/110/109 112/112/111
f 107/107/106 109/109/108 113/113/112
f 107/107/106 113/113/112 23/23/23
f 109/109/108 111/111/110 114/114/113
f 109/109/108 114/114/113 113/113/112
f 114/114/113 111/111/110 115/115/110
f 23/23/23 113/113/112 116/116/114
f 116/116/114 113/113/112 114/114/113
f 22/22/22 23/23/23 117/117/115
f 117/117/115 23/23/23 118/118/116
f 118/118/116 23/23/23 116/116/114
f 117/117/115 118/118/116 119/119/117
f 119/119/117 118/118/116 120/120/118
f 120/120/118 118/118/116 116/116/114
f 119/119/117 120/120/118 121/121/119
f 121/121/119 120/120/118 122/122/120
f 122/122/120 120/120/118 123/123/121
f 123/123/121 120/120/118 116/116/114
f 122/122/120 123/123/121 124/124/122
f 124/124/122 123/123/121 125/125/123
f 124/124/122 125/125/123 126/126/124
f 123/123/121 116/116/114 127/127/125
f 123/123/121 127/127/125 125/125/123
f 127/127/125 116/116/114 114/114/113
f 125/125/123 127/127/125 128/128/126
f 127/127/125 114/114/113 115/115/110
f 127/127/125 115/115/110 128/128/126
f 128/128/126 115/115/110 129/129/127
f 13/130/13 130/131/128 16/132/16
f 16/132/16 130/131/128 131/133/129
f 16/132/16 131/133/129 15/134/15
f 15/134/15 131/133/129 132/135/130
f 15/134/15 132/135/130 17/136/17
f 17/136/17 132/135/130 133/137/131
f 17/136/17 133/137/131 5/138/5
f 5/138/5 133/137/131 134/139/132
f 5/140/5 134/141/132 6/142/6
f 6/142/6 134/141/132 135/143/133
f 6/142/6 135/143/133 8/144/8
f 8/144/8 135/143/133 136/145/134
f 8/144/8 136/145/134 10/146/10
f 10/146/10 136/145/134 137/147/135
f 10/146/10 137/147/135 13/130/13
f 13/130/13 137/147/135 130/131/128
f 104/104/103 106/106/105 138/148/136
f 138/148/136 106/106/105 139/149/137
f 138/148/136 139/149/137 140/150/138
f 139/149/137 106/106/105 141/151/139
f 141/151/139 106/106/105 105/105/104
f 139/149/137 141/151/139 142/152/140
f 140/150/138 139/149/137 143/153/141
f 143/153/141 139/149/137 142/152/140
f 140/150/138 143/153/141 144/154/142
f 143/153/141 142/152/140 145/155/143
f 144/154/142 143/153/141 146/156/108
f 146/156/108 143/153/141 145/155/143
f 144/154/142 146/156/108 147/157/144
f 146/156/108 145/155/143 148/158/145
f 147/157/144 146/156/108 149/159/146
f 149/159/146 146/156/108 148/158/145
f 147/157/144 149/159/146 150/160/147
f 149/159/146 148/158/145 98/161/97
f 150/160/147 149/159/146 97/162/96
f 97/162/96 149/159/146 98/161/97
f 111/111/110 112/112/111 18/163/18
f 18/163/18 112/112/111 19/164/19
f 111/111/110 18/163/18 115/115/110
f 115/115/110 18/163/18 22/165/22
f 115/115/110 22/165/22 129/129/127
f 129/129/127 22/165/22 117/166/115
f 129/129/127 117/166/115 119/167/117
f 129/129/127 119/167/117 125/125/123
f 129/129/127 125/125/123 128/128/126
f 125/125/123 119/167/117 126/126/124
f 126/126/124 119/167/117 121/168/119
f 151/169/148 152/170/149 153/171/150
f 154/172/151 153/171/150 155/173/152
f 153/171/150 154/172/151 156/174/153
f 154/172/151 155/173/152 157/175/154
f 156/174/153 154/172/151 158/176/155
f 156/174/153 158/176/155 64/177/64
f 64/177/64 158/176/155 63/178/63
f 63/178/63 158/176/155 89/179/89
f 89/179/89 158/176/155 159/180/156
f 159/180/156 158/176/155 154/172/151
f 89/179/89 159/180/156 86/181/86
f 86/181/86 159/180/156 87/182/87
f 159/180/156 154/172/151 160/183/157
f 159/180/156 160/183/157 87/182/87
f 160/183/157 154/172/151 157/175/154
f 160/183/157 157/175/154 161/184/158
f 161/184/158 157/175/154 162/185/159
f 87/182/87 160/183/157 163/186/160
f 163/186/160 160/183/157 161/184/158
f 87/182/87 163/186/160 83/187/83
f 161/184/158 162/185/159 164/188/161
f 83/187/83 163/186/160 80/189/80
f 80/189/80 163/186/160 165/190/162
f 165/190/162 163/186/160 161/184/158
f 80/189/80 165/190/162 78/191/78
f 78/191/78 165/190/162 76/192/76
f 165/190/162 161/184/158 166/193/163
f 166/193/163 161/184/158 164/188/161
f 165/190/162 166/193/163 76/192/76
f 166/193/163 164/188/161 167/194/164
f 167/194/164 164/188/161 168/195/165
f 167/194/164 168/195/165 169/196/166
f 166/193/163 167/194/164 170/197/167
f 166/193/163 170/197/167 76/192/76
f 170/197/167 167/194/164 171/198/168
f 76/192/76 170/197/167 77/199/77
f 77/199/77 170/197/167 25/200/25
f 169/196/169 148/201/145 145/202/143
f 169/196/169 145/202/143 172/203/170
f 172/203/170 145/202/143 142/204/140
f 172/203/170 142/204/140 173/205/171
f 173/205/171 142/204/140 141/206/139
f 173/205/171 141/206/139 152/170/148
f 152/170/148 141/206/139 105/207/104
f 152/170/148 105/207/104 153/171/172
f 34/208/34 174/209/173 33/210/33
f 33/210/33 174/209/173 36/211/36
f 36/211/36 174/209/173 175/212/174
f 36/211/36 175/212/174 41/213/41
f 41/213/41 175/212/174 45/214/45
f 175/212/174 174/209/173 176/215/170
f 174/209/173 34/208/34 177/216/175
f 174/209/173 177/216/175 176/215/170
f 177/216/175 34/208/34 171/198/168
f 171/198/168 34/208/34 27/217/27
f 171/198/168 27/217/27 25/200/25
f 171/198/168 25/200/25 170/197/167
f 177/216/175 171/198/168 167/194/164
f 177/216/175 167/194/164 169/196/166
f 177/216/175 169/196/166 176/215/170
f 176/215/170 169/196/166 172/203/176
f 176/215/170 172/203/176 173/205/177
f 178/218/178 175/212/174 176/215/170
f 178/218/178 176/215/170 173/205/177
f 175/212/174 178/218/178 45/214/45
f 178/218/178 173/205/177 151/169/148
f 151/169/148 173/205/177 152/170/149
f 45/214/45 178/218/178 179/219/179
f 179/219/179 178/218/178 151/169/148
f 45/214/45 179/219/179 44/220/44
f 44/220/44 179/219/179 49/221/49
f 49/221/49 179/219/179 180/222/180
f 180/222/180 179/219/179 151/169/148
f 49/221/49 180/222/180 54/223/54
f 54/223/54 180/222/180 64/177/64
f 64/177/64 180/222/180 156/174/153
f 156/174/153 180/222/180 151/169/148
f 156/174/153 151/169/148 153/171/150
f 101/224/181 104/225/181 181/226/181
f 181/226/181 104/225/181 138/227/181
f 92/228/182 94/229/182 181/226/182
f 181/226/182 94/229/182 101/224/182
f 138/227/183 140/230/183 181/226/183
f 181/226/183 140/230/183 144/231/183
f 164/188/184 162/185/185 96/232/95
f 96/232/95 162/185/185 95/233/94
f 164/188/184 96/232/95 98/234/97
f 95/233/94 162/185/185 157/175/186
f 164/188/184 98/234/97 168/195/187
f 168/195/187 98/234/97 148/201/145
f 168/195/187 148/201/145 169/196/169
f 95/233/94 157/175/186 99/235/98
f 99/235/98 157/175/186 155/173/151
f 99/235/98 155/173/151 102/236/101
f 102/236/101 155/173/151 153/171/172
f 102/236/101 153/171/172 105/207/104
f 92/228/188 181/226/188 90/237/188
f 90/237/188 181/226/188 150/238/188
f 144/231/189 147/239/189 181/226/189
f 181/226/189 147/239/189 150/238/189
f 150/240/147 97/97/96 90/90/90
f 90/90/90 97/97/96 91/91/91
