# CS2 body mesh, tools/cs2_glb_to_obj.py
v -0.00463 0.01719 -0.09456
v 0.01627 0.01719 -0.09456
v -0.00463 -0.04541 -0.09475
v 0.01627 -0.04541 -0.09475
v 0.01705 -0.04988 -0.09037
v -0.00408 -0.04988 -0.09037
v 0.01908 -0.04547 -0.09707
v -0.00611 -0.04547 -0.09707
v 0.01605 -0.04787 -0.00831
v -0.00353 -0.04787 -0.00831
v 0.0205 -0.04445 -0.04297
v 0.02024 -0.04406 -0.02608
v 0.01854 -0.04406 -0.02608
v 0.01877 -0.04445 -0.04297
v 0.01901 -0.04483 -0.05986
v 0.02077 -0.04483 -0.05986
v 0.01455 0.00503 -0.0053
v -0.00292 0.00503 -0.0053
v 0.01455 0.01937 -0.00565
v -0.00292 0.01937 -0.00565
v -0.00656 -0.04343 -0.04297
v -0.00671 -0.04401 -0.05927
v -0.00573 -0.04445 -0.04297
v -0.00588 -0.04483 -0.05986
v -0.00293 -0.04483 -0.05986
v -0.00283 -0.04445 -0.04297
v -0.00273 -0.04406 -0.02608
v -0.00559 -0.04406 -0.02608
v -0.00641 -0.04325 -0.0267
v -0.00643 -0.04092 -0.02861
v -0.00645 -0.03937 -0.0309
v -0.00647 -0.0389 -0.03288
v -0.00656 -0.03907 -0.04296
v -0.00669 -0.04084 -0.0565
v -0.00666 -0.03924 -0.05304
v -0.0053 -0.04313 -0.00184
v 0.01778 -0.04313 -0.00184
v 0.0215 -0.03924 -0.05304
v 0.02134 -0.03907 -0.04296
v 0.02156 -0.04084 -0.0565
v 0.02134 -0.04343 -0.04297
v 0.0216 -0.04401 -0.05927
v 0.02117 -0.0389 -0.03288
v 0.02111 -0.0404 -0.02937
v 0.02107 -0.04325 -0.0267
v -0.00292 0.01723 -0.09289
v -0.00463 0.01941 -0.00398
v 0.01456 0.01723 -0.09289
v 0.01627 0.01941 -0.00398
v -0.00463 -0.04319 -0.00416
v 0.01627 -0.04319 -0.00416
v -0.00292 0.00289 -0.09254
v 0.01456 0.00289 -0.09254
v -0.00291 -0.04084 -0.0565
v -0.00289 -0.03924 -0.05304
v -0.00283 -0.03907 -0.04296
v -0.00277 -0.0389 -0.03288
v -0.00276 -0.03937 -0.0309
v -0.00275 -0.04092 -0.02861
v 0.01858 -0.0404 -0.02937
v 0.01863 -0.0389 -0.03288
v 0.01877 -0.03907 -0.04296
v 0.01892 -0.03924 -0.05304
v 0.01896 -0.04084 -0.0565
v 0.00898 -0.0443 -0.04945
vt 0.819336 0.975098
vt 0.851562 0.975098
vt 0.819336 0.897461
vt 0.851562 0.897461
vt 0.870117 0.870605
vt 0.870117 0.833984
vt 0.861328 0.875488
vt 0.861328 0.82959
vt 0.976562 0.870605
vt 0.976562 0.833984
vt 0.531738 0.988281
vt 0.572754 0.987793
vt 0.572754 0.996094
vt 0.531738 0.996582
vt 0.490967 0.99707
vt 0.490967 0.98877
vt 0.962891 0.994629
vt 0.994629 0.994629
vt 0.962891 0.979004
vt 0.994629 0.979004
vt 0.531738 0.984863
vt 0.492432 0.98584
vt 0.571289 0.984863
vt 0.566895 0.979004
vt 0.561035 0.975098
vt 0.556641 0.974121
vt 0.531738 0.974121
vt 0.499268 0.978027
vt 0.507324 0.974121
vt 0.985352 0.82959
vt 0.985352 0.875488
vt 0.564941 0.978027
vt 0.708984 0.979004
vt 0.819336 0.979004
vt 0.708984 0.975098
vt 0.851562 0.979004
vt 0.962891 0.975098
vt 0.994629 0.975098
vt 0.708984 0.897461
vt 0.962891 0.897461
vt 0.721191 0.880859
vt 0.828613 0.880859
vt 0.721191 0.851562
vt 0.828613 0.851562
vt 0.851562 0.994629
vt 0.708984 0.994629
vt 0.819336 0.994629
vt 0.994629 0.897461
vt 0.579102 0.966309
vt 0.579102 0.958984
vt 0.566895 0.966309
vt 0.57666 0.956543
vt 0.566895 0.956543
vt 0.557617 0.956543
vt 0.557617 0.966309
vt 0.53418 0.966309
vt 0.53418 0.956543
vt 0.510254 0.956543
vt 0.510254 0.966309
vt 0.505859 0.956543
vt 0.505859 0.966309
vt 0.499268 0.956543
vt 0.499268 0.966309
vt 0.492188 0.956543
vt 0.48999 0.966309
vt 0.48999 0.958984
vt 0.501465 0.966309
vt 0.501465 0.956543
vt 1.000977 0.829102
vt 0.993164 0.852051
vt 0.92334 0.882812
vt 0.861328 0.890625
vn -0.0161 -0.0151 -0.9998
vn -0.0221 -0.8284 -0.5596
vn -0.0164 -0.9993 0.0328
vn 0 -0.0333 -0.9994
vn -1 -0.001 0
vn -0.9997 0.0171 0.0151
vn -0.9348 -0.3547 0.0205
vn 0.9212 -0.3867 0.0422
vn 0.9995 -0.001 0.0323
vn -0.0223 -0.7922 0.6098
vn 0.001 0.9994 -0.0333
vn -0.9998 -0.0151 -0.0161
vn 0.9999 -0.001 0.0159
vn -0.0151 0.0171 0.9997
vn 0.0014 0.6228 -0.7823
vn 0.0014 0.6468 -0.7627
vn 0.0014 0.7799 -0.6259
vn 0.0012 0.9733 -0.2295
vn 0.0011 0.9945 0.1043
vn 0.0013 0.9175 0.3976
vn 0.0014 0.7395 0.6732
vn 0.0014 0.6468 0.7627
vn 0.0014 0.6228 0.7823
vn -0.0238 0.6606 0.7504
vn -0.0235 0.8291 0.5587
vn 0.0011 0.9825 0.1864
vn -0.0238 0.7709 -0.6366
vn -0.0468 0.6193 -0.7837
vn -0.0238 0.6335 -0.7734
vn -0.0175 0.9993 -0.0339
vn 0.001 0.0313 0.9995
o clip__p0_c0
f 1/1/1 2/2/1 3/3/1
f 3/3/1 2/2/1 4/4/1
f 5/5/2 6/6/2 7/7/2
f 7/7/2 6/6/2 8/8/2
f 5/5/3 9/9/3 6/6/3
f 6/6/3 9/9/3 10/10/3
f 11/11/3 12/12/3 13/13/3
f 11/11/3 13/13/3 14/14/3
f 11/11/3 14/14/3 15/15/3
f 11/11/3 15/15/3 16/16/3
f 17/17/4 18/18/4 19/19/4
f 19/19/4 18/18/4 20/20/4
f 21/21/5 22/22/5 23/11/3
f 23/11/3 22/22/5 24/16/3
f 23/11/3 24/16/3 25/15/3
f 23/11/3 25/15/3 26/14/3
f 23/11/3 26/14/3 27/13/3
f 23/11/3 27/13/3 28/12/3
f 23/11/3 28/12/3 21/21/5
f 21/21/5 28/12/3 29/23/5
f 21/21/5 29/23/5 30/24/5
f 21/21/5 30/24/5 31/25/5
f 21/21/5 31/25/5 32/26/6
f 21/21/5 32/26/6 33/27/6
f 34/28/5 22/22/5 21/21/5
f 34/28/5 21/21/5 33/27/6
f 34/28/5 33/27/6 35/29/5
f 6/6/7 10/10/7 8/8/7
f 8/8/7 10/10/7 36/30/7
f 7/7/8 37/31/8 5/5/8
f 5/5/8 37/31/8 9/9/8
f 38/29/9 39/27/9 40/28/9
f 40/28/9 39/27/9 41/21/9
f 40/28/9 41/21/9 42/22/9
f 43/26/9 44/32/9 39/27/9
f 39/27/9 44/32/9 41/21/9
f 41/21/9 44/32/9 45/23/9
f 41/21/9 45/23/9 12/12/3
f 41/21/9 12/12/3 11/11/3
f 41/21/9 11/11/3 42/22/9
f 42/22/9 11/11/3 16/16/3
f 10/10/10 9/9/10 36/30/10
f 36/30/10 9/9/10 37/31/10
f 20/33/11 46/34/11 47/35/11
f 47/35/11 46/34/11 1/1/11
f 1/1/11 46/34/11 48/36/11
f 1/1/11 48/36/11 2/2/11
f 2/2/11 48/36/11 19/19/11
f 2/2/11 19/19/11 49/37/11
f 49/37/11 19/19/11 20/20/11
f 49/37/11 20/20/11 47/38/11
f 47/35/12 1/1/12 50/39/12
f 50/39/12 1/1/12 3/3/12
f 2/2/13 49/37/13 4/4/13
f 4/4/13 49/37/13 51/40/13
f 52/41/11 18/42/11 53/43/11
f 53/43/11 18/42/11 17/44/11
f 53/45/12 17/17/12 48/36/12
f 48/36/12 17/17/12 19/19/12
f 18/46/13 52/47/13 20/33/13
f 20/33/13 52/47/13 46/34/13
f 49/37/14 47/38/14 51/40/14
f 51/40/14 47/38/14 50/48/14
f 25/49/15 24/50/16 54/51/17
f 54/51/17 24/50/16 22/52/16
f 54/51/17 22/52/16 34/53/17
f 54/51/17 34/53/17 35/54/18
f 54/51/17 35/54/18 55/55/18
f 55/55/18 35/54/18 56/56/11
f 56/56/11 35/54/18 33/57/11
f 56/56/11 33/57/11 32/58/19
f 56/56/11 32/58/19 57/59/19
f 57/59/19 32/58/19 31/60/20
f 57/59/19 31/60/20 58/61/20
f 58/61/20 31/60/20 30/62/21
f 58/61/20 30/62/21 59/63/21
f 59/63/21 30/62/21 29/64/22
f 59/63/21 29/64/22 27/65/22
f 27/65/22 29/64/22 28/66/23
f 12/66/23 45/64/24 13/65/24
f 13/65/24 45/64/24 60/67/25
f 60/67/25 45/64/24 44/68/25
f 60/67/25 44/68/25 61/59/26
f 61/59/26 44/68/25 43/58/26
f 61/59/26 43/58/26 62/56/11
f 62/56/11 43/58/26 39/57/11
f 62/56/11 39/57/11 38/54/18
f 62/56/11 38/54/18 63/55/18
f 63/55/18 38/54/18 64/51/27
f 64/51/27 38/54/18 40/53/27
f 64/51/27 40/53/27 42/52/28
f 64/51/27 42/52/28 16/50/29
f 64/51/27 16/50/29 15/49/15
f 8/69/30 36/30/30 65/70/30
f 65/70/30 36/30/30 37/31/11
f 7/7/11 65/71/11 37/31/11
f 65/71/11 7/7/11 8/72/11
f 52/47/31 53/45/31 46/34/31
f 46/34/31 53/45/31 48/36/31
