# CS2 body mesh, tools/cs2_glb_to_obj.py
v 0.76592 0.15565 -0.2275
v -0.08563 0.15565 -0.2275
v -0.08563 0.24079 -0.2275
v 0.76592 0.24079 -0.2275
v 0.76592 0.25079 -0.2175
v -0.08563 0.25079 -0.2175
v -0.08563 0.25079 -0.07483
v 0.76592 0.25079 -0.07483
v -0.09563 0.24079 -0.2175
v -0.09563 0.24079 -0.06483
v -0.09563 0.22932 -0.06483
v -0.09563 0.16445 -0.2175
v 0.77592 0.24079 -0.06483
v 0.77592 0.22932 -0.06483
v 0.77592 0.24079 -0.2175
v 0.77592 0.16445 -0.2175
v 0.30665 -0.23194 -0.08538
v 0.30665 -0.23194 0.17623
v -0.06153 -0.23194 0.17623
v -0.06153 -0.23194 -0.08538
v -0.06153 -0.22122 0.20669
v 0.30665 -0.22122 -0.11584
v 0.30665 -0.22122 0.20669
v -0.06153 -0.19193 0.22898
v -0.08791 -0.19193 0.22192
v 0.30665 -0.19193 0.22898
v -0.07676 -0.22122 0.20261
v -0.10722 -0.19193 0.20261
v 0.32187 -0.22122 0.20261
v 0.33302 -0.19193 0.22192
v -0.08791 -0.22122 0.19146
v -0.11429 -0.19193 0.17623
v 0.33302 -0.22122 0.19146
v 0.35233 -0.19193 0.20261
v 0.3371 -0.22122 0.17623
v 0.3594 -0.19193 0.17623
v 0.3371 -0.22122 -0.08538
v 0.3594 -0.19193 -0.08538
v 0.33302 -0.22122 -0.10061
v 0.35233 -0.19193 -0.11176
v 0.32187 -0.22122 -0.11176
v 0.33302 -0.19193 -0.13107
v 0.30665 -0.19193 -0.13814
v -0.06153 -0.22122 -0.11584
v -0.06153 -0.19193 -0.13814
v -0.07676 -0.22122 -0.11176
v -0.08791 -0.19193 -0.13107
v -0.08791 -0.22122 -0.10061
v -0.10722 -0.19193 -0.11176
v -0.09199 -0.22122 -0.08538
v -0.11429 -0.19193 -0.08538
v -0.09199 -0.22122 0.17623
v -0.29136 -0.23194 -0.08538
v -0.29136 -0.23194 0.17623
v -0.65954 -0.23194 0.17623
v -0.65954 -0.23194 -0.08538
v -0.65954 -0.22122 0.20669
v -0.29136 -0.22122 -0.11584
v -0.29136 -0.22122 0.20669
v -0.65954 -0.19193 0.22898
v -0.68592 -0.19193 0.22192
v -0.29136 -0.19193 0.22898
v -0.67477 -0.22122 0.20261
v -0.70523 -0.19193 0.20261
v -0.27613 -0.22122 0.20261
v -0.26498 -0.19193 0.22192
v -0.68592 -0.22122 0.19146
v -0.7123 -0.19193 0.17623
v -0.26498 -0.22122 0.19146
v -0.24568 -0.19193 0.20261
v -0.2609 -0.22122 0.17623
v -0.23861 -0.19193 0.17623
v -0.2609 -0.22122 -0.08538
v -0.23861 -0.19193 -0.08538
v -0.26498 -0.22122 -0.10061
v -0.24568 -0.19193 -0.11176
v -0.27613 -0.22122 -0.11176
v -0.26498 -0.19193 -0.13107
v -0.29136 -0.19193 -0.13814
v -0.65954 -0.22122 -0.11584
v -0.65954 -0.19193 -0.13814
v -0.67477 -0.22122 -0.11176
v -0.68592 -0.19193 -0.13107
v -0.68592 -0.22122 -0.10061
v -0.70523 -0.19193 -0.11176
v -0.69 -0.22122 -0.08538
v -0.7123 -0.19193 -0.08538
v -0.69 -0.22122 0.17623
v 0.31199 -0.21096 -0.15186
v 0.34333 -0.21096 -0.14347
v -0.06688 -0.21096 -0.15186
v 0.31621 -0.18634 -0.18434
v 0.35893 -0.18471 -0.17079
v -0.0711 -0.18634 -0.18434
v 0.39313 -0.18415 -0.13599
v -0.09822 -0.21096 -0.14347
v -0.11381 -0.18471 -0.17079
v 0.36628 -0.21096 -0.12052
v 0.40606 -0.18494 -0.09329
v 0.37467 -0.21096 -0.08918
v 0.40606 -0.18494 0.18413
v 0.37467 -0.21096 0.18003
v 0.36627 -0.21096 0.21137
v 0.39313 -0.18415 0.22683
v 0.35893 -0.18471 0.26163
v 0.34333 -0.21096 0.23431
v 0.31621 -0.18634 0.27519
v 0.31199 -0.21096 0.24271
v -0.0711 -0.18634 0.27519
v -0.06688 -0.21096 0.24271
v -0.09822 -0.21096 0.23431
v -0.11381 -0.18471 0.26163
v -0.14802 -0.18415 0.22683
v -0.12116 -0.21096 0.21137
v -0.16095 -0.18494 0.18413
v -0.12956 -0.21096 0.18003
v -0.16095 -0.18494 -0.09329
v -0.12956 -0.21096 -0.08918
v -0.12116 -0.21096 -0.12052
v -0.14802 -0.18415 -0.13599
v -0.28602 -0.21096 -0.15186
v -0.25468 -0.21096 -0.14347
v -0.66488 -0.21096 -0.15186
v -0.28179 -0.18634 -0.18434
v -0.23908 -0.18471 -0.17079
v -0.66911 -0.18634 -0.18434
v -0.20488 -0.18415 -0.13599
v -0.69623 -0.21096 -0.14347
v -0.71182 -0.18471 -0.17079
v -0.23173 -0.21096 -0.12052
v -0.19195 -0.18494 -0.09329
v -0.22334 -0.21096 -0.08918
v -0.19195 -0.18494 0.18413
v -0.22334 -0.21096 0.18003
v -0.23173 -0.21096 0.21137
v -0.20488 -0.18415 0.22683
v -0.23908 -0.18471 0.26163
v -0.25468 -0.21096 0.23431
v -0.28179 -0.18634 0.27519
v -0.28602 -0.21096 0.24271
v -0.66911 -0.18634 0.27519
v -0.66488 -0.21096 0.24271
v -0.69623 -0.21096 0.23431
v -0.71182 -0.18471 0.26163
v -0.74603 -0.18415 0.22683
v -0.71917 -0.21096 0.21137
v -0.75895 -0.18494 0.18413
v -0.72757 -0.21096 0.18003
v -0.75895 -0.18494 -0.09329
v -0.72757 -0.21096 -0.08918
v -0.71917 -0.21096 -0.12052
v -0.74603 -0.18415 -0.13599
v 0.81357 -0.16999 -0.24554
v -0.81357 -0.16999 -0.24554
v -0.81357 0.12894 -0.24554
v -0.82857 -0.16999 -0.22769
v -0.81357 -0.18499 -0.22769
v -0.82857 0.13772 -0.22769
v -0.81357 -0.18499 0.40481
v -0.82857 -0.16999 0.40481
v -0.81357 -0.16999 0.42266
v 0.81357 -0.18499 0.40481
v 0.81357 -0.16999 0.42266
v 0.82857 -0.16999 0.40481
v 0.81357 -0.18499 -0.22769
v 0.82857 -0.16999 -0.22769
v 0.81357 0.12894 -0.24554
v 0.82857 0.13772 -0.22769
v 0.81357 0.15454 -0.23292
v -0.81357 0.15454 -0.23292
v 0.81357 0.22133 -0.15346
v 0.82857 0.21694 -0.13344
v -0.81357 0.22133 -0.15346
v -0.82857 0.21694 -0.13344
v 0.81357 0.23194 -0.12299
v 0.82857 0.21694 0.40481
v 0.81357 0.21694 0.42266
v 0.81357 0.23194 0.40481
v -0.81357 0.21694 0.42266
v -0.82857 0.21694 0.40481
v -0.81357 0.23194 0.40481
v 0.77357 0.23194 -0.04013
v 0.77357 0.23194 0.35722
v -0.77357 0.23194 -0.04013
v -0.77357 0.23194 0.35722
v -0.81357 0.23194 -0.12299
v -0.77357 0.15194 -0.04013
v 0.77357 0.15194 -0.04013
v 0.77357 0.15194 0.35722
v -0.77357 0.15194 0.35722
vt 0.227821 0.314066
vt 0.657399 0.314066
vt 0.657399 0.271126
vt 0.227821 0.271126
vt 0.227821 0.263985
vt 0.65743 0.263985
vt 0.657399 0.191748
vt 0.227851 0.191748
vt 0.664205 0.263161
vt 0.663106 0.269845
vt 0.66451 0.186468
vt 0.670339 0.186407
vt 0.702414 0.26371
vt 0.706565 0.271035
vt 0.222785 0.184606
vt 0.662465 0.184606
vt 0.222785 0.178838
vt 0.662465 0.178838
vt 0.221046 0.263161
vt 0.22074 0.186468
vt 0.214911 0.186407
vt 0.222144 0.269845
vt 0.182836 0.26371
vt 0.178686 0.271004
vt 0.510392 0.928587
vt 0.509995 0.818598
vt 0.354961 0.818873
vt 0.355358 0.928861
vt 0.353984 0.806177
vt 0.511338 0.941282
vt 0.510941 0.805933
vt 0.351787 0.791009
vt 0.340159 0.795434
vt 0.512986 0.790796
vt 0.34843 0.808191
vt 0.331248 0.804254
vt 0.516495 0.808039
vt 0.524461 0.795251
vt 0.344218 0.812342
vt 0.32667 0.815882
vt 0.520615 0.81222
vt 0.53325 0.804041
vt 0.522599 0.817774
vt 0.537736 0.815577
vt 0.52324 0.929533
vt 0.538652 0.931578
vt 0.521134 0.935118
vt 0.534074 0.943236
vt 0.516892 0.939268
vt 0.525163 0.952025
vt 0.513565 0.95645
vt 0.354381 0.941557
vt 0.352336 0.956664
vt 0.348857 0.939421
vt 0.340861 0.952239
vt 0.344737 0.93524
vt 0.332072 0.943449
vt 0.342753 0.929716
vt 0.327586 0.931883
vt 0.342112 0.817957
vt 0.226691 0.929991
vt 0.226295 0.819971
vt 0.071261 0.820246
vt 0.071657 0.930235
vt 0.070315 0.80755
vt 0.227638 0.942686
vt 0.227271 0.807306
vt 0.068087 0.792383
vt 0.05649 0.796808
vt 0.229316 0.792169
vt 0.06473 0.809564
vt 0.047548 0.805628
vt 0.232795 0.809412
vt 0.240791 0.796625
vt 0.060518 0.813746
vt 0.043001 0.817255
vt 0.236915 0.813623
vt 0.24958 0.805414
vt 0.238899 0.819147
vt 0.254036 0.81695
vt 0.23954 0.930906
vt 0.254952 0.932951
vt 0.237434 0.936491
vt 0.250404 0.944609
vt 0.233192 0.940672
vt 0.241462 0.953429
vt 0.229865 0.957854
vt 0.070681 0.94293
vt 0.068636 0.958068
vt 0.065157 0.940825
vt 0.057161 0.953612
vt 0.061037 0.936613
vt 0.048372 0.944823
vt 0.059053 0.931089
vt 0.043916 0.933287
vt 0.058412 0.81933
vt 0.517563 0.966582
vt 0.532334 0.961211
vt 0.348338 0.966765
vt 0.520829 0.985656
vt 0.542985 0.97879
vt 0.345164 0.985656
vt 0.56151 0.960753
vt 0.333659 0.961272
vt 0.323191 0.978698
vt 0.54387 0.949858
vt 0.569079 0.938353
vt 0.549547 0.934965
vt 0.567614 0.808679
vt 0.548387 0.81225
vt 0.542955 0.79754
vt 0.560289 0.786737
vt 0.542131 0.768792
vt 0.531663 0.786187
vt 0.520188 0.761834
vt 0.516984 0.780725
vt 0.344493 0.761834
vt 0.347789 0.780877
vt 0.332987 0.786279
vt 0.322336 0.76867
vt 0.303812 0.786737
vt 0.321451 0.797601
vt 0.296243 0.809107
vt 0.315806 0.812494
vt 0.297708 0.93878
vt 0.316935 0.93524
vt 0.322367 0.949919
vt 0.305032 0.960723
vt 0.233863 0.967956
vt 0.248665 0.962584
vt 0.064669 0.968139
vt 0.237159 0.98703
vt 0.259285 0.980163
vt 0.061464 0.98703
vt 0.277841 0.962127
vt 0.049959 0.962645
vt 0.039491 0.980071
vt 0.260201 0.951262
vt 0.285409 0.939756
vt 0.265847 0.936369
vt 0.283944 0.810083
vt 0.264687 0.813623
vt 0.259255 0.798914
vt 0.276589 0.78811
vt 0.258461 0.770165
vt 0.247993 0.787561
vt 0.236488 0.763207
vt 0.233283 0.782098
vt 0.060793 0.763207
vt 0.064089 0.78225
vt 0.049287 0.787652
vt 0.038636 0.770043
vt 0.020112 0.78811
vt 0.037751 0.798975
vt 0.012543 0.81048
vt 0.032105 0.813868
vt 0.014008 0.940153
vt 0.033265 0.936613
vt 0.038697 0.951292
vt 0.021363 0.962127
vt 0.160436 0.509781
vt 0.749168 0.508927
vt 0.749168 0.402356
vt 0.756859 0.512223
vt 0.749443 0.515397
vt 0.756981 0.397504
vt 0.749352 0.743095
vt 0.756615 0.743767
vt 0.750298 0.751061
vt 0.160894 0.743919
vt 0.159948 0.751915
vt 0.15363 0.744621
vt 0.160192 0.516251
vt 0.152745 0.513108
vt 0.160222 0.403241
vt 0.15244 0.398419
vt 0.160131 0.394116
vt 0.74929 0.393231
vt 0.16007 0.357677
vt 0.152532 0.351634
vt 0.749321 0.356822
vt 0.756859 0.350597
vt 0.1601 0.347087
vt 0.013581 0.385876
vt 0.124912 0.386029
vt 0.013611 0.155583
vt 0.151769 0.155278
vt 0.158696 0.012421
vt 0.150151 0.013031
vt 0.159154 0.151402
vt 0.159032 0.157628
vt 0.747856 0.150548
vt 0.747978 0.011536
vt 0.756523 0.012116
vt 0.755333 0.154302
vt 0.747978 0.156926
vt 0.173925 0.317209
vt 0.173833 0.174017
vt 0.734031 0.317179
vt 0.73394 0.174017
vt 0.74926 0.346355
vt 0.899503 0.154332
vt 0.898648 0.383038
vt 0.787378 0.382458
vt 0.995758 0.99176
vt 0.995758 0.223884
vt 0.956023 0.223884
vt 0.956023 0.99176
vt 0.907529 0.223884
vt 0.907529 0.99176
vt 0.947233 0.99176
vt 0.947233 0.223884
vt 0.995605 0.216224
vt 0.995605 0.019013
vt 0.955901 0.019013
vt 0.955901 0.216224
vt 0.907376 0.019013
vt 0.907376 0.216224
vt 0.947081 0.216224
vt 0.947081 0.019013
vn 0.0119 0 -0.9999
vn -0.0119 0 -0.9999
vn -0.0108 0.1041 -0.9945
vn 0.0108 0.1041 -0.9945
vn 0.0126 0.9979 -0.0641
vn -0.0126 0.9979 -0.0641
vn -0.0115 0.9979 0.064
vn 0.0115 0.9979 0.064
vn -0.9819 0.1649 -0.0933
vn -0.3604 0.443 0.8209
vn -0.5581 0.0014 0.8297
vn -0.9943 0 -0.1065
vn 0.3604 0.443 0.8209
vn 0.5581 0.0014 0.8297
vn 0.9819 0.1649 -0.0933
vn 0.9943 0 -0.1065
vn 0.0249 -0.999 -0.0363
vn 0.0259 -0.9991 0.0342
vn -0.0259 -0.9991 0.0342
vn -0.0249 -0.999 -0.0363
vn -0.0069 -0.7945 0.6072
vn 0.0083 -0.794 -0.6079
vn 0.0069 -0.7945 0.6072
vn -0.0124 -0.6068 0.7948
vn -0.3989 -0.6075 0.6869
vn 0.0124 -0.6068 0.7948
vn -0.3513 -0.7108 0.6094
vn -0.6896 -0.6069 0.3952
vn 0.3513 -0.7108 0.6094
vn 0.3989 -0.6075 0.6869
vn -0.6094 -0.7108 0.3513
vn -0.7961 -0.605 0.0152
vn 0.6094 -0.7108 0.3513
vn 0.6896 -0.6069 0.3952
vn 0.6099 -0.7924 0.0124
vn 0.7961 -0.605 0.0152
vn 0.6101 -0.7923 -0.0097
vn 0.7949 -0.6066 -0.0152
vn 0.6112 -0.7092 -0.3513
vn 0.6885 -0.6057 -0.3989
vn 0.3531 -0.7095 -0.6098
vn 0.397 -0.6054 -0.6898
vn 0.011 -0.6046 -0.7965
vn -0.0083 -0.794 -0.6079
vn -0.011 -0.6046 -0.7965
vn -0.3531 -0.7095 -0.6098
vn -0.397 -0.6054 -0.6898
vn -0.6112 -0.7092 -0.3513
vn -0.6885 -0.6057 -0.3989
vn -0.6101 -0.7923 -0.0097
vn -0.7949 -0.6066 -0.0152
vn -0.6099 -0.7924 0.0124
vn 0.0089 -0.9902 -0.1391
vn 0.1506 -0.9657 -0.2116
vn -0.3849 -0.6426 0.6625
vn -0.0152 -0.5864 0.8099
vn -0.6547 -0.6547 0.3777
vn -0.0089 -0.9902 -0.1391
vn 0.0152 -0.5864 0.8099
vn 0.0166 -0.7955 -0.6057
vn 0.3417 -0.7737 -0.5335
vn 0.3849 -0.6426 0.6625
vn -0.0166 -0.7955 -0.6057
vn 0.5544 -0.7639 -0.3304
vn -0.1506 -0.9657 -0.2116
vn 0.6547 -0.6547 0.3777
vn -0.3417 -0.7737 -0.5335
vn 0.2271 -0.963 -0.1448
vn 0.6381 -0.7696 -0.0238
vn 0.171 -0.9852 -0.0103
vn -0.777 -0.6291 0.0209
vn 0.6366 -0.7709 0.0238
vn -0.7782 -0.6276 -0.0209
vn 0.1723 -0.985 0.0103
vn -0.6564 -0.6531 -0.3777
vn 0.2281 -0.9632 0.1421
vn 0.5534 -0.7631 0.3339
vn 0.3401 -0.7721 0.5368
vn 0.152 -0.9654 0.2118
vn -0.3831 -0.6407 -0.6654
vn 0.018 -0.7974 0.6032
vn 0.0078 -0.9903 0.1389
vn -0.0166 -0.5886 -0.8083
vn -0.018 -0.7974 0.6032
vn 0.0166 -0.5886 -0.8083
vn -0.0078 -0.9903 0.1389
vn 0.3831 -0.6407 -0.6654
vn -0.152 -0.9654 0.2118
vn -0.3401 -0.7721 0.5368
vn 0.6564 -0.6531 -0.3777
vn -0.5534 -0.7631 0.3339
vn -0.2281 -0.9632 0.1421
vn -0.6366 -0.7709 0.0238
vn -0.1723 -0.985 0.0103
vn 0.7782 -0.6276 -0.0209
vn -0.6381 -0.7696 -0.0238
vn 0.777 -0.6291 0.0209
vn -0.171 -0.9852 -0.0103
vn -0.2271 -0.963 -0.1448
vn -0.5544 -0.7639 -0.3304
vn 0.0104 -0.0562 -0.9984
vn -0.0104 -0.0562 -0.9984
vn -0.0102 0.0389 -0.9992
vn -0.9991 -0.0372 -0.0196
vn -0.0081 -0.9997 -0.0232
vn -0.9997 0.006 -0.0231
vn -0.0091 -0.9997 0.0232
vn -0.999 -0.0383 0.0217
vn -0.0113 -0.0443 0.999
vn 0.0091 -0.9997 0.0232
vn 0.0113 -0.0443 0.999
vn 0.999 -0.0383 0.0217
vn 0.0081 -0.9997 -0.0232
vn 0.9991 -0.0372 -0.0196
vn 0.0102 0.0389 -0.9992
vn 0.9997 0.006 -0.0231
vn 0.0083 0.7064 -0.7078
vn -0.0083 0.7064 -0.7078
vn 0.0082 0.8168 -0.5769
vn 0.9992 0.0387 -0.0031
vn -0.0082 0.8168 -0.5769
vn -0.9992 0.0387 -0.0031
vn 0.0393 0.9959 -0.0819
vn 0.9992 0.032 0.0237
vn 0.0113 0.0443 0.999
vn 0.0611 0.9812 0.1833
vn -0.0113 0.0443 0.999
vn -0.9992 0.032 0.0237
vn -0.0611 0.9812 0.1833
vn 0 1 -0.001
vn -0.0393 0.9959 -0.0819
vn 0.001 0.001 1
vn 0 0 -1
vn 1 0 -0.001
vn -1 0 -0.001
o stattrak_module
f 1/1/1 2/2/2 3/3/3
f 1/1/1 3/3/3 4/4/4
f 4/4/4 3/3/3 5/5/5
f 5/5/5 3/3/3 6/6/6
f 5/5/5 6/6/6 7/7/7
f 5/5/5 7/7/7 8/8/8
f 7/7/7 6/6/6 9/9/9
f 9/9/9 6/6/6 3/10/3
f 7/7/7 9/9/9 10/11/10
f 10/11/10 9/9/9 11/12/11
f 11/12/11 9/9/9 12/13/12
f 12/13/12 9/9/9 3/10/3
f 12/13/12 3/10/3 2/14/2
f 13/15/13 8/8/8 7/7/7
f 13/15/13 7/7/7 10/16/10
f 13/15/13 10/16/10 14/17/14
f 14/17/14 10/16/10 11/18/11
f 15/19/15 5/5/5 8/8/8
f 15/19/15 8/8/8 13/20/13
f 15/19/15 13/20/13 14/21/14
f 5/5/5 15/19/15 4/22/4
f 15/19/15 14/21/14 16/23/16
f 15/19/15 16/23/16 4/22/4
f 4/22/4 16/23/16 1/24/1
f 17/25/17 18/26/18 19/27/19
f 17/25/17 19/27/19 20/28/20
f 19/27/19 18/26/18 21/29/21
f 17/25/17 20/28/20 22/30/22
f 21/29/21 18/26/18 23/31/23
f 21/29/21 23/31/23 24/32/24
f 21/29/21 24/32/24 25/33/25
f 24/32/24 23/31/23 26/34/26
f 21/29/21 25/33/25 27/35/27
f 21/29/21 27/35/27 19/27/19
f 27/35/27 25/33/25 28/36/28
f 26/34/26 23/31/23 29/37/29
f 29/37/29 23/31/23 18/26/18
f 26/34/26 29/37/29 30/38/30
f 27/35/27 28/36/28 31/39/31
f 27/35/27 31/39/31 19/27/19
f 31/39/31 28/36/28 32/40/32
f 30/38/30 29/37/29 33/41/33
f 33/41/33 29/37/29 18/26/18
f 30/38/30 33/41/33 34/42/34
f 33/41/33 18/26/18 35/43/35
f 33/41/33 35/43/35 34/42/34
f 34/42/34 35/43/35 36/44/36
f 35/43/35 18/26/18 17/25/17
f 36/44/36 35/43/35 37/45/37
f 37/45/37 35/43/35 17/25/17
f 36/44/36 37/45/37 38/46/38
f 38/46/38 37/45/37 39/47/39
f 39/47/39 37/45/37 17/25/17
f 38/46/38 39/47/39 40/48/40
f 39/47/39 17/25/17 41/49/41
f 39/47/39 41/49/41 40/48/40
f 40/48/40 41/49/41 42/50/42
f 41/49/41 17/25/17 22/30/22
f 41/49/41 22/30/22 42/50/42
f 42/50/42 22/30/22 43/51/43
f 43/51/43 22/30/22 44/52/44
f 43/51/43 44/52/44 45/53/45
f 44/52/44 22/30/22 20/28/20
f 45/53/45 44/52/44 46/54/46
f 46/54/46 44/52/44 20/28/20
f 45/53/45 46/54/46 47/55/47
f 47/55/47 46/54/46 48/56/48
f 48/56/48 46/54/46 20/28/20
f 47/55/47 48/56/48 49/57/49
f 48/56/48 20/28/20 50/58/50
f 48/56/48 50/58/50 49/57/49
f 50/58/50 20/28/20 19/27/19
f 49/57/49 50/58/50 51/59/51
f 50/58/50 19/27/19 52/60/52
f 50/58/50 52/60/52 51/59/51
f 52/60/52 19/27/19 31/39/31
f 51/59/51 52/60/52 32/40/32
f 32/40/32 52/60/52 31/39/31
f 53/61/17 54/62/18 55/63/19
f 53/61/17 55/63/19 56/64/20
f 55/63/19 54/62/18 57/65/21
f 53/61/17 56/64/20 58/66/22
f 57/65/21 54/62/18 59/67/23
f 57/65/21 59/67/23 60/68/24
f 57/65/21 60/68/24 61/69/25
f 60/68/24 59/67/23 62/70/26
f 57/65/21 61/69/25 63/71/27
f 57/65/21 63/71/27 55/63/19
f 63/71/27 61/69/25 64/72/28
f 62/70/26 59/67/23 65/73/29
f 65/73/29 59/67/23 54/62/18
f 62/70/26 65/73/29 66/74/30
f 63/71/27 64/72/28 67/75/31
f 63/71/27 67/75/31 55/63/19
f 67/75/31 64/72/28 68/76/32
f 66/74/30 65/73/29 69/77/33
f 69/77/33 65/73/29 54/62/18
f 66/74/30 69/77/33 70/78/34
f 69/77/33 54/62/18 71/79/35
f 69/77/33 71/79/35 70/78/34
f 70/78/34 71/79/35 72/80/36
f 71/79/35 54/62/18 53/61/17
f 72/80/36 71/79/35 73/81/37
f 73/81/37 71/79/35 53/61/17
f 72/80/36 73/81/37 74/82/38
f 74/82/38 73/81/37 75/83/39
f 75/83/39 73/81/37 53/61/17
f 74/82/38 75/83/39 76/84/40
f 75/83/39 53/61/17 77/85/41
f 75/83/39 77/85/41 76/84/40
f 76/84/40 77/85/41 78/86/42
f 77/85/41 53/61/17 58/66/22
f 77/85/41 58/66/22 78/86/42
f 78/86/42 58/66/22 79/87/43
f 79/87/43 58/66/22 80/88/44
f 79/87/43 80/88/44 81/89/45
f 80/88/44 58/66/22 56/64/20
f 81/89/45 80/88/44 82/90/46
f 82/90/46 80/88/44 56/64/20
f 81/89/45 82/90/46 83/91/47
f 83/91/47 82/90/46 84/92/48
f 84/92/48 82/90/46 56/64/20
f 83/91/47 84/92/48 85/93/49
f 84/92/48 56/64/20 86/94/50
f 84/92/48 86/94/50 85/93/49
f 86/94/50 56/64/20 55/63/19
f 85/93/49 86/94/50 87/95/51
f 86/94/50 55/63/19 88/96/52
f 86/94/50 88/96/52 87/95/51
f 88/96/52 55/63/19 67/75/31
f 87/95/51 88/96/52 68/76/32
f 68/76/32 88/96/52 67/75/31
f 89/97/53 90/98/54 42/50/55
f 89/97/53 42/50/55 43/51/56
f 42/50/55 90/98/54 40/48/57
f 89/97/53 43/51/56 91/99/58
f 91/99/58 43/51/56 45/53/59
f 90/98/54 89/97/53 92/100/60
f 92/100/60 89/97/53 91/99/58
f 90/98/54 92/100/60 93/101/61
f 91/99/58 45/53/59 47/55/62
f 92/100/60 91/99/58 94/102/63
f 90/98/54 93/101/61 95/103/64
f 91/99/58 47/55/62 96/104/65
f 91/99/58 96/104/65 94/102/63
f 96/104/65 47/55/62 49/57/66
f 94/102/63 96/104/65 97/105/67
f 90/98/54 95/103/64 98/106/68
f 90/98/54 98/106/68 40/48/57
f 98/106/68 95/103/64 99/107/69
f 40/48/57 98/106/68 100/108/70
f 100/108/70 98/106/68 99/107/69
f 40/48/57 100/108/70 38/46/71
f 100/108/70 99/107/69 101/109/72
f 38/46/71 100/108/70 36/44/73
f 36/44/73 100/108/70 102/110/74
f 102/110/74 100/108/70 101/109/72
f 36/44/73 102/110/74 34/42/75
f 102/110/74 101/109/72 103/111/76
f 102/110/74 103/111/76 34/42/75
f 103/111/76 101/109/72 104/112/77
f 103/111/76 104/112/77 105/113/78
f 34/42/75 103/111/76 106/114/79
f 106/114/79 103/111/76 105/113/78
f 34/42/75 106/114/79 30/38/80
f 106/114/79 105/113/78 107/115/81
f 30/38/80 106/114/79 108/116/82
f 108/116/82 106/114/79 107/115/81
f 30/38/80 108/116/82 26/34/83
f 108/116/82 107/115/81 109/117/84
f 26/34/83 108/116/82 24/32/85
f 24/32/85 108/116/82 110/118/86
f 110/118/86 108/116/82 109/117/84
f 24/32/85 110/118/86 25/33/87
f 110/118/86 109/117/84 111/119/88
f 110/118/86 111/119/88 25/33/87
f 111/119/88 109/117/84 112/120/89
f 25/33/87 111/119/88 28/36/90
f 111/119/88 112/120/89 113/121/91
f 111/119/88 113/121/91 114/122/92
f 111/119/88 114/122/92 28/36/90
f 114/122/92 113/121/91 115/123/93
f 28/36/90 114/122/92 116/124/94
f 116/124/94 114/122/92 115/123/93
f 28/36/90 116/124/94 32/40/95
f 116/124/94 115/123/93 117/125/96
f 32/40/95 116/124/94 51/59/97
f 51/59/97 116/124/94 118/126/98
f 118/126/98 116/124/94 117/125/96
f 51/59/97 118/126/98 49/57/66
f 118/126/98 117/125/96 119/127/99
f 118/126/98 119/127/99 49/57/66
f 119/127/99 117/125/96 120/128/100
f 49/57/66 119/127/99 96/104/65
f 119/127/99 120/128/100 97/105/67
f 119/127/99 97/105/67 96/104/65
f 121/129/53 122/130/54 78/86/55
f 121/129/53 78/86/55 79/87/56
f 78/86/55 122/130/54 76/84/57
f 121/129/53 79/87/56 123/131/58
f 123/131/58 79/87/56 81/89/59
f 122/130/54 121/129/53 124/132/60
f 124/132/60 121/129/53 123/131/58
f 122/130/54 124/132/60 125/133/61
f 123/131/58 81/89/59 83/91/62
f 124/132/60 123/131/58 126/134/63
f 122/130/54 125/133/61 127/135/64
f 123/131/58 83/91/62 128/136/65
f 123/131/58 128/136/65 126/134/63
f 128/136/65 83/91/62 85/93/66
f 126/134/63 128/136/65 129/137/67
f 122/130/54 127/135/64 130/138/68
f 122/130/54 130/138/68 76/84/57
f 130/138/68 127/135/64 131/139/69
f 76/84/57 130/138/68 132/140/70
f 132/140/70 130/138/68 131/139/69
f 76/84/57 132/140/70 74/82/71
f 132/140/70 131/139/69 133/141/72
f 74/82/71 132/140/70 72/80/73
f 72/80/73 132/140/70 134/142/74
f 134/142/74 132/140/70 133/141/72
f 72/80/73 134/142/74 70/78/75
f 134/142/74 133/141/72 135/143/76
f 134/142/74 135/143/76 70/78/75
f 135/143/76 133/141/72 136/144/77
f 135/143/76 136/144/77 137/145/78
f 70/78/75 135/143/76 138/146/79
f 138/146/79 135/143/76 137/145/78
f 70/78/75 138/146/79 66/74/80
f 138/146/79 137/145/78 139/147/81
f 66/74/80 138/146/79 140/148/82
f 140/148/82 138/146/79 139/147/81
f 66/74/80 140/148/82 62/70/83
f 140/148/82 139/147/81 141/149/84
f 62/70/83 140/148/82 60/68/85
f 60/68/85 140/148/82 142/150/86
f 142/150/86 140/148/82 141/149/84
f 60/68/85 142/150/86 61/69/87
f 142/150/86 141/149/84 143/151/88
f 142/150/86 143/151/88 61/69/87
f 143/151/88 141/149/84 144/152/89
f 61/69/87 143/151/88 64/72/90
f 143/151/88 144/152/89 145/153/91
f 143/151/88 145/153/91 146/154/92
f 143/151/88 146/154/92 64/72/90
f 146/154/92 145/153/91 147/155/93
f 64/72/90 146/154/92 148/156/94
f 148/156/94 146/154/92 147/155/93
f 64/72/90 148/156/94 68/76/95
f 148/156/94 147/155/93 149/157/96
f 68/76/95 148/156/94 87/95/97
f 87/95/97 148/156/94 150/158/98
f 150/158/98 148/156/94 149/157/96
f 87/95/97 150/158/98 85/93/66
f 150/158/98 149/157/96 151/159/99
f 150/158/98 151/159/99 85/93/66
f 151/159/99 149/157/96 152/160/100
f 85/93/66 151/159/99 128/136/65
f 151/159/99 152/160/100 129/137/67
f 151/159/99 129/137/67 128/136/65
f 153/161/101 154/162/102 155/163/103
f 155/163/103 154/162/102 156/164/104
f 156/164/104 154/162/102 157/165/105
f 157/165/105 154/162/102 153/161/101
f 155/163/103 156/164/104 158/166/106
f 156/164/104 157/165/105 159/167/107
f 156/164/104 159/167/107 160/168/108
f 160/168/108 159/167/107 161/169/109
f 161/169/109 159/167/107 162/170/110
f 162/170/110 159/167/107 157/165/105
f 161/169/109 162/170/110 163/171/111
f 163/171/111 162/170/110 164/172/112
f 162/170/110 157/165/105 165/173/113
f 162/170/110 165/173/113 164/172/112
f 165/173/113 157/165/105 153/161/101
f 164/172/112 165/173/113 166/174/114
f 166/174/114 165/173/113 153/161/101
f 166/174/114 153/161/101 167/175/115
f 167/175/115 153/161/101 155/163/103
f 166/174/114 167/175/115 168/176/116
f 167/175/115 155/163/103 169/177/117
f 167/175/115 169/177/117 168/176/116
f 169/177/117 155/163/103 170/178/118
f 170/178/118 155/163/103 158/166/106
f 168/176/116 169/177/117 171/179/119
f 171/179/119 169/177/117 170/178/118
f 168/176/116 171/179/119 172/180/120
f 170/178/118 158/166/106 173/181/121
f 170/178/118 173/181/121 171/179/119
f 173/181/121 158/166/106 174/182/122
f 171/179/119 173/181/121 175/183/123
f 171/179/119 175/183/123 172/180/120
f 166/184/114 168/185/116 172/180/120
f 166/184/114 172/180/120 164/186/112
f 164/186/112 172/180/120 176/187/124
f 176/187/124 172/180/120 175/183/123
f 163/188/111 164/189/112 176/187/124
f 163/188/111 176/187/124 177/190/125
f 177/190/125 176/187/124 178/191/126
f 178/191/126 176/187/124 175/183/123
f 163/188/111 177/190/125 179/192/127
f 163/188/111 179/192/127 161/193/109
f 161/193/109 179/192/127 160/194/108
f 160/194/108 179/192/127 180/195/128
f 179/192/127 177/190/125 181/196/129
f 179/192/127 181/196/129 180/195/128
f 181/196/129 177/190/125 178/191/126
f 178/191/126 175/183/123 182/197/130
f 178/191/126 182/197/130 183/198/130
f 178/191/126 183/198/130 181/196/129
f 182/197/130 175/183/123 184/199/130
f 181/196/129 183/198/130 185/200/130
f 181/196/129 185/200/130 184/199/130
f 184/199/130 175/183/123 186/201/131
f 184/199/130 186/201/131 181/196/129
f 181/196/129 186/201/131 180/195/128
f 186/201/131 175/183/123 173/181/121
f 186/201/131 173/181/121 174/182/122
f 186/201/131 174/182/122 180/195/128
f 180/195/128 174/182/122 160/202/108
f 160/202/108 174/182/122 156/203/104
f 156/203/104 174/182/122 158/204/106
f 182/205/132 184/206/132 187/207/132
f 182/205/132 187/207/132 188/208/132
f 185/209/133 183/210/133 189/211/133
f 185/209/133 189/211/133 190/212/133
f 184/213/134 185/214/134 190/215/134
f 184/213/134 190/215/134 187/216/134
f 183/217/135 182/218/135 188/219/135
f 183/217/135 188/219/135 189/220/135
