# vertices shared and precision trimmed by tools/optimize_obj.py
v -0.02285 -0.00635 0.34649
v -0.02297 -0.00656 0.3461
v -0.00019 -0.00985 0.34758
v -0.00019 -0.00964 0.34796
v -0.00024 -0.01023 0.34659
v -0.02434 -0.00775 0.3436
v -0.00012 -0.0105 0.34601
v -0.02436 -0.00791 0.34317
v 0.00092 -0.01052 0.34661
v 0.00074 -0.01007 0.34779
v 0.00074 -0.00979 0.34814
v 0.00068 -0.01025 0.34713
v 0.00153 -0.01024 0.34804
v 0.00149 -0.00997 0.3484
v 0.00187 -0.01054 0.34749
v 0.0021 -0.01018 0.34875
v 0.00233 -0.01054 0.34827
v 0.00262 -0.01055 0.34928
v 0.00261 -0.01022 0.36164
v 0.00312 -0.01054 0.36162
v 0.00409 -0.01044 0.39281
v 0.0035 -0.01041 0.39328
v 0.00525 -0.01017 0.42076
v 0.00458 -0.01015 0.42095
v 0.00616 -0.00962 0.45608
v 0.00546 -0.0096 0.45606
v 0.0065 -0.00858 0.50066
v 0.0072 -0.0086 0.50069
v 0.00712 -0.00785 0.52558
v 0.00778 -0.00787 0.52559
v 0.00816 -0.00639 0.56635
v 0.00885 -0.00641 0.56637
v 0.00905 -0.00497 0.59936
v 0.00975 -0.00499 0.59937
v 0.00995 -0.00355 0.6247
v 0.00005 0.00315 0.34758
v 0.00093 0.00351 0.34713
v 0.00002 0.00352 0.34659
v -0.02418 0.00211 0.34317
v 0.00014 0.00379 0.34601
v -0.02416 0.00195 0.3436
v 0.00119 0.00377 0.34661
v -0.02283 0.00071 0.3461
v -0.02273 0.00049 0.34649
v 0.00005 0.00293 0.34796
v 0.00214 0.00375 0.34749
v 0.001 0.00333 0.34779
v 0.00098 0.00304 0.34814
v 0.00178 0.00347 0.34804
v 0.00174 0.0032 0.3484
v 0.0026 0.00374 0.34827
v 0.00235 0.00339 0.34875
v 0.00289 0.00374 0.34928
v 0.00287 0.00341 0.36164
v 0.00339 0.00371 0.36162
v 0.00435 0.00357 0.39281
v 0.00376 0.00356 0.39328
v 0.00551 0.00326 0.42076
v 0.00483 0.00326 0.42095
v 0.00639 0.00268 0.45608
v 0.00569 0.00268 0.45606
v 0.00669 0.00162 0.50066
v 0.00739 0.00162 0.50069
v 0.00729 0.00087 0.52558
v 0.00794 0.00086 0.52559
v 0.00827 -0.00063 0.56635
v 0.00896 -0.00064 0.56637
v 0.00911 -0.00207 0.59936
v 0.0098 -0.00209 0.59937
v 0.00995 -0.00353 0.6247
v -0.01755 -0.01003 0.23227
v -0.01727 -0.01018 0.2257
v -0.01728 -0.01018 0.23312
v -0.01774 -0.01005 0.23891
v -0.0176 -0.01017 0.23995
v -0.01821 -0.01002 0.24476
v -0.01761 -0.00995 0.23225
v -0.01821 -0.01016 0.24597
v -0.01762 -0.00995 0.22505
v -0.01756 -0.01017 0.21802
v -0.0177 -0.00984 0.22505
v -0.01893 -0.00993 0.24956
v -0.01916 -0.00982 0.2495
v -0.01908 -0.01014 0.25093
v -0.02001 -0.00964 0.25304
v -0.01798 -0.00982 0.21758
v -0.01804 -0.00965 0.21759
v -0.01813 -0.01016 0.21036
v -0.01859 -0.00964 0.21014
v -0.01863 -0.0094 0.21014
v -0.01901 -0.01015 0.20283
v -0.01946 -0.00908 0.20283
v -0.01946 -0.00941 0.20282
v -0.02052 -0.00875 0.19646
v -0.02048 -0.00917 0.19643
v -0.02007 -0.01013 0.19626
v -0.0217 -0.0089 0.19072
v -0.02177 -0.00836 0.19075
v -0.02135 -0.0101 0.19036
v -0.02303 -0.00861 0.18606
v -0.02311 -0.00797 0.18611
v -0.02278 -0.01007 0.18555
v -0.0244 -0.00833 0.18266
v -0.02453 -0.00758 0.18273
v -0.0243 -0.01005 0.182
v -0.02574 -0.00723 0.18095
v -0.02575 -0.00807 0.18068
v -0.02585 -0.01002 0.17986
v -0.0264 -0.00697 0.18067
v -0.02688 -0.00785 0.18015
v -0.02737 -0.00999 0.1792
v -0.02832 -0.00997 0.18002
v -0.02749 -0.00775 0.18073
v -0.02668 -0.00686 0.1808
v -0.02849 -0.00997 0.18228
v -0.02677 -0.00686 0.18276
v -0.02761 -0.00775 0.18278
v -0.02855 -0.00997 0.18593
v -0.02677 -0.0069 0.1863
v -0.02762 -0.00778 0.18633
v -0.02851 -0.00997 0.19084
v -0.02667 -0.00699 0.19106
v -0.02752 -0.00783 0.1911
v -0.02837 -0.00997 0.19681
v -0.02647 -0.00712 0.19687
v -0.02732 -0.00793 0.19691
v -0.02813 -0.00997 0.20361
v -0.02618 -0.00728 0.2035
v -0.02702 -0.00804 0.20354
v -0.02602 -0.00736 0.20642
v -0.02686 -0.00809 0.20646
v 0.00129 0.0038 0.14466
v -0.00034 0.00386 0.14439
v -0.00019 0.00382 0.14501
v -0.00154 0.00388 0.14516
v -0.00123 0.00384 0.14567
v 0.00125 0.00383 0.14401
v 0.03186 -0.00192 0.14324
v -0.00208 0.00385 0.14435
v -0.00062 0.00382 0.14305
v 0.03209 -0.00172 0.14278
v 0.03217 -0.00198 0.14323
v 0.00121 0.00378 0.14228
v -0.00116 0.00381 0.14234
v 0.0324 -0.00177 0.14277
v 0.03507 -0.00246 0.14313
v 0.03514 -0.0022 0.14269
v 0.03686 0.00257 0.14025
v 0.00091 0.00377 0.14129
v 0.03708 0.0031 0.13947
v -0.0028 0.00384 0.14372
v -0.03437 0.00443 0.12871
v -0.00363 0.00386 0.14505
v -0.00284 0.00387 0.14558
v -0.00402 0.00387 0.14706
v -0.00227 0.00389 0.14605
v -0.00186 0.00385 0.14643
v -0.00322 0.00388 0.14698
v -0.00284 0.0039 0.14717
v -0.00237 0.00386 0.1474
v -0.00361 0.00382 0.15478
v -0.00431 0.00387 0.15517
v -0.00256 0.00376 0.19142
v -0.00339 0.00385 0.19152
v -0.00136 0.00374 0.22494
v -0.00217 0.00383 0.22498
v 0.0009 0.00369 0.28488
v 0.00009 0.00379 0.2851
v 0.00232 0.00372 0.33078
v 0.00191 0.00376 0.33082
v -0.02315 -0.0062 0.34609
v -0.02414 -0.00541 0.3459
v -0.02411 -0.00522 0.34629
v -0.02303 -0.00601 0.34648
v -0.02346 -0.00421 0.35584
v -0.02237 -0.00573 0.3558
v -0.0227 -0.00367 0.36742
v -0.0222 -0.00578 0.35579
v -0.02154 -0.00542 0.3676
v -0.02138 -0.00552 0.36762
v -0.0183 -0.00459 0.41044
v -0.01845 -0.00453 0.41055
v -0.01962 -0.00299 0.4115
v -0.01678 -0.00463 0.42691
v -0.01695 -0.00457 0.42696
v -0.01834 -0.00301 0.42735
v -0.0146 -0.00456 0.45553
v -0.01477 -0.00451 0.45552
v -0.01607 -0.00305 0.45549
v -0.01143 -0.00314 0.49975
v -0.01037 -0.00452 0.49981
v -0.0102 -0.00458 0.49981
v -0.0061 -0.00463 0.53153
v -0.00626 -0.00457 0.5316
v -0.00716 -0.00322 0.53202
v -0.001 -0.00461 0.56673
v -0.00118 -0.00456 0.56674
v -0.0019 -0.00332 0.56675
v 0.00421 -0.00343 0.59937
v 0.00465 -0.00458 0.59938
v 0.00483 -0.00463 0.59938
v 0.00995 -0.00354 0.625
v -0.02303 0.00035 0.34609
v -0.02291 0.00016 0.34648
v -0.02404 -0.00039 0.3459
v -0.02402 -0.00059 0.34629
v -0.02342 -0.00162 0.35584
v -0.02227 -0.00014 0.3558
v -0.0221 -0.0001 0.35579
v -0.02267 -0.00219 0.36742
v -0.02145 -0.00048 0.3676
v -0.02128 -0.00039 0.36762
v -0.01824 -0.00144 0.41044
v -0.01839 -0.00149 0.41055
v -0.01672 -0.00145 0.42691
v -0.0169 -0.0015 0.42696
v -0.01454 -0.0016 0.45553
v -0.01472 -0.00165 0.45552
v -0.01032 -0.0018 0.49981
v -0.01014 -0.00175 0.49981
v -0.00605 -0.00186 0.53153
v -0.00621 -0.0019 0.5316
v -0.00095 -0.00207 0.56673
v -0.00113 -0.00211 0.56674
v 0.00469 -0.0023 0.59938
v 0.00488 -0.00226 0.59938
v -0.03521 0.00445 0.02944
v -0.02254 -0.01008 0.02993
v -0.03548 -0.00984 0.02944
v -0.03533 0.00445 0.02953
v -0.0356 -0.00983 0.02953
v -0.03539 0.00445 0.02965
v -0.03565 -0.00983 0.02965
v -0.03539 0.00445 0.0298
v -0.03566 -0.00983 0.0298
v -0.03541 0.00445 0.02994
v -0.03568 -0.00983 0.02994
v -0.03526 0.00445 0.04918
v -0.03553 -0.00984 0.04918
v -0.03492 0.00444 0.08894
v -0.03518 -0.00984 0.08894
v -0.03464 -0.00985 0.12871
v -0.03339 0.00442 0.16837
v -0.03365 -0.00987 0.16837
v -0.03199 0.00439 0.20717
v -0.03225 -0.0099 0.20717
v -0.03001 0.00435 0.24233
v -0.03028 -0.00993 0.24233
v -0.0279 0.00431 0.28465
v -0.02817 -0.00997 0.28465
v -0.02546 0.00313 0.32334
v -0.02568 -0.00889 0.32334
v -0.02479 0.00267 0.33366
v -0.02499 -0.00845 0.33366
v 0.02944 -0.00235 0.37162
v 0.02991 -0.00241 0.35358
v 0.02965 -0.00235 0.3536
v 0.03285 -0.00397 0.36983
v 0.03153 -0.00394 0.41343
v 0.03325 -0.00398 0.35345
v 0.02823 -0.00233 0.41399
v 0.02966 -0.00391 0.45728
v 0.02919 -0.00228 0.37183
v 0.02793 -0.00225 0.41408
v 0.02707 -0.00248 0.45715
v 0.02672 -0.00385 0.50105
v 0.02677 -0.0024 0.45713
v 0.02441 -0.0025 0.50096
v 0.02411 -0.00242 0.50096
v 0.02123 -0.00237 0.53247
v 0.02152 -0.00246 0.53261
v 0.02374 -0.0038 0.53321
v 0.01762 -0.00244 0.56728
v 0.01793 -0.00253 0.56731
v 0.01969 -0.00372 0.56744
v 0.01479 -0.00363 0.59945
v 0.01333 -0.00251 0.59939
v 0.01303 -0.00242 0.59938
v 0.02702 -0.00524 0.45715
v 0.02672 -0.00531 0.45713
v 0.02787 -0.00551 0.41408
v 0.02817 -0.00543 0.41399
v 0.02913 -0.00552 0.37183
v 0.02939 -0.00546 0.37162
v -0.00061 -0.01055 0.14439
v -0.00235 -0.01048 0.14435
v -0.00089 -0.01051 0.14305
v 0.00098 -0.01058 0.14401
v 0.00094 -0.01053 0.14228
v 0.00102 -0.01056 0.14466
v 0.03178 -0.00598 0.14324
v -0.00046 -0.01052 0.14501
v 0.03201 -0.00619 0.14278
v 0.03662 -0.01065 0.14025
v 0.03209 -0.00593 0.14323
v -0.00181 -0.01052 0.14516
v -0.0015 -0.01049 0.14567
v 0.03232 -0.00615 0.14277
v 0.03501 -0.00556 0.14313
v 0.03507 -0.00582 0.14269
v -0.00254 -0.01051 0.14605
v -0.00213 -0.01048 0.14643
v -0.00311 -0.01046 0.14558
v -0.00311 -0.0105 0.14717
v -0.00263 -0.01047 0.1474
v -0.00387 -0.01038 0.15478
v -0.00349 -0.01046 0.14698
v -0.00429 -0.01042 0.14706
v -0.0039 -0.01043 0.14505
v -0.00457 -0.01042 0.15517
v -0.00282 -0.01037 0.19142
v -0.00366 -0.01043 0.19152
v -0.00162 -0.01039 0.22494
v -0.00244 -0.01046 0.22498
v 0.00064 -0.01043 0.28488
v -0.00017 -0.0105 0.2851
v 0.00205 -0.01051 0.33078
v 0.00164 -0.01053 0.33082
v -0.00307 -0.01044 0.14372
v -0.00143 -0.01047 0.14234
v 0.00064 -0.01051 0.14129
v 0.03681 -0.01119 0.13947
v -0.02799 -0.00998 0.20661
v -0.0278 -0.00998 0.211
v -0.02739 -0.00999 0.21867
v -0.02693 -0.01 0.22634
v -0.02642 -0.01001 0.23371
v -0.02612 -0.01001 0.23763
v -0.02019 -0.01012 0.25465
v -0.0259 -0.01002 0.2405
v -0.02536 -0.01003 0.24644
v -0.02485 -0.01004 0.25132
v -0.02437 -0.01004 0.25493
v -0.02149 -0.0101 0.25698
v -0.02396 -0.01005 0.25715
v -0.02292 -0.01007 0.25784
v 0.02147 -0.00506 0.53261
v 0.01788 -0.00485 0.56731
v 0.01757 -0.00492 0.56728
v 0.01329 -0.00469 0.59939
v 0.01299 -0.00477 0.59938
v 0.02118 -0.00513 0.53247
v 0.02436 -0.00512 0.50096
v 0.02406 -0.00519 0.50096
v 0.0296 -0.00547 0.3536
v 0.03026 -0.0054 0.32762
v 0.02986 -0.00541 0.35358
v 0.03064 -0.00544 0.28493
v 0.03087 -0.00551 0.24229
v 0.03067 -0.00537 0.20202
v 0.03058 -0.00544 0.15981
v 0.03053 -0.00535 0.32755
v 0.0339 -0.00399 0.32703
v 0.03095 -0.00538 0.28493
v 0.0346 -0.004 0.28501
v 0.03487 -0.00401 0.24393
v 0.03115 -0.00545 0.24245
v 0.03494 -0.00401 0.20285
v 0.03098 -0.00532 0.20211
v 0.03487 -0.00401 0.16029
v 0.03089 -0.00539 0.15985
v -0.02234 -0.01008 0.02973
v 0.01914 -0.01086 -0.01607
v -0.02227 -0.01008 0.02915
v 0.00903 -0.01067 -0.01806
v 0.00415 -0.01058 -0.01806
v -0.0222 -0.01009 0.00816
v -0.0059 -0.01039 -0.01607
v -0.02015 -0.01012 -0.00188
v -0.01443 -0.01023 -0.01039
v 0.02774 -0.01102 -0.01041
v 0.03355 -0.01113 -0.00191
v 0.03572 -0.01117 0.00815
v 0.03645 -0.01118 0.05558
v 0.01846 -0.01092 0.1133
v 0.01581 -0.01087 0.11427
v 0.02126 -0.01097 0.11305
v 0.02403 -0.01102 0.11354
v 0.01351 -0.01083 0.11588
v 0.02657 -0.01107 0.11473
v 0.0117 -0.01079 0.11805
v 0.01051 -0.01077 0.12061
v 0.02873 -0.01111 0.11655
v 0.03034 -0.01114 0.11887
v 0.0313 -0.01116 0.12153
v 0.03155 -0.01116 0.12434
v 0.01002 -0.01076 0.1234
v 0.03106 -0.01115 0.12712
v 0.01027 -0.01077 0.12621
v 0.01123 -0.01078 0.12887
v 0.02987 -0.01113 0.12968
v 0.02806 -0.0111 0.13185
v 0.02576 -0.01105 0.13347
v 0.02312 -0.01101 0.13444
v 0.01284 -0.01081 0.13118
v 0.02032 -0.01095 0.13468
v 0.01499 -0.01085 0.133
v 0.01755 -0.0109 0.13419
v 0.01064 -0.00938 0.12613
v 0.01157 -0.0094 0.1287
v 0.0104 -0.00937 0.12341
v 0.01088 -0.00938 0.12072
v 0.01313 -0.00943 0.13094
v 0.01202 -0.0094 0.11824
v 0.01521 -0.00946 0.1327
v 0.01377 -0.00944 0.11615
v 0.01767 -0.00951 0.13385
v 0.016 -0.00948 0.11458
v 0.02036 -0.00956 0.13433
v 0.01855 -0.00953 0.11364
v 0.02306 -0.00961 0.13409
v 0.02127 -0.00958 0.11341
v 0.02562 -0.00966 0.13315
v 0.02394 -0.00963 0.11388
v 0.02785 -0.0097 0.13159
v 0.02641 -0.00967 0.11504
v 0.02959 -0.00973 0.12949
v 0.02849 -0.00971 0.11679
v 0.03075 -0.00976 0.12702
v 0.03122 -0.00976 0.12433
v 0.03005 -0.00974 0.11903
v 0.03098 -0.00976 0.1216
v -0.02487 -0.00791 0.22562
v -0.02536 -0.00768 0.21816
v -0.02435 -0.00814 0.23281
v -0.02404 -0.00827 0.23662
v -0.02382 -0.00837 0.23941
v -0.0258 -0.00747 0.21069
v -0.02361 -0.00857 0.2452
v -0.02312 -0.00876 0.24993
v -0.02268 -0.00892 0.25343
v -0.02097 -0.00941 0.25514
v -0.02234 -0.00904 0.25536
v -0.02184 -0.00918 0.25565
v 0.03063 -0.00241 0.15981
v 0.03094 -0.00248 0.15985
v 0.03073 -0.00249 0.20202
v 0.03093 -0.00235 0.24229
v 0.03103 -0.00255 0.20211
v 0.03069 -0.00241 0.28493
v 0.03121 -0.00242 0.24245
v 0.031 -0.00248 0.28493
v 0.03058 -0.0025 0.32755
v 0.03032 -0.00244 0.32762
v -0.02558 0.00427 0.17986
v -0.02403 0.00424 0.182
v -0.0271 0.0043 0.1792
v -0.02805 0.00432 0.18002
v -0.02822 0.00432 0.18228
v -0.02828 0.00432 0.18593
v -0.02251 0.00421 0.18555
v -0.02108 0.00419 0.19036
v -0.0198 0.00416 0.19626
v -0.01875 0.00414 0.20283
v -0.02824 0.00432 0.19084
v -0.01787 0.00413 0.21036
v -0.01729 0.00411 0.21802
v -0.0281 0.00432 0.19681
v -0.017 0.00411 0.2257
v -0.02786 0.00431 0.20361
v -0.01701 0.00411 0.23312
v -0.01733 0.00412 0.23995
v -0.01794 0.00413 0.24597
v -0.01881 0.00414 0.25093
v -0.02772 0.00431 0.20661
v -0.02753 0.00431 0.211
v -0.02712 0.0043 0.21867
v -0.02666 0.00429 0.22634
v -0.02616 0.00428 0.23371
v -0.01992 0.00416 0.25465
v -0.02122 0.00419 0.25698
v -0.02585 0.00428 0.23763
v -0.02563 0.00427 0.2405
v -0.0251 0.00426 0.24644
v -0.02458 0.00425 0.25132
v -0.02411 0.00424 0.25493
v -0.02369 0.00423 0.25715
v -0.02266 0.00422 0.25784
v 0.01078 0.00366 0.12061
v 0.01197 0.00364 0.11805
v 0.01378 0.00361 0.11588
v 0.01029 0.00367 0.1234
v 0.01054 0.00367 0.12621
v 0.0115 0.00365 0.12887
v 0.01311 0.00362 0.13118
v 0.01608 0.00356 0.11427
v 0.01526 0.00358 0.133
v 0.01782 0.00353 0.13419
v 0.02059 0.00348 0.13468
v 0.02339 0.00343 0.13444
v 0.01873 0.00351 0.1133
v 0.02153 0.00346 0.11305
v 0.02603 0.00338 0.13347
v 0.0243 0.00341 0.11354
v 0.02833 0.00333 0.13185
v 0.03014 0.0033 0.12968
v 0.03133 0.00328 0.12712
v 0.03182 0.00327 0.12434
v 0.03672 0.0031 0.05558
v 0.02684 0.00336 0.11473
v 0.03157 0.00327 0.12153
v 0.03061 0.00329 0.11887
v 0.029 0.00332 0.11655
v 0.03599 0.00312 0.00815
v 0.03382 0.00316 -0.00191
v 0.028 0.00327 -0.01041
v 0.0194 0.00343 -0.01607
v -0.02207 0.0042 0.02973
v -0.022 0.0042 0.02915
v 0.0093 0.00362 -0.01806
v 0.00442 0.00371 -0.01806
v -0.02193 0.0042 0.00816
v -0.00564 0.0039 -0.01607
v -0.01989 0.00416 -0.00188
v -0.01416 0.00406 -0.01039
v -0.02227 0.00421 0.02993
v 0.0312 0.00189 0.1216
v 0.03144 0.00188 0.12433
v 0.03027 0.0019 0.11903
v 0.02871 0.00193 0.11679
v 0.02663 0.00197 0.11504
v 0.02416 0.00202 0.11388
v 0.02149 0.00207 0.11341
v 0.01877 0.00212 0.11364
v 0.01622 0.00217 0.11458
v 0.01399 0.00221 0.11615
v 0.01224 0.00224 0.11824
v 0.0111 0.00226 0.12072
v 0.01062 0.00227 0.12341
v 0.01086 0.00227 0.12613
v 0.01179 0.00225 0.1287
v 0.01335 0.00222 0.13094
v 0.01543 0.00218 0.1327
v 0.01789 0.00214 0.13385
v 0.02058 0.00209 0.13433
v 0.02328 0.00203 0.13409
v 0.02584 0.00199 0.13315
v 0.02807 0.00195 0.13159
v 0.02981 0.00191 0.12949
v 0.03097 0.00189 0.12702
v -0.01735 0.00389 0.23225
v -0.01745 0.00379 0.22505
v -0.02468 0.00212 0.22562
v -0.02518 0.00192 0.21816
v -0.02415 0.00234 0.23281
v -0.0178 0.00361 0.21759
v -0.02384 0.00245 0.23662
v -0.02563 0.00172 0.21069
v -0.02361 0.00254 0.23941
v -0.01839 0.00338 0.21014
v -0.01748 0.004 0.23891
v -0.01923 0.0031 0.20283
v -0.01795 0.00398 0.24476
v -0.02585 0.00162 0.20642
v -0.0234 0.00274 0.2452
v -0.02031 0.0028 0.19646
v -0.0189 0.00383 0.2495
v -0.02291 0.00291 0.24993
v -0.01976 0.00368 0.25304
v -0.02245 0.00306 0.25343
v -0.02073 0.00348 0.25514
v -0.02211 0.00317 0.25536
v -0.02161 0.00329 0.25565
v -0.02157 0.00246 0.19075
v -0.02601 0.00155 0.2035
v -0.02631 0.0014 0.19687
v -0.02652 0.00128 0.19106
v -0.02292 0.00212 0.18611
v -0.02662 0.00119 0.1863
v -0.02436 0.00179 0.18273
v -0.02662 0.00115 0.18276
v -0.02558 0.00148 0.18095
v -0.02653 0.00115 0.1808
v -0.02625 0.00125 0.18067
v -0.02713 0.00223 0.19691
v -0.02734 0.00215 0.1911
v -0.02683 0.00234 0.20354
v -0.02667 0.00238 0.20646
v -0.02644 0.00245 0.21073
v -0.02598 0.00259 0.21821
v -0.02546 0.00273 0.22567
v -0.02491 0.00287 0.23285
v -0.02459 0.00295 0.23667
v -0.02435 0.00301 0.23946
v -0.0238 0.00314 0.24525
v -0.02328 0.00326 0.24999
v -0.02281 0.00336 0.2535
v -0.02243 0.00343 0.25551
v -0.02175 0.00353 0.25599
v -0.02068 0.00368 0.2553
v -0.0196 0.00382 0.25314
v -0.01867 0.00392 0.24956
v -0.01728 0.00397 0.23227
v -0.01736 0.00389 0.22505
v -0.01772 0.00378 0.21758
v -0.01834 0.00362 0.21014
v -0.01922 0.00343 0.20282
v -0.02025 0.00322 0.19643
v -0.02147 0.003 0.19072
v -0.02281 0.00276 0.18606
v -0.0242 0.00253 0.18266
v -0.02555 0.00232 0.18068
v -0.02669 0.00215 0.18015
v -0.02731 0.00206 0.18073
v -0.02743 0.00207 0.18278
v -0.02743 0.0021 0.18633
v -0.02664 -0.00817 0.21073
v -0.02618 -0.00832 0.21821
v -0.02567 -0.00848 0.22567
v -0.02513 -0.00864 0.23285
v -0.02481 -0.00874 0.23667
v -0.02458 -0.00881 0.23946
v -0.02403 -0.00895 0.24525
v -0.02351 -0.00909 0.24999
v -0.02305 -0.00921 0.2535
v -0.02267 -0.0093 0.25551
v -0.022 -0.00943 0.25599
v -0.02093 -0.00961 0.2553
v -0.01986 -0.00979 0.25314
vt 0.198364 0.568359
vt 0.198486 0.567383
vt 0.16333 0.569824
vt 0.16333 0.570312
vt 0.163452 0.568359
vt 0.200562 0.563477
vt 0.163208 0.567383
vt 0.200684 0.562988
vt 0.161621 0.568359
vt 0.161987 0.570312
vt 0.161987 0.570801
vt 0.161987 0.569336
vt 0.160767 0.570312
vt 0.160767 0.571289
vt 0.160156 0.569824
vt 0.15979 0.571777
vt 0.159424 0.570801
vt 0.159058 0.572266
vt 0.159058 0.591309
vt 0.158203 0.591309
vt 0.156738 0.639648
vt 0.157715 0.640137
vt 0.155029 0.682617
vt 0.156006 0.682617
vt 0.153564 0.736816
vt 0.154663 0.736816
vt 0.153076 0.805176
vt 0.1521 0.805664
vt 0.152222 0.84375
vt 0.151123 0.84375
vt 0.150635 0.906738
vt 0.149536 0.906738
vt 0.149292 0.957519
vt 0.148193 0.957519
vt 0.147949 0.996094
vt 0.059265 0.43335
vt 0.057922 0.434082
vt 0.059326 0.434814
vt 0.096497 0.440186
vt 0.059143 0.435791
vt 0.096436 0.439453
vt 0.057526 0.434814
vt 0.09436 0.435547
vt 0.094238 0.435059
vt 0.059265 0.432617
vt 0.056061 0.43335
vt 0.0578 0.433105
vt 0.057831 0.432373
vt 0.05661 0.432617
vt 0.056671 0.432129
vt 0.055359 0.432373
vt 0.055725 0.431641
vt 0.054901 0.430664
vt 0.054932 0.411621
vt 0.054138 0.411621
vt 0.052673 0.36377
vt 0.053558 0.363037
vt 0.050873 0.320801
vt 0.05191 0.320312
vt 0.0495 0.266357
vt 0.050568 0.266357
vt 0.048981 0.197754
vt 0.047913 0.197754
vt 0.048065 0.159424
vt 0.047058 0.159424
vt 0.046509 0.096741
vt 0.045441 0.09668
vt 0.045166 0.045959
vt 0.044098 0.045929
vt 0.043854 0.006966
vt 0.190063 0.392578
vt 0.189697 0.382324
vt 0.189697 0.393799
vt 0.19043 0.402588
vt 0.190186 0.404297
vt 0.19104 0.411621
vt 0.190186 0.392578
vt 0.19104 0.413574
vt 0.190186 0.381348
vt 0.190063 0.370605
vt 0.190308 0.381348
vt 0.192261 0.419189
vt 0.192505 0.418945
vt 0.192383 0.421143
vt 0.193848 0.424561
vt 0.190796 0.369873
vt 0.190918 0.358887
vt 0.19165 0.358398
vt 0.191773 0.358398
vt 0.192383 0.347168
vt 0.192993 0.347168
vt 0.194702 0.337402
vt 0.19458 0.337402
vt 0.19397 0.337158
vt 0.196533 0.328613
vt 0.196655 0.328613
vt 0.195923 0.327881
vt 0.198608 0.321289
vt 0.198731 0.321533
vt 0.19812 0.320557
vt 0.200684 0.316162
vt 0.200928 0.316162
vt 0.200439 0.315186
vt 0.202759 0.313477
vt 0.202759 0.312988
vt 0.202881 0.311768
vt 0.203735 0.312988
vt 0.204468 0.312256
vt 0.2052 0.310791
vt 0.206665 0.312012
vt 0.205444 0.313232
vt 0.204224 0.313232
vt 0.206909 0.315674
vt 0.204346 0.316406
vt 0.205566 0.316406
vt 0.207031 0.321289
vt 0.204346 0.321777
vt 0.205688 0.321777
vt 0.206909 0.328613
vt 0.204224 0.329102
vt 0.205444 0.329102
vt 0.206665 0.337891
vt 0.203857 0.338135
vt 0.2052 0.338135
vt 0.206299 0.348389
vt 0.203491 0.348145
vt 0.204712 0.348389
vt 0.203247 0.352783
vt 0.204468 0.352783
vt 0.057373 0.745606
vt 0.059875 0.746094
vt 0.059631 0.745117
vt 0.061737 0.744629
vt 0.061249 0.744141
vt 0.057434 0.746582
vt 0.010185 0.747559
vt 0.062561 0.746094
vt 0.060303 0.748047
vt 0.009834 0.748535
vt 0.009712 0.747559
vt 0.057495 0.749023
vt 0.061157 0.749023
vt 0.009354 0.748535
vt 0.005238 0.748047
vt 0.005127 0.748535
vt 0.002617 0.752441
vt 0.057953 0.750488
vt 0.002295 0.753418
vt 0.06366 0.74707
vt 0.112244 0.770019
vt 0.064941 0.745117
vt 0.063721 0.744141
vt 0.065552 0.741699
vt 0.062866 0.743164
vt 0.062225 0.742676
vt 0.06427 0.741699
vt 0.063721 0.741699
vt 0.062988 0.741211
vt 0.06488 0.729981
vt 0.065979 0.729492
vt 0.063293 0.67334
vt 0.064575 0.67334
vt 0.061432 0.62207
vt 0.062683 0.62207
vt 0.057983 0.529785
vt 0.059204 0.529297
vt 0.055786 0.459228
vt 0.056427 0.459228
vt 0.198852 0.567383
vt 0.200317 0.567383
vt 0.200317 0.567871
vt 0.198608 0.568359
vt 0.199341 0.582519
vt 0.197632 0.582519
vt 0.198242 0.600586
vt 0.197388 0.582519
vt 0.196411 0.600586
vt 0.196167 0.600586
vt 0.191406 0.666504
vt 0.19165 0.666504
vt 0.193481 0.667969
vt 0.189087 0.691894
vt 0.189331 0.691894
vt 0.191528 0.692383
vt 0.185669 0.73584
vt 0.185913 0.73584
vt 0.187988 0.73584
vt 0.180908 0.804199
vt 0.179199 0.804199
vt 0.178955 0.804199
vt 0.172607 0.853027
vt 0.172852 0.853027
vt 0.174316 0.853516
vt 0.164795 0.907227
vt 0.165039 0.907227
vt 0.166138 0.907227
vt 0.156738 0.957519
vt 0.156128 0.957519
vt 0.155762 0.957519
vt 0.147949 0.996582
vt 0.094666 0.435547
vt 0.094482 0.435059
vt 0.096191 0.435791
vt 0.096191 0.435303
vt 0.095215 0.420654
vt 0.093506 0.420654
vt 0.093201 0.420654
vt 0.094055 0.402832
vt 0.092224 0.402588
vt 0.09198 0.402588
vt 0.08728 0.33667
vt 0.087463 0.336426
vt 0.089355 0.334961
vt 0.0849 0.311279
vt 0.085205 0.311035
vt 0.087341 0.310547
vt 0.081543 0.26709
vt 0.081848 0.26709
vt 0.083862 0.267334
vt 0.076721 0.199219
vt 0.075073 0.199097
vt 0.074768 0.199097
vt 0.068481 0.150269
vt 0.068726 0.150146
vt 0.070129 0.149536
vt 0.060669 0.09613
vt 0.060944 0.09613
vt 0.062073 0.09613
vt 0.052673 0.045929
vt 0.051971 0.045929
vt 0.051697 0.045929
vt 0.840332 0.508301
vt 0.854004 0.524414
vt 0.854004 0.508301
vt 0.840332 0.507812
vt 0.854004 0.507812
vt 0.854004 0.507324
vt 0.840332 0.507324
vt 0.840332 0.483154
vt 0.854004 0.48291
vt 0.840332 0.432373
vt 0.854004 0.432373
vt 0.840332 0.381592
vt 0.854004 0.381592
vt 0.840332 0.330566
vt 0.854004 0.330566
vt 0.840332 0.281006
vt 0.854004 0.281006
vt 0.840332 0.235962
vt 0.854004 0.235962
vt 0.840332 0.181641
vt 0.854004 0.181641
vt 0.840332 0.131958
vt 0.854004 0.131958
vt 0.840332 0.118774
vt 0.854004 0.118713
vt 0.84082 0.106567
vt 0.853516 0.106445
vt 0.841309 0.105957
vt 0.853027 0.105774
vt 0.84375 0.1026
vt 0.850098 0.102539
vt 0.844238 0.102051
vt 0.850098 0.10199
vt 0.845215 0.08844
vt 0.848144 0.088501
vt 0.845703 0.072021
vt 0.847168 0.072083
vt 0.84668 0.007904
vt 0.013886 0.39624
vt 0.013161 0.424072
vt 0.013565 0.424072
vt 0.008598 0.39917
vt 0.010635 0.332031
vt 0.007988 0.424316
vt 0.015762 0.331055
vt 0.013512 0.264404
vt 0.01429 0.395996
vt 0.01622 0.331055
vt 0.017532 0.264648
vt 0.018021 0.197144
vt 0.01799 0.264648
vt 0.021622 0.197388
vt 0.022095 0.197388
vt 0.02652 0.148804
vt 0.026077 0.148682
vt 0.022614 0.147705
vt 0.032074 0.095276
vt 0.031586 0.095276
vt 0.028854 0.095032
vt 0.036377 0.045807
vt 0.038666 0.045898
vt 0.039124 0.045929
vt 0.043854 0.006496
vt 0.121643 0.738281
vt 0.122131 0.738281
vt 0.120361 0.672363
vt 0.119873 0.671875
vt 0.117676 0.738769
vt 0.118408 0.606934
vt 0.114746 0.671387
vt 0.118042 0.606934
vt 0.16394 0.257324
vt 0.166626 0.25708
vt 0.164429 0.255127
vt 0.161499 0.256592
vt 0.161621 0.253906
vt 0.161499 0.257568
vt 0.114319 0.255371
vt 0.163818 0.258301
vt 0.113953 0.254883
vt 0.10675 0.250977
vt 0.113831 0.255371
vt 0.165894 0.258545
vt 0.165405 0.259277
vt 0.113464 0.254639
vt 0.109375 0.255371
vt 0.109253 0.254639
vt 0.166992 0.259766
vt 0.166382 0.260498
vt 0.167847 0.259033
vt 0.167847 0.261475
vt 0.167114 0.261963
vt 0.169067 0.273193
vt 0.168457 0.26123
vt 0.169678 0.261475
vt 0.169067 0.258301
vt 0.170044 0.273926
vt 0.167358 0.32959
vt 0.168701 0.329834
vt 0.165527 0.381103
vt 0.16687 0.381348
vt 0.162109 0.473389
vt 0.16333 0.473877
vt 0.159912 0.543945
vt 0.160523 0.543945
vt 0.167725 0.256103
vt 0.165283 0.25415
vt 0.216431 0.233154
vt 0.162109 0.252441
vt 0.106445 0.249756
vt 0.214844 0.294189
vt 0.217163 0.171997
vt 0.212769 0.35376
vt 0.206177 0.353027
vt 0.205811 0.359863
vt 0.2052 0.371582
vt 0.204468 0.383301
vt 0.203735 0.394775
vt 0.209717 0.407959
vt 0.203247 0.400635
vt 0.194092 0.427002
vt 0.202881 0.405273
vt 0.202148 0.414307
vt 0.201294 0.421875
vt 0.200562 0.427246
vt 0.196167 0.43042
vt 0.206421 0.473145
vt 0.199951 0.430664
vt 0.198364 0.431885
vt 0.202637 0.532715
vt 0.201538 0.54834
vt 0.130127 0.854492
vt 0.122192 0.806152
vt 0.126709 0.855469
vt 0.135742 0.908203
vt 0.132935 0.908203
vt 0.140503 0.957519
vt 0.136231 0.907715
vt 0.142822 0.957519
vt 0.143188 0.957519
vt 0.130615 0.854492
vt 0.125732 0.805664
vt 0.126221 0.805664
vt 0.117676 0.579102
vt 0.116699 0.539062
vt 0.11731 0.579102
vt 0.116089 0.473633
vt 0.115723 0.407959
vt 0.116028 0.345947
vt 0.116211 0.281006
vt 0.116272 0.539062
vt 0.112122 0.578613
vt 0.112732 0.604004
vt 0.111145 0.538086
vt 0.115601 0.473633
vt 0.110046 0.473633
vt 0.109619 0.4104
vt 0.115295 0.408203
vt 0.109497 0.347168
vt 0.115601 0.346191
vt 0.109619 0.281738
vt 0.115723 0.281006
vt 0.197754 0.081177
vt 0.19751 0.080872
vt 0.217773 0.11084
vt 0.218018 0.081238
vt 0.217651 0.080444
vt 0.133667 0.010422
vt 0.197388 0.079956
vt 0.14917 0.007366
vt 0.156616 0.007366
vt 0.197266 0.047699
vt 0.172119 0.010429
vt 0.194092 0.032257
vt 0.185303 0.019165
vt 0.120422 0.019135
vt 0.11145 0.032196
vt 0.108093 0.047699
vt 0.106995 0.120666
vt 0.134644 0.209473
vt 0.138672 0.210938
vt 0.130371 0.209106
vt 0.126099 0.209839
vt 0.142212 0.213379
vt 0.122192 0.21167
vt 0.145019 0.216797
vt 0.146851 0.220703
vt 0.118897 0.214477
vt 0.116394 0.218018
vt 0.114929 0.222168
vt 0.114563 0.22644
vt 0.147583 0.224976
vt 0.115295 0.230713
vt 0.147217 0.22937
vt 0.145752 0.233398
vt 0.117126 0.234619
vt 0.119873 0.238037
vt 0.123413 0.240479
vt 0.127441 0.241943
vt 0.143311 0.236938
vt 0.131836 0.24231
vt 0.140015 0.239746
vt 0.136108 0.241577
vt 0.217895 0.080994
vt 0.217895 0.08075
vt 0.217895 0.080566
vt 0.098877 0.057465
vt 0.096741 0.061646
vt 0.098877 0.061646
vt 0.096741 0.065857
vt 0.09668 0.057465
vt 0.098938 0.065796
vt 0.09668 0.053284
vt 0.096802 0.070007
vt 0.098816 0.053253
vt 0.098938 0.070007
vt 0.096619 0.049072
vt 0.096802 0.074219
vt 0.098816 0.049072
vt 0.098999 0.074158
vt 0.096619 0.044922
vt 0.096863 0.078369
vt 0.098755 0.044891
vt 0.09906 0.078369
vt 0.096558 0.040741
vt 0.096924 0.08252
vt 0.098755 0.040741
vt 0.099121 0.08252
vt 0.096558 0.03656
vt 0.099121 0.086731
vt 0.098755 0.03656
vt 0.096924 0.086731
vt 0.096558 0.032379
vt 0.099182 0.090881
vt 0.098755 0.032379
vt 0.096985 0.090881
vt 0.098694 0.028198
vt 0.099182 0.095093
vt 0.096497 0.028229
vt 0.096985 0.095093
vt 0.098694 0.024033
vt 0.099243 0.099243
vt 0.096497 0.024048
vt 0.097046 0.099243
vt 0.098694 0.019852
vt 0.099243 0.103455
vt 0.096497 0.019882
vt 0.097046 0.103455
vt 0.099182 0.107666
vt 0.097046 0.107605
vt 0.098633 0.015671
vt 0.096497 0.015701
vt 0.098633 0.011475
vt 0.096436 0.011528
vt 0.098572 0.007252
vt 0.096436 0.00737
vt 0.201416 0.382324
vt 0.202148 0.37085
vt 0.200562 0.393311
vt 0.200073 0.39917
vt 0.199829 0.403564
vt 0.202881 0.359375
vt 0.199463 0.412353
vt 0.198731 0.419678
vt 0.197998 0.425049
vt 0.195312 0.427734
vt 0.19751 0.427978
vt 0.196655 0.428467
vt 0.012054 0.722168
vt 0.011574 0.722168
vt 0.005489 0.721191
vt 0.011909 0.657227
vt 0.011597 0.595215
vt 0.011444 0.657227
vt 0.00539 0.655762
vt 0.011963 0.529785
vt 0.011162 0.595215
vt 0.005489 0.592773
vt 0.01149 0.529785
vt 0.005913 0.529297
vt 0.006992 0.464844
vt 0.012131 0.464111
vt 0.012543 0.464111
vt 0.110718 0.708984
vt 0.098694 0.691406
vt 0.096313 0.687988
vt 0.101074 0.692383
vt 0.102539 0.690918
vt 0.102783 0.6875
vt 0.102844 0.682129
vt 0.093994 0.682617
vt 0.091797 0.675293
vt 0.089844 0.666016
vt 0.088196 0.655762
vt 0.108581 0.649414
vt 0.102783 0.674316
vt 0.086853 0.644531
vt 0.085938 0.632812
vt 0.1026 0.665039
vt 0.08551 0.620606
vt 0.102234 0.654785
vt 0.08551 0.609375
vt 0.085999 0.598633
vt 0.086975 0.589356
vt 0.088318 0.582031
vt 0.10199 0.649902
vt 0.101685 0.643555
vt 0.101074 0.631348
vt 0.100403 0.619629
vt 0.099609 0.608398
vt 0.090027 0.576172
vt 0.10553 0.595215
vt 0.09198 0.572754
vt 0.099121 0.602539
vt 0.098816 0.598144
vt 0.097961 0.588867
vt 0.097168 0.581543
vt 0.096436 0.575684
vt 0.102295 0.530273
vt 0.095825 0.572266
vt 0.094238 0.571289
vt 0.098511 0.470703
vt 0.097473 0.454834
vt 0.113098 0.831055
vt 0.042755 0.782715
vt 0.040955 0.786621
vt 0.038147 0.789551
vt 0.043518 0.77832
vt 0.113647 0.892578
vt 0.043152 0.773926
vt 0.041656 0.770019
vt 0.039185 0.766113
vt 0.034607 0.792481
vt 0.035858 0.763184
vt 0.031921 0.761719
vt 0.027679 0.760742
vt 0.023361 0.761231
vt 0.030548 0.793945
vt 0.02623 0.793945
vt 0.019302 0.762695
vt 0.021973 0.793457
vt 0.015762 0.765137
vt 0.012978 0.768555
vt 0.011147 0.772461
vt 0.010399 0.776856
vt 0.00285 0.882812
vt 0.018051 0.791504
vt 0.010773 0.78125
vt 0.012253 0.785156
vt 0.014732 0.788574
vt 0.003971 0.955566
vt 0.007313 0.971191
vt 0.016266 0.983887
vt 0.029495 0.992676
vt 0.093323 0.922363
vt 0.093201 0.92334
vt 0.045044 0.996094
vt 0.052551 0.996094
vt 0.093079 0.955566
vt 0.067993 0.992676
vt 0.089966 0.971191
vt 0.081116 0.983887
vt 0.093628 0.921875
vt 0.113831 0.921875
vt 0.113525 0.922852
vt 3.861328 1.943359
vt 3.861328 1.942383
vt 0.07666 0.007256
vt 0.078796 0.011528
vt 0.078796 0.00737
vt 0.076599 0.01149
vt 0.078796 0.015701
vt 0.076599 0.015686
vt 0.078796 0.019882
vt 0.07666 0.019882
vt 0.078857 0.024063
vt 0.07666 0.024063
vt 0.078857 0.028244
vt 0.07666 0.028244
vt 0.078857 0.03241
vt 0.07666 0.03241
vt 0.076721 0.036591
vt 0.078857 0.036591
vt 0.076721 0.040802
vt 0.078918 0.040771
vt 0.076782 0.044952
vt 0.078918 0.044952
vt 0.076782 0.049164
vt 0.078979 0.049133
vt 0.076782 0.053345
vt 0.078979 0.053314
vt 0.076843 0.057556
vt 0.079041 0.057526
vt 0.079041 0.061737
vt 0.076843 0.061737
vt 0.079102 0.065918
vt 0.076904 0.065918
vt 0.079102 0.070068
vt 0.076965 0.070129
vt 0.079163 0.07428
vt 0.076965 0.07428
vt 0.079163 0.07843
vt 0.077026 0.078491
vt 0.079224 0.082642
vt 0.077026 0.082642
vt 0.077087 0.086853
vt 0.079285 0.086792
vt 0.077148 0.091003
vt 0.079285 0.090942
vt 0.077148 0.095154
vt 0.079346 0.095154
vt 0.077209 0.099365
vt 0.079346 0.099304
vt 0.077209 0.103577
vt 0.079407 0.103516
vt 0.077271 0.107788
vt 0.079407 0.107666
vt 0.08606 0.61084
vt 0.086182 0.621582
vt 0.09729 0.621094
vt 0.098022 0.632324
vt 0.096436 0.609863
vt 0.086731 0.633301
vt 0.096008 0.604004
vt 0.098694 0.644043
vt 0.095642 0.599609
vt 0.087646 0.644531
vt 0.086243 0.600586
vt 0.088928 0.655762
vt 0.086975 0.591309
vt 0.09906 0.650391
vt 0.095337 0.59082
vt 0.090576 0.665527
vt 0.08844 0.583984
vt 0.094543 0.583496
vt 0.089722 0.578613
vt 0.093872 0.578125
vt 0.091248 0.575684
vt 0.093323 0.575195
vt 0.09259 0.574707
vt 0.092468 0.674316
vt 0.099304 0.654785
vt 0.099731 0.665039
vt 0.100098 0.673828
vt 0.094543 0.681641
vt 0.10022 0.681641
vt 0.096741 0.687012
vt 0.10022 0.687012
vt 0.098633 0.689453
vt 0.100098 0.689941
vt 0.09967 0.689941
vt 0.101074 0.665039
vt 0.101379 0.673828
vt 0.100586 0.654785
vt 0.100342 0.650391
vt 0.099976 0.644043
vt 0.099304 0.632324
vt 0.098511 0.620606
vt 0.097656 0.609863
vt 0.097168 0.604004
vt 0.096802 0.599609
vt 0.095947 0.59082
vt 0.095154 0.583496
vt 0.094421 0.578125
vt 0.093872 0.574707
vt 0.092834 0.574219
vt 0.091187 0.575195
vt 0.089478 0.578613
vt 0.088074 0.583984
vt 0.085938 0.61084
vt 0.08606 0.621582
vt 0.086609 0.633301
vt 0.087524 0.644531
vt 0.090454 0.666016
vt 0.092346 0.674805
vt 0.094421 0.681641
vt 0.096558 0.687012
vt 0.098633 0.689941
vt 0.100342 0.690918
vt 0.101318 0.689941
vt 0.101501 0.687012
vt 0.101501 0.681152
vt 0.204102 0.359375
vt 0.203369 0.37085
vt 0.202637 0.382324
vt 0.201782 0.393311
vt 0.201294 0.39917
vt 0.200928 0.403564
vt 0.200073 0.412353
vt 0.199341 0.419678
vt 0.198608 0.425049
vt 0.197998 0.428223
vt 0.196899 0.428955
vt 0.195312 0.427978
vt 0.193604 0.424561
vt 0.840332 0.610352
vt 0.854004 0.623047
vt 0.854004 0.610352
vt 0.854004 0.604004
vt 0.840332 0.623047
vt 0.840332 0.604004
vt 0.854004 0.636231
vt 0.840332 0.591309
vt 0.840332 0.636231
vt 0.854004 0.59082
vt 0.840332 0.648926
vt 0.840332 0.578125
vt 0.854004 0.648926
vt 0.854004 0.578125
vt 0.840332 0.662109
vt 0.840332 0.56543
vt 0.854004 0.662109
vt 0.854004 0.564941
vt 0.840332 0.72168
vt 0.840332 0.552246
vt 0.854004 0.72168
vt 0.854004 0.552246
vt 0.840332 0.827148
vt 0.854004 0.525391
vt 0.854004 0.827148
vt 0.840332 0.525879
vt 0.84082 0.828125
vt 0.854004 0.524902
vt 0.854004 0.828125
vt 0.840332 0.524902
vt 0.844727 0.832031
vt 0.840332 0.524414
vt 0.849121 0.831543
vt 0.844727 0.832519
vt 0.848633 0.832519
vt 0.84668 0.854004
vn -0.685 -0.6299 0.3386
vn -0.5118 -0.6772 0.5118
vn -0.2362 -0.8898 0.378
vn -0.2441 -0.8425 0.4646
vn -0.2047 -0.9055 0.3465
vn -0.2677 -0.8661 0.4173
vn -0.1732 -0.9291 0.315
vn -0.2835 -0.9055 0.3071
vn -0.3228 -0.8504 0.3937
vn -0.3386 -0.7559 0.5512
vn -0.3071 -0.9055 0.2835
vn -0.3701 -0.8504 0.3465
vn -0.4803 -0.748 0.4488
vn -0.3543 -0.8898 0.2598
vn -0.5984 -0.7717 0.1969
vn -0.6299 -0.7323 0.2283
vn -0.6299 -0.7717 0.0157
vn -0.5591 -0.8268 -0.0157
vn -0.063 -0.9921 -0.0157
vn -0.0472 -0.9921 0
vn -0.063 -0.9921 0
vn -0.0472 -0.9921 0.0079
vn -0.063 -0.9921 0.0157
vn -0.0472 -0.9921 0.0315
vn -0.1811 0.8898 0.4016
vn -0.252 0.9134 0.2992
vn -0.1575 0.9134 0.3622
vn -0.126 0.9291 0.3307
vn -0.1339 0.9055 0.3858
vn -0.2598 0.9055 0.3307
vn -0.1339 0.8661 0.4646
vn -0.1417 0.8504 0.4961
vn -0.189 0.8504 0.4803
vn -0.3307 0.9055 0.2598
vn -0.2677 0.8661 0.4173
vn -0.2835 0.7717 0.5591
vn -0.3465 0.8504 0.3701
vn -0.4173 0.7638 0.4724
vn -0.5039 0.811 0.2756
vn -0.5591 0.7874 0.252
vn -0.5906 0.7953 0.0394
vn -0.5197 0.8504 0
vn 0 0.9921 -0.0157
vn 0.0157 0.9921 0.0079
vn 0.0157 0.9921 0.0315
vn 0 0.9921 0.0236
vn 0.0157 0.9921 0.0472
vn 0 0.9921 0.0472
vn 0.0157 0.9921 0.063
vn -0.6299 -0.7717 -0.0236
vn -0.4567 -0.8819 -0.0157
vn -0.5118 -0.8504 -0.0394
vn -0.4882 -0.8661 -0.0394
vn -0.7323 -0.6614 -0.0945
vn -0.7717 -0.6299 -0.0236
vn -0.6614 -0.7323 -0.0945
vn -0.7008 -0.7008 -0.0157
vn -0.6693 -0.7323 0
vn -0.8031 -0.5827 -0.0157
vn -0.7008 -0.7008 -0.1181
vn -0.3858 -0.9134 -0.063
vn -0.7717 -0.5984 -0.1969
vn -0.6142 -0.7638 -0.1654
vn -0.8268 -0.5512 0.0157
vn -0.9213 -0.378 0.0157
vn -0.7717 -0.6299 0.0157
vn -0.9055 -0.4094 0.0394
vn -0.9764 -0.189 0.0551
vn -0.8583 -0.4961 0.063
vn -0.9921 0.0157 0.1024
vn -0.9528 -0.2677 0.0787
vn -0.9764 -0.1102 0.1339
vn -0.9528 -0.252 0.126
vn -0.9055 -0.4016 0.1102
vn -0.9528 -0.2362 0.1654
vn -0.9685 -0.1417 0.1811
vn -0.9291 -0.315 0.1811
vn -0.937 -0.1969 0.2598
vn -0.9528 -0.1496 0.2598
vn -0.9213 -0.252 0.2756
vn -0.8819 -0.2126 0.4016
vn -0.8898 -0.1811 0.4016
vn -0.8661 -0.2126 0.4331
vn -0.7087 -0.2283 0.6535
vn -0.6929 -0.252 0.6614
vn -0.6378 -0.252 0.7165
vn -0.0866 -0.4016 0.9055
vn 0.0866 -0.5039 0.8504
vn 0.1339 -0.4646 0.8661
vn 0.7874 -0.4409 0.4173
vn 0.7323 -0.5748 0.3386
vn 0.5433 -0.5984 0.5748
vn 0.9213 -0.378 0.0157
vn 0.7008 -0.7008 0.0236
vn 0.8268 -0.5512 0.0157
vn 0.9134 -0.3937 0
vn 0.6929 -0.7165 0
vn 0.811 -0.5748 0
vn 0.9055 -0.4173 0
vn 0.6772 -0.7244 -0.0157
vn 0.8031 -0.5827 -0.0157
vn 0.8898 -0.4488 -0.0157
vn 0.7874 -0.6063 -0.0236
vn 0.8504 -0.5118 -0.0394
vn 0.6378 -0.7559 -0.0394
vn 0.7559 -0.6378 -0.0394
vn 0.7402 -0.6693 -0.0394
vn 0.1024 0.9921 0.0551
vn 0.0315 0.9921 0.0079
vn 0.0472 0.9921 0.0472
vn 0.063 0.9921 0.0315
vn 0.1024 0.9921 0
vn 0.189 0.8504 0.4803
vn 0.0315 0.9921 -0.0315
vn 0.1417 0.6614 0.7323
vn 0.063 0.9921 -0.0157
vn 0.1654 0.6457 0.7402
vn 0.1654 0.8268 0.5276
vn 0.1417 0.6063 0.7795
vn 0.063 0.6535 0.748
vn 0.0394 0.7953 0.5906
vn 0.0157 0.9921 -0.0157
vn 0.0472 0.9921 0
vn 0.0709 0.9921 0.0472
vn 0 0.9921 -0.0315
vn 0.0866 0.9921 0.0315
vn 0.1024 0.9921 -0.0157
vn 0.126 0.9843 -0.0157
vn 0.0315 0.9921 -0.0157
vn -0.7244 -0.4803 0.4803
vn -0.6457 -0.622 0.4331
vn -0.7795 -0.5748 0.2283
vn -0.8189 -0.5669 0.0394
vn -0.5906 -0.7953 0.0394
vn -0.8346 -0.5354 0.0394
vn -0.2756 -0.9528 0.0157
vn -0.7244 -0.6772 0.0236
vn -0.5827 -0.8031 0.0157
vn -0.3465 -0.937 0
vn -0.7874 -0.6063 0.0157
vn -0.2913 -0.9528 0
vn -0.5748 -0.811 0
vn -0.748 -0.6535 0.0236
vn -0.315 -0.9449 0
vn -0.5512 -0.8268 0.0157
vn -0.7953 -0.5906 0.0394
vn -0.6063 -0.7874 0.0157
vn -0.8268 -0.5512 0.063
vn -0.252 -0.9606 0.0157
vn -0.6299 -0.7638 0.063
vn -0.8661 -0.4803 0.0866
vn -0.9291 -0.3307 0.126
vn -0.685 -0.7087 0.0945
vn -0.2835 -0.9528 0.0394
vn 0.0472 -0.9921 -0.0315
vn 0.9685 0.0551 -0.2126
vn -0.8268 0.4803 0.2756
vn -0.6772 0.5118 0.5118
vn -0.7402 0.6142 0.252
vn -0.7638 0.3937 0.4961
vn -0.5748 0.5433 0.5984
vn -0.5984 0.6457 0.4646
vn -0.5827 0.7638 0.252
vn -0.7874 0.5984 0.063
vn -0.5512 0.8268 0.063
vn -0.2362 0.9685 0.0394
vn -0.811 0.5748 0.063
vn -0.6929 0.7165 0.0394
vn -0.5354 0.8346 0.0394
vn -0.2992 0.9449 0.0157
vn -0.7559 0.6457 0.0394
vn -0.252 0.9606 0.0157
vn -0.5276 0.8425 0.0157
vn -0.7165 0.6929 0.0394
vn -0.2756 0.9528 0.0157
vn -0.5118 0.8504 0.0394
vn -0.7323 0.6693 0.0394
vn -0.7638 0.6299 0.063
vn -0.5669 0.8189 0.0394
vn -0.8031 0.5827 0.0866
vn -0.2126 0.9685 0.0394
vn -0.5827 0.8031 0.0866
vn -0.8425 0.5118 0.1102
vn -0.9134 0.3622 0.1575
vn -0.6457 0.7402 0.1181
vn -0.2362 0.9606 0.0551
vn -0.8504 0.4803 0.189
vn -0.252 0 -0.9606
vn -0.3465 0 -0.937
vn -0.7323 0 -0.6693
vn -0.9606 0 -0.2677
vn -0.9921 0.0157 -0.1024
vn -0.9921 0.0157 -0.0866
vn -0.9921 0.0157 -0.0157
vn -0.9921 0.0157 0.0079
vn -0.9921 0.0157 0.0315
vn -0.9921 0.0157 0.0472
vn -0.9921 0.0157 0.063
vn 0.3701 0.9213 0
vn 0.3465 0.937 0
vn 0.2441 0.9606 0
vn 0.4724 0.874 0
vn 0.4409 0.8898 0
vn 0.3937 0.9134 0
vn 0.4882 0.8661 0.0394
vn 0.2913 0.9528 0
vn 0.4173 0.9055 0
vn 0.5118 0.8504 0.0394
vn 0.2677 0.9606 0
vn 0.4094 0.9055 0.0394
vn 0.2598 0.9606 0.0394
vn 0.2835 0.9528 0.0394
vn 0.5197 0.8425 0.063
vn 0.4173 0.8976 0.063
vn 0.5591 0.8189 0.0866
vn 0.5984 0.7874 0.1181
vn 0.4488 0.8819 0.0866
vn 0.3071 0.9449 0.063
vn 0.126 0.9843 0.0709
vn -0.1181 0.9843 0.0157
vn 0.3465 -0.9291 0.0157
vn 0.2283 -0.9685 0.0157
vn 0.3228 -0.937 0.0157
vn 0.4252 -0.8976 0.0157
vn 0.4016 -0.9134 0.0157
vn 0.2992 -0.9449 0.0157
vn -0.1654 -0.9843 0.0315
vn -0.1496 -0.9764 -0.0945
vn -0.189 -0.9764 0.0157
vn -0.1496 -0.9843 -0.0709
vn -0.0394 -0.8819 -0.4567
vn -0.0866 -0.9213 -0.3701
vn -0.1811 -0.9764 -0.0157
vn -0.2047 -0.9764 0
vn -0.2205 -0.9685 0
vn -0.2441 -0.9606 0
vn -0.1024 -0.9921 0.0157
vn -0.0866 -0.9921 0.0315
vn -0.0315 -0.9921 0
vn -0.0472 -0.9921 -0.0315
vn -0.0315 -0.9921 -0.0315
vn 0.0315 -0.9921 0.0079
vn 0.0472 -0.9921 0.0315
vn 0.063 -0.9921 0.0315
vn 0.1339 -0.8819 0.4409
vn -0.0157 -0.9921 0.0315
vn 0.0945 -0.7087 0.685
vn 0.0394 -0.4646 0.8819
vn 0 -0.9921 0.0236
vn 0.1181 -0.7008 0.7008
vn 0.1102 -0.8583 0.4882
vn 0.0945 -0.6614 0.7323
vn -0.0157 -0.9921 0
vn 0.0157 -0.9921 0.0315
vn 0 -0.9921 0
vn -0.0787 -0.9921 0
vn 0.0157 -0.9921 0.0079
vn 0.0472 -0.9921 0
vn 0.063 -0.9921 -0.0157
vn 0.0315 -0.9921 0
vn -0.0315 -0.9921 -0.0157
vn 0 -0.8346 0.5433
vn -0.0866 -0.9921 -0.0157
vn -0.0866 -0.9921 0.0157
vn -0.0472 -0.9921 -0.0157
vn 0.4488 -0.8819 0.0157
vn 0.4646 -0.8819 0.0394
vn 0.3543 -0.9291 0.0394
vn 0.4961 -0.8583 0.063
vn 0.5276 -0.8346 0.0866
vn 0.3858 -0.9134 0.063
vn 0.0866 -0.9921 0.0472
vn -0.1575 -0.9843 0
vn 0.2598 -0.9606 0.0394
vn 0.2047 -0.9764 0.0157
vn 0.189 -0.9764 0.0157
vn 0.1654 -0.9843 0.0157
vn 0.0315 -0.9921 0.063
vn 0.1811 -0.9764 0
vn 0.1575 -0.9843 0
vn 0.1417 -0.9843 0
vn 0.2756 -0.9528 0.0157
vn 0.1417 -0.9843 0.0157
vn 0.1181 -0.9843 0.0157
vn 0.378 -0.9213 0.0157
vn 0.252 -0.9606 0.0157
vn 0.2913 -0.9528 0
vn 0.2205 -0.9685 0
vn 0.1417 -0.9843 0.0315
vn 0.126 -0.9843 0.0315
vn 0.0551 -0.9764 0.189
vn 0.0709 -0.9921 0.0866
vn -0.0472 0.9921 0.0472
vn -0.0315 0.9921 0.063
vn -0.1654 0.9843 0.0157
vn -0.2047 0.9764 0.0157
vn -0.189 0.9764 0.0157
vn -0.1654 0.9843 -0.0157
vn -0.1417 0.9843 0.0315
vn -0.0945 0.9843 -0.0866
vn -0.126 0.9843 0.0551
vn -0.0394 0.9134 -0.3858
vn -0.0551 0.9528 -0.2913
vn 0.0157 0.8425 -0.5276
vn -0.0157 -0.9921 -0.0157
vn 0.9528 -0.2835 0.0394
vn 0.9291 -0.2913 -0.1969
vn 0.8346 -0.2992 -0.4567
vn 0.9134 -0.2756 0.2756
vn 0.7008 -0.2835 -0.6457
vn 0.811 -0.2756 0.5039
vn 0.5039 -0.2756 -0.811
vn 0.6457 -0.2835 0.7008
vn 0.2756 -0.2756 -0.9134
vn 0.4488 -0.2756 0.8425
vn 0.0157 -0.2756 -0.9528
vn 0.1732 -0.2835 0.937
vn -0.1969 -0.2362 -0.9449
vn -0.0787 -0.2441 0.9606
vn -0.4409 -0.2441 -0.8583
vn -0.3543 -0.2362 0.8976
vn -0.6614 -0.2283 -0.7087
vn -0.5748 -0.2283 0.7795
vn -0.8189 -0.2205 -0.5197
vn -0.7559 -0.2283 0.6063
vn -0.9213 -0.2283 -0.2992
vn -0.9685 -0.2362 -0.0551
vn -0.874 -0.2441 0.4094
vn -0.252 -0.9606 -0.0157
vn -0.2283 -0.9685 -0.0157
vn -0.2992 -0.9449 -0.0157
vn -0.3465 -0.9291 -0.0157
vn -0.3937 -0.9134 0
vn -0.1024 0.9921 0.0157
vn 0.1654 0.9843 0.0315
vn 0.189 0.9764 0.0315
vn 0.1811 0.9764 -0.0157
vn 0.1732 0.9764 0.0551
vn 0.189 0.9764 0.0551
vn 0.3858 0.9213 0.0394
vn 0.2756 0.9528 -0.0157
vn 0.2283 0.9685 -0.0157
vn 0.3465 0.9291 -0.0157
vn 0.2047 0.9764 0
vn 0.315 0.9449 0
vn 0.2047 0.9764 -0.0157
vn 0.2362 0.9685 0.0394
vn 0.2126 0.9685 0.0394
vn 0.1024 0.9921 0.0315
vn 0.0866 0.9921 0.0709
vn -0.0157 0.9921 0.0079
vn -0.0157 0.9921 -0.0157
vn -0.0315 0.9921 0.0315
vn 0.0472 0.9921 -0.0157
vn -0.9528 0.2677 -0.0787
vn -0.937 0.2677 0.1969
vn -0.8504 0.2677 0.4409
vn -0.7165 0.252 0.6378
vn -0.5276 0.252 0.8031
vn -0.2992 0.252 0.9134
vn -0.0394 0.2598 0.9606
vn 0.2205 0.2205 0.9449
vn 0.4803 0.189 0.8504
vn 0.6772 0.1969 0.7008
vn 0.8346 0.189 0.5118
vn 0.9291 0.2047 0.2913
vn 0.9685 0.2126 0.0551
vn 0.9449 0.2126 -0.2205
vn 0.8504 0.2126 -0.4646
vn 0.7244 0.1969 -0.6535
vn 0.5433 0.1969 -0.811
vn 0.3228 0.2047 -0.9213
vn 0.0551 0.2126 -0.9685
vn -0.1496 0.252 -0.9528
vn -0.3858 0.2677 -0.874
vn -0.6142 0.252 -0.7402
vn -0.7874 0.252 -0.5591
vn -0.9055 0.2598 -0.3307
vn -0.2126 0.9685 -0.0394
vn -0.189 0.9764 -0.0315
vn -0.2677 0.9606 0
vn -0.2598 0.9606 -0.0315
vn -0.315 0.9449 0
vn -0.3071 0.9449 -0.0394
vn -0.3465 0.9291 0.0157
vn 0.8898 0.4409 -0.063
vn 0.8346 0.5433 -0.0394
vn 0.9213 0.378 -0.0394
vn 0.8504 0.5118 -0.0394
vn 0.9291 0.3465 -0.0157
vn 0.7402 0.6693 -0.0394
vn 0.7008 0.7008 -0.063
vn 0.811 0.5748 -0.063
vn 0.7874 0.5984 -0.063
vn 0.874 0.4646 -0.063
vn 0.6772 0.7244 -0.0709
vn 0.8583 0.4961 -0.063
vn 0.6535 0.748 -0.063
vn 0.748 0.6535 -0.063
vn 0.8268 0.5512 -0.063
vn 0.6299 0.7717 -0.063
vn 0.7244 0.6772 -0.0709
vn 0.5748 0.811 -0.063
vn 0.5512 0.8268 -0.063
vn 0.7165 0.685 -0.0945
vn 0.6614 0.7323 -0.0945
vn 0.6142 0.7795 -0.0945
vn 0.6693 0.7244 -0.1181
vn 0.6378 0.7559 -0.0945
vn 0.6299 0.7559 -0.1417
vn 0.5669 0.8031 -0.1181
vn 0.5039 0.8504 -0.0866
vn 0.4488 0.748 -0.4803
vn 0.3937 0.8661 -0.2913
vn 0.2992 0.9213 -0.2283
vn -0.1417 0.7323 -0.6535
vn -0.0866 0.8661 -0.4803
vn 0.063 0.937 -0.3386
vn -0.2992 0.8346 -0.4567
vn -0.5984 0.622 -0.4882
vn -0.6535 0.5433 -0.5197
vn -0.6614 0.6378 -0.3701
vn -0.748 0.5906 -0.2835
vn -0.5669 0.7953 -0.1969
vn -0.7323 0.6299 -0.2283
vn -0.6535 0.7323 -0.1417
vn -0.3465 0.9291 -0.0866
vn -0.622 0.7638 -0.1181
vn -0.7008 0.7008 -0.1181
vn -0.4409 0.8898 -0.063
vn -0.4646 0.874 -0.063
vn -0.4094 0.9055 -0.0394
vn -0.5906 0.7953 -0.0394
vn -0.7402 0.6693 -0.0394
vn -0.6929 0.7165 0
vn -0.7874 0.6063 -0.0236
vn -0.6299 0.7717 0.0157
vn -0.7953 0.5906 0.0394
vn -0.9055 0.4094 0.0394
vn -0.8898 0.4409 0.063
vn -0.9685 0.2205 0.0787
vn -0.8346 0.5276 0.0866
vn -0.9843 0.0157 0.1181
vn -0.9449 0.2992 0.1024
vn -0.9685 0.1339 0.1575
vn -0.9449 0.2835 0.1496
vn -0.8819 0.4409 0.1339
vn -0.9606 0.1654 0.2126
vn -0.9055 0.3465 0.2047
vn -0.9213 0.2283 0.2992
vn -0.937 0.1732 0.2835
vn -0.9055 0.2835 0.3071
vn -0.8583 0.2441 0.4409
vn -0.8661 0.2126 0.4331
vn -0.8425 0.2441 0.4646
vn -0.6693 0.252 0.6929
vn -0.6457 0.2835 0.7008
vn -0.5906 0.2835 0.748
vn -0.0394 0.4094 0.9055
vn 0.1339 0.4409 0.8819
vn 0.1811 0.4016 0.8898
vn 0.8189 0.3543 0.4331
vn 0.7795 0.4961 0.3622
vn 0.5984 0.5197 0.5984
vn 0.9449 0.3071 0.0394
vn 0.7795 0.622 0
vn 0.8661 0.4882 0.0394
vn 0.937 0.3228 -0.0157
vn 0.748 0.6535 -0.0236
vn 0.8583 0.5039 -0.0157
vn 0.8346 -0.5433 -0.0394
vn 0.6142 -0.7795 -0.0394
vn 0.8189 -0.5669 -0.0394
vn 0.5906 -0.7953 -0.0394
vn 0.6929 -0.7165 -0.0394
vn 0.7795 -0.6142 -0.0394
vn 0.5669 -0.8189 -0.0394
vn 0.6693 -0.7402 -0.0394
vn 0.5118 -0.8504 -0.0394
vn 0.4961 -0.8583 -0.063
vn 0.4882 -0.8661 -0.0394
vn 0.6535 -0.748 -0.063
vn 0.5984 -0.7874 -0.063
vn 0.5512 -0.8268 -0.063
vn 0.6142 -0.7795 -0.0945
vn 0.5748 -0.811 -0.063
vn 0.5669 -0.8031 -0.1181
vn 0.5039 -0.8504 -0.0866
vn 0.4409 -0.8898 -0.063
vn 0.3858 -0.8031 -0.4331
vn 0.3307 -0.9055 -0.252
vn 0.2362 -0.9449 -0.1969
vn -0.1969 -0.7244 -0.6535
vn -0.1417 -0.8661 -0.4646
vn 0.0157 -0.9528 -0.2992
vn -0.3543 -0.8189 -0.4331
vn -0.6535 -0.5984 -0.4567
vn -0.7008 -0.5118 -0.4882
vn -0.7087 -0.6063 -0.3386
vn -0.7874 -0.5591 -0.252
vn 0.0866 -0.0157 -0.9921
vn 0.378 -0.0157 -0.9213
vn -0.063 0 -0.9921
vn 0.7008 -0.0157 -0.7008
vn 0.9213 -0.0157 -0.378
vn -0.6693 0 -0.7323
vn 0.9921 -0.0315 -0.0866
vn -0.9055 0 -0.4173
vn 0.9921 -0.0315 0.0079
vn 0.9921 -0.0315 0.063
vn 0.9449 -0.0157 0.2992
vn -0.874 0 -0.4724
vn 0.8819 -0.0157 0.4488
vn 0.9921 -0.0315 0.0315
vn 0.9764 -0.0157 -0.189
vn 0.8898 -0.0157 -0.4488
vn 0.7244 -0.0157 -0.6772
vn 0.8425 -0.0157 0.5276
vn 0.5276 -0.0157 -0.8425
vn 0.6772 -0.0236 0.7244
vn 0.2992 -0.0157 -0.9449
vn 0.4488 -0.0157 0.8819
vn 0.0315 -0.0157 -0.9921
vn 0.2047 -0.0157 0.9764
vn -0.1811 0 -0.9764
vn -0.0472 0 0.9921
vn -0.4173 0 -0.9055
vn -0.315 0 0.9449
vn -0.6457 0 -0.7559
vn -0.5433 0 0.8346
vn -0.811 0 -0.5748
vn -0.7323 0 0.6693
vn -0.937 0 -0.3465
vn -0.9921 0.0157 -0.063
vn -0.8898 0 0.4409
vn -0.9764 0 0.2047
# Converted from CSMC meshbin by CsmcAssetConverter
# source: knife_stiletto.mesh.meshbin
# source center: 0.1646937 0.05373552 2.242061
# source scale: 0.0932679
# Coordinates are preserved exactly as stored by CSMC.
# Basis conversion and mesh-normalization conjugation happen at runtime.
o v_weapon_blade
f 1/1/1 2/2/2 3/3/3
f 1/1/1 3/3/3 4/4/4
f 3/3/3 2/2/2 5/5/5
f 5/5/5 2/2/2 6/6/6
f 5/5/5 6/6/6 7/7/5
f 7/7/5 6/6/6 8/8/7
f 5/5/5 7/7/5 9/9/8
f 4/4/4 3/3/3 10/10/9
f 4/4/4 10/10/9 11/11/10
f 3/3/3 5/5/5 12/12/11
f 12/12/11 5/5/5 9/9/8
f 3/3/3 12/12/11 10/10/9
f 11/11/10 10/10/9 13/13/12
f 13/13/12 10/10/9 12/12/11
f 13/13/12 12/12/11 9/9/8
f 11/11/10 13/13/12 14/14/13
f 13/13/12 9/9/8 15/15/14
f 14/14/13 13/13/12 16/16/15
f 16/16/15 13/13/12 15/15/14
f 16/16/15 15/15/14 17/17/16
f 16/16/15 17/17/16 18/18/17
f 16/16/15 18/18/17 19/19/18
f 19/19/18 18/18/17 20/20/18
f 19/19/18 20/20/18 21/21/19
f 19/19/18 21/21/19 22/22/19
f 22/22/19 21/21/19 23/23/20
f 22/22/19 23/23/20 24/24/20
f 24/24/20 23/23/20 25/25/20
f 24/24/20 25/25/20 26/26/20
f 26/26/20 25/25/20 27/27/21
f 27/27/21 25/25/20 28/28/21
f 27/27/21 28/28/21 29/29/22
f 29/29/22 28/28/21 30/30/22
f 29/29/22 30/30/22 31/31/23
f 31/31/23 30/30/22 32/32/23
f 31/31/23 32/32/23 33/33/24
f 33/33/24 32/32/23 34/34/24
f 33/33/24 34/34/24 35/35/24
f 36/36/25 37/37/26 38/38/27
f 39/39/28 38/38/27 40/40/27
f 38/38/27 39/39/28 41/41/29
f 40/40/27 38/38/27 42/42/30
f 42/42/30 38/38/27 37/37/26
f 38/38/27 41/41/29 43/43/31
f 38/38/27 43/43/31 36/36/25
f 36/36/25 43/43/31 44/44/32
f 36/36/25 44/44/32 45/45/33
f 42/42/30 37/37/26 46/46/34
f 36/36/25 45/45/33 47/47/35
f 36/36/25 47/47/35 37/37/26
f 47/47/35 45/45/33 48/48/36
f 46/46/34 37/37/26 49/49/37
f 49/49/37 37/37/26 47/47/35
f 49/49/37 47/47/35 48/48/36
f 49/49/37 48/48/36 50/50/38
f 46/46/34 49/49/37 51/51/39
f 49/49/37 50/50/38 52/52/40
f 49/49/37 52/52/40 51/51/39
f 51/51/39 52/52/40 53/53/41
f 53/53/41 52/52/40 54/54/42
f 53/53/41 54/54/42 55/55/42
f 55/55/42 54/54/42 56/56/43
f 56/56/43 54/54/42 57/57/43
f 56/56/43 57/57/43 58/58/44
f 58/58/44 57/57/43 59/59/44
f 58/58/44 59/59/44 60/60/45
f 60/60/45 59/59/44 61/61/45
f 60/60/45 61/61/45 62/62/46
f 60/60/45 62/62/46 63/63/46
f 63/63/46 62/62/46 64/64/47
f 63/63/46 64/64/47 65/65/47
f 65/65/47 64/64/47 66/66/48
f 65/65/47 66/66/48 67/67/48
f 67/67/48 66/66/48 68/68/49
f 67/67/48 68/68/49 69/69/49
f 69/69/49 68/68/49 70/70/49
f 71/71/50 72/72/18 73/73/51
f 71/71/50 73/73/51 74/74/52
f 74/74/52 73/73/51 75/75/53
f 74/74/52 75/75/53 76/76/54
f 71/71/50 74/74/52 77/77/55
f 76/76/54 75/75/53 78/78/56
f 72/72/18 71/71/50 79/79/57
f 79/79/57 71/71/50 77/77/55
f 72/72/18 79/79/57 80/80/58
f 79/79/57 77/77/55 81/81/59
f 76/76/54 78/78/56 82/82/60
f 76/76/54 82/82/60 83/83/61
f 82/82/60 78/78/56 84/84/62
f 83/83/61 82/82/60 85/85/63
f 79/79/57 81/81/59 86/86/64
f 79/79/57 86/86/64 80/80/58
f 86/86/64 81/81/59 87/86/65
f 80/80/58 86/86/64 88/87/66
f 86/86/64 87/86/65 89/88/67
f 86/86/64 89/88/67 88/87/66
f 89/88/67 87/86/65 90/89/68
f 88/87/66 89/88/67 91/90/69
f 89/88/67 90/89/68 92/91/70
f 89/88/67 92/91/70 93/91/71
f 89/88/67 93/91/71 91/90/69
f 93/91/71 92/91/70 94/92/72
f 91/90/69 93/91/71 95/93/73
f 95/93/73 93/91/71 94/92/72
f 91/90/69 95/93/73 96/94/74
f 95/93/73 94/92/72 97/95/75
f 95/93/73 97/95/75 96/94/74
f 97/95/75 94/92/72 98/96/76
f 96/94/74 97/95/75 99/97/77
f 97/95/75 98/96/76 100/98/78
f 97/95/75 100/98/78 99/97/77
f 100/98/78 98/96/76 101/99/79
f 99/97/77 100/98/78 102/100/80
f 100/98/78 101/99/79 103/101/81
f 100/98/78 103/101/81 102/100/80
f 103/101/81 101/99/79 104/102/82
f 102/100/80 103/101/81 105/103/83
f 103/101/81 104/102/82 106/104/84
f 105/103/83 103/101/81 107/105/85
f 107/105/85 103/101/81 106/104/84
f 105/103/83 107/105/85 108/106/86
f 107/105/85 106/104/84 109/107/87
f 108/106/86 107/105/85 110/108/88
f 110/108/88 107/105/85 109/107/87
f 108/106/86 110/108/88 111/109/89
f 111/109/89 110/108/88 112/110/90
f 110/108/88 109/107/87 113/111/91
f 110/108/88 113/111/91 112/110/90
f 113/111/91 109/107/87 114/112/92
f 112/110/90 113/111/91 115/113/93
f 113/111/91 114/112/92 116/114/94
f 115/113/93 113/111/91 117/115/95
f 117/115/95 113/111/91 116/114/94
f 115/113/93 117/115/95 118/116/96
f 117/115/95 116/114/94 119/117/97
f 118/116/96 117/115/95 120/118/98
f 120/118/98 117/115/95 119/117/97
f 118/116/96 120/118/98 121/119/99
f 120/118/98 119/117/97 122/120/100
f 121/119/99 120/118/98 123/121/101
f 123/121/101 120/118/98 122/120/100
f 121/119/99 123/121/101 124/122/102
f 123/121/101 122/120/100 125/123/100
f 124/122/102 123/121/101 126/124/103
f 126/124/103 123/121/101 125/123/100
f 124/122/102 126/124/103 127/125/104
f 126/124/103 125/123/100 128/126/105
f 126/124/103 128/126/105 129/127/106
f 126/124/103 129/127/106 127/125/104
f 129/127/106 128/126/105 130/128/105
f 127/125/104 129/127/106 131/129/107
f 131/129/107 129/127/106 130/128/105
f 132/130/108 133/131/109 134/132/110
f 134/132/110 133/131/109 135/133/109
f 134/132/110 135/133/109 136/134/111
f 133/131/109 132/130/108 137/135/112
f 137/135/112 132/130/108 138/136/113
f 135/133/109 133/131/109 139/137/114
f 133/131/109 137/135/112 140/138/114
f 133/131/109 140/138/114 139/137/114
f 137/135/112 138/136/113 141/139/115
f 141/139/115 138/136/113 142/140/113
f 140/138/114 137/135/112 143/141/116
f 143/141/116 137/135/112 141/139/115
f 140/138/114 143/141/116 144/142/109
f 140/138/114 144/142/109 139/137/114
f 141/139/115 142/140/113 145/143/117
f 145/143/117 142/140/113 146/144/118
f 145/143/117 146/144/118 147/145/119
f 145/143/117 147/145/119 148/146/120
f 145/143/117 148/146/120 141/139/115
f 141/139/115 148/146/120 143/141/116
f 143/141/116 148/146/120 149/147/109
f 143/141/116 149/147/109 144/142/109
f 149/147/109 148/146/120 150/148/121
f 151/149/109 139/137/114 144/142/109
f 151/149/109 144/142/109 152/150/109
f 152/150/109 144/142/109 149/147/109
f 139/137/114 151/149/109 153/151/109
f 153/151/109 151/149/109 152/150/109
f 139/137/114 153/151/109 154/152/122
f 139/137/114 154/152/122 135/133/109
f 153/151/109 152/150/109 155/153/109
f 153/151/109 155/153/109 154/152/122
f 135/133/109 154/152/122 156/154/123
f 135/133/109 156/154/123 136/134/111
f 136/134/111 156/154/123 157/155/124
f 156/154/123 154/152/122 158/156/125
f 158/156/125 154/152/122 155/153/109
f 157/155/124 156/154/123 159/157/44
f 159/157/44 156/154/123 158/156/125
f 157/155/124 159/157/44 160/158/126
f 160/158/126 159/157/44 161/159/112
f 161/159/112 159/157/44 158/156/125
f 161/159/112 158/156/125 155/153/109
f 161/159/112 155/153/109 162/160/112
f 161/159/112 162/160/112 163/161/127
f 163/161/127 162/160/112 164/162/127
f 163/161/127 164/162/127 165/163/127
f 165/163/127 164/162/127 166/164/127
f 165/163/127 166/164/127 167/165/128
f 167/165/128 166/164/127 168/166/128
f 167/165/128 168/166/128 169/167/112
f 169/167/112 168/166/128 170/168/112
f 169/167/112 170/168/112 51/51/109
f 169/167/112 51/51/109 53/53/129
f 171/169/130 2/2/2 1/1/1
f 2/2/2 171/169/130 6/6/6
f 6/6/6 171/169/130 172/170/131
f 172/170/131 171/169/130 173/171/16
f 173/171/16 171/169/130 174/172/132
f 174/172/132 171/169/130 1/1/1
f 173/171/16 174/172/132 175/173/133
f 175/173/133 174/172/132 176/174/134
f 176/174/134 174/172/132 1/1/1
f 175/173/133 176/174/134 177/175/135
f 176/174/134 1/1/1 178/176/136
f 176/174/134 178/176/136 179/177/137
f 176/174/134 179/177/137 177/175/135
f 179/177/137 178/176/136 180/178/138
f 179/177/137 180/178/138 181/179/139
f 177/175/135 179/177/137 182/180/138
f 182/180/138 179/177/137 181/179/139
f 177/175/135 182/180/138 183/181/140
f 182/180/138 181/179/139 184/182/141
f 183/181/140 182/180/138 185/183/142
f 185/183/142 182/180/138 184/182/141
f 183/181/140 185/183/142 186/184/143
f 185/183/142 184/182/141 187/185/144
f 186/184/143 185/183/142 188/186/145
f 188/186/145 185/183/142 187/185/144
f 186/184/143 188/186/145 189/187/66
f 189/187/66 188/186/145 190/188/146
f 188/186/145 187/185/144 191/189/147
f 188/186/145 191/189/147 190/188/146
f 191/189/147 187/185/144 192/190/144
f 191/189/147 192/190/144 193/191/144
f 190/188/146 191/189/147 194/192/134
f 194/192/134 191/189/147 193/191/144
f 190/188/146 194/192/134 195/193/148
f 194/192/134 193/191/144 196/194/149
f 195/193/148 194/192/134 197/195/150
f 197/195/150 194/192/134 196/194/149
f 195/193/148 197/195/150 198/196/151
f 198/196/151 197/195/150 199/197/152
f 197/195/150 196/194/149 200/198/153
f 197/195/150 200/198/153 199/197/152
f 200/198/153 196/194/149 201/199/154
f 200/198/153 201/199/154 70/35/155
f 200/198/153 70/35/155 199/197/152
f 199/197/152 70/35/155 202/200/156
f 44/44/157 203/201/158 204/202/159
f 203/201/158 44/44/157 43/43/160
f 203/201/158 43/43/160 41/41/161
f 203/201/158 41/41/161 205/203/162
f 203/201/158 205/203/162 206/204/163
f 203/201/158 206/204/163 204/202/159
f 204/202/159 206/204/163 207/205/164
f 44/44/157 204/202/159 208/206/165
f 208/206/165 204/202/159 207/205/164
f 44/44/157 208/206/165 209/207/166
f 208/206/165 207/205/164 210/208/167
f 209/207/166 208/206/165 211/209/168
f 211/209/168 208/206/165 210/208/167
f 209/207/166 211/209/168 212/210/169
f 212/210/169 211/209/168 213/211/170
f 211/209/168 210/208/167 214/212/169
f 211/209/168 214/212/169 213/211/170
f 214/212/169 210/208/167 183/213/171
f 213/211/170 214/212/169 215/214/172
f 214/212/169 183/213/171 216/215/173
f 214/212/169 216/215/173 215/214/172
f 216/215/173 183/213/171 186/216/174
f 215/214/172 216/215/173 217/217/175
f 216/215/173 186/216/174 218/218/176
f 216/215/173 218/218/176 217/217/175
f 218/218/176 186/216/174 189/219/177
f 218/218/176 189/219/177 190/220/178
f 217/217/175 218/218/176 219/221/179
f 219/221/179 218/218/176 190/220/178
f 217/217/175 219/221/179 220/222/175
f 220/222/175 219/221/179 221/223/175
f 219/221/179 190/220/178 222/224/165
f 219/221/179 222/224/165 221/223/175
f 222/224/165 190/220/178 195/225/180
f 221/223/175 222/224/165 223/226/181
f 222/224/165 195/225/180 224/227/182
f 222/224/165 224/227/182 223/226/181
f 224/227/182 195/225/180 198/228/183
f 224/227/182 198/228/183 199/229/184
f 223/226/181 224/227/182 225/230/185
f 225/230/185 224/227/182 199/229/184
f 223/226/181 225/230/185 226/231/186
f 225/230/185 199/229/184 70/70/187
f 225/230/185 70/70/187 226/231/186
f 227/232/188 228/233/189 229/234/188
f 227/232/188 229/234/188 230/235/190
f 230/235/190 229/234/188 231/236/190
f 230/235/190 231/236/190 232/235/191
f 232/235/191 231/236/190 233/236/191
f 232/235/191 233/236/191 234/235/192
f 234/235/192 233/236/191 235/237/192
f 234/235/192 235/237/192 236/238/193
f 236/238/193 235/237/192 237/237/193
f 236/238/193 237/237/193 238/239/194
f 238/239/194 237/237/193 239/240/194
f 238/239/194 239/240/194 240/241/194
f 240/241/194 239/240/194 241/242/194
f 240/241/194 241/242/194 152/243/195
f 152/243/195 241/242/194 242/244/195
f 152/243/195 242/244/195 243/245/195
f 243/245/195 242/244/195 244/246/195
f 243/245/195 244/246/195 245/247/196
f 245/247/196 244/246/195 246/248/196
f 245/247/196 246/248/196 247/249/197
f 247/249/197 246/248/196 248/250/197
f 247/249/197 248/250/197 249/251/197
f 249/251/197 248/250/197 250/252/197
f 249/251/197 250/252/197 251/253/197
f 251/253/197 250/252/197 252/254/197
f 251/253/197 252/254/197 253/255/197
f 253/255/197 252/254/197 254/256/197
f 253/255/197 254/256/197 39/257/197
f 39/257/197 254/256/197 8/258/197
f 39/257/197 8/258/197 41/259/197
f 41/259/197 8/258/197 6/260/197
f 41/259/197 6/260/197 205/261/197
f 205/261/197 6/260/197 172/262/197
f 205/261/197 172/262/197 206/263/197
f 206/263/197 172/262/197 173/264/197
f 206/263/197 173/264/197 207/265/197
f 207/265/197 173/264/197 175/266/197
f 207/265/197 175/266/197 210/267/197
f 210/267/197 175/266/197 177/268/197
f 210/267/197 177/268/197 183/269/198
f 255/270/199 256/271/200 257/272/201
f 256/271/200 255/270/199 258/273/202
f 258/273/202 255/270/199 259/274/202
f 256/271/200 258/273/202 260/275/203
f 259/274/202 255/270/199 261/276/204
f 259/274/202 261/276/204 262/277/205
f 261/276/204 255/270/199 263/278/206
f 263/278/206 255/270/199 257/272/201
f 261/276/204 263/278/206 264/279/206
f 262/277/205 261/276/204 265/280/207
f 265/280/207 261/276/204 264/279/206
f 262/277/205 265/280/207 266/281/208
f 265/280/207 264/279/206 267/282/209
f 265/280/207 267/282/209 268/283/210
f 265/280/207 268/283/210 266/281/208
f 268/283/210 267/282/209 269/284/211
f 268/283/210 269/284/211 270/285/212
f 266/281/208 268/283/210 271/286/210
f 271/286/210 268/283/210 270/285/212
f 266/281/208 271/286/210 272/287/213
f 271/286/210 270/285/212 273/288/212
f 272/287/213 271/286/210 274/289/214
f 274/289/214 271/286/210 273/288/212
f 272/287/213 274/289/214 275/290/215
f 275/290/215 274/289/214 276/291/216
f 274/289/214 273/288/212 277/292/217
f 274/289/214 277/292/217 276/291/216
f 277/292/217 273/288/212 278/293/218
f 276/291/216 277/292/217 202/294/219
f 277/292/217 278/293/218 70/70/220
f 277/292/217 70/70/220 202/294/219
f 279/295/221 280/296/222 281/297/222
f 279/295/221 281/297/222 282/298/223
f 279/295/221 282/298/223 262/299/224
f 282/298/223 281/297/222 283/300/222
f 262/299/224 282/298/223 259/301/225
f 282/298/223 283/300/222 284/302/226
f 282/298/223 284/302/226 259/301/225
f 1/1/227 4/4/228 178/176/229
f 178/176/229 4/4/228 16/16/230
f 16/16/230 4/4/228 11/11/231
f 16/16/230 11/11/231 14/14/232
f 178/176/229 16/16/230 19/19/233
f 178/176/229 19/19/233 180/178/234
f 180/178/234 19/19/233 22/22/235
f 180/178/234 22/22/235 181/179/236
f 181/179/236 22/22/235 24/24/236
f 181/179/236 24/24/236 184/182/236
f 184/182/236 24/24/236 26/26/236
f 184/182/236 26/26/236 187/185/236
f 187/185/236 26/26/236 192/190/236
f 192/190/236 26/26/236 27/27/236
f 192/190/236 27/27/236 193/191/236
f 193/191/236 27/27/236 29/29/236
f 193/191/236 29/29/236 31/31/234
f 193/191/236 31/31/234 196/194/234
f 196/194/234 31/31/234 201/199/237
f 201/199/237 31/31/234 33/33/237
f 201/199/237 33/33/237 35/35/238
f 285/303/239 286/304/240 287/305/241
f 285/303/239 287/305/241 288/306/242
f 288/306/242 287/305/241 289/307/243
f 285/303/239 288/306/242 290/308/244
f 290/308/244 288/306/242 291/309/245
f 285/303/239 290/308/244 292/310/246
f 288/306/242 289/307/243 293/311/247
f 288/306/242 293/311/247 291/309/245
f 293/311/247 289/307/243 294/312/248
f 291/309/245 293/311/247 295/313/245
f 285/303/239 292/310/246 296/314/239
f 285/303/239 296/314/239 286/304/240
f 296/314/239 292/310/246 297/315/249
f 295/313/245 293/311/247 298/316/250
f 298/316/250 293/311/247 294/312/248
f 295/313/245 298/316/250 299/317/251
f 298/316/250 294/312/248 300/318/252
f 298/316/250 300/318/252 299/317/251
f 296/314/239 297/315/249 301/319/253
f 301/319/253 297/315/249 302/320/254
f 296/314/239 301/319/253 303/321/240
f 296/314/239 303/321/240 286/304/240
f 301/319/253 302/320/254 304/322/20
f 304/322/20 302/320/254 305/323/242
f 304/322/20 305/323/242 306/324/255
f 304/322/20 306/324/255 307/325/256
f 304/322/20 307/325/256 301/319/253
f 301/319/253 307/325/256 303/321/240
f 303/321/240 307/325/256 308/326/253
f 308/326/253 307/325/256 306/324/257
f 309/327/253 286/304/240 303/321/240
f 309/327/253 303/321/240 308/326/253
f 308/326/253 306/324/257 310/328/257
f 310/328/257 306/324/257 311/329/258
f 310/328/257 311/329/258 312/330/258
f 312/330/258 311/329/258 313/331/258
f 312/330/258 313/331/258 314/332/258
f 314/332/258 313/331/258 315/333/259
f 314/332/258 315/333/259 316/334/259
f 316/334/259 315/333/259 317/335/260
f 316/334/259 317/335/260 318/336/260
f 318/336/260 317/335/260 17/17/253
f 17/17/253 317/335/260 18/18/261
f 319/337/253 286/304/240 309/327/253
f 286/304/240 319/337/253 320/338/253
f 286/304/240 320/338/253 287/305/241
f 287/305/241 320/338/253 289/307/261
f 319/337/253 309/327/253 242/339/253
f 319/337/253 242/339/253 320/338/253
f 242/339/253 309/327/253 308/326/253
f 289/307/261 320/338/253 321/340/239
f 321/340/239 320/338/253 242/339/253
f 289/307/261 321/340/239 294/312/262
f 294/312/262 321/340/239 322/341/262
f 242/339/253 308/326/253 244/342/253
f 244/342/253 308/326/253 310/328/253
f 321/340/239 242/339/253 241/343/239
f 244/342/253 310/328/253 108/106/253
f 108/106/253 310/328/253 105/103/253
f 244/342/253 108/106/253 111/109/253
f 244/342/253 111/109/253 112/110/253
f 244/342/253 112/110/253 115/113/253
f 244/342/253 115/113/253 118/116/253
f 105/103/253 310/328/253 312/330/253
f 244/342/253 118/116/253 246/344/253
f 105/103/253 312/330/253 102/100/253
f 102/100/253 312/330/253 99/97/253
f 99/97/253 312/330/253 96/94/253
f 96/94/253 312/330/253 91/90/253
f 246/344/253 118/116/253 121/119/253
f 91/90/253 312/330/253 314/332/253
f 246/344/253 121/119/253 124/122/253
f 91/90/253 314/332/253 88/87/253
f 246/344/253 124/122/253 127/125/253
f 88/87/253 314/332/253 80/80/253
f 246/344/253 127/125/253 323/345/253
f 80/80/253 314/332/253 72/72/253
f 246/344/253 323/345/253 324/346/253
f 246/344/253 324/346/253 325/347/253
f 246/344/253 325/347/253 326/348/253
f 246/344/253 326/348/253 327/349/253
f 72/72/253 314/332/253 73/73/253
f 73/73/253 314/332/253 75/75/253
f 75/75/253 314/332/253 78/78/253
f 78/78/253 314/332/253 84/84/253
f 246/344/253 327/349/253 248/350/253
f 84/84/253 314/332/253 316/334/20
f 248/350/253 327/349/253 328/351/253
f 84/84/253 316/334/20 329/352/253
f 248/350/253 328/351/253 330/353/253
f 248/350/253 330/353/253 331/354/253
f 248/350/253 331/354/253 332/355/253
f 248/350/253 332/355/253 333/356/253
f 329/352/253 316/334/20 334/357/253
f 248/350/253 333/356/253 250/358/239
f 334/357/253 316/334/20 250/358/239
f 250/358/239 333/356/253 335/359/253
f 334/357/253 250/358/239 336/360/253
f 336/360/253 250/358/239 335/359/253
f 250/358/239 316/334/20 252/361/256
f 252/361/256 316/334/20 318/336/263
f 252/361/256 318/336/263 254/362/238
f 254/362/238 318/336/263 8/8/264
f 8/8/264 318/336/263 7/7/265
f 7/7/265 318/336/263 9/9/253
f 9/9/253 318/336/263 15/15/253
f 15/15/253 318/336/263 17/17/253
f 337/363/221 266/364/266 272/365/267
f 337/363/221 272/365/267 338/366/268
f 338/366/268 272/365/267 275/367/269
f 338/366/268 275/367/269 276/368/270
f 337/363/221 338/366/268 339/369/222
f 338/366/268 276/368/270 340/370/271
f 338/366/268 340/370/271 339/369/222
f 340/370/271 276/368/270 202/200/272
f 340/370/271 202/200/272 35/35/273
f 340/370/271 35/35/273 341/371/274
f 340/370/271 341/371/274 339/369/222
f 337/363/221 339/369/222 342/372/222
f 337/363/221 342/372/222 343/373/221
f 337/363/221 343/373/221 266/364/266
f 343/373/221 342/372/222 344/374/275
f 266/364/266 343/373/221 279/295/221
f 266/364/266 279/295/221 262/299/224
f 343/373/221 344/374/275 280/296/222
f 343/373/221 280/296/222 279/295/221
f 280/296/222 344/374/275 28/28/276
f 28/28/276 344/374/275 30/30/276
f 280/296/222 28/28/276 25/25/275
f 30/30/276 344/374/275 342/372/277
f 30/30/276 342/372/277 32/32/277
f 32/32/277 342/372/277 339/369/277
f 32/32/277 339/369/277 34/34/244
f 34/34/244 339/369/277 341/371/243
f 34/34/244 341/371/243 35/35/278
f 280/296/222 25/25/275 23/23/276
f 280/296/222 23/23/276 281/297/276
f 281/297/276 23/23/276 21/21/276
f 281/297/276 21/21/276 283/300/276
f 283/300/276 21/21/276 20/20/279
f 283/300/276 20/20/279 345/375/277
f 345/375/277 20/20/279 18/18/280
f 345/375/277 18/18/280 346/376/280
f 346/376/280 18/18/280 317/335/280
f 346/376/280 317/335/280 315/333/281
f 345/375/277 346/376/280 347/377/282
f 346/376/280 315/333/281 348/378/283
f 348/378/283 315/333/281 349/379/281
f 349/379/281 315/333/281 313/331/281
f 349/379/281 313/331/281 350/380/281
f 350/380/281 313/331/281 311/329/281
f 350/380/281 311/329/281 351/381/284
f 351/381/284 311/329/281 306/324/284
f 346/376/280 348/378/283 352/382/282
f 346/376/280 352/382/282 347/377/282
f 347/377/282 352/382/282 260/383/285
f 347/377/282 260/383/285 258/384/225
f 260/383/285 352/382/282 353/385/285
f 347/377/282 258/384/225 284/302/226
f 347/377/282 284/302/226 345/375/277
f 284/302/226 258/384/225 259/301/225
f 345/375/277 284/302/226 283/300/222
f 353/385/285 352/382/282 354/386/286
f 354/386/286 352/382/282 348/378/283
f 353/385/285 354/386/286 355/387/221
f 355/387/221 354/386/286 356/388/221
f 354/386/286 348/378/283 357/389/282
f 354/386/286 357/389/282 356/388/221
f 357/389/282 348/378/283 349/379/279
f 356/388/221 357/389/282 358/390/287
f 357/389/282 349/379/279 359/391/288
f 357/389/282 359/391/288 358/390/287
f 359/391/288 349/379/279 350/380/281
f 358/390/287 359/391/288 360/392/223
f 359/391/288 350/380/281 361/393/222
f 359/391/288 361/393/222 360/392/223
f 360/392/223 361/393/222 299/317/289
f 299/317/289 361/393/222 295/313/290
f 295/313/290 361/393/222 291/309/289
f 361/393/222 350/380/281 351/381/284
f 361/393/222 351/381/284 291/309/289
f 291/309/289 351/381/284 290/308/291
f 290/308/291 351/381/284 292/310/292
f 292/310/292 351/381/284 306/324/284
f 292/310/292 306/324/284 297/315/239
f 297/315/239 306/324/284 305/323/255
f 297/315/239 305/323/255 302/320/253
f 226/231/293 70/70/294 68/68/293
f 226/231/293 68/68/293 66/66/295
f 226/231/293 66/66/295 223/226/295
f 223/226/295 66/66/295 221/223/296
f 221/223/296 66/66/295 64/64/296
f 221/223/296 64/64/296 62/62/296
f 221/223/296 62/62/296 220/222/296
f 220/222/296 62/62/296 61/61/296
f 220/222/296 61/61/296 217/217/296
f 217/217/296 61/61/296 215/214/296
f 215/214/296 61/61/296 59/59/296
f 215/214/296 59/59/296 213/211/296
f 213/211/296 59/59/296 57/57/297
f 213/211/296 57/57/297 212/210/295
f 212/210/295 57/57/297 54/54/298
f 212/210/295 54/54/298 209/207/299
f 209/207/299 54/54/298 52/52/300
f 209/207/299 52/52/300 44/44/301
f 44/44/301 52/52/300 50/50/302
f 44/44/301 50/50/302 45/45/303
f 45/45/303 50/50/302 48/48/304
f 228/394/253 362/395/253 239/396/305
f 237/397/253 229/398/253 228/394/253
f 237/397/253 228/394/253 239/396/305
f 239/396/305 362/395/253 363/399/253
f 363/399/253 362/395/253 364/400/253
f 363/399/253 364/400/253 365/401/253
f 365/401/253 364/400/253 366/402/253
f 366/402/253 364/400/253 367/403/253
f 366/402/253 367/403/253 368/404/253
f 368/404/253 367/403/253 369/405/253
f 368/404/253 369/405/253 370/406/253
f 239/396/305 363/399/253 371/407/253
f 239/396/305 371/407/253 372/408/253
f 239/396/305 372/408/253 373/409/253
f 239/396/305 373/409/253 374/410/261
f 375/411/305 376/412/305 239/396/305
f 375/411/305 239/396/305 377/413/261
f 377/413/261 239/396/305 378/414/261
f 239/396/305 376/412/305 379/415/305
f 378/414/261 239/396/305 380/416/261
f 380/416/261 239/396/305 374/410/261
f 239/396/305 379/415/305 241/343/239
f 241/343/239 379/415/305 381/417/305
f 241/343/239 381/417/305 382/418/239
f 380/416/261 374/410/261 383/419/261
f 383/419/261 374/410/261 384/420/261
f 384/420/261 374/410/261 385/421/261
f 385/421/261 374/410/261 386/422/253
f 241/343/239 382/418/239 321/340/239
f 386/422/253 374/410/261 322/341/253
f 321/340/239 382/418/239 387/423/305
f 386/422/253 322/341/253 388/424/253
f 321/340/239 387/423/305 389/425/239
f 321/340/239 389/425/239 390/426/239
f 388/424/253 322/341/253 391/427/253
f 391/427/253 322/341/253 392/428/253
f 392/428/253 322/341/253 393/429/253
f 393/429/253 322/341/253 394/430/253
f 394/430/253 322/341/253 321/340/239
f 321/340/239 390/426/239 395/431/239
f 394/430/253 321/340/239 396/432/253
f 321/340/239 395/431/239 397/433/239
f 396/432/253 321/340/239 398/434/239
f 398/434/239 321/340/239 397/433/239
f 229/398/253 237/397/253 235/435/253
f 229/398/253 235/435/253 233/436/253
f 229/398/253 233/436/253 231/437/253
f 387/438/306 399/439/307 389/440/307
f 389/440/307 399/439/307 400/441/308
f 399/439/307 387/438/306 401/442/306
f 389/440/307 400/441/308 390/443/308
f 401/442/306 387/438/306 402/444/309
f 390/443/308 400/441/308 403/445/310
f 402/444/309 387/438/306 382/446/309
f 390/443/308 403/445/310 395/447/310
f 402/444/309 382/446/309 404/448/311
f 395/447/310 403/445/310 405/449/312
f 404/448/311 382/446/309 381/450/311
f 395/447/310 405/449/312 397/451/312
f 404/448/311 381/450/311 406/452/313
f 397/451/312 405/449/312 407/453/314
f 406/452/313 381/450/311 379/454/313
f 397/451/312 407/453/314 398/455/314
f 406/452/313 379/454/313 408/456/315
f 398/455/314 407/453/314 409/457/316
f 408/456/315 379/454/313 376/458/315
f 398/455/314 409/457/316 396/459/316
f 408/456/315 376/458/315 410/460/317
f 396/459/316 409/457/316 394/461/318
f 410/460/317 376/458/315 375/462/317
f 394/461/318 409/457/316 411/463/318
f 410/460/317 375/462/317 412/464/319
f 394/461/318 411/463/318 393/465/320
f 412/464/319 375/462/317 377/466/319
f 393/465/320 411/463/318 413/467/320
f 412/464/319 377/466/319 378/468/321
f 393/465/320 413/467/320 392/469/322
f 412/464/319 378/468/321 414/470/321
f 392/469/322 413/467/320 415/471/322
f 414/470/321 378/468/321 380/472/323
f 392/469/322 415/471/322 391/473/324
f 414/470/321 380/472/323 416/474/323
f 391/473/324 415/471/322 417/475/324
f 416/474/323 380/472/323 383/476/325
f 391/473/324 417/475/324 388/477/326
f 416/474/323 383/476/325 418/478/325
f 388/477/326 417/475/324 419/479/326
f 388/477/326 419/479/326 386/480/327
f 386/480/327 419/479/326 420/481/327
f 418/478/325 383/476/325 384/482/328
f 418/478/325 384/482/328 421/483/328
f 421/483/328 384/482/328 385/484/75
f 421/483/328 385/484/75 422/485/75
f 422/485/75 385/484/75 386/486/327
f 422/485/75 386/486/327 420/487/327
f 77/77/329 423/488/329 81/81/329
f 81/81/329 423/488/329 424/489/329
f 423/488/329 77/77/329 425/490/329
f 81/81/329 424/489/329 87/86/329
f 425/490/329 77/77/329 426/491/329
f 87/86/329 424/489/329 90/89/329
f 426/491/329 77/77/329 427/492/329
f 90/89/329 424/489/329 428/493/329
f 427/492/329 77/77/329 74/74/329
f 90/89/329 428/493/329 92/91/330
f 427/492/329 74/74/329 76/76/329
f 92/91/330 428/493/329 130/128/329
f 427/492/329 76/76/329 429/494/329
f 92/91/330 130/128/329 94/92/330
f 429/494/329 76/76/329 83/83/329
f 429/494/329 83/83/329 430/495/329
f 430/495/329 83/83/329 85/85/329
f 430/495/329 85/85/329 431/496/329
f 431/496/329 85/85/329 432/497/329
f 431/496/329 432/497/329 433/498/329
f 433/498/329 432/497/329 434/499/329
f 98/96/329 94/92/330 130/128/329
f 98/96/329 130/128/329 128/126/329
f 98/96/329 128/126/329 125/123/329
f 98/96/329 125/123/329 122/120/329
f 98/96/329 122/120/329 101/99/329
f 101/99/329 122/120/329 119/117/329
f 101/99/329 119/117/329 104/102/331
f 104/102/331 119/117/329 116/114/331
f 104/102/331 116/114/331 106/104/332
f 106/104/332 116/114/331 114/112/332
f 106/104/332 114/112/332 109/107/333
f 70/35/334 199/197/152 202/200/156
f 160/158/123 136/134/129 157/155/109
f 136/134/129 160/158/123 134/132/109
f 134/132/109 160/158/123 161/159/335
f 134/132/109 161/159/335 132/130/108
f 132/130/108 161/159/335 435/500/336
f 435/500/336 161/159/335 163/161/337
f 132/130/108 435/500/336 138/136/338
f 138/136/338 435/500/336 436/501/212
f 138/136/338 436/501/212 142/140/338
f 142/140/338 436/501/212 146/144/339
f 146/144/339 436/501/212 360/502/340
f 435/500/336 163/161/337 437/503/337
f 435/500/336 437/503/337 436/501/212
f 437/503/337 163/161/337 165/163/337
f 437/503/337 165/163/337 438/504/337
f 438/504/337 165/163/337 167/165/337
f 436/501/212 437/503/337 439/505/341
f 436/501/212 439/505/341 360/502/340
f 439/505/341 437/503/337 438/504/342
f 360/502/340 439/505/341 358/506/343
f 438/504/337 167/165/337 440/507/344
f 439/505/341 438/504/342 441/508/200
f 439/505/341 441/508/200 358/506/343
f 441/508/200 438/504/342 440/507/344
f 358/506/343 441/508/200 356/509/207
f 356/509/207 441/508/200 442/510/345
f 442/510/345 441/508/200 440/507/344
f 356/509/207 442/510/345 355/511/207
f 355/511/207 442/510/345 353/512/203
f 353/512/203 442/510/345 443/513/200
f 443/513/200 442/510/345 440/507/344
f 353/512/203 443/513/200 260/275/203
f 260/275/203 443/513/200 256/271/200
f 443/513/200 440/507/344 444/514/346
f 443/513/200 444/514/346 256/271/200
f 444/514/346 440/507/344 167/165/337
f 444/514/346 167/165/337 169/167/346
f 256/271/200 444/514/346 257/272/201
f 444/514/346 169/167/346 53/53/346
f 444/514/346 53/53/346 257/272/201
f 257/272/201 53/53/346 55/55/342
f 257/272/201 55/55/342 263/278/201
f 263/278/201 55/55/342 56/56/201
f 263/278/201 56/56/201 264/279/201
f 264/279/201 56/56/201 58/58/201
f 264/279/201 58/58/201 267/282/209
f 267/282/209 58/58/201 60/60/209
f 267/282/209 60/60/209 63/63/347
f 267/282/209 63/63/347 269/284/209
f 269/284/209 63/63/347 65/65/347
f 269/284/209 65/65/347 270/285/348
f 270/285/348 65/65/347 67/67/348
f 270/285/348 67/67/348 273/288/348
f 273/288/348 67/67/348 69/69/108
f 273/288/348 69/69/108 278/293/349
f 278/293/349 69/69/108 70/70/350
f 243/515/109 155/153/109 152/150/109
f 155/153/109 243/515/109 162/160/109
f 162/160/109 243/515/109 445/516/109
f 162/160/109 445/516/109 446/517/109
f 445/516/109 243/515/109 447/518/109
f 447/518/109 243/515/109 448/519/109
f 448/519/109 243/515/109 449/520/109
f 449/520/109 243/515/109 450/521/109
f 162/160/109 446/517/109 164/162/109
f 164/162/109 446/517/109 451/522/109
f 164/162/109 451/522/109 452/523/109
f 164/162/109 452/523/109 453/524/109
f 164/162/109 453/524/109 454/525/109
f 450/521/109 243/515/109 245/526/109
f 164/162/109 454/525/109 166/164/109
f 450/521/109 245/526/109 455/527/109
f 166/164/109 454/525/109 456/528/109
f 166/164/109 456/528/109 457/529/109
f 455/527/109 245/526/109 458/530/109
f 166/164/109 457/529/109 459/531/109
f 458/530/109 245/526/109 460/532/109
f 166/164/109 459/531/109 461/533/109
f 166/164/109 461/533/109 462/534/109
f 166/164/109 462/534/109 463/535/109
f 166/164/109 463/535/109 464/536/109
f 460/532/109 245/526/109 465/537/109
f 166/164/109 464/536/109 168/166/44
f 465/537/109 245/526/109 466/538/109
f 466/538/109 245/526/109 467/539/109
f 467/539/109 245/526/109 468/540/109
f 468/540/109 245/526/109 469/541/109
f 168/166/44 464/536/109 470/542/109
f 469/541/109 245/526/109 247/543/109
f 168/166/44 470/542/109 471/544/109
f 469/541/109 247/543/109 472/545/109
f 472/545/109 247/543/109 473/546/109
f 473/546/109 247/543/109 474/547/109
f 474/547/109 247/543/109 475/548/109
f 475/548/109 247/543/109 476/549/109
f 476/549/109 247/543/109 249/550/109
f 168/166/44 471/544/109 249/550/109
f 476/549/109 249/550/109 477/551/109
f 249/550/109 471/544/109 478/552/109
f 249/550/109 478/552/109 477/551/109
f 168/166/44 249/550/109 251/553/351
f 168/166/44 251/553/351 170/168/352
f 170/168/352 251/553/351 253/554/294
f 170/168/352 253/554/294 39/39/353
f 170/168/352 39/39/353 40/40/122
f 170/168/352 40/40/122 42/42/109
f 170/168/352 42/42/109 46/46/109
f 170/168/352 46/46/109 51/51/109
f 240/555/109 152/150/109 149/147/109
f 240/555/109 149/147/109 479/556/109
f 240/555/109 479/556/109 480/557/354
f 240/555/109 480/557/354 481/558/354
f 479/556/109 149/147/109 482/559/354
f 240/555/109 481/558/354 238/560/354
f 482/559/354 149/147/109 483/561/109
f 483/561/109 149/147/109 484/562/109
f 484/562/109 149/147/109 485/563/109
f 238/560/354 481/558/354 486/564/354
f 485/563/109 149/147/109 487/565/109
f 487/565/109 149/147/109 488/566/109
f 488/566/109 149/147/109 489/567/123
f 489/567/123 149/147/109 490/568/123
f 238/560/354 486/564/354 491/569/354
f 490/568/123 149/147/109 150/148/123
f 238/560/354 491/569/354 492/570/129
f 490/568/123 150/148/123 493/571/123
f 238/560/354 492/570/129 494/572/129
f 493/571/123 150/148/123 495/573/123
f 495/573/123 150/148/123 496/574/123
f 496/574/123 150/148/123 497/575/123
f 497/575/123 150/148/123 498/576/123
f 498/576/123 150/148/123 499/577/129
f 238/560/354 494/572/129 500/578/129
f 498/576/123 499/577/129 501/579/129
f 501/579/129 499/577/129 502/580/129
f 502/580/129 499/577/129 503/581/129
f 503/581/129 499/577/129 500/578/129
f 500/578/129 499/577/129 238/560/354
f 238/560/354 499/577/129 504/582/109
f 238/560/354 504/582/109 505/583/109
f 238/560/354 505/583/109 506/584/109
f 238/560/354 506/584/109 507/585/109
f 238/560/354 507/585/109 508/586/109
f 508/586/109 507/585/109 509/587/109
f 509/587/109 507/585/109 510/588/109
f 509/587/109 510/588/109 511/589/109
f 509/587/109 511/589/109 512/590/109
f 512/590/109 511/589/109 513/591/109
f 512/590/109 513/591/109 514/592/109
f 514/592/109 513/591/109 515/593/109
f 238/560/354 508/586/109 516/594/109
f 238/560/354 516/594/109 236/595/109
f 236/595/109 516/594/109 227/596/109
f 234/597/109 236/598/109 227/597/109
f 234/597/109 227/597/109 232/597/109
f 232/597/109 227/597/109 230/597/109
f 498/599/355 517/600/356 518/601/355
f 517/600/356 498/599/355 501/602/356
f 517/600/356 501/602/356 519/603/357
f 519/603/357 501/602/356 502/604/357
f 519/603/357 502/604/357 520/605/358
f 520/605/358 502/604/357 503/606/358
f 520/605/358 503/606/358 521/607/359
f 521/607/359 503/606/358 500/608/359
f 521/607/359 500/608/359 522/609/360
f 522/609/360 500/608/359 494/610/360
f 522/609/360 494/610/360 523/611/361
f 523/611/361 494/610/360 492/612/361
f 523/611/361 492/612/361 491/613/362
f 523/611/361 491/613/362 524/614/362
f 524/614/362 491/613/362 486/615/363
f 524/614/362 486/615/363 525/616/363
f 525/616/363 486/615/363 481/617/364
f 525/616/363 481/617/364 526/618/364
f 526/618/364 481/617/364 480/619/365
f 526/618/364 480/619/365 527/620/365
f 527/620/365 480/619/365 479/621/366
f 527/620/365 479/621/366 528/622/366
f 528/622/366 479/621/366 482/623/367
f 528/622/366 482/623/367 529/624/367
f 529/624/367 482/623/367 530/625/368
f 530/625/368 482/623/367 483/626/368
f 530/625/368 483/626/368 531/627/369
f 531/627/369 483/626/368 484/628/369
f 531/627/369 484/628/369 532/629/370
f 532/629/370 484/628/369 485/630/370
f 532/629/370 485/630/370 533/631/371
f 533/631/371 485/630/370 487/632/371
f 533/631/371 487/632/371 534/633/372
f 534/633/372 487/632/371 488/634/372
f 534/633/372 488/634/372 535/635/373
f 535/635/373 488/634/372 489/636/373
f 535/635/373 489/636/373 490/637/374
f 535/635/373 490/637/374 536/638/374
f 536/638/374 490/637/374 493/639/375
f 536/638/374 493/639/375 537/640/375
f 537/640/375 493/639/375 495/641/376
f 537/640/375 495/641/376 538/642/376
f 538/642/376 495/641/376 496/643/377
f 538/642/376 496/643/377 539/644/377
f 539/644/377 496/643/377 497/645/378
f 539/644/377 497/645/378 540/646/378
f 540/646/378 497/645/378 498/647/355
f 540/646/378 498/647/355 518/648/355
f 541/649/379 542/650/379 543/651/379
f 543/651/379 542/650/379 544/652/379
f 541/649/379 543/651/379 545/653/379
f 544/652/379 542/650/379 546/654/379
f 541/649/379 545/653/379 547/655/379
f 544/652/379 546/654/379 548/656/379
f 541/649/379 547/655/379 549/657/379
f 548/656/379 546/654/379 550/658/379
f 541/649/379 549/657/379 551/659/379
f 548/656/379 550/658/379 552/660/380
f 551/659/379 549/657/379 553/661/379
f 548/656/379 552/660/380 554/662/379
f 553/661/379 549/657/379 555/663/379
f 554/662/379 552/660/380 556/664/380
f 553/661/379 555/663/379 557/665/379
f 557/665/379 555/663/379 558/666/379
f 557/665/379 558/666/379 559/667/379
f 559/667/379 558/666/379 560/668/379
f 559/667/379 560/668/379 561/669/379
f 561/669/379 560/668/379 562/670/379
f 561/669/379 562/670/379 563/671/379
f 554/662/379 556/664/380 564/672/379
f 554/662/379 564/672/379 565/673/379
f 565/673/379 564/672/379 566/674/379
f 566/674/379 564/672/379 567/675/379
f 567/675/379 564/672/379 568/676/379
f 567/675/379 568/676/379 569/677/379
f 569/677/379 568/676/379 570/678/381
f 569/677/379 570/678/381 571/679/382
f 571/679/382 570/678/381 572/680/383
f 571/679/382 572/680/383 573/681/384
f 573/681/384 572/680/383 574/682/385
f 460/532/386 575/683/387 458/530/388
f 458/530/388 575/683/387 576/684/389
f 458/530/388 576/684/389 455/527/390
f 576/684/389 575/683/387 566/674/391
f 566/674/391 575/683/387 565/673/392
f 576/684/389 566/674/391 567/675/391
f 565/673/392 575/683/387 577/685/393
f 577/685/393 575/683/387 460/532/386
f 565/673/392 577/685/393 554/662/392
f 577/685/393 460/532/386 578/686/394
f 577/685/393 578/686/394 554/662/392
f 578/686/394 460/532/386 465/537/395
f 554/662/392 578/686/394 548/656/396
f 578/686/394 465/537/395 579/687/394
f 578/686/394 579/687/394 548/656/396
f 579/687/394 465/537/395 466/538/397
f 548/656/396 579/687/394 544/652/398
f 579/687/394 466/538/397 580/688/399
f 579/687/394 580/688/399 544/652/398
f 580/688/399 466/538/397 467/539/400
f 544/652/398 580/688/399 543/651/401
f 580/688/399 467/539/400 581/689/402
f 580/688/399 581/689/402 543/651/401
f 581/689/402 467/539/400 468/540/394
f 543/651/401 581/689/402 545/653/403
f 581/689/402 468/540/394 582/690/396
f 581/689/402 582/690/396 545/653/403
f 582/690/396 468/540/394 469/541/399
f 545/653/403 582/690/396 583/691/398
f 583/691/398 582/690/396 469/541/399
f 545/653/403 583/691/398 547/655/403
f 583/691/398 469/541/399 472/545/392
f 547/655/403 583/691/398 549/657/404
f 583/691/398 472/545/392 584/692/401
f 583/691/398 584/692/401 549/657/404
f 584/692/401 472/545/392 473/546/396
f 549/657/404 584/692/401 555/663/405
f 584/692/401 473/546/396 585/693/406
f 584/692/401 585/693/406 555/663/405
f 585/693/406 473/546/396 474/547/407
f 555/663/405 585/693/406 558/666/408
f 585/693/406 474/547/407 586/694/409
f 585/693/406 586/694/409 558/666/408
f 586/694/409 474/547/407 475/548/403
f 558/666/408 586/694/409 560/668/410
f 586/694/409 475/548/403 587/695/411
f 586/694/409 587/695/411 560/668/410
f 587/695/411 475/548/403 476/549/412
f 560/668/410 587/695/411 562/670/413
f 587/695/411 476/549/412 588/696/414
f 587/695/411 588/696/414 562/670/413
f 588/696/414 476/549/412 477/551/415
f 562/670/413 588/696/414 563/671/416
f 588/696/414 477/551/415 589/697/417
f 588/696/414 589/697/417 563/671/416
f 589/697/417 477/551/415 478/552/418
f 589/697/417 478/552/418 471/544/419
f 563/671/416 589/697/417 590/698/420
f 590/698/420 589/697/417 471/544/419
f 563/671/416 590/698/420 561/669/421
f 590/698/420 471/544/419 470/542/422
f 561/669/421 590/698/420 591/699/423
f 591/699/423 590/698/420 470/542/422
f 561/669/421 591/699/423 559/667/424
f 591/699/423 470/542/422 464/536/425
f 559/667/424 591/699/423 592/700/426
f 592/700/426 591/699/423 464/536/425
f 559/667/424 592/700/426 557/665/427
f 592/700/426 464/536/425 463/535/428
f 557/665/427 592/700/426 553/661/429
f 553/661/429 592/700/426 463/535/428
f 553/661/429 463/535/428 462/534/430
f 553/661/429 462/534/430 551/659/431
f 551/659/431 462/534/430 461/533/432
f 551/659/431 461/533/432 593/701/433
f 551/659/431 593/701/433 541/649/434
f 593/701/433 461/533/432 459/531/42
f 541/649/434 593/701/433 594/702/435
f 594/702/435 593/701/433 459/531/42
f 541/649/434 594/702/435 542/650/436
f 594/702/435 459/531/42 457/529/437
f 542/650/436 594/702/435 595/703/438
f 595/703/438 594/702/435 457/529/437
f 542/650/436 595/703/438 546/654/439
f 595/703/438 457/529/437 456/528/177
f 546/654/439 595/703/438 596/704/440
f 596/704/440 595/703/438 456/528/177
f 546/654/439 596/704/440 550/658/441
f 596/704/440 456/528/177 454/525/442
f 550/658/441 596/704/440 552/660/443
f 552/660/443 596/704/440 597/660/444
f 597/660/444 596/704/440 454/525/442
f 552/660/443 597/660/444 556/664/445
f 597/660/444 454/525/442 598/705/446
f 597/660/444 598/705/446 556/664/445
f 598/705/446 454/525/442 453/524/447
f 556/664/445 598/705/446 599/706/356
f 599/706/356 598/705/446 453/524/447
f 556/664/445 599/706/356 564/672/448
f 599/706/356 453/524/447 452/523/449
f 564/672/448 599/706/356 600/707/450
f 600/707/450 599/706/356 452/523/449
f 564/672/448 600/707/450 568/676/451
f 600/707/450 452/523/449 451/522/452
f 568/676/451 600/707/450 601/708/453
f 601/708/453 600/707/450 451/522/452
f 568/676/451 601/708/453 570/678/454
f 601/708/453 451/522/452 446/517/455
f 570/678/454 601/708/453 572/680/456
f 601/708/453 446/517/455 602/709/457
f 601/708/453 602/709/457 572/680/456
f 602/709/457 446/517/455 445/516/458
f 572/680/456 602/709/457 574/682/459
f 602/709/457 445/516/458 603/710/460
f 602/709/457 603/710/460 574/682/459
f 603/710/460 445/516/458 447/518/461
f 603/710/460 447/518/461 448/519/462
f 574/682/459 603/710/460 604/711/463
f 604/711/463 603/710/460 448/519/462
f 574/682/459 604/711/463 573/681/464
f 604/711/463 448/519/462 449/520/465
f 573/681/464 604/711/463 571/679/466
f 604/711/463 449/520/465 605/712/467
f 604/711/463 605/712/467 571/679/466
f 605/712/467 449/520/465 450/521/468
f 571/679/466 605/712/467 569/677/469
f 605/712/467 450/521/468 606/713/470
f 605/712/467 606/713/470 569/677/469
f 606/713/470 450/521/468 455/527/390
f 569/677/469 606/713/470 567/675/391
f 606/713/470 455/527/390 576/684/389
f 606/713/470 576/684/389 567/675/391
f 323/345/471 127/125/104 131/129/107
f 428/493/472 131/129/107 130/128/105
f 323/345/471 131/129/107 607/714/107
f 607/714/107 131/129/107 428/493/472
f 323/345/471 607/714/107 324/346/473
f 607/714/107 428/493/472 424/489/474
f 324/346/473 607/714/107 608/715/475
f 608/715/475 607/714/107 424/489/474
f 324/346/473 608/715/475 325/347/476
f 608/715/475 424/489/474 423/488/477
f 325/347/476 608/715/475 609/716/478
f 609/716/478 608/715/475 423/488/477
f 325/347/476 609/716/478 326/348/107
f 609/716/478 423/488/477 425/490/479
f 326/348/107 609/716/478 610/717/472
f 610/717/472 609/716/478 425/490/479
f 326/348/107 610/717/472 327/349/475
f 610/717/472 425/490/479 611/718/474
f 610/717/472 611/718/474 327/349/475
f 611/718/474 425/490/479 426/491/480
f 327/349/475 611/718/474 328/351/105
f 611/718/474 426/491/480 427/492/481
f 328/351/105 611/718/474 612/719/477
f 612/719/477 611/718/474 427/492/481
f 328/351/105 612/719/477 330/353/472
f 612/719/477 427/492/481 429/494/482
f 330/353/472 612/719/477 613/720/483
f 613/720/483 612/719/477 429/494/482
f 330/353/472 613/720/483 331/354/484
f 613/720/483 429/494/482 430/495/485
f 331/354/484 613/720/483 614/721/486
f 614/721/486 613/720/483 430/495/485
f 331/354/484 614/721/486 332/355/480
f 614/721/486 430/495/485 431/496/487
f 332/355/480 614/721/486 615/722/488
f 615/722/488 614/721/486 431/496/487
f 332/355/480 615/722/488 333/356/489
f 615/722/488 431/496/487 433/498/490
f 333/356/489 615/722/488 616/723/491
f 616/723/491 615/722/488 433/498/490
f 333/356/489 616/723/491 335/359/492
f 616/723/491 433/498/490 434/499/493
f 335/359/492 616/723/491 617/724/494
f 617/724/494 616/723/491 434/499/493
f 335/359/492 617/724/494 336/360/495
f 336/360/495 617/724/494 334/357/496
f 617/724/494 434/499/493 618/725/497
f 617/724/494 618/725/497 334/357/496
f 618/725/497 434/499/493 432/497/498
f 334/357/496 618/725/497 329/352/499
f 618/725/497 432/497/498 619/726/500
f 618/725/497 619/726/500 329/352/499
f 619/726/500 432/497/498 85/85/63
f 329/352/499 619/726/500 84/84/62
f 619/726/500 85/85/63 82/82/60
f 619/726/500 82/82/60 84/84/62
f 510/727/501 363/728/502 365/729/501
f 510/727/501 365/729/501 366/730/503
f 363/728/502 510/727/501 507/731/502
f 510/727/501 366/730/503 511/732/503
f 363/728/502 507/731/502 371/733/504
f 511/732/503 366/730/503 513/734/189
f 371/733/504 507/731/502 506/735/504
f 513/734/189 366/730/503 368/736/189
f 371/733/504 506/735/504 505/737/505
f 513/734/189 368/736/189 515/738/506
f 371/733/504 505/737/505 372/739/505
f 515/738/506 368/736/189 370/740/506
f 372/739/505 505/737/505 504/741/507
f 515/738/506 370/740/506 514/742/508
f 372/739/505 504/741/507 373/743/507
f 514/742/508 370/740/506 369/744/508
f 373/743/507 504/741/507 499/745/509
f 514/742/508 369/744/508 512/746/192
f 373/743/507 499/745/509 374/747/509
f 512/746/192 369/744/508 367/748/192
f 374/747/509 499/745/509 150/749/510
f 512/746/192 367/748/192 364/750/193
f 374/747/509 150/749/510 322/751/510
f 512/746/192 364/750/193 509/752/193
f 322/751/510 150/749/510 148/753/511
f 509/752/193 364/750/193 362/754/512
f 322/751/510 148/753/511 294/755/511
f 509/752/193 362/754/512 508/756/512
f 294/755/511 148/753/511 147/757/513
f 508/756/512 362/754/512 516/758/189
f 294/755/511 147/757/513 300/759/513
f 516/758/189 362/754/512 228/233/189
f 300/759/513 147/757/513 146/760/510
f 300/759/513 146/760/510 299/761/510
f 299/761/510 146/760/510 360/762/509
f 516/758/189 228/233/189 227/232/188
f 401/442/514 530/625/515 399/439/515
f 399/439/515 530/625/515 531/627/516
f 530/625/515 401/442/514 529/624/514
f 399/439/515 531/627/516 400/441/516
f 529/624/514 401/442/514 402/444/511
f 400/441/516 531/627/516 532/629/517
f 529/624/514 402/444/511 528/622/511
f 400/441/516 532/629/517 403/445/517
f 528/622/511 402/444/511 404/448/518
f 403/445/517 532/629/517 533/631/519
f 528/622/511 404/448/518 527/620/518
f 403/445/517 533/631/519 405/449/519
f 527/620/518 404/448/518 406/452/520
f 405/449/519 533/631/519 534/633/521
f 527/620/518 406/452/520 526/618/520
f 405/449/519 534/633/521 407/453/521
f 526/618/520 406/452/520 408/456/522
f 407/453/521 534/633/521 535/635/523
f 526/618/520 408/456/522 525/616/522
f 407/453/521 535/635/523 409/457/523
f 525/616/522 408/456/522 410/460/524
f 409/457/523 535/635/523 536/638/525
f 525/616/522 410/460/524 524/614/524
f 409/457/523 536/638/525 411/463/525
f 524/614/524 410/460/524 412/464/526
f 411/463/525 536/638/525 537/640/527
f 524/614/524 412/464/526 523/611/526
f 411/463/525 537/640/527 413/467/527
f 523/611/526 412/464/526 414/470/528
f 413/467/527 537/640/527 538/642/529
f 523/611/526 414/470/528 522/609/528
f 413/467/527 538/642/529 415/471/529
f 522/609/528 414/470/528 416/474/530
f 415/471/529 538/642/529 539/644/531
f 522/609/528 416/474/530 521/607/530
f 415/471/529 539/644/531 417/475/531
f 521/607/530 416/474/530 418/478/532
f 417/475/531 539/644/531 540/646/533
f 521/607/530 418/478/532 520/605/532
f 417/475/531 540/646/533 419/479/533
f 419/479/533 540/646/533 518/648/534
f 419/479/533 518/648/534 420/481/534
f 520/605/532 418/478/532 421/483/535
f 520/605/532 421/483/535 519/603/535
f 519/603/535 421/483/535 422/485/536
f 519/603/535 422/485/536 517/600/536
f 517/600/536 422/485/536 420/487/534
f 517/600/536 420/487/534 518/601/534
