# CS2 body mesh, tools/cs2_glb_to_obj.py
v 0.0785 0.35357 -0.00903
v 0.0785 0.35357 0.00924
v 0.08235 0.34774 -0.00764
v 0.08561 0.34279 -0.00368
v 0.07465 0.35941 -0.00764
v 0.08779 0.33948 0.00224
v 0.07139 0.36436 -0.00368
v 0.08856 0.33832 0.00924
v 0.06921 0.36766 0.00224
v 0.08779 0.33948 0.01623
v 0.06844 0.36882 0.00924
v 0.08561 0.34279 0.02216
v 0.06921 0.36766 0.01623
v 0.08235 0.34774 0.02612
v 0.07139 0.36436 0.02216
v 0.0785 0.35357 0.02751
v 0.07465 0.35941 0.02612
v 0.03221 0.34923 0.00026
v 0.04042 0.34804 0.00253
v 0.03501 0.34498 -0.00736
v 0.03968 0.34916 0.00924
v 0.03123 0.35072 0.00924
v 0.04734 0.34932 0.00924
v 0.04251 0.34487 -0.00316
v 0.03921 0.33862 -0.01245
v 0.0479 0.34847 0.00408
v 0.05183 0.35137 0.00924
v 0.04564 0.34012 -0.00697
v 0.04415 0.33113 -0.01423
v 0.0495 0.34602 -0.0003
v 0.05237 0.35056 0.00436
v 0.0572 0.35458 0.00924
v 0.04934 0.33451 -0.0083
v 0.04909 0.32363 -0.01245
v 0.0519 0.34236 -0.00323
v 0.05389 0.34825 0.00022
v 0.05771 0.35377 0.00446
v 0.06113 0.36056 0.00924
v 0.05303 0.32891 -0.00697
v 0.05328 0.31727 -0.00736
v 0.05473 0.33804 -0.00427
v 0.05617 0.3448 -0.00254
v 0.05916 0.35147 0.00042
v 0.06174 0.35954 0.00337
v 0.0642 0.36603 0.00924
v 0.06496 0.36487 0.00224
v 0.06349 0.35667 -0.00157
v 0.06715 0.36156 -0.00368
v 0.06133 0.34804 -0.00227
v 0.0661 0.35243 -0.00483
v 0.07041 0.35661 -0.00764
v 0.05885 0.34073 -0.00351
v 0.06391 0.34403 -0.0032
v 0.06918 0.34748 -0.00593
v 0.07426 0.35077 -0.00903
v 0.05756 0.33371 -0.00325
v 0.06154 0.33666 -0.00254
v 0.0665 0.34004 -0.00225
v 0.07226 0.34258 -0.00473
v 0.07811 0.34494 -0.00764
v 0.05616 0.32416 -0.00316
v 0.05608 0.31303 0.00026
v 0.05997 0.33004 -0.00032
v 0.05826 0.32099 0.00252
v 0.05707 0.31153 0.00924
v 0.05899 0.31987 0.00924
v 0.06157 0.32759 0.00406
v 0.06214 0.32673 0.00924
v 0.06382 0.33321 0.00022
v 0.06534 0.3309 0.00436
v 0.06587 0.33009 0.00924
v 0.06871 0.33667 0.00045
v 0.07019 0.33441 0.00448
v 0.07071 0.33362 0.00924
v 0.07487 0.33846 -0.00143
v 0.08137 0.33999 -0.00368
v 0.07661 0.33572 0.00347
v 0.07723 0.33476 0.00924
v 0.08355 0.33668 0.00224
v 0.08432 0.33552 0.00924
v 0.03972 0.32824 -0.01484
v 0.03465 0.33593 -0.01301
v 0.0448 0.32054 -0.01301
v 0.03035 0.34245 -0.00779
v 0.0491 0.31402 -0.00779
v 0.02748 0.34681 0.00002
v 0.02647 0.34834 0.00924
v 0.05197 0.30966 0.00002
v 0.05298 0.30813 0.00924
v 0.01859 0.3236 0.01238
v 0.03557 0.33476 0.01238
v 0.01824 0.32412 0.00924
v 0.03523 0.33528 0.00924
v 0.03655 0.33327 0.01505
v 0.01859 0.3236 0.00609
v 0.01957 0.32211 0.01505
v 0.03557 0.33476 0.00609
v 0.03802 0.33104 0.01684
v 0.01957 0.32211 0.00342
v 0.02103 0.31988 0.01684
v 0.03655 0.33327 0.00342
v 0.03975 0.3284 0.01746
v 0.02103 0.31988 0.00164
v 0.02276 0.31725 0.01746
v 0.03802 0.33104 0.00164
v 0.04147 0.32577 0.01684
v 0.02276 0.31725 0.00101
v 0.02449 0.31462 0.01684
v 0.03975 0.3284 0.00101
v 0.04294 0.32354 0.01505
v 0.02449 0.31462 0.00164
v 0.02595 0.31239 0.01505
v 0.04147 0.32577 0.00164
v 0.02595 0.31239 0.00342
v 0.04294 0.32354 0.00342
v 0.04392 0.32205 0.01238
v 0.02693 0.3109 0.01238
v 0.04426 0.32153 0.00924
v 0.02727 0.31037 0.00924
v 0.04392 0.32205 0.00609
v 0.02693 0.3109 0.00609
v 0.04042 0.34804 0.01595
v 0.03221 0.34923 0.01822
v 0.04251 0.34487 0.02164
v 0.03501 0.34498 0.02583
v 0.0479 0.34847 0.0144
v 0.0495 0.34602 0.01878
v 0.04564 0.34012 0.02544
v 0.03921 0.33862 0.03092
v 0.0519 0.34236 0.02171
v 0.05237 0.35056 0.01411
v 0.05389 0.34825 0.01825
v 0.05617 0.3448 0.02101
v 0.05771 0.35377 0.01402
v 0.05916 0.35147 0.01806
v 0.06133 0.34804 0.02074
v 0.06174 0.35954 0.0151
v 0.06496 0.36487 0.01623
v 0.06715 0.36156 0.02216
v 0.06349 0.35667 0.02005
v 0.07041 0.35661 0.02612
v 0.0661 0.35243 0.0233
v 0.07426 0.35077 0.02751
v 0.06918 0.34748 0.0244
v 0.07811 0.34494 0.02612
v 0.06391 0.34403 0.02167
v 0.07226 0.34258 0.0232
v 0.08137 0.33999 0.02216
v 0.05885 0.34073 0.02198
v 0.0665 0.34004 0.02072
v 0.07487 0.33846 0.0199
v 0.08355 0.33668 0.01623
v 0.05473 0.33804 0.02274
v 0.06154 0.33666 0.02101
v 0.06871 0.33667 0.01803
v 0.07661 0.33572 0.015
v 0.07019 0.33441 0.014
v 0.06382 0.33321 0.01825
v 0.06534 0.3309 0.01411
v 0.05756 0.33371 0.02172
v 0.05997 0.33004 0.0188
v 0.06157 0.32759 0.01441
v 0.04934 0.33451 0.02678
v 0.04415 0.33113 0.03271
v 0.05303 0.32891 0.02544
v 0.04909 0.32363 0.03092
v 0.05616 0.32416 0.02164
v 0.05328 0.31727 0.02583
v 0.05826 0.32099 0.01595
v 0.05608 0.31303 0.01822
v 0.02748 0.34681 0.01845
v 0.03035 0.34245 0.02627
v 0.03465 0.33593 0.03149
v 0.03972 0.32824 0.03332
v 0.0448 0.32054 0.03149
v 0.0491 0.31402 0.02627
v 0.05197 0.30966 0.01845
v 0.03972 0.32824 0.00924
vt 0.583496 0.744629
vt 0.583496 0.759766
vt 0.589355 0.745605
vt 0.594238 0.749023
vt 0.577637 0.745605
vt 0.597656 0.753906
vt 0.572754 0.749023
vt 0.598633 0.759766
vt 0.569336 0.753906
vt 0.597656 0.765625
vt 0.568359 0.759766
vt 0.594238 0.770508
vt 0.569336 0.765625
vt 0.589355 0.773926
vt 0.572754 0.770508
vt 0.583496 0.774902
vt 0.577637 0.773926
vt 0.570801 0.804688
vt 0.566406 0.812988
vt 0.562012 0.804688
vt 0.572754 0.812988
vt 0.579102 0.804688
vt 0.567871 0.820801
vt 0.559082 0.812988
vt 0.553223 0.804688
vt 0.5625 0.820801
vt 0.566406 0.827637
vt 0.551758 0.812988
vt 0.543457 0.804688
vt 0.556641 0.820801
vt 0.561035 0.827637
vt 0.566895 0.833984
vt 0.543457 0.812988
vt 0.534668 0.804688
vt 0.550293 0.820801
vt 0.555664 0.827637
vt 0.561523 0.833984
vt 0.569824 0.841309
vt 0.536133 0.812988
vt 0.525879 0.804688
vt 0.543457 0.820801
vt 0.550293 0.827637
vt 0.556152 0.833984
vt 0.563477 0.841309
vt 0.572754 0.847656
vt 0.56543 0.847656
vt 0.557129 0.841309
vt 0.558594 0.847656
vt 0.550293 0.833984
vt 0.550781 0.841309
vt 0.55127 0.847656
vt 0.543457 0.827637
vt 0.543457 0.833984
vt 0.543457 0.841309
vt 0.543457 0.847656
vt 0.537598 0.820801
vt 0.538086 0.827637
vt 0.538086 0.833984
vt 0.538086 0.841309
vt 0.537109 0.847656
vt 0.528809 0.812988
vt 0.51709 0.804688
vt 0.53125 0.820801
vt 0.521973 0.812988
vt 0.508789 0.804688
vt 0.515625 0.812988
vt 0.525391 0.820801
vt 0.520508 0.820801
vt 0.532227 0.827637
vt 0.526855 0.827637
vt 0.521973 0.827637
vt 0.532715 0.833984
vt 0.526855 0.833984
vt 0.521484 0.833984
vt 0.531738 0.841309
vt 0.530273 0.847656
vt 0.525391 0.841309
vt 0.519043 0.841309
vt 0.522949 0.847656
vt 0.515625 0.847656
vt 0.543457 0.796875
vt 0.553711 0.796875
vt 0.533691 0.796875
vt 0.563965 0.796875
vt 0.523926 0.796875
vt 0.57373 0.796875
vt 0.58252 0.796875
vt 0.51416 0.796875
vt 0.505371 0.796875
vt 0.468506 0.789551
vt 0.468994 0.818848
vt 0.473145 0.789551
vt 0.473633 0.818848
vt 0.465332 0.818848
vt 0.477783 0.789551
vt 0.4646 0.789551
vt 0.478271 0.818848
vt 0.461426 0.818848
vt 0.481445 0.789551
vt 0.460938 0.789551
vt 0.482178 0.818848
vt 0.456787 0.818848
vt 0.485352 0.789551
vt 0.456299 0.789551
vt 0.48584 0.818848
vt 0.452393 0.818848
vt 0.48999 0.789551
vt 0.45166 0.789551
vt 0.490479 0.818848
vt 0.448486 0.818848
vt 0.494385 0.789551
vt 0.447998 0.789551
vt 0.495117 0.818848
vt 0.498291 0.789551
vt 0.498779 0.818848
vt 0.44458 0.818848
vt 0.444092 0.789551
vt 0.439941 0.818848
vt 0.439453 0.789551
vt 0.435547 0.818848
vt 0.434814 0.789551
vt 0.431641 0.818848
vt 0.431152 0.789551
vt 0.537109 0.855469
vt 0.543457 0.855469
vt 0.551758 0.855469
vt 0.529297 0.855469
vt 0.559082 0.855469
vt 0.521973 0.855469
vt 0.51416 0.855469
vt 0.566895 0.855469
vt 0.574707 0.855469
vt 1.566406 0.812988
vt 1.570312 0.804688
vt 1.558594 0.812988
vt 1.579102 0.804688
vt 1.572266 0.812988
vt 1.561523 0.804688
vt 1.5625 0.820801
vt 1.567383 0.820801
vt 1.556641 0.820801
vt 1.551758 0.812988
vt 1.552734 0.804688
vt 1.549805 0.820801
vt 1.560547 0.827637
vt 1.566406 0.827637
vt 1.555664 0.827637
vt 1.549805 0.827637
vt 1.561523 0.833984
vt 1.566406 0.833984
vt 1.555664 0.833984
vt 1.549805 0.833984
vt 1.563477 0.841309
vt 1.569336 0.841309
vt 1.56543 0.847656
vt 1.572266 0.847656
vt 1.558594 0.847656
vt 1.556641 0.841309
vt 1.550781 0.847656
vt 1.550781 0.841309
vt 1.542969 0.847656
vt 1.542969 0.841309
vt 1.537109 0.847656
vt 1.542969 0.833984
vt 1.538086 0.841309
vt 1.530273 0.847656
vt 1.542969 0.827637
vt 1.538086 0.833984
vt 1.53125 0.841309
vt 1.522461 0.847656
vt 1.542969 0.820801
vt 1.538086 0.827637
vt 1.532227 0.833984
vt 1.525391 0.841309
vt 1.515625 0.847656
vt 1.518555 0.841309
vt 1.526367 0.833984
vt 1.521484 0.833984
vt 1.532227 0.827637
vt 1.526367 0.827637
vt 1.521484 0.827637
vt 1.537109 0.820801
vt 1.53125 0.820801
vt 1.525391 0.820801
vt 1.520508 0.820801
vt 1.542969 0.812988
vt 1.542969 0.804688
vt 1.536133 0.812988
vt 1.53418 0.804688
vt 1.52832 0.812988
vt 1.525391 0.804688
vt 1.521484 0.812988
vt 1.516602 0.804688
vt 1.515625 0.812988
vt 1.508789 0.804688
vt 1.582031 0.796875
vt 1.573242 0.796875
vt 1.563477 0.796875
vt 1.553711 0.796875
vt 1.542969 0.796875
vt 1.533203 0.796875
vt 1.523438 0.796875
vt 1.513672 0.796875
vt 1.504883 0.796875
vt 1.574219 0.855469
vt 1.566406 0.855469
vt 1.558594 0.855469
vt 1.551758 0.855469
vt 1.542969 0.855469
vt 1.537109 0.855469
vt 1.529297 0.855469
vt 1.521484 0.855469
vt 1.513672 0.855469
vt 0.513184 0.776855
vt 0.530273 0.765625
vt 0.510254 0.769531
vt 0.510254 0.761719
vt 0.519043 0.782715
vt 0.513672 0.754395
vt 0.525879 0.785645
vt 0.519043 0.749023
vt 0.53418 0.785645
vt 0.526367 0.746094
vt 0.541504 0.782715
vt 0.53418 0.746094
vt 0.546875 0.776855
vt 0.541504 0.749023
vt 0.549805 0.77002
vt 0.546875 0.754883
vt 0.549805 0.762207
vn 0.8291 0.5587 -0.0235
vn 0.2062 0.9327 -0.2959
vn 0.1308 0.9429 -0.3062
vn 0.2806 0.8135 -0.5094
vn 0.0872 0.996 -0.0183
vn 0.1686 0.9855 -0.0195
vn -0.1686 0.9855 -0.0195
vn 0.1962 0.8166 -0.5429
vn 0.4029 0.6218 -0.6716
vn -0.1343 0.9237 -0.3587
vn -0.4818 0.876 -0.0229
vn 0.3439 0.608 -0.7156
vn 0.557 0.3708 -0.7432
vn -0.0238 0.7504 -0.6606
vn -0.4442 0.8067 -0.3897
vn -0.7181 0.696 0.0014
vn 0.5222 0.339 -0.7825
vn 0.7115 0.1465 -0.6873
vn 0.1418 0.4985 -0.8552
vn -0.3155 0.6293 -0.7102
vn -0.6958 0.6136 -0.3734
vn -0.867 0.4983 0.0013
vn 0.6678 0.0954 -0.7382
vn 0.8634 -0.0657 -0.5002
vn 0.3229 0.2091 -0.9231
vn -0.1345 0.362 -0.9224
vn -0.5665 0.4303 -0.7028
vn -0.8231 0.4393 -0.36
vn -0.8811 0.473 0.0013
vn -0.8398 0.4097 -0.3563
vn -0.7216 0.2585 -0.6423
vn -0.7379 0.2303 -0.6345
vn -0.3956 0.1614 -0.9041
vn -0.5587 0.0235 -0.8291
vn -0.5753 -0.0014 -0.8179
vn 0.0712 0.0537 -0.996
vn -0.1826 -0.1213 -0.9757
vn -0.3858 -0.2419 -0.8903
vn -0.3917 -0.2696 -0.8797
vn 0.5369 -0.0933 -0.8384
vn 0.2807 -0.2822 -0.9174
vn 0.0214 -0.4556 -0.8899
vn -0.1965 -0.5153 -0.8342
vn -0.1979 -0.5434 -0.8158
vn 0.8192 -0.144 -0.5551
vn 0.9418 -0.203 -0.2679
vn 0.6894 -0.3447 -0.6371
vn 0.9174 -0.2822 -0.2807
vn 0.9734 -0.2292 0
vn 0.9471 -0.3211 0
vn 0.784 -0.5189 -0.3406
vn 0.8364 -0.5481 0
vn 0.4617 -0.5705 -0.6792
vn 0.5555 -0.7434 -0.3725
vn 0.6237 -0.7817 0
vn 0.2016 -0.7056 -0.6793
vn 0.3248 -0.8687 -0.3739
vn 0.3532 -0.9353 0.0205
vn -0.0224 -0.7727 -0.6344
vn -0.0453 -0.7831 -0.6202
vn 0.0844 -0.943 -0.3218
vn 0.1266 -0.9918 0.0178
vn 0.0622 -0.9467 -0.316
vn 0.1072 -0.9941 0.0175
vn 0.0902 0.0546 -0.9944
vn -0.1117 0.3821 -0.9173
vn -0.4108 0.8263 -0.3854
vn 0.5877 -0.7173 -0.3743
vn -0.4477 0.8942 0.0013
vn -0.5279 0.7651 0.3687
vn -0.5487 0.836 0.0014
vn -0.402 0.5906 0.6997
vn -0.5331 0.7463 -0.3986
vn -0.2323 0.3007 0.925
vn -0.4005 0.5621 -0.7236
vn 0.001 0.0149 0.9999
vn -0.229 0.2739 -0.9341
vn 0.2046 -0.2956 0.9331
vn -0.0159 -0.001 -0.9999
vn 0.3742 -0.5859 0.7188
vn 0.2074 -0.3225 -0.9235
vn 0.3752 -0.6139 -0.6945
vn 0.5021 -0.7679 0.3978
vn 0.5245 -0.8514 0
vn 0.497 -0.7859 -0.3679
vn 0.5596 -0.8284 0.0221
vn -0.5871 0.8092 -0.0236
vn 0.129 0.9511 0.2807
vn 0.2032 0.9413 0.2695
vn 0.1948 0.8349 0.5148
vn 0.2783 0.8317 0.4804
vn -0.1326 0.9338 0.3322
vn -0.0238 0.7709 0.6366
vn 0.3447 0.6354 0.691
vn 0.4032 0.6487 0.6454
vn 0.1429 0.526 0.8384
vn -0.4393 0.8231 0.36
vn -0.3159 0.6562 0.6853
vn -0.1362 0.3889 0.9112
vn -0.691 0.6354 0.3447
vn -0.5707 0.4636 0.6778
vn -0.4023 0.1874 0.8961
vn -0.8209 0.4634 0.3337
vn -0.8381 0.4339 0.3305
vn -0.745 0.2578 0.6153
vn -0.7282 0.2865 0.6226
vn -0.5858 0.0208 0.8102
vn -0.5686 0.0463 0.8213
vn -0.3858 -0.2419 0.8903
vn -0.379 -0.2114 0.9009
vn -0.1965 -0.5153 0.8342
vn -0.1795 -0.0996 0.9787
vn -0.1948 -0.4871 0.8513
vn -0.0455 -0.7629 0.645
vn 0.0724 0.0724 0.9947
vn 0.0212 -0.4301 0.9025
vn -0.0224 -0.7523 0.6584
vn 0.063 -0.9379 0.3411
vn 0.3281 0.2356 0.9148
vn 0.2765 -0.2551 0.9265
vn 0.2016 -0.6809 0.7041
vn 0.0855 -0.9338 0.3473
vn 0.3286 -0.8541 0.403
vn 0.4601 -0.5418 0.7034
vn 0.5642 -0.7209 0.4025
vn 0.5277 -0.0691 0.8466
vn 0.6837 -0.3159 0.6578
vn 0.7871 -0.4952 0.3678
vn 0.5279 0.3687 0.7651
vn 0.5621 0.4005 0.7236
vn 0.6777 0.1206 0.7254
vn 0.7205 0.1729 0.6716
vn 0.8109 -0.119 0.5729
vn 0.8547 -0.0429 0.5173
vn 0.9168 -0.2559 0.3066
vn 0.9397 -0.1777 0.2921
vn -0.406 0.8418 0.3558
vn -0.113 0.4088 0.9056
vn 0.0917 0.0736 0.9931
vn 0.5926 -0.6969 0.4039
vn -0.8461 -0.5326 0.0219
o slide__p0_c0
f 1/1/1 2/2/1 3/3/1
f 3/3/1 2/2/1 4/4/1
f 2/2/1 1/1/1 5/5/1
f 4/4/1 2/2/1 6/6/1
f 2/2/1 5/5/1 7/7/1
f 6/6/1 2/2/1 8/8/1
f 2/2/1 7/7/1 9/9/1
f 8/8/1 2/2/1 10/10/1
f 2/2/1 9/9/1 11/11/1
f 10/10/1 2/2/1 12/12/1
f 2/2/1 11/11/1 13/13/1
f 12/12/1 2/2/1 14/14/1
f 2/2/1 13/13/1 15/15/1
f 14/14/1 2/2/1 16/16/1
f 2/2/1 15/15/1 17/17/1
f 2/2/1 17/17/1 16/16/1
f 18/18/2 19/19/3 20/20/4
f 21/21/5 18/18/2 22/22/6
f 18/18/2 21/21/5 19/19/3
f 19/19/3 21/21/5 23/23/7
f 20/20/4 19/19/3 24/24/8
f 20/20/4 24/24/8 25/25/9
f 19/19/3 23/23/7 26/26/10
f 19/19/3 26/26/10 24/24/8
f 26/26/10 23/23/7 27/27/11
f 25/25/9 24/24/8 28/28/12
f 25/25/9 28/28/12 29/29/13
f 24/24/8 26/26/10 30/30/14
f 24/24/8 30/30/14 28/28/12
f 26/26/10 27/27/11 31/31/15
f 26/26/10 31/31/15 30/30/14
f 31/31/15 27/27/11 32/32/16
f 29/29/13 28/28/12 33/33/17
f 29/29/13 33/33/17 34/34/18
f 28/28/12 30/30/14 35/35/19
f 28/28/12 35/35/19 33/33/17
f 30/30/14 31/31/15 36/36/20
f 30/30/14 36/36/20 35/35/19
f 31/31/15 32/32/16 37/37/21
f 31/31/15 37/37/21 36/36/20
f 37/37/21 32/32/16 38/38/22
f 39/39/23 34/34/18 33/33/17
f 34/34/18 39/39/23 40/40/24
f 41/41/25 33/33/17 35/35/19
f 33/33/17 41/41/25 39/39/23
f 42/42/26 35/35/19 36/36/20
f 35/35/19 42/42/26 41/41/25
f 43/43/27 36/36/20 37/37/21
f 36/36/20 43/43/27 42/42/26
f 44/44/28 37/37/21 38/38/22
f 37/37/21 44/44/28 43/43/27
f 44/44/28 38/38/22 45/45/29
f 44/44/28 45/45/29 46/46/30
f 44/44/28 46/46/30 47/47/31
f 44/44/28 47/47/31 43/43/27
f 47/47/31 46/46/30 48/48/32
f 49/49/33 42/42/26 43/43/27
f 49/49/33 43/43/27 47/47/31
f 47/47/31 48/48/32 50/50/34
f 47/47/31 50/50/34 49/49/33
f 50/50/34 48/48/32 51/51/35
f 42/42/26 49/49/33 52/52/36
f 42/42/26 52/52/36 41/41/25
f 49/49/33 50/50/34 53/53/37
f 49/49/33 53/53/37 52/52/36
f 50/50/34 51/51/35 54/54/38
f 50/50/34 54/54/38 53/53/37
f 54/54/38 51/51/35 55/55/39
f 41/41/25 52/52/36 56/56/40
f 41/41/25 56/56/40 39/39/23
f 52/52/36 53/53/37 57/57/41
f 52/52/36 57/57/41 56/56/40
f 53/53/37 54/54/38 58/58/42
f 53/53/37 58/58/42 57/57/41
f 54/54/38 55/55/39 59/59/43
f 54/54/38 59/59/43 58/58/42
f 59/59/43 55/55/39 60/60/44
f 61/61/45 39/39/23 56/56/40
f 39/39/23 61/61/45 40/40/24
f 40/40/24 61/61/45 62/62/46
f 61/61/45 56/56/40 63/63/47
f 63/63/47 56/56/40 57/57/41
f 62/62/46 61/61/45 64/64/48
f 64/64/48 61/61/45 63/63/47
f 62/62/46 64/64/48 65/65/49
f 65/65/49 64/64/48 66/66/50
f 66/66/50 64/64/48 67/67/51
f 67/67/51 64/64/48 63/63/47
f 66/66/50 67/67/51 68/68/52
f 63/63/47 57/57/41 69/69/53
f 63/63/47 69/69/53 67/67/51
f 69/69/53 57/57/41 58/58/42
f 68/68/52 67/67/51 70/70/54
f 70/70/54 67/67/51 69/69/53
f 68/68/52 70/70/54 71/71/55
f 69/69/53 58/58/42 72/72/56
f 69/69/53 72/72/56 70/70/54
f 72/72/56 58/58/42 59/59/43
f 71/71/55 70/70/54 73/73/57
f 73/73/57 70/70/54 72/72/56
f 71/71/55 73/73/57 74/74/58
f 72/72/56 59/59/43 75/75/59
f 72/72/56 75/75/59 73/73/57
f 75/75/59 59/59/43 60/60/44
f 75/75/59 60/60/44 76/76/60
f 73/73/57 75/75/59 77/77/61
f 73/73/57 77/77/61 74/74/58
f 77/77/61 75/75/59 76/76/60
f 74/74/58 77/77/61 78/78/62
f 77/77/61 76/76/60 79/79/63
f 77/77/61 79/79/63 78/78/62
f 78/78/62 79/79/63 80/80/64
f 29/29/65 81/81/65 82/82/66
f 81/81/65 29/29/65 34/34/41
f 29/29/65 82/82/66 25/25/66
f 81/81/65 34/34/41 83/83/41
f 25/25/66 82/82/66 84/84/20
f 83/83/41 34/34/41 40/40/53
f 25/25/66 84/84/20 20/20/20
f 83/83/41 40/40/53 85/85/53
f 20/20/20 84/84/20 86/86/67
f 85/85/53 40/40/53 62/62/68
f 20/20/20 86/86/67 18/18/67
f 18/18/67 86/86/67 87/87/69
f 18/18/67 87/87/69 22/22/69
f 85/85/53 62/62/68 88/88/68
f 88/88/68 62/62/68 65/65/55
f 88/88/68 65/65/55 89/89/55
f 90/90/70 91/91/70 92/92/71
f 92/92/71 91/91/70 93/93/71
f 91/91/70 90/90/70 94/94/72
f 92/92/71 93/93/71 95/95/73
f 94/94/72 90/90/70 96/96/72
f 95/95/73 93/93/71 97/97/73
f 94/94/72 96/96/72 98/98/74
f 95/95/73 97/97/73 99/99/75
f 98/98/74 96/96/72 100/100/74
f 99/99/75 97/97/73 101/101/75
f 98/98/74 100/100/74 102/102/76
f 99/99/75 101/101/75 103/103/77
f 102/102/76 100/100/74 104/104/76
f 103/103/77 101/101/75 105/105/77
f 102/102/76 104/104/76 106/106/78
f 103/103/77 105/105/77 107/107/79
f 106/106/78 104/104/76 108/108/78
f 107/107/79 105/105/77 109/109/79
f 106/106/78 108/108/78 110/110/80
f 107/107/79 109/109/79 111/111/81
f 110/110/80 108/108/78 112/112/80
f 111/111/81 109/109/79 113/113/81
f 111/111/81 113/113/81 114/114/82
f 114/114/82 113/113/81 115/115/82
f 110/110/80 112/112/80 116/116/83
f 116/116/83 112/112/80 117/117/83
f 116/116/83 117/117/83 118/118/84
f 118/118/84 117/117/83 119/119/84
f 118/118/84 119/119/84 120/120/85
f 120/120/85 119/119/84 121/121/85
f 120/120/85 121/121/85 115/122/82
f 115/122/82 121/121/85 114/123/82
f 3/124/81 60/60/81 1/125/79
f 1/125/79 60/60/81 55/55/79
f 60/60/81 3/124/81 76/76/82
f 1/125/79 55/55/79 5/126/77
f 76/76/82 3/124/81 4/127/82
f 5/126/77 55/55/79 51/51/77
f 76/76/82 4/127/82 79/79/85
f 5/126/77 51/51/77 7/128/75
f 79/79/85 4/127/82 6/129/85
f 79/79/85 6/129/85 80/80/86
f 80/80/86 6/129/85 8/130/86
f 7/128/75 51/51/77 48/48/75
f 7/128/75 48/48/75 9/131/73
f 9/131/73 48/48/75 46/46/73
f 9/131/73 46/46/73 11/132/87
f 11/132/87 46/46/73 45/45/87
f 122/133/88 123/134/89 124/135/90
f 123/134/89 122/133/88 22/136/6
f 22/136/6 122/133/88 21/137/5
f 124/135/90 123/134/89 125/138/91
f 21/137/5 122/133/88 126/139/92
f 21/137/5 126/139/92 23/140/7
f 122/133/88 124/135/90 127/141/93
f 122/133/88 127/141/93 126/139/92
f 124/135/90 125/138/91 128/142/94
f 128/142/94 125/138/91 129/143/95
f 127/141/93 124/135/90 130/144/96
f 130/144/96 124/135/90 128/142/94
f 23/140/7 126/139/92 131/145/97
f 23/140/7 131/145/97 27/146/11
f 126/139/92 127/141/93 132/147/98
f 126/139/92 132/147/98 131/145/97
f 127/141/93 130/144/96 133/148/99
f 127/141/93 133/148/99 132/147/98
f 27/146/11 131/145/97 134/149/100
f 27/146/11 134/149/100 32/150/16
f 131/145/97 132/147/98 135/151/101
f 131/145/97 135/151/101 134/149/100
f 132/147/98 133/148/99 136/152/102
f 132/147/98 136/152/102 135/151/101
f 32/150/16 134/149/100 137/153/103
f 32/150/16 137/153/103 38/154/22
f 38/154/22 137/153/103 138/155/104
f 38/154/22 138/155/104 45/156/29
f 138/155/104 137/153/103 139/157/105
f 137/153/103 134/149/100 140/158/106
f 137/153/103 140/158/106 139/157/105
f 140/158/106 134/149/100 135/151/101
f 139/157/105 140/158/106 141/159/107
f 140/158/106 135/151/101 142/160/108
f 140/158/106 142/160/108 141/159/107
f 142/160/108 135/151/101 136/152/102
f 141/159/107 142/160/108 143/161/109
f 143/161/109 142/160/108 144/162/110
f 144/162/110 142/160/108 136/152/102
f 143/161/109 144/162/110 145/163/111
f 144/162/110 136/152/102 146/164/112
f 146/164/112 136/152/102 133/148/99
f 145/163/111 144/162/110 147/165/113
f 147/165/113 144/162/110 146/164/112
f 145/163/111 147/165/113 148/166/114
f 146/164/112 133/148/99 149/167/115
f 149/167/115 133/148/99 130/144/96
f 147/165/113 146/164/112 150/168/116
f 150/168/116 146/164/112 149/167/115
f 148/166/114 147/165/113 151/169/117
f 151/169/117 147/165/113 150/168/116
f 148/166/114 151/169/117 152/170/118
f 149/167/115 130/144/96 153/171/119
f 153/171/119 130/144/96 128/142/94
f 150/168/116 149/167/115 154/172/120
f 154/172/120 149/167/115 153/171/119
f 151/169/117 150/168/116 155/173/121
f 155/173/121 150/168/116 154/172/120
f 152/170/118 151/169/117 156/174/122
f 156/174/122 151/169/117 155/173/121
f 152/170/118 156/174/122 80/175/64
f 80/175/64 156/174/122 78/176/62
f 78/176/62 156/174/122 157/177/123
f 157/177/123 156/174/122 155/173/121
f 78/176/62 157/177/123 74/178/58
f 155/173/121 154/172/120 158/179/124
f 155/173/121 158/179/124 157/177/123
f 74/178/58 157/177/123 159/180/125
f 159/180/125 157/177/123 158/179/124
f 74/178/58 159/180/125 71/181/55
f 158/179/124 154/172/120 160/182/126
f 160/182/126 154/172/120 153/171/119
f 159/180/125 158/179/124 161/183/127
f 161/183/127 158/179/124 160/182/126
f 71/181/55 159/180/125 162/184/128
f 162/184/128 159/180/125 161/183/127
f 71/181/55 162/184/128 68/185/52
f 160/182/126 153/171/119 163/186/129
f 163/186/129 153/171/119 128/142/94
f 163/186/129 128/142/94 129/143/95
f 163/186/129 129/143/95 164/187/130
f 160/182/126 163/186/129 165/188/131
f 165/188/131 163/186/129 164/187/130
f 160/182/126 165/188/131 161/183/127
f 165/188/131 164/187/130 166/189/132
f 161/183/127 165/188/131 167/190/133
f 167/190/133 165/188/131 166/189/132
f 161/183/127 167/190/133 162/184/128
f 167/190/133 166/189/132 168/191/134
f 162/184/128 167/190/133 169/192/135
f 169/192/135 167/190/133 168/191/134
f 162/184/128 169/192/135 68/185/52
f 169/192/135 168/191/134 170/193/136
f 68/185/52 169/192/135 66/194/50
f 66/194/50 169/192/135 170/193/136
f 66/194/50 170/193/136 65/195/49
f 87/196/69 171/197/137 22/136/69
f 22/136/69 171/197/137 123/134/137
f 123/134/137 171/197/137 172/198/98
f 123/134/137 172/198/98 125/138/98
f 125/138/98 172/198/98 173/199/138
f 125/138/98 173/199/138 129/143/138
f 129/143/138 173/199/138 174/200/139
f 129/143/138 174/200/139 164/187/139
f 164/187/139 174/200/139 175/201/120
f 164/187/139 175/201/120 166/189/120
f 166/189/120 175/201/120 176/202/124
f 166/189/120 176/202/124 168/191/124
f 168/191/124 176/202/124 177/203/140
f 168/191/124 177/203/140 170/193/140
f 170/193/140 177/203/140 89/204/55
f 170/193/140 89/204/55 65/195/55
f 11/205/87 45/156/87 13/206/70
f 13/206/70 45/156/87 138/155/70
f 13/206/70 138/155/70 15/207/72
f 15/207/72 138/155/70 139/157/72
f 15/207/72 139/157/72 17/208/74
f 17/208/74 139/157/72 141/159/74
f 17/208/74 141/159/74 16/209/76
f 16/209/76 141/159/74 143/161/76
f 16/209/76 143/161/76 14/210/78
f 14/210/78 143/161/76 145/163/78
f 14/210/78 145/163/78 12/211/80
f 12/211/80 145/163/78 148/166/80
f 12/211/80 148/166/80 10/212/83
f 10/212/83 148/166/80 152/170/83
f 10/212/83 152/170/83 8/213/86
f 8/213/86 152/170/83 80/175/86
f 83/214/141 178/215/141 81/216/141
f 81/216/141 178/215/141 82/217/141
f 178/215/141 83/214/141 85/218/141
f 82/217/141 178/215/141 84/219/141
f 178/215/141 85/218/141 88/220/141
f 84/219/141 178/215/141 86/221/141
f 178/215/141 88/220/141 89/222/141
f 86/221/141 178/215/141 87/223/141
f 178/215/141 89/222/141 177/224/141
f 87/223/141 178/215/141 171/225/141
f 178/215/141 177/224/141 176/226/141
f 171/225/141 178/215/141 172/227/141
f 178/215/141 176/226/141 175/228/141
f 172/227/141 178/215/141 173/229/141
f 178/215/141 175/228/141 174/230/141
f 178/215/141 174/230/141 173/229/141
