# CS2 body mesh, tools/cs2_glb_to_obj.py
v -0.01085 -0.00904 -0.22574
v -0.00332 -0.00976 -0.22446
v -0.00834 -0.0082 -0.22421
v -0.00522 -0.0085 -0.22367
v -0.00151 -0.00369 -0.2449
v -0.00733 -0.00269 -0.245
v -0.00242 -0.00614 -0.2396
v -0.00683 0.00131 -0.24905
v -0.00061 0.00038 -0.2491
v -0.00636 0.00679 -0.25204
v 0.00028 0.00597 -0.2522
v 0.00113 0.01287 -0.2542
v -0.00592 0.01357 -0.25394
v 0.00191 0.02096 -0.25484
v -0.00554 0.02152 -0.25455
v 0.00263 0.03005 -0.25347
v -0.00522 0.03049 -0.25315
v 0.00324 0.03978 -0.2492
v -0.005 0.04011 -0.24893
v 0.00374 0.04979 -0.24243
v -0.0049 0.05 -0.24222
v 0.00413 0.05981 -0.23371
v -0.00491 0.05992 -0.23359
v -0.00504 0.06961 -0.22229
v 0.00439 0.06961 -0.22229
v -0.00783 -0.00514 -0.23987
v -0.00332 -0.00691 -0.23319
v -0.01193 -0.00625 -0.24096
v -0.01167 -0.00374 -0.24664
v -0.01216 -0.00703 -0.23421
v -0.01142 0.00047 -0.25127
v -0.01119 0.00624 -0.25489
v -0.01099 0.01336 -0.25749
v -0.01087 0.02165 -0.25884
v -0.01082 0.03093 -0.25822
v -0.01087 0.04086 -0.25475
v -0.01104 0.05105 -0.24842
v -0.01133 0.06126 -0.23987
v -0.01174 0.07124 -0.22858
v 0.00116 -0.00867 -0.24023
v 0.00239 -0.00615 -0.24639
v -0.00005 -0.00932 -0.23299
v 0.00364 -0.00178 -0.25137
v 0.00487 0.00426 -0.25519
v 0.00604 0.01168 -0.25798
v 0.00714 0.02028 -0.25947
v 0.00816 0.02986 -0.25891
v 0.00907 0.04007 -0.2554
v 0.00987 0.05053 -0.24894
v 0.01054 0.061 -0.24017
v 0.01108 0.07124 -0.22858
v -0.01166 0.07293 -0.23508
v -0.01125 0.06256 -0.24645
v -0.01098 0.05197 -0.25499
v -0.01083 0.04139 -0.26097
v -0.0108 0.03106 -0.26365
v -0.01087 0.02135 -0.26344
v -0.01103 0.01262 -0.26115
v -0.01126 0.00507 -0.25775
v -0.01154 -0.00108 -0.25344
v -0.01186 -0.00555 -0.24813
v -0.01216 -0.00814 -0.24174
v -0.01241 -0.00884 -0.23432
v 0.00979 0.05146 -0.2555
v 0.00899 0.04061 -0.26161
v 0.01046 0.06231 -0.24675
v 0.01101 0.07293 -0.23508
v 0.00807 0.02999 -0.26428
v 0.00703 0.01999 -0.26398
v 0.0059 0.01096 -0.26156
v 0.00469 0.0031 -0.25799
v 0.00342 -0.00333 -0.25347
v 0.00212 -0.00795 -0.24778
v 0.00084 -0.01054 -0.2409
v -0.00038 -0.0111 -0.23299
v -0.00832 -0.00596 -0.23364
vt 0.338603 0.315165
vt 0.332743 0.318827
vt 0.337382 0.317545
vt 0.334941 0.319071
vt 0.346171 0.295389
vt 0.340556 0.295389
vt 0.345927 0.301004
vt 0.340312 0.289529
vt 0.346171 0.289285
vt 0.340068 0.282937
vt 0.346171 0.282937
vt 0.346171 0.275613
vt 0.339579 0.275613
vt 0.346171 0.267312
vt 0.339335 0.267556
vt 0.346416 0.258278
vt 0.339091 0.258278
vt 0.346416 0.247658
vt 0.338847 0.247658
vt 0.346416 0.235939
vt 0.338603 0.236061
vt 0.346416 0.223304
vt 0.338115 0.223426
vt 0.338115 0.209632
vt 0.346171 0.20951
vt 0.341044 0.301004
vt 0.345683 0.307352
vt 0.337138 0.301004
vt 0.336161 0.295389
vt 0.338115 0.307108
vt 0.335429 0.289529
vt 0.334697 0.282937
vt 0.333964 0.275857
vt 0.332987 0.268044
vt 0.332255 0.259194
vt 0.331523 0.249611
vt 0.331034 0.238563
vt 0.330546 0.226295
vt 0.330546 0.212622
vt 0.350078 0.301248
vt 0.350566 0.295144
vt 0.349101 0.30784
vt 0.346416 0.315653
vt 0.344218 0.316385
vt 0.351054 0.289285
vt 0.351299 0.282632
vt 0.351787 0.275613
vt 0.352763 0.2678
vt 0.353496 0.259194
vt 0.353984 0.249611
vt 0.354228 0.238502
vt 0.354472 0.226051
vt 0.35374 0.211951
vt 0.325663 0.215491
vt 0.325419 0.229469
vt 0.325663 0.24131
vt 0.326395 0.251686
vt 0.327372 0.260475
vt 0.328837 0.268532
vt 0.330546 0.276101
vt 0.331767 0.283181
vt 0.332987 0.289712
vt 0.333964 0.295633
vt 0.335185 0.301431
vt 0.336894 0.307596
vt 0.3596 0.241188
vt 0.359355 0.251686
vt 0.3596 0.229041
vt 0.358867 0.214942
vt 0.358379 0.260475
vt 0.35667 0.268288
vt 0.355205 0.275857
vt 0.353984 0.282937
vt 0.353252 0.289285
vt 0.352763 0.295389
vt 0.351787 0.301431
vt 0.350566 0.308573
vt 0.308573 0.254128
vt 0.306864 0.242958
vt 0.305643 0.230323
vt 0.310526 0.263649
vt 0.30491 0.215857
vt 0.312967 0.272195
vt 0.315409 0.280007
vt 0.317606 0.287088
vt 0.319559 0.293435
vt 0.321757 0.299539
vt 0.323954 0.305582
vt 0.327128 0.312479
vt 0.341288 0.316141
vt 0.341288 0.307108
vn -0.2016 -0.6809 0.7041
vn 0.3708 0.7432 0.557
vn -0.1439 0.8204 0.5534
vn 0.3666 0.8826 0.2942
vn 0.0949 0.6174 0.7809
vn 0.3411 0.5513 0.7614
vn 0.0659 0.3911 0.918
vn 0.039 0.1905 0.9809
vn 0.0334 -0.0344 0.9989
vn 0.0197 -0.2794 0.96
vn 0 -0.4724 0.8814
vn 0 -0.6009 0.7993
vn 0 -0.6953 0.7188
vn -0.0225 -0.7283 0.6848
vn -0.0823 0.9656 0.2468
vn 0.3712 0.91 0.1849
vn -0.3281 0.9148 0.2356
vn -0.3961 0.7677 0.5037
vn -0.4636 0.5707 0.6778
vn -0.3381 0.9279 0.1572
vn -0.5279 0.3687 0.7651
vn -0.5717 0.2008 0.7955
vn -0.5905 0.1746 0.7879
vn -0.6352 0.0209 0.772
vn -0.6762 -0.1206 0.7268
vn -0.6711 -0.1762 0.7201
vn -0.6837 -0.3159 0.6578
vn -0.6732 -0.4029 0.6201
vn -0.6766 -0.4316 0.5966
vn -0.6568 -0.5204 0.5457
vn -0.6313 -0.5756 0.5199
vn 0.5668 0.7733 0.2842
vn 0.5757 0.6297 0.5216
vn 0.5707 0.7971 0.1974
vn 0.5519 0.8023 0.2273
vn 0.3007 0.925 0.2323
vn 0.5707 0.4636 0.6778
vn 0.595 0.2855 0.7513
vn 0.6272 0.1201 0.7695
vn 0.6456 -0.0469 0.7622
vn 0.6624 -0.2308 0.7127
vn 0.6688 -0.374 0.6425
vn 0.6537 -0.461 0.6001
vn 0.6317 -0.549 0.5473
vn 0.6047 -0.603 0.5203
vn -0.9994 -0.0333 0
vn -0.9999 -0.0169 0
vn -1 -0.001 0
vn -0.9998 -0.0151 -0.0161
vn -0.9999 0.0149 -0.001
vn -0.9995 0.0313 -0.001
vn -0.9988 0.0481 -0.001
vn -0.9978 0.0656 -0.001
vn -0.9963 0.0858 -0.0011
vn -0.9942 0.1061 -0.0186
vn -0.9883 0.1322 0.076
vn -0.9899 0.1299 0.0563
vn -0.9763 0.1441 0.1617
vn 0.9975 -0.0688 -0.0169
vn 0.996 -0.0871 -0.0172
vn 0.9986 -0.0511 -0.0167
vn 0.9942 -0.106 -0.0175
vn 0.9897 -0.1428 0
vn 0.9862 -0.1655 0
vn 0.9855 -0.1685 0.0183
vn 0.9788 -0.1965 0.0579
vn 0.9716 -0.223 0.0797
vn 0.9742 -0.2011 0.1024
vn 0.9709 -0.2046 0.1245
vn 0.9481 -0.1779 0.2635
vn 0.9494 -0.1999 0.2421
vn 0.9166 -0.1593 0.3666
vn -0.0218 0.352 -0.9357
vn -0.0233 0.5332 -0.8457
vn -0.0367 0.1079 -0.9935
vn -0.0238 0.6606 -0.7504
vn -0.0361 0.0887 -0.9954
vn -0.0239 0.7069 -0.7069
vn -0.0552 -0.1323 -0.9897
vn -0.063 -0.3426 -0.9373
vn -0.0903 -0.4811 -0.872
vn -0.122 -0.6502 -0.7499
vn -0.1433 -0.8557 -0.4973
vn -0.1737 -0.9556 -0.2379
vn -0.1672 -0.9858 -0.0183
vn -0.1732 -0.9832 0.0569
vn -0.0811 0.9714 0.2232
vn -0.0997 0.9784 0.1809
vn -0.3559 0.9035 0.2387
o trigger__p0_c0
f 1/1/1 2/2/1 3/3/1
f 3/3/1 2/2/1 4/4/1
f 5/5/2 6/6/3 7/7/4
f 6/6/3 5/5/2 8/8/5
f 8/8/5 5/5/2 9/9/6
f 8/8/5 9/9/6 10/10/7
f 10/10/7 9/9/6 11/11/7
f 10/10/7 11/11/7 12/12/8
f 10/10/7 12/12/8 13/13/8
f 13/13/8 12/12/8 14/14/9
f 13/13/8 14/14/9 15/15/9
f 15/15/9 14/14/9 16/16/10
f 15/15/9 16/16/10 17/17/10
f 17/17/10 16/16/10 18/18/11
f 17/17/10 18/18/11 19/19/11
f 19/19/11 18/18/11 20/20/12
f 19/19/11 20/20/12 21/21/12
f 21/21/12 20/20/12 22/22/13
f 21/21/12 22/22/13 23/23/13
f 23/23/13 22/22/13 24/24/14
f 24/24/14 22/22/13 25/25/14
f 26/26/15 7/7/4 6/6/3
f 7/7/4 26/26/15 27/27/16
f 26/26/15 6/6/3 28/28/17
f 28/28/17 6/6/3 29/29/18
f 29/29/18 6/6/3 8/8/19
f 26/26/15 28/28/17 30/30/20
f 29/29/18 8/8/19 31/31/19
f 31/31/19 8/8/19 10/10/21
f 31/31/19 10/10/21 32/32/21
f 32/32/21 10/10/21 13/13/22
f 32/32/21 13/13/22 33/33/23
f 33/33/23 13/13/22 15/15/24
f 33/33/23 15/15/24 34/34/24
f 34/34/24 15/15/24 35/35/25
f 35/35/25 15/15/24 17/17/26
f 35/35/25 17/17/26 36/36/27
f 36/36/27 17/17/26 19/19/27
f 36/36/27 19/19/27 37/37/28
f 37/37/28 19/19/27 21/21/29
f 37/37/28 21/21/29 38/38/30
f 38/38/30 21/21/29 23/23/30
f 38/38/30 23/23/30 39/39/31
f 39/39/31 23/23/30 24/24/31
f 40/40/32 5/5/2 7/7/4
f 5/5/2 40/40/32 41/41/33
f 40/40/32 7/7/4 42/42/34
f 5/5/2 41/41/33 9/9/6
f 42/42/34 7/7/4 27/27/16
f 42/42/34 27/27/16 2/43/35
f 2/43/35 27/27/16 4/44/36
f 9/9/6 41/41/33 43/45/37
f 9/9/6 43/45/37 11/11/38
f 11/11/38 43/45/37 44/46/38
f 11/11/38 44/46/38 12/12/39
f 12/12/39 44/46/38 45/47/39
f 12/12/39 45/47/39 14/14/40
f 14/14/40 45/47/39 46/48/40
f 14/14/40 46/48/40 47/49/41
f 14/14/40 47/49/41 16/16/41
f 16/16/41 47/49/41 48/50/42
f 16/16/41 48/50/42 18/18/42
f 18/18/42 48/50/42 49/51/43
f 18/18/42 49/51/43 20/20/43
f 20/20/43 49/51/43 50/52/44
f 20/20/43 50/52/44 22/22/44
f 22/22/44 50/52/44 51/53/45
f 22/22/44 51/53/45 25/25/45
f 39/39/46 52/54/46 38/38/46
f 38/38/46 52/54/46 53/55/47
f 38/38/46 53/55/47 37/37/47
f 37/37/47 53/55/47 54/56/47
f 37/37/47 54/56/47 36/36/48
f 36/36/48 54/56/47 55/57/48
f 36/36/48 55/57/48 35/35/49
f 35/35/49 55/57/48 56/58/49
f 35/35/49 56/58/49 34/34/49
f 34/34/49 56/58/49 57/59/49
f 34/34/49 57/59/49 58/60/50
f 34/34/49 58/60/50 33/33/50
f 33/33/50 58/60/50 59/61/51
f 33/33/50 59/61/51 32/32/52
f 32/32/52 59/61/51 60/62/53
f 32/32/52 60/62/53 31/31/53
f 31/31/53 60/62/53 61/63/54
f 31/31/53 61/63/54 29/29/54
f 29/29/54 61/63/54 62/64/55
f 29/29/54 62/64/55 28/28/55
f 28/28/55 62/64/55 63/65/56
f 28/28/55 63/65/56 30/30/57
f 30/30/57 63/65/56 1/1/58
f 49/51/59 48/50/60 64/66/59
f 64/66/59 48/50/60 65/67/60
f 49/51/59 64/66/59 66/68/61
f 65/67/60 48/50/60 47/49/62
f 49/51/59 66/68/61 50/52/61
f 50/52/61 66/68/61 67/69/61
f 50/52/61 67/69/61 51/53/61
f 65/67/60 47/49/62 68/70/62
f 68/70/62 47/49/62 46/48/63
f 68/70/62 46/48/63 69/71/63
f 69/71/63 46/48/63 70/72/64
f 70/72/64 46/48/63 45/47/64
f 70/72/64 45/47/64 71/73/65
f 71/73/65 45/47/64 44/46/65
f 71/73/65 44/46/65 72/74/66
f 72/74/66 44/46/65 43/45/66
f 72/74/66 43/45/66 73/75/67
f 73/75/67 43/45/66 41/41/68
f 73/75/67 41/41/68 74/76/69
f 74/76/69 41/41/68 40/40/69
f 74/76/69 40/40/69 75/77/70
f 75/77/70 40/40/69 42/42/71
f 75/77/70 42/42/71 2/43/72
f 65/78/73 55/57/73 64/79/74
f 64/79/74 55/57/73 54/56/74
f 55/57/73 65/78/73 56/58/75
f 64/79/74 54/56/74 66/80/76
f 56/58/75 65/78/73 68/81/77
f 66/80/76 54/56/74 53/55/76
f 66/80/76 53/55/76 52/54/78
f 66/80/76 52/54/78 67/82/78
f 56/58/75 68/81/77 57/59/79
f 57/59/79 68/81/77 69/83/79
f 57/59/79 69/83/79 58/60/80
f 58/60/80 69/83/79 70/84/80
f 58/60/80 70/84/80 59/61/81
f 59/61/81 70/84/80 71/85/81
f 59/61/81 71/85/81 60/62/82
f 60/62/82 71/85/81 72/86/82
f 60/62/82 72/86/82 61/63/83
f 61/63/83 72/86/82 73/87/83
f 61/63/83 73/87/83 62/64/84
f 62/64/84 73/87/83 74/88/84
f 62/64/84 74/88/84 63/65/85
f 63/65/85 74/88/84 75/89/85
f 63/65/85 75/89/85 1/1/86
f 1/1/86 75/89/85 2/2/86
f 4/44/36 27/27/16 3/90/87
f 3/90/87 27/27/16 76/91/88
f 76/91/88 27/27/16 26/26/15
f 3/90/87 76/91/88 1/1/89
f 76/91/88 26/26/15 30/30/20
f 76/91/88 30/30/20 1/1/89
