# CS2 body mesh, tools/cs2_glb_to_obj.py
v 0.01198 0.12853 0.5
v 0.00619 0.12514 0.5
v 0.02856 0.10877 0.5
v 0.01632 0.13364 0.5
v 0.01476 0.10068 0.5
v 0.03892 0.12096 0.5
v -0.00035 0.12388 0.5
v 0.0187 0.13986 0.5
v -0.00082 0.09768 0.5
v 0.04459 0.13578 0.5
v -0.00684 0.1249 0.5
v 0.01881 0.14643 0.5
v -0.01631 0.10012 0.5
v 0.04487 0.15145 0.5
v -0.01251 0.12808 0.5
v 0.01667 0.15257 0.5
v -0.02983 0.10771 0.5
v 0.03974 0.16608 0.5
v -0.01667 0.13304 0.5
v 0.02983 0.1779 0.5
v -0.03974 0.11953 0.5
v 0.0125 0.15752 0.5
v -0.04487 0.13415 0.5
v 0.01631 0.18549 0.5
v -0.01881 0.13918 0.5
v 0.00684 0.16071 0.5
v -0.04459 0.14983 0.5
v 0.00082 0.18793 0.5
v -0.0187 0.14575 0.5
v 0.00034 0.16173 0.5
v -0.03892 0.16465 0.5
v -0.01476 0.18493 0.5
v -0.01632 0.15197 0.5
v -0.00619 0.16047 0.5
v -0.02856 0.17684 0.5
v -0.01198 0.15708 0.5
v -0.01417 0.18324 0.49109
v -0.01476 0.18493 0.49067
v -0.02742 0.17548 0.49109
v 0.00079 0.18612 0.49109
v -0.02856 0.17684 0.49067
v 0.00082 0.18793 0.49067
v -0.03736 0.16378 0.49109
v 0.01566 0.18378 0.49109
v -0.03892 0.16465 0.49067
v 0.01631 0.18549 0.49067
v -0.0428 0.14955 0.49109
v 0.02863 0.1765 0.49109
v -0.04459 0.14983 0.49067
v -0.04308 0.1345 0.49109
v -0.04487 0.13415 0.49067
v 0.02983 0.1779 0.49067
v 0.03974 0.16608 0.49067
v 0.03815 0.16515 0.49109
v 0.04487 0.15145 0.49067
v 0.04307 0.15111 0.49109
v 0.04459 0.13578 0.49067
v 0.0428 0.13606 0.49109
v 0.03892 0.12096 0.49067
v 0.03736 0.12183 0.49109
v 0.02856 0.10877 0.49067
v 0.02742 0.11013 0.49109
v 0.01476 0.10068 0.49067
v 0.01417 0.10237 0.49109
v 0 0.1428 0.46319
v -0.03815 0.12046 0.49109
v -0.03974 0.11953 0.49067
v -0.02863 0.10911 0.49109
v -0.02983 0.10771 0.49067
v -0.01631 0.10012 0.49067
v -0.01566 0.10183 0.49109
v -0.00082 0.09768 0.49067
v -0.00079 0.09949 0.49109
v -0.04487 0.13415 0.28147
v -0.04304 0.13451 0.28445
v -0.04459 0.14983 0.28147
v -0.04277 0.14954 0.28445
v -0.03892 0.16465 0.28147
v -0.03734 0.16376 0.28445
v -0.0274 0.17546 0.28445
v -0.02856 0.17684 0.28147
v -0.01416 0.18321 0.28445
v -0.01476 0.18493 0.28147
v 0.00079 0.18609 0.28445
v 0.00082 0.18793 0.28147
v 0.01565 0.18376 0.28445
v 0.01631 0.18549 0.28147
v 0.02861 0.17647 0.28445
v 0.02983 0.1779 0.28147
v 0.03812 0.16513 0.28445
v 0.03974 0.16608 0.28147
v 0.04487 0.15145 0.28147
v 0.04304 0.1511 0.28445
v 0.04459 0.13578 0.28147
v 0.04277 0.13607 0.28445
v 0.03892 0.12096 0.28147
v 0.03733 0.12184 0.28445
v 0.0274 0.11015 0.28445
v 0.02856 0.10877 0.28147
v 0.01476 0.10068 0.28147
v 0.01416 0.1024 0.28445
v -0.04487 0.13415 0.04229
v -0.04308 0.1345 0.04271
v -0.04459 0.14983 0.04229
v -0.0428 0.14955 0.04271
v -0.03892 0.16465 0.04229
v -0.03736 0.16378 0.04271
v -0.02856 0.17684 0.04229
v -0.02742 0.17548 0.04271
v -0.01476 0.18493 0.04229
v -0.01417 0.18324 0.04271
v 0.00079 0.18612 0.04271
v 0.00082 0.18793 0.04229
v 0.01566 0.18378 0.04271
v 0.01631 0.18549 0.04229
v 0.02863 0.1765 0.04271
v 0.02983 0.1779 0.04229
v 0.03974 0.16608 0.04229
v 0.03815 0.16515 0.04271
v 0.04487 0.15145 0.04229
v 0.04307 0.15111 0.04271
v 0.04459 0.13578 0.04229
v 0.0428 0.13606 0.04271
v 0.03892 0.12096 0.04229
v 0.03736 0.12183 0.04271
v 0.02856 0.10877 0.04229
v 0.02742 0.11013 0.04271
v 0.01476 0.10068 0.04229
v 0.01417 0.10237 0.04271
v -0.00079 0.09949 0.04271
v -0.00082 0.09768 0.04229
v -0.01566 0.10183 0.04271
v -0.01631 0.10012 0.04229
v -0.02863 0.10911 0.04271
v -0.02983 0.10771 0.04229
v -0.03974 0.11952 0.04229
v -0.03815 0.12046 0.04271
v -0.00079 0.09951 0.28445
v -0.00082 0.09768 0.28147
v -0.01565 0.10185 0.28445
v -0.01631 0.10012 0.28147
v -0.02861 0.10914 0.28445
v -0.02983 0.10771 0.28147
v -0.03813 0.12047 0.28445
v -0.03974 0.11953 0.28147
v 0.01741 0.18839 0.11542
v 0.01741 0.18839 0.10986
v 0.00088 0.19099 0.10986
v 0.03185 0.18028 0.11542
v 0.03185 0.18028 0.10986
v 0.00088 0.19099 0.11542
v -0.01576 0.18779 0.10986
v 0.04244 0.16766 0.11542
v 0.04244 0.16766 0.10986
v 0.03974 0.16608 0.12334
v 0.04792 0.15204 0.11542
v 0.04792 0.15204 0.10986
v 0.04761 0.1353 0.11542
v 0.04761 0.1353 0.10986
v 0.04487 0.15145 0.12334
v 0.04156 0.11947 0.11542
v 0.04156 0.11947 0.10986
v 0.04459 0.13578 0.12334
v 0.02983 0.1779 0.12334
v 0.03892 0.12096 0.12334
v 0.01631 0.18549 0.12334
v 0.02856 0.10877 0.12334
v 0.01476 0.10068 0.12334
v 0.00082 0.18793 0.12334
v 0.0305 0.10645 0.11542
v 0.01576 0.09782 0.11542
v 0.0305 0.10645 0.10986
v 0.01576 0.09782 0.10986
v -0.01476 0.18493 0.12334
v -0.01576 0.18779 0.11542
v -0.0305 0.17916 0.11542
v -0.0305 0.17916 0.10986
v -0.04156 0.16614 0.10986
v -0.02856 0.17684 0.12334
v -0.04156 0.16614 0.11542
v -0.04761 0.1503 0.10986
v -0.03892 0.16465 0.12334
v -0.04459 0.14983 0.12334
v -0.04761 0.1503 0.11542
v -0.04792 0.13357 0.10986
v -0.04792 0.13357 0.11542
v -0.04487 0.13415 0.12334
v 0.01631 0.18549 0.04313
v 0.01631 0.18549 0.10986
v 0.02983 0.1779 0.10986
v 0.00082 0.18793 0.04313
v 0.02983 0.1779 0.04313
v 0.00082 0.18793 0.10986
v 0.03974 0.16608 0.10986
v -0.01476 0.18493 0.04313
v 0.03974 0.16608 0.04313
v -0.01476 0.18493 0.10986
v 0.04487 0.15145 0.10986
v -0.02856 0.17684 0.04313
v 0.04487 0.15145 0.04313
v -0.02856 0.17684 0.10986
v 0.04459 0.13578 0.10986
v -0.03892 0.16465 0.04313
v 0.04459 0.13578 0.04313
v -0.03892 0.16465 0.10986
v 0.03892 0.12096 0.10986
v -0.04459 0.14983 0.04313
v 0.03892 0.12096 0.04313
v -0.04459 0.14983 0.10986
v -0.04487 0.13415 0.04313
v -0.04487 0.13415 0.10986
v 0.02856 0.10877 0.10986
v 0.02856 0.10877 0.04313
v 0.01476 0.10068 0.10986
v 0.01476 0.10068 0.04313
v 0.01631 0.18549 0.28882
v 0.00082 0.18793 0.28882
v 0.02983 0.1779 0.28882
v -0.01476 0.18493 0.28882
v 0.03974 0.16608 0.28882
v -0.02856 0.17684 0.28882
v 0.04487 0.15145 0.28882
v -0.03892 0.16465 0.28882
v 0.04459 0.13578 0.28882
v -0.04459 0.14983 0.28882
v 0.03892 0.12096 0.28882
v -0.04487 0.13415 0.28882
v 0.02856 0.10877 0.28882
v 0.01476 0.10068 0.28882
v 0.01631 0.18549 0.03768
v 0.00082 0.18793 0.03768
v 0.02983 0.1779 0.03768
v -0.01476 0.18493 0.03768
v 0.03974 0.16608 0.03768
v -0.02856 0.17684 0.03768
v 0.04487 0.15145 0.03768
v -0.03892 0.16465 0.03768
v 0.04459 0.13578 0.03768
v -0.04459 0.14983 0.03768
v 0.03892 0.12096 0.03768
v -0.04487 0.13415 0.03768
v 0.02856 0.10877 0.03768
v 0.01476 0.10068 0.03768
v 0.01631 0.18549 0.4915
v 0.00082 0.18793 0.4915
v 0.02983 0.1779 0.4915
v -0.01476 0.18493 0.4915
v 0.03974 0.16608 0.4915
v -0.02856 0.17684 0.4915
v 0.04487 0.15145 0.4915
v -0.03892 0.16465 0.4915
v 0.04459 0.13578 0.4915
v -0.04459 0.14983 0.4915
v 0.03892 0.12096 0.4915
v -0.04487 0.13415 0.4915
v 0.02856 0.10877 0.4915
v 0.01476 0.10068 0.4915
v 0.01565 0.18376 0.28721
v 0.02861 0.17647 0.28721
v 0.00079 0.18609 0.28721
v 0.03812 0.16513 0.28721
v -0.01416 0.18321 0.28721
v 0.04304 0.1511 0.28721
v -0.0274 0.17546 0.28721
v 0.04277 0.13607 0.28721
v -0.03734 0.16376 0.28721
v 0.03733 0.12184 0.28721
v -0.04277 0.14954 0.28721
v -0.04304 0.13451 0.28721
v 0.0274 0.11015 0.28721
v 0.01416 0.1024 0.28721
v 0.0043 0.16781 0.01875
v 0.0043 0.16781 0.06605
v 0.013 0.16441 0.06605
v 0.013 0.16441 0.01875
v 0.02009 0.15801 0.06605
v 0.02009 0.15801 0.01875
v 0.02472 0.14939 0.06605
v 0.02472 0.14939 0.01875
v 0.02633 0.13959 0.06605
v 0.02633 0.13959 0.01875
v 0.02472 0.12979 0.06605
v 0.02472 0.12979 0.01875
v -0.02538 0.14939 0.06605
v -0.02075 0.15801 0.06605
v -0.02538 0.14939 0.01875
v -0.02699 0.13959 0.06605
v -0.02075 0.15801 0.01875
v -0.02699 0.13959 0.01875
v -0.01366 0.16441 0.06605
v -0.02538 0.12979 0.01875
v -0.01366 0.16441 0.01875
v -0.02538 0.12979 0.06605
v -0.00496 0.16781 0.06605
v -0.02075 0.12117 0.01875
v -0.00496 0.16781 0.01875
v -0.02075 0.12117 0.06605
v -0.01366 0.11477 0.01875
v -0.01366 0.11477 0.06605
v -0.00496 0.11137 0.01875
v -0.00496 0.11137 0.06605
v 0.0043 0.11137 0.01875
v 0.0043 0.11137 0.06605
v -0.03974 0.11953 0.12334
v -0.02983 0.10771 0.12334
v -0.04244 0.11795 0.11542
v -0.04244 0.11795 0.10986
v -0.03185 0.10532 0.10986
v -0.03185 0.10532 0.11542
v -0.01742 0.09722 0.10986
v -0.01742 0.09722 0.11542
v -0.00088 0.09461 0.10986
v -0.01631 0.10012 0.12334
v -0.00088 0.09461 0.11542
v -0.00082 0.09768 0.12334
v -0.00082 0.09768 0.10986
v -0.00082 0.09768 0.04313
v -0.01631 0.10012 0.10986
v -0.01631 0.10012 0.04313
v -0.02983 0.10771 0.10986
v -0.02983 0.10771 0.04313
v -0.03974 0.11953 0.10986
v -0.03974 0.11952 0.04313
v -0.00082 0.09768 0.28882
v -0.01631 0.10012 0.28882
v -0.02983 0.10771 0.28882
v -0.03974 0.11953 0.28882
v -0.03974 0.11952 0.03768
v -0.02983 0.10771 0.03768
v -0.01631 0.10012 0.03768
v -0.00082 0.09768 0.03768
v -0.03974 0.11953 0.4915
v -0.02983 0.10771 0.4915
v -0.01631 0.10012 0.4915
v -0.00082 0.09768 0.4915
v 0.013 0.11477 0.01875
v 0.013 0.11477 0.06605
v 0.02009 0.12117 0.01875
v 0.02009 0.12117 0.06605
v -0.03813 0.12047 0.28721
v -0.02861 0.10914 0.28721
v -0.01565 0.10185 0.28721
v -0.00079 0.09951 0.28721
v 0.00755 0.12492 0.01875
v 0.00241 0.12291 0.01875
v 0.01175 0.1287 0.01875
v -0.00307 0.12291 0.01875
v -0.00821 0.12492 0.01875
v -0.0124 0.1287 0.01875
v -0.01514 0.1338 0.01875
v -0.01609 0.13959 0.01875
v -0.01514 0.14539 0.01875
v -0.00821 0.15427 0.01875
v -0.0124 0.15048 0.01875
v -0.00307 0.15628 0.01875
v 0.00241 0.15628 0.01875
v 0.00755 0.15427 0.01875
v 0.01175 0.15048 0.01875
v 0.01448 0.14539 0.01875
v 0.01543 0.13959 0.01875
v 0.01448 0.1338 0.01875
v 0 0.1428 0.03768
v 0.04589 0.15165 0.10986
v 0.04064 0.16661 0.10986
v 0.04559 0.13562 0.10986
v 0.0305 0.1787 0.10986
v 0.0398 0.12046 0.10986
v 0.01668 0.18646 0.10986
v 0.02921 0.108 0.10986
v 0.01509 0.09973 0.10986
v 0.00084 0.18895 0.10986
v -0.0151 0.18588 0.10986
v -0.02921 0.17761 0.10986
v -0.0398 0.16515 0.10986
v -0.0456 0.14999 0.10986
v -0.04589 0.13396 0.10986
v -0.04064 0.119 0.10986
v -0.0305 0.10691 0.10986
v -0.01668 0.09915 0.10986
v -0.00084 0.09665 0.10986
vt 0.315653 0.845698
vt 0.322245 0.846675
vt 0.315897 0.818842
vt 0.309061 0.846675
vt 0.331523 0.821772
vt 0.300272 0.821284
vt 0.32786 0.850093
vt 0.303446 0.849605
vt 0.345439 0.829096
vt 0.285867 0.82812
vt 0.332255 0.854488
vt 0.299051 0.854488
vt 0.35667 0.840327
vt 0.274148 0.839839
vt 0.334697 0.860836
vt 0.296854 0.860347
vt 0.363262 0.854976
vt 0.267067 0.854976
vt 0.334697 0.866695
vt 0.268288 0.871578
vt 0.364483 0.872066
vt 0.296854 0.866207
vt 0.357402 0.887204
vt 0.27488 0.886715
vt 0.332499 0.872555
vt 0.299295 0.872066
vt 0.345683 0.898923
vt 0.286111 0.897946
vt 0.328104 0.877438
vt 0.30369 0.876949
vt 0.331278 0.905759
vt 0.300027 0.905271
vt 0.322245 0.880367
vt 0.309305 0.880367
vt 0.315653 0.9082
vt 0.315897 0.881344
vt 0.16245 0.052767
vt 0.16245 0.054537
vt 0.176855 0.052767
vt 0.148045 0.052797
vt 0.176855 0.054506
vt 0.148045 0.054537
vt 0.191382 0.052767
vt 0.133885 0.052797
vt 0.191382 0.054506
vt 0.133885 0.054567
vt 0.205664 0.052767
vt 0.119907 0.052828
vt 0.205786 0.054476
vt 0.219825 0.052736
vt 0.219947 0.054476
vt 0.119907 0.054598
vt 0.10593 0.054628
vt 0.10593 0.052858
vt 0.091952 0.054659
vt 0.091891 0.052889
vt 0.077792 0.054689
vt 0.077731 0.052919
vt 0.063448 0.054689
vt 0.063387 0.052919
vt 0.049013 0.054689
vt 0.049013 0.05295
vt 0.034486 0.05472
vt 0.034822 0.053011
vt 0.315653 0.863277
vt 0.233863 0.052705
vt 0.233863 0.054445
vt 0.247902 0.052705
vt 0.247902 0.054445
vt 0.261696 0.054445
vt 0.26194 0.052705
vt 0.275857 0.054476
vt 0.275857 0.052767
vt 0.290262 0.054567
vt 0.290017 0.052858
vt 0.21897 0.246864
vt 0.218848 0.243629
vt 0.20481 0.246864
vt 0.20481 0.243629
vt 0.190527 0.246864
vt 0.190527 0.243629
vt 0.176122 0.243629
vt 0.176122 0.246864
vt 0.161718 0.243751
vt 0.161718 0.246864
vt 0.147435 0.243751
vt 0.147435 0.246864
vt 0.133396 0.243751
vt 0.133274 0.246986
vt 0.119419 0.243751
vt 0.119419 0.246986
vt 0.105502 0.243873
vt 0.105564 0.247108
vt 0.091586 0.247108
vt 0.091586 0.243873
vt 0.077548 0.247108
vt 0.077486 0.243995
vt 0.063265 0.247108
vt 0.063265 0.243995
vt 0.049013 0.243873
vt 0.048891 0.247108
vt 0.034394 0.246742
vt 0.034883 0.243629
vt 0.220069 0.471175
vt 0.220069 0.469405
vt 0.205786 0.471175
vt 0.205786 0.469405
vt 0.191382 0.471175
vt 0.191382 0.469405
vt 0.176733 0.470931
vt 0.176733 0.469405
vt 0.162206 0.471175
vt 0.162206 0.469405
vt 0.147679 0.469405
vt 0.147679 0.471175
vt 0.133396 0.469405
vt 0.133396 0.471175
vt 0.119236 0.469649
vt 0.119236 0.471419
vt 0.105197 0.471419
vt 0.105136 0.469649
vt 0.091098 0.471419
vt 0.091037 0.469649
vt 0.076876 0.471664
vt 0.076754 0.469893
vt 0.062471 0.471908
vt 0.06241 0.470138
vt 0.048006 0.472152
vt 0.047975 0.470443
vt 0.033479 0.47264
vt 0.033784 0.471175
vt 0.290506 0.470687
vt 0.276589 0.470138
vt 0.29075 0.472152
vt 0.276345 0.471908
vt 0.262429 0.469893
vt 0.262185 0.471664
vt 0.248268 0.469649
vt 0.248268 0.471419
vt 0.23423 0.471175
vt 0.23423 0.469405
vt 0.288552 0.243324
vt 0.274636 0.243629
vt 0.289041 0.246376
vt 0.274636 0.246742
vt 0.260475 0.243629
vt 0.260475 0.246864
vt 0.246681 0.243629
vt 0.246681 0.246864
vt 0.232887 0.243629
vt 0.232887 0.246864
vt 0.13242 0.399091
vt 0.13242 0.404279
vt 0.147069 0.404035
vt 0.117954 0.399091
vt 0.117954 0.404279
vt 0.147069 0.399091
vt 0.161962 0.404035
vt 0.103488 0.399091
vt 0.103549 0.404279
vt 0.103427 0.391522
vt 0.088961 0.399335
vt 0.089022 0.404279
vt 0.074252 0.399335
vt 0.074313 0.404523
vt 0.0889 0.391522
vt 0.059297 0.399335
vt 0.059358 0.404523
vt 0.07419 0.391522
vt 0.117954 0.391278
vt 0.059297 0.391522
vt 0.13242 0.391278
vt 0.044343 0.391522
vt 0.029633 0.391095
vt 0.147191 0.391278
vt 0.04413 0.399335
vt 0.028718 0.399335
vt 0.04416 0.404767
vt 0.028748 0.405011
vt 0.161962 0.391278
vt 0.161962 0.399091
vt 0.176977 0.398907
vt 0.176977 0.404035
vt 0.191992 0.404035
vt 0.176977 0.391278
vt 0.191992 0.398907
vt 0.206885 0.404035
vt 0.19187 0.391278
vt 0.206763 0.391278
vt 0.206885 0.398907
vt 0.221534 0.404035
vt 0.221534 0.398907
vt 0.221412 0.391278
vt 0.133274 0.467757
vt 0.132542 0.406903
vt 0.118076 0.406903
vt 0.147679 0.467757
vt 0.119175 0.468001
vt 0.147191 0.406903
vt 0.10361 0.406903
vt 0.162206 0.467757
vt 0.105136 0.468001
vt 0.162084 0.40672
vt 0.089084 0.407147
vt 0.176733 0.467757
vt 0.090976 0.468001
vt 0.176977 0.40672
vt 0.074374 0.407147
vt 0.191382 0.467757
vt 0.076754 0.468245
vt 0.19187 0.40672
vt 0.059542 0.407392
vt 0.205908 0.467757
vt 0.062349 0.46849
vt 0.206763 0.40672
vt 0.220191 0.467757
vt 0.221412 0.40672
vt 0.044649 0.407941
vt 0.047884 0.468978
vt 0.029939 0.408429
vt 0.033357 0.469405
vt 0.133274 0.238807
vt 0.147435 0.238807
vt 0.119419 0.238929
vt 0.161718 0.238807
vt 0.105564 0.238929
vt 0.176122 0.238807
vt 0.091647 0.238929
vt 0.190527 0.238807
vt 0.077609 0.238929
vt 0.20481 0.238807
vt 0.063326 0.238929
vt 0.21897 0.238685
vt 0.048982 0.238929
vt 0.034486 0.238929
vt 0.133396 0.47557
vt 0.147679 0.475326
vt 0.119297 0.47557
vt 0.162206 0.475326
vt 0.105258 0.47557
vt 0.176733 0.475326
vt 0.091159 0.475814
vt 0.191382 0.475326
vt 0.076937 0.475814
vt 0.205786 0.475326
vt 0.062593 0.476058
vt 0.220069 0.475326
vt 0.048097 0.476547
vt 0.03354 0.477035
vt 0.133885 0.051088
vt 0.133885 0.043306
vt 0.119907 0.043336
vt 0.148045 0.051088
vt 0.119907 0.051088
vt 0.148045 0.043336
vt 0.10593 0.043367
vt 0.16245 0.051119
vt 0.10593 0.051119
vt 0.16245 0.043336
vt 0.091891 0.043397
vt 0.176855 0.051088
vt 0.091952 0.05118
vt 0.176855 0.043336
vt 0.077731 0.043458
vt 0.191382 0.051057
vt 0.077792 0.05121
vt 0.191382 0.043306
vt 0.063387 0.043458
vt 0.205786 0.051027
vt 0.063448 0.051241
vt 0.205664 0.043245
vt 0.219947 0.050966
vt 0.219947 0.043214
vt 0.048891 0.043519
vt 0.048982 0.051271
vt 0.034303 0.043672
vt 0.034425 0.051424
vt 0.133396 0.241188
vt 0.119419 0.241188
vt 0.147435 0.241188
vt 0.105564 0.24131
vt 0.161718 0.241066
vt 0.091586 0.24131
vt 0.176122 0.241066
vt 0.077548 0.24131
vt 0.190527 0.241066
vt 0.063326 0.24131
vt 0.20481 0.241066
vt 0.218848 0.241066
vt 0.049043 0.24131
vt 0.034913 0.241188
vt 0.35081 0.156102
vt 0.307596 0.156224
vt 0.307596 0.164586
vt 0.35081 0.164586
vt 0.307596 0.173437
vt 0.35081 0.173315
vt 0.307596 0.182287
vt 0.35081 0.182287
vt 0.307596 0.191382
vt 0.35081 0.191382
vt 0.307596 0.200354
vt 0.35081 0.200354
vt 0.307352 0.121677
vt 0.307596 0.130589
vt 0.350566 0.121311
vt 0.307352 0.112705
vt 0.350566 0.130345
vt 0.350566 0.112217
vt 0.307596 0.139195
vt 0.350322 0.103122
vt 0.350566 0.138951
vt 0.307352 0.10361
vt 0.307596 0.147801
vt 0.350322 0.094089
vt 0.35081 0.147679
vt 0.307108 0.09476
vt 0.350078 0.085299
vt 0.307108 0.086093
vt 0.350078 0.076632
vt 0.306864 0.077731
vt 0.349834 0.068148
vt 0.306619 0.069308
vt 0.236061 0.391278
vt 0.250465 0.391278
vt 0.236061 0.399091
vt 0.236061 0.404035
vt 0.250465 0.404279
vt 0.250465 0.399091
vt 0.265114 0.404279
vt 0.265114 0.399091
vt 0.280007 0.404279
vt 0.265114 0.391278
vt 0.280007 0.399091
vt 0.295144 0.404523
vt 0.295144 0.398907
vt 0.279763 0.391095
vt 0.294412 0.390851
vt 0.294168 0.407941
vt 0.279519 0.407392
vt 0.290994 0.468978
vt 0.276589 0.46849
vt 0.26487 0.407147
vt 0.262429 0.468001
vt 0.250465 0.406903
vt 0.24839 0.468001
vt 0.235939 0.406903
vt 0.234352 0.467757
vt 0.289041 0.238807
vt 0.274636 0.238685
vt 0.260475 0.238685
vt 0.246681 0.238685
vt 0.232887 0.238685
vt 0.23423 0.47557
vt 0.248146 0.47557
vt 0.262185 0.475814
vt 0.276345 0.476058
vt 0.29075 0.476547
vt 0.233863 0.050935
vt 0.233863 0.043153
vt 0.247902 0.050905
vt 0.247902 0.043153
vt 0.261696 0.050935
vt 0.26194 0.043153
vt 0.275857 0.051027
vt 0.276101 0.043245
vt 0.290262 0.051241
vt 0.290506 0.043489
vt 0.34959 0.059511
vt 0.306375 0.060823
vt 0.349345 0.050752
vt 0.306131 0.052248
vt 0.348613 0.04178
vt 0.305643 0.043306
vt 0.232765 0.241066
vt 0.246681 0.241066
vt 0.260475 0.241066
vt 0.274636 0.241066
vt 0.288552 0.240883
vt 0.361309 0.051973
vt 0.364971 0.055391
vt 0.359111 0.047273
vt 0.353252 0.058626
vt 0.359355 0.064486
vt 0.367168 0.067721
vt 0.36961 0.057253
vt 0.375713 0.067843
vt 0.374737 0.057344
vt 0.384014 0.064791
vt 0.37962 0.055574
vt 0.390851 0.059145
vt 0.383526 0.052278
vt 0.395489 0.051424
vt 0.386456 0.047639
vt 0.387677 0.042482
vt 0.397687 0.042634
vt 0.384747 0.032594
vt 0.386944 0.037172
vt 0.39671 0.033692
vt 0.392804 0.025849
vt 0.381085 0.029145
vt 0.3867 0.01999
vt 0.378887 0.016846
vt 0.376446 0.027253
vt 0.370342 0.016724
vt 0.371563 0.027192
vt 0.362285 0.019623
vt 0.36668 0.028932
vt 0.355449 0.025391
vt 0.362529 0.032289
vt 0.350566 0.033082
vt 0.359844 0.036836
vt 0.358623 0.042085
vt 0.29783 0.914548
vt 0.305643 0.954588
vt 0.312479 0.914548
vt 0.326151 0.919431
vt 0.284158 0.919431
vt 0.337382 0.928709
vt 0.273171 0.928709
vt 0.344951 0.940916
vt 0.265847 0.940916
vt 0.347636 0.954588
vt 0.263649 0.954588
vt 0.345195 0.968261
vt 0.266335 0.968261
vt 0.338115 0.980468
vt 0.273659 0.980468
vt 0.327128 0.989746
vt 0.285134 0.989746
vt 0.313456 0.994629
vt 0.298807 0.994629
vt 0.089022 0.406232
vt 0.103549 0.406232
vt 0.074313 0.406476
vt 0.118015 0.405988
vt 0.05945 0.406476
vt 0.132542 0.405988
vt 0.044404 0.40672
vt 0.02945 0.407147
vt 0.147191 0.405988
vt 0.161962 0.405988
vt 0.176977 0.405988
vt 0.19187 0.405988
vt 0.206763 0.405988
vt 0.221412 0.405988
vt 0.235939 0.405988
vt 0.250465 0.405988
vt 0.26487 0.406232
vt 0.279763 0.406476
vt 0.294656 0.40672
vn 0 -0.001 1
vn -0.0811 0.2232 0.9714
vn -0.1644 0.1669 0.9722
vn -0.0201 0.2088 0.9778
vn -0.2073 0.1234 0.9705
vn 0.0609 0.2424 0.9683
vn -0.238 0.0403 0.9704
vn 0.1234 0.2073 0.9705
vn -0.2281 -0.0012 0.9736
vn -0.2323 -0.0204 0.9724
vn 0.1841 0.1215 0.9754
vn 0.2193 0.06 0.9738
vn 0.2154 0.0397 0.9757
vn 0.214 -0.0397 0.976
vn 0.1826 -0.1213 0.9757
vn 0.1427 -0.1615 0.9765
vn 0.0587 -0.219 0.974
vn 0.3025 -0.8374 0.4553
vn -0.0151 0.0171 0.9997
vn 0 -0.8805 0.474
vn -0.3052 -0.8197 0.4846
vn 0.5687 -0.6808 0.4617
vn -0.5717 -0.6574 0.491
vn 0.7483 -0.4566 0.4813
vn -0.7682 -0.4266 0.4773
vn 0.8618 -0.1697 0.4781
vn -0.8798 -0.1153 0.4612
vn 0.8772 0.1649 0.451
vn -0.8772 0.1649 0.451
vn 0.7496 0.4794 0.4564
vn -0.77 0.4496 0.4528
vn 0.542 0.7021 0.4619
vn -0.5949 0.6782 0.4316
vn 0.2757 0.8487 0.4513
vn -0.3305 0.8381 0.4339
vn -0.0227 0.8896 0.4562
vn -0.1988 -0.0798 0.9768
vn -0.1427 -0.1615 0.9765
vn -0.0785 -0.2 0.9766
vn 0 -0.2075 0.9782
vn -0.8384 -0.0933 0.5369
vn -0.8456 0.1679 0.5068
vn -0.7484 0.426 0.5083
vn -0.5736 0.6543 0.4928
vn -0.3096 0.7987 0.516
vn -0.0231 0.8613 0.5075
vn 0.252 0.8271 0.5024
vn 0.5186 0.6797 0.5186
vn 0.7278 0.4559 0.5123
vn 0.8384 0.1429 0.526
vn 0.8269 -0.1693 0.5363
vn 0.725 -0.432 0.5363
vn 0.5455 -0.6584 0.5186
vn 0.2806 -0.7962 0.536
vn -0.1013 0.2038 0.9738
vn -0.0204 0.2337 0.9721
vn 0.0785 -0.2 0.9766
vn 0 -0.2292 0.9734
vn 0 -0.8514 0.5245
vn -0.2809 -0.7937 0.5396
vn -0.5472 -0.6333 0.5472
vn -0.7452 -0.4022 0.5319
vn 0.3116 0.9375 0.1551
vn 0.3214 0.9469 -0.0012
vn -0.0333 0.9994 -0.001
vn 0.6163 0.7685 0.172
vn 0.6259 0.7799 -0.0014
vn -0.0195 0.9855 0.1686
vn -0.3729 0.9279 -0.0013
vn 0.8456 0.5068 0.1679
vn 0.867 0.4983 0.0013
vn 0.9674 0.1904 0.1671
vn 0.9866 0.1631 0.0011
vn 0.962 -0.1937 0.1924
vn 0.9782 -0.2075 0
vn 0.9674 0.1671 0.1904
vn 0.8342 -0.5153 0.1965
vn 0.8523 -0.523 0
vn 0.6237 -0.7817 0
vn 0.3169 0.9312 0.1801
vn 0.6273 -0.7524 0.2009
vn 0.3466 -0.938 0
vn 0.3516 -0.9122 0.2104
vn 0.3459 -0.92 0.1843
vn -0.3712 0.91 0.1849
vn -0.365 0.9173 0.1592
vn -0.6459 0.7436 0.1726
vn -0.6498 0.7601 -0.0014
vn -0.867 0.4983 0.0013
vn -0.8456 0.5068 0.1679
vn -0.983 0.1838 0.0011
vn -0.9674 0.1904 0.1671
vn -0.9897 -0.1428 0
vn -0.972 -0.1438 0.1858
vn -0.9708 -0.1233 0.2058
vn 0.3275 0.9446 -0.0215
vn 0.6366 0.7709 -0.0238
vn -0.0339 0.9993 -0.0175
vn -0.9919 -0.1254 0.0178
vn 0.1864 0.9825 -0.0011
vn 0.5236 0.852 -0.0013
vn 0.7823 0.6228 0.0014
vn 0.9469 0.3214 0.0012
vn 0.9999 -0.0169 0
vn 0.9471 -0.3211 0
vn -0.9546 0.2978 0.0012
vn -0.8011 0.5985 0.0014
vn -1 -0.001 0
vn -0.5487 0.836 -0.0014
vn -0.96 -0.2794 0.0197
vn -0.2077 0.9782 -0.0012
vn -0.8097 -0.5865 0.0222
vn -0.7993 -0.6009 0
vn -0.5497 -0.8354 0
vn -0.2061 -0.9785 0
vn 0.1849 -0.9828 0
vn -0.8673 -0.4589 0.1931
vn -0.8814 -0.4724 0
vn -0.6536 -0.7295 0.2014
vn -0.6476 -0.762 0
vn -0.3466 -0.938 0
vn -0.3459 -0.92 0.1843
vn 0.0159 -0.9999 0
vn -0.3516 -0.9122 0.2104
vn 0 -0.9828 0.1849
vn -0.6584 -0.7523 0.0224
vn -0.8899 -0.4556 0.0214
vn 0.5245 -0.8514 0
vn 0.7805 -0.6252 0
vn 0 -0.001 -1
vn 0.1809 0.0997 -0.9784
vn 0.2154 0.0397 -0.9757
vn 0.1215 0.1841 -0.9754
vn 0.211 0.0177 -0.9773
vn 0.2178 -0.06 -0.9741
vn 0.06 0.2193 -0.9738
vn 0.1858 -0.1438 -0.972
vn -0.0198 0.1871 -0.9821
vn 0.145 -0.1845 -0.9721
vn -0.0798 0.2002 -0.9765
vn 0.0596 -0.2421 -0.9684
vn -0.1617 0.1441 -0.9763
vn -0.2038 0.1013 -0.9738
vn -0.2337 0.0204 -0.9721
vn -0.2323 -0.0204 -0.9724
vn -0.2366 -0.0402 -0.9708
vn -0.2023 -0.1012 -0.9741
vn -0.145 -0.1845 -0.9721
vn -0.0797 -0.223 -0.9716
vn 0 -0.2292 -0.9734
vn -0.6512 -0.1204 -0.7493
vn -0.6662 -0.0954 -0.7396
vn -0.5754 -0.3134 -0.7554
vn -0.4279 -0.5085 -0.7472
vn -0.2278 -0.6069 -0.7614
vn 0 -0.6725 -0.7401
vn 0.2286 -0.6373 -0.7359
vn 0.4004 -0.5334 -0.7451
vn 0.5558 -0.3744 -0.7422
vn 0.6351 -0.146 -0.7585
vn 0.6429 0.0952 -0.76
vn 0.6272 0.1201 -0.7695
vn 0.545 0.3117 -0.7784
vn 0.3961 0.5037 -0.7677
vn 0.1985 0.6015 -0.7738
vn -0.0238 0.6335 -0.7734
vn -0.2568 0.5877 -0.7673
vn -0.4231 0.4786 -0.7694
vn -0.5736 0.3133 -0.7568
vn -0.6429 0.0952 -0.76
o silencer__p0_c0
f 1/1/1 2/2/1 3/3/1
f 1/1/1 3/3/1 4/4/1
f 3/3/1 2/2/1 5/5/1
f 4/4/1 3/3/1 6/6/1
f 5/5/1 2/2/1 7/7/1
f 4/4/1 6/6/1 8/8/1
f 5/5/1 7/7/1 9/9/1
f 8/8/1 6/6/1 10/10/1
f 9/9/1 7/7/1 11/11/1
f 8/8/1 10/10/1 12/12/1
f 9/9/1 11/11/1 13/13/1
f 12/12/1 10/10/1 14/14/1
f 13/13/1 11/11/1 15/15/1
f 12/12/1 14/14/1 16/16/1
f 13/13/1 15/15/1 17/17/1
f 16/16/1 14/14/1 18/18/1
f 17/17/1 15/15/1 19/19/1
f 16/16/1 18/18/1 20/20/1
f 17/17/1 19/19/1 21/21/1
f 16/16/1 20/20/1 22/22/1
f 21/21/1 19/19/1 23/23/1
f 22/22/1 20/20/1 24/24/1
f 23/23/1 19/19/1 25/25/1
f 22/22/1 24/24/1 26/26/1
f 23/23/1 25/25/1 27/27/1
f 26/26/1 24/24/1 28/28/1
f 27/27/1 25/25/1 29/29/1
f 26/26/1 28/28/1 30/30/1
f 27/27/1 29/29/1 31/31/1
f 30/30/1 28/28/1 32/32/1
f 31/31/1 29/29/1 33/33/1
f 30/30/1 32/32/1 34/34/1
f 31/31/1 33/33/1 35/35/1
f 34/34/1 32/32/1 35/35/1
f 35/35/1 33/33/1 36/36/1
f 35/35/1 36/36/1 34/34/1
f 37/37/2 38/38/2 39/39/3
f 38/38/2 37/37/2 40/40/4
f 39/39/3 38/38/2 41/41/3
f 38/38/2 40/40/4 42/42/4
f 39/39/3 41/41/3 43/43/5
f 42/42/4 40/40/4 44/44/6
f 43/43/5 41/41/3 45/45/5
f 42/42/4 44/44/6 46/46/6
f 43/43/5 45/45/5 47/47/7
f 46/46/6 44/44/6 48/48/8
f 47/47/7 45/45/5 49/49/7
f 47/47/7 49/49/7 50/50/9
f 50/50/9 49/49/7 51/51/10
f 46/46/6 48/48/8 52/52/8
f 52/52/8 48/48/8 53/53/11
f 53/53/11 48/48/8 54/54/11
f 53/53/11 54/54/11 55/55/12
f 55/55/12 54/54/11 56/56/13
f 55/55/12 56/56/13 57/57/14
f 57/57/14 56/56/13 58/58/14
f 57/57/14 58/58/14 59/59/15
f 59/59/15 58/58/14 60/60/15
f 59/59/15 60/60/15 61/61/16
f 61/61/16 60/60/15 62/62/16
f 61/61/16 62/62/16 63/63/17
f 63/63/17 62/62/16 64/64/17
f 34/34/18 65/65/19 30/30/20
f 30/30/20 65/65/19 26/26/21
f 65/65/19 34/34/18 36/36/22
f 26/26/21 65/65/19 22/22/23
f 65/65/19 36/36/22 33/33/24
f 22/22/23 65/65/19 16/16/25
f 65/65/19 33/33/24 29/29/26
f 16/16/25 65/65/19 12/12/27
f 65/65/19 29/29/26 25/25/28
f 12/12/27 65/65/19 8/8/29
f 65/65/19 25/25/28 19/19/30
f 8/8/29 65/65/19 4/4/31
f 65/65/19 19/19/30 15/15/32
f 4/4/31 65/65/19 1/1/33
f 65/65/19 15/15/32 11/11/34
f 1/1/33 65/65/19 2/2/35
f 65/65/19 11/11/34 7/7/36
f 65/65/19 7/7/36 2/2/35
f 50/50/9 51/51/10 66/66/37
f 66/66/37 51/51/10 67/67/37
f 66/66/37 67/67/37 68/68/38
f 68/68/38 67/67/37 69/69/38
f 68/68/38 69/69/38 70/70/39
f 68/68/38 70/70/39 71/71/39
f 71/71/39 70/70/39 72/72/40
f 71/71/39 72/72/40 73/73/40
f 73/73/40 72/72/40 63/74/17
f 73/73/40 63/74/17 64/75/17
f 74/76/41 75/77/41 76/78/42
f 76/78/42 75/77/41 77/79/42
f 76/78/42 77/79/42 78/80/43
f 78/80/43 77/79/42 79/81/43
f 78/80/43 79/81/43 80/82/44
f 78/80/43 80/82/44 81/83/44
f 81/83/44 80/82/44 82/84/45
f 81/83/44 82/84/45 83/85/45
f 83/85/45 82/84/45 84/86/46
f 83/85/45 84/86/46 85/87/46
f 85/87/46 84/86/46 86/88/47
f 85/87/46 86/88/47 87/89/47
f 87/89/47 86/88/47 88/90/48
f 87/89/47 88/90/48 89/91/48
f 89/91/48 88/90/48 90/92/49
f 89/91/48 90/92/49 91/93/49
f 91/93/49 90/92/49 92/94/50
f 92/94/50 90/92/49 93/95/50
f 92/94/50 93/95/50 94/96/51
f 94/96/51 93/95/50 95/97/51
f 94/96/51 95/97/51 96/98/52
f 96/98/52 95/97/51 97/99/52
f 96/98/52 97/99/52 98/100/53
f 96/98/52 98/100/53 99/101/53
f 99/101/53 98/100/53 100/102/54
f 100/102/54 98/100/53 101/103/54
f 102/104/10 103/105/10 104/106/7
f 104/106/7 103/105/10 105/107/7
f 104/106/7 105/107/7 106/108/5
f 106/108/5 105/107/7 107/109/5
f 106/108/5 107/109/5 108/110/3
f 108/110/3 107/109/5 109/111/3
f 108/110/3 109/111/3 110/112/2
f 110/112/2 109/111/3 111/113/55
f 110/112/2 111/113/55 112/114/56
f 110/112/2 112/114/56 113/115/56
f 113/115/56 112/114/56 114/116/6
f 113/115/56 114/116/6 115/117/6
f 115/117/6 114/116/6 116/118/8
f 115/117/6 116/118/8 117/119/8
f 117/119/8 116/118/8 118/120/11
f 118/120/11 116/118/8 119/121/11
f 118/120/11 119/121/11 120/122/12
f 120/122/12 119/121/11 121/123/12
f 120/122/12 121/123/12 122/124/14
f 122/124/14 121/123/12 123/125/14
f 122/124/14 123/125/14 124/126/15
f 124/126/15 123/125/14 125/127/15
f 124/126/15 125/127/15 126/128/16
f 126/128/16 125/127/15 127/129/16
f 126/128/16 127/129/16 128/130/17
f 128/130/17 127/129/16 129/131/57
f 129/132/57 130/133/58 128/134/17
f 128/134/17 130/133/58 131/135/58
f 131/135/58 130/133/58 132/136/39
f 131/135/58 132/136/39 133/137/39
f 133/137/39 132/136/39 134/138/38
f 133/137/39 134/138/38 135/139/38
f 135/139/38 134/138/38 136/140/37
f 136/140/37 134/138/38 137/141/37
f 136/140/37 137/141/37 102/104/10
f 102/104/10 137/141/37 103/105/10
f 101/142/54 138/143/59 100/144/54
f 100/144/54 138/143/59 139/145/59
f 139/145/59 138/143/59 140/146/60
f 139/145/59 140/146/60 141/147/60
f 141/147/60 140/146/60 142/148/61
f 141/147/60 142/148/61 143/149/61
f 143/149/61 142/148/61 144/150/62
f 143/149/61 144/150/62 145/151/62
f 145/151/62 144/150/62 74/76/41
f 74/76/41 144/150/62 75/77/41
f 146/152/63 147/153/64 148/154/65
f 147/153/64 146/152/63 149/155/66
f 147/153/64 149/155/66 150/156/67
f 146/152/63 148/154/65 151/157/68
f 151/157/68 148/154/65 152/158/69
f 150/156/67 149/155/66 153/159/70
f 150/156/67 153/159/70 154/160/71
f 153/159/70 149/155/66 155/161/70
f 154/160/71 153/159/70 156/162/72
f 156/162/72 153/159/70 155/161/70
f 154/160/71 156/162/72 157/163/73
f 157/163/73 156/162/72 158/164/74
f 157/163/73 158/164/74 159/165/75
f 158/164/74 156/162/72 160/166/76
f 160/166/76 156/162/72 155/161/70
f 159/165/75 158/164/74 161/167/77
f 160/166/76 155/161/70 92/94/73
f 159/165/75 161/167/77 162/168/78
f 160/166/76 92/94/73 94/96/75
f 92/94/73 155/161/70 91/93/71
f 158/164/74 160/166/76 163/169/74
f 163/169/74 160/166/76 94/96/75
f 158/164/74 163/169/74 161/167/77
f 163/169/74 94/96/75 96/98/78
f 91/93/71 155/161/70 164/170/66
f 164/170/66 155/161/70 149/155/66
f 91/93/71 164/170/66 89/91/67
f 164/170/66 149/155/66 146/152/63
f 163/169/74 96/98/78 165/171/77
f 163/169/74 165/171/77 161/167/77
f 165/171/77 96/98/78 99/101/79
f 164/170/66 146/152/63 166/172/80
f 164/170/66 166/172/80 89/91/67
f 166/172/80 146/152/63 151/157/68
f 89/91/67 166/172/80 87/89/64
f 165/171/77 99/101/79 167/173/81
f 165/171/77 167/173/81 161/167/77
f 167/173/81 99/101/79 100/102/82
f 167/173/81 100/102/82 168/174/83
f 87/89/64 166/172/80 169/175/68
f 169/175/68 166/172/80 151/157/68
f 87/89/64 169/175/68 85/87/65
f 167/173/81 168/174/83 170/176/81
f 167/173/81 170/176/81 161/167/77
f 161/167/77 170/176/81 162/168/78
f 170/176/81 168/174/83 171/177/84
f 162/168/78 170/176/81 172/178/79
f 172/178/79 170/176/81 171/177/84
f 172/178/79 171/177/84 173/179/82
f 174/180/85 85/87/65 169/175/68
f 85/87/65 174/180/85 83/85/69
f 175/181/86 169/175/68 151/157/68
f 169/175/68 175/181/86 174/180/85
f 175/181/86 151/157/68 152/158/69
f 175/181/86 152/158/69 176/182/87
f 175/181/86 176/182/87 174/180/85
f 176/182/87 152/158/69 177/183/88
f 176/182/87 177/183/88 178/184/89
f 179/185/87 83/85/69 174/180/85
f 179/185/87 174/180/85 176/182/87
f 83/85/69 179/185/87 81/83/88
f 81/83/88 179/185/87 78/80/89
f 176/182/87 178/184/89 180/186/90
f 176/182/87 180/186/90 179/185/87
f 180/186/90 178/184/89 181/187/91
f 78/80/89 179/185/87 182/188/90
f 182/188/90 179/185/87 180/186/90
f 78/80/89 182/188/90 183/189/92
f 183/189/92 182/188/90 180/186/90
f 78/80/89 183/189/92 76/78/91
f 180/186/90 181/187/91 184/190/92
f 180/186/90 184/190/92 183/189/92
f 184/190/92 181/187/91 185/191/93
f 184/190/92 185/191/93 186/192/94
f 184/190/92 186/192/94 187/193/95
f 184/190/92 187/193/95 183/189/92
f 183/189/92 187/193/95 76/78/91
f 76/78/91 187/193/95 74/76/93
f 188/194/96 189/195/96 190/196/97
f 189/195/96 188/194/96 191/197/98
f 188/194/96 190/196/97 192/198/67
f 189/195/96 191/197/98 193/199/65
f 192/198/67 190/196/97 194/200/71
f 193/199/65 191/197/98 195/201/69
f 192/198/67 194/200/71 196/202/71
f 193/199/65 195/201/69 197/203/69
f 196/202/71 194/200/71 198/204/73
f 197/203/69 195/201/69 199/205/88
f 196/202/71 198/204/73 200/206/73
f 197/203/69 199/205/88 201/207/88
f 200/206/73 198/204/73 202/208/75
f 201/207/88 199/205/88 203/209/89
f 200/206/73 202/208/75 204/210/75
f 201/207/88 203/209/89 205/211/89
f 204/210/75 202/208/75 206/212/78
f 205/211/89 203/209/89 207/213/91
f 204/210/75 206/212/78 208/214/78
f 205/211/89 207/213/91 209/215/91
f 209/215/91 207/213/91 210/216/93
f 209/215/91 210/216/93 211/217/99
f 208/214/78 206/212/78 212/218/79
f 208/214/78 212/218/79 213/219/79
f 213/219/79 212/218/79 214/220/82
f 213/219/79 214/220/82 215/221/82
f 216/222/64 46/46/64 52/52/67
f 46/46/64 216/222/64 217/223/65
f 216/222/64 52/52/67 218/224/67
f 46/46/64 217/223/65 42/42/65
f 218/224/67 52/52/67 53/53/71
f 42/42/65 217/223/65 219/225/69
f 218/224/67 53/53/71 220/226/71
f 42/42/65 219/225/69 38/38/69
f 220/226/71 53/53/71 55/55/73
f 38/38/69 219/225/69 221/227/88
f 220/226/71 55/55/73 222/228/73
f 38/38/69 221/227/88 41/41/88
f 222/228/73 55/55/73 57/57/75
f 41/41/88 221/227/88 223/229/89
f 222/228/73 57/57/75 224/230/75
f 41/41/88 223/229/89 45/45/89
f 224/230/75 57/57/75 59/59/78
f 45/45/89 223/229/89 225/231/91
f 224/230/75 59/59/78 226/232/78
f 45/45/89 225/231/91 49/49/91
f 49/49/91 225/231/91 227/233/93
f 49/49/91 227/233/93 51/51/93
f 226/232/78 59/59/78 61/61/79
f 226/232/78 61/61/79 228/234/79
f 228/234/79 61/61/79 63/63/82
f 228/234/79 63/63/82 229/235/82
f 230/236/64 115/117/64 117/119/67
f 115/117/64 230/236/64 231/237/65
f 230/236/64 117/119/67 232/238/67
f 115/117/64 231/237/65 113/115/65
f 232/238/67 117/119/67 118/120/71
f 113/115/65 231/237/65 233/239/69
f 232/238/67 118/120/71 234/240/71
f 113/115/65 233/239/69 110/112/69
f 234/240/71 118/120/71 120/122/73
f 110/112/69 233/239/69 235/241/88
f 234/240/71 120/122/73 236/242/73
f 110/112/69 235/241/88 108/110/88
f 236/242/73 120/122/73 122/124/75
f 108/110/88 235/241/88 237/243/89
f 236/242/73 122/124/75 238/244/75
f 108/110/88 237/243/89 106/108/89
f 238/244/75 122/124/75 124/126/78
f 106/108/89 237/243/89 239/245/91
f 238/244/75 124/126/78 240/246/78
f 106/108/89 239/245/91 104/106/91
f 104/106/91 239/245/91 241/247/93
f 104/106/91 241/247/93 102/104/93
f 240/246/78 124/126/78 126/128/79
f 240/246/78 126/128/79 242/248/79
f 242/248/79 126/128/79 128/130/82
f 242/248/79 128/130/82 243/249/82
f 244/250/64 24/251/64 20/252/67
f 24/251/64 244/250/64 245/253/65
f 244/250/64 20/252/67 246/254/67
f 24/251/64 245/253/65 28/255/65
f 246/254/67 20/252/67 18/256/71
f 28/255/65 245/253/65 247/257/69
f 246/254/67 18/256/71 248/258/71
f 28/255/65 247/257/69 32/259/69
f 248/258/71 18/256/71 14/260/73
f 32/259/69 247/257/69 249/261/88
f 248/258/71 14/260/73 250/262/73
f 32/259/69 249/261/88 35/263/88
f 250/262/73 14/260/73 10/264/75
f 35/263/88 249/261/88 251/265/89
f 250/262/73 10/264/75 252/266/75
f 35/263/88 251/265/89 31/267/89
f 252/266/75 10/264/75 6/268/78
f 31/267/89 251/265/89 253/269/91
f 252/266/75 6/268/78 254/270/78
f 31/267/89 253/269/91 27/271/91
f 27/271/91 253/269/91 255/272/93
f 27/271/91 255/272/93 23/273/93
f 254/270/78 6/268/78 3/274/79
f 254/270/78 3/274/79 256/275/79
f 256/275/79 3/274/79 5/276/82
f 256/275/79 5/276/82 257/277/82
f 86/88/64 258/278/64 88/90/67
f 88/90/67 258/278/64 259/279/67
f 258/278/64 86/88/64 260/280/65
f 88/90/67 259/279/67 90/92/71
f 260/280/65 86/88/64 84/86/65
f 90/92/71 259/279/67 261/281/71
f 260/280/65 84/86/65 262/282/69
f 90/92/71 261/281/71 93/95/73
f 262/282/69 84/86/65 82/84/69
f 93/95/73 261/281/71 263/283/73
f 262/282/69 82/84/69 264/284/88
f 93/95/73 263/283/73 95/97/75
f 264/284/88 82/84/69 80/82/88
f 95/97/75 263/283/73 265/285/75
f 264/284/88 80/82/88 266/286/89
f 95/97/75 265/285/75 97/99/78
f 266/286/89 80/82/88 79/81/89
f 97/99/78 265/285/75 267/287/78
f 266/286/89 79/81/89 268/288/91
f 97/99/78 267/287/78 98/100/79
f 268/288/91 79/81/89 77/79/91
f 268/288/91 77/79/91 269/289/93
f 269/289/93 77/79/91 75/77/93
f 98/100/79 267/287/78 270/290/79
f 98/100/79 270/290/79 101/103/82
f 101/103/82 270/290/79 271/291/82
f 272/292/100 273/293/100 274/294/101
f 272/292/100 274/294/101 275/295/101
f 275/295/101 274/294/101 276/296/102
f 275/295/101 276/296/102 277/297/102
f 277/297/102 276/296/102 278/298/103
f 277/297/102 278/298/103 279/299/103
f 279/299/103 278/298/103 280/300/104
f 279/299/103 280/300/104 281/301/104
f 281/301/104 280/300/104 282/302/105
f 281/301/104 282/302/105 283/303/105
f 284/304/106 285/305/107 286/306/106
f 284/304/106 286/306/106 287/307/108
f 286/306/106 285/305/107 288/308/107
f 287/307/108 286/306/106 289/309/108
f 288/308/107 285/305/107 290/310/109
f 287/307/108 289/309/108 291/311/110
f 288/308/107 290/310/109 292/312/109
f 287/307/108 291/311/110 293/313/110
f 292/312/109 290/310/109 294/314/111
f 293/313/110 291/311/110 295/315/112
f 292/312/109 294/314/111 296/316/111
f 296/316/111 294/314/111 273/293/100
f 296/316/111 273/293/100 272/292/100
f 293/313/110 295/315/112 297/317/113
f 297/317/113 295/315/112 298/318/114
f 297/317/113 298/318/114 299/319/114
f 299/319/114 298/318/114 300/320/115
f 299/319/114 300/320/115 301/321/115
f 301/321/115 300/320/115 302/322/116
f 301/321/115 302/322/116 303/323/116
f 74/76/93 187/193/95 304/324/117
f 74/76/93 304/324/117 145/151/118
f 304/324/117 187/193/95 186/192/94
f 145/151/118 304/324/117 305/325/119
f 145/151/118 305/325/119 143/149/120
f 304/324/117 186/192/94 306/326/117
f 306/326/117 186/192/94 307/327/118
f 307/327/118 186/192/94 185/191/93
f 306/326/117 307/327/118 308/328/120
f 304/324/117 306/326/117 309/329/119
f 309/329/119 306/326/117 308/328/120
f 304/324/117 309/329/119 305/325/119
f 309/329/119 308/328/120 310/330/121
f 309/329/119 310/330/121 311/331/122
f 309/329/119 311/331/122 305/325/119
f 311/331/122 310/330/121 312/332/123
f 313/333/124 143/149/120 305/325/119
f 313/333/124 305/325/119 311/331/122
f 143/149/120 313/333/124 141/147/121
f 311/331/122 312/332/123 314/334/125
f 311/331/122 314/334/125 313/333/124
f 314/334/125 312/332/123 173/335/82
f 314/334/125 173/335/82 171/336/84
f 313/333/124 314/334/125 315/337/125
f 313/333/124 315/337/125 141/147/121
f 315/337/125 314/334/125 171/336/84
f 141/147/121 315/337/125 139/145/123
f 315/337/125 171/336/84 168/338/83
f 315/337/125 168/338/83 139/145/123
f 139/145/123 168/338/83 100/144/82
f 214/339/82 316/340/123 215/341/82
f 215/341/82 316/340/123 317/342/123
f 317/342/123 316/340/123 318/343/121
f 317/342/123 318/343/121 319/344/121
f 319/344/121 318/343/121 320/345/120
f 319/344/121 320/345/120 321/346/126
f 321/346/126 320/345/120 322/347/127
f 321/346/126 322/347/127 323/348/127
f 323/348/127 322/347/127 211/217/99
f 323/348/127 211/217/99 210/216/93
f 63/74/82 72/72/123 229/349/82
f 229/349/82 72/72/123 324/350/123
f 324/350/123 72/72/123 70/70/121
f 324/350/123 70/70/121 325/351/121
f 325/351/121 70/70/121 69/69/120
f 325/351/121 69/69/120 326/352/120
f 326/352/120 69/69/120 67/67/118
f 326/352/120 67/67/118 327/353/118
f 327/353/118 67/67/118 51/51/93
f 327/353/118 51/51/93 227/233/93
f 102/104/93 241/247/93 328/354/118
f 102/104/93 328/354/118 136/140/118
f 136/140/118 328/354/118 329/355/120
f 136/140/118 329/355/120 135/139/120
f 135/139/120 329/355/120 330/356/121
f 135/139/120 330/356/121 133/137/121
f 133/137/121 330/356/121 331/357/123
f 133/137/121 331/357/123 131/135/123
f 131/135/123 331/357/123 243/358/82
f 131/135/123 243/358/82 128/134/82
f 23/273/93 255/272/93 332/359/118
f 23/273/93 332/359/118 21/360/118
f 21/360/118 332/359/118 333/361/120
f 21/360/118 333/361/120 17/362/120
f 17/362/120 333/361/120 334/363/121
f 17/362/120 334/363/121 13/364/121
f 13/364/121 334/363/121 335/365/123
f 13/364/121 335/365/123 9/366/123
f 9/366/123 335/365/123 257/367/82
f 9/366/123 257/367/82 5/368/82
f 303/323/116 302/322/116 336/369/128
f 303/323/116 336/369/128 337/370/128
f 337/370/128 336/369/128 338/371/129
f 337/370/128 338/371/129 339/372/129
f 339/372/129 338/371/129 283/373/105
f 339/372/129 283/373/105 282/374/105
f 269/289/93 75/77/93 340/375/118
f 340/375/118 75/77/93 144/150/118
f 340/375/118 144/150/118 341/376/120
f 341/376/120 144/150/118 142/148/120
f 341/376/120 142/148/120 342/377/121
f 342/377/121 142/148/120 140/146/121
f 342/377/121 140/146/121 343/378/123
f 343/378/123 140/146/121 138/143/123
f 343/378/123 138/143/123 271/379/82
f 271/379/82 138/143/123 101/142/82
f 344/380/130 345/381/130 346/382/130
f 345/381/130 344/380/130 336/383/130
f 336/383/130 344/380/130 338/371/130
f 338/371/130 344/380/130 346/382/130
f 345/381/130 336/383/130 302/384/130
f 345/381/130 302/384/130 300/385/130
f 338/371/130 346/382/130 283/373/130
f 345/381/130 300/385/130 347/386/130
f 347/386/130 300/385/130 298/387/130
f 345/381/130 347/386/130 348/388/130
f 348/388/130 347/386/130 298/387/130
f 345/381/130 348/388/130 346/382/130
f 348/388/130 298/387/130 295/389/130
f 348/388/130 295/389/130 349/390/130
f 349/390/130 295/389/130 291/391/130
f 349/390/130 291/391/130 350/392/130
f 349/390/130 350/392/130 348/388/130
f 350/392/130 291/391/130 289/393/130
f 350/392/130 289/393/130 351/394/130
f 351/394/130 289/393/130 352/395/130
f 351/394/130 352/395/130 350/392/130
f 352/395/130 289/393/130 286/396/130
f 348/388/130 350/392/130 353/397/130
f 353/397/130 350/392/130 352/395/130
f 348/388/130 353/397/130 346/382/130
f 352/395/130 286/396/130 354/398/130
f 352/395/130 354/398/130 353/397/130
f 354/398/130 286/396/130 288/399/130
f 354/398/130 288/399/130 353/397/130
f 353/397/130 288/399/130 292/400/130
f 353/397/130 292/400/130 355/401/130
f 355/401/130 292/400/130 296/402/130
f 355/401/130 296/402/130 272/403/130
f 355/401/130 272/403/130 356/404/130
f 355/401/130 356/404/130 353/397/130
f 356/404/130 272/403/130 275/405/130
f 356/404/130 275/405/130 357/406/130
f 357/406/130 275/405/130 277/407/130
f 353/397/130 356/404/130 358/408/130
f 358/408/130 356/404/130 357/406/130
f 358/408/130 357/406/130 277/407/130
f 353/397/130 358/408/130 346/382/130
f 358/408/130 277/407/130 279/409/130
f 358/408/130 279/409/130 359/410/130
f 359/410/130 279/409/130 281/411/130
f 358/408/130 359/410/130 360/412/130
f 358/408/130 360/412/130 346/382/130
f 360/412/130 359/410/130 281/411/130
f 346/382/130 360/412/130 361/413/130
f 361/413/130 360/412/130 281/411/130
f 346/382/130 361/413/130 283/373/130
f 283/373/130 361/413/130 281/411/130
f 119/121/131 196/202/131 200/206/132
f 196/202/131 119/121/131 192/198/133
f 119/121/131 200/206/132 121/123/134
f 192/198/133 119/121/131 116/118/133
f 121/123/134 200/206/132 204/210/135
f 192/198/133 116/118/133 188/194/136
f 121/123/134 204/210/135 123/125/135
f 188/194/136 116/118/133 114/116/136
f 123/125/135 204/210/135 208/214/137
f 188/194/136 114/116/136 191/197/138
f 123/125/135 208/214/137 125/127/137
f 191/197/138 114/116/136 112/114/138
f 125/127/137 208/214/137 127/129/139
f 191/197/138 112/114/138 195/201/140
f 127/129/139 208/214/137 213/219/139
f 127/129/139 213/219/139 129/131/141
f 129/131/141 213/219/139 215/221/141
f 195/201/140 112/114/138 111/113/140
f 195/201/140 111/113/140 199/205/142
f 199/205/142 111/113/140 109/111/142
f 199/205/142 109/111/142 203/209/143
f 203/209/143 109/111/142 107/109/143
f 203/209/143 107/109/143 105/107/144
f 203/209/143 105/107/144 207/213/144
f 207/213/144 105/107/144 103/105/145
f 207/213/144 103/105/145 210/216/146
f 233/414/130 362/415/130 235/416/130
f 235/416/130 362/415/130 237/417/130
f 362/415/130 233/414/130 231/418/130
f 237/417/130 362/415/130 239/419/130
f 362/415/130 231/418/130 230/420/130
f 239/419/130 362/415/130 241/421/130
f 362/415/130 230/420/130 232/422/130
f 241/421/130 362/415/130 328/423/130
f 362/415/130 232/422/130 234/424/130
f 328/423/130 362/415/130 329/425/130
f 362/415/130 234/424/130 236/426/130
f 329/425/130 362/415/130 330/427/130
f 362/415/130 236/426/130 238/428/130
f 330/427/130 362/415/130 331/429/130
f 362/415/130 238/428/130 240/430/130
f 331/429/130 362/415/130 243/431/130
f 362/415/130 240/430/130 242/432/130
f 362/415/130 242/432/130 243/431/130
f 210/216/146 103/105/145 137/141/147
f 210/216/146 137/141/147 323/348/147
f 323/348/147 137/141/147 321/346/148
f 321/346/148 137/141/147 134/138/148
f 321/346/148 134/138/148 319/344/149
f 319/344/149 134/138/148 132/136/149
f 319/344/149 132/136/149 317/342/150
f 317/342/150 132/136/149 130/133/150
f 317/342/150 130/133/150 215/341/141
f 215/341/141 130/133/150 129/132/141
f 198/204/130 194/200/130 363/433/130
f 363/433/130 194/200/130 364/434/130
f 364/434/130 194/200/130 190/196/130
f 198/204/130 363/433/130 365/435/130
f 363/433/130 364/434/130 157/163/130
f 363/433/130 157/163/130 159/165/130
f 363/433/130 159/165/130 365/435/130
f 157/163/130 364/434/130 154/160/130
f 365/435/130 159/165/130 162/168/130
f 198/204/130 365/435/130 202/208/130
f 154/160/130 364/434/130 366/436/130
f 366/436/130 364/434/130 190/196/130
f 154/160/130 366/436/130 150/156/130
f 366/436/130 190/196/130 189/195/130
f 150/156/130 366/436/130 147/153/130
f 202/208/130 365/435/130 367/437/130
f 367/437/130 365/435/130 162/168/130
f 202/208/130 367/437/130 206/212/130
f 367/437/130 162/168/130 172/178/130
f 147/153/130 366/436/130 368/438/130
f 368/438/130 366/436/130 189/195/130
f 147/153/130 368/438/130 148/154/130
f 368/438/130 189/195/130 193/199/130
f 367/437/130 172/178/130 369/439/130
f 367/437/130 369/439/130 206/212/130
f 369/439/130 172/178/130 173/179/130
f 206/212/130 369/439/130 212/218/130
f 369/439/130 173/179/130 370/440/130
f 369/439/130 370/440/130 212/218/130
f 212/218/130 370/440/130 214/220/130
f 368/438/130 193/199/130 371/441/130
f 368/438/130 371/441/130 148/154/130
f 371/441/130 193/199/130 197/203/130
f 148/154/130 371/441/130 152/158/130
f 371/441/130 197/203/130 372/442/130
f 371/441/130 372/442/130 152/158/130
f 372/442/130 197/203/130 201/207/130
f 152/158/130 372/442/130 373/443/130
f 373/443/130 372/442/130 201/207/130
f 152/158/130 373/443/130 177/183/130
f 373/443/130 201/207/130 205/211/130
f 177/183/130 373/443/130 374/444/130
f 374/444/130 373/443/130 205/211/130
f 177/183/130 374/444/130 178/184/130
f 374/444/130 205/211/130 209/215/130
f 178/184/130 374/444/130 375/445/130
f 375/445/130 374/444/130 209/215/130
f 375/445/130 209/215/130 211/217/130
f 178/184/130 375/445/130 181/187/130
f 375/445/130 211/217/130 376/446/130
f 375/445/130 376/446/130 181/187/130
f 181/187/130 376/446/130 185/191/130
f 376/446/130 211/217/130 322/347/130
f 376/446/130 322/347/130 377/447/130
f 376/446/130 377/447/130 185/191/130
f 377/447/130 322/347/130 320/345/130
f 185/191/130 377/447/130 307/327/130
f 377/447/130 320/345/130 378/448/130
f 377/447/130 378/448/130 307/327/130
f 307/327/130 378/448/130 308/328/130
f 378/448/130 320/345/130 318/343/130
f 308/328/130 378/448/130 310/330/130
f 378/448/130 318/343/130 379/449/130
f 378/448/130 379/449/130 310/330/130
f 379/449/130 318/343/130 316/340/130
f 310/330/130 379/449/130 312/332/130
f 379/449/130 316/340/130 380/450/130
f 379/449/130 380/450/130 312/332/130
f 380/450/130 316/340/130 214/339/130
f 312/332/130 380/450/130 173/335/130
f 380/450/130 214/339/130 370/451/130
f 380/450/130 370/451/130 173/335/130
f 227/233/151 269/289/152 340/375/153
f 227/233/151 340/375/153 327/353/153
f 327/353/153 340/375/153 341/376/154
f 327/353/153 341/376/154 326/352/154
f 326/352/154 341/376/154 325/351/155
f 325/351/155 341/376/154 342/377/155
f 325/351/155 342/377/155 324/350/156
f 324/350/156 342/377/155 343/378/156
f 324/350/156 343/378/156 229/349/157
f 229/349/157 343/378/156 271/379/157
f 271/291/157 270/290/158 229/235/157
f 229/235/157 270/290/158 228/234/158
f 228/234/158 270/290/158 267/287/159
f 228/234/158 267/287/159 226/232/159
f 226/232/159 267/287/159 265/285/160
f 226/232/159 265/285/160 224/230/160
f 224/230/160 265/285/160 263/283/161
f 224/230/160 263/283/161 222/228/162
f 222/228/162 263/283/161 261/281/163
f 222/228/162 261/281/163 220/226/163
f 220/226/163 261/281/163 259/279/164
f 220/226/163 259/279/164 218/224/164
f 218/224/164 259/279/164 216/222/165
f 216/222/165 259/279/164 258/278/165
f 216/222/165 258/278/165 217/223/166
f 217/223/166 258/278/165 260/280/166
f 217/223/166 260/280/166 219/225/167
f 219/225/167 260/280/166 262/282/167
f 219/225/167 262/282/167 264/284/168
f 219/225/167 264/284/168 221/227/168
f 221/227/168 264/284/168 266/286/169
f 221/227/168 266/286/169 223/229/169
f 223/229/169 266/286/169 268/288/170
f 223/229/169 268/288/170 225/231/170
f 225/231/170 268/288/170 269/289/152
f 225/231/170 269/289/152 227/233/151
f 54/54/131 248/258/131 250/262/132
f 248/258/131 54/54/131 246/254/133
f 54/54/131 250/262/132 56/56/134
f 246/254/133 54/54/131 48/48/133
f 56/56/134 250/262/132 252/266/135
f 246/254/133 48/48/133 244/250/136
f 56/56/134 252/266/135 58/58/135
f 244/250/136 48/48/133 44/44/136
f 58/58/135 252/266/135 254/270/137
f 244/250/136 44/44/136 245/253/138
f 58/58/135 254/270/137 60/60/137
f 245/253/138 44/44/136 40/40/138
f 60/60/137 254/270/137 62/62/139
f 245/253/138 40/40/138 247/257/140
f 62/62/139 254/270/137 256/275/139
f 62/62/139 256/275/139 64/64/141
f 64/64/141 256/275/139 257/277/141
f 247/257/140 40/40/138 37/37/140
f 247/257/140 37/37/140 249/261/142
f 249/261/142 37/37/140 39/39/142
f 249/261/142 39/39/142 251/265/143
f 251/265/143 39/39/142 43/43/143
f 251/265/143 43/43/143 47/47/144
f 251/265/143 47/47/144 253/269/144
f 253/269/144 47/47/144 50/50/145
f 253/269/144 50/50/145 255/272/146
f 255/272/146 50/50/145 66/66/147
f 255/272/146 66/66/147 332/359/147
f 332/359/147 66/66/147 333/361/148
f 333/361/148 66/66/147 68/68/148
f 333/361/148 68/68/148 334/363/149
f 334/363/149 68/68/148 71/71/149
f 334/363/149 71/71/149 335/365/150
f 335/365/150 71/71/149 73/73/150
f 335/365/150 73/73/150 257/367/141
f 257/367/141 73/73/150 64/75/141
