# CS2 body mesh, tools/cs2_glb_to_obj.py
v 0.0072 0.15477 -0.48729
v -0.00833 0.15477 -0.48729
v 0.0072 0.15544 -0.48732
v -0.00833 0.15308 -0.48554
v 0.0072 0.15308 -0.48554
v -0.00833 0.15544 -0.48732
v 0.0072 0.15581 -0.48676
v -0.00842 0.15475 -0.48701
v -0.00846 0.15337 -0.48539
v -0.0085 0.15424 -0.48495
v -0.00846 0.15529 -0.48702
v -0.00833 0.15581 -0.48676
v 0.0072 0.15539 -0.48437
v -0.00833 0.15539 -0.48437
v -0.00842 0.1556 -0.48658
v -0.00846 0.1551 -0.48451
v 0.0072 0.15191 -0.48814
v -0.00833 0.15191 -0.48814
v 0.0072 0.15256 -0.48829
v -0.00833 0.15055 -0.48613
v 0.0072 0.15055 -0.48613
v -0.00833 0.15256 -0.48829
v 0.0072 0.15302 -0.4878
v -0.00842 0.15193 -0.48786
v -0.00846 0.15086 -0.48603
v -0.0085 0.15179 -0.48575
v -0.00846 0.15246 -0.48797
v -0.00833 0.15302 -0.4878
v 0.0072 0.15303 -0.48537
v -0.00833 0.15303 -0.48537
v -0.00842 0.15285 -0.48758
v -0.00846 0.15272 -0.48547
v 0.0072 0.15734 -0.48545
v -0.00833 0.15734 -0.48545
v 0.0072 0.158 -0.48531
v -0.00833 0.15527 -0.4842
v 0.0072 0.15527 -0.4842
v -0.00833 0.158 -0.48531
v 0.0072 0.15821 -0.48467
v -0.00842 0.15725 -0.48519
v -0.00846 0.15551 -0.48399
v -0.0085 0.15623 -0.48334
v -0.00846 0.15778 -0.48506
v -0.00833 0.15821 -0.48467
v 0.0072 0.15719 -0.48247
v -0.00833 0.15719 -0.48247
v -0.00842 0.15796 -0.48455
v -0.00846 0.15695 -0.48269
v 0.0072 0.14917 -0.4887
v -0.00833 0.14917 -0.4887
v 0.0072 0.14981 -0.48891
v -0.00833 0.148 -0.48658
v 0.0072 0.148 -0.48658
v -0.00833 0.14981 -0.48891
v 0.0072 0.15032 -0.48846
v -0.00842 0.14922 -0.48843
v -0.00846 0.14831 -0.48651
v -0.0085 0.14926 -0.48631
v -0.00846 0.14974 -0.48858
v -0.00833 0.15032 -0.48846
v 0.0072 0.15053 -0.48605
v -0.00833 0.15053 -0.48605
v -0.00842 0.15016 -0.48823
v -0.00846 0.15021 -0.48611
v 0.0084 0.15565 -0.48613
v 0.0084 0.1485 -0.48779
v -0.00932 0.15565 -0.48613
v -0.00932 0.1485 -0.48779
v 0.0084 0.13691 -0.48538
v -0.00932 0.13691 -0.48538
v -0.00932 0.12003 -0.48156
v 0.0084 0.12003 -0.48156
v -0.00932 0.0969 -0.47595
v 0.0084 0.0969 -0.47595
v 0.0072 0.15926 -0.48244
v -0.00833 0.15926 -0.48244
v 0.0072 0.1598 -0.48203
v -0.00833 0.15685 -0.48219
v 0.0072 0.15685 -0.48219
v -0.00833 0.1598 -0.48203
v 0.0072 0.15972 -0.48137
v -0.00842 0.15907 -0.48224
v -0.00846 0.15698 -0.48189
v -0.0085 0.15736 -0.48099
v -0.00846 0.15949 -0.4819
v -0.00833 0.15972 -0.48137
v 0.0072 0.15786 -0.4798
v -0.00833 0.15786 -0.4798
v -0.00842 0.15944 -0.48136
v -0.00846 0.15774 -0.4801
v 0.0072 0.14223 -0.48775
v -0.00833 0.14223 -0.48775
v 0.0072 0.14272 -0.48821
v -0.00833 0.14206 -0.48533
v 0.0072 0.14206 -0.48533
v -0.00833 0.14272 -0.48821
v 0.0072 0.14337 -0.48802
v -0.00842 0.14239 -0.48753
v -0.00846 0.14238 -0.48541
v -0.0085 0.14332 -0.48563
v -0.00846 0.1428 -0.48789
v -0.00833 0.14337 -0.48802
v 0.0072 0.14458 -0.48592
v -0.00833 0.14458 -0.48592
v -0.00842 0.14332 -0.48774
v -0.00846 0.14427 -0.48585
v 0.0072 0.14521 -0.48824
v -0.00833 0.14521 -0.48824
v 0.0072 0.14571 -0.48869
v -0.00833 0.14504 -0.48582
v 0.0072 0.14504 -0.48582
v -0.00833 0.14571 -0.48869
v 0.0072 0.14635 -0.4885
v -0.00842 0.14537 -0.48801
v -0.00846 0.14536 -0.48589
v -0.0085 0.1463 -0.48611
v -0.00846 0.14578 -0.48837
v -0.00833 0.14635 -0.4885
v 0.0072 0.14757 -0.4864
v -0.00833 0.14757 -0.4864
v -0.00842 0.1463 -0.48823
v -0.00846 0.14725 -0.48633
v 0.0072 0.13952 -0.48687
v -0.00833 0.13952 -0.48687
v 0.0072 0.14002 -0.48732
v -0.00833 0.13935 -0.48445
v 0.0072 0.13935 -0.48445
v -0.00833 0.14002 -0.48732
v 0.0072 0.14066 -0.48713
v -0.00842 0.13968 -0.48664
v -0.00846 0.13967 -0.48452
v -0.0085 0.14061 -0.48474
v -0.00846 0.14009 -0.487
v -0.00833 0.14066 -0.48713
v 0.0072 0.14188 -0.48503
v -0.00833 0.14188 -0.48503
v -0.00842 0.14062 -0.48686
v -0.00846 0.14156 -0.48496
v -0.00989 0.13703 -0.48516
v -0.00989 0.12009 -0.48129
v -0.00987 0.09986 -0.4764
v 0.00896 0.13703 -0.48516
v 0.00896 0.12009 -0.48129
v -0.00932 0.15836 -0.48282
v 0.0084 0.15836 -0.48282
v -0.00932 0.15935 -0.47866
v 0.0084 0.15935 -0.47866
v -0.00932 0.15846 -0.47461
v 0.0084 0.15846 -0.47461
v -0.00484 0.14579 -0.468
v -0.00484 0.14814 -0.45187
v 0.0039 0.14579 -0.468
v 0.0039 0.14814 -0.45187
v 0.00364 0.14788 -0.45103
v -0.00458 0.14788 -0.45103
v -0.00842 0.15988 -0.47868
v -0.00833 0.16014 -0.47877
v -0.00833 0.15785 -0.47956
v -0.00846 0.16012 -0.47819
v -0.00833 0.16045 -0.47818
v 0.0072 0.16045 -0.47818
v -0.00833 0.1601 -0.47761
v 0.0072 0.1601 -0.47761
v 0.0072 0.15776 -0.47697
v -0.00833 0.15776 -0.47697
v 0.0072 0.16014 -0.47877
v 0.0072 0.15785 -0.47956
v 0.0073 0.14062 -0.48686
v -0.00691 0.14643 -0.45222
v -0.00685 0.14442 -0.46774
v -0.00852 0.14433 -0.45264
v -0.00852 0.14196 -0.46712
v -0.0068 0.14587 -0.4512
v -0.00846 0.1439 -0.45173
v 0.00597 0.14643 -0.45222
v 0.00597 0.14408 -0.4676
v 0.00758 0.14433 -0.45264
v 0.00758 0.14196 -0.46712
v 0.00586 0.14587 -0.4512
v 0.00752 0.1439 -0.45173
v -0.00932 0.09389 -0.47183
v 0.0084 0.09389 -0.47183
v 0.0073 0.15725 -0.48519
v 0.0073 0.15475 -0.48701
v 0.00733 0.15337 -0.48539
v 0.00738 0.15424 -0.48495
v 0.00733 0.15529 -0.48702
v 0.0073 0.1556 -0.48658
v 0.00733 0.1551 -0.48451
v 0.00733 0.15246 -0.48797
v 0.0073 0.15193 -0.48786
v 0.00733 0.15086 -0.48603
v 0.00738 0.15179 -0.48575
v 0.0073 0.15285 -0.48758
v 0.00733 0.15272 -0.48547
v 0.00733 0.14974 -0.48858
v 0.0073 0.14922 -0.48843
v 0.00733 0.14831 -0.48651
v 0.00738 0.14926 -0.48631
v 0.0073 0.15016 -0.48823
v 0.00733 0.15021 -0.48611
v 0.00733 0.15778 -0.48506
v 0.00733 0.15551 -0.48399
v 0.00738 0.15623 -0.48334
v 0.0073 0.15796 -0.48455
v 0.00733 0.15695 -0.48269
v 0.00733 0.15949 -0.4819
v 0.0073 0.15907 -0.48224
v 0.00733 0.15698 -0.48189
v 0.00738 0.15736 -0.48099
v 0.0073 0.15944 -0.48136
v 0.00733 0.15774 -0.4801
v 0.00733 0.14578 -0.48837
v 0.0073 0.14537 -0.48801
v 0.00733 0.14536 -0.48589
v 0.00738 0.1463 -0.48611
v 0.0073 0.1463 -0.48823
v 0.00733 0.14725 -0.48633
v 0.0073 0.14239 -0.48753
v 0.00733 0.14238 -0.48541
v 0.00738 0.14332 -0.48563
v 0.00733 0.1428 -0.48789
v 0.0073 0.14332 -0.48774
v 0.00733 0.14427 -0.48585
v 0.00733 0.14009 -0.487
v 0.0073 0.13968 -0.48664
v 0.00738 0.14061 -0.48474
v 0.00733 0.13967 -0.48452
v 0.00733 0.14156 -0.48496
v 0.0073 0.15988 -0.47868
v 0.00733 0.15784 -0.47924
v 0.00738 0.1578 -0.47827
v 0.00733 0.16012 -0.47819
v 0.0073 0.15985 -0.47772
v 0.00733 0.15777 -0.4773
v -0.0085 0.1578 -0.47827
v -0.00842 0.15985 -0.47772
v -0.00846 0.15784 -0.47924
v -0.00846 0.15777 -0.4773
v -0.00988 0.12934 -0.45496
v -0.00994 0.12919 -0.45568
v -0.00978 0.13737 -0.46603
v -0.00994 0.12701 -0.46461
v -0.00989 0.10079 -0.46133
v -0.00994 0.1246 -0.46776
v -0.00989 0.10011 -0.46387
v -0.00932 0.0962 -0.46225
v -0.00932 0.09577 -0.46378
v -0.00989 0.09955 -0.46532
v -0.00932 0.0955 -0.46494
v -0.00994 0.14351 -0.47132
v -0.00983 0.14669 -0.46846
v -0.00932 0.15381 -0.47017
v -0.00994 0.14113 -0.47453
v -0.00994 0.12295 -0.47067
v -0.00994 0.13937 -0.4785
v -0.00989 0.09917 -0.4664
v -0.00932 0.09532 -0.46572
v -0.00994 0.12163 -0.47451
v -0.00989 0.09845 -0.46923
v -0.00932 0.0947 -0.46837
v -0.00989 0.09765 -0.4727
v -0.00994 0.12082 -0.47807
v -0.00994 0.13832 -0.48211
v 0.0072 0.1591 -0.47466
v -0.00833 0.1591 -0.47466
v 0.0072 0.15913 -0.47399
v -0.00833 0.15736 -0.47634
v 0.0072 0.15736 -0.47634
v -0.00833 0.15913 -0.47399
v 0.0072 0.15857 -0.47362
v -0.00842 0.15882 -0.47468
v -0.00846 0.15721 -0.47605
v -0.0085 0.15677 -0.47519
v -0.00846 0.15884 -0.47414
v -0.00833 0.15857 -0.47362
v 0.0072 0.15618 -0.47403
v -0.00833 0.15618 -0.47403
v -0.00842 0.15839 -0.47383
v -0.00846 0.15633 -0.47432
v 0.00884 0.13737 -0.46603
v 0.00895 0.12934 -0.45496
v 0.009 0.12919 -0.45568
v 0.0084 0.0962 -0.46225
v 0.009 0.12701 -0.46461
v 0.0084 0.09577 -0.46378
v 0.009 0.1246 -0.46776
v 0.0084 0.0955 -0.46494
v 0.009 0.14351 -0.47132
v 0.00888 0.14665 -0.46845
v 0.0084 0.15381 -0.47017
v 0.009 0.14113 -0.47453
v 0.009 0.12295 -0.47067
v 0.0084 0.09532 -0.46572
v 0.009 0.13937 -0.4785
v 0.009 0.12163 -0.47451
v 0.0084 0.0947 -0.46837
v 0.009 0.13832 -0.48211
v 0.009 0.12082 -0.47807
v 0.0073 0.15882 -0.47468
v 0.00733 0.15884 -0.47414
v 0.00733 0.15721 -0.47605
v 0.00738 0.15677 -0.47519
v 0.0073 0.15839 -0.47383
v 0.00733 0.15633 -0.47432
v 0.0078 0.14472 -0.46783
v -0.00882 0.14499 -0.4679
v -0.00047 0.14739 -0.46844
vt 0.936033 0.346416
vt 0.926267 0.352031
vt 0.944823 0.352214
vt 0.926756 0.352031
vt 0.945311 0.354228
vt 0.925779 0.354228
vt 0.944823 0.352031
vt 0.926267 0.351787
vt 0.945799 0.353496
vt 0.946776 0.352031
vt 0.926267 0.34959
vt 0.945311 0.349834
vt 0.945799 0.350566
vt 0.926756 0.347148
vt 0.944823 0.347392
vt 0.945311 0.34959
vt 0.926267 0.349345
vt 0.926756 0.346904
vt 0.946287 0.348552
vt 0.946776 0.347392
vt 0.944823 0.347148
vt 0.926267 0.34489
vt 0.945311 0.34489
vt 0.946287 0.345927
vt 0.926267 0.356609
vt 0.944823 0.356853
vt 0.945311 0.359111
vt 0.925779 0.358867
vt 0.944823 0.356609
vt 0.926267 0.356365
vt 0.945799 0.358135
vt 0.946776 0.356609
vt 0.926267 0.354472
vt 0.945311 0.354472
vt 0.945799 0.355449
vt 0.946776 0.378643
vt 0.947264 0.36784
vt 0.921384 0.377911
vt 0.921384 0.367168
vt 0.948241 0.350322
vt 0.921873 0.34959
vt 0.922361 0.323222
vt 0.949217 0.324198
vt 0.923826 0.286843
vt 0.950682 0.28782
vt 0.926756 0.342509
vt 0.945311 0.342753
vt 0.926756 0.342265
vt 0.945799 0.344646
vt 0.926267 0.344401
vt 0.945311 0.342509
vt 0.946287 0.343974
vt 0.947264 0.342509
vt 0.926267 0.340068
vt 0.945799 0.340312
vt 0.945311 0.342265
vt 0.946287 0.340983
vt 0.936033 0.360027
vt 0.926267 0.361553
vt 0.944823 0.361797
vt 0.945311 0.363933
vt 0.925779 0.36375
vt 0.944823 0.361553
vt 0.926267 0.361309
vt 0.945799 0.363018
vt 0.946287 0.361553
vt 0.925779 0.359355
vt 0.945311 0.359355
vt 0.945799 0.360271
vt 0.926267 0.366192
vt 0.944823 0.366436
vt 0.945311 0.368572
vt 0.925779 0.368328
vt 0.945799 0.367656
vt 0.946776 0.366436
vt 0.944823 0.366192
vt 0.925779 0.363933
vt 0.945311 0.364177
vt 0.945799 0.364971
vt 0.634266 0.206397
vt 0.63329 0.206397
vt 0.63329 0.221778
vt 0.63329 0.183874
vt 0.634266 0.183874
vt 0.633778 0.156896
vt 0.634266 0.152989
vt 0.651357 0.204016
vt 0.651357 0.219275
vt 0.651845 0.204016
vt 0.651357 0.181616
vt 0.652333 0.181616
vt 0.652333 0.15067
vt 0.921873 0.383953
vt 0.946287 0.384503
vt 0.921873 0.389874
vt 0.945799 0.390362
vt 0.922361 0.395428
vt 0.945311 0.395917
vt 0.92822 0.414533
vt 0.928709 0.431379
vt 0.938475 0.414533
vt 0.937498 0.431379
vt 0.93701 0.431867
vt 0.929197 0.431867
vt 0.945311 0.33787
vt 0.945311 0.337626
vt 0.945799 0.339824
vt 0.927244 0.337321
vt 0.945799 0.337626
vt 0.926756 0.335185
vt 0.946287 0.335429
vt 0.927244 0.337626
vt 0.926756 0.339579
vt 0.926267 0.365947
vt 0.926756 0.431867
vt 0.925291 0.415754
vt 0.924314 0.432356
vt 0.921873 0.41673
vt 0.926756 0.432844
vt 0.924802 0.434065
vt 0.939451 0.431867
vt 0.941404 0.415998
vt 0.941893 0.432112
vt 0.943846 0.416974
vt 0.939451 0.432844
vt 0.941404 0.434065
vt 0.923826 0.278726
vt 0.95117 0.280007
vt 0.926756 0.347392
vt 0.925291 0.353252
vt 0.924802 0.351787
vt 0.925291 0.350566
vt 0.925291 0.358135
vt 0.924802 0.356609
vt 0.925291 0.355205
vt 0.925291 0.348552
vt 0.924802 0.347148
vt 0.925291 0.345683
vt 0.925779 0.34373
vt 0.925291 0.342265
vt 0.925779 0.340983
vt 0.925291 0.363018
vt 0.924802 0.361553
vt 0.925291 0.360027
vt 0.926267 0.366436
vt 0.924802 0.366192
vt 0.925291 0.367656
vt 0.925291 0.364666
vt 0.925779 0.338847
vt 0.925291 0.337321
vt 0.925779 0.336161
vt 0.947264 0.337626
vt 0.945311 0.337321
vt 0.946776 0.339091
vt 0.946776 0.336161
vt 0.588366 0.204443
vt 0.589343 0.205298
vt 0.597644 0.187353
vt 0.598132 0.187353
vt 0.608875 0.201147
vt 0.607898 0.207312
vt 0.61034 0.187597
vt 0.614734 0.153478
vt 0.614734 0.185522
vt 0.618152 0.153356
vt 0.617176 0.147923
vt 0.619129 0.147801
vt 0.620106 0.153111
vt 0.620594 0.147923
vt 0.613758 0.210547
vt 0.609363 0.213721
vt 0.609363 0.223182
vt 0.613758 0.230445
vt 0.618641 0.208472
vt 0.618641 0.232704
vt 0.6245 0.232704
vt 0.619129 0.18424
vt 0.6245 0.207312
vt 0.629383 0.230323
vt 0.62157 0.152867
vt 0.62157 0.147801
vt 0.6245 0.183813
vt 0.624989 0.152867
vt 0.625477 0.147923
vt 0.629871 0.147923
vt 0.629871 0.152867
vt 0.629383 0.183813
vt 0.629383 0.207129
vt 0.927244 0.332499
vt 0.945799 0.333171
vt 0.926756 0.334452
vt 0.945799 0.332926
vt 0.927244 0.332255
vt 0.946776 0.334697
vt 0.947264 0.333171
vt 0.927244 0.330058
vt 0.946287 0.331034
vt 0.947264 0.331767
vt 0.677236 0.205603
vt 0.695791 0.20365
vt 0.676748 0.199438
vt 0.696768 0.202979
vt 0.687979 0.185766
vt 0.687002 0.185766
vt 0.668935 0.146092
vt 0.675283 0.185766
vt 0.666982 0.146092
vt 0.6704 0.183569
vt 0.665517 0.146092
vt 0.671377 0.208594
vt 0.675771 0.211829
vt 0.675283 0.221351
vt 0.670888 0.228492
vt 0.666494 0.206397
vt 0.666005 0.230689
vt 0.660634 0.230567
vt 0.666494 0.182287
vt 0.664541 0.14597
vt 0.661122 0.205298
vt 0.655751 0.228004
vt 0.661122 0.181738
vt 0.661122 0.145848
vt 0.65624 0.145848
vt 0.65624 0.204932
vt 0.65624 0.181616
vt 0.925779 0.33372
vt 0.925779 0.332255
vt 0.926267 0.33079
vt 0.944823 0.404035
vt 0.922849 0.403729
vt 0.951659 0.274331
vt 0.924314 0.273171
vt 0.951659 0.27018
vt 0.924314 0.269021
vt 0.951659 0.269021
vt 0.924314 0.267556
vt 0.952147 0.267006
vt 0.924314 0.265603
vt 0.924314 0.2631
vt 0.952147 0.264626
vt 0.677236 0.209265
vt 0.607898 0.211341
vt 0.921873 0.412336
vt 0.923338 0.414533
vt 0.933103 0.412336
vt 0.944823 0.413068
vt 0.942869 0.41496
vt 0.923338 0.450362
vt 0.942869 0.450117
vt 0.924314 0.486068
vt 0.942869 0.485519
vn 0.4967 -0.3661 -0.787
vn -0.5204 -0.3389 -0.7838
vn 0.4985 0.3662 -0.7857
vn -0.4918 -0.6282 -0.6029
vn 0.4628 -0.6523 -0.6003
vn -0.5222 0.339 -0.7825
vn 0.4866 0.852 -0.1932
vn -0.9663 -0.149 -0.2098
vn -0.9616 -0.2147 -0.1712
vn -0.9993 -0.0154 -0.0328
vn -0.9765 0.0798 -0.2002
vn -0.5148 0.8349 -0.1948
vn 0.4709 0.8709 0.1406
vn -0.4985 0.8552 0.1418
vn -0.9663 0.2565 -0.0207
vn -0.9644 0.2612 0.0409
vn 0.4875 -0.5158 -0.7045
vn -0.5142 -0.4892 -0.7045
vn 0.5024 0.252 -0.8271
vn -0.4845 -0.7284 -0.4845
vn 0.4547 -0.7496 -0.481
vn -0.5236 0.2257 -0.8215
vn 0.4929 0.8024 -0.3366
vn -0.9671 -0.1698 -0.1893
vn -0.9662 -0.2111 -0.1477
vn -0.9757 0.0397 -0.2154
vn -0.5222 0.7825 -0.339
vn 0.473 0.8811 0.0013
vn -0.4983 0.867 -0.0013
vn -0.9683 0.2424 -0.0609
vn -0.9678 0.2518 -0.0012
vn 0.4978 -0.145 -0.8551
vn -0.519 -0.1174 -0.8467
vn 0.4928 0.5736 -0.6543
vn -0.5109 -0.4595 -0.7265
vn 0.4847 -0.4863 -0.727
vn -0.5205 0.5475 -0.6553
vn 0.4818 0.876 0.0229
vn -0.966 -0.0822 -0.2453
vn -0.9647 -0.128 -0.2302
vn -0.9995 -0.001 -0.0323
vn -0.9754 0.1215 -0.1841
vn -0.5075 0.8613 0.0231
vn 0.4689 0.805 0.3633
vn -0.4985 0.7857 0.3662
vn -0.9623 0.2512 0.1043
vn 0.491 -0.5734 -0.6558
vn -0.5187 -0.5473 -0.6568
vn 0.4866 0.1932 -0.852
vn -0.5021 -0.7679 -0.3978
vn 0.4725 -0.788 -0.3948
vn -0.5068 0.1679 -0.8456
vn 0.5083 0.7484 -0.426
vn -0.9671 -0.1906 -0.1685
vn -0.9646 -0.2314 -0.1267
vn -0.9721 0.0204 -0.2337
vn -0.5376 0.7262 -0.4284
vn 0.4817 0.8715 -0.0918
vn -0.5085 0.8561 -0.0926
vn -0.9684 0.2272 -0.1028
vn -0.9704 0.238 -0.0403
vn 0.0012 0.205 -0.9788
vn 0 -0.001 -1
vn -0.0161 -0.0151 -0.9998
vn 0.1986 -0.2435 -0.9494
vn -0.2169 -0.1969 -0.9561
vn -0.2205 -0.2218 -0.9498
vn 0.2016 -0.2693 -0.9417
vn -0.0596 -0.2421 -0.9684
vn 0 -0.2515 -0.9679
vn -0.5102 -0.0926 -0.8551
vn 0.4895 -0.1195 -0.8638
vn 0.4985 0.7857 0.3662
vn -0.9599 0.0209 -0.2797
vn -0.9643 -0.0383 -0.2621
vn -0.9999 -0.001 -0.0159
vn -0.9784 0.1809 -0.0997
vn -0.5279 0.7651 0.3687
vn 0.4646 0.5988 0.6524
vn -0.4928 0.5736 0.6543
vn -0.9665 0.2109 0.1462
vn -0.9623 0.1909 0.1935
vn 0.497 -0.7859 -0.3679
vn -0.5264 -0.7653 -0.3704
vn 0.4934 -0.2238 -0.8405
vn -0.4918 -0.8696 -0.044
vn 0.4625 -0.8856 -0.0435
vn -0.5166 -0.1948 -0.8338
vn 0.489 0.5124 -0.706
vn -0.9622 -0.2657 -0.0604
vn -0.9617 -0.2742 0
vn -0.979 -0.0591 -0.1953
vn -0.5157 0.4856 -0.7059
vn 0.4831 0.747 -0.4568
vn -0.5127 0.7251 -0.4596
vn -0.9674 0.1671 -0.1904
vn -0.9665 0.2109 -0.1462
vn -0.4006 -0.1872 -0.8969
vn -0.4363 -0.2196 -0.8726
vn 0.3858 -0.2419 -0.8903
vn 0.4143 -0.2447 -0.8766
vn 0.0014 0.7601 -0.6498
vn 0.0013 0.8942 -0.4477
vn 0.001 0.9999 -0.0169
vn 0.0012 0.9782 0.2077
vn 0.0011 0.9862 -0.1657
vn 0.001 0.9987 0.0503
vn 0.0012 0.9546 0.2978
vn -0.9648 0.1253 -0.2312
vn -0.5024 0.252 -0.8271
vn -0.9788 0.205 -0.0012
vn -0.5205 0.5475 0.6553
vn 0.4928 0.5736 0.6543
vn 0.4728 0.2463 0.8461
vn -0.4942 0.2205 0.8409
vn 0.4804 0.2783 -0.8317
vn 0.9623 0.1909 -0.1935
vn -0.6272 0.7695 -0.1201
vn -0.7254 0.6777 0.1206
vn -0.7254 0.6777 -0.1206
vn -0.9227 0.3753 0.0881
vn -0.9325 0.3586 -0.043
vn -0.7201 0.5856 0.3723
vn -0.7825 0.5222 0.339
vn -0.6454 0.6487 0.4032
vn 0.6272 0.7695 -0.1201
vn 0.7019 0.7019 0.1207
vn 0.7019 0.7019 -0.1207
vn 0.9115 0.4016 0.0891
vn 0.8859 0.4549 -0.091
vn 0.6958 0.6136 0.3734
vn 0.7614 0.5513 0.3411
vn 0.6184 0.6748 0.4029
vn 0 -0.8184 -0.5746
vn 0.9622 -0.1071 -0.2502
vn 0.9616 -0.1726 -0.2134
vn 0.9552 -0.2395 -0.1739
vn 0.9995 -0.001 -0.0323
vn 0.9738 0.1013 -0.2038
vn 0.9599 0.2797 -0.0209
vn 0.9577 0.2849 0.0414
vn 0.9738 0.06 -0.2193
vn 0.962 -0.1937 -0.1924
vn 0.9602 -0.2355 -0.15
vn 0.962 0.266 -0.0618
vn 0.9616 0.2746 0.0012
vn 0.9704 0.0403 -0.238
vn 0.9616 -0.2147 -0.1712
vn 0.9581 -0.2559 -0.1286
vn 0.9623 0.2512 -0.1043
vn 0.9644 0.2612 -0.0409
vn 0.9717 0.1439 -0.1872
vn 0.9604 -0.1513 -0.2342
vn 0.9993 0.0154 -0.0338
vn 0.9554 0.2758 0.1059
vn 0.9738 0.2038 -0.1013
vn 0.9577 0.0414 -0.2849
vn 0.9619 -0.0592 -0.2669
vn 0.9997 0.0151 -0.0171
vn 0.9605 0.2352 0.1485
vn 0.9565 0.2154 0.1967
vn 0.9768 -0.0798 -0.1988
vn 0.9542 -0.2929 -0.0614
vn 0.9547 -0.2974 0
vn 0.9997 -0.0172 -0.0162
vn 0.9605 0.2352 -0.1485
vn 0.9605 0.1485 -0.2352
vn 0.959 0.0834 -0.2709
vn 0.9995 0.0313 0.001
vn 0.974 0.2267 0.0012
vn 0.9605 0.1485 0.2352
vn 0.9623 0.1043 0.2512
vn -0.9999 0.0149 -0.001
vn -0.9648 0.1253 0.2312
vn -0.962 0.0618 -0.266
vn -0.9656 0.0823 0.2468
vn -0.9947 0.0724 0.0724
vn -0.9975 0.0689 0.018
vn -0.9986 0.0489 0.0177
vn -0.9998 -0.0151 -0.0161
vn -0.9993 -0.0339 0.0164
vn -1 -0.001 0
vn -0.9989 -0.0344 0.0334
vn -0.9908 -0.1301 0.0362
vn -0.9922 -0.1121 0.0544
vn -0.9981 -0.0519 0.0339
vn -0.9995 0.0313 -0.001
vn -0.9997 0.0151 -0.0171
vn -0.9997 0.0171 0.0151
vn -0.9993 0.0154 -0.0338
vn -0.9862 -0.1655 0
vn -0.9935 -0.1078 -0.0356
vn -0.9757 -0.1814 -0.1226
vn -0.9981 -0.0519 -0.0339
vn -0.9999 -0.0169 0
vn -0.9986 -0.0156 -0.0499
vn -0.9975 0.018 -0.0689
vn 0.4985 0.7857 -0.3662
vn -0.5279 0.7651 -0.3687
vn -0.4928 0.5736 -0.6543
vn 0.4646 0.5988 -0.6524
vn 0.4942 0.2205 0.8409
vn -0.9674 0.1904 -0.1671
vn -0.9619 0.1697 -0.2145
vn -0.9765 0.2002 0.0798
vn -0.5148 0.1948 0.8349
vn 0.4702 -0.1437 0.8708
vn -0.4895 -0.1195 0.8638
vn -0.9663 0.0207 0.2565
vn -0.9597 -0.0185 0.2805
vn 0.9945 0.1043 0.0011
vn 0.9931 0.0917 0.0736
vn 0.996 0.0537 0.0712
vn 0.998 0.052 0.035
vn 0.9997 -0.0172 0.0162
vn 0.9997 0.0151 0.0171
vn 0.9988 0.0481 0.001
vn 0.9975 0.0689 0.018
vn 0.9993 0.0318 -0.0174
vn 0.9999 -0.001 0.0159
vn 0.9989 0.0323 -0.0344
vn 0.9994 -0.0333 0
vn 0.9975 0.018 -0.0689
vn 0.9987 -0.0502 0
vn 0.9619 0.2145 -0.1697
vn 0.9714 0.2232 0.0811
vn 0.9565 0.194 -0.218
vn 0.9644 0.0409 0.2612
vn 0.9575 -0.0389 0.2858
vn 0.0014 0.696 0.7181
vn 0 -0.9737 0.2279
vn 0 -0.9675 0.2529
vn 0 -0.9612 0.2757
vn -0.7709 -0.1201 0.6256
vn 0.0834 0.2709 0.959
vn 0.0209 0.2797 0.9599
vn 0.0618 0.266 0.962
vn 0.042 0.3091 0.9501
vn -0.0618 0.266 0.962
vn -0.0409 0.2612 0.9644
vn -0.0823 0.2468 0.9656
vn -0.1043 0.2512 0.9623
vn -0.0207 0.2565 0.9663
vn -0.0414 0.2849 0.9577
vn -0.042 0.3091 0.9501
vn 0.0012 0.2978 0.9546
vn 0.043 0.3586 0.9325
vn 0.0012 0.2518 0.9678
vn 0.0425 0.3337 0.9417
vn -0.0773 -0.1776 0.9811
vn -0.0186 -0.1896 0.9817
vn -0.0183 -0.1685 0.9855
vn 0 -0.0677 0.9977
vn 0 -0.1862 0.9825
vn 0 -0.2075 0.9782
vn 0.0579 -0.1965 0.9788
o hammer__p0_c0
f 1/1/1 2/1/2 3/1/3
f 4/1/4 1/1/1 5/1/5
f 1/1/1 4/1/4 2/1/2
f 3/1/3 2/1/2 6/1/6
f 3/1/3 6/1/6 7/1/7
f 2/1/2 4/1/4 8/1/8
f 8/1/8 4/1/4 9/1/9
f 8/1/8 9/1/9 10/1/10
f 2/1/2 8/1/8 11/1/11
f 2/1/2 11/1/11 6/1/6
f 11/1/11 8/1/8 10/1/10
f 7/1/7 6/1/6 12/1/12
f 12/1/12 6/1/6 11/1/11
f 7/1/7 12/1/12 13/1/13
f 13/1/13 12/1/12 14/1/14
f 12/1/12 11/1/11 15/1/15
f 15/1/15 11/1/11 10/1/10
f 12/1/12 15/1/15 14/1/14
f 15/1/15 10/1/10 16/1/16
f 15/1/15 16/1/16 14/1/14
f 17/2/17 18/3/18 19/4/19
f 20/5/20 17/2/17 21/6/21
f 17/2/17 20/5/20 18/3/18
f 19/4/19 18/3/18 22/7/22
f 19/4/19 22/7/22 23/8/23
f 18/3/18 20/5/20 24/3/24
f 24/3/24 20/5/20 25/9/25
f 24/3/24 25/9/25 26/10/10
f 18/3/18 24/3/24 27/7/26
f 18/3/18 27/7/26 22/7/22
f 27/7/26 24/3/24 26/10/10
f 23/8/23 22/7/22 28/7/27
f 28/7/27 22/7/22 27/7/26
f 23/8/23 28/7/27 29/11/28
f 29/11/28 28/7/27 30/12/29
f 28/7/27 27/7/26 31/7/30
f 31/7/30 27/7/26 26/10/10
f 28/7/27 31/7/30 30/12/29
f 31/7/30 26/10/10 32/13/31
f 31/7/30 32/13/31 30/12/29
f 33/14/32 34/15/33 35/14/34
f 36/16/35 33/14/32 37/17/36
f 33/14/32 36/16/35 34/15/33
f 35/14/34 34/15/33 38/15/37
f 35/14/34 38/15/37 39/18/38
f 34/15/33 36/16/35 40/15/39
f 40/15/39 36/16/35 41/19/40
f 40/15/39 41/19/40 42/20/41
f 34/15/33 40/15/39 43/15/42
f 34/15/33 43/15/42 38/15/37
f 43/15/42 40/15/39 42/20/41
f 39/18/38 38/15/37 44/21/43
f 44/21/43 38/15/37 43/15/42
f 39/18/38 44/21/43 45/22/44
f 45/22/44 44/21/43 46/23/45
f 44/21/43 43/15/42 47/21/16
f 47/21/16 43/15/42 42/20/41
f 44/21/43 47/21/16 46/23/45
f 47/21/16 42/20/41 48/24/46
f 47/21/16 48/24/46 46/23/45
f 49/25/47 50/26/48 51/25/49
f 52/27/50 49/25/47 53/28/51
f 49/25/47 52/27/50 50/26/48
f 51/25/49 50/26/48 54/29/52
f 51/25/49 54/29/52 55/30/53
f 50/26/48 52/27/50 56/26/54
f 56/26/54 52/27/50 57/31/55
f 56/26/54 57/31/55 58/32/10
f 50/26/48 56/26/54 59/29/56
f 50/26/48 59/29/56 54/29/52
f 59/29/56 56/26/54 58/32/10
f 55/30/53 54/29/52 60/29/57
f 60/29/57 54/29/52 59/29/56
f 55/30/53 60/29/57 61/33/58
f 61/33/58 60/29/57 62/34/59
f 60/29/57 59/29/56 63/29/60
f 63/29/60 59/29/56 58/32/10
f 60/29/57 63/29/60 62/34/59
f 63/29/60 58/32/10 64/35/61
f 63/29/60 64/35/61 62/34/59
f 65/36/62 66/37/63 67/38/62
f 67/38/62 66/37/63 68/39/64
f 68/39/64 66/37/63 69/40/65
f 68/39/64 69/40/65 70/41/66
f 70/41/66 69/40/65 71/42/67
f 71/42/67 69/40/65 72/43/68
f 71/42/67 72/43/68 73/44/69
f 73/44/69 72/43/68 74/45/70
f 75/46/19 76/47/22 77/48/23
f 78/49/71 75/46/19 79/50/72
f 75/46/19 78/49/71 76/47/22
f 77/48/23 76/47/22 80/51/27
f 77/48/23 80/51/27 81/48/73
f 76/47/22 78/49/71 82/47/74
f 82/47/74 78/49/71 83/52/75
f 82/47/74 83/52/75 84/53/76
f 76/47/22 82/47/74 85/51/77
f 76/47/22 85/51/77 80/51/27
f 85/51/77 82/47/74 84/53/76
f 81/48/73 80/51/27 86/51/78
f 86/51/78 80/51/27 85/51/77
f 81/48/73 86/51/78 87/54/79
f 87/54/79 86/51/78 88/55/80
f 86/51/78 85/51/77 89/56/81
f 89/56/81 85/51/77 84/53/76
f 89/56/81 84/53/76 90/57/82
f 89/56/81 90/57/82 88/55/80
f 91/58/83 92/58/84 93/58/85
f 94/58/86 91/58/83 95/58/87
f 91/58/83 94/58/86 92/58/84
f 93/58/85 92/58/84 96/58/88
f 93/58/85 96/58/88 97/58/89
f 92/58/84 94/58/86 98/58/90
f 98/58/90 94/58/86 99/58/91
f 98/58/90 99/58/91 100/58/76
f 92/58/84 98/58/90 101/58/92
f 92/58/84 101/58/92 96/58/88
f 101/58/92 98/58/90 100/58/76
f 97/58/89 96/58/88 102/58/93
f 102/58/93 96/58/88 101/58/92
f 97/58/89 102/58/93 103/58/94
f 103/58/94 102/58/93 104/58/95
f 102/58/93 101/58/92 105/58/96
f 105/58/96 101/58/92 100/58/76
f 102/58/93 105/58/96 104/58/95
f 105/58/96 100/58/76 106/58/97
f 105/58/96 106/58/97 104/58/95
f 107/59/83 108/60/84 109/59/85
f 110/61/86 107/59/83 111/62/87
f 107/59/83 110/61/86 108/60/84
f 109/59/85 108/60/84 112/63/88
f 109/59/85 112/63/88 113/64/89
f 108/60/84 110/61/86 114/60/90
f 114/60/90 110/61/86 115/65/91
f 114/60/90 115/65/91 116/66/76
f 108/60/84 114/60/90 117/63/92
f 108/60/84 117/63/92 112/63/88
f 117/63/92 114/60/90 116/66/76
f 113/64/89 112/63/88 118/63/93
f 118/63/93 112/63/88 117/63/92
f 113/64/89 118/63/93 119/67/94
f 119/67/94 118/63/93 120/68/95
f 118/63/93 117/63/92 121/63/96
f 121/63/96 117/63/92 116/66/76
f 118/63/93 121/63/96 120/68/95
f 121/63/96 116/66/76 122/69/97
f 121/63/96 122/69/97 120/68/95
f 123/70/83 124/71/84 125/70/85
f 126/72/86 123/70/83 127/73/87
f 123/70/83 126/72/86 124/71/84
f 125/70/85 124/71/84 128/71/88
f 125/70/85 128/71/88 129/70/89
f 124/71/84 126/72/86 130/71/90
f 130/71/90 126/72/86 131/74/91
f 130/71/90 131/74/91 132/75/76
f 124/71/84 130/71/90 133/71/92
f 124/71/84 133/71/92 128/71/88
f 133/71/92 130/71/90 132/75/76
f 129/70/89 128/71/88 134/76/93
f 134/76/93 128/71/88 133/71/92
f 129/70/89 134/76/93 135/77/94
f 135/77/94 134/76/93 136/78/95
f 134/76/93 133/71/92 137/76/96
f 137/76/96 133/71/92 132/75/76
f 134/76/93 137/76/96 136/78/95
f 137/76/96 132/75/76 138/79/97
f 137/76/96 138/79/97 136/78/95
f 70/80/66 139/81/98 68/82/64
f 139/81/98 70/80/66 140/83/99
f 140/83/99 70/80/66 71/84/67
f 140/83/99 71/84/67 141/85/99
f 141/85/99 71/84/67 73/86/69
f 69/87/65 66/88/63 142/89/100
f 69/87/65 142/89/100 72/90/68
f 72/90/68 142/89/100 143/91/101
f 72/90/68 143/91/101 74/92/70
f 67/38/102 144/93/103 65/36/102
f 65/36/102 144/93/103 145/94/103
f 145/94/103 144/93/103 146/95/104
f 145/94/103 146/95/104 147/96/104
f 147/96/104 146/95/104 148/97/105
f 147/96/104 148/97/105 149/98/105
f 150/99/106 151/100/107 152/101/106
f 152/101/106 151/100/107 153/102/107
f 153/102/107 151/100/107 154/103/108
f 154/103/108 151/100/107 155/104/108
f 156/105/109 157/106/37 158/107/110
f 157/106/37 156/105/109 159/106/111
f 157/106/37 159/106/111 160/106/43
f 157/106/37 160/106/43 161/108/38
f 162/109/112 160/106/43 159/106/111
f 160/106/43 162/109/112 163/108/113
f 160/106/43 163/108/113 161/108/38
f 163/108/113 162/109/112 164/110/114
f 164/110/114 162/109/112 165/111/115
f 166/112/34 157/106/37 161/108/38
f 157/106/37 166/112/34 158/107/110
f 158/107/110 166/112/34 167/113/116
f 129/70/89 135/77/94 168/114/117
f 151/100/118 150/99/118 169/115/119
f 169/115/119 150/99/118 170/116/120
f 169/115/119 170/116/120 171/117/121
f 171/117/121 170/116/120 172/118/122
f 169/115/119 171/117/121 173/119/123
f 173/119/123 171/117/121 174/120/124
f 169/115/119 173/119/123 155/104/125
f 169/115/119 155/104/125 151/100/125
f 153/102/126 175/121/127 152/101/126
f 152/101/126 175/121/127 176/122/128
f 176/122/128 175/121/127 177/123/129
f 176/122/128 177/123/129 178/124/130
f 177/123/129 175/121/127 179/125/131
f 177/123/129 179/125/131 180/126/132
f 179/125/131 175/121/127 154/103/133
f 154/103/133 175/121/127 153/102/133
f 181/127/134 73/44/134 182/128/134
f 182/128/134 73/44/134 74/45/134
f 37/17/36 33/14/32 183/129/135
f 5/1/5 1/1/1 184/1/136
f 5/1/5 184/1/136 185/1/137
f 185/1/137 184/1/136 186/1/138
f 184/1/136 1/1/1 187/1/139
f 184/1/136 187/1/139 186/1/138
f 187/1/139 1/1/1 3/1/3
f 187/1/139 3/1/3 7/1/7
f 186/1/138 187/1/139 188/1/140
f 188/1/140 187/1/139 7/1/7
f 186/1/138 188/1/140 189/1/141
f 188/1/140 7/1/7 13/1/13
f 188/1/140 13/1/13 189/1/141
f 17/2/17 19/4/19 190/2/142
f 190/2/142 19/4/19 23/8/23
f 17/2/17 190/2/142 191/2/143
f 17/2/17 191/2/143 21/6/21
f 21/6/21 191/2/143 192/130/144
f 192/130/144 191/2/143 193/131/138
f 193/131/138 191/2/143 190/2/142
f 190/2/142 23/8/23 194/8/145
f 190/2/142 194/8/145 193/131/138
f 194/8/145 23/8/23 29/11/28
f 193/131/138 194/8/145 195/132/146
f 195/132/146 194/8/145 29/11/28
f 49/25/47 51/25/49 196/25/147
f 196/25/147 51/25/49 55/30/53
f 49/25/47 196/25/147 197/25/148
f 49/25/47 197/25/148 53/28/51
f 53/28/51 197/25/148 198/133/149
f 198/133/149 197/25/148 199/134/138
f 199/134/138 197/25/148 196/25/147
f 196/25/147 55/30/53 200/30/150
f 196/25/147 200/30/150 199/134/138
f 200/30/150 55/30/53 61/33/58
f 199/134/138 200/30/150 201/135/151
f 201/135/151 200/30/150 61/33/58
f 33/14/32 35/14/34 202/14/152
f 202/14/152 35/14/34 39/18/38
f 33/14/32 202/14/152 183/129/135
f 203/136/153 37/17/36 183/129/135
f 203/136/153 183/129/135 204/137/154
f 204/137/154 183/129/135 202/14/152
f 202/14/152 39/18/38 205/18/141
f 202/14/152 205/18/141 204/137/154
f 205/18/141 39/18/38 45/22/44
f 204/137/154 205/18/141 206/138/155
f 206/138/155 205/18/141 45/22/44
f 75/46/19 77/48/23 207/48/156
f 207/48/156 77/48/23 81/48/73
f 75/46/19 207/48/156 208/46/157
f 75/46/19 208/46/157 79/50/72
f 79/50/72 208/46/157 209/139/158
f 209/139/158 208/46/157 210/140/159
f 210/140/159 208/46/157 207/48/156
f 207/48/156 81/48/73 211/48/160
f 207/48/156 211/48/160 210/140/159
f 211/48/160 81/48/73 87/54/79
f 210/140/159 211/48/160 212/141/161
f 212/141/161 211/48/160 87/54/79
f 107/59/83 109/59/85 213/59/162
f 213/59/162 109/59/85 113/64/89
f 107/59/83 213/59/162 214/59/163
f 107/59/83 214/59/163 111/62/87
f 111/62/87 214/59/163 215/142/164
f 215/142/164 214/59/163 216/143/165
f 216/143/165 214/59/163 213/59/162
f 213/59/162 113/64/89 217/64/117
f 213/59/162 217/64/117 216/143/165
f 217/64/117 113/64/89 119/67/94
f 216/143/165 217/64/117 218/144/166
f 218/144/166 217/64/117 119/67/94
f 95/58/87 91/58/83 219/58/163
f 95/58/87 219/58/163 220/58/164
f 220/58/164 219/58/163 221/58/165
f 219/58/163 91/58/83 222/58/162
f 219/58/163 222/58/162 221/58/165
f 222/58/162 91/58/83 93/58/85
f 222/58/162 93/58/85 97/58/89
f 221/58/165 222/58/162 223/58/117
f 223/58/117 222/58/162 97/58/89
f 221/58/165 223/58/117 224/58/166
f 223/58/117 97/58/89 103/58/94
f 223/58/117 103/58/94 224/58/166
f 123/70/83 125/70/85 225/70/162
f 225/70/162 125/70/85 129/70/89
f 123/70/83 225/70/162 226/145/163
f 225/70/162 129/70/89 168/114/117
f 226/145/163 225/70/162 227/146/165
f 227/146/165 225/70/162 168/114/117
f 226/145/163 227/146/165 228/147/164
f 226/145/163 228/147/164 127/73/87
f 227/146/165 168/114/117 229/148/166
f 229/148/166 168/114/117 135/77/94
f 167/113/116 166/112/34 230/112/167
f 167/113/116 230/112/167 231/149/168
f 231/149/168 230/112/167 232/150/169
f 230/112/167 166/112/34 233/108/170
f 230/112/167 233/108/170 232/150/169
f 233/108/170 166/112/34 161/108/38
f 233/108/170 161/108/38 163/108/113
f 232/150/169 233/108/170 234/108/171
f 234/108/171 233/108/170 163/108/113
f 232/150/169 234/108/171 235/151/172
f 234/108/171 163/108/113 164/110/114
f 234/108/171 164/110/114 235/151/172
f 159/106/111 156/105/109 236/152/173
f 159/106/111 236/152/173 237/153/174
f 236/152/173 156/105/109 238/154/175
f 238/154/175 156/105/109 158/107/110
f 237/153/174 236/152/173 239/155/176
f 237/153/174 239/155/176 165/111/115
f 174/156/177 171/157/121 240/158/177
f 240/158/177 171/157/121 241/159/178
f 241/159/178 171/157/121 242/160/179
f 242/160/179 171/157/121 172/161/122
f 241/159/178 242/160/179 243/162/180
f 241/159/178 243/162/180 244/163/181
f 243/162/180 242/160/179 245/164/182
f 244/163/181 243/162/180 246/165/183
f 246/165/183 243/162/180 245/164/182
f 244/163/181 246/165/183 247/166/184
f 247/166/184 246/165/183 248/167/185
f 248/167/185 246/165/183 249/168/186
f 249/168/186 246/165/183 245/164/182
f 248/167/185 249/168/186 250/169/185
f 251/170/187 245/164/182 242/160/179
f 251/170/187 242/160/179 252/171/179
f 251/170/187 252/171/179 253/172/179
f 251/170/187 253/172/179 148/173/188
f 251/170/187 148/173/188 254/174/76
f 251/170/187 254/174/76 245/164/182
f 254/174/76 148/173/188 146/175/188
f 254/174/76 146/175/188 144/176/188
f 245/164/182 254/174/76 255/177/189
f 245/164/182 255/177/189 249/168/186
f 254/174/76 144/176/188 256/178/76
f 254/174/76 256/178/76 255/177/189
f 256/178/76 144/176/188 67/179/190
f 249/168/186 255/177/189 257/180/186
f 249/168/186 257/180/186 250/169/185
f 250/169/185 257/180/186 258/181/185
f 257/180/186 255/177/189 259/182/189
f 259/182/189 255/177/189 256/178/76
f 258/181/185 257/180/186 260/183/186
f 260/183/186 257/180/186 259/182/189
f 258/181/185 260/183/186 261/184/184
f 261/184/184 260/183/186 181/185/191
f 181/185/191 260/183/186 262/186/192
f 262/186/192 260/183/186 259/182/189
f 181/185/191 262/186/192 73/86/193
f 73/86/193 262/186/192 141/85/194
f 141/85/194 262/186/192 263/187/182
f 263/187/182 262/186/192 259/182/189
f 141/85/194 263/187/182 140/83/195
f 140/83/195 263/187/182 139/81/196
f 263/187/182 259/182/189 264/188/41
f 263/187/182 264/188/41 139/81/196
f 264/188/41 259/182/189 256/178/76
f 139/81/196 264/188/41 68/82/197
f 264/188/41 256/178/76 67/179/190
f 264/188/41 67/179/190 68/82/197
f 265/189/198 266/190/199 267/189/73
f 268/111/200 265/189/198 269/191/201
f 265/189/198 268/111/200 266/190/199
f 267/189/73 266/190/199 270/192/78
f 267/189/73 270/192/78 271/193/202
f 266/190/199 268/111/200 272/190/203
f 272/190/203 268/111/200 273/194/204
f 272/190/203 273/194/204 274/195/173
f 266/190/199 272/190/203 275/192/205
f 266/190/199 275/192/205 270/192/78
f 275/192/205 272/190/203 274/195/173
f 271/193/202 270/192/78 276/192/206
f 276/192/206 270/192/78 275/192/205
f 271/193/202 276/192/206 277/196/207
f 277/196/207 276/192/206 278/197/208
f 276/192/206 275/192/205 279/192/209
f 279/192/209 275/192/205 274/195/173
f 276/192/206 279/192/209 278/197/208
f 279/192/209 274/195/173 280/198/210
f 279/192/209 280/198/210 278/197/208
f 178/199/130 177/200/129 281/201/211
f 180/202/212 282/203/213 177/200/129
f 177/200/129 282/203/213 283/204/214
f 177/200/129 283/204/214 281/201/211
f 283/204/214 282/203/213 284/205/215
f 283/204/214 284/205/215 285/206/216
f 283/204/214 285/206/216 281/201/211
f 285/206/216 284/205/215 286/207/215
f 285/206/216 286/207/215 287/208/215
f 285/206/216 287/208/215 281/201/211
f 287/208/215 286/207/215 288/209/215
f 281/201/211 287/208/215 289/210/217
f 281/201/211 289/210/217 290/211/218
f 290/211/218 289/210/217 291/212/218
f 291/212/218 289/210/217 149/213/217
f 149/213/217 289/210/217 292/214/159
f 292/214/159 289/210/217 287/208/215
f 149/213/217 292/214/159 147/215/219
f 147/215/219 292/214/159 145/216/219
f 293/217/220 287/208/215 288/209/215
f 287/208/215 293/217/220 292/214/159
f 293/217/220 288/209/215 294/218/215
f 145/216/219 292/214/159 295/219/159
f 295/219/159 292/214/159 293/217/220
f 145/216/219 295/219/159 65/220/221
f 293/217/220 294/218/215 296/221/220
f 293/217/220 296/221/220 295/219/159
f 296/221/220 294/218/215 297/222/215
f 296/221/220 297/222/215 182/223/222
f 65/220/221 295/219/159 298/224/154
f 298/224/154 295/219/159 296/221/220
f 65/220/221 298/224/154 66/88/223
f 66/88/223 298/224/154 142/89/154
f 298/224/154 296/221/220 299/225/222
f 299/225/222 296/221/220 182/223/222
f 298/224/154 299/225/222 142/89/154
f 299/225/222 182/223/222 74/92/224
f 142/89/154 299/225/222 143/91/222
f 143/91/222 299/225/222 74/92/224
f 300/189/225 265/189/198 301/189/226
f 265/189/198 300/189/225 269/191/201
f 269/191/201 300/189/225 302/226/227
f 301/189/226 265/189/198 267/189/73
f 302/226/227 300/189/225 303/227/169
f 303/227/169 300/189/225 301/189/226
f 301/189/226 267/189/73 271/193/202
f 303/227/169 301/189/226 304/193/228
f 304/193/228 301/189/226 271/193/202
f 303/227/169 304/193/228 305/228/229
f 304/193/228 271/193/202 277/196/207
f 304/193/228 277/196/207 305/228/229
f 86/51/78 89/56/81 88/55/80
f 123/70/83 226/145/163 127/73/87
f 237/153/174 162/109/112 159/106/111
f 162/109/112 237/153/174 165/111/115
f 291/229/230 149/98/230 253/230/230
f 253/230/230 149/98/230 148/97/230
f 182/128/231 297/231/231 181/127/231
f 181/127/231 297/231/231 261/232/231
f 261/232/231 297/231/231 294/233/231
f 261/232/231 294/233/231 258/234/231
f 258/234/231 294/233/231 288/235/231
f 258/234/231 288/235/231 250/236/231
f 250/236/231 288/235/231 286/237/232
f 250/236/231 286/237/232 248/238/232
f 248/238/232 286/237/232 247/239/233
f 247/239/233 286/237/232 284/240/233
f 241/159/234 244/163/234 240/158/234
f 240/158/234 244/163/234 247/166/234
f 281/201/235 290/211/236 178/199/237
f 178/199/237 290/211/236 306/241/238
f 307/242/239 252/171/240 172/161/241
f 172/161/241 252/171/240 242/160/242
f 252/243/240 307/244/239 253/230/243
f 170/116/244 307/244/239 172/118/241
f 307/244/239 170/116/244 150/99/245
f 307/244/239 150/99/245 308/245/246
f 307/244/239 308/245/246 253/230/243
f 308/245/246 150/99/245 152/101/247
f 253/230/243 308/245/246 290/246/236
f 253/230/243 290/246/236 291/229/248
f 290/246/236 308/245/246 306/247/238
f 306/247/238 308/245/246 152/101/247
f 306/247/238 152/101/247 176/122/249
f 306/247/238 176/122/249 178/124/237
f 174/120/250 240/248/251 173/119/252
f 155/104/253 173/119/252 154/103/253
f 154/103/253 173/119/252 179/125/254
f 179/125/254 173/119/252 240/248/251
f 179/125/254 240/248/251 282/249/255
f 179/125/254 282/249/255 180/126/256
f 282/249/255 240/248/251 247/250/255
f 282/249/255 247/250/255 284/251/255
