# CS2 body mesh, tools/cs2_glb_to_obj.py
v -0.0498 -0.14155 -0.40144
v -0.05135 -0.14027 -0.40705
v -0.0498 -0.14155 -0.40705
v -0.04802 -0.1425 -0.40144
v -0.04962 -0.14129 -0.40117
v -0.05113 -0.14005 -0.40117
v -0.0479 -0.14221 -0.40117
v -0.05135 -0.14027 -0.40144
v -0.05237 -0.13855 -0.40117
v -0.0461 -0.14308 -0.40144
v -0.04604 -0.14278 -0.40117
v -0.0461 -0.14308 -0.40705
v -0.04802 -0.1425 -0.40705
v -0.04697 -0.14248 -0.40757
v -0.05263 -0.13872 -0.40144
v -0.05329 -0.13683 -0.40117
v -0.05037 -0.14066 -0.40757
v -0.05358 -0.13695 -0.40144
v -0.05385 -0.13496 -0.40117
v -0.05263 -0.13872 -0.40705
v -0.05282 -0.13768 -0.40757
v -0.05358 -0.13695 -0.40705
v -0.05416 -0.13502 -0.40144
v -0.05416 -0.13502 -0.40705
v -0.05436 -0.13302 -0.40144
v -0.05404 -0.13302 -0.40117
v -0.05385 -0.13108 -0.40117
v -0.05416 -0.13102 -0.40144
v -0.05358 -0.12909 -0.40144
v -0.05329 -0.12921 -0.40117
v -0.05416 -0.13102 -0.40705
v -0.05436 -0.13302 -0.40705
v -0.05394 -0.13399 -0.40757
v -0.05356 -0.13015 -0.40757
v -0.05358 -0.12909 -0.40705
v -0.05263 -0.12732 -0.40144
v -0.05237 -0.12749 -0.40117
v -0.05263 -0.12732 -0.40705
v -0.05135 -0.12576 -0.40144
v -0.05113 -0.12598 -0.40117
v -0.05174 -0.12674 -0.40757
v -0.05135 -0.12576 -0.40705
v -0.0498 -0.12449 -0.40144
v -0.04962 -0.12475 -0.40117
v -0.0498 -0.12449 -0.40705
v -0.04802 -0.12354 -0.40144
v -0.0479 -0.12383 -0.40117
v -0.04802 -0.12354 -0.40705
v -0.04876 -0.1243 -0.40757
v -0.0461 -0.12296 -0.40705
v -0.0461 -0.12296 -0.40144
v -0.04604 -0.12326 -0.40117
v -0.0441 -0.12276 -0.40144
v -0.0441 -0.12307 -0.40117
v -0.04216 -0.12326 -0.40117
v -0.04029 -0.12383 -0.40117
v -0.04017 -0.12354 -0.40144
v -0.04209 -0.12296 -0.40144
v -0.0441 -0.12276 -0.40705
v -0.04209 -0.12296 -0.40705
v -0.04123 -0.12355 -0.40757
v -0.04507 -0.12318 -0.40757
v -0.04 -0.12313 -0.40811
v -0.04201 -0.12253 -0.40811
v -0.0441 -0.12232 -0.40811
v -0.04201 -0.12253 -0.40888
v -0.0441 -0.12232 -0.40888
v -0.04618 -0.12253 -0.40811
v -0.04618 -0.12253 -0.40888
v -0.04819 -0.12313 -0.40811
v -0.04819 -0.12313 -0.40888
v -0.05004 -0.12412 -0.40811
v -0.05004 -0.12412 -0.40888
v -0.05166 -0.12545 -0.40811
v -0.05166 -0.12545 -0.40888
v -0.05299 -0.12707 -0.40811
v -0.05299 -0.12707 -0.40888
v -0.05398 -0.12892 -0.40811
v -0.05398 -0.12892 -0.40888
v -0.05459 -0.13093 -0.40811
v -0.05459 -0.13093 -0.40888
v -0.0548 -0.13302 -0.40888
v -0.0548 -0.13302 -0.40811
v -0.05459 -0.13511 -0.40888
v -0.05459 -0.13511 -0.40811
v -0.05398 -0.13711 -0.40811
v -0.05398 -0.13711 -0.40888
v -0.05299 -0.13896 -0.40811
v -0.05299 -0.13896 -0.40888
v -0.05166 -0.14058 -0.40811
v -0.05166 -0.14058 -0.40888
v -0.05004 -0.14192 -0.40888
v -0.05004 -0.14192 -0.40811
v -0.04819 -0.1429 -0.40888
v -0.04819 -0.1429 -0.40811
v -0.04618 -0.14351 -0.40811
v -0.04618 -0.14351 -0.40888
v -0.0441 -0.14291 -0.356
v -0.04217 -0.14272 -0.356
v -0.04379 -0.14177 -0.35583
v -0.04247 -0.14121 -0.35593
v -0.04283 -0.1408 -0.35861
v -0.04627 -0.14018 -0.35858
v -0.04573 -0.14121 -0.35593
v -0.0441 -0.14328 -0.35653
v -0.04209 -0.14308 -0.35653
v -0.04603 -0.14272 -0.356
v -0.04209 -0.14308 -0.40063
v -0.04788 -0.14215 -0.356
v -0.04729 -0.14073 -0.35593
v -0.0461 -0.14308 -0.35653
v -0.0441 -0.14328 -0.40063
v -0.04216 -0.14278 -0.40117
v -0.0441 -0.14297 -0.40117
v -0.0461 -0.14308 -0.40063
v -0.04802 -0.1425 -0.40063
v -0.04802 -0.1425 -0.35653
v -0.0498 -0.14155 -0.40063
v -0.0498 -0.14155 -0.35653
v -0.04959 -0.14124 -0.356
v -0.04874 -0.13996 -0.35593
v -0.0487 -0.13942 -0.35861
v -0.04828 -0.13927 -0.35858
v -0.05007 -0.13942 -0.35583
v -0.05109 -0.14001 -0.356
v -0.05104 -0.13766 -0.35593
v -0.05135 -0.14027 -0.35653
v -0.05232 -0.13851 -0.356
v -0.05181 -0.13621 -0.35593
v -0.05263 -0.13872 -0.35653
v -0.05135 -0.14027 -0.40063
v -0.05263 -0.13872 -0.40063
v -0.05358 -0.13695 -0.40063
v -0.05358 -0.13695 -0.35653
v -0.05323 -0.1368 -0.356
v -0.05229 -0.13465 -0.35593
v -0.05416 -0.13502 -0.40063
v -0.05416 -0.13502 -0.35653
v -0.05379 -0.13495 -0.356
v -0.05284 -0.13332 -0.35583
v -0.05436 -0.13302 -0.40063
v -0.05398 -0.13302 -0.356
v -0.05229 -0.13139 -0.35593
v -0.05436 -0.13302 -0.35653
v -0.05379 -0.13109 -0.356
v -0.05181 -0.12982 -0.35593
v -0.05416 -0.13102 -0.35653
v -0.05416 -0.13102 -0.40063
v -0.05323 -0.12923 -0.356
v -0.05104 -0.12838 -0.35593
v -0.05358 -0.12909 -0.35653
v -0.05358 -0.12909 -0.40063
v -0.05232 -0.12753 -0.356
v -0.0505 -0.12705 -0.35583
v -0.05263 -0.12732 -0.40063
v -0.05109 -0.12603 -0.356
v -0.05263 -0.12732 -0.35653
v -0.04874 -0.12608 -0.35593
v -0.05135 -0.12576 -0.35653
v -0.05135 -0.12576 -0.40063
v -0.0498 -0.12449 -0.35653
v -0.04959 -0.1248 -0.356
v -0.04729 -0.12531 -0.35593
v -0.0498 -0.12449 -0.40063
v -0.04802 -0.12354 -0.35653
v -0.04788 -0.12388 -0.356
v -0.04573 -0.12483 -0.35593
v -0.04802 -0.12354 -0.40063
v -0.0461 -0.12296 -0.35653
v -0.04603 -0.12332 -0.356
v -0.0444 -0.12427 -0.35583
v -0.0461 -0.12296 -0.40063
v -0.0441 -0.12276 -0.40063
v -0.04209 -0.12296 -0.40063
v -0.04209 -0.12296 -0.35653
v -0.0441 -0.12276 -0.35653
v -0.04217 -0.12332 -0.356
v -0.0441 -0.12313 -0.356
v -0.04247 -0.12483 -0.35593
v -0.04192 -0.12586 -0.35858
v -0.04536 -0.12524 -0.35861
v -0.0409 -0.12531 -0.35593
v -0.03992 -0.12676 -0.35858
v -0.04031 -0.12388 -0.356
v -0.03946 -0.12608 -0.35593
v -0.0386 -0.1248 -0.356
v -0.03813 -0.12662 -0.35583
v -0.03949 -0.12662 -0.35861
v -0.0371 -0.12603 -0.356
v -0.03715 -0.12838 -0.35593
v -0.03587 -0.12753 -0.356
v -0.03749 -0.12949 -0.35858
v -0.03496 -0.12923 -0.356
v -0.03638 -0.12982 -0.35593
v -0.03672 -0.13155 -0.35858
v -0.0344 -0.13109 -0.356
v -0.03591 -0.13139 -0.35593
v -0.03631 -0.13175 -0.35861
v -0.03535 -0.13272 -0.35583
v -0.03421 -0.13302 -0.356
v -0.03693 -0.13519 -0.35858
v -0.03591 -0.13465 -0.35593
v -0.0344 -0.13495 -0.356
v -0.03496 -0.1368 -0.356
v -0.03638 -0.13621 -0.35593
v -0.03784 -0.1372 -0.35858
v -0.03587 -0.13851 -0.356
v -0.03715 -0.13766 -0.35593
v -0.0377 -0.13763 -0.35861
v -0.0377 -0.13899 -0.35583
v -0.0371 -0.14001 -0.356
v -0.03946 -0.13996 -0.35593
v -0.0386 -0.14124 -0.356
v -0.04057 -0.13962 -0.35858
v -0.04031 -0.14215 -0.356
v -0.0409 -0.14073 -0.35593
v -0.04263 -0.1404 -0.35858
v -0.0507 -0.13655 -0.35858
v -0.05147 -0.13449 -0.35858
v -0.05126 -0.13085 -0.35858
v -0.05188 -0.13429 -0.35861
v -0.05035 -0.12884 -0.35858
v -0.04763 -0.12642 -0.35858
v -0.0505 -0.12841 -0.35861
v -0.04556 -0.12564 -0.35858
v -0.04155 -0.13683 -0.40888
v -0.03653 -0.14058 -0.40888
v -0.03815 -0.14192 -0.40888
v -0.04234 -0.13726 -0.40888
v -0.04 -0.1429 -0.40888
v -0.04085 -0.13626 -0.40888
v -0.0352 -0.13896 -0.40888
v -0.04201 -0.14351 -0.40888
v -0.04135 -0.13637 -0.40792
v -0.04028 -0.13557 -0.40888
v -0.03421 -0.13711 -0.40888
v -0.04027 -0.13506 -0.40792
v -0.03986 -0.13477 -0.40888
v -0.04284 -0.13717 -0.40792
v -0.0396 -0.13391 -0.40888
v -0.03978 -0.13344 -0.40792
v -0.0336 -0.13511 -0.40888
v -0.0432 -0.13752 -0.40888
v -0.03951 -0.13302 -0.40888
v -0.03995 -0.13176 -0.40792
v -0.0334 -0.13302 -0.40888
v -0.0441 -0.1376 -0.40888
v -0.0441 -0.14372 -0.40888
v -0.0396 -0.13212 -0.40888
v -0.0336 -0.13093 -0.40888
v -0.03986 -0.13126 -0.40888
v -0.03421 -0.12892 -0.40888
v -0.04074 -0.13027 -0.40792
v -0.04028 -0.13047 -0.40888
v -0.0352 -0.12707 -0.40888
v -0.03653 -0.12545 -0.40888
v -0.04085 -0.12978 -0.40888
v -0.03815 -0.12412 -0.40888
v -0.04155 -0.12921 -0.40888
v -0.04205 -0.1292 -0.40792
v -0.04 -0.12313 -0.40888
v -0.04234 -0.12878 -0.40888
v -0.0432 -0.12852 -0.40888
v -0.04367 -0.1287 -0.40792
v -0.0441 -0.12843 -0.40888
v -0.04499 -0.12852 -0.40888
v -0.04585 -0.12878 -0.40888
v -0.04536 -0.12887 -0.40792
v -0.04664 -0.12921 -0.40888
v -0.04734 -0.12978 -0.40888
v -0.04791 -0.13047 -0.40888
v -0.04833 -0.13126 -0.40888
v -0.04859 -0.13212 -0.40888
v -0.04868 -0.13302 -0.40888
v -0.04859 -0.13391 -0.40888
v -0.04833 -0.13477 -0.40888
v -0.04791 -0.13557 -0.40888
v -0.04734 -0.13626 -0.40888
v -0.04664 -0.13683 -0.40888
v -0.04585 -0.13726 -0.40888
v -0.04499 -0.13752 -0.40888
v -0.04452 -0.13733 -0.40792
v -0.04303 -0.13654 -0.40861
v -0.04446 -0.13668 -0.40861
v -0.04583 -0.13626 -0.40861
v -0.04614 -0.13684 -0.40792
v -0.04438 -0.13586 -0.40839
v -0.04694 -0.13535 -0.40861
v -0.04745 -0.13577 -0.40792
v -0.04825 -0.13428 -0.40792
v -0.04761 -0.13409 -0.40861
v -0.04841 -0.13259 -0.40792
v -0.04775 -0.13266 -0.40861
v -0.04734 -0.13129 -0.40861
v -0.04792 -0.13098 -0.40792
v -0.04685 -0.12967 -0.40792
v -0.04631 -0.13483 -0.40839
v -0.04643 -0.13018 -0.40861
v -0.04544 -0.13554 -0.40839
v -0.04607 -0.13464 -0.40898
v -0.04683 -0.13385 -0.40839
v -0.0453 -0.13527 -0.40898
v -0.04654 -0.13376 -0.40898
v -0.04694 -0.13274 -0.40839
v -0.04556 -0.13422 -0.40933
v -0.04435 -0.13556 -0.40898
v -0.04336 -0.13546 -0.40898
v -0.04327 -0.13576 -0.40839
v -0.04228 -0.13523 -0.40839
v -0.04176 -0.13586 -0.40861
v -0.04157 -0.13437 -0.40839
v -0.04085 -0.13475 -0.40861
v -0.04125 -0.1333 -0.40839
v -0.04044 -0.13338 -0.40861
v -0.04136 -0.13219 -0.40839
v -0.04058 -0.13195 -0.40861
v -0.04189 -0.13121 -0.40839
v -0.04125 -0.13069 -0.40861
v -0.04236 -0.12978 -0.40861
v -0.04275 -0.1305 -0.40839
v -0.04382 -0.13017 -0.40839
v -0.04374 -0.12936 -0.40861
v -0.04516 -0.1295 -0.40861
v -0.04493 -0.13028 -0.40839
v -0.04591 -0.13081 -0.40839
v -0.04484 -0.13058 -0.40898
v -0.04572 -0.13105 -0.40898
v -0.04385 -0.13048 -0.40898
v -0.04662 -0.13167 -0.40839
v -0.04391 -0.13113 -0.40933
v -0.04289 -0.13077 -0.40898
v -0.0432 -0.13134 -0.40933
v -0.04635 -0.13182 -0.40898
v -0.04664 -0.13277 -0.40898
v -0.04599 -0.13283 -0.40933
v -0.04591 -0.13357 -0.40933
v -0.04525 -0.13313 -0.40922
v -0.04577 -0.13212 -0.40933
v -0.04483 -0.13392 -0.40922
v -0.045 -0.13228 -0.40922
v -0.04499 -0.13469 -0.40933
v -0.04398 -0.13418 -0.40922
v -0.0453 -0.13155 -0.40933
v -0.04465 -0.1312 -0.40933
v -0.04421 -0.13186 -0.40922
v -0.04428 -0.13491 -0.40933
v -0.04355 -0.13484 -0.40933
v -0.04336 -0.13212 -0.40922
v -0.04263 -0.13181 -0.40933
v -0.04366 -0.13248 -0.40874
v -0.04416 -0.13233 -0.40874
v -0.04294 -0.1329 -0.40922
v -0.04228 -0.13247 -0.40933
v -0.04463 -0.13258 -0.40874
v -0.04479 -0.13309 -0.40874
v -0.04454 -0.13355 -0.40874
v -0.04221 -0.13321 -0.40933
v -0.04341 -0.13295 -0.40874
v -0.04242 -0.13391 -0.40933
v -0.04356 -0.13346 -0.40874
v -0.04403 -0.13371 -0.40874
v -0.0432 -0.13376 -0.40922
v -0.04289 -0.13449 -0.40933
v -0.04313 -0.14286 -0.40757
v -0.0441 -0.14328 -0.40705
v -0.04209 -0.14308 -0.40705
v -0.04209 -0.14308 -0.40144
v -0.0441 -0.14328 -0.40144
v -0.04017 -0.1425 -0.40144
v -0.04029 -0.14221 -0.40117
v -0.0441 -0.14372 -0.40811
v -0.04201 -0.14351 -0.40811
v -0.03943 -0.14174 -0.40757
v -0.04 -0.1429 -0.40811
v -0.04248 -0.13499 -0.40898
v -0.04185 -0.13422 -0.40898
v -0.04156 -0.13327 -0.40898
v -0.04165 -0.13228 -0.40898
v -0.04212 -0.1314 -0.40898
v -0.0384 -0.12449 -0.35653
v -0.0384 -0.12449 -0.40063
v -0.04017 -0.12354 -0.35653
v -0.03684 -0.12576 -0.35653
v -0.03557 -0.12732 -0.35653
v -0.04017 -0.12354 -0.40063
v -0.03857 -0.12475 -0.40117
v -0.03706 -0.12598 -0.40117
v -0.03684 -0.12576 -0.40063
v -0.03557 -0.12732 -0.40063
v -0.03582 -0.12749 -0.40117
v -0.03462 -0.12909 -0.35653
v -0.03462 -0.12909 -0.40063
v -0.03491 -0.12921 -0.40117
v -0.03403 -0.13102 -0.35653
v -0.03403 -0.13102 -0.40063
v -0.03434 -0.13108 -0.40117
v -0.03384 -0.13302 -0.40063
v -0.03415 -0.13302 -0.40117
v -0.03384 -0.13302 -0.35653
v -0.03434 -0.13496 -0.40117
v -0.03403 -0.13502 -0.35653
v -0.03403 -0.13502 -0.40063
v -0.03491 -0.13683 -0.40117
v -0.03462 -0.13695 -0.40063
v -0.03582 -0.13855 -0.40117
v -0.03462 -0.13695 -0.35653
v -0.03557 -0.13872 -0.40063
v -0.03706 -0.14005 -0.40117
v -0.03557 -0.13872 -0.35653
v -0.03684 -0.14027 -0.40063
v -0.03684 -0.14027 -0.35653
v -0.0384 -0.14155 -0.40063
v -0.03857 -0.14129 -0.40117
v -0.0384 -0.14155 -0.35653
v -0.04017 -0.1425 -0.35653
v -0.04017 -0.1425 -0.40063
v -0.03462 -0.13695 -0.40144
v -0.03557 -0.13872 -0.40144
v -0.03462 -0.13695 -0.40705
v -0.03403 -0.13502 -0.40144
v -0.03684 -0.14027 -0.40144
v -0.03684 -0.14027 -0.40705
v -0.0384 -0.14155 -0.40144
v -0.03557 -0.13872 -0.40705
v -0.0384 -0.14155 -0.40705
v -0.03645 -0.13929 -0.40757
v -0.04017 -0.1425 -0.40705
v -0.03463 -0.13589 -0.40757
v -0.03403 -0.13502 -0.40705
v -0.03384 -0.13302 -0.40705
v -0.03384 -0.13302 -0.40144
v -0.03403 -0.13102 -0.40144
v -0.03462 -0.12909 -0.40144
v -0.03403 -0.13102 -0.40705
v -0.03557 -0.12732 -0.40144
v -0.03462 -0.12909 -0.40705
v -0.03425 -0.13205 -0.40757
v -0.03684 -0.12576 -0.40144
v -0.03557 -0.12732 -0.40705
v -0.03537 -0.12836 -0.40757
v -0.03684 -0.12576 -0.40705
v -0.03782 -0.12537 -0.40757
v -0.0384 -0.12449 -0.40705
v -0.0384 -0.12449 -0.40144
v -0.04017 -0.12354 -0.40705
v -0.03815 -0.12412 -0.40811
v -0.03653 -0.12545 -0.40811
v -0.0352 -0.12707 -0.40811
v -0.03421 -0.12892 -0.40811
v -0.0336 -0.13093 -0.40811
v -0.0334 -0.13302 -0.40811
v -0.0336 -0.13511 -0.40811
v -0.03421 -0.13711 -0.40811
v -0.0352 -0.13896 -0.40811
v -0.03653 -0.14058 -0.40811
v -0.03815 -0.14192 -0.40811
vt 0.95752 0.058563
vt 0.95459 0.067688
vt 0.957031 0.067688
vt 0.959961 0.058563
vt 0.95752 0.057922
vt 0.95459 0.057922
vt 0.959961 0.057922
vt 0.95459 0.058563
vt 0.95166 0.057922
vt 0.962891 0.058563
vt 0.962891 0.057922
vt 0.962891 0.067688
vt 0.959961 0.067688
vt 0.961426 0.068726
vt 0.95166 0.058563
vt 0.94873 0.057922
vt 0.956055 0.068726
vt 0.94873 0.058563
vt 0.945801 0.057922
vt 0.95166 0.067688
vt 0.950195 0.068726
vt 0.94873 0.067688
vt 0.945801 0.058563
vt 0.945801 0.067688
vt 0.942871 0.058563
vt 0.942871 0.057922
vt 0.939941 0.057922
vt 0.939941 0.058563
vt 0.9375 0.058563
vt 0.9375 0.057922
vt 0.94043 0.067688
vt 0.942871 0.067688
vt 0.944336 0.068726
vt 0.938965 0.068726
vt 0.9375 0.067688
vt 0.93457 0.058563
vt 0.93457 0.057922
vt 0.93457 0.067688
vt 0.931641 0.058563
vt 0.931641 0.057922
vt 0.933105 0.068726
vt 0.931641 0.067688
vt 0.928711 0.058563
vt 0.928711 0.057922
vt 0.928711 0.067688
vt 0.925781 0.058563
vt 0.925781 0.057922
vt 0.925781 0.067688
vt 0.927246 0.068726
vt 0.922852 0.067688
vt 0.922852 0.058563
vt 0.922852 0.057922
vt 0.92041 0.058563
vt 0.92041 0.057922
vt 0.91748 0.057922
vt 0.914551 0.057922
vt 0.914551 0.058563
vt 0.91748 0.058563
vt 0.92041 0.067688
vt 0.91748 0.067688
vt 0.916016 0.068726
vt 0.921875 0.068726
vt 0.914551 0.070068
vt 0.91748 0.070068
vt 0.92041 0.070068
vt 0.91748 0.07135
vt 0.92041 0.07135
vt 0.92334 0.070068
vt 0.92334 0.07135
vt 0.925781 0.070068
vt 0.925781 0.07135
vt 0.928711 0.070068
vt 0.928711 0.07135
vt 0.931641 0.070068
vt 0.931641 0.07135
vt 0.93457 0.070068
vt 0.93457 0.07135
vt 0.9375 0.070068
vt 0.9375 0.07135
vt 0.94043 0.070068
vt 0.94043 0.07135
vt 0.942871 0.07135
vt 0.942871 0.070068
vt 0.945801 0.07135
vt 0.945801 0.070068
vt 0.94873 0.070068
vt 0.94873 0.07135
vt 0.95166 0.070068
vt 0.95166 0.07135
vt 0.95459 0.070068
vt 0.95459 0.07135
vt 0.95752 0.07135
vt 0.95752 0.070068
vt 0.960449 0.07135
vt 0.960449 0.070068
vt 0.963379 0.070068
vt 0.963379 0.07135
vt 0.219727 0.09906
vt 0.219727 0.09613
vt 0.217773 0.098694
vt 0.217773 0.09613
vt 0.212891 0.098145
vt 0.212891 0.103699
vt 0.217773 0.102112
vt 0.220703 0.098999
vt 0.220703 0.09613
vt 0.219727 0.10199
vt 0.294922 0.09613
vt 0.219727 0.104858
vt 0.217773 0.104919
vt 0.220703 0.101868
vt 0.294922 0.098999
vt 0.295898 0.09613
vt 0.295898 0.098877
vt 0.295898 0.101807
vt 0.294922 0.101868
vt 0.295898 0.104675
vt 0.294922 0.104797
vt 0.295898 0.107605
vt 0.220703 0.104797
vt 0.294922 0.107666
vt 0.295898 0.110474
vt 0.220703 0.107666
vt 0.219727 0.107727
vt 0.217773 0.107727
vt 0.212891 0.108948
vt 0.212891 0.107605
vt 0.217773 0.110168
vt 0.219727 0.110596
vt 0.217773 0.113525
vt 0.220703 0.110535
vt 0.219727 0.113403
vt 0.217773 0.116272
vt 0.220703 0.113403
vt 0.294922 0.110535
vt 0.294922 0.113403
vt 0.295898 0.113403
vt 0.294922 0.116272
vt 0.295898 0.116272
vt 0.220703 0.116272
vt 0.219727 0.116272
vt 0.217773 0.11908
vt 0.294922 0.119141
vt 0.295898 0.119141
vt 0.220703 0.119141
vt 0.219727 0.119141
vt 0.217773 0.121582
vt 0.294922 0.122009
vt 0.295898 0.122009
vt 0.295898 0.124817
vt 0.219727 0.122009
vt 0.217773 0.124939
vt 0.220703 0.122009
vt 0.219727 0.124878
vt 0.217773 0.127563
vt 0.220703 0.124878
vt 0.294922 0.124878
vt 0.295898 0.127563
vt 0.219727 0.127686
vt 0.217773 0.130371
vt 0.220703 0.127563
vt 0.294922 0.127563
vt 0.295898 0.130493
vt 0.219727 0.130493
vt 0.217773 0.132935
vt 0.294922 0.130493
vt 0.295898 0.133301
vt 0.219727 0.133301
vt 0.220703 0.130493
vt 0.217773 0.13623
vt 0.220703 0.133301
vt 0.294922 0.133301
vt 0.220703 0.13623
vt 0.219727 0.13623
vt 0.217773 0.139038
vt 0.294922 0.13623
vt 0.295898 0.13623
vt 0.220703 0.139038
vt 0.219727 0.139038
vt 0.217773 0.141846
vt 0.294922 0.139038
vt 0.295898 0.139038
vt 0.220703 0.141968
vt 0.219727 0.141968
vt 0.217773 0.144409
vt 0.294922 0.141968
vt 0.295898 0.141968
vt 0.294922 0.144775
vt 0.295898 0.144775
vt 0.295898 0.147583
vt 0.294922 0.147583
vt 0.220703 0.147583
vt 0.220703 0.144775
vt 0.219727 0.147583
vt 0.219727 0.144775
vt 0.217773 0.147705
vt 0.212891 0.149048
vt 0.212891 0.143066
vt 0.217773 0.150513
vt 0.212891 0.153076
vt 0.219727 0.150513
vt 0.217773 0.15332
vt 0.219727 0.15332
vt 0.217773 0.155762
vt 0.212891 0.154541
vt 0.219727 0.15625
vt 0.217773 0.15918
vt 0.219727 0.159058
vt 0.212891 0.1604
vt 0.219727 0.161987
vt 0.217773 0.161865
vt 0.212891 0.164551
vt 0.219727 0.164795
vt 0.217773 0.164673
vt 0.212891 0.165894
vt 0.217773 0.167236
vt 0.219727 0.167603
vt 0.212891 0.171875
vt 0.217773 0.170532
vt 0.219727 0.170532
vt 0.219727 0.17334
vt 0.217773 0.17334
vt 0.212891 0.175903
vt 0.219727 0.17627
vt 0.217773 0.176147
vt 0.212891 0.177246
vt 0.217773 0.178589
vt 0.219727 0.179077
vt 0.217773 0.182007
vt 0.219727 0.182007
vt 0.212891 0.182983
vt 0.219727 0.184937
vt 0.217773 0.184814
vt 0.219727 0.187744
vt 0.212891 0.186401
vt 0.217773 0.187744
vt 0.212891 0.187134
vt 0.422119 0.777832
vt 0.419189 0.773926
vt 0.418701 0.773926
vt 0.42334 0.780762
vt 0.422852 0.786133
vt 0.423828 0.78125
vt 0.421631 0.789062
vt 0.417725 0.792969
vt 0.421875 0.790039
vt 0.414551 0.793945
vt 0.40918 0.793457
vt 0.414307 0.794434
vt 0.40625 0.791992
vt 0.402832 0.788086
vt 0.405762 0.79248
vt 0.401611 0.785156
vt 0.4021 0.779785
vt 0.401123 0.785156
vt 0.40332 0.776855
vt 0.407227 0.773438
vt 0.403076 0.776367
vt 0.4104 0.772461
vt 0.415771 0.772461
vt 0.410645 0.771484
vt 0.712402 0.822754
vt 0.70459 0.828613
vt 0.707031 0.830566
vt 0.713867 0.823242
vt 0.709961 0.83252
vt 0.711426 0.821777
vt 0.702148 0.826172
vt 0.713379 0.833496
vt 0.712891 0.820801
vt 0.710449 0.820312
vt 0.700684 0.823242
vt 0.711426 0.818848
vt 0.709961 0.819336
vt 0.714844 0.821777
vt 0.709473 0.817871
vt 0.710938 0.816895
vt 0.699707 0.819824
vt 0.715332 0.82373
vt 0.709473 0.816406
vt 0.710938 0.814453
vt 0.699219 0.816406
vt 0.716797 0.82373
vt 0.716797 0.833496
vt 0.709473 0.814941
vt 0.699707 0.812988
vt 0.709961 0.813477
vt 0.700684 0.80957
vt 0.712402 0.8125
vt 0.710449 0.8125
vt 0.702148 0.806641
vt 0.70459 0.804199
vt 0.711426 0.811035
vt 0.707031 0.802246
vt 0.712402 0.810059
vt 0.713867 0.811523
vt 0.709961 0.800293
vt 0.713867 0.80957
vt 0.715332 0.809082
vt 0.713379 0.799316
vt 0.716797 0.799316
vt 0.716309 0.810547
vt 0.716797 0.809082
vt 0.720215 0.799316
vt 0.718262 0.809082
vt 0.719727 0.80957
vt 0.723145 0.800293
vt 0.718262 0.811035
vt 0.726074 0.802246
vt 0.720703 0.810547
vt 0.72168 0.811035
vt 0.729004 0.804199
vt 0.730957 0.806641
vt 0.722656 0.8125
vt 0.732422 0.810059
vt 0.723633 0.813477
vt 0.723633 0.814941
vt 0.733398 0.812988
vt 0.733887 0.816406
vt 0.724121 0.816406
vt 0.733398 0.819824
vt 0.724121 0.817871
vt 0.723633 0.819336
vt 0.732422 0.823242
vt 0.722656 0.820801
vt 0.730957 0.826172
vt 0.729004 0.828613
vt 0.72168 0.821777
vt 0.726074 0.831055
vt 0.720703 0.822754
vt 0.723145 0.83252
vt 0.719238 0.823242
vt 0.718262 0.82373
vt 0.720215 0.833496
vt 0.717285 0.822266
vt 0.715332 0.820801
vt 0.717285 0.820801
vt 0.71875 0.820312
vt 0.719238 0.821289
vt 0.716797 0.819824
vt 0.720215 0.819336
vt 0.721191 0.820312
vt 0.722168 0.818359
vt 0.720703 0.817871
vt 0.722168 0.815918
vt 0.721191 0.815918
vt 0.720703 0.814453
vt 0.72168 0.813965
vt 0.720215 0.812012
vt 0.719238 0.818359
vt 0.719238 0.812988
vt 0.718262 0.819336
vt 0.71875 0.817871
vt 0.719727 0.817383
vt 0.717773 0.818848
vt 0.719238 0.817383
vt 0.720215 0.815918
vt 0.718262 0.817383
vt 0.716797 0.818848
vt 0.71582 0.818848
vt 0.71582 0.819824
vt 0.714355 0.818848
vt 0.713867 0.819824
vt 0.713867 0.817871
vt 0.712891 0.818359
vt 0.713379 0.816895
vt 0.712402 0.816895
vt 0.713379 0.81543
vt 0.712402 0.814941
vt 0.713867 0.814453
vt 0.713379 0.813477
vt 0.714355 0.8125
vt 0.714844 0.813477
vt 0.716309 0.812988
vt 0.716309 0.812012
vt 0.717773 0.812012
vt 0.717773 0.812988
vt 0.71875 0.813965
vt 0.717285 0.813965
vt 0.718262 0.814453
vt 0.716309 0.813965
vt 0.719727 0.814941
vt 0.716309 0.814453
vt 0.715332 0.813965
vt 0.71582 0.814941
vt 0.71875 0.81543
vt 0.719238 0.816406
vt 0.718262 0.816406
vt 0.718262 0.816895
vt 0.717773 0.816406
vt 0.718262 0.81543
vt 0.717285 0.817383
vt 0.717285 0.815918
vt 0.717285 0.817871
vt 0.716309 0.817383
vt 0.717773 0.814941
vt 0.717285 0.814453
vt 0.716797 0.81543
vt 0.716797 0.818359
vt 0.716309 0.818359
vt 0.71582 0.81543
vt 0.715332 0.81543
vt 0.716309 0.815918
vt 0.716797 0.815918
vt 0.715332 0.816406
vt 0.714844 0.815918
vt 0.717285 0.816406
vt 0.716797 0.816895
vt 0.714844 0.816406
vt 0.716309 0.816406
vt 0.714844 0.817383
vt 0.716309 0.816895
vt 0.71582 0.816895
vt 0.715332 0.817871
vt 0.870605 0.068726
vt 0.875977 0.068726
vt 0.875 0.067688
vt 0.877441 0.067688
vt 0.877441 0.058563
vt 0.87207 0.067688
vt 0.874512 0.058563
vt 0.87207 0.058563
vt 0.87207 0.057922
vt 0.874512 0.057922
vt 0.877441 0.057922
vt 0.880371 0.058563
vt 0.880371 0.057922
vt 0.874512 0.070068
vt 0.871582 0.070068
vt 0.871582 0.07135
vt 0.874512 0.07135
vt 0.877441 0.070068
vt 0.877441 0.07135
vt 0.881836 0.068726
vt 0.880371 0.070068
vt 0.714844 0.818359
vt 0.714355 0.817383
vt 0.713867 0.816895
vt 0.714355 0.81543
vt 0.714844 0.814941
vt 0.212891 0.114868
vt 0.212891 0.118896
vt 0.212891 0.1203
vt 0.212891 0.126221
vt 0.212891 0.130249
vt 0.212891 0.131592
vt 0.212891 0.137573
vt 0.212891 0.141602
vt 0.220703 0.15332
vt 0.294922 0.15332
vt 0.220703 0.150513
vt 0.220703 0.15625
vt 0.220703 0.159058
vt 0.294922 0.150513
vt 0.295898 0.150513
vt 0.295898 0.15332
vt 0.295898 0.15625
vt 0.294922 0.15625
vt 0.294922 0.159058
vt 0.295898 0.159058
vt 0.220703 0.161987
vt 0.294922 0.161987
vt 0.295898 0.161987
vt 0.220703 0.164795
vt 0.294922 0.164795
vt 0.295898 0.164795
vt 0.294922 0.167603
vt 0.295898 0.167725
vt 0.220703 0.167603
vt 0.295898 0.170532
vt 0.220703 0.170532
vt 0.294922 0.170532
vt 0.295898 0.173462
vt 0.294922 0.17334
vt 0.295898 0.17627
vt 0.220703 0.17334
vt 0.294922 0.17627
vt 0.295898 0.179199
vt 0.220703 0.17627
vt 0.294922 0.179199
vt 0.220703 0.179077
vt 0.294922 0.182007
vt 0.295898 0.182129
vt 0.220703 0.182007
vt 0.220703 0.184814
vt 0.294922 0.184937
vt 0.295898 0.185059
vt 0.294922 0.187744
vt 0.295898 0.187744
vt 0.220703 0.187744
vt 0.891602 0.058563
vt 0.88916 0.058563
vt 0.891602 0.067688
vt 0.88916 0.057922
vt 0.891602 0.057922
vt 0.88623 0.057922
vt 0.894531 0.058563
vt 0.894531 0.057922
vt 0.88623 0.058563
vt 0.883301 0.057922
vt 0.88623 0.067688
vt 0.883301 0.058563
vt 0.88916 0.067688
vt 0.883301 0.067688
vt 0.887695 0.068726
vt 0.880371 0.067688
vt 0.893066 0.068726
vt 0.894531 0.067688
vt 0.897461 0.067688
vt 0.897461 0.058563
vt 0.897461 0.057922
vt 0.900391 0.057922
vt 0.900391 0.058563
vt 0.90332 0.057922
vt 0.90332 0.058563
vt 0.905762 0.057922
vt 0.900391 0.067688
vt 0.905762 0.058563
vt 0.90332 0.067688
vt 0.908691 0.057922
vt 0.898926 0.068726
vt 0.908691 0.058563
vt 0.911621 0.057922
vt 0.90625 0.067688
vt 0.904785 0.068726
vt 0.908691 0.067688
vt 0.910156 0.068726
vt 0.911621 0.067688
vt 0.911621 0.058563
vt 0.914551 0.067688
vt 0.911621 0.070068
vt 0.911621 0.07135
vt 0.914551 0.07135
vt 0.908691 0.07135
vt 0.908691 0.070068
vt 0.90625 0.070068
vt 0.90625 0.07135
vt 0.90332 0.070068
vt 0.90332 0.07135
vt 0.900391 0.07135
vt 0.900391 0.070068
vt 0.897461 0.07135
vt 0.897461 0.070068
vt 0.894531 0.07135
vt 0.894531 0.070068
vt 0.891602 0.07135
vt 0.891602 0.070068
vt 0.88916 0.070068
vt 0.88916 0.07135
vt 0.88623 0.070068
vt 0.88623 0.07135
vt 0.883301 0.070068
vt 0.883301 0.07135
vt 0.880371 0.07135
vn -0.5696 -0.8207 0.0449
vn -0.7061 -0.7047 -0.0695
vn -0.5534 -0.8301 -0.0681
vn -0.3923 -0.9176 0.0645
vn -0.4024 -0.5624 0.7224
vn -0.5142 -0.4892 0.7045
vn -0.2853 -0.6524 0.7021
vn -0.7184 -0.6942 0.0456
vn -0.6097 -0.344 0.7141
vn -0.316 -0.9467 0.0622
vn -0.229 -0.6636 0.7122
vn -0.2989 -0.9543 0
vn -0.3923 -0.9176 -0.0645
vn -0.3875 -0.8242 0.4129
vn -0.837 -0.5454 0.0446
vn -0.6702 -0.2589 0.6956
vn -0.5968 -0.6752 0.4335
vn -0.9373 -0.3426 0.063
vn -0.7017 -0.1239 0.7017
vn -0.829 -0.555 -0.0681
vn -0.8084 -0.4154 0.417
vn -0.9276 -0.3681 -0.0638
vn -0.983 -0.1745 0.057
vn -0.9766 -0.2 -0.0785
vn -0.9987 0.0156 0.0488
vn -0.7069 0.0239 0.7069
vn -0.7115 0.1465 0.6873
vn -0.9809 0.1905 0.039
vn -0.9325 0.3586 0.043
vn -0.678 0.2837 0.678
vn -0.9824 0.1587 -0.0981
vn -0.9963 0.0011 -0.0858
vn -0.9056 -0.0666 0.4188
vn -0.8806 0.2694 0.3899
vn -0.9227 0.3753 -0.0881
vn -0.8291 0.5587 0.0235
vn -0.6136 0.3734 0.6958
vn -0.8395 0.5353 -0.0933
vn -0.7069 0.7069 0.0239
vn -0.5186 0.5186 0.6797
vn -0.7236 0.5621 0.4005
vn -0.7155 0.692 -0.0955
vn -0.5587 0.8291 0.0235
vn -0.402 0.5906 0.6997
vn -0.5882 0.8032 -0.0944
vn -0.3872 0.921 0.0436
vn -0.2873 0.6757 0.6789
vn -0.4016 0.9115 -0.0891
vn -0.4442 0.8067 0.3897
vn -0.2272 0.9684 -0.1028
vn -0.2154 0.9757 0.0397
vn -0.1465 0.7115 0.6873
vn -0.0175 0.9993 0.0339
vn 0.0014 0.7181 0.696
vn 0.1206 0.7254 0.6777
vn 0.2589 0.694 0.6718
vn 0.3618 0.9313 0.0431
vn 0.1932 0.9804 0.0391
vn 0.0011 0.9963 -0.0858
vn 0.1809 0.9784 -0.0997
vn 0.2417 0.8911 0.384
vn -0.0891 0.9115 0.4016
vn 0.339 0.7825 0.5222
vn 0.1174 0.8477 0.5173
vn 0.0233 0.8457 0.5332
vn 0.1898 0.9816 -0.0198
vn -0.0169 0.9999 0.001
vn -0.1962 0.8166 0.5429
vn -0.2077 0.9782 0.0012
vn -0.3117 0.7784 0.545
vn -0.3976 0.9175 0.0013
vn -0.4914 0.6793 0.5451
vn -0.5768 0.8169 0.0014
vn -0.5757 0.6297 0.5216
vn -0.729 0.6841 -0.0239
vn -0.7262 0.4284 0.5376
vn -0.8457 0.5332 -0.0233
vn -0.7651 0.3687 0.5279
vn -0.9357 0.352 -0.0218
vn -0.8384 0.1429 0.526
vn -0.9859 0.166 -0.0195
vn -1 -0.001 0
vn -0.8457 0.0233 0.5332
vn -0.9825 -0.1862 0
vn -0.8081 -0.1704 0.5639
vn -0.7889 -0.252 0.5604
vn -0.928 -0.3725 0
vn -0.6791 -0.46 0.572
vn -0.8364 -0.5481 0
vn -0.6317 -0.549 0.5473
vn -0.7188 -0.6953 0
vn -0.5746 -0.8184 0
vn -0.4618 -0.6777 0.5723
vn -0.3956 -0.9184 0
vn -0.3727 -0.7406 0.5591
vn -0.2924 -0.9393 0.1793
vn -0.0214 -0.4556 0.8899
vn 0.0212 -0.4301 0.9025
vn 0.1465 0.7115 0.6873
vn -0.2307 0.6608 0.7142
vn 0.1074 0.9476 0.3008
vn 0.2554 0.9259 0.2782
vn 0.1729 0.7205 0.6716
vn 0 -0.9999 0.0159
vn 0.0883 -0.9959 0.0172
vn -0.0373 -0.1715 0.9845
vn 0.0868 -0.9962 0
vn -0.1024 -0.2011 0.9742
vn 0.2237 0.4916 0.8416
vn -0.2099 -0.9775 0.0189
vn 0 -1 0
vn 0.0652 -0.9059 -0.4183
vn 0 -0.8952 -0.4456
vn -0.191 -0.8829 -0.429
vn -0.2061 -0.9785 0
vn -0.3616 -0.8232 -0.4378
vn -0.5067 -0.7485 -0.4277
vn -0.4031 -0.9149 0.0209
vn -0.6511 -0.6227 -0.434
vn -0.5849 -0.8108 0.0222
vn -0.1187 -0.1369 0.9835
vn 0.2842 0.5668 0.7733
vn 0.6853 0.6562 0.3159
vn 0.3281 0.9148 0.2356
vn 0.5953 0.4352 0.6754
vn -0.3447 -0.319 0.8829
vn 0.6136 0.3734 0.6958
vn -0.7297 -0.6834 0.0225
vn -0.1764 -0.0785 0.9812
vn 0.4942 0.2205 0.8409
vn -0.8461 -0.5326 0.0219
vn -0.7472 -0.5085 -0.4279
vn -0.8391 -0.3303 -0.4321
vn -0.9348 -0.3547 0.0205
vn -0.2409 -0.0609 0.9686
vn 0.5799 0.2285 0.782
vn -0.8823 -0.1926 -0.4294
vn -0.9855 -0.1685 0.0183
vn -0.2101 -0.0201 0.9775
vn 0.6869 -0.1498 0.7111
vn -0.8942 0.0013 -0.4477
vn -0.8772 0.1649 -0.451
vn -0.4818 0.0229 0.876
vn 0.6798 -0.2033 0.7046
vn -0.9997 0.0171 0.0151
vn -0.1928 0.0367 0.9806
vn 0.4648 -0.2218 0.8572
vn -0.983 0.1838 0.0011
vn -0.8354 0.3045 -0.4575
vn -0.2468 0.0823 0.9656
vn 0.5365 -0.2824 0.7952
vn -0.9291 0.3699 0.0013
vn -0.7496 0.4794 -0.4564
vn -0.1809 0.0997 0.9784
vn 0.3752 -0.6139 0.6945
vn -0.6524 0.5988 -0.4646
vn -0.3475 0.3475 0.8709
vn -0.836 0.5487 0.0014
vn 0.3458 -0.6084 0.7144
vn -0.7181 0.696 0.0014
vn -0.1195 0.1614 0.9796
vn 0.1696 -0.5073 0.8449
vn -0.5871 0.8092 -0.0236
vn -0.5127 0.7251 -0.4596
vn -0.1028 0.2272 0.9684
vn 0.1729 -0.59 0.7887
vn -0.4052 0.914 -0.0223
vn -0.3633 0.805 -0.4689
vn -0.0591 0.1967 0.9787
vn -0.1745 -0.6721 0.7196
vn -0.2115 0.9772 -0.0201
vn -0.1914 0.8679 -0.4584
vn -0.0172 0.9997 -0.0172
vn -0.0229 0.876 -0.4818
vn 0.1649 0.8772 -0.451
vn 0.1864 0.9825 0.0011
vn 0.0201 0.2088 0.9778
vn 0.0013 0.4983 0.867
vn -0.2016 -0.6809 0.7041
vn -0.285 -0.9065 0.3115
vn -0.063 -0.9379 0.3411
vn -0.2457 -0.4444 0.8615
vn -0.3628 -0.8935 0.2646
vn 0.0823 0.2468 0.9656
vn -0.3078 -0.5156 0.7996
vn 0.0997 0.1809 0.9784
vn -0.6153 -0.3734 0.6942
vn -0.7144 -0.6084 0.3458
vn 0.3228 0.3717 0.8704
vn -0.631 -0.3155 0.7087
vn 0.159 0.122 0.9797
vn -0.8527 -0.4279 0.2997
vn 0.2272 0.1028 0.9684
vn -0.506 -0.1712 0.8454
vn -0.8927 -0.3645 0.2648
vn 0.1967 0.0591 0.9787
vn -0.5911 -0.1713 0.7882
vn -0.947 0.0635 0.3148
vn 0.4546 -0.0227 0.8904
vn -0.9259 0.2554 0.2782
vn -0.7051 0.1999 0.6803
vn 0.1703 -0.0385 0.9846
vn 0.2218 -0.081 0.9717
vn -0.4942 0.2205 0.8409
vn -0.9148 0.3281 0.2356
vn 0.1573 -0.098 0.9827
vn -0.5668 0.2842 0.7733
vn -0.6293 0.7102 0.3155
vn -0.4029 0.6218 0.6716
vn 0.3205 -0.3432 0.8829
vn -0.3734 0.6136 0.6958
vn 0.0992 -0.1561 0.9827
vn -0.4804 0.8317 0.2783
vn 0.0797 -0.223 0.9716
vn -0.1948 0.5148 0.8349
vn 0.0596 -0.2421 0.9684
vn -0.4161 0.8757 0.2448
vn -0.1975 0.5741 0.7946
vn -0.8988 0.4161 0.1377
vn 0.001 0.0149 0.9999
vn 0.0546 0.0902 0.9944
vn 0 -0.001 1
vn 0.0858 0.0011 0.9963
vn 0.0525 -0.0711 0.9961
vn -0.0151 0.0171 0.9997
vn -0.0169 -0.0688 0.9975
vn -0.0701 -0.0536 0.9961
vn -0.0159 -0.001 0.9999
vn -0.1043 0.0011 0.9945
vn -0.0724 0.0724 0.9947
vn 0.0011 0.1043 0.9945
vn -0.0161 -0.0151 -0.9998
vn 0 -0.001 -1
vn -0.0528 0.0528 -0.9972
vn -0.0872 0.0183 -0.996
vn -0.035 0.052 -0.998
vn -0.0858 0.0011 -0.9963
vn -0.0159 -0.001 -0.9999
vn -0.0882 -0.0161 -0.996
vn -0.0701 -0.0536 -0.9961
vn -0.0525 -0.0711 -0.9961
vn -0.0172 -0.0871 -0.996
vn 0 -0.0169 -0.9999
vn 0.0172 -0.0871 -0.996
vn 0.0011 0.0858 -0.9963
vn 0.1168 -0.46 -0.8802
vn -0.0659 -0.4462 -0.8925
vn -0.2431 -0.4157 -0.8764
vn 0.0356 0.0701 -0.9969
vn -0.0385 -0.2151 -0.9758
vn -0.3684 -0.2944 -0.8818
vn 0.0528 0.0528 -0.9972
vn 0.0689 0.018 -0.9975
vn -0.4612 -0.1153 -0.8798
vn 0.0689 -0.0355 -0.997
vn -0.4562 0.0227 -0.8896
vn -0.4089 0.214 -0.8871
vn 0.0701 -0.0536 -0.9961
vn 0.035 -0.0886 -0.9955
vn -0.1826 -0.1213 -0.9757
vn -0.3145 0.3145 -0.8957
vn -0.1226 -0.1814 -0.9757
vn -0.6297 -0.49 -0.6028
vn -0.2178 -0.06 -0.9741
vn -0.3753 -0.693 -0.6156
vn -0.761 -0.2261 -0.6081
vn -0.2281 -0.0012 -0.9736
vn -0.2169 -0.1969 -0.9561
vn -0.0933 -0.7828 -0.6152
vn 0.2279 -0.76 -0.6086
vn 0.0587 -0.219 -0.974
vn 0.1226 -0.1814 -0.9757
vn 0.2929 -0.3699 -0.8817
vn 0.1826 -0.1213 -0.9757
vn 0.3917 -0.2696 -0.8797
vn 0.214 -0.0397 -0.976
vn 0.4451 -0.0673 -0.8929
vn 0.1967 0.0591 -0.9787
vn 0.4358 0.1142 -0.8928
vn 0.159 0.122 -0.9797
vn 0.3381 0.2904 -0.8952
vn 0.2171 0.4062 -0.8876
vn 0.0997 0.1809 -0.9784
vn 0.0201 0.2088 -0.9778
vn 0.0445 0.4387 -0.8976
vn -0.1377 0.4161 -0.8988
vn -0.0786 0.1778 -0.9809
vn -0.1393 0.1418 -0.98
vn -0.2585 0.7216 -0.6423
vn -0.5216 0.5757 -0.6297
vn 0.0706 0.7711 -0.6328
vn -0.2002 0.0798 -0.9765
vn 0.0209 0.2797 -0.9599
vn 0.3447 0.691 -0.6354
vn 0.1253 0.2312 -0.9648
vn -0.691 0.3447 -0.6354
vn -0.7825 0.0439 -0.6212
vn -0.2978 0.0012 -0.9546
vn -0.2917 -0.0627 -0.9545
vn 0.3863 0.0409 -0.9215
vn -0.2512 0.1043 -0.9623
vn 0.2356 0.3281 -0.9148
vn 0.3112 -0.2833 -0.9071
vn -0.15 -0.2355 -0.9602
vn -0.0435 0.384 -0.9223
vn -0.1935 0.1909 -0.9623
vn -0.0823 0.2468 -0.9656
vn 0.0212 -0.4301 -0.9025
vn -0.0401 -0.2846 -0.9578
vn 0.0614 -0.2929 -0.9542
vn -0.261 -0.3328 -0.9061
vn 0.1935 0.1909 -0.9623
vn -0.1986 -0.2435 -0.9494
vn 0.02 -0.303 -0.9528
vn -0.4112 -0.0441 -0.9105
vn 0.266 0.0618 -0.962
vn 0.2205 -0.2218 -0.9498
vn 0.2797 0.0209 -0.9599
vn 0.1724 0.2392 -0.9555
vn 0.2858 -0.0389 -0.9575
vn -0.3042 -0.0187 -0.9524
vn 0.2342 -0.1513 -0.9604
vn -0.2392 0.1724 -0.9555
vn -0.0409 0.2612 -0.9644
vn -0.3281 0.2356 -0.9148
vn 0.1739 -0.2395 -0.9552
vn -0.0903 -0.8729 0.4795
vn 0.0652 -0.9059 0.4183
vn -0.0169 -0.9976 -0.0677
vn 0.1986 -0.9769 -0.0784
vn 0.1951 -0.9791 0.0578
vn -0.0978 -0.9859 -0.1359
vn 0 -0.9988 0.0492
vn -0.1109 -0.9923 0.0543
vn -0.0695 -0.7047 0.7061
vn -0.0225 -0.6834 0.7297
vn 0.1223 -0.7025 0.7011
vn 0.3665 -0.9282 0.0637
vn 0.2571 -0.6713 0.6951
vn -0.0449 -0.8207 0.5696
vn -0.0939 -0.7178 0.6899
vn -0.1054 -0.9944 0
vn 0.172 -0.8074 0.5644
vn 0.1883 -0.9819 0.0186
vn 0.4173 -0.8073 0.4173
vn 0.2825 -0.7729 0.5682
vn 0.4918 -0.6282 -0.6029
vn 0.6732 -0.4029 -0.6201
vn 0.7822 -0.0949 -0.6158
vn 0.7379 0.2303 -0.6345
vn 0.6014 0.4936 -0.6283
vn 0.8317 0.4804 0.2783
vn 0.8775 0.4125 0.2445
vn 0.9377 -0.0644 0.3415
vn 0.9168 -0.2559 0.3066
vn 0.9061 -0.3328 0.261
vn 0.6101 -0.7129 0.3458
vn 0.4553 -0.8374 0.3025
vn 0.3913 -0.8804 0.2679
vn 0.5487 0.836 0.0014
vn 0.5587 0.8291 -0.0235
vn 0.3729 0.9279 0.0013
vn 0.696 0.7181 0.0014
vn 0.819 0.5737 -0.0014
vn 0.38 0.9247 -0.022
vn 0.3337 0.8209 -0.4634
vn 0.4831 0.747 -0.4568
vn 0.626 0.626 -0.4649
vn 0.7069 0.7069 -0.0239
vn 0.8291 0.5587 -0.0235
vn 0.7279 0.5091 -0.4593
vn 0.9189 0.3945 -0.0013
vn 0.926 0.3769 -0.022
vn 0.8209 0.3337 -0.4634
vn 0.9788 0.205 -0.0012
vn 0.9821 0.1871 -0.0198
vn 0.8679 0.1914 -0.4584
vn 0.9999 -0.001 -0.0159
vn 0.8811 0.0013 -0.473
vn 0.9999 0.0149 -0.001
vn 0.8726 -0.2196 -0.4363
vn 0.9817 -0.1896 0.0186
vn 0.9782 -0.2075 0
vn 0.8241 -0.3598 -0.4374
vn 0.9177 -0.3972 0
vn 0.7249 -0.5379 -0.4303
vn 0.9249 -0.3796 0.0207
vn 0.8173 -0.5762 0
vn 0.6244 -0.6494 -0.4341
vn 0.8274 -0.5612 0.0221
vn 0.6967 -0.7174 0
vn 0.7076 -0.7062 0.0225
vn 0.5497 -0.8354 0
vn 0.477 -0.7694 -0.4247
vn 0.5596 -0.8284 0.0221
vn 0.378 -0.9256 0.0207
vn 0.371 -0.9287 0
vn 0.3322 -0.8382 -0.4324
vn 0.2757 -0.9612 0
vn 0.2455 -0.8624 -0.4426
vn 0.2808 -0.9596 0.0197
vn 0.9276 -0.3681 0.0638
vn 0.8196 -0.5712 0.0449
vn 0.9052 -0.42 -0.0652
vn 0.5873 -0.3724 0.7186
vn 0.6512 -0.2871 0.7025
vn 0.4875 -0.5158 0.7045
vn 0.9788 -0.1965 0.0579
vn 0.6956 -0.717 0.0456
vn 0.3742 -0.5859 0.7188
vn 0.6796 -0.7303 -0.0694
vn 0.5438 -0.838 0.0446
vn 0.811 -0.5811 -0.0685
vn 0.5534 -0.8301 -0.0681
vn 0.7014 -0.5668 0.4322
vn 0.3665 -0.9282 -0.0637
vn 0.8653 -0.2727 0.4205
vn 0.9766 -0.2 -0.0785
vn 0.997 -0.0355 -0.0689
vn 0.9993 0.0154 0.0338
vn 0.696 0.0014 0.7181
vn 0.6964 0.173 0.6964
vn 0.9757 0.2154 0.0397
vn 0.6562 0.3159 0.6853
vn 0.9223 0.384 0.0435
vn 0.5906 0.402 0.6997
vn 0.9738 0.2038 -0.1013
vn 0.8114 0.584 0.0236
vn 0.924 0.3721 -0.0879
vn 0.4914 0.5451 0.6793
vn 0.9056 0.113 0.4088
vn 0.6841 0.729 0.0239
vn 0.3734 0.6136 0.6958
vn 0.8219 0.5619 -0.0939
vn 0.7879 0.474 0.3931
vn 0.692 0.7155 -0.0955
vn 0.5621 0.7236 0.4005
vn 0.5353 0.8395 -0.0933
vn 0.5332 0.8457 0.0233
vn 0.3753 0.9227 -0.0881
vn 0.4284 0.7262 0.5376
vn 0.6031 0.6031 0.522
vn 0.6553 0.5205 0.5475
vn 0.7784 0.3117 0.545
vn 0.8023 0.2273 0.5519
vn 0.828 -0.0235 0.5603
vn 0.8192 -0.144 0.5551
vn 0.7422 -0.3744 0.5558
vn 0.7016 -0.4339 0.5653
vn 0.5472 -0.6333 0.5472
vn 0.4617 -0.6808 0.5687
o shell1__p1_c0
f 1/1/1 2/2/2 3/3/3
f 1/1/1 3/3/3 4/4/4
f 1/1/1 4/4/4 5/5/5
f 1/1/1 5/5/5 6/6/6
f 5/5/5 4/4/4 7/7/7
f 1/1/1 6/6/6 8/8/8
f 1/1/1 8/8/8 2/2/2
f 8/8/8 6/6/6 9/9/9
f 7/7/7 4/4/4 10/10/10
f 7/7/7 10/10/10 11/11/11
f 10/10/10 4/4/4 12/12/12
f 12/12/12 4/4/4 13/13/13
f 13/13/13 4/4/4 3/3/3
f 12/12/12 13/13/13 14/14/14
f 8/8/8 9/9/9 15/15/15
f 8/8/8 15/15/15 2/2/2
f 15/15/15 9/9/9 16/16/16
f 13/13/13 3/3/3 17/17/17
f 13/13/13 17/17/17 14/14/14
f 17/17/17 3/3/3 2/2/2
f 15/15/15 16/16/16 18/18/18
f 18/18/18 16/16/16 19/19/19
f 2/2/2 15/15/15 20/20/20
f 20/20/20 15/15/15 18/18/18
f 2/2/2 20/20/20 21/21/21
f 2/2/2 21/21/21 17/17/17
f 20/20/20 18/18/18 22/22/22
f 20/20/20 22/22/22 21/21/21
f 18/18/18 19/19/19 23/23/23
f 22/22/22 18/18/18 24/24/24
f 24/24/24 18/18/18 23/23/23
f 22/22/22 24/24/24 21/21/21
f 23/23/23 19/19/19 25/25/25
f 23/23/23 25/25/25 24/24/24
f 25/25/25 19/19/19 26/26/26
f 25/25/25 26/26/26 27/27/27
f 25/25/25 27/27/27 28/28/28
f 28/28/28 27/27/27 29/29/29
f 29/29/29 27/27/27 30/30/30
f 25/25/25 28/28/28 31/31/31
f 31/31/31 28/28/28 29/29/29
f 32/32/32 24/24/24 25/25/25
f 32/32/32 25/25/25 31/31/31
f 24/24/24 32/32/32 33/33/33
f 24/24/24 33/33/33 21/21/21
f 32/32/32 31/31/31 34/34/34
f 32/32/32 34/34/34 33/33/33
f 31/31/31 29/29/29 35/35/35
f 31/31/31 35/35/35 34/34/34
f 36/36/36 29/29/29 30/30/30
f 36/36/36 30/30/30 37/37/37
f 35/35/35 29/29/29 38/38/38
f 38/38/38 29/29/29 36/36/36
f 36/36/36 37/37/37 39/39/39
f 36/36/36 39/39/39 38/38/38
f 39/39/39 37/37/37 40/40/40
f 35/35/35 38/38/38 41/41/41
f 35/35/35 41/41/41 34/34/34
f 38/38/38 39/39/39 42/42/42
f 38/38/38 42/42/42 41/41/41
f 39/39/39 40/40/40 43/43/43
f 43/43/43 40/40/40 44/44/44
f 42/42/42 39/39/39 45/45/45
f 45/45/45 39/39/39 43/43/43
f 43/43/43 44/44/44 46/46/46
f 43/43/43 46/46/46 45/45/45
f 46/46/46 44/44/44 47/47/47
f 45/45/45 46/46/46 48/48/48
f 42/42/42 45/45/45 49/49/49
f 49/49/49 45/45/45 48/48/48
f 42/42/42 49/49/49 41/41/41
f 48/48/48 46/46/46 50/50/50
f 48/48/48 50/50/50 49/49/49
f 46/46/46 47/47/47 51/51/51
f 46/46/46 51/51/51 50/50/50
f 51/51/51 47/47/47 52/52/52
f 51/51/51 52/52/52 53/53/53
f 51/51/51 53/53/53 50/50/50
f 53/53/53 52/52/52 54/54/54
f 53/53/53 54/54/54 55/55/55
f 56/56/56 57/57/57 55/55/55
f 55/55/55 57/57/57 58/58/58
f 55/55/55 58/58/58 53/53/53
f 53/53/53 58/58/58 59/59/59
f 53/53/53 59/59/59 50/50/50
f 59/59/59 58/58/58 60/60/60
f 59/59/59 60/60/60 61/61/61
f 50/50/50 59/59/59 62/62/62
f 62/62/62 59/59/59 61/61/61
f 50/50/50 62/62/62 49/49/49
f 63/63/63 64/64/64 61/61/61
f 61/61/61 64/64/64 65/65/65
f 61/61/61 65/65/65 62/62/62
f 65/65/65 64/64/64 66/66/66
f 65/65/65 66/66/66 67/67/67
f 62/62/62 65/65/65 68/68/68
f 68/68/68 65/65/65 67/67/67
f 62/62/62 68/68/68 49/49/49
f 68/68/68 67/67/67 69/69/69
f 68/68/68 69/69/69 70/70/70
f 68/68/68 70/70/70 49/49/49
f 70/70/70 69/69/69 71/71/71
f 49/49/49 70/70/70 72/72/72
f 72/72/72 70/70/70 71/71/71
f 72/72/72 71/71/71 73/73/73
f 49/49/49 72/72/72 41/41/41
f 72/72/72 73/73/73 74/74/74
f 72/72/72 74/74/74 41/41/41
f 74/74/74 73/73/73 75/75/75
f 74/74/74 75/75/75 76/76/76
f 74/74/74 76/76/76 41/41/41
f 76/76/76 75/75/75 77/77/77
f 41/41/41 76/76/76 78/78/78
f 78/78/78 76/76/76 77/77/77
f 41/41/41 78/78/78 34/34/34
f 78/78/78 77/77/77 79/79/79
f 34/34/34 78/78/78 80/80/80
f 80/80/80 78/78/78 79/79/79
f 80/80/80 79/79/79 81/81/81
f 34/34/34 80/80/80 33/33/33
f 80/80/80 81/81/81 82/82/82
f 80/80/80 82/82/82 83/83/83
f 80/80/80 83/83/83 33/33/33
f 83/83/83 82/82/82 84/84/84
f 33/33/33 83/83/83 85/85/85
f 85/85/85 83/83/83 84/84/84
f 33/33/33 85/85/85 21/21/21
f 85/85/85 84/84/84 86/86/86
f 85/85/85 86/86/86 21/21/21
f 86/86/86 84/84/84 87/87/87
f 86/86/86 87/87/87 88/88/88
f 86/86/86 88/88/88 21/21/21
f 88/88/88 87/87/87 89/89/89
f 21/21/21 88/88/88 90/90/90
f 90/90/90 88/88/88 89/89/89
f 90/90/90 89/89/89 91/91/91
f 21/21/21 90/90/90 17/17/17
f 90/90/90 91/91/91 92/92/92
f 90/90/90 92/92/92 93/93/93
f 90/90/90 93/93/93 17/17/17
f 93/93/93 92/92/92 94/94/94
f 17/17/17 93/93/93 95/95/95
f 95/95/95 93/93/93 94/94/94
f 17/17/17 95/95/95 14/14/14
f 14/14/14 95/95/95 96/96/96
f 96/96/96 95/95/95 94/94/94
f 96/96/96 94/94/94 97/97/12
f 98/98/97 99/99/98 100/100/99
f 100/100/99 99/99/98 101/101/100
f 100/100/99 101/101/100 102/102/101
f 100/100/99 102/102/101 103/103/102
f 98/98/97 100/100/99 104/104/103
f 99/99/98 98/98/97 105/105/104
f 99/99/98 105/105/104 106/106/105
f 98/98/97 104/104/103 107/107/106
f 98/98/97 107/107/106 105/105/104
f 106/106/105 105/105/104 108/108/107
f 107/107/106 104/104/103 109/109/108
f 109/109/108 104/104/103 110/110/109
f 105/105/104 107/107/106 111/111/110
f 111/111/110 107/107/106 109/109/108
f 108/108/107 105/105/104 112/112/111
f 108/108/107 112/112/111 113/113/112
f 113/113/112 112/112/111 114/114/113
f 114/114/113 112/112/111 11/115/114
f 112/112/111 105/105/104 115/116/115
f 112/112/111 115/116/115 11/115/114
f 115/116/115 105/105/104 111/111/110
f 11/115/114 115/116/115 7/117/116
f 7/117/116 115/116/115 116/118/94
f 116/118/94 115/116/115 111/111/110
f 7/117/116 116/118/94 5/119/117
f 116/118/94 111/111/110 117/120/118
f 117/120/118 111/111/110 109/109/108
f 5/119/117 116/118/94 118/121/92
f 5/119/117 118/121/92 6/122/119
f 116/118/94 117/120/118 119/123/120
f 116/118/94 119/123/120 118/121/92
f 117/120/118 109/109/108 120/124/121
f 117/120/118 120/124/121 119/123/120
f 120/124/121 109/109/108 110/110/109
f 120/124/121 110/110/109 121/125/122
f 122/126/123 121/125/122 123/127/124
f 120/124/121 121/125/122 124/128/125
f 120/124/121 124/128/125 125/129/126
f 120/124/121 125/129/126 119/123/120
f 125/129/126 124/128/125 126/130/127
f 119/123/120 125/129/126 127/131/128
f 119/123/120 127/131/128 118/121/92
f 125/129/126 126/130/127 128/132/129
f 128/132/129 126/130/127 129/133/130
f 127/131/128 125/129/126 130/134/131
f 130/134/131 125/129/126 128/132/129
f 118/121/92 127/131/128 131/135/91
f 131/135/91 127/131/128 130/134/131
f 118/121/92 131/135/91 6/122/119
f 6/122/119 131/135/91 132/136/89
f 132/136/89 131/135/91 130/134/131
f 6/122/119 132/136/89 9/137/132
f 9/137/132 132/136/89 133/138/87
f 133/138/87 132/136/89 130/134/131
f 9/137/132 133/138/87 16/139/133
f 134/140/134 130/134/131 128/132/129
f 130/134/131 134/140/134 133/138/87
f 135/141/135 128/132/129 129/133/130
f 128/132/129 135/141/135 134/140/134
f 135/141/135 129/133/130 136/142/136
f 16/139/133 133/138/87 137/143/84
f 137/143/84 133/138/87 134/140/134
f 16/139/133 137/143/84 19/144/137
f 134/140/134 135/141/135 138/145/138
f 134/140/134 138/145/138 137/143/84
f 135/141/135 136/142/136 139/146/139
f 135/141/135 139/146/139 138/145/138
f 139/146/139 136/142/136 140/147/140
f 19/144/137 137/143/84 141/148/82
f 141/148/82 137/143/84 138/145/138
f 19/144/137 141/148/82 26/149/141
f 26/149/141 141/148/82 27/150/142
f 139/146/139 140/147/140 142/151/143
f 142/151/143 140/147/140 143/152/144
f 144/153/145 138/145/138 139/146/139
f 144/153/145 139/146/139 142/151/143
f 138/145/138 144/153/145 141/148/82
f 142/151/143 143/152/144 145/154/146
f 142/151/143 145/154/146 144/153/145
f 145/154/146 143/152/144 146/155/147
f 141/148/82 144/153/145 147/156/148
f 147/156/148 144/153/145 145/154/146
f 148/157/81 27/150/142 141/148/82
f 148/157/81 141/148/82 147/156/148
f 30/158/149 27/150/142 148/157/81
f 149/159/150 145/154/146 146/155/147
f 145/154/146 149/159/150 147/156/148
f 149/159/150 146/155/147 150/160/151
f 151/161/152 148/157/81 147/156/148
f 151/161/152 147/156/148 149/159/150
f 30/158/149 148/157/81 152/162/79
f 152/162/79 148/157/81 151/161/152
f 30/158/149 152/162/79 37/163/153
f 149/159/150 150/160/151 153/164/154
f 149/159/150 153/164/154 151/161/152
f 153/164/154 150/160/151 154/165/155
f 37/163/153 152/162/79 155/166/77
f 155/166/77 152/162/79 151/161/152
f 37/163/153 155/166/77 40/167/156
f 153/164/154 154/165/155 156/168/157
f 151/161/152 153/164/154 157/169/158
f 151/161/152 157/169/158 155/166/77
f 157/169/158 153/164/154 156/168/157
f 156/168/157 154/165/155 158/170/159
f 157/169/158 156/168/157 159/171/160
f 155/166/77 157/169/158 160/172/75
f 160/172/75 157/169/158 159/171/160
f 155/166/77 160/172/75 40/167/156
f 159/171/160 156/168/157 161/173/73
f 159/171/160 161/173/73 160/172/75
f 156/168/157 158/170/159 162/174/161
f 156/168/157 162/174/161 161/173/73
f 162/174/161 158/170/159 163/175/162
f 40/167/156 160/172/75 164/176/163
f 164/176/163 160/172/75 161/173/73
f 40/167/156 164/176/163 44/177/164
f 161/173/73 162/174/161 165/178/71
f 161/173/73 165/178/71 164/176/163
f 162/174/161 163/175/162 166/179/165
f 162/174/161 166/179/165 165/178/71
f 166/179/165 163/175/162 167/180/166
f 44/177/164 164/176/163 168/181/167
f 168/181/167 164/176/163 165/178/71
f 44/177/164 168/181/167 47/182/168
f 165/178/71 166/179/165 169/183/69
f 165/178/71 169/183/69 168/181/167
f 166/179/165 167/180/166 170/184/169
f 166/179/165 170/184/169 169/183/69
f 170/184/169 167/180/166 171/185/170
f 47/182/168 168/181/167 172/186/171
f 172/186/171 168/181/167 169/183/69
f 47/182/168 172/186/171 52/187/172
f 52/187/172 172/186/171 173/188/173
f 173/188/173 172/186/171 169/183/69
f 52/187/172 173/188/173 54/189/174
f 54/189/174 173/188/173 55/190/175
f 55/190/175 173/188/173 174/191/66
f 174/191/66 173/188/173 175/192/176
f 173/188/173 169/183/69 176/193/67
f 173/188/173 176/193/67 175/192/176
f 176/193/67 169/183/69 170/184/169
f 175/192/176 176/193/67 177/194/177
f 176/193/67 170/184/169 178/195/178
f 176/193/67 178/195/178 177/194/177
f 178/195/178 170/184/169 171/185/170
f 177/194/177 178/195/178 179/196/179
f 179/196/179 178/195/178 171/185/170
f 179/196/179 171/185/170 180/197/180
f 180/197/180 171/185/170 181/198/181
f 177/194/177 179/196/179 182/199/182
f 182/199/182 179/196/179 180/197/180
f 182/199/182 180/197/180 183/200/183
f 177/194/177 182/199/182 184/201/184
f 182/199/182 183/200/183 185/202/185
f 182/199/182 185/202/185 184/201/184
f 184/201/184 185/202/185 186/203/186
f 186/203/186 185/202/185 187/204/187
f 187/204/187 185/202/185 188/205/188
f 186/203/186 187/204/187 189/206/189
f 187/204/187 188/205/188 190/207/190
f 187/204/187 190/207/190 189/206/189
f 189/206/189 190/207/190 191/208/191
f 190/207/190 188/205/188 192/209/192
f 191/208/191 190/207/190 193/210/193
f 190/207/190 192/209/192 194/211/194
f 190/207/190 194/211/194 193/210/193
f 194/211/194 192/209/192 195/212/195
f 193/210/193 194/211/194 196/213/196
f 194/211/194 195/212/195 197/214/197
f 194/211/194 197/214/197 196/213/196
f 197/214/197 195/212/195 198/215/198
f 196/213/196 197/214/197 199/216/27
f 199/216/27 197/214/197 198/215/198
f 196/213/196 199/216/27 200/217/199
f 199/216/27 198/215/198 201/218/200
f 200/217/199 199/216/27 202/219/201
f 202/219/201 199/216/27 201/218/200
f 200/217/199 202/219/201 203/220/202
f 203/220/202 202/219/201 204/221/203
f 202/219/201 201/218/200 205/222/204
f 202/219/201 205/222/204 204/221/203
f 205/222/204 201/218/200 206/223/205
f 204/221/203 205/222/204 207/224/206
f 205/222/204 206/223/205 208/225/207
f 205/222/204 208/225/207 207/224/206
f 208/225/207 206/223/205 209/226/208
f 207/224/206 208/225/207 210/227/209
f 210/227/209 208/225/207 209/226/208
f 207/224/206 210/227/209 211/228/210
f 210/227/209 209/226/208 212/229/211
f 210/227/209 212/229/211 211/228/210
f 211/228/210 212/229/211 213/230/212
f 212/229/211 209/226/208 214/231/213
f 213/230/212 212/229/211 215/232/214
f 212/229/211 214/231/213 216/233/215
f 212/229/211 216/233/215 215/232/214
f 215/232/214 216/233/215 99/234/216
f 216/233/215 214/231/213 217/235/217
f 99/234/216 216/233/215 101/236/218
f 101/236/218 216/233/215 217/235/217
f 101/236/218 217/235/217 102/237/219
f 192/238/220 188/239/221 183/240/220
f 192/238/220 183/240/220 195/241/222
f 201/242/222 198/243/223 195/241/222
f 201/242/222 195/241/222 206/244/222
f 206/244/222 195/241/222 183/240/220
f 214/245/222 209/246/224 206/244/222
f 214/245/222 206/244/222 217/247/225
f 217/247/225 206/244/222 183/240/220
f 103/248/225 102/249/226 217/247/225
f 103/248/225 217/247/225 123/250/225
f 218/251/225 122/252/227 123/250/225
f 218/251/225 123/250/225 219/253/228
f 220/254/228 221/255/229 219/253/228
f 220/254/228 219/253/228 222/256/228
f 222/256/228 219/253/228 123/250/225
f 222/256/228 123/250/225 217/247/225
f 223/257/228 224/258/230 222/256/228
f 223/257/228 222/256/228 225/259/220
f 225/259/220 222/256/228 217/247/225
f 225/259/220 217/247/225 183/240/220
f 225/259/220 183/240/220 180/260/220
f 225/259/220 180/260/220 181/261/231
f 226/262/232 227/263/233 228/264/233
f 226/262/232 228/264/233 229/265/232
f 229/265/232 228/264/233 230/266/233
f 227/263/233 226/262/232 231/267/232
f 227/263/233 231/267/232 232/268/233
f 229/265/232 230/266/233 233/269/233
f 231/267/232 226/262/232 234/270/234
f 234/270/234 226/262/232 229/265/232
f 232/268/233 231/267/232 235/271/232
f 235/271/232 231/267/232 234/270/234
f 232/268/233 235/271/232 236/272/233
f 235/271/232 234/270/234 237/273/235
f 236/272/233 235/271/232 238/274/232
f 238/274/232 235/271/232 237/273/235
f 234/270/234 229/265/232 239/275/236
f 238/274/232 237/273/235 240/276/232
f 238/274/232 240/276/232 236/272/233
f 240/276/232 237/273/235 241/277/237
f 236/272/233 240/276/232 242/278/233
f 239/275/236 229/265/232 243/279/232
f 243/279/232 229/265/232 233/269/233
f 240/276/232 241/277/237 244/280/238
f 240/276/232 244/280/238 242/278/233
f 244/280/238 241/277/237 245/281/239
f 242/278/233 244/280/238 246/282/233
f 243/279/232 233/269/233 247/283/232
f 243/279/232 247/283/232 239/275/236
f 247/283/232 233/269/233 248/284/233
f 246/282/233 244/280/238 249/285/238
f 249/285/238 244/280/238 245/281/239
f 246/282/233 249/285/238 250/286/233
f 249/285/238 245/281/239 251/287/238
f 249/285/238 251/287/238 250/286/233
f 250/286/233 251/287/238 252/288/233
f 251/287/238 245/281/239 253/289/240
f 252/288/233 251/287/238 254/290/238
f 254/290/238 251/287/238 253/289/240
f 252/288/233 254/290/238 255/291/233
f 255/291/233 254/290/238 256/292/233
f 256/292/233 254/290/238 257/293/238
f 257/293/238 254/290/238 253/289/240
f 256/292/233 257/293/238 258/294/233
f 257/293/238 253/289/240 259/295/238
f 257/293/238 259/295/238 258/294/233
f 259/295/238 253/289/240 260/296/241
f 258/294/233 259/295/238 261/297/233
f 259/295/238 260/296/241 262/298/238
f 259/295/238 262/298/238 261/297/233
f 262/298/238 260/296/241 263/299/238
f 262/298/238 263/299/238 261/297/233
f 261/297/233 263/299/238 66/300/233
f 66/300/233 263/299/238 67/301/233
f 263/299/238 260/296/241 264/302/242
f 67/301/233 263/299/238 265/303/243
f 265/303/243 263/299/238 264/302/242
f 67/301/233 265/303/243 69/304/233
f 69/304/233 265/303/243 266/305/243
f 69/304/233 266/305/243 267/306/243
f 69/304/233 267/306/243 71/307/233
f 266/305/243 265/303/243 268/308/244
f 268/308/244 265/303/243 264/302/242
f 71/307/233 267/306/243 73/309/233
f 73/309/233 267/306/243 269/310/243
f 73/309/233 269/310/243 270/311/243
f 73/309/233 270/311/243 75/312/233
f 75/312/233 270/311/243 77/313/233
f 77/313/233 270/311/243 271/314/243
f 77/313/233 271/314/243 79/315/233
f 79/315/233 271/314/243 272/316/243
f 79/315/233 272/316/243 273/317/243
f 79/315/233 273/317/243 81/318/233
f 81/318/233 273/317/243 82/319/233
f 82/319/233 273/317/243 274/320/233
f 82/319/233 274/320/233 84/321/233
f 84/321/233 274/320/233 275/322/233
f 84/321/233 275/322/233 276/323/233
f 84/321/233 276/323/233 87/324/233
f 87/324/233 276/323/233 277/325/233
f 87/324/233 277/325/233 89/326/233
f 89/326/233 277/325/233 91/327/233
f 91/327/233 277/325/233 278/328/233
f 91/327/233 278/328/233 92/329/233
f 92/329/233 278/328/233 279/330/233
f 92/329/233 279/330/233 94/331/233
f 94/331/233 279/330/233 280/332/233
f 94/331/233 280/332/233 281/333/233
f 94/331/233 281/333/233 97/334/233
f 97/334/233 281/333/233 248/284/233
f 248/284/233 281/333/233 247/283/232
f 247/283/232 281/333/233 282/335/245
f 247/283/232 282/335/245 239/275/236
f 239/275/236 282/335/245 283/336/246
f 283/336/246 282/335/245 284/337/247
f 284/337/247 282/335/245 285/338/248
f 285/338/248 282/335/245 286/339/249
f 283/336/246 284/337/247 287/340/250
f 287/340/250 284/337/247 285/338/248
f 285/338/248 286/339/249 288/341/251
f 288/341/251 286/339/249 289/342/252
f 288/341/251 289/342/252 290/343/253
f 288/341/251 290/343/253 291/344/254
f 291/344/254 290/343/253 292/345/255
f 291/344/254 292/345/255 293/346/256
f 293/346/256 292/345/255 294/347/257
f 294/347/257 292/345/255 295/348/258
f 294/347/257 295/348/258 296/349/259
f 297/350/260 285/338/248 288/341/251
f 294/347/257 296/349/259 298/351/261
f 298/351/261 296/349/259 268/308/244
f 285/338/248 297/350/260 299/352/262
f 285/338/248 299/352/262 287/340/250
f 299/352/262 297/350/260 300/353/263
f 300/353/263 297/350/260 301/354/264
f 299/352/262 300/353/263 302/355/265
f 299/352/262 302/355/265 287/340/250
f 300/353/263 301/354/264 303/356/266
f 303/356/266 301/354/264 304/357/267
f 302/355/265 300/353/263 305/358/268
f 305/358/268 300/353/263 303/356/266
f 287/340/250 302/355/265 306/359/269
f 287/340/250 306/359/269 307/360/270
f 287/340/250 307/360/270 308/361/271
f 287/340/250 308/361/271 283/336/246
f 283/336/246 308/361/271 309/362/272
f 283/336/246 309/362/272 310/363/273
f 310/363/273 309/362/272 311/364/274
f 310/363/273 311/364/274 312/365/275
f 312/365/275 311/364/274 313/366/276
f 312/365/275 313/366/276 314/367/277
f 314/367/277 313/366/276 315/368/278
f 314/367/277 315/368/278 316/369/279
f 316/369/279 315/368/278 317/370/280
f 316/369/279 317/370/280 318/371/281
f 318/371/281 317/370/280 319/372/282
f 319/372/282 317/370/280 320/373/283
f 319/372/282 320/373/283 321/374/284
f 319/372/282 321/374/284 322/375/285
f 322/375/285 321/374/284 323/376/286
f 322/375/285 323/376/286 264/302/242
f 264/302/242 323/376/286 268/308/244
f 268/308/244 323/376/286 298/351/261
f 298/351/261 323/376/286 324/377/287
f 324/377/287 323/376/286 321/374/284
f 298/351/261 324/377/287 325/378/288
f 324/377/287 321/374/284 326/379/289
f 325/378/288 324/377/287 327/380/290
f 327/380/290 324/377/287 326/379/289
f 326/379/289 321/374/284 328/381/291
f 325/378/288 327/380/290 329/382/292
f 326/379/289 328/381/291 330/383/293
f 330/383/293 328/381/291 331/384/294
f 330/383/293 331/384/294 332/385/295
f 329/382/292 327/380/290 333/386/296
f 329/382/292 333/386/296 304/357/267
f 304/357/267 333/386/296 334/387/297
f 304/357/267 334/387/297 303/356/266
f 334/387/297 333/386/296 335/388/298
f 334/387/297 335/388/298 303/356/266
f 303/356/266 335/388/298 336/389/299
f 303/356/266 336/389/299 305/358/268
f 336/389/299 335/388/298 337/390/300
f 336/389/299 337/390/300 305/358/268
f 335/388/298 333/386/296 338/391/301
f 335/388/298 338/391/301 337/390/300
f 338/391/301 333/386/296 327/380/290
f 305/358/268 337/390/300 339/392/302
f 337/390/300 338/391/301 340/393/303
f 305/358/268 339/392/302 341/394/304
f 305/358/268 341/394/304 302/355/265
f 341/394/304 339/392/302 342/395/305
f 338/391/301 327/380/290 343/396/306
f 338/391/301 343/396/306 340/393/303
f 343/396/306 327/380/290 326/379/289
f 340/393/303 343/396/306 344/397/307
f 344/397/307 343/396/306 326/379/289
f 344/397/307 326/379/289 330/383/293
f 340/393/303 344/397/307 345/398/308
f 345/398/308 344/397/307 330/383/293
f 346/399/309 302/355/265 341/394/304
f 346/399/309 341/394/304 342/395/305
f 302/355/265 346/399/309 306/359/269
f 306/359/269 346/399/309 307/360/270
f 307/360/270 346/399/309 347/400/310
f 347/400/310 346/399/309 342/395/305
f 345/398/308 330/383/293 348/401/311
f 348/401/311 330/383/293 332/385/295
f 348/401/311 332/385/295 349/402/312
f 345/398/308 348/401/311 350/403/313
f 345/398/308 350/403/313 351/404/314
f 348/401/311 349/402/312 352/405/315
f 348/401/311 352/405/315 350/403/313
f 352/405/315 349/402/312 353/406/316
f 351/404/314 350/403/313 354/393/317
f 354/393/317 350/403/313 355/407/318
f 355/407/318 350/403/313 356/408/319
f 352/405/315 353/406/316 357/409/320
f 356/408/319 350/403/313 358/410/321
f 358/410/321 350/403/313 352/405/315
f 352/405/315 357/409/320 359/411/322
f 356/408/319 358/410/321 360/412/323
f 360/412/323 358/410/321 352/405/315
f 356/408/319 360/412/323 361/408/324
f 361/408/324 360/412/323 342/395/305
f 360/412/323 352/405/315 362/413/325
f 360/412/323 362/413/325 342/395/305
f 362/413/325 352/405/315 359/411/322
f 342/395/305 362/413/325 347/400/310
f 362/413/325 359/411/322 363/414/326
f 362/413/325 363/414/326 347/400/310
f 14/415/327 364/416/328 365/417/329
f 365/417/329 364/416/328 366/418/330
f 365/417/329 366/418/330 367/419/331
f 14/415/327 365/417/329 12/420/332
f 12/420/332 365/417/329 368/421/333
f 368/421/333 365/417/329 367/419/331
f 12/420/332 368/421/333 10/422/334
f 10/422/334 368/421/333 11/423/335
f 11/423/335 368/421/333 114/424/336
f 114/424/336 368/421/333 113/425/337
f 113/425/337 368/421/333 367/419/331
f 113/425/337 367/419/331 369/426/338
f 113/425/337 369/426/338 370/427/339
f 371/428/340 364/416/328 14/415/327
f 371/428/340 14/415/327 96/429/341
f 371/428/340 96/429/341 97/430/342
f 371/428/340 97/430/342 248/431/111
f 364/416/328 371/428/340 372/432/343
f 372/432/343 371/428/340 248/431/111
f 372/432/343 248/431/111 233/433/344
f 364/416/328 372/432/343 373/434/345
f 373/434/345 372/432/343 374/435/346
f 288/341/251 291/344/254 297/350/260
f 297/350/260 291/344/254 301/354/264
f 301/354/264 291/344/254 304/357/267
f 304/357/267 291/344/254 293/346/256
f 304/357/267 293/346/256 294/347/257
f 304/357/267 294/347/257 329/382/292
f 329/382/292 294/347/257 298/351/261
f 329/382/292 298/351/261 325/378/288
f 188/205/188 185/202/185 183/200/183
f 340/393/303 345/398/308 354/393/317
f 354/393/317 345/398/308 351/404/314
f 340/393/303 354/393/317 337/390/300
f 337/390/300 354/393/317 355/407/318
f 337/390/300 355/407/318 356/408/319
f 337/390/300 356/408/319 339/392/302
f 339/392/302 356/408/319 342/395/305
f 342/395/305 356/408/319 361/408/324
f 264/302/242 260/296/241 319/372/282
f 264/302/242 319/372/282 322/375/285
f 319/372/282 260/296/241 253/289/240
f 319/372/282 253/289/240 318/371/281
f 318/371/281 253/289/240 245/281/239
f 318/371/281 245/281/239 316/369/279
f 316/369/279 245/281/239 241/277/237
f 316/369/279 241/277/237 314/367/277
f 314/367/277 241/277/237 312/365/275
f 312/365/275 241/277/237 237/273/235
f 312/365/275 237/273/235 310/363/273
f 310/363/273 237/273/235 234/270/234
f 310/363/273 234/270/234 239/275/236
f 310/363/273 239/275/236 283/336/246
f 308/361/271 307/360/270 375/436/347
f 375/436/347 307/360/270 347/400/310
f 308/361/271 375/436/347 309/362/272
f 375/436/347 347/400/310 363/414/326
f 309/362/272 375/436/347 311/364/274
f 375/436/347 363/414/326 376/437/348
f 375/436/347 376/437/348 311/364/274
f 376/437/348 363/414/326 359/411/322
f 311/364/274 376/437/348 313/366/276
f 376/437/348 359/411/322 377/438/349
f 376/437/348 377/438/349 313/366/276
f 377/438/349 359/411/322 357/409/320
f 313/366/276 377/438/349 378/439/350
f 378/439/350 377/438/349 357/409/320
f 378/439/350 357/409/320 353/406/316
f 313/366/276 378/439/350 315/368/278
f 378/439/350 353/406/316 349/402/312
f 315/368/278 378/439/350 379/440/351
f 379/440/351 378/439/350 349/402/312
f 315/368/278 379/440/351 317/370/280
f 317/370/280 379/440/351 320/373/283
f 379/440/351 349/402/312 331/384/294
f 379/440/351 331/384/294 320/373/283
f 331/384/294 349/402/312 332/385/295
f 320/373/283 331/384/294 321/374/284
f 321/374/284 331/384/294 328/381/291
f 104/104/103 100/100/99 103/103/102
f 104/104/103 103/103/102 110/110/109
f 110/110/109 103/103/102 123/127/124
f 110/110/109 123/127/124 121/125/122
f 122/126/123 124/128/125 121/125/122
f 124/128/125 122/126/123 126/130/127
f 126/130/127 122/126/123 218/441/352
f 126/130/127 218/441/352 129/133/130
f 129/133/130 218/441/352 219/442/353
f 129/133/130 219/442/353 136/142/136
f 136/142/136 219/442/353 221/443/354
f 136/142/136 221/443/354 140/147/140
f 140/147/140 221/443/354 220/444/355
f 140/147/140 220/444/355 143/152/144
f 143/152/144 220/444/355 146/155/147
f 146/155/147 220/444/355 222/445/356
f 146/155/147 222/445/356 150/160/151
f 150/160/151 222/445/356 224/446/357
f 150/160/151 224/446/357 154/165/155
f 154/165/155 224/446/357 158/170/159
f 158/170/159 224/446/357 223/447/358
f 158/170/159 223/447/358 163/175/162
f 163/175/162 223/447/358 225/448/359
f 163/175/162 225/448/359 167/180/166
f 167/180/166 225/448/359 181/198/181
f 167/180/166 181/198/181 171/185/170
f 275/322/233 274/320/233 290/343/253
f 275/322/233 290/343/253 276/323/233
f 290/343/253 274/320/233 292/345/255
f 292/345/255 274/320/233 273/317/243
f 292/345/255 273/317/243 295/348/258
f 295/348/258 273/317/243 272/316/243
f 295/348/258 272/316/243 271/314/243
f 276/323/233 290/343/253 289/342/252
f 276/323/233 289/342/252 277/325/233
f 277/325/233 289/342/252 278/328/233
f 278/328/233 289/342/252 279/330/233
f 279/330/233 289/342/252 286/339/249
f 279/330/233 286/339/249 280/332/233
f 280/332/233 286/339/249 281/333/233
f 281/333/233 286/339/249 282/335/245
f 296/349/259 295/348/258 271/314/243
f 296/349/259 271/314/243 270/311/243
f 296/349/259 270/311/243 269/310/243
f 296/349/259 269/310/243 267/306/243
f 296/349/259 267/306/243 268/308/244
f 268/308/244 267/306/243 266/305/243
f 380/449/360 381/450/361 382/451/362
f 380/449/360 382/451/362 186/203/186
f 380/449/360 186/203/186 189/206/189
f 186/203/186 382/451/362 184/201/184
f 184/201/184 382/451/362 175/192/176
f 184/201/184 175/192/176 177/194/177
f 175/192/176 382/451/362 174/191/66
f 380/449/360 189/206/189 383/452/363
f 380/449/360 383/452/363 381/450/361
f 383/452/363 189/206/189 384/453/364
f 384/453/364 189/206/189 191/208/191
f 174/191/66 382/451/362 385/454/365
f 385/454/365 382/451/362 381/450/361
f 174/191/66 385/454/365 56/455/366
f 174/191/66 56/455/366 55/190/175
f 56/455/366 385/454/365 386/456/367
f 386/456/367 385/454/365 381/450/361
f 386/456/367 381/450/361 387/457/368
f 387/457/368 381/450/361 388/458/369
f 388/458/369 381/450/361 383/452/363
f 387/457/368 388/458/369 389/459/370
f 389/459/370 388/458/369 383/452/363
f 389/459/370 383/452/363 384/453/364
f 387/457/368 389/459/370 390/460/371
f 391/461/372 384/453/364 191/208/191
f 384/453/364 391/461/372 389/459/370
f 391/461/372 191/208/191 193/210/193
f 390/460/371 389/459/370 392/462/373
f 392/462/373 389/459/370 391/461/372
f 390/460/371 392/462/373 393/463/374
f 391/461/372 193/210/193 394/464/375
f 391/461/372 394/464/375 392/462/373
f 394/464/375 193/210/193 196/213/196
f 393/463/374 392/462/373 395/465/376
f 395/465/376 392/462/373 394/464/375
f 393/463/374 395/465/376 396/466/377
f 396/466/377 395/465/376 397/467/378
f 397/467/378 395/465/376 394/464/375
f 396/466/377 397/467/378 398/468/379
f 394/464/375 196/213/196 399/469/380
f 394/464/375 399/469/380 397/467/378
f 399/469/380 196/213/196 200/217/199
f 398/468/379 397/467/378 400/470/381
f 399/469/380 200/217/199 203/220/202
f 399/469/380 203/220/202 401/471/382
f 399/469/380 401/471/382 397/467/378
f 401/471/382 203/220/202 204/221/203
f 400/470/381 397/467/378 402/472/383
f 402/472/383 397/467/378 401/471/382
f 400/470/381 402/472/383 403/473/384
f 403/473/384 402/472/383 404/474/385
f 404/474/385 402/472/383 401/471/382
f 403/473/384 404/474/385 405/475/386
f 401/471/382 204/221/203 406/476/387
f 401/471/382 406/476/387 404/474/385
f 406/476/387 204/221/203 207/224/206
f 405/475/386 404/474/385 407/477/388
f 407/477/388 404/474/385 406/476/387
f 405/475/386 407/477/388 408/478/389
f 406/476/387 207/224/206 409/479/390
f 406/476/387 409/479/390 407/477/388
f 409/479/390 207/224/206 211/228/210
f 408/478/389 407/477/388 410/480/391
f 407/477/388 409/479/390 411/481/392
f 411/481/392 409/479/390 211/228/210
f 407/477/388 411/481/392 410/480/391
f 408/478/389 410/480/391 412/482/393
f 412/482/393 410/480/391 411/481/392
f 408/478/389 412/482/393 413/483/394
f 411/481/392 211/228/210 414/484/395
f 411/481/392 414/484/395 412/482/393
f 414/484/395 211/228/210 213/230/212
f 414/484/395 213/230/212 415/485/396
f 414/484/395 415/485/396 412/482/393
f 415/485/396 213/230/212 215/232/214
f 413/483/394 412/482/393 416/486/397
f 416/486/397 412/482/393 415/485/396
f 413/483/394 416/486/397 370/487/398
f 370/487/398 416/486/397 108/488/399
f 108/488/399 416/486/397 415/485/396
f 370/487/398 108/488/399 113/489/400
f 108/488/399 415/485/396 106/490/401
f 106/490/401 415/485/396 215/232/214
f 106/490/401 215/232/214 99/234/216
f 417/491/402 418/492/403 419/493/404
f 418/492/403 417/491/402 405/494/405
f 405/494/405 417/491/402 403/495/406
f 418/492/403 405/494/405 408/496/407
f 403/495/406 417/491/402 420/497/408
f 420/497/408 417/491/402 419/493/404
f 403/495/406 420/497/408 400/498/140
f 418/492/403 408/496/407 421/499/409
f 421/499/409 408/496/407 413/500/410
f 418/492/403 421/499/409 422/501/411
f 421/499/409 413/500/410 423/502/412
f 421/499/409 423/502/412 422/501/411
f 423/502/412 413/500/410 370/427/339
f 423/502/412 370/427/339 369/426/338
f 418/492/403 422/501/411 424/503/413
f 418/492/403 424/503/413 419/493/404
f 422/501/411 423/502/412 425/504/414
f 425/504/414 423/502/412 369/426/338
f 424/503/413 422/501/411 426/505/415
f 424/503/413 426/505/415 419/493/404
f 422/501/411 425/504/414 373/434/345
f 422/501/411 373/434/345 426/505/415
f 425/504/414 369/426/338 427/506/416
f 425/504/414 427/506/416 373/434/345
f 427/506/416 369/426/338 366/418/330
f 366/418/330 369/426/338 367/419/331
f 427/506/416 366/418/330 373/434/345
f 373/434/345 366/418/330 364/416/328
f 428/507/417 419/493/404 426/505/415
f 419/493/404 428/507/417 429/508/418
f 419/493/404 429/508/418 420/497/408
f 420/497/408 429/508/418 430/509/419
f 430/509/419 429/508/418 428/507/417
f 420/497/408 430/509/419 431/510/420
f 420/497/408 431/510/420 400/498/140
f 400/498/140 431/510/420 398/511/421
f 398/511/421 431/510/420 396/512/422
f 396/512/422 431/510/420 432/513/423
f 432/513/423 431/510/420 430/509/419
f 396/512/422 432/513/423 393/514/424
f 393/514/424 432/513/423 433/515/425
f 393/514/424 433/515/425 390/516/426
f 432/513/423 430/509/419 434/517/427
f 390/516/426 433/515/425 435/518/428
f 433/515/425 432/513/423 436/519/429
f 436/519/429 432/513/423 434/517/427
f 433/515/425 436/519/429 435/518/428
f 390/516/426 435/518/428 387/520/430
f 434/517/427 430/509/419 437/521/431
f 387/520/430 435/518/428 438/522/432
f 387/520/430 438/522/432 386/523/433
f 435/518/428 436/519/429 439/524/434
f 435/518/428 439/524/434 438/522/432
f 436/519/429 434/517/427 440/525/435
f 436/519/429 440/525/435 439/524/434
f 440/525/435 434/517/427 437/521/431
f 437/521/431 430/509/419 428/507/417
f 438/522/432 439/524/434 441/526/436
f 441/526/436 439/524/434 442/527/437
f 442/527/437 439/524/434 440/525/435
f 438/522/432 441/526/436 443/528/438
f 443/528/438 441/526/436 442/527/437
f 444/529/439 386/523/433 438/522/432
f 444/529/439 438/522/432 443/528/438
f 386/523/433 444/529/439 56/56/56
f 56/56/56 444/529/439 57/57/57
f 444/529/439 443/528/438 445/530/440
f 444/529/439 445/530/440 57/57/57
f 445/530/440 443/528/438 442/527/437
f 57/57/57 445/530/440 58/58/58
f 58/58/58 445/530/440 60/60/60
f 60/60/60 445/530/440 61/61/61
f 61/61/61 445/530/440 442/527/437
f 61/61/61 442/527/437 63/63/63
f 63/63/63 442/527/437 446/531/441
f 63/63/63 446/531/441 258/532/360
f 63/63/63 258/532/360 261/533/362
f 63/63/63 261/533/362 64/64/64
f 64/64/64 261/533/362 66/66/66
f 258/532/360 446/531/441 256/534/363
f 446/531/441 442/527/437 447/535/442
f 446/531/441 447/535/442 256/534/363
f 447/535/442 442/527/437 448/536/443
f 447/535/442 448/536/443 256/534/363
f 448/536/443 442/527/437 440/525/435
f 256/534/363 448/536/443 255/537/364
f 255/537/364 448/536/443 449/538/444
f 449/538/444 448/536/443 440/525/435
f 255/537/364 449/538/444 252/539/372
f 252/539/372 449/538/444 250/540/375
f 449/538/444 440/525/435 450/541/445
f 449/538/444 450/541/445 250/540/375
f 450/541/445 440/525/435 437/521/431
f 250/540/375 450/541/445 246/542/380
f 450/541/445 437/521/431 451/543/446
f 450/541/445 451/543/446 246/542/380
f 451/543/446 437/521/431 428/507/417
f 246/542/380 451/543/446 242/544/382
f 242/544/382 451/543/446 452/545/447
f 452/545/447 451/543/446 428/507/417
f 242/544/382 452/545/447 236/546/387
f 452/545/447 428/507/417 453/547/448
f 452/545/447 453/547/448 236/546/387
f 453/547/448 428/507/417 426/505/415
f 236/546/387 453/547/448 454/548/449
f 454/548/449 453/547/448 426/505/415
f 236/546/387 454/548/449 232/549/390
f 454/548/449 426/505/415 455/550/450
f 454/548/449 455/550/450 232/549/390
f 455/550/450 426/505/415 373/434/345
f 232/549/390 455/550/450 227/551/392
f 455/550/450 373/434/345 456/552/451
f 455/550/450 456/552/451 227/551/392
f 456/552/451 373/434/345 374/435/346
f 227/551/392 456/552/451 228/553/395
f 228/553/395 456/552/451 374/435/346
f 228/553/395 374/435/346 230/554/396
f 230/554/396 374/435/346 372/432/343
f 230/554/396 372/432/343 233/433/344
